<?xml version="1.0" encoding="UTF-8" standalone="no"?>
<!DOCTYPE svg PUBLIC "-//W3C//DTD SVG 1.1//EN"
"http://www.w3.org/Graphics/SVG/1.1/DTD/svg11.dtd">
<svg version="1.1" xmlns="http://www.w3.org/2000/svg" xmlns:xlink="http://www.w3.org/1999/xlink">
<defs>
<style type="text/css"><![CDATA[
.g2_71{
fill: #1F1A17;
stroke: #1F1A17;
stroke-width: 1;
stroke-linecap: butt;
stroke-linejoin: miter;
}
.g1_71{
stroke: #1F1A17;
stroke-width: 1;
stroke-linecap: butt;
stroke-linejoin: miter;
}
]]></style>
</defs>
<path fill-rule="evenodd" d="M264.5,132.5l5,-2l-1,0c0,1,0,1,0,1l-4,2ZM162.5,146.5c0,1,0,1,0,2l0,1l-1,0c0,0,0,1,0,1l1,0l0,1l-1,0l-1,0c0,0,0,1,0,1l-1,0c0,1,0,1,-1,1l-1,1l-1,0c-1,0,-1,0,-1,0l-1,1l0,1c-1,0,-1,0,-1,0l-4,0l-1,-2c0,0,-1,0,-1,0c-1,0,-2,-1,-2,-1l-1,0l-1,-1l-1,0l0,-1l-1,0l0,-1l1,0l0,-1l-1,0l0,-1l0,-1l-1,0l0,-1l0,-1l0,-1c1,0,1,0,1,-1c0,0,0,-1,0,-1l1,0l-1,-1l0,-1l1,0l1,-1l1,0l0,-1l2,0l1,-1l1,0l1,-1c0,0,0,-1,0,-1l4,0l1,1l1,1l1,0l1,1l1,0c1,1,1,1,1,1l1,0l0,1c1,0,2,1,2,1l-1,1l0,1l1,0l0,1l0,1ZM153.5,156.5l1,-1l0,-1l1,0c1,0,1,-1,2,-1l1,0c0,0,1,-1,1,-1l1,0c0,-1,0,-1,0,-1l1,0l0,-1l1,0l-2,0l1,-1l0,-1l1,0l0,-1l0,-1c0,-1,0,-2,0,-3l-1,0c0,-1,0,-1,0,-1l-1,0l0,-1l2,0c-1,0,-1,-1,-2,-1l-1,-1l-1,0l-1,-1l-2,0c0,0,0,-1,0,-1l-1,-1l-1,0l0,-1l-4,0l0,1l-1,1c0,0,-1,1,-1,1l-2,0l-1,1l-1,0l0,1l-1,0c0,0,0,1,-1,1l1,0l0,1l-1,1l0,1l0,1l0,1l0,1l0,1c0,1,0,1,0,1l1,0l0,1l-1,0l0,1l1,0l1,1l1,0l1,1l1,0l1,1c0,0,1,0,1,0l0,1l1,0c0,1,0,1,0,1ZM159.5,141.5l-1,0l-1,-1l-1,0l-1,0c1,0,1,-1,1,-1l-1,0c1,0,1,0,1,0l1,0l0,1c1,0,1,0,1,0l1,1ZM159.5,151.5l-1,0l0,1l-1,0l-1,1l0,-1l1,0l0,-1c1,0,1,0,1,-1l1,0ZM154.5,153.5l0,1l-1,0l-4,0l-1,0c0,-1,0,-1,0,-1c0,-1,0,-1,0,-1c0,0,1,0,1,-1l4,0c0,0,1,0,1,0l0,1ZM154.5,139.5l0,1l-1,0l-4,0l-1,0l0,-1c0,-1,0,-1,0,-1l1,0l0,-1l4,0c1,0,1,1,1,1l0,1ZM153.5,141.5c0,0,1,0,1,0c0,0,1,0,1,0c0,0,1,0,1,0l1,1l2,0l0,1l1,1l0,1l0,1l0,1l0,1l-1,0c0,0,0,1,0,1l-1,0c0,0,-1,0,-1,0l0,1l-1,0l-1,1l-1,0c0,0,0,-1,0,-1l-1,0l-4,0c-1,0,-1,0,-1,1c-1,0,-1,-1,-2,-1l-1,0l0,-1l-1,0l-1,0l0,-2l0,-1c0,-1,0,-1,0,-1c0,-1,0,-1,0,-1l0,-1c1,-1,1,-1,1,-1l1,0l1,0l0,-1c1,0,1,0,2,0l1,0ZM153.5,150.5l1,0l1,0c1,0,1,0,1,0l1,0l0,-1l2,0l0,-1l0,-1l1,-1c0,-1,0,-1,-1,-2c0,0,0,-1,0,-1c0,0,0,-1,0,-1l-2,1l0,-1l-1,0l0,-1l-1,0c0,0,-1,0,-1,0l-1,1l-4,0l0,-1l-1,0c-1,0,-1,0,-1,0l-1,0l0,1c-1,1,-1,1,-1,1l-1,-1c0,0,0,1,0,1l-1,0l0,1l0,1l0,1l0,1l0,1c1,0,1,1,1,1l1,0l1,1l1,0l1,0l1,0l4,0ZM151.5,148.5l0,-1l-1,-1l0,-1l0,-1l0,1l1,1l0,1l0,-1l1,0l0,-1c0,-1,1,-1,1,-1l0,1c0,0,-1,0,-1,1l0,1l-1,1ZM144.5,141.5l0,-1l1,0l1,-1l1,0c0,0,0,1,0,1c0,0,-1,0,-1,0l-1,0l0,1l-1,0ZM144.5,151.5l0,-1c0,1,1,1,1,1l1,0l0,1l1,0l0,1l-1,0l0,-1c-1,0,-1,0,-2,-1ZM209.5,139.5l-1,-1l0,-2l2,1ZM211.5,146.5l0,1l-1,0c0,1,0,1,-1,1c-1,0,-1,0,-2,0l-1,0c0,0,-1,0,-1,0l-1,0l0,1l0,1c0,1,0,2,0,2c0,1,-1,1,-2,1l-1,0c0,0,0,-1,-1,-1c0,-1,0,-2,0,-4l-1,0c0,0,-1,0,-1,0l-1,0l-2,0c-1,0,-1,0,-1,0l0,-1c-1,0,-1,-1,-1,-1l0,1l-1,0c0,1,-1,1,-1,1c-1,0,-1,0,-2,0l-1,0c0,0,-1,0,-1,0c0,-1,0,-1,0,-1l0,-1l0,-1c1,0,1,1,1,1l1,0l1,0l1,0l1,0c1,0,1,-1,1,-1c0,0,0,-1,0,-1l0,-2l-1,-1l1,-1l0,-1l1,2l0,1l0,2c0,1,0,1,0,1c0,0,0,1,0,1c0,0,1,0,1,0l0,1l1,0l1,0l1,0l1,0l0,-1l1,0c0,0,0,-1,1,-1l0,-1l0,-1c1,-1,2,-2,3,-2l0,1l0,1l0,1c0,0,0,1,0,1c-1,1,-1,1,-2,2l1,0l1,0l1,0l1,0l1,0c1,0,1,0,2,-1c1,0,1,0,2,0c0,0,0,-1,0,-1l0,-1c0,0,-1,0,-1,0c0,0,0,1,0,1c0,0,-1,0,-1,0c0,0,-1,0,-1,0c0,-1,0,-1,0,-1c0,0,-1,-1,-1,-1c0,0,1,-1,1,-1l0,-1c1,-1,1,-1,1,-1c1,0,1,0,1,0c1,0,1,1,1,1l0,1l1,1c0,1,0,1,0,2c0,0,0,1,0,1l-1,0ZM208.5,142.5l0,1c0,0,1,0,1,0l1,0c0,-1,0,-1,0,-1c-1,0,-1,0,-1,0ZM207.5,132.5l5,-2l-1,1l-4,2ZM203.5,143.5c0,0,-1,0,-1,0c0,0,0,1,0,1l-1,1l0,1c1,0,1,-1,2,-1c0,0,1,-1,1,-1l-1,-1ZM201.5,149.5l0,1c0,0,0,1,1,1c0,0,0,1,1,1c0,0,0,-1,1,-1c0,-1,0,-1,-1,-2c-1,0,-1,0,-2,0ZM201.5,135.5l4,-2l-1,1l-4,2ZM183.5,142.5c0,-1,-1,-1,-1,-1l-1,0l0,1c0,0,-1,0,-2,1c0,0,-1,1,-1,1c0,1,1,1,1,1c0,0,1,1,1,1l1,0c1,0,2,0,2,0l0,1c0,0,0,1,0,1l-1,1l-1,1c0,0,-1,0,-1,1c-1,0,-2,0,-3,0c0,1,-1,1,-2,1c-1,0,-2,0,-2,-1c-1,0,-1,0,-2,0c0,-1,-1,-1,-1,-1c0,-1,0,-1,0,-2l0,-1c0,0,0,-1,0,-1c0,-1,1,-2,1,-2c0,0,0,-1,0,-1l1,0c0,1,0,1,-1,1c0,1,0,1,0,1c0,0,0,1,0,1l0,1c0,0,0,1,0,1l1,1c1,1,2,1,3,1c1,0,2,0,3,-1l2,0c1,0,1,0,1,0l0,-1c0,0,1,0,1,0l0,-1l-2,0c-1,0,-1,0,-2,0c-1,-1,-1,-1,-1,-2c0,-1,1,-1,1,-2l0,-1c1,0,1,0,1,0c0,-1,1,-1,1,-1c0,-1,1,-1,1,-1c1,0,1,-1,2,-1l0,1l1,0c0,1,0,1,0,1c0,1,0,1,-1,1ZM192.5,135.5c0,1,0,1,0,2l0,-1l0,-1c0,0,0,-1,0,-1l-1,0l0,-1l0,-1l1,0l0,1l0,1ZM246.5,141.5l-1,-1l1,-2l1,1ZM243.5,147.5l1,-1l3,-2c1,-1,1,-1,2,-1l1,0c0,0,0,-1,1,-1l0,1c1,0,1,0,1,0c0,0,1,0,1,0l0,1c0,0,0,1,0,1c0,0,0,1,0,1l0,1l-1,0c0,0,-1,0,-1,1c-1,0,-2,0,-3,0c-1,0,-2,0,-3,0l-1,0l-1,1c0,1,0,1,0,2c0,0,0,-1,0,-1l0,-1c0,-1,0,-1,0,-1l-1,0c0,-1,-1,-1,-1,-1l0,1c-1,0,-1,0,-1,0c0,0,-1,0,-1,0l-1,0l-1,0c-1,0,-1,0,-2,0c0,-1,-1,-1,-1,-2l0,-9l1,-2l0,10l1,0l0,1c0,0,1,1,1,1l1,0l1,0l1,0c0,0,0,-1,0,-1l1,0l0,-1c1,0,1,0,1,0c0,1,0,1,0,1c0,0,1,0,1,0c0,1,0,1,0,1ZM248.5,145.5l-1,0l0,1l-1,0l-1,1l2,0c0,0,1,0,2,0c1,-1,1,-1,2,-1c0,0,1,0,1,0c0,-1,0,-1,0,-1l-1,-1c0,0,-1,0,-1,0c0,0,-1,0,-1,0l-1,1ZM244.5,135.5l4,-2l0,1l-4,2ZM234.5,132.5l1,0c0,0,1,0,2,0c0,0,1,0,1,0l1,0l1,0c-1,1,-1,1,-2,1l-1,0l-1,0l-1,0l-1,0l-1,0c1,0,1,-1,1,-1ZM228.5,147.5c0,1,0,1,-1,1c1,0,1,0,1,0l1,0c0,-1,0,-1,0,-1ZM230.5,149.5c-1,0,-1,0,-2,1l-1,0c0,0,-1,0,-1,0c-1,0,-1,0,-1,0c-1,0,-1,0,-1,-1l0,-1c1,0,1,0,1,0l1,0l0,-1c1,0,1,0,1,0c0,0,0,-1,1,-1c0,0,0,-1,-1,-1c0,-1,0,-1,0,-1c-1,-1,-1,-1,-2,-2l-1,-1c0,0,-1,-1,-1,-1c-1,0,-1,0,-1,0c0,0,-1,0,-1,0c0,0,0,-1,-1,-1c0,-1,0,-1,0,-1c0,-1,0,-1,0,-1c0,-1,0,-1,1,-1c0,0,1,1,1,1c1,1,1,1,2,1c0,1,1,2,2,2c0,1,1,2,1,3c1,0,1,0,1,1l1,1c0,-1,0,-1,0,-2c0,0,0,-1,0,-1c0,-1,0,-2,0,-2c0,0,0,-1,0,-2c0,0,0,-1,0,-1c0,-1,0,-1,0,-1l0,-1c0,0,1,0,1,0c0,0,0,1,0,1c1,0,1,0,1,0c0,0,0,1,0,1c0,0,0,1,0,1l-1,0c0,1,0,1,0,2c0,0,0,1,0,1c0,1,0,1,0,1c0,1,0,2,0,2c-1,1,-1,1,-1,1c0,1,0,1,0,1c1,1,1,1,1,1c0,0,0,1,0,1c0,0,0,1,0,1ZM225.5,131.5l0,1l1,0c0,0,0,-1,0,-1l0,-1l1,0l0,1c0,0,1,0,1,-1l0,-1l0,1l0,1c0,1,0,1,-1,1l-1,0c0,1,-1,1,-1,1c0,0,0,-1,0,-1l-1,0l1,-1ZM223.5,130.5l5,-3c0,1,0,1,0,2l-5,2ZM225.5,127.5l5,-3c0,1,0,1,0,2l-5,2ZM311.5,144.5l0,1c0,0,-1,0,-1,0c1,0,1,0,1,0c1,0,1,0,1,0c-1,-1,-1,-1,-1,-1ZM311.5,152.5l-1,0c0,1,0,1,0,1c-1,0,-1,0,-2,0c-1,0,-1,0,-2,0c0,0,0,-1,-1,-1c1,0,1,0,1,0c0,0,1,0,1,0l1,0c1,0,1,0,1,0c0,0,0,-1,1,-1l1,0c0,-1,0,-1,0,-1c1,0,1,-1,1,-1c0,-1,1,-1,1,-2l-1,0c-1,0,-1,0,-1,0c-1,0,-1,0,-1,0l-1,-1l0,-1c0,0,1,0,1,0c0,-1,0,-1,0,-2l1,0c0,-1,0,-1,0,-1c1,0,1,0,1,0c0,1,1,1,1,1c0,1,0,1,0,1c0,0,0,1,0,1c0,1,0,1,0,1c0,1,0,1,0,1c0,1,0,2,0,3c-1,0,-1,1,-1,1c0,0,-1,1,-1,1ZM308.5,139.5l4,-3l0,1l-4,3ZM304.5,144.5c0,0,-1,0,-1,1l1,0c0,-1,0,-1,0,-1ZM304.5,152.5c0,0,-1,0,-1,0c0,1,0,1,-1,1c0,0,-1,0,-1,0l-1,0c0,0,-1,0,-1,0c0,0,-1,-1,-1,-1c0,0,1,0,1,0c1,0,1,0,1,0c1,0,1,0,1,0c1,0,1,-1,1,-1c1,0,1,0,1,0c1,-1,1,-1,1,-1c0,0,0,-1,1,-1c0,-1,0,-1,0,-2l-1,0c-1,0,-1,0,-1,0l-1,0l0,-1l0,-1c0,-1,1,-1,1,-2c1,-1,1,-1,1,-1c0,0,1,0,1,0c0,1,0,1,0,1c1,1,1,1,1,1c0,0,0,1,0,1c0,1,0,1,0,1c0,1,0,1,0,1c0,1,0,2,-1,3c0,0,0,1,0,1c-1,0,-1,1,-1,1ZM301.5,139.5l4,-3l0,1l-4,3ZM291.5,150.5l-1,2l-1,-1l1,-2ZM297.5,144.5l0,2l-1,0c-1,0,-1,0,-1,0l-1,0c0,0,-1,0,-1,0l-1,1l-1,0l-1,1l-1,0l-1,0l-1,0l-1,0l-2,0c-1,0,-1,0,-1,0l0,-1l-1,0c0,0,0,-1,0,-1l0,1l-1,0c0,1,-1,1,-1,1c-1,0,-1,0,-2,0l-1,0c0,0,-1,0,-1,0c0,-1,0,-1,0,-1l0,-1l0,-1c0,0,0,1,1,1l1,0l1,0c1,0,1,0,1,0l1,0c0,0,1,-1,1,-1c0,0,0,-1,0,-1l-1,-2l0,-1l1,-1l0,-1l0,2c1,0,1,0,1,1l0,2c0,1,0,1,0,1c0,0,0,1,0,1l1,0l0,1l2,0c0,-1,0,-1,0,-1l0,-1l1,0c0,-1,0,-1,0,-1c0,0,0,-1,0,-1c1,0,1,0,1,0c0,-1,1,-1,1,-1l1,0c1,0,1,0,1,0c0,0,0,1,0,1l2,0l2,1l1,0l1,0ZM293.5,145.5l-1,0c-1,-1,-1,-1,-2,-1c0,0,-1,0,-1,0c0,0,-1,0,-1,0c0,0,0,1,0,1c0,0,-1,0,-1,0c0,1,0,1,0,1l0,1l1,0l0,-1c1,0,1,0,1,0l1,0l1,0l1,-1ZM289.5,135.5l5,-2l-1,1l-4,2ZM278.5,135.5l4,-2l-1,1l-4,2ZM272.5,147.5c0,0,0,1,0,1c0,0,-1,0,-1,0c0,0,-1,0,-1,0c-1,0,-2,0,-2,0c-1,0,-2,0,-3,0c0,0,-1,0,-2,0l-1,0l0,-1c0,-1,0,-1,0,-1c0,0,0,-1,0,-1c1,0,1,0,1,0l0,1c0,0,0,1,1,1l1,0l5,0c1,0,1,0,2,0c0,-1,0,-1,0,-1c0,0,0,-1,0,-1c0,-1,0,-1,0,-2l0,-1c0,-1,0,-2,0,-2c0,-2,0,-3,0,-3c0,0,-1,0,-1,-1c0,0,0,-1,1,-1c0,0,0,-1,0,-1c0,0,0,1,0,1l1,0c0,1,0,1,0,1l0,1l0,1l0,-1l0,1c0,0,0,1,0,2c0,0,0,1,0,2c0,1,0,1,0,2c0,1,0,1,0,1l0,1c0,1,0,1,-1,1ZM269.5,143.5c0,0,-1,1,-1,1c0,0,-1,0,-1,0l-1,0c0,0,-1,0,-1,0l1,0c0,0,1,-1,1,-1c1,0,1,0,1,0l0,-1l-1,0l-1,0l0,-1c0,0,0,-1,1,-1c0,0,0,-1,0,-1c1,0,1,0,1,-1c1,0,1,0,1,0l0,1c0,0,-1,0,-1,0c0,0,0,1,-1,1c0,1,1,1,1,1c1,0,1,0,1,0c0,0,1,1,1,1c0,0,-1,1,-1,1Z" class="g1_71" />
<path fill-rule="evenodd" d="M216.5,457.5l0,1l-1,0c-1,1,-1,1,-2,1l-1,0c1,0,2,-1,3,-1c-1,-1,-1,-1,-1,-1c0,-1,0,-1,0,-2c1,0,1,0,1,0c1,0,1,0,1,1l0,1ZM238.5,458.5c0,0,0,1,0,1c-1,0,-1,1,-1,1c-1,0,-1,0,-1,-1c0,1,0,1,0,1c-1,0,-1,0,-1,0c0,0,-1,0,-1,0c0,0,0,-1,0,-1l0,-1c0,1,1,1,1,1l1,0c0,-1,0,-1,0,-1l0,-1c0,1,0,1,1,1l0,-1l1,0c0,0,0,1,0,1ZM238.5,450.5l0,1l-4,1c1,0,1,-1,1,-1ZM233.5,454.5l-1,1l-1,-1l1,-1ZM231.5,454.5l-1,1l-1,-1l1,-1l1,1ZM220.5,462.5c-3,1,-5,2,-8,2c-1,0,-2,0,-3,-1c-1,0,-1,-1,-1,-2c0,-1,0,-1,0,-2c1,-1,1,-1,1,-1c0,1,0,1,0,2c0,0,0,1,2,2c1,0,2,0,3,0c2,0,4,-1,6,-2c0,0,0,1,1,1c0,1,2,1,3,0c0,0,0,-1,1,-1c0,0,0,1,0,1c1,1,5,1,7,0c0,0,0,-1,0,-1c-1,0,-1,0,-1,0c-1,0,-1,0,-2,0c0,0,0,-1,0,-1c0,-1,0,-1,1,-2c0,-1,0,-1,1,-1l1,0c1,1,1,2,1,4c0,1,0,2,-1,3c-2,1,-4,1,-6,1c0,0,-1,-1,-1,-1c-1,0,-1,-1,-1,-1c-1,2,-4,2,-4,0ZM231.5,459.5l0,-1c-1,0,-1,0,-1,0l0,1c0,0,1,0,1,0ZM227.5,467.5l-1,1l-2,-1l-1,1l-1,-1l1,-1l1,1l2,-1ZM215.5,467.5l-2,1l-1,-1l1,-1ZM242.5,454.5c0,0,-1,0,-1,1c0,0,0,1,0,1c0,0,0,1,0,1c0,1,0,2,0,2l0,2c0,1,0,2,0,3c-1,1,-1,1,-2,1l-1,0c-1,0,-1,0,-1,0c0,1,0,2,-1,3c-1,1,-2,2,-3,2c0,0,-1,0,-1,-1c-1,0,-1,-1,-2,-1c0,0,1,0,1,0c1,0,1,0,1,0c1,0,1,0,3,-1c1,-1,1,-1,1,-2l0,-1c0,0,-1,0,-1,0c1,-1,1,-1,1,-2c0,1,1,1,1,1l1,0c2,0,2,0,2,-1c0,-3,0,-6,0,-7c-1,-1,-1,-1,-1,-2c0,-1,1,-1,2,-2c0,1,0,1,0,1c0,0,0,1,0,1c0,0,1,1,1,1ZM245.5,459.5c0,3,-1,4,-1,5l0,-12c0,0,0,-1,1,-2ZM224.5,457.5c0,0,-1,1,-2,1c0,0,1,0,1,0c0,-1,0,-1,0,-1c-1,0,-1,-1,-1,-1c0,-1,0,-1,1,-1l1,1l0,1ZM234.5,463.5c0,1,0,1,0,1l-3,2l0,-1ZM246.5,447.5l-1,1l-3,1l1,-1ZM215.5,456.5l0,1c0,0,0,-1,0,-1Z" class="g2_71" />
</svg>