<?xml version="1.0" encoding="UTF-8" standalone="no"?>
<!DOCTYPE svg PUBLIC "-//W3C//DTD SVG 1.1//EN"
"http://www.w3.org/Graphics/SVG/1.1/DTD/svg11.dtd">
<svg version="1.1" xmlns="http://www.w3.org/2000/svg" xmlns:xlink="http://www.w3.org/1999/xlink">
<defs>
<style type="text/css"><![CDATA[
.g1_72{
stroke: #1F1A17;
stroke-width: 1;
stroke-linecap: butt;
stroke-linejoin: miter;
}
]]></style>
</defs>
<path fill-rule="evenodd" d="M311.5,123.5l-2,-1l1,-1l2,1ZM126.5,113.5l0,-1l-1,0l-1,1l-1,0l1,0l0,-1l-1,0l0,-1l0,-1l1,0l-1,-1c0,1,0,1,0,2l0,1l0,1c0,0,0,1,0,1l-1,0c0,0,-1,0,-1,0l1,1l1,0c1,0,1,0,2,-1c0,0,1,0,1,0l0,-1ZM125.5,113.5c0,0,1,0,1,0c0,0,-1,1,-1,1l-1,0c-1,0,-1,0,-1,0l1,0l0,-1l1,0ZM253.5,98.5l0,1l-1,0l0,1l0,1c0,0,1,0,1,1l-1,0l0,-1l0,-1l0,-1c0,-1,0,-1,1,-1l1,-1l1,0ZM253.5,100.5c1,-1,1,-1,1,-1c0,0,1,-1,1,-1c0,1,0,1,0,1c0,0,1,0,1,1c0,0,-1,0,-1,0l0,1l1,0l0,2l-1,-1l-1,0l0,1c-1,0,-1,0,-1,0l0,1l-1,0l-1,0l1,-1l1,0l0,-1l1,0l0,-1c-1,0,-1,0,-1,0l0,-1ZM255.5,100.5l-1,0l1,1l0,-1ZM187.5,123.5l-1,-1l1,-1l1,1ZM185.5,119.5l-1,0l-1,0c-1,0,-2,0,-2,0c-1,-1,-1,-1,-1,-2l0,-9l0,-2l1,10l0,1c1,0,1,1,2,1l1,0l1,0c0,0,1,0,1,-1c1,0,1,0,1,0l1,0l0,-1l-1,0c0,0,0,-1,0,-1l0,-2c1,0,1,0,1,1l0,1l0,1l0,1l0,1c-1,1,-1,1,-2,1c0,0,-1,0,-1,0ZM186.5,125.5l-3,2c0,0,0,-1,0,-1l4,-2ZM173.5,118.5l1,0c0,0,0,-1,0,-1c1,0,1,0,1,0l0,-1l0,-2l0,-6c-1,-1,-1,-1,-1,-1c0,0,1,0,1,-1l1,1l1,0c-1,0,-1,1,-1,1c0,0,0,1,0,1c0,0,0,1,0,2c0,0,0,1,0,2c0,1,0,1,0,2l0,1l0,1l0,1l-1,0l0,1c-1,0,-1,0,-1,0c-1,0,-1,0,-1,0l-1,0l-1,0c0,1,0,1,0,1c0,1,0,1,-1,2l0,1c-1,0,-1,0,-1,1c-1,0,-1,0,-1,0c0,0,-1,0,-1,0c0,1,0,1,0,1c-1,0,-1,0,-1,0l-1,0c0,0,-1,0,-1,-1c-1,0,-1,0,-1,0l0,-1c0,1,0,1,1,1c1,0,1,0,2,0c0,-1,1,-1,1,-1c0,0,1,-1,1,-1l1,0c0,-1,0,-1,0,-1c0,-1,1,-1,1,-1c0,-1,0,-1,0,-1c0,0,-1,0,-1,0l-1,0c0,0,-1,-1,-1,-1c0,-1,0,-1,0,-1c0,0,0,-1,0,-1c1,0,1,0,1,-1c0,0,1,0,1,0c0,-1,0,-1,0,-1c0,0,1,0,1,1c0,0,1,1,1,1c0,1,0,1,0,2c1,0,1,0,1,0l1,0ZM173.5,101.5l1,0c0,0,1,0,1,0c1,0,1,0,1,0c1,0,1,0,1,1l-1,1c0,0,-1,0,-1,0c0,1,0,1,0,1c0,0,-1,0,-1,0l-1,0l2,-1c0,0,1,0,1,-1l-1,0c-1,0,-1,0,-2,0c0,0,0,-1,0,-1ZM169.5,116.5c-1,0,-1,0,-1,0c0,0,0,1,0,1c0,0,1,0,1,0c0,0,0,1,1,1c0,-1,0,-1,0,-1c0,0,-1,0,-1,-1ZM165.5,110.5l4,-3l0,1l-4,3ZM157.5,116.5l-1,0l-1,1l-1,1l2,0c0,0,1,0,2,0c1,-1,1,-1,2,-1c0,0,1,0,1,0c0,-1,0,-1,0,-1l-1,-1c0,0,-1,0,-1,0c0,0,-1,0,-1,0l-1,1ZM152.5,118.5l1,-1l3,-2c1,-1,1,-1,1,-1c1,0,1,0,2,0c0,0,0,-1,1,-1l0,1c1,0,1,0,1,0c0,0,1,0,1,0l0,1c0,0,0,1,0,1c0,0,0,1,0,1l0,1l-1,0c0,0,-1,0,-1,1c-1,0,-2,0,-3,0c-1,0,-2,0,-3,0l-1,0l-1,1c0,1,0,1,0,2c0,0,0,-1,0,-1l0,-1c0,-1,0,-1,0,-1l-1,0c0,-1,-1,-1,-1,-1l0,1l-1,0l-1,0l-1,0c-1,0,-1,0,-1,0c0,0,-1,-1,-1,-1c0,0,0,1,-1,1c0,0,-1,0,-1,0l-1,0l-2,0c-1,0,-1,0,-1,0l0,-1c-1,0,-1,-1,-1,-1l0,1l-1,0c0,1,-1,1,-1,1c-1,0,-1,0,-2,0l-1,0c0,0,-1,0,-1,0c0,-1,0,-1,0,-1l0,-1l0,-1c0,0,1,1,1,1l1,0l1,0l1,0l1,0c1,0,1,-1,1,-1c0,0,0,-1,0,-1l0,-2l-1,-1l1,-1l0,-1l1,2l0,1l0,2c0,1,0,1,0,1c0,0,0,1,0,1c0,0,1,0,1,0l0,1l1,0l1,0l1,0l1,-1c1,0,1,0,1,0c0,-1,0,-1,0,-1l1,0l0,1c1,0,1,1,1,1c1,0,1,0,1,0c1,0,1,-1,1,-1l1,0l0,-1c1,0,1,0,1,0l0,1c0,0,1,0,1,1ZM152.5,122.5l-4,3c0,-1,1,-1,1,-2l4,-2ZM146.5,122.5l-1,0l-1,1l-1,-1l1,-2l1,1l1,-1l1,1ZM135.5,122.5l-4,3c0,-1,0,-1,0,-2l5,-2ZM236.5,108.5l-1,0l0,-2l2,1ZM240.5,118.5l-1,0l0,1c-1,0,-1,0,-2,0l-1,0l-1,0l-1,0l0,-1l0,-1l1,0c1,0,1,0,2,0l1,0l1,0l0,-1l0,-1l-1,-1l-1,-1l-1,0l0,-2c0,0,1,0,1,0c0,0,1,0,1,0c0,1,0,1,0,1c1,0,1,0,1,0c0,1,0,1,1,1c0,1,0,1,0,2l0,1c0,1,0,1,0,1c0,0,0,1,0,1ZM238.5,122.5l-5,3c1,-1,1,-1,1,-2l4,-2ZM223.5,123.5l0,-1l1,0l1,1c1,0,2,-1,3,-1c0,-1,0,-1,1,-1c0,-1,1,-1,1,-2l0,-1c1,0,1,0,1,0c0,-1,0,-1,0,-1l-1,0l0,-1l0,-1c0,0,-1,0,-1,0l1,-1l0,-1l1,1c0,0,0,1,0,1l0,1l0,1c0,1,0,1,0,2c0,0,0,1,0,1c-1,1,-1,1,-1,1c0,1,0,1,-1,1c0,0,0,1,0,1l-1,0c0,0,-1,0,-1,0c0,0,-1,0,-1,0c-1,0,-1,0,-1,0c-1,0,-1,0,-1,0ZM226.5,110.5l4,-3l0,1l-4,3ZM222.5,119.5l0,-1l0,-1l0,-8l0,-3l1,11c0,1,0,1,0,1c0,1,-1,1,-1,1ZM218.5,116.5c-1,0,-1,1,-2,1c-1,1,-2,1,-4,2c-1,0,-2,0,-3,0c-1,0,-1,0,-1,0c-1,0,-1,0,-1,0c0,0,0,-1,-1,-1c0,0,0,1,-1,1c0,0,-1,0,-1,0l-1,0c0,0,-1,0,-1,0c0,0,-1,0,-1,0c0,-1,0,-1,0,-1l0,-1c-1,0,-1,0,-1,-1l0,1c-1,0,-1,0,-1,1l-1,0c-1,0,-1,0,-1,0l-1,-1l0,-1c0,0,0,-1,1,-1c0,-1,1,-1,2,-2c0,0,1,0,1,0l0,-1l0,-1l1,1c0,0,0,1,0,1c0,0,0,1,0,1l0,2c0,1,0,1,0,1c0,0,1,0,1,0l0,1c1,0,1,0,1,0l1,0l1,-1l1,0c0,-1,0,-1,0,-1l1,0l0,1c1,1,1,1,2,1l1,0c0,0,0,-1,0,-1c1,0,1,0,2,0c-1,0,-1,-1,-1,-1c0,0,0,-1,0,-1c0,-1,0,-1,0,-1l0,-1c0,0,0,-1,0,-1c1,0,1,0,1,0l0,-1c1,0,1,0,1,0c1,0,1,0,1,0l1,0c1,0,1,0,1,0c0,0,0,1,1,1l0,1l-1,-1l-1,0l-1,0l-1,0l0,1c-1,0,-1,0,-1,0l0,1c0,0,0,1,1,1c0,1,1,1,1,1c1,0,1,0,1,0l1,0l1,-1l1,0l1,-1ZM210.5,106.5l4,-2l0,1l-5,2ZM208.5,122.5l-2,0l-1,1l-1,-1l1,-2l1,1l1,-1l1,1ZM291.5,105.5c1,0,1,0,1,0c1,-1,1,-1,2,-1c0,0,1,0,1,1c0,0,1,0,1,0c-1,1,-1,1,-1,1c0,1,0,1,-1,1c-1,0,-1,0,-1,0l-1,0l1,0c1,0,1,-1,2,-1c0,0,-1,0,-1,0l-1,0c0,0,-1,0,-1,0l-1,0c0,0,0,-1,0,-1ZM143.5,106.5c0,-1,1,-1,1,-1c0,0,1,0,1,0c1,0,1,0,2,0c0,0,0,1,0,1c0,0,0,1,0,1c-1,0,-1,0,-1,1c0,0,-1,0,-1,0l-1,0l-1,0l2,-1c1,0,1,0,2,-1c-1,0,-1,0,-1,0c-1,0,-1,0,-1,0c0,0,-1,0,-1,0c-1,0,-1,1,-1,1l0,-1ZM204.5,101.5l1,0l1,0c0,0,1,0,1,0c1,0,1,0,1,1c0,0,-1,0,-1,1c-1,0,-1,0,-1,0c0,1,0,1,0,1c-1,0,-1,0,-1,0l-1,0l1,-1c1,0,2,0,2,-1c0,0,-1,0,-1,0l-1,0l-1,0l-1,0c0,0,1,-1,1,-1ZM200.5,114.5l-1,0l0,1l-1,0l-1,1l1,0l1,0c1,0,1,0,1,-1ZM201.5,122.5l-5,3c1,-1,1,-1,1,-2l4,-2ZM279.5,123.5l-2,-1l1,-1l1,1ZM275.5,119.5l-1,0c0,-1,0,-1,0,-1c0,0,0,-1,0,-1l-1,1c-1,1,-1,1,-2,1c0,0,-1,0,-1,-1l-1,0c0,1,0,1,-1,1c-1,0,-2,0,-2,-1c-1,1,-1,1,-2,1l-1,0l-13,0c0,0,-1,0,-1,0c-1,-1,-1,-1,-1,-1l0,-1l1,1l1,0l1,0l1,0c0,0,1,-1,1,-1c0,0,0,-1,0,-1l1,-1l-1,-2l0,-1l0,-3l0,-2c0,0,0,-1,0,-1l1,1c0,1,0,1,0,2l0,1l0,1l0,1l0,1l0,2l0,1l1,-1l1,-1l1,0c1,0,1,-1,1,-1l1,0c1,0,1,0,2,1l1,1c0,1,0,1,0,1c-1,0,-1,1,-1,1l-1,1l2,0l1,0l1,0l1,-1c1,0,1,-1,2,-1l0,1l1,1c0,0,1,-1,1,-1c0,0,1,0,1,-1l1,-1c0,1,0,1,0,2l1,0l1,0l0,-1l1,-1c0,2,1,3,2,3c1,0,1,0,2,-1c0,0,1,0,1,0l0,-1c0,0,-1,-1,-1,-1l1,-2l0,1l0,1l1,0l0,1l0,1l-1,0l0,1c0,1,-1,1,-1,1c-1,0,-1,0,-1,0l-1,0ZM276.5,109.5l0,-1c0,0,0,-1,0,-1c0,-1,-1,-2,-1,-2l0,-1l1,0l0,1c0,0,0,1,0,1l0,1c0,1,0,1,0,1l0,1ZM273.5,122.5l-4,3c0,-1,0,-1,0,-1l0,-1l4,-2ZM260.5,116.5l0,-1l-1,0l-1,0c0,0,-1,0,-1,1l-2,0l0,1l-1,1l1,0c0,0,1,0,1,-1c0,0,1,0,1,0l1,0c1,0,2,0,2,-1ZM331.5,115.5c-1,0,-1,0,-1,1l1,0c0,-1,0,-1,0,-1ZM331.5,123.5c-1,0,-1,0,-1,0c0,1,0,1,-1,1c0,0,-1,0,-1,0l-1,0c0,0,-1,0,-1,0c-1,0,-1,-1,-1,-1l1,0c1,0,1,0,1,0c0,0,1,0,1,0c1,0,1,-1,1,-1c0,0,1,0,1,0c1,-1,1,-1,1,-1c0,0,0,-1,1,-1c0,-1,0,-2,0,-2c-1,0,-1,0,-1,0l-1,0c0,0,-1,0,-1,0l0,-1l0,-1c0,-1,0,-1,1,-2c0,-1,1,-1,1,-1c0,0,1,0,1,0c0,1,0,1,0,1c0,1,1,1,1,1c0,0,0,1,0,1c0,1,0,1,0,1c0,1,0,1,0,1c0,1,-1,2,-1,3c0,0,0,1,-1,1c0,0,0,1,0,1ZM328.5,110.5l4,-3l0,1l-1,0l-4,3ZM327.5,106.5c0,0,-1,1,-2,1c-1,1,-3,1,-4,2c-1,0,-2,1,-2,1c0,0,-1,0,-1,0c0,1,0,1,0,1l1,0l1,1c1,0,1,1,2,2l1,1c0,0,0,1,0,1c0,1,0,1,-1,2c0,1,0,1,-1,1l-1,0l-1,0l-1,0c0,0,-1,0,-1,0c0,0,-1,-1,-1,-2c0,1,0,1,-1,2l-1,0l-1,0c-1,0,-1,0,-1,0l-1,-1c0,0,0,1,-1,1l-1,0l-1,0c-1,0,-1,0,-2,0l-1,0l1,1l0,1c0,1,0,2,0,2c-1,1,-1,1,-2,1l-1,0c0,0,-1,-1,-1,-1c0,-1,0,-2,0,-4l-1,0c-1,0,-1,0,-1,0l-1,0c-1,0,-2,0,-2,0l-1,-1c0,1,0,1,0,2l-1,0l-1,0c-1,-1,-1,-1,-2,-1l0,1c0,0,-1,1,-1,1c-1,0,-1,1,-2,1c-2,0,-3,0,-4,0l4,-2l2,-1l1,-1l1,-1c0,-1,0,-1,1,-2l1,0l1,1c0,1,1,1,1,1c0,0,1,0,1,0c0,1,0,1,1,1l1,0l1,0l0,-1l1,0c0,0,0,-1,0,-1l1,-1l0,-1c1,-1,2,-2,2,-2c0,0,1,0,1,1l0,1l0,1c0,0,0,1,-1,1c0,1,-1,1,-1,2l1,0l1,0l1,0l1,0l1,0l0,-1c1,0,1,0,1,0c0,0,1,0,1,0c0,-1,0,-1,0,-1l0,1c1,0,1,0,1,0c1,1,1,1,1,1l1,0l1,0c0,-1,0,-1,1,-1c0,0,0,-1,0,-1c0,-1,0,-1,0,-1c0,0,0,-1,0,-1l-1,-7l1,-2l1,11l0,1c0,0,1,0,1,0c0,1,0,1,0,1l1,0l1,0c0,0,0,-1,1,-1c1,0,1,0,1,0c0,0,0,-1,0,-1l0,-1c0,0,-1,-1,-2,-1c0,0,0,-1,0,-1c-1,0,-1,0,-1,0c-1,0,-1,0,-1,0c0,0,0,-1,0,-1c-1,0,-1,0,-1,0l0,-1l0,-1l1,-1c1,-1,2,-1,4,-2c1,-1,2,-1,4,-2c0,0,1,0,2,0ZM322.5,103.5l4,-2c0,1,0,1,0,1l-5,2ZM314.5,98.5c0,0,1,-1,1,-1c1,0,1,0,1,0c1,0,1,0,2,0c0,1,0,1,0,1c0,1,0,1,0,1c0,0,-1,1,-1,1c0,0,-1,0,-1,0l-1,0l-1,0l2,0c1,-1,1,-1,2,-1c-1,0,-1,-1,-1,-1c0,0,-1,0,-1,0c0,0,-1,0,-1,1c0,0,-1,0,-1,0c0,-1,0,-1,0,-1ZM310.5,103.5c0,-1,1,-1,1,-1c1,1,1,1,1,1c0,0,0,1,0,1l-1,0c0,1,0,1,0,1l1,0l0,2l-1,-1l-1,0l0,1c-1,0,-1,0,-1,1l-1,0l-1,0l1,-1l1,0l0,-1l1,0l0,-1c-1,0,-1,0,-1,-1l1,-1ZM311.5,104.5l-1,-1l0,1l1,0l0,1l0,-1ZM305.5,114.5l-1,0c0,0,0,1,-1,1l0,1l-1,1c1,0,2,-1,3,-1c0,0,0,-1,0,-1l0,-1ZM302.5,119.5c0,1,0,1,0,2c1,0,1,1,1,1l1,0c0,0,0,1,0,1c1,0,1,-1,2,-1c0,-1,-1,-1,-2,-2c0,0,-1,0,-2,-1ZM304.5,103.5l1,0c0,-1,0,-1,0,-1c1,0,1,0,1,0c0,1,0,1,0,1c0,0,0,1,0,1c0,1,0,1,0,1l0,2l-1,-1l-1,1l-1,1l-1,0l0,-1l1,0l1,-1l0,-1l0,-1l0,-1ZM305.5,104.5l0,-1c0,0,-1,0,-1,1l1,0l0,1l0,-1ZM295.5,118.5l0,-1c0,0,-1,-1,-1,-1l0,1c0,0,-1,0,-1,0c0,0,1,0,1,1l1,0Z" class="g1_72" />
<path fill-rule="evenodd" d="M311.5,334.5l0,1c0,0,1,0,1,0l1,-1l0,-1l0,1l1,0c0,0,1,0,1,-1l0,-1l0,1l0,1l0,1c0,0,0,1,-1,1c0,0,-1,0,-1,0l0,-1l0,1c-1,0,-1,1,-1,1c-1,0,-1,0,-1,-1l0,-1l0,-1ZM93.5,487.5c0,0,0,1,-1,2l0,1c-1,0,-1,0,-1,1l1,0l0,1l-1,0l-1,1c0,0,-1,1,-2,1l-1,0l0,1l-1,0l-1,0l-1,1l0,1l-3,0l-3,0l-1,0l0,-1l-1,-1l-1,0c-1,0,-2,-1,-2,-1l-1,0l0,-1l-1,0l-1,-1l-1,0l0,-1l1,0l0,-1l-1,-1l0,-1c0,0,0,-1,0,-1l0,-1c0,-1,0,-1,0,-1c0,0,0,-1,0,-1c0,0,0,-1,1,-1l-1,-1l1,-1l1,0l0,-1l1,0l0,-1l2,0l1,-1l1,0l1,-1c0,-1,0,-1,0,-1l1,0l3,0l3,0l0,1l1,0l0,1l1,0l2,1l1,0c0,0,0,1,0,1l1,0l1,1c0,0,1,1,1,1l-1,1l1,0l0,1l0,1l1,1ZM84.5,497.5l0,-1l1,0l0,-1l1,0c0,-1,1,-1,1,-1l1,0c1,0,1,-1,2,-1l0,-1c0,0,1,0,1,0l1,0l0,-1l-1,0l0,-1l1,0l0,-1l0,-1l0,-1c0,-1,0,-2,0,-3l0,-1c-1,0,-1,0,-1,0l0,-1l1,0c0,0,-1,-1,-1,-1l-1,0l0,-1l-1,0l-2,-1l-1,0c0,-1,-1,-1,-1,-1l-1,-1c0,0,0,-1,0,-1l-2,0l-1,0l-2,0l-1,0l-1,0l0,1l-1,1l-1,1l-1,0l-1,1l-1,0l-1,0l0,1c-1,0,-1,0,-2,1l1,0l0,1l-1,1l0,1l0,1l0,1l0,1l0,1c1,0,1,1,1,1l1,1c0,0,-1,0,-1,0l-1,0l1,0l0,1l1,0l0,1l1,0l1,1l1,0l1,1c1,0,1,0,1,0l1,1c0,0,0,1,1,1l3,0ZM89.5,482.5l-1,0l0,-1l-1,0c0,0,-1,0,-1,0c0,-1,0,-1,0,-1l1,0c1,0,1,0,1,0c0,0,0,1,0,1l1,0l0,1ZM89.5,492.5l-1,1l-1,0l-1,0l0,1l0,-1c0,0,1,0,1,0l0,-1l1,0l1,-1ZM85.5,494.5c-1,1,-1,1,-1,1l-3,0l-3,0c-1,0,-1,0,-1,-1c0,0,-1,0,-1,0c0,-1,0,-1,1,-1c0,0,0,-1,0,-1l4,0l3,0l1,1ZM85.5,480.5l0,1c-1,0,-1,0,-1,0l-3,0l-3,0l-1,0l0,-1l-1,0c0,-1,0,-1,1,-1l0,-1l1,0l3,0l3,0c0,0,0,1,0,1c1,0,1,0,1,0l0,1ZM84.5,482.5c1,0,1,0,1,0c1,0,1,0,1,0c1,0,1,0,1,1l1,0l1,0l1,0l0,1l0,1l0,1l0,1c0,1,0,1,0,1l0,1l-1,1l-1,0l-1,1l-1,0l-1,0l-1,0l-3,0l-3,0l-1,0l-1,0c-1,0,-1,0,-1,0c-1,0,-1,0,-1,-1l-1,0l-1,0l-1,-2l0,-1c0,-1,0,-1,0,-1c0,-1,0,-1,0,-1l0,-1l1,0l0,-1l1,0c0,0,1,0,1,0l0,-1l1,0l1,0c0,0,1,0,1,0l1,0l3,0ZM84.5,491.5c1,0,1,0,1,0l1,0l1,0l1,-1l1,0l0,-1l1,0l0,-1l0,-1c0,-1,0,-1,0,-2c0,-1,0,-1,-1,-1c0,0,0,-1,0,-1l-1,1l0,-1l-1,0l0,-1l-1,0l-1,0l-1,0l0,1l-3,0l-4,0l0,-1l-1,0c0,0,-1,0,-1,0l-1,1c0,0,-1,1,-1,1l-1,-1l0,1l-1,1l0,1l0,1l0,1l1,1c0,0,0,1,0,1l1,0c0,0,1,0,1,0l0,1l1,0l1,0c0,0,1,0,1,0l0,-1l4,0l3,0ZM82.5,486.5l-1,0l1,0c0,0,0,1,0,1l0,1l-1,0c0,0,1,0,1,0l1,0c0,0,0,1,0,1c0,0,-1,0,-1,0c-1,0,-1,0,-1,0l0,-1l1,-1l-1,0l0,-1l0,-1c1,0,1,0,1,0ZM79.5,486.5c0,0,1,0,1,0l0,1l0,1l0,1l-1,0c-1,0,-1,0,-1,0c0,0,0,-1,0,-1l0,-1l1,-1ZM79.5,487.5l-1,0l0,1l1,0l1,0l0,-1c0,0,-1,0,-1,0ZM72.5,482.5l0,-1l1,0l0,-1l1,0l1,0c0,0,0,1,0,1l-1,0l-1,0l0,1l-1,0ZM72.5,492.5l0,-1l1,0c0,0,0,1,1,1l0,1l1,0l0,1l0,-1l-1,0c0,0,-1,0,-1,-1l-1,0ZM141.5,489.5l0,-1l0,-1l-1,-9l1,-2l1,11c0,1,-1,1,-1,1c0,1,0,1,0,1ZM133.5,487.5c0,0,1,0,1,0c0,0,1,0,1,0c1,0,1,-1,1,-1l0,-2l-1,-6c0,-1,0,-1,0,-1c0,0,0,-1,0,-1l1,-1l0,1c0,1,1,1,1,1c0,0,0,1,0,1c0,0,-1,0,-1,1c0,0,0,1,0,2c0,0,0,1,0,2c0,1,1,1,1,2l0,1l-1,1l0,1c-1,1,-1,1,-1,1c0,0,-1,0,-1,0l-1,0c-1,0,-1,0,-2,0l-1,0c0,-1,0,-1,0,-1l-1,-1c0,1,0,1,-1,1c0,0,-1,1,-1,1c0,0,-1,0,-1,0l-1,0l-1,0c0,0,-1,0,-1,0c0,-1,0,-1,-1,-1c0,0,0,-1,0,-1l0,-5l0,1l-1,0l0,1l-1,0c0,1,0,1,1,2l0,1c0,0,0,1,0,1c-1,0,-1,0,-1,1l-1,0l0,-1c-1,0,-1,0,-1,0l-1,0c-1,0,-1,1,-1,1l-1,0l-1,0l-1,0l-1,0l0,-1l0,-1l0,-1l-1,-1c0,1,0,1,-1,1c0,1,-1,1,-1,1l0,1c0,0,0,1,0,1c0,1,0,1,0,2c-1,1,-1,1,-1,2c-1,0,-2,0,-2,1c-1,0,-2,0,-2,0c-1,0,-2,0,-2,0c-1,0,-1,-1,-1,-1c-1,0,-1,-1,-1,-1c-1,-1,-1,-1,-1,-2l0,-1c0,-1,0,-1,1,-1l0,-1c0,0,1,-1,1,-1l0,1c-1,1,-1,1,-1,1l0,1c0,1,0,1,0,1c1,1,1,1,1,1l1,1c1,0,1,0,2,0c1,0,1,0,2,0c1,-1,1,-1,2,-1c0,-1,0,-1,0,-1l0,-1l0,-1c0,0,0,-1,0,-1l-1,-1l0,-1l0,-2c1,0,1,1,1,1c0,1,0,1,0,1l1,0c1,0,1,0,1,0c1,-1,1,-1,1,-1c0,0,0,-1,1,-1c0,0,0,1,0,1l0,1c0,0,0,1,0,1c1,1,1,1,1,1c1,0,1,0,1,0l1,0c1,0,1,0,1,0l1,0l0,-1c0,0,0,-1,0,-1c1,0,1,0,1,-1c1,0,1,0,1,0l1,-1c0,0,1,0,1,0c0,-1,0,-1,0,-1c0,0,1,0,1,0c0,0,0,-1,0,-1l0,-3l0,-2l1,10c0,1,0,1,0,1l1,0l1,0c0,0,1,0,1,0l1,0l1,0l0,-1l-1,0l-1,-1l1,-1c0,-1,0,-1,1,-1c0,0,1,0,1,0c1,0,1,0,1,0c1,0,1,1,1,1c0,0,0,1,0,1l0,1l-1,0l0,1c1,0,1,0,1,0l1,0l1,0ZM108.5,474.5c0,0,1,0,1,0c1,0,1,0,1,0c1,0,1,0,2,0l0,1c0,0,0,1,0,1c0,0,-1,0,-1,0c0,0,0,1,0,1l-1,0l-1,0l-1,0l2,-1c1,0,1,0,2,-1c-1,0,-1,0,-1,0c0,0,-1,0,-1,0c0,0,-1,0,-1,0c0,0,-1,0,-1,0l0,-1ZM133.5,471.5c0,0,1,0,1,0c1,0,1,0,1,0c1,0,1,0,2,0c0,1,0,1,0,1l0,1c0,0,-1,0,-1,0c0,0,-1,0,-1,0c0,1,0,1,-1,1l-1,-1l2,0c1,0,1,-1,2,-1c-1,0,-1,0,-1,0c0,0,-1,0,-1,0c0,0,-1,0,-1,0c0,0,-1,0,-1,0c0,-1,0,-1,0,-1ZM120.5,473.5l4,-2l0,1l-5,2ZM118.5,486.5l1,1l1,0l0,-1c-1,0,-1,0,-1,0c-1,0,-1,0,-1,0ZM119.5,492.5l-4,2c0,0,0,-1,0,-1l4,-2ZM113.5,492.5l-1,-1l-1,1l-1,0l1,-2l1,1l1,-1l1,1ZM104.5,485.5l-2,-1l1,-2l2,1ZM100.5,476.5l4,-2l0,1l-4,2ZM165.5,492.5l1,0c1,0,2,0,3,0c0,-1,1,-1,1,-1c1,-1,1,-1,1,-2c0,0,1,-1,1,-1l0,-1l-1,-1l0,-1l0,-1l0,-1l1,1c0,0,0,1,0,1l0,1l1,1c0,1,-1,1,-1,2c0,1,0,1,0,1c0,1,-1,1,-1,1c0,1,0,1,0,1c-1,0,-1,0,-1,1l-1,0l-1,0l-1,0c-1,0,-1,0,-1,0c-1,0,-1,0,-1,0ZM167.5,479.5l4,-2l0,1l-4,2ZM157.5,493.5l-1,0l1,-2l1,1ZM164.5,487.5c0,1,-1,1,-1,1c-1,1,-2,1,-4,1c-1,1,-2,1,-3,1c-2,0,-3,0,-4,-1c-1,0,-2,0,-2,-1c-1,0,-1,0,-1,-1l0,-1c0,-1,0,-1,0,-2c0,0,1,-1,1,-1l1,0c-1,1,-1,1,-1,1c0,1,0,1,0,1c0,1,0,1,0,1c0,1,1,1,2,1c0,0,0,1,1,1l1,0l1,0l2,0c0,0,1,0,2,0c1,-1,1,-1,1,-1l1,0c1,0,2,0,2,-1c1,0,1,0,2,-1l-1,0c0,-1,0,-1,0,-1c0,0,0,-1,0,-1c0,-1,0,-1,0,-1c1,0,1,1,1,1c0,1,0,1,0,1l0,1c0,0,0,1,0,1c0,0,0,1,-1,1ZM155.5,479.5l0,1l1,0l0,-1l1,0l0,1c1,0,1,-1,1,-1l0,-1l0,1l0,1c0,0,0,1,0,1l-1,0l0,-1l-1,1l-1,0l0,-1l0,-1ZM156.5,474.5c1,0,1,-1,1,-1c0,0,1,0,1,0c1,0,1,0,1,1l0,1l-1,0l0,1l1,0l-1,1l-1,0c-1,1,-1,1,-1,1c-1,0,-1,0,-1,0c-1,0,-1,0,-1,0c1,0,2,-1,3,-2c-1,0,-1,-1,-1,-1c0,0,0,-1,0,-1ZM158.5,474.5l-1,0l0,1l1,0ZM197.5,489.5l0,-1l0,-1l-1,-9l1,-2l1,11c0,1,0,1,0,1c-1,1,-1,1,-1,1ZM193.5,489.5c0,0,-1,0,-1,0c-1,0,-1,0,-1,-1c-1,0,-1,-1,-1,-1c0,0,-1,1,-1,1c-1,1,-1,1,-2,1c0,0,-1,0,-1,0c-1,-1,-1,-2,-1,-3l0,1c-1,0,-1,1,-1,1c-1,0,-1,0,-2,0c0,0,-1,0,-1,0c0,0,-1,0,-1,-1c0,0,0,-1,1,-1c0,-1,0,-1,1,-1c0,0,0,-1,1,-1l1,-1l0,-1l1,0c0,-1,0,-1,0,-1l0,1l0,1l1,3c0,0,0,1,0,1c0,0,1,0,1,0c1,0,1,0,1,0c1,-1,1,-1,1,-1c0,-1,0,-2,0,-3c0,0,0,-1,0,-1c0,0,0,-1,0,-1l-1,0l1,-1l0,-1l1,2l0,2l0,2c0,1,0,1,0,1c1,0,1,1,2,1c1,0,1,0,1,0c0,-1,0,-1,0,-1c0,0,0,-1,0,-1l-1,-2l0,-1l0,-1c0,0,0,-1,0,-1l1,-1c0,1,0,1,0,1c0,1,0,1,0,2l1,2c0,0,0,1,0,1c0,1,0,2,0,2c-1,1,-1,1,-1,1c0,0,0,1,0,1ZM185.5,484.5l-1,0c0,0,0,1,-1,1c-1,0,-1,1,-1,1c1,0,1,0,2,0l1,-1ZM241.5,481.5l-1,-1l-1,1l-2,-1l1,-1l2,1l1,-2l1,1ZM239.5,489.5l-1,0l-1,0c-1,0,-1,0,-1,0l0,-1l-1,0l-1,1l-1,0l-1,0l-1,0c-1,0,-2,0,-2,-1c-1,0,-1,-1,-1,-1l0,-9l1,-2l0,10l0,1c1,0,1,0,2,0l1,0l1,0l1,0c1,0,1,0,1,-1l1,0l-1,1c1,0,1,0,1,0c1,0,1,0,1,0l1,0l1,0c0,0,1,0,2,0l1,0l0,-1l-1,0c0,-1,0,-1,0,-1l1,-2l0,1l0,1l0,1l0,1l0,1c0,0,-1,1,-2,1c0,0,-1,0,-1,0ZM239.5,473.5l4,-2l0,1l-4,2ZM235.5,493.5l-2,-1l1,-1l2,1ZM233.5,476.5l4,-2l0,1l-4,2ZM217.5,492.5c0,0,1,0,1,0l1,0c0,0,1,0,2,0c1,-1,1,-1,2,-1c0,-1,1,-1,1,-2c0,0,0,-1,0,-1l0,-1l0,-1l-1,-1l1,-1l0,-1l0,1c0,0,1,1,1,1l0,1l0,1c0,1,0,1,0,2c0,1,0,1,-1,1c0,1,0,1,0,1c0,1,-1,1,-1,1l-1,1c-1,0,-1,0,-1,0c-1,0,-1,0,-1,0l-1,0c0,0,-1,0,-1,0l-1,0ZM220.5,479.5l4,-2l0,1l-1,0l-4,2ZM217.5,488.5c0,0,0,1,0,1c0,0,-1,0,-1,0c-1,0,-1,0,-1,0c-1,0,-2,0,-3,0c-1,0,-2,0,-2,0c-1,0,-2,0,-2,0c-1,0,-1,0,-1,0l0,-1c0,0,-1,0,-1,0c0,-1,1,-1,1,-1c0,-1,0,-1,0,-1c0,1,0,1,0,1c1,0,1,0,1,0c0,1,1,1,1,1l5,0c1,0,2,-1,2,-1c0,0,1,0,1,0c0,-1,0,-1,0,-1c0,-1,0,-1,0,-2l-1,-1c0,-1,0,-2,0,-2c0,-2,0,-3,0,-3c0,-1,0,-1,0,-1c0,0,0,-1,0,-1c0,0,1,-1,1,-1c0,1,0,1,0,1c0,0,1,1,1,1l0,1l-1,1l0,-1l0,1c0,0,0,1,0,2c0,0,0,1,0,2c0,1,1,1,1,2c0,1,0,1,0,1l0,1l-1,0c0,1,0,1,0,1ZM213.5,484.5c0,0,0,1,0,1c-1,0,-1,0,-1,0c-1,0,-1,0,-1,0c0,0,-1,0,-1,0l-1,0c0,0,1,0,1,0c1,-1,1,-1,2,-1c0,0,1,0,1,-1l-1,0c-1,0,-1,0,-1,0c0,0,0,-1,0,-1c0,0,0,-1,0,-1c0,0,1,-1,1,-1c0,0,0,-1,1,-1c0,0,1,0,1,0l-1,1c-1,0,-1,1,-1,1c0,1,0,1,1,1c0,0,1,0,1,0l0,1c0,0,0,1,-1,1ZM209.5,473.5l4,-2c0,1,0,1,0,1l-4,2ZM300.5,485.5c0,0,0,1,0,1c1,0,1,0,1,0l0,-1l-1,0ZM300.5,493.5c0,0,-1,1,-1,1c0,0,-1,0,-2,0c0,0,-1,0,-2,-1l1,0c0,0,1,0,1,0l1,0c0,0,1,-1,1,-1c0,0,1,0,1,-1l1,0c0,-1,0,-1,0,-2c1,0,1,-1,1,-1c0,0,-1,0,-1,0c0,0,-1,0,-1,0l-1,0c0,0,0,-1,0,-1c0,0,0,-1,0,-1c0,-1,0,-1,0,-2c1,0,1,0,1,-1l1,0c1,1,1,1,1,1c0,0,0,1,0,1c0,0,0,1,1,1c0,0,0,1,0,1c0,1,0,1,0,1c-1,1,-1,2,-1,3c0,0,-1,1,-1,1c0,0,0,1,-1,1ZM297.5,479.5l5,-2l-1,1l-4,2ZM294.5,489.5l0,-1l0,-1l-1,-9l1,-2l1,11l-1,0c0,1,0,1,0,1c0,1,0,1,0,1ZM278.5,471.5l4,-2c0,1,0,1,0,1l-4,2ZM288.5,471.5c0,0,1,0,1,0c0,0,1,0,1,0c0,0,1,0,1,0c0,0,1,0,1,0l-1,1c0,1,0,1,0,1l-1,0c-1,0,-1,0,-1,0c-1,0,-1,0,-1,0l2,0c0,-1,1,-1,1,-1c-1,0,-1,0,-1,0c-1,0,-1,0,-1,0c-1,0,-1,0,-1,0l0,-1ZM268.5,489.5c1,-1,2,-2,3,-2c1,0,1,-1,2,-1l0,-2l1,0l1,0l0,1c1,0,1,0,2,0l-1,2c-1,0,-1,0,-2,1c0,0,-1,0,-1,0c-1,0,-1,0,-2,0c0,0,-1,1,-1,1l-1,1l-1,1l-1,1l-1,1l-1,1l-1,1l-1,0c-1,0,-1,0,-1,0l0,-1c0,0,-1,0,-1,0l0,-1c0,-1,0,-1,0,-2l1,0c0,-1,0,-1,0,-1l0,-1c1,0,1,0,1,0l0,1c0,0,-1,1,-1,1c0,1,0,1,0,1c0,1,0,1,0,1c0,0,1,0,1,0c1,0,1,0,2,0c0,0,0,-1,0,-1l1,-1l1,-1c0,0,0,-1,1,-1ZM270.5,478.5l1,0c0,0,1,0,1,0c1,0,1,0,2,0l0,1c0,0,0,1,-1,1l-1,1c0,0,-1,0,-1,0c-1,0,-1,0,-1,0l2,-1c0,0,1,0,1,-1l-1,0c-1,0,-1,0,-2,0c0,0,0,-1,0,-1ZM266.5,477.5c0,-1,0,-1,0,-1c1,0,1,-1,1,-1c0,1,1,1,1,1l0,1l0,1l0,1l0,1l-1,-1l0,1l-1,0c0,1,-1,1,-1,1l-1,0l1,-1l1,0l0,-1l0,-1l0,-1ZM267.5,477.5l-1,0l1,1l0,-1ZM340.5,489.5l0,-1l0,-1l-1,-9l1,-2l1,11c0,1,0,1,0,1c-1,1,-1,1,-1,1ZM331.5,478.5l0,3l0,1c0,0,0,1,0,1l0,1l2,0c0,1,1,1,2,1l1,0c0,0,1,0,1,0l1,0l0,2l-1,0l-2,0l-1,0l-1,0l-1,0l-1,1l-2,1c-1,0,-1,0,-1,0l-1,0l-1,0l-1,0c-1,0,-1,0,-1,0c-1,0,-1,-1,-1,-2c-1,1,-1,1,-1,2c-1,0,-1,0,-1,0l-1,0l-1,0c0,0,0,1,0,1c0,1,0,1,0,1l-1,1c0,1,-1,1,-2,2c-1,1,-2,1,-3,1l-1,0c-1,0,-1,0,-2,0c0,-1,-1,-1,-1,-1c-1,-1,-1,-2,-1,-3c0,0,0,-1,0,-1c1,-1,1,-2,1,-3c1,0,1,0,1,0l-1,2c0,0,0,1,0,1c0,1,0,1,0,1c1,1,1,1,1,1l1,1c0,0,1,0,1,0c1,0,1,0,1,0c0,0,1,0,1,0l1,0c0,0,1,-1,1,-1c1,0,1,0,2,-1c0,-1,0,-1,0,-1c0,0,1,0,1,0c0,0,0,-1,0,-1c-1,0,-1,0,-1,0l-1,0c-1,0,-1,0,-1,0l-1,0c0,0,0,-1,0,-1l0,-1l0,-1c0,0,1,-1,1,-1c0,0,0,-1,1,-1c0,0,1,0,1,1c0,0,0,1,1,1c0,0,0,1,0,1l1,0c1,0,1,0,1,0c0,0,1,0,1,0c0,-1,0,-1,0,-1l0,-1c0,-1,0,-1,0,-1l0,-7l1,-2l0,11l0,1c0,0,1,0,1,0l1,0l1,0l1,0l1,0l1,0l1,0l1,-1l1,0l-1,0l-1,-1l-1,0l-1,0l-1,0l-1,0c1,0,1,0,1,0l-1,0l1,0l0,-1c0,-1,1,-1,1,-1l1,0c0,0,1,0,1,-1l0,-1c0,0,0,-1,0,-1c0,0,0,-1,0,-2c0,-1,0,-1,0,-1l0,-1l0,-1l1,0c0,0,0,1,0,1c0,0,1,0,1,0c0,1,0,1,0,1c0,1,-1,1,-1,1ZM330.5,467.5l1,0c0,0,1,0,1,0c1,0,1,0,1,0c1,0,1,0,1,0c0,1,0,1,0,1l-1,1c0,0,-1,0,-1,0c0,1,-1,1,-1,1l-1,0l0,-1l2,0c0,0,1,-1,1,-1l-1,0c-1,0,-1,0,-2,0c0,-1,0,-1,0,-1ZM326.5,481.5l-1,-1l0,-2l2,1ZM326.5,473.5l4,-2l0,1l-4,2ZM321.5,468.5c0,-1,0,-1,1,-1l1,0c0,0,1,0,1,0c1,0,1,1,1,1c0,0,-1,1,-1,1c0,0,0,1,0,1c-1,0,-1,0,-1,0c-1,0,-1,0,-1,0l-1,0l1,-1c1,0,2,0,2,0c0,-1,-1,-1,-1,-1l-1,0l-1,0c0,0,0,1,-1,1l0,-1l1,0ZM317.5,483.5l-1,-1l-1,1l-1,-1l0,-1l2,1l1,-1l1,1ZM316.5,487.5l1,0l1,0l-1,0c0,-1,0,-1,-1,-1l0,1ZM315.5,473.5l0,-1c1,0,1,0,1,0c1,0,1,0,1,0c0,0,0,1,0,1c0,0,0,1,0,1c0,1,0,1,0,1l0,1l-1,0l-1,1c0,0,-1,0,-1,0l0,1l-1,0l0,-1l1,0l1,-1l0,-1l0,-1l0,-1ZM316.5,474.5l0,-1c0,0,-1,0,-1,1l1,0ZM355.5,490.5l-1,0l0,-1l0,-1c0,-1,0,-1,0,-1c-1,0,-1,0,-1,-1l0,1c-1,0,-1,0,-1,0l-1,1c-1,0,-1,0,-1,-1l-1,0l0,-1c0,0,0,-1,1,-1c0,-1,0,-1,1,-1l1,-1c1,0,1,0,1,0l0,-1l0,-1c0,1,1,1,1,1c0,0,0,1,0,2c0,0,0,1,0,1c0,1,0,1,0,1c0,0,0,1,0,1l1,0c0,0,0,1,0,1c0,1,1,1,1,1c0,0,1,0,1,0l0,-1c0,0,0,-1,0,-2c0,-1,0,-1,0,-2c0,0,0,-1,0,-1c0,-1,0,-2,0,-2c0,-1,0,-2,0,-3c-1,-1,-1,-1,-1,-1c0,0,1,-1,1,-1l0,-1c0,0,0,1,0,1c0,0,1,0,1,0c0,1,0,1,1,1c0,0,0,1,-1,1l0,1c0,0,0,1,0,2c0,0,0,1,0,2c0,1,0,1,0,2l0,1c0,1,0,2,0,2l0,1c0,0,0,1,0,1c0,0,-1,1,-1,1c-1,0,-1,0,-2,-1ZM356.5,473.5l4,-2l-1,1l-4,2ZM353.5,484.5l-1,0l0,1l-1,0l-1,1l1,0l1,0c1,0,1,0,1,-1ZM352.5,473.5l0,-1c1,0,1,0,1,0c1,0,1,0,1,0c0,0,0,1,0,1c0,0,0,1,0,1c0,1,0,1,0,1l0,1l-1,0l-1,1c0,0,-1,0,-1,0l0,1l-1,0l0,-1l1,0l1,-1l0,-1l0,-1l0,-1ZM353.5,474.5l0,-1c0,0,-1,0,-1,1l1,0ZM382.5,489.5l0,-1l0,-1l-1,-9l1,-2l1,11c0,1,0,1,0,1c-1,1,-1,1,-1,1ZM381.5,470.5l4,-2c0,1,0,1,0,1l-4,2ZM376.5,487.5l-1,1c0,0,0,1,0,1l1,0l0,-1ZM377.5,490.5c0,0,-1,0,-1,0c-1,0,-1,0,-1,0c-1,0,-1,1,-2,1c-1,0,-1,0,-1,0c0,0,0,-1,0,-1c-1,0,-1,0,-1,0c0,0,0,-1,1,-1c0,0,1,0,1,0c0,0,0,-1,1,-1c0,0,1,-1,1,-1c0,-1,0,-1,-1,-1c0,-1,0,-1,0,-1c-1,-1,-1,-1,-1,-2c-1,0,-1,-1,-2,-1c0,0,0,-1,-1,-1c0,0,-1,0,-1,0c-1,-1,-1,-1,-1,-1c0,-1,0,-1,-1,-1l0,-1l1,0c0,-1,0,-1,0,-1c0,0,1,1,1,1c1,0,1,1,2,1c1,1,1,2,2,2c0,1,1,2,1,3c1,0,1,0,1,1c0,0,1,0,1,1c0,-1,0,-1,0,-2c0,0,0,-1,0,-2c0,0,1,-1,1,-1c0,-1,0,-1,-1,-2c0,0,0,-1,0,-1c0,-1,0,-1,0,-1c0,0,0,-1,0,-1c1,0,1,0,1,-1l0,1l1,1c0,0,0,1,0,1l0,1c-1,1,-1,1,-1,2c0,0,0,1,0,1c0,0,0,1,0,1c0,1,0,1,0,2c0,1,-1,1,-1,1c0,0,0,1,0,1c1,0,1,0,1,0c0,1,0,1,0,1l0,1l0,1ZM373.5,473.5l6,-3c-1,1,-1,2,-1,2l-5,2ZM126.5,477.5c0,-1,0,-1,0,-2c0,-1,0,-1,-1,-2l1,0l0,-1c0,1,0,1,0,1c0,1,1,1,1,1l0,1l0,1l-1,0c0,1,0,1,0,1ZM257.5,486.5c0,0,0,-1,0,-1l-1,0c0,0,-1,0,-2,1l0,-1l0,-1l-1,0l0,-1c0,-1,0,-1,0,-1c0,0,1,0,1,0l0,-1l-1,0c0,1,0,1,0,2l0,2l0,1c0,1,0,1,0,1l-1,0l-1,0c0,0,0,1,0,1c0,0,1,0,1,0l1,0c1,0,2,0,2,0c1,0,1,0,2,-1c0,-1,0,-1,0,-1ZM256.5,486.5c0,0,1,0,1,0c-1,1,-1,1,-2,1l-1,0c0,0,-1,0,-1,0l1,0c0,-1,0,-1,1,-1ZM181.5,477.5c0,-1,0,-1,0,-1c1,0,1,-1,1,-1c1,1,1,1,1,1l0,1l0,1l0,1l0,1l-1,-1l0,1l-1,0c0,1,-1,1,-1,1l-1,0l1,-1l1,0l0,-1l0,-1l0,-1ZM182.5,477.5c-1,0,-1,0,-1,0l1,0l0,1l0,-1ZM289.5,491.5c-1,0,-1,0,-2,0c-1,0,-1,0,-2,0c-1,0,-1,0,-1,0l-1,0c0,0,0,-1,0,-1c0,0,1,0,1,0c0,0,1,0,1,0c0,0,0,-1,1,-1c0,-1,1,-1,1,-1c0,-1,0,-1,-1,-1c0,-1,0,-1,0,-1c-1,-1,-1,-1,-1,-2c-1,0,-1,-1,-2,-1c0,-1,0,-1,-1,-1l0,-1c0,1,-1,1,-1,1l-1,0c0,-1,0,-1,0,-2c0,0,-1,0,-1,0c0,0,0,-1,0,-1l0,-1c1,0,1,0,1,0c0,0,1,0,1,1c1,0,1,1,2,1c1,1,1,2,2,2c0,1,1,2,1,2c1,1,1,1,1,2c0,0,1,0,1,0l0,-1c0,-1,0,-1,0,-2c0,0,0,-1,0,-2l0,-1c0,0,0,-1,0,-1l0,-1c0,0,0,-1,0,-1c1,0,1,-1,1,-1c0,0,0,1,0,1l1,0c0,1,0,1,0,1c0,0,0,1,0,1l0,1l-1,0c0,1,0,1,0,2l0,1c0,0,0,1,0,1c0,1,0,1,0,2c0,0,-1,1,-1,1c0,0,0,1,0,1c1,0,1,0,1,0c0,0,0,1,0,1l0,1c0,1,0,1,0,1ZM288.5,488.5l-1,1l0,1c0,0,0,-1,0,-1l1,0ZM57.5,537.5c0,0,0,1,0,2l-1,1l0,1l1,0l-1,1l-1,0l0,1l-1,0c0,0,0,1,-1,1l-1,0l-1,1l-1,0l-1,1l-1,1l-3,0l-3,0l-1,-1l0,-1c-1,0,-1,0,-1,0c-1,0,-2,-1,-3,-1l-1,-1l-1,0l0,-1l-1,0l0,-1l-1,0l2,0l-1,-1l0,-1l-1,0l0,-1c0,0,0,-1,0,-1l0,-1l0,-1c0,0,0,-1,1,-1c0,0,0,-1,0,-1l1,-1l-2,0c0,0,1,0,1,-1l1,0l0,-1l1,0l1,-1l1,0l2,-1l1,0l0,-1c1,-1,1,-1,1,-1l3,0l3,0l1,1l1,1l2,1l1,0c0,0,1,1,1,1l1,0l0,1c1,0,1,0,2,1l-1,0l0,1l0,1l1,0l0,1l0,1ZM48.5,547.5l1,-1l0,-1l1,0c1,-1,1,-1,2,-1l1,0c0,0,1,-1,1,-1l1,-1l1,-1l-1,0l1,-1l0,-1l1,-1l0,-1c0,-1,0,-2,-1,-3l0,-1l-1,-1l1,0c0,0,0,-1,-1,-1l0,-1l-1,0l-1,0l-1,-1l-2,-1l-1,-1l-1,0c0,0,0,-1,0,-1l-1,0l-2,0l-1,0l-2,0l0,1l-1,0l0,1c-1,0,-1,0,-1,0l-2,1l-1,1l-1,0l-1,1c0,0,-1,0,-1,1l1,0l-1,1l0,1l0,1l-1,0l0,1l0,1l0,1l1,0l0,1l0,1l1,0l0,1l-1,0l0,1l1,0l1,1l1,0l0,1l1,0l1,0l1,1l1,0l0,1l1,0c0,0,0,1,0,1l3,0ZM54.5,532.5l-1,0l-1,-1l-1,0c0,0,-1,0,-1,0c0,-1,1,-1,1,-1l-1,0c0,0,1,0,1,0l1,0c0,0,1,1,1,1l1,0ZM54.5,541.5l0,1l-1,0l0,1l-1,0l-1,0l-1,0l1,0l-1,0c1,0,1,0,1,0l0,-1l1,0c1,0,1,-1,1,-1l1,0ZM49.5,544.5c0,1,-1,1,-1,1l-3,0l-3,0c0,0,-1,0,-1,-1c0,-1,0,-1,0,-1c0,0,0,-1,1,-1l3,0l3,0l1,0l0,1ZM49.5,530.5l0,1l-1,0l-3,0l-3,0c0,0,-1,0,-1,0l0,-1c0,-1,0,-1,0,-1l1,-1l3,0l3,0c0,0,1,0,1,1ZM48.5,532.5l1,0l1,0c0,0,1,0,1,0l1,1l2,0l0,1l1,1l0,1l0,1c0,1,0,1,0,1l-1,1l0,1l-1,0c-1,0,-1,0,-1,0l0,1c0,0,-1,0,-1,0l-1,0l-1,0c0,0,-1,0,-1,0l-3,0l-3,0l-1,0l-1,0c0,0,-1,0,-1,0c0,0,-1,0,-1,-1l-1,0l-1,0l0,-2l-1,0l0,-1c0,-1,0,-1,0,-1c0,-1,0,-1,1,-1l0,-1l0,-1c0,0,1,0,1,0l1,0l1,-1c1,0,1,0,1,0c1,0,1,0,1,0l1,0l3,0ZM48.5,541.5l1,0l1,0l1,0l1,-1l1,0l1,-1l0,-1l0,-1l1,0c0,-1,-1,-2,-1,-2c0,-1,0,-1,0,-1c0,-1,0,-1,-1,-1l-1,1l0,-1l-1,-1l-1,0c-1,0,-1,0,-1,0l-1,0l0,1l-3,0l-3,0l0,-1l-1,0l-1,0c-1,0,-1,0,-1,0l0,1l-1,0c0,0,0,1,0,1l-1,-1l-1,1l0,1l0,1l0,1l0,1l0,1c0,0,0,1,1,1l1,0l1,0l0,1l1,0c1,0,1,0,1,0c1,0,1,0,1,0l0,-1l3,0l3,0ZM47.5,536.5l1,1l0,1l-1,1l-1,0c-1,0,-1,-1,-1,-1l0,-1l1,0l0,-1c0,0,1,0,1,0ZM47.5,537.5c-1,0,-1,0,-1,0l0,1l1,0l0,-1ZM44.5,536.5l0,1l1,0l0,1l-1,1l-1,0l-1,0c0,0,0,-1,0,-1l0,-1c1,0,1,0,1,0l0,-1l1,0ZM44.5,537.5c-1,0,-1,0,-1,0l0,1l1,0l0,-1ZM36.5,532.5l1,-1l1,-1l1,0l1,0l0,1c-1,0,-1,0,-1,0c0,0,-1,0,-1,0l0,1l-1,0ZM36.5,541.5l1,0c0,0,1,1,1,1l1,1l1,0l-1,0c-1,0,-2,0,-2,-1l-1,0ZM144.5,539.5l0,-1l1,-1l-1,-9l1,-2l0,11c0,0,0,1,0,1c0,0,0,1,-1,1ZM137.5,537.5l1,0l1,0c0,0,1,-1,1,-1l-1,-2l0,-6l0,-1c0,0,0,-1,0,-1c0,0,0,-1,1,-1l0,1c0,1,0,1,1,1c0,0,0,1,-1,1l0,1c0,0,0,1,0,2c0,0,0,1,0,2c0,1,0,1,0,2l0,1c0,1,0,1,0,1c0,1,0,1,0,1c0,0,-1,0,-1,0c0,1,0,1,0,1c0,0,-1,0,-1,0c0,0,-1,0,-1,0l-1,0c-1,0,-1,0,-2,0l0,-1c-1,1,-1,1,-1,2l-1,0c0,0,0,-1,-1,-1l-1,0l-1,-1l-1,1c0,0,-1,0,-1,0l-1,0l-1,0c0,0,-1,0,-1,0c-1,0,-1,0,-1,0c0,-1,-1,-1,-1,-1l0,-1c-1,1,-1,1,-1,1l-1,0c0,0,0,1,0,1c-1,0,-1,0,-1,0l-1,0l-1,0l-1,0l-1,0l-1,-1c0,0,-1,0,-1,1c0,0,-1,0,-1,0l-1,0l-2,0l-1,0l0,-1l-1,0c0,-1,0,-1,0,-1l0,1l-1,0c0,1,-1,1,-1,1c-1,0,-1,0,-2,0l-1,0c-1,0,-1,0,-1,-1l0,-1c0,0,0,-1,0,-1l0,1l1,0l1,0l1,0c0,0,1,0,1,0l1,0l0,-1l1,0c0,0,0,-1,0,-1l-1,-2l0,-1l0,-1l1,-1l0,1c0,1,1,1,1,2l0,2c0,1,0,1,0,1c0,1,0,1,1,1l2,0c1,0,1,0,1,0c1,0,1,0,1,0l1,-1l0,-1l0,1c0,1,1,1,1,1c1,0,1,0,1,0l1,0l1,0c0,0,1,0,1,0l1,0l0,-1c0,0,-1,0,-1,-1c0,0,-1,0,-1,0l1,-1c0,-1,1,-1,1,-1c1,0,1,0,1,0l1,0l1,0c0,0,0,1,0,1l1,0l0,1l-1,1l0,1l1,0l1,0l1,0l1,0l1,0c0,0,1,-1,1,-1c1,-1,2,-2,2,-2l1,0l0,1l1,1l1,1c0,0,1,0,1,0l1,0l1,0ZM137.5,521.5l1,0c0,0,1,0,1,0c1,0,1,0,2,0c0,0,0,1,0,1l0,1c-1,0,-1,0,-1,0c-1,0,-1,0,-1,0c0,0,-1,1,-1,1c0,0,-1,0,-1,-1l2,0c0,0,1,-1,1,-1c-1,0,-1,0,-1,0c-1,0,-1,0,-2,0c0,-1,0,-1,0,-1ZM133.5,538.5l-1,-1c0,-1,0,-1,-1,-2l0,1l-1,0c0,0,0,1,1,1l1,0ZM130.5,523.5c1,0,1,0,1,-1c0,0,1,0,1,0c0,0,1,1,1,1c0,0,0,1,-1,1c0,1,0,1,0,1l1,0l0,1l-1,0l-1,0l0,1c-1,0,-1,0,-1,0l-1,1l-1,0l1,-1l1,0c0,0,0,-1,0,-1l1,0l0,-1l-1,0l0,-1l0,-1ZM132.5,524.5l-1,-1c0,1,0,1,0,1l1,0ZM93.5,523.5c1,0,1,0,1,0c1,-1,1,-1,2,-1c0,0,1,0,1,1c0,0,1,0,1,0c-1,1,-1,1,-1,1c0,1,0,1,-1,1l-1,0l-1,0l1,0c1,0,1,-1,2,-1c0,0,-1,0,-1,0c0,0,-1,0,-1,0c0,0,-1,0,-1,0c0,0,-1,0,-1,0c0,0,0,-1,0,-1ZM117.5,525.5c1,0,1,-1,1,-1c1,0,1,0,2,0c0,0,1,0,1,0c0,0,1,1,1,1c-1,1,-1,1,-1,1c0,0,0,1,-1,1c-1,0,-1,0,-1,0l-1,0l1,0c1,-1,1,-1,2,-1c0,0,-1,-1,-1,-1l-1,0c0,0,-1,0,-1,1l-1,0c0,-1,0,-1,0,-1ZM115.5,533.5l-1,-1l-1,1l-2,-1l1,-1l2,1l0,-1l2,1ZM112.5,526.5l4,-2l0,1l-4,2ZM104.5,542.5l-4,2c0,0,0,-1,0,-1l4,-2ZM99.5,541.5l-2,-1l-1,2l-1,-1l1,-2l1,1l1,-1l2,1ZM94.5,535.5c1,0,1,0,1,0c0,0,1,0,1,0c1,0,1,0,1,0c0,-1,0,-1,0,-1c0,-1,-1,-1,-1,-1c0,0,0,-1,1,-1c0,-1,0,-1,0,-1c0,1,1,1,1,1c0,1,0,1,0,1l0,1c0,1,0,1,0,1c-1,1,-1,1,-1,1l0,1c-1,0,-1,0,-1,0c-1,0,-1,0,-2,0c0,0,0,1,0,1c0,1,0,1,0,1l-1,1l0,1c0,0,-1,0,-1,0c-1,1,-1,1,-2,1l-1,1c-1,0,-2,0,-3,0c-1,0,-2,1,-3,1c0,0,-1,0,-2,0c-1,0,-1,0,-2,0c-1,0,-1,0,-2,0c0,0,-1,0,-2,0c-1,0,-1,-1,-2,-1c-1,0,-2,0,-2,0c-2,-1,-3,-1,-4,-2c-1,0,-2,-1,-2,-2c-1,0,-1,0,-1,0c0,-1,0,-1,0,-1c1,0,1,1,1,1c1,0,1,0,1,0c1,1,2,1,3,1c0,0,1,1,1,1c1,0,1,0,2,0c0,0,1,1,2,1c0,0,1,0,2,0c0,0,1,0,2,0c0,0,1,0,1,0c1,0,1,0,2,0c1,0,2,0,2,0c1,0,2,0,3,0c1,0,2,-1,3,-1c0,0,1,0,2,-1c2,0,2,-1,2,-2l0,-1c0,0,0,-1,-1,-1l0,-1l1,-1l0,1ZM81.5,537.5l-1,-1l0,-1l2,1ZM71.5,530.5l1,-1l3,-1l5,-1l5,-2l-1,1l-1,1l-1,0l-2,0l-5,2l-4,2ZM184.5,533.5l-1,-1l-1,1l-2,-1l1,-1l2,1l0,-2l2,1ZM177.5,530.5c0,0,1,0,1,-1l1,1c0,1,0,1,0,1c0,0,0,-1,0,-1c0,0,0,-1,0,-1c0,-1,0,-1,0,-1c-1,0,-1,0,-1,0c0,0,-1,0,-1,0c0,1,0,1,0,1c0,1,-1,1,-1,1c0,0,0,1,-1,1c0,0,0,1,-1,1c-1,1,-1,1,-1,1l-1,0c0,0,0,1,0,1c-1,0,-1,0,-1,0c0,0,0,1,0,1l1,0l1,0l1,0l1,0l0,1l1,0l-2,1l-1,0l-1,0l-1,0l-1,0l-1,0c0,0,-1,0,-1,0l0,-1c0,0,-1,0,-2,1c0,0,-1,0,-2,1l-1,0c-1,0,-1,0,-2,0c0,0,-1,0,-2,0c-1,0,-2,0,-3,0l-1,0l-1,0c0,-1,-1,-1,-1,-1c0,-1,-1,-1,-1,-2c0,0,1,0,1,0c0,-1,0,-1,0,-1l0,-1c-1,1,-1,1,-1,2l0,1c0,1,0,1,0,1c0,0,0,1,0,1l1,1c0,0,1,1,2,1c1,0,2,0,3,0l1,0l1,0c1,0,1,0,1,0c0,0,1,0,1,0l2,-1c0,0,1,0,2,0c0,-1,0,-1,1,-1c1,0,1,0,1,1c1,0,1,0,1,0l1,0l1,0l1,0l1,0l1,-1l2,-1c0,0,1,0,1,0l1,0l1,0l1,0l2,0l1,-2l-2,0l-1,0c0,0,-1,0,-1,0c-1,0,-1,0,-2,-1l-2,0l0,-1l-1,0c1,0,1,0,1,0c0,-1,0,-1,1,-1c0,-1,0,-1,1,-1c0,0,0,-1,0,-1ZM177.5,520.5c0,0,0,-1,1,-1l1,0l0,1l0,1l0,1l1,0l-1,1l-1,-1l0,1l-1,0c0,1,0,1,-1,1l-1,0l1,0l0,-1c0,0,1,0,1,0l1,-1l-1,0c0,-1,0,-1,0,-1c0,-1,0,-1,0,-1ZM178.5,520.5l0,1l0,-1ZM174.5,542.5l-4,2c0,0,0,-1,1,-1l4,-2ZM160.5,544.5l-2,-1l1,-2l2,1ZM159.5,529.5l0,1c0,0,1,0,1,0l0,-1l1,1c0,0,0,-1,0,-1l1,-1l0,1l0,1c0,0,-1,1,-1,1c-1,0,-1,0,-1,0l0,-1l0,1c-1,0,-1,0,-1,0c0,0,-1,0,-1,0l0,-1l0,-1ZM160.5,524.5c0,0,0,-1,1,-1c1,0,1,0,1,0l0,1l0,1l0,1l0,1l-1,0l-1,0c0,1,0,1,-1,1l-1,0c1,0,2,-1,2,-2c0,0,0,-1,0,-1c0,0,0,-1,0,-1ZM161.5,524.5c0,0,-1,0,-1,0l1,1l0,-1ZM199.5,537.5l-1,1c0,0,0,1,0,1c0,0,1,0,1,0l0,-1ZM200.5,540.5c0,0,-1,0,-1,0c-1,0,-1,0,-1,0c-1,0,-1,0,-2,0c-1,1,-1,1,-1,1c0,-1,0,-1,0,-1c0,0,0,-1,0,-1c0,0,1,0,1,0c0,0,1,-1,1,-1c1,0,1,-1,1,-1c0,-1,0,-1,0,-1c-1,-1,-1,-1,-1,-1c0,-1,-1,-1,-1,-2c-1,0,-1,-1,-2,-1c0,0,0,-1,-1,-1l-1,0c-1,-1,-1,-1,-1,-2l0,-1l0,-1c1,0,1,1,1,1c1,0,1,1,2,1c1,1,1,2,2,2c0,1,1,2,2,3l0,1c1,0,1,0,1,1c0,-1,0,-1,0,-2c0,0,0,-1,1,-2c0,0,0,-1,0,-1c0,-1,0,-1,0,-2c0,0,0,-1,0,-1c-1,0,-1,0,-1,-1c0,0,0,-1,1,-1c0,0,0,-1,0,-1l0,1c0,0,1,0,1,1l1,0c-1,0,-1,1,-1,1l0,1c0,1,0,1,0,2c0,0,0,1,0,1c-1,0,-1,1,-1,1c0,1,0,1,0,2c0,1,0,1,-1,1c0,0,1,1,1,1c0,1,0,1,0,1l0,1l0,1ZM196.5,523.5l6,-3c-1,1,-1,2,-1,2l-5,2ZM227.5,539.5l0,-1l0,-1l-1,-9l1,-2l1,11l-1,0c0,0,0,1,0,1c0,0,0,1,0,1ZM228.5,542.5l-3,2c0,0,0,-1,0,-1l4,-2ZM220.5,532.5l-1,-1l0,-1l2,1ZM219.5,539.5l-1,0c0,0,-1,0,-1,0c0,0,-1,0,-1,-1l0,-1l-1,-1l0,1c0,0,-1,0,-1,0l-1,0c0,0,-1,0,-1,0l-1,0l0,-1c0,-1,1,-1,1,-1c0,-1,1,-1,2,-2c1,0,1,0,1,0l0,-1l0,-1l1,1l0,1c0,0,0,1,0,1l0,2c0,0,0,1,1,1c1,0,1,0,1,0l1,0l1,0l1,0c1,0,1,0,1,0l0,-1c0,-1,0,-1,-1,-1l0,-1l1,-1c0,0,0,1,1,1c0,1,0,1,0,1c0,1,0,1,0,1c0,1,0,1,0,1c0,1,-1,1,-1,1c0,0,0,1,-1,1c-1,0,-1,0,-2,0ZM285.5,524.5l0,1c0,0,1,0,1,0l0,-1l0,-1l1,1c0,0,1,0,1,0l0,-1l0,1l0,1l-1,0l-1,0l0,1c0,0,-1,0,-1,0c0,0,-1,-1,-1,-1l1,-1ZM289.5,521.5l-6,3c1,-1,1,-1,1,-2l5,-2ZM218.5,522.5l0,1c1,0,1,0,1,0c0,0,0,-1,0,-1l0,-1l1,0l0,1c0,0,1,0,1,-1l0,-1l0,1l0,1c0,1,0,1,0,1l-1,0l-1,0c0,1,-1,1,-1,1c0,-1,0,-1,0,-1l0,-1ZM222.5,519.5l-6,3c1,-1,1,-2,1,-2l6,-3ZM215.5,534.5l-1,0l-1,1l0,1l1,0l1,0c0,0,0,-1,0,-1ZM287.5,535.5l-1,0c0,0,0,1,0,1c0,0,1,0,1,0l1,0c-1,0,-1,-1,-1,-1ZM287.5,543.5c0,0,-1,0,-1,0c0,0,0,1,0,1c-1,0,-2,0,-2,0c-1,0,-1,0,-2,-1c0,0,-1,0,-1,0c0,0,1,0,1,0l1,0c1,0,1,0,1,0l1,0c0,-1,0,-1,0,-1c1,0,1,0,1,-1c1,0,1,0,1,0c0,-1,1,-1,1,-2c0,0,0,-1,0,-1l0,-1c0,1,0,1,0,1c-1,0,-1,0,-1,0c0,0,-1,0,-1,0c-1,0,-1,-1,-1,-1c0,0,0,-1,0,-1l0,-1c0,0,1,0,1,-1l0,-1c1,0,1,0,1,0c1,0,1,0,1,0c0,0,0,1,1,1c0,0,0,1,0,1c0,0,0,1,0,1c0,0,0,1,0,1c0,1,0,1,0,1c0,1,0,2,-1,3c0,0,0,1,0,1c-1,0,-1,1,-1,1ZM273.5,531.5l-2,-1l1,-1l2,0ZM281.5,536.5l-2,0c0,0,-1,0,-2,1c-1,0,-1,0,-1,0l-1,0l-1,1c0,0,-1,0,-1,0c0,0,-1,0,-1,1c-1,0,-2,0,-3,0l-1,0l-1,0c-1,0,-2,0,-2,0c0,0,-1,0,-1,-1c0,1,-1,1,-2,1c0,0,-1,0,-2,0c-1,0,-1,0,-1,0c-1,0,-1,0,-1,0c0,-1,-1,-1,-1,-1l-1,1c0,0,-1,0,-1,0l-1,0c0,0,-1,0,-1,0c-1,0,-1,0,-1,-1l0,-1c-1,0,-1,0,-1,-1l0,1l-1,0l-1,0c-1,0,-1,0,-2,0l0,-1c0,-1,0,-1,1,-1c0,-1,1,-1,2,-2c0,0,1,0,1,0l0,-1l-1,0c0,0,1,0,1,0l0,-1l0,1c0,0,1,0,1,1c0,0,0,1,0,1l0,2c0,0,0,1,0,1c0,0,1,0,1,0c1,0,1,0,1,0l1,0l1,0c1,0,1,0,1,-1l0,-1l1,0l0,1c0,1,0,1,0,1c1,0,1,0,2,0c1,0,1,0,1,0c1,0,1,0,1,0l1,0c-1,0,-1,0,-1,-1c0,-1,0,-1,1,-2c0,0,0,-1,0,-1c0,0,1,0,1,0c0,-1,1,-1,1,-1c1,0,1,0,1,1c1,0,1,0,1,1l0,1l0,1l-1,0c0,1,0,1,0,1l1,0l1,0l1,0l1,0c1,0,1,0,2,0c0,0,1,0,1,0l2,-1l1,0l-2,-1l-1,0l-1,0c-1,0,-1,0,-1,0l-1,0c0,-1,0,-1,1,-1c0,-1,0,-1,1,-1c1,0,1,0,1,0c0,0,1,0,1,0l2,1l1,1c1,0,1,0,1,0c0,0,1,0,1,0c1,0,1,0,2,0l1,0ZM272.5,520.5c0,0,0,-1,1,-1l1,0l0,1l0,1l0,1l0,1l-1,-1l0,1l-1,0c0,1,0,1,-1,1l-1,0l1,0l0,-1c0,0,1,0,1,0l1,-1l-1,0c0,-1,0,-1,0,-1c0,-1,0,-1,0,-1ZM273.5,520.5l0,1l0,-1ZM265.5,531.5l-2,-1l1,-1l2,1ZM265.5,534.5c-1,0,-1,0,-1,0c-1,0,-1,1,-1,1l0,1c1,0,1,0,1,0c1,0,1,0,1,0c1,0,1,-1,1,-1l0,-1c-1,0,-1,0,-1,0ZM260.5,521.5c0,0,1,0,1,0c0,0,1,0,1,0c1,0,1,0,2,0c0,0,0,1,0,1l0,1c-1,0,-1,0,-1,0c-1,0,-1,0,-1,0c0,0,0,1,-1,1c0,0,-1,0,-1,-1l2,0c1,0,1,-1,1,-1c-1,0,-1,0,-1,0c-1,0,-1,0,-1,0c-1,0,-1,0,-1,0c0,-1,0,-1,0,-1ZM258.5,542.5l-1,-1l-1,2l-1,-1l1,-2l1,1l1,-1l1,1ZM255.5,529.5l4,-2l0,1l-4,2ZM250.5,530.5l-1,-1l-1,1l-1,-1l1,-1l1,1l1,-1l1,1ZM251.5,534.5l-1,0l-1,1l-1,1l1,0l1,0c1,0,1,-1,1,-1ZM250.5,525.5l-5,2l0,-1l5,-3c0,1,0,1,0,1c0,1,0,1,0,1ZM245.5,525.5l0,-1l5,-3c0,1,0,2,0,2ZM335.5,530.5l-2,-1l0,1l-2,-1l1,-1l1,0l1,-1l2,1ZM333.5,537.5c0,0,1,0,1,0c0,0,1,0,1,0l0,-1c-1,-1,-1,-1,-1,-2l-1,0l0,-1l0,-1l0,-1c0,1,1,1,1,1c0,1,0,1,1,1l0,1l0,1c1,0,1,1,1,1l0,1c0,0,-1,1,-1,1c0,1,-1,1,-1,1l-1,0l-11,0l-1,1c0,1,0,1,0,1l-1,0l0,-1l1,-1c-1,0,-1,0,-1,0l-1,0c0,-1,0,-1,0,-1c0,0,0,-1,0,-1l0,-1l-1,0c0,1,0,1,0,1c-1,0,-1,0,-1,0c-1,0,-1,0,-1,1l-1,1c0,1,0,1,0,1c0,1,0,1,-1,2c0,0,0,1,-1,1l-1,0l0,1l-1,0l-1,0l-1,0l0,-1c-1,0,-1,0,-1,0l1,0c0,0,1,0,1,0l1,0l0,-1c1,0,1,0,1,0l1,-1c0,0,0,-1,1,-1c0,0,0,-1,0,-1c1,-1,1,-1,1,-1l-1,0l1,-3c0,0,0,1,0,1l1,0l0,-1c1,0,1,0,1,0l1,0l0,-1c1,0,1,0,1,0l0,1l0,1c1,0,1,0,1,1c0,0,1,0,1,0l1,0c0,0,1,-1,1,-1l2,-1c0,-1,1,-1,1,-1c1,0,1,-1,2,-1l1,0c0,0,1,0,1,1c1,0,1,0,1,1l0,1c0,0,0,1,-1,1l0,1l2,-1l1,0ZM332.5,523.5l4,-2l0,1l-4,2ZM324.5,531.5l-1,2l-1,-2l1,-1ZM330.5,536.5c0,0,-1,0,-1,0l0,-1c0,0,-1,0,-1,0c0,0,-1,0,-1,0c0,0,-1,0,-1,0c0,0,0,1,0,1c-1,0,-1,0,-1,0l-1,0l0,1l-2,1l2,0c1,0,2,0,3,-1c1,0,1,0,1,0c1,0,1,0,2,-1ZM321.5,526.5l5,-2l-1,1l-4,2ZM313.5,528.5l0,1c0,0,1,-1,1,-1l0,-1l0,1l1,0l0,-1l1,0l0,-1l0,1l0,1l0,1c0,0,-1,0,-1,0c-1,0,-1,0,-1,0c-1,1,-1,1,-1,1c0,0,-1,0,-1,0c0,0,0,-1,0,-1l0,-1ZM314.5,523.5c0,-1,0,-1,1,-1c0,-1,0,-1,0,-1c1,0,1,0,1,0c0,1,0,1,0,1c0,1,0,1,0,1l0,1l0,1l-1,0l-1,1c0,0,0,1,-1,1l-1,0c1,-1,2,-1,2,-2l0,-1l0,-1ZM315.5,523.5c0,0,-1,0,-1,0l1,0l0,1l0,-1ZM305.5,536.5c0,0,1,0,2,0c1,0,1,-1,2,-1l0,1l-1,0c0,1,0,1,-1,1c-1,1,-1,1,-2,1c-2,1,-3,1,-4,1c-1,0,-1,0,-1,0c-1,-1,-1,-1,-1,-1c0,-1,0,-1,0,-1l-1,-9l1,-2l1,10l0,1c0,0,1,0,1,0l1,0c0,0,-1,-1,-1,-1c0,0,0,-1,0,-1c0,0,0,-1,0,-1l0,-1c0,0,1,0,1,0c0,-1,0,-1,0,-1c0,0,1,0,1,0c0,0,0,-1,1,-1l1,0l1,0l0,1c1,0,1,0,1,0c0,0,0,1,1,1l-1,0l-1,0l0,-1l-1,0l-1,0l0,1l-1,0c0,0,-1,0,-1,0c0,1,0,1,0,1c1,1,1,1,1,1c0,1,1,1,1,1l1,0ZM301.5,527.5l5,-2c-1,0,-1,1,-1,1l-5,2ZM302.5,524.5l5,-3c0,1,0,2,0,2l-5,2ZM368.5,542.5l1,0l1,0c1,0,2,0,3,0c0,-1,0,-1,1,-1c0,-1,1,-1,1,-2c0,0,0,-1,1,-1l0,-1l-1,0l0,-1l0,-1c0,0,-1,0,-1,0l1,-1l0,-1l1,1c0,0,0,1,0,1l0,1l0,1c0,1,0,1,0,2c0,1,0,1,0,1c-1,1,-1,1,-1,1c0,0,0,1,-1,1l0,1l-1,0c0,0,-1,0,-1,0c0,0,-1,0,-1,0c0,0,-1,0,-1,0c-1,0,-1,0,-1,0ZM371.5,529.5l4,-2l0,1l-4,2ZM368.5,543.5l-2,-1l1,-1l2,0ZM365.5,539.5l-1,0c-1,0,-1,0,-2,0c0,0,0,-1,-1,-1l-2,-2c0,-1,-1,-1,-1,-1l-1,0l1,0l-1,1l0,1c0,1,0,1,0,1c-1,0,-1,1,-1,1l-1,0l-1,0l-1,0l-2,0c-1,0,-1,0,-2,0l0,-1l0,1l0,1l0,1l-1,0l-1,-1c0,0,0,-1,0,-1l-1,-1l-1,0c0,1,0,1,-1,1l0,1l0,1l0,1l1,2l0,2c0,1,0,1,0,2l0,1l-1,-1l0,-1l0,-1l0,-3l-1,-1l0,-1l0,-1l0,-1l1,0c0,-1,0,-1,0,-2l1,0l0,-1l1,0l1,0l0,-1c1,1,1,1,2,2l2,0l1,0l1,0l1,0c1,0,1,0,1,0c0,0,1,0,1,0c0,0,1,0,1,-1c0,-1,0,-1,0,-1c0,0,-1,-1,-1,-1c-1,-1,-1,-1,-1,-1c-1,0,-1,-1,-1,-1c-1,0,-1,0,-1,0c0,0,-1,0,-1,0c0,-1,0,-1,0,-1c0,-1,0,-1,0,-1c0,0,0,-1,0,-1c1,0,1,0,1,0c0,-1,0,-1,0,-1c1,0,2,0,3,-1c1,-1,3,-1,4,-2c2,0,3,-1,3,-1c1,0,1,0,1,0l-1,2c-1,0,-2,0,-3,1c-2,0,-3,1,-4,1c-2,1,-2,1,-3,2l1,1c0,0,1,0,1,0l1,1c1,0,2,1,2,1c1,0,1,1,2,1c0,1,1,1,1,2l2,1l1,0l1,0c1,0,1,0,2,0c0,0,1,0,1,0l0,-1c0,-1,0,-1,0,-1c0,0,-1,0,-1,0l0,-1l1,-1l0,1l1,0l0,1l0,1l0,1c0,0,-1,0,-1,0c0,1,0,1,0,1c0,0,-1,1,-1,1c-1,0,-1,0,-2,0ZM365.5,527.5l0,1c1,0,1,0,1,0l0,-1l0,-1l1,0l0,1c0,0,1,0,1,0l0,-1l0,1l0,1l-1,1l0,-1l-1,0l0,1l-1,0l0,-1l0,-1ZM369.5,524.5l-5,3c0,-1,0,-2,1,-2l5,-2ZM356.5,520.5c1,0,1,-1,1,-1c0,0,1,0,1,0c0,0,1,0,1,1l-1,1l1,1l0,1l-1,-1l-1,1c-1,1,-1,1,-1,1l-1,0l-1,0l1,0l1,-1l1,-1l-1,0c0,-1,0,-1,0,-1c0,-1,0,-1,0,-1ZM358.5,520.5l-1,0l0,1l1,0l0,-1ZM343.5,528.5c0,0,1,0,1,0c0,0,1,0,1,0c1,0,1,0,2,0l0,1l0,1c-1,0,-1,0,-1,0c0,1,-1,1,-1,1l-1,0l-1,0l2,-1c1,0,1,0,2,-1c-1,0,-1,0,-1,0c-1,0,-1,0,-1,0c0,0,-1,0,-1,0c0,0,-1,0,-1,0c0,0,0,-1,0,-1ZM418.5,539.5l0,-1l0,-1l0,-9l1,-2l0,11c0,0,0,1,0,1c0,0,0,1,-1,1ZM415.5,538.5l-1,1c-1,0,-1,0,-2,0l-1,0l-1,0l-1,0l0,-1l0,-1c0,0,1,0,1,0c1,0,1,0,2,0c0,0,1,0,1,0c0,0,1,0,1,0c0,0,0,-1,1,-1l-1,-1c0,0,0,-1,0,-1l-1,0l-1,-1l-1,0l0,-1l1,-2c0,1,0,1,0,1l1,0c0,0,0,1,1,1c0,0,1,1,1,1c0,1,0,1,0,2c1,1,1,1,1,1c0,0,0,1,-1,1c0,0,0,1,0,1ZM389.5,525.5c1,0,1,-1,1,-1c1,0,1,0,2,0c0,0,1,0,1,0c0,0,1,1,1,1c-1,1,-1,1,-1,1c0,0,0,1,-1,1l-1,0l-1,0l1,0c1,-1,1,-1,2,-1c0,0,-1,-1,-1,-1c0,0,-1,0,-1,0c0,0,-1,0,-1,1l-1,0c0,-1,0,-1,0,-1ZM408.5,525.5c0,0,1,-1,1,-1c1,0,1,0,1,0c1,0,1,0,2,0c0,0,0,1,0,1c0,1,0,1,0,1c0,0,-1,1,-1,1c0,0,-1,0,-1,0l-1,0l-1,0l2,0c1,-1,1,-1,2,-1c-1,0,-1,-1,-1,-1c0,0,-1,0,-1,0c0,0,-1,0,-1,1c0,0,-1,0,-1,0c0,-1,0,-1,0,-1ZM406.5,536.5c-1,0,-2,1,-3,1c-1,1,-2,1,-3,1c-1,1,-2,1,-3,1l-2,0c0,1,0,1,0,1c0,1,0,1,-1,1c0,1,0,1,0,2c-1,0,-1,0,-1,0c0,1,-1,1,-1,1l-1,0c-1,0,-1,0,-1,0l-1,0c0,0,-1,0,-1,0c0,0,-1,0,-1,0c0,-1,0,-1,0,-1c0,0,1,1,1,1l1,0l1,-1c0,0,1,0,1,0c1,0,1,-1,1,-1c0,0,1,0,1,-1c1,-1,1,-1,1,-1l0,-1l-1,0c-1,0,-1,0,-1,0c0,0,-1,-1,-1,-1l0,-1c0,-1,0,-1,1,-1c0,0,0,-1,0,-1c1,0,1,-1,1,-1c1,0,1,0,1,0c0,1,0,1,1,1l0,1c0,1,0,1,0,1c1,0,1,0,1,0l1,0l1,0c1,0,1,0,1,0c0,0,0,-1,0,-1c-1,-1,-1,-1,-1,-1c0,-1,0,-1,0,-1c1,0,1,-1,1,-1l0,-1c1,0,1,-1,1,-1c0,0,1,0,1,0c0,0,1,0,1,0l1,0c0,0,1,0,1,0l0,1l1,0l0,1l-1,-1l-1,0l-1,0l-1,0l-1,1l-1,0c0,1,1,1,1,1c0,0,0,1,0,1c1,0,1,1,2,1l1,0c1,0,1,-1,1,-1l1,0l1,0l0,-1ZM400.5,523.5l0,-1c1,0,1,0,1,0c0,0,1,0,1,0c0,0,0,1,0,1c0,0,0,1,0,1c0,1,0,1,0,1l0,1l-1,0l-1,1c0,0,-1,0,-1,0l0,1l-1,0l0,-1l1,0c0,0,0,-1,1,-1l0,-1l0,-1l0,-1ZM401.5,524.5l0,-1c-1,0,-1,0,-1,0c0,1,0,1,0,1l1,0ZM393.5,536.5l-1,0l0,1c0,0,1,0,1,0l1,0c0,-1,0,-1,-1,-1ZM385.5,539.5l0,-1l0,-1l0,-9l1,-2l0,11c0,0,0,1,0,1c0,0,0,1,-1,1ZM240.5,531.5c0,0,0,-1,0,-1c0,0,-1,0,-1,0c0,0,-1,0,-2,1l-1,0l1,0l0,-1l-1,-1l0,-1c0,0,0,-1,0,-1l1,0l-1,-1l-1,0c1,1,1,1,1,2l0,2l0,1c0,1,0,1,0,1c0,0,-1,0,-1,1l-1,0c0,0,1,1,1,0l1,0c1,0,2,0,2,0c1,0,1,0,2,-1c0,0,0,-1,0,-1ZM238.5,531.5c1,0,2,0,2,0c-1,1,-1,1,-2,1l-1,0c-1,0,-1,0,-1,0l1,0c0,0,0,-1,1,-1ZM212.5,527.5l-1,0l0,-1l0,-1c0,0,0,-1,0,-1c0,-1,0,-1,0,-1c1,0,1,-1,1,-1l1,0l-1,1l0,1l0,1c-1,0,-1,0,0,1c1,0,1,0,1,0c0,0,0,1,0,1c0,0,0,1,0,1l-1,0l0,-1ZM418.5,518.5c0,0,1,0,1,0c0,-1,0,-1,1,-1c0,0,1,1,1,1c0,0,-1,1,-1,1c0,1,0,1,0,1l1,0l0,2l-2,-1l0,1c-1,0,-1,0,-1,1l-1,0l-1,0l1,-1c1,0,1,0,1,-1l1,0l0,-1l-1,0l0,-1l0,-1ZM419.5,519.5l0,-1l0,1l1,1l0,-1ZM114.5,582.5c0,0,-1,0,-1,0c0,1,0,1,1,1c0,-1,0,-1,0,-1ZM114.5,589.5c0,0,-1,1,-1,1l-1,0c0,0,-1,0,-1,0l-1,0c0,0,-1,0,-1,0c0,0,-1,0,-1,-1c0,0,1,0,1,0l1,0c1,0,1,0,1,0c1,0,1,0,1,0c1,-1,1,-1,1,-1c1,-1,1,-1,1,-1c0,0,0,-1,1,-1c0,-1,0,-1,0,-2l-1,1c0,0,-1,0,-1,0l0,-1l-1,0c0,0,0,-1,0,-1c0,0,0,-1,0,-1c0,-1,1,-1,1,-1c0,-1,0,-1,0,-1c1,0,1,-1,1,-1c0,0,1,1,1,1l0,1c1,0,1,0,1,0c0,1,0,1,0,1c0,1,0,1,0,2c0,0,0,1,0,1c0,1,0,1,-1,2c0,1,0,1,0,1c-1,1,-1,1,-1,1ZM111.5,576.5l4,-2c0,1,0,1,0,1l-4,2ZM107.5,586.5l0,-2l0,-1l-1,-8l1,-3l1,11c0,0,0,1,0,1c-1,1,-1,1,-1,2ZM104.5,584.5l-1,1c-1,0,-2,0,-2,1l-1,0l-1,0l-1,0c0,0,0,-1,-1,-1c0,-1,0,-1,1,-1c0,-1,0,-1,0,-1c0,0,0,1,0,1l1,0c0,0,1,0,2,0c0,0,0,-1,0,-1c1,0,1,0,1,0c1,0,1,0,1,0c0,-1,0,-1,0,-1c0,-1,0,-1,-1,-1l0,-1l-1,0l-1,-1l0,-2c0,0,1,0,1,0c0,0,0,1,0,1l1,0l1,1l0,1c1,0,1,1,1,1c0,0,0,1,0,1c0,1,0,1,0,1c0,1,0,1,0,1ZM97.5,571.5l1,0c0,0,1,0,1,0c1,0,1,0,1,0c1,0,1,0,1,0c0,0,0,1,0,1l-1,1c0,0,-1,0,-1,0c0,0,-1,1,-1,1l-1,0c0,0,0,-1,0,-1l2,0c0,0,1,-1,1,-1l-1,0c-1,0,-1,0,-2,0l-1,0l1,0c0,-1,0,-1,0,-1ZM94.5,582.5c0,1,-1,1,-2,2c-1,0,-2,1,-3,1c-1,0,-2,0,-3,0l0,1l-1,0l-1,0l0,1l-1,1c0,0,0,1,0,1c-1,0,-1,1,-1,1c-1,0,-1,0,-1,0c0,1,-1,1,-1,1l-1,0l-1,0c0,0,-1,0,-1,0c-1,-1,-1,-1,-1,-1l1,0c1,0,1,0,2,0c0,0,1,-1,1,-1c0,0,1,0,1,0c0,-1,0,-1,1,-1c0,0,0,-1,0,-1c0,0,1,0,1,-1c0,0,-1,0,-1,0c0,-1,0,-1,-1,-1c0,0,-1,0,-1,-1l0,-1l0,-1c0,0,1,0,1,0l0,-1c0,0,1,0,1,0c0,0,1,0,1,0l0,1c0,0,1,0,1,0c0,0,0,1,0,1c0,0,0,1,0,1c1,0,1,0,1,0l1,0c1,0,2,-1,2,-1c0,0,-1,0,-1,-1c0,0,0,-1,0,-1c0,0,0,-1,0,-1c0,-1,0,-1,0,-1l1,0c0,0,0,-1,0,-1l1,0c0,0,0,-1,1,-1l1,0c1,0,1,0,1,0c0,0,0,1,0,1c0,0,1,0,1,0c0,0,0,1,0,1l-1,0l-1,0l0,-1l-1,1c0,0,-1,0,-1,0c0,0,-1,0,-1,1l0,1c0,0,1,0,1,0c0,1,1,1,2,1l1,0c0,0,1,0,1,0l0,-1l1,0l1,0ZM88.5,570.5c0,-1,1,-1,1,-1c0,0,0,-1,1,-1c0,1,0,1,0,1c0,0,1,0,1,1l-1,0l0,1l0,1l1,0l0,1l-2,-1l0,1c-1,1,-1,1,-1,1l-1,0l-1,0l1,0l1,-1l0,-1l1,0l-1,-1l0,-1ZM89.5,570.5l0,1l1,0l0,-1ZM82.5,583.5c-1,0,-1,0,-1,0c0,1,0,1,1,1l1,0l0,-1c0,0,-1,0,-1,0ZM73.5,586.5c0,0,-1,0,-1,-1c-1,0,-1,-1,-1,-2l0,-1l1,-1l1,-2c1,0,1,0,2,0c0,1,1,1,1,2l0,1c0,2,0,3,-2,4l-1,0ZM73.5,581.5l-1,0c0,0,0,1,0,1l0,1c0,0,0,1,1,1l1,0l1,-1c0,0,0,-1,0,-1c-1,-1,-1,-1,-2,-1ZM72.5,570.5c0,-1,0,-1,0,-1c1,0,1,-1,1,-1c1,1,1,1,1,1l0,1l0,1l0,1l0,1l-1,-1l0,1l-1,0c0,1,-1,1,-1,1l-1,0l1,-1l1,0l0,-1l0,-1l0,-1ZM73.5,570.5c0,0,-1,0,-1,0l1,0l0,1l0,-1ZM177.5,586.5l0,-2l0,-1l-1,-8l1,-3l1,11c0,0,0,1,0,1c0,0,-1,0,-1,0c0,1,0,1,0,2ZM179.5,589.5l-3,2c0,-1,0,-1,0,-1l4,-2ZM168.5,582.5c-1,0,-1,0,-1,0l-1,1l-1,0l-1,1l2,0c1,0,2,0,2,0c1,0,2,0,2,0c1,-1,1,-1,2,-1c0,0,0,-1,-1,-1c-1,0,-1,-1,-1,-1c-1,0,-1,0,-2,1ZM163.5,584.5l1,-1l2,-2l1,0c0,0,1,-1,1,-1c0,0,1,0,1,0c0,0,1,0,1,0c0,0,1,0,1,0l1,0l0,1l1,0c0,1,0,1,0,1c0,1,-1,1,-1,1c0,1,0,1,0,1c-1,0,-1,1,-2,1c-1,0,-1,0,-3,0c-1,1,-2,1,-2,1l-1,0l-1,0l0,1l0,1c0,0,-1,0,-1,0l0,-1l0,-1c0,0,0,-1,0,-1l-1,0c0,0,0,-1,0,-1c0,0,-1,1,-1,1l-1,0l-1,1c-1,0,-1,-1,-1,-1c-1,0,-1,-1,-1,-2c-1,1,-1,2,-1,2c-1,0,-1,1,-2,1l0,-2c1,0,1,0,1,0c1,0,1,-1,1,-1l0,-1c0,-1,0,-1,0,-1l0,-1l0,-6l1,-2l0,10c0,1,0,1,0,1c0,0,1,0,1,0c0,1,0,1,0,1c0,0,1,0,1,0l1,0l1,0l0,-1l1,0c0,-1,0,-1,0,-1l1,0l0,1c0,0,0,1,0,1ZM162.5,570.5l1,0c0,0,1,0,1,0c1,0,1,0,2,0l0,1l-1,1l-1,0c0,0,0,1,0,1c0,0,-1,0,-1,0c-1,0,-1,0,-1,0l2,-1c0,0,1,0,1,-1c-1,0,-1,0,-1,0c-1,0,-1,0,-2,0c0,0,0,-1,0,-1ZM154.5,569.5c0,-1,0,-1,0,-2c0,0,0,-1,0,-1l0,-1l1,1l0,1c0,1,0,1,0,1l0,1c0,0,-1,0,-1,0ZM151.5,586.5c-1,0,-2,-1,-3,-1c0,0,0,-1,0,-1c0,0,0,-1,0,-1l-1,0c0,0,-1,0,-1,0l-4,2c-1,0,-1,0,-1,0c-1,0,-1,0,-2,0l0,1l-1,0c-1,0,-1,0,-2,0l0,1l0,1c0,0,0,1,0,2c-1,0,-1,1,-2,1c0,0,0,-1,-1,-1c0,0,0,-1,-1,-1c0,-1,0,-2,0,-3l-1,0c0,0,-1,0,-1,0l-1,0l-1,0c-1,0,-2,-1,-2,-1c-1,-1,-1,-1,-1,-2l0,-9l1,-2l0,10l0,1c1,1,1,1,2,1l1,0l1,0l1,0l1,0c0,-1,0,-1,1,-2l0,-1c1,-2,2,-2,2,-2c1,0,1,0,1,0l0,1l0,1c0,1,0,1,0,1c-1,1,-1,2,-2,2l1,0l1,0l1,0l1,0l1,0l1,0c0,0,1,0,1,0c1,-1,1,-1,2,-1l1,0l0,-1l1,0l-1,0l-1,0c-1,-1,-1,-1,-2,-1c0,0,-1,0,-1,0l-1,0l1,-1c1,-1,1,-1,2,-1l1,0c0,0,0,1,1,1c1,0,2,1,3,1c1,0,1,0,2,0c1,0,1,0,2,0l0,2l-1,0l-1,0l0,1l1,0l1,0l1,0l1,0l0,2ZM148.5,589.5l-4,2c0,0,0,-1,0,-1l4,-2ZM135.5,581.5c0,0,-1,0,-1,0l-1,1l0,1c1,0,1,0,2,-1l0,-1ZM132.5,586.5l1,1c0,1,0,1,0,1l1,1l1,0l1,-1c0,0,-1,-1,-1,-1c-1,-1,-2,-1,-3,-1ZM132.5,572.5l5,-2l-1,1l-4,2ZM209.5,589.5l-2,-1l1,-1l2,1ZM206.5,586.5l-1,0c0,0,-1,-1,-1,-1c-1,0,-1,0,-1,0c0,0,-1,0,-1,-1l-1,0l-1,1l-1,0l-1,0l-1,1l-2,0l0,-1l-1,0l-1,-1l0,-1l0,1l-1,1c0,0,-1,0,-1,0c-1,0,-1,0,-2,0l-1,0c-1,0,-1,0,-1,0c0,0,0,-1,0,-1l0,-1l0,-1c0,0,0,1,0,1l1,0l1,0l1,0c0,0,1,0,1,0l1,0l1,0l0,-1l0,-1l-1,-2l0,-1l0,-1l1,-1l0,2c0,0,1,0,1,1l0,3l0,1l1,1l2,0l1,0c0,0,1,0,1,0l1,-1l0,-1c-1,0,-1,0,-1,0c0,0,-1,0,-1,0l1,-2c0,0,1,0,1,0c1,-1,1,-1,1,-1c1,0,1,0,1,0l0,1l1,0c0,0,1,0,1,1l0,1l-1,0l0,1l-1,0c1,0,1,0,1,0l0,1l1,0l1,0l1,0c1,0,1,0,2,0c0,0,1,-1,1,-1c0,-1,0,-1,0,-1l-1,-1l1,-2c0,0,0,1,0,1l1,1l0,1l0,1c0,1,0,1,-1,1c0,1,-1,1,-1,1c-1,0,-1,1,-2,1ZM206.5,572.5l5,-2l-1,1l-4,2ZM80.5,570.5l1,-1l1,0c0,0,1,0,1,0c1,1,1,1,1,1c0,1,-1,1,-1,1c0,1,0,1,0,1c-1,0,-1,0,-1,0c-1,0,-1,0,-1,0l-1,0l1,0c1,-1,2,-1,2,-1l-1,0c0,-1,0,-1,-1,-1c0,0,0,1,-1,1l-1,0c0,0,0,-1,0,-1c0,0,1,0,1,0ZM197.5,571.5c0,0,1,0,1,0c1,0,1,0,2,0c0,0,1,0,1,0c0,0,1,0,1,0c0,0,0,1,-1,1l0,1c0,0,-1,0,-1,0l-1,0c0,0,0,1,-1,1c0,0,0,-1,-1,-1l2,0c1,0,1,-1,2,-1c-1,0,-1,0,-1,0c0,0,-1,0,-1,0c0,0,-1,0,-1,0c0,0,-1,0,-1,0c0,-1,0,-1,0,-1ZM188.5,572.5l5,-2l-1,1l-4,2ZM262.5,586.5l0,-2l0,-1l0,-8l1,-3l0,11c0,0,0,1,0,1c0,1,-1,1,-1,2ZM247.5,567.5l4,-2l0,1l-5,2ZM257.5,568.5c0,-1,0,-1,1,-1l1,0l1,0c0,0,0,1,0,1l0,1c0,0,-1,0,-1,0c-1,0,-1,0,-1,0l-1,0l1,0c1,0,1,0,2,-1c-1,0,-1,0,-1,0l-1,0l-1,0ZM237.5,589.5c1,0,1,0,1,0l1,0c1,0,2,0,2,-1c1,0,1,-1,2,-1c0,-1,1,-1,1,-2c0,-1,0,-1,0,-1c0,-1,0,-1,0,-1l0,-1l-1,0l1,-2c1,1,1,1,1,2l0,1l0,1c0,0,0,1,0,1l0,1l0,1c-1,0,-1,0,-1,1l-1,1l-1,0c0,0,-1,1,-1,1c0,0,-1,0,-1,0l-1,0c0,-1,0,-1,-1,-1l-1,0ZM239.5,575.5c0,0,1,-1,1,-1c1,0,1,0,1,0c1,0,1,0,2,0c0,1,0,1,0,1c0,1,0,1,0,1c0,0,-1,1,-1,1c0,0,-1,0,-1,0l-1,0l-1,0l2,0c1,-1,1,-1,2,-1c-1,0,-1,-1,-1,-1c0,0,-1,0,-1,0c0,0,-1,0,-1,1c0,0,-1,0,-1,0c0,-1,0,-1,0,-1ZM230.5,579.5l-2,-1l1,-2l2,1ZM228.5,586.5l-1,0l0,1l0,1l0,-1l0,-1l-1,0l0,1c0,0,0,1,0,1c0,0,-1,1,-1,1c0,1,0,1,-1,1c0,1,0,1,0,1c-1,0,-1,1,-1,1c-1,0,-1,0,-2,0c0,0,0,1,-1,1c-1,0,-2,0,-3,-1c0,0,-1,0,-1,-1c0,0,-1,0,-1,-1c0,0,0,-1,0,-1l0,-1c0,-1,0,-1,0,-1l0,-1c1,0,1,-1,1,-1l1,0c-1,1,-1,1,-1,1c0,1,0,1,0,2c0,0,0,1,0,1c0,0,1,1,1,1c0,0,1,1,1,1l1,0c1,0,1,0,1,0c0,0,1,0,1,0c1,-1,2,-1,2,-1c1,0,1,-1,1,-1c1,-1,1,-1,1,-2c0,-1,0,-1,0,-2c0,0,-1,0,-1,-1l1,-1c0,1,1,1,1,1l1,0l1,0l0,-1l1,0l1,-1l1,-1l1,0l1,-1l1,0l1,0l1,0c1,0,1,1,1,1c0,1,0,1,0,1c0,1,0,1,0,1l0,1l-1,0c0,1,-1,1,-1,1l-1,0c-1,0,-1,0,-1,0l-2,1l-1,0l-1,0ZM232.5,582.5l-1,0l0,1l-1,0l-1,1l3,0l1,0c0,0,1,0,1,0c1,-1,2,-1,2,-1l0,-1l-1,0c-1,0,-1,0,-1,0c0,0,-1,0,-1,0l-1,0ZM224.5,596.5l-4,2c0,-1,0,-1,0,-1l4,-2ZM296.5,576.5l-2,-1l1,-1l1,1ZM297.5,582.5l0,1l-1,0c-1,0,-1,0,-1,0c0,0,-1,0,-1,0c0,0,0,-1,0,-1l0,-1c0,0,0,-1,0,-1c0,-1,1,-1,1,-1c0,-1,1,-1,1,-1c0,0,1,0,1,0c0,1,1,1,1,2l0,1l0,1c0,0,0,1,0,1l0,1c0,1,-1,1,-1,2c0,0,1,0,1,0l1,0c0,0,0,1,0,1c0,1,0,1,0,1c0,0,0,1,0,1c-1,0,-1,0,-2,0c0,1,-1,1,-2,1c0,1,-1,1,-2,1c-1,0,-1,0,-1,0c-1,1,-1,1,-2,1c-1,0,-1,0,-2,0c-1,0,-1,0,-2,0c0,0,-1,0,-1,0c-1,0,-2,0,-3,0c0,0,-1,0,-2,0c-1,-1,-2,-1,-2,-1c-1,0,-2,0,-2,-1c-1,0,-2,0,-2,0c-1,-1,-1,-1,-2,-1c0,0,0,-1,-1,-1c0,-1,0,-1,0,-1l1,0c0,0,1,1,1,1c1,0,1,0,2,1c1,0,1,0,1,0c0,0,1,0,2,0c1,1,1,1,2,1c1,0,2,0,3,0c0,0,1,0,2,0c0,0,1,0,1,0c0,0,1,0,1,0c1,0,1,0,2,0c0,0,1,0,1,0c1,0,2,0,2,0c1,0,2,-1,2,-1c1,0,2,0,2,0c0,0,1,-1,1,-1c0,0,1,0,1,0c0,-1,-1,-1,-2,-1c0,0,-1,0,-1,0c0,0,0,-1,0,-1c0,0,0,-1,0,-1c1,0,1,0,1,0c1,0,1,-1,1,-1c0,0,1,0,1,0c0,-1,0,-1,0,-1c-1,-1,-1,-1,-1,-1ZM295.5,580.5l0,1l1,0l1,0c0,0,-1,-1,-1,-1l-1,0ZM299.5,592.5l-4,2c0,-1,0,-1,0,-1l4,-2ZM355.5,577.5l-1,-1l-1,1l-1,0l1,-2l1,1l1,-1l1,1ZM353.5,586.5l-1,0l-1,0l-1,0c-1,0,-1,-1,-2,-1l-1,0c0,0,-1,0,-1,0c-1,0,-2,1,-2,1l-1,0l-1,0l0,-1l-1,0c0,0,0,-1,0,-1l0,-1l-1,1l0,1c-1,0,-1,0,-2,0c0,0,-1,0,-1,-1l-1,1l-1,1c-1,0,-2,-1,-2,-2l0,1c-1,0,-2,0,-2,1l-1,0l-2,0l0,-1c-1,0,-1,0,-1,0l0,-1c-1,0,-1,0,-1,-1l0,1l-1,1c0,0,-1,0,-1,0c-1,0,-1,0,-2,0l-1,0c0,0,-1,0,-1,0c0,0,0,-1,0,-1l0,-1l0,-1c0,0,0,1,0,1c0,0,1,0,1,0l1,0l1,0l1,0l1,0c1,0,1,0,1,0l0,-1l0,-1l0,-2l-1,-1l1,-1l0,-1l1,2l0,1l0,3l0,1c0,0,1,0,1,1l1,0l1,0l1,0l1,0c1,-1,1,-1,2,-2l0,1c0,0,0,1,1,1c0,0,1,0,1,-1c1,0,1,0,1,-1l1,0c0,0,0,1,0,1c0,0,1,0,1,0l1,0c0,-1,0,-1,1,-1c0,1,1,2,2,2l1,0c0,0,1,0,1,0c0,0,1,0,1,0c0,-1,0,-1,0,-1l-1,0l0,-1c0,0,1,-1,1,-1c0,-1,0,-1,0,-1c1,-1,1,-1,1,-1c1,0,1,-1,2,-1c0,0,0,1,1,1c0,0,0,1,0,1l0,1c0,1,0,1,0,1c0,0,0,1,0,1c0,0,-1,0,-1,1l1,0c0,0,1,0,1,0l1,0l1,0c1,0,1,0,2,0c0,0,1,-1,1,-1c0,-1,0,-1,0,-1c0,0,-1,0,-1,-1l1,-2c0,0,0,1,0,1l0,1l1,0l0,1l0,1c-1,1,-1,1,-1,1c0,1,-1,1,-1,1c-1,0,-1,1,-2,1ZM354.5,566.5l0,-1c0,0,1,0,1,0c1,0,1,1,1,1c0,0,0,1,0,1c0,1,-1,1,-1,1l1,0l0,1l-1,0l-1,0l0,1c0,0,-1,0,-1,0l0,1l-1,0c0,0,-1,0,-1,0l1,-1l1,0c0,0,0,-1,0,-1l1,0l0,-1c-1,0,-1,0,-1,-1l1,-1ZM355.5,567.5l0,-1l-1,0l0,1l1,0ZM348.5,577.5l-1,-1l1,-1l1,1ZM348.5,580.5c0,0,-1,0,-1,1c0,0,-1,0,-1,0c0,1,0,1,1,1l1,1c0,0,0,-1,1,-1c0,-1,0,-1,0,-1c0,-1,-1,-1,-1,-1ZM312.5,572.5c0,0,1,0,1,0c0,-1,1,-1,1,-1c1,0,1,0,2,1c0,1,0,1,0,1c-1,1,-1,1,-1,1c0,0,-1,0,-1,0l-1,0c0,0,-1,0,-1,0l2,0c1,0,1,-1,1,-1c-1,0,-1,0,-1,0c-1,0,-1,0,-1,0c-1,0,-1,0,-1,0l0,-1ZM343.5,568.5c0,-1,1,-1,1,-1c1,0,1,0,2,0c0,0,1,0,1,0c0,0,1,1,1,1l-1,0c0,0,0,1,0,1c0,0,-1,0,-1,1l-1,0l-1,0l-1,0l2,-1c1,0,1,0,2,-1c-1,0,-1,0,-1,0c0,0,-1,0,-1,0c0,0,-1,0,-1,0c0,0,-1,1,-1,1l0,-1ZM340.5,589.5l-4,2c0,0,0,-1,0,-1l4,-2ZM323.5,570.5c0,-1,1,-1,1,-1c0,0,0,-1,1,-1c0,1,0,1,0,1c0,0,1,0,1,1c0,0,-1,0,-1,0l0,1l0,1l1,0l0,1l-2,-1l0,1c-1,1,-1,1,-1,1l-1,0l-1,0l1,0l0,-1c1,0,1,0,1,0l0,-1l1,0l-1,-1l0,-1ZM324.5,570.5l0,1l1,0l0,-1l-1,0ZM315.5,582.5l-1,0c0,1,1,1,1,1c0,-1,0,-1,1,-1c-1,0,-1,0,-1,0ZM315.5,589.5c0,0,-1,1,-1,1c-1,0,-2,0,-2,0c-1,0,-1,0,-2,0c0,0,-1,0,-1,-1c0,0,1,0,1,0l1,0c1,0,1,0,1,0l1,0c1,-1,1,-1,1,-1c1,-1,1,-1,1,-1c0,0,1,-1,1,-1c0,-1,0,-1,0,-2l0,1c-1,0,-1,0,-1,0c0,0,-1,0,-1,0l0,-1c-1,0,-1,0,-1,0c0,0,0,-1,0,-1c0,0,0,-1,0,-1c0,-1,1,-1,1,-1c0,-1,0,-1,0,-1c1,0,1,-1,1,-1c1,0,1,1,1,1l1,1c0,1,0,1,0,1c0,1,0,1,0,2c0,0,0,1,0,1c0,1,0,1,-1,2c0,1,0,1,0,1c-1,1,-1,1,-1,1ZM308.5,586.5l0,-2l0,-1l0,-8l0,-3l1,11c0,0,0,1,0,1c0,1,-1,1,-1,2ZM382.5,582.5c0,0,-1,0,-1,0c0,1,0,1,1,1c0,-1,0,-1,0,-1ZM382.5,589.5c0,0,-1,1,-1,1l-1,0c0,0,-1,0,-1,0l-1,0c0,0,-1,0,-1,0c0,0,-1,0,-1,-1c0,0,1,0,1,0c1,0,1,0,1,0c1,0,1,0,1,0c1,0,1,0,1,0c1,-1,1,-1,1,-1c1,-1,1,-1,1,-1c0,0,0,-1,1,-1c0,-1,0,-1,0,-2l-1,1c-1,0,-1,0,-1,0l0,-1l-1,0c0,0,0,-1,0,-1c0,0,0,-1,0,-1c0,-1,1,-1,1,-1c0,-1,0,-1,0,-1c1,0,1,-1,1,-1c0,0,1,1,1,1l0,1c1,0,1,0,1,0c0,1,0,1,0,1c0,1,0,1,0,2c0,0,0,1,0,1c0,1,0,1,-1,2c0,1,0,1,0,1c-1,1,-1,1,-1,1ZM379.5,576.5l4,-2c0,1,0,1,0,1l-4,2ZM374.5,584.5l-1,0c0,1,0,1,0,1l1,0c0,0,0,-1,0,-1ZM375.5,587.5c-1,0,-1,0,-2,0c-1,0,-1,0,-2,0c-1,0,-1,0,-1,0l-1,0c0,0,0,-1,0,-1c1,0,1,-1,1,-1c0,0,1,0,1,0l1,0c0,0,0,-1,0,-1c0,0,1,0,1,0c0,-1,0,-1,0,-1c0,0,0,-1,-1,-1l0,-1c-1,0,-1,-1,-1,-1c-1,-1,-1,-1,-2,-2l-1,0c0,-1,0,-1,0,-1c0,0,-1,0,-1,0c-1,0,-1,-1,-1,-1c0,0,0,-1,-1,-1c0,-1,0,-1,1,-1l0,-1c0,1,1,1,1,1c1,1,1,1,2,2c1,0,1,1,2,2c0,0,1,1,1,2c1,0,1,1,1,1c0,0,1,1,1,1c0,0,0,-1,0,-1c0,-1,0,-2,0,-2c0,-1,1,-2,1,-2c0,0,0,-1,-1,-1c0,-1,0,-1,0,-2l0,-1l0,-1c1,0,1,0,1,0c0,0,0,1,0,1l1,0c0,1,0,1,0,1c0,1,0,1,0,1l0,1c-1,0,-1,1,-1,1c0,1,0,1,0,1c0,1,0,1,0,2c0,0,0,1,0,1c0,1,-1,1,-1,2c1,0,1,1,1,1c0,1,0,1,0,1c0,1,0,1,0,1l0,1ZM371.5,570.5l6,-3c-1,0,-1,1,-1,1l-5,3ZM257.5,587.5c0,0,-1,0,-1,1c-1,0,-1,0,-1,0c-1,0,-1,0,-2,0c0,0,-1,0,-1,0l0,-1l0,-1c1,0,1,0,1,0c0,0,1,0,1,-1c1,0,1,0,1,-1c0,0,0,-1,0,-1c-1,0,-1,-1,-1,-1c0,-1,-1,-1,-1,-2c-1,0,-1,0,-2,-1l0,-1c-1,0,-1,0,-1,0c-1,0,-1,0,-1,0c-1,0,-1,-1,-1,-1c0,-1,0,-1,0,-1c0,0,0,-1,0,-1c0,-1,0,-1,0,-1c1,0,1,1,2,1c0,1,1,1,1,1c1,1,1,2,2,2c1,1,1,2,2,3l0,1c1,0,1,0,1,1c0,-1,0,-1,0,-2c0,0,1,-1,1,-1c0,-1,0,-2,0,-2c0,0,0,-1,0,-1c0,-1,0,-2,0,-2l-1,0c0,0,0,-1,0,-1c0,0,1,0,1,-1c1,0,1,1,1,1l1,0c0,0,-1,1,-1,1c0,0,0,1,0,1c0,1,0,1,0,2c0,0,0,1,0,1c0,1,0,1,-1,1c0,1,0,2,0,2c0,1,0,1,-1,1c1,1,1,1,1,1c0,1,0,1,0,1c0,0,0,1,0,1c0,0,0,1,0,1ZM256.5,585.5l-1,0l0,1c0,0,1,0,1,0c0,-1,0,-1,0,-1ZM64.5,348.5l-1,1l-1,0c0,1,-1,1,-1,1l-1,0c-1,0,-1,0,-1,-1c0,0,-1,0,-1,0c0,-1,-1,-1,-1,-1c-1,0,-1,1,-1,1c0,0,-1,0,-1,0l0,1l-1,0c-1,0,-1,-1,-2,-1c-1,0,-1,-1,-1,-1c0,-1,0,-1,0,-1c-1,0,-1,1,-1,1l-1,0l-1,0l-1,0l0,-2c0,0,0,-1,1,-1c0,0,1,-1,1,-1c1,-1,1,-1,1,-1l0,-1l1,0l0,-1l0,1c0,1,0,1,0,1c0,1,0,1,0,2l1,2l0,1c0,0,1,0,1,0l1,0c0,0,1,0,1,0c0,0,1,0,1,-1l1,0l1,0c0,0,0,1,1,1l1,0l1,0c1,0,1,0,1,0c1,0,1,-1,1,-1c1,0,1,0,1,-1l1,0l0,1l0,1l1,0c0,0,1,0,1,0l0,-1c0,0,1,0,1,0c0,-1,0,-1,0,-1l1,-1l0,1l0,1l1,1l1,0c0,-1,0,-1,0,-1l0,-2l0,1l1,0l0,1l0,1l-1,1l-1,0l-1,0l-1,0l0,-1l0,1l-1,0l-1,0c0,1,0,1,-1,1l0,-1c-1,0,-1,0,-1,0l0,-1ZM71.5,353.5l-5,2c0,0,1,-1,1,-1l4,-2ZM58.5,344.5l-1,-1l-1,2l-2,-1l1,-2l2,1l0,-1l2,1ZM55.5,337.5l0,1c0,0,0,1,0,1c0,0,0,-1,0,-1c1,0,1,0,1,0l0,-1l0,1l1,0l0,-1l1,-1l0,1l0,1c0,1,-1,1,-1,1c0,0,-1,0,-1,0c0,1,-1,1,-1,1l-1,-1l0,-1l0,-1ZM59.5,335.5l-5,2c0,-1,0,-1,0,-1l5,-3ZM50.5,340.5l-1,-1l-1,2l-2,-1l1,-2l2,1l0,-1l2,1ZM51.5,344.5l-1,0l-1,1c-1,1,-1,1,-1,1l1,0l1,0l1,0ZM51.5,353.5l-4,2c0,-1,0,-1,0,-1l4,-2ZM89.5,340.5l-2,-1l1,-1l1,1ZM90.5,346.5l0,1l-1,0c-1,0,-1,0,-1,0c0,0,-1,0,-1,0c0,0,0,-1,0,-1l0,-1c0,0,0,-1,0,-1c0,-1,1,-1,1,-1c0,-1,1,-1,1,-1c0,0,1,0,1,0c0,1,1,1,1,2l0,1l0,1c0,0,0,1,0,1l0,1c0,1,-1,1,-1,2c0,0,1,0,1,0c1,0,1,0,1,0c0,0,0,1,0,1l0,1l-1,1c0,0,-1,1,-1,1c-1,0,-1,1,-2,1c-1,0,-2,0,-3,0c-1,0,-1,0,-2,0c-1,0,-1,0,-2,-1l0,-1c-1,0,-1,-1,-1,-1c0,-1,0,-1,0,-1c0,0,0,-1,1,-1c0,-1,0,-2,1,-2c0,0,0,1,-1,1c0,1,0,1,0,2c0,1,1,1,1,2c1,0,2,1,3,1c1,0,1,0,2,0c0,-1,0,-1,1,-1c1,0,1,0,2,-1c0,0,1,0,1,0c-1,-1,-1,-1,-2,-1c0,0,-1,0,-1,0l0,-1c0,-1,0,-1,0,-1c1,0,1,0,2,0c0,0,0,-1,0,-1c0,0,1,0,1,0c0,-1,0,-1,0,-1c-1,0,-1,-1,-1,-1ZM88.5,344.5l0,1l1,0l1,0c0,0,-1,-1,-1,-1l-1,0ZM92.5,356.5l-4,2c0,-1,0,-1,0,-1l4,-2ZM151.5,346.5c-1,0,-1,0,-1,0c0,1,0,1,1,1c0,-1,0,-1,0,-1ZM151.5,353.5c-1,0,-1,1,-1,1l-1,0c0,0,-1,0,-1,0l-1,0c0,0,-1,0,-1,0c-1,0,-1,0,-1,-1l1,0c1,0,1,0,1,0c0,0,1,0,1,0c1,0,1,0,1,0c0,-1,1,-1,1,-1c1,0,1,-1,1,-1c0,0,0,-1,1,-1c0,-1,0,-1,0,-1c0,-1,0,-1,0,-1c-1,0,-1,0,-1,1l-1,0l0,-1c0,0,-1,0,-1,0c0,0,0,-1,0,-1c0,0,0,-1,0,-1c0,-1,0,-1,1,-1c0,-1,0,-1,0,-1c0,0,1,0,1,0c0,0,1,0,1,0l0,1c0,0,1,0,1,0c0,1,0,1,0,1c0,1,0,1,0,2c0,0,0,1,0,1c0,1,-1,2,-1,2c0,1,0,1,-1,1c0,1,0,1,0,1ZM148.5,340.5l4,-2c0,1,0,1,-1,1l-4,2ZM144.5,350.5l0,-2l0,-1l-1,-8l1,-3l1,11c0,0,0,1,0,1c-1,1,-1,1,-1,2ZM128.5,331.5l5,-2l-1,1l-4,2ZM138.5,332.5c1,-1,1,-1,1,-1c1,0,1,0,1,0c1,0,1,0,1,0c1,0,1,1,1,1c0,0,-1,1,-1,1l-1,0l-1,0l1,0c0,0,1,0,1,-1l-1,0c0,0,-1,0,-1,0l-1,0ZM119.5,353.5l1,0c1,0,2,0,3,-1c0,0,1,-1,1,-1c1,-1,1,-1,2,-2c0,-1,0,-1,0,-1c0,-1,0,-1,0,-1l-1,-1l0,-2l1,0c0,1,0,1,1,2l0,1l0,1c0,0,0,1,0,1l0,1c-1,0,-1,0,-1,0l0,1l0,1c-1,0,-1,0,-1,1c0,0,-1,0,-1,0l-1,0c0,0,0,1,0,1c-1,0,-1,0,-1,0l-1,0l-1,0c0,0,0,-1,0,-1c0,0,-1,0,-1,0ZM121.5,339.5c0,0,0,-1,1,-1c0,0,1,0,1,0c1,0,1,0,1,0c1,1,1,1,1,1c0,1,0,1,-1,1c0,0,0,1,0,1c0,0,-1,0,-1,0c0,0,-1,0,-1,0l-1,0l2,0c0,-1,1,-1,1,-1c0,0,0,-1,-1,-1c-1,0,-1,0,-2,1c0,-1,0,-1,0,-1ZM112.5,343.5l-2,-1l1,-2l2,1ZM110.5,350.5l-1,0l0,1l0,1l0,-1l0,-1l-1,0l0,1c0,0,0,1,0,1c-1,0,-1,1,-1,1c0,1,0,1,-1,1c0,1,0,1,0,1c-1,0,-1,1,-2,1l-1,0c0,0,0,1,-1,1c-1,0,-2,0,-3,-1c0,0,-1,0,-1,-1c0,0,-1,0,-1,-1c0,0,0,-1,0,-1l0,-1c0,-1,0,-1,0,-1l0,-1c0,0,1,-1,1,-1l1,0l-1,0c0,1,0,1,0,1c0,1,0,1,0,2c0,0,0,1,0,1c0,0,1,1,1,1c0,0,1,1,1,1l1,0c0,0,1,0,1,0c0,0,1,0,1,0c1,-1,1,-1,2,-1c1,0,1,-1,1,-1c1,-1,1,-1,1,-2c0,-1,0,-1,0,-2c-1,0,-1,0,-1,-1l1,-1c0,1,1,1,1,1l1,0l1,0l0,-1l1,0l1,-1l1,-1l1,0l0,-1c1,0,1,0,2,0l1,0l1,0c1,0,1,1,1,1c0,1,0,1,0,1c0,1,0,1,0,1l0,1l-1,0c0,1,-1,1,-1,1l-1,0c-1,0,-1,0,-1,0l-2,1l-1,0l-1,0ZM114.5,346.5l-1,0l0,1l-1,0l-1,1l3,0l1,0c0,0,1,0,1,0c1,-1,2,-1,2,-1l0,-1l-1,0l-1,0c0,0,-1,0,-1,0c0,0,-1,0,-1,0ZM100.5,340.5l4,-2c0,1,0,1,0,1l-5,2ZM220.5,350.5l0,-2l0,-1l-1,-8l1,-3l1,11c0,0,0,1,0,1c0,0,-1,0,-1,0c0,1,0,1,0,2ZM212.5,348.5c0,0,1,0,1,0c0,0,1,0,1,0c0,0,0,-1,0,-1c1,0,1,0,1,-1l0,-1l-1,-7l0,-1l0,-1l1,0c0,1,0,1,0,1l1,0c0,1,0,1,0,1c0,1,-1,1,-1,1c0,1,0,1,0,2c0,0,0,1,0,3c0,0,0,1,1,1l0,1c0,0,0,1,-1,1c0,0,0,1,0,1c0,1,0,1,-1,1c0,0,-1,0,-1,0l-1,1l-1,0l0,-1l-1,0c0,0,0,-1,0,-1l-1,-1l0,1l0,1c-1,0,-1,0,-2,0c0,0,-1,0,-1,-1l-1,1l-1,1c-1,0,-2,-1,-2,-2l-1,1c0,0,-1,0,-1,0l0,1l-1,0l-1,0c0,0,-1,-1,-2,-1c0,0,-1,1,-1,1c-1,0,-1,0,-1,0l-1,-1l-2,-1l-1,1c0,0,0,1,-1,1l-1,0l-2,0l0,1c0,0,-1,0,-1,1c0,0,0,1,-1,1c0,0,0,1,0,1c-1,0,-1,0,-1,0c0,1,-1,1,-1,1l-1,0l-1,0c0,0,-1,0,-1,0c-1,-1,-1,-1,-1,-1l1,0c1,0,1,0,2,0c0,0,1,-1,1,-1c0,0,1,0,1,0c0,-1,0,-1,1,-1c0,0,0,-1,0,-1c0,0,1,0,1,-1c-1,0,-1,0,-1,0c0,-1,-1,-1,-1,-1c-1,0,-1,0,-1,-1l0,-1l0,-1c0,0,1,0,1,0l0,-1l1,0c0,0,1,0,1,0l0,1l1,0c0,0,0,1,0,1c0,0,0,1,0,1c1,0,1,0,1,0l1,0l1,0c1,0,1,0,1,0l1,-1l0,-1c1,-1,2,-2,3,-2l0,1l1,1l1,1l1,0c0,1,0,1,0,1l1,0l1,0l1,0l1,0c0,-1,1,-1,1,-2l1,0l0,1c0,0,0,1,1,1c0,0,1,0,1,-1c0,0,1,0,1,-1l1,0c0,0,0,1,0,1l1,0l1,0c0,-1,0,-1,0,-1l1,0c0,1,1,2,1,2l1,0ZM204.5,340.5l1,0c0,1,0,1,0,1c0,-1,0,-1,1,-1l0,-1l0,1c0,0,1,0,1,0l0,-1l0,-1l1,0l0,1l0,1c-1,1,-1,1,-1,1l-1,0c-1,1,-1,1,-1,1c0,0,-1,0,-1,0c0,-1,0,-1,0,-1l0,-1ZM209.5,337.5l-6,3c0,-1,1,-2,1,-2l5,-3ZM195.5,348.5l-1,-1c0,0,0,-1,0,-1l-1,0l-1,1c0,0,1,0,1,0l1,1ZM184.5,347.5l-1,0c0,1,0,1,1,1c1,0,1,0,1,0l0,-1c-1,0,-1,0,-1,0ZM169.5,343.5l-1,1l-1,-1l-1,1l-1,-1l1,-1l1,1l1,-1ZM175.5,348.5c-1,0,-1,0,-2,1c-1,0,-2,0,-3,1c-1,0,-3,0,-4,0c-1,0,-2,0,-3,0c-1,0,-2,-1,-3,-1c0,-1,0,-1,0,-1c0,0,-1,0,-1,-1l0,-1c0,0,1,-1,1,-1c0,-1,0,-1,1,-2c0,0,0,1,0,1l0,1c-1,0,-1,0,-1,1l1,1l1,1c0,0,1,0,1,0l1,0l1,0l2,0c1,0,1,0,2,0l1,0c0,0,1,0,1,0l1,-1c1,0,1,0,2,0c0,-1,1,-1,1,-1l0,-1c0,0,-1,-1,-1,-1l0,-1c1,0,1,-1,1,-1c0,1,0,1,1,2c0,0,0,1,0,1c0,1,0,1,0,1c-1,1,-1,1,-1,2ZM165.5,353.5l-4,2c0,-1,0,-1,0,-1l4,-2ZM246.5,342.5l-1,-1l1,-1l1,1ZM255.5,345.5l-1,2l-1,0c0,0,-1,0,-1,0l-1,0l-1,0l-1,1l-2,1c0,0,-1,0,-1,0l-1,0l-1,0l0,1l-1,0c0,0,-1,-1,-1,-1c-1,0,-1,-1,-1,-2c0,1,0,2,-1,2l-1,0l0,1l-1,0c0,1,-1,1,-1,1l0,1c0,1,-1,2,-2,2c-2,1,-3,1,-4,1c-1,0,-1,0,-1,0c0,0,-1,0,-1,0c-1,0,-1,-1,-2,-1c0,-1,0,-1,0,-2l0,-1l0,-1c0,-1,0,-1,1,-2c0,-1,0,-1,0,-1l1,0l-1,1l0,1c0,0,0,1,0,2l0,1l0,1c0,0,1,0,1,0c1,0,1,0,2,0l1,0c0,0,1,0,1,0c1,0,1,0,2,-1c0,0,1,0,1,0c0,-1,0,-1,1,-1c0,-1,0,-1,0,-1l-2,0c0,0,0,-1,-1,-1c-1,-1,-1,-1,-1,-1c0,-1,0,-1,1,-1c0,0,0,-1,0,-1l0,-1c1,0,1,0,1,0c1,0,1,0,1,0c1,1,1,1,1,2c0,0,0,1,1,1l1,0c1,0,1,-1,2,-1l0,-1c0,0,0,-1,0,-1l0,-1l-1,-6l1,-2l1,10c0,1,0,1,0,1c0,1,0,1,1,1c0,-1,0,-1,0,-1c1,-1,1,-1,1,-1l0,-1l1,0c0,-1,0,-1,0,-1c1,0,1,0,1,0l1,0l1,0l1,0l1,1l2,0l1,0l1,0c0,0,1,0,1,0ZM250.5,346.5l-1,0c-1,0,-1,0,-1,0c-1,-1,-1,-1,-1,-1l-1,0c0,0,0,1,0,1c-1,0,-1,0,-1,0l-1,1l0,1l1,0l1,0l1,-1l1,0l1,-1ZM247.5,336.5l4,-2l0,1l-1,0l-4,2ZM238.5,333.5l4,-2l0,1l-4,2ZM236.5,343.5l-2,-1l0,2l-2,-1l1,-2l1,1l1,-1l2,1ZM234.5,347.5c0,1,1,1,1,1c0,0,1,0,1,0l0,-1c-1,0,-1,0,-1,0c0,0,-1,0,-1,0ZM229.5,336.5l5,-2l-1,1l-4,2ZM296.5,350.5l0,-2l0,-1l-1,-8l1,-3l1,11c0,0,0,1,0,1l-1,0c0,1,0,1,0,2ZM289.5,350.5c0,0,-1,0,-1,0l0,-1c-1,-1,-1,-1,-1,-2c0,1,0,1,0,1c0,0,-1,0,-1,1c0,0,-1,0,-2,0c0,0,-1,0,-1,0c0,0,-1,0,-1,0c-1,0,-1,0,-1,-1c0,0,0,-1,0,-1l0,-1c0,1,0,1,0,1c1,0,1,0,1,0c0,0,1,0,1,0c1,0,1,0,1,0c1,0,1,0,1,0c1,0,1,0,1,0c0,0,1,0,1,-1l0,-1c0,0,0,-1,-1,-2c0,0,0,-1,0,-1l0,-1c1,0,1,-1,1,-1l0,2l1,1c0,1,0,2,0,2c0,1,0,1,0,2c0,0,0,1,0,1l1,0l0,1l1,0c0,1,0,1,1,1l0,-1c0,0,0,-1,0,-3c0,0,0,-1,0,-2l0,-1c0,-1,0,-1,0,-2c-1,-1,-1,-2,-1,-3l0,-1l0,-1c1,0,1,0,1,0c0,0,0,1,0,1c1,0,1,0,1,0c0,1,0,1,0,1c0,1,0,1,0,1c0,1,0,1,0,2c0,0,0,1,0,3c0,0,0,1,0,1c0,0,0,1,0,1c0,2,0,2,0,2c0,1,0,1,0,1l0,1c0,0,0,1,-1,1l-1,0l-1,0l0,-1ZM290.5,331.5l0,1c0,1,0,1,1,1l0,-1l0,-1l1,0l0,1c1,0,1,0,1,-1l0,-1l0,1l0,1c0,1,0,1,0,1l-1,0l-1,0c0,1,0,1,-1,1c0,-1,0,-1,0,-1l0,-1ZM294.5,329.5l-5,2c0,0,0,-1,0,-1l6,-3ZM286.5,339.5l-2,-1l1,-1l1,0ZM284.5,353.5l-4,2c0,-1,0,-1,0,-1l4,-2ZM277.5,343.5c-1,0,-1,0,-1,0c0,0,-1,0,-1,0c-1,0,-1,0,-2,1c-1,1,-1,1,-1,2l1,1c0,0,1,0,1,0l1,0c1,0,1,0,1,0c1,1,1,1,1,1c0,1,0,1,0,1c-1,1,-1,1,-1,1l-1,1c0,0,-1,1,-2,1c0,0,-1,0,-2,1c-1,0,-1,0,-2,0l-1,0c0,0,-1,0,-2,0c0,0,-1,-1,-1,-1c0,0,-1,-1,-1,-1c0,-1,0,-1,0,-2c0,-1,0,-1,0,-2c0,-1,0,-1,1,-2l0,-1l1,0l0,1c-1,0,-1,0,-1,1c0,1,0,1,0,1c0,0,0,1,0,1c0,1,0,1,0,1c0,0,0,1,1,1c0,1,1,1,3,1c1,0,2,0,3,0l2,-1l1,0c0,-1,0,-1,1,-1l-2,0c-1,-1,-2,-1,-2,-1c-1,0,-1,-1,-1,-1c0,0,0,-1,0,-1c0,0,0,-1,1,-1c0,-1,0,-1,0,-1c0,-1,1,-1,1,-1c0,0,0,-1,1,-1c0,0,1,-1,1,-1c1,0,1,0,2,0l1,0c0,0,0,1,0,1l-1,1ZM321.5,350.5l0,-2l0,-1l0,-8l1,-3l0,11c0,0,0,1,0,1c0,1,0,1,-1,2ZM317.5,349.5c-1,0,-1,0,-1,0c0,0,-1,0,-1,0c0,-1,-1,-1,-1,-2c0,1,0,1,-1,2c0,0,-1,1,-1,1c-1,0,-1,-1,-2,-1c0,-1,-1,-1,-1,-2c0,1,0,1,-1,1c0,0,-1,0,-1,0c-1,0,-1,0,-2,0c0,0,0,-1,0,-1l0,-1c0,0,1,0,1,-1c0,0,1,0,2,-1l1,0l0,-1l0,-1l1,-1l0,1l0,1l0,3l0,1l1,0c0,0,0,1,1,1c0,0,1,-1,1,-1l1,-1c0,0,0,-1,-1,-2c0,-1,0,-1,0,-2c0,-1,0,-1,0,-1l0,-1l1,-1l0,3l0,2l1,1c0,1,0,1,0,1c0,1,1,1,1,1l1,0c1,0,1,0,1,-1l-1,-1l0,-1l0,-1l-1,-1l1,-1l0,-1l0,1c0,0,1,1,1,1l0,2c0,1,0,1,0,2c0,0,0,1,0,2l-1,1ZM309.5,344.5l-1,1c0,0,-1,0,-1,0c0,1,0,1,-1,1c1,0,2,0,2,0c1,0,1,0,1,0ZM356.5,353.5c0,0,1,0,1,0c1,0,2,0,3,-1c1,0,1,-1,1,-1c1,-1,1,-1,2,-2c0,-1,0,-1,0,-1c0,-1,0,-1,0,-1l0,-1l-1,0l0,-2l1,0c0,1,0,1,1,2l0,1l0,1c0,0,0,1,0,1l0,1c-1,0,-1,0,-1,1l0,1c0,0,-1,0,-1,1l-1,0l-1,0c0,0,0,1,0,1c-1,0,-1,0,-1,0l-1,0c-1,0,-1,-1,-1,-1l-1,0ZM359.5,340.5l4,-2c-1,1,-1,1,-1,1l-4,2ZM355.5,353.5l-1,-1l0,-1l2,1ZM353.5,350.5l-1,0l-1,0c-1,0,-1,-1,-1,-1c-1,0,-1,0,-1,-1l-3,-2l-1,-1l0,1l0,1l0,1c-1,0,-1,0,-1,1l-1,0l-1,0l0,1l-1,0l-1,0l-2,0c-1,0,-1,-1,-1,-1c0,0,-1,0,-1,0l0,1l0,1c0,1,0,1,-1,1l-1,-1c0,-1,0,-1,0,-2l0,-1c-1,1,-1,1,-1,1l-1,0c0,0,-1,0,-1,1l0,1l0,1l1,3l0,1c0,1,0,2,0,2l0,1l0,-1l0,-1l-1,-1l0,-2l0,-2l0,-1l0,-1l0,-1c0,0,0,-1,1,-1l0,-1l1,0l1,-1c1,0,2,1,3,1l1,1l2,0l1,0l1,0c1,0,1,0,1,0c0,-1,0,-1,1,-1c0,-1,0,-1,0,-1l0,-1c-1,-1,-1,-1,-1,-1c0,0,-1,0,-1,-1c0,0,-1,0,-1,0c-1,0,-1,0,-1,0c0,0,0,-1,0,-1c-1,0,-1,0,-1,0c0,-1,0,-1,0,-1l0,-1c1,0,1,-1,1,-1c1,-1,2,-1,3,-2c2,0,3,-1,5,-1c1,-1,2,-1,2,-1c0,0,1,0,1,0l0,1c0,0,-1,0,-1,0c-1,0,-1,1,-3,1c-1,1,-3,1,-4,2c-1,0,-2,1,-3,1l0,1l1,0c0,0,1,0,1,1l1,0l1,0c0,1,1,1,1,2c1,0,1,0,2,1c0,0,1,1,2,1l1,2l1,0l1,0l1,0l1,0c1,0,1,-1,1,-1c0,-1,0,-1,0,-1l0,-1l-1,0l1,-2c0,0,0,1,0,1l1,0l0,1l0,1l0,1c0,1,0,1,0,1c0,0,-1,0,-1,0c0,1,0,1,-1,1c-1,0,-1,1,-1,1ZM352.5,337.5l0,1c0,0,1,1,1,1c0,0,0,-1,0,-1l0,-1l1,0l0,1l1,0l0,-1l0,-1l0,1l0,1c0,1,0,1,0,1l-1,0l-1,0c0,1,0,1,0,1c-1,0,-1,0,-1,-1l0,-1l0,-1ZM356.5,335.5l-5,2c0,-1,1,-1,1,-1l5,-3ZM344.5,330.5l0,-1c1,0,1,0,1,0c1,0,1,1,1,1c0,0,0,1,0,1c0,1,0,1,-1,1l1,0l0,1l-1,0l-1,1c0,0,-1,0,-1,0l0,1l-1,0l-1,0l1,-1l1,0l0,-1l1,0l0,-1c0,0,-1,0,-1,-1c0,0,1,0,1,-1ZM345.5,331.5l0,-1l-1,0l0,1l1,0ZM333.5,334.5c0,-1,1,-1,1,-1c0,0,0,-1,1,-1c0,1,0,1,0,1c0,0,1,0,1,1c0,0,-1,0,-1,0l0,1l0,1l1,0l0,1l-2,-1l0,1c-1,1,-1,1,-1,1l-1,0l-1,0l1,0l0,-1c1,0,1,0,1,0l0,-1l1,0l-1,-1l0,-1ZM334.5,334.5l0,1l1,0l0,-1ZM404.5,350.5l0,-2l1,-1l-1,-8l1,-3l0,11c0,0,0,1,0,1c0,1,0,1,-1,2ZM407.5,352.5l-4,2c1,0,1,-1,1,-1l4,-2ZM388.5,348.5l-2,-1l1,-2l2,1ZM401.5,350.5l-1,1c-1,0,-1,1,-1,1c-1,0,-1,0,-2,0c0,1,0,1,-1,1c-1,0,-2,1,-3,1c-1,0,-2,0,-3,0c-1,0,-1,0,-2,0c-1,0,-1,0,-2,0c-1,0,-1,0,-2,0c0,0,-1,0,-2,0c-1,0,-2,0,-2,0c-1,0,-2,-1,-3,-1c-1,-1,-2,-1,-3,-1c-1,-1,-2,-2,-3,-3c0,0,0,-1,0,-1c1,1,1,1,1,1c0,0,1,1,1,1c1,0,2,0,2,1c1,0,2,0,2,0c1,0,1,1,2,1c0,0,1,0,2,0c0,0,1,0,2,0c0,1,1,1,1,1c1,0,2,0,2,0c1,0,1,0,2,0c1,0,1,0,2,-1c1,0,2,0,2,0c2,0,3,0,3,0c1,-1,2,-1,3,-1c1,-1,2,-1,2,-2l0,-1c0,-1,0,-1,0,-1l-1,-1l0,-1l0,-1l1,1l1,0c0,0,0,1,0,1c0,1,0,1,0,1l0,1l0,1c0,0,0,1,0,1ZM378.5,337.5l0,1l1,0l0,-1l0,-1l1,0l0,1c1,0,1,0,1,0l0,-1c0,1,0,1,0,1l0,1l-1,1c0,0,0,-1,0,-1l-1,1l-1,0l0,-1l0,-1ZM382.5,334.5l-5,3c0,-1,0,-1,0,-1l6,-3ZM192.5,341.5c0,-1,0,-1,0,-2c0,0,0,-1,0,-2c1,0,1,0,1,1l0,1c0,0,0,1,0,1c0,1,0,1,-1,1ZM181.5,342.5l0,-1l1,0c0,0,-1,-1,-1,-1c0,-1,0,-2,0,-2l0,-1c1,0,1,0,1,1c0,0,0,1,0,1l0,1c0,1,0,1,0,1l-1,1ZM267.5,335.5c0,0,1,-1,1,-1c0,0,1,0,1,0c1,0,1,0,2,0c0,1,0,1,0,1c0,1,0,1,0,1c-1,0,-1,1,-1,1c0,0,-1,0,-1,0l-1,0c0,0,-1,0,-1,0l2,0c1,-1,1,-1,2,-1c-1,0,-1,-1,-1,-1c-1,0,-1,0,-1,0c-1,0,-1,0,-1,1c-1,0,-1,0,-1,0c0,-1,0,-1,0,-1ZM306.5,337.5l0,-1c0,0,1,0,1,0c1,0,1,1,1,1l0,1c-1,0,-1,1,-1,1l1,0l0,1l-1,0l-1,0l0,1c-1,0,-1,0,-1,0l-1,1c-1,0,-1,0,-1,-1l1,0l1,0c0,0,0,-1,0,-1l1,0l0,-1c-1,0,-1,-1,-1,-1l1,-1ZM307.5,337.5l-1,0c0,0,0,1,0,1l1,0ZM138.5,350.5l-1,0c0,0,-1,0,-1,0c0,0,-1,0,-2,0l-1,0l0,-1c0,-1,0,-1,0,-1c0,0,1,0,1,0c1,0,1,0,1,0c0,0,1,0,1,-1c0,0,1,-1,1,-1c0,0,-1,0,-1,-1l-1,0c0,-1,-1,-2,-1,-2c0,0,-1,-1,-1,-2c-1,0,-1,0,-1,0c0,-1,-1,-1,-1,-1l-1,0c0,0,-1,0,-1,-1l0,-1c0,0,0,-1,0,-1l1,0l1,1c0,0,1,0,1,1c1,1,2,1,2,2c1,1,1,1,2,2c0,1,1,1,1,1c0,1,0,1,0,1c0,0,0,-1,1,-1c0,-1,0,-1,0,-2c0,-1,0,-1,0,-2l0,-1c0,-1,0,-1,0,-2c0,-1,0,-1,0,-1c0,-1,0,-1,1,-1l0,1c0,0,1,1,1,1l0,1c0,0,-1,0,-1,0c0,0,0,1,0,1c0,0,0,1,0,1c0,1,0,1,0,2l0,1c0,0,-1,1,-1,2c0,0,0,1,0,1c0,1,0,1,0,1l0,1c0,1,0,1,0,1c0,0,0,1,0,1ZM137.5,347.5l0,1l-1,0l1,0l1,0l-1,0ZM81.5,399.5l-2,-1l-1,1l-1,0l1,-2l1,1l1,-1l2,1ZM78.5,396.5l-1,0l-11,0l0,1c0,0,0,1,0,1l-1,0l0,-1l0,-1l1,0l-1,0l-1,0c0,0,-1,0,-1,0c0,-1,-1,-1,-1,-2c0,1,0,1,-1,1c0,1,0,1,0,1l-1,0l-1,0l-1,0l-1,-1l-1,0c-1,0,-1,1,-1,1c-1,0,-1,0,-1,0l-1,0c0,0,-1,0,-1,0c0,0,-1,0,-1,-1l0,-1c0,0,0,-1,0,-1l-1,1c0,0,-1,0,-1,0l-1,0c0,0,-1,0,-1,0l-1,0l0,-1c0,-1,1,-1,1,-2c1,0,1,0,2,-1c1,0,1,0,1,0l0,-1l0,-1l1,1l0,1c0,0,0,1,0,1l0,2c0,0,1,0,1,1l1,0l1,0l1,0l1,0l1,-1c0,0,1,0,1,0l0,1c0,0,1,0,1,0l1,0l1,0l1,-1c0,0,0,-1,0,-1l0,-1l-1,-7l1,-2l1,11c0,0,0,1,0,1c0,0,1,0,1,0l1,0c1,0,1,0,1,0c1,0,1,-1,1,-2l0,-1l0,-1l0,-1l0,-3l-1,-2c0,0,0,-1,1,-1l0,-1l1,2c-1,1,-1,1,-1,2l0,1l1,0l0,2l0,1l0,1l0,1l0,1l1,-1l1,-1l1,0c0,-1,1,-1,1,-1l1,0c0,0,1,0,1,0c1,1,1,1,1,2c0,0,0,1,0,1l0,1l-1,0l0,1l1,-1l2,0l1,0c0,0,1,0,1,0c1,0,1,0,1,0c0,0,1,-1,1,-1l-1,0l0,-1l0,-1l0,-1c0,0,1,0,1,0l0,1c0,0,0,1,0,1c0,1,0,1,0,1c0,0,0,1,0,1c0,1,0,1,0,1c-1,0,-1,1,-2,1c0,0,-1,0,-1,0ZM77.5,383.5l5,-2l-1,1l-4,2ZM74.5,393.5c0,0,0,-1,0,-1c-1,0,-1,0,-1,0c0,0,-1,0,-1,0c-1,0,-1,0,-2,0l-1,1l-2,1l1,0c1,0,1,0,2,0c0,0,1,0,1,0c1,0,2,-1,3,-1ZM68.5,381.5c1,0,1,-1,1,-1c1,0,1,0,2,0c0,0,1,0,1,0c1,0,1,1,1,1c-1,1,-1,1,-1,1c0,0,0,1,-1,1c-1,0,-1,0,-1,0l-1,0l1,0c1,-1,2,-1,2,-1c0,0,-1,-1,-1,-1l-1,0c0,0,-1,0,-1,1l-1,0c0,-1,0,-1,0,-1ZM61.5,377.5c0,-1,1,-1,1,-1c0,0,0,-1,1,-1c0,1,0,1,0,1c0,0,1,0,1,1l-1,0l0,1l0,1l1,0l0,1l-2,-1l0,1c-1,1,-1,1,-1,1l-1,0l-1,0l1,0l1,-1l0,-1l1,0l-1,0c0,-1,0,-1,0,-1l0,-1ZM62.5,377.5l0,1l1,0l0,-1ZM57.5,400.5l-2,-1l1,-2l2,1ZM55.5,380.5l1,-1c1,0,1,0,1,0c0,0,0,1,0,1l0,1c0,0,0,1,0,1l0,1l-1,0l-1,1l-1,0l0,1l-1,0l0,-1l1,0c0,-1,0,-1,1,-1l0,-1c0,0,0,-1,0,-1l0,-1ZM56.5,380.5c0,0,-1,0,-1,0c0,0,0,1,1,1ZM50.5,391.5l-1,0l-1,1l1,0c0,0,1,0,1,0ZM119.5,396.5l0,-1l0,-1l0,-9l1,-2l0,11c0,0,0,1,0,1c0,0,0,1,-1,1ZM112.5,394.5l1,0c1,0,1,0,1,0c0,0,0,-1,0,-1l0,-2l0,-6c0,0,0,-1,0,-1c0,0,0,-1,0,-1c0,0,0,-1,0,-1c0,0,1,0,1,0c0,0,-1,0,-1,1c0,0,1,0,1,0c0,0,0,1,1,1c0,0,-1,0,-1,1l0,1l0,-1c0,0,0,1,0,1c0,0,0,1,0,2l0,2c0,1,0,1,0,1l0,2c0,0,0,1,0,1c0,1,0,1,-1,1c0,0,0,1,0,1c-1,0,-1,0,-1,0c-1,0,-1,0,-1,0l-1,0l-1,0c-1,0,-1,0,-1,0c0,0,0,-1,0,-1c0,0,-1,0,-1,0c0,0,-1,0,-1,0c0,1,0,1,0,1c-1,0,-1,0,-1,0c0,0,0,1,0,1l0,1c0,0,0,1,0,1l1,1l-1,1c0,0,-1,1,-1,1c0,0,0,-1,0,-1l-1,-1c0,-1,0,-2,0,-2c0,-1,0,-2,0,-2c0,0,-1,0,-1,0l-1,0l-2,0c0,0,-1,0,-1,-1c-1,0,-1,-1,-1,-2l-1,-8l1,-2l1,10l0,1c0,0,1,0,1,0l2,0l1,0c0,0,1,0,2,0c0,0,1,-1,1,-1c0,0,0,1,0,1l0,1c-1,0,-1,1,-1,2c0,1,0,2,0,2c0,0,0,-1,0,-1c0,0,0,-1,0,-1c0,-1,0,-1,0,-1c0,0,1,0,1,0c0,-1,0,-1,0,-1c1,-1,1,-1,1,-1c1,0,1,0,1,-1c1,0,1,0,1,0l0,1c1,0,1,0,1,0l1,0ZM108.5,392.5l-1,-1l1,-1l1,1ZM107.5,382.5l1,0c0,1,0,1,0,1l0,-1c0,0,1,0,1,0l0,-1l0,1c1,0,1,0,1,0l0,-1l0,-1l1,0l0,1l0,1c-1,1,-1,1,-1,1l-1,0c-1,1,-1,1,-1,1c0,0,-1,0,-1,0c0,-1,0,-1,0,-1l0,-1ZM112.5,379.5l-6,3c0,-1,1,-2,1,-2l5,-3ZM100.5,386.5l4,-2l0,1l-4,2ZM87.5,399.5l1,0c1,0,2,0,3,-1c0,0,1,0,1,-1c1,0,1,-1,1,-1c1,0,1,-1,1,-1c0,0,0,-1,0,-1l0,-1l-1,0l0,-1l0,-1l0,-1l1,1c0,0,0,1,0,1l1,1l0,1c0,1,0,1,-1,2c0,1,0,1,0,1c0,0,0,1,-1,1c0,0,0,1,0,1c0,0,-1,0,-1,1l-1,0l-1,0l-1,0c-1,0,-1,0,-1,0c0,0,-1,0,-1,-1ZM89.5,386.5l5,-2l-1,1l-4,2ZM155.5,396.5l0,-1l0,-1l0,-9l0,-2l1,11c0,0,0,1,0,1c0,0,-1,1,-1,1ZM147.5,394.5c1,0,1,0,1,0c1,0,1,0,1,0c1,0,1,0,1,0c0,0,0,-1,0,-1l0,-2l0,-6c-1,0,-1,-1,-1,-1c0,0,0,-1,1,-1c0,0,0,-1,0,-1l0,1c1,0,1,1,1,1l0,1l0,1l0,-1c0,0,0,1,0,1c0,0,0,1,0,2l0,2c0,1,0,1,0,1l0,2c0,0,0,1,0,1c-1,1,-1,1,-1,1c0,0,0,1,-1,1l-1,0l-1,0c-1,0,-1,0,-1,0c0,0,-1,0,-1,0c0,0,0,-1,0,-1c-1,0,-1,0,-1,0c-1,0,-1,0,-1,0c0,0,-1,1,-1,1c0,0,-1,0,-1,0l-1,0l-1,0c0,-1,0,-1,-1,-2l1,1l0,1l-1,0c0,1,0,2,0,2c0,1,-1,1,-1,2l-1,0l-1,1c0,0,-1,0,-1,0c-1,0,-1,0,-2,0l-1,0c-1,0,-1,0,-2,-1l0,-1c0,0,-1,-1,-1,-1c0,-1,1,-1,1,-2c0,0,0,-1,0,-1l1,-1l0,-1l0,1l0,1c-1,1,-1,1,-1,2c0,0,1,1,1,1c1,1,1,1,2,1l1,0c1,0,2,0,3,0c0,-1,1,-1,1,-2c1,0,1,0,1,0l0,-1l0,-3l0,-1c0,0,-1,-1,-1,-1l0,-7l1,-2l1,10c0,1,0,1,0,1l0,1l1,0l1,0c0,0,1,0,1,0c0,0,1,0,1,0c1,0,1,-1,1,-1c0,0,1,0,1,0l0,1l1,0l1,0ZM149.5,378.5l0,1l1,0l0,-1l0,-1l1,0l0,1c1,0,1,0,1,0l0,-1c0,0,0,1,0,1l0,1l0,1l-1,0c0,-1,0,-1,0,-1l-1,1l-1,0l0,-1l0,-1ZM153.5,375.5l-5,3c0,-1,0,-1,0,-2l6,-2ZM145.5,399.5l-1,-1l-1,1l-1,0l0,-2l2,1l1,-1l1,1ZM141.5,378.5c0,0,1,0,1,0c1,0,1,-1,1,-1c1,0,1,1,2,1l0,1l0,1c0,0,-1,0,-1,0c0,0,-1,0,-1,0l-1,0l-1,0l2,0c1,0,1,-1,2,-1c-1,0,-1,0,-1,0c0,0,-1,0,-1,0c0,0,-1,0,-1,0c0,0,-1,0,-1,0l0,-1ZM135.5,380.5l6,-3c-1,1,-1,1,-1,2l-6,2ZM195.5,397.5l-1,-1l-1,2l-1,-1l0,-2l2,1l1,-1l1,1ZM192.5,394.5l-1,0c0,0,-1,0,-1,0c-1,0,-1,0,-1,0c-1,0,-1,-1,-1,-1l-1,-1c0,1,0,1,-1,1c0,1,0,1,-1,1l-1,0l-1,0l-1,0l-1,0l-1,0c0,-1,0,-1,0,-1l0,-1l0,1l-1,1c0,0,-1,0,-1,0c0,0,-1,0,-1,0c0,0,0,-1,-1,-1l0,1c-1,0,-1,0,-1,0c0,0,-1,0,-1,0c-1,0,-1,0,-1,0c-1,0,-1,0,-1,0l-1,-1c-1,0,-1,0,-1,0l-1,0c0,0,0,1,0,1l-1,0c0,1,1,1,1,1c0,0,1,0,2,0l0,1c1,0,1,0,1,0l0,1c0,0,0,1,0,1c0,0,-1,0,-1,1c-1,0,-1,1,-3,1c-1,0,-2,1,-4,1c0,0,-1,0,-2,-1c0,0,-1,0,-1,-1c-1,0,-1,0,-1,-1c0,0,-1,-1,-1,-2c0,0,1,-1,1,-2c0,0,1,-1,1,-1c0,-1,0,-1,0,-1l0,1c1,0,1,0,1,0c-1,0,-1,1,-1,1c0,1,0,1,0,2c0,1,0,1,1,2c0,0,1,1,2,1c1,0,1,0,1,0c0,0,1,0,1,0c1,0,1,0,1,0c1,-1,1,-1,1,-1c0,0,1,0,1,0l1,0c1,-1,1,-1,1,-1c0,0,-1,0,-2,0c-1,0,-1,-1,-2,-1c0,0,0,-1,0,-1c0,-1,0,-1,0,-1c0,-1,1,-1,1,-1l0,-1c1,0,1,0,1,0c0,-1,0,-1,1,-1l1,0c1,0,1,0,1,0c0,0,0,1,0,1c1,0,1,0,1,0c0,1,1,1,1,1l1,0c0,-1,0,-1,1,-1l0,-1c1,0,1,0,1,0l0,-1l0,1c0,1,0,1,0,1l1,0l1,0l1,-1l0,-1l0,1c0,0,1,0,1,0c0,0,0,1,0,1c0,0,1,1,1,1l2,0l0,-1c0,0,1,0,1,0c1,0,1,0,1,0c0,-1,0,-1,0,-1c-1,0,-1,0,-1,0c0,0,-1,-1,-1,-1c1,-1,1,-1,1,-1c0,0,1,-1,1,-1c1,0,1,0,1,0c1,0,1,0,1,0c1,0,1,1,1,1l1,0c0,1,0,1,0,1c0,0,-1,0,-1,1l-1,1c1,0,1,0,1,0l1,0c0,1,1,1,1,1l1,0c1,0,1,-1,2,-1c0,0,1,0,1,0l0,-1c0,-1,-1,-1,-1,-1l1,-2l0,1c0,0,0,1,1,1l0,1l0,1c0,0,-1,0,-1,1c0,1,-1,1,-1,1c-1,0,-1,0,-2,0ZM194.5,378.5c1,0,1,0,1,0c0,-1,1,-1,1,-1c1,0,1,1,1,1c0,0,0,1,0,1l-1,0c0,1,0,1,0,1l1,0l0,2l-1,-1l-1,0l0,1c-1,0,-1,0,-1,1l-1,0l-1,0l1,-1l1,0l0,-1l1,0l0,-1l-1,0l0,-1l0,-1ZM196.5,379.5l-1,-1l0,1l1,0l0,1l0,-1ZM187.5,387.5l-1,-1l1,-2l1,1ZM183.5,376.5c0,0,1,0,1,0c1,0,1,0,1,0c1,0,2,0,2,0l0,1l0,1c0,0,-1,0,-1,0c0,0,0,1,-1,1l-1,0l-1,0l2,-1c1,0,1,0,2,-1c-1,0,-1,0,-1,0c0,0,-1,0,-1,0c0,0,-1,0,-1,0c0,0,-1,0,-1,0c0,0,0,-1,0,-1ZM175.5,386.5l-1,-1l1,-1l1,1ZM177.5,389.5l-1,-1l-1,1l-1,-1l0,-1l2,1l1,-2l1,1ZM178.5,397.5l-4,2c0,0,0,-1,0,-1l4,-2ZM262.5,396.5l0,-1l0,-1l0,-9l1,-2l0,11c0,0,0,1,0,1c0,0,0,1,-1,1ZM255.5,394.5l1,0c1,0,1,0,1,0c0,0,0,-1,0,-1l0,-2l0,-6c0,0,0,-1,0,-1c0,0,-1,0,-1,0c0,0,1,-1,1,-1c0,0,0,-1,0,-1l0,1l1,0c0,0,0,1,1,1c0,0,-1,0,-1,1l0,1l0,-1c0,0,0,1,0,1c0,0,0,1,0,2l0,2c0,1,0,1,0,1l0,2c0,0,0,1,0,1c0,1,0,1,-1,1c0,0,0,1,0,1c-1,0,-1,0,-1,0c-1,0,-1,0,-1,0l-1,0c-1,0,-1,0,-2,0l-1,-1l-1,-1l-1,0l-1,1l-1,0l-1,1l-1,0l0,1l-1,0l0,1l-1,1l0,1c-1,0,-1,0,-1,0l-1,1c-1,0,-1,0,-1,1l-1,0c-1,0,-1,0,-1,-1c0,0,-1,0,-1,0l0,-1l0,-1l0,-1l1,0l0,-1c0,0,0,-1,1,-1l0,1l-1,1c0,0,0,1,0,1c0,1,0,1,0,1c1,0,1,0,1,0c1,0,1,0,2,-1l0,-1l1,-1l1,0c0,-1,1,-1,1,-1l0,-1c1,0,1,0,1,0l1,-1c0,0,1,0,1,0l1,-1l1,0l-1,0l0,-1l-1,0l1,-2l1,0c0,0,1,0,1,0c1,0,1,0,1,0c1,0,1,0,1,1l0,1c0,1,0,1,-1,1c0,1,0,1,0,1c1,0,1,0,1,0l1,0l1,0ZM255.5,378.5l1,0c0,0,1,-1,1,-1c1,0,1,1,1,1c1,0,1,0,1,0l0,1l-1,1l-1,0c0,0,-1,0,-1,0l-1,0l2,0c0,0,1,-1,1,-1l-1,0c-1,0,-1,0,-2,0l0,-1ZM249.5,383.5l4,-2l0,1l-4,2ZM242.5,385.5c1,0,1,0,1,0c1,0,1,0,2,0c0,0,1,0,1,0c0,0,1,0,1,0c0,0,0,1,0,1c-1,0,-1,0,-1,1l-1,0c-1,0,-1,0,-1,0l-1,0l1,0c1,0,1,-1,2,-1c0,0,-1,0,-1,0l-1,0c0,0,-1,0,-1,0l-1,0c0,-1,0,-1,0,-1ZM232.5,387.5l-2,-1l1,-1l2,1ZM233.5,390.5l-1,-1l-1,1l-1,-1l1,-2l1,1l1,-1l1,1ZM222.5,403.5l-1,-1c0,0,-1,0,-1,0l0,-1c-1,0,-1,0,-1,0c0,0,0,-1,0,-1l0,-1c0,0,0,-1,0,-1l0,-1l1,-1l0,-1l1,0c0,1,0,1,-1,1c0,0,0,1,0,1l0,1c0,1,0,1,0,1c0,1,1,1,1,1l1,1l1,0c0,0,1,0,1,0c1,0,1,0,1,0c1,0,1,0,2,0c0,-1,0,-1,1,-1l0,-1l1,0l0,-1l0,-1l0,-1l-1,-1l1,-2l0,1l1,0l1,0c0,0,1,0,1,0c1,0,1,0,1,0c0,-1,0,-1,0,-1l0,-1l1,0l0,1c0,0,0,1,0,1l1,0l1,0l0,-1l0,-1l1,0l0,1l0,1l0,1c0,0,-1,0,-1,1l-1,0c-1,0,-1,0,-1,-1l-1,0c-1,1,-1,1,-1,1l-1,0l-1,0l0,1c0,0,0,1,0,1l-1,1c0,1,0,1,0,1c0,1,-1,1,-1,1c0,1,-1,1,-1,1c0,0,-1,0,-1,1c0,0,-1,0,-1,0l-1,0l-1,0c-1,0,-1,0,-1,0ZM229.5,404.5l-4,2c0,0,0,-1,0,-1l4,-2ZM295.5,393.5c-1,0,-2,0,-3,1c-1,1,-2,1,-3,1c-1,1,-2,1,-3,1l-1,0l-1,0c0,-1,-1,-1,-1,-2l0,1c0,0,-1,0,-1,0c0,1,0,1,-1,1c1,0,1,0,1,0c0,0,1,0,1,0c0,1,0,1,0,1c1,0,1,0,1,0c0,1,0,1,-1,1c0,1,0,1,0,1c-1,1,-1,1,-2,1c0,1,-1,1,-2,1c-1,1,-2,1,-3,1c0,0,-1,0,-2,0c0,-1,-1,-1,-1,-1c-1,-1,-1,-1,-1,-1c0,-1,0,-1,0,-2c0,-1,0,-1,0,-2c0,-1,1,-1,1,-2c0,0,1,0,1,0c-1,1,-1,1,-1,2c0,0,0,1,0,1l0,1c0,0,0,1,1,1c0,1,1,1,2,1c1,0,1,0,1,0c0,0,1,0,1,0c1,0,1,0,1,0c1,-1,2,-1,2,-1c1,0,1,-1,1,-1c0,0,-1,0,-1,0c-1,0,-1,-1,-1,-1c-1,0,-1,0,-1,0c0,-1,0,-1,0,-1l1,0c0,-1,0,-1,0,-1l1,0c0,0,0,-1,0,-1c0,0,1,0,1,0c0,0,1,0,1,-1c0,-1,0,-1,0,-1c0,0,0,-1,0,-1l-1,-7l1,-2l1,11c0,0,0,1,0,1c0,0,1,0,1,0l1,0c0,0,1,0,1,0c0,0,1,0,1,0c0,-1,0,-1,-1,-1c0,-1,0,-1,0,-2c0,-1,0,-1,0,-1c1,0,1,0,1,0l0,-1c0,0,1,-1,1,-1l1,0l1,0c0,0,1,0,1,0c1,0,1,0,1,1c0,0,1,0,1,0l-1,0l-1,0l-1,0l-1,0c-1,0,-1,0,-1,0c0,1,0,1,-1,1c0,0,0,1,1,1l0,1c1,0,1,1,2,1c0,0,1,0,1,0c0,-1,1,-1,1,-1l1,0l1,-1ZM286.5,383.5l5,-2l-1,1l-4,2ZM280.5,380.5l4,-2c0,1,-1,1,-1,1l-4,2ZM349.5,396.5l0,-1l0,-1l0,-9l1,-2l0,11c0,0,0,1,0,1c0,0,0,1,-1,1ZM337.5,394.5l0,1c0,0,-1,1,-1,1l-1,0l-1,0l-1,0l-1,0l-1,-1l-1,0c-1,0,-1,1,-1,1c-1,0,-1,0,-1,0l-1,0l-1,0c0,0,0,1,0,1c0,0,0,1,-1,1c0,1,0,1,0,1c-1,1,-1,1,-1,1c-1,1,-1,1,-1,1l-1,0c-1,0,-1,0,-1,0l-1,0c0,0,-1,0,-1,0c0,0,-1,0,-1,0c0,-1,0,-1,0,-1c0,0,1,0,1,0l0,1c1,0,1,-1,2,-1c0,0,1,0,1,0c0,-1,1,-1,1,-1c0,0,1,0,1,-1l0,-1c1,0,1,0,1,0c0,0,0,-1,0,-1c0,0,-1,0,-1,0l-1,0c0,-1,-1,-1,-1,-1c0,-1,0,-1,0,-1c0,-1,0,-1,0,-1c1,0,1,-1,1,-1c0,-1,1,-1,1,-1c1,0,1,0,1,0c0,0,0,1,0,1c1,0,1,0,1,1c0,1,0,1,0,1c1,0,1,0,1,0c1,0,1,0,1,0l1,0l1,0l1,-1c0,0,1,0,1,0l0,1c0,0,1,0,1,0l1,0l1,0c0,0,1,0,1,0c1,0,1,0,1,0c0,-1,1,-1,1,-2l0,1l0,1l1,0c1,0,1,0,2,0c1,-1,1,-1,1,-1l0,-1l0,1l1,0c0,0,0,1,0,1l1,0c1,0,1,0,1,0l-1,-1l1,-1l0,1l0,1l0,1l0,1c0,0,-1,0,-1,0l-1,0l-1,-1l-1,0c0,1,0,1,-1,1c0,0,-1,0,-1,0c-1,0,-1,0,-1,0c0,0,0,-1,0,-1c0,0,-1,0,-1,-1ZM338.5,385.5c1,0,1,0,1,0c1,0,1,0,2,0c0,0,1,0,1,0c0,0,1,0,1,0c0,0,0,1,0,1c-1,0,-1,0,-1,1l-1,0l-1,0l-1,0l1,0c1,0,1,-1,2,-1c0,0,-1,0,-1,0c0,0,-1,0,-1,0c0,0,-1,0,-1,0l-1,0c0,-1,0,-1,0,-1ZM332.5,391.5l-2,-1l0,1l-2,-1l1,-1l1,1l1,-2l2,1ZM329.5,383.5l4,-2l-1,1l-4,2ZM324.5,393.5c0,0,-1,0,-1,0c0,0,0,1,0,1c0,0,1,0,1,0l1,0c0,0,0,-1,0,-1c0,0,-1,0,-1,0ZM317.5,390.5c0,0,0,-1,0,-1c0,0,-1,0,-1,0l-1,0c0,0,-1,1,-2,1c0,1,-1,2,-1,2c0,0,1,1,1,1c0,0,1,0,1,0l1,1c1,0,1,0,2,0c0,0,0,1,0,1l0,1l-1,0c0,1,0,1,-1,1c0,1,-1,1,-1,1c-1,1,-2,1,-3,1c0,0,-1,0,-2,0l-1,0c0,0,-1,0,-1,0c-1,0,-1,0,-2,-1c0,0,-1,0,-1,-1c0,0,0,-1,0,-1c0,0,0,-1,0,-1c0,0,0,-1,0,-2c0,0,1,-1,1,-1c0,-1,0,-1,0,-1l1,-1l0,1c0,1,0,1,-1,1c0,0,0,1,0,1c0,1,0,1,0,1c0,1,0,1,0,1l0,1l1,1c0,0,2,1,3,1c1,0,2,-1,3,-1l2,0l0,-1c0,0,1,0,1,0c0,0,1,0,1,-1l-2,0c-1,0,-2,0,-2,-1c-1,0,-1,0,-1,-1l0,-1l1,-1c0,0,0,-1,0,-1c1,0,1,0,1,0l0,-1c0,0,1,0,1,-1c0,0,1,0,1,0c1,-1,1,-1,2,-1c1,1,1,1,1,1c0,0,0,1,0,1c0,0,-1,0,-1,1ZM324.5,385.5c0,2,0,2,0,3l0,-1l0,-1c0,0,0,-1,0,-1l-1,-1l0,-1l1,0l0,1l0,1ZM370.5,385.5l-1,-1l1,-1l1,1ZM372.5,387.5l-1,-1l-1,2l-1,-1l0,-2l2,1l1,-1l1,1ZM370.5,394.5l1,0c1,0,1,0,1,0c0,0,0,-1,0,-1l0,-1l-1,-1l1,-1l1,1l0,1l0,1c0,0,0,1,0,1c0,1,-1,1,-1,1c0,0,0,1,-1,1c-1,0,-1,0,-1,0l-1,0l-1,0l-2,0c-1,0,-1,0,-1,0c0,0,-1,-1,-1,-1l0,1l0,1c0,1,0,1,-1,1l-1,-1c0,0,0,-1,0,-1l0,-1c-1,0,-1,0,-2,0l0,1c0,0,-1,0,-1,0c0,1,0,1,0,1l0,1c0,1,0,1,0,1l1,2l0,2c0,1,0,1,0,1l0,1l0,1l0,-1l0,-1l-1,-1l0,-3l0,-1l0,-1l0,-1l0,-1c0,-1,0,-1,1,-2l1,-1l1,-1c1,1,2,1,3,2l1,0l1,0l1,0ZM370.5,377.5c0,-1,0,-1,0,-1c1,0,1,-1,1,-1c1,1,1,1,1,1l0,1l0,1l0,1l0,1l-1,-1l0,1l-1,0c0,1,-1,1,-1,1l-1,0l1,-1l1,0l0,-1c0,-1,0,-1,0,-1l0,-1ZM371.5,377.5c-1,0,-1,0,-1,0l1,0l0,1l0,-1ZM360.5,385.5c0,1,0,1,0,1c1,0,1,0,1,0c0,-1,0,-1,0,-1l0,-1l1,0l0,1c0,0,1,0,1,-1l0,-1l0,1l0,1c0,1,0,1,0,1l-1,0l-1,0c0,1,-1,1,-1,1c0,-1,0,-1,0,-1l0,-1ZM364.5,382.5l-6,3c1,-1,1,-2,1,-2l6,-3ZM405.5,396.5l0,-1l0,-1l-1,-9l1,-2l1,11c0,0,-1,1,-1,1c0,0,0,1,0,1ZM404.5,379.5l4,-2l0,1c0,0,-1,0,-1,0l-4,2ZM401.5,399.5l-2,-1l0,1l-2,0l1,-2l1,1l1,-1l2,1ZM398.5,396.5l-1,0l-1,0c-1,0,-2,0,-2,-1c-1,0,-1,-1,-1,-2l-1,-8l1,-2l1,10l0,1c0,0,1,0,2,0l1,0l1,0c0,0,1,0,1,0c1,0,1,0,1,0c1,0,1,0,1,0c0,0,0,-1,0,-1c0,0,-1,0,-1,-1l0,-1l1,-1l0,1c0,0,0,1,0,1c0,1,0,1,0,1c0,0,0,1,0,1c0,1,0,1,0,1c-1,0,-1,1,-2,1c0,0,-1,0,-1,0ZM398.5,384.5l0,1c0,0,1,0,1,-1l0,-1l0,1l1,0l1,-1l0,1l0,1c0,0,-1,0,-1,0c-1,0,-1,0,-1,0l0,1c-1,0,-1,0,-1,0l-1,0c0,0,0,-1,0,-1l0,-1ZM402.5,381.5l-6,3c1,-1,1,-2,1,-2l5,-2ZM389.5,395.5l-1,0l-1,-1c-1,0,-1,0,-1,-1l-1,1c0,0,0,1,-1,1c0,1,-1,1,-1,2c0,0,-1,0,-2,1c-1,0,-3,0,-4,0l4,-2c2,-1,3,-2,4,-3l1,-2c0,0,1,-1,1,-1l1,0l1,0c0,0,0,1,0,1c0,0,0,1,1,1l0,1c0,0,0,1,-1,1l0,1ZM388.5,393.5l0,-1c0,-1,0,-1,-1,-1c0,0,0,1,0,1l1,1ZM380.5,406.5l5,-2l0,1l-5,3ZM382.5,403.5l5,-2c0,0,0,1,-1,1l-4,2ZM217.5,388.5l-1,-1l0,1l-1,0l0,-1l1,0l1,0ZM217.5,392.5c0,0,-1,1,-1,1c0,0,-1,0,-1,0l-1,0c-1,0,-1,0,-1,0c0,-1,0,-1,0,-1c0,1,-1,1,-1,1l-1,0l-1,0c-1,0,-1,0,-1,0c-1,0,-1,0,-2,0c0,0,-1,0,-1,0c0,-1,0,-1,-1,-1l0,-1l1,0c0,-1,0,-1,0,-1l0,1l0,1l1,0l1,0c0,0,1,0,1,0c1,0,1,0,1,0c0,0,1,0,1,0l1,0c0,-1,0,-1,0,-1l0,-1c0,0,1,-1,1,-1c0,0,1,0,1,0l0,1l0,1l0,1l1,0c0,0,1,0,1,0c0,0,1,0,1,-1c-1,0,-1,0,-1,0c0,0,-1,0,-1,0c0,0,0,-1,0,-1c0,-1,0,-1,1,-1c0,0,0,-1,0,-1c1,0,1,0,1,1c0,0,0,1,0,1c1,0,1,1,1,1l-1,1ZM216.5,390.5c0,0,1,0,1,0l-1,0c0,0,0,-1,0,-1c0,0,0,1,0,1ZM212.5,388.5l0,-1l1,1ZM213.5,390.5c-1,0,-1,0,-1,1c0,0,1,0,1,0c0,0,1,0,1,0c0,0,0,-1,-1,-1ZM48.5,383.5l0,-1c-1,-1,0,-2,0,-2c0,-1,0,-1,0,-1c0,0,0,-1,0,-1l1,0c1,0,1,0,1,0l-1,1l0,1l-1,0l0,1c0,0,0,1,0,1c0,0,1,0,1,0l1,0c0,1,0,1,0,1c0,0,0,1,0,1c0,0,-1,0,-1,0c0,0,-1,0,-1,-1ZM99.5,446.5l-2,-1l1,-1l2,1ZM96.5,442.5l-1,0l-1,0c0,0,-1,0,-2,0c0,-1,0,-1,0,-2l-1,-9l1,-2l1,10l0,1c0,1,1,1,1,1l1,0l1,0c1,0,1,0,2,0c0,-1,1,-1,1,-1l0,-1c0,0,0,-1,0,-1l-1,0l1,-2l0,1l1,1l0,1l0,1c0,0,0,1,-1,1c0,1,-1,1,-1,1c-1,0,-1,0,-2,0ZM98.5,449.5l-4,1c0,0,1,-1,1,-1l3,-1ZM90.5,427.5l4,-3l0,1c0,0,0,1,0,1l-4,2ZM80.5,442.5c1,-1,2,-1,3,-2c0,0,1,0,2,0l0,-1l0,-2l1,0l1,1c1,0,1,0,2,1l-1,2c-1,0,-1,0,-2,0c-1,0,-1,0,-1,0c-1,0,-1,0,-2,1c0,0,-1,0,-1,0l-1,1l-1,1l-1,1l-1,1l0,1l-1,0c0,1,0,1,-1,1l-1,0c-1,0,-1,0,-1,0c-1,-1,-1,-1,-1,-1l0,-1c0,-1,0,-1,0,-1l0,-1l1,0c0,0,0,-1,0,-1c1,0,1,0,1,0l0,-1c0,0,0,1,0,1c0,1,-1,1,-1,1l0,1l0,1c0,0,1,1,1,1c0,0,1,-1,2,-1c0,0,0,-1,0,-1l1,-1l1,-1l1,-1ZM82.5,432.5c0,-1,0,-1,1,-1c0,0,1,0,1,0c1,0,1,0,1,0c1,0,1,1,1,1c0,0,0,1,-1,1l0,1l-1,0c0,0,-1,0,-1,0c-1,0,-1,0,-1,0l2,-1c0,0,1,0,1,0c0,-1,0,-1,-1,-1c-1,0,-1,0,-2,0c0,0,0,1,0,1l0,-1ZM79.5,450.5l-4,2c0,0,1,-1,1,-1l4,-2ZM70.5,443.5c0,0,0,-1,-1,-1c0,0,-1,-1,-1,-2l1,-1l0,-1l1,-2c0,0,1,-1,1,-1c0,0,1,1,1,1c1,1,1,1,1,2l0,1c0,2,0,3,-1,3c-1,1,-1,1,-2,1ZM71.5,438.5l-1,0c-1,0,-1,1,-1,1c0,1,0,1,0,1c0,0,1,0,1,1l1,0l1,-1c0,0,1,0,1,0c0,-1,-1,-1,-1,-1c-1,-1,-1,-1,-1,-1ZM166.5,442.5l-1,0l-1,0l0,-1l-1,0l-1,0c0,1,0,1,0,1l-1,0l-1,0l-1,0l-1,0c0,0,0,-1,0,-1l0,-1l-1,1l0,1c-1,0,-1,0,-2,0c0,0,-1,0,-1,-1l0,1c-1,0,-1,0,-2,0c-1,0,-2,0,-2,-1l0,1c-1,0,-2,0,-2,0l-1,0l-2,0c-1,0,-2,0,-2,0c-1,0,-1,-1,-1,-1l0,-1l-1,0l-5,2c0,0,-1,0,-1,0c-1,0,-1,0,-1,0l-1,0l-1,0l0,1l0,1c0,0,-1,1,-1,1c0,1,0,1,0,1c-1,1,-1,1,-1,1c-1,0,-1,1,-1,1c-1,0,-1,0,-1,0c0,0,-1,0,-1,0l-1,0l-1,0c0,0,-1,-1,-1,-1c0,0,1,0,1,0l1,0c0,0,1,0,1,0c0,0,1,0,1,-1c1,0,1,0,1,0c0,-1,0,-1,1,-1c0,0,0,-1,0,-1c1,0,1,-1,1,-1c0,-1,0,-1,0,-1c-1,-1,-1,-1,-1,-1c0,0,0,-1,0,-1c1,0,1,0,1,0l0,-1l0,1l1,0c0,1,0,1,0,1l1,0c1,0,1,0,1,0c1,0,1,0,1,-1c1,0,1,0,2,0l1,0l0,-1l1,0l-1,-1c-1,0,-2,0,-3,0l-1,0l0,-1c1,-1,1,-1,2,-1l1,0c0,0,1,1,1,1c1,0,2,1,3,1c1,0,2,0,2,0c1,0,1,0,2,0l0,2l-1,0l-1,0c1,1,1,1,1,1l1,0l2,0l1,0l1,0l0,-1c1,0,1,0,2,-1c0,0,0,1,0,1c0,0,0,1,1,1c0,0,1,0,1,-1c1,0,1,0,1,-1l1,0l0,1c0,0,1,0,1,0l1,0l0,-1c0,0,1,0,1,0c0,1,1,2,2,2l1,0c0,0,1,0,1,0l0,-1l1,-1c0,0,1,-1,1,-1l0,-1c0,0,1,0,1,0c0,0,1,0,1,1l0,1l1,1c0,1,0,1,0,1l-1,0c0,0,0,1,0,1ZM164.5,440.5l1,0c0,-1,0,-1,0,-1c-1,0,-1,0,-1,0c0,0,0,1,0,1ZM163.5,427.5c0,-1,1,-1,1,-1c0,-1,0,-1,1,-1c0,1,0,1,0,1c0,1,0,1,0,1l0,1l1,0l-1,2l-1,-1l0,1c-1,0,-1,1,-1,1l-1,0l-1,0l1,-1c1,0,1,0,1,0l0,-1l1,0l-1,-1l0,-1ZM164.5,427.5l0,1l1,0l0,-1l-1,0ZM153.5,429.5l4,-2l0,1l-4,2ZM139.5,434.5l-1,0l0,-2l2,1ZM137.5,425.5l0,1l1,0c0,0,0,-1,0,-1l0,-1l0,1l1,0l1,-1l0,-1l0,1l0,1l0,1l-1,0l-1,0l0,1c0,0,-1,0,-1,0l-1,0l0,-1l0,-1l1,0ZM141.5,422.5l-6,3c1,-1,1,-2,1,-2l5,-2ZM129.5,437.5c0,-1,0,-2,0,-2c0,-1,0,-1,0,-2l0,-1c1,0,1,1,1,1c0,1,0,1,0,1l0,1c0,1,0,1,0,1c0,1,0,1,-1,1ZM116.5,435.5l-1,2l-1,-1l-1,1l-1,-1l1,-1l1,1l1,-2ZM122.5,441.5c-1,0,-1,0,-2,1c-1,0,-2,0,-3,1c-1,0,-2,0,-4,0c-1,0,-2,0,-3,0c-1,-1,-2,-1,-3,-1c0,-1,0,-1,0,-1c0,-1,0,-1,-1,-1c0,0,0,-1,0,-1c0,-1,1,-1,1,-1c0,-1,0,-1,1,-2l0,1c-1,1,-1,1,-1,1c0,1,0,1,1,2c0,0,1,0,1,1c1,0,1,0,1,0l1,0l1,0l2,0c1,0,1,0,2,0l1,0c0,0,1,0,1,0l0,-1l1,0c1,0,1,0,2,0c0,-1,1,-1,1,-1l0,-1c0,0,-1,-1,-1,-1l0,-1c1,0,1,-1,1,-1c0,0,0,1,1,1c0,1,0,1,0,1c0,0,0,1,0,1c0,1,0,1,0,1c0,1,-1,1,-1,2ZM108.5,447.5l0,1l-1,0l-1,0l0,1l0,3c0,1,0,1,0,1l-1,0l0,-1l0,-1l0,-1l0,-1c0,-1,0,-1,0,-1c0,-1,0,-1,0,-1l1,0l0,-1l-1,1l0,-1c1,-1,1,-1,1,-1c1,0,1,0,1,1c1,0,1,1,1,1ZM227.5,438.5c0,0,0,1,0,1c0,0,0,1,1,1c0,0,0,-1,0,-1c0,0,0,-1,-1,-1ZM227.5,446.5l0,1c0,0,-1,0,-1,0c0,0,-1,0,-1,0l-1,0c0,0,-1,0,-1,0c-1,0,-1,0,-1,-1l1,0c1,0,1,0,1,0c0,0,1,0,1,0c0,0,1,0,1,0c0,-1,1,-1,1,-1c0,-1,1,-1,1,-1c0,0,0,-1,0,-1c1,-1,1,-1,1,-2l-1,0c0,1,0,1,-1,1c0,0,0,-1,0,-1c-1,0,-1,0,-1,0c0,-1,0,-1,0,-1c0,-1,0,-1,0,-1c0,-1,0,-1,1,-2c0,-1,1,-1,1,-1l1,1c0,1,0,1,0,1c1,1,1,1,1,1c0,1,0,1,0,2l0,1c0,0,-1,1,-1,2c0,1,0,1,-1,1c0,1,0,1,-1,1ZM225.5,433.5l4,-2c-1,0,-1,1,-1,1l-4,2ZM221.5,442.5l0,-1l0,-1l-1,-8l1,-3l1,11l0,1c0,0,-1,0,-1,0c0,1,0,1,0,1ZM213.5,441.5c0,0,1,0,1,0c0,0,1,0,1,0c0,-1,0,-1,0,-1c1,0,1,0,1,-1l0,-2l-1,-6l0,-1l0,-1c0,0,1,0,1,0c0,0,0,1,0,1c0,0,1,0,1,0c0,1,0,1,0,1c0,0,-1,1,-1,1c0,0,0,1,0,2c0,0,0,1,0,3c1,0,1,0,1,1l0,1l-1,1c0,0,0,1,0,1c0,0,0,1,0,1c-1,0,-1,0,-1,0l-1,0l-1,0l-1,0c0,0,-1,0,-1,0c0,0,-1,0,-1,0l0,-1l-1,0l0,1c-1,0,-1,0,-1,0c-1,0,-1,0,-2,0l-2,0c-1,0,-2,0,-3,0c0,0,0,-1,0,-1l0,-1l-1,0c0,0,-1,0,-1,0l-4,2c-1,0,-1,0,-1,0c-1,0,-1,0,-2,0l-1,0l-1,0c0,1,0,1,0,2c-1,0,-1,0,-1,1c0,0,0,1,-1,1l-1,1c-1,0,-1,1,-1,1l-1,0l-1,0c0,0,-1,0,-2,-1l1,0c1,0,1,0,2,0c0,0,0,-1,1,-1l1,-1c1,-1,1,-1,1,-1c0,0,0,-1,1,-1l0,-1c0,0,-1,0,-1,0c0,0,-1,0,-1,0c-1,0,-1,0,-1,-1c0,0,0,-1,0,-1c0,0,0,-1,0,-1c1,0,1,-1,1,-1c1,0,1,0,1,0l1,0c0,1,0,1,0,1c1,0,1,0,1,1l0,1c0,0,1,0,1,0c0,0,1,0,1,0c1,0,1,0,1,0c0,0,1,0,1,-1c0,0,1,0,2,0l1,0l0,-1l1,0l-1,0l-1,-1c-1,0,-1,0,-2,0c0,0,-1,0,-1,0l-1,0l0,-1c1,0,1,0,1,0c1,-1,1,-1,2,-1l1,0c0,0,0,1,1,1c1,0,2,1,3,1c1,0,1,0,2,0c0,0,1,0,2,0l-1,2l-1,0c0,1,0,1,0,1c1,0,1,0,1,0l1,0l1,0l1,0c1,0,1,0,1,0c1,0,1,-1,2,-1c1,0,1,0,1,0l1,0c0,1,1,1,1,1l1,0ZM209.5,438.5l-1,-1l1,-1l1,1ZM210.5,429.5l0,1l1,0c0,0,0,-1,0,-1l0,-1l1,0l0,1c1,0,1,0,1,-1l0,-1l0,1l0,1c0,1,0,1,0,1l-1,0l-1,0c0,1,0,1,-1,1c0,-1,0,-1,0,-1l0,-1ZM211.5,424.5c1,-1,1,-1,1,-1c0,-1,1,-1,1,-1c0,1,1,1,1,1c0,1,0,1,0,1l-1,0l0,1l0,1l-1,1c-1,0,-1,1,-1,1c-1,0,-1,0,-1,0c-1,0,-1,0,-1,0c1,-1,2,-1,3,-2l-1,-1l0,-1ZM213.5,424.5l-1,0l0,1l1,0l0,-1ZM197.5,446.5l-2,-1l1,-1l2,1ZM196.5,423.5c0,0,1,0,1,-1l1,0c0,0,0,1,0,1l0,1c0,0,0,1,0,1l1,0l-1,1l-1,0l-1,1l-1,0l0,1l-1,0l0,-1l1,0c0,0,1,-1,1,-1l1,-1l-1,0c0,0,0,-1,0,-1l0,-1ZM197.5,423.5c0,0,0,1,0,1l1,0l-1,0ZM188.5,439.5c0,0,-1,0,-1,0c0,1,0,1,0,1c0,0,0,1,1,1l1,0c0,0,0,-1,0,-1c-1,0,-1,0,-1,0c0,-1,0,-1,0,-1ZM181.5,440.5l-2,0l-1,0c-1,0,-2,1,-2,1l0,1c0,0,0,1,0,2c1,2,1,3,1,4c0,1,0,2,0,2l0,1c0,0,0,-1,-1,-3c0,-1,0,-3,0,-3c-1,-1,-1,-2,-1,-2l0,-1c0,-1,1,-1,1,-2l0,-1c1,0,1,0,2,-1c0,0,1,0,1,0c0,0,-1,-1,-1,-1l0,1c-1,0,-1,0,-1,0c0,0,0,-1,0,-1c1,-1,1,-1,1,-1c0,0,1,0,1,0l1,0l1,1l0,1l1,0l0,1l-1,1ZM175.5,429.5l5,-2l-1,1l-4,2ZM278.5,438.5c0,0,0,1,0,1l-1,0c1,0,1,1,1,1c0,0,0,-1,1,-1c0,0,-1,-1,-1,-1ZM278.5,446.5l0,1c-1,0,-1,0,-1,0c-1,0,-1,0,-2,0c-1,0,-1,0,-2,0l-1,-1c0,0,1,0,1,0c1,0,1,0,1,0c0,0,1,0,1,0c1,0,1,0,1,0l1,0c0,-1,0,-1,1,-1c0,-1,0,-1,0,-1c1,0,1,-1,1,-1c0,-1,1,-1,1,-2c-1,0,-1,0,-1,0c0,1,-1,1,-1,1c0,0,0,-1,-1,-1c0,-1,-1,-1,-1,-1c0,-1,1,-1,1,-1c0,-1,0,-1,0,-2c0,0,1,0,1,0c0,-1,0,-1,1,-1l0,1c0,0,1,0,1,0c0,1,0,1,0,1c0,1,0,1,0,1c0,1,0,1,0,2l0,1c0,0,0,1,0,2c-1,1,-1,1,-1,1c0,1,0,1,-1,1ZM275.5,433.5l5,-2l-1,0c0,0,0,1,0,1l-4,2ZM271.5,442.5l0,-1l0,-1l0,-8l1,-3l0,11l0,1c0,1,0,1,-1,1ZM264.5,441.5l1,0l1,0c0,-1,0,-1,0,-1l0,-1l0,-2l0,-6l0,-1l0,-1c1,0,1,0,1,0c0,0,0,1,0,1l1,0c0,1,-1,1,-1,1c0,0,0,1,0,1c0,0,0,1,0,2c0,0,0,1,0,3l0,1l0,1l0,1c0,0,0,1,0,1c-1,0,-1,1,-1,1c0,0,-1,0,-1,0c0,0,-1,0,-1,0l-1,0l-1,0c-1,0,-2,0,-2,0c-1,0,-1,0,-1,0c-1,0,-1,0,-2,0c-1,0,-1,0,-2,0l-1,0l-1,0l-1,0l-1,-1c0,1,0,2,-1,2c0,0,-1,0,-1,0l-1,-1l-1,-1l-1,1c-1,0,-1,0,-1,0l-1,0l-1,0l0,1c0,0,-1,0,-1,0l0,1c0,0,0,1,0,1c-1,1,-1,1,-1,1c0,1,0,1,-1,1c0,0,0,1,-1,1l-1,0l-1,0c0,0,-1,0,-2,0c0,0,0,-1,0,-1l1,0c1,0,1,0,2,0l1,-1l1,0c0,-1,0,-1,0,-1c0,0,1,-1,1,-1c0,0,0,-1,1,-1c0,-1,0,-1,0,-1l-1,0c0,-1,0,-1,0,-1c0,0,0,-1,0,-1l0,-1l1,1c0,1,1,1,1,1l1,0l1,0l1,-1l1,-1c1,-1,2,-2,2,-2l1,1l1,1l0,1l1,0c0,0,0,1,1,1l1,0l1,0c0,0,1,0,1,0l1,0c0,0,0,-1,0,-1l0,-1c0,0,0,-1,0,-1c0,-1,1,-1,1,-1c0,-1,0,-1,0,-1c1,-1,2,-1,2,-1c1,0,1,0,1,1c0,0,0,1,1,1l0,1c-1,1,-1,1,-1,2l-1,1c1,0,1,0,1,0l1,0l1,0ZM264.5,424.5l1,0c0,0,1,0,1,0c1,0,1,0,2,0l0,1c0,0,0,1,-1,1c0,1,0,1,-1,1c0,0,-1,0,-1,0c-1,0,-1,0,-1,0l2,-1c0,0,1,0,1,-1c-1,0,-1,0,-1,0c-1,0,-1,0,-2,0l0,1l0,-1l0,-1ZM260.5,434.5l-1,-1l-1,1l-2,-1l1,-1l2,1l1,-1l1,1ZM259.5,437.5l-1,0c0,1,0,1,0,1c0,0,0,1,0,1c0,0,1,0,1,1c0,-1,1,-1,1,-1c0,0,1,0,1,0l0,-1l-1,0c0,-1,0,-1,-1,-1ZM255.5,426.5l5,-2l-1,1l-4,2ZM251.5,441.5l-1,-1c0,0,-1,-1,-1,-1l-1,0l0,1l1,0l1,1ZM247.5,429.5l4,-2l-1,1l-4,2ZM238.5,429.5l4,-2l0,1l-1,0l-4,2ZM347.5,438.5c0,0,0,1,-1,1c0,0,1,1,1,1c0,0,0,-1,0,-1c0,0,1,0,1,0c0,0,-1,0,-1,0c0,0,0,-1,0,-1ZM347.5,446.5l-1,1c-1,0,-1,0,-2,0c-1,0,-1,0,-2,0c0,0,-1,0,-1,-1c0,0,1,0,1,0l1,0l1,0l1,0c1,-1,1,-1,1,-1c1,-1,1,-1,1,-1c0,0,1,-1,1,-1c0,-1,0,-1,0,-2c0,0,-1,0,-1,0c0,1,0,1,0,1l-1,0c0,0,0,-1,0,-1c-1,0,-1,0,-1,0c0,-1,0,-1,0,-1c0,-1,0,-1,0,-1c1,-1,1,-1,1,-2l1,0c0,-1,0,-1,0,-1c1,0,1,0,1,1l1,0c0,1,0,1,0,1c0,1,0,1,0,1c0,1,0,1,0,2l0,1c0,0,0,1,-1,2c0,1,0,1,0,1c0,1,-1,1,-1,1ZM340.5,442.5l0,-1l0,-1l0,-8l0,-3l1,11l0,1c0,1,-1,1,-1,1ZM332.5,441.5c1,0,1,0,1,0c1,0,1,0,1,0c1,-1,1,-1,1,-1l0,-1l0,-2l0,-6c-1,0,-1,0,-1,0l0,-1l1,-1c0,0,0,1,0,1c1,0,1,0,1,0c0,1,0,1,0,1c0,0,0,1,0,1c0,0,0,1,0,2c0,0,0,1,0,3l0,1l0,1l0,1c0,0,0,1,0,1c0,0,-1,0,-1,0c0,0,0,1,0,1l-1,0c-1,0,-1,0,-1,0l-1,0l-1,0c-1,0,-1,-1,-1,-1l0,-1l0,1c0,0,-1,0,-1,1c0,0,-1,0,-1,0c-1,0,-1,0,-2,-1l0,1c-1,0,-1,0,-2,0c-1,0,-1,0,-2,-1l0,1c-1,0,-1,0,-2,0l-1,0c-1,0,-1,0,-2,0l-1,-1c0,1,0,2,-1,2l-1,0l-1,-1l-1,-1l-1,1c-1,0,-1,0,-1,0l-1,0l-1,0l-1,0l-1,0l0,-1l0,-1l-1,1c0,1,0,1,0,1l-1,0l-1,0l-1,0l0,-1l-1,1c-1,0,-1,0,-1,0l-1,0l-1,2c0,0,0,1,0,1l0,1c0,0,0,1,-1,1l0,1c-1,0,-1,0,-1,0c0,1,-1,1,-1,1c-1,0,-1,0,-2,0l-1,0l-1,0l-1,0c-1,0,-1,0,-1,-1c0,0,-1,0,-1,0c0,0,0,-1,0,-1c0,0,0,-1,0,-1c0,-1,0,-1,0,-1l0,-1l0,-1l0,-1l1,0l0,1l0,1l-1,0l0,1c0,0,1,1,1,1l1,1c1,0,1,0,1,0c1,0,1,0,2,0c0,0,1,0,1,0l1,0c1,0,1,0,1,0c0,-1,1,-1,1,-1l0,-1l1,0l0,-1c0,-1,0,-1,-1,-1c0,-1,0,-1,0,-1l0,-1l0,-2c0,0,0,1,1,1c0,1,0,1,0,1c1,0,1,0,1,0c0,0,1,0,1,0l1,0c0,-1,0,-1,0,-1l1,0c0,0,0,-1,0,-1l1,0l0,1l0,1c1,0,1,0,1,0l0,-1c0,0,1,0,1,0l0,-1l1,0l0,1c1,0,1,0,1,1l1,0l1,0l1,0l1,0l0,-1l1,-1c1,-1,2,-2,2,-2l1,1l1,1l1,1c0,0,1,1,1,1l1,0l1,0l1,0l0,-1c1,0,1,0,2,-1c0,0,0,1,0,1c0,0,1,1,1,1c1,0,1,0,2,-1l1,-1l0,1c1,0,1,0,1,0c1,0,1,0,1,0l1,-1c1,1,1,2,2,2ZM325.5,434.5l-1,-1l1,-1l1,1ZM327.5,437.5l-2,-1l0,1l-2,-1l1,-1l2,1l0,-2l2,1ZM345.5,428.5l0,1l1,0l0,-1c0,0,1,1,1,1c0,0,0,-1,0,-1l1,-1l0,1l0,1c0,0,0,1,-1,1c0,0,-1,0,-1,0c0,0,-1,1,-1,1c0,0,0,-1,-1,-1l0,-1l0,-1ZM349.5,425.5l-6,3c1,-1,1,-1,1,-1l5,-3ZM324.5,425.5l0,1l1,0c0,0,0,-1,0,-1l0,-1l0,1c0,0,1,0,1,0l0,-1l1,0l0,-1l0,1l0,1l0,1l-1,0c0,0,-1,0,-1,0l0,1c0,0,-1,0,-1,0l-1,0l0,-1l0,-1ZM328.5,422.5l-6,3c1,-1,1,-2,1,-2l5,-2ZM316.5,441.5l-1,-1c0,0,-1,-1,-1,-1l-1,0l0,1l1,0l1,1ZM312.5,427.5c0,0,1,0,1,0c1,0,1,0,1,0c1,0,1,0,2,0c0,0,0,1,0,1l0,1c0,0,-1,0,-1,0c0,0,-1,0,-1,0c0,0,0,1,-1,1c0,0,0,-1,-1,-1l2,0c1,0,1,-1,2,-1c-1,0,-1,0,-1,0c0,0,-1,0,-1,0c0,0,-1,0,-1,0c0,0,-1,0,-1,0c0,-1,0,-1,0,-1ZM294.5,433.5l4,-2l-1,0c0,0,0,1,0,1l-4,2ZM402.5,440.5l-2,0c0,0,-1,0,-1,0l-1,0c0,0,-1,0,-1,0l-1,1l-1,0l-1,1l-1,0c-1,0,-2,0,-2,0l-1,0c-1,0,-1,0,-1,0c0,0,-1,0,-1,0l-1,-1c-1,0,-1,0,-1,1c0,0,-1,0,-1,0c0,0,-1,0,-1,0l-1,0c-1,0,-1,0,-1,0l-1,-1c0,0,0,1,-1,1l-1,0l-1,0c-1,0,-1,0,-1,0l-1,0l0,-1c0,0,-1,0,-1,0c-1,0,-1,0,-1,1c0,0,-1,0,-1,0l-1,0l-1,0c-1,0,-2,0,-2,0c-1,-1,-1,-1,-1,-2l-1,-9l1,-2l1,10l0,1c1,1,1,1,2,1l1,0c0,0,1,0,1,0c0,0,1,-1,1,-1l1,0l1,0l1,0c0,1,0,1,1,1c1,0,1,0,2,0c0,0,1,-1,1,-1c0,-1,0,-1,0,-1c0,-1,0,-1,0,-1c0,0,0,-1,0,-1c0,0,1,-1,1,-1l0,2c0,1,0,1,0,1c0,0,0,1,0,1c0,0,1,0,1,1l1,0c0,0,1,0,1,0c0,0,1,-1,1,-1l1,0l1,0c1,1,1,1,2,1l1,0l1,0c0,0,1,-1,1,-1c1,0,1,0,2,0l1,-1l1,0l-1,0l-1,-1l-1,0l-1,0l-1,0l-1,0c1,0,1,-1,1,-1c0,0,1,-1,1,-1l1,0c0,0,1,0,1,0l1,1l2,0l1,1l1,0l1,0l1,0l1,0ZM394.5,429.5l4,-2l-1,1l-4,2ZM386.5,434.5l-2,-1l1,-1l2,1ZM388.5,436.5l-2,0l-1,1l-1,-1l1,-2l1,1l1,-1l1,1ZM389.5,446.5l-5,2c1,-1,1,-1,1,-1l4,-2ZM383.5,447.5l-2,-1l0,1l-2,-1l1,-1l2,1l0,-2l2,1ZM374.5,434.5l-1,-1l0,-1l2,1ZM376.5,436.5l-2,0l0,1l-2,-1l1,-2l1,1l1,-1l2,1ZM373.5,427.5l5,-3c0,1,0,1,-1,1l-4,3ZM375.5,423.5l5,-2c0,1,-1,1,-1,1l-5,3ZM69.5,452.5c0,-1,0,-1,0,-2c0,0,0,-1,0,-1l0,-1l1,1l0,1c0,1,0,1,0,1l0,1c0,0,-1,0,-1,0ZM58.5,440.5c0,-1,0,-1,0,-1c-1,0,-1,-1,-1,-1c-1,0,-1,1,-2,1c0,1,0,1,-1,1l0,-1c0,-1,0,-1,0,-1l0,-1l0,-1c0,0,0,-1,0,-1l1,0l-1,0l0,-1c0,0,0,1,-1,1c0,0,1,1,1,1l0,2l0,1l0,1l0,1c0,0,-1,0,-1,0l-1,0l-1,0c0,0,0,1,1,1l1,0l1,0c1,0,2,0,2,0c1,-1,1,-1,2,-1l0,-1ZM56.5,439.5c1,0,1,1,1,1l-1,1l-1,0l-1,0l1,-1l1,0l0,-1ZM379.5,428.5l1,0l1,0c0,0,1,0,1,0c1,0,1,0,1,1c0,0,-1,1,-1,1c0,0,-1,0,-1,1c-1,0,-1,0,-1,0l-1,0l2,-1c0,0,1,0,1,-1l-1,0c-1,0,-1,0,-2,0l-1,0l1,0c0,0,0,-1,0,-1ZM187.5,431.5l1,0l1,0c0,0,1,0,1,0c1,0,1,0,1,1c0,0,-1,1,-1,1c-1,1,-1,1,-1,1c-1,0,-1,0,-1,0l-1,0l2,-1c0,0,1,0,1,-1l-1,0c-1,0,-1,0,-2,0l-1,1l0,-1c1,0,1,0,1,-1ZM362.5,432.5c0,2,0,4,-1,5l0,1c-1,0,-1,0,-1,0c-1,0,-1,0,-1,0l-1,0l1,0l1,-1l1,0c-1,0,-1,0,-1,0c0,-1,0,-1,0,-1c0,0,0,-1,-1,-1c0,0,-1,0,-1,0c0,0,0,-1,0,-1c0,-1,0,-1,0,-1c1,1,1,1,1,1c0,0,1,1,1,1c0,1,0,1,1,1l0,1c0,-1,0,-1,0,-1c0,0,0,-1,0,-1l0,-2ZM188.5,473.5l0,-1c0,0,0,-1,0,-1c0,-1,0,-2,-1,-2l1,0l0,-1l0,1c1,0,1,1,1,1l0,1c0,0,0,1,0,1c-1,0,-1,0,-1,1ZM187.5,475.5l0,1l1,0l0,-1l1,-1l0,1c0,0,1,0,1,0l0,-1l1,-1l0,1l0,1l0,1c0,0,-1,0,-1,1l-1,0l0,-1l0,1l-1,0c0,0,0,1,-1,1c0,0,0,-1,0,-1l-1,0l0,-1l1,-1ZM116.5,449.5l-6,2c0,0,1,-1,1,-1l5,-3ZM115.5,446.5l-5,3c0,-1,0,-1,0,-2l6,-2ZM312.5,332.5l0,-1c0,0,0,-1,0,-1c0,-1,0,-2,0,-2l0,-1c0,0,1,1,1,1c0,0,0,1,0,1l0,1l0,1l-1,1Z" class="g1_72" />
</svg>