<?xml version="1.0" encoding="UTF-8" standalone="no"?>
<!DOCTYPE svg PUBLIC "-//W3C//DTD SVG 1.1//EN"
"http://www.w3.org/Graphics/SVG/1.1/DTD/svg11.dtd">
<svg version="1.1" xmlns="http://www.w3.org/2000/svg" xmlns:xlink="http://www.w3.org/1999/xlink">
<defs>
<style type="text/css"><![CDATA[
.g1_38{
stroke: #1F1A17;
stroke-width: 1;
stroke-linecap: butt;
stroke-linejoin: miter;
}
]]></style>
</defs>
<path fill-rule="evenodd" d="M418.5,191.5c-1,0,-1,0,-2,0c0,-1,0,-1,-1,-2c0,1,0,1,0,2c-1,0,-1,1,-2,1c-1,0,-1,-1,-2,-1c0,-1,0,-1,0,-2l-1,0c0,1,0,1,0,1c-1,0,-1,0,-2,0c-1,0,-1,0,-1,0c-1,0,-1,0,-1,0c0,0,0,-1,0,-1l1,-1l0,-1c1,0,1,0,2,-1l1,0l0,-1l1,-1l0,-1l0,1l0,1l0,3l1,1c0,0,1,1,1,1c1,0,1,-1,1,-1c1,0,1,0,1,-1c0,0,0,-1,0,-2c0,-1,0,-1,0,-2l-1,0c0,-1,0,-1,0,-1l1,-1l0,-1l0,3l1,2l0,1c0,1,0,1,0,1c1,1,1,1,1,1l1,0c1,0,1,0,1,0l0,-1l0,-1l-1,-1l0,-1l0,-1l0,-1l0,-1l1,0l0,1c0,0,0,1,0,1l0,2c1,1,1,1,1,2c0,0,0,1,-1,2l0,1c0,0,-1,0,-1,0ZM268.5,292.5c0,-1,0,-1,0,-2c0,0,0,-1,0,-1l0,-1l1,1l0,1c0,1,0,1,0,1l0,1c0,0,-1,0,-1,0ZM105.5,267.5l-1,-1l1,0ZM105.5,269.5l-1,0l-1,0l0,-1l-1,0l0,-1c0,0,0,-1,0,-1c0,0,0,-1,0,-1c1,0,1,0,1,0c0,-1,0,-1,1,-1l-1,0l-1,0c0,-1,0,-1,1,-1l1,0c1,0,1,0,1,0c1,0,1,0,1,0l0,1l-1,0l-1,0l-1,0l0,1c0,0,-1,1,-1,1c0,1,0,1,0,1l1,0c0,0,0,1,0,1l1,0c0,0,1,0,1,0c1,0,1,0,1,0l1,0ZM255.5,281.5l1,0ZM256.5,284.5l-1,0c-1,0,-1,0,-1,0c-1,0,-1,-1,-1,-1c-1,0,-1,-1,-1,-1c0,-1,0,-1,0,-1c1,0,1,-1,1,-1l0,-1c1,0,1,0,1,0l-1,0l0,-1l1,0l1,0l1,0l1,0l-1,1l-1,0c0,0,-1,0,-1,0l-1,1l0,1c0,1,0,1,0,1c0,1,0,1,1,1l1,0l1,0l1,0ZM132.5,274.5l0,-1c0,0,0,-1,0,-1c0,-1,0,-2,0,-2l0,-1c1,0,1,0,1,1c0,0,0,1,0,1l0,1c0,1,0,1,0,1l-1,1ZM156.5,285.5c0,0,-1,0,-1,0c-1,0,-1,0,-1,0c-1,0,-1,0,-2,0c0,0,-1,0,-1,0c0,0,0,-1,0,-1l0,-1c0,0,1,0,1,0c0,0,1,0,1,0c0,0,0,-1,0,-1c1,0,1,0,1,0c0,0,0,-1,0,-1l0,-1c-1,0,-1,0,-1,-1c0,0,-1,-1,-1,-1c-1,-1,-1,-1,-2,-2c-1,-1,-1,-1,-1,-1c-1,0,-1,0,-1,0c-1,0,-1,0,-1,-1l0,-1c0,-1,0,-1,0,-1l0,-1c1,1,1,1,2,1c0,1,1,1,1,2c1,1,1,1,2,2c0,0,1,1,2,2c0,0,0,1,0,1c1,0,1,1,1,1c0,0,0,-1,0,-1c0,-1,0,-2,1,-2c0,-1,0,-1,0,-2c0,0,0,-1,0,-1c0,-1,0,-1,0,-2c0,0,-1,0,-1,0c0,-1,0,-1,1,-1c0,-1,0,-1,0,-1c0,1,0,1,0,1c0,0,1,0,1,0l1,1c-1,0,-1,0,-1,1c0,0,0,1,0,1c0,0,0,1,0,1c0,1,0,1,0,1c0,1,-1,1,-1,2c0,0,0,1,0,2c0,0,0,1,-1,1c0,0,1,0,1,0c0,0,0,1,0,1c0,1,0,1,0,1c0,1,0,1,0,1l0,1ZM155.5,282.5l-1,1c0,0,1,0,1,0l0,-1ZM83.5,280.5l0,1l-1,0l1,0l1,0c0,-1,-1,-1,-1,-1ZM83.5,288.5l0,1c-1,0,-1,0,-1,0c-1,0,-1,0,-2,0c-1,0,-1,0,-2,0l-1,-1c0,0,1,0,1,0c1,0,1,0,1,0c0,0,1,0,1,0c1,0,1,0,1,0l1,-1l1,0c0,-1,0,-1,0,-1c1,0,1,-1,1,-1c0,-1,1,-1,1,-2c-1,0,-1,0,-1,0c0,1,-1,1,-1,1l0,-1l-1,0c0,-1,-1,-1,-1,-1c1,-1,1,-1,1,-1c0,-1,0,-1,0,-2c0,0,1,0,1,0c0,-1,0,-1,1,-1l0,1c0,0,1,0,1,0c0,1,0,1,0,1c0,1,0,1,0,1c0,1,0,1,0,2c0,1,0,2,0,3c-1,1,-1,1,-1,1c0,1,0,1,-1,1ZM80.5,275.5l5,-2l-1,0c0,0,0,1,0,1l-4,2ZM69.5,283.5c0,1,-1,1,-1,1c0,0,-1,0,-1,0l-1,0l-2,0c-1,0,-2,0,-2,0c-1,0,-1,-1,-1,-1l0,-1l1,0l-1,0c-1,0,-1,0,-1,0l-5,2c0,0,-1,0,-1,0c0,0,-1,0,-1,0l-1,0l-1,0c0,1,0,1,0,1c0,1,0,2,-1,2c0,1,0,1,0,1c0,0,-1,1,-1,1c0,0,-1,1,-1,1c0,0,-1,0,-1,0c0,0,-1,0,-1,0c-1,0,-1,0,-2,0c0,0,0,-1,-1,-1c1,0,1,0,1,0l1,0c0,0,1,0,1,0c1,0,1,0,1,-1c1,0,1,0,1,0c0,-1,1,-1,1,-1c0,0,0,-1,1,-1c0,0,0,-1,0,-1c0,-1,0,-1,0,-1l0,-1c0,0,0,-1,0,-1l0,-1l0,1l1,0c0,1,0,1,0,1l1,0l1,0l1,0l1,-1c0,0,1,0,1,0l1,-1l1,0l1,0l-1,0l-1,-1c-1,0,-2,0,-3,0l-1,0l0,-1l1,0c0,-1,1,-1,1,-1l1,0c1,0,1,0,1,1c1,0,2,1,4,1c0,0,1,0,2,0c0,0,1,0,1,0l1,0l-1,2l-1,0l-1,0l1,0c0,0,0,1,0,1l1,0l1,0l1,0l1,0c0,0,1,0,1,0c0,-1,1,-1,1,-1c0,0,1,-1,1,-1l0,1l1,0c0,1,0,1,0,1c1,0,1,0,1,0c1,-1,1,-1,1,-1c0,0,1,0,1,-1l0,-1l0,1l1,1l1,1c0,0,1,0,1,0l0,-1l-1,0l1,-2l0,1l0,1c0,1,0,1,0,1c0,1,0,1,0,1c0,0,-1,0,-1,0l-1,0c0,0,-1,0,-1,0l0,-1l-1,1l-1,0c0,0,-1,0,-1,0c-1,0,-1,0,-1,0c0,0,0,-1,0,-1c-1,0,-1,0,-1,0ZM70.5,271.5l4,-2l0,1l-5,2ZM58.5,276.5l-1,-1l1,-1l1,1ZM56.5,267.5l0,1c1,0,1,0,1,0c0,0,0,-1,0,-1l0,-1l1,0l0,1c1,0,1,0,1,-1l0,-1l0,1l0,1l0,1l-1,0l-1,0c0,1,0,1,-1,1l0,-1l0,-1ZM60.5,264.5l-5,3c0,-1,0,-2,0,-2l6,-2ZM46.5,271.5l5,-2l-1,1l-4,2ZM117.5,282.5c0,1,0,1,-1,2l0,1c-1,0,-1,1,-1,1l1,0l0,1l-1,0l0,1l-1,0l0,1c0,0,-1,0,-2,0l-1,1l-1,0l-1,0l0,1l-1,1l-3,0l-4,0l-1,-1c0,-1,-1,-1,-1,-1c-1,0,-2,0,-2,-1l-1,0l-1,0l0,-1l-1,0l0,-1l-1,0l0,-1l1,0l-1,-1l0,-1l0,-1l-1,0l0,-1l0,-1l1,-1l0,-1l0,-1l1,0l-1,-1l1,-1l1,0l0,-1l1,0l2,-1l1,0c0,0,0,-1,0,-1l1,0l1,-1l0,-1l4,0l3,0l0,1l1,0l0,1l1,0l0,1l2,0l1,0l0,1l1,0l0,1l1,0c1,0,1,1,1,1l-1,1l1,0l0,1l0,1l1,0l0,1ZM108.5,292.5l0,-1l1,0l0,-1l1,0c0,0,1,0,1,-1l1,0c1,0,1,0,2,-1c0,0,1,-1,1,-1l1,0l0,-1l-1,0l0,-1l1,0l0,-1l0,-1l0,-1c0,-1,0,-2,0,-2c0,0,0,-1,0,-1c0,0,-1,-1,-1,-1l1,-1c0,0,-1,0,-1,-1l-1,0l0,-1l-1,0l-2,-1l-1,0c0,0,-1,-1,-1,-1l-1,-1l-1,0l-2,0l-4,0l-1,1c0,0,-1,1,-1,1l-2,0l-1,1l-1,0l0,1l-1,0c0,0,0,1,-1,1l1,1l-1,1l0,1l0,1l0,1l0,1l0,1l0,1l1,0l0,1l-1,0l0,1l1,0l1,0l0,1l1,0l0,1l1,0l1,0l1,1c0,0,1,0,1,0l0,1l1,0c0,1,0,1,0,1l4,0ZM113.5,277.5l-1,0l0,-1l-1,0c0,0,-1,0,-1,0l0,-1l1,0c1,0,1,1,1,1c0,0,1,0,1,0l0,1ZM113.5,287.5l0,1l-1,0l-1,1l-1,0l0,-1c0,0,1,0,1,0l1,-1c0,0,1,0,1,-1l0,1ZM109.5,289.5l0,1c-1,0,-1,0,-1,0l-3,0l-4,0l-1,0c0,0,0,-1,0,-1c0,-1,0,-1,0,-1c1,0,1,0,1,0l0,-1l4,0l3,0c0,0,0,1,0,1l1,0l0,1ZM109.5,275.5c0,0,0,1,0,1c0,0,-1,0,-1,0l-3,0l-4,0l-1,0l0,-1c0,0,0,-1,0,-1l1,0l4,0l3,0l1,0l0,1ZM108.5,278.5l0,-1c1,0,1,0,1,0c1,0,1,0,2,0c0,0,0,1,0,1l1,1l1,-1l1,1l0,1l0,1l0,1l0,1l0,1c0,1,0,1,0,1c-1,0,-1,0,-1,1l-1,-1l-1,1l-1,0l0,1l-1,0c-1,-1,-1,-1,-1,-1l-3,0l-4,0l0,1c0,0,-1,0,-1,0c-1,0,-1,0,-2,-1l-1,0l0,-1l-1,1l0,-1l-1,-2l0,-1c0,-1,0,-1,0,-1c0,0,0,-1,0,-1l0,-1c1,-1,1,-1,1,-1l1,1c0,0,0,-1,1,-1l0,-1l1,0l1,0l1,0l0,1l4,0ZM108.5,286.5c1,0,1,0,1,0l1,0l1,0l1,-1l1,0l1,-1l0,-1l0,-1c0,-1,0,-1,0,-2c0,0,0,-1,-1,-1l0,-1l-1,1l-1,-1l-1,-1l-1,0l-1,0l0,1l-3,0l-4,0l0,-1l-1,0c-1,0,-1,0,-1,0l0,1l-1,0c-1,1,-1,1,-1,1l-1,-1c0,0,0,1,0,1l-1,1l0,1l0,1l0,1l0,1c1,0,1,1,1,1l1,0l1,0l0,1l1,0l1,0l1,0l4,0l3,0ZM107.5,280.5l0,1l-1,0l0,1l0,1c0,0,0,1,0,1l0,-1l0,-1c-1,0,-1,0,-1,0l0,-1l0,-1c0,0,1,1,1,1c1,0,1,-1,1,-1ZM103.5,282.5l0,1l0,1l-1,0c0,-1,0,-2,0,-3l0,-1l0,1l1,0c0,0,1,-1,1,-1c0,1,0,1,0,1l1,0l0,-1c0,0,0,1,0,1c0,0,-1,0,-1,0c-1,0,-1,1,-1,1ZM96.5,277.5l0,-1l1,0l1,-1l1,0c0,1,0,1,0,1c0,0,-1,0,-1,0l-1,0l0,1l-1,0ZM96.5,287.5l0,-1c1,1,1,1,1,1l1,1l1,0c0,0,0,1,0,1l-1,0c-1,-1,-1,-1,-2,-1l0,-1ZM161.5,284.5l0,-1l0,-1l0,-8l1,-3l0,11l0,1c0,1,-1,1,-1,1ZM146.5,266.5l4,-2l0,1l-1,0l-4,2ZM156.5,266.5l1,0l1,0l1,0l0,1l0,1c-1,0,-1,0,-1,0c-1,0,-1,0,-1,0l-1,0l1,0c1,0,1,-1,2,-1c-1,0,-1,0,-1,0l-1,0l-1,0ZM141.5,278.5l-1,-1l0,-2l2,1ZM140.5,284.5l-1,0c-1,0,-1,0,-1,0l-1,1l0,1c0,1,0,2,0,2c0,1,-1,1,-2,1l-1,0c0,0,0,-1,-1,-1c0,-1,0,-2,0,-3l-1,-1c0,0,-1,0,-1,0l-1,0l-1,0c0,1,0,1,0,1c-1,1,-1,2,-1,2c0,1,0,1,-1,1c0,0,0,1,0,1c-1,0,-1,1,-1,1c-1,0,-1,0,-1,0c-1,0,-1,0,-1,0l-1,0c0,0,-1,0,-1,0c-1,0,-1,-1,-1,-1l1,0c1,0,1,0,2,0c0,0,1,0,1,-1c0,0,1,0,1,0c0,-1,0,-1,1,-1c0,0,0,-1,0,-1c0,0,1,-1,1,-1c0,-1,0,-1,0,-1c0,0,-1,0,-1,-1c0,0,0,-1,0,-1c0,0,1,0,1,-1l0,1l1,0c0,1,0,1,0,1l1,0l1,0l1,0l1,-1l1,-1l0,-1c1,-2,2,-3,3,-3c0,0,0,1,0,1l0,1l0,1c0,0,0,1,0,1c-1,1,-1,2,-2,2l1,0l1,0l1,0l1,0l1,0c1,0,1,0,2,0c0,-1,1,-1,1,-1c0,0,0,-1,0,-1c0,-1,-1,-1,-1,-1l1,-2l0,1c0,0,1,0,1,0c0,0,0,1,0,1c0,1,0,1,0,1c0,0,0,1,0,1c0,0,0,1,0,1c-1,0,-1,0,-1,0c0,1,-1,1,-1,1c-1,0,-1,0,-2,0ZM140.5,270.5l1,0c0,-1,0,-1,1,-1c0,0,1,0,1,1c1,0,1,0,1,0c0,1,-1,1,-1,1c0,1,0,1,0,1c-1,0,-1,0,-1,0c-1,0,-1,0,-1,0l-1,0l1,0c1,0,2,-1,2,-1l-1,0c-1,0,-1,0,-2,0l-1,0l0,-1c1,0,1,0,1,0ZM136.5,279.5c0,0,-1,0,-1,0c0,1,0,1,0,1l-1,1l0,1c1,0,1,0,2,-1c0,0,1,0,1,-1c0,0,-1,0,-1,0c0,-1,0,-1,0,-1ZM133.5,285.5c0,0,1,0,1,1c0,0,0,1,1,1l0,1l1,0l1,-1c0,0,-1,-1,-1,-2c-1,0,-1,0,-3,0ZM124.5,271.5l4,-2l0,1l-4,2ZM192.5,283.5l1,0l0,-1c1,0,1,0,1,0l0,-1l0,-2l0,-6c0,0,0,-1,0,-1l0,-1c1,0,1,0,1,0c-1,0,-1,0,-1,0c0,0,1,1,1,1l1,0c0,0,-1,1,-1,1c0,0,0,1,0,1c0,0,0,1,0,2c0,0,0,1,0,3l0,1l0,1l0,1c0,0,0,1,0,1c-1,0,-1,1,-1,1c-1,0,-1,0,-1,0c0,0,-1,0,-1,0l-1,0c0,0,-1,0,-1,0c0,0,-1,0,-1,-1l-2,-2c-1,0,-1,-1,-2,-1l0,1c0,1,0,1,0,1c0,1,-1,1,-1,2l-1,0c-1,0,-1,0,-1,0l-1,0l-3,0c0,0,-1,0,-1,0l-1,0l0,1l0,1c0,0,0,1,0,1c-1,0,-1,-1,-1,-1c-1,-1,-1,-1,-1,-2l0,-1c-1,0,-1,0,-1,1l-1,0l-1,0l0,1l0,1l0,1l1,0l0,2l0,1l0,1c0,1,0,1,0,2l0,1l0,-1l0,-1l0,-1l-1,-3l0,-1l0,-1l0,-1l0,-1c0,0,0,-1,1,-1l0,-1l1,0l0,-1l1,0l0,-1c1,1,2,2,3,2l1,1l2,0l1,0l1,0c1,0,1,0,1,-1c0,0,1,0,1,0c0,0,0,-1,0,-1c0,0,0,-1,0,-1c-1,-1,-1,-1,-1,-1c0,0,-1,-1,-1,-1c0,0,-1,0,-1,0c0,0,-1,0,-1,0c0,-1,0,-1,0,-1l-1,0c0,-1,0,-1,0,-1c0,0,0,-1,0,-1c1,0,1,0,1,0c0,-1,0,-1,0,-1c1,-1,2,-1,4,-2c1,0,2,-1,4,-1c1,-1,2,-1,2,-1c1,0,1,0,1,0l0,-1l0,2l-1,0c0,0,-1,1,-3,1c-1,1,-3,1,-4,2c-1,0,-2,1,-2,1l-1,0l1,1c1,0,1,0,1,0c0,0,1,1,1,1l1,0c0,1,1,1,1,1c1,1,1,1,2,2c1,0,1,1,2,1l1,1l1,1l1,0ZM193.5,268.5l4,-2l0,1c-1,0,-1,0,-1,0l-4,2ZM184.5,265.5l0,-1c1,0,1,0,1,0c0,0,1,0,1,0c0,0,0,1,0,1l0,1c0,0,0,1,0,1l0,1l-1,0l-1,1c0,0,-1,0,-1,0l0,1l-1,0l0,-1l1,0c0,-1,0,-1,1,-1l0,-1c0,0,0,-1,0,-1l0,-1ZM185.5,265.5c-1,0,-1,0,-1,0c0,0,0,1,0,1l1,0ZM173.5,269.5c1,-1,1,-1,1,-1c0,-1,1,-1,1,-1c0,1,1,1,1,1c0,1,0,1,0,1l-1,0l0,1l1,0l0,2l-1,-1l-1,0l0,1c-1,0,-1,1,-1,1l-1,0l-1,0l1,-1l1,0l0,-1l1,0l-1,-1l0,-1ZM175.5,269.5l-1,0l0,-1c0,0,0,1,0,1l1,1l0,-1ZM241.5,280.5l-1,1c0,0,1,0,1,0c1,0,1,0,1,0c0,0,-1,0,-1,0c0,-1,0,-1,0,-1ZM241.5,288.5l-1,1c-1,0,-1,0,-2,0c-1,0,-1,0,-2,0l-1,-1c1,0,1,0,1,0l1,0l1,0c0,0,1,0,1,0l0,-1c1,0,1,0,2,0c0,-1,0,-1,0,-1c0,0,1,-1,1,-1c0,-1,0,-1,0,-2l-1,0c0,1,0,1,0,1l-1,-1c0,0,-1,0,-1,0c0,-1,0,-1,0,-1c0,-1,0,-1,0,-1c1,-1,1,-1,1,-2l1,0c0,-1,0,-1,0,-1c1,0,1,0,1,1l1,0c0,1,0,1,0,1c0,1,0,1,0,1c0,1,0,1,0,2c0,1,0,2,-1,3c0,1,0,1,0,1c0,1,-1,1,-1,1ZM238.5,275.5l4,-2c0,0,0,1,0,1l-4,2ZM227.5,283.5c-1,1,-1,1,-1,1c-1,0,-1,0,-1,0l-1,0l-2,0c-1,0,-2,0,-2,0c-1,0,-1,-1,-1,-1l0,-1l-1,0l-5,2c0,0,-1,0,-1,0c-1,0,-1,0,-1,0l-1,0l-1,0c0,1,0,1,0,1c0,1,-1,2,-1,2c0,1,0,1,0,1c-1,0,-1,1,-1,1c-1,0,-1,1,-1,1c-1,0,-1,0,-1,0c0,0,-1,0,-1,0l-1,0l-1,0c0,0,-1,-1,-1,-1c0,0,1,0,1,0l1,0c0,0,1,0,1,0c0,0,1,0,1,-1c1,0,1,0,1,0c0,-1,0,-1,1,-1c0,0,0,-1,0,-1c1,0,1,-1,1,-1c0,-1,0,-1,0,-1l0,-1c-1,0,-1,0,-1,0c0,0,0,-1,0,-1l1,0l0,-1l0,1l1,0c0,1,0,1,0,1l1,0c1,0,1,0,1,0c1,0,1,0,1,-1c1,0,1,0,2,0l1,-1l1,0l-1,-1c-1,0,-2,0,-3,0l-1,0l0,-1l1,0c0,-1,0,-1,1,-1l1,0c0,0,1,0,1,1c1,0,2,1,3,1c1,0,2,0,2,0c1,0,1,0,2,0l0,2l-1,0l-1,0c1,0,1,1,1,1l1,0l2,0l1,0l1,0c0,-1,1,-1,1,-1c0,0,0,-1,1,-1l0,1c0,1,1,1,1,1c1,0,1,0,1,0c0,-1,1,-1,1,-1l0,-1c1,0,1,0,1,0l0,-1l0,1l0,1l1,0l1,1l0,-1l0,-2c0,0,1,0,1,0l0,1l0,1c0,1,0,1,0,1c0,1,0,1,0,1c-1,0,-1,0,-1,0c-1,0,-1,0,-1,0c0,0,-1,0,-1,0l0,-1l-1,0l0,1c0,0,-1,0,-1,0c-1,0,-1,0,-1,0c0,0,-1,0,-1,0l-1,0c0,0,0,-1,0,-1ZM228.5,271.5l4,-2l0,1l-1,0l-4,2ZM216.5,276.5l-1,-1l0,-1l2,1ZM214.5,267.5l0,1l1,0c0,0,0,-1,0,-1l0,-1l0,1l1,0l1,-1l0,-1l0,1l0,1l0,1l-1,0l-1,0c0,1,-1,1,-1,1c-1,0,-1,0,-1,-1l0,-1l1,0ZM218.5,264.5l-6,3c1,-1,1,-2,1,-2l5,-2ZM204.5,271.5l4,-2l0,1l-4,2ZM296.5,288.5l-1,-1l1,-1l1,1ZM294.5,284.5l-1,0l-1,0c-1,0,-1,0,-2,0c0,-1,-1,-1,-1,-2l0,-9l1,-2l0,10l0,1l1,0c0,1,0,1,1,1l1,0l1,0c0,0,1,0,1,0c1,-1,1,-1,2,-1l0,-1l-1,0c0,-1,0,-1,0,-1l1,-2l0,1l0,1l0,1l0,1c0,0,0,1,0,1c-1,1,-1,1,-2,1c0,0,-1,0,-1,0ZM296.5,290.5l-4,2c0,0,0,-1,0,-1l4,-2ZM288.5,265.5l5,-2l-1,1l-4,2ZM285.5,284.5c0,0,-1,0,-1,0l-1,0c0,0,0,-1,-1,-1l-1,0c0,1,0,1,0,1l-1,0l-1,0l-1,0c0,1,0,1,0,1c0,1,0,2,-1,2c0,1,0,1,0,1c0,0,-1,1,-1,1c0,0,-1,1,-1,1l-1,0l-1,0c-1,0,-1,0,-2,0c0,0,0,-1,-1,-1c1,0,1,0,1,0l1,0c0,0,1,0,1,0c1,0,1,0,2,-1c1,-1,1,-1,1,-1c0,0,0,-1,1,-1c0,0,0,-1,0,-1c0,-1,1,-1,1,-1l-1,0l0,-1c0,0,0,-1,0,-1l0,-1l0,1l1,0c0,1,0,1,1,1l1,0c0,0,1,0,1,0l0,-1l1,-1c0,0,0,-1,1,-1l0,-1c0,0,1,0,1,0l1,0c0,1,0,1,0,2l0,1l1,0l-1,0c0,0,0,1,0,1c0,0,0,1,0,1ZM283.5,282.5l1,0c0,-1,0,-1,0,-1l-1,0c0,0,0,1,0,1ZM279.5,266.5c0,0,1,0,1,0c1,0,1,0,1,0c1,0,1,0,2,0l0,1c0,0,0,1,0,1c0,0,-1,0,-1,0c0,1,0,1,0,1l-1,0l-1,0l-1,0l2,-1c1,0,1,0,2,-1c-1,0,-1,0,-1,0c0,0,-1,0,-1,0c0,0,-1,0,-1,0c0,0,-1,0,-1,1l0,-1l0,-1ZM277.5,295.5l-4,2c0,-1,1,-1,1,-1l4,-2ZM268.5,285.5c0,0,0,-1,-1,-1c0,0,-1,-1,-1,-2l1,-1l0,-1l1,-2c0,0,0,-1,1,-1c0,0,1,1,1,1c1,1,1,1,1,2l0,1c0,2,0,3,-1,3c-1,1,-1,1,-2,1ZM269.5,280.5l-1,0c-1,0,-1,1,-1,1c0,1,0,1,0,1c0,0,1,0,1,1l1,0l1,-1l1,0c0,-1,-1,-1,-1,-1c-1,-1,-1,-1,-1,-1ZM340.5,284.5l0,-1l0,-1l0,-8l0,-3l1,11l0,1c0,1,-1,1,-1,1ZM332.5,283.5c1,0,1,0,1,0c1,0,1,0,1,-1c1,0,1,0,1,0l0,-1l0,-2l0,-6c-1,0,-1,0,-1,0c0,0,0,-1,0,-1l1,-1c0,0,0,1,0,1c1,0,1,0,1,0c0,0,0,1,0,1c0,0,0,1,0,1c0,0,0,1,0,2c0,0,0,1,0,3l0,1l0,1l0,1c0,0,0,1,0,1c0,0,-1,0,-1,0c0,0,0,1,0,1l-1,0c-1,0,-1,0,-1,0l-1,0c-1,0,-1,0,-1,0l-1,0l0,-1l-1,0c-1,0,-1,0,-1,1c0,0,-1,0,-1,0l-1,0l-2,0c-1,0,-2,0,-3,0c0,0,0,-1,0,-1l0,-1l-1,0c0,0,-1,0,-1,0l-4,2c-1,0,-1,0,-1,0c-1,0,-1,0,-2,0l-1,0c0,1,0,1,0,1l-1,0c0,1,0,2,0,2c0,1,-1,1,-1,1c0,0,0,1,-1,1c0,0,0,1,-1,1c-1,0,-1,0,-1,0l-1,0c0,0,-1,0,-1,0c-1,0,-1,-1,-1,-1l1,0c1,0,1,0,2,0l1,-1l1,0c0,-1,0,-1,0,-1c1,0,1,-1,1,-1c0,0,0,-1,1,-1c0,-1,0,-1,0,-1c-1,0,-1,0,-1,-1c0,0,0,-1,0,-1l0,-1l1,0l0,1c1,1,1,1,1,1l1,0l1,0c0,0,1,0,1,-1c1,0,1,0,2,0l1,-1l1,0l-1,0l-1,-1c-1,0,-1,0,-2,0c0,0,-1,0,-1,0l-1,0l1,-1c1,-1,1,-1,2,-1l1,0l1,1c1,0,2,1,3,1c1,0,1,0,2,0c1,0,1,0,2,0l0,2l-1,0l-1,0c0,0,0,1,1,1l1,0l1,0l1,0c1,0,1,0,1,0c0,0,1,-1,1,-1l1,0l1,0l1,0c0,1,0,1,1,1ZM333.5,266.5l1,0l1,0c0,0,1,0,1,0c1,0,1,0,1,1c0,0,-1,1,-1,1c-1,1,-1,1,-1,1c-1,0,-1,0,-1,0l-1,0l1,-1c1,0,2,0,2,-1l-1,0l-1,0l-1,0l-1,1l0,-1c0,0,1,0,1,-1ZM329.5,288.5l-1,-1l1,-1l1,1ZM327.5,271.5l4,-2l0,1l-4,2ZM315.5,274.5c0,-1,1,-1,1,-1c0,0,1,0,1,0c1,0,1,0,2,0c0,0,0,1,0,1c0,0,0,1,0,1c-1,0,-1,0,-1,1c0,0,-1,0,-1,0l-1,0l-1,0l2,-1c1,0,1,0,2,-1c-1,0,-1,0,-1,0c-1,0,-1,0,-1,0c0,0,-1,0,-1,0c0,0,-1,0,-1,1l0,-1ZM310.5,295.5l-4,2c0,-1,0,-1,0,-1l4,-2ZM358.5,275.5l-1,-1l1,-1l1,1ZM360.5,281.5l-1,0l0,1c0,0,-1,0,-1,0c0,0,-1,0,-1,0c0,-1,0,-1,0,-1c0,0,-1,-1,-1,-1c0,0,1,-1,1,-1l0,-1l0,-1c1,0,1,0,2,0l1,0c0,1,0,1,0,2l1,0l0,1c0,0,0,1,0,1c0,1,0,1,0,1c0,1,0,1,0,1c-1,1,-1,1,-1,2c1,0,1,0,1,0l1,0c0,1,0,1,0,1c0,1,-1,1,-1,1c0,1,0,1,0,1c-1,0,-1,0,-2,1c0,0,-1,1,-2,1c-1,0,-2,0,-2,0c0,0,-1,0,-1,0c0,0,-1,0,-1,0c-1,0,-2,-1,-2,-1c0,0,-1,-1,-1,-1c0,0,0,-1,0,-1c0,0,0,-1,0,-1c0,0,0,-1,0,-2c0,0,1,-1,1,-1c0,-1,0,-1,0,-1l1,1c-1,0,-1,1,-1,1c0,1,0,1,0,2c0,1,0,1,1,2c1,0,1,0,2,0c1,0,1,0,1,0c1,0,1,0,1,0c1,0,1,0,1,0c1,0,2,0,2,-1c1,0,1,0,1,-1c0,0,-1,0,-1,0c-1,0,-1,0,-1,0l-1,0c0,-1,0,-1,0,-1l0,-1c0,0,1,0,1,0c0,0,1,0,1,-1c0,0,1,0,1,0l0,-1c0,-1,0,-1,0,-1ZM357.5,279.5l1,0l0,1c0,0,1,0,1,0l0,-1l-1,0ZM361.5,290.5l-4,2c1,0,1,-1,1,-1l4,-2ZM413.5,283.5c1,0,1,0,1,0c1,0,1,0,1,-1c0,0,1,0,1,0l0,-1l0,-2l-1,-6c0,0,0,-1,0,-1l0,-1c1,0,1,0,1,0c0,0,0,1,0,1c1,0,1,0,1,0c0,0,0,1,0,1c0,0,0,1,0,1c0,0,0,1,0,2c0,0,0,1,0,3l0,1l0,1l0,1c0,0,0,1,0,1c-1,0,-1,0,-1,0c0,0,0,1,0,1l-1,0l-1,0l-1,0l-1,0c0,0,-1,0,-1,0l-1,0l0,-1c0,0,-1,0,-1,0l0,1c-1,0,-1,0,-2,0l-1,0l-2,0c-1,0,-2,0,-2,0c-1,0,-1,-1,-1,-1l0,-1l-1,0l-5,2c0,0,-1,0,-1,0c-1,0,-1,0,-1,0l-1,0l-1,0c0,1,0,1,0,1c0,1,-1,2,-1,2c0,1,0,1,0,1c-1,0,-1,1,-1,1c-1,0,-1,1,-1,1c-1,0,-1,0,-1,0c0,0,-1,0,-1,0l-1,0l-1,0c0,0,-1,-1,-1,-1c0,0,1,0,1,0l1,0c0,0,1,0,1,0c0,0,1,0,1,-1c1,0,1,0,1,0c0,-1,0,-1,1,-1c0,0,0,-1,0,-1c1,0,1,-1,1,-1c0,-1,0,-1,0,-1l0,-1c-1,0,-1,0,-1,0c0,0,0,-1,0,-1l1,0l0,-1l0,1l1,0c0,1,0,1,0,1l1,0c1,0,1,0,1,0c1,0,1,0,1,-1c1,0,1,0,2,0l1,-1l1,0l-1,-1c-1,0,-2,0,-3,0l-1,0l0,-1l1,0c0,-1,0,-1,1,-1l1,0c0,0,1,0,1,1c1,0,2,1,3,1c1,0,2,0,2,0c1,0,1,0,2,0l0,2l-1,0l-1,0c1,0,1,1,1,1l1,0l2,0c1,0,1,0,1,0c1,0,1,-1,2,-1c0,0,1,0,1,0c0,0,1,0,1,0c0,1,1,1,1,1l1,0ZM418.5,288.5l-4,2c0,-1,0,-1,0,-1l5,-2ZM410.5,279.5l-1,-1l-1,2l-1,-1l1,-2l1,1l1,-1l1,1ZM407.5,271.5l4,-2l0,1l-4,2ZM397.5,288.5l-1,-1l1,-1l1,1ZM396.5,269.5c1,0,1,0,2,0c0,0,1,0,1,0c1,0,1,0,1,0c0,0,0,1,0,1c0,0,-1,0,-1,1c-1,0,-1,0,-1,0c-1,0,-1,0,-1,0l-1,0l1,0c1,0,2,-1,2,-1c0,0,-1,0,-1,0l-1,0l-1,0l-1,0l0,-1l1,0ZM390.5,295.5l-4,2c0,-1,0,-1,0,-1l4,-2ZM383.5,278.5c0,-1,-1,-1,-1,-1c0,0,-1,0,-1,0c0,1,0,1,0,1c-1,0,-1,0,-2,1c-1,1,-1,1,-1,1c0,1,0,1,1,1c0,1,1,1,1,1l1,0c1,0,1,0,2,0l0,1c0,0,0,1,0,1c0,0,-1,1,-1,1l-1,1c0,0,-1,0,-2,1c0,0,-1,0,-2,1c-1,0,-1,0,-2,0l-1,0c0,0,-1,0,-2,0c0,-1,0,-1,-1,-1c0,-1,-1,-1,-1,-1c0,-1,0,-1,0,-2c0,-1,0,-2,0,-2c0,-1,0,-1,1,-2c0,0,0,-1,0,-1l1,0l0,1c0,0,-1,0,-1,0c0,1,0,1,0,1c0,0,0,1,0,1c0,0,0,1,0,1c0,0,0,1,0,1c0,0,0,1,1,1c0,1,2,1,3,1c1,0,2,0,3,0l2,-1l1,0l0,-1l1,0l-2,-1c-1,0,-2,0,-2,0c-1,-1,-1,-1,-1,-2c0,-1,0,-1,1,-1c0,-1,0,-1,0,-1c1,-1,1,-1,1,-1c0,-1,1,-1,1,-1c0,-1,1,-1,1,-1c1,0,1,0,2,0c0,0,1,0,1,0l0,1l0,1c-1,0,-1,0,-1,0ZM372.5,271.5l4,-2l0,1l-1,0l-4,2ZM182.5,231.5l-1,-1l1,0ZM182.5,233.5c-1,0,-1,0,-1,0l-1,0l-1,-1l0,-1c0,0,0,-1,0,-1l0,-1c1,0,1,0,1,0c0,-1,1,-1,1,-1l-1,0l-1,0c0,0,1,0,1,-1l1,0c1,1,1,1,1,1c1,0,1,0,1,-1l0,1l-1,0l-1,0l0,1l-1,0c0,0,0,1,-1,1l0,1l1,1l1,0l0,1c0,0,1,0,1,0l1,0l1,0ZM347.5,244.5c0,-1,0,-1,0,-2c0,-1,-1,-1,-1,-2l1,0l0,-1c0,1,0,1,0,1c0,1,0,1,0,1l1,1l0,1c0,0,-1,0,-1,0c0,1,0,1,0,1ZM281.5,231.5l0,-1c0,0,0,-1,0,-1c0,-1,-1,-2,-1,-2l1,-1l0,1c0,0,0,1,0,1l0,1c0,0,0,1,0,1l0,1ZM92.5,238.5l0,-1l0,-1l-1,-9l1,-2l1,11l-1,0c0,0,0,1,0,1c0,0,0,1,0,1ZM84.5,236.5c0,0,1,0,1,0l1,0c1,0,1,-1,1,-1l-1,-2l0,-6c0,0,0,-1,0,-1c0,0,0,-1,0,-1c0,0,0,-1,1,-1l0,1c0,0,0,1,1,1l-1,1l0,1l0,-1c0,0,0,1,0,1c0,0,0,1,0,2l0,2c0,1,0,1,0,1l0,1c0,1,0,1,0,1c0,0,0,1,0,1c0,1,0,1,0,1l-1,0c0,0,0,1,0,1c0,0,-1,0,-1,0l-1,0l-1,0l-1,0c-1,0,-2,0,-2,0c0,0,-1,-1,-1,-1c-1,0,-1,1,-2,1c0,0,-1,0,-2,0c-1,0,-1,0,-2,0c0,-1,-1,-1,-1,-2c0,1,0,1,-1,1c0,1,0,1,0,1l-1,0c-1,0,-1,0,-1,0c-1,-1,-1,-1,-1,-2c0,1,-1,1,-1,1c-1,1,-1,1,-2,1c0,0,-1,0,-1,0c0,0,-1,0,-1,0c-1,0,-1,0,-2,0c-1,0,-2,0,-3,0c-1,0,-2,0,-2,0c-1,0,-2,0,-4,0c-1,0,-2,0,-3,0c-1,0,-2,0,-2,0c-1,0,-1,0,-1,0c-1,0,-2,0,-2,0c0,-1,0,-1,-1,-1l0,-1c1,0,1,0,2,0c1,1,1,1,2,1c0,0,1,0,2,0c1,0,2,0,3,0c2,0,3,0,4,0c1,0,2,0,3,0c1,0,2,0,3,0c0,-1,1,-1,1,-1c0,0,1,0,1,0c0,0,1,0,1,0c0,0,1,0,1,0l1,0c0,0,0,-1,0,-1c0,0,0,-1,0,-1l0,-1l0,-7l1,-2l0,11l1,0c0,0,0,1,0,1c0,0,1,0,1,0c0,0,1,0,1,0c0,0,1,0,1,-1c0,0,0,-1,0,-1l0,-1l-1,-7l1,-2l1,11c0,0,0,1,0,1c1,0,1,0,1,0l1,0c1,0,1,0,1,0c0,0,1,0,1,0l0,-1c0,-1,0,-1,0,-2c1,0,1,-1,1,-1l1,-1c0,0,1,0,1,0c1,0,1,0,1,0c0,1,1,1,1,2l0,1l0,1c-1,0,-1,0,-1,0c0,1,0,1,0,1l1,0l1,0ZM84.5,220.5c0,0,1,0,1,0c0,-1,1,-1,1,-1c1,0,1,1,2,1l0,1l0,1c-1,0,-1,0,-1,0c0,0,-1,0,-1,0l-1,0l-1,0l2,0c1,0,1,-1,2,-1c-1,0,-1,0,-1,0c-1,0,-1,0,-1,0c-1,0,-1,0,-1,0c-1,0,-1,0,-1,0l0,-1ZM79.5,230.5l-1,-1l1,-2l1,1ZM80.5,233.5c-1,0,-1,0,-1,0c-1,0,-1,0,-1,1c0,1,1,1,1,1c1,0,1,0,1,0c0,0,1,-1,1,-1c0,0,0,-1,-1,-1ZM80.5,219.5c0,-1,0,-1,0,-1c0,0,1,-1,1,-1c0,1,0,1,0,1c1,0,1,0,1,1l0,1c0,0,-1,0,-1,0l1,1l0,1l-1,-1l-1,1c0,1,-1,1,-1,1l-1,0c0,0,-1,0,-1,0l1,0l1,-1l1,-1c-1,-1,-1,-1,-1,-1l0,-1l1,0ZM81.5,219.5l-1,0l0,1l1,0l0,-1ZM70.5,216.5c1,0,1,0,1,0c1,0,1,0,2,0c0,0,1,0,1,0c0,0,1,0,1,1c-1,0,-1,1,-1,1l-1,0c0,1,0,1,0,1l-1,0l-1,0l1,-1c1,0,1,0,2,-1c-1,0,-1,0,-1,0c0,0,-1,0,-1,0c0,0,-1,0,-1,0c0,0,-1,0,-1,1l0,-1l0,-1ZM58.5,234.5l-1,0l-1,0c0,1,0,1,0,1c-1,0,-1,0,-1,-1c-1,0,-1,0,-1,0l1,0c0,0,1,0,1,0c1,-1,1,-1,2,-1l-1,0l-1,0c0,0,0,-1,0,-1c0,0,-1,0,-1,0c1,-1,1,-1,1,-1c0,-1,0,-1,1,-2l1,0c0,0,0,-1,1,-1l-1,2c-1,0,-1,0,-1,1c0,0,1,0,1,0l1,1c0,1,0,1,-1,2ZM51.5,228.5l1,0l2,-1l6,-2l4,-1l1,0l0,-1l-1,2l-1,0l-1,1l-2,0l-5,2l-4,2l-1,0ZM122.5,236.5l1,0l1,0c0,0,0,-1,0,-1l0,-2l0,-6c0,0,0,-1,0,-1c0,0,0,-1,0,-1c0,0,0,-1,1,-1l0,1c0,0,0,1,1,1l-1,1l0,1l0,-1c0,0,0,1,0,1c0,0,0,1,0,2l0,2c0,1,0,1,0,1l0,1c0,1,0,1,0,1c0,0,0,1,0,1c0,1,0,1,0,1c-1,0,-1,0,-1,0c0,0,0,1,0,1c0,0,-1,0,-1,0c0,0,-1,0,-1,0l-1,0c0,0,-1,0,-1,-1c0,0,-1,0,-1,0l-2,-2c-1,-1,-1,-1,-2,-1l0,-1c0,0,0,1,0,1l0,1c0,1,0,1,0,1c0,0,-1,1,-1,1l-1,1c-1,0,-1,0,-1,0l-1,0l-3,0c0,0,-1,0,-1,0c0,0,0,-1,0,-1l0,1l0,1l-1,0c0,1,0,1,0,1c-1,0,-1,0,-1,-1c-1,0,-1,-1,-1,-1l0,-1c-1,0,-1,0,-1,0l-1,0l0,1l-1,0c0,1,0,1,0,1l0,1l1,0c0,1,0,1,0,1l0,2l0,2c0,1,0,1,0,1l0,1l0,1l0,-1l0,-1l0,-1l-1,-3l0,-1l0,-1l0,-2c0,-1,0,-1,1,-2l1,-1l1,0l0,-1l1,0c0,1,1,1,2,2l1,0l2,0l1,0l1,0l1,0c0,0,1,0,1,0l0,-1c0,-1,0,-1,0,-1c0,-1,0,-1,0,-1c0,0,-1,0,-1,-1c0,0,-1,0,-1,0c0,-1,-1,-1,-1,-1c0,0,-1,0,-1,0c0,-1,0,-1,0,-1c-1,0,-1,0,-1,0c0,-1,0,-1,0,-1l1,0c0,-1,0,-1,0,-1l0,-1l1,0c0,0,1,-1,3,-1c1,-1,2,-1,4,-2c1,0,2,-1,3,-1l0,2l-1,0c0,0,-1,0,-3,1c-1,0,-2,1,-4,1c-1,1,-2,1,-2,1c0,1,0,1,0,1c-1,0,-1,0,-1,0l1,0c1,1,1,1,1,1c0,0,1,0,1,0l0,1l1,0c0,0,1,1,2,1c0,0,1,1,1,1c1,1,1,1,2,2l1,1l1,0l1,0ZM123.5,222.5l4,-2c0,1,-1,1,-1,1l-4,2ZM114.5,219.5c0,-1,0,-1,0,-1c1,0,1,-1,1,-1c1,1,1,1,1,1l0,1l0,1l0,1l0,1l-1,-1l0,1l-1,0c0,1,-1,1,-1,1l-1,0l1,-1l1,0l0,-1c0,-1,0,-1,0,-1l0,-1ZM115.5,219.5c-1,0,-1,0,-1,0l1,0l0,1l0,-1ZM103.5,222.5c1,0,1,0,1,-1c0,0,1,0,1,0c1,0,1,1,1,1l0,1l-1,0c0,0,0,1,0,1l1,0l0,1l-1,0l-1,0l0,1c-1,0,-1,0,-1,0l-1,0l0,1l-1,0c0,0,0,-1,0,-1l1,0l1,0c0,-1,0,-1,0,-1l1,-1c-1,0,-1,-1,-1,-1c0,0,0,-1,0,-1ZM105.5,222.5l-1,0c0,0,0,1,0,1l1,0ZM171.5,234.5c-1,0,-1,0,-1,1c0,0,1,0,1,0c1,0,1,0,1,0c0,-1,0,-1,0,-1c-1,0,-1,0,-1,0ZM171.5,242.5l-1,0c-1,1,-1,1,-2,1c-1,0,-1,0,-2,-1l-1,0c1,0,1,0,1,0c0,0,1,0,1,0l1,0c0,0,1,0,1,-1c1,0,1,0,2,-1l0,-1c0,0,1,0,1,-1c0,0,0,-1,0,-1c0,0,0,-1,0,-1l0,1c-1,0,-1,0,-1,0l-1,0c0,-1,-1,-1,-1,-1c0,-1,0,-1,0,-1c0,0,0,-1,0,-1c1,0,1,-1,1,-1c0,0,0,-1,1,-1c1,0,1,0,1,0c0,0,1,1,1,1c0,0,0,1,0,1l0,1c0,0,0,1,0,1c0,0,0,1,0,1c0,1,0,2,-1,3l0,1c0,0,-1,0,-1,1ZM168.5,228.5l4,-2l0,1l-4,2ZM157.5,236.5l0,1c-1,0,-1,1,-1,1c0,0,-1,0,-1,0l-1,0l-2,0c-1,0,-2,0,-2,-1c-1,0,-1,0,-1,-1l0,-1l-1,0l-5,2c0,0,-1,0,-1,1c0,0,-1,0,-1,0l-1,0c-1,0,-1,0,-1,0c0,0,0,1,0,1c0,1,-1,1,-1,2c0,0,0,1,0,1c-1,0,-1,0,-1,1c0,0,-1,0,-1,0c0,0,-1,0,-1,1c0,0,-1,0,-1,0c-1,0,-1,-1,-2,-1c0,0,-1,0,-1,0c0,0,0,-1,0,-1c0,1,1,1,1,1l1,0c0,0,1,0,1,-1c0,0,1,0,1,0c1,0,1,-1,1,-1c0,0,1,0,1,-1c1,-1,1,-1,1,-2l0,-1c0,0,-1,0,-1,-1l1,0c0,-1,0,-1,0,-1c0,0,0,1,0,1l1,0l1,0c1,0,1,0,1,0c1,0,1,0,1,0c1,0,2,0,2,-1l1,0l1,0l0,-1l-1,0c-1,0,-2,-1,-3,-1c0,0,0,1,0,1l-1,0l0,-1c0,0,0,-1,1,-1l1,0l1,0c0,0,1,0,1,0c1,1,2,1,4,1c0,1,1,1,1,1c1,0,1,0,2,0l0,1l-1,0l-1,0c0,1,0,1,1,1l1,0l2,0l1,0c0,0,1,0,1,0c0,0,1,0,1,0c0,-1,0,-1,1,-2l0,1l0,1c0,0,1,0,1,0c1,0,1,0,1,0c0,0,1,0,1,0c0,-1,0,-1,1,-1l0,-1l0,1c0,0,1,1,1,1l1,0l0,-1l0,-1c1,0,1,0,1,0l0,1l0,1l0,1l0,1c-1,0,-1,0,-1,0c0,0,-1,0,-1,0c0,0,-1,0,-1,-1l-1,0c0,1,-1,1,-1,1c-1,0,-1,0,-1,0l-1,0c0,0,0,-1,0,-1c-1,0,-1,0,-1,0l0,-1ZM158.5,225.5l4,-2l0,1l-1,0l-4,2ZM146.5,230.5l-1,-1l1,-1l1,1ZM144.5,220.5l0,1c0,0,1,0,1,0l0,-1l1,0c0,0,0,1,0,1c0,0,1,0,1,-1l0,-1l0,1l0,1c0,0,0,1,-1,1l-1,0c0,0,-1,1,-1,1c0,0,0,-1,0,-1l-1,0l0,-1l1,0l0,-1ZM148.5,217.5l-6,3c1,-1,1,-1,1,-1l5,-3ZM134.5,225.5l5,-2l-1,1l-4,2ZM213.5,236.5l1,0l1,0c0,0,0,-1,0,-1l0,-2l0,-6c0,0,0,-1,0,-1c0,0,0,-1,0,-1c0,0,0,-1,1,-1l0,1c0,0,0,1,1,1l-1,1l0,1l0,-1c0,0,0,1,0,1c0,0,0,1,0,2l0,2c0,1,0,1,0,1l0,1c0,1,0,1,0,1c0,0,0,1,0,1c0,1,0,1,0,1c-1,0,-1,0,-1,0c0,0,0,1,0,1c0,0,-1,0,-1,0c0,0,-1,0,-1,0l-1,0c0,0,-1,0,-1,-1c0,0,-1,0,-1,0l-2,-2c-1,-1,-1,-1,-2,-1l0,-1c0,0,0,1,0,1l0,1c0,1,0,1,0,1c0,0,-1,1,-1,1l-1,1c-1,0,-1,0,-1,0l-1,0l-3,0l-1,0c0,0,0,-1,0,-1l0,1l0,1c0,1,-1,1,-1,1c0,0,-1,0,-1,-1c0,0,-1,-1,-1,-1l0,-1c0,0,-1,0,-1,0c-1,0,-1,0,-1,1c0,1,0,1,0,1l0,1c0,1,0,1,0,1l0,2l1,2c0,1,0,1,0,1l0,1l-1,1l0,-1l0,-1l0,-1l-1,-3l0,-1l0,-1l0,-2c0,-1,1,-1,1,-2l1,0l0,-1l1,0l0,-1l1,0c0,1,1,1,2,2l2,0l1,0l1,0l1,0l1,0c1,0,1,0,1,0l0,-1c0,-1,0,-1,0,-1c0,-1,0,-1,0,-1c0,0,-1,0,-1,-1c0,0,-1,0,-1,0c0,-1,-1,-1,-1,-1c0,0,-1,0,-1,0c0,-1,0,-1,0,-1c-1,0,-1,0,-1,0c0,-1,0,-1,0,-1l1,0c0,-1,0,-1,0,-1l0,-1l1,0c0,0,1,-1,3,-1c1,-1,2,-1,4,-2c1,0,2,-1,3,-1l0,2l-1,0c0,0,-1,0,-3,1c-1,0,-2,1,-4,1c-1,1,-2,1,-2,1c0,1,0,1,0,1c-1,0,-1,0,-1,0l1,0c1,1,1,1,1,1c0,0,1,0,1,0l0,1l1,0c0,0,1,1,2,1c0,0,1,1,1,1c1,1,1,1,2,2l1,1l1,0l1,0ZM214.5,220.5l1,1c0,0,1,0,1,-1l0,-1l0,1c1,0,1,0,1,0l0,-1l1,0c0,0,0,1,0,1l0,1c0,0,-1,0,-1,0l0,1l-1,-1l0,1c-1,0,-1,0,-1,0c0,0,-1,0,-1,0l0,-1l0,-1ZM219.5,217.5l-6,3c0,-1,1,-1,1,-2l5,-2ZM205.5,219.5c0,-1,0,-1,0,-1c1,0,1,-1,1,-1c1,1,1,1,1,1l0,1l0,1l0,1l0,1l-1,-1l0,1l-1,0c0,1,-1,1,-1,1l-1,0l1,-1l1,0l0,-1c0,-1,0,-1,0,-1l0,-1ZM206.5,219.5c-1,0,-1,0,-1,0l1,0l0,1l0,-1ZM192.5,227.5l1,0c0,0,1,0,1,0c1,0,1,0,2,0c0,0,0,1,0,1l-1,1l-1,0c0,1,-1,1,-1,1c-1,0,-1,0,-1,-1l2,0c0,0,1,-1,1,-1l-1,0c-1,0,-1,0,-2,0c0,-1,0,-1,0,-1ZM243.5,241.5l1,0c1,0,2,0,3,-1c0,0,1,0,1,-1c1,0,1,-1,1,-1c1,0,1,-1,1,-1c0,0,0,-1,0,-1l0,-1l-1,0l0,-1l0,-1l1,-1l0,1c0,0,0,1,1,1l0,1l0,1c0,1,0,1,0,2c0,0,-1,0,-1,0c0,1,0,1,0,1c0,0,0,1,0,1c-1,0,-1,1,-1,1c0,0,-1,0,-1,0l0,1l-1,0l-1,0l-1,0c0,0,-1,0,-1,0c0,0,-1,0,-1,-1ZM249.5,246.5l-4,2c0,-1,1,-1,1,-1l4,-2ZM242.5,230.5l-2,-1l1,-1l2,1ZM235.5,241.5c1,0,1,0,1,0l1,0c1,0,2,0,3,-1l1,-1c0,0,1,-1,1,-1c0,0,0,-1,1,-1c0,0,0,-1,0,-1l-1,-1l0,-1l-1,0l1,-1l0,-1l1,1c0,0,0,1,0,1l0,1l0,1c0,1,0,1,0,2c0,1,0,1,0,1c0,0,-1,1,-1,1c0,0,0,1,-1,1l-1,1c0,0,-1,0,-1,0l-1,0l-1,0c-1,0,-1,0,-1,-1ZM237.5,220.5c1,0,1,0,1,0c1,-1,1,-1,2,-1c0,0,1,1,1,1c0,0,1,0,1,0l0,1c-1,0,-1,0,-1,1l-1,0l-1,0l-1,0l1,0c1,0,1,-1,2,-1c0,0,-1,0,-1,0c0,0,-1,0,-1,0c0,0,-1,0,-1,0l-1,0l0,-1ZM234.5,228.5l-1,-1l-1,2l-1,-1l0,-2l2,1l1,-1l1,1ZM236.5,236.5c-1,0,-1,0,-1,0c0,1,0,1,0,1c-1,0,-2,1,-2,1c-1,0,-1,0,-2,0l-1,0l-1,0c-1,0,-1,0,-2,-1c0,0,-1,-1,-1,-2l0,-8l1,-2l0,9l0,1l1,0l0,1l1,0l1,0l1,0c1,0,1,0,2,0c1,0,1,0,2,-1c0,-1,0,-1,0,-1l-1,0l0,1c0,0,-1,0,-1,0l-1,0c0,-1,0,-1,0,-1c0,0,-1,-1,-1,-1c0,-1,1,-1,1,-1c0,0,0,-1,0,-1l0,-1c1,0,1,-1,2,-1c0,0,0,1,1,1c0,0,0,1,0,1l0,1l1,0c0,0,0,1,0,1c0,1,0,1,0,1c0,1,0,1,0,2ZM232.5,232.5c0,0,1,0,1,0c0,0,0,1,0,1l1,-1l0,-1c-1,0,-1,0,-1,0c0,0,0,1,-1,1ZM229.5,221.5l5,-3c0,1,-1,1,-1,1l-5,3ZM231.5,217.5l5,-2c-1,1,-1,1,-1,1l-5,3ZM308.5,238.5l0,-1l0,-1l0,-9l0,-2l1,11c0,0,0,1,0,1c0,0,-1,1,-1,1ZM300.5,236.5c1,0,1,0,1,0c1,0,1,0,1,0c1,0,1,0,1,0c0,0,0,-1,0,-1l0,-2l0,-6c-1,0,-1,-1,-1,-1c0,0,0,-1,1,-1c0,0,0,-1,0,-1l0,1c1,0,1,1,1,1l0,1l0,1l0,-1c0,0,0,1,0,1c0,0,0,1,0,2l0,2c0,1,0,1,0,1l0,1c0,1,0,1,0,1c0,0,0,1,0,1c-1,1,-1,1,-1,1c0,0,0,1,-1,1l-1,0l-1,0c-1,0,-1,0,-1,0c-1,0,-1,0,-1,-1l0,-1c-1,1,-1,1,-2,2c0,0,-1,0,-1,0l-1,0c-1,0,-1,0,-2,-1l-1,0c0,1,0,1,-1,1c0,0,-1,0,-1,0l-1,0l-1,-1l-1,0c-1,1,-1,1,-1,1l-1,0l-1,0c0,0,0,1,-1,1c0,1,0,1,0,2c0,0,-1,1,-1,1l-1,1l-1,0l-1,1l-1,0c0,0,-1,-1,-2,-1c0,0,0,-1,0,-1c0,1,0,1,1,1c1,0,1,0,2,-1l1,0c0,0,0,-1,1,-1l0,-1c1,0,1,0,1,0c0,-1,0,-1,1,-2l-1,-1l0,-1c0,-1,0,-1,0,-1l1,0c0,0,0,1,0,1c0,0,1,0,1,0l1,0l1,0l1,0c0,0,0,-1,1,-1c1,-2,2,-2,2,-2l1,1l1,1l1,1l1,0l1,0l1,0l1,0c0,0,1,0,1,0l0,-1l1,-1l0,1c0,1,0,1,1,1l1,0ZM297.5,229.5l-2,0l1,-2l1,1ZM298.5,232.5l-1,-1l-1,1l-1,-1l0,-1l2,1l1,-2l1,1ZM296.5,223.5l0,1c0,1,1,1,1,1l0,-1l0,-1l1,0l0,1l1,0l0,-1l0,-1l0,1l0,1c0,1,0,1,0,1l-1,0l-1,0c0,1,0,1,0,1c-1,0,-1,0,-1,0c0,-1,0,-1,0,-1l0,-1ZM300.5,221.5l-5,2c0,0,0,-1,0,-1l6,-3ZM291.5,236.5l-1,-1c0,0,-1,0,-1,-1l0,1l-1,0c0,0,0,1,1,1l1,0ZM287.5,225.5l4,-2l-1,1l-4,2ZM267.5,231.5l-1,1l-2,-1l0,2l-2,-1l1,-2l2,1l0,-1ZM272.5,236.5c0,0,0,1,-1,1c-1,0,-2,1,-3,1c-2,0,-3,1,-4,1c-1,0,-3,-1,-4,-1c-1,0,-2,0,-2,-1c0,0,-1,0,-1,-1c0,-1,0,-1,0,-1l0,-1l0,-1c1,0,1,-1,1,-1l1,0c0,0,-1,1,-1,1c0,0,0,1,0,1c0,0,0,1,0,1c1,0,1,1,2,1c0,0,1,0,1,0l1,1l1,0l2,0c1,0,1,0,2,-1c1,0,1,0,1,0l1,0l1,0c0,0,1,-1,1,-1c1,0,2,0,2,-1l-1,-1l0,-1c0,-1,0,-1,1,-1l0,1c0,0,0,1,0,1l1,1c0,0,-1,0,-1,1c0,0,0,1,-1,1ZM266.5,243.5l-4,2c0,0,0,-1,0,-1l4,-2ZM334.5,237.5c0,1,0,1,0,1l-1,0l0,-1c0,0,-1,0,-1,0l-1,-1l0,1c0,0,-1,0,-1,1l-1,0l-1,0l-1,0c0,1,0,1,0,1c0,1,0,1,0,1c0,1,0,1,-1,2c0,0,0,1,-1,1c0,1,-1,1,-2,1c-1,1,-1,1,-2,1c-1,0,-1,0,-2,0c0,-1,-1,-1,-1,-1c-1,0,-1,-1,-1,-1c-1,-1,-1,-1,-1,-2c0,0,0,-1,0,-1l1,-1l0,-1c0,-1,1,-1,1,-1c0,1,0,1,0,1c0,1,-1,1,-1,1c0,1,0,1,0,1c0,1,0,1,0,1c1,1,1,1,1,1c0,0,1,0,1,0c0,1,0,1,0,1c1,0,1,0,2,0c1,0,2,0,3,0c0,-1,1,-1,2,-1c0,-1,0,-1,0,-1l0,-1l0,-1l0,-1l-1,0l0,-1l1,-2c0,0,0,1,0,1c0,0,1,0,1,0l1,0l1,0c1,0,1,0,1,0l1,0l0,-1c1,-1,1,-1,1,-2l1,0c1,0,1,0,1,0c0,1,1,1,1,1l0,1l0,1l0,1c0,0,-1,0,-1,0ZM332.5,235.5l1,0l1,1c0,0,0,-1,0,-1c-1,-1,-1,-1,-1,-1c0,0,-1,0,-1,1ZM333.5,241.5l-4,2c0,0,0,-1,1,-1l4,-2ZM322.5,236.5l-2,-1l1,-2l2,1ZM320.5,228.5l5,-2l-1,1l-4,2ZM356.5,242.5l-1,-1l1,-2l1,1ZM354.5,238.5l-1,0c-1,0,-1,0,-2,0l0,-1c-1,0,-1,0,-1,-1c0,0,0,-1,0,-1l-1,1l-1,0l-1,0c0,0,-1,0,-1,0l-1,0l0,-1c1,-1,1,-1,2,-2l1,-1c1,0,1,0,1,0l0,-1l0,-1l1,0l0,1l0,1c0,0,0,1,0,1l1,2l0,1c0,0,1,0,1,0l1,0l1,0c0,0,1,0,1,0c1,0,1,0,1,0c0,0,1,-1,1,-1l-1,0l0,-1l0,-1l0,-1c1,0,1,0,1,0l0,1l0,1l0,1c0,0,0,1,0,1c0,0,0,1,0,1c-1,0,-1,1,-2,1c0,0,-1,0,-1,0ZM355.5,244.5l-3,2c0,-1,0,-1,0,-1l4,-2ZM349.5,233.5l-1,0l0,1c-1,0,-1,0,-1,0l1,0l1,0l1,0ZM407.5,228.5l-1,-1l0,-1l2,1ZM409.5,236.5c0,1,0,1,-1,1c0,0,-1,1,-1,1c-1,0,-1,0,-2,0l-1,0l-1,0c0,0,-1,0,-2,-1c0,0,0,-1,0,-2l-1,-8l1,-2l1,9l0,1l0,1c0,0,1,0,1,0l1,0l1,0c1,0,1,0,2,0c1,0,1,0,2,-1c0,-1,0,-1,0,-1c0,0,-1,0,-1,0l0,1c0,0,-1,0,-1,0c0,0,-1,0,-1,0c0,-1,0,-1,0,-1c-1,0,-1,-1,-1,-1c0,0,0,-1,1,-1l0,-1c0,0,0,-1,0,-1c1,0,1,-1,1,-1c1,0,1,1,1,1c1,0,1,0,1,1l0,1l1,1c0,1,0,1,0,1c0,1,0,1,0,2c0,0,-1,0,-1,0ZM406.5,232.5c0,0,1,0,1,0l0,1c1,0,1,-1,1,-1l-1,0c0,-1,0,-1,0,-1l-1,1ZM405.5,222.5l5,-2l-1,0c0,1,0,1,0,1l-4,2ZM400.5,219.5l4,-3l0,1l0,1l-4,2ZM389.5,230.5l-2,-1l1,-2l1,1ZM397.5,235.5l-2,0c0,0,-1,0,-2,0l-1,1l-1,0l-1,1c0,0,-1,0,-1,0c-1,0,-1,0,-1,0c-1,1,-2,1,-2,1l-1,0c0,0,-1,0,-1,0c0,0,0,1,0,1c0,1,0,1,-1,2c0,0,0,1,0,1c0,0,-1,0,-1,1c0,0,-1,0,-1,0c0,0,-1,0,-1,1c0,0,-1,0,-1,0c-1,0,-1,-1,-2,-1l-1,0c0,0,0,-1,0,-1c1,1,1,1,1,1l1,0c0,0,1,0,1,-1c1,0,1,0,1,0c1,0,1,-1,1,-1c0,0,1,0,1,-1l1,0c0,-1,0,-1,0,-2l0,-1l0,-1c0,-1,0,-1,0,-1c0,0,0,1,0,1l1,0l1,0c1,0,1,0,1,0c1,0,1,0,2,0c0,0,1,0,1,0l2,-1l-1,-1l-1,0l-1,0l0,-1l-1,0l0,1l-1,0c0,-1,0,-1,1,-1c0,-1,0,-1,0,-1c1,0,1,0,1,0c1,0,1,0,1,0l1,0l2,1l1,0c0,0,1,1,1,1c0,0,1,0,1,0c1,0,1,0,1,0l2,0ZM385.5,224.5c0,-1,1,-1,1,-1c0,0,1,0,1,0c1,0,1,0,2,0c0,0,0,1,0,1c0,0,0,1,0,1c-1,0,-1,0,-1,1c0,0,-1,0,-1,0l-1,0l-1,0l2,-1c1,0,1,0,2,-1c-1,0,-1,0,-1,0c-1,0,-1,0,-1,0c0,0,-1,0,-1,0c-1,0,-1,1,-1,1l0,-1ZM379.5,225.5l5,-2l-1,1l-4,2ZM372.5,242.5l-1,-1l0,-2l2,1ZM374.5,248.5l-1,0c0,0,-1,0,-1,0c0,0,-1,0,-1,0c-1,0,-1,-1,-2,-1c0,0,-1,0,-2,-1l0,-1c-1,0,-1,0,-1,-1l0,-1l0,-1c0,-1,0,-2,0,-2c0,-1,0,-2,1,-2c0,-1,1,-2,1,-2c1,-1,2,-1,3,-2l-1,0l-1,0l-1,0l-1,0l-1,0l1,-1l0,-1l1,0l1,0l1,0l2,0c1,1,1,1,2,1c1,0,2,0,2,0l1,0l-1,1l-1,0c-1,0,-1,0,-1,0l-1,0l-1,0c0,0,-1,1,-1,1c0,0,-1,0,-1,0l-1,1c-1,1,-1,1,-1,1c-1,1,-1,1,-1,2c0,1,0,1,0,2c0,0,0,1,0,1c0,0,0,1,0,1c0,0,1,1,1,1l1,1l1,0c0,1,1,1,1,1c1,0,1,0,2,0l2,0c1,0,1,0,1,0l1,0l1,0l1,0ZM368.5,225.5l5,-2l-1,1l-4,2ZM182.5,175.5l4,-2l0,1l-5,2ZM183.5,192.5l0,-1l0,-2l0,-8l0,-3l1,11c0,0,0,1,0,1c0,1,-1,1,-1,2ZM295.5,182.5l0,-1c0,0,0,-1,0,-1c-1,-1,-1,-1,-1,-2l1,-1c0,0,0,1,0,1c0,1,0,1,0,1l0,1c0,1,0,1,0,1c0,0,0,1,0,1ZM285.5,182.5l0,-1c0,0,0,-1,0,-1c0,-1,0,-1,-1,-2l1,0l0,-1c0,0,0,1,0,1c1,1,1,1,1,1l0,1c0,1,0,1,0,1c-1,0,-1,1,-1,1ZM240.5,192.5c0,0,-1,0,-1,0c-1,0,-1,0,-1,0c-1,0,-1,0,-2,0c-1,0,-1,0,-1,0c0,-1,0,-1,0,-1c0,0,0,-1,0,-1c0,1,0,1,0,1c0,0,1,0,1,0c0,-1,1,-1,1,-1c1,-1,1,-1,1,-1l0,-1l0,-1c-1,0,-1,0,-1,0c0,-1,-1,-1,-1,-2c-1,0,-1,-1,-2,-1c0,-1,0,-1,-1,-1c0,0,0,-1,0,-1c0,0,0,1,-1,1l0,-1c-1,0,-1,0,-1,-1c0,-1,0,-1,0,-1c0,0,0,-1,0,-1c1,0,1,0,1,1c1,0,1,1,2,1c1,1,1,2,2,2c0,1,1,1,2,2c0,1,0,1,0,1c1,1,1,1,1,1l0,-1c0,-1,0,-1,0,-2c1,-1,1,-1,1,-2l0,-1c0,0,0,-1,0,-1c-1,0,-1,-1,-1,-1c0,0,0,-1,1,-1c0,0,0,-1,0,-1l0,1c0,0,1,0,1,0c0,1,0,1,1,1c-1,0,-1,0,-1,1c0,1,0,1,0,1c0,0,0,1,0,2l0,1c-1,0,-1,1,-1,1c0,1,0,1,0,2c0,0,0,1,-1,1c0,0,1,0,1,1c0,0,0,1,0,1l0,1c0,1,0,1,0,1ZM239.5,189.5l-1,1c0,0,1,0,1,0ZM368.5,175.5l1,0c0,0,1,0,1,0c1,0,1,0,2,0l0,1l-1,1l-1,0c0,0,0,1,0,1c0,0,-1,0,-1,0c-1,0,-1,0,-1,0l2,-1c0,0,1,0,1,-1c-1,0,-1,0,-1,0c-1,0,-1,0,-2,0c0,0,0,-1,0,-1ZM175.5,177.5c1,0,1,-1,1,-1c1,0,1,0,2,0c0,0,1,0,1,0c0,1,1,1,1,1c-1,1,-1,1,-1,1c0,0,0,1,-1,1c-1,0,-1,0,-1,0l-1,0l1,0c1,-1,1,-1,2,-1c0,0,-1,0,-1,-1l-1,0c0,0,-1,0,-1,1l-1,0c0,-1,0,-1,0,-1ZM406.5,178.5c1,-1,1,-1,1,-1c0,0,1,-1,1,-1c0,1,0,1,0,1c0,0,1,0,1,1l-1,0l0,1l0,1l1,0l0,1l-1,-1l-1,1c-1,1,-1,1,-1,1l-1,0l-1,0l1,0l1,-1l0,-1l1,0l-1,-1l0,-1ZM408.5,178.5l-1,0l0,1l1,0l0,-1ZM414.5,174.5l0,-1c0,0,0,-1,0,-1c0,-1,0,-2,-1,-2l1,-1l0,1c0,0,1,1,1,1l0,1c0,0,0,1,0,1c-1,0,-1,0,-1,1ZM413.5,176.5l0,1l1,0l0,-1l1,-1l0,1c0,0,1,0,1,0l0,-1l1,-1l0,1l0,1l0,1c0,0,-1,0,-1,1l-1,0l0,-1l-1,1c0,0,0,1,-1,1c0,0,0,-1,0,-1c0,0,-1,0,-1,0l0,-1l0,-1l1,0ZM49.5,191.5l-1,0c0,0,-1,0,-1,0l-1,-1c0,1,-1,1,-1,1l0,1l-1,0l-1,0l-1,0c-1,0,-1,-1,-2,-1c0,-1,-1,-1,-1,-2l0,-8l1,-3l0,10l0,1l1,0c0,1,1,1,1,1l1,0l1,0c1,0,1,0,1,0l1,-1l0,-1c1,0,1,-1,1,-1l1,0c0,-1,0,-1,0,-1c1,0,1,0,1,1c0,0,1,1,1,1l0,1l0,1c0,1,0,1,-1,1ZM47.5,189.5l1,0l1,0c0,0,0,-1,0,-1c-1,0,-1,0,-1,0c0,0,-1,0,-1,0l0,1ZM44.5,178.5l5,-2l-1,1l-4,2ZM37.5,176.5l0,-1c1,0,1,1,2,1c1,0,1,0,1,0l1,0l1,0c0,0,-1,0,-1,1l-1,0l-1,0l-1,0l0,-1l-1,0l0,1c0,0,-1,0,-1,0c0,-1,0,-1,1,-1ZM31.5,189.5c1,0,1,0,1,-1c0,0,1,0,1,-1l1,0c1,0,1,0,1,0c0,0,0,1,0,1l0,1l-1,0l-1,0l-1,0l1,1l1,0l1,0c0,0,1,0,1,0c0,0,0,1,0,1l-1,0l-4,2c0,0,0,-1,0,-1l1,0c0,-1,0,-1,0,-1c-1,-1,-1,-1,-1,-1c0,0,0,-1,0,-1ZM29.5,183.5l5,-2c0,1,0,1,-1,1l-4,3ZM31.5,180.5l5,-2c0,0,-1,1,-1,1l-5,2ZM103.5,192.5l0,-2l0,-1l0,-8l1,-3l0,11c0,0,0,1,0,1c0,1,0,1,-1,2ZM96.5,190.5l1,0l1,0c0,0,0,-1,0,-1l0,-1l0,-1l0,-7c0,-1,0,-1,0,-2l1,0c0,1,0,1,0,1l1,0c0,1,0,1,-1,1c0,1,0,1,0,1c0,1,0,1,0,2c0,0,0,1,0,3c0,0,0,1,0,1l0,1c0,0,0,1,0,1c0,0,0,1,0,1c-1,1,-1,1,-1,1c0,0,-1,0,-1,0c0,0,-1,1,-1,1l-1,0l-1,-1c0,0,0,-1,0,-1c-1,0,-1,0,-1,-1l0,1l-1,1l-1,0c-1,0,-1,0,-1,-1l-1,1c0,0,-1,0,-1,1l-1,0c0,0,-1,-1,-1,-2l-1,1c0,0,-1,0,-2,0l0,1l-1,0c-1,0,-1,-1,-2,-1c0,0,-1,1,-1,1c-1,0,-1,0,-2,0l-1,-1l-1,-1l-1,1c0,0,-1,1,-1,1l-1,0l-1,0l-1,0c-1,0,-1,-1,-2,-1c0,-1,0,-1,0,-2l-1,-8l1,-3l1,10l0,1c0,1,1,1,1,1l1,0l1,0l1,0c0,0,1,0,1,0l1,-1l0,-1c1,-1,2,-2,3,-2l0,1l1,1l1,1c1,1,1,1,1,1l1,0l1,0l1,0l1,0c0,-1,1,-1,1,-2l0,1l1,0c0,0,0,1,0,1c1,0,1,0,2,-1l1,-1c0,0,0,1,1,1l1,0c0,0,1,0,1,0c0,-1,0,-1,0,-1l1,0c0,1,1,2,1,2l1,0ZM88.5,182.5c0,1,1,1,1,1c0,-1,0,-1,0,-1l1,-1l0,1l1,0l0,-1l0,-1l0,1l0,1c0,1,0,1,0,1l-1,0l-1,0c0,1,0,1,0,1c-1,0,-1,0,-1,0c0,-1,0,-1,0,-1l0,-1ZM92.5,179.5l-5,3c0,-1,0,-2,0,-2l6,-3ZM79.5,190.5l-1,-1c0,0,0,-1,0,-1c-1,0,-1,0,-1,0l-1,1c0,0,1,0,1,0l1,1ZM75.5,178.5l4,-2l0,1l-4,2ZM65.5,176.5l0,-1l1,0c0,0,0,1,1,1c1,0,1,0,2,0l1,0l-1,1l-1,0l-1,0l-1,0l0,-1l-1,0l0,1c0,0,-1,0,-1,0c0,-1,1,-1,1,-1ZM59.5,189.5l1,-1l1,-1l1,0c1,0,1,1,1,1l0,1l-1,0l-1,0c0,0,-1,0,-1,0l0,1c1,0,1,0,1,0l1,0c1,0,1,0,2,0c0,0,0,1,0,1c0,0,-1,0,-1,0l-4,2c0,0,0,-1,0,-1l1,0c0,-1,0,-1,0,-1l-1,0c0,-1,0,-1,0,-1c0,0,0,-1,0,-1ZM63.5,195.5l-5,2c1,-1,1,-1,1,-1l4,-2ZM148.5,191.5l-1,0l-1,0l-1,-1l-1,0c0,1,0,1,0,1l-1,0l0,1l-1,0c0,1,0,1,0,1l0,1c0,0,0,1,-1,1c-1,1,-1,1,-1,1c-1,0,-1,0,-2,1l-1,0c-1,1,-2,1,-3,1c-1,0,-2,0,-3,0c0,0,-1,0,-2,1c-1,0,-1,0,-2,0c-1,0,-1,0,-2,0c0,-1,-1,-1,-2,-1c-1,0,-1,0,-2,0c-1,0,-2,0,-2,-1c-2,0,-3,-1,-4,-1c-1,-1,-2,-1,-2,-2c-1,0,-1,-1,-1,-1c1,0,1,0,1,0c1,1,1,1,1,1c1,0,2,1,3,1c0,0,1,0,1,0c1,1,1,1,2,1c0,0,1,0,2,0c0,1,1,1,2,1c0,0,1,0,2,0c0,0,1,0,1,0c1,0,1,0,2,0c1,0,1,0,2,0c1,0,2,0,3,-1c1,0,2,0,3,0c0,0,1,-1,2,-1c1,0,1,-1,2,-1c0,0,0,-1,0,-1l0,-1l-1,-1l1,-2c0,0,1,1,1,1l1,0c0,0,1,0,1,0l0,-1l1,-1c0,0,1,-1,1,-1c0,-1,1,-1,1,-1c0,0,1,0,1,1c0,0,0,1,0,1l1,1l0,1l-1,0c0,1,0,1,0,1ZM146.5,189.5l1,0c0,0,0,-1,0,-1c-1,0,-1,0,-1,0l0,1ZM147.5,195.5l-4,2c0,-1,0,-1,0,-1l4,-2ZM129.5,192.5l-1,-1l0,-2l2,1ZM120.5,182.5l1,0l2,-1l6,-2l4,-2l1,0l-1,2l-1,0l-1,0l-2,1l-5,2l-4,1l-1,0ZM190.5,188.5l-1,0c1,0,1,0,1,0c0,1,0,1,0,1c0,0,1,0,1,0c0,-1,0,-1,0,-1c0,0,-1,0,-1,0ZM190.5,195.5c0,0,0,1,0,1c-1,0,-1,0,-1,0c-1,0,-1,0,-2,0c-1,0,-1,0,-2,0l-1,-1c1,0,1,0,1,0c1,0,1,0,1,0c0,0,1,0,1,0c1,0,1,0,1,0l1,0c0,-1,0,-1,1,-1c0,0,0,-1,0,-1c1,0,1,-1,1,-1c1,-1,1,-1,1,-1c0,-1,0,-1,0,-1c0,0,-1,0,-1,0l0,1c0,0,-1,0,-1,0l-1,0l0,-1c0,0,0,-1,0,-1c0,0,0,-1,0,-1c0,-1,0,-1,0,-1c0,-1,1,-1,1,-1l1,0c1,0,1,0,1,1c0,1,0,1,0,1c0,1,1,1,1,2c-1,0,-1,1,-1,1c0,1,0,2,0,2c0,1,-1,1,-1,1c0,1,0,1,-1,1ZM187.5,182.5l5,-2l-1,0c0,1,0,1,0,1l-4,2ZM177.5,185.5l-1,-1l1,-2l1,1ZM177.5,192.5l-1,0l-1,0l0,-1l0,1l0,1c-1,0,-1,1,-1,2l-1,0c0,1,0,1,0,1c-1,0,-1,1,-1,1c-1,0,-1,0,-1,0c-1,0,-1,0,-1,0l-1,0c0,0,-1,0,-1,0c-1,0,-1,0,-1,-1l1,0c1,0,1,0,2,0c0,0,1,0,1,-1c0,0,1,0,1,0c0,0,0,-1,0,-1c1,0,1,-1,1,-1c0,0,1,-1,1,-1c0,-1,0,-1,0,-1c0,0,-1,0,-1,0c0,-1,0,-1,0,-1l0,-1c0,0,1,0,1,0l1,1l1,0l1,0c0,0,1,0,1,0c1,0,1,-1,1,-1c0,-1,0,-1,0,-1c0,0,0,-1,0,-1l-1,0l1,-2c0,0,1,1,1,1c0,1,0,1,0,1c0,1,0,1,0,1c0,1,0,1,0,1c0,1,0,1,0,1l-1,0c0,1,0,1,-1,1c0,0,-1,1,-1,1ZM173.5,187.5l-1,-1l1,-2l1,1ZM170.5,178.5l4,-2l0,1l-4,2ZM166.5,180.5c-1,0,-1,0,-1,-1l1,-1c0,1,0,1,1,1c0,1,0,1,0,1c0,1,0,1,0,1c0,1,0,1,0,2c0,2,0,3,0,3c0,1,0,2,0,3l0,1c0,1,0,1,0,2c-1,0,-1,1,-1,1c-1,1,-1,1,-1,1c-1,0,-1,0,-1,0c-1,1,-2,1,-3,1l-1,0l-1,0c0,0,-1,-1,-1,-1c0,0,0,-1,-1,-1c0,0,0,-1,0,-1c0,-1,0,-2,0,-2c1,-1,1,-1,1,-1l0,-1l1,0l0,-1l0,1l-1,0c0,1,0,1,0,1c0,1,0,1,0,1c0,1,0,2,1,2c0,1,1,1,2,1c1,0,2,0,3,-1c1,0,2,0,2,-1c0,0,0,-1,0,-1c0,-1,0,-2,0,-3c0,-1,0,-3,0,-4c0,-1,0,-2,0,-3ZM157.5,178.5l5,-2l-1,1l-4,2ZM252.5,188.5l-1,0c0,1,1,1,1,1c0,-1,1,-1,1,-1c0,0,-1,0,-1,0ZM252.5,195.5c0,0,0,1,-1,1c-1,0,-1,0,-2,0c-1,0,-1,0,-2,0c0,0,-1,0,-1,-1c0,0,1,0,1,0l1,0l1,0l1,0c1,-1,1,-1,1,-1c1,0,1,-1,1,-1c0,0,1,-1,1,-1c0,-1,0,-1,0,-1c0,-1,0,-1,0,-1l0,1c0,0,-1,0,-1,0l-1,0l0,-1c-1,0,-1,0,-1,0c0,0,0,-1,0,-1c0,0,0,-1,0,-1c1,-1,1,-1,1,-1c0,-1,0,-1,1,-1c1,0,1,0,1,0l1,1c0,1,0,1,0,1c0,1,0,1,0,2c0,0,0,1,0,1c0,1,0,2,-1,2c0,1,0,1,0,1c0,1,-1,1,-1,1ZM249.5,182.5l4,-2c0,1,0,1,0,1l-4,2ZM245.5,192.5l0,-2l0,-1l0,-8l0,-3l1,11c0,0,0,1,0,1c0,1,-1,1,-1,2ZM230.5,173.5l4,-2l0,1c0,0,-1,0,-1,0l-4,2ZM240.5,174.5c0,-1,0,-1,1,-1l1,0l1,0c0,0,0,1,0,1c0,0,0,1,0,1c-1,0,-1,0,-1,0l-1,0l-1,0l1,0c1,0,1,0,1,-1l-1,0l-1,0ZM220.5,195.5c0,0,1,0,1,0l1,0c1,0,1,0,2,-1c1,0,1,-1,2,-1c0,-1,1,-1,1,-2c0,-1,0,-1,0,-1c0,-1,0,-1,0,-1l0,-1l-1,0l1,-2c1,1,1,1,1,2l0,1l0,1c0,0,0,1,0,1l0,1l-1,1l0,1c0,0,-1,0,-1,1l-1,0c-1,0,-1,1,-1,1c0,0,-1,0,-1,0l-1,0c0,0,0,-1,-1,-1l-1,0ZM222.5,181.5c0,0,1,-1,1,-1c0,0,1,0,1,0c1,0,1,0,2,0c0,1,0,1,0,1c0,1,0,1,0,1c-1,0,-1,1,-1,1c0,0,-1,0,-1,0l-1,0c0,0,-1,0,-1,0l2,0c1,-1,1,-1,1,-1c0,0,0,-1,0,-1c-1,0,-1,0,-1,0c-1,0,-1,0,-1,1c-1,0,-1,0,-1,0c0,-1,0,-1,0,-1ZM213.5,185.5l-2,-1l1,-2l2,1ZM211.5,192.5l-1,0l0,1l0,1l0,-1l0,-1l-1,0l0,1c0,0,0,1,0,1c-1,0,-1,1,-1,1c0,1,0,1,-1,1c0,1,0,1,0,1c-1,0,-1,1,-1,1c-1,0,-1,0,-2,0c0,0,0,1,-1,1c-1,0,-2,0,-3,-1c0,0,-1,0,-1,-1c0,0,-1,0,-1,-1c0,0,0,-1,0,-1l0,-1c0,-1,0,-1,0,-1l0,-1c0,0,1,-1,1,-1l1,0l-1,0c0,1,0,1,0,1c0,1,0,1,0,2c0,0,0,1,0,1c0,0,1,1,1,1c0,0,1,1,1,1l1,0c0,0,1,0,1,0c0,0,1,0,1,0c1,-1,1,-1,2,-1c1,0,1,-1,1,-1c1,-1,1,-1,1,-2c0,-1,0,-1,0,-2c-1,0,-1,0,-1,-1l1,-1c0,1,1,1,1,1l1,0l1,0l0,-1l1,0l1,-1l1,-1l1,0l0,-1c1,0,1,0,2,0l1,0l1,0c1,0,1,1,1,1c0,1,0,1,0,1c0,1,0,1,0,1l0,1l-1,0c0,1,-1,1,-1,1l-1,0c-1,0,-1,0,-1,0l-2,1l-1,0l-1,0ZM215.5,188.5l-1,0l0,1l-1,0l-1,1l3,0l1,0c0,0,1,0,1,0c1,-1,2,-1,2,-1l0,-1l-1,0l-1,0c0,0,-1,0,-1,0c0,0,-1,0,-1,0ZM201.5,182.5l4,-2c0,1,0,1,0,1l-5,2ZM321.5,192.5l0,-2l0,-1l0,-8l0,-3l1,11c0,0,0,1,0,1c0,1,-1,1,-1,2ZM313.5,190.5c1,0,1,0,1,0c1,0,1,0,1,0c0,0,1,-1,1,-1l0,-1l0,-1l-1,-7c0,-1,0,-1,0,-2c1,0,1,0,1,0c0,1,0,1,0,1c1,0,1,0,1,0c0,1,0,1,0,1c0,1,0,1,0,1c0,1,0,1,0,2c0,0,0,1,0,3c0,0,0,1,0,1l0,1c0,0,0,1,0,1c0,0,0,1,0,1c-1,0,-1,0,-1,0c0,1,0,1,0,1l-1,0l-1,0c0,0,0,1,0,1l-1,0l-1,-1c-1,0,-1,-1,-1,-1l0,-1l0,1c0,0,-1,0,-1,1c0,0,-1,0,-1,0c-1,0,-1,0,-2,-1l0,1c-1,0,-1,0,-2,1c-1,0,-1,-1,-2,-2l0,1c-1,0,-1,0,-2,0l0,1l-1,0l-1,0c0,0,0,-1,-1,-1l-1,0c0,0,0,1,-1,1c0,0,-1,0,-1,0l-1,-1l-1,-1l-1,1c-1,0,-1,1,-1,1l-2,0l0,-2l2,0l1,-1l1,-1c1,-1,2,-2,2,-2l0,1l1,1l1,0l0,1l1,0c0,1,0,1,1,1l1,0l1,0l1,0c1,-1,1,-1,2,-2l0,1c0,0,1,1,1,1c1,0,1,0,2,-1l0,-1l1,0c0,0,0,1,0,1c0,0,1,0,1,0c1,0,1,0,1,0l1,0c0,-1,0,-1,0,-1c1,1,1,2,2,2ZM306.5,182.5c0,1,0,1,0,1l1,0c0,-1,0,-1,0,-1l0,-1l1,0l0,1c0,0,1,0,1,-1l0,-1l0,1l0,1c0,1,0,1,-1,1l-1,0c0,1,-1,1,-1,1c0,-1,0,-1,0,-1l-1,0l0,-1l1,0ZM310.5,179.5l-6,3c1,-1,1,-2,1,-2l5,-3ZM297.5,190.5l-1,-1c0,0,-1,-1,-1,-1l-1,0l0,1l1,0l1,1ZM289.5,190.5l0,2l-2,0l0,1c0,0,-1,0,-1,1c0,0,0,1,-1,1c0,0,0,1,0,1c-1,0,-1,0,-1,0c0,1,-1,1,-1,1l-1,0l-1,0c0,0,-1,0,-1,0c-1,-1,-1,-1,-1,-1l1,0c1,0,1,0,2,0c0,0,1,-1,1,-1c0,0,1,0,1,0c0,-1,0,-1,1,-1c0,0,0,-1,0,-1c0,0,1,0,1,-1l-1,0c0,-1,-1,-1,-1,-1c-1,0,-1,0,-1,-1l0,-1l0,-1l1,0l0,-1l1,0c0,0,1,0,1,0l0,1l1,0c0,0,0,1,0,1c0,0,0,1,0,1c0,0,1,0,1,0c0,0,1,0,1,0ZM285.5,189.5l-1,0c0,1,0,1,1,1c0,0,1,0,1,0l0,-1l-1,0ZM270.5,185.5l-1,1l-1,-1l-1,1l-1,-1l1,-1l1,1l1,-1ZM276.5,190.5c-1,0,-1,0,-2,1c-1,0,-2,0,-3,1c-1,0,-3,0,-4,0c-1,0,-2,0,-3,0c-1,0,-2,-1,-3,-1c0,-1,0,-1,0,-1c0,0,-1,0,-1,-1l0,-1c0,0,0,-1,1,-1c0,-1,0,-1,1,-2c0,0,0,1,0,1l0,1c-1,0,-1,0,-1,1l1,1l1,1c0,0,1,0,1,0l1,0l1,0l2,0c1,0,1,0,2,0l1,0c0,0,1,0,1,0l1,-1c1,0,1,0,2,0c0,-1,1,-1,1,-1l0,-1c0,0,-1,-1,-1,-1l0,-1c1,0,1,-1,1,-1c0,1,0,1,1,2c0,0,0,1,0,1c0,1,0,1,0,1c-1,1,-1,1,-1,2ZM266.5,195.5l-4,2c0,-1,0,-1,0,-1l4,-2ZM347.5,184.5l-1,-1l1,-1l1,1ZM356.5,187.5l-1,2l-1,0l-1,0c-1,0,-1,0,-2,0l-1,1l-2,1c0,0,-1,0,-1,0l-1,0l-1,0l0,1l-1,0c0,0,-1,-1,-1,-1c0,0,-1,-1,-1,-2c0,1,0,2,-1,2l0,1l-1,0l-1,0c0,1,0,1,0,1l0,1l-1,0c0,1,-1,2,-2,2c-1,1,-2,1,-3,1l-1,0c-1,0,-1,0,-2,0c0,0,-1,-1,-1,-1c-1,-1,-1,-1,-1,-2l0,-1l0,-1c0,-1,1,-1,1,-2c0,-1,1,-1,1,-1l0,1l-1,1c0,0,0,1,0,2l0,1c0,0,1,0,1,1l1,0c0,0,1,0,1,0c0,0,1,0,1,0c1,0,1,0,2,0c0,0,1,0,1,-1c1,0,1,0,1,0c1,-1,1,-1,1,-1c0,-1,0,-1,0,-1l-1,0c-1,0,-1,-1,-1,-1c0,0,-1,0,-1,0c0,-1,0,-1,0,-1c0,-1,0,-1,0,-1c0,0,0,-1,0,-1l1,-1l1,0l1,0c0,1,0,1,0,2c0,0,1,0,1,0c0,0,0,1,0,1l1,0c1,0,1,-1,2,-1l0,-1c0,0,0,-1,0,-1l0,-1l-1,-6l1,-2l1,10c0,1,0,1,0,1c0,1,1,1,1,1c0,-1,0,-1,0,-1c0,0,1,0,1,0c0,-1,0,-1,0,-1l0,-1l1,0c0,-1,0,-1,1,-1l1,0l1,0c0,0,1,0,1,0l1,1l2,0l1,0l1,0c1,0,1,0,1,0ZM351.5,188.5l-1,0c-1,0,-1,0,-1,0c0,-1,-1,-1,-1,-1l-1,0c0,1,0,1,0,1c-1,0,-1,0,-1,0l0,1c-1,0,-1,0,-1,0l0,1l1,0l1,0l1,-1l1,0l1,-1ZM420.5,173.5l4,-2l0,1l-4,2ZM348.5,178.5l4,-2l0,1l-1,0l-4,2ZM339.5,175.5l4,-2l0,1l-4,2ZM337.5,185.5l-1,-1l-1,2l-2,-1l1,-2l2,1l1,-1l1,1ZM336.5,189.5c0,1,0,1,0,1c1,0,1,0,1,0c0,0,1,0,1,0c0,0,-1,0,-1,-1l-1,0ZM331.5,178.5l4,-2l0,1l-5,2ZM397.5,192.5l0,-2l0,-1l0,-8l0,-3l1,11c0,0,0,1,0,1c0,1,-1,1,-1,2ZM390.5,192.5c0,0,-1,0,-1,0c0,-1,0,-1,0,-1c-1,-1,-1,-1,-1,-2c0,1,0,1,0,1c0,0,-1,0,-1,1c0,0,-1,0,-1,0c-1,0,-2,0,-2,0c0,0,-1,0,-1,0c-1,0,-1,0,-1,-1c0,0,0,-1,0,-1l0,-1c0,1,0,1,1,1c0,0,1,0,1,0c1,0,1,0,1,0c1,0,1,0,1,0c1,0,1,0,1,0c0,0,1,0,1,-1l0,-1c0,0,0,-1,-1,-2c0,0,0,-1,0,-1l1,-1c0,0,0,-1,0,-1l0,2l1,1c0,1,0,2,0,2c0,1,0,1,0,2l1,1l0,1c0,0,1,0,1,0c0,1,1,1,1,1l0,-1c1,0,1,0,1,0c0,0,-1,-1,-1,-3c0,0,0,-1,0,-2l0,-1c0,-1,0,-1,0,-2c0,-1,0,-2,0,-3c0,-1,0,-1,0,-2c1,0,1,0,1,0c0,0,0,1,0,1l1,0c0,1,0,1,0,1c-1,1,-1,1,-1,1c0,1,0,1,0,2c0,0,0,1,0,3c0,0,0,1,0,1c0,0,0,1,0,1c1,2,1,2,1,2c0,1,0,1,-1,1l0,1c0,0,0,1,0,1l-1,0c-1,0,-1,0,-1,0c-1,0,-1,0,-1,-1ZM391.5,174.5l1,0c0,1,0,1,0,1l0,-1l1,0l0,-1l0,1c0,0,1,0,1,0l0,-1l0,-1l1,0l0,1l0,1c-1,1,-1,1,-1,1l-1,0c-1,1,-1,1,-1,1c0,0,-1,0,-1,0c0,-1,0,-1,0,-1l0,-1ZM396.5,171.5l-6,3c0,-1,1,-2,1,-2l5,-3ZM387.5,181.5l-2,-1l1,-1l2,0ZM385.5,195.5l-4,2c0,-1,0,-1,0,-1l4,-2ZM378.5,185.5c-1,0,-1,0,-1,0c0,0,-1,0,-1,0c-1,0,-1,0,-2,1c-1,1,-1,1,-1,2l1,1c0,0,1,0,1,0l1,0c1,0,1,0,2,0c0,1,0,1,0,1c0,1,0,1,0,1c0,1,-1,1,-1,1l-1,1c0,0,-1,1,-2,1c0,0,-1,0,-2,1c-1,0,-1,0,-2,0l-1,0c0,0,-1,0,-2,0c0,0,-1,-1,-1,-1c0,0,-1,-1,-1,-1c0,-1,0,-1,0,-2c0,-1,0,-1,0,-2c0,-1,0,-1,1,-2l0,-1l1,0l0,1c0,0,-1,0,-1,1c0,1,0,1,0,1c0,0,0,1,0,1c0,1,0,1,0,1c0,0,0,1,1,1c0,1,1,1,3,1c1,0,2,0,3,0l2,-1l1,0c0,-1,0,-1,1,-1l-2,0c-1,-1,-2,-1,-2,-1c-1,0,-1,-1,-1,-1c0,0,0,-1,0,-1c0,0,0,-1,1,-1c0,-1,0,-1,0,-1c1,-1,1,-1,1,-1c0,0,1,-1,1,-1c0,0,1,-1,1,-1c1,0,1,0,2,0c0,0,1,0,1,0c0,0,0,1,0,1l-1,1ZM423.5,192.5l0,-2l0,-1l-1,-8l1,-3l1,11c0,0,0,1,0,1l-1,0c0,1,0,1,0,2ZM410.5,186.5l0,1c0,0,-1,0,-1,0c-1,1,-1,1,-1,1c1,0,1,0,2,0Z" class="g1_38" />
<path fill-rule="evenodd" d="M402.5,312.5c0,-1,0,-1,0,-1c1,0,1,-1,1,-1c0,0,1,0,1,1l0,1l0,1l0,1l0,1l-1,-1l-1,1c0,0,-1,1,-1,1l-1,0l1,-1l1,-1l0,-1l0,-1ZM161.5,408.5l0,1l-1,0c0,0,0,1,0,1l0,1c0,0,0,1,0,1l0,-1l0,-1l0,-1c0,-1,0,-1,0,-1c1,0,1,-1,2,-1l1,0ZM161.5,410.5c1,-1,1,-1,1,-1c0,0,1,0,1,0c1,0,1,0,1,1l0,1l-1,0l1,1l0,1l-1,-1l-1,1c-1,1,-1,1,-1,1l-1,0l-1,0l1,0l1,-1l1,-1c-1,-1,-1,-1,-1,-1l0,-1ZM163.5,410.5l-1,0l0,1l1,0l0,-1ZM107.5,410.5c-1,0,-1,0,-1,0l0,1l-1,0c0,0,0,1,0,1l0,1c0,0,1,1,1,1l-1,0l0,-1l0,-1l0,-1c0,-1,0,-1,1,-1c0,0,0,-1,1,-1l1,0l0,-1ZM107.5,412.5c0,-1,0,-1,0,-1c0,0,1,-1,1,-1c0,1,0,1,0,1c1,0,1,0,1,1l0,1l-1,0l1,1l0,1l-1,-1l-1,1c0,1,-1,1,-1,1l-1,0c0,0,-1,0,-1,0l1,0l1,-1l1,-1l0,-1c-1,0,-1,0,-1,0l0,-1l1,0ZM108.5,412.5l-1,0l0,1l1,0l0,-1ZM298.5,421.5l0,-1l1,0c0,-1,0,-1,0,-1l0,-1l0,-1l0,-1l-1,-1c0,-1,0,-1,1,-1l0,1l0,1l0,1l0,1l0,1l1,0l0,-1l1,0l1,0c1,0,1,0,1,0l0,1l0,1c-1,0,-1,0,-1,0c-1,0,-1,0,-2,0c0,1,0,1,-1,1ZM301.5,419.5l-1,0l-1,1l1,0l1,0c0,-1,1,-1,1,-1l-1,0ZM244.5,426.5c-1,0,-1,0,-2,0l-1,0c0,0,-1,0,-1,0c-1,0,-1,0,-1,0c0,0,-1,0,-1,0c0,-1,0,-1,0,-1c0,-1,0,-1,1,-1l1,0c1,0,1,0,1,-1c1,0,1,0,1,-1l-1,-1c-1,-1,-1,-1,-2,-2c0,0,-1,-1,-1,-1c0,-1,-1,-1,-1,-1c0,0,0,-1,-1,-1c0,1,0,1,0,1c0,0,-1,-1,-1,-1l-1,-1l0,-1c0,0,0,-1,0,-1c1,0,1,0,1,0c0,0,1,0,1,1c1,0,1,1,2,1c0,1,1,1,1,2c1,1,2,1,2,2c0,1,1,1,1,1c0,1,0,1,1,1l0,-1c0,-1,0,-1,0,-2c0,-1,0,-1,0,-2l0,-1c0,-1,0,-1,0,-2c0,-1,0,-1,0,-1c0,-1,1,-1,1,-1c0,1,0,1,0,1c0,0,1,1,1,1l0,1l-1,0c0,1,0,1,0,1c0,0,0,1,0,1c0,1,0,1,0,2c0,0,0,1,0,1c0,1,0,1,-1,2c0,0,0,1,0,1l0,1l1,1c0,1,0,1,0,1c0,0,0,1,0,1ZM242.5,423.5l0,1c0,0,-1,0,-1,0c0,0,1,0,1,0l1,0ZM98.5,422.5c0,1,0,2,0,2c0,1,0,1,-1,1l0,1l-1,0l2,1l-1,0l0,1l-1,0l0,1l-1,0l-1,1l-1,0l-1,0l-1,1l-1,1l-1,1l-2,0l-4,0c-1,0,-1,-1,-1,-1l-1,-1l-1,0c-1,-1,-1,-1,-2,-1l-1,-1l-1,0l0,-1l-1,0l-1,-1l1,-1l-1,-1l0,-1c0,-1,0,-1,0,-1l0,-1l0,-1c0,0,0,-1,0,-2l1,0l0,-1l-1,0c0,0,0,-1,1,-1l1,-1l1,0l0,-1l1,0l1,0l1,-1c0,0,1,0,1,0l0,-1l1,-1l1,0l3,0l1,0l2,0l1,0l0,1l1,0l0,1l2,1l1,0c0,0,1,0,1,0l0,1l1,0c1,1,1,1,2,2l-1,0l0,1l1,1l0,1ZM89.5,432.5l1,0l0,-1l1,-1c1,0,1,0,2,0l1,-1c0,0,1,0,1,0l0,-1l1,0l1,-1l-1,0l0,-1l1,0l0,-1l1,-1l0,-1l0,-1c0,-1,0,-1,-1,-2l0,-1l-1,-1l1,0c0,-1,0,-1,-1,-1l0,-1l-1,0l-1,0l0,-1l-1,0l-2,-1l-1,0l0,-1l-1,0l0,-1l-1,0l-1,0l-1,0l-3,0l-1,0l0,1l-1,1l-1,0l-1,1l-1,0l-1,0l0,1l-1,0l0,1c-1,0,-1,0,-2,1l1,0l1,0l-1,1l-1,1l0,1c0,1,0,1,0,1l0,1l0,1l0,1l1,0l0,1l1,0l0,1l-2,0l1,0l1,1l1,1l1,0l1,1l1,0c1,0,1,1,1,1l1,0l0,1c0,0,1,0,1,1l3,0l0,-1ZM95.5,417.5l0,1l-1,0l0,-1l-1,0l-1,-1c-1,0,-1,0,-1,0l0,-1c0,0,1,0,1,0l0,1l1,0l1,0c0,0,0,1,0,1ZM95.5,427.5l-1,1l-1,0l0,1l-1,0l-1,0l1,0c0,0,-1,-1,-1,-1c1,0,1,0,1,0l1,0c1,0,1,-1,1,-1l1,0ZM90.5,429.5c0,1,0,1,0,1c0,0,-1,1,-1,1l-2,0l-4,0c-1,0,-1,-1,-1,-1c-1,0,-1,-1,-1,-1c0,0,1,0,1,-1l1,0l3,0l3,0l1,0l0,1ZM90.5,415.5c0,1,0,1,0,1l-1,1l-2,0l-1,0l-3,0c-1,0,-1,-1,-1,-1l-1,0l0,-1c0,0,1,0,1,-1l1,0l3,0l1,0l2,0c0,0,1,0,1,0c0,1,0,1,0,1ZM89.5,418.5l1,0c0,-1,0,-1,1,-1c0,0,1,0,1,1l1,1l1,0c0,0,1,0,1,0l0,1l1,1l0,1l0,1c0,0,0,1,0,1l-1,0l0,1c0,1,0,1,0,1l-2,0l0,1c-1,0,-1,0,-1,0l-1,0l-1,0c0,0,-1,0,-1,0l0,-1l-2,0l-4,0l0,1l-1,0l-1,0c0,0,-1,0,-1,0c-1,0,-1,-1,-1,-1l-1,0l-1,0l0,-1l-1,-1l0,-1l0,-1l0,-1l0,-1l1,-1l1,0c1,0,1,0,1,0l0,-1l1,0c0,0,1,-1,1,-1c0,0,1,0,1,1l1,0l3,0l1,0ZM89.5,426.5l0,1l1,0l1,0l1,0l0,-1l1,0c0,-1,0,-1,0,-1l1,1l1,-1l0,-1l0,-1l1,-1c0,0,-1,-1,-1,-1c0,-1,0,-1,0,-2c0,0,-1,0,-1,0l-1,0l-1,-1l-1,0c-1,0,-1,0,-1,0c0,0,-1,0,-1,0l-2,0l-4,0l-1,0l-1,0l-1,0l-1,0l0,1c0,0,-1,0,-1,0l-1,0l0,1l-1,1l0,1l0,1l0,1l1,0c0,1,0,1,0,2l1,-1c0,0,1,0,1,1l1,0l0,1l1,0c0,0,1,0,1,0l1,-1l3,0l3,0ZM87.5,421.5l0,1c0,0,1,0,1,0l-1,1l0,1l1,0l1,0l-1,0c0,1,0,1,-1,1c0,0,-1,0,-1,-1l1,0l0,-1l-1,0l0,-1c0,0,1,-1,1,-1l1,0ZM84.5,422.5l0,1l0,1c0,1,0,1,0,1l0,-1c0,-1,-1,-1,-1,-3l1,0l1,0l1,0c0,1,0,1,-1,1c0,0,-1,0,-1,0ZM77.5,417.5l1,0l0,-1l1,0l1,0l0,-1l0,1l-1,1l-1,0l0,1l-1,0ZM77.5,427.5l1,0l1,1l1,0c0,0,0,1,0,1l-1,0c0,0,-1,-1,-1,-1l-1,0l0,-1ZM149.5,424.5c0,0,-1,0,-2,0c-1,0,-2,0,-4,0c-1,0,-2,0,-2,0c-1,0,-1,0,-1,0c-1,0,-1,0,-1,0c-2,0,-3,1,-5,1c-1,0,-2,0,-3,0c-1,0,-2,0,-3,0l-1,0l-1,0l-1,0c-1,0,-2,0,-2,0c0,0,-1,-1,-1,-1c0,0,-1,1,-2,1c0,0,-1,0,-2,0l-2,0c0,0,-1,0,-1,-1c-1,0,-1,-1,-1,-2l-1,-8l1,-2l1,9l0,1l0,1c0,0,1,0,1,0l2,0c1,0,1,0,1,0c1,0,1,0,1,0l1,0c-1,0,-1,-1,-1,-1c0,-1,0,-1,1,-2c0,0,0,-1,0,-1c0,0,1,-1,1,-1c0,0,1,0,1,0c1,0,1,0,1,0c1,1,1,1,1,2l0,1c0,1,0,1,-1,1c0,0,0,1,0,1l1,0c0,0,1,0,1,0l1,0c0,0,1,0,1,0l1,0c1,0,2,0,3,0c0,0,2,0,3,0c1,0,2,0,4,0l1,0c1,0,2,-1,3,-1c2,0,3,0,4,0c2,0,3,0,3,0c0,0,0,-1,0,-1l-1,0c-1,-1,-1,-1,-1,-1c-1,0,-3,1,-5,1c-2,0,-3,0,-5,0c-2,0,-4,0,-5,0c-2,0,-3,0,-4,0c0,-1,0,-1,0,-1c0,0,0,-1,1,-1c0,-1,0,-1,0,-1c0,0,1,-1,1,-1c1,-1,2,-2,2,-2c1,-1,2,-2,3,-2l1,0l-1,2l-1,0c-1,1,-1,1,-2,2c-1,0,-2,1,-2,2l-1,0l1,1c0,0,1,0,1,0c0,0,1,0,1,0l1,0c1,0,2,0,4,0c2,-1,4,-1,6,-1c2,0,3,0,4,0c1,0,2,0,2,0c1,0,1,1,1,1c0,0,0,1,0,1c0,1,0,1,0,2c0,0,0,1,-1,1ZM134.5,409.5l5,-3c0,1,0,1,0,1l-6,3ZM123.5,417.5l-2,-1l1,-2l2,1ZM123.5,420.5c-1,0,-1,0,-1,0c-1,0,-1,0,-1,1c1,0,1,1,1,1c1,0,1,0,1,0c1,-1,1,-1,1,-1c0,0,0,-1,0,-1c-1,0,-1,0,-1,0ZM122.5,407.5l0,1c1,0,1,0,1,0l0,-1l1,0l0,1c0,0,1,-1,1,-1l0,-1l0,1l0,1c0,0,0,1,0,1l-1,0l-1,-1l0,1c0,0,-1,0,-1,0l0,-1l0,-1ZM126.5,404.5l-6,3c1,-1,1,-1,1,-1l6,-3ZM103.5,428.5l1,0c1,0,2,0,3,-1c0,0,1,0,1,-1c1,0,1,-1,1,-1c1,-1,1,-1,1,-1c0,0,0,-1,0,-1l0,-1l-1,0l0,-1l0,-1l0,-1l1,1l0,1l1,1l0,1c0,1,0,1,-1,2c0,0,0,1,0,1c0,0,0,1,-1,1c0,0,0,1,0,1c-1,0,-1,0,-1,0l0,1l-1,0l-1,0l-1,0c-1,0,-1,0,-1,0c0,0,-1,-1,-1,-1ZM192.5,423.5c0,0,1,0,1,0c0,0,1,0,1,0l1,0c0,-1,0,-1,0,-1l0,-2l-1,-7c0,-1,0,-1,0,-1c0,-1,1,-1,1,-1c0,1,0,1,0,1c0,0,1,1,1,1l0,1l-1,0c0,1,0,1,0,2c0,0,0,1,1,3c0,0,0,1,0,1l0,1c0,1,0,1,0,1l-1,1c0,0,0,1,0,1c-1,0,-1,0,-1,0c0,1,0,1,-1,1l-1,0l-10,0c0,1,0,2,0,2c-1,0,-1,0,-1,0l0,-1l0,-1l-1,0c-1,0,-1,0,-1,0c-1,-1,-1,-1,-1,-2c0,0,-1,1,-1,1c0,1,-1,1,-1,1l-1,0l-1,0c0,0,0,1,0,1c0,0,0,1,-1,1c0,1,0,1,0,1c-1,1,-1,1,-1,1c-1,0,-1,1,-1,1l-1,0c-1,0,-1,0,-1,0l-1,0c0,0,-1,0,-1,0c0,0,-1,0,-1,-1l1,0c1,0,1,0,2,0c0,0,1,0,1,-1c0,0,1,0,1,0c0,0,0,-1,1,-1l0,-1c1,0,1,0,1,0c0,-1,0,-1,0,-1c0,0,-1,0,-1,0l-1,0l0,-1c0,0,-1,0,-1,0l0,-1c0,0,0,-1,0,-1c1,-1,1,-1,1,-1l0,-1c0,0,1,0,1,0c0,0,1,0,1,0c0,0,0,1,0,1c1,0,1,0,1,0c0,1,0,1,0,1c0,0,0,1,0,1c1,0,1,0,1,0c1,0,1,0,1,0c1,0,1,0,1,-1c0,0,0,-1,0,-1l0,-1l0,-7l1,-2l0,11l1,0l0,1c0,0,1,0,1,0l1,0c0,0,1,0,1,0c0,-1,0,-1,1,-2l0,-1l0,-1l0,-1l-1,-1l0,-2l0,-2c0,-1,0,-1,0,-1l0,-1l2,2l-1,0c0,0,0,1,0,2l0,1l0,1l0,2l0,1l0,1l0,1l2,-1l0,-1l1,0c1,-1,1,-1,1,-1l1,0c1,0,1,0,2,0c0,1,1,1,1,1l0,1l0,1c0,0,-1,0,-1,1l-1,0l2,0l1,0ZM193.5,409.5l4,-2c0,0,0,1,0,1l-4,2ZM186.5,417.5l-1,-1l1,-1l1,1ZM190.5,422.5c0,0,0,-1,-1,-1c-1,0,-1,0,-1,0l-1,0c0,0,-1,0,-1,0l-1,1l-1,0l-1,1l1,0c0,0,1,0,1,0c0,0,1,0,1,0c0,0,1,0,1,0c1,0,2,-1,3,-1ZM181.5,409.5l4,-2c0,0,0,1,0,1l-4,2ZM177.5,406.5c0,-1,0,-1,0,-1c1,-1,1,-1,1,-1c1,0,1,0,1,0c0,1,0,1,0,1c0,1,0,1,0,1l0,1l0,1l0,1l-1,-1l-1,1c0,0,0,1,-1,1l-1,0l0,-1l1,0l1,0l0,-1l0,-1l0,-1ZM178.5,406.5c0,0,-1,0,-1,0l1,0l0,1l0,-1ZM172.5,422.5c0,0,-1,0,-1,0c0,1,0,1,0,1c0,0,1,0,1,0l1,0c0,-1,0,-1,0,-1c0,0,-1,0,-1,0ZM165.5,422.5l-1,0c-1,0,-1,0,-1,0c-1,1,-2,1,-3,2l0,1l1,2c0,1,0,3,0,3c1,2,1,3,1,3l-1,1l0,-1l0,-2c-1,-2,-1,-3,-1,-4c0,-1,0,-2,0,-2c0,-1,0,-2,0,-2c0,-1,0,-1,1,-2l1,0c0,0,1,0,1,0c1,0,1,0,1,0c0,-1,-1,-1,-1,-1l-1,0c0,0,-1,0,-1,1c0,-1,0,-1,0,-2c0,0,1,0,1,0l0,-1c0,0,1,0,1,0c1,0,1,0,1,0c0,0,1,1,1,1c0,0,0,1,1,1l0,1l0,1ZM249.5,425.5l0,-1l0,-1l-1,-9l1,-2l1,10c0,1,0,1,-1,1l0,1c0,0,0,1,0,1ZM241.5,433.5l-5,2c1,-1,1,-1,1,-1l4,-2ZM242.5,407.5l1,0l1,0c0,0,1,0,1,0l0,1l0,1c-1,0,-1,0,-1,0l-1,0l-1,0l1,0c1,0,1,0,2,-1c-1,0,-1,0,-1,0l-1,0l-1,0ZM228.5,416.5l-1,-1l1,-2l1,1ZM229.5,423.5l1,0c0,0,1,0,1,0c0,-1,0,-1,-1,-2c0,0,0,-1,-1,-1l-1,-1c0,0,0,-1,1,-1c0,0,0,-1,0,-1c0,0,1,1,1,1c0,0,0,1,1,1l0,1c0,1,0,2,0,2c0,0,0,1,0,1l0,1c-1,0,-1,0,-1,1c-1,0,-1,0,-1,0l-1,0l-1,0l0,-1l-1,-1c0,0,0,1,-1,1c0,0,-1,1,-1,1c-1,0,-1,-1,-2,-2l0,1c0,0,-1,1,-1,1l-1,0c0,0,-1,-1,-1,-2c0,0,-1,1,-1,1c-1,1,-1,1,-2,1l0,-2l1,0l1,0c0,0,1,-1,1,-2l0,1c1,1,1,1,1,1c1,0,1,0,2,0c0,0,0,-1,1,-1l0,-1c0,1,0,1,0,1c1,0,1,1,1,1l1,0l0,-1c0,0,1,0,1,0c0,0,0,-1,0,-1c1,1,1,2,2,2ZM220.5,416.5l0,-1c0,0,0,-1,0,-1c0,-1,0,-2,0,-2l0,-1c0,0,0,1,1,1c0,1,0,1,0,1l0,1l0,1c0,0,0,1,-1,1ZM208.5,422.5l-1,0l1,-2l1,1ZM213.5,423.5l1,0l2,0l0,2l-3,0c0,0,0,1,0,1c0,0,0,1,0,1c0,0,0,1,0,2c0,0,-1,1,-1,1c-1,1,-1,1,-2,1c-1,1,-2,1,-3,1c0,0,-1,0,-1,0c-1,-1,-1,-1,-2,-1c0,0,-1,-1,-1,-1c0,-1,0,-1,0,-2c0,0,0,-1,0,-1c0,0,0,-1,0,-1c0,0,0,-1,0,-1c1,0,1,0,1,0c0,-1,0,-1,0,-1l1,0c-1,1,-1,1,-1,1c0,0,0,1,0,1c0,1,0,1,0,1c0,1,0,1,0,1c0,1,0,1,1,1l1,0c0,1,1,1,2,1c1,0,1,0,2,-1c1,0,2,0,2,-1c0,0,1,0,1,-1c-1,0,-1,-1,-1,-1c0,0,0,-1,0,-1c0,0,0,-1,0,-1l-1,0l1,-2c0,0,1,0,1,1ZM207.5,415.5l4,-2l0,1l-4,2ZM290.5,425.5l0,-1l0,-1l0,-9l1,-2l0,10c0,1,0,1,0,1l0,1c0,0,0,1,-1,1ZM294.5,428.5l-4,2c0,-1,0,-1,0,-1l4,-2ZM274.5,423.5l-1,-1l1,-2l1,1ZM287.5,425.5l-1,1l0,1c0,0,-1,0,-1,0c0,0,-1,1,-1,1c-1,0,-1,0,-2,0c-1,1,-2,1,-3,1c-1,0,-2,0,-3,0c0,0,-1,1,-2,1c0,0,-1,0,-2,0c0,0,-1,0,-2,0c0,0,-1,-1,-1,-1c-2,0,-2,0,-3,0c-1,0,-1,0,-2,-1c-2,0,-3,-1,-4,-1c-1,-1,-1,-1,-2,-2c0,0,-1,0,-1,-1c1,0,1,0,1,0c1,1,1,1,2,1c0,0,1,1,2,1c0,0,1,0,1,1c1,0,1,0,2,0c0,0,1,0,2,0c0,1,1,1,2,1c0,0,1,0,2,0c0,0,1,0,1,0c1,0,2,0,2,0c1,0,2,0,2,0c1,0,2,0,3,-1c1,0,2,0,3,0c0,0,1,-1,2,-1c2,-1,2,-1,2,-2c0,-1,0,-1,0,-1l0,-1c-1,-1,-1,-1,-1,-1l1,-2l1,1l0,1c0,0,0,1,0,1c0,0,0,1,0,1c0,0,0,1,0,1c0,0,0,1,0,1ZM271.5,411.5l0,1l1,0l0,-1l0,-1l1,0l0,1c0,0,0,1,0,1c1,0,1,-1,1,-1l0,-1l0,1l0,1l0,1l-1,0l0,-1l-1,1l-1,0l0,-1l0,-1ZM275.5,408.5l-5,3c0,-1,0,-1,0,-1l6,-3ZM356.5,411.5l-1,-1l-1,2l-1,-1l1,-2l1,1l1,-1l1,1ZM355.5,416.5l0,-1c0,0,1,0,1,0c0,0,0,1,0,1c1,0,1,1,1,1l0,-1l0,-1l0,-1l-1,0c0,0,0,-1,0,-1l-1,1l0,1c-1,0,-1,0,-1,0c0,1,0,1,0,1c-1,0,-1,1,-1,1l-1,1l-1,0c-1,1,-1,1,-1,1c-1,0,-1,0,-1,1l-1,1l1,0l1,0l1,0l1,0l1,0l1,1l-1,0l-1,0l-1,1l-1,0l-1,0l-1,0l-3,0l-1,0c0,0,1,-1,1,-1c0,0,0,-1,0,-1c0,-1,-1,-1,-1,-2c-1,0,-1,0,-2,0l-1,0l-1,1c0,0,-1,0,-1,0l-2,2l-1,0l-1,1c-1,0,-1,0,-1,0c0,-1,0,-1,0,-1l0,-1l-1,0c0,1,0,1,0,1c0,0,-1,1,-1,1l-1,0l-1,0c0,0,-1,0,-1,0c0,0,0,-1,0,-1l-1,-1c0,0,0,-1,0,-1c-1,0,-1,0,-1,0c-1,0,-1,0,-1,0c0,1,0,1,0,1c-1,0,-1,0,-1,1c0,0,0,1,0,1c0,1,0,1,0,1l1,0c0,1,0,1,0,1c0,0,1,0,1,0c1,0,1,0,1,0l0,1c-1,0,-1,0,-1,0c0,1,0,1,-1,1c0,0,0,1,0,1c-1,0,-1,0,-1,0c-1,1,-1,1,-1,1c-1,0,-1,0,-2,0c-1,0,-1,0,-1,0c0,1,0,1,0,1c1,0,2,0,2,0l1,0c1,0,1,0,1,0c0,0,1,0,1,0c0,0,0,-1,0,-1c1,0,1,0,1,-1c1,0,1,0,1,-1c0,0,0,-1,1,-1c0,0,0,-1,0,-1l1,0l1,0c1,-1,1,-1,2,-1l0,-1c0,1,0,1,1,1l0,1c0,1,0,1,0,1l0,1c1,0,1,0,1,0c0,0,0,-1,0,-1c0,-1,0,-1,0,-1l12,0l1,0l1,0l1,-1c1,0,1,0,1,0l2,-1c0,0,1,0,1,0l1,0c1,-1,1,-1,1,-1l1,0l2,0l1,-1l-1,0c-1,0,-1,0,-1,0c-1,0,-1,0,-2,0c0,0,-1,-1,-1,-1l-2,-1l-1,0c0,0,1,-1,1,-1c1,-1,1,-1,1,-1l1,-1ZM353.5,402.5l1,-1l1,0c0,0,0,1,0,1c0,0,0,1,0,1c0,0,0,1,0,1l0,1l-1,0l-1,1l-1,0l0,1l-1,0l0,-1l1,0c0,0,1,-1,1,-1l0,-1l1,0l-1,0c0,0,0,-1,0,-1l0,-1ZM354.5,402.5c0,0,0,1,0,1ZM347.5,407.5c0,0,1,0,1,-1c0,0,1,0,1,0c1,0,1,0,2,1c0,1,0,1,0,1c-1,1,-1,1,-1,1c0,0,-1,0,-1,0l-1,0c0,0,-1,0,-1,0l2,0c1,-1,1,-1,1,-1c-1,0,-1,0,-1,0c-1,0,-1,0,-1,0c-1,0,-1,0,-1,0c0,0,0,-1,0,-1ZM344.5,422.5c0,0,-1,0,-1,-1c0,0,-1,0,-1,0l-1,0c-1,0,-1,0,-1,0c-1,0,-1,1,-2,1l-2,1l1,0l1,0l1,0c1,0,1,0,1,0l1,0l1,0l1,0c0,-1,0,-1,1,-1ZM337.5,409.5c0,0,0,-1,0,-1c1,0,1,0,1,0l1,0l0,1l0,1l-1,1l1,0l0,1l-1,0l-1,0c0,1,-1,1,-1,1l-1,0l1,-1l1,0l0,-1c0,0,0,-1,0,-1c0,0,0,-1,0,-1ZM338.5,409.5l-1,0l0,1l1,0c0,-1,0,-1,0,-1ZM327.5,422.5c0,0,-1,0,-1,0c0,1,0,1,0,1l1,0l1,0c0,-1,-1,-1,-1,-1ZM319.5,424.5c0,0,-1,0,-2,0l-1,0l0,-1c0,1,-1,1,-1,1c-1,0,-1,0,-1,0c-1,1,-1,1,-1,1c-1,0,-1,0,-1,0l-1,0l-1,0c-1,0,-2,0,-2,-1c-1,0,-1,-1,-1,-2l-1,-8l1,-2l1,9l0,1l0,1c1,0,1,0,2,0l2,0c0,0,1,0,1,0c1,0,1,0,1,0c0,-1,0,-1,0,-1c0,0,0,-1,0,-1l0,-1l0,-1l1,0c0,0,0,-1,0,-1c0,-1,0,-1,0,-1c1,0,1,0,1,0c0,0,1,0,2,1c0,0,1,1,1,1c1,1,1,1,1,2c0,1,0,1,0,1c0,0,0,1,0,1l0,1l-1,0ZM316.5,420.5c0,0,-1,0,-1,0c0,1,0,1,0,1c0,1,0,1,1,1l0,-1c0,0,0,-1,0,-1ZM317.5,420.5c1,0,1,1,1,1l-1,0c0,1,0,1,0,1l2,1c0,0,1,0,1,0c0,-1,-1,-1,-1,-1c0,0,0,-1,0,-1c-1,0,-1,0,-1,0c0,-1,0,-1,-1,-1ZM314.5,412.5l5,-2l-1,0l0,1l-4,2ZM376.5,423.5l0,1l-1,0l1,0l1,0l-1,0ZM377.5,426.5l-1,0c0,0,-1,0,-1,0c0,0,-1,0,-2,0l-1,0c0,-1,0,-1,0,-1c0,-1,0,-1,0,-1c0,0,1,0,1,0c1,0,1,0,1,0c0,0,1,0,1,-1c0,0,1,0,1,-1c0,0,-1,0,-1,-1l-1,0c0,-1,-1,-1,-1,-2c0,0,-1,-1,-1,-1c-1,-1,-1,-1,-1,-1c0,0,-1,-1,-1,-1c0,1,0,1,-1,1c0,0,0,-1,0,-1c0,0,-1,0,-1,-1l0,-1c0,0,0,-1,0,-1l1,0l1,1c0,0,1,1,1,1c1,1,2,1,2,2c1,1,1,1,2,2c0,1,1,1,1,1c0,1,0,1,0,1l1,-1c0,-1,0,-1,0,-2c0,-1,0,-1,0,-2l0,-1c0,-1,0,-1,0,-2c0,-1,0,-1,0,-1c0,-1,0,-1,1,-1c0,1,0,1,0,1c0,0,1,1,1,1l0,1c0,0,-1,0,-1,0c0,1,0,1,0,1c0,0,0,1,0,1c0,1,0,1,0,2c0,0,0,1,0,1c0,1,-1,1,-1,2c0,0,0,1,0,1l0,1l0,1c0,1,0,1,0,1c0,0,0,1,0,1ZM374.5,409.5l5,-3c0,1,0,1,-1,1l-5,3ZM168.5,412.5c0,-1,1,-1,1,-1c1,0,1,0,2,0c0,0,1,0,1,0c0,0,0,1,0,1c0,0,0,1,0,1c0,0,-1,0,-1,1l-1,0l-1,0l-1,0l2,-1c1,0,1,0,2,-1c-1,0,-1,0,-1,0c0,0,-1,0,-1,0c0,0,-1,0,-1,0c0,0,-1,1,-1,1l0,-1ZM225.5,407.5c1,0,1,0,1,0c1,0,1,0,2,0c0,0,1,0,1,0c0,0,1,0,1,0c0,0,0,1,0,1c-1,0,-1,0,-1,1l-1,0l-1,0l-1,0l1,0c1,0,1,-1,2,-1c0,0,-1,0,-1,0c0,0,-1,0,-1,0c0,0,-1,0,-1,0c0,0,-1,0,-1,0c0,-1,0,-1,0,-1ZM325.5,412.5c0,-1,1,-1,1,-1c0,0,1,0,1,0c1,0,1,0,2,0c0,0,0,1,0,1c0,0,0,1,0,1c-1,0,-1,1,-1,1c0,0,-1,0,-1,0l-1,0c0,0,-1,0,-1,0l2,-1c1,0,1,0,1,0c0,-1,0,-1,0,-1c-1,0,-1,0,-1,0c-1,0,-1,0,-1,0c-1,0,-1,1,-1,1l0,-1ZM198.5,376.5l0,-1c1,0,1,0,1,0c0,0,0,-1,0,-1l0,-1l0,-1l0,-1l0,-1c0,0,0,-1,0,-1l1,1c-1,0,-1,0,-1,1l0,1l1,0l0,1l0,1l-1,0l1,0l1,-1l1,0c0,0,1,0,1,0l0,1c0,0,0,1,0,1c-1,0,-1,0,-1,0c0,0,-1,1,-1,1c-1,0,-1,0,-1,0ZM202.5,374.5c-1,0,-1,0,-1,0l-1,0l0,1l-1,0l1,0l1,0c1,0,1,0,2,-1c-1,0,-1,0,-1,0ZM69.5,378.5l0,-1l0,-1l-1,-8l1,-3l1,11l0,1c-1,1,-1,1,-1,1ZM65.5,378.5c-1,0,-1,0,-1,0c-1,0,-1,0,-2,0c0,-1,0,-1,0,-2c0,0,-1,1,-1,2c-1,0,-1,0,-2,0c-1,0,-1,0,-1,0c-1,-1,-1,-1,-1,-3l0,1c-1,1,-1,1,-1,1c-1,0,-1,0,-2,0c0,0,-1,0,-1,0c-1,0,-1,0,-1,0c0,-1,0,-1,0,-1c0,0,0,-1,1,-1c0,0,0,-1,1,-1l1,-1l1,0l0,-1l1,-1c0,0,0,-1,0,-1l0,1l0,1l1,3l0,1c0,0,1,0,1,0c1,0,1,0,1,0c1,0,1,-1,1,-1c0,-1,0,-1,0,-2c0,-1,0,-1,0,-2l0,-1l-1,0l1,-1l0,-1l1,3l0,2l0,1l0,1c1,1,1,1,2,1c1,0,1,0,1,0c0,0,0,-1,0,-1l0,-1l-1,-1l0,-1l0,-2l0,-1l1,-1c0,1,0,1,0,2l0,1l1,2c0,0,0,1,0,2c0,0,0,1,-1,1c0,1,0,1,0,1c0,1,0,1,0,1ZM56.5,373.5l0,1l-1,0c-1,1,-1,1,-1,1c1,0,1,0,2,0l1,0ZM59.5,365.5l0,1l1,0l0,-1l0,-1l1,0l0,1c1,0,1,0,1,-1l0,-1l1,0l0,1l0,1l-1,1l0,1l-1,0c0,0,0,-1,0,-1l-1,0l0,1c0,0,-1,0,-1,0c0,0,-1,0,-1,0l0,-1l0,-1ZM57.5,382.5l-4,2c0,-1,0,-1,0,-1l4,-2ZM115.5,372.5l-1,-1l1,-2l1,1ZM115.5,378.5l-1,0c-1,0,-1,0,-2,0l-1,0c0,0,0,-1,0,-1l-1,0l-1,0l0,1c0,0,-1,0,-1,0c0,0,-1,0,-1,0l-1,0l-1,0c-1,0,-1,0,-2,0l0,-1c-1,1,-1,2,-1,2l-1,0l-1,0l-1,-1l-1,-1l-1,1c0,0,-1,0,-1,0l-1,0l-1,0c0,0,-1,0,-1,0l-1,0c0,0,0,-1,0,-1l-1,0c0,1,0,1,0,1c-1,0,-2,0,-3,1l-1,0c-1,0,-1,0,-1,0c0,0,-1,0,-1,0l-1,0l-1,0c-1,0,-2,0,-3,0c-1,0,-2,-1,-3,-1c0,0,0,-1,0,-1c-1,0,-1,0,-1,0c0,0,0,-1,0,-1l0,-1c0,0,0,-1,1,-1c0,0,0,-1,1,-1l-1,1c0,0,0,1,0,1c0,0,0,1,1,1c0,0,0,1,1,1c1,0,1,0,1,0c0,0,1,0,1,0c1,1,2,1,3,1c1,0,2,0,2,0c0,0,1,-1,2,-1l1,0c1,0,2,-1,2,-1c1,0,1,-1,2,-1l0,1l-1,0l1,1l1,0l1,0l1,0l1,0l0,-1c0,0,1,0,1,-1c1,-1,2,-2,2,-2l1,0l0,1l1,1l1,1c0,0,1,1,1,1l1,0l1,0c0,0,1,0,1,0l1,0c0,-1,0,-1,0,-1l1,0l0,-1l-1,0l-1,0l1,-2l1,-1c0,0,1,0,1,0c1,0,1,0,1,0l0,1c1,0,1,0,1,0c0,1,0,1,0,1l0,1l-1,0l0,1c1,0,1,0,1,0l0,1l1,0l1,0l1,0c0,0,1,0,1,0c1,-1,1,-1,2,-1l0,-1l-1,0c0,-1,0,-1,0,-1l1,-2l0,1c0,1,0,1,0,1c0,1,0,1,0,1c0,0,0,1,0,1c0,0,0,1,0,1c-1,1,-1,1,-2,1c0,0,-1,0,-1,0ZM119.5,382.5l-4,2c0,-1,0,-1,0,-1l4,-2ZM106.5,364.5l1,0c0,-1,1,-1,1,-1c1,0,1,1,2,1l0,1l0,1c-1,0,-1,0,-1,0c-1,0,-1,0,-1,0c0,0,-1,0,-1,0c0,0,-1,0,-1,0l2,0c0,0,1,-1,1,-1c-1,0,-1,0,-1,0c-1,0,-1,0,-2,0l0,-1ZM102.5,377.5l-1,-1c0,0,0,-1,-1,-1l-1,1l1,0l1,1ZM97.5,365.5l5,-2l-1,1l-4,2ZM86.5,373.5l-2,-1l0,1l-2,-1l1,-1l1,1l1,-1l2,1ZM84.5,365.5l4,-2l0,1l-1,0l-4,2ZM161.5,370.5l-1,-1l-1,1l-1,-1l1,-1l1,1l1,-1l1,1ZM159.5,378.5l-1,0c-1,0,-1,0,-1,0c-1,0,-1,0,-1,0c-1,0,-1,-1,-1,-1l-1,0l-1,1l-1,0l-1,0l-1,0l-2,0c0,0,-1,0,-1,0l-1,-1c0,0,0,-1,0,-1l0,1l-1,0l0,1c-1,0,-1,0,-2,0l-1,0l-1,0c-1,0,-1,0,-1,0c0,0,0,-1,-1,-1l0,-1l1,0l0,-1l0,1l1,0l1,0l1,0l1,0l1,0l1,0l0,-1l0,-1l-1,-2l0,-1l0,-1l1,-1l0,2l1,1l0,2c0,1,0,1,0,1c0,1,0,1,0,1c1,0,1,1,1,1l2,0l1,0l1,0c0,-1,0,-1,0,-1l1,0l0,-1c-1,0,-1,0,-1,0c0,0,-1,0,-1,0l1,-2c0,0,1,0,1,-1c0,0,1,0,1,0c1,0,1,0,1,0l1,1c1,1,1,1,1,1l-1,1l-1,1c0,0,1,0,1,0l1,1l1,0l1,0c1,0,1,0,2,0c0,-1,1,-1,1,-1l0,-1c0,-1,-1,-1,-1,-1l1,-2l0,1l0,1l1,0l0,1l0,1c-1,0,-1,1,-1,1c0,1,-1,1,-1,1c-1,0,-1,0,-2,0ZM159.5,362.5l4,-2l0,1l-4,2ZM153.5,363.5c0,-1,0,-1,1,-1c0,-1,0,-1,1,-1c0,1,0,1,0,1c0,1,0,1,0,1l0,1l1,0l-1,2l-1,-1l-1,1c0,0,0,1,-1,1l-1,0l1,-1c0,0,1,0,1,0l0,-1l1,0l-1,0l0,-1l0,-1ZM154.5,363.5l0,-1c0,0,0,1,0,1l0,1l0,-1ZM142.5,365.5l0,1c0,0,1,0,1,0c0,0,0,-1,0,-1l1,-1l0,1c1,0,1,0,1,-1l0,-1l0,1l0,1c0,1,0,1,0,1l-1,0l-1,0c0,1,0,1,-1,1c0,-1,0,-1,0,-1l0,-1ZM144.5,360.5c0,-1,0,-1,0,-1c0,-1,1,-1,1,-1c1,1,1,1,1,1c0,1,0,1,0,1l0,1c-1,0,-1,0,-1,0l1,0l-1,1l-1,1c0,0,-1,1,-1,1c0,0,-1,0,-1,0c0,0,-1,0,-1,0c1,-1,2,-1,3,-2l0,-1c-1,0,-1,0,-1,-1ZM145.5,360.5l-1,0l0,1l1,0l0,-1ZM135.5,374.5c-1,0,-1,1,-1,1l1,0c0,0,0,-1,0,-1ZM135.5,382.5c-1,0,-1,0,-1,1l-1,0c0,0,-1,0,-1,0l-1,0c0,0,-1,0,-1,0c-1,0,-1,0,-1,-1l1,0c1,0,1,0,1,0c0,0,1,0,1,0c1,0,1,0,1,0c0,-1,1,-1,1,-1c1,-1,1,-1,1,-1c0,0,0,-1,1,-1c0,-1,0,-1,0,-2c-1,0,-1,0,-1,0c0,1,0,1,-1,1c0,0,0,-1,0,-1c0,0,-1,0,-1,0c0,-1,0,-1,0,-1c0,-1,0,-1,0,-1c0,-1,0,-1,1,-2c0,-1,1,-1,1,-1l1,1c0,1,0,1,1,1c0,1,0,1,0,1c0,1,0,1,0,2l0,1c0,0,-1,1,-1,2c0,1,0,1,-1,1c0,1,0,1,0,1ZM128.5,378.5l0,-1l0,-1l-1,-8l1,-3l1,11l0,1l-1,0c0,1,0,1,0,1ZM190.5,374.5c0,0,0,1,0,1l-1,0c1,0,1,0,1,0l1,0c0,0,-1,-1,-1,-1ZM190.5,382.5l0,1c-1,0,-1,0,-1,0c-1,0,-1,0,-2,0c-1,0,-1,0,-2,0l-1,-1l1,0c1,0,1,0,1,0c0,0,1,0,1,0c1,0,1,0,1,0l1,0c0,-1,0,-1,1,-1c0,-1,0,-1,0,-1c1,0,1,-1,1,-1c0,-1,1,-1,1,-2l-1,0c0,1,-1,1,-1,1c0,0,0,-1,-1,-1c0,-1,-1,-1,-1,-1c0,-1,1,-1,1,-1c0,-1,0,-1,0,-2c0,0,1,0,1,0c0,-1,0,-1,1,-1l0,1c0,0,1,0,1,0c0,1,0,1,0,1c0,1,0,1,0,1c0,1,0,1,0,2l0,1c0,0,0,1,0,2c-1,1,-1,1,-1,1c0,1,-1,1,-1,1ZM187.5,369.5l5,-2l-1,0c0,0,0,1,0,1l-4,2ZM182.5,378.5l0,-1l0,-1l0,-8l0,-3l1,11l0,1c0,1,-1,1,-1,1ZM184.5,382.5l-4,2c0,-1,0,-1,0,-1l4,-2ZM175.5,372.5l-1,-1l1,-1l1,1ZM175.5,382.5c-1,0,-1,0,-2,-1c0,0,-1,0,-1,0c0,-1,-1,-1,-1,-1c0,-1,0,-2,0,-2c0,-1,0,-1,0,-1c0,-1,0,-1,0,-1c0,-1,0,-1,0,-1c1,0,1,-1,1,-1c0,0,0,1,0,1l0,1c-1,0,-1,1,-1,1c0,0,1,1,1,1c0,0,0,1,1,1c1,1,2,1,2,1c1,0,2,-1,2,-1c1,0,2,0,2,-1c1,-1,1,-1,1,-1c0,-1,0,-1,-1,-1c0,-1,0,-1,0,-1c0,-1,0,-1,0,-1c0,0,0,-1,-1,-1l1,-2l0,1c1,0,1,0,1,0c0,1,0,1,0,1c0,1,0,1,0,1c0,1,0,1,0,1l0,1c0,1,0,2,0,2c0,1,-1,2,-1,2c-1,1,-1,1,-2,1c-1,0,-1,1,-2,1ZM256.5,377.5l-1,0c0,1,-1,1,-1,1l-1,0l-1,0c-1,0,-2,0,-2,0c-1,-1,-1,-1,-1,-2l-1,-9l1,-2l1,10l0,1c1,1,1,1,2,1l1,0c1,0,1,0,1,0c1,-1,1,-1,1,-1c0,0,1,-1,1,-1l0,1l1,0c0,1,0,1,0,1c1,0,1,0,2,0c0,-1,0,-1,0,-1c1,0,1,0,1,-1l1,-1l0,1l0,1l1,0l0,1l1,0l0,-1l-1,0l1,-2l0,1l0,1c0,1,0,1,0,1c0,1,0,1,0,1c0,0,-1,0,-1,0c-1,0,-1,0,-1,0l-1,0l0,-1l0,1l-1,0l-1,0c0,0,-1,0,-1,0c0,0,-1,0,-1,0c0,0,0,-1,0,-1ZM256.5,365.5l4,-2l0,1l-4,2ZM248.5,362.5l4,-3l0,1c0,0,0,1,0,1l-4,2ZM241.5,377.5c1,0,1,0,1,0c1,0,1,0,1,0c1,-1,1,-1,1,-1l0,-1l0,-2l0,-6c-1,0,-1,0,-1,0l0,-1l1,-1c0,0,0,1,0,1c1,0,1,0,1,0c0,1,0,1,0,1c0,0,0,1,0,1c0,0,0,1,0,2c0,0,0,1,0,3l0,1l0,1l0,1c0,0,0,1,0,1c0,0,-1,0,-1,0c0,0,0,1,0,1l-1,0c-1,0,-1,0,-1,0l-1,0l-1,0c0,0,-1,0,-1,0l-1,0l0,-1c0,0,-1,0,-1,0l0,1c-1,0,-1,0,-2,0l-1,0l-1,0c0,0,-1,0,-1,0l-1,-1c0,1,0,2,-1,2c0,0,-1,0,-1,0l-1,-1l-2,-1l0,1c-1,0,-1,0,-1,0l-1,0l-1,0l-1,0c0,1,0,1,0,2c0,0,-1,0,-1,1c0,0,0,1,-1,1l0,1c-1,0,-1,0,-1,0c0,0,-1,1,-1,1l-1,0l-1,0c0,0,-1,0,-1,-1c-1,0,-1,0,-1,0l1,0c1,0,1,0,2,0c0,0,0,-1,1,-1c0,0,1,0,1,-1l1,0c0,-1,0,-1,0,-1c0,0,0,-1,1,-1c0,0,0,-1,0,-1l-1,0c0,0,-1,0,-1,0c-1,0,-1,0,-1,-1c0,0,0,-1,0,-1c0,0,0,-1,0,-1l1,0c0,0,0,-1,0,-1l1,0c0,0,1,0,1,0c0,1,0,1,1,1l0,1l0,1c0,0,1,0,1,0c0,0,1,0,1,0l1,0l1,-1l1,-1c1,-1,1,-2,2,-2l1,1l1,1l0,1l1,0c0,0,0,1,1,1l1,0c1,0,1,0,1,0c1,0,1,-1,2,-1c1,0,1,0,1,0c1,0,1,0,1,0c0,1,1,1,1,1l1,0ZM218.5,364.5c0,0,1,0,1,0c1,-1,1,-1,1,-1c1,0,1,0,2,1c0,1,0,1,0,1c0,1,-1,1,-1,1c0,0,-1,0,-1,0l-1,0l-1,0l2,0c1,0,1,-1,2,-1c-1,0,-1,0,-1,0c0,0,-1,0,-1,0c0,0,-1,0,-1,0c0,0,-1,0,-1,0c0,0,0,-1,0,-1ZM337.5,365.5c1,0,1,-1,1,-1c1,0,1,0,2,0c0,0,1,0,1,0c0,1,1,1,1,1c-1,1,-1,1,-1,1c0,1,0,1,-1,1l-1,0l-1,0l1,0c1,-1,1,-1,2,-1c0,0,-1,0,-1,-1c0,0,-1,0,-1,0c0,0,-1,0,-1,1l-1,0c0,-1,0,-1,0,-1ZM363.5,365.5c0,0,0,-1,1,-1l1,0c0,0,1,0,1,0c1,1,1,1,1,1c0,1,-1,1,-1,1c0,1,0,1,0,1c-1,0,-1,0,-1,0c-1,0,-1,0,-1,0l-1,0l1,0c1,-1,2,-1,2,-1l-1,-1l-1,0l-1,1l-1,0c0,-1,0,-1,0,-1c0,0,1,0,1,0ZM132.5,363.5c0,0,1,0,1,-1c1,0,1,0,1,0c1,0,2,0,2,1c0,1,0,1,0,1c0,1,-1,1,-1,1l-1,0l-1,0l-1,0l2,0c1,-1,1,-1,2,-1c-1,0,-1,0,-1,0c0,0,-1,-1,-1,-1c0,0,-1,1,-1,1c0,0,-1,0,-1,0c0,0,0,-1,0,-1ZM173.5,362.5c1,0,1,0,1,0c1,0,1,-1,2,-1c0,0,1,1,1,1c0,0,1,0,1,0l0,1c-1,0,-1,0,-1,1l-1,0c-1,0,-1,0,-1,0l-1,0l1,0c1,0,1,-1,2,-1c0,0,-1,0,-1,0l-1,0c0,0,-1,0,-1,0l-1,0l0,-1ZM242.5,360.5l1,0l1,0c0,0,1,0,1,0c1,0,1,0,1,1c0,0,-1,1,-1,1c-1,1,-1,1,-1,1c-1,0,-1,0,-1,0l-1,0l1,-1c1,0,2,0,2,-1l-1,0l-1,0l-1,0l-1,1l0,-1c0,0,1,0,1,-1ZM238.5,373.5l-1,-1l-1,2l-1,-1l1,-2l1,1l1,-1l1,1ZM236.5,363.5c0,-1,0,-1,0,-1c1,-1,1,-1,1,-1l1,0c0,1,0,1,0,1c0,1,0,1,0,1l0,1l-1,0l1,0l0,2l-1,-1l-1,1c0,0,-1,1,-1,1l-1,0l0,-1l1,0l1,-1l0,-1l0,-1ZM237.5,363.5l-1,-1c0,0,0,1,0,1l1,0l0,1l0,-1ZM230.5,377.5l0,-1c-1,0,-1,-1,-1,-1l-1,0l0,1l1,0l1,1ZM228.5,363.5c0,-1,0,-1,1,-1c0,-1,0,-1,0,-1l1,0c0,1,0,1,0,1c0,1,0,1,0,1l0,1l0,2l-1,-1l-1,1c0,0,0,1,-1,1l-1,0l0,-1l1,0l1,0l0,-1l1,0l-1,0l0,-1l0,-1ZM229.5,363.5l0,-1c0,0,0,1,-1,1c0,0,1,0,1,0l0,1l0,-1ZM220.5,375.5l-1,0c0,1,0,1,0,1l1,1c0,0,1,0,1,0c0,0,0,-1,0,-1l-1,0c0,-1,0,-1,0,-1ZM211.5,379.5c0,0,-1,-1,-1,-1c-1,0,-1,-1,-1,-2l0,-1l0,-1l1,0l0,-2c1,0,1,-1,1,-1c1,0,1,1,2,1c0,1,1,1,1,2l0,1c0,2,-1,3,-2,3c0,1,0,1,-1,1ZM211.5,374.5c0,0,-1,0,-1,0c0,0,0,1,0,1c0,1,0,1,0,1l0,1l1,0l1,0l0,-1c1,0,1,0,1,0c0,-1,0,-1,-1,-1c0,-1,0,-1,-1,-1ZM210.5,363.5c0,-1,0,-1,0,-1c1,-1,1,-1,1,-1c0,0,1,0,1,0c0,1,0,1,0,1c0,1,0,1,0,1l0,1l0,2l-1,-1l-1,1c0,0,-1,1,-1,1l-1,0l0,-1l1,0l1,0l0,-1l0,-1l0,-1ZM211.5,363.5l0,-1c-1,0,-1,1,-1,1l1,0l0,1l0,-1ZM283.5,378.5l-1,0l-1,0l0,-1l-1,0l-1,0c0,1,0,1,0,1l-1,0l-1,0l-1,0c-1,0,-2,0,-2,0c-1,-1,-1,-1,-1,-2l0,-9l0,-2l1,10l0,1c1,1,1,1,2,1l1,0l1,0c0,0,1,0,1,0l0,-1l1,-1c0,0,1,-1,1,-1l0,-1c0,0,1,0,1,0c0,0,1,0,1,1l0,1l1,1c0,1,0,1,0,1l-1,0c0,0,0,1,0,1ZM281.5,376.5l1,0c0,-1,0,-1,0,-1c-1,0,-1,0,-1,0c0,0,0,1,0,1ZM278.5,365.5l4,-2l0,1l-4,2ZM326.5,377.5l-2,0c0,0,-2,0,-3,1c-2,0,-3,0,-3,0l-1,0c0,0,-1,0,-1,0c-1,0,-3,0,-4,0c-2,0,-3,0,-4,0c-1,0,-2,0,-3,0l-1,0c-1,0,-1,0,-1,0c-1,0,-1,-1,-1,-1l0,1l0,1c0,0,0,1,-1,1c0,1,0,2,-1,2l0,1c-1,0,-1,0,-1,0c-1,0,-1,0,-2,0c0,1,-1,1,-1,1l-1,0l0,-1c-1,0,-1,0,-1,0c0,0,-1,0,-1,0c-1,-1,-1,-1,-1,-1c0,-1,0,-1,0,-2c0,0,0,-1,0,-2l1,-1l0,-1l1,0l-1,1c0,0,0,1,0,1c0,0,0,1,0,1c0,1,0,1,0,2c1,0,2,0,2,1c1,0,1,0,1,0c1,0,2,-1,3,-1c1,0,1,-1,2,-1l0,-1l0,-3c0,0,0,-1,0,-2l0,-1l-1,-7l1,-2l1,11l0,1c1,0,1,0,1,1c0,0,1,0,1,0l1,0c0,0,1,0,1,0c1,0,2,0,3,0c1,0,2,0,3,0c1,0,3,-1,4,-1l2,0c1,0,2,0,3,0c1,0,2,0,4,0c1,0,2,-1,2,-1l1,0c-1,0,-1,-1,-1,-1c0,0,-1,0,-1,0c0,0,-1,0,-1,0c-1,0,-2,0,-4,0c-2,0,-4,1,-6,1c-2,0,-4,0,-5,0c-2,0,-3,0,-3,-1c0,-1,0,-1,0,-2l1,-1l1,-1c0,0,1,-1,2,-2c1,0,2,-1,3,-1c0,-1,0,-1,0,-1l0,2c0,0,-1,0,-1,1c-1,0,-2,1,-3,1c-1,1,-2,2,-2,2l0,1c0,0,1,0,1,0c0,0,1,0,1,0c0,0,1,0,1,0c1,0,3,0,5,0c2,0,4,0,5,0c2,-1,4,-1,4,-1c0,0,1,0,1,0c0,0,1,1,1,1c1,0,1,0,1,0c0,0,0,1,0,1c1,0,1,0,1,1c0,0,0,1,-1,1c0,1,0,1,0,1ZM309.5,359.5c0,0,1,0,1,-1l1,0c0,0,1,1,1,1c0,0,-1,0,-1,1c0,0,0,1,0,1l1,0l0,1l-2,0l0,1c-1,0,-1,0,-1,0l-1,0l0,1l-1,0l0,-1l1,0c1,0,1,-1,1,-1l1,-1l-1,0c0,0,0,-1,0,-1l0,-1ZM310.5,359.5c0,0,0,1,0,1l1,0l-1,0ZM296.5,361.5l0,1c1,0,1,-1,1,-1l0,-1l0,1l1,0l0,-1l1,0l0,-1l0,1l0,1l0,1c0,0,-1,0,-1,0c-1,0,-1,0,-1,0l0,1c-1,0,-1,0,-1,0c0,0,-1,0,-1,0l0,-1l0,-1ZM299.5,386.5l-5,2c1,0,1,-1,1,-1l4,-2ZM353.5,378.5l-1,0c-1,0,-1,0,-1,-1l-1,0c0,1,-1,1,-1,1l-1,0l-1,0l-1,0c0,1,0,1,0,1c0,0,0,1,0,1c0,1,0,2,-1,2c0,1,0,1,-1,2c0,0,-1,1,-2,1c-1,0,-1,0,-2,0c-1,0,-1,0,-2,0c0,0,-1,0,-1,-1c-1,0,-1,0,-1,-1c-1,0,-1,-1,-1,-2c0,0,0,-1,0,-1c0,0,1,0,1,-1l0,-1c0,0,1,0,1,0l0,1c-1,0,-1,0,-1,0c0,1,0,1,0,1l0,1c0,0,0,1,0,1c1,0,1,0,1,1l1,0c1,0,1,0,2,0c1,0,2,0,3,0c0,0,1,-1,1,-1c1,0,1,0,1,0c0,-1,0,-1,0,-1l0,-1l0,-1c0,-1,-1,-1,-1,-1l0,-1l1,-1c0,1,1,1,1,1l1,0l1,0c1,0,1,0,1,0l1,-1l0,-1c1,0,1,-1,1,-1l0,-1c1,0,1,0,1,0c1,0,1,0,1,1c0,0,1,0,1,1l0,1c0,1,0,1,0,1c0,0,-1,1,-1,1ZM351.5,376.5l1,0l1,0c0,-1,0,-1,-1,-1c-1,0,-1,0,-1,0c0,0,0,1,0,1ZM349.5,364.5l0,1l1,0l0,-1l0,-1l1,0l0,1c1,0,1,0,1,0l0,-1c0,1,0,1,0,1l0,1l0,1l-1,0c0,0,0,-1,0,-1l-1,1l-1,0l0,-1l0,-1ZM352.5,382.5l-4,2c0,-1,0,-1,1,-1l4,-2ZM341.5,376.5l-2,-1l1,-1l2,1ZM400.5,373.5c-1,0,-1,0,-1,0c0,1,0,1,1,1c0,0,0,-1,0,-1ZM400.5,380.5c-1,1,-1,1,-1,1l-1,0c0,0,-1,0,-1,0l-1,0c0,0,-1,0,-1,0c-1,0,-1,0,-1,0l0,-1l1,1c1,0,1,0,1,0c0,0,1,-1,1,-1c1,0,1,0,1,0c0,0,1,-1,1,-1c1,0,1,-1,1,-1l1,-1c0,-1,0,-1,0,-1c0,-1,0,-1,0,-1c-1,1,-1,1,-1,1l-1,0c0,0,-1,-1,-1,-1c0,0,0,-1,0,-1l0,-1c0,0,0,-1,1,-1c0,-1,0,-1,0,-1c0,0,1,0,1,0c0,0,1,0,1,0l0,1c0,0,1,0,1,1l0,1l0,1c0,1,0,1,0,1c0,1,-1,2,-1,2c0,1,0,1,-1,1c0,1,0,1,0,1ZM397.5,367.5l4,-2l0,1l-1,0l-4,2ZM391.5,378.5l0,-1l0,-1l-1,-8l1,-3l1,11l0,1c-1,1,-1,1,-1,1ZM386.5,370.5l-1,-1l-1,1l-2,-1l1,-1l2,1l1,-1l1,1ZM384.5,377.5c0,0,1,0,1,0c1,-1,1,-1,2,-1l0,-1l-1,0c0,-1,0,-1,0,-1l1,-2l0,1l0,1l0,1l0,1c0,0,0,1,0,1c-1,1,-1,1,-2,1c0,0,-1,0,-1,0l-1,0c-1,0,-1,0,-1,0c-1,0,-1,0,-1,-1l-3,-2c0,0,0,-1,-1,-1l0,1c0,1,0,1,0,1l-1,0c0,1,0,1,0,2c0,0,-1,0,-1,0l-1,0l-1,0l-1,0l-2,0c-1,0,-1,0,-1,0c-1,0,-1,0,-1,0l0,1l0,1c0,0,0,1,-1,1c0,0,0,-1,-1,-1c0,-1,0,-1,0,-2l0,-1c-1,0,-1,0,-2,1c0,0,-1,0,-1,0l0,1l0,1l0,1l1,2l0,1l0,1c0,1,0,1,0,2c0,0,0,1,0,1l0,-1l-1,-1l0,-1l0,-3l0,-1l0,-1l0,-1l0,-1c0,0,0,-1,1,-1l0,-1l1,0l0,-1l1,0l0,-1c1,1,2,2,3,2l1,1l1,0l1,0l1,0l1,0c0,0,1,0,1,-1l1,0c0,0,0,-1,0,-1c0,0,0,-1,0,-1c-1,-1,-1,-1,-1,-1c0,0,-1,-1,-1,-1c-1,0,-1,0,-1,0c-1,0,-1,0,-1,0c0,-1,0,-1,0,-1c-1,0,-1,0,-1,0c0,-1,0,-1,0,-1l0,-1c0,-1,1,-1,1,-1c1,-1,2,-1,3,-2c2,0,3,-1,5,-1c1,-1,2,-1,2,-1l1,0l0,-1l-1,2c-1,0,-2,1,-3,1c-1,1,-3,1,-4,2c-1,0,-2,1,-3,1l1,1c0,0,1,0,1,0c0,0,0,1,1,1c1,1,2,1,2,1c1,1,1,1,2,2c0,0,1,1,2,1l1,1l1,1ZM390.5,363.5c0,-1,0,-1,0,-2c0,-1,0,-1,-1,-2l1,0c1,1,1,1,1,1l0,1l0,1c-1,1,-1,1,-1,1ZM386.5,364.5l0,-1c0,0,0,-1,0,-1c0,-1,0,-2,-1,-2l1,0l0,-1l1,1c0,0,0,1,0,1l0,1c0,0,0,1,0,1c0,0,-1,0,-1,1ZM60.5,363.5l0,-1c0,0,0,-1,0,-1c0,-1,0,-2,0,-2l0,-1l1,1c0,0,0,1,0,1l0,1c0,0,0,1,0,1c0,0,-1,0,-1,1ZM376.5,359.5l0,-1c0,0,1,0,1,0c1,0,1,1,1,1l0,1c0,0,-1,1,-1,1l1,0l0,1l-1,0l-1,0l0,1c-1,0,-1,0,-1,0l-1,1c0,0,-1,0,-1,-1l1,0l1,0c0,0,0,-1,0,-1l1,0l0,-1c-1,0,-1,-1,-1,-1l1,-1ZM377.5,359.5l-1,0c0,0,0,1,0,1l1,0ZM52.5,312.5l1,0ZM53.5,315.5l-1,0c-1,0,-1,0,-1,0c0,0,-1,-1,-1,-1c0,0,0,-1,0,-1c0,-1,0,-1,0,-1c0,0,0,-1,0,-1l1,-1l1,0l-1,0l-1,0l0,-1c0,0,1,0,1,0l1,0c0,0,1,0,1,0c0,0,1,0,1,0l0,1l-1,0l-1,0c0,0,-1,0,-1,0l0,1l-1,0l0,1c0,0,0,1,0,1c1,1,1,1,1,1c0,0,1,0,1,0l1,0l1,0l1,0ZM235.5,322.5l-1,0l0,-1l1,1ZM235.5,325.5l-1,0c0,0,-1,-1,-1,-1l-1,0c0,0,0,-1,0,-1l0,-1c0,-1,0,-1,0,-1c0,-1,0,-1,1,-1l1,-1l-1,0l-1,0c1,0,1,0,1,0l1,0c0,0,1,0,1,0c0,0,1,0,1,0l-1,0l-1,0l0,1c-1,0,-1,0,-1,0l0,1c-1,0,-1,0,-1,0c0,1,0,1,0,1c0,1,0,1,0,1l1,0c0,1,0,1,0,1c1,0,1,0,1,0l1,0c1,0,1,0,1,0l1,0ZM65.5,329.5c0,0,0,1,-1,2l0,1c-1,0,-1,0,-1,1l1,0l0,1l-1,0l-1,1c0,0,-1,1,-2,1l-1,0l0,1l-1,0l-1,0l-1,1l0,1l-3,0l-1,0l-3,0l-1,-1l-1,-1c-1,0,-2,-1,-3,-1l-1,0l0,-1l-1,0l0,-1l-1,0l0,-1l-1,0l2,0l-1,-1l0,-1l-1,0l0,-1c0,0,0,-1,0,-1l0,-1l0,-1c0,0,0,-1,1,-1c0,0,0,-1,0,-1l0,-1l-1,0c0,0,1,0,1,-1l1,0l0,-1l1,0l1,-1l1,0l2,-1l1,-1c0,-1,1,-1,1,-1l3,0l1,0l3,0l0,1l1,0l0,1l1,0l2,1l1,0c0,0,0,1,0,1l1,0l1,1c0,0,1,0,1,1l-1,0l0,1l1,0l0,1l0,1l1,1ZM56.5,339.5l0,-1l1,0l0,-1l1,0c0,-1,1,-1,1,-1l1,0c1,0,1,-1,2,-1l0,-1c0,0,1,0,1,0l1,-1l-1,0l0,-1l1,-1l0,-1l0,-1c0,-1,0,-2,0,-3l0,-1c-1,0,-1,0,-1,0l0,-1l1,0c0,0,-1,-1,-1,-1l-1,0l0,-1l-1,0l-2,-1l-1,-1c0,0,-1,0,-1,0l-1,-1c0,-1,0,-1,0,-1l-3,0l-1,0l-3,0l0,1l-1,0l0,1c-1,0,-1,0,-1,0l-2,1l-1,1l-1,0l-1,1c0,0,-1,0,-1,1l1,0l-1,1l0,1l0,1l-1,0l0,1l0,1l0,1l1,1l0,1l1,0l0,1l-1,0l0,1l1,0l1,1l1,0l0,1l1,0l2,1l1,0l0,1c1,0,1,1,1,1l3,0l1,0ZM61.5,324.5l-1,0l0,-1l-1,0c0,0,-1,0,-1,0c0,-1,0,-1,0,-1l1,0c1,0,1,0,1,0c0,0,0,1,0,1l1,0ZM61.5,333.5l0,1l-1,1l-1,0l-1,0c0,0,1,0,1,0l0,-1l1,0c0,0,0,-1,1,-1ZM57.5,336.5c-1,0,-1,1,-1,1l-3,0l-1,0l-3,0c0,0,-1,0,-1,-1c0,-1,0,-1,0,-1c0,0,0,-1,1,-1l3,0l1,0l3,0l1,1ZM57.5,322.5l0,1c-1,0,-1,0,-1,0l-3,0l-1,0l-3,0c0,0,-1,0,-1,0l0,-1c0,-1,0,-1,0,-1l0,-1l1,0l3,0l1,0l3,0l0,1c1,0,1,0,1,0ZM56.5,324.5c1,0,1,0,1,0c1,0,1,0,1,0c1,0,1,0,1,1l1,0l1,0l1,0l0,1l0,1l0,1l0,1c0,1,0,1,0,1l0,1l-1,1l-1,0l-1,1l-1,0l-1,0l-1,0l-3,0l-1,0l-3,0l-1,0l-1,0c0,0,-1,0,-1,0c0,0,-1,0,-1,-1l-1,0l-1,0l0,-2l-1,0l0,-1c0,-1,0,-1,0,-1c0,-1,0,-1,1,-1l0,-1l0,-1l1,0l1,0l1,-1c0,0,1,0,1,0c1,0,1,0,1,0l1,0l3,0l1,0ZM56.5,333.5c1,0,1,0,1,0l1,0l1,0l0,-1l1,0l1,0l0,-1l1,0l0,-1l0,-1c0,-1,0,-2,0,-2c0,-1,0,-1,-1,-1c0,-1,0,-1,0,-1l-1,1l0,-1l-1,0l0,-1l-1,0l-1,0l-1,0l0,1l-3,0l-1,0l-3,0l0,-1l-1,0l-1,0c-1,0,-1,0,-1,0l0,1l-1,0c0,0,0,1,0,1l-1,-1c0,0,-1,0,-1,1l0,1l0,1l0,1l0,1l0,1c0,0,0,1,1,1l1,0l1,0l0,1l1,0c1,0,1,0,1,0c0,0,1,0,1,0l0,-1l3,0l1,0l3,0l0,1ZM54.5,328.5l0,1l0,1l0,1l-1,0c0,-1,0,-2,0,-3l0,-1l1,0c0,0,1,0,1,0l1,0l0,1c0,0,-1,0,-1,0c-1,0,-1,0,-1,0ZM50.5,328.5l0,1l0,1l0,1c0,-1,0,-2,-1,-3l0,-1l1,0l1,0c0,0,1,0,1,0l1,0l-1,1c0,0,-1,0,-1,0l-1,0ZM43.5,324.5l1,-1l1,-1l1,0l1,0l0,1c-1,0,-1,0,-1,0c-1,0,-1,0,-1,0l0,1l-1,0l-1,0ZM43.5,333.5l1,0c0,0,0,1,1,1l1,1l1,0l-1,0c0,0,1,0,1,0c0,0,-1,0,-1,0c-1,0,-2,0,-2,-1l-1,0ZM109.5,327.5c0,0,-1,0,-1,0c0,0,0,1,0,1l1,0c0,0,0,-1,0,-1ZM109.5,335.5c0,0,-1,0,-1,0c0,0,0,1,-1,1c0,0,-1,0,-1,0l-1,0c0,0,-1,0,-1,-1c0,0,-1,0,-1,0c0,0,1,0,1,0c1,0,1,0,1,0c1,0,1,0,1,0c1,-1,1,-1,1,-1c1,0,1,0,1,-1c1,0,1,0,1,0c0,-1,0,-1,1,-2c0,0,0,-1,0,-1l0,-1c0,1,0,1,0,1c0,0,-1,0,-1,0c-1,0,-1,0,-1,0c0,0,-1,0,-1,0c0,0,0,-1,0,-1c0,0,0,-1,0,-1l0,-1l1,-1l0,-1c1,0,1,0,1,0c0,0,1,0,1,0c0,0,0,1,0,1c0,0,1,1,1,1c0,0,0,1,0,1c0,0,0,1,0,1c0,1,0,1,0,1c0,1,0,2,-1,3c0,0,0,1,0,1c-1,0,-1,1,-1,1ZM106.5,321.5l4,-2l0,1l-5,2ZM102.5,331.5l0,-1l0,-1l-1,-9l1,-2l1,11c0,0,0,1,0,1c-1,0,-1,1,-1,1ZM94.5,329.5c1,0,1,0,1,0c0,0,1,0,1,0c0,0,1,0,1,0c0,0,0,-1,0,-1l0,-2l-1,-6l0,-1c0,0,0,-1,0,-1c0,0,1,-1,1,-1l0,1c0,1,1,1,1,1c0,0,0,1,0,1l0,1l-1,0c0,0,0,1,1,2c0,0,0,1,0,2c0,1,0,1,0,2l0,1c0,1,0,1,0,1l-1,0c0,1,0,1,0,1c0,1,-1,1,-1,1l-1,0l-1,0l-1,0c-1,0,-1,0,-1,0c-1,-1,-1,-1,-1,-1c-1,0,-1,0,-1,0c-1,0,-1,0,-1,1c0,1,-1,1,-1,1l0,1c0,0,0,1,1,1l0,1l-1,1c0,0,0,1,0,1c0,0,-1,-1,-1,-1l0,-1c-1,-1,-1,-2,-1,-2c0,-1,0,-2,1,-2c-1,0,-1,0,-2,0l-1,0l-1,0c-1,0,-1,0,-2,-1c0,0,-1,-1,-1,-1l0,-9l1,-2l0,10l0,1l1,0l1,0l1,0l1,0c1,0,2,0,2,0l1,0c0,-1,1,-1,1,0l-1,0l0,1c0,0,-1,1,-1,2c0,1,0,2,1,2c0,0,0,-1,0,-1l0,-1c0,0,0,-1,0,-1c0,0,0,-1,1,-1c0,0,0,-1,0,-1c1,0,1,0,1,0c1,0,1,-1,1,-1l0,1l1,0l1,0l1,0ZM91.5,327.5l-2,-1l1,-1l2,1ZM90.5,317.5l0,1l1,0c0,0,0,-1,0,-1l0,-1l1,0l0,1c1,0,1,0,1,-1l0,-1l0,1l0,1c0,1,0,1,0,1l-1,0l-1,0c0,1,0,1,-1,1c0,0,0,-1,0,-1l0,-1ZM94.5,314.5l-5,3c0,-1,0,-2,0,-2l6,-3ZM83.5,322.5l4,-3l0,1c0,0,-1,0,-1,1l-4,2ZM69.5,334.5c1,0,1,0,1,0l1,0c1,0,2,0,3,-1l1,-1c0,0,1,0,1,-1c0,0,0,-1,0,-1c0,0,1,0,1,-1l-1,0l0,-1l0,-1l-1,0l1,-1l0,-1l1,1c0,0,0,1,0,1l0,1l0,1c0,1,0,1,0,2c0,1,0,1,0,1c-1,1,-1,1,-1,1c0,0,0,1,-1,1l0,1l-1,0c0,0,-1,0,-1,0c0,0,-1,0,-1,0l-1,0l-1,0l-1,0ZM72.5,321.5l4,-2l0,1l-4,2ZM145.5,331.5l0,-1l0,-1l-1,-9l1,-2l1,11c0,0,0,1,0,1c-1,0,-1,1,-1,1ZM137.5,329.5c1,0,1,0,1,0c1,0,1,0,1,0c0,0,1,0,1,0c0,0,0,-1,0,-1l0,-2l-1,-6l0,-1c0,0,0,-1,0,-1c1,0,1,-1,1,-1l0,1c0,1,1,1,1,1c0,0,0,1,0,1l0,1c-1,0,-1,0,-1,0c0,0,1,1,1,2c0,0,0,1,0,2c0,1,0,1,0,2l0,1c0,1,0,1,0,1l-1,0c0,1,0,1,0,1c0,1,-1,1,-1,1l-1,0l-1,0l-1,0c-1,0,-1,0,-1,0l0,-1c0,0,-1,0,-1,0l-1,0c0,1,-1,1,-1,1c0,0,-1,0,-1,0l-1,0c0,0,-1,0,-1,0c0,0,-1,-1,-1,-2l0,1l0,1l0,1c0,0,0,1,0,1c0,1,-1,1,-1,2c0,0,-1,0,-1,0c0,0,-1,1,-1,1c0,0,-1,0,-1,0c-1,0,-1,0,-2,0l-1,0c-1,0,-1,0,-2,-1l0,-1c-1,0,-1,0,-1,-1c0,-1,0,-1,1,-2c0,0,0,-1,0,-1l1,-1l0,1c0,0,-1,0,-1,1l0,1c0,0,0,1,1,2c0,0,1,0,2,0l1,0c1,0,1,0,2,0c1,-1,2,-1,2,-1c0,-1,1,-1,1,-1l0,-1l0,-3c0,0,-1,0,-1,-1c0,0,0,-1,0,-1l0,-7l1,-2l1,11c0,0,0,1,0,1l1,0l1,0c0,0,1,0,1,0c0,0,1,0,1,0c0,0,1,0,1,-1c1,0,1,0,1,0c0,0,0,1,0,1c1,0,1,0,1,0l1,0ZM139.5,313.5l0,1c1,0,1,0,1,0l0,-1l1,-1l0,1c0,1,0,1,0,1c1,0,1,-1,1,-1l0,-1l0,1l0,1l0,1l-1,0l0,-1l-1,0l0,1l-1,0l0,-1l0,-1ZM143.5,310.5l-5,3c0,-1,0,-1,0,-1l6,-3ZM135.5,334.5l-1,-1l-1,2l-1,-1l0,-2l2,1l1,-1l1,1ZM131.5,313.5c0,0,1,0,1,0c0,0,1,0,1,0c1,0,1,0,2,0c0,0,0,1,0,1l0,1c-1,0,-1,0,-1,0c0,0,-1,0,-1,0c0,0,0,1,-1,1c0,0,-1,0,-1,-1l2,0c1,0,1,-1,1,-1c-1,0,-1,0,-1,0c-1,0,-1,0,-1,0c-1,0,-1,0,-1,0c0,-1,0,-1,0,-1ZM125.5,315.5l5,-3c0,1,0,2,0,2l-6,2ZM175.5,329.5c1,0,1,0,1,0c1,0,1,0,1,0c1,0,1,0,1,0c0,0,0,-1,0,-1l0,-2l0,-6c-1,0,-1,0,-1,-1c0,0,0,-1,1,-1c0,0,0,-1,0,-1l0,1c1,1,1,1,1,1c0,0,0,1,0,1l0,1c0,0,0,1,0,2c0,0,0,1,0,2c0,1,0,1,0,2l0,1c0,1,0,1,0,1c0,1,-1,1,-1,1c0,1,0,1,-1,1c-1,0,-1,0,-1,0l-1,0c-1,0,-1,0,-2,0c0,0,0,-1,-1,-1l-2,-2c0,-1,-1,-1,-1,-1l0,1l0,1l-1,0c0,1,0,1,0,1c0,0,-1,1,-1,1l-1,0l-1,0l-1,0l-2,0c-1,0,-1,0,-1,0c-1,0,-1,0,-1,-1l0,1l0,1l0,1l-1,0l-1,-1c0,0,0,-1,0,-1l-1,-1l-1,0c0,1,0,1,0,1c-1,0,-1,0,-1,0l0,1l0,1l0,1l1,2l0,2c0,1,0,1,0,2l0,1l0,-1l0,-1l-1,0l0,-1l0,-3l0,-1l0,-1l0,-1l0,-1c0,-1,0,-1,1,-2l1,-1l1,0l0,-1c1,1,2,1,3,2l1,0l1,0l1,0l1,0c1,0,1,0,1,0c0,0,1,0,1,0c1,0,1,0,1,-1c0,-1,0,-1,0,-1c0,0,0,-1,-1,-1c-1,-1,-1,-1,-1,-1c-1,0,-1,-1,-1,-1c-1,0,-1,0,-1,0l-1,0c0,-1,0,-1,0,-1c0,-1,0,-1,0,-1c0,0,0,-1,0,-1c0,0,1,0,1,0c0,-1,0,-1,0,-1c1,0,2,0,3,-1c1,-1,3,-1,4,-2c2,0,3,-1,3,-1l1,0l-1,2c-1,0,-2,0,-3,1c-1,0,-3,1,-4,1c-1,1,-2,1,-3,2l1,1c0,0,1,0,1,0l1,0l0,1c1,0,2,1,2,1c1,0,1,1,2,1c0,1,1,1,1,2l2,1l1,0ZM176.5,315.5l5,-2l-1,1l-4,2ZM168.5,312.5c0,0,0,-1,0,-1c0,0,1,0,1,0c1,0,1,0,1,1l0,1c-1,0,-1,0,-1,0l1,1l0,1l-1,-1l-1,1c-1,1,-1,1,-1,1l-1,0c-1,0,-1,0,-1,0l1,0l1,-1l1,0l0,-1c-1,-1,-1,-1,-1,-1c0,-1,0,-1,1,-1ZM169.5,312.5l-1,0l0,1l1,0l0,-1ZM157.5,315.5c0,0,1,0,1,-1l1,0c0,0,0,1,0,1c0,0,0,1,0,1c0,1,0,1,0,1l1,0l-1,1l-1,0l-1,1l-1,1l-1,0l1,-1c0,0,1,-1,1,-1l1,0l0,-1l-1,0l0,-1l0,-1ZM158.5,316.5l0,-1c0,1,0,1,0,1ZM225.5,327.5c0,0,-1,0,-1,0c0,0,0,1,0,1l1,0c0,0,0,-1,0,-1ZM225.5,335.5c0,0,-1,0,-1,0c0,0,0,1,-1,1c0,0,-1,0,-1,0l-1,0c0,0,-1,0,-1,-1c0,0,-1,0,-1,0c0,0,1,0,1,0c1,0,1,0,1,0c1,0,1,0,1,0c1,-1,1,-1,1,-1c1,0,1,0,1,-1c1,0,1,0,1,0c0,-1,0,-1,1,-2c0,0,0,-1,0,-1l0,-1c0,1,0,1,0,1l-1,0c-1,0,-1,0,-1,0l-1,0c0,0,0,-1,0,-1c0,0,0,-1,0,-1l0,-1c0,0,1,0,1,-1l0,-1c1,0,1,0,1,0c0,0,1,0,1,0c0,0,0,1,0,1c1,0,1,1,1,1c0,0,0,1,0,1c0,0,0,1,0,1c0,1,0,1,0,1c0,1,0,2,-1,3c0,0,0,1,0,1c-1,0,-1,1,-1,1ZM222.5,321.5l4,-2l0,1l-4,2ZM211.5,330.5l-1,0c0,0,0,1,-1,1l-1,0l-2,0c-1,0,-2,0,-3,0c0,-1,0,-1,0,-2l0,-1l-1,0c0,0,-1,1,-1,1l-4,1c-1,0,-1,1,-1,1c-1,0,-1,0,-2,0l-1,0c0,1,0,1,0,1c-1,1,-1,2,-1,2c0,0,0,1,-1,1l0,1c-1,0,-1,0,-1,0c-1,1,-1,1,-1,1c-1,0,-1,0,-1,0l-1,0c0,0,-1,0,-1,-1c-1,0,-1,0,-1,0l1,0c1,0,1,0,2,0c0,-1,1,-1,1,-1c0,0,1,0,1,-1c1,-1,1,-1,1,-1c0,-1,1,-1,1,-2l0,-1c0,0,-1,0,-1,0l0,-1l0,-1l1,0c0,1,0,1,0,1l1,0l1,0l1,0c0,0,1,0,1,0c1,0,1,0,2,0l1,-1l1,0l-2,-1c-1,0,-1,0,-2,0c0,0,-1,0,-1,0l-1,0l0,-1l1,0c0,0,0,-1,0,-1c1,0,1,0,2,0l1,0c0,0,1,0,1,0c1,1,2,1,3,2c1,0,1,0,2,0c1,0,1,0,2,0l0,1l-1,0l-1,0c0,1,0,1,0,1l1,0l1,0l2,0c1,0,1,0,2,0l1,0c0,0,0,-1,0,-1l1,0l0,1l1,0c0,0,1,0,1,0c1,0,1,0,1,0c0,0,0,-1,0,-1l0,-1l1,0l0,1c0,1,0,1,0,1l1,0l1,0l0,-1l0,-1l1,0l0,1l0,1c0,0,0,1,0,1c-1,0,-1,1,-1,1l-1,0c-1,0,-1,0,-1,0l0,-1l-1,0l0,1c-1,0,-1,0,-1,0l-1,0c-1,0,-1,0,-1,0c-1,0,-1,0,-1,-1ZM211.5,318.5l5,-2l-1,1l-4,2ZM200.5,323.5l-2,-1l1,-1l2,1ZM198.5,313.5l0,1c0,0,0,1,0,1c0,0,0,-1,0,-1c0,0,1,0,1,0l0,-1l0,1c1,0,1,0,1,0l0,-1l0,-1l1,0l0,1l0,1c0,1,-1,1,-1,1l-1,0c-1,1,-1,1,-1,1c0,0,-1,0,-1,-1l0,-1l0,-1ZM202.5,311.5l-6,2c0,0,1,-1,1,-1l5,-3ZM188.5,318.5l4,-2l0,1l-4,2ZM280.5,330.5l-1,1c-1,0,-1,0,-2,0l-1,0l-1,0l-1,0l0,-1l0,-1l1,0c1,0,1,0,2,0c0,0,1,0,1,0l1,0c0,0,0,-1,1,-1l-1,-1c0,0,0,-1,0,-1l-1,0l-1,-1l-1,0l0,-1l0,-2c1,1,1,1,1,1c1,0,1,0,1,0c0,0,0,1,0,1c1,0,1,0,1,0c0,0,0,1,1,1c0,1,0,1,0,2c0,1,0,1,0,1c0,0,0,1,0,1c0,0,0,1,0,1ZM276.5,318.5l4,-2l0,1l-4,2ZM270.5,331.5l0,-1l0,-1l-1,-9l1,-2l1,11c0,0,0,1,0,1c-1,0,-1,1,-1,1ZM267.5,315.5l1,0c0,0,1,0,1,0c1,0,1,0,2,0l1,0c0,1,0,1,-1,1l-1,0l-1,0l-1,0l-1,0l-1,0c0,0,1,-1,1,-1ZM262.5,334.5l0,-1c1,0,1,0,1,-1l1,0c1,0,1,0,1,0l0,1l-1,0c-1,0,-1,0,-1,1l1,0c1,0,1,1,1,1c0,0,0,-1,0,-1l1,0l0,1l-4,2l0,-1l1,0c0,-1,0,-1,0,-1c-1,0,-1,0,-1,-1ZM263.5,331.5l-1,0l-1,0c-1,0,-1,0,-1,0c-1,0,-1,0,-1,0l0,-1l-1,0c0,0,-1,0,-1,0c0,1,0,1,-1,1l-1,0l-1,0l-1,0l0,-1l-1,-1l0,-1l0,-1c0,1,-1,1,-1,1c-1,1,-1,1,-1,1c0,1,0,1,0,1l0,1c0,1,0,1,0,2c-1,0,-1,1,-2,1c0,1,-1,1,-1,2c-1,0,-2,0,-3,0c0,0,-1,0,-1,0c-1,0,-1,-1,-2,-1c0,0,0,-1,-1,-1c0,-1,0,-1,0,-2l0,-1c0,-1,0,-1,0,-1c0,0,1,0,1,-1c0,0,0,-1,0,-1l1,0c0,1,0,1,-1,1c0,1,0,1,0,1l0,1c0,1,0,1,0,1c0,1,1,1,1,1l0,1c1,0,1,0,1,0c0,0,1,0,2,0c1,0,1,0,2,0c1,-1,1,-1,2,-1c0,-1,0,-1,0,-1l0,-1l0,-1c0,0,0,-1,0,-1c0,0,-1,0,-1,-1l0,-1l0,-2c0,0,1,1,1,1c0,0,0,1,0,1l1,0c0,0,1,0,1,0c0,-1,1,-1,1,-1c0,0,0,-1,0,-1l1,0l0,1l0,1c0,0,0,1,0,1c0,1,1,1,1,1c0,0,1,0,1,0c1,0,1,0,1,0c0,0,1,0,1,0l1,-1l1,0l0,1l1,0l1,0l1,0l1,0c0,0,1,0,1,0c1,0,1,0,1,0c0,0,1,0,1,0l0,-1c0,0,-1,0,-1,0c0,-1,0,-1,0,-1l0,-1l0,-1c1,0,1,0,1,0c0,0,0,1,0,1c0,1,0,1,0,1c0,1,0,1,0,1c0,1,0,1,0,1c0,1,0,1,0,1c-1,0,-1,1,-2,1c0,0,-1,0,-1,0ZM266.5,339.5l-4,2c0,-1,1,-1,1,-1l4,-2ZM258.5,335.5l-1,-1l1,-1l1,1ZM256.5,318.5l4,-2l0,1l-4,2ZM254.5,334.5l-1,-1l-1,1l-1,0l0,-2l2,1l1,-1l1,1ZM249.5,317.5c1,0,1,-1,1,-1c1,0,1,0,2,0c0,0,1,0,1,0c1,0,1,1,1,1c0,1,-1,1,-1,1c0,0,0,1,-1,1c-1,0,-1,0,-1,0l-1,0l1,0c1,-1,2,-1,2,-1c0,0,-1,-1,-1,-1l-1,0l-1,1l-1,0c0,-1,0,-1,0,-1ZM245.5,327.5l-2,-1l1,-2l1,1ZM247.5,339.5l-4,2c0,0,0,-1,0,-1l4,-2ZM329.5,327.5c0,0,0,1,-1,1c1,0,1,0,1,0l1,0c0,0,0,-1,0,-1c-1,0,-1,0,-1,0ZM329.5,335.5c-1,0,-1,1,-1,1c-1,0,-1,0,-2,0c-1,0,-1,0,-2,-1l-1,0l1,0c0,0,1,0,1,0c0,0,1,0,1,0c1,0,1,0,1,0c0,-1,0,-1,1,-1l1,-1c1,-1,1,-1,1,-2c0,0,1,-1,1,-1l-1,-1c0,1,0,1,0,1c0,0,-1,0,-1,0c0,0,-1,0,-1,0c0,0,0,-1,0,-1c-1,0,-1,0,-1,0c0,0,0,-1,0,-1l1,0l0,-1l0,-1c0,0,1,0,1,-1l1,0c0,0,1,1,1,1c0,0,0,1,0,1c0,0,0,1,0,1c0,0,0,1,0,1c0,1,0,1,0,1c0,1,0,2,0,3c-1,0,-1,1,-1,1c0,0,-1,1,-1,1ZM326.5,321.5l5,-2l-1,1l-4,2ZM322.5,331.5l0,-1l0,-1l0,-9l1,-2l0,11c0,0,0,1,0,1c0,0,0,1,-1,1ZM315.5,329.5l1,0c1,0,1,0,1,0c0,0,0,-1,0,-1l0,-2l0,-6l0,-1c0,0,0,-1,0,-1c0,0,0,-1,0,-1c1,0,1,0,1,1c-1,0,-1,0,-1,0c0,0,1,0,1,0c0,1,0,1,1,1c0,0,-1,1,-1,1l0,1c0,0,0,1,0,2c0,0,0,1,0,2c0,1,0,1,0,2l0,1c0,1,0,1,0,1c0,1,0,1,0,1c-1,0,-1,0,-1,0c0,1,0,1,0,1c-1,0,-1,0,-1,0c0,0,-1,0,-1,0l-2,0c-1,0,-2,0,-2,0c-1,0,-1,0,-1,-1c-1,1,-1,1,-2,1c-1,0,-1,0,-2,0l-1,0l-1,0c0,0,-1,0,-2,0l0,-1c0,1,-1,1,-1,2c0,0,-1,-1,-1,-1l-1,0l-2,-1l-1,1l-1,0l-1,0l-1,0c0,1,0,1,0,1c0,1,0,2,-1,2c0,0,0,1,0,1c0,0,-1,0,-1,1c0,0,-1,0,-1,0c0,1,-1,1,-1,1c0,0,-1,0,-1,0c-1,0,-1,0,-2,-1l-1,0c1,0,1,0,1,0l1,0c0,0,1,0,1,0c1,-1,1,-1,1,-1c1,0,1,0,1,-1c0,0,1,0,1,0c0,-1,0,-1,1,-1c0,-1,0,-1,0,-2l0,-1l0,-1l0,-1c0,1,0,1,0,1l1,0l1,0l1,0c1,0,1,0,1,0l1,0c0,0,0,-1,0,-1c1,-1,2,-2,3,-2l1,1l0,1l1,1l1,0l1,0l1,0l1,0c0,0,1,0,1,0l1,0l0,-1c0,-1,0,-1,0,-2c0,0,1,-1,1,-1c1,-1,1,-1,2,-1c0,0,1,0,1,1l0,1l1,1l-1,0c0,0,0,1,0,1c0,1,0,1,-1,1c1,0,1,0,1,0l1,0l1,0ZM315.5,313.5l1,0c0,0,1,0,1,0c1,0,1,0,2,0c0,0,0,1,0,1l-1,1l-1,0c0,0,-1,1,-1,1c-1,0,-1,0,-1,-1l2,0c0,0,1,-1,1,-1l-1,0c-1,0,-1,0,-2,0c0,-1,0,-1,0,-1ZM311.5,323.5l-1,-1l-1,1l-2,-1l1,-1l2,1l0,-2l2,1ZM310.5,326.5l-1,0c0,0,0,1,0,1l0,1c0,0,1,0,1,0c0,0,1,0,1,0c0,0,0,-1,1,-1l-1,-1l-1,0ZM306.5,315.5l4,-2l0,1l-4,2ZM301.5,330.5l-1,-1c0,-1,0,-1,0,-2l-1,1l-1,0c0,0,1,1,2,1ZM297.5,318.5l4,-2l0,1l-4,2ZM288.5,318.5l5,-2l-1,1l-4,2ZM391.5,331.5l0,-1l0,-1l0,-9l0,-2l1,11c0,0,0,1,0,1c0,0,-1,1,-1,1ZM383.5,329.5c1,0,1,0,1,0c1,0,1,0,1,0c1,0,1,0,1,0c0,0,0,-1,0,-1l0,-2l0,-6c-1,0,-1,0,-1,-1c0,0,0,-1,1,-1c0,0,0,-1,0,-1l0,1c1,1,1,1,1,1c0,0,0,1,0,1l0,1c0,0,0,1,0,2c0,0,0,1,0,2c0,1,0,1,0,2l0,1c0,1,0,1,0,1c-1,1,-1,1,-1,1c0,1,0,1,-1,1l-1,0l-1,0l-1,0l0,-1c-1,0,-1,0,-1,0c0,-1,0,-1,0,-1c0,1,-1,1,-1,1c0,1,-1,1,-1,1c-1,0,-1,-1,-2,-1c-1,1,-1,1,-2,1c-1,0,-1,0,-2,-1c-1,1,-1,1,-2,1l-1,0l-1,0l-1,0l-1,-1c0,1,0,1,-1,2c0,0,-1,-1,-1,-1l-1,0l-1,-1l-1,1c-1,0,-1,0,-1,0l-2,0l-1,0l-1,0l0,-1c0,0,0,-1,-1,-1l0,1l0,1l-1,0l-1,0l-1,0l0,-1c0,0,-1,0,-1,0l0,1c-1,0,-1,0,-1,0c0,0,-1,0,-1,0l-1,0l0,1l0,1l0,1l0,1l-1,1c-1,1,-1,1,-1,1c-1,0,-1,0,-1,1c-1,0,-1,0,-2,0l-1,0l-1,0c0,0,-1,0,-1,0c-1,-1,-1,-1,-1,-1c0,0,-1,0,-1,-1l0,-1l-1,0l0,-1c0,0,1,0,1,-1l0,-1l0,-1l1,0l0,-1l0,1c0,1,0,1,0,1l-1,1c0,1,1,1,1,1c0,1,0,1,0,1l1,1c1,0,1,0,1,0c1,0,1,0,2,0c0,0,1,0,1,0l1,0c1,0,1,-1,1,-1c0,0,1,0,1,0l0,-1l1,0c0,-1,0,-1,0,-1c0,-1,0,-1,-1,-1c0,-1,0,-1,0,-1c0,0,0,-1,0,-1l0,-2l1,1c1,0,1,0,1,0c0,0,1,0,1,0l1,0l1,-1l0,-1l1,0l0,1l0,1c0,0,1,0,1,0c0,0,1,0,1,0l0,-1l0,-1l1,0l0,1l0,1c1,0,1,0,1,0l1,0l2,0l1,0c0,0,0,-1,1,-1c1,-1,2,-2,2,-2l1,1l1,1l0,1l1,0l1,0l1,0l1,0l1,0c1,0,1,-1,2,-1c0,1,1,1,1,1c1,0,1,0,2,0c0,0,0,-1,1,-1l0,-1c0,1,0,1,0,1c0,1,1,1,1,1c1,0,1,0,1,0c0,0,0,-1,1,-1l0,-1c1,2,1,2,2,2ZM376.5,323.5l-1,-1l1,-1l1,1ZM378.5,325.5l-2,-1l0,2l-2,-1l1,-2l1,1l1,-1l2,1ZM375.5,313.5l0,1c0,0,0,1,0,1c0,0,0,-1,0,-1c1,0,1,0,1,0l0,-1l0,1l1,0l0,-1l1,-1l0,1l0,1c0,1,-1,1,-1,1c-1,0,-1,0,-1,0c-1,1,-1,1,-1,1l-1,-1l0,-1l0,-1ZM379.5,311.5l-6,2c0,0,1,-1,1,-1l5,-3ZM367.5,330.5l-1,-1c0,-1,-1,-1,-1,-2l0,1l-1,0c0,0,0,1,1,1l1,0ZM363.5,316.5c0,0,1,0,1,-1c0,0,1,0,1,0c1,0,1,0,2,0c0,1,0,1,0,1c0,1,0,1,0,1c0,1,-1,1,-1,1c0,0,-1,0,-1,0l-1,0l-1,0l2,0c1,-1,1,-1,2,-1c-1,0,-1,0,-1,0c-1,-1,-1,-1,-1,-1c0,0,-1,1,-1,1c0,0,-1,0,-1,0c0,0,0,-1,0,-1ZM344.5,321.5l5,-2l-1,1l-4,2ZM420.5,326.5c0,0,1,0,1,0c0,0,1,0,1,0c0,-1,0,-1,0,-1c1,0,1,0,1,-1l0,-2l-1,-6l0,-1l0,-1c0,0,1,0,1,0c0,0,0,1,0,1c0,0,1,0,1,0c0,1,0,1,0,1c0,1,0,1,-1,1c0,0,0,1,0,2c0,0,0,1,0,3c1,0,1,0,1,1l0,1c0,0,0,1,0,1c0,0,-1,0,-1,0c0,0,0,1,0,1c0,1,0,1,0,1c-1,0,-1,0,-1,0l-1,0l-1,0l-1,0c0,0,-1,0,-1,0l-1,-1l-2,-2c-1,0,-1,-1,-1,-1l-1,0l0,1l0,1c0,1,0,1,-1,2c0,0,-1,0,-1,0c0,0,-1,0,-1,0l-1,0l-3,0l-1,0l0,1l0,1c0,0,-1,1,-1,1c0,0,-1,-1,-1,-1c0,-1,-1,-1,-1,-2l0,-1c0,0,-1,1,-1,1c-1,0,-1,0,-1,0l0,1l0,1l0,1l0,2l0,1l1,1c0,1,0,2,0,2c0,1,0,1,0,1l-1,0l0,-1l0,-1l0,-1l-1,-3l0,-1l0,-1l0,-1l0,-1c0,0,1,-1,1,-1l1,-1l1,-1l1,0c0,0,1,1,2,1l2,1l1,0l1,0l1,0c0,0,1,0,1,0l1,0c0,-1,0,-1,0,-1c1,0,1,0,1,-1c0,0,0,-1,-1,-1c0,-1,0,-1,-1,-1c0,0,0,-1,-1,-1l-1,0c-1,0,-1,-1,-1,-1c0,-1,0,-1,0,-1l0,-1c0,-1,0,-1,0,-1c1,0,1,0,1,0c0,-1,1,-1,3,-2c1,0,2,-1,4,-1c2,-1,2,-1,3,-1l1,-1l-1,2c0,0,-1,0,-1,0c0,0,-1,1,-2,1c-2,1,-3,1,-4,2c-2,0,-3,1,-3,1l-1,0l0,1l2,0l1,0c0,1,0,1,0,1l1,0c1,1,1,1,2,1c0,1,1,1,1,2c1,0,1,1,2,1l2,2l1,0ZM421.5,311.5l4,-2l0,1l-4,2ZM412.5,308.5l1,-1l1,0c0,0,0,1,0,1c0,0,0,1,0,1c0,0,0,1,0,1l1,0l-1,1l-1,0l-1,1l-1,0l0,1l-1,0l1,-1c0,0,1,-1,1,-1l1,0l0,-1l-1,0l0,-1l0,-1ZM413.5,308.5c0,1,0,1,0,1ZM403.5,312.5l-1,0l1,0l0,1l0,-1Z" class="g1_38" />
</svg>