<?xml version="1.0" encoding="UTF-8" standalone="no"?>
<!DOCTYPE svg PUBLIC "-//W3C//DTD SVG 1.1//EN"
"http://www.w3.org/Graphics/SVG/1.1/DTD/svg11.dtd">
<svg version="1.1" xmlns="http://www.w3.org/2000/svg" xmlns:xlink="http://www.w3.org/1999/xlink">
<defs>
<style type="text/css"><![CDATA[
.g1_34{
fill: #1F1A17;
stroke: #1F1A17;
stroke-width: 1;
stroke-linecap: butt;
stroke-linejoin: miter;
}
]]></style>
</defs>
<path fill-rule="evenodd" d="M338.5,571.5l6,-3c-1,1,-1,1,-1,2l-5,2ZM149.5,588.5l0,-1l1,-1l-1,-9l1,-2l0,11c0,0,0,1,0,1c0,0,0,1,-1,1ZM142.5,586.5l1,0l1,0c0,0,0,-1,0,-1l0,-2l0,-6c0,0,0,-1,0,-1c0,0,0,-1,0,-1c0,0,0,-1,1,-1l0,1c0,0,0,1,1,1l-1,1l0,1l0,-1c0,0,0,1,0,1c0,0,0,1,0,2l0,2c0,1,0,1,0,1l0,1c0,1,0,1,0,1c0,0,0,1,0,1c0,1,0,1,0,1c-1,0,-1,0,-1,0l0,1c0,0,-1,0,-1,0l-1,0l-1,0l-1,0c0,0,-1,0,-1,-1l-1,0l0,-1c0,0,-1,1,-1,1c-1,0,-1,0,-1,0c0,1,-1,1,-1,1l-1,0l-1,0l-10,0l0,1c0,0,0,1,0,1l-1,0l0,-1l0,-1l-1,0l-1,0l-1,-1l0,-1c0,1,-1,1,-1,2c0,0,-1,0,-1,0l-1,0c-1,0,-2,0,-2,0c0,-1,0,-1,-1,-1c0,1,0,1,0,2l-1,0l-1,-1c-1,0,-1,0,-1,-1l-1,1l0,1c0,0,-1,0,-1,1c-1,0,-1,0,-2,1c-2,0,-3,0,-4,0l4,-2l2,-1c0,0,1,0,1,-1l1,-2c0,0,0,-1,1,-1l1,0c0,0,1,0,1,1c0,0,1,1,1,1c0,0,1,0,1,0c0,0,1,0,1,0c1,0,1,0,1,0c1,0,1,0,1,0c0,0,0,-1,1,-1l0,-1l0,1c0,1,1,1,1,1c0,0,1,0,1,0l1,0c1,0,1,0,1,0c1,-1,1,-1,1,-2l0,-1l0,-1l0,-1l-1,-3l0,-2c0,-1,0,-1,0,-1l1,0l0,-1l1,2c-1,1,-1,1,-1,2l0,1l1,0l0,2l0,1l0,1l0,1l0,1l1,-1l1,-1l1,0c0,-1,1,-1,1,-1l1,0c0,0,1,0,1,0c1,1,1,1,1,2c0,0,0,1,0,1l0,1l-1,0l0,1l1,-1l1,0l1,0c1,0,1,0,1,0c1,0,1,0,1,0c0,-1,1,-1,1,-1l-1,0c0,0,0,-1,-1,-1l-1,0l1,-2c1,0,1,0,2,0l1,0c1,0,1,0,1,0l1,1l0,1c0,1,-1,1,-1,1c0,0,0,1,0,1l1,0l1,0l1,0ZM115.5,575.5l1,0c0,0,1,0,1,0c1,0,1,0,2,0l0,1l-1,1c-1,0,-1,0,-1,0c0,0,-1,0,-1,0c0,0,-1,0,-1,0l2,0c0,0,1,-1,1,-1c-1,0,-1,0,-1,0c-1,0,-1,0,-2,0l0,-1ZM142.5,570.5l1,0c0,-1,1,-1,1,-1c1,0,1,0,2,1l0,1l-1,0c0,1,0,1,0,1c-1,0,-1,0,-1,0c0,0,-1,0,-1,0c0,0,-1,0,-1,0l2,0c0,0,1,-1,1,-1c-1,0,-1,0,-1,0c-1,0,-1,0,-2,0l0,-1ZM137.5,575.5l4,-2l-1,1l-4,2ZM128.5,580.5l-2,-1l1,-1l2,1ZM131.5,585.5c0,0,0,-1,0,-1c-1,0,-1,0,-1,0c0,0,-1,0,-1,0c-1,0,-1,0,-2,0l-1,1l-2,1l1,0c1,0,1,0,2,0c0,0,1,0,1,0c1,0,2,-1,3,-1ZM126.5,591.5l-4,2c0,0,1,-1,1,-1l4,-2ZM120.5,591.5l-1,-1l-1,1l-1,0l0,-2l2,1l1,-1l1,1ZM112.5,587.5l0,-1c0,-1,0,-1,-1,-1c0,0,-1,1,-1,1c0,0,1,0,1,0l1,1ZM109.5,576.5c0,-1,0,-1,1,-1c0,-1,0,-1,0,-1l1,0c0,1,0,1,0,1c0,1,0,1,0,1l0,1l0,2l-1,-1l-1,1c0,0,0,1,-1,1l-1,0l0,-1l1,0c0,0,1,0,1,-1l1,0l-1,0l0,-1l0,-1ZM110.5,576.5l0,-1c0,0,0,1,0,1l0,1l0,-1ZM187.5,588.5l0,-1l0,-1l0,-9l1,-2l0,11c0,0,0,1,0,1c0,0,0,1,-1,1ZM180.5,586.5l1,0c1,0,1,0,1,0c0,0,0,-1,0,-1l0,-2l0,-6c0,0,0,-1,0,-1c0,0,0,-1,0,-1c0,0,0,-1,0,-1c0,0,1,0,1,0l-1,1c0,0,1,0,1,0c0,0,0,1,1,1c0,0,-1,0,-1,1l0,1l0,-1c0,0,0,1,0,1c0,0,0,1,0,2l0,2c0,1,0,1,0,1l0,1c0,1,0,1,0,1c0,0,0,1,0,1c0,1,0,1,0,1c-1,0,-1,0,-1,0l0,1c-1,0,-1,0,-1,0c0,0,-1,0,-1,0l-1,0c0,0,-1,0,-1,0c0,0,-1,0,-1,-1l-1,0l0,-1c0,0,-1,1,-1,1c-1,0,-1,0,-1,0c-1,1,-1,1,-1,1l-1,0l-1,0c0,0,-1,0,-1,0c0,-1,-1,-1,-1,-3l0,1l0,1l-1,0c0,1,0,1,-1,1c1,0,1,0,1,0c0,0,1,0,1,0c0,1,0,1,0,1c0,1,0,1,0,1c0,1,0,1,0,1c0,0,-1,0,-1,0c0,1,0,1,-1,1c0,1,-1,1,-2,1c-1,1,-2,1,-3,1c0,0,-1,0,-2,0c-1,-1,-1,-1,-1,-1c-1,-1,-1,-1,-1,-1c0,-1,0,-1,0,-2c0,-1,0,-1,0,-2c0,-1,1,-1,1,-2c0,1,0,1,0,2c-1,0,-1,1,-1,1l0,1c1,0,1,1,2,1c0,1,1,1,2,1l1,0c0,0,1,0,1,0c0,0,1,0,1,0c1,-1,2,-1,2,-1c0,0,1,-1,1,-1c0,0,-1,0,-1,0c-1,-1,-1,-1,-2,-1c0,-1,0,-1,0,-1c1,-1,1,-1,1,-1l1,0c0,0,0,-1,0,-1l1,0c0,0,0,-1,1,-1c0,-1,0,-1,0,-1c0,0,0,-1,0,-1l-1,-7l1,-2l1,11c0,0,0,1,0,1c0,0,1,0,1,0l1,0c1,0,1,0,1,0c0,0,1,0,1,0c0,-1,1,-1,1,-1l-1,0c0,0,-1,-1,-1,-1l-1,0l1,-2c1,0,1,0,1,0c1,0,1,0,1,0l1,0c0,0,1,0,1,0l1,1l0,1c0,1,-1,1,-1,1c0,0,0,1,0,1l1,0l1,0l1,0ZM180.5,570.5l1,0c0,-1,1,-1,1,-1c1,0,1,0,1,1c1,0,1,0,1,0l0,1l-1,0c0,1,0,1,0,1l-1,0c0,0,-1,0,-1,0c-1,0,-1,0,-1,0l2,0c0,0,1,-1,1,-1l-1,0c-1,0,-1,0,-2,0l0,-1ZM175.5,575.5l4,-2l-1,1l-4,2ZM171.5,596.5l-4,2c0,-1,0,-1,1,-1l4,-2ZM161.5,577.5c1,1,1,1,1,1c0,-1,0,-1,1,-1l0,-1l0,1l1,0l0,-1l0,-1l1,0l0,1l0,1l-1,0c0,1,0,1,0,1l-1,0c-1,1,-1,1,-1,1c-1,0,-1,0,-1,0c0,-1,0,-1,0,-1l0,-1ZM163.5,571.5c1,-1,1,-1,1,-1c1,0,1,1,1,1c0,0,0,1,0,1c0,1,0,1,-1,1l1,0l0,1l-1,0l-1,1c0,0,-1,0,-1,1c0,0,-1,0,-1,0c1,-1,1,-2,2,-2l0,-1c0,0,-1,0,-1,-1c0,0,1,0,1,0l0,-1ZM164.5,572.5l0,-1l-1,0c0,0,0,1,0,1l1,0l0,1l0,-1ZM218.5,584.5l-1,0l0,1c0,0,1,0,1,0c0,0,1,0,1,0c-1,-1,-1,-1,-1,-1ZM218.5,592.5l-1,0c-1,1,-1,1,-2,1c-1,0,-1,0,-2,-1c0,0,-1,0,-1,0c0,0,1,0,1,0l1,0l1,0l1,-1c1,0,1,0,1,-1c1,0,1,0,1,-1c0,0,1,0,1,-1c0,0,0,-1,0,-1c0,0,0,-1,0,-1l0,1c0,0,-1,0,-1,0l-1,0c-1,-1,-1,-1,-1,-1c0,-1,0,-1,0,-1c0,0,0,-1,0,-1c0,0,1,-1,1,-1c0,0,0,-1,1,-1c1,0,1,0,1,0c0,0,0,1,1,1l0,1l0,1c0,0,0,1,0,1c0,0,0,1,0,1c0,1,0,2,-1,3l0,1c-1,0,-1,0,-1,1ZM215.5,578.5l4,-2l0,1l-4,2ZM211.5,587.5c0,0,-1,0,-2,0l-1,0c0,0,-1,0,-1,0c-1,0,-1,0,-1,1c-1,0,-1,0,-1,0c-1,0,-1,0,-1,0l-1,0l-1,0c0,0,0,1,0,1c-1,0,-1,1,-1,1c0,1,0,1,-1,1c0,1,0,1,-1,1c0,1,0,1,0,1c-1,0,-1,0,-1,0l-1,0l-1,0c0,0,-1,0,-2,0c0,-1,0,-1,0,-1l1,0c1,0,1,0,2,0l1,0c0,-1,0,-1,1,-1c0,0,0,-1,0,-1c1,0,1,0,1,-1c1,0,1,-1,1,-1c0,0,-1,0,-1,0c-1,0,-1,0,-1,0c-1,-1,-1,-1,-1,-1c0,-1,0,-1,0,-1l0,-1c0,0,0,-1,0,-1c1,0,1,0,1,0c0,-1,0,-1,0,-1c1,0,1,0,1,0l1,0c0,0,0,1,0,1l0,1c1,0,1,0,1,0c0,1,0,1,0,1c0,0,1,0,1,0l1,0c0,0,1,0,1,0c1,0,1,0,1,0c0,0,0,-1,0,-1c0,0,0,-1,0,-1l0,-1c0,-1,0,-1,1,-1c0,0,0,-1,0,-1c0,0,0,-1,0,-1c1,0,1,0,1,0c0,0,1,0,2,1c0,0,1,1,1,1c1,1,1,1,1,2l0,1c0,1,0,1,0,1l0,1l-1,0ZM208.5,583.5c0,0,-1,0,-1,0l0,1l0,1l1,0c0,-1,0,-1,0,-1c0,0,0,-1,0,-1ZM209.5,583.5l1,1l-1,0c0,1,0,1,0,1l2,1c0,0,1,0,1,0c0,0,-1,-1,-1,-1l0,-1c-1,0,-1,0,-1,0c0,0,0,-1,-1,-1ZM204.5,569.5c1,-1,1,-1,1,-1c0,0,1,-1,1,-1c0,1,0,1,0,1c1,0,1,0,1,1l-1,1l1,1l0,1l-1,-1l-1,1c-1,1,-1,1,-1,1l-1,0l-1,0l1,0l1,-1l0,-1l1,0l-1,-1l0,-1ZM206.5,569.5l-1,0l0,1l1,0l0,-1ZM200.5,585.5c0,0,-1,0,-1,0c0,0,0,1,0,1c1,0,1,0,1,0l1,0c-1,0,-1,-1,-1,-1ZM196.5,578.5l4,-2l0,1l-4,2ZM232.5,570.5c-1,0,-1,0,-1,0l-1,0l-1,0l-1,0c-1,0,-1,0,-1,0c-1,0,-1,-1,-1,-1l0,-1c0,0,0,-1,0,-1c1,-1,1,-1,2,-2l-1,0c0,0,-1,0,-1,0l0,1l0,-1l1,0l1,0l1,0l1,0l-1,0c0,0,-1,0,-1,1c0,0,-1,0,-1,0c0,0,0,1,0,1c-1,0,-1,1,-1,1l1,1c0,0,1,0,1,1l1,0l1,0ZM229.5,567.5l0,1c-1,0,-1,0,-1,0l0,-1c1,0,1,0,1,0ZM287.5,585.5l-1,0l-2,0l-1,0l-1,1l-1,0l-1,0l-1,1l-1,0l-1,0c-1,1,-2,1,-2,1l-1,0l-1,0l-1,0c-1,0,-1,0,-2,0c0,0,0,-1,-1,-1c0,0,-1,1,-1,1c-1,0,-1,0,-2,0l-1,0l-10,0l0,1c0,0,0,1,0,1c-1,0,-1,0,-1,0l0,-1l0,-1l-1,0l-1,0l-1,0l-1,0l1,1c0,1,0,1,0,1c0,1,0,1,0,2c-1,1,-1,1,-2,1l-1,0c0,-1,-1,-1,-1,-2c0,-1,0,-2,0,-3l-1,0c-1,0,-1,0,-1,0l-1,0l-1,0c0,0,-1,0,-1,-1l0,1l0,1c0,1,-1,1,-1,1l-1,-1c0,0,0,-1,0,-1l-1,-1l-1,1c0,0,-1,0,-1,0l-1,0l-1,0c-1,0,-1,0,-2,-1c0,0,0,-1,0,-2l-1,-8l1,-2l0,9l0,1l1,0l0,1c0,0,1,0,1,0l1,0l1,0l1,0c1,0,1,0,1,-1c0,0,1,0,1,0l0,-1c0,1,1,1,1,1c1,1,2,1,2,1l1,0l1,0l1,0l1,0c0,0,0,-1,0,-1l1,-1c0,-1,0,-1,0,-1c1,-1,2,-2,2,-2c0,0,1,0,1,0l0,1l0,1c0,1,0,1,-1,2c0,0,-1,1,-1,2l1,0l1,-1l1,0l1,0l1,0c0,0,1,0,1,0c0,-1,0,-1,1,-2l0,-1l0,-1l0,-1l-1,0l0,-3l0,-2c0,-1,0,-1,0,-1l0,-1l2,2l-1,0c0,1,0,1,0,2l0,1l0,2l0,1l0,1l0,1l0,1l2,-1l0,-1l1,0c1,-1,1,-1,1,-1l1,0c1,0,1,0,2,0c0,1,1,1,1,2c0,0,0,1,0,1c0,0,-1,0,-1,1l-1,0l0,1l2,-1l2,0c0,0,1,0,1,0c0,0,1,0,1,0l-1,-1c0,-1,1,-1,1,-2c0,0,0,-1,0,-1c1,0,1,0,1,-1c0,0,1,0,2,0l1,0c0,1,0,1,0,2l0,1c0,1,0,1,0,1c0,0,-1,1,-1,1l1,0l1,0l1,0l1,0l1,0c0,0,1,0,1,0c1,0,1,0,2,0l1,-1l1,0l-1,-1l-1,0l-1,-1l-1,0l-1,1c0,-1,0,-1,0,-2c0,0,1,0,1,0c0,0,1,0,1,0c1,0,1,0,1,0l1,0l2,1l1,0c0,0,0,1,1,1l1,0c0,0,1,0,1,0l1,0ZM279.5,591.5l-4,2c0,0,0,-1,0,-1l5,-2ZM270.5,580.5l-2,-1l1,-2l2,1ZM270.5,583.5c0,0,-1,0,-1,0c0,0,-1,0,-1,1l1,0c0,1,0,1,1,1l1,0c0,0,0,-1,0,-1c0,0,0,-1,0,-1c0,0,-1,0,-1,0ZM309.5,572.5c0,0,1,0,1,0c0,-1,1,-1,1,-1c1,0,1,1,2,1l0,1c-1,1,-1,1,-1,1c0,0,-1,0,-1,0l-1,0l-1,0l2,0c1,0,1,-1,2,-1c-1,0,-1,0,-1,0c-1,0,-1,0,-1,0c0,0,-1,0,-1,0c0,0,-1,0,-1,0l0,-1ZM265.5,570.5c0,0,1,0,1,0c1,-1,1,-1,1,-1c1,0,2,0,2,1l0,1c0,1,-1,1,-1,1l-1,0l-1,0l-1,0l2,0c1,0,1,-1,2,-1c-1,0,-1,0,-1,0c0,0,-1,0,-1,0c0,0,-1,0,-1,0c0,0,-1,0,-1,0l0,-1ZM259.5,580.5l-1,-1l1,-1l1,1ZM263.5,585.5c0,0,-1,-1,-1,-1c-1,0,-1,0,-1,0l-1,0c0,0,-1,0,-1,0l-1,1l-1,0l-1,1l1,0c0,0,1,0,1,0l1,0c0,0,1,0,1,0c1,0,2,-1,3,-1ZM260.5,572.5l0,-1c1,0,1,0,1,0c1,0,1,0,1,0c0,0,0,1,0,1l0,1c0,0,0,1,0,1l0,1l-1,0l-1,1c0,0,-1,0,-1,0l-1,1c0,0,0,-1,0,-1l1,0c0,-1,0,-1,1,-1l0,-1c0,0,0,-1,0,-1c0,0,0,-1,0,-1ZM261.5,572.5c-1,0,-1,0,-1,0c0,0,0,1,0,1l1,0ZM250.5,583.5l-1,0l-1,1l0,1l-1,1c1,-1,2,-1,2,-1c1,0,1,-1,1,-1c0,0,0,-1,0,-1ZM247.5,588.5c0,0,0,1,0,1c1,1,1,1,1,2l1,0c1,0,1,0,1,0c1,0,1,0,1,0c0,-1,-1,-1,-2,-2c0,0,-1,-1,-2,-1ZM249.5,572.5l0,-1c1,0,1,0,1,0c1,0,1,0,1,0c0,0,0,1,0,1l0,1c0,0,0,1,0,1l0,1l-1,0l-1,1c0,0,-1,0,-1,0l-1,1c0,0,0,-1,0,-1l1,0c0,-1,0,-1,1,-1l0,-1c0,0,0,-1,0,-1c0,0,0,-1,0,-1ZM250.5,572.5c-1,0,-1,0,-1,0c0,0,0,1,0,1l1,0ZM237.5,578.5l5,-2l-1,1l-4,2ZM324.5,590.5l-1,-1l-1,1l-1,0l1,-2l1,1l1,-1l1,1ZM322.5,587.5l-1,0l-1,0l-4,0l-1,0l-1,0c0,0,0,1,-1,1c0,0,0,1,0,1c0,1,0,1,-1,1c0,1,0,1,-1,1c0,0,0,1,0,1c-1,0,-1,0,-1,0c0,0,-1,0,-1,0l-1,0c0,0,-1,0,-2,0l0,-1l1,0c1,0,1,0,1,0c1,0,1,0,2,0c0,-1,0,-1,1,-1c0,0,0,-1,0,-1c1,0,1,0,1,-1c0,-1,1,-1,1,-1c-1,0,-1,0,-1,0c-1,0,-1,0,-1,0c-1,-1,-1,-1,-1,-1l0,-1l0,-1c0,-1,0,-1,0,-1c1,0,1,0,1,0c0,-1,0,-1,0,-1c1,0,1,0,1,0l1,0c0,0,0,1,0,1c0,1,1,1,1,1c0,1,0,1,0,1c0,0,1,0,1,0c1,0,1,0,1,0l4,0l1,0l1,0l1,0c1,0,1,0,1,0l0,-1l0,-1l-1,-1l1,-1c0,0,1,0,1,1c0,0,0,1,0,1c0,0,0,1,0,1c0,0,0,1,0,1c0,0,-1,1,-1,1l-1,1c0,0,-1,0,-1,0ZM322.5,574.5l4,-2l-1,0l0,1l-4,2ZM316.5,581.5l0,-1c0,0,1,0,1,-1l1,0c0,0,1,0,1,0l0,1l-1,0c-1,0,-1,0,-1,1l1,0c0,1,0,1,1,1l0,-1l1,0l0,1l-1,0l-3,2l0,-1c0,-1,1,-1,1,-1c-1,0,-1,0,-1,-1ZM318.5,568.5c0,-1,1,-1,1,-1c0,0,0,-1,1,-1c0,0,0,1,0,1l0,1l0,1l1,1l-1,1l-1,-1l-1,1c0,0,0,1,0,1l-1,0l-1,0l1,0l0,-1c0,0,1,0,1,0l0,-1l1,0l-1,0l0,-1l0,-1ZM319.5,568.5l0,1l0,-1ZM312.5,584.5c-1,0,-1,0,-1,0c0,1,0,1,0,1c1,0,1,0,1,0c1,0,1,0,1,0c-1,0,-1,-1,-1,-1ZM306.5,586.5l-1,0l-1,0c0,1,-1,1,-2,1l-1,0l-1,0c-1,0,-1,0,-1,0l0,-1c0,0,0,-1,0,-1l1,0l1,0c0,0,1,0,1,0c1,0,1,0,1,0c1,0,1,0,1,-1c1,0,1,0,1,0c0,0,0,-1,0,-1c0,0,-1,-1,-1,-1l-1,-1l-1,0l0,-1l-1,0l1,-2l1,1c1,0,1,0,1,1c1,0,1,1,1,1c0,1,1,1,1,2c0,0,0,1,0,1c0,0,0,1,0,1l0,1ZM303.5,571.5c0,0,1,-1,1,-1l1,0c0,0,1,0,1,1c0,0,-1,0,-1,1l0,1l1,0l0,1l-2,0c-1,1,-1,1,-1,1l-1,0l-1,0l1,0l0,-1c1,0,1,0,1,0l1,-1l-1,0c0,0,0,-1,0,-1c0,0,0,-1,0,-1ZM304.5,571.5l0,1l1,0l0,-1ZM294.5,587.5c0,0,-1,0,-1,0c0,-1,-1,-1,-1,-2c0,0,0,-1,0,-1l1,-1l0,-1l1,-1c0,-1,0,-1,1,-1c0,0,1,0,1,1c1,0,1,1,1,1l0,1l0,1c0,1,0,2,-1,3c-1,0,-1,0,-2,0ZM294.5,582.5c0,0,0,1,-1,1l0,1l0,1c0,0,1,0,1,0l1,0l1,0c0,0,0,-1,0,-1l0,-1c-1,0,-1,0,-2,-1ZM294.5,577.5l0,-1l-1,0l0,-1c0,0,0,-1,0,-2c0,-1,1,-1,1,-1c1,-1,1,-1,1,-1l0,1l-1,1l0,1l0,1l0,1c1,0,1,0,1,0l0,-1l0,1l1,0l0,1c-1,0,-1,1,-1,1c-1,-1,-1,-1,-1,-1ZM349.5,583.5c-1,0,-1,0,-1,0c0,1,0,1,0,1l1,0c0,-1,0,-1,0,-1ZM349.5,591.5c-1,0,-1,0,-1,0l-1,0c0,1,-1,1,-1,1l-1,0c0,0,-1,0,-1,-1c-1,0,-1,0,-1,0l0,-1c0,1,0,1,1,1c1,0,1,0,1,0c0,0,1,0,1,0c0,0,0,-1,0,-1c1,0,1,0,1,0c0,0,1,-1,1,-1c0,0,1,0,1,-1l1,-1c0,0,0,-1,0,-1c0,-1,0,-1,0,-1c0,1,0,1,-1,1l-1,0c-1,0,-1,0,-1,0c0,-1,0,-1,0,-1c0,-1,0,-1,0,-1c0,-1,0,-1,0,-1c0,0,0,-1,1,-1c0,0,0,-1,0,-1c0,0,1,0,1,0l1,0c0,0,0,1,0,1l1,1l0,1c0,0,0,1,0,1c0,0,0,1,0,1c0,1,-1,2,-1,3l-1,1l0,1ZM346.5,577.5l4,-2l0,1c0,0,-1,0,-1,0l-4,2ZM341.5,585.5l-1,1l1,0ZM342.5,588.5c-1,0,-1,0,-2,0c-1,0,-1,0,-2,0c-1,0,-1,0,-1,0l-1,0c0,-1,0,-1,0,-1c1,0,1,0,1,0c0,-1,0,-1,0,-1c0,0,0,1,0,1c0,0,1,0,1,0c0,-1,0,-1,1,-1l0,-1c0,0,1,0,1,0l0,-1l-1,-1c-1,-1,-1,-1,-1,-2c-1,0,-1,-1,-2,-1c0,-1,0,-1,-1,-1c0,0,0,-1,0,-1c0,0,-1,0,-1,1l0,-1c-1,0,-1,0,-1,-1l-1,0c0,-1,0,-1,0,-1c0,0,0,-1,1,-1c0,0,1,0,1,1c1,0,1,1,2,1c1,1,1,2,2,2c0,1,1,1,1,2c1,1,1,1,1,1c0,1,1,1,1,1l0,-1c0,-1,0,-1,0,-2c0,-1,1,-1,1,-2l-1,-1c0,-1,0,-1,0,-1c0,-1,0,-1,0,-1c0,0,0,-1,0,-1c1,-1,1,-1,1,-1c0,1,0,1,0,1l1,0c0,1,0,1,0,1l0,1c0,1,0,1,0,1c-1,0,-1,1,-1,2l0,1c0,0,0,1,0,1c0,1,0,1,0,2c0,0,-1,1,-1,1l0,1c1,0,1,0,1,0c0,0,0,1,0,1l0,1c0,1,0,1,0,1Z" class="g1_34" />
</svg>