<?xml version="1.0" encoding="UTF-8" standalone="no"?>
<!DOCTYPE svg PUBLIC "-//W3C//DTD SVG 1.1//EN"
"http://www.w3.org/Graphics/SVG/1.1/DTD/svg11.dtd">
<svg version="1.1" xmlns="http://www.w3.org/2000/svg" xmlns:xlink="http://www.w3.org/1999/xlink">
<defs>
<style type="text/css"><![CDATA[
.g1_37{
stroke: #1F1A17;
stroke-width: 1;
stroke-linecap: butt;
stroke-linejoin: miter;
}
]]></style>
</defs>
<path fill-rule="evenodd" d="M359.5,129.5c-1,0,-1,0,-2,-1c0,0,-1,-1,-1,-2l0,-8l1,-2l0,10l1,1l1,0l1,0l1,0c1,0,1,0,1,0l1,0l0,-1c1,-1,1,-1,1,-2c1,0,1,0,1,0c1,0,1,0,1,0c0,1,1,1,1,1l0,1l0,1l0,1c0,0,-1,0,-1,0c0,1,0,1,0,1l-1,0l0,-1c-1,0,-1,0,-1,0l-1,-1l0,1c0,0,-1,1,-1,1l-1,0l-1,0ZM252.5,250.5l0,1l-1,0l-1,0l-1,0l-1,0c-1,0,-1,0,-1,-1c-1,-1,-1,-1,-1,-1c0,-1,0,-1,1,-2c0,0,0,-1,1,-1l-1,0c0,0,-1,0,-1,0c0,-1,1,-1,1,-1l1,0l1,0l1,0l0,1c-1,0,-1,0,-2,0c0,1,0,1,-1,1l0,1l0,1c0,1,0,1,1,1l1,0l1,0ZM51.5,299.5c0,2,0,3,-1,5c0,0,0,1,0,1c0,0,-1,0,-1,0l-1,0l1,0c0,0,0,-1,0,-1c0,0,1,0,1,0c0,0,0,-1,0,-1c-1,0,-1,0,-1,0c0,-1,0,-1,0,-1c-1,0,-1,0,-1,-1l-1,0l0,-1c0,0,1,0,1,0c0,0,0,1,1,1l0,1c0,0,1,0,1,0c0,1,0,1,0,1c1,0,1,-1,1,-1l0,-2ZM251.5,297.5l1,0c0,0,0,-1,0,-1l0,-1l0,-1l0,-2l0,-1l1,0c0,1,0,1,0,1l0,1l0,1l0,1l0,1l0,-1l1,0c0,0,1,-1,1,-1c0,0,1,0,1,1l0,1c0,0,0,1,0,1c0,0,-1,0,-1,0c0,0,-1,0,-1,0c0,0,-1,0,-1,0ZM255.5,295.5c0,0,-1,0,-1,1l-1,0l-1,1l1,0c0,0,1,0,1,-1c1,0,1,0,2,0l0,-1c0,0,-1,0,-1,0ZM49.5,306.5c1,0,1,1,2,1l0,1l0,1l0,1c0,1,0,2,0,2l-1,1l-2,0c0,0,-1,0,-1,-1l0,-1l0,-1c0,-1,0,-1,0,-1c0,0,0,-1,1,-1l0,-1c1,0,1,-1,1,-1ZM49.5,308.5c0,0,-1,0,-1,1l0,1l-1,0l0,1c0,0,1,0,2,0l1,0c1,0,1,0,1,-1c0,-1,0,-1,-1,-1c0,-1,0,-1,-1,-1ZM330.5,302.5l4,-2l0,1l-4,2ZM332.5,318.5l0,-1l0,-1l-1,-8l1,-3l0,11l0,1c0,1,0,1,0,1ZM93.5,299.5l4,-2c0,0,0,1,0,1l-4,2ZM95.5,315.5l0,-1l0,-1l-1,-9l1,-2l1,11c0,0,-1,0,-1,0c0,1,0,1,0,1c0,1,0,1,0,1ZM85.5,306.5l-1,-1l1,-1l1,1ZM87.5,309.5l-1,-1l-1,1l-1,-1l0,-1l2,1l1,-2l1,1ZM83.5,313.5l0,1l-1,0c0,0,0,1,-1,1c-1,0,-1,0,-1,0l-2,0c-1,0,-1,0,-1,0l0,-1l-1,0l-1,0c0,1,-1,1,-1,1c0,0,-1,0,-1,0l-2,0c0,0,-1,0,-1,-1c-1,0,-1,-1,-1,-2l-1,-8l1,-2l1,10l0,1c0,0,1,0,1,0l2,0c0,0,1,0,1,0c0,0,1,0,1,0l1,-1l1,0l0,1c1,0,1,0,1,0l2,0c1,0,1,0,1,0c1,0,1,0,1,0c0,-1,1,-1,1,-1l0,1l1,0l1,0l1,0l1,0c0,-1,0,-1,0,-1l0,-1l1,0l0,1c0,1,0,1,0,1l1,0l1,0l-1,-1l1,-1l0,1l1,0l0,1l-1,1l0,1l-1,0c0,0,-1,0,-1,0l-1,-1l-1,0c0,1,0,1,0,1l-1,0l-1,0c0,0,-1,0,-1,0l0,-1l0,-1ZM84.5,300.5c0,0,0,-1,1,-1l1,0c0,0,1,0,1,0c1,1,1,1,1,1c0,1,0,1,-1,1c0,0,0,1,0,1c0,0,-1,0,-1,0c-1,0,-1,0,-1,0l-1,0l2,0c0,-1,1,-1,1,-1c0,0,0,-1,-1,-1c-1,0,-1,0,-2,1l-1,0c0,-1,0,-1,1,-1ZM77.5,310.5l-2,-1l0,1l-2,-1l1,-1l2,1l0,-2l2,1ZM74.5,302.5l4,-2l0,1l-1,0l-4,2ZM64.5,307.5l-1,-1l-1,1l-2,-1l1,-1l2,1l1,-2l1,1ZM62.5,315.5l-1,0l-2,0c0,0,-1,0,-1,-1c-1,0,-1,-1,-1,-2l-1,-8l1,-2l1,10l0,1c0,0,1,0,1,0l2,0l1,0c0,0,1,0,1,0c1,0,1,0,1,0l1,0l0,-1c0,0,-1,0,-1,-1l0,-1l0,-1c1,0,1,0,1,0l0,1l0,1l0,1c0,1,0,1,0,1c0,1,0,1,0,1c-1,0,-1,1,-2,1c0,0,-1,0,-1,0ZM61.5,303.5l5,-2c-1,0,-1,1,-1,1l-5,2ZM62.5,300.5l5,-3c0,1,0,2,0,2l-5,2ZM142.5,315.5l0,-1l0,-1l-1,-9l1,-2l1,11c-1,0,-1,1,-1,1c0,0,0,1,0,1ZM134.5,313.5c0,0,1,0,1,0l1,0c1,0,1,-1,1,-1l-1,-2l0,-6l0,-1c0,0,0,-1,0,-1c0,0,0,-1,1,-1c0,0,0,1,0,1c0,1,0,1,1,1l0,1c-1,0,-1,0,-1,1l0,-1c0,1,0,1,0,1c0,0,0,1,0,2c0,0,0,1,0,2c0,1,0,1,0,1l0,2c0,1,0,1,0,1c0,1,0,1,0,1l-1,0c0,0,0,1,0,1c0,0,-1,0,-1,0l-1,0c-1,0,-1,0,-1,0c-1,0,-1,0,-1,-1l-1,0l0,-1c0,1,0,1,-1,2c0,0,-1,0,-1,0l-1,0l-1,0c-1,0,-1,0,-2,-1c0,0,-1,-1,-1,-2l0,-8l1,-2l0,10l1,1l1,0l1,0l1,0l1,0l1,0l0,-1l0,-1l1,0l0,1c0,1,0,1,0,1c1,0,1,0,2,0ZM131.5,311.5l-2,-1l1,-2l1,1ZM130.5,301.5c0,1,0,1,1,1c0,-1,0,-1,0,-1l0,-1l1,0l0,1c1,0,1,0,1,-1l0,-1l0,1l0,1c0,1,0,1,0,1l-1,0l-1,0c0,1,0,1,-1,1c0,-1,0,-1,0,-1l0,-1ZM134.5,298.5l-5,3c0,-1,0,-2,0,-2l6,-3ZM106.5,322.5l-1,0c0,-1,-1,-1,-1,-1l-1,-1c0,0,0,-1,0,-1l0,-1l0,-1l0,-1l0,-1l1,0l0,-1l1,0c-1,1,-1,1,-1,1c0,0,0,1,0,1l0,1c0,1,0,1,0,1c0,1,0,1,1,1l0,1l1,0c1,0,2,0,2,0c0,0,1,0,1,0c1,0,1,0,1,0c1,-1,1,-1,1,-1c1,0,1,0,1,-1c1,0,1,0,1,-1l0,-1l0,-1l-1,-1l0,-2l1,0l0,1l1,0l1,0c0,0,1,0,1,0c0,0,1,0,1,0c0,-1,0,-1,0,-1l0,-1l1,0l0,1c0,1,0,1,0,1l1,0l1,0l0,-1l0,-1l1,1l0,1l0,1l-1,0l0,1l-1,0l-1,0l0,-1l-1,0l-1,0c0,1,0,1,0,1l-1,0l-1,0l0,1c0,0,0,1,0,1l-1,0l0,1l0,1c-1,1,-1,1,-1,1c0,1,-1,1,-1,1c0,0,-1,0,-1,1c-1,0,-1,0,-1,0l-1,0l-1,0c-1,0,-1,0,-1,0ZM106.5,303.5c0,-1,0,-1,1,-1c0,-1,0,-1,1,-1c0,1,0,1,0,1c0,1,0,1,0,1l0,1l1,1l-1,1l-1,-1l-1,1c0,0,0,1,-1,1l-1,0l1,-1c0,0,1,0,1,0l0,-1l1,0l-1,0l0,-1l0,-1ZM107.5,303.5l0,1l0,-1ZM190.5,318.5l-1,-1l-1,2l-1,-1l0,-2l2,1l1,-1l1,1ZM187.5,313.5c1,0,1,0,2,0c0,0,1,0,1,0l0,-1l0,-1c0,0,-1,0,-1,0l0,-1l1,-1c0,0,0,1,0,1l1,0c0,1,0,1,0,1c0,1,0,1,0,1c0,1,0,1,0,1l-1,0c0,1,0,1,0,1c0,0,-1,1,-1,1c-1,0,-1,0,-2,0l-1,0l-11,0c0,0,0,1,-1,1c0,0,0,1,0,1l0,-1l0,-1l-1,0c0,-1,-1,-1,-1,-2l0,1c0,0,0,1,-1,1l-1,0l-1,0l-1,0l-1,0l0,-1l-1,0c0,-1,0,-1,0,-1c-1,1,-1,1,-1,1c-1,0,-1,1,-2,1c0,0,-1,0,-1,0l-1,0c-1,0,-1,0,-1,-1c0,0,-1,0,-1,0l0,-1c0,-1,0,-1,1,-1l0,1l1,0l1,0l1,0l1,0l1,0c0,0,0,-1,0,-1l1,0c0,0,0,-1,0,-2l-1,-1l0,-1l0,-1l1,-1l0,1c0,0,0,1,0,2l1,2c0,1,0,1,0,1c0,1,0,1,0,1c0,0,1,0,1,0l1,0l1,0c1,0,1,0,1,0l1,0l0,-1c1,0,1,0,1,0c0,0,0,1,1,1l1,0l1,-1l1,0l1,-1c1,-1,1,-1,2,-1c0,-1,1,-1,1,-1l1,0c0,0,1,0,1,1c1,0,1,0,1,1c0,1,0,1,0,1c0,0,0,1,0,1l-1,1l2,-1l1,0ZM187.5,302.5l5,-2l-1,1l-4,2ZM183.5,312.5l0,-1c-1,0,-1,0,-2,0c-1,0,-1,0,-1,0l-1,0c0,0,-1,1,-1,1l-1,1l-1,0l1,0l1,0l1,0c0,0,1,0,1,0l1,0l1,0c1,0,1,0,1,-1ZM173.5,304.5c1,0,1,0,1,0c1,0,1,0,2,0c0,0,1,0,1,0c0,0,1,0,1,0c0,1,0,1,0,1c-1,0,-1,0,-1,1l-1,0l-1,0c0,1,0,1,0,1l-1,0l0,-1l1,0c1,0,1,-1,2,-1c0,0,-1,0,-1,0c0,0,-1,0,-1,0c0,0,-1,0,-1,0l-1,0c0,-1,0,-1,0,-1ZM163.5,299.5l1,-1c1,0,1,0,1,0c0,0,0,1,0,1c0,0,0,1,0,1c0,0,0,1,0,1l0,1l-1,0l-1,1l-1,0l0,1l-1,0l0,-1l1,0c0,0,0,-1,1,-1l0,-1l0,-1l0,-1ZM164.5,299.5c0,0,-1,0,-1,0c0,0,0,1,1,1ZM149.5,318.5l1,0c1,0,2,0,3,-1c0,0,1,0,1,-1c1,0,1,-1,1,-1c1,0,1,-1,1,-1l0,-1l0,-1l-1,0l0,-1l0,-1l0,-1l1,1c0,0,0,1,0,1l0,1l1,0l0,1c0,1,0,1,-1,2c0,1,0,1,0,1c0,1,0,1,-1,1c0,0,0,1,0,1c-1,0,-1,0,-1,1l-1,0l-1,0l-1,0l-1,0c0,0,-1,0,-1,0l0,-1ZM153.5,303.5c1,-1,1,-1,1,-1c0,-1,1,-1,1,-1c1,1,1,1,1,1c0,1,0,1,0,1l-1,1l1,0l0,1l0,1l-1,-1l-1,0l0,1c-1,0,-1,1,-1,1l-1,0l-1,0l1,-1l1,0l1,-1l0,-1c-1,0,-1,0,-1,0l0,-1ZM155.5,303.5l-1,0l0,1l1,0l0,-1ZM237.5,318.5l-2,-1l-1,2l-1,-1l1,-2l1,1l1,-1l2,1ZM234.5,315.5l-1,0l-2,0c0,0,0,1,0,1c0,0,0,1,0,1c-1,1,-1,1,-1,1c0,1,-1,1,-1,1c0,1,0,1,-1,1c-1,0,-1,0,-1,0c0,0,-1,0,-1,0c-1,0,-1,0,-2,0c0,0,-1,0,-1,0l0,-1c0,0,1,0,1,1l1,0c0,0,1,-1,1,-1c0,0,1,0,1,0c1,-1,1,-1,1,-1c1,0,1,0,1,-1l1,0c0,-1,0,-1,0,-1c0,0,0,-1,0,-1c0,0,-1,0,-1,0c0,0,-1,0,-1,0c0,0,0,-1,0,-1c-1,0,-1,0,-1,0c0,0,0,-1,0,-1c0,0,1,0,1,0c0,-1,0,-1,0,-1c0,0,0,-1,0,-1c0,0,1,0,1,0c0,0,0,-1,0,-1l1,0c0,1,1,1,1,1l0,1c0,1,0,1,0,1c1,0,1,0,2,0l1,0c0,0,1,0,1,0c1,0,1,0,1,0l1,0l0,-1l-1,0l0,-1l0,-1l0,-1c1,0,1,0,1,0c0,0,0,1,0,1c0,1,0,1,0,1c0,1,0,1,0,1c0,1,0,1,0,1c0,1,0,1,0,1c-1,0,-1,1,-2,1c0,0,-1,0,-1,0ZM234.5,302.5l4,-2l0,1l-5,2ZM229.5,312.5l-1,0c0,1,0,1,0,1l1,0c0,0,1,0,1,0c0,-1,0,-1,0,-1c-1,0,-1,0,-1,0ZM225.5,304.5l1,0c0,0,1,0,1,0c1,0,1,0,1,0c1,0,1,0,1,0c0,1,0,1,0,1l-1,1l-1,0l0,1c0,0,-1,0,-1,0l-1,0l2,-1c0,0,1,0,1,-1l-1,0c-1,0,-1,0,-2,0c0,-1,0,-1,0,-1ZM222.5,314.5c0,1,-1,1,-1,1l-1,-1l-1,-1l-1,1c0,0,0,1,0,1l-1,0l-1,0l-1,0c-1,0,-1,0,-1,-1c0,0,-1,0,-1,0l0,-1c0,1,0,1,-1,2c0,0,-1,0,-1,0l-1,0l-2,0c-1,0,-1,0,-1,-1l-1,0c0,-1,0,-1,0,-1c0,1,0,1,0,1l-1,0c0,0,-1,1,-1,1c-1,0,-1,0,-2,0l-1,0c0,0,-1,0,-1,-1l0,-1c0,-1,0,-1,0,-1l1,0l0,1l1,0l1,0c1,0,1,0,1,0l1,0c0,0,0,-1,0,-1c1,0,1,0,1,0c0,0,0,-1,0,-2l0,-1l-1,-1l1,-1l0,-1l1,1c0,0,0,1,0,2l0,2c0,1,0,1,0,1c0,1,0,1,1,1l2,0l1,0c1,0,1,0,1,0c1,0,1,0,1,-1l0,-1l1,0l0,1l-1,0c1,1,1,1,1,1c1,0,1,0,1,0l1,0l1,0c0,0,1,0,1,0l1,-1c0,-1,0,-1,1,-2c0,0,1,0,1,0c0,0,1,0,1,0c0,1,0,1,0,1l1,1l0,1c-1,0,-1,0,-1,0l0,1ZM220.5,312.5l1,1c0,0,0,-1,0,-1c0,0,0,-1,-1,-1c0,0,0,1,0,1ZM217.5,302.5l4,-2l0,1l-4,2ZM212.5,318.5l0,-1l1,-1l1,0c0,0,1,0,1,1l-1,0l0,1l0,-1l-1,0l-1,1l1,0l1,1l1,0l0,-1l0,1l-4,2l0,-1l1,0c0,0,0,-1,0,-1l0,-1ZM215.5,323.5l-4,2c0,-1,0,-1,0,-1l4,-2ZM205.5,304.5l-2,-1l1,-2l1,1ZM198.5,322.5l5,-3l0,1c0,0,-1,0,-1,0l-4,3ZM200.5,318.5l5,-2c-1,1,-1,1,-1,1l-5,2ZM266.5,312.5c0,1,-1,2,-1,3l-1,1l0,1l1,0l0,1l-1,0l-1,1c-1,0,-1,1,-2,1l-1,0l0,1l-1,0l-1,0l-1,1l0,1l-3,0l-1,0l0,-1l-1,-1l-1,0c-1,-1,-2,-1,-2,-1l-1,0l0,-1l-1,0l0,-1l-1,0l-1,0l0,-1l1,0l0,-1l-1,-1l0,-1c0,-1,0,-1,0,-1l0,-1l0,-1c0,0,0,-1,0,-1c0,-1,0,-1,1,-1l0,-1l-1,0l1,-1l1,-1l1,0l0,-1l2,0l1,-1l1,0l1,-1c0,-1,0,-1,0,-1l1,0l3,0l0,1l1,0l0,1l1,0l2,1l1,0l0,1l1,0l1,1c0,0,1,0,1,1l-1,0l0,1l1,0l0,1l0,1l1,1ZM257.5,323.5l0,-1l1,-1l1,-1c0,0,1,0,1,0l1,0c1,-1,1,-1,2,-1l0,-1l1,0l0,-1l1,0l-1,0l0,-1l1,-1l0,-1l0,-1l0,-1c0,0,0,-1,0,-2l-1,-1l0,-1l1,0c0,-1,-1,-1,-1,-1l-1,0l0,-1l-1,0l0,-1l-2,0l-1,-1c0,0,-1,0,-1,0l-1,-1c0,-1,0,-1,0,-1l-2,0l-1,0l-1,0l0,1l-1,1l-1,0l-1,1l-1,0l-1,1l-1,0l0,1c-1,0,-1,0,-2,1l1,0l0,1l0,1l-1,0l0,1l0,1l0,1l0,1l0,1c1,0,1,0,1,1l1,0l0,1l-1,0l-1,0l1,0l0,1l1,0l0,1l1,0l1,1l1,0l1,0c1,1,1,1,1,1l1,0l0,1c0,0,0,1,1,1ZM262.5,308.5l-1,0l0,-1l-1,0c-1,0,-1,0,-1,0c0,-1,0,-1,0,-1l1,0c0,0,1,0,1,0l0,1l1,0ZM262.5,317.5l0,1l-1,0l0,1l-1,0l-1,0c0,0,1,0,1,-1l1,0c0,0,0,-1,1,-1ZM258.5,319.5c0,1,0,1,-1,1c0,1,0,1,0,1l-3,0c-1,0,-1,0,-1,-1l-1,0l0,-1l1,0c0,0,0,-1,0,-1l4,0l0,1l1,0ZM258.5,306.5l-1,0c0,1,0,1,0,1l-3,0l-1,0l0,-1l-1,0c0,-1,0,-1,1,-1l0,-1l1,0l3,0l0,1c1,0,1,0,1,0ZM257.5,308.5c1,0,1,0,1,0c1,0,1,0,1,0c1,0,1,0,1,1l1,0l1,0l1,1l0,1l0,1l0,1c0,1,0,1,0,1l0,1l-1,1l-1,0l-1,1l-1,0l-1,0c0,0,-1,0,-1,0l-3,0l-1,0l-1,0c-1,0,-1,0,-1,0c-1,0,-1,0,-1,-1l-1,0l-1,0l-1,-2l0,-1l0,-1c0,-1,0,-1,0,-1l0,-1l1,0l0,-1l1,0c0,0,1,0,1,0l0,-1l1,0l1,0c0,0,1,0,1,0l1,0ZM257.5,316.5l0,1c0,0,1,0,1,0l1,0l1,0l0,-1c1,0,1,-1,1,-1l1,1l0,-1l1,0l0,-1l0,-1l0,-1c0,0,0,-1,0,-1c0,-1,0,-1,-1,-1c0,-1,0,-1,0,-1l-1,1c0,0,0,-1,0,-1l-1,0l0,-1l-1,0l-1,0l-1,0l0,1l-4,0l0,-1l-1,0c0,0,-1,0,-1,0l-1,1c0,0,-1,1,-1,1l-1,-1l0,1l-1,1l0,1l0,1l0,1l1,0c0,1,0,2,0,2l1,-1c0,0,1,1,1,1l0,1l1,0l1,0c0,0,1,0,1,0l0,-1l4,0ZM255.5,312.5c0,0,1,0,1,0l0,1l0,1l0,1l-1,0c-1,0,-1,0,-1,0c0,0,0,-1,0,-1l0,-1l0,-1l1,0ZM255.5,313.5l-1,0l0,1l1,0l1,0c0,0,0,-1,0,-1c0,0,-1,0,-1,0ZM248.5,308.5l0,-1l1,0l0,-1l1,0l1,0l0,1l-1,0l-1,0l0,1l-1,0ZM248.5,317.5l1,0c0,0,0,1,1,1l1,1l-1,0c0,0,-1,0,-1,-1l-1,0l0,-1ZM287.5,313.5c0,0,1,0,1,0l1,0c1,0,1,-1,1,-1l0,-2l-1,-6l0,-1c0,0,0,-1,0,-1c0,0,0,-1,1,-1c0,0,0,1,0,1c0,1,0,1,1,1l0,1c-1,0,-1,0,-1,1l0,-1c0,1,0,1,0,1c0,0,0,1,0,2c0,0,0,1,0,2c0,1,0,1,0,1l0,2c0,1,0,1,0,1c0,1,0,1,0,1l-1,0c0,0,0,1,0,1c0,0,-1,0,-1,0l-1,0l-1,0l-1,0l-1,0l0,1c0,0,1,0,1,0c0,1,0,1,0,1c0,1,0,2,-1,2c0,1,-1,1,-1,1c0,0,-1,0,-1,0c-1,-1,-1,-1,-1,-2c0,0,-1,-2,-1,-3c-1,0,-1,0,-1,0l-1,0l-2,0c0,0,-1,0,-2,-1c0,0,0,-1,0,-2l-1,-8l1,-2l1,10l0,1c0,0,1,0,1,0l2,0l1,0l1,0c1,0,1,-1,1,-1l0,-1c0,0,1,0,1,0c0,-1,0,-1,0,-1c1,-1,1,-2,2,-2l1,1l0,1c0,1,-1,2,-1,2c0,1,-1,1,-2,2l2,0l1,-1l1,0l1,0ZM288.5,299.5l4,-2c0,1,0,1,0,1l-4,2ZM283.5,310.5c0,0,-1,0,-1,1l0,1l-1,1c1,0,2,-1,2,-1c1,0,1,-1,1,-1c0,0,0,-1,0,-1c0,0,-1,0,-1,0ZM281.5,315.5c0,1,0,1,0,1c0,1,1,1,1,2l1,0c0,0,1,0,1,0c0,-1,0,-1,-1,-2c0,0,-1,0,-2,-1ZM281.5,302.5l4,-2l0,1l-4,2ZM325.5,311.5l-1,0l0,1c0,0,1,0,1,0c0,0,1,0,1,0c0,0,-1,-1,-1,-1ZM325.5,319.5l-1,0l0,1c-1,0,-1,0,-2,0c-1,0,-1,0,-2,-1c0,0,-1,0,-1,0c0,0,1,0,1,0l1,0l1,0l1,0c0,-1,0,-1,0,-1c1,0,1,0,2,-1c0,-1,1,-1,1,-2c0,0,0,-1,0,-1l0,-1c0,1,0,1,0,1c0,0,-1,0,-1,0l-1,0c-1,0,-1,-1,-1,-1c0,0,0,-1,0,-1c0,0,0,-1,0,-1c1,0,1,-1,1,-1c0,0,0,-1,1,-1c1,0,1,0,1,0c0,0,0,1,1,1c0,0,0,1,0,1c0,0,0,1,0,1c0,0,0,1,0,1c0,0,0,1,0,1c0,1,0,2,-1,3c0,0,0,1,0,1c0,0,-1,0,-1,1ZM321.5,301.5c1,-1,1,-1,1,-1c1,0,1,0,2,0c0,0,1,0,1,0c0,0,1,1,1,1l-1,0c0,1,0,1,0,1c0,0,-1,1,-1,1l-1,0l-1,0l1,-1c1,0,1,0,2,0c-1,-1,-1,-1,-1,-1c0,0,-1,0,-1,0c0,0,-1,0,-1,0c0,0,-1,1,-1,1l0,-1ZM318.5,314.5l-1,0l-1,0l-1,0l-1,0c-1,0,-1,0,-1,0l-1,0l-1,0l-1,0l-1,0l0,1l-1,0c0,0,0,1,0,1c1,0,1,0,2,0c1,0,1,0,1,0c0,0,0,1,1,1c0,0,0,1,0,1l-1,1l0,1c-1,0,-2,1,-3,1c-1,0,-3,0,-4,0c-1,0,-1,0,-2,0c-1,0,-1,0,-2,-1l-1,-1c0,-1,0,-1,0,-2c0,0,0,-1,1,-2c0,0,0,-1,1,-1c0,-1,0,-1,0,-1l0,1l-1,1c0,1,0,1,0,1c0,0,0,1,0,1c0,1,1,1,1,2c1,0,2,1,3,1l1,0c1,0,1,0,1,-1c0,0,1,0,1,0c0,0,1,0,1,0l1,0c0,0,1,-1,1,-1l1,0c-1,0,-1,0,-2,0c-1,0,-2,-1,-2,-1c0,-1,0,-1,0,-1l0,-1l0,-1l1,0l1,-1l1,0l1,0l1,0l1,-1c-1,0,-1,0,-2,0c0,0,0,-1,0,-1l-1,0l-1,0c-1,0,-1,0,-1,1c0,-1,0,-1,0,-1c0,0,0,-1,0,-1c1,0,1,0,1,0c0,0,1,0,1,0l1,0c0,0,1,0,1,0l2,1l1,0c0,0,1,0,1,1l1,0l1,0l1,0ZM309.5,303.5c0,1,0,2,0,2l0,-1c0,-1,0,-1,0,-2l-1,-1c0,0,0,-1,1,-1l0,1l0,1ZM370.5,318.5c0,0,1,0,1,0l1,0c1,0,1,0,2,-1c1,0,1,0,2,-1c0,0,1,-1,1,-1c0,0,0,-1,0,-1l0,-1l0,-1l-1,-1l1,-1l0,-1l0,1c0,0,1,1,1,1l0,1l0,1c0,1,0,1,0,2c0,1,0,1,-1,1c0,1,0,1,0,1c0,0,-1,1,-1,1l-1,1c-1,0,-1,0,-1,0c0,0,-1,0,-1,0l-1,0c0,0,-1,0,-1,0l-1,0l0,-1ZM373.5,305.5l4,-2l0,1l-1,0l-4,2ZM369.5,319.5l-1,-1l1,-2l1,1ZM367.5,315.5l-1,0c-1,0,-1,0,-1,0c-1,-1,-1,-1,-1,-2c-1,1,-1,1,-1,1c-1,1,-1,1,-2,1c-1,0,-1,0,-1,0c0,0,-1,0,-1,0c-1,0,-1,0,-2,0c-1,0,-2,0,-3,0c-1,0,-2,0,-2,0c-1,0,-3,0,-4,0c-1,0,-2,0,-3,0c-1,0,-2,0,-2,0c-1,0,-1,0,-1,0c-1,0,-2,0,-2,0c0,0,-1,-1,-1,-1l0,-1c1,0,1,0,2,1c0,0,1,0,2,0l1,0c1,0,3,0,4,0c1,0,3,0,4,0c1,0,2,0,3,0c1,0,2,0,3,0l1,0c0,-1,0,-1,1,-1c0,0,1,0,1,0c0,0,1,0,1,0l1,0l0,-1l0,-1c0,-1,0,-1,0,-1l0,-7l1,-2l0,11c0,0,1,1,1,1c0,0,1,0,1,0l1,0c0,0,1,0,1,0c1,0,1,0,2,0l0,-1l-1,-1l0,-1l1,-1l0,1l0,1l0,1c0,1,0,1,0,1c0,1,0,1,0,1c-1,0,-1,1,-2,1c0,0,-1,0,-1,0ZM367.5,303.5l0,1l1,0l0,-1l0,-1l0,1l1,0l1,0l0,-1l0,1l0,1l-1,0c0,0,-1,0,-1,0l0,1c0,0,-1,0,-1,0l-1,0c0,0,0,-1,0,-1l0,-1l1,0ZM371.5,300.5l-5,3c0,-1,0,-2,0,-2l5,-2ZM354.5,311.5c0,0,-1,0,-1,0c0,0,0,1,-1,1c-1,0,-1,0,-1,0l-1,-1l1,0c0,0,1,0,1,0c1,-1,1,-1,1,-1l-1,0l0,-1c-1,0,-1,0,-1,0c0,-1,1,-1,1,-1c0,-1,0,-1,1,-2c1,0,1,-1,1,-1l0,2c-1,0,-1,0,-2,1c1,0,1,0,1,0l1,0l0,1c1,0,1,0,1,0c0,1,-1,1,-1,2ZM347.5,306.5l0,-1l3,-1l6,-2l4,-1l1,0l-1,1l-1,0l-1,1l-2,0l-5,2l-4,2l-1,0ZM406.5,319.5l-1,-1l1,-2l1,1ZM404.5,315.5l-1,0l-1,0c-1,0,-2,0,-2,-1c-1,0,-1,-1,-1,-2l-1,-8l1,-2l1,10l0,1c1,0,1,0,2,0l1,0l1,0c0,0,1,0,1,0c1,0,1,0,1,0l0,-1l0,-1l-1,-1l1,-1l1,0l0,1l0,1l0,1c0,1,0,1,0,1c0,1,0,1,-1,1c0,0,0,1,-1,1c0,0,-1,0,-1,0ZM405.5,321.5l-4,2c1,-1,1,-1,1,-1l4,-2ZM398.5,296.5l4,-2c0,0,0,1,0,1l-4,2ZM390.5,309.5l-1,-1l1,-2l1,1ZM390.5,318.5c0,0,-1,0,-1,0c-1,0,-1,0,-2,-1l-1,-1c0,0,0,-1,0,-2l0,-1c0,0,0,-1,0,-1l1,0c0,0,0,-1,0,-1l1,0c0,0,-1,0,-1,1c0,0,0,1,0,1c0,1,0,1,0,1l0,1c0,0,1,0,1,1c1,0,1,0,1,0c0,0,1,0,2,0c0,0,1,0,2,0c0,0,1,-1,1,-1c1,0,1,-1,1,-1c0,0,0,-1,0,-1c0,-1,0,-1,0,-1l0,-1c-1,0,-1,0,-1,-1l-1,-1l1,-2c0,1,0,1,1,1c0,1,0,1,0,1c0,1,0,1,0,1c0,0,1,1,1,1c0,0,0,1,0,1c0,0,0,1,0,1c0,1,0,1,-1,2c0,1,0,1,-1,2c0,0,-1,1,-2,1c0,0,-1,0,-2,0ZM387.5,301.5c0,1,1,1,1,1c0,-1,0,-1,0,-1l0,-1l1,0l0,1l1,0l0,-1l0,-1l0,1l0,1c0,1,0,1,0,1l-1,0l-1,0c0,1,0,1,0,1c-1,0,-1,0,-1,0c0,-1,0,-1,0,-1l0,-1ZM391.5,298.5l-5,3c0,-1,0,-2,0,-2l6,-3ZM68.5,246.5c0,2,0,3,0,5l-1,0c0,1,0,1,0,1l-1,0c0,0,-1,0,-1,0c0,0,1,0,1,0l0,-1c1,0,1,0,1,0l0,-1l-1,0c0,-1,0,-1,0,-1c0,0,-1,0,-1,-1c0,0,-1,0,-1,0l0,-1c1,0,1,0,1,0c0,1,1,1,1,1l0,1c1,0,1,0,1,0c0,1,0,1,0,1c0,0,1,0,1,0c0,0,0,-1,0,-1l0,-2ZM135.5,252.5l4,-2l0,1l-5,2ZM136.5,268.5l0,-1l0,-1l0,-8l0,-3l1,11l0,1c0,1,-1,1,-1,1ZM351.5,270.5c-1,0,-1,1,-2,1l-1,0l-1,0c-1,0,-1,0,-1,0c0,0,-1,0,-1,0c0,-1,0,-1,0,-1l0,-1c1,0,1,0,1,0l1,0l1,0c0,-1,0,-1,0,-1l1,-1c0,0,0,-1,-1,-1c0,0,0,-1,0,-1c-1,0,-1,-1,-2,-1c0,-1,0,-1,-1,-2c0,0,-1,0,-1,-1c0,0,-1,0,-1,0l-1,0c0,0,0,-1,0,-1c-1,0,-1,-1,-1,-1l0,-1c0,0,1,-1,1,-1c0,0,1,1,1,1c1,1,1,1,2,2c1,0,1,1,2,2c0,0,1,1,1,2c1,0,1,1,1,1c0,0,1,1,1,1c0,0,0,-1,0,-2c0,0,0,-1,0,-1c0,-1,0,-2,0,-2c0,0,0,-1,0,-1c0,-1,0,-2,0,-2c0,0,0,-1,0,-1l0,-1c1,0,1,0,1,0c0,1,0,1,0,1c1,0,1,0,1,0c0,1,0,1,0,1c0,0,0,1,0,1c-1,0,-1,0,-1,0c0,1,0,1,0,2c0,0,0,1,0,1c0,1,0,1,0,1c0,1,0,2,0,2c-1,1,-1,1,-1,2c0,0,1,0,1,1c0,0,0,1,0,1c0,0,0,1,0,1ZM350.5,268.5l-1,0c0,0,0,1,0,1l1,0c0,-1,0,-1,0,-1ZM327.5,258.5l0,-1c0,0,0,-1,0,-1c0,-1,0,-1,0,-2l0,-1c0,0,0,1,1,1c0,1,0,1,0,1l0,1c0,1,0,1,0,1c0,0,-1,1,-1,1ZM333.5,252.5c0,0,1,0,1,-1c0,0,1,0,1,0c1,0,1,0,2,0c0,1,0,1,0,1c0,1,0,1,0,1c0,1,-1,1,-1,1c0,0,-1,0,-1,0l-1,0l-1,0l2,0c1,-1,1,-1,2,-1c-1,0,-1,0,-1,0c-1,-1,-1,-1,-1,-1c0,0,-1,1,-1,1c0,0,-1,0,-1,0c0,0,0,-1,0,-1ZM77.5,266.5c0,1,0,2,0,2c0,0,0,1,0,1l-1,1l1,0l0,1l-1,0l0,1c0,0,-1,0,-1,0l0,1c-1,0,-1,0,-2,0l0,1l-1,0l-1,0l-1,0l0,1l-1,1c0,0,0,1,0,1l-1,0l-2,0l-1,0l0,-1l-1,-1c0,0,0,-1,-1,-1c-1,0,-2,0,-2,-1l-1,0l-1,0l0,-1l-1,0l0,-1l-1,0l0,-1l1,0l0,-1l-1,0l0,-1l0,-1l0,-1l0,-1c0,-1,0,-1,0,-2l1,-1l-1,0c0,-1,0,-1,0,-1l1,0l0,-1l1,0l0,-1l1,0l2,-1l1,0l1,0l0,-1l1,-1l0,-1l1,0l2,0l1,0l0,1l0,1l1,0l1,1l2,0l0,1l1,0l1,0l0,1l1,0c0,1,1,1,1,1l0,1l-1,0l1,1l0,1l0,1ZM69.5,276.5l0,-1l1,0l1,-1c0,0,1,0,1,0l1,-1c1,0,1,0,1,0l1,-1l1,0l0,-1l1,0l-1,-1l0,-1l1,0l0,-1l0,-1l0,-1c0,-1,0,-2,0,-2l0,-1l-1,0l0,-1l1,-1c-1,0,-1,0,-2,-1l-1,0l0,-1l-2,0l-1,-1c-1,0,-1,0,-1,0l-1,-1l0,-1l-1,0l-1,0l-1,0l-1,0l0,1l-1,1l-1,0l-1,1l-1,0l-1,0l0,1l-1,0c-1,1,-1,1,-2,1l1,1l0,1l-1,0l0,1l0,1c0,0,0,1,0,1l0,1l0,1l0,1c0,0,1,0,1,0l0,1l-1,1l1,0l1,1l1,1l1,0l1,0l0,1l1,0c1,0,1,0,1,1l1,0l0,1l1,0ZM74.5,261.5l-1,1l0,-1l-1,0l0,-1c-1,0,-1,0,-1,0l0,-1l1,0l0,1c0,0,1,0,1,0l1,0l0,1ZM74.5,271.5l0,1l-1,0l-1,1l-1,0c0,-1,0,-1,0,-1c0,0,1,0,1,0c1,-1,1,-1,2,-1ZM70.5,273.5c0,0,0,1,-1,1l-1,0l-2,0c-1,0,-1,0,-1,0c0,0,-1,0,-1,0c0,-1,0,-1,0,-1c0,0,0,-1,1,-1l4,0l1,1ZM70.5,259.5c0,0,0,1,-1,1l-1,0l-2,0l-1,0l-1,0l0,-1c0,0,0,-1,1,-1l1,0l2,0l1,0c0,0,1,0,1,1ZM68.5,262.5l1,0l0,-1c1,0,1,0,1,0c1,0,1,0,1,0c0,1,1,1,1,1l1,1l1,-1c0,0,0,1,0,1l1,1l0,1l0,1l0,1l0,1c0,1,0,1,-1,1c0,0,0,1,0,1l-1,-1c0,0,0,1,0,1l-1,0l0,1l-1,0l-1,0c0,0,-1,0,-1,0l0,-1l-1,0l-2,0l-1,0l0,1l-1,0c-1,0,-1,0,-1,0c-1,0,-1,-1,-1,-1l-1,0l0,-1l-1,1l0,-1l-1,-1l0,-1l0,-1c0,0,0,-1,0,-1l0,-1l0,-1l1,0c0,0,0,-1,0,-1l1,1c0,0,1,0,1,-1l1,0c0,-1,0,-1,1,-1c0,0,1,0,1,0l0,1l1,0ZM69.5,270.5c0,1,1,1,1,1l1,0c0,0,0,-1,0,-1l1,0l0,-1c1,0,1,0,1,0l1,0l1,-1l0,-1l0,-1c0,-1,0,-1,0,-2c0,0,-1,0,-1,-1l-1,0l-1,-1l-1,0l-1,-1l-1,1l-4,0l-1,-1c0,0,-1,0,-1,1l-1,0l0,1c0,0,-1,0,-1,0l-1,0l0,1l-1,1l0,1c0,0,0,1,0,1l0,1c1,1,1,1,1,1l1,0l1,1l1,0l0,1l1,0c0,0,1,0,1,-1l4,0ZM67.5,265.5l-1,0l0,1l1,0l0,1l-1,0l0,1c0,0,1,0,1,0l1,0c0,0,-1,1,-1,1c-1,0,-1,-1,-1,-1l0,-1l0,-1l0,-1c0,0,1,-1,1,-1ZM60.5,261.5l1,-1l1,0l0,-1l1,0l0,1l-1,0l0,1l-1,0l0,1l-1,-1ZM60.5,271.5l1,0l1,1l1,0l0,1l-1,0c0,0,-1,-1,-2,-1l0,-1ZM124.5,260.5l-1,-1l1,-1l1,1ZM133.5,266.5l-1,0l-1,0c-1,0,-1,0,-2,0l-1,0l-1,0l0,1l-1,0c-1,0,-1,1,-2,1l-1,0c-1,0,-1,1,-2,1l-1,0c-1,0,-1,0,-1,0c0,-1,0,-1,0,-1c-1,0,-1,0,-1,0c0,0,0,-1,0,-1l-1,0c0,1,-1,1,-1,1l-1,0c0,1,0,1,0,1l-1,0l-1,0c-1,0,-2,-1,-2,-1c-1,-1,-1,-1,-1,-2l-1,-8l1,-3l1,10l0,1c1,1,1,1,2,1l1,0c1,0,1,0,1,0c0,0,1,0,1,-1l1,0l1,0c0,0,0,1,1,1l1,0l1,0c0,0,1,0,1,0c0,0,1,0,2,0c0,-1,0,-1,1,-1l1,0l1,-1l-1,0l-1,-1l-1,0l-1,0l-1,0c0,0,0,-1,0,-1c1,0,1,0,1,0c0,-1,1,-1,1,-1l1,0c0,1,0,1,0,1l1,0l2,1l1,0l1,0l1,0c0,0,1,1,1,1l1,0ZM121.5,254.5l1,0c0,0,1,0,1,0c1,0,1,0,1,0c1,0,1,0,1,0c0,1,0,1,0,1l-1,1c0,0,-1,0,-1,0l0,1c0,0,-1,0,-1,0l-1,0l2,-1c0,0,1,-1,1,-1l-1,0c-1,0,-1,0,-2,0c0,-1,0,-1,0,-1ZM117.5,272.5l-1,-1l1,-1l1,1ZM115.5,256.5l4,-3l0,1l0,1l-4,2ZM99.5,272.5c0,0,1,0,1,0l1,0c0,0,1,0,2,-1c1,0,1,-1,1,-1c1,0,1,-1,2,-2c0,-1,0,-1,0,-1c0,-1,0,-1,0,-1l0,-1l-1,0l0,-2l1,0l0,1l1,1l0,1l0,1c0,0,0,1,0,1c0,0,0,1,0,1c-1,0,-1,0,-1,1l0,1c0,0,-1,0,-1,1l-1,0l-1,0c0,1,0,1,0,1c-1,0,-1,0,-1,0l-1,0c-1,0,-1,0,-1,-1l-1,0ZM102.5,259.5l4,-2c-1,1,-1,1,-1,1l-4,2ZM98.5,268.5c-1,0,-1,0,-2,0c0,0,-1,-1,-1,-1l-1,0l0,1c0,0,-1,0,-1,0l-1,0l-1,0c0,0,0,1,0,1c-1,0,-1,0,-1,0l-2,0c0,0,-1,-1,-2,-1c0,-1,0,-1,0,-2l-1,-8l1,-3l1,10l0,1c0,1,1,1,1,1l2,0c0,0,1,0,1,0c1,0,1,0,1,0l0,-1c0,-1,0,-1,0,-1c0,0,0,-1,0,-1c1,0,1,0,1,0c0,0,0,-1,0,-1c0,-1,0,-1,0,-1l0,-1c1,0,1,0,1,0c0,0,0,-1,0,-1c1,1,1,1,2,2c1,0,1,1,2,1c0,0,0,1,1,1c0,1,0,1,0,1c0,0,0,1,0,1c0,0,0,1,0,1c0,1,0,1,0,1c-1,0,-1,0,-1,0ZM94.5,264.5c0,0,-1,0,-1,0l0,1c1,0,1,0,1,1c0,-1,1,-1,1,-1c0,-1,0,-1,0,-1l-1,0ZM96.5,264.5l0,1c0,0,0,1,0,1l2,0c0,-1,-1,-1,-1,-1l0,-1c-1,0,-1,0,-1,0ZM93.5,256.5l4,-3l0,1l0,1l-4,2ZM183.5,255.5l-2,-1l-1,1l-1,0l1,-2l1,1l1,-1l1,1ZM181.5,259.5l1,0c1,0,1,1,1,1l0,1l0,-1l0,-1c0,0,0,-1,0,-1c-1,-1,-1,-1,-1,-1c0,0,-1,1,-1,1l0,1l-1,0c0,0,0,1,0,1l-1,0c0,1,0,1,-1,1c0,1,0,1,0,1l-1,0c0,0,-1,1,-1,1c0,0,-1,0,-1,0c0,1,0,1,0,2c0,-1,0,-1,0,-1l1,0l1,0l0,1l1,0l1,0l1,1l-1,0l-1,0l-1,1l-1,0l-1,0l-1,0l-1,0l-2,0c-1,-1,-1,-1,-1,-1c0,-1,0,-1,0,-1l0,-3c-1,0,-1,-1,-1,-1l0,-2l-1,1l0,1l0,1l1,2c0,1,0,1,0,1l0,1c-1,0,-1,0,-1,0l-1,0c0,0,-1,1,-1,1l-1,0l-1,-1l-1,0l0,-1l0,1l0,1c0,1,0,1,0,1l1,0l1,0c1,0,1,0,2,0l1,0l0,-1c1,0,1,0,1,0l0,-1c0,1,0,1,0,1l1,1c1,0,1,1,1,1l2,0l1,0l1,0l0,-1l1,0c0,0,1,0,1,0l2,-1c1,0,1,0,1,0l1,-1l1,0l1,0l1,0l1,0l1,0l0,-1l-1,0c0,0,-1,0,-1,0c-1,0,-1,0,-1,0c-1,-1,-2,-1,-2,-1l-2,-1l-1,0c1,-1,1,-1,1,-1l1,-1l1,-1ZM179.5,246.5c0,0,1,-1,1,-1l1,0c0,0,1,0,1,1c0,0,-1,0,-1,1l0,1l1,0l0,1l-2,0c-1,1,-1,1,-1,1l-1,0l-1,0l1,0l0,-1c1,0,1,0,1,0l1,-1l-1,0c0,0,0,-1,0,-1c0,0,0,-1,0,-1ZM180.5,246.5l0,1l1,0c0,-1,0,-1,0,-1ZM171.5,259.5l5,-2l-1,1l-4,2ZM165.5,255.5l0,1c0,0,1,0,1,0l0,-1l1,0l0,-1l0,1l1,0l0,-1l0,1l0,1l-1,0l-1,1c-1,0,-1,0,-1,0l0,-1l0,-1ZM166.5,272.5l-4,2c0,-1,0,-1,0,-1l4,-2ZM152.5,260.5l-1,-1l0,-1l2,1ZM154.5,263.5l-2,-1l-1,1l-1,-1l1,-1l1,1l1,-2l1,1ZM160.5,267.5c-1,0,-1,0,-2,1c-1,0,-2,0,-3,1c-1,0,-3,0,-4,0c-1,0,-2,0,-3,0c-1,0,-2,-1,-3,-1c0,0,0,-1,0,-1l-1,0c0,-1,0,-1,0,-1l0,-1c0,0,1,-1,1,-1c0,-1,0,-1,1,-1l0,1c-1,0,-1,0,-1,1l1,1l1,1c1,0,1,0,1,0l1,0l1,0l2,0c1,0,1,0,2,0l1,0c0,0,1,0,1,0l1,-1c1,0,1,0,2,0c0,-1,1,-1,1,-1l0,-1c0,0,-1,-1,-1,-1l0,-1c1,0,1,0,1,-1c0,1,0,1,1,2c0,1,0,1,0,1c0,1,0,1,0,1c-1,1,-1,1,-1,2ZM150.5,253.5c0,-1,1,-1,1,-1l1,0l0,1l0,1l0,1l1,0l-1,1l-1,-1l0,1l-1,0c0,1,0,1,0,1l-1,0l-1,0l1,0l0,-1c0,0,1,0,1,0l0,-1l1,0l-1,0c0,-1,0,-1,0,-1l0,-1ZM151.5,253.5l0,1l0,-1ZM232.5,272.5l-2,-1l-1,1l-1,-1l1,-1l1,1l1,-2l2,1ZM229.5,269.5l-1,0l-2,0l0,1l0,1c-1,0,-1,1,-1,1c0,0,-1,1,-1,1c0,0,-1,0,-1,0c0,1,0,1,-1,1c-1,0,-1,0,-1,0c-1,0,-1,0,-2,0c0,-1,-1,-1,-1,-1c0,0,1,0,1,0l1,0c0,0,1,0,1,0c0,0,1,0,1,-1c1,0,1,0,1,0c0,-1,1,-1,1,-1c0,0,0,-1,1,-1l0,-1c-1,0,-1,0,-1,0l0,-1c-1,0,-1,0,-1,0l-1,-1l0,-1c1,0,1,0,1,-1c0,-1,0,-1,1,-1c1,0,1,0,1,0l1,1c0,0,0,1,0,1c0,0,0,1,0,1c1,0,1,0,1,0c0,0,1,0,1,0l1,0c0,0,1,0,1,0c1,0,1,-1,1,-1c0,0,0,-1,0,-1c0,0,0,-1,0,-1l-1,0l1,-2c0,0,1,1,1,1l0,1l0,1c0,1,0,1,0,1c0,1,0,1,0,1l0,1c-1,0,-1,0,-2,0c0,1,-1,1,-1,1ZM229.5,256.5l4,-3l0,1l-1,1l-4,2ZM224.5,266.5c0,0,-1,0,-1,0l0,1c1,0,1,0,1,0l1,0l0,-1c-1,0,-1,0,-1,0ZM220.5,258.5c0,0,0,-1,1,-1c0,0,1,0,1,0c1,0,1,0,1,0c1,1,1,1,1,1c0,1,0,1,-1,1c0,1,0,1,0,1c0,0,-1,0,-1,0c0,0,-1,0,-1,0l-1,0l2,0c0,-1,1,-1,1,-1l-1,-1c-1,0,-1,0,-2,1l-1,0c0,-1,1,-1,1,-1ZM217.5,268.5c0,0,-1,0,-1,0l-1,0l-1,0l-1,-1c0,1,0,1,0,1l-1,1l-1,0l-1,0l-1,0c0,-1,0,-1,0,-1c0,0,-1,0,-1,0c0,0,0,-1,0,-1l-1,0c0,1,0,1,0,1c-1,0,-1,0,-2,0c0,1,0,1,0,1l-1,0l-1,0c-1,0,-1,0,-1,0c0,0,0,-1,0,-1l-1,0l0,-1l0,-1l0,1l-1,0l0,1c-1,0,-1,0,-2,0c0,0,-1,0,-1,0l-1,0l-1,0c0,0,-1,0,-1,-1c0,-1,0,-1,0,-1l1,0l0,-1c0,1,0,1,0,1l1,0l0,1l1,0l1,0c0,0,0,-1,0,-1c1,0,1,0,1,0c1,0,1,0,1,0l1,-1l-1,-1l0,-2l0,-1l0,-1l1,-1l0,2c0,0,0,1,0,1l1,3l0,1l0,1c0,0,1,0,1,0l1,0l1,0l1,0l1,-1c1,0,1,0,1,0c0,0,1,0,1,0c0,0,0,1,0,1c0,0,1,0,1,0l1,0l1,0c0,0,1,0,1,0l0,-1l1,-1c0,0,0,-1,1,-1c0,-1,1,-1,1,-1l1,1c0,0,0,1,0,1l0,1l0,1c0,1,0,1,0,1ZM215.5,266.5l1,0c0,0,0,-1,0,-1l-1,0l0,1ZM212.5,256.5l4,-3l0,1l0,1l-4,2ZM206.5,271.5c0,0,1,-1,1,-1l1,0l1,0l0,1l-1,0l-1,0l-1,0l1,1l1,0l1,0l1,0c0,0,0,1,-1,1l-4,1l1,0l0,-1l1,0c-1,0,-1,-1,-1,-1c0,0,0,-1,0,-1ZM209.5,276.5l-4,3c0,-1,1,-1,1,-2l4,-2ZM199.5,257.5l-1,-1l1,-1l1,1ZM193.5,275.5l5,-2c0,0,-1,0,-1,0c0,1,0,1,0,1l-5,2ZM194.5,272.5l5,-3c0,1,0,2,0,2l-5,2ZM261.5,266.5c0,1,0,2,0,2c-1,0,-1,1,-1,1l0,1c0,0,-1,0,-1,0l1,0l0,1l-1,0l0,1l-1,0l0,1c0,0,-1,0,-1,0l-1,1l-1,0l-1,0l0,1l-1,0l0,1l-1,0l0,1l-3,0l-1,0l0,-1l-1,-1c0,0,0,-1,-1,-1c-1,0,-2,0,-2,-1l-1,0l-1,0l0,-1l-1,0l0,-1l-1,0l0,-1l1,0l-1,-1l0,-1l0,-1l0,-1l0,-1c0,-1,0,-1,0,-2l1,-1l-1,0c0,-1,0,-1,0,-1l1,0l0,-1l1,0l0,-1l1,0l2,-1l1,0l1,0l0,-1l1,-1l0,-1l1,0l3,0l0,1l1,0l0,1l1,0l0,1l2,0l0,1l1,0l1,0l0,1l1,0c1,1,1,1,1,1l1,1c0,0,-1,0,-1,0l-1,0l1,0l0,1l0,1l1,0l0,1ZM252.5,276.5l1,-1l1,-1c1,0,1,0,1,0c1,0,1,0,1,0l0,-1c1,0,1,0,2,0l0,-1c1,0,1,0,1,0l0,-1l1,0l-1,-1l0,-1l1,0l0,-1l0,-1l0,-1c0,-1,0,-2,0,-2l0,-1l-1,-1l1,-1c0,0,-1,0,-1,-1l-1,0l-1,-1l-2,0l-1,-1c0,0,-1,0,-1,0l-1,-1l0,-1l-3,0l-1,0l0,1l-1,1l-1,0l-1,1l-1,0l-1,0l0,1l-1,0c-1,1,-1,1,-2,1l1,1l0,1l-1,0l0,1l0,1c0,0,0,1,0,1l0,1l0,1l0,1c0,0,1,0,1,0l0,1l-1,1l1,0l0,1l1,0l1,1l1,0l1,0l0,1l1,0c1,0,1,0,1,1l1,0l0,1l1,0ZM257.5,261.5l0,1l-1,-1l0,-1l-1,0l-1,0l0,-1l1,0l0,1c1,0,1,0,1,0c1,0,1,0,1,0l0,1ZM258.5,271.5l-1,0l0,1l-1,0l0,1l-1,0l-1,0c0,-1,0,-1,0,-1c1,0,1,0,1,0l1,0c0,-1,1,-1,1,-1ZM253.5,273.5c0,0,0,1,0,1l-1,0l-3,0l-1,0c0,0,-1,0,-1,0c0,-1,0,-1,0,-1c0,0,0,-1,1,-1l1,0l3,0l1,0l0,1ZM253.5,259.5c0,0,0,1,0,1l-1,0l-3,0l-1,0l-1,0l0,-1c0,0,0,-1,1,-1l1,0l3,0c1,0,1,0,1,0l0,1ZM252.5,262.5l0,-1l1,0l1,0l1,0c0,1,0,1,1,1l0,1l1,-1c0,0,0,1,1,1l0,1l0,1l1,1l0,1l-1,0l0,1c0,1,0,1,0,1c0,0,-1,1,-1,1l-1,-1c0,0,0,1,0,1l-1,0l0,1l-1,0l-1,0c-1,0,-1,0,-1,-1l-3,0l-1,0l0,1l-1,0c-1,0,-1,0,-1,0c-1,0,-1,-1,-1,-1l-1,0l0,-1l-1,1l0,-1l-1,-1l0,-1l0,-1c0,0,0,-1,0,-1l0,-1l0,-1l1,0c0,0,0,-1,0,-1l1,1c0,0,1,0,1,-1l1,0c0,-1,0,-1,1,-1c0,0,1,0,1,0l0,1l1,0ZM252.5,270.5l1,0c0,1,0,1,0,1l1,0c0,0,1,-1,1,-1l1,-1l1,0l1,0l0,-1l0,-1l0,-1c0,-1,0,-1,0,-2l0,-1c-1,0,-1,0,-1,0l-1,0l-1,-1l-1,0l0,-1c-1,0,-1,0,-1,1l-1,0l-4,0l-1,-1c0,0,-1,0,-1,1l-1,0l0,1c-1,0,-1,0,-1,0l-1,0l-1,1l0,1l0,1c0,0,0,1,0,1l0,1c1,1,1,1,1,1l1,0l1,1l1,0l0,1l1,0c0,0,1,0,1,-1l1,0l3,0ZM250.5,266.5l0,1l0,1c0,0,0,1,0,1c0,0,0,-1,0,-1c0,-1,-1,-2,-1,-3l0,-1l0,1l1,0c1,0,1,0,1,0l0,-1l0,1c1,0,1,0,1,0c0,-1,0,-1,0,-1c0,1,0,1,0,1c0,0,0,1,-1,1c0,0,0,-1,0,-1c0,1,-1,1,-1,1ZM243.5,261.5l0,-1l1,0l1,0l0,-1l1,0l0,1l-1,0l0,1l-1,0l0,1l-1,-1ZM243.5,271.5c1,0,1,0,2,1l1,0l0,1l-1,0c0,0,-1,-1,-2,-1l0,-1ZM279.5,257.5l0,1l0,3c1,0,1,0,1,1l1,0c0,0,0,1,1,1c0,1,0,1,0,1c0,1,1,1,1,1c0,0,0,1,0,1c0,0,0,1,0,1l-1,0c0,1,0,1,0,1l-1,0l-1,0c-1,0,-1,-1,-2,-1c-1,1,-1,1,-1,1l-1,0l-1,0c0,0,0,1,-1,1c0,0,-1,0,-1,0l-1,0c-1,0,-2,-1,-2,-1c-1,-1,-1,-1,-1,-2l0,-8l1,-3l0,10l0,1l1,0c0,1,0,1,1,1l2,0c1,0,1,0,1,0c0,0,1,0,1,0l0,-1c0,-1,0,-1,0,-1c0,0,0,-1,0,-1l1,-1c0,-1,0,-1,0,-1c0,0,1,0,1,0c0,-1,0,-1,0,-1l0,-4c0,-1,0,-1,0,-1c0,-1,0,-1,0,-1c0,-1,0,-1,1,-1c0,1,0,1,0,1c0,0,0,1,1,1l-1,1ZM279.5,249.5l4,-2l-1,1l-4,2ZM278.5,264.5l-1,0l0,1l1,1c0,-1,0,-1,0,-1c1,0,1,0,1,0c0,-1,0,-1,-1,-1ZM280.5,264.5c0,1,0,1,0,1c0,0,0,1,-1,1c0,0,1,0,1,0l1,0l1,0l-1,0c0,-1,0,-1,0,-1c0,0,-1,-1,-1,-1ZM272.5,256.5l5,-2l-1,0l0,1l-4,2ZM302.5,268.5c-1,0,-1,0,-1,0l-1,0l-1,0l-1,-1c0,1,0,1,0,1l-1,1l-1,0l-2,0c0,0,-1,-1,-1,-1c-1,-1,-1,-1,-1,-2l-1,-8l1,-3l1,10l0,1c0,1,1,1,1,1l2,0l1,0l1,0l0,-1l1,-1c0,0,0,-1,1,-1c0,-1,0,-1,1,-1l1,1c0,0,0,1,0,1l0,1l0,1c0,1,0,1,0,1ZM300.5,266.5l1,0c0,0,0,-1,0,-1l-1,0l-1,1c0,0,1,0,1,0ZM297.5,256.5l4,-3l0,1l0,1l-5,2ZM357.5,269.5l0,-2l0,-1l-1,-8l1,-3l1,11c0,0,0,1,0,1c-1,1,-1,1,-1,2ZM349.5,275.5l-5,2c1,0,1,-1,1,-1l4,-2ZM350.5,250.5c1,-1,1,-1,1,-1c1,0,1,0,1,0l1,1c0,1,0,1,0,1c-1,0,-1,0,-1,0l0,1l-1,0l-1,0l1,-1c1,0,1,0,1,0l0,-1l-1,0c0,0,-1,0,-1,1l-1,0c0,-1,1,-1,1,-1ZM337.5,262.5l-2,-1l1,-2l1,1ZM336.5,269.5l-1,0l-1,0l0,-1l-1,0c0,0,0,-1,0,-1l0,-1l-1,1c0,0,0,1,0,1c-1,0,-1,0,-2,0c0,0,-1,0,-1,-1l0,1c-1,0,-1,0,-2,1c-1,0,-1,-1,-2,-2c0,0,0,1,0,1c-1,0,-2,1,-3,1l0,-2l1,0l1,0c1,-1,1,-1,2,-2l0,1c0,0,0,1,1,1c0,0,1,0,1,-1c1,0,1,0,1,-1l1,0c0,0,0,1,0,1c0,0,1,0,1,0c0,0,1,0,1,0c0,-1,1,-1,1,-1c0,1,1,2,2,2l1,0c1,0,1,0,2,0c0,0,1,-1,1,-1c0,0,0,-1,0,-1c-1,0,-1,-1,-1,-1l1,-2c0,0,0,1,0,1l0,1l1,1c0,1,0,1,0,1c0,0,-1,0,-1,0c0,1,0,1,0,1l0,1c0,0,-1,0,-1,0c-1,1,-1,1,-2,1ZM315.5,266.5l-2,-1l1,-1l2,1ZM319.5,266.5c0,1,1,1,1,1l2,0l0,2l-2,0l0,1c0,1,0,2,-1,2c0,1,0,1,-1,2c0,0,-1,1,-2,1c-1,0,-1,1,-2,1c-1,0,-1,-1,-2,-1c0,0,-1,0,-1,0c-1,-1,-1,-1,-1,-2c-1,0,-1,-1,-1,-1c0,-1,0,-1,0,-1c0,-1,1,-1,1,-1c0,-1,0,-1,0,-1c0,-1,0,-1,0,-1c1,0,1,0,1,0c0,0,0,1,0,1c0,0,-1,0,-1,1c0,0,0,1,0,1c0,0,0,1,1,1c0,0,0,1,0,1c0,0,1,0,1,0c1,1,2,1,2,1c1,0,2,0,3,-1c1,0,1,0,2,-1c0,0,0,-1,0,-1c0,-1,0,-1,0,-1c0,-1,0,-1,0,-1c0,0,0,-1,0,-1c-1,0,-1,0,-1,0l1,-2ZM315.5,253.5c0,-1,0,-1,1,-1l1,0l0,1l0,1l0,1l1,0l-1,1l-1,-1l0,1l-1,0c0,1,0,1,-1,1l-1,0l1,0l0,-1c0,0,1,0,1,0l0,-1l1,0l-1,0c0,-1,0,-1,0,-1l0,-1ZM316.5,253.5l0,1l0,-1ZM395.5,265.5l-1,0c0,1,1,1,1,1c0,0,1,-1,1,-1c-1,0,-1,0,-1,0ZM395.5,272.5c0,1,0,1,-1,1c-1,0,-1,0,-2,0c-1,0,-1,0,-2,0c0,0,-1,0,-1,0c0,-1,0,-1,0,-1c0,0,1,0,1,0c0,0,0,1,1,1l0,-1c1,0,1,0,1,0l1,0c1,-1,1,-1,1,-1c1,0,1,-1,1,-1c0,0,1,0,1,-1c0,-1,0,-1,0,-1c0,-1,0,-1,0,-1c0,0,0,1,0,1c0,0,-1,0,-1,0c0,0,-1,0,-1,0c0,-1,0,-1,0,-1c-1,0,-1,0,-1,0c0,0,0,-1,0,-1l0,-1c0,-1,1,-1,1,-1c0,-1,0,-1,0,-1c1,0,1,0,1,0c1,0,1,0,1,0l1,1c0,1,0,1,0,2l0,1c0,0,0,1,0,1c0,1,0,2,-1,2c0,1,0,1,0,1c-1,1,-1,1,-1,1ZM392.5,259.5l4,-2c0,1,0,1,0,1l-4,2ZM388.5,259.5l-1,-1l-1,1l-1,-1l0,-1l2,1l1,-1l1,0ZM389.5,267.5c0,0,0,1,-1,1c0,0,-1,0,-1,0c-1,1,-1,1,-2,1l-1,0l-1,0c-1,0,-1,-1,-2,-1c0,-1,-1,-1,-1,-2l0,-8l1,-3l0,10l0,1l1,0c0,1,0,1,1,1l1,0l1,0c1,0,1,0,2,0c1,0,1,-1,2,-1c0,0,0,-1,0,-1c0,0,0,-1,0,-1c0,0,-1,1,-1,1c0,0,-1,0,-1,0c0,0,-1,0,-1,0c-1,-1,-1,-1,-1,-2l1,-1c0,-1,0,-1,0,-1c1,-1,1,-1,1,-1c1,0,1,0,1,1c1,0,1,0,1,1l0,1c1,0,1,0,1,1c0,0,0,1,0,1c0,1,0,1,0,1l-1,1ZM386.5,263.5c1,0,1,0,1,0l1,0l0,-1c-1,0,-1,0,-1,0l-1,0l0,1ZM385.5,252.5l5,-2l-1,1l-4,2ZM375.5,257.5c0,-1,0,-1,0,-1c0,-1,1,-1,1,-1c0,1,0,1,0,1c0,0,1,0,1,0c0,1,0,1,0,2l-1,0c0,1,0,1,0,2c1,2,1,3,1,3c0,1,0,2,0,3l0,1c0,1,-1,1,-1,2c0,1,-1,1,-1,1c0,1,0,1,-1,1l-1,0c-1,1,-1,1,-2,1l-1,0l-1,0c-1,0,-1,-1,-1,-1c-1,0,-1,-1,-1,-1c0,0,0,-1,0,-1c0,-1,0,-2,0,-2c0,-1,0,-1,1,-1l0,-1l0,-1l1,0l-1,1l0,1c0,1,0,1,0,1c0,1,0,2,0,2c1,1,1,1,2,1c0,0,1,0,1,0c1,0,2,0,3,-1c1,0,1,0,2,-1c0,0,0,-1,0,-1c0,-1,0,-2,0,-3c0,-1,-1,-2,-1,-4c0,-1,0,-2,0,-3ZM367.5,256.5l4,-3l0,1l0,1l-4,2ZM250.5,248.5l-1,0l0,1c0,0,0,-1,0,-1l1,0ZM41.5,197.5c0,2,0,4,-1,5l0,1c0,0,-1,0,-1,0l-1,0l1,0c0,-1,0,-1,1,-1c0,-1,0,-1,0,-1c-1,0,-1,0,-1,0c0,0,0,-1,0,-1c-1,0,-1,0,-1,0l-1,0c0,0,0,-1,0,-1c0,-1,0,-1,0,-1c0,0,1,0,1,1l1,0c0,0,0,1,0,1c0,0,1,0,1,1l0,1c0,0,0,-1,0,-1c1,0,1,0,1,-1l0,-2ZM244.5,196.5c0,2,0,3,-1,5l0,1c0,0,-1,0,-1,0l-1,0l1,-1c0,0,1,0,1,0l0,-1c0,0,-1,0,-1,-1c-1,-1,-1,-1,-1,-1c-1,0,-1,0,-1,0c0,0,0,-1,0,-1c1,0,1,0,1,0l1,1c0,1,1,1,1,1c0,0,0,1,0,1l1,0c0,-1,0,-1,0,-1l0,-1l0,-1ZM215.5,206.5l4,-2l0,1l-4,2ZM216.5,223.5l1,-1l0,-2l-1,-8l1,-3l0,11c0,0,0,1,0,1l0,1l-1,1ZM101.5,205.5l4,-2l0,1l-4,2ZM103.5,222.5l0,-1l0,-2l-1,-8l1,-2l1,10c0,0,-1,1,-1,1l0,1l0,1ZM420.5,221.5l0,-1l0,-1l0,-8l1,-3l0,11c0,1,0,1,0,1c0,1,-1,1,-1,1ZM423.5,224.5l-4,2c0,-1,1,-1,1,-2l3,-1ZM347.5,224.5c0,0,-1,0,-1,0c-1,0,-1,0,-1,0c0,0,-1,0,-2,0c0,0,-1,0,-1,0c0,0,0,-1,0,-1c0,0,0,-1,0,-1l1,0c1,0,1,0,1,0c0,0,0,-1,1,-1c0,-1,0,-1,1,-1c-1,0,-1,0,-1,-1c0,0,-1,0,-1,-1c0,0,-1,-1,-1,-1c0,-1,-1,-1,-2,-2c-1,-1,-1,-1,-1,-1c0,0,-1,0,-1,0c-1,0,-1,-1,-1,-1l0,-1c0,-1,0,-1,0,-1l0,-1c1,1,1,1,2,1c0,1,1,1,1,2c1,1,2,1,2,2c1,0,1,1,2,2c0,0,0,1,1,1c0,0,0,1,0,1c0,0,0,-1,0,-1c1,-1,1,-2,1,-2c0,-1,0,-2,0,-2c0,0,0,-1,0,-1c0,-1,0,-1,0,-2c0,-1,0,-1,0,-2c1,0,1,0,1,0c0,0,0,1,0,1l1,0c0,1,0,1,-1,1c0,1,0,1,0,1l0,1c0,0,0,1,0,1c0,1,0,1,0,1c0,1,0,1,0,2c-1,0,-1,1,-1,1c0,1,0,1,0,2c0,0,0,1,0,1c0,1,0,1,0,1c0,1,0,1,0,1l0,1ZM346.5,221.5c-1,1,-1,1,-1,1c1,0,1,0,1,0l1,0c-1,0,-1,-1,-1,-1ZM150.5,223.5c-1,0,-1,0,-2,0c-1,0,-1,0,-2,0c-1,0,-1,0,-1,0l-1,0c0,0,0,-1,0,-1l1,-1l1,0l1,0c0,0,0,-1,0,-1c0,0,1,0,1,0c0,0,0,-1,0,-1l-1,-1l0,-1c-1,0,-1,-1,-1,-1c-1,-1,-1,-1,-2,-2l-1,0c0,-1,0,-1,0,-1c0,0,-1,0,-1,0l-1,0l0,-1c0,0,-1,0,-1,-1c0,-1,0,-1,0,-1c1,0,1,0,1,-1c0,1,1,1,1,1c1,1,1,1,2,2c1,1,1,1,2,2c0,0,1,1,1,2c1,0,1,1,1,1c0,0,1,1,1,1c0,0,0,-1,0,-1c0,-1,0,-2,0,-2c0,-1,0,-1,0,-2c0,0,0,-1,0,-1c0,-1,0,-1,0,-2c0,-1,0,-1,0,-1c1,-1,1,-1,1,-1c0,1,0,1,0,1l1,0l0,1l0,1l-1,1c0,0,0,1,0,1c0,1,0,1,0,1c0,1,0,1,0,2c0,0,0,1,0,1c0,1,-1,1,-1,2c1,0,1,1,1,1c0,1,0,1,0,1c0,1,0,1,0,1l0,1ZM149.5,220.5l-1,1l1,0l0,-1ZM51.5,219.5c0,1,0,2,0,2c0,1,0,1,0,1l-1,1l1,1l-1,1l-1,0l0,1l-1,0l-1,1l-1,0l-1,0l0,1l-1,0l-1,1l0,1c0,0,-1,0,-1,0l-3,0c0,0,0,-1,0,-1l-1,-1c0,0,-1,0,-1,0c-1,-1,-2,-1,-2,-1l-1,0l0,-1l-1,0l0,-1l-1,0l-1,-1l1,-1l-1,0l0,-1l0,-1l-1,0c0,-1,0,-1,0,-1l0,-1l0,-1l1,0c0,0,0,-1,0,-2l1,-1l-1,0c0,0,0,-1,0,-1l1,0l0,-1l1,0l1,-1l2,0l1,-1l1,-1l1,0c0,-1,0,-1,0,-1l3,0l1,1l1,0l0,1l1,0l1,1l1,0c1,0,1,0,1,0l0,1l1,0l0,1c1,0,2,0,2,1l-1,0l0,1l1,0l0,1l0,1ZM42.5,230.5l1,-1l0,-1l1,0l1,-1c0,0,1,0,1,0l1,0c0,-1,1,-1,1,-1l1,0l0,-1l1,0l0,-1l1,0l-2,0l0,-1l1,0l0,-1l1,0l0,-1l0,-1l0,-1c0,-1,0,-1,0,-2l-1,-1l0,-1l-1,0l1,0l1,0c-1,-1,-1,-1,-2,-1l0,-1l-1,0l-1,-1l-1,0l-1,-1c-1,0,-1,0,-1,0l-1,-1l0,-1c0,0,-1,0,-1,0l-1,0l-2,0l0,1l-1,1c0,0,-1,0,-1,0l-2,1l-1,0l0,1l-1,0l-1,1l-1,1l1,0l0,1l-1,1l0,1l0,1l0,1l0,1l0,1l1,1c0,0,0,1,0,1l-1,0l1,0l0,1l1,0l0,1l1,0l1,1l1,0l1,0c0,0,1,1,1,1l1,1l0,1ZM48.5,215.5l-1,0l0,-1l-1,0l-1,-1l0,-1l0,1l1,0c1,0,1,0,1,0c0,0,0,1,0,1l1,0ZM48.5,224.5l0,1l-1,0l0,1l-1,0l-1,0l0,-1l1,0c1,0,1,-1,1,-1l1,0ZM44.5,226.5c0,1,-1,1,-1,1c0,0,0,1,-1,1l-3,0c0,0,0,-1,0,-1c-1,0,-1,0,-1,0c0,0,0,-1,0,-1l0,-1c1,0,1,0,1,0l3,0c1,0,1,0,1,0l1,1ZM44.5,212.5c0,1,-1,1,-1,1l-1,1l-3,0c0,0,0,-1,-1,-1l0,-1l1,-1l3,0c1,0,1,0,1,0c0,1,0,1,1,1ZM42.5,215.5l1,0c0,-1,1,-1,1,-1c1,0,1,1,1,1c0,0,1,0,1,1l1,0l1,0l1,1l0,1l0,1l0,1c0,0,0,1,0,1l0,1c-1,0,-1,0,-1,0c0,1,0,1,0,1l-1,0l-1,0l0,1l-1,0l-1,0c-1,0,-1,0,-1,0l-1,0l-3,0c0,0,-1,0,-1,0c-1,0,-1,0,-2,0l-1,-1l-1,0l0,-1l-1,-1l0,-1l0,-1l0,-1l0,-1l0,-1c1,0,1,0,1,0l1,0l1,0l0,-1l1,0c0,0,0,-1,1,-1l1,1ZM42.5,223.5l1,0l0,1l1,0l1,0l1,-1c0,-1,1,-1,1,-1l1,1l0,-1l0,-1l1,0l0,-1l0,-1c0,0,0,-1,0,-1c-1,-1,-1,-1,-1,-1c0,-1,0,-1,0,-1l-1,0c0,0,-1,0,-1,0l-1,-1l-1,0c0,0,-1,0,-1,0l-1,0l-3,0l-1,0c-1,0,-1,0,-1,0l-1,0l0,1c-1,0,-1,0,-1,0l-1,0l0,1l-1,0l0,1l0,1l0,1l0,1c1,1,1,1,1,2l1,-1l1,1l0,1l1,0l1,0l1,0l0,-1l3,0ZM42.5,218.5c0,1,-1,1,-1,1l0,1c0,1,0,1,0,1c0,1,0,1,0,1l-1,0l0,-1c0,0,0,-1,0,-1c0,0,0,-1,0,-1l0,-1l1,0c1,0,1,0,1,0ZM34.5,215.5l0,-1l1,-1l1,0l1,0l0,-1l0,1c0,0,-1,0,-1,0l0,1l-1,0l0,1l-1,0ZM34.5,224.5c1,0,1,1,1,1l1,0l1,0c0,0,0,1,0,1l-1,0c-1,0,-1,-1,-2,-1l0,-1ZM95.5,211.5l-1,-1l1,-1l1,0ZM97.5,213.5l-1,-1l-1,2l-1,-1l0,-2l2,1l1,-1l1,1ZM94.5,222.5l-1,0l-1,0l-1,0c0,0,-1,0,-1,0c-1,0,-1,-1,-2,-1c0,0,-1,1,-1,1c-1,0,-2,0,-2,0l-1,0l-1,0c-1,0,-1,0,-2,-1c-1,0,-1,-1,-1,-2l0,-8l1,-2l0,9l0,1l1,1l1,0l2,0l1,0c1,0,1,0,1,0l0,-1c0,-1,0,-1,0,-2c0,0,0,-1,1,-1l0,-1c1,0,1,0,2,0c0,0,1,0,1,0c0,1,0,1,0,2l0,1c0,0,0,1,0,1c0,0,0,1,-1,1c0,0,1,0,1,0c1,0,1,0,1,0l1,0l1,0c1,0,1,0,2,0c0,0,1,0,1,0l0,-1l0,-1l-1,-1l1,-1l0,1l1,0l0,1l0,1c0,0,0,1,0,1c-1,0,-1,1,-1,1c0,0,-1,0,-1,1c-1,0,-1,0,-2,0ZM94.5,204.5l1,-1l1,0c0,0,1,0,1,1c1,0,1,0,1,0c0,1,-1,1,-1,1c0,1,0,1,0,1c0,0,-1,0,-1,0c-1,0,-1,0,-1,0l-1,0l2,0c0,-1,1,-1,1,-1l-1,0c-1,0,-1,0,-2,0l-1,0c0,0,0,-1,0,-1c1,0,1,0,1,0ZM90.5,214.5l-2,-1l0,1l-2,-1l1,-2l2,1l0,-1l2,1ZM89.5,217.5l-1,0l0,1c0,1,0,1,1,1c0,0,1,0,1,0c0,-1,0,-1,0,-1c0,0,0,-1,0,-1l-1,0ZM85.5,206.5l4,-2c0,0,0,1,0,1l-4,2ZM73.5,220.5l1,0l1,0c0,-1,0,-1,0,-1l0,-2l0,-7c0,-1,0,-1,0,-1c0,-1,0,-1,0,-1c1,0,1,0,1,0c0,1,0,1,0,1c0,0,0,1,1,1c0,0,-1,0,-1,1c0,1,0,2,0,2c0,1,0,1,0,3c0,0,0,1,0,1l0,1c0,1,0,1,0,1l0,1c0,0,0,1,0,1c-1,0,-1,0,-1,0l0,1c0,0,-1,0,-1,0c0,0,-1,0,-1,0l-1,0c0,0,-1,0,-1,0l-1,0c0,1,0,1,1,1c0,1,0,1,0,1c0,1,-1,1,-1,2c0,1,-1,1,-1,1c-1,0,-1,0,-1,0c-1,-1,-1,-1,-1,-2c-1,-1,-1,-2,-1,-3l-1,0l-1,0l-1,0l-1,0c-1,0,-1,0,-2,-1c0,0,-1,-1,-1,-2l0,-8l1,-2l0,9l0,1l1,0l0,1c0,0,1,0,1,0l1,0l1,0l1,0l1,0c0,-1,1,-1,1,-1l0,-1l0,-1c0,0,1,0,1,0c0,-1,1,-2,2,-2l0,1l0,1c0,1,0,1,0,2c0,0,-1,1,-2,2l1,-1l1,0l1,0l1,0l1,0ZM74.5,206.5l4,-2c-1,0,-1,1,-1,1l-4,2ZM69.5,217.5c-1,0,-1,0,-1,1l-1,1l0,1c1,-1,2,-1,2,-1c1,-1,1,-1,1,-1c0,-1,0,-1,0,-1c-1,0,-1,0,-1,0ZM67.5,222.5c0,0,0,1,0,1c0,1,0,1,1,2c0,0,1,0,1,0c0,0,1,0,1,0l0,-1c0,0,0,-1,-1,-1c-1,0,-1,-1,-2,-1ZM67.5,209.5l4,-2l0,1l-5,2ZM156.5,222.5l0,-1l0,-1l-1,-9l1,-2l1,11l-1,0l0,1c0,0,0,1,0,1ZM140.5,204.5l4,-3l0,1l0,1l-4,2ZM150.5,204.5c0,0,1,0,1,0c0,-1,1,-1,1,-1c0,0,1,0,1,1c0,0,1,0,1,0c0,0,-1,0,-1,0c0,1,0,1,0,1l-1,1c-1,0,-1,0,-1,0c-1,0,-1,0,-1,0l2,-1c0,0,1,0,1,0c-1,-1,-1,-1,-1,-1c-1,0,-1,0,-1,1c-1,0,-1,0,-1,0l0,-1ZM131.5,225.5l1,0c1,0,2,0,3,-1c0,0,1,0,1,-1c1,0,1,-1,1,-1c0,-1,1,-1,1,-1c0,0,0,-1,0,-1l0,-1l-1,0l0,-1l0,-1l0,-1l1,1l0,1l0,1l0,1c0,1,0,1,0,2c0,0,0,1,0,1c0,0,-1,1,-1,1c0,0,0,1,-1,1l-1,1l-1,0l-1,0c-1,0,-1,0,-1,0c-1,0,-1,0,-1,-1ZM132.5,211.5c1,0,1,0,1,0c1,0,1,-1,2,-1c0,0,1,1,1,1c0,0,1,0,1,0l0,1c-1,0,-1,0,-1,1l-1,0c-1,0,-1,0,-1,0l-1,0l1,0c1,0,1,-1,2,-1c0,0,-1,0,-1,0l-1,0c0,0,-1,0,-1,0l-1,0l0,-1ZM123.5,215.5l-1,-1l1,-2l1,1ZM121.5,222.5l0,1c0,0,0,1,0,1l-1,0l0,-1l0,-1l-1,0l0,1c0,1,0,1,0,1c0,1,0,1,0,1c0,1,-1,1,-1,2l-1,1l-1,0c0,0,-1,1,-1,1c0,0,-1,0,-1,0l-1,0c0,0,-1,0,-2,0c0,-1,-1,-1,-1,-1c-1,-1,-1,-1,-1,-1c0,-1,0,-1,0,-2c0,-1,0,-1,0,-1l0,-1c0,-1,1,-2,1,-2l0,1l0,1c-1,0,-1,1,-1,1c0,0,1,1,1,1c0,1,0,1,1,1c0,1,0,1,1,1l1,0c1,0,1,0,2,0c1,0,1,0,2,-1c0,0,1,0,1,-1c0,0,1,-1,1,-2c0,0,-1,-1,-1,-1c0,-1,0,-1,0,-1l1,-2l0,1l1,0l1,0l1,0l1,-1l1,-1l1,0l0,-1l1,0c1,0,1,-1,1,-1c1,0,1,0,1,0c1,0,1,0,1,0c0,0,1,0,1,0c0,1,0,1,1,1l0,1l0,1l0,1l-1,0l0,1c-1,0,-1,0,-2,0l-1,1l-1,0l-1,0l-1,0l-1,0ZM126.5,218.5l-1,1l-1,0l-1,1l-1,0l3,0c1,0,1,0,1,0c1,0,1,0,2,0c1,0,1,0,2,-1l-1,0c0,-1,0,-1,0,-1c0,0,-1,0,-1,0c-1,0,-1,0,-1,0c-1,0,-1,0,-1,0ZM115.5,209.5c1,0,1,0,1,0c0,-1,1,-1,1,-1c1,1,1,1,1,1c0,0,0,1,0,1l-1,1l1,0l0,2l-1,-1l-1,0l0,1c-1,0,-1,0,-1,1l-1,0l-1,0l1,-1l1,0l0,-1l1,0l0,-1c-1,0,-1,0,-1,-1l0,-1ZM117.5,210.5l-1,-1l0,1l1,0l0,1l0,-1ZM224.5,218.5c0,0,0,1,0,1c1,0,1,0,1,0c0,-1,0,-1,0,-1l-1,0ZM224.5,226.5c0,0,-1,0,-1,0c0,1,-1,1,-2,1c0,0,-1,-1,-2,-1l0,-1c0,1,0,1,1,1c0,0,1,0,1,0l1,0c0,-1,0,-1,0,-1c0,0,1,0,1,0c0,0,1,-1,1,-1l1,-1l0,-1c1,0,1,-1,1,-1l0,-1c-1,0,-1,1,-1,1c0,0,-1,0,-1,0l-1,0c0,-1,0,-1,0,-1l0,-1c0,-1,0,-1,0,-1c0,0,0,-1,0,-1c1,0,1,-1,1,-1l1,0c1,0,1,0,1,1l0,1l1,1c0,0,0,1,0,1c0,0,0,1,0,1c-1,1,-1,2,-1,3c0,0,-1,0,-1,1l-1,1ZM221.5,212.5l5,-2l-1,1l-4,2ZM205.5,214.5l-1,-1l1,-2l1,1ZM214.5,219.5l-1,0l-1,0c-1,0,-1,0,-2,0l-1,0c0,0,0,1,-1,1l-1,1c-1,0,-1,0,-1,0c-1,0,-1,0,-2,0c0,1,-1,1,-1,1l-1,0l-1,0l0,1c0,1,-1,1,-1,2l-1,1l0,1c-1,0,-1,0,-1,0c-1,0,-1,0,-1,0c-1,0,-1,1,-1,1l-1,0c0,0,-1,-1,-1,-1c0,0,-1,0,-1,0c0,-1,0,-1,0,-1c0,0,1,1,1,1c1,0,1,0,2,-1c0,0,1,0,1,0c0,0,1,-1,1,-1l1,-1l0,-1c0,0,1,0,1,-1l0,-1c-1,0,-1,0,-1,-1c0,-1,1,-1,1,-1l0,1l1,0l1,0c0,0,1,0,1,0c0,0,1,0,2,0l1,-1l1,0l1,0l-1,-1l-1,0l-1,-1l-1,0l-1,1c0,-1,0,-1,0,-2c1,0,1,0,1,0c0,0,1,0,1,0l1,0l1,0l2,1l1,0l1,1l1,0c0,0,1,0,1,0l1,0ZM202.5,207.5l1,0c0,0,1,0,1,0c1,0,1,0,1,0c1,0,1,0,1,1c0,0,0,1,-1,1l0,1l-1,0c0,0,-1,0,-1,0l-1,0l2,-1c0,0,1,0,1,-1l-1,0c-1,0,-1,0,-2,0l0,1l0,-1l0,-1ZM196.5,209.5l4,-2l0,1l-4,2ZM185.5,225.5l-1,-1l1,-1l1,1ZM193.5,219.5l-1,0l-1,0c-1,0,-1,0,-2,0l-1,0c0,0,0,1,-1,1l-1,0l0,1c-1,0,-1,0,-2,0l-1,0c0,1,-1,1,-2,1l-1,0c-1,0,-1,0,-1,-1c-1,0,-1,0,-1,0c0,0,-1,0,-1,0c-1,1,-2,1,-2,1l-2,1c0,0,-1,0,-1,0l-1,0l-1,0c-2,0,-3,0,-4,0c-1,-1,-2,-1,-2,-2c-1,0,-1,0,-1,-1c0,-1,0,-1,0,-1c0,-1,0,-1,0,-1c0,-1,1,-1,1,-2c0,1,0,1,0,1c0,1,0,1,0,1c0,1,0,1,0,1c0,1,1,1,1,1c1,0,1,1,1,1c1,0,1,0,2,0c0,0,1,0,3,0c0,0,1,0,1,0c1,0,1,0,2,0l1,0c0,-1,0,-1,0,-1c1,0,2,0,3,0c0,-1,1,-1,1,-2c0,1,0,1,0,1l0,1c1,0,1,0,1,0l1,0c0,0,1,0,1,0c0,0,1,0,2,0l1,-1l1,0l1,0l-1,-1l-1,0l-1,-1l-1,0l-1,1c0,-1,0,-1,0,-2c1,0,1,0,1,0c0,0,1,0,1,0l1,0l1,0l2,1l1,0l1,1l1,0c0,0,1,0,1,0l1,0ZM184.5,209.5l4,-2l0,1l-5,2ZM172.5,216.5l-1,0l-1,1l-2,-1l1,-2l2,1l1,-1l1,1ZM169.5,225.5l-4,2c0,0,0,-1,0,-1l4,-2ZM253.5,219.5c0,1,0,2,0,2c0,1,0,1,0,1l-1,1l1,1l-1,0l0,1l-1,0l0,1l-1,0l-1,1l-1,0l-1,0l0,1c0,0,-1,0,-1,0l-1,1l0,1c0,0,-1,0,-1,0l-1,0c0,0,-1,-1,-1,-1l-1,-1l-1,0c-1,-1,-1,-1,-2,-1l-1,-1l-1,0l0,-1l-1,0l0,-1l-1,0l1,-1l-1,-1l0,-1c0,-1,0,-1,0,-1l0,-1l0,-1c0,0,0,-1,0,-2c1,0,1,0,1,0l0,-1l-1,0c0,0,0,-1,1,-1l1,0l0,-1l1,0l0,-1l1,0l1,0l1,-1c1,0,1,0,1,0l0,-1l1,0c0,-1,1,-1,1,-1l1,0l1,1l1,0l0,1l1,0l1,1l1,0c1,0,1,0,1,0l0,1l1,0l0,1c1,0,2,0,2,1l-1,0l0,1l1,0l0,1l0,1ZM244.5,230.5l0,-1l1,0l0,-1l1,0l1,-1l1,0l1,0c0,-1,1,-1,1,-1l1,0l0,-1l1,0l0,-1l1,0l-2,0l0,-1l1,0l0,-1l1,0l0,-1l0,-1l0,-1c0,-1,0,-1,0,-2l-1,0l0,-1l-1,-1l1,0l1,0c-1,-1,-1,-1,-2,-1l0,-1l-1,0l-1,-1l-1,0l-2,-1l-1,-1l0,-1c-1,0,-1,0,-1,0l-1,0l-1,1l-1,1l-2,1l-1,0l-1,1l-1,0l0,1c0,0,-1,0,-2,1l2,0l-1,1l0,1l-1,0l0,1l0,1l0,1l0,1l0,1l1,0l0,1l1,0c0,0,0,1,0,1l-1,0l1,1l1,1l1,1l1,0l1,0c1,0,1,1,2,1l0,1c1,0,1,0,1,1ZM250.5,215.5l-1,0l0,-1l-1,0l-1,-1l-1,0c1,0,1,0,1,0l0,-1l0,1l1,0c1,0,1,0,1,0c0,0,0,1,0,1l1,0ZM250.5,224.5l0,1l-1,0l0,1l-1,0l-1,0l0,-1l1,0c1,0,1,-1,1,-1l1,0ZM246.5,226.5c0,1,-1,1,-1,1c0,0,0,1,-1,1l-1,0c-1,0,-1,-1,-1,-1c0,0,0,-1,0,-1l0,-1l1,0l1,0c1,0,1,0,1,0l0,1l1,0ZM246.5,212.5c0,1,-1,1,-1,1l-1,1l-1,0c-1,0,-1,-1,-1,-1l0,-1l0,-1l1,0l1,0c1,0,1,0,1,0c0,1,0,1,0,1l1,0ZM244.5,215.5c0,0,1,0,1,0c0,-1,1,-1,1,-1c0,0,1,1,1,1c0,0,1,0,1,1l1,0l1,0l0,1l1,0l0,1l0,1l0,1c0,0,0,1,0,1l-1,1c0,1,0,1,0,1l-1,0c0,0,-1,0,-1,0l0,1l-1,0l-1,0l-1,0l-1,0l-1,0l-1,0l-1,0c0,0,-1,0,-1,0c0,0,-1,0,-1,-1l-1,0l-1,0l0,-1l-1,-1l0,-1l0,-1l0,-1l0,-1l1,0l0,-1l2,0l0,-1l1,0c0,0,1,-1,1,-1c0,0,1,0,1,1l1,0ZM244.5,223.5l1,1l1,0c1,0,1,0,1,0l1,-1c0,-1,0,-1,1,-1l1,1l0,-1l0,-1l1,0l0,-1l0,-1c0,0,0,-1,0,-1c-1,-1,-1,-1,-1,-1c0,-1,0,-1,0,-1l-1,0c-1,0,-1,0,-1,0l-1,-1l-1,0c0,0,-1,0,-1,0l-1,0l-1,0l-1,0l-1,0l-1,0l-1,1l-2,0l0,1l0,1l-1,1l0,1l0,1l1,0c0,1,0,1,0,2l2,-1l0,1l1,0l0,1l1,0c1,0,1,0,1,0l1,-1l1,0ZM243.5,218.5l1,0l0,1l0,1l0,1c0,1,0,1,0,1l0,-1c0,-1,-1,-2,-1,-3ZM237.5,215.5l0,-1l1,0l0,-1l1,0l1,0l1,-1l-1,1l1,0c-1,0,-1,0,-1,0l-1,1l-1,0l0,1l-1,0ZM237.5,224.5l1,0c0,0,0,1,1,1l1,0l1,0c-1,0,-1,1,-1,1c-1,0,-2,-1,-2,-1l-1,0l0,-1ZM299.5,214.5l-2,-1l1,-1l2,1ZM292.5,225.5c0,0,1,0,1,0l1,0c1,0,2,0,3,-1l1,-1c0,0,1,-1,1,-1c0,-1,0,-1,1,-1c0,0,0,-1,0,-1l0,-1l-1,0l0,-1l-1,0l1,-1l0,-1l1,1l0,1l0,1l0,1c0,1,0,1,0,2c0,0,0,1,0,1c0,0,-1,1,-1,1c0,0,0,1,-1,1l-1,1c0,0,-1,0,-1,0l-1,0l-1,0c-1,0,-1,0,-1,-1ZM297.5,228.5l-4,2c0,-1,0,-1,0,-1l4,-2ZM288.5,220.5c1,0,1,0,1,0c1,0,1,0,1,0c0,0,1,0,1,0c0,-1,0,-1,0,-1l0,-2l-1,-7c0,-1,0,-1,0,-1c1,-1,1,-1,1,-1c0,1,0,1,0,1c1,0,1,1,1,1l0,1c0,1,0,2,0,2c0,1,0,1,0,3c0,0,0,1,0,1l0,1c0,1,0,1,0,1l0,1c-1,0,-1,1,-1,1l-1,1l-1,0l-1,0l-1,0l0,1c0,1,0,1,-1,2l0,1c0,0,-1,0,-1,1c0,0,-1,0,-1,0l-1,0c0,0,0,1,-1,1c-1,0,-1,-1,-2,-1l-1,0c0,-1,0,-1,1,-1c0,0,0,1,0,1l1,0c0,0,1,0,1,-1c1,0,1,0,2,0c0,0,0,-1,0,-1c1,0,1,0,1,-1c0,0,1,0,1,-1l0,-1c1,0,1,0,1,-1l-1,0l0,-1c0,-1,0,-1,0,-1l1,1l1,0ZM289.5,204.5l0,-1c1,0,1,0,2,0c0,0,1,0,1,1c1,0,1,0,1,0c0,1,-1,1,-1,1c0,1,0,1,-1,1c-1,0,-1,0,-1,0l-1,0l1,0c1,-1,2,-1,2,-1c0,0,-1,0,-1,0l-1,0l-1,0l-1,0c0,0,0,-1,0,-1l1,0ZM286.5,217.5l-1,-1l1,-2l1,1ZM283.5,209.5l4,-2l-1,0l0,1l-4,2ZM279.5,222.5l0,-1l0,-1l-1,-9l1,-2l1,11l0,1c-1,0,-1,1,-1,1ZM271.5,211.5l1,3c0,1,0,1,0,1c1,0,1,0,1,0c0,1,1,1,1,2c0,0,1,0,1,1c0,1,0,1,0,1c0,0,0,1,0,1l0,1c0,0,-1,0,-1,0c0,0,-1,0,-2,0c0,0,-1,0,-1,0l-1,-1c0,1,0,1,0,1c-1,0,-1,0,-1,0c-1,0,-1,1,-1,1c-1,0,-1,0,-1,0c0,0,-1,0,-1,0l-2,0c0,0,-1,0,-2,-1c0,0,0,-1,0,-2l-1,-8l1,-2l1,9l0,1l0,1c0,0,1,0,1,0l2,0c0,0,1,0,1,0l1,0l1,0c-1,-1,-1,-1,-1,-1c0,0,0,-1,0,-1c0,0,1,0,1,-1c0,-1,0,-1,0,-1c1,0,1,-1,1,-1c0,0,1,0,1,-1l-1,-4c0,0,0,-1,0,-1c0,0,0,-1,0,-1c0,0,1,0,1,-1l0,1c0,1,1,1,1,1c0,0,0,1,0,1l0,1ZM271.5,203.5l4,-3l0,1l0,1l-4,2ZM271.5,217.5c-1,0,-1,0,-1,0l-1,1l1,0c0,1,0,1,0,1c1,0,1,0,1,0c0,-1,0,-1,0,-1c0,0,0,-1,0,-1ZM272.5,217.5c0,1,0,1,0,1l0,1l2,1c0,-1,0,-1,0,-1c0,0,0,-1,-1,-1c0,-1,-1,-1,-1,-1ZM265.5,209.5l4,-2l0,1l-4,2ZM353.5,222.5l0,-1l0,-1l-1,-9l1,-2l1,11l-1,0l0,1c0,0,0,1,0,1ZM337.5,204.5l4,-3l0,1l0,1l-4,2ZM347.5,204.5c0,0,1,0,1,0c0,-1,1,-1,1,-1c0,0,1,0,1,1c0,0,1,0,1,0l-1,0c0,1,0,1,0,1l0,1l-1,0c-1,0,-1,0,-1,0c-1,0,-1,0,-1,0l2,-1c0,0,1,0,1,0c-1,-1,-1,-1,-1,-1c-1,0,-1,0,-1,1c-1,0,-1,0,-1,0l0,-1ZM328.5,225.5l1,0c1,0,2,0,3,-1c0,0,1,0,1,-1c1,0,1,-1,1,-1c0,-1,1,-1,1,-1c0,0,0,-1,0,-1l0,-1l-1,0l0,-1l0,-1l0,-1l1,1l0,1l0,1l1,1c0,1,-1,1,-1,2c0,0,0,1,0,1c0,0,-1,1,-1,1c0,0,0,1,0,1c-1,0,-1,0,-1,0l-1,1l-1,0l-1,0c0,0,-1,0,-1,0c-1,0,-1,0,-1,-1ZM329.5,211.5c1,0,1,0,1,0c1,0,1,-1,2,-1c0,0,1,1,1,1c1,0,1,0,1,0l0,1c0,0,-1,0,-1,1l-1,0c-1,0,-1,0,-1,0l-1,0l1,0c1,0,2,-1,2,-1c0,0,-1,0,-1,0l-1,0c0,0,-1,0,-1,0l-1,0l0,-1ZM320.5,215.5l-1,-1l1,-2l1,1ZM318.5,222.5l0,1c0,0,0,1,0,1c-1,0,-1,0,-1,0l0,-1l0,-1l-1,0l0,1c0,1,0,1,0,1c0,1,0,1,0,1c-1,1,-1,1,-1,2c0,0,-1,0,-1,1c0,0,-1,0,-1,0c-1,0,-1,1,-2,1c-1,0,-1,0,-1,0c-1,0,-2,0,-2,0c-1,-1,-1,-1,-2,-1c0,-1,0,-1,0,-1c-1,-1,-1,-1,-1,-2c0,-1,0,-1,0,-1l0,-1c0,0,1,0,1,0c0,-1,0,-2,1,-2l0,1c0,0,-1,0,-1,1c0,0,0,1,0,1c0,0,0,1,0,1c1,1,1,1,1,1c1,1,1,1,2,1c1,0,1,0,1,0c1,0,1,0,2,0c0,0,1,0,1,-1c1,0,1,0,2,-1c0,0,0,-1,0,-2c0,0,0,-1,0,-1c0,-1,0,-1,0,-1l0,-2l1,1l1,0l1,0l1,-1l2,-1l1,-1l1,0c0,0,1,-1,1,-1c0,0,1,0,1,0c0,0,1,0,1,0l1,0c0,1,0,1,0,1l1,0l0,1l0,1c0,0,-1,0,-1,1l0,1c-1,0,-1,0,-2,0l-1,1c0,0,-1,0,-1,0l-2,0l-1,0ZM323.5,218.5c0,0,-1,0,-1,0l0,1l-1,0l-1,1l-1,0l3,0c0,0,1,0,1,0c1,0,1,0,2,0c0,0,1,0,1,-1c0,-1,0,-1,0,-1l-1,0l-1,0l-1,0ZM312.5,209.5c0,0,1,0,1,0c0,-1,0,-1,1,-1c0,1,0,1,0,1c0,0,0,1,0,1l0,1l1,0l-1,2l-1,-1l-1,1l0,1l-1,0l-1,0l1,-1c0,0,1,0,1,-1l1,0l-1,-1l0,-1l0,-1ZM313.5,210.5l0,-1l0,1l0,1l0,-1ZM400.5,214.5l-1,-1l1,-1l1,1ZM394.5,225.5c0,0,1,0,1,0l1,0c1,0,1,0,2,-1c1,0,1,0,2,-1c0,0,1,-1,1,-1c0,-1,0,-1,0,-1c0,0,0,-1,0,-1l0,-1l-1,-1l1,-1l0,-1l0,1c1,0,1,0,1,1l0,1l0,1c0,1,0,1,0,2c0,0,0,1,-1,1c0,0,0,1,0,1c0,0,-1,1,-1,1l-1,0l0,1c-1,0,-1,0,-1,0c0,0,-1,0,-1,0l-1,0l-1,0l-1,-1ZM399.5,206.5c0,0,0,-1,1,-1l1,0l0,1l0,1l0,1l0,1l-1,0l-1,0c0,1,0,1,-1,1l-1,0l1,-1l1,0l0,-1l1,0l-1,0c0,0,0,-1,0,-1c0,0,0,-1,0,-1ZM400.5,206.5l-1,0c0,0,1,0,1,1c0,0,0,-1,0,-1ZM390.5,220.5c0,0,1,0,1,0c0,0,1,0,1,0l1,0c0,-1,0,-1,0,-1l0,-2l-1,-7c0,-1,0,-1,0,-1c0,-1,1,-1,1,-1c0,1,0,1,0,1c0,0,1,1,1,1l0,1l-1,0c0,1,0,2,0,2c0,1,0,1,1,3c0,0,0,1,0,1l0,1c0,1,0,1,0,1l-1,1c0,0,0,1,0,1c-1,0,-1,0,-1,1l-1,0l-1,0c-1,0,-1,0,-1,0l0,1c0,1,-1,1,-1,2l0,1c-1,0,-1,0,-1,1c0,0,-1,0,-1,0c0,0,-1,0,-1,0c0,0,-1,1,-1,1c-1,0,-1,-1,-2,-1c0,0,-1,0,-1,0c0,-1,0,-1,0,-1c0,0,1,1,1,1l1,0c0,0,1,0,1,-1c0,0,1,0,1,0c1,0,1,-1,1,-1c0,0,1,0,1,-1l0,-1c1,0,1,0,1,-1l0,-1c0,0,-1,0,-1,-1l1,0c0,-1,0,-1,0,-1l0,1l1,0l1,0ZM390.5,204.5c0,0,1,0,1,-1c1,0,1,0,2,0c0,0,1,0,1,1c0,1,0,1,0,1c0,1,-1,1,-1,1l-1,0l-1,0l-1,0l2,0c1,-1,1,-1,2,-1c-1,0,-1,0,-1,0c0,0,-1,0,-1,0c0,0,-1,0,-1,0c0,0,-1,0,-1,0c0,0,0,-1,0,-1ZM388.5,217.5l-2,-1l1,-2l2,1ZM388.5,232.5l-4,2c0,0,0,-1,0,-1l5,-2ZM378.5,220.5l1,0c1,0,1,0,1,0c0,-1,0,-1,0,-1l0,-2l0,-7l-1,0c0,-1,1,-1,1,-1c0,-1,0,-1,0,-1c0,1,0,1,0,1l1,0c0,0,0,1,1,1c-1,0,-1,0,-1,1c0,1,0,2,0,2c0,1,0,1,0,3c0,0,0,1,0,1l0,1c0,1,0,1,0,1l0,1c0,0,0,1,-1,1l0,1c-1,0,-1,0,-1,0c0,0,-1,0,-1,0l-1,0c-1,0,-1,0,-1,-1c-1,0,-1,0,-1,0c0,0,-1,0,-1,0c-1,1,-2,1,-2,1l-2,1l-1,0l-1,0l-1,0c-2,0,-3,0,-4,0c-1,-1,-2,-1,-2,-2c-1,0,-1,0,-1,-1c0,-1,0,-1,0,-1c0,-1,0,-1,0,-1c0,-1,1,-1,1,-2c0,1,0,1,0,1c0,1,0,1,0,1c0,1,0,1,0,1c0,1,1,1,2,1c0,0,0,1,0,1c1,0,1,0,2,0c0,0,1,0,3,0c0,0,1,0,1,0c1,0,1,0,2,0l1,0c0,-1,0,-1,0,-1c1,0,2,0,3,0c0,-1,1,-1,1,-2c0,1,0,1,0,1l0,1c1,0,1,0,1,0ZM378.5,206.5l5,-2l-1,0c0,0,0,1,0,1l-4,2ZM369.5,216.5l-1,0l-1,1l-1,-1l0,-2l2,1l1,-1l1,1ZM366.5,225.5l-4,2c0,0,0,-1,0,-1l5,-2ZM412.5,211.5l-1,0l1,-2l1,1ZM416.5,221.5l-1,1c0,0,-1,0,-2,0l-1,0l-1,0l-1,0l0,-1l0,-1c0,0,1,0,1,0l1,0c0,0,1,0,1,0c1,0,1,0,1,0c1,0,1,0,1,0c0,0,1,0,1,-1l0,-1c0,0,-1,0,-1,-1l-1,0l0,-1l-1,0l-1,0l1,-2l1,0c1,1,1,1,1,1c1,1,1,1,1,2c0,0,1,0,1,1l0,1c0,1,0,1,0,1c0,0,0,1,-1,1ZM410.5,206.5l4,-2l0,1l-4,2ZM406.5,222.5l0,-1l0,-1l0,-8l1,-3l0,11c0,1,0,1,0,1c0,1,0,1,-1,1ZM218.5,170.5c0,0,1,-1,1,-1l0,-1l0,-1l0,-2l0,-1l1,0l-1,1l0,1l0,1l0,1l0,1l1,-1l1,0c0,0,0,-1,1,-1l1,1l0,1c0,0,0,1,-1,1c0,0,-1,0,-1,0c-1,0,-1,0,-1,0ZM221.5,168.5l0,1l-1,0l-1,1l1,0c0,-1,0,-1,1,-1c1,0,1,0,2,0c0,0,-1,0,-1,0c0,-1,0,-1,0,-1ZM212.5,175.5l0,-2l0,-1l-1,-8l1,-3l1,11c0,0,0,1,0,1c-1,1,-1,1,-1,2ZM215.5,177.5l-4,2c0,-1,0,-1,0,-1l4,-2ZM365.5,161.5c0,0,1,0,1,0c1,0,1,0,2,0c0,0,1,0,1,0c0,1,0,1,0,1l0,1c0,0,-1,0,-1,0l-1,1l-1,0l-1,0l2,-1c1,0,1,0,2,-1c-1,0,-1,0,-1,0c0,0,-1,0,-1,0c0,0,-1,0,-1,0c0,0,-1,0,-1,0c0,-1,0,-1,0,-1ZM118.5,163.5c0,-1,1,-1,1,-1c1,0,1,0,2,0c0,0,1,0,1,0c0,0,0,1,0,1c0,1,0,1,0,1c0,0,-1,1,-1,1l-1,0l-1,0l-1,0l2,-1c1,0,1,0,2,0c-1,-1,-1,-1,-1,-1c0,0,-1,0,-1,0c0,0,-1,0,-1,0c0,1,-1,1,-1,1c0,-1,0,-1,0,-1ZM79.5,162.5c0,0,0,-1,1,-1c0,0,1,0,1,0c0,0,1,0,1,0c1,0,1,1,1,1c0,1,0,1,-1,1c0,0,0,1,0,1c0,0,-1,0,-1,0c-1,0,-1,0,-1,0l-1,0l2,0c0,-1,1,-1,1,-1c0,0,0,-1,-1,-1c-1,0,-1,0,-2,1l-1,0c0,-1,0,-1,1,-1ZM161.5,159.5l0,-1c0,0,0,-1,0,-1c0,-1,0,-2,0,-2l0,-1l1,1c0,0,0,1,0,1l0,1c0,0,0,1,0,1l-1,1ZM160.5,161.5l0,1c0,0,1,0,1,0l1,-1l0,-1l0,1l1,0l1,-1l0,-1l0,1l0,1l0,1l-1,1c-1,0,-1,0,-1,-1l0,1c-1,0,-1,1,-1,1c-1,0,-1,-1,-1,-1l0,-1l0,-1ZM61.5,173.5c0,1,0,2,0,2l0,1l-1,0c0,1,0,1,0,1l1,0l0,1l-1,0l0,1c0,0,-1,0,-1,0l0,1c-1,0,-1,0,-2,0l0,1l-1,0l-1,0l-1,0l0,1l-1,0l0,1l-1,0l-3,0l-1,0l-1,0l-1,0l0,-1c-1,-1,-1,-1,-1,-1c-1,0,-2,0,-3,-1l-1,0l0,-1l-1,0l-1,-1l-1,0l0,-1l2,0l-1,0l0,-1l-1,-1l0,-1l0,-1l0,-1l0,-1l1,-1l0,-1l1,0l-2,-1c0,0,1,0,1,0l0,-1l1,0l1,-1l1,0l1,-1l2,0l0,-1l1,0l0,-1c1,0,1,0,1,-1l1,0l1,0l3,0l1,0l0,1l1,1l1,1l2,0l0,1l1,0l1,0l0,1l1,0c0,0,1,1,1,1l-1,1l1,0l0,1l0,1l0,1ZM52.5,183.5l1,0l0,-1l1,0l0,-1l1,0c0,0,1,0,1,0l0,-1l1,0c1,0,1,0,1,-1l1,0c0,0,0,-1,1,-1l1,0l0,-1l-1,0l0,-1l1,0l0,-1l0,-1l0,-1c0,-1,0,-2,0,-2c0,0,0,-1,0,-1l-1,0c0,0,0,-1,0,-1l1,-1c-1,0,-1,0,-2,-1l-1,-1l-1,0l-1,-1l-1,0c-1,0,-1,0,-1,-1l-1,-1l-1,0l-3,0l-1,0l-1,0l-1,0l0,1c-1,1,-1,1,-1,1l-2,0l-1,1l-1,0l0,1l-1,0c0,0,-1,1,-1,1l1,1l-1,0l0,1l0,1l-1,1c0,0,0,1,0,1l0,1l1,0l0,1l0,1l1,0l0,1l-1,0l0,1l1,0l0,1l1,0l1,1l1,0l1,0l1,1l1,0l0,1l1,0c0,1,0,1,0,1l1,0l1,0ZM58.5,168.5l-1,0l-1,-1c-1,0,-1,0,-1,0c0,-1,0,-1,0,-1l1,0c0,1,1,1,1,1l1,1ZM58.5,178.5l0,1l-1,0l-1,0l0,1l-1,0l0,-1c0,0,1,0,1,0l0,-1c1,0,1,0,1,-1l1,1ZM54.5,180.5l-1,1l-1,0l-3,0l-1,0l-1,0c0,0,-1,0,-1,0l0,-1c0,0,0,-1,0,-1l1,0l1,0l1,0l3,0l1,0l1,0l0,1ZM54.5,166.5c0,0,0,1,-1,1l-1,0l-3,0l-1,0l-1,0c0,0,-1,0,-1,0l0,-1c0,0,0,-1,0,-1l1,0l1,0l1,0l3,0l1,0c0,0,1,0,1,0l0,1ZM52.5,169.5l1,-1c0,0,1,0,1,0c1,0,1,0,1,0c0,0,1,1,1,1l1,1l1,-1l0,1l1,0l0,1l0,1l0,1l0,1l0,1c0,1,-1,1,-1,1l0,1l-1,-1l0,1l-1,0l-1,0l0,1l-1,0c0,0,-1,0,-1,0c0,0,0,-1,0,-1l-1,0l-3,0l-1,0l-1,0l-1,1l-1,0c0,0,-1,0,-1,0c0,-1,0,-1,-1,-1l0,-1l-1,1l0,-1l-1,0l0,-1l0,-1l-1,0l0,-1c0,-1,0,-1,0,-1c0,0,1,-1,1,-1l0,-1c0,-1,1,-1,1,-1l1,1c0,0,0,-1,0,-1l1,0l0,-1c1,0,1,0,1,0c1,0,1,0,1,0l1,0l0,1l1,0l1,0ZM53.5,177.5c0,0,1,0,1,0l1,0l1,0l0,-1c1,0,1,0,1,0l1,0l0,-1l1,-1l0,-1c0,-1,0,-1,0,-2c0,0,-1,-1,-1,-1l-1,0l-1,0l0,-1l-1,-1l-1,0l-1,0c0,1,0,1,0,1l-4,0l-1,0l-1,0l-1,-1l-1,0c0,0,-1,0,-1,1l-1,0c0,1,0,1,0,1l-1,0l-1,0l0,1l0,1l0,1l0,1l0,1c0,1,0,1,1,1l1,0l1,1l1,0c1,0,1,0,1,0c1,0,1,0,1,0l1,0l1,0l3,0l1,0ZM50.5,175.5l0,-1l0,-1l-1,0l0,-1l0,-1l1,1l0,1l0,1l1,0l0,-1l0,-1c1,0,1,-1,1,-1l0,1c0,0,0,1,-1,1l0,1l0,1l-1,0ZM48.5,171.5l0,1c0,1,0,1,0,1l0,1l0,1l0,-1c0,0,0,-1,-1,-2ZM41.5,168.5l1,0l0,-1l1,0l1,-1l1,0l0,1c-1,0,-1,0,-1,0c0,0,-1,0,-1,0l0,1l-1,0ZM41.5,178.5l1,0l0,-1c0,1,1,1,1,1l0,1l1,0l1,0c0,0,0,1,0,1l-1,0c-1,-1,-2,-1,-2,-1l0,-1l-1,0ZM94.5,173.5c1,0,1,0,2,-1c1,0,1,0,2,-1l0,1l0,1c-1,0,-1,0,-2,1c-1,0,-1,0,-2,1c-2,0,-3,0,-4,0c-1,0,-1,0,-2,0c0,0,0,-1,-1,-2c0,1,0,2,0,2c-1,0,-1,0,-1,0l-1,0c0,0,-1,0,-1,0c0,0,-1,0,-1,0l0,-1c0,0,-1,1,-1,1c-1,0,-1,0,-2,0l-1,0c0,0,-1,0,-1,0c0,0,-1,0,-1,0c0,0,0,1,-1,1c0,0,-1,0,-1,0c-1,-1,-2,-1,-2,-1l0,1c-1,0,-1,1,-2,1c0,1,-1,1,-2,1c-1,0,-2,0,-3,0l4,-2l1,0c1,-1,1,-1,2,-1l0,-2c1,-1,1,-1,1,-1c0,0,1,-1,1,-1l1,0l1,1c0,1,1,1,1,1c0,0,0,1,1,1l1,0c0,0,1,0,1,0c0,0,1,-1,1,-1c1,-1,1,-1,1,-1c0,1,0,1,0,1l1,1c0,0,1,0,1,0c0,0,1,0,1,0c0,0,1,-1,1,-1l0,-1c0,-1,0,-1,0,-1c0,0,0,-1,0,-1l0,-6l1,-3l0,11c0,0,0,1,0,1l1,0c0,0,0,1,0,1l1,0l1,0c0,-1,0,-1,0,-1c0,0,-1,0,-1,-1l0,-1l0,-1c1,0,1,0,1,0c0,-1,0,-1,0,-1c0,-1,1,-1,1,-1l1,0c0,0,0,-1,1,-1c0,0,1,1,1,1c1,0,1,0,1,0c0,0,0,1,0,1c0,0,1,0,1,0l-1,0l-1,0l-1,0l-1,0c-1,0,-1,0,-1,0c0,1,0,1,-1,1c0,0,0,1,0,1c1,0,1,0,1,1c0,0,1,0,1,0c0,1,1,1,1,1ZM91.5,162.5l4,-2l0,1l-5,2ZM88.5,182.5l-4,1l1,-1l3,-1ZM84.5,179.5l-1,-1l-1,1l-2,-1l1,-1l2,1l0,-2l2,1ZM76.5,174.5l0,-1c-1,0,-1,0,-1,0c-1,0,-1,0,-1,0c0,0,0,1,1,1ZM137.5,174.5l-1,1l-1,0c-1,0,-1,0,-1,0l-1,0c-1,0,-1,0,-2,0l0,-1c-1,1,-1,2,-1,2l-1,0l-1,0l-1,-1l-1,-1l-1,1c0,0,-1,0,-1,0l-1,0l-1,0c-1,0,-1,0,-1,0c0,0,-1,0,-1,0l0,-1c0,0,-1,0,-1,0c0,0,-1,0,-1,1l-1,0l-1,0l-1,0c0,0,-1,0,-1,0c-1,0,-1,0,-1,0c0,0,-1,-1,-1,-1c0,0,-1,0,-1,0c0,-1,0,-1,0,-1c-1,0,-2,1,-2,1l0,1c-1,0,-1,0,-1,0c-1,1,-1,1,-1,2c0,1,-1,1,-1,2c0,0,0,1,0,1c1,0,1,0,1,0c0,1,0,2,1,2c0,1,0,1,0,1l1,0c0,0,1,0,1,0l0,1l1,0l1,0l1,0c0,0,1,0,1,0c1,0,1,0,2,0l1,0l1,0l-3,2c-1,0,-2,0,-2,0c-1,0,-1,0,-2,0c0,0,-1,0,-1,-1c-1,0,-1,0,-2,0c0,0,-1,-1,-1,-1c-1,-1,-1,-1,-1,-2c0,0,0,-1,-1,-1l0,-1c0,-1,0,-2,1,-3c0,-1,0,-1,0,-1c1,-1,1,-1,1,-1c1,-1,1,-1,1,-1c0,-1,1,-1,1,-1l1,-1l-1,0c0,0,0,-1,-1,-1l1,-2l1,0l1,0c0,0,1,0,1,0c1,0,1,0,1,1l0,1c0,0,0,1,0,1l-1,0c0,1,0,1,0,1l1,0l1,0l0,1c1,0,1,0,1,0l1,0c1,0,1,0,1,0c1,0,1,-1,1,-1c1,0,1,0,1,0l1,0l1,1l1,0l1,0l1,0c0,0,1,0,1,0l0,-1c0,0,1,0,1,-1c1,-1,2,-2,3,-2l0,1l1,1l1,1c1,0,1,1,1,1l1,0l1,0c1,0,1,0,1,0c1,-1,1,-1,1,-1c1,0,1,-1,1,-1l0,1l1,0l0,1l1,0l1,0c0,0,0,-1,0,-1l1,0l0,-1l1,-1l0,1l0,1l1,1l1,0l0,-1l-1,0l1,-2l0,1l1,1l0,1l-1,0c0,1,0,1,0,1l-1,0c0,0,-1,0,-1,0l-1,0l0,-1l0,1l-1,0l-1,0l-1,0l-1,0c0,0,0,-1,0,-1ZM137.5,162.5l4,-2l0,1l-4,2ZM130.5,174.5l-1,-1c0,0,0,-1,0,-1c-1,0,-1,0,-1,0l-1,1c0,0,1,0,1,0l1,1ZM127.5,179.5l-4,2c0,-1,1,-1,1,-1l4,-2ZM120.5,179.5l-1,-1l-1,1l-1,-1l1,-1l1,1l1,-2l1,1ZM72.5,158.5l0,1l-1,0c0,0,0,1,0,1l0,1c0,0,0,1,0,1l0,-1l0,-1l0,-1c0,-1,0,-1,0,-1c1,0,1,-1,2,-1l1,0l0,-1ZM72.5,160.5c1,-1,1,-1,1,-1c0,0,1,0,1,0c1,0,1,0,1,1l0,1l-1,0l1,1l0,1l-1,-1l-1,1c-1,1,-1,1,-1,1l-1,0l-1,0l1,0l1,-1l1,-1c-1,-1,-1,-1,-1,-1l0,-1ZM74.5,160.5l-1,0l0,1l1,0l0,-1ZM112.5,157.5l-1,0l0,1l0,1c0,1,0,1,0,1l0,1l0,-1l-1,0l0,-1l0,-1l0,-1c1,0,1,0,1,-1c0,0,1,0,1,0l1,-1l1,0ZM112.5,158.5l1,-1l1,0c0,0,0,1,0,1c0,0,0,1,0,1l0,1l0,1l-1,0l-1,1l-1,0l0,1l-1,0l0,-1l1,0c0,0,1,0,1,-1l1,0l-1,-1l0,-1l0,-1ZM113.5,159.5l0,-1l0,1ZM170.5,175.5l0,-1l0,-1l-1,-8l1,-3l1,11l0,1c0,0,-1,0,-1,0c0,1,0,1,0,1ZM165.5,175.5c-1,0,-1,0,-2,0c0,-1,-1,-1,-1,-2c0,0,0,1,0,2c-1,0,-1,0,-2,0c-1,0,-1,0,-2,0c0,-1,0,-1,-1,-3l0,1c0,1,0,1,0,1c-1,0,-1,0,-2,0c-1,0,-1,0,-1,0c-1,0,-1,0,-1,0c0,-1,0,-1,0,-1c0,0,0,-1,0,-1c1,0,1,-1,1,-1c1,0,1,0,2,-1l1,0l0,-1l0,-1c1,0,1,-1,1,-1l0,1l0,1l0,3l0,1c1,0,1,0,1,0c0,0,1,0,1,0c0,0,1,0,1,0c0,0,1,-1,1,-1c0,0,0,-1,0,-2c0,-1,0,-1,-1,-2l0,-1l1,-1l0,-1l0,3l1,2l0,1c0,0,0,1,0,1c0,1,1,1,1,1l1,0c0,0,1,0,1,0l0,-1l0,-1l-1,-1l0,-1l0,-2l0,-1l0,-1c1,1,1,1,1,2l0,1l0,2c1,1,1,1,1,2c0,0,-1,1,-1,1c0,1,0,1,0,2c-1,0,-1,0,-1,0ZM157.5,170.5l0,1c0,0,-1,0,-1,0c-1,1,-1,1,-1,1c0,0,1,0,2,0ZM195.5,174.5l-1,-1l1,-2l1,1ZM208.5,176.5l0,1c-1,0,-1,0,-1,0c0,0,-1,1,-1,1c0,0,-1,0,-1,0c-1,0,-1,1,-2,1c-1,0,-2,0,-3,1c-1,0,-1,0,-2,0c-1,0,-2,0,-3,0c0,0,-1,0,-1,0l-1,0c0,0,-1,0,-2,0c0,0,-1,0,-1,0c-1,0,-2,0,-3,0c-1,-1,-1,-1,-2,-1c-2,-1,-3,-1,-3,-2c-1,0,-2,-1,-3,-2l-1,0c0,-1,0,-1,1,-1c0,1,0,1,0,1c1,0,1,0,2,1c0,0,1,0,2,1c0,0,1,0,1,0c1,0,1,0,2,1c1,0,1,0,2,0c1,0,1,0,2,0c1,0,1,0,2,1c0,0,1,0,2,0c0,0,1,0,1,0c1,-1,2,-1,2,-1c1,0,2,0,3,0c1,0,2,0,3,-1c1,0,1,0,2,0c2,-1,3,-2,3,-2c0,0,0,-1,0,-1l-1,0l0,-1c0,0,0,-1,0,-1c0,0,-1,0,-1,0l0,-1l1,-1l1,1l0,1c0,1,0,1,0,1c0,1,0,1,0,1l0,1l0,1ZM194.5,160.5l0,1l1,0c0,1,0,1,0,1l0,-1l1,0l0,-1l0,1c0,0,1,0,1,0l0,-1l0,-1l1,0l0,1l0,1c-1,1,-1,1,-1,1l-1,0c-1,1,-1,1,-1,1c0,0,-1,0,-1,-1l0,-1ZM199.5,158.5l-6,2c0,0,1,-1,1,-1l5,-3ZM264.5,173.5l-2,0c-1,0,-1,0,-2,0l-1,0l-1,0l0,1l-1,0c-1,0,-1,0,-1,1c-1,0,-1,0,-1,0c-1,0,-2,0,-3,0l-1,0l-1,0c0,0,0,-1,0,-1c-1,0,-1,0,-1,-1l0,1l-1,1l-1,0c-1,0,-1,0,-1,-1l-1,1c0,0,-1,0,-1,0l-1,0c0,0,-1,0,-1,-1l-1,1c0,0,-1,0,-2,0l-1,0c0,0,-1,0,-1,0c-1,0,-1,0,-1,0l0,-1l-1,0l0,1c-1,0,-1,0,-2,0l-1,0l-2,0c0,0,-1,0,-1,0c-1,-1,-1,-1,-1,-2l-1,-9l1,-2l1,10l0,1c0,1,1,1,1,1l2,0c0,0,1,0,1,0c1,0,1,-1,2,-1c1,0,1,0,1,0c1,0,1,0,1,1c0,0,1,0,1,0l1,0l1,0l1,0l0,-1c0,0,1,0,1,-1c0,0,0,1,1,1c0,0,0,1,0,1c1,0,1,0,2,-1l1,-1c0,0,0,1,1,1l1,0c0,0,1,0,1,-1l1,0c0,1,1,2,1,2l1,0c1,0,1,0,1,0c1,0,1,0,2,-1c0,0,1,0,1,0l2,-1l-1,0l-1,-1l-1,0l-1,0l-1,0c0,0,0,-1,1,-1l0,-1c1,0,1,0,1,0c0,0,1,0,1,0l1,1l2,1l1,0c0,0,1,0,1,0c0,0,1,0,1,0c0,0,1,0,1,0l1,0ZM255.5,162.5l4,-2l0,1l-4,2ZM245.5,162.5l4,-2l0,1l-1,0l-4,2ZM235.5,171.5l-1,-1l0,-1l2,1ZM236.5,163.5l-5,2l1,-1l5,-3c0,1,0,1,-1,1c0,0,0,1,0,1ZM231.5,163.5l1,-1l5,-3c-1,1,-1,1,-1,2ZM298.5,179.5l-1,-1l0,-1l2,1ZM295.5,175.5l-1,0c-1,0,-2,0,-2,0c-1,-1,-1,-1,-1,-2c0,-1,0,-1,0,-1c0,-1,0,-1,0,-2c0,1,0,1,0,1c0,1,0,1,-1,1c0,1,0,1,0,1l0,1l-1,0c0,1,0,1,0,1c0,0,-1,1,-1,1c0,0,-1,0,-1,0c-1,0,-1,1,-2,1c0,0,-1,0,-2,0l1,-1c1,0,1,0,1,0c1,0,1,-1,2,-1c0,0,1,-1,1,-1c0,0,1,0,1,-1c0,0,-1,0,-1,0c0,-1,0,-1,0,-1c-1,-1,-1,-1,-1,-1c0,-1,-1,-1,-1,-1c0,-1,-1,-1,-1,-1c0,-1,-1,-1,-1,-1c-1,0,-1,0,-1,0c-1,0,-1,0,-1,-1l0,-1c-1,0,-1,0,-1,-1l1,-1c1,0,1,1,2,1c0,1,1,1,1,2c1,0,1,1,2,1c0,1,1,1,1,2c0,1,1,1,1,1c0,1,0,1,0,2c0,-1,1,-1,1,-1c0,0,0,-1,0,-1c0,0,0,-1,0,-1c0,-1,1,-1,1,-2l0,-4l0,-2l1,10c0,0,0,1,0,1c1,1,1,1,2,1l1,0c1,0,1,0,2,0c1,-1,1,-1,1,-1l0,-1c0,0,0,-1,0,-1l-1,0l1,-2l0,1l1,0l0,1l0,1l0,1c0,0,0,1,0,1c0,0,-1,0,-1,0c0,1,0,1,-1,1c-1,0,-1,0,-2,0ZM295.5,162.5l5,-2l-1,1l-4,2ZM289.5,160.5l4,-2l0,1l-4,2ZM286.5,161.5c-1,0,-2,0,-3,0l-1,0c-1,0,-1,0,-1,0c0,1,-1,1,-1,1l0,-1l1,-1c1,0,1,0,2,0l1,0l1,0l1,0l1,0ZM274.5,173.5l0,-1c0,0,1,0,1,-1l1,0l1,0l0,1l0,1l-1,0l-1,0l-1,0l1,1l1,0l1,0c0,0,1,0,1,0l0,1l-5,2c0,-1,0,-1,0,-1l1,-1l1,0c-1,0,-1,0,-1,0c0,-1,-1,-1,-1,-1c0,-1,1,-1,1,-1ZM276.5,166.5l-5,3l0,-1l5,-3c0,0,0,1,0,1ZM271.5,167.5l0,-1l5,-3c0,1,0,1,0,1ZM327.5,175.5l-1,0l-1,0l0,-1l-1,0l-1,0c0,1,0,1,0,1l-1,0l-1,0l-1,0l-1,0l-1,0l0,-1c0,0,-1,0,-1,0l0,1c-1,0,-1,0,-1,0c-1,0,-1,0,-1,0l-1,0c-1,0,-1,0,-1,0c-1,0,-1,0,-1,0c0,0,-1,-1,-1,-1c0,-1,0,-1,0,-1c-1,0,-1,0,-1,0c0,1,0,1,0,1l-1,0c-1,0,-1,0,-2,0l0,-2c0,0,0,-1,1,-1c0,0,1,-1,1,-1c1,-1,1,-1,1,-1l0,-1l1,0l0,-1l0,1c0,0,0,1,0,1c0,1,1,1,1,1l0,2c0,1,0,1,0,1c1,1,1,1,1,1c0,0,1,0,1,0c1,0,1,0,1,0c1,0,1,-1,2,-1l1,0c1,0,1,0,1,0l0,1c0,0,1,0,1,0l1,0l1,0c0,0,1,0,1,0l0,-1l1,-1c0,0,1,-1,1,-1l0,-1c0,0,1,0,1,0c0,0,1,0,1,1l0,1l1,1c0,1,0,1,0,1l-1,0c0,0,0,1,0,1ZM325.5,173.5l1,0c0,-1,0,-1,0,-1c-1,0,-1,0,-1,0c0,0,0,1,0,1ZM326.5,179.5l-4,2c0,-1,0,-1,0,-1l4,-2ZM317.5,171.5l-1,-1l1,-1l1,1ZM314.5,161.5c0,0,1,0,1,0c1,0,1,-1,2,-1c0,0,1,1,1,1l0,1l0,1c0,0,-1,0,-1,0l-1,0l-1,0l-1,0l2,0c1,0,1,-1,2,-1c-1,0,-1,0,-1,0c0,0,-1,0,-1,0c0,0,-1,0,-1,0c0,0,-1,0,-1,0l0,-1ZM311.5,170.5l-1,0l-1,1c0,0,-1,1,-1,1l1,0l1,0l1,0l0,-1ZM308.5,160.5c0,-1,0,-1,0,-1c1,-1,1,-1,1,-1c0,0,1,0,1,1c0,1,0,1,0,1l0,1l0,1l0,1l-1,-1l-1,1c0,0,-1,1,-1,1l-1,0l1,-1l1,0l0,-1l0,-1l0,-1ZM309.5,160.5c-1,0,-1,0,-1,0l1,0l0,1l0,-1ZM415.5,175.5l0,-1l0,-1l-1,-8l1,-3l1,11l0,1c0,0,-1,0,-1,0c0,1,0,1,0,1ZM407.5,174.5c0,0,1,0,1,0l1,0c0,-1,0,-1,0,-1c1,0,1,0,1,-1l0,-2l-1,-6l0,-1l0,-1l1,0c0,0,0,1,0,1l1,0c0,1,0,1,0,1c0,1,-1,1,-1,1c0,0,0,1,0,2c0,0,0,1,0,3l1,1l0,1c0,0,-1,1,-1,1c0,0,0,1,0,1c0,0,0,1,-1,1c0,0,-1,0,-1,0l-1,0l-1,0c-1,0,-1,0,-2,0l0,-1c0,1,-1,2,-1,2c-1,0,-1,0,-2,0l-1,-1l-1,-1l-1,1c0,0,-1,0,-1,0l-1,0l-1,0l-1,0c0,1,0,1,0,2l-1,1c0,0,0,1,0,1c-1,0,-1,0,-1,1c0,0,-1,0,-1,0c0,0,0,1,-1,1c-1,0,-1,0,-1,0l-1,0c0,0,-1,0,-1,-1c0,0,-1,0,-1,0c0,0,1,0,1,0c1,0,1,0,2,0c0,0,1,-1,1,-1c0,0,1,0,1,-1c0,0,1,0,1,0c0,-1,0,-1,0,-1c1,0,1,-1,1,-1l0,-1l-1,0l-1,0c0,0,-1,0,-1,-1c0,0,0,-1,0,-1c0,0,0,-1,1,-1c0,0,0,-1,0,-1c1,0,1,0,1,0c1,0,1,0,1,0c1,1,1,1,1,1l0,1l0,1c1,0,1,0,1,0c0,0,1,0,1,0l1,0c0,0,1,0,1,0l1,-1l0,-1c1,-1,2,-2,3,-2l1,1l0,1l1,1c1,0,1,1,1,1l1,0l1,0ZM407.5,157.5c0,0,1,0,1,0c0,0,1,0,1,0c1,0,1,0,2,0l0,1c0,0,0,1,0,1c0,0,-1,0,-1,1c0,0,-1,0,-1,0l-1,0l-1,0l2,-1c1,0,1,0,2,-1c-1,0,-1,0,-1,0c-1,0,-1,0,-1,0c0,0,-1,0,-1,0c0,0,-1,0,-1,1l0,-1l0,-1ZM403.5,174.5l-1,-1c0,0,0,-1,0,-1c-1,0,-1,0,-1,0l-1,1c0,0,1,0,1,0l1,1ZM401.5,160.5c0,-1,0,-1,0,-1c0,-1,1,-1,1,-1l0,1c1,0,1,0,1,0c0,1,0,1,0,1l0,1c-1,0,-1,0,-1,0l1,0l0,1l0,1l-1,-1l-1,0l0,1c-1,0,-1,1,-1,1l-1,0c-1,0,-1,0,-1,0l1,0l1,-1l1,-1l0,-1c-1,0,-1,0,-1,0l0,-1l1,0ZM402.5,160.5l-1,0l0,1l1,0l0,-1ZM390.5,167.5c0,0,0,-1,0,-1c0,0,1,-1,1,-1c0,0,1,0,1,0l1,0l0,1l0,1l-1,0l0,-1l-1,0c0,0,0,1,-1,1c1,0,1,0,1,0l1,1l1,0l1,-1c0,1,-1,1,-1,1l-4,2c0,-1,1,-1,1,-1l1,-1c-1,0,-1,0,-1,-1ZM392.5,172.5l0,1c0,0,-1,0,-1,0c0,0,1,1,1,1l1,0c0,0,0,-1,0,-1l-1,0c0,0,0,-1,0,-1ZM388.5,161.5l1,0c0,0,0,-1,1,-1c0,0,1,1,1,1c1,0,1,0,1,0l0,1c0,0,-1,0,-1,1c-1,0,-1,0,-1,0c-1,0,-1,0,-1,0l-1,0l1,0c1,0,2,-1,2,-1c0,0,-1,0,-1,0l-1,0l-1,0l-1,0l0,-1l1,0ZM385.5,175.5c-1,0,-1,0,-1,0l-1,0l-1,-1l-1,0c0,1,0,1,-1,1l-1,0l-1,0c0,0,-1,0,-1,0l-1,0l0,-1c0,0,-1,0,-1,0l0,1c-1,0,-1,0,-2,0l-1,0l-1,0c-1,0,-1,0,-1,0c-1,-1,-1,-1,-1,-1l0,-1l0,-1l0,-1c0,1,-1,1,-2,2l-1,0l0,1l0,1c0,0,0,1,0,1l0,1c0,0,-1,0,-1,0c0,0,-1,1,-1,1c0,0,-1,0,-1,0c-1,0,-1,1,-2,1c-1,0,-2,0,-3,1c0,0,-1,0,-2,0c-1,0,-2,0,-3,0c0,0,-1,0,-1,0l-1,0c0,0,-1,0,-1,0c-1,0,-2,0,-2,0c-1,0,-2,0,-3,0c0,-1,-1,-1,-2,-1c-1,-1,-3,-1,-3,-2c-1,0,-2,-1,-3,-2c-1,0,-1,0,-1,0c0,-1,0,-1,1,-1c0,1,1,1,1,1l1,1c0,0,1,0,2,1c1,0,1,0,1,0c1,0,2,0,2,1c1,0,1,0,2,0c1,0,1,0,2,0c1,0,1,0,2,1c0,0,1,0,2,0c0,0,1,0,1,0c1,-1,2,-1,2,-1c1,0,2,0,3,0c1,0,2,0,3,-1c1,0,2,0,2,0c2,-1,3,-2,3,-2c0,0,0,-1,0,-1l-1,0l0,-1l0,-1l-1,0l1,-2l1,1l1,0l1,0c0,0,0,-1,1,-1l0,-1c0,0,1,0,1,0c0,1,0,1,0,1l0,1c0,1,0,1,0,2c0,0,1,1,1,1l1,0c0,0,1,0,1,0c1,0,1,-1,2,-1c0,0,1,0,1,0c1,0,1,0,1,1c0,0,1,0,1,0l1,0l1,0l1,0l0,-1l1,-1c0,0,0,-1,1,-1l0,-1l1,0l1,1l0,1l0,1c0,1,0,1,0,1c0,0,0,1,0,1ZM383.5,173.5l1,0c0,-1,0,-1,0,-1l-1,0c-1,0,-1,0,-1,0c0,0,0,1,1,1ZM384.5,179.5l-5,2c1,-1,1,-1,1,-1l4,-2ZM375.5,171.5l-2,-1l1,-1l2,1ZM377.5,179.5l-5,2c1,-1,1,-1,1,-1l4,-2ZM371.5,178.5l-1,0l-1,1l-2,-1l1,-2l2,1l0,-1l2,1ZM353.5,174.5l-1,-1l1,-2l1,1ZM344.5,166.5l3,-1l5,-2l5,-2l1,0l-1,2l-1,0l-2,0l-1,1l-6,2l-4,1ZM152.5,166.5l5,-2c-1,0,-1,1,-1,1l-4,2ZM301.5,128.5l0,-1l0,-1l0,-9l1,-2l0,11l0,1c0,0,-1,1,-1,1ZM304.5,130.5l-4,2c0,0,1,-1,1,-1l3,-2ZM227.5,112.5l0,-1c0,0,0,-1,0,-1c0,-1,0,-2,0,-2l0,-1c1,0,1,1,1,1c0,0,0,1,0,1l0,1l0,1c0,0,0,1,-1,1ZM140.5,118.5l0,-1c0,0,0,-1,0,-1c0,-1,0,-1,-1,-2l1,0l0,-1c0,0,0,1,1,1c0,1,0,1,0,1l0,1c0,1,0,1,0,1c0,0,-1,1,-1,1ZM168.5,110.5c0,-1,0,-1,0,-2c0,0,0,-1,0,-1l0,-1c0,0,1,0,1,1l0,1l0,1l0,1l-1,0ZM167.5,112.5l0,1l0,1c1,0,1,0,1,0c0,0,1,-1,1,-1l0,-1l0,1c1,0,1,0,1,0c0,0,1,0,1,-1l0,-1l0,1l0,1l0,1l-1,0l-1,0l0,1c-1,0,-1,0,-1,0c-1,0,-1,0,-1,0l0,-1l0,-1ZM115.5,125.5c0,0,-1,0,-1,0l0,1l1,0c0,0,0,-1,0,-1ZM115.5,133.5c-1,0,-1,0,-1,0l-1,1c0,0,-1,0,-1,0l-1,0c0,0,-1,0,-1,-1c0,0,-1,0,-1,0c0,0,1,0,1,0c1,0,1,0,1,0c1,0,1,0,1,0c1,-1,1,-1,1,-1c1,0,1,0,1,-1c1,0,1,0,1,-1l1,-1c0,0,0,-1,0,-1l0,-1c0,0,0,1,0,1c0,0,-1,0,-1,0c-1,0,-1,0,-1,0c0,0,-1,0,-1,0c0,0,0,-1,0,-1c0,-1,0,-1,0,-1c0,0,0,-1,0,-1c0,0,0,-1,1,-1c0,0,0,-1,0,-1c1,0,1,0,1,0c0,0,1,0,1,0c0,0,0,1,0,1c0,0,1,1,1,1c0,0,0,1,0,1c0,0,0,1,0,1c0,0,0,1,0,1c0,1,0,2,-1,3c0,0,0,1,0,1c-1,0,-1,0,-1,1ZM112.5,119.5l4,-2l0,1l-5,2ZM105.5,127.5c1,0,1,0,1,0c0,0,1,0,1,0l1,0c0,0,0,-1,0,-1l0,-2l-1,-6c0,0,0,-1,0,-1c0,0,0,-1,0,-1c0,0,1,-1,1,-1l0,1c0,1,1,1,1,1l0,1l-1,1l0,-1c0,1,0,1,0,1c0,0,0,1,0,2l1,2c0,1,0,1,0,1l0,2c0,0,0,1,-1,1c0,1,0,1,0,1c-1,0,-1,1,-1,1l-1,0l-1,0c-1,0,-1,0,-1,0c-1,0,-1,0,-1,-1l0,-1c-1,1,-1,1,-2,2l-1,0l-1,0c-1,0,-1,0,-1,0c-1,0,-1,0,-1,0l0,-1l-1,0c0,0,-1,0,-1,0c0,1,0,1,-1,1l-1,0c0,0,-1,0,-1,0c-1,-1,-1,-1,-1,-2l0,1c-1,0,-1,0,-1,0l0,1c0,0,-1,0,-1,0c-1,0,-1,0,-1,0c1,0,1,0,1,0c0,0,1,0,1,0l1,1c0,1,0,1,0,1c0,1,0,1,0,1c-1,0,-1,0,-1,0c0,1,0,1,-1,1c-1,1,-1,1,-2,1c-1,1,-2,1,-3,1c-1,0,-1,0,-2,0c-1,-1,-1,-1,-2,-1c0,-1,0,-1,0,-1c-1,-1,-1,-1,-1,-2c0,-1,1,-1,1,-2c0,-1,0,-1,1,-2c0,1,0,1,0,2c-1,0,-1,1,-1,1l0,1c0,0,1,1,1,1c1,1,2,1,3,1c0,0,1,0,1,0c0,0,1,0,1,0c0,0,1,0,1,0c1,0,1,-1,2,-1c0,0,1,-1,1,-1c0,0,-1,0,-2,0c0,0,-1,-1,-1,-1c0,-1,0,-1,0,-1c0,-1,0,-1,1,-1l1,0l0,-1c1,0,1,0,1,0l0,-1l1,0c0,-1,0,-1,0,-1c0,0,0,-1,0,-1l-1,-7l1,-2l1,11c0,0,0,1,0,1c1,0,1,0,1,0c1,0,1,0,1,0c1,0,1,0,2,0l0,-1l1,0l0,1l1,0l1,0l1,0c0,0,1,0,1,0c0,0,1,0,1,0l0,-1l1,-1l0,1c0,1,0,1,1,1l1,0ZM110.5,132.5l-4,2c0,0,0,-1,0,-1l4,-2ZM104.5,132.5l-2,-1l-1,2l-1,-1l1,-2l1,1l1,-1l2,1ZM103.5,113.5l0,-1c1,0,1,0,1,0c1,0,1,1,1,1l0,1c0,0,0,1,-1,1l1,0l0,1l-1,0l-1,1c0,0,-1,0,-1,0l-1,1l0,-1l1,0c0,0,0,-1,0,-1l1,0l0,-1c0,0,-1,-1,-1,-1c0,0,1,0,1,-1ZM104.5,113.5l-1,0c0,0,0,1,0,1l1,0ZM96.5,133.5l-1,-1l1,-2l1,1ZM93.5,118.5c1,0,1,0,1,0c1,0,1,0,2,0c0,0,1,0,1,0c0,0,1,0,1,0c0,1,0,1,0,1c-1,0,-1,0,-1,1l-1,0l-1,0c0,1,0,1,0,1l-1,0l0,-1l1,0c1,0,1,-1,2,-1c0,0,-1,0,-1,0c0,0,-1,0,-1,0c0,0,-1,0,-1,0c0,0,-1,0,-1,0c0,-1,0,-1,0,-1ZM93.5,137.5l-4,2c0,-1,0,-1,0,-1l4,-2ZM80.5,119.5l4,-2l0,1c0,0,-1,0,-1,0l-4,2ZM129.5,126.5c0,0,-1,0,-1,0l-1,1l-1,0l-1,0c0,0,0,-1,0,-1c0,0,-1,0,-1,0c0,0,-1,0,-1,-1l0,-1c0,0,0,-1,0,-1c1,-1,1,-1,2,-2l-1,0l-1,0c0,1,0,1,0,1l0,-1c0,0,1,0,1,0l1,0l1,0l1,0c-1,0,-2,1,-2,1c0,0,-1,0,-1,1c0,1,-1,1,-1,1c0,0,1,1,1,1l0,1l1,0l1,0l1,0ZM126.5,124.5c0,0,-1,0,-1,0l1,0c0,-1,0,-1,0,-1l0,1ZM145.5,132.5c1,0,1,0,1,0l1,0c1,0,1,0,2,-1c1,0,1,0,2,-1c0,0,1,-1,1,-1c0,0,0,-1,0,-1c0,0,0,-1,0,-1l0,-1l0,-1l-1,0l1,-1l0,-1l0,1c1,0,1,1,1,1l0,1l0,1c0,1,0,1,0,2c0,1,0,1,0,1c-1,1,-1,1,-1,1c0,0,0,1,-1,1l-1,1c-1,0,-1,0,-1,0c0,0,-1,0,-1,0l-1,0l-1,0l-1,-1ZM148.5,119.5l4,-2l0,1l-4,2ZM138.5,129.5l1,0c0,-1,0,-1,1,-2c0,0,1,0,2,-1l-1,0l1,-2l1,0l1,1c0,0,1,0,1,1l-1,2l-1,0l-1,0l-1,0c-1,0,-1,0,-2,1l1,0c1,0,1,0,1,0c0,0,1,0,1,1c0,0,1,0,1,0c0,1,0,1,-1,1c0,1,0,1,0,1c-1,1,-1,1,-2,1c0,1,-1,1,-2,1c-1,1,-2,1,-3,1c0,0,-1,0,-2,0c0,-1,-1,-1,-1,-1c-1,-1,-1,-1,-1,-1c0,-1,0,-1,0,-2c0,-1,0,-1,0,-2c0,-1,1,-1,1,-2c1,0,1,0,1,0c-1,1,-1,1,-1,2c0,0,0,1,0,1l0,1c0,0,0,1,1,1c0,1,1,1,2,1c1,0,1,0,1,0c0,0,1,0,1,0c1,0,1,0,1,0c1,0,2,-1,2,-1c1,0,1,-1,1,-1c0,0,-1,0,-1,0c-1,0,-1,-1,-1,-1c-1,0,-1,0,-1,0c0,-1,0,-1,0,-1ZM177.5,129.5l0,-1l0,-1l0,-9l1,-2l0,11c0,0,0,1,0,1c0,0,-1,1,-1,1ZM173.5,128.5l0,1c0,0,-1,0,-1,0c0,0,-1,-1,-1,-1c-1,0,-1,-1,-1,-2c0,1,0,2,-1,2c0,1,-1,1,-2,1c0,0,-1,0,-1,-1c-1,0,-1,-1,-1,-2c0,0,0,1,0,1l-1,1c0,0,-1,0,-1,0c-1,0,-1,0,-2,0c0,0,0,-1,0,-1c0,-1,0,-1,0,-1c0,-1,1,-1,1,-1c0,-1,1,-1,1,-1l1,-1l1,0l0,-1c0,-1,0,-1,0,-1l1,1l0,1l0,2c0,1,0,1,0,1l0,1c1,0,1,0,2,0l1,0c0,-1,0,-1,0,-1c0,-1,0,-2,0,-3c0,0,0,-1,0,-1c0,-1,0,-1,0,-1l0,-1l0,-1l1,0l0,2l0,2l0,2l1,0c0,0,0,1,0,1l1,1l1,0l0,-1c0,0,0,-1,0,-1l0,-2l0,-1l-1,-1c0,0,1,-1,1,-1l0,-1c0,0,0,1,0,1c0,1,0,1,0,1l1,2c0,1,0,2,0,2c0,1,0,1,0,2c0,0,-1,1,-1,1ZM165.5,124.5l-1,0l0,1c-1,0,-1,0,-1,0c0,0,-1,1,-1,1c1,0,2,0,2,0c0,0,1,-1,1,-1ZM160.5,118.5l4,-2l-1,1l-4,2ZM236.5,125.5l-1,0l0,1c0,0,1,0,1,0c0,0,1,0,1,0c0,0,-1,-1,-1,-1ZM236.5,133.5l-1,0l0,1c-1,0,-1,0,-2,0c-1,0,-1,0,-2,-1c0,0,-1,0,-1,0c0,0,1,0,1,0l1,0l1,0c0,0,1,0,1,0c0,-1,0,-1,0,-1c1,0,1,0,2,-1l0,-1c0,0,1,0,1,-1c0,0,0,-1,0,-1l0,-1c0,0,0,1,0,1l-1,0l-1,0c-1,0,-1,-1,-1,-1c0,-1,0,-1,0,-1c0,0,0,-1,0,-1c1,0,1,-1,1,-1c0,0,0,-1,1,-1c1,0,1,0,1,0c0,0,0,1,1,1c0,0,0,1,0,1c0,0,0,1,0,1c0,0,0,1,0,1c0,0,0,1,0,1c0,1,0,2,-1,3c0,0,0,1,0,1c0,0,-1,0,-1,1ZM233.5,119.5l4,-2l0,1l-4,2ZM226.5,129.5l-1,0c0,-1,0,-1,-1,-1l-2,-2c0,-1,-1,-1,-1,-1l-1,-1c0,1,0,1,0,1l0,1c0,1,0,1,0,1c0,0,0,1,0,1c-1,0,-1,0,-1,1c0,0,-1,0,-1,0c0,0,-1,0,-1,0l-1,0l0,-2l1,0c1,0,1,0,1,0c0,0,1,0,1,0c0,0,1,0,1,-1c0,-1,0,-1,0,-1c0,-1,-1,-1,-1,-1l0,-1c-1,0,-1,0,-1,0c-1,-1,-1,-1,-1,-1c-1,0,-1,0,-1,0c0,0,-1,0,-1,0c0,-1,0,-1,0,-1c0,-1,0,-1,0,-1c0,0,0,-1,0,-1c1,0,1,0,1,-1c1,0,2,-1,3,-1c1,-1,3,-1,4,-2c2,0,3,-1,3,-1c0,0,1,0,1,0l-1,2l-1,0c0,0,-1,0,-2,1c-2,0,-3,1,-4,1c-2,1,-3,1,-3,2l1,1c0,0,1,0,1,0l1,1c1,0,1,1,2,1c1,0,1,1,2,1c0,1,1,1,1,2l2,1l1,0c1,0,1,0,1,0c0,0,1,0,1,0c0,0,0,-1,0,-1l0,-2l-1,-6c0,0,0,-1,0,-1c0,0,0,-1,0,-1c1,0,1,-1,1,-1l0,1c1,1,1,1,1,1l0,1l0,1l0,-1c0,1,0,1,0,1c0,0,0,1,0,2l0,2c0,1,0,1,0,1l0,2c0,0,0,1,0,1c-1,1,-1,1,-1,1c0,0,0,1,-1,1l-2,0ZM226.5,132.5l-4,2c0,-1,0,-1,0,-1l4,-2ZM215.5,131.5c0,-1,0,-1,0,-1l0,-1l-1,-1l1,-2c0,0,0,1,0,1l1,0l0,2c0,0,0,1,0,1l0,1c0,1,-1,1,-1,1c0,1,0,1,0,1c-1,0,-1,0,-1,1c-1,0,-1,0,-2,0c0,0,-1,0,-1,1c-1,0,-2,0,-3,0c-1,1,-2,1,-3,1c-1,0,-1,0,-2,0c-1,0,-1,0,-2,0c-1,0,-1,0,-2,0c-1,0,-1,0,-2,0c-1,0,-2,0,-2,-1c-1,0,-2,0,-3,0c-1,-1,-2,-1,-3,-2c-1,0,-2,-1,-3,-2c0,0,0,-1,0,-1c1,1,1,1,1,1c0,0,1,0,1,0c1,1,2,1,2,1c1,1,2,1,2,1c0,0,1,0,2,0c0,1,1,1,1,1c1,0,2,0,3,0c0,0,1,0,1,0c1,0,2,0,2,0c1,0,1,0,2,0c1,0,1,0,2,0c1,0,2,0,2,0c1,0,2,-1,3,-1c1,0,2,0,3,-1c1,0,1,0,2,-1ZM216.5,132.5c0,-1,0,-1,0,0ZM203.5,129.5l-2,-1l1,-1l2,1ZM199.5,121.5l0,1c0,0,1,-1,1,-1l0,-1l0,1c1,0,1,0,1,0l0,-1l1,-1l0,1l0,1l0,1c0,0,-1,0,-1,0l-1,0l0,1c-1,0,-1,0,-1,0c0,0,-1,0,-1,0l0,-1l0,-1ZM203.5,118.5l-6,3c0,-1,1,-2,1,-2l5,-2ZM275.5,132.5c0,0,1,0,1,0l1,0c0,0,1,0,2,-1c1,0,1,0,2,-1c0,0,0,-1,1,-1c0,0,0,-1,0,-1c0,0,0,-1,0,-1l0,-1l-1,-1l0,-1l1,-1l0,1c0,0,1,1,1,1l0,1l0,1c0,1,0,1,0,2c0,1,-1,1,-1,1c0,1,0,1,0,1c0,0,-1,1,-1,1l-1,1c-1,0,-1,0,-1,0c-1,0,-1,0,-1,0l-1,0c0,0,-1,0,-1,0l-1,0l0,-1ZM278.5,119.5l4,-2l0,1c0,0,-1,0,-1,0l-4,2ZM274.5,128.5c0,1,0,1,-1,1l0,-1l-1,0l-1,-1l-1,1c0,0,0,1,0,1l-1,0l-1,0l-1,0c-1,0,-1,0,-1,0c0,0,0,-1,0,-1c0,0,-1,0,-1,0c0,0,-1,0,-1,0c0,1,-1,1,-1,1l-1,0l-1,0c0,0,-1,0,-1,0c0,-1,0,-1,0,-1c-1,0,-1,0,-1,0l-1,0c-1,1,-1,1,-2,1l-2,1l-1,0l-1,0l-1,0c-2,0,-3,0,-4,0c-1,-1,-2,-1,-2,-1c0,-1,-1,-1,-1,-1c0,-1,0,-1,0,-1c0,0,0,-1,0,-1c0,-1,0,-1,0,-1c0,-1,1,-1,1,-2l1,1c-1,0,-1,0,-1,0c0,1,0,1,0,1c0,1,0,1,0,2c0,0,1,0,2,1l1,0l1,0c1,0,2,0,3,0c1,0,1,0,2,0c0,0,1,0,1,0l1,0l1,0c0,-1,1,-1,2,-1c1,-1,1,-1,1,-1l0,1l1,0l1,0c0,0,1,0,1,0c0,0,1,0,1,0c0,0,1,-1,1,-1c0,0,1,0,1,0l0,1c1,0,1,0,1,0l1,0l1,0c0,0,1,0,1,0l1,-1c0,-1,1,-1,1,-2c0,0,1,0,1,0c0,0,1,0,1,0c0,1,0,1,0,1l1,1l0,1l-1,1ZM272.5,126.5l1,0l0,1c0,0,0,-1,0,-1c0,-1,0,-1,0,-1c-1,0,-1,0,-1,1ZM269.5,116.5l4,-2l0,1l-4,2ZM266.5,132.5l-1,-1l-1,2l-2,-1l1,-2l2,1l0,-1l2,1ZM262.5,111.5l1,0c0,0,1,-1,1,-1c1,0,1,1,2,1l0,1l0,1c-1,0,-1,0,-1,0c-1,0,-1,0,-1,0c0,0,-1,0,-1,0c0,0,-1,0,-1,0l2,0c0,0,1,-1,1,-1c-1,0,-1,0,-1,0c-1,0,-1,0,-1,0c-1,0,-1,0,-1,0l0,-1ZM253.5,124.5l-1,-1l-1,1l-1,-1l1,-1l1,0l1,-1l1,1ZM251.5,116.5l4,-2l0,1l-4,2ZM294.5,118.5l-2,-1l1,-1l1,1ZM298.5,128.5l-1,0l-1,0c0,1,-1,1,-1,1l-1,0l-1,0l-1,0c0,0,-1,0,-1,0l0,-1l1,-1l1,0c0,0,1,0,2,0c1,0,1,0,1,0c1,-1,1,-1,1,-1c0,0,0,-1,0,-1c0,0,0,-1,-1,-1l0,-1l-1,0l-1,0l0,-1l-1,0l1,-2c0,0,0,1,1,1l1,0l0,1l1,0c0,0,0,1,0,1c1,1,1,1,1,2c0,1,0,1,0,1c0,0,0,1,0,1l0,1ZM291.5,111.5l1,0c0,0,0,-1,1,-1c0,0,1,1,1,1c1,0,1,0,1,0l0,1c0,0,-1,0,-1,1c0,0,-1,0,-1,0c-1,0,-1,0,-1,0l-1,0l2,0c0,0,1,-1,1,-1l-1,0c-1,0,-1,0,-2,0l-1,0l1,-1ZM339.5,132.5c0,0,1,0,1,0l1,0c1,0,1,0,2,-1c1,0,1,0,2,-1c0,0,1,-1,1,-1c0,0,0,-1,0,-1c0,0,0,-1,0,-1l0,-1l-1,-1l1,-1l0,-1l0,1c1,0,1,1,1,1l0,1l0,1c0,1,0,1,0,2c0,1,0,1,-1,1c0,1,0,1,0,1c0,0,-1,1,-1,1l-1,1c-1,0,-1,0,-1,0c0,0,-1,0,-1,0l-1,0l-1,0l-1,0l0,-1ZM342.5,119.5l4,-2l0,1l-5,2ZM338.5,128.5c0,1,0,1,0,1l-1,0l0,-1c-1,0,-1,0,-1,0l-1,-1l0,1c-1,0,-1,1,-1,1l-1,0l-1,0c-1,0,-1,0,-1,0c-1,0,-1,0,-1,0c0,0,0,-1,0,-1l-1,0c-1,0,-1,0,-1,0c0,1,-1,1,-1,1l-1,0c-1,0,-1,0,-1,0c0,0,-1,0,-1,0c0,-1,0,-1,0,-1c0,0,-1,0,-1,0l-1,0c0,1,-1,1,-2,1l-2,1c-1,0,-1,0,-1,0l-1,0l-1,0c-1,0,-3,0,-4,0c-1,-1,-1,-1,-2,-1c0,-1,-1,-1,-1,-1c0,-1,0,-1,0,-1c0,0,0,-1,0,-1c0,-1,0,-1,0,-1c1,-1,1,-1,1,-2l1,1c-1,0,-1,0,-1,0c0,1,0,1,0,1c0,1,0,1,0,2c1,0,1,0,2,1c0,0,1,0,1,0l1,0c1,0,2,0,3,0c1,0,1,0,2,0c0,0,1,0,1,0l1,0c0,0,1,0,1,0c1,-1,1,-1,2,-1c1,-1,1,-1,1,-1l0,1l1,0l1,0c0,0,1,0,1,0c0,0,1,0,1,0c0,0,1,-1,1,-1l1,0l0,1c1,0,1,0,2,0l1,0c1,0,1,0,1,0l1,0l0,-1c0,-1,1,-1,1,-2c1,0,1,0,1,0c1,0,1,0,1,0c0,1,0,1,1,1l0,1l0,1l0,1c0,0,-1,0,-1,0ZM336.5,126.5l1,0l1,1c0,0,0,-1,0,-1c0,0,-1,0,-1,0c0,-1,0,-1,0,-1c-1,0,-1,0,-1,1ZM333.5,116.5l4,-2l0,1l-4,2ZM330.5,132.5l-1,-1l-1,2l-1,-1l0,-2l2,1l1,-1l1,1ZM326.5,111.5c0,0,1,0,1,0c0,0,1,-1,1,-1c1,0,1,1,2,1l0,1l0,1c-1,0,-1,0,-1,0c0,0,-1,0,-1,0l-1,0l-1,0l2,0c1,0,1,-1,2,-1c-1,0,-1,0,-1,0c-1,0,-1,0,-1,0c0,0,-1,0,-1,0c0,0,-1,0,-1,0l0,-1ZM318.5,124.5l-2,-1l-1,1l-1,-1l1,-1l1,0l1,-1l1,1ZM315.5,116.5l5,-2l-1,1l-4,2ZM373.5,125.5c0,0,-1,0,-1,0l0,1l1,0c0,0,0,-1,0,-1ZM373.5,133.5c0,0,-1,0,-1,0l0,1c-1,0,-2,0,-2,0l-1,0c0,0,-1,0,-1,-1c0,0,-1,0,-1,0c0,0,1,0,1,0l1,0c1,0,1,0,1,0c1,-1,1,-1,1,-1c1,0,1,0,1,-1c1,0,1,0,1,-1l1,-1c0,0,0,-1,0,-1l0,-1c0,0,0,1,0,1c-1,0,-1,0,-1,0c0,0,-1,0,-1,0l-1,0c0,0,0,-1,0,-1c0,-1,0,-1,0,-1c0,0,0,-1,0,-1c0,0,1,-1,1,-1c0,0,0,-1,0,-1c1,0,1,0,1,0c0,0,1,0,1,0c0,0,0,1,0,1c1,0,1,1,1,1c0,0,0,1,0,1c0,0,0,1,0,1c0,0,0,1,0,1c0,1,0,2,-1,3c0,0,0,1,0,1c-1,0,-1,0,-1,1ZM370.5,119.5l4,-2l0,1l-4,2ZM364.5,126.5l1,0l1,1c0,0,0,-1,0,-1l-1,0c0,-1,0,-1,0,-1c-1,0,-1,0,-1,1ZM361.5,116.5l5,-2l-1,1l-4,2Z" class="g1_37" />
</svg>