<?xml version="1.0" encoding="UTF-8" standalone="no"?>
<!DOCTYPE svg PUBLIC "-//W3C//DTD SVG 1.1//EN"
"http://www.w3.org/Graphics/SVG/1.1/DTD/svg11.dtd">
<svg version="1.1" xmlns="http://www.w3.org/2000/svg" xmlns:xlink="http://www.w3.org/1999/xlink">
<defs>
<style type="text/css"><![CDATA[
.g1_53{
fill: #1F1A17;
stroke: #1F1A17;
stroke-width: 1;
stroke-linecap: butt;
stroke-linejoin: miter;
}
]]></style>
</defs>
<path fill-rule="evenodd" d="M239.5,480.5c0,1,0,2,-2,2c1,0,1,0,1,-1c1,0,1,0,1,-1c0,0,-1,0,-1,0c-1,0,-1,0,-1,0c0,-1,0,-1,0,-1c1,0,1,0,1,0c0,0,1,0,1,0c0,1,0,1,0,1ZM222.5,482.5c0,2,1,1,0,3c0,1,1,1,1,0c0,-1,1,-2,2,-3c0,1,0,1,0,0c1,-1,0,-2,-2,1c0,-1,-1,-2,-1,-1ZM223.5,500.5c0,1,0,1,0,1l-3,2c0,0,0,-1,0,-1ZM234.5,484.5c0,1,0,1,0,1l-3,2c0,0,0,-1,0,-1ZM246.5,479.5c0,0,0,1,0,1l-4,2c0,0,0,-1,0,-1c1,0,1,0,1,0ZM221.5,499.5l-1,2l-1,-2l1,-1ZM215.5,497.5l-1,0c0,-1,0,-1,0,-2c-1,1,-1,2,-2,2c0,0,-1,1,-2,1c-2,0,-2,-3,-2,-5c0,1,1,3,2,3c1,-1,1,-1,2,-1c1,0,1,0,2,-1l-1,-4c0,0,0,-1,0,-2c1,2,1,3,1,4c1,2,1,3,1,3c1,0,3,0,4,0c0,0,1,0,1,-1c-1,0,-1,-1,-1,-1c-1,0,-1,0,-1,0c-1,0,-1,0,-1,0c0,0,-1,0,-1,1c0,-1,1,-2,1,-2c0,-1,1,-1,1,-1c1,0,1,0,2,1c1,0,1,0,2,0c0,1,1,1,2,1c0,1,0,1,0,2c-1,0,-1,0,-1,0c-1,0,-1,0,-2,0c0,0,0,1,-1,1c-2,1,-3,2,-5,2ZM245.5,493.5c0,2,-1,4,-1,4l-1,-11c0,-1,1,-1,2,-2ZM227.5,497.5c-1,0,-1,-2,-1,-5c0,-1,0,-3,0,-6l0,-1l1,0l0,7c0,1,0,2,0,3c1,1,3,1,4,1c0,-1,1,-1,1,-2c1,0,1,-1,2,-1l1,1c0,0,0,1,1,1l1,1c1,0,2,0,2,-1c0,-4,0,-6,-1,-8c0,0,0,-1,0,-1c0,-1,1,-2,1,-2l0,1l1,1c0,1,0,1,0,2c0,0,-1,0,-1,0c0,1,1,1,1,2c0,1,0,1,0,2l0,2c0,1,0,2,-1,2c0,2,-1,2,-3,2l-1,-1c0,1,0,1,0,1l-1,0c0,0,-1,0,-2,-1c-1,1,-4,2,-5,0ZM234.5,496.5l0,-1c0,0,0,-1,0,-1c-1,1,-1,1,-1,1c0,0,0,1,0,1c1,0,1,0,1,0ZM218.5,485.5l0,1l-1,-1c0,1,-1,2,-2,2c0,-1,1,-1,2,-2c0,0,-1,-1,-1,-1c0,0,0,-1,1,-1c0,-1,0,-1,1,-1l0,1c0,0,0,1,0,1c0,0,0,1,0,1ZM218.5,484.5c0,-1,-1,-1,-1,-1c0,0,0,1,1,1Z" class="g1_53" />
</svg>