<?xml version="1.0" encoding="UTF-8" standalone="no"?>
<!DOCTYPE svg PUBLIC "-//W3C//DTD SVG 1.1//EN"
"http://www.w3.org/Graphics/SVG/1.1/DTD/svg11.dtd">
<svg version="1.1" xmlns="http://www.w3.org/2000/svg" xmlns:xlink="http://www.w3.org/1999/xlink">
<defs>
<style type="text/css"><![CDATA[
.g1_67{
stroke: #1F1A17;
stroke-width: 1;
stroke-linecap: butt;
stroke-linejoin: miter;
}
]]></style>
</defs>
<path fill-rule="evenodd" d="M402.5,243.5l1,0l0,1c0,0,1,-1,1,-1l0,-1l0,1c1,0,1,0,1,0l0,-1l1,-1l0,1l0,1l0,1c0,0,-1,0,-1,0l-1,0l0,1c-1,0,-1,0,-1,0c0,0,-1,0,-1,0l0,-1l0,-1ZM310.5,293.5c0,-1,0,-1,1,-1l1,0c0,0,1,0,1,0c1,0,1,1,1,1c0,0,0,1,-1,1l0,1c0,0,-1,0,-1,0c-1,0,-1,0,-1,0l-1,0l2,-1c0,0,1,0,1,-1l-1,0c-1,0,-1,0,-2,0l-1,1l0,-1l1,0ZM217.5,293.5c0,0,1,0,1,0c1,-1,1,-1,2,-1c0,0,1,0,1,1c0,0,1,0,1,0l-1,0c0,1,0,1,0,1c0,1,-1,1,-1,1l-1,0l-1,0l-1,0l2,0c1,0,1,-1,2,-1c-1,0,-1,0,-1,0c0,0,-1,0,-1,0c0,0,-1,0,-1,0c0,0,-1,0,-1,0c0,0,0,-1,0,-1ZM177.5,292.5c0,-1,0,-1,1,-1l1,0c0,0,1,0,1,0c1,0,1,1,1,1c0,1,-1,1,-1,1c0,0,0,1,0,1c-1,0,-1,0,-1,0c-1,0,-1,0,-1,0l-1,0l1,-1c1,0,2,0,2,0c0,-1,-1,-1,-1,-1l-1,0l-1,0c0,0,0,1,-1,1l0,-1l1,0ZM155.5,301.5c0,1,0,2,0,2c0,0,0,1,0,1l-1,1l1,1l-1,1c0,0,-1,0,-1,0l0,1c-1,0,-1,0,-2,1l-1,0l-1,0l-1,1l-1,1c0,0,0,1,0,1l-1,0l-3,0l-3,0c0,-1,0,-1,0,-1l-1,-1c0,0,-1,-1,-1,-1c-1,0,-2,0,-2,0l-1,-1l-1,0l0,-1l-1,0l0,-1l-1,0l1,-1l-1,-1l0,-1l0,-1l-1,0l0,-1l0,-1c0,0,1,0,1,0c0,-1,0,-1,0,-2l1,-1l-1,0c0,-1,0,-1,0,-1l1,0l0,-1l1,0l0,-1l1,0l2,-1l1,0l1,0l0,-1l1,-1l3,0l3,0l1,0l0,1l1,0l1,1l2,0l0,1l1,0l1,0l0,1l1,0c0,1,1,1,1,1l0,1l-1,0l1,1l0,1l0,1ZM146.5,311.5l1,0l0,-1l1,0l1,-1c0,0,1,0,1,0l1,0l0,-1c1,0,1,0,1,0l1,-1l1,-1l1,0l-1,-1l0,-1l1,0l0,-1l0,-1l0,-1c0,-1,0,-2,0,-2l0,-1l-1,0l0,-1l1,-1c-1,0,-1,0,-2,-1l-1,0l0,-1l-1,0l-1,0l-1,-1c-1,0,-1,0,-1,0l-1,-1l0,-1l-1,0l-1,0l-2,0l-1,0l-2,0l0,1l-1,1l-1,0l-1,1l-1,0l-1,0l-1,1l-1,0c0,1,0,1,-1,1l1,1l0,1l-1,0l0,1l0,1c0,0,0,1,0,1l0,1l0,1l0,1l1,0l0,1l-1,1l1,0l0,1l1,0l1,1l1,0l0,1l1,0l1,0c1,0,1,0,1,1l1,0l0,1l3,0ZM152.5,296.5l0,1l-1,0l0,-1l-1,0l0,-1c-1,0,-1,0,-1,0l0,-1l1,0l0,1l1,0l0,1l1,0ZM152.5,306.5l0,1l-1,0l-1,1l-1,0c0,-1,0,-1,0,-1l1,0c1,-1,1,-1,1,-1l1,0ZM148.5,308.5c0,0,0,1,-1,1l-1,0l-3,0l-3,0c-1,0,-1,0,-1,0c0,-1,0,-1,0,-1c0,0,0,-1,1,-1l3,0l4,0l1,1ZM148.5,294.5c0,0,0,1,-1,1l-1,0l-3,0l-3,0l-1,0l0,-1l1,-1l3,0l3,0l1,0c0,0,1,1,1,1ZM146.5,297.5l1,0l0,-1c0,0,1,0,1,0c1,0,1,0,1,1c0,0,1,0,1,0l1,1l1,-1c0,0,0,1,0,1l1,1l0,1l0,1l0,1l0,1l0,1c0,0,-1,0,-1,0c0,0,0,1,0,1l-1,-1c0,0,0,1,0,1l-1,0l0,1l-1,0l-1,0c-1,0,-1,0,-1,0l0,-1l-1,0l-3,0l-3,0l0,1c0,0,-1,0,-1,0c-1,0,-1,0,-1,0c-1,0,-1,-1,-1,-1l-1,0l0,-1l-1,1l0,-1l-1,-1l0,-1l0,-1c0,0,0,-1,0,-1l0,-1l0,-1l1,0c0,0,0,-1,0,-1l1,1l1,-1l1,0c0,-1,0,-1,1,-1l1,0l0,1l3,0ZM147.5,305.5l0,1c0,0,1,0,1,0l1,0l0,-1l1,0l0,-1c1,0,1,0,1,0l1,0l0,-1l1,0l0,-1l0,-1c0,0,0,-1,0,-1c0,-1,-1,-1,-1,-2l-1,0l-1,0l0,-1l-1,0l-1,-1c0,0,0,1,-1,1l-4,0l-3,0l-1,0l0,-1c0,0,-1,0,-1,1l-1,0l0,1c-1,0,-1,0,-1,0l-1,0l-1,1l0,1l0,1c0,1,0,1,0,1l0,1c1,1,1,1,1,1l1,0l1,1l1,0l0,1l1,0c0,0,1,0,1,0c0,-1,0,-1,0,-1l3,0l4,0ZM144.5,299.5l0,1l1,0l1,0l0,1l0,1l0,1l0,1c0,0,0,-1,-1,-1l0,-1l0,-1l0,-1l0,1c-1,0,-1,-1,-1,-1l0,-1ZM142.5,300.5c0,0,1,0,1,1l0,1c0,1,0,1,0,1l-1,1c-1,0,-1,0,-1,-1l0,-1c0,0,0,-1,0,-1c1,0,1,-1,1,-1ZM142.5,301.5c0,0,-1,0,-1,1c0,1,0,1,1,1c1,0,1,-1,1,-1c-1,-1,-1,-1,-1,-1ZM135.5,296.5l1,-1l1,0l0,-1l1,0l0,1l-1,0l0,1l-1,0l0,1l-1,0l0,-1ZM135.5,306.5c1,0,1,0,1,1l1,0l1,0l0,1l-1,0c-1,0,-1,-1,-2,-1l0,-1ZM204.5,294.5l-2,-1l0,1l-2,-1l1,-1l2,1l0,-1l2,1ZM202.5,302.5c0,0,1,0,1,0c0,0,1,0,1,0c0,-1,0,-1,0,-1l0,-1c-1,0,-1,-1,-1,-1l-1,0c0,0,0,-1,0,-1c0,0,0,-1,0,-1c0,0,0,-1,0,-1c0,0,1,0,1,1l1,1l0,1c1,1,1,1,1,2l0,1c0,0,-1,0,-1,0c0,1,0,1,0,1c0,0,-1,0,-1,0l0,1c0,0,-1,0,-1,0l-1,0l0,-1l-1,0l0,-1c0,0,-1,0,-1,-1l0,1c0,0,0,1,-1,1l-1,0c0,0,-1,0,-1,-1l-1,1c0,0,-1,1,-1,1c-1,0,-2,-1,-2,-2c0,0,0,1,-1,1c0,0,-1,1,-2,1c-1,0,-1,0,-1,-1c-1,0,-1,-1,-1,-1c-1,0,-1,1,-1,1c0,0,-1,0,-1,1l-1,0l-1,0c0,-1,0,-1,-1,-1c0,-1,0,-1,0,-1c0,1,-1,1,-1,1c-1,0,-1,1,-2,1l-1,0c-1,0,-1,-1,-2,-1c0,0,-1,1,-1,1c-1,0,-1,0,-2,0l-1,-1l-1,-1l-1,1c0,0,-1,1,-1,1l-1,0l-2,0c-1,0,-1,-1,-2,-1c0,0,0,-1,0,-2l-1,-8l1,-3l1,10l0,1c0,1,1,1,1,1l2,0l1,0c0,0,1,0,1,0l1,-1l0,-1c1,-1,2,-1,3,-1l1,1l1,1c1,1,1,1,1,1l1,0l1,0c1,0,1,0,1,0c1,0,1,0,1,-1c1,0,1,-1,1,-1l0,1c0,0,1,1,1,1c0,0,1,0,1,0c1,0,1,0,1,0c1,0,1,-1,1,-1c0,-1,0,-1,0,-1c0,0,0,-1,0,-1l0,-7l1,-2l0,10c0,1,0,1,0,1c0,0,1,0,1,1c0,0,1,0,1,0l1,0l1,0c0,-1,1,-1,1,-2l1,0l0,1c0,0,0,1,1,1c0,0,1,0,1,-1c0,0,1,0,1,-1c0,0,1,1,1,1l1,0c1,0,1,0,1,0c0,-1,0,-1,0,-1l1,0c0,1,1,2,1,2l1,0ZM201.5,287.5l4,-2l0,1l-4,2ZM193.5,293.5c0,0,0,-1,1,-1c0,0,1,0,1,0c1,0,1,0,1,0c1,1,1,1,1,1c0,1,0,1,-1,1c0,1,0,1,0,1c0,0,-1,0,-1,0c0,0,-1,0,-1,0l-1,0l2,0c0,-1,1,-1,1,-1l-1,-1c-1,0,-1,0,-2,1c0,-1,0,-1,0,-1ZM187.5,310.5l-4,2c0,-1,1,-1,1,-1l3,-2ZM183.5,307.5l-1,-1l-1,1l-1,-1l0,-1l2,1l1,-1l1,0ZM175.5,302.5l-1,-1c0,0,0,-1,0,-1c0,0,-1,0,-1,0l-1,1c0,0,1,0,1,1l1,0ZM173.5,287.5l-5,2l1,-1l5,-2l-1,0c0,1,0,1,0,1ZM168.5,287.5l1,-1l5,-2c-1,0,-1,1,-1,1ZM257.5,300.5l-1,0c0,1,1,1,1,1c1,0,1,-1,1,-1c0,0,-1,0,-1,0ZM257.5,307.5c0,1,0,1,-1,1c-1,0,-1,0,-2,0c-1,0,-1,0,-2,0l-1,0c0,0,0,-1,0,-1c1,0,1,0,1,0c0,1,0,1,1,1l1,0c0,-1,0,-1,0,-1c0,0,1,0,1,0c1,-1,1,-1,2,-1c0,0,0,-1,0,-1c0,0,1,0,1,-1c0,-1,0,-1,0,-1c0,-1,0,-1,0,-1c0,1,0,1,0,1l-1,0l-1,0c0,0,0,-1,0,-1c0,0,-1,0,-1,0c0,0,0,-1,0,-1l0,-1c1,0,1,-1,1,-1c0,-1,0,-1,1,-1c1,0,1,0,1,0l1,1c0,1,0,1,0,2l0,1c0,1,0,1,0,1c0,1,0,2,-1,2c0,1,0,1,0,1c0,1,-1,1,-1,1ZM254.5,294.5l4,-2c0,1,0,1,0,1l-4,2ZM244.5,302.5l-1,0l0,1c0,0,-1,0,-1,0c0,0,0,1,-1,1c-1,0,-1,0,-2,-1c0,0,-1,-1,-1,-1c0,0,0,1,-1,1l0,1l-1,0l-1,0c0,0,-1,-1,-2,-1c0,0,-1,1,-1,1c-1,0,-1,0,-2,0l0,-1l-2,-1l-1,1c0,0,0,1,-1,1l-1,0l-2,0l0,1l0,1c-1,0,-1,1,-1,1c0,0,-1,1,-1,1c0,0,-1,0,-1,1l-1,0c-1,0,-1,0,-1,0c-1,0,-1,0,-2,0c0,0,-1,-1,-1,-1c0,0,1,0,1,0l1,0c0,0,1,0,1,0c0,0,1,0,1,-1c1,0,1,0,1,0c0,-1,1,-1,1,-1c0,0,0,-1,1,-1l0,-1c-1,0,-1,0,-1,0c-1,-1,-1,-1,-1,-1l-1,-1c0,-1,0,-1,0,-1c1,0,1,0,1,-1c0,-1,0,-1,1,-1c1,0,1,0,1,0l1,1c0,0,0,1,0,1c0,0,0,1,0,1c1,0,1,0,1,0c0,0,1,0,1,0l1,0c1,0,1,0,1,0l1,-1l0,-1c1,-1,2,-1,3,-1l1,1l1,1l1,0c0,1,0,1,0,1l1,0l1,0l1,0c0,0,1,-1,1,-1c0,-1,0,-1,0,-1c0,0,0,-1,0,-1l-1,-7l1,-2l1,10c0,1,0,1,0,1l0,1c1,0,1,0,1,0l1,0c0,0,1,0,1,0c1,0,1,0,1,-1c0,0,1,0,1,-1l0,1l0,1l1,0c1,0,1,0,2,0c0,-1,0,-1,0,-1c1,0,1,0,1,0c0,0,0,-1,0,-1l0,-1l0,1l1,1l0,1l1,0c1,0,1,0,1,0c0,0,0,-1,0,-1l-1,0l1,-2c0,1,0,1,0,1l0,1l0,1l0,1c0,0,-1,1,-1,1c-1,0,-1,0,-1,-1l-1,0l0,-1l-1,1l-1,0l0,1c0,0,-1,0,-1,0c-1,0,-1,-1,-1,-1c0,-1,0,-1,0,-1ZM244.5,291.5l4,-3l0,1l0,1l-4,2ZM238.5,282.5l0,1c1,0,1,0,1,0l0,-1l0,-1l1,1c0,0,0,1,0,1c0,0,1,-1,1,-1l0,-1c0,1,0,1,0,1l0,1l0,1l-1,0l0,-1l-1,0l0,1c0,0,-1,0,-1,0l0,-1l0,-1ZM241.5,307.5l-4,2c0,-1,0,-1,0,-1l4,-2ZM232.5,302.5l-1,-1c0,0,0,-1,0,-1l-1,0l-1,1c0,0,1,0,1,1l1,0ZM230.5,288.5c0,-1,0,-1,0,-1c1,0,1,0,1,0c1,0,1,0,1,1l0,1l-1,0l1,1l0,1l-1,-1l0,1l-1,0c0,1,-1,1,-1,1l-1,0l-1,0l1,0l1,-1l1,-1c0,-1,-1,-1,-1,-1c0,-1,1,-1,1,-1ZM231.5,288.5l-1,0l0,1l1,0l0,-1ZM221.5,301.5c0,0,-1,0,-1,0l0,1c1,0,1,0,1,0l1,0l0,-1c-1,0,-1,0,-1,0ZM214.5,304.5l0,-1l0,-2l-1,-8l1,-3l1,11c0,0,-1,1,-1,1l0,1l0,1ZM294.5,300.5c0,1,-1,1,-2,2c-1,0,-2,1,-3,1c-1,0,-2,1,-3,1l-1,0c0,0,-1,0,-1,-1c-1,0,-1,-1,-1,-1c0,0,-1,1,-1,1c0,0,-1,0,-1,1l-1,0c0,0,-1,0,-1,0c0,0,0,-1,-1,-1c0,0,0,-1,0,-1c-1,0,-1,0,-1,0c0,1,0,1,-1,1l-1,1l-1,0c0,0,-1,0,-1,-1c-1,0,-1,0,-1,0c0,0,0,-1,-1,-1c0,-1,0,-1,0,-1c0,0,-1,1,-1,1l-1,0c-1,0,-1,0,-2,0l0,-2l1,-1c0,0,1,-1,2,-1c0,-1,1,-1,1,-1l-1,0c0,-1,0,-1,1,-1l0,-1l0,1c0,1,0,1,1,1c0,1,0,1,0,2l0,2c0,0,0,1,1,1c0,0,1,0,1,0c1,0,1,0,1,0c1,0,1,0,2,-1c0,0,1,0,1,0c0,0,1,1,1,1l1,0l1,0c1,0,1,-1,1,-1l1,0c0,-1,0,-1,0,-1c0,0,0,-1,0,-1c0,0,-1,0,-1,0l0,-7l1,-2l1,10c0,1,0,1,0,1l0,1c1,0,1,0,1,0l1,0c1,0,2,0,2,-1c0,0,-1,0,-1,-1l0,-1c0,0,0,-1,0,-1c0,0,0,-1,0,-1l1,0l0,-1l1,0l1,-1l1,0c1,0,1,0,1,1c0,0,1,0,1,0c0,1,0,1,0,1l-1,0l-1,0l-1,0l-1,0c0,0,-1,1,-1,1l0,1c0,0,1,0,1,0c0,1,1,1,2,2l0,-1l1,0c0,0,1,0,1,0l1,-1l1,0ZM286.5,291.5l4,-3l0,1l0,1l-4,2ZM280.5,287.5l4,-2l0,1l-5,2ZM279.5,307.5l-2,-1l-1,1l-1,-1l1,-1l1,1l1,-1l1,0ZM274.5,286.5c1,0,1,-1,1,-1c1,0,1,0,2,0c0,0,1,0,1,0c0,0,1,1,1,1c-1,1,-1,1,-1,1c0,0,0,1,-1,1c-1,0,-1,0,-1,0l-1,0l1,-1c1,0,1,0,2,0c0,-1,-1,-1,-1,-1l-1,0c0,0,-1,0,-1,1l-1,0c0,-1,0,-1,0,-1ZM271.5,298.5l-1,1l-1,0c0,1,-1,1,-1,1l1,0l1,0c0,0,1,0,1,0ZM271.5,307.5l-4,2c0,-1,1,-1,1,-1l4,-2ZM330.5,300.5l-1,1l-1,0l-2,1l2,0c1,0,2,0,3,0c1,0,1,0,1,0c1,0,1,-1,2,-1l0,-1l-1,0c0,0,-1,0,-1,0c0,0,-1,0,-1,0c0,0,-1,0,-1,0ZM325.5,302.5l1,0l0,-1l3,-2c1,0,1,0,1,-1c1,0,1,0,1,0c1,0,1,0,2,0c1,0,1,0,1,0c0,0,0,1,1,1c0,1,0,1,0,1c0,1,0,1,0,2l-1,0c0,0,-1,1,-2,1c0,0,-1,0,-2,1c-1,0,-2,0,-3,0l-1,0l-1,0l0,1c0,0,0,1,0,1l-1,-1l0,-1l1,0c0,0,-1,0,-1,0c0,-1,0,-1,0,-1c-1,0,-1,-1,-1,-1c0,0,0,1,0,1l-1,0l0,1c-1,0,-1,0,-1,0l-1,0c0,0,-1,0,-1,-1c-1,0,-1,-1,-1,-1c0,0,0,1,-1,1l-1,1l-2,0l0,1l0,1c-1,0,-1,1,-1,1c0,0,-1,1,-1,1c0,0,-1,0,-1,1l-1,0c-1,0,-1,0,-1,0c-1,0,-1,0,-2,0c0,0,-1,-1,-1,-1c0,0,1,0,1,0l1,0c0,0,1,0,1,0c0,0,1,0,1,-1c1,0,1,0,1,0c0,-1,1,-1,1,-1c0,0,0,-1,1,-1l0,-1c-1,0,-1,0,-1,0c-1,-1,-1,-1,-1,-1l-1,-1c0,-1,0,-1,1,-1l0,-1c0,-1,0,-1,1,-1c1,0,1,0,1,0l1,1c0,0,0,1,0,1c0,0,0,1,0,1c1,0,1,0,1,0c1,0,1,0,1,0c1,0,1,-1,2,-1c0,-1,0,-1,0,-1c0,0,0,-1,0,-1l-1,-7l1,-2l1,10c0,1,0,1,0,1l0,1l1,0l1,0c0,0,1,0,1,0l1,-1c0,0,1,-1,1,-1l0,1c0,1,0,1,1,1ZM326.5,291.5l4,-3l0,1l0,1l-4,2ZM315.5,282.5l0,1c1,0,1,0,1,0l0,-1l1,0l0,1c0,0,1,0,1,-1l0,-1l0,1l0,1c0,0,0,1,0,1l-1,0l-1,0c0,0,0,1,-1,1c0,0,0,-1,0,-1l0,-1l0,-1ZM316.5,277.5c0,0,1,0,1,-1l1,0c0,0,1,1,1,1c0,0,-1,0,-1,1c0,0,0,1,0,1l0,1l-1,0l0,1c-1,0,-1,0,-1,0c-1,0,-1,1,-1,1c-1,0,-1,0,-1,-1c1,0,2,-1,3,-2l-1,0c0,0,0,-1,0,-1c0,0,0,-1,0,-1ZM317.5,277.5c0,1,0,1,0,1l1,0ZM312.5,301.5l-1,0l0,1c1,0,1,0,1,0l1,0l0,-1c-1,0,-1,0,-1,0ZM305.5,304.5l0,-1l0,-2l-1,-8l1,-3l1,11c0,0,0,1,-1,1l0,1l0,1ZM171.5,252.5c0,0,0,-1,0,-1l-1,0c0,0,-1,0,-2,1l0,-1l0,-1l-1,0l0,-1c0,0,0,-1,0,-1c0,0,1,0,1,0l-1,-1l-1,0c1,1,1,1,1,2l0,2l0,1c0,1,0,1,0,1l-1,1l-1,0c0,0,1,1,1,1l1,-1c1,0,2,0,2,0c1,0,1,0,2,-1c0,0,0,-1,0,-1ZM170.5,252.5c0,0,1,0,1,0c-1,1,-1,1,-2,1l-1,0c-1,0,-1,0,-1,0l1,0c0,0,0,-1,1,-1ZM258.5,248.5c0,0,1,0,1,-1c0,0,1,0,1,0c1,0,1,0,2,1c0,1,0,1,0,1c-1,1,-1,1,-1,1c0,0,-1,0,-1,0l-1,0c0,0,-1,0,-1,0l2,0c1,-1,1,-1,1,-1c-1,0,-1,-1,-1,-1c-1,0,-1,1,-1,1c-1,0,-1,0,-1,0c0,0,0,-1,0,-1ZM102.5,243.5l1,0c0,0,0,-1,1,-1c0,0,1,1,1,1c1,0,1,0,1,0l0,1l-1,1c0,0,-1,0,-1,0c-1,0,-1,0,-1,0l-1,0l2,0c0,0,1,-1,1,-1l-1,0c-1,0,-1,0,-2,0l-1,0l1,-1ZM44.5,245.5c0,0,0,-1,1,-1c0,0,1,0,1,0c1,0,1,0,2,0c0,1,0,1,0,1c0,1,0,1,-1,1c0,1,0,1,0,1l-1,0c0,0,-1,0,-1,0c-1,0,-1,0,-1,0l2,0c0,-1,1,-1,1,-1l0,-1c-1,0,-1,0,-1,0c-1,0,-1,0,-2,1c0,-1,0,-1,0,-1ZM302.5,247.5l-1,0c0,0,0,-1,0,-1c0,-1,0,-1,0,-2c1,-1,1,-1,1,-1l1,-1c0,0,1,0,1,0l-1,0l0,1l-1,1l0,1c0,0,0,1,0,1l1,0l1,0c0,1,0,1,0,1c0,0,0,1,0,1c-1,0,-1,0,-1,0c-1,0,-1,0,-1,-1ZM66.5,240.5c0,-1,0,-1,0,-2c0,0,0,-1,0,-1l0,-1l1,1l0,1c0,1,0,1,0,1l0,1c0,0,-1,0,-1,0ZM383.5,242.5l0,-1c0,0,0,-1,0,-1c0,-1,0,-2,0,-2l0,-1l1,1c0,0,0,1,0,1l0,1c0,1,0,1,0,1c0,0,-1,0,-1,1ZM157.5,244.5c0,-1,0,-1,0,-2c0,0,-1,-1,-1,-1l0,-1l1,0l0,1l0,1l1,0c0,1,0,1,0,1c0,0,-1,0,-1,0c0,1,0,1,0,1ZM349.5,242.5c0,-1,0,-1,0,-2c-1,-1,-1,-1,-1,-2l1,-1c0,1,0,1,0,1c0,1,0,1,0,1l0,1l0,1c0,1,0,1,0,1ZM67.5,257.5l0,-1l0,-1l-1,-8l1,-3l1,11c0,1,0,1,0,1c-1,1,-1,1,-1,1ZM62.5,257.5l-1,0c-1,-1,-1,-1,-1,-1l-1,0c0,0,-1,1,-1,1l-1,0l-1,0c-1,0,-1,0,-1,0c-1,0,-1,0,-1,0c0,-1,0,-1,0,-1c-1,0,-1,0,-1,0c-1,0,-1,0,-1,0c0,1,-1,1,-1,1c0,0,-1,0,-1,0l-1,0l-1,0c0,1,0,1,0,1c0,1,-1,1,-1,1c0,1,0,1,-1,2l-1,1c0,0,-1,0,-1,0c0,0,0,1,-1,1l-1,0c0,0,-1,-1,-1,-1c-1,0,-1,0,-1,0c0,0,0,-1,0,-1c0,1,0,1,1,1c1,0,1,0,2,-1l1,0c0,0,1,-1,1,-1l1,-1c0,-1,0,-1,1,-1c0,-1,0,-1,0,-1l-1,0c0,0,-1,0,-1,0c-1,0,-1,-1,-1,-1c0,-1,0,-1,0,-1c0,-1,0,-1,0,-1l1,-1l1,0c0,-1,0,-1,0,-1c0,0,1,0,1,1c0,0,0,1,1,1c0,1,0,1,0,2c0,0,1,0,1,0c1,0,1,0,2,-1c0,0,1,0,1,0c0,0,1,0,1,0c0,-1,0,-1,0,-1l1,0l0,1c1,0,1,1,2,1l1,0c1,0,1,0,1,-1l1,0l0,-1c1,-1,1,-1,1,-2c1,0,1,0,1,0c1,0,1,0,1,0c0,1,1,1,1,2l0,1c0,1,0,1,0,1c0,0,-1,0,-1,1ZM60.5,254.5l1,1l1,0l0,-1l-1,0c-1,0,-1,0,-1,0ZM57.5,244.5l5,-2l-1,1l-4,2ZM52.5,253.5l-1,-1l1,-2l1,1ZM53.5,241.5c0,-1,1,-1,1,-1c1,0,1,1,1,1c0,0,0,1,0,1c-1,1,-1,1,-1,1l1,0l0,2l-1,-1l-1,0l0,1c-1,0,-1,0,-1,1l-1,0l-1,0l1,-1l1,0l0,-1l1,0l0,-1c-1,0,-1,0,-1,-1l1,-1ZM54.5,242.5l0,-1l-1,0l0,1l1,0l0,1l0,-1ZM46.5,254.5l-1,0c0,0,0,1,0,1l1,0c0,0,1,0,1,0l-1,0c0,0,0,-1,0,-1ZM38.5,257.5l0,-1l0,-1l0,-8l1,-3l0,11c0,1,0,1,0,1c0,1,-1,1,-1,1ZM124.5,257.5l0,-1l0,-1l-1,-8l1,-3l1,11c0,1,-1,1,-1,1c0,1,0,1,0,1ZM116.5,258.5l0,-1c0,0,0,-1,-1,-1c0,0,0,-1,0,-1c0,0,0,1,0,1c0,0,-1,0,-1,0c0,1,-1,1,-2,1c0,0,-1,0,-1,0c0,0,-1,0,-1,0c-1,0,-1,-1,-2,-1l0,-1l1,0c0,-1,0,-1,0,-1c0,0,0,1,0,1c1,0,1,0,1,0c0,0,1,0,1,0c1,0,1,0,1,0c0,0,1,0,1,0c0,0,1,0,1,0c0,0,1,-1,1,-1c0,0,0,-1,0,-1c0,-1,-1,-1,-1,-2c0,-1,0,-1,0,-1c0,0,0,-1,0,-1c1,-1,1,-1,1,-1l0,2l0,1c1,1,1,1,1,2c0,1,0,1,0,1c0,0,0,1,0,1c0,0,0,1,0,1c1,0,1,0,1,0c0,1,0,1,1,1c1,0,1,0,1,0l0,-1c0,0,0,-1,0,-2c0,-1,0,-1,0,-2c0,0,0,-1,0,-1c0,-1,0,-2,-1,-2c0,-1,0,-2,0,-3c0,-1,0,-1,0,-1c0,0,0,-1,0,-1c1,0,1,0,1,-1c0,1,0,1,0,1c1,1,1,1,1,1c0,0,0,1,0,1c0,0,0,1,0,1c0,0,0,1,0,2c0,0,0,1,0,2c0,1,0,1,0,2l0,1c0,1,0,2,0,2l0,1c0,0,0,1,0,1c0,0,-1,0,-1,0c0,1,0,1,0,1l-1,0l-1,-1l-1,0ZM118.5,239.5l0,1l1,0l0,-1l1,0l0,1c1,0,1,-1,1,-1l0,-1l0,1l0,1c0,0,0,1,0,1l-1,0l-1,-1l0,1l-1,0l0,-1l0,-1ZM122.5,236.5l-5,3c0,-1,0,-1,0,-1l6,-3ZM114.5,247.5l-2,-1l1,-2l1,1ZM112.5,260.5l-4,2l0,-1l4,-2ZM107.5,259.5l-2,-1l-1,2l-1,-1l1,-2l1,1l1,-1l1,1ZM102.5,253.5c1,0,1,0,1,0l1,0c0,0,1,0,1,0c0,0,0,-1,0,-1c0,-1,-1,-1,-1,-1l0,-1c1,0,1,0,1,0c0,0,0,-1,0,-1c0,1,0,1,1,2c0,0,0,1,0,1l0,1c0,0,-1,1,-1,1c0,0,0,1,0,1c-1,0,-1,0,-1,0c-1,0,-1,0,-2,0c0,1,0,1,0,1l0,1l0,1l-1,0c0,0,0,1,0,1c-1,0,-1,0,-1,1c-1,0,-1,0,-2,0l-1,1c-1,0,-2,0,-3,0c-1,1,-2,1,-3,1c0,0,-1,0,-2,0c-1,0,-1,0,-2,0c-1,0,-1,0,-2,0c0,0,-1,0,-2,0c-1,0,-2,0,-2,-1c-1,0,-2,0,-3,0c-1,-1,-2,-1,-3,-2c-1,0,-2,-1,-2,-2c-1,0,-1,0,-1,0c0,0,0,-1,0,-1c1,1,1,1,1,1c1,0,1,0,1,0c1,1,2,1,3,1c0,1,1,1,1,1c1,0,1,0,2,0c0,1,1,1,2,1c0,0,1,0,2,0c0,0,1,0,1,0c1,0,2,0,2,0c1,0,1,0,2,0c1,0,1,0,2,0c1,0,2,0,3,0c1,0,2,-1,2,-1c1,0,2,0,3,-1c1,0,2,-1,2,-1c0,-1,0,-1,0,-1c0,-1,0,-1,0,-1l-1,-1l0,-2l1,1ZM89.5,255.5l-2,-1l1,-1l2,1ZM79.5,248.5l1,0l3,-1l5,-2l5,-2l-1,1l-1,1l-1,0l-2,1l-5,2l-4,1ZM158.5,260.5l-2,-1l0,2l-2,-1l1,-2l1,1l1,-1l2,1ZM155.5,257.5l-1,0l-2,0c-1,0,-1,0,-2,0c0,-1,-1,-2,-1,-2l0,-9l1,-2l0,10l1,1c0,0,1,1,1,1l2,0l1,0c0,0,1,-1,1,-1c1,0,1,0,1,0c0,0,1,0,1,0c0,0,0,-1,0,-1c0,0,-1,0,-1,0c0,-1,0,-1,0,-1l1,-2l0,1l0,1l0,1l0,1l0,1c-1,1,-1,1,-2,1c0,0,-1,0,-1,0ZM149.5,238.5l4,-2c-1,1,-1,1,-1,1l-4,2ZM148.5,262.5l-2,-1l0,1l-2,-1l1,-1l1,1l1,-2l2,1ZM142.5,257.5c0,0,0,-1,0,-1c1,0,1,0,1,0c0,0,0,-1,1,-1c1,0,1,0,1,0c1,0,1,0,1,0c0,0,0,1,0,1c0,0,0,1,0,1c0,0,-1,0,-1,-1c0,0,-1,0,-1,0c-1,0,-1,1,-1,1c0,0,-1,0,-1,1l0,1c0,0,0,1,0,1l1,1l-1,1c0,1,0,1,-1,1l0,-1l0,-1c-1,-1,-1,-2,-1,-2c0,-1,0,-2,1,-2c-1,0,-1,0,-2,0l-1,0l-1,0c-1,0,-2,0,-2,0c-1,-1,-1,-2,-1,-2l0,-9l1,-2l0,10l0,1c1,0,1,1,2,1l1,0l1,0c1,0,1,-1,2,-1l1,0l0,1c-1,0,-1,1,-1,3c0,0,0,1,1,1c0,0,-1,0,-1,-1c0,0,1,0,1,-1l0,-1ZM141.5,246.5l0,1c1,0,1,0,1,0l0,-1l1,0l0,-1l0,1l1,0l0,-1l0,1l0,1l-1,0l-1,1c-1,0,-1,0,-1,0c0,0,0,-1,0,-1l0,-1ZM143.5,241.5c0,-1,0,-1,0,-1c1,0,1,-1,1,-1c0,0,0,1,0,1c1,0,1,0,1,1l0,1c0,0,-1,0,-1,0l1,0l0,2l-1,-1l-1,1c0,0,-1,1,-1,1c0,0,-1,0,-1,0l-1,0c1,-1,2,-1,3,-2l0,-1c0,0,-1,0,-1,0l0,-1l1,0ZM144.5,241.5l-1,0l1,1l0,-1ZM137.5,248.5l4,-2l-1,0c0,0,0,1,0,1l-4,2ZM205.5,257.5l0,-1l0,-1l-1,-8l1,-3l1,11c0,1,0,1,0,1c-1,1,-1,1,-1,1ZM197.5,256.5c1,0,1,0,1,-1c1,0,1,0,1,0c0,0,1,0,1,0l0,-1l0,-2l-1,-6c0,-1,0,-1,0,-1c0,0,0,-1,0,-1c1,0,1,0,1,-1c0,1,0,1,0,1l0,1c1,0,1,0,1,0c0,0,0,1,0,1c0,0,0,1,0,1c0,0,0,1,0,2c0,0,0,1,0,2c0,1,0,1,0,2l0,1l0,1l-1,1c0,1,0,1,-1,1l-1,0l-1,0l-1,0c-1,0,-1,0,-1,0c0,-1,-1,-1,-1,-1c0,0,-1,0,-1,0c0,1,-1,1,-1,1c-1,0,-1,0,-2,0c0,0,-1,0,-1,0c0,0,-1,0,-1,0c0,0,0,-1,-1,-1l0,-1c-1,0,-1,1,-2,1c0,0,0,1,-1,1c0,1,1,1,1,1c0,0,1,0,2,0l0,1c1,0,1,0,1,0l0,1c0,0,0,1,0,1c0,0,-1,0,-1,1c-1,0,-1,1,-3,1c-1,0,-2,1,-4,1c0,0,-1,0,-2,-1c0,0,-1,0,-1,-1c-1,0,-1,0,-1,-1c0,0,0,-1,0,-2c0,0,0,-1,0,-2c0,0,1,-1,1,-1c0,-1,0,-1,0,-1l0,1c1,0,1,0,1,0c-1,0,-1,1,-1,1c0,1,0,1,0,2c0,1,0,1,1,2c0,0,1,1,2,1l1,0c0,0,1,0,1,0l1,0l1,-1c0,0,1,0,1,0l1,0c1,-1,1,-1,1,-1c0,0,-1,0,-1,0c-1,0,-2,-1,-3,-1c0,0,0,-1,0,-1c0,-1,0,-1,0,-1c1,-1,1,-2,2,-2c1,-1,1,-1,2,-1l1,0c0,0,0,1,0,1c1,0,1,0,1,0c0,0,1,1,1,1c1,0,1,0,2,-1c0,0,1,0,1,0c0,0,1,0,1,0c0,-1,0,-1,0,-1c1,0,1,0,1,0l0,1c1,0,1,1,1,1l1,0ZM193.5,253.5l-1,-1l1,-2l1,1ZM192.5,243.5l0,1c1,0,1,0,1,0c0,0,0,-1,0,-1l0,-1l1,0l0,1c0,0,1,0,1,-1l0,-1l0,1l0,1l0,1l-1,0l-1,0l0,1l-1,0l0,-1l0,-1ZM196.5,240.5l-6,3c1,-1,1,-2,1,-2l6,-2ZM190.5,262.5l-1,-1l1,-2l1,1ZM192.5,263.5l-5,2c1,-1,1,-1,1,-1l4,-2ZM179.5,246.5l1,1l1,-1l0,-1l0,1c0,0,1,0,1,0l0,-1l1,0l0,1l0,1c-1,0,-1,0,-1,0l-1,0l0,1c-1,0,-1,0,-1,0c-1,0,-1,0,-1,0l0,-1l0,-1ZM185.5,265.5l-5,2c0,0,1,0,1,-1l4,-2ZM237.5,254.5c0,0,-1,1,-2,1c-1,1,-2,1,-3,2c-1,0,-2,0,-3,0l-1,0c0,0,-1,0,-1,0c-1,-1,-1,-1,-1,-2c0,0,0,1,0,1c-1,0,-1,0,-1,0c0,0,0,1,0,1c0,0,-1,0,-1,0l-1,0c1,0,1,0,1,0c0,0,1,0,1,1l1,0c0,0,0,1,0,1l0,1c-1,0,-1,1,-1,1l-1,1c-1,0,-1,0,-2,1c-1,0,-2,0,-3,0c-1,0,-1,0,-2,0c-1,0,-1,-1,-2,-1c0,0,0,-1,0,-1c-1,-1,-1,-1,-1,-1l0,-1c0,0,1,-1,1,-2c0,-1,0,-1,1,-2l0,1l-1,1c0,1,0,1,0,1c0,1,0,1,0,1c0,1,1,1,1,2c1,0,2,0,3,0c0,0,1,0,1,0c0,0,1,0,1,0c0,0,1,0,1,0c1,0,1,-1,2,-1c0,0,1,0,1,-1c0,0,-1,0,-2,0c0,0,-1,0,-1,0c0,-1,0,-1,0,-1c0,0,0,-1,0,-1l1,-1l1,0c1,-1,1,-1,1,-1c0,-1,0,-1,0,-1c1,0,1,-1,1,-1l0,-1l-1,-7l1,-2l1,11l0,1c1,1,1,1,1,1l1,-1c1,0,2,0,2,0c0,0,-1,-1,-1,-1c0,0,0,-1,0,-1c0,-1,0,-1,0,-1c0,0,0,-1,0,-1l1,0c0,-1,0,-1,0,-1l1,-1c1,0,1,0,2,0c0,0,1,0,1,0c0,0,1,1,1,1l0,1l0,-1l-1,0l-1,0l-1,0c0,0,-1,0,-1,0c0,1,0,1,0,1c-1,0,-1,0,-1,0l0,1c0,0,1,1,1,1c0,1,1,1,2,1l1,0l1,-1l1,0l1,-1ZM229.5,244.5l4,-2l0,1l-4,2ZM222.5,241.5l5,-2l-1,1l-4,2ZM290.5,260.5l-1,-1l-1,2l-1,-1l1,-2l1,1l1,-1l1,1ZM287.5,256.5c1,0,1,-1,2,-1c0,0,1,0,1,0c0,0,0,-1,0,-1c0,-1,0,-1,-1,-1l1,-2l0,1c1,0,1,0,1,0l0,1l0,1l0,1l0,1c-1,0,-1,0,-1,0c0,1,-1,1,-1,1c-1,0,-1,0,-2,0l-1,0l-11,0c0,0,0,1,0,1c-1,1,-1,1,-1,1c0,-1,0,-1,0,-1l0,-1l-1,0c0,-1,0,-1,0,-1l-1,0c0,1,0,1,-1,1l-1,0c-1,0,-1,0,-2,0c0,0,-1,-1,-1,-2c0,1,0,1,-1,2l-1,0l-1,0c0,1,0,1,0,1c0,1,-1,1,-1,1c0,1,0,1,-1,2l0,1c-1,0,-1,0,-1,0c0,0,-1,0,-1,0c0,0,0,1,-1,1l-1,0c0,0,-1,-1,-1,-1c-1,0,-1,0,-1,0c0,0,0,-1,0,-1c0,1,0,1,1,1c1,0,1,0,2,-1l1,0c0,0,1,-1,1,-1l1,-1c0,-1,0,-1,1,-1c0,-1,0,-1,0,-1l-1,0c0,0,-1,0,-1,0c-1,0,-1,-1,-1,-1c0,-1,0,-1,0,-1c0,-1,0,-1,0,-1l1,-1l1,0c0,-1,0,-1,0,-1c0,0,1,0,1,1c0,0,0,1,1,1c0,1,0,1,0,2c0,0,1,0,1,0l1,-1c0,0,1,0,1,0c0,-1,0,-1,0,-1l0,-1c0,-1,0,-1,0,-1l-1,-7l1,-2l1,11l0,1c1,0,1,0,1,0c0,1,0,1,1,1l1,-1c0,0,1,0,1,0c1,-1,1,-1,1,-1c0,0,0,1,1,1c0,0,0,1,0,1l1,-1l1,-1l1,0l1,-1c1,-1,1,-1,2,-1c0,0,1,-1,1,-1l1,0c0,0,1,0,1,1c1,0,1,0,1,1l0,1c0,1,0,1,0,1l-1,1l2,0l1,0ZM290.5,241.5c0,-1,1,-1,1,-1c1,0,1,1,1,1c0,0,0,1,0,1c0,1,-1,1,-1,1l1,0l0,2l-1,-1l-1,0l0,1c0,0,-1,0,-1,1l-1,0c0,0,-1,0,-1,0l1,-1l1,0l0,-1l1,0l0,-1c-1,0,-1,0,-1,-1l1,-1ZM291.5,242.5l0,-1l-1,0l0,1l1,0l0,1l0,-1ZM283.5,255.5c0,-1,0,-1,0,-1c-1,-1,-1,-1,-2,-1c0,0,-1,0,-1,0l-1,0c0,1,-1,1,-1,1l-1,1l-1,1l1,0l1,0l1,0c0,0,1,0,1,-1l1,0l1,0c1,0,1,0,1,0ZM275.5,244.5l5,-2l-1,1l-4,2ZM264.5,236.5l0,1c0,0,1,0,1,0l0,-1l1,0l0,-1l0,1l1,0l0,-1l0,1l0,1l-1,0l-1,1c-1,0,-1,0,-1,0c0,0,0,-1,0,-1l0,-1ZM266.5,231.5c0,-1,0,-1,0,-1c0,0,1,-1,1,-1c0,1,0,1,0,1c1,0,1,0,1,1l0,1c0,0,-1,0,-1,0l1,0l0,2l-1,-1l-1,1c0,0,-1,1,-1,1c0,0,-1,0,-1,0c0,0,-1,0,-1,0c1,-1,2,-1,3,-2l0,-1c-1,0,-1,0,-1,0l0,-1l1,0ZM267.5,231.5l-1,0l0,1l1,0l0,-1ZM262.5,254.5l-1,0c0,0,0,1,0,1l1,0c0,0,1,0,1,0l-1,0c0,0,0,-1,0,-1ZM250.5,251.5l-1,-1l1,-1l1,1ZM250.5,260.5c0,0,-1,0,-1,0c-1,0,-1,0,-2,0c0,-1,0,-1,-1,-2c0,0,0,-1,0,-1c0,-1,0,-1,0,-1c0,0,0,-1,0,-1l0,-1l1,0l0,-1l1,0c0,0,-1,0,-1,1l0,1l0,1c0,0,0,1,0,1c0,0,1,0,1,1c1,0,1,0,1,0c0,0,1,0,2,0c0,0,1,0,2,0c0,0,1,-1,1,-1c1,0,1,0,1,-1l0,-1c0,0,0,-1,0,-1c-1,-1,-1,-1,-1,-1c0,-1,0,-1,0,-1l-1,-1l1,-1l1,0c0,0,0,1,0,1c0,1,0,1,0,1c0,0,1,1,1,1c0,0,0,1,0,1c0,1,0,1,0,1c0,1,0,2,-1,2c0,1,0,1,-1,2c0,0,-1,1,-2,1c0,0,-1,0,-2,0ZM247.5,244.5l4,-2l-1,1l-4,2ZM365.5,253.5l0,1l1,0l0,-1l-1,0ZM366.5,261.5c-1,0,-1,0,-1,0c0,1,-1,1,-1,1c0,0,-1,0,-1,0l-1,0c0,0,-1,0,-1,0c-1,-1,-1,-1,-1,-1l1,0c1,0,1,0,1,0c0,0,1,0,1,0c1,0,1,-1,1,-1c0,0,1,0,1,-1c0,0,1,0,1,0c0,0,0,-1,0,-1c1,-1,1,-2,1,-2l-1,0l-1,0c-1,0,-1,0,-1,0l0,-1l0,-1c0,-1,0,-1,1,-2l0,-1c0,0,1,0,1,0l1,0c0,1,0,1,0,1c0,0,0,1,1,1c0,0,0,1,0,1c0,1,0,1,0,1c0,1,0,1,0,1c0,1,-1,2,-1,3c0,0,0,1,-1,1c0,0,0,1,0,1ZM363.5,247.5l4,-2l0,1c-1,0,-1,0,-1,0l-4,2ZM359.5,257.5c-1,0,-1,0,-1,0l-1,0c0,-1,0,-1,-1,-1l-1,0c0,0,0,1,0,1l-1,0l-1,0c-1,0,-1,0,-2,0c0,0,0,-1,-1,-2c0,1,0,1,0,2c-1,0,-1,0,-2,0l-1,0c0,0,-1,0,-1,0c0,0,-1,0,-1,0c0,-1,0,-1,0,-1l-1,0c-1,1,-1,1,-2,1l-1,0c-1,0,-1,0,-1,0c-1,0,-1,0,-1,0c0,0,-1,0,-1,0c0,-1,0,-1,0,-1l0,-1c-1,1,-1,1,-2,1c0,0,-1,0,-1,0c-1,0,-2,0,-3,0c0,0,-1,0,-2,0c-1,1,-2,1,-3,1c-1,0,-2,0,-3,0c-1,0,-2,0,-3,0c0,0,-1,0,-2,0c-1,0,-2,0,-3,0l-1,0l-1,0c0,0,-1,0,-1,0l-1,0l0,-1l-1,0c-1,1,-1,1,-2,1l-1,0c0,0,-1,0,-1,0c0,0,-1,0,-1,0c0,-1,0,-1,0,-1l0,-1l-1,-1l0,1c0,0,-1,0,-1,1l-1,0c0,0,-1,0,-1,0l-1,-1l0,-1c0,0,1,-1,1,-1c0,-1,1,-1,2,-2c0,0,1,0,1,0l0,-1l0,-1l1,1c0,0,0,1,0,1c0,0,0,1,0,1l0,2c0,0,0,1,1,1c1,1,1,1,1,1l1,0l1,-1l1,0c1,-1,1,-1,1,-1l1,1c0,0,1,1,1,1l1,0l0,-1l1,1c1,0,1,-1,2,-1c1,0,2,0,3,0c1,0,2,0,2,0c1,0,2,0,2,0c1,0,2,0,3,0c1,0,2,0,2,0c1,0,2,-1,3,-1c1,0,2,0,3,0c1,0,2,0,3,0c0,0,0,-1,0,-1c0,0,-1,0,-1,-1l-1,0c-2,0,-3,0,-5,1c-2,0,-4,0,-6,0c-2,0,-3,0,-4,0c-2,0,-4,0,-4,0c0,0,0,-1,0,-1c0,0,0,-1,0,-1c0,-1,1,-1,1,-1c0,0,0,-1,1,-1c0,-1,1,-2,2,-2c1,-1,2,-2,3,-2c1,0,1,0,1,0l-1,2l-1,0c-1,1,-2,1,-2,2c-1,0,-2,1,-3,2l0,1c0,0,1,0,1,0l1,0l1,0c1,0,3,0,5,0c2,-1,4,-1,6,-1c2,0,3,0,4,0c1,0,1,0,2,0c0,0,1,1,1,1c0,0,0,1,0,1c0,0,0,1,0,1c0,1,-1,1,-1,1c0,0,0,1,0,1l2,0l1,0l1,-1l1,0c1,-1,1,-1,1,-1l1,1c0,0,1,1,1,1l1,0c0,0,1,0,1,-1c0,0,1,0,1,0c0,-1,0,-1,0,-1l0,-1c0,-1,0,-1,0,-1l0,-7l1,-2l0,11l0,1l1,0c0,1,0,1,1,1l1,0l1,-1l1,-1c0,-1,0,-1,1,-2l1,0l1,0c0,1,0,1,0,2l0,1c0,1,0,1,0,1l0,1ZM357.5,254.5l0,1l1,0l0,-1l-1,0c0,0,-1,0,-1,0c0,0,1,0,1,0ZM354.5,244.5l4,-2l0,1l-5,2ZM162.5,237.5c-1,1,-2,1,-3,1l-1,0l-1,0l-1,-1c0,1,-1,1,-1,1l0,-1l1,-1c1,1,2,1,3,1l1,0l1,0l1,0l0,-1ZM352.5,236.5c-1,1,-2,1,-3,1l-1,0c0,0,-1,0,-1,0l-1,0l-1,1l0,-1l1,0l1,-1c1,0,2,0,3,0l1,0l1,0l1,0ZM343.5,260.5c0,-1,1,-1,1,-2l1,0l1,0c0,0,0,1,0,1l0,1l-1,0l0,-1l-1,0c0,0,0,1,-1,1l1,0l0,1l1,0l1,0l1,0l-1,0l-4,2l1,-1l1,0c-1,-1,-1,-1,-1,-2ZM346.5,265.5l-4,2c0,0,1,-1,1,-1l4,-2ZM319.5,241.5l4,-2c0,1,0,1,0,1l-5,2ZM313.5,252.5l-2,-1l-1,1l-1,-1l1,-1l1,1l1,-1l1,1ZM309.5,244.5l5,-2l-1,1l-4,2ZM305.5,252.5l-1,0l0,1l-1,0l0,1l1,0l1,0l0,-1ZM392.5,257.5l0,-1l0,-1l0,-8l0,-3l1,11c0,1,0,1,0,1c0,1,-1,1,-1,1ZM388.5,257.5l-1,0c-1,0,-1,0,-1,-1c-1,0,-1,-1,-1,-1c0,0,-1,1,-1,1c0,1,-1,1,-2,1c0,0,-1,0,-1,0c-1,-1,-1,-2,-1,-3l0,1c0,0,-1,1,-1,1c0,0,-1,0,-2,0c0,0,-1,0,-1,0l-1,-1c0,0,1,-1,1,-1c0,0,0,-1,1,-1c0,0,1,-1,1,-1l1,0l1,-1l-1,-1l1,0c0,-1,0,-1,0,-1l0,1l0,1l1,3c0,1,0,1,0,1c1,0,1,0,1,0c1,0,1,0,2,0c0,0,0,-1,0,-1c0,-1,0,-1,0,-3c0,0,0,-1,0,-1c0,0,0,-1,0,-1l0,-1l0,-1l1,2l0,2l0,2c0,1,1,1,1,1c0,0,0,1,1,1l1,0c0,-1,0,-1,0,-1c0,0,0,-1,0,-1l0,-2l-1,-1l0,-1l0,-1l1,0l0,-1c0,1,0,1,0,1c0,1,0,1,0,2l1,2c0,0,0,1,0,1c0,1,0,2,0,2c0,1,-1,1,-1,1c0,0,0,1,0,1ZM380.5,252.5l-1,0c0,1,0,1,0,1c-1,0,-1,0,-1,0c0,0,-1,1,-1,1c1,0,2,0,2,0c0,0,1,0,1,-1ZM374.5,244.5l5,-2c-1,0,-1,1,-1,1l-4,2ZM382.5,243.5l0,1l0,1l1,0c0,0,0,-1,0,-1l0,-1l1,0l0,1l1,0l0,-1l1,-1l0,1l0,1c0,1,-1,1,-1,1l-1,0l-1,0l0,1l-1,0c-1,0,-1,0,-1,0l0,-1l0,-1l1,-1ZM414.5,257.5l0,-1l0,-1l0,-8l1,-3l0,11c0,1,0,1,0,1c0,1,0,1,-1,1ZM417.5,261.5l-4,2c1,-1,1,-1,1,-1l4,-2ZM406.5,251.5l-2,-1l1,-1l2,1ZM406.5,260.5c-1,0,-1,0,-2,0c-1,0,-1,0,-1,0c-1,-1,-1,-1,-1,-2c-1,0,-1,-1,-1,-1c0,-1,0,-1,0,-1c0,0,0,-1,0,-1c0,0,1,0,1,-1l0,-1c0,0,1,0,1,0l0,1c-1,0,-1,0,-1,1l0,1c0,0,0,1,0,1c1,0,1,0,1,1l1,0c1,0,1,0,2,0c1,0,1,0,2,0c1,0,1,-1,2,-1l0,-1l0,-1c0,0,0,-1,0,-1c0,-1,0,-1,-1,-1c0,-1,0,-1,0,-1l0,-1l0,-1c1,0,1,0,1,0c0,0,0,1,0,1c1,1,1,1,1,1c0,0,0,1,0,1c0,0,0,1,0,1c0,1,0,1,0,1c0,1,0,2,0,2c-1,1,-1,1,-2,2c0,0,-1,1,-1,1c-1,0,-2,0,-2,0ZM407.5,240.5l-6,3c0,-1,1,-2,1,-2l5,-2Z" class="g1_67" />
</svg>