<?xml version="1.0" encoding="UTF-8" standalone="no"?>
<!DOCTYPE svg PUBLIC "-//W3C//DTD SVG 1.1//EN"
"http://www.w3.org/Graphics/SVG/1.1/DTD/svg11.dtd">
<svg version="1.1" xmlns="http://www.w3.org/2000/svg" xmlns:xlink="http://www.w3.org/1999/xlink">
<defs>
<style type="text/css"><![CDATA[
.g2_7{
fill: #1F1A17;
stroke: #1F1A17;
stroke-width: 1;
stroke-linecap: butt;
stroke-linejoin: miter;
}
.g1_7{
stroke: #1F1A17;
stroke-width: 1;
stroke-linecap: butt;
stroke-linejoin: miter;
}
]]></style>
</defs>
<path fill-rule="evenodd" d="M192.5,53.5c0,0,0,-1,1,-1c0,0,1,0,1,0c1,0,1,0,1,0c1,1,1,1,1,1c0,1,0,1,-1,1c0,0,0,1,0,1c0,0,-1,0,-1,0c0,0,-1,0,-1,0l-1,0l2,0c0,-1,1,-1,1,-1c0,0,0,-1,-1,-1c-1,0,-1,0,-2,1c0,-1,0,-1,0,-1ZM247.5,55.5l0,-1c0,0,0,-1,0,-1c0,-1,0,-2,-1,-2l1,0l0,-1l0,1c1,0,1,1,1,1l0,1c0,0,0,1,0,1c-1,0,-1,0,-1,1ZM174.5,61.5c0,1,0,2,0,3l-1,0l0,1l-1,1l2,0l-1,0l0,1l-1,0l0,1l-1,0c0,0,-1,1,-1,1l-1,0l-1,1l-1,0l-1,1l-1,1l-3,0l-3,0l-1,-1l-1,-1c-1,-1,-2,-1,-3,-1l-1,0l0,-1l-1,0l0,-1l-1,0l0,-1l-1,0l2,-1l-1,0l0,-1l-1,0l0,-1c0,-1,0,-1,0,-1l0,-1l0,-1c0,0,0,-1,1,-1c0,-1,0,-1,0,-1l0,-1l-1,0c0,0,1,0,1,-1l1,0l0,-1l1,0l0,-1l1,0l1,0l2,-1l1,-1c0,-1,1,-1,1,-1l3,0l3,0l1,1l1,1l2,1l1,0c0,0,1,0,1,1l1,0l0,1c1,0,1,0,2,1l-1,0l0,1l0,1l1,0l0,1l0,1ZM165.5,72.5l0,-1l1,0l0,-1l1,-1c1,0,1,0,2,0l1,0c0,-1,1,-1,1,-1l1,-1l1,-1l-1,0l0,-1l1,0l0,-1l1,-1l0,-1l0,-1c0,0,0,-1,-1,-2l0,-1l-1,0l0,-1l1,0c0,-1,0,-1,-1,-1l-1,-1l-1,0l0,-1l-1,0l-2,-1l-1,0l0,-1l-1,0c0,-1,0,-1,0,-1l-1,0l-2,0l-1,0l-2,0l0,1l-1,0l0,1c-1,0,-1,0,-1,0l-2,1l-1,0l0,1l-1,0l-1,1c0,0,-1,0,-1,1l1,0l-1,1l0,1l-1,1l0,1l0,1l0,1l1,0l0,1l0,1l1,0l0,1l-1,0l0,1l1,0l1,0l0,1l1,0l0,1l1,0l2,0c0,1,0,1,1,1l0,1c1,0,1,1,1,1l3,0ZM171.5,57.5l-1,0l-1,0l0,-1l-1,0c-1,0,-1,-1,-1,-1l1,0l1,0l1,1ZM171.5,66.5l0,1l-1,0l-1,1l-1,0l-1,0l1,0c0,0,-1,0,-1,0c1,0,1,0,1,-1l1,0c0,0,1,-1,1,-1l1,0ZM166.5,68.5c0,1,0,1,0,1c0,1,-1,1,-1,1l-3,0l-3,0c0,0,-1,0,-1,-1l0,-1c0,0,0,-1,1,-1l3,0l3,0l1,0l0,1ZM166.5,55.5c0,0,0,1,-1,1l-3,0l-3,0c0,0,-1,0,-1,-1c0,-1,0,-1,0,-1l0,-1l1,0l3,0l3,0c0,0,1,0,1,1ZM165.5,57.5l1,0l1,0c0,0,1,0,1,0l1,1l1,0c0,0,1,0,1,0l0,1l0,1l1,0l0,1l0,1c0,1,0,1,-1,1l0,1l0,1l-1,0l-1,0l0,1c-1,0,-1,0,-1,0l-1,0l-1,0c0,0,-1,0,-1,0l-3,0l-3,0l-1,0l-1,0c0,0,-1,0,-1,0c0,0,-1,0,-1,-1l-1,0l-1,0l0,-2l-1,0l0,-1l0,-1c0,-1,0,-1,1,-1l0,-1l0,-1l1,0l1,0l1,-1c0,0,1,0,1,0c1,0,1,0,1,0l1,0l3,0ZM165.5,65.5l0,1l1,0l1,0l1,0l0,-1l1,0c0,0,0,-1,0,-1l1,1l1,-1l0,-1l0,-1l0,-1c0,0,0,-1,0,-1c0,-1,0,-1,0,-1c0,-1,-1,-1,-1,-1l-1,0l-1,0l0,-1l-1,0c-1,0,-1,0,-1,0c-1,0,-1,0,-1,0l-3,0l-3,0l-1,0l-1,0c-1,0,-1,0,-1,0l0,1l-1,0l-1,0c0,0,-1,0,-1,1l0,1l0,1l0,1l0,1c0,1,0,2,1,2l1,-1c0,0,0,1,0,1l1,0l0,1l1,0c1,0,1,0,1,0c0,0,1,0,1,0l0,-1l3,0l3,0ZM165.5,60.5l-1,1l-1,0l0,1l1,1c0,0,-1,0,-1,1l0,-1l0,-1c0,0,0,-1,0,-1l-1,0l1,-1l1,0l1,0ZM162.5,60.5c0,0,-1,0,-1,1l-1,0l0,1l0,1l0,1l0,-1l0,-1c0,0,0,-1,0,-1l-1,0l1,-1l1,0l1,0ZM153.5,57.5l1,-1l1,-1l1,0l1,0c-1,0,-1,1,-1,1c-1,0,-1,0,-1,0l-1,1l-1,0ZM153.5,66.5l1,0c0,0,0,1,1,1l1,0l0,1l1,0l-1,0l1,0c-1,0,-1,0,-1,0c-1,0,-2,0,-2,-1l-1,0l0,-1ZM226.5,64.5l0,-1l0,-1l0,-9l1,-2l0,11c0,0,0,1,0,1c0,0,0,1,-1,1ZM219.5,62.5l1,0c1,0,1,0,1,0c0,0,0,-1,0,-1l0,-2l0,-6c0,0,0,-1,0,-1c-1,0,-1,0,-1,0c0,0,1,-1,1,-1c0,0,0,-1,0,-1l0,1l1,0c0,1,0,1,1,1c-1,0,-1,0,-1,1l0,1l0,-1c0,1,0,1,0,1c0,0,0,1,0,2l0,2c0,1,0,1,0,1l0,2c0,0,0,1,0,1c0,1,0,1,-1,1c0,0,0,1,0,1c-1,0,-1,0,-1,0l-1,0l-1,0c0,1,0,1,0,1c0,1,-1,2,-1,2c0,0,0,1,-1,1l0,1c-1,0,-1,0,-1,0c-1,0,-1,1,-1,1c-1,0,-1,0,-1,0l-1,0c0,0,-1,0,-1,-1c-1,0,-1,0,-1,0l1,0c1,0,1,0,2,0c0,-1,1,-1,1,-1c0,0,1,0,1,-1l1,-1c0,-1,1,-1,1,-2l0,-1l-1,0l0,-1c0,0,0,-1,1,-1c0,0,0,1,0,1l1,0ZM214.5,53.5c0,1,0,1,0,1c1,0,1,0,1,0c0,-1,0,-1,0,-1l0,-1l1,0l0,1c0,0,1,0,1,-1l0,-1l0,1l0,1c0,1,0,1,0,1l-1,0l-1,0c0,1,-1,1,-1,1c0,0,0,-1,0,-1l0,-1ZM218.5,50.5l-6,3c1,-1,1,-2,1,-2l6,-3ZM210.5,61.5l-2,0c-1,0,-1,0,-2,0l-1,1l-1,0l-1,1c-1,0,-1,0,-1,0c-1,0,-1,0,-1,1c-1,0,-2,0,-3,0l-1,0c-1,0,-1,0,-1,-1c0,0,-1,0,-1,0l0,-1c0,1,0,1,-1,2c0,0,-1,0,-1,0l-1,0c-1,0,-1,0,-2,0c0,0,0,-1,0,-1c0,1,-1,1,-1,2l-1,0l-1,-1c-1,0,-1,0,-1,0l-1,1l-1,1c0,0,-1,0,-2,1c-1,0,-3,0,-4,0l4,-2l2,-1c0,0,1,0,1,-1l1,-2c0,0,1,-1,1,-1l1,0c0,0,1,0,1,1c1,0,1,1,1,1c1,0,1,0,1,0c1,0,1,0,1,0l1,0l1,0c1,0,1,0,1,-1l0,-1l1,0l0,1c0,1,0,1,0,1c1,0,1,0,1,0l1,0c1,0,1,0,1,0c1,0,1,0,2,0c0,0,1,0,1,0l2,-1l-1,-1l-1,0l-1,0l0,-1l-1,0c0,0,0,1,0,1l-1,0c0,-1,0,-1,1,-1c0,-1,0,-1,0,-1c1,0,1,0,1,0c0,0,1,0,1,0l1,0l2,1l1,0c0,1,1,1,1,1c0,0,1,0,1,0c0,0,1,0,1,0l1,0ZM203.5,67.5l-5,2c1,0,1,-1,1,-1l4,-2ZM196.5,67.5l-1,-1l-1,2l-1,-1l1,-2l1,1l1,-1l1,1ZM188.5,63.5l0,-1c0,-1,0,-1,0,-1c-1,0,-1,0,-1,0c0,1,0,1,0,1l1,1ZM185.5,52.5c0,-1,1,-1,1,-1c0,-1,0,-1,1,-1c0,1,1,1,1,1c0,1,-1,1,-1,1l0,1l1,0l0,2l-2,-1l0,1c-1,0,-1,1,-1,1l-1,0l-1,0l1,-1c1,0,1,0,1,0l0,-1l1,0l-1,-1l0,-1ZM186.5,52.5l0,1l1,0l0,-1ZM277.5,64.5l0,-1l0,-1l0,-9l0,-2l1,11c0,0,0,1,0,1c0,0,-1,1,-1,1ZM269.5,62.5c1,0,1,0,1,0c1,0,1,0,1,0c0,0,1,0,1,0c0,0,0,-1,0,-1l0,-2l-1,-6c0,0,0,-1,0,-1c0,0,0,-1,0,-1c1,0,1,-1,1,-1l0,1c1,1,1,1,1,1l0,1l0,1l0,-1c0,1,0,1,0,1c0,0,0,1,0,2l0,2c0,1,0,1,0,1l0,2c0,0,0,1,0,1c-1,1,-1,1,-1,1c0,0,0,1,-1,1l-1,0l-1,0c0,1,0,1,0,1l-1,0c0,1,0,2,0,2c0,0,-1,1,-1,1l-1,1l-1,0c0,0,0,1,0,1c-1,0,-1,0,-1,0l-1,0c0,0,-1,0,-1,-1c-1,0,-1,0,-1,0l1,0c1,0,1,0,2,0c0,-1,0,-1,1,-1l1,-1l0,-1c1,0,1,0,1,0c0,-1,0,-1,1,-2l0,-1c-1,0,-1,0,-1,0l0,-1c0,0,0,-1,0,-1l1,0c0,0,0,1,0,1c1,0,1,0,1,0ZM265.5,53.5c0,1,0,1,0,1l1,0c0,-1,0,-1,0,-1l0,-1l0,1c0,0,1,0,1,0l0,-1l1,-1l0,1l0,1c0,1,0,1,-1,1c0,0,-1,0,-1,0c0,1,-1,1,-1,1l-1,0c0,0,0,-1,0,-1l0,-1ZM269.5,50.5l-6,3c1,-1,1,-2,1,-2l5,-3ZM251.5,59.5c1,0,1,0,1,-1l1,0l1,0l1,0l1,0l1,0l-2,-1l-1,-1c-1,0,-1,0,-2,0l0,-1c1,0,1,0,2,0c1,0,1,0,2,0l2,2c1,0,1,0,1,0l1,1l1,0l1,1l1,0l-1,1l-1,0l-1,0l-2,-1l-2,0c-1,0,-1,0,-2,0c-1,0,-1,0,-1,0c0,1,0,1,0,1l0,1l1,0l0,1c-1,0,-1,0,-1,0l0,1c0,1,-1,1,-1,1l0,-1l-1,0l-1,-1l-1,1c0,0,0,1,0,1l-1,0l-1,0l-2,0l0,1c0,1,0,1,0,1c0,1,0,1,0,2c-1,0,-1,1,-2,1c0,1,-1,1,-2,2c0,0,-1,0,-2,0c0,0,-1,0,-2,0c0,0,-1,-1,-1,-1c-1,0,-1,-1,-1,-1c0,-1,-1,-1,-1,-2l1,-1l0,-1l0,-1l1,0c0,0,0,-1,0,-1c0,1,0,1,0,1c0,1,0,1,0,1c0,0,-1,0,-1,1c0,1,1,1,1,1c0,1,0,1,0,1c1,0,1,0,1,1c1,0,2,0,3,0c0,0,1,0,2,0c1,-1,1,-1,2,-1c0,-1,0,-1,0,-1l0,-1l0,-1l0,-1l-1,-1l1,-2c0,1,0,1,0,1c1,0,1,0,1,0l2,0l1,0c0,0,1,0,1,0l1,-1c0,-1,0,-1,1,-2ZM252.5,50.5c0,-1,0,-1,1,-1c0,0,1,0,1,0c1,0,1,0,1,0c1,0,1,1,1,1c0,0,0,1,-1,1c0,0,0,1,0,1l-1,0c0,0,-1,0,-1,0l-1,0l2,-1c0,0,1,0,1,0c0,-1,0,-1,-1,-1c-1,0,-1,0,-2,0c0,0,0,1,0,1l0,-1ZM251.5,61.5l1,1c0,0,0,-1,0,-1c0,-1,0,-1,-1,-1l0,1ZM240.5,62.5l-1,-1l0,-2l2,1ZM240.5,48.5c0,0,1,0,1,-1l1,0c0,0,0,1,0,1l0,1c0,0,0,1,0,1l1,0l-1,1l-1,0l0,1c-1,0,-1,0,-1,0l-1,0l0,1l-1,0l0,-1l1,0c1,0,1,-1,1,-1l1,-1l-1,0c0,0,0,-1,0,-1l0,-1ZM241.5,48.5c0,0,0,1,0,1l1,0l-1,0ZM303.5,63.5l-1,0l-1,0c-1,0,-1,0,-2,0l-1,0c0,0,-1,1,-1,1c0,0,-1,0,-1,0l-1,0l-1,0l-1,0c0,0,0,1,0,1c0,0,-1,1,-1,1c0,1,0,1,-1,1c0,1,0,1,-1,1c0,1,0,1,0,1c0,0,-1,0,-1,0l-1,0l-1,0c0,0,-1,0,-1,0c-1,0,-1,0,-1,0c0,0,0,-1,0,-1l1,0c0,1,0,1,0,1c1,0,1,-1,2,-1l1,0c0,-1,1,-1,1,-1l1,-1c0,-1,0,-1,1,-1c0,0,0,-1,0,-1l-1,0c0,0,-1,0,-1,0c-1,-1,-1,-1,-1,-1c0,0,0,-1,0,-1c0,-1,0,-1,0,-1c0,0,0,-1,1,-1c0,-1,0,-1,1,-1c0,0,1,0,1,0c0,1,0,1,0,1l1,1c0,1,0,1,0,1c0,0,1,0,1,0c0,0,1,0,1,0c1,0,1,0,1,0c0,0,1,0,1,0c0,0,0,-1,0,-1c0,0,0,-1,0,-1c0,-1,0,-1,0,-1c0,0,1,0,1,0c0,0,0,-1,0,-1l0,-1c0,0,0,-1,1,-1c1,0,1,0,2,1c1,1,1,1,1,1c1,1,1,1,1,2c1,0,1,0,1,1c0,1,0,1,0,1l-1,1ZM299.5,59.5c-1,0,-1,0,-1,1l0,1c0,0,1,0,1,0c1,-1,1,-1,1,-1c0,0,0,-1,0,-1c-1,0,-1,0,-1,0ZM301.5,59.5c0,0,0,1,0,1l0,1l-1,0l1,0l1,1l1,0c0,0,0,-1,0,-1c-1,0,-1,0,-1,-1l-1,0c0,0,0,-1,0,-1ZM296.5,45.5c0,-1,0,-1,0,-1c1,0,1,0,1,0l1,0l0,1l0,1l-1,0l1,1l0,1l-1,-1l0,1l-1,0c0,1,-1,1,-1,1l-1,0l1,-1l1,-1c0,-1,-1,-1,-1,-1l1,-1ZM297.5,45.5l-1,0l1,1l0,-1ZM291.5,61.5l-1,0c0,1,0,1,0,1l1,0c0,0,1,0,1,0c0,0,-1,0,-1,-1ZM287.5,54.5l4,-2l0,1l-4,2Z" class="g1_7" />
<path fill-rule="evenodd" d="M226.5,380.5l-3,2c0,-1,0,-1,0,-1l4,-2ZM261.5,323.5c1,0,1,-1,1,-1c1,0,1,0,2,0c0,0,1,0,1,0c1,0,1,1,1,1c0,1,-1,1,-1,1c0,0,0,1,-1,1c-1,0,-1,0,-1,0l-1,0l1,-1c1,0,2,0,2,0c0,-1,-1,-1,-1,-1l-1,0c0,0,-1,0,-1,1l-1,0c0,-1,0,-1,0,-1ZM201.5,333.5l0,-1l0,-1l0,-9l0,-2l1,11c0,0,0,1,0,1c0,0,-1,1,-1,1ZM129.5,329.5c0,0,-1,0,-1,0c0,1,0,1,0,1c1,0,1,0,1,0l1,0c0,-1,0,-1,0,-1c-1,0,-1,0,-1,0ZM129.5,337.5c-1,0,-1,0,-1,0c-1,1,-1,1,-2,1c-1,0,-1,0,-2,-1l-1,0c1,0,1,0,1,0c0,0,1,0,1,0l1,0c1,0,1,-1,1,-1l1,0c0,0,0,-1,1,-1l0,-1c1,0,1,0,1,-1c0,0,1,-1,1,-1c0,-1,-1,-1,-1,-1c0,1,0,1,0,1c-1,0,-1,0,-1,0c0,0,-1,0,-1,0c0,-1,0,-1,0,-1c-1,0,-1,0,-1,0c0,-1,0,-1,0,-1l1,0c0,-1,0,-1,0,-1c0,0,0,-1,0,-1c0,0,1,-1,1,-1l1,0c0,0,1,1,1,1l0,1l0,1c0,0,0,1,0,1c0,0,0,1,0,1c0,1,0,2,0,3c-1,0,-1,0,-1,1c0,0,-1,0,-1,1ZM126.5,323.5l4,-2l0,1l-4,2ZM123.5,332.5l-1,0l-1,0c-1,0,-1,0,-2,0l0,-1c0,1,0,1,-1,1c0,0,-1,0,-1,0c0,1,-1,1,-1,1c0,0,-1,0,-1,0l-1,0l-1,0l0,-1c-1,0,-1,0,-1,0c-1,0,-1,0,-1,0c-1,1,-2,1,-3,1l-1,1c0,0,-1,0,-1,0c0,0,-1,0,-1,0l-1,0l-1,0c-1,0,-2,0,-3,0c-1,-1,-2,-1,-3,-2l0,-1c-1,0,-1,0,-1,0c0,-1,0,-1,0,-1c1,-1,1,-1,1,-1c0,-1,0,-1,1,-2c0,1,0,1,0,1c-1,1,-1,1,-1,1c0,1,0,1,1,1c0,1,1,1,1,1c0,1,1,1,1,1c0,0,1,0,1,0c1,0,2,0,3,0c1,0,2,0,2,0c1,0,1,0,2,0c1,0,1,0,1,0c0,-1,0,-1,0,-1c1,0,2,0,2,0c1,-1,2,-1,2,-2c0,1,0,1,0,1l0,1c0,0,1,0,1,0l1,0c1,0,1,0,1,0l1,0c0,0,0,-1,0,-1c0,0,0,-1,0,-1l0,-1l1,-1c0,0,0,-1,0,-1c0,-1,0,-1,0,-1c1,0,1,0,1,0c0,0,1,0,2,1c0,0,1,1,1,1c1,1,1,1,1,2c0,0,1,0,1,0c0,1,0,1,0,1c0,0,0,1,0,1l-1,1ZM119.5,328.5l-1,0l0,1c0,1,0,1,1,1c1,-1,1,-1,1,-1c0,0,0,-1,-1,-1ZM121.5,328.5c0,1,0,1,0,1c0,1,0,1,-1,1l1,0l1,1l1,0c0,-1,0,-1,-1,-1l0,-1c0,0,-1,0,-1,0c0,0,0,-1,0,-1ZM118.5,320.5l4,-2l-1,0l0,1l-4,2ZM104.5,338.5l-1,-1l1,-2l1,1ZM102.5,322.5l1,0c0,0,1,-1,1,-1c1,0,1,1,2,1l0,1l-1,1l-1,0c0,0,-1,0,-1,0c-1,0,-1,0,-1,0l2,0c0,0,1,-1,1,-1c-1,0,-1,0,-1,0c-1,0,-1,0,-2,0l0,-1ZM182.5,332.5c0,0,-1,0,-2,0c0,0,-1,0,-1,0l0,-1c-1,1,-1,1,-1,1l-1,0c-1,1,-1,1,-1,1c-1,0,-1,0,-1,0c-1,0,-1,0,-1,0l-2,0c0,0,-1,0,-1,0l0,-1l-1,0c0,-1,0,-1,0,-1c-1,0,-1,1,-1,1c-1,0,-1,1,-2,1c0,0,-1,0,-1,0l-1,0c-1,0,-1,-1,-1,-1c0,0,-1,0,-1,-1l0,-1l1,0l0,1l1,0l1,0l1,0c1,0,1,0,1,0l1,-1l1,0c0,0,0,-1,0,-2l-1,-2l0,-1l1,-1l0,1c0,0,0,1,0,2l1,2c0,0,0,1,0,1c0,0,0,1,0,1c0,0,1,0,1,0l2,0c0,0,1,0,1,0l1,0c0,0,1,0,1,0c0,0,-1,-1,-1,-1c0,0,0,-1,1,-1l0,-1l0,-1c1,0,1,0,1,0c0,0,0,-1,0,-1c0,-1,0,-1,0,-1l1,0c0,0,1,0,2,1c0,0,0,1,1,1c0,1,1,1,1,2c0,1,0,1,0,1c0,0,0,1,0,1l0,1c0,0,-1,0,-1,0ZM179.5,328.5c-1,0,-1,0,-1,0l-1,1l1,0c0,1,0,1,0,1c1,0,1,0,1,0c0,-1,0,-1,0,-1c0,0,0,-1,0,-1ZM180.5,328.5c0,1,0,1,0,1c0,1,0,1,0,1l2,1c0,-1,0,-1,0,-1l-1,-1c0,0,-1,-1,-1,-1ZM177.5,320.5l4,-2l0,1l-4,2ZM165.5,320.5l4,-2l0,1l-4,2ZM160.5,336.5l-1,-1l-1,1l-2,0l1,-2l2,1l0,-1l2,1ZM157.5,333.5l-1,0l-1,0c0,0,-1,0,-1,0l-1,-1l-1,1c0,0,-1,0,-2,0c-1,0,-1,0,-1,0c-1,0,-1,0,-1,-1l0,-1c-1,1,-1,1,-2,2l-1,0l-1,0l-1,0c-1,0,-1,0,-2,-1c0,0,0,-1,0,-2l-1,-8l1,-2l0,9l0,1l1,0l0,1c0,0,1,0,1,0l1,0l1,0c0,0,1,0,1,0c0,0,1,0,1,0c0,0,0,-1,0,-1l1,-1c0,1,0,1,0,1c0,1,0,1,1,1l1,0l1,0l1,0c1,0,1,0,1,-1l0,-1l0,-1l0,-1l1,2c0,1,0,1,0,1c0,1,0,1,1,1l1,0l1,0c1,0,1,0,2,0c0,0,1,0,1,0l0,-1l0,-1c-1,0,-1,0,-1,-1l1,-1l0,1c0,0,0,1,1,1c0,0,0,1,0,1c0,0,-1,1,-1,1c0,0,0,1,0,1c0,0,-1,1,-1,1c-1,0,-1,0,-2,0ZM156.5,318.5c0,0,1,0,1,0c0,0,1,0,1,0c1,0,1,0,2,0l0,1c0,0,0,1,0,1c-1,0,-1,0,-1,1c0,0,-1,0,-1,0l-1,0c0,0,-1,0,-1,0l2,-1c1,0,1,0,2,-1c-1,0,-1,0,-1,0c-1,0,-1,0,-1,0c-1,0,-1,0,-1,0c-1,0,-1,0,-1,1l0,-1l0,-1ZM153.5,325.5l-1,-1l-1,1l-1,-1l0,-1l2,1l1,-1l1,1ZM149.5,320.5l4,-2l0,1l-4,2ZM147.5,328.5l-2,-1l1,-1l2,1ZM144.5,320.5l4,-2l0,1l-1,0l-4,2ZM203.5,335.5l-4,2c1,-1,1,-1,1,-1l4,-2ZM194.5,322.5l-1,-1l0,-1l2,1ZM198.5,332.5l-1,0c-1,1,-2,1,-2,1l-1,0l-1,0l-1,0l0,-1c0,0,0,-1,0,-1l1,0c1,0,1,0,2,0l1,0l1,-1c0,0,0,-1,0,-1c0,0,0,-1,-1,-1l0,-1l-1,0l-1,0l0,-1l0,-2c0,0,1,0,1,1c0,0,1,0,1,0l0,1c1,0,1,0,1,0c0,0,0,1,1,1c0,1,0,1,0,2c0,0,0,1,0,1c0,0,0,1,0,1l0,1ZM191.5,315.5l1,0c0,-1,1,-1,1,-1c1,0,1,0,2,1c0,1,0,1,-1,1c0,1,0,1,0,1l-1,0c0,0,-1,0,-1,0c-1,0,-1,0,-1,0l2,0c0,0,1,-1,1,-1c-1,0,-1,0,-1,0c-1,0,-1,0,-2,0c0,0,0,-1,0,-1ZM233.5,337.5l-1,-1l1,-2l1,1ZM231.5,333.5l-1,0l-1,0l-1,0c0,0,-1,-1,-1,-1l-1,0l0,-1l-1,1c-1,0,-1,0,-1,0c0,1,-1,1,-1,1l-1,0l-1,0l-1,0l-1,0l-1,-1c0,-1,0,-1,0,-1l-1,0c0,0,0,1,0,1l-1,0c0,0,-1,1,-1,1c0,0,-1,0,-2,0c-1,0,-1,0,-1,0c0,0,0,-1,-1,-1l0,-1l0,-1l1,0l0,1l1,0l1,0c1,0,1,0,1,0l1,0l0,-1c0,0,1,0,1,0c0,0,0,-1,0,-2l0,-2l0,-1l0,-1l1,1c0,0,0,1,0,2l0,2c0,0,1,1,1,1c0,0,0,1,0,1l1,0l1,0l1,0l1,0c1,0,1,0,1,0l0,-1c1,0,1,0,1,0l-1,0c0,0,0,-1,-1,-1l-1,0l1,-2c1,0,1,0,2,0l1,0l1,0c0,0,1,0,1,0c0,1,0,1,0,1c0,1,0,1,0,1c0,0,-1,1,-1,1c0,0,0,1,0,1c0,0,1,0,1,0l1,0l1,0l1,0c0,0,1,0,1,0c1,0,1,0,1,0l0,-1l0,-1l0,-1l0,-1c0,0,1,0,1,0l0,1l0,1l0,1c0,0,0,1,0,1c0,0,0,1,0,1c-1,0,-1,1,-2,1c0,0,-1,0,-1,0ZM231.5,320.5l4,-2l-1,1l-4,2ZM222.5,318.5l1,0c0,0,1,0,1,0c1,0,1,0,1,0c1,0,1,0,1,1c0,0,0,1,-1,1l0,1c0,0,-1,0,-1,0c0,0,-1,0,-1,0l-1,0l2,-1c0,0,1,0,1,-1l-1,0c-1,0,-1,0,-2,0l0,1l0,-1l0,-1ZM213.5,320.5l4,-2l0,1l-4,2ZM275.5,323.5l-1,-1l-1,1l-1,0l1,-2l1,1l1,-1l1,1ZM277.5,331.5l-1,0c0,1,0,1,0,1c-1,0,-1,1,-2,1c-1,0,-1,0,-2,0c-1,0,-1,0,-2,0c0,-1,-1,-1,-1,-2c0,1,0,1,-1,1c0,1,0,1,0,1l-1,0l-1,0c-1,0,-1,1,-1,1c0,0,0,1,0,1c0,1,-1,1,-1,1c0,1,0,1,-1,1c0,0,0,1,-1,1c0,0,-1,0,-1,0c0,0,-1,0,-1,0c-1,0,-1,0,-2,0l-1,-1l1,0c0,0,1,0,1,0c0,0,1,0,1,0c1,0,1,0,2,0c0,-1,0,-1,0,-1c1,0,1,-1,1,-1c0,0,1,0,1,-1c0,-1,0,-1,0,-1l1,0c-1,0,-1,0,-1,0l-1,0l-1,0c0,-1,0,-1,0,-1l0,-1l0,-1c0,-1,0,-1,0,-1l1,0c0,-1,0,-1,0,-1c0,0,1,0,1,0c1,0,1,1,1,1c0,1,0,1,0,1c1,1,1,1,1,1l1,0l1,0c0,0,1,0,1,-1c0,0,0,-1,0,-1l0,-1l-1,-7l1,-2l1,11c0,0,0,1,0,1c1,0,1,0,1,0l1,0c1,0,1,0,2,0c1,0,2,0,2,-1c0,-1,0,-1,0,-1l-1,0c0,1,0,1,-1,1l0,-1c-1,0,-1,0,-1,0c0,0,0,-1,0,-1c0,-1,0,-1,0,-1c0,-1,0,-1,0,-1c0,0,0,-1,1,-1c0,0,0,-1,1,-1l1,1l0,1c0,0,1,0,1,0c0,0,0,1,0,1c0,0,0,1,0,1c0,0,0,1,0,1c0,1,0,1,0,2ZM274.5,327.5c1,0,1,0,1,0c0,0,0,-1,0,-1l-1,0l0,1ZM273.5,314.5c0,-1,0,-1,1,-1c0,0,0,-1,0,-1l1,0c0,0,0,1,0,1l0,1l0,1l0,1l0,1l-1,-1l-1,1c0,0,0,1,-1,1l-1,0l1,-1l1,0l0,-1l1,0l-1,0l0,-1l0,-1ZM274.5,314.5c0,0,-1,0,-1,0l1,0l0,1l0,-1ZM268.5,314.5c1,-1,1,-1,1,-1c0,0,1,-1,1,-1c0,0,0,1,0,1c0,0,1,0,1,1l-1,0l0,1l1,1l0,1l-1,-1l-1,0l0,1c-1,0,-1,1,-1,1l-1,0l-1,0l1,0l1,-1l0,-1l1,0l-1,-1l0,-1ZM270.5,314.5l-1,0l0,1l1,0l0,-1ZM263.5,330.5c0,1,0,1,0,1c0,0,1,0,1,0l1,0c-1,0,-1,0,-1,0c0,0,0,-1,0,-1l-1,0ZM256.5,337.5l-1,-1l1,-2l1,1ZM254.5,333.5l-1,0l-1,0c-1,0,-1,0,-1,-1c-1,0,-1,0,-1,0l0,-1c0,1,0,1,-1,2c0,0,-1,0,-1,0l-1,0l-1,0c-1,0,-1,0,-2,-1c0,0,-1,-1,-1,-2l0,-8l1,-2l0,9l0,1l1,0l0,1l1,0l1,0l1,0c1,0,1,0,1,0c0,0,1,-1,1,-1l0,-1l1,0c0,1,0,1,0,1c0,0,-1,0,-1,0c1,1,1,1,1,1c1,0,1,0,1,0l1,0l1,0c0,0,1,0,1,0c1,0,1,0,1,0l0,-1l0,-1l0,-1l-1,0l1,-1l1,0l0,1l0,1l0,1c0,0,0,1,0,1c0,0,0,1,-1,1c0,0,0,1,-1,1c0,0,-1,0,-1,0ZM254.5,320.5l4,-2l-1,1l-4,2ZM249.5,328.5l-1,-1l1,-1l1,1ZM246.5,320.5l5,-2l-1,1l-4,2ZM305.5,325.5l-1,-1l-1,1l-1,-1l1,-2l1,1l1,-1l1,1ZM303.5,331.5c1,0,1,0,2,0c0,0,1,0,1,0l0,-1l0,-1c0,0,-1,0,-1,0l0,-1l1,-1l0,1l1,1l0,1c0,0,0,1,-1,1c0,0,0,1,0,1c0,0,-1,1,-1,1c-1,0,-1,0,-2,0l-1,0l-1,0c0,0,0,1,0,1c0,1,0,1,0,2c-1,0,-1,1,-1,1l-1,1l-1,0l-1,0c0,1,0,1,-1,1c0,0,-1,-1,-2,-1l-1,0l1,0c0,0,0,-1,0,-1c0,0,0,1,1,1c1,0,1,0,2,-1l1,0c0,0,0,-1,1,-1l0,-1c0,0,1,0,1,-1l1,-1l0,-1l-1,0l0,-1c0,-1,0,-1,0,-1c1,0,1,0,1,1c0,0,1,0,1,0l1,0ZM304.5,314.5c0,-1,0,-1,0,-1c0,0,1,-1,1,-1c0,0,0,1,0,1c1,0,1,0,1,1l0,1c-1,0,-1,0,-1,0l1,0l0,1l0,1l-1,-1l-1,0l0,1c-1,0,-1,1,-1,1l-1,0l-1,0l1,0l1,-1l1,-1l0,-1c-1,0,-1,0,-1,0l0,-1l1,0ZM305.5,314.5l-1,0l0,1l1,0l0,-1ZM300.5,328.5l-1,-1l1,-2l1,1ZM301.5,343.5l-5,2c1,0,1,-1,1,-1l4,-2ZM287.5,323.5l-1,-1l1,-2l1,1ZM292.5,329.5c0,0,-1,1,-2,1c-1,1,-1,1,-2,1c0,1,-1,2,-1,3c-1,0,-1,1,-1,1c0,1,0,1,0,1c0,1,0,1,0,2c1,1,1,1,2,2l1,1c0,0,1,0,2,0c1,0,2,0,3,0c0,0,1,0,2,0c0,0,1,0,2,0l-4,2c0,0,-1,0,-2,0c-1,0,-2,0,-2,0c-1,0,-2,0,-2,-1c-1,0,-1,0,-1,-1c-1,0,-1,-1,-2,-2l0,-1c0,0,0,-1,0,-1c0,0,0,-1,0,-2c0,-1,1,-1,1,-2c0,-1,1,-2,1,-3c0,0,-1,0,-1,-1l0,-1c0,-1,0,-1,0,-1c0,-1,0,-1,0,-1c0,-1,0,-1,1,-1c0,-1,0,-1,0,-1c1,0,1,0,1,0l1,0c0,0,1,0,1,0c0,0,1,1,1,1l-1,0l-1,0c0,0,-1,0,-1,0c0,1,0,1,0,1c-1,0,-1,0,-1,0c0,0,0,1,0,1c-1,0,-1,0,-1,0c0,0,1,1,1,1l1,0c0,1,0,1,0,1c1,0,1,0,1,0c1,0,1,0,2,-1l1,0c1,-1,1,-1,2,-1ZM285.5,311.5l1,0l1,0c0,0,1,0,1,0c1,0,1,0,1,1c0,0,-1,1,-1,1c0,0,-1,1,-1,1c-1,0,-1,0,-1,0l-1,0l2,-1c0,0,1,0,1,-1l-1,0c-1,0,-1,0,-2,0l-1,0c1,0,1,0,1,-1ZM324.5,331.5l-1,1l1,0ZM325.5,334.5c-1,0,-1,0,-2,0c-1,0,-1,0,-2,0c-1,0,-1,0,-1,0c0,0,-1,0,-1,0c0,-1,0,-1,0,-1c1,0,1,0,1,0c0,-1,0,-1,0,-1c0,0,0,1,0,1l1,0c0,-1,0,-1,1,-1l0,-1l1,0l0,-1l-1,-1c-1,-1,-1,-1,-2,-2c0,0,0,-1,-1,-1c0,-1,0,-1,-1,-1c0,0,0,-1,0,-1c0,0,-1,0,-1,1l-1,-1l0,-1c0,0,-1,0,-1,0c0,-1,0,-1,0,-1c0,0,0,-1,0,-1c0,0,1,0,1,0c0,0,1,0,1,1c1,0,1,1,2,1c1,1,1,2,2,2c0,1,1,1,1,2c1,1,1,1,1,1c0,1,1,1,1,1l0,-1c0,-1,0,-1,0,-2c0,-1,0,-1,0,-2l0,-1c0,0,0,-1,0,-1c0,-1,0,-1,0,-1c0,0,0,-1,0,-1c1,0,1,-1,1,-1c0,1,0,1,0,1c1,1,1,1,1,1l0,1c0,1,-1,1,-1,1c0,0,0,1,0,2l0,1c0,0,0,1,0,1c0,1,0,1,0,2c-1,0,-1,1,-1,1l0,1c0,0,1,0,1,0c0,0,0,1,0,1l0,1c0,1,0,1,0,1ZM321.5,317.5l6,-3c-1,1,-1,1,-1,2l-6,2ZM349.5,336.5c1,0,1,0,1,0l1,0c1,0,2,0,3,-1l1,-1c0,0,1,-1,1,-1c0,0,0,-1,0,-1c1,0,1,-1,1,-1l-1,0l0,-1l0,-1c-1,0,-1,0,-1,0l1,-1l0,-1l1,1l0,1l0,1l0,1c0,1,0,1,0,2c0,0,0,1,0,1c-1,0,-1,1,-1,1c0,0,0,1,-1,1l-1,1c0,0,-1,0,-1,0c0,0,-1,0,-1,0c-1,0,-1,0,-1,0c-1,0,-1,0,-1,-1ZM352.5,323.5l4,-2l0,1l-4,2ZM348.5,337.5l-1,-1l1,-2l1,1ZM346.5,333.5l-1,0c-1,0,-1,0,-1,0c-1,0,-1,0,-1,-1c-1,0,-1,0,-1,-1c0,1,0,1,-1,2c0,0,-1,0,-1,0l-1,0l-1,0c-1,0,-1,0,-2,-1c0,0,-1,-1,-1,-2l0,-8l1,-2l0,9l0,1l1,0l0,1l1,0l1,0l1,0l1,0l1,0c0,0,0,-1,0,-1l0,-1l1,0c0,1,0,1,0,1c0,1,0,1,0,1c1,0,1,0,2,0l1,0c0,0,1,0,1,0c1,0,1,0,2,0l0,-1c0,0,-1,0,-1,-1l0,-1l1,-1l0,1l0,1l0,1c0,0,0,1,0,1c0,0,0,1,0,1c-1,0,-1,1,-2,1c0,0,-1,0,-1,0ZM346.5,321.5l0,1c0,0,1,0,1,-1l0,-1l0,1l1,0l0,-1l1,0l0,1l0,1c0,0,-1,0,-1,0c0,0,-1,0,-1,0l0,1c-1,0,-1,0,-1,0l-1,0c0,0,0,-1,0,-1l0,-1ZM350.5,318.5l-5,2c0,0,0,-1,0,-1l5,-2ZM342.5,328.5l-2,-1l1,-1l2,1ZM339.5,320.5l4,-2l0,1l-1,0l-4,2ZM300.5,362.5c1,0,1,0,1,0c1,0,1,0,2,0c0,0,1,0,1,0c0,0,1,0,1,0c0,0,0,1,-1,1l0,1c0,0,-1,0,-1,0l-1,0c0,0,0,1,-1,1c0,0,0,-1,0,-1l1,0c1,0,1,-1,2,-1c-1,0,-1,0,-1,0c0,0,-1,0,-1,0c0,0,-1,0,-1,0c0,0,-1,0,-1,0c0,-1,0,-1,0,-1ZM180.5,363.5c0,0,1,0,1,-1c1,0,1,0,1,0c1,0,2,0,2,0c0,1,0,1,0,1c0,1,0,1,0,1c0,1,-1,1,-1,1l-1,0l-1,0l-1,0l2,0c1,-1,1,-1,2,-1c-1,0,-1,0,-1,0c0,-1,-1,-1,-1,-1c0,0,-1,1,-1,1c0,0,-1,0,-1,0c0,0,0,-1,0,-1ZM330.5,361.5c0,0,1,-1,1,-1c0,0,1,0,1,0c1,0,1,0,2,0c0,1,0,1,0,1c0,1,0,1,0,1c-1,0,-1,1,-1,1c0,0,-1,0,-1,0l-1,0l-1,0l2,0c1,-1,1,-1,2,-1c-1,0,-1,-1,-1,-1c-1,0,-1,0,-1,0c0,0,-1,0,-1,1c-1,0,-1,0,-1,0c0,-1,0,-1,0,-1ZM190.5,379.5l0,-1l0,-1l0,-8l1,-3l0,11l0,1c0,1,-1,1,-1,1ZM103.5,377.5c0,1,0,1,-1,2l0,1c-1,0,-1,1,-1,1l1,0l0,1l-1,0l0,1l-1,0l0,1c0,0,-1,0,-2,0l-1,1l-1,0l-1,0l0,1l-1,1l-4,0c0,0,-1,0,-1,0l-1,-1c0,-1,0,-1,-1,-1c-1,0,-1,-1,-2,-1l-1,0l-1,-1l-1,-1l-1,0l0,-1l1,0l0,-1l-1,0l0,-1l0,-1l0,-1l0,-1l0,-1l0,-1c0,0,1,0,1,-1l-1,-1l1,0l0,-1l1,0l0,-1l1,0l1,0l1,-1l1,-1c1,0,1,0,1,0l1,-1c0,0,0,-1,1,-1l4,0l0,1l1,0l0,1l1,0l2,1l1,0l0,1l1,0l0,1l1,0c0,0,1,1,1,1l-1,1l1,0l0,1l0,1l1,0l0,1ZM94.5,387.5l0,-1l1,0l0,-1l1,0c0,0,1,0,1,-1l1,0c1,0,1,0,2,-1c0,-1,1,-1,1,-1l1,0l0,-1l-1,0l0,-1l1,0l0,-1l0,-1l0,-1c0,-1,0,-2,0,-2c0,-1,0,-1,0,-1c0,0,-1,-1,-1,-1l0,-1l1,0c0,0,-1,-1,-1,-1l-1,0l0,-1l-1,0l-2,-1l-1,0c0,0,-1,-1,-1,-1l-1,-1l-4,0l-1,0l-1,1c0,0,0,1,0,1l-2,0l-1,1l-1,0l-1,1c-1,0,-1,1,-2,1l2,0l0,1l-1,0l0,1l-1,1l0,1l0,1l0,1l0,1l1,0c0,1,0,1,0,1l1,1l-2,0l1,1l1,0l0,1l1,0l0,1l1,0l1,0l1,1c1,0,1,0,1,0l1,1c0,1,1,1,1,1ZM99.5,372.5l-1,0l0,-1l-1,0c0,0,-1,0,-1,0l0,-1l1,0c1,0,1,1,1,1c0,0,1,0,1,0l0,1ZM99.5,382.5l-1,1l-1,0l0,1l-1,0l0,-1c0,0,1,0,1,0l1,-1l1,-1l0,1ZM95.5,384.5l0,1c-1,0,-1,0,-1,0l-4,0c-1,0,-1,0,-1,0c0,0,0,-1,0,-1c0,0,-1,0,-1,0c0,-1,1,-1,1,-1l1,-1l4,0l0,1l1,0ZM95.5,370.5l0,1c-1,0,-1,0,-1,0l-4,0c-1,0,-1,0,-1,0l0,-1l-1,0c0,0,1,-1,1,-1l1,0l4,0l1,0l0,1ZM94.5,372.5c1,0,1,0,1,0c1,0,1,0,2,0c0,0,0,1,0,1l1,1l1,-1l1,1l0,1l0,1l0,1l0,1l0,1c0,0,0,1,0,1c-1,0,-1,0,-1,0l-1,0l-1,1l-1,0l0,1l-1,0l-1,0c0,-1,0,-1,0,-1l-4,0l-1,0c0,1,0,1,0,1l-1,0c0,0,-1,0,-1,-1c0,0,-1,0,-1,0l0,-1l-1,0l-1,0l-1,-2l0,-1c0,-1,0,-1,0,-1c0,0,0,-1,0,-1l0,-1l1,0c0,-1,0,-1,0,-1l2,1c0,0,0,-1,0,-1l1,-1c0,0,1,0,1,0c0,0,1,0,1,0l1,0ZM94.5,381.5c1,0,1,0,1,0l1,0l1,0l1,-1l1,0l0,-1l1,0l0,-1l0,-1c0,-1,0,-1,0,-2c0,0,0,-1,-1,-1l0,-1l-1,1l-1,-1l-1,-1l-1,0l-1,0l0,1l-4,0l-1,-1l-1,0l-1,0l0,1l-1,0c0,1,0,1,-1,1l-1,-1c0,0,0,1,0,1l0,1l-1,1l0,1l0,1l1,0l0,1c0,0,0,1,0,1l1,0c1,0,1,0,1,0l0,1l1,0l1,0c1,0,1,0,1,0l1,0l4,0ZM92.5,375.5l0,1l0,1l1,0l0,1l0,1l-1,-1l0,-1l-1,0c0,0,0,1,0,1l-1,1l0,-1c0,0,1,0,1,-1l0,-1l1,-1ZM84.5,372.5l0,-1l1,0l1,0l0,-1l1,0l1,0l-1,0c0,1,0,1,1,1c-1,0,-1,0,-1,0l-1,0l0,1l-1,0l-1,0ZM84.5,382.5l1,-1c0,1,0,1,1,1l0,1l1,0l1,0c-1,0,-1,0,-1,0l0,1l-1,0c0,-1,-1,-1,-1,-2l-1,0ZM158.5,379.5l0,-1l0,-1l-1,-8l1,-3l1,11l0,1c-1,1,-1,1,-1,1ZM150.5,378.5c1,0,1,0,1,0c1,0,1,0,1,-1c0,0,1,0,1,0l0,-1l0,-2l-1,-6c0,0,0,-1,0,-1l0,-1c1,0,1,0,1,0l0,1c0,0,1,0,1,0c0,0,0,1,0,1c0,0,0,1,0,1c0,0,0,1,0,2c0,0,0,1,0,2c0,1,0,1,0,2l0,1l0,1l-1,1l0,1c0,0,-1,0,-1,0l-1,0l-1,0l-1,0c0,1,0,1,0,1c0,1,0,1,-1,2l0,1c-1,0,-1,0,-1,1c-1,0,-1,0,-1,0l-1,1c-1,0,-1,0,-1,0l-1,0c0,0,-1,0,-1,-1c0,0,-1,0,-1,0c0,0,1,0,1,0c1,0,1,0,2,0c0,-1,1,-1,1,-1c0,0,1,0,1,-1l1,0c0,-1,0,-1,0,-1c1,0,1,-1,1,-1c0,0,0,-1,0,-1c0,0,-1,0,-1,0l-1,0c0,0,-1,0,-1,-1c0,0,0,-1,0,-1c0,0,0,-1,0,-1c1,0,1,0,1,0c0,-1,0,-1,0,-1c0,0,1,0,1,0c0,0,1,0,1,0c1,0,1,1,1,1l0,1l0,1c1,0,1,0,1,0ZM150.5,361.5c1,0,1,0,1,0c1,0,1,0,2,0c0,0,1,0,1,0c1,0,1,0,1,1c-1,0,-1,1,-1,1l-1,0c0,0,0,1,0,1c-1,0,-1,0,-1,0l-1,0l1,-1c1,0,2,0,2,-1c0,0,-1,0,-1,0l-1,0c0,0,-1,0,-1,0l-1,0l0,-1ZM147.5,376.5c0,0,-1,1,-1,1c0,0,1,0,1,0c0,1,0,1,1,1c0,-1,0,-1,0,-1c0,0,-1,0,-1,-1ZM143.5,370.5l4,-3l0,1l0,1l-4,2ZM140.5,379.5l-1,0l-1,-1c-1,0,-1,0,-2,0l-1,0c0,0,0,1,0,1c0,0,-1,0,-1,0c0,0,-1,0,-1,0c0,0,-1,0,-1,0l-1,0l-1,0c-1,0,-1,0,-2,0c0,-1,-1,-1,-1,-2l0,-9l1,-2l0,10l0,1l1,0c0,0,0,1,1,1l2,0c1,0,1,0,1,0c0,-1,1,-1,1,-1l0,-1c0,-1,0,-1,0,-1l0,-1l1,0c0,-1,0,-1,0,-1c0,-1,0,-1,0,-1c1,0,1,-1,1,-1c0,0,1,1,2,1c0,1,1,1,1,2c1,0,1,1,1,1c0,0,1,1,1,1l0,1c0,1,0,1,-1,1c0,1,0,1,0,1ZM136.5,374.5l-1,0c0,1,0,1,0,1c0,1,0,1,0,1l1,0c1,0,1,0,1,-1l-1,0c0,-1,0,-1,0,-1ZM138.5,375.5c0,0,0,1,0,1l-1,1l1,0l1,0l1,0l-1,-1c0,-1,-1,-1,-1,-1ZM133.5,365.5l0,1c1,0,1,0,1,0l0,-1l0,-1l1,0l0,1c1,0,1,0,1,0l0,-1l0,1l0,1l-1,0l-1,0l0,1l-1,0l0,-1l0,-1ZM137.5,362.5l-5,3c0,-1,0,-1,0,-2l6,-2ZM116.5,384.5l-1,-1l1,-2l1,1ZM124.5,377.5c-1,1,-1,1,-2,1c-1,1,-2,1,-3,1c-2,1,-3,1,-4,1c-1,0,-3,0,-3,0c-2,-1,-2,-1,-3,-1c0,-1,0,-1,-1,-2c0,0,0,-1,0,-1c0,-1,0,-1,0,-1c1,-1,1,-1,1,-2c0,0,1,0,1,0l0,1c0,0,-1,0,-1,0c0,1,0,1,0,1c0,1,0,1,0,1c1,1,1,1,2,2c0,0,1,0,1,0l1,0l1,0l2,0c1,0,1,0,2,0l1,0l1,-1l1,0c0,0,1,0,1,0c1,-1,2,-1,2,-1l0,-1c-1,-1,-1,-1,-1,-1l0,-1c0,0,0,-1,1,-1c0,0,0,1,0,1c0,0,0,1,0,1l1,0l0,1c0,0,0,1,-1,1c0,1,0,1,0,1ZM116.5,367.5c0,0,0,-1,0,-1c1,0,1,0,1,0l1,0l0,1l0,1l-1,0l1,1l0,1l-1,-1l0,1l-1,0c0,1,-1,1,-1,1l-1,0l1,-1l1,0l0,-1c0,-1,0,-1,0,-1c0,-1,0,-1,0,-1ZM117.5,367.5l-1,0l0,1l1,0l0,-1ZM188.5,365.5l5,-2l-1,0c0,1,0,1,0,1l-4,2ZM184.5,373.5l-1,-1l1,-2l1,1ZM184.5,379.5l-1,0c-1,0,-1,0,-1,0c0,0,-1,0,-1,0c0,-1,0,-1,0,-1c0,0,-1,0,-1,0c0,0,0,1,-1,1c0,0,-1,0,-2,1l-2,0c-1,0,-1,0,-1,0l-1,0l-1,0c-1,0,-3,0,-3,0c-2,0,-2,-1,-3,-1c0,0,0,-1,-1,-1c0,-1,0,-1,0,-1l0,-1c0,0,0,-1,0,-1c1,-1,1,-1,1,-1l1,0c0,0,-1,0,-1,1l0,1c0,0,0,1,0,1c1,0,1,1,2,1c0,0,1,0,1,0c0,0,1,0,1,0c1,1,2,1,3,1c1,0,1,0,2,0c0,-1,1,-1,2,-1c1,0,1,0,1,0c1,0,1,-1,2,-1c1,0,1,-1,1,-1l0,1l1,0c0,1,0,1,1,1l1,0c0,0,1,0,1,-1c1,0,1,0,2,0c0,0,0,-1,0,-1c0,0,-1,0,-1,0c0,-1,0,-1,0,-1l1,-2l0,1c0,0,0,1,0,1c0,0,0,1,0,1l0,1c0,0,0,1,0,1c-1,1,-1,1,-2,1c0,0,-1,0,-1,0ZM175.5,374.5l-2,-1l-1,1l-1,-1l1,-1l1,1l1,-1l1,0ZM172.5,366.5l5,-2l-1,1l-4,2ZM218.5,373.5l-2,-1l1,-2l2,1ZM217.5,379.5l-1,0c0,0,-1,0,-1,0c0,0,-1,0,-1,-1c0,0,-1,-1,-1,-2c0,0,0,1,0,1c-1,1,-2,1,-3,2l-1,0l-1,0l-1,1c0,0,-1,0,-1,0l-1,0l-1,0l-1,0l-1,0c-1,0,-2,-1,-3,-2c0,0,0,-1,0,-2c0,-1,0,-1,0,-1c0,0,0,-1,0,-1l1,0c0,0,-1,0,-1,1c0,1,1,2,3,2c0,1,1,1,1,1c1,0,2,0,2,0l1,0l1,0l1,0l1,0c2,-1,4,-2,4,-3l0,-1l0,-7l1,-2l0,11c0,0,0,1,1,1l0,1c0,0,1,0,1,0l1,0c1,0,1,0,2,-1c0,0,1,0,1,0c0,0,0,-1,0,-1c-1,-1,-1,-1,-1,-1l1,-2l0,1c0,0,0,1,0,1c0,0,1,0,1,0c0,0,0,1,0,1l0,1c-1,0,-1,1,-1,1c0,1,-1,1,-1,1c-1,0,-1,0,-2,0ZM218.5,365.5l0,1c1,0,1,0,1,0l0,-1l0,-1l1,0l0,1c0,0,1,0,1,0l0,-1l0,1l0,1l-1,0l-1,0l0,1c0,0,-1,0,-1,0l0,-1l0,-1ZM222.5,362.5l-6,3c1,-1,1,-1,1,-2l6,-2ZM207.5,374.5c0,1,-1,1,-2,1l-1,0l-1,-1l1,0l1,0l1,0l0,-1l-1,0c0,0,-1,0,-1,-1l1,0l0,-1c0,-1,1,-2,2,-2l0,1c-1,1,-1,1,-1,1l1,1c0,0,1,0,1,1c-1,1,-1,1,-1,1ZM203.5,366.5l5,-2l-1,1l-4,2ZM239.5,361.5c-1,0,-1,1,-1,1l-1,0l-1,0l-1,0c-1,0,-1,0,-1,0c0,-1,0,-1,0,-1c0,0,-1,0,-1,0c0,-1,0,-1,0,-1c0,-1,0,-2,0,-2c1,-1,1,-1,2,-1l-1,0c0,0,-1,0,-1,0l0,-1l1,0l1,0l1,0l1,0l0,1l-1,0c0,0,-1,0,-1,0c0,0,-1,1,-1,1l0,1c-1,0,-1,0,-1,0c0,1,0,1,1,1c0,0,0,1,0,1c1,0,1,0,1,0l1,0l1,0ZM236.5,359.5c-1,0,-1,0,-1,0c1,0,1,0,1,0ZM271.5,383.5c0,-1,0,-1,0,-1l1,1c1,0,2,-1,3,-1c0,-1,1,-1,1,-1c1,-1,1,-1,1,-2c1,0,1,0,1,-1c0,0,0,-1,0,-1l-1,-1c0,-1,0,-1,0,-1l0,-1l1,0c0,0,0,1,0,2l1,0l0,1l0,1c0,0,0,1,0,1c-1,0,-1,0,-1,0c0,1,0,1,0,1c0,1,0,1,-1,1c0,1,0,1,0,1c0,0,-1,1,-1,1l-1,0l-1,0l-1,0c0,0,-1,0,-1,0c0,0,-1,0,-1,0ZM273.5,370.5l5,-3l-1,1l0,1l-4,2ZM270.5,377.5l-2,0c-1,0,-1,0,-2,0l-1,0l-1,0l-1,1c-1,0,-1,0,-1,0c-1,1,-1,1,-1,1c-1,0,-2,0,-3,0l-1,0c-1,0,-1,0,-2,0l0,-1c-1,1,-1,1,-1,2l-1,0l-1,-1l-1,0l-1,-1l-1,1c0,0,-1,0,-1,0l-1,0l-1,0c0,0,-1,0,-1,0c0,0,-1,0,-1,0c0,-1,0,-1,0,-1c0,-1,-1,-1,-1,-2l0,1c0,0,-1,1,-1,1l-1,0c0,0,-1,0,-1,0l-1,0l0,-2c0,0,1,-1,1,-1c0,0,1,-1,2,-1c0,-1,1,-1,1,-1l0,-1l0,-1l1,1c0,0,0,1,0,1c0,1,0,1,0,1l0,2c0,1,0,1,0,1c1,0,1,0,1,0c0,0,0,1,0,1c1,0,1,0,1,0l1,0l1,0l1,-1c0,0,1,0,1,-1c1,-1,2,-2,2,-2l1,0l0,1l1,1l1,1c0,0,1,0,1,1l1,0l1,0c1,0,1,0,1,0c1,0,1,-1,2,-1c0,0,1,0,1,0l2,-1l-1,0l-1,-1l-1,0l-1,0l-1,0c0,0,0,-1,1,-1c0,0,0,-1,0,-1c1,0,1,0,1,0c0,0,1,0,1,0l1,1l2,0l1,1c0,0,1,0,1,0c0,0,1,0,1,0c0,0,1,0,1,0l1,0ZM262.5,364.5l1,0c0,0,0,-1,1,-1c0,0,1,1,1,1c1,0,1,0,1,0l0,1c0,0,-1,0,-1,1c0,0,-1,0,-1,0c-1,0,-1,0,-1,0l-1,0l2,0c0,0,1,-1,1,-1l-1,0c-1,0,-1,0,-2,0l-1,0l1,-1ZM254.5,378.5l-1,-1c0,-1,0,-1,-1,-1l-1,1l1,0l1,1ZM250.5,366.5l4,-2l0,1l-1,0l-4,2ZM243.5,370.5l-2,-1l-1,2l-1,-1l1,-2l1,1l1,-1l1,1ZM243.5,374.5l-1,0l0,1l-1,0c0,0,0,1,0,1l1,0l1,0l0,-1ZM242.5,365.5l-5,2l0,-1l6,-2c-1,0,-1,0,-1,0c0,1,0,1,0,1ZM237.5,365.5l0,-1l6,-2c-1,0,-1,1,-1,1ZM318.5,380.5c0,0,-1,0,-1,0c0,-1,0,-1,0,-1l0,-1c-1,0,-1,-1,-1,-1c0,0,0,1,0,1c0,0,-1,0,-1,0c0,1,-1,1,-2,1c0,0,-1,0,-1,0c0,0,-1,0,-1,0c-1,0,-1,0,-1,-1c0,-1,0,-1,0,-1c0,0,0,-1,0,-1c0,0,0,1,0,1c1,0,1,0,1,0c0,0,1,0,1,0c1,0,1,0,1,0c1,0,1,0,1,0c1,0,1,0,1,0c0,0,1,-1,1,-1l0,-1c0,-1,0,-1,-1,-2c0,0,0,-1,0,-1c0,0,0,-1,0,-1c1,0,1,-1,1,-1l0,2l1,1c0,1,0,2,0,2c0,1,0,1,0,1c0,1,0,1,0,1l0,-1c0,1,0,1,1,1c0,1,0,1,0,1c0,1,1,1,1,1c0,0,1,0,1,0c0,0,1,0,1,0c0,-1,-1,-2,-1,-3c0,0,0,-1,0,-2c0,0,0,-1,0,-1c0,-1,0,-2,0,-2c0,-1,0,-2,0,-3c0,0,0,-1,0,-1l0,-1c1,0,1,0,1,0l0,1l1,0c0,0,0,1,-1,1c0,0,0,1,0,1c0,0,0,1,0,2c0,0,0,1,0,2c0,1,0,1,0,2l0,1c1,1,1,2,1,2c0,0,0,1,-1,1c0,1,0,1,0,1c0,1,0,1,-1,1c-1,0,-1,0,-1,0c-1,-1,-1,-1,-1,-1ZM319.5,361.5l0,1l1,0l1,0l0,-1c0,0,0,1,0,1c0,0,1,0,1,0l0,-1l0,-1l1,0l0,1l0,1l-1,0c0,0,0,1,0,1l-1,0c-1,0,-1,1,-1,1c-1,0,-1,-1,-1,-1l0,-1l0,-1ZM324.5,358.5l-6,3c0,-1,1,-1,1,-1l5,-3ZM313.5,360.5l1,-1l1,0c0,0,0,1,0,1l0,1l0,1l0,1l-1,0l-1,1l-1,0l-1,0l1,0l0,-1c0,0,1,0,1,0l1,-1l-1,0c0,0,0,-1,0,-1c0,0,0,-1,0,-1ZM314.5,360.5l0,1l0,-1ZM303.5,373.5l-1,-1l1,-2l1,1ZM303.5,379.5l-1,0c-1,0,-1,0,-1,0c-1,0,-1,0,-1,-1c-1,0,-1,-1,-1,-2c0,0,0,1,-1,1c0,1,-1,1,-2,2c0,0,-1,0,-1,0l-1,0l-1,1c-1,0,-1,0,-1,0l-1,0l-1,0l-1,0l-1,0c-2,0,-2,-1,-3,-2c0,0,0,-1,0,-2c0,-1,0,-1,0,-1c0,0,0,-1,0,-1l1,0l-1,0l0,1c0,1,1,2,2,2c1,1,1,1,2,1c1,0,1,0,2,0l1,0l1,0l1,0l1,0c2,-1,4,-2,4,-3l0,-1l0,-7l1,-2l0,11c0,0,0,1,0,1l1,0l0,1c0,0,1,0,1,0l1,0c1,0,1,0,2,-1l1,0c0,0,0,-1,0,-1l-1,0c0,-1,0,-1,0,-1l1,-2l0,1c0,0,0,1,0,1c0,0,0,1,0,1l0,1c0,0,0,1,0,1c0,1,-1,1,-2,1l-1,0ZM293.5,374.5c-1,1,-1,1,-2,1l-1,0l-1,-1l1,0l1,0c0,0,1,0,1,0l0,-1l-1,0l-1,0l0,-1l0,-1l1,0c0,-1,1,-2,2,-2l0,1l-1,0c0,1,-1,1,-1,1c0,0,1,0,1,0l0,1c1,0,2,0,2,1l-1,0c0,1,0,1,0,1ZM289.5,366.5l4,-2l0,1l-4,2ZM346.5,372.5c-1,0,-1,0,-1,0l-1,0l-1,0l-1,-1l0,1l0,1l-1,0l-1,0l-2,0c0,0,0,1,0,1c0,0,0,1,0,1c0,0,0,1,0,2c0,0,-1,1,-1,1c-1,1,-2,1,-2,1c-1,1,-2,1,-3,1c0,0,-1,0,-1,-1c-1,0,-1,0,-2,0c0,-1,-1,-1,-1,-1c0,-1,0,-2,0,-2c0,0,0,-1,0,-1c0,0,0,-1,0,-1c0,0,0,-1,0,-1c0,0,1,0,1,0l0,-1l1,0c-1,0,-1,1,-1,1c0,0,0,1,0,1c0,1,0,1,0,1c0,1,0,1,0,1c0,0,0,1,1,1l1,0c0,1,1,1,2,1c1,0,1,0,2,-1c1,0,2,0,2,-1c0,0,0,-1,0,-1c0,0,0,-1,0,-1c0,0,0,-1,0,-1c0,-1,0,-1,0,-1l-1,0l1,-2l1,0c0,1,0,1,1,1l1,0l1,0c0,0,1,0,1,0l0,-1l1,-1c0,0,0,-1,1,-1c0,0,0,-1,1,-1c0,0,0,1,1,1c0,0,0,1,0,1l0,1l0,1c0,1,0,1,0,1ZM344.5,370.5l1,0l0,-1l-1,0c0,1,0,1,0,1ZM345.5,376.5l-4,2c0,-1,0,-1,0,-1l4,-2ZM333.5,370.5l-1,-1l1,-1l1,1ZM368.5,378.5c0,0,1,0,1,0l1,-1c0,0,1,0,1,-1l-1,-2l0,-6c0,0,0,-1,0,-1l0,-1l1,0l0,1l1,0c0,0,0,1,-1,1c0,0,0,1,0,1c0,0,0,1,0,2c0,0,0,1,0,2c0,1,0,1,0,2l0,1l0,1l0,1c0,0,-1,0,-1,1c0,0,-1,0,-1,0c0,0,-1,0,-1,0l-1,0c0,0,-1,0,-1,0l-1,0c0,0,0,-1,0,-1c-1,0,-1,0,-1,0l-1,0c0,1,0,1,-1,1l-1,0l-2,0c0,0,-1,0,-2,0c0,-1,0,-1,0,-2l-1,-9l1,-2l1,10l0,1c0,0,1,1,1,1l2,0c0,0,1,0,1,0c1,0,1,-1,2,-1c0,0,1,0,1,0c0,0,0,-1,0,-1c0,1,0,1,0,1c0,0,1,0,1,0c0,1,0,1,1,1l1,0ZM369.5,363.5l4,-2l0,1c0,0,-1,0,-1,0l-4,2ZM364.5,375.5l-2,-1l1,-1l2,0ZM362.5,370.5l4,-3l0,1c0,0,-1,0,-1,1l-4,2ZM224.5,378.5l0,-1l0,-1l0,-9l1,-2l0,11c0,0,0,1,0,1c0,0,0,1,-1,1Z" class="g1_7" />
<path fill-rule="evenodd" d="M247.5,584.5l-1,0l0,-1l1,1l0,-1l0,1ZM296.5,572.5c1,0,1,0,1,0c1,0,1,-1,2,-1c0,0,1,1,1,1c0,0,1,0,1,0l0,1c-1,0,-1,0,-1,1l-1,0l-1,0l-1,0l1,0c1,0,1,-1,2,-1c-1,0,-1,0,-1,0c0,0,-1,0,-1,0c0,0,-1,0,-1,0c0,0,-1,0,-1,0l0,-1ZM217.5,575.5l1,0c0,0,1,0,1,0c1,0,1,0,2,0l0,1l0,1c-1,0,-1,0,-1,0c-1,0,-1,0,-1,0c0,0,-1,0,-1,0c0,0,-1,0,-1,0l2,0c0,0,1,-1,1,-1c-1,0,-1,0,-1,0c-1,0,-1,0,-2,0l0,-1ZM128.5,587.5c0,1,0,1,1,1c0,0,0,-1,0,-1l-1,0ZM128.5,594.5c0,0,0,1,0,1c0,0,-1,0,-1,0c0,0,-1,0,-1,0l-1,0c0,0,-1,0,-1,0c-1,0,-1,0,-1,0c0,-1,0,-1,0,-1l1,0l0,1c1,0,1,-1,1,-1c0,0,1,0,1,0c0,0,1,0,1,0c0,-1,1,-1,1,-1c0,0,1,-1,1,-1l0,-1c1,-1,1,-1,1,-1c0,-1,0,-1,0,-1l-1,0c0,0,0,1,0,1l-1,0c-1,-1,-1,-1,-1,-1c0,0,0,-1,0,-1c0,0,0,-1,0,-1c0,-1,0,-1,1,-1c0,-1,0,-1,0,-1c0,0,1,0,1,0l1,0l0,1c1,1,1,1,1,2l0,1c0,0,0,1,0,1c0,1,-1,2,-1,2c0,1,0,1,-1,1c0,1,0,1,-1,1ZM126.5,581.5l4,-2c-1,1,-1,1,-1,1l-4,2ZM122.5,582.5l-2,-1l-1,2l-1,-1l1,-2l1,1l1,-1l2,1ZM120.5,589.5l1,0c1,0,1,-1,1,-1c0,0,0,-1,0,-1l-1,-1l1,-2c0,0,0,1,0,1l1,0l0,1l0,1l0,1c0,1,0,1,0,1c0,0,-1,0,-1,0c0,1,0,1,-1,1c0,0,-1,1,-1,1l-1,0l-1,0l0,-1l0,1l0,1c0,0,-1,1,-1,2l-1,0c0,1,0,1,0,1c-1,1,-1,1,-1,1c-1,0,-1,0,-1,0c-1,0,-1,0,-1,0l-1,0c0,0,-1,0,-1,0c0,0,-1,0,-1,-1c0,0,1,0,1,0c1,0,1,0,2,0c0,0,1,0,1,-1c0,0,1,0,1,0c0,0,0,-1,1,-1l0,-1c0,0,1,-1,1,-1c0,0,0,-1,0,-1c-1,-1,-1,-1,-1,-1l0,-1c0,0,1,0,1,0l1,1l1,0ZM120.5,574.5l4,-2l-1,1l-4,2ZM112.5,580.5c1,0,1,-1,1,-1c1,0,1,0,2,0c0,0,1,0,1,0c0,1,1,1,1,1c-1,1,-1,1,-1,1c0,0,0,1,-1,1l-1,0l-1,0l1,0c1,-1,1,-1,2,-1c0,0,-1,0,-1,-1c0,0,-1,0,-1,0c0,0,-1,0,-1,1l-1,0c0,-1,0,-1,0,-1ZM110.5,588.5l-1,0l-1,0c-1,0,-1,0,-2,0l-1,0l-1,0l0,1l-1,0c-1,0,-1,1,-2,1l-1,0c-1,0,-1,1,-2,1l-1,0l-1,0c0,0,-1,-1,-1,-1l-1,0c0,0,0,1,-1,1c0,0,-1,0,-1,0l-1,-1l-2,-1l0,1c-1,0,-1,1,-1,1l-1,0l-1,0c0,0,-1,0,-1,-1c0,0,-1,0,-1,0c0,-1,0,-1,0,-1c-1,1,-1,1,-1,1c-1,0,-1,1,-2,1l-2,0c0,0,-1,-1,-2,-1c0,-1,0,-1,0,-2l-1,-8l1,-3l1,10l0,1c0,1,1,1,1,1l2,0c0,0,1,0,1,0c0,0,1,0,1,-1c0,0,1,-1,1,-1l0,1l1,1c0,0,1,0,1,0l1,0l1,0l1,-1l1,-1c1,-1,2,-2,2,-2l0,1l1,1l1,0l0,1l1,0c0,1,0,1,1,1l1,0l1,0c0,0,1,0,1,0c0,0,1,0,2,0c0,-1,0,-1,1,-1l1,0l1,-1l-1,0l-1,-1l-1,0l-1,0l-1,0c0,0,0,-1,0,-1c0,0,1,0,1,0c0,-1,1,-1,1,-1l1,0c0,0,0,1,0,1l1,0l2,1l1,0l1,0l1,0c0,0,1,0,1,0l1,0ZM101.5,578.5l4,-3l0,1l-1,1l-4,2ZM93.5,589.5l0,-1c0,0,-1,-1,-1,-1l-1,0l0,1l1,0l1,1ZM90.5,575.5c0,0,1,0,1,0c0,0,1,0,1,0c1,0,1,0,2,0l0,1c0,0,0,1,0,1c-1,0,-1,0,-1,0c0,1,-1,1,-1,1l-1,0l-1,0l2,-1c1,0,1,0,2,-1c-1,0,-1,0,-1,0c-1,0,-1,0,-1,0c0,0,-1,0,-1,0c-1,0,-1,0,-1,0c0,0,0,-1,0,-1ZM83.5,586.5l-1,-1l0,-1l2,1ZM80.5,578.5l4,-2l0,1l-4,2ZM151.5,589.5c0,0,1,0,1,0c0,0,1,0,1,0c0,0,0,-1,0,-1c1,0,1,0,1,0l0,-2l-1,-7c0,-1,0,-1,0,-1c0,-1,0,-1,1,-1c0,1,0,1,0,1l1,0c0,1,0,1,0,2c0,0,-1,0,-1,0c0,1,0,1,0,2c0,0,0,1,0,3c0,0,1,1,1,1l0,1c0,0,0,1,-1,1c0,1,0,1,0,1c0,1,0,1,-1,1c0,0,-1,0,-1,0c0,1,0,1,-1,1l-1,0c0,0,-1,0,-1,-1c-1,0,-1,0,-1,0c0,-1,0,-1,0,-1l-1,0c0,1,0,1,0,1c-1,0,-1,0,-1,0c-1,0,-1,1,-2,1l-1,0c-1,0,-2,-1,-2,-1c-1,-1,-1,-1,-1,-2l-1,-8l1,-3l1,10l0,1c0,1,1,1,2,1l1,0c1,0,1,0,1,0c1,0,1,0,2,-1c1,0,1,0,1,0c0,0,1,0,1,0c0,0,0,1,0,1c0,0,1,0,1,0l1,0ZM152.5,574.5l4,-2l0,1l-4,2ZM147.5,586.5l-1,-1l0,-1l2,1ZM145.5,581.5l4,-2c0,1,0,1,0,1l-4,2ZM185.5,581.5l-1,-1l-1,2l-2,-1l1,-2l2,1l1,-1l1,1ZM183.5,590.5l-1,0c-1,0,-1,0,-2,0c0,-1,0,-1,-1,-1l0,-1l-1,0c0,0,-1,1,-1,1c0,0,-1,0,-1,0c0,0,-1,1,-1,1l-1,0l-1,0l-1,0c-1,0,-2,0,-2,0c-1,-1,-1,-1,-1,-1c-1,0,-1,0,-2,1c0,0,-1,0,-1,0l-1,0l-1,0l0,1c0,1,-1,1,-1,2l-1,1c-1,1,-1,1,-1,1c-1,0,-1,0,-1,0c0,0,-1,0,-1,0l-1,0c0,0,-1,0,-1,0c0,0,-1,0,-1,0l0,-1c0,0,1,0,1,0l0,1c1,0,1,-1,2,-1c0,0,1,0,1,0c0,-1,1,-1,1,-1c0,0,0,-1,1,-1l0,-1c1,0,1,0,1,-1c0,0,0,-1,0,-1c-1,0,-1,-1,-1,-1l0,-1c0,0,1,0,1,0l0,1l1,0l1,0c1,0,1,0,1,0l1,0c0,0,0,-1,0,-1l0,-1l0,-1c1,-1,1,-1,1,-1c0,0,0,-1,1,-1c0,0,1,-1,1,-1c1,0,1,1,1,1c0,0,1,1,1,2l0,1l-1,0c0,0,0,1,0,1c0,0,0,1,0,1l1,0l1,0l1,0l1,0c1,0,1,0,1,0c1,-1,1,-1,1,-1l-1,-1l-1,0l0,-1c0,0,0,-1,1,-1l1,0c0,0,1,0,1,0c0,0,1,0,1,0c0,0,1,0,1,0c0,0,0,1,0,1c0,1,0,1,0,1c0,0,-1,1,-1,1l1,0l0,1c1,0,1,0,2,0l1,0c0,0,1,0,1,0c1,0,1,0,2,-1c0,0,0,-1,-1,-1l0,-1l1,-2c0,1,0,1,0,1l0,1l0,1l0,1l0,1l0,1c-1,0,-1,0,-2,1c0,0,-1,0,-1,0ZM183.5,574.5l4,-3l0,1l-4,3ZM178.5,582.5l-2,-1l1,-2l2,1ZM174.5,572.5c0,0,0,-1,1,-1c0,0,1,0,1,0c1,0,1,0,2,0c0,1,0,1,0,1c0,1,0,1,0,1c-1,0,-1,1,-1,1c-1,0,-1,0,-1,0c0,0,-1,0,-1,0c0,0,-1,0,-1,0l2,0c0,-1,1,-1,1,-1c0,0,0,-1,0,-1c-1,0,-1,0,-1,0c-1,0,-1,0,-1,1c-1,0,-1,0,-1,0c0,-1,0,-1,0,-1ZM169.5,582.5l-1,-1l1,-2l1,1ZM170.5,584.5c-1,0,-1,1,-1,1c-1,0,-1,0,-1,0l0,1c0,0,1,1,1,1c1,0,1,0,1,-1c0,0,1,0,1,0c0,-1,0,-1,-1,-1c0,0,0,-1,0,-1ZM169.5,593.5l-4,2c0,-1,1,-1,1,-1l4,-2ZM158.5,579.5c1,0,1,0,1,-1c1,0,1,0,2,0c0,0,1,0,1,1c0,0,1,0,1,0c-1,1,-1,1,-1,1c0,1,0,1,-1,1c-1,0,-1,0,-1,0l-1,0l1,0c1,-1,1,-1,2,-1c0,0,-1,0,-1,0l-1,0c0,0,-1,0,-1,0l-1,0c0,0,0,-1,0,-1ZM204.5,589.5c0,0,1,0,1,0c0,0,1,0,1,0c0,0,0,-1,0,-1c1,0,1,0,1,0l0,-2l-1,-7c0,-1,0,-1,0,-1c0,-1,0,-1,1,-1c0,1,0,1,0,1c0,0,1,0,1,0c0,1,0,1,0,2c0,0,-1,0,-1,0c0,1,0,1,0,2c0,0,0,1,0,3c0,0,1,1,1,1l0,1c0,0,0,1,-1,1c0,1,0,1,0,1c0,1,0,1,-1,1c0,0,-1,0,-1,0c0,1,0,1,0,1l-1,0c-1,0,-2,-1,-2,-1l-1,0c0,0,0,1,0,1l-1,0c0,0,-1,0,-1,0c-1,0,-1,-1,-2,-1l0,1c0,1,-1,1,-1,1c-1,1,-1,1,-2,1c-2,0,-3,0,-4,0l4,-1l2,-1c0,0,0,-1,1,-1l1,-2c0,-1,0,-1,1,-1l0,-1l1,0c0,0,0,1,1,1c0,1,1,1,1,2c0,0,1,0,1,0l1,0ZM206.5,573.5c0,1,0,1,0,1l1,0c0,-1,0,-1,0,-1l0,-1l1,1l1,-1l0,-1l0,1l0,1c0,1,0,1,-1,1l-1,0c0,1,-1,1,-1,1l-1,0c0,-1,0,-1,0,-1l0,-1l1,0ZM210.5,570.5l-6,3c1,-1,1,-2,1,-2l5,-3ZM200.5,589.5l0,-1c0,0,-1,0,-1,0c0,0,-1,0,-1,0c0,1,1,1,1,1l1,0ZM196.5,580.5c0,0,0,-1,1,-1c0,0,1,0,1,0c1,0,1,0,1,0c1,1,1,1,1,1c0,1,0,1,-1,1c0,0,0,1,0,1l-1,0c0,0,-1,0,-1,0l-1,0l2,0c0,-1,1,-1,1,-1c0,0,0,-1,-1,-1c-1,0,-1,0,-2,1c0,-1,0,-1,0,-1ZM237.5,586.5c0,0,0,1,0,1c0,0,1,0,1,0l0,-1c0,0,-1,0,-1,0ZM237.5,594.5c0,0,-1,1,-1,1c0,0,-1,0,-2,0c0,0,-1,0,-2,0c0,-1,0,-1,0,-1l1,0c0,0,1,0,1,0l1,0c0,0,1,-1,1,-1c0,0,1,0,1,-1l1,0c0,-1,0,-1,0,-2c1,0,1,-1,1,-1c-1,0,-1,0,-1,0c0,0,-1,0,-1,0l-1,0c0,0,0,-1,0,-1c0,0,0,-1,0,-1c0,-1,0,-1,0,-2c1,0,1,0,1,-1l1,0c1,1,1,1,1,1c0,0,0,1,0,1c0,0,0,1,1,1c0,0,0,1,0,1c0,1,0,1,0,1c-1,1,-1,2,-1,3c0,0,-1,1,-1,1c0,0,0,1,-1,1ZM234.5,580.5l5,-2l-1,1l-4,2ZM220.5,584.5l-2,-1l1,-1l1,1ZM219.5,593.5c0,0,-1,0,-1,0c-1,0,-1,0,-2,-1l-1,-1c0,0,0,-1,0,-1c0,-1,0,-1,0,-1c0,-1,0,-1,0,-1l0,-1c1,0,1,0,1,0l0,-1l1,0l-1,1c0,1,0,1,0,1l0,1l0,1c0,0,1,0,1,1l1,0c0,0,1,0,2,0c1,0,1,0,2,0c1,0,1,-1,2,-1l0,-1c0,0,0,-1,0,-1c0,0,0,-1,0,-1l0,-1c0,0,-1,0,-1,-1l0,-1l0,-1c0,0,1,0,1,0l0,1c0,1,1,1,1,1c0,0,0,1,0,1c0,0,0,1,0,1c0,1,0,1,0,1c0,1,0,2,0,2c-1,1,-1,1,-2,2c0,0,-1,1,-1,1c-1,0,-2,0,-3,0ZM299.5,584.5l-1,-1l0,-2l2,1ZM299.5,591.5l-1,0l-1,0l-1,0c-1,0,-2,0,-2,-1c-1,0,-1,0,-1,0c-1,0,-1,0,-2,0c-1,0,-1,1,-2,1l-1,0l-1,-1c-1,0,-1,-1,-1,-1l0,-1l0,1c0,0,-1,0,-1,1c0,0,-1,0,-1,0c-1,0,-1,0,-2,-1l0,1c-1,0,-1,0,-2,1c-1,0,-1,-1,-2,-2c0,0,0,1,0,1c-1,0,-1,0,-2,1l-1,0c-1,0,-1,0,-1,-1c0,0,-1,0,-1,0c0,-1,0,-1,0,-1c-1,0,-1,0,-1,0c0,1,-1,1,-1,1l-1,0c0,0,-1,1,-1,1l-1,0l-1,0c-1,0,-1,-1,-2,-1c0,-1,-1,-1,-1,-2l0,-8l1,-3l0,10l0,1l1,0c0,1,1,1,1,1l1,0l1,0c0,0,1,0,1,0c0,0,1,0,1,-1c1,0,1,0,1,0l1,0c0,0,0,1,1,1l1,0l1,0l1,0c1,-1,1,-1,2,-2l0,1c0,0,1,1,1,1c1,0,1,0,2,-1l1,-1c0,0,0,1,0,1c1,0,1,0,1,0c1,0,1,0,1,0l1,0c0,-1,0,-1,0,-1c1,1,1,2,2,2l1,0l1,0c1,0,1,0,1,0c0,-1,0,-1,0,-1l0,-1c0,0,0,-1,0,-1c0,-1,1,-1,1,-1c0,-1,0,-1,0,-1c1,0,1,-1,2,-1c0,0,1,1,1,1c0,0,0,1,0,1l0,1c0,1,0,1,0,1c0,0,0,1,0,1l-1,1l1,0c1,0,1,0,1,0l1,0l2,0c0,0,1,0,1,0c1,0,1,-1,1,-1c0,0,0,-1,0,-1c0,0,0,-1,-1,-1l1,-2c0,0,0,1,0,1c0,0,1,0,1,0c0,1,0,1,0,1l0,1c0,1,0,1,0,1c0,1,0,1,0,1c0,0,-1,0,-1,0c0,1,0,1,-1,1c0,1,-1,1,-1,1ZM293.5,583.5l-1,-2l1,-1l1,1ZM293.5,585.5l-1,1c0,1,0,1,0,1l1,1c0,0,1,-1,1,-1l1,0c0,-1,-1,-1,-1,-1c0,-1,0,-1,-1,-1ZM292.5,572.5c0,-1,0,-1,0,-1c0,0,1,0,1,0c1,0,1,0,1,1l0,1c0,0,-1,0,-1,0l1,1l0,1l-1,-1l-1,1c0,1,-1,1,-1,1l-1,0c0,0,-1,0,-1,0l1,0l1,-1l1,-1c-1,-1,-1,-1,-1,-1l0,-1l1,0ZM293.5,572.5l-1,0l0,1l1,0l0,-1ZM281.5,578.5l4,-3l0,1l0,1l-4,2ZM272.5,586.5l-2,-1l1,-1l1,1ZM270.5,581.5l4,-2l-1,0c0,1,0,1,0,1l-4,2ZM342.5,583.5l-1,-1l1,-1l1,1ZM336.5,591.5c-1,0,-1,-1,-1,-1c-1,0,-1,0,-1,-1c0,-1,0,-1,0,-1l-1,-4c0,1,0,1,0,1l-1,0l0,1l-1,0c1,0,1,1,1,1l0,1l0,1c0,1,0,1,-1,1l-1,0c0,0,-1,0,-1,0l-1,-1c0,1,0,1,-1,1l0,1l-1,0l-1,0l0,-1c-1,0,-1,0,-1,0c-1,0,-1,0,-1,0c0,-1,0,-1,0,-1c0,1,0,1,-1,1c0,0,-1,1,-1,1l-1,0l-1,0c-1,0,-2,-1,-2,-1c-1,-1,-1,-1,-1,-2l0,-8l0,-3l1,10l0,1c1,1,1,1,2,1l1,0l1,0c1,0,1,0,1,-1c0,0,1,0,1,0c0,0,0,-1,0,-1l1,0l0,1c0,0,-1,0,-1,0c1,0,1,0,1,1c1,0,1,0,1,0l1,0c1,0,1,0,1,0l1,-1l1,-1c0,-1,0,-1,0,-1l1,0c0,-1,0,-1,0,-1l1,0c1,-1,1,-1,1,-1c0,0,1,0,1,0c0,-1,0,-1,0,-1l0,-3l1,-3l0,10c0,0,0,1,1,1c0,1,0,1,0,1l1,0l1,0l1,-1l0,-1l0,-1l0,-2l0,-1l0,-2l-1,-2c0,-1,0,-1,1,-2l1,2c0,0,0,1,0,1l0,1l0,1l0,1l0,1l0,2l0,1l0,1l1,-2l1,0l1,-1c0,0,1,0,1,0l1,0c0,0,1,0,1,0c1,0,1,1,1,1l0,1c0,1,0,1,0,1c-1,1,-1,1,-1,1c0,0,-1,0,-1,1c-1,0,-2,0,-3,0c0,0,-1,1,-1,1ZM343.5,586.5c0,0,-1,1,-2,1l-1,1l-2,1l1,0l1,0c0,0,1,0,1,0l1,0c1,-1,2,-1,3,-1c0,-1,0,-1,0,-1c0,0,-1,0,-1,0c0,-1,0,-1,-1,-1ZM337.5,574.5l4,-2l0,1c0,0,-1,0,-1,0l-4,2ZM331.5,574.5l4,-2l0,1l-4,2ZM329.5,588.5l1,0l1,0c0,0,0,-1,0,-1c0,0,-1,0,-1,0l-1,0l0,1ZM326.5,576.5l1,0c0,0,1,0,1,0c1,0,1,0,2,0c0,1,0,1,0,1l-1,1l-1,0c0,1,-1,1,-1,1c-1,0,-1,0,-1,-1l2,0c0,0,1,-1,1,-1c-1,0,-1,0,-1,0c-1,0,-1,0,-2,0c0,-1,0,-1,0,-1ZM322.5,586.5l-1,-1l1,-1l1,1ZM319.5,578.5l5,-2l-1,0l0,1l-4,2ZM314.5,575.5l0,-1c0,0,1,1,2,1c0,0,1,0,1,0l1,0l1,0c-1,0,-1,0,-1,1l-1,0l-1,0c-1,0,-1,0,-1,0l-1,0l0,-1l-1,1c0,-1,0,-1,1,-1ZM371.5,594.5c0,0,1,0,1,0l1,0c0,0,1,0,2,-1c1,0,1,-1,1,-1c1,-1,1,-1,2,-2c0,-1,0,-1,0,-1c0,-1,0,-1,0,-1l0,-1l-1,0l0,-2l1,0l0,1c0,0,1,0,1,1l0,1l0,1c0,0,0,1,0,1c0,0,0,1,0,1c0,0,-1,0,-1,1l0,1c0,0,-1,0,-1,1l-1,0c-1,1,-1,1,-1,1c-1,0,-1,0,-1,0l-1,0c0,0,-1,0,-1,-1l-1,0ZM374.5,581.5l4,-2c-1,1,-1,1,-1,1l-4,2ZM370.5,594.5l-1,-1l1,-1l1,1ZM368.5,591.5l-1,0l-1,0c-1,0,-1,0,-1,-1c0,0,-1,0,-1,0c0,-1,0,-1,0,-1c0,0,-1,0,-1,0c0,1,-1,1,-1,1l-1,0c0,0,-1,1,-1,1l-1,0l-1,0c-1,0,-1,-1,-2,-1c0,-1,0,-1,0,-2l-1,-8l1,-3l0,10l1,1c0,1,1,1,1,1l1,0l1,0c0,0,1,0,1,0c0,0,1,0,1,-1c1,0,1,0,1,0l1,0c0,0,0,1,1,1l1,0l1,0l1,0c0,0,1,0,1,0c1,0,1,-1,1,-1c0,0,0,-1,0,-1l-1,-1l1,-2c0,0,0,1,1,1l0,1l0,1l0,1c0,1,0,1,0,1l-1,0c0,1,0,1,-1,1c0,1,-1,1,-1,1ZM367.5,578.5l0,1c1,0,1,1,1,1l0,-1l1,-1l0,1l1,0l0,-1l0,-1l0,1l0,1c0,1,0,1,0,1l-1,0l-1,0c0,1,0,1,0,1c-1,0,-1,0,-1,-1l0,-1ZM371.5,576.5l-5,2c1,-1,1,-1,1,-1l5,-3ZM363.5,586.5l-2,-1l1,-1l2,1ZM361.5,581.5l4,-2l-1,0c0,1,0,1,0,1l-4,2ZM227.5,594.5l0,-1l0,-1l0,-8l1,-3l0,11c0,1,0,1,0,1c0,1,-1,1,-1,1ZM229.5,596.5l-4,2c1,-1,1,-1,1,-1l4,-2ZM306.5,589.5l0,-1l0,-1l-1,-8l1,-3l1,11l0,1c0,0,-1,0,-1,0c0,1,0,1,0,1ZM304.5,575.5l4,-2c0,1,0,1,0,1l-5,2ZM256.5,585.5l0,1c0,0,-1,0,-1,0l-1,0l0,-1l-1,0c0,-1,-1,-1,-1,-1l0,1l0,1c-1,0,-1,0,-1,0l-1,0c-1,0,-1,0,-1,0c0,0,0,-1,0,-1c0,1,0,1,0,1c0,0,-1,0,-1,0l0,-1l-1,0c-3,1,-1,0,0,0c1,0,1,0,1,0c0,0,1,0,1,0l1,0l1,0l1,0c0,-1,0,-1,0,-1l-1,0l0,-1c-1,0,-1,0,-1,0c0,0,0,-1,0,-1c1,0,1,-1,2,-1c0,0,1,0,1,0c1,-1,1,-1,1,-1c0,0,1,0,1,0l-1,1l-1,0c0,0,-1,1,-1,1c-1,0,-1,0,-2,0l1,1l1,0l0,1c1,0,1,0,1,0l1,1l1,0c1,0,1,0,1,0l1,0c0,0,1,0,1,0l0,-1l0,1l1,0l-1,0l1,-1l0,1l0,1l-1,0l0,-1l-1,1c-1,0,-1,0,-1,0l0,-1ZM249.5,584.5l-1,0l0,-1l1,0l1,0Z" class="g2_7" />
</svg>