<?xml version="1.0" encoding="UTF-8" standalone="no"?>
<!DOCTYPE svg PUBLIC "-//W3C//DTD SVG 1.1//EN"
"http://www.w3.org/Graphics/SVG/1.1/DTD/svg11.dtd">
<svg version="1.1" xmlns="http://www.w3.org/2000/svg" xmlns:xlink="http://www.w3.org/1999/xlink">
<defs>
<style type="text/css"><![CDATA[
.g1_12{
stroke: #1F1A17;
stroke-width: 1;
stroke-linecap: butt;
stroke-linejoin: miter;
}
]]></style>
</defs>
<path fill-rule="evenodd" d="M206.5,160.5l4,-2l0,1c-1,0,-1,0,-1,0l-4,2ZM88.5,176.5c-1,0,-1,0,-1,0l-1,0l-1,0l-1,-1l0,1l-1,0l0,1l-1,0l-1,0l-1,0c-1,0,-2,0,-2,0c-1,-1,-1,-1,-1,-1c-1,0,-1,0,-2,0c0,1,-1,1,-2,1l-2,0c-1,0,-1,-1,-2,-1c0,0,0,-1,0,-2l-1,-8l1,-2l1,9l0,1c0,1,1,1,1,1l2,0c0,0,1,0,1,0l1,0c0,0,0,-1,0,-1l0,-1l0,-1c1,-1,1,-1,1,-1c0,0,0,-1,1,-1c0,0,1,-1,1,-1c1,0,1,1,1,1c0,1,1,1,1,2l0,1c0,0,-1,1,-1,1c0,0,0,1,0,1l1,0l1,0l1,0l1,0l1,0l0,-1l1,-1c0,0,0,-1,1,-1c0,-1,0,-1,1,-1l0,1c1,0,1,1,1,1l0,1l0,1c0,1,0,1,0,1ZM86.5,174.5l1,0l0,-1l-1,0c-1,0,-1,1,-1,1l1,0ZM83.5,162.5l0,1l1,0c0,0,1,0,1,0l0,-1c0,0,0,1,0,1c0,0,1,0,1,0c0,0,0,-1,0,-1l0,-1l1,0l0,1l0,1c-1,0,-1,1,-1,1l-1,0c-1,0,-1,1,-1,1c0,0,-1,-1,-1,-1l0,-1l0,-1ZM88.5,159.5l-6,3c0,-1,1,-1,1,-1l5,-3ZM78.5,168.5l-1,-1l-1,2l-1,-1l0,-2l2,1l1,-1l1,1ZM78.5,171.5c-1,0,-1,1,-1,1c-1,0,-1,0,-1,0l0,1c0,0,1,1,1,1c1,0,1,0,1,-1c0,0,1,0,1,0c0,-1,0,-1,-1,-1c0,0,0,-1,0,-1ZM74.5,161.5l4,-3l0,1c-1,0,-1,0,-1,1l-4,2ZM65.5,175.5l-1,0c0,0,-1,0,-1,0c-1,0,-1,-1,-2,-1l0,1c0,0,0,1,-1,1c0,1,-1,1,-1,2c-1,0,-1,0,-2,0c-2,1,-3,1,-4,1l4,-2c2,-1,3,-2,4,-3l1,-2c0,0,0,-1,1,-1l0,-1l1,0l0,1c1,0,1,0,1,1l0,1l0,1l0,1ZM64.5,173.5l0,-1c0,0,-1,0,-1,0c0,0,-1,0,-1,1c0,0,1,0,1,0l1,0ZM61.5,180.5l-4,2c0,-1,0,-1,0,-1l4,-2ZM113.5,176.5l-1,0l-1,0l-1,-1l0,1l-1,0l0,1l-1,0l-2,0l0,1l0,1c0,0,0,1,0,1c-1,1,-1,1,-2,2c0,0,-1,1,-2,1c0,1,-1,1,-2,1c0,0,-1,0,-2,-1c0,0,-1,0,-1,0c0,-1,-1,-1,-1,-1c0,-1,0,-2,0,-2c0,-1,0,-1,0,-1c0,-1,0,-1,0,-1c0,0,0,-1,0,-1c1,0,1,-1,1,-1c0,0,0,1,0,1c0,0,0,1,0,1c-1,0,-1,1,-1,1c1,0,1,1,1,1c0,0,0,1,1,1c1,1,2,1,3,1c0,0,1,0,2,-1c1,0,1,0,2,-1c0,0,0,-1,0,-1c0,0,0,-1,0,-1c0,0,0,-1,0,-1l0,-1l-1,0l1,-2c1,1,1,1,2,1l1,0l1,0l1,-1l1,-1c0,0,0,-1,0,-1l1,0c0,-1,0,-1,1,-1l0,1c1,0,1,1,1,1l0,1l0,1c0,1,0,1,-1,1ZM112.5,174.5l1,0l0,-1c0,0,-1,0,-1,0l-1,0c0,0,0,1,0,1l1,0ZM113.5,180.5l-5,2c1,-1,1,-1,1,-1l4,-2ZM101.5,174.5l-1,-1l1,-1l1,1ZM169.5,173.5l-1,0c0,1,1,1,1,1c0,0,1,0,1,-1c0,0,-1,0,-1,0ZM169.5,180.5c0,1,0,1,-1,1c-1,0,-1,0,-2,0c-1,0,-1,0,-2,0c0,0,-1,0,-1,0c0,-1,0,-1,0,-1c0,0,1,0,1,1l1,0l1,0c0,0,0,-1,0,-1l1,0c1,0,1,-1,1,-1c1,0,1,-1,1,-1c0,0,1,0,1,-1c0,-1,0,-1,0,-1c0,0,0,-1,0,-1l0,1c0,0,-1,0,-1,0l-1,0c0,0,0,-1,0,-1c-1,0,-1,0,-1,0l0,-1l0,-1c1,0,1,-1,1,-1c0,-1,0,-1,1,-1c1,0,1,0,1,0l1,1l0,1l0,1l0,1c0,1,0,1,0,1c0,1,0,2,-1,2c0,1,0,1,0,2c0,0,-1,0,-1,0ZM166.5,167.5l4,-2l0,1l-4,2ZM162.5,177.5l0,-1l0,-2l0,-8l0,-2l1,10c0,1,0,1,0,1l0,1c0,0,-1,0,-1,1ZM156.5,163.5l-2,-1l-1,2l-1,-1l1,-2l1,1l1,-1l2,1ZM154.5,168.5l1,-1l1,0c0,0,0,1,0,1l0,1l1,0l-1,0l0,-1l0,-1l0,-1c-1,-1,-1,-1,-1,-1c0,1,0,1,-1,1l0,1c-1,1,-1,1,-1,1l0,1c-1,0,-1,0,-1,0c-1,1,-1,1,-1,1l-1,0c0,0,0,1,-1,1l-1,1l0,1c0,0,1,0,1,0l1,0l1,0l1,0l1,1l-1,0l-1,0l-1,1l-1,0l-1,0l-1,0l-1,0l-2,0c-1,-1,-1,-1,-1,-1c0,0,0,-1,0,-1l0,-2c0,-1,0,-2,-1,-2l0,-2l0,2l-1,0l0,1l1,2c0,1,0,1,0,2c0,0,-1,0,-1,0l-1,0c0,0,0,1,0,1l-1,0l-1,0l-1,0l0,-1c-1,0,-1,0,-1,0l0,-1l0,1c0,0,0,1,0,1c0,1,0,1,0,1c0,0,1,0,1,0c0,1,0,1,0,1l1,0c1,0,1,-1,2,-1c0,0,1,0,1,0l1,-1l0,-1c0,1,0,1,0,1l1,1l1,1l2,0l1,0l1,0l1,-1c1,0,1,0,1,0l3,-1l1,0l0,-1l1,0l1,0l1,0l2,0l0,-1l-1,0c0,0,-1,0,-1,0c0,0,-1,0,-1,0c-1,-1,-2,-1,-2,-1l-2,-1l-1,0c1,-1,1,-1,1,-1l1,0c0,-1,1,-1,1,-2ZM153.5,155.5l0,1c1,0,1,0,1,0l0,-1l0,-1l1,1c0,1,0,1,0,1c0,0,1,-1,1,-1l0,-1l0,1l0,1c0,0,0,1,0,1l-1,0l-1,-1l0,1c0,0,-1,0,-1,0l0,-1l0,-1ZM157.5,152.5l-6,3c1,-1,1,-1,1,-1l6,-3ZM147.5,168.5l-1,-1l1,-1l1,1ZM151.5,180.5l-4,2c0,-1,0,-1,0,-1l4,-2ZM141.5,165.5l-2,-1l1,-1l1,1ZM137.5,158.5c1,-1,1,-1,1,-1c0,-1,1,-1,1,-1c0,1,1,1,1,1c0,1,0,1,0,1l-1,0l0,1l1,0l0,2l-1,-1l-1,0l0,1c-1,0,-1,1,-1,1l-1,0l-1,0l1,-1l1,0l0,-1l1,0l0,-1l-1,0l0,-1ZM139.5,158.5l-1,-1c0,0,0,1,0,1l1,1l0,-1ZM131.5,173.5c0,0,-1,0,-1,0c0,1,0,1,1,1l0,-1ZM131.5,180.5c0,1,-1,1,-1,1l-1,0c0,0,-1,0,-1,0l-1,0c0,0,-1,0,-1,0c0,0,-1,0,-1,0c0,-1,0,-1,0,-1c0,0,1,0,1,1l1,0c1,0,1,-1,1,-1c1,0,1,0,1,0c1,0,1,-1,1,-1c1,0,1,-1,1,-1l1,-1c0,-1,0,-1,0,-1c0,0,0,-1,0,-1l0,1l-1,0c0,0,-1,0,-1,0c0,0,0,-1,-1,-1l0,-1l0,-1c0,0,1,-1,1,-1c0,-1,0,-1,0,-1c1,0,1,0,1,0c0,0,1,0,1,0l0,1c1,0,1,0,1,1l0,1l0,1c0,1,0,1,0,1c0,1,0,2,-1,2c0,1,0,1,0,2c-1,0,-1,0,-1,0ZM124.5,177.5l0,-1l0,-2l-1,-8l1,-2l1,10c0,1,0,1,0,1l0,1c-1,0,-1,0,-1,1ZM216.5,172.5c0,0,-1,0,-1,1l1,0c0,-1,0,-1,0,-1ZM216.5,180.5c0,0,-1,0,-1,0c0,1,0,1,0,1c-1,0,-2,0,-2,0l-1,0l-1,0c0,-1,-1,-1,-1,-1c0,0,1,0,1,0l1,0c1,0,1,0,1,0c1,0,1,-1,1,-1c1,0,1,0,1,-1c1,0,1,0,1,0c0,0,0,-1,1,-1c0,-1,0,-2,0,-2c-1,0,-1,0,-1,0c0,0,-1,0,-1,0l-1,0l0,-1l0,-1c0,-1,1,-1,1,-2c1,-1,1,-1,1,-1c0,0,1,0,1,0c0,1,0,1,0,1c1,0,1,1,1,1c0,0,0,1,0,1c0,1,0,1,0,1c0,1,0,1,0,1c0,1,0,2,-1,3c0,0,0,1,0,1c-1,0,-1,1,-1,1ZM213.5,166.5l4,-2l0,1l-4,3ZM204.5,176.5l-1,0c0,-1,-1,-1,-1,-1l-1,0c0,0,-1,1,-1,1l-1,0l-1,0c-1,0,-1,0,-1,0c0,0,-1,0,-1,0c0,-1,0,-1,0,-1c-1,0,-1,0,-1,0c0,0,-1,0,-1,0c0,1,0,1,-1,1c0,0,-1,0,-1,0l-1,0l-1,0c-1,0,-1,0,-2,0c0,-1,-1,-2,-1,-2l0,-9l1,-2l0,10l1,0l0,1c0,0,1,1,1,1l1,0l1,0c0,0,1,0,1,0c0,-1,1,-1,1,-1c1,0,1,0,1,0c0,-1,0,-1,1,-1l0,1l1,0c0,0,0,1,1,1l1,0c1,0,1,0,1,-1l1,0l0,-1c1,-1,1,-1,1,-1l1,-1c1,0,1,0,1,0c0,1,1,1,1,2l0,1c0,1,0,1,0,1l-1,1ZM202.5,173.5l1,1l1,0l0,-1c-1,0,-1,0,-1,0c0,0,-1,0,-1,0ZM98.5,163.5l1,0c0,0,1,0,1,0c1,0,1,0,1,0c1,0,1,0,1,0c0,1,0,1,0,1l-1,1c0,0,-1,0,-1,0l0,1c0,0,-1,0,-1,0l-1,0l2,-1c0,0,1,0,1,-1l-1,0c-1,0,-1,0,-2,0l-1,0l1,0c0,-1,0,-1,0,-1ZM128.5,162.5c0,0,1,0,1,0c0,0,1,0,1,0c1,0,1,0,2,0l0,1l0,1c-1,0,-1,0,-1,0c0,0,-1,1,-1,1l-1,0c0,0,-1,0,-1,0l2,-1c1,0,1,0,1,-1c-1,0,-1,0,-1,0c-1,0,-1,0,-1,0c-1,0,-1,0,-1,0c0,0,0,-1,0,-1ZM199.5,158.5l1,0c0,0,1,0,1,0c1,0,1,0,1,0c1,0,1,0,1,1l-1,1c0,0,-1,0,-1,0c0,1,0,1,0,1c0,0,-1,0,-1,0l-1,0l2,-1c0,0,1,0,1,-1l-1,0c-1,0,-1,0,-2,0c0,0,0,-1,0,-1ZM195.5,172.5l-2,-1l1,-2l1,1ZM190.5,162.5l5,-2c0,0,0,1,-1,1l-4,2ZM192.5,159.5l5,-3c0,1,-1,2,-1,2l-5,2ZM260.5,177.5c-1,0,-1,0,-2,-1c0,0,-1,0,-1,-1c0,0,0,1,-1,1c0,0,0,1,0,1l-1,0l-1,0l-1,0c0,0,0,-1,0,-1l-1,0c0,0,0,-1,0,-1l-1,0l0,1c0,0,-1,0,-1,0c-1,1,-1,1,-1,1l-1,0l-1,0c-1,0,-2,-1,-2,-1c-1,0,-1,-1,-1,-2l-1,-8l1,-2l1,9l0,1c1,1,1,1,2,1l1,0c1,0,1,0,1,0c1,0,1,0,2,-1l1,0c1,0,1,0,1,0c0,0,0,1,0,1c0,0,1,0,1,0l1,0c0,0,1,0,1,0c0,0,1,0,1,-1c0,-1,0,-1,0,-1c0,0,0,-1,0,-1l-1,-7l1,-2l1,10c0,1,0,1,0,1l0,1c1,0,1,0,1,0l1,0l1,0l1,0l0,-1l0,-2l0,-7c0,-1,0,-1,0,-1c0,-1,0,-1,1,-1l0,1l1,1l-1,1c0,1,0,1,0,2c0,0,0,1,0,3c0,0,0,1,0,1l0,1c0,1,0,1,0,1c0,1,0,1,0,1l0,1c-1,0,-1,0,-1,0c0,0,-1,1,-1,1c0,0,-1,0,-1,0ZM261.5,159.5l1,1c0,0,1,-1,1,-1l0,-1l0,1c0,0,1,0,1,0l0,-1l1,-1l0,1l0,1l0,1c-1,0,-1,0,-1,0l-1,0c-1,1,-1,1,-1,1c0,0,-1,0,-1,0c0,0,0,-1,0,-1l0,-1ZM265.5,180.5l-5,2c1,-1,1,-1,1,-1l4,-2ZM251.5,172.5l-1,-1l1,-1l1,1ZM250.5,162.5l0,1c0,0,1,0,1,0l0,-1l1,0c0,0,0,1,0,1c0,0,0,-1,1,-1l0,-1l0,1l0,1c0,0,0,1,-1,1l-1,0c0,0,-1,1,-1,1c0,0,0,-1,0,-1c-1,0,-1,0,-1,0l0,-1l1,-1ZM254.5,159.5l-6,3c1,-1,1,-1,1,-1l5,-3ZM225.5,183.5c-1,0,-1,0,-1,0c0,-1,-1,-1,-1,-1l0,-1l-1,-1l0,-1c0,0,1,0,1,0c0,0,0,-1,0,-1c0,0,0,-1,0,-1l1,-1l0,1l0,1l-1,0l0,1c0,0,1,1,1,1c0,0,0,1,0,1l1,0c1,0,1,1,1,1c1,0,1,0,2,0c0,0,1,0,1,0c0,0,1,-1,1,-1c1,0,1,0,1,0c0,0,1,-1,1,-1c0,0,0,-1,1,-1l0,-1c0,0,-1,-1,-1,-1l0,-1l-1,-1l1,-2c0,1,0,1,0,1l1,0l0,1c1,0,1,0,1,0l1,0l1,0c0,0,0,-1,0,-1c1,0,1,0,1,0c0,0,0,-1,0,-1l1,-1l0,1l0,1c0,0,0,1,0,1l1,0l1,0l0,-1l-1,0l1,-1l0,1l1,0l0,1c-1,0,-1,0,-1,0l0,1c0,1,-1,1,-1,1c-1,0,-1,0,-1,0c0,-1,0,-1,-1,-1l-1,0c-1,0,-1,1,-1,1c0,0,-1,0,-1,0l-1,0l0,1l0,1l0,1c0,1,0,1,-1,1c0,0,0,1,0,1c-1,0,-1,1,-1,1c-1,0,-1,0,-1,0c-1,0,-1,1,-2,1l-1,0c0,0,-1,0,-1,0c0,0,0,-1,-1,-1ZM232.5,185.5l-4,2c0,-1,0,-1,0,-1c1,0,1,0,1,0l4,-2ZM303.5,176.5l-1,0c-1,0,-1,0,-1,0l-1,-1l0,1c-1,0,-1,0,-1,0l0,1l-1,0l-1,0l-1,0c-1,0,-1,0,-1,0c0,-1,0,-1,0,-1l-1,0l0,-1l-1,1c0,0,-1,0,-1,1c0,0,-1,0,-1,0l-2,0c0,0,-1,-1,-1,-1c-1,0,-1,-1,-1,-2l-1,-8l1,-2l1,9l0,1c0,1,1,1,1,1l2,0c0,0,1,0,1,0c0,0,1,0,1,-1l1,0l1,0c0,0,0,1,0,1c1,0,1,0,1,0l1,0l1,0c1,0,1,0,1,0l0,-1l1,-1c0,0,1,-1,1,-1c1,-1,1,-1,1,-1c0,0,1,0,1,1c0,0,0,1,1,1l0,1l0,1c-1,1,-1,1,-1,1ZM301.5,174.5l1,0l1,0l-1,0l0,-1c-1,0,-1,0,-1,0c0,0,0,1,0,1ZM298.5,164.5l4,-2l0,1l-4,2ZM293.5,168.5l-2,0l1,-2l2,1ZM295.5,171.5l-2,-1l-1,1l-1,-1l1,-1l1,1l1,-2l1,1ZM292.5,161.5l4,-3l0,1l-1,1l-4,2ZM282.5,180.5l-1,-1l1,-1l1,1ZM280.5,177.5l-1,0c-1,0,-1,0,-2,0c0,-1,0,-1,0,-1c-1,0,-1,0,-1,-1c0,-1,0,-1,0,-1c-1,1,-1,1,-1,1l-1,0l-1,0l-1,0l0,-2l1,-1c0,0,0,-1,1,-1c1,0,1,-1,1,-1c0,-1,0,-1,0,-1l1,-1l0,2l0,1l0,1l1,2c0,0,0,1,0,1c0,0,1,0,1,0l1,0l1,0c0,0,1,0,1,0c1,0,1,0,1,-1l1,0c0,0,-1,-1,-1,-1l0,-1l1,-2c0,1,0,1,0,1l0,1l0,1l0,1l0,1l0,1c-1,0,-1,0,-2,0c0,1,-1,1,-1,1ZM280.5,164.5l4,-2l0,1l-4,2ZM275.5,168.5l-1,-1l-1,1l-2,-1l1,-1l2,0l0,-1l2,1ZM275.5,171.5l0,1l-1,0c-1,1,-1,1,-1,1l1,0l1,0l1,0ZM272.5,161.5l5,-3c0,1,0,2,0,2l-5,2ZM274.5,158.5l5,-3c0,1,0,1,0,2l-5,2ZM347.5,177.5l0,-1l0,-2l0,-8l1,-2l0,10c0,1,0,1,0,1l0,1l-1,1ZM340.5,175.5l1,0c1,0,1,0,1,-1l0,-2l0,-7c0,-1,0,-1,0,-1c0,-1,0,-1,0,-1c1,0,1,0,1,0c-1,0,-1,0,-1,1c0,0,1,0,1,0l1,1c0,0,-1,0,-1,1c0,1,0,1,0,2c0,0,0,1,0,3c0,0,0,1,0,1l0,1c0,1,0,1,0,1c0,1,0,1,0,1l0,1c-1,0,-1,0,-1,0c-1,0,-1,1,-1,1c0,0,-1,0,-1,0l-1,0c-1,0,-1,0,-1,0c0,-1,-1,-1,-1,-1l0,-1c-1,0,-1,0,-1,0l0,1l-1,0l-1,1l-1,0c0,0,-1,0,-1,0c0,-1,-1,-1,-1,-1c0,-1,0,-1,0,-1c0,1,-1,1,-1,1c-1,0,-1,1,-1,1l-1,0l-1,0c0,0,-1,-1,-1,-1l0,-1c-1,0,-1,1,-1,1l-1,0c-1,0,-1,1,-2,1l-2,0l-1,1l-1,0l-1,0c-2,0,-3,0,-4,-1c-1,0,-2,0,-2,-1c0,0,-1,0,-1,-1c0,0,0,-1,0,-1c0,-1,0,-1,0,-2c0,0,1,-1,1,-1l1,0c-1,0,-1,1,-1,1c0,1,0,1,0,1c0,1,0,1,0,1c0,1,1,1,2,1l1,1l1,0c1,0,2,0,3,0c1,0,1,0,2,0c0,0,1,0,1,0l1,-1l1,0c0,0,1,0,2,-1c1,0,1,0,1,-1c0,0,0,1,0,1l1,1l1,0c0,0,1,0,1,0c0,0,1,0,1,-1c0,0,1,-1,1,-1c0,0,0,1,0,1c0,0,0,1,1,1c0,0,1,0,1,0c1,0,1,0,1,0c1,0,1,0,2,-1c0,0,1,0,1,0c0,0,1,1,1,1l1,0l1,0ZM340.5,159.5c0,0,0,-1,1,-1c0,0,1,0,1,0c1,0,1,0,2,0c0,1,0,1,0,1c0,1,0,1,-1,1c0,0,0,1,0,1l-1,0c0,0,-1,0,-1,0c-1,0,-1,0,-1,0l2,0c0,-1,1,-1,1,-1c0,0,0,-1,-1,-1c-1,0,-1,0,-2,1c0,-1,0,-1,0,-1ZM336.5,181.5l-1,-1l1,-2l1,1ZM334.5,164.5l4,-2l0,1l-4,2ZM332.5,180.5l-2,-1l0,1l-2,-1l1,-1l2,1l0,-1l2,0ZM328.5,159.5c0,0,0,-1,1,-1c0,0,1,0,1,0c1,0,1,0,2,0c0,1,0,1,0,1c0,1,0,1,0,1c-1,0,-1,1,-1,1c-1,0,-1,0,-1,0c0,0,-1,0,-1,0c0,0,-1,0,-1,0l2,0c0,-1,1,-1,1,-1c0,0,0,-1,0,-1c-1,0,-1,0,-1,0c-1,0,-1,0,-2,1c0,-1,0,-1,0,-1ZM319.5,171.5l-1,-1l-1,2l-1,-1l1,-2l1,1l1,-1l1,1ZM317.5,164.5l4,-2l0,1l-4,2ZM387.5,180.5l-2,-1l1,-1l1,1ZM394.5,174.5l-2,0c0,0,-1,0,-1,0l-1,0c-1,0,-1,0,-1,1l-1,0l-1,0c0,0,-1,1,-1,1c0,0,-1,0,-1,0c-1,0,-2,1,-2,1l-1,0c-1,0,-1,0,-2,0c0,-1,0,-1,-1,-1l0,-1l-1,0l-1,1c0,0,-1,0,-1,0l-1,1l-1,0c-1,0,-1,0,-2,-1l-1,-1c0,0,0,1,0,1c-1,0,-1,1,-1,1l-1,0l-1,0c-1,0,-1,-1,-1,-1c0,0,-1,0,-1,0c0,0,0,-1,0,-1c0,0,-1,0,-1,1c0,0,-1,0,-1,0c0,1,-1,1,-1,1l-1,0l-1,0c-1,0,-2,-1,-2,-1c-1,0,-1,-1,-1,-2l0,-8l1,-2l0,9l0,1c1,1,1,1,2,1l1,0c1,0,1,0,2,0c0,0,1,0,1,-1c0,0,1,0,1,0c0,0,1,0,1,0c0,0,0,1,0,1c1,0,1,0,1,0l1,0c0,0,1,0,1,0c0,0,1,0,1,-1c0,-1,0,-1,0,-1c0,0,0,-1,0,-1l0,-7l0,-2l1,10c0,1,0,1,0,1l1,1l1,0c1,0,1,0,1,0l1,0l0,-1l1,0c-1,-1,-1,-1,-2,-1l1,-2l1,0c0,0,1,0,1,0l1,0c1,0,1,0,1,0l0,1c0,0,0,1,0,1c0,0,0,1,0,1l-1,0l1,0c0,1,0,1,0,1l1,0l1,0l1,0c1,0,1,0,2,0c0,0,1,-1,1,-1l2,0l1,-1l-2,0l-1,-1l-1,0c0,0,-1,0,-1,0l-1,0l0,1c0,-1,1,-1,1,-2l1,0c0,0,0,-1,1,-1l0,1c0,0,1,0,1,0l2,1l1,0c1,0,1,0,1,0c1,0,1,0,1,1c1,0,1,0,2,0l1,0ZM385.5,164.5l5,-2l-1,0l0,1l-4,2ZM377.5,164.5l4,-2l0,1l-4,2ZM369.5,155.5c1,0,1,0,1,0c1,0,1,0,2,0c0,0,1,0,1,0c0,0,1,0,1,0c0,1,0,1,0,1c-1,0,-1,0,-1,1l-1,0c-1,1,-1,1,-1,1l-1,0l0,-1l1,0c1,0,1,-1,2,-1c0,0,-1,0,-1,0l-1,0c0,0,-1,0,-1,0l-1,0c0,-1,0,-1,0,-1ZM365.5,172.5l-1,-1l1,-1l1,1ZM363.5,167.5l4,-2l0,1l-4,2ZM421.5,171.5c0,0,-1,0,-1,0l0,1l1,0c0,-1,0,-1,0,-1ZM421.5,179.5c0,0,-1,0,-1,0l-1,0c0,0,-1,1,-1,1l-1,0c0,0,-1,-1,-1,-1c0,0,-1,0,-1,0c0,0,0,-1,0,-1c0,0,1,1,1,1c1,0,1,0,1,0c1,0,1,0,1,-1c1,0,1,0,1,0c1,0,1,-1,1,-1c1,0,1,-1,1,-1l1,-1c0,0,0,-1,0,-1l0,-1c0,0,0,1,0,1l-1,0c-1,0,-1,0,-1,0l-1,-1l0,-1l0,-1c0,0,0,-1,1,-1c0,0,0,-1,0,-1c1,0,1,0,1,0c0,0,1,0,1,0l0,1c1,0,1,0,1,1l0,1c0,0,0,1,0,1l0,1c0,1,0,2,-1,3l0,1c-1,0,-1,0,-1,1ZM418.5,165.5l4,-2l0,1l-4,2ZM406.5,166.5l-2,-1l1,-1l2,0ZM410.5,175.5l-1,1c-1,0,-2,1,-2,1l-1,0l-1,0l-1,0l-1,-1c0,0,0,-1,1,-1l1,0c0,0,1,0,2,0c1,-1,1,-1,1,-1c1,0,1,0,1,0c0,0,0,-1,0,-1c0,-1,0,-1,-1,-1l0,-1l-1,0l-1,-1l0,-2c0,0,1,0,1,0l0,1l1,0c0,0,0,1,1,1l0,1c1,0,1,1,1,1c0,1,0,1,0,1l0,1l0,1ZM403.5,159.5c0,0,0,-1,1,-1c0,0,1,0,1,0c1,0,1,0,1,0c1,1,1,1,1,1c0,1,0,1,-1,1c0,0,0,1,0,1c0,0,-1,0,-1,0c0,0,-1,0,-1,0l-1,0l2,0c0,-1,1,-1,1,-1c0,0,0,-1,-1,-1c-1,0,-1,0,-2,1l-1,0c0,-1,1,-1,1,-1ZM177.5,174.5l0,-1c1,0,1,0,1,0c0,0,0,-1,0,-1l0,-1l0,-1l0,-1l0,-1c0,0,0,-1,0,-1l1,1c-1,0,-1,0,-1,1l0,1l1,0l0,1l0,1l-1,0l1,0l1,-1l1,0c0,0,1,0,1,0l0,1c0,0,0,1,0,1l-1,0c0,0,-1,1,-1,1c-1,0,-1,0,-1,0ZM181.5,172.5c-1,0,-1,0,-1,0l-1,0l0,1l-1,0l1,0l1,0c1,0,1,0,2,-1l-1,0ZM80.5,223.5l-1,0c0,0,-1,0,-1,0l-1,0l0,1l1,1c0,1,0,2,-1,2c0,1,-1,1,-1,1c0,0,-1,0,-1,0c-1,-1,-1,-1,-1,-2c-1,0,-1,-1,-1,-3c-1,0,-1,0,-1,0l-1,0l-1,0c0,1,0,1,0,1c0,1,-1,2,-1,2c0,0,0,1,-1,1l0,1c-1,0,-1,0,-1,0c-1,0,-1,1,-1,1c0,0,-1,0,-1,0l-1,0c0,0,-1,0,-1,-1c0,0,-1,0,-1,0c0,0,1,0,1,0l1,0l1,0c0,-1,1,-1,1,-1c0,0,1,0,1,-1l1,0c0,-1,0,-1,0,-1c1,-1,1,-1,1,-2l0,-1c-1,0,-1,0,-1,-1c1,0,1,-1,1,-1c0,0,0,1,0,1l1,0l1,0l1,0l1,0c1,0,1,-1,1,-1l0,-1l1,0c0,0,0,-1,0,-1c1,-1,1,-2,2,-2l0,1l1,0l0,1c-1,1,-1,2,-1,2c0,1,-1,1,-2,2l1,0l1,0l1,-1l1,0l1,0l1,0l1,0c0,0,0,-1,0,-2l0,-2l0,-1l0,-3l-1,-2c0,0,0,-1,1,-1l1,1c0,1,0,1,0,2l0,1l0,1l0,1l0,1l0,1l0,1l0,1l1,-1l1,-1l1,0c0,-1,1,-1,1,-1l1,0c0,0,1,0,1,1c1,0,1,0,1,1c0,1,0,1,0,1l0,1c0,0,-1,0,-1,1c0,0,-1,0,-1,0c-1,0,-2,1,-3,1c0,0,-1,0,-1,0ZM87.5,219.5c0,0,-1,0,-1,0l-2,1l0,1l-2,0l1,0l1,0c0,0,1,0,1,0l1,0c2,0,2,-1,3,-1l0,-1c0,0,-1,0,-1,0l-1,0ZM81.5,207.5l4,-2c0,1,-1,1,-1,1l-4,2ZM76.5,218.5c-1,0,-1,1,-1,1l-1,1l0,1c1,0,2,-1,2,-1c1,0,1,-1,1,-1l0,-1c-1,0,-1,0,-1,0ZM74.5,223.5c0,1,0,1,0,1c0,1,1,2,1,2c1,0,1,0,1,0c0,0,1,0,1,0c0,-1,0,-1,-1,-2c0,0,-1,0,-2,-1ZM75.5,209.5l0,1l1,0l0,-1c1,1,1,1,1,1l1,-1l0,-1l0,1l0,1c0,1,0,1,-1,1l-1,0c0,0,-1,1,-1,1l-1,-1l0,-1l1,-1ZM73.5,229.5l-4,2c1,0,1,-1,1,-1l4,-2ZM65.5,210.5l4,-2l0,1l-4,2ZM61.5,223.5l0,-1l0,-1l0,-9l1,-2l0,11c0,0,0,1,0,1c0,0,0,1,-1,1ZM103.5,217.5l-2,-1l1,-2l2,1ZM103.5,226.5c-1,0,-2,0,-2,0c-1,0,-1,0,-1,-1c-1,0,-1,0,-1,-1c-1,0,-1,-1,-1,-2l0,-1l1,-1c0,0,0,-1,0,-1l1,0l0,1c-1,0,-1,0,-1,0c0,1,0,1,0,1l0,1l0,1c1,0,1,0,1,1l1,0c1,0,1,0,2,0c1,0,1,0,2,0c1,0,1,-1,2,-1l0,-1c0,0,0,-1,0,-1c0,0,0,-1,0,-1l0,-1l-1,-1l0,-1l0,-2c1,1,1,1,1,1c0,1,0,1,0,1c0,1,1,1,1,1c0,0,0,1,0,1c0,0,0,1,0,1c0,0,0,1,0,1c0,1,0,2,0,2c-1,1,-1,1,-2,2c0,0,-1,1,-1,1c-1,0,-2,0,-2,0ZM181.5,219.5l-1,0c0,0,0,1,0,1c0,0,1,0,1,0c1,0,1,0,1,0c0,0,0,-1,-1,-1ZM181.5,227.5l-1,0l0,1c-1,0,-1,0,-2,0c-1,0,-1,0,-2,-1l-1,0c1,0,1,0,1,0c0,0,1,0,1,0l1,0c0,0,1,0,1,0c0,-1,0,-1,0,-1c1,0,1,0,2,-1c0,-1,1,-1,1,-2c0,0,0,-1,0,-1l0,-1c0,1,0,1,0,1l-1,0l-1,0c0,0,-1,-1,-1,-1c0,0,0,-1,0,-1l0,-1c1,0,1,0,1,-1l1,-1c1,0,1,0,1,0c0,0,0,1,1,1c0,0,0,1,0,1c0,0,0,1,0,1c0,0,0,1,0,1c0,1,0,1,0,1c0,1,0,2,-1,3c0,0,0,1,0,1c0,0,-1,1,-1,1ZM178.5,213.5l4,-2l0,1l-5,2ZM162.5,222.5c-1,0,-1,1,-1,1c-1,0,-1,0,-1,0c-1,0,-1,0,-1,0l-1,0c0,0,-1,0,-2,0l0,-1c0,1,-1,1,-1,2c0,0,-1,-1,-1,-1l-1,0l-2,-1l-1,1l-1,0l-1,0l-1,0c0,0,-1,0,-1,0c0,0,-1,0,-1,0c0,-1,-1,-1,-1,-1l0,-1c-1,0,-1,1,-1,1l-1,0l0,1c-1,0,-1,0,-1,0l-1,0l-1,0l-1,0c-1,0,-1,0,-1,0l0,-1l-1,0c-1,0,-1,0,-1,0c0,1,-1,1,-1,1c0,0,-1,0,-1,0l-1,0c0,0,-1,0,-1,0c0,0,0,-1,-1,-2l0,1l0,1l0,1c0,0,0,1,0,1c0,1,-1,1,-1,2c0,0,-1,0,-1,0c0,0,-1,1,-1,1c0,0,-1,0,-1,0c-1,0,-1,0,-2,0l-1,0c-1,0,-1,0,-2,-1l0,-1c-1,0,-1,0,-1,-1c0,-1,0,-1,1,-2c0,0,0,-1,0,-1l1,-1l0,1l-1,1l0,1c0,0,0,1,1,1c0,1,1,1,2,1l1,0c1,0,2,0,3,0c0,-1,1,-1,1,-2c0,0,1,0,1,0l0,-1l0,-3l-1,-1c0,0,0,-1,0,-1l0,-7l1,-2l1,11c0,0,0,1,0,1l1,0l1,0c0,0,1,0,1,0c0,0,1,0,1,0c0,0,1,0,1,-1l1,0c0,0,0,1,0,1c1,0,1,0,1,0l1,0l1,0c1,0,1,0,1,0l1,0l1,-1l-1,0c0,0,-1,0,-1,-1l-1,0l1,-1c1,-1,1,-1,1,-1c1,0,1,0,1,0l1,0l1,0l0,1c0,0,1,0,1,0l0,1c-1,1,-1,1,-1,1l0,1l1,0l1,0l1,0l1,0c1,0,1,0,1,0l1,0c0,0,0,-1,0,-1c1,-1,2,-2,3,-2l1,1l0,1l1,1l1,0l1,0l1,0l1,0l1,0l1,0c0,-1,0,-1,1,-1l0,1l1,0c0,0,1,0,1,0l1,0c0,-1,0,-1,0,-1l0,-1l1,0l0,1c0,1,0,1,0,1c0,0,1,0,1,0l1,0l0,-1l0,-1l1,0l0,1l0,1l0,1c0,0,-1,1,-1,1l-1,0c-1,0,-1,0,-1,0l0,-1l-1,0c-1,1,-1,1,-1,1l-1,0c0,0,-1,0,-1,0c0,0,-1,0,-1,-1ZM163.5,212.5l1,0c0,0,1,0,1,0c1,0,1,0,2,0c0,1,0,1,0,1l0,1c-1,0,-1,0,-1,0c-1,0,-1,0,-1,1c0,0,-1,0,-1,0c0,0,-1,0,-1,0l2,-1c0,0,1,0,1,-1c-1,0,-1,0,-1,0c-1,0,-1,0,-2,0c0,-1,0,-1,0,-1ZM155.5,222.5l-1,-1c0,-1,0,-1,0,-2l-1,1l-1,0c0,0,1,1,2,1ZM151.5,216.5c0,-1,0,-1,0,-2c0,0,0,-1,0,-1l0,-1l1,1l0,1c0,1,0,1,0,1c0,1,-1,1,-1,1ZM144.5,226.5l-4,2c0,0,0,-1,0,-1l4,-2ZM137.5,226.5l-1,-1l-1,2l-1,-1l0,-2l2,1l1,-1l1,1ZM127.5,207.5l6,-3c-1,1,-1,2,-1,2l-6,2ZM231.5,223.5l0,-1l0,-1l0,-9l1,-2l0,11c0,0,0,1,0,1c0,0,-1,1,-1,1ZM234.5,226.5l-4,2c0,-1,0,-1,0,-1l4,-2ZM227.5,227.5l-2,-1l1,-2l1,1ZM224.5,221.5c1,0,1,0,2,0c0,0,1,0,1,0l0,-1l0,-1c0,0,-1,0,-1,0l0,-1l1,-1l0,1l1,1l0,1c0,1,0,1,-1,1c0,1,0,1,0,1c0,0,-1,1,-1,1c-1,0,-1,0,-2,0l-1,0l-1,0c0,1,0,1,0,1c0,1,0,2,0,2c-1,0,-1,1,-1,1l-1,1l-1,0c0,0,0,1,-1,1l-1,0c0,0,-1,0,-2,-1l1,0c1,0,1,0,2,0c0,-1,0,-1,1,-1l1,-1c0,-1,1,-1,1,-1c0,-1,0,-1,1,-2l-1,-1l0,-1c0,0,0,-1,0,-1c1,0,1,1,1,1c0,0,1,0,1,0ZM223.5,212.5c1,0,1,0,1,0c1,0,1,0,2,0c0,0,1,0,1,0c0,0,1,0,1,1c-1,0,-1,0,-1,1l-1,0c0,0,0,1,-1,1l-1,0l1,-1c1,0,1,0,2,-1c0,0,-1,0,-1,0c0,0,-1,0,-1,0c0,0,-1,0,-1,0l-1,0c0,0,0,-1,0,-1ZM205.5,231.5l0,-1c0,0,0,-1,0,-1c0,-1,0,-2,-1,-2l1,-1c0,0,0,1,0,1c0,0,1,1,1,1l0,1l0,1c-1,0,-1,0,-1,1ZM220.5,217.5l0,-1c0,0,0,-1,0,-1c0,-1,0,-2,-1,-2l1,-1c0,0,0,1,0,1c0,0,1,1,1,1l0,1l0,1c-1,0,-1,0,-1,1ZM211.5,223.5l0,-1c-1,0,-1,0,-2,0c0,0,-1,0,-1,0l-1,0c0,0,-1,0,-1,0c0,0,0,1,-1,1l-1,0c-1,0,-1,0,-1,0l-1,0c-1,0,-1,0,-2,0c0,0,0,-1,0,-1c0,1,-1,1,-1,2l-1,0l-1,-1c-1,0,-1,0,-1,0l-1,0l0,1c0,0,-1,0,-1,1c-1,0,-1,0,-2,1c-1,0,-3,0,-4,0l4,-2l2,-1c0,0,1,0,1,-1l1,-1c0,-1,0,-2,1,-2l1,0c0,0,1,0,1,1c1,0,1,1,1,1c1,0,1,0,1,0c0,0,1,0,1,0l1,0c0,0,1,0,1,0c1,0,1,0,1,0l1,0c-1,0,-1,-1,-1,-1l0,-1l1,0c0,-1,0,-1,0,-1c0,0,0,-1,0,-1l1,0c-1,0,-1,0,-1,-1l1,0c0,0,0,-1,0,-1c1,0,2,1,2,1c1,1,1,1,2,1c0,1,1,1,1,2l0,1c0,1,0,1,0,1l0,1c-1,0,-1,1,-1,1ZM207.5,218.5c0,0,-1,1,-1,1l0,1c1,0,1,0,1,0c0,0,1,0,1,0c0,0,0,-1,0,-1l0,-1l-1,0ZM209.5,218.5c0,1,0,1,0,1l0,1l2,1c0,0,0,-1,0,-1c0,0,-1,0,-1,-1c-1,0,-1,0,-1,-1ZM198.5,222.5l0,-1c0,-1,0,-1,-1,-1c0,1,0,1,0,1l1,1ZM194.5,213.5l4,-2l-1,1l-4,2ZM256.5,223.5l0,-1l0,-1l-1,-9l1,-2l1,11c0,0,0,1,0,1c-1,0,-1,1,-1,1ZM259.5,227.5l-4,2c0,-1,0,-1,0,-1l4,-2ZM251.5,219.5c0,-1,-1,-1,-1,-2c0,-1,0,-2,0,-2c0,-2,0,-3,0,-3l0,-1c0,0,0,-1,0,-1c0,0,0,-1,1,-1l0,1c0,1,1,1,1,1c0,0,0,1,0,1c0,0,-1,0,-1,1c0,0,0,1,0,2c0,1,0,2,0,3c0,1,1,1,1,1l0,1c-1,0,-1,0,-1,0c0,0,0,1,0,1c0,0,0,1,0,1c0,1,-1,1,-1,1c0,0,1,0,1,0l0,1c1,0,1,0,1,0c0,1,0,1,0,1c0,1,0,1,-1,1c0,1,-1,1,-1,2c-1,0,-1,0,-2,1c-1,0,-2,0,-3,0c-1,0,-1,0,-2,0c-1,-1,-1,-1,-2,-1c0,-1,0,-1,0,-1c-1,-1,-1,-1,-1,-1c0,-1,0,-1,0,-1c0,-1,0,-1,1,-2c0,-1,0,-1,1,-2c0,1,0,1,-1,2c0,0,0,1,0,1c0,0,0,1,0,1c0,0,1,1,1,1c1,1,2,1,3,1c1,0,1,0,2,0l1,0c1,0,1,-1,2,-1c0,0,1,-1,1,-1c-1,0,-1,0,-2,0c0,0,-1,0,-1,-1l0,-1m0,0c0,-1,1,-1,1,-1c0,0,1,0,1,-1c0,0,1,0,1,-1c0,-1,0,-1,0,-1M248.5,200.5l1,0l1,1c1,0,1,0,2,0l1,0l0,-1l0,1l-1,0l0,1l-1,0l-1,0l-1,-1l-1,0l-1,1l0,-1c0,0,1,0,1,-1ZM250.5,205.5c0,1,0,2,0,2l0,-1c0,-1,0,-1,0,-2l-1,0l0,-1c0,0,0,-1,1,-1l0,1l0,1ZM312.5,219.5c0,0,0,1,0,1c1,0,1,0,1,0c0,0,0,-1,0,-1l-1,0ZM312.5,227.5c0,0,-1,0,-1,1c0,0,-1,0,-1,0l-1,0c0,0,-1,0,-2,-1l1,0c1,0,1,0,1,0l1,0c0,-1,1,-1,1,-1c0,0,1,0,1,-1c0,0,1,0,1,0c0,-1,0,-1,0,-2c1,0,1,-1,1,-1l0,-1c0,1,0,1,0,1c0,0,-1,0,-1,0l-1,0l-1,0c0,0,0,-1,0,-1c0,0,0,-1,0,-1l0,-1l0,-1c1,0,1,0,1,-1c0,0,1,0,1,0l1,0c0,0,0,1,0,1c0,0,0,1,0,1c1,0,1,1,1,1c0,0,0,1,0,1c0,1,0,1,0,1c0,1,-1,2,-1,3c0,0,-1,1,-1,1c0,0,0,1,-1,1ZM310.5,213.5l4,-2l-1,1l-4,2ZM306.5,220.5c0,0,-1,1,-2,1c-1,1,-2,1,-3,1c-1,1,-2,1,-3,1l-1,0c-1,0,-1,0,-2,0l0,1l0,1c0,1,0,2,0,2c-1,1,-1,1,-2,1l-1,0c0,-1,0,-1,-1,-2c0,0,0,-1,0,-3l-1,0c0,0,-1,0,-1,0l-1,0l-2,0c-1,0,-1,0,-1,0l0,-1l-1,0c0,-1,0,-1,0,-1l0,1l-1,0c0,1,-1,1,-1,1c-1,0,-1,0,-2,0l-1,0c0,0,-1,0,-1,-1l0,-1c0,-1,0,-1,0,-1l1,1l1,0l1,0c1,0,1,0,1,0l1,0l0,-1c0,0,1,0,1,0c0,0,0,-1,0,-1l-1,-2l0,-1l1,-1l0,-1l0,1c1,1,1,1,1,2l0,2c0,1,0,1,0,1c0,1,0,1,1,1l2,0l2,0l1,0c0,0,0,-1,0,-1l1,-1c0,0,0,-1,0,-1c1,-1,2,-2,2,-2c1,0,1,0,1,1l0,1c0,1,0,2,0,2c-1,1,-1,1,-2,2l1,0l1,0l1,-1l1,0l1,0l1,0c0,0,1,0,1,0c0,0,-1,-1,-1,-1c0,-1,0,-1,0,-1c0,-1,0,-1,0,-1c0,0,0,-1,0,-1c1,0,1,0,1,0l0,-1c0,0,1,-1,1,-1l1,0l1,0l1,0c1,0,1,0,1,1l1,0l-1,0l-1,0l-1,0l-1,0l-1,0l0,1c0,0,-1,0,-1,0c0,1,0,1,0,1c1,0,1,1,1,1c1,0,1,1,2,1l1,0c0,0,1,-1,1,-1l1,0l1,-1ZM298.5,210.5l4,-2l0,1l-4,2ZM294.5,218.5c-1,0,-1,0,-1,0c0,0,0,1,0,1l-1,1l-1,1c1,0,2,-1,3,-1c0,0,0,-1,0,-1l0,-1ZM291.5,223.5c0,1,0,1,1,1c0,1,0,2,0,2l1,0l1,0l1,0c0,-1,-1,-1,-2,-2c0,0,-1,0,-2,-1ZM291.5,229.5l-4,2c0,0,0,-1,0,-1l4,-2ZM280.5,208.5c0,0,1,-1,1,-1c1,0,1,0,1,0c1,0,1,0,2,0c0,1,0,1,0,1c0,1,0,1,0,1c0,1,-1,1,-1,1c0,0,-1,0,-1,0l-1,0l-1,0l2,0c1,-1,1,-1,2,-1c-1,0,-1,0,-1,0c0,-1,-1,-1,-1,-1c0,0,-1,1,-1,1c0,0,-1,0,-1,0c0,-1,0,-1,0,-1ZM272.5,216.5l-2,-1l1,-1l1,1ZM271.5,223.5l-1,0l-1,0c-1,0,-2,0,-2,-1c-1,0,-1,-1,-1,-1l0,-9l0,-2l1,10l0,1c1,0,1,0,2,0l1,0l1,0c1,0,1,0,2,0c0,0,1,0,1,0l0,-1l0,-1c-1,0,-1,0,-1,0l0,-1l1,-1c0,0,0,1,0,1c0,1,0,1,1,1c0,1,0,1,0,1c0,1,-1,1,-1,1c0,1,0,1,0,1c0,0,-1,1,-1,1c-1,0,-1,0,-2,0ZM271.5,210.5l4,-2l0,1l-4,2ZM264.5,207.5c0,0,1,0,2,0c0,0,1,0,1,0l1,0l1,0c-1,1,-1,1,-1,1l-1,0l-1,0c-1,0,-1,0,-1,0l-1,0l-1,0c0,0,0,-1,1,-1ZM365.5,223.5c0,0,-1,0,-1,0l-1,-1l-1,0l-1,0c0,0,0,1,0,1l-1,0l-1,0l-12,0c0,0,0,1,0,1c0,0,0,1,0,1l-1,0l0,-1l0,-1c-1,-1,-1,-1,-1,-1c-1,0,-1,1,-1,1c-1,0,-1,0,-1,0l-1,0c0,0,-1,0,-1,0c-1,-1,-1,-1,-1,-2c0,0,0,1,0,1c0,0,-1,0,-1,0l0,1c0,0,-1,0,-1,0c0,0,-1,0,-1,0c1,0,1,0,1,0c1,0,1,0,1,0l1,1c0,1,0,1,0,1c0,1,0,1,0,1c0,0,-1,0,-1,0c0,1,0,1,-1,2c-1,0,-1,0,-2,1c-1,0,-2,0,-3,0c-1,0,-1,0,-2,0c-1,-1,-1,-1,-1,-1c-1,-1,-1,-1,-1,-1c0,-1,-1,-1,-1,-1c0,-1,0,-1,0,-1c0,-1,1,-1,1,-2c0,-1,0,-1,1,-2c0,1,0,1,0,2c-1,0,-1,1,-1,1c0,0,0,1,0,1c1,0,1,1,1,1c1,1,2,1,3,1c1,0,1,0,1,0c0,0,1,0,1,0c0,0,1,0,1,0c1,0,1,-1,2,-1c0,0,1,-1,1,-1c0,0,-1,0,-2,0c0,0,-1,0,-1,-1c0,0,0,-1,0,-1c0,0,0,-1,1,-1l1,0c0,-1,0,-1,0,-1c1,0,1,0,1,0l0,-1c0,0,1,0,1,0c0,-1,0,-1,0,-1c0,0,0,-1,0,-1l-1,-7l1,-2l1,11l0,1c1,0,1,0,1,0l1,0c1,0,1,0,1,0c1,0,1,0,1,-1l1,0c0,0,0,1,0,1c0,0,1,0,1,0l1,0l1,-1l2,-1c0,-1,1,-1,1,-1c1,0,1,-1,2,-1c1,0,1,0,2,1c0,0,1,0,1,1l0,1c0,0,-1,1,-1,1l0,1l1,-1l2,0l1,0c0,0,1,0,1,0l1,-1c0,-1,0,-1,1,-2c0,0,1,0,1,0l1,0c0,1,0,1,0,2l0,1l0,1l0,1ZM363.5,220.5l1,1c0,0,0,-1,0,-1c0,0,0,-1,-1,-1c0,0,0,1,0,1ZM362.5,207.5l1,-1l1,0c0,0,0,1,0,1c0,0,0,1,0,1c0,1,0,1,0,1l0,1l-1,0l-1,1l-1,0l0,1l-1,0l1,-1c0,0,1,-1,1,-1l1,0l0,-1l-1,0l0,-1l0,-1ZM363.5,207.5c0,1,0,1,0,1ZM356.5,220.5l-1,0c0,-1,-1,-1,-1,-1l-1,0c0,0,-1,0,-1,0c0,0,-1,1,-2,1l0,1l-2,0l1,0l0,1l2,-1c1,0,1,0,2,0l1,0c0,0,1,0,1,0l1,-1ZM348.5,210.5l4,-2l0,1l-4,2ZM336.5,205.5l0,1c1,0,1,0,1,0l1,0l0,-1l0,-1l0,1c0,1,1,1,1,1c0,0,0,-1,0,-1l0,-1l1,0l0,1l0,1l-1,0l0,1l-1,0l0,-1l0,1c-1,0,-1,0,-1,0c-1,0,-1,0,-1,0l0,-1l0,-1ZM335.5,204.5l5,-2c0,0,-1,1,-1,1l-4,2ZM337.5,201.5l5,-2c-1,0,-1,1,-1,1l-5,2ZM409.5,227.5l-2,-1l1,-2l1,1ZM406.5,221.5c1,0,1,0,2,0c0,0,1,0,1,0l0,-1l0,-1c0,0,-1,0,-1,0l0,-1l1,-1l0,1l1,1l0,1c0,1,0,1,-1,1c0,1,0,1,0,1c0,0,-1,1,-1,1c-1,0,-1,0,-2,0l-1,0l-1,0c0,1,0,1,0,1c0,1,0,2,0,2c-1,0,-1,1,-1,1l-1,1l-1,0c0,0,0,1,-1,1l-1,0c0,0,-1,0,-2,-1l1,0c1,0,1,0,2,0c0,-1,0,-1,1,-1l1,-1c0,-1,1,-1,1,-1c0,-1,0,-1,1,-2l-1,-1l0,-1c0,0,0,-1,0,-1c1,0,1,1,1,1c0,0,1,0,1,0ZM405.5,212.5c1,0,1,0,1,0c1,0,1,0,2,0c0,0,1,0,1,0c0,0,1,0,1,1c-1,0,-1,0,-1,1l-1,0c0,0,0,1,-1,1l-1,0l1,-1c1,0,1,0,2,-1c0,0,-1,0,-1,0c0,0,-1,0,-1,0c0,0,-1,0,-1,0l-1,0c0,0,0,-1,0,-1ZM388.5,230.5c0,-1,0,-1,0,-2c0,0,0,-1,0,-1l0,-1l1,1l0,1l0,1l0,1c0,0,-1,0,-1,0ZM402.5,216.5c0,-1,0,-1,0,-2c-1,0,-1,-1,-1,-1l0,-1l1,0l0,1l0,1l0,1l0,1ZM393.5,223.5l0,-1c-1,0,-1,0,-2,0c0,0,-1,0,-1,0l-1,0c0,0,-1,0,-1,0c0,0,0,1,-1,1l-1,0l-1,0c-1,0,-1,0,-1,0c-1,0,-1,-1,-1,-1c0,1,0,1,-1,2c0,0,-1,0,-2,-1c0,0,-1,0,-1,0l-1,1l-1,1c0,0,-1,0,-2,1c-1,0,-2,0,-4,0l5,-2l1,-1c1,0,1,0,1,-1l1,-1c0,-1,1,-2,1,-2l1,0c1,0,1,0,1,1c1,0,1,1,2,1c1,0,1,0,1,0l1,0c1,0,1,0,1,0l1,0c-1,0,-1,-1,-1,-1l0,-1l1,0c0,-1,0,-1,0,-1c0,0,0,-1,0,-1l1,0c-1,0,-1,0,-1,-1l1,0c0,0,0,-1,0,-1c1,0,2,1,2,1c1,1,1,1,2,1c0,1,1,1,1,2l0,1c0,1,0,1,0,1l0,1c-1,0,-1,1,-1,1ZM389.5,218.5c0,0,-1,1,-1,1l0,1c1,0,1,0,1,0c0,0,1,0,1,0c0,0,0,-1,0,-1l0,-1l-1,0ZM391.5,218.5c0,1,0,1,0,1l0,1l2,1c0,0,0,-1,0,-1c0,0,-1,0,-1,-1c-1,0,-1,0,-1,-1ZM382.5,222.5l0,-1l-1,0c0,-1,0,-1,0,-1l-1,0c0,1,0,1,0,1l1,0l0,1ZM377.5,213.5l4,-2l0,1l-4,2ZM99.5,206.5c1,0,1,0,1,0c1,0,1,0,2,0c0,0,1,0,1,0c0,0,1,0,1,1l-1,0c0,0,0,1,0,1c0,0,-1,0,-1,0c0,1,0,1,-1,1l-1,0l1,-1c1,0,1,0,2,-1c-1,0,-1,0,-1,0c0,0,-1,0,-1,0c0,0,-1,0,-1,0c0,0,-1,0,-1,0c0,0,0,-1,0,-1ZM134.5,210.5c1,0,1,0,1,0c1,0,1,0,2,0c0,0,1,0,1,0c0,0,1,0,1,1c-1,0,-1,1,-1,1l-1,0c0,0,0,1,0,1c-1,0,-1,0,-1,0l-1,0l1,-1c1,0,1,0,2,-1c0,0,-1,0,-1,0l-1,0c0,0,-1,0,-1,0l-1,0l0,-1ZM320.5,221.5l1,0l0,-1l1,0l0,-1l0,-1l-1,0l0,-2l0,-1l1,0l0,1l0,1l0,1l0,1l0,1l1,-1c1,0,1,0,1,0l0,-1c1,0,1,1,1,1c0,0,1,0,1,0l0,1c0,0,-1,0,-1,0c0,1,0,1,0,1l-1,0l-1,0c0,0,-1,0,-1,0ZM324.5,219.5c0,0,-1,0,-1,1l-1,0l0,1c0,0,1,0,1,0l0,-1c0,0,1,0,1,0c0,0,1,0,1,0c0,0,0,-1,0,-1c-1,0,-1,0,-1,0ZM93.5,267.5c0,1,0,2,0,2l-1,1c0,1,0,1,0,1l1,0l0,1l-1,0l-1,1l-1,0l0,1l-1,0l-1,1l-1,0c-1,0,-1,0,-1,0l0,1l-1,0l-1,1l-3,0l-3,0l-1,0c-1,0,-1,0,-1,0l-1,-1c0,-1,0,-1,-1,-1c-1,0,-1,0,-2,-1l-1,0l-1,-1l-1,0l0,-1l-1,0l0,-1l1,0l0,-1l-1,0l0,-1l0,-1l0,-1l0,-1l0,-1l0,-1l1,-1l-1,-1l1,0l0,-1l1,0l0,-1l1,0l2,-1l1,0l1,0l0,-1l1,-1l1,-1l1,0l3,0l3,0l1,1l0,1l1,0l1,1l1,0l1,0l0,1c1,0,1,0,1,0l1,0l0,1c1,0,1,1,2,1l-1,1l0,1l1,0l0,1l0,1ZM84.5,277.5l1,-1l0,-1l1,0c1,0,1,0,2,0l0,-1l1,0c0,0,1,0,1,-1l1,0c0,0,0,-1,0,-1l1,0l-1,-1l1,0l0,-1l0,-1l1,0l0,-1l0,-1c0,-1,0,-2,0,-2c0,0,-1,-1,-1,-1c0,0,0,-1,0,-1l-1,0l1,-1l-1,-1l-1,-1l-1,0l-1,-1l-2,0l0,-1l-1,-1l-1,0l-1,0l-2,0l-1,0l-2,0l-1,0l-1,0l-1,1c0,1,0,1,-1,1l-1,1l-1,0l-1,0l-1,1c-1,0,-1,1,-2,1l1,1l1,0l-1,0l0,1l-1,1l0,1c0,0,0,1,0,1l0,1l0,1l1,1l0,1l1,0l-1,0l-1,1l1,0l1,0l0,1l1,0l0,1l1,0l1,0l1,1c1,0,1,0,1,0l1,1c0,1,1,1,1,1l1,0l3,0ZM90.5,262.5l-1,0l-1,0l0,-1l-1,0c0,0,-1,0,-1,0c1,0,1,0,1,0c0,-1,0,-1,0,-1l-1,0c1,0,1,0,1,0l1,0l0,1c0,0,1,0,1,0l0,1l1,0ZM90.5,272.5l-1,0l0,1l-1,0l-1,1l0,-1l-1,0c1,0,1,0,1,0l1,0l0,-1c1,0,1,0,1,-1l1,1ZM85.5,274.5l0,1c0,0,-1,0,-1,0l-3,0l-3,0l-1,0c-1,0,-1,0,-1,0l-1,-1c0,0,0,-1,1,-1l1,0l1,0l3,0l3,0l1,0l0,1ZM85.5,260.5c0,0,0,1,0,1l-1,0l-3,0l-3,0l-1,0c-1,0,-1,0,-1,0l-1,-1c0,0,0,-1,1,-1l1,0l1,0l3,0l3,0c1,0,1,0,1,0l0,1ZM84.5,263.5l0,-1l1,0l1,0c0,0,1,0,1,0c0,0,0,1,1,1l0,1l2,-1l0,1l1,1l0,1l0,1l0,1l0,1l-1,0c0,1,0,1,0,1l0,1l-1,-1c0,0,-1,0,-1,1l-1,0l0,1l-1,0l-1,0c0,0,0,-1,-1,-1l-3,0l-3,0l-1,0l-1,0l0,1l-1,0c-1,0,-1,0,-1,0c-1,-1,-1,-1,-1,-1l-1,-1l-1,1l0,-1l-1,-1l0,-1l0,-1c0,-1,0,-1,0,-1c0,0,0,-1,0,-1l0,-1l1,0c0,-1,0,-1,0,-1l1,1c0,0,1,0,1,-1l1,0l0,-1l1,0c0,0,1,0,1,0l1,1l1,0l3,0ZM84.5,271.5l1,0l1,0l1,0l1,0l0,-1l2,0l0,-1l0,-1l1,0l0,-1c0,-1,0,-1,-1,-2c0,0,0,-1,0,-1l-1,0l-1,0l0,-1l-1,0l-1,-1c0,0,-1,0,-1,0l0,1l-1,0l-3,0l-3,0l-1,0l-1,0l0,-1l-1,0c0,0,-1,0,-1,0l0,1l-1,0c0,1,-1,1,-1,1l-1,0l0,1l-1,0l0,1l0,1l0,1l0,1l1,0c0,1,0,1,0,1l1,0c0,0,1,0,1,0l0,1l1,0l1,0c0,0,1,0,1,0l1,0l1,0l3,0l3,0ZM83.5,266.5l0,1l1,0l0,1c0,0,0,1,0,1l-1,0l-1,0c-1,0,-1,0,-1,-1l1,0c0,-1,0,-1,0,-1c0,-1,1,-1,1,-1ZM83.5,267.5c-1,0,-1,0,-1,0c0,1,0,1,0,1c0,0,0,1,0,1l1,0l0,-1c0,0,1,0,1,0l-1,0l0,-1ZM81.5,265.5l0,1c-1,0,-1,0,-1,0l-1,0l0,1l1,0l0,1c0,1,0,1,0,1c-1,0,-1,0,-1,0l0,-1l0,-1l0,-1l-1,0l1,-1c0,1,0,1,1,1c0,0,1,0,1,-1ZM77.5,265.5l0,1l1,0c0,1,0,1,0,1l0,1l0,1c-1,0,-1,0,-1,0l0,-1c0,0,0,-1,0,-2ZM71.5,262.5l1,-1l1,0l0,-1l1,0l0,1l-1,0l-1,1l-1,0ZM71.5,272.5l1,-1c0,1,0,1,1,1l0,1l1,0c0,1,0,1,0,1l-1,0c0,-1,-1,-1,-1,-1l-1,-1ZM151.5,269.5l0,-1l1,-1l-1,-8l1,-3l0,11l0,1c0,1,0,1,-1,1ZM144.5,268.5l1,0l1,0c0,-1,0,-1,0,-1c0,0,1,0,1,-1l-1,-2l0,-6l0,-1l0,-1l1,0c0,0,0,1,0,1l1,0c0,1,0,1,-1,1c0,1,0,1,0,1c0,0,0,1,0,2c0,0,0,1,0,3l0,1l0,1c0,0,0,1,0,1c0,0,0,1,0,1c0,1,-1,1,-1,1c0,0,-1,0,-1,0c0,0,-1,0,-1,0l-1,0l-1,0c0,0,0,-1,0,-1c-1,0,-1,0,-1,-1l0,1l-1,1l-1,0c-1,0,-1,0,-1,-1l-1,1c0,0,-1,0,-1,0l-1,0c0,0,-1,0,-1,-1l-1,1c0,0,-1,0,-2,0l-2,0c-1,0,-2,0,-3,0c0,0,0,-1,0,-1c0,-1,0,-1,0,-1l-1,0c0,0,-1,0,-1,0l-4,2c-1,0,-1,0,-1,0c-1,0,-1,0,-2,0l-1,0l-1,0c0,1,0,1,0,2c-1,0,-1,0,-1,1c0,0,0,1,-1,1l-1,1c-1,0,-1,1,-1,1l-1,0l-1,0c0,0,-1,0,-2,-1l1,0c1,0,1,0,2,0c0,0,0,-1,1,-1l1,-1c1,-1,1,-1,1,-1c0,0,0,-1,1,-1l0,-1c0,0,-1,0,-1,0c0,0,-1,0,-1,0c-1,0,-1,0,-1,-1c0,0,0,-1,0,-1c0,0,0,-1,0,-1l1,0c0,0,0,-1,0,-1l1,0l1,0c0,1,0,1,0,1c1,0,1,0,1,1l0,1c0,0,1,0,1,0c1,0,1,0,1,0c1,0,1,0,1,0c0,0,1,0,1,-1c0,0,1,0,2,0l1,0l0,-1l1,0l-1,0l-1,0c-1,-1,-1,-1,-2,-1c0,0,-1,0,-1,0l-1,0l0,-1c1,0,1,0,1,0c1,-1,1,-1,2,-1l1,0c0,0,0,1,1,1c1,0,2,1,3,1c1,0,1,0,2,0c0,0,1,0,2,0l-1,2l-1,0c0,1,0,1,0,1c1,0,1,0,1,0l1,0l1,0l1,0l1,0l1,0l0,-1c0,0,1,0,1,-1l1,0c0,1,0,1,0,1c0,0,0,1,0,1c1,0,2,0,2,-1l1,-1c0,0,0,1,1,1l1,0c0,0,1,0,1,-1l1,0c0,1,1,2,1,2l1,0ZM136.5,259.5l0,1c0,1,1,1,1,1l0,-1l1,-1l0,1l1,0l0,-1l0,-1l0,1l0,1c0,1,0,1,0,1l-1,0l-1,0c0,1,0,1,0,1c-1,0,-1,0,-1,-1l0,-1ZM138.5,254.5c0,-1,1,-1,1,-1c1,0,1,1,1,1c0,0,0,1,0,1c0,1,-1,1,-1,1l1,0l0,1l-1,0l-1,1c0,0,-1,0,-1,1c0,0,-1,0,-1,0l-1,0c1,-1,2,-2,3,-2l0,-1c-1,0,-1,0,-1,-1l1,-1ZM139.5,255.5l0,-1l-1,0l0,1l1,0l0,1l0,-1ZM122.5,273.5l-2,-1l1,-1l2,1ZM121.5,250.5c0,0,1,0,1,-1l1,0c0,0,0,1,0,1c0,0,0,1,0,1c0,0,0,1,0,1l1,0l-1,1l-1,0l-1,1l-1,1l-1,0l1,-1c0,0,1,-1,1,-1l1,0l0,-1l-1,0l0,-1l0,-1ZM122.5,250.5c0,1,0,1,0,1l1,0l-1,0ZM113.5,266.5c0,0,-1,1,-1,1c0,0,0,1,1,1l1,0c0,0,0,-1,0,-1c-1,0,-1,0,-1,0c0,0,0,-1,0,-1ZM107.5,268.5l-1,1c-1,0,-2,0,-2,0l-1,1l-1,0l-1,0c0,-1,0,-1,-1,-1c0,-1,0,-1,1,-1l0,-1c0,0,0,1,0,1l1,0c0,0,1,0,2,-1c1,0,1,0,1,0c1,0,1,0,1,0c0,-1,0,-1,0,-1c0,-1,0,-1,-1,-2l-1,-1l-1,0l0,-2c0,0,1,0,1,0c0,1,0,1,1,1l1,1l0,1c1,0,1,1,1,1c0,0,0,1,0,1c0,1,0,1,0,1c0,1,0,1,0,1ZM104.5,273.5l-4,2c0,-1,1,-1,1,-1l4,-2ZM218.5,265.5c0,0,-1,1,-1,1c0,0,0,1,1,1l0,-1c0,0,0,-1,0,-1ZM218.5,273.5c0,0,-1,1,-1,1l-1,0c0,0,-1,0,-1,0l-1,0c0,0,-1,0,-1,0c0,0,-1,0,-1,-1c0,0,1,0,1,0l1,0c1,0,1,0,1,0c1,0,1,0,1,0c1,-1,1,-1,1,-1c1,-1,1,-1,1,-1c0,0,0,-1,1,-1c0,-1,0,-1,0,-2l-1,0l0,1c-1,0,-1,0,-1,0l0,-1l-1,0c0,-1,0,-1,0,-1c0,0,0,-1,0,-1c0,-1,1,-1,1,-2c1,0,1,-1,1,-1c0,0,1,1,1,1c1,1,1,1,1,1c0,1,0,1,0,1c0,1,0,1,0,2l0,1c0,1,0,1,-1,2c0,1,0,1,0,1c-1,1,-1,1,-1,1ZM215.5,260.5l4,-2c0,1,0,1,0,1l-4,2ZM211.5,269.5l0,-1l0,-1l-1,-8l1,-3l1,11l0,1c-1,1,-1,1,-1,1ZM203.5,268.5c1,0,1,0,1,0c1,0,1,0,1,0c0,-1,1,-1,1,-1l0,-1l0,-2l-1,-6l0,-1l0,-1c1,0,1,0,1,0c0,0,0,1,0,1c0,0,1,0,1,0c0,1,0,1,0,1c0,1,0,1,0,1c0,0,0,1,0,2c0,0,0,1,0,3l0,1l0,1c0,0,0,1,0,1c0,0,0,1,-1,1c0,1,0,1,0,1c0,0,-1,0,-1,0l-1,0l-1,0l0,1l-1,0l0,1c0,0,0,1,0,2c0,0,-1,0,-1,0c0,1,0,1,-1,1c0,0,0,1,-1,1l-1,0l-1,0c0,0,-1,0,-2,0c0,0,0,-1,0,-1l1,0c1,0,1,0,2,0l1,-1l1,0c0,0,0,-1,0,-1c1,0,1,-1,1,-1c0,0,0,-1,1,-1c0,-1,0,-1,0,-1l-1,0c0,-1,0,-1,0,-1l0,-1l0,-1l1,1l0,1c0,0,1,0,1,0ZM200.5,260.5l0,1l1,0l0,-1l0,1c1,0,1,0,1,0l0,-1l0,-1l1,0l0,1l0,1c0,1,-1,1,-1,1l-1,0c-1,1,-1,1,-1,1c0,0,-1,0,-1,-1l0,-1l0,-1ZM201.5,255.5l0,-1c1,0,1,0,1,0c1,0,1,0,1,0c0,0,0,1,0,1c0,0,0,1,0,1c0,0,0,1,0,1l0,1l-1,0l-1,1l-1,0c0,1,-1,1,-1,1c1,-1,2,-2,2,-3l0,-1l0,-1ZM202.5,256.5l0,-1c-1,0,-1,0,-1,1l1,0ZM193.5,268.5c0,0,-1,0,-2,0c-1,0,-2,0,-4,1c-1,0,-2,0,-3,0c-1,0,-1,0,-1,0c-2,0,-3,0,-5,0c-1,0,-2,0,-3,0c-1,0,-2,0,-3,0l-1,0l-1,0c0,0,-1,0,-1,0c-1,0,-1,0,-1,0c-1,0,-1,-1,-1,-1c-1,0,-1,0,-1,0c0,-1,0,-1,0,-1c-1,1,-2,1,-2,1l-1,1c-1,1,-1,1,-1,2c-1,1,-1,1,-1,2c0,0,0,1,0,1c1,1,1,2,2,2c0,1,0,1,0,1l1,0l1,0l0,1l1,0c1,0,1,0,1,0c1,0,1,0,1,0l1,0c0,0,1,0,2,0l1,0l1,0l-3,2c-1,0,-2,0,-2,0c-1,0,-1,0,-2,0c0,0,-1,0,-1,0c-1,-1,-2,-1,-2,-1c0,0,-1,-1,-1,-1c-1,-1,-1,-1,-1,-2c-1,0,-1,-1,-1,-1l0,-1c0,-1,0,-2,1,-3c0,-1,0,-1,0,-1c1,-1,1,-1,1,-1c0,-1,1,-1,1,-1c0,-1,0,-1,1,-1l1,-1c0,0,-1,0,-1,0c0,0,0,-1,-1,-1l1,-2l1,0l1,0l1,0c0,0,1,0,1,1l0,1c0,1,0,1,0,1c-1,0,-1,0,-1,0c0,1,0,1,0,1c1,0,1,0,1,1l1,0c0,0,1,0,1,0l1,0c0,0,1,0,1,0l1,0c1,0,2,0,2,0c1,0,2,0,4,0c1,0,2,-1,4,-1l1,0c1,0,2,0,3,0c2,0,3,0,4,0c2,0,3,0,3,0l0,-1c0,0,0,-1,-1,-1c-1,0,-1,0,-1,0c-1,0,-3,0,-5,0c-2,0,-4,1,-6,1c-1,0,-3,0,-4,0c-2,0,-3,0,-4,-1c0,-1,0,-1,1,-2c0,-1,1,-1,1,-2c1,0,2,-1,2,-2c1,0,2,-1,3,-1l1,0l-1,1c0,0,0,1,-1,1c-1,0,-2,1,-2,1c-1,1,-2,2,-2,2c0,0,-1,0,-1,1l1,0l1,0l1,0l1,0c1,0,2,0,4,0c2,0,4,0,6,0c2,-1,3,-1,4,-1c1,0,1,1,2,1c0,0,1,0,1,0c0,0,0,1,0,1l0,1c0,0,0,1,0,1c0,1,0,1,-1,1ZM178.5,253.5l0,1c0,1,0,1,0,1l1,0l0,-1l0,-1l1,0l0,1c0,0,1,0,1,-1l0,-1l0,1l0,1c0,1,0,1,-1,1l-1,0c0,1,-1,1,-1,1l0,-1l-1,0l0,-1l1,0ZM182.5,251.5l-6,2c1,0,1,-1,1,-1l5,-3ZM167.5,282.5l-4,3c0,-1,1,-1,1,-2l4,-2ZM307.5,265.5c-1,0,-1,1,-1,1c0,0,0,1,1,1l0,-1c0,0,0,-1,0,-1ZM307.5,273.5c-1,0,-1,1,-1,1l-1,0c0,0,-1,0,-1,0l-1,0c0,0,-1,0,-1,0c-1,0,-1,0,-1,-1l1,0c1,0,1,0,1,0c0,0,1,0,1,0c1,0,1,0,1,0c0,-1,1,-1,1,-1c1,-1,1,-1,1,-1c0,0,0,-1,1,-1c0,-1,0,-1,0,-2c-1,0,-1,0,-1,0l0,1l-1,0l0,-1c0,0,-1,0,-1,0c0,-1,0,-1,0,-1c0,0,0,-1,0,-1c0,-1,0,-1,1,-2c0,0,1,-1,1,-1c0,0,1,1,1,1c0,1,1,1,1,1c0,1,0,1,0,1c0,1,0,1,0,2l0,1c0,1,-1,1,-1,2c0,1,0,1,-1,1c0,1,0,1,0,1ZM304.5,260.5l4,-2c0,1,0,1,-1,1l-4,2ZM300.5,269.5l0,-1l0,-1l-1,-8l1,-3l1,11l0,1c-1,1,-1,1,-1,1ZM292.5,268.5c1,0,1,0,1,0c0,0,1,0,1,0c0,-1,0,-1,1,-1l0,-1l0,-2l-1,-6l0,-1l0,-1c0,0,1,0,1,0c0,0,0,1,0,1c0,0,1,0,1,0c0,1,0,1,0,1c0,1,0,1,0,1l-1,0c0,0,0,1,0,2c0,0,1,1,1,3l0,1l0,1c0,0,0,1,0,1c0,0,-1,1,-1,1c0,1,0,1,0,1c0,0,-1,0,-1,0l-1,0l-1,0c-1,0,-1,0,-1,0c-1,0,-1,0,-1,0c-1,0,-1,0,-1,-1l-1,0l-1,0l0,1l-1,0l-1,0l-1,0l-1,0c-1,0,-1,0,-1,0c-1,0,-1,0,-1,-1l-3,-2c0,0,0,-1,-1,-1l0,1l0,1c-1,1,-1,1,-1,2c0,0,-1,0,-1,0l-1,0l-1,0l-1,0l-1,0c-1,0,-2,0,-2,0c-1,0,-1,0,-1,0c-1,0,-1,0,-2,0c-1,0,-1,0,-2,0l-1,0l-1,0l-1,0c0,-1,0,-1,0,-1l0,-1l0,-1c0,-1,0,-1,0,-1c-1,1,-1,1,-2,2c0,0,-1,0,-1,0l0,1l0,1c0,1,0,1,0,1l-1,1c-1,0,-1,1,-1,1c-1,0,-1,0,-2,0c0,0,0,1,-1,1c-1,0,-2,1,-3,1c-1,0,-2,0,-3,0c0,0,-1,0,-2,0c-1,0,-1,0,-2,0c-1,0,-1,0,-2,0c0,0,-1,0,-2,0c-1,0,-1,0,-2,0c-1,-1,-2,-1,-2,-1c-2,-1,-3,-1,-4,-2c-1,0,-2,-1,-2,-2c-1,0,-1,0,-1,0c0,-1,0,-1,0,-1c1,1,1,1,1,1c1,0,1,0,1,1c1,0,2,0,3,1c0,0,1,0,1,0c1,0,1,0,2,1c0,0,1,0,2,0c0,0,1,0,2,0c0,0,1,1,1,1c1,0,2,0,2,0c1,0,1,0,2,0c1,-1,1,-1,2,-1c1,0,2,0,3,0c1,0,2,0,2,-1c1,0,2,0,3,0c1,-1,2,-2,2,-2c0,0,0,-1,0,-1l0,-1l-1,-1l0,-2l1,1l1,0c1,0,1,0,1,0c1,0,1,-1,1,-1c0,0,1,0,1,-1l0,1l0,1c0,1,0,1,1,2c0,1,0,1,1,1l1,0l1,0c1,0,1,0,1,-1l0,-1c0,0,0,-1,0,-1c0,-1,1,-1,1,-1c0,-1,0,-1,0,-1c1,-1,1,-1,2,-1c0,0,1,0,1,1c0,0,0,1,0,1l0,1c0,1,0,1,0,1l0,1l-1,1l1,0c1,0,1,0,1,0l1,0l1,0l1,0c1,0,1,0,1,0c0,-1,0,-1,1,-1l0,-1c0,0,0,-1,0,-1c-1,-1,-1,-1,-1,-1c0,0,-1,-1,-1,-1c0,0,-1,0,-1,0c-1,0,-1,0,-1,0c0,0,0,-1,0,-1c-1,0,-1,0,-1,0c0,-1,0,-1,0,-1l0,-1c1,-1,1,-1,1,-1c1,-1,2,-1,3,-2c2,0,3,-1,5,-1c1,-1,2,-1,2,-1l1,0l0,-1l0,2c-1,0,-1,0,-1,0c-1,0,-1,1,-3,1c-1,1,-3,1,-4,2c-1,0,-2,1,-3,1l0,1l1,0c0,0,1,0,1,0c0,1,0,1,1,1c1,1,2,1,2,1c1,1,1,1,2,2c0,0,1,1,2,1l1,2l1,0l1,0c1,0,1,0,1,0l1,0c0,0,0,-1,0,-1l1,0l0,-1c-1,0,-1,0,-1,0c-1,0,-1,0,-1,0l1,-2c0,0,1,0,1,0c0,-1,1,-1,1,-1l1,0c0,0,0,1,0,1l1,0l0,1l0,1l0,1l-1,0l1,0l1,1l1,0ZM292.5,252.5c1,-1,1,-1,1,-1c1,0,1,0,2,0c0,0,1,0,1,0c0,0,1,1,1,1c-1,0,-1,1,-1,1l-1,1l-1,0l-1,0l1,-1c1,0,1,0,2,-1c-1,0,-1,0,-1,0c0,0,-1,0,-1,0c0,0,-1,0,-1,0c0,0,-1,0,-1,1l0,-1ZM285.5,259.5c0,-1,0,-1,0,-2c0,-1,0,-1,0,-2l1,1l0,1l0,1c0,1,0,1,-1,1ZM282.5,273.5l-4,2c0,-1,0,-1,0,-1l4,-2ZM268.5,261.5l-1,-1l1,-1l1,1ZM268.5,264.5l-1,0c0,1,0,1,0,1c0,1,0,1,0,1l1,1c0,0,1,-1,1,-1l1,0l0,-1c0,0,-1,0,-1,0c0,-1,0,-1,-1,-1ZM268.5,273.5l-4,2c0,-1,0,-1,0,-1l5,-2ZM263.5,272.5l-2,0l-1,1l-1,-1l1,-2l1,1l1,-1l1,1ZM245.5,268.5l-2,-1l1,-2l2,1ZM235.5,260.5l1,0l3,-1l5,-2l5,-2l-1,2l-1,0l-1,0l-2,1l-5,2l-4,1ZM369.5,269.5c0,0,-1,0,-1,0c-1,0,-1,-1,-1,-2c0,1,-1,2,-1,2l-1,0l-10,0l-1,1c0,1,0,1,0,2l0,-1c0,0,0,-1,0,-1l0,-1l-1,0l-2,0c0,0,-1,0,-1,0c-1,-1,-1,-1,-1,-2l-1,-9l1,-2l1,10l0,1c0,1,1,1,1,1l2,0l1,0l1,-1c0,0,0,-1,0,-1l0,-1l0,-2l0,-1l0,-3l-1,-1l0,-1c0,0,1,0,1,-1l1,2c0,0,0,1,0,1l0,1l0,1l0,1l0,1l0,2l0,1l0,1l1,-2l1,0l1,-1c0,0,1,0,1,0l1,0c1,0,1,0,2,0c0,0,0,1,0,1l1,0l0,1l-1,0c0,1,0,1,0,1l-1,1l2,0l1,0c1,0,1,-1,2,-1l0,-1c0,-1,0,-1,0,-1l0,-1l-1,-6l1,-2l1,10c0,0,0,1,0,1c0,1,0,1,0,1c1,0,1,0,1,0c1,0,1,0,1,0c1,0,1,0,1,0c0,-1,1,-1,1,-1l0,-1l0,-2l-1,-6l0,-1l0,-1c1,0,1,0,1,0c0,0,0,1,0,1c1,0,1,0,1,0c0,1,0,1,0,1c0,1,0,1,0,1c0,0,0,1,0,2c0,0,0,1,0,3l0,1l0,1c0,0,0,1,0,1c0,0,0,1,0,1c-1,0,-1,0,-1,0c0,1,0,1,0,1l-1,0l-1,0l-1,0ZM374.5,273.5l-4,2c0,-1,0,-1,0,-1l4,-2ZM362.5,266.5c0,0,0,-1,-1,-1l-1,0c0,0,-1,1,-1,1l-2,1l-1,1l1,0c0,0,1,0,1,0l1,0c0,-1,0,-1,0,-1c2,0,3,0,3,-1ZM355.5,251.5l0,1c0,0,0,1,0,1l0,-1c1,0,1,0,1,0l0,-1l0,1l1,0l0,-1l1,-1l0,1l0,1c0,1,-1,1,-1,1c-1,0,-1,0,-1,0c-1,1,-1,1,-1,1c0,0,-1,0,-1,-1l0,-1ZM359.5,249.5l-6,2c0,0,1,-1,1,-1l5,-3ZM346.5,253.5l1,0c0,0,1,0,2,1l1,0l1,0l1,0c-1,0,-1,0,-2,1l-1,0l-1,0l-1,-1l-1,0c0,0,0,1,-1,1c0,-1,1,-1,1,-2ZM341.5,272.5l1,-1l1,-1l1,0c0,0,0,1,0,1l0,1l-1,-1c0,0,-1,1,-1,1l1,1c1,0,1,0,1,0l1,0l-4,2l0,-1l1,0c0,-1,-1,-1,-1,-2ZM342.5,269.5l-1,0l-2,0c-1,0,-2,0,-2,0c-1,0,-1,0,-1,0c-1,0,-1,0,-2,0c-1,0,-1,0,-2,0l-1,0l-1,0l-1,0c0,-1,0,-1,0,-1l0,-1l0,-1c0,-1,0,-1,0,-1c-1,1,-1,1,-2,2c0,0,-1,0,-1,0c0,0,0,1,0,1c0,1,0,1,0,1c0,1,0,2,0,2c0,1,-1,1,-1,2c-1,0,-1,1,-2,1c-1,0,-1,0,-2,0c-1,0,-1,0,-2,0c0,0,-1,0,-1,-1c-1,0,-1,0,-1,-1c0,0,-1,-1,-1,-1c0,-1,0,-1,1,-1c0,-1,0,-1,0,-1l0,-1l0,-1c1,0,1,0,1,0l0,1c-1,1,-1,1,-1,1l0,1c0,0,0,1,1,1l0,1c0,0,1,0,1,0c1,0,1,0,2,0c1,0,2,0,2,0c1,0,1,-1,2,-1l0,-1l0,-1c0,0,0,-1,0,-1l0,-1l0,-1c0,0,-1,0,-1,0l0,-1l1,-1l0,1l1,0c1,0,1,0,1,0c1,0,1,-1,1,-1c1,0,1,0,1,-1l0,1l0,1c0,1,0,1,1,2c0,1,0,1,1,1l1,0c0,0,1,0,1,0l1,0l0,-1l0,-1c0,0,0,-1,0,-1c0,-1,1,-1,1,-1c0,-1,0,-1,0,-1c1,-1,1,-1,2,-1c0,0,1,0,1,1c0,0,0,1,0,1l1,1l-1,0c0,1,0,1,0,1l0,1l-1,1l1,0l1,0l1,0l1,0l1,0c0,0,1,0,1,0c1,-1,1,-1,2,-1c0,-1,0,-1,-1,-1c0,0,0,-1,0,-1l1,-2c0,0,0,1,0,1c0,1,0,1,0,1l0,1c0,0,0,1,0,1c0,0,0,1,0,1c-1,1,-1,1,-2,1c0,0,-1,0,-1,0ZM345.5,277.5l-4,2c1,0,1,-1,1,-1l4,-2ZM336.5,261.5l-1,-1l1,-1l1,1ZM336.5,264.5l-1,0c0,1,0,1,0,1c0,1,0,1,0,1c0,0,1,0,1,1c0,0,1,-1,1,-1l1,0l0,-1l-1,0c0,-1,0,-1,-1,-1ZM336.5,273.5l-4,2c0,-1,1,-1,1,-1l4,-2ZM331.5,272.5l-2,0l-1,1l-1,-1l1,-2l1,1l1,-1l2,1ZM321.5,265.5l-1,-1l0,-1l2,1ZM317.5,256.5l4,-2l0,1l-4,2ZM406.5,273.5l-1,-1l1,-1l1,1ZM404.5,269.5l-1,0l-1,0c0,0,-1,0,-1,0c0,0,-1,0,-1,0l0,-1l-1,0l0,1c-1,0,-1,0,-2,0l-1,0c0,0,-1,0,-1,0l-1,0l0,-1c0,0,-1,0,-1,0c0,0,-1,0,-1,0c-1,1,-1,1,-1,1c0,0,0,1,0,1c1,0,1,0,2,1l1,0c0,1,0,1,0,1c0,1,0,1,0,1c0,0,0,1,-1,1c0,0,-1,1,-2,1c-2,1,-3,1,-4,1l-1,0c0,0,-1,0,-1,0c-1,-1,-2,-1,-2,-1c0,-1,-1,-1,-1,-2c0,0,0,-1,0,-1l0,-1c0,0,0,-1,0,-1c1,-1,1,-2,1,-2c0,0,1,0,1,0c0,0,-1,1,-1,1c0,1,0,1,0,2c0,1,0,2,1,2c1,1,2,1,3,1c1,0,1,0,1,0c0,0,1,0,1,0l1,0c1,0,1,-1,1,-1c0,0,1,0,1,0l1,0c0,0,0,-1,0,-1c0,0,-1,0,-1,0c-1,0,-2,0,-2,-1c0,0,-1,0,-1,0l0,-1l0,-1c1,-1,1,-1,2,-2c1,0,2,-1,3,-1c1,1,1,1,1,1c0,1,1,1,1,1c1,0,1,0,2,0c0,0,0,-1,1,-1c1,0,1,0,1,0c1,0,1,0,1,0l0,1c0,0,1,0,1,0l1,0l1,0c0,0,1,0,1,0c1,-1,1,-1,1,-1l1,0c0,-1,-1,-1,-1,-1c0,0,0,-1,0,-1l1,-2l0,1l0,1l0,1l0,1c0,0,0,1,0,1c-1,1,-1,1,-2,1c0,0,-1,0,-1,0ZM404.5,256.5l4,-2l0,1l-5,2ZM401.5,273.5l-2,-1l0,1l-2,-1l1,-1l1,1l1,-2l2,1ZM397.5,252.5c0,-1,0,-1,1,-1l1,0c0,0,1,0,1,0c1,0,1,1,1,1c0,0,0,1,-1,1l0,1c0,0,-1,0,-1,0c-1,0,-1,0,-1,0l-1,0l2,-1c0,0,1,0,1,-1l-1,0c-1,0,-1,0,-2,0l-1,1l0,-1l1,0ZM394.5,263.5l-1,-1l-1,2l-1,-1l1,-2l1,1l1,-1l1,1ZM398.5,275.5l-4,2c0,0,0,-1,0,-1l4,-2ZM385.5,260.5l4,-2l-1,0c0,1,0,1,0,1l-4,2ZM110.5,255.5c0,0,1,0,1,0c0,0,1,0,1,0c1,0,1,0,2,0l0,1c0,0,0,1,0,1c-1,0,-1,0,-1,1c0,0,-1,0,-1,0l-1,0c0,0,-1,0,-1,0l2,-1c1,0,1,0,1,-1c-1,0,-1,0,-1,0c-1,0,-1,0,-1,0c-1,0,-1,0,-1,1l0,-1l0,-1ZM256.5,254.5c0,-1,1,-1,1,-1c1,0,1,0,1,0c1,0,1,0,2,0c0,0,0,1,0,1c0,0,0,1,0,1c0,0,-1,0,-1,1c0,0,-1,0,-1,0l-1,0l-1,0l2,-1c1,0,1,0,2,-1c-1,0,-1,0,-1,0c0,0,-1,0,-1,0c0,0,-1,0,-1,0c0,0,-1,1,-1,1l0,-1ZM326.5,254.5c0,0,1,0,1,0c1,0,1,-1,2,-1c0,0,1,1,1,1l0,1l0,1c0,0,-1,0,-1,0l-1,0l-1,0l-1,0l2,0c1,0,1,-1,2,-1c-1,0,-1,0,-1,0c0,0,-1,0,-1,0c0,0,-1,0,-1,0c0,0,-1,0,-1,0l0,-1ZM172.5,225.5l0,-1l0,-1l0,-8l1,-3l0,11l0,1c0,1,-1,1,-1,1ZM174.5,227.5l-4,2c1,-1,1,-1,1,-1l4,-2ZM414.5,224.5l0,-1l0,-2l-1,-8l1,-2l1,10c0,1,0,1,0,1l0,1c-1,0,-1,0,-1,1ZM416.5,225.5l-4,2c1,0,1,-1,1,-1l4,-2ZM111.5,225.5l0,-1l0,-1l-1,-9l1,-2l1,11c0,0,-1,1,-1,1c0,0,0,1,0,1ZM109.5,211.5l4,-3l0,1l0,1l-5,2ZM412.5,179.5l0,-1l0,-2l0,-8l1,-2l0,10c0,1,0,1,0,1l0,1l-1,1ZM414.5,180.5l-3,2c0,0,0,-1,0,-1l4,-2ZM208.5,175.5l0,-2l0,-1l-1,-8l1,-3l1,11l-1,1c0,1,0,1,0,2Z" class="g1_12" />
<path fill-rule="evenodd" d="M405.5,531.5l0,-1c0,0,0,-1,0,-1c0,-1,0,-2,-1,-2l1,0l0,-1l1,1c0,0,0,1,0,1l0,1c0,1,0,1,0,1c0,0,-1,0,-1,1ZM379.5,539.5c-1,0,-1,0,-2,0l-1,0c0,0,-1,1,-1,1c-1,0,-1,0,-1,0c-1,0,-1,-1,-1,-1c0,0,0,-1,0,-1c1,0,1,0,1,0l1,0c0,0,0,-1,0,-1c1,0,1,0,1,0c0,0,0,-1,1,-1c0,-1,0,-1,-1,-1c0,-1,0,-1,0,-1c-1,-1,-1,-1,-2,-2c0,0,0,-1,-1,-1c0,0,-1,-1,-1,-1c-1,0,-1,0,-1,0c0,0,-1,0,-1,0c0,-1,0,-1,-1,-1c0,-1,0,-1,0,-1l0,-1c0,-1,0,-1,1,-1c0,0,1,1,1,1c1,0,1,1,2,1c0,1,1,2,2,2c0,1,1,2,1,3c1,0,1,0,1,1l1,1c0,-1,0,-1,0,-2c0,0,0,-1,0,-2c0,0,0,-1,0,-1c0,-1,0,-1,0,-2c0,0,0,-1,0,-1c0,-1,0,-1,0,-1c0,0,0,-1,0,-1c0,0,1,0,1,-1l0,1l0,1c1,0,1,0,1,0c0,0,0,1,0,1l0,1l-1,0c0,1,0,1,0,2c0,0,0,1,0,1c0,0,0,1,0,1c0,1,0,1,0,2c-1,1,-1,1,-1,1c0,0,0,1,0,1c1,1,1,1,1,1l0,1l0,1ZM377.5,536.5l0,1c0,0,0,1,-1,1c1,0,1,0,1,0l1,-1ZM333.5,539.5c-1,0,-1,0,-2,0l-1,0c0,0,-1,1,-1,1c-1,0,-1,0,-1,0c-1,0,-1,-1,-1,-1c0,0,0,-1,0,-1c1,0,1,0,1,0l1,0c0,0,0,-1,0,-1c1,0,1,0,1,0c0,0,0,-1,1,-1c0,-1,0,-1,-1,-1c0,-1,0,-1,0,-1c-1,-1,-1,-1,-2,-2c0,0,0,-1,-1,-1c0,0,-1,-1,-1,-1c-1,0,-1,0,-1,0c0,0,-1,0,-1,0c0,-1,0,-1,-1,-1c0,-1,0,-1,0,-1l0,-1c0,-1,0,-1,1,-1c0,0,1,1,1,1c1,0,1,1,2,1c0,1,1,2,2,2c0,1,1,2,1,3c1,0,1,0,1,1c0,0,1,0,1,1c0,-1,0,-1,0,-2c0,0,0,-1,0,-2c0,0,0,-1,0,-1c0,-1,0,-1,0,-2c0,0,0,-1,0,-1c0,-1,0,-1,0,-1c0,0,0,-1,0,-1c0,0,1,0,1,-1l0,1l0,1c1,0,1,0,1,0c0,0,0,1,0,1l0,1l-1,0c0,1,0,1,0,2c0,0,0,1,0,1c0,0,0,1,0,1c0,1,0,1,0,2c-1,1,-1,1,-1,1c0,0,0,1,0,1c1,1,1,1,1,1l0,1l0,1ZM332.5,536.5l-1,1c0,0,0,1,-1,1c1,0,1,0,1,0l1,-1ZM101.5,587.5l-1,0c0,0,-1,0,-1,0c0,0,-1,0,-1,0c-1,0,-1,0,-1,0l-1,0c0,0,0,-1,0,-1c1,0,1,0,1,0l1,0c0,0,0,-1,0,-1c0,0,1,0,1,0c0,-1,0,-1,0,-1c0,0,1,0,1,0c0,-1,-1,-1,-1,-1c0,-1,0,-1,0,-1c-1,-1,-1,-1,-2,-2c0,0,-1,-1,-1,-1c-1,-1,-1,-1,-1,-1l-1,-1c0,1,0,1,0,1c-1,0,-1,0,-1,0c0,-1,-1,-1,-1,-2c0,0,0,-1,0,-1l0,-1l1,0c0,0,1,0,1,1c0,0,1,1,1,1c1,1,2,2,2,2c1,1,1,2,2,2c0,1,1,1,1,2c1,0,1,0,1,-1c0,-1,0,-1,0,-2c0,0,0,-1,0,-2l0,-1c0,0,0,-1,0,-1l0,-1c0,0,0,-1,0,-1c0,0,0,-1,1,-1c0,0,0,1,0,1l0,1c0,0,1,0,1,0c0,0,0,1,0,1l-1,1c0,1,0,1,0,2l0,1c0,0,0,1,0,1c0,1,0,1,-1,2c0,1,0,1,0,1c0,0,0,1,0,1c0,0,0,1,0,1c0,0,1,0,1,0l0,1l-1,0c0,1,0,1,0,1ZM100.5,584.5l0,1c-1,0,-1,0,-1,1c0,0,1,0,1,0l0,-1l1,0ZM421.5,540.5c0,0,-1,0,-1,0c-1,0,-1,0,-1,0c0,0,-1,0,-2,0c0,1,-1,1,-1,1c0,-1,0,-1,0,-1c0,0,0,-1,0,-1l1,0c1,0,1,-1,1,-1l1,0c0,0,0,-1,0,-1l1,0c-1,-1,-1,-1,-1,-1c0,-1,-1,-1,-1,-1c0,-1,-1,-1,-1,-2c0,0,-1,-1,-2,-1c0,0,0,-1,0,-1c-1,0,-1,0,-1,0c0,0,-1,0,-1,0c0,-1,-1,-1,-1,-2l0,-1l0,-1c1,0,1,1,2,1c0,0,1,1,1,1c1,1,2,2,2,2c1,1,1,2,2,3l1,1l0,1c0,-1,0,-1,0,-2c1,0,1,-1,1,-2c0,0,0,-1,0,-1c0,-1,0,-1,0,-2c0,0,0,-1,0,-1l0,-1c0,0,0,-1,0,-1c0,0,0,-1,0,-1c1,0,1,0,1,1l0,1l1,0c0,0,0,1,-1,1l0,1c0,1,0,1,0,2c0,0,0,1,0,1c0,0,0,1,0,1c-1,1,-1,1,-1,2c0,1,0,1,0,1c0,0,0,1,0,1c0,1,0,1,0,1l0,1l0,1ZM420.5,537.5l0,1c0,0,-1,0,-1,0c0,0,0,1,0,1c1,0,1,0,1,0l1,-1c0,0,-1,0,-1,0ZM421.5,522.5l3,-2l0,1l-4,2ZM413.5,524.5l0,-1c0,0,0,-1,0,-1c0,-1,0,-1,0,-2l0,-1c0,0,1,1,1,1c0,1,0,1,0,1l0,1c0,0,0,1,0,1c0,0,0,1,-1,1ZM115.5,582.5l-1,0c0,1,1,1,1,1c0,-1,0,-1,1,-1c-1,0,-1,0,-1,0ZM115.5,589.5c0,0,-1,1,-1,1c-1,0,-2,0,-2,0c-1,0,-1,0,-2,0c0,0,-1,0,-1,-1c0,0,1,0,1,0l1,0c1,0,1,0,1,0l1,0c1,-1,1,-1,1,-1c1,-1,1,-1,1,-1c0,0,0,-1,1,-1c0,-1,0,-1,0,-1c0,-1,0,-1,0,-1l0,1c-1,0,-1,0,-1,0c0,0,-1,0,-1,0l0,-1c-1,0,-1,0,-1,0c0,0,0,-1,0,-1c0,0,0,-1,0,-1c0,-1,1,-1,1,-1c0,-1,0,-1,0,-1c1,0,1,-1,1,-1c0,0,1,1,1,1l0,1c1,0,1,0,1,0c0,1,0,1,0,1c0,1,0,1,0,2c0,0,0,1,0,1c0,1,0,2,-1,2c0,1,0,1,0,1c-1,1,-1,1,-1,1ZM112.5,576.5l4,-2c0,1,0,1,0,1l-4,2ZM108.5,586.5l0,-2l0,-1l0,-8l0,-3l1,11c0,0,0,1,0,1c0,1,-1,1,-1,2ZM93.5,567.5l4,-2l0,1c-1,0,-1,0,-1,0l-4,2ZM103.5,568.5c0,-1,0,-1,0,-1c1,0,1,0,1,0c1,0,1,0,2,0c0,0,0,1,0,1c0,0,0,1,-1,1l-1,0l-1,0l1,0c1,0,1,0,1,-1l-1,0c0,0,-1,0,-1,0l-1,0l1,0ZM83.5,589.5c0,0,1,0,1,0l1,0c0,0,1,0,2,-1c1,0,1,-1,2,-1c0,-1,0,-1,1,-2c0,-1,0,-1,0,-1c0,-1,0,-1,0,-1l0,-1l-1,0l1,-2c0,1,1,1,1,2l0,1l0,1c0,0,0,1,0,1l0,1c0,0,-1,0,-1,1l0,1c0,0,-1,0,-1,1l-1,0c-1,0,-1,1,-1,1c-1,0,-1,0,-1,0l-1,0c0,-1,-1,-1,-1,-1l-1,0ZM85.5,575.5c0,0,0,-1,1,-1c0,0,1,0,1,0c1,0,1,0,2,0c0,1,0,1,0,1c0,1,0,1,0,1c-1,0,-1,1,-1,1c-1,0,-1,0,-1,0c0,0,-1,0,-1,0c0,0,-1,0,-1,0l2,0c0,-1,1,-1,1,-1c0,0,0,-1,0,-1c-1,0,-1,0,-1,0c-1,0,-1,0,-2,1c0,-1,0,-1,0,-1ZM76.5,579.5l-2,-1l1,-2l2,1ZM73.5,586.5l0,1l0,1l-1,-1l0,-1l1,0l-1,0l0,1c0,0,-1,0,-1,0c0,0,0,1,0,1c0,0,0,1,0,1c0,1,0,1,-1,1c0,1,0,1,-1,1c0,0,0,1,-1,1c0,0,-1,0,-1,0c0,0,-1,1,-1,1c-1,0,-2,0,-3,-1c0,0,-1,0,-1,-1c0,0,-1,0,-1,-1c0,0,0,-1,0,-1l0,-1c0,-1,0,-1,0,-1l0,-1c0,0,1,-1,1,-1l1,0l-1,0c0,1,0,1,0,1c0,1,0,1,0,2c0,0,0,1,0,1c0,0,0,1,1,1c0,0,1,1,1,1l1,0l1,0c0,0,1,0,1,0c1,-1,1,-1,2,-1c0,0,1,-1,1,-1c1,-1,1,-1,1,-2c0,-1,0,-1,-1,-2l0,-1l1,-1c0,1,1,1,1,1l1,0l1,0l0,-1l1,0l1,-1l1,-1l1,-1c1,0,1,0,1,0c1,0,1,0,2,0c1,0,1,0,1,0c0,0,1,1,1,1c0,1,0,1,0,1c0,1,0,1,0,1l0,1l-1,0c0,1,-1,1,-2,1c-1,0,-1,0,-2,0l-1,1l-1,0l-1,0ZM78.5,582.5l-1,0l-1,1l-1,1l3,0c1,0,2,0,2,0c1,-1,1,-1,2,-1l0,-1c0,0,-1,0,-1,0l-1,0c0,0,-1,0,-1,0c0,0,-1,0,-1,0ZM70.5,596.5l-4,2c0,-1,0,-1,0,-1l4,-2ZM180.5,586.5l0,-2l0,-1l-1,-8l1,-3l1,11c0,0,0,1,0,1c-1,0,-1,0,-1,0c0,1,0,1,0,2ZM172.5,584.5c0,0,1,0,1,0l1,0c0,0,0,-1,0,-1c1,0,1,0,1,-1l-1,-1l0,-7l0,-1l0,-1l1,0c0,1,0,1,0,1l1,0c0,1,0,1,0,1c-1,1,-1,1,-1,1c0,1,0,1,0,2c0,0,0,1,0,3c0,0,0,1,0,1l0,1c0,0,0,1,0,1c0,0,0,1,0,1c0,1,0,1,-1,1c0,0,-1,0,-1,0l-1,1l-1,0l0,-1l-1,0c0,0,0,-1,0,-1c0,0,-1,0,-1,-1l0,1l-1,1l-1,0c0,0,-1,0,-1,-1l-1,1c0,0,-1,0,-1,1c-1,0,-2,-1,-2,-2l-1,1c0,0,-1,0,-1,0l0,1l-1,0l-1,0c0,0,-1,-1,-1,-1l0,1l0,1c0,1,-1,1,-1,1c0,0,0,-1,-1,-1c0,-1,0,-1,0,-2l-1,-1c0,1,0,1,-1,1c0,0,-1,1,-1,1l-1,0l-1,0c-1,0,-1,0,-1,1l0,1c0,0,-1,1,-1,1c0,0,0,1,-1,1l-1,0c0,1,0,1,0,1c0,0,-1,0,-1,0c0,0,-1,0,-1,0c-1,0,-1,0,-2,0c0,-1,0,-1,-1,-1c1,0,1,0,1,0c0,0,1,0,1,0c0,0,1,0,1,0c1,0,1,-1,2,-1c1,-1,1,-1,1,-1c0,0,1,-1,1,-1l0,-1l-1,0c0,-1,0,-1,0,-1l-1,0l0,-1l0,-1l0,-1l0,-1c1,0,1,0,1,0c0,0,1,0,1,0c1,0,1,0,1,1c0,0,0,1,0,1c1,0,1,1,1,1l1,0c1,0,1,0,1,0l1,0c0,-1,1,-1,1,-1c0,0,1,-1,1,-1c0,0,1,1,1,1c1,0,2,1,2,1l1,0l1,0l1,0c0,-1,1,-1,1,-2l1,0l0,1c0,0,0,1,1,1c0,0,1,0,1,-1c0,0,1,0,1,-1c0,0,1,1,1,1l1,0c1,0,1,0,1,0c0,-1,0,-1,0,-1l1,0c0,1,1,2,1,2l1,0ZM164.5,576.5c1,1,1,1,1,1c0,-1,0,-1,1,-1l0,-1l0,1c0,0,1,0,1,0l0,-1l0,-1l1,0l0,1l0,1l-1,0c0,1,0,1,0,1l-1,0c-1,1,-1,1,-1,1c-1,0,-1,0,-1,0c0,-1,0,-1,0,-1l0,-1ZM169.5,573.5l-6,3c0,-1,0,-2,1,-2l5,-3ZM147.5,583.5c0,1,0,1,0,1c0,0,1,0,1,0l0,-1c0,0,-1,0,-1,0ZM133.5,579.5l-1,1l-1,-1l-1,1l-1,-1l0,-1l2,1l1,-1ZM139.5,584.5c-1,0,-1,0,-2,1c-1,0,-2,0,-3,1c-1,0,-3,0,-4,0c-1,0,-2,0,-3,0c-1,0,-2,-1,-3,-1c0,-1,0,-1,-1,-1l0,-1l0,-1c0,0,0,-1,1,-1c0,-1,0,-1,1,-2c0,0,0,1,0,1l-1,1c0,1,0,1,1,2l1,1c0,0,1,0,1,0l1,0l1,0l2,0c1,0,1,0,2,0l1,0l1,0l1,-1c1,0,1,0,2,0c0,-1,1,-1,1,-1l0,-1c0,0,-1,-1,-1,-1l0,-1c0,0,1,-1,1,-1c0,1,0,1,0,2c0,0,1,0,1,0c0,0,0,1,0,1c0,1,0,1,0,1c-1,1,-1,1,-1,2ZM129.5,589.5l-4,2c0,-1,0,-1,0,-1l4,-2ZM207.5,577.5l-1,-1l1,-1l1,1ZM215.5,583.5l-2,0c0,0,-1,0,-1,0l-1,0c0,0,-1,0,-1,0l0,1l-1,0l-1,0l-1,1l-1,0c-1,0,-2,1,-2,1l-1,0c0,0,-1,-1,-1,-1c-1,0,-1,-1,-1,-2c0,1,-1,2,-1,2c0,0,-1,0,-1,0l0,1l-1,0l-1,0c0,1,0,1,0,1l0,1c-1,1,-1,2,-2,2c-2,1,-3,1,-4,1c-1,0,-1,0,-1,0c0,0,-1,0,-1,0c-1,0,-1,-1,-2,-1c0,-1,-1,-1,-1,-2l0,-1c0,0,1,-1,1,-1c0,-1,0,-1,1,-2c0,-1,0,-1,0,-1l1,0l-1,0l0,1l0,1c0,0,-1,1,-1,2c0,0,1,0,1,1l0,1c0,0,1,0,1,0c1,0,1,0,2,0c1,0,1,0,1,0c0,0,1,0,1,0c1,0,1,0,2,-1l1,0c0,-1,0,-1,1,-1c0,-1,0,-1,0,-1l-2,0c0,0,-1,-1,-1,-1c-1,-1,-1,-1,-1,-1c0,-1,0,-1,0,-1c0,-1,1,-1,1,-1l0,-1c0,0,1,0,1,0c1,0,1,0,1,0c1,1,1,1,1,1c0,1,0,1,0,1c0,0,0,1,0,1l2,0c1,0,1,-1,2,-1l0,-1c0,-1,0,-1,0,-1l0,-1l-1,-6l1,-2l1,10c0,1,0,1,0,1c0,1,0,1,0,1c1,0,1,0,1,0l1,0l1,0c0,0,1,0,1,-1c1,0,1,0,2,0l1,0l1,-1l-1,0l-1,-1l-1,0l-1,0l-1,0l-1,0c1,0,1,-1,1,-1c0,0,1,0,1,-1l1,0c0,0,1,0,1,0l0,1l1,0l2,1l1,0l1,0l1,0l1,0l1,0ZM207.5,572.5l4,-2l0,1l-1,0l-4,2ZM199.5,564.5l1,0c0,-1,1,-1,1,-1c1,0,1,1,2,1l0,1l0,1c-1,0,-1,0,-1,0c-1,0,-1,0,-1,0c0,0,-1,0,-1,0c0,0,-1,0,-1,0l2,0c0,0,1,-1,1,-1c-1,0,-1,0,-1,0c-1,0,-1,0,-2,0l0,-1ZM196.5,579.5l-2,-1l-1,2l-1,-1l1,-2l1,1l1,-1l2,1ZM194.5,583.5c0,1,0,1,1,1l1,0l0,-1c-1,0,-1,0,-1,0c-1,0,-1,0,-1,0ZM196.5,593.5l-5,3c1,-1,1,-1,1,-2l4,-2ZM232.5,576.5l-1,-1l1,-1l1,1ZM234.5,582.5c0,0,-1,0,-1,1c0,0,-1,0,-1,0c0,0,-1,0,-1,0c0,0,0,-1,0,-1c0,0,-1,0,-1,-1c0,0,0,-1,1,-1c0,-1,0,-1,0,-1c1,-1,1,-1,2,-1l1,0c0,1,0,1,0,2l1,1l0,1c0,0,0,1,0,1l0,1c-1,1,-1,1,-1,2c1,0,1,0,1,0c1,0,1,1,1,1c0,1,-1,1,-1,1l0,1c-1,0,-1,1,-2,1c0,0,-1,1,-2,1c-1,0,-2,0,-2,0c-1,0,-1,0,-1,0c0,0,-1,0,-1,0c-1,0,-2,0,-2,-1c0,0,-1,0,-1,-1c0,0,0,-1,0,-1c0,-1,0,-1,0,-1c0,0,0,-1,0,-1c0,-1,1,-2,1,-2l0,-1c0,1,0,1,1,1c-1,0,-1,1,-1,1c0,1,0,1,0,2c0,1,0,1,1,2c0,0,1,1,2,1c0,0,1,0,1,0c1,0,1,0,1,-1c1,0,1,0,1,0c1,0,2,0,2,-1c1,0,1,0,1,0c0,-1,-1,-1,-1,-1c-1,0,-1,0,-1,0c0,0,-1,0,-1,0c0,0,0,-1,0,-1c0,-1,1,-1,1,-1c0,0,1,0,1,0c0,0,1,-1,1,-1c0,-1,0,-1,0,-1c0,-1,0,-1,0,-1ZM231.5,580.5l1,1c0,0,1,0,1,0c0,0,0,-1,0,-1l-1,0ZM235.5,592.5l-4,2c1,-1,1,-1,1,-1l4,-2ZM320.5,582.5l-1,0c0,1,1,1,1,1c0,-1,0,-1,1,-1c-1,0,-1,0,-1,0ZM320.5,589.5c0,0,-1,1,-1,1c-1,0,-2,0,-2,0c-1,0,-1,0,-2,0c0,0,-1,0,-1,-1c0,0,1,0,1,0l1,0c1,0,1,0,1,0l1,0c1,-1,1,-1,1,-1c1,-1,1,-1,1,-1c0,0,1,-1,1,-1c0,-1,0,-1,0,-1c0,-1,0,-1,0,-1l0,1c-1,0,-1,0,-1,0c0,0,-1,0,-1,0l0,-1c-1,0,-1,0,-1,0c0,0,0,-1,0,-1c0,0,0,-1,0,-1c0,-1,1,-1,1,-1c0,-1,0,-1,0,-1c1,0,1,-1,1,-1c1,0,1,1,1,1l1,1c0,1,0,1,0,1c0,1,0,1,0,2c0,0,0,1,0,1c0,1,0,2,-1,2c0,1,0,1,0,1c-1,1,-1,1,-1,1ZM317.5,576.5l4,-2c0,1,0,1,0,1l-4,2ZM314.5,589.5l-1,-1l-1,1l-2,-1l1,-1l2,1l1,-2l1,1ZM311.5,586.5l-1,0l-1,0c-1,0,-1,-1,-1,-1c0,0,-1,0,-1,0c0,-1,0,-1,0,-1c-1,0,-1,0,-1,0c0,0,0,1,-1,1l-1,0l0,1l-1,0l-1,0l-1,0c-1,0,-1,-1,-2,-1l-1,0c0,0,-1,0,-1,0c-1,0,-2,1,-3,1l-1,0c0,0,-1,0,-1,-1c-1,0,-1,0,-1,0l0,-1c0,0,-1,0,-1,0c0,0,-1,0,-1,0c-1,0,-1,0,-2,0c-1,0,-1,0,-2,0c-1,1,-2,1,-2,1c-2,0,-2,0,-3,0c-1,0,-2,0,-3,0c-1,0,-2,0,-3,0c-1,0,-2,0,-3,0c-1,0,-1,1,-2,1l-1,0c0,0,0,-1,0,-1l-1,0l0,1l0,1c0,0,0,1,-1,2c0,1,0,1,-1,1c0,0,0,1,-1,1l-1,0l-1,0c-1,0,-1,0,-2,0l-1,-1c0,0,1,0,1,0l1,0c0,0,1,0,1,0c1,0,1,0,2,-1c1,0,1,-1,1,-1c0,0,1,-1,1,-1c0,0,0,-1,0,-1c1,-1,1,-1,1,-1l-1,0c0,-1,0,-1,0,-1l0,-1l0,-1l0,1c0,0,1,0,1,0l0,1l1,0c1,0,2,0,3,0c1,0,2,0,2,0c1,0,2,0,3,0c0,0,1,0,2,0c1,-1,2,-1,2,-1c1,0,2,0,3,0c1,0,2,0,3,0c1,-1,2,-1,2,-1c1,0,2,0,3,0l1,0c0,0,-1,0,-1,-1c0,0,-1,0,-1,0c0,0,-1,0,-1,0c-1,0,-3,0,-4,0c-2,0,-4,0,-6,0c-2,1,-4,1,-5,1c-2,0,-3,0,-3,-1c-1,0,-1,0,-1,0c0,-1,0,-1,1,-2l0,-1c0,0,1,0,1,-1c1,-1,2,-1,3,-2c1,-1,2,-1,3,-2l0,2c0,0,-1,0,-1,0c-1,1,-2,1,-3,2c-1,1,-2,1,-2,2c0,1,-1,1,-1,1l1,0l1,0c1,0,1,0,2,0c1,0,2,0,4,0c2,0,4,-1,6,-1c2,0,3,0,4,0c0,0,1,0,1,0c0,0,1,0,1,0c1,1,1,1,1,1c0,1,0,1,0,1c0,1,0,1,0,2c0,0,0,1,0,1l-1,0c0,0,1,0,1,0l1,0l1,0l1,0c0,0,1,0,1,0c0,0,1,0,1,0c0,-1,0,-1,-1,-1l0,-1c0,0,1,-1,1,-1c0,-1,0,-1,0,-1c1,-1,1,-1,1,-1c0,0,1,-1,2,-1c0,0,0,1,1,1c0,0,0,1,0,1l0,1c0,1,0,1,0,1c0,0,0,1,0,1c0,0,-1,0,-1,1l1,0l1,0l1,0c1,0,1,0,1,0c1,0,1,0,2,-1c0,0,1,0,1,0c0,0,1,0,1,1l1,0l1,0l1,0c1,0,1,0,2,0c0,0,1,-1,1,-1c0,-1,0,-1,0,-1c-1,0,-1,-1,-1,-1l1,-2c0,0,0,1,0,1c0,1,0,1,0,1c0,0,1,0,1,0c0,1,0,1,0,1c0,0,0,1,0,1c-1,1,-1,1,-1,1c0,1,-1,1,-1,1c-1,0,-1,1,-2,1ZM311.5,572.5l4,-2l0,1l-4,2ZM307.5,580.5l-1,-1l-1,2l-1,-1l1,-2l1,1l1,-1l1,1ZM304.5,572.5l4,-2l0,1l-4,2ZM299.5,577.5l-2,-1l1,-1l2,1ZM299.5,580.5c0,0,-1,0,-1,1c0,0,-1,0,-1,0c0,1,0,1,1,1l1,1c0,0,0,-1,1,-1c0,-1,0,-1,0,-1c0,-1,-1,-1,-1,-1ZM297.5,569.5l5,-2l-1,1l-4,2ZM272.5,568.5l0,1l1,0l0,-1l0,-1l1,0l0,1c1,0,1,0,1,0l0,-1l0,1l0,1l-1,0l-1,0l0,1l-1,0l0,-1l0,-1ZM276.5,565.5l-5,3c0,-1,0,-1,0,-2l6,-2ZM265.5,570.5c0,-1,0,-1,0,-1c1,0,1,-1,1,-1c0,1,1,1,1,1l0,1l0,1l0,1l0,1l-1,-1l0,1l-1,0c0,1,-1,1,-1,1l-1,0l1,-1l1,0l0,-1l0,-1l0,-1ZM266.5,570.5c-1,0,-1,0,-1,0l1,0l0,1l0,-1ZM258.5,582.5c0,0,-1,0,-1,0c1,1,1,1,1,1l1,0c0,-1,0,-1,0,-1c-1,0,-1,0,-1,0ZM258.5,589.5c0,0,0,1,0,1c-1,0,-1,0,-1,0c-1,0,-1,0,-2,0c-1,0,-1,0,-2,0l-1,-1c1,0,1,0,1,0c0,0,1,0,1,0c0,0,1,0,1,0c1,0,1,0,1,0l1,0c0,-1,0,-1,1,-1c0,-1,0,-1,0,-1c1,0,1,-1,1,-1c0,-1,1,-1,1,-1c0,-1,0,-1,0,-1l-1,0l0,1c-1,0,-1,0,-1,0c0,0,-1,0,-1,0l0,-1c-1,0,-1,-1,-1,-1c0,0,0,-1,1,-1c0,-1,0,-1,0,-1c0,-1,1,-1,1,-1c0,0,0,-1,1,-1c0,0,0,1,0,1c0,0,1,0,1,1c0,1,0,1,0,1c0,1,0,1,0,2c0,0,0,1,0,1c0,1,0,2,0,2c-1,1,-1,1,-1,1c0,1,-1,1,-1,1ZM248.5,579.5l-2,-1l1,-1l2,1ZM248.5,589.5c-1,0,-2,0,-2,0c-1,-1,-1,-1,-1,-1c-1,0,-1,-1,-1,-1c-1,-1,-1,-1,-1,-2c0,0,0,-1,0,-1c0,0,0,-1,0,-1c1,0,1,-1,1,-1l0,-1l1,0c0,0,0,1,-1,1c0,0,0,1,0,1c0,1,0,1,0,1c0,1,0,1,0,1c0,0,1,1,1,1l1,0l0,1c1,0,1,0,2,0c1,0,1,0,2,-1c1,0,1,0,2,-1c0,0,0,-1,0,-1c0,0,0,-1,0,-1c0,-1,0,-1,0,-1c0,0,-1,-1,-1,-1l0,-1l0,-2c0,0,1,0,1,1l0,1c0,0,1,0,1,1c0,1,0,1,0,1c0,0,0,1,0,1l0,1c0,0,0,1,0,2c-1,0,-1,1,-2,1c0,1,-1,1,-1,1c-1,1,-2,1,-2,1ZM244.5,572.5l4,-2l0,1l-1,0l-4,2ZM375.5,589.5l-2,-1l1,-1l2,1ZM382.5,583.5l-2,0c0,0,-1,0,-1,0l-1,0c0,0,-1,0,-1,0l-1,1l-1,0c0,0,-1,0,-1,1c0,0,-1,0,-1,0c-1,0,-2,1,-2,1l-1,0l-1,0c0,0,0,-1,-1,-1l-1,0c0,-1,0,-1,0,-1c0,0,-1,0,-1,0c0,0,0,1,0,1c0,0,-1,0,-1,0c-1,0,-1,0,-1,0l0,1l-1,0l-1,0l0,1c0,0,-1,0,-1,1c0,0,0,1,-1,1c0,0,0,1,-1,1c0,1,-1,1,-1,1l-1,0l-1,0c0,0,-1,0,-1,0c-1,-1,-1,-1,-1,-1l1,0c1,0,1,0,2,0c0,0,0,-1,1,-1c0,0,1,0,1,0c0,-1,0,-1,1,-1c0,0,0,-1,0,-1l1,-1l-1,0c0,-1,-1,-1,-1,-1c-1,0,-1,0,-1,-1l0,-1l0,-1l1,0l0,-1l1,0c0,0,1,0,1,0l0,1l1,0c0,0,0,1,0,1c0,0,0,1,0,1c0,0,1,0,1,0c1,0,1,0,1,0c1,0,1,0,2,-1l1,0c1,0,1,0,1,0l0,1c0,0,1,0,1,0l1,0l1,0c1,0,1,0,2,-1c0,0,1,0,1,0l2,0l1,-1l-1,0l-1,-1l-1,0l-1,0c0,0,-1,0,-1,0l-1,0c0,0,1,-1,1,-1l1,-1l1,0c1,0,1,0,1,1l2,1l1,0c1,0,1,0,1,0c1,0,1,0,1,0c1,0,1,0,2,0l1,0ZM373.5,570.5c0,-1,1,-1,1,-1c0,0,0,-1,1,-1c0,1,0,1,0,1l0,1l0,1l0,1l1,0l-1,1l-1,-1l0,1l-1,0c0,1,0,1,0,1l-1,0l-1,0l1,0l0,-1c0,0,1,0,1,0l0,-1l1,0l-1,0l0,-1l0,-1ZM374.5,570.5l0,1l1,0l-1,-1ZM366.5,581.5l-1,-1l1,-1l1,1ZM366.5,570.5c0,-1,1,-1,1,-1c0,0,0,-1,1,-1c0,1,0,1,0,1l0,1l0,1l0,1l1,0l-1,1l-1,-1l0,1l-1,0c0,1,0,1,0,1l-1,0l-1,0l1,0l0,-1c0,0,1,0,1,0l0,-1l1,0l-1,0l0,-1l0,-1ZM367.5,570.5l0,1l0,-1ZM360.5,583.5l-1,0c0,1,0,1,1,1c0,0,1,0,1,0l0,-1c0,0,-1,0,-1,0ZM352.5,589.5l-1,-1l1,-1l1,1ZM350.5,586.5l-1,0l-1,0l-1,0l-1,0l1,0c0,0,0,1,0,1l0,1c0,0,0,1,-1,2c0,0,0,1,-1,1c0,0,-1,-1,-1,-1c0,0,-1,-1,-1,-1c0,-1,-1,-2,-1,-3c-1,0,-1,0,-1,0l-1,0l-3,0c0,0,-1,-1,-1,-1l0,1l0,1l-1,0c0,1,0,1,0,1c0,0,-1,-1,-1,-1c-1,-1,-1,-1,-1,-2l0,-1c0,1,-1,1,-1,1l-1,0l0,1l-1,0l0,1l1,0l0,1l0,2l0,1l0,1c1,1,1,2,1,2l0,1l-1,0l0,-1l0,-1l0,-1l-1,-3l0,-1l0,-1l0,-1l0,-1c0,0,1,-1,1,-1l0,-1l1,0l1,0l0,-1l1,0c0,0,1,1,2,1l2,1l1,0l1,0l1,0l1,0l1,0c0,-1,0,-1,0,-2l1,-1c1,-2,2,-2,2,-2l1,0l0,1l0,1c0,1,0,1,-1,1c0,1,-1,2,-2,2l2,0l2,0l1,0l1,0c0,0,1,0,1,0c1,0,1,-1,2,-1c0,-1,0,-1,-1,-1l0,-1l1,-2c0,0,0,1,0,1l0,1l0,1l0,1c0,1,0,1,0,1c-1,1,-1,1,-2,1c0,0,-1,1,-1,1ZM352.5,592.5l-4,2c0,-1,0,-1,0,-1l4,-2ZM345.5,581.5c0,0,-1,0,-1,0l0,1l-1,1c1,0,2,0,2,-1c1,0,1,0,1,-1l-1,0ZM343.5,586.5l0,1c1,1,1,1,1,1l0,1l1,0c1,0,1,0,1,-1c0,0,0,-1,-1,-1c0,-1,-1,-1,-2,-1ZM342.5,592.5l-3,2c0,-1,0,-1,0,-1l4,-2ZM330.5,575.5c0,0,0,-1,1,-1l1,0c0,0,1,0,1,0c1,1,1,1,1,1c0,1,-1,1,-1,1c0,0,0,1,0,1c0,0,-1,0,-1,0c-1,0,-1,0,-1,0l-1,0l2,0c0,-1,1,-1,1,-1c0,0,0,-1,-1,-1c-1,0,-1,0,-2,1l-1,0c0,-1,0,-1,1,-1ZM420.5,582.5c-1,0,-1,0,-1,0c0,1,1,1,1,1c1,-1,1,-1,1,-1l-1,0ZM420.5,589.5c0,0,0,1,-1,1c-1,0,-1,0,-2,0c-1,0,-1,0,-2,0l-1,-1c1,0,1,0,1,0c0,0,1,0,1,0l1,0c0,0,1,0,1,0c1,-1,1,-1,2,-1c0,-1,0,-1,0,-1c0,0,1,-1,1,-1c0,-1,0,-1,0,-1c0,-1,0,-1,0,-1l0,1c-1,0,-1,0,-1,0l-1,0l0,-1c0,0,-1,0,-1,0c0,0,0,-1,0,-1c0,0,0,-1,0,-1c1,-1,1,-1,1,-1c0,-1,0,-1,1,-1c0,0,0,-1,0,-1c1,0,1,1,1,1l1,1c0,1,0,1,0,1c0,1,0,1,0,2c0,0,0,1,0,1c0,1,0,2,-1,2c0,1,0,1,0,1c0,1,-1,1,-1,1ZM414.5,582.5c-1,1,-1,1,-2,2c-1,0,-2,1,-4,1c-1,0,-2,0,-3,1c-1,-1,-1,-1,-1,-1c-1,0,-1,-1,-1,-2l-1,1l0,1c-1,0,-1,0,-1,0c0,0,-1,0,-1,0c0,1,1,1,1,1c0,0,1,0,1,0c1,0,1,0,1,0c0,0,0,1,0,1c0,1,0,1,0,1l-1,1c0,0,-1,1,-1,1c-1,0,-2,1,-2,1c-1,0,-2,0,-3,0c-1,0,-1,0,-2,0c-1,0,-1,0,-2,-1l-1,-1c0,0,0,-1,0,-1c0,-1,0,-1,0,-1c0,0,0,-1,1,-1c0,-1,0,-2,1,-2l0,-1c0,1,0,1,0,1c0,0,-1,1,-1,1c0,1,0,1,0,2c0,1,1,1,1,2c1,0,2,1,3,1c1,0,1,0,2,-1l1,0c0,0,1,0,2,-1l1,0c-1,-1,-1,-1,-2,-1c0,0,-1,0,-1,0c0,-1,0,-1,0,-1c0,-1,0,-1,0,-1c1,0,1,-1,1,-1c1,0,1,0,1,0c1,0,1,0,1,-1c0,0,0,-1,0,-1l0,-1l0,-1l0,-6l1,-2l0,10c0,1,0,1,1,1c0,1,0,1,0,1c0,0,1,0,1,0l1,0c1,0,1,-1,2,-1c-1,0,-1,0,-1,-1c0,0,0,-1,0,-1c0,0,0,-1,0,-1c0,-1,0,-1,0,-1c1,0,1,-1,1,-1c1,0,1,-1,1,-1c1,0,1,0,1,0l1,0c1,0,1,1,1,1l1,0c0,0,0,1,0,1l-1,0l-1,0l0,-1l-1,0l0,1l-1,0c-1,0,-1,0,-1,1l0,1l1,0c0,1,1,1,1,1c1,0,1,0,1,0l1,0l1,-1l1,0l1,0ZM406.5,572.5l4,-2l0,1l-4,2ZM94.5,535.5c0,0,0,1,0,1c1,0,1,0,1,0c0,0,0,-1,0,-1l-1,0ZM94.5,543.5c0,0,-1,1,-1,1c0,0,-1,0,-2,0c0,0,-1,0,-2,-1l1,0c0,0,1,0,1,0l1,0c0,-1,1,-1,1,-1c0,0,1,0,1,-1c0,0,1,0,1,0c0,-1,0,-1,0,-2c1,0,1,-1,1,-1c0,0,-1,0,-1,0l-1,0l-1,0c0,0,0,-1,0,-1c0,0,0,-1,0,-1l0,-1l0,-1c1,0,1,0,1,-1c0,0,1,0,1,0c1,0,1,1,1,1c0,0,0,1,0,1c0,0,1,1,1,1c0,0,0,1,0,1c0,1,0,1,0,1c-1,1,-1,2,-1,3c0,0,-1,1,-1,1c0,0,0,1,-1,1ZM88.5,529.5l-2,-1l-1,2l-1,-1l1,-2l1,1l1,-1l1,1ZM89.5,537.5l0,1c-1,0,-1,0,-1,0c-1,1,-1,1,-2,1c0,0,-1,0,-1,0l-1,0l-1,0l-1,0l-1,0c0,-1,0,-1,-1,-1l0,-1c0,1,0,1,-1,1c0,0,-1,1,-1,1c0,0,-1,0,-1,0l-1,0l-1,0l-1,0c0,1,0,1,0,1c0,1,0,1,0,1c-1,1,-1,1,-1,2c0,0,-1,0,-1,0c0,1,0,1,-1,1c-1,0,-1,0,-1,0c0,0,-1,0,-1,0c-1,0,-1,0,-2,0l-1,0c0,-1,0,-1,0,-1c1,0,1,1,1,1c0,0,1,0,1,0c0,0,1,0,1,-1c1,0,1,0,1,0c1,0,1,-1,1,-1c1,0,1,0,1,-1l1,0c0,-1,0,-1,0,-1l0,-1c0,0,-1,0,-1,0c0,0,-1,0,-1,0c0,0,0,-1,0,-1c-1,0,-1,0,-1,-1l1,0c0,-1,0,-1,0,-1l0,-1c0,0,1,0,1,0c0,0,0,-1,0,-1l1,0c0,1,1,1,1,1l0,1c0,1,0,1,0,1c1,0,1,0,1,0c0,0,1,0,1,0c0,0,1,0,1,0l1,0l1,0l0,-1l-1,0l-1,-1l0,-1c1,-1,1,-1,2,-1l1,0l1,0c0,0,1,1,1,1l0,1l0,1l-1,0l0,1c0,0,1,0,1,0l1,0l1,0c1,0,2,0,2,0c1,0,2,0,2,-1c0,0,1,0,1,0c0,0,0,-1,0,-1c-1,0,-1,0,-1,0c0,1,-1,1,-1,1c-1,0,-1,0,-1,0c0,0,-1,0,-1,-1c0,0,0,-1,0,-1c0,0,0,-1,0,-1l0,-1c0,0,1,0,1,-1c0,0,1,-1,1,-1c0,0,1,1,1,1c0,0,0,1,1,1l0,1c0,1,0,1,0,1c0,1,0,1,0,2l0,1ZM86.5,533.5c0,1,0,1,1,1c0,0,0,-1,1,-1c-1,0,-1,0,-1,0c0,-1,0,-1,0,-1c0,0,-1,0,-1,0l0,1ZM85.5,520.5c0,0,1,-1,1,-1l1,0l0,1l0,1l0,1l1,0l-1,1l-1,-1l0,1l-1,0c0,1,0,1,0,1l-1,0l-1,0l1,0l0,-1c0,0,1,0,1,0l1,-1l-1,0c0,-1,0,-1,0,-1c0,-1,0,-1,0,-1ZM86.5,520.5l0,1l0,-1ZM79.5,523.5l0,-1c1,0,1,0,1,0l1,0c0,0,0,1,0,1c0,0,0,1,0,1c0,1,0,1,-1,1l1,0l0,1l-1,0l-1,1c0,0,-1,0,-1,0l0,1l-1,0l0,-1l1,0c0,0,0,-1,0,-1l1,0l0,-1c0,0,-1,0,-1,-1l1,0l0,-1ZM80.5,524.5l0,-1l-1,0c0,1,0,1,0,1l1,0ZM72.5,536.5l0,1c-1,0,-1,0,-1,0l1,0c0,0,1,0,1,0c0,-1,0,-1,0,-1c0,0,-1,0,-1,0ZM66.5,538.5l-1,1c0,0,-1,0,-2,0l-1,0l-1,0c-1,0,-1,0,-1,0l0,-1l0,-1l1,0l1,0c0,0,1,0,1,0c0,0,1,0,1,0c0,0,1,0,1,0c0,0,1,-1,1,-1l0,-1c-1,0,-1,-1,-1,-1l-1,0l0,-1l-1,0l-1,0l0,-1l1,-1l1,0c0,0,1,1,1,1c0,0,1,1,1,1c0,1,0,1,0,2c1,0,1,0,1,0c0,1,0,1,0,1c0,0,0,1,0,1c0,0,-1,1,-1,1ZM59.5,527.5l5,-2c0,0,-1,1,-1,1l-5,2ZM61.5,524.5l5,-3c-1,1,-1,2,-1,2l-5,2ZM56.5,539.5l0,-1l0,-1l0,-9l0,-2l1,11c0,0,0,1,0,1c0,0,-1,1,-1,1ZM131.5,529.5l-2,-1l-1,2l-1,-1l1,-2l1,1l1,-1l2,1ZM132.5,537.5l0,1c0,0,-1,0,-1,0c0,1,-1,1,-2,1c0,0,-1,0,-1,0l-1,0c-1,0,-1,0,-1,0c-1,0,-1,0,-1,0c0,-1,0,-1,0,-1c-1,0,-1,0,-1,0l-1,1c0,0,-1,0,-1,0l-1,0l-1,0c0,0,-1,0,-2,0l0,-1c0,1,-1,1,-1,2c-1,0,-1,-1,-1,-1l-1,0l-2,-1l-1,1l-1,0l-1,0l-2,0c0,0,-1,0,-1,-1c-1,0,-1,-1,-1,-1l-1,-9l1,-2l1,10l0,1c0,0,1,0,1,0l2,0l1,0c1,0,1,0,1,0l1,0c0,0,0,-1,0,-1c1,-1,2,-2,3,-2l1,1l0,1l1,1l1,0l1,0l1,0l1,0l1,0l1,0l0,-1l0,-1l1,0l0,1c0,1,0,1,1,1l1,0l1,0c0,0,1,0,1,0c1,0,2,0,2,-1c1,0,1,0,1,0c0,0,0,-1,0,-1c0,0,-1,0,-1,0c0,1,0,1,-1,1c-1,0,-1,0,-1,0l0,-1c-1,0,-1,0,-1,0c0,0,0,-1,0,-1c0,0,0,-1,0,-1l0,-1c1,0,1,0,1,-1c0,0,1,-1,1,-1c0,0,1,1,1,1c0,0,1,1,1,1l0,1c0,1,0,1,0,1c0,1,0,1,0,2l0,1ZM129.5,533.5c0,1,0,1,1,1c0,0,0,-1,1,-1l-1,0c0,-1,0,-1,0,-1c-1,0,-1,0,-1,1ZM132.5,542.5l-4,2c0,0,0,-1,0,-1l4,-2ZM126.5,542.5l-2,-1l-1,2l-1,-1l1,-2l1,1l1,-1l2,1ZM139.5,527.5l4,-2l0,1l-4,2ZM117.5,538.5l-1,-1c0,-1,0,-1,0,-2l-1,1l-1,0c0,0,1,1,1,1l1,0ZM114.5,526.5l5,-3c0,1,-1,1,-1,1l-5,3ZM116.5,522.5l5,-2c-1,1,-1,1,-1,1l-5,3ZM157.5,539.5l0,-1l0,-1l-1,-9l1,-2l1,11c0,0,-1,1,-1,1c0,0,0,1,0,1ZM152.5,539.5c-1,0,-1,0,-2,-1c0,0,0,-1,-1,-1c0,0,0,1,0,1c-1,1,-1,1,-2,1c-1,0,-1,0,-2,-1c0,0,0,-1,0,-2l-1,0c0,1,0,1,0,1c0,0,0,1,0,1c-1,0,-1,0,-2,0c-1,0,-1,0,-1,0c-1,0,-1,0,-1,-1c0,-1,0,-1,1,-1c0,-1,0,-1,0,-1c1,0,1,-1,2,-1l1,-1l0,-1c1,-1,1,-1,1,-1l0,1l0,1l0,3c1,0,1,1,1,1c0,0,1,0,1,0c0,0,1,0,1,0c1,-1,1,-1,1,-1c0,-1,0,-2,0,-3c0,0,0,-1,0,-1c-1,0,-1,-1,-1,-1l0,-1l1,0l0,-1l0,2l1,2l0,2c0,0,0,1,0,1c1,0,1,0,1,1l1,0c0,0,1,0,1,0c0,-1,0,-1,0,-1c0,0,0,-1,0,-1l-1,-2l0,-1l0,-1c0,0,0,-1,0,-1l0,-1c1,0,1,1,1,1c0,1,0,1,0,2l0,1c1,1,1,2,1,2c0,1,0,2,-1,2c0,1,0,1,0,1c0,0,-1,0,-1,1ZM144.5,534.5c0,0,-1,1,-1,1c-1,0,-1,1,-1,1c0,0,1,0,2,0l0,-1ZM215.5,542.5l-2,-1l0,2l-2,-1l1,-2l2,1l0,-1l2,1ZM212.5,539.5l-1,0l-2,0c-1,0,-1,0,-1,0l0,-1l-1,0c0,-1,0,-1,0,-1l0,1c0,0,-1,0,-1,0c-1,1,-1,1,-2,1l-1,0l-1,0c-1,0,-1,0,-1,-1l-1,0l0,-1c1,0,1,-1,1,-1l0,1l1,0l1,0l1,0l1,0l1,0l0,-1l1,0c0,0,0,-1,0,-1l-1,-2l0,-1l0,-1l1,-1l0,1c0,1,0,1,1,2l0,2c0,1,0,1,0,1c0,1,0,1,0,1c1,0,1,0,1,0l2,0l1,0c0,0,1,0,1,0c1,0,1,0,2,0l0,-1l-1,0c0,-1,0,-1,0,-1l0,-1l1,-1c0,0,0,1,0,1c0,1,0,1,0,1l0,1c0,1,0,1,0,1c0,1,0,1,0,1c-1,0,-1,1,-2,1c0,0,-1,0,-1,0ZM212.5,526.5l4,-2l0,1l-4,2ZM205.5,528.5l-1,-1l1,-2l1,1ZM203.5,518.5c0,0,1,0,1,0c0,0,1,0,1,0c1,0,1,0,2,0l0,1c0,0,0,1,0,1c-1,0,-1,0,-1,1c-1,0,-1,0,-1,0c0,0,-1,0,-1,0c0,0,-1,0,-1,0l2,-1c1,0,1,0,1,-1c-1,0,-1,0,-1,0c-1,0,-1,0,-1,0c-1,0,-1,0,-1,1l0,-1l0,-1ZM199.5,526.5c0,0,-1,1,-2,1c-1,1,-2,1,-4,1c-1,1,-2,1,-2,2l-1,0c0,0,0,1,0,1l1,0l2,1c0,0,1,1,1,1c0,1,1,1,1,2c0,0,0,1,0,1c0,1,0,1,0,2c0,0,-1,0,-1,0c0,0,0,1,0,1c-1,0,-1,0,-1,0c-1,0,-1,0,-1,0l-1,0c0,0,-1,0,-1,0c0,1,0,1,0,1c0,1,0,2,-1,2c0,0,0,1,0,1c-1,0,-1,0,-1,1c0,0,-1,0,-1,0c0,1,-1,1,-1,1c0,0,-1,0,-1,0c-1,0,-1,0,-2,-1c0,0,-1,0,-1,0c0,0,1,0,1,0l1,0c0,0,1,0,1,0c1,0,1,-1,1,-1c1,0,1,0,1,-1c0,0,1,0,1,0c0,-1,0,-1,0,-1c1,-1,1,-1,1,-2l0,-1c0,0,-1,0,-1,-1l1,0l0,-1c0,1,0,1,0,1l1,0l1,0l1,0l1,0l1,0c1,-1,1,-1,1,-1c0,0,-1,0,-1,-1c0,0,-1,-1,-1,-1c-1,-1,-1,-1,-1,-1c0,0,-1,0,-1,0l-1,0l0,-1l-1,-1l0,-1l1,0c0,0,0,-1,0,-1c0,0,1,-1,1,-1c0,0,1,0,3,-1c1,-1,2,-1,4,-2c1,0,1,0,2,0ZM194.5,520.5c0,0,0,-1,1,-1c1,0,1,0,1,0l0,1l0,1l0,1l0,1l-1,-1l0,1l-1,0c0,1,0,1,-1,1l-1,0l1,-1l1,0l0,-1c0,-1,0,-1,0,-1c0,-1,0,-1,0,-1ZM195.5,520.5c0,0,-1,0,-1,0l1,0l0,1l0,-1ZM188.5,523.5l0,-1c0,0,1,0,1,0c1,0,1,1,1,1c0,0,0,1,0,1l-1,0c0,1,0,1,0,1l1,0l0,1l-1,0l-1,0l0,1c-1,0,-1,0,-1,0l0,1l-1,0l-1,0l1,-1l1,0c0,0,0,-1,0,-1l1,0l0,-1c-1,0,-1,0,-1,-1l1,-1ZM189.5,524.5l0,-1l-1,0c0,1,0,1,0,1l1,0ZM181.5,535.5l-1,0c0,0,0,1,0,1c0,0,1,0,1,0c0,0,1,0,1,0c-1,0,-1,-1,-1,-1ZM181.5,543.5c0,0,-1,0,-1,0c0,0,0,1,0,1c-1,0,-1,0,-2,0c-1,0,-1,0,-2,-1c0,0,-1,0,-1,0c0,0,1,0,1,0l1,0c1,0,1,0,1,0l1,0c0,-1,0,-1,0,-1c1,0,1,0,1,-1c1,0,1,0,1,0c0,-1,1,-1,1,-2c0,0,0,-1,0,-1c0,0,-1,0,-1,0c0,0,-1,0,-1,0c-1,0,-1,-1,-1,-1c0,0,0,-1,0,-1l0,-1c0,0,1,0,1,-1l0,-1c1,0,1,0,1,0c1,0,1,0,1,0c0,0,0,1,1,1c0,0,0,1,0,1c0,0,0,1,0,1c0,0,0,1,0,1c0,1,0,1,0,1c0,1,0,2,-1,3c0,0,0,1,0,1c-1,0,-1,1,-1,1ZM170.5,533.5l-1,-1l1,-2l1,1ZM170.5,542.5c0,0,-1,0,-1,0c-1,0,-1,0,-2,-1l-1,-1c0,0,0,-1,0,-1c0,-1,0,-1,0,-2l0,-1l1,0l0,-1l1,0c-1,0,-1,0,-1,1c0,1,0,1,0,1l0,1l0,1l1,1c0,0,1,0,1,0c0,0,1,0,2,0c0,0,1,0,2,0c0,0,1,-1,1,-1c0,0,1,0,1,-1c0,0,0,-1,0,-1c0,0,0,-1,0,-1c0,0,-1,0,-1,-1l0,-1l-1,-1l1,-1l1,0l0,1c0,1,0,1,0,1c0,0,0,1,1,1c0,0,0,1,0,1c0,1,0,1,0,1c0,1,0,2,-1,2c0,1,0,1,-1,2c0,0,-1,1,-2,1c0,0,-1,0,-2,0ZM166.5,526.5l5,-2l-1,1l-4,2ZM255.5,539.5l0,-1l0,-1l-1,-9l1,-2l1,11c0,0,0,1,-1,1c0,0,0,1,0,1ZM248.5,540.5c0,0,-1,0,-1,0c0,-1,0,-1,0,-1c0,0,-1,-1,-1,-1c0,0,0,-1,0,-1c0,0,-1,0,-1,1c-1,1,-1,1,-2,1c0,0,-1,0,-1,0c-1,0,-1,0,-1,0l-1,0c0,0,-1,-1,-1,-1c0,0,0,-1,0,-1c0,-1,0,-1,1,-1l0,1c0,0,1,0,1,0l1,0c0,0,1,0,1,0c0,0,1,0,1,0c0,0,1,0,1,0c0,-1,0,-1,1,-1c0,0,0,-1,-1,-1c0,-1,0,-1,0,-2c0,-1,0,-1,0,-1c0,-1,0,-1,0,-1c0,-1,1,-1,1,-1l0,1c0,1,0,1,0,2c0,1,0,1,1,2c0,1,0,1,0,1l0,1l0,-1c0,0,0,1,0,1c0,1,1,1,1,1c0,1,0,1,1,1l1,0l0,-1c0,0,0,-1,0,-2c0,-1,0,-1,0,-2c0,0,0,-1,0,-1c0,-1,0,-2,0,-2c-1,-2,-1,-2,-1,-3l0,-1c0,0,0,-1,0,-1c1,0,1,-1,1,-1l0,1c1,1,1,1,1,1c0,0,0,1,0,1l0,1c0,0,0,1,0,2c0,0,0,1,0,2c0,1,0,1,0,2l0,1c0,1,0,2,0,2l0,1l0,1l-1,0c0,0,0,1,0,1l-1,0l-1,-1ZM418.5,573.5l0,1c1,0,1,0,1,0l1,-1l0,-1l0,1c0,0,1,0,1,0l0,-1l1,0l0,1l-1,1l-1,0l0,1c-1,0,-1,0,-1,0c-1,0,-1,0,-1,0l0,-1l0,-1ZM423.5,570.5l-6,3c0,-1,0,-1,1,-2l5,-2ZM249.5,521.5l0,1l1,0l0,-1l1,-1l0,1c0,1,0,1,0,1c1,0,1,-1,1,-1l0,-1l0,1l0,1l0,1l-1,0l0,-1l-1,1l-1,0l0,-1l0,-1ZM253.5,518.5l-5,3c0,-1,0,-1,0,-1l6,-3ZM244.5,528.5l-1,0l1,-2l1,1ZM243.5,542.5l-5,2c1,0,1,-1,1,-1l4,-2ZM237.5,541.5l-1,-1l-1,2l-1,-1l1,-2l1,1l1,-1l1,1ZM232.5,535.5l1,0c0,0,1,0,1,0l1,0l1,0c0,-1,0,-1,0,-1l-1,0c0,-1,0,-1,0,-1c0,0,0,-1,0,-1c1,-1,1,-1,1,-1c0,1,0,1,0,1c0,1,0,1,0,1l1,1c-1,1,-1,1,-1,1c0,1,0,1,0,1c0,0,-1,0,-1,1c-1,0,-1,0,-2,0c0,1,0,1,0,1c0,0,0,1,0,1c0,1,0,1,0,2c-1,0,-1,1,-2,2c0,0,-1,0,-1,1c-1,0,-2,0,-3,0c0,0,-1,0,-1,0c-1,0,-1,-1,-2,-1c0,0,0,-1,-1,-1c0,-1,0,-1,0,-2l0,-1c0,-1,0,-1,0,-1c1,0,1,0,1,-1c0,0,0,-1,0,-1l1,1l-1,0c0,1,0,1,0,1l0,1c0,1,0,1,0,1c0,1,1,1,1,1l1,1c0,0,1,0,2,0c1,0,1,0,2,0c1,-1,1,-1,2,-1c0,-1,0,-1,0,-1l0,-1l0,-1c0,0,0,-1,0,-1c0,0,-1,0,-1,-1l0,-1l0,-2c0,0,1,1,1,1c0,0,0,1,0,1ZM228.5,535.5l-2,-1l1,-2l1,1ZM224.5,526.5l4,-2l0,1l-5,2ZM288.5,537.5c0,0,0,1,-1,2l0,1c-1,0,-1,0,-1,1l1,0l0,1l-1,0l-1,1c0,0,-1,1,-2,1l-1,0l0,1l-1,0l-1,0l0,1l-1,1l-2,0l-3,0l-2,0l0,-1l-1,-1c0,0,-1,0,-1,0c-1,0,-2,-1,-2,-1l-1,0l0,-1l-1,0l-1,-1l-1,0l0,-1l1,0l0,-1l-1,0l0,-1l0,-1l-1,0c0,0,0,-1,0,-1l0,-1l0,-1c1,0,1,-1,1,-1c0,0,0,-1,0,-1l1,-1l-1,0l0,-1l1,0l1,-1l1,0l0,-1l2,0l1,-1l1,0l1,-1c0,-1,0,-1,0,-1l2,0l3,0l2,0l0,1l1,0l0,1l1,0l2,1l1,0c0,0,0,1,0,1l1,0l1,1c0,0,1,0,1,1l-1,0l0,1l1,0l0,1l0,1l1,0l0,1ZM279.5,547.5l0,-1l1,0l0,-1l1,0c0,-1,1,-1,1,-1l1,0c1,0,1,-1,2,-1l0,-1c0,0,1,0,1,0l1,-1l-1,0l0,-1l1,0l0,-1l0,-1l0,-1c0,-1,0,-2,0,-3l0,-1c0,0,-1,0,-1,0l0,-1l1,0c0,0,-1,-1,-1,-1l-1,0l0,-1l-1,0l-2,-1l-1,0c0,-1,-1,-1,-1,-1l-1,-1c0,0,0,-1,0,-1l-2,0l-1,0l-2,0l-2,0l0,1l-1,1c0,0,-1,0,-1,1l-2,0l-1,1l-1,0l0,1l-1,0l-1,1l1,0l0,1l-1,1l0,1l0,1l0,1l0,1l0,1c0,0,0,1,0,1l1,0l0,1l-1,0l1,1l1,0l0,1l1,0l1,1l1,0l1,1c0,0,1,0,1,0l0,1l1,0c0,0,0,1,0,1l2,0l3,0ZM284.5,532.5l-1,0l0,-1l-1,0c0,0,-1,0,-1,0c0,-1,0,-1,0,-1l1,0c1,0,1,0,1,0c0,0,0,1,0,1c0,0,1,0,1,0ZM284.5,541.5l0,1l-1,1l-1,0l-1,0c0,0,1,0,1,0l0,-1l1,0l1,-1ZM280.5,544.5c-1,1,-1,1,-1,1l-2,0l-3,0l-2,0l-1,-1c0,-1,0,-1,0,-1c0,0,1,-1,1,-1l2,0l3,0l2,0l1,1ZM280.5,530.5l0,1c-1,0,-1,0,-1,0l-2,0l-3,0l-2,0l-1,0l0,-1c0,-1,0,-1,0,-1l1,0l0,-1l2,0l3,0l2,0l1,1ZM279.5,532.5c1,0,1,0,1,0c1,0,1,0,2,0l0,1l1,0l1,0l1,0l0,1l0,1l0,1l0,1c0,1,0,1,0,1l0,1l0,1c-1,0,-1,0,-1,0l-1,0l-1,1l-1,0l-1,0l-1,0l-2,0l-3,0l-2,0c-1,0,-1,0,-1,0c-1,0,-1,0,-2,0l-1,-1l-1,0l-1,0l0,-2l0,-1c0,-1,0,-1,0,-1c0,-1,0,-1,0,-1l0,-1l0,-1c1,0,1,0,1,0l1,0l1,0l0,-1c1,0,1,0,2,0l1,0l2,0l3,0ZM279.5,541.5c1,0,1,0,1,0l1,0l1,0l1,-1l1,0l0,-1l1,0l0,-1l0,-1c0,-1,0,-2,0,-2c0,-1,0,-1,-1,-1c0,-1,0,-1,0,-1l-1,1l0,-1l-1,0l0,-1l-1,0l-1,0l-1,0l0,1l-2,0l-3,0l-2,0l0,-1l-1,0c-1,0,-1,0,-1,0l-1,0l0,1c-1,0,-1,1,-1,1l-1,-1l0,1l-1,0l0,1l0,1l0,1l0,1l0,1c1,0,1,1,1,1l1,0l1,0l0,1l1,0l1,0l1,0l0,-1l2,0l3,0l2,0ZM278.5,539.5l-1,-1l1,-1l0,1ZM275.5,535.5l1,0l0,1l0,1l0,1l0,1c0,0,0,-1,-1,-3c0,1,0,1,0,1c-1,0,-1,0,-1,-1l0,-1c1,0,1,0,1,0ZM275.5,535.5l0,1c-1,0,-1,0,-1,0l1,0c0,-1,0,-1,0,-1ZM273.5,535.5l0,1c0,0,1,0,1,1l0,1c-1,1,-1,1,-1,1l0,-1c0,-1,0,-2,0,-2ZM267.5,532.5l0,-1l1,0l0,-1l1,0l1,0l0,1c0,0,-1,0,-1,0l-1,0l0,1l-1,0ZM267.5,541.5c0,0,1,1,1,1l1,0l0,1l1,0l-1,0c-1,0,-1,0,-2,-1ZM338.5,539.5l0,-1l0,-1l-1,-9l1,-2l1,11c0,0,0,1,0,1c-1,0,-1,1,-1,1ZM322.5,521.5l5,-2l-1,0c0,1,0,1,0,1l-4,2ZM332.5,521.5c1,0,1,0,1,0c1,0,1,0,1,0c1,0,1,0,1,0c1,0,1,0,1,0l0,1l-1,0c0,1,0,1,0,1l-1,0l-1,0l1,0c0,-1,1,-1,1,-1l-1,0c0,0,-1,0,-1,0l-1,0c0,0,0,-1,0,-1ZM316.5,537.5c1,0,1,0,1,0c1,0,1,0,1,0c1,0,1,0,1,0c0,0,0,-1,0,-1l0,-2l0,-6c-1,0,-1,0,-1,-1c0,0,0,-1,1,-1c0,0,0,-1,0,-1l0,1c1,1,1,1,1,1c0,0,0,1,0,1l0,1c0,0,0,1,0,2c0,0,0,1,0,2c0,1,0,1,0,2l0,1c0,1,0,1,0,1c0,1,-1,1,-1,1c0,1,0,1,-1,1c-1,0,-1,0,-1,0l-1,0c-1,0,-1,0,-1,0c0,0,-1,0,-1,0l0,-1c-1,0,-1,0,-2,1c0,0,-1,0,-1,0l-1,0c0,0,-1,0,-1,0c-1,-1,-1,-1,-1,-1l-1,0l0,1c-1,0,-2,0,-3,0l-1,1c-1,0,-1,0,-1,0c0,0,-1,0,-1,0l-1,0l-1,0c-1,0,-2,0,-3,0c-1,0,-2,-1,-3,-1c0,-1,0,-1,0,-1c0,0,0,-1,0,-1c-1,0,-1,0,-1,0l0,-1c0,-1,1,-1,1,-1c0,-1,0,-1,1,-2l0,1l-1,1c0,1,0,1,1,2l1,1l1,0c0,0,1,0,1,0c1,0,2,0,3,0c1,0,2,0,2,0c0,0,1,0,2,0c0,0,1,0,1,0c1,-1,2,-1,2,-1c1,-1,1,-1,2,-1l0,1c0,0,1,0,1,0l1,0c0,0,1,0,1,0c0,0,1,0,1,0l0,-1l1,-1l0,1c0,1,0,1,1,1l1,0ZM222.5,571.5c0,0,1,0,1,0c1,0,1,0,2,0c0,0,1,0,1,0c0,0,1,0,1,1c0,0,-1,0,-1,0c0,0,0,1,0,1c0,0,-1,0,-1,1l-1,0l-1,0l-1,0l2,-1c1,0,1,0,2,-1c-1,0,-1,0,-1,0c0,0,-1,0,-1,0c0,0,-1,0,-1,0c0,0,-1,0,-1,1l0,-1l0,-1ZM317.5,521.5l1,0l1,0c0,0,1,0,1,0c1,0,1,0,1,0c0,0,0,1,0,1c0,0,-1,0,-1,1c-1,0,-1,0,-1,0c-1,1,-1,1,-1,1l-1,0l0,-1l1,0c1,0,2,-1,2,-1l-1,0l-1,0l-1,0l-1,0c0,-1,1,-1,1,-1ZM313.5,543.5l-1,-1l1,-1l1,1ZM300.5,544.5l-1,-1l1,-2l1,1ZM301.5,545.5l-4,2c0,-1,0,-1,1,-1l4,-2ZM381.5,542.5l-1,0l-4,2c0,0,1,-1,1,-1l4,-2ZM377.5,522.5l0,1l1,0l0,-1l1,0l0,-1l0,1c1,0,1,0,1,0l1,-1l0,-1l0,1l0,1l0,1c0,0,0,1,-1,1l-1,0l0,-1l0,1l-1,0c0,0,0,1,-1,1l0,-1l0,-1l0,-1ZM369.5,517.5c0,-1,1,-1,1,-1c0,0,0,-1,1,-1c0,1,0,1,0,1c0,0,1,0,1,1l-1,0c1,0,1,0,1,0c0,1,-1,1,-1,1l0,1l0,1l-1,0l0,1c-1,0,-1,1,-1,1c-1,0,-1,0,-1,0c-1,0,-1,0,-1,0c1,0,1,-1,2,-1c-1,0,-1,0,-1,0c-1,0,-1,0,-1,0c1,0,2,-1,2,-2l0,-1l0,-1ZM370.5,518.5l1,0l-1,0ZM365.5,535.5c0,0,-1,1,-1,1c1,0,1,0,1,0l1,0c0,0,0,-1,0,-1c-1,0,-1,0,-1,0ZM365.5,543.5c-1,0,-1,1,-1,1c-1,0,-1,0,-2,0c-1,0,-1,0,-2,-1l-1,0c1,0,1,0,1,0c0,0,1,0,1,0l1,0c1,0,1,0,1,0c0,-1,0,-1,1,-1l1,-1c1,-1,1,-1,1,-2c0,0,1,-1,1,-1c0,0,-1,0,-1,0c-1,0,-1,0,-1,0c0,0,-1,0,-1,0c0,0,0,-1,0,-1c-1,0,-1,0,-1,0c0,0,0,-1,0,-1c1,0,1,0,1,-1l0,-1c0,0,1,0,1,-1l1,0c0,0,1,1,1,1c0,0,0,1,0,1c0,0,0,1,0,1c0,0,0,1,0,1c0,1,0,1,0,1c0,1,0,2,0,3c-1,0,-1,1,-1,1c0,0,-1,1,-1,1ZM358.5,535.5c0,-1,0,-1,0,-2c0,-1,0,-2,0,-2c-1,-1,-1,-2,-1,-3l0,-1c0,0,0,-1,0,-1c1,0,1,-1,1,-1l0,1c0,1,1,1,1,1c0,0,0,1,0,1l0,1c-1,0,-1,0,-1,0c0,0,1,1,1,2c0,1,0,2,0,3c0,1,0,1,0,1l0,1c0,0,0,1,0,1c0,0,-1,1,-1,1c0,1,0,1,0,1c-1,0,-1,0,-1,0c1,0,1,0,1,0c0,0,1,1,1,1l0,1l0,1l-1,0c0,1,0,1,-1,2c0,0,-1,0,-2,1c-1,0,-2,0,-3,0c0,0,-1,0,-2,0c0,-1,-1,-1,-1,-1c-1,0,-1,-1,-1,-1c0,-1,0,-1,0,-1c0,0,0,-1,0,-1c0,-1,0,-1,0,-2c0,-1,1,-1,1,-2c0,1,0,1,0,2c0,0,-1,1,-1,1c0,0,0,1,0,1c0,0,1,0,1,0c0,0,0,1,1,1c0,1,1,1,2,1l1,0c0,0,1,0,1,0c0,0,1,0,1,0c1,0,2,-1,2,-1c1,0,1,0,1,-1c0,0,-1,0,-1,0c-1,0,-1,0,-2,-1l0,-1c1,-1,1,-1,1,-1c1,0,1,0,1,0c1,-1,1,-1,1,-2c0,-1,0,-1,0,-1ZM361.5,547.5l-4,2c0,-1,0,-1,1,-1l4,-2ZM409.5,542.5l-2,-1l-1,2l-1,-1l1,-2l1,1l1,-1l2,1ZM406.5,539.5l-1,0l-1,0l-1,0c0,-1,-1,-1,-1,-1c-1,0,-1,0,-1,1c-1,0,-2,0,-3,0l-1,1c0,0,-1,0,-1,0c0,0,-1,0,-1,0l-1,0l-1,0c-1,0,-2,0,-3,0c-1,0,-2,-1,-3,-1c0,-1,0,-1,0,-1c0,0,0,-1,0,-1c-1,0,-1,0,-1,-1l1,0c0,-1,0,-1,0,-1c0,-1,0,-1,1,-2l0,1l0,1c-1,0,-1,0,-1,0c0,1,1,1,1,2c0,0,1,0,1,1c0,0,1,0,1,0c1,0,1,0,1,0c1,0,2,0,3,0c1,0,2,0,2,0c1,0,1,0,2,0c1,0,1,0,1,0c1,-1,2,-1,2,-1c1,-1,2,-1,2,-1l0,1c0,0,1,0,1,0l1,0l1,0c0,0,1,0,1,0c1,0,1,0,1,0l0,-1c0,-1,0,-1,0,-1l-1,-1l1,-1c0,0,1,0,1,0c0,0,0,1,0,1c0,1,0,1,0,1l0,1c0,1,0,1,0,1c0,1,0,1,0,1c-1,0,-1,1,-2,1c0,0,-1,0,-1,0ZM396.5,534.5l-1,-1l-1,1l-2,-1l1,-1l2,1l1,-2l1,1ZM390.5,549.5l5,-3c0,1,0,1,0,1c0,0,0,1,0,1l-5,2ZM392.5,546.5l5,-3c0,1,-1,1,-1,1l-5,3ZM98.5,489.5c0,1,0,1,0,1c0,0,1,0,1,0l0,-1l-1,0ZM98.5,496.5c0,1,0,1,0,1c0,0,-1,0,-1,0c0,0,-1,0,-2,0c0,0,-1,0,-2,0c0,-1,0,-1,0,-1l1,1c0,0,1,0,1,0c0,0,0,-1,1,-1c0,0,1,0,1,0c0,0,1,-1,1,-1c0,0,0,-1,1,-1l0,-1c1,-1,1,-1,1,-1c0,0,0,-1,0,-1c-1,0,-1,0,-1,1c0,0,-1,0,-1,0l-1,0c0,0,0,-1,0,-1c0,0,0,-1,0,-1l0,-1c0,0,0,-1,0,-1c1,-1,1,-1,1,-1l1,0c1,0,1,0,1,1l0,1l1,1l0,1c0,1,0,1,0,1c-1,1,-1,2,-1,2c0,1,-1,1,-1,2l-1,0ZM95.5,483.5l5,-2l-1,1l-4,2ZM92.5,493.5l0,-1l0,-2l-1,-8l1,-2l1,10c0,0,0,1,-1,1l0,1l0,1ZM84.5,491.5c0,0,1,0,1,0l1,0l0,-1c0,0,1,0,1,0l-1,-2l0,-7c0,-1,0,-1,0,-1c0,-1,0,-1,1,-1l0,1l1,1l-1,1c0,1,0,1,0,2c0,0,0,1,0,3c0,0,0,1,0,1l0,1c0,0,0,1,0,1c0,1,0,1,0,1l0,1c0,0,-1,0,-1,0c0,0,-1,1,-1,1c0,0,-1,0,-1,0l-1,0c-1,0,-1,0,-1,0c0,-1,0,-1,-1,-1c0,-1,-1,-1,-1,-1c0,1,0,1,-1,1l-1,0c0,1,0,1,0,1l0,1c0,1,0,1,0,2l1,1l-1,1c-1,0,-1,0,-1,0l-1,-1l0,-1c0,0,0,-1,0,-2c0,0,0,-1,0,-2c0,1,-1,1,-1,1l-1,0l-2,0c0,0,-1,-1,-2,-1c0,0,0,-1,0,-2l-1,-8l1,-2l1,9l0,1c0,1,1,1,1,1l2,0l1,0c0,0,1,0,2,0l0,-1l1,0l0,1l-1,0c0,1,0,2,0,3c0,1,0,1,0,2c0,-1,0,-1,0,-1c0,-1,0,-1,0,-1l0,-1l1,0c0,-1,0,-1,0,-1l1,-1l1,-1l1,0l1,1l1,0l1,0ZM80.5,489.5l-1,-1l1,-2l1,1ZM80.5,478.5l0,1l1,0l0,-1c0,0,1,1,1,1c0,0,0,-1,1,-1l0,-1l0,1l0,1c0,0,0,1,-1,1c0,0,-1,0,-1,0c0,0,-1,1,-1,1c0,0,0,-1,-1,-1l0,-1l0,-1ZM84.5,475.5l-6,3c1,-1,1,-1,1,-1l5,-3ZM72.5,483.5l4,-2l0,1l-4,2ZM59.5,496.5l1,0c1,0,2,0,3,-1c0,0,1,0,1,-1c1,0,1,-1,1,-1c0,-1,1,-1,1,-1c0,-1,0,-1,0,-1c0,0,0,-1,0,-1l-1,-1l0,-1l0,-1l1,1l0,1l0,1l1,0l0,1c0,0,-1,1,-1,1c0,0,0,1,0,1l0,1c0,0,0,1,-1,1l0,1c-1,0,-1,0,-1,0l-1,0l0,1l-1,0l-1,0c0,0,-1,0,-1,0c0,-1,-1,-1,-1,-1ZM65.5,500.5l-4,3c0,-1,0,-1,0,-1l4,-3ZM134.5,493.5l0,-1l0,-2l-1,-8l1,-2l1,10c0,0,0,1,0,1c0,0,-1,0,-1,1l0,1ZM126.5,491.5c0,0,1,0,1,0c0,0,1,0,1,0l0,-1c1,0,1,0,1,0l0,-2l-1,-7c0,-1,0,-1,0,-1c0,-1,1,-1,1,-1l0,1c0,0,1,0,1,1l0,1c0,0,-1,0,-1,0c0,1,0,1,0,2c0,0,0,1,0,3c1,0,1,1,1,1l0,1c0,0,0,1,-1,1c0,1,0,1,0,1l0,1c-1,0,-1,0,-1,0c0,0,0,1,-1,1l-1,0c-1,0,-1,0,-1,0c-1,-1,-1,-1,-1,-1c-1,-1,-1,-1,-1,-1c0,1,0,1,-1,1c0,1,-1,1,-1,1l-1,0c-1,0,-1,0,-1,-1c-1,0,-1,0,-1,-1l0,1l0,1c0,1,0,1,0,2c-1,0,-1,1,-1,1c-1,0,-1,1,-1,1c-1,0,-1,0,-1,0c-1,1,-1,1,-2,1c0,0,-1,0,-1,0l-1,0l-1,0c0,0,-1,-1,-1,-1c0,0,-1,-1,-1,-1c0,0,0,-1,0,-1c0,-1,0,-2,0,-2c0,-1,1,-1,1,-2l0,-1l1,0l0,1l-1,0c0,1,0,1,0,1c0,1,0,1,0,1c0,1,0,2,1,2c0,0,1,1,1,1c1,0,1,0,1,0c1,0,2,0,3,-1c1,0,2,0,2,-1c0,-1,0,-1,0,-1l0,-3c0,0,0,-1,0,-1c0,-1,0,-1,0,-1l0,-7l1,-2l0,10c0,0,0,1,0,1l1,0c0,1,0,1,0,1c0,0,1,0,1,0l1,0l1,0l1,-1c0,0,0,-1,0,-1l1,0c0,0,0,1,0,1c0,0,0,1,1,1l1,0ZM93.5,527.5l0,1c1,0,1,0,1,0l0,-1l0,-1l1,0l0,1c0,0,1,0,1,0l0,-1l0,1l0,1l-1,0l-1,0l0,1c0,0,-1,0,-1,0l0,-1l0,-1ZM97.5,524.5l-6,3c1,-1,1,-1,1,-2l6,-2ZM128.5,475.5l0,1l1,0c0,0,0,-1,0,-1l0,-1l1,1l1,-1l0,-1l0,1l0,1c0,1,0,1,-1,1l-1,0c0,1,-1,1,-1,1l-1,0c0,0,0,-1,0,-1l0,-1l1,0ZM132.5,472.5l-6,3c1,-1,1,-2,1,-2l5,-3ZM125.5,496.5l-2,-1l-1,1l-1,-1l1,-1l1,1l1,-1l2,0ZM121.5,475.5c0,0,0,-1,1,-1l1,0c0,0,1,0,1,0c1,1,1,1,1,1c0,1,0,1,-1,1c0,0,0,1,0,1c0,0,-1,0,-1,0c-1,0,-1,0,-1,0l-1,0l2,0c0,-1,1,-1,1,-1c0,0,0,-1,-1,-1c-1,0,-1,0,-2,1l-1,0c0,-1,0,-1,1,-1ZM115.5,501.5l-4,2c0,-1,0,-1,0,-1l4,-2ZM193.5,489.5c0,0,-1,0,-1,0c0,1,0,1,1,1l0,-1ZM193.5,496.5c0,1,-1,1,-1,1c-1,0,-2,0,-2,0l-1,0c0,0,-1,0,-1,0c0,0,-1,0,-1,0c0,-1,0,-1,0,-1c0,0,1,0,1,1l1,0c1,0,1,-1,1,-1c1,0,1,0,1,0c1,0,1,-1,1,-1c1,0,1,-1,1,-1l1,-1c0,-1,0,-1,0,-1c0,0,0,-1,0,-1l0,1c-1,0,-1,0,-1,0c0,0,-1,0,-1,0c0,0,0,-1,-1,-1c0,0,0,-1,0,-1l0,-1c0,0,1,-1,1,-1c0,-1,0,-1,0,-1c1,0,1,0,1,0c0,0,1,0,1,0l0,1c1,0,1,0,1,1l0,1l0,1c0,1,0,1,0,1c0,1,0,2,-1,2c0,1,0,1,0,2c-1,0,-1,0,-1,0ZM190.5,483.5l4,-2l0,1l-4,2ZM186.5,493.5l0,-1l0,-2l-1,-8l1,-2l1,10c0,0,0,1,0,1l0,1c-1,0,-1,0,-1,1ZM174.5,484.5l-2,0l1,-2l2,1ZM182.5,490.5l-2,0c0,0,-1,0,-1,0l-1,0c-1,0,-1,0,-1,0l-1,1l-1,0c0,0,-1,1,-1,1c0,0,-1,0,-1,0c-1,1,-2,1,-3,1l-1,0l-1,0c0,-1,0,-1,-1,-1c0,-1,0,-1,0,-1c0,1,-1,1,-1,1c0,0,-1,0,-1,1l-1,0c-1,0,-1,0,-1,-1c-1,0,-1,0,-1,-1c-1,0,-1,1,-1,1c-1,0,-1,1,-2,1l-1,0c-1,0,-1,0,-1,0c-1,0,-1,0,-1,-1c0,0,-1,0,-1,0c0,0,-1,0,-1,1c-1,0,-1,0,-2,0c-1,0,-1,0,-2,1c0,0,-1,0,-1,0c-1,0,-1,0,-2,0c-1,0,-2,0,-3,0c-1,-1,-2,-1,-3,-2l-1,-1l0,-1c0,-1,0,-1,0,-1c1,-1,1,-1,1,-2c1,0,1,0,1,0c0,1,-1,1,-1,1c0,1,0,1,0,1c0,1,0,1,0,1c1,1,1,1,2,1c0,1,1,1,2,1c1,0,2,0,3,0c1,0,1,0,2,0c0,0,1,0,2,0l1,-1l0,-1c0,-1,0,-1,0,-2c1,0,1,-1,1,-1c0,-1,1,-1,1,-1c1,0,1,0,1,0c0,0,1,0,1,0c0,1,0,1,1,1c0,0,0,1,0,1c0,1,0,1,-1,1c0,0,0,1,0,1c0,1,0,1,-1,1c1,0,1,0,1,0c0,0,1,0,1,0l1,0c1,0,1,0,1,0c0,0,1,-1,1,-1c0,-1,0,-1,0,-1c0,0,0,-1,0,-1l0,-7l1,-2l0,10c0,1,0,1,0,1l1,1l1,0c1,0,1,0,1,0c1,0,1,0,1,-1c1,0,1,-1,1,-1l0,1c0,0,1,1,1,1c0,0,1,0,1,0l1,0l1,0c1,0,1,0,2,0c0,0,1,-1,1,-1l2,0l1,-1l-2,0l-1,0l0,-1l-1,0c0,0,-1,0,-1,0l-1,0l0,1c0,-1,1,-1,1,-2l1,0c0,0,0,-1,1,-1l0,1c0,0,1,0,1,0l2,1l1,0c1,0,1,0,1,0c1,0,1,0,1,1c1,0,1,0,2,0l1,0ZM170.5,478.5c0,0,1,0,1,0c1,0,1,0,1,0c1,0,2,0,2,0l0,1l0,1c0,0,-1,0,-1,0c0,1,0,1,-1,1l-1,0l-1,0l2,-1c1,0,1,0,2,-1c-1,0,-1,0,-1,0c0,0,-1,0,-1,0c0,0,-1,0,-1,0c0,0,-1,0,-1,0c0,0,0,-1,0,-1ZM168.5,487.5l-2,-1l-1,1l-1,-1l1,-1l1,1l1,-2l2,1ZM169.5,496.5l-4,2c0,-1,0,-1,0,-1l4,-2ZM154.5,484.5l-1,-1l1,-1l1,1ZM155.5,487.5c0,0,0,1,-1,1l0,1c0,0,1,1,1,1c1,0,1,0,1,0c0,-1,0,-1,1,-1c0,0,0,-1,-1,-1c0,0,0,-1,-1,-1ZM150.5,498.5l-5,2c1,0,1,-1,1,-1l4,-2ZM254.5,489.5c0,1,0,1,1,1l0,-1l-1,0ZM254.5,496.5c0,1,0,1,0,1c0,0,-1,0,-1,0c0,0,-1,0,-1,0l-1,0c0,0,-1,0,-1,0c-1,0,-1,0,-1,0c0,-1,0,-1,0,-1l1,1c1,0,1,0,1,0c0,0,1,-1,1,-1c0,0,1,0,1,0c0,0,1,-1,1,-1c0,0,1,-1,1,-1l0,-1c1,-1,1,-1,1,-1c0,0,0,-1,0,-1l-1,1l-1,0c-1,0,-1,-1,-1,-1c0,0,0,-1,0,-1l0,-1c0,0,0,-1,0,-1c1,-1,1,-1,1,-1c0,0,1,0,1,0l1,0l0,1l0,1c1,0,1,0,1,1l0,1c0,1,0,1,0,1c0,1,-1,2,-1,2c0,1,0,1,-1,2l-1,0ZM252.5,483.5l4,-2l0,1c-1,0,-1,0,-1,0l-4,2ZM248.5,493.5l0,-1l0,-2l-1,-8l1,-2l1,10c0,0,0,1,0,1c0,0,-1,0,-1,1l0,1ZM236.5,478.5l0,1l-4,1l0,-1l1,0c0,0,-1,-1,-1,-2c0,0,1,0,1,0c0,-1,0,-1,1,-1l0,-1l1,0c0,0,0,1,0,1l0,1l-1,0l0,-1c0,0,-1,1,-1,1l1,0l0,1l1,0c1,0,1,0,1,0ZM242.5,491.5l-1,1l-1,0c1,0,1,0,1,0l1,0l0,-1ZM243.5,494.5c-1,0,-1,0,-2,0l-1,0c0,0,-1,0,-1,0c-1,0,-1,0,-1,0c-1,0,-1,0,-1,0l0,-1l0,-1c1,0,1,0,1,0l1,0c1,0,1,0,1,-1l1,0c0,0,0,-1,0,-1l-1,-1l0,-1c-1,0,-1,-1,-2,-1c0,0,0,-1,-1,-2c0,0,-1,0,-1,0c0,-1,0,-1,0,-1c-1,0,-1,0,-1,0l-1,0l0,-1c-1,0,-1,0,-1,-1c0,-1,0,-1,0,-1l1,-1l0,1c0,0,1,0,1,1c1,0,1,0,2,1c0,1,1,1,2,2c0,0,1,1,1,2c1,0,1,1,1,1c0,1,1,1,1,1c0,0,0,-1,0,-1c0,-1,0,-1,0,-2c0,-1,0,-1,0,-2l0,-1c0,-1,0,-1,0,-2c0,-1,0,-1,0,-1c0,-1,1,-1,1,-1c0,1,0,1,0,1c1,0,1,0,1,1l0,1l-1,0c0,0,0,1,0,1c0,0,0,1,0,1c0,1,0,1,0,2l0,1c0,0,0,1,0,2c-1,0,-1,1,-1,1c0,1,0,1,1,1l0,1c0,1,0,1,0,1c0,0,0,1,0,1ZM232.5,474.5l4,-2l0,1l-4,2ZM242.5,475.5c0,0,1,-1,1,-1c0,0,1,0,1,0c1,0,1,0,1,0c1,1,1,1,1,1c0,0,-1,1,-1,1l-1,0l0,1c0,0,-1,0,-1,0l-1,0l2,-1c0,0,1,0,1,-1l-1,0c-1,0,-1,0,-1,0c0,0,-1,0,-1,1l0,-1ZM223.5,496.5l1,0c1,0,2,0,3,-1c0,0,1,0,1,-1c1,0,1,-1,1,-1c1,-1,1,-1,1,-1c0,-1,0,-1,0,-1c0,0,0,-1,0,-1l-1,-1l0,-1l0,-1l1,1l0,1l1,0l0,1l0,1c0,0,0,1,-1,1c0,0,0,1,0,1l0,1c0,0,0,1,-1,1l0,1c0,0,-1,0,-1,0l-1,1l-1,0l-1,0c-1,0,-1,0,-1,0c0,-1,-1,-1,-1,-1ZM225.5,482.5l1,-1l1,0c0,0,1,0,1,1c1,0,1,0,1,0c0,1,-1,1,-1,1c0,1,0,1,0,1c-1,0,-1,0,-1,0c-1,0,-1,0,-1,0l-1,0l1,0c1,-1,2,-1,2,-1l-1,0c0,0,0,-1,-1,-1c0,0,0,1,-1,1l-1,0c0,0,0,-1,0,-1c0,0,1,0,1,0ZM215.5,486.5l-1,-1l1,-2l1,1ZM213.5,493.5l0,1c0,0,0,1,0,1c0,0,-1,0,-1,0l0,-1l0,-1l-1,0l0,1c0,0,0,1,0,1c0,0,0,1,0,1c-1,1,-1,1,-1,1c0,1,-1,1,-1,1c0,1,-1,1,-1,1c0,0,-1,0,-1,1c-1,0,-1,0,-1,0c0,0,-1,0,-1,0c-1,0,-1,0,-2,-1c-1,0,-1,0,-1,0c-1,-1,-1,-1,-1,-2c-1,0,-1,-1,-1,-1c0,-1,0,-1,0,-1c0,-1,0,-1,1,-1l0,-1c0,0,0,-1,1,-1c0,1,0,1,-1,2l0,1c0,0,0,1,1,1c0,1,0,1,1,1c0,0,0,1,1,1c1,0,1,0,1,0c1,0,1,0,2,0c0,0,1,-1,2,-1c0,0,1,-1,1,-1c0,-1,0,-1,0,-2c0,0,0,-1,0,-1c0,-1,0,-1,0,-1l0,-2l1,0c0,1,0,1,1,1l1,0l1,-1l2,-1l0,-1l1,0l1,0c0,-1,1,-1,1,-1c1,0,1,0,1,0c1,0,1,0,1,0c0,0,1,0,1,0c0,0,0,1,0,1c1,0,1,0,1,0c0,1,0,1,0,1c0,1,0,1,-1,2c-1,1,-1,1,-2,1l-1,0c0,1,-1,1,-1,1l-2,0l-1,0ZM218.5,489.5c0,0,-1,0,-1,0l0,1l-1,0l-1,0l-1,1l3,0c0,0,1,0,1,0c1,0,1,0,2,0c1,0,1,-1,2,-1c0,0,-1,0,-1,-1c-1,0,-1,0,-1,0c-1,0,-1,0,-1,0c-1,0,-1,0,-1,0ZM210.5,503.5l-5,2c1,-1,1,-1,1,-1l4,-2ZM323.5,493.5l0,-1l0,-2l0,-8l1,-2l0,10c0,0,0,1,0,1l0,1c0,0,-1,0,-1,1ZM316.5,491.5l1,0c1,0,1,0,1,-1l0,-2l0,-7c0,0,-1,0,-1,0c0,-1,0,-1,1,-1c0,-1,0,-1,0,-1l0,1l1,0l0,1l0,1c0,1,0,1,0,2c0,0,0,1,0,3c0,0,0,1,0,1l0,1c0,0,0,1,0,1c0,1,0,1,0,1c0,0,-1,0,-1,1c-1,0,-1,1,-1,1c-1,0,-1,0,-1,0l-1,0l-1,0l0,-1c0,0,-1,0,-1,-1l0,-1l0,1c0,0,-1,1,-1,1c0,0,-1,0,-1,0c-1,0,-1,0,-2,-1l0,1c-1,0,-1,1,-1,1l-1,0c-1,0,-1,-1,-1,-2c-1,0,-1,1,-1,1c0,0,-1,1,-2,1l-1,0c-1,0,-1,-1,-2,-1l-1,0c0,0,0,1,0,1l-1,0l-1,0l-1,-1l-1,-1l-1,1c-1,1,-1,1,-1,1l-2,0l-2,0l0,1c0,0,0,1,0,1c0,0,-1,1,-1,1c0,0,-1,1,-1,1l-1,1c-1,0,-1,0,-1,0c0,0,-1,0,-1,0c-1,0,-1,0,-2,0c0,0,0,-1,-1,-1c1,0,1,0,1,0c0,0,1,0,1,0c0,0,1,0,1,0c1,0,1,0,2,-1c1,-1,1,-1,1,-1c0,0,1,-1,1,-1l0,-1l-1,0c0,0,-1,-1,-1,-1c0,-1,0,-1,0,-1c0,-1,0,-1,0,-1l0,-1c1,0,1,-1,1,-1l1,0c1,0,1,0,1,1c0,0,0,1,0,1c0,0,1,1,1,1l1,0l2,0l1,0l0,-1l1,-1c1,-1,2,-1,2,-1l1,1l1,1l1,0l0,1c0,0,1,0,1,0l1,0l1,0l1,0c1,-1,2,-1,2,-2l0,1c0,0,1,1,1,1c1,0,1,0,2,-1l1,-1c0,0,0,1,0,1c1,0,1,0,1,0c1,0,1,0,1,0l1,0c0,0,0,-1,0,-1c1,1,1,2,2,2l1,0ZM308.5,483.5l0,1c1,0,1,0,1,0c0,0,0,-1,0,-1l0,-1l1,0l0,1c1,0,1,0,1,-1l0,-1l0,1l0,1l0,1l-1,0l-1,0c0,1,0,1,-1,1l0,-1l0,-1ZM312.5,480.5l-5,3c0,-1,0,-2,0,-2l6,-2ZM299.5,491.5l-1,-1c0,0,0,-1,-1,-1l-1,0l0,1l1,1l1,0ZM287.5,490.5l-1,0c0,0,1,0,1,1c0,0,1,0,1,0c0,-1,0,-1,0,-1c0,0,-1,0,-1,0ZM273.5,486.5l-1,1l-2,-1l0,1l-2,-1l1,-1l1,1l1,-1ZM278.5,491.5c0,0,-1,0,-1,1c-1,0,-2,1,-4,1c-1,0,-2,0,-3,0c-2,0,-3,0,-4,0c-1,0,-2,-1,-2,-1c0,0,-1,-1,-1,-1c0,-1,0,-1,0,-1l0,-1c0,0,0,-1,0,-1c0,-1,1,-1,1,-1l1,0c-1,0,-1,0,-1,1l0,1c0,0,0,1,0,1c1,0,1,1,2,1l1,0l1,0l1,0l2,0c0,0,1,0,2,0c1,0,1,0,1,0l1,0c1,-1,2,-1,2,-1c1,0,1,-1,2,-1l-1,-1l0,-1l0,-1l0,-1c1,1,1,1,1,2c0,1,0,1,0,1c0,1,0,1,0,2l-1,1ZM269.5,496.5l-5,2c1,-1,1,-1,1,-1l4,-2ZM351.5,484.5l-2,0l1,-2l1,1ZM359.5,490.5l-2,0c0,0,-1,0,-2,0c-1,0,-1,0,-1,0l-1,1l-1,0c0,0,-1,1,-1,1c0,0,-1,0,-1,0c-1,1,-2,1,-3,1c-1,0,-1,0,-1,-1c-1,0,-1,0,-1,-1c-1,0,-1,1,-1,1c-1,0,-1,1,-1,1l-1,0l-1,0l0,1l0,1l-1,0c0,1,-1,2,-2,2c-1,1,-2,1,-3,1l-1,0c-1,0,-1,0,-2,0c0,0,-1,0,-1,-1c-1,-1,-1,-1,-1,-2l0,-1l0,-1c1,-1,1,-1,1,-2c1,-1,1,-1,1,-1l0,1l-1,1c0,1,0,1,0,2c0,0,0,1,0,1c1,0,1,1,1,1l1,0c0,0,1,0,1,0c1,0,1,0,1,0c0,0,1,0,1,0l1,0c0,0,1,0,1,0c1,-1,1,-1,2,-1c0,0,0,-1,0,-1c0,0,1,-1,1,-1c0,0,-1,0,-1,0l-1,0c-1,0,-1,0,-1,-1l-1,0c0,0,0,-1,0,-1c0,-1,0,-1,0,-1l0,-1c0,0,1,0,1,0c0,-1,0,-1,1,-1c0,0,1,0,1,0c0,1,0,1,1,2c0,1,0,1,0,1l1,0c1,0,1,0,1,0c0,0,1,-1,1,-1c0,-1,0,-1,0,-1c0,0,0,-1,0,-1l0,-7l1,-2l0,10c0,1,0,1,0,1c0,0,1,0,1,1l1,0l1,0c1,0,1,0,2,0c0,0,1,-1,1,-1l2,0l0,-1l-1,0l-1,0l0,-1l-1,0c-1,0,-1,0,-1,0l-1,0l0,1c0,-1,0,-1,1,-2c1,0,1,-1,1,-1c1,0,1,0,1,1l1,0l2,1l1,0c0,0,1,0,1,0c0,0,1,0,1,1c1,0,1,0,1,0l2,0ZM350.5,480.5l4,-2l0,1l-4,2ZM343.5,471.5l1,0l1,0c0,0,1,0,1,0c1,0,1,0,1,0c0,0,0,1,0,1c0,0,-1,0,-1,1c-1,0,-1,0,-1,0c-1,1,-1,1,-1,1l-1,0l0,-1l1,0c1,0,2,-1,2,-1c0,0,-1,0,-1,0l-1,0l-1,0l-1,0c0,-1,0,-1,1,-1ZM339.5,487.5l-1,-1l-1,1l-1,-1l0,-2l2,1l1,-1l1,1ZM338.5,490.5c0,0,0,1,0,1l1,0l1,0l-1,-1l-1,0ZM339.5,501.5l-4,2c0,-1,0,-1,0,-1l5,-2ZM376.5,483.5l-2,0l1,-2l2,1ZM377.5,489.5c0,0,0,1,0,1c-1,0,-1,0,-1,0c0,0,-1,0,-1,0c-1,0,-1,0,-1,-1l0,-1l0,-1c1,-1,1,-1,1,-1c0,-1,1,-1,1,-1c1,0,1,0,1,1c0,0,1,0,1,1l0,1c0,0,0,1,0,1c1,0,1,1,1,1l-1,1l0,1c0,0,0,1,-1,1c1,0,1,0,1,0l1,0l0,1l0,1l0,1c-1,0,-1,0,-1,0c0,0,0,1,-1,1c-1,1,-1,1,-2,1c-1,0,-2,1,-3,1c-1,0,-1,0,-2,-1c-1,0,-1,0,-2,-1l0,-1c0,0,-1,-1,-1,-1c0,-1,1,-2,1,-2c0,-1,0,-2,1,-2c0,0,0,1,0,2c-1,0,-1,0,-1,1c0,1,1,2,1,2c1,0,2,1,3,1c0,0,1,0,1,0c0,0,1,0,1,0c0,0,1,-1,1,-1c1,0,1,0,2,0c0,-1,1,-1,1,-1c0,0,-1,-1,-2,-1c0,0,-1,0,-1,0l0,-1c0,0,0,-1,0,-1c1,0,1,0,2,0l1,-1c0,-1,0,-1,0,-1c0,0,0,-1,-1,-1ZM375.5,487.5c0,0,0,1,0,1l1,0l1,0l0,-1l-1,0c0,0,-1,0,-1,0ZM379.5,499.5l-4,2c0,-1,0,-1,1,-1l3,-2ZM403.5,491.5l-2,-1l1,-2l2,1ZM416.5,493.5l-1,1c-1,1,-1,1,-1,1c-1,0,-1,0,-2,1c0,0,-1,0,-1,0c-1,0,-2,1,-3,1c-1,0,-2,0,-3,0c-1,0,-1,0,-2,0c-1,0,-1,0,-2,0c-1,0,-1,0,-2,0c-1,0,-1,0,-2,0c-1,0,-2,0,-2,0c-1,0,-2,-1,-3,-1c-1,0,-2,-1,-3,-1c-1,-1,-2,-2,-3,-2c0,-1,0,-1,0,-1c1,0,1,0,1,0c0,0,1,1,1,1c1,0,2,0,2,1c1,0,2,0,2,0c0,1,1,1,2,1c0,0,1,0,1,0c1,0,2,1,3,1c0,0,1,0,1,0c1,0,2,0,2,0c1,0,1,0,2,0c1,0,1,0,2,0c1,0,2,-1,2,-1c2,0,3,0,3,0c1,0,2,-1,3,-1c1,-1,2,-1,2,-2l0,-1c0,0,0,-1,0,-1c0,0,-1,0,-1,-1l0,-2l1,1c0,1,1,1,1,1l0,1c0,0,0,1,0,1c0,0,0,1,0,1c0,0,0,1,0,1ZM397.5,480.5l0,1l1,0l0,-1l0,-1l0,1c0,0,1,0,1,0c0,1,0,1,0,1c0,0,0,-1,0,-1l1,-1l0,1l0,1c0,0,0,1,-1,1c0,0,-1,0,-1,0l0,-1l0,1c0,0,-1,0,-1,0l-1,0l0,-1l0,-1ZM401.5,477.5l-6,3c1,-1,1,-1,1,-1l5,-3ZM419.5,494.5l0,-1l0,-2l-1,-8l1,-2l1,10c0,1,0,1,0,1l0,1c-1,0,-1,0,-1,1ZM421.5,495.5l-4,2c0,0,1,-1,1,-1l3,-2ZM232.5,524.5l1,0c0,0,1,0,1,0c1,0,1,0,2,0c0,0,0,1,0,1l-1,1l-1,0c0,1,-1,1,-1,1c-1,0,-1,0,-1,-1l2,0c0,0,1,-1,1,-1l-1,0c-1,0,-1,0,-2,0c0,-1,0,-1,0,-1ZM178.5,526.5l1,0l1,0c0,0,1,0,1,0c1,0,1,0,1,0c0,1,0,1,0,1c0,0,-1,0,-1,1c0,0,-1,0,-1,0l0,1c-1,0,-1,0,-1,0l-1,0l2,-1c0,0,1,-1,1,-1l-1,0c-1,0,-1,0,-2,0l-1,0c1,-1,1,-1,1,-1ZM69.5,527.5c0,0,1,0,1,0c0,0,1,0,1,0c1,0,1,0,2,0l0,1c0,0,0,1,0,1c-1,0,-1,0,-1,0c0,1,0,1,0,1c0,0,-1,0,-1,0l-1,0l-1,0l2,-1c1,0,1,0,2,-1c-1,0,-1,0,-1,0c-1,0,-1,0,-1,0c0,0,-1,0,-1,0c-1,0,-1,0,-1,1l0,-1l0,-1ZM357.5,575.5l1,0l1,0c0,0,1,0,1,0c1,0,1,0,1,0l0,1c0,0,-1,0,-1,1c0,0,-1,0,-1,0c-1,0,-1,0,-1,0l-1,0l2,0c0,0,1,-1,1,-1l-1,0c-1,0,-1,0,-2,0l-1,0l0,-1c1,0,1,0,1,0ZM256.5,572.5l1,0l1,0c0,0,1,0,1,0c1,0,1,0,1,0c0,1,0,1,0,1c0,0,-1,0,-1,1c0,0,-1,0,-1,0c-1,1,-1,1,-1,1l-1,0l2,-1c0,0,1,-1,1,-1l-1,0c-1,0,-1,0,-2,0l-1,0c1,-1,1,-1,1,-1ZM55.5,584.5l0,-1l1,1ZM56.5,587.5l-1,0c-1,0,-1,0,-1,0c0,0,-1,-1,-1,-1c0,-1,0,-1,0,-1c0,-1,0,-1,0,-1c0,0,0,-1,0,-1c0,0,0,-1,1,-1l1,0l-1,0l-1,0l0,-1l1,0l1,0c0,0,1,0,1,0c0,0,1,0,1,0l0,1l-1,0l-1,0c0,0,-1,0,-1,0l0,1l-1,0l0,1c0,0,0,1,0,1c1,0,1,1,1,1c0,0,1,0,1,0l1,0l1,0l1,0ZM276.5,521.5l-1,-1l1,0ZM276.5,523.5c-1,0,-1,0,-1,0c0,0,-1,0,-1,0l-1,0l0,-1l0,-1l0,-1l0,-1c0,0,1,0,1,0c0,-1,0,-1,1,-1l-1,0l-1,0l0,-1l1,0l1,0c0,1,1,1,1,1c1,0,1,0,1,0l-1,0l-1,0c0,0,-1,1,-1,1c-1,0,-1,1,-1,1l0,1l0,1c0,0,1,0,1,0c1,0,1,1,1,1l1,0c1,0,1,0,1,0l1,0ZM276.5,510.5c0,1,0,2,-1,3l0,1c0,0,-1,0,-1,0c0,1,0,1,0,1c0,0,-1,0,-1,0l0,-1c1,0,1,0,1,0c0,0,1,0,1,0l0,-1c0,0,-1,0,-1,0c0,-1,0,-1,0,-1l-1,0l0,-1c-1,0,-1,0,-1,0c0,0,1,0,1,-1c0,0,0,1,0,1c0,0,1,0,1,0c0,0,0,1,0,1c0,0,1,0,1,0c0,1,0,1,0,1c0,0,0,-1,0,-1c1,0,1,0,1,0l0,-2ZM148.5,521.5l0,-1c0,0,0,-1,0,-1c0,-1,-1,-1,-1,-2l1,0l0,-1c0,0,0,1,0,1c0,1,0,1,0,1l1,1c0,0,-1,1,-1,1c0,0,0,1,0,1ZM147.5,523.5l0,1l1,0l0,-1l0,-1l1,0l0,1l0,1l1,0c0,0,0,-1,0,-1l0,-1l1,-1l0,1c0,0,0,1,0,1l0,1c-1,1,-1,1,-1,1l-1,0l-1,0c0,1,-1,1,-1,1l-1,0c0,-1,0,-1,0,-1c0,-1,0,-1,0,-1l0,-1ZM295.5,483.5c0,-1,0,-1,0,-2c0,0,0,-1,-1,-1l1,-1l0,1l0,1l1,0l0,1c-1,0,-1,0,-1,1ZM287.5,485.5l0,-1c0,0,0,-1,0,-1c0,-1,-1,-2,-1,-2l1,-1l0,1c0,0,0,1,0,1l1,0l0,1l-1,0c0,1,0,1,0,1l0,1ZM311.5,530.5c0,-1,0,-1,0,-2c0,-1,0,-1,0,-2c0,0,1,0,1,1l0,1c0,0,0,1,0,1c0,1,0,1,-1,1ZM122.5,530.5c0,-1,0,-1,0,-2c0,-1,0,-1,0,-2l1,1l0,1c0,0,0,1,0,1c0,1,-1,1,-1,1ZM399.5,573.5c0,-1,0,-1,0,-2c0,0,0,-1,-1,-1l0,-1l1,0l0,1c0,0,1,0,1,1c0,1,0,1,0,1l-1,1ZM153.5,577.5c0,-1,0,-1,0,-2c0,0,0,-1,-1,-1l1,0l0,-1l0,1c1,0,1,0,1,1l0,1l0,1c-1,0,-1,0,-1,0ZM147.5,578.5c0,-1,0,-1,0,-2c0,0,0,-1,-1,-1l1,-1l0,1c1,0,1,0,1,1c0,0,0,1,0,1c0,1,-1,1,-1,1ZM159.5,478.5c0,-1,0,-1,0,-2c0,-1,-1,-1,-1,-2l1,0l0,-1c0,1,0,1,0,1c0,1,0,1,0,1l0,1l0,1c0,1,0,1,0,1Z" class="g1_12" />
</svg>