<?xml version="1.0" encoding="UTF-8" standalone="no"?>
<!DOCTYPE svg PUBLIC "-//W3C//DTD SVG 1.1//EN"
"http://www.w3.org/Graphics/SVG/1.1/DTD/svg11.dtd">
<svg version="1.1" xmlns="http://www.w3.org/2000/svg" xmlns:xlink="http://www.w3.org/1999/xlink">
<defs>
<style type="text/css"><![CDATA[
.g2_51{
stroke: #1F1A17;
stroke-width: 1;
stroke-linecap: butt;
stroke-linejoin: miter;
}
.g1_51{
fill: #1F1A17;
stroke: #1F1A17;
stroke-width: 1;
stroke-linecap: butt;
stroke-linejoin: miter;
}
]]></style>
</defs>
<path fill-rule="evenodd" d="M227.5,52.5l-2,1l-1,-1l1,-1ZM220.5,53.5c0,1,-1,2,-3,3l0,-1c1,0,1,0,2,0c0,-1,1,-1,1,-2c0,0,-1,0,-1,0l-1,0c0,0,-1,0,-1,-1l1,0l1,0c0,0,1,0,1,0c0,0,0,1,0,1ZM241.5,45.5c0,1,-1,2,-3,2c0,0,1,0,1,-1c1,0,1,0,1,-1c0,0,-1,0,-1,0c-1,0,-1,0,-1,-1c0,0,1,0,1,0c1,0,1,0,1,0c1,0,1,1,1,1ZM226.5,64.5c0,0,0,1,0,1l-3,2c0,0,0,-1,0,-1ZM235.5,52.5l-1,1l-3,2c0,-1,0,-1,0,-1c0,0,1,0,1,-1ZM247.5,46.5l-1,1l-3,1l1,-1ZM212.5,54.5l0,1l-1,0c0,1,-1,1,-2,1c0,0,1,-1,2,-2c-1,0,-1,0,-1,-1l1,-1l1,0l0,1l0,1ZM215.5,61.5c-1,1,-1,1,-2,1l-1,-1l-1,0c-1,3,-3,2,-4,2c0,0,3,0,3,-4c1,-2,4,-3,5,-2c0,1,0,2,0,2c2,0,2,1,3,-1c0,0,1,2,1,2c1,0,1,0,2,-1c0,0,0,-1,0,-1l0,-7l0,-1c0,0,0,-1,0,-1c1,-1,1,-1,1,-2c0,1,0,1,0,1c0,1,0,1,1,2l0,1c0,0,-1,0,-1,1l0,6c1,-1,2,-1,3,-2c1,0,1,-1,2,-1c1,0,1,0,1,1c1,0,1,1,1,1c0,1,0,2,-1,3c1,0,4,0,5,-1c0,0,0,-1,-1,-1c0,-1,0,-2,1,-2c0,0,1,-1,1,-1c1,0,1,0,2,1c1,0,1,1,1,1c0,1,-1,1,-1,2c0,0,5,1,5,0c0,-4,0,-6,0,-8c-1,0,-1,0,-1,-1c0,-1,1,-2,2,-2l-1,1c0,0,1,1,1,1l0,1l0,1l0,1c0,0,0,1,0,1c0,1,0,2,0,2l0,2c0,1,0,2,0,2c-1,2,-5,2,-6,1c-1,0,-1,0,-2,-1c0,1,-1,1,-1,1c-2,1,-12,2,-15,0l0,-1c-1,2,-2,2,-3,1ZM214.5,59.5c-1,-2,-2,-1,-2,0c1,1,1,1,2,1l0,-1ZM212.5,53.5c0,0,-1,0,-1,0l1,1c0,-1,0,-1,0,-1ZM245.5,57.5c0,3,0,4,-1,5l0,-12c0,0,0,-1,1,-2ZM221.5,65.5l-1,1l-1,-1l-2,1l-1,-1l1,-1l2,1l1,-1ZM228.5,58.5c0,0,-1,0,-1,0c-1,-1,-1,-1,-1,-1c-2,0,-3,1,-5,3c1,0,1,0,1,0c1,0,2,0,3,-1c2,0,3,0,3,-1Z" class="g1_51" />
<path fill-rule="evenodd" d="M242.5,157.5c0,1,0,1,0,1l-4,2c0,-1,1,-1,1,-1ZM241.5,170.5c0,3,-1,4,-1,5l-1,-12c0,0,1,-1,2,-2ZM219.5,172.5c0,1,0,1,-1,1c0,0,-1,1,-1,1l-1,0c0,-1,0,-1,0,-1c0,0,0,-1,0,-1c0,1,0,1,1,1l0,-1l0,-1l1,0c0,1,0,1,0,1c1,0,1,0,1,-1l0,-1c0,1,0,1,0,2ZM237.5,164.5l0,1l0,1l0,1c0,1,0,2,0,2l0,2c0,1,0,2,0,2c-2,3,-6,2,-6,-1c-1,0,-1,0,-2,1c-2,1,-9,2,-9,2c1,0,1,0,2,1c1,0,1,0,1,1l0,1c-2,2,-4,2,-7,2c-1,0,-2,0,-3,0c-1,-1,-1,-2,-1,-3c0,0,0,-1,1,-2c0,-1,1,-2,1,-2c0,1,0,1,-1,2c0,0,0,1,0,1c0,1,0,2,1,2c1,1,2,1,3,1c1,0,2,0,3,-1c1,0,2,0,2,-1l-1,0c-1,0,-1,0,-1,0c-1,-1,-1,-1,-1,-1c0,-5,7,-3,9,-5c-1,0,-2,-1,-2,-1c0,0,-1,0,-1,1c0,0,-1,0,-1,0c0,-1,0,-1,1,-2c0,0,1,-1,1,-1c0,0,1,1,2,1c1,1,2,1,3,1c1,0,1,0,2,0c0,0,0,1,0,1c-1,0,-1,1,-2,1c0,1,5,1,5,0c0,-4,0,-6,0,-8c-1,0,-1,0,-1,-1c0,-1,1,-2,2,-2l-1,1c0,0,1,1,1,1l0,1ZM218.5,167.5l0,1l-1,0c-1,1,-1,1,-2,1l-1,0c1,0,2,-1,3,-2c-1,0,-1,0,-1,-1l0,-1c1,0,1,0,1,0c1,0,1,0,1,1l0,1ZM217.5,166.5l0,1c0,-1,0,-1,0,-1ZM235.5,159.5c0,1,-1,2,-2,2c0,0,1,0,1,-1c0,0,1,0,1,-1c0,0,-1,0,-1,0c-1,0,-1,0,-1,0c0,-1,0,-1,0,-1c0,0,1,0,1,0c0,0,1,0,1,0c0,1,0,1,0,1ZM225.5,163.5c0,0,0,1,0,1l-4,2c0,-1,0,-1,1,-1l0,-1Z" class="g1_51" />
<path fill-rule="evenodd" d="M219.5,293.5l0,2l-1,-1c-1,1,-2,2,-2,2c0,0,-1,-1,-1,-1c1,0,1,-1,2,-1c0,-1,0,-1,0,-1c0,-1,0,-1,0,-1c0,-1,1,-1,1,-1c0,0,1,0,1,1c0,0,0,1,-1,1c0,0,1,0,1,0ZM220.5,303.5c0,1,4,0,4,2c0,0,-1,0,-1,1c-1,1,-4,2,-6,2c-2,0,-3,0,-4,0c-1,-1,-1,-2,-1,-3c0,-1,0,-1,1,-2c0,-1,1,-2,1,-2c0,1,0,1,-1,2c0,0,0,1,0,1c0,1,1,2,1,2c1,0,2,1,3,1c1,0,2,-1,3,-1c1,0,2,0,2,-1l-1,0c-1,0,-2,0,-2,0c0,0,-1,-1,-1,-1c2,-5,7,-5,9,-2c0,1,3,0,3,-1l-1,0c0,-1,0,-1,0,-1c0,0,0,-1,1,-1c0,-1,1,-1,1,-1c1,0,2,0,2,0c1,1,1,1,1,2c0,0,0,1,-1,2c2,1,3,0,3,-1c0,-3,0,-5,0,-7c-1,0,-1,-1,-1,-1c0,-1,1,-2,2,-2c0,0,0,1,0,1l0,1c0,0,1,0,1,0c0,1,-1,1,-1,1c0,1,0,1,0,1c0,1,0,1,0,2c0,1,0,1,0,2l0,2c0,1,0,1,0,2c-2,2,-4,1,-5,0c-1,0,-2,1,-2,1c-1,1,-3,1,-4,0c-1,-2,-4,-3,-6,-1ZM241.5,300.5c0,3,-1,4,-1,5l0,-12c0,0,0,-1,1,-2ZM226.5,307.5c0,0,0,1,-1,1l-3,2c0,-1,0,-1,0,-1c0,0,1,0,1,-1ZM232.5,289.5c0,1,0,1,0,1l-4,2l1,-1ZM242.5,288.5l-1,1l-3,1c0,0,1,0,1,-1ZM237.5,288.5c0,1,-1,2,-3,2c1,0,1,-1,2,-1l0,-1c-1,0,-1,0,-1,0c0,0,-1,0,-1,0c0,-1,0,-1,1,-1c1,0,1,0,1,0c1,1,1,1,1,1ZM224.5,296.5l-1,2l-1,-2l1,-1ZM232.5,295.5l-1,1l-1,-1l1,-2ZM219.5,297.5c0,1,-1,2,-1,2c-1,0,-1,0,-1,0l-1,0c0,0,0,1,0,1c-1,0,-1,-1,-1,-1l0,-1l0,-1c0,1,0,1,1,1c1,0,1,-1,1,-1c0,0,0,1,1,1c0,0,0,-1,0,-2l1,0c0,0,0,1,0,1ZM218.5,292.5l-1,0l1,1l0,-1Z" class="g1_51" />
<path fill-rule="evenodd" d="M333.5,460.5l4,-2l0,1l-4,2ZM148.5,477.5l-1,0c0,0,-1,0,-1,0c0,0,-1,0,-1,0c-1,0,-1,0,-1,0l-1,0l0,-1l0,-1c1,0,1,0,1,0c1,0,1,0,1,0c0,0,1,-1,1,-1c0,0,1,-1,1,-1c0,0,-1,0,-1,-1l0,-1c-1,0,-1,-1,-2,-1c0,0,-1,-1,-1,-2c-1,0,-1,0,-1,0c0,-1,-1,-1,-1,-1c-1,0,-1,0,-1,0c0,0,-1,0,-1,-1l0,-1c0,-1,0,-1,0,-1l0,-1c0,0,1,0,1,1l1,1c0,0,1,0,1,1c1,1,2,1,2,2c1,0,1,1,2,2c0,0,1,1,1,1c0,1,0,1,0,1c0,0,1,-1,1,-1c0,-1,0,-1,0,-2c0,-1,0,-1,0,-2c0,0,0,-1,0,-1c0,-1,0,-1,0,-2c0,-1,0,-1,0,-1c0,-1,0,-1,1,-1c0,1,0,1,0,1c0,0,1,0,1,1l0,1l-1,0c0,0,0,1,0,1c0,0,0,1,0,1c0,1,0,1,0,2l0,1c0,0,0,1,-1,2c0,0,0,1,0,1c0,0,0,1,0,1c0,1,0,1,0,1c0,1,0,1,0,1l0,1ZM147.5,474.5l0,1c-1,0,-1,0,-1,0c0,0,1,0,1,0l1,0l0,-1ZM100.5,474.5c0,1,0,1,0,2c0,0,-1,0,-1,1c0,0,0,1,-1,1l2,0l-1,1l-1,1l-1,0l0,1c0,0,-1,0,-1,0l-1,0l0,1l-1,0l-1,0l0,1l-1,0l-1,1l-1,0l-1,0l-1,0l-1,0l-1,-1c0,-1,0,-1,0,-1c-1,0,-2,0,-3,-1l-1,0l0,-1l-1,0l-1,-1l-1,0l0,-1l1,0l0,-1l-1,-1l0,-1l0,-1l0,-1l0,-1l1,-1l0,-1l-1,-1l1,0l0,-1l1,0l1,-1l1,0l1,-1l2,0c0,-1,0,-1,0,-1l1,-1c0,0,1,-1,1,-1l1,0l1,0l1,0l1,1l0,1l1,0l0,1l2,0l1,0l0,1c0,0,1,0,1,0l1,1c1,0,1,1,2,1l-2,1l1,0l0,1l1,1l0,1ZM91.5,484.5l0,-1l1,0l0,-1l1,0c1,0,1,0,1,-1l1,0l1,0l1,-1l1,0c0,-1,0,-1,0,-1l1,0l0,-1l-1,0l0,-1l1,0l0,-1l0,-1l1,0l0,-1c0,-1,-1,-2,-1,-2c0,-1,0,-1,0,-1c0,0,0,-1,0,-1l-1,0l1,-1c0,0,-1,-1,-1,-1l-1,0l0,-1l-1,0l-1,-1l-2,0c0,0,0,-1,-1,-1l0,-1l-1,0l-1,0l-1,0l-1,0l-1,0l-1,1c0,0,0,1,0,1l-2,0l-1,1l-1,0l0,1l-1,0c0,0,-1,1,-1,1l1,1l-1,0l0,1l0,1l-1,0l0,1l0,1l0,1l0,1l1,0l0,1l1,0l0,1l-1,0l0,1l1,0l0,1l1,0l1,1l1,0l2,1l1,0l0,1c1,1,1,1,1,1l1,0l1,0ZM97.5,469.5l-1,0l-1,0l0,-1l-1,0c-1,0,-1,0,-1,0l0,-1l1,0l1,0c0,0,0,1,0,1c1,0,1,0,1,0l0,1ZM97.5,479.5l-1,0l0,1l-1,0l-1,1l-1,0l0,-1c1,0,1,0,1,0l1,-1c0,0,1,0,1,-1l0,1ZM92.5,481.5l0,1c0,0,-1,0,-1,0l-1,0l-1,0l-1,0c0,0,-1,0,-1,0c0,0,0,-1,0,-1c0,-1,0,-1,0,-1l1,0l0,-1l1,0l1,0l1,0c0,0,0,1,0,1l1,0l0,1ZM92.5,467.5l0,1c0,0,-1,0,-1,0l-1,0l-1,0l-1,0c0,0,-1,0,-1,0l0,-1c0,0,0,-1,0,-1l1,0l1,0l1,0l1,0c0,0,1,0,1,0l0,1ZM91.5,470.5l0,-1l1,0l1,0l1,0c0,0,0,1,1,1l0,1l1,-1c0,0,1,0,1,1l0,1l1,0l0,1l0,1l0,1l-1,0l0,1c0,0,0,1,0,1l-1,1l-1,-1l-1,1l-1,1l-1,0c0,-1,-1,-1,-1,-1l-1,0l-1,0l-1,0l-1,0c0,1,0,1,0,1l-1,0c0,0,-1,0,-1,-1c0,0,-1,0,-1,0l0,-1l-2,1l0,-1l-1,-2l0,-1c0,-1,0,-1,0,-1c0,0,0,-1,0,-1l1,0l0,-1c0,-1,0,-1,1,-1l1,1c0,0,0,-1,0,-1l1,0l0,-1c0,0,1,0,1,0c1,0,1,0,1,0l1,0l0,1l1,0l1,0ZM91.5,478.5l1,0l1,0c1,0,1,0,1,0l1,-1l1,0l1,0l0,-1l0,-1l0,-1c0,-1,0,-1,0,-2c0,0,0,-1,0,-1c0,0,-1,0,-1,-1l-1,1l-1,-1l0,-1l-1,0c-1,0,-1,0,-1,0l-1,0l0,1l-1,0l-1,0l-1,0l-1,-1l-1,0c-1,0,-1,0,-1,0l0,1l-1,0c0,1,0,1,0,1l-1,-1c0,0,-1,1,-1,1l0,1l0,1l-1,0l0,1l1,1l0,1c0,0,0,1,1,1l1,0l0,1l1,0l1,0c1,0,1,0,1,0c0,0,1,0,1,0l1,0l1,0l1,0ZM90.5,472.5l0,1c1,0,1,1,1,1l0,1l0,1c0,0,-1,0,-1,0l0,-1c0,0,0,-1,0,-2ZM88.5,472.5l1,1c0,0,0,1,0,1l0,1l0,1l0,-1c0,0,0,-1,-1,-2ZM82.5,469.5l1,-1l1,0l0,-1l1,0l1,0c0,1,0,1,0,1c-1,0,-1,0,-1,0c-1,0,-1,0,-1,0l0,1l-1,0l-1,0ZM82.5,479.5l1,0l0,-1c0,1,0,1,1,1l0,1l1,0l1,0c0,0,-1,0,-1,0l0,1l1,0c-1,0,-1,0,-1,0c-1,-1,-2,-1,-2,-2l-1,0ZM154.5,476.5l0,-1l0,-1l-1,-8l1,-3l1,11l0,1c-1,1,-1,1,-1,1ZM274.5,463.5c1,0,1,0,1,0c1,0,1,0,1,0c1,0,1,0,1,0c1,0,1,0,1,0c0,1,0,1,-1,1c0,0,0,1,0,1l-1,0l-1,0l1,-1c0,0,1,0,1,0l-1,-1c0,0,-1,1,-1,1l-1,0l0,-1ZM139.5,458.5l4,-2l-1,1l-4,2ZM149.5,458.5c1,0,1,0,1,0c1,0,1,0,2,0l0,1l-1,1l-1,0l-1,0l1,0c1,0,1,-1,1,-1l-1,0c0,0,-1,0,-1,0l-1,0l1,-1ZM135.5,467.5l-1,-1l-1,1l-1,-1l1,-1l1,0l1,-1l1,1ZM137.5,474.5c0,1,0,1,-1,1c-1,1,-1,1,-2,1c-1,0,-1,0,-2,0l-1,0l-1,0l-1,0l-1,0l0,-1c0,0,0,-1,0,-1l-1,1l-1,0c0,1,0,1,-1,1c0,0,-1,0,-1,0l-1,0c0,0,-1,0,-1,0c-1,0,-1,-1,-1,-1l0,-1l0,-1l1,0c0,1,0,1,0,1l1,0l1,0c0,0,1,0,1,0l1,0c0,0,1,0,1,0l0,-1l0,-1l0,-2l0,-1l0,-1l0,-1l1,2l0,1l0,2c1,1,1,1,1,1c0,1,0,1,0,1c0,0,0,1,0,1c1,0,1,0,1,0l1,0l1,0c1,0,1,0,2,-1c1,0,2,0,2,0c0,-1,0,-1,0,-1c0,-1,0,-1,0,-1c0,1,0,1,-1,1l-1,0c-1,0,-1,0,-1,0c0,0,0,-1,0,-1l0,-1c0,0,0,-1,0,-1c0,-1,0,-1,1,-1c0,-1,0,-1,1,-1l1,0c0,1,0,1,0,1c0,1,1,1,1,1c0,1,0,1,0,1c0,1,0,1,0,2c0,0,0,1,0,1ZM134.5,470.5c0,0,0,1,0,1c1,0,1,0,1,0c0,0,0,-1,0,-1l-1,0ZM132.5,458.5l1,0c0,0,1,0,1,0c1,0,1,0,1,0c1,0,1,0,1,1c0,0,0,1,-1,1c0,0,0,1,-1,1c0,0,-1,0,-1,0c-1,0,-1,0,-1,0l2,-1c0,0,1,0,1,-1l-1,0c-1,0,-1,0,-2,0l0,-1ZM123.5,463.5l4,-2l0,1l-4,2ZM117.5,476.5l0,-1l0,-1l-1,-8l1,-3l1,11l0,1l-1,0c0,1,0,1,0,1ZM113.5,474.5l-2,0c0,0,-1,0,-1,0c-1,0,-2,0,-2,1l0,1c0,0,0,1,0,2c0,2,1,3,1,4c0,1,0,2,0,2l0,1c0,0,0,-1,-1,-3c0,-1,0,-3,-1,-3c0,-1,0,-2,0,-2l0,-1c0,-1,0,-2,0,-2c1,0,1,-1,1,-1c0,0,1,0,1,-1c1,0,2,0,2,0c-1,-1,-1,-1,-1,-1l-1,0c0,1,0,1,0,1l-1,0c1,0,1,-1,1,-1c0,-1,1,-1,1,-1c1,0,1,0,1,0c1,0,1,0,1,1c1,0,1,0,1,1c0,1,0,1,0,1ZM107.5,463.5l4,-2l0,1l-4,2ZM174.5,480.5l-2,-1l1,-1l2,1ZM171.5,476.5l-1,0c0,0,-1,0,-1,0c0,0,-1,0,-1,0c0,-1,0,-1,0,-1c0,-1,-1,-1,-1,-2l0,1c-1,0,-1,1,-1,1l-1,0c-1,0,-1,0,-1,0l-1,0l0,-2c0,0,0,-1,1,-1c0,0,1,-1,2,-1c0,-1,1,-1,1,-1l0,-1l0,-1l1,1c0,0,0,1,0,1c0,1,0,1,0,1l0,2c0,1,0,1,0,1c1,0,1,0,1,0c0,0,0,1,0,1c1,0,1,0,1,0l1,0c1,0,1,0,2,-1c0,0,1,0,1,0l0,-1l0,-1l-1,0l1,-2l0,1l1,0l0,1l0,1l0,1c0,0,0,1,0,1c-1,0,-1,0,-1,0c0,1,-1,1,-1,1c-1,0,-1,0,-2,0ZM173.5,482.5l-4,2c0,0,1,-1,1,-1l3,-2ZM167.5,471.5l-1,0l0,1l-1,0c0,0,0,1,-1,1l1,0l1,0c1,0,1,0,1,0l0,-1ZM168.5,480.5l-5,2c1,-1,1,-1,1,-1l4,-2ZM221.5,472.5l0,1c0,0,1,0,1,0c0,-1,-1,-1,-1,-1ZM221.5,480.5l0,1c-1,0,-1,0,-1,0c-1,0,-1,0,-2,0c0,0,-1,0,-2,0c0,0,0,-1,-1,-1l1,0c1,0,1,0,1,0c0,0,1,0,1,0l1,0c0,0,1,0,1,-1c0,0,1,0,1,0c0,-1,0,-1,1,-1c0,0,0,-1,0,-1c1,-1,1,-1,1,-2l-1,0c0,0,-1,1,-1,1l0,-1l-1,0c0,-1,0,-1,0,-1c0,-1,0,-1,0,-1c0,-1,0,-1,0,-2c0,0,1,0,1,0c0,-1,0,-1,1,-1l0,1c1,0,1,0,1,0c0,1,0,1,0,1c0,1,0,1,0,1c1,1,1,1,1,2c-1,1,-1,2,-1,3c0,1,-1,1,-1,1c0,0,0,1,-1,1ZM218.5,467.5l5,-3l-1,1c0,0,0,1,0,1l-4,2ZM216.5,479.5l-2,0l-1,1l-1,-1l1,-1l1,0l1,-1l1,1ZM213.5,476.5l-1,0l-1,0c-1,0,-1,0,-1,0c0,0,-1,0,-1,0l0,-1c0,0,-1,0,-1,0c-1,0,-1,0,-1,0c0,1,-1,1,-1,1l-1,0l-1,0c0,0,-1,0,-1,0l-1,0l0,-1l-1,0c-1,1,-1,1,-2,1l-1,0c-1,0,-1,0,-1,0c-1,-1,-1,-1,-1,-1c0,0,-1,1,-1,1c-1,0,-2,0,-2,1l-2,0c0,0,-1,0,-1,0l-1,0l-1,0c-2,0,-3,0,-4,0c-1,0,-2,-1,-2,-1c-1,0,-1,-1,-1,-1c0,0,0,-1,0,-1l0,-1c0,0,0,-1,0,-1c0,-1,1,-1,1,-1l0,1l0,1c0,0,0,1,0,1c0,0,1,1,2,1c1,0,1,0,2,0c0,1,1,1,3,1c0,0,1,0,1,0c1,0,1,-1,2,-1l1,0c1,0,2,-1,3,-1c0,0,1,-1,1,-1l0,1l0,1c1,0,1,0,1,0l1,0l1,0c0,0,0,-1,1,-1c1,0,1,0,1,0c0,0,1,0,1,0c0,1,1,1,1,1l1,0c0,0,1,0,1,0c0,0,1,-1,1,-1l1,0l1,0l1,0c0,1,0,1,1,1l1,0l1,0c0,0,1,0,1,-1c1,0,1,0,1,0c0,0,0,-1,0,-1c0,-1,0,-1,0,-1l-1,0l1,-2l1,1c0,0,0,1,0,1c0,1,0,1,0,1l0,1c0,0,0,1,0,1l-1,0c0,1,0,1,-1,1c0,0,-1,0,-1,0ZM214.5,461.5c1,-1,1,-1,1,-1c0,-1,1,-1,1,-1c1,1,1,1,1,1c0,1,0,1,0,1l-1,1l1,0l0,2l-1,-1l-1,0l0,1c-1,0,-1,1,-1,1l-1,0l-1,0l1,-1l1,0l0,-1l1,0l0,-1c-1,0,-1,0,-1,-1ZM216.5,461.5l-1,0l0,-1c0,0,0,1,0,1l1,1l0,-1ZM207.5,468.5l-1,-1l0,-1l2,1ZM209.5,470.5l-2,0l-1,1l-1,-1l1,-2l1,1l1,-1l1,1ZM206.5,460.5l4,-2l0,1l-4,2ZM202.5,480.5l-2,-1l1,-1l1,1ZM199.5,467.5l-1,0l0,1l1,0c0,0,1,0,1,0l0,-1c0,0,0,1,0,1c1,0,1,0,1,0c0,0,0,-1,0,-1l0,-1l1,0l0,1l0,1c0,0,-1,1,-1,1l-1,0c-1,0,-1,1,-1,1c0,0,-1,-1,-1,-1l0,-1l0,-1ZM201.5,482.5l-4,2c1,0,1,-1,1,-1l4,-2ZM190.5,471.5l-1,-1l-1,1l-2,-1l1,-1l2,1l1,-1l1,0ZM188.5,463.5l4,-2l0,1l-4,2ZM290.5,467.5l-2,-1l-1,1l-1,-1l1,-1l1,0l1,-1l2,1ZM291.5,474.5c0,1,0,1,0,1c0,0,-1,0,-1,0c0,1,-1,1,-2,1c0,0,-1,0,-2,0c-1,0,-1,0,-1,0c-1,0,-1,-1,-2,-2c0,1,0,2,0,2c-1,0,-1,0,-1,0l-1,0l-1,0c0,1,0,1,0,1c0,1,0,1,-1,2l0,1c-1,0,-1,0,-1,1c0,0,-1,0,-1,0l-1,1c-1,0,-1,0,-1,0l-1,0c0,0,-1,0,-1,-1c0,0,-1,0,-1,0c0,0,1,0,1,0c1,0,1,0,2,0c0,-1,1,-1,1,-1c0,0,1,0,1,-1c0,0,1,0,1,0c0,-1,0,-1,0,-1c1,0,1,-1,1,-1c0,0,0,-1,0,-1l-1,0l-1,0c0,0,-1,0,-1,-1c0,0,0,-1,0,-1c0,0,0,-1,1,-1c0,-1,0,-1,0,-1c1,0,1,0,1,0c1,0,1,0,1,0c1,1,1,1,1,1l0,1l0,1c1,0,1,0,1,0c0,0,1,0,1,0c0,-1,1,-1,1,-1c0,0,0,-1,0,-1c0,-1,0,-1,0,-1c0,0,0,-1,0,-1l0,-7l1,-2l0,11c0,0,0,1,0,1l1,0c0,0,0,1,0,1l1,0c1,0,2,0,2,-1c1,0,2,0,2,0c1,-1,1,-1,1,-1c-1,-1,-1,-1,-1,-1c0,1,0,1,0,1c0,0,-1,0,-1,0c-1,0,-1,0,-1,0c0,0,-1,0,-1,0c0,0,0,-1,0,-1l0,-1c0,0,0,-1,0,-1c0,-1,1,-1,1,-1c0,-1,1,-1,1,-1c0,0,1,0,1,0c0,1,0,1,1,1c0,1,0,1,0,1c0,1,0,1,0,1c0,1,0,1,0,2c0,0,0,1,0,1ZM288.5,470.5c0,0,0,1,0,1l1,0l1,0c0,0,-1,-1,-1,-1l-1,0ZM287.5,457.5c0,0,1,0,1,-1l1,0c0,0,0,1,0,1l0,1c0,0,0,1,0,1l1,0l-1,1l-1,0l0,1c-1,0,-1,0,-1,0l-1,0l0,1l-1,0c0,-1,0,-1,0,-1l1,0c1,-1,1,-1,1,-1l1,-1l-1,0c0,0,0,-1,0,-1c0,0,0,-1,0,-1ZM288.5,457.5c0,0,0,1,0,1l1,0l-1,0ZM283.5,457.5l0,-1c1,0,1,0,1,0c1,0,1,1,1,1l0,1c0,0,0,1,-1,1l1,0l0,1l-1,0l-1,0l0,1c0,0,-1,0,-1,0l-1,0l0,1c0,-1,0,-1,-1,-1l1,0l1,0c0,-1,0,-1,0,-1l1,0l0,-1c0,0,-1,-1,-1,-1c0,0,1,-1,1,-1ZM284.5,457.5l-1,0c0,0,0,1,0,1l1,0ZM278.5,473.5c0,0,-1,1,-1,1c0,0,1,0,1,1l1,0c0,-1,0,-1,0,-1l-1,0c0,-1,0,-1,0,-1ZM271.5,480.5l-2,-1l1,-1l2,1ZM268.5,476.5l-1,0l-1,0l-1,0l-1,0c0,0,0,-1,0,-1c-1,0,-1,0,-1,0l-1,0c-1,0,-1,0,-2,0c-1,0,-1,0,-2,0c-1,0,-1,0,-2,1c-1,0,-2,0,-3,0c-1,0,-2,0,-3,0c-1,0,-2,0,-3,0c-1,0,-2,0,-3,0c0,0,-1,0,-2,0l-1,0l-2,0c-1,0,-1,0,-2,0l0,1l0,1c0,0,0,1,-1,1c0,0,0,-1,-1,-1c0,-1,0,-1,0,-2l-1,-1l-1,1l-1,0l0,1l0,1l0,1l1,2l0,1l0,1c0,1,0,1,0,2l0,1l-1,-1l0,-1l0,-1l0,-3l-1,-1l0,-1l0,-1l0,-1l1,0c0,0,0,-1,0,-1l1,-1l1,0l0,-1l1,0l0,-1c1,1,1,2,2,2l2,1l1,0l1,0l1,0c0,0,1,0,2,0c1,0,2,0,3,0c1,-1,1,-1,2,-1c1,0,1,0,2,0c1,0,2,0,3,0c0,0,1,0,2,0c1,0,2,0,3,-1c1,0,2,0,3,0c1,0,1,0,2,0c0,0,1,0,1,0l0,-1c-1,0,-1,0,-1,0c0,0,0,-1,-1,-1l-1,0c-1,0,-2,0,-4,1c-2,0,-4,0,-6,0c-2,1,-4,1,-5,1c-2,0,-3,-1,-3,-1c0,0,-1,0,-1,-1c0,0,1,0,1,-1c0,0,0,-1,0,-1c1,0,1,0,2,-1c0,-1,1,-2,2,-2c1,-1,2,-1,3,-2l1,0l-1,2c0,0,-1,0,-1,0c-1,1,-2,1,-3,2c-1,1,-2,1,-2,2c0,1,0,1,0,1c0,0,1,0,1,0c1,0,1,0,2,0c1,0,2,0,4,0c2,-1,4,-1,6,-1c2,0,4,0,4,0c1,0,1,0,1,0c0,0,1,0,2,0c0,1,0,1,0,1c1,0,1,0,1,0c0,0,0,1,0,1c0,1,0,1,-1,2l0,1l1,0l2,0c1,0,1,0,2,-1c0,0,1,0,1,0l0,-1l0,-1c0,0,-1,0,-1,0l1,-2l0,1l0,1l1,0l0,1l0,1c-1,0,-1,1,-1,1c0,1,-1,1,-1,1c-1,0,-1,0,-2,0ZM270.5,482.5l-4,2c0,0,0,-1,1,-1l3,-2ZM246.5,457.5c0,0,1,0,1,-1l1,0c0,0,0,1,0,1l0,1c0,0,0,1,0,1l1,0l-1,1l-1,0l-1,1l-1,0l0,1l-1,0c0,-1,0,-1,0,-1l1,0c0,-1,1,-1,1,-1l1,-1l-1,0c0,0,0,-1,0,-1c0,0,0,-1,0,-1ZM247.5,457.5c0,0,0,1,0,1l1,0l-1,0ZM231.5,466.5c0,-1,1,-1,1,-1c0,0,1,0,1,0c1,0,1,0,2,0c0,0,0,1,0,1c0,0,0,1,0,1c-1,0,-1,0,-1,1c0,0,-1,0,-1,0l-1,0l-1,0l2,-1c1,0,1,0,2,-1c-1,0,-1,0,-1,0c-1,0,-1,0,-1,0c0,0,-1,0,-1,0c0,0,-1,0,-1,1l0,-1ZM322.5,473.5c-1,0,-1,1,-2,1c-1,1,-3,1,-4,2c-1,0,-2,0,-3,0c-1,0,-1,0,-1,0c-1,0,-1,-1,-2,-2c0,1,0,1,0,1c0,1,0,1,-1,1c-1,0,-1,0,-1,0l1,1l1,0c0,0,1,0,1,0c0,1,0,1,0,1c0,0,0,1,0,1c0,0,-1,0,-1,0c0,1,0,1,0,1c0,0,-1,0,-1,1c-1,0,-2,1,-2,1c-1,0,-2,0,-3,0c-1,0,-2,0,-2,0c-1,0,-2,-1,-2,-1c0,0,0,-1,-1,-1c0,0,0,-1,0,-1c0,-1,0,-1,0,-1c0,0,0,-1,0,-2c1,0,1,-1,1,-2c0,0,1,0,1,0c0,1,0,1,0,1c0,0,-1,1,-1,1c0,1,0,1,0,1c0,1,0,1,0,1c0,1,0,1,1,2c1,0,2,0,3,0c1,0,1,0,2,0l1,0c0,0,1,0,2,-1l1,-1c-1,0,-1,0,-2,0c-1,0,-1,0,-1,0l0,-1c0,0,-1,0,-1,0c0,0,1,0,1,-1c0,-1,1,-1,1,-1c0,0,1,0,1,0c0,-1,1,-1,1,-1c0,-1,0,-1,0,-1c0,0,0,-1,0,-1c0,-1,0,-1,0,-1l0,-7l1,-2l0,11c0,0,0,1,0,1l1,0c0,0,0,1,0,1l1,0l1,0c1,-1,1,-1,2,-1c-1,0,-1,-1,-1,-1c0,0,0,-1,0,-1c0,-1,0,-1,0,-1l0,-1l0,-1l1,0c1,-1,1,-1,1,-1c0,0,1,0,1,0c0,0,1,0,1,0c0,0,1,0,1,0c0,1,0,1,0,1c0,0,1,0,1,0l0,1l-1,0l0,-1l-1,0l-1,0l-1,0c0,1,0,1,0,1l-1,0c0,0,0,1,0,1c0,1,0,1,0,1c1,1,2,1,2,1c0,0,1,0,1,0c1,0,1,0,1,0l1,-1l1,0l1,-1ZM314.5,463.5l4,-2l0,1l-1,0l-4,2ZM309.5,459.5c0,1,0,1,-1,2l0,-1l0,-1c0,0,0,-1,0,-1l0,-1l0,-1l1,1l0,1ZM372.5,472.5l0,1l1,0c0,-1,0,-1,-1,-1ZM372.5,480.5l0,1c0,0,-1,0,-1,0c0,0,-1,0,-1,0l-1,0c0,0,-1,0,-1,0c-1,0,-1,-1,-1,-1l1,0c1,0,1,0,1,0c0,0,1,0,1,0c0,0,1,0,1,-1c0,0,1,0,1,0c0,-1,1,-1,1,-1c0,0,0,-1,0,-1c1,-1,1,-1,1,-2l-1,0c0,0,0,1,-1,1l0,-1c-1,0,-1,0,-1,0c0,-1,0,-1,0,-1c0,-1,0,-1,0,-1c0,-1,0,-1,0,-2c1,0,1,0,1,0c0,-1,1,-1,1,-1l1,1c0,1,0,1,0,1c1,1,1,1,1,1c0,1,0,1,0,2c0,1,-1,2,-1,3c0,1,0,1,-1,1c0,0,0,1,-1,1ZM370.5,467.5l4,-3l0,1c-1,0,-1,1,-1,1l-4,2ZM363.5,475.5c0,0,1,0,1,0l1,-1c1,0,1,0,1,-1l-1,-2l0,-6c0,0,0,-1,0,-1l0,-1l1,0c0,0,0,1,0,1l1,0c0,0,0,1,0,1c-1,0,-1,1,-1,1c0,0,0,1,0,2c0,0,0,1,0,2c0,1,0,1,0,2l0,1l0,1l0,1c0,0,0,1,-1,1c0,0,-1,0,-1,0l-1,0c-1,0,-1,0,-1,0c-1,0,-1,0,-1,0c0,0,-1,0,-1,-1c0,0,0,-1,0,-1l0,-1l-1,1l-1,0c0,0,0,1,0,1c0,0,-1,0,-1,0l-1,1c0,1,0,1,0,2c0,0,0,1,-1,1c0,1,0,1,-1,1l-1,1l-1,0l-1,0c-1,0,-1,0,-1,0c0,0,-1,0,-1,-1l-1,-1l1,-1l1,1l-1,1l1,0c1,0,1,0,1,0l1,0l0,-1c1,0,1,0,1,0c0,0,1,0,1,-1l1,-1c0,0,0,-1,1,-1c0,0,0,-1,0,-1c-1,0,-1,0,-1,0l1,-2l1,0c0,0,1,0,1,0c1,-1,1,-1,1,-1c0,0,1,0,1,0c0,-1,0,-1,0,-1c0,0,0,1,0,1l0,1c0,0,1,1,1,1c1,1,1,1,1,1l1,0ZM368.5,480.5l-5,2c1,-1,1,-1,1,-1l4,-2ZM361.5,479.5l-2,-1l0,2l-2,-1l1,-2l1,1l1,-1l2,1ZM359.5,466.5l4,-2l0,1c0,0,-1,0,-1,0l-4,2ZM352.5,462.5c0,0,1,0,1,0c0,-1,1,-1,1,-1c1,0,1,0,2,1c0,1,0,1,0,1c-1,1,-1,1,-1,1c0,0,-1,0,-1,0l-1,0l-1,0l2,0c1,0,1,-1,2,-1c-1,0,-1,0,-1,0c-1,0,-1,0,-1,0c0,0,-1,0,-1,0c-1,0,-1,0,-1,0c0,0,0,-1,0,-1ZM347.5,476.5l-1,0l-13,0c-1,0,-1,0,-2,0c0,-1,0,-1,-1,-1l0,-1l2,1l1,0l1,0c1,0,1,-1,1,-1c1,0,1,-1,1,-1l0,-1l0,-2l0,-1l-1,-3l0,-2l0,-1l1,0l1,1l0,1c-1,0,-1,1,-1,1l0,1l0,1l1,1l0,1l0,2l-1,1l2,-1l1,0l0,-1c1,0,1,0,2,-1l1,0c0,0,1,1,1,1c1,0,1,0,1,1l0,1c0,0,0,1,-1,1l0,1l-1,0l2,0l2,0l1,0c0,0,1,0,1,-1c1,0,1,0,1,0l0,-1l0,-1l0,-2c0,0,1,0,1,1l0,1l0,1l0,1c0,0,0,1,0,1c-1,1,-1,1,-2,1c0,0,-1,0,-1,0ZM348.5,482.5l-4,2c1,0,1,-1,1,-1l4,-2ZM343.5,473.5c-1,-1,-1,-1,-1,-1c0,0,-1,0,-1,0c-1,0,-1,0,-2,1l-1,0l-1,1l-1,1l1,0c1,0,1,0,2,0l0,-1l1,0c1,0,2,0,3,-1Z" class="g2_51" />
<path fill-rule="evenodd" d="M362.5,572.5l4,-2l0,1l-4,2ZM392.5,568.5l4,-1l-1,0l-3,2ZM351.5,569.5c0,-1,0,-1,0,-2c0,-1,0,-1,-1,-2l1,0l0,1c0,0,1,0,1,0l0,1c0,0,0,1,0,1c-1,1,-1,1,-1,1ZM160.5,569.5l0,-1c0,0,0,-1,-1,-1c0,-1,0,-2,0,-2l0,-1l1,0c0,0,0,1,0,1c0,0,0,1,0,1l0,1l0,1c0,0,0,1,0,1ZM328.5,573.5c0,-1,1,-1,1,-1c0,0,1,0,1,0c1,0,1,0,2,0c0,0,0,1,0,1c0,1,0,1,0,1c-1,0,-1,1,-1,1c0,0,-1,0,-1,0l-1,0c0,0,-1,0,-1,0l2,-1c1,0,1,0,1,0c0,-1,0,-1,0,-1c-1,0,-1,0,-1,0c-1,0,-1,0,-1,0c-1,1,-1,1,-1,1c0,-1,0,-1,0,-1ZM371.5,570.5c1,0,1,0,1,0c1,0,1,0,2,0c0,0,1,0,1,0c0,0,1,0,1,1c-1,0,-1,1,-1,1l-1,0l0,1c-1,0,-1,0,-1,0l-1,0l1,-1c1,0,1,0,2,-1c0,0,-1,0,-1,0l-1,0c0,0,-1,0,-1,0l-1,0c0,0,0,-1,0,-1ZM243.5,573.5l1,0c0,0,1,0,1,0c1,0,1,0,1,0c1,0,1,0,1,0c0,0,0,1,0,1l-1,1c0,0,-1,0,-1,0c0,0,-1,1,-1,1l-1,0c0,0,0,-1,0,-1l2,0c0,0,1,-1,1,-1l-1,0c-1,0,-1,0,-2,0l-1,0c0,0,1,0,1,0c0,-1,0,-1,0,-1ZM218.5,573.5c0,-1,1,-1,1,-1c1,0,1,0,2,0c0,0,1,0,1,0c0,0,0,1,0,1c0,1,0,1,0,1c0,0,-1,1,-1,1l-1,0l-1,0l-1,0l2,-1c1,0,1,0,2,0c-1,-1,-1,-1,-1,-1c0,0,-1,0,-1,0c0,0,-1,0,-1,0c0,1,-1,1,-1,1c0,-1,0,-1,0,-1ZM140.5,580.5l0,-1l1,0c0,0,0,-1,0,-1l0,-1l0,-1l0,-1l0,-1c0,0,0,-1,0,-1l1,1l0,1l0,1l0,1l0,1l1,-1c0,0,1,0,1,0c1,0,1,0,1,0l1,1c-1,0,-1,0,-1,1c0,0,-1,0,-1,0c0,0,0,1,-1,1c0,0,-1,0,-1,0ZM144.5,578.5c0,0,-1,0,-1,0l-1,0l0,1c0,0,1,0,1,0l1,0c0,0,1,-1,1,-1l-1,0ZM108.5,589.5l-1,-1l1,-1l1,0ZM106.5,585.5l-1,0l-2,0l-1,0l-1,-1c0,0,0,-1,0,-1l-1,1c-1,1,-1,1,-2,1c0,0,-1,0,-1,0l-1,0l-1,0c-1,-1,-1,-1,-1,-1l0,-1c0,0,0,-1,0,-1l1,0l0,1l1,0l1,0l1,0c0,0,1,0,1,0c1,0,1,0,1,0c0,-1,0,-1,0,-1l1,0c0,0,0,-1,-1,-1l0,-2l0,-1l0,-1l1,-1l0,1c0,1,0,1,0,2l1,2c0,1,0,1,0,1c0,1,0,1,0,1l1,0l2,0l1,0c0,0,1,0,1,0c1,0,1,0,1,0l0,-1c0,-1,0,-1,0,-1l-1,0l1,-2c0,0,1,0,1,0l0,1l0,1l0,1l0,1l0,1l-1,0c0,0,0,1,-1,1c0,0,-1,0,-1,0ZM107.5,591.5l-4,2c1,0,1,-1,1,-1l4,-2ZM99.5,574.5l-1,-1l1,-2l1,1ZM100.5,591.5l-4,2c0,-1,0,-1,0,-1l4,-2ZM89.5,584.5c0,0,-1,0,-2,0c-1,0,-2,0,-4,0c-1,0,-2,0,-3,1c-1,0,-1,0,-1,0c-2,0,-3,0,-5,0c-1,0,-2,0,-3,0c-1,0,-2,0,-3,0l-1,0c0,0,-1,0,-1,0c0,0,0,1,0,1c0,1,0,2,-1,2c0,1,0,1,0,1c0,0,-1,1,-1,1c0,0,-1,0,-1,0c0,1,-1,1,-1,1c0,0,-1,0,-1,0c-1,0,-1,0,-2,-1l-1,0c1,0,1,0,1,0l1,0c0,0,1,0,1,0c1,0,1,-1,1,-1c1,0,1,0,1,-1c0,0,1,0,1,0c0,-1,0,-1,1,-1c0,-1,0,-1,0,-2c0,-1,0,-1,0,-1l0,-1l0,-1c0,1,0,1,0,1l1,0l1,0c0,0,1,0,1,0c2,0,3,0,3,0c1,0,2,0,4,0c1,0,2,0,4,0l1,0c1,0,2,0,3,0c2,0,3,-1,4,-1c2,0,3,0,3,0c0,-1,0,-1,-1,-1c-1,0,-1,0,-1,0c-1,0,-3,0,-5,0c-2,0,-4,0,-6,0c-2,1,-3,1,-4,1c-2,0,-3,0,-4,-1c0,-1,0,-1,0,-2c1,0,1,-1,1,-1c0,0,1,0,1,-1c1,-1,2,-1,2,-2c1,-1,2,-1,3,-2l1,0l-1,2l-1,1c-1,0,-2,1,-2,1c-1,1,-2,1,-3,2c0,1,0,1,1,1l1,0l1,0l1,0c1,0,2,0,4,0c2,0,4,0,6,-1c2,0,3,0,4,0c1,0,1,0,2,1c0,0,1,0,1,0l0,1l0,1c0,0,0,1,0,1c0,1,0,1,-1,1ZM75.5,567.5c0,0,1,0,1,0c1,0,1,0,2,0c0,0,1,0,1,0c0,1,0,1,0,1l0,1c0,0,-1,0,-1,0l-1,0c0,1,0,1,-1,1l-1,-1l2,0c1,0,1,-1,2,-1c-1,0,-1,0,-1,0c0,0,-1,0,-1,0c0,0,-1,0,-1,0c0,0,-1,0,-1,0c0,-1,0,-1,0,-1ZM65.5,595.5l-4,2c0,0,0,-1,1,-1l4,-2ZM132.5,585.5l0,-1l0,-1l0,-8l1,-3l0,11c0,1,0,1,0,1c0,1,0,1,-1,1ZM132.5,569.5l4,-2l0,1l-5,2ZM126.5,583.5l0,1l-1,0c0,1,0,1,0,1l1,0l1,0c0,-1,0,-1,-1,-1ZM127.5,586.5l-1,0c0,0,-1,0,-1,1c0,0,-1,0,-2,0c0,0,-1,0,-1,0c0,0,0,-1,0,-1c0,0,0,-1,0,-1c0,0,1,0,1,0c1,0,1,-1,1,-1l1,0c0,0,0,-1,0,-1l1,0c0,-1,-1,-1,-1,-1c0,-1,0,-1,-1,-1c0,-1,-1,-1,-1,-2c0,0,-1,0,-1,-1c-1,0,-1,-1,-1,-1c0,0,-1,0,-1,0l-1,0c0,-1,-1,-1,-1,-1c0,-1,0,-1,0,-1l0,-1c0,-1,0,-1,0,-1l1,0c0,0,0,1,1,1c0,0,1,1,1,1c1,1,2,2,2,2c1,1,1,2,2,3c0,0,1,0,1,1l0,1c0,-1,0,-1,1,-2c0,0,0,-1,0,-2c0,0,0,-1,0,-1c0,-1,0,-1,0,-2c0,0,0,-1,0,-1c0,-1,0,-1,0,-1c0,0,0,-1,0,-1l1,-1c0,0,0,1,0,1c0,0,0,1,0,1c0,0,1,0,1,0c0,0,0,1,0,1c-1,0,-1,0,-1,1c0,1,0,1,0,2c0,0,0,1,0,1c0,0,0,1,0,1c0,1,-1,2,-1,2c0,1,0,1,0,1c0,0,0,1,0,1c0,1,0,1,0,1l0,1l0,1ZM124.5,569.5l5,-3c0,1,0,2,-1,2l-5,2ZM167.5,586.5l0,-1l1,-2l-1,-8l1,-3l0,11c0,0,0,1,0,1c0,1,0,1,-1,2ZM163.5,585.5c0,0,-1,0,-1,0c0,0,-1,0,-1,0c0,-1,-1,-1,-1,-2c0,1,0,1,-1,2c0,0,-1,1,-1,1c-1,0,-1,-1,-2,-1c0,0,-1,-1,-1,-2c0,1,0,1,-1,1c0,0,-1,0,-1,0c-1,0,-1,0,-2,0l0,-1l0,-1c0,0,1,0,1,-1c1,0,1,0,2,-1l1,0l0,-1l0,-1l1,-1l0,1l0,1l0,3c0,0,0,1,0,1l1,0c0,1,0,1,1,1c0,0,1,0,1,-1c0,0,1,0,1,-1c0,0,0,-1,-1,-2c0,-1,0,-1,0,-2c0,0,0,-1,0,-1l0,-1l1,-1l0,3l0,2l1,1c0,1,0,1,0,1c0,1,1,1,1,1l1,0c1,0,1,0,1,-1l0,-1l-1,-1l0,-1l0,-1l0,-1l0,-1l0,1c1,0,1,1,1,1l0,2c0,1,0,1,0,2c0,0,0,1,0,2l-1,1ZM155.5,581.5c-1,0,-1,0,-1,0l-1,1l-1,0c1,0,2,0,2,0c1,0,1,0,1,0ZM157.5,572.5l0,1c1,0,1,0,1,0c0,0,1,0,1,-1l0,-1l0,1c0,0,1,0,1,0c0,0,1,0,1,-1l0,-1l0,1l0,1l0,1c0,0,0,1,0,1l-1,0c0,0,-1,0,-1,0l0,-1l0,1c-1,0,-1,1,-1,1c-1,0,-1,0,-1,-1l0,-1l0,-1ZM155.5,589.5l-4,2c0,-1,1,-1,1,-1l4,-2ZM206.5,589.5l-1,-1l1,-1l1,1ZM204.5,586.5l-1,0l-2,0c-1,0,-1,0,-1,0l0,-1l-1,0l0,-1l0,-1l0,1l-1,0l0,1c-1,0,-1,0,-2,0c0,0,-1,0,-1,0l-1,0l-1,0c-1,0,-1,0,-1,-1c0,-1,0,-1,0,-1l1,0l0,-1c0,1,0,1,0,1l1,0l0,1l1,0l1,0l0,-1c1,0,1,0,1,0c1,0,1,0,1,0l1,-1l-1,-1l0,-2l0,-1l0,-1l1,-1l0,2c0,0,0,1,0,1l1,3l0,1l0,1l1,0l2,0l1,0c0,0,1,0,1,0c1,0,1,-1,1,-1c0,0,1,0,1,0l-1,0c0,0,0,-1,0,-1l0,-1l0,-2c1,0,1,1,1,1l0,1l0,1l0,1c0,1,0,1,0,1l0,1c-1,0,-1,0,-2,0c0,1,-1,1,-1,1ZM205.5,592.5l-3,2c0,-1,0,-1,0,-1l4,-2ZM197.5,574.5l-1,-1l1,-1l1,1ZM198.5,591.5l-4,2c0,0,0,-1,0,-1l4,-2ZM191.5,573.5c0,0,-1,0,-2,0c-1,1,-3,1,-4,2c-1,1,-2,1,-2,1c-1,0,-1,0,-1,0c0,0,0,1,0,1l1,0l1,1c1,1,1,1,2,2c0,0,1,1,1,1c0,1,0,1,0,2c0,0,0,1,0,1c-1,0,-1,0,-1,1l-1,0l-1,0c0,1,0,1,0,1l-1,0l-1,0l0,-1l0,1l0,1c0,0,-1,1,-1,2c-1,1,-1,1,-1,1c-1,1,-1,1,-1,1c-1,0,-1,0,-1,0c0,0,-1,0,-1,0l-1,0l-1,0c0,0,-1,0,-1,-1c0,0,1,0,1,0l1,0c0,0,1,0,1,0c0,0,1,0,1,0c1,-1,1,-1,1,-1c0,0,0,-1,1,-1l0,-1c1,0,1,-1,1,-1c0,0,0,-1,0,-1c-1,0,-1,-1,-1,-1l0,-1l1,0l0,1l1,0l1,0l1,0l1,0l1,0c0,-1,0,-1,0,-1c0,-1,0,-1,0,-1c0,-1,-1,-1,-2,-2c0,0,-1,-1,-1,-1c0,0,-1,0,-1,0c0,0,0,-1,-1,-1l0,-1l1,-1c0,0,0,-1,0,-1l1,0c0,0,1,-1,3,-2c1,0,2,-1,4,-1c0,0,1,-1,2,-1ZM183.5,568.5c0,-1,0,-1,1,-1c0,0,1,0,1,0c1,0,1,0,2,0c0,0,0,1,0,1c0,1,0,1,-1,1c0,0,0,1,0,1l-1,0c0,0,-1,0,-1,0c-1,0,-1,0,-1,0l2,-1c0,0,1,0,1,0c0,-1,0,-1,0,-1c-1,0,-1,0,-1,0c-1,0,-1,0,-2,0c0,1,0,1,0,1c0,-1,0,-1,0,-1ZM181.5,596.5l-4,2c0,-1,0,-1,0,-1l4,-2ZM258.5,576.5l-2,-1l0,1l-2,-1l1,-1l2,1l0,-1l2,0ZM259.5,584.5c0,0,0,1,-1,1c0,0,-1,0,-2,0c0,1,-1,1,-1,1l-1,0c-1,0,-1,0,-1,-1c-1,0,-1,-1,-1,-2c0,1,-1,2,-1,2c0,0,-1,0,-1,1l-1,0l-1,0l0,1l-1,1c0,0,0,1,0,1c-1,0,-1,1,-1,1c-1,0,-1,0,-1,0c0,1,-1,1,-1,1c-1,0,-1,0,-1,0l-1,0c0,0,-1,0,-1,0c-1,0,-1,-1,-1,-1l1,0c1,0,1,0,2,0c0,0,1,0,1,-1c0,0,1,0,1,0c0,-1,0,-1,1,-1c0,0,0,-1,0,-1c0,0,1,0,1,-1c0,0,-1,0,-1,0l-1,-1c0,0,-1,0,-1,-1c0,-1,0,-1,0,-1l0,-1c1,0,1,0,1,0c0,-1,0,-1,0,-1c0,0,1,0,1,0c0,0,1,0,1,0l0,1c1,0,1,0,1,0c0,0,0,1,0,1c0,0,0,1,0,1c1,0,1,0,1,0c1,0,1,0,1,0c1,0,1,-1,1,-1c0,-1,0,-1,0,-1c0,0,0,-1,0,-1l0,-1l0,-6l1,-2l0,10c0,1,0,1,1,1c0,1,0,1,0,1c0,0,1,0,1,0l1,0c0,0,1,0,2,0c0,0,1,-1,2,-1c0,0,0,-1,0,-1c0,0,0,-1,-1,-1c0,0,0,1,0,1c-1,0,-1,0,-1,0c0,0,-1,0,-1,0c0,0,-1,0,-1,0c0,-1,0,-1,0,-1c0,-1,0,-1,0,-2l1,0c0,-1,0,-1,0,-1c0,-1,1,-1,1,-1c1,0,1,0,1,1c0,0,1,0,1,1l0,1l0,1c1,0,1,1,1,1c0,1,0,1,-1,1l0,1ZM256.5,580.5c0,0,1,0,1,0c0,0,1,0,1,0c0,-1,0,-1,-1,-1c-1,0,-1,0,-1,0l0,1ZM255.5,566.5c1,0,1,0,1,0c0,-1,1,-1,1,-1c1,0,1,1,1,1c0,0,0,1,0,1l-1,0c0,1,0,1,0,1l1,0l0,2l-1,-1l-1,0l0,1c-1,0,-1,0,-1,1l-1,0l-1,0l1,-1l1,0l0,-1l1,0l0,-1c-1,0,-1,0,-1,-1l0,-1ZM257.5,567.5l-1,-1l0,1l1,0l0,1l0,-1ZM251.5,566.5c1,-1,1,-1,1,-1c1,0,1,0,1,0c0,0,0,1,0,1c0,0,0,1,0,1c0,1,0,1,0,1l0,2l-1,-1l-1,1c0,0,-1,0,-1,1l-1,0l0,-1l1,0l1,-1l0,-1l0,-1l0,-1ZM252.5,567.5l0,-1c0,0,-1,0,-1,1l1,0l0,1l0,-1ZM246.5,583.5c-1,0,-1,0,-1,0l0,1c0,0,1,0,1,0l1,0l0,-1c0,0,-1,0,-1,0ZM239.5,589.5l-2,-1l1,-1l1,1ZM236.5,586.5l-1,0c-1,0,-1,0,-2,0l-1,0l1,0c0,0,0,1,0,1c0,0,0,1,0,1c0,0,0,1,0,2c-1,0,-1,1,-2,1l-1,-1c0,0,-1,0,-1,-1c0,-1,0,-2,0,-3l-1,0c0,0,-1,0,-1,0l-1,0c-1,0,-1,-1,-2,-1c0,0,-1,1,-1,1c-1,0,-1,0,-2,0c-1,0,-1,-1,-1,-1l0,1l-1,0c0,1,0,1,-1,1c0,1,-1,1,-2,1c-1,0,-3,1,-4,1l4,-2l2,-1c0,0,1,-1,1,-1l1,-2c0,-1,1,-1,1,-1l0,-1l1,0c0,0,1,1,1,1c1,1,1,1,2,2c1,0,1,0,1,0l1,0l1,0l1,0c0,-1,0,-1,0,-2l1,0c0,-1,0,-1,0,-1c1,-2,2,-2,2,-2c0,0,1,0,1,0l0,1l0,1c0,1,0,1,-1,1c0,1,0,2,-1,2l1,0l1,0l1,0l1,0l1,0c1,0,1,0,2,0c0,0,1,-1,1,-1c0,0,0,-1,0,-1l-1,0l0,-1l1,-2c0,0,0,1,0,1l0,1l1,1l0,1l-1,0c0,1,0,1,0,1l0,1c0,0,-1,0,-1,0c-1,1,-1,1,-2,1ZM237.5,570.5c0,-1,0,-1,0,-1c0,0,1,0,1,0c1,0,1,0,1,1l0,1c-1,0,-1,0,-1,0l1,1l0,1l-1,-1l-1,1c-1,1,-1,1,-1,1l-1,0c-1,0,-1,0,-1,0l1,0l1,-1l1,-1c-1,-1,-1,-1,-1,-1l0,-1l1,0ZM238.5,570.5l-1,0l0,1l1,0l0,-1ZM232.5,581.5l-1,0l-1,0l0,1l-1,1c1,0,2,0,3,0c0,-1,0,-1,0,-2ZM229.5,586.5c0,0,0,1,1,1c0,1,0,1,0,1l1,1c1,0,1,0,2,0c0,-1,0,-1,0,-1c0,0,-1,-1,-2,-1c0,-1,-1,-1,-2,-1ZM231.5,570.5c0,-1,0,-1,1,-1c1,0,1,0,1,0l0,1l0,1l0,1l0,1l-1,-1l0,1l-1,0c0,1,0,1,-1,1l-1,0l1,-1l1,0l0,-1l1,0l-1,0c0,-1,0,-1,0,-1l0,-1ZM232.5,570.5c0,0,-1,0,-1,0l1,0l0,1l0,-1ZM223.5,584.5l-1,0l0,-1c0,0,-1,0,-1,0c0,1,0,1,1,1ZM312.5,582.5c0,0,-1,0,-1,0c0,1,0,1,1,1c0,0,0,-1,0,-1ZM312.5,589.5c0,1,-1,1,-1,1l-1,0c0,0,-1,0,-1,0l-1,0c0,0,-1,0,-1,0c0,0,-1,0,-1,0c0,0,0,-1,0,-1c0,0,1,0,1,0c0,0,0,1,0,1c1,0,1,0,1,0c1,-1,1,-1,1,-1c1,0,1,0,1,0c1,-1,1,-1,1,-1c1,0,1,-1,1,-1l1,-1c0,-1,0,-1,0,-1c0,-1,0,-1,0,-1c0,1,0,1,-1,1c-1,0,-1,0,-1,0c0,-1,0,-1,-1,-1c0,0,0,-1,0,-1l0,-1c0,-1,0,-1,1,-1c0,-1,0,-1,0,-1c1,0,1,0,1,0c0,0,1,0,1,0l0,1c1,0,1,0,1,0c0,1,0,1,0,2l0,1c0,1,0,1,0,1c0,1,0,2,-1,2c0,1,0,1,0,1c-1,1,-1,1,-1,1ZM309.5,576.5l4,-2c0,1,0,1,0,1l-4,2ZM305.5,577.5l-2,-1l0,2l-2,-1l1,-2l2,1l0,-1l2,1ZM303.5,584.5c0,0,1,0,1,0c1,0,1,-1,1,-1l1,0l-1,0c0,0,0,-1,0,-1l0,-1l0,-2c0,0,1,1,1,1l0,1l0,1l0,1c0,1,0,1,0,1l0,1c-1,0,-1,0,-2,0c0,1,-1,1,-1,1l-1,0l-10,0l-1,0c0,1,0,1,0,2l0,-1c0,0,0,-1,0,-1l-1,0l-1,0c0,0,-1,-1,-1,-1l0,1l0,1c0,1,-1,1,-1,1c0,0,-1,0,-1,-1c0,-1,-1,-1,-1,-2l0,-1c0,1,0,1,-1,1c0,0,-1,1,-1,1l-1,0c0,0,-1,0,-1,-1c-1,0,-1,0,-1,0c0,0,0,-1,0,-1c0,0,0,-1,0,-1l0,-1c0,0,-1,0,-1,0l0,-1c0,1,-1,2,-1,2c-1,0,-1,0,-1,0c0,1,0,1,0,1l0,1c0,1,0,2,0,2c-1,1,-1,2,-1,2c-1,1,-2,1,-2,1c-1,0,-2,1,-2,1c-1,0,-2,-1,-2,-1c-1,0,-1,0,-1,0c-1,-1,-1,-1,-1,-2c-1,0,-1,-1,-1,-1c0,-1,0,-1,0,-1l0,-1l1,0c0,-1,0,-1,0,-1c0,-1,0,-1,0,-1l1,0c0,0,0,1,0,1c-1,0,-1,0,-1,1c0,0,0,1,0,1c0,0,0,1,0,1c1,0,1,1,1,1l1,0c1,0,1,1,2,1c1,0,1,-1,2,-1c1,0,1,0,2,-1c0,-1,0,-1,0,-1l0,-1l0,-1c0,-1,0,-1,-1,-1c0,-1,0,-1,0,-1l0,-2c1,0,1,0,1,0c0,1,0,1,0,1l1,0c0,0,1,0,1,0c1,0,1,0,1,-1l1,-1l0,1l0,1l0,1c0,1,0,1,0,1c1,0,1,0,1,0l0,1l1,0l1,0l1,0c0,-1,1,-1,1,-1c0,0,0,-1,1,-1c0,0,1,1,1,1c1,0,2,1,2,1l1,0l1,0c0,0,1,0,1,-1l0,-1l0,-1l0,-1l0,-1l0,-1l0,-2l-1,-2c0,-1,1,-1,1,-2l1,2c0,0,0,1,0,1l0,1l0,1l0,1l0,1l0,2l0,1l0,1l1,-2l1,0l1,-1c0,0,1,0,1,0l1,0c1,0,1,0,2,0c0,0,0,1,0,1l1,1l-1,0c0,1,0,1,0,1l-1,1l2,0l1,0ZM303.5,569.5l4,-2l0,1l-1,0l-4,2ZM299.5,583.5c0,-1,0,-1,0,-1l-1,0c0,-1,0,-1,0,-1l-1,0c0,1,-1,1,-1,1l-2,1l-1,1l1,0c0,0,1,0,1,0l1,0c2,-1,3,-1,3,-1ZM294.5,570.5l1,0c0,0,1,0,1,0c1,0,1,0,1,0c1,0,1,0,1,1c0,0,0,1,-1,1c0,0,-1,0,-1,1c0,0,-1,0,-1,0l-1,0l2,-1c0,0,1,0,1,-1l-1,0c-1,0,-1,0,-2,0c0,0,0,-1,0,-1ZM283.5,576.5l4,-2c0,1,0,1,0,1l-4,2ZM280.5,589.5l0,-1c0,0,1,0,1,-1l1,0c0,0,1,0,1,0l0,1l0,1l-1,-1c-1,0,-1,0,-1,1l1,0l0,1c0,0,1,0,1,0l0,-1l1,0l0,1l-1,0l-3,2l0,-1c1,-1,1,-1,1,-1c-1,0,-1,0,-1,-1ZM284.5,594.5l-5,2c1,-1,1,-1,1,-1l4,-2ZM272.5,581.5l-2,-1l1,-1l2,1ZM271.5,568.5l0,1l1,0l0,-1l0,-1l1,0l0,1c1,0,1,0,1,0l0,-1l0,1l0,1l-1,1c0,0,0,-1,0,-1l-1,1l-1,0l0,-1l0,-1ZM272.5,563.5c1,0,1,-1,1,-1c0,0,1,0,1,0c0,0,1,0,1,1l-1,1l0,2l0,-1l-1,1c-1,1,-1,1,-1,1c-1,0,-1,0,-1,0c-1,0,-1,0,-1,0c1,0,2,-1,3,-2l-1,0c0,-1,0,-1,0,-1l0,-1ZM274.5,563.5l-1,0l0,1l1,0l0,-1ZM352.5,586.5l0,-1l0,-2l-1,-8l1,-3l1,11c0,0,0,1,0,1c0,0,-1,0,-1,0c0,1,0,1,0,2ZM347.5,585.5l-1,0l-1,0l-1,-1l-1,0c0,1,0,1,0,1l-1,1l-1,0l-1,0l-1,0c0,-1,0,-1,0,-1c-1,0,-1,0,-1,0c0,0,0,-1,0,-1c-1,0,-1,0,-1,0c0,1,0,1,0,1c0,0,-1,0,-1,0c-1,1,-1,1,-1,1l-1,0l-1,0l-1,1l0,1c0,0,-1,1,-1,1c0,0,0,1,-1,1c-1,1,-1,1,-1,1c0,0,-1,0,-1,0l-1,0c0,0,-1,0,-2,0c0,0,0,-1,-1,-1l1,0c1,0,1,0,1,0c0,0,1,0,1,0c1,0,1,0,2,-1l1,0c0,-1,0,-1,0,-1c1,0,1,-1,1,-1l0,-1l1,0l-1,0c-1,0,-1,0,-1,-1c-1,0,-1,0,-1,-1c0,-1,0,-1,0,-1l0,-1c0,0,1,0,1,0c0,-1,0,-1,0,-1c1,0,1,0,1,0l1,0l0,1c0,0,0,1,1,1c0,0,0,1,0,1c0,0,1,0,1,0c1,0,1,0,1,0c1,0,2,0,2,-1l1,0c1,0,1,0,1,0c0,0,0,1,0,1c1,0,1,0,1,0l1,0l1,0c0,0,1,0,1,0l0,-1l1,-1c0,0,1,-1,1,-1c0,-1,1,-1,1,-1c0,0,1,0,1,1c0,0,0,1,0,1l1,1l0,1c-1,1,-1,1,-1,1ZM345.5,583.5l1,0c0,0,0,-1,0,-1c-1,0,-1,0,-1,0l0,1ZM342.5,573.5l4,-3l0,1l0,1l-4,2ZM337.5,581.5l-1,-1l1,-1l1,1ZM337.5,570.5c0,-1,1,-1,1,-1l1,0c0,0,1,0,1,1c0,0,-1,0,-1,0l0,1l0,1l1,0l0,1l-2,-1l0,1c-1,1,-1,1,-1,1l-1,0l-1,0l1,0l0,-1c1,0,1,0,1,0l0,-1l1,0l-1,0c0,-1,0,-1,0,-1l0,-1ZM338.5,570.5l0,1l1,0l0,-1ZM330.5,583.5l0,1c1,0,1,0,1,0c1,0,1,0,1,0l-1,-1l-1,0ZM323.5,586.5l0,-1l0,-2l-1,-8l1,-3l1,11c0,0,0,1,0,1c-1,1,-1,1,-1,2ZM393.5,585.5l0,-1l0,-1l-1,-8l1,-3l1,11c0,1,0,1,0,1c-1,1,-1,1,-1,1ZM386.5,586.5c-1,0,-1,0,-1,0c0,-1,0,-1,0,-1c0,0,-1,-1,-1,-1c0,0,0,-1,0,-1l-1,1c-1,1,-1,1,-2,1c0,0,-1,0,-1,0c-1,0,-1,0,-1,0c-1,0,-2,-1,-2,-1l0,-1c0,-1,1,-1,1,-1c0,0,0,1,0,1c1,0,1,0,1,0l1,0c1,0,1,0,1,0c0,0,1,0,1,0c0,0,1,0,1,0c0,0,0,-1,1,-1c0,0,0,-1,0,-1c-1,-1,-1,-1,-1,-2c0,-1,0,-1,0,-1c0,-1,0,-1,0,-1c1,-1,1,-1,1,-1l0,1c0,1,0,1,0,2c0,1,1,1,1,2c0,1,0,1,0,1l0,1l0,-1c0,1,0,1,0,1c1,1,1,1,1,1c0,1,1,1,1,1l1,0l0,-1c0,0,0,-1,0,-2c0,-1,0,-1,0,-2c0,0,0,-1,0,-1c0,-1,0,-2,0,-2c0,-1,0,-2,0,-3c0,0,-1,0,-1,0c0,-1,0,-1,0,-1c0,0,0,-1,1,-1l0,-1c0,0,0,1,0,1l1,0c0,1,0,1,1,1c0,0,-1,1,-1,1l0,1c0,0,0,1,0,2c0,0,0,1,0,2c0,1,0,1,0,2l0,1c0,1,0,2,0,2l0,1c0,0,0,1,0,1c-1,0,-1,1,-1,1c-1,0,-1,0,-2,-1ZM387.5,567.5l0,1c0,0,1,0,1,0l0,-1l1,0l0,1c1,0,1,-1,1,-1l0,-1l0,1l0,1c0,0,0,1,0,1l-1,0l0,-1l0,1l-1,0c-1,0,-1,0,-1,0l0,-1l0,-1ZM391.5,564.5l-5,3c0,-1,0,-1,0,-1l6,-3ZM382.5,574.5l-1,0l1,-2l1,1ZM381.5,588.5l-4,2c0,0,0,-1,0,-1l4,-2ZM375.5,587.5l-1,-1l-1,2l-1,-1l1,-2l1,1l1,-1l1,1ZM371.5,581.5c0,0,1,0,1,0l1,0l1,0c0,-1,0,-1,0,-1c-1,-1,-1,-1,-1,-1l0,-1l1,0c0,0,0,-1,0,-1c0,1,0,1,0,2c0,0,1,0,1,0l0,1c0,1,0,1,-1,1l0,1l-1,1c-1,0,-1,0,-2,0l0,1c0,0,0,1,0,1c0,1,0,1,0,2c-1,1,-1,1,-1,2c-1,0,-2,0,-2,1c-1,0,-2,0,-2,0c-1,0,-1,0,-2,0c-1,0,-1,-1,-1,-1c-1,0,-1,-1,-1,-1c-1,-1,-1,-1,-1,-2l0,-1c0,-1,1,-1,1,-1l0,-1c0,0,1,-1,1,-1l0,1c-1,1,-1,1,-1,1l0,1l0,1l0,1c1,0,1,0,1,0l1,1c1,0,1,0,2,0c1,0,1,0,2,0c1,-1,1,-1,2,-1c0,-1,0,-1,0,-1l0,-1l0,-1c0,0,0,-1,0,-1l-1,-1l0,-1l0,-2c1,0,1,1,1,1c0,1,0,1,0,1l1,0ZM366.5,581.5l-2,-1l1,-2l2,1Z" class="g2_51" />
</svg>