<?xml version="1.0" encoding="UTF-8" standalone="no"?>
<!DOCTYPE svg PUBLIC "-//W3C//DTD SVG 1.1//EN"
"http://www.w3.org/Graphics/SVG/1.1/DTD/svg11.dtd">
<svg version="1.1" xmlns="http://www.w3.org/2000/svg" xmlns:xlink="http://www.w3.org/1999/xlink">
<defs>
<style type="text/css"><![CDATA[
.g1_74{
stroke: #1F1A17;
stroke-width: 1;
stroke-linecap: butt;
stroke-linejoin: miter;
}
]]></style>
</defs>
<path fill-rule="evenodd" d="M367.5,145.5l0,1l1,0l0,-1l1,-1l0,1l0,1c0,0,1,0,1,0c0,0,0,-1,0,-1l1,-1l0,-1l0,1c0,0,0,1,0,1l0,1c0,0,-1,1,-1,1l-1,0l-1,0c0,1,0,1,-1,1c0,-1,-1,-1,-1,-1c0,-1,0,-1,0,-1l0,-1l1,0ZM130.5,152.5l0,-1c0,0,0,-1,0,-1c0,-1,0,-2,-1,-2l1,-1l0,1c0,0,0,1,1,1l0,1c0,1,-1,1,-1,1l0,1ZM220.5,150.5l0,-1c0,0,0,-1,0,-1c0,-1,0,-2,-1,-2l1,-1c0,0,0,1,0,1c0,0,1,1,1,1l0,1l0,1l-1,0c0,0,0,1,0,1ZM275.5,155.5c0,0,0,-1,0,-1c-1,0,-1,0,-2,1l0,-1l0,-1l0,-1c-1,0,-1,0,-1,0c0,0,1,0,1,0l0,-1l-1,0c0,1,0,1,0,2l0,1l0,1c0,0,0,1,0,1l-1,0c-1,0,-1,0,-1,0c0,0,1,0,1,1l1,0l1,0c0,0,1,0,1,-1c0,0,1,0,1,0l0,-1ZM274.5,155.5c1,0,1,0,1,0c0,0,-1,1,-1,1l-1,0l0,-1l1,0ZM79.5,159.5c0,-1,0,-1,0,-1c-1,0,-1,0,-1,0c-1,0,-1,0,-2,0c0,1,0,1,0,1l0,-1l0,-1l0,-1l0,-1c0,0,-1,0,-1,0c0,0,0,1,0,1l1,2l0,1l-1,0c0,1,0,1,0,1l-1,0c0,0,1,0,1,0l1,0c0,0,1,0,1,0c1,0,1,0,1,0l1,-1ZM77.5,159.5c1,0,1,0,1,0l-1,0l-1,1l0,-1c0,0,1,0,1,0ZM380.5,143.5l-6,3c1,-1,1,-2,1,-2l5,-2ZM361.5,150.5c0,-1,0,-1,1,-1c0,-1,0,-1,0,-1l1,0c0,1,0,1,0,1c0,1,0,1,0,1l0,1l0,2l-1,-1l-1,1c0,0,0,1,-1,1l-1,0l0,-1l1,0l1,-1l1,0l-1,-1l0,-1ZM362.5,150.5l0,-1c0,0,0,1,-1,1c0,0,1,0,1,0l0,1l0,-1ZM151.5,161.5l0,-1l0,-1l-1,-9l1,-2l1,11c0,0,0,1,0,1c-1,0,-1,1,-1,1ZM150.5,144.5l5,-2l-1,1l-4,2ZM147.5,158.5c-1,0,-2,1,-3,1c-1,1,-2,1,-3,1c-1,1,-2,1,-3,1l-1,0c-1,0,-1,0,-2,0l-1,-1c0,1,0,1,0,2l-1,0c0,0,0,-1,-1,-1l-1,0l-1,-1l-1,1c-1,0,-1,0,-1,0l-1,0l-1,0c-1,0,-1,-1,-1,-2c0,1,-1,1,-1,2c0,0,-1,0,-1,0l-1,0c-1,0,-1,0,-1,0c0,0,-1,0,-1,0c-1,0,-1,0,-1,-1c0,-1,0,-1,0,-1c0,0,-1,0,-2,1c0,0,-1,0,-1,0c-1,0,-2,0,-2,0c-1,0,-2,0,-3,0c-1,0,-2,1,-3,1c-1,0,-2,0,-3,0c-1,0,-1,0,-2,0c-1,0,-2,0,-3,0c-1,0,-2,0,-2,0l-1,0l-3,0c0,0,-1,0,-1,0l-1,-1l0,1l1,0l0,1l-1,0l0,1c-1,0,-1,0,-1,0c-1,-1,-1,-2,-1,-2l0,-1c-1,0,-1,0,-1,0l-1,0l0,1l-1,0l0,1l0,1l1,1l0,2l0,2c0,1,0,1,0,2l0,1l0,-1l0,-1l0,-1l-1,-3l0,-1l0,-1l0,-1l0,-1c0,-1,0,-1,1,-2l1,-1l1,0l1,-1c0,1,1,1,2,2l1,0l2,0l1,0c1,0,2,0,2,0c1,0,2,0,3,0c1,0,2,0,2,0c1,0,2,0,3,0c0,0,1,0,2,0c1,0,2,0,2,0c1,0,2,-1,3,-1c2,0,3,0,3,0c1,0,2,0,3,0c0,0,0,-1,0,-1c0,0,0,-1,-1,-1c-1,0,-1,0,-1,0c-1,0,-3,0,-5,0c-2,1,-4,1,-6,1c-2,0,-3,0,-4,0c-2,0,-3,0,-4,0c0,-1,0,-1,0,-1c0,0,0,-1,0,-1c1,-1,1,-1,1,-1c0,0,0,-1,1,-1c1,-1,1,-2,2,-2c1,-1,2,-2,3,-2l1,0l-1,1c0,0,0,1,-1,1c-1,0,-1,1,-2,2c-1,0,-2,1,-3,2c1,1,1,1,2,1c0,0,1,0,1,0c1,0,3,0,5,-1c2,0,4,0,6,0c2,0,3,-1,4,-1c1,0,1,1,2,1c1,0,1,0,1,1l0,1c0,0,0,1,0,1c0,1,-1,1,-1,1l1,0l1,0l1,0c1,0,1,0,1,-1c0,0,1,0,1,0l0,-1c0,-1,0,-1,-1,-1l0,-7l1,-2l1,11l0,1c1,0,1,0,1,0l1,0l1,0c0,0,0,-1,1,-1c1,-1,2,-2,2,-2l1,1l1,1l1,1c0,0,1,0,1,0l1,0l1,0l1,0c1,0,1,0,1,0c0,0,0,-1,0,-1c-1,-1,-1,-1,-1,-1c0,-1,0,-1,0,-1c0,0,1,-1,1,-1l0,-1c1,0,1,0,1,-1c0,0,1,0,1,0c0,0,1,0,1,0l1,0l1,0c0,0,0,1,0,1l1,0l0,1l-1,-1l-1,0l-1,0l-1,0c0,0,0,1,-1,1c0,0,-1,0,-1,0c0,1,1,1,1,1c0,0,0,1,0,1c1,0,1,1,2,1l1,0c1,0,1,-1,1,-1l1,0l1,0l0,-1ZM142.5,146.5l0,-1c1,0,1,0,2,0c0,0,1,0,1,0c1,1,1,1,1,1c0,1,-1,1,-1,1c0,1,0,1,-1,1c-1,0,-1,0,-1,0l-1,0l1,0c1,-1,2,-1,2,-1c0,0,-1,0,-1,0c0,-1,0,-1,-1,-1c0,0,0,1,-1,1l-1,0c0,0,0,-1,0,-1l1,0ZM134.5,160.5l-1,-1c0,-1,-1,-1,-1,-2l0,1l-1,0c0,0,0,1,1,1l1,0ZM124.5,142.5c0,0,0,-1,1,-1l1,0l0,1l0,1l0,1l0,1l-1,-1l0,1l-1,0c0,1,0,1,-1,1l-1,0l1,-1l1,0l0,-1l1,0l-1,0c0,-1,0,-1,0,-1c0,-1,0,-1,0,-1ZM125.5,142.5l-1,0c0,0,1,0,1,0l0,1l0,-1ZM102.5,142.5c0,0,0,-1,0,-1c1,0,1,0,1,0c1,0,1,0,1,1l0,1c0,0,-1,0,-1,0l1,1l0,1l-1,-1l-1,1c0,1,-1,1,-1,1l-1,0c0,0,-1,0,-1,0l1,0l1,-1l1,0l0,-1c0,-1,-1,-1,-1,-1c0,-1,0,-1,1,-1ZM103.5,142.5l-1,0l0,1l1,0l0,-1ZM87.5,150.5c1,0,1,0,2,0c0,0,1,0,1,0c1,0,1,0,1,1c0,0,-1,1,-1,1l-1,0c0,1,0,1,0,1c-1,0,-1,0,-1,0l-1,0l1,-1c1,0,2,0,2,-1c0,0,-1,0,-1,0l-1,0l-1,0l-1,0c0,0,0,-1,1,-1ZM191.5,157.5c-1,0,-1,0,-1,0c0,0,0,1,0,1l1,0c0,0,0,-1,0,-1ZM191.5,165.5c-1,0,-1,0,-1,0c0,0,0,1,-1,1c0,0,-1,0,-1,0l-1,0c0,0,-1,0,-1,-1c-1,0,-1,0,-1,0l1,0c1,0,1,0,1,0c0,0,1,0,1,0c1,-1,1,-1,1,-1c0,0,1,0,1,-1c1,0,1,0,1,0c0,-1,0,-1,1,-2c0,0,0,-1,0,-1c0,0,-1,0,-1,0l-1,0c0,0,-1,0,-1,0c0,0,0,-1,0,-1c0,0,0,-1,0,-1l0,-1l1,-1l0,-1c1,0,1,0,1,0c0,0,1,0,1,0c0,0,0,1,0,1c0,0,1,1,1,1c0,0,0,1,0,1c0,0,0,1,0,1c0,1,0,1,0,1c0,1,-1,2,-1,3c0,0,0,1,-1,1c0,0,0,1,0,1ZM188.5,151.5l4,-2l0,1l-1,0l-4,2ZM181.5,159.5c0,0,1,0,1,0c0,0,1,0,1,0c1,0,1,-1,1,-1l0,-2l-1,-6l0,-1c0,0,0,-1,0,-1c0,0,1,-1,1,-1l0,1c0,1,1,1,1,1c0,0,0,1,0,1l-1,1c0,0,0,1,0,2c0,0,0,1,1,2c0,1,0,1,0,2l0,1c0,1,-1,1,-1,1c0,1,0,1,0,1c-1,1,-1,1,-1,1l-1,0l-1,0l-1,0l-1,0c0,0,0,-1,-1,-1l-2,-2c-1,-1,-1,-1,-1,-1l-1,0l0,1l0,1c0,1,0,1,-1,1c0,0,0,1,0,1c0,0,-1,0,-1,0c0,0,-1,0,-1,0l-1,0l-3,0l-1,0l0,-1l0,1l0,1l0,1c0,0,-1,0,-1,0c0,0,-1,0,-1,0c0,-1,-1,-2,-1,-2l0,-1c0,0,-1,0,-1,0l0,1c-1,0,-1,0,-1,0l0,1l0,1l0,1l0,2l1,2c0,1,0,1,0,2l-1,1l0,-1l0,-1l0,-1l-1,-3l0,-1l0,-1l0,-1l0,-1c0,-1,1,-1,1,-2l1,0l0,-1l1,0l1,-1c0,1,1,1,2,2l2,0l1,0l1,0l1,0c0,0,1,0,1,0l1,0c1,-1,1,-1,1,-1c0,-1,0,-1,-1,-1c0,0,0,-1,0,-1l-1,0c0,-1,0,-1,-1,-1c0,0,0,-1,-1,-1c-1,0,-1,0,-1,0c0,0,0,-1,0,-1c0,-1,0,-1,0,-1c0,0,0,-1,0,-1c1,0,1,-1,1,-1c0,0,1,0,3,-1c1,-1,2,-1,4,-2c2,0,2,-1,3,-1l1,0l-1,2c0,0,-1,0,-1,0c0,0,-1,0,-2,1c-2,0,-3,1,-4,1c-2,1,-3,1,-3,2l-1,0l2,1l1,0l1,1c1,0,1,1,2,1c0,0,1,1,1,1c1,1,2,1,2,2l2,1l1,0ZM182.5,145.5l4,-2l0,1l-4,2ZM173.5,142.5c0,0,0,-1,1,-1l1,0l0,1l0,1l0,1l1,0l-1,1l-1,-1l0,1l-1,0c0,1,0,1,-1,1l-1,0l1,0l0,-1c0,0,1,0,1,0l1,-1l-1,0c0,-1,0,-1,0,-1c0,-1,0,-1,0,-1ZM174.5,142.5l0,1l0,-1ZM160.5,150.5l1,0c0,0,1,0,1,0c1,0,1,0,1,0c1,0,1,0,1,1c0,0,0,1,-1,1l-1,0c0,1,0,1,0,1c0,0,-1,0,-1,0c-1,0,-1,0,-1,0l2,-1c0,0,1,0,1,-1l-1,0c-1,0,-1,0,-2,0c0,0,0,-1,0,-1ZM241.5,161.5l0,-1l0,-1l-1,-9l1,-2l1,11c0,0,0,1,-1,1c0,0,0,1,0,1ZM240.5,144.5l4,-2l0,1l-1,0l-4,3ZM237.5,158.5c-1,0,-2,1,-3,1c-1,1,-2,1,-3,1c-1,1,-2,1,-3,1l-1,0l-1,0l-1,0l-1,-1c0,1,0,1,-1,2c0,0,-1,-1,-1,-1l-1,0l-1,-1l-1,1c-1,0,-1,0,-1,0l-2,0c-1,0,-1,0,-2,0c0,0,0,-1,-1,-2c0,1,0,1,0,2c-1,0,-1,0,-1,0l-1,0c0,0,-1,0,-1,0c0,0,-1,0,-1,0c0,-1,0,-1,0,-1c0,0,-1,0,-1,1c-1,0,-1,0,-2,0l-2,0c0,0,-1,0,-2,-1c0,0,0,-1,0,-1l-1,-9l1,-2l1,10l0,1c0,0,1,0,1,0l2,0c0,0,1,0,1,0c0,0,1,0,1,0l0,-1c1,0,1,0,1,0l0,-1l0,1c0,1,0,1,1,1c0,0,1,0,1,0c0,0,1,0,1,0c0,0,1,0,1,-1l0,-1c0,-1,0,-1,0,-1l0,-7l0,-2l1,11l0,1l1,0l1,0l2,0l1,0c0,0,0,-1,1,-1c1,-1,2,-2,2,-2l1,1l1,1l0,1l1,0l1,0l1,0l1,0l1,0c1,0,1,0,1,0c0,0,0,-1,-1,-1c0,-1,0,-1,0,-1c0,-1,0,-1,0,-1c0,0,0,-1,1,-1l0,-1c1,0,1,0,1,-1c0,0,1,0,1,0c0,0,1,0,1,0c0,0,1,0,1,0l1,0c0,0,0,1,0,1c1,0,1,0,1,0l0,1l-1,-1l-1,0l-1,0l-1,0c0,0,-1,1,-1,1c-1,0,-1,0,-1,0c0,1,0,1,1,1c0,0,0,1,0,1c1,0,1,1,2,1c0,0,1,0,1,0c1,0,1,-1,1,-1l1,0l1,-1ZM231.5,146.5c1,0,1,0,1,-1c1,0,1,0,2,0c0,0,1,0,1,0c0,1,1,1,1,1c-1,1,-1,1,-1,1c0,1,0,1,-1,1c-1,0,-1,0,-1,0l-1,0l1,0c1,-1,1,-1,2,-1c0,0,-1,0,-1,0c0,-1,0,-1,-1,-1c0,0,-1,1,-1,1l-1,0c0,0,0,-1,0,-1ZM224.5,160.5l-1,-1c0,-1,-1,-1,-1,-2l0,1l-1,0c0,0,0,1,1,1l1,0ZM213.5,142.5c0,0,0,-1,0,-1c0,0,1,0,1,0c1,0,1,0,1,1l0,1c0,0,-1,0,-1,0l1,1l0,1l-1,-1l-1,1c-1,1,-1,1,-1,1l-1,0c0,0,-1,0,-1,0l1,0l1,-1l1,0l0,-1c-1,-1,-1,-1,-1,-1c0,-1,0,-1,1,-1ZM214.5,142.5l-1,0l0,1l1,0l0,-1ZM208.5,157.5l-1,-1l0,-2l2,1ZM205.5,148.5l4,-2l0,1l-4,2ZM263.5,159.5l1,0c1,0,1,0,1,0c0,0,0,-1,0,-1l0,-2l0,-6l0,-1c0,0,0,-1,0,-1c0,0,0,-1,0,-1c1,0,1,0,1,1c-1,0,-1,0,-1,0c0,0,1,0,1,0c0,1,0,1,1,1c0,0,-1,1,-1,1l0,1c0,0,0,1,0,2c0,0,0,1,0,2c0,1,0,1,0,2l0,1c0,1,0,1,0,1c0,1,0,1,0,1c-1,0,-1,0,-1,0c0,1,0,1,0,1c-1,0,-1,0,-1,0c0,0,-1,0,-1,0l-1,0c-1,0,-1,0,-1,0c0,0,-1,0,-1,0l0,-1l-1,0c0,0,-1,0,-1,0c0,1,0,1,-1,1l-1,0l-1,0l-1,0c-1,0,-1,0,-2,-1c0,0,0,-1,0,-1l-1,-9l1,-2l1,10l0,1c0,0,1,0,1,0l1,0l1,0c0,0,1,0,1,0c0,0,1,0,2,0l0,-1l1,0c0,1,0,1,0,1c0,0,1,0,1,0l1,0l1,0ZM264.5,145.5l4,-2l0,1c-1,0,-1,0,-1,0l-4,2ZM259.5,157.5l-2,-1l1,-2l2,1ZM257.5,151.5l4,-2l-1,1l-4,2ZM249.5,145.5l1,0l1,0c1,0,1,0,2,0l1,0c0,1,0,1,-1,1l-1,0l-1,0l-1,0l-1,0c0,0,-1,0,-1,0c0,0,1,-1,1,-1ZM319.5,157.5c0,0,-1,0,-1,0c0,0,0,1,0,1l1,0c0,0,0,-1,0,-1ZM319.5,165.5c0,0,-1,0,-1,0c0,0,0,1,-1,1c0,0,-1,0,-1,0l-1,0c0,0,-1,0,-1,-1c0,0,-1,0,-1,0c0,0,1,0,1,0c1,0,1,0,1,0c1,0,1,0,1,0c1,-1,1,-1,1,-1c1,0,1,0,1,-1c1,0,1,0,1,0c0,-1,0,-1,1,-2c0,0,0,-1,0,-1c0,0,-1,0,-1,0c-1,0,-1,0,-1,0c0,0,-1,0,-1,0c0,0,0,-1,0,-1c0,0,0,-1,0,-1l0,-1l1,-1l0,-1c1,0,1,0,1,0c0,0,1,0,1,0c0,0,0,1,0,1c0,0,1,1,1,1c0,0,0,1,0,1c0,0,0,1,0,1c0,1,0,1,0,1c0,1,0,2,-1,3c0,0,0,1,0,1c-1,0,-1,1,-1,1ZM316.5,151.5l4,-2l0,1l-5,2ZM306.5,164.5l1,0c1,0,2,0,3,0c0,-1,1,-1,1,-1c1,-1,1,-1,1,-2c0,0,1,-1,1,-1l0,-1l-1,-1l0,-1l0,-1l0,-1l1,1c0,0,0,1,0,1l0,1l0,1c0,1,0,1,0,2c0,1,0,1,0,1c0,1,-1,1,-1,1c0,0,0,1,-1,1l0,1l-1,0l-1,0l-1,0c-1,0,-1,0,-1,0c-1,0,-1,0,-1,0ZM308.5,151.5l4,-2l0,1l-4,2ZM305.5,165.5l-2,-1l1,-1l2,0ZM302.5,161.5l-1,0c-1,0,-1,0,-2,0c0,0,0,-1,-1,-1l-2,-2c0,-1,-1,-1,-1,-1l0,1l0,1l-1,0c0,1,0,1,0,1c0,0,-1,1,-1,1l-1,0l-1,0l-1,0l-2,0c-1,0,-1,0,-1,0c-1,0,-1,0,-1,-1l0,1l0,1l0,1l-1,0l-1,0c0,-1,0,-2,0,-2l0,-1c-1,0,-1,0,-2,0l0,1c-1,0,-1,0,-1,0l0,1l0,1l0,1l1,2l0,2c0,1,0,1,0,2l0,1l0,-1l0,-1l-1,0l0,-1l0,-3l0,-1l0,-1l0,-1l0,-1c0,-1,0,-1,1,-2l1,-1l1,0l0,-1c1,1,2,1,3,2l1,0l1,0l1,0l1,0c1,0,1,0,1,0c0,0,1,0,1,0c1,0,1,0,1,0c0,-1,0,-1,0,-1c0,-1,0,-1,0,-1c0,0,0,-1,0,-1c-1,0,-1,0,-1,0c0,-1,-1,-1,-1,-1c-1,0,-1,-1,-1,-1c-1,0,-1,0,-1,0l-1,0c0,0,0,-1,0,-1c0,-1,0,-1,0,-1c0,0,0,-1,0,-1c0,0,1,0,1,0c0,0,0,-1,0,-1c1,0,2,0,3,-1c1,-1,3,-1,5,-2c1,0,2,-1,2,-1l1,0l-1,2c-1,0,-2,0,-3,1c-1,0,-3,1,-4,1c-1,1,-2,1,-3,2l1,1c0,0,1,0,1,0l1,0l0,1c1,0,2,1,2,1c1,0,1,1,2,1c0,1,1,1,2,2l1,1l1,0l1,0c1,0,1,0,2,0c0,0,1,0,1,0l0,-1c0,-1,0,-1,0,-1l-1,0l0,-1l1,-1l0,1l1,0l0,1l0,1l0,1c-1,1,-1,1,-1,1c0,0,-1,1,-1,1c-1,0,-1,0,-2,0ZM301.5,150.5l0,1c0,0,0,-1,1,-1l0,-1l0,1c1,0,1,0,1,0l0,-1l1,-1l0,1l0,1l0,1c0,0,-1,0,-1,0l-1,0c-1,1,-1,1,-1,1c0,0,-1,0,-1,0c0,0,0,-1,0,-1l0,-1ZM302.5,145.5c0,-1,0,-1,0,-1c1,-1,1,-1,1,-1c1,0,1,0,1,0c0,1,0,1,0,1c0,1,0,1,0,1l0,1l0,1l-1,0l-1,1c0,0,0,1,-1,1c0,0,-1,0,-1,0c1,-1,2,-1,2,-2l0,-1l0,-1ZM303.5,145.5c-1,0,-1,0,-1,0l1,0l0,1l0,-1ZM294.5,142.5c0,0,0,-1,0,-1c0,0,1,0,1,0c1,0,1,0,1,1l0,1c-1,0,-1,0,-1,0l1,1l0,1l-1,-1l-1,1c-1,1,-1,1,-1,1l-1,0c-1,0,-1,0,-1,0l1,0l1,-1l1,0l0,-1c-1,-1,-1,-1,-1,-1c0,-1,0,-1,1,-1ZM295.5,142.5l-1,0l0,1l1,0l0,-1ZM280.5,150.5c0,0,1,0,1,0c1,0,1,0,2,0c0,0,1,0,1,0l0,1c0,0,0,1,0,1c0,0,-1,0,-1,0c0,1,0,1,-1,1l-1,0l-1,0l2,-1c1,0,1,0,2,-1c-1,0,-1,0,-1,0c0,0,-1,0,-1,0c0,0,-1,0,-1,0c0,0,-1,0,-1,0c0,0,0,-1,0,-1ZM346.5,164.5l1,0c1,0,2,0,3,0c0,-1,1,-1,1,-1c1,-1,1,-1,1,-2c0,0,1,-1,1,-1l0,-1l-1,-1l0,-1l0,-1l0,-1l1,1c0,0,0,1,0,1l0,1l1,1c0,1,-1,1,-1,2c0,1,0,1,0,1c0,1,-1,1,-1,1c0,0,0,1,0,1c-1,0,-1,0,-1,1l-1,0l-1,0l-1,0c-1,0,-1,0,-1,0c-1,0,-1,0,-1,0ZM348.5,151.5l4,-2l0,1l-4,2ZM345.5,165.5l-2,-1l1,-1l1,0ZM342.5,161.5l-1,0l-1,0l-1,0l0,-1c-1,0,-1,0,-1,0l-1,0c0,1,-1,1,-1,1c-1,0,-1,0,-1,0l-1,0l-1,0c-1,0,-2,0,-2,-1c-1,0,-1,-1,-1,-1l-1,-9l1,-2l1,10l0,1c1,0,1,0,2,0l1,0c1,0,1,0,1,0c1,0,2,0,2,0l1,-1c1,0,1,0,1,0c0,1,0,1,0,1c1,0,1,0,1,0l1,0l1,0c1,0,1,0,2,0c0,0,1,0,1,0l0,-1c-1,-1,-1,-1,-1,-1l0,-1l1,-1l0,1l0,1l1,0l0,1l0,1c0,0,-1,0,-1,0c0,1,0,1,0,1c0,0,-1,1,-1,1c-1,0,-1,0,-2,0ZM340.5,150.5l0,1c0,0,1,0,1,0c0,0,0,-1,0,-1l1,-1l0,1l1,0l0,-1l0,-1l0,1l0,1l0,1l-1,0l-1,0c0,1,0,1,0,1c-1,0,-1,0,-1,0c0,0,0,-1,0,-1l0,-1ZM342.5,145.5c0,-1,0,-1,0,-1c0,-1,1,-1,1,-1c1,1,1,1,1,1c0,1,0,1,0,1l0,1c0,0,-1,0,-1,0l1,0l0,1l-1,0l-1,1c0,0,-1,1,-1,1c0,0,-1,0,-1,0c0,0,-1,0,-1,0c1,-1,2,-1,3,-2l0,-1c-1,0,-1,0,-1,0l0,-1l1,0ZM343.5,145.5l-1,0l0,1l1,0l0,-1ZM337.5,157.5l-1,-1l1,-2l1,1ZM335.5,151.5l4,-2l0,1l-4,2ZM378.5,161.5l0,-1l0,-1l-1,-9l1,-2l1,11c-1,0,-1,1,-1,1c0,0,0,1,0,1ZM373.5,161.5c-1,0,-1,0,-2,-1c0,0,-1,-1,-1,-1c0,0,0,1,0,1c-1,1,-2,1,-2,1c-1,0,-1,0,-2,0c0,-1,0,-2,-1,-3l0,1c0,0,0,1,-1,1l-1,0c-1,0,-1,0,-1,0c-1,0,-1,0,-1,-1c0,-1,0,-1,0,-1c1,-1,1,-1,1,-1c1,0,1,-1,2,-1l1,-1l0,-1c0,-1,1,-1,1,-1l0,1l0,1l0,3c0,0,1,1,1,1l1,0c0,0,1,0,1,0c0,-1,1,-1,1,-1c0,-1,0,-2,0,-3c0,0,-1,-1,-1,-1c0,0,0,-1,0,-1l0,-1l1,0l0,-1l0,2l1,2l0,2c0,1,0,1,0,1c0,0,1,0,1,1l1,0c0,0,1,0,1,0c0,-1,0,-1,0,-1c0,0,0,-1,0,-1l-1,-2l0,-1l0,-1c0,0,0,-1,0,-1l0,-1c0,1,0,1,1,1c0,1,0,1,0,2l0,2c0,0,1,1,1,1c0,1,-1,2,-1,2c0,1,0,1,0,1c-1,0,-1,0,-1,1ZM365.5,156.5c-1,0,-1,1,-1,1l-1,0c0,0,0,1,-1,1c1,0,2,0,3,0l0,-1ZM97.5,201.5l1,0l0,1c0,-1,0,-1,0,-1l-1,0ZM99.5,199.5l1,-1l-1,0c0,0,-1,0,-1,0l-1,0c-1,0,-1,0,-1,0l0,1c0,0,0,-1,0,-1c0,0,1,0,1,0c0,1,-1,1,-1,2c-1,0,-1,1,-1,2c0,0,1,1,1,1c1,1,1,1,2,1c1,0,1,0,1,0l1,0l1,-1c-1,0,-2,0,-2,0c-1,0,-2,0,-3,-1l0,-1c0,0,0,-1,0,-1c1,-1,1,-1,2,-1l1,0ZM214.5,202.5c0,0,0,-1,0,-1l-1,0l-1,1l-1,0l1,0l0,-1l-1,-1l0,-1l1,0l-1,-1c0,1,0,1,0,1l0,2l0,1c0,0,0,1,0,1l-1,0c0,0,-1,0,-1,0l1,1l1,0c1,0,1,-1,2,-1c0,0,1,0,1,0l0,-1ZM213.5,202.5c0,0,1,0,1,0c0,0,-1,1,-1,1l-1,0c-1,0,-1,0,-1,0l1,0l0,-1l1,0ZM206.5,189.5l-5,3c0,-1,0,-1,0,-2l6,-2ZM188.5,197.5c0,0,0,-1,0,-1c0,0,1,0,1,0c1,0,1,0,1,1l0,1c-1,0,-1,0,-1,0l1,1l0,1l-1,0l-1,0c-1,1,-1,1,-1,1l-1,0c-1,0,-1,0,-1,0l1,0l1,-1l1,0l0,-1c-1,-1,-1,-1,-1,-1c0,0,0,-1,1,-1ZM189.5,197.5l-1,0l0,1l1,0l0,-1ZM132.5,211.5l-1,-1l1,-1l1,1ZM130.5,208.5l-1,0l-1,0l-1,-1c-1,0,-1,0,-1,0c0,-1,0,-1,0,-1c0,1,0,1,-1,1c0,0,-1,0,-1,1l-1,0c0,0,-1,0,-1,-1c0,0,-1,0,-1,0l0,-1c-1,0,-1,1,-2,1c0,0,0,1,-1,1l-1,0c-1,0,-1,0,-1,-1c0,0,-1,0,-1,0c0,-1,0,-1,0,-1c0,0,-1,0,-1,0c0,0,-1,1,-1,1l-1,0l-1,1l-1,0l-1,0c-1,0,-1,-1,-2,-1c0,-1,0,-1,0,-2l-1,-8l1,-3l1,10l0,1c0,1,1,1,1,1l1,0l1,0c0,0,1,0,1,0c0,0,1,0,2,-1l1,0c0,0,0,1,1,1l1,0l1,0c0,0,1,0,1,0c0,0,1,0,1,-1c0,0,1,-1,1,-1l0,1l1,1l1,0c1,0,1,0,2,0c1,-1,1,-1,1,-1c0,0,0,-1,0,-1c0,-1,0,-1,0,-1l0,-1l1,-1l0,2c0,1,0,1,0,1c0,0,0,1,0,1c0,0,0,1,1,1l1,0l1,0c0,0,1,0,1,0c1,0,1,-1,1,-1c0,-1,0,-1,0,-1l0,-1l-1,0l1,-2c0,0,0,1,1,1l0,1l0,1l0,1c0,1,0,1,0,1l-1,0c0,1,0,1,-1,1c0,0,-1,1,-1,1ZM130.5,194.5l4,-2l-1,1l-4,2ZM128.5,212.5l-2,-1l-1,1l-1,-1l1,-1l1,1l1,-2l1,1ZM123.5,193.5c1,0,1,0,1,0c1,0,1,0,2,0c0,0,1,0,1,0c0,0,1,0,1,0c0,0,0,1,0,1c-1,0,-1,0,-1,1l-1,0l-1,0c0,1,0,1,0,1l-1,0l0,-1l1,0c1,0,1,-1,2,-1c0,0,-1,0,-1,0c0,0,-1,0,-1,0c0,0,-1,0,-1,0c0,0,-1,0,-1,0c0,-1,0,-1,0,-1ZM120.5,203.5l-2,-1l1,-1l2,1ZM117.5,195.5l4,-2l0,1l-5,2ZM114.5,203.5l-2,-1l1,-1l2,1ZM112.5,198.5l4,-2l-1,0c0,1,0,1,0,1l-4,2ZM178.5,201.5l-2,-1l-1,1l-1,0l1,-2l1,1l1,-1l2,1ZM171.5,198.5c0,0,1,0,1,0l0,1c1,0,1,0,1,1c0,0,0,-1,0,-1l0,-1c0,0,0,-1,0,-1c0,0,-1,0,-1,-1l-1,0c0,0,0,1,0,1c0,1,0,1,0,1c-1,0,-1,0,-1,1c0,0,-1,0,-1,0c0,1,-1,1,-1,1c0,0,0,1,-1,1c-1,0,-1,0,-1,1c0,0,-1,0,-1,0c0,1,0,1,-1,2l1,0l0,-1l1,0l1,0l0,1l1,0l1,0l1,1l-1,0l-1,0l-1,0c0,1,0,1,-1,1l-1,0l-1,0l-1,0l-1,0l-1,0l-1,-1l-1,-1l-1,0l0,-1l0,-1c-1,0,-2,1,-3,2c0,1,-1,1,-1,1l0,1c0,0,-1,0,-1,0l-1,0l-1,0c-1,0,-1,0,-2,0c0,-1,-1,-1,-1,-1c0,0,-1,0,-1,0l1,-1l1,-1c0,0,0,-1,0,-1c0,0,-1,0,-1,0c0,0,0,-1,0,-1l-1,0l-1,0l-1,0c0,0,-1,0,-1,1l-1,1c0,0,1,0,1,0c0,1,0,1,1,1l-1,1c0,0,0,1,0,1c-1,0,-1,0,-1,1c-1,0,-1,1,-1,1l-1,1l0,1c0,0,0,1,0,2l0,1c0,1,0,1,0,1c0,1,1,1,1,2c1,0,1,1,2,1c0,0,1,0,1,1c1,0,1,0,2,0c0,0,1,0,1,0c1,0,1,0,2,0l4,-2l-1,0l-1,0l-1,0c0,0,-1,0,-2,0c-1,0,-1,0,-1,0c0,0,-1,0,-1,0l-1,0l-1,0c0,-1,0,-1,0,-1l-1,0l-1,-1c0,0,-1,-1,-1,-1c0,-1,0,-1,0,-1c0,0,0,-1,0,-1c0,-1,0,-1,0,-2c0,0,1,-1,1,-2c1,0,1,0,1,0c0,-1,0,-1,1,-1l1,-1c0,0,1,1,1,1c1,1,1,1,1,1c1,0,1,0,1,0c1,0,1,1,2,1l1,0l1,0c0,0,1,-1,1,-1l1,-1l1,1l1,1c1,0,1,0,1,0l1,0c0,0,0,-1,1,-1c1,0,1,1,2,1l1,0l1,0l0,-1l1,0l1,0c1,0,1,0,1,0l2,-1c0,0,1,0,1,0l1,-1c1,0,1,0,1,0l1,0l2,0l1,-1l-1,0c-1,0,-1,0,-1,0c-1,0,-1,0,-2,0c0,-1,-1,-1,-1,-1l-2,-1l-1,0c0,-1,1,-1,1,-1l0,-1c1,0,1,0,1,-1c1,0,1,0,1,-1ZM169.5,191.5l4,-2l0,1c0,0,-1,0,-1,0l-4,2ZM168.5,211.5l-2,-1l1,-1l1,1ZM163.5,190.5c0,-1,1,-1,1,-1c0,0,1,0,1,0c1,0,1,0,2,0c0,0,0,1,0,1c0,0,0,1,0,1c-1,0,-1,0,-1,1c0,0,-1,0,-1,0l-1,0c0,0,-1,0,-1,0l2,-1c1,0,1,0,1,0c0,-1,0,-1,0,-1c-1,0,-1,0,-1,0c-1,0,-1,0,-1,0c-1,0,-1,1,-1,1l0,-1ZM159.5,206.5l-1,-1c0,0,0,-1,0,-1c-1,0,-1,0,-1,0l-1,1c0,0,1,0,1,0l1,1ZM155.5,194.5l4,-2l0,1l-5,2ZM146.5,192.5c0,-1,0,-1,0,-1c1,0,1,-1,1,-1c0,1,1,1,1,1l0,1l0,1l0,1l0,1l-1,-1l0,1l-1,0c0,1,-1,1,-1,1l-1,0l1,-1l1,0l0,-1l0,-1l0,-1ZM147.5,192.5c-1,0,-1,0,-1,0l1,0l0,1l0,-1ZM204.5,208.5l0,-2l0,-1l-1,-8l1,-3l1,11c0,0,0,1,0,1c-1,0,-1,0,-1,0c0,1,0,1,0,2ZM199.5,207.5c-1,0,-1,0,-2,0c0,-1,-1,-1,-1,-2c0,1,0,1,0,2c-1,0,-2,1,-2,1c-1,0,-1,-1,-2,-1c0,-1,0,-1,-1,-2c0,1,0,1,-1,1l-1,0c-1,0,-1,0,-1,0c-1,0,-1,0,-1,0c0,0,0,-1,0,-1l0,-1c1,0,1,0,1,-1c1,0,1,0,2,-1l1,0l0,-1l0,-1c0,0,1,0,1,-1l0,1l0,1l0,3l0,1c0,0,1,0,1,0c0,0,0,1,1,1c0,0,1,-1,1,-1c0,0,1,0,1,-1c0,0,0,-1,0,-2c0,-1,0,-1,-1,-2c0,-1,0,-1,0,-1l1,-1l0,-1l0,3l1,2l0,1c0,1,0,1,0,1c0,1,1,1,1,1l1,0c0,0,1,0,1,0l0,-1l0,-1l-1,-1l0,-1l0,-1l0,-1l0,-1c0,0,1,0,1,1c0,0,0,1,0,1l0,2c0,1,1,1,1,2c0,0,-1,1,-1,2l0,1c-1,0,-1,0,-1,0ZM191.5,202.5l0,1c-1,0,-1,0,-1,0c-1,1,-1,1,-1,1c0,0,1,0,2,0ZM265.5,204.5c0,0,-1,0,-1,0c0,1,0,1,1,1c0,-1,0,-1,0,-1ZM265.5,211.5c0,0,-1,1,-1,1c-1,0,-2,0,-2,0l-1,0l-1,0c0,0,-1,0,-1,-1c0,0,1,0,1,0l1,0c1,0,1,0,1,0c1,0,1,0,1,0c1,-1,1,-1,1,-1c1,0,1,-1,1,-1c0,0,0,-1,1,-1c0,-1,0,-1,0,-1c0,-1,0,-1,0,-1l0,1c-1,0,-1,0,-1,0c0,0,-1,0,-1,0l0,-1l-1,0c0,0,0,-1,0,-1c0,0,0,-1,0,-1c0,-1,1,-1,1,-1c0,-1,0,-1,0,-1c1,0,1,0,1,0c0,0,1,0,1,0l0,1c1,0,1,0,1,0c0,1,0,1,0,1c0,1,0,1,0,2c0,0,0,1,0,1c0,1,0,2,-1,2c0,1,0,1,0,1c-1,1,-1,1,-1,1ZM262.5,198.5l4,-2c0,1,0,1,0,1l-4,2ZM258.5,211.5l-1,-1l1,-1l1,1ZM256.5,208.5l-1,0l-1,0l0,-1c-1,0,-1,0,-1,0l-1,0c0,-1,0,-1,0,-1c0,1,0,1,-1,1c0,0,0,1,-1,1l-1,0c-1,0,-1,0,-1,-1c-1,0,-1,0,-1,0l-1,0c0,-1,0,-1,0,-1c-1,0,-1,1,-1,1c0,0,-1,0,-1,0c0,0,-1,0,-1,1l-1,0c-1,0,-1,-1,-2,-1l-1,-1l-2,-2c0,0,-1,0,-1,-1l0,1l0,1c-1,0,-1,0,-1,1l0,1c0,0,-1,0,-1,0l-1,0l-1,1l-1,0l-2,0c-1,0,-1,-1,-1,-1c-1,0,-1,0,-1,0l0,1l0,1c0,1,0,1,-1,1l-1,-1c0,-1,0,-1,0,-2l-1,-1c0,1,0,1,-1,1c-1,0,-1,0,-1,1l0,1l0,1l1,3l0,1c0,1,0,2,0,2l0,1l-1,-1l0,-1l0,-1l0,-2l0,-2l-1,-1l0,-1l1,0l0,-1c0,0,0,-1,0,-1l1,0l0,-1l1,0l0,-1l1,0c1,0,1,1,2,1l2,1l1,0l1,0l1,0c1,0,1,0,1,0c0,0,1,0,1,0c0,-1,0,-1,0,-1c1,0,1,0,1,0c0,-1,0,-1,0,-1l0,-1l-1,0c0,-1,0,-1,0,-1c-1,0,-1,0,-1,-1c-1,0,-1,0,-1,0c0,0,-1,0,-1,0c0,0,0,-1,-1,-1c0,-1,0,-1,0,-1l0,-1c0,0,0,-1,1,-1c1,-1,2,-1,3,-2c1,0,3,-1,4,-1c2,-1,3,-1,3,-1c1,0,1,0,1,0l-1,1c-1,0,-2,1,-3,1c-1,1,-3,1,-4,2c-2,0,-2,1,-3,1l0,1l1,0c0,0,1,0,1,1l1,0c1,1,2,1,2,2c1,0,1,0,2,1c0,0,1,1,1,1l2,2l1,0c1,0,1,0,2,0c0,0,1,0,1,-1c0,0,1,0,1,0l1,0c0,0,0,1,0,1c1,0,1,0,2,0c1,0,1,0,2,0c0,0,1,0,1,0c0,-1,0,-1,0,-1c0,0,0,-1,0,-1c0,-1,0,-1,0,-1l0,-1c0,0,1,0,1,-1l0,2c0,1,0,1,0,1c0,0,0,1,0,1c0,0,1,1,1,1l1,0l1,0c0,0,1,0,1,0c1,0,1,-1,1,-1l1,0c0,-1,-1,-1,-1,-1l0,-1l1,-2c0,0,0,1,0,1l0,1l0,1l0,1c0,1,0,1,0,1c-1,1,-1,1,-2,1c0,0,-1,1,-1,1ZM256.5,194.5l4,-2l0,1l-5,2ZM254.5,212.5l-2,-1l0,1l-2,-1l1,-1l2,1l0,-2l2,1ZM250.5,193.5l1,0l1,0c0,0,1,0,1,0c1,0,1,0,1,0c0,0,0,1,0,1c0,0,-1,0,-1,1c-1,0,-1,0,-1,0c-1,1,-1,1,-1,1l-1,0l0,-1l1,0c1,0,2,-1,2,-1c0,0,-1,0,-1,0l-1,0l-1,0l-1,0c0,-1,1,-1,1,-1ZM245.5,203.5l-1,-1l1,-1l1,1ZM243.5,198.5l5,-2l-1,0c0,1,0,1,0,1l-4,2ZM234.5,188.5c1,0,1,0,1,-1c0,0,1,0,1,0c1,0,1,1,1,1c0,0,0,1,0,1l-1,0c0,1,0,1,0,1l1,0l0,1l-1,0l-1,0l0,1c-1,0,-1,0,-1,0l0,1l-1,0l-1,0l1,-1l1,0l0,-1l1,0l0,-1c-1,0,-1,0,-1,-1l0,-1ZM236.5,189.5l-1,-1l0,1l1,0ZM224.5,192.5c0,-1,0,-1,1,-1c0,0,0,-1,0,-1l1,0c0,1,0,1,0,1l0,1l0,1l0,1l0,1l-1,-1l0,1l-1,0c0,1,0,1,-1,1l-1,0l1,0l0,-1c0,0,1,0,1,0l0,-1l1,0l-1,0l0,-1l0,-1ZM225.5,192.5l0,1l0,-1ZM302.5,211.5l-2,-1l1,-1l2,1ZM299.5,208.5l-1,0c-1,0,-1,0,-1,-1c0,0,-1,0,-1,0c0,-1,0,-1,0,-1c0,1,-1,1,-1,1c-1,0,-1,0,-2,1l-1,0l0,-1c-1,0,-1,0,-1,0c0,0,-1,0,-1,-1c0,0,0,1,-1,1c0,0,-1,1,-1,1l-1,0l-1,0l0,-1c-1,0,-1,0,-1,0c0,0,-1,0,-1,0c0,-1,0,-1,0,-1c0,0,-1,0,-1,0c0,0,0,1,0,1c0,0,-1,0,-1,0c0,0,-1,0,-1,1l-1,0l-1,0c-1,0,-2,-1,-2,-1c-1,-1,-1,-1,-1,-2l0,-8l1,-3l0,10l0,1c1,1,1,1,2,1l1,0c1,0,1,0,2,0c0,0,1,0,1,-1c0,0,1,0,1,0c0,0,1,0,1,0c0,0,0,1,0,1c1,0,1,0,1,0l1,0l1,0l1,0l0,-1c1,0,1,0,1,0c0,0,0,-1,0,-1l1,0l0,1l-1,0c1,0,1,0,1,1c1,0,1,0,1,0l1,0c0,0,1,0,1,0c1,0,1,0,1,0c0,-1,0,-1,0,-1c0,0,0,-1,0,-1c0,-1,0,-1,0,-1l1,-1l0,-1l0,2c0,1,0,1,0,1c0,0,0,1,1,1c0,0,0,1,0,1c1,0,1,0,1,0l1,0c1,0,1,0,2,0c0,0,1,-1,1,-1c0,-1,0,-1,0,-1c0,0,-1,0,-1,-1l1,-2c0,0,0,1,0,1l0,1l1,0l0,1l0,1c-1,1,-1,1,-1,1c0,1,-1,1,-1,1c-1,0,-1,1,-2,1ZM299.5,194.5l4,-2l0,1l-4,2ZM297.5,212.5l-1,-1l-1,1l-1,-1l0,-1l2,1l1,-2l1,1ZM293.5,193.5l1,0c0,0,1,0,1,0c1,0,1,0,2,0c0,0,0,1,0,1l0,1c-1,0,-1,0,-1,0c-1,0,-1,0,-1,0c0,1,-1,1,-1,1c0,0,-1,0,-1,-1l2,0c0,0,1,-1,1,-1c-1,0,-1,0,-1,0c-1,0,-1,0,-1,0c-1,0,-1,0,-1,0c0,-1,0,-1,0,-1ZM289.5,203.5l-1,-1l1,-1l1,1ZM286.5,195.5l5,-2l-1,0l0,1l-4,2ZM283.5,203.5l-1,-1l1,-1l1,1ZM281.5,198.5l4,-2c0,1,0,1,0,1l-4,2ZM345.5,205.5l-1,0l-1,0c-1,0,-1,0,-2,0l-1,0l-1,0l0,1l-1,0c-1,0,-1,1,-2,1l-1,0c-1,0,-1,1,-2,1l-1,0l-2,0c-1,0,-2,-1,-2,-1c-1,0,-1,-1,-1,-1c0,0,0,-1,0,-1c-1,0,-1,0,-1,0l-5,2c0,0,-1,0,-1,0c0,0,-1,0,-1,0l-1,1c-1,0,-1,-1,-2,-1l-1,0c0,0,0,-1,0,-1c0,-1,0,-1,0,-1l-1,0c0,0,0,1,0,1l-1,0l-1,0c0,0,-1,0,-1,0l-1,0l0,-2c1,0,1,0,2,-1c0,0,0,-1,1,-1c1,-1,1,-1,1,-1l0,-1l1,-1l0,1c0,1,0,1,0,1c0,1,0,1,0,2l1,2l0,1c0,0,1,0,1,0l1,0l1,0c1,0,1,0,2,0c0,-1,1,-1,1,-1l1,0l1,-1l-1,0c-1,-1,-2,-1,-3,-1l-1,0l0,-1l1,0c0,-1,1,-1,1,-1l1,0c0,0,1,1,1,1c1,0,2,1,4,1c0,0,1,0,1,0c1,0,2,0,2,0l1,0l-1,2l-1,0l-1,0l1,1l1,0l2,0l1,0c0,0,1,0,1,0c0,0,1,0,1,-1c1,0,1,0,2,0l1,0l1,-1l-1,0l-1,-1l-1,0l-1,0l-1,0c0,0,0,-1,0,-1c0,0,1,0,1,-1c0,0,1,0,1,0c1,0,1,0,1,0c0,0,0,1,0,1l1,0l2,1l1,0l1,0l1,0c0,0,1,0,1,0l1,0ZM336.5,192.5c0,-1,0,-1,0,-1c0,0,1,-1,1,-1c0,1,0,1,0,1c1,0,1,0,1,1l0,1c0,0,-1,0,-1,0l1,1l0,1l-1,-1l-1,1c0,1,-1,1,-1,1l-1,0c0,0,-1,0,-1,0l1,0l1,-1l1,-1l0,-1c-1,0,-1,0,-1,0l0,-1l1,0ZM337.5,192.5l-1,0l0,1l1,0l0,-1ZM323.5,211.5l-1,-1l1,-1l1,1ZM322.5,190.5l0,1c1,0,1,0,1,0l0,-1l0,-1l1,0l0,1c0,0,1,0,1,0l0,-1l0,1l0,1l-1,0l-1,0l0,1c0,0,-1,0,-1,0l0,-1l0,-1ZM326.5,187.5l-6,3c1,-1,1,-1,1,-2l6,-2ZM314.5,198.5l-2,-1l0,2l-2,-1l1,-2l2,1l0,-1l2,1ZM314.5,202.5l-1,1c-1,1,-1,1,-1,1l1,0l1,0l1,0ZM311.5,191.5l4,-2l0,1l-4,2ZM356.5,206.5l-1,0c0,1,0,1,0,1c1,0,1,0,1,0c0,0,0,-1,0,-1ZM357.5,209.5c0,0,-1,0,-1,0c-1,0,-1,0,-1,0c-1,0,-1,0,-2,0c0,0,-1,0,-1,0c0,0,0,-1,0,-1c0,0,0,-1,0,-1c1,0,1,0,1,0c0,0,1,0,1,0c0,0,0,-1,0,-1c1,0,1,0,1,0c0,-1,0,-1,0,-1c0,0,0,-1,0,-1c0,0,-1,0,-1,-1c0,0,-1,-1,-1,-1c-1,-1,-1,-1,-2,-2c-1,-1,-1,-1,-1,-1c-1,0,-1,0,-1,0c-1,0,-1,-1,-1,-1l0,-1c0,-1,0,-1,0,-1l0,-1c1,1,1,1,2,1c0,1,1,1,1,2c1,0,2,1,2,2c1,0,1,1,2,2c0,0,0,1,0,1c1,0,1,1,1,1c0,0,0,-1,0,-1c0,-1,1,-2,1,-2c0,-1,0,-2,0,-2c0,0,0,-1,0,-1c0,-1,0,-1,0,-2c-1,0,-1,0,-1,0c0,-1,1,-1,1,-2c0,0,0,1,0,1c1,0,1,0,1,0l1,0c0,1,-1,1,-1,1c0,1,0,1,0,1l0,1c0,0,0,1,0,1c0,1,0,1,0,1c0,1,0,1,-1,2c0,0,0,1,0,1c0,1,0,1,0,2c0,0,0,1,0,1c0,1,0,1,0,1c0,1,0,1,0,1l0,1ZM353.5,192.5l6,-3c0,0,-1,1,-1,1l-5,3ZM195.5,190.5c0,-1,0,-1,-1,-2c0,0,0,-1,0,-1l0,-1l1,0l0,1l0,1c0,1,0,1,0,1l0,1ZM193.5,192.5l0,1l1,1c1,0,1,-1,1,-1l0,-1l1,0l0,1c1,0,1,0,1,-1l0,-1l0,1l0,1c0,1,0,1,0,1l-1,0l-1,0l0,1c-1,0,-1,0,-1,0c-1,0,-1,0,-1,0l0,-1l0,-1ZM368.5,143.5l0,-1c0,0,0,-1,0,-1c0,-1,0,-1,-1,-2l1,0l0,-1c0,0,0,1,0,1c0,1,1,1,1,1l0,1c0,0,0,1,0,1c-1,0,-1,1,-1,1Z" class="g1_74" />
<path fill-rule="evenodd" d="M312.5,448.5l0,-1l0,-1l-1,-8l1,-3l1,11c0,1,0,1,-1,1c0,1,0,1,0,1ZM128.5,428.5l1,0c0,-1,0,-1,0,-1l-1,0ZM130.5,425.5l1,-1l-1,0c-1,0,-1,0,-1,0l-1,0l-1,0c0,0,0,1,0,1l-1,0l1,0c0,0,1,0,1,0c0,0,-1,1,-1,1c-1,1,-1,1,-1,2c0,1,1,1,1,2c1,0,1,0,2,0c1,0,1,0,1,0l1,0l1,0c-1,0,-2,0,-2,0c-1,0,-2,-1,-3,-1c0,0,0,-1,0,-1c0,-1,0,-1,0,-2c1,0,1,0,2,-1l1,0ZM141.5,446.5c0,1,0,1,0,2l0,1l-1,0c0,0,0,1,0,1l1,0l0,1l-1,0l-1,0c0,0,0,1,0,1l-1,0c0,1,0,1,-1,1l-1,1l-1,0c0,0,-1,0,-1,0l-1,1l0,1c0,0,-1,0,-1,0l-1,0l-1,0l-3,0l-1,0c-1,0,-1,0,-1,0l-1,-1c0,-1,0,-1,-1,-1c-1,0,-1,-1,-2,-1l-1,0l0,-1l-1,0l-1,-1l-1,0l0,-1l1,0l0,-1l-1,-1l0,-1l0,-1l0,-1l0,-1l0,-1c0,0,0,-1,1,-1l-1,-1l1,0l0,-1l1,0l0,-1l1,0l0,-1l2,0l1,-1l1,0l1,-1c0,0,0,-1,1,-1l1,0l3,0l1,0l1,0l1,1l1,1l1,0l1,1l1,0c1,1,1,1,1,1l1,0l0,1c1,0,2,1,2,1l-1,1l1,1l0,1l0,1ZM132.5,456.5l1,-1l1,-1l1,0c0,0,0,-1,1,-1l1,0c0,0,1,-1,1,-1l1,0c0,-1,0,-1,0,-1l1,0l0,-1l1,0l-2,0l1,-1l0,-1l1,0l0,-1l0,-1c0,-1,0,-2,0,-2c0,-1,0,-1,-1,-1c0,-1,0,-1,0,-1l-1,0l1,-1l1,0c-1,0,-1,-1,-2,-1l-1,-1l-1,0l-1,-1l-2,0c0,0,0,-1,0,-1l-1,-1c-1,0,-1,0,-1,0l-1,0l-1,0l-3,0l-1,0l-1,0l-1,1c0,0,0,1,-1,1l-1,0l-1,1l-1,0l-1,0l0,1c-1,0,-1,1,-2,1l1,0l1,1l-1,0l0,1l-1,0l0,1l0,1l0,1l0,1l0,1l1,0c0,1,0,1,0,1l1,1l-1,0l-1,0l1,1l1,0l0,1l1,0l0,1l1,0l1,0l1,1c1,0,1,0,1,0l1,1c0,1,1,1,1,1l1,0l3,0l1,0ZM138.5,441.5l-1,0l-1,-1l-1,0l-1,0c1,0,1,-1,1,-1l1,0l0,1c1,0,1,0,1,0l1,0l0,1ZM138.5,451.5l-1,0l0,1l-1,0l-1,1l0,-1l1,0l0,-1c1,0,1,0,1,-1l1,0l0,1ZM134.5,453.5c0,0,-1,0,-1,1l-1,0l-1,0l-1,0l-3,0l-1,0c-1,0,-1,0,-1,0c0,-1,0,-1,-1,-1c0,-1,0,-1,1,-1l1,-1l1,0l3,0l1,0l1,0c0,0,1,0,1,0l0,1l1,0ZM134.5,439.5c0,0,-1,0,-1,1l-1,0l-1,0l-1,0l-3,0l-1,0c-1,0,-1,0,-1,0l-1,-1c0,-1,0,-1,1,-1l1,0l0,-1l1,0l3,0l1,0l1,0c1,1,1,1,1,1l1,1ZM132.5,441.5c1,0,1,0,1,0c0,0,1,0,1,0c0,0,1,0,1,0c0,0,1,0,1,1l1,0l1,0l0,1l1,1l0,1l0,1l0,1l0,1l-1,0c0,0,0,1,0,1l-1,0l-1,0l0,1l-1,0l0,1l-1,0l-1,0c0,0,0,-1,0,-1l-1,0l-1,0l-1,0l-3,0l-1,0l-1,0l-1,1c-1,0,-1,-1,-1,-1c-1,0,-1,0,-1,0l0,-1l-1,0l-1,0l-1,-2l0,-1c0,-1,0,-1,0,-1c0,-1,0,-1,0,-1l0,-1l1,0c0,-1,0,-1,0,-1l1,0c0,0,1,0,1,0l1,-1l1,0c0,0,1,0,1,0l1,0l1,0l3,0l1,0ZM132.5,450.5l1,0l1,0c1,0,1,0,1,0l1,0l0,-1l1,0l1,0l0,-1l1,-1l0,-1c0,-1,0,-1,0,-2c-1,0,-1,-1,-1,-1c0,0,0,-1,0,-1l-1,1c-1,0,-1,0,-1,0l0,-1l-1,0l0,-1l-1,0c0,0,-1,0,-1,0l-1,1l-1,0l-4,0l-1,0l-1,0l0,-1l-1,0l-1,0l0,1l-1,0c0,1,-1,1,-1,1l-1,-1c0,0,0,1,0,1l-1,1l0,1l0,1l0,1l0,1l1,0c0,0,0,1,0,1l1,0c0,0,1,0,1,0l0,1l1,0l1,0c0,0,1,0,1,0l1,0l1,0l3,0l1,0l1,0ZM132.5,448.5l-1,-1l1,0ZM128.5,445.5l1,1l0,1l-1,1c0,-1,0,-2,-1,-3l1,-1l0,1l1,0c0,-1,0,-1,0,-1l1,0c0,0,0,1,0,1l0,-1c1,0,1,0,1,0c0,0,0,1,0,1c-1,0,-1,0,-1,0l-1,0l-1,0ZM126.5,444.5l1,1c0,0,0,1,0,1l0,1l0,1c-1,0,-1,0,-1,0l1,0l0,-1c0,-1,-1,-1,-1,-2ZM120.5,441.5l0,-1l1,0l1,-1l1,0c0,1,0,1,0,1l-1,0l-1,0l0,1l-1,0ZM120.5,451.5l0,-1l1,0c0,1,0,1,1,1l0,1l1,0l0,1l-1,-1c0,0,-1,0,-1,-1l-1,0ZM187.5,452.5l-1,-1l1,-2l1,1ZM195.5,446.5l-1,0l-1,0c-1,0,-1,0,-2,0l-1,0l-1,0l-1,0l-1,1l-1,0c0,1,0,1,-1,1c-1,0,-1,0,-2,0l-1,0c-1,0,-1,0,-1,0l-1,0l0,-1l-1,0c0,0,-1,0,-1,0c0,1,-1,1,-1,1l-1,0l-1,0c-1,0,-2,0,-2,0c-1,-1,-1,-1,-1,-2l-1,-9l1,-2l1,10l0,1c1,0,1,1,2,1l1,0c1,0,1,0,1,0c0,-1,1,-1,1,-1l1,0c0,0,0,-1,0,-1l1,0l0,1l1,0c0,1,0,1,1,1l1,0c0,0,1,0,1,0c0,-1,1,-1,1,-1c1,0,1,0,2,0l1,-1l1,0l-1,0l-1,-1l-1,0l-1,0l-1,0c0,0,0,-1,0,-1c0,0,1,-1,1,-1c0,0,1,0,1,0c1,0,1,0,1,0l1,1l2,0l1,1l1,0l1,0c0,0,1,0,1,0l1,0ZM186.5,435.5l4,-2l0,1l-1,0l-4,2ZM179.5,452.5l-1,-1l1,-1l1,1ZM176.5,439.5l0,1l1,0l0,-1l1,0l0,1c1,0,1,-1,1,-1l0,-1l0,1l0,1c0,0,0,1,0,1l-1,0l-1,-1l0,1l-1,0l0,-1l0,-1ZM180.5,436.5l-5,3c0,-1,0,-1,0,-1l6,-3ZM161.5,452.5l0,-1l1,1c1,0,2,-1,3,-1c1,-1,1,-1,1,-1c1,-1,1,-1,2,-2l0,-1c0,-1,0,-1,0,-1l0,-1l-1,0l0,-1l0,-1l1,-1l0,1c0,0,0,1,1,2l0,1c0,1,0,1,0,2c0,0,0,1,-1,1c0,1,0,1,0,1c-1,1,-1,1,-1,1c0,0,-1,1,-1,1l-1,0c-1,0,-1,0,-1,0l-1,0l-1,0l-1,0ZM167.5,456.5l-4,2c0,0,1,-1,1,-1l4,-2ZM162.5,450.5l-1,-1l-1,2l-2,-1l1,-2l2,1l1,-1l1,1ZM157.5,445.5l1,0l1,0c0,0,0,-1,0,-1c1,0,1,0,1,0c1,0,1,0,1,0c0,0,0,-1,-1,-1c0,0,0,-1,0,-1l0,-1c0,0,0,-1,1,-1c0,1,0,1,0,2c0,0,0,1,0,1l0,1c0,0,0,1,0,1c-1,0,-1,1,-1,1l-1,0c0,0,-1,0,-1,0c0,0,0,1,0,1c0,0,0,1,0,1c0,1,0,1,-1,2c0,1,0,1,-1,2c0,0,-1,1,-2,1c0,0,-1,0,-2,0c0,0,-1,0,-1,0c-1,0,-1,0,-2,-1l-1,-1c0,0,0,-1,0,-2l0,-1c0,0,0,-1,0,-1l1,0c0,-1,0,-1,0,-1l0,-1l1,1c-1,0,-1,0,-1,1c0,0,0,1,0,1c0,1,0,1,0,1l0,1l1,0c0,1,0,1,0,1c0,0,1,0,1,0c0,0,1,0,2,0c0,0,1,0,2,0c0,0,1,-1,1,-1c0,0,1,-1,1,-1c0,-1,0,-1,0,-1c0,-1,0,-1,0,-1c0,0,-1,-1,-1,-1l0,-1l-1,-1l1,-2c0,0,0,1,1,1c0,1,0,1,0,1l0,1ZM152.5,444.5l-1,-1l1,-2l1,1ZM149.5,435.5l4,-2l-1,1l-4,2ZM246.5,452.5l-2,-1l1,-1l2,1ZM243.5,447.5c1,0,1,0,2,-1c0,0,1,0,1,0l0,-1c0,0,0,-1,0,-1l-1,0l1,-2l0,1l1,1l0,1l0,1c0,0,-1,0,-1,1c0,1,-1,1,-1,1c-1,0,-1,0,-2,0l-1,0l-10,0l0,1c0,0,0,1,0,2c0,0,0,-1,-1,-1c0,-1,0,-1,0,-1c0,-1,0,-1,0,-1l-1,0l-1,0c-1,-1,-1,-1,-1,-1c0,0,0,-1,0,-1l0,1c0,0,-1,0,-1,0c0,1,-1,1,-1,1c-1,0,-1,0,-2,-1c-1,1,-1,1,-2,1c-1,0,-1,0,-2,-1c-1,1,-1,1,-2,1l-1,0c-1,0,-1,0,-1,0c-1,0,-1,0,-1,0l0,-1c-1,0,-1,0,-1,0c0,0,0,1,-1,1c0,0,-1,0,-1,0l-1,0c0,0,-1,0,-1,0c0,0,-1,0,-1,-1c0,1,0,1,-1,2c0,0,-1,0,-1,0c-1,-1,-2,-1,-2,-1l0,1c-1,0,-1,1,-2,1c0,0,-1,1,-2,1c-1,0,-2,0,-3,0l4,-2l1,-1c1,0,1,0,2,-1l0,-1c1,-1,1,-1,1,-2c0,0,1,0,1,0l1,0l1,1c0,1,1,1,1,1l1,0c0,1,0,1,0,1l1,0l1,-1l1,0c0,-1,0,-1,0,-1l1,0c0,0,0,1,0,1c1,1,1,1,2,1l1,0l1,0l0,-1c1,0,1,-1,2,-1l0,1c0,0,1,0,1,1c1,0,1,-1,2,-1l1,-1l0,-1l0,1l0,1c0,0,1,0,1,0c1,0,1,0,1,0l1,-1l0,-1c1,2,1,3,2,3l1,0c1,0,1,-1,1,-1c1,0,1,-1,1,-1l0,-1l0,-2l0,-1l-1,-3l0,-2c0,0,0,-1,0,-1l1,0l1,1l0,1c-1,0,-1,0,-1,1l0,1l0,1l1,1l0,1l0,2l-1,1l2,-1l1,-1c1,0,1,-1,2,-1l1,0c0,0,1,0,1,1c1,0,1,0,1,1l0,1c0,0,0,1,-1,1l0,1l-1,0l2,0l1,0l1,0ZM243.5,435.5l4,-2l0,1l-4,2ZM240.5,445.5l-1,0c0,-1,0,-1,0,-1c0,0,-1,0,-1,0c-1,0,-1,0,-2,1l-1,0l-1,1l-1,1l1,0c1,0,1,0,2,-1l1,0c1,0,2,0,3,-1ZM231.5,432.5l5,-2l-1,1l-4,2ZM223.5,440.5l-1,-1l1,-1l1,1ZM225.5,443.5l-2,-1l0,1l-2,-1l1,-1l2,0l0,-1l2,1ZM221.5,433.5c1,0,1,0,1,0c1,-1,1,-1,2,-1c0,0,1,0,1,1c0,0,1,0,1,0c-1,1,-1,1,-1,1c0,1,0,1,-1,1c-1,0,-1,0,-1,0l-1,0l1,0c1,0,1,-1,2,-1c0,0,-1,0,-1,0l-1,0c0,0,-1,0,-1,0l-1,0l0,-1ZM215.5,442.5l-1,-1l-1,2l-1,-1l1,-2l1,1l1,-1l1,1ZM213.5,432.5c1,-1,1,-1,1,-1c0,0,1,0,1,0c0,1,0,1,0,1c0,1,0,1,0,1l0,1l0,2l-1,-1l-1,1c0,0,-1,0,-1,1l-1,0l0,-1l1,0l1,-1l0,-1l0,-1l0,-1ZM214.5,433.5l0,-1c-1,0,-1,0,-1,1l1,0l0,1l0,-1ZM208.5,447.5l0,-1c-1,0,-1,-1,-1,-1l0,1c-1,0,-1,0,-1,0l1,1ZM158.5,434.5l1,0c0,0,0,-1,1,-1c0,0,1,1,1,1c1,0,1,0,1,0l0,1c0,0,-1,0,-1,1c0,0,-1,0,-1,0c-1,0,-1,0,-1,0l-1,0l2,0c0,0,1,-1,1,-1l-1,0c-1,0,-1,0,-2,0l-1,0l0,-1c1,0,1,0,1,0ZM204.5,437.5l1,0l1,0c0,0,1,0,1,0c1,0,1,0,1,1c0,0,-1,1,-1,1c-1,1,-1,1,-1,1c-1,0,-1,0,-1,0l-1,0l1,-1c1,0,2,0,2,-1c0,0,-1,0,-1,0l-1,0l-1,0l-1,1l0,-1c0,0,1,0,1,-1ZM301.5,452.5l-1,-1l1,-1l1,1ZM299.5,447.5c0,0,1,0,1,-1c1,0,1,0,1,0l1,0l0,-1c0,0,-1,0,-1,0c0,0,0,-1,0,-1l1,-2l0,1l0,1l0,1l0,1l0,1c-1,1,-1,1,-2,1c0,0,-1,0,-1,0l-1,0l-10,0l0,1c-1,0,-1,1,-1,2c0,0,0,-1,0,-1c0,-1,0,-1,0,-1c0,-1,0,-1,0,-1l-1,0l-1,0l-1,0c0,-1,0,-1,0,-1c0,0,0,-1,0,-1l-1,1c-1,1,-1,1,-2,1c0,0,-1,0,-1,-1l-1,0c0,1,0,1,-1,1c-1,0,-2,0,-2,-1l-1,0c0,1,-1,1,-1,1l-1,0l-1,0c-1,0,-1,0,-1,0c-1,0,-1,0,-1,0l0,-1l-1,0c0,0,-1,0,-1,0c0,1,0,1,-1,1l-1,0c-1,0,-1,0,-2,0l0,-1c-1,1,-1,1,-1,2l-1,0l-1,0c-1,-1,-1,-1,-1,-1l-1,0l0,1c0,0,-1,1,-1,1c-1,0,-1,1,-2,1c-1,0,-3,0,-4,0l4,-2l2,-1c0,0,1,0,1,-1l1,-1c0,-1,0,-1,1,-2l1,0c0,0,1,0,1,1c1,1,1,1,1,1c1,0,1,0,1,0c0,1,1,1,1,1c1,0,1,0,1,0c1,-1,1,-1,1,-1l1,0c0,0,0,-1,1,-1l0,1l1,0c0,1,0,1,1,1l1,0l1,0l0,-1l1,0c1,0,1,-1,2,-1l0,1l1,1c0,0,1,-1,1,-1c0,0,1,0,1,-1l0,-1l1,1l0,1l1,0l1,0l0,-1l1,-1c0,2,1,3,1,3l1,0l1,0c0,0,1,-1,1,-1c0,0,0,-1,0,-1l1,-1l-1,-2l0,-1l0,-3l0,-2c0,0,0,-1,0,-1l1,1l0,1l0,1l0,1l0,1l0,1l0,1l0,2l0,1l1,-1l1,-1l1,0c1,0,1,-1,1,-1l1,0c1,0,1,0,2,1l1,1l0,1c-1,0,-1,1,-1,1l0,1l-1,0l2,0l1,0l1,0ZM299.5,435.5l4,-2l0,1l-4,2ZM296.5,445.5c0,0,-1,0,-1,0c0,-1,0,-1,-1,-1l-1,0c0,0,-1,0,-1,1l-1,0l-1,1l-1,1l1,0c0,0,1,0,1,-1c1,0,1,0,1,0l1,0c1,0,2,0,3,-1ZM287.5,432.5l4,-2l0,1l-4,2ZM279.5,440.5l-2,-1l1,-1l2,1ZM280.5,443.5l-1,-1l-1,1l-1,-1l1,-1l1,0l1,-1l1,1ZM257.5,433.5l1,0c0,-1,1,-1,1,-1c1,0,1,0,1,1c1,0,1,0,1,0c0,1,0,1,-1,1c0,1,0,1,0,1l-1,0c0,0,-1,0,-1,0l-1,0l2,0c0,0,1,-1,1,-1l-1,0c-1,0,-1,0,-2,0l0,-1ZM277.5,433.5c0,0,1,0,1,0c0,-1,1,-1,1,-1c1,0,1,0,2,1c0,1,0,1,0,1c-1,1,-1,1,-1,1c0,0,-1,0,-1,0l-1,0c0,0,-1,0,-1,0l2,0c1,0,1,-1,1,-1c-1,0,-1,0,-1,0c-1,0,-1,0,-1,0c-1,0,-1,0,-1,0l0,-1ZM270.5,443.5l-1,-1l-1,2l-1,-1l0,-2l2,1l1,-1l1,1ZM267.5,432.5c1,0,1,0,1,0c0,-1,1,-1,1,-1c1,1,1,1,1,1c0,1,0,1,0,1l-1,1l1,0l0,2l-1,-1l-1,0l0,1c-1,0,-1,0,-1,1l-1,0l-1,0l1,-1l1,0l0,-1l1,0l0,-1c-1,0,-1,0,-1,-1l0,-1ZM269.5,433.5l-1,-1l0,1l1,0l0,1l0,-1ZM262.5,447.5l0,-1c0,0,0,-1,-1,-1l0,1l0,1l1,0ZM334.5,444.5c-1,0,-1,0,-1,0c0,1,1,1,1,1c1,0,1,-1,1,-1l-1,0ZM334.5,451.5c0,1,0,1,-1,1c-1,0,-1,0,-2,0c-1,0,-1,0,-2,0l-1,0c0,-1,0,-1,0,-1c1,0,1,0,1,0c0,0,1,0,1,1l1,-1c0,0,1,0,1,0c1,-1,1,-1,2,-1c0,0,0,-1,0,-1c0,0,1,0,1,-1c0,-1,0,-1,0,-1c0,-1,0,-1,0,-1c0,0,0,1,0,1c-1,0,-1,0,-1,0l-1,0c0,-1,0,-1,0,-1c0,0,-1,0,-1,0c0,0,0,-1,0,-1l0,-1c1,-1,1,-1,1,-1c0,-1,0,-1,1,-1c1,0,1,0,1,0l1,1c0,1,0,1,0,2l0,1c0,0,0,1,0,1c0,1,0,2,-1,2c0,1,0,1,0,1c0,1,-1,1,-1,1ZM333.5,438.5l4,-2l0,1l-5,2ZM325.5,448.5l0,-1l0,-1l0,-8l1,-3l0,11c0,1,0,1,0,1c0,1,-1,1,-1,1ZM327.5,451.5l-4,2c1,-1,1,-1,1,-1l4,-2ZM318.5,437.5l-1,0l0,-2l2,1ZM322.5,447.5l-1,0l0,1c-1,0,-1,0,-2,0l-1,0l-1,0l-1,0l0,-1l0,-1l1,0c1,0,1,0,2,0l1,0l1,0l0,-1l0,-1l-1,-1l-1,-1l-1,0l0,-2c0,0,1,0,1,0c0,0,1,0,1,0c0,1,0,1,0,1c1,0,1,0,1,0c0,1,0,1,1,1c0,1,0,1,0,2l0,1c0,1,0,1,0,1c0,0,0,1,0,1ZM316.5,432.5l4,-2l0,1c-1,0,-1,0,-1,0l-4,2Z" class="g1_74" />
</svg>