<?xml version="1.0" encoding="UTF-8" standalone="no"?>
<!DOCTYPE svg PUBLIC "-//W3C//DTD SVG 1.1//EN"
"http://www.w3.org/Graphics/SVG/1.1/DTD/svg11.dtd">
<svg version="1.1" xmlns="http://www.w3.org/2000/svg" xmlns:xlink="http://www.w3.org/1999/xlink">
<defs>
<style type="text/css"><![CDATA[
.g1_28{
stroke: #1F1A17;
stroke-width: 1;
stroke-linecap: butt;
stroke-linejoin: miter;
}
]]></style>
</defs>
<path fill-rule="evenodd" d="M210.5,298.5l4,-2l0,1c0,0,-1,0,-1,0l-4,2ZM242.5,298.5l0,1l1,0l0,-1l0,-1l1,0l0,1c1,0,1,0,1,0l0,-1c0,1,0,1,0,1l0,1l0,1l-1,0c0,0,0,-1,0,-1l-1,1l-1,0l0,-1l0,-1ZM246.5,295.5l-5,3c0,-1,0,-1,0,-1l6,-3ZM251.5,307.5l-1,0c0,0,-1,0,-1,0c0,-1,0,-1,0,-1l0,-1c0,1,0,1,-1,1l0,1c0,0,0,1,1,1c0,0,1,0,1,0c1,0,1,0,2,-1c0,-1,0,-1,0,-1l0,-1c1,0,1,0,1,0l0,1l1,0c0,0,0,-1,0,-1l1,0c1,0,1,0,2,0c0,-1,0,-1,0,-1c0,0,0,-1,0,-1l-1,0c0,0,-1,0,-1,0c-1,1,-1,1,-1,2l-1,0c-1,0,-1,-1,-1,-1l0,1l0,1l0,1l-1,0ZM257.5,304.5c0,0,-1,0,-1,0c0,1,-1,1,-1,1l-1,0c0,-1,1,-1,1,-1c0,0,1,0,1,0c1,0,1,0,1,0ZM129.5,294.5l1,0l1,0c0,0,1,0,1,0c1,0,1,0,1,1c0,0,-1,1,-1,1l0,1c-1,0,-1,0,-1,0c-1,0,-1,0,-1,0l-1,0l1,-1c1,0,2,0,2,-1l-1,0l-1,0l-1,0l-1,1l0,-1c0,0,1,0,1,-1ZM341.5,296.5c0,0,0,-1,0,-1c0,0,1,0,1,0c1,0,1,0,1,1l0,1l-1,0l1,1l0,1l-1,-1l-1,1c-1,1,-1,1,-1,1l-1,0l-1,0l1,0l1,-1l1,-1c-1,-1,-1,-1,-1,-1c0,-1,0,-1,1,-1ZM342.5,296.5l-1,0l0,1l1,0l0,-1ZM291.5,297.5l0,-1c0,0,0,-1,-1,-1c0,-1,0,-2,0,-2l1,-1c0,0,0,1,0,1c0,0,0,1,0,1l0,1l0,1c0,0,0,1,0,1ZM113.5,306.5c0,1,0,2,0,2c0,0,0,1,0,1l-1,1l1,1l-1,1c0,0,-1,0,-1,0l0,1c-1,0,-1,0,-2,1l-1,0l-1,0l0,1l-1,0l-1,1c0,1,0,1,0,1l-1,0l-3,0l-3,0c0,0,0,-1,0,-1l-1,-1c0,0,-1,0,-1,-1c-1,0,-2,0,-2,0l-1,-1l-1,0l0,-1l-1,0l-1,-1l1,-1l-1,0l0,-1l0,-1l0,-1l-1,0l0,-1l0,-1c0,0,1,0,1,0c0,-1,0,-1,0,-2l1,-1l-1,0c0,-1,0,-1,0,-1l1,0l0,-1l1,0l1,-1l2,-1l1,0l1,0l0,-1l1,-1l3,0l3,0l1,0l0,1l1,0l0,1l1,0l2,1l1,0l1,0l0,1l1,0c0,1,1,1,1,2l-1,0l1,1l0,1l0,1ZM104.5,316.5l1,0l0,-1l1,0l1,-1c0,0,1,0,1,0l1,0l0,-1c1,0,1,0,1,0l1,0l0,-1l1,-1l1,0l-1,-1l0,-1l1,0l0,-1l0,-1l0,-1c0,-1,0,-1,0,-2l-1,-1l0,-1l1,0c-1,-1,-1,-1,-2,-1l0,-1l-1,0l0,-1l-1,0l-1,0l-1,-1c-1,0,-1,0,-1,0l-1,-1l0,-1l-1,0l-1,0l-2,0l-1,0l-2,0l0,1l-1,1l-1,0l-1,1l-1,0l-1,0l0,1l-1,0l-1,1l-1,1l1,0l0,1l-1,0l0,1l0,1c0,1,0,1,0,1l0,1l0,1l0,1l1,0l0,1l-1,1l1,0l0,1l1,0l1,1l1,0l0,1l1,0l1,0c1,0,1,0,1,1l1,0l0,1l3,0ZM110.5,301.5l0,1l-1,0l0,-1l-1,0l0,-1c-1,0,-1,0,-1,0l0,-1l1,1c0,0,1,0,1,0l0,1l1,0ZM110.5,311.5l0,1l-1,0l-1,1l-1,0c0,0,0,-1,0,-1l1,0c1,-1,1,-1,1,-1l1,0ZM106.5,313.5c0,0,0,1,-1,1l-1,0l-3,0l-3,0c-1,0,-1,0,-1,0c0,-1,0,-1,0,-1l1,-1l3,0l4,0l1,1ZM106.5,299.5c0,1,0,1,-1,1l0,1l-1,0l-3,0l-3,0c0,-1,0,-1,0,-1l-1,0l0,-1l1,-1l3,0l3,0l1,0c0,0,1,1,1,1ZM104.5,302.5l1,0l0,-1c0,0,1,0,1,0c1,0,1,0,1,1c0,0,1,0,1,0l1,1l1,0l1,1l0,1l0,1l0,1c0,0,0,1,0,1l0,1c0,0,-1,0,-1,0c0,0,0,1,0,1l-1,0l-1,0c0,0,0,1,0,1l-1,0l-1,0c-1,0,-1,0,-1,0l-1,-1l-3,0l-3,0l0,1c0,0,-1,0,-1,0c-1,0,-1,0,-1,0c-1,0,-1,-1,-1,-1l-1,0l-1,0l0,-1l-1,-1l0,-1l0,-1c0,0,0,-1,0,-1l0,-1l0,-1l1,0l1,0l1,-1l1,0c0,-1,0,-1,1,-1l1,0l0,1l3,0ZM105.5,310.5l0,1c0,0,1,0,1,0l1,0l0,-1l1,0c1,-1,1,-1,1,-1l1,1l0,-1l0,-1l1,0l0,-1l0,-1c0,0,0,-1,0,-1c0,-1,-1,-1,-1,-2l-1,0l-1,0l0,-1l-1,0l-1,0l-1,0l-4,0l-3,0l-1,0c0,0,-1,0,-1,0l-1,0l0,1c-1,0,-1,0,-1,0l-1,0l-1,1l0,1l0,1c0,1,0,1,0,1l0,1c1,1,1,1,1,2l1,-1l1,1l1,1l1,0c0,0,1,0,1,0c0,0,0,-1,0,-1l3,0l4,0ZM103.5,305.5l-1,0l0,1l1,0l0,1l-1,0l0,1c0,0,1,0,1,0l1,0c0,1,-1,1,-1,1c-1,0,-1,0,-1,-1l0,-1l0,-1c0,-1,0,-1,0,-1c0,0,1,0,1,-1ZM99.5,305.5l1,0l1,0l0,1l0,1l0,1l0,1c0,0,0,-1,-1,-1l0,-1l0,-1c-1,0,-1,0,-1,-1ZM93.5,301.5l1,-1l1,0l1,-1l0,1l-1,0c0,0,0,1,0,1l-1,0l0,1l-1,0l0,-1ZM93.5,311.5c1,0,1,0,1,1l1,0l1,0l0,1l-1,0c-1,0,-1,-1,-2,-1l0,-1ZM168.5,309.5l0,-1l0,-2l0,-8l1,-2l0,10c0,1,0,1,0,1l0,1c0,0,-1,0,-1,1ZM160.5,307.5c1,0,1,0,1,0c1,0,1,0,1,0c1,0,1,0,1,0c0,-1,0,-1,0,-1l0,-2l0,-7c0,0,-1,0,-1,0c0,-1,0,-1,1,-1c0,-1,0,-1,0,-1l0,1c1,0,1,0,1,1l0,1c0,1,0,1,0,2c0,0,0,1,0,3c0,0,0,1,0,1l0,1c0,1,0,1,0,1c0,1,0,1,0,1c0,0,-1,1,-1,1l-1,0c0,0,0,1,0,1l-2,0l0,1c-1,1,-1,1,-1,2l-1,1c-1,1,-1,1,-1,1c-1,0,-1,0,-1,0c-1,0,-1,0,-1,0l-1,0c0,0,-1,0,-1,0c-1,0,-1,0,-1,0l0,-1l1,0l0,1c1,0,1,-1,2,-1c0,0,1,0,1,0c0,-1,1,-1,1,-1l1,-1l0,-1c0,0,1,0,1,-1c0,0,0,-1,0,-1c0,0,-1,0,-1,0c0,0,0,-1,0,-1l0,-1c0,0,1,0,1,0l0,1l1,0ZM139.5,303.5c1,0,1,0,1,0l1,0l1,0l1,0l1,0l1,0l-2,-1l0,-1l-1,0c-1,0,-1,0,-2,0c0,0,0,-1,1,-1c0,0,0,-1,1,-1c1,0,1,1,2,1l2,2l1,0l1,1l1,0l1,0l1,0l-1,2l-1,0l-1,-1l-2,0l-2,0c-1,0,-1,0,-1,0l-1,0l-1,0c0,0,0,1,0,1l1,1l0,1l-1,0c0,1,0,1,0,1l-1,0l-1,0l-1,-1l-1,1l0,1l-1,0l-1,0l-1,0c0,0,0,-1,-1,-1c0,0,0,-1,-1,-1l0,-1l0,-1c0,0,-1,1,-1,1c-1,0,-1,0,-1,0c0,1,0,1,0,1l0,1c0,1,0,2,0,3c-1,0,-1,1,-2,1c0,1,-1,1,-1,1c-1,1,-2,1,-3,1c0,0,-1,0,-1,-1c-1,0,-1,0,-2,0c0,-1,0,-1,-1,-1c0,-1,0,-2,0,-2c0,-1,0,-1,0,-1c0,-1,0,-1,0,-1c0,-1,1,-1,1,-1c0,0,0,-1,0,-1l1,0c0,0,0,1,-1,1c0,0,0,1,0,1c0,0,0,1,0,1c0,0,0,1,0,1c0,0,1,1,1,1c1,0,1,0,1,0c0,1,1,1,2,1c1,0,1,0,2,-1c1,0,1,0,2,-1c0,-1,0,-1,0,-1c0,-1,0,-1,0,-1c0,-1,0,-1,0,-1c0,-1,-1,-1,-1,-1c0,0,0,-1,0,-1l0,-2c0,0,1,0,1,1l1,0c0,0,1,0,1,0c0,0,1,0,1,-1l0,-1l1,0c0,0,0,1,0,1l0,1l0,1l0,1c0,0,1,0,1,1c0,0,1,0,1,0l1,0c0,0,1,0,1,0l0,-1l1,-1c0,0,1,-1,1,-1l0,-1ZM147.5,308.5l-4,2c0,0,0,-1,0,-1l4,-2ZM139.5,306.5l1,0l0,-1c-1,0,-1,0,-1,0c0,1,0,1,0,1ZM140.5,312.5l-4,2c0,-1,0,-1,0,-1l4,-2ZM134.5,312.5l-1,-1l-1,1l-1,-1l0,-1l2,1l1,-2l1,1ZM125.5,304.5l-2,-1l1,-1l1,1ZM121.5,296.5l4,-2l-1,1l-4,2ZM201.5,312.5l1,0c1,0,2,0,3,-1c0,0,1,0,1,-1c1,0,1,-1,1,-1c0,-1,1,-1,1,-1c0,-1,0,-1,0,-1l0,-1l-1,0l0,-1l0,-1l0,-1l1,1l0,1l0,1l1,0l0,1c0,0,-1,1,-1,1c0,1,0,1,0,1c0,0,0,1,0,1c0,0,0,1,-1,1l0,1c-1,0,-1,0,-1,0l-1,0l0,1l-1,0l-1,0c0,0,-1,0,-1,0c0,0,-1,-1,-1,-1ZM202.5,298.5c1,0,1,0,1,0c1,-1,1,-1,2,-1c0,0,1,0,1,1c1,0,1,0,1,0c0,1,-1,1,-1,1c0,1,0,1,-1,1c-1,0,-1,0,-1,0l-1,0l1,0c1,-1,2,-1,2,-1c0,0,-1,0,-1,0l-1,0c0,0,-1,0,-1,0l-1,0c0,0,0,-1,0,-1ZM200.5,306.5l-2,0c-1,0,-1,0,-2,0l-1,0l-1,1l-1,0c-1,1,-1,1,-1,1c-1,0,-1,0,-1,0c-1,0,-2,1,-2,1l-1,0l-1,0l-2,0c0,0,-1,0,-1,-1l-1,0l0,1l0,1c0,1,0,1,0,1c-1,0,-1,0,-1,-1c-1,0,-1,-1,-1,-1l0,-1c-1,0,-1,0,-1,0l-1,0c0,0,0,1,-1,1c0,0,0,1,0,1l0,1l1,3l0,2c0,0,0,1,0,1l0,1l0,1l0,-1l0,-1l-1,-1l0,-3l0,-2l0,-1l0,-1c0,-1,0,-2,1,-2l1,-1l1,0l0,-1c1,0,2,1,3,1l1,1l2,0l1,0c0,0,1,0,1,0c1,0,1,0,2,0c0,0,0,-1,1,-1l1,0l1,-1l-1,0l-1,0l-1,-1l-1,0l-1,0l0,1c0,-1,0,-1,0,-2c1,0,1,0,1,0c0,0,1,-1,1,-1c0,0,0,1,1,1l1,0l2,1l1,0l1,0c0,0,1,1,1,1c0,0,1,0,1,0l1,0ZM191.5,296.5l4,-2l0,1l-4,2ZM180.5,293.5c1,0,1,-1,1,-1c0,0,1,0,1,0c0,0,1,0,1,1l-1,1l0,1l1,0l0,1l-1,-1l-1,1c-1,1,-1,1,-1,1l-1,0l-1,0l1,0l1,-1l1,-1l-1,0c0,-1,0,-1,0,-1c0,-1,0,-1,0,-1ZM182.5,293.5l-1,0l0,1l1,0l0,-1ZM243.5,305.5c0,1,0,1,0,1c1,0,1,0,1,0l0,-1l-1,0ZM243.5,312.5c0,1,0,1,0,1c0,0,-1,0,-1,0c0,0,-1,0,-2,0c0,0,-1,0,-2,0c0,-1,0,-1,0,-1c0,0,0,1,1,1c0,0,1,0,1,0l1,-1c0,0,1,0,1,0c0,0,1,-1,1,-1c0,0,1,-1,1,-1l0,-1c1,-1,1,-1,1,-1c0,0,0,-1,0,-1c0,0,-1,0,-1,1l-1,0l-1,0c0,0,0,-1,0,-1l0,-1l0,-1c0,0,0,-1,0,-1c1,-1,1,-1,1,-1c0,0,1,0,1,0c1,0,1,0,1,1l0,1c0,0,1,0,1,1l0,1c0,1,0,1,0,1c0,1,-1,2,-1,3c0,0,-1,0,-1,1l-1,0ZM237.5,308.5l-1,0l-1,0c0,0,-1,0,-1,-1l-1,0c0,0,0,1,0,1c-1,0,-1,0,-1,0l-1,0l-1,1l-1,0l-1,0l-1,0c0,0,0,1,0,1c0,0,0,1,0,1c-1,0,-1,1,-1,1c0,0,-1,1,-1,1l-1,1c-1,0,-1,0,-1,0c0,0,-1,0,-1,0c-1,0,-1,0,-2,0c0,0,0,-1,-1,-1c1,0,1,0,1,0l1,0c0,0,1,0,1,0c1,0,1,0,1,-1c1,0,1,0,1,0c1,0,1,-1,1,-1c0,0,0,-1,1,-1l0,-1c0,0,-1,0,-1,0c0,0,-1,-1,-1,-1c0,0,0,-1,-1,-1l1,0c0,-1,0,-1,0,-1c0,-1,0,-1,0,-1c0,0,1,-1,1,-1l1,0c0,0,1,0,1,1c0,1,0,1,0,1c0,0,0,1,0,1c1,0,1,0,2,0c0,0,1,0,1,0c1,0,1,0,1,0c0,-1,0,-1,0,-1c0,-1,0,-1,0,-1c0,0,0,-1,0,-1l1,0c0,0,0,-1,0,-1c0,-1,0,-1,0,-1l0,-1c0,0,1,0,1,0c1,0,1,0,2,1c1,0,1,1,2,1c0,1,0,1,1,2c0,1,0,1,0,1c0,1,0,1,0,1c0,0,0,1,0,1c0,0,-1,0,-1,0ZM233.5,304.5c-1,0,-1,0,-1,0c0,0,0,1,0,1c0,0,1,1,1,1c0,0,1,-1,1,-1c0,-1,0,-1,0,-1c0,0,-1,0,-1,0ZM235.5,304.5c0,1,0,1,0,1c0,0,0,1,0,1l2,0l0,1l0,-1c0,0,-1,-1,-1,-1c-1,-1,-1,-1,-1,-1ZM230.5,290.5c0,-1,0,-1,1,-1c0,-1,0,-1,0,-1c1,0,1,0,1,0c0,1,0,1,0,1c0,1,0,1,0,1l0,1l0,2l-1,-1l-1,1c0,0,0,1,-1,1l-1,0l0,-1l1,0l1,-1l0,-1l0,-1ZM231.5,290.5l0,-1c0,0,-1,1,-1,1l1,0l0,1l0,-1ZM225.5,306.5c-1,0,-1,0,-1,0c0,0,0,1,1,1c0,0,1,0,1,0c0,-1,0,-1,0,-1c-1,0,-1,0,-1,0ZM222.5,299.5l4,-2l-1,1l-4,2ZM299.5,306.5l-1,0l-1,0c-1,0,-1,0,-2,0l-1,0l-1,1l-1,0c-1,1,-1,1,-2,1l-1,0c-1,1,-1,1,-2,1l-1,0l0,-2l1,0c0,0,1,0,1,0c0,0,1,0,2,0c0,0,0,-1,1,-1l1,0l1,-1l-1,0l-1,0l-1,-1l-1,0l-1,0l0,1c0,-1,0,-1,0,-2c1,0,1,0,1,0c0,0,1,-1,1,-1c0,0,0,1,1,1l1,0l2,1l1,0l1,0c0,0,0,1,1,1c0,0,1,0,1,0l1,0ZM281.5,301.5l-1,-1l1,-2l1,1ZM285.5,309.5l-1,0c-1,0,-2,0,-2,0c-1,-1,-1,-1,-1,-1c-1,0,-1,0,-2,1c0,0,-1,0,-1,0l-1,0l-1,0l-10,0c0,1,0,1,0,2l-1,0l0,-1l0,-1c0,0,1,0,1,0l-1,0l-1,0l-1,0c-1,0,-1,0,-2,-1c0,0,0,-1,0,-2l-1,-8l1,-2l1,9l0,1c0,1,1,1,1,1l1,0l1,0c1,0,1,0,1,0c1,-1,1,-1,1,-2l0,-1l0,-1l0,-1l0,-1l0,-2l-1,-2c0,-1,0,-1,1,-1l0,-1l1,2c0,0,-1,1,-1,2l1,0l0,1l0,1l0,2l0,1l0,1l0,1l1,-1l1,-1l1,-1c0,0,1,0,1,0l1,0c0,0,1,0,1,0c1,0,1,1,1,1l0,1l0,1l0,1l-1,0l1,0l2,0c1,0,1,0,1,0l1,0c0,0,0,-1,0,-1l0,-1l0,-1c0,-1,1,-1,1,-1c0,0,0,-1,0,-1c1,0,2,-1,2,-1c1,0,1,1,1,1c0,1,0,1,1,2l0,1c-1,0,-1,0,-1,0c0,1,0,1,0,1c0,0,0,1,-1,1l1,0l1,0l1,0l1,0l0,2ZM281.5,303.5c0,0,0,1,-1,1l0,1c0,0,1,1,1,1c0,0,1,0,1,-1l1,0c0,-1,0,-1,-1,-1c0,0,0,-1,-1,-1ZM281.5,312.5l-4,2c0,-1,1,-1,1,-1l4,-2ZM271.5,301.5l-1,-1l0,-1l2,1ZM274.5,306.5c0,-1,0,-1,0,-1c0,0,-1,0,-1,0l-1,0c-1,0,-1,0,-2,0l-1,1l-2,1l1,0c1,0,1,0,2,0c1,0,1,0,1,0c1,-1,2,-1,3,-1ZM266.5,293.5l5,-3c-1,1,-1,2,-1,2l-5,2ZM267.5,290.5l5,-3c0,1,0,1,0,2l-5,2ZM322.5,300.5l-1,0l0,-2l2,1ZM330.5,306.5l-2,0c0,0,-1,0,-1,0l-1,0c0,0,-1,0,-1,1l-1,0l-1,0c0,1,0,1,-1,1l-1,0c-1,1,-2,1,-2,1l-1,0c-1,0,-1,0,-1,0c-1,0,-1,0,-1,-1l-1,0c0,-1,0,-1,0,-1l0,-2c0,1,0,1,0,1c-1,0,-1,0,-1,0c0,1,0,1,-1,1c0,0,-1,0,-1,0l0,1c0,1,0,1,-1,1c0,0,0,1,0,1c0,1,0,1,-1,1c0,1,0,1,0,1c-1,1,-1,1,-1,1l-1,0l-1,0l-1,0c0,0,-1,0,-1,0c0,0,-1,0,-1,0l0,-1l1,0l0,1l1,0l0,-1l1,0c0,0,1,0,1,0c0,-1,1,-1,1,-1c0,-1,1,-1,1,-1c0,-1,0,-1,1,-2c0,0,0,-1,0,-1c0,0,-1,0,-1,0l1,-2l1,0c1,0,1,0,1,0c1,0,1,0,1,0c0,0,0,-1,1,-1l0,1l1,0c0,1,0,1,0,1l0,1c1,0,1,0,1,0l1,0l1,0l1,0c0,0,1,0,1,0c1,0,1,-1,2,-1l1,0l1,-1l-1,0l-1,0l-1,0l0,-1l-1,0l-1,0l-1,1c1,-1,1,-1,1,-2c0,0,1,0,1,0c0,0,0,-1,1,-1c0,0,0,1,0,1c0,0,1,0,1,0l1,0l2,1c1,0,1,0,1,0c1,0,1,1,2,1l1,0l1,0ZM322.5,296.5l4,-2l-1,0l0,1l-4,2ZM316.5,312.5l-2,-1l0,1l-2,-1l1,-1l2,1l0,-2l2,1ZM312.5,298.5c0,0,1,0,1,0c0,-1,1,-1,1,-1c1,0,1,0,2,1c0,1,0,1,0,1c-1,1,-1,1,-1,1c0,0,-1,0,-1,0l-1,0c0,0,-1,0,-1,0l2,0c1,-1,1,-1,2,-1c-1,0,-1,0,-1,0c-1,0,-1,0,-1,0c-1,0,-1,0,-1,0c-1,0,-1,0,-1,0c0,0,0,-1,0,-1ZM310.5,290.5l-1,0l0,1l0,1l0,1l0,1l0,-1l-1,0l0,-1l0,-1c1,-1,1,-1,1,-1c0,0,1,-1,1,-1l1,-1l1,0ZM310.5,292.5c0,-1,0,-1,1,-1c0,0,0,-1,0,-1l1,0l0,1c0,1,0,1,0,1l0,1l0,1l0,1l-1,-1l-1,1c0,0,0,1,-1,1l-1,0l1,-1l1,0l0,-1l1,0l-1,0l0,-1l0,-1ZM311.5,292.5l-1,0c0,0,1,0,1,0l0,1l0,-1ZM361.5,299.5l-1,-1l1,-1l1,1ZM364.5,307.5c-1,0,-1,1,-1,1c0,0,-1,0,-2,1c0,0,-1,0,-1,0l-1,0l-2,0c0,0,-1,0,-1,-1c-1,0,-1,-1,-1,-2l-1,-8l1,-2l1,9l0,1c0,1,1,1,1,1l2,0l1,0c0,0,1,0,1,0c1,0,2,-1,2,-1c1,0,1,-1,1,-1l-1,0l0,-1c0,1,0,1,0,1c-1,0,-1,0,-1,0l-1,0c0,0,-1,0,-1,0c0,-1,0,-1,0,-1c0,-1,0,-1,0,-2c0,-1,1,-1,1,-1c0,-1,1,-1,1,-1c0,0,1,0,1,1l1,1l0,1l0,1c0,0,0,1,0,1c0,1,0,1,0,1c0,0,0,1,0,1ZM361.5,303.5l1,0l1,0c0,0,-1,0,-1,0l0,-1l-1,0ZM360.5,293.5l4,-3l0,1l0,1l-4,2ZM351.5,308.5l-1,0c-1,0,-1,0,-1,0c-1,0,-1,-1,-1,-2c0,1,-1,1,-1,2c0,0,-1,1,-2,1c0,0,-1,0,-1,-1c-1,0,-1,-1,-1,-2c0,1,-1,1,-1,1c-1,0,-1,0,-2,0c0,0,-1,0,-1,0c0,0,-1,0,-1,0c0,-1,1,-1,1,-2l1,-1c0,0,1,0,1,0l1,-1l1,0l0,-1l-1,0l1,-1l0,-1l0,2l0,1l1,2c0,0,0,1,0,1c0,1,1,1,1,1c1,0,1,0,2,-1l0,-1c0,0,0,-1,0,-2c0,-1,0,-1,0,-1c0,-1,0,-1,0,-1c0,0,0,-1,0,-1l0,-1l0,-1l1,3l0,2l0,1l0,1l1,0c0,1,0,1,1,1l1,0c0,-1,0,-1,0,-2l0,-1l-1,-1l0,-1l0,-1l1,-1c0,0,0,1,0,1c0,0,0,1,0,1l1,2c0,1,0,1,0,2c0,1,0,1,0,2c-1,0,-1,0,-1,1ZM343.5,304.5l-1,0l-1,0c0,0,0,1,0,1c-1,0,-1,0,-1,1c1,0,1,-1,2,-1c0,0,1,0,1,0ZM347.5,291.5c0,0,0,-1,0,-1c0,-1,0,-1,-1,-1l1,0l0,-1l0,1l0,1c0,0,0,1,0,1ZM346.5,293.5l0,1l1,0l0,-1l0,-1l1,1c0,0,0,1,0,1c0,0,1,-1,1,-1l0,-1l0,1l0,1l-1,0l0,1c0,0,0,-1,0,-1l-1,0l0,1l-1,0l0,-1l0,-1ZM157.5,299.5c0,-1,0,-1,0,-2c0,0,0,-1,0,-1l0,-1c0,1,0,1,0,1c0,0,1,1,1,1c0,1,0,1,0,1l-1,0c0,1,0,1,0,1ZM156.5,300.5l0,1c0,0,1,0,1,0l0,-1l1,0l0,1c1,0,1,0,1,-1l0,-1l0,1l0,1c0,1,0,1,0,1l-1,0l-1,0c0,0,0,1,0,1c-1,0,-1,-1,-1,-1c0,0,0,-1,0,-1ZM212.5,313.5l0,-1l0,-1l-1,-9l1,-2l1,10c0,1,0,1,0,1c-1,0,-1,0,-1,1c0,0,0,1,0,1Z" class="g1_28" />
<path fill-rule="evenodd" d="M95.5,570.5l5,-2l-1,1l-4,2ZM224.5,576.5l0,1l1,0l0,-1l1,0c0,1,0,1,0,1c1,0,1,0,1,-1l0,-1l0,1l0,1c0,1,0,1,0,1l-1,0l-1,0c0,1,0,1,-1,1l0,-1l0,-1l0,-1ZM228.5,574.5l-5,2c0,0,0,-1,0,-1l6,-3ZM394.5,589.5l-1,1c0,0,-1,0,-1,0c0,0,-1,0,-1,0c-1,0,-1,0,-1,0l-1,0l0,-1l0,-1c1,0,1,0,1,0c1,0,1,0,1,-1c0,0,1,0,1,0l0,-1c0,0,1,0,1,0c0,0,-1,-1,-1,-1c0,0,0,-1,-1,-1c0,0,0,-1,-1,-1c0,-1,-1,-1,-1,-2c-1,0,-1,0,-1,-1c0,0,-1,0,-1,0c-1,0,-1,0,-1,0c0,0,-1,-1,-1,-1c0,0,0,-1,0,-1c0,0,0,-1,0,-1c0,-1,0,-1,0,-1c0,0,1,0,1,0c0,0,0,1,1,1c0,1,1,1,1,2c1,0,2,1,2,2c1,0,1,1,2,2c0,0,1,0,1,1l0,1c0,-1,1,-1,1,-2c0,0,0,-1,0,-1c0,-1,0,-2,0,-2c0,0,0,-1,0,-1c0,-1,0,-2,0,-2c0,0,0,-1,0,-1l0,-1l1,0c0,1,0,1,0,1c0,0,1,0,1,0c0,1,0,1,0,1c0,0,-1,1,-1,1c0,1,0,1,0,2c0,0,0,1,0,1c0,1,0,1,0,1c0,1,-1,2,-1,2c0,1,0,1,0,1c0,1,0,1,0,1c0,1,0,1,0,1c0,0,0,1,0,1c0,0,0,1,0,1ZM393.5,587.5l0,1c-1,0,-1,0,-1,0c0,0,1,0,1,0l1,0c0,-1,0,-1,0,-1ZM358.5,539.5l0,-1l0,-1l0,-8l1,-3l0,11c0,1,0,1,0,1c0,1,0,1,-1,1ZM130.5,527.5c0,0,1,0,1,0c1,0,1,0,1,0c1,0,1,0,2,0c0,0,0,1,0,1l0,1c0,0,-1,0,-1,0c0,0,-1,0,-1,0c0,1,0,1,-1,1l-1,-1l2,0c1,0,1,-1,2,-1c-1,0,-1,0,-1,0c-1,0,-1,0,-1,0c0,0,-1,0,-1,0c0,0,-1,0,-1,0c0,-1,0,-1,0,-1ZM59.5,529.5l1,-1c0,0,1,0,1,0c1,0,1,0,1,0c1,1,1,1,1,1c0,1,0,1,-1,1c0,1,0,1,0,1l-1,0c0,0,-1,0,-1,0l-1,0l2,0c0,-1,1,-1,1,-1l-1,0c0,-1,0,-1,0,-1c-1,0,-1,1,-2,1c0,0,0,-1,0,-1ZM279.5,576.5c1,0,1,0,1,-1c1,0,1,0,2,0c0,0,1,0,1,1c0,0,1,0,1,0c-1,1,-1,1,-1,1c0,1,0,1,-1,1l-1,0l-1,0l1,0c1,-1,1,-1,2,-1c-1,0,-1,0,-1,0c0,0,-1,0,-1,0c0,0,-1,0,-1,0c0,0,-1,0,-1,0c0,0,0,-1,0,-1ZM126.5,576.5c0,0,1,0,1,-1c0,0,1,0,1,0c1,0,1,0,2,1c0,1,0,1,0,1c-1,1,-1,1,-1,1c-1,0,-1,0,-1,0c0,0,-1,0,-1,0c0,0,-1,0,-1,0l2,0c1,-1,1,-1,1,-1c-1,0,-1,0,-1,0c-1,0,-1,0,-1,0c-1,0,-1,0,-1,0c0,0,0,-1,0,-1ZM51.5,572.5c0,0,1,0,1,0c1,0,1,0,1,0c1,0,1,0,2,0c0,0,0,1,0,1l0,1c0,0,-1,0,-1,0l-1,0l-1,0l-1,0l2,0c1,0,1,-1,2,-1c-1,0,-1,0,-1,0c0,0,-1,0,-1,0c0,0,-1,0,-1,0c0,0,-1,0,-1,0l0,-1ZM295.5,526.5l0,-1c0,0,-1,-1,-1,-1c0,-1,0,-2,0,-2l0,-1c1,0,1,0,1,1c0,0,0,1,0,1l0,1c0,1,0,1,0,1l0,1ZM386.5,573.5l0,-1c0,0,0,-1,0,-1c0,-1,0,-2,-1,-2l1,0l0,-1l1,1c0,0,0,1,0,1l0,1c0,1,0,1,0,1c0,0,-1,0,-1,1ZM54.5,582.5l-2,-1l1,-2l2,1ZM54.5,591.5c-1,0,-2,0,-2,0c-1,0,-1,0,-1,-1c-1,0,-1,0,-1,-1c-1,0,-1,-1,-1,-2l0,-1c0,0,0,-1,1,-1c0,-1,0,-1,0,-1l1,-1l0,1l0,1c-1,0,-1,0,-1,0c0,0,0,1,0,1c0,0,0,1,0,1l0,1c1,0,1,0,1,0c0,1,0,1,1,1c1,0,1,0,2,0c1,0,1,0,2,0c1,0,1,-1,2,-1c0,0,0,-1,0,-1c0,-1,0,-1,0,-1c0,-1,0,-1,0,-1c0,0,0,-1,0,-1l-1,-1l0,-1l0,-2c0,0,1,1,1,1c0,1,0,1,0,1c0,0,1,1,1,1l0,1l0,1c0,0,0,1,0,1c0,1,0,1,0,2c-1,1,-1,1,-2,2c0,0,-1,0,-1,1c-1,0,-2,0,-2,0ZM94.5,575.5c0,0,-1,0,-2,1c-1,0,-3,1,-4,1c-1,1,-2,1,-2,1c0,1,0,1,0,1c0,0,-1,0,-1,0l0,1l1,0l2,1c0,0,1,1,1,1c0,1,1,1,1,2c0,0,0,1,0,1c0,0,0,1,0,1c0,1,-1,1,-1,1l-1,1c-1,0,-1,0,-2,0l-1,0c0,0,-1,0,-1,0l-1,0c0,0,0,-1,0,-1c-1,0,-1,0,-1,0l-1,0c0,0,0,1,-1,1l-1,0c-1,0,-1,0,-2,0l-1,-1l0,-1c0,0,0,-1,0,-1l-1,1l-1,0l-1,0c0,0,-1,0,-1,0l-1,0l0,-1c0,-1,1,-1,1,-2c1,0,1,0,2,-1c1,0,1,0,1,0l0,-1l0,-1l1,0l0,1l0,1c0,0,0,1,0,1l1,2l0,1l1,0l1,0c0,0,1,0,1,0c1,0,1,0,2,0c0,0,0,-1,0,-1c0,0,1,0,1,0c0,1,1,1,1,1l1,0l1,0l1,0l1,0l1,0c0,-1,1,-1,1,-1c0,0,-1,-1,-1,-1c0,0,-1,-1,-2,-2c0,0,-1,0,-1,0c0,0,-1,0,-1,0c0,-1,0,-1,0,-1c-1,-1,-1,-1,-1,-1l0,-1l1,-1l0,-1l1,0c0,0,1,-1,3,-1c1,-1,2,-1,4,-2c0,0,1,0,2,0ZM91.5,591.5l-5,2c1,0,1,-1,1,-1l4,-2ZM82.5,584.5l-2,-1l1,-2l2,1ZM80.5,573.5l0,1c1,1,1,1,1,1l0,-1l1,0l0,-1l0,1c0,0,1,0,1,0l0,-1l0,-1l1,0l0,1l0,1l-1,0c0,1,0,1,0,1l-1,0c-1,1,-1,1,-1,1c-1,0,-1,0,-1,-1l0,-1ZM85.5,571.5l-6,2c0,0,0,-1,1,-1l5,-3ZM75.5,579.5l-2,-1l0,1l-2,-1l1,-1l1,1l1,-1l2,0ZM75.5,583.5l-1,0l0,1c-1,0,-1,0,-1,0l1,0c1,0,1,0,1,0l1,0ZM74.5,574.5l-5,2l1,-1l5,-3c0,1,0,1,-1,1c0,0,0,1,0,1ZM69.5,574.5l1,-1l5,-3c-1,1,-1,1,-1,2ZM141.5,578.5l-1,-1l-1,2l-2,-1l1,-2l2,1l1,-1l1,1ZM142.5,586.5c0,1,0,1,-1,1c0,0,-1,1,-1,1c-1,0,-1,0,-2,0l-1,0c0,0,-1,0,-1,0c-1,-1,-1,-1,-1,-2c0,1,-1,1,-1,1c0,1,0,1,-1,1l-2,0c0,0,0,1,0,1c0,0,0,1,0,1c-1,1,-1,1,-1,1c0,1,-1,1,-1,1c0,1,-1,1,-1,1l-1,0c-1,0,-1,0,-1,0c-1,0,-1,0,-2,0c0,0,-1,0,-1,0c0,-1,0,-1,0,-1c0,0,1,0,1,0l1,1c0,0,1,-1,1,-1c0,0,1,0,1,0c1,-1,1,-1,1,-1c0,0,1,-1,1,-1l1,-1c0,0,0,-1,0,-1c-1,0,-1,0,-1,0c-1,0,-1,0,-1,0c0,-1,0,-1,-1,-1c0,-1,0,-1,0,-1l0,-1c1,0,1,0,1,0c0,0,0,-1,0,-1l1,0c0,-1,0,-1,0,-1c1,0,1,0,1,0c0,0,0,1,1,1l0,1c0,1,0,1,0,1c1,0,1,0,1,0c0,0,1,0,1,0c1,0,1,0,2,-1c0,0,0,-1,0,-1l0,-1l-1,-7l1,-2l1,11c0,0,0,1,0,1c1,0,1,0,1,0l1,0c0,0,1,0,2,0c1,0,1,0,2,-1c0,-1,0,-1,0,-1c0,0,-1,0,-1,0c0,1,-1,1,-1,1c0,0,-1,0,-1,0c0,-1,0,-1,0,-1c-1,0,-1,-1,-1,-1c0,-1,0,-1,1,-1c0,0,0,-1,0,-1c0,0,0,-1,0,-1c1,0,1,-1,1,-1c1,0,1,1,1,1c1,0,1,1,1,1l0,1c1,0,1,1,1,1c0,1,0,1,0,1c0,1,0,1,0,2c0,0,-1,0,-1,0ZM139.5,582.5c1,0,1,1,1,1l1,-1c0,0,0,-1,-1,-1c0,0,-1,1,-1,1ZM139.5,569.5c0,-1,0,-1,0,-1c1,0,1,-1,1,-1c0,1,0,1,0,1c1,0,1,0,1,1l0,1l-1,0l1,1l0,1l-1,-1l-1,1c0,1,-1,1,-1,1l-1,0l-1,0l1,0l1,-1l1,-1l0,-1c0,0,-1,0,-1,0l0,-1c0,0,1,0,1,0ZM140.5,569.5l-1,0l1,1l0,-1ZM134.5,569.5c0,-1,0,-1,1,-1c0,0,0,-1,0,-1l1,0c0,1,0,1,0,1l0,1l0,1l0,1l0,1l-1,-1l0,1l-1,0c0,1,0,1,-1,1l-1,0l1,0l0,-1c0,0,1,0,1,0l0,-1l1,0l-1,0l0,-1l0,-1ZM135.5,569.5l0,1l0,-1ZM129.5,585.5c0,0,-1,0,-1,0c0,0,0,1,0,1c1,0,1,0,1,0l1,0c0,0,0,-1,0,-1c-1,0,-1,0,-1,0ZM122.5,591.5l-1,-1l1,-1l1,1ZM119.5,587.5c0,0,1,0,1,0c0,-1,0,-1,0,-1l1,0c0,0,1,0,1,0l1,0l0,1l0,1l-1,-1l-1,0l-1,0l-1,1c0,0,0,1,0,1l0,1c0,0,0,1,0,1l0,1l0,1c-1,0,-1,1,-1,1c0,0,0,-1,0,-1c0,0,-1,0,-1,0l0,-1c0,-1,0,-2,0,-2c0,-1,0,-2,0,-2c0,0,-1,0,-1,0l-1,0l-3,0l-1,0c0,0,0,-1,0,-1l0,1l0,1c0,1,-1,1,-1,1c0,0,-1,0,-1,-1c0,0,-1,-1,-1,-1l0,-1c0,0,-1,0,-1,0c-1,0,-1,0,-1,1c0,1,0,1,0,1l0,1c0,1,0,1,0,1l0,2l1,2c0,1,0,1,0,1l0,1l-1,1l0,-1l0,-1l0,-1l-1,-3l0,-1l0,-1l0,-2c0,-1,1,-1,1,-2l1,0l0,-1l1,0l0,-1l1,0c0,1,1,1,2,2l2,0l1,0l1,0l1,0c0,0,1,0,2,0c0,0,0,-1,1,-1l0,1l-1,1c0,0,0,1,0,2c0,1,0,2,0,2c0,0,0,-1,0,-1c0,0,0,-1,0,-1c0,-1,0,-1,0,-1l1,0l0,-1ZM124.5,596.5l-4,2c0,-1,0,-1,0,-1l4,-2ZM120.5,596.5l-5,2c1,-1,1,-1,1,-1l4,-2ZM105.5,577.5l1,0c0,0,1,0,1,0c1,0,1,0,2,0c0,0,0,1,0,1l-1,1l-1,0c0,0,-1,1,-1,1c-1,0,-1,-1,-1,-1l2,0c0,0,1,-1,1,-1l-1,0c-1,0,-1,0,-2,0c0,-1,0,-1,0,-1ZM173.5,585.5c0,0,-1,0,-2,1c-1,1,-2,1,-3,1c-1,1,-2,1,-3,1l-1,0c0,0,-1,0,-1,0c-1,-1,-1,-1,-1,-3l0,1l0,1c0,0,-1,0,-1,0c0,1,-1,1,-1,1c0,0,-1,0,-1,0c1,0,1,0,1,0c1,0,1,0,1,0l1,0c0,1,0,1,0,1c0,1,0,1,0,1c0,1,0,1,0,1c0,0,-1,0,-1,0c0,1,0,1,-1,1c-1,1,-1,1,-2,1c-1,1,-2,1,-3,1c-1,0,-1,0,-2,0c-1,-1,-1,-1,-1,-1c-1,-1,-1,-1,-1,-1c0,-1,-1,-1,-1,-2c0,-1,1,-1,1,-2c0,-1,0,-1,1,-2c0,1,0,1,0,2c-1,0,-1,1,-1,1l0,1c1,0,1,1,1,1c1,1,2,1,3,1c1,0,1,0,1,0c0,0,1,0,1,0c0,0,1,0,1,0c1,-1,1,-1,2,-1c0,0,1,-1,1,-1c0,0,-1,0,-2,0c0,-1,-1,-1,-1,-1c0,-1,0,-1,0,-1c0,-1,0,-1,1,-1l1,0c0,0,0,-1,0,-1c1,0,1,0,1,0l0,-1c0,0,1,0,1,0c0,-1,0,-1,0,-1c0,0,0,-1,0,-1l-1,-7l1,-2l1,11c0,0,0,1,0,1c1,0,1,0,1,0l1,0c1,0,2,0,2,0c0,-1,-1,-1,-1,-1c0,-1,0,-1,0,-2c0,-1,0,-1,0,-1l1,-1c0,0,0,-1,1,-1l1,0l1,0c1,0,1,0,1,0c0,0,1,0,1,1l-1,0l-1,0l-1,0c0,0,-1,0,-1,0c0,1,-1,1,-1,1c0,0,0,1,0,1c0,0,1,0,1,1c0,0,1,1,2,1l1,0c0,-1,0,-1,1,-1l1,0l1,-1ZM165.5,575.5l4,-2l0,1l-4,2ZM160.5,570.5c0,1,0,2,0,2l0,-1c0,-1,0,-1,0,-1l0,-1l-1,0l0,-1l1,-1l0,1l0,1l0,1ZM226.5,584.5c0,0,-1,0,-1,0l0,1l1,0c0,-1,0,-1,0,-1ZM226.5,592.5c0,0,-1,0,-1,0l-1,0c0,1,-1,1,-1,1l-1,0c0,0,-1,0,-1,-1c0,0,-1,0,-1,0c0,0,1,0,1,0c1,0,1,0,1,0c1,0,1,0,1,0l0,-1c1,0,1,0,1,0c1,0,1,0,1,-1c1,0,1,0,1,-1l1,-1c0,0,0,-1,0,-1c0,0,0,-1,0,-1l0,1l-1,0c-1,0,-1,0,-1,0l-1,0c0,-1,0,-1,0,-1c0,-1,0,-1,0,-1c0,0,0,-1,0,-1c0,0,1,-1,1,-1c0,0,0,-1,0,-1c1,0,1,0,1,0c0,0,1,0,1,0c0,0,0,1,0,1c1,0,1,0,1,1l0,1c0,0,0,1,0,1c0,0,0,1,0,1c0,1,0,2,-1,3l0,1c-1,0,-1,0,-1,1ZM212.5,591.5l-1,0l0,-2l2,1ZM219.5,585.5l-2,0c0,0,-1,0,-1,0l-1,1c0,0,-1,0,-1,0l-1,0l-1,1l-1,0l-1,0c-1,1,-1,1,-2,1l-1,0c-1,0,-1,0,-1,0c-1,0,-1,0,-1,-1c-1,0,-1,0,-1,0l-1,-1c0,0,0,1,0,1l-1,0l-1,1l-1,0l-1,0c-1,0,-1,0,-1,0c-1,-1,-1,-1,-1,-2c-1,1,-1,1,-1,1c-1,1,-1,1,-1,1l-1,0c-1,0,-1,0,-1,0c0,0,-1,0,-1,0c0,0,0,-1,0,-1c-1,0,-1,0,-1,0c-1,0,-1,0,-1,0c0,0,-1,1,-1,1c0,0,-1,0,-1,0l-1,0l-1,0c-1,0,-1,0,-2,-1c0,0,-1,-1,-1,-2l0,-8l1,-2l0,9l0,1l1,1l1,0l1,0c1,0,1,0,2,0c0,0,1,0,1,0c1,0,1,-1,1,-1c0,0,1,0,1,0c0,1,0,1,1,1l1,0c1,0,1,0,1,0c1,0,1,0,1,-1c0,0,0,-1,0,-1l0,-1l0,-7l1,-2l0,11c0,0,1,1,1,1c0,0,1,0,1,0l1,0l1,0l1,0c0,-1,0,-1,0,-1c-1,0,-1,-1,-1,-1c-1,0,-1,0,-1,0l1,-2c0,0,1,0,1,0c0,0,1,0,1,0c1,0,1,0,1,0l1,0l0,1c1,0,1,0,1,1l-1,0c0,1,0,1,0,1l-1,0c0,0,1,1,1,1l1,0l1,0l1,0l1,0c0,0,1,0,1,0c1,0,1,0,1,0l2,-1l1,0l-1,-1l-1,0l-1,0l0,-1l-1,0l-1,1l-1,0c1,-1,1,-1,1,-2c0,0,1,0,1,0l1,0l1,0l1,0l2,1c1,0,1,1,1,1c1,0,1,0,2,0l1,0l1,0ZM211.5,575.5l4,-2l-1,0l0,1l-4,2ZM202.5,575.5l5,-2l-1,0l0,1l-4,2ZM195.5,566.5l1,0l1,0c0,0,1,0,1,0c1,0,1,0,1,1c0,0,-1,1,-1,1c-1,1,-1,1,-1,1c-1,0,-1,0,-1,0l-1,0l1,-1c1,0,2,0,2,-1l-1,0c-1,0,-1,0,-2,0l-1,1l0,-1c0,0,1,0,1,-1ZM190.5,584.5l-1,-1l1,-2l1,1ZM188.5,578.5l5,-2l-1,1l-4,2ZM259.5,585.5c0,1,0,2,0,3c0,0,-1,0,-1,0l0,1l-1,0l2,1l-1,0l0,1l-1,0l0,1l-1,0c0,0,-1,1,-1,1l-1,0l-1,0l-1,1l-1,1l-1,1l-3,0l-3,0c0,0,-1,0,-1,-1l-1,-1c-1,-1,-2,-1,-3,-1l-1,-1l-1,0l0,-1l-1,0l0,-1l-1,0l1,-1l-1,-1l0,-1c0,-1,0,-1,0,-1l0,-1l0,-1c0,0,0,-1,0,-1c1,-1,1,-1,1,-1l0,-1l-1,0l1,-1l1,0l0,-1l1,0l0,-1l1,0l1,0l2,-1l1,-1c0,-1,1,-1,1,-1l3,0l3,0l1,1l0,1l1,0l2,1l1,0c0,0,1,0,1,1l1,0l0,1c1,0,1,0,2,1l-2,0l1,1l0,1l1,0l0,1l0,1ZM250.5,596.5l0,-1l1,-1l1,-1c1,0,1,0,1,0l1,0l1,0c0,-1,0,-1,1,-1l1,-1l1,-1l-1,0l0,-1l1,0l0,-1l0,-1l1,0l0,-1l0,-1c0,0,-1,-1,-1,-2l0,-1l-1,0l0,-1l1,0c0,-1,-1,-1,-1,-1l-1,-1l-1,0l0,-1l-1,0l-2,-1l-1,0l0,-1l-1,0l0,-1l-1,0l-2,0l-1,0l-2,0l-1,1l-1,1l-2,1l-1,0l0,1l-1,0l-1,0l0,1c0,0,-1,0,-1,1l1,0l-1,1l0,1l-1,0l0,1l0,1l0,1l0,1l0,1l1,0l0,1l1,0l0,1l-1,0l1,1l1,1l1,1l1,0l2,0c0,0,0,1,1,1l0,1c1,0,1,1,1,1l3,0ZM256.5,581.5l-1,0l-1,-1l-1,0l0,-1c-1,0,-1,0,-1,0l1,0l1,0c1,1,1,1,1,1ZM256.5,590.5l-1,1l-1,1l-1,0l-1,0l0,-1c1,0,1,0,1,0l1,0c0,0,1,-1,1,-1ZM251.5,592.5c0,1,0,1,0,1c0,1,-1,1,-1,1l-3,0l-3,0c0,0,-1,0,-1,-1l0,-1c0,-1,0,-1,1,-1l3,0l3,0l1,0l0,1ZM251.5,578.5c0,1,0,1,0,1c0,0,-1,1,-1,1l-3,0l-3,0c-1,0,-1,0,-1,-1l0,-1l0,-1l1,0l3,0l3,0c0,0,1,0,1,1ZM250.5,581.5l1,0l1,0l1,0l1,1l1,0c0,0,1,0,1,0l0,1l0,1l1,0l0,1l0,1c0,1,0,1,-1,1l0,1l0,1l-1,0l-1,0l-1,1l-1,0l-1,0c0,0,-1,0,-1,0l-3,0l-3,0l-1,0l-1,0c0,0,-1,0,-1,0c0,0,-1,0,-1,-1l-2,0l-1,-2l0,-1l0,-1c0,-1,0,-1,0,-1l1,-1l0,-1l2,0l1,-1c0,0,1,0,1,0c1,0,1,0,1,0l1,0l3,0ZM250.5,589.5l0,1l1,0l1,0c1,0,1,0,1,0l0,-1l1,0c0,0,0,-1,0,-1l1,1l1,-1l0,-1l0,-1l0,-1c0,0,0,-1,0,-1c0,-1,0,-1,0,-1c0,-1,-1,-1,-1,-1l-1,0l-1,0l0,-1l-1,0c-1,0,-1,0,-1,0l-1,0l-3,0l-3,0l-1,0l-1,0c-1,0,-1,0,-1,0l-1,1l-1,0c0,0,-1,0,-1,1l0,1l-1,1l0,1l1,1c0,1,0,1,1,2l1,-1c0,0,0,1,0,1l1,0l0,1l1,0c1,0,1,0,1,0c0,0,1,0,1,0l0,-1l3,0l3,0ZM249.5,585.5l1,1l0,1c0,0,-1,0,-1,1l-1,0l-1,0c0,-1,0,-1,0,-1l0,-1c0,0,1,0,1,0l0,-1l1,0ZM248.5,586.5l-1,1c0,0,1,0,1,0l1,0c0,0,0,-1,0,-1l-1,0ZM245.5,584.5c0,0,0,1,0,1l0,1l0,1l1,0l1,0c0,0,-1,0,-1,1l-1,0c-1,0,-1,0,-1,-1l1,-1l-1,0l0,-1l1,-1ZM238.5,581.5l0,-1l1,0l1,-1l1,0l1,0l-1,0c0,0,1,0,1,0c-1,0,-1,0,-1,1l-1,0l-1,0l0,1l-1,0ZM238.5,590.5l1,0c0,0,0,1,1,1l1,0l1,0c0,1,-1,1,-1,1l1,0l-1,0c-1,0,-2,0,-2,-1l-1,0l0,-1ZM311.5,587.5c0,1,0,1,0,1l-1,-1c0,0,-1,0,-1,0l-1,-1l0,1c0,0,-1,0,-1,1l-1,0l-1,0l-1,0l0,-1l-1,0c0,-1,0,-1,0,-1c0,1,-1,1,-1,1c0,0,-1,1,-1,1c-1,0,-1,-1,-2,-2l0,1c0,1,-1,1,-1,1l-1,0c-1,0,-1,-1,-1,-2c0,1,-1,1,-1,1c0,1,-1,1,-2,1l-1,0c-1,0,-1,0,-1,0l-1,0l0,-1l-1,0c0,0,-1,0,-1,0c0,0,-1,1,-1,1l-1,0l-1,0c-1,0,-1,1,-1,1c0,0,0,1,0,1c0,1,-1,1,-1,1c0,1,0,1,-1,1c0,1,0,1,-1,1c0,0,-1,0,-1,0c0,0,-1,0,-1,0c-1,0,-1,0,-2,0l-1,0c0,-1,0,-1,0,-1l1,0c0,0,1,0,1,1c0,0,1,-1,1,-1c1,0,1,0,2,0c0,-1,0,-1,0,-1c1,0,1,-1,1,-1c0,0,1,0,1,-1c0,0,0,-1,0,-1l1,0c-1,0,-1,0,-1,0l-1,0l-1,0c0,-1,0,-1,0,-1c0,-1,0,-1,0,-1l0,-1c0,0,0,-1,0,-1c1,0,1,0,1,0c0,-1,0,-1,0,-1c0,0,1,0,1,0c1,0,1,1,1,1l0,1c1,1,1,1,1,1l1,0c1,0,1,0,1,0c0,0,1,0,1,0l1,-1l1,0c0,1,0,1,1,1l1,0l1,0l1,0l1,0c0,0,1,-1,1,-2l0,1c1,1,1,1,1,1c1,0,1,0,2,0c0,0,0,-1,1,-1l0,-1c0,1,0,1,0,1c1,1,1,1,1,1l1,0c0,-1,0,-1,1,-1l0,-1c1,2,1,2,2,2l1,0c1,0,1,0,1,0l1,0l0,-1c1,-1,1,-1,1,-2l1,0c1,0,1,0,1,0c1,1,1,1,1,1l0,1l0,1l0,1l-1,0ZM309.5,585.5l1,0l1,1c0,0,0,-1,0,-1c0,-1,-1,-1,-1,-1c0,0,-1,0,-1,1ZM307.5,573.5l0,1c0,1,1,1,1,1l0,-1l1,-1l0,1l1,0l0,-1l0,-1l0,1l0,1c0,1,0,1,0,1l-1,0l-1,0c0,1,0,1,0,1c-1,0,-1,0,-1,-1l0,-1ZM311.5,571.5l-5,2c0,0,0,-1,0,-1l6,-3ZM296.5,577.5c1,0,1,0,1,0c1,0,1,0,2,0c0,0,1,0,1,0c1,0,1,0,1,0c0,0,0,1,0,1c0,0,-1,0,-1,1l-1,0c-1,0,-1,0,-1,0l-1,0l1,0c1,0,2,-1,2,-1c0,0,-1,0,-1,0l-1,0c0,0,-1,0,-1,0l-1,0l0,-1ZM290.5,583.5l-1,-1l-1,1l-1,-1l0,-1l2,1l1,-2l1,1ZM287.5,572.5c1,0,1,0,1,-1c0,0,1,0,1,0c0,0,1,1,1,1l0,1l-1,0c0,0,0,1,0,1l1,0l0,1l-1,0l-1,0l0,1c-1,0,-1,0,-1,0l-1,0l0,1l-1,0c0,0,0,-1,0,-1l1,0l1,0c0,-1,0,-1,0,-1l1,-1l-1,0c0,0,0,-1,0,-1c0,0,0,-1,0,-1ZM289.5,572.5l-1,0c0,0,0,1,0,1l1,0ZM282.5,585.5c0,0,0,1,0,1c0,0,1,0,1,0l1,0c-1,0,-1,0,-1,0c0,0,0,-1,0,-1l-1,0ZM268.5,591.5c1,0,1,0,1,0l1,0c1,0,2,0,3,-1l1,-1c0,0,1,-1,1,-1c0,0,0,-1,1,-1c0,0,0,-1,0,-1l-1,-1l0,-1l-1,0l1,-1l0,-1l1,1c0,0,0,1,0,1l0,1l0,1c0,1,0,1,0,2c0,1,0,1,0,1c0,0,-1,1,-1,1c0,0,0,1,-1,1l-1,1c0,0,-1,0,-1,0l-1,0l-1,0c-1,0,-1,0,-1,-1ZM270.5,576.5l5,-2c0,0,-1,1,-1,1l-4,2ZM272.5,573.5l5,-3c-1,1,-1,2,-1,2l-5,2ZM267.5,588.5l0,-1l0,-1l0,-9l1,-2l0,11c0,0,0,1,0,1c0,0,-1,1,-1,1ZM339.5,584.5l1,-1l0,-1l1,0l1,-1l1,0c1,0,1,-1,2,-1l1,0c-1,0,-1,0,-1,0l-1,0l-1,-1c0,0,-1,0,-1,0l-1,0c0,0,0,1,0,1l0,-1c0,-1,0,-1,0,-1l1,0c1,-1,1,-1,1,-1c1,0,1,0,1,0l0,1l1,0l2,0l1,1l1,0l1,0l1,0c1,0,1,0,1,0l-1,2l-1,0l-2,0l-2,0l-1,0l-1,0l-1,1l1,0l2,1c0,1,1,1,2,1l1,0c0,0,1,0,1,0l1,0l0,2l-1,0l-2,0l-1,0l-1,0l-1,0l-1,0l-2,1c-1,1,-1,1,-1,1l-1,0l-1,0l-1,0l-1,0c-1,0,-2,0,-2,-1c-1,0,-1,-1,-1,-2l-1,-8l1,-2l1,9l0,1l0,1c0,0,1,0,2,0l1,0l1,0l1,0l1,0l1,0l1,0l1,-1l1,0l-1,0l0,-1l-1,0l-1,0l-1,0l-1,0l-1,0c1,0,1,0,1,0l-1,0ZM350.5,594.5l-5,2c1,-1,1,-1,1,-1l4,-2ZM343.5,592.5l-2,-1l1,-2l2,1ZM336.5,578.5l4,-2l0,1l-4,2ZM329.5,592.5l-1,-1l1,-2l1,1ZM327.5,588.5l-1,0l-1,0c-1,0,-2,0,-2,-1c-1,0,-1,-1,-1,-2l-1,-8l1,-2l1,9l0,1l0,1c1,0,1,0,2,0l1,0l1,0c0,0,1,0,1,0c1,0,1,0,2,0c0,0,0,-1,0,-1l-1,-1l0,-1l1,-1l0,1l0,1l0,1c0,0,0,1,0,1c0,0,0,1,0,1c0,0,-1,1,-2,1c0,0,-1,0,-1,0ZM325.5,575.5l5,-3c-1,1,-1,1,-1,1l-5,3ZM326.5,571.5l5,-2c0,1,0,1,0,1l-5,3ZM407.5,592.5l-2,-1l1,-2l2,1ZM404.5,588.5l-1,0l-1,0c-1,0,-1,0,-2,-1c0,0,-1,-1,-1,-2l0,-8l1,-2l0,9l0,1l1,1l1,0l1,0l1,0c1,0,1,0,2,0c0,0,1,0,1,0c0,0,0,-1,0,-1l0,-1l-1,-1l1,-1l0,1l1,0l0,1l0,1c0,0,0,1,0,1l-1,0c0,0,0,1,0,1c0,0,-1,1,-1,1c-1,0,-1,0,-2,0ZM406.5,594.5l-4,2c0,-1,1,-1,1,-1l3,-2ZM394.5,570.5c0,0,1,0,1,0c0,0,1,0,1,0c0,0,1,0,1,0c0,1,0,1,0,1c0,0,0,1,-1,1l-1,0l-1,0l2,-1c0,0,1,0,1,0c-1,0,-1,0,-1,0l0,-1c-1,0,-1,1,-1,1c-1,0,-1,0,-1,0l0,-1ZM376.5,580.5l-1,-1l1,-2l1,1ZM385.5,585.5l-2,0c-1,0,-1,0,-2,0l-1,1l-1,0l-1,1c-1,0,-1,0,-1,0c-1,0,-1,0,-1,0c-1,1,-2,1,-2,1l-1,0l-1,0c0,0,0,1,0,1c0,1,-1,1,-1,2c0,0,0,1,0,1c-1,0,-1,0,-1,1c0,0,-1,0,-1,0c0,0,-1,0,-1,1c0,0,-1,0,-1,0c-1,0,-1,-1,-2,-1c0,0,-1,0,-1,0c0,0,0,-1,0,-1c0,1,1,1,1,1l1,0c0,0,1,0,1,-1c0,0,1,0,1,0c1,0,1,-1,1,-1c0,0,1,0,1,-1c1,-1,1,-1,1,-2l0,-1c0,0,-1,0,-1,-1l1,0c0,-1,0,-1,0,-1c0,0,0,1,0,1l1,0l1,0c1,0,1,0,1,0c1,0,1,0,2,0c0,0,1,0,1,0l2,-1l-1,-1l-1,0l-1,-1l-1,0l0,1l-1,0c0,-1,0,-1,1,-2c1,0,1,0,1,0c0,0,1,0,1,0l1,0l2,1l1,0c0,0,1,1,1,1c0,0,1,0,1,0c0,0,1,0,1,0l1,0ZM382.5,591.5l-4,2c1,-1,1,-1,1,-1l4,-2ZM367.5,575.5l5,-2l-1,0l0,1l-4,2ZM364.5,580.5l-2,-1l-1,1l-1,-1l1,-1l1,1l1,-1l2,0ZM362.5,588.5c0,0,-1,0,-1,0c0,-1,-1,-1,-1,-2c0,0,0,-1,0,-1l1,-1l0,-1l1,-1c0,-1,0,-1,1,-1c0,0,1,0,1,1c1,0,1,1,1,1l0,1l0,1c0,1,0,2,-1,3c-1,0,-1,0,-2,0ZM362.5,584.5l-1,0l0,1l0,1c0,0,1,0,1,0l1,0l1,0l0,-1l0,-1c-1,0,-1,0,-2,0ZM364.5,596.5l-4,2c0,-1,1,-1,1,-1l4,-2ZM93.5,545.5l-1,-1l-1,1l-1,-1l0,-1l2,1l1,-2l1,1ZM90.5,542.5l-1,0l-1,0l0,1c0,0,-1,0,-1,1c0,0,0,1,-1,1c0,0,0,1,-1,1c0,1,-1,1,-1,1l-1,0l-1,0c0,0,-1,0,-1,0c-1,-1,-1,-1,-1,-1l1,0c1,0,1,0,2,0c0,0,0,-1,1,-1c0,0,1,0,1,0c0,-1,0,-1,1,-1c0,0,0,-1,0,-1l1,-1l-1,0c0,-1,-1,-1,-1,-1c-1,0,-1,0,-1,-1l0,-1l0,-1l1,0l0,-1l1,0c0,0,1,0,1,0l0,1l1,0c0,0,0,1,0,1c0,0,0,1,0,1c0,0,1,0,1,0c0,0,1,0,1,0c1,0,1,0,2,0c0,0,1,-1,1,-1c0,-1,0,-1,0,-1c0,0,-1,-1,-1,-1l1,-2c0,0,0,1,0,1c1,1,1,1,1,1c0,1,0,1,0,1c0,0,0,1,0,1c0,1,0,1,-1,1c0,1,-1,1,-1,1c-1,0,-1,1,-2,1ZM93.5,526.5c0,-1,0,-1,0,-1c0,0,1,-1,1,-1c0,1,0,1,0,1c1,0,1,0,1,1l0,1l-1,0l1,1l0,1l-1,-1l-1,1c-1,1,-1,1,-1,1l-1,0l-1,0l1,0l1,-1l1,-1l0,-1c-1,0,-1,0,-1,0l0,-1l1,0ZM94.5,526.5l-1,0l0,1l1,0l0,-1ZM84.5,533.5c0,0,0,-1,0,-1c0,0,1,0,1,-1c0,0,1,0,1,0c0,0,1,0,1,1l-1,0l0,1l0,-1l-1,0c0,0,-1,1,-1,1c1,0,1,0,1,1l1,0l1,0l-4,2c0,0,0,-1,0,-1c1,0,1,0,1,0c0,-1,0,-1,0,-2ZM86.5,539.5l-1,0c0,1,0,1,1,1c0,0,1,0,1,0l0,-1l-1,0ZM81.5,527.5c1,0,1,0,1,0c1,0,1,0,2,0c0,0,1,0,1,0c0,0,1,0,1,0c0,0,0,1,0,1c-1,0,-1,0,-1,1l-1,0l-1,0c0,1,0,1,0,1l-1,0l0,-1l1,0c1,0,1,-1,2,-1c0,0,-1,0,-1,0c0,0,-1,0,-1,0c0,0,-1,0,-1,0c0,0,-1,0,-1,0c0,-1,0,-1,0,-1ZM78.5,541.5l-1,0c0,0,-1,0,-1,-1l-1,0c0,1,-1,1,-1,1l0,1l-1,0l-1,0c-1,0,-1,0,-1,-1c0,0,-1,0,-1,0c0,-1,0,-1,0,-1c-1,0,-1,0,-1,0c0,0,-1,1,-1,1l-1,0l-1,0l0,1l-1,0l-1,0l0,1l0,1c-1,0,-1,1,-1,1c0,0,-1,1,-1,1l-1,0c0,1,0,1,0,1c-1,0,-1,0,-1,0c0,0,-1,0,-1,0c-1,0,-1,0,-2,0c0,-1,0,-1,-1,-1c1,0,1,0,1,0l1,0c0,0,1,0,1,0c1,0,1,-1,1,-1c1,0,1,0,1,0c1,-1,1,-1,1,-1c0,0,0,-1,1,-1l0,-1c0,0,-1,0,-1,0c0,-1,0,-1,0,-1c0,0,-1,0,-1,0l0,-1l-1,0l1,-1l0,-1l0,-1c0,0,1,0,1,0l1,0c0,0,1,0,1,1c0,0,0,1,0,1c0,0,0,1,0,1c1,0,1,0,1,0c0,0,1,0,1,0c0,0,1,0,1,0c0,0,1,0,1,-1c1,0,1,0,1,0l1,0l1,1l1,0l1,0c1,0,1,0,1,0l1,-1l0,-1c1,0,1,-1,1,-1l1,0c0,-1,0,-1,0,-1c1,0,1,0,1,1c1,0,1,1,1,1l0,1l0,1c0,0,0,1,-1,1ZM76.5,539.5l1,0l1,0c0,0,0,-1,0,-1c0,0,-1,0,-1,0c0,0,-1,0,-1,0c0,1,0,1,0,1ZM77.5,545.5l-4,2c0,-1,1,-1,1,-1l4,-2ZM69.5,537.5l-2,-1l1,-1l1,1ZM69.5,526.5c0,-1,0,-1,0,-1c1,0,1,-1,1,-1c0,1,0,1,0,1c1,0,1,0,1,1l0,1l-1,0l1,1l0,1l-1,-1l0,1l-1,0c0,1,-1,1,-1,1l-1,0l1,-1l1,-1l0,-1c0,0,-1,0,-1,0l0,-1c0,0,1,0,1,0ZM70.5,526.5l-1,0l1,1l0,-1ZM62.5,539.5c-1,0,-1,0,-1,0l1,0c0,1,0,1,0,1c0,0,1,0,1,0l0,-1c-1,0,-1,0,-1,0ZM51.5,535.5l-1,-1l0,-1l2,1ZM51.5,545.5c-1,0,-1,0,-2,0c0,-1,-1,-1,-1,-1c-1,0,-1,-1,-1,-1c0,-1,-1,-1,-1,-2c0,0,0,-1,0,-1c0,0,1,0,1,0c0,0,0,-1,0,-1c0,0,0,-1,0,-1l0,-1c1,0,1,0,1,0c0,0,0,1,0,1c0,0,0,1,-1,1c0,1,0,1,0,1c0,1,0,1,1,1c0,0,0,1,0,1c0,0,1,0,1,0l0,1c1,0,1,0,2,0c1,0,2,0,2,-1c1,0,1,0,2,-1c0,0,0,-1,0,-1c0,0,0,-1,0,-1c0,-1,0,-1,0,-1c0,0,0,-1,0,-1c-1,0,-1,0,-1,-1l1,-2l0,1l1,1l0,1c0,1,0,1,0,1c0,0,0,1,0,1l0,1c0,0,0,1,0,2c0,0,-1,1,-1,1c-1,1,-1,1,-2,1c-1,1,-2,1,-2,1ZM47.5,528.5l4,-2l0,1l-4,2ZM111.5,540.5l-1,0c0,1,0,1,0,1c0,0,1,0,1,0c0,0,0,-1,0,-1ZM112.5,543.5c0,0,-1,0,-1,0c-1,0,-1,0,-1,0c-1,0,-1,0,-2,0c-1,0,-1,0,-1,0c0,0,0,-1,0,-1c0,0,0,-1,0,-1c0,0,1,0,1,0c0,0,1,0,1,0c0,0,0,-1,0,-1c1,0,1,0,1,0c0,-1,0,-1,0,-1c0,0,0,-1,0,-1c-1,0,-1,0,-1,-1c0,0,-1,-1,-1,-1c-1,-1,-1,-1,-2,-2l-1,0c0,-1,0,-1,0,-1l-1,0c-1,0,-1,-1,-1,-1c0,0,0,-1,0,-1c0,-1,0,-1,0,-1l0,-1c1,1,1,1,1,1c1,1,1,1,2,2c1,0,1,1,2,2c0,0,1,1,2,2c0,0,0,1,0,1c1,0,1,1,1,1c0,0,0,-1,0,-1c0,-1,0,-2,1,-2c0,-1,0,-2,0,-2c0,0,0,-1,0,-1c0,-1,0,-1,0,-2c-1,0,-1,0,-1,0l0,-1l1,-1c0,0,0,1,0,1c0,0,1,0,1,0l1,0c-1,1,-1,1,-1,1c0,1,0,1,0,1l0,1c0,0,0,1,0,1c0,1,0,1,0,1c-1,1,-1,1,-1,2c0,0,0,1,0,1c0,1,0,1,-1,2c0,0,1,0,1,0c0,0,0,1,0,1c0,1,0,1,0,1c0,1,0,1,0,1l0,1ZM108.5,526.5l6,-3c-1,0,-1,1,-1,1l-5,3ZM153.5,542.5l0,-2l0,-1l-1,-8l1,-3l1,11c0,0,0,1,0,1c0,0,-1,0,-1,0c0,1,0,1,0,2ZM146.5,542.5c-1,0,-1,0,-1,0c0,-1,-1,-1,-1,-1c0,-1,0,-1,0,-2c0,1,-1,1,-1,1l0,1c-1,0,-1,0,-2,0c0,0,-1,0,-2,0c0,0,-1,0,-1,0c0,0,-1,0,-1,-1c0,0,0,-1,0,-1l1,-1c0,1,0,1,0,1c0,0,1,0,1,0c1,0,1,0,1,0c0,0,1,0,1,0l1,0l1,0l1,-1c0,0,-1,0,-1,-1c0,0,0,-1,0,-2c0,0,0,-1,0,-1l0,-1c0,0,1,-1,1,-1l0,2l0,1c0,1,0,2,1,2c0,1,0,1,0,2l0,1c0,0,1,0,1,1l1,0c0,1,0,1,0,1c1,0,1,0,1,0l0,-1c0,-1,0,-1,0,-3c0,0,0,-1,0,-2l0,-1c0,-1,0,-1,0,-2c-1,-1,-1,-2,-1,-3l0,-1l0,-1c1,0,1,0,1,0c0,0,0,1,0,1c1,0,1,0,1,0c0,1,0,1,0,1c0,1,0,1,0,1c0,1,0,1,0,2c0,0,0,1,0,3c0,0,0,1,0,1c0,0,0,1,0,1c0,2,0,2,0,2c0,1,0,1,0,1l0,1c0,0,0,1,-1,1l-1,0l-1,0l0,-1ZM147.5,523.5l0,1c0,1,0,1,1,1l0,-1l0,-1l1,0l0,1c1,0,1,0,1,-1l0,-1l0,1l0,1c0,1,0,1,0,1l-1,0l-1,0c0,1,0,1,-1,1c0,-1,0,-1,0,-1l0,-1ZM151.5,521.5l-5,2c0,0,0,-1,0,-1l6,-3ZM142.5,531.5l-1,-1l1,-1l1,0ZM141.5,545.5l-5,2c1,-1,1,-1,1,-1l4,-2ZM135.5,544.5l-1,-1l-1,1l-1,-1l0,-1l2,1l1,-2l1,1ZM130.5,538.5l1,0c0,0,1,0,1,0l1,0c0,0,0,-1,0,-1c1,0,1,0,1,0c0,0,0,-1,-1,-1c0,0,0,-1,0,-1c0,-1,0,-1,0,-1c1,0,1,0,1,0l0,1c0,1,0,1,0,1c0,0,0,1,0,1c0,1,0,1,0,1l0,1c0,0,-1,0,-1,0c-1,0,-1,0,-2,0c0,1,0,1,0,1c0,1,0,1,0,1c0,1,0,2,0,2c-1,1,-1,1,-2,2c0,0,-1,1,-1,1c-1,0,-2,0,-3,0c0,0,-1,0,-1,0c-1,0,-1,0,-2,0c0,-1,0,-1,-1,-2c0,0,0,-1,0,-1c0,-1,0,-1,0,-1c0,0,0,-1,0,-1l0,-1c0,0,1,0,1,0l0,-1l1,0l-1,1l0,1l0,1c0,0,0,1,0,1c0,0,1,0,1,1c1,0,1,0,1,0c0,0,1,0,2,0c1,0,1,0,2,0c1,0,1,-1,2,-1c0,-1,0,-1,0,-1l0,-1l0,-1c0,-1,-1,-1,-1,-1c0,-1,0,-1,0,-1l0,-1l0,-1c0,0,1,0,1,0c0,0,0,1,0,1c0,0,0,1,0,1ZM126.5,537.5l-2,-1l1,-1l1,1ZM122.5,528.5l4,-2l0,1l-5,2ZM187.5,538.5c-1,0,-1,0,-1,0c0,1,0,1,1,1c0,-1,0,-1,0,-1ZM187.5,545.5c-1,0,-1,1,-1,1l-1,0c0,0,-1,0,-1,0l-1,0c0,0,-1,0,-1,0c-1,0,-1,0,-1,-1l1,0c1,0,1,0,1,0c0,0,1,0,1,0c1,0,1,0,1,0c0,-1,1,-1,1,-1c1,-1,1,-1,1,-1c0,0,0,-1,1,-1c0,-1,0,-1,0,-1c0,-1,0,-1,0,-1c0,0,-1,0,-1,1l-1,0l0,-1c0,0,-1,0,-1,0c0,0,0,-1,0,-1c0,0,0,-1,0,-1c0,-1,0,-1,1,-1c0,-1,0,-1,0,-1c1,0,1,0,1,0c0,0,1,0,1,0l0,1c0,0,1,0,1,0c0,1,0,1,0,1c0,1,0,1,0,2c0,0,0,1,0,1c0,1,0,2,-1,2c0,1,0,1,-1,1c0,1,0,1,0,1ZM184.5,532.5l4,-2c0,1,0,1,-1,1l-4,2ZM180.5,545.5l-1,-1l1,-1l1,1ZM178.5,542.5l-1,0l-1,-1c-1,0,-1,0,-1,0c-1,-1,-1,-1,-1,-1l0,-1l0,-1c0,0,0,-1,0,-1c0,1,-1,2,-2,2l-1,0c0,0,0,1,0,1c1,1,1,1,1,1c0,1,-1,2,-1,2c0,1,0,1,-1,2c-1,0,-1,1,-2,1c0,0,-1,0,-2,0c0,0,-1,0,-2,0c0,0,-1,0,-1,0c0,-1,-1,-1,-1,-2c0,0,0,-1,0,-1c0,-1,0,-1,0,-1c0,0,0,-1,0,-1l0,-1l1,-1l0,1l0,1l0,1c0,0,0,1,0,1l1,1l1,0c0,0,1,0,1,0c1,0,2,0,2,0c1,0,2,-1,2,-1c1,-1,1,-1,1,-1l0,-1l-1,-1c0,-1,0,-1,0,-1c0,-1,0,-1,0,-1l-1,-1l1,-1c0,0,0,1,1,1l1,0l1,0l1,-1l0,-1l1,1l0,1l0,1l0,1c0,1,1,1,1,1l1,0l1,0c0,0,1,0,1,0c1,0,1,-1,1,-1c0,-1,0,-1,0,-1l0,-1l-1,0l1,-2c0,0,1,1,1,1l0,1l0,1l0,1c0,1,0,1,0,1l-1,0c0,1,0,1,-1,1c0,0,-1,1,-1,1ZM178.5,528.5l4,-2l0,1l-1,0l-4,2ZM176.5,545.5l-2,-1l0,1l-2,-1l1,-1l2,0l0,-1l2,1ZM171.5,527.5c0,0,1,0,1,0c0,0,1,0,1,0c1,0,1,0,2,0c0,0,0,1,0,1l0,1c0,0,-1,0,-1,0c0,0,-1,0,-1,0c0,1,0,1,-1,1l-1,-1l2,0c1,0,1,-1,2,-1c-1,0,-1,0,-1,0c-1,0,-1,0,-1,0c0,0,-1,0,-1,0c0,0,-1,0,-1,0c0,-1,0,-1,0,-1ZM166.5,537.5l-1,-1l1,-1l1,1ZM162.5,528.5l5,-2l-1,1l-4,2ZM228.5,545.5l-1,-1l1,-1l1,1ZM226.5,542.5l-1,0l-1,0l0,-1c-1,0,-1,0,-1,0c-1,-1,-1,-1,-1,-1c0,1,0,1,0,1c-1,0,-1,1,-2,1l-1,0c-1,0,-1,0,-1,-1c0,0,-1,0,-1,0c0,-1,-1,-1,-1,-1c-1,0,-1,1,-1,1c0,0,-1,0,-1,0c0,0,-1,0,-1,0l0,1l-1,0c0,0,0,-1,-1,-1c0,0,-1,0,-1,0c0,-1,0,-2,0,-3c-1,1,-1,1,-1,1c-1,1,-2,1,-2,2c-1,0,-1,0,-2,0l0,1l-1,0l-1,0c0,0,-1,0,-1,0l-1,0l-1,0l-1,0l-1,0c-1,0,-2,-1,-2,-1c-1,-1,-1,-2,-1,-2l0,-1c0,0,0,-1,0,-1l0,-1l1,0c0,0,0,1,0,1c0,1,0,2,2,3c0,0,1,0,2,0c0,0,1,0,1,0l1,0l1,0l1,0l1,0c2,-1,4,-2,4,-3l1,-1l-1,-6l1,-2l1,10c0,1,0,1,0,1c0,1,0,1,1,1l1,0l1,0c0,0,1,0,1,-1c1,0,1,0,1,0c0,0,1,0,1,0l1,1l1,0l1,0c0,0,1,0,1,0c0,0,1,0,1,0c0,-1,0,-1,0,-1c0,0,0,-1,0,-1c0,-1,0,-1,0,-1l0,-1c1,0,1,0,1,-1l0,2c0,1,0,1,0,1c0,0,0,1,0,1c1,0,1,1,1,1l1,0l1,0c0,0,1,0,1,0c1,0,1,-1,2,-1c0,-1,0,-1,-1,-1l0,-1l1,-2c0,0,0,1,0,1l0,1l0,1l0,1c0,1,0,1,0,1c-1,1,-1,1,-2,1c0,0,-1,1,-1,1ZM226.5,528.5l4,-2l0,1l-4,2ZM224.5,546.5l-1,-1l-1,1l-2,-1l1,-1l2,1l0,-2l2,1ZM220.5,527.5l1,0l1,0c0,0,1,0,1,0c1,0,1,0,1,0c0,0,0,1,0,1c0,0,-1,0,-1,1c0,0,-1,0,-1,0c-1,1,-1,1,-1,1l-1,0l0,-1l2,0c0,0,1,-1,1,-1l-1,0c-1,0,-1,0,-2,0l-1,0l1,0c0,-1,0,-1,0,-1ZM215.5,537.5l-1,-1l1,-1l1,1ZM213.5,532.5l5,-2l-1,0c0,1,0,1,0,1l-4,2ZM203.5,536.5c0,1,-1,1,-2,1c-1,0,-1,0,-1,0l0,-1l1,0l1,0l0,-1c-1,0,-1,0,-1,0l0,-1l0,-1c1,-1,1,-1,2,-2l0,1l0,1c-1,0,-1,0,-1,0c0,0,0,1,0,1l1,0c1,0,1,0,1,1l0,1c0,0,-1,0,-1,0ZM200.5,528.5l4,-2l-1,1l-4,2ZM266.5,545.5l-2,-1l1,-1l1,1ZM273.5,539.5l-2,0c0,0,-1,0,-2,0c-1,0,-1,0,-1,0l-1,1l-1,0c0,0,-1,0,-1,1c0,0,-1,0,-1,0c-1,0,-2,0,-2,1l-1,0c-1,0,-1,-1,-2,-1l-1,0l0,-1l-1,0l-1,0l0,1c0,0,-1,0,-1,0l-1,0l-1,0l0,1c-1,0,-1,-1,-2,-1c0,0,-1,-1,-1,-2c0,1,0,2,-1,2l0,1l-1,0c0,0,-1,-1,-1,-1c0,0,-1,0,-1,0l0,-1c-1,0,-1,1,-1,1c-1,0,-1,1,-2,1l-2,0c0,0,-1,-1,-2,-1c0,-1,0,-1,0,-2l-1,-8l1,-3l1,10l0,1c0,1,1,1,1,1l2,0c0,0,1,0,1,0c0,0,1,0,1,-1c0,0,1,-1,1,-1l0,1l1,1l1,0c0,0,1,0,1,0c0,0,1,-1,1,-1l0,-1c0,-1,0,-1,0,-1l0,-1l-1,-6l1,-2l1,10c0,1,0,1,0,1l1,0c0,1,0,1,0,1l1,0c1,0,1,0,1,0l1,0l0,-1l1,0l-1,-1l-1,0l1,-2l1,0c0,-1,1,-1,1,-1c1,0,1,1,1,1c1,0,1,0,1,0c0,0,0,1,0,1l0,1l-1,1c1,0,1,1,1,1l1,0l1,0l1,0c1,0,1,0,2,-1c0,0,1,0,1,0l2,0l1,-1l-2,0l-1,-1l-1,0c-1,0,-1,0,-1,0l-1,0c0,0,1,-1,1,-1l1,-1c1,0,1,0,1,0c0,0,1,0,1,1l2,1l1,0c1,0,1,0,1,0c0,0,1,0,1,0c1,0,1,0,2,0l1,0ZM264.5,528.5l4,-2l0,1l-4,2ZM256.5,528.5l4,-2l0,1l-4,2ZM248.5,520.5c1,0,1,0,1,0c1,0,1,-1,2,-1c0,0,1,1,1,1c0,0,1,0,1,0l0,1c-1,0,-1,0,-1,1l-1,0l-1,0l-1,0l1,0c1,0,1,-1,2,-1c0,0,-1,0,-1,0c0,0,-1,0,-1,0c0,0,-1,0,-1,0l-1,0l0,-1ZM245.5,537.5l-1,-1l0,-1l2,1ZM242.5,529.5l4,-2l0,1l-5,2ZM322.5,542.5l0,-2l0,-1l-1,-8l1,-3l1,11c0,0,0,1,0,1c0,0,-1,0,-1,0c0,1,0,1,0,2ZM314.5,540.5c0,0,1,0,1,0c0,0,1,0,1,0c0,0,0,-1,0,-1c1,0,1,0,1,-1l0,-1l-1,-7l0,-1l0,-1l1,0c0,1,0,1,0,1c0,0,1,0,1,0c0,1,0,1,0,1c0,1,-1,1,-1,1c0,1,0,1,0,2c0,0,0,1,0,3c0,0,1,1,1,1l0,1c0,0,0,1,-1,1c0,0,0,1,0,1c0,1,0,1,0,1c-1,0,-1,0,-1,0c0,0,-1,0,-1,0l-1,1l-1,0l-1,0c-1,0,-2,-1,-2,-1c0,0,-1,0,-1,0c0,0,-1,0,-2,0c0,0,-1,0,-1,1l-1,0c0,0,-1,-1,-1,-1l0,1l0,1c0,0,0,1,-1,2c-1,1,-1,1,-1,1c0,0,-1,1,-1,1c0,0,-1,0,-1,0c0,0,-1,0,-1,0c-1,0,-1,0,-2,0c0,0,-1,0,-1,-1c0,0,1,0,1,0l1,0c0,0,1,0,1,0c1,0,1,0,1,-1c1,0,1,0,1,0c0,0,1,-1,1,-1c0,0,0,-1,0,-1c1,0,1,-1,1,-1c0,-1,0,-1,0,-1c0,-1,-1,-1,-1,-1c0,0,1,0,1,0l0,-1l0,-1l0,1l1,0l0,1l1,0l1,0c0,0,1,0,1,0l1,0c-1,-1,-1,-1,-1,-1c0,0,0,-1,0,-1c0,0,0,-1,1,-1c0,-1,0,-1,0,-1c0,-1,1,-1,1,-1c0,0,1,-1,1,-1c1,0,1,1,1,1c1,0,1,1,1,1l0,1c0,1,0,1,-1,2l0,1c0,0,1,0,1,0l1,0ZM314.5,524.5c0,-1,1,-1,1,-1c1,0,1,0,1,0c1,0,1,0,2,0c0,0,0,1,0,1c0,0,0,1,0,1c0,0,-1,0,-1,1c0,0,-1,0,-1,0l-1,0l-1,0l2,-1c1,0,1,0,2,0c-1,-1,-1,-1,-1,-1c0,0,-1,0,-1,0c0,0,-1,0,-1,0c0,0,-1,1,-1,1l0,-1ZM310.5,533.5l-1,-1l-1,2l-1,-1l1,-2l1,1l1,-1l1,1ZM310.5,536.5c-1,0,-1,0,-1,1c-1,0,-1,0,-1,0c0,1,0,1,0,1c1,0,1,0,1,1c1,0,1,-1,1,-1c1,0,1,0,1,0c0,-1,0,-1,0,-1c-1,-1,-1,-1,-1,-1ZM310.5,522.5l0,-1c1,0,1,0,1,0l1,0c0,0,0,1,0,1c0,0,0,1,0,1c0,1,0,1,-1,1l1,0l0,1l-1,0l-1,1c0,0,-1,0,-1,0l0,1l-1,0l0,-1l1,0l0,-1l1,0l0,-1l0,-1l0,-1ZM311.5,523.5l0,-1l-1,0l0,1l1,0ZM299.5,531.5c0,0,0,-1,1,-1l1,0c0,0,1,0,1,0c1,1,1,1,1,1c0,1,-1,1,-1,1c0,0,0,1,0,1c-1,0,-1,0,-1,0c-1,0,-1,0,-1,0l-1,0l1,0c1,-1,2,-1,2,-1c0,0,-1,-1,-1,-1l-1,0l-1,1l-1,0c0,-1,0,-1,0,-1c0,0,1,0,1,0ZM295.5,542.5l0,-2l0,-1l0,-8l1,-3l0,11c0,0,0,1,0,1c0,1,0,1,-1,2ZM287.5,535.5l-2,-1l1,-1l2,1ZM287.5,545.5c-1,0,-2,0,-2,0c-1,-1,-1,-1,-1,-1c-1,0,-1,-1,-1,-1c-1,-1,-1,-1,-1,-2c0,0,0,-1,0,-1c0,0,0,-1,0,-1l1,0c0,0,0,-1,0,-1l0,-1l1,0c0,0,0,1,-1,1c0,0,0,1,0,1c0,1,0,1,0,1c0,1,0,1,0,1c0,0,1,1,1,1l1,0l0,1c1,0,1,0,2,0c1,0,1,0,2,-1c1,0,1,0,2,-1c0,0,0,-1,0,-1c0,0,0,-1,0,-1c0,-1,0,-1,0,-1c0,0,-1,-1,-1,-1l0,-1l0,-2c0,0,1,0,1,1l0,1c0,0,1,0,1,1c0,1,0,1,0,1c0,0,0,1,0,1l0,1c0,0,0,1,0,2c-1,0,-1,1,-2,1c0,1,-1,1,-1,1c-1,1,-2,1,-2,1ZM283.5,528.5l4,-2l0,1l-1,0l-4,2ZM372.5,532.5l-1,-1l-1,1l-2,-1l1,-1l2,1l1,-2l1,1ZM373.5,540.5l-1,1c0,0,-1,0,-1,0c-1,0,-1,1,-2,1l-1,0c0,0,0,-1,0,-1l0,1l-1,1c0,0,0,1,0,2c0,0,-1,0,-1,0c0,1,0,1,-1,1c0,0,0,1,-1,1c-1,0,-1,0,-1,0l-1,0c0,0,-1,0,-1,0c-1,0,-1,0,-1,-1l1,0c1,0,1,0,2,0l1,-1l1,0c0,0,0,-1,0,-1c1,0,1,-1,1,-1c0,0,0,-1,1,-1c0,-1,0,-1,0,-1c-1,0,-1,0,-1,0c0,-1,0,-1,0,-1l0,-1l1,-1l0,1l0,1c1,0,1,0,1,0l1,0c1,0,1,0,2,0c1,-1,1,-1,2,-1c0,0,0,-1,0,-1c0,0,0,-1,0,-1c0,0,-1,1,-1,1c0,0,-1,0,-1,0c0,0,-1,0,-1,0c-1,-1,-1,-1,-1,-2l1,-1c0,-1,0,-1,0,-1c1,-1,1,-1,1,-1c1,0,1,0,1,0c1,1,1,1,1,2l0,1c1,0,1,0,1,1c0,0,0,1,0,1c0,0,0,1,0,1c0,0,-1,0,-1,1ZM370.5,535.5c0,1,0,1,0,1c1,0,1,0,1,0l1,0l0,-1l-1,0c0,0,-1,0,-1,0ZM369.5,525.5l4,-2l0,1l-4,2ZM363.5,528.5l4,-2l0,1l-4,2ZM358.5,520.5c1,0,1,-1,2,-1c0,0,1,1,1,1c1,0,1,0,1,0l0,1c0,0,-1,0,-1,1l-1,0c-1,0,-1,0,-1,0l-1,0l1,0c1,0,2,-1,2,-1c0,0,-1,0,-1,0l-1,0l-1,0l-1,0l0,-1l1,0ZM355.5,540.5c0,0,-1,1,-1,1c-1,0,-1,0,-2,0c-1,1,-3,1,-4,1c-1,0,-1,0,-2,0c0,0,-1,0,-1,0c-1,0,-1,0,-1,0c-1,0,-2,0,-3,0c0,0,-1,0,-2,0c-1,0,-1,0,-2,0c0,0,-1,0,-1,0c-1,-1,-2,-1,-2,-1c-1,0,-2,0,-2,-1c-1,0,-1,0,-2,-1l0,-1c0,1,0,1,1,1c0,0,1,0,1,0c1,0,1,1,2,1c0,0,1,0,2,0c0,0,1,0,2,0c0,0,1,0,2,0c0,0,1,0,1,0c1,0,2,0,2,0c1,0,2,0,2,0c2,0,3,0,3,0c0,0,1,0,1,0c1,0,1,0,2,0l1,0c0,0,1,-1,1,-1c1,0,1,0,1,0c1,0,1,0,1,0c0,0,1,-1,1,-1c0,0,0,-1,0,-1c-1,0,-1,0,-1,-1l1,-1l0,1c1,1,1,1,1,1l0,1c0,0,-1,0,-1,1c0,1,0,1,-1,1ZM346.5,535.5l-1,1l-2,-1l-1,1l-1,-1l1,-1l1,1l1,-1ZM338.5,532.5l1,0l3,-1l5,-2l5,-2l-1,2l-1,0l-1,0l-1,1l-6,2l-4,1ZM403.5,538.5l-1,0c0,1,1,1,1,1c1,-1,1,-1,1,-1c0,0,-1,0,-1,0ZM403.5,545.5c0,0,0,1,-1,1c-1,0,-1,0,-2,0c-1,0,-1,0,-2,0l-1,-1c1,0,1,0,1,0l1,0l1,0c0,0,1,0,1,0c1,-1,1,-1,2,-1c0,-1,0,-1,0,-1c0,0,1,-1,1,-1c0,-1,0,-1,0,-1c0,-1,0,-1,0,-1l0,1l-1,0l-1,0l0,-1c0,0,-1,0,-1,0c0,0,0,-1,0,-1c0,0,0,-1,0,-1c1,-1,1,-1,1,-1c0,-1,0,-1,1,-1c1,0,1,0,1,0l1,1c0,1,0,1,0,1c0,1,0,1,0,2c0,0,0,1,0,1c0,1,0,2,-1,2c0,1,0,1,0,1c0,1,-1,1,-1,1ZM400.5,532.5l4,-2c0,1,0,1,0,1l-4,2ZM389.5,531.5l-1,-1l1,-2l1,1ZM393.5,540.5l0,1l-1,0c-1,0,-1,0,-2,1l-1,0l-1,0l-1,0c0,0,0,-1,0,-1c0,-1,0,-1,0,-1c0,-1,0,-1,0,-1c0,1,1,1,1,1c1,0,1,0,2,0c0,0,1,-1,1,-1c0,0,1,0,1,0c0,0,1,0,1,0c0,-1,0,-1,0,-1c-1,-1,-1,-1,-1,-1l-1,-1l-1,0l0,-1l-1,0l1,-2l1,0c0,0,0,1,0,1c0,0,1,0,1,0l0,1c0,0,1,0,1,1c0,0,0,1,0,1c0,0,1,1,1,1c0,1,0,1,0,1c-1,1,-1,1,-1,1ZM387.5,525.5l4,-2l0,1l-4,2ZM383.5,542.5l0,-2l0,-1l0,-8l0,-3l1,11c0,0,0,1,0,1c0,1,-1,1,-1,2ZM395.5,541.5l0,-1l0,-1l0,-9l1,-2l0,11c0,0,0,1,0,1c0,0,-1,1,-1,1ZM397.5,543.5l-3,2c0,-1,0,-1,0,-1l4,-2ZM62.5,589.5l0,-1l0,-1l0,-9l0,-2l1,10c0,1,0,1,0,1l0,1c0,0,-1,1,-1,1ZM60.5,574.5l4,-2l0,1l-4,2ZM97.5,585.5l0,-1l0,-2l0,-8l1,-3l0,11c0,0,0,1,0,1l0,1l-1,1Z" class="g1_28" />
</svg>