<?xml version="1.0" encoding="UTF-8" standalone="no"?>
<!DOCTYPE svg PUBLIC "-//W3C//DTD SVG 1.1//EN"
"http://www.w3.org/Graphics/SVG/1.1/DTD/svg11.dtd">
<svg version="1.1" xmlns="http://www.w3.org/2000/svg" xmlns:xlink="http://www.w3.org/1999/xlink">
<defs>
<style type="text/css"><![CDATA[
.g1_23{
stroke: #1F1A17;
stroke-width: 1;
stroke-linecap: butt;
stroke-linejoin: miter;
}
]]></style>
</defs>
<path fill-rule="evenodd" d="M88.5,52.5l4,-3l0,1l-4,3ZM138.5,110.5c0,1,0,1,-1,2l0,1c-1,0,-1,1,-1,1l1,0l0,1l-1,0c0,0,0,1,-1,1c0,1,-1,1,-2,1l-1,1l-1,0l-1,0l-1,1l0,1l-4,0l-1,-1c0,-1,-1,-1,-1,-1c-1,0,-2,-1,-2,-1l-1,0l-1,-1l-1,0l0,-1l-1,0l0,-1l1,0l0,-1l-1,0l0,-1l0,-1l-1,0l0,-1l0,-1l0,-1l1,0l0,-1c0,0,0,-1,0,-1l1,0l-1,-1l1,-1l1,-1l1,0l2,-1l1,-1l1,0l1,-1c0,0,0,-1,0,-1l4,0l0,1l1,0l0,1l1,0l2,1l1,0c0,1,0,1,0,1l1,0l0,1l1,0c0,0,1,1,1,1l-1,1l1,0l0,1l0,1l1,1ZM129.5,120.5l0,-1l1,0l0,-1l1,0c0,0,1,0,1,-1l1,0c1,0,1,-1,2,-1c0,-1,1,-1,1,-1l1,0l0,-1l-1,0l0,-1l1,0l0,-1l0,-1l0,-1c0,-1,0,-2,0,-2c0,-1,0,-1,0,-1c-1,-1,-1,-1,-1,-1l0,-1l1,0c0,0,-1,-1,-1,-1l-1,0l0,-1l-1,0l-2,-1l-1,0c0,0,-1,-1,-1,-1l-1,-1l-4,0l-1,1c0,0,-1,1,-1,1l-2,0l-1,1l-1,0l0,1l-1,0c0,0,0,1,-1,1l1,0l0,1l-1,1l0,1l0,1l0,1l0,1l0,1c0,1,0,1,0,1l1,0l0,1l-1,0l0,1l1,0l1,0l0,1l1,0l0,1l1,0l1,0l1,1c0,0,1,0,1,0l0,1l1,0c0,1,0,1,0,1ZM134.5,105.5l-1,0l0,-1l-1,0c0,0,-1,0,-1,0c0,0,0,-1,0,-1l1,0c1,0,1,0,1,1l1,0l0,1ZM134.5,115.5l-1,1l-1,0l-1,1l0,-1c0,0,1,0,1,0l1,-1l1,-1l0,1ZM130.5,117.5l0,1c-1,0,-1,0,-1,0l-4,0l-1,0c0,-1,0,-1,0,-1c0,-1,0,-1,0,-1c1,0,1,0,1,-1l4,0l0,1l1,0ZM130.5,103.5l0,1c0,0,-1,0,-1,0l-4,0l-1,0l0,-1c0,-1,0,-1,0,-1l1,0l0,-1l4,0l0,1c1,0,1,0,1,0l0,1ZM129.5,105.5c1,0,1,0,1,0c1,0,1,0,1,0c1,0,1,0,1,1l1,0l1,0l1,1l0,1l0,1l0,1l0,1l0,1c0,0,0,1,0,1c-1,0,-1,0,-1,0l-1,0l-1,1l-1,0l0,1l-1,0l-1,-1l-4,0c0,0,-1,1,-1,1c-1,0,-1,0,-2,-1l-1,0l0,-1l-1,0l-1,-2l0,-1c0,-1,0,-1,0,-1c0,-1,0,-1,0,-1l0,-1c1,-1,1,-1,1,-1l1,0l1,0l0,-1l1,0l1,0l1,0ZM129.5,114.5c1,0,1,0,1,0l1,0l1,0l1,-1l1,0l0,-1l1,0l0,-1l0,-1c0,-1,0,-1,0,-2c0,0,0,-1,-1,-1c0,0,0,-1,0,-1l-1,1l-1,-1l-1,-1l-1,0l-1,0l0,1l-4,0l0,-1l-1,0c-1,0,-1,0,-1,0l-1,0l0,1c-1,1,-1,1,-1,1l-1,-1c0,0,0,1,0,1l-1,1l0,1l0,1l0,1l0,1c1,0,1,1,1,1l1,0l1,0l0,1l1,0l1,0l1,0l4,0ZM127.5,109.5l0,1l0,1l0,1l-1,0c0,-1,0,-2,0,-3l0,-1l0,1l1,0c0,-1,1,-1,1,-1c0,1,0,1,0,1l1,0l0,-1c0,0,0,1,0,1c0,0,-1,0,-1,0c-1,0,-1,0,-1,0ZM120.5,105.5l0,-1l1,0l1,-1l1,0c0,1,0,1,0,1c0,0,-1,0,-1,0l-1,0l0,1l-1,0ZM120.5,115.5l0,-1c1,1,1,1,1,1l1,0l0,1l1,0l0,1l-1,0l0,-1c-1,0,-1,0,-2,-1ZM172.5,103.5l-1,-1l-1,1l-1,-1l0,-1l2,0l1,-1l1,1ZM174.5,110.5c-1,0,-1,1,-1,1c-1,1,-2,1,-2,1c-1,0,-1,0,-2,0l-1,0l-2,0c0,0,-1,0,-1,0l0,-1c0,0,0,-1,-1,-1l0,1l-1,0c0,1,-1,1,-1,1c0,0,-1,0,-2,0l-1,0l-1,0c0,-1,0,-1,0,-1l0,-1l0,-1l1,0c0,0,0,1,0,1l1,0l1,0c0,0,1,0,1,0l1,0l1,0c0,0,0,-1,0,-1c0,0,0,-1,0,-1l0,-2l-1,-1l1,-1l0,-1l1,2l0,1l0,2c0,1,0,1,0,1c0,0,1,1,1,1l0,1c1,0,1,0,1,0l1,0l1,0c0,0,1,0,2,-1c1,0,1,0,2,0c0,-1,0,-1,0,-1l0,-1l-1,0c0,0,0,1,0,1c0,0,-1,0,-1,0l-1,0c0,-1,0,-1,0,-1c0,0,-1,0,-1,-1c0,0,1,-1,1,-1c0,-1,0,-1,0,-1c1,-1,1,-1,2,-1l1,0c0,0,0,1,0,1c0,0,0,1,0,1l1,0c0,1,0,1,0,1c0,1,0,1,0,2c0,0,0,1,0,1ZM170.5,106.5c0,0,1,0,1,1l1,0c0,-1,0,-1,0,-1c-1,0,-1,0,-1,0l-1,0ZM169.5,96.5l5,-2l-1,1l-4,2ZM160.5,97.5c1,0,1,0,1,0c1,-1,1,-1,2,-1c0,0,1,1,1,1c0,0,1,0,1,0l0,1c-1,0,-1,0,-1,0c0,1,0,1,-1,1c-1,0,-1,0,-1,0l-1,0l1,0c1,0,1,-1,2,-1c0,0,-1,0,-1,0l-1,0c0,0,-1,0,-1,0l-1,0l0,-1ZM147.5,116.5l0,-1c0,0,1,0,1,1l1,0c1,0,1,-1,2,-1c1,-1,1,-1,2,-1c0,-1,1,-1,1,-2l0,-1c0,-1,0,-1,0,-1l0,-1l-1,-1l1,-1l0,-1l0,1c1,0,1,1,1,2l0,1c0,1,0,1,0,2c0,0,0,1,0,1l-1,0c0,1,0,1,0,1c0,1,-1,1,-1,1c0,0,0,1,-1,1c-1,0,-1,0,-1,0c0,0,-1,0,-1,0l-1,0l-1,0l-1,0ZM149.5,100.5l5,-2c-1,1,-1,1,-1,1l-5,3ZM150.5,97.5l6,-2c-1,0,-1,1,-1,1l-5,2ZM146.5,112.5l0,-1l0,-1l-1,-8l1,-3l1,11c0,1,0,1,0,1c-1,1,-1,1,-1,1ZM204.5,103.5l-2,-1l1,-1l2,1ZM206.5,106.5l-2,-1l-1,1l-1,-1l1,-1l1,1l1,-2l1,1ZM206.5,110.5c0,0,0,-1,0,-1l0,-1l1,0c0,1,0,1,0,1l0,1c0,0,1,0,1,0l1,0l0,-1c0,0,-1,0,-1,0l0,-1l1,0l0,-1c0,1,0,1,0,1l1,1l0,1l-1,1c0,1,0,1,0,1c0,0,-1,0,-1,0c0,0,-1,0,-1,0c-1,0,-1,0,-1,-1c0,1,0,1,-1,1c0,0,-1,0,-1,0l-1,0c-1,0,-1,0,-1,0c0,0,-1,0,-1,-1c-1,0,-1,0,-2,0c0,0,-1,1,-1,1c0,1,0,1,1,1l1,0c1,0,1,0,1,1c0,0,1,0,1,0l0,1c0,0,0,1,-1,1c0,0,0,1,0,1c-1,0,-2,1,-3,1c-1,1,-2,1,-4,1c-1,0,-1,0,-2,-1c-1,0,-1,0,-2,0c0,-1,0,-1,0,-2c-1,0,-1,-1,-1,-2c0,0,0,-1,1,-1c0,-1,0,-2,1,-2l0,-1c0,0,0,1,0,1c0,0,0,1,0,1c-1,1,-1,1,-1,2c0,1,1,1,1,2c1,0,2,1,3,1l1,0c1,0,1,0,1,0c0,0,1,0,1,0c0,-1,1,-1,1,-1l1,0c1,0,1,0,1,0c0,-1,1,-1,1,-1c-1,0,-1,0,-2,0c-1,0,-2,0,-2,-1c0,0,0,-1,0,-1c0,0,0,-1,0,-1c0,0,0,-1,1,-1c0,-1,1,-1,1,-2c1,0,1,0,1,0c0,0,1,0,1,0c0,0,1,0,1,0l0,1l1,0c0,0,1,0,1,0c1,0,1,0,1,0l1,0ZM201.5,96.5l5,-2l-1,1l-4,2ZM192.5,101.5c1,0,1,0,1,0c1,0,1,0,2,0c0,0,1,0,1,0c0,0,1,0,1,1c-1,0,-1,1,-1,1l-1,0c0,1,0,1,0,1l-1,0l-1,0l1,-1c1,0,1,0,2,-1c0,0,-1,0,-1,0c0,0,-1,0,-1,0c0,0,-1,0,-1,0c0,0,-1,0,-1,1l0,-1l0,-1ZM182.5,110.5c0,0,1,0,1,-1c0,0,0,-1,1,-1l1,0l1,0l0,1l0,1l-1,0l0,-1l-1,0c0,0,-1,1,-1,1l1,0c0,1,0,1,0,1l1,0c1,0,1,0,2,0c0,0,-1,1,-1,1l-4,2c0,-1,0,-1,0,-1l1,-1l0,-1c-1,0,-1,0,-1,-1ZM182.5,117.5l4,-2c0,1,0,1,0,1l-5,2c0,0,1,-1,1,-1ZM179.5,121.5l1,0l4,-2l-1,0c0,1,0,1,0,1l-4,2c0,-1,0,-1,0,-1ZM241.5,111.5c1,0,1,0,1,0c0,0,1,-1,1,-1l1,0l0,-1l0,-2l-1,-6c0,0,0,-1,0,-1l0,-1c0,0,1,0,1,0l0,1c0,0,1,0,1,0c0,0,0,1,0,1c0,0,0,1,0,1l-1,0c0,0,0,1,0,2c0,0,1,1,1,2c0,1,0,1,0,2l0,1l0,1c0,0,-1,0,-1,1l0,1c0,0,-1,0,-1,0l-1,0l-1,0l-1,0l-1,0c0,0,0,-1,-1,-1l-2,-2c0,0,-1,-1,-1,-1l-1,0l0,1c0,1,0,1,0,1c0,1,0,1,-1,1c0,1,0,1,0,1c0,0,-1,0,-1,0c0,0,-1,0,-1,0l-1,0c-1,0,-1,0,-2,0c0,0,0,-1,0,-2l0,2l0,1c0,0,-1,1,-1,1c0,1,0,2,-1,2l-1,0c0,1,0,1,-1,1l-1,0c0,0,-1,0,-1,0l-1,0c0,0,-1,0,-1,0c-1,0,-1,0,-1,-1c-1,0,-1,0,-1,-1l0,-1c0,0,0,-1,0,-2c0,0,0,-1,0,-1l1,-1l1,0l-1,0l0,1c0,0,0,1,0,1c0,0,-1,1,-1,1c0,1,1,1,1,2c1,0,1,0,2,0c0,0,1,1,1,1c1,0,2,-1,3,-1c1,0,1,-1,2,-1c0,0,0,-1,0,-1l0,-1l0,-2c0,0,0,-1,0,-2l0,-1l-1,-7l1,-2l1,11l0,1c0,0,1,0,1,0c0,1,0,1,1,1l1,0c0,0,1,0,1,0c0,0,0,-1,1,-1l1,0c0,0,0,-1,0,-1c0,0,0,-1,0,-1c-1,0,-1,0,-1,-1c-1,0,-1,-1,-1,-1c-1,0,-1,0,-1,0c0,0,-1,0,-1,0l0,-1c0,0,-1,0,-1,0l0,-1c0,0,0,-1,0,-1c0,-1,0,-1,0,-1c0,0,1,0,1,0c0,-1,1,-1,3,-2c1,0,3,-1,4,-2c2,0,3,0,3,0l0,-1l1,0l-1,2l-1,0c0,0,-1,1,-2,1c-2,1,-3,1,-4,2c-2,0,-3,1,-3,1l1,1l1,0l0,1l1,0c1,0,1,1,2,1c0,1,1,1,1,2c1,0,2,1,2,1l2,1l0,1l1,0ZM246.5,115.5l-4,3c0,-1,0,-1,0,-2l4,-2ZM254.5,98.5l1,-1l1,0c0,0,0,1,0,1c0,0,0,1,0,1c0,1,0,1,0,1l0,1l-1,0l-1,1l-1,0l0,1l-1,0l1,-1c0,0,1,-1,1,-1l1,0l0,-1l-1,0l0,-1l0,-1ZM255.5,98.5c0,1,0,1,0,1ZM233.5,93.5c0,0,1,-1,1,-1l1,0c0,0,1,0,1,1c0,0,-1,0,-1,1l0,1l1,0l0,1l-2,0c-1,1,-1,1,-1,1l-1,0l-1,0l1,0l0,-1c1,0,1,0,1,0l1,-1l-1,0c0,0,0,-1,0,-1c0,0,0,-1,0,-1ZM234.5,93.5l0,1l1,0c0,0,0,-1,-1,-1ZM221.5,95.5l1,0c0,1,0,1,0,1c0,-1,0,-1,1,-1l0,-1l0,1c0,0,1,0,1,0l0,-1l0,-1l1,0l0,1l0,1l-1,0c0,1,0,1,0,1l-1,0c-1,1,-1,1,-1,1c-1,0,-1,0,-1,0c0,0,0,-1,0,-1l0,-1ZM224.5,120.5l-4,2c1,0,1,-1,1,-1l4,-2ZM270.5,112.5l0,-1l0,-1l-1,-8l1,-3l1,11c-1,1,-1,1,-1,1c0,1,0,1,0,1ZM265.5,112.5c-1,0,-1,0,-2,-1c0,0,-1,-1,-1,-1c0,0,0,1,0,1c-1,1,-1,1,-2,1c-1,0,-1,0,-2,0c0,-1,0,-2,-1,-3l0,1c0,0,0,1,-1,1l-1,0c-1,0,-1,0,-1,0c-1,0,-1,0,-1,-1c0,0,0,-1,0,-1c1,0,1,-1,1,-1c1,0,1,-1,2,-1l1,0l0,-1l0,-1c1,0,1,-1,1,-1l0,1l0,1l0,3c1,1,1,1,1,1c0,0,1,0,1,0c0,0,1,0,1,0c0,0,1,-1,1,-1c0,-1,0,-1,0,-2c0,-1,0,-1,-1,-2c0,0,0,-1,0,-1l1,-1l0,-1l0,2l1,2l0,2c0,1,0,1,0,1c0,0,1,1,1,1l1,0c0,0,1,0,1,0c0,0,0,-1,0,-1c0,0,0,-1,0,-1l-1,-2l0,-1l0,-1l0,-1l0,-1c0,1,1,1,1,1c0,1,0,1,0,2l0,2c0,0,1,1,1,1c0,1,-1,2,-1,2c0,1,0,1,0,1c-1,1,-1,1,-1,1ZM257.5,107.5c-1,1,-1,1,-1,1c-1,1,-1,1,-1,1c0,0,1,0,2,0ZM304.5,116.5l-1,-1l1,-2l1,1ZM312.5,110.5l-1,0l-1,0c-1,0,-1,0,-2,0l-1,0l-1,0l-1,0l0,1c-1,0,-1,0,-2,0c0,1,0,1,-1,1c0,0,-1,0,-2,0l-1,0c0,0,-1,0,-1,0c0,0,-1,0,-1,0c0,0,-1,-1,-1,-1c-1,0,-1,0,-1,0l-1,0c0,1,0,1,0,1c-1,0,-1,0,-1,0l-1,0l-1,0c-1,0,-1,0,-1,0c-1,0,-1,-1,-1,-2l0,2l0,1c0,0,0,1,-1,1c0,1,0,2,-1,2l-1,0c0,1,0,1,-1,1l-1,0c0,0,-1,0,-1,0l-1,0l-1,0c-1,0,-1,0,-1,-1c-1,0,-1,0,-1,-1l0,-1c0,0,0,-1,0,-2c0,0,0,-1,1,-1l0,-1l1,0l-1,0l0,1c0,0,0,1,0,1c0,0,0,1,0,1c0,1,0,1,0,2c1,0,1,0,2,0c0,0,1,1,1,1c1,0,2,-1,3,-1c1,0,1,-1,2,-1c0,0,0,-1,0,-1l0,-1l0,-2c0,0,0,-1,0,-2l0,-1l-1,-7l1,-2l1,11l0,1c0,0,1,0,1,0c0,1,1,1,1,1l1,0c0,0,1,0,1,-1l1,0l1,0l-1,-1c0,0,-1,0,-1,0c0,0,-1,0,-1,-1l1,-1c0,0,1,-1,1,-1c1,0,1,0,1,0l1,0l1,0l0,1l1,0c0,0,0,1,0,1l-1,1l0,1l1,0l1,1l1,0c0,0,1,0,1,0c0,-1,1,-1,1,-1c1,0,1,0,2,0l1,-1l1,0l-1,0l-1,-1l-1,0l-1,0l-1,0c0,0,0,-1,0,-1c0,0,1,-1,1,-1c0,0,1,0,1,0c1,0,1,0,1,0l1,1l2,0l1,1l1,0l1,0c0,0,1,0,1,0l1,0ZM303.5,99.5l4,-2l0,1l-1,0l-4,2ZM295.5,99.5l4,-2l-1,1l-4,2ZM285.5,96.5l6,-3c0,1,-1,2,-1,2l-5,3ZM336.5,103.5l-2,-1l-1,1l-1,-1l1,-1l1,0l1,-1l1,1ZM337.5,110.5c0,0,0,1,0,1c-1,0,-1,0,-1,0c0,1,-1,1,-2,1c0,0,-1,0,-2,0l-2,0c0,0,-1,0,-1,0l-1,0l0,-1c0,0,0,-1,0,-1l0,1c-1,0,-1,0,-1,0c-1,1,-1,1,-2,1c0,0,-1,0,-1,0l-1,0c-1,0,-1,0,-1,0c0,-1,-1,-1,-1,-1l0,-1l0,-1l1,0c0,0,0,1,0,1l1,0l1,0l1,0c1,0,1,0,1,0l1,0c0,0,0,-1,0,-1l1,0c0,0,0,-1,0,-1l-1,-2l0,-1l0,-1l1,-1l0,2l0,1l1,2c0,1,0,1,0,1c0,0,0,1,0,1c0,0,1,0,1,1l2,0c1,0,2,0,2,-1c1,0,2,0,2,0c1,-1,1,-1,1,-1l0,-1c-1,0,-1,0,-1,0c0,0,0,1,0,1c0,0,-1,0,-1,0c-1,0,-1,0,-1,0c0,0,-1,0,-1,0c0,-1,0,-1,0,-1l0,-1c0,0,0,-1,0,-1c0,-1,1,-1,1,-1c0,-1,1,-1,1,-1c0,0,1,0,1,0c0,0,0,1,1,1c0,0,0,1,0,1c0,1,0,1,0,1c0,1,0,1,0,2c0,0,0,1,0,1ZM334.5,106.5l0,1l1,0l1,0c0,-1,-1,-1,-1,-1c0,0,-1,0,-1,0ZM333.5,96.5l4,-2l0,1l-5,2ZM324.5,97.5l1,0c0,-1,1,-1,1,-1c1,0,1,1,1,1c1,0,1,0,1,0l0,1l-1,0c0,1,0,1,0,1l-1,0c0,0,-1,0,-1,0c-1,0,-1,0,-1,0l2,0c0,0,1,-1,1,-1l-1,0c-1,0,-1,0,-2,0l0,-1ZM189.5,55.5l0,-1l-1,0l0,-1c0,0,0,-1,0,-2c1,0,1,0,1,0c0,-1,0,-1,0,-1l1,0c0,0,0,-1,1,-1l-1,1l0,1l-1,1l0,1l0,1c0,0,1,0,1,0l0,-1l1,1l0,1c0,1,-1,1,-1,1c0,0,-1,-1,-1,-1ZM372.5,55.5c0,0,0,-1,1,-1c0,0,1,0,1,0c1,0,1,0,1,0c1,0,1,1,1,1c0,1,0,1,-1,1c0,0,0,1,0,1c0,0,-1,0,-1,0c0,0,-1,0,-1,0l-1,0l2,0c0,-1,1,-1,1,-1c0,0,0,-1,-1,-1c-1,0,-1,0,-2,1c0,-1,0,-1,0,-1ZM175.5,63.5l0,-1l1,0c0,0,0,-1,1,-1l0,-1l0,-1l-1,-1l0,-1c0,0,0,-1,0,-1l1,1l0,1l0,1l0,1l0,1l1,0l0,-1c1,0,1,0,1,0c1,0,1,0,1,0c0,0,1,0,1,1c0,0,-1,1,-1,1l-1,0c0,0,0,1,-1,1c0,0,-1,0,-1,0ZM179.5,61.5c0,0,-1,0,-1,0l-1,1c1,0,1,0,1,0c0,0,1,0,1,0c0,0,1,0,1,-1c-1,0,-1,0,-1,0ZM58.5,64.5l0,-1c0,0,1,0,1,0c0,0,0,-1,0,-1l0,-1l0,-1l0,-1l0,-1l0,-1l0,1c0,0,0,1,0,1l0,1l0,1l0,1l0,1l1,-1l1,-1l1,0l1,0c0,0,0,1,0,1c0,1,0,1,0,1c0,0,-1,0,-1,0c0,1,-1,1,-1,1c-1,0,-1,0,-1,0ZM61.5,62.5l-1,1l-1,0l1,0l1,0c1,0,1,0,2,-1c0,0,-1,0,-1,0ZM69.5,74.5c0,-1,0,-1,0,-2c0,-1,0,-1,-1,-2l1,0l0,1c0,0,1,0,1,0l0,1c0,0,0,1,0,1c-1,1,-1,1,-1,1ZM87.5,65.5c-1,0,-1,0,-1,0l-1,0l-1,0l-1,-1l0,1l-1,1l-1,0c0,0,-1,0,-1,0l0,1c0,1,0,1,-1,2l0,1c0,0,-1,0,-1,0c0,1,-1,1,-1,1c0,0,-1,0,-1,0c0,0,-1,1,-1,1c-1,0,-1,-1,-2,-1c0,0,-1,0,-1,0c0,-1,0,-1,0,-1c0,0,1,1,1,1l1,0c0,0,1,0,1,-1c1,0,1,0,1,0c1,0,1,-1,1,-1c0,0,1,0,1,-1l1,-1l0,-1l0,-1c0,0,0,-1,0,-1l0,-1l0,1l1,0l1,0l1,0l1,0l1,-1c0,-1,0,-1,1,-2c0,0,0,-1,1,-1c0,0,0,1,1,1c0,0,0,1,0,1l0,1l0,1c0,1,0,1,0,1ZM85.5,63.5l1,1c0,-1,0,-1,0,-1c0,-1,0,-1,-1,-1l0,1c-1,0,-1,0,-1,0c0,0,1,0,1,0ZM81.5,48.5c0,0,1,0,1,-1c0,0,1,0,1,0c1,0,1,0,2,1c0,1,0,1,0,1c-1,1,-1,1,-1,1c0,0,-1,0,-1,0l-1,0c0,0,-1,0,-1,0l2,0c1,-1,1,-1,1,-1c-1,0,-1,0,-1,0c-1,0,-1,0,-1,0c-1,0,-1,0,-1,0c0,0,0,-1,0,-1ZM79.5,76.5l-4,2c0,-1,0,-1,1,-1l4,-2ZM70.5,66.5c0,0,-1,0,-1,0c-1,-1,-1,-2,-1,-2c0,0,0,-1,0,-1l1,-1l0,-1l1,-1c0,-1,0,-1,1,-1c0,0,1,0,1,1c0,0,1,1,1,1l0,1l0,1c0,1,0,2,-1,3c-1,0,-1,0,-2,0ZM70.5,61.5l-1,1c0,1,0,1,0,1l0,1l1,0l1,0l1,0c0,0,0,-1,0,-1l0,-1c-1,0,-1,0,-2,-1ZM119.5,70.5l-2,-1l1,-2l2,1ZM116.5,66.5l-1,0c0,0,-1,0,-1,0c-1,-1,-1,-1,-1,-2c0,0,0,1,-1,1c0,1,0,1,0,1l-1,0l-1,0c-1,0,-1,0,-1,0c-1,0,-1,-1,-2,-1c-1,-1,-1,-1,-1,-1l-1,-1c0,1,-1,1,-1,1c0,1,-1,1,-1,1l0,1c-1,0,-1,1,-2,2c0,0,0,1,0,1l0,1c0,0,0,1,0,1c1,1,1,1,2,2l1,0c0,1,0,1,1,1l1,0c0,0,1,0,1,0c0,0,1,0,1,0l1,0c0,0,1,0,2,0l1,0l1,0l-4,2c0,0,-1,0,-2,0c0,0,-1,0,-1,0c-1,0,-1,0,-1,0c-1,0,-2,0,-2,-1c-1,0,-1,0,-1,-1c-1,0,-1,-1,-2,-2l0,-1c0,0,0,-1,0,-1c0,-1,0,-1,0,-2c0,0,1,0,1,-1l0,-1c0,0,1,-1,1,-1c0,0,0,-1,1,-1l1,-1l1,0c-1,0,-1,-1,-1,-1c0,0,-1,0,-1,0l-1,0l1,-2c1,0,1,0,2,-1l1,0l1,1c1,0,1,0,1,0c0,1,0,1,0,1l0,1l-1,0l0,1c1,1,1,1,1,1l1,0c0,0,1,0,1,0l1,0c1,0,1,0,2,-1c0,0,0,-1,0,-1l0,-1l-1,-7l1,-2l1,11l0,1c1,0,1,0,1,0l1,0c1,0,1,0,2,0c0,0,1,0,1,0l0,-1l0,-1l-1,0l0,-1l1,-1l0,1l1,0l0,1l0,1c0,0,0,1,0,1c0,0,-1,0,-1,0c0,0,0,1,0,1c0,0,-1,0,-1,1c-1,0,-1,0,-2,0ZM117.5,53.5c0,-1,0,-1,0,-2c0,0,-1,-1,-1,-1l1,-1l0,1c0,0,0,1,0,1l0,1c0,0,0,1,0,1ZM113.5,70.5l-3,2c0,-1,0,-1,0,-2l4,-1ZM105.5,58.5l-1,-1l1,-2l1,1ZM105.5,47.5c0,-1,0,-1,1,-1c0,0,0,-1,0,-1l1,0l0,1c0,1,0,1,0,1l0,1l0,1l0,1l-1,-1l-1,1c0,0,0,1,-1,1l-1,0l1,-1l1,0l0,-1l1,0l-1,0l0,-1l0,-1ZM106.5,47.5l-1,0c0,0,1,0,1,0l0,1l0,-1ZM144.5,66.5l0,-1l0,-1l0,-9l0,-2l1,11l0,1c0,0,-1,1,-1,1ZM140.5,65.5l-1,0c0,0,-1,0,-1,0c-1,0,-1,-1,-1,-2c0,1,0,1,-1,2c0,1,-1,1,-2,1c0,0,-1,0,-1,-1c-1,0,-1,-1,-1,-2l0,1c0,0,-1,0,-1,0c0,1,-1,1,-2,1c0,0,-1,0,-1,-1c-1,0,-1,0,-1,0c0,-1,1,-1,1,-2l1,0c0,-1,1,-1,1,-1l1,-1l1,0l0,-1l0,-1l0,1l1,1l0,2c0,1,0,1,0,1c1,1,1,1,2,1l1,-1l0,-1c0,0,0,-1,0,-2c0,0,0,-1,0,-1c0,-1,0,-1,0,-1l0,-1l0,-1l0,-1l1,3l0,2l0,1l0,1c0,0,1,0,1,1l1,0l1,1c0,0,0,-1,0,-1c0,-1,0,-1,0,-1l0,-2l-1,-1l0,-1c0,-1,0,-1,0,-1l1,0l0,-1c0,0,0,1,0,1c0,0,0,1,0,1l1,2c0,1,0,2,0,2c0,1,0,1,0,2c0,0,-1,1,-1,1ZM132.5,61.5l-1,0c-1,1,-1,1,-1,1c0,0,-1,0,-1,1c1,0,2,0,2,-1c0,0,1,0,1,0ZM127.5,56.5l4,-2l0,1l-4,2ZM158.5,60.5l-2,-1l1,-2l2,1ZM158.5,69.5c-1,0,-1,0,-2,0c-1,0,-1,-1,-1,-1c-1,0,-1,-1,-1,-1c-1,-1,-1,-1,-1,-2l0,-1c0,-1,1,-1,1,-1l0,-1c0,0,1,-1,1,-1l0,1c-1,1,-1,1,-1,1l0,1c0,1,0,1,0,2c1,0,1,0,1,0l1,1c1,0,1,0,2,0c1,0,1,0,2,0c1,-1,1,-1,2,-1c0,-1,0,-1,0,-1l0,-1l0,-1c0,0,0,-1,0,-1l-1,-1l0,-1l1,-2c0,0,0,1,0,1c0,1,0,1,0,1c1,0,1,1,1,1l0,1l0,1c0,0,0,1,0,1c0,1,0,1,0,2c-1,0,-1,1,-1,2c-1,0,-2,0,-2,1c-1,0,-2,0,-2,0ZM155.5,51.5l0,1c0,0,0,1,0,1c0,0,0,-1,0,-1c0,0,1,0,1,0l0,-1l0,1c1,0,1,0,1,0l0,-1l0,-1l1,0l0,1l0,1c0,1,-1,1,-1,1l-1,0c-1,1,-1,1,-1,1c0,0,-1,0,-1,-1l0,-1l0,-1ZM159.5,49.5l-6,2c0,0,1,-1,1,-1l5,-3ZM226.5,63.5l-2,0c0,0,-1,0,-1,0l-1,0c0,0,-1,1,-1,1l-1,0l-1,0c0,1,0,1,-1,1l-1,0c-1,1,-2,1,-2,1l-1,0l-1,0l0,-1l-1,0l0,-1c-1,0,-1,1,-1,1c-1,0,-1,1,-1,1c-1,0,-2,-1,-2,-2l0,1c-1,0,-1,1,-2,1c-1,0,-1,-1,-2,-2c0,1,0,1,0,1c-1,0,-1,1,-2,1l-1,0c-1,0,-1,0,-1,0l-1,0l0,-1l-1,-1l0,1c-1,0,-1,0,-1,0c0,0,-1,1,-1,1l-1,0c-1,0,-1,0,-1,0c-1,0,-1,-1,-1,-1c-1,0,-1,0,-1,-1c0,0,0,-1,0,-1c-1,1,-1,1,-1,1l-1,0l-1,0l-1,0l0,-1c0,-1,0,-1,1,-2c0,0,1,0,1,-1c1,0,1,0,1,0l0,-1l0,-1l1,0l0,-1l0,2l0,1l1,1l0,2c0,1,0,1,0,1c1,0,1,0,1,0c0,0,1,0,1,0c1,0,1,0,1,0c0,0,1,0,1,0l1,-1l1,0c0,1,0,1,1,1l1,0l1,0l1,0c1,0,1,-1,2,-2l0,1c0,1,1,1,1,1c1,0,1,0,2,0c0,0,0,-1,0,-1l1,-1c0,1,0,1,0,1c0,0,1,1,1,1c0,0,1,0,1,-1c1,0,1,-1,1,-1c1,1,1,2,2,2l1,0l1,0c0,0,1,0,1,0c1,0,1,0,2,-1l1,0l1,0l-1,-1l-1,0l-1,0l0,-1l-1,0l-1,0l0,1l-1,0c1,-1,1,-1,1,-2c0,0,1,0,1,0l1,0l1,0l1,0l2,1c1,0,1,0,1,1c1,0,1,0,2,0l1,0l1,0ZM218.5,53.5l4,-2l-1,0l0,1l-4,2ZM205.5,55.5c0,0,1,0,1,0c1,-1,1,-1,1,-1c1,0,1,0,2,1l0,1c0,1,-1,1,-1,1l-1,0l-1,0l-1,0l2,0c1,0,1,-1,2,-1c-1,0,-1,0,-1,0c0,0,-1,0,-1,0c0,0,-1,0,-1,0c0,0,-1,0,-1,0l0,-1ZM198.5,70.5l-1,-1l1,-2l1,1ZM196.5,50.5c1,0,1,-1,1,-1c0,0,1,0,1,0c0,0,1,0,1,1l-1,1l0,1l1,0l0,1l-1,0l-1,0c-1,1,-1,1,-1,1l-1,0l-1,0l1,0l1,-1l1,-1l-1,0c0,0,0,-1,0,-1c0,0,0,-1,0,-1ZM198.5,50.5l-1,0l0,1l1,0c0,0,0,-1,0,-1ZM192.5,60.5l-1,1l-1,0l0,1c-1,0,-1,0,-1,0l1,0l1,0l1,0ZM255.5,56.5l-1,-1l0,-1l2,1ZM257.5,64.5c0,1,0,1,-1,1c0,0,0,1,-1,1c-1,0,-1,0,-2,0l-1,0c-1,0,-1,0,-1,0l-1,0c0,1,0,1,0,1c0,1,0,1,0,1c0,1,0,1,0,2c0,1,-1,1,-2,1l-1,0c0,-1,0,-1,-1,-2c0,-1,0,-2,0,-3l-1,0c0,0,-1,0,-1,0l-1,0l-1,0c0,0,0,1,0,1c-1,0,-1,1,-1,1c0,1,0,1,-1,1c0,1,0,1,-1,1c0,0,0,1,0,1c-1,0,-1,0,-1,0l-1,0l-1,0c0,0,-1,0,-2,0l0,-1l1,0c1,0,1,0,2,0l1,-1l1,0c0,0,0,-1,0,-1c1,0,1,0,1,-1c1,-1,1,-1,1,-1c0,0,-1,0,-1,0c0,0,-1,0,-1,0c-1,-1,-1,-1,-1,-1l0,-1c0,0,0,-1,0,-1c0,-1,0,-1,0,-1c1,0,1,0,1,0l0,-1c1,0,1,0,1,0l1,0c0,0,0,1,0,1c1,1,1,1,1,1c0,0,0,1,0,1c0,0,1,0,1,0c0,0,1,0,1,0l1,0l1,0c0,-1,0,-1,1,-1l0,-1l0,-1c1,-1,2,-2,3,-2l0,1l0,1c0,1,0,1,0,2c-1,0,-1,1,-2,2l1,-1l1,0l1,0l1,0l1,0c1,0,1,0,2,0c1,0,1,0,2,-1l0,-1l0,-1c0,1,-1,1,-1,1c0,1,-1,1,-1,1c0,0,-1,0,-1,-1c-1,-1,-1,-1,-1,-1c0,-1,0,-1,1,-1l0,-1c0,0,0,-1,0,-1c1,0,1,-1,1,-1c1,0,1,0,1,1c1,0,1,0,1,1l0,1l1,1c0,0,0,1,0,1c0,1,0,1,0,1c0,1,-1,1,-1,1ZM254.5,60.5c0,0,1,0,1,0c1,0,1,0,1,0c0,0,0,-1,0,-1c-1,0,-1,0,-1,0ZM253.5,50.5l5,-2l-1,0c0,0,0,1,0,1l-4,2ZM249.5,61.5c0,0,-1,0,-1,0l0,1l-1,1l0,1c1,-1,1,-1,2,-1c0,-1,1,-1,1,-1c0,-1,-1,-1,-1,-1ZM247.5,66.5c0,0,0,1,0,1c0,1,0,1,1,2l1,0l1,0l0,-1c0,0,-1,-1,-1,-1c-1,0,-1,-1,-2,-1ZM248.5,50.5c0,0,1,-1,1,-1l1,0l0,1l0,1l0,1l1,0l-1,1l-1,0l-1,0c0,1,0,1,0,1l-1,0l-1,0l1,0l0,-1c0,0,1,0,1,0l1,-1l-1,0c0,0,0,-1,0,-1c0,0,0,-1,0,-1ZM249.5,50.5l0,1l1,0l-1,0c0,0,0,-1,0,-1ZM240.5,63.5c0,0,-1,0,-1,0c0,1,0,1,0,1c1,0,1,0,1,0l1,0c-1,-1,-1,-1,-1,-1ZM236.5,56.5l4,-2l0,1l-4,2ZM282.5,66.5l0,-1l0,-1l-1,-9l1,-2l1,11l0,1c-1,0,-1,1,-1,1ZM278.5,65.5c-1,0,-1,0,-1,0c-1,0,-1,0,-1,0c-1,0,-1,-1,-1,-2c0,1,-1,1,-1,2c-1,1,-1,1,-2,1c-1,0,-1,0,-1,-1c-1,0,-1,-1,-1,-2l0,1c-1,0,-1,0,-1,0c-1,1,-1,1,-2,1c0,0,-1,0,-1,-1c-1,0,-1,0,-1,0c0,-1,0,-1,1,-2l1,0c0,-1,0,-1,1,-1l1,-1l0,-1l1,-1l0,1l0,1l1,2c0,1,0,1,0,1c0,1,1,1,1,1c1,0,1,0,1,-1c1,0,1,0,1,-1c0,0,0,-1,0,-2c0,0,0,-1,0,-1c0,-1,0,-1,0,-1l-1,-1l1,-1l0,-1l1,3l0,2l0,1l0,1l0,1c1,0,1,0,2,0l0,1c1,0,1,-1,1,-1c0,-1,0,-1,0,-1l-1,-2l0,-1l0,-1c0,-1,0,-1,0,-1l1,-1c0,0,0,1,0,1c0,0,0,1,0,1l1,2c0,1,0,2,0,2c0,1,0,1,-1,2c0,0,0,1,0,1ZM269.5,61.5l-1,0c0,1,0,1,0,1c-1,0,-1,0,-1,1c1,0,1,0,2,-1l1,0ZM269.5,67.5l-5,3c1,-1,1,-1,1,-2l4,-2ZM314.5,62.5c0,1,-1,1,-2,2c-1,0,-2,1,-3,1c-2,1,-3,1,-3,1l-1,0c-1,0,-1,0,-1,-1c-1,0,-1,-1,-1,-2l0,1c-1,0,-1,0,-1,0c0,1,0,1,0,1c-1,0,-1,1,-1,1c0,0,-1,0,-1,0c0,0,1,0,1,0c0,0,1,0,1,0c1,0,1,1,1,1c0,0,0,1,0,1c0,0,0,1,-1,1c0,1,-1,1,-1,1c-1,1,-1,1,-2,1c-1,1,-2,1,-3,1c-1,0,-1,0,-2,-1c-1,0,-1,0,-2,0c0,-1,0,-1,0,-2c-1,0,-1,0,-1,-1c0,-1,0,-1,1,-2c0,-1,0,-2,1,-2c0,1,0,1,-1,2c0,0,0,1,0,1c0,1,0,1,0,1c0,0,1,1,1,1c1,1,2,1,3,1c1,0,1,0,2,0l1,0c1,-1,1,-1,2,-1c0,0,1,-1,1,-1c-1,0,-1,0,-2,-1c0,0,-1,0,-1,0c0,-1,0,-1,0,-1l0,-1c1,0,1,0,1,-1c1,0,1,0,1,0l1,0c0,0,0,-1,0,-1l0,-1c0,-1,0,-1,0,-1l0,-7l1,-2l0,11l1,0l0,1c0,0,1,0,1,0l1,0c1,0,2,0,2,0c-1,-1,-1,-1,-1,-1c0,-1,0,-1,0,-2l0,-1c0,0,0,-1,0,-1l1,0c0,-1,0,-1,1,-1c1,0,1,0,1,0c0,0,1,0,1,0l1,0l1,0c0,0,0,1,0,1l-1,0l-1,0l-1,0c-1,0,-1,0,-1,0c-1,1,-1,1,-1,1c0,0,0,1,0,1l1,1c0,0,1,1,1,1c1,0,1,0,1,0l1,-1l1,0l1,-1l1,0ZM306.5,53.5l4,-2l0,1l-4,2ZM299.5,50.5l4,-2c0,0,0,1,0,1l-4,2ZM362.5,69.5l-1,-1l-1,1l-1,-1l1,-1l1,1l1,-1l1,1ZM359.5,66.5l-1,0l-1,0c0,0,-1,0,-1,0l0,-1l-1,0l0,-1l-1,1c-1,0,-1,1,-2,1l-1,0l-1,0c0,0,0,1,0,1c0,0,-1,1,-1,1c0,1,0,1,-1,1c0,1,0,1,0,1c-1,0,-1,1,-1,1c0,0,-1,0,-1,0l-1,0l-1,0c0,0,-1,0,-1,0c-1,0,-1,0,-1,-1l1,0c1,0,1,0,2,0c0,0,1,0,1,-1c0,0,1,0,1,0c0,0,0,-1,1,-1l0,-1c0,0,1,0,1,0c0,-1,0,-1,0,-1c-1,0,-1,0,-1,0c0,0,-1,0,-1,0c-1,-1,-1,-1,-1,-1l0,-1c0,0,0,-1,0,-1c0,-1,0,-1,1,-1l0,-1l1,0c0,0,1,0,1,0c0,0,0,1,0,1l1,0c0,1,0,1,0,1c0,0,0,1,0,1c0,0,1,0,1,0c1,0,1,0,1,0c1,0,1,0,2,0l0,-1c1,0,1,0,1,0c1,1,1,1,1,1c0,0,1,0,1,0l1,0l1,0c1,0,1,0,2,0c0,0,1,0,1,0c0,0,0,-1,0,-1l0,-1c0,0,-1,0,-1,-1l1,-1c1,1,1,1,1,1c0,0,0,1,0,1c0,0,0,1,0,1c0,0,0,1,0,1c-1,0,-1,1,-1,1c0,0,-1,0,-1,1c-1,0,-1,0,-2,0ZM356.5,61.5l-2,-1l-1,1l-1,-1l1,-1l1,1l1,-2l1,1ZM352.5,53.5l5,-2l-1,0l0,1l-4,2ZM348.5,63.5l-1,0c0,1,0,1,0,1l1,0c0,0,1,0,1,0c0,-1,0,-1,-1,-1ZM344.5,56.5l4,-2l0,1l-4,2ZM344.5,53.5c0,0,-1,0,-2,1c-2,0,-3,1,-4,1c-2,1,-2,1,-3,1c0,1,0,1,0,1l0,1l2,1c0,0,1,0,2,1c0,1,0,1,0,2l0,1c0,0,0,1,0,1c0,0,0,1,0,1c-1,0,-1,0,-1,0c0,1,-1,1,-1,1c0,0,-1,0,-2,0c-1,0,-1,0,-1,0c-1,-1,-1,-1,-1,-2l0,1l0,1c0,1,0,1,-1,2c0,1,0,1,-1,1c0,1,0,1,-1,1l-1,1l-1,0c0,0,-1,0,-1,0l-1,0l-1,0c-1,0,-1,-1,-1,-1c-1,0,-1,-1,-1,-1c0,0,0,-1,0,-1c0,-1,0,-2,0,-2c0,-1,0,-1,1,-1l0,-1l0,-1l1,0l-1,1l0,1c0,1,0,1,0,1c0,1,0,2,0,2c1,1,1,1,2,1c0,0,1,0,1,0c1,0,2,0,3,-1c1,0,1,0,2,-1c0,0,0,-1,0,-1l0,-3l0,-1c0,0,0,-1,0,-1l-1,-7l1,-2l1,10c0,1,0,1,0,1l0,1c0,0,1,0,1,0l1,0l1,0c1,0,1,0,1,0c1,0,1,0,1,0c0,0,1,0,1,-1c0,0,0,-1,0,-1c-1,-1,-1,-1,-2,-2l-1,0l0,-1c-1,1,-1,1,-1,1l0,-1c-1,0,-1,0,-1,0c0,-1,0,-1,0,-1l0,-1l0,-1l1,0c0,0,0,-1,0,-1c1,0,2,-1,3,-1c1,-1,3,-1,4,-2c1,0,2,0,2,-1ZM360.5,53.5l0,1c1,0,1,0,1,0l0,-1c0,0,0,1,1,1l0,-1l1,-1l0,1l0,1c0,0,0,1,-1,1c0,0,-1,0,-1,0c0,0,-1,1,-1,1c0,0,0,-1,-1,-1l0,-1l0,-1ZM364.5,50.5l-6,3c1,-1,1,-1,1,-1l5,-3ZM337.5,48.5l0,1c1,0,1,0,1,0l0,-1l0,-1l1,0l0,1c1,0,1,0,1,-1l0,1l0,1l-1,0l-1,0l0,1l-1,0l0,-1l0,-1ZM341.5,45.5l-5,3c0,-1,0,-1,0,-2l6,-2ZM323.5,55.5l1,0c0,0,0,-1,1,-1c0,0,1,1,1,1c1,0,1,0,1,0l0,1c0,0,-1,0,-1,1c-1,0,-1,0,-1,0c-1,0,-1,0,-1,0l-1,0l1,0c1,0,2,-1,2,-1l-1,0l-1,0l-1,0l-1,0l0,-1c0,0,1,0,1,0ZM394.5,62.5c0,0,-1,0,-1,0c0,0,0,1,0,1l1,0c0,-1,0,-1,0,-1ZM394.5,70.5c0,0,-1,0,-1,0l-1,0c0,1,-1,1,-1,1l-1,0c0,0,-1,-1,-1,-1c0,0,-1,0,-1,0l0,-1c0,1,1,1,1,1c1,0,1,0,1,0c1,0,1,0,1,0c0,-1,0,-1,0,-1c1,0,1,0,1,0c1,0,1,-1,1,-1c1,0,1,0,1,-1l1,-1c0,0,0,-1,0,-1l0,-1c0,0,0,1,0,1l-1,0c-1,0,-1,0,-1,0l-1,-1l0,-1c0,-1,0,-1,0,-1c0,0,1,-1,1,-1c0,0,0,-1,0,-1c1,0,1,0,1,0c0,0,1,0,1,0l0,1c1,0,1,0,1,1l0,1c0,0,0,1,0,1l0,1c0,1,0,2,-1,3l0,1c-1,0,-1,0,-1,1ZM391.5,56.5l4,-2l0,1l-4,2ZM387.5,65.5l-1,0c-1,0,-1,0,-1,0l-1,-1l0,1c-1,0,-1,0,-1,1l-1,0l-1,0l-1,0c0,1,0,1,0,1c0,0,0,1,0,1c0,0,0,1,-1,2c0,0,0,1,-1,1c0,1,-1,1,-2,1c-1,1,-1,1,-2,1c-1,0,-1,0,-2,0c-1,-1,-1,-1,-1,-1c-1,0,-1,-1,-1,-1c-1,-1,-1,-1,-1,-2c0,0,0,-1,0,-1c0,0,0,-1,0,-1l1,0c0,0,0,-1,0,-1c0,-1,1,-1,1,-1c0,1,0,1,0,1c-1,0,-1,1,-1,1c0,1,0,1,0,1c0,1,0,1,0,1c1,1,1,1,1,1l1,0l0,1c1,0,1,0,2,0c1,0,2,0,3,0c0,-1,1,-1,1,-2c1,0,1,0,1,0l0,-1c0,0,0,-1,0,-1c0,0,0,-1,0,-1c0,0,-1,0,-1,0c0,0,0,-1,0,-1l1,-2l0,1c0,0,1,0,1,0l1,0l1,0c1,0,1,0,1,0l1,0l0,-1c0,-1,1,-1,1,-2c1,0,1,-1,1,-1c1,0,1,1,1,1c0,0,1,1,1,1l0,1l0,1c0,1,-1,1,-1,1ZM385.5,63.5l1,0l1,1c0,-1,0,-1,0,-1l-1,0c0,-1,0,-1,0,-1c-1,0,-1,0,-1,1ZM382.5,53.5l5,-2l-1,0l0,1l-4,2ZM375.5,64.5l-2,-1l1,-2l1,1ZM135.5,48.5l1,0c0,0,-1,-1,-1,-2c0,0,0,-1,0,-1l0,-1c1,0,1,0,1,1c0,0,0,1,0,1l0,1c0,0,0,1,0,1l-1,0ZM134.5,51.5l0,1c1,0,1,0,1,0c0,0,1,0,1,-1l0,-1l1,1c1,0,1,0,1,-1l0,-1l0,1l0,1l0,1l0,1l-1,0l-1,-1l0,1c-1,0,-1,1,-1,1c-1,0,-1,-1,-1,-1l0,-1l0,-1ZM273.5,48.5c0,-1,0,-1,0,-2c0,-1,0,-1,-1,-2l1,0l0,1c0,0,1,0,1,0l0,1l0,1c-1,1,-1,1,-1,1ZM272.5,50.5l0,1c0,1,0,1,0,1l1,0l0,-1l0,-1l1,0l0,-1l0,1c0,0,0,1,0,1c0,0,1,0,1,0l0,-1l1,-1l0,1l0,1c0,1,-1,1,-1,1l-1,0l-1,0c0,1,0,1,-1,1c-1,0,-1,0,-1,-1c0,0,0,-1,0,-1l1,-1ZM261.5,95.5l0,-1c0,0,0,-1,0,-1c-1,-1,-1,-1,-1,-2l1,-1c0,0,0,1,0,1c0,1,0,1,0,1l0,1c0,0,0,1,0,1c0,0,0,1,0,1ZM259.5,97.5l0,1l1,0l1,0l0,-1l0,-1l1,1c0,1,0,1,0,1c1,0,1,-1,1,-1l0,-1l0,-1l0,1l0,1l0,1c0,0,0,1,0,1l-1,0l-1,0c0,1,-1,1,-1,1c0,0,-1,0,-1,-1c0,-1,0,-1,0,-1l0,-1ZM167.5,68.5l0,-2l0,-1l-1,-8l1,-3l1,11c0,0,0,1,-1,1c0,1,0,1,0,2ZM169.5,69.5l-4,2c0,0,0,-1,0,-1l4,-2ZM90.5,66.5l0,-1l0,-1l0,-9l0,-2l1,11c0,0,0,1,0,1c0,0,-1,1,-1,1Z" class="g1_23" />
<path fill-rule="evenodd" d="M359.5,476.5l0,1c1,0,1,0,1,-1l0,-1l0,1c0,0,1,0,1,0l1,-1l0,1l0,1l-1,0c0,0,-1,0,-1,0l0,1c0,0,-1,0,-1,0l-1,0l0,-1l0,-1ZM72.5,478.5l1,0c0,0,1,0,1,0c1,0,1,0,1,0c1,0,1,0,1,1l-1,1c0,0,-1,0,-1,0c0,0,0,1,0,1c0,0,-1,0,-1,0l-1,0l2,-1c0,0,1,0,1,-1l-1,0c-1,0,-1,0,-2,0c0,0,0,-1,0,-1ZM137.5,482.5l1,0c0,0,1,0,1,0c1,0,1,0,1,0c1,0,1,0,1,0c0,0,0,1,0,1l-1,1l-1,0c0,1,-1,1,-1,1c-1,0,-1,0,-1,-1l2,0c0,0,1,-1,1,-1l-1,0c-1,0,-1,0,-2,0c0,-1,0,-1,0,-1ZM325.5,483.5c0,-1,0,-1,0,-2c0,0,0,-1,-1,-1l1,-1l0,1c1,0,1,0,1,1c0,1,0,1,0,1l0,1c-1,0,-1,0,-1,0ZM88.5,490.5c0,0,0,1,0,1c0,0,0,1,0,1c1,0,1,0,1,-1c0,0,0,-1,-1,-1ZM88.5,498.5c0,0,0,1,0,1c0,0,-1,0,-1,0c0,0,-1,0,-1,0l-1,0c0,0,-1,0,-2,0l0,-1l1,0c1,0,1,0,1,0l1,0c0,0,1,0,1,0c0,-1,1,-1,1,-1c0,-1,1,-1,1,-1c0,0,0,-1,0,-1c1,-1,1,-1,1,-2c0,0,-1,0,-1,0l0,1l-1,0l-1,-1c0,-1,0,-1,0,-1c0,0,0,-1,0,-1c0,-1,0,-1,0,-2c1,0,1,0,1,0c0,0,1,-1,1,-1c0,0,0,1,1,1c0,1,0,1,0,1c0,1,1,1,1,1c0,1,0,1,0,2l0,1c0,1,-1,1,-1,2c0,1,-1,1,-1,1c0,1,0,1,-1,1ZM86.5,485.5l4,-2l-1,0c0,0,0,1,0,1l-4,2ZM82.5,486.5l-2,-1l-1,1l-1,-1l1,-1l1,1l1,-1l1,1ZM79.5,494.5l-1,0c-1,0,-1,0,-1,0c0,0,-1,0,-1,0l0,-1c-1,0,-1,0,-1,0c0,0,0,-1,0,-1l0,-1c0,0,0,1,0,1c0,0,-1,0,-1,0c0,1,-1,1,-1,1l-1,0l0,1l0,1c0,0,-1,0,-1,1c0,0,0,1,0,1c0,0,-1,0,-1,1c0,0,-1,0,-1,1l-1,0c-1,0,-1,0,-1,0l-1,0c-1,0,-1,0,-1,0l-1,-1c0,0,1,0,1,0l1,0l1,0l1,0c0,0,0,-1,0,-1c1,0,1,0,1,-1c0,0,1,0,1,-1c0,0,1,-1,1,-1l0,-1l0,-2c1,0,1,0,1,0l1,0l1,0c0,0,0,-1,0,-1c0,0,1,0,1,0l0,-1l1,0c0,1,0,1,0,1l0,1c0,1,0,1,0,1c0,0,1,0,1,1c0,0,1,0,1,0l1,0c1,0,1,0,2,0c1,-1,1,-1,1,-1c0,-1,0,-1,0,-1c0,0,0,-1,0,-1l-1,0l1,-2l0,1l1,0l0,1l0,1l0,1c0,0,0,1,0,1c0,0,-1,0,-1,0c0,1,0,1,-1,1c-1,0,-1,0,-2,0ZM79.5,478.5l5,-2l-1,1l-4,2ZM74.5,488.5l-1,-1l1,-1l1,1ZM70.5,489.5l-1,-1l0,-1l2,1ZM74.5,504.5l-5,2c1,0,1,-1,1,-1l4,-2ZM64.5,490.5c-1,1,-2,1,-2,2c-1,0,-2,1,-2,1c-1,1,-1,1,-2,2c0,1,0,1,-1,2l0,1c0,0,0,1,1,1c0,1,0,2,1,2c0,1,1,1,1,1c1,0,1,1,2,1c1,0,2,0,3,0c1,0,1,0,2,0c1,0,1,0,2,0l-3,2c-1,0,-1,0,-2,0c-1,0,-2,0,-3,-1c-1,0,-1,0,-2,0c0,-1,0,-1,-1,-1c0,-1,-1,-1,-1,-2c0,-1,0,-1,0,-1c0,-1,-1,-1,-1,-1c0,-1,1,-2,1,-2c0,-1,0,-2,0,-3c1,-1,1,-1,2,-2c0,0,-1,0,-1,0c0,-1,0,-1,0,-1c-1,0,-1,-1,-1,-1l0,-1c0,0,0,-1,0,-1c0,-1,0,-1,1,-1c0,-1,0,-1,1,-1c1,0,1,0,1,0c0,0,1,0,1,0c1,0,1,0,2,0l-1,1l-1,0l-1,0c-1,0,-1,0,-1,0l0,1c-1,0,-1,0,-1,0c0,1,0,1,0,1c0,1,1,1,1,1c0,0,1,0,1,0c0,0,1,0,1,0l1,0l1,-1c1,0,2,0,2,-1ZM59.5,475.5l1,-1l1,0c0,0,0,1,0,1c0,0,0,1,0,1c0,0,0,1,0,1l0,1l-1,0l-1,1l-1,0l0,1l-1,0l0,-1l1,0c0,0,1,-1,1,-1l1,-1l-1,0l0,-1l0,-1ZM60.5,475.5c0,1,0,1,0,1ZM126.5,485.5l-1,-1l-1,1l-1,-1l1,-1l1,1l1,-1l1,1ZM124.5,493.5c1,0,1,0,1,0c1,0,1,0,1,0l0,-1c0,0,0,-1,0,-1c0,-1,-1,-1,-1,-1l-1,-1c0,-1,0,-1,0,-1c0,-1,0,-1,1,-1l1,1l0,1l1,0l0,1c0,1,0,1,0,1l0,1l0,1l0,1l-1,0l-1,0l-1,0l-1,0l-1,0c0,0,0,-1,0,-1l0,-1l0,1c-1,0,-1,0,-1,1c-1,0,-1,0,-1,0c-1,0,-2,0,-2,-1l0,1c-1,0,-1,0,-2,0c-1,0,-1,0,-2,-1l0,1c-1,0,-1,0,-2,0l-1,0l-1,0c-1,0,-1,0,-2,0c0,-1,-1,-1,-1,-2l0,-9l1,-2l0,10l0,1l1,0c0,1,0,1,1,1l1,0l1,0l1,0l0,-1c1,0,1,0,2,-1c0,1,0,1,0,1c0,0,1,1,1,1c1,0,1,0,2,-1l0,-1l1,0c0,0,0,1,0,1c0,0,1,0,1,0c0,0,1,0,1,0l0,-1c1,0,1,0,1,0c1,1,1,2,2,2ZM123.5,478.5l5,-2l-1,1l-4,2ZM117.5,486.5l-1,-1l1,-1l1,1ZM119.5,489.5l-2,-1l0,1l-2,-1l1,-1l1,1l1,-2l2,1ZM112.5,481.5l5,-2l-1,1l-4,2ZM105.5,478.5c1,0,1,0,2,1c1,0,1,0,1,0l1,0l1,0c0,0,-1,0,-1,1l-1,0l-1,0l-1,0l0,-1l-1,0c-1,0,-1,1,-1,1c0,-1,0,-1,1,-2ZM99.5,492.5c0,0,1,0,1,-1l1,-1l1,0c0,0,1,0,1,0l0,1l0,1l-1,0l-1,0l-1,0l1,1l1,0c1,0,1,0,2,0l0,1l-1,0l-4,2c0,-1,0,-1,0,-1l1,-1c-1,-1,-1,-1,-1,-1c0,-1,0,-1,0,-1ZM101.5,482.5c0,0,1,-1,1,-1l1,0l0,1l0,1l0,1l1,0l-1,1l-1,0l-1,0c0,1,0,1,0,1l-1,0l-1,0l1,0l0,-1c0,0,1,0,1,0l1,-1l-1,0c0,0,0,-1,0,-1c0,0,0,-1,0,-1ZM102.5,482.5l0,1c0,0,0,-1,0,-1ZM152.5,494.5c0,0,-1,0,-1,0l-1,0l-1,-1l-1,0c0,1,0,1,0,1l-1,0l-1,0l-2,0c0,1,0,1,0,1c0,0,0,1,0,1c0,1,0,2,0,2c0,1,-1,1,-1,2c-1,0,-2,1,-2,1c-1,0,-2,0,-3,0c0,0,-1,0,-1,0c-1,0,-1,0,-2,-1c0,0,-1,0,-1,-1c0,0,0,-1,0,-1c0,-1,0,-1,0,-1c0,0,0,-1,0,-1l0,-1c0,0,1,0,1,-1l1,0c-1,0,-1,0,-1,1l0,1l0,1c0,0,0,1,0,1l1,1l1,0c0,0,1,1,2,1c1,0,1,-1,2,-1c1,0,2,-1,2,-1c0,-1,0,-1,0,-1l0,-1c0,-1,0,-1,0,-1c0,0,0,-1,0,-1l-1,-1l1,-1l1,0c0,1,0,1,1,1l1,0l1,0c0,0,1,0,1,0l0,-1l1,-1c0,0,0,-1,1,-1l0,-1c0,0,1,0,1,0l1,1l0,1l0,1c0,1,0,1,0,1c0,0,0,1,0,1ZM150.5,492.5l1,0c0,-1,0,-1,0,-1l-1,0c0,1,0,1,0,1ZM147.5,481.5l4,-2l0,1l-4,2ZM139.5,492.5l-1,-1l1,-1l1,1ZM211.5,494.5l0,-1l0,-1l-1,-8l1,-3l1,11l0,1l-1,0c0,1,0,1,0,1ZM203.5,493.5c0,0,1,0,1,0c0,0,1,0,1,0c0,-1,0,-1,0,-1c1,0,1,0,1,-1l0,-2l-1,-6l0,-1l0,-1c0,0,1,0,1,0c0,0,0,1,0,1c0,0,1,0,1,0c0,1,0,1,0,1c0,1,0,1,-1,1c0,0,0,1,0,2c0,0,0,1,0,3c1,0,1,0,1,1l0,1c0,0,0,1,0,1c0,0,-1,0,-1,0c0,0,0,1,0,1c0,0,0,1,0,1c-1,0,-1,0,-1,0l-1,0l-1,0l-1,0c0,0,-1,0,-2,0l0,-1c0,1,-1,2,-1,2c-1,0,-1,0,-2,0l-1,-1l-1,-1l-1,1l-1,0l-1,0c-1,0,-1,0,-2,0c0,0,-1,-1,-1,-2c0,1,0,2,-1,2l-1,0c-1,0,-1,0,-1,0c-1,0,-1,-1,-1,-2c0,1,-1,2,-1,2c-1,0,-1,0,-2,0c0,0,-1,0,-1,0c0,0,-1,0,-1,0c-1,0,-1,0,-2,0c-1,1,-2,1,-3,1c-1,0,-1,0,-2,0c-1,0,-2,0,-4,0c-1,0,-2,0,-3,0c-1,-1,-2,-1,-2,-1c-1,0,-1,0,-1,0c-1,0,-2,0,-2,0l-1,0c0,-1,0,-1,0,-1c1,0,1,0,2,0c1,0,1,0,2,0c0,0,1,0,2,0c1,0,2,0,3,0c2,0,3,0,4,0c1,0,2,0,3,0c1,0,2,0,3,0c0,0,1,0,1,0c0,0,1,0,1,0c0,0,1,0,1,0c0,0,1,0,1,0l1,-1l0,-1c0,-1,0,-1,0,-1l0,-1l0,-6l1,-2l0,10c0,0,0,1,1,1c0,1,0,1,0,1c0,0,1,0,1,0c0,0,1,0,1,0c0,0,1,-1,1,-1l0,-1c0,-1,0,-1,0,-1l0,-1l-1,-6l1,-2l1,10c0,0,0,1,0,1c1,1,1,1,1,1l1,0l1,0c0,0,1,0,1,0l1,-1l0,-1c1,-1,2,-2,3,-2l0,1l1,0l0,1l1,1c1,0,1,1,1,1l1,0l1,0ZM203.5,477.5c0,-1,1,-1,1,-1c1,0,1,0,1,0c1,0,1,0,2,0c0,0,0,1,0,1c0,0,0,1,0,1c0,0,-1,0,-1,1l-1,0l-1,0l-1,0l2,-1c1,0,1,0,2,-1c-1,0,-1,0,-1,0c0,0,-1,0,-1,0c0,0,-1,0,-1,0c0,0,-1,0,-1,1l0,-1ZM199.5,493.5l-1,-1c0,0,0,-1,0,-1l-1,0l-1,1c0,0,1,0,1,0l1,1ZM197.5,479.5c0,-1,0,-1,0,-1c1,0,1,-1,1,-1l0,1c1,0,1,0,1,0c0,1,0,1,0,1l0,1c0,0,-1,0,-1,0l1,0l0,1l0,1l-1,-1l-1,0l0,1c0,0,-1,1,-1,1l-1,0c0,0,-1,0,-1,0l1,0l1,-1l1,-1l0,-1c0,0,-1,0,-1,0l0,-1l1,0ZM198.5,479.5l-1,0l1,0l0,1l0,-1ZM187.5,473.5c1,0,1,0,1,0c1,-1,1,-1,2,-1c0,0,1,0,1,1c0,0,1,0,1,0c-1,1,-1,1,-1,1c0,1,0,1,-1,1l-1,0l-1,0l1,0c1,0,1,-1,2,-1c0,0,-1,0,-1,0c0,0,-1,0,-1,0c0,0,-1,0,-1,0c0,0,-1,0,-1,0c0,0,0,-1,0,-1ZM175.5,490.5c0,0,0,1,-1,1l-1,0c-1,0,-1,0,-1,0c-1,0,-1,0,-1,0l1,0c0,-1,1,-1,1,-1c1,0,1,0,2,-1l-1,0c-1,0,-1,0,-1,0c0,0,0,-1,0,-1c0,0,0,-1,0,-1c0,0,0,-1,1,-1c0,0,0,-1,1,-1l1,0l-1,1c-1,0,-1,1,-1,1c0,1,0,1,0,1c1,0,1,0,1,0l1,0l0,1c0,0,0,1,-1,1ZM168.5,485.5l1,0l2,-1l6,-2l4,-2l1,0l-1,2l-1,0l-1,0l-2,1l-5,2l-4,1ZM245.5,486.5l-2,-1l0,1l-2,-1l1,-1l2,1l0,-1l2,1ZM243.5,494.5l-1,0l-2,0c0,1,0,1,0,2l0,1c-1,0,-1,1,-1,1c0,0,-1,0,-1,1c0,0,-1,0,-1,0c0,0,0,1,-1,1c-1,0,-1,0,-1,0c-1,0,-1,0,-2,-1c0,0,-1,0,-1,0c0,0,1,0,1,0l1,0c0,0,1,0,1,0c0,0,1,-1,1,-1c1,0,1,0,1,-1c0,0,1,0,1,0c0,-1,0,-1,1,-1c0,0,0,-1,0,-1l0,-1c-1,0,-1,0,-1,0c-1,0,-1,0,-1,0l-1,-1c0,0,0,-1,0,-1c1,0,1,-1,1,-1c0,0,0,-1,0,-1l1,0c1,0,1,0,1,0l1,0c0,1,0,1,0,1l0,1l0,1c1,0,1,0,1,0c0,0,1,0,1,0l1,0c0,0,1,0,1,0c1,-1,1,-1,1,-1c0,-1,0,-1,0,-1c0,0,0,-1,0,-1l0,-2c0,0,1,0,1,1l0,1l0,1l0,1c0,0,0,1,0,1c-1,1,-1,1,-2,1c0,0,-1,0,-1,0ZM243.5,475.5l1,-1l1,0c0,0,0,1,0,1c0,0,0,1,0,1c0,0,0,1,0,1l0,1l-1,0l-1,1l-1,0l0,1l-1,0l1,-1c0,0,1,-1,1,-1l1,0l0,-1l-1,0l0,-1l0,-1ZM244.5,475.5c0,1,0,1,0,1ZM236.5,486.5c0,0,0,-1,0,-1c1,0,1,-1,1,-1c1,0,1,0,1,0c0,0,1,0,1,0l0,1l0,1l-1,0l0,-1c-1,0,-1,0,-1,0c0,0,0,1,0,1l1,0l0,1l1,0c0,0,1,0,1,-1c0,1,0,1,-1,1l-3,2c0,0,0,-1,0,-1l1,0l0,-1c-1,0,-1,0,-1,-1ZM238.5,491.5c0,0,0,1,0,1c0,0,-1,0,-1,0c1,0,1,1,1,1l1,0c0,0,0,-1,0,-1c-1,0,-1,-1,-1,-1ZM234.5,480.5l1,0c0,0,1,0,1,0c1,0,1,0,1,0c1,0,1,0,1,0l0,1l-1,1c0,0,-1,0,-1,0c0,0,-1,0,-1,0l-1,0l2,0c0,0,1,-1,1,-1l-1,0c-1,0,-1,0,-2,0l-1,0l1,0l0,-1ZM231.5,487.5l-1,-1l-1,1l-1,-1l0,-1l2,1l1,-1l1,1ZM228.5,495.5c0,0,0,-1,0,-1c0,0,1,0,1,0l1,0c0,-1,1,-1,1,-1c0,-1,0,-1,-1,-1c0,-1,0,-1,0,-1c0,0,0,-1,0,-1l1,-1c0,0,0,1,0,1c0,1,0,1,1,2c0,0,0,1,-1,1c0,1,0,1,0,1c0,0,0,1,-1,1c1,0,1,0,1,0c1,0,1,0,1,0l0,1c0,1,0,1,0,1c0,0,-1,0,-1,0c0,1,0,1,0,1c0,0,-1,1,-1,1c-1,0,-2,1,-2,1c-1,0,-2,0,-3,0c-1,0,-2,0,-2,0c-1,0,-1,0,-2,-1c0,0,0,-1,-1,-1c0,0,0,-1,0,-1l0,-1c0,0,0,-1,0,-2c1,0,1,-1,1,-1c1,0,1,-1,1,-1c0,0,0,1,0,1c0,0,-1,1,-1,1c0,1,0,1,0,2c0,1,1,1,1,2c1,0,2,0,3,0c0,1,0,1,0,1c0,0,0,-1,0,-1c1,0,1,0,2,0l1,0c0,0,1,0,2,-1l1,0c-1,-1,-1,-1,-2,-1c-1,0,-1,0,-1,0c0,-1,0,-1,0,-1ZM232.5,501.5l-4,2c0,-1,0,-1,0,-2l4,-1ZM293.5,494.5l0,-1l0,-1l0,-8l1,-3l0,11l0,1c0,1,0,1,-1,1ZM286.5,493.5l1,0l1,0c0,-1,0,-1,0,-1l0,-1l0,-2l0,-6l0,-1l0,-1l1,0c0,0,0,1,0,1l1,0c0,1,0,1,-1,1c0,1,0,1,0,1c0,0,0,1,0,2c0,0,0,1,0,3l0,1l0,1c0,0,0,1,0,1c0,0,0,1,0,1c-1,0,-1,1,-1,1c0,0,-1,0,-1,0c0,0,-1,0,-1,0l-1,0c-1,0,-1,0,-2,0l0,-1c-1,1,-1,2,-1,2l-1,0l-1,0l-1,-1l-1,-1l-1,1c0,0,-1,0,-1,0l-1,0l-1,0c0,0,-1,0,-1,0c-1,0,-1,-1,-1,-2c0,1,0,2,-1,2l-1,0c-1,0,-1,0,-1,0c-1,0,-1,0,-1,-1c-1,0,-1,-1,-1,-2c0,0,-1,1,-1,1c0,1,-1,1,-2,2c0,0,-1,0,-1,0l-1,0l-1,1l-1,0l-1,0l-1,0l-1,0l-1,0l-1,0c-1,0,-2,-1,-2,-1c0,-1,-1,-2,-1,-2l0,-1c0,0,0,-1,1,-1l0,-1c0,0,0,1,0,1c0,1,1,2,2,2c1,1,1,1,2,1c1,0,1,0,2,0l1,0l1,0l1,0c3,-1,4,-2,5,-3l0,-1l-1,-6l1,-2l1,10c0,0,0,1,0,1c1,1,1,1,1,1l1,0c1,0,1,-1,2,-1l0,-1c0,-1,0,-1,0,-1l0,-1l-1,-6l1,-2l1,10c0,0,0,1,0,1c0,1,0,1,1,1l1,0l1,0l1,0l0,-1l1,-1c1,-1,2,-2,2,-2l1,1l1,1l1,1c0,0,1,1,1,1l1,0l1,0ZM286.5,477.5c0,-1,0,-1,1,-1c0,0,1,0,1,0c1,0,1,0,2,0c0,0,0,1,0,1c0,0,0,1,-1,1l0,1c-1,0,-1,0,-1,0c0,0,-1,0,-1,0c0,0,-1,0,-1,0l2,-1c0,0,1,0,1,-1c-1,0,-1,0,-1,0c-1,0,-1,0,-2,0l0,1l0,-1ZM282.5,493.5l-1,-1c0,0,0,-1,-1,-1l-1,1l1,0l1,1ZM279.5,479.5c0,-1,1,-1,1,-1c0,0,0,-1,1,-1l0,1c0,0,1,0,1,0c0,1,0,1,-1,1l0,1l1,1l0,1l-2,-1l0,1c-1,0,-1,1,-1,1l-1,0l-1,0l1,0l1,-1l0,-1l1,0l-1,-1l0,-1ZM280.5,479.5l0,1l1,0l0,-1ZM270.5,473.5c0,0,1,0,1,0c0,-1,1,-1,1,-1c1,0,1,0,2,1c0,1,0,1,0,1c-1,1,-1,1,-1,1c0,0,-1,0,-1,0l-1,0c0,0,-1,0,-1,0l2,0c1,0,1,-1,1,-1c-1,0,-1,0,-1,0c-1,0,-1,0,-1,0c-1,0,-1,0,-1,0c0,0,0,-1,0,-1ZM261.5,489.5c-1,1,-1,1,-2,1c0,0,-1,0,-1,0l-1,0l0,-1l1,0l1,0l1,0l0,-1l-1,0c0,0,-1,0,-1,0l0,-1l0,-1c1,-1,2,-2,2,-2l1,1l-1,1c0,0,-1,0,-1,0l0,1l1,0c1,0,1,0,1,1c0,1,0,1,0,1ZM263.5,498.5l-4,2c0,-1,0,-1,0,-1l1,0l4,-2ZM329.5,494.5c-1,0,-1,0,-1,0l-1,0l-1,-1l-1,0c0,1,0,1,0,1l-1,0l-1,0c-1,0,-1,0,-1,0c-1,0,-1,-1,-1,-2c-1,1,-1,2,-1,2c-1,0,-1,0,-1,0l-1,0c0,0,-1,0,-1,0c0,0,-1,0,-1,-1c0,0,0,-1,0,-2c-1,0,-1,1,-1,1c-1,1,-2,1,-3,2l-1,0l-1,0l0,1l-1,0c0,0,-1,0,-1,0l-1,0l-1,0l-1,0l-1,0c-1,0,-2,-1,-3,-1c0,-1,0,-2,0,-2l0,-1c0,0,0,-1,0,-1l0,-1l1,0c0,0,0,1,0,1c0,1,0,2,2,2c0,1,1,1,1,1c1,0,2,0,2,0l1,0l1,0l1,0l1,0c2,-1,4,-2,4,-3l0,-1l0,-6l1,-2l0,10c0,0,1,1,1,1c0,1,0,1,0,1c1,0,1,0,1,0c1,0,1,0,1,0c0,0,1,-1,1,-1l0,-1c0,-1,0,-1,0,-1l0,-1l0,-6l1,-2l0,10c0,0,0,1,0,1l1,0c0,1,0,1,0,1l1,0l1,0l1,0l0,-1l1,-1c0,0,0,-1,1,-1l0,-1l1,0l1,1l0,1l0,1c0,1,0,1,0,1c0,0,0,1,0,1ZM327.5,492.5l1,0c0,-1,0,-1,0,-1l-1,0c0,0,-1,0,-1,0c0,1,1,1,1,1ZM321.5,501.5l-4,2c0,-1,1,-1,1,-2l3,-1ZM309.5,489.5c0,1,-1,1,-2,1c-1,0,-1,0,-1,0l0,-1l1,0l1,0l0,-1c-1,0,-1,0,-1,0l0,-1l0,-1c0,-1,1,-2,2,-2l0,1l0,1c-1,0,-1,0,-1,0l0,1l1,0c0,0,1,0,1,1c0,1,-1,1,-1,1ZM305.5,481.5l5,-2l-1,1l-4,2ZM371.5,494.5l0,-1l0,-1l-1,-8l1,-3l1,11l0,1c-1,1,-1,1,-1,1ZM363.5,494.5c-1,0,-1,0,-1,0c-1,0,-1,-1,-1,-2c0,1,-1,2,-1,2c0,0,-1,0,-1,0l-1,0c0,0,-1,0,-1,1l-1,0l0,1c1,0,1,0,1,1c0,0,-1,1,-1,2c0,0,-1,1,-2,1c0,0,0,-1,0,-1c-1,0,-1,-1,-1,-1c-1,-1,-1,-2,-1,-3l-1,0c0,-1,0,-1,-1,-1l-1,0c-1,0,-1,0,-2,0c0,0,-1,1,-1,1c-1,0,-1,0,-2,0c0,-1,-1,-1,-1,-1l-1,1c0,0,0,1,-1,1c0,1,-1,1,-2,1c-1,0,-2,0,-4,0l5,-2l1,0c0,-1,1,-1,1,-1l1,-2c0,-1,1,-1,1,-1c0,0,0,-1,1,-1c1,0,1,1,1,1c1,1,1,1,2,1c0,0,0,1,0,1c1,0,1,0,1,0l1,0l1,0l1,0l0,-1c0,0,1,0,1,-1l0,-1l1,0c0,-2,1,-3,2,-3c0,0,0,1,0,1l0,1l0,1c0,0,0,1,0,1c0,1,-1,2,-2,2l1,0l1,0l1,0l1,0c1,0,1,0,1,0c1,0,1,-1,1,-1l0,-1c0,-1,0,-1,0,-1l0,-1l0,-6l1,-2l0,10c0,0,0,1,1,1c0,1,0,1,0,1c0,0,1,0,1,0c1,0,1,0,1,0c0,0,1,0,1,0c0,-1,1,-1,1,-1l0,-1l0,-2l-1,-6l0,-1l0,-1c0,0,1,0,1,0c0,0,0,1,0,1c0,0,1,0,1,0c0,1,0,1,0,1c0,1,0,1,0,1l-1,0c0,0,0,1,0,2c0,0,1,1,1,3l0,1l0,1c0,0,0,1,0,1c0,0,-1,1,-1,1c0,0,0,1,0,1c0,0,-1,0,-1,0l-1,0l-1,0ZM355.5,489.5l-1,1l-1,1l0,1c1,0,1,0,2,-1c0,0,1,0,1,-1l-1,0c0,0,0,-1,0,-1ZM353.5,495.5l0,1c0,0,0,1,1,1l0,1c0,0,1,0,1,0c0,0,1,0,1,-1c0,0,0,-1,-1,-2c-1,0,-1,0,-2,0ZM353.5,479.5c0,-1,1,-1,1,-1c0,0,0,-1,1,-1l0,1c0,1,0,1,0,1l0,1l1,1l-1,1l-1,-1l-1,1c0,0,0,1,0,1l-1,0l-1,0l1,0l0,-1c0,0,1,0,1,0l0,-1l1,0l-1,0l0,-1l0,-1ZM354.5,479.5l0,1l0,-1ZM346.5,493.5l-1,0l0,-1c0,0,-1,0,-1,0c0,0,0,1,1,1ZM342.5,483.5l0,1c1,0,1,0,1,0l0,-1l0,-1l1,1c0,0,0,1,0,1c0,0,1,-1,1,-1l0,-1l0,1l0,1l0,1l-1,0l0,-1l-1,0l0,1l-1,0l0,-1l0,-1ZM346.5,480.5l-6,3c1,-1,1,-1,1,-1l6,-3ZM396.5,485.5l-1,-1l-1,1l-1,-1l0,-1l2,1l1,-2l1,1ZM398.5,492.5c-1,1,-1,1,-1,1l0,1c-1,0,-2,0,-2,0c-1,0,-1,0,-2,0l-1,0c-1,0,-1,0,-1,0c-1,0,-1,-1,-1,-1l0,1l0,1c0,1,0,1,0,2c-1,0,-1,1,-2,1l0,1c-1,0,-1,0,-1,0c-1,0,-1,0,-2,0c0,1,-1,1,-1,1l-1,0l-1,-1c0,0,-1,0,-1,0c0,-1,-1,-1,-1,-1c0,-1,0,-1,0,-2c0,0,0,-1,0,-1c0,-1,1,-1,1,-2l0,-1l1,0l0,1l-1,0c0,0,0,1,0,1c0,0,0,1,0,1c0,1,0,1,1,2c0,0,1,1,1,1c1,0,1,0,1,0c1,0,2,-1,3,-1c1,0,2,-1,2,-1l0,-1l0,-3c0,0,0,-1,0,-2l0,-1l0,-6l0,-2l1,10l0,1l1,0l0,1c0,0,1,0,1,0l1,0c0,0,1,0,2,0c1,-1,1,-1,2,-1c0,0,0,-1,0,-1c0,-1,0,-1,0,-1l-1,1c0,0,-1,0,-1,0l-1,0l0,-1c0,0,-1,0,-1,-1c0,0,1,0,1,-1c0,-1,0,-1,0,-1c1,-1,1,-1,2,-1l1,0c0,1,0,1,0,1c0,1,0,1,0,1l1,0c0,1,0,1,0,2c0,0,0,1,0,1c0,0,0,1,0,1ZM394.5,488.5c0,1,1,1,1,1l1,0l0,-1c-1,0,-1,0,-1,0l-1,0ZM394.5,475.5l0,-1c1,0,1,0,1,0c0,0,1,0,1,0c0,0,0,1,0,1c0,0,0,1,0,1c0,0,0,1,0,1l0,1l-1,0l-1,1c0,0,-1,0,-1,0l0,1l-1,0l0,-1l1,0c0,0,0,-1,1,-1l0,-1l0,-1l0,-1ZM395.5,475.5c-1,0,-1,0,-1,0c0,1,0,1,0,1l1,0ZM387.5,502.5l-4,2c0,0,0,-1,0,-1l4,-2ZM331.5,529.5c1,0,1,0,1,0c1,0,1,0,2,0c0,0,1,0,1,0c0,0,1,0,1,1c-1,0,-1,1,-1,1l-1,0c0,1,0,1,-1,1l-1,0l1,-1c1,0,1,0,2,-1c0,0,-1,0,-1,0c0,0,-1,0,-1,0c0,0,-1,0,-1,0c0,0,-1,0,-1,0c0,0,0,-1,0,-1ZM232.5,528.5c1,0,1,-1,1,-1c1,0,1,0,2,0c0,0,1,0,1,0c0,1,1,1,1,1c-1,1,-1,1,-1,1c0,0,0,1,-1,1l-1,0l-1,0l1,0c1,-1,1,-1,2,-1c0,0,-1,-1,-1,-1c0,0,-1,0,-1,0c0,0,-1,0,-1,1c0,0,-1,0,-1,0c0,-1,0,-1,0,-1ZM127.5,529.5l1,0c0,0,1,0,1,0c1,0,1,0,1,0c1,0,1,0,1,1c0,0,0,1,-1,1c0,0,-1,0,-1,0c0,1,0,1,0,1c0,0,-1,0,-1,0l-1,0l2,-1c0,0,1,0,1,-1l-1,0c-1,0,-1,0,-2,0l-1,0c0,0,1,0,1,0c0,0,0,-1,0,-1ZM78.5,535.5l0,-1c1,0,1,0,1,0c0,-1,0,-1,0,-1l0,-1l0,-1l0,-1l0,-1c0,-1,0,-1,0,-1l1,1c0,0,-1,0,-1,1l1,0l0,1l0,1l0,1l1,-1c0,0,1,0,1,0c0,0,1,0,1,0l0,1c0,1,0,1,0,1c0,0,-1,0,-1,0c0,0,-1,0,-1,0c-1,1,-1,1,-1,1ZM82.5,533.5c-1,0,-1,0,-1,0l-1,0l-1,1l1,0l1,0c1,-1,1,-1,2,-1c0,0,-1,0,-1,0ZM73.5,545.5l-1,-1l1,-2l1,1ZM71.5,541.5l-1,0c-1,0,-1,0,-1,0c-1,0,-1,-1,-1,-1l-1,0c0,0,0,-1,0,-1c0,1,0,1,-1,1c0,1,-1,1,-1,1l-1,0l-2,0c0,0,-1,-1,-1,-1l0,-1c0,0,-1,0,-1,0c0,0,0,1,0,1l-1,0c0,0,-1,0,-1,1c-1,0,-1,0,-2,0l-1,0c0,0,-1,-1,-1,-1l0,-1l0,-1c0,0,1,0,1,0l0,1l1,0l1,0c0,0,1,0,1,0l1,-1l1,0c0,-1,0,-1,0,-2l0,-2l-1,-1l1,0l0,-1l1,1c0,0,0,1,0,2l0,2c0,0,0,1,0,1c1,0,1,1,1,1c0,0,1,0,1,0l1,0l1,0l1,0l1,0c0,0,0,-1,0,-1l0,-1l1,0c0,1,0,1,0,1c0,0,0,1,0,1c1,0,1,0,2,0l1,0c0,0,1,0,1,0c1,0,1,0,1,0l1,-1c-1,0,-1,0,-1,-1l0,-1l0,-1c1,0,1,0,1,0l0,1l0,1l0,1l0,1c0,0,0,1,0,1c-1,0,-1,0,-2,1c0,0,-1,0,-1,0ZM72.5,547.5l-3,2c0,-1,0,-1,0,-1l4,-2ZM69.5,544.5l-2,-1l-1,1l-1,-1l1,-1l1,1l1,-1l1,1ZM65.5,531.5l5,-2l-1,1l-4,2ZM57.5,544.5l-4,2c0,-1,0,-1,1,-1l4,-2ZM51.5,540.5l-1,0c0,1,0,1,0,1l-1,0l-1,0c-1,0,-1,0,-2,0c-1,0,-2,0,-3,0c0,0,-1,0,-1,0l-1,0c-1,-1,-1,-1,-1,-1l0,-1l0,-1l1,0c0,0,0,1,0,1l1,0c0,0,1,0,1,0l5,0c1,0,1,0,2,0l0,-1l0,-1c0,0,0,-1,0,-1l0,-1c0,-1,0,-2,0,-3c0,-1,0,-2,0,-3c0,-1,0,-1,0,-1c0,-1,0,-1,0,-1c1,0,1,0,1,0c-1,0,-1,0,-1,0c0,1,1,1,1,1l1,0c0,1,-1,1,-1,2c0,1,0,1,0,2c0,1,0,2,0,3c0,0,0,1,0,1c0,1,0,1,0,1l0,1l0,1c0,0,0,1,0,1ZM47.5,536.5l-1,0c0,1,0,1,-1,1c-1,0,-1,0,-1,0l-1,0c0,-1,0,-1,0,-1l1,0c0,0,1,0,1,0c1,0,1,-1,2,-1l-1,0l-1,0l0,-1c-1,0,-1,0,-1,0c0,-1,1,-1,1,-1c0,-1,0,-1,1,-1c0,-1,0,-1,1,-1l0,-1l0,2c-1,0,-1,0,-1,1c0,0,1,0,1,0c0,0,0,1,0,1c1,0,1,0,1,0c0,1,-1,1,-1,2ZM43.5,524.5l4,-2l0,1c-1,0,-1,0,-1,0l-4,2ZM116.5,531.5l-2,-1l-1,2l-1,-1l1,-2l1,1l1,-1l2,1ZM114.5,539.5c0,0,1,0,1,0c0,0,1,0,1,0c0,0,0,-1,0,-1l-1,-1c0,0,0,-1,0,-1l-1,0c0,-1,0,-1,0,-1c0,0,0,-1,0,-1c0,0,0,-1,0,-1c0,0,1,1,1,1c0,0,0,1,1,1l0,1c1,1,1,2,1,2c0,0,0,1,0,1c-1,0,-1,0,-1,1c0,0,-1,0,-1,1c0,0,-1,0,-1,0l-1,0l-1,-1l0,-1c0,0,-1,0,-1,0c0,0,0,1,-1,1c0,0,0,1,-1,1c-1,0,-1,-1,-1,-2l-1,1c0,0,-1,1,-1,1l-1,0c0,0,-1,-1,-1,-2c0,1,0,1,-1,1c0,0,-1,1,-2,1l-1,0c-1,0,-2,0,-2,-1c-1,0,-1,-1,-1,-2l-1,-8l1,-2l1,9l0,1l0,1c1,0,1,0,2,0l1,0l1,0l1,0c0,0,1,-1,1,-2l1,0l0,1c0,1,0,1,1,1c0,0,1,0,1,0c0,0,1,-1,1,-1l0,-1c0,1,1,1,1,1c0,0,0,1,1,1l0,-1c1,0,1,0,1,0c0,0,0,-1,0,-1l1,0c0,1,1,2,1,2l1,0ZM113.5,525.5l4,-2c0,0,0,1,0,1l-4,2ZM107.5,533.5l-2,-1l1,-2l1,1ZM108.5,535.5l-1,-1l-1,1l-1,0l1,-2l1,1l1,-1l1,1ZM102.5,528.5l4,-2l0,1l-4,2ZM94.5,525.5l1,0c0,0,1,0,2,0c0,0,1,0,1,0l1,0l1,0c-1,0,-1,1,-2,1l-1,0l-1,0l-1,0l-1,0l-1,0c1,-1,1,-1,1,-1ZM89.5,538.5c1,-1,1,-1,1,-1l1,0l0,-1l1,0l0,1l0,1l-1,0c-1,0,-1,0,-1,1c1,0,1,0,1,0l0,1c1,0,1,0,1,0c1,0,1,0,1,-1c0,1,0,1,0,1l-5,2c0,0,1,0,1,-1l1,0c0,-1,-1,-1,-1,-1c0,0,0,-1,0,-1l0,-1ZM91.5,528.5c1,-1,1,-1,1,-1c1,1,1,1,1,1c0,0,0,1,0,1c0,1,0,1,-1,1l1,0l0,2l-1,-1l-1,1c0,0,-1,0,-1,1l-1,0l-1,0l1,-1l1,0l0,-1l1,0l0,-1c0,0,-1,0,-1,-1c0,0,1,0,1,-1ZM92.5,529.5l0,-1l-1,0l0,1l1,0l0,1l0,-1ZM141.5,540.5l-1,0l-1,0l-1,-1l-1,1l0,1l-1,0l-1,0l-2,0c0,0,1,0,1,0c0,0,0,1,0,1c0,0,0,1,0,1c0,0,-1,1,-1,2c0,0,-1,1,-1,1c-1,1,-1,1,-2,1c-1,1,-2,1,-2,1c-1,0,-1,0,-2,0c-1,-1,-1,-1,-2,-1c0,0,0,-1,-1,-1c0,-1,0,-1,0,-2c0,0,0,-1,0,-1c0,0,0,-1,0,-1c0,0,1,-1,1,-1c0,-1,0,-1,0,-1l1,0c0,1,-1,1,-1,1c0,0,0,1,0,1c0,1,0,1,0,1c0,1,0,1,0,1c0,1,1,1,1,1c1,0,1,0,1,0c0,1,1,1,2,1c1,0,2,0,2,-1c1,0,2,0,2,-1l1,0l0,-1c0,0,0,-1,0,-1c0,0,-1,-1,-1,-1c0,0,0,-1,0,-1l0,-2l1,0l0,1l1,0l1,0l1,0c0,0,1,0,1,0l1,-1c0,-1,1,-1,1,-2c0,0,1,-1,1,-1c0,0,1,1,1,1c0,0,0,1,0,1l1,1l0,1l-1,0c0,1,0,1,0,1ZM139.5,538.5l1,0c0,-1,0,-1,0,-1c-1,0,-1,0,-1,1ZM136.5,528.5l4,-2l0,1l-4,2ZM128.5,538.5l-1,0l1,-2l1,1ZM184.5,537.5c0,0,-1,0,-1,0c0,0,0,1,0,1c1,0,1,0,1,0l1,0c0,-1,0,-1,0,-1c-1,0,-1,0,-1,0ZM184.5,545.5c-1,0,-1,0,-1,0c-1,1,-1,1,-2,1c-1,0,-1,-1,-2,-1l-1,0c0,0,0,-1,0,-1c1,1,1,1,1,1c0,0,1,0,1,0l1,0c1,-1,1,-1,1,-1l1,0c0,0,0,-1,1,-1l0,-1c1,0,1,0,1,-1c0,0,1,-1,1,-1l0,-1c0,0,-1,0,-1,0c0,0,0,1,0,1c-1,0,-1,0,-1,0c0,0,-1,0,-1,0l0,-1c-1,0,-1,0,-1,-1c1,-1,1,-1,1,-1c0,0,0,-1,0,-1c0,0,1,-1,1,-1l1,0c0,0,1,0,1,1l0,1l0,1c0,0,0,1,0,1l0,1c0,1,0,2,0,3c-1,0,-1,0,-1,1c0,0,-1,0,-1,1ZM181.5,531.5l4,-2l0,1l-4,2ZM177.5,533.5l-1,-1l-1,1l-1,-1l1,-2l1,1l1,-1l1,1ZM175.5,541.5l-1,0l-2,0c-1,0,-1,-1,-1,-1l-1,-1c0,0,0,1,0,1l-1,0c0,0,-1,0,-1,1c-1,0,-1,0,-2,0l-1,0c0,0,-1,-1,-1,-1l0,-1l0,-1l1,0l0,1l1,0l1,0c1,0,1,0,1,0l1,-1c0,0,1,0,1,0c0,-1,0,-1,0,-2l-1,-2l0,-1l1,0l0,-1l1,1c0,0,0,1,0,2l0,2c0,0,0,1,0,1c0,0,0,1,1,1l2,0l1,0c1,0,1,0,2,0c0,0,1,0,1,0l0,-1l0,-1l-1,0l0,-1l1,-1l0,1l1,1l0,1l-1,1c0,0,0,1,0,1c0,0,-1,0,-1,1c-1,0,-1,0,-2,0ZM176.5,522.5c0,-1,0,-1,0,-1c0,0,1,-1,1,-1l0,1c1,0,1,0,1,0c0,1,0,1,0,1l0,1c-1,0,-1,0,-1,0l1,0l0,1l0,1l-1,-1l-1,0l0,1c-1,0,-1,1,-1,1l-1,0c-1,0,-1,0,-1,0l1,0l1,-1l1,-1l0,-1c-1,0,-1,0,-1,0l0,-1l1,0ZM177.5,522.5l-1,0l1,1l0,-1ZM169.5,529.5l-2,0l1,-2l1,1ZM169.5,546.5l-4,3c1,-1,1,-1,1,-2l4,-2ZM159.5,529.5c0,-1,0,-1,0,-1c0,-1,0,-1,1,-1c0,1,0,1,0,1c0,0,0,1,1,1l-1,1c0,1,0,2,0,3c0,1,0,2,0,2c1,2,1,3,1,4l-1,1c0,0,0,1,0,1c0,1,-1,1,-1,2c0,0,-1,0,-1,0c0,0,-1,1,-1,1c-1,0,-2,0,-2,0l-1,0l-1,0c-1,0,-1,0,-2,-1l0,-1c0,0,0,-1,0,-1c0,-1,0,-1,0,-2c0,0,0,-1,0,-1l1,-1l0,1c-1,1,-1,1,-1,2c0,0,1,1,1,1c1,1,1,1,2,1l1,0c1,0,2,0,3,0c0,-1,1,-1,1,-2c0,0,1,0,1,0l0,-1c0,-1,0,-2,-1,-3c0,-1,0,-2,0,-3c0,-2,0,-3,0,-4ZM154.5,527.5l0,1c0,0,1,0,1,0l0,-1l0,-1l1,1l0,1c0,0,1,-1,1,-1l0,-1l0,1l0,1c0,0,0,1,0,1l-1,0l-1,0l0,-1l0,1c0,0,-1,0,-1,0l0,-1l0,-1ZM155.5,522.5c0,0,1,-1,1,-1l1,0l0,1l0,1l0,1l0,1l-1,0c-1,1,-1,1,-1,1c-1,0,-1,0,-2,0c1,0,2,-1,3,-2l-1,0c0,0,0,-1,0,-1c0,0,0,-1,0,-1ZM156.5,522.5l0,1l1,0l-1,0l0,-1ZM222.5,531.5l-1,-1l-1,2l-2,-1l1,-2l2,1l1,-1l1,1ZM220.5,539.5c0,0,1,0,1,0c0,0,1,0,1,0c0,0,0,-1,0,-1l0,-1c-1,0,-1,-1,-1,-1l-1,0c0,-1,0,-1,0,-1c0,0,0,-1,0,-1c0,0,0,-1,0,-1c1,0,1,1,1,1c0,0,1,1,1,1l0,1l1,0c0,1,0,2,0,2c0,0,0,1,0,1l-1,1l-1,1l-1,0l-1,0l-1,-1l0,-1l-1,0c0,0,0,1,0,1c-1,0,-1,1,-2,1c0,0,-1,-1,-1,-2l-1,1c0,0,0,1,-1,1c-1,0,-2,-1,-2,-2c0,1,0,1,-1,1c0,0,-1,1,-1,1l-1,0l-1,0c-1,0,-2,0,-2,-1c-1,0,-1,-1,-1,-2l0,-8l0,-2l1,9l0,1l0,1c1,0,1,0,2,0l1,0l1,0l1,0c1,0,1,-1,2,-2l0,1c0,1,0,1,1,1c0,0,1,0,1,0c0,0,1,-1,1,-1l0,-1l1,0c0,1,0,1,0,1c0,0,0,1,1,1l1,-1c0,0,0,-1,1,-1c0,1,1,2,1,2l1,0ZM219.5,525.5l4,-2c0,0,0,1,0,1l-4,2ZM213.5,533.5l-2,-1l1,-2l2,1ZM214.5,535.5l-1,-1l-1,1l-1,0l1,-2l1,1l1,-1l1,1ZM208.5,528.5l4,-2l0,1l-4,2ZM201.5,525.5c0,0,1,0,2,0c0,0,1,0,1,0l1,0l1,0c-1,0,-1,1,-1,1l-1,0l-1,0c-1,0,-1,0,-1,0l-1,0c0,0,-1,0,-1,0c0,-1,0,-1,1,-1ZM195.5,538.5c1,-1,1,-1,1,-1c1,0,1,0,1,-1c1,0,1,0,1,0l0,1l0,1l-1,0c-1,0,-1,0,-1,1c0,0,1,0,1,0l0,1c0,0,1,0,1,0c0,0,1,0,1,-1c0,1,0,1,0,1l-5,2l1,-1c0,0,1,0,1,0c-1,-1,-1,-1,-1,-1c0,0,0,-1,0,-1l0,-1ZM197.5,528.5c0,-1,1,-1,1,-1c1,1,1,1,1,1c0,0,0,1,0,1c-1,1,-1,1,-1,1l1,0l0,2l-1,-1l-1,0l0,1c-1,0,-1,0,-1,1l-1,0c-1,0,-1,0,-1,0l1,-1l1,0l0,-1l1,0l0,-1c-1,0,-1,0,-1,-1l1,-1ZM198.5,529.5l0,-1l-1,0l0,1l1,0l0,1l0,-1ZM247.5,540.5c0,0,-1,0,-1,0l-1,0l-1,-1l-1,1l0,1l-1,0l-1,0l-2,0c0,0,0,1,0,1c0,0,0,1,0,1c0,0,0,1,0,2c0,0,-1,1,-1,1c-1,1,-1,1,-2,1c-1,1,-2,1,-2,1c-1,0,-2,0,-2,0c-1,-1,-1,-1,-2,-1c0,0,0,-1,-1,-1c0,-1,0,-1,0,-2c0,0,0,-1,0,-1c0,0,0,-1,0,-1c0,0,0,-1,1,-1c0,-1,0,-1,0,-1l1,0c0,1,-1,1,-1,1c0,0,0,1,0,1c0,1,0,1,0,1c0,1,0,1,0,1c0,1,0,1,1,1c0,0,1,0,1,0c0,1,1,1,2,1c1,0,1,0,2,-1c1,0,2,0,2,-1c1,0,1,0,1,-1c0,0,0,-1,0,-1c0,0,-1,0,-1,0c0,0,0,-1,0,-1c0,0,0,-1,0,-1l0,-2c1,0,1,0,1,1l1,0l1,0l1,0c0,0,1,0,1,0l1,-1c0,-1,0,-1,1,-2c0,0,1,-1,1,-1c0,0,1,1,1,1c0,0,0,1,0,1l0,1l1,0l0,1c-1,0,-1,0,-1,0c0,1,0,1,0,1ZM245.5,538.5l1,0c0,-1,0,-1,-1,-1l0,1ZM242.5,528.5l4,-2l0,1l-4,2ZM234.5,538.5l-1,0l1,-2l1,1ZM280.5,537.5l-1,0c0,0,0,1,0,1c0,0,1,0,1,0c0,0,1,0,1,0c0,-1,-1,-1,-1,-1ZM280.5,545.5l-1,0c-1,1,-1,1,-2,1c-1,0,-1,-1,-2,-1c0,0,-1,0,-1,0c0,0,0,-1,0,-1c0,1,1,1,1,1l1,0l1,0c0,-1,1,-1,1,-1c1,0,1,-1,2,-1l0,-1c0,0,1,0,1,-1c0,0,0,-1,0,-1l0,-1c0,0,0,1,0,1l-1,0l-1,0l0,-1c-1,0,-1,0,-1,0l0,-1c0,-1,0,-1,0,-1c1,0,1,-1,1,-1c0,0,0,-1,1,-1c1,0,1,0,1,0l1,1l0,1l0,1c0,0,0,1,0,1l0,1c0,1,0,2,-1,3l0,1c0,0,-1,0,-1,1ZM277.5,531.5l4,-2l0,1l-4,2ZM273.5,533.5l-1,-1l-1,1l-2,-1l1,-2l2,1l1,-1l1,1ZM271.5,541.5l-1,0c-1,0,-1,0,-2,0c0,0,0,-1,-1,-1l-1,-1l0,1l-1,0c0,0,-1,0,-1,0c0,0,0,1,-1,1l-1,0c-1,0,-1,0,-1,0l0,1c0,1,0,1,-1,2l0,1c-1,0,-1,0,-1,0c0,1,-1,1,-1,1c0,0,-1,0,-1,0c0,0,-1,0,-1,0c-1,0,-1,0,-2,0c0,0,-1,0,-1,0c0,-1,0,-1,0,-1c0,0,1,0,1,1l1,0c0,0,1,0,1,-1c1,0,1,0,1,0c1,0,1,-1,1,-1c0,0,1,0,1,-1l0,-1c1,0,1,0,1,-1l0,-1c0,0,-1,-1,-1,-1l1,0l0,-1l0,1l1,0l1,0c1,0,1,0,1,0l1,0l1,-1l-1,0c0,-1,0,-1,-1,-1l1,-2l1,0c0,0,1,0,1,0c1,0,1,0,1,0c1,0,1,0,1,0c0,1,0,1,0,1c0,1,0,1,0,1c0,0,0,1,-1,1l1,1l1,0l1,0l1,0c0,0,1,0,1,0c1,0,1,0,2,0l0,-1l-1,-1l0,-1l1,-1l0,1l0,1l0,1l0,1c0,0,0,1,0,1c-1,0,-1,0,-2,1c0,0,-1,0,-1,0ZM271.5,522.5c1,-1,1,-1,1,-1c0,0,1,-1,1,-1l0,1c0,0,1,0,1,0c0,1,0,1,-1,1l0,1l1,1l0,1l-1,-1l-1,0l0,1c-1,0,-1,1,-1,1l-1,0l-1,0l1,0l1,-1l0,-1l1,0l-1,-1l0,-1ZM273.5,522.5l-1,0l0,1l1,0l0,-1ZM267.5,544.5l-5,2c1,-1,1,-1,1,-1l4,-2ZM288.5,533.5l0,-1l1,0ZM289.5,536.5c0,1,0,1,-1,1l0,1c0,0,-1,0,-1,0l-1,0l-1,0l1,0c1,0,1,0,1,0c0,-1,0,-1,0,-1c1,0,1,0,1,0l0,-1c1,0,1,-1,1,-1l-1,0l0,-1c0,0,1,0,1,0c0,1,0,1,0,2ZM260.5,536.5l-1,-1l0,-2l2,1ZM257.5,526.5l0,1c0,0,0,1,1,1c0,0,0,-1,0,-1l0,-1l1,0l0,1c1,0,1,0,1,-1l0,-1l0,1l0,1c0,1,0,1,0,1l-1,0l-1,0c0,1,0,1,-1,1l0,-1l0,-1l0,-1ZM258.5,521.5c1,0,1,0,1,-1c0,0,1,0,1,0c0,0,1,1,1,1c0,0,0,1,0,1l-1,0c0,0,0,1,0,1l0,1l-1,1c-1,0,-1,0,-1,0c-1,1,-1,1,-1,1c-1,0,-1,0,-1,0c1,-1,2,-2,3,-3l-1,0l0,-1l0,-1ZM260.5,522.5l-1,-1l0,1l1,0ZM321.5,531.5l-1,-1l-1,2l-1,-1l0,-2l2,1l1,-1l1,1ZM319.5,539.5c1,0,1,0,1,0c1,0,1,0,1,0c0,0,0,-1,0,-1l0,-1c0,0,-1,-1,-1,-1l-1,0c0,-1,0,-1,0,-1c0,0,0,-1,0,-1c0,0,0,-1,1,-1c0,0,0,1,0,1c1,0,1,1,1,1l0,1l1,0c0,1,0,2,0,2c0,0,0,1,0,1l0,1l-1,0l0,1l-1,0l-1,0l-1,0l0,-1l-1,0l0,-1c-1,0,-1,1,-1,1c-1,0,-1,1,-1,1c-1,0,-2,-1,-2,-2l0,1c-1,0,-1,1,-2,1c-1,0,-1,-1,-2,-2c0,1,0,1,0,1c-1,0,-1,1,-2,1l-1,0l-1,0c-1,0,-1,0,-2,-1c0,0,-1,-1,-1,-2l0,-8l1,-2l0,9l0,1l1,1l1,0l1,0l1,0l1,0c1,0,1,-1,2,-2l0,1c0,1,1,1,1,1c0,0,1,0,1,0c1,0,1,-1,1,-1l1,-1c0,1,0,1,0,1c0,0,1,1,1,1c0,0,1,0,1,-1c0,0,1,-1,1,-1c0,1,1,2,2,2ZM318.5,525.5l5,-2l-1,0c0,0,0,1,0,1l-4,2ZM312.5,533.5l-1,-1l0,-2l2,1ZM314.5,535.5l-2,-1l-1,1l-1,0l1,-2l1,1l1,-1l1,1ZM307.5,528.5l5,-2l-1,0l0,1l-4,2ZM300.5,525.5c1,0,1,0,2,0c1,0,1,0,1,0l1,0l1,0c0,0,-1,1,-1,1l-1,0l-1,0l-1,0l-1,0c-1,0,-1,0,-1,0c0,-1,0,-1,1,-1ZM294.5,538.5c1,-1,1,-1,1,-1c1,0,1,0,1,0l0,-1l1,0l0,1l0,1l-1,0c0,0,-1,0,-1,1l1,0l1,1c1,0,1,0,1,-1c0,1,0,1,0,1l-5,2c1,0,1,0,1,-1c1,0,1,0,1,0c0,-1,-1,-1,-1,-1c0,0,0,-1,0,-1l0,-1ZM296.5,528.5c1,-1,1,-1,1,-1c0,0,1,0,1,0c0,1,0,1,0,1c0,0,0,1,0,1c0,1,0,1,0,1l0,2l-1,-1l-1,1c0,0,-1,0,-1,1l-1,0l0,-1l1,0l1,-1l0,-1l0,-1l0,-1ZM297.5,529.5l0,-1c-1,0,-1,0,-1,1l1,0l0,1l0,-1ZM358.5,540.5c-1,0,-1,0,-1,0l-1,0l-1,0l-1,-1l0,1l0,1l-1,0l-1,0l-1,0c-1,0,-1,0,-2,-1c-1,1,-1,1,-1,1c-1,0,-1,0,-2,0l-1,-1l-1,0l-1,0c0,1,-1,1,-1,1l-1,0l-1,0l-1,0c0,0,0,1,0,1c0,0,0,1,0,1c0,0,0,1,0,2c-1,0,-1,1,-2,1c0,1,-1,1,-2,1c0,1,-1,1,-2,1c0,0,-1,0,-2,0c0,-1,-1,-1,-1,-1c-1,0,-1,-1,-1,-1c0,-1,-1,-1,-1,-2c0,0,0,-1,0,-1c0,0,1,0,1,0c0,0,0,-1,0,-1c0,0,0,-1,0,-1c1,-1,1,-1,1,-1c0,1,0,1,0,1c0,0,0,1,-1,1c0,1,0,1,0,1c0,1,0,1,1,1c0,1,0,1,0,1c0,0,1,0,1,0c1,1,2,1,2,1c1,0,2,0,3,-1c1,0,1,0,2,-1l0,-1c0,0,0,-1,0,-1c0,0,0,-1,0,-1c0,0,-1,-1,-1,-1l1,-2l0,1c0,0,1,0,1,0l1,0l1,0l1,0c0,0,1,0,1,0l0,-1c0,0,1,0,1,0c1,-2,2,-2,3,-2l1,1l0,1l1,0l0,1c1,0,1,0,1,0l1,0l1,0l1,0l1,0l1,-1c0,-1,0,-1,1,-2c0,0,0,-1,1,-1c0,0,0,1,1,1c0,0,0,1,0,1l0,1l0,1c0,1,0,1,0,1ZM356.5,538.5l1,0c0,-1,0,-1,-1,-1l0,1c0,0,-1,0,-1,0c0,0,1,0,1,0ZM357.5,544.5l-5,2c1,-1,1,-1,1,-1l4,-2ZM348.5,539.5l-1,-1l0,-1c-1,0,-1,0,-1,0l0,1l-1,0c0,0,1,0,1,1l1,0ZM345.5,527.5l0,1l1,0l0,-1l0,-1l0,1c0,0,1,0,1,0c0,1,0,1,0,1c0,0,0,-1,0,-1l1,-1l0,1l0,1c0,0,0,1,-1,1c0,0,-1,0,-1,0l0,-1l0,1c0,0,-1,0,-1,0l-1,0l0,-1l0,-1ZM349.5,524.5l-6,3c1,-1,1,-1,1,-1l5,-3ZM334.5,538.5l-2,0l1,-2l2,1ZM414.5,541.5l0,-1l0,-1l-1,-9l1,-2l1,10c0,1,-1,1,-1,1l0,1c0,0,0,1,0,1ZM406.5,539.5c0,0,1,0,1,0l1,0c0,-1,1,-1,1,-1l-1,-2l0,-7c0,-1,0,-1,0,-1c0,-1,0,-1,1,-1c0,1,0,1,0,1c0,0,0,1,1,1l-1,1c0,1,0,1,0,2c0,0,0,1,0,3c0,0,0,1,0,1l0,1c0,1,0,1,0,1l0,1c0,0,0,1,0,1c0,0,-1,0,-1,0c0,1,-1,1,-1,1l-1,0l-1,0c-1,0,-1,0,-2,-1c-1,1,-1,1,-1,1l-1,0l-1,0l-1,-1l-1,0l-1,0c0,1,-1,1,-1,1l-1,0l-1,0c0,0,-1,0,-1,0c0,-1,-1,-1,-1,-2c0,0,0,1,-1,1c0,1,0,1,-1,1c-1,0,-1,0,-1,0c-1,-1,-1,-1,-1,-2c-1,0,-1,1,-1,1c-1,0,-1,1,-2,1c-1,0,-1,0,-1,0c-1,0,-1,0,-1,0c-1,0,-2,0,-2,0c-1,0,-2,0,-3,0c-1,0,-2,0,-2,0c-1,0,-3,0,-4,0c-1,0,-2,0,-3,0c-1,0,-2,0,-3,0c-1,0,-2,0,-2,-1c0,0,-1,0,-1,0l0,-1c1,0,1,0,2,0c0,0,1,0,2,0c0,0,0,1,1,1c1,0,3,0,4,0c1,0,3,0,4,0c1,0,2,0,3,0c1,-1,2,-1,3,-1l1,0l1,0c0,0,1,0,1,0l1,0c1,0,1,0,1,0c0,-1,0,-1,0,-1c0,0,0,-1,0,-1l0,-1l0,-7l1,-2l0,11l1,1l1,0l1,0l1,-1c0,0,0,-1,0,-1l0,-1l-1,-7l1,-2l1,11l0,1c0,0,1,0,1,0l1,0l1,0c0,0,1,0,1,0l0,-1c0,0,1,0,1,0c1,-2,2,-2,3,-2l0,1l1,1l1,0l0,1c1,0,1,0,1,0l1,0l1,0ZM406.5,523.5c0,0,1,0,1,-1c0,0,1,0,1,0c1,0,1,0,2,1c0,1,0,1,0,1c-1,1,-1,1,-1,1c-1,0,-1,0,-1,0l-1,0c0,0,-1,0,-1,0l2,0c1,-1,1,-1,1,-1c-1,0,-1,0,-1,0c-1,0,-1,0,-1,0c-1,0,-1,0,-1,0c0,0,0,-1,0,-1ZM402.5,539.5l-1,-1l0,-1c-1,0,-1,0,-1,0l0,1l-1,0c0,0,1,0,1,1l1,0ZM399.5,525.5c1,0,1,-1,1,-1c0,0,1,0,1,0c1,0,1,0,1,1l0,1l-1,0l0,1l1,0l0,1l-1,0l-1,0c-1,1,-1,1,-1,1l-1,0l-1,0l1,0l1,-1l1,-1l-1,0c0,0,0,-1,0,-1c0,0,0,-1,0,-1ZM401.5,525.5l-1,0l0,1l1,0c0,0,0,-1,0,-1ZM390.5,519.5c0,0,1,0,1,0c1,0,1,0,1,0c1,0,1,0,2,0l0,1c0,0,0,1,0,1c0,0,-1,0,-1,0l0,1c0,0,-1,0,-1,0l-1,0l-1,0l2,-1c1,0,1,0,2,-1c-1,0,-1,0,-1,0c0,0,-1,0,-1,0c0,0,-1,0,-1,0c0,0,-1,0,-1,0c0,0,0,-1,0,-1ZM378.5,536.5c0,1,-1,1,-1,1c0,0,-1,0,-1,0c-1,0,-1,0,-1,0c0,0,-1,0,-1,0l1,0c0,0,1,0,1,0c1,-1,1,-1,1,-1l-1,-1c-1,0,-1,0,-1,0c0,-1,0,-1,1,-2l0,-1c1,0,1,0,1,0c1,-1,1,-1,1,-1l0,2l-1,0l-1,1c0,0,1,0,1,0l1,0c1,1,1,1,1,1c0,0,-1,1,-1,1ZM371.5,531.5l3,-1l6,-2l4,-1l1,-1l-1,2l-1,0l-1,1l-2,0l-6,2l-3,1l-1,1ZM141.5,574.5c-1,0,-1,0,-1,0l0,1l-1,0c0,0,0,1,0,1l0,1c0,0,1,1,1,1l-1,0l0,-1l0,-1l0,-1c0,-1,0,-1,1,-1c0,0,0,-1,1,-1l1,0l0,-1ZM141.5,576.5c0,-1,0,-1,0,-1c0,0,1,-1,1,-1c0,1,0,1,0,1c1,0,1,0,1,1l0,1l-1,0l1,1l0,1l-1,-1l-1,1c0,0,-1,1,-1,1l-1,0c0,0,-1,0,-1,0l1,0l1,-1l1,-1l0,-1c-1,0,-1,0,-1,0l0,-1l1,0ZM142.5,576.5l-1,0l0,1l1,0l0,-1ZM146.5,574.5c0,0,1,-1,1,-1c0,0,1,0,1,0c1,0,1,0,2,0c0,1,0,1,0,1c0,1,0,1,0,1c-1,0,-1,1,-1,1c0,0,-1,0,-1,0l-1,0c0,0,-1,0,-1,0l2,0c1,-1,1,-1,1,-1c0,0,0,-1,0,-1c-1,0,-1,0,-1,0c-1,0,-1,0,-1,1c-1,0,-1,0,-1,0c0,-1,0,-1,0,-1ZM302.5,579.5l0,-1l1,0l0,-1l0,-1l0,-1l0,-1l-1,-1l1,-1l0,1c0,0,0,1,0,1l0,1l0,1l0,1l0,1l1,-1l1,-1l1,0c1,0,1,1,1,1c0,1,0,1,0,1c-1,0,-1,0,-1,0l0,1c-1,0,-1,0,-2,0ZM305.5,577.5l-1,0l0,1l-1,0l1,0l1,0c0,0,1,0,1,0c0,-1,0,-1,0,-1l-1,0ZM132.5,585.5c0,1,0,1,-1,2l0,1c-1,0,-1,1,-1,1l1,0l0,1l-1,0c0,0,0,1,-1,1c0,1,-1,1,-1,1l-1,0l-1,1l-1,0l-1,0l0,1l-1,1l-3,0l-3,0c-1,0,-1,0,-1,-1l-1,-1l-1,0c-1,0,-1,-1,-2,-1l-1,0l0,-1l-1,0l0,-1l-1,0l-1,0l0,-1l1,0l0,-1l-1,-1l0,-1l0,-1l0,-1c0,0,0,-1,0,-1l0,-1c0,0,1,-1,1,-1l-1,-1l1,-1l1,0l0,-1l1,0l1,-1l1,0l1,-1c0,0,1,0,1,0l1,-1c0,0,0,-1,1,-1l3,0l3,0l0,1l1,0l0,1l1,0l2,1l1,0c0,1,0,1,1,1l0,1l1,0c1,0,1,1,1,1l-1,1l1,0l0,1l0,1l1,0l0,1ZM123.5,595.5l0,-1l1,0l0,-1l1,0c0,0,1,-1,1,-1l1,0c1,0,1,-1,2,-1c0,-1,1,-1,1,-1l1,0l0,-1l-1,0l0,-1l1,0l0,-1l0,-1l0,-1c0,-1,0,-2,0,-3c0,-1,-1,-1,-1,-1l0,-1l1,0c0,0,-1,-1,-1,-1l-1,0l0,-1l-1,0l-2,-1l-1,0c0,-1,-1,-1,-1,-1l-1,-1l0,-1l-1,0l-2,0l-1,0l-2,0l0,1l-1,0l-1,1l-1,1l-1,0l-1,1l-1,0l-1,0l0,1c-1,0,-1,1,-2,1l1,0l1,0l0,1l-1,0l0,1l-1,0l0,1l0,1l0,1l0,1l0,1l1,0c0,0,0,1,0,1l1,1l-2,0l1,1l1,0l0,1l1,0l1,1l1,0l1,1c1,0,1,0,1,0l1,1c0,1,1,1,1,1l3,0ZM128.5,580.5l-1,0l0,-1l-1,0c0,0,-1,0,-1,0c0,0,0,-1,0,-1l1,0c1,0,1,0,1,0c0,1,0,1,0,1c0,0,1,0,1,0l0,1ZM128.5,590.5l-1,1l-1,0l-1,1l0,-1c0,0,1,0,1,0l1,-1c0,0,1,0,1,-1ZM124.5,592.5l0,1c-1,0,-1,0,-1,0l-3,0l-3,0c-1,0,-1,0,-1,0c0,-1,0,-1,0,-1c-1,0,-1,0,-1,0c0,-1,1,-1,1,-1l1,-1l3,0l3,0l0,1l1,0ZM124.5,578.5l0,1c0,0,-1,0,-1,0l-3,0l-3,0c-1,0,-1,0,-1,0l0,-1l-1,0c0,-1,1,-1,1,-1l0,-1l1,0l3,0l3,0c0,0,0,1,1,1l0,1ZM123.5,580.5c1,0,1,0,1,0c1,0,1,0,2,0l0,1l1,0l1,0l1,1l0,1l0,1l0,1l0,1l0,1c0,0,0,1,0,1c-1,0,-1,0,-1,0l-1,0l-1,1l-1,0l0,1l-1,0l0,-1c-1,0,-1,0,-1,0l-3,0l-3,0l-1,0l-1,1c0,0,-1,-1,-1,-1c-1,0,-1,0,-1,-1l-1,0l-1,0l-1,-2l0,-1c0,-1,0,-1,0,-1c0,-1,0,-1,0,-1l0,-1l1,0c0,-1,0,-1,0,-1l1,0c1,0,1,0,1,0l0,-1l1,0c0,0,1,0,1,0c0,0,1,0,1,0l1,0l3,0ZM123.5,589.5c1,0,1,0,1,0l1,0l1,0l1,-1l1,0l0,-1l1,0l0,-1l0,-1c0,-1,0,-1,0,-2c0,0,0,-1,-1,-1c0,0,0,-1,0,-1l-1,1l0,-1l-1,0l-1,-1l-1,0l-1,0l0,1l-3,0l-3,0l-1,0l0,-1l-1,0l-1,0l-1,1c0,1,-1,1,-1,1l-1,-1c0,0,0,1,0,1l-1,1l0,1l0,1l0,1l1,0l0,1c0,0,0,1,0,1l1,0c0,0,1,0,1,0l0,1l1,0l1,0c0,0,1,0,1,0l1,0l3,0l3,0ZM120.5,583.5l1,0l1,0c0,0,0,1,0,1l0,1c0,1,0,1,0,1l0,1l0,-1l0,-1l-1,-1l1,0l-1,0c-1,0,-1,0,-1,0l0,-1ZM119.5,583.5c0,1,0,1,0,1l-1,0l0,1l0,1c0,0,0,1,0,1l0,-1l0,-1l-1,0l0,-1l0,-1c0,0,1,0,1,0c1,0,1,0,1,0ZM111.5,580.5l0,-1l1,0l1,-1l1,0c0,0,0,1,0,1l-1,0l-1,0l0,1l-1,0ZM111.5,590.5l0,-1l1,0c0,1,0,1,1,1l1,1l0,1l0,-1l-1,0c0,0,-1,0,-1,-1l-1,0ZM166.5,577.5l-2,0l0,1l-2,-1l1,-2l2,1l0,-1l2,1ZM167.5,585.5c0,0,0,1,0,1l-1,0c0,1,-1,1,-2,1c0,0,-1,0,-1,0l-1,0l-2,0c-1,0,-1,0,-1,0l0,-1l-1,0c0,0,0,-1,0,-1l0,1l-1,0c0,1,-1,1,-1,1c-1,0,-1,0,-2,0l-1,0c0,0,-1,0,-1,0c0,-1,0,-1,0,-1l0,-1l0,-1c0,0,0,1,1,1l1,0l1,0c1,0,1,0,1,0l1,0c0,0,1,-1,1,-1c0,0,0,-1,0,-1l-1,-2l0,-1l1,-1l0,-1l0,2c1,0,1,0,1,1l0,2c0,1,0,1,0,1c0,0,0,1,0,1l1,0c0,0,0,1,0,1l2,0c1,0,2,-1,3,-1c0,0,1,0,2,0c0,-1,0,-1,0,-1l0,-1l-1,0l0,1c-1,0,-1,0,-1,0c0,0,-1,0,-1,0c0,-1,0,-1,-1,-1l0,-1c0,0,0,-1,0,-1l1,-1c0,-1,1,-1,1,-1c1,0,1,0,1,0c1,0,1,1,1,1c0,0,0,1,0,1c0,1,0,1,1,1c0,1,0,1,0,2c0,0,0,1,-1,1ZM164.5,581.5c0,1,1,1,1,1c0,0,1,0,1,-1l-1,0c-1,0,-1,0,-1,0ZM163.5,571.5l4,-2l0,1l-4,2ZM155.5,590.5l-4,2l0,-1l4,-2ZM148.5,590.5l-1,-1l-1,2l-1,-1l1,-2l1,1l1,-1l1,1ZM145.5,586.5c1,0,1,-1,2,-1c0,0,1,0,1,0l0,-1c0,-1,0,-1,-1,-1l1,-2l0,1c1,0,1,0,1,0l0,1l0,1l0,1l0,1c-1,0,-1,0,-1,0c0,1,-1,1,-1,1c-1,0,-1,0,-1,0l-1,0l-1,0c0,1,0,1,0,1c-1,1,-1,2,-1,2c0,1,0,1,-1,1c0,0,0,1,0,1c-1,0,-1,0,-1,1c-1,0,-1,0,-1,0c-1,0,-1,0,-1,0l-1,0c0,0,-1,0,-1,-1c-1,0,-1,0,-1,0l1,0c1,0,1,0,2,0c0,0,1,-1,1,-1c0,0,1,0,1,0c0,-1,0,-1,1,-1c0,-1,0,-1,0,-1c0,-1,1,-1,1,-1c0,-1,0,-1,0,-1c0,0,-1,-1,-1,-1l0,-1c0,-1,1,-1,1,-1c0,1,0,1,0,1l1,0l0,1ZM198.5,578.5l-2,-1l1,-1l2,1ZM200.5,581.5l-2,-1l-1,1l-1,-1l1,-1l1,1l1,-2l1,1ZM200.5,585.5c0,-1,0,-1,0,-1l0,-1l1,0c0,0,0,1,0,1l0,1c0,0,1,0,1,0c1,0,1,0,1,0c0,0,0,-1,0,-1c0,0,-1,0,-1,0l0,-1l1,0l0,-1c0,0,0,1,0,1l1,0l0,1l0,1l-1,1c0,0,0,1,0,1c0,0,-1,0,-1,0c0,0,-1,0,-1,0c-1,0,-1,-1,-1,-1c0,1,0,1,-1,1c0,0,-1,0,-1,0l-1,0c-1,0,-1,0,-1,0c0,0,-1,0,-1,-1c-1,0,-1,0,-2,0c0,0,-1,1,-1,1c0,1,0,1,1,1l1,0c1,0,1,0,1,1c0,0,1,0,1,0l0,1c0,0,0,1,-1,1l0,1c-1,0,-2,1,-3,1c-1,0,-2,1,-4,1c-1,0,-1,0,-2,-1c-1,0,-1,0,-2,-1l0,-1c-1,0,-1,-1,-1,-2c0,0,0,-1,1,-2c0,0,0,-1,1,-1c0,-1,0,-1,0,-1l0,1c0,0,0,1,0,1c-1,1,-1,1,-1,2c0,1,1,1,1,2c1,0,2,1,3,1c0,0,1,0,1,0c1,0,1,0,1,0c0,0,1,0,1,-1c0,0,1,0,1,0l1,0c1,0,1,0,1,0c0,-1,1,-1,1,-1c-1,0,-1,0,-2,0c-1,0,-2,-1,-2,-1c0,0,0,-1,0,-1c0,-1,0,-1,0,-1c0,0,0,-1,1,-1c0,-1,1,-1,1,-2c1,0,1,0,1,0c0,0,1,0,1,0c0,0,1,0,1,0l0,1l1,0c0,0,1,0,1,0c1,0,1,0,1,0l1,0ZM195.5,571.5l5,-2l-1,0c0,1,0,1,0,1l-4,2ZM186.5,576.5c1,0,1,0,1,0c1,0,1,0,2,0c0,0,1,0,1,0c0,0,1,0,1,1c-1,0,-1,1,-1,1l-1,0c0,0,0,1,0,1l-1,0l-1,0l1,-1c1,0,1,0,2,-1c0,0,-1,0,-1,0c0,0,-1,0,-1,0c0,0,-1,0,-1,0l-1,0c0,0,0,-1,0,-1ZM176.5,585.5c0,0,1,-1,1,-1c0,0,0,-1,1,-1l1,0l1,0l0,1l0,1l-1,0l0,-1l-1,0c0,0,-1,1,-1,1l1,0c0,0,0,1,0,1l1,0c1,0,1,0,2,0c0,0,0,1,-1,1l-4,1l1,-1l0,-1c-1,0,-1,0,-1,-1ZM175.5,593.5l1,0l3,-3l0,1l0,1l-4,2l0,-1ZM173.5,597.5l1,0l3,-3l0,1l0,1l-4,2l0,-1ZM232.5,574.5c0,0,0,1,-1,1c-2,1,-3,1,-4,2c-2,0,-3,1,-3,1l-1,0c0,1,1,1,1,1l2,1c0,0,1,1,2,2l0,1c0,0,0,1,0,1c0,1,0,1,0,2c-1,1,-1,1,-1,1c-1,0,-1,0,-1,0c-1,0,-1,0,-2,0l-1,0l-1,0c0,0,0,-1,0,-2l0,2l0,1c0,0,-1,1,-1,1c0,1,0,1,-1,2l-1,0c0,1,0,1,-1,1l-1,0c0,0,-1,0,-1,0l-1,0c-1,0,-1,0,-1,0c-1,0,-1,0,-1,-1c-1,0,-1,0,-1,-1l0,-1c0,-1,0,-1,0,-2c0,0,0,-1,0,-1l1,-1l0,1l0,1c0,0,-1,1,-1,1c0,1,1,1,1,2c1,0,1,0,2,0c0,0,1,0,1,0c1,0,2,0,3,0c1,-1,1,-1,2,-1c0,-1,0,-1,0,-1l0,-1l0,-2c0,-1,0,-1,0,-2l0,-1l-1,-7l1,-2l1,11c0,1,0,1,0,1c0,0,1,0,1,0c0,0,0,1,1,1l1,0c1,-1,1,-1,1,-1c0,0,1,0,1,0l1,0c0,0,0,-1,0,-1l0,-1c-1,0,-1,-1,-2,-1c0,0,-1,-1,-1,-1l-1,0l-1,0c0,0,0,-1,0,-1l0,-1l0,-1l0,-1c0,0,1,0,1,0c0,-1,2,-1,3,-2c1,-1,3,-1,4,-2c1,0,2,0,2,0ZM227.5,568.5c0,0,1,-1,1,-1l1,0l0,1l0,1l0,1l1,0l-1,1l-1,0c-1,1,-1,1,-1,1l-1,0l-1,0l1,0l0,-1c1,0,1,0,1,0l1,-1l-1,0c0,0,0,-1,0,-1c0,0,0,-1,0,-1ZM228.5,568.5l0,1l1,0l-1,0c0,-1,0,-1,0,-1ZM215.5,570.5c1,1,1,1,1,1c0,-1,0,-1,1,-1l0,-1l0,1c0,0,1,0,1,0l0,-1l0,-1l1,0l0,1l0,1l-1,0c0,1,0,1,0,1l-1,0c-1,1,-1,1,-1,1c-1,0,-1,0,-1,0c0,-1,0,-1,0,-1l0,-1ZM218.5,595.5l-4,2c0,0,1,-1,1,-1l4,-2ZM262.5,584.5c-1,0,-2,1,-3,1c-1,1,-2,1,-3,2c-1,0,-2,0,-3,0l-1,0l-1,0c0,-1,-1,-1,-1,-2c0,1,0,1,0,1c0,0,-1,1,-1,1l-1,0c1,0,1,0,1,1c1,0,1,0,1,0c0,0,1,0,1,0c0,0,0,1,0,1c-1,0,-1,1,-1,1c0,0,0,1,0,1c-1,0,-1,0,-2,1c0,0,-1,0,-2,1c-1,0,-2,0,-2,0c-1,0,-1,0,-1,0c0,0,-1,0,-2,0c0,0,-1,-1,-1,-1c0,0,-1,-1,-1,-1c0,-1,0,-1,0,-1l0,-1c0,0,0,-1,0,-2c0,-1,1,-1,1,-2c1,0,1,0,1,1c-1,0,-1,0,-1,1c0,1,0,1,0,1l0,1c0,1,0,1,1,2c0,0,1,0,2,0l1,0c1,0,1,0,1,0c1,0,1,0,1,0c1,0,2,-1,2,-1c1,0,1,0,1,-1c0,0,-1,0,-1,0c-1,0,-1,0,-1,0c-1,-1,-1,-1,-1,-1c0,0,0,-1,0,-1l1,0l0,-1c0,0,1,0,1,0c1,0,1,0,1,0c0,-1,0,-1,0,-1l1,0c0,-1,0,-1,0,-1c0,0,0,-1,0,-1l0,-1l-1,-7l1,-2l1,11l0,1c1,0,1,0,1,0c0,1,0,1,1,1l0,-1c1,0,1,0,1,0c0,0,1,0,1,0c0,0,0,-1,-1,-1c0,0,0,-1,0,-1c0,-1,0,-1,0,-1l1,-1c0,-1,0,-1,0,-1c0,0,1,0,1,-1c0,0,1,0,1,0l1,0c0,0,1,0,1,0c1,0,1,1,1,1c1,0,1,0,1,0l0,1l-1,-1l-1,0l-1,0l-1,0c0,1,-1,1,-1,1c-1,0,-1,0,-1,1l1,0c0,0,0,1,0,1c1,1,1,1,2,1c0,0,1,0,1,0c1,0,1,0,1,-1l1,0l1,-1ZM253.5,574.5l5,-2l-1,1l-4,2ZM247.5,571.5c0,1,0,2,0,2l0,-1c0,-1,0,-1,-1,-1l0,-1l0,-1l0,-1l0,1l1,0l0,1l0,1ZM287.5,580.5l-1,-1l1,-1l1,1ZM287.5,587.5l-1,0c-1,0,-1,0,-1,0c-1,0,-1,0,-2,-1c0,0,0,-1,0,-2c0,0,-1,1,-1,1c0,1,-1,1,-2,2c-1,0,-1,0,-1,0l-1,0l-1,0l-1,1l-1,0l-1,0l-1,0l-1,0l-1,0c-1,-1,-2,-1,-2,-2c-1,0,-1,-1,-1,-2c0,-1,0,-1,0,-1c0,0,1,-1,1,-1l0,-1l0,1l0,1c0,1,1,2,2,2c1,0,1,1,2,1c1,0,1,0,2,0l2,0l1,0c3,-1,4,-2,5,-3l0,-1l-1,-7l1,-2l1,11l0,1c0,0,1,0,1,0c0,1,0,1,1,1l1,0c0,0,1,-1,1,-1c1,0,1,0,1,0l0,-1c0,-1,0,-1,0,-1l-1,0l1,-2c0,0,1,0,1,1l0,1l0,1l0,1l0,1l-1,0c0,1,0,1,-1,1c0,0,-1,0,-1,0ZM287.5,573.5l1,1c0,0,0,-1,1,-1l0,-1l0,1c0,0,1,0,1,0l0,-1l1,0l0,1l-1,1l-1,0l0,1c-1,0,-1,0,-1,0c-1,0,-1,0,-1,0l0,-1l0,-1ZM292.5,570.5l-6,3c0,-1,1,-2,1,-2l5,-2ZM277.5,582.5c-1,1,-2,1,-2,1c-1,0,-1,0,-1,0c0,0,-1,0,-1,-1l1,0l1,0l1,0c0,0,0,-1,0,-1l-1,0c0,0,-1,0,-1,0c0,0,0,-1,0,-1l0,-1c1,-1,2,-2,2,-2l1,1l-1,0c-1,1,-1,1,-1,1l1,0c1,1,1,1,1,2c0,1,0,1,0,1ZM273.5,574.5l4,-2l0,1l-4,2ZM345.5,587.5l0,-1l0,-1l-1,-8l1,-3l1,11c0,1,0,1,0,1c-1,1,-1,1,-1,1ZM337.5,586.5c1,0,1,0,1,0c1,-1,1,-1,1,-1c0,0,1,0,1,0l0,-1l0,-2l-1,-6c0,-1,0,-1,0,-1l0,-1c1,0,1,0,1,-1c0,1,0,1,0,1l0,1c1,0,1,0,1,0c0,0,0,1,0,1c0,0,0,1,0,1c0,0,0,1,0,2c0,0,0,1,0,2c0,1,0,1,0,2l0,1l0,1l0,1c-1,0,-1,0,-1,0l0,1l-1,0l-1,0l-1,0l-2,0c-1,0,-2,0,-2,0c-1,-1,-1,-1,-1,-2l0,-1l-1,0c0,1,0,1,0,1l-5,1c0,1,-1,1,-1,1c-1,0,-1,0,-1,0l-1,0l-1,0c0,0,-1,0,-1,0l-1,0c0,0,0,-1,0,-1c0,0,-1,0,-1,0c0,-1,0,-1,0,-1l0,-1c0,1,0,1,-1,1c0,0,-1,0,-1,0c0,1,0,1,-1,1l0,1c0,1,0,1,-1,2l0,1l-1,0c0,1,0,1,0,1l-1,0l0,1c-1,0,-1,0,-1,0c0,0,-1,0,-1,0l-1,0c0,0,-1,0,-1,0c0,-1,0,-1,-1,-1c0,0,1,0,1,0l1,0l1,0l1,0c0,-1,0,-1,0,-1c1,0,1,0,1,-1c1,0,1,0,1,-1c0,0,1,-1,1,-1c0,-1,0,-1,0,-1l0,-2l1,0c0,0,1,0,1,0c0,0,1,0,1,-1c1,0,1,0,1,0l0,-1l1,0l0,1l0,1c0,0,0,1,0,1c1,0,1,0,1,0l0,1c1,0,1,0,1,0l1,0c1,0,1,0,1,0l0,-1c1,0,1,0,1,0c1,0,1,0,2,0l1,-1l1,0l-1,-1c-1,0,-2,0,-3,0l-1,0l0,-1l0,-1c1,0,1,0,2,0l1,0c0,0,1,0,1,1c1,0,2,0,3,1c1,0,2,0,2,0c1,0,1,0,2,0l0,1l-1,0l-1,0c0,1,0,1,0,1c1,0,1,0,1,0l0,1l1,0l2,0ZM337.5,569.5c1,0,1,0,1,0c1,0,1,0,2,0c0,0,1,0,1,0c1,0,1,0,1,1c0,0,-1,0,-1,1l-1,0c0,0,0,1,0,1c-1,0,-1,0,-1,0l-1,0l1,-1c1,0,2,0,2,-1c0,0,-1,0,-1,0l-1,0c0,0,-1,0,-1,0l-1,0c0,0,0,-1,0,-1ZM329.5,579.5l-1,-1l0,-1l2,1ZM326.5,574.5l4,-2l0,1l-4,2ZM320.5,590.5l-1,-1l-1,2l-1,-1l0,-2l2,1l1,-1l1,1ZM316.5,576.5c1,0,1,0,1,0c1,0,1,0,2,0c0,0,1,0,1,0c0,0,1,0,1,1c-1,0,-1,1,-1,1l-1,0c0,1,0,1,0,1c-1,0,-1,0,-1,0l-1,0l1,-1c1,0,1,0,2,-1c0,0,-1,0,-1,0l-1,0c0,0,-1,0,-1,0l-1,1l0,-1l0,-1ZM313.5,571.5c1,-1,1,-1,1,-1c1,1,1,1,1,1c0,0,0,1,0,1c0,1,0,1,-1,1l1,0l0,2l-1,-1l-1,1c0,0,-1,0,-1,1l-1,0l0,-1l1,0l0,-1l1,0l0,-1c0,0,-1,0,-1,-1c0,0,1,0,1,-1ZM314.5,572.5l0,-1l-1,0l0,1l1,0l0,1l0,-1ZM295.5,586.5l0,-1l0,-1l-1,-8l1,-3l1,11c0,0,-1,0,-1,0c0,1,0,1,0,1c0,1,0,1,0,1ZM297.5,588.5l-4,2c0,-1,0,-1,0,-1l4,-2ZM360.5,474.5c0,-1,0,-1,-1,-2c0,0,0,-1,0,-1l1,-1c0,0,0,1,0,1c0,0,0,1,0,1l0,1c0,1,0,1,0,1Z" class="g1_23" />
</svg>