<?xml version="1.0" encoding="UTF-8" standalone="no"?>
<!DOCTYPE svg PUBLIC "-//W3C//DTD SVG 1.1//EN"
"http://www.w3.org/Graphics/SVG/1.1/DTD/svg11.dtd">
<svg version="1.1" xmlns="http://www.w3.org/2000/svg" xmlns:xlink="http://www.w3.org/1999/xlink">
<defs>
<style type="text/css"><![CDATA[
.g1_19{
fill: #1F1A17;
stroke: #1F1A17;
stroke-width: 1;
stroke-linecap: butt;
stroke-linejoin: miter;
}
]]></style>
</defs>
<path fill-rule="evenodd" d="M109.5,287.5c0,0,-1,0,-1,0c0,0,-1,0,-1,0l0,-1l-1,0l0,-1c0,0,0,-1,0,-1l0,-1c0,0,1,0,1,0c0,-1,0,-1,1,-1l-1,0l-1,0c0,-1,0,-1,1,-1l1,0c1,0,1,0,1,0c1,0,1,0,1,0l0,1l-1,0l-1,0l-1,0l0,1c0,0,-1,1,-1,1c0,1,0,1,0,1c1,0,1,1,1,1c1,0,1,0,1,0l1,0l0,1l1,0c0,-1,0,-1,0,-1l1,0l0,1ZM273.5,277.5c0,0,1,-1,1,-1c0,0,1,0,1,0c1,0,1,0,2,0c0,1,0,1,0,1c0,1,0,1,0,1c-1,1,-1,1,-1,1c0,0,-1,0,-1,0l-1,0l-1,0l2,0c1,-1,1,-1,2,-1c-1,0,-1,0,-1,-1c-1,0,-1,0,-1,0c0,0,-1,0,-1,1c-1,0,-1,0,-1,0c0,-1,0,-1,0,-1ZM248.5,278.5l1,-1c0,0,1,0,1,0c1,0,1,0,1,1c1,0,1,0,1,0c0,1,0,1,-1,1c0,1,0,1,0,1l-1,0c0,0,-1,0,-1,0c-1,0,-1,0,-1,0l2,0c0,-1,1,-1,1,-1l-1,0c-1,0,-1,0,-2,0c0,0,0,-1,0,-1ZM218.5,271.5c0,0,1,-1,1,-1c1,0,1,0,2,0c0,0,1,0,1,0c0,1,1,1,1,1c0,0,-1,0,-1,0c0,1,0,1,0,1c0,0,-1,1,-1,1l-1,0l-1,0l-1,0l2,0c1,-1,1,-1,2,-1c-1,0,-1,-1,-1,-1c0,0,-1,0,-1,0c0,0,-1,0,-1,1c0,0,-1,0,-1,0c0,-1,0,-1,0,-1ZM138.5,290.5c-1,0,-1,0,-1,0c0,0,-1,0,-1,0c0,0,0,-1,0,-1c-1,0,-1,0,-1,0c0,0,-1,0,-1,0c0,1,-1,1,-1,1l-1,0l-1,0l-1,0l-1,-1l-1,0c0,1,-1,1,-1,1c0,0,-1,0,-1,0c-1,0,-1,0,-2,0l-1,0c0,-1,0,-1,0,-1c0,-1,0,-1,0,-2l-1,1c0,0,-1,1,-1,1l-1,0c0,0,-1,0,-1,0l-1,0l0,-2c0,0,1,-1,1,-1c1,-1,1,-1,2,-2c1,0,1,0,1,0l0,-1l0,-1l1,1c0,0,0,1,0,1c0,0,0,1,0,1l0,2c1,1,1,1,1,1c0,0,0,1,1,1l1,0c0,0,1,0,1,0c0,-1,0,-1,1,-1l1,0c0,0,0,-1,0,-1c1,0,1,0,1,1c1,1,1,1,1,1l1,0c1,0,1,0,1,0c0,-1,1,-1,1,-1c1,0,1,0,1,0c0,0,0,-1,1,-1c0,0,0,1,0,1l1,0c0,1,0,1,1,1l1,0c1,0,1,-1,1,-1c1,0,1,-1,1,-1l0,-1l0,-2l0,-1l-1,-3l0,-2c0,0,0,-1,0,-1l1,0l1,1l0,1c-1,0,-1,0,-1,1l0,1l1,1l0,1l0,1l0,2l-1,1l2,-1l1,-1l1,0c0,0,1,0,1,-1l1,0c0,0,1,0,1,1c1,0,1,0,1,1l0,1c0,0,0,1,0,1c-1,0,-1,1,-1,1c-1,0,-1,0,-1,0c-1,1,-2,1,-3,1c-1,0,-1,0,-2,0ZM146.5,286.5c-1,0,-1,0,-2,1l-1,0l0,1l-2,1l1,0c1,0,1,0,2,0c0,0,0,-1,0,-1c0,0,1,0,1,0c1,0,2,0,3,-1c-1,-1,-1,-1,-1,-1c0,0,-1,0,-1,0ZM139.5,274.5l5,-2l-1,1l-4,2ZM136.5,293.5l-1,0l-1,1l-1,-1l1,-1l1,0l1,-1l1,1ZM134.5,279.5l0,1l1,0l0,-1l0,-1l1,1c0,0,1,0,1,0l0,-1l0,1l0,1l-1,0l-1,0l0,1c0,0,-1,0,-1,0l-1,0l0,-1l1,0l0,-1ZM137.5,298.5l-4,2c0,0,0,-1,0,-1l4,-2ZM129.5,294.5l-2,-1l1,-1l2,1ZM127.5,277.5l4,-2l0,1l-1,0l-4,2ZM122.5,281.5l-2,-1l-1,1l-1,0l1,-2l1,1l1,-1l2,1ZM122.5,285.5l-1,1l-1,0c0,0,0,1,0,1l1,0c1,0,1,0,1,0l0,-1ZM121.5,276.5l-5,2l1,-1l5,-2l-1,0c0,1,0,1,0,1ZM116.5,276.5l1,-1l5,-2c-1,0,-1,1,-1,1ZM181.5,279.5l-1,0l0,-2l2,1ZM185.5,289.5l-1,1c-1,0,-1,0,-2,0l-1,0l-1,0l-1,0l0,-1l0,-1l1,0c1,0,1,0,2,0c0,0,1,0,1,0c0,0,1,0,1,0l1,-1l-1,-1l0,-1l-1,0l-1,-1l-1,0l0,-2c1,0,1,0,1,0l1,0c0,1,0,1,1,1c0,1,0,1,1,2l0,1l0,1c0,1,0,1,0,1c0,0,0,1,0,1ZM179.5,271.5c0,0,1,-1,1,-1l1,0l0,1l0,1l0,1l1,0l-1,1l-1,0c-1,1,-1,1,-1,1l-1,0l-1,0l1,0l0,-1c1,0,1,0,1,0l1,-1l-1,0c0,0,0,-1,0,-1c0,0,0,-1,0,-1ZM180.5,271.5l0,1l1,0c0,0,-1,-1,-1,-1ZM169.5,294.5l0,-1l1,1c1,0,2,-1,3,-1c0,-1,1,-1,1,-1c1,-1,1,-1,1,-2c0,0,1,0,1,-1c0,-1,0,-1,0,-1l-1,0l0,-1l0,-1l0,-1l0,-1l1,1c0,0,0,1,0,2l1,1c0,1,-1,1,-1,2c0,0,0,1,0,1c0,1,-1,1,-1,1c0,1,0,1,0,1c-1,0,-1,1,-1,1l-1,0l-1,0l-1,0c0,0,-1,0,-1,0c-1,0,-1,0,-1,0ZM172.5,279.5l0,1l1,0l0,-1l0,-1l1,0l0,1c1,0,1,0,1,0l0,-1l0,1l0,1l-1,0l-1,0l0,1l-1,0l0,-1l0,-1ZM175.5,298.5l-4,2c0,0,0,-1,0,-1l4,-2ZM168.5,293.5l-1,0l-1,1l-1,-1l1,-2l1,1l1,-1l1,1ZM165.5,290.5l-1,0c0,0,-1,0,-1,0c0,0,-1,0,-1,0c0,-1,0,-1,0,-1c0,-1,-1,-1,-1,-2l0,1c0,0,-1,1,-1,1l-1,0c0,0,-1,0,-1,0l-1,0l0,-2c0,0,1,-1,1,-1c0,-1,1,-1,2,-2c0,0,1,0,1,0l0,-1l0,-1l1,1c0,0,0,1,0,1c0,0,0,1,0,1l0,2c0,1,0,1,0,1c1,0,1,0,1,0c0,0,0,1,0,1c1,0,1,0,1,0l1,0c1,0,1,0,2,-1c0,0,1,0,1,0c0,-1,0,-1,0,-1c0,-1,0,-1,-1,-1l1,-2l0,1c1,0,1,0,1,0c0,0,0,1,0,1c0,0,0,1,0,1l0,1l0,1c-1,0,-1,0,-1,0c0,1,-1,1,-1,1c-1,0,-1,0,-2,0ZM165.5,278.5l0,1l1,0l0,-1l1,0l0,1c1,0,1,-1,1,-1l0,-1l0,1l0,1c0,0,0,1,0,1l-1,0l0,-1l-1,1l-1,0l0,-1l0,-1ZM169.5,275.5l-5,3c0,-1,1,-1,1,-2l5,-2ZM161.5,281.5l-2,-1l-1,1l-1,0l1,-2l1,1l1,-1l1,1ZM161.5,285.5l-1,0l0,1l-1,0c0,0,0,1,0,1l1,0c1,0,1,0,1,-1ZM158.5,275.5l5,-3c0,1,-1,1,-1,1l-5,3ZM160.5,271.5l5,-2c-1,1,-1,1,-1,1l-5,3ZM235.5,291.5l0,-1c0,0,-1,0,-1,0l0,-1c0,0,0,-1,0,-1c-1,0,-1,1,-1,1l-1,0c0,1,-1,1,-1,1c-1,0,-1,0,-2,0c-1,0,-1,0,-1,0c-1,0,-1,0,-1,-1l0,-1c0,0,0,-1,0,-1l1,0c0,0,0,1,0,1c1,0,1,0,1,0c0,0,1,0,1,0l1,0l1,0c1,0,1,-1,1,-1c0,0,0,-1,0,-1c0,-1,0,-1,0,-2c0,0,0,-1,0,-1c0,0,0,-1,0,-1c0,0,0,-1,0,-1l1,2l0,1c0,1,0,2,0,2c0,1,0,1,0,1c0,0,1,1,1,1l0,-1c0,1,0,1,0,1c0,1,0,1,1,1c0,1,0,1,0,1c1,0,1,0,1,0l1,0c0,-1,0,-2,0,-3c0,0,0,-1,0,-2c0,0,0,-1,-1,-1c0,-1,0,-2,0,-2c0,-1,0,-2,0,-3c0,0,0,-1,0,-1l0,-1c0,0,1,0,1,0c0,1,1,1,1,1c0,0,0,1,0,1c0,0,0,1,0,1l-1,0c0,0,0,1,1,2c0,0,0,1,0,2c0,1,0,1,0,2l0,1c0,1,0,2,0,2c0,0,0,1,0,1c0,0,0,1,-1,1c0,1,0,1,0,1c0,0,-1,0,-1,0c0,0,-1,0,-1,0c0,-1,0,-1,-1,-1ZM237.5,272.5l0,1c0,0,1,0,1,0l0,-1l1,0c0,0,0,1,0,1c0,0,1,-1,1,-1l0,-1l0,1l0,1c0,0,0,1,-1,1l-1,0c0,0,-1,1,-1,1c0,0,0,-1,0,-1c0,0,-1,0,-1,0l0,-1l1,-1ZM241.5,269.5l-6,3c1,-1,1,-1,1,-1l5,-3ZM230.5,271.5c1,0,1,-1,1,-1c0,0,1,0,1,0c1,0,1,0,1,1l0,1l-1,0l0,1l1,0l0,1l-1,0l-1,0c-1,1,-1,1,-1,1l-1,0l-1,0l1,0l1,-1l1,-1c-1,0,-1,-1,-1,-1c0,0,0,-1,0,-1ZM232.5,271.5l-1,0l0,1l1,0c0,0,0,-1,0,-1ZM221.5,284.5l-1,-1l0,-2l2,1ZM220.5,290.5l-1,0c0,0,-1,0,-1,0c-1,0,-1,-1,-1,-2c0,1,0,1,-1,2c0,0,-1,0,-1,0c-1,0,-2,0,-2,0l-1,0c0,0,-1,0,-2,0c-1,0,-2,0,-3,0c0,0,-1,0,-2,0c-1,0,-2,0,-3,0c-2,0,-3,0,-4,0c-1,0,-2,0,-2,0c0,0,-1,0,-1,0c-1,0,-1,0,-2,0c0,-1,-1,-1,-1,-2c1,1,2,1,2,1c1,0,2,0,2,0c0,0,1,0,2,0c1,0,2,0,3,0c2,0,3,0,4,0c1,0,2,0,3,0c1,0,2,0,3,0c1,0,1,0,1,0c1,0,1,0,1,0c1,0,1,0,2,0c0,-1,1,-1,1,-1c0,0,1,0,1,0c0,0,0,-1,0,-1c0,-1,0,-1,0,-1c0,0,0,-1,0,-1l-1,-7l1,-2l1,11c0,0,0,1,0,1l1,1l1,0c1,0,1,0,2,-1c0,0,1,0,1,0c0,-1,0,-1,0,-1c0,-1,-1,-1,-1,-1l1,-2l0,1c1,0,1,0,1,0c0,0,0,1,0,1c0,0,0,1,0,1l0,1l0,1c-1,0,-1,0,-1,0c0,1,-1,1,-1,1c-1,0,-1,0,-2,0ZM207.5,286.5l0,1c-1,0,-1,0,-1,0c0,0,-1,0,-1,0l-1,0c0,0,-1,0,-1,0c1,0,1,0,1,-1c1,0,1,0,2,0c0,0,1,-1,1,-1l-1,0c-1,0,-1,0,-1,0c0,-1,0,-1,0,-1c0,0,0,-1,0,-1c0,-1,1,-1,1,-1c0,0,0,-1,1,-1c0,0,1,0,1,-1l-1,2c0,0,-1,1,-1,1l1,0l0,1c0,0,1,0,1,0l0,1l-1,1ZM200.5,277.5l3,-1l6,-2l4,-1l1,0l-1,1l-1,0l-1,1l-2,0l-6,2l-3,2l-1,0ZM263.5,290.5l-1,0c0,0,-1,-1,-1,-1l-1,0c0,0,0,1,-1,1l-1,0l-2,0c0,0,0,1,0,1l0,1c0,1,0,2,0,2c-1,1,-1,1,-2,2c0,0,-1,0,-2,1c0,0,-1,0,-2,0c0,0,-1,0,-2,0c0,0,-1,0,-1,-1c-1,0,-1,0,-1,-1c0,0,-1,-1,-1,-2l1,0c0,-1,0,-1,0,-1l0,-1c0,0,0,-1,0,-1l1,0l0,1c-1,0,-1,1,-1,1c0,1,0,1,0,1l1,1l0,1c1,0,1,0,1,0c1,0,2,0,3,0c0,0,1,0,2,0c1,0,1,-1,2,-1l0,-1l0,-1c0,0,0,-1,0,-1c0,-1,0,-1,0,-1l-1,-1l1,-2c0,0,0,1,0,1c1,0,1,1,1,1l2,0c1,0,1,0,1,0l1,-1l0,-1c1,-1,1,-1,1,-1l1,-1c1,0,1,0,1,0c1,1,1,1,1,2l0,1l0,1c0,0,0,1,-1,1ZM261.5,287.5l1,1l1,0l0,-1c0,0,-1,0,-1,0c0,0,-1,0,-1,0ZM262.5,293.5l-4,3c0,-1,1,-1,1,-2l4,-2ZM251.5,288.5l-1,-1l0,-1l2,1ZM283.5,286.5c0,-1,0,-1,0,-1c0,-2,0,-2,0,-3c0,-1,0,-2,0,-3c0,0,0,-1,0,-1l0,-1l1,1l1,0c0,0,-1,1,-1,1c0,0,0,1,0,1c0,0,0,1,0,2c0,1,0,2,0,3c0,1,0,1,0,1c0,0,0,1,0,1c0,1,0,1,0,1c0,1,0,1,0,1c0,0,-1,0,-1,1l-1,0c1,0,1,0,1,0c0,1,0,1,0,1c1,0,1,0,1,0c0,0,1,0,1,0c0,0,0,1,0,1c0,0,0,1,-1,1c0,1,0,1,0,1c0,0,-1,0,-1,1c-1,0,-2,1,-3,1c0,0,-1,0,-2,0c0,0,-1,0,-1,0c0,0,-1,0,-1,0c-1,0,-2,-1,-2,-1c0,0,-1,-1,-1,-1c0,-1,0,-1,0,-1c0,-1,0,-1,0,-1c0,0,0,-1,0,-2c1,-1,1,-1,1,-2c0,0,1,0,1,0c0,0,0,1,0,1c-1,0,-1,1,-1,1c0,1,0,1,0,1c0,0,0,1,0,1c0,1,0,1,1,2c1,0,1,0,3,0c1,0,1,0,1,0c1,0,1,0,1,0c1,0,2,0,3,-1l1,-1c-1,0,-1,0,-2,0c-1,0,-1,0,-1,0c0,0,0,-1,0,-1c-1,0,-1,0,-1,0c0,-1,1,-1,1,-1m0,0c0,0,0,-1,0,-1c1,0,1,0,2,0c0,-1,0,-1,0,-2c0,0,0,-1,0,-1m4,12l-5,2c1,0,1,-1,1,-1l4,-2ZM317.5,290.5l-1,0l-1,-1c-1,0,-1,0,-2,0l-1,0l0,1c0,0,-1,0,-1,0c0,0,-1,0,-1,0c0,0,-1,0,-1,0l-1,0l-1,0c0,0,-1,0,-1,-1c-1,0,-1,1,-1,1c-1,0,-2,0,-3,1l-1,0c0,0,-1,0,-1,0c0,0,-1,0,-1,0l-1,0l-1,0c-1,0,-2,0,-3,0c-1,0,-2,-1,-3,-1c0,0,0,-1,0,-1c0,-1,0,-1,0,-1c0,0,-1,0,-1,0l0,-1c1,0,1,-1,1,-1c0,-1,0,-1,1,-1l0,1c-1,0,-1,0,-1,1c0,0,1,1,1,1c0,0,1,0,1,1c0,0,1,0,1,0c1,0,1,0,1,0c1,1,2,1,3,1c1,0,2,0,2,-1c1,0,1,0,2,0c1,0,1,0,1,0c1,0,2,-1,2,-1c1,0,2,-1,2,-1l0,1c0,1,1,1,1,1l1,0c1,0,1,0,1,-1c0,0,1,0,1,0l0,-1l0,-1l0,-1l1,0l0,-1c0,-1,0,-1,0,-1c1,-1,1,-1,1,-1c0,0,1,1,2,1c1,1,1,1,1,2c1,0,1,1,1,1c0,0,1,1,1,1l0,1c0,0,0,1,-1,1c0,1,0,1,0,1ZM313.5,285.5l-1,0c0,1,0,1,0,1c0,0,0,1,0,1l1,0c1,0,1,0,1,-1l-1,0c0,-1,0,-1,0,-1ZM315.5,286.5c0,0,0,1,0,1l-1,1l1,0l1,0l1,0l0,-1c-1,0,-1,0,-1,0c0,-1,-1,-1,-1,-1ZM312.5,277.5l4,-2l0,1l-1,0l-4,2ZM299.5,295.5l-2,-1l1,-1l1,1ZM296.5,279.5l1,0c0,0,1,0,1,0c1,0,1,0,2,0l0,1c0,0,0,1,-1,1c0,1,0,1,0,1c-1,0,-1,0,-1,0c0,0,-1,0,-1,0c-1,0,-1,0,-1,0l2,-1c0,0,1,0,1,-1c-1,0,-1,0,-1,0c-1,0,-1,0,-2,0l0,1l0,-1l0,-1ZM340.5,294.5l0,-1c0,0,1,0,1,1c1,0,2,-1,3,-1c1,-1,1,-1,1,-1c1,-1,1,-1,2,-2l0,-1c0,-1,0,-1,0,-1l0,-1l-1,0l0,-1l0,-1l1,-1l0,1c0,0,0,1,1,2l0,1c0,1,0,1,0,2c0,0,0,1,0,1c-1,0,-1,0,-1,0c0,1,0,1,0,1c0,1,-1,1,-1,1c0,0,0,1,-1,1l-1,0c-1,0,-1,0,-1,0l-1,0c-1,0,-1,0,-1,0l-1,0ZM343.5,281.5l4,-3l-1,1l0,1l-4,2ZM332.5,295.5l-1,-1l1,-2l1,1ZM340.5,288.5c-1,1,-1,1,-2,1c-1,1,-2,1,-3,1c-1,1,-3,1,-4,1c-1,0,-2,0,-3,0c-1,-1,-2,-1,-3,-2l-1,-1c0,-1,0,-1,0,-1c0,-1,0,-1,1,-1c0,-1,0,-1,1,-2c0,1,0,1,-1,1c0,1,0,1,0,1c0,1,0,1,1,1c0,1,0,1,1,1c0,1,1,1,1,1l1,0l1,0l2,0c1,0,1,0,2,0l1,0c0,0,0,-1,1,-1l1,0c1,0,1,0,2,-1c0,0,1,0,1,-1c-1,-1,-1,-1,-1,-1l0,-1c0,0,1,-1,1,-1c0,0,0,1,0,1c0,0,1,0,1,1l0,1c0,0,0,1,0,1c-1,1,-1,1,-1,1ZM330.5,280.5l0,1l1,0c0,0,1,0,1,0l0,-1c0,1,0,1,0,1c1,0,1,0,1,0l0,-1l0,-1l1,0l0,1l0,1c-1,0,-1,1,-1,1l-1,0c-1,0,-1,1,-1,1c0,0,-1,0,-1,-1l0,-1l0,-1ZM334.5,297.5l-4,2c0,-1,0,-1,0,-1l4,-2ZM243.5,319.5c0,0,1,0,1,0c0,0,1,0,1,0c1,0,1,0,2,0c0,0,0,1,0,1l0,1c-1,0,-1,0,-1,0c0,0,-1,0,-1,0c0,0,0,1,-1,1c0,0,0,-1,-1,-1l2,0c1,0,1,-1,2,-1c-1,0,-1,0,-1,0c-1,0,-1,0,-1,0c0,0,-1,0,-1,0c0,0,-1,0,-1,0c0,-1,0,-1,0,-1ZM175.5,332.5c0,1,0,2,0,2c0,0,-1,1,-1,1l0,1l-1,0l2,1l-1,0l0,1l-1,0l-1,1c0,0,-1,0,-1,1l-1,0l-1,0l-1,1l-1,0l0,1l-1,1l-3,0l-1,0l-3,0c-1,0,-1,-1,-1,-1l-1,-1l-1,0c-1,-1,-1,-1,-2,-1l-1,-1l-1,0l0,-1l-1,0l-1,-1l1,-1l-1,-1l0,-1l0,-1l0,-1l0,-1c0,0,0,-1,0,-2l1,0l0,-1l-1,0c0,0,0,-1,1,-1l0,-1l1,0l1,0l0,-1l2,0l1,-1l1,0l0,-1l1,-1l1,0l3,0l1,0l3,0l1,0l0,1l1,1l2,1l1,0c0,0,1,0,1,0l0,1l1,0c1,1,1,1,2,2l-2,0l1,0l0,1l0,1l1,0l0,1ZM166.5,342.5l1,-1l1,-1c1,0,1,0,1,0l1,0l0,-1c1,0,1,0,2,0l0,-1c1,0,1,0,1,0l1,-1l-1,-1l1,0l0,-1l0,-1l1,0l0,-1l0,-1c0,-1,-1,-1,-1,-2l0,-1l-1,0l0,-1l1,0c0,-1,-1,-1,-1,-1l0,-1l-1,0l-1,-1l-1,0l-2,-1l-1,0l0,-1l-1,0l0,-1l-3,0l-1,0l-3,0l-1,0l0,1l-1,1l-1,0l-1,1l-1,0l-1,0l0,1l-1,0l0,1c-1,0,-1,0,-2,1l1,0l1,0l-1,0l0,1l-1,1l0,1c0,1,0,1,0,1l0,1l0,1l0,1l1,0l0,1l1,0l-1,0l-1,1l1,0l1,1l1,1l1,0l1,1l1,0c1,0,1,1,1,1l1,0l0,1c0,0,1,0,1,0l3,0l1,0ZM172.5,327.5l-1,1l-1,-1l-1,0l0,-1l-1,0l0,-1l1,1l1,0c1,0,1,1,1,1ZM172.5,337.5l-1,0l0,1l-1,0l0,1l-1,0l-1,0c0,0,0,-1,0,-1c1,0,1,0,1,0l1,0c0,0,1,-1,1,-1ZM167.5,339.5c0,1,0,1,0,1c0,0,-1,1,-1,1l-3,0l-1,0l-3,0c-1,-1,-1,-1,-1,-1l-1,0c0,0,0,-1,0,-1l1,-1l1,0l3,0l1,0l3,0l1,0l0,1ZM167.5,325.5c0,1,0,1,0,1c0,0,-1,0,-1,1l-3,0l-1,0l-3,0c-1,0,-1,-1,-1,-1l-1,0l0,-1l1,-1l1,0l3,0l1,0l3,0c0,0,1,0,1,0c0,1,0,1,0,1ZM166.5,328.5l1,-1l1,0l1,1l1,1l1,0c0,0,1,0,1,0l0,1l0,1l1,0l0,1l0,1c0,0,-1,1,-1,1l0,1c0,1,0,1,-1,1l-1,0l-1,0c0,1,0,1,0,1l-1,0l-1,0c-1,0,-1,0,-1,0l0,-1l-3,0l-1,0l-3,0l-1,1l-1,0c-1,0,-1,0,-1,0c-1,0,-1,-1,-1,-1l-1,0l-1,0l0,-1l-1,-1l0,-1l0,-1l0,-1l0,-1l1,-1l1,0c0,0,1,0,1,0l0,-1l1,0c0,-1,0,-1,1,-1c0,0,1,0,1,0l0,1l1,0l3,0l1,0ZM166.5,336.5l0,1l1,0l1,0c1,0,1,0,1,0l0,-1l1,0c0,-1,0,-1,0,-1l1,1l1,-1l0,-1l0,-1l0,-1c0,0,0,-1,0,-1c0,-1,0,-1,0,-2c-1,0,-1,0,-1,0l-1,0l-1,-1l-1,0c-1,0,-1,0,-1,0l-1,0l-3,0l-4,0l-1,0l-1,0l-1,0l-1,0l0,1c0,0,-1,0,-1,0l-1,0l0,1l-1,1l0,1l0,1l0,1l1,0c0,1,0,1,0,2l1,-1c0,0,1,0,1,1l1,0l0,1l1,0c0,0,1,0,1,0l0,-1l1,0l3,0l1,0l3,0ZM164.5,330.5l0,1l0,1l1,0l0,1c0,1,0,1,1,1l-1,1l0,-1l-1,-1l0,-1l0,1l-1,0l0,1l-1,1l0,-1c1,-1,1,-1,1,-1l0,-1l1,0l0,-1c0,0,0,-1,0,-1ZM160.5,332.5l0,1l0,1c0,1,0,1,0,1l0,-1c0,-1,-1,-2,-1,-3l1,0l1,0l1,0c0,1,0,1,-1,1c0,0,-1,0,-1,0ZM153.5,327.5l1,0l0,-1l1,0l1,-1l0,1l-1,0l0,1l-1,0l0,1l-1,0ZM153.5,337.5l1,0l1,1l1,0c0,0,0,1,0,1l-1,0c0,0,-1,-1,-1,-1l-1,0l0,-1ZM223.5,335.5l0,-1l0,-1l-1,-9l1,-2l1,10c0,1,0,1,0,1l0,1c-1,0,-1,1,-1,1ZM216.5,336.5l0,-1l0,1l0,-1l-1,0c0,-1,0,-1,0,-1c-1,-1,-1,-1,-1,-1c0,0,-1,1,-1,1c0,0,-1,0,-1,1c-1,0,-1,0,-2,0l-1,0c-1,-1,-1,-1,-1,-2l0,-1l1,0c0,0,0,1,0,1c1,0,1,0,1,0l1,0c1,0,1,0,1,0c1,-1,1,-1,1,-1c0,0,1,0,1,0c0,-1,0,-1,0,-2c0,0,0,-1,-1,-2l0,-1c0,0,1,0,1,0c0,-1,0,-1,0,-2l0,2c0,0,1,1,1,1c0,1,0,2,0,3c0,0,0,1,0,1c0,0,1,1,1,1c0,0,0,1,0,1c1,0,1,0,1,1c0,0,1,0,1,0c1,0,1,0,1,-1c0,0,0,-1,-1,-2c0,-1,0,-2,0,-2c0,-1,0,-1,0,-1c0,-1,0,-2,0,-3c0,-1,0,-2,0,-3c0,-1,0,-1,0,-1c0,-1,0,-1,1,-1c0,1,0,1,0,1l1,1l0,1c0,0,-1,0,-1,0c0,1,0,1,0,2c0,0,0,1,0,3c0,0,1,1,1,1c0,0,0,1,0,1c0,2,0,3,0,3c0,1,-1,1,-1,1c0,1,0,1,0,1c-1,0,-1,0,-1,0c0,0,-1,0,-1,0c-1,0,-1,0,-1,0ZM210.5,321.5l0,1c1,0,1,0,1,0l1,0l0,-1l0,-1l0,1c0,1,1,1,1,1c0,0,0,-1,0,-1l0,-1l1,0l0,1l0,1l-1,0l0,1l-1,0l0,-1l0,1c-1,0,-1,0,-1,0c-1,0,-1,0,-1,0l0,-1l0,-1ZM212.5,316.5c0,0,0,-1,0,-1c1,0,1,0,1,0l1,0l0,1l0,1l-1,0l1,0l0,1l0,1l-1,0l-1,0c0,1,-1,1,-1,1c0,0,-1,0,-1,0c1,0,1,-1,2,-2c0,-1,0,-1,0,-1c0,0,0,-1,0,-1ZM213.5,316.5l-1,0l0,1l1,0c0,0,0,-1,0,-1ZM204.5,331.5c0,1,-1,1,-2,2c-1,0,-2,1,-3,1c-2,1,-3,1,-4,1l-1,0c-1,0,-2,0,-2,-1c-1,0,-1,-1,-1,-2l-1,-8l1,-2l1,9l0,1l0,1c1,0,1,0,2,0l1,0l1,0c1,0,2,0,2,0c-1,-1,-1,-1,-1,-2l0,-1l0,-1c0,-1,0,-1,0,-1l1,0c0,-1,0,-1,1,-1c1,0,1,-1,1,-1c0,0,1,0,1,0c0,0,0,1,0,1l1,0l1,0c0,0,0,1,0,1l-1,0l-1,0l-1,0c-1,0,-1,0,-1,0c-1,1,-1,1,-1,1c0,0,0,1,0,1l1,1c0,0,1,1,1,1c1,0,1,0,1,0l1,-1l1,0l1,-1l1,0ZM196.5,322.5l4,-2l0,1l-4,2ZM188.5,319.5l1,0c0,0,1,0,2,0c0,0,1,0,1,0l1,0l1,0c-1,0,-1,1,-2,1l-1,0l-1,0l-1,0l-1,0l-1,0c1,-1,1,-1,1,-1ZM183.5,332.5c0,-1,1,-1,1,-1c0,0,1,-1,1,-1c0,0,1,0,1,0l0,1l0,1l-1,0l-1,0l-1,1l1,0l1,1c0,0,1,0,1,0c0,0,1,0,1,-1c0,1,0,1,0,1l-5,2l0,-1l1,0l1,0c-1,-1,-1,-1,-1,-1c0,0,0,-1,0,-1l0,-1ZM186.5,338.5l-4,2c0,-1,0,-1,0,-1l4,-2ZM256.5,330.5l-1,-1l-1,0c-1,0,-1,0,-1,0l0,1c-1,0,-1,1,-1,1c0,1,0,1,0,1l1,0l0,1l1,0l0,1l0,1c0,0,-1,0,-1,-1l-1,0c0,0,-1,0,-1,0c-1,0,-1,0,-1,1l-1,0l-1,0c0,0,-1,0,-1,0l-1,-1l0,-1c0,0,-1,0,-1,0c0,0,0,1,0,1c-1,0,-1,1,-2,1l-1,0l-1,0l-1,0c0,0,-1,-1,-1,-1c0,0,-1,0,-1,-1c-1,0,-1,0,-1,-1c-1,1,-1,1,-2,1c0,1,0,1,0,1c0,0,-1,0,-1,1c0,0,-1,1,-1,2c0,0,0,1,0,1l0,1c0,0,0,1,0,1c0,1,1,1,1,2c0,0,1,0,1,0c1,1,1,1,1,1l1,0l1,0l1,0c1,0,1,0,1,0c1,0,2,0,2,0l1,0l1,0l-3,2c-1,0,-1,0,-2,0c-1,0,-1,0,-1,0c-1,0,-1,0,-2,0c-1,0,-1,-1,-2,-1l-1,-1c0,0,-1,-1,-1,-2l0,-1c0,0,0,-1,0,-1c0,-1,0,-1,0,-2c0,0,0,-1,0,-1c0,0,1,-1,1,-1c0,0,0,-1,0,-1c1,0,1,-1,1,-1c1,0,1,0,1,-1l1,0c0,-1,0,-1,0,-1c-1,0,-1,0,-1,0c-1,0,-1,0,-1,0l1,-2c0,0,1,0,1,-1l1,0c0,0,1,0,1,0l1,1c0,1,1,1,1,1c0,0,-1,0,-1,1l-1,1c1,0,1,0,1,0c0,1,0,1,1,1c1,0,1,0,1,0l1,0c1,0,1,0,1,0c1,0,1,0,2,0c0,-1,0,-1,0,-1c1,0,1,0,1,0c1,1,1,1,1,1c0,0,1,0,1,0l1,0l1,0c0,0,1,0,1,0c0,-1,0,-1,0,-1l0,-1c0,0,0,-1,0,-1l1,0l0,-1l1,0c0,-1,0,-1,0,-1c0,0,1,-1,1,-1c1,0,1,0,1,0c0,0,1,1,1,1l0,1c1,0,1,0,1,0l1,0l1,0c0,0,0,-1,0,-1c0,0,1,-1,1,-1l0,-1l0,1c0,1,0,1,0,1c0,0,1,0,1,0c0,1,0,1,0,1l1,0l0,-1l0,-1l0,-1c0,1,1,1,1,1c0,0,0,1,0,1l0,1l0,1c-1,0,-1,1,-1,1l-1,0l0,-1c0,0,-1,0,-1,0l-1,-1l0,1c0,0,-1,0,-1,0c0,1,0,1,0,1c0,0,-1,0,-1,0l-1,0ZM256.5,318.5l4,-2l0,1l-4,2ZM254.5,338.5l-5,2c1,-1,1,-1,1,-1l4,-2ZM247.5,338.5l-2,-1l-1,1l-1,-1l1,-1l1,1l1,-1l2,1ZM237.5,319.5c0,0,0,-1,0,-1c0,0,1,0,1,0c1,0,1,0,1,1l0,1c-1,0,-1,0,-1,1l1,0l0,1l-1,0l-1,0c-1,1,-1,1,-1,1l-1,0c-1,0,-1,0,-1,0l1,0l1,-1l1,0l0,-1c-1,0,-1,-1,-1,-1c0,0,0,-1,1,-1ZM238.5,319.5l-1,0l0,1l1,0c0,-1,0,-1,0,-1ZM295.5,327.5l-1,-1l1,-1l1,1ZM295.5,334.5l-1,0c-1,0,-1,0,-1,0c-1,0,-1,-1,-1,-2c-1,1,-1,1,-1,2c-1,0,-1,0,-2,0c-1,0,-1,0,-1,0c0,0,-1,0,-1,0c-1,0,-1,0,-2,0c-1,0,-2,0,-3,0c-1,0,-2,0,-2,0c-1,0,-3,0,-4,0c-1,0,-2,0,-3,0c-1,0,-2,0,-2,0c-1,0,-1,0,-1,0c-1,0,-2,0,-2,0c0,0,-1,0,-1,-1l0,-1c1,1,1,1,2,1c0,0,1,0,2,0l1,0c1,0,3,0,4,0c2,0,3,0,4,0c1,0,2,0,3,0c1,0,2,0,3,0l1,0l1,0c0,0,1,0,1,0c0,0,1,0,1,-1l1,0c0,0,0,-1,0,-1c0,-1,0,-1,0,-1c0,0,0,-1,0,-1l0,-7l1,-2l0,11l0,1c0,0,1,0,1,0c0,1,1,1,1,1l1,0c0,0,1,0,2,-1l1,0l0,-1l-1,0c0,-1,0,-1,0,-1l1,-2l0,1c0,0,0,1,0,1c0,0,0,1,0,1l0,1l0,1c-1,1,-1,1,-2,1l-1,0ZM296.5,320.5l0,1l1,0l0,-1l0,-1l0,1c1,0,1,0,1,0l1,-1l0,1l0,1l-1,0l-1,0l0,1c0,0,-1,0,-1,0l-1,0l0,-1l0,-1l1,0ZM300.5,317.5l-6,3c1,-1,1,-1,1,-2l5,-2ZM282.5,330.5l-1,0c0,1,0,1,-1,1c-1,0,-1,0,-1,0l-1,0c0,0,0,-1,1,-1c0,0,1,0,1,0c1,0,1,-1,2,-1l-1,0l-1,0c-1,-1,-1,-1,-1,-1c0,0,1,-1,1,-1c0,-1,0,-1,1,-1c0,-1,0,-1,1,-1l0,-1l0,2c-1,0,-1,0,-1,1c0,0,1,0,1,0c0,1,0,1,0,1c1,0,1,0,1,1c0,0,-1,0,-1,1ZM275.5,325.5l3,-1l6,-2l4,-2l1,0l-1,1l-1,1l-1,0l-2,1l-5,2l-4,1l-1,0ZM302.5,335.5l0,-1l0,-1l-1,-8l1,-3l1,11l-1,1c0,1,0,1,0,1ZM304.5,337.5l-4,2c0,-1,0,-1,0,-1l4,-2ZM109.5,285.5l-1,-1l1,0Z" class="g1_19" />
<path fill-rule="evenodd" d="M91.5,513.5c0,0,-1,0,-1,0c-1,0,-1,0,-1,0l0,-1c0,0,0,-1,0,-1c0,-1,0,-1,0,-1c1,0,1,0,1,0l-1,0l0,-1c0,0,1,0,1,0c1,0,1,0,1,0l1,0l-1,1l-1,0l-1,0c0,1,0,1,0,1c0,1,0,1,0,1c1,1,1,1,1,1l1,0l1,0ZM290.5,517.5c0,0,1,0,1,0c1,0,1,0,1,0c1,0,1,0,2,0c0,1,0,1,0,1l0,1c0,0,-1,0,-1,0l-1,0c0,1,0,1,-1,1l-1,-1l2,0c1,0,1,-1,2,-1c-1,0,-1,0,-1,0c0,0,-1,0,-1,0c0,0,-1,0,-1,0c0,0,-1,0,-1,0c0,-1,0,-1,0,-1ZM229.5,516.5c0,0,1,0,1,-1c1,0,1,0,1,0c1,0,1,0,2,1c0,1,0,1,0,1c0,1,-1,1,-1,1c0,0,-1,0,-1,0l-1,0l-1,0l2,0c1,-1,1,-1,2,-1c-1,0,-1,0,-1,0c0,0,-1,-1,-1,-1c0,0,-1,1,-1,1c0,0,-1,0,-1,0c0,0,0,-1,0,-1ZM137.5,516.5l1,-1c0,0,1,0,1,0c1,0,1,0,1,1c1,0,1,0,1,0c0,1,0,1,-1,1c0,1,0,1,0,1c0,0,-1,0,-1,0c0,0,-1,0,-1,0l-1,0l2,0c0,-1,1,-1,1,-1l-1,0c0,0,0,-1,0,-1c-1,0,-1,1,-2,1l-1,0c0,0,1,-1,1,-1ZM246.5,519.5l0,1c0,1,0,1,0,1l0,-1c0,0,1,0,1,0l0,-1l0,1c1,0,1,0,1,0l0,-1l0,-1l1,0l0,1l0,1c0,1,-1,1,-1,1l-1,0c-1,1,-1,1,-1,1c0,0,-1,0,-1,-1l0,-1ZM250.5,517.5l-6,2c0,0,1,-1,1,-1l5,-3ZM103.5,527.5c0,1,-1,2,-1,2c0,0,0,1,0,1c-1,1,-1,1,-1,1l1,0l0,1l-1,0l0,1l-1,0l0,1c0,0,-1,0,-2,0l0,1l-1,0l-1,0l-1,1l-1,1l-3,0l-4,0c-1,0,-1,0,-1,0l-1,-1c0,0,0,-1,-1,-1c-1,0,-1,0,-2,-1l-1,0l-1,0l0,-1l-1,-1l-1,0l0,-1l1,0l0,-1l-1,0l0,-1l0,-1l0,-1l0,-1l0,-1l0,-1l1,0l0,-1l-1,0l0,-1l1,0l1,-1l1,-1l1,0l1,-1l1,0c0,0,1,0,1,0l0,-1l1,-1l1,0l0,-1l4,0l3,0l0,1l1,0l0,1l1,1l2,0l0,1l1,0l1,0l0,1l1,0c0,1,1,1,1,1c0,0,0,1,0,1l-1,0l1,1l0,1l1,1ZM94.5,537.5l1,-1l1,-1c0,0,1,0,1,0l1,-1c1,0,1,0,2,-1c0,0,1,0,1,0l0,-1l1,0l-1,-1l0,-1l1,0l0,-1l0,-1l0,-1c0,-1,0,-2,0,-2l0,-1c-1,0,-1,0,-1,-1l1,-1c0,0,-1,0,-1,-1l-1,0l0,-1l-1,0l-2,-1l-1,0c0,0,-1,0,-1,-1l-1,0l0,-1l-2,0l-1,0l-4,0l-1,0l0,1l-1,0c0,1,0,1,-1,1l-1,1l-1,0l-1,0l-1,1c-1,1,-1,1,-2,1l1,1l1,0l-1,0l0,1l-1,1l0,1c0,0,0,1,0,1l0,1l0,1l1,1l0,1l1,0l-2,1l1,0l1,1l1,0l0,1l1,0l1,0l0,1l1,0c1,0,1,0,1,1l1,0l0,1c0,0,1,0,1,0l4,0ZM99.5,522.5l0,1l-1,-1l-1,0l0,-1c0,0,-1,0,-1,0l0,-1l1,0l0,1c0,0,1,0,1,0l1,0l0,1ZM99.5,532.5l0,1l-1,0l-1,0l0,1l-1,0l0,-1c0,0,1,0,1,0l1,0c0,-1,0,-1,1,-1ZM95.5,534.5c0,0,0,1,-1,1l-3,0l-4,0c-1,0,-1,0,-1,0l-1,-1c0,0,0,-1,1,-1l1,0l4,0l3,0l1,0l0,1ZM95.5,520.5c0,0,0,1,0,1c-1,0,-1,0,-1,0l-3,0l-4,0c-1,0,-1,0,-1,0l-1,0l0,-1c0,0,1,-1,1,-1l1,0l4,0l3,0c1,0,1,0,1,1ZM94.5,523.5c0,0,0,-1,0,-1c1,0,1,0,1,0c1,0,1,0,1,0c1,0,1,1,1,1l1,1l1,-1l1,1l0,1l0,1l0,1l0,1l0,1c0,1,0,1,-1,1l0,1l-1,-1l0,1l-1,0l0,1l-1,0l-1,0c0,0,-1,0,-1,0l0,-1l-3,0l-4,0l-1,0l0,1l-1,0c-1,0,-1,0,-1,0c-1,-1,-1,-1,-1,-1l-1,-1l-1,1l0,-1l-1,-1l0,-1l0,-1c0,0,0,-1,0,-1c0,0,0,-1,0,-1l0,-1l1,0c0,-1,0,-1,0,-1l1,1c0,0,1,0,1,-1l1,0l0,-1c0,0,1,0,1,0c0,0,1,0,1,0l0,1l1,0l4,0ZM94.5,531.5c1,0,1,0,1,1l1,0l0,-1l1,0l0,-1c1,0,1,0,1,0l1,0l1,-1l0,-1l0,-1c0,-1,0,-1,0,-2c0,0,0,-1,-1,-1l-1,0l-1,-1l-1,0l0,-1l-1,0l-1,1l-3,0l-4,0l-1,0l-1,-1l-1,0c0,0,0,1,0,1l-1,0l0,1c0,0,-1,0,-1,0l-1,0l0,1l-1,0l0,1l0,1c0,0,0,1,0,1l0,1l1,0c0,1,0,1,0,1l1,0c0,0,1,0,1,0l0,1l1,0l1,1c0,0,1,0,1,-1l1,0l4,0l3,0ZM92.5,525.5l0,1l1,0l0,1c0,0,0,1,0,1l0,1l0,1c0,-1,0,-1,-1,-3l-1,0l0,-1c0,-1,0,-1,1,-1ZM92.5,526.5l-1,0l1,0ZM89.5,525.5l0,1l0,1l0,1l1,0l0,1l-1,-1l0,-1c0,0,-1,0,-1,0c0,1,0,1,0,1l0,1l-1,0l0,1l0,-1c0,-1,1,-1,1,-2l0,-1c0,-1,1,-1,1,-1ZM81.5,522.5l1,-1l1,0l0,-1l1,0l0,1l-1,0l0,1l-1,0l0,1l-1,-1ZM81.5,532.5l1,0l1,1l1,0c0,1,0,1,0,1l-1,0c0,-1,-1,-1,-1,-1l-1,0l0,-1ZM176.5,530.5l0,-2l0,-1l-1,-8l1,-3l1,11c0,0,0,1,0,1c-1,0,-1,0,-1,0c0,1,0,1,0,2ZM168.5,528.5c0,0,1,0,1,0l1,0c0,0,0,-1,0,-1c1,0,1,0,1,-1l0,-1l-1,-7l0,-1l0,-1l1,0c0,1,0,1,0,1l1,0c0,1,0,1,0,1c-1,1,-1,1,-1,1c0,1,0,1,0,2c0,0,0,1,0,3c0,0,0,1,0,1l0,1c0,0,0,1,0,1c0,0,0,1,0,1c0,1,0,1,-1,1c0,0,-1,0,-1,0l-1,1l-2,0l0,1l0,1c-1,0,-1,1,-1,1c0,0,-1,1,-1,1l-1,0c0,1,0,1,0,1c-1,0,-1,0,-1,0c0,0,-1,0,-1,0c-1,0,-1,0,-2,0c0,-1,0,-1,-1,-1c1,0,1,0,1,0l1,0c0,0,1,0,1,0c1,0,1,-1,1,-1c1,0,1,0,1,0c1,-1,1,-1,1,-1c0,0,0,-1,1,-1l0,-1c0,0,-1,0,-1,0c0,-1,0,-1,0,-1c0,0,-1,0,-1,0l0,-1l-1,0l1,-1l0,-1l0,-1c0,0,1,0,1,0l1,0c0,0,1,0,1,1c0,0,0,1,0,1c0,0,0,1,0,1c1,0,1,0,2,0ZM168.5,512.5c0,-1,1,-1,1,-1c0,0,1,0,1,0c1,0,1,0,2,0c0,0,0,1,0,1c0,0,0,1,0,1c-1,0,-1,0,-1,1c0,0,-1,0,-1,0l-1,0l-1,0l2,-1c1,0,1,0,2,-1c-1,0,-1,0,-1,0c-1,0,-1,0,-1,0c0,0,-1,0,-1,0c-1,0,-1,1,-1,1l0,-1ZM164.5,527.5c-1,0,-1,0,-1,0l1,0c0,1,0,1,0,1c0,0,1,0,1,0l0,-1c-1,0,-1,0,-1,0ZM164.5,522.5l0,-1c0,0,0,-1,0,-1c0,-1,-1,-1,-1,-2l1,-1c0,0,0,1,0,1c0,1,0,1,0,1l0,1c0,1,0,1,0,1c0,0,0,1,0,1ZM150.5,533.5l1,0c1,0,2,0,3,-1c0,0,0,-1,1,-1c0,-1,1,-1,1,-2l1,0c0,-1,0,-1,0,-1c0,-1,0,-1,0,-1l-1,0l0,-1l-1,0l1,-2l1,0c0,1,0,1,0,2l0,1l0,1c0,0,0,1,0,1l0,1l0,1c0,0,-1,0,-1,1l-1,1l-1,0c0,0,-1,1,-1,1l-1,0c0,0,-1,0,-1,0c0,0,0,-1,0,-1c-1,0,-1,0,-1,0l-1,0l-3,2c0,-1,0,-1,0,-1l4,-2ZM156.5,537.5l-4,2c0,0,0,-1,0,-1l4,-2ZM147.5,519.5l-1,-1l0,-2l2,1ZM149.5,521.5l-2,-1l0,1l-2,-1l1,-1l1,1l1,-1l2,0ZM146.5,530.5l-1,0l-1,-1c0,0,-1,0,-1,0c0,-1,0,-1,-1,-1l0,-1l0,-1c0,0,0,-1,0,-1c0,1,-1,2,-1,2c-1,0,-1,0,-1,0c0,0,0,1,0,1c0,0,0,1,0,1c0,0,-1,0,-1,0c0,1,0,1,0,1l0,1l-1,0c0,0,0,1,-1,1l-1,0c0,1,-1,1,-1,1c-1,0,-2,1,-3,1c-1,0,-2,0,-3,0c-1,0,-2,0,-2,0c-1,0,-2,0,-2,0c-1,0,-2,0,-2,0c-1,0,-1,0,-2,0c-1,0,-2,0,-2,0c-1,0,-2,-1,-3,-1c-1,-1,-2,-1,-3,-2c-1,0,-2,-1,-3,-2c0,0,0,-1,0,-1c0,1,1,1,1,1c0,0,1,1,1,1c1,0,1,0,2,1c1,0,1,0,2,0c0,0,1,1,1,1c1,0,2,0,2,0c1,0,2,0,2,0c1,1,1,1,2,1c1,0,1,0,2,0c0,0,1,0,2,0c0,0,1,0,2,-1c1,0,1,0,2,0c1,0,2,0,3,0c1,-1,2,-1,3,-1c1,-1,2,-1,2,-2c0,0,0,-1,0,-1c-1,-1,-1,-1,-1,-1c0,-1,0,-1,0,-1l-1,0l1,-2l1,1l1,0c0,0,1,0,1,0c0,0,1,0,1,-1l0,-1l1,0l0,1l0,1l0,1l0,1l1,0c0,1,0,1,0,1c0,0,1,0,1,0l1,0c0,0,1,0,1,0c1,0,1,-1,2,-1c0,-1,0,-1,-1,-1l0,-1l1,-2c0,0,0,1,0,1l0,1l0,1l0,1c0,1,0,1,0,1c-1,1,-1,1,-2,1c0,0,-1,1,-1,1ZM144.5,533.5l-1,-1l-1,1l-1,-1l0,-1l2,0l1,-1l1,1ZM126.5,528.5l-1,-1l1,-2l1,1ZM117.5,520.5l3,-1l6,-2l4,-2l1,0l-1,2l-1,0l-1,0l-2,1l-6,2l-3,1l-1,0ZM199.5,521.5l-1,-1l1,-1l1,1ZM208.5,527.5l-2,0c-1,0,-1,0,-2,0l-1,0l-1,0l0,1l-1,0c-1,0,-1,1,-1,1c-1,0,-1,0,-1,0c-1,0,-2,1,-3,1l-1,0c0,0,-1,0,-1,-1l-1,0l0,-1l-1,0l0,-1l0,-1c0,0,0,1,0,1l-1,0l0,1l-1,0l-1,0l0,1l0,1c0,0,0,1,-1,1c0,0,0,1,0,1c0,0,0,1,-1,1l-1,1c-1,0,-1,0,-1,0c0,0,-1,0,-1,0l-1,0c0,0,-1,0,-1,0l-1,0c0,0,0,-1,0,-1c0,0,1,0,1,0l1,0l1,0c0,0,1,0,1,0l0,-1c1,0,1,0,1,0c1,-1,1,-1,1,-2c1,0,1,0,1,-1l0,-1l0,-2l1,0c0,0,1,0,1,0c0,0,1,0,1,0l0,-1c1,0,1,0,1,0c0,0,1,0,1,0l0,1c0,1,0,1,0,1l1,0c0,0,0,1,0,1c1,0,1,0,1,0l1,0c1,0,1,0,1,0c1,0,1,0,2,-1l1,0l1,0l1,-1l-1,0l-1,-1l-1,0l-1,0l-1,0c0,0,0,-1,0,-1c1,0,1,0,1,-1c0,0,1,0,1,0c0,0,1,0,1,0l0,1l1,0l2,1l1,0c0,0,1,0,1,0c0,0,1,0,1,0c0,0,1,0,1,0l1,0ZM199.5,516.5l4,-2l0,1l-4,2ZM193.5,533.5l-1,-1l-1,1l-1,-1l0,-1l2,0l1,-1l1,1ZM189.5,519.5c1,0,1,-1,1,-1c1,0,1,0,2,0c0,0,1,0,1,0c1,1,1,1,1,1c-1,1,-1,1,-1,1c0,0,0,1,-1,1c-1,0,-1,0,-1,0l-1,0l1,0c1,-1,2,-1,2,-1c0,0,-1,-1,-1,-1l-1,0c0,0,-1,0,-1,1l-1,0c0,-1,0,-1,0,-1ZM186.5,514.5c0,-1,0,-1,0,-1c1,0,1,-1,1,-1c0,1,0,1,1,1l0,1l0,1l-1,0l1,1l0,1l-1,-1l0,1l-1,0c0,1,-1,1,-1,1l-1,0l1,-1l1,-1l0,-1c0,0,-1,0,-1,0l1,-1ZM187.5,514.5l-1,0l1,1l0,-1ZM246.5,526.5c0,1,0,1,1,1c0,-1,0,-1,0,-1l-1,0ZM247.5,533.5c-1,0,-1,1,-1,1c0,0,-1,0,-1,0c0,0,-1,0,-1,0l-1,0c0,0,-1,0,-1,0c-1,0,-1,0,-1,-1l1,0c1,0,1,0,1,0c0,0,1,0,1,0c1,0,1,0,1,0c0,-1,1,-1,1,-1c0,-1,1,-1,1,-1c0,0,0,-1,0,-1c1,-1,1,-1,1,-1c0,-1,0,-1,0,-1l-1,0l0,1l-1,0l0,-1c-1,0,-1,0,-1,0c0,0,0,-1,0,-1c0,0,0,-1,0,-1c0,-1,0,-1,1,-1c0,-1,0,-1,0,-1c0,0,1,0,1,0l1,0l0,1l1,0c0,1,0,1,0,1c0,1,0,1,0,2c0,0,0,1,0,1c0,1,-1,2,-1,2c0,1,0,1,-1,1c0,1,0,1,0,1ZM233.5,523.5l-1,-1l1,-2l1,1ZM233.5,530.5l-1,0l-1,0c0,0,0,-1,0,-1c-1,0,-1,0,-1,0c0,0,0,-1,0,-1c-1,0,-1,0,-1,1c0,0,-1,0,-1,0c-1,0,-1,1,-2,1l-2,0l-1,0l-1,0l0,1l-1,0c-2,0,-3,-1,-4,-1c-1,0,-2,0,-2,-1c0,0,-1,-1,-1,-1l0,-1l0,-1l0,-1c0,0,1,-1,1,-1c0,0,0,1,0,1c0,0,0,1,0,1c0,0,0,1,0,1c0,0,1,1,2,1l1,0c0,0,0,1,1,1c1,0,2,0,3,0c1,0,1,0,2,0c0,0,1,0,1,-1l1,0l1,0c0,0,1,-1,2,-1c0,0,1,-1,1,-1l0,1l1,1l1,0l1,0c0,0,1,0,1,0c1,0,1,-1,1,-1c0,-1,0,-1,0,-1c0,0,0,-1,0,-1l-1,0l1,-2c0,0,1,1,1,1c0,1,0,1,0,1c0,1,0,1,0,1c0,0,0,1,0,1c0,1,0,1,0,1l-1,0c0,1,0,1,-1,1c0,0,-1,1,-1,1ZM223.5,524.5l-1,-1l-1,1l-1,0l1,-2l1,1l1,-1l1,1ZM221.5,516.5l4,-2l0,1l-4,2ZM278.5,520.5l-1,-1l1,-2l1,1ZM281.5,528.5c0,0,-1,1,-1,1c0,0,-1,0,-2,0c0,0,-1,0,-1,1l-1,0c0,0,0,-1,0,-1l-1,0l0,1l0,1c0,0,0,1,-1,2c0,1,-1,1,-1,1c0,0,-1,1,-1,1l-1,0l-1,0c-1,0,-1,0,-2,0l-1,-1l1,0l1,0c0,0,1,0,1,0c1,0,1,0,2,-1c1,0,1,-1,1,-1c0,0,0,-1,1,-1c0,0,0,-1,0,-1c1,-1,1,-1,1,-1l-1,0c0,-1,0,-1,0,-1l0,-1l0,-1l0,1l1,0l0,1l1,0l1,0c1,0,1,0,1,0c1,0,2,-1,2,-1l1,0c0,-1,0,-1,0,-1c-1,0,-1,-1,-1,-1l0,1l-1,0c-1,0,-1,0,-1,0l-1,0l0,-1l0,-1l0,-1c1,-1,1,-1,1,-1c0,-1,1,-1,1,-1c0,0,1,0,1,0c0,1,0,1,1,2l0,1l0,1c0,0,0,1,0,1c0,0,0,1,0,1l0,1ZM278.5,523.5c0,1,0,1,0,1l1,0l1,0l-1,0l0,-1l-1,0ZM277.5,513.5l4,-2l0,1l-4,2ZM270.5,519.5c0,0,0,-1,1,-1c0,0,1,0,1,0c1,0,1,0,1,0c1,1,1,1,1,1c0,1,0,1,-1,1c0,0,0,1,0,1l-1,0c0,0,-1,0,-1,0l-1,0l2,0c0,-1,1,-1,1,-1c0,0,0,-1,-1,-1c-1,0,-1,0,-2,1c0,-1,0,-1,0,-1ZM268.5,528.5l0,1l-1,0c-1,0,-1,0,-2,1l-1,0l-1,0l-1,0c0,0,0,-1,0,-1c0,-1,0,-1,0,-1c0,-1,0,-1,0,-1c1,1,1,1,1,1c1,0,1,0,2,0c0,0,1,-1,1,-1c0,0,1,0,1,0c0,0,1,0,1,0c0,-1,0,-1,0,-1c-1,-1,-1,-1,-1,-1l-1,-1l-1,0l0,-1l-1,0l1,-2l1,0c0,0,0,1,0,1c0,0,1,0,1,0l0,1c0,0,1,0,1,1c0,0,0,1,0,1c1,0,1,1,1,1l0,1c-1,1,-1,1,-1,1ZM261.5,518.5l5,-3c0,1,-1,1,-1,1l-5,3ZM263.5,514.5l5,-2c-1,1,-1,1,-1,1l-5,3ZM258.5,530.5l0,-2l0,-1l0,-8l0,-3l1,11c0,0,0,1,0,1c0,1,-1,1,-1,2ZM325.5,521.5l-1,-1l-1,1l-1,0l0,-2l2,1l1,-1l1,1ZM323.5,530.5l-1,0l-2,0l0,-1c-1,0,-1,0,-1,0l0,-1l-1,0l0,-1l0,1l-1,1c0,0,-1,0,-1,0c-1,0,-1,0,-2,0l-1,0c-1,0,-1,0,-1,0c0,0,0,-1,0,-1l0,-1l0,-1c0,0,0,1,0,1l1,0l1,0l1,0c1,0,1,0,1,0l1,0c0,0,1,0,1,0l0,-1l0,-1l-1,-2l0,-1l1,-1l0,-1l0,2c0,0,1,0,1,1l0,3l0,1l1,1l2,0l1,0c1,0,1,0,2,0c0,0,1,-1,1,-1c0,-1,0,-1,0,-1c-1,0,-1,0,-1,0l0,-1l1,-2c0,0,0,1,0,1l0,1l1,1l0,1c0,0,-1,0,-1,0c0,1,0,1,0,1c0,1,-1,1,-1,1c-1,0,-1,1,-2,1ZM323.5,513.5l4,-2l0,1l-4,2ZM317.5,518.5l-2,-1l1,-1l1,1ZM314.5,513.5l4,-2l-1,1l-4,2ZM301.5,533.5l1,0c1,0,2,0,3,-1c1,0,1,-1,1,-1c1,-1,1,-1,2,-2c0,-1,0,-1,0,-1c0,-1,0,-1,0,-1l-1,-1l0,-2l1,0c0,1,0,1,1,2l0,1l0,1c0,0,0,1,0,1l0,1c0,0,-1,0,-1,0l0,1l0,1c-1,0,-1,0,-1,1c0,0,-1,0,-1,0l-1,0c0,0,0,1,0,1c-1,0,-1,0,-1,0l-1,0l-1,0c0,0,0,-1,0,-1l-1,0ZM303.5,519.5c0,0,0,-1,1,-1c0,0,1,0,1,0c1,0,1,0,1,0c1,1,1,1,1,1c0,1,0,1,-1,1c0,0,0,1,0,1l-1,0c0,0,-1,0,-1,0l-1,0l2,0c0,-1,1,-1,1,-1c0,0,0,-1,-1,-1c-1,0,-1,0,-2,1c0,-1,0,-1,0,-1ZM299.5,523.5l-2,-1l1,-1l2,1ZM297.5,530.5c0,0,0,-1,0,-1l1,0c0,0,1,0,1,0c1,0,1,-1,1,-1c0,0,0,-1,0,-1c0,-1,-1,-1,-1,-1l1,-1c0,-1,0,-1,0,-1c0,1,1,1,1,2l0,1c0,1,0,1,0,1c0,1,0,1,-1,1c0,0,0,1,0,1l1,0c0,0,0,1,0,1c0,1,0,1,0,1l0,1c0,0,-1,0,-1,0c0,0,0,1,-1,1c-1,0,-1,1,-2,1c-1,0,-2,0,-3,0c-1,0,-1,0,-2,0c-1,0,-1,0,-1,-1c-1,0,-1,0,-1,-1c0,0,-1,-1,-1,-1c0,-1,0,-1,0,-1c0,0,1,-1,1,-1c0,-1,0,-2,1,-2c0,0,0,1,0,1c-1,1,-1,1,-1,2c1,1,1,1,1,2c1,0,2,1,3,1c1,0,1,0,1,0c0,0,1,0,1,-1c0,0,1,0,1,0c1,0,1,0,2,-1c0,0,1,0,1,0c0,-1,-1,-1,-2,-1c0,0,-1,0,-1,0c0,-1,0,-1,0,-1m4,6l-4,2c0,-1,0,-1,1,-1l3,-2ZM344.5,528.5l-1,0c0,1,0,1,0,1l-1,0c1,0,1,0,1,0l1,0c0,0,0,-1,0,-1ZM345.5,531.5c-1,0,-1,0,-2,0l-1,0c0,0,-1,0,-1,0c-1,0,-1,0,-1,0c0,0,-1,0,-1,0c0,0,0,-1,0,-1c0,0,0,-1,0,-1l1,0l1,0c1,0,1,-1,1,-1l1,0c0,-1,0,-1,0,-1c0,0,0,-1,-1,-1l0,-1c-1,0,-1,-1,-2,-1c0,-1,0,-1,-1,-2c0,0,-1,0,-1,0c0,-1,0,-1,0,-1c-1,0,-1,0,-1,0l-1,0c0,0,0,-1,0,-1c-1,0,-1,-1,-1,-1c0,-1,0,-1,0,-1c0,0,1,0,1,-1c0,1,1,1,1,1c1,1,1,1,2,2c1,0,1,1,2,2c0,0,1,1,1,2c1,0,1,1,1,1c0,0,1,1,1,1c0,0,0,-1,0,-1c0,-1,0,-2,0,-2c0,-1,0,-2,0,-2c0,0,0,-1,0,-1c0,-1,0,-1,0,-2l0,-1l0,-1c0,0,1,0,1,0c0,0,0,1,0,1c1,0,1,0,1,0c0,1,0,1,0,1c0,1,0,1,0,1c-1,0,-1,0,-1,1c0,0,0,1,0,1c0,1,0,1,0,1c0,1,0,1,0,2c0,0,0,1,0,1c-1,1,-1,1,-1,2c0,0,0,1,1,1c0,1,0,1,0,1c0,1,0,1,0,1l0,1ZM341.5,514.5l6,-3c-1,0,-1,1,-1,1l-6,3ZM368.5,533.5c0,0,1,0,1,0l1,0c0,0,1,0,2,-1c1,0,1,-1,2,-1c0,-1,0,-1,1,-2c0,-1,0,-1,0,-1c0,-1,0,-1,0,-1l0,-1l-1,0l1,-2c0,1,1,1,1,2l0,1l0,1c0,0,0,1,0,1l0,1l-1,1l0,1c0,0,-1,0,-1,1l-1,0c-1,0,-1,1,-1,1c-1,0,-1,0,-1,0l-1,0c0,0,-1,-1,-1,-1l-1,0ZM371.5,520.5l4,-2c0,1,0,1,-1,1l-4,2ZM361.5,534.5l-2,-1l1,-2l1,1ZM368.5,528.5c-1,0,-1,0,-2,1c-1,0,-2,0,-3,1c-1,0,-2,0,-4,0c-1,0,-2,0,-3,0c-1,0,-2,-1,-3,-1c0,-1,0,-1,0,-1l-1,-1l0,-1c0,0,1,-1,1,-1c0,-1,0,-1,1,-2c0,0,0,1,0,1l0,1c-1,0,-1,0,-1,1l1,1c0,0,1,0,1,1c1,0,1,0,1,0l1,0l1,0l2,0c1,0,2,0,2,0l1,0c0,0,1,0,1,0l1,-1c1,0,1,0,2,0c0,-1,1,-1,1,-1l0,-1c0,0,-1,-1,-1,-1l0,-1c1,0,1,-1,1,-1c0,1,0,1,1,2c0,0,0,1,0,1c0,1,0,1,0,1c0,1,-1,1,-1,2ZM359.5,520.5c0,1,0,1,0,1c1,-1,1,-1,1,-1l0,-1l0,1l1,0l0,-1l1,-1l0,1l0,1c0,1,-1,1,-1,1c0,0,-1,0,-1,0c0,1,-1,1,-1,1l-1,0c0,-1,0,-1,0,-1l0,-1ZM360.5,535.5l-4,2c1,0,1,-1,1,-1l4,-2ZM94.5,505.5c0,0,0,1,0,1l-1,0c0,0,-1,1,-1,1l-1,-1l-1,0l-1,0c0,-1,0,-1,0,-1c0,0,0,1,0,1l-1,1c1,0,1,0,1,0c0,0,1,0,1,0l1,0l1,0c0,0,1,0,1,0l2,0l-1,0c0,0,-1,0,-1,0c0,0,-1,0,-1,0c-1,1,-1,1,-1,1l-1,0l-2,0c0,0,0,-1,0,-1c-1,0,-1,0,-1,0l1,-1l1,-1l0,-2l0,2c1,0,1,1,1,1c1,0,1,0,1,-1c0,1,0,1,0,1c1,0,1,-1,2,-1l1,0ZM94.5,506.5c0,-1,0,-1,0,-1l-1,0l-1,1l1,0c0,0,1,0,1,0ZM238.5,530.5l0,-2l0,-1l0,-8l1,-3l0,11c0,0,0,1,0,1c0,1,0,1,-1,2ZM236.5,515.5l5,-2l-1,1l-4,2ZM91.5,512.5l-1,-1l1,0Z" class="g1_19" />
</svg>