<?xml version="1.0" encoding="UTF-8" standalone="no"?>
<!DOCTYPE svg PUBLIC "-//W3C//DTD SVG 1.1//EN"
"http://www.w3.org/Graphics/SVG/1.1/DTD/svg11.dtd">
<svg version="1.1" xmlns="http://www.w3.org/2000/svg" xmlns:xlink="http://www.w3.org/1999/xlink">
<defs>
<style type="text/css"><![CDATA[
.g2_65{
fill: #1F1A17;
stroke: #1F1A17;
stroke-width: 1;
stroke-linecap: butt;
stroke-linejoin: miter;
}
.g1_65{
stroke: #1F1A17;
stroke-width: 1;
stroke-linecap: butt;
stroke-linejoin: miter;
}
]]></style>
</defs>
<path fill-rule="evenodd" d="M241.5,88.5l0,1c0,1,0,1,0,1l1,0c0,-1,0,-1,0,-1l0,-1l1,0l0,1l1,0l0,-1l0,-1l1,0l0,1l0,1c-1,1,-1,1,-1,1l-1,0l-1,0l0,1c0,0,-1,0,-1,0l-1,0l0,-1l0,-1l0,-1ZM144.5,100.5c0,0,0,-1,-1,-1c-1,0,-2,0,-2,1c0,0,-1,0,-1,0l0,-1l0,-1l0,-1c0,0,0,-1,0,-1l0,-1c-1,0,-1,0,-1,0c0,1,0,1,0,2l1,2l0,1c0,1,0,1,-1,1l-1,0l0,1c-1,0,-1,0,-1,0c1,0,1,0,1,0l1,0l1,0c1,0,1,0,2,0c0,0,1,0,1,-1l1,0c0,0,0,-1,0,-1ZM142.5,100.5c1,0,1,0,1,0c0,1,-1,1,-1,1l-1,0l-1,0c1,0,1,-1,1,-1l1,0ZM396.5,89.5c0,0,1,0,1,0c0,-1,1,-1,1,-1c1,0,1,0,2,1c0,1,0,1,0,1c-1,1,-1,1,-1,1c0,0,-1,0,-1,0l-1,0l-1,0l2,0c1,0,1,-1,2,-1c-1,0,-1,0,-1,0c-1,0,-1,0,-1,0c0,0,-1,0,-1,0c-1,0,-1,0,-1,0c0,0,0,-1,0,-1ZM235.5,92.5l1,-1l1,0c0,0,0,1,0,1l0,1c0,0,0,1,0,1l0,1l-1,0l-1,1l-1,0l0,1l-1,0l0,-1l1,0c0,0,1,-1,1,-1l1,-1l-1,0c0,0,0,-1,0,-1l0,-1ZM236.5,92.5c0,0,0,1,0,1ZM203.5,88.5c0,-1,0,-1,0,-2c-1,-1,-1,-1,-1,-2l1,0l0,1l0,1l0,1c0,1,0,1,0,1ZM97.5,96.5l-2,-1l0,1l-2,-1l1,-1l1,0l1,-1l2,1ZM95.5,104.5l-1,0l-2,0c0,0,0,1,0,1c0,0,0,1,-1,1c0,1,0,1,0,1c0,1,-1,1,-1,1c0,0,-1,1,-1,1l-1,0c-1,0,-1,0,-1,0c-1,0,-1,0,-2,0c0,0,-1,0,-1,-1c0,0,1,0,1,0l1,0c0,0,1,0,1,0c0,0,1,0,1,0c1,-1,1,-1,1,-1c0,0,1,-1,1,-1l0,-1c1,0,1,0,1,0c0,-1,0,-1,0,-1c-1,0,-1,0,-1,0c-1,0,-1,0,-1,0c0,-1,0,-1,-1,-1c0,-1,0,-1,0,-1l0,-1c0,0,1,0,1,0c0,0,0,-1,0,-1c1,-1,1,-1,1,-1c1,0,1,0,1,0c0,0,0,1,1,1c0,1,0,1,0,1c0,1,0,1,0,1c1,0,1,0,1,0c0,0,1,0,1,0l1,0c0,0,1,0,1,0c1,0,1,0,1,0c0,-1,0,-1,0,-1l0,-1l0,-1l-1,0l1,-1c0,0,1,0,1,0l0,1l0,1l0,1c0,0,0,1,0,1c0,0,0,1,-1,1c0,0,0,1,-1,1c0,0,-1,0,-1,0ZM95.5,88.5l4,-2c0,1,-1,1,-1,1l-4,2ZM90.5,101.5c0,0,-1,0,-1,0l0,1c1,0,1,0,1,0l1,0c0,0,0,-1,0,-1l-1,0ZM86.5,94.5l5,-2l-1,1l-4,2ZM82.5,103.5c-1,0,-1,0,-3,0c0,0,-1,0,-3,0c-2,0,-3,0,-3,0l-1,0c0,0,-1,0,-1,0c-1,1,-3,1,-4,1c-1,0,-3,0,-4,0c-1,0,-2,0,-2,0l-1,0l-1,0c0,0,-1,0,-1,0c0,-1,-1,-1,-1,-2c0,1,0,1,-1,1c0,1,0,1,0,1l-1,0c-1,0,-1,0,-1,0c0,0,-1,0,-1,-1c0,0,-1,0,-1,0l-1,0c0,1,-1,1,-2,1l-2,1c-1,0,-1,0,-1,0l-1,0l-1,0c-1,0,-3,0,-4,0c-1,-1,-1,-1,-2,-2l-1,-1c0,-1,0,-1,0,-1c0,-1,0,-1,0,-1c1,-1,1,-1,1,-2l1,0c0,1,-1,1,-1,1c0,1,0,1,0,1c0,1,0,1,0,1c1,1,1,1,2,1c0,1,0,1,0,1c0,0,1,0,1,0c0,0,1,0,1,0c1,0,2,0,3,0c1,0,1,0,2,0c0,0,1,0,2,0c1,0,1,-1,1,-1c1,0,1,0,2,0c1,-1,1,-1,1,-2c0,1,0,1,0,1l0,1l1,0l1,0l1,0l1,-1c0,0,0,-1,0,-1l0,-1l-1,-7l1,-2l1,11c0,0,0,1,0,1c0,0,1,0,1,0l1,0c1,0,1,0,1,0c1,0,2,0,3,0c1,0,2,0,3,0c1,0,3,0,4,0l2,0c1,0,2,0,3,-1c1,0,2,0,4,0c1,0,2,0,2,0c0,0,1,0,1,0l0,-1c-1,0,-1,0,-1,0l-1,0l-1,0c-1,0,-2,0,-4,0c-2,0,-4,0,-6,0c-2,0,-3,0,-4,0c-2,0,-4,0,-4,0c0,0,0,-1,0,-1c0,0,0,-1,0,-1c0,-1,1,-1,1,-1c0,0,0,-1,1,-1c0,-1,1,-2,2,-2c1,-1,2,-1,3,-2l1,0l-1,2l-1,0c-1,1,-2,1,-3,2c-1,1,-1,1,-2,2c0,0,0,1,0,1c1,0,1,0,1,0c0,0,1,0,1,0c1,0,1,0,1,0c1,0,3,0,5,0c2,-1,4,-1,6,-1c1,0,3,0,3,0c1,0,1,0,1,0c0,0,1,0,2,0c0,1,0,1,0,1c0,0,1,0,1,0c0,1,0,1,0,1c0,1,0,1,0,2c-1,0,-1,1,-1,1ZM66.5,88.5l0,1l1,0c0,0,1,0,1,-1l0,-1l0,1c0,0,1,0,1,0l0,-1l1,0c0,0,0,1,0,1l0,1c-1,0,-1,0,-1,0l0,1l-1,0c0,0,0,-1,0,-1l0,1c-1,0,-1,0,-1,0c0,0,-1,0,-1,0l0,-1l0,-1ZM71.5,85.5l-6,3c0,-1,1,-1,1,-2l5,-2ZM55.5,82.5c0,0,1,0,1,0c1,0,1,0,1,0c1,0,1,0,2,0l0,1c0,0,0,1,0,1c0,0,-1,0,-1,0c0,0,0,1,0,1c0,0,-1,0,-1,0l-1,0l-1,0l2,-1c1,0,1,0,2,-1c-1,0,-1,0,-1,0c0,0,-1,0,-1,0c0,0,-1,0,-1,0c0,0,-1,0,-1,0l0,-1ZM47.5,98.5l-2,0l-1,1l-1,-1l1,-2l1,1l1,-1l1,1ZM44.5,85.5c0,-1,0,-1,0,-1c1,0,1,-1,1,-1c0,1,0,1,0,1c1,0,1,0,1,1l0,1l-1,0l1,1l0,1l-1,-1l-1,1c0,0,-1,1,-1,1l-1,0l-1,0l1,0l1,-1l1,-1l0,-1c0,0,-1,0,-1,0l0,-1c0,0,1,0,1,0ZM45.5,85.5l-1,0l1,1l0,-1ZM133.5,101.5c-1,0,-2,0,-3,1c-1,0,-2,1,-3,1c-1,1,-3,1,-3,1l-1,0c-1,0,-1,0,-1,0c-1,-1,-1,-1,-1,-2c0,1,-1,1,-1,1c0,1,-1,1,-1,1l-1,0c-1,0,-1,0,-1,0c0,0,-1,0,-1,0c0,0,0,-1,0,-1l-1,0c0,0,-1,0,-1,0c0,0,-1,1,-1,1l-1,0c-1,0,-1,0,-1,0c-1,0,-1,0,-1,-1c0,0,-1,0,-1,-1c0,0,0,-1,0,-1c-1,1,-1,1,-1,1l-1,0l-1,0l-1,0l0,-1c0,-1,0,-1,1,-2c0,0,1,0,1,-1c1,0,1,0,1,0l0,-1l0,-1l1,0l0,1l0,1c0,0,1,0,1,1l0,2l0,1c1,0,1,0,1,0c0,0,1,0,1,0c1,0,1,0,1,0c0,0,1,0,1,0c1,0,1,-1,1,-1c1,0,1,0,1,0c0,1,0,1,1,1l1,0c1,0,1,0,1,0c1,0,1,0,1,-1c0,0,0,-1,0,-1l0,-1l0,-7l1,-2l0,11l1,0c0,0,0,1,0,1c0,0,1,0,1,0l1,0l1,0c0,0,1,0,1,0c0,-1,0,-1,-1,-1c0,-1,0,-1,0,-2c0,-1,0,-1,0,-1l1,0l0,-1c0,0,1,-1,1,-1l1,0l1,0l1,0c1,0,1,0,1,0c0,1,0,1,0,1l1,0l-1,0l-1,0l-1,0l-1,0l-1,0c0,1,-1,1,-1,1c0,0,0,1,0,1c1,0,1,0,1,1c1,0,1,1,2,1l1,0l0,-1c0,0,1,0,1,0l1,0l0,-1l1,0ZM124.5,91.5l4,-2l0,1l-4,2ZM118.5,88.5l4,-2c-1,1,-1,1,-1,1l-4,2ZM116.5,107.5l-1,-1l-1,1l-1,0l1,-2l1,1l1,-1l1,1ZM112.5,86.5c0,0,1,0,1,0c1,-1,1,-1,2,-1c0,0,1,0,1,1c0,1,0,1,0,1c0,1,-1,1,-1,1l-1,0l-1,0l-1,0l2,0c1,0,1,-1,2,-1c-1,0,-1,0,-1,0c0,0,-1,0,-1,0c0,0,-1,0,-1,0c0,0,-1,0,-1,0c0,0,0,-1,0,-1ZM109.5,99.5l-1,0l-1,0l0,1c0,0,-1,0,-1,0l1,0l1,0l1,0ZM109.5,107.5l-4,2c0,0,0,-1,1,-1l4,-2ZM164.5,103.5l-1,0c0,0,-1,0,-1,0c-1,0,-1,0,-2,0l0,-1c0,1,0,1,-1,1c0,0,-1,0,-1,1c0,0,-1,0,-1,0c0,0,-1,0,-1,0c0,0,-1,0,-1,0l-1,0c0,0,0,1,0,1c0,0,0,1,-1,1c0,1,0,1,0,1c-1,1,-1,1,-1,1c-1,0,-1,1,-1,1l-1,0c-1,0,-1,0,-1,0l-1,0c0,0,-1,0,-1,0c0,0,-1,0,-1,-1c0,0,1,0,1,0c1,0,1,0,2,0c0,0,1,0,1,0c0,-1,1,-1,1,-1c0,0,0,-1,1,-1l0,-1c1,0,1,0,1,0c0,-1,0,-1,0,-1c0,0,-1,0,-1,0l-1,0c0,-1,-1,-1,-1,-1c0,-1,0,-1,0,-1l0,-1c1,0,1,-1,1,-1c0,-1,1,-1,1,-1c0,0,1,0,1,0c0,0,0,1,0,1c1,0,1,0,1,0c0,1,0,1,0,1c0,1,0,1,0,1c1,0,1,0,1,0c0,0,1,0,1,0c1,0,1,0,1,0l1,0c0,0,0,-1,0,-1c0,0,0,-1,0,-1l0,-1l1,0c0,-1,0,-1,0,-1c0,0,0,-1,0,-1c0,-1,0,-1,0,-1c0,0,1,0,1,0c0,0,1,0,2,1c0,0,1,1,1,1c1,1,1,1,1,2l1,0c0,1,0,1,0,1c0,0,0,1,0,1c0,0,-1,0,-1,1ZM160.5,99.5l-1,0l0,1c0,1,0,1,1,1c1,-1,1,-1,1,-1c0,0,0,-1,-1,-1ZM162.5,99.5l0,1c0,1,-1,1,-1,1l1,0l1,1l1,0c0,0,0,-1,-1,-1l0,-1c0,0,-1,0,-1,0c0,0,0,-1,0,-1ZM157.5,85.5c0,-1,0,-1,0,-1c0,0,1,-1,1,-1c0,1,0,1,0,1c1,0,1,0,1,1l0,1c0,0,-1,0,-1,0l1,1l0,1l-1,-1l-1,1c0,0,-1,1,-1,1l-1,0c0,0,-1,0,-1,0l1,0l1,-1l1,-1l0,-1c-1,0,-1,0,-1,0l0,-1l1,0ZM158.5,85.5l-1,0l0,1l1,0l0,-1ZM152.5,101.5c0,0,-1,0,-1,0l0,1c0,0,1,0,1,0l1,0c0,0,0,-1,0,-1c0,0,-1,0,-1,0ZM148.5,94.5l4,-2l0,1l-4,2ZM187.5,104.5l0,-1l0,-1l-1,-9l1,-2l0,11c0,0,0,1,0,1c0,0,0,1,0,1ZM190.5,107.5l-4,2c0,-1,0,-1,0,-1l4,-2ZM180.5,102.5l0,1c0,0,-1,0,-1,0c0,0,1,0,1,0l1,0ZM181.5,105.5l-1,0c0,0,-1,0,-1,0c0,0,-1,0,-1,0c-1,0,-1,0,-1,0c-1,0,-1,0,-1,0c0,-1,0,-1,0,-1c0,0,0,-1,1,-1c0,1,0,1,0,1l1,0c0,-1,0,-1,0,-1c0,0,1,0,1,0c0,-1,0,-1,0,-1c1,0,1,0,1,-1c0,0,-1,0,-1,-1c-1,-1,-1,-1,-2,-2c0,0,-1,-1,-1,-1c0,-1,-1,-1,-1,-1c0,0,0,-1,-1,-1c0,0,0,1,0,1c-1,0,-1,0,-1,-1l-1,-1c0,-1,0,-1,0,-1c0,0,0,-1,0,-1c0,0,1,0,1,0c0,0,1,0,1,1c1,0,1,1,2,1c0,1,1,2,1,2c1,1,2,1,2,2c0,1,1,1,1,1c0,1,0,1,0,1c1,0,1,0,1,-1c0,-1,0,-1,0,-2c0,-1,0,-1,0,-2l0,-1c0,0,0,-1,0,-1c0,-1,0,-1,0,-1c0,0,0,-1,0,-1c0,0,1,-1,1,-1l0,1c0,1,1,1,1,1l0,1l-1,0c0,1,0,1,0,1c0,0,0,1,0,2l0,1c0,0,0,1,0,1c0,1,0,1,-1,2c0,0,0,1,0,1l0,1c0,0,0,1,1,1l0,1c0,1,0,1,-1,1ZM178.5,88.5l0,1l1,0l0,-1l0,-1l0,1l1,0c0,0,1,0,1,0l0,-1c0,0,0,1,0,1l0,1l-1,0l0,1c0,0,0,-1,-1,-1l0,1c0,0,-1,0,-1,0l-1,0l0,-1l1,-1ZM182.5,85.5l-6,3c1,-1,1,-1,1,-2l5,-2ZM210.5,104.5l0,-1l0,-1l-1,-9l1,-2l1,11c0,0,0,1,-1,1c0,0,0,1,0,1ZM212.5,108.5l-3,1l0,-1l4,-1ZM202.5,102.5c0,0,1,0,1,0c0,0,1,0,1,0l1,0c0,0,0,-1,0,-1l0,-2l-1,-6c0,-1,0,-1,0,-1c0,0,0,-1,0,-1c0,0,1,-1,1,-1l0,1c0,0,1,1,1,1l0,1l-1,1l0,-1l0,1c0,0,0,1,0,1c0,1,0,1,1,3c0,0,0,1,0,1l0,1c0,1,0,1,0,1c0,0,0,1,0,1c-1,0,-1,0,-1,0c0,1,0,1,0,1c-1,0,-1,0,-1,1l-1,0l-1,0c-1,0,-1,0,-2,0l-1,-1l0,-1c0,0,0,-1,0,-1l-1,0c0,1,0,1,0,1l-1,0l-1,0c0,0,-1,0,-1,0l-1,0l0,-1c0,-1,1,-1,1,-2c1,0,1,0,2,-1c1,0,1,0,1,0l0,-1l0,-1l1,0l0,1l0,1l0,1l1,2l0,1l1,0l1,0ZM198.5,99.5l-1,0l0,1c-1,0,-1,0,-1,0l1,0c1,0,1,0,1,0l1,0ZM195.5,91.5l4,-2l0,1l-4,2ZM227.5,102.5l-1,1c0,0,1,0,1,0ZM228.5,105.5c0,0,-1,0,-1,0c-1,0,-1,0,-1,0c-1,0,-1,0,-2,0c0,0,-1,0,-1,0c0,-1,0,-1,0,-1c0,0,0,-1,0,-1c0,1,0,1,0,1c0,0,1,0,1,0c0,-1,1,-1,1,-1c1,-1,1,-1,1,-1l0,-1l0,-1c-1,0,-1,0,-1,0c0,-1,-1,-1,-1,-2c-1,0,-1,-1,-2,-1c0,-1,0,-1,0,-1c-1,0,-1,-1,-1,-1c0,0,0,1,0,1c-1,0,-1,0,-1,0l0,-1c-1,0,-1,0,-1,-1c0,-1,0,-1,0,-1c0,0,0,-1,0,-1c1,0,1,0,2,1c0,0,1,1,1,1c1,1,1,2,2,2c0,1,1,1,2,2c0,1,0,1,0,1c1,1,1,1,1,1l0,-1c0,-1,0,-1,1,-2c0,-1,0,-1,0,-2l0,-1c0,0,0,-1,0,-1c0,-1,-1,-1,-1,-1c0,0,0,-1,1,-1c0,0,0,-1,0,-1l0,1c0,0,1,0,1,0c0,1,0,1,1,1c-1,0,-1,0,-1,1c0,1,0,1,0,1c0,0,0,1,0,2l0,1c0,0,-1,1,-1,1c0,1,0,1,0,2c0,0,0,1,-1,1c1,0,1,0,1,1c0,0,0,1,0,1l0,1c0,1,0,1,0,1ZM226.5,88.5l5,-2l-1,1l-4,2ZM224.5,89.5c-1,1,-2,1,-3,1l-1,0l-1,0l-1,-1c0,1,0,1,-1,2l0,-1l1,-1l1,-1c0,0,1,1,1,1c0,0,1,0,1,0l1,0l1,0l1,-1ZM252.5,104.5l0,-1l0,-1l0,-9l1,-2l0,11c0,0,0,1,0,1c0,0,0,1,-1,1ZM248.5,103.5c0,0,-1,1,-1,1c0,0,-1,-1,-1,-1c-1,0,-1,-1,-1,-2c0,1,0,2,-1,2c0,1,-1,1,-2,1c0,0,-1,0,-1,-1c0,0,-1,-1,-1,-2c0,0,0,1,0,1l-1,0c0,1,-1,1,-1,1c-1,0,-1,0,-2,0c0,-1,0,-1,0,-1c0,-1,0,-1,0,-2c0,0,1,0,1,0c0,-1,1,-1,1,-1l1,-1l1,0l0,-1l0,-1l1,1l0,1l0,2c0,1,0,1,0,1l0,1c1,0,1,0,2,0l1,0c0,-1,0,-1,0,-1c0,-1,0,-2,0,-3c0,0,0,-1,0,-1c0,-1,0,-1,0,-1l0,-1l0,-1l1,0l0,2l0,2l0,1l0,1c0,0,1,0,1,0c0,0,0,1,0,1l1,0l0,1l1,0l0,-1c0,-1,0,-1,0,-1l0,-2l0,-1l-1,-1c0,-1,1,-1,1,-1l0,-1c0,0,0,1,0,1c0,1,0,1,1,1l0,2c0,1,0,2,0,2c0,1,0,1,0,2c0,0,0,1,-1,1ZM240.5,99.5l-1,0c0,1,-1,1,-1,1c0,0,-1,0,-1,1c1,0,2,0,2,0c0,0,1,-1,1,-1ZM316.5,101.5l-1,0l-1,0c-1,0,-1,0,-2,0l-1,1l-1,0l-1,0l0,1c-1,0,-1,0,-2,0l-1,0c-1,1,-1,1,-2,1l-1,0l-1,0l0,-1c0,0,-1,0,-1,0c0,-1,0,-1,0,-1c0,1,-1,1,-1,1c0,0,-1,1,-1,1c-1,0,-1,-1,-2,-2l0,1c-1,1,-1,1,-1,1l-1,0c-1,0,-1,-1,-1,-2c-1,1,-1,1,-1,1c-1,1,-1,1,-2,1l-1,0l-1,0l0,-1c-1,0,-1,0,-1,0c0,0,0,-1,-1,-1c0,0,-1,0,-1,1c-1,0,-1,0,-1,1c0,0,1,0,1,0c0,0,1,0,1,0c1,1,1,1,1,1c0,1,0,1,0,1c0,0,0,1,-1,1c0,0,0,1,-1,1c0,0,-1,1,-2,1c-1,0,-1,0,-2,1c-1,0,-1,0,-1,0c-1,0,-1,0,-2,0c-1,0,-1,0,-2,0c0,0,-1,0,-1,0l-1,0c0,0,-1,0,-1,0c-1,0,-2,0,-3,0c-1,0,-2,0,-3,0c0,0,-1,0,-2,0c0,-1,-1,-1,-1,-1c-1,0,-2,-1,-2,-1c-1,0,-1,-1,-2,-1l-1,-1l0,-1c0,0,1,0,1,0c0,1,1,1,1,1c1,0,1,1,2,1c0,0,1,0,1,0c0,0,1,1,2,1c0,0,1,0,2,0c1,0,2,1,2,1c1,0,2,0,3,0c0,0,1,0,1,0c0,0,1,0,1,0c0,0,1,0,1,0c1,0,2,0,2,-1c1,0,2,0,2,0c1,0,1,0,2,0c1,-1,1,-1,1,-1c1,0,1,0,2,0c0,0,0,-1,1,-1c-1,0,-1,0,-2,0c0,-1,-1,-1,-1,-1c0,-1,0,-1,0,-1c0,-1,1,-2,1,-3c1,0,2,0,3,0l0,-1c0,0,0,1,0,1c1,0,1,0,1,0l0,1c1,0,1,0,1,0l1,0l1,0c1,0,2,-1,2,-2l0,1c0,1,1,1,1,1c1,0,1,0,2,0c0,0,0,-1,1,-1l0,-1c0,1,0,1,0,1c1,1,1,1,1,1c1,0,1,0,1,0c0,-1,0,-1,1,-1c0,0,0,-1,0,-1c1,2,1,2,2,2l1,0c0,0,1,0,1,0c0,0,1,0,2,0l1,-1l1,0l1,0l-1,-1l-1,0l-1,-1l-1,0l-1,1c0,-1,0,-1,0,-2c0,0,1,0,1,0c0,0,1,0,1,0l1,0l1,0l2,1l1,0c0,0,0,1,1,1l1,0c0,0,1,0,1,0l1,0ZM307.5,91.5l4,-2l-1,1l-4,2ZM294.5,93.5c1,0,1,0,1,0c1,0,1,0,2,0c0,0,1,0,1,0c0,0,1,0,1,0l0,1c-1,0,-1,0,-1,1l-1,0c-1,0,-1,0,-1,0l-1,0l1,0c1,0,1,-1,2,-1c0,0,-1,0,-1,0l-1,0c0,0,-1,0,-1,0l-1,0l0,-1ZM290.5,108.5l-1,-1l1,-1l1,1ZM292.5,110.5l-4,2c0,-1,0,-1,0,-1l4,-3ZM268.5,94.5l3,-1l5,-2l5,-1l1,-1l-1,2l-1,0l-2,1l-1,0l-6,2l-3,2l-1,0ZM348.5,94.5l-2,-1l1,-1l1,1ZM350.5,102.5c0,1,-1,1,-1,1c0,0,-1,1,-2,1c0,0,-1,0,-1,0l-1,0l-1,0l-1,0c-1,0,-1,0,-2,0c0,0,-1,-1,-1,-1c0,0,-1,1,-2,1c0,0,-1,0,-2,0l-1,0c0,0,-1,0,-1,0c0,-1,0,-1,-1,-2l0,1l0,1c0,1,0,2,0,2c0,1,-1,1,-1,2c0,0,-1,0,-1,0c0,0,-1,0,-1,1c0,0,-1,0,-1,0c-1,0,-1,0,-2,0l-1,0c-1,0,-1,-1,-2,-1c0,0,0,-1,0,-1c-1,0,-1,-1,-1,-1c0,-1,0,-1,1,-2c0,0,0,-1,0,-1l1,-1l0,-1l0,1l0,1c0,0,-1,0,-1,0c0,1,0,1,0,1c0,1,0,2,1,2c0,1,1,1,2,1l1,0c1,0,2,0,2,0c1,-1,2,-1,2,-2c0,0,1,0,1,0c0,0,0,-1,0,-1l0,-3l-1,-1c0,0,0,-1,0,-1l0,-7l1,-2l1,10c0,1,0,1,0,1l0,1l1,0l1,0c1,0,1,0,1,0c0,0,1,0,1,0l1,0c-1,0,-1,0,-1,-1c0,-1,0,-1,1,-2c0,0,0,-1,0,-1c0,0,1,0,1,-1c0,0,1,0,1,0c1,0,1,0,2,0c0,1,0,1,0,2l0,1c0,0,0,1,0,1c-1,0,-1,1,-1,1c0,0,1,0,1,0l1,0l1,0l1,0c0,0,1,0,1,0c1,0,2,0,2,-1l1,0c0,-1,0,-1,0,-1c0,0,-1,0,-1,0l-1,0c0,1,0,1,0,1c-1,0,-1,0,-1,0c0,-1,0,-1,0,-1c-1,0,-1,0,-1,0c0,-1,0,-1,0,-1c0,0,0,-1,0,-1l0,-1c1,0,1,-1,1,-1c0,0,1,-1,1,-1c0,0,1,0,1,1l1,1l0,1l0,1c0,1,0,1,0,1c0,1,0,1,0,2ZM347.5,98.5l0,1l1,0l0,-1c0,0,1,0,1,0l-1,0l0,-1l-1,0ZM346.5,88.5l4,-2c0,1,0,1,0,1l-4,2ZM341.5,96.5l-1,-1l-1,1l-1,-1l1,-1l1,0l1,-1l1,1ZM341.5,99.5c0,0,-1,0,-1,0c-1,0,-1,0,-1,1c1,1,1,1,1,1c1,0,1,0,1,0c1,-1,1,-1,1,-1c0,0,0,-1,0,-1c-1,0,-1,0,-1,0ZM341.5,85.5c0,-1,0,-1,0,-1c1,0,1,-1,1,-1c0,1,1,1,1,1l0,1l0,1l0,1l0,1l-1,-1l0,1l-1,0c0,0,-1,1,-1,1l-1,0l1,-1l1,0l0,-1l0,-1l0,-1ZM342.5,85.5c-1,0,-1,0,-1,0l1,0l0,1l0,-1ZM323.5,93.5c0,0,1,0,1,0c1,0,1,0,1,0c1,0,2,0,2,0c0,0,0,1,0,1l0,1c0,0,-1,0,-1,0l-1,0l-1,0l-1,0l2,0c1,0,1,-1,2,-1c-1,0,-1,0,-1,0c0,0,-1,0,-1,0c0,0,-1,0,-1,0c0,0,-1,0,-1,0c0,-1,0,-1,0,-1ZM386.5,96.5l-1,-1l-1,1l-1,-1l1,-1l1,0l1,-1l1,1ZM384.5,104.5l-1,0l-1,0c0,0,0,1,0,1c0,0,0,1,-1,1c0,1,0,1,0,1c-1,1,-1,1,-1,1c-1,0,-1,1,-1,1c0,0,-1,0,-1,0c-1,0,-1,0,-1,0l-1,0c0,0,-1,0,-1,0c-1,0,-1,0,-1,-1l1,0c1,0,1,0,2,0c0,0,1,0,1,0c0,-1,1,-1,1,-1c0,0,0,-1,1,-1l0,-1c0,0,1,0,1,0c0,-1,0,-1,0,-1c0,0,-1,0,-1,0l-1,0c0,-1,-1,-1,-1,-1c0,-1,0,-1,0,-1l0,-1c1,0,1,-1,1,-1c0,-1,1,-1,1,-1c0,0,1,0,1,0c0,0,0,1,0,1c0,0,1,0,1,0c0,1,0,1,0,1c0,1,0,1,0,1c1,0,1,0,1,0c1,0,1,0,1,0c1,0,1,0,2,0c0,0,1,0,1,0c0,-1,0,-1,0,-1l0,-1l-1,0l0,-1l1,-1l0,1l1,1l0,1c0,0,0,1,-1,1c0,0,0,1,0,1c0,0,-1,1,-1,1c-1,0,-1,0,-2,0ZM384.5,88.5l4,-2c0,1,0,1,0,1l-4,2ZM380.5,101.5c-1,0,-1,0,-1,0l0,1c0,0,1,0,1,0l1,0c0,0,0,-1,0,-1c0,0,-1,0,-1,0ZM376.5,94.5l4,-2l0,1l-4,2ZM369.5,102.5c1,0,1,0,1,0c1,0,1,0,1,0c1,0,1,0,1,0c0,0,0,-1,0,-1l0,-2l0,-6c0,-1,-1,-1,-1,-1c0,0,0,-1,1,-1c0,0,0,-1,0,-1l0,1l1,0c0,0,0,1,0,1l0,1l0,1l0,-1l0,1c0,0,0,1,0,1c0,1,0,1,0,3c0,0,0,1,0,1l0,1c0,1,0,1,0,1c0,0,0,1,0,1c0,1,-1,1,-1,1l-1,1c-1,0,-1,0,-1,0l-1,0l-1,0c0,0,0,1,0,1c0,0,-1,1,-1,1c0,1,0,1,-1,1c0,1,0,1,0,1c-1,0,-1,1,-1,1c0,0,-1,0,-1,0l-1,0l-1,0c0,0,-1,0,-1,0c-1,0,-1,0,-1,-1l1,0c1,0,1,0,2,0c0,0,1,0,1,0c0,-1,1,-1,1,-1c0,0,0,-1,1,-1l0,-1c0,0,1,0,1,0c0,-1,0,-1,0,-1c-1,0,-1,0,-1,0l-1,0c-1,-1,-1,-1,-1,-1c0,-1,0,-1,0,-1l0,-1c0,0,1,-1,1,-1c0,-1,1,-1,1,-1c0,0,1,0,1,0c0,0,0,1,0,1c0,0,1,0,1,0c0,1,0,1,0,1c0,1,0,1,0,1c1,0,1,0,1,0ZM371.5,86.5l0,1c0,0,1,0,1,0l0,-1l1,-1l0,1l1,0l0,-1l0,1l0,1l-1,0l-1,1c-1,0,-1,0,-1,0l0,-1l0,-1ZM375.5,83.5l-5,3c0,-1,0,-1,0,-2l6,-2ZM366.5,101.5c-1,0,-1,0,-1,0l0,1l1,0c1,0,1,0,1,0c0,0,0,-1,0,-1c-1,0,-1,0,-1,0ZM361.5,93.5c1,0,1,0,1,0c1,0,1,0,2,0c0,0,1,0,1,0c0,0,1,0,1,0c0,0,0,1,0,1c-1,0,-1,0,-1,1l-1,0c-1,0,-1,0,-1,0l-1,0l1,0c1,0,1,-1,2,-1c0,0,-1,0,-1,0l-1,0c0,0,-1,0,-1,0l-1,0c0,-1,0,-1,0,-1ZM358.5,104.5l0,-1l0,-1l0,-9l1,-2l0,11c0,0,0,1,0,1c0,0,0,1,-1,1ZM414.5,94.5l-2,-1l1,-1l2,1ZM416.5,102.5c0,1,0,1,-1,1c0,0,-1,1,-1,1c-1,0,-1,0,-2,0l-1,0l-1,0c-1,0,-1,0,-2,-1c0,0,0,-1,0,-2l-1,-8l1,-2l1,9l0,1l0,1c0,0,1,0,1,0l1,0l1,0c1,0,1,0,2,0c1,0,1,0,2,-1c0,-1,0,-1,0,-1c-1,0,-1,0,-1,0c-1,1,-1,1,-1,1c0,0,-1,0,-1,0c0,-1,0,-1,0,-1l-1,0c0,-1,0,-1,0,-1c0,0,0,-1,0,-1l1,-1c0,0,0,-1,0,-1c1,0,1,-1,1,-1c1,0,1,0,1,1c1,0,1,0,1,1l0,1l1,1c0,1,0,1,0,1c0,1,0,1,-1,2ZM413.5,98.5l1,0l0,1l0,-1c1,0,1,0,1,0c-1,0,-1,0,-1,-1c0,0,-1,0,-1,0ZM412.5,88.5l4,-2c0,1,0,1,0,1l-4,2ZM410.5,108.5l-3,1l0,-1l4,-1ZM399.5,98.5l-1,-1l1,-2l1,1ZM399.5,107.5c-1,0,-1,0,-2,0c0,0,-1,0,-1,-1c0,0,-1,0,-1,-1c0,0,0,-1,0,-2l0,-1c0,0,0,-1,0,-1c0,-1,0,-1,0,-1c1,0,1,0,1,0l0,-1l0,1c0,1,0,1,0,1c0,0,0,1,0,1c-1,0,-1,0,-1,0c0,0,0,1,0,1c1,0,1,0,1,1l1,0c0,0,0,1,0,1l1,0c0,0,1,0,1,0c1,0,2,0,2,0c1,-1,2,-1,2,-1c0,0,0,-1,0,-1c1,0,1,0,1,0c0,-1,0,-1,0,-1c-1,-1,-1,-1,-1,-1c0,0,0,-1,0,-1l0,-1l-1,0l0,-1l1,-2c0,0,0,1,0,1c1,1,1,1,1,1c0,0,0,1,0,1l0,1l0,1c0,0,0,1,0,1c0,1,0,1,0,2c0,0,-1,1,-1,2c-1,0,-1,0,-2,1c-1,0,-1,0,-2,0ZM174.5,138.5c0,0,1,0,1,0c0,0,1,-1,1,-1c1,0,1,1,2,1l0,1l0,1c-1,0,-1,0,-1,0c0,0,-1,0,-1,0l-1,0l-1,0l2,0c1,0,1,-1,2,-1c-1,0,-1,0,-1,0c-1,0,-1,0,-1,0c0,0,-1,0,-1,0c-1,0,-1,0,-1,0l0,-1ZM159.5,148.5c0,1,0,1,-1,2l0,1c0,0,-1,1,-1,1l1,0l0,1l-1,0l0,1l-1,0l0,1c0,0,-1,0,-1,0l-1,0l-1,1l-1,0l-1,0l0,1l-1,1l-3,0l-3,0l-2,0l-1,0l0,-1c-1,-1,-1,-1,-1,-1c-1,0,-2,0,-3,-1l-1,0l0,-1l-1,0l0,-1l-1,0l0,-1l-1,0l1,0l1,0l-1,0l0,-1l-1,-1l0,-1l0,-1l0,-1l0,-1l1,-1l0,-1l1,0l-1,-1l-1,0c1,0,1,0,1,0l0,-1l1,0l1,0l0,-1l1,0l1,-1l2,0c0,-1,0,-1,0,-1l1,0l0,-1c1,0,1,-1,1,-1l2,0l3,0l3,0l0,1l1,0l0,1l1,0l0,1l2,0l1,0l0,1l1,0l0,1l1,0c1,0,1,1,1,1l-1,1l1,0l0,1l0,1l1,0l0,1ZM150.5,158.5l0,-1l1,0l0,-1l1,0c0,0,1,0,1,-1c0,0,1,0,1,0c1,0,1,0,2,-1c0,0,1,-1,1,-1l1,0l0,-1l-1,0l0,-1l1,0l0,-1l0,-1l0,-1c0,-1,0,-2,0,-2c0,-1,0,-1,0,-1c0,0,-1,-1,-1,-1l1,-1c0,0,-1,-1,-1,-1l-1,0l0,-1l-1,0l-2,-1l-1,0c0,0,-1,-1,-1,-1l-1,-1l-1,0l-2,0l-1,0l-2,0l-2,0l-1,0l0,1c0,0,-1,1,-1,1l-2,0l-1,1l-1,0l0,1l-1,0c0,0,-1,1,-1,1l1,1l-1,1l0,1l0,1c-1,0,-1,0,-1,1l1,0l0,1l0,1l0,1l1,0l0,1l-1,0l0,1l1,0l1,1l1,1l1,0l1,0l1,1c0,0,1,0,1,0l0,1l1,0c0,1,0,1,0,1l2,0l3,0ZM155.5,143.5l-1,0l0,-1l-1,0c0,0,-1,0,-1,0l0,-1l1,0c1,0,1,1,1,1c0,0,1,0,1,0l0,1ZM155.5,153.5l-1,1l-1,1l-1,0l0,-1c0,0,1,0,1,0l1,-1c0,0,1,0,1,-1l0,1ZM151.5,155.5l0,1c-1,0,-1,0,-1,0l-3,0l-3,0l-2,0l-1,0c0,0,0,-1,0,-1c0,-1,0,-1,0,-1c0,0,1,0,1,0l0,-1l2,0l3,0l3,0l0,1l1,0l0,1ZM151.5,141.5l0,1c0,0,-1,0,-1,0l-3,0l-3,0l-2,0c0,0,-1,0,-1,0l0,-1c0,0,0,-1,0,-1l1,0l2,0l3,0l3,0l1,0l0,1ZM150.5,144.5l0,-1c1,0,1,0,1,0c1,0,1,0,2,0c0,0,0,1,0,1l1,1l1,-1l1,1l0,1l0,1l0,1l0,1l0,1c0,0,0,1,0,1c-1,0,-1,0,-1,1l-1,-1l-1,1l-1,1l-1,0c-1,-1,-1,-1,-1,-1l-3,0l-3,0l-2,0l-1,0c0,1,0,1,0,1l-1,0l-1,-1l-1,0l0,-1l-1,1l0,-1l-1,0l0,-2l-1,-1c0,-1,0,-1,0,-1c1,0,1,-1,1,-1l0,-1c0,-1,1,-1,1,-1l1,1c0,0,0,-1,0,-1l1,0l0,-1c1,0,1,0,1,0c1,0,1,0,1,0l1,0l0,1l2,0l3,0ZM150.5,152.5c1,0,1,0,1,0l1,0l1,0l1,-1l1,0l1,-1l0,-1l0,-1c0,-1,0,-1,0,-2c0,0,0,-1,-1,-1l0,-1l-1,1l-1,-1l-1,-1l-1,0l-1,0l0,1l-3,0l-3,0l-2,0l-1,-1l-1,0c0,0,-1,0,-1,0l0,1l-1,0c0,1,0,1,0,1l-1,-1c0,0,0,1,-1,1l0,1l0,1l0,1l0,1l0,1c0,0,1,1,1,1l1,0l1,1l1,0c1,0,1,0,1,0c1,0,1,0,1,0l2,0l3,0l3,0ZM148.5,146.5l1,1c0,1,0,1,0,1l0,1l0,1c0,0,0,-1,-1,-2c-1,0,-1,0,-1,-1l0,-1c0,0,1,0,1,0ZM148.5,147.5l-1,0l1,0ZM146.5,146.5l0,1l-1,0l0,1l0,1c0,0,0,1,0,1l0,-1l-1,-1l0,-1l0,-1c0,0,1,1,1,1c1,0,1,-1,1,-1ZM143.5,146.5l0,1c0,0,0,1,0,1l0,1l0,1l0,-1c0,0,0,-1,-1,-2ZM136.5,143.5l1,0l0,-1l1,0l0,-1l1,0l1,0c0,1,0,1,0,1c0,0,-1,0,-1,0c0,0,-1,0,-1,0l0,1l-1,0ZM136.5,153.5l1,0l0,-1c0,1,1,1,1,1l1,1l1,0l0,1l-1,0c-1,-1,-1,-1,-2,-2l-1,0ZM209.5,150.5l0,-1l0,-1l0,-8l1,-3l0,11l0,1c0,1,-1,1,-1,1ZM201.5,149.5c1,0,1,0,1,0c1,0,1,0,1,-1c1,0,1,0,1,0l0,-1l0,-2l0,-6c-1,0,-1,0,-1,0c0,0,0,-1,0,-1l1,-1c0,0,0,1,0,1c1,0,1,0,1,0c0,0,0,1,0,1c0,0,0,1,0,1c0,0,0,1,0,2c0,0,0,1,0,2c0,1,0,1,0,2l0,1l0,1c0,0,0,1,0,1c0,0,-1,0,-1,0c0,0,0,1,0,1l-1,0c-1,0,-1,0,-1,0l-1,0c0,0,-1,0,-1,0c-1,0,-1,0,-1,0c0,0,-1,-1,-1,-1c-1,0,-1,0,-1,0l-1,0c0,1,0,1,-1,1l-1,0l-1,0l-10,0l0,1c0,0,0,1,0,2c0,0,-1,0,-1,-1c0,-1,0,-1,0,-1c0,0,0,-1,0,-1l-1,0c0,0,-1,0,-1,0c0,0,-1,0,-1,0c0,0,0,-1,0,-1c0,0,-1,1,-1,1c-1,0,-1,0,-2,0l-1,0c0,0,-1,0,-1,0c0,0,-1,0,-1,-1c0,1,0,1,-1,2c0,0,-1,0,-1,0c-1,-1,-2,-1,-2,-1l0,1c-1,0,-1,1,-2,1c0,0,-1,1,-2,1c-1,0,-2,0,-3,0l4,-2l1,0c1,-1,1,-1,2,-2l0,-1c1,-1,1,-1,1,-1c0,-1,1,-1,1,-1l1,0l1,1c0,1,1,1,1,1l1,1l1,0c0,0,1,0,1,0c0,-1,1,-1,1,-1c1,-1,1,-1,1,-1c0,0,0,1,0,1l1,0c0,1,1,1,1,1l1,0c1,0,1,0,1,-1c0,0,1,-1,1,-1l0,-1l0,-2l0,-1l-1,-3l0,-2l0,-1l1,0l1,1l-1,1c0,0,0,1,0,1l0,1l0,1l0,1l1,1l0,2l-1,0l0,1l2,-1l1,0l0,-1c1,0,1,0,2,-1c1,0,1,1,2,1c0,0,1,0,1,1l0,1c0,0,0,1,-1,1l0,1l-1,0l2,0l1,0l1,0c0,0,1,0,1,0l0,-1l1,0l0,-1c0,0,-1,0,-1,0c0,0,-1,0,-1,0l1,-2c0,0,1,0,1,-1c1,0,1,0,1,0l1,0l1,1c1,0,1,0,1,0c0,1,0,1,0,1l-1,1l0,1l1,1l1,0ZM202.5,132.5l1,0l1,0c0,0,1,0,1,0c1,0,1,0,1,1c0,0,-1,1,-1,1c-1,0,-1,1,-1,1c-1,0,-1,0,-1,0l-1,0l1,-1c1,0,2,0,2,-1l-1,0l-1,0l-1,0l-1,0c0,0,1,0,1,-1ZM196.5,137.5l5,-2l-1,1l-4,2ZM188.5,143.5l-2,-1l1,-2l1,1ZM191.5,147.5l-1,0c0,-1,0,-1,0,-1c-1,0,-1,0,-1,0c-1,0,-1,0,-2,1l-1,0l-1,1l-1,1l1,0c1,0,1,0,1,0c1,0,1,0,1,0l0,-1c1,0,1,0,1,0c1,0,2,0,3,-1ZM186.5,154.5l-4,2c0,-1,0,-1,0,-1l4,-2ZM180.5,154.5l-1,-1l-1,1l-2,-1l1,-1l2,0l0,-1l2,1ZM172.5,149.5l0,-1c-1,0,-1,0,-1,0c-1,0,-1,0,-1,0l1,1ZM171.5,156.5l-4,2c0,-1,0,-1,0,-1l4,-2ZM258.5,150.5l0,-1l0,-1l0,-8l1,-3l0,11l0,1c0,1,0,1,-1,1ZM251.5,149.5l1,0l0,-1c1,0,1,0,1,0l0,-1l0,-2l0,-6c0,0,0,-1,0,-1l0,-1c0,0,0,1,1,1l1,0c0,0,-1,1,-1,1c0,0,0,1,0,1c0,0,0,1,0,2c0,0,0,1,0,2c0,1,0,1,0,2l0,1l0,1c0,0,0,1,0,1l-1,0c0,0,0,1,0,1c-1,0,-1,0,-1,0c0,0,-1,0,-1,0l-1,0c0,0,-1,0,-1,0c0,0,-1,0,-1,0c0,0,-1,-1,-1,-1c0,0,-1,0,-1,0c-1,1,-1,1,-1,1c-1,0,-1,0,-1,0l-1,0l-1,0c0,1,0,1,0,1l-1,0c0,1,0,2,0,2c0,1,-1,1,-1,1c0,0,0,1,-1,1c0,0,0,1,-1,1c-1,0,-1,0,-1,0l-1,0c0,0,-1,0,-1,0c-1,0,-1,-1,-1,-1l1,0c1,0,1,0,2,0l1,-1l1,0c0,-1,0,-1,0,-1c1,0,1,-1,1,-1c0,0,0,-1,1,-1c0,-1,0,-1,0,-1c-1,0,-1,0,-1,-1c0,0,0,-1,0,-1l0,-1l1,0l0,1c1,1,1,1,1,1l1,0c1,0,1,0,1,0l0,-1l1,0c0,0,1,0,1,0l-1,-1c0,0,-1,0,-1,0l-1,0l1,-2c1,0,1,0,1,-1c1,0,1,0,1,0l1,0c0,0,1,0,1,0l0,1c1,0,1,0,1,0c0,1,0,1,0,1l0,1c-1,0,-1,0,-1,0l0,1l1,0l0,1l1,0ZM251.5,132.5l1,0c0,0,1,0,1,0c1,0,1,0,1,0c1,0,1,0,1,1c0,0,0,1,-1,1c0,0,0,1,-1,1c0,0,-1,0,-1,0l-1,0l2,-1c0,0,1,0,1,-1l-1,0c-1,0,-1,0,-2,0l0,-1ZM246.5,137.5l4,-2l0,1l-1,0l-4,2ZM236.5,140.5c0,-1,1,-1,1,-1c1,0,1,0,1,0c1,0,1,0,2,0c0,0,0,1,0,1c0,0,0,1,0,1c0,0,-1,0,-1,1c0,0,-1,0,-1,0l-1,0l-1,0l2,-1c1,0,1,0,2,-1c-1,0,-1,0,-1,0c0,0,-1,0,-1,0c0,0,-1,0,-1,0c0,0,-1,0,-1,1l0,-1ZM229.5,141.5l-1,0l1,-2l1,1ZM231.5,144.5l-1,-1l-1,1l-2,-1l1,-1l2,1l0,-2l2,1ZM219.5,157.5c-1,0,-1,0,-1,-1c0,0,-1,0,-1,0c0,-1,0,-1,0,-1c0,0,-1,-1,-1,-1c0,-1,0,-1,0,-1l1,-1l0,-1l0,-1l1,0l0,1l-1,1l0,1l1,1l0,1l1,0c0,0,1,0,1,0c1,0,1,0,2,0c0,0,1,0,1,0c0,0,1,0,1,0c1,0,1,0,1,-1c0,0,1,0,1,0l0,-1c0,0,0,-1,0,-1c0,-1,0,-1,0,-2c0,0,0,-1,0,-1l-1,0l1,-2l1,1c0,0,1,1,1,1l1,0l1,-1c1,0,1,0,1,-1l1,-1l-1,1l1,0l0,1l1,0l0,1c1,0,1,0,1,-1l-1,0l1,-2l0,1l0,1c0,1,0,1,0,1c0,1,0,1,0,1c0,0,-1,0,-1,0c-1,0,-1,0,-1,0l-1,0l0,-1l-1,0l0,1c-1,0,-1,0,-1,0c0,0,-1,0,-1,0l-1,0l0,2l0,1l0,1c0,0,-1,1,-1,1l0,1c-1,0,-1,0,-1,0c-1,1,-1,1,-2,1l-1,0l-1,0c-1,0,-1,0,-1,0l-1,0ZM226.5,158.5l-4,2c0,-1,1,-1,1,-1l4,-2ZM281.5,154.5c0,-1,0,-1,0,-1c0,0,1,0,1,1l1,0c0,0,1,-1,2,-1c1,0,1,-1,1,-1c1,-1,1,-1,2,-2l0,-1c0,0,0,-1,0,-1l0,-1l-1,0c0,-1,0,-1,0,-1l0,-1l1,0c0,0,1,1,1,2l0,1l0,1c0,0,0,1,0,1c0,1,0,1,0,1c-1,0,-1,0,-1,0c0,1,0,1,0,1c0,1,-1,1,-1,1c0,1,0,1,-1,1l-1,0c-1,0,-1,0,-1,0l-1,0c-1,0,-1,0,-1,0l-1,0ZM284.5,141.5l4,-3l0,1c-1,0,-1,1,-1,1l-4,2ZM273.5,155.5l-1,-1l1,-2l1,1ZM281.5,148.5c-1,1,-1,1,-2,1c-1,1,-2,1,-3,1c-1,1,-3,1,-4,1c-1,0,-2,0,-3,0c-1,-1,-2,-1,-3,-1c0,-1,0,-1,-1,-1c0,-1,0,-1,0,-1c0,0,0,-1,0,-1c0,-1,0,-1,1,-1c0,-1,0,-1,1,-2l0,1l-1,0c0,1,0,1,0,1c0,1,0,1,1,2l1,1c0,0,1,0,1,0l1,0l1,0l2,0c1,0,1,0,2,0l1,0l1,0l0,-1l1,0c1,0,1,0,2,0c0,-1,1,-1,1,-1l0,-1c0,0,-1,-1,-1,-1l0,-1c0,0,1,-1,1,-1c0,0,0,1,0,1c1,0,1,1,1,1l0,1c0,0,0,1,0,1c-1,1,-1,1,-1,1ZM272.5,140.5l0,1c0,0,1,0,1,0l0,-1l0,1c1,0,1,0,1,0l0,-1l0,-1l1,0l0,1l0,1c0,1,-1,1,-1,1l-1,0c-1,1,-1,1,-1,1c0,0,-1,0,-1,-1l0,-1l0,-1ZM273.5,135.5l0,-1c1,0,1,0,1,0c1,0,1,0,1,0c0,0,0,1,0,1c0,0,0,1,0,1c0,0,0,1,0,1l0,1l-1,0l-1,1l-1,0c0,1,-1,1,-1,1c1,-1,2,-2,2,-3l0,-1l0,-1ZM274.5,136.5l0,-1c-1,0,-1,0,-1,1l1,0ZM318.5,146.5l0,1c0,0,1,0,1,0c0,-1,-1,-1,-1,-1ZM318.5,154.5l0,1c-1,0,-1,0,-1,0c-1,0,-1,0,-2,0c0,0,-1,0,-2,0c0,0,0,-1,-1,-1c1,0,1,0,1,0c1,0,1,0,1,0c0,0,1,0,1,0l1,0l1,-1l1,0c0,-1,0,-1,1,-1c0,0,0,-1,0,-1c1,-1,1,-1,1,-2c0,0,-1,0,-1,0c0,0,-1,1,-1,1l0,-1l-1,0c0,-1,0,-1,0,-1c0,-1,0,-1,0,-1c0,-1,0,-1,0,-2c0,0,1,0,1,0c0,-1,0,-1,1,-1l0,1c1,0,1,0,1,0c0,1,0,1,0,1c0,1,0,1,0,1c1,1,1,1,1,2l-1,0c0,1,0,2,0,3c0,1,-1,1,-1,1c0,1,0,1,-1,1ZM315.5,141.5l5,-3l-1,1c0,0,0,1,0,1l-4,2ZM312.5,150.5l-1,0l-1,-1c-1,0,-1,0,-2,0c-1,0,-1,1,-1,1c0,0,-1,0,-1,0c0,0,-1,0,-1,0l-1,0l-1,0l-1,0c0,1,0,1,0,1c0,1,-1,1,-1,2l-1,1l0,1c-1,0,-1,0,-1,0c0,0,-1,0,-1,1l-1,0l-1,0c0,0,-1,0,-1,-1c-1,0,-1,0,-1,0l1,0c1,0,1,0,2,0c0,0,1,-1,1,-1c0,0,1,0,1,-1l1,0c0,-1,0,-1,0,-1c0,0,1,-1,1,-1c0,0,0,-1,0,-1c-1,0,-1,0,-1,0c0,0,-1,0,-1,0c-1,0,-1,0,-1,-1c0,0,0,-1,0,-1c0,0,0,-1,0,-1c0,0,1,0,1,0c0,-1,0,-1,0,-1c0,0,1,0,1,0c0,0,1,0,1,0c0,1,1,1,1,1l0,1l0,1c1,0,1,0,1,0c0,0,1,0,1,0c1,0,1,0,1,0c0,0,1,-1,1,-1l0,-1c0,-1,0,-1,0,-1l0,-1c0,0,1,0,1,0c0,-1,0,-1,0,-1c0,-1,0,-1,0,-1l1,0c0,0,0,-1,0,-1c1,0,1,1,2,1c1,1,1,1,1,2c1,0,1,1,1,1c1,0,1,1,1,1l0,1c0,1,0,1,0,1l-1,0c0,1,0,1,0,1ZM308.5,145.5c-1,1,-1,1,-1,1c0,1,0,1,0,1c0,0,1,0,1,0l1,0l0,-1c-1,-1,-1,-1,-1,-1ZM310.5,146.5c0,0,0,1,0,1l0,1l1,0l1,0l0,-1c-1,0,-1,0,-1,0c0,-1,0,-1,-1,-1ZM305.5,131.5l0,-1c1,0,1,0,1,0c0,0,1,0,1,0c0,0,0,1,0,1l0,1c0,0,0,1,0,1l0,1l-1,0l-1,1c0,0,-1,0,-1,0l-1,1c0,0,0,-1,0,-1l1,0c0,-1,0,-1,1,-1l0,-1c0,0,0,-1,0,-1c0,0,0,-1,0,-1ZM306.5,131.5c-1,0,-1,0,-1,0c0,0,0,1,0,1l1,0ZM300.5,147.5l-1,0c0,0,0,1,0,1l1,1c1,0,1,0,1,0c0,-1,0,-1,0,-1c-1,0,-1,0,-1,0c0,-1,0,-1,0,-1ZM296.5,141.5l4,-3l0,1c0,0,0,1,0,1l-4,2ZM242.5,86.5c0,-1,0,-1,0,-2c0,0,-1,-1,-1,-1l0,-1l1,0l0,1l0,1c0,0,0,1,0,1c0,1,0,1,0,1Z" class="g1_65" />
<path fill-rule="evenodd" d="M217.5,491.5c-1,0,-2,0,-3,-1l-1,1l1,1l0,1l0,1l0,1c0,1,0,1,0,1c0,1,-1,1,-2,2c0,0,-1,0,-2,0c0,0,-1,0,-1,0c-1,0,-2,0,-3,0c0,-1,-1,-1,-1,-2c0,-1,0,-1,0,-2l1,-1l0,-1l0,1l-1,1l-1,1c0,1,0,2,0,2c0,1,1,2,1,2c1,1,2,1,4,1c2,0,3,0,5,-2c0,0,1,-1,1,-2c0,0,0,-1,0,-1l0,-1l0,-1l1,0l1,0c1,0,1,0,1,0c0,0,1,0,1,0l0,-1c1,0,1,0,1,0l1,0c0,0,1,0,1,0c1,0,1,0,1,0c0,0,0,-1,0,-1c0,0,0,-1,0,-1c0,-1,0,-1,0,-1l1,-1l1,0c1,0,1,0,2,1l1,0l2,1l1,-2c-1,0,-1,-1,-2,-1l-1,0l-1,-1l-1,0l0,-1l-2,0c0,-1,-1,-1,-1,-1c0,0,-1,0,-2,1c-1,0,-1,1,-1,1l0,1l1,-1c0,0,1,0,1,0c0,0,1,0,1,0c0,0,1,0,1,1c0,0,1,0,1,0l-1,0c-1,0,-1,0,-2,1c-1,0,-1,0,-2,0l0,1l-1,0c0,0,0,1,0,1c0,1,-1,1,-2,1ZM208.5,479.5l1,-1l1,0c0,0,0,1,0,1c0,0,0,1,0,1c0,0,0,1,0,1l0,1l-1,0l-1,1l-1,0l0,1l-1,0l1,-1c0,0,1,-1,1,-1l1,-1l-1,0c0,0,0,-1,0,-1l0,-1ZM209.5,479.5c0,0,0,1,0,1ZM226.5,479.5c0,1,-1,1,-3,2c1,-1,1,-1,2,-1c0,0,0,-1,0,-1c-1,0,-1,0,-1,0c0,0,-1,0,-1,-1l1,0c1,0,1,0,1,0c1,0,1,1,1,1ZM239.5,479.5c0,0,0,1,0,1l-4,2c0,-1,0,-1,0,-1c0,0,1,0,1,0ZM250.5,474.5c0,0,0,1,0,1l-3,2c0,-1,0,-1,0,-1ZM216.5,484.5l0,-1c0,0,0,-1,0,-1c0,-1,0,-2,0,-2l0,-1c0,0,1,0,1,1c0,0,0,1,0,1l0,1c0,0,0,1,0,1l-1,1ZM236.5,484.5l0,1l1,0l0,-1l0,-1l1,0l0,1c0,0,0,1,1,1c0,0,0,-1,0,-1l0,-1l1,-1l0,1l0,1l0,1c-1,0,-1,1,-1,1l-1,0l-1,0c0,1,-1,1,-1,1l-1,-1c0,-1,0,-1,0,-1l0,-1ZM249.5,479.5l-1,2c0,0,0,1,0,1l0,1l0,1l0,1l0,1l1,3c0,1,0,2,0,2l0,2l1,0c0,-1,0,-2,0,-3l0,-2l0,-1ZM241.5,493.5c1,0,1,0,2,0c1,0,1,0,1,-1c1,0,1,-1,1,-1c0,-1,0,-2,0,-2c0,-1,0,-1,0,-1l0,-1l0,-3l-1,-1l0,-1c0,-1,0,-1,1,-2l0,-1l-1,-1l-1,1c0,1,0,2,0,3l1,5c0,1,0,2,0,3c0,1,0,1,0,1c-1,0,-1,0,-1,0l-2,0c-1,0,-1,0,-1,0c-1,0,-1,0,-1,-1l-1,2c1,1,1,1,1,2c0,1,-1,2,-2,3c-1,1,-2,1,-3,1l-1,0c-1,0,-1,0,-1,0c0,1,0,1,1,1c1,0,1,0,1,1l1,0c1,0,1,-1,2,-1c1,-1,1,-1,2,-3l0,-1l1,-1l0,-1l1,0ZM223.5,491.5c-1,0,-1,0,-2,0c-1,-1,-1,-1,-1,-1c0,0,0,-1,0,-1c1,0,1,0,2,1c1,0,1,1,1,1ZM208.5,487.5l1,1l1,0l0,-1l1,0c-1,0,-1,-1,-1,-1c0,0,-1,0,-1,-1l-1,1Z" class="g2_65" />
</svg>