<?xml version="1.0" encoding="UTF-8" standalone="no"?>
<!DOCTYPE svg PUBLIC "-//W3C//DTD SVG 1.1//EN"
"http://www.w3.org/Graphics/SVG/1.1/DTD/svg11.dtd">
<svg version="1.1" xmlns="http://www.w3.org/2000/svg" xmlns:xlink="http://www.w3.org/1999/xlink">
<defs>
<style type="text/css"><![CDATA[
.g1_39{
stroke: #1F1A17;
stroke-width: 1;
stroke-linecap: butt;
stroke-linejoin: miter;
}
]]></style>
</defs>
<path fill-rule="evenodd" d="M262.5,405.5l0,-1l0,-1l-1,-9l1,-2l1,10c0,1,0,1,0,1l-1,1c0,0,0,1,0,1ZM75.5,587.5l-1,0c1,0,1,0,1,0c0,1,0,1,0,1c0,0,1,0,1,0l0,-1c0,0,-1,0,-1,0ZM75.5,595.5c-1,0,-1,0,-1,0c-1,0,-1,1,-2,1c-1,0,-1,-1,-2,-1l-1,0c1,-1,1,-1,1,-1c0,0,0,1,0,1c1,0,1,0,1,0c0,0,1,0,1,0l0,-1c1,0,1,0,1,0l1,0c0,0,0,-1,1,-1c0,0,0,-1,0,-1c1,0,1,0,1,-1c1,-1,1,-1,1,-1c0,0,0,-1,0,-1c0,0,-1,0,-1,0l0,1c0,0,-1,0,-1,0l-1,0l0,-1l0,-1l0,-1c0,0,0,-1,0,-1c0,-1,1,-1,1,-1l1,0c1,0,1,0,1,1l0,1l0,1c0,0,1,1,1,1l0,1c0,0,-1,0,-1,0c0,1,0,2,0,3c0,0,-1,0,-1,1l-1,1ZM72.5,581.5l5,-2l-1,1l-4,2ZM69.5,590.5c-1,0,-1,0,-1,0l-1,0l-1,0l-1,-1l0,1l0,1l-1,0l-1,0l-2,0c0,0,0,1,0,1c0,0,0,1,0,1c0,0,0,1,0,2c0,0,-1,1,-1,1c-1,1,-2,1,-2,1c-1,1,-2,1,-3,1c0,0,-1,0,-1,-1c-1,0,-2,0,-2,0c0,-1,-1,-1,-1,-1c0,-1,0,-2,0,-2c0,0,0,-1,0,-1c0,0,0,-1,0,-1c0,0,0,-1,0,-1l1,0l0,-1l1,0c-1,0,-1,1,-1,1c0,0,0,1,0,1c0,1,0,1,0,1c0,1,0,1,0,1c0,0,0,1,1,1c1,1,2,1,3,1c1,0,1,0,2,-1c1,0,2,0,2,-1c0,0,0,-1,0,-1c0,0,0,-1,0,-1c0,0,0,-1,0,-1c0,-1,0,-1,0,-1l-1,0l1,-2l0,1c1,0,1,0,2,0l1,0l1,0l1,0l0,-1l1,-1c0,0,0,-1,1,-1c0,0,0,-1,1,-1c0,0,0,1,1,1c0,0,0,1,0,1l0,1l0,1c0,1,0,1,0,1ZM67.5,588.5l1,0c0,-1,0,-1,-1,-1c0,1,0,1,0,1ZM68.5,594.5l-5,2c1,-1,1,-1,1,-1l4,-2ZM56.5,588.5l-1,-1l1,-1l1,1ZM121.5,587.5c0,1,0,1,0,1c0,0,1,0,1,0l0,-1c0,0,-1,0,-1,0ZM121.5,595.5c-1,0,-1,0,-1,0c-1,0,-1,1,-2,1c0,0,-1,-1,-2,-1l-1,0c1,-1,1,-1,1,-1c0,0,0,1,0,1c1,0,1,0,1,0c0,0,1,0,1,0l1,-1c0,0,1,0,1,0c0,0,0,-1,1,-1c0,0,0,-1,1,-1l0,-1c1,-1,1,-1,1,-1c0,0,0,-1,0,-1c0,0,-1,0,-1,0l0,1c0,0,-1,0,-1,0l-1,0l0,-1l0,-1l0,-1c0,0,0,-1,0,-1c0,-1,1,-1,1,-1l1,0c1,0,1,0,1,1l0,1l0,1c1,0,1,1,1,1l0,1l-1,0c0,1,0,2,0,3c0,0,-1,0,-1,1l-1,1ZM118.5,581.5l5,-2l-1,1l-4,2ZM109.5,586.5l-2,0l1,-2l2,1ZM107.5,590.5c0,0,0,-1,0,-1c1,0,1,0,1,0c0,0,1,0,1,0c0,0,0,-1,0,-1c1,0,1,1,1,1c0,0,1,0,1,0l0,1l0,1l-1,-1c-1,0,-1,0,-1,0c0,0,-1,0,-1,0l-1,0c0,1,0,1,0,1l-1,0l0,1c0,1,1,2,1,2l0,1l0,1c-1,0,-1,0,-1,0l-1,0l0,-1l0,-1c0,0,-1,-1,-1,-2c0,0,1,-1,1,-1c-1,0,-1,0,-2,0l-1,0l-1,0l0,1c0,1,-1,1,-1,2l0,1c-1,0,-1,0,-1,0c-1,1,-1,1,-1,1c-1,0,-1,0,-1,0c0,0,-1,0,-1,0l-1,0l-1,0c0,0,-1,0,-1,0l0,-1c0,0,1,0,1,1l1,0c0,0,1,-1,1,-1c0,0,1,0,1,0c1,-1,1,-1,1,-1c0,0,1,0,1,-1l0,-1c1,0,1,0,1,-1c0,0,0,-1,0,-1c-1,0,-1,-1,-1,-1l1,-1l0,1l1,0l1,0l1,0c1,0,2,0,2,0l1,-1c1,0,1,0,1,0c0,0,0,1,0,1c0,0,-1,0,-1,0c0,1,-1,2,-1,3c0,1,0,1,1,2c0,0,0,-1,0,-1c0,-1,0,-1,0,-1l0,-1c0,0,0,-1,1,-1ZM53.5,577.5c0,0,1,0,1,-1c1,0,1,0,1,0c1,0,1,0,2,1c0,1,0,1,0,1c0,1,-1,1,-1,1l-1,0l-1,0l-1,0l2,0c1,-1,1,-1,2,-1c-1,0,-1,0,-1,0c0,0,-1,-1,-1,-1c0,0,-1,1,-1,1c0,0,-1,0,-1,0c0,0,0,-1,0,-1ZM107.5,576.5l1,0c0,0,1,0,1,0c1,0,1,0,2,0l0,1c0,0,0,1,0,1c-1,0,-1,0,-1,0c0,0,0,1,0,1c-1,0,-1,0,-1,0c0,0,-1,0,-1,0c0,0,-1,0,-1,0l2,-1c0,0,1,0,1,-1c-1,0,-1,0,-1,0c-1,0,-1,0,-1,0c-1,0,-1,0,-1,0l0,-1ZM101.5,583.5l0,-1c0,0,0,-1,0,-1c0,-1,0,-1,0,-2l0,-1c0,0,0,1,1,1c0,1,0,1,0,1l0,1c0,1,0,1,0,1c0,0,-1,1,-1,1ZM94.5,577.5l5,-2c0,1,-1,1,-1,1l-5,3ZM96.5,574.5l5,-2c-1,0,-1,1,-1,1l-5,2ZM92.5,591.5l0,-1l0,-2l0,-8l1,-2l0,10c0,1,0,1,0,1l0,1c0,0,0,1,-1,1ZM162.5,594.5l1,0c1,0,2,0,3,-1c0,0,1,0,1,-1c1,0,1,-1,2,-1c0,-1,0,-1,0,-1c0,0,0,-1,0,-1l0,-1l-1,0l0,-1l0,-1l1,-1l0,1l1,1l0,1l0,1c0,0,0,1,0,1c0,1,0,1,0,1c0,0,-1,0,-1,0c0,0,0,1,0,1c0,0,0,1,0,1c-1,0,-1,0,-1,1c0,0,-1,0,-1,0l-1,1c-1,0,-1,0,-1,0l-1,0l-1,0c0,0,0,-1,-1,-1ZM165.5,581.5l4,-2l-1,1l-4,2ZM160.5,587.5c-1,0,-1,0,-1,0c1,1,1,1,1,1c1,0,1,0,1,-1c-1,0,-1,0,-1,0ZM160.5,595.5l-1,0c-1,0,-1,1,-2,1c-1,0,-1,-1,-2,-1l-1,0c0,-1,0,-1,0,-1c1,0,1,1,1,1c0,0,1,0,1,0l1,0l0,-1c0,0,1,0,1,0l1,0c0,0,0,-1,1,-1c0,0,0,-1,0,-1c0,0,1,0,1,-1c0,-1,1,-1,1,-1c0,0,-1,-1,-1,-1l0,1c-1,0,-1,0,-1,0c-1,0,-1,0,-1,0l0,-1l-1,0l0,-1l0,-1l1,0c0,0,0,-1,0,-1c0,-1,0,-1,1,-1c1,0,1,0,1,0c0,0,1,0,1,1l0,1l0,1c0,0,0,1,0,1l0,1c0,1,0,2,0,3c-1,0,-1,0,-1,1c0,0,-1,0,-1,1ZM157.5,581.5l4,-2l0,1l-4,2ZM148.5,588.5l0,-1l1,-1l0,1l0,1c0,0,0,1,0,1c0,0,1,0,1,0l1,0c0,0,0,-1,-1,-1l1,-1c0,0,1,1,1,1c0,0,0,1,0,1c-1,0,-1,1,-1,1l0,1c0,0,-1,0,-1,0c0,0,-1,0,-1,-1c0,0,-1,0,-1,0l-1,0c0,1,0,1,0,1c-1,0,-1,0,-1,0l-1,0l-1,0c0,-1,-1,-1,-1,-1l0,-1l-1,0c-1,0,-1,1,-1,1l-1,0l0,1l1,0c0,1,0,1,1,1c1,0,1,0,1,0c0,0,1,0,1,0c0,0,0,1,0,1c0,0,0,1,0,1l-1,0c0,1,0,1,0,1c-1,1,-2,1,-3,2c-1,0,-2,0,-4,0c-1,0,-1,0,-2,0c-1,0,-1,-1,-2,-1c0,0,0,-1,0,-1c-1,-1,-1,-1,-1,-2c0,-1,0,-1,1,-2c0,-1,0,-1,1,-2c0,1,0,1,0,2c-1,0,-1,1,-1,1c0,1,1,2,1,2c1,1,2,1,3,1l1,0c1,0,1,0,1,0c0,0,1,0,1,0c0,0,1,0,1,0l1,0l0,-1c1,0,1,0,1,0c0,0,1,0,1,0c-1,0,-1,0,-2,-1c-1,0,-2,0,-2,0c0,0,0,-1,0,-1c0,0,0,-1,0,-1c0,-1,0,-1,0,-1c1,-1,1,-1,1,-1c0,0,0,-1,1,-1c1,0,1,0,1,-1c0,0,1,0,1,0c0,0,1,0,1,0l0,1c0,0,0,1,1,1l1,0c1,0,1,0,1,0c0,-1,1,-1,1,-1ZM150.5,594.5l-5,2c1,0,1,-1,1,-1l4,-2ZM134.5,581.5l4,-2l0,1l-4,2ZM196.5,581.5l-1,-1l0,-1l2,1ZM198.5,589.5c0,1,0,1,0,1c-1,0,-1,0,-2,1c-1,0,-1,0,-2,0l-1,0l-1,0c-1,0,-1,0,-1,0c0,0,0,-1,0,-1c-1,0,-1,0,-1,0c0,0,-1,0,-1,0c-1,0,-1,0,-1,0l0,1c0,0,-1,0,-1,0l0,1c0,1,0,2,0,2l1,1l-1,1l-1,0l0,-1l-1,-1c0,0,0,-1,0,-2c0,0,0,-1,0,-1c0,0,-1,0,-1,0l-1,0l-1,0c-1,0,-2,0,-2,-1c-1,0,-1,-1,-1,-2l-1,-8l1,-2l1,9l0,1c1,1,1,1,2,1l1,0l1,0c1,0,1,0,2,0l1,-1c0,0,0,1,0,1c-1,1,-1,2,-1,3c0,1,0,1,0,2c0,0,0,-1,0,-1c0,-1,0,-1,0,-1l1,-1c0,0,0,-1,0,-1l1,0l0,-1c1,0,1,0,1,0c0,-1,0,-1,0,-1c1,0,1,0,1,0l1,0c0,0,0,1,0,1l1,0l1,0l1,0c1,0,1,0,2,0c1,0,1,0,2,-1l0,-1l0,-1c0,1,0,1,-1,1c0,0,-1,1,-1,1c0,0,0,-1,-1,-1c0,-1,-1,-1,-1,-1c0,-1,1,-1,1,-1l0,-1c0,-1,0,-1,0,-1c1,-1,1,-1,2,-1l1,1l0,1l0,1l1,1c0,0,0,1,0,1c0,1,0,1,0,1c0,1,0,1,-1,1ZM195.5,585.5l1,0l1,0l0,-1c0,0,-1,0,-1,0ZM198.5,594.5l-4,2c0,-1,1,-1,1,-1l4,-2ZM192.5,594.5l-1,-1l-1,1l-1,0l0,-2l2,1l1,-1l1,1ZM181.5,581.5l5,-2l-1,1l-4,2ZM246.5,587.5l-1,0c0,1,1,1,1,1c0,0,1,0,1,-1c-1,0,-1,0,-1,0ZM246.5,595.5l-1,0c-1,0,-1,1,-2,1c-1,0,-1,-1,-2,-1c0,0,-1,0,-1,0c0,-1,0,-1,0,-1c0,0,1,1,1,1l1,0c1,0,1,0,1,-1l1,0c1,0,1,-1,1,-1c1,0,1,-1,1,-1c0,0,1,0,1,-1c0,-1,0,-1,0,-1c0,0,0,-1,0,-1l0,1c0,0,-1,0,-1,0l-1,0l0,-1c-1,0,-1,0,-1,0l0,-1l0,-1c0,0,1,-1,1,-1c0,-1,0,-1,1,-1c1,0,1,0,1,0l1,1l0,1l0,1c0,0,0,1,0,1l0,1c0,1,0,2,-1,3l0,1c-1,0,-1,0,-1,1ZM243.5,581.5l4,-2l0,1l-4,2ZM232.5,594.5l-1,-1l0,-1l2,1ZM240.5,588.5l-1,0l-1,0c-1,0,-1,0,-2,0l-1,0l-1,1l-1,0l-1,0c0,1,0,1,-1,1l-1,0c-1,1,-1,1,-2,1l-1,0c0,0,-1,0,-1,0c-1,-1,-1,-1,-1,-1c0,0,-1,0,-1,-1c-1,0,-1,0,-1,1l-1,0l-1,0l0,1l-1,0l-1,0c-1,0,-1,0,-1,-1c-1,0,-1,0,-1,-1l0,1l0,1c0,1,-1,1,-1,2c0,0,0,1,-1,1c0,1,0,1,-1,1l-1,0c0,1,0,1,-1,1c0,0,-1,0,-1,0l-1,0c0,0,-1,0,-1,0c-1,0,-1,-1,-1,-1c-1,0,-1,-1,-1,-1c0,0,0,-1,0,-1c0,-1,0,-2,0,-2c0,-1,0,-1,0,-1l1,-1l0,-1l1,0l-1,1c0,1,0,1,0,1c0,1,0,1,0,1c0,1,0,2,0,2c1,1,1,1,2,1c0,0,1,0,1,0c1,0,2,0,3,-1c1,0,1,0,2,-1c0,0,0,-1,0,-1l0,-3l0,-1c0,-1,0,-1,0,-1l-1,-7l1,-2l1,10c0,1,0,1,0,1c0,1,1,1,1,1l1,0l1,0c0,0,1,0,1,0l1,0l0,-1c0,-1,-1,-1,-1,-1c0,0,-1,0,-1,0l1,-2c0,0,1,0,1,0c1,0,1,0,1,0l1,0l1,0c0,0,0,1,0,1c1,0,1,0,1,0c0,1,0,1,0,1l-1,0c0,0,0,1,0,1l0,1l1,0l1,0l1,0c0,0,1,0,1,0c0,0,1,0,1,0c1,0,1,-1,2,-1l1,0l1,0l-1,-1l-1,0l-1,-1l-1,0l-1,0l0,1c0,-1,0,-1,0,-2c0,0,1,0,1,0c0,0,1,0,1,0c1,0,1,0,1,0l1,0l2,1l1,0l1,0c0,1,0,1,1,1c0,0,1,0,1,0l1,0ZM231.5,578.5l4,-2l-1,1l-4,2ZM222.5,578.5l5,-2l-1,0l0,1l-4,2ZM213.5,575.5l6,-3c-1,1,-1,1,-1,1l-5,3ZM300.5,591.5l0,-1l0,-2l0,-8l1,-2l0,10c0,1,0,1,0,1l0,1c0,0,-1,1,-1,1ZM285.5,572.5l4,-2l0,1l-1,0l-4,2ZM295.5,573.5l1,-1l1,0l1,1c0,0,0,1,0,1c-1,0,-1,0,-1,0l0,1c-1,0,-1,0,-1,0l-1,0l1,-1c1,0,1,0,2,0c-1,-1,-1,-1,-1,-1l-1,0l-1,0c0,0,0,1,0,1l0,-1ZM275.5,594.5c1,0,1,0,1,0l1,0c1,0,1,0,2,-1c1,0,1,0,2,-1c0,0,1,-1,1,-1c0,-1,0,-1,0,-1c0,0,0,-1,0,-1l0,-1l0,-1l-1,0l1,-1l0,-1l0,1c1,0,1,0,1,1l0,1l0,1c0,0,0,1,0,1c0,1,0,1,0,1c0,0,0,1,0,1c-1,0,-1,1,-1,1l-1,1l-1,0l0,1c-1,0,-1,0,-1,0c0,0,-1,0,-1,0l-1,0l-1,0c0,0,0,-1,0,-1l-1,0ZM341.5,576.5c0,-1,1,-1,1,-1c0,0,1,0,1,0c1,0,1,0,2,0c0,0,0,1,0,1c0,0,0,1,0,1c-1,0,-1,0,-1,1c-1,0,-1,0,-1,0l-1,0c0,0,-1,0,-1,0l2,-1c1,0,1,0,1,0c0,-1,0,-1,0,-1c-1,0,-1,0,-1,0c-1,0,-1,0,-1,0c-1,0,-1,1,-1,1l0,-1ZM188.5,576.5c0,0,1,0,1,0c0,0,1,0,1,0c1,0,1,0,2,0l0,1l0,1c-1,0,-1,0,-1,0c0,0,-1,0,-1,0l-1,0c0,0,-1,0,-1,0l2,0c1,0,1,-1,1,-1c-1,0,-1,0,-1,0c-1,0,-1,0,-1,0c-1,0,-1,0,-1,0l0,-1ZM277.5,580.5c0,0,1,0,1,0c0,-1,1,-1,1,-1c1,0,1,0,2,1c0,1,0,1,0,1c-1,1,-1,1,-1,1c0,0,-1,0,-1,0l-1,0l-1,0l2,0c1,0,1,-1,2,-1c-1,0,-1,0,-1,0c-1,0,-1,0,-1,0c0,0,-1,0,-1,0c0,0,-1,0,-1,0c0,0,0,-1,0,-1ZM268.5,584.5l-1,-1l1,-2l1,1ZM266.5,591.5l0,1c-1,0,-1,1,-1,1l0,-1l0,-1l-1,0c0,0,0,1,0,1c0,0,0,1,0,1c0,0,0,1,-1,1c0,1,0,1,0,2c0,0,-1,0,-1,0c0,1,-1,1,-1,1c-1,0,-1,0,-2,1c-1,0,-1,0,-1,0c-1,0,-2,0,-2,0c-1,-1,-1,-1,-2,-1c0,-1,0,-1,-1,-1c0,-1,0,-1,0,-2c0,-1,0,-1,0,-1c0,0,0,-1,0,-1l1,0c0,-1,0,-2,1,-2c0,1,-1,1,-1,2l0,1c0,0,0,1,0,1c1,1,1,1,1,1c1,1,1,1,2,1c1,0,1,0,1,0c1,0,1,0,2,0c0,0,1,-1,1,-1c1,0,1,-1,2,-1c0,-1,0,-1,0,-2c0,0,0,-1,0,-1c0,-1,0,-1,-1,-1l1,-2c1,1,1,1,1,1l2,0l1,-1l2,-1l1,-1l1,0c0,-1,1,-1,1,-1c0,0,1,0,1,0c0,0,1,0,1,0l1,0c0,1,0,1,0,1l1,1l0,1c0,0,-1,0,-1,1c-1,1,-1,1,-2,1l-1,1c0,0,-1,0,-1,0l-2,0l-1,0l-1,0ZM271.5,587.5c-1,0,-1,0,-1,0l0,1l-1,0l-1,1l-1,0l3,0l1,0c1,0,1,0,2,0c0,0,1,-1,1,-1c0,-1,0,-1,0,-1l-1,0l-1,0l-1,0ZM256.5,581.5l4,-2l0,1l-4,2ZM326.5,590.5l-1,0c0,0,-1,0,-1,0l-1,-1l0,1c0,0,-1,0,-1,1l-1,0l-1,0l-1,0c0,0,-1,0,-1,0c0,0,0,-1,0,-1l-1,0l0,-1c-1,0,-1,0,-1,1c-1,0,-1,0,-2,1c0,0,-1,0,-1,0l-1,0c-1,-1,-1,-1,-1,-1c0,0,-1,0,-1,-1l0,-1l1,0l0,-1c0,1,0,1,0,1l1,1l1,0l1,0c1,0,1,0,1,0l1,-1l1,0c0,-1,0,-1,0,-2l-1,-2l0,-1l1,-2l0,2c0,0,0,1,0,2l1,2c0,0,0,1,0,1c0,0,0,1,0,1c0,0,1,0,1,0l1,0l1,0c1,0,1,0,1,0l1,-1l0,-1c1,0,1,-1,1,-1l1,0c0,0,0,-1,0,-1c1,0,1,1,1,1c1,0,1,1,1,1l0,1l0,1c0,1,0,1,-1,1ZM324.5,588.5l1,0l1,0c0,-1,-1,-1,-1,-1c0,0,-1,0,-1,0c0,1,0,1,0,1ZM322.5,578.5l4,-2l-1,0l0,1l-4,2ZM313.5,577.5l0,1l1,0l0,-1l0,-1l1,0l0,1c0,0,0,1,0,1c1,0,1,-1,1,-1l0,-1c0,1,0,1,0,1l0,1l0,1l-1,0l0,-1l-1,1l-1,0l0,-1l0,-1ZM317.5,574.5l-5,3c0,-1,0,-1,0,-1l6,-3ZM369.5,591.5l0,-1l0,-2l-1,-8l1,-2l1,10c0,1,0,1,0,1l0,1c-1,0,-1,1,-1,1ZM362.5,592.5c0,0,0,-1,0,-1l0,1c0,0,0,-1,-1,-1c0,-1,0,-1,-1,-1c0,-1,0,-1,0,-1c-1,0,-1,1,-1,1c-1,0,-1,0,-2,0c0,1,-1,1,-1,1c-1,0,-1,0,-1,0c-1,-1,-1,-1,-2,-2l0,-1c1,0,1,0,1,-1c0,1,0,1,0,1c1,0,1,1,1,1c0,0,1,0,1,0c1,0,1,0,1,0c0,0,1,0,1,0c0,-1,1,-1,1,-1l1,0c0,-1,0,-1,0,-2c0,0,-1,-1,-1,-2l0,-1c1,-1,1,-1,1,-2l0,2c0,0,0,1,0,1c1,1,1,2,1,3c0,0,0,1,0,1c0,0,0,1,0,1c1,0,1,1,1,1c0,0,1,0,1,1l1,0l0,-1c0,0,0,-1,0,-2c0,-1,0,-2,0,-2c0,-1,0,-1,0,-1c0,-1,0,-2,0,-3c0,-1,0,-2,0,-3l-1,0c0,-1,1,-1,1,-1c0,-1,0,-1,0,-1c0,1,0,1,1,1l1,1l-1,1c0,1,0,1,0,2c0,0,0,1,0,3c0,0,0,1,0,1c0,0,0,1,0,1c0,2,0,2,0,2c0,1,0,1,0,1c0,0,0,1,0,1c0,1,0,1,0,1c0,0,-1,0,-1,0c-1,0,-1,0,-2,0ZM363.5,573.5l0,1c0,0,1,0,1,0c0,0,0,-1,0,-1l1,0l0,-1l0,1l1,0l0,-1l0,-1l0,1l0,1l0,1l-1,0l-1,1c-1,0,-1,0,-1,0l0,-1l0,-1ZM367.5,570.5l-5,3c0,-1,0,-2,0,-2l6,-2ZM359.5,580.5l-2,-1l1,-1l1,1ZM357.5,594.5l-4,2c0,-1,0,-1,0,-1l4,-2ZM350.5,584.5c-1,0,-1,0,-1,0c-1,0,-1,0,-1,0c-1,0,-1,1,-2,1c-1,1,-1,1,-1,2l1,1l1,0l1,0c1,0,1,1,1,1c0,0,1,0,1,0c0,1,0,1,0,1l-1,0c0,1,0,1,0,1c0,0,0,1,-1,1c0,0,-1,1,-2,1c-1,0,-1,1,-2,1c-1,0,-1,0,-2,0l-1,0c-1,0,-1,0,-2,0c0,0,-1,0,-1,-1c-1,0,-1,0,-1,-1c0,0,0,-1,0,-1c-1,0,-1,-1,-1,-1l1,0c0,-1,0,-1,0,-2c0,0,0,-1,1,-2l1,-1l0,1c-1,0,-1,1,-1,1l0,1c0,1,-1,1,-1,1c0,1,1,1,1,1c0,1,0,1,0,1c1,1,2,1,4,1c1,0,2,0,3,0l1,-1l1,0l1,0c0,0,0,-1,0,-1c1,0,1,0,1,0l-2,0c-1,0,-2,-1,-2,-1c-1,0,-1,-1,-1,-1c0,0,0,-1,0,-1c0,0,0,-1,0,-1c1,0,1,-1,1,-1c0,0,0,-1,0,-1l1,0c0,0,0,-1,1,-1c0,0,1,0,1,-1c0,0,1,0,1,0c0,0,1,0,1,0l0,1c0,0,0,1,0,1ZM401.5,587.5c0,0,-1,0,-1,0c0,1,0,1,1,1l0,-1ZM401.5,595.5c0,0,-1,0,-1,0l-1,0c0,0,-1,1,-1,1l-1,0c0,0,-1,-1,-1,-1c0,0,-1,0,-1,0c0,-1,0,-1,0,-1c0,0,1,1,1,1l1,0c1,0,1,0,1,-1c1,0,1,0,1,0c1,0,1,-1,1,-1c1,0,1,-1,1,-1l1,-1c0,-1,0,-1,0,-1c0,0,0,-1,0,-1l0,1l-1,0c0,0,-1,0,-1,0l-1,-1l0,-1l0,-1c0,0,1,-1,1,-1c0,-1,0,-1,0,-1c1,0,1,0,1,0c0,0,1,0,1,0l0,1c1,0,1,0,1,1l0,1c0,0,0,1,0,1l0,1c0,1,0,2,-1,3l0,1c-1,0,-1,0,-1,1ZM398.5,581.5l4,-2l0,1l-4,2ZM394.5,590.5c0,0,-1,0,-2,0l-1,-1c-1,0,-1,1,-1,1l-1,0c-1,0,-1,1,-1,1c-1,0,-1,0,-1,0l-1,0l-2,0c0,0,0,1,0,1c0,0,0,1,0,1c-1,0,-1,1,-1,1c0,0,-1,1,-1,1l-1,1c-1,0,-1,0,-1,0c0,0,-1,0,-1,0c-1,0,-1,0,-2,0l-1,-1c1,0,1,0,1,0c0,0,1,0,1,0c0,0,1,0,1,0c1,0,1,0,1,-1c1,0,1,0,1,0c1,0,1,-1,1,-1c0,0,1,0,1,-1l0,-1c0,0,-1,0,-1,0c0,0,-1,0,-1,-1c0,0,0,-1,0,-1c0,0,0,-1,0,-1c0,-1,0,-1,0,-1c1,0,1,-1,1,-1l1,0c0,0,1,0,1,1c0,1,0,1,0,1c0,0,0,1,0,1c1,0,1,0,2,0c1,0,1,0,1,0l1,0c0,0,1,0,1,0c0,-1,-1,-1,-1,-1c0,-1,1,-1,1,-1c0,0,0,-1,0,-1l0,-1l1,0c0,-1,0,-1,0,-1c0,-1,0,-1,0,-1c0,0,1,0,1,0c0,0,1,0,2,1c0,0,1,1,1,1c0,1,1,1,1,2c0,1,0,1,0,1l0,1c0,0,0,1,0,1c0,0,-1,0,-1,0ZM391.5,586.5c0,0,-1,0,-1,0c-1,1,-1,1,-1,1c0,0,1,0,1,0c0,0,0,1,0,1c1,0,1,0,1,-1c0,-1,0,-1,0,-1ZM392.5,586.5l0,1c0,1,0,1,0,1l2,1l0,-1c0,0,0,-1,-1,-1c0,-1,-1,-1,-1,-1ZM387.5,572.5c0,-1,1,-1,1,-1c0,-1,0,-1,1,-1c0,1,1,1,1,1c0,1,-1,1,-1,1l0,1l1,0l0,2l-2,-1l0,1c-1,0,-1,1,-1,1l-1,0l-1,0l1,-1c1,0,1,0,1,-1l1,0l-1,-1l0,-1ZM388.5,572.5l0,-1c0,0,0,1,0,1l0,1l1,0l0,-1ZM382.5,588.5l-1,0c0,0,1,1,1,1c0,0,1,0,1,0c0,-1,0,-1,0,-1c0,0,-1,0,-1,0ZM379.5,581.5l4,-2l0,1c-1,0,-1,0,-1,0l-4,2ZM154.5,590.5l0,-1l0,-1l-1,-8l1,-3l1,11l0,1c-1,1,-1,1,-1,1ZM295.5,592.5c0,1,-1,1,-1,1c-1,0,-1,0,-1,0c0,0,-1,0,-2,0c0,0,-1,0,-1,0c0,-1,0,-1,0,-1l0,-1l1,0c1,0,1,0,1,0c0,-1,0,-1,1,-1l0,-1l1,0c-1,0,-1,-1,-1,-1c0,0,-1,-1,-1,-1c0,0,-1,-1,-1,-1c0,-1,-1,-1,-2,-2l0,-1c-1,0,-1,0,-1,0c0,0,-1,0,-1,0c-1,0,-1,-1,-1,-1c0,0,0,-1,0,-1l0,-1c0,0,0,-1,0,-1c1,1,1,1,2,1c0,1,1,1,1,2c1,0,2,1,2,2c1,0,1,1,2,2c0,0,0,1,1,1c0,0,0,1,0,1c0,0,0,-1,0,-2c1,0,1,-1,1,-1c0,-1,0,-2,0,-2c0,0,0,-1,0,-1c0,-1,0,-2,0,-2c0,0,0,-1,0,-1l0,-1c1,0,1,0,1,0c0,1,0,1,0,1l1,0c0,1,0,1,-1,1c0,0,0,1,0,1c0,1,0,1,0,2c0,0,0,1,0,1c0,1,0,1,0,1c-1,1,-1,2,-1,2c0,1,0,1,0,2l0,1c0,0,0,1,0,1c0,0,0,1,0,1ZM294.5,590.5c-1,0,-1,1,-1,1c1,0,1,0,1,0l1,0c-1,0,-1,-1,-1,-1ZM82.5,590.5l0,-1l1,0c0,0,0,-1,0,-1l0,-1l0,-1l0,-1l-1,-1c0,0,0,-1,1,-1l0,1l0,1l0,1l0,1l0,1l1,0l0,-1l1,0l1,0c1,0,1,0,1,1l0,1c-1,0,-1,0,-1,0c-1,0,-1,1,-2,1l-1,0ZM85.5,588.5l-1,0l-1,1l1,0c1,0,1,0,1,0c0,0,1,-1,1,-1l-1,0ZM60.5,541.5c0,1,0,2,0,2l0,1l-1,0c0,1,0,1,0,1l1,0l0,1l-1,0l0,1c-1,0,-1,0,-1,0l0,1l-1,0l-1,0l0,1l-1,0l-1,0l-1,0l0,1l-1,1l-1,0l-3,0l-1,-1c0,0,-1,-1,-1,-1c-1,0,-2,0,-2,-1l-1,0l-1,0l0,-1l-1,0l0,-1l-1,0l0,-1l1,0l-1,-1l0,-1l0,-1l-1,0l0,-1l0,-1l1,0l0,-1l0,-1l1,-1l-1,-1l1,-1l1,0l0,-1l1,0l2,-1l1,0l1,-1l1,-1l0,-1l3,0l1,1l1,1l1,1l1,0l1,0l0,1c1,0,1,0,1,0l1,0l0,1l1,0c0,0,1,1,1,1l-1,1l1,1l0,1l0,1ZM51.5,551.5l1,0l0,-1l1,0l1,-1c0,0,1,0,1,0c0,0,0,-1,0,-1l1,0c0,0,1,0,1,-1l1,0l0,-1l1,0l1,0l-1,-1l-1,0l1,0l0,-1l1,-1l0,-1l0,-1c0,-1,0,-2,0,-2c0,0,0,-1,0,-1l-1,0l0,-1l1,-1c-1,0,-1,0,-2,-1l-1,-1l-1,0l-1,-1l-1,0c-1,0,-1,0,-1,-1l-1,-1c0,0,-1,0,-1,0l-1,0l-2,0l-1,1c0,1,0,1,-1,1l-2,1l-1,0l-1,0l0,1l-1,0c0,0,0,1,-1,1l1,1l-1,1l0,1l0,1c0,0,0,1,0,1l0,1l0,1l0,1l1,0l0,1l-1,1l1,0l1,1l1,0l0,1l1,0l1,1l1,0c1,0,1,0,1,0l1,1c0,1,0,1,0,1ZM57.5,536.5l-1,0l-1,-1l-1,0c0,-1,0,-1,0,-1l1,0l0,1l1,0l1,1ZM57.5,546.5l0,1l-1,0l-1,0l0,1l-1,0l0,-1l1,0l0,-1c1,0,1,0,1,-1l1,1ZM53.5,548.5c0,0,0,1,-1,1l-1,0l-3,0c-1,0,-1,0,-1,-1c0,0,0,-1,0,-1c1,0,1,0,1,0l3,0c1,0,1,0,1,0l1,0l0,1ZM53.5,534.5c0,0,0,1,-1,1l-1,0l-3,0l-1,0l0,-1c0,0,0,-1,1,-1l3,0c1,0,1,0,1,0l1,1ZM51.5,537.5l1,-1c0,0,1,0,1,0c1,0,1,0,1,0c0,0,1,1,1,1l1,1l1,-1l0,1l1,0l0,1l0,1l0,1l0,1l0,1c0,1,-1,1,-1,1l0,1l-1,-1l-1,1l-1,0l0,1l-1,0c-1,0,-1,0,-1,0c0,0,0,-1,0,-1l-1,0l-3,0l0,1c0,0,-1,0,-1,0c-1,0,-1,0,-1,0c-1,-1,-1,-1,-1,-1l-1,0l0,-1l-1,1l0,-1l-1,-1l0,-1l0,-1c0,-1,0,-1,0,-1c0,0,0,-1,0,-1l0,-1l1,0c0,-1,0,-1,0,-1l1,1l1,-1l0,-1l1,0l1,0l1,0l0,1ZM51.5,545.5l1,0l1,0l0,1l1,-1l1,0l0,-1c0,0,1,0,1,0l1,0l0,-1l1,-1l0,-1c0,-1,0,-1,0,-2c0,0,-1,-1,-1,-1l-1,0l-1,0l0,-1l-1,0l0,-1l-1,0c0,0,-1,0,-1,0l0,1l-1,0l-3,0l0,-1l-1,0c0,0,-1,0,-1,0c0,0,0,1,0,1l-1,0c-1,1,-1,1,-1,1l-1,0l-1,1l0,1l0,1l0,1l0,1c1,1,1,1,1,1l1,0l1,0l0,1l1,0l1,1c0,0,1,-1,1,-1l3,0ZM51.5,539.5l0,1l-1,0l0,1l0,1c0,1,0,1,0,1l-1,0l0,-1l0,-1l0,-1l0,-1c0,1,1,1,1,1c1,0,1,0,1,-1ZM43.5,536.5l0,-1l1,0l1,0l0,-1l1,0l0,1c0,0,-1,0,-1,0l-1,1l-1,0ZM43.5,546.5l0,-1c1,1,1,1,1,1l1,1l1,0c0,1,0,1,0,1l-1,0c-1,-1,-1,-1,-2,-1l0,-1ZM112.5,535.5l-2,-1l-1,1l-1,-1l1,-1l1,1l1,-1l2,1ZM110.5,543.5l-1,0l-1,0l-1,0c0,1,0,1,0,2l-1,1c0,0,0,1,0,1c-1,0,-1,0,-1,1c0,0,-1,0,-1,0c0,0,0,1,-1,1c-1,0,-1,0,-1,0l-1,0c0,0,-1,0,-1,-1c0,0,-1,0,-1,0c0,0,1,0,1,0c1,0,1,0,2,0c0,0,1,-1,1,-1c0,0,1,0,1,-1c0,0,1,0,1,0c0,-1,0,-1,0,-1c1,0,1,-1,1,-1l0,-1l-1,0l-1,0c0,0,-1,0,-1,-1l0,-1l1,-1c0,0,0,-1,0,-1c1,0,1,0,1,0c1,0,1,0,1,0c1,1,1,1,1,1l0,1l0,1c1,0,1,0,1,0l1,0l1,0c0,0,1,0,1,0c1,-1,1,-1,1,-1c0,-1,0,-1,0,-1c0,0,0,-1,0,-1l-1,0l1,-2c0,0,0,1,1,1l0,1l0,1l0,1c0,0,0,1,0,1l-1,0c0,1,0,1,-1,1c0,0,-1,0,-1,0ZM110.5,524.5l1,-1c1,0,1,0,1,0c0,0,0,1,0,1c0,0,0,1,0,1c0,0,0,1,0,1l0,1l-1,0l-1,1l-1,0l0,1l-1,0l0,-1l1,0c0,0,0,-1,1,-1l1,-1l-1,0l0,-1l0,-1ZM111.5,524.5c0,0,-1,0,-1,0c0,1,0,1,1,1ZM105.5,541.5c0,0,-1,0,-1,0c0,0,1,1,1,1l1,0c0,0,0,-1,0,-1l-1,0ZM97.5,534.5l-1,-1l-1,1l-1,-1l1,-1l1,1l1,-2l1,1ZM99.5,541.5c0,1,0,1,-1,1l0,1c-1,0,-1,0,-2,0c-1,0,-1,0,-2,0l-1,0c-1,0,-1,0,-1,0c0,0,-1,0,-1,0l0,-1l-1,0c0,0,-1,1,-1,1l-1,0l-1,0l-1,0l-1,0c0,1,0,1,0,2l-1,1c0,0,0,1,0,1c-1,0,-1,0,-1,1c0,0,-1,0,-1,0c0,0,0,1,-1,1c-1,0,-1,0,-1,0l-1,0c0,0,-1,0,-1,-1c0,0,-1,0,-1,0c0,0,1,0,1,0c1,0,1,0,2,0c0,0,1,-1,1,-1c0,0,1,0,1,-1c0,0,1,0,1,0c0,-1,0,-1,0,-1c1,0,1,-1,1,-1l0,-1l-1,0l-1,0c0,0,-1,0,-1,-1l0,-1l1,-1c0,0,0,-1,0,-1c1,0,1,0,1,0c1,0,1,0,1,0c1,1,1,1,1,1l0,1l0,1c1,0,1,0,1,0c0,0,1,0,1,0c0,0,1,0,1,0c0,0,1,-1,2,-1l1,0c0,0,1,0,1,1l1,0l1,0c1,0,1,0,2,0c1,-1,2,-1,2,-1c0,0,0,-1,0,-1c0,-1,0,-1,0,-1l0,1l-1,0l-1,0c-1,0,-1,0,-1,0l0,-1l0,-1l0,-1c0,-1,0,-1,1,-1c0,-1,0,-1,1,-1l1,0c0,1,0,1,0,1c0,1,1,1,1,1c0,1,0,1,0,2c0,0,0,1,0,1c0,0,0,1,0,1ZM96.5,537.5c0,1,0,1,0,1c1,0,1,0,1,0l0,-1l-1,0ZM98.5,547.5l-4,2c0,-1,1,-1,1,-1l4,-2ZM90.5,539.5l-2,-1l1,-1l2,1ZM90.5,528.5c0,-1,0,-1,0,-1c1,0,1,-1,1,-1c0,0,0,1,1,1l0,1l0,1l0,1l0,1l-1,-1l-1,1c0,0,-1,1,-1,1l-1,0l1,-1l1,-1l0,-1l0,-1ZM91.5,528.5l-1,0l1,1l0,-1ZM83.5,541.5c0,0,-1,0,-1,0c0,0,1,1,1,1l1,0c0,0,0,-1,0,-1l-1,0ZM72.5,537.5l-2,-1l1,-1l2,1ZM72.5,547.5c-1,0,-2,0,-2,-1c-1,0,-1,0,-1,0c-1,0,-1,-1,-1,-1c-1,-1,-1,-1,-1,-2c0,0,0,-1,0,-1c0,0,0,-1,0,-1l1,0c0,0,0,-1,0,-1c0,0,0,-1,0,-1l1,0c0,0,0,1,-1,1c0,0,0,1,0,1c0,1,0,1,0,1c0,0,0,1,0,1c0,0,1,1,1,1l1,0c1,1,1,1,2,1c1,0,1,0,2,-1c1,0,1,0,2,-1c0,0,0,-1,0,-1c0,-1,0,-1,0,-1c0,-1,0,-1,0,-1c0,0,-1,-1,-1,-1c0,0,0,-1,0,-1l0,-2c0,0,1,0,1,1l0,1c0,0,1,0,1,0c0,1,0,1,0,1c0,1,0,1,0,1l0,1l0,1c0,0,0,1,0,2c-1,0,-1,1,-2,1c0,1,-1,1,-1,1c-1,1,-2,1,-2,1ZM68.5,530.5l4,-2l0,1l-1,0l-4,2ZM146.5,547.5c0,0,0,-1,0,-1c1,1,1,1,1,1l1,0c1,0,2,-1,3,-1c0,0,0,-1,1,-1c0,-1,1,-1,1,-2c1,-1,1,-1,1,-1l0,-1c-1,0,-1,0,-1,0l0,-1c-1,0,-1,-1,-1,-1l1,-1l1,0c0,1,0,1,0,2l0,1l0,1c0,0,0,1,0,1l0,1l0,1c-1,0,-1,0,-1,1l-1,1l-1,0c0,0,-1,0,-1,1c0,0,-1,0,-1,0l-1,0c0,0,0,-1,0,-1c-1,0,-1,0,-1,0l-1,0ZM149.5,534.5l4,-2c0,1,0,1,0,1l-4,2ZM145.5,547.5l-1,-1l1,-1l1,1ZM143.5,543.5l-1,0l-1,0c0,0,-1,0,-1,0c0,0,-1,0,-1,-1l-2,-2c-1,0,-1,-1,-1,-1l-1,0l0,1l0,1c0,1,0,1,-1,2c-1,0,-1,0,-1,0c0,0,-1,0,-1,0l-1,0l-3,0c0,0,-1,0,-1,0l0,1l0,1c-1,0,-1,1,-1,1c0,0,-1,-1,-1,-1c0,-1,-1,-1,-1,-2l0,-1c0,0,-1,1,-1,1l-1,0l0,1c0,0,-1,0,-1,0l1,1l0,1l0,2l0,1l1,1c0,1,0,2,0,2c0,1,0,1,0,1l-1,0l0,-1l0,-1l0,-1l-1,-3l0,-1l0,-1l0,-1l0,-1c0,0,1,-1,1,-1l0,-1l1,0l1,-1l1,0c0,0,1,1,2,1l2,1l1,0l1,0l1,0c0,0,1,0,1,0c1,-1,1,-1,1,-1c0,0,1,0,1,-1c0,0,0,-1,-1,-1c0,-1,-1,-1,-1,-1c0,0,0,-1,-1,-1l-1,0c-1,0,-1,-1,-1,-1c0,-1,0,-1,0,-1l0,-1c0,-1,0,-1,0,-1c0,0,1,0,1,0c0,-1,1,-1,3,-2c1,0,2,-1,4,-1c1,-1,2,-1,3,-1l1,-1l-1,2c-1,0,-1,0,-1,0c0,0,-1,1,-2,1c-2,1,-3,1,-5,2c-1,0,-2,1,-2,1c-1,0,-1,0,-1,0l0,1l1,0c1,0,1,0,1,0c1,1,1,1,1,1l1,0c1,1,1,1,2,1c0,1,1,1,1,2c1,0,1,1,2,1l2,2l1,0l1,0c0,0,1,0,1,0c1,-1,1,-1,1,-1l1,0c0,-1,-1,-1,-1,-1c0,0,0,-1,0,-1l1,-2c0,0,0,1,0,1l0,1l0,1l0,1c0,0,0,1,0,1c-1,1,-1,1,-2,1c0,0,-1,0,-1,0ZM141.5,532.5l0,1c1,0,1,0,1,0l0,-1l1,-1l0,1c0,1,0,1,0,1c1,0,1,-1,1,-1l0,-1l0,1l0,1l0,1l-1,0l0,-1l-1,0l0,1l-1,0l0,-1l0,-1ZM145.5,550.5l-4,2c0,-1,0,-1,0,-2l4,-1ZM134.5,524.5l1,-1l1,0c0,0,0,1,0,1c0,0,0,1,0,1c0,0,0,1,0,1l0,1l-1,0l-1,1l-1,0l0,1l-1,0l0,-1l1,0c0,0,0,-1,1,-1l1,-1l-1,0l0,-1l0,-1ZM135.5,524.5c0,1,0,1,0,1ZM121.5,533.5c0,-1,0,-1,1,-1c0,0,1,0,1,0c1,0,1,0,1,0c1,0,1,1,1,1c0,1,0,1,-1,1c0,0,0,1,0,1c0,0,-1,0,-1,0c0,0,-1,0,-1,0l-1,0l2,-1c0,0,1,0,1,0c0,-1,0,-1,-1,-1c-1,0,-1,0,-2,0c0,1,0,1,-1,1l1,0c0,-1,0,-1,0,-1ZM192.5,547.5l-1,-1l1,-1l1,1ZM190.5,543.5l-1,0c-1,0,-1,0,-2,0c0,0,-1,-1,-1,-2c0,1,0,2,-1,2l-1,0l-1,0l-1,0c-1,0,-1,0,-2,0c0,0,-1,0,-1,0c0,0,-1,0,-2,0c0,0,-1,0,-1,0l-1,0l-1,0c-1,0,-2,0,-2,0c-1,-1,-1,-1,-1,-2l0,-9l1,-2l0,10l0,1c1,1,1,1,2,1l2,0c0,0,1,0,1,0l1,-1c0,0,-1,0,-1,0c0,-1,0,-1,0,-1c0,0,0,-1,1,-1c0,-1,0,-1,0,-1c0,-1,1,-1,1,-1c0,-1,1,-1,1,-1c1,0,1,0,2,1c0,0,0,1,0,1l0,1c0,1,0,1,0,2c-1,0,-1,0,-1,1c0,0,1,0,1,0l1,0l1,0l1,0c0,0,1,-1,1,-1l0,-1c0,-1,0,-1,0,-1l0,-1l-1,-6l1,-2l1,10c0,0,0,1,0,1c1,1,1,1,1,1l1,0l1,0c0,0,1,0,1,0c1,-1,1,-1,1,-1c0,-1,0,-1,0,-1c0,0,0,-1,0,-1l-1,0l1,-2c0,0,0,1,1,1l0,1l0,1l0,1c0,0,0,1,0,1l-1,0c0,1,0,1,-1,1c0,0,-1,0,-1,0ZM191.5,550.5l-4,2c1,-1,1,-1,1,-2l4,-1ZM187.5,550.5l-4,2c0,-1,0,-1,0,-2l4,-1ZM180.5,535.5l-1,-1l-1,1l-1,-1l1,-1l1,1l1,-1l1,1ZM180.5,538.5c0,0,-1,0,-1,1c-1,0,-1,0,-1,0c0,1,0,1,0,1c1,0,1,0,1,1c1,0,1,-1,1,-1c1,0,1,0,1,0c0,-1,0,-1,0,-1c-1,-1,-1,-1,-1,-1ZM176.5,527.5l4,-2l0,1l-5,2ZM169.5,527.5c0,0,1,0,2,1c0,0,1,0,1,0l1,0l1,0c-1,0,-1,0,-1,1l-1,0l-1,0c0,0,-1,0,-1,0l-1,-1l-1,0c0,0,0,1,0,1c0,-1,0,-1,1,-2ZM163.5,541.5l0,-1c1,0,1,0,1,-1l1,0c1,0,1,0,1,0c0,0,0,1,0,1l0,1l-1,0c-1,0,-1,0,-1,0l0,1c0,0,1,0,1,0c0,0,1,0,1,0c0,0,1,0,1,0l0,1l-5,2c0,-1,0,-1,1,-1l0,-1c0,0,1,0,1,0c-1,0,-1,0,-1,0c0,-1,0,-1,0,-1c0,-1,0,-1,0,-1ZM166.5,547.5l-4,2c0,-1,0,-1,1,-1l4,-2ZM235.5,542.5l1,0l1,0c0,-1,0,-1,0,-1c0,0,1,0,1,-1l-1,-2l0,-6l0,-1l0,-1l1,0c0,0,0,1,0,1l1,0c0,1,0,1,-1,1c0,1,0,1,0,1c0,0,0,1,0,2c0,0,0,1,0,3l0,1l0,1c0,0,0,1,0,1c0,0,0,1,0,1c0,1,-1,1,-1,1c0,0,-1,0,-1,0l-1,0l-1,0l-1,0c0,0,-1,0,-1,0l-1,-1c0,0,-1,0,-1,0l0,1c-1,0,-1,0,-1,0c0,0,-1,0,-1,0l-1,0l-1,0c0,0,-1,0,-1,0c0,0,-1,-1,-1,-2c0,1,0,2,-1,2l-1,0l-1,0c0,0,-1,0,-1,0l-1,-1l-2,-2c-1,0,-1,-1,-1,-1l-1,0l0,1l0,1c0,1,0,1,-1,2c-1,0,-1,0,-1,0c0,0,-1,0,-1,0l-1,0l-3,0l-1,0l0,1l0,1c-1,0,-1,1,-1,1c0,0,-1,-1,-1,-1c0,-1,-1,-1,-1,-2l0,-1c0,0,-1,1,-1,1l-1,0l0,1l0,1l0,1l0,2l0,1l1,1c0,1,0,2,0,2c0,1,0,1,0,1l-1,0l0,-1l0,-1l0,-1l-1,-3l0,-1l0,-1l0,-1l0,-1c0,0,1,-1,1,-1l0,-1l1,0l1,-1l1,0c0,0,1,1,2,1l2,1l1,0l1,0l1,0c0,0,1,0,1,0c1,-1,1,-1,1,-1c0,0,1,0,1,-1c0,0,0,-1,-1,-1c0,-1,0,-1,-1,-1c0,0,0,-1,-1,-1l-1,0c-1,0,-1,-1,-1,-1c0,-1,0,-1,0,-1l0,-1c0,-1,0,-1,0,-1c0,0,1,0,1,0c0,-1,1,-1,3,-2c1,0,2,-1,4,-1c1,-1,2,-1,3,-1l1,-1l-1,2c-1,0,-1,0,-1,0c0,0,-1,1,-2,1c-2,1,-3,1,-4,2c-2,0,-3,1,-3,1c0,0,-1,0,-1,0l0,1l1,0c1,0,1,0,1,0c1,1,1,1,1,1l1,0c1,1,1,1,2,1c0,1,1,1,1,2c1,0,1,1,2,1l2,2l1,0l1,0c0,0,0,-1,1,-1l0,-1c0,-1,0,-1,0,-1l0,-1l-1,-6l1,-2l1,10c0,0,0,1,0,1c0,1,1,1,1,1l1,0l1,0c0,0,1,0,1,0l0,-1c1,0,1,0,1,0l-1,-1l-1,0l-1,0l1,-2c1,0,1,0,2,0c0,-1,0,-1,1,-1c1,0,1,1,1,1l1,0l0,1l0,1c0,0,-1,0,-1,1c0,0,1,0,1,1l1,0l1,0ZM236.5,527.5l4,-2l0,1c0,0,-1,0,-1,0l-4,2ZM230.5,530.5l4,-2l0,1l-5,2ZM221.5,526.5l0,1c1,0,1,0,1,0l1,-1l0,-1l0,1c0,0,0,1,1,1c0,0,0,-1,0,-1l0,-1l1,0c0,1,0,1,0,1l-1,1l0,1l-1,0l0,-1l0,1c-1,0,-1,0,-1,0c-1,0,-1,0,-1,0l0,-1l0,-1ZM225.5,523.5l-5,3c0,-1,0,-1,1,-1l5,-3ZM214.5,524.5l1,-1l1,0c0,0,0,1,0,1c0,0,0,1,0,1c0,0,0,1,0,1l0,1l-1,0l-1,1l-1,0l0,1l-1,0l0,-1l1,0c0,0,1,-1,1,-1l1,0l0,-1l-1,0l0,-1l0,-1ZM215.5,524.5c0,1,0,1,0,1ZM285.5,544.5l0,-2l0,-1l-1,-8l1,-3l1,11l0,1c-1,1,-1,1,-1,2ZM269.5,525.5l5,-2l-1,1l-4,2ZM279.5,525.5c1,0,1,0,1,0c1,0,1,0,1,0c1,0,1,0,1,0c1,0,1,0,1,1c0,0,-1,0,-1,1l-1,0l-1,0l1,0c0,0,1,0,1,-1l-1,0c0,0,-1,0,-1,0l-1,0ZM267.5,547.5l-1,-1l-1,1l-1,-1l0,-1l2,1l1,-2l1,1ZM264.5,543.5l-1,0l-1,0c-1,0,-1,0,-1,0c0,0,-1,-1,-1,-1c0,1,-1,1,-1,1c-1,0,-2,1,-2,1l-2,0l-1,0l-1,0l-1,0l0,1c-2,0,-3,-1,-4,-1c-1,0,-2,0,-2,-1c-1,0,-1,-1,-1,-1l0,-1l0,-1c0,0,0,-1,0,-1c0,0,1,-1,1,-1l0,1c0,0,0,1,0,1c0,0,0,1,0,1c0,0,1,1,2,1c1,0,1,1,2,1c0,0,1,0,3,0c0,0,1,0,1,0c1,0,1,0,2,-1l1,0c1,0,2,-1,3,-1c0,0,1,-1,1,-1l0,1l0,1c1,0,1,0,1,0l1,0l1,0c1,0,1,0,2,0c0,-1,1,-1,1,-1c0,-1,0,-1,0,-1c0,0,-1,-1,-1,-1l1,-2c0,0,0,1,0,1c1,1,1,1,1,1c0,0,0,1,0,1c0,0,0,1,0,1c0,0,0,1,-1,1c0,1,-1,1,-1,1c-1,0,-1,0,-2,0ZM254.5,538.5l-1,-1l-1,1l-1,0l0,-2l2,1l1,-1l1,1ZM251.5,547.5l-4,2c0,-1,0,-1,0,-1l5,-2ZM337.5,547.5l-2,-1l-1,1l-1,-1l1,-1l1,1l1,-2l1,1ZM334.5,543.5l-1,0l-1,0l-1,0c-1,0,-2,0,-2,0c-1,0,-1,0,-1,0c-1,0,-1,0,-2,0c0,0,-1,0,-1,0l-1,0l-1,0l-11,0c0,1,0,1,0,1c-1,1,-1,1,-1,2l0,-1c0,0,0,-1,0,-1l0,-1l-1,0c0,0,0,-1,0,-1l-1,0c0,1,0,1,-1,1l-1,0l-1,0c0,0,-1,0,-1,0c0,0,-1,-1,-1,-1l0,1l0,1c0,1,0,1,0,2c0,0,-1,1,-1,1c0,0,-1,0,-1,1c0,0,-1,0,-1,0c0,0,-1,0,-1,1c-1,0,-1,0,-2,0l-1,0l0,-1c-1,0,-1,0,-2,0c0,-1,0,-1,0,-1c-1,-1,-1,-1,-1,-2c0,0,0,-1,1,-1c0,-1,0,-1,0,-2l1,-1l0,1c-1,1,-1,1,-1,1c0,0,0,1,0,1c0,1,0,1,1,2c0,0,1,1,2,1c1,0,2,0,3,-1c1,0,2,-1,2,-1l0,-1c1,0,1,0,1,0l-1,-3c0,0,0,-1,0,-2l0,-1l0,-6l1,-2l0,10c0,0,1,1,1,1l0,1c1,0,1,0,1,0l1,0l1,0c0,0,1,0,1,-1l1,0c0,0,0,-1,0,-1c0,1,0,1,1,1c0,1,0,1,0,1l2,-1l1,-1l1,-1c1,0,1,-1,2,-1c0,0,1,0,1,0l1,0c0,0,1,0,1,0c1,0,1,1,1,1l0,1l1,0c0,0,-1,0,-1,1l0,1l-1,0l2,0l2,0c1,0,1,0,1,0l1,0l0,-1l0,-1c0,0,0,-1,0,-1c0,-1,1,-1,1,-1c0,-1,0,-1,0,-1c1,-1,2,-1,2,-1c1,0,1,0,1,1c0,0,0,1,1,1l0,1c0,1,-1,1,-1,1l0,1l-1,1l1,0l1,0l1,0l1,0l1,0c0,0,1,0,1,0c1,-1,1,-1,1,-1c0,-1,0,-1,0,-1c0,0,0,-1,0,-1l-1,0l1,-2c0,0,1,1,1,1c0,1,0,1,0,1c0,0,0,1,0,1c0,0,0,1,0,1c0,0,0,1,0,1l-1,0c0,1,0,1,-1,1c0,0,-1,0,-1,0ZM336.5,528.5c0,-1,0,-1,0,-1c1,0,1,-1,1,-1c1,0,1,1,1,1l0,1l0,1l0,1l0,1l-1,-1l-1,1c0,0,-1,1,-1,1l-1,0l1,-1l1,0l0,-1l0,-1l0,-1ZM337.5,528.5c-1,0,-1,0,-1,0l1,0l0,1l0,-1ZM328.5,535.5l-1,-1l1,-1l1,1ZM329.5,538.5c-1,0,-1,0,-2,0c0,1,0,1,0,1c0,1,0,1,0,1c0,0,1,0,1,1c1,0,1,-1,1,-1c0,0,1,0,1,0c0,-1,0,-1,-1,-1c0,-1,0,-1,0,-1ZM327.5,527.5l4,-2l0,1l-5,2ZM320.5,541.5c0,0,0,-1,0,-1c-1,0,-1,-1,-2,-1c0,0,-1,0,-1,0c0,0,0,1,0,1c-1,0,-1,0,-2,1l-1,0l-1,1l1,0l1,0l1,0c0,0,1,0,1,0l1,0l1,-1c1,0,1,0,1,0ZM314.5,531.5l0,1l1,0l0,-1l0,-1l0,1c0,0,1,0,1,0l1,0l0,-1c0,0,0,1,0,1l0,1l-1,0l0,1l0,-1c0,0,-1,0,-1,0l0,1c0,0,-1,0,-1,0l-1,0l0,-1l0,-1l1,0ZM316.5,547.5l-4,2c0,-1,0,-1,0,-1c1,0,1,0,1,0l4,-2ZM297.5,528.5c0,-1,0,-1,1,-1c0,0,0,-1,0,-1l1,0c0,0,0,1,0,1l0,1l0,1l0,1l0,1l-1,-1l-1,1c0,0,0,1,-1,1l-1,0l1,-1c0,0,1,0,1,0l0,-1l1,0l-1,0l0,-1l0,-1ZM298.5,528.5l0,1l0,-1ZM375.5,544.5l0,-2l0,-1l0,-8l1,-3l0,11l0,1c0,1,0,1,-1,2ZM360.5,525.5l4,-2l0,1l-5,2ZM370.5,525.5l1,0l1,0l1,0l0,1l0,1c0,0,-1,0,-1,0c-1,0,-1,0,-1,0l-1,0l1,0c1,0,1,0,2,-1c0,0,-1,0,-1,0l-1,0l-1,0ZM357.5,543.5c0,0,-1,0,-1,0l-1,0l0,-1l-1,0l-1,0c0,1,0,1,0,1l-1,0l-1,0l-1,0l0,1l0,1c0,0,0,1,-1,2c0,1,-1,1,-1,1c0,0,0,1,-1,1l-1,0l-1,0c-1,0,-1,0,-2,0c0,0,0,-1,-1,-1l1,0l1,0c0,0,1,0,1,0c1,0,1,0,2,-1c1,0,1,-1,1,-1c0,0,1,-1,1,-1c0,0,0,-1,0,-1c1,-1,1,-1,1,-1l-1,0c0,-1,0,-1,0,-1l0,-1l0,-1l0,1c0,0,1,0,1,0l0,1l1,0l1,0c0,0,1,0,1,0l0,-1l1,-1c0,0,0,-1,1,-1l0,-1c0,0,1,0,1,0c0,0,1,0,1,1l0,1l1,1c0,1,0,1,0,1c0,0,-1,0,-1,0c0,0,0,1,0,1ZM355.5,541.5l1,0c0,-1,0,-1,0,-1l-1,0c0,1,0,1,0,1ZM351.5,526.5c0,-1,1,-1,1,-1c1,0,1,0,1,0c1,0,2,0,2,0c0,0,0,1,0,1c0,0,0,1,0,1c0,0,-1,0,-1,1l-1,0l-1,0l-1,0l2,-1c1,0,1,0,2,-1c-1,0,-1,0,-1,0c0,0,-1,0,-1,0c0,0,-1,0,-1,0c0,0,-1,0,-1,1l0,-1ZM346.5,530.5l4,-2l-1,1l-4,2ZM413.5,547.5l-2,-1l-1,1l-1,-1l1,-1l1,1l1,-2l2,1ZM410.5,543.5l-1,0l-2,0l-1,0l-1,0l0,-1l0,-1l0,1l-1,0l0,1c-1,0,-1,0,-2,0c0,0,-1,0,-1,0l-1,0l-1,0c-1,0,-1,-1,-1,-1l0,-1l0,-1l1,0c0,0,0,1,0,1l1,0l1,0l1,0c0,0,1,0,1,0c1,0,1,0,1,0l1,-1l-1,-1l0,-2l0,-1l0,-1l1,-1l0,2l0,1l1,3c0,1,0,1,0,1c0,1,0,1,1,1l2,0l1,0c0,0,1,0,1,0c1,-1,1,-1,1,-1c0,-1,0,-1,0,-1c0,0,0,-1,0,-1l0,-2c0,0,1,1,1,1c0,1,0,1,0,1c0,0,0,1,0,1c0,0,0,1,0,1c0,0,0,1,0,1c-1,1,-1,1,-2,1c0,0,-1,0,-1,0ZM412.5,528.5c0,-1,0,-1,0,-1c1,0,1,-1,1,-1c1,0,1,1,1,1l0,1l0,1l0,1l0,1l-1,-1l-1,1c0,0,0,1,-1,1l-1,0l1,-1l1,0l0,-1l0,-1l0,-1ZM413.5,528.5c0,0,-1,0,-1,0l1,0l0,1l0,-1ZM400.5,530.5l4,-2l0,1l-4,2ZM394.5,547.5l-1,-1l1,-1l1,1ZM392.5,542.5c0,0,1,0,1,0c1,-1,1,-1,1,-1c0,-1,0,-1,0,-1c0,0,0,-1,0,-1l0,-2c0,0,1,1,1,1l0,1l0,1l0,1c0,0,0,1,0,1c-1,1,-1,1,-2,1c0,0,-1,0,-1,0l-1,0c-1,0,-1,0,-1,0l0,1l0,1c0,0,-1,1,-1,2c-1,1,-1,1,-1,1c0,0,-1,1,-1,1c0,0,-1,0,-1,0c0,0,-1,0,-1,0c-1,0,-1,0,-2,0c0,0,-1,-1,-1,-1c0,0,1,0,1,0l1,0c0,0,1,0,1,0c0,0,1,0,1,-1c1,0,1,0,1,0c0,0,1,-1,1,-1c0,0,0,-1,0,-1c1,0,1,-1,1,-1c0,-1,0,-1,0,-1c0,-1,-1,-1,-1,-1l0,-1l1,0l0,-1l0,1l1,0l0,1l1,0ZM390.5,532.5l0,1l1,0l0,-1l0,-1l0,1l1,0c0,1,0,1,0,1c0,0,1,-1,1,-1l0,-1l0,1l0,1l-1,1l-1,-1l0,1c0,0,-1,0,-1,0l-1,0l0,-1l1,-1ZM393.5,550.5l-4,2c1,-1,1,-1,1,-2l4,-1ZM387.5,528.5c1,-1,1,-1,1,-1c0,0,1,-1,1,-1c0,0,0,1,0,1c1,0,1,0,1,1l-1,1l1,0l0,1l0,1l-1,-1l-1,0l0,1c-1,0,-1,1,-1,1l-1,0l-1,0l1,0l1,-1l0,-1l1,0l0,-1c-1,0,-1,0,-1,0l0,-1ZM389.5,528.5l-1,0l0,1l1,0l0,-1ZM102.5,529.5c0,0,1,0,1,0c0,-1,1,-1,1,-1c1,0,1,0,2,1c0,1,0,1,0,1c-1,1,-1,1,-1,1c0,0,-1,0,-1,0l-1,0l-1,0l2,0c1,0,1,-1,2,-1c-1,0,-1,0,-1,0c-1,0,-1,0,-1,0c0,0,-1,0,-1,0c-1,0,-1,0,-1,0c0,0,0,-1,0,-1ZM80.5,529.5c0,0,1,0,1,0c1,0,1,0,2,0c0,0,1,0,1,0c0,0,1,0,1,1c0,0,-1,0,-1,0c0,0,0,1,0,1c0,0,-1,0,-1,0c0,1,0,1,0,1l-1,0l-1,0l-1,0l2,-1c1,0,1,0,2,-1c-1,0,-1,0,-1,0c0,0,-1,0,-1,0c0,0,-1,0,-1,0c0,0,-1,0,-1,1l0,-1l0,-1ZM201.5,530.5c1,0,1,0,1,0c1,-1,1,-1,2,-1c0,0,1,0,1,1c0,0,1,0,1,0c-1,1,-1,1,-1,1c0,1,0,1,-1,1l-1,0l-1,0l1,0c1,0,1,-1,2,-1c-1,0,-1,0,-1,0c0,0,-1,0,-1,0c0,0,-1,0,-1,0c0,0,-1,0,-1,0c0,0,0,-1,0,-1ZM263.5,533.5l0,-1c0,0,0,-1,0,-1c0,-1,0,-1,0,-2l0,-1c0,0,0,1,1,1c0,1,0,1,0,1l0,1c0,1,0,1,0,1c0,0,-1,1,-1,1ZM279.5,545.5l-1,0c0,0,-1,0,-1,0c0,0,-1,0,-2,0c0,0,-1,0,-1,0l0,-1c0,-1,0,-1,0,-1c0,0,1,0,1,0c1,0,1,0,1,0l1,-1c0,0,0,-1,1,-1c-1,0,-1,0,-1,-1l-1,0c0,-1,-1,-2,-1,-2c0,0,-1,-1,-1,-2c-1,0,-1,0,-1,0c0,-1,-1,-1,-1,-1l-1,0c0,0,-1,0,-1,-1l0,-1c0,0,0,-1,0,-1l1,0l1,1c0,0,1,0,1,1c1,1,2,1,2,2c1,1,1,1,2,2c0,1,0,1,1,1c0,1,0,1,0,1c0,0,0,-1,1,-1c0,-1,0,-1,0,-2c0,-1,0,-1,0,-2l0,-1c0,-1,0,-1,0,-2c0,-1,0,-1,0,-1c0,-1,0,-1,1,-1l0,1c0,0,1,1,1,1l0,1c-1,0,-1,0,-1,0c0,0,0,1,0,1c0,0,0,1,0,1c0,1,0,1,0,2l0,1c0,0,-1,1,-1,2c0,0,0,1,0,1c0,1,0,1,0,1l0,1c0,1,0,1,0,1c0,0,0,1,0,1ZM278.5,542.5l0,1l-1,0l1,0l1,0l-1,0ZM370.5,544.5c0,0,-1,0,-1,0c-1,0,-1,1,-1,1c0,0,-1,0,-2,0c0,0,-1,0,-1,0c0,0,0,-1,0,-1l0,-1l1,0c1,0,1,0,1,-1l1,0c0,0,0,-1,0,-1l1,0c-1,-1,-1,-1,-1,-1c0,-1,-1,-1,-1,-1c0,-1,-1,-1,-1,-2c0,0,-1,0,-2,-1c0,0,0,-1,0,-1c-1,0,-1,0,-1,0c0,0,-1,0,-1,0c-1,-1,-1,-1,-1,-1c0,-1,0,-1,0,-1c0,-1,0,-1,0,-1c0,-1,0,-1,0,-1c1,0,1,1,2,1c0,0,1,1,1,1c1,1,2,2,2,2c1,1,1,2,2,3l1,1l0,1c0,-1,0,-1,0,-2c1,0,1,-1,1,-2c0,0,0,-1,0,-1c0,-1,0,-1,0,-2c0,0,0,-1,0,-1c0,-1,0,-1,0,-1c0,0,0,-1,0,-1l0,-1c1,0,1,1,1,1c0,0,0,1,0,1l1,0c0,0,0,1,-1,1l0,1c0,1,0,1,0,2c0,0,0,1,0,1c0,0,0,1,0,1c-1,1,-1,2,-1,2c0,1,0,1,0,1c0,1,0,1,0,1c0,1,0,1,0,1l0,1l0,1ZM369.5,542.5c-1,0,-1,0,-1,0c0,1,0,1,0,1c1,0,1,0,1,0l1,0c0,-1,-1,-1,-1,-1ZM74.5,447.5c0,0,-1,1,-2,1c-1,1,-2,1,-3,2c-2,0,-3,0,-3,0l-1,0c-1,0,-1,0,-1,0c-1,0,-1,-1,-1,-2c-1,1,-1,1,-1,1c0,1,0,1,0,1c-1,0,-1,0,-1,0l-1,0c0,0,1,0,1,0c0,1,1,1,1,1c1,0,1,0,1,0c0,1,0,1,0,1c0,0,0,1,0,1l-1,0c0,1,0,1,0,1c0,0,-1,0,-1,1c-1,0,-1,1,-2,1c-1,0,-2,0,-3,0c-1,0,-1,0,-2,0c-1,0,-1,-1,-2,-1c0,0,0,-1,0,-1c-1,0,-1,-1,-1,-1c0,-1,0,-1,0,-1c0,0,0,-1,1,-2c0,0,0,-1,1,-2c0,0,0,1,0,1c0,0,0,1,-1,1c0,1,0,1,0,1c0,1,0,1,0,1c0,1,1,1,1,2c1,0,2,0,3,0c1,0,1,0,2,0l1,0c1,0,1,0,2,-1c0,0,1,0,1,-1c-1,0,-1,0,-2,0c0,0,-1,0,-1,0c0,0,0,-1,0,-1l0,-1c1,-1,1,-1,2,-1l1,0c0,-1,0,-1,0,-1c0,-1,0,-1,0,-1c0,0,0,-1,0,-1c0,-1,0,-1,0,-1l0,-7l1,-2l0,11c0,0,0,1,1,1l0,1c0,0,1,0,1,0l1,0c1,-1,2,-1,2,-1c-1,0,-1,-1,-1,-1c0,0,0,-1,0,-1c0,-1,0,-1,0,-1l0,-1c0,0,0,-1,1,-1l1,0c0,-1,0,-1,0,-1c1,0,1,0,1,0c1,0,1,0,1,0l1,0c0,1,0,1,1,1l0,1l-1,0l0,-1l-1,0l-1,0c-1,0,-1,1,-1,1c-1,0,-1,0,-1,0c0,0,0,1,0,1c0,1,0,1,1,1c0,1,1,1,1,1c1,0,1,0,1,0l1,0l1,0l0,-1l1,0l1,-1ZM66.5,437.5l4,-2l0,1l-4,2ZM59.5,434.5l5,-2l-1,1l-4,2ZM129.5,450.5l0,-1l0,-1l-1,-8l1,-3l1,11c0,1,0,1,0,1c-1,1,-1,1,-1,1ZM117.5,449.5c-1,1,-1,1,-1,1c-1,0,-1,0,-1,0c-1,0,-1,0,-1,0l-1,0c-1,0,-1,0,-1,0c-1,0,-1,0,-1,0l0,-1l-1,0c0,0,-1,0,-1,0c0,1,0,1,-1,1l-1,0l-1,0c0,1,0,1,-1,1c0,1,0,1,0,2c0,0,-1,0,-1,1l-1,1c-1,0,-1,0,-1,1c0,0,-1,0,-1,0l-1,0c0,0,-1,0,-2,-1l-1,0c1,0,1,0,1,0c1,0,1,0,1,0c0,0,1,0,1,0c1,-1,1,-1,2,-1l1,-1c1,-1,1,-1,1,-1c0,0,0,-1,0,-1l1,0c0,0,0,-1,0,-1l-1,0c-1,0,-1,0,-1,0c-1,0,-1,0,-1,-1c0,-1,0,-1,0,-1c0,0,0,-1,0,-1c0,-1,1,-1,1,-1c0,0,1,-1,1,-1c0,0,0,1,0,1c1,0,1,0,1,0c0,0,0,1,0,1l1,1l0,1c0,0,1,0,1,0c1,0,1,0,1,0c1,0,1,-1,2,-1l1,0l0,-1c0,0,0,1,0,1l1,0c0,1,0,1,1,1l1,0l1,0l1,-1l1,0c0,0,0,-1,1,-1l0,1l1,1c0,0,1,0,1,-1l1,0l0,-1l1,-1l0,1l0,1c0,0,1,0,1,0l1,1l0,-1l0,-1l0,-1l1,1l0,1c0,1,0,1,0,1c0,1,-1,1,-1,1l-1,0c-1,0,-1,0,-1,0l-1,-1l0,1c-1,0,-1,0,-1,0l-1,0c0,0,-1,0,-1,0c0,0,-1,0,-1,0c0,0,0,-1,0,-1ZM118.5,439.5l1,0c0,0,1,0,1,0c1,0,1,0,2,0l0,1c0,0,0,1,0,1c-1,0,-1,0,-1,0c0,1,0,1,0,1c-1,0,-1,0,-1,0c0,0,-1,0,-1,0c0,0,-1,0,-1,0l2,-1c0,0,1,0,1,-1c-1,0,-1,0,-1,0c-1,0,-1,0,-2,0l0,1l0,-1l0,-1ZM111.5,445.5l-1,-1l-1,2l-1,-1l0,-2l2,1l1,-1l1,1ZM108.5,437.5l4,-2l0,1l-4,2ZM103.5,447.5l0,1c1,1,1,1,1,1c0,0,1,0,1,0c0,-1,0,-1,-1,-1l0,-1l-1,0ZM97.5,444.5c-1,-1,-1,-1,-1,-1l-1,0c0,0,0,1,0,1c-1,0,-1,0,-2,1c-1,0,-1,1,-1,1c0,1,0,1,1,1c0,1,0,1,1,1l1,0c1,0,1,0,1,0l0,1c0,0,1,0,1,0c0,0,-1,1,-1,1l0,1c0,0,-1,0,-1,1c-1,0,-1,0,-2,1c-1,0,-1,0,-2,0c-1,1,-2,1,-2,1l-1,0c-1,0,-1,0,-2,0c0,-1,-1,-1,-1,-1c-1,-1,-1,-1,-1,-1c0,-1,-1,-1,-1,-2c0,-1,1,-2,1,-2c0,-1,0,-1,0,-2c1,0,1,-1,1,-1l1,0l-1,1c0,1,0,1,0,1c0,0,0,1,0,1c-1,0,-1,0,-1,1c0,0,0,1,1,1c0,0,0,1,0,1c1,1,2,1,4,1c1,0,2,0,3,-1l1,0l1,0l1,-1c0,0,1,0,1,-1l-2,0c-1,0,-2,0,-2,0c-1,-1,-1,-1,-1,-2c0,-1,0,-1,0,-2c0,0,1,0,1,-1l1,0c0,-1,0,-1,1,-1c0,-1,0,-1,1,-1c0,0,1,0,1,0c1,0,1,0,1,0l0,1c0,1,0,1,0,1ZM103.5,439.5c0,2,-1,2,-1,3l0,-1l0,-1c0,0,0,-1,0,-1l0,-1l-1,0l0,-1c0,0,1,0,1,-1l0,1l0,1l1,0l0,1ZM150.5,439.5l-1,-1l0,-1l2,1ZM152.5,442.5l-2,-1l0,1l-2,-1l1,-1l1,1l1,-2l2,1ZM149.5,449.5c1,0,1,0,2,-1l1,0l0,-1l-1,0l0,-1l1,-2l0,1l0,1l0,1l1,0l-1,1l0,1c0,1,-1,1,-2,1l-1,0l-1,0l-3,0l-1,0l0,1l0,1c0,0,-1,1,-1,1c0,0,-1,-1,-1,-1c0,-1,0,-1,-1,-2l0,-1c0,0,-1,0,-1,1c0,0,-1,0,-1,0l0,1l0,1l0,1l0,2l0,1l1,1c0,1,0,1,0,2l0,1l-1,0l0,-1l0,-1l0,-1l-1,-3l0,-1l0,-1l0,-1l0,-1c0,0,1,-1,1,-1l0,-1l1,0l0,-1l1,0l1,-1c0,1,1,2,2,2l2,1l1,0l1,0ZM149.5,431.5c1,0,1,0,1,-1c0,0,1,0,1,0c1,0,1,1,1,1l0,1l-1,0l0,1l1,0l0,1l-1,0l-1,0c-1,1,-1,1,-1,1l-1,0l-1,0l1,0l1,-1l1,-1l-1,0c0,0,0,-1,0,-1c0,0,0,-1,0,-1ZM151.5,431.5l-1,0l0,1l1,0l0,-1ZM139.5,439.5l0,1l1,0c0,0,1,0,1,-1l0,-1l0,1c0,0,1,0,1,0l0,-1l1,0l0,1l0,1c-1,0,-1,0,-1,0l-1,0l0,1c-1,0,-1,0,-1,0c0,0,-1,0,-1,0l0,-1l0,-1ZM144.5,436.5l-6,3c0,-1,1,-1,1,-2l5,-2ZM199.5,442.5l-2,-1l0,1l-2,-1l1,-1l1,1l1,-1l2,1ZM197.5,449.5c0,0,1,0,1,-1c1,0,1,0,1,0l0,-1l0,-1l-1,0l1,-2c0,0,1,0,1,1l0,1l0,1l0,1l0,1l-1,0c0,1,0,1,-1,1c0,0,-1,0,-1,0l-1,0c-1,0,-1,0,-1,0c0,0,0,1,0,1c0,1,-1,2,-1,2c0,1,0,1,0,1c-1,0,-1,1,-1,1c0,0,-1,0,-1,1c0,0,-1,0,-1,0c0,0,-1,0,-1,0c-1,0,-1,0,-2,0c0,-1,-1,-1,-1,-1c0,0,1,0,1,0l1,0c0,0,1,0,1,0c0,0,1,0,1,-1c1,0,1,0,1,0c0,-1,1,-1,1,-1c0,0,0,-1,0,-1c1,0,1,-1,1,-1c0,-1,0,-1,0,-1l0,-1c0,0,-1,0,-1,0c0,-1,0,-1,0,-1l1,0c0,0,0,-1,0,-1l0,1l1,0c0,0,0,1,0,1l1,0ZM197.5,434.5l4,-2l0,1c0,0,-1,0,-1,0l-4,2ZM190.5,437.5l5,-2l-1,1l-4,2ZM186.5,446.5c0,0,-1,0,-1,1c0,0,1,0,1,0c0,-1,0,-1,0,-1ZM186.5,454.5c0,0,-1,0,-1,0c0,1,0,1,0,1c-1,0,-2,0,-2,0l-1,0l-1,0c0,0,-1,-1,-1,-1c0,0,1,0,1,0l1,0c1,0,1,0,1,0c1,0,1,0,1,-1c1,0,1,0,1,0c1,-1,1,-1,1,-1c0,0,0,-1,1,-1c0,-1,0,-1,0,-2c-1,0,-1,0,-1,0c0,0,-1,0,-1,0l-1,0l0,-1c0,-1,0,-1,0,-1c0,-1,1,-1,1,-2c1,-1,1,-1,1,-1c0,0,1,0,1,1c1,1,1,1,1,1c0,0,0,1,0,1c0,1,0,1,0,2c0,1,0,2,-1,3c0,0,0,1,0,1c-1,0,-1,1,-1,1ZM182.5,436.5c0,0,1,0,1,0c1,-1,1,-1,1,-1c1,0,1,0,2,1c0,1,0,1,0,1c0,1,-1,1,-1,1l-1,0l-1,0l-1,0l2,0c1,-1,1,-1,2,-1c-1,0,-1,0,-1,0c0,0,-1,0,-1,0c0,0,-1,0,-1,0c0,0,-1,0,-1,0c0,0,0,-1,0,-1ZM178.5,446.5l-1,-1l1,-1l1,1ZM176.5,450.5l0,-1c1,0,1,0,1,0l1,-1c1,0,1,0,1,0c1,0,1,0,1,0c0,1,0,1,0,1c0,0,0,1,0,1c0,0,-1,0,-1,0c0,0,0,-1,0,-1c0,0,-1,0,-1,0l-1,1l-1,0c0,0,0,1,0,1l0,1c0,1,0,1,0,1l1,1l-1,1c0,1,-1,1,-1,1c0,-1,0,-1,0,-1l-1,-1c0,-1,0,-1,0,-2c0,-1,0,-1,0,-2c0,0,-1,0,-1,0l-1,0l-1,0c-1,0,-2,0,-2,0c-1,-1,-1,-1,-1,-2l-1,-9l1,-2l1,10l0,1c0,0,1,1,2,1l1,0l1,0c0,0,1,0,2,-1c1,0,1,0,1,0l0,1c-1,1,-1,1,-1,3c0,0,0,1,0,1l0,-1c0,-1,0,-1,0,-1l1,0c0,0,0,-1,0,-1ZM177.5,437.5l4,-2l0,1l-4,2ZM170.5,441.5l4,-2c0,1,0,1,0,1l-4,2ZM233.5,443.5c0,0,-1,1,-2,1c-1,1,-2,1,-3,2c-1,0,-2,0,-2,0c0,0,0,1,0,1l0,1c0,0,0,1,0,1c0,0,0,1,-1,1l-1,0c0,0,-1,-1,-1,-1l-1,0c0,1,-1,1,-1,1l-1,0l-1,0l-1,0c0,0,-1,0,-1,0l-1,0l0,-1c0,0,0,-1,0,-1l0,1c-1,0,-1,0,-1,0c-1,1,-1,1,-2,1c0,0,-1,0,-1,0l-1,0c-1,0,-1,0,-1,0c0,-1,-1,-1,-1,-1l0,-1l1,-1c0,1,0,1,0,1l1,0l1,0l1,0c1,0,1,0,1,0l1,0l0,-1l1,0c0,0,0,-1,0,-1l-1,-2l0,-1l0,-1l1,-1l0,2l0,1l1,2c0,1,0,1,0,1c0,1,0,1,0,1c0,0,1,0,1,1l1,0l1,0c1,0,1,0,1,0l1,-1l0,-1c1,-1,1,-1,1,-1l1,-1l1,0c1,0,2,-1,2,-1c0,0,-1,0,-1,-1c0,0,0,-1,0,-1c0,-1,0,-1,0,-1l0,-1l1,0c0,-1,0,-1,0,-1l1,0c0,-1,0,-1,0,-1c1,0,1,0,2,0c1,0,1,0,1,0l0,1c0,0,1,0,1,0c0,0,0,1,0,1l-1,-1l-1,0l-1,0l0,1c0,0,-1,0,-1,0c0,0,-1,0,-1,0c0,1,0,1,0,1c0,1,1,1,1,1c0,1,1,1,2,1l1,0l1,0l0,-1l1,0l1,0ZM227.5,434.5l5,-2l-1,1l-4,2ZM223.5,447.5l1,1l1,0l0,-1c-1,0,-1,0,-1,0c0,0,-1,0,-1,0ZM221.5,441.5l4,-3l-1,1l0,1l-4,2ZM208.5,457.5l5,-3c0,1,-1,1,-1,1c0,0,0,1,0,1l-5,2ZM209.5,454.5l5,-3c0,1,0,1,0,1l-5,3ZM264.5,454.5l-1,-1l1,-1l1,1ZM262.5,450.5l-1,0l-1,0l-1,0c0,0,-1,0,-1,0c0,0,0,-1,-1,-1c0,0,-1,0,-1,0c-1,1,-1,1,-1,1c-1,0,-1,0,-1,0l-1,0l-1,0c0,0,-1,0,-1,0l-1,0l0,-1c-1,0,-1,0,-1,0c0,0,0,-1,0,-1l0,-1l0,1c0,0,-1,0,-1,0c0,0,-1,0,-1,1l-1,0l0,1c0,1,-1,1,-1,2l0,1c0,0,-1,0,-1,0c0,1,0,1,0,1c0,0,-1,0,-1,0l0,1c-1,0,-1,0,-1,0c-1,0,-1,0,-1,0l-1,0c-1,0,-1,0,-1,0c0,0,0,-1,-1,-1c0,0,1,0,1,0l1,0l1,0l1,0c0,0,0,-1,0,-1c1,0,1,0,1,-1c1,0,1,0,1,-1c0,0,1,-1,1,-1c0,0,0,-1,0,-1l0,-2c1,0,1,0,1,0l1,0c0,0,1,0,1,0c0,-1,0,-1,0,-1c0,0,1,0,1,0l0,-1c0,0,1,0,1,0c0,0,0,1,0,1l0,1c0,0,0,1,0,1c0,0,1,0,1,0c0,0,0,1,0,1c1,0,1,0,1,0l1,0l1,0c0,-1,0,-1,0,-1c1,0,1,0,1,0c0,0,1,0,1,0c0,-1,-1,-1,-1,-1l-1,0l0,-1c0,-1,0,-1,0,-1c1,0,1,-1,2,-1l1,0l1,0c0,0,0,1,1,1c0,1,0,1,0,1l0,1c0,0,-1,0,-1,1l1,0l0,1c1,0,1,0,1,0l1,0l1,0c0,0,1,0,1,-1c1,0,1,0,1,0l1,0l-1,-1l0,-1l0,-2c0,0,1,0,1,1l0,1l0,1l0,1l0,1c-1,1,-1,1,-2,1c0,0,-1,0,-1,0ZM263.5,456.5l-3,2c0,0,0,-1,0,-1l4,-2ZM257.5,443.5l-2,-1l1,-2l1,1ZM254.5,437.5l4,-2l-1,1l-4,2ZM250.5,453.5l-1,-1l-1,2l-1,-1l0,-2l2,1l1,-1l1,1ZM246.5,439.5c1,0,1,0,1,0c1,0,1,0,2,0c0,0,1,0,1,0c0,0,1,0,1,1c-1,0,-1,1,-1,1l-1,1l-1,0l-1,0l1,-1c1,0,1,0,2,-1c0,0,-1,0,-1,0c0,0,-1,0,-1,0c0,0,-1,0,-1,0c0,0,-1,0,-1,1l0,-1l0,-1ZM244.5,456.5l-4,2c0,0,0,-1,1,-1l3,-2ZM329.5,450.5l0,-1l0,-1l-1,-8l1,-3l1,11c-1,1,-1,1,-1,1c0,1,0,1,0,1ZM321.5,449.5c0,0,1,0,1,0l1,-1c1,0,1,0,1,-1l-1,-2l0,-6c0,0,0,-1,0,-1l0,-1l1,0l0,1l1,0c0,0,0,1,0,1c-1,0,-1,1,-1,1c0,0,0,1,0,2c0,0,0,1,0,2c0,1,0,1,0,2l0,1l0,1l0,1l-1,1c0,0,-1,0,-1,0l-1,0l-1,0l-1,0c0,-1,0,-1,0,-1c0,0,0,-1,-1,-1l0,1l-1,0c0,1,0,1,-1,1c0,0,-1,0,-1,-1l-1,0c0,1,-1,1,-1,1c-1,0,-2,0,-2,-1l-1,1c0,0,-1,0,-1,0l-1,0c-1,0,-1,0,-2,0l0,1l0,1c0,0,0,1,-1,1c0,0,0,-1,-1,-1c0,-1,0,-1,0,-2l0,-1c-1,0,-1,1,-1,1c-1,0,-1,0,-2,0l0,-1c0,0,1,0,1,-1c1,0,1,0,1,0c1,-1,1,-1,1,-1c1,0,1,0,2,1c0,0,1,0,1,1l1,0l1,0l1,-1c0,0,1,0,1,-1l1,0l0,1l1,1c0,0,1,-1,1,-1c0,0,1,0,1,-1c0,0,1,0,1,1l1,0c1,0,1,0,1,-1l0,-1l1,0c0,2,1,3,1,3l1,0ZM313.5,440.5l0,1c1,0,1,0,1,0l1,0l0,-1c0,1,0,1,0,1c0,0,1,0,1,0l0,-1l0,-1l1,0l0,1l0,1l-1,0c0,1,0,1,0,1l-1,0c-1,0,-1,1,-1,1c-1,0,-1,0,-1,-1l0,-1l0,-1ZM318.5,438.5l-6,2c0,0,0,-1,1,-1l5,-3ZM300.5,449.5l0,1l-2,0c0,1,0,1,0,1c0,1,0,1,0,2c-1,0,-1,0,-1,1c0,0,-1,0,-1,1l-1,0l0,1c-1,0,-1,0,-1,0c0,0,-1,0,-1,0c-1,0,-1,0,-2,-1l-1,0c1,0,1,0,1,0c0,0,1,0,1,0c0,0,1,0,1,0c1,-1,1,-1,1,-1c1,0,1,0,1,-1c1,0,1,0,1,0c0,-1,1,-1,1,-1c0,0,0,-1,0,-1c0,0,0,-1,0,-1c0,0,-1,0,-1,0c0,0,-1,0,-1,0l0,-1c0,0,-1,0,-1,0c0,-1,1,-1,1,-1c0,0,0,-1,0,-1c0,-1,0,-1,0,-1c0,0,1,0,1,0c0,0,0,-1,1,-1c0,0,0,1,0,1c0,0,1,0,1,0c0,0,0,1,0,1l0,1l0,1c1,0,1,0,2,0ZM296.5,447.5l0,1c-1,0,-1,0,-1,0l1,0c0,1,1,1,1,1c0,-1,0,-1,0,-1l0,-1c0,0,-1,0,-1,0ZM282.5,443.5l-1,2l-2,-1l-1,1l-1,-1l1,-1l1,1l1,-2ZM287.5,448.5c0,1,-1,1,-1,1c-1,1,-2,1,-4,1c-1,1,-2,1,-3,1c-2,0,-3,0,-4,0c-1,-1,-2,-1,-2,-2c-1,0,-1,0,-1,-1c0,-1,0,-1,0,-1c0,-1,0,-1,0,-1c0,-1,1,-1,1,-2l0,1c0,1,0,1,0,1c0,1,0,1,0,1c0,1,1,1,2,2l1,0l1,0l1,0l2,0c0,0,1,0,1,0c1,0,1,0,1,0c1,0,1,0,1,-1l1,0c1,0,2,0,2,0c1,-1,1,-1,2,-1l-1,-1c0,-1,0,-1,0,-1l0,-1c0,0,0,-1,0,-1c1,0,1,1,1,1c0,0,0,1,0,1l0,1c0,0,0,1,0,1c0,1,0,1,-1,1ZM278.5,453.5l-5,3c1,-1,1,-1,1,-2l4,-2ZM353.5,454.5c0,-1,0,-1,0,-1c0,0,1,0,1,1l1,0c0,0,1,-1,2,-1c1,-1,1,-1,2,-1c0,-1,0,-1,1,-2l0,-1c0,0,0,-1,0,-1l0,-1l-1,0l0,-1l1,-1l0,-1l0,1c0,0,1,1,1,2l0,1l0,1c0,0,0,1,0,1c0,1,0,1,0,1l-1,0c0,1,0,1,0,1c0,1,-1,1,-1,1c0,0,0,1,-1,1c-1,0,-1,0,-1,0c-1,0,-1,0,-1,0l-1,0c0,0,-1,0,-1,0l-1,0ZM356.5,441.5l4,-3l0,1c0,0,-1,0,-1,1l-4,2ZM351.5,441.5l-2,-1l1,-2l1,1ZM353.5,448.5l0,1c0,0,-1,0,-1,1c0,0,-1,0,-2,0c0,0,-1,0,-1,0l-1,0l-1,0c0,0,-1,0,-1,0c-1,0,-1,0,-1,0c-1,0,-1,-1,-1,-1c0,0,-1,0,-1,-1c-1,0,-2,1,-2,1l-1,0c0,1,0,1,0,1c-1,1,-1,1,-1,2c-1,1,-1,1,-1,2l0,1c0,0,1,0,1,0c0,1,0,2,1,2c0,0,0,1,0,1l1,0c0,0,1,0,1,0l1,1l1,0c1,0,1,0,1,0c0,0,1,0,1,0c1,0,1,0,2,0l1,0l1,0l-3,2c-1,0,-2,0,-2,0c-1,0,-1,0,-2,0c0,0,-1,-1,-1,-1c-1,0,-1,0,-2,0c0,-1,-1,-1,-1,-1c-1,-1,-1,-1,-1,-2c0,0,-1,-1,-1,-1l0,-1c0,-1,0,-2,1,-3c0,-1,0,-1,0,-1c1,-1,1,-1,1,-1c0,-1,1,-1,1,-1c0,-1,1,-1,1,-1l1,-1c0,0,-1,0,-1,0c0,-1,0,-1,-1,-1l1,-2l1,0l1,0c0,0,1,0,1,0c1,0,1,0,1,0c0,1,0,1,0,1l0,1c0,0,0,1,0,1c0,0,-1,0,-1,0l0,1l1,0l1,1c0,0,1,0,1,0l1,0l1,0c0,0,1,0,1,-1c1,0,2,0,2,0c0,0,0,-1,1,-1c0,-1,-1,-1,-1,-1c0,0,0,1,0,1l-1,0c-1,0,-1,0,-1,0c-1,-1,-1,-1,-1,-1l0,-1l0,-1l0,-1c1,0,1,0,1,0c0,-1,1,-1,1,-1c0,0,1,0,1,0c0,0,0,1,1,1l0,1l0,1c0,1,0,1,0,2c0,0,0,1,0,1ZM350.5,444.5l0,1l1,0c0,0,1,0,1,0c0,0,0,-1,0,-1l-1,0c-1,0,-1,0,-1,0ZM349.5,434.5l4,-2l0,1l-4,2ZM341.5,437.5l4,-2l0,1l-1,0l-4,2ZM402.5,450.5l0,-1l0,-1l0,-8l1,-3l0,11c0,1,0,1,0,1c0,1,-1,1,-1,1ZM395.5,451.5c-1,0,-1,0,-1,-1l0,-1c0,0,-1,-1,-1,-1c0,0,0,1,0,1l-1,0c0,1,-1,1,-1,1c-1,0,-1,0,-2,0l-1,0c-1,0,-1,0,-1,-1c0,-1,0,-1,0,-1c0,0,0,-1,0,-1c0,0,0,1,1,1c1,0,1,0,1,0l1,0c1,0,1,0,1,0c1,0,1,0,1,0c0,0,1,-1,1,-1c0,0,0,-1,0,-1c0,-1,0,-1,0,-2c-1,0,-1,-1,-1,-1c0,0,1,-1,1,-1c0,0,0,-1,0,-1l0,2c1,0,1,0,1,1c0,1,0,2,0,2c0,1,0,1,0,1c0,0,0,1,0,1l0,-1c0,1,1,1,1,1c0,1,0,1,0,1c1,1,1,1,1,1c0,0,1,0,1,0c1,0,1,0,1,0c0,-1,0,-2,-1,-3c0,0,0,-1,0,-2c0,0,0,-1,0,-1c0,-1,0,-2,0,-2c0,-1,0,-2,0,-3c0,0,0,-1,0,-1l0,-1l1,0l0,1l1,0c0,0,0,1,0,1c0,0,-1,1,-1,1c0,0,0,1,0,2c0,0,0,1,0,2c1,1,1,1,1,2l0,1c0,1,0,2,0,2c0,0,0,1,0,1c0,0,-1,0,-1,0c0,0,0,1,0,1c0,1,0,1,0,1c-1,0,-1,0,-1,0c0,0,-1,0,-1,0c0,-1,-1,-1,-1,-1ZM397.5,432.5l0,1c0,0,1,0,1,0l0,-1c0,0,0,1,0,1c1,0,1,0,1,0c0,0,0,-1,0,-1l1,-1l0,1l0,1c0,0,-1,1,-1,1c-1,0,-1,0,-1,0c-1,0,-1,1,-1,1c0,0,-1,-1,-1,-1l0,-1l0,-1ZM401.5,429.5l-6,3c0,-1,1,-1,1,-1l5,-3ZM392.5,440.5l-2,-1l1,-2l2,1ZM390.5,453.5l-4,3c0,-1,0,-1,0,-2l4,-2ZM383.5,444.5c0,-1,-1,-1,-1,-1l-1,0c0,0,0,1,0,1c0,0,-1,0,-2,1c0,0,-1,1,-1,1c0,1,1,1,1,1c0,1,1,1,1,1l1,0c1,0,1,0,2,0l0,1c0,0,0,1,0,1c0,0,-1,0,-1,1l-1,1c0,0,-1,0,-1,1c-1,0,-2,0,-3,0c0,1,-1,1,-2,1l-1,0c0,0,-1,0,-1,0c-1,-1,-1,-1,-2,-1c0,-1,-1,-1,-1,-1c0,-1,0,-1,0,-2c0,-1,0,-2,0,-2c0,-1,1,-1,1,-2c0,0,0,-1,0,-1l1,0l0,1c0,0,-1,0,-1,0c0,1,0,1,0,1c0,0,0,1,0,1l0,1c0,0,0,1,0,1c0,0,0,1,1,1c0,1,2,1,3,1c1,0,2,0,3,-1l2,0c0,0,1,0,1,0l0,-1c0,0,1,0,1,0l0,-1l-2,0c-1,0,-2,0,-2,0c-1,-1,-1,-1,-1,-2c0,-1,0,-1,1,-2l0,-1c1,0,1,0,1,0c0,-1,1,-1,1,-1c0,-1,1,-1,1,-1c1,0,1,0,2,0c1,0,1,0,1,0l0,1c0,1,-1,1,-1,1ZM303.5,441.5l0,-1c0,0,0,-1,0,-1c0,-1,0,-1,-1,-2l1,0l0,-1c0,0,0,1,0,1c1,1,1,1,1,1l0,1c0,0,0,1,0,1c-1,0,-1,1,-1,1ZM296.5,441.5c0,-1,0,-1,0,-2c0,0,-1,-1,-1,-1l1,-1l0,1l0,1l1,0l0,1c0,0,-1,0,-1,0c0,0,0,1,0,1ZM373.5,435.5c0,0,1,0,1,0c0,0,1,0,1,0c1,0,1,0,2,0c0,1,0,1,0,1l0,1c-1,0,-1,0,-1,0c0,0,-1,0,-1,0c0,1,0,1,-1,1l-1,-1l2,0c1,0,1,-1,2,-1c-1,0,-1,0,-1,0c-1,0,-1,0,-1,0c0,0,-1,0,-1,0c-1,0,-1,0,-1,0c0,-1,0,-1,0,-1ZM48.5,392.5l0,-1c0,0,1,0,1,0c1,0,1,1,1,1c0,0,0,1,0,1c-1,0,-1,1,-1,1l1,0l0,1l-1,0l-1,0l0,1c-1,0,-1,0,-1,0l0,1l-1,0c-1,0,-1,0,-1,0l1,-1l1,0c0,0,0,-1,0,-1l1,0l0,-1c-1,0,-1,0,-1,-1l1,-1ZM49.5,392.5l-1,0c0,1,0,1,0,1l1,0ZM66.5,404.5l0,-1l0,-1l-1,-9l1,-2l1,11c-1,0,-1,0,-1,1c0,0,0,1,0,1ZM61.5,403.5c-1,0,-1,0,-2,0c0,0,-1,-1,-1,-2c0,1,0,2,0,2c-1,1,-1,1,-2,1c-1,0,-1,0,-2,-1c0,0,0,-1,-1,-2l0,1l-1,0c0,1,0,1,-1,1c-1,0,-1,0,-1,0c-1,-1,-1,-1,-1,-1c0,-1,0,-1,0,-2c1,0,1,0,1,0c1,-1,1,-1,2,-1l1,-1l0,-1l0,-1c1,0,1,0,1,0l0,1l0,1l0,2c0,1,0,1,0,1c1,0,1,0,1,0c0,1,1,1,1,1c0,0,1,0,1,-1c0,0,1,0,1,-1c0,0,0,-1,0,-2c0,0,0,-1,-1,-1c0,-1,0,-1,0,-1l0,-1l1,-1l0,-1l0,3l1,2l0,1l0,1l0,1c0,0,1,0,1,0l1,1c0,0,1,-1,1,-1c0,-1,0,-1,0,-1l-1,-2l0,-1l0,-1c0,-1,0,-1,0,-1l0,-1c0,0,1,1,1,1c0,0,0,1,0,1l0,2c0,1,1,2,1,2c0,1,-1,1,-1,2c0,0,0,1,0,1c-1,0,-1,0,-1,0ZM53.5,399.5c-1,0,-1,0,-1,0c0,1,0,1,0,1c-1,0,-1,0,-1,1c0,0,1,0,2,0c0,-1,0,-1,0,-1ZM94.5,401.5c0,1,0,2,-1,2c0,1,0,1,0,1l0,1c-1,0,-1,0,-1,0l1,1l-1,1l-1,0l0,1c0,0,-1,0,-1,1l-1,0l-1,0l-1,1l-1,0l0,1l-1,1l-2,0c0,0,0,-1,0,-1l-1,-1c0,0,-1,0,-1,0c-1,-1,-2,-1,-2,-1l-1,0l0,-1l-1,0l0,-1l-1,0l-1,-1l1,-1l-1,0l0,-1l0,-1l-1,0c0,-1,0,-1,0,-1l0,-1l0,-1c0,0,1,-1,1,-2l1,-1l-1,0c0,0,0,-1,0,-1l1,0l0,-1l1,0l1,-1l1,0l2,-1l1,0l1,-1c0,-1,0,-1,0,-1l2,0l0,1l1,0l1,1l2,1l1,0l1,0l0,1l1,1c1,0,1,0,1,1l-1,0l1,1l0,1l1,1ZM85.5,412.5l0,-1l1,-1l1,-1c0,0,1,0,1,0l1,0c1,-1,1,-1,2,-1l0,-1c0,0,1,0,1,0l1,-1l-1,0l0,-1l1,-1l0,-1l0,-1l0,-1c0,-1,0,-1,0,-2l0,-1c0,0,-1,0,-1,0l0,-1l1,0c0,-1,-1,-1,-1,-1l-1,-1l-1,0l0,-1l-2,0l-1,-1c0,0,-1,0,-1,0l-1,-1l0,-1l-2,0l0,1l-1,1c0,0,-1,0,-1,0l-2,1l-1,0l0,1l-1,0l-1,1l-1,1l1,0l0,1l-1,1l0,1l0,1l0,1l0,1l0,1l1,1c0,0,0,1,0,1l-1,0l1,0l0,1l1,0l0,1l1,0l1,1l1,0l1,0c0,0,1,1,1,1l1,1l0,1ZM90.5,397.5l-1,0l0,-1l-1,0l0,-1c0,0,-1,0,-1,0l0,-1c0,0,0,1,0,1l1,0c1,0,1,0,1,0c0,1,1,1,1,1ZM90.5,406.5l0,1l-1,0l0,1l-1,0l-1,0l0,-1c0,0,1,0,1,0l1,0c0,0,1,-1,1,-1ZM86.5,408.5c0,1,0,1,0,1c-1,0,-1,1,-1,1l-2,0c0,0,0,-1,-1,-1c0,0,0,-1,0,-1l0,-1c0,0,1,0,1,0l2,0l1,0l0,1ZM86.5,394.5c0,1,0,1,0,1c0,0,-1,0,-1,1l-2,0l-1,-1l0,-1l1,-1l2,0l1,1ZM85.5,397.5c1,-1,1,-1,1,-1c1,0,1,1,2,1l0,1l1,0l1,0l1,0l0,1l0,1l0,1l0,1c0,0,0,1,0,1l0,1c-1,1,-1,1,-1,1l-1,0l-1,1l-1,0l-1,0c-1,0,-1,0,-1,0l-2,0c-1,0,-1,0,-1,0c-1,0,-1,0,-2,0l-1,-1l-1,0l-1,-1l0,-1l0,-1l0,-1l0,-1l0,-1l0,-1c1,0,1,0,1,0l1,0l1,0l0,-1c1,0,1,-1,2,-1l0,1l1,0ZM85.5,405.5l0,1c1,0,1,0,1,0l1,0l1,0l0,-1l1,0c0,-1,0,-1,0,-1l1,1l0,-1l1,-1l0,-1l0,-1c0,0,0,-1,0,-1c0,-1,0,-1,-1,-1c0,-1,0,-1,0,-1l-1,0l-1,0l0,-1l-1,0l-1,0l-1,0l-2,0l-1,0c-1,0,-1,0,-1,0l-1,0l0,1l-1,0l-1,0l0,1l-1,0l0,1l0,1l0,1l0,1c0,1,1,1,1,2l1,-1l0,1l1,0l0,1l1,0l1,0c1,0,1,0,1,-1l2,0ZM84.5,400.5l0,1l1,1l0,1l-1,0c0,1,0,1,0,1l0,-1c0,-1,0,-2,-1,-3ZM78.5,397.5l0,-1l1,-1l1,0l1,0l0,-1l0,1c0,0,-1,0,-1,0l0,1l-1,0l-1,1ZM77.5,406.5l1,0c0,0,1,1,1,1l1,0l1,0c0,1,0,1,0,1l-1,0c-1,0,-1,-1,-2,-1l0,-1ZM148.5,407.5l-2,-1l0,1l-2,-1l1,-1l2,1l0,-1l2,1ZM145.5,404.5l-1,0l-1,0c-1,0,-1,1,-1,1c0,0,0,1,0,1c0,1,-1,1,-1,1c0,1,0,1,-1,1c0,0,0,1,-1,1c0,0,-1,0,-1,0c0,0,-1,0,-1,0c-1,0,-1,0,-2,0l-1,-1l1,0c0,0,1,0,1,0c0,0,1,0,1,0c1,0,1,0,2,0c0,-1,0,-1,0,-1c1,0,1,-1,1,-1c0,0,1,0,1,-1c0,-1,0,-1,0,-1l1,0c-1,0,-1,0,-1,0l-1,0l-1,0c0,-1,0,-1,0,-1l0,-1l0,-1c0,-1,0,-1,0,-1l1,0c0,-1,0,-1,0,-1c0,0,1,0,1,0c1,0,1,1,1,1c0,1,0,1,0,1c1,1,1,1,1,1l1,0c0,0,1,0,1,0c0,0,1,0,2,0l1,0l0,-1l-1,-1l0,-1l1,-1l0,1c0,0,0,1,0,1c0,0,0,1,0,1c0,0,0,1,0,1c0,0,0,1,0,1c0,0,-1,0,-2,1l-1,0ZM147.5,388.5c0,0,1,-1,1,-1l1,0l0,1l0,1l0,1l1,0l-1,1l-1,0l-1,0c0,1,0,1,0,1l-1,0l-1,0l1,0l0,-1c0,0,1,0,1,0l1,-1l-1,0c0,0,0,-1,0,-1c0,0,0,-1,0,-1ZM148.5,388.5l0,1c0,0,0,-1,0,-1ZM138.5,395.5c0,0,1,0,1,0c0,-1,0,-1,0,-1c1,-1,1,-1,2,-1c0,1,0,1,0,1l0,1l-1,0l-1,0c0,1,1,1,1,1c1,0,1,0,1,0l1,0c0,0,0,1,0,1l-4,1c0,-1,0,-1,1,-1c0,0,-1,-1,-1,-1ZM140.5,401.5c0,1,0,1,0,1c0,0,1,0,1,0l1,0c-1,0,-1,0,-1,0c0,0,0,-1,0,-1l-1,0ZM115.5,392.5l1,0c0,0,1,0,1,0c0,0,1,0,1,0c1,0,1,0,1,1c0,0,0,1,-1,1c0,0,-1,0,-1,1c0,0,-1,0,-1,0l-1,0l2,-1c0,0,1,0,1,-1l-1,0c-1,0,-1,0,-2,0l-1,0c0,0,1,0,1,0c0,0,0,-1,0,-1ZM136.5,389.5c0,0,1,0,1,0c0,0,1,0,1,0c1,0,1,0,2,0l0,1c0,0,0,1,0,1c-1,0,-1,0,-1,1c-1,0,-1,0,-1,0c0,0,-1,0,-1,0c0,0,-1,0,-1,0l2,-1c1,0,1,0,1,-1c-1,0,-1,0,-1,0c-1,0,-1,0,-1,0c-1,0,-1,0,-1,1l0,-1l0,-1ZM133.5,403.5l-1,0c-1,0,-1,0,-1,0l-1,-1l0,1c-1,0,-1,0,-1,1l-1,0l-1,0l-1,0c-1,0,-1,0,-1,0c0,-1,0,-1,0,-1c0,0,-1,0,-1,0c0,-1,0,-1,0,-1c0,0,0,1,0,1c0,0,-1,0,-1,0c0,0,-1,1,-1,1c0,0,-1,0,-1,0l-1,0l-1,0c0,0,0,1,-1,1c0,0,0,1,0,1c0,1,0,1,-1,1c0,1,0,1,-1,1c0,0,0,1,0,1c-1,0,-1,0,-1,0c0,0,-1,0,-1,0l-1,0c0,0,-1,0,-2,0l0,-1l1,0c1,0,1,0,1,0c1,0,1,0,2,0c0,-1,0,-1,1,-1c0,0,0,-1,0,-1c1,0,1,0,1,-1c0,-1,1,-1,1,-1c-1,0,-1,0,-1,0c-1,0,-1,0,-1,0c-1,-1,-1,-1,-1,-1l0,-1l0,-1c0,-1,0,-1,0,-1c0,0,1,0,1,0c0,-1,0,-1,0,-1c1,0,1,0,1,0l1,0c0,0,0,1,0,1c0,1,1,1,1,1c0,1,0,1,0,1c0,0,1,0,1,0c1,0,1,0,2,0c0,0,1,0,1,0c0,-1,1,-1,1,-1c0,0,1,0,1,0c0,1,0,1,0,1c1,0,1,0,1,0l1,0l1,0c1,0,1,0,1,0l1,0l0,-1c0,-1,1,-1,1,-2c1,0,1,0,1,0c0,0,1,0,1,0c0,0,0,1,1,1l0,1l0,1l0,1c-1,0,-1,0,-1,0ZM131.5,401.5l1,0l1,1c0,-1,0,-1,-1,-1c0,-1,0,-1,0,-1c-1,0,-1,0,-1,1ZM132.5,407.5l-4,2c0,0,0,-1,0,-1l4,-2ZM123.5,400.5l-1,-1l1,-2l1,1ZM123.5,388.5c0,0,1,-1,1,-1l1,0c0,0,1,0,1,1l-1,1l0,1l1,0l0,1l-2,0c-1,1,-1,1,-1,1l-1,0l-1,0l1,0l1,-1l1,-1l-1,0c0,0,0,-1,0,-1c0,0,0,-1,0,-1ZM125.5,388.5l-1,0l0,1l1,0c0,0,0,-1,0,-1ZM117.5,401.5c-1,0,-1,0,-1,0c0,1,0,1,0,1c1,0,1,0,1,0c1,0,1,0,1,0c-1,0,-1,-1,-1,-1ZM105.5,398.5l-1,-1l1,-2l1,1ZM105.5,407.5c0,0,-1,0,-1,0c-1,0,-1,-1,-2,-1c0,0,-1,0,-1,-1c0,-1,0,-1,0,-2l0,-1c0,0,0,-1,0,-1l0,-1c0,0,1,0,1,0c0,0,0,-1,0,-1l1,1c-1,0,-1,0,-1,0c0,1,0,1,0,1l0,1l0,1l0,1l1,0c0,0,0,1,0,1c0,0,1,0,1,0c0,0,1,0,2,0c0,0,1,0,2,0c0,-1,1,-1,1,-1c0,-1,1,-1,1,-1c0,-1,0,-1,0,-1l0,-1c0,0,-1,-1,-1,-1l0,-1l-1,-1l1,-2c0,0,0,1,0,1c1,0,1,0,1,0c0,1,0,1,0,1c0,0,0,1,0,1l0,1c1,0,1,0,1,1c0,0,0,1,0,1c0,1,-1,1,-1,2c0,0,0,1,-1,2c0,0,-1,0,-2,1c-1,0,-1,0,-2,0ZM101.5,391.5l5,-2l-1,0l0,1l-4,2ZM165.5,402.5l0,1l-1,0l1,0l1,0l-1,0ZM166.5,405.5l-1,0c0,0,-1,0,-1,0c0,0,-1,0,-2,0c0,0,-1,0,-1,0c0,-1,0,-1,0,-1c0,-1,0,-1,0,-1c0,0,1,0,1,1c1,-1,1,-1,1,-1l1,-1c0,0,1,0,1,-1c0,0,-1,0,-1,-1l-1,0c0,-1,-1,-1,-1,-2c0,0,-1,-1,-1,-1c-1,-1,-1,-1,-1,-1c0,0,-1,-1,-1,-1l0,1l-1,0l0,-1c0,0,-1,0,-1,-1c0,-1,0,-1,0,-1c0,0,0,-1,0,-1l1,0l1,1c0,0,1,1,1,1c1,1,2,1,2,2c1,1,1,1,2,2c0,1,1,1,1,1c0,1,0,1,0,1l1,-1c0,-1,0,-1,0,-2c0,-1,0,-1,0,-2l0,-1c0,-1,0,-1,0,-1c0,-1,0,-1,0,-1c0,-1,0,-1,0,-1c0,-1,0,-1,1,-1c0,1,0,1,0,1c0,1,1,1,1,1l0,1c-1,0,-1,0,-1,0c0,1,0,1,0,1c0,0,0,1,0,1c0,1,0,1,0,2c0,0,0,1,0,1c0,1,-1,1,-1,2c0,0,0,1,0,1l0,1c0,0,0,1,0,1l0,1c0,1,0,1,0,1ZM163.5,388.5l5,-3c0,1,0,1,-1,1l-5,3ZM215.5,404.5l0,-1l0,-1l-1,-9l1,-2l1,11l0,1c-1,0,-1,1,-1,1ZM207.5,402.5c1,0,1,0,1,0c1,0,1,0,1,0c0,0,1,0,1,0c0,-1,0,-1,0,-1l0,-2l-1,-6c0,-1,0,-1,0,-1c0,-1,0,-1,0,-1c1,-1,1,-1,1,-1c0,1,0,1,0,1c1,0,1,1,1,1l0,1c0,1,0,2,0,2c0,1,0,1,0,3c0,0,0,1,0,1l0,1c0,1,0,1,0,1l0,1c-1,0,-1,1,-1,1l-1,1l-1,0l-1,0l-1,0c-1,0,-1,0,-1,0c0,-1,0,-1,0,-1c0,0,-1,0,-1,0c0,-1,0,-1,0,-1c0,0,0,1,0,1l-1,0c0,0,-1,1,-1,1c0,0,-1,0,-1,0l-1,0l-1,0c-1,0,-1,0,-2,-1c0,0,0,-1,0,-2l-1,-8l1,-2l0,9l0,1l1,0l0,1c0,0,1,0,1,0l1,0c1,0,1,0,2,0c0,0,1,0,1,0c0,-1,1,-1,1,-1c1,0,1,0,1,0c0,1,0,1,0,1c1,0,1,0,1,0l1,0ZM203.5,400.5l-1,-1l1,-2l1,1ZM202.5,389.5l0,1c0,0,0,1,0,1c1,0,1,-1,1,-1l0,-1l1,0l0,1c0,0,1,0,1,-1l0,-1l0,1l0,1c0,1,0,1,0,1l-1,0l-1,0c0,1,0,1,-1,1l0,-1l0,-1l0,-1ZM206.5,387.5l-6,2c1,0,1,-1,1,-1l6,-3ZM178.5,411.5l-1,-1c0,0,-1,0,-1,0c0,0,0,-1,0,-1c-1,0,-1,0,-1,0c0,-1,0,-1,0,-1l0,-1c0,0,0,-1,0,-1l0,-1c0,0,0,-1,1,-1l0,-1l1,0c0,0,0,1,0,1c-1,0,-1,0,-1,0c0,0,0,1,0,1l0,1c0,1,0,1,0,1c0,1,1,1,1,1l1,1l1,0c0,0,1,0,1,0c1,0,1,0,1,0c1,0,1,0,2,-1l1,0l0,-1l1,0l0,-1l0,-1c0,0,0,-1,0,-1l-1,-1l1,-2l0,1l1,0l1,0c0,0,1,0,1,0l1,0l0,-1l0,-1l1,0l0,1l0,1c0,0,1,0,1,0l1,0l0,-1l0,-1l1,0l0,1l0,1l0,1c0,0,-1,0,-1,0c0,1,0,1,-1,1c-1,0,-1,-1,-1,-1l-1,0c-1,0,-1,1,-1,1l-1,0l-1,0l0,1c0,1,0,1,0,1l-1,1c0,1,0,1,0,1c0,1,-1,1,-1,1c0,0,-1,1,-1,1c0,0,-1,0,-1,0c0,1,-1,1,-1,1l-1,0l-1,0c-1,0,-1,0,-1,0ZM185.5,412.5l-4,2c0,0,0,-1,0,-1l4,-2ZM257.5,403.5c0,0,-1,0,-2,0c-1,0,-2,0,-4,0c-1,0,-2,0,-2,0c0,0,-1,0,-1,0c-1,0,-1,0,-1,0c-2,1,-3,1,-5,1c-1,0,-2,0,-3,0c-1,0,-2,0,-3,0l-1,0c-1,0,-1,0,-2,0c0,-1,-1,-1,-1,-1l0,-1l0,-1c0,0,-1,0,-1,0l0,1l-1,0c0,0,-1,0,-1,0l0,1l-1,0c0,0,0,1,0,1c0,0,0,1,0,1c0,1,-1,1,-1,1c0,1,0,1,0,1l-1,1l-1,0l-1,0c0,1,0,1,-1,1l-1,-1c-1,0,-1,0,-1,0l-1,0l1,0c0,0,0,-1,0,-1c0,0,0,1,1,1c0,0,1,0,1,0l0,-1c1,0,1,0,1,0c1,0,1,0,1,0c0,0,0,-1,1,-1c0,0,0,-1,1,-1c0,-1,0,-1,0,-2c1,0,1,0,1,0l0,-1l-1,1l1,-3l1,0l1,0c0,0,1,0,1,0l0,-1l1,0l0,1l0,1c0,0,1,0,1,0c0,1,0,1,0,1l1,0l1,0c0,0,1,0,1,0l1,0c1,0,2,0,3,0c1,0,2,0,3,0c1,0,2,0,4,0l2,0c0,0,1,-1,3,-1c1,0,2,0,3,0c2,0,3,0,3,0l1,0c0,0,-1,0,-1,-1c-1,0,-1,0,-1,0c-1,0,-1,0,-1,0c-1,0,-3,0,-5,0c-1,0,-3,0,-5,0c-2,0,-4,0,-5,0c-2,0,-3,0,-3,0c-1,0,-1,0,-1,0c0,-1,0,-1,0,-1c0,0,0,-1,1,-1c0,-1,0,-1,0,-1c0,0,1,-1,1,-1c1,-1,2,-2,3,-2c1,-1,1,-1,2,-2c0,0,1,0,1,0l-1,2l-1,0c-1,1,-1,1,-2,2c-1,1,-2,1,-2,2c-1,0,-1,0,-1,0c0,0,1,0,1,1c0,0,1,0,1,0c0,0,1,0,1,0l1,0c1,0,2,0,4,0c2,-1,4,-1,6,-1c2,0,3,0,4,0c1,0,2,0,2,0c1,1,1,1,1,1c0,1,0,1,0,1c0,1,0,1,0,2c0,0,0,1,0,1ZM243.5,386.5c1,0,1,0,1,-1c1,0,1,0,2,0c0,0,1,0,1,1c1,0,1,0,1,0c0,1,-1,1,-1,1c0,1,0,1,-1,1c-1,0,-1,0,-1,0l-1,0l1,0c1,-1,2,-1,2,-1c0,0,-1,0,-1,0l-1,0c0,0,-1,0,-1,0l-1,0c0,0,0,-1,0,-1ZM230.5,394.5l-1,-1l1,-2l1,1ZM232.5,396.5l-2,-1l0,1l-2,-1l1,-1l1,1l1,-1l2,0ZM230.5,388.5l4,-2c-1,0,-1,1,-1,1l-4,2ZM223.5,391.5l4,-2l0,1c-1,0,-1,0,-1,0l-4,2ZM304.5,400.5c-1,0,-1,0,-1,0c0,1,0,1,0,1l1,0c0,-1,0,-1,0,-1ZM304.5,408.5c-1,0,-1,0,-1,0l-1,0c0,1,-1,1,-1,1l-1,0c0,0,-1,0,-1,-1c-1,0,-1,0,-1,0l0,-1c0,1,0,1,1,1c1,0,1,0,1,0c0,0,1,0,1,0c0,-1,0,-1,0,-1c1,0,1,0,1,0c0,0,1,-1,1,-1c1,0,1,0,1,-1l1,-1c0,0,0,-1,0,-1l0,-1c0,1,0,1,0,1c-1,0,-1,0,-1,0l-1,0c0,0,-1,0,-1,0c0,-1,0,-1,0,-1c0,-1,0,-1,0,-1c0,-1,0,-1,0,-1c0,0,0,-1,1,-1c0,0,0,-1,0,-1c0,0,1,0,1,0l1,0c0,0,0,1,0,1c0,0,1,0,1,1l0,1c0,0,0,1,0,1c0,0,0,1,0,1c0,1,-1,2,-1,3l-1,1l0,1ZM301.5,394.5l4,-2l0,1c0,0,-1,0,-1,0l-4,2ZM294.5,402.5c0,0,1,0,1,0c0,0,1,0,1,0c1,-1,1,-1,1,-1l0,-2l-1,-6c0,-1,0,-1,0,-1c0,-1,0,-1,0,-1c0,-1,1,-1,1,-1c0,1,0,1,0,1c0,0,1,1,1,1l0,1c0,0,-1,0,-1,0c0,1,0,2,0,2c0,1,0,1,0,3c1,0,1,1,1,1l0,1c0,1,0,1,-1,1l0,1c0,0,0,1,0,1c-1,0,-1,0,-1,1l-1,0l-1,0l-1,0l-1,-1l-1,0l-2,-2c-1,-1,-1,-1,-1,-1l-1,-1l0,1l0,1c0,0,0,1,0,1c0,0,0,1,-1,1c0,1,-1,1,-1,1c0,0,-1,0,-1,0l-1,0l-2,0c0,1,0,1,0,1c0,1,0,1,0,1c0,0,0,1,0,2c0,0,-1,1,-1,1c-1,1,-1,1,-2,1c-1,1,-2,1,-2,1c-1,0,-2,0,-2,0c-1,-1,-1,-1,-2,-1c0,0,0,-1,-1,-1c0,-1,0,-1,0,-2c0,0,0,-1,0,-1l0,-1c0,0,0,-1,1,-1c0,-1,0,-1,0,-1l1,0c0,1,-1,1,-1,1c0,0,0,1,0,1c0,1,0,1,0,1c0,1,0,1,0,1c0,1,0,1,1,1c0,0,1,1,1,1c0,0,1,0,2,0c1,0,1,0,2,0c1,-1,2,-1,2,-2c1,0,1,0,1,-1l0,-1c0,0,-1,0,-1,0c0,0,0,-1,0,-1l0,-1l0,-2c1,0,1,1,1,1l1,0l1,0l1,0c0,0,1,0,1,0l1,0c0,0,0,-1,0,-1c1,0,1,0,1,0l0,-1l-1,0c0,-1,0,-1,0,-1c0,0,0,-1,-1,-1l-1,0c0,-1,0,-1,-1,-1c-1,0,-1,0,-1,-1l0,-1c0,-1,0,-1,0,-1c0,0,0,-1,0,-1c1,0,1,0,1,0c0,0,1,-1,3,-1c1,-1,2,-1,4,-2c2,0,2,-1,3,-1l1,0l-1,2c0,0,-1,0,-1,0c0,0,-1,0,-2,1c-2,0,-3,1,-4,1c-2,1,-3,1,-3,1c0,1,0,1,0,1c0,0,-1,0,-1,0l2,0c0,1,0,1,1,1l1,0l0,1c1,0,1,0,2,1c0,0,1,1,1,1c1,1,2,1,2,2l2,1l1,0ZM293.5,407.5l-5,2c1,0,1,0,1,-1l4,-2ZM276.5,402.5l-1,-1l1,-2l1,1ZM276.5,390.5l0,1l1,0l0,-1l1,0l0,1c0,0,1,-1,1,-1l0,-1l0,1l0,1c0,0,0,1,-1,1l-1,0l0,-1l0,1c0,0,-1,0,-1,0c0,0,-1,0,-1,0l0,-1l1,-1ZM280.5,387.5l-6,3c1,-1,1,-1,1,-1l5,-3ZM346.5,404.5l0,-1l0,-1l-1,-9l1,-2l1,11l0,1c-1,0,-1,1,-1,1ZM338.5,402.5c1,0,1,0,1,0c1,0,1,0,1,0c0,0,1,0,1,0c0,-1,0,-1,0,-1l0,-2l-1,-6c0,-1,0,-1,0,-1c0,-1,0,-1,0,-1c1,-1,1,-1,1,-1c0,1,0,1,0,1c1,0,1,1,1,1l0,1c0,1,0,2,0,2c0,1,0,1,0,3c0,0,0,1,0,1l0,1c0,1,0,1,0,1l0,1l-1,0c0,0,0,1,0,1c0,0,-1,0,-1,1l-1,0l-1,0l-2,0c-1,0,-2,0,-2,-1c-1,0,-1,0,-1,-1l0,-1l-1,0l-1,0l-4,2c0,0,-1,0,-1,1c-1,0,-1,0,-1,0l-1,0l-1,0l-1,0l0,1c0,0,0,1,0,1l0,1c-1,0,-1,1,-3,2c-1,0,-2,1,-3,1l-1,0c0,0,-1,-1,-1,-1c-1,0,-2,0,-2,-1c0,0,-1,-1,-1,-2c0,-1,0,-1,1,-2c0,0,0,-1,1,-2c0,0,0,-1,0,-1l0,1l0,1c-1,1,-1,1,-1,2c0,0,0,1,1,1c0,1,0,1,0,1l1,0c0,1,1,1,1,1c1,0,1,0,1,0c1,0,1,0,1,0c0,0,1,0,1,-1c1,0,1,0,2,0c0,0,0,-1,1,-1l0,-1c0,0,1,0,1,0l0,-1l-2,0c0,0,-1,0,-1,0l0,-1c0,0,-1,0,-1,0c0,0,0,-1,0,-1c0,0,0,-1,0,-1c1,-1,1,-1,1,-1c0,-1,1,-1,1,-1c0,0,1,0,1,1c0,0,1,0,1,1c0,1,0,1,0,1l1,0l1,0c1,0,1,0,1,0c1,0,1,0,1,0c1,0,1,0,2,-1l1,0l1,0l0,-1l-2,0c0,0,-1,-1,-2,-1l-1,0l0,1l-1,0l1,-1c0,-1,0,-1,0,-1c1,0,1,0,2,0l1,0c0,0,1,0,1,0c1,1,2,1,3,1c1,0,2,1,2,1c1,0,1,0,2,0l0,1l-1,0l-1,0c0,0,0,1,0,1c1,0,1,0,1,0l1,0l2,0ZM338.5,386.5c1,0,1,0,1,0c1,-1,1,-1,2,-1c0,0,1,0,1,1c1,0,1,0,1,0c0,1,-1,1,-1,1c0,1,0,1,-1,1c-1,0,-1,0,-1,0l-1,0l1,0c1,0,2,-1,2,-1c0,0,-1,0,-1,0l-1,0c0,0,-1,0,-1,0l-1,0c0,0,0,-1,0,-1ZM327.5,391.5l4,-2l0,1l-4,2ZM321.5,398.5l-2,-1l-1,1l-1,-1l1,-1l1,1l1,-2l1,1ZM319.5,401.5c0,1,0,1,0,1c0,0,1,0,1,0l1,0c0,-1,-1,-1,-1,-1c0,0,-1,0,-1,0ZM317.5,390.5l0,1c1,0,1,0,1,0l1,-1l0,1l1,0c0,0,0,-1,0,-1l0,-1l1,0l0,1l-1,0l0,1c0,0,0,1,0,1l-1,0l0,-1l0,1l-1,0c-1,0,-1,0,-1,0l0,-1l0,-1ZM319.5,385.5c0,0,0,-1,0,-1c1,0,1,0,1,0c1,0,1,0,1,1l0,1l-1,1l1,0l0,1l-1,0l-1,0c0,1,-1,1,-1,1c0,0,-1,0,-1,0l-1,0c1,0,2,-1,3,-2c0,0,-1,-1,-1,-1l0,-1ZM320.5,385.5l-1,0l0,1l1,0l0,-1ZM375.5,407.5l1,0l1,0c1,0,2,0,3,-1l1,-1c0,0,1,-1,1,-1c0,-1,0,-1,0,-1c1,0,1,-1,1,-1l-1,0l0,-1l0,-1c0,0,-1,0,-1,0l1,-1l0,-1l1,1l0,1l0,1l0,1c0,1,0,1,0,2c0,0,0,1,0,1c-1,0,-1,1,-1,1c0,0,0,1,-1,1l-1,1c0,0,-1,0,-1,0c0,0,-1,0,-1,0c-1,0,-1,0,-1,0c-1,0,-1,0,-1,-1ZM382.5,392.5l0,1c0,1,0,1,0,1l0,-1c0,0,1,0,1,0l0,-1l0,1c1,0,1,0,1,0l0,-1l0,-1l1,0l0,1l0,1c0,1,-1,1,-1,1l-1,0c-1,1,-1,1,-1,1c0,0,-1,0,-1,-1l0,-1ZM386.5,390.5l-6,2c0,0,1,-1,1,-1l5,-3ZM374.5,408.5l-1,-1l1,-2l1,1ZM372.5,404.5l-1,0c-1,0,-1,0,-1,0c-1,0,-1,-1,-1,-1c-1,-1,-1,-2,-1,-3c0,1,0,1,-1,2c0,0,-1,1,-2,1c0,0,-1,1,-1,1l-1,0l-1,0c-1,0,-1,0,-1,0l-1,0l-1,0l-1,0l-1,0l-1,0c-1,0,-1,0,-2,-1c0,0,-1,-1,-1,-2l0,-1c1,0,1,0,1,0c0,-1,0,-1,0,-1l0,-1c0,1,0,1,0,1c0,2,1,2,2,3c1,0,1,0,2,0c1,0,1,0,2,0l1,0l1,0l1,0c3,0,4,-1,5,-3l0,-7l0,-2l1,11l1,1l1,0l1,0c0,0,1,0,1,0c1,0,1,0,2,0l0,-1l-1,-1l0,-1l1,-1l0,1l0,1l0,1c0,0,0,1,0,1c0,0,0,1,0,1c-1,0,-1,0,-2,1c0,0,-1,0,-1,0ZM373.5,389.5l0,1c0,0,0,1,0,1l0,-1c1,0,1,0,1,0l0,-1l0,1l1,0l0,-1l1,-1l0,1l0,1c0,1,-1,1,-1,1c0,0,-1,0,-1,0c-1,1,-1,1,-1,1l-1,-1l0,-1l0,-1ZM374.5,410.5l-4,2c0,-1,0,-1,0,-1l4,-2ZM362.5,399.5c-1,0,-1,1,-2,1c0,0,-1,0,-1,-1l-1,0l1,0l1,0c0,0,0,-1,1,-1l-1,0l-1,-1c0,0,0,-1,0,-1c1,-1,2,-2,3,-3l0,2l-1,0c0,0,-1,1,-1,1l1,0c1,0,1,1,1,1c0,0,0,1,0,1l0,1ZM358.5,391.5l4,-2l0,1l-4,2ZM408.5,403.5c-1,0,-1,0,-1,0l-1,0l-1,0l-1,-1l0,1l-1,1l-1,0l-2,0c0,1,0,1,0,1c0,1,0,1,0,1c0,0,0,1,0,2c-1,0,-1,1,-1,1c-1,1,-2,1,-2,1c-1,1,-2,1,-3,1c0,0,-1,0,-1,0c-1,-1,-2,-1,-2,-1c0,0,-1,-1,-1,-1c0,-1,0,-1,0,-2c0,0,0,-1,0,-1l0,-1c0,0,0,-1,0,-1c1,0,1,0,1,0c0,-1,0,-1,0,-1c0,1,0,1,0,1c0,0,0,1,0,1c0,1,0,1,0,1c0,1,0,1,0,1c0,1,0,1,1,1c0,0,0,1,0,1c1,0,2,0,3,0c0,0,1,0,2,0c1,-1,1,-1,2,-2l0,-1l0,-1c0,0,0,-1,0,-1l0,-1l-1,0l1,-2c0,0,0,1,0,1c1,0,1,0,2,0l1,0l1,0l1,0l1,-1c0,-1,0,-1,1,-2l1,0c1,0,1,1,1,1l0,1l0,1l0,1ZM406.5,401.5l1,1c0,-1,0,-1,0,-1c0,-1,0,-1,-1,-1l0,1c-1,0,-1,0,-1,0l1,0ZM407.5,407.5l-5,2c1,0,1,-1,1,-1l4,-2ZM395.5,402.5l-1,-1l1,-2l1,1ZM295.5,387.5c0,-1,0,-1,0,-2c-1,-1,-1,-1,-1,-2l1,0l0,1l0,1c0,0,0,1,0,1c0,1,0,1,0,1ZM68.5,385.5l-6,3c0,-1,1,-1,1,-1l5,-3ZM346.5,348.5l-1,0l-1,0l0,-1l1,1l1,-1ZM346.5,352.5l0,1c0,0,-1,0,-1,0l-1,0l-1,0c0,0,-1,0,-1,0c0,0,-1,0,-1,0l-1,0c-1,0,-1,1,-1,1c0,0,-1,0,-1,0c-1,0,-1,0,-2,-1c0,0,-1,0,-1,0l0,-1c0,0,-1,0,-1,0l0,-1c1,0,1,0,1,0c0,0,0,-1,0,-1c0,0,0,1,0,1c0,0,0,1,0,1c0,0,1,0,1,0c0,0,0,1,1,1c0,0,1,0,1,0c1,0,1,0,1,0c1,0,1,0,1,-1l1,0c0,-1,0,-1,0,-1c0,-1,0,-1,0,-1c1,0,1,0,1,0l0,-1c1,0,1,0,1,1l0,1l0,1c0,0,1,0,1,0c0,0,1,0,1,0c1,0,1,0,1,0c0,0,0,-1,0,-1c0,0,-1,0,-1,0c-1,0,-1,0,-1,-1l1,0c0,-1,0,-1,0,-1l1,0c0,1,0,1,0,1c1,0,1,0,1,1c0,0,0,1,0,1l-1,0ZM345.5,350.5l1,0c-1,0,-1,0,-1,0ZM341.5,349.5l0,-1l1,0ZM342.5,350.5l0,1c-1,0,-1,0,-1,0c1,0,1,1,1,1l0,-1c1,0,1,0,1,0c-1,-1,-1,-1,-1,-1ZM101.5,356.5c1,0,1,0,1,0c0,0,1,0,1,0c0,-1,1,-1,1,-1l0,-1l0,-2l-1,-6l0,-1l0,-1c0,0,1,0,1,0c0,0,0,1,0,1c0,0,1,0,1,0c0,1,0,1,0,1c0,1,0,1,0,1l-1,0c0,0,0,1,1,2c0,0,0,1,0,3l0,1l0,1c0,0,0,1,0,1c0,0,0,1,-1,1c0,0,0,1,0,1c0,0,-1,0,-1,0l-1,0l-1,0l-1,0c-1,0,-1,0,-1,0c0,0,-1,0,-1,-1c0,0,-1,0,-1,0l0,1c0,0,-1,0,-1,0l-1,0c-1,0,-1,0,-1,0c-1,0,-1,0,-1,-1c-1,0,-1,-1,-1,-2c0,0,-1,1,-1,1c0,1,-1,1,-2,2c0,0,-1,0,-1,0l-1,0l-1,1l-1,0l-1,0l-1,0l-1,0l-1,0l-1,0c-1,0,-2,-1,-2,-1c-1,-1,-1,-2,-1,-2l0,-1c0,0,0,-1,0,-1c0,0,1,0,1,-1c0,0,0,1,0,1c0,1,1,2,2,2c1,1,1,1,2,1c1,0,1,0,2,0l2,0l1,0c3,-1,4,-2,5,-3l0,-1l-1,-6l1,-2l1,10c0,0,0,1,0,1c1,0,1,1,1,1l1,0c0,0,1,0,1,0c0,0,1,-1,1,-1c0,0,1,0,1,0c0,0,1,0,1,0l0,1c1,0,1,0,1,0l1,0ZM102.5,341.5l4,-2l0,1l-4,2ZM99.5,361.5l-1,-1l-1,1l-2,-1l1,-1l2,1l0,-2l2,1ZM95.5,339.5l1,0c0,0,1,0,1,0c1,0,1,0,2,0l0,1c0,0,0,1,0,1c-1,0,-1,0,-1,1c-1,0,-1,0,-1,0c0,0,-1,0,-1,0c0,0,-1,0,-1,0l2,-1c0,0,1,0,1,-1c-1,0,-1,0,-1,0c-1,0,-1,0,-1,0c-1,0,-1,0,-1,1l0,-1l0,-1ZM86.5,352.5c-1,1,-2,1,-2,1c0,0,-1,0,-1,0c0,0,-1,0,-1,0l0,-1l1,0l1,0l1,0l0,-1l-1,0c0,0,-1,0,-1,0l0,-1l0,-1c1,-1,2,-2,2,-2l1,1l-1,0c-1,1,-1,1,-1,1l0,1l1,0c1,0,1,0,1,1c0,1,0,1,0,1ZM82.5,344.5l4,-2l0,1l-4,2ZM145.5,357.5l0,-1l0,-1l-1,-8l1,-3l1,11l0,1c0,0,-1,0,-1,0c0,1,0,1,0,1ZM144.5,338.5c0,0,0,-1,1,-1l1,0l0,1l0,1l0,1l0,1l-1,0l-1,0c0,1,0,1,-1,1l-1,0l1,-1c0,0,1,0,1,0l1,-1l-1,0c0,0,0,-1,0,-1c0,0,0,-1,0,-1ZM145.5,338.5l0,1c0,0,0,-1,0,-1ZM138.5,351.5l-1,-1l1,-2l1,1ZM138.5,357.5l-1,0l-1,0l0,1l-1,1c0,0,0,1,0,2c0,0,-1,0,-1,0c0,1,0,1,-1,1c0,0,0,1,-1,1c-1,0,-1,0,-1,0l-1,0c0,0,-1,0,-2,0c0,0,0,-1,0,-1l1,0c1,0,1,0,2,0l1,-1l1,0c0,0,0,-1,0,-1c1,0,1,-1,1,-1c0,0,0,-1,1,-1c0,-1,0,-1,0,-1c-1,0,-1,0,-1,0c0,-1,0,-1,0,-1l0,-1l1,-1l0,1l0,1c0,0,1,0,1,0l1,0l1,0c0,0,1,0,1,0c1,-1,1,-1,1,-1c0,-1,0,-1,0,-1c0,0,0,-1,-1,-1l1,-2l1,1c0,1,0,1,0,1l0,1c0,0,0,1,0,1c0,0,0,1,0,1l-1,0c0,1,0,1,-1,1c0,0,-1,0,-1,0ZM134.5,352.5l-1,-1l1,-1l1,1ZM135.5,368.5l-5,2c1,-1,1,-1,1,-1l4,-2ZM126.5,346.5l0,-1l1,-1c0,0,0,1,0,1c1,0,1,0,1,0c0,1,0,1,0,1c0,1,0,1,0,1c0,0,0,1,0,2c0,2,0,3,0,3c0,1,0,2,0,3l0,1c0,1,0,1,-1,2c0,0,0,1,-1,1c0,0,0,1,0,1c-1,0,-1,0,-1,0c-1,1,-2,1,-3,1l-1,0l-1,0c0,-1,-1,-1,-1,-1c0,0,-1,-1,-1,-1c0,-1,0,-1,0,-1c0,-1,0,-2,0,-2c0,-1,1,-1,1,-2l1,-1l0,1l-1,0c0,1,0,1,0,1c0,1,0,1,0,1c0,1,0,2,1,2c0,0,1,1,2,1c1,0,2,0,3,-1c1,0,2,0,2,-1c0,0,0,-1,0,-1c0,-1,0,-2,0,-3c0,-1,0,-3,0,-4c0,-1,-1,-2,-1,-3ZM118.5,344.5l5,-2l-1,1l-4,2ZM194.5,353.5c-1,0,-1,1,-1,1c0,0,0,1,1,1l0,-1c0,0,0,-1,0,-1ZM194.5,361.5c-1,0,-1,1,-1,1l-1,0c0,0,-1,0,-1,0l-1,0c0,0,-1,0,-1,0c-1,0,-1,0,-1,-1l1,0c1,0,1,0,1,0c0,0,1,0,1,0c1,0,1,0,1,0c0,-1,1,-1,1,-1c1,-1,1,-1,1,-1c0,0,0,-1,1,-1c0,-1,0,-1,0,-2c-1,0,-1,0,-1,0l0,1l-1,0l0,-1c-1,0,-1,0,-1,0c0,-1,0,-1,0,-1c0,0,0,-1,0,-1c0,-1,0,-1,1,-2c0,0,1,-1,1,-1l1,1c0,1,0,1,1,1c0,1,0,1,0,1c0,1,0,1,0,2l0,1c0,1,-1,1,-1,2c0,1,0,1,-1,1c0,1,0,1,0,1ZM191.5,348.5l4,-2c0,0,-1,1,-1,1l-4,2ZM187.5,357.5l0,-1l0,-1l-1,-8l1,-3l1,11l0,1l-1,0c0,1,0,1,0,1ZM180.5,358.5l-1,0c0,0,0,-1,0,-1c0,0,-1,0,-1,-1l0,-1c0,1,0,1,-1,1l0,1c-1,0,-1,0,-2,0c0,0,-1,0,-1,0c-1,0,-1,0,-1,0l-1,0c0,0,-1,0,-1,-1c0,-1,0,-1,0,-1c0,0,0,-1,1,-1c0,1,0,1,0,1c0,0,1,0,1,0l1,0c0,0,1,0,1,0c0,0,1,0,1,0c0,0,1,0,1,0l1,-1l-1,-1c0,0,0,-1,0,-2c0,0,0,-1,0,-1c0,0,0,-1,0,-1c0,0,1,-1,1,-1l0,2l0,1c0,1,1,2,1,2c0,1,0,1,0,2l0,-1c0,1,0,1,0,2c0,0,1,0,1,1l1,0c0,0,0,1,1,1l0,-1c0,-1,0,-1,0,-3c0,0,0,-1,0,-2l0,-1c0,-1,0,-1,0,-2c0,-1,0,-2,0,-3c-1,0,-1,0,-1,0l0,-1l1,-1c0,0,0,1,0,1c1,0,1,0,2,0c-1,1,-1,1,-1,1c0,1,0,1,0,1c0,0,0,1,0,2c0,0,0,1,0,3l0,1l0,1c0,1,0,2,0,2c0,0,0,1,0,1c0,1,0,1,0,1l0,1c-1,0,-1,0,-1,0l-1,0l-1,0c0,0,0,-1,0,-1ZM181.5,339.5l0,1c0,0,0,1,1,1c0,0,0,-1,0,-1l0,-1l1,0l0,1c1,0,1,0,1,-1l0,-1l0,1l0,1c0,1,0,1,0,1l-1,0l-1,0c0,1,0,1,-1,1l0,-1l0,-1l0,-1ZM185.5,337.5l-5,2c0,0,0,-1,0,-1l6,-3ZM176.5,347.5l-1,-1l1,-2l1,1ZM175.5,361.5l-4,2c0,-1,0,-1,0,-1l4,-2ZM168.5,351.5c-1,0,-1,-1,-1,-1l-1,0l0,1c-1,0,-1,0,-2,1c-1,1,-1,1,-1,2l1,1l1,0l1,0c1,0,1,0,1,0c0,0,0,1,0,1c0,0,1,0,1,0c0,1,-1,1,-1,1c0,0,0,1,0,1c0,0,-1,0,-1,1c-1,0,-1,0,-2,1c-1,0,-1,0,-2,1c-1,0,-2,0,-2,0l-1,0c-1,0,-1,0,-2,0c0,0,-1,-1,-1,-1c-1,0,-1,-1,-1,-1c0,-1,-1,-1,-1,-2c0,-1,1,-2,1,-2c0,-1,0,-1,0,-2c1,0,1,0,1,-1l1,0l-1,1c0,1,0,1,0,1c0,1,0,1,0,1c-1,0,-1,1,-1,1c0,1,0,1,1,1c0,0,0,1,0,1c1,1,2,1,4,1c1,0,2,0,3,0l1,-1l1,0l1,0c0,-1,0,-1,0,-1c0,0,1,0,1,0l-2,-1c-1,0,-2,0,-2,0c-1,-1,-1,-1,-1,-1c0,-1,0,-1,0,-1c0,-1,0,-1,0,-1c0,-1,1,-1,1,-1c0,-1,0,-1,0,-1l1,0c0,-1,0,-1,1,-1c0,0,0,-1,1,-1c0,0,1,0,1,0c1,0,1,0,1,0c0,0,0,1,0,1l0,1ZM163.5,338.5c-1,0,-2,0,-3,0l-1,0l-1,0l-1,0c0,0,0,1,-1,1c0,-1,0,-1,0,-1l1,0l1,-2c1,1,2,1,3,1l1,0l1,0l1,-1ZM257.5,357.5l0,-1l0,-1l-1,-8l1,-3l1,11l0,1l-1,0c0,1,0,1,0,1ZM249.5,356.5c1,0,1,0,1,0c0,0,1,0,1,0c0,-1,0,-1,1,-1l0,-1l0,-2l-1,-6l0,-1l0,-1c0,0,1,0,1,0c0,0,0,1,0,1c0,0,1,0,1,0c0,1,0,1,0,1c0,1,0,1,-1,1c0,0,0,1,0,2c0,0,0,1,1,3l0,1l0,1c0,0,0,1,0,1l-1,0c0,0,0,1,0,1c0,0,0,1,0,1c-1,0,-1,0,-1,0l-1,0l-1,0l-1,0l-1,0l-1,-1l-2,-2c-1,0,-1,-1,-1,-1l-1,0l0,1c0,1,0,1,0,1c0,1,0,1,-1,2c0,0,-1,0,-1,0c0,0,-1,0,-2,0l-1,0c-1,0,-1,0,-1,0l-1,0l0,-1l-1,0c-1,0,-1,0,-1,1c0,0,-1,0,-1,0c0,0,-1,0,-1,0l-1,0c0,0,-1,0,-1,0c-1,0,-1,0,-1,0c0,0,0,-1,0,-1l-1,0c0,1,0,1,0,1c-1,0,-2,0,-3,1l-1,0c-1,0,-1,0,-1,0c0,0,-1,0,-1,0l-1,0l-1,0c-1,0,-2,0,-3,0c-1,0,-2,0,-3,-1c0,0,0,-1,0,-1c-1,0,-1,0,-1,-1l0,-1c0,0,1,-1,1,-1c0,0,0,-1,1,-1l-1,1c0,0,0,1,0,1c0,0,0,1,1,1c0,0,0,1,1,1l1,0c0,0,1,0,1,1c1,0,2,0,3,0c1,0,2,0,2,0c0,0,1,0,2,-1c0,0,1,0,1,0c1,0,2,-1,2,-1c1,0,1,-1,2,-1l0,1l0,1c0,0,1,0,1,0l1,0c1,0,1,0,1,0c0,0,1,-1,1,-1l1,0l1,0l1,1l1,0l1,0l1,0c0,0,1,0,1,0l1,-1c1,0,1,0,1,-1c0,0,0,-1,-1,-1c0,-1,0,-1,-1,-1c0,0,0,-1,-1,-1l-1,0c-1,-1,-1,-1,-1,-1c0,-1,0,-1,0,-1l0,-1c0,-1,0,-1,0,-1c1,0,1,0,1,0c0,-1,1,-1,3,-2c1,0,3,-1,4,-1c2,-1,2,-1,3,-1l1,-1l-1,2c0,0,-1,0,-1,0c0,0,-1,1,-2,1c-2,1,-3,1,-4,2c-2,0,-3,1,-3,1l-1,0l2,1l1,0c0,1,0,1,0,1l1,0c1,1,1,1,2,1c0,1,1,1,1,2c1,0,2,1,2,1l2,2l1,0ZM249.5,339.5c0,0,1,0,1,0c1,0,1,0,1,0c1,0,2,0,2,0l0,1c0,0,0,1,0,1c0,0,-1,0,-1,1l-1,0l-1,0l-1,0l2,-1c1,0,1,0,2,-1c-1,0,-1,0,-1,0c0,0,-1,0,-1,0c0,0,-1,0,-1,0c0,0,-1,0,-1,1l0,-1l0,-1ZM248.5,361.5l-5,2c1,-1,1,-1,1,-1l4,-2ZM235.5,352.5l-1,-1l-1,2l-2,-1l1,-2l2,1l1,-1l1,1ZM220.5,362.5l-1,-1l1,-1l1,1ZM221.5,363.5l-4,2c0,0,0,-1,0,-1l5,-2ZM290.5,357.5l0,-1l0,-1l0,-8l1,-3l0,11l0,1c0,1,0,1,-1,1ZM286.5,361.5l-1,-1l-1,1l-1,-1l1,-1l1,1l1,-2l1,1ZM284.5,357.5l-1,0l-1,0l-1,0c-1,0,-1,0,-1,0c0,0,0,-1,0,-1c-1,0,-1,0,-1,0c0,1,-1,1,-1,1c-1,0,-1,0,-2,1l-2,0l-1,0l-1,0l-1,0c-2,0,-3,0,-4,0c-1,0,-2,0,-2,-1c0,0,-1,-1,-1,-1l0,-1l0,-1c0,0,0,-1,0,-1c0,0,1,-1,1,-1l0,1c0,0,0,1,0,1c0,0,0,1,0,1c0,0,1,1,2,1l1,0l1,1c1,0,2,0,3,0c1,0,1,0,2,0c0,0,1,0,1,-1l1,0l1,0c0,0,1,-1,2,-1c1,0,1,-1,1,-1l0,1l1,1l1,0l1,0l1,0l1,0c1,-1,1,-1,1,-1c0,-1,0,-1,0,-1c0,0,0,-1,-1,-1l1,-2l0,1c0,0,1,0,1,0c0,1,0,1,0,1l0,1c0,0,0,1,0,1c0,0,0,1,0,1c0,0,-1,0,-1,0c0,1,0,1,-1,1c0,0,-1,0,-1,0ZM273.5,352.5l-1,-1l-1,1l-1,-1l1,-1l1,1l1,-1l1,1ZM270.5,338.5c1,0,1,0,1,-1c0,0,1,0,1,0c1,0,1,1,1,1c0,0,0,1,0,1l-1,0c0,0,0,1,0,1l1,0l0,1l-1,0l-1,0l0,1c-1,0,-1,0,-1,0l-1,1l-1,0l1,-1l1,0c0,0,0,-1,0,-1l1,0l0,-1c-1,0,-1,0,-1,-1l0,-1ZM272.5,338.5l-1,0c0,1,0,1,0,1l1,0ZM325.5,349.5l-1,-1l-1,1l-2,-1l1,-1l2,1l1,-1l1,1ZM323.5,357.5l-1,0c-1,0,-1,0,-1,0c-1,0,-1,-1,-1,-2c-1,1,-1,2,-1,2c-1,0,-1,0,-1,0l-1,0c0,0,-1,0,-1,0c0,0,-1,0,-1,-1c0,0,0,-1,0,-2c-1,0,-1,1,-1,1c-1,1,-2,1,-3,2l-1,0l-1,0l0,1l-1,0c0,0,-1,0,-1,0l-1,0l-1,0l-1,0l-1,0c-1,0,-2,-1,-3,-1c0,-1,0,-2,0,-2l0,-1c0,0,0,-1,0,-1l0,-1l1,0c0,0,0,1,0,1c0,1,0,2,2,2c0,1,1,1,1,1c1,0,2,0,2,0l1,0l1,0l1,0l1,0c2,-1,4,-2,4,-3l0,-1l0,-6l1,-2l0,10c0,0,1,1,1,1c0,0,0,1,0,1c1,0,1,0,1,0c1,0,1,0,1,0c0,0,1,-1,1,-1l0,-1c0,-1,0,-1,0,-1l0,-1l0,-6l1,-2l0,10c0,0,0,1,0,1l1,0c0,1,0,1,0,1l1,0l1,0c0,0,1,0,1,0c1,-1,1,-1,1,-1l1,0c0,-1,-1,-1,-1,-1c0,0,0,-1,0,-1l1,-2l0,1l0,1l0,1l0,1c0,0,0,1,0,1c-1,1,-1,1,-2,1c0,0,-1,0,-1,0ZM327.5,361.5l-4,2c0,-1,0,-1,0,-1l4,-2ZM318.5,336.5c1,-1,1,-1,2,-1c0,0,1,0,1,1c1,0,1,0,1,0c0,1,-1,1,-1,1c0,1,0,1,-1,1c-1,0,-1,0,-1,0l-1,0l1,0c1,0,2,-1,2,-1c0,0,-1,0,-1,0l-1,0l-1,0l-1,0c0,0,0,-1,0,-1l1,0ZM308.5,352.5c0,1,-1,1,-2,1c-1,0,-1,0,-1,0l-1,-1l1,0l1,0l1,0l0,-1c-1,0,-1,0,-1,0l0,-1l0,-1c0,-1,1,-2,2,-2l0,1c-1,1,-1,1,-1,1l0,1l1,0c0,0,1,0,1,1c0,1,-1,1,-1,1ZM304.5,344.5l5,-2l-1,1l-4,2ZM375.5,356.5l0,-1l1,-1l-1,-8l1,-3l0,11l0,1c0,1,0,1,-1,1ZM368.5,355.5c0,0,1,0,1,0l1,-1c0,0,1,0,1,-1l-1,-2l0,-6c0,0,0,-1,0,-1l0,-1l1,0c0,0,0,1,0,1l1,0c0,0,0,1,-1,1c0,0,0,1,0,1c0,0,0,1,0,2c0,0,0,1,0,3l0,1l0,1l0,1c0,0,0,1,0,1c0,0,-1,1,-1,1c0,0,-1,0,-1,0c0,0,-1,0,-1,0l-1,0c-1,0,-1,0,-2,0l0,-1c-1,1,-1,2,-1,2l-1,0l-1,0l-1,-1l-1,-1l-1,1c0,0,-1,0,-1,0l-2,0c0,1,0,1,0,1l0,1c-1,0,-1,1,-1,1c0,1,0,1,-1,1c0,0,0,1,0,1c-1,0,-1,1,-1,1c-1,0,-1,0,-1,0c-1,0,-1,0,-1,0l-1,0c0,0,-1,0,-1,0c-1,0,-1,-1,-1,-1l1,0c1,0,1,0,2,0c0,0,1,0,1,-1c0,0,1,0,1,0c0,-1,0,-1,1,-1c0,0,0,-1,0,-1c0,0,1,-1,1,-1c0,-1,0,-1,0,-1c0,0,-1,0,-1,0c0,-1,0,-1,0,-1c0,0,0,-1,0,-1c0,0,1,0,1,-1l0,1l1,0c0,1,0,1,0,1l2,0l1,-1c0,0,1,0,1,-1c1,-1,2,-2,2,-2l1,0l0,1l1,1l1,1c0,0,1,1,1,1l1,0l1,0ZM367.5,338.5c1,0,1,0,2,0c1,1,1,1,1,1l1,0l1,-1c0,1,-1,1,-1,1l-1,1l-1,0l-1,-1l-1,0c0,0,-1,0,-1,0c0,0,0,-1,1,-1ZM364.5,355.5l-1,-1c0,-1,0,-1,-1,-1l-1,1l1,0l1,1ZM365.5,341.5c-1,1,-1,1,-2,1l-1,0l-1,-1c0,1,0,1,-1,1l1,-1c1,0,2,0,2,0l1,0l1,0ZM361.5,344.5l0,1l0,1c0,0,1,0,1,0c0,0,0,-1,1,-1l0,-1l0,1c0,0,1,0,1,0c0,0,1,0,1,-1l0,-1l0,1l0,1c0,1,0,1,-1,1c0,0,-1,0,-1,0l0,1c-1,0,-1,0,-1,0c-1,0,-1,0,-1,0l0,-1l0,-1ZM289.5,343.5c0,-1,0,-1,0,-2c0,-1,-1,-1,-1,-2l1,0l0,1l1,1l0,1l-1,0c0,1,0,1,0,1ZM282.5,347.5c0,-1,0,-1,0,-2c0,0,0,-1,-1,-1l0,-1l1,0l0,1c0,0,1,0,1,1c0,1,0,1,0,1l-1,1ZM354.5,349.5l0,-1c0,0,0,-1,0,-1c0,-1,0,-1,-1,-2l1,0l0,-1c0,0,0,1,0,1c0,1,1,1,1,1l0,1c0,1,0,1,0,1l-1,0c0,0,0,1,0,1ZM232.5,344.5c0,-1,0,-1,0,-2c0,-1,0,-1,0,-2l1,1l0,1c0,0,0,1,0,1c0,1,-1,1,-1,1ZM158.5,343.5l1,0l1,0c0,0,1,0,1,0c1,0,1,0,1,0c0,1,0,1,0,1c0,0,-1,0,-1,1c-1,0,-1,0,-1,0c-1,1,-1,1,-1,1l-1,0l0,-1l1,0c1,0,2,-1,2,-1l-1,0c-1,0,-1,0,-2,0l-1,0c1,-1,1,-1,1,-1ZM135.5,339.5c1,0,1,0,1,0c1,0,1,0,2,0c0,0,1,0,1,0c0,0,1,0,1,1l-1,0c0,0,0,1,0,1c0,0,-1,0,-1,1l-1,0l-1,0l-1,0l2,-1c1,0,1,0,2,-1c-1,0,-1,0,-1,0c0,0,-1,0,-1,0c0,0,-1,0,-1,0c0,0,-1,0,-1,1l0,-1l0,-1ZM201.5,352.5l0,-1l1,0l0,-1l0,-1l0,-1l0,-1l0,-1l0,-1l1,1c0,0,0,1,0,1l0,1l0,1l0,1l0,1l0,-1l1,0c0,-1,1,-1,1,-1c0,0,1,0,1,0c0,1,0,1,0,1l0,1c0,1,-1,1,-1,1c0,0,-1,0,-1,0c0,0,-1,0,-1,0ZM205.5,350.5c0,0,-1,0,-1,0l-1,1l-1,0l1,0c0,0,1,0,1,0c1,0,1,0,2,0c0,0,0,-1,0,-1c0,0,-1,0,-1,0ZM80.5,496.5c0,1,0,1,0,1l-1,0l0,-1c-1,0,-1,0,-1,0l-1,-1l0,1c-1,0,-1,1,-1,1l-1,0l-1,0l-1,0l-1,-1c0,-1,0,-1,0,-1c-1,1,-1,1,-1,1c-1,1,-1,1,-1,1c-1,0,-2,-1,-2,-2l0,1c-1,1,-1,1,-2,1c-1,0,-1,0,-2,-2c0,1,0,1,0,1c-1,1,-1,1,-2,1l-1,0c-1,0,-1,0,-2,-1l0,1l1,0l0,1l-1,0c0,1,0,1,0,1c-1,0,-1,0,-1,-1c-1,0,-1,-1,-1,-1l0,-1c0,0,-1,0,-1,1c-1,0,-1,0,-1,0l-1,0l-1,0c-1,0,-1,0,-1,0c0,0,-1,0,-1,0l0,1c0,0,1,0,1,0c1,0,1,0,2,0c0,0,0,1,0,1c1,0,1,0,1,0c0,0,0,1,0,1c0,0,0,1,0,1c0,0,-1,1,-1,1c-1,0,-2,1,-3,1c-1,1,-2,1,-4,1c0,0,-1,0,-2,-1c0,0,-1,0,-1,0c-1,-1,-1,-1,-1,-2c0,0,-1,-1,-1,-2c0,0,1,-1,1,-1c0,-1,1,-2,1,-2c0,0,1,0,1,0c-1,0,-1,1,-1,1c0,1,0,1,0,2c0,1,0,1,1,2c0,1,1,1,2,1c0,0,1,0,1,0c0,0,1,0,1,0c1,0,1,0,1,0c1,0,1,-1,1,-1c0,0,1,0,1,0l1,0c1,-1,1,-1,1,-1c0,0,-1,0,-1,0c-1,0,-1,0,-1,0c-1,0,-1,0,-1,0c0,-1,0,-1,-1,-1c0,0,0,-1,0,-1l0,-1c0,0,1,0,1,0c0,-1,0,-1,1,-1l1,0c0,-1,0,-1,1,-1c1,0,1,0,1,0c1,0,1,0,1,0c1,-1,1,-1,1,-1l1,-1c0,1,0,1,1,1c1,1,1,1,2,1l1,0l1,0c1,0,1,-1,2,-1c0,1,1,1,1,1c1,0,1,0,2,0c0,0,0,-1,0,-1l1,-1c0,1,0,1,0,1c0,1,1,1,1,1c0,0,1,0,1,0c0,0,0,-1,0,-1c1,0,1,0,1,-1c1,2,1,2,2,2l1,0c1,0,1,0,1,0l1,0l0,-1c0,-1,1,-1,1,-2c1,0,1,0,1,0c1,0,1,0,1,0c0,1,0,1,1,2l0,1l0,1c-1,0,-1,0,-1,0ZM78.5,494.5l1,0l1,1c0,0,0,-1,0,-1c0,0,-1,0,-1,0c0,0,0,-1,0,-1c-1,0,-1,1,-1,1ZM76.5,486.5l0,1l1,0c0,0,0,-1,0,-1l0,-1l1,0l0,1c1,0,1,0,1,-1l0,-1l0,1l0,1c0,1,0,1,0,1l-1,0l-1,0c0,1,0,1,-1,1c0,-1,0,-1,0,-1l0,-1ZM77.5,481.5c1,-1,1,-1,1,-1c0,-1,1,-1,1,-1c0,1,1,1,1,1c0,1,0,1,0,1l-1,0l0,1l0,1l-1,1c-1,0,-1,0,-1,1c-1,0,-1,0,-1,0c-1,0,-1,0,-1,0c1,-1,2,-1,3,-2l0,-1l-1,0l0,-1ZM79.5,481.5l-1,0l0,1l1,0l0,-1ZM67.5,484.5l4,-2l0,1l-4,2ZM56.5,486.5l0,1c1,0,1,-1,1,-1l0,-1l0,1l1,0l0,-1l1,0l0,-1l0,1l0,1c0,1,-1,1,-1,1c-1,0,-1,0,-1,0c-1,1,-1,1,-1,1c0,0,-1,0,-1,0c0,0,0,-1,0,-1l0,-1ZM54.5,485.5l5,-3c0,1,0,1,0,1l-5,3ZM56.5,482.5l5,-3c0,1,0,1,-1,1l-4,3ZM128.5,499.5l-5,2c1,0,1,-1,1,-1l4,-2ZM116.5,479.5l4,-2l-1,1l-4,2ZM106.5,500.5l-1,0l1,-2l1,1ZM114.5,494.5l-1,0l-1,0c-1,0,-1,0,-2,1l-1,0l-1,0l-1,0l0,1c-1,0,-1,0,-2,0l-1,1c-1,0,-1,0,-2,0l-1,0c-1,0,-1,0,-1,0c-1,-1,-1,-1,-1,-2l0,1l0,1l0,1c0,0,0,1,0,1c-1,1,-1,1,-1,2c-1,0,-1,0,-1,0c-1,0,-1,1,-1,1c-1,0,-1,0,-2,0c0,0,-1,0,-1,0l-1,0l-1,0c0,0,-1,0,-1,-1c0,0,-1,0,-1,-1c0,0,0,-1,0,-1c0,-1,0,-1,0,-2c0,0,1,-1,1,-1l0,-1l1,0l-1,1c0,1,0,1,0,2c0,0,0,1,1,1c0,1,1,1,1,1c1,0,1,0,1,0c1,0,2,0,3,0c1,-1,2,-1,2,-2l0,-1l0,-3l0,-1c0,0,0,-1,0,-1l0,-7l0,-2l1,11c0,0,0,1,1,1c0,0,1,0,1,0l1,0c0,0,1,0,1,0c0,0,1,0,1,0c1,0,1,0,2,0l1,-1l1,0l-1,-1l-1,0l-1,0l-1,0l-1,0c0,-1,0,-1,0,-1c0,-1,1,-1,1,-1c0,0,1,0,1,0c1,0,1,0,1,0l1,0l2,1l1,0c0,1,0,1,1,1l1,0c0,0,1,0,1,0l1,0ZM105.5,484.5l4,-2l0,1l-1,0l-4,2ZM86.5,509.5l5,-3c0,0,0,1,0,1l-5,3ZM88.5,505.5l5,-2c0,1,0,1,0,1l-5,3ZM174.5,491.5l-2,-1l-1,1l-1,-1l1,-1l1,0l1,-1l2,1ZM167.5,488.5l0,-1c1,0,1,0,1,0c0,1,0,1,1,1c0,0,0,1,0,1c0,0,0,-1,0,-1c0,0,0,-1,0,-1c0,-1,-1,-1,-1,-1l-1,0c0,0,0,1,0,1c-1,1,-1,1,-1,1c0,0,0,1,-1,1c0,0,0,1,-1,1l-1,0c0,0,0,1,0,1c0,0,-1,0,-1,0c0,0,-1,1,-1,1c0,0,0,1,-1,1l1,0l1,0l1,0l1,0l1,0l0,1l1,0l-1,0l-1,1l-1,0l-1,0l-1,0l-1,0l-1,0l-1,0l-1,0c0,0,0,-1,0,-1c0,0,0,1,0,1c0,1,0,1,0,1l0,1c0,1,0,1,0,2c-1,0,-1,0,-1,1c0,0,-1,0,-1,0c0,1,0,1,-1,1l-1,1c0,0,-1,0,-1,0l-1,0l-1,0c1,0,1,0,1,0c1,1,1,1,2,1c0,0,1,0,1,0c0,0,1,-1,1,-1c0,0,1,0,1,0c0,-1,1,-1,1,-1c0,0,0,-1,0,-1c1,0,1,-1,1,-2l0,-1c1,0,1,0,1,0l1,0l1,0l1,0l1,0c0,0,0,-1,0,-1l2,-1c0,0,1,0,1,0l1,0c1,0,1,0,1,0l1,0l2,0l1,0l0,-2l-1,0c-1,0,-1,0,-1,0c-1,0,-1,0,-1,0c-1,0,-2,0,-2,-1l-2,0l-1,-1c0,0,1,0,1,0c0,-1,0,-1,0,-1c1,-1,1,-1,1,-1c1,0,1,-1,1,-1ZM164.5,501.5l-2,-1l1,-2l2,1ZM141.5,483.5c0,-1,0,-1,1,-1c0,0,1,0,1,0c1,0,1,0,1,0c1,0,1,1,1,1c0,0,0,1,-1,1l0,1l-1,0c0,0,-1,0,-1,0c-1,0,-1,0,-1,0l2,-1c0,0,1,0,1,-1l-1,0c-1,0,-1,0,-2,0l0,1l0,-1ZM159.5,479.5c0,0,1,0,1,0c0,0,1,0,1,0c1,0,1,0,2,0l0,1l0,1c-1,0,-1,0,-1,0c0,0,-1,0,-1,0l-1,0l-1,0l2,0c1,0,1,-1,2,-1c-1,0,-1,0,-1,0c-1,0,-1,0,-1,0c0,0,-1,0,-1,0c0,0,-1,0,-1,0l0,-1ZM157.5,507.5l-4,2c0,0,1,-1,1,-1l4,-2ZM151.5,491.5c0,0,-1,-1,-1,-1c0,0,-1,0,-1,0c-1,0,-1,0,-1,0c0,0,-1,1,-2,2c0,0,-1,1,-1,1c0,0,1,1,1,1c1,0,1,0,1,0l1,1c1,0,2,0,2,0c0,0,0,1,0,1l0,1c-1,1,-1,1,-1,1c-1,1,-2,1,-2,1c-1,1,-2,1,-3,1c0,0,-1,1,-1,1l-1,0c-1,0,-2,-1,-2,-1c-1,0,-1,0,-2,-1l-1,-1c0,0,0,-1,0,-1l0,-1c0,0,0,-1,0,-2c1,0,1,-1,1,-1c0,-1,0,-1,1,-1l0,-1l0,1c0,1,0,1,0,1c-1,0,-1,1,-1,1c0,1,0,1,0,2l0,1c0,0,1,0,1,1c1,0,2,1,3,1c1,0,2,0,4,-1l1,0l1,-1c0,0,1,0,1,0c0,-1,0,-1,0,-1l-1,0c-2,0,-2,0,-3,-1c0,0,-1,0,-1,-1l0,-1c0,0,1,0,1,-1l1,-1l0,-1c1,0,1,0,1,0c1,-1,1,-1,1,-1c1,-1,1,-1,2,-1c0,0,1,0,1,1c0,1,0,1,0,1l0,1ZM200.5,484.5l-2,1c-1,0,-2,1,-3,1c-2,1,-3,1,-3,2c-1,0,-1,0,-1,0c0,0,0,1,1,1l2,1c0,0,1,1,1,1c1,1,1,1,1,2c0,0,0,1,0,1c0,1,0,1,0,1c0,1,0,1,-1,1c0,0,0,1,0,1c-1,0,-1,0,-1,0c-1,0,-1,0,-2,0l-1,0c0,0,-1,0,-1,0c0,-1,0,-1,-1,-2l1,1l0,1l-1,1c0,0,0,1,0,1c0,1,-1,1,-1,2c0,0,-1,0,-1,0c0,0,0,1,-1,1c0,0,-1,0,-1,0c-1,0,-1,0,-2,0l-1,0c-1,0,-1,0,-2,-1l0,-1c0,0,-1,-1,-1,-1c0,-1,0,-1,1,-2c0,0,0,-1,0,-1l1,-1l0,1l-1,0c0,1,0,1,0,2c0,0,1,1,1,1c0,1,1,1,2,1l1,0c1,0,2,0,3,0c0,-1,1,-1,1,-2c0,0,1,0,1,0l0,-1l0,-3l-1,-1c0,0,0,-1,0,-1l0,-7l1,-2l1,11c0,0,0,1,0,1l1,0l1,0l1,0c0,0,1,0,1,0c0,0,1,0,1,0c1,-1,1,-1,1,-1l-1,-1c0,0,-1,-1,-1,-1c-1,-1,-1,-1,-1,-1l-1,0l-1,0l0,-1c0,0,0,-1,0,-1l0,-1c0,-1,0,-1,0,-1c1,-1,1,-1,1,-1c0,0,1,-1,3,-1c1,-1,3,-1,4,-2c1,0,1,0,2,0ZM195.5,478.5c0,0,0,-1,1,-1l1,0l0,1l0,1l0,1l0,1l-1,-1l0,1l-1,0c0,1,0,1,-1,1l-1,0l1,-1l1,0l0,-1l1,0l-1,0c0,-1,0,-1,0,-1c0,-1,0,-1,0,-1ZM196.5,478.5l0,1l0,-1ZM181.5,479.5l0,1c1,0,1,0,1,0c1,0,1,0,1,-1l0,-1l0,1l1,0c1,0,1,0,1,-1l0,-1l0,1l0,1l0,1c0,0,0,1,0,1l-1,0l-1,0l0,-1l0,1c-1,0,-1,1,-1,1c-1,0,-1,0,-1,-1l0,-1l0,-1ZM253.5,493.5c0,0,-1,0,-1,1c1,0,1,0,1,0l1,0c0,0,0,-1,0,-1c-1,0,-1,0,-1,0ZM253.5,501.5c-1,0,-1,0,-1,1c-1,0,-1,0,-2,0c-1,0,-1,0,-2,-1l-1,0c1,0,1,0,1,0c0,0,1,0,1,0l1,0c1,0,1,0,1,0c0,-1,0,-1,1,-1l1,-1c1,-1,1,-1,1,-2c0,0,1,-1,1,-1c0,0,-1,0,-1,-1c0,1,0,1,0,1c-1,0,-1,0,-1,0c0,0,-1,0,-1,0c0,0,0,-1,0,-1c-1,0,-1,0,-1,0c0,0,0,-1,0,-1l1,0l0,-1c0,0,0,-1,0,-1c0,0,1,0,1,-1l1,0c0,0,1,1,1,1c0,0,0,1,0,1c0,0,0,1,0,1c0,0,0,1,0,1c0,0,0,1,0,1c0,1,0,2,0,3c-1,0,-1,1,-1,1c0,0,-1,1,-1,1ZM250.5,487.5l4,-2l0,1l-4,2ZM246.5,497.5l0,-1l0,-1l0,-9l1,-2l0,11c0,0,0,1,0,1c0,0,0,1,-1,1ZM239.5,495.5l1,0c1,0,1,0,1,0c0,0,0,-1,0,-1l0,-2l0,-6l0,-1c0,0,0,-1,0,-1c0,0,0,-1,0,-1c0,0,1,0,1,0c0,0,0,1,-1,1c0,0,1,0,1,0c0,1,0,1,1,1c0,0,-1,1,-1,1l0,1l0,-1c0,1,0,1,0,1c0,0,0,1,0,2c0,0,0,1,0,2c0,1,0,1,0,1l0,2c0,1,0,1,0,1c0,1,0,1,0,1c-1,0,-1,0,-1,0c0,0,0,1,0,1c-1,0,-1,0,-1,0c0,0,-1,0,-1,0l-2,0c-1,0,-2,0,-2,0c-1,0,-1,0,-1,-1c-1,1,-1,1,-2,1c-1,0,-1,0,-2,0l-1,0l-1,0c0,0,-1,0,-1,-1l-1,0c0,1,0,1,-1,1l0,1c0,0,-1,-1,-1,-1l-1,0l-2,-1l0,1c-1,0,-1,0,-1,0l-1,0l-1,0l-1,0c0,1,0,1,0,1c0,1,0,2,0,2c-1,0,-1,1,-1,1l-1,1l-1,0c0,0,0,1,-1,1l-1,0c0,0,-1,0,-2,-1l-1,0l1,0l1,0c1,0,1,0,2,0c0,-1,0,-1,1,-1l0,-1c1,0,1,0,1,0c0,-1,1,-1,1,-1c0,-1,0,-1,1,-2l-1,-1l0,-1c0,0,0,-1,0,-1c1,0,1,1,1,1c0,0,1,0,1,0l1,0l1,0l1,0c0,0,0,-1,1,-1c1,-1,2,-2,2,-2l1,1l1,1l1,1l1,0l1,0l1,0c0,0,1,0,1,0l1,0l0,-1c0,-1,0,-1,0,-2c0,0,1,-1,1,-1c1,-1,1,-1,2,-1c0,0,1,0,1,1l0,1l1,1l-1,0c0,0,0,1,0,1c0,1,0,1,-1,1c1,0,1,0,1,0l1,0ZM239.5,479.5l1,0c0,0,1,0,1,0c1,0,1,0,1,0c1,0,1,0,1,0l0,1l-1,1l-1,0c0,0,-1,0,-1,0c-1,0,-1,0,-1,0l2,0c0,0,1,-1,1,-1l-1,0c-1,0,-1,0,-2,0l0,-1ZM235.5,489.5l-1,-1l-1,1l-2,-1l1,-1l2,1l0,-2l2,1ZM234.5,492.5l-1,0c0,0,0,1,0,1c0,1,1,1,1,1c0,0,1,0,1,0c0,0,0,-1,1,-1l-1,-1l-1,0ZM230.5,481.5l5,-2l-1,0c0,1,0,1,0,1l-4,2ZM225.5,496.5l0,-1c0,-1,-1,-1,-1,-2l0,1l-1,0c0,0,0,1,1,1l1,0ZM221.5,484.5l5,-2l-1,1l-4,2ZM213.5,484.5l4,-2l0,1l-1,0l-4,2ZM315.5,497.5l0,-1l0,-1l0,-9l0,-2l1,11c0,0,0,1,0,1c0,0,-1,1,-1,1ZM307.5,495.5c1,0,1,0,1,0c1,0,1,0,1,0c1,0,1,0,1,0c0,0,0,-1,0,-1l0,-2l0,-6c-1,0,-1,0,-1,-1c0,0,0,-1,1,-1c0,0,0,-1,0,-1c0,0,0,1,0,1c1,1,1,1,1,1c0,0,0,1,0,1l0,1l0,-1c0,1,0,1,0,1c0,0,0,1,0,2c0,0,0,1,0,2c0,1,0,1,0,1l0,2c0,1,0,1,0,1c-1,1,-1,1,-1,1c0,0,0,1,-1,1l-1,0l-1,0l-1,0l0,-1c-1,0,-1,0,-1,0c0,-1,0,-1,0,-1c0,1,-1,1,-1,1c0,1,-1,1,-1,1c-1,0,-1,-1,-2,-2l0,1c-1,1,-1,1,-2,1c-1,0,-1,0,-2,-2c0,1,0,1,0,1c-1,1,-1,1,-2,1l-1,0l-1,0l-1,-1l-1,0c0,1,0,1,-1,1l0,1c0,0,-1,-1,-1,-1l-1,0l-1,-1l-1,1c-1,0,-1,0,-1,0l-2,0l-1,0l-1,0l0,-1c0,0,0,-1,-1,-1l0,1l0,1l-1,0l-1,0l-1,0l0,-1c0,0,-1,0,-1,0l0,1c-1,0,-1,0,-1,0c0,0,-1,0,-1,0l-1,0l0,1l0,1l0,1l0,1l-1,0c0,1,0,1,0,1c-1,1,-1,1,-1,1c-1,0,-1,0,-1,1c-1,0,-1,0,-2,0l-1,0l-1,0c0,0,-1,0,-1,0c-1,-1,-1,-1,-1,-1c0,0,-1,0,-1,-1c0,0,0,-1,0,-1l-1,0l0,-1l1,-1l0,-1l0,-1l1,0l0,-1c0,1,0,1,0,1c0,0,0,1,0,1l-1,1c0,1,1,1,1,1c0,1,0,1,0,1l1,1c1,0,1,0,1,0c1,0,1,0,2,0c0,0,1,0,1,0l1,0c1,-1,1,-1,1,-1c0,0,1,0,1,-1c1,-1,1,-1,1,-1c0,-1,0,-1,-1,-1c0,-1,0,-1,0,-1c0,-1,0,-1,0,-1l0,-2l1,1c1,0,1,0,1,0c0,0,1,0,1,0l1,0l1,-1l0,-1l1,0l0,1l0,1c0,0,1,0,1,0c0,0,1,0,1,0l0,-1l0,-1l1,0l0,1l0,1c1,0,1,0,1,0l1,0l2,0l1,0c0,0,0,-1,1,-1c1,-1,2,-2,2,-2l1,1l1,1l1,1l1,0l1,0l1,0l1,0c1,0,1,-1,2,-1c0,1,1,1,1,1c1,0,1,0,2,0c0,0,0,-1,1,-1l0,-1c0,1,0,1,0,1c0,1,1,1,1,1c1,0,1,0,1,0c0,0,0,-1,1,-1l0,-1c1,2,1,2,2,2ZM300.5,489.5l-1,-1l1,-1l1,1ZM302.5,491.5l-2,-1l0,2l-2,-1l1,-2l1,1l1,-1l2,1ZM299.5,479.5l0,1c1,0,1,0,1,0l0,-1c0,1,0,1,1,1l0,-1l1,-1l0,1l0,1c0,1,-1,1,-1,1c-1,0,-1,0,-1,0c-1,1,-1,1,-1,1l-1,-1l0,-1l0,-1ZM303.5,477.5l-6,2c0,0,1,-1,1,-1l5,-3ZM291.5,496.5l-1,-1c0,-1,-1,-1,-1,-2l0,1l-1,0c0,0,0,1,1,1l1,0ZM287.5,482.5c0,0,1,-1,1,-1c0,0,1,0,1,0c1,0,1,0,2,0c0,1,0,1,0,1c0,1,0,1,0,1c0,0,-1,1,-1,1c0,0,-1,0,-1,0l-1,0l-1,0l2,0c1,-1,1,-1,2,-1c-1,0,-1,0,-1,-1c-1,0,-1,0,-1,0c0,0,-1,0,-1,1c0,0,-1,0,-1,0c0,-1,0,-1,0,-1ZM268.5,487.5l5,-2l-1,1l-4,2ZM361.5,493.5l0,1c0,0,1,0,1,0c0,0,0,-1,0,-1c0,0,-1,0,-1,0ZM361.5,501.5c-1,0,-1,0,-1,1c-1,0,-1,0,-2,0c0,0,-1,0,-2,-1l-1,0c1,0,1,0,1,0c1,0,1,0,1,0c0,0,1,0,1,0l1,0c0,-1,1,-1,1,-1l1,-1l1,0c0,-1,0,-1,0,-2c1,0,1,-1,1,-1l0,-1c0,1,-1,1,-1,1c0,0,-1,0,-1,0l-1,0c0,0,0,-1,0,-1c0,0,0,-1,0,-1l0,-1c0,0,0,-1,0,-1c0,0,1,0,1,-1l1,0c1,0,1,1,1,1c0,0,0,1,0,1c0,0,0,1,0,1c1,0,1,1,1,1c0,0,0,1,0,1c-1,1,-1,2,-1,3c0,0,-1,1,-1,1c0,0,0,1,-1,1ZM358.5,487.5l5,-2l-1,1l-4,2ZM348.5,495.5l0,1l-1,0c0,0,0,1,-1,1c0,0,-1,0,-1,0l-2,0c-1,0,-2,0,-3,0c0,-1,0,-1,0,-2l0,-1l-1,0c0,0,-1,0,-1,1l-4,1c-1,0,-1,1,-1,1c-1,0,-1,0,-2,0l-1,0c0,1,0,1,-1,1c0,1,0,2,0,2c0,0,-1,1,-1,1l-1,1l-1,0c0,0,0,1,-1,1l-1,0c0,0,-1,0,-2,-1l1,0c1,0,1,0,2,0c0,-1,0,-1,1,-1l1,-1c1,-1,1,-1,1,-1c0,-1,0,-1,1,-2l-1,-1l0,-1c0,0,0,-1,0,-1l1,0c0,0,0,1,0,1c0,0,1,0,1,0l1,0c1,0,1,0,1,0c0,0,1,0,1,0c0,0,1,0,2,-1l1,0l1,0l-1,0l-1,-1c-1,0,-2,0,-2,0c-1,0,-1,0,-1,0l-1,0l0,-1c1,0,1,-1,1,-1c1,0,1,0,2,0l1,0l1,0c1,1,2,1,3,1c1,1,1,1,2,1c0,0,1,0,2,0l-1,1l-1,0c0,1,0,1,0,1c1,0,1,0,1,0l1,0l1,0l1,0c1,0,1,0,1,0c1,0,1,0,1,0c1,-1,1,-1,1,-1l1,0l-1,0l1,0l0,1l1,0c0,0,1,0,1,0c0,0,1,0,1,0c0,-1,0,-1,0,-1l0,-1l1,0l0,1c0,1,0,1,0,1l1,0l1,0l-1,-1l1,-1l0,1l1,0l0,1l0,1l-1,0l0,1l-1,0l-1,0l0,-1l-1,0l-1,0c0,1,0,1,0,1l-1,0l-1,0l-1,0l0,-1l0,-1ZM348.5,484.5l4,-2l0,1l-4,2ZM337.5,489.5l-2,-1l1,-1l1,1ZM334.5,479.5l0,1c1,0,1,0,1,0l1,0l0,-1c0,1,0,1,0,1l1,0l0,-1l0,-1l1,0l0,1l0,1l-1,0c0,1,0,1,0,1l-1,0c-1,1,-1,1,-1,1c-1,0,-1,0,-1,-1l0,-1l0,-1ZM338.5,477.5l-5,2c0,0,0,-1,1,-1l5,-3ZM325.5,484.5l4,-2l0,1l-5,2ZM419.5,497.5l0,-1l0,-1l-1,-9l1,-2l1,11c0,0,0,1,0,1c-1,0,-1,1,-1,1ZM411.5,495.5c1,0,1,0,1,0c1,0,1,0,1,0c0,0,1,0,1,0c0,0,0,-1,0,-1l0,-2l-1,-6l0,-1c0,0,0,-1,0,-1c1,0,1,-1,1,-1c0,0,0,1,0,1c0,1,1,1,1,1c0,0,0,1,0,1l0,1l-1,-1c0,1,0,1,0,1c0,0,0,1,1,2c0,0,0,1,0,2c0,1,0,1,0,1l0,2c0,1,0,1,0,1l-1,0c0,1,0,1,0,1c0,0,-1,1,-1,1l-1,0l-1,0c-1,0,-1,0,-1,0c-1,0,-1,0,-1,-1c-1,0,-1,0,-1,0l-1,-1c0,0,0,1,0,1l-1,0l-1,1l-1,0l-1,0l-1,0c0,1,0,1,0,1c0,1,0,2,-1,2c0,0,0,1,0,1c0,0,-1,0,-1,1c0,0,-1,0,-1,0c0,0,0,1,-1,1l-1,0c-1,0,-1,0,-2,-1l-1,0c1,0,1,0,1,0l1,0c0,0,1,0,1,0c1,-1,1,-1,2,-1l0,-1c1,0,1,0,1,0c0,-1,0,-1,1,-1c0,-1,0,-1,0,-2c0,0,1,0,1,0l-1,-1l0,-1c0,0,0,-1,0,-1c0,0,0,1,1,1l1,0c1,0,1,0,1,0l1,0l1,0c0,0,0,-1,0,-1c-1,0,-1,-1,-1,-1c-1,0,-1,0,-1,0l1,-1c0,-1,1,-1,1,-1c0,0,1,0,1,0c0,0,1,0,1,0l1,0l0,1c1,0,1,0,1,1c0,0,-1,0,-1,0c0,1,0,1,0,1l-1,0c0,1,1,1,1,1l1,0l1,0ZM411.5,479.5c1,0,1,0,1,0c1,0,1,0,2,0c0,0,1,0,1,0c0,0,1,0,1,0l0,1c-1,0,-1,0,-1,1l-1,0c-1,0,-1,0,-1,0l-1,0l1,0c1,0,1,-1,2,-1c0,0,-1,0,-1,0l-1,0c0,0,-1,0,-1,0l-1,0l0,-1ZM406.5,484.5l4,-2l0,1l-4,2ZM397.5,486.5l1,0c0,0,1,0,1,0c1,0,1,0,1,0c1,0,1,0,1,0c0,1,0,1,0,1l-1,1c0,0,-1,0,-1,0l0,1c0,0,-1,0,-1,0l-1,0l2,-1c0,0,1,0,1,-1l-1,0c-1,0,-1,0,-2,0c0,-1,0,-1,0,-1ZM390.5,488.5l-2,-1l1,-1l1,1ZM391.5,491.5l-1,-1l-1,1l-1,-1l1,-1l1,0l1,-1l1,1ZM380.5,504.5l-1,0c0,-1,-1,-1,-1,-1l-1,-1c0,0,0,-1,0,-1l0,-1l0,-1l0,-1l0,-1l1,0l0,-1l1,0c-1,1,-1,1,-1,1c0,0,0,1,0,1l0,1c0,1,0,1,0,1c0,1,0,1,1,1l0,1l1,0c1,0,1,0,2,0c0,0,1,0,1,0c1,0,1,0,1,0c1,-1,1,-1,1,-1c1,0,1,0,1,-1c1,0,1,0,1,0c0,-1,0,-1,0,-1c0,-1,0,-1,0,-2l-1,-1l0,-2l1,0l0,1l1,0l1,0c0,0,1,0,1,0c0,0,1,0,1,0c0,-1,0,-1,0,-1l0,-1l1,0l0,1c0,1,0,1,0,1l1,0l1,0l0,-1l0,-1l1,1l0,1l0,1l-1,0l0,1l-1,0l-1,0l0,-1l-1,0l-1,0c0,1,0,1,0,1l-1,0l-1,0l0,1c0,1,0,1,0,1l-1,0l0,1l0,1c-1,1,-1,1,-1,1c0,1,-1,1,-1,1c0,0,-1,0,-1,1c-1,0,-1,0,-1,0l-1,0l-1,0c-1,0,-1,0,-1,0ZM387.5,505.5l-5,2c1,0,1,-1,1,-1l4,-2ZM124.5,495.5c0,0,-1,0,-1,1c-1,0,-1,0,-1,0c-1,0,-1,0,-2,0c0,0,-1,0,-1,0l0,-1l0,-1c1,0,1,0,1,0c0,0,1,0,1,-1c1,0,1,0,1,-1c0,0,0,-1,0,-1c-1,0,-1,-1,-1,-1c0,-1,-1,-1,-1,-1c-1,-1,-1,-1,-2,-2l0,-1c-1,0,-1,0,-1,0c-1,0,-1,0,-1,0c-1,0,-1,-1,-1,-1c0,-1,0,-1,0,-1c0,0,0,-1,0,-1c0,-1,0,-1,0,-1c1,0,1,1,2,1c0,1,1,1,1,1c1,1,2,2,2,2c1,1,1,2,2,3l0,1c1,0,1,0,1,1c0,-1,0,-1,0,-2c0,0,1,-1,1,-1c0,-1,0,-2,0,-2c0,0,0,-1,0,-1c0,-1,0,-2,0,-2l-1,0c0,0,0,-1,0,-1c0,0,1,0,1,-1c1,1,1,1,1,1l1,0c0,0,-1,1,-1,1c0,0,0,1,0,1c0,1,0,1,0,2c0,0,0,1,0,1c0,1,0,1,-1,1c0,1,0,2,0,2c0,1,0,1,-1,1c1,1,1,1,1,1c0,1,0,1,0,1c0,0,0,1,0,1c0,0,0,1,0,1ZM123.5,493.5l-1,0l0,1c0,0,1,0,1,0c0,-1,0,-1,0,-1ZM182.5,471.5l0,1l-1,0c0,0,0,1,0,1l0,1c0,0,0,1,0,1l0,-1l0,-1l0,-1c0,-1,0,-1,0,-1c1,0,1,-1,2,-1l1,0l0,-1ZM182.5,473.5c1,-1,1,-1,1,-1c0,0,1,-1,1,-1c0,0,0,1,0,1c1,0,1,0,1,1l-1,1l1,0l0,1l0,1l-1,-1l-1,0l0,1c-1,0,-1,1,-1,1l-1,0l-1,0l1,0l1,-1l1,-1l0,-1c-1,0,-1,0,-1,0l0,-1ZM184.5,473.5l-1,0l0,1l1,0l0,-1ZM34.5,494.5l0,-1c0,0,1,0,1,0l0,-1l0,-1l0,-1l0,-1l0,-1l0,-1l1,1l-1,0c0,0,0,1,0,1l0,1l0,1l1,0l-1,1l0,1l1,-1l1,0l0,-1l1,0l1,0c0,0,0,1,0,1c0,1,0,1,0,1l-1,0l0,1c0,0,-1,0,-1,0c-1,0,-1,0,-1,0ZM38.5,492.5c-1,0,-1,0,-1,0l-1,1l-1,0l1,0c0,0,1,0,1,0c1,0,1,0,2,0c0,-1,0,-1,-1,-1ZM203.5,494.5c0,0,1,0,1,-1l0,-1l0,-1l0,-2l0,-1l1,1l-1,0l0,1l0,1l0,1l0,1l1,-1l1,0l1,0l1,0l0,1c0,1,0,1,-1,1c0,0,-1,0,-1,0c-1,0,-1,0,-1,0ZM206.5,492.5c0,0,0,1,0,1l-1,0l-1,1l1,0c0,0,1,0,1,0l0,-1c1,0,1,0,2,0l-1,0l0,-1ZM209.5,311.5l0,-1l0,-1l0,-8l1,-3l0,11l0,1c0,1,0,1,-1,1ZM202.5,310.5l1,0l0,-1c1,0,1,0,1,0l0,-1l0,-2l0,-6c0,0,0,-1,0,-1l0,-1c1,0,1,0,1,0c0,0,0,1,0,1l1,0c0,0,-1,1,-1,1c0,0,0,1,0,1c0,0,0,1,0,2c0,0,0,1,0,3l0,1l0,1l0,1c0,0,0,1,0,1c-1,0,-1,1,-1,1c0,0,-1,0,-1,0l-1,0l-1,0c0,1,0,1,0,1c-1,1,-1,2,-1,2c0,1,0,1,-1,1c0,0,0,1,0,1c-1,0,-1,1,-1,1c-1,0,-1,0,-1,0c-1,0,-1,0,-1,0l-1,0c0,0,-1,0,-1,0c-1,0,-1,-1,-1,-1l1,0c1,0,1,0,2,0c0,0,1,0,1,-1c0,0,1,0,1,0c0,-1,0,-1,1,-1c0,0,0,-1,0,-1c0,0,1,-1,1,-1c0,-1,0,-1,0,-1l-1,0c0,-1,0,-1,0,-1c0,0,0,-1,0,-1c1,0,1,0,1,-1l0,1l1,0c0,1,0,1,0,1l1,0ZM197.5,300.5l0,1c0,0,1,0,1,0l0,-1l0,-1l0,1l1,0c0,0,1,0,1,0l0,-1c0,1,0,1,0,1l0,1l-1,0l0,1c0,0,0,-1,0,-1l-1,0l0,1c0,0,-1,0,-1,0l-1,0l0,-1l1,-1ZM201.5,297.5l-6,3c1,-1,1,-1,1,-1l5,-3ZM193.5,309.5l-1,0l-1,0c-1,0,-1,0,-2,0l-1,0l-1,0l0,1l-1,0c-1,0,-1,0,-1,0c-1,1,-1,1,-2,1c0,0,-1,0,-2,0l-1,0l-1,0c-1,0,-1,-1,-1,-1c0,0,-1,1,-1,1c0,0,-1,0,-1,0l-1,0c-1,0,-1,0,-2,0l0,-1c-1,1,-1,1,-1,2l-1,0l-1,0c-1,-1,-1,-1,-1,-1l-1,0l0,1c0,0,-1,1,-1,1c-1,1,-1,1,-2,1c-1,0,-3,0,-4,0l4,-2l2,0c0,-1,1,-1,1,-2l1,-1c0,-1,0,-1,1,-1c0,-1,0,-1,0,-1l1,0c0,0,1,0,1,1c1,1,1,1,1,1c1,0,1,1,1,1c0,0,1,0,1,0l1,0c1,-1,1,-1,1,-1c0,0,1,0,1,0c0,-1,0,-1,0,-1c0,0,0,1,0,1c0,0,1,0,1,0c1,1,1,1,1,1l1,0c0,0,1,0,1,0c0,0,1,-1,2,-1l1,0l1,-1l1,0l-1,0l-1,-1l-1,0l-1,0l-1,0c0,0,0,-1,0,-1c1,0,1,-1,1,-1c0,0,1,0,1,0l1,0l1,1l2,0l1,1l1,0l1,0c0,0,1,0,1,0l1,0ZM185.5,315.5l-4,2c0,-1,1,-1,1,-1l4,-2ZM179.5,315.5l-1,-1l-1,1l-1,-1l0,-1l2,0l1,-1l1,1ZM171.5,310.5l0,-1l-1,0l-1,0c0,0,1,0,1,1l1,0ZM170.5,317.5l-4,2c0,-1,1,-1,1,-1l4,-2ZM259.5,311.5l0,-1l0,-1l-1,-8l1,-3l1,11l0,1c-1,1,-1,1,-1,1ZM251.5,310.5c1,0,1,0,1,0c0,0,1,0,1,-1l1,0l0,-1l0,-2l-1,-6c0,0,0,-1,0,-1l0,-1c0,0,1,0,1,0c0,0,0,1,0,1c0,0,1,0,1,0c0,0,0,1,0,1c0,0,0,1,-1,1c0,0,0,1,0,2c0,0,0,1,1,3l0,1l0,1l0,1l-1,0c0,0,0,1,0,1c0,0,0,1,0,1c-1,0,-1,0,-1,0l-1,0l-1,0c0,0,-1,0,-1,0c0,1,0,1,0,1c0,1,0,2,-1,2c0,1,0,1,0,1c0,0,-1,1,-1,1c0,0,-1,1,-1,1c0,0,-1,0,-1,0c0,0,-1,0,-1,0c-1,0,-1,0,-2,0c0,0,0,-1,-1,-1c1,0,1,0,1,0l1,0c0,0,1,0,1,0c1,0,1,0,1,-1c1,0,1,0,1,0c0,-1,1,-1,1,-1c0,0,0,-1,1,-1c0,0,0,-1,0,-1c0,-1,0,-1,0,-1c0,-1,0,-1,0,-1c0,0,0,-1,0,-1l0,-1l0,1l1,0c0,1,0,1,0,1l1,0ZM246.5,300.5l0,1c0,0,1,0,1,0l0,-1l1,-1l0,1l1,0l0,-1c0,1,0,1,0,1l0,1l0,1l-1,0c0,0,0,-1,0,-1l0,1l-1,0c-1,0,-1,0,-1,0l0,-1l0,-1ZM250.5,297.5l-5,3c0,-1,0,-1,0,-1l6,-3ZM233.5,306.5c1,0,1,0,1,0l1,-1l1,0c0,0,1,0,1,0c0,0,1,0,1,0l-1,0l-1,-1l-1,0c0,0,-1,0,-1,0c-1,0,-1,0,-1,0c0,-1,1,-1,1,-1c0,-1,1,-1,1,-1c1,0,2,0,3,1l2,1l0,1l1,0l1,0l0,1l1,0l1,0l1,0l-1,2l-2,-1l-1,0l-2,0l-1,-1c-1,0,-2,0,-2,0l-1,0l-1,0l0,1c0,0,1,0,1,1l0,1c0,0,0,1,0,1c0,0,-1,1,-1,1l-1,0c0,0,-1,-1,-1,-1l-1,0c0,1,-1,1,-1,1l-1,0l-1,0l-1,0c0,1,0,1,0,1c0,0,0,1,0,1c0,1,0,2,-1,2c0,1,0,1,-1,2c0,0,-1,1,-2,1c-1,0,-1,0,-2,0c-1,0,-1,0,-2,0c-1,0,-1,0,-1,-1c-1,0,-1,0,-1,-1c-1,0,-1,-1,-1,-2c0,0,0,-1,0,-1c0,0,1,0,1,-1l0,-1c0,0,1,0,1,0l0,1c-1,0,-1,0,-1,0c0,1,0,1,0,1l0,1l0,1c1,0,1,0,1,1l1,0c1,0,1,0,2,0c1,0,2,0,3,0c0,0,1,-1,1,-1c1,0,1,0,1,0c0,-1,0,-1,0,-1l0,-1l0,-1c0,-1,-1,-1,-1,-1l0,-1l1,-1c0,1,1,1,1,1l1,0l1,0c1,0,1,0,1,0l1,-1l0,-1c1,0,1,-1,1,-1l1,-1ZM233.5,297.5c0,0,1,0,1,0c1,-1,1,-1,2,-1c0,0,1,0,1,1c0,0,1,0,1,0l-1,0c0,1,0,1,0,1c0,1,-1,1,-1,1l-1,0l-1,0l-1,0l2,0c1,0,1,-1,2,-1c-1,0,-1,0,-1,0c0,0,-1,0,-1,0c0,0,-1,0,-1,0c0,0,-1,0,-1,0l0,-1ZM232.5,309.5l1,0l1,0c0,-1,0,-1,0,-1c-1,0,-1,0,-1,0c0,0,-1,0,-1,0c0,0,0,1,0,1ZM228.5,304.5l0,-1c0,0,0,-1,0,-1c0,-1,0,-2,0,-2l0,-1c0,0,1,0,1,1c0,0,0,1,0,1l0,1c0,1,0,1,0,1l-1,1ZM222.5,309.5l-2,-1l1,-1l2,1ZM224.5,322.5l-4,2c0,-1,0,-1,1,-1l4,-2ZM283.5,311.5l0,-1l0,-1l0,-8l1,-3l0,11l0,1c0,1,-1,1,-1,1ZM279.5,311.5c-1,0,-1,0,-1,0c0,0,-1,0,-1,0c-1,-1,-1,-1,-1,-2c0,0,0,1,-1,2c0,0,-1,0,-2,0c0,0,-1,0,-1,0c-1,-1,-1,-1,-1,-3l0,1c0,1,-1,1,-1,1c0,0,-1,0,-2,0c0,0,-1,0,-1,0c0,-1,0,-1,0,-1c0,0,0,-1,0,-1c0,0,0,-1,1,-1c0,0,1,0,1,-1l1,0l1,-1l0,-1c0,0,0,-1,0,-1l0,1l1,1l0,3c0,1,0,1,0,1c1,0,1,0,2,0l1,0c0,0,0,-1,0,-1c0,-1,0,-1,0,-2c0,-1,0,-1,0,-2l0,-1l0,-1l0,-1l1,3l0,2l0,1l0,1c1,0,1,0,1,0c0,0,0,1,1,1l1,0c0,0,0,-1,0,-1l0,-1l0,-1l-1,-1l0,-2l1,0l0,-1l0,-1c0,1,0,1,0,2l0,1l1,2c0,0,0,1,0,2c0,0,0,1,0,1c0,1,-1,1,-1,1c0,1,0,1,0,1ZM271.5,306.5l-1,1c-1,0,-1,0,-1,0c0,1,-1,1,-1,1c1,0,2,0,2,0c0,0,1,0,1,0ZM318.5,316.5l-2,-1l1,-2l2,1ZM316.5,310.5l1,0l0,-1c0,0,0,-1,0,-1c0,-1,0,-1,-1,-2l-1,0c0,-1,0,-1,0,-1c0,-1,1,-1,1,-1l1,1l0,1l1,0l0,1c0,1,0,1,0,1l0,1c0,1,0,1,0,1l-1,1l-1,0l-1,0l-1,0c-1,-1,-1,-1,-1,-1c0,0,0,-1,0,-1l0,1c0,0,-1,0,-1,1c0,0,-1,0,-1,0c-1,0,-1,0,-2,-1l0,1c-1,0,-1,0,-2,0c-1,0,-1,0,-2,-1l0,1c-1,0,-1,0,-2,0l-1,0c0,0,-1,0,-1,0c-1,0,-1,0,-1,-1c0,1,0,1,-1,2c0,0,-1,0,-2,0c0,-1,-1,-1,-1,-1l-1,1c0,0,0,1,-1,1c0,1,-1,1,-2,1c-1,0,-2,0,-4,0l5,-2l1,0c1,-1,1,-1,2,-2l0,-1c1,-1,1,-1,1,-1c0,-1,0,-1,1,-1c1,0,1,0,1,1c1,1,1,1,2,1c0,0,0,1,0,1c1,0,1,0,1,0l1,0l1,0l0,-1c1,0,1,0,2,-1l0,1c0,0,1,1,1,1c1,0,1,0,2,-1l1,-1l0,1c0,0,1,0,1,0c1,0,1,0,1,0l1,-1c1,1,1,2,2,2l1,0ZM318.5,317.5l-4,2c0,0,1,-1,1,-1l3,-2ZM174.5,300.5c0,-1,1,-1,1,-1c0,0,1,0,1,0c1,0,1,0,2,0c0,0,0,1,0,1c0,0,0,1,0,1c-1,0,-1,0,-1,1c-1,0,-1,0,-1,0c0,0,-1,0,-1,0c0,0,-1,0,-1,0l2,-1c1,0,1,0,1,-1c-1,0,-1,0,-1,0c-1,0,-1,0,-1,0c-1,0,-1,1,-1,1l0,-1ZM306.5,301.5c1,-1,1,-1,1,-1c1,0,1,0,2,0c0,0,1,0,1,0c0,0,1,1,1,1l-1,0c0,0,0,1,0,1c0,0,-1,0,-1,1l-1,0l-1,0l-1,0l2,-1c1,0,1,0,2,-1c-1,0,-1,0,-1,0c0,0,-1,0,-1,0c0,0,-1,0,-1,0c0,0,-1,0,-1,1l0,-1ZM299.5,310.5l0,-1l-1,0l-1,0l1,1ZM271.5,315.5l-4,2c0,0,0,-1,0,-1l4,-2ZM298.5,317.5l-4,2c0,-1,0,-1,0,-1l4,-2ZM113.5,576.5l4,-2l0,1l-4,2ZM114.5,593.5l0,-1l0,-1l0,-9l1,-2l0,11l0,1c0,0,0,1,-1,1ZM155.5,310.5c0,1,0,2,-1,2c0,0,0,1,0,1l0,1c-1,0,-1,0,-1,0l1,0l0,1l-1,0l0,1l-1,0l0,1c0,0,-1,0,-2,0l0,1l-1,0l-1,0l-1,1l0,1l-1,0c0,0,0,1,0,1l0,-1l1,-1l1,-1c0,0,1,0,1,0l1,0l0,-1c1,0,1,0,2,0l0,-1c0,0,1,0,1,0l0,-1l1,0l-1,-1l0,-1l1,0l0,-1l0,-1l0,-1c0,-1,0,-2,0,-2l0,-1c0,0,-1,0,-1,-1l1,-1c0,0,-1,0,-1,-1l-1,0l-1,-1l-2,0l-1,-1c0,0,-1,0,-1,-1l-1,0l0,-1l0,-1l0,1l1,1l1,0l0,1l2,0l0,1l1,0l1,0l0,1l1,0c1,1,1,1,1,1c0,1,0,1,0,1l-1,0l1,0l0,1l0,1l1,0l0,1ZM151.5,305.5l0,1l-1,-1l-1,-1c0,0,-1,0,-1,0l0,-1l1,0l0,1c1,0,1,0,1,0c0,0,1,0,1,0l0,1ZM151.5,315.5l0,1l-1,0l0,1l-1,0l-1,0c0,-1,0,-1,0,-1c0,0,1,0,1,0l1,0c0,-1,1,-1,1,-1ZM147.5,317.5c0,0,0,1,0,1c-1,0,-1,0,-1,0l0,-2l1,0l0,1ZM147.5,303.5c0,0,0,1,0,1c0,0,-1,0,-1,0l0,-2l1,0l0,1ZM146.5,306.5l0,-1c1,0,1,0,1,0c1,0,1,0,2,0c0,1,0,1,0,1l1,1l1,-1c0,0,0,1,1,1l0,1l0,1l0,1l0,1l0,1c0,1,0,1,0,1c-1,0,-1,1,-1,1l-1,-1l0,1l-1,0l0,1l-1,0l-1,0c-1,0,-1,0,-1,-1c1,1,1,1,1,1l1,0c0,-1,0,-1,0,-1l1,0l1,-1l1,0l1,-1l0,-1l0,-1c0,-1,0,-1,0,-2l-1,-1l-1,0l-1,-1l-1,0l0,-1l-1,0l-1,1ZM135.5,310.5l0,-1c0,-1,0,-1,1,-2l0,-1l-1,0c0,-1,0,-1,0,-1c0,0,1,0,1,0l1,-1l1,0l0,-1l1,0l1,-1l2,0l0,-1l1,-1c1,0,1,0,1,-1l0,1l-1,1c-1,1,-1,1,-1,1l-2,1l-1,0l-1,0l0,1l-1,0c0,1,-1,1,-1,1l1,1l-1,1l0,1l-1,0l0,1c0,0,0,1,0,1l0,1l0,1l1,0l0,1l1,1l-1,1l1,1l1,0l0,1l1,0l1,0l0,1l2,0l1,1l0,1c1,0,1,0,1,0l0,1c0,0,0,-1,-1,-1l-1,-1c0,0,0,-1,0,-1c-1,0,-2,0,-3,-1l-1,0l0,-1l-1,0l-1,-1l-1,0l0,-1l2,0l-1,0l0,-1l-1,-1l0,-1ZM138.5,305.5l1,0l0,-1l1,0l1,-1l1,0l0,1c-1,0,-1,0,-1,0c-1,0,-1,0,-1,1l-1,0l0,1l0,-1l-1,0ZM138.5,315.5l1,0l1,1l1,0l1,0l-1,1c0,0,1,0,1,0c0,0,-1,0,-1,0c-1,-1,-2,-1,-2,-1l-1,-1ZM143.5,317.5c0,0,0,-1,0,-1l1,0l0,2c0,0,-1,0,-1,0c0,-1,0,-1,0,-1ZM143.5,303.5c0,0,0,-1,0,-1l1,0l0,2c0,0,-1,0,-1,0l0,-1ZM144.5,306.5l-1,0l0,-1l-1,0c-1,1,-1,1,-1,1l-1,0l0,1l-1,0c0,0,-1,0,-1,0l0,1l0,1l0,1c0,0,0,1,0,1l0,1c0,1,0,1,1,1l1,0l1,1l1,1c1,0,1,0,1,-1c0,0,1,0,1,0l0,1l-1,0l-1,0c0,0,-1,0,-1,0c0,-1,-1,-1,-1,-1l0,-1l-1,1l-1,0l0,-1l0,-1l-1,-1l0,-1c0,0,0,-1,0,-1c0,0,0,-1,1,-1l0,-1c0,0,0,-1,1,-1l1,1l0,-1l1,0l0,-1c0,0,1,0,1,0c1,0,1,0,1,0l1,0l0,1ZM274.5,297.5l0,1l1,0l0,-1c0,1,1,1,1,1l0,-1l1,-1l0,1l0,1c0,0,0,1,-1,1c0,0,-1,0,-1,0c0,0,-1,1,-1,1l-1,-1l0,-1l0,-1ZM275.5,295.5c0,-1,0,-1,0,-2c-1,0,-1,-1,-1,-1l0,-1l1,0l0,1l0,1l0,1l0,1ZM167.5,479.5l0,1l1,0c0,0,0,-1,0,-1l0,-1l1,0l0,1c0,0,1,0,1,0l0,-1l1,-1l0,1l0,1l0,1c0,0,-1,0,-1,0l0,1l-1,-1l0,1l-1,0l-1,0c0,0,-1,0,-1,0l0,-1l0,-1l1,0ZM171.5,475.5l-6,3c1,-1,1,-1,1,-1l5,-3ZM108.5,356.5l0,-1l0,-1l-1,-8l1,-3l1,11l0,1l-1,0c0,1,0,1,0,1ZM111.5,359.5l-4,2c0,-1,0,-1,0,-1l4,-2ZM56.5,387.5c0,-1,0,-1,0,-2c0,-1,0,-1,-1,-2l1,0l0,-1c0,1,0,1,0,1c1,1,1,1,1,1l0,1l0,1c-1,1,-1,1,-1,1ZM55.5,389.5l0,1c0,0,0,1,1,1l0,-1l0,-1l1,-1l0,1c0,0,0,1,0,1c0,0,1,0,1,0c0,0,0,-1,0,-1l1,-1l0,1l0,1c0,1,-1,1,-1,1l-1,0l-1,0c0,1,0,1,-1,1c0,0,0,-1,-1,-1c0,0,0,-1,0,-1l1,0l0,-1ZM261.5,388.5l4,-2l-1,1l-4,2Z" class="g1_39" />
</svg>