<?xml version="1.0" encoding="UTF-8" standalone="no"?>
<!DOCTYPE svg PUBLIC "-//W3C//DTD SVG 1.1//EN"
"http://www.w3.org/Graphics/SVG/1.1/DTD/svg11.dtd">
<svg version="1.1" xmlns="http://www.w3.org/2000/svg" xmlns:xlink="http://www.w3.org/1999/xlink">
<defs>
<style type="text/css"><![CDATA[
.g2_49{
fill: #1F1A17;
stroke: #1F1A17;
stroke-width: 1;
stroke-linecap: butt;
stroke-linejoin: miter;
}
.g1_49{
stroke: #1F1A17;
stroke-width: 1;
stroke-linecap: butt;
stroke-linejoin: miter;
}
]]></style>
</defs>
<path fill-rule="evenodd" d="M306.5,102.5l-4,2c0,0,0,-1,0,-1l5,-2ZM259.5,85.5c1,-1,1,-1,1,-1c1,0,1,0,2,0c0,0,1,0,1,0c0,0,1,1,1,1c-1,1,-1,1,-1,1c0,0,0,1,-1,1c-1,0,-1,0,-1,0l-1,0l1,-1c1,0,1,0,2,0c0,-1,-1,-1,-1,-1l-1,0c0,0,-1,0,-1,0c0,0,0,1,-1,1l0,-1ZM175.5,83.5c0,0,0,-1,0,-1c1,0,1,0,2,0c0,0,1,0,1,0c1,1,1,1,1,1c0,1,-1,1,-1,1c0,0,0,1,-1,1c-1,0,-1,0,-1,0l-1,0l1,0c1,-1,2,-1,2,-1c0,0,-1,-1,-1,-1l-1,0l-1,1l-1,0c0,-1,0,-1,0,-1l1,0ZM127.5,74.5c0,2,0,3,-1,5l0,1c-1,0,-1,0,-1,0l-1,0l0,-1c1,0,1,0,1,0l1,0l0,-1c-1,0,-1,0,-1,-1l-1,0c0,-1,0,-1,0,-1l-1,0c0,0,0,-1,0,-1c0,0,1,0,1,0c0,0,0,1,1,1c0,1,0,1,1,1c0,0,0,1,0,1c0,-1,1,-1,1,-1l0,-1l0,-1ZM138.5,94.5c0,1,0,2,0,2c-1,0,-1,0,-1,1c0,1,-1,1,-1,1l1,0l0,1l-1,0l0,1l-1,0l0,1c0,0,-1,0,-1,0l-1,1l-1,0l-1,0l0,1l-1,0l0,1l-1,0l-3,0l-2,0l-1,-1c0,0,-1,-1,-1,-1c-1,0,-2,0,-2,-1l-1,0l-1,0l0,-1l-1,0l0,-1l-1,0l0,-1l1,0l-1,-1l0,-1l-1,0l0,-1l0,-1l0,-1l0,-1c0,0,1,0,1,-1l1,-1l-1,0l0,-1l1,0l0,-1l1,0l0,-1l1,0l1,-1l2,0l0,-1l1,0l1,-1l0,-1l2,0l3,0l1,1l0,1l1,0l0,1l2,0l0,1l1,0l1,0l0,1l1,0c1,1,1,1,1,1l1,0c0,0,-1,0,-1,1l-1,0l1,0l0,1l0,1l1,0l0,1ZM129.5,104.5l1,-1l1,-1c1,0,1,0,1,0c1,0,1,0,1,-1c1,0,1,0,2,-1c1,0,1,0,1,0l0,-1l1,0l-1,-1l0,-1l1,0l0,-1l0,-1l0,-1c0,-1,0,-2,0,-2l0,-1l-1,-1l1,-1c0,0,-1,0,-1,-1l-1,0l0,-1l-1,0l-2,-1l-1,0c0,0,-1,0,-1,-1l-1,0l0,-1l-1,0l-2,0l-2,0l0,1l-1,0c0,1,-1,1,-1,1l-2,1l-1,0l-1,0l0,1l-1,0c0,1,0,1,-1,1l1,1l-1,1l0,1l0,1c0,0,0,1,0,1l0,1l0,1l0,1l1,0l0,1l-1,1l1,0l0,1l1,0l0,1l1,0l1,0l1,1l1,0c0,0,1,0,1,1l1,0l0,1l2,0ZM134.5,89.5l0,1l-1,-1l0,-1l-1,0l-1,0c0,0,0,-1,0,-1l1,0l0,1c1,0,1,0,1,0c1,0,1,0,1,0l0,1ZM135.5,99.5l-1,0l0,1l-1,0l-1,1l-1,0l0,-1c1,0,1,0,1,0l1,0c0,-1,1,-1,1,-1ZM130.5,101.5c0,0,0,1,0,1c-1,0,-1,0,-1,0l-3,0l-2,0l-1,0l0,-1c0,0,0,-1,0,-1c0,0,1,0,1,0l2,0l3,0l1,0l0,1ZM130.5,87.5c0,0,0,1,0,1c0,0,-1,0,-1,0l-3,0l-2,0l-1,0l0,-1c0,0,0,-1,0,-1l1,0l2,0l3,0l1,0l0,1ZM129.5,90.5c0,-1,0,-1,0,-1l1,0l1,0l1,0c0,0,0,1,1,1l0,1l1,-1l1,1l0,1l0,1l1,0l0,1l0,1l-1,0l0,1c0,1,0,1,0,1c0,0,-1,0,-1,1l-1,-1l0,1l-1,0l0,1l-1,0l-1,0c-1,0,-1,0,-1,-1l-3,0l-2,0l0,1c-1,0,-1,0,-1,0c-1,0,-1,0,-2,0c0,-1,0,-1,-1,-1l0,-1l-1,1l-1,-1l0,-1l0,-1l0,-1c0,0,0,-1,0,-1c0,0,0,-1,0,-1l0,-1c1,-1,1,-1,1,-1l1,1l1,-1l0,-1c1,0,1,0,2,0l1,0l0,1l2,0ZM129.5,98.5l1,0l0,1l1,0l0,-1c0,0,1,0,1,0l1,-1l1,0l1,0l0,-1l0,-1l0,-1c0,-1,0,-1,0,-2c0,0,0,-1,0,-1c-1,0,-1,0,-1,0l-1,0l-1,-1l-1,0l0,-1c-1,0,-1,0,-1,0l-1,1l-3,0l-2,0l0,-1l-1,0c-1,0,-1,0,-1,0c0,0,0,1,-1,1l0,1c-1,0,-1,0,-1,0l-1,0l-1,1l0,1l0,1c0,0,0,1,0,1l0,1c0,1,1,1,1,1l1,0l1,1l1,0l0,1l1,0l1,-1l2,0l3,0ZM127.5,93.5l-1,1l1,0l0,1c0,1,0,1,0,1l1,0c0,0,-1,1,-1,1c-1,0,-1,-1,-1,-1l0,-1l1,0l0,-1l-1,0l0,-1l1,0c0,0,0,-1,0,-1ZM125.5,92.5l0,1c0,1,0,1,1,1l0,1l0,1l-1,0l0,1c0,-1,0,-1,0,-1l0,-1c0,0,0,-1,-1,-2ZM119.5,89.5l0,-1l1,0l1,0l0,-1l1,0l0,1c0,0,-1,0,-1,0l-1,0l0,1l-1,1l0,-1ZM119.5,99.5c0,0,1,0,1,1l1,0l1,0c0,1,0,1,0,1l-1,0c-1,-1,-1,-1,-2,-1l0,-1ZM210.5,96.5c0,0,-1,0,-1,0l-1,0l0,-1l-1,0l-1,0c0,1,0,1,0,1l-1,0l0,1l-1,0l-1,0c-1,0,-1,0,-1,1l0,1c0,0,-1,1,-1,1c0,0,0,1,-1,1l-1,0c0,1,0,1,0,1c0,0,-1,0,-1,0c0,0,-1,0,-1,0c-1,0,-1,0,-2,0c0,-1,0,-1,-1,-1c1,0,1,0,1,0c0,0,1,0,1,0c0,0,1,0,1,0c1,0,1,-1,2,-1c1,-1,1,-1,1,-1c0,0,1,-1,1,-1c0,0,0,-1,0,-1l-1,-1l-1,0l0,-1l0,-1l0,-1l0,-1c1,0,1,0,1,0c0,0,1,0,1,0c1,0,1,0,1,1c0,0,0,1,0,1c1,0,1,1,1,1l1,0c1,0,1,0,1,0c0,0,1,0,1,0l0,-1l1,-1c0,0,0,-1,1,-1l0,-1c0,0,1,0,1,0c0,0,1,0,1,1c0,0,0,1,0,1l0,1l1,0l0,1l-1,0c0,0,0,1,0,1ZM208.5,94.5l1,0c0,-1,0,-1,0,-1l-1,0c0,1,0,1,0,1ZM206.5,85.5l0,1c0,0,1,0,1,0l0,-1l0,-1l0,1l1,0l0,1c0,0,0,-1,1,-1l0,-1l0,1l0,1c0,0,0,1,-1,1l-1,0l0,-1l0,1c0,0,-1,0,-1,0c-1,0,-1,0,-1,-1l0,-1l1,0ZM207.5,80.5c0,0,0,-1,1,-1l1,0l0,1l0,1l0,1l0,1l-1,0l-1,0c0,1,0,1,-1,1l-1,0c1,0,2,-1,3,-2l-1,0c0,0,0,-1,0,-1c0,0,0,-1,0,-1ZM208.5,80.5l0,1l0,-1ZM198.5,88.5c0,0,1,-1,1,-1l0,-1c1,0,1,0,2,0l0,1l0,1l-1,-1l-1,0c0,0,0,1,0,1c0,0,1,0,1,1c1,0,1,0,1,0l1,0l-4,2c0,0,0,-1,0,-1l1,0c-1,-1,-1,-1,-1,-2ZM200.5,94.5c0,1,0,1,0,1c0,0,1,0,1,0c0,0,0,-1,0,-1c0,0,-1,0,-1,0ZM196.5,82.5l1,0c0,0,1,0,1,0c1,0,1,0,2,0c0,0,0,1,0,1l0,1c-1,0,-1,0,-1,0c-1,0,-1,0,-1,0c0,0,-1,1,-1,1c0,0,-1,-1,-1,-1l2,0c0,0,1,-1,1,-1c-1,0,-1,0,-1,0c-1,0,-1,0,-1,0c-1,0,-1,0,-1,0c0,-1,0,-1,0,-1ZM193.5,96.5l-1,0c-1,0,-1,0,-1,-1l-1,0c-1,1,-1,1,-1,1l-1,1l-1,0l-1,0c0,0,0,-1,0,-1c-1,0,-1,0,-1,0c-1,0,-1,0,-1,0c0,-1,0,-1,0,-1c-1,0,-1,0,-1,0c0,0,0,1,0,1c0,0,-1,0,-1,0c0,0,-1,0,-1,0l0,1l-1,0l0,-1l-1,0l-1,0c0,-1,0,-1,0,-1l-1,-1l0,-1c0,-1,0,-1,0,-1c0,1,-1,2,-1,2c-1,0,-1,0,-1,0c0,0,0,1,0,1c0,0,0,1,0,1c0,1,0,1,-1,1l0,1l-1,0c0,0,0,1,-1,1l-1,0c0,1,-1,1,-1,1c-1,0,-2,1,-3,1c-1,0,-2,0,-3,0c-1,0,-1,0,-2,0c-1,0,-1,0,-2,0c-1,0,-1,0,-2,0c-1,0,-1,0,-2,0c-1,0,-2,0,-2,0c-1,0,-2,-1,-3,-1c-1,-1,-2,-1,-3,-2c-1,0,-2,-1,-3,-2c0,0,0,-1,0,-1c1,1,1,1,1,1c0,0,1,1,1,1c1,0,1,0,2,1c1,0,2,0,2,0c0,0,1,1,2,1c0,0,1,0,1,0c1,0,2,0,2,0c1,1,2,1,2,1c1,0,1,0,2,0c1,0,1,0,2,0c1,0,1,0,2,-1c1,0,2,0,2,0c1,0,2,0,3,0c1,-1,2,-1,3,-1c1,-1,2,-1,2,-2c0,0,0,-1,0,-1c0,-1,-1,-1,-1,-1c0,-1,0,-1,0,-1l0,-2l1,1l1,0c0,0,1,0,1,0c1,0,1,0,1,-1l1,-1l0,1l0,1l0,1l0,1c1,0,1,0,1,0c0,1,0,1,0,1c1,0,1,0,1,0c1,0,1,0,2,0c0,0,1,0,1,-1l1,0l1,0l0,1c1,0,1,0,1,0l1,0l1,0c1,0,1,0,1,0l0,-1l1,-1c0,0,1,-1,1,-1l0,-1c1,0,1,0,1,0c0,0,1,0,1,1c0,0,0,1,1,1l0,1l0,1c-1,0,-1,1,-1,1ZM191.5,94.5l1,0l1,0l-1,0c0,-1,0,-1,0,-1c-1,0,-1,0,-1,0c0,1,0,1,0,1ZM192.5,100.5l-4,2c0,-1,0,-1,0,-1l4,-2ZM183.5,92.5l-1,-1l1,-1l1,1ZM185.5,100.5l-4,2c0,-1,0,-1,0,-1l4,-2ZM179.5,100.5l-1,-1l-1,1l-1,-1l1,-1l1,0l1,-1l1,1ZM162.5,95.5l-2,-1l1,-2l2,1ZM152.5,87.5l3,-1l6,-2l4,-2l1,0l-1,2l-1,0l-1,0l-2,1l-5,2l-4,1l-1,0ZM241.5,87.5l-1,-1l-1,1l-2,-1l1,-1l2,1l1,-2l1,1ZM242.5,95.5l-1,1c0,0,-1,0,-1,0c-1,0,-1,1,-2,1l-1,0l-1,0l0,1c-1,0,-1,0,-1,1c0,0,0,1,-1,1c0,0,0,1,-1,1c0,1,-1,1,-1,1l-1,0l-1,0c0,0,-1,0,-2,0c0,-1,0,-1,0,-1l1,0c1,0,1,0,2,0c0,0,0,-1,1,-1l1,0c0,-1,0,-1,0,-1c1,0,1,-1,1,-1c0,0,0,-1,1,-1l-1,0l0,-1c0,0,-1,0,-1,0c-1,0,-1,0,-1,-1l0,-1l0,-1l1,0l0,-1l1,0l1,0l0,1c1,0,1,1,1,1c0,0,0,1,0,1c0,0,1,0,1,0c0,0,1,0,1,0c1,0,1,0,2,0c1,-1,1,-1,2,-1c0,0,0,-1,0,-1c0,0,0,-1,0,-1c0,0,-1,0,-1,1c0,0,-1,0,-1,0c0,0,-1,0,-1,0c-1,-1,-1,-1,-1,-2l1,-1c0,-1,0,-1,0,-1c1,-1,1,-1,1,-1c1,0,1,0,1,0c1,1,1,1,1,2l0,1c1,0,1,0,1,1c0,0,0,1,0,1c0,0,0,1,0,1c0,0,-1,0,-1,1ZM239.5,90.5c0,1,0,1,0,1c1,0,1,0,1,0l1,0l0,-1l-1,0c0,0,-1,0,-1,0ZM238.5,80.5l4,-2l0,1l-4,2ZM234.5,94.5c0,0,-1,0,-1,0c0,1,0,1,1,1l1,0c0,0,0,-1,0,-1c0,0,-1,0,-1,0ZM229.5,86.5c0,0,1,-1,1,-1c1,0,1,0,2,0c0,0,1,0,1,0c0,0,1,1,1,1c0,0,-1,0,-1,0c0,1,0,1,0,1c0,0,-1,1,-1,1l-1,0l-1,0l-1,0l2,0c1,-1,1,-1,2,-1c-1,0,-1,-1,-1,-1c0,0,-1,0,-1,0c0,0,-1,0,-1,1c0,0,-1,0,-1,0c0,-1,0,-1,0,-1ZM227.5,95.5l-1,0l-1,0c-1,-1,-1,-1,-1,-1l-1,0c0,1,0,2,-1,2c0,1,-1,1,-1,1c-1,1,-1,1,-2,1c-1,0,-3,0,-4,0l4,-2c2,-1,3,-1,4,-2l1,-2c0,-1,0,-1,1,-1c0,0,0,-1,0,-1l1,0l1,1l0,1l1,1l0,1c0,0,-1,0,-1,0c0,1,0,1,0,1ZM226.5,93.5l0,-1l-1,0c0,0,0,1,0,1l1,0ZM218.5,103.5l5,-3c0,1,0,1,0,1c0,1,0,1,-1,1l-4,2ZM220.5,100.5l5,-3c0,1,-1,1,-1,2l-5,2ZM287.5,93.5c-1,0,-1,0,-1,0l-1,0l0,1l-1,0l-1,1l2,0c1,0,1,0,2,0c1,0,2,0,2,0c0,-1,1,-1,1,-1c0,0,0,-1,0,-1l-1,0c0,0,0,-1,-1,-1l-1,1ZM282.5,95.5l0,-1l3,-2l1,0c0,0,0,-1,1,-1l1,0l1,0l1,0c1,0,1,0,1,1c0,1,0,1,0,1c0,1,0,1,0,1c0,1,0,1,0,1c-1,0,-2,1,-2,1c-1,0,-2,0,-3,0c-1,1,-2,1,-3,1l-1,0l0,1c-1,0,-1,0,-1,1l0,-1l0,-1c0,-1,0,-1,0,-1c-1,0,-1,0,-1,0c0,0,0,-1,0,-1c-1,0,-1,1,-1,1c0,0,-1,0,-1,0c0,0,-1,1,-1,1l-2,0l-1,-1l-1,0l0,-1l0,-1l0,1l-1,0l0,1c-1,0,-1,0,-2,0c0,0,-1,0,-1,0l-1,0l-1,0c-1,0,-1,-1,-1,-1l0,-1l0,-1l1,0c0,0,0,1,0,1l1,0l1,0c1,0,1,0,1,0c0,0,1,0,1,0c1,0,1,0,1,0l1,-1c0,0,-1,0,-1,-1l0,-2l0,-1l0,-1l1,-1l0,2l0,1l1,3l0,1l0,1l1,0l2,0c1,0,1,0,1,0l1,-1l1,0c0,-1,0,-1,0,-1l0,1c1,0,1,1,1,1ZM282.5,81.5c0,-1,0,-1,0,-1c1,0,1,-1,1,-1c0,1,0,1,0,1c1,0,1,0,1,1l0,1c0,0,-1,0,-1,0l1,1l0,1l-1,-1l-1,1c0,1,-1,1,-1,1l-1,0c0,0,-1,0,-1,0l1,0l1,-1l1,-1l0,-1c0,0,-1,0,-1,0l0,-1c0,0,1,0,1,0ZM283.5,81.5l-1,0l1,1l0,-1ZM270.5,81.5c0,-1,0,-1,0,-1c1,0,1,-1,1,-1c0,1,0,1,1,1l0,1l0,1l-1,0l1,1l0,1l-1,-1l0,1l-1,0c0,1,-1,1,-1,1l-1,0l1,-1l1,-1l0,-1l0,-1ZM271.5,81.5l-1,0l1,1l0,-1ZM261.5,93.5c0,0,0,1,0,1c0,0,1,0,1,0c0,-1,0,-1,0,-1c0,0,-1,0,-1,0ZM261.5,100.5c0,0,0,1,0,1c-1,0,-1,0,-1,0c0,0,-1,0,-2,0c0,0,-1,0,-2,0l-1,-1c0,0,1,0,1,0l1,0c0,0,1,0,1,0l1,0c0,0,1,0,1,0c0,-1,1,-1,1,-1c0,-1,0,-1,1,-1c0,0,0,-1,0,-1c1,-1,1,-1,1,-2l-1,0c0,1,0,1,0,1c0,0,-1,0,-1,0l-1,-1c0,0,0,-1,0,-1c0,0,0,-1,0,-1c0,-1,0,-1,0,-1c0,-1,1,-1,1,-1c0,0,0,-1,1,-1c0,0,0,1,0,1c1,0,1,0,1,1c0,1,0,1,0,1c1,1,1,1,1,2c0,0,0,1,0,1c-1,1,-1,1,-1,2c0,1,-1,1,-1,1c0,1,0,1,-1,1ZM248.5,100.5c0,0,1,0,1,0l1,0c1,0,1,0,2,-1c1,0,1,-1,2,-1c0,-1,1,-1,1,-2c0,-1,0,-1,0,-1l0,-1l0,-1l-1,0l1,-2c1,1,1,1,1,2l0,1l0,1c0,0,0,1,0,1l0,1l-1,1l0,1c0,0,-1,0,-1,1l-1,0c-1,0,-1,1,-1,1c0,0,-1,0,-1,0l-1,0c0,-1,0,-1,-1,-1l-1,0ZM251.5,87.5l4,-2c0,1,0,1,0,1l-5,2ZM336.5,93.5c0,0,-1,0,-1,0c1,0,1,1,1,1l1,0c0,-1,0,-1,0,-1c-1,0,-1,0,-1,0ZM336.5,100.5c0,0,0,1,0,1c-1,0,-1,0,-1,0c-1,0,-1,0,-2,0c-1,0,-1,0,-2,0l-1,-1l-1,1l-1,-1l1,-1l1,1l1,-1l2,0l-1,1c0,0,1,0,1,0c1,0,1,0,1,0l1,0c0,-1,0,-1,1,-1c0,-1,0,-1,0,-1c1,0,1,-1,1,-1c0,-1,1,-1,1,-2c0,0,-1,0,-1,0c0,1,0,1,0,1c-1,0,-1,0,-1,0c0,0,-1,0,-1,0l0,-1c-1,0,-1,-1,-1,-1c0,0,0,-1,1,-1c0,-1,0,-1,0,-1c0,-1,1,-1,1,-1c0,0,0,-1,1,-1c0,0,0,1,0,1c0,0,1,0,1,1c0,1,0,1,0,1c0,1,0,1,0,2c0,0,0,1,0,1c0,1,0,1,0,2c-1,1,-1,1,-1,1c0,1,-1,1,-1,1ZM333.5,87.5l4,-2c0,1,0,1,0,1l-4,2ZM329.5,95.5c1,0,1,0,1,0c0,-1,0,-1,0,-1l0,-1c0,-1,-1,-1,-1,-1l-1,-1c0,0,0,-1,0,-1c0,-1,0,-1,1,-1l1,1l0,1l1,0c0,1,0,1,0,1c0,1,0,1,0,2l0,1l0,1c0,0,-1,0,-1,0c-1,0,-1,0,-1,0l0,1l-1,0l-1,-1c-1,0,-1,-1,-1,-1l0,-1l0,1c0,0,-1,0,-1,1c0,0,-1,0,-1,0c-1,0,-1,0,-2,-1l0,1c-1,0,-1,0,-2,1c-1,0,-1,-1,-2,-2l0,1c-1,0,-1,0,-2,0l0,1l-1,0c-1,0,-1,-1,-2,-1l-1,0l-1,0l-1,0c0,1,-1,1,-1,1c-1,0,-2,0,-2,0c-1,1,-1,1,-2,1c0,0,-1,0,-1,0c-2,0,-3,0,-4,-1c-1,0,-2,0,-2,-1c-1,0,-1,0,-1,-1c0,0,0,-1,0,-1c0,-1,0,-1,0,-2c0,0,1,-1,1,-1c0,0,0,1,0,1c0,1,0,1,0,1c0,1,0,1,0,1c0,1,1,1,2,1c0,0,1,1,2,1c1,0,2,0,3,0c0,0,1,0,1,0c1,0,1,0,2,0c0,0,1,-1,1,-1c0,0,1,0,1,0c0,0,0,-1,0,-1c0,0,-1,0,-1,0c0,0,0,-1,0,-1c0,0,1,0,1,-1c0,-1,0,-1,0,-1c0,0,1,0,1,0c0,-1,0,-1,0,-1c0,0,1,0,1,-1l1,0l0,1c1,0,1,0,1,0c0,1,0,1,0,1l0,1c0,0,0,1,0,1l0,1l-1,0l0,1c0,0,1,0,1,0l1,0l1,0l1,0c1,-1,1,-1,2,-2l0,1c0,0,1,1,1,1c1,0,1,0,2,-1l0,-1l1,0c0,0,0,1,0,1c0,0,1,0,1,0c1,0,1,0,1,0l1,0c0,-1,0,-1,0,-1c1,1,1,2,2,2l1,0ZM328.5,84.5l4,-2l-1,0l0,1l-4,2ZM321.5,88.5l-1,0l1,-2l1,1ZM323.5,91.5l-2,-1l0,1l-2,-1l1,-1l1,1l1,-2l2,1ZM319.5,81.5c1,0,1,0,1,0c1,0,1,0,2,0c0,0,1,0,1,0c0,0,1,0,1,1c-1,0,-1,0,-1,1l-1,0c0,0,0,1,0,1c-1,0,-1,0,-1,0l-1,0l1,-1c1,0,1,0,2,-1c0,0,-1,0,-1,0l-1,0c0,0,-1,0,-1,0l-1,0c0,0,0,-1,0,-1ZM311.5,88.5l-2,-1l1,-1l1,1ZM312.5,91.5c0,0,-1,0,-1,1c0,0,-1,0,-1,0c0,1,0,1,1,1c0,0,0,1,1,1l1,-1c0,-1,0,-1,0,-1c0,-1,-1,-1,-1,-1Z" class="g1_49" />
<path fill-rule="evenodd" d="M151.5,172.5c0,1,0,3,0,4c-1,1,-1,1,-1,1c0,0,-1,0,-1,0c0,1,0,1,0,1c-1,0,-1,0,-1,0l0,-1l1,0c0,0,1,0,1,0c0,-1,0,-1,0,-1c0,-1,-1,-1,-1,-1c0,0,0,-1,0,-1c-1,0,-1,0,-1,0c-1,0,-1,0,-1,0l0,-1l0,-1c1,1,1,1,1,1l1,0c0,1,0,1,0,1c0,0,1,1,1,1l0,1c0,0,1,-1,1,-1c0,0,0,-1,0,-1l0,-1ZM167.5,170.5l1,0c0,-1,0,-1,1,-1c0,0,1,0,1,1c1,0,1,0,1,0c0,1,-1,1,-1,1c0,1,0,1,0,1c-1,0,-1,0,-1,0c-1,0,-1,0,-1,0l-1,0l1,0c1,0,2,-1,2,-1l-1,0l-1,0l-1,0l-1,0c0,0,0,-1,0,-1c0,0,1,0,1,0ZM266.5,169.5l0,1l-1,0c0,0,0,1,0,1l0,1c0,0,0,1,0,1l0,-1l0,-1l0,-1c0,0,0,-1,0,-1c0,0,1,0,2,-1l1,0ZM266.5,171.5c0,0,1,-1,1,-1l1,0l0,1l0,1l0,1l1,0l-1,1l-1,-1l0,1c-1,0,-1,1,-1,1l-1,0c-1,0,-1,0,-1,0l1,-1l1,0l0,-1l1,0l-1,-1c0,-1,0,-1,0,-1ZM267.5,171.5l0,1l1,0l0,-1c0,0,-1,0,-1,0ZM208.5,183.5l0,-1l0,-1l0,-9l1,-2l0,10c0,1,0,1,0,1l0,1c0,0,0,1,-1,1ZM201.5,181.5l1,0l1,0c0,-1,0,-1,0,-1l0,-2l0,-7c0,-1,0,-1,0,-1c0,-1,0,-1,1,-1c0,0,0,1,0,1l1,1l-1,1c0,1,0,1,0,2c0,0,0,1,0,3c0,0,0,1,0,1l0,1c0,1,0,1,0,1l0,1c0,0,0,1,0,1c-1,0,-1,0,-1,0c0,1,-1,1,-1,1l-1,0l-12,0l0,1c0,0,0,1,0,1c-1,0,-1,0,-1,0l0,-1l0,-1l-1,-1l0,-1l-1,1l-1,1l-1,0l-2,0c0,0,-1,0,-1,0c0,0,0,-1,0,-1l-1,0l0,-1c-1,0,-1,0,-1,1c-1,0,-1,0,-2,1c0,0,-1,0,-1,0l-1,0c-1,0,-1,-1,-1,-1c0,0,-1,0,-1,-1l0,-1l1,0l1,1l1,0l1,0c1,0,1,0,1,0l1,-1l1,0c0,-1,0,-1,0,-2l-1,-2l0,-1l1,-2l0,2c0,0,0,1,0,2l1,2c0,0,0,1,0,1c0,0,0,1,0,1c0,0,1,0,1,0l2,0c1,0,1,0,1,0c0,0,1,0,1,0c0,0,0,-1,1,-1l0,-1l0,1c0,0,1,0,1,1l1,0l1,-1l1,0l1,-2c1,0,1,0,2,-1c0,0,1,0,1,0l1,0c1,0,1,0,2,0c0,1,0,1,1,1l0,1c0,0,0,1,0,1c-1,0,-1,1,-1,1l1,0l2,0ZM197.5,180.5l0,-1c0,0,-1,0,-2,0l-1,0c-1,0,-1,0,-2,1l-1,0l-1,1l1,0l1,0l1,0c1,0,1,0,1,0l1,0l1,0c1,-1,1,-1,1,-1ZM188.5,171.5l0,1c1,0,1,1,1,1c0,0,0,-1,0,-1l1,-1l0,1l1,0l0,-1l0,-1l1,0l0,1l0,1l-1,0c0,1,0,1,0,1l-1,0c-1,1,-1,1,-1,1c-1,0,-1,0,-1,-1l0,-1l0,-1ZM190.5,166.5l0,-1c1,0,1,0,1,0c1,0,1,1,1,1c0,0,0,1,0,1c0,0,0,1,-1,1l1,0l0,1l-1,0l-1,1c0,0,-1,0,-1,0c0,1,-1,1,-1,1c1,-1,1,-2,2,-3c0,0,-1,0,-1,-1l1,0c0,0,0,-1,0,-1ZM191.5,167.5l0,-1l-1,0l0,1l1,0ZM177.5,167.5c0,0,0,-1,0,-1c1,0,1,0,1,0c1,0,1,0,1,0l0,1l0,1l0,1l0,1l-1,0l-1,0c0,1,-1,1,-1,1l-1,0l1,-1l1,0l0,-1c0,0,0,-1,0,-1c0,0,0,-1,0,-1ZM178.5,167.5c0,0,-1,0,-1,0l1,1c0,-1,0,-1,0,-1ZM168.5,179.5l0,1l1,0c0,-1,0,-1,0,-1l-1,0ZM168.5,187.5c0,0,-1,0,-1,0c0,0,-1,1,-1,1l-1,0c0,0,-1,-1,-1,-1c-1,0,-1,0,-1,0c0,0,0,-1,0,-1c0,0,0,1,1,1c1,0,1,0,1,0c0,0,1,0,1,-1c0,0,1,0,1,0c0,0,1,-1,1,-1c0,0,1,-1,1,-1l0,-1c1,0,1,-1,1,-1l0,-1c0,0,0,1,-1,1l-1,0c-1,0,-1,0,-1,-1l0,-1l0,-1c0,0,0,-1,0,-1c1,0,1,-1,1,-1c0,0,1,0,1,0l1,0l0,1l0,1c1,0,1,0,1,1c0,0,0,1,0,1l0,1c0,1,-1,2,-1,3l-1,1l-1,1ZM155.5,186.5c1,0,1,0,1,0l1,0c1,0,2,0,3,-1l1,-1c0,0,1,-1,1,-1c0,-1,0,-1,0,-1c1,0,1,-1,1,-1c-1,0,-1,0,-1,0l0,-1l0,-1c-1,0,-1,0,-1,0l1,-1l0,-1l1,1l0,1l0,1l0,1c0,1,0,1,0,1c0,1,0,1,0,1c0,0,0,1,0,1c-1,0,-1,1,-1,1l-1,1l-1,1c0,0,-1,0,-1,0c0,0,-1,0,-1,0l-1,0c-1,0,-1,-1,-1,-1l-1,0ZM162.5,191.5l-4,2c0,-1,0,-1,0,-1l4,-2ZM226.5,174.5l-1,-1l1,-2l1,1ZM228.5,179.5c0,0,0,1,-1,1c0,0,-1,0,-1,0c0,0,-1,0,-1,0c0,-1,-1,-1,-1,-2l1,-1c0,-1,0,-1,0,-1c1,-1,1,-1,2,-1l1,1l0,1l1,1c0,1,0,1,0,1c0,1,0,1,0,1l0,1c0,0,0,1,0,1c-1,0,-1,1,-1,1c1,0,1,0,1,0c0,0,0,1,1,1c0,0,0,1,0,1c0,0,-1,0,-1,0c0,0,0,1,0,1c-1,1,-1,1,-2,1c0,1,-1,1,-2,1c-1,1,-2,1,-2,1c-1,0,-1,0,-1,0c0,0,-1,0,-1,-1c-1,0,-2,0,-2,-1c0,0,-1,0,-1,-1l0,-1c0,-1,0,-1,0,-2c0,-1,1,-2,1,-2l1,0c-1,1,-1,1,-1,2c0,0,0,1,0,1c0,0,0,1,0,1c0,0,0,1,1,1c0,1,1,1,2,1c0,0,1,0,1,0c1,0,1,0,1,0c1,0,1,0,1,0c1,-1,2,-1,2,-1c1,-1,1,-1,1,-1c0,0,-1,0,-1,-1c-1,0,-1,0,-1,0c0,0,-1,0,-1,0c0,0,0,-1,0,-1c0,0,1,0,1,-1c0,0,1,0,1,0c0,0,1,0,1,-1c0,0,0,-1,0,-1l0,-1ZM225.5,177.5l0,1l1,0c0,0,1,0,1,0l0,-1l-1,0ZM229.5,189.5l-4,2c1,-1,1,-1,1,-1l4,-2ZM254.5,181.5l1,0c1,0,1,0,1,0c0,-1,0,-1,0,-1l0,-2l0,-7c-1,0,-1,0,-1,0c0,-1,1,-1,1,-1c0,-1,0,-1,0,-1c0,0,0,1,0,1l1,0l1,1c-1,0,-1,0,-1,1c0,1,0,1,0,2c0,0,0,1,0,3c0,0,0,1,0,1l0,1c0,1,0,1,0,1l0,1c0,0,0,1,-1,1c-1,1,-1,1,-1,1c-1,0,-1,0,-1,0l-1,0c-1,0,-1,0,-2,-1l-1,0c0,0,0,1,-1,1c0,0,-1,0,-1,0l-1,-1l-1,-1l-1,1c-1,1,-1,1,-1,1l-1,0l-1,0l-1,0c-1,0,-2,0,-2,-1c-1,0,-1,-1,-1,-2l0,-8l1,-2l0,9l0,1l0,1c1,0,1,0,2,0l1,0l1,0l1,0l1,-1l1,-1c1,-1,2,-1,2,-1l1,1l1,1l1,1l1,0l1,0ZM255.5,165.5l0,1c1,0,1,0,1,0c0,0,0,-1,0,-1l1,0l0,-1l0,1l1,0l0,-1l1,0l0,1l-1,0l0,1l-1,0l-1,1c-1,0,-1,0,-1,0l0,-1l0,-1ZM258.5,186.5l-4,2c0,-1,1,-1,1,-1l4,-2ZM250.5,181.5l-1,-1c0,0,-1,0,-1,-1l-1,1l1,1l1,0ZM246.5,170.5l4,-2l-1,0l0,1l-4,2ZM304.5,179.5l0,1c1,0,1,0,1,0c0,-1,0,-1,0,-1l-1,0ZM304.5,187.5c0,0,-1,0,-1,0c0,0,-1,1,-2,1c0,0,-1,-1,-2,-1c0,0,0,-1,0,-1c0,0,0,1,1,1c0,0,1,0,1,0l1,-1c0,0,1,0,1,0c0,0,1,-1,1,-1c0,0,1,-1,1,-1l0,-1c1,0,1,-1,1,-1l0,-1c0,0,-1,1,-1,1l-1,0l-1,0l0,-1l0,-1l0,-1c0,0,0,-1,0,-1c1,0,1,-1,1,-1c0,0,1,0,1,0c1,0,1,0,1,1l0,1c0,0,1,0,1,1c0,0,0,1,0,1l0,1c0,1,-1,2,-1,3c0,0,-1,0,-1,1l-1,1ZM302.5,173.5l4,-2l-1,1l-4,2ZM294.5,174.5l-2,-1l1,-1l1,1ZM295.5,177.5l-1,-1l-1,1l-1,-1l1,-2l1,1l1,-1l1,1ZM291.5,181.5l0,1l-1,0l-1,1l-1,0l-1,0l-1,0c-1,0,-1,0,-2,0c0,-1,-1,-1,-1,-1c0,0,-1,0,-2,1c0,0,-1,0,-2,0l-2,0c0,0,-1,0,-1,-1c-1,0,-1,-1,-1,-2l-1,-8l1,-2l1,9l0,1l0,1c0,0,1,0,1,0l2,0c1,0,1,0,1,0c1,0,1,0,1,0l1,0c-1,0,-1,-1,-1,-1c0,-1,0,-1,1,-2c0,0,0,-1,0,-1c0,0,1,-1,1,-1c0,0,1,0,1,0c1,0,1,0,2,0c0,1,0,1,0,2l0,1c0,1,0,1,0,1c-1,0,-1,1,-1,1l1,0c0,0,1,0,1,0l1,0c1,0,1,0,2,0l1,-1l0,-1l1,0l0,1l0,1l1,0c0,0,1,0,1,0c1,0,1,0,1,-1c0,0,0,-1,0,-1l1,0l0,1c0,1,0,1,1,1l1,0l0,-1l0,-1l1,0l0,1l0,1l0,1c-1,0,-1,0,-1,0c0,1,0,1,-1,1c-1,0,-1,-1,-1,-1l-1,0c-1,0,-1,0,-1,1l-1,0c-1,0,-1,0,-1,0c-1,-1,-1,-1,-1,-1c0,0,0,-1,0,-1ZM293.5,186.5l-4,2c0,-1,0,-1,0,-1l4,-2ZM284.5,175.5l-2,-1l1,-2l2,1ZM284.5,178.5c0,0,-1,0,-1,0c-1,0,-1,0,-1,1c1,0,1,1,1,1c1,0,1,0,1,-1c1,0,1,0,1,0c0,0,0,-1,0,-1c-1,0,-1,0,-1,0ZM282.5,166.5l4,-2l0,1l-4,2ZM272.5,167.5l1,0c0,0,1,0,2,0l1,0l1,0l1,0c-1,0,-1,1,-2,1l-1,0l-1,0l-1,0l-1,0l-1,0c0,-1,1,-1,1,-1ZM267.5,180.5c0,-1,1,-1,1,-1c0,0,0,-1,1,-1c1,0,1,0,1,1l0,1l-1,0l-1,0l-1,1l1,0l1,1l1,0c0,0,1,-1,1,-1c0,1,0,1,0,1l-1,0l-4,2l0,-1l1,0c0,-1,0,-1,0,-1c0,0,-1,-1,-1,-1l1,-1ZM150.5,180.5l1,1l0,1c0,1,0,1,0,2l-1,0l-1,0c0,0,-1,0,-1,0c0,0,0,-1,0,-1l0,-1c0,-1,0,-1,0,-1l1,0l0,-1l1,0ZM150.5,181.5c-1,0,-1,0,-1,0c0,1,-1,1,-1,1l0,1c0,0,1,0,1,0l1,0c0,0,1,0,1,-1c0,0,-1,0,-1,-1Z" class="g2_49" />
<path fill-rule="evenodd" d="M385.5,275.5c0,0,0,-1,0,-1c1,0,1,0,1,0c0,0,1,0,1,0l0,1l0,1l0,1l0,1l-1,0l-1,0c0,1,-1,1,-1,1l-1,0l1,-1l1,0l0,-1c0,0,0,-1,0,-1c0,0,0,-1,0,-1ZM359.5,276.5l1,0c0,-1,0,-1,1,-1c0,0,1,0,1,1c1,0,1,0,1,0c0,1,-1,1,-1,1c0,1,0,1,0,1c-1,0,-1,0,-1,0c-1,0,-1,0,-1,0l-1,0l1,0c1,0,2,-1,2,-1l-1,0l-1,0l-1,0l-1,0c0,0,0,-1,0,-1c0,0,1,0,1,0ZM324.5,279.5c0,0,1,0,1,0c1,0,1,0,2,0c0,0,1,0,1,0c0,0,1,0,1,1c0,0,-1,0,-1,0c0,0,0,1,0,1c0,0,-1,0,-1,0l0,1l-1,0l-1,0l-1,0l2,-1c1,0,1,0,2,-1c-1,0,-1,0,-1,0c0,0,-1,0,-1,0c0,0,-1,0,-1,0c0,0,-1,0,-1,0c0,0,0,-1,0,-1ZM145.5,277.5c0,0,1,-1,1,-1c0,0,1,0,1,0c1,0,1,0,2,0c0,0,0,1,0,1c0,1,0,1,0,1c-1,0,-1,1,-1,1c0,0,-1,0,-1,0l-1,0l-1,0l2,0c1,-1,1,-1,2,-1c-1,0,-1,-1,-1,-1c-1,0,-1,0,-1,0c0,0,-1,0,-1,1c0,0,-1,0,-1,0c0,-1,0,-1,0,-1ZM263.5,277.5l-1,0l0,1c0,0,0,1,0,1l0,1l0,1l0,-1l-1,0l0,-1l0,-1l1,0c0,-1,0,-1,0,-1c0,0,1,0,1,-1l1,0l1,0ZM263.5,279.5c0,-1,0,-1,0,-1c1,0,1,0,1,0c0,0,1,0,1,0l0,1l0,1l0,1l0,1l-1,-1l-1,1l-1,1l-1,0l1,-1l1,-1l0,-1l0,-1ZM264.5,279.5c0,0,-1,0,-1,0l1,0l0,1l0,-1ZM38.5,291.5l1,0l0,-1c0,0,1,0,1,0l0,-1l0,-1l-1,-2l0,-1l1,0l0,1l0,1l0,1l0,1l0,1l1,-1c1,0,1,0,1,0c1,0,1,0,1,0c0,0,1,0,1,0l0,1l-1,0c0,1,0,1,0,1l-1,0l-1,0c0,0,-1,0,-1,0ZM42.5,289.5c0,0,-1,1,-1,1l-1,0l0,1c1,0,1,0,1,0c1,0,1,-1,1,-1c0,0,1,0,1,0c0,0,0,-1,0,-1c-1,0,-1,0,-1,0ZM86.5,291.5c0,0,-1,0,-1,0c-1,-1,-1,-1,-1,-2c0,0,-1,1,-1,1c0,1,-1,1,-1,1l-1,0c-1,0,-1,0,-1,0l-1,-1l0,-1c-1,0,-1,0,-1,0l0,1l-1,0l-1,1l-1,0l-1,0c-1,0,-2,0,-2,-1c-1,0,-1,-1,-1,-2l-1,-8l1,-2l1,9l0,1l0,1c1,0,1,0,2,0l1,0c0,0,1,0,1,0c1,0,1,0,2,-1c0,0,1,0,1,0c0,1,1,1,1,1l1,0l1,0c1,0,1,0,1,-1c0,0,1,0,1,0c0,0,0,-1,0,-1c0,0,0,-1,0,-1l-1,0l0,-7l1,-2l1,10c0,1,0,1,0,1l0,1c1,0,1,0,1,0c1,0,1,0,1,0c1,0,1,0,1,0c0,0,1,0,1,0c0,-1,0,-1,0,-1l0,-2l-1,-7c0,-1,0,-1,0,-1c1,-1,1,-1,1,-1c0,0,0,1,0,1c0,0,1,0,1,1l0,1c0,1,0,1,0,2c0,0,0,1,0,3c0,0,0,1,0,1l0,1c0,1,0,1,0,1l0,1l-1,0c0,0,0,1,0,1c0,0,-1,0,-1,0c0,1,0,1,-1,1l-1,0ZM88.5,273.5l0,1l1,0c0,0,0,-1,0,-1l0,-1l1,0l0,1c1,0,1,0,1,-1l0,-1l0,1l0,1l0,1l-1,0l-1,0l0,1l-1,0l0,-1l0,-1ZM91.5,294.5l-4,2c0,-1,0,-1,0,-1l4,-2ZM78.5,286.5l-2,-1l1,-1l2,1ZM76.5,276.5l0,1c1,0,1,0,1,0l1,-1c0,1,0,1,0,1l1,0l0,-1l0,-1l1,0l0,1l0,1l-1,0c0,0,0,1,0,1l-1,0l-1,0c0,0,0,1,0,1c-1,0,-1,0,-1,-1l0,-1l0,-1ZM80.5,274.5l-5,2c0,0,0,-1,1,-1l5,-3ZM52.5,297.5c-1,0,-1,0,-1,0c-1,0,-1,-1,-1,-1l0,-1c0,0,-1,0,-1,0l0,-1c0,-1,0,-1,0,-1l1,-1c0,0,0,-1,0,-1l0,-1l1,0l0,1l-1,1l0,1c0,1,0,1,1,1c0,0,0,1,0,1l1,0c0,1,1,1,1,1c1,0,1,0,2,0l1,0c0,0,1,0,1,-1c0,0,1,0,1,0c0,0,1,-1,1,-1c0,0,0,-1,0,-1l0,-1c0,0,0,-1,0,-1l0,-1l-1,-1l1,-1l1,0l0,1c0,0,1,0,1,0c1,0,1,0,2,0c0,0,0,-1,0,-1c0,0,1,0,1,0c0,0,0,-1,0,-1l0,-1l0,1l0,1l1,0c0,1,0,1,0,1l1,0c0,0,1,0,1,0l0,-1l-1,0l1,-1l0,1l0,1l0,1c0,1,-1,1,-1,1l-1,0c0,0,0,-1,-1,-1l-1,0l-1,1c0,0,-1,0,-1,0l-1,0l0,1c0,0,0,1,0,1l0,1c0,1,-1,1,-1,1c0,0,0,1,-1,1c0,0,0,1,0,1c-1,0,-1,0,-2,0c0,0,0,1,-1,1l-1,0l-1,0l-1,-1ZM59.5,299.5l-4,2c0,-1,0,-1,0,-1l5,-2ZM126.5,282.5l-1,-1l1,-1l1,1ZM128.5,285.5l-1,-1l-1,1l-2,-1l1,-2l2,1l0,-1l2,1ZM124.5,289.5l-1,1l-1,0c0,1,0,1,-1,1l-1,0l-1,0c-1,0,-2,0,-2,0c-1,-1,-1,-1,-1,-1c-1,0,-1,0,-2,1c-1,0,-1,0,-2,0l-1,0l-1,0c-1,0,-1,0,-2,-1c0,0,0,-1,0,-2l-1,-8l1,-2l1,9l0,1l0,1c0,0,1,0,1,0l2,0c0,0,1,0,1,0l1,0c0,0,0,-1,0,-1c0,-1,0,-1,0,-2c1,-1,1,-1,1,-1c0,0,0,-1,1,-1c0,0,1,0,1,0c1,0,1,0,1,0c0,1,1,1,1,2l0,1l-1,0c0,1,0,1,0,1c0,0,0,1,0,1l1,0l1,0l1,0c1,0,1,0,1,0c1,0,1,0,1,-1c0,0,1,0,1,-1l0,1l1,1l1,0l1,0c0,0,0,-1,1,-1c0,0,0,-1,0,-1l1,-1l0,1l0,1c0,1,0,1,0,1l1,0l1,0l0,-1l-1,0l1,-1l0,1l1,0l0,1c0,0,-1,0,-1,0l0,1c0,1,0,1,-1,1c0,0,-1,0,-1,0c0,0,0,-1,-1,-1l-1,0l0,1l-1,0c0,0,-1,0,-1,0c0,0,-1,0,-1,-1c0,0,0,-1,0,-1ZM126.5,294.5l-5,2c1,-1,1,-1,1,-1l4,-2ZM116.5,283.5l-1,-1l1,-2l1,1ZM117.5,285.5c-1,0,-1,1,-1,1c-1,0,-1,0,-1,1c0,0,1,1,1,1c1,0,1,0,1,-1c0,0,1,0,1,0c0,0,0,-1,-1,-1c0,0,0,-1,0,-1ZM115.5,274.5l4,-2l0,1l-4,2ZM105.5,275.5l1,0l1,0c1,0,1,0,2,0l1,0c0,0,0,1,-1,1l-1,0l-1,0l-1,0l-1,0c0,0,-1,0,-1,0c0,-1,1,-1,1,-1ZM100.5,288.5c0,-1,1,-1,1,-1c0,-1,0,-1,1,-1l1,0c0,1,0,1,0,1l0,1l-1,0l-1,0l-1,1l1,0l1,1l1,0c0,0,1,-1,1,-1c0,1,0,1,0,1l-1,0l-4,2l0,-1l1,0l0,-1c0,-1,-1,-1,-1,-1l1,-1ZM155.5,281.5l-1,-1l1,-1l1,1ZM157.5,289.5c0,1,0,1,0,1c-1,0,-1,0,-2,1c-1,0,-1,0,-2,0l-1,0l-1,0c0,0,0,-1,-1,-1c0,0,0,-1,0,-1c0,1,-1,1,-1,1c-1,1,-1,1,-1,1l-1,0c-1,0,-1,0,-1,0c-1,0,-1,-1,-1,-1c0,0,-1,0,-1,-1c0,0,0,-1,0,-1c-1,1,-1,1,-1,1l-1,0l-1,0l-1,0l0,-1c0,-1,0,-1,1,-2c0,0,1,0,1,-1c1,0,1,-1,1,-1c0,0,0,-1,0,-1l1,0l0,-1l0,2l0,1c0,0,1,0,1,1l0,2c0,1,0,1,0,1c1,0,1,0,1,0c0,0,1,0,1,0c1,0,1,0,1,0c1,0,1,0,1,0c0,-1,0,-1,1,-1c0,0,0,-1,0,-1c0,0,0,1,0,1c0,0,1,1,1,1c0,0,1,0,1,0l1,0c1,0,1,0,2,0c1,0,1,0,2,-1l0,-1l0,-1c0,1,0,1,-1,1c0,0,-1,1,-1,1c0,0,0,-1,-1,-1c0,-1,0,-1,0,-1c0,-1,0,-1,0,-1l0,-1c0,-1,0,-1,0,-1c1,-1,1,-1,2,-1l1,1l0,1l1,1l0,1c0,0,0,1,0,1c0,1,0,1,0,1c0,1,0,1,-1,1ZM154.5,285.5l1,0l1,0l0,-1l-1,0ZM190.5,280.5l-4,2c0,0,0,-1,0,-1l4,-2ZM157.5,294.5l-4,2c0,-1,1,-1,1,-1l4,-2ZM151.5,294.5l-1,-1l-1,1l-1,-1l0,-1l2,1l1,-1l1,1ZM144.5,285.5l-1,0l0,1l-1,0c0,1,-1,1,-1,1l1,0l1,0l1,0ZM144.5,294.5l-4,2c0,-1,0,-1,1,-1l4,-2ZM182.5,291.5l0,-1l0,-2l-1,-8l1,-2l1,10c0,1,0,1,0,1l0,1c-1,0,-1,1,-1,1ZM200.5,291.5l0,-1l0,-2l0,-8l0,-2l1,10c0,1,0,1,0,1l0,1c0,0,-1,1,-1,1ZM199.5,274.5l4,-2l0,1c0,0,-1,0,-1,0l-4,2ZM192.5,289.5c1,0,1,0,1,0c1,0,1,0,1,0c0,0,1,0,1,0c0,-1,0,-1,0,-1l0,-2l-1,-7c0,-1,0,-1,0,-1c1,-1,1,-1,1,-1c0,0,0,1,0,1c1,0,1,0,1,1l0,1c0,1,0,1,0,2c0,0,0,1,0,3c0,0,0,1,0,1l0,1c0,1,0,1,0,1l0,1c-1,0,-1,1,-1,1l-1,0c0,1,0,1,-1,1l-1,0l-1,0c0,0,0,1,0,1c-1,0,-1,1,-1,1c0,0,0,1,-1,1c0,0,0,1,-1,1c0,0,0,1,0,1c0,0,-1,0,-1,0l-1,0l-1,0c0,0,-1,0,-2,0l0,-1l1,0c1,0,1,0,2,0l1,-1l1,0c0,0,0,-1,0,-1c1,0,1,0,1,-1l1,-1c0,0,-1,0,-1,0c0,0,-1,0,-1,0l0,-1c-1,0,-1,0,-1,0c0,0,0,-1,0,-1c0,0,0,-1,0,-1c0,-1,0,-1,1,-1l0,-1l1,0l1,0l0,1c1,1,1,1,1,1c0,0,0,1,0,1c0,0,1,0,1,0ZM192.5,273.5c1,0,1,0,1,-1c1,0,1,0,2,0c0,0,1,0,1,0c1,1,1,1,1,1c0,1,-1,1,-1,1c0,1,0,1,-1,1c-1,0,-1,0,-1,0l-1,0l1,0c1,-1,2,-1,2,-1c0,0,-1,0,-1,0c0,-1,0,-1,-1,-1c0,0,0,1,-1,1l-1,0c0,0,0,-1,0,-1ZM189.5,288.5c0,0,-1,0,-1,0c0,0,0,1,0,1l1,0l1,0c0,-1,-1,-1,-1,-1ZM176.5,284.5l-1,-1l1,-1l1,1ZM176.5,291.5l-1,0c-1,0,-1,0,-2,0c0,0,0,-1,0,-1c-1,0,-1,0,-1,-1c0,0,0,-1,0,-1l-1,0c0,1,0,1,0,1l-1,0l-1,0l-1,0l0,-1c0,-1,0,-1,1,-2l1,-1c1,0,1,-1,1,-1c0,0,0,-1,0,-1l1,-1l0,2l0,1l0,1l1,2c0,1,0,1,0,1c0,0,1,0,1,0l1,0l1,0c0,0,1,0,1,0c1,0,1,0,1,-1c1,0,1,0,1,0c0,0,-1,-1,-1,-1l0,-1l1,-1c0,1,0,1,0,1l0,1l0,1l0,1l0,1c-1,0,-1,0,-2,1c0,0,-1,0,-1,0ZM176.5,275.5c0,0,1,-1,1,-1l1,0l0,1l0,1l0,1l1,0l-1,1l-1,0c-1,1,-1,1,-1,1l-1,0l-1,0l1,0l0,-1c1,0,1,0,1,0l1,-1l-1,0c0,0,0,-1,0,-1c0,0,0,-1,0,-1ZM177.5,275.5l0,1l1,0l0,-1c0,0,-1,0,-1,0ZM171.5,285.5l0,1l-1,0c-1,1,-1,1,-1,1l1,0l1,0l1,0ZM168.5,281.5l-1,-1l0,-1c0,-1,0,-1,0,-2c0,0,0,-1,0,-1c1,0,1,0,1,0l1,-1l0,1l-1,0l0,1l0,1c-1,0,-1,1,0,1l1,0l0,1c1,1,1,1,0,1l-1,0ZM239.5,285.5c0,0,1,0,1,-1c1,0,1,0,1,0l1,-1c0,0,1,0,1,0l1,0c0,0,0,-1,0,-1l-1,0l1,-2l1,0l1,1c0,0,1,0,1,1l0,2l-1,0c-1,0,-2,0,-3,0c-1,0,-2,0,-2,1l-1,0l1,0l1,0l2,1c0,0,1,1,2,1l1,0c0,0,1,0,1,0l1,0l0,1l-1,0l-1,0l-1,0l-1,0l-1,1l-1,0l-1,0l-2,1c0,0,-1,0,-1,0l-1,1l-1,0l-1,0l-1,0c0,0,-1,0,-1,0c0,0,0,-1,-1,-1c0,0,0,-1,0,-1c0,1,-1,1,-1,1c0,0,-1,1,-1,1l-1,0c-1,0,-1,0,-1,0c-1,-1,-1,-1,-2,-2c0,0,0,1,0,1c-1,1,-1,1,-1,1l-1,0l-1,0c0,0,-1,0,-1,0c0,0,-1,0,-1,-1c0,0,-1,0,-1,0c0,0,-1,1,-1,1c0,0,-1,0,-1,0c-1,0,-2,1,-2,1c-1,0,-1,0,-2,0c0,0,-1,0,-2,0c-1,0,-2,0,-3,0c-1,-1,-2,-1,-3,-2l0,-1c0,0,-1,0,-1,-1c1,0,1,0,1,0c0,-1,0,-1,0,-1c0,-1,0,-1,1,-2l0,1c-1,1,-1,1,-1,1c0,1,1,1,1,2c0,0,1,0,1,1c1,0,1,0,2,0c1,0,2,0,3,0c1,0,2,0,2,0c1,0,1,0,2,0l1,-1c0,0,1,0,1,0c0,0,-1,0,-1,-1c0,-1,0,-1,1,-2c0,0,0,-1,0,-1c1,0,1,-1,1,-1l1,0c1,0,1,0,1,0l1,1c0,1,0,1,0,1c0,1,0,1,0,1c0,0,0,1,0,1c-1,0,-1,0,-1,1l1,0c1,0,1,0,1,0c0,0,1,0,1,0c0,0,1,0,1,-1c0,0,0,-1,0,-1c0,0,0,-1,0,-1l0,-7l1,-2l0,10c0,1,0,1,0,1l1,1l1,0c0,0,1,0,1,0c1,0,1,0,1,0c0,-1,0,-1,0,-1c1,0,1,-1,1,-1l0,1c0,0,0,1,1,1c0,0,1,0,1,0l1,0l1,0l1,0l1,0l1,0l1,0l0,-1l1,0l1,0l-1,-1l-1,0l-1,0l-1,0l-1,0c0,-1,0,-1,0,-1c0,-1,1,-1,1,-1ZM245.5,273.5l0,1c1,0,1,0,1,0l0,-1l1,-1l0,1c0,1,0,1,0,1c0,0,1,-1,1,-1l0,-1l0,1l0,1c0,0,0,1,0,1l-1,0l-1,-1l0,1l-1,0l0,-1l0,-1ZM246.5,268.5c0,0,1,-1,1,-1l1,0c0,0,1,0,1,1l-1,1l0,1l0,1l-1,0c-1,1,-1,1,-1,1c-1,0,-1,0,-1,0c-1,0,-1,0,-1,0c1,0,2,-1,3,-2l-1,0c0,0,0,-1,0,-1c0,-1,0,-1,0,-1ZM247.5,268.5l0,1l1,0c0,0,0,-1,0,-1ZM237.5,282.5l-1,-1l0,-1l2,1ZM236.5,273.5c0,0,1,0,1,-1c1,0,1,0,1,0c1,0,1,0,2,0c0,1,0,1,0,1c0,1,0,1,0,1c0,1,-1,1,-1,1l-1,0l-1,0l-1,0l2,0c1,-1,1,-1,2,-1c-1,0,-1,0,-1,0c0,-1,-1,-1,-1,-1c0,0,-1,1,-1,1c0,0,-1,0,-1,0c0,0,0,-1,0,-1ZM234.5,285.5l-2,-1l-1,1l-1,-1l1,-1l1,1l1,-2l2,1ZM231.5,278.5l4,-2l0,1l-5,2ZM228.5,297.5l-4,2c0,-1,0,-1,1,-1l3,-2ZM220.5,282.5l-1,-1l1,-1l1,1ZM222.5,286.5c0,0,-1,0,-1,0c-1,0,-1,0,-1,1c1,1,1,1,1,1c1,0,1,0,1,0c1,0,1,-1,1,-1c0,0,0,-1,0,-1c-1,0,-1,0,-1,0ZM97.5,276.5l-1,0l0,1l0,1l0,1l0,1l0,-1l0,-1l0,-1l0,-1l0,-1c0,0,1,0,2,0l1,-1ZM97.5,277.5c1,0,1,0,1,0c0,-1,1,-1,1,-1c0,1,1,1,1,1c0,1,0,1,0,1l-1,0l0,1l1,0l0,2l-1,-1l-1,0l0,1c-1,0,-1,0,-1,1l-1,0l-1,0l1,-1l1,0l0,-1l1,0l0,-1l-1,0l0,-1l0,-1ZM99.5,278.5l-1,-1l0,1l1,0l0,1l0,-1ZM215.5,272.5l0,1l-1,0c0,0,0,1,0,1l0,1c0,0,0,1,0,1l0,-1l0,-1l0,-1c0,-1,0,-1,0,-1c1,0,1,-1,2,-1l1,0l0,-1ZM215.5,274.5c1,-1,1,-1,1,-1c0,0,1,-1,1,-1c0,0,0,1,0,1c1,0,1,0,1,1l-1,1l1,0l0,1l0,1l-1,-1l-1,0l0,1c-1,0,-1,1,-1,1l-1,0l-1,0l1,0l1,-1l0,-1l1,0l-1,-1l0,-1ZM217.5,274.5l-1,0l0,1l1,0l0,-1ZM289.5,281.5l-2,-1l1,-1l1,1ZM290.5,284.5l-1,-1l-1,1l-1,-1l1,-1l1,0l1,-1l1,1ZM285.5,286.5c0,-1,0,0,0,0l1,1c0,1,0,1,0,1c0,0,0,1,0,1c1,0,1,0,1,0l1,0c0,0,1,0,1,0c0,0,1,-1,1,-1l0,-1l1,0l0,1l0,1c0,0,1,0,1,0l1,0l-1,-1l1,-1c0,1,0,1,1,1c0,1,0,1,0,1l-1,0c0,1,0,1,0,1l0,1c-1,0,-1,0,-1,0l-1,0c0,-1,0,-1,-1,-1l-1,0l0,1l-1,0l-1,0l-1,0l0,-1c-1,0,-1,0,-1,0l0,-1l0,-1l-1,0l0,1c-1,0,-1,0,-1,0c0,0,-1,0,-1,0l0,1c-1,1,-1,1,-1,1c0,0,0,1,0,1c0,1,0,1,-1,1c0,1,0,1,0,1l-1,0c0,1,0,1,0,1l-1,0l-1,0l-1,0c-1,0,-1,0,-1,0c0,0,-1,0,-1,0c0,-1,0,-1,0,-1l1,1c1,0,1,0,1,0l0,-1l1,0l1,0c0,-1,1,-1,1,-1c0,-1,0,-1,1,-1c0,-1,0,-1,1,-2c0,0,0,-1,0,-1l-1,0l1,-2l1,0c1,0,1,0,1,0c0,0,1,0,1,0c0,-1,0,-1,0,-1c1,0,1,0,1,0ZM289.5,275.5l5,-3c0,1,0,1,0,1l-6,3ZM278.5,281.5l4,-2l0,1l-4,2ZM274.5,291.5l0,-1l0,-2l-1,-8l1,-2l1,10c0,1,0,1,0,1l0,1c-1,0,-1,1,-1,1ZM263.5,295.5l-1,-1l0,-1l2,1ZM270.5,289.5c0,0,-1,1,-2,1c0,0,-2,1,-3,1c-1,0,-2,0,-3,0c-2,0,-3,0,-4,0c-1,0,-2,-1,-2,-1c-1,0,-1,-1,-1,-1c0,0,0,-1,0,-1l0,-1c0,0,0,-1,0,-1c0,0,1,-1,1,-1l0,1c0,0,0,1,0,1c0,0,0,1,0,1c0,0,1,1,2,1l1,0l1,0l3,0c0,0,1,0,1,0c0,0,1,0,1,0c1,0,1,0,1,0l1,0c1,-1,2,-1,2,-1c1,0,1,-1,1,-1l0,-1l-1,-1c0,0,1,0,1,0c0,-1,0,-1,0,-2c0,1,1,1,1,2l0,1c0,1,0,1,0,2c0,0,-1,0,-1,1ZM346.5,295.5l-2,-1l1,-2l2,1ZM343.5,289.5c1,0,1,0,2,0c0,0,1,0,1,-1c0,0,0,-1,0,-1l-1,0l0,-1l1,-1l0,1l1,0l0,1l0,1l0,1c0,0,-1,0,-1,0l0,1c0,0,-1,0,-1,1c-1,0,-1,0,-2,0l-1,0l-10,0c0,1,0,1,0,2l-1,0l0,-1l0,-1l-1,0l-1,0c0,0,0,1,0,1c0,0,-1,1,-1,1c0,0,0,1,-1,1c0,0,0,1,-1,1c0,0,0,1,0,1c0,0,-1,0,-1,0l-1,0l-1,0c0,0,-1,0,-1,0c-1,0,-1,0,-1,-1l1,0c1,0,1,0,2,0l1,-1c0,0,1,0,1,0c0,0,0,-1,1,-1l0,-1l1,-1l-1,0c0,0,-1,0,-1,0l0,-1c-1,0,-1,0,-1,0c0,0,0,-1,0,-1c0,0,0,-1,0,-1c0,-1,0,-1,1,-1l0,-1l1,0c0,0,1,0,1,0l0,1l1,0c0,1,0,1,0,1c0,0,0,1,0,1c0,0,1,0,1,0l1,0c1,0,1,0,1,0c1,-1,1,-1,1,-2l0,-1l0,-1l0,-1l0,-1l-1,-2l0,-2c0,-1,0,-1,0,-1l0,-1l1,0l1,2c-1,0,-1,1,-1,2l0,1l1,1l0,2l0,1l0,1l-1,1l2,-1l1,-1l0,-1c1,0,1,0,2,0l1,0c0,0,1,0,1,0c1,1,1,1,1,1l0,1l0,1l-1,1l-1,0l2,0l1,0ZM344.5,275.5c0,0,0,-1,0,-1c1,0,1,0,1,0c1,0,1,0,1,1l0,1c0,0,-1,0,-1,0l1,1l0,1l-1,0l-1,0c0,1,-1,1,-1,1l-1,0c0,0,-1,0,-1,0l1,0l1,-1l1,0l0,-1c0,0,-1,-1,-1,-1c0,0,1,-1,1,-1ZM345.5,275.5l-1,0l0,1l1,0l0,-1ZM340.5,288.5c0,0,0,-1,-1,-1c0,0,-1,0,-1,0c-1,0,-1,0,-2,0l-1,1l-1,0l-1,1l1,0c1,0,1,0,2,0l1,0c1,0,2,-1,3,-1ZM334.5,272.5c0,-1,0,-1,0,-1c0,-1,1,-1,1,-1c1,1,1,1,1,1c0,1,0,1,0,1l-1,1l1,0l0,2l-1,-1l-1,0l0,1c-1,0,-1,1,-1,1l-1,0l-1,0l1,-1l1,0l0,-1l1,0l0,-1c-1,0,-1,0,-1,0l0,-1l1,0ZM335.5,272.5l-1,-1c0,0,0,1,0,1l1,1l0,-1ZM327.5,288.5l-1,0c0,0,0,1,0,1l1,0c0,0,1,0,1,0c0,-1,0,-1,-1,-1ZM317.5,284.5l-1,-1l1,-1l1,1ZM317.5,291.5l-1,0l-1,0l-1,0l-1,0l1,0c0,0,0,1,0,1c0,0,0,1,0,1c0,1,0,1,-1,2c0,1,0,1,-1,1l-1,0c0,-1,-1,-1,-1,-2c0,-1,-1,-2,-1,-3c-1,0,-1,0,-1,0l-1,0l-2,0c0,0,-1,0,-1,-1c-1,0,-1,-1,-1,-2l-1,-8l1,-2l1,9l0,1l0,1c0,0,1,0,1,0l2,0l1,0l1,0l1,0c0,-1,0,-1,0,-2l1,0c0,0,0,-1,0,-1c1,-1,2,-2,2,-2l1,0l0,1l0,1c0,1,0,1,-1,2c0,0,-1,1,-2,2l2,-1l2,0l1,0l1,0c0,0,1,0,1,0c1,0,1,0,2,-1c0,0,0,-1,-1,-1l0,-1l1,-1c0,1,0,1,0,1l0,1l0,1l0,1l0,1c-1,0,-1,0,-2,1l-1,0ZM321.5,294.5l-4,2c0,-1,0,-1,0,-1l4,-2ZM312.5,286.5c0,0,-1,0,-1,1l-1,2c1,-1,2,-1,2,-1c1,-1,1,-1,1,-1c0,-1,0,-1,0,-1l-1,0ZM310.5,291.5c0,0,0,1,0,1c1,1,1,1,1,2l1,0c1,0,1,0,1,0c0,0,1,0,1,-1c0,0,-1,-1,-2,-1c0,0,-1,-1,-2,-1ZM310.5,278.5l4,-2l0,1l-4,2ZM371.5,290.5l-1,0c0,0,-1,0,-1,0l-1,-1l0,1c0,0,-1,0,-1,1l-1,0l-1,0l-1,0c0,0,0,1,0,1c0,0,0,1,0,1c0,0,0,1,-1,2c0,0,0,1,-1,1c0,1,-1,1,-2,1c-1,1,-1,1,-2,1c-1,0,-1,0,-2,-1c0,0,-1,0,-1,0c-1,-1,-1,-1,-1,-1c-1,-1,-1,-2,-1,-2c0,0,0,-1,0,-1c0,0,1,-1,1,-1c0,0,0,-1,0,-1l0,-1c1,0,1,0,1,0c0,0,0,1,0,1c0,0,-1,1,-1,1c0,1,0,1,0,1c0,1,0,1,1,1c0,0,0,1,0,1c0,0,1,0,1,0c1,1,1,1,2,1c1,0,2,0,3,-1c1,0,1,0,2,-1c0,0,0,-1,0,-1c0,0,0,-1,0,-1c0,0,0,-1,0,-1l-1,0c0,-1,0,-1,0,-1l1,-2l0,1c0,0,1,0,1,0l1,0l1,0c1,0,1,0,1,0l1,0l0,-2c1,0,1,-1,1,-1l1,0c0,0,0,-1,0,-1c1,0,1,1,1,1c0,0,1,1,1,1l0,1l0,1c0,1,-1,1,-1,1ZM369.5,288.5l1,0l1,0c-1,-1,-1,-1,-1,-1c0,0,-1,0,-1,0c0,1,0,1,0,1ZM370.5,294.5l-4,2c0,-1,1,-1,1,-1l4,-2ZM359.5,288.5l-2,-1l1,-1l2,1ZM358.5,282.5l-1,1l-1,0c-1,0,-1,0,-1,1l1,3l0,1c0,0,-1,0,-1,0l0,-1l0,-1l0,-1l0,-1c0,0,0,-1,0,-1c0,0,0,-1,1,-1l-1,0c0,0,0,-1,0,-1c0,0,1,-1,1,-1c0,0,1,1,1,1c1,1,1,1,1,1ZM415.5,284.5l-2,-1l-1,2l-1,-1l1,-2l1,1l1,-1l1,1ZM408.5,282.5c0,-1,0,-1,0,-1c0,0,1,0,1,0c0,0,0,1,0,1c0,0,0,1,1,1c0,-1,0,-1,0,-1c0,-1,0,-1,0,-1l0,-1c-1,0,-1,0,-1,0c0,0,0,-1,0,-1c0,0,-1,0,-1,0c0,1,0,1,0,1l0,1c0,0,-1,0,-1,0c0,0,0,1,0,1c0,0,-1,0,-1,1c0,0,-1,0,-1,1l-1,0c-1,1,-1,1,-1,1c-1,0,-1,0,-1,1c0,0,-1,0,-1,1l1,0l1,0l1,0l1,0l1,0l1,1l-1,0l-1,0l-1,1l-1,0l-1,0l-1,0l-1,0l-1,0l-1,-1l0,1l-1,0c0,0,0,1,1,1c0,0,0,1,0,1c0,1,0,1,-1,1c0,1,0,1,0,1c0,1,-1,1,-1,1c0,0,0,1,-1,1c0,0,-1,0,-1,0c0,1,-1,1,-1,1l-1,0c0,-1,-1,-1,-1,-1l0,1c0,0,1,0,1,0c1,0,1,0,2,0c0,0,1,0,1,0c0,0,1,0,1,0c0,0,1,0,1,-1l1,0c0,-1,0,-1,0,-1c0,-1,1,-1,1,-2c0,-1,0,-1,0,-1l1,0l1,0l1,0l1,-1c1,0,1,0,1,0l2,-1l1,0l1,0l0,-1c0,0,1,0,1,0l1,0l2,0l1,-1l-1,0c-1,0,-1,0,-2,0l-1,0c0,0,-1,-1,-2,-1l-1,-1l-1,0c0,0,0,-1,1,-1c1,-1,1,-1,1,-1c0,-1,1,-1,1,-1ZM406.5,275.5l4,-3l-1,1l0,1l-4,2ZM401.5,282.5l-2,-1l1,-1l2,1ZM400.5,273.5l1,-1c0,0,1,0,1,0c1,0,1,0,2,0c0,1,0,1,0,1c0,1,0,1,0,1c-1,1,-1,1,-1,1c-1,0,-1,0,-1,0c0,0,-1,0,-1,0c0,0,-1,0,-1,0l2,0c0,-1,1,-1,1,-1c-1,-1,-1,-1,-1,-1c-1,0,-1,1,-2,1c0,0,0,-1,0,-1ZM396.5,275.5c1,0,1,-1,1,-1c0,0,1,0,1,0c1,0,1,0,1,1l0,1l-1,0l1,1l0,1l-1,0l-1,0c-1,1,-1,1,-1,1l-1,0l-1,0l1,0l1,-1l1,-1l-1,0c0,0,0,-1,0,-1c0,0,0,-1,0,-1ZM398.5,275.5l-1,0l0,1l1,0l0,-1ZM387.5,294.5l-2,-1l1,-1l2,1ZM389.5,301.5l-1,0c-1,0,-1,0,-1,0c-1,0,-1,0,-1,0c0,0,0,-1,0,-1c-1,0,-1,0,-2,0c-1,0,-1,-1,-2,-1l0,-1l-1,0l0,-1c0,0,0,-1,0,-1l-1,-1c0,-1,1,-2,1,-3c0,0,0,-1,1,-2c0,0,0,-1,1,-1c1,-1,2,-2,2,-2l-1,0l-1,0l-1,0l-1,0l0,-1c1,0,1,-1,1,-1c1,0,1,0,1,0c1,0,1,0,1,0l1,0l2,0c0,0,1,0,2,0c1,0,2,0,2,0l1,0l-1,2l-1,0l-1,0l-1,0l-1,0c-1,0,-1,0,-1,1c-1,0,-1,0,-1,0c0,0,-1,0,-1,0c0,1,-1,1,-1,1c0,0,0,1,0,1c-1,1,-1,1,-1,2c0,0,-1,1,-1,2c0,0,0,1,1,1l0,1c0,0,0,1,1,1c1,1,1,1,2,1c0,0,1,1,1,1c1,0,1,0,2,0l1,0l1,0c0,0,1,0,1,0l1,0l1,0l1,0ZM386.5,275.5c-1,0,-1,0,-1,0l1,1l0,-1Z" class="g1_49" />
<path fill-rule="evenodd" d="M355.5,373.5c0,-1,0,-1,0,-1c0,0,1,-1,1,-1c0,1,0,1,0,1c1,0,1,0,1,1l0,1c-1,0,-1,0,-1,0l1,1l0,1l-1,-1l-1,1c-1,1,-1,1,-1,1l-1,0c-1,0,-1,0,-1,0l1,0l1,-1l1,-1l0,-1c-1,0,-1,0,-1,0l0,-1l1,0ZM190.5,375.5l-1,1l0,1c0,1,0,1,0,1l0,-1l0,-1l0,-1l0,-1c1,0,1,0,2,0l1,-1ZM190.5,376.5c1,0,1,0,1,-1l1,0c0,0,0,1,0,1l0,1l0,1l1,0l-1,1l-1,0c-1,1,-1,1,-1,1l-1,0c-1,0,-1,0,-1,0l1,0l1,-1l1,-1l-1,0c0,0,0,-1,0,-1c0,0,0,-1,0,-1ZM191.5,376.5l0,1l1,0ZM145.5,370.5c0,0,-1,1,-1,1c-1,1,-1,1,-1,1l0,1l1,0c0,0,0,1,0,1l-1,0l0,-1l0,-1l0,-1c0,0,1,0,1,-1l1,0l1,-1ZM145.5,372.5l0,-1c1,0,1,0,1,0c1,0,1,1,1,1l0,1l-1,0l0,1l1,0l0,1l-1,-1l-1,1c0,1,-1,1,-1,1l-1,0l1,-1l1,0l0,-1c0,0,0,-1,0,-1c0,0,0,-1,0,-1ZM146.5,372.5l-1,0l0,1l1,0l0,-1ZM70.5,382.5c0,1,0,3,0,4l0,1c-1,0,-1,0,-1,0l-1,0l0,1c0,0,-1,0,-1,0l0,-1c1,0,1,0,1,0c1,0,1,0,1,-1c0,-1,0,-1,0,-1c-1,0,-1,0,-1,0c0,-1,0,-1,0,-1l-1,0l-1,0c0,0,0,-1,0,-1l0,-1c1,0,1,1,1,1c0,0,1,0,1,0c0,1,0,1,1,1c0,0,0,1,0,1c0,1,0,1,0,1c1,0,1,0,1,0c0,-1,0,-1,0,-1c0,-1,0,-1,0,-1l0,-2ZM177.5,376.5l0,1c0,0,1,0,1,0l0,-1l1,0c0,1,0,1,0,1c0,0,1,0,1,-1l0,-1l0,1l0,1c0,1,0,1,-1,1l-1,0c0,0,-1,1,-1,1l0,-1l-1,0l0,-1l1,0l0,-1ZM181.5,374.5l-6,2c1,0,1,-1,1,-1l5,-3ZM288.5,373.5c0,-1,0,-1,0,-2c-1,-1,-1,-1,-1,-2l1,-1c0,1,0,1,0,1c0,1,0,1,0,1l0,1l0,1c0,1,0,1,0,1ZM87.5,376.5l1,0c0,-1,0,-1,1,-1c0,0,1,0,1,1c1,0,1,0,1,0c0,1,-1,1,-1,1c0,1,0,1,0,1c-1,0,-1,0,-1,0c-1,0,-1,0,-1,0l-1,0l1,0c1,0,2,-1,2,-1c0,0,-1,0,-1,0l-1,0l-1,0l-1,0c0,0,0,-1,0,-1l1,0ZM133.5,387.5c0,0,1,0,1,0l1,0c0,0,0,-1,0,-1c0,0,1,0,1,-1l-1,-1l0,-7c0,-1,0,-1,0,-1c0,-1,0,-1,1,-1c0,1,0,1,0,1l1,0c0,1,0,1,-1,1c0,1,0,1,0,1c0,1,0,1,0,2c0,0,0,1,0,3c0,0,0,1,0,1l0,1c0,0,0,1,0,1c0,1,0,1,0,1c0,1,-1,1,-1,1c0,0,-1,0,-1,0c0,1,-1,1,-1,1l-1,0c0,0,-1,-1,-1,-1c0,0,-1,-1,-1,-2c0,1,0,2,-1,2l-1,0l0,1l-1,0c-1,0,-1,-1,-2,-1c0,0,-1,1,-1,1c-1,0,-1,0,-2,0l-1,-1l-1,-1l-1,1c0,0,-1,1,-1,1l-1,0l-1,0l-1,0l0,1l-1,1c0,0,0,1,0,1c-1,0,-1,1,-1,1c0,0,-1,0,-1,0c0,1,0,1,-1,1c-1,0,-1,0,-1,0l-1,0c0,0,-1,0,-1,0c0,-1,-1,-1,-1,-1c0,0,1,0,1,0c1,0,1,0,2,0c0,0,1,-1,1,-1c0,0,1,0,1,0c0,-1,1,-1,1,-1c0,0,0,-1,0,-1c1,0,1,0,1,-1l-1,0c0,0,0,-1,-1,-1c0,0,-1,0,-1,-1l0,-1l1,-1l0,-1c1,0,1,0,1,0c1,0,1,0,1,0l0,1c1,0,1,0,1,0c0,0,0,1,0,1c0,0,0,1,0,1c1,0,1,0,1,0c0,0,1,0,1,0l1,0c0,0,1,0,1,0l1,-1l0,-1c1,-1,2,-2,3,-2l0,1l1,1l1,1c1,1,1,1,1,1l1,0l1,0c1,0,1,-1,2,-1l0,-1c0,0,0,-1,0,-1l0,-1l-1,-6l1,-2l1,10c0,1,0,1,0,1c0,1,1,1,1,1l1,0ZM134.5,371.5c0,1,1,1,1,1l0,-1l1,-1l0,1l1,0l0,-1l0,-1l0,1l0,1c0,1,0,1,0,1l-1,0l-1,0c0,1,0,1,0,1c-1,0,-1,0,-1,0c0,-1,0,-1,0,-1l0,-1ZM137.5,392.5l-4,2c0,-1,1,-1,1,-1l4,-2ZM128.5,367.5c0,0,1,0,1,0c0,0,1,-1,1,-1c1,0,1,1,2,1l0,1l0,1c0,0,-1,0,-1,0c0,0,-1,0,-1,0l-1,0l-1,0l2,0c1,0,1,-1,2,-1c-1,0,-1,0,-1,0c-1,0,-1,0,-1,0c0,0,-1,0,-1,0c0,0,-1,0,-1,0l0,-1ZM124.5,387.5l-1,-1c0,0,0,-1,0,-1c-1,0,-1,0,-1,0l-1,1c0,0,1,0,1,0l1,1ZM122.5,373.5c0,-1,0,-1,0,-1c0,0,1,-1,1,-1c0,1,0,1,0,1c1,0,1,0,1,1l0,1c-1,0,-1,0,-1,0l1,1l0,1l-1,-1l-1,1c-1,1,-1,1,-1,1l-1,0c-1,0,-1,0,-1,0l1,0l1,-1l1,-1l0,-1c-1,0,-1,0,-1,0l0,-1l1,0ZM123.5,373.5l-1,0l0,1l1,0l0,-1ZM111.5,380.5c0,0,0,-1,0,-1c0,0,1,0,1,-1c0,0,1,0,1,0l1,0c0,0,0,1,0,1l0,1l-1,0l0,-1l-1,0c0,1,0,1,-1,1c1,0,1,0,1,1l1,0l1,0l1,0c0,0,-1,0,-1,0l-4,2c0,0,1,-1,1,-1l1,0c-1,-1,-1,-1,-1,-2ZM113.5,386.5c0,0,-1,0,-1,0c0,1,1,1,1,1l1,0l0,-1l-1,0ZM109.5,374.5l1,0l1,0c0,0,1,0,1,0c1,0,1,0,1,0c0,0,0,1,0,1c0,0,-1,0,-1,1c-1,0,-1,0,-1,0c-1,1,-1,1,-1,1l-1,0l0,-1l1,0c1,0,2,-1,2,-1c0,0,-1,0,-1,0l-1,0l-1,0l-1,0c0,-1,0,-1,1,-1ZM106.5,388.5c-1,0,-1,0,-1,0l-1,0l-1,0l-1,-1c0,1,0,1,-1,1l0,1l-1,0l-1,0c0,0,-1,0,-1,-1l-1,0c0,-1,0,-1,0,-1c0,0,-1,0,-1,0c0,0,0,1,0,1c-1,0,-1,0,-2,0l0,1l-1,0l-1,0l0,-1c-1,0,-1,0,-1,0c-1,-1,-1,-1,-1,-1l0,-1l0,-1c0,0,0,-1,0,-1c0,1,-1,2,-2,2l-1,0c0,1,1,1,1,1c0,1,0,1,0,1c0,1,-1,2,-1,2c0,1,0,1,-1,2c0,0,-1,1,-2,1c0,0,-1,0,-2,0c0,0,-1,0,-2,0c0,0,-1,0,-1,0c0,-1,-1,-1,-1,-2c0,0,0,-1,0,-1c0,-1,0,-1,0,-1l0,-1l0,-1l1,0c0,-1,0,-1,0,-1l1,0c-1,0,-1,0,-1,1l0,1c0,0,0,1,0,1c0,0,0,1,0,1l1,1l1,0c0,0,1,0,2,0c0,0,1,0,2,0c0,0,1,-1,1,-1l1,0c0,-1,0,-1,0,-1l0,-1l0,-1c-1,0,-1,0,-1,0c0,-1,0,-1,0,-1c0,-1,0,-1,0,-1l-1,0l1,-2c0,0,1,1,1,1l1,0l1,0l1,-1l0,-1c0,0,1,0,1,1l0,1l0,1l0,1c0,1,1,1,1,1l1,0c0,0,1,0,1,0c1,0,1,0,2,-1c0,0,1,0,1,0c1,0,1,1,1,1c0,0,1,0,1,0l1,0l1,0l1,0l0,-1l1,-1c0,0,0,-1,1,-1c0,-1,0,-1,1,-1l0,1c1,0,1,1,1,1l0,1l0,1c0,1,0,1,0,1ZM104.5,386.5l1,0c0,0,0,-1,0,-1l-1,0c-1,0,-1,0,-1,1l1,0ZM105.5,392.5l-5,2c1,-1,1,-1,1,-1l4,-2ZM96.5,384.5l-2,-1l1,-1l2,1ZM98.5,392.5l-5,2c1,-1,1,-1,1,-1l4,-2ZM92.5,392.5l-1,-1l-1,1l-2,-1l1,-1l2,0l0,-1l2,1ZM82.5,384.5l-1,-1l1,-1l1,1ZM78.5,376.5l5,-3l-1,1l-4,2ZM179.5,385.5c0,1,0,1,0,1c1,0,1,0,1,0c0,-1,0,-1,0,-1l-1,0ZM179.5,392.5c0,0,0,1,0,1c0,0,-1,0,-1,0c0,0,-1,0,-2,0c0,0,-1,0,-2,0c0,-1,0,-1,0,-1l1,0c0,0,1,0,1,0l1,0c0,0,1,0,1,0c0,-1,1,-1,1,-1c0,0,1,-1,1,-1c0,0,0,-1,0,-1c1,-1,1,-1,1,-1c0,-1,0,-1,0,-1c0,0,-1,0,-1,0c0,0,0,1,0,1l-1,0l-1,0c0,-1,0,-1,0,-1c0,0,0,-1,0,-1c0,0,0,-1,0,-1c0,-1,0,-1,0,-1c1,-1,1,-1,1,-1c0,0,1,0,1,0c1,0,1,0,1,1c0,1,1,1,1,1c0,1,0,1,0,2c0,0,0,1,0,1c0,1,-1,2,-1,2c0,1,-1,1,-1,1c0,1,0,1,-1,1ZM166.5,392.5c1,0,1,0,1,0l1,0c1,0,2,0,2,-1c1,0,1,-1,2,-1c0,-1,1,-1,1,-2c0,-1,0,-1,0,-1c0,-1,0,-1,0,-1l0,-1l-1,0l1,-2c1,1,1,1,1,2l0,1l0,1c0,0,0,1,0,1c0,0,0,1,0,1l0,1c-1,0,-1,0,-1,1l-1,1l-1,0c0,1,-1,1,-1,1c0,0,-1,0,-1,0l-1,0c0,0,0,-1,-1,-1l-1,0ZM169.5,379.5l4,-2c0,1,0,1,0,1l-4,2ZM156.5,383.5c1,0,1,0,1,0l1,0l1,-1l1,0l1,0c0,1,0,1,1,1l-2,-1l0,-1l-1,0c-1,0,-1,0,-2,0c0,-1,0,-1,1,-1c0,-1,0,-1,1,-1c1,0,1,1,2,1l2,1c0,1,0,1,0,1c1,0,1,0,1,0l1,0l0,1l1,0l1,0l1,0l-1,2l-1,0l-1,-1l-2,0l-2,0c-1,0,-1,-1,-2,-1c-1,0,-1,0,-1,0l0,1c0,0,0,1,0,1l1,1l0,1c0,0,-1,0,-1,0c0,1,0,1,0,1c0,0,-1,0,-1,0l-1,0l-1,-1l-1,0c0,1,0,1,0,1l-1,1l-1,0c-1,0,-1,0,-1,-1c-1,0,-1,0,-1,0c0,0,-1,-1,-1,-1c0,-1,0,-1,0,-1c-1,0,-1,1,-1,1l-1,0l-1,0l-1,0l0,-2l1,-1c0,0,1,-1,1,-1c1,-1,1,-1,1,-1l0,-1l1,0l0,-1l0,1c0,1,0,1,0,1c0,1,1,1,1,2l0,2l0,1c1,0,1,0,1,0c0,0,1,0,1,0l1,0c0,0,1,0,1,0l0,-1l1,-1c0,0,0,-1,1,-1c0,-1,0,-1,0,-1ZM157.5,374.5l1,0c0,0,1,0,1,0c1,0,1,0,1,0c1,0,1,0,1,0c0,0,0,1,0,1l-1,1l-1,0c0,1,-1,1,-1,1c-1,0,-1,0,-1,-1l2,0c0,0,1,-1,1,-1l-1,0c-1,0,-1,0,-2,0c0,-1,0,-1,0,-1ZM156.5,386.5l1,0c0,0,0,-1,0,-1l-1,0l0,1ZM153.5,379.5l4,-2c0,1,0,1,0,1l-4,2ZM148.5,379.5l-1,0l-1,1l-2,-1l1,-2l2,1l1,-1l1,1ZM149.5,383.5l-1,0l-1,1c0,1,-1,1,-1,1l1,0l1,0l1,0ZM217.5,380.5l-1,-1l1,-2l1,1ZM219.5,382.5l-2,-1l0,2l-2,-1l1,-2l2,1l0,-1l2,1ZM214.5,387.5l0,1c0,0,-1,0,-1,0l-1,0c0,1,0,1,0,1l-1,0l-1,0c-1,0,-2,-1,-2,-1c-1,0,-1,0,-1,0c-1,0,-1,0,-2,0c-1,0,-1,1,-2,1l-1,0l-1,0c-1,0,-1,-1,-2,-1c0,-1,-1,-1,-1,-2l0,-8l1,-3l0,10l0,1l1,0c0,1,0,1,1,1l2,0c0,0,1,0,1,0c1,0,1,0,1,0c0,-1,0,-1,0,-1l0,-1c0,0,0,-1,0,-1c0,-1,1,-1,1,-1c0,-1,0,-1,0,-1c1,0,1,-1,2,-1c0,0,1,1,1,1c0,0,0,1,0,1l0,1c0,1,0,1,0,1c0,0,0,1,0,1l-1,1l1,0c1,0,1,0,1,0l1,0l1,0c0,0,1,0,1,0c1,0,1,-1,1,-1c0,0,1,0,1,-1l0,1l1,1c1,0,1,0,2,0l0,-1c1,0,1,0,1,0c0,-1,0,-1,0,-1l0,-1l0,1l1,1l0,1l1,0c1,0,1,0,1,0c0,-1,0,-1,0,-1l-1,0l1,-2l0,1l0,1l0,1l0,1c0,0,-1,1,-1,1l-1,-1l-1,0l0,-1l-1,1l-1,0c0,1,-1,1,-1,1l0,-1c-1,0,-1,0,-1,0l0,-1c0,0,-1,0,-1,0ZM216.5,392.5l-4,2c0,-1,1,-1,1,-1l4,-2ZM207.5,381.5l-1,-2l1,-1l1,1ZM207.5,383.5l-1,1c0,1,0,1,0,1c0,0,1,0,1,1c0,0,1,-1,1,-1l1,0c0,-1,-1,-1,-1,-1c0,-1,0,-1,-1,-1ZM206.5,372.5l4,-2l0,1c0,0,-1,0,-1,0l-4,2ZM196.5,373.5l0,-1c1,0,1,1,2,1c1,0,1,0,1,0l1,0l1,0c0,0,-1,0,-1,1l-1,0l-1,0l-1,0l-1,-1l0,1c-1,0,-1,0,-1,0c0,-1,0,-1,1,-1ZM190.5,386.5c0,0,1,0,1,-1l1,-1l1,0c0,0,1,0,1,0c0,0,0,1,0,1l0,1l-1,0l-1,0c0,0,-1,0,-1,0l1,1l1,0c1,0,1,0,2,0c0,0,0,1,0,1l-1,0l-4,2c0,0,0,-1,0,-1l1,0c0,-1,0,-1,0,-1c-1,-1,-1,-1,-1,-1c0,0,0,-1,0,-1ZM247.5,388.5l-1,0l-1,0c0,0,-1,-1,-1,-1l-1,0l0,1c-1,0,-1,0,-1,0c0,0,-1,0,-1,0l-1,0l-1,1l-1,0l-1,0l0,1c0,0,-1,0,-1,1c0,0,0,1,0,1c-1,0,-1,1,-1,1c-1,0,-1,0,-1,0c0,1,-1,1,-1,1l-1,0l-1,0c0,0,-1,0,-1,0c-1,-1,-1,-1,-1,-1l1,0c1,0,1,0,2,0c0,0,1,-1,1,-1c0,0,1,0,1,0c0,-1,0,-1,1,-1c0,0,0,-1,0,-1c0,0,1,0,1,-1c-1,0,-1,0,-1,0c0,0,0,-1,-1,-1c0,0,-1,0,-1,-1l0,-1l0,-1c0,0,1,0,1,0l0,-1c0,0,1,0,1,0c0,0,1,0,1,0l0,1c0,0,1,0,1,0c0,0,0,1,0,1c0,0,0,1,0,1c1,0,1,0,1,0c0,0,1,0,1,0l1,0c0,0,1,0,1,0c0,0,0,-1,0,-1c0,-1,0,-1,0,-1c0,-1,0,-1,0,-1c1,-1,1,-1,1,-1l0,-1c0,0,0,-1,0,-1l1,0c0,0,0,-1,0,-1c1,1,1,1,2,2c1,0,1,0,2,1c0,0,0,1,1,1c0,1,0,1,0,1c0,0,0,1,0,1l0,1c-1,1,-1,1,-1,1ZM243.5,384.5c0,-1,0,0,0,0c-1,0,-1,0,-1,0l0,1c0,0,1,0,1,1c0,-1,0,-1,1,-1c0,-1,0,-1,0,-1c0,0,-1,0,-1,0ZM245.5,384.5c0,1,0,1,0,1c0,0,0,1,0,1l1,0l1,0c-1,-1,-1,-1,-1,-1l-1,-1ZM240.5,369.5c1,-1,1,-1,1,-1c1,0,1,0,1,0c0,0,0,1,0,1c0,0,0,1,0,1c0,1,0,1,0,1l0,1l-1,0l-1,1c0,0,-1,0,-1,1l-1,0l0,-1l1,0l1,-1l0,-1l0,-1l0,-1ZM241.5,370.5l0,-1c-1,0,-1,0,-1,1l1,0ZM235.5,386.5c-1,0,-1,0,-1,0c0,1,0,1,1,1c1,0,1,0,1,0l0,-1c0,0,-1,0,-1,0ZM231.5,379.5l4,-2c0,1,0,1,0,1l-4,2ZM267.5,388.5l-1,0l-1,0l-1,-1l-1,0c0,1,0,1,0,1l-1,1l-1,0l-1,0c-1,0,-2,-1,-2,-1c-1,-1,-1,-1,-1,-2l-1,-8l1,-3l1,10l0,1c1,1,1,1,2,1l1,0l1,0c0,0,1,0,1,0l0,-1l1,-1c0,0,1,-1,1,-1c0,-1,1,-1,1,-1c0,0,1,0,1,1c0,0,0,1,0,1l1,1l0,1l-1,0c0,1,0,1,0,1ZM265.5,386.5l1,0c0,0,0,-1,0,-1c-1,0,-1,0,-1,0l0,1ZM262.5,376.5l4,-3l0,1l-4,2ZM316.5,389.5l0,-2l0,-1l0,-8l1,-3l0,11c0,0,0,1,0,1c0,1,0,1,-1,2ZM309.5,387.5l1,0c1,0,1,-1,1,-1l0,-1l0,-1l0,-7c0,-1,0,-1,0,-1c0,-1,0,-1,0,-1c1,0,1,0,1,0c0,0,-1,0,-1,0c0,1,1,1,1,1l1,0c0,1,-1,1,-1,1c0,1,0,1,0,1c0,1,0,1,0,2c0,0,0,1,0,3c0,0,0,1,0,1l0,1c0,0,0,1,0,1c0,1,0,1,0,1c-1,1,-1,1,-1,1c-1,0,-1,0,-1,0c0,0,-1,1,-1,1l-2,0c-1,0,-2,-1,-2,-1c-1,0,-1,0,-1,0c-1,0,-1,0,-2,0c0,0,-1,0,-1,1l-1,0l-1,0l0,-1l0,1l0,1c-1,0,-1,1,-1,2l-1,0c0,1,0,1,0,1c-1,1,-1,1,-1,1c-1,0,-1,0,-1,0c-1,0,-1,0,-1,0l-1,0c0,0,-1,0,-1,0c-1,0,-1,0,-1,-1l1,0c1,0,1,0,2,0c0,0,1,0,1,-1c0,0,1,0,1,0c0,0,0,-1,1,-1l0,-1c0,0,1,-1,1,-1c0,0,0,-1,0,-1l-1,0c0,-1,0,-1,0,-1l0,-1c1,0,1,0,1,0l1,1l1,0c1,0,1,0,1,0l1,0c0,-1,0,-1,0,-1c0,0,0,-1,0,-1c0,0,0,-1,0,-1c0,-1,1,-1,1,-1c0,-1,0,-1,0,-1c1,0,1,-1,2,-1c1,0,1,1,1,1c0,0,0,1,1,1l0,1c-1,1,-1,1,-1,2l-1,1c1,0,1,0,1,0l1,0l1,0ZM309.5,371.5c0,-1,0,-1,1,-1c0,0,1,0,1,0c1,0,1,0,2,0c0,0,0,1,0,1c0,0,0,1,-1,1c0,0,0,1,0,1l-1,0c0,0,-1,0,-1,0c-1,0,-1,0,-1,0l2,-1c0,0,1,0,1,0c0,-1,0,-1,0,-1c-1,0,-1,0,-1,0c-1,0,-1,0,-2,0c0,0,0,1,0,1l0,-1ZM305.5,380.5l-1,-1l-1,2l-2,-1l1,-2l2,1l0,-1l2,1ZM304.5,383.5l-1,1c0,1,0,1,0,1c0,0,1,0,1,1c0,0,1,-1,1,-1l1,0c0,-1,0,-1,-1,-1c0,-1,0,-1,-1,-1ZM304.5,369.5c1,0,1,0,1,0c0,-1,1,-1,1,-1c1,0,1,1,1,1c0,0,0,1,0,1l-1,0c0,1,0,1,0,1l1,0l0,1l-1,0l-1,0l0,1c-1,0,-1,0,-1,1l-1,0l-1,0l1,-1l1,0l0,-1l1,0l0,-1l-1,0l0,-1l0,-1ZM306.5,370.5l-1,-1l0,1l1,0ZM293.5,378.5c0,0,1,-1,1,-1c1,0,1,0,2,0c0,0,1,0,1,0c0,1,1,1,1,1l-1,0c0,1,0,1,0,1c0,0,-1,1,-1,1l-1,0l-1,0l-1,0l2,0c1,-1,1,-1,2,-1c-1,0,-1,-1,-1,-1c0,0,-1,0,-1,0c0,0,-1,0,-1,1c0,0,-1,0,-1,0c0,-1,0,-1,0,-1ZM289.5,389.5l0,-2l0,-1l-1,-8l1,-3l1,11c0,0,0,1,0,1c-1,1,-1,1,-1,2ZM280.5,382.5l-1,-1l1,-1l1,1ZM280.5,392.5c0,0,-1,0,-1,0c-1,-1,-1,-1,-2,-1c0,0,0,-1,-1,-1c0,-1,0,-1,0,-2c0,0,0,-1,0,-1c0,0,0,-1,0,-1c0,0,0,-1,1,-1c0,-1,0,-1,0,-1l1,0c-1,0,-1,1,-1,1c0,0,0,1,0,1c0,1,0,1,0,1c0,1,0,1,0,1c0,1,0,1,1,1c0,0,1,0,1,1c0,0,1,0,2,0c0,0,1,0,2,-1c0,0,1,0,1,-1c0,0,1,0,1,0c0,0,0,-1,0,-1c0,0,0,-1,0,-1c0,-1,0,-1,-1,-1c0,0,0,-1,0,-1l0,-1l-1,0l1,-2l1,1l0,1l0,1l1,0c0,1,0,1,0,1c0,0,0,1,0,1l0,1c0,0,0,1,-1,2c0,0,0,1,-1,1c0,1,-1,1,-2,1c0,1,-1,1,-2,1ZM283.5,396.5l-5,3c1,-1,1,-1,1,-2l4,-2ZM342.5,388.5l-1,0l-1,0l-1,-1c0,1,0,1,-1,1l0,1l-1,0l-2,0c0,1,0,1,0,1c0,1,0,2,0,2c-1,1,-1,1,-2,2c0,0,-1,1,-1,1c-1,0,-2,1,-3,1c0,0,-1,-1,-2,-1c0,0,-1,0,-1,0c0,-1,-1,-1,-1,-2c0,0,0,-1,0,-1c0,-1,0,-1,0,-1l0,-1c0,-1,0,-1,0,-1c1,-1,1,-1,1,-1c0,0,0,1,0,1l0,1c0,0,-1,1,-1,1c1,0,1,1,1,1c0,0,0,1,1,1c1,0,2,1,3,1c0,0,1,-1,2,-1c1,0,1,0,2,-1c0,-1,0,-1,0,-1c0,-1,0,-1,0,-1c0,-1,0,-1,0,-1c0,0,0,-1,0,-1l-1,0l1,-2c1,1,1,1,2,1l1,0l1,0l1,-1l1,-1c0,0,0,-1,1,-1c0,-1,0,-1,1,-1l0,1c1,0,1,1,1,1l0,1l0,1c0,1,0,1,-1,1ZM341.5,386.5l1,0c0,0,0,-1,0,-1c0,0,-1,0,-1,0l-1,0l0,1l1,0ZM342.5,392.5l-5,2c1,-1,1,-1,1,-1l4,-2ZM330.5,386.5l-1,-1l1,-1l1,1ZM329.5,379.5l4,-2c0,1,0,1,-1,1l-4,2ZM385.5,385.5l-1,0c1,1,1,1,1,1l1,0c0,-1,0,-1,0,-1c0,0,-1,0,-1,0ZM385.5,392.5c0,0,0,1,0,1c-1,0,-1,0,-1,0c-1,0,-1,0,-2,0c-1,0,-1,0,-2,0l-1,0c0,-1,0,-1,0,-1l1,0c1,0,1,0,1,0c0,0,1,0,1,0c1,0,1,0,1,0l1,0c0,-1,0,-1,1,-1c0,0,0,-1,0,-1c1,0,1,-1,1,-1c0,-1,1,-1,1,-1c0,-1,0,-1,0,-1l-1,0c0,0,0,1,0,1c0,0,-1,0,-1,0l-1,0c0,-1,0,-1,0,-1c0,0,-1,-1,-1,-1c0,0,1,-1,1,-1c0,-1,0,-1,0,-1c0,-1,1,-1,1,-1l1,0c0,0,1,0,1,1c0,1,0,1,0,1c0,1,0,1,0,2c0,0,0,1,0,1c0,1,0,2,0,2c-1,1,-1,1,-1,1c0,1,0,1,-1,1ZM382.5,379.5l5,-2l-1,0c0,1,0,1,0,1l-4,2ZM377.5,382.5l-2,-1l1,-2l2,1ZM376.5,389.5l-1,0c-1,0,-1,0,-1,-1c-1,0,-1,0,-1,0l-1,-1l0,-1l0,-1c0,0,0,1,-1,1l-1,1c0,0,-1,0,-1,0l0,1c0,0,-1,0,-1,1c0,0,0,1,0,1c0,0,0,1,-1,1c0,0,0,1,0,1c-1,0,-1,1,-1,1l-1,0l-1,0l-1,0c0,0,-1,0,-1,0c0,0,-1,0,-1,0l0,-1l1,0l1,0l1,0c0,0,1,0,1,0l0,-1c0,0,1,0,1,0c0,-1,1,-1,1,-2l1,-1c0,-1,0,-1,0,-1c0,0,-1,0,-1,0l1,-2l1,0c1,0,1,0,1,0c1,0,1,0,1,-1l1,0l0,1c0,0,1,0,1,0c0,1,0,1,0,1c0,1,0,1,0,1c1,0,1,0,1,0l1,0l1,0c1,0,1,0,2,0c0,0,1,-1,1,-1c0,-1,0,-1,0,-1c-1,0,-1,-1,-1,-1l1,-2c0,0,0,1,0,1c0,1,0,1,0,1c1,0,1,0,1,0c0,1,0,1,0,1c0,1,0,1,0,1c-1,1,-1,1,-1,1c0,1,-1,1,-1,1c-1,0,-1,1,-2,1ZM377.5,373.5c0,-1,0,-1,0,-1c0,0,1,-1,1,-1c0,1,0,1,0,1c1,0,1,0,1,1l0,1c0,0,-1,0,-1,0l1,1l0,1l-1,-1l-1,1c0,1,-1,1,-1,1l-1,0c0,0,-1,0,-1,0l1,0l1,-1l1,-1l0,-1c-1,0,-1,0,-1,0l0,-1l1,0ZM378.5,373.5l-1,0l0,1l1,0l0,-1ZM371.5,382.5l-1,-1l1,-1l1,1ZM370.5,376.5l4,-3l0,1l-5,2ZM367.5,383.5l-2,-1l1,-1l1,1ZM366.5,374.5l0,1c1,0,1,0,1,0l0,-1l0,-1l0,1l1,0c0,1,0,1,0,1c0,0,0,-1,0,-1l1,-1l0,1l0,1c0,0,-1,1,-1,1c0,0,-1,0,-1,0l0,-1l0,1c0,0,-1,0,-1,0l-1,0l0,-1l0,-1ZM369.5,396.5l-4,2l0,-1l4,-2ZM361.5,377.5c-1,0,-1,0,-1,-1l1,-1c0,1,0,1,0,1c1,0,1,0,1,0c0,1,0,1,0,1c0,1,0,1,0,1c0,1,0,1,0,2c0,2,0,3,0,3c0,1,0,2,0,3l0,1c0,1,0,1,0,2c-1,0,-1,1,-2,1c0,1,0,1,0,1c-1,0,-1,0,-1,0c-1,1,-2,1,-3,1l-1,0l-1,0c0,0,-1,-1,-1,-1c0,0,0,-1,-1,-1c0,0,0,-1,0,-1c0,-1,0,-2,0,-2c1,-1,1,-1,1,-1l0,-1l1,0l0,-1l0,1l-1,0c0,1,0,1,0,1c0,1,0,1,0,1c0,1,0,2,1,2c0,1,1,1,2,1c1,0,2,0,3,-1c1,0,2,0,2,-1c0,0,0,-1,0,-1c0,-1,0,-2,0,-3c0,-1,0,-3,0,-4c0,-1,0,-2,0,-3ZM356.5,373.5l-1,0l0,1l1,0l0,-1Z" class="g1_49" />
<path fill-rule="evenodd" d="M308.5,480.5l0,-1l0,-1l-1,-9l1,-2l1,11c0,0,-1,1,-1,1c0,0,0,1,0,1ZM183.5,464.5c1,0,1,0,1,0c1,0,1,0,2,0c0,0,1,0,1,0c0,0,1,0,1,1c-1,0,-1,1,-1,1l-1,0c0,1,0,1,0,1c-1,0,-1,0,-1,0l-1,0l1,-1c1,0,2,0,2,-1c0,0,-1,0,-1,0l-1,0c0,0,-1,0,-1,0l-1,1l0,-1l0,-1ZM148.5,477.5c0,1,-1,2,-1,2c0,1,0,1,0,1l-1,1l1,1l-1,1l-1,0l0,1c-1,0,-1,0,-2,1l-1,0l-1,1l-1,0l-1,1l0,1l-2,0l-4,0c0,0,-1,-1,-1,-1l-1,-1c-1,-1,-2,-1,-3,-1l-1,-1l-1,0l0,-1l-1,0l0,-1l-1,0l1,-1l-1,-1l0,-1c0,-1,0,-1,0,-1l0,-1l0,-1c0,0,0,-1,0,-1c1,-1,1,-1,1,-1l0,-1l-1,0c0,0,0,-1,1,-1l1,0l0,-1l1,0l0,-1l1,0l1,0l2,-1l1,-1c0,-1,1,-1,1,-1l4,0l2,0l0,1l1,0l0,1l1,0l2,1l1,0l1,1l1,1c0,0,1,0,1,1l-1,0l0,1l1,0l0,1l0,1l1,0ZM139.5,488.5l0,-1l0,-1l1,0l1,-1c0,0,1,0,1,0l1,0c1,-1,1,-1,1,-1l1,0l0,-1l1,0l0,-1l1,0l-1,0l0,-1l0,-1l1,0l0,-1l0,-1l0,-1c0,-1,0,-1,0,-2l-1,-1l0,-1l1,0c0,-1,-1,-1,-1,-1l-1,-1l-1,0l0,-1l-2,0l-1,-1c-1,0,-1,0,-1,0l-1,-1l0,-1l-2,0l-4,0l-1,1l-1,1l-2,1l-1,0l-1,1l-1,0l0,1c0,0,-1,0,-1,1l1,0l-1,1l0,1l-1,0l0,1l0,1l0,1l0,1l1,1l0,1l1,0c0,1,0,1,0,1l-1,0l1,1l1,0l0,1l1,1l1,0l2,0c0,0,0,1,1,1l0,1c1,0,1,0,1,1l4,0ZM144.5,473.5l-1,0l0,-1l-1,0c-1,-1,-1,-1,-1,-1l1,0c0,0,1,0,1,0c0,1,0,1,1,1ZM144.5,482.5l0,1l-1,0l0,1l-1,0l-1,0l0,-1c0,0,1,0,1,0l1,0c0,0,0,-1,1,-1ZM140.5,484.5c0,1,0,1,-1,1c0,0,0,1,0,1l-2,0l-4,0c-1,0,-1,-1,-1,-1l0,-1l0,-1l1,0l4,0l2,0l1,1ZM140.5,470.5c0,1,0,1,-1,1c0,0,0,1,0,1l-2,0l-4,0c-1,0,-1,0,-1,-1l0,-1l0,-1l1,0l4,0l2,0l0,1c1,0,1,0,1,0ZM139.5,473.5c1,0,1,-1,1,-1c1,0,1,1,1,1c1,0,1,0,1,1l1,0l1,0l1,1l0,1l0,1l0,1c0,0,0,1,0,1l0,1l-1,0c0,1,0,1,0,1l-1,0l-1,1l-1,0l-1,0c0,0,-1,0,-1,0l-2,0l-4,0l-1,0l-1,0c0,0,-1,0,-1,0c0,0,-1,0,-1,-1l-1,0l-1,0l0,-1l-1,-1l0,-1l0,-1l0,-1l0,-1l1,0l0,-1l2,0l1,-1c0,0,1,-1,1,-1c1,0,1,1,1,1l1,0l4,0ZM139.5,481.5l0,1c0,0,1,0,1,0l1,0l1,0l0,-1c1,-1,1,-1,1,-1l1,1l0,-1l1,-1l0,-1l0,-1c0,0,0,-1,0,-1c0,-1,0,-1,-1,-1c0,-1,0,-1,0,-1l-1,0l-1,0l0,-1l-1,0l-1,0l-1,0l-2,0l-4,0l-1,0l-1,0l-1,0l-1,1l-1,0c-1,0,-1,0,-1,1l0,1l-1,1l0,1l0,1l1,0c0,1,0,1,0,2l2,-1c0,0,0,1,0,1l1,0l0,1l1,0c1,0,1,0,1,0l1,-1l4,0l2,0ZM138.5,479.5l-1,0l1,-1l0,1ZM135.5,476.5l0,1l1,1c0,1,0,1,0,1l0,1l0,-1l-1,-1l0,-1c0,0,0,1,0,1c-1,0,-1,0,-1,0l0,1l-1,1l0,-1c1,0,1,-1,1,-1l0,-1l1,-1ZM127.5,473.5l0,-1l1,0l0,-1l1,0l1,0l1,0l-1,0c0,0,1,0,1,0c-1,0,-1,0,-1,0l0,1l-1,0l-1,0l0,1l-1,0ZM127.5,482.5l1,0c0,0,0,1,1,1l1,0l1,0c-1,1,-1,1,-1,1l1,0l-1,0c-1,0,-2,-1,-2,-1l-1,0l0,-1ZM215.5,484.5l-1,-1l-1,2l-1,-1l0,-2l2,1l1,-1l1,1ZM212.5,478.5c0,0,1,0,1,0c0,0,1,0,1,0c0,0,0,-1,0,-2c-1,0,-1,-1,-1,-1l-1,0c0,-1,0,-1,0,-1l0,-1l0,-1c1,0,1,1,1,1c0,0,1,1,1,1l0,1l1,0c0,1,0,2,0,2c0,1,0,1,0,1l-1,1c0,0,0,1,-1,1l-1,0l-1,0l-1,0l0,-1c0,-1,0,-1,0,-1l-1,0c0,1,0,1,0,1c-1,0,-1,1,-2,1c0,0,-1,-1,-1,-2l-1,1c0,0,0,1,-1,1c-1,0,-2,-1,-2,-2c0,1,0,1,-1,1c0,1,-1,1,-1,1l-1,0l-1,0l-1,0c-1,0,-1,0,-2,0c0,0,-1,-1,-1,-1c0,0,-1,1,-2,1c0,0,-1,0,-1,0l-1,0l-1,0c0,0,-1,0,-1,-1c0,0,-1,-1,-1,-1l0,-1l0,-1c0,0,-1,1,-1,1c-1,0,-1,0,-1,1l0,1c-1,1,-1,1,-1,1l0,1l-1,1l-1,0c0,0,-1,1,-1,1c0,0,-1,0,-1,0c-1,1,-2,1,-3,1c-1,0,-2,0,-3,1c-1,0,-2,0,-2,0c-1,0,-2,0,-2,0c-1,0,-2,0,-2,0c-1,0,-1,0,-2,-1c-1,0,-2,0,-3,0c0,0,-1,0,-2,-1c-1,0,-2,-1,-3,-1c-1,-1,-2,-1,-3,-2l0,-1c0,0,1,0,1,0c0,1,0,1,1,1c1,0,1,1,2,1c1,0,1,0,2,1c0,0,1,0,1,0c1,0,2,0,2,1c1,0,2,0,2,0c1,0,1,0,2,0c1,0,1,0,2,0c0,0,1,0,2,0c0,0,1,0,2,0c1,0,1,0,2,0c1,-1,2,-1,3,-1c1,0,2,-1,2,-1c2,0,3,-1,3,-2c0,-1,0,-1,0,-1l-1,0c0,0,0,-1,0,-1c0,-1,-1,-1,-1,-1l1,-1l1,1l1,0c0,0,1,-1,1,-1c0,0,1,0,1,0c0,-1,0,-1,0,-2l1,0c0,1,0,1,0,1l0,1l0,1c0,0,0,1,0,1c0,0,0,1,1,1c0,0,1,0,1,0l1,0l1,0c0,0,1,0,1,0c0,0,-1,0,-1,-1c0,-1,0,-1,1,-2c0,0,0,-1,0,-1c1,0,1,0,1,-1c0,0,1,0,1,0c1,0,1,0,2,0c0,1,0,1,0,2l0,1c0,1,0,1,0,1c-1,0,-1,1,-1,1l1,0c1,0,1,0,1,0l1,0l1,0l1,0c1,0,1,-1,2,-2l0,1c0,1,0,1,1,1c0,0,1,0,1,0c0,0,1,-1,1,-1l0,-1l1,0c0,1,0,1,0,1c0,1,0,1,1,1l1,0c0,-1,0,-1,0,-1c0,0,0,-1,1,-1c0,2,1,2,1,2l1,0ZM211.5,467.5l4,-2l0,1l-4,2ZM205.5,472.5l-2,-1l1,-2l2,1ZM206.5,474.5l-1,-1l-1,2l-1,-1l1,-2l1,1l1,-1l1,1ZM203.5,465.5c0,-1,1,-1,1,-1c0,0,1,0,1,0c1,0,1,0,2,0c0,0,0,1,0,1c0,0,0,1,0,1c-1,0,-1,1,-1,1c0,0,-1,0,-1,0l-1,0c0,0,-1,0,-1,0l2,-1c1,0,1,0,1,0c0,-1,0,-1,0,-1c-1,0,-1,0,-1,0c-1,0,-1,0,-1,0c-1,0,-1,1,-1,1l0,-1ZM195.5,472.5l-2,-1l1,-2l2,1ZM195.5,475.5c0,0,-1,0,-1,0c0,0,-1,0,-1,1c1,1,1,1,1,1c1,0,1,0,2,0c0,-1,0,-1,0,-1c0,0,0,-1,0,-1c-1,0,-1,0,-1,0ZM195.5,483.5l-4,2c0,0,0,-1,0,-1l4,-2ZM189.5,483.5l-1,-1l-1,1l-1,-1l0,-1l2,1l1,-1l1,0ZM171.5,478.5l-1,-1l1,-1l1,1ZM161.5,485.5l-4,3c0,-1,0,-1,0,-1l4,-3ZM241.5,470.5l-1,-1l1,-1l1,1ZM244.5,478.5c-1,1,-1,1,-1,1c0,0,-1,1,-2,1c0,0,-1,0,-1,0l-1,0l-1,0c0,0,-1,0,-1,0l-1,0l0,1c0,0,1,0,1,0c0,1,0,1,0,1c0,1,0,1,-1,2c0,1,-1,1,-1,1c0,0,-1,0,-1,0c-1,-1,-1,-1,-1,-2c-1,-1,-1,-2,-1,-3c-1,0,-1,0,-2,0l-2,0c0,0,0,1,0,1c0,0,0,1,0,1c0,1,-1,1,-1,1c0,1,-1,1,-1,1c0,0,0,1,-1,1c-1,0,-1,0,-1,0c0,0,-1,0,-1,0c-1,0,-1,0,-2,0l-1,-1c1,0,1,0,1,0c0,0,1,0,1,0c0,0,1,0,1,0c1,0,1,0,2,0c0,-1,0,-1,0,-1c1,0,1,-1,1,-1c0,0,1,0,1,-1c0,-1,0,-1,0,-1l-1,0c0,0,-1,0,-1,0c0,-1,0,-1,0,-1c0,-1,0,-1,0,-1l0,-1c0,-1,0,-1,0,-1c1,0,1,0,1,0c0,-1,0,-1,0,-1l1,0c1,0,1,1,1,1c0,1,0,1,0,1c0,1,1,1,1,1l1,0l1,0l1,0c1,-1,1,-1,1,-1l0,-1l1,-1c1,-1,1,-2,2,-2l1,1l0,1c0,1,-1,1,-1,2c0,0,-1,1,-2,2l2,-1l1,0l1,0l1,0l1,0c0,0,1,0,1,0c1,0,2,0,2,-1c0,0,1,0,1,0c0,-1,-1,-1,-1,-1l-1,0c0,1,0,1,-1,1l0,-1c-1,0,-1,0,-1,0c0,-1,0,-1,0,-1c0,0,0,-1,0,-1l0,-1c0,0,1,-1,1,-1c0,0,0,-1,1,-1c0,0,1,0,1,1l0,1l1,0l0,1l0,1c0,0,0,1,0,1c0,1,0,1,0,2ZM241.5,474.5l0,1l1,0l0,-1l0,-1l-1,0ZM240.5,464.5l4,-2c0,0,0,1,0,1l-5,2ZM235.5,475.5c0,0,-1,0,-1,1l0,1l-1,1c1,-1,2,-1,2,-1c1,-1,1,-1,1,-1c0,0,0,-1,0,-1c0,0,-1,0,-1,0ZM233.5,480.5c0,0,0,1,0,1c0,1,1,1,1,2c1,0,1,0,1,0c0,0,1,0,1,0l0,-1l-1,-1c0,0,-1,-1,-2,-1ZM235.5,464.5c0,0,0,-1,0,-1c0,0,1,0,1,0c1,0,1,0,1,1l0,1c0,0,-1,0,-1,1l1,0l0,1l-1,0l-1,0c0,1,-1,1,-1,1l-1,0c0,0,-1,0,-1,0l1,0l1,-1l1,0l0,-1c-1,0,-1,-1,-1,-1c0,0,0,-1,1,-1ZM236.5,464.5l-1,0l0,1l1,0l0,-1ZM226.5,477.5l0,1c0,0,1,0,1,0c0,0,0,-1,0,-1c0,0,-1,0,-1,0ZM223.5,470.5l4,-2l0,1c0,0,-1,0,-1,0l-4,2ZM297.5,479.5c0,0,0,1,-1,1l0,-1l-1,0l-1,-1l-1,1l0,1l-1,0l-1,0l-1,0c0,0,0,1,0,1c0,1,0,1,-1,2c0,0,0,1,0,1l-1,1l-1,0l-1,0c0,1,0,1,-1,1c-1,0,-1,-1,-2,-1l-1,0c0,0,1,-1,1,-1c0,0,0,1,0,1l1,0c0,0,1,0,1,-1c1,0,1,0,2,0c0,0,0,-1,0,-1c1,0,1,0,1,-1c0,0,1,0,1,-1l0,-1c1,0,1,0,1,-1l-1,0l0,-1c0,-1,0,-1,0,-1c0,0,1,0,1,1l1,0l1,0c0,0,1,0,1,0l1,-1c0,-1,1,-1,1,-2c0,0,1,0,1,0c0,0,1,0,1,0c0,0,0,1,0,1l1,1l0,1l-1,1ZM295.5,477.5l1,0l0,1c0,-1,0,-1,0,-1c0,-1,0,-1,0,-1c-1,0,-1,0,-1,1ZM292.5,467.5l4,-2l0,1l-4,2ZM289.5,490.5l-4,2c1,0,1,-1,1,-1l4,-2ZM276.5,472.5l-2,-1l1,-1l1,1ZM273.5,478.5l3,-2l1,-1c0,0,1,0,1,0c0,-1,1,-1,1,-1c0,0,1,0,1,0c0,0,1,0,1,0l1,1l0,1c1,0,1,0,1,0l0,1c-1,0,-1,0,-1,1c-1,1,-1,1,-2,1c-1,1,-2,1,-3,1c-1,0,-2,0,-3,0l-1,0l0,1c0,0,0,1,0,1c-1,0,-1,0,-1,0l0,-1l0,-1c0,0,-1,0,-1,-1l0,-1c0,1,-1,1,-1,1l0,1c0,0,-1,0,-1,0l-1,0c-1,0,-1,0,-1,0c0,0,-1,0,-1,-1c0,0,-1,0,-1,0l-1,0c0,1,-1,1,-2,1l-2,1c-1,0,-1,0,-1,0l-1,0l-1,0c-2,0,-3,0,-4,0c-1,-1,-1,-1,-2,-2c0,0,-1,0,-1,-1c0,-1,0,-1,0,-1c0,-1,0,-1,0,-1c1,-1,1,-1,1,-2l1,0c-1,1,-1,1,-1,1c0,1,0,1,0,1c0,1,0,1,0,1c1,1,1,1,2,1c0,1,0,1,0,1l1,0l1,0c1,0,2,0,3,0c1,0,1,0,2,0c0,0,1,0,1,0l1,0c0,0,1,-1,1,-1c1,0,1,0,2,0c1,-1,1,-1,1,-2c0,1,0,1,0,1l0,1l1,0l1,0l1,0l1,-1l1,0l0,-1l0,1c1,0,1,1,1,1l1,0ZM278.5,476.5c0,0,-1,0,-1,0l0,1l-1,0l-1,1l-1,1l2,-1c1,0,2,0,2,0c1,0,2,0,2,0c0,0,1,0,1,-1c0,-1,0,-1,0,-1l-1,0l-1,0l-1,0ZM272.5,465.5c0,-1,0,-1,1,-1c0,0,1,0,1,0c1,0,1,0,1,0c1,0,1,1,1,1c0,0,0,1,-1,1c0,0,0,1,0,1c0,0,-1,0,-1,0c0,0,-1,0,-1,0l-1,0l2,-1c0,0,1,0,1,0c0,-1,0,-1,-1,-1c-1,0,-1,0,-2,0c0,0,0,1,0,1l0,-1ZM260.5,474.5l-2,0l-1,1l-1,-1l1,-2l1,1l1,-1l1,1ZM257.5,461.5c0,-1,0,-1,0,-1c0,0,1,-1,1,-1c0,0,0,1,0,1c1,0,1,0,1,1l0,1c0,0,-1,0,-1,0l1,0l0,1l0,1l-1,-1l-1,1c-1,0,-1,1,-1,1l-1,0c0,0,-1,0,-1,0l1,0l1,-1l1,-1l0,-1c-1,0,-1,0,-1,0l0,-1l1,0ZM258.5,461.5l-1,0l0,1l1,0l0,-1ZM328.5,476.5c-1,0,-1,0,-1,0c0,1,0,1,0,1l1,0c0,-1,0,-1,0,-1ZM328.5,484.5c-1,0,-1,0,-1,0l-1,0c0,1,-1,1,-1,1l-1,0c0,0,-1,0,-1,-1c-1,0,-1,0,-1,0l1,0c1,0,1,0,1,0c0,0,1,0,1,0c0,0,0,-1,0,-1c1,0,1,0,1,0c0,0,1,-1,1,-1c0,0,1,0,1,-1l1,-1c0,0,0,-1,0,-1c0,-1,0,-1,0,-1c0,1,0,1,0,1c-1,0,-1,0,-1,0l-1,0c-1,0,-1,0,-1,0c0,-1,0,-1,0,-1c0,-1,0,-1,0,-1c0,-1,0,-1,0,-1c0,0,0,-1,1,-1c0,0,0,-1,0,-1c0,0,1,0,1,0l1,0c0,0,0,1,0,1l1,1l0,1c0,0,0,1,0,1c0,0,0,1,0,1c0,1,-1,2,-1,3l-1,1l0,1ZM325.5,470.5l4,-2l0,1c0,0,-1,0,-1,0l-4,2ZM321.5,480.5l0,-1l0,-1l0,-9l0,-2l1,11c0,0,0,1,0,1c0,0,-1,1,-1,1ZM322.5,486.5l-4,2c0,-1,0,-1,0,-1l4,-2ZM314.5,469.5l-2,-1l1,-1l2,1ZM318.5,479.5l-1,0c-1,1,-2,1,-2,1l-1,0l-1,0l-1,0l0,-1c0,0,0,-1,0,-1l1,0c1,0,1,0,2,0l1,0l1,-1c0,0,0,-1,0,-1c0,0,0,-1,-1,-1l0,-1l-1,0l-1,0l0,-1l0,-2c0,0,1,0,1,1c1,0,1,0,1,0l0,1c0,0,1,0,1,0c0,0,0,1,0,1c1,1,1,1,1,2c0,0,0,1,0,1c0,0,0,1,0,1l0,1ZM312.5,464.5l4,-2l-1,0c0,0,0,1,0,1l-4,2Z" class="g1_49" />
<path fill-rule="evenodd" d="M333.5,548.5l1,0c0,0,1,0,1,0c1,0,1,0,2,0l0,1c0,0,0,1,0,1c-1,0,-1,0,-1,0c0,1,0,1,0,1c-1,0,-1,0,-1,0c0,0,-1,0,-1,0c0,0,-1,0,-1,0l2,-1c0,0,1,0,1,-1c-1,0,-1,0,-1,0c-1,0,-1,0,-2,0l0,1l0,-1l0,-1ZM139.5,546.5l0,1c0,1,0,1,1,1l0,-1l0,-1l1,0l0,1c1,0,1,0,1,-1l0,-1l0,1l0,1c0,1,0,1,0,1l-1,0l-1,0c0,1,0,1,-1,1l0,-1l0,-1ZM143.5,544.5l-5,2c0,0,0,-1,0,-1l6,-3ZM274.5,545.5c1,0,1,0,1,0c1,-1,1,-1,2,-1c0,0,1,0,1,1c0,0,1,0,1,0c-1,1,-1,1,-1,1c0,1,0,1,-1,1l-1,0l-1,0l1,0c1,0,1,-1,2,-1c0,0,-1,0,-1,0c0,0,-1,0,-1,0c0,0,-1,0,-1,0l-1,0c0,0,0,-1,0,-1ZM214.5,547.5c1,-1,1,-1,1,-1c1,0,1,0,2,0c0,0,1,0,1,0c0,0,1,1,1,1c-1,1,-1,1,-1,1c0,0,0,1,-1,1l-1,0l-1,0l1,-1c1,0,1,0,2,0c0,-1,-1,-1,-1,-1c0,0,-1,0,-1,0c0,0,-1,0,-1,0c0,1,-1,1,-1,1c0,-1,0,-1,0,-1ZM105.5,546.5c0,0,-1,0,-1,0l0,1c0,0,-1,0,-1,1l1,0l0,1l0,1l0,-1l-1,0l0,-1l0,-1c1,-1,1,-1,1,-1c0,0,0,-1,1,-1l1,0ZM105.5,548.5c0,-1,0,-1,0,-1c1,0,1,-1,1,-1c0,1,0,1,0,1c1,0,1,0,1,0c0,1,0,1,0,1l0,1l-1,0l1,0l0,1l-1,0l-1,1c0,0,-1,0,-1,0l0,1l-1,0l0,-1l1,0l1,-1l0,-1l0,-1ZM106.5,548.5c-1,0,-1,0,-1,0l1,0l0,1l0,-1ZM238.5,542.5l0,-1c0,0,0,-1,0,-1c0,-1,0,-2,0,-2l0,-1c0,0,1,0,1,1c0,0,0,1,0,1l0,1c0,1,0,1,0,1l-1,1ZM142.5,555.5l0,1c-1,0,-1,0,-1,0c0,0,1,0,1,0c1,0,1,0,1,0c-1,-1,-1,-1,-1,-1ZM142.5,563.5l-1,0c0,1,0,1,0,1c-1,0,-1,0,-2,0c-1,0,-1,0,-2,0c0,0,0,-1,-1,-1c1,0,1,0,1,0c0,0,1,0,1,0l1,0c0,0,1,0,1,0c0,0,0,-1,0,-1c1,0,1,0,2,0c0,-1,0,-1,0,-1c0,0,1,-1,1,-1c0,-1,0,-1,0,-2c-1,0,-1,0,-1,0l-1,0c0,0,-1,0,-1,-1l0,-1c1,-1,1,-1,1,-2l1,0c0,-1,0,-1,0,-1c1,0,1,0,1,0c0,1,1,1,1,1c0,1,0,1,0,1c0,0,0,1,0,1c0,1,0,1,0,1c0,1,0,1,0,1c0,1,0,2,-1,3c0,0,0,1,0,1c0,0,-1,1,-1,1ZM131.5,551.5l-1,-1l1,-2l1,1ZM133.5,553.5l-1,-1l-1,1l-2,-1l1,-1l2,1l0,-1l2,1ZM129.5,558.5l-1,0c0,1,-1,1,-1,1l-1,0l-1,0l-1,0c-1,0,-2,0,-2,0c-1,0,-1,0,-1,0c-1,0,-1,0,-2,0c-1,0,-1,0,-2,0l-1,0l-1,0c-1,0,-1,0,-2,0c0,-1,-1,-1,-1,-2l0,-9l1,-2l0,10l1,0l0,1c0,0,1,1,1,1l2,0c0,0,1,0,1,0c0,0,0,-1,1,-1l0,-1c0,0,0,-1,0,-1c0,-1,1,-1,1,-2c1,-1,2,-1,2,-1c1,0,1,0,1,1c0,0,0,1,1,1l0,1c-1,0,-1,1,-1,1c0,1,0,1,-1,1l1,0l1,1l1,0l1,0c0,0,1,0,1,-1c1,0,1,0,1,0c0,0,1,-1,1,-1l0,1l1,0l0,1c1,0,1,-1,2,-1c1,0,1,-1,1,-1l0,-1l1,0l0,1l0,1l1,0c1,0,1,0,1,0l-1,-1l1,-1l0,1l0,1c0,1,0,1,0,1c0,1,0,1,0,1c0,0,-1,0,-1,0c-1,0,-1,0,-1,0l-1,0l0,-1l-1,1l-1,0c0,0,-1,0,-1,0c0,0,-1,0,-1,0c0,-1,0,-1,0,-1ZM131.5,562.5l-5,3c1,-1,1,-1,1,-2l4,-2ZM121.5,551.5l-1,-1l1,-1l1,1ZM121.5,554.5l-1,0c0,0,0,1,0,1c0,0,0,1,0,1c0,0,1,0,1,0c0,0,1,0,1,0l1,-1l-1,-1l-1,0ZM120.5,543.5l4,-2c0,1,0,1,0,1l-5,2ZM110.5,543.5c1,0,1,0,2,0c1,1,1,1,1,1l1,0l1,-1c0,1,-1,1,-1,1l-1,1l-1,0l-1,-1l-1,0c0,0,-1,0,-1,0c0,0,0,-1,1,-1ZM104.5,557.5l1,-1c0,0,0,-1,1,-1l1,0c1,0,1,0,1,1l-1,0l0,1l0,-1l-1,0c0,0,-1,1,-1,1c1,1,1,1,1,1l1,0c1,0,1,0,2,0l-1,0c0,0,0,1,0,1l-4,2c0,-1,0,-1,0,-1l1,-1l-1,-1l0,-1ZM200.5,559.5c-1,0,-1,0,-2,-1c0,0,-1,0,-1,0l-1,0c0,0,-1,0,-1,1l-1,0l-1,0c-1,0,-1,0,-1,0l-1,0l-1,0l-1,0l-1,0l0,-1c0,0,0,-1,0,-1l-1,0l0,1c-1,1,-1,1,-2,1c0,0,-1,0,-1,0l-1,0c0,0,-1,0,-1,0c-1,-1,-1,-1,-1,-1l0,-1l0,-1l1,0c0,0,0,1,0,1l1,0l1,0c0,0,1,0,1,0c0,0,1,0,1,0c1,0,1,0,1,0c0,0,0,-1,0,-1c0,0,0,-1,0,-1l0,-2l0,-1l0,-1l1,-1l0,2l0,1l1,2c0,1,0,1,0,1c0,0,0,1,0,1l0,1c1,0,1,0,1,0l1,0l1,0l1,0l0,-1c1,0,1,0,1,0l0,-1l0,-1c1,0,1,-1,1,-1l0,-1c0,-1,0,-1,0,-1c1,0,1,0,1,0c0,-1,0,-1,0,-1c1,0,1,1,2,1c1,1,1,1,2,2c0,0,0,1,1,1c0,0,0,1,0,1l0,1c0,0,0,1,0,1c-1,1,-1,1,-1,1ZM196.5,554.5c0,1,-1,1,-1,1c0,0,0,1,0,1c1,0,1,0,1,0c0,0,1,0,1,0l0,-1c0,-1,0,-1,-1,-1ZM198.5,555.5c0,0,0,1,0,1l0,1l2,0l0,-1c0,0,-1,0,-1,0c0,-1,0,-1,0,-1c-1,0,-1,0,-1,0ZM193.5,540.5c0,0,0,-1,1,-1l1,0l0,1l0,1l0,1l0,1l-1,0l-1,0c0,1,0,1,-1,1l-1,0l1,-1l1,0l0,-1l1,0l-1,0c0,0,0,-1,0,-1c0,0,0,-1,0,-1ZM194.5,540.5l-1,0c0,0,1,0,1,1c0,0,0,-1,0,-1ZM184.5,543.5l5,-2c0,0,-1,1,-1,1l-5,2ZM186.5,540.5l5,-3c-1,1,-1,2,-1,2l-5,2ZM178.5,550.5c0,1,0,1,0,1l-1,0c-1,0,-1,0,-2,1c-1,0,-1,1,-1,2c1,0,1,0,1,0l1,0c1,0,1,0,1,1c1,0,1,0,1,0c0,0,0,1,0,1c0,1,0,1,0,1c-1,1,-1,1,-1,1c-1,1,-2,1,-3,1c0,1,-1,1,-2,1l-1,1c0,0,-1,0,-2,0c0,0,-1,0,-1,0l-1,0c-1,0,-2,0,-3,0c-1,0,-1,0,-2,0c-1,0,-1,0,-2,0l-1,0c-1,0,-1,0,-2,0c-1,-1,-1,-1,-2,-1c-1,-1,-3,-1,-3,-2c-1,0,-1,0,-1,-1c-1,0,-1,0,-1,-1c0,0,1,0,1,0c1,1,1,1,1,1c1,0,2,1,2,1l1,0c1,0,2,1,2,1c1,0,2,0,3,0c2,0,3,1,4,1c1,0,2,-1,3,-1c1,0,1,0,2,0c1,0,2,0,3,0c1,-1,2,-1,3,-1c1,-1,1,-1,2,-2c-1,0,-1,0,-1,0l-1,0c0,0,-1,0,-1,0l0,-1c-1,0,-1,0,-1,0c0,0,0,-1,0,-1l0,-1l0,-1c0,0,1,0,1,0c0,-1,0,-1,0,-1l1,0c0,-1,0,-1,0,-1l1,-1l1,0c0,0,0,-1,0,-1c1,0,1,1,1,1c0,0,0,1,0,1ZM239.5,559.5l0,-1l0,-1l-1,-8l1,-3l1,11c0,1,0,1,-1,1c0,1,0,1,0,1ZM234.5,559.5l-1,0c-1,-1,-1,-1,-1,-1l-1,0c-1,0,-1,1,-1,1l-1,0l-1,0l-1,0c-1,0,-1,0,-1,0c0,0,0,-1,-1,-1l-1,0c0,1,-1,1,-1,1c0,0,-1,0,-1,0l-1,0l-1,0c0,1,0,1,0,1c-1,1,-1,1,-1,2l-1,1l-1,1c-1,0,-1,0,-1,0c0,1,0,1,-1,1l-1,0c0,0,-1,0,-2,-1l0,-1c0,1,0,1,1,1c1,0,1,0,2,0c0,-1,0,-1,1,-1c0,0,0,-1,1,-1c1,-1,1,-1,1,-1c0,0,0,-1,1,-1c0,-1,0,-1,0,-1c0,0,-1,0,-1,0c0,0,-1,0,-1,0c-1,0,-1,-1,-1,-1c0,-1,0,-1,0,-1c0,0,0,-1,0,-1l1,-1l1,0c0,-1,0,-1,0,-1c0,0,0,1,1,1c0,0,0,1,0,1c1,0,1,0,1,0c0,1,0,1,0,2c0,0,1,0,1,0c1,0,1,0,2,0c0,-1,1,-1,1,-1c0,0,1,0,1,0c0,0,0,-1,0,-1c1,0,1,0,1,0l0,1c1,1,1,1,1,1l1,0l1,0c1,0,1,0,1,-1l1,0l0,-1c0,-1,1,-1,1,-1l0,-1c1,0,1,0,1,0c1,0,1,0,1,0c0,1,0,1,1,2l0,1l0,1c0,0,-1,0,-1,1ZM232.5,556.5l1,1l1,0l0,-1c0,0,-1,0,-1,0c-1,0,-1,0,-1,0ZM229.5,546.5l5,-2l-1,1l-4,2ZM224.5,555.5l-1,-1l1,-2l1,1ZM224.5,543.5c1,0,1,0,1,0c0,-1,1,-1,1,-1c1,1,1,1,1,1c0,0,0,1,0,1l-1,0l0,1l1,0l0,2l-1,-1l-1,0l0,1c-1,0,-1,0,-1,1l-1,0l-1,0l1,-1l1,0l0,-1l1,0l0,-1l-1,0l0,-1l0,-1ZM226.5,544.5l-1,-1l0,1l1,0l0,1l0,-1ZM218.5,556.5c0,0,-1,0,-1,0c0,1,0,1,0,1l1,0c0,0,0,1,0,1l1,0c0,0,0,-1,0,-1c-1,0,-1,0,-1,0l0,-1ZM210.5,559.5l0,-1l0,-1l0,-8l0,-3l1,11c0,1,0,1,0,1c0,1,-1,1,-1,1ZM296.5,559.5c-1,0,-1,0,-1,0c-1,0,-1,-1,-1,-1c0,0,0,1,0,1c-1,1,-1,1,-1,1c0,1,0,1,0,1c0,0,-1,0,-1,0c0,0,-1,0,-1,0c0,-1,-1,-1,-1,-1l0,-1c-1,0,-1,0,-1,-1c0,0,0,-1,0,-1c0,0,-1,1,-1,1c-1,1,-1,1,-2,1c0,0,-1,0,-2,0c0,0,-1,0,-1,0c0,0,-1,0,-1,-1l0,-1c0,0,0,-1,1,-1c0,0,0,1,0,1c0,0,1,0,1,0c1,0,1,0,1,0c0,0,1,0,1,0c0,0,1,0,1,0l1,0c0,0,0,-1,1,-1c0,0,0,-1,-1,-1c0,-1,0,-1,0,-2c0,0,0,-1,0,-1c0,0,0,-1,0,-1c0,0,1,-1,1,-1l0,2l0,1c0,1,0,1,1,2c0,1,0,1,0,1c0,0,0,1,0,1c0,1,0,1,0,1c1,1,1,1,1,1c1,0,1,0,1,0l1,0c0,-1,0,-2,0,-3c0,0,0,-1,0,-2c-1,0,-1,-1,-1,-1c0,-1,0,-2,0,-3c0,-1,0,-2,0,-3l1,-2l1,11l0,1l1,0l0,1c0,0,1,0,1,0c0,0,1,0,1,0c0,0,1,-1,1,-1l1,0l0,-1l0,-2l-1,-6c0,0,0,-1,0,-1l0,-1c0,0,1,0,1,0l0,1c0,0,1,0,1,0c0,0,0,1,0,1c0,0,0,1,-1,1c0,0,0,1,0,2c0,0,0,1,1,2c0,1,0,1,0,2l0,1l0,1c0,0,-1,0,-1,1l0,1c-1,0,-1,0,-1,0l-1,0l-1,0ZM301.5,562.5l-4,3c0,-1,0,-1,0,-2l4,-2ZM292.5,541.5l0,1l1,0l0,-1l1,0c0,0,0,1,0,1c0,0,0,-1,1,-1l0,-1l0,1l0,1c0,0,0,1,-1,1l-1,0c0,0,-1,1,-1,1c0,0,0,-1,0,-1c-1,0,-1,0,-1,0l0,-1l1,-1ZM296.5,538.5l-6,3c1,-1,1,-1,1,-1l5,-3ZM287.5,549.5l-1,-1l1,-2l1,1ZM286.5,562.5l-5,3c1,-1,1,-1,1,-2l4,-2ZM280.5,561.5l-1,-1l-1,2l-1,-1l0,-2l2,1l1,-1l1,1ZM275.5,556.5l1,0c0,0,1,0,1,0c0,0,0,-1,1,-1c1,0,1,0,1,0c0,0,0,-1,0,-1l-1,0c0,0,0,-1,0,-1l0,-1c1,0,1,-1,1,-1c0,1,0,1,0,2c0,0,0,1,1,1c0,0,-1,0,-1,1c0,0,0,1,0,1c0,0,-1,1,-1,1c-1,0,-1,0,-2,0c0,1,0,1,0,1l0,1c0,0,-1,0,-1,1c0,0,0,1,-1,1l-1,1l-1,0c0,0,-1,0,-1,1c-1,0,-2,0,-3,1c-1,0,-2,0,-3,0c-1,0,-1,0,-2,0c-1,0,-1,0,-2,0c-1,0,-1,0,-2,0c-1,0,-1,0,-2,0c-1,0,-2,0,-2,-1c-1,0,-2,0,-3,0c-1,-1,-2,-1,-3,-2c-1,0,-2,-1,-3,-2c0,0,0,-1,0,-1c1,1,1,1,1,1c0,0,1,0,1,0c1,1,1,1,2,1c1,1,1,1,2,1c0,0,1,0,1,0c1,1,2,1,2,1c1,0,2,0,2,0c1,0,2,0,2,0c1,0,1,0,2,0c1,0,1,0,2,0c0,0,1,0,2,0c1,0,2,0,2,0c1,0,2,0,3,-1c1,0,2,0,3,0c1,-1,2,-2,2,-2c0,-1,0,-1,0,-1c0,0,0,-1,0,-1c0,0,-1,0,-1,-1l-1,0l1,-2l1,1ZM263.5,557.5l-2,-1l1,-1l2,1ZM253.5,550.5l3,-1l6,-2l4,-2l1,0l-1,1l-1,0l0,1l-1,0l-2,1l-6,2l-3,1l-1,0ZM324.5,559.5c0,0,-1,0,-2,-1l-1,0c-1,0,-1,0,-1,0l-1,1c-1,0,-1,0,-1,0c-1,0,-1,0,-1,0l-1,0l-2,0c0,1,0,1,0,1c0,1,0,1,0,2c-1,0,-1,0,-1,1c0,0,-1,0,-1,1l-1,0c-1,1,-1,1,-1,1c0,0,-1,0,-1,0c-1,0,-1,0,-2,-1l-1,0l0,-1c1,1,1,1,1,1c0,0,1,0,1,0c0,0,1,0,1,0c1,-1,1,-1,1,-1c1,0,1,-1,1,-1c1,0,1,0,1,0c0,-1,1,-1,1,-1c0,0,0,-1,0,-1c0,-1,0,-1,0,-1c0,0,-1,0,-1,0c0,0,-1,0,-1,0c0,0,0,-1,0,-1c0,-1,0,-1,0,-1c0,0,0,-1,0,-1l0,-1c1,0,1,0,1,0c0,-1,0,-1,1,-1c0,0,0,1,0,1c0,0,1,0,1,0c0,0,0,1,0,1c0,1,0,1,0,2c1,0,1,0,2,0c1,0,1,0,1,0l1,-1c0,0,1,0,1,0c0,0,-1,0,-1,-1c0,0,1,0,1,-1c0,0,0,-1,0,-1l1,-1c0,-1,0,-1,0,-1c0,-1,0,-1,0,-1c0,0,1,0,1,0c0,0,1,1,2,1c0,1,1,1,1,2c0,0,1,1,1,1c0,0,0,1,0,1l0,1c0,0,0,1,0,1c0,1,-1,1,-1,1ZM321.5,554.5c0,0,-1,0,-1,0c0,1,0,1,0,1c-1,0,-1,0,-1,0c0,0,0,1,1,1c1,0,1,0,1,0l0,-1c0,-1,0,-1,0,-1ZM322.5,555.5c0,0,0,1,0,1l0,1l2,0l0,-1l-1,0c0,-1,0,-1,0,-1c0,0,-1,0,-1,0ZM317.5,540.5c0,0,1,-1,1,-1l1,0c0,0,1,0,1,1c0,0,-1,0,-1,1l0,1l1,0l0,1l-2,0c-1,1,-1,1,-1,1l-1,0l-1,0l1,0l0,-1c1,0,1,0,1,0l1,-1l-1,0c0,0,0,-1,0,-1c0,0,0,-1,0,-1ZM318.5,540.5l0,1l1,0c0,0,0,-1,0,-1ZM312.5,556.5c0,1,0,1,0,1c0,0,-1,0,-1,0c0,0,1,0,1,0c0,0,1,1,1,1c0,0,0,-1,0,-1l0,-1c0,0,-1,0,-1,0ZM309.5,550.5l4,-3l0,1c-1,0,-1,0,-1,0l-4,3ZM349.5,550.5l-1,-1l-1,1l-1,-1l1,-1l1,0l1,-1l1,1ZM351.5,557.5c0,0,-1,1,-1,1c-1,1,-1,1,-2,1c-1,0,-1,0,-2,0l-1,0c0,0,-1,0,-1,0c0,0,-1,-1,-1,-2l0,2l0,1c0,0,0,1,0,1c-1,1,-1,1,-1,2c-1,0,-1,0,-1,0c0,1,-1,1,-1,1c-1,0,-1,0,-1,0c-1,0,-1,0,-2,0l-1,0l-1,0c0,0,-1,0,-1,-1c0,0,-1,0,-1,-1l0,-1c0,-1,0,-1,0,-2c0,0,1,-1,1,-1l0,-1l1,0l-1,1c0,0,0,1,0,1c0,0,0,1,0,1c0,1,0,1,1,2c0,0,1,0,2,0c1,0,2,0,3,0c1,-1,2,-1,2,-1c0,0,0,-1,0,-1l0,-1l0,-2c0,0,0,-1,0,-2l0,-1l0,-7l1,-2l0,11l0,1c0,0,1,0,1,0c1,1,1,1,1,1l1,0c1,0,1,0,2,-1c1,0,2,0,2,0c0,-1,0,-1,0,-1l0,-1c0,0,-1,1,-1,1l-1,0l-1,0c0,-1,0,-1,0,-1l0,-1c0,0,0,-1,0,-1c0,-1,0,-1,0,-1c1,-1,1,-1,2,-1l1,0c0,0,0,1,0,1c0,0,0,1,1,1c0,1,0,1,0,1c0,1,0,1,0,2c0,0,0,1,0,1ZM348.5,553.5l0,1c0,0,1,0,1,0c0,-1,0,-1,0,-1c0,0,-1,0,-1,0ZM347.5,540.5c0,0,0,-1,1,-1c1,0,1,0,1,0l0,1l0,1l0,1l0,1l-1,0l-1,0c0,1,0,1,-1,1l-1,0l1,-1l1,0l0,-1c0,0,0,-1,0,-1c0,0,0,-1,0,-1ZM348.5,540.5c0,0,-1,0,-1,0l1,1c0,0,0,-1,0,-1Z" class="g1_49" />
</svg>