<?xml version="1.0" encoding="UTF-8" standalone="no"?>
<!DOCTYPE svg PUBLIC "-//W3C//DTD SVG 1.1//EN"
"http://www.w3.org/Graphics/SVG/1.1/DTD/svg11.dtd">
<svg version="1.1" xmlns="http://www.w3.org/2000/svg" xmlns:xlink="http://www.w3.org/1999/xlink">
<defs>
<style type="text/css"><![CDATA[
.g1_21{
stroke: #1F1A17;
stroke-width: 1;
stroke-linecap: butt;
stroke-linejoin: miter;
}
]]></style>
</defs>
<path fill-rule="evenodd" d="M132.5,49.5l4,-2l0,1l-4,2ZM69.5,54.5c0,0,1,0,1,-1c0,0,1,0,1,0c1,0,1,0,2,0c0,1,0,1,0,1c0,1,0,1,0,1c-1,1,-1,1,-1,1c-1,0,-1,0,-1,0c0,0,-1,0,-1,0c0,0,-1,0,-1,0l2,0c1,-1,1,-1,1,-1c-1,-1,-1,-1,-1,-1c-1,0,-1,1,-1,1c-1,0,-1,0,-1,0c0,0,0,-1,0,-1ZM357.5,57.5l0,-1c1,0,1,0,1,0c0,0,0,-1,0,-1l0,-1l0,-1l0,-1l0,-1c0,0,0,-1,0,-1l1,1c-1,0,-1,0,-1,1l0,1l1,0l0,1l0,1l-1,0l1,0l1,-1l1,0c0,0,1,0,1,0l0,1c0,0,0,1,0,1c-1,0,-1,0,-1,0c0,1,-1,1,-1,1c-1,0,-1,0,-1,0ZM361.5,55.5c-1,0,-1,0,-1,0l-1,0l0,1l-1,0l1,0l1,0c1,0,1,0,2,-1l-1,0ZM140.5,61.5l0,-1c0,0,1,0,1,0c0,0,0,-1,0,-1l0,-1l0,-1l0,-1l0,-1c0,0,0,-1,0,-1l1,1l-1,0l0,1l0,1l0,1l0,1l1,0l0,-1l1,0l1,0l1,0l0,1c0,0,0,1,0,1l-1,0c0,1,-1,1,-1,1c-1,0,-1,0,-1,0ZM143.5,59.5l-1,0l0,1l-1,0l1,0l1,0c1,0,1,0,2,-1l-1,0ZM393.5,54.5c0,-1,0,-1,0,-2c-1,0,-1,-1,-1,-1l0,-1l1,0l0,1l0,1c0,1,0,1,0,1l0,1ZM49.5,63.5c0,1,0,2,-1,2c0,0,0,1,0,1l0,1c-1,0,-1,0,-1,0l1,0l0,1l-1,0l0,1l-1,0l0,1c0,0,-1,0,-1,1l-1,0l-1,0l-1,0l0,1l-1,0l0,1l-1,0c0,0,0,1,0,1l-1,0l-1,0l-3,0l-1,0l0,-1l-1,-1c0,0,0,-1,-1,-1c-1,0,-2,0,-2,0l-1,-1l-1,0l0,-1l-1,0l0,-1l-1,0l0,-1l1,0l0,-1l-1,0l0,-1l0,-1l0,-1l0,-1c0,-1,0,-1,0,-2l1,0l0,-1l-1,0c0,-1,0,-1,0,-1l1,0l0,-1l1,0l0,-1l1,0l2,-1l1,0l1,0l0,-1l1,-1l0,-1l1,0l3,0l1,0l1,0l0,1l1,1l1,0l0,1l2,0l0,1l1,0l1,0l0,1l1,0c1,1,1,1,1,1l0,1l-1,0l1,0l0,1l0,1l1,0l0,1ZM40.5,73.5l1,-1l1,-1c0,0,1,0,1,0l1,0l0,-1c1,0,1,0,2,0l0,-1c0,0,1,0,1,0l0,-1l1,0l-1,-1l0,-1l1,0l0,-1l0,-1l0,-1c0,-1,0,-2,0,-2l0,-1c0,0,-1,0,-1,-1l1,-1c0,0,-1,0,-1,-1l-1,0l-1,-1l-2,0l-1,-1c0,0,-1,0,-1,0l-1,-1l0,-1l-1,0l-1,0l-3,0l-1,0l0,1l-1,1l-1,0l-1,1l-1,0l-1,0l0,1l-1,0c-1,1,-1,1,-2,1l1,1l0,1l-1,0l0,1l0,1c0,0,0,1,0,1l0,1l0,1l0,1c1,0,1,0,1,0l0,1l1,0c0,0,-1,0,-1,0l-1,1l1,0l1,1l1,1l1,0l1,1l1,0c1,0,1,0,1,1l1,0l0,1c0,0,1,0,1,0l3,0l1,0ZM45.5,58.5l0,1l-1,-1l-1,-1c0,0,-1,0,-1,0l0,-1l1,0l0,1c1,0,1,0,1,0c0,0,1,0,1,0l0,1ZM45.5,68.5l0,1l-1,0l0,1l-1,0l-1,0c0,-1,0,-1,0,-1c0,0,1,0,1,0l1,0c0,-1,1,-1,1,-1ZM41.5,70.5c0,0,0,1,0,1c-1,0,-1,0,-1,0l-1,0l-1,0l-3,0l-1,0c0,0,-1,0,-1,0c0,-1,0,-1,0,-1c0,0,0,-1,1,-1l1,0l3,0l1,0l1,0l1,0l0,1ZM41.5,56.5c0,0,0,1,0,1c0,0,-1,0,-1,0l-1,0l-1,0l-3,0l-1,0l-1,0l0,-1c0,0,0,-1,1,-1l1,0l3,0l1,0l1,0l1,0l0,1ZM40.5,59.5l0,-1c1,0,1,0,1,0c1,0,1,0,2,1l1,1l1,-1c0,0,0,1,1,1l0,1l0,1l0,1l0,1l0,1c0,1,0,1,0,1c-1,0,-1,1,-1,1l-1,-1c0,0,0,1,0,1l-1,0l0,1l-1,0l-1,0c-1,0,-1,0,-1,-1l-1,0l-1,0l-3,0l-1,0l0,1l-1,0c-1,0,-1,0,-1,0c-1,0,-1,-1,-1,-1l-1,0l0,-1l-1,1l0,-1l-1,-1l0,-1l0,-1c0,0,0,-1,0,-1l0,-1l0,-1l1,0c0,0,0,-1,0,-1l1,1c0,0,1,0,1,-1l1,0c0,-1,0,-1,1,-1c0,0,1,0,1,0l0,1l1,0l3,0l1,0ZM40.5,67.5c1,1,1,1,1,1l1,0c0,0,0,-1,0,-1l1,0l1,-1l1,0l1,-1l0,-1l0,-1c0,0,0,-1,0,-2l-1,-1l-1,0l-1,-1l-1,0l0,-1l-1,0l-1,1l-1,0l-5,0l-1,-1c0,0,-1,0,-1,1l-1,0l0,1c0,0,-1,0,-1,0l-1,0l0,1l-1,1l0,1c0,1,0,1,0,1l0,1l1,0c0,1,0,1,0,1l1,0c0,0,1,0,1,1l1,0l0,1l1,0c0,0,1,0,1,0c0,-1,0,-1,0,-1l1,0l3,0l1,0l1,0ZM39.5,65.5l-1,0l1,-1ZM36.5,63.5l0,1l0,1c0,0,0,1,0,1c0,0,0,-1,0,-1c0,-1,-1,-2,-1,-3l0,-1l0,1l1,0l1,0l0,-1c0,0,0,1,0,1c1,0,1,0,1,0c0,-1,0,-1,0,-1c0,1,0,1,0,1c0,0,0,1,-1,1c0,0,0,-1,0,-1c0,1,-1,1,-1,1ZM29.5,58.5l1,-1l1,0l0,-1l1,0l0,1l-1,0l0,1l-1,0l0,1l-1,-1ZM29.5,68.5l1,0l1,1l1,0l0,1l-1,0c0,0,-1,-1,-1,-1l-1,0l0,-1ZM103.5,69.5l-2,-1l-1,1l-1,-1l1,-1l1,1l1,-2l2,1ZM100.5,66.5l-1,0l-2,0l0,1l0,1c-1,0,-1,1,-1,1c0,0,-1,1,-1,1c0,0,-1,0,-1,0c0,1,0,1,-1,1c-1,0,-1,0,-1,0c-1,0,-1,0,-2,0c0,0,-1,-1,-1,-1c0,0,1,0,1,0l1,0c0,0,1,0,1,0c0,0,1,0,1,-1c1,0,1,0,1,0c0,-1,1,-1,1,-1c0,0,0,-1,1,-1l0,-1c-1,0,-1,0,-1,0l0,-1c-1,0,-1,0,-1,0l-1,-1c0,-1,0,-1,0,-1c1,0,1,0,1,-1c0,-1,0,-1,1,-1c1,0,1,0,1,0l1,1c0,0,0,1,0,1c0,0,0,1,0,1c1,0,1,0,1,0c0,0,1,0,1,0l1,0c0,0,1,0,1,0c1,0,1,-1,1,-1c0,0,0,-1,0,-1c0,0,0,-1,0,-1l0,-2c0,0,1,1,1,1l0,1l0,1c0,1,0,1,0,1c0,1,0,1,0,1l0,1c-1,0,-1,0,-2,0c0,1,-1,1,-1,1ZM102.5,50.5c0,-1,0,-1,0,-1c1,0,1,0,1,0c1,0,1,0,1,0l0,1l0,1l0,1l0,1l-1,-1l0,1l-1,0c0,1,-1,1,-1,1l-1,0l1,-1l1,0l0,-1c0,-1,0,-1,0,-1l0,-1ZM103.5,50.5c-1,0,-1,0,-1,0l1,1l0,-1ZM93.5,57.5c0,0,0,-1,0,-1c1,0,1,0,1,-1c1,0,1,0,1,0c0,0,1,0,1,0c0,0,0,1,0,1l0,1l-1,0l0,-1c-1,0,-1,0,-1,1c0,0,0,1,1,1l1,0c0,0,1,0,1,0l-1,0l-3,2c0,0,0,-1,0,-1l1,0c-1,-1,-1,-1,-1,-2ZM95.5,63.5c0,0,-1,0,-1,0l0,1c1,0,1,0,1,0l1,0l0,-1c-1,0,-1,0,-1,0ZM91.5,51.5l1,0c0,0,1,0,1,0c1,0,1,0,1,0c1,0,1,0,1,0c0,1,0,1,0,1l-1,1c0,0,-1,0,-1,0l0,1c0,0,-1,0,-1,0l-1,0l2,-1c0,0,1,0,1,-1l-1,0c-1,0,-1,0,-2,0l-1,0c0,0,1,0,1,0c0,-1,0,-1,0,-1ZM88.5,65.5c0,0,-1,0,-1,0l-1,0l-1,0l-1,-1c0,1,0,1,0,1l-1,1l-1,0l-1,0c0,0,-1,0,-1,0c0,-1,0,-1,0,-1c-1,0,-1,0,-1,0c0,0,0,-1,0,-1l-1,0c0,1,0,1,0,1c-1,0,-1,0,-1,0c-1,1,-1,1,-2,1l-2,0l0,1l0,1c-1,0,-1,1,-1,1c0,0,-1,1,-1,1l-1,0c0,1,0,1,0,1c-1,0,-1,0,-1,0c0,0,-1,0,-1,0c-1,0,-1,0,-2,0c0,0,0,-1,-1,-1c1,0,1,0,1,0c0,0,1,0,1,0c0,0,1,0,1,0c1,0,1,0,1,-1c1,0,1,0,1,0c1,-1,1,-1,1,-1c0,0,1,-1,1,-1l0,-1c0,0,-1,0,-1,0l0,-1c0,0,-1,0,-1,0l0,-1c0,-1,0,-1,0,-1l0,-1c0,-1,1,-1,1,-1l1,0c0,0,1,0,1,1c0,0,0,1,0,1c0,0,0,1,0,1c1,0,1,0,2,0c1,0,1,0,1,0c1,0,1,0,2,-1c1,0,1,0,1,0c0,0,1,0,1,0c0,0,0,1,0,1c0,0,1,0,1,0l1,0l1,0c0,0,1,0,1,0l0,-1l1,-1c0,0,0,-1,1,-1c0,-1,1,-1,1,-1l1,1c0,0,0,1,0,1l0,1l0,1c0,1,0,1,0,1ZM86.5,63.5l1,0c0,0,0,-1,0,-1l-1,0l0,1ZM87.5,69.5l-4,2c0,-1,0,-1,0,-1l4,-2ZM78.5,61.5l-1,-1l0,-1l2,1ZM78.5,50.5c0,-1,0,-1,1,-1l1,0l0,1l0,1l0,1l0,1l-1,-1l0,1l-1,0c0,1,0,1,-1,1l-1,0l1,-1c0,0,1,0,1,0l0,-1l1,0l-1,0c0,-1,0,-1,0,-1l0,-1ZM79.5,50.5l0,1l0,-1ZM71.5,63.5c0,0,-1,0,-1,0c0,0,1,0,1,1c0,0,1,0,1,0l0,-1c0,0,-1,0,-1,0ZM60.5,59.5l-1,-1l1,-1l1,1ZM60.5,69.5c-1,0,-1,0,-2,0c0,-1,-1,-1,-1,-1c-1,0,-1,-1,-1,-1c0,-1,-1,-1,-1,-2c0,0,0,-1,1,-1l0,-1c0,0,0,-1,0,-1l1,0c0,-1,0,-1,0,-1c0,1,0,1,0,1c0,0,0,1,0,1c-1,0,-1,0,-1,0c0,1,0,1,0,1c0,1,0,1,1,1c0,1,0,1,0,1c1,0,1,0,1,0c0,0,0,1,0,1c1,0,1,0,2,0c1,0,2,0,2,-1c1,0,2,0,2,-1c0,0,0,-1,0,-1c0,0,0,-1,0,-1c0,-1,0,-1,0,-1c0,0,0,-1,0,-1c0,0,-1,0,-1,-1l1,-2l0,1c0,0,1,1,1,1l0,1c0,1,0,1,0,1c0,0,0,1,0,1l0,1c0,0,0,1,0,2c0,0,-1,1,-1,1c-1,1,-1,1,-2,1c-1,1,-2,1,-2,1ZM56.5,53.5l4,-3l0,1l0,1l-4,2ZM128.5,56.5l-2,-1l1,-1l1,0ZM130.5,64.5c0,0,-1,1,-1,1c0,0,-1,0,-2,0c0,1,-1,1,-1,1l-1,0l-1,0c-1,0,-1,-1,-2,-1c0,0,0,-1,0,-2c0,0,0,-1,0,-1c-1,-1,-1,-1,-1,-1c0,1,0,1,0,1c0,1,0,1,0,1c0,0,-1,1,-1,1l0,1l-1,0c0,1,0,1,-1,1l-1,1c0,0,-1,0,-2,0c0,0,-1,0,-2,0l1,0l1,-1l1,0c0,0,1,-1,1,-1c1,0,1,0,1,-1c1,0,1,0,1,-1c0,-1,-1,-1,-1,-1c0,0,0,-1,-1,-1c0,-1,0,-1,0,-1c-1,0,-1,-1,-1,-1c-1,0,-1,-1,-1,-1c-1,0,-1,0,-1,0c0,0,-1,0,-1,0l-1,-1c0,-1,0,-1,0,-1c0,-1,0,-1,0,-2c1,0,2,1,2,1c1,1,1,1,2,2c0,0,1,1,1,1c1,1,1,2,2,2c0,1,0,1,0,2c0,0,1,0,1,1c0,0,0,-1,0,-1l0,-1c1,0,1,-1,1,-1c0,-1,0,-1,0,-2l0,-3l1,-3l1,10c0,1,0,1,0,1c0,1,1,1,1,1l1,0l1,0c0,0,1,0,1,0c1,0,2,-1,2,-1l1,0c0,0,0,-1,0,-1c-1,0,-1,-1,-1,-1c0,0,0,1,0,1l-1,0c-1,0,-1,0,-1,0l-1,0l0,-1c0,-1,0,-1,0,-2c1,-1,1,-1,1,-1c0,-1,1,-1,1,-1c0,0,1,0,1,1l1,1l0,1l0,1c0,0,0,1,0,1c0,1,0,1,0,1c0,0,0,1,0,1ZM127.5,59.5l0,1l1,0c0,0,1,0,1,0l-1,0l0,-1l-1,0ZM126.5,49.5l4,-2l0,1l-4,2ZM117.5,50.5l6,-3c-1,1,-1,1,-1,1l-5,3ZM168.5,64.5l-1,0l-1,0l-1,0l-2,0l-1,0l-1,0l-1,1c-1,0,-1,0,-1,0l-1,0l0,1c1,0,1,1,2,1l1,0l0,1c0,1,0,1,0,1c0,1,0,1,-1,1c0,1,-1,1,-2,1c-2,1,-3,1,-4,1c-1,0,-1,0,-1,0l-1,0l0,1l-5,2l1,-1l4,-2c-1,0,-2,-1,-2,-1c0,0,-1,-1,-1,-1c0,-1,0,-2,0,-2l0,-1l0,-1c1,-1,1,-1,1,-2c0,0,1,0,1,0c0,0,-1,1,-1,2c0,0,0,1,0,1c0,1,0,2,1,2c1,1,2,1,3,1c1,0,1,0,1,0c0,0,1,0,1,0l1,0c1,0,1,0,1,-1c1,0,1,0,1,0l1,0c0,-1,-1,-1,-1,-1c-1,0,-2,0,-2,0c0,-1,-1,-1,-1,-1c0,-1,0,-1,0,-1c1,-1,1,-1,1,-1c0,-1,1,-1,1,-1c0,0,1,0,1,0c1,0,1,0,1,-1l1,0l1,0l1,0c-1,0,-2,-1,-2,-1c-1,0,-1,0,-1,0c0,0,-1,0,-1,0c-1,0,-1,0,-1,0l0,-1c0,0,1,-1,1,-1l1,0l1,0l1,1l2,0l1,1l1,0l1,0l1,0l1,0ZM161.5,53.5l4,-3l0,1l0,1l-4,2ZM153.5,54.5l0,1l1,0l0,-1c0,0,1,1,1,1c0,0,0,-1,0,-1l1,-1l0,1l0,1c0,0,0,1,-1,1c0,0,-1,0,-1,0l0,-1l0,1c0,0,-1,1,-1,1c0,0,0,-1,-1,-1l0,-1l0,-1ZM152.5,75.5l-5,2l1,-1l5,-2c0,0,-1,1,-1,1ZM200.5,57.5l-2,-1l1,-2l2,1ZM202.5,59.5l-2,-1l-1,1l-1,0l1,-2l1,1l1,-1l1,1ZM202.5,63.5l0,-1l1,-1l0,1l0,1c0,0,1,0,1,0l0,1c1,0,1,0,1,0l0,-1c0,-1,-1,-1,-1,-1l1,-1l0,1l1,0l0,1l0,1l-1,0l0,1c0,1,-1,1,-1,1c0,0,-1,-1,-1,-1c-1,0,-1,0,-1,0l-1,0c0,1,-1,1,-1,1l-1,0c-1,0,-1,0,-1,-1c0,0,-1,0,-1,0c0,-1,0,-1,0,-1c-1,0,-1,0,-2,1c0,0,-1,0,-1,1l1,0c0,0,0,1,1,1c1,0,1,0,1,0c0,0,1,0,1,0l0,1c0,1,0,1,-1,1c0,1,0,1,0,1c-1,1,-2,1,-3,1c-1,1,-2,1,-4,1c-1,0,-1,0,-2,0c-1,0,-1,-1,-2,-1c0,0,0,-1,0,-1c-1,-1,-1,-2,-1,-2l0,-1l1,-1c0,-1,0,-1,1,-2c0,0,0,1,0,2c-1,0,-1,1,-1,1c0,1,1,2,1,2c1,1,2,1,3,1l1,0c1,0,1,0,1,0c0,0,1,0,1,0c0,0,1,0,1,0l1,-1c1,0,1,0,1,0c0,0,1,0,1,0c-1,-1,-1,-1,-2,-1c-1,0,-2,0,-2,0c0,-1,0,-1,0,-1c0,-1,0,-1,0,-1c0,-1,0,-2,1,-2c0,-1,1,-1,1,-1c1,0,1,-1,1,-1c0,0,1,0,1,0c0,0,1,0,1,0l0,1l1,0c0,1,0,1,0,1c0,0,1,0,1,0c1,0,1,0,1,0c0,0,0,-1,1,-1ZM197.5,49.5l5,-2l-1,1l-4,2ZM188.5,55.5c1,0,1,-1,1,-1c1,0,1,0,2,0c0,0,1,0,1,0c0,1,1,1,1,1c-1,1,-1,1,-1,1c0,0,0,1,-1,1l-1,0l-1,0l1,0c1,-1,1,-1,2,-1c0,0,-1,0,-1,-1c0,0,-1,0,-1,0c0,0,-1,0,-1,1c0,0,-1,0,-1,0c0,-1,0,-1,0,-1ZM178.5,63.5c0,0,1,0,1,0c0,-1,0,-1,1,-1c0,-1,0,-1,0,-1l1,0l1,0c0,0,0,1,0,1l0,1l-1,0l-1,0c0,0,-1,0,-1,0l1,1l1,0c1,0,1,0,2,0c0,0,0,1,0,1c0,0,-1,0,-1,0l-4,2c0,0,0,-1,0,-1l1,0l0,-1c-1,-1,-1,-1,-1,-1c0,0,0,-1,0,-1ZM183.5,70.5l-5,2l0,-1l5,-3c0,1,0,2,0,2ZM178.5,70.5l0,-1l5,-3c0,1,0,1,0,2ZM234.5,53.5l-1,0c-2,1,-3,1,-4,2c-2,1,-3,1,-3,1c0,0,0,1,-1,1c0,0,1,0,1,0l2,1c0,1,1,1,2,2c0,0,0,1,0,1c0,1,0,1,0,2c0,0,0,1,0,1l0,1c-1,0,-1,0,-1,0c-1,0,-1,0,-1,0c0,1,-1,1,-2,1c-1,0,-1,0,-2,-1l0,-1l0,1l0,1c0,1,-1,1,-1,2c0,0,0,1,-1,1c0,0,0,1,-1,1l-1,0c0,0,0,1,-1,1c0,0,-1,0,-1,0l-1,0c-1,0,-1,0,-1,0c-1,-1,-1,-1,-1,-1c-1,-1,-1,-1,-1,-1c0,-1,0,-1,0,-1c0,-1,0,-2,0,-2c0,-1,0,-1,0,-2l1,0l0,-1l0,1c0,1,0,1,0,1c0,1,-1,1,-1,1c0,1,1,2,1,2c1,0,1,1,2,1c0,0,1,0,1,0c1,0,2,0,3,-1c1,0,1,-1,2,-1c0,-1,0,-1,0,-1l0,-3c0,0,0,-1,0,-1c0,-1,0,-1,0,-2l-1,-6l1,-2l1,10c0,0,0,1,0,1c0,0,1,1,1,1l1,0l1,0c1,0,1,0,1,0c0,0,1,0,1,0c0,-1,1,-1,1,-1c0,-1,0,-1,0,-1c-1,-1,-1,-1,-2,-2c0,0,-1,0,-1,0c0,0,0,-1,-1,-1l-1,0c0,0,0,-1,0,-1l0,-1l0,-1c0,0,0,-1,0,-1c1,0,1,0,1,0c0,0,2,-1,3,-2c1,0,3,-1,4,-1c1,0,2,-1,2,-1ZM229.5,46.5c0,0,1,0,1,0c0,-1,0,-1,1,-1c0,0,0,1,0,1c0,0,0,1,0,1c0,1,0,1,0,1l1,0l-1,2l-1,-1l0,1c-1,0,-1,0,-1,1l-1,0l-1,0l1,-1c1,0,1,0,1,-1l1,0l0,-1l-1,0l0,-1l0,-1ZM230.5,47.5l0,-1l0,1l1,1l0,-1l-1,0ZM215.5,51.5l0,1c1,0,1,0,1,0l0,-1l1,0l0,1c1,0,1,-1,1,-1l0,-1l0,1l0,1c0,0,0,1,0,1l-1,0l-1,-1l0,1l-1,0l0,-1l0,-1ZM219.5,48.5l-6,3c1,-1,1,-1,1,-1l6,-3ZM273.5,66.5l0,-1l0,-2l-1,-8l1,-3l1,11c0,0,0,1,0,1c-1,1,-1,1,-1,2ZM265.5,64.5c1,0,1,0,1,0c1,0,1,0,1,0c0,0,1,0,1,-1l0,-2l-1,-7c0,-1,0,-1,0,-1c1,-1,1,-1,1,-1c0,1,0,1,0,1c0,0,1,0,1,0c0,1,0,1,0,2l-1,0c0,1,0,1,1,2c0,0,0,1,0,3c0,0,0,1,0,1l0,1c0,0,0,1,0,1c0,1,0,1,-1,1l0,1c0,0,-1,0,-1,0l-1,1l-1,0l-1,0c0,0,-1,-1,-1,-1l-1,0c0,0,0,1,-1,1c0,0,-1,0,-1,0l-1,-1l-2,-1l-1,1c0,0,0,1,-1,1l-1,0l-1,0c-1,0,-2,-1,-2,-1c-1,0,-1,-1,-1,-2l-1,-8l1,-3l1,10l0,1c0,1,1,1,2,1l1,0l1,0c1,0,1,0,1,0l1,-1l0,-1c1,-1,2,-1,3,-1l1,1l1,1l1,0c0,1,0,1,0,1l1,0l1,0ZM265.5,48.5c1,-1,1,-1,1,-1c1,0,1,0,2,0c0,0,1,0,1,0c0,0,1,1,1,1c-1,1,-1,1,-1,1c0,0,0,1,-1,1c-1,0,-1,0,-1,0l-1,0l1,-1c1,0,1,0,2,0c0,-1,-1,-1,-1,-1l-1,0c0,0,-1,0,-1,0c0,1,0,1,-1,1c0,-1,0,-1,0,-1ZM261.5,64.5l0,-1c-1,0,-1,-1,-1,-1l-1,0l-1,1c1,0,1,0,2,1ZM257.5,53.5l4,-3l0,1l0,1l-4,2ZM247.5,50.5l1,0c0,0,1,0,2,0c0,0,1,0,1,0l1,0l1,0c-1,0,-1,0,-2,1l-1,0l-1,0l-1,0l-1,0l-1,0c1,-1,1,-1,1,-1ZM242.5,63.5c0,-1,1,-1,1,-1c0,-1,0,-1,0,-1l1,0l1,0c0,0,0,1,0,1l0,1l-1,0l-1,0l-1,0l1,1l1,0l1,0c0,0,1,0,1,0c0,0,0,1,0,1l-1,0l-4,2c0,0,0,-1,0,-1l1,0l0,-1l1,0c-1,0,-1,0,-1,0c0,-1,-1,-1,-1,-1c0,0,0,-1,1,-1ZM245.5,69.5l-4,2c0,-1,0,-1,0,-1l4,-2ZM299.5,65.5c0,0,-1,0,-1,0l-1,0l-1,-1l-1,0c0,1,0,1,0,1l-1,1l-1,0l-2,0l0,1c0,1,0,2,0,2c0,1,-1,1,-1,2c-1,0,-1,1,-2,1c-1,0,-2,1,-2,1c-1,0,-2,0,-2,-1c-1,0,-1,0,-2,0c0,-1,0,-1,-1,-2c0,0,0,-1,0,-1c0,-1,0,-1,0,-1c0,-1,0,-1,0,-1c0,-1,0,-1,1,-1c0,-1,0,-1,0,-1l1,0c0,0,-1,1,-1,1l0,1c0,0,0,1,0,1c0,0,0,1,0,1c0,0,0,1,1,1c0,0,1,0,1,0c0,1,1,1,2,1c1,0,1,0,2,-1c1,0,2,0,2,-1c1,0,1,-1,1,-1c0,-1,0,-1,0,-1c0,0,-1,0,-1,0c0,-1,0,-1,0,-1l0,-1l0,-2c1,0,1,0,1,0c0,1,0,1,1,1l1,0l1,0c0,0,1,0,1,0l0,-1l1,-1c0,0,0,-1,1,-1c0,-1,1,-1,1,-1c0,0,1,0,1,1c0,0,0,1,0,1l0,1l1,0l0,1l-1,0c0,1,0,1,0,1ZM297.5,63.5l1,0c0,0,0,-1,0,-1l-1,0l0,1ZM298.5,69.5l-4,2c0,-1,0,-1,0,-1l4,-2ZM286.5,63.5l-1,-1l1,-1l1,1ZM285.5,56.5l4,-2c0,1,0,1,0,1l-4,2ZM350.5,62.5l-1,0c0,1,1,1,1,1c1,0,1,-1,1,-1l-1,0ZM350.5,69.5c0,1,0,1,-1,1c-1,0,-1,0,-2,0c-1,0,-1,0,-2,0l-1,0c0,0,0,-1,0,-1c1,0,1,0,1,0c0,0,1,1,1,1l1,0c0,-1,0,-1,0,-1c0,0,1,0,1,0c1,-1,1,-1,2,-1c0,0,0,-1,0,-1c0,0,1,0,1,-1c0,-1,0,-1,0,-1c0,-1,0,-1,0,-1c0,1,0,1,0,1l-1,0l-1,0c0,-1,0,-1,0,-1c0,0,-1,0,-1,0c0,0,0,-1,0,-1l0,-1c1,-1,1,-1,1,-1c0,-1,0,-1,1,-1c1,0,1,0,1,0l1,1c0,1,0,1,0,2l0,1c0,1,0,1,0,1c0,1,0,2,-1,2c0,1,0,1,0,1c0,1,-1,1,-1,1ZM347.5,56.5l4,-2c0,1,0,1,0,1l-4,2ZM336.5,69.5l-1,-1l1,-1l1,1ZM344.5,63.5l-1,0l-1,0c-1,0,-1,0,-2,0l-1,0l-1,0l0,1l-1,0c-1,0,-1,1,-2,1l-1,0c0,0,-1,1,-2,1l-1,0c0,0,-1,0,-1,-1c0,0,-1,0,-1,0c0,0,-1,0,-1,-1c-1,0,-1,0,-1,0l-1,1c-1,0,-1,0,-1,0l-1,1l-1,0c0,0,-1,0,-1,-1c-1,0,-1,-1,-1,-2c0,1,-1,2,-1,2l-1,1l-1,0c-1,-1,-1,-1,-1,-1c-1,0,-1,0,-1,0c0,-1,0,-1,0,-1c0,1,0,1,-1,1c0,0,-1,1,-1,1l-1,0l-1,0c-1,0,-2,-1,-2,-1c-1,0,-1,-1,-1,-2l0,-8l0,-3l1,10l0,1c1,1,1,1,2,1l1,0l1,0c1,0,1,0,1,-1c0,0,1,0,1,0c0,0,0,-1,0,-1l1,0l0,1c0,0,-1,0,-1,0c1,0,1,1,1,1c1,0,1,0,1,0l1,0c1,0,1,-1,1,-1c0,0,1,0,1,0c0,-1,0,-1,0,-1c0,0,0,-1,0,-1l0,-1l-1,-6l1,-2l1,10c0,1,0,1,0,1c0,1,0,1,0,1c1,0,1,0,1,0l1,0c0,0,1,0,1,0l1,-1l1,0l-1,0l0,-1c0,0,-1,0,-1,0l-1,0l1,-2c0,0,1,0,1,0c1,0,1,0,1,0l1,0l1,0c0,0,1,0,1,0c0,1,0,1,0,1c0,0,0,1,0,1l-1,0l0,1c0,0,0,1,0,1l1,0l1,0l1,0c0,0,1,0,1,0c0,0,1,0,2,0c0,-1,0,-1,1,-1l1,0l1,-1l-1,0l-1,-1l-1,0l-1,0l-1,0c0,0,0,-1,0,-1c1,0,1,0,1,0c0,-1,1,-1,1,-1l1,0l0,1l1,0l2,1l1,0l1,0l1,0c0,0,1,1,1,1l1,0ZM335.5,53.5l4,-3l0,1l0,1l-5,2ZM327.5,53.5l4,-3l-1,1l0,1l-4,2ZM319.5,44.5l1,0c0,0,1,0,1,0c1,0,1,0,2,0l0,1l-1,1l-1,0c0,0,-1,0,-1,0c-1,0,-1,0,-1,0l2,0c0,0,1,-1,1,-1c-1,0,-1,0,-1,0c-1,0,-1,0,-2,0l0,-1ZM315.5,61.5l-1,-1l1,-1l1,1ZM312.5,53.5l5,-2l-1,0l0,1l-4,2ZM425.5,56.5l-1,-1l1,-1l1,0ZM428.5,64.5l-1,0c0,0,0,1,0,1c-1,0,-1,0,-2,0c-1,1,-1,1,-2,1l-1,0l-1,0c-1,0,-2,0,-2,-1c-1,0,-1,0,-1,0c-1,0,-1,0,-2,0c-1,1,-1,1,-2,1l-1,0c-1,0,-1,0,-1,0c-1,-1,-1,-1,-1,-1c-1,-1,-1,-1,-1,-1c0,1,0,1,-1,1l0,1c-1,0,-1,0,-1,0l-1,0l-1,0l-1,0c-1,0,-1,0,-2,-1c0,0,-1,0,-1,0c0,0,-1,0,-2,0c0,1,-1,1,-1,1l-1,0c-1,0,-1,0,-1,0c-1,-1,-1,-1,-1,-1c0,-1,-1,-1,-1,-1c0,1,0,1,-1,1c0,0,-1,1,-1,1l-1,0l0,-2l1,0l1,0l1,-1c0,0,0,-1,0,-1l1,0l0,1c0,0,0,1,1,1l1,0l1,0c1,0,1,0,1,0c0,0,1,0,1,0c0,-1,0,-1,-1,-1c0,0,0,-1,0,-1c0,0,0,-1,1,-1c0,-1,0,-1,0,-1c1,0,1,-1,1,-1c0,0,1,-1,2,-1c0,0,0,1,1,1c0,0,0,1,0,1l0,1c0,1,0,1,0,2c-1,0,-1,0,-1,1c1,0,1,0,1,0c0,0,1,0,1,0l1,0l1,0l1,0l1,-1c0,0,0,-1,0,-1l1,0l0,1l1,1l1,0l1,0c0,0,1,0,1,0l1,0c0,-1,0,-1,0,-1l0,-1l0,-1c1,-1,1,-1,1,-1c0,0,0,-1,1,-1c0,0,1,-1,1,-1c1,0,1,1,1,1c0,0,0,1,1,1l0,1c0,1,-1,1,-1,1c0,0,0,1,0,1l0,1l1,0l1,0l1,0c1,0,2,0,2,0c1,0,2,-1,2,-1c0,0,0,-1,0,-1c0,0,0,-1,0,-1c0,0,0,1,0,1l-1,0l-1,0c-1,0,-1,0,-1,0l0,-1c0,-1,0,-1,0,-2c0,-1,0,-1,1,-1c0,-1,0,-1,1,-1l1,1l0,1l1,0l0,1l0,1c0,0,0,1,0,1c0,1,0,1,0,1c0,0,0,1,0,1ZM425.5,59.5l0,1l1,0l0,-1c0,0,-1,0,-1,0ZM424.5,49.5l4,-2l0,1c0,0,-1,0,-1,0l-4,2ZM418.5,58.5l-1,-1l1,-2l1,1ZM419.5,60.5c-1,0,-1,0,-1,1c-1,0,-1,0,-1,0l0,1c0,0,1,1,1,1c1,0,1,-1,1,-1c0,0,1,0,1,0c0,-1,0,-1,-1,-1c0,-1,0,-1,0,-1ZM417.5,49.5l4,-2l0,1l-4,2ZM411.5,60.5l-1,-1l-1,1l-1,-1l1,-1l1,0l1,-1l1,1ZM408.5,53.5l5,-3l-1,1l0,1l-4,2ZM404.5,57.5l-2,-1l-1,2l-1,-1l1,-2l1,1l1,-1l1,1ZM403.5,60.5c0,0,-1,0,-1,1c0,0,-1,0,-1,0l0,1l1,0c0,0,0,1,0,1c1,0,1,-1,2,-1c0,-1,0,-1,0,-1c0,-1,-1,-1,-1,-1ZM398.5,48.5c0,-1,1,-1,1,-1c1,0,1,0,1,0c1,0,1,0,2,0c0,0,0,1,0,1c0,1,0,1,0,1c0,0,-1,1,-1,1l-1,0l-1,0l-1,0l2,-1c1,0,1,0,2,0c-1,-1,-1,-1,-1,-1c0,0,-1,0,-1,0c0,0,-1,0,-1,0c0,1,-1,1,-1,1c0,-1,0,-1,0,-1ZM395.5,61.5l-2,-1l1,-1l2,1ZM391.5,66.5c0,0,-1,0,-1,0l-1,0c0,0,0,1,1,1c0,0,0,1,0,1c0,0,-1,1,-1,2c0,0,-1,1,-1,1c-1,0,-1,0,-1,-1c-1,0,-1,0,-1,-1c-1,-1,-1,-2,-1,-3l-1,0l-1,0l-1,0l-1,0c0,0,0,-1,-1,-1l-1,0c0,0,0,1,-1,1c0,0,-1,0,-1,0l-1,-1l-1,-1l-1,1c-1,0,-1,1,-1,1l-1,0l-1,0l-1,0c-1,0,-2,-1,-2,-1c-1,0,-1,-1,-1,-2l0,-8l1,-3l0,10l0,1c1,1,1,1,2,1l1,0l1,0l1,0l1,-1l1,-1c1,-1,2,-1,2,-1l1,1l1,0l0,1l1,0c0,1,0,1,1,1l1,0l1,0l1,0l1,0c0,-1,1,-1,1,-2c0,-1,0,-1,0,-1c0,0,1,0,1,0c1,-2,1,-2,2,-2l0,1l0,1c0,1,0,1,0,1c0,1,-1,2,-2,2l1,0l1,0l1,0l1,0l1,0l0,2ZM388.5,61.5c-1,0,-1,0,-1,0l-1,1l0,1c1,0,2,0,2,0c1,-1,1,-1,1,-2c-1,0,-1,0,-1,0ZM386.5,66.5c0,0,0,1,0,1c0,1,0,1,1,1l0,1c0,0,1,0,1,0c0,0,1,0,1,0c0,-1,0,-1,0,-1c0,0,0,-1,-1,-1c-1,-1,-1,-1,-2,-1ZM387.5,50.5c1,-1,1,-1,1,-1c0,0,1,0,1,0c1,0,1,0,1,1l0,1l-1,0l1,1l0,1l-1,-1l-1,1c-1,1,-1,1,-1,1l-1,0l-1,0l1,0l1,-1l0,-1l1,0c-1,-1,-1,-1,-1,-1l0,-1ZM389.5,50.5l-1,0l0,1l1,0l0,-1ZM379.5,64.5l-1,-1c0,0,-1,-1,-1,-1l-1,0l0,1l1,1l1,0ZM375.5,53.5l4,-3l-1,1l0,1l-4,2ZM134.5,64.5l0,-1l0,-1l-1,-9l1,-2l1,11l-1,1c0,0,0,1,0,1Z" class="g1_21" />
<path fill-rule="evenodd" d="M403.5,317.5l-4,2c1,0,1,-1,1,-1l3,-2ZM68.5,315.5l0,-1l0,-2l-1,-8l1,-2l1,10c0,1,0,1,0,1l0,1c-1,0,-1,0,-1,1ZM57.5,306.5l-2,-1l1,-2l1,1ZM65.5,309.5l-1,1l-1,0l-1,0l0,1c-1,0,-1,0,-1,0l-1,0l-1,1l-2,0l-1,1l-1,0l-1,0l-1,0l-1,0l-1,0l0,-1l-1,0c0,-1,0,-1,0,-1c-1,1,-1,1,-1,1c-1,0,-1,1,-2,1c0,0,-1,0,-1,0l-1,0c-1,0,-1,0,-1,-1c0,0,-1,0,-1,0l0,-1l0,-1l1,0l0,1l1,0l1,0l1,0c1,0,1,0,1,0l1,0c0,-1,0,-1,0,-1l1,0c0,0,0,-1,0,-2l-1,-2l0,-1l1,-1l0,1c0,0,0,1,0,2l1,2c0,0,0,1,0,1c0,0,0,1,0,1c0,0,1,0,1,0l2,0c0,0,0,-1,0,-1c0,0,0,-1,0,-1c0,-1,1,-1,1,-1c0,0,0,-1,1,-1l1,0l1,0c0,0,1,0,1,0l2,1l1,0l2,1l1,0ZM60.5,310.5l0,-1l-1,0c0,0,-1,0,-1,0c0,0,-1,0,-1,0l-1,0c0,0,-1,0,-1,0c0,1,0,1,0,1c0,0,-1,1,-1,1l1,0l1,0l1,0l1,-1l1,0ZM58.5,316.5l-4,2c0,0,1,-1,1,-1l4,-2ZM48.5,301.5l-1,0l1,-2l1,1ZM46.5,297.5l0,1l-1,0l-1,0l0,1l0,4c0,1,0,1,0,1l-1,0l0,-1l0,-1l0,-1l0,-1l0,-1c0,0,0,-1,0,-1c0,0,0,-1,1,-1l-1,0c0,0,0,-1,0,-1c1,0,1,-1,1,-1c0,0,1,1,1,1c1,1,1,1,1,1ZM91.5,312.5c0,0,-1,0,-2,0c0,0,0,-1,-1,-1c0,0,-1,0,-1,1c-1,0,-1,0,-1,0c-1,0,-1,0,-1,0c-1,0,-1,1,-1,1c-1,0,-1,0,-1,0l-1,0c-1,0,-1,0,-1,1l0,1c0,0,-1,1,-1,1c0,0,0,1,-1,1c-1,1,-1,1,-1,1c0,0,-1,0,-1,0l-1,0c-1,0,-1,0,-2,0c0,0,0,-1,-1,-1l1,0c1,0,1,0,1,0c0,0,1,0,1,0c1,0,1,0,2,-1c1,-1,1,-1,1,-1c0,0,1,-1,1,-1l0,-1c0,0,1,0,1,0c-1,0,-1,0,-1,0l-1,0l0,-1l-1,0l0,-1l0,-1l0,-1l1,0c0,-1,0,-1,0,-1c0,0,1,0,1,0c1,0,1,0,1,1c0,0,0,1,0,1c1,0,1,1,1,1c0,0,1,0,1,0l1,0c0,0,1,0,1,0c1,0,1,0,1,-1c0,-1,0,-1,0,-1c0,0,0,-1,0,-1c0,0,0,-1,0,-1l1,0c0,-1,0,-1,0,-1l0,-1c1,0,1,-1,1,-1c0,1,1,1,2,2c0,0,1,1,1,1c1,1,1,1,1,1c0,1,0,1,0,1c0,0,0,1,0,1c0,0,0,1,0,1c0,1,0,1,0,1l-1,0ZM88.5,308.5c0,0,-1,0,-1,0l0,1l1,1c0,-1,0,-1,0,-1c0,-1,0,-1,0,-1ZM89.5,308.5c0,0,1,0,1,0l0,1c0,0,-1,0,-1,0c0,0,0,1,0,1l2,0c0,-1,0,-1,0,-1c-1,0,-1,0,-1,-1l-1,0ZM84.5,293.5c1,0,1,0,1,0c0,-1,1,-1,1,-1c0,0,1,1,1,1c0,0,0,1,0,1l-1,0c0,1,0,1,0,1l1,0l0,2l-1,-1l-1,0l0,1c-1,0,-1,0,-1,1l-1,0l-1,0l1,-1l1,0l0,-1l1,0l0,-1l-1,0l0,-1l0,-1ZM86.5,294.5l-1,-1l0,1l1,0l0,1l0,-1ZM79.5,310.5l0,1c1,0,1,0,1,0l1,0c-1,0,-1,0,-1,-1l-1,0ZM76.5,303.5l4,-2c0,1,0,1,-1,1l-4,2ZM104.5,311.5l0,1l-1,0l1,0l1,0l-1,-1ZM105.5,314.5l-1,0c0,0,-1,0,-1,0c0,0,-1,0,-2,0l-1,0c0,0,0,-1,0,-1l0,-1c0,0,1,0,1,0c1,0,1,0,1,0c0,0,0,-1,1,-1c0,0,1,-1,1,-1c0,0,-1,0,-1,-1l-1,-1c0,0,-1,-1,-1,-1c0,-1,-1,-1,-1,-2c-1,0,-1,0,-1,0c0,-1,-1,-1,-1,-1l-1,0c0,0,-1,0,-1,-1l0,-1c0,-1,0,-1,0,-1l0,-1l1,0c0,1,0,1,1,1c0,1,1,1,1,2c1,1,2,1,2,2c1,0,1,1,2,2c0,0,1,1,1,1c0,0,0,1,0,1c0,0,0,-1,1,-1c0,-1,0,-2,0,-2c0,-1,0,-1,0,-2c0,0,0,-1,0,-1c0,-1,0,-1,0,-2c0,-1,0,-1,0,-1c0,-1,0,-1,1,-1c0,1,0,1,0,1c0,0,1,0,1,1l0,1c-1,0,-1,0,-1,0c0,0,0,1,0,1c0,0,0,1,0,1c0,1,0,1,0,1c0,1,0,1,0,2c0,0,-1,1,-1,2c0,0,0,1,0,1c0,0,0,1,0,1c0,1,0,1,0,1c0,1,0,1,0,1l0,1ZM102.5,297.5l0,1c1,0,1,-1,1,-1l0,-1l0,1l1,0l0,-1l1,-1l0,1l0,1c0,1,-1,1,-1,1c0,0,-1,0,-1,0c-1,1,-1,1,-1,1l-1,0l0,-1l0,-1ZM106.5,294.5l-6,3c0,-1,1,-2,1,-2l5,-3ZM145.5,311.5l-1,1l-1,0c0,0,-1,0,-1,1l-1,0l-1,0l-1,0c0,0,-1,-1,-1,-1c0,-1,0,-1,0,-1l1,0c0,0,0,-1,0,-1c0,1,0,1,0,1l1,0c0,0,1,0,1,0c1,0,1,0,1,-1c1,0,1,0,1,0c1,0,1,0,1,0c0,-1,0,-1,0,-1c0,-1,-1,-1,-1,-1l0,-1l-1,0l-1,-1l-1,0l1,-2l1,0c0,1,0,1,0,1l1,0c0,0,0,1,1,1l0,1c1,0,1,1,1,1c0,1,0,1,0,1l0,1l0,1ZM141.5,300.5l4,-3l0,1l-1,1l-4,2ZM134.5,313.5l0,-1l1,-2l-1,-8l1,-3l0,11c0,0,0,1,0,1c0,1,0,1,-1,2ZM132.5,293.5l0,-1c1,0,1,1,2,1c1,0,1,0,1,0l1,0l1,0c0,0,-1,0,-1,1l-1,0l-1,0l-1,0l-1,-1l0,1c-1,0,-1,0,-1,0c0,-1,0,-1,1,-1ZM130.5,316.5l-2,-1l1,-1l2,1ZM127.5,313.5l-1,0c0,0,-1,0,-1,-1c0,0,-1,0,-1,0c0,0,0,-1,0,-1c0,-1,-1,-1,-1,-1c0,0,0,1,0,1c-1,0,-1,0,-1,0l-1,0c0,0,-1,0,-1,0l-1,0l0,-2c0,0,1,0,1,-1c0,0,1,-1,2,-1c0,-1,1,-1,1,-1l0,-1l0,-1l1,1c0,1,0,1,0,1c0,1,0,1,0,2l0,2c1,0,1,1,1,1c1,0,1,0,1,0l1,0c1,0,1,0,2,0c0,0,1,-1,1,-1c0,0,0,-1,0,-1l-1,-1l1,-2c0,0,0,1,0,1l1,1l0,1l0,1c0,1,0,1,0,1c-1,0,-1,0,-1,1c0,0,-1,0,-1,0c-1,1,-1,1,-2,1ZM127.5,300.5l0,1c0,1,0,1,1,1l0,-1l0,-1l1,0l0,1c1,0,1,0,1,-1l0,-1l0,1l0,1c0,1,0,1,0,1l-1,0l-1,0c0,1,0,1,-1,1l0,-1l0,-1ZM131.5,298.5l-5,2c0,-1,1,-1,1,-1l5,-3ZM122.5,303.5l-1,0l-1,1l-1,-1l1,-1l1,0l1,-1l1,1ZM123.5,307.5l-1,1l-1,0c0,1,0,1,0,1l1,0c1,0,1,0,1,0ZM125.5,317.5l-5,2l0,-1l5,-3c0,1,0,2,0,2ZM120.5,317.5l0,-1l5,-3c0,1,0,1,0,2ZM169.5,312.5l-1,0l-1,0l-1,-1l-1,0c0,1,0,1,0,1l-1,1l-1,0l-2,0l0,1c0,1,0,2,0,2c0,1,-1,1,-1,2c-1,0,-1,1,-2,1c-1,0,-2,1,-2,1c-1,0,-2,-1,-2,-1c-1,0,-1,0,-2,0c0,-1,0,-1,-1,-2c0,0,0,-1,0,-1c0,-1,0,-1,0,-1c0,-1,0,-1,0,-1c0,-1,0,-1,1,-1c0,-1,0,-1,0,-1l1,0c0,0,-1,1,-1,1l0,1c0,0,0,1,0,1c0,0,0,1,0,1c0,0,1,1,1,1c0,0,1,0,1,0c0,1,1,1,2,1c1,0,1,0,2,-1c1,0,2,0,2,-1c1,0,1,-1,1,-1c0,-1,0,-1,0,-1c-1,-1,-1,-1,-1,-1l0,-1l0,-2c1,0,1,0,1,0c0,1,0,1,1,1l1,0l1,0c0,0,1,0,1,0l0,-1l1,-1c0,0,1,-1,1,-1c0,-1,1,-1,1,-1c0,0,1,0,1,1c0,0,0,1,0,1l1,1l0,1l-1,0c0,1,0,1,0,1ZM167.5,310.5l1,0c0,0,0,-1,0,-1c-1,0,-1,0,-1,0l0,1ZM168.5,316.5l-4,2c0,-1,0,-1,0,-1l4,-2ZM156.5,310.5l-1,-1l1,-1l1,1ZM187.5,312.5c0,0,-1,0,-1,0l-1,0l-1,0l0,-1l-1,0c0,1,0,1,0,1l-1,1l-1,0l-1,0c-1,0,-2,-1,-2,-1c-1,0,-1,-1,-1,-2l-1,-8l1,-3l1,10l0,1c1,1,1,1,2,1l1,0l1,0c0,0,1,0,1,0l0,-1l1,-1c0,0,0,-1,1,-1c0,-1,1,-1,1,-1l1,1c0,0,0,1,0,1l0,1l0,1c0,1,0,1,0,1ZM185.5,310.5l1,0c0,0,0,-1,0,-1l-1,0l0,1ZM242.5,309.5c-1,0,-1,0,-1,0c0,1,0,1,1,1c0,0,0,-1,0,-1ZM242.5,316.5c-1,1,-1,1,-1,1l-1,0c0,0,-1,0,-1,0l-1,0c0,0,-1,0,-1,0c-1,0,-1,0,-1,0c0,0,0,-1,0,-1l1,0c0,0,0,1,0,1c1,0,1,0,1,-1c0,0,1,0,1,0c1,0,1,0,1,0c0,-1,1,-1,1,-1c1,0,1,-1,1,-1l1,-1c0,-1,0,-1,0,-1c0,-1,0,-1,0,-1c-1,1,-1,1,-1,1l-1,0c0,-1,-1,-1,-1,-1c0,0,0,-1,0,-1l0,-1c0,-1,0,-1,1,-1c0,-1,0,-1,0,-1c0,0,1,0,1,0l1,0l0,1c0,0,1,0,1,0c0,1,0,1,0,2l0,1c0,1,0,1,0,1c0,1,-1,2,-1,2c0,1,0,1,-1,1c0,1,0,1,0,1ZM239.5,303.5l4,-2c0,1,-1,1,-1,1l-4,2ZM228.5,316.5c0,0,1,0,1,0l1,0c1,0,2,0,3,-1c0,0,0,-1,1,-1c0,0,1,-1,1,-2l1,0c0,-1,0,-1,0,-1c0,-1,0,-1,0,-1l-1,0l0,-1l-1,0l1,-2l1,1l0,1l0,1l0,1c0,0,0,1,0,1c0,0,0,1,0,1l0,1c0,0,-1,0,-1,1l-1,1l-1,0c0,1,-1,1,-1,1l-1,0l-1,0l0,-1c-1,0,-1,0,-1,0ZM231.5,303.5l4,-2c0,1,0,1,0,1l-4,2ZM227.5,316.5l-1,-1l1,-1l1,1ZM225.5,313.5l-1,0l-1,0c0,0,0,-1,-1,-1l-1,-1l-2,-2c-1,0,-1,0,-1,-1l-1,0l0,1l0,1l0,1l-1,1c0,0,-1,0,-1,0c0,1,-1,1,-1,1l-1,0c-1,0,-2,-1,-2,-1l-1,0c0,0,0,1,0,1l-1,0l-1,0c-1,0,-1,-1,-1,-1l-1,1c0,1,-1,1,-1,1c-1,1,-1,1,-2,1c-2,0,-3,1,-4,1l4,-2l2,-1c0,0,1,-1,1,-1l1,-2c0,-1,0,-1,1,-1l0,-1l1,0c0,0,1,1,1,1c0,1,1,1,1,2c0,0,1,0,1,0c0,0,1,0,1,0l1,0c0,0,1,0,1,0l1,0c0,0,0,-1,0,-1c1,0,1,0,1,0c0,-1,0,-1,0,-1l-1,-1c0,-1,0,-1,-1,-1l-1,-1l-1,0c-1,0,-1,-1,-1,-1c0,0,0,-1,0,-1l0,-1c0,0,0,-1,0,-1c1,0,1,0,1,0c0,0,1,-1,3,-2c1,0,2,-1,4,-1c2,-1,2,-1,3,-1l1,0l-1,1c0,0,-1,0,-1,0c0,1,-1,1,-2,1c-2,1,-3,1,-4,2c-2,0,-3,1,-3,1c0,0,0,1,0,1c0,0,-1,0,-1,0l2,0c0,0,0,1,1,1l1,0c1,1,1,1,2,2c0,0,1,0,1,1c1,0,2,1,2,1l2,2l1,0l1,0c0,0,1,0,1,0c1,0,1,-1,2,-1c0,0,0,-1,-1,-1l0,-1l1,-2c0,0,0,1,0,1l0,1l0,1l0,1c0,1,0,1,0,1l0,1c0,0,-1,0,-2,0c0,1,-1,1,-1,1ZM223.5,301.5l0,1l1,0l0,-1l1,0l0,1c1,0,1,-1,1,-1l0,-1l0,1l0,1c0,0,0,1,0,1l-1,0l0,-1l-1,1c0,0,0,1,-1,1c0,0,0,-1,0,-1l0,-1l0,-1ZM227.5,319.5l-4,2c0,-1,0,-1,0,-1l4,-2ZM216.5,293.5c0,0,1,0,1,0c0,-1,0,-1,1,-1c0,0,0,1,0,1c0,0,0,1,0,1c0,1,0,1,0,1l1,0l-1,2l-1,-1l-1,1l0,1l-1,0l-1,0l1,-1c0,0,1,0,1,-1l1,0l-1,-1l0,-1l0,-1ZM217.5,294.5l0,-1l0,1l0,1l0,-1ZM209.5,311.5l0,-1l-1,0c0,0,-1,0,-1,0c0,1,1,1,1,1l1,0ZM264.5,316.5l1,0c1,0,2,0,3,-1c0,0,1,-1,1,-1c1,0,1,-1,1,-2c0,0,1,0,1,0c0,-1,0,-1,0,-1c0,-1,0,-1,0,-1l-1,-1l0,-2l1,1l0,1l0,1l1,0l0,1c0,0,-1,1,-1,1c0,0,0,1,0,1l0,1c0,0,-1,0,-1,1l0,1c-1,0,-1,0,-1,0l-1,0c0,1,0,1,-1,1l-1,0c0,0,-1,0,-1,0l0,-1c-1,0,-1,0,-1,0ZM266.5,303.5l4,-2c0,1,0,1,0,1l-4,2ZM265.5,315.5l-1,-1l1,-2l1,1ZM259.5,313.5l0,-1l1,0c1,0,1,0,1,0c1,0,1,-1,1,-1c0,0,0,-1,0,-1c0,-1,0,-1,-1,-1l1,-1l0,-1c0,1,1,1,1,2l0,1c0,1,0,1,0,1c0,1,0,1,-1,1c0,1,0,1,0,1c0,0,1,0,1,0c0,1,0,1,0,1l0,1l0,1c0,0,-1,0,-1,0c0,0,0,1,-1,1c0,0,-1,1,-2,1c-1,0,-2,1,-3,1c0,0,-1,-1,-2,-1c0,0,-1,0,-1,-1c-1,0,-1,0,-1,-1c0,0,0,-1,0,-1c0,0,0,-1,0,-1c0,0,0,-1,0,-1c0,-1,1,-2,1,-2c0,0,0,1,0,1c-1,1,-1,1,-1,2l1,0c0,1,0,2,1,2c0,0,1,1,2,1l1,0c0,0,1,0,1,0c0,-1,1,-1,1,-1c1,0,2,0,2,-1c1,0,1,0,1,0c0,0,-1,-1,-1,-1c-1,0,-1,0,-2,0c0,0,0,-1,0,-1ZM259.5,301.5l0,1l1,0c0,0,1,0,1,0l0,-1l0,1c0,0,1,0,1,0c0,0,0,-1,0,-1l0,-1l1,0l0,1l0,1c-1,0,-1,1,-1,1l-1,0l0,-1l0,1c-1,0,-1,1,-1,1c0,0,-1,-1,-1,-1l0,-1l0,-1ZM263.5,319.5l-4,2c0,-1,1,-1,1,-1l3,-2ZM296.5,313.5l0,-1l0,-2l-1,-8l1,-3l1,11c0,0,0,1,0,1c-1,1,-1,1,-1,2ZM292.5,312.5c0,0,-1,0,-1,0c-1,0,-1,0,-1,0c-1,-1,-1,-1,-1,-2c0,1,-1,1,-1,2c-1,0,-1,1,-2,1c0,0,-1,-1,-1,-1c-1,0,-1,-1,-1,-2c-1,1,-1,1,-1,1c-1,0,-1,0,-2,0c0,0,-1,0,-1,0c0,0,-1,0,-1,0l0,-1l1,-1l1,-1l1,-1l1,0l0,-1l1,-1l0,-1l0,1l0,1l1,3c0,0,0,1,0,1c0,1,1,1,1,1c1,0,1,0,1,-1c1,0,1,0,1,-1c0,0,0,-1,0,-2c0,-1,0,-1,0,-2c0,0,0,-1,0,-1l0,-1l0,-1l1,3l0,2l0,1c0,1,0,1,0,1c1,1,1,1,2,1l1,0l0,-1l0,-1l0,-1l-1,-1l0,-1l0,-1l0,-1l1,0l0,1c0,0,0,1,0,1l1,2c0,1,0,1,0,2c0,0,0,1,0,2c-1,0,-1,0,-1,1ZM284.5,308.5l-1,0l-1,0l0,1c-1,0,-1,0,-1,0c1,0,1,0,2,0l1,0ZM328.5,309.5c0,1,-1,1,-2,2c-1,0,-2,1,-3,1c-2,0,-3,1,-3,1l-1,0c-1,0,-1,-1,-1,-1c-1,0,-1,-1,-1,-2l0,1c0,0,-1,0,-1,0l0,1c-1,0,-1,0,-1,0c0,1,0,1,-1,1c0,0,1,0,1,0c0,0,1,0,1,0l1,0c0,1,0,1,0,1l0,1l0,1c-1,0,-1,0,-1,0c0,0,0,1,-1,1c-1,0,-1,1,-2,1c-1,0,-2,1,-3,1c-1,0,-1,-1,-2,-1c-1,0,-1,0,-2,-1l0,-1c-1,0,-1,-1,-1,-1c0,0,0,-1,0,-1c0,0,0,-1,1,-1c0,-1,0,-2,1,-2c0,0,0,1,-1,1c0,1,0,1,0,2c0,1,1,2,1,2c1,0,2,1,3,1l1,0l1,0c0,-1,1,-1,1,-1c1,0,1,0,2,-1c0,0,1,0,1,0c-1,0,-1,-1,-2,-1c0,0,-1,0,-1,0c0,0,0,-1,0,-1c0,-1,0,-1,0,-1c1,0,1,-1,2,-1c0,0,1,0,1,0l0,-1l0,-1l0,-1l0,-1l0,-6l1,-2l0,10c0,1,1,1,1,1c0,1,0,1,0,1c0,0,1,0,1,0l1,0c1,0,2,0,2,-1c-1,0,-1,0,-1,-1l0,-1c0,0,0,-1,0,-1c0,0,0,-1,0,-1c0,0,1,0,1,0l0,-1l1,0l0,-1c1,0,1,0,1,0c1,0,1,0,1,0c0,0,1,0,1,0c0,1,0,1,0,1c0,0,1,0,1,0c0,1,0,1,0,1l-1,0l-1,0l-1,0c-1,0,-1,0,-1,0c-1,0,-1,0,-1,1l0,1l1,0c0,1,1,1,1,2c1,0,1,-1,1,-1l1,0l1,0l1,-1l1,0ZM320.5,300.5l4,-3l0,1l0,1l-4,2ZM313.5,296.5l5,-2l-1,1l-4,2ZM376.5,304.5l-1,-1l-1,2l-1,-1l1,-2l1,1l1,-1l1,1ZM374.5,313.5l-1,0l-1,0l0,1c0,0,-1,0,-1,1c0,0,0,1,-1,1c0,0,0,1,0,1c-1,0,-1,0,-1,0c0,1,-1,1,-1,1l-1,0l-1,0c0,0,-1,0,-1,0c-1,0,-1,-1,-1,-1l1,0c1,0,1,0,2,0l1,-1c0,0,1,0,1,0c0,-1,0,-1,1,-1c0,0,0,-1,0,-1l1,-1l-1,0c0,0,-1,0,-1,-1c-1,0,-1,0,-1,-1l0,-1l0,-1l1,0c0,-1,0,-1,0,-1l1,0c0,0,1,0,1,0l0,1l1,0c0,0,0,1,0,1c0,0,0,1,0,1c0,0,1,0,1,0c1,0,1,0,1,0c1,0,1,0,2,0c0,0,1,-1,1,-1c0,0,0,-1,0,-1l-1,-1l1,-2c0,0,0,1,0,1l1,1l0,1l0,1c0,1,0,1,-1,1l0,1c0,0,-1,0,-1,0c-1,1,-1,1,-2,1ZM374.5,296.5l5,-2l-1,1l-4,2ZM370.5,310.5l-1,0l0,1l1,0c0,0,1,0,1,0l0,-1l-1,0ZM366.5,303.5l4,-2c0,1,0,1,0,1l-4,2ZM365.5,300.5l-2,0c-1,1,-2,1,-3,2c-2,1,-3,1,-3,1c-1,0,-1,1,-1,1l1,0l2,1c0,1,1,1,1,2c1,0,1,1,1,1c0,1,0,1,0,2c0,0,0,1,0,1l-1,1c-1,0,-1,0,-1,0c-1,1,-1,1,-2,1c-1,0,-1,0,-1,-1c-1,0,-1,-1,-1,-2c-1,1,-1,2,-1,2c-1,0,-1,0,-1,0l0,1l-1,0l-1,0c0,-1,0,-1,0,-1c-1,0,-1,0,-1,0l0,-1c0,0,0,1,0,1c-1,0,-1,0,-1,0c-1,0,-2,1,-3,1l-1,0c0,0,-1,0,-1,0c0,0,-1,1,-1,1l-1,0l-1,0c-1,0,-2,0,-3,-1c-1,0,-2,0,-3,-1l0,-1c-1,-1,-1,-1,-1,-1l0,-1c1,0,1,0,1,-1c0,0,0,-1,1,-1c0,0,0,1,0,1c-1,0,-1,1,-1,1c0,0,1,1,1,1c0,0,1,1,1,1c0,0,1,0,1,0c1,1,1,1,1,1c1,0,2,0,3,0c1,0,2,0,2,0c1,0,1,0,2,0l0,-1c1,0,1,0,1,0c1,0,2,0,2,-1c1,0,2,-1,2,-1c0,0,0,1,0,1l0,1c0,0,1,0,1,0c1,0,1,0,1,0c0,0,1,-1,1,-1c0,-1,0,-1,0,-1c0,0,0,-1,0,-1l0,-1l0,-6l1,-2l0,10c0,1,0,1,0,1l1,0c0,1,0,1,0,1l1,0l1,0c0,0,1,0,1,0c0,0,1,0,1,0c0,-1,0,-1,0,-1c1,0,1,0,1,0c0,-1,0,-1,-1,-1c0,-1,-1,-1,-1,-2c-1,0,-1,0,-1,0c0,0,0,-1,-1,-1l-1,0c0,0,0,-1,0,-1l0,-1l0,-1c0,0,0,-1,0,-1c1,0,1,0,1,0c0,0,1,-1,3,-2c1,0,3,-1,4,-1c1,0,1,-1,2,-1ZM359.5,295.5c0,1,0,1,0,1l1,0c0,-1,0,-1,0,-1l0,-1l0,1c0,0,1,0,1,0l0,-1l1,-1l0,1l0,1c0,1,0,1,-1,1c0,0,-1,0,-1,0c0,1,-1,1,-1,1l-1,0c0,-1,0,-1,0,-1l0,-1ZM363.5,292.5l-6,3c1,-1,1,-2,1,-2l5,-3ZM353.5,291.5c1,0,1,0,2,0c0,0,1,0,1,0c1,0,1,0,1,0l0,1c0,0,-1,0,-1,1l-1,0c-1,0,-1,0,-1,0l-1,0l1,0c1,0,2,-1,2,-1c0,0,-1,0,-1,0l-1,0l-1,0l-1,0l0,-1l1,0ZM344.5,307.5l-1,-1l-1,2l-2,-1l1,-2l2,1l0,-1l2,1ZM341.5,293.5l1,0c0,-1,0,-1,0,-1l1,0c0,0,0,1,0,1c0,0,0,1,0,1c0,1,0,1,0,1l0,2l-1,-1l-1,1l-1,1l-1,0l0,-1l1,0c0,0,1,0,1,-1l1,0l-1,-1l0,-1l0,-1ZM342.5,294.5l0,-1l0,1l0,1l0,-1ZM395.5,306.5l-1,-1l1,-1l1,1ZM393.5,313.5c0,0,1,0,1,-1c1,0,1,0,2,0c0,0,0,-1,1,-1c0,0,0,-1,-1,-1c0,-1,0,-1,0,-1l0,-1c0,0,1,-1,1,-1c0,1,0,1,0,2l0,1c0,1,0,1,0,1c0,1,0,1,0,1c0,1,0,1,-1,1c1,0,1,0,1,0c0,0,1,0,1,0c0,1,0,1,0,1l0,1c-1,0,-1,0,-1,1c0,0,-1,1,-1,1c-1,0,-2,1,-3,1c0,0,-1,1,-2,1l-1,0c0,0,-1,-1,-1,-1c-1,0,-2,0,-2,-1c0,0,-1,0,-1,-1c0,0,0,-1,0,-1c0,0,0,-1,0,-1c0,0,0,-1,0,-1c1,-1,1,-2,1,-2c1,0,1,0,1,0c0,0,-1,1,-1,1c0,1,0,1,0,2c0,1,0,2,1,2c1,0,2,1,3,1c1,0,1,0,1,0c1,-1,1,-1,1,-1c1,0,2,0,3,-1l1,0c-1,0,-1,-1,-2,-1c-1,0,-1,0,-1,0c-1,0,-1,-1,-1,-1ZM394.5,298.5l0,1l1,0l0,-1l1,0l0,1c0,0,0,-1,1,-1l0,-1l0,1l0,1c0,0,0,1,-1,1l-1,0l0,-1l0,1c0,0,-1,0,-1,0c-1,0,-1,0,-1,0l0,-1l1,-1ZM397.5,319.5l-3,2c0,-1,0,-1,0,-1l4,-2ZM181.5,296.5l3,-1l-3,2ZM48.5,287.5c0,0,-1,0,-1,1c-1,1,-1,1,-1,1l0,1l1,0c0,1,0,1,0,1l-1,0l0,-1l0,-1l0,-1c0,0,1,-1,1,-1l1,-1l1,0l1,0ZM48.5,289.5l0,-1c1,0,1,0,1,0c0,0,1,0,1,0c0,0,0,1,0,1l0,1l0,1l0,1l-1,0l-1,1c0,0,-1,0,-1,0l-1,1c0,-1,0,-1,0,-1l1,0c0,-1,0,-1,1,-1l0,-1c0,0,0,-1,0,-1c0,0,0,-1,0,-1ZM49.5,289.5c-1,0,-1,0,-1,0c0,0,0,1,0,1l1,0ZM279.5,316.5l4,-2c0,1,0,1,0,1l-4,2ZM386.5,298.5l1,0c0,0,1,0,1,0c1,0,1,0,2,0c0,0,0,1,0,1l-1,1l-1,0c0,1,-1,1,-1,1c-1,0,-1,0,-1,-1l2,0c0,0,1,-1,1,-1c-1,0,-1,0,-1,0c-1,0,-1,0,-2,0c0,-1,0,-1,0,-1ZM252.5,302.5c0,0,1,-1,1,-1c1,0,1,0,1,0c1,0,1,0,2,0c0,1,0,1,0,1c0,1,0,1,0,1c0,0,-1,1,-1,1l-1,0l-1,0l-1,0l2,0c1,-1,1,-1,2,-1c-1,0,-1,-1,-1,-1c0,0,-1,0,-1,0c0,0,-1,0,-1,1c0,0,-1,0,-1,0c0,-1,0,-1,0,-1ZM204.5,302.5c0,0,0,-1,1,-1c0,0,1,0,1,0c1,0,1,0,2,0c0,1,0,1,0,1c0,1,0,1,-1,1c0,0,0,1,0,1l-1,0c0,0,-1,0,-1,0c-1,0,-1,0,-1,0l2,0c0,-1,1,-1,1,-1c0,0,0,-1,0,-1c-1,0,-1,0,-1,0c-1,0,-1,0,-2,1c0,-1,0,-1,0,-1ZM155.5,299.5c1,0,1,0,2,0c0,0,1,0,1,0c1,0,1,0,1,1c0,0,-1,1,-1,1l-1,1c-1,0,-1,0,-1,0l-1,0l1,-1c1,0,2,0,2,-1c0,0,-1,0,-1,0l-1,0l-1,0l-1,1l0,-1l1,-1ZM194.5,305.5l0,-1l1,0c0,0,0,-1,0,-1l0,-1l0,-1l0,-1l-1,-1l1,-1l0,1c0,0,0,1,0,1l0,1l0,1l0,1l0,1l1,-1l1,-1l1,0c1,0,1,1,1,1c0,1,0,1,0,1c0,0,-1,0,-1,0c-1,1,-1,1,-2,1ZM197.5,303.5l-1,0l0,1l-1,0l1,0l1,0c1,0,1,0,1,-1l-1,0ZM67.5,299.5l0,-1c0,0,0,-1,0,-1c0,-1,0,-1,0,-2l0,-1c1,0,1,1,1,1c0,1,0,1,0,1l0,1c0,0,0,1,0,1c0,0,0,1,-1,1ZM110.5,356.5c0,1,0,2,0,3c0,0,-1,0,-1,0l0,1c0,0,-1,0,-1,1l1,0l1,0l-1,0l0,1l-1,0l0,1l-1,0c0,0,-1,1,-1,1l-1,0l-1,1l-1,0l-1,0l0,1l-1,1l-3,0l-3,0c0,0,-1,0,-1,-1l-1,-1l-1,0c0,-1,-1,-1,-2,-1l-1,0l0,-1l-1,0l0,-1l-1,0l0,-1l-1,0l1,0l0,-1l-1,-1l0,-1c0,-1,0,-1,0,-1l0,-1l0,-1c0,0,0,-1,0,-1c1,-1,1,-1,1,-1l0,-1l-1,0l1,-1l1,0l0,-1l1,0l1,-1l1,0l1,-1c1,0,1,0,1,0l1,-1c0,-1,1,-1,1,-1l3,0l3,0l1,1l0,1l1,0l2,1l1,0l1,1l1,0l0,1c1,0,1,0,2,1l-1,0l-1,0l1,1l0,1l1,0l0,1l0,1ZM101.5,367.5l0,-1l1,0l0,-1l1,-1c1,0,1,0,1,0l1,0c1,-1,1,-1,2,-1l0,-1c1,0,1,0,1,0l1,-1l-1,0l0,-1l1,0l0,-1l0,-1l1,-1l0,-1c0,0,-1,-1,-1,-2l0,-1l-1,0l0,-1l1,0c0,-1,-1,-1,-1,-1l-1,-1l-1,0l0,-1l-2,0l-1,-1l-1,0l0,-1l-1,0c0,-1,0,-1,0,-1l-1,0l-2,0l-1,0l-2,0l0,1l-1,0l-1,1l-2,1l-1,0l0,1l-1,0l-1,1c0,0,-1,0,-1,1l1,0l-1,1l0,1l-1,1l0,1l0,1l0,1l0,1l1,0l0,1l1,1l-1,0l0,1l1,0l0,1l1,0l1,1l1,0l1,0c1,1,1,1,2,1l0,1c1,0,1,1,1,1l3,0ZM107.5,352.5l-1,0l-1,0l0,-1l-1,0l-1,0c0,-1,0,-1,0,-1l1,0l1,0l0,1c1,0,1,0,1,0ZM107.5,361.5l-1,1l-1,1l-1,0l-1,0c1,0,1,0,1,-1l1,0c0,0,1,-1,1,-1ZM102.5,363.5c0,1,0,1,0,1c-1,1,-1,1,-1,1l-3,0l-3,0c0,0,-1,0,-1,-1l0,-1c0,0,0,-1,1,-1l3,0l3,0l1,0l0,1ZM102.5,350.5c0,1,-1,1,-1,1l-3,0l-3,0c-1,0,-1,0,-1,-1c0,-1,0,-1,0,-1l0,-1l1,0l3,0l3,0l1,1ZM101.5,352.5l1,0l1,0l1,0l1,1l1,0l1,0l0,1l0,1l1,1l0,1c0,1,-1,1,-1,1l0,1l0,1l-1,0l-1,0l-1,1l-1,0l-1,0c-1,0,-1,0,-1,0l-3,0l-3,0l-1,0l-1,0c0,0,-1,0,-1,0c0,0,-1,0,-1,-1l-1,0l-1,0l-1,-2l0,-1l0,-1c0,-1,0,-1,0,-1l0,-1l1,0l0,-1l2,0l1,-1c0,0,1,0,1,0c1,0,1,0,1,0l1,0l3,0ZM101.5,360.5l0,1l1,0l1,0c0,0,1,0,1,0l0,-1l1,0l0,-1l1,1l1,-1l0,-1l0,-1l0,-1c0,0,0,-1,0,-1c0,-1,0,-1,0,-1c-1,-1,-1,-1,-1,-1l-1,1c0,0,0,-1,0,-1l-1,0l0,-1l-1,0c-1,0,-1,0,-1,0l-1,0l0,1l-3,0l-3,0l0,-1l-1,0l-1,0l-1,0l0,1l-1,0c0,0,0,1,0,1l-1,-1c-1,0,-1,0,-1,1l0,1l-1,1l0,1l0,1l1,0c0,1,0,2,0,2l2,-1c0,0,0,1,0,1l1,1l1,0c1,0,1,0,1,0l1,0l0,-1l3,0l3,0ZM98.5,355.5l1,0l1,0l0,1l0,1c0,0,0,1,1,1l-1,1l0,-1l0,-1l0,-1l-1,0c0,0,-1,0,-1,0l0,-1ZM96.5,356.5c1,0,1,0,1,0l0,1l0,1l0,1l-1,0c0,0,-1,0,-1,0c0,0,0,-1,0,-1l0,-1l1,-1ZM96.5,357.5l-1,0l0,1c0,0,1,0,1,0l1,0c0,0,0,-1,0,-1l-1,0ZM89.5,352.5l0,-1l1,0l1,-1l1,0l1,0l-1,0l1,1c-1,0,-1,0,-1,0l-1,0l-1,0l0,1l-1,0ZM89.5,361.5l1,0c0,0,0,1,1,1l1,0l0,1l1,0c-1,0,-1,0,-1,0c-1,0,-2,0,-2,-1l-1,0l0,-1ZM162.5,358.5c0,1,-1,1,-1,1l-1,-1l-1,0l-1,-1l0,1c0,0,0,1,0,1l-1,0l-1,0l-1,0l-1,0l0,-1c0,-1,0,-1,-1,-1c0,1,0,1,0,1c-1,1,-1,1,-2,1c0,0,-1,-1,-1,-2l-1,1c0,1,-1,1,-1,1c-1,0,-2,0,-2,-2c0,1,0,1,-1,1c0,1,-1,1,-2,1l-1,0c-1,0,-1,0,-1,0c-1,0,-1,0,-1,0l0,-1l-1,0c0,0,-1,0,-1,0c0,1,-1,1,-1,1l-1,0l-1,0l-1,0c-1,0,-1,0,-2,0c0,0,-1,0,-1,-1c0,1,-1,1,-2,1c0,0,-1,0,-2,0c-1,0,-1,0,-1,0l-1,0c0,-1,0,-1,0,-1c0,0,0,-1,-1,-1c0,-1,0,-1,0,-1c0,0,0,-1,-1,-1l-1,0l-1,0l0,1l1,0c0,1,0,1,0,1c0,0,0,1,0,1c0,0,0,1,0,1l0,1l-2,0l-1,0c-1,0,-2,0,-2,1l0,1c0,0,0,1,0,2c0,1,1,2,1,3c0,1,0,2,0,2l0,1l0,-1c-1,0,-1,-1,-1,-2c0,0,0,-1,0,-3c-1,-1,-1,-1,-1,-1l0,-1c0,-1,0,-2,1,-2c0,0,0,-1,0,-1c0,0,1,-1,1,-1c1,0,2,0,2,0l0,-1c0,0,-1,0,-1,0l-1,0c0,0,0,1,0,1c0,0,0,-1,0,-1l0,-1c0,0,1,0,1,0c0,-1,0,-1,1,-1c0,0,1,-1,1,-1c1,0,1,0,1,0c1,0,1,0,1,0c0,0,1,0,1,0c1,0,1,1,1,1c0,0,0,1,0,1l0,1c1,0,1,0,1,0l1,0c1,0,1,0,1,0c0,0,1,0,1,0l1,0c0,0,-1,0,-1,-1c0,-1,0,-1,1,-2c0,0,0,-1,0,-1c0,0,1,0,1,0c0,-1,1,-1,1,-1c1,0,1,0,2,1l0,1l0,1c0,0,0,1,0,1c-1,1,-1,1,-1,1c0,0,1,0,1,0l1,0l1,0c1,0,1,0,1,0c0,0,1,0,1,0l1,-1l1,0l0,1l1,0l1,0l1,0l1,0l1,0c0,0,1,-1,1,-1l1,0c0,1,0,1,1,1c0,0,1,0,1,0c0,0,1,-1,1,-1l0,-1l1,0c0,1,0,1,0,1c0,1,0,1,1,1c1,0,1,-1,1,-1l0,-1l1,0c0,2,1,2,1,2l1,0l1,0c0,0,1,0,1,0l1,-1c0,-1,0,-1,1,-2l1,0l1,0c0,1,0,1,0,1l0,1l0,1l0,1ZM160.5,356.5l1,1c0,0,0,-1,0,-1c0,0,0,-1,-1,-1c0,0,0,1,0,1ZM158.5,348.5l0,1l1,0c0,0,0,-1,0,-1l0,-1l0,1l1,0l0,-1l1,-1l0,1l0,1c0,1,0,1,-1,1c0,0,-1,0,-1,0c0,1,-1,1,-1,1l-1,0c0,-1,0,-1,0,-1l0,-1ZM159.5,343.5c0,-1,0,-1,1,-1c0,-1,0,-1,0,-1l1,0c0,1,0,1,0,1c0,1,0,1,0,1l0,1l0,1l-1,0l-1,1l-1,1l-1,0c1,-1,2,-1,3,-2l-1,-1l0,-1ZM160.5,343.5l0,1l0,-1ZM147.5,348.5l1,0c0,0,1,0,1,0c1,0,1,0,1,0c1,0,1,0,1,0c0,1,0,1,0,1l-1,1l-1,0c0,1,-1,1,-1,1c-1,0,-1,0,-1,-1l2,0c0,0,1,-1,1,-1l-1,0c-1,0,-1,0,-2,0c0,-1,0,-1,0,-1ZM140.5,354.5l-1,-1l-1,1l-1,-1l0,-1l2,1l1,-2l1,1ZM137.5,346.5l4,-2l0,1l-4,2ZM132.5,351.5l-1,-1l-1,1l-1,-1l1,-1l1,1l1,-2l1,1ZM132.5,354.5c0,0,-1,0,-1,0c-1,0,-1,1,-1,1c1,1,1,1,1,1c1,0,1,0,1,0c1,0,1,-1,1,-1c0,0,0,-1,0,-1c-1,0,-1,0,-1,0ZM134.5,365.5l-4,2c0,-1,0,-1,0,-1l4,-2ZM126.5,362.5l-1,-1l-1,2l-1,-1l1,-2l1,1l1,-1l1,1ZM114.5,375.5l5,-2l-1,1l-5,3ZM115.5,372.5l6,-2c-1,0,-1,1,-1,1l-5,2ZM199.5,359.5c-1,0,-1,0,-1,0c-1,-1,-1,-1,-1,-1c0,-1,0,-1,0,-1l0,-1l-1,0c0,1,0,1,0,1c-1,0,-1,0,-1,0c0,0,-1,0,-1,0l0,1l0,1c0,0,-1,0,-1,0c0,1,0,1,0,1c0,1,0,1,-1,2c0,0,0,1,-1,1l-1,0c0,1,0,1,-1,1l-1,0c-1,0,-1,0,-1,0c0,0,0,-1,0,-1c0,0,-1,0,-1,0l1,0c1,0,1,0,1,0l1,0c0,0,0,-1,0,-1l1,0c0,0,1,-1,1,-1c0,0,0,-1,1,-1c0,-1,0,-1,1,-1c0,-1,0,-1,0,-1l-1,0l1,-3l1,0c1,0,1,0,1,0c0,0,1,0,1,0l0,-1c1,0,1,0,1,0l0,1l1,1c0,1,0,1,0,1c0,0,1,0,1,0l1,0l3,-2l0,-1c1,0,1,0,1,0c1,0,1,-1,1,-1c1,0,1,0,2,0c1,0,1,0,1,1l1,0l0,1l0,1c0,0,0,1,0,1l-1,0l0,1c0,0,-1,0,-2,0c0,1,-1,1,-2,1c-1,0,-2,0,-3,0l-1,0l-1,1c0,1,0,1,0,1l0,-1l0,-1ZM204.5,355.5c0,0,0,1,0,1l-1,0l-1,1l-2,1l2,0c1,0,2,0,3,-1c1,0,1,0,2,0c0,0,1,0,1,-1l-1,0l0,-1c0,0,-1,0,-1,0c0,0,-1,0,-1,0l-1,0ZM203.5,362.5l-4,2c1,-1,1,-1,1,-1l4,-2ZM192.5,353.5l0,-1c0,0,0,-1,0,-1c0,-1,-1,-2,-1,-2l1,-1c0,0,0,1,0,1c0,0,0,1,0,1l1,0l0,1c0,0,-1,0,-1,1c0,0,0,1,0,1ZM184.5,355.5l1,0c0,0,0,1,-1,1l0,1c-1,0,-1,1,-2,1c-1,1,-2,1,-3,1c-1,0,-2,0,-3,0c-1,0,-1,0,-2,0l-1,0c-1,0,-1,0,-2,-1l0,-1l-1,0l2,0l1,0l1,0l1,0c0,0,1,0,1,0c0,0,0,-1,0,-2l0,-2l0,-1l0,-3l-1,-2c0,0,1,-1,1,-1l0,-1l1,2c0,1,0,1,0,2l0,1l0,1l0,1l0,1l0,1l0,1l0,1l1,-1l1,-1l1,0c0,-1,1,-1,1,-1l1,0c1,0,1,0,2,1l0,1ZM183.5,356.5l0,-1l-1,0l-1,0c0,0,-1,0,-1,0l-2,1l-1,1l1,0c0,0,1,0,1,0l1,0c2,0,3,-1,3,-1ZM174.5,368.5l5,-3c0,1,0,1,0,1c0,0,-1,1,-1,1l-5,2ZM176.5,365.5l5,-3c-1,1,-1,1,-1,1l-5,3ZM241.5,356.5c-1,0,-2,1,-3,1c-1,1,-2,1,-3,1c-1,1,-2,1,-3,1l-1,0c0,0,-1,0,-1,0c0,-1,-1,-1,-1,-2l0,1c-1,0,-1,0,-1,1l-1,0c1,0,1,0,1,0c0,0,1,0,1,1c0,1,0,1,0,1c0,1,0,1,0,1c-1,1,-1,1,-2,1c0,1,-1,1,-2,2c-1,0,-2,0,-3,0c0,0,-1,0,-2,0c0,-1,-1,-1,-1,-1c-1,-1,-1,-1,-1,-1c0,-1,0,-1,0,-2c0,-1,0,-1,0,-2c0,-1,1,-1,1,-2l1,0c-1,1,-1,1,-1,2c0,0,0,1,0,1c-1,0,0,1,0,1c0,0,0,1,1,1c0,1,1,1,2,1c0,0,1,0,1,0c0,0,1,0,1,0c1,0,1,0,1,0c1,0,2,-1,2,-1c1,0,1,-1,1,-1c0,0,-1,0,-1,0c-1,0,-1,-1,-2,-1c0,0,0,-1,0,-1c1,-1,1,-1,1,-1l1,0l0,-1c0,0,1,0,1,0l1,-1c0,-1,0,-1,0,-1c0,0,0,-1,0,-1l-1,-7l1,-2l1,11c0,1,0,1,0,1c0,0,1,0,1,0l1,0c0,0,1,0,1,0c0,0,1,0,1,0c0,0,0,-1,-1,-1c0,-1,0,-1,0,-1c0,-1,0,-1,0,-1c0,0,0,-1,0,-1l1,0l0,-1c0,0,1,-1,1,-1l1,0l1,0l1,0c1,0,1,0,1,1l1,0l-1,0l-1,0l-1,0l-1,0l-1,0l0,1l-1,0c0,1,0,1,0,1c1,0,1,0,1,1c1,0,1,1,2,1l1,0c0,0,1,-1,1,-1l1,0l1,-1ZM232.5,346.5l5,-2l-1,1l-4,2ZM225.5,343.5c0,1,0,2,0,2l0,-1c0,-1,0,-1,0,-2l-1,0l0,-1c0,0,0,-1,0,-1l1,0l0,1l0,1ZM261.5,362.5c0,0,1,0,1,0l1,0c1,0,2,0,3,-1l1,-1c0,0,1,-1,1,-1c0,0,0,-1,1,-1l0,-1l-1,-1l0,-1l-1,0l1,-1l0,-1l1,1c0,0,0,1,0,1l0,1l0,1c0,1,0,1,0,2c0,1,0,1,0,1c0,1,-1,1,-1,1c0,0,0,1,-1,1l0,1l-1,0c0,0,-1,0,-1,0l-1,0c0,0,-1,0,-1,0c-1,0,-1,0,-1,0l0,-1ZM264.5,349.5l4,-2l0,1l-4,2ZM263.5,361.5l-1,-1l1,-1l1,1ZM257.5,360.5c0,-1,0,-1,0,-1l0,-1c0,0,1,0,1,0l1,0c0,0,1,0,1,0c0,-1,0,-1,0,-1l-1,-1l0,-1l0,-1l1,0l0,1c0,0,0,1,1,1c0,0,0,1,0,1l-1,1l0,1l-1,0c1,0,1,0,1,0l0,1c1,0,1,0,1,0c0,1,0,1,0,1c0,1,-1,1,-1,1c0,1,-1,1,-1,1c-1,1,-2,1,-2,2c-1,0,-2,0,-3,0c-1,0,-2,0,-2,0c-1,-1,-1,-1,-2,-1c0,-1,0,-1,-1,-1c0,-1,0,-1,0,-2c0,-1,0,-1,0,-2c1,-1,1,-1,1,-2c1,0,1,0,1,0c0,1,-1,1,-1,2c0,0,0,1,0,1c0,0,0,1,0,1c0,0,1,1,1,1c1,1,2,1,3,1c1,0,1,0,2,0l1,0c0,0,1,-1,2,-1c0,0,0,-1,1,-1c-1,0,-1,0,-2,0c-1,0,-1,-1,-1,-1ZM257.5,348.5l0,1l1,0c0,0,0,-1,0,-1l0,-1l1,0l0,1c1,0,1,0,1,-1l0,-1l0,1l0,1c0,1,0,1,0,1l-1,0l-1,0c0,1,0,1,-1,1c0,0,0,-1,0,-1l0,-1ZM261.5,365.5l-4,2c0,-1,0,-1,0,-1l4,-2ZM281.5,353.5l-1,-1l1,-2l1,1ZM281.5,362.5c0,0,-1,0,-1,0c-1,0,-1,0,-2,-1l-1,-1c0,0,0,-1,0,-2l0,-1l0,-1l1,0c0,0,0,-1,0,-1l1,0c0,0,-1,0,-1,1c0,0,0,1,0,1c0,1,0,1,0,1l0,1c0,0,1,0,1,1c1,0,1,0,1,0c0,0,1,0,2,0c0,0,1,0,2,0c0,0,1,-1,1,-1c1,0,1,-1,1,-1c0,0,0,-1,0,-1c0,-1,0,-1,0,-1l0,-1c-1,0,-1,0,-1,-1l0,-1l0,-2c0,1,0,1,1,1c0,1,0,1,0,1c0,1,0,1,0,1c1,0,1,1,1,1c0,0,0,1,0,1c0,0,0,1,0,1c0,1,0,2,-1,2c0,1,0,1,-1,2c0,0,-1,1,-2,1c0,0,-1,0,-2,0ZM278.5,345.5c0,1,1,1,1,1c0,-1,0,-1,0,-1l1,0l0,-1l0,1l1,0l0,-1l0,-1l0,1l0,1c0,1,0,1,0,1l-1,0l-1,0c0,1,0,1,0,1c-1,0,-1,0,-1,0c0,-1,0,-1,0,-1l0,-1ZM282.5,342.5l-5,3c0,-1,0,-2,0,-2l6,-3ZM358.5,363.5l-1,-1l1,-2l1,1ZM356.5,359.5l-1,0l-1,0l-1,0l-1,-1c0,0,-1,0,-1,0c-1,0,-1,1,-1,1c-1,0,-1,0,-1,0l-1,0l-1,0c-1,0,-2,0,-2,-1c-1,0,-1,-1,-1,-2l-1,-8l1,-2l1,10l0,1c1,0,1,0,2,0l1,0c1,0,1,0,1,0c1,0,1,0,2,0l1,-1c1,0,1,0,1,0c0,0,0,1,0,1c0,0,1,0,1,0l1,0l1,0c1,0,1,0,2,0l1,0l0,-1l-1,-1l0,-1l1,-1l0,1l0,1l0,1c0,1,0,1,0,1c0,1,0,1,0,1c0,0,-1,1,-2,1l-1,0ZM358.5,365.5l-4,2c0,-1,0,-1,0,-1l4,-2ZM351.5,355.5l-1,-1l1,-2l1,1ZM349.5,349.5l4,-2l0,1l-4,2ZM335.5,355.5c0,0,0,1,0,1l-1,0l-1,1l-2,1l2,0c1,0,2,0,3,-1c1,0,1,0,2,0c0,0,1,0,1,-1l-1,-1c0,0,-1,0,-1,0c0,0,-1,0,-1,0l-1,0ZM330.5,357.5l1,0l3,-2l0,-1c1,0,1,0,1,0c1,0,1,-1,1,-1c1,0,1,0,2,0c1,0,1,0,1,1c0,0,1,0,1,0l0,1l0,1c0,0,0,1,0,1l-1,0l0,1c0,0,-1,0,-2,0c0,1,-1,1,-2,1c-1,0,-2,0,-3,0l-1,0l-1,1c0,1,0,1,0,1l0,-1c0,-1,0,-1,0,-1c0,0,-1,0,-1,0c-1,-1,-1,-1,-1,-2c0,1,0,1,0,1l-1,1c0,0,-1,0,-1,0l-1,0l-1,0l-1,-1l0,-1c0,1,-1,1,-1,2c-1,0,-1,0,-2,0l-1,0c-1,0,-1,0,-1,0l0,-1l-1,0c0,0,-1,0,-1,0l-1,0l0,1c0,0,0,1,-1,1l0,1c0,0,1,1,1,1l0,1l0,1c-1,0,-1,1,-1,1c0,0,0,-1,-1,-1l0,-1c0,-1,-1,-2,-1,-2c0,-1,1,-2,1,-2c-1,0,-1,0,-2,0l-1,0l-1,0c-1,0,-1,0,-2,-1c0,0,-1,-1,-1,-2l0,-8l1,-2l0,10l1,0l0,1l1,0l1,0l1,0c1,0,2,0,2,0l1,0c0,-1,0,-1,0,-1c1,0,1,0,1,0c0,1,0,1,0,1c0,0,-1,0,-1,0l0,1c0,0,-1,1,-1,2c0,1,0,2,1,2c0,0,0,-1,0,-1c0,0,0,-1,0,-1c0,-1,0,-1,0,-1l1,-1c0,0,0,-1,0,-1l1,0l1,0c0,-1,0,-1,0,-1c0,0,1,1,1,1c0,0,1,0,1,0l1,0c1,0,1,0,1,0c1,0,1,0,1,0l1,-1l0,-1l0,1c0,1,1,1,1,1c0,0,1,0,1,0l1,0c1,0,1,0,1,0l1,0l0,-1c0,0,1,0,1,0c0,1,0,1,0,1c0,0,1,0,1,0ZM330.5,362.5l-4,2c0,0,0,-1,1,-1l4,-2ZM324.5,362.5l-1,-1l-1,2l-1,-1l0,-2l2,1l1,-1l1,1ZM321.5,349.5l4,-2l0,1l-4,2ZM318.5,354.5l-1,-1l-1,1l-2,-1l1,-1l2,1l1,-1l1,1ZM322.5,365.5l-5,2c1,-1,1,-1,1,-1l4,-2ZM309.5,349.5l4,-2l0,1l-1,0l-4,2ZM121.5,346.5c1,-1,1,-1,1,-1c1,0,1,0,2,0c0,0,1,0,1,0c1,0,1,1,1,1c-1,0,-1,1,-1,1l-1,1c-1,0,-1,0,-1,0l-1,0l1,-1c1,0,2,0,2,0c0,-1,-1,-1,-1,-1l-1,0c0,0,-1,0,-1,0c0,0,0,1,-1,1l0,-1ZM249.5,349.5c1,0,1,-1,1,-1c1,0,1,0,2,0c0,0,1,0,1,0c0,0,1,1,1,1c-1,1,-1,1,-1,1c0,0,0,1,-1,1l-1,0l-1,0l1,0c1,-1,1,-1,2,-1c0,0,-1,-1,-1,-1c0,0,-1,0,-1,0c0,0,-1,0,-1,1c0,0,-1,0,-1,0c0,-1,0,-1,0,-1ZM296.5,354.5l0,-1c1,0,1,0,1,0c0,0,0,-1,0,-1l0,-1l0,-1l0,-1l0,-1c0,0,0,-1,0,-1l1,1c-1,0,-1,0,-1,1l1,0l0,1l0,1l0,1l1,-1c0,0,1,0,1,0c0,0,1,0,1,0l0,1l0,1c-1,0,-1,0,-1,0c0,0,-1,1,-1,1c-1,0,-1,0,-1,0ZM300.5,352.5c-1,0,-1,0,-1,0l-1,0l-1,1l1,0l1,0c1,0,1,-1,2,-1c-1,0,-1,0,-1,0ZM289.5,358.5l0,-1l0,-1l0,-8l1,-3l0,11c0,1,0,1,0,1c0,1,0,1,-1,1ZM292.5,360.5l-4,2c0,-1,0,-1,0,-1l4,-2ZM286.5,294.5c0,-1,0,-1,0,-2c0,0,0,-1,0,-1l0,-1c0,0,1,0,1,1l0,1c0,1,0,1,0,1l0,1l-1,0ZM285.5,296.5l0,1l0,1c1,0,1,0,1,0c0,0,1,-1,1,-1l0,-1l0,1c1,0,1,0,1,0c0,0,1,0,1,-1l0,-1l0,1l0,1c0,1,0,1,0,1l-1,0c0,0,-1,0,-1,0l0,1c-1,0,-1,0,-1,0c-1,0,-1,0,-1,0l0,-1l0,-1ZM110.5,311.5l0,-1l0,-1l0,-9l1,-2l0,10c0,1,0,1,0,1l0,1c0,0,-1,1,-1,1ZM112.5,313.5l-4,1c1,0,1,-1,1,-1l4,-2ZM401.5,316.5l0,-1l0,-2l-1,-8l1,-2l1,10c0,1,0,1,0,1l0,1c-1,0,-1,0,-1,1Z" class="g1_21" />
<path fill-rule="evenodd" d="M353.5,571.5l4,-2l0,1c0,0,-1,0,-1,0l-4,2ZM121.5,588.5c0,0,-1,0,-1,0c-1,0,-1,0,-1,0c-1,0,-1,0,-2,0c0,0,-1,0,-1,0c0,-1,0,-1,0,-1c0,0,0,-1,0,-1c0,1,0,1,1,1c0,-1,1,-1,1,-1l1,0c0,-1,0,-1,0,-1l1,-1c-1,0,-1,0,-1,-1c0,0,-1,0,-1,0c0,-1,-1,-1,-1,-2c0,0,-1,-1,-2,-1c0,-1,0,-1,0,-1c-1,0,-1,-1,-1,-1c0,0,0,1,0,1c0,0,-1,0,-1,0l0,-1c-1,0,-1,0,-1,-1c0,-1,0,-1,0,-1c0,0,0,-1,0,-1c1,0,1,0,2,1c0,0,1,1,1,1c1,1,2,2,2,2c1,1,1,1,2,2c0,1,0,1,1,1c0,1,0,1,0,1l0,-1c1,-1,1,-1,1,-2c0,-1,0,-1,0,-2l0,-1c0,0,0,-1,0,-1c0,-1,0,-1,0,-1c0,0,0,-1,0,-1c0,0,0,-1,0,-1c1,0,1,0,1,0l0,1c0,1,0,1,1,1l-1,1c0,1,0,1,0,1c0,0,0,1,0,2l0,1c0,0,0,1,0,1c-1,1,-1,1,-1,2c0,0,0,1,0,1l0,1c0,0,0,1,0,1l0,1c0,1,0,1,0,1ZM120.5,585.5l0,1c-1,0,-1,0,-1,0c1,0,1,0,1,0l1,0c-1,0,-1,0,-1,0ZM211.5,572.5l0,-1c-1,-1,0,-1,0,-2c0,0,0,-1,0,-1l1,-1c0,0,1,0,1,0l-1,0l0,1l-1,1l0,1c0,0,0,1,0,1c1,0,1,0,1,0c0,0,1,0,1,0c0,1,0,1,0,1c0,0,0,1,0,1c0,0,-1,0,-1,0c0,0,-1,0,-1,-1ZM56.5,575.5c1,0,1,-1,1,-1c1,0,1,0,2,0c0,0,1,0,1,0c0,1,1,1,1,1c-1,1,-1,1,-1,1c0,0,0,1,-1,1l-1,0l-1,0l1,0c1,-1,1,-1,2,-1c0,0,-1,0,-1,-1c0,0,-1,0,-1,0c0,0,-1,0,-1,1c0,0,-1,0,-1,0c0,-1,0,-1,0,-1ZM369.5,573.5c0,-1,1,-1,1,-1c0,0,1,0,1,0c1,0,1,0,2,0c0,0,0,1,0,1c0,0,0,1,0,1c-1,0,-1,0,-1,1c0,0,-1,0,-1,0l-1,0c0,0,-1,0,-1,0l2,-1c1,0,1,0,2,-1c-1,0,-1,0,-1,0c-1,0,-1,0,-1,0c-1,0,-1,0,-1,0c-1,0,-1,0,-1,1l0,-1ZM98.5,577.5c0,-1,0,-1,0,-2c0,-1,0,-1,0,-2l0,-1c1,1,1,1,1,1c0,1,0,1,0,1l0,1l0,1c0,1,0,1,-1,1ZM73.5,585.5c-1,0,-1,0,-1,0l-1,0l-1,-1l-1,0c0,1,0,1,0,1l-1,0l0,1l-1,0l-2,0c0,1,0,1,0,1c0,1,0,2,0,2c0,1,-1,1,-1,2c-1,0,-2,1,-2,1c-1,0,-2,1,-3,1c0,0,-1,-1,-1,-1c-1,0,-2,0,-2,0c0,-1,-1,-1,-1,-2c0,0,0,-1,0,-1c0,-1,0,-1,0,-1l0,-1c0,-1,0,-1,0,-1c0,0,1,0,1,0c0,-1,0,-1,0,-1l1,0c-1,0,-1,1,-1,1l0,1c0,0,0,1,0,1c0,0,0,1,0,1c0,0,0,1,1,1l1,0c0,0,1,1,2,1c1,0,1,-1,2,-1c1,0,2,0,2,-1c0,-1,0,-1,0,-1c0,-1,0,-1,0,-1c0,-1,0,-1,0,-1c0,0,0,-1,0,-1l-1,0l1,-2l1,0c0,1,0,1,1,1l1,0l1,0c0,0,1,0,1,0l0,-1l1,-1c0,0,0,-1,1,-1c0,-1,0,-1,1,-1l1,1c0,0,0,1,0,1l0,1l0,1c0,0,0,1,0,1ZM71.5,583.5l1,0c0,0,0,-1,0,-1l-1,0c0,1,0,1,0,1ZM72.5,589.5l-5,2c1,-1,1,-1,1,-1l4,-2ZM60.5,583.5l-1,-1l1,-1l1,1ZM126.5,586.5l0,-2l0,-1l0,-8l0,-3l1,11c0,0,0,1,0,1c0,1,-1,1,-1,2ZM118.5,594.5l-4,2c0,-1,0,-1,1,-1l4,-2ZM119.5,568.5c0,0,1,0,1,0c0,0,1,0,1,0c0,0,1,0,1,0c1,0,1,0,1,0c0,0,0,1,0,1c0,0,-1,0,-1,0c0,1,0,1,0,1l-1,0l-1,0l-1,0l2,0c0,-1,1,-1,1,-1l-1,0c-1,0,-1,0,-1,0c0,0,-1,0,-1,0ZM106.5,576.5l-1,-1l1,-1l1,1ZM106.5,584.5c1,0,1,0,1,0c1,0,1,0,1,0c0,0,0,-1,0,-1l0,-1c0,-1,-1,-1,-1,-1l-1,0l0,-1c0,0,0,-1,0,-1c0,-1,0,-1,0,-1c1,0,1,0,1,1c1,0,1,0,1,1c1,1,1,1,1,1c0,1,0,1,0,2l0,1l0,1c-1,0,-1,0,-1,0l-1,0l0,1l-1,0l-1,0l0,-1l-1,0c0,0,0,-1,0,-1l0,-1l0,1c-1,0,-1,0,-1,1c-1,0,-1,0,-1,0c-1,0,-2,0,-2,-1l0,1c-1,0,-1,0,-2,1c-1,0,-1,-1,-2,-2l0,1c-1,0,-2,1,-3,1l0,-2l1,0l1,0c1,-1,1,-1,2,-2l0,1c0,0,0,1,1,1c0,0,1,0,1,-1c1,0,1,0,1,-1l1,0c0,0,0,1,0,1c0,0,1,0,1,0c0,0,1,0,1,0c0,-1,1,-1,1,-1c0,1,1,2,2,2ZM86.5,583.5l-2,-1l1,-1l2,1ZM90.5,583.5c0,1,1,1,1,1l2,0l0,2l-2,0c0,1,0,1,0,1c0,1,0,2,-1,2c0,1,0,1,-1,2c0,0,-1,1,-2,1c0,0,-1,1,-2,1c0,0,-1,-1,-2,-1c0,0,-1,0,-1,0c-1,-1,-1,-1,-1,-2c0,0,-1,-1,-1,-1c0,-1,0,-1,0,-1l1,-1c0,-1,0,-1,0,-1c0,-1,0,-1,0,-1c1,0,1,0,1,0c0,0,0,1,0,1l-1,1c0,0,0,1,0,1c0,0,0,1,1,1c0,0,0,1,0,1c0,0,1,0,1,0c1,0,2,1,2,1c1,0,2,-1,3,-1c1,0,1,0,2,-1c0,-1,0,-1,0,-1c0,-1,0,-1,0,-1c0,-1,0,-1,0,-1c0,0,0,-1,0,-1c0,0,-1,0,-1,0l1,-2ZM88.5,596.5l-4,2c0,-1,1,-1,1,-1l4,-2ZM153.5,577.5l-1,-1l1,-1l1,1ZM162.5,583.5l-1,0l-1,0c-1,0,-1,0,-2,0l-1,0l-1,0l0,1l-1,0c-1,0,-1,0,-2,1l-1,0c-1,0,-1,1,-2,1l-1,0c0,0,-1,-1,-1,-1c0,0,-1,-1,-1,-2c0,1,0,2,-1,2l0,1l-1,0l-1,0c0,1,0,1,0,1l0,1l-1,0c0,1,-1,2,-2,2c-1,1,-2,1,-3,1l-1,0c-1,0,-1,0,-2,0c0,0,-1,-1,-1,-1c-1,-1,-1,-1,-1,-2l0,-1c0,0,0,-1,0,-1c1,-1,1,-1,1,-2c0,-1,1,-1,1,-1l0,1l-1,1c0,0,0,1,0,2l0,1c1,0,1,0,1,1l1,0c0,0,1,0,1,0c1,0,1,0,1,0l1,0l1,0c0,0,1,0,1,-1c1,0,1,0,1,0c1,-1,1,-1,1,-1c0,-1,0,-1,0,-1l-1,0c-1,0,-1,-1,-1,-1c0,0,-1,0,-1,0c0,-1,0,-1,0,-1c0,-1,0,-1,0,-1c0,-1,0,-1,0,-1l1,-1l1,0c0,0,1,0,1,0c0,1,0,1,0,2c1,0,1,0,1,0c0,0,0,1,0,1l1,0l1,0c0,0,0,-1,1,-1l0,-1c0,-1,0,-1,0,-1l0,-1l-1,-6l1,-2l1,10c0,1,0,1,0,1c0,1,1,1,1,1l1,0c0,0,1,0,1,0c0,0,1,0,2,-1l1,0l1,0l1,-1l-1,0l-1,-1l-1,0l-1,0l-1,0c0,0,0,-1,0,-1c1,0,1,0,1,-1c0,0,1,0,1,0l1,0l0,1l1,0l2,1l1,0l1,0l1,0c0,0,1,0,1,0l1,0ZM153.5,572.5l4,-2l0,1l-5,2ZM103.5,567.5c1,-1,1,-1,1,-1c1,0,1,0,2,0c0,0,1,0,1,0c0,0,1,1,1,1c-1,0,-1,1,-1,1l-1,1c-1,0,-1,0,-1,0l-1,0l1,-1c1,0,1,0,2,-1c0,0,-1,0,-1,0l-1,0c0,0,-1,0,-1,0l-1,1l0,-1ZM145.5,564.5c0,0,1,0,1,0c1,0,1,-1,1,-1c1,0,1,1,2,1l0,1l0,1c0,0,-1,0,-1,0c0,0,-1,0,-1,0l-1,0l-1,0l2,0c1,0,1,-1,2,-1c-1,0,-1,0,-1,0c0,0,-1,0,-1,0c0,0,-1,0,-1,0c0,0,-1,0,-1,0l0,-1ZM142.5,579.5l-1,-1l-1,2l-1,-1l0,-2l2,1l1,-1l1,1ZM141.5,583.5c0,1,0,1,0,1l1,0c1,0,1,0,1,0l-1,-1l-1,0ZM136.5,572.5l4,-2l0,1l-5,2ZM196.5,582.5c0,0,-1,0,-1,0c1,1,1,1,1,1l1,0c0,-1,0,-1,0,-1c-1,0,-1,0,-1,0ZM196.5,589.5c0,0,0,1,0,1c-1,0,-1,0,-1,0c-1,0,-1,0,-2,0c-1,0,-1,0,-2,0l-1,-1c1,0,1,0,1,0c0,0,1,0,1,0l1,0c1,0,1,0,1,0l1,0c0,-1,0,-1,1,-1c0,-1,0,-1,0,-1c1,0,1,-1,1,-1c0,-1,1,-1,1,-1c0,-1,0,-1,0,-1c0,0,-1,0,-1,0l0,1c-1,0,-1,0,-1,0c0,0,-1,0,-1,0l0,-1l-1,0c0,0,0,-1,0,-1c0,0,0,-1,0,-1c1,0,1,0,1,0c0,-1,0,-1,0,-1c0,-1,1,-1,1,-1l1,0c0,0,1,0,1,1c0,1,0,1,0,1c0,1,0,1,0,2c0,0,0,1,0,1c0,1,0,2,0,2c-1,1,-1,1,-1,1c0,1,-1,1,-1,1ZM193.5,576.5l4,-2c0,1,0,1,0,1l-4,2ZM190.5,589.5l-1,-1l0,-1l2,1ZM187.5,586.5l-1,0l-1,0l-1,-1c0,0,-1,0,-1,0l0,-1l0,-1l-1,1l-1,1c0,0,-1,0,-1,0c0,0,-1,0,-2,0l-1,0l-1,0c0,0,0,-1,0,-1l0,-1l0,-1l1,0c0,0,0,1,0,1l1,0l1,0c1,0,1,0,1,0l1,0c0,0,1,0,1,0l0,-1l0,-1l0,-2l0,-1l0,-1l0,-1l1,2l0,1l0,3l1,1l0,1l1,0l1,0l1,0c1,0,1,0,2,0c0,0,1,-1,1,-1c0,-1,0,-1,0,-1l0,-1l-1,0l1,-2c0,0,0,1,0,1l1,0l0,1l0,1l0,1c0,1,0,1,0,1c0,0,-1,0,-1,0c0,1,0,1,-1,1c-1,0,-1,1,-2,1ZM187.5,572.5l5,-2l-1,1l-4,2ZM178.5,572.5l4,-2l0,1l-4,2ZM235.5,577.5l-1,-1l1,-1l1,1ZM244.5,583.5l-1,0l-1,0c-1,0,-1,0,-2,0l-1,0l-1,0l0,1l-1,0c-1,0,-1,0,-2,1l-1,0c-1,0,-1,1,-2,1l-1,0c0,0,-1,-1,-1,-1c0,0,-1,-1,-1,-2c0,1,0,2,-1,2l-1,0l0,1l-1,0l-1,0c-1,0,-2,-1,-2,-1c0,0,-1,0,-1,0c0,0,-1,0,-2,0c0,0,-1,1,-2,1c-1,0,-1,-1,-2,-1l-1,0c0,0,0,-1,0,-1c0,-1,0,-1,0,-1l-1,0c0,0,0,1,0,1l-1,0l-1,0c0,0,-1,0,-1,0l-1,0l0,-2c0,0,1,-1,2,-1c0,0,0,-1,1,-1c1,-1,1,-1,1,-1l0,-1l1,-1l0,1c0,1,0,1,0,1c0,1,0,1,0,1l1,3l0,1c0,0,1,0,1,0l1,0c1,0,1,0,1,0c0,0,1,0,1,0l1,0c-1,-1,-1,-1,-1,-1c0,0,0,-1,0,-1c0,0,0,-1,0,-1c1,-1,1,-1,1,-1c0,-1,1,-1,1,-1c0,0,1,-1,1,-1c1,0,1,1,1,1c1,0,1,1,1,1l0,1c0,1,0,1,-1,2l0,1c0,0,1,0,1,0l1,0l1,0l1,0c0,0,0,-1,1,-1l0,-1c0,-1,0,-1,0,-1l0,-1l-1,-6l1,-2l1,10c0,1,0,1,0,1c0,1,1,1,1,1l1,0c0,0,1,0,1,0c0,0,1,0,2,-1l1,0l1,0l1,-1l-1,0l-1,-1l-1,0l-1,0l-1,0c0,0,0,-1,0,-1c1,0,1,0,1,-1c0,0,1,0,1,0l1,0l0,1l1,0l2,1l1,0l1,0l1,0c0,0,1,0,1,0l1,0ZM235.5,572.5l4,-2l0,1l-5,2ZM226.5,569.5l4,-2l0,1l-4,2ZM223.5,577.5l-1,-1l-1,2l-1,-1l0,-2l2,1l1,-1l1,1ZM223.5,580.5c-1,0,-1,0,-1,1c-1,0,-1,0,-1,0c0,1,0,1,0,1c1,0,1,0,1,1c1,0,1,-1,1,-1c1,0,1,0,1,0c0,-1,0,-1,0,-1c-1,-1,-1,-1,-1,-1ZM219.5,569.5l4,-2l0,1c0,0,-1,0,-1,0l-4,2ZM214.5,580.5l-1,1c-1,1,-1,1,-1,1l1,0l1,0l1,-1ZM275.5,577.5l-1,-1l0,-2l2,1ZM277.5,579.5l-2,-1l-1,1l-1,-1l1,-1l1,1l1,-1l1,1ZM277.5,583.5c0,0,0,-1,0,-1l1,-1l0,1l0,1c0,0,1,0,1,0l0,1l1,0l0,-1c0,-1,-1,-1,-1,-1l1,-1l1,1l0,1l0,1l-1,0l0,1c0,0,-1,0,-1,0c0,0,-1,0,-1,0c0,0,-1,0,-1,0l-1,0c0,0,-1,1,-1,1l-1,0c-1,0,-1,-1,-1,-1c0,0,-1,0,-1,0c0,-1,0,-1,0,-1c-1,0,-1,0,-2,0c0,1,-1,1,-1,1c0,1,0,1,0,1l1,0c0,0,0,1,1,1c1,0,1,0,1,0c0,0,1,0,1,0c0,1,0,1,0,1c0,1,0,1,-1,1c0,1,0,1,0,1c-1,1,-2,1,-3,1c-1,1,-2,1,-4,1c-1,0,-1,0,-2,0c-1,-1,-1,-1,-2,-1c0,-1,0,-1,0,-1c-1,-1,-1,-2,-1,-2l0,-1c0,0,0,-1,1,-1c0,-1,0,-1,1,-2c0,0,0,1,0,2c-1,0,-1,1,-1,1c0,1,1,2,1,2c1,1,2,1,3,1c0,0,1,0,1,0c1,0,1,0,1,0c0,0,1,0,1,0c0,0,1,0,1,0l1,-1c1,0,1,0,1,0c0,0,1,0,1,-1c-1,0,-1,0,-2,0c-1,0,-2,0,-2,-1l0,-1c0,-1,0,-2,1,-2c0,-1,1,-1,1,-1c1,0,1,-1,1,-1c0,0,1,0,1,0c0,0,1,0,1,0l0,1l1,0c0,1,0,1,0,1c0,0,1,0,1,0c1,0,1,0,1,0c0,-1,0,-1,1,-1ZM272.5,569.5l5,-2l-1,1l-4,2ZM263.5,575.5c1,0,1,-1,1,-1c1,0,1,0,2,0c0,0,1,0,1,0c0,0,1,1,1,1c-1,1,-1,1,-1,1c0,0,0,1,-1,1l-1,0l-1,0l1,-1c1,0,1,0,2,0c0,-1,-1,-1,-1,-1c0,0,-1,0,-1,0c0,0,-1,0,-1,1l-1,0c0,-1,0,-1,0,-1ZM253.5,583.5l0,-1c1,0,1,0,1,-1c1,0,1,0,1,0l1,0c0,0,0,1,0,1l0,1l-1,0c0,0,-1,0,-1,0l0,1c0,0,1,0,1,0l1,0c1,0,1,0,1,0c0,0,0,1,0,1l-5,2c1,0,1,-1,1,-1c1,-1,1,-1,1,-1c0,0,-1,0,-1,0c0,-1,0,-1,0,-1c0,0,0,-1,0,-1ZM258.5,590.5l-5,2l0,-1l5,-3c0,1,0,2,0,2ZM253.5,590.5l0,-1l5,-3c0,1,0,1,0,2ZM309.5,573.5l-2,0c-1,1,-2,1,-4,2c-1,0,-2,1,-2,1l-1,0l0,1l1,0l2,1c0,1,1,1,1,2c0,0,1,1,1,1c0,1,0,1,0,2l0,1c0,0,-1,0,-1,1c-1,0,-1,0,-1,0c-1,0,-1,1,-2,1c-1,0,-1,-1,-2,-1c0,0,0,-1,0,-1l0,1l0,1c0,1,-1,1,-1,2c0,0,0,1,-1,1c0,0,0,1,-1,1l-1,0l-1,1c0,0,-1,0,-1,0l-1,0c0,0,-1,0,-1,0l0,-1c-1,0,-1,0,-1,0c-1,-1,-1,-1,-1,-1c0,-1,0,-1,0,-1c0,-1,0,-2,0,-2c0,-1,0,-1,0,-2l1,0l0,-1l1,0l-1,1c0,1,0,1,0,1c0,1,-1,1,-1,1c0,1,1,1,1,2c1,0,1,1,2,1c0,0,1,0,1,0c1,0,2,0,3,-1c1,0,1,-1,2,-1l0,-1l0,-3c0,0,0,-1,0,-2l0,-1l-1,-6l1,-2l1,10c0,0,0,1,0,1c0,0,1,1,1,1l1,0l1,0c0,0,1,0,1,0l1,0c0,-1,0,-1,0,-1c1,0,1,0,1,0c0,-1,0,-1,-1,-1c0,-1,-1,-1,-1,-2c-1,0,-1,0,-1,0c0,-1,-1,-1,-1,-1l-1,0c0,-1,0,-1,0,-1c0,0,0,-1,-1,-1l1,0l0,-1c0,0,0,-1,0,-1c0,0,1,0,1,0c0,-1,1,-1,3,-2c1,0,2,-1,4,-1c1,0,1,-1,2,-1ZM304.5,566.5l1,-1l1,0c0,0,0,1,0,1c0,0,0,1,0,1c0,1,0,1,0,1l0,1l-1,0l-1,1l-1,0l0,1l-1,0l0,-1l1,0l1,-1l1,0l-1,-1l0,-1l0,-1ZM305.5,567.5l0,-1c0,0,-1,0,-1,1l1,0ZM290.5,571.5l0,1c1,0,1,0,1,0l0,-1l1,-1l0,1c0,1,0,1,0,1c1,0,1,-1,1,-1l0,-1l0,1l0,1l0,1l-1,0l0,-1l-1,0l0,1l-1,0l0,-1l0,-1ZM294.5,568.5l-5,3c0,-1,0,-1,0,-1l6,-3ZM351.5,583.5l-2,0c0,0,-1,0,-2,0c-1,0,-1,0,-1,0l-1,1l-1,0c0,0,-1,0,-1,1c0,0,-1,0,-1,0c-1,0,-2,1,-3,1l-1,0l0,-1l-1,0c0,0,0,-1,0,-1l0,-1l-1,1l0,1c-1,0,-1,0,-2,0c0,0,-1,0,-1,-1l-1,1l-1,1c-1,0,-2,-1,-2,-2l-1,1c0,0,-1,0,-1,0l0,1l-1,0l-2,0c1,0,1,0,1,0c0,1,0,1,0,1c0,1,-1,2,-1,2c0,1,-1,1,-1,2c-1,0,-1,1,-2,1c-1,0,-2,1,-2,1c-1,0,-1,-1,-2,-1c-1,0,-1,0,-2,0c0,-1,0,-1,-1,-2c0,0,0,-1,0,-1c0,-1,0,-1,0,-1l0,-1c0,-1,1,-1,1,-1c0,-1,0,-1,0,-1l1,0c0,0,0,1,-1,1l0,1c0,0,0,1,0,1c0,0,0,1,0,1c0,0,1,1,1,1c1,0,1,0,1,0c0,0,1,1,2,1c1,0,2,-1,2,-1c1,0,2,0,2,-1l1,0c0,-1,0,-1,0,-1c0,-1,0,-1,0,-1c0,-1,0,-1,-1,-1c0,0,0,-1,0,-1l0,-2c0,0,1,0,1,0c0,1,0,1,1,1l1,0l1,0l1,0c1,-1,1,-1,2,-2l0,1c0,0,0,1,1,1c0,0,1,0,1,-1c0,0,1,0,1,-1l1,0c0,0,0,1,0,1l1,0l1,0c0,-1,0,-1,1,-1c0,1,1,2,1,2l1,0l1,0c1,0,1,0,2,-1c0,0,1,0,1,0l2,0l1,-1l-2,0l-1,-1l-1,0c-1,0,-1,0,-1,0l-1,0c0,0,1,-1,1,-1l1,-1c1,0,1,0,1,0c0,0,1,0,1,1l2,1l1,0c1,0,1,0,1,0c1,0,1,0,1,0c1,0,1,0,2,0l1,0ZM343.5,570.5l1,0c0,0,1,0,1,0c1,0,1,0,2,0l0,1l-1,1c-1,0,-1,1,-1,1c0,0,-1,0,-1,0c0,0,-1,0,-1,0l2,-1c0,0,1,0,1,-1c-1,0,-1,0,-1,0c-1,0,-1,0,-2,0c0,0,0,-1,0,-1ZM332.5,572.5l4,-2l0,1l-4,2ZM319.5,583.5l-1,-1l1,-1l1,1ZM318.5,576.5l4,-2c0,1,0,1,0,1l-4,2ZM398.5,586.5l0,-2l0,-1l0,-8l0,-3l1,11c0,0,0,1,0,1c0,1,-1,1,-1,2ZM391.5,586.5c-1,0,-1,0,-1,0l0,-1c-1,-1,-1,-1,-1,-2c0,1,0,1,0,1c0,0,-1,0,-1,1c0,0,-1,0,-2,0c0,0,-1,0,-1,0c0,0,-1,0,-1,0c-1,0,-1,0,-1,-1c0,0,0,-1,0,-1l0,-1c0,1,0,1,0,1c1,0,1,0,1,0c0,0,1,0,1,0c1,0,1,0,1,0c1,0,1,0,1,0c1,0,1,0,1,0c0,0,1,0,1,-1l0,-1c0,0,0,-1,-1,-2c0,0,0,-1,0,-1l0,-1c1,0,1,-1,1,-1l0,2l1,1c0,1,0,2,0,2c0,1,0,1,0,2l1,1l0,1c0,0,1,0,1,0c0,1,1,1,1,1l0,-1c0,-1,0,-1,0,-3c0,0,0,-1,0,-2l0,-1c0,-1,0,-1,0,-2c0,-1,0,-2,0,-3l0,-1l0,-1c0,0,1,0,1,0c0,0,0,1,0,1l1,0c0,1,0,1,-1,1c0,1,0,1,0,1c0,1,0,1,0,2c0,0,0,1,0,3c0,0,0,1,0,1c0,0,0,1,0,1c0,2,1,2,1,2c0,1,-1,1,-1,1l0,1c0,0,0,1,0,1l-1,0c-1,0,-1,0,-2,0l0,-1ZM392.5,567.5l0,1c1,1,1,1,1,1l0,-1l1,0l0,-1l0,1c0,0,1,0,1,0l0,-1l0,-1l1,0l0,1l0,1l-1,0c0,1,0,1,0,1l-1,0c-1,1,-1,1,-1,1c-1,0,-1,0,-1,0c0,-1,0,-1,0,-1l0,-1ZM397.5,565.5l-6,2c0,0,0,-1,1,-1l5,-3ZM388.5,575.5l-2,-1l1,-1l1,0ZM386.5,589.5l-4,2c0,-1,0,-1,0,-1l4,-2ZM379.5,579.5c-1,0,-1,0,-1,0c0,0,-1,0,-1,0c-1,0,-1,0,-2,1c-1,1,-1,1,-1,2l1,1c0,0,1,0,1,0l1,0c1,0,1,0,1,0c1,1,1,1,1,1c0,1,0,1,0,1c-1,1,-1,1,-1,1l-1,1c0,0,-1,1,-2,1c0,0,-1,0,-2,1c-1,0,-1,0,-2,0l-1,0c0,0,-1,0,-2,0c0,0,-1,-1,-1,-1c0,0,-1,-1,-1,-1c0,-1,0,-1,0,-2c0,-1,0,-1,0,-2c0,-1,0,-1,1,-2l0,-1l1,0l0,1c-1,0,-1,0,-1,1c0,1,0,1,0,1c0,0,0,1,0,1c0,1,0,1,0,1c0,0,0,1,1,1c0,1,1,1,3,1c1,0,2,0,3,0l2,-1l1,0c0,-1,0,-1,1,-1l-2,0c-1,-1,-2,-1,-2,-1c-1,0,-1,-1,-1,-1c0,0,0,-1,0,-1c0,0,0,-1,1,-1c0,-1,0,-1,0,-1c0,-1,1,-1,1,-1c0,0,0,-1,1,-1c0,0,1,-1,1,-1c1,0,1,0,2,0l1,0c0,0,0,1,0,1l-1,1ZM374.5,567.5c-1,1,-2,1,-3,1l-1,0l-1,0l0,-1c-1,1,-1,1,-1,2l-1,-1l1,0l0,-1l1,-1c1,1,2,1,3,1l1,0l1,0l0,-1l1,0ZM172.5,586.5l0,-1l0,-1l0,-9l0,-2l1,11l0,1c0,0,-1,1,-1,1ZM170.5,571.5l4,-2l0,1l-4,2ZM355.5,586.5l0,-1l0,-1l-1,-9l1,-2l1,11l-1,0l0,1c0,0,0,1,0,1Z" class="g1_21" />
</svg>