<?xml version="1.0" encoding="UTF-8" standalone="no"?>
<!DOCTYPE svg PUBLIC "-//W3C//DTD SVG 1.1//EN"
"http://www.w3.org/Graphics/SVG/1.1/DTD/svg11.dtd">
<svg version="1.1" xmlns="http://www.w3.org/2000/svg" xmlns:xlink="http://www.w3.org/1999/xlink">
<defs>
<style type="text/css"><![CDATA[
.g1_41{
stroke: #1F1A17;
stroke-width: 1;
stroke-linecap: butt;
stroke-linejoin: miter;
}
]]></style>
</defs>
<path fill-rule="evenodd" d="M343.5,49.5l1,0l1,0c1,0,1,1,2,1l0,-1l1,0c0,1,0,1,-1,1l-1,0l0,1l-1,-1l-1,0l-1,0c0,0,-1,0,-1,0c0,0,1,-1,1,-1ZM408.5,142.5l0,-1c0,0,0,-1,0,-1c0,-1,0,-1,-1,-2l1,0l0,-1c0,0,0,1,0,1c0,1,1,1,1,1l0,1c0,0,0,1,0,1l-1,0c0,0,0,1,0,1ZM243.5,147.5l1,-1l1,0c0,0,1,0,1,1c1,0,1,0,1,0c0,1,-1,1,-1,1c0,1,0,1,0,1c-1,0,-1,0,-1,0c-1,0,-1,0,-1,0l-1,0l1,0c1,-1,2,-1,2,-1c0,0,-1,0,-1,0l-1,0l-1,0l-1,0c0,0,0,-1,0,-1c0,0,1,0,1,0ZM161.5,145.5c0,0,1,0,1,0c0,0,1,0,1,0c1,0,1,0,2,0c0,1,0,1,0,1l0,1c-1,0,-1,0,-1,0c-1,0,-1,0,-1,1l-1,0c0,0,-1,0,-1,0l2,-1c1,0,1,-1,1,-1c-1,0,-1,0,-1,0c-1,0,-1,0,-1,0c-1,0,-1,0,-1,0c0,-1,0,-1,0,-1ZM47.5,144.5l1,0c0,-1,1,-1,1,-1c1,0,1,0,1,1c1,0,1,0,1,0c0,1,0,1,-1,1c0,1,0,1,0,1l-1,0c0,0,-1,0,-1,0l-1,0l2,0c0,0,1,-1,1,-1l-1,0c-1,0,-1,0,-2,0c0,0,0,-1,0,-1ZM112.5,154.5c-1,0,-1,0,-1,1l1,0c0,-1,0,-1,0,-1ZM112.5,162.5c-1,0,-1,0,-1,1l-1,0c0,0,-1,0,-1,0l-1,0c0,0,-1,0,-1,0c-1,0,-1,-1,-1,-1l1,0c1,0,1,0,1,0c0,0,1,0,1,0c1,0,1,0,1,-1c0,0,1,0,1,0c1,-1,1,-1,1,-1c0,0,0,-1,1,-1c0,-1,0,-1,0,-2c0,0,-1,0,-1,0l-1,0c0,0,-1,0,-1,0l0,-1c0,-1,0,-1,0,-1c0,-1,0,-1,1,-2c1,-1,1,-1,1,-1c0,0,1,0,1,1c0,1,1,1,1,1c0,0,0,1,0,1c0,1,0,1,0,2c0,1,0,2,-1,3c0,1,0,1,-1,1c0,0,0,1,0,1ZM109.5,149.5l4,-3l0,1l-1,1l-4,2ZM105.5,158.5l0,-1l0,-1l-1,-8l1,-3l1,11l0,1c-1,1,-1,1,-1,1ZM93.5,157.5c-1,1,-1,1,-1,1c0,0,-1,0,-1,0l-1,0l-1,0c0,0,-1,0,-1,0l-1,0l0,-1c0,0,-1,0,-1,0c-1,1,-1,1,-2,1l-1,0l-1,0l-1,0c0,0,-1,0,-2,0l-1,0c0,0,-1,0,-1,0c-1,0,-2,0,-2,0l-1,0l-1,0c-1,0,-1,0,-1,0c0,0,-1,0,-1,0l0,-1c-1,0,-1,0,-1,0l-1,0c0,1,0,1,-1,1l-1,0l-2,0c-1,0,-2,0,-2,0c-1,0,-1,-1,-1,-1l0,-1l0,-1l-1,1l-1,0l-4,2c-1,0,-1,0,-1,0c-1,0,-1,0,-1,0l-1,0l-1,0l-1,0c0,1,0,1,0,1c0,1,0,1,0,2c-1,0,-1,0,-1,1c0,0,-1,0,-1,1l-1,0l0,1c-1,0,-1,0,-1,0c0,0,-1,0,-1,0c-1,0,-1,0,-2,-1c0,0,-1,0,-1,0c0,0,1,0,1,0l1,0c0,0,1,0,1,0c1,-1,1,-1,1,-1c1,0,1,0,1,-1c1,0,1,0,1,0c0,-1,0,-1,1,-1c0,0,0,-1,0,-1c0,0,0,-1,0,-1c0,0,-1,0,-1,0c0,0,-1,0,-1,0l0,-1c-1,0,-1,0,-1,0c0,-1,0,-1,0,-1c0,0,1,0,1,0c0,0,0,-1,0,-1c0,-1,0,-1,0,-1c0,0,1,0,1,0l1,0c0,0,1,0,1,0c0,0,0,1,0,1l0,1l0,1c1,0,1,0,1,0l1,0c0,0,1,0,1,0c0,0,1,-1,1,-1c1,0,1,0,2,0l1,-1l1,0l-2,-1c0,0,-1,0,-2,0c0,0,-1,0,-1,0l-1,0l1,0l0,-1l0,-1c1,0,1,0,2,0l1,0c0,0,1,0,1,1c1,0,2,0,3,1c1,0,2,0,2,0c1,0,1,0,2,0l0,2l-1,0l-1,-1c0,1,0,1,0,1c0,0,1,0,1,1l1,0l2,0c1,0,1,0,1,0c1,0,1,-1,2,-1c0,0,1,0,1,0l0,-1c0,0,0,1,0,1c0,0,1,0,1,0c0,1,0,1,1,1l1,0l1,0c1,0,1,0,1,0c1,-1,1,-1,1,-1l0,-1c0,0,0,-1,0,-1c0,-1,0,-1,1,-1c0,-1,0,-1,0,-1c1,-1,1,-1,2,-1c0,0,1,0,1,1c0,0,0,1,0,1l0,1c0,0,0,1,0,1c0,1,-1,1,-1,1l1,1c1,0,1,0,1,0l1,0c1,0,1,0,1,0c1,0,1,-1,2,-1c1,0,1,0,1,0l0,-1c0,0,0,1,0,1c1,0,1,0,1,0c0,1,1,1,1,1l1,0l1,0c0,0,1,0,1,-1c0,0,1,0,1,0c0,0,0,-1,1,-1l0,1c0,0,1,1,1,1c1,0,1,0,1,-1c0,0,1,0,1,0l1,-1l0,-1l0,1l0,1c0,0,1,0,1,0l1,1l0,-1l0,-2c1,0,1,0,1,0l0,1l0,1c0,1,0,1,0,1c0,1,0,1,0,1c-1,0,-1,0,-1,0c0,0,-1,0,-1,0c0,0,-1,0,-1,0l0,-1l-1,0l0,1c0,0,-1,0,-1,0c-1,0,-1,0,-1,0l-1,0c-1,0,-1,-1,-1,-1ZM94.5,147.5c0,0,1,0,1,0c1,0,1,0,1,0c1,0,1,0,2,0l0,1c0,0,0,1,0,1c0,0,-1,0,-1,1c0,0,-1,0,-1,0l-1,0l-1,0l2,-1c1,0,1,0,2,-1c-1,0,-1,0,-1,0c0,0,-1,0,-1,0c0,0,-1,0,-1,0c0,0,-1,0,-1,1l0,-1l0,-1ZM87.5,153.5l-1,-1l-1,2l-1,-1l1,-2l1,1l1,-1l1,1ZM84.5,145.5l5,-2l-1,1l-4,2ZM79.5,150.5l-1,-1l1,-1l1,1ZM79.5,153.5l-1,0c0,1,0,1,0,1c0,0,0,1,0,1l1,1c0,-1,1,-1,1,-1l0,-1l0,-1c0,0,-1,0,-1,0ZM74.5,140.5c1,0,1,0,1,0c1,0,1,0,2,0c0,0,1,0,1,0c0,0,1,0,1,1c-1,0,-1,1,-1,1l-1,0c0,0,0,1,0,1c-1,0,-1,0,-1,0l-1,0l1,-1c1,0,1,0,2,-1c0,0,-1,0,-1,0l-1,0c0,0,-1,0,-1,0l-1,0c0,0,0,-1,0,-1ZM71.5,153.5l-1,-1l-1,2l-1,-1l0,-2l2,1l1,-1l1,1ZM68.5,145.5l4,-2l0,1l-4,2ZM57.5,143.5c1,-1,1,-1,1,-1c0,-1,1,-1,1,-1c1,1,1,1,1,1c0,1,0,1,0,1l-1,1l1,0l0,2l-1,-1l-1,0l0,1c-1,0,-1,1,-1,1l-1,0l-1,0l1,-1l1,0l0,-1l1,0l0,-1c-1,0,-1,0,-1,-1ZM59.5,143.5l-1,0l0,-1c0,0,0,1,0,1l1,1l0,-1ZM49.5,155.5l0,1l-1,0l1,0c0,1,1,1,1,1c0,-1,0,-1,0,-1l0,-1c-1,0,-1,0,-1,0ZM42.5,158.5l0,-1l0,-1l-1,-8l1,-3l1,11l0,1c-1,0,-1,0,-1,0c0,1,0,1,0,1ZM144.5,156.5c0,1,0,1,-1,2l0,1c-1,0,-1,1,-1,1l1,0l0,1l-1,0l0,1l-1,0l0,1c0,0,-1,0,-2,0l-1,1l-1,0l-1,0l-1,1l0,1l-3,0l-2,0l-1,0l0,-1c-1,-1,-1,-1,-1,-1c-1,0,-2,-1,-3,-1l-1,0l0,-1l-1,0l-1,-1l-1,-1l2,0l-1,-1l-1,-1l0,-1l0,-1l0,-1l0,-1l1,-1l0,-1l1,0l-2,-1c0,0,1,0,1,0l0,-1l1,0l1,-1l1,0l1,-1l2,-1l1,0l0,-1c1,0,1,-1,1,-1l2,0l3,0l0,1l1,0l0,1l1,0l2,1l1,0l0,1l1,0l0,1l1,0c0,0,1,1,1,1l-1,1l1,0l0,1l0,1l1,1ZM135.5,166.5l0,-1l1,0l0,-1l1,0c0,0,1,0,1,-1l1,0c1,0,1,0,2,-1c0,-1,1,-1,1,-1l1,0l0,-1l-1,0l0,-1l1,0l0,-1l0,-1l0,-1c0,-1,0,-2,0,-2c0,-1,0,-1,0,-1c-1,0,-1,-1,-1,-1l0,-1l1,0c0,0,-1,-1,-1,-1l-1,0l0,-1l-1,0l-2,-1l-1,0c0,0,-1,-1,-1,-1l-1,-1l-2,0l-1,0l-2,0l-1,0l0,1c-1,0,-1,1,-1,1l-2,0l-1,1l-1,0l0,1l-1,0c0,0,-1,1,-1,1l1,0l0,1l-1,0l0,1l0,1l0,1l-1,0l0,1l0,1l1,0l0,1c0,1,0,1,0,1l1,0l0,1l-1,0l0,1l1,0l0,1l1,0l1,1l1,0l1,0l1,1c0,0,1,0,1,0l0,1l1,0c0,1,0,1,0,1l2,0ZM140.5,151.5l-1,0l0,-1l-1,0c0,0,-1,0,-1,0l0,-1l1,0c0,0,1,0,1,1l1,0l0,1ZM140.5,161.5l-1,1l-1,0l-1,1l0,-1c0,0,1,0,1,0l1,-1l1,-1l0,1ZM136.5,163.5l0,1c-1,0,-1,0,-1,0l-3,0l-2,0c0,0,-1,0,-1,0c0,0,0,-1,0,-1c0,-1,0,-1,0,-1c0,0,1,0,1,-1l2,0l3,0l0,1l1,0ZM136.5,149.5l0,1c-1,0,-1,0,-1,0l-3,0l-2,0c0,0,-1,0,-1,0l0,-1c0,-1,0,-1,0,-1l1,0l2,0l3,0c1,0,1,0,1,0l0,1ZM135.5,151.5c1,0,1,0,1,0c1,0,1,0,1,0c1,0,1,1,1,1l1,1l1,-1l1,1l0,1l0,1l0,1l0,1l0,1c0,0,0,1,-1,1l-1,0l-1,1l-1,0l0,1l-1,0c0,0,-1,0,-1,0c0,-1,0,-1,0,-1l-3,0l-2,0l-1,0c0,1,0,1,0,1l-1,0l-1,-1l-1,0l0,-1l-1,0l-1,0l0,-2l-1,0l0,-1c0,-1,0,-1,0,-1c0,0,1,-1,1,-1l0,-1c0,-1,1,-1,1,-1l1,1c0,0,0,-1,0,-1l1,0l0,-1c1,0,1,0,1,0c1,0,1,0,1,0l1,0l2,0ZM135.5,160.5c1,0,1,0,1,0l1,0l1,0l1,-1l1,0l0,-1l1,0l0,-1l0,-1c0,-1,0,-1,0,-2c0,0,0,-1,-1,-1l0,-1l-1,1l-1,-1l-1,-1l-1,0l-1,0l0,1l-3,0l-2,0l-1,-1l-1,0c0,0,-1,0,-1,0l0,1l-1,0c0,1,0,1,0,1l-1,-1c0,0,0,1,-1,1l0,1l0,1l0,1l0,1l0,1c0,0,1,1,1,1l1,0l1,1l1,0c1,0,1,0,1,0c1,0,1,0,1,0l2,0l3,0ZM133.5,155.5l-1,0l1,0c0,1,0,1,0,1l0,1l-1,0c0,0,1,0,1,0l1,0c0,1,0,1,0,1c0,0,-1,0,-1,0c-1,0,-1,0,-1,0l0,-1l1,-1l-1,0l0,-1c1,-1,1,-1,1,-1ZM131.5,154.5l0,1c0,0,0,1,0,1l0,1l0,1l0,-1c0,-1,0,-1,-1,-2ZM124.5,151.5l1,0l0,-1l1,0l0,-1l1,0l1,0c0,1,0,1,0,1c-1,0,-1,0,-1,0c0,0,-1,0,-1,0l0,1l-1,0ZM124.5,161.5l1,-1c0,1,1,1,1,1l0,1l1,0l1,0l0,1l-1,0l0,-1c-1,0,-1,0,-2,-1l-1,0ZM184.5,154.5c0,0,-1,0,-1,1l1,0c0,-1,0,-1,0,-1ZM184.5,162.5c0,0,-1,0,-1,1l-1,0c0,0,-1,0,-1,0l-1,0c0,0,-1,0,-1,0c0,0,-1,-1,-1,-1c0,0,1,0,1,0c1,0,1,0,1,0c1,0,1,0,1,0c1,0,1,0,1,-1c1,0,1,0,1,0c1,-1,1,-1,1,-1c0,0,0,-1,1,-1c0,-1,0,-1,0,-2l-1,0c-1,0,-1,0,-1,0l-1,0l0,-1c0,-1,0,-1,0,-1c0,-1,1,-1,1,-2c1,-1,1,-1,1,-1c0,0,1,0,1,1c1,1,1,1,1,1c0,0,0,1,0,1c0,1,0,1,0,2c0,1,0,2,-1,3c0,1,0,1,0,1c-1,0,-1,1,-1,1ZM181.5,149.5l4,-3l0,1l0,1l-4,2ZM178.5,155.5c-1,0,-2,1,-3,1c-1,1,-2,1,-3,2c-1,0,-2,0,-3,0l-1,0c-1,0,-1,0,-1,0l-1,0c0,0,0,-1,0,-1c-1,0,-1,0,-1,0l-1,0c0,1,0,1,-1,1l-1,0l-2,0c-1,0,-1,0,-1,0l0,-1l-1,0c0,0,0,-1,0,-1l0,1l-1,0c0,1,-1,1,-1,1c-1,0,-1,0,-2,0l-1,0c0,0,-1,0,-1,0c0,-1,0,-1,0,-1l0,-1l0,-1c0,1,0,1,1,1l1,0l1,0c1,0,1,0,1,0l1,0c0,0,1,0,1,-1l0,-1l-1,-2l0,-1l1,-1l0,-1l0,2c1,0,1,0,1,1l0,2c0,1,0,1,0,1c0,1,0,1,0,1l1,0l0,1l2,0c1,0,1,0,1,0c1,0,1,-1,2,-1c0,0,1,0,1,0c0,0,0,-1,0,-1c0,1,0,1,0,1c0,0,1,0,1,0c0,1,0,1,1,1l1,0l1,0c1,-1,1,-1,1,-1c0,0,0,-1,0,-1c-1,0,-1,-1,-1,-1c0,-1,0,-1,0,-1c0,0,1,0,1,-1l0,-1c1,0,1,0,1,0c0,-1,1,-1,1,-1c0,0,1,0,1,0c1,0,1,0,1,0l1,0c0,1,0,1,0,1l1,0l0,1l-1,0l-1,-1l-1,0l-1,0c0,0,0,1,0,1c0,0,-1,0,-1,0c0,0,-1,1,-1,1c0,0,1,0,1,0c0,1,0,1,0,1c1,1,1,1,2,1c1,0,1,0,1,0c1,0,1,0,1,0l1,-1l1,0l0,-1ZM173.5,161.5l-4,3c0,-1,1,-1,1,-1l4,-3ZM166.5,162.5l-1,-1l-1,1l-1,-1l1,-1l1,0l1,-1l1,1ZM155.5,161.5l-4,3c0,-1,0,-1,0,-1l4,-3ZM231.5,154.5c0,0,-1,0,-1,1l1,0c0,-1,0,-1,0,-1ZM231.5,162.5c0,0,-1,0,-1,1l-1,0c0,0,-1,0,-1,0l-1,0c0,0,-1,0,-1,0c0,0,-1,-1,-1,-1c0,0,1,0,1,0l1,0c1,0,1,0,1,0c1,0,1,0,1,-1c1,0,1,0,1,0c1,-1,1,-1,1,-1c0,0,0,-1,1,-1c0,-1,0,-1,0,-2l-1,0c0,0,-1,0,-1,0l-1,0l0,-1c0,-1,0,-1,0,-1c0,-1,1,-1,1,-2c1,-1,1,-1,1,-1c0,0,1,0,1,1c1,1,1,1,1,1c0,0,0,1,0,1c0,1,0,1,0,2c0,1,0,2,-1,3c0,1,0,1,0,1c-1,0,-1,1,-1,1ZM228.5,149.5l4,-3l0,1l0,1l-4,2ZM217.5,151.5l-2,-1l1,-1l2,1ZM225.5,154.5l-1,2l-1,0l-1,0c-1,0,-1,0,-1,0l-1,1l-1,0l-2,1l-1,0l-1,0l-1,0c-1,0,-1,0,-1,0c0,0,-1,-1,-1,-1c0,0,0,-1,0,-1l-1,-9l1,-2l1,10l0,1c0,0,1,1,1,1c0,0,0,-1,0,-1c0,-1,0,-1,0,-1c0,-1,0,-1,0,-1l1,0l0,-1c0,0,1,0,1,0c0,0,0,-1,1,-1l1,0l1,1l2,0l1,1l1,0l1,0l1,0ZM220.5,155.5l-1,0c0,-1,-1,-1,-1,-1l-1,0l-1,0c0,0,-1,1,-1,1c0,1,0,1,0,1l0,1l1,0c0,-1,0,-1,0,-1l1,0l2,0l1,-1ZM215.5,142.5l4,-2l0,1l-1,0l-4,2ZM205.5,148.5l-2,-1l1,-1l1,0ZM205.5,151.5c0,0,1,0,1,0c1,0,1,0,1,0c0,0,-1,0,-1,0c0,-1,0,-1,0,-1c-1,0,-1,0,-1,0l0,1ZM208.5,150.5l0,1l0,1c0,0,0,1,0,1c0,1,0,1,0,1c0,0,0,1,0,1l-1,1l-1,1c-1,0,-2,0,-2,0c-1,1,-2,1,-3,1c-1,0,-2,1,-3,1c-2,0,-3,-1,-4,-1c-1,0,-2,0,-2,-1c-1,0,-1,0,-1,-1c0,0,0,-1,0,-1l0,-1l0,-1c0,0,1,-1,1,-1c0,0,0,1,0,1c0,0,0,1,0,1c0,0,0,1,0,1c0,0,1,1,2,1l1,0c0,1,1,1,2,1c0,0,1,0,2,0c1,0,1,0,2,0c0,-1,1,-1,1,-1c0,0,1,0,2,0c0,0,1,0,1,-1c1,0,1,0,1,0c1,0,1,0,1,-1c0,0,1,0,1,0c0,-1,0,-1,0,-1c0,0,-1,0,-1,0l-1,0c0,1,0,1,0,1c-1,0,-1,0,-1,-1c-1,0,-1,0,-1,0c0,0,0,-1,0,-1c0,-1,0,-1,0,-1c0,0,0,-1,0,-1c0,0,1,-1,1,-1c0,0,1,-1,1,-1l1,0c0,1,0,1,0,1c0,0,1,1,1,1ZM194.5,145.5l4,-2l0,1l-4,2ZM278.5,158.5l-1,0l-1,0c0,0,0,-1,0,-1l-1,0l-1,0c0,1,0,1,0,1l-1,0l-1,0l-1,0l-1,0c-1,0,-1,0,-2,0c0,0,-1,0,-1,0c0,0,-1,0,-2,0c0,0,-1,0,-2,0l-1,0c-1,0,-2,0,-2,0c-1,-1,-1,-1,-1,-2l-1,-9l1,-2l1,10l0,1c1,0,1,1,2,1l1,0l1,0c1,0,1,0,1,0c0,-1,1,-1,1,-1l-1,0l0,-1c0,0,0,-1,1,-1c0,-1,0,-1,0,-1c1,-1,1,-1,1,-1c0,-1,1,-1,2,-1l1,1c0,0,0,1,0,1l0,1c0,1,0,1,0,1c-1,1,-1,1,-1,1c0,0,0,1,0,1c1,0,1,0,1,0c0,0,1,0,1,0l1,0l1,0c0,0,1,0,1,0l0,-1l1,-1c0,-1,1,-1,1,-1l0,-1c0,0,1,0,1,0c0,0,1,0,1,0c0,1,0,1,0,2l1,0l0,1c0,0,0,1,0,1l-1,0c0,0,0,1,0,1ZM276.5,156.5l1,0c0,-1,0,-1,0,-1c-1,0,-1,0,-1,0l0,1ZM273.5,145.5l4,-2l0,1l-4,2ZM269.5,150.5l-2,-1l-1,1l-1,-1l1,-1l1,1l1,-1l1,0ZM268.5,153.5c0,0,-1,0,-1,0c0,1,-1,1,-1,1c0,0,0,1,1,1l0,1c1,-1,1,-1,2,-1l0,-1l0,-1c0,0,-1,0,-1,0ZM264.5,142.5l4,-2l0,1l-4,2ZM249.5,158.5c0,-1,0,-1,1,-1c0,-1,1,-1,2,-1l0,-1l0,-2l1,1l1,0c0,0,1,0,2,1l-1,2l-1,0l-1,0l-1,0c-1,0,-2,1,-2,1l1,0c0,1,0,1,1,1c0,0,1,0,1,0c0,1,0,1,0,1c0,0,0,1,0,1c-1,0,-1,0,-1,0c0,1,0,1,0,1c0,0,-1,0,-1,1c-1,0,-2,1,-2,1c-1,0,-2,0,-3,0c-1,0,-2,0,-2,0c-1,0,-2,-1,-2,-1c0,0,0,-1,-1,-1c0,0,0,-1,0,-1c0,-1,0,-1,0,-1c0,0,0,-1,0,-2c1,0,1,-1,1,-2l1,0c0,1,0,1,0,1c0,0,-1,1,-1,1c0,1,0,1,0,1c0,1,0,1,0,1c0,1,0,1,1,2c1,0,2,0,3,0c1,0,1,0,2,0l1,0c0,0,1,0,2,-1l1,-1c-1,0,-1,0,-2,0c-1,0,-1,0,-1,0c0,0,0,-1,0,-1c0,0,-1,0,-1,0c0,0,1,0,1,-1ZM255.5,166.5l-5,2c1,0,1,-1,1,-1l4,-2ZM321.5,151.5l-2,-1l1,-1l2,1ZM329.5,154.5l-1,2l-1,0l-1,0c-1,0,-1,0,-1,0l-1,1l-1,0l-2,1l-1,0l-1,0l-1,0c-1,0,-1,0,-1,0c-1,0,-1,-1,-1,-1c0,0,0,-1,0,-1l-1,-9l1,-2l1,10l0,1c0,0,0,1,1,1c0,0,0,-1,0,-1c0,-1,0,-1,0,-1c0,-1,0,-1,0,-1c0,0,1,0,1,-1l1,0c0,0,0,-1,1,-1l1,0l0,1c1,0,1,0,1,0l2,0l1,1l1,0l1,0l1,0ZM324.5,155.5l-1,0c0,-1,-1,-1,-1,-1l-1,0l-1,0c0,0,-1,1,-1,1c0,1,0,1,-1,1l0,1l1,0l1,0c0,-1,0,-1,0,-1l1,0l1,0l1,-1ZM319.5,142.5l4,-2l0,1c-1,0,-1,0,-1,0l-4,2ZM309.5,147.5l0,1l-2,-1l1,-1ZM313.5,154.5c0,1,0,1,0,1l-1,0c0,1,0,1,0,1c0,0,0,1,-1,1c0,0,-1,0,-1,1c-1,0,-1,0,-2,0c-1,0,-3,1,-4,1c-1,0,-1,0,-2,0c0,0,-1,0,-1,0c-1,0,-1,0,-1,0c-1,0,-2,0,-3,0c0,0,-1,0,-2,0c-1,0,-1,0,-2,0c0,0,-1,-1,-1,-1c-1,0,-2,0,-2,0c-1,0,-2,-1,-2,-1c-1,0,-1,0,-1,-1c-1,0,-1,-1,-1,-1l1,0c0,1,1,1,1,1c1,0,1,0,2,0c0,1,1,1,2,1c0,0,1,0,2,0c0,0,1,0,2,0c0,0,1,0,1,0c1,0,2,0,3,0c0,0,1,0,1,0c2,0,3,0,3,0c0,0,1,0,1,0c1,0,1,0,2,0l1,-1c1,0,1,0,1,0c1,0,1,0,2,0l0,-1c1,0,1,0,1,0c0,0,0,-1,0,-1c-1,-1,-1,-1,-1,-1c0,0,0,1,0,1c-1,0,-1,0,-1,0c-1,0,-1,0,-1,0c0,0,-1,-1,-1,-1l0,-1c0,0,0,-1,0,-1c1,-1,1,-1,1,-2c0,0,1,0,1,0c0,0,1,0,1,0c0,0,0,1,0,1c1,0,1,0,1,0c0,1,0,1,0,1c0,0,0,1,0,1c0,0,1,0,1,1l0,1ZM311.5,152.5c0,0,0,-1,0,-1l-1,0c0,0,-1,0,-1,0l0,1c1,0,1,0,1,0c1,0,1,0,1,0ZM294.5,149.5l1,0l3,-1l5,-2l5,-2l1,0l-2,1l0,1l-1,0l-1,0l-1,1l-6,2l-4,1ZM359.5,157.5c1,0,1,0,1,0c1,0,1,0,1,-1c0,0,1,0,1,0l0,-1l0,-2l-1,-6c0,0,0,-1,0,-1l0,-1c1,0,1,0,1,0l0,1c0,0,1,0,1,0c0,0,0,1,0,1c0,0,0,1,0,1l-1,0c0,0,0,1,1,2c0,0,0,1,0,2c0,1,0,1,0,2l0,1l0,1l-1,1l0,1c0,0,-1,0,-1,0l-1,0l-1,0l-1,0c0,0,-1,0,-1,0l-1,-1c0,1,0,1,-1,2c0,0,-1,0,-1,-1l-1,0l-2,-1l-1,1l-1,0l-1,0l-2,0c0,0,0,1,0,1l0,1c0,1,0,2,0,2c0,1,-1,1,-1,2c-1,0,-2,1,-2,1c-1,0,-2,0,-3,0c0,0,-1,0,-1,0c-1,0,-1,0,-2,-1c0,0,-1,0,-1,-1c0,0,0,-1,0,-2c0,-1,0,-1,0,-1l0,-1c0,0,1,-1,1,-1l1,0c-1,0,-1,0,-1,1c0,1,0,1,0,1l0,1l0,1l1,1l1,0c0,0,1,0,2,0c1,0,1,0,2,0c1,0,2,-1,2,-1l0,-1l0,-1l0,-1c0,-1,0,-1,0,-1l-1,-1l1,-2c0,0,0,1,0,1l1,0c0,0,0,1,1,1l1,0l1,0c1,0,1,0,1,-1l1,0l0,-1c1,-1,2,-2,3,-2l1,1l0,1l1,1l1,0l0,1l1,0l1,0ZM364.5,161.5l-4,3c0,-1,0,-1,0,-1l4,-3ZM355.5,157.5l0,-1c-1,-1,-1,-1,-1,-1l-1,0l-1,1c1,0,1,0,2,0l0,1ZM351.5,145.5l4,-2l0,1l-4,2ZM341.5,156.5l-1,-1l1,-1l1,1ZM340.5,143.5c1,0,1,0,1,0c1,0,1,-1,2,-1c0,0,1,1,1,1c1,0,1,0,1,0l0,1c0,0,-1,0,-1,1l-1,0c-1,0,-1,0,-1,0l-1,0l1,0c1,0,2,-1,2,-1c0,0,-1,0,-1,0l-1,0c0,0,-1,0,-1,0l-1,0l0,-1ZM410.5,148.5l-2,-1l1,-2l2,1ZM414.5,157.5l-1,0l0,1c-1,0,-2,0,-2,0l-1,0l-1,1l-1,-1l-1,0l0,-1c0,0,1,0,1,0l0,-1l1,0c0,0,1,0,2,0l1,0l1,0l0,-1l0,-1l-1,-1l-1,-1l-1,0l0,-2c0,0,1,0,1,0c0,0,1,0,1,0c0,1,0,1,0,1c0,0,1,0,1,0c0,1,0,1,0,2c1,0,1,0,1,1l0,1c0,1,0,1,0,1c0,1,0,1,0,1ZM398.5,158.5c-1,0,-1,0,-2,0c0,0,-1,-1,-1,-2c0,1,0,1,-1,2c0,0,-1,0,-1,0c-1,0,-1,0,-2,0c-1,0,-2,0,-3,0c0,0,-1,0,-2,0c-1,1,-2,1,-2,1c-2,0,-3,0,-4,-1c-1,0,-3,0,-4,0c-1,0,-1,0,-2,0l-1,0c-1,0,-1,0,-1,0c-1,0,-1,0,-1,0c0,-1,0,-1,0,-1c0,0,1,0,1,0c1,0,2,0,3,0l1,0c1,0,2,0,4,0c1,0,2,0,4,0c1,0,2,0,2,0c1,0,2,0,3,0c1,0,1,0,2,0c1,0,1,0,2,0c1,-1,1,-1,1,-1l1,0c0,0,0,-1,0,-1c0,-1,0,-1,0,-1c0,0,0,-1,0,-1l-1,-7l1,-2l1,11c0,0,0,1,0,1c1,0,1,0,1,1l1,0l1,0l1,-1l0,-1l0,-2l0,-6c0,0,0,-1,0,-1l0,-1l1,0l0,1l1,0c0,0,0,1,-1,1c0,0,0,1,0,1c0,0,0,1,0,2c0,0,0,1,0,2c0,1,0,1,0,2l0,1l0,1l0,1c-1,0,-1,0,-1,1c0,0,-1,0,-1,0c0,0,-1,0,-1,0ZM403.5,161.5l-5,3c1,-1,1,-1,1,-1l4,-3ZM386.5,154.5c-1,0,-1,0,-1,1c0,0,-1,0,-1,0c0,0,-1,0,-1,0c-1,0,-1,0,-1,0l0,-1c1,0,1,0,2,0c1,0,1,0,1,-1l-1,0c0,0,-1,0,-1,0c0,0,0,-1,0,-1c0,0,0,-1,0,-1c1,0,1,-1,1,-1c0,0,1,-1,1,-1c0,0,1,0,1,0l-1,1c0,0,-1,1,-1,1c1,0,1,0,1,0c0,1,0,1,0,1c1,0,1,0,1,0l0,1l0,1ZM379.5,149.5l3,-1l5,-2l5,-2l1,0l-1,1l-1,0l0,1l-2,0l-1,1l-6,2l-3,1l-1,0ZM159.5,112.5l-1,0c0,0,-1,0,-1,0c0,0,-1,1,-1,1c-1,0,-1,0,-1,0l-1,0c0,0,0,-1,0,-1c0,0,0,-1,0,-1c0,0,1,0,1,0c1,0,1,-1,1,-1c0,0,1,0,1,0c0,0,0,-1,0,-1c0,0,1,0,1,0c0,-1,-1,-1,-1,-1c0,-1,0,-1,-1,-1c0,-1,0,-1,-1,-2c0,0,-1,-1,-1,-1c-1,0,-1,-1,-1,-1c0,0,-1,0,-1,0c-1,0,-1,0,-1,0c0,-1,-1,-1,-1,-1c0,-1,0,-1,0,-1l0,-1c0,-1,0,-1,0,-1c0,0,1,0,1,0c0,0,0,1,1,1c0,0,1,1,1,1c1,1,2,2,2,2c1,1,1,2,2,3c0,0,1,0,1,1l0,1c0,-1,1,-1,1,-2c0,0,0,-1,0,-2c0,0,0,-1,0,-1c0,-1,0,-1,0,-2c0,0,0,-1,0,-1c0,-1,0,-1,0,-1c0,0,0,-1,0,-1l1,-1l0,1l0,1c0,0,1,0,1,0c0,0,0,1,0,1c0,0,-1,0,-1,1c0,1,0,1,0,2c0,0,0,1,0,1c0,0,0,1,0,1c0,1,-1,1,-1,2c0,1,0,1,0,1c0,0,0,1,0,1c0,1,0,1,0,1l0,1l0,1ZM158.5,109.5l0,1c-1,0,-1,1,-1,1l1,0l1,-1ZM328.5,98.5l1,0c0,0,1,0,1,0c1,0,1,0,2,0l0,1c0,0,0,1,-1,1l0,1c-1,0,-1,0,-1,0c0,0,-1,0,-1,0c0,0,-1,0,-1,0l2,-1c0,0,1,0,1,-1c-1,0,-1,0,-1,0c-1,0,-1,0,-2,0c0,0,0,-1,0,-1ZM32.5,114.5l0,-1l1,0l1,-1l0,-1l-1,-1l0,-1l0,-1l0,-1l1,1c0,0,0,1,0,1l0,1l0,1l0,1l0,1l1,-1c1,-1,1,-1,1,-1c1,0,1,0,1,0c0,1,1,1,1,1l0,1c0,0,-1,0,-1,0c0,1,0,1,-1,1l-1,0c0,0,-1,0,-1,0ZM36.5,112.5c0,0,-1,0,-1,0l0,1l-1,0c0,0,1,0,1,0c0,0,1,0,1,0c0,0,1,0,1,0c0,0,0,-1,0,-1c-1,0,-1,0,-1,0ZM354.5,89.5c0,-1,0,-1,0,-2c0,0,-1,-1,-1,-1l0,-1l1,0l0,1l0,1c0,1,0,1,0,1l0,1ZM353.5,91.5l0,1l0,1l1,0c0,0,0,-1,0,-1l0,-1l1,0l0,1c1,0,1,0,1,-1l0,-1l1,0l0,1l0,1l-1,0c0,1,0,1,0,1l-1,0l-1,0l0,1c0,0,-1,0,-1,0c0,0,-1,0,-1,0l0,-1l0,-1ZM85.5,115.5l-1,-1l1,-1l1,1ZM83.5,112.5l-1,0c-1,0,-1,0,-2,-1l-1,0l0,-1l-1,0l-1,0l0,1c0,0,-1,0,-1,0l-1,0l0,1l-1,0l-2,0c-1,0,-1,0,-1,0c0,-1,0,-1,0,-1l-1,0l0,-1l0,-1l0,1l-1,0l0,1c-1,0,-1,0,-2,0c0,0,-1,0,-1,0l-1,0l-1,0c0,0,-1,-1,-1,-1c0,-1,0,-1,0,-1l1,0l0,-1c0,1,0,1,0,1l1,0l0,1l1,0l1,0l0,-1c1,0,1,0,1,0c1,0,1,0,1,0l1,-1l-1,-1l0,-2l0,-1l0,-1l1,-1l0,2c0,0,0,1,0,1l1,3l0,1l0,1l1,0l2,0c1,0,1,0,1,0l1,0l0,-1l1,0l0,-1c-1,0,-1,0,-2,0l1,-2l1,0c0,0,1,-1,1,-1c0,0,0,1,1,1c1,0,1,0,1,0c0,0,0,1,0,1c0,0,0,1,0,1l0,1l-1,0l1,0c0,0,0,1,0,1l1,0l1,0l1,0c1,0,1,0,2,0c0,0,0,-1,1,-1c0,0,0,-1,-1,-1l0,-1l1,-2c0,0,0,1,0,1l0,1l0,1l0,1c0,1,0,1,0,1c0,1,-1,1,-2,1c0,1,0,1,-1,1ZM83.5,99.5l4,-3l0,1l0,1l-4,2ZM74.5,97.5c0,0,1,0,1,0c0,0,1,0,1,0c1,0,1,0,2,0c0,1,0,1,0,1l0,1c-1,0,-1,0,-1,0c0,0,-1,0,-1,0c0,1,0,1,-1,1c0,0,-1,0,-1,-1l2,0c1,0,1,-1,1,-1c-1,0,-1,0,-1,0c-1,0,-1,0,-1,0c-1,0,-1,0,-1,0c0,-1,0,-1,0,-1ZM67.5,115.5l-4,2c0,-1,0,-1,0,-1l4,-2ZM59.5,111.5c0,0,-1,0,-2,0c0,0,0,-1,-1,-1c-1,0,-1,0,-1,1l-1,0c-1,0,-1,0,-1,0c-1,0,-1,0,-1,1l-1,0l-3,0c0,0,-1,-1,-1,-1l0,1l0,1c-1,1,-1,1,-1,1c0,0,-1,0,-1,-1c0,0,-1,-1,-1,-2l0,-1c0,1,-1,1,-1,1l-1,0l0,1c0,0,-1,0,-1,1l1,0l0,1l0,3l1,1c0,1,0,2,0,2l0,1l-1,0l0,-1l0,-2l-1,-2l0,-2l0,-1l0,-1c0,-1,1,-2,1,-2l0,-1l1,0l1,0l0,-1l1,0c0,0,1,1,2,1l2,1l1,0l2,0l1,0c0,0,1,-1,1,-1c0,0,-1,0,-1,0c0,-1,0,-1,1,-1c0,-1,0,-1,0,-1c0,-1,0,-1,0,-1c1,0,1,0,1,-1l0,-1c0,0,0,-1,1,-1c0,1,1,1,2,2c0,0,1,1,1,1c0,0,1,1,1,1c0,1,0,1,0,1c0,0,0,1,0,1l0,1c0,1,0,1,0,1c0,0,-1,0,-1,0ZM56.5,107.5c-1,-1,-1,0,-1,0l-1,0l0,1l1,0l0,1c1,-1,1,-1,1,-1c0,-1,0,-1,0,-1ZM57.5,107.5l0,1c0,0,0,1,0,1l2,0c0,-1,0,-1,-1,-1l0,-1c0,0,-1,0,-1,0ZM56.5,115.5l-4,2c0,-1,0,-1,0,-1l4,-2ZM41.5,101.5c0,0,0,-1,1,-1c0,0,1,0,1,0c1,0,1,0,1,0c1,1,1,1,1,1c0,1,0,1,-1,1c0,0,0,1,0,1c0,0,-1,0,-1,0c0,0,-1,0,-1,0l-1,0l2,0c0,-1,1,-1,1,-1l-1,-1c-1,0,-1,0,-2,1c0,-1,0,-1,0,-1ZM111.5,111.5l-1,0c-1,0,-1,0,-1,0l-1,-1c-1,1,-1,1,-1,1l0,1l-1,0l-1,0l-1,0l0,1c0,1,0,2,-1,2c0,1,0,1,-1,2c-1,0,-1,1,-2,1c-1,0,-1,1,-2,1c-1,0,-1,-1,-2,-1c-1,0,-1,0,-1,0c-1,-1,-1,-1,-1,-2c-1,0,-1,-1,-1,-1c0,-1,0,-1,0,-1c0,-1,0,-1,0,-1l1,0c0,-1,0,-1,0,-1c0,-1,0,-1,0,-1l1,0c0,0,0,1,-1,1l0,1c0,0,0,1,0,1c0,0,0,1,0,1c0,0,1,1,1,1l1,0c1,1,1,1,2,1c1,0,2,0,2,-1c1,0,2,0,2,-1c0,0,1,0,1,0c0,-1,0,-1,0,-1c0,-1,0,-1,0,-1c0,-1,0,-1,0,-1c-1,0,-1,-1,-1,-1l1,-2c0,1,1,1,1,1l1,0l1,0c1,0,1,0,1,0l1,-1l0,-1c0,0,1,-1,1,-1c1,-1,1,-1,1,-1c1,0,1,0,1,1c0,0,0,1,1,1l0,1l0,1c-1,1,-1,1,-1,1ZM109.5,109.5l1,0l1,0c0,0,-1,-1,-1,-1c-1,0,-1,0,-1,0l0,1ZM110.5,115.5l-4,2c0,-1,0,-1,0,-1l4,-2ZM99.5,109.5l-2,-1l1,-1l1,1ZM98.5,103.5l-1,1l-1,0l-1,0l0,1l1,3l-1,0c0,1,0,1,0,1l0,-1l0,-1l0,-1l0,-1c0,-1,0,-1,0,-1c0,-1,0,-1,0,-1l1,0l0,-1l-1,0l0,1l0,-1c0,-1,1,-1,1,-1c0,0,1,0,1,1c0,0,1,1,1,1ZM165.5,112.5l0,-2l0,-1l-1,-8l1,-3l1,11c0,0,0,1,0,1c-1,0,-1,0,-1,0c0,1,0,1,0,2ZM149.5,93.5l4,-2l0,1l-4,2ZM159.5,94.5c0,-1,1,-1,1,-1c0,0,1,0,1,0c0,0,1,0,1,0c0,0,1,1,1,1c-1,0,-1,1,-1,1l-1,0c-1,1,-1,1,-1,1c0,0,-1,-1,-1,-1l2,0c0,0,1,0,1,-1c0,0,-1,0,-1,0c-1,0,-1,0,-1,0c0,0,-1,0,-1,0ZM140.5,115.5l1,0c1,0,2,0,3,-1c0,0,1,-1,1,-1c1,0,1,-1,1,-2c1,0,1,0,1,0c0,-1,0,-1,0,-1c0,-1,0,-1,0,-1l-1,-1l0,-2l1,1l0,1l1,1l0,1c0,0,0,1,-1,1c0,0,0,1,0,1l0,1l-1,1l0,1c-1,0,-1,0,-1,0l-1,0c0,1,0,1,-1,1l-1,0l-1,0l0,-1c0,0,-1,0,-1,0ZM142.5,101.5c0,0,0,-1,0,-1c1,0,1,0,2,0c0,0,1,0,1,0c1,1,1,1,1,1c0,1,-1,1,-1,1c0,0,0,1,-1,1c-1,0,-1,0,-1,0l-1,0l1,0c1,-1,2,-1,2,-1c0,0,-1,0,-1,-1l-1,0l-1,1l-1,0c0,-1,0,-1,0,-1l1,0ZM133.5,105.5l-2,-1l1,-2l1,1ZM130.5,112.5l0,1c0,0,0,1,0,1l-1,-1l0,-1c0,0,-1,0,-1,0c0,0,0,1,0,1c0,1,0,1,0,1c0,0,0,1,0,1c0,1,-1,1,-1,1c0,1,0,1,-1,1c0,0,0,1,-1,1c0,0,-1,0,-1,0c0,1,-1,1,-1,1l-1,0c0,0,-1,0,-2,-1c0,0,-1,0,-1,0c-1,-1,-1,-1,-1,-2c0,0,0,-1,0,-1l0,-1c0,-1,0,-1,0,-1l0,-1c0,0,1,-1,1,-1l1,0l-1,0c0,1,0,1,0,1c0,1,0,1,0,2c0,0,0,1,0,1c0,1,0,1,1,1c0,0,1,1,1,1l1,0c1,0,1,0,2,0c1,0,1,-1,2,-1c0,0,1,-1,1,-1c0,-1,1,-1,1,-2c0,-1,0,-1,-1,-2l0,-1l1,-1c0,1,0,1,1,1l1,0l1,0l0,-1l1,0l1,-1l1,-1l1,-1c1,0,1,0,1,0c1,0,1,0,1,0c1,0,1,0,1,0c1,0,1,0,1,0c0,0,1,1,1,1c0,1,0,1,0,1c0,1,0,1,0,1l-1,1c0,1,-1,1,-2,1l-1,0c0,0,0,1,-1,1l-1,0l-1,0l-1,0ZM135.5,108.5l-1,0l-1,1l-2,1l3,0c1,0,1,0,1,0c1,0,2,0,2,0c1,-1,1,-1,2,-1l0,-1c-1,0,-1,0,-1,0c0,0,-1,0,-1,0c-1,0,-1,0,-1,0c0,0,-1,0,-1,0ZM121.5,102.5l4,-2c-1,1,-1,1,-1,1l-4,2ZM260.5,108.5c0,0,-1,0,-1,0c0,1,0,1,1,1c0,0,0,-1,0,-1ZM260.5,115.5c0,1,-1,1,-1,1l-1,0c0,0,-1,0,-1,0l-1,0c0,0,-1,0,-1,0c0,0,-1,0,-1,0c0,-1,0,-1,0,-1c0,0,1,0,1,0l0,1c1,0,1,-1,1,-1c1,0,1,0,1,0c1,0,1,0,1,0c1,-1,1,-1,1,-1c1,0,1,-1,1,-1l1,-1c0,-1,0,-1,0,-1c0,-1,0,-1,0,-1c0,0,-1,1,-1,1c-1,0,-1,0,-1,0c0,-1,-1,-1,-1,-1c0,0,0,-1,0,-1c0,0,0,-1,0,-1c0,-1,0,-1,1,-1c0,-1,0,-1,0,-1c1,0,1,0,1,0c0,0,1,0,1,0l0,1c0,0,1,0,1,0c0,1,0,1,0,2l0,1c0,0,0,1,0,1c0,1,0,2,-1,2c0,1,0,1,0,1c-1,1,-1,1,-1,1ZM257.5,102.5l4,-2c0,1,0,1,0,1l-5,2ZM250.5,110.5c0,0,1,0,1,0c0,0,1,0,1,0c0,0,0,-1,1,-1l0,-2l-1,-7c0,-1,0,-1,0,-1c0,-1,1,-1,1,-1c0,1,0,1,0,1c0,0,1,0,1,0c0,1,0,1,0,2l-1,0c0,1,0,1,0,2c0,0,0,1,1,3c0,0,0,1,0,1l0,1c0,0,0,1,0,1c-1,1,-1,1,-1,1c0,1,0,1,0,1c-1,0,-1,0,-1,0l-1,0c0,1,0,1,-1,1c-1,0,-1,0,-1,0c-1,-1,-1,-1,-1,-1c0,0,0,-1,-1,-1c0,1,0,1,0,1c-1,0,-1,1,-2,1l-1,0l-1,-1c0,0,0,-1,-1,-1l0,-1l0,1c0,0,-1,0,-1,1c0,0,-1,0,-1,0c-1,0,-1,0,-2,-1l0,1c0,0,-1,0,-1,1l-1,0c-1,0,-1,-1,-1,-2c0,0,-1,1,-1,1c0,0,-1,0,-2,1l-1,0c-1,0,-1,0,-1,0c0,0,-1,0,-1,-1c0,0,-1,0,-1,0c0,-1,0,-1,0,-1c0,0,-1,0,-1,0c-1,0,-2,0,-2,0c-1,0,-2,0,-2,0c-1,1,-2,1,-3,1c-1,0,-2,0,-3,0c-1,0,-2,0,-3,0c0,0,-1,0,-2,0c-1,0,-2,0,-3,0c-1,1,-2,1,-3,1l-1,0l0,-1c-1,0,-1,0,-1,0c0,0,-1,0,-1,0c0,-1,0,-1,0,-1c0,1,0,1,-1,1c0,0,-1,1,-1,1l-1,0c0,0,-1,0,-1,-1c0,0,-1,0,-1,0c0,-1,0,-1,0,-1c0,1,-1,1,-1,1c-1,0,-1,1,-2,1l-1,0c0,0,-1,-1,-1,-1c0,0,-1,0,-1,-1l-2,-2c-1,0,-1,0,-2,-1l0,1l0,1l0,1c0,0,-1,0,-1,1c-1,0,-1,0,-1,0c-1,0,-1,1,-1,1l-1,0l-3,0c0,0,-1,-1,-1,-1l0,1l0,1l-1,0c0,1,0,1,0,1c-1,0,-1,0,-1,-1c-1,0,-1,-1,-1,-2l0,-1c0,1,-1,1,-1,1l-1,0l0,1l-1,0l0,1l0,1l1,0l0,3l0,1c0,1,1,2,1,2l-1,0l0,1l0,-1l0,-2l-1,-2l0,-2l0,-1l0,-1c0,-1,0,-2,1,-2l0,-1l1,0l1,-1l1,0c0,0,1,1,2,1l1,1l2,0l1,0l1,0l1,0c1,0,1,-1,1,-1c0,-1,1,-1,1,-1c0,0,-1,0,-1,-1c0,-1,-1,-1,-1,-1l-1,-1c0,0,-1,0,-1,0l-1,0c0,0,0,-1,0,-1c0,0,-1,-1,-1,-1c0,0,1,0,1,-1c0,0,0,-1,0,-1l1,0c0,-1,1,-1,3,-2c1,0,2,-1,4,-1c1,-1,2,-1,3,-1l1,0l-1,1l-1,0c0,1,-1,1,-3,1c-1,1,-2,1,-4,2c-1,0,-2,1,-2,1c0,0,-1,0,-1,0l0,1l1,0c1,0,1,0,1,1c0,0,1,0,1,0l1,0c0,1,1,1,2,2c0,0,1,0,1,1c1,0,1,1,2,1l2,2l1,0c0,0,1,0,1,0c0,0,1,0,1,-1c1,0,1,-1,1,-1l0,1l1,1c0,0,1,0,1,0l1,0l1,0l0,-1c1,0,1,0,1,0c0,0,0,-1,0,-1l1,0l0,1l0,1c1,0,1,0,2,0c1,0,2,0,2,0c1,0,2,0,3,0c1,0,2,0,2,0c1,0,2,0,3,0c0,0,1,-1,2,-1c1,0,2,0,3,0c0,0,1,0,2,0c2,0,3,-1,3,-1c1,0,2,0,3,0l0,-1l-1,0c-1,0,-1,0,-1,0c-1,0,-3,0,-5,0c-2,0,-4,0,-6,1c-2,0,-3,0,-4,0c-2,0,-3,0,-4,-1c0,-1,0,-1,0,-2c1,0,1,0,1,-1l1,-1c1,-1,2,-1,2,-2c1,-1,2,-1,3,-2c0,0,1,0,1,0l-1,2l-1,0c-1,1,-1,1,-2,2c-1,1,-2,2,-3,2l0,1c1,0,1,0,2,0c0,0,1,0,1,0c1,0,3,0,5,0c2,0,4,-1,6,-1c2,0,3,0,4,0c1,0,2,0,2,0c1,1,1,1,1,1c0,1,0,1,0,1c0,1,0,1,0,2c0,0,0,1,-1,1l1,0l1,0l1,0l1,0l1,0c0,-1,1,-1,1,-2l0,1c1,0,1,1,1,1c1,0,1,0,2,-1l1,-1c0,0,0,1,0,1c1,0,1,0,1,0l1,0l1,0c0,-1,0,-1,0,-1c1,1,1,2,2,2l1,0c0,0,1,0,1,0c0,0,1,0,1,0c0,-1,0,-1,0,-1c0,0,0,-1,0,-1c0,-1,0,-1,0,-1l0,-1c1,0,1,0,1,-1l0,2c0,1,0,1,0,1c0,1,0,1,0,1c1,0,1,1,1,1c0,0,1,0,1,0ZM251.5,95.5l4,-2l0,1l-4,2ZM246.5,105.5l-1,-1l1,-2l1,1m-1,2l-1,-1l1,-2l1,1m-1,2l-1,-1l1,-2l1,1ZM248.5,92.5c1,-1,1,-1,1,-1l1,0c0,0,0,1,0,1c0,0,0,1,0,1c0,1,0,1,-1,1l1,0l0,2l-1,-1l-1,1c0,0,-1,0,-1,1l-1,0l0,-1l1,0l0,-1l1,0l0,-1c0,0,-1,0,-1,-1c0,0,1,0,1,-1ZM249.5,93.5l0,-1l-1,0l0,1l1,0l0,1l0,-1ZM98.5,94.5c0,0,1,0,1,0c0,0,1,-1,1,-1c1,0,1,1,2,1l0,1l0,1c-1,0,-1,0,-1,0c-1,0,-1,0,-1,0c0,0,-1,0,-1,0c0,0,-1,0,-1,0l2,0c1,0,1,-1,1,-1c-1,0,-1,0,-1,0c-1,0,-1,0,-1,0c-1,0,-1,0,-1,0l0,-1ZM235.5,101.5c1,0,1,-1,1,-1c1,0,1,0,2,0c0,0,1,0,1,0c1,1,1,1,1,1c0,1,-1,1,-1,1c0,0,0,1,-1,1c-1,0,-1,0,-1,0l-1,0l1,0c1,-1,2,-1,2,-1c0,0,-1,-1,-1,-1l-1,0c0,0,-1,0,-1,1l-1,0c0,-1,0,-1,0,-1ZM215.5,115.5l-4,2c0,0,0,-1,0,-1c1,0,1,0,1,0l4,-2ZM202.5,107.5l-1,-1l1,-1l1,1ZM202.5,98.5l4,-2l0,1l-4,2ZM197.5,107.5l-1,-1l1,-1l1,1ZM196.5,97.5l0,1l1,0c0,0,1,0,1,0l0,-1l0,1c0,0,1,0,1,0c0,0,0,-1,0,-1l0,-1l1,0l0,1l0,1c-1,0,-1,1,-1,1l-1,0l0,-1l0,1c-1,0,-1,0,-1,0c0,0,-1,0,-1,0l0,-1l0,-1ZM201.5,94.5l-6,3c0,-1,1,-1,1,-1l5,-3ZM187.5,92.5l1,0c0,-1,0,-1,0,-1c1,0,1,0,1,0c0,0,0,1,0,1c0,0,0,1,0,1c0,1,0,1,0,1l0,2l-1,-1l-1,1l-1,1l-1,0l0,-1l1,0l1,-1l0,-1l0,-1l0,-1ZM188.5,93.5l0,-1c0,0,-1,0,-1,1l1,0l0,1l0,-1ZM177.5,96.5c0,-1,0,-1,0,-1c0,0,1,0,1,0c1,0,1,0,1,1l0,1c-1,0,-1,0,-1,0l1,1l0,1l-1,-1l-1,1c-1,1,-1,1,-1,1l-1,0c-1,0,-1,0,-1,0l1,0l1,-1l1,-1c-1,-1,-1,-1,-1,-1l0,-1l1,0ZM178.5,96.5l-1,0l0,1l1,0l0,-1ZM292.5,109.5c0,1,0,2,0,2c0,0,0,1,-1,1l0,1l-1,0l2,0l0,1l-1,0l-1,1l-1,0l0,1c0,0,-1,0,-1,0l-1,1l-1,0l-1,0l0,1l-1,1l-1,0l1,0l0,1l-1,0l-3,0l-2,0l0,-1l-1,-1c-1,0,-1,-1,-1,-1c-1,0,-2,0,-3,-1l-1,0l0,-1l-1,0l0,-1l-1,0l-1,0l1,-1l1,0l-1,0l0,-1l-1,-1l0,-1l0,-1l0,-1c0,-1,1,-1,1,-2l1,-1l-1,0l-1,0c0,-1,0,-1,0,-1c1,0,1,0,1,0l1,-1l1,0l0,-1l1,0l1,-1l2,0l1,-1l0,-1c1,0,1,0,1,0l0,-1l2,0l3,0l1,0l0,1l-1,0l1,0l0,1l1,0l0,1l2,0l1,1c0,0,1,0,1,0l0,1l1,0c1,1,1,1,2,1c0,1,0,1,0,1l-1,0l0,1l1,0l0,1l0,1ZM283.5,119.5l1,-1l1,-1c1,0,1,0,2,0l0,-1l1,0l1,0l0,-1l1,0l0,-1l1,0l-1,-1l1,-1l0,-1l1,0l0,-1l0,-1c0,-1,0,-2,-1,-2l0,-1l0,-1l-1,0l1,-1c0,0,-1,0,-1,-1l-1,0l-1,-1l-1,0l-2,-1l-1,-1l-1,-1l-3,0l-2,0l-1,1c0,1,-1,1,-1,1l-2,1l-1,0l-1,1l-1,0c0,1,-1,1,-1,1l1,1l0,1l-1,0l0,1l0,1c0,0,-1,1,-1,1l0,1l1,0l0,1l0,1l1,1l-1,1l1,1l1,0l0,1l1,0l1,0l1,1l1,0c0,0,1,0,1,1l1,1l2,0ZM289.5,104.5l-1,0l0,1l0,-1l-1,0l0,-1l-1,0c-1,0,-1,0,-1,0l0,-1l1,0l0,1l1,0l1,0l0,1ZM289.5,114.5l-1,1l-1,0l0,1l-1,0l-1,0c0,-1,0,-1,0,-1c1,0,1,0,1,0l1,0c0,-1,1,-1,1,-1l1,0ZM284.5,116.5c0,0,0,1,0,1l-1,0l-3,0l-2,0l-1,0c0,-1,0,-1,0,-1c0,0,0,-1,0,-1c0,0,1,0,1,0l2,0l3,0l1,0l0,1ZM284.5,102.5c0,0,0,1,0,1l-1,0l-3,0l-2,0c0,0,-1,0,-1,0l0,-1c0,0,0,-1,0,-1l1,0l2,0l3,0l1,0l0,1ZM283.5,105.5l0,-1l1,0l1,0c0,0,1,0,1,0c0,1,0,1,1,1l0,1l1,-1c0,0,1,1,1,1l0,1l1,1l0,1l0,1l-1,1c0,1,0,1,0,1c0,0,0,1,-1,1l-1,-1l0,1l-1,0l0,1l-1,0l-1,0c0,0,-1,0,-1,-1l-3,0l-2,0l0,1l-1,0l-1,0l-1,0c0,-1,0,-1,-1,-1l0,-1l-1,1l-1,-1l0,-1l0,-1l-1,-1c0,0,0,-1,1,-1c0,0,0,-1,0,-1l0,-1c0,0,1,-1,1,-1l1,1l0,-1l1,0l0,-1c1,0,1,0,1,0c1,0,1,0,1,0l1,0l0,1l2,0ZM283.5,113.5l1,0c0,1,0,1,0,1l1,0l1,0c0,-1,0,-1,0,-1l1,-1l1,0l1,0l0,-1l0,-1l0,-1c0,-1,0,-1,0,-2l0,-1c0,0,-1,0,-1,0l-1,0l-1,-1l-1,-1c-1,0,-1,0,-1,1c-1,0,-1,0,-1,0l1,0l-4,0l-2,0l-1,0l0,-1l-1,0c0,1,-1,1,-1,1l-1,1l-1,0l-1,0l0,1l0,1l0,1c0,0,0,1,0,1l0,1c0,1,1,1,1,1l1,0l1,1l1,1c1,0,1,0,1,-1c1,0,1,0,1,0l2,0l3,0l1,0ZM281.5,109.5l0,1l0,1c0,0,0,1,0,1c0,0,0,-1,0,-1c0,-1,-1,-2,-1,-3l0,-1l0,1l1,0l1,0l0,-1l0,1l1,0c0,-1,0,-1,0,-1c0,1,0,1,0,1c0,0,0,1,-1,1c0,0,0,-1,0,-1c0,1,-1,1,-1,1ZM279.5,107.5l0,1c0,1,0,1,0,1l0,1l0,1c0,0,0,1,0,1c0,0,0,-1,0,-1c0,-1,0,-2,-1,-3ZM273.5,104.5l0,-1l1,0l1,-1l1,0l0,1c0,0,-1,0,-1,0l-1,1l-1,0l0,1l0,-1ZM272.5,114.5l1,0c0,0,1,0,1,1l1,0l1,0l0,1l-1,0c-1,-1,-1,-1,-2,-1l0,-1ZM371.5,112.5l0,-2l0,-1l-1,-8l1,-3l1,11c0,0,0,1,0,1c-1,0,-1,0,-1,0c0,1,0,1,0,2ZM363.5,110.5c0,0,1,0,1,0l1,0c0,0,0,-1,0,-1c1,0,1,0,1,0l-1,-2l0,-7c0,-1,0,-1,0,-1c0,-1,0,-1,1,-1c0,1,0,1,0,1l1,0c0,1,0,1,0,2c-1,0,-1,0,-1,0c0,1,0,1,0,2c0,0,0,1,0,3c0,0,0,1,0,1l0,1c0,0,0,1,0,1c0,1,0,1,0,1c0,1,0,1,-1,1c0,0,-1,0,-1,0l0,1l-1,0l-10,0c-1,1,-1,1,-1,2l0,-1c0,0,0,-1,0,-1l-1,0l-1,0c0,0,-1,0,-1,-1c0,0,-1,-1,-1,-2c0,1,0,2,-1,2l0,1l-1,0l-1,0c0,0,-1,-1,-2,-1c0,0,-1,1,-1,1c-1,0,-1,0,-2,0l-1,-1l-1,-1l-1,1c0,0,-1,1,-1,1l-1,0l-1,0l0,-1c-1,0,-1,0,-1,0l-1,0c0,-1,0,-1,0,-1l0,-1l0,-1c0,0,0,-1,0,-1c-1,1,-1,2,-2,2l-1,0c0,0,0,1,0,1c0,1,0,1,0,1l0,1l0,1c0,0,-1,0,-1,0c0,1,-1,1,-1,1c0,0,-1,0,-1,0c-1,1,-1,1,-2,1c-1,0,-2,1,-3,1c0,0,-1,0,-2,0c-1,0,-2,0,-3,0c0,0,-1,0,-1,0l-1,0c0,0,-1,0,-2,0c0,0,-1,0,-1,0c-1,0,-2,0,-3,0c-1,0,-1,-1,-2,-1c-2,0,-3,-1,-3,-1c-1,-1,-2,-2,-3,-2c0,-1,0,-1,-1,-1c0,0,0,-1,1,-1c0,1,0,1,0,1c1,0,1,1,2,1c0,0,1,0,2,1c0,0,1,0,1,0c1,0,1,1,2,1c1,0,1,0,2,0c1,0,1,0,2,1c1,0,1,0,2,0c0,0,1,0,2,0c0,0,1,0,1,0c1,0,2,0,2,0c1,-1,2,-1,3,-1c1,0,2,0,3,0c1,-1,1,-1,2,-1c2,-1,3,-1,3,-2c0,0,0,-1,0,-1c-1,0,-1,0,-1,0c0,-1,0,-1,0,-1c0,-1,-1,-1,-1,-1l1,-2l1,1l1,0l1,0l1,-1l0,-1l0,1c1,0,1,0,1,0l0,1l0,1l0,1l0,1c0,0,1,0,1,0l1,0l1,0c0,0,1,0,1,0l1,-1l0,-1c1,-1,2,-2,3,-2l0,1l1,1l1,1c1,1,1,1,1,1l1,0l1,0l1,0c0,0,0,-1,1,-1c0,-1,0,-1,0,-1c0,0,0,-1,0,-1l0,-1l-1,-6l1,-2l1,10c0,1,0,1,0,1c0,1,1,1,1,1l1,0l1,0c0,0,1,0,1,-1l0,-1l1,-1l-1,-2l0,-1l0,-2l0,-2c0,-1,0,-1,0,-2l1,2c0,0,0,1,0,1l0,1l0,1l0,1l0,1l0,2l0,1l0,1l1,-2l1,0l1,-1c1,0,1,0,1,0l1,0c1,0,1,0,2,0c0,0,0,1,1,1l0,1c-1,1,-1,1,-1,1l-1,1l2,0l1,0ZM357.5,104.5l-1,-1l1,-1l1,1ZM360.5,109.5c0,-1,0,-1,0,-1l-1,0c0,-1,0,-1,0,-1l-1,0c0,0,-1,1,-1,1l-2,1l-1,1l1,0c0,0,1,0,1,0c0,0,1,0,1,0l1,0c1,-1,2,-1,2,-1ZM349.5,118.5l-4,2c0,-1,0,-1,0,-1l4,-2ZM342.5,110.5l-1,-1c0,0,0,-1,0,-1l-1,0l-1,1c0,0,1,0,1,0l1,1ZM340.5,115.5l-5,2c1,-1,1,-1,1,-1l4,-2ZM334.5,115.5l-2,-1l0,1l-2,-1l1,-1l2,0l0,-1l2,1ZM316.5,110.5l-1,-1l1,-2l1,1ZM306.5,102.5l1,0l3,-1l5,-2l5,-2l1,0l-2,2l-1,0l-1,0l-1,1l-6,2l-4,1ZM416.5,110.5c1,0,1,0,1,0c1,0,1,0,1,0c0,0,1,-1,1,-1l0,-2l-1,-7c0,-1,0,-1,0,-1c1,-1,1,-1,1,-1c0,1,0,1,0,1c1,0,1,0,1,0c0,1,0,1,0,2c0,1,0,1,0,2c0,0,0,1,0,3c0,0,0,1,0,1l0,1c0,0,0,1,0,1c0,1,0,1,0,1c-1,0,-1,0,-1,0c0,1,0,1,0,1l-1,0l-1,0c0,1,0,1,-1,1l-1,0c0,0,-1,-1,-1,-1l-1,0c0,0,0,-1,0,-1l-1,0l0,1c0,0,-1,0,-1,0c0,0,0,1,0,1c0,0,-1,0,-1,0l0,1c0,1,0,1,0,2l1,1l-1,1c-1,0,-1,0,-1,0c0,0,0,-1,0,-1l0,-1c-1,-1,-1,-1,-1,-2c0,-1,0,-1,1,-2c-1,1,-1,1,-2,1l-1,0c0,0,-1,-1,-1,-1c-1,0,-1,-1,-1,-2c0,1,-1,2,-1,2c0,0,-1,0,-1,0l0,1l-1,0c0,0,-1,-1,-1,-1c0,0,-1,0,-1,-1l-2,-2c-1,0,-1,0,-2,-1l0,1l0,1l0,1c0,0,-1,0,-1,1l-1,0c-1,1,-1,1,-2,1l-2,0l0,1c0,1,0,2,0,2c-1,1,-1,1,-2,2c0,0,-1,1,-2,1c0,0,-1,1,-2,1c0,0,-1,-1,-2,-1c0,0,-1,0,-1,0c0,-1,-1,-1,-1,-2c0,0,-1,-1,-1,-1c0,-1,0,-1,1,-1c0,-1,0,-1,0,-1c0,-1,0,-1,0,-1c0,-1,1,-1,1,-1c0,0,0,1,0,1l0,1c0,0,-1,0,-1,0c0,0,0,1,0,1c0,0,1,1,1,1c0,0,0,1,0,1c1,0,1,0,1,0c1,1,2,1,3,1c0,0,1,0,2,-1c1,0,1,0,2,-1c0,-1,0,-1,0,-1c0,-1,0,-1,0,-1c0,-1,0,-1,0,-1c0,0,0,-1,0,-1l-1,0l1,-2c1,1,1,1,1,1l2,0l1,0c1,0,1,0,1,0c0,0,1,-1,1,-1c0,-1,0,-1,0,-1l0,-1c-1,-1,-1,-1,-1,-1c0,0,-1,0,-1,-1c0,0,-1,0,-1,0c0,0,-1,0,-1,0c0,0,0,-1,0,-1l-1,0c0,0,0,-1,0,-1l0,-1c1,0,1,0,1,0c0,0,0,-1,0,-1c1,-1,2,-1,4,-2c1,0,2,-1,4,-1c1,-1,2,-1,2,-1c1,0,1,0,1,0l0,1l-1,0c0,1,-1,1,-3,1c-1,1,-3,1,-4,2c-1,0,-2,1,-2,1l-1,0l0,1l1,0c1,0,1,0,1,1c0,0,1,0,1,0l1,0c0,1,1,1,1,2c1,0,1,0,2,1c1,0,1,1,2,1l1,2l1,0l1,0c1,0,1,-1,1,-1c0,0,1,0,1,0c0,-1,0,-1,0,-1c0,0,0,-1,0,-1l-1,-1l0,-6l1,-2l1,10c0,1,0,1,0,1c0,1,0,1,0,1c1,0,1,0,1,0l1,0c1,0,1,0,2,0l1,-1l0,1c-1,1,-1,2,-1,3c0,1,0,1,1,2c0,-1,0,-1,0,-1c0,-1,0,-1,0,-1c0,0,0,-1,0,-1c0,-1,0,-1,0,-1c1,0,1,0,1,0c0,0,0,-1,0,-1l1,0c0,0,0,-1,0,-1l1,0c0,0,1,0,1,0l0,1c0,0,1,0,1,0l1,0ZM417.5,95.5l4,-2l0,1l-4,2ZM413.5,108.5l-1,-1l0,-2l2,1ZM413.5,92.5c0,0,1,0,1,0c0,-1,0,-1,1,-1c0,1,1,1,1,1c0,0,0,1,-1,1c0,1,0,1,0,1l1,0l0,2l-2,-1l0,1c-1,0,-1,0,-1,1l-1,0l-1,0l1,-1l1,0l0,-1l1,0l0,-1l-1,0l0,-1l0,-1ZM415.5,93.5l-1,-1l0,1l1,0l0,1l0,-1ZM406.5,101.5c1,0,1,-1,1,-1c1,0,1,0,2,0c0,0,1,0,1,0c0,1,1,1,1,1c-1,1,-1,1,-1,1c0,0,0,1,-1,1c-1,0,-1,0,-1,0l-1,0l1,0c1,-1,1,-1,2,-1c0,0,-1,0,-1,-1l-1,0c0,0,-1,0,-1,1l-1,0c0,-1,0,-1,0,-1ZM404.5,118.5l-4,2c1,-1,1,-1,1,-1l4,-2ZM392.5,95.5l4,-2l0,1c-1,0,-1,0,-1,0l-4,2ZM384.5,109.5l-1,-1l0,-1l2,1ZM381.5,98.5l0,1l1,0l0,-1l0,-1l0,1c0,0,1,0,1,0l1,-1l0,1l0,1l-1,0c0,0,-1,0,-1,0l0,1c0,0,-1,0,-1,0l-1,0l0,-1l0,-1ZM385.5,95.5l-6,3c1,-1,1,-1,1,-2l5,-2ZM294.5,54.5c0,0,1,0,1,-1c0,0,1,0,1,0c1,0,1,0,2,1c0,1,0,1,0,1c-1,1,-1,1,-1,1c0,0,-1,0,-1,0l-1,0c0,0,-1,0,-1,0l2,0c1,-1,1,-1,1,-1c-1,0,-1,0,-1,0c-1,0,-1,0,-1,0c-1,0,-1,0,-1,0c0,0,0,-1,0,-1ZM233.5,55.5c1,0,1,-1,2,-1c0,0,1,1,1,1c1,0,1,0,1,0l0,1c0,0,-1,0,-1,1l-1,0c-1,0,-1,0,-1,0l-1,0l1,0c1,0,2,-1,2,-1c0,0,-1,0,-1,0l-1,0l-1,0l-1,0l0,-1l1,0ZM185.5,59.5l0,-1l1,0l0,-1l0,-1l0,-2l-1,-1l1,0l0,-1l0,1c0,1,0,1,0,1l0,1l0,1l0,1l0,1l1,-1l1,0c0,-1,0,-1,0,-1l1,0c1,1,1,1,1,1c0,0,0,1,0,1c0,0,-1,0,-1,1c-1,0,-1,0,-2,0ZM188.5,57.5l-1,1l-1,0l1,0l1,0c1,0,1,0,1,0c0,0,0,-1,0,-1l-1,0ZM87.5,68.5c0,0,1,0,1,0l1,0c0,0,1,0,2,0c1,-1,1,-1,2,-1c0,-1,0,-1,1,-2c0,0,0,-1,0,-1l0,-1l0,-1l-1,-1l1,-1l0,-1l0,1c0,0,1,1,1,1l0,1l0,1c0,1,0,1,0,2l0,1c0,0,-1,0,-1,0c0,1,0,1,0,1c0,1,-1,1,-1,1l-1,1c-1,0,-1,0,-1,0c-1,0,-1,0,-1,0l-1,0c0,0,-1,0,-1,0l-1,0ZM90.5,55.5l4,-2l0,1c0,0,-1,0,-1,0l-4,2ZM87.5,68.5l-2,-1l1,-1l2,1ZM83.5,65.5l1,-1c0,0,0,-1,1,-1c1,0,1,0,1,0c1,0,1,0,1,0c0,0,0,1,0,1l1,0l-1,0c0,1,0,1,0,1l-1,-1l-1,0l-1,0l0,1l-1,0c0,1,0,1,0,1l0,1c0,0,0,1,1,1l0,1l-1,1c0,1,0,1,0,1c-1,0,-1,0,-1,-1l0,-1c-1,-1,-1,-2,-1,-2c0,-1,0,-2,1,-2c-1,0,-1,0,-2,0l-1,0l-2,0c-1,0,-1,0,-2,0l0,-1l0,1l0,1l0,1l-1,0l-1,0c0,-1,0,-1,0,-2l-1,-1l-1,0l0,1l-1,0l0,1l0,1l0,1l1,2l0,1l0,1c0,1,0,1,0,2l0,1l-1,-1l0,-1l0,-1l0,-3l-1,-1l0,-1l0,-1l0,-1l1,0c0,-1,0,-1,0,-2l1,0l1,-1l1,0l0,-1c1,1,1,1,2,2l2,0l1,0l1,0l1,0c1,0,1,0,2,0l1,0c0,0,1,0,1,0c0,0,-1,0,-1,0l0,1c-1,0,-1,1,-1,2c0,1,0,2,1,2l0,-1l0,-1l0,-1ZM82.5,51.5l0,1c0,0,1,0,1,0c0,0,0,-1,0,-1l1,-1l0,1l1,0l0,-1l0,-1l0,1l0,1l0,1l-1,0l-1,0c0,1,0,1,0,1c-1,0,-1,0,-1,0c0,0,0,-1,0,-1l0,-1ZM84.5,46.5c0,-1,0,-1,0,-1c0,-1,1,-1,1,-1c1,1,1,1,1,1c0,1,0,1,0,1l0,1c0,0,-1,0,-1,0l1,0l0,1l-1,0l-1,1c0,0,-1,1,-1,1c0,0,-1,0,-1,0c0,0,-1,0,-1,0c1,-1,2,-1,3,-2l0,-1c-1,0,-1,0,-1,0l0,-1l1,0ZM85.5,46.5l-1,0l0,1l1,0l0,-1ZM81.5,56.5l0,-1c0,0,1,0,1,0c1,0,1,1,1,1l0,1c0,0,-1,1,-1,1l1,0l0,1l-1,0l-1,0l0,1c0,0,-1,0,-1,0l-1,0l0,1c0,0,-1,-1,-1,-1l1,0l1,0c0,-1,0,-1,0,-1l1,0l0,-1c-1,0,-1,-1,-1,-1c0,0,0,-1,1,-1ZM82.5,56.5l-1,0c0,0,0,1,0,1l1,0ZM69.5,54.5c0,0,1,0,1,0c0,0,1,0,1,0c1,0,1,0,2,0l0,1c0,0,0,1,0,1c-1,0,-1,0,-1,0l0,1c0,0,-1,0,-1,0l-1,0l-1,0l2,-1c1,0,1,0,2,-1c-1,0,-1,0,-1,0c-1,0,-1,0,-1,0c0,0,-1,0,-1,0c0,0,-1,0,-1,0c0,0,0,-1,0,-1ZM130.5,65.5l0,-1l0,-1l0,-8l1,-3l0,11c0,1,0,1,0,1c0,1,0,1,-1,1ZM132.5,69.5l-4,2c1,-1,1,-1,1,-1l4,-2ZM123.5,63.5l1,0c1,0,1,0,1,0c0,0,0,-1,0,-1l0,-2l0,-6c0,-1,0,-1,0,-1c0,0,0,-1,0,-1l0,-1c1,0,1,1,1,1c-1,0,-1,0,-1,0c0,0,1,0,1,0c0,1,0,1,1,1c0,0,-1,1,-1,1l0,1c0,0,0,1,0,2c0,0,0,1,0,2c0,1,0,1,0,2l0,1l0,1l0,1c-1,0,-1,0,-1,0c0,1,0,1,0,1c-1,0,-1,0,-1,0c0,0,-1,0,-1,0l-2,0c0,0,-1,0,-1,0c0,-1,0,-1,-1,-1l-1,0c0,0,-1,0,-1,1l0,1c0,0,-1,0,-1,0l0,1c0,0,0,1,1,1l0,1l-1,1c0,1,0,1,0,1c-1,0,-1,0,-1,-1l0,-1c-1,-1,-1,-2,-1,-2c0,-1,0,-2,1,-2c-1,0,-1,0,-1,0l-1,0l-1,0l-2,0c0,0,-1,0,-1,0c0,0,-1,0,-1,-1l0,1l0,1l0,1l-1,0l-1,0c0,-1,0,-1,0,-2l0,-1c-1,0,-1,0,-1,0l-1,0l0,1c0,0,-1,0,-1,0l0,1l0,1l0,1l1,2l0,1l0,1c0,1,0,1,0,2l0,1l0,-1l0,-1l-1,-1l0,-3l0,-1l0,-1l0,-1l0,-1c0,-1,0,-1,1,-2l1,0l0,-1l1,0l0,-1c1,1,2,1,3,2l1,0l2,0l1,0c1,0,1,0,2,0l1,0c0,0,1,0,1,0c0,0,-1,0,-1,0l0,1c-1,0,-1,1,-1,2c0,1,0,2,1,2l0,-1l0,-1l0,-1c1,0,1,-1,1,-1c0,0,0,-1,1,-1l1,0c1,0,1,0,1,0c0,0,1,0,1,0l2,0ZM124.5,49.5l4,-2l0,1c-1,0,-1,0,-1,0l-4,2ZM121.5,69.5l-1,-1l-1,1l-1,-1l1,-1l1,0l1,-1l1,1ZM117.5,54.5l1,0c0,0,1,0,1,0c1,0,1,0,1,0c1,0,1,0,1,1c0,0,0,1,-1,1c0,0,-1,0,-1,1c0,0,-1,0,-1,0l-1,0l2,-1c0,0,1,0,1,-1l-1,0c-1,0,-1,0,-2,0c0,0,0,-1,0,-1ZM117.5,73.5l-4,2c0,-1,0,-1,0,-1l4,-2ZM102.5,54.5c1,0,1,0,1,0c1,0,1,0,2,0c0,0,1,0,1,0c0,0,1,0,1,1c-1,0,-1,1,-1,1l-1,0l0,1c-1,0,-1,0,-1,0l-1,0l1,-1c1,0,1,0,2,-1c0,0,-1,0,-1,0l-1,0c0,0,-1,0,-1,0l-1,0c0,0,0,-1,0,-1ZM177.5,56.5l-1,-1l1,-2l1,1ZM180.5,63.5l0,1c-1,0,-1,0,-1,0c0,1,-1,1,-2,1c0,0,-1,0,-1,0l-1,0l-2,0c0,0,-1,0,-1,0c-1,-1,-1,-2,-1,-2l-1,-9l1,-2l1,10l0,1c0,0,1,0,1,0l2,0l0,1l1,0c0,0,1,-1,1,-1c1,0,2,0,2,0c0,-1,0,-1,0,-1c1,0,1,0,1,0l-1,-1c-1,1,-1,1,-1,1l-1,0c-1,0,-1,0,-1,-1c0,0,0,-1,0,-1c0,0,0,-1,0,-1l0,-1c0,0,1,0,1,-1l1,0c0,0,1,0,1,0c0,0,0,1,1,1l0,1l0,1c0,1,0,1,0,2l0,1ZM177.5,59.5l0,1l1,0l1,-1c0,0,-1,0,-1,0l0,-1l-1,0c0,1,0,1,0,1ZM176.5,49.5l4,-2l-1,1l-4,2ZM170.5,46.5l4,-2c0,1,0,1,0,1l-4,2ZM166.5,61.5c-1,0,-1,0,-1,0c0,1,0,1,0,1l1,0l0,-1ZM166.5,69.5c-1,0,-1,0,-1,0c0,0,0,1,-1,1c0,0,-1,0,-1,0l-1,0c0,0,-1,0,-1,0c-1,-1,-1,-1,-1,-1l1,0c1,0,1,0,1,0c0,0,1,0,1,0c1,0,1,-1,1,-1c0,0,1,0,1,-1c0,0,1,0,1,0c0,-1,0,-1,1,-1c0,-1,0,-2,0,-2c-1,0,-1,0,-1,0l-1,0c-1,0,-1,0,-1,0c0,0,0,-1,0,-1l0,-1c0,-1,0,-1,1,-2l0,-1c0,0,1,0,1,0l1,0c0,1,0,1,0,1c0,0,0,1,1,1c0,0,0,1,0,1c0,0,0,1,0,1c0,1,0,1,0,1c0,1,-1,2,-1,3c0,0,0,1,-1,1c0,0,0,1,0,1ZM162.5,51.5c0,0,0,-1,1,-1c0,0,1,0,1,0c1,0,1,0,2,0c0,1,0,1,0,1c0,1,0,1,0,1c-1,0,-1,1,-1,1c-1,0,-1,0,-1,0c0,0,-1,0,-1,0c0,0,-1,0,-1,0l2,0c0,-1,1,-1,1,-1l0,-1c-1,0,-1,0,-1,0c-1,0,-1,0,-2,1c0,-1,0,-1,0,-1ZM159.5,64.5l-1,0l-1,0l-1,0l-2,0l-1,0l-1,0l-1,0l-1,0l0,1l-1,0c0,1,0,1,0,1c0,0,1,0,2,0l1,0c0,1,0,1,0,1c0,1,0,1,0,1c0,0,0,1,0,1l-1,1c0,0,-1,1,-2,1c-2,0,-3,1,-4,1c-1,0,-1,0,-1,0c0,0,-1,0,-1,-1c-1,0,-2,0,-2,-1c0,0,-1,0,-1,-1c0,0,0,-1,0,-2c0,0,0,-1,0,-2c0,0,1,-1,1,-1l0,-1l1,0c0,1,0,1,0,1c0,0,-1,1,-1,1c0,1,0,1,0,2c0,1,0,1,1,2c1,0,1,1,3,1c1,0,1,0,1,0l1,0l1,-1c1,0,1,0,1,0c0,0,1,0,1,0c1,-1,1,-1,1,-1c0,0,-1,0,-1,0c-1,0,-2,-1,-2,-1c-1,0,-1,0,-1,0c0,-1,0,-1,0,-1c0,-1,0,-1,0,-1c0,0,1,0,1,0c0,-1,0,-1,0,-1c0,0,1,0,1,0c0,-1,1,-1,1,-1c1,0,1,0,1,0l1,0l1,0l1,0l0,-1c-1,0,-2,0,-2,0l-1,0c0,0,0,-1,0,-1c0,0,-1,0,-1,0c-1,0,-1,1,-2,1c0,0,0,-1,1,-1l0,-1c0,0,1,0,1,0l1,0c1,0,1,0,1,0l1,0l2,1c1,0,1,1,1,1l1,0l1,0l1,0l1,0ZM149.5,49.5c0,0,1,0,2,0c0,0,1,0,1,0c1,0,1,0,1,0l1,0c-1,0,-1,1,-1,1l-1,0l-1,0l-1,0l-1,0c0,0,-1,0,-1,0c0,-1,0,-1,1,-1ZM151.5,53.5c0,1,0,2,-1,2l0,-1c0,0,0,-1,0,-1l0,-1l0,-1l0,-1l0,1l1,1l0,1ZM224.5,65.5c0,0,-1,0,-1,0l-1,-1l-1,0l-1,0c0,0,0,1,0,1l-1,0l-1,0c-1,0,-1,0,-1,0c-1,0,-1,-1,-1,-2c-1,1,-1,1,-1,2c-1,0,-1,0,-1,0l-1,0l-1,0c0,0,-1,0,-1,0l-1,0l0,-1c0,0,-1,0,-1,0c-1,1,-1,1,-2,1l-1,0l-1,0c-1,0,-1,0,-1,0c0,-1,0,-1,-1,-1c-1,0,-1,0,-1,0c0,1,-1,1,-1,1c0,0,-1,0,-1,0l-1,0l-1,0c-1,0,-1,0,-2,0c0,-1,-1,-2,-1,-2l0,-9l1,-2l0,10l0,1l1,0l1,0l1,0c1,0,1,0,2,0c0,0,1,0,1,0c0,0,1,0,1,0c0,-1,0,-1,0,-1l1,0c0,1,0,1,0,1c1,0,1,0,1,0l1,0c1,0,1,0,1,0c1,0,1,0,2,0c1,-1,1,-1,1,-1l0,1c1,0,1,0,1,0c0,0,1,0,1,0l1,0c1,0,1,0,1,0c0,0,1,0,1,0c0,-1,0,-1,0,-1l0,-1c0,-1,0,-1,0,-1l0,-7l1,-2l0,11l0,1c0,0,1,0,1,0c0,0,1,0,1,0l1,0c0,0,1,0,1,0l1,-1c0,-1,0,-1,1,-2c0,0,1,0,1,0l1,0c0,1,0,1,0,2l0,1c0,0,0,1,0,1l0,1ZM222.5,62.5l0,1l1,0l0,-1l-1,0ZM223.5,68.5l-4,2c0,0,0,-1,0,-1l4,-2ZM213.5,48.5l0,1c0,0,1,0,1,0c0,0,0,-1,0,-1l0,-1l1,1l1,-1l0,-1l0,1l0,1l0,1l-1,0l-1,0c0,1,-1,1,-1,1c-1,0,-1,-1,-1,-1l0,-1l1,0ZM217.5,45.5l-6,3c1,-1,1,-2,1,-2l5,-2ZM210.5,60.5l-1,-1l-1,1l-1,-1l1,-1l1,1l1,-1l1,0ZM211.5,68.5l-4,2c0,0,0,-1,0,-1l5,-2ZM202.5,61.5l-1,-1l1,-2l1,1ZM200.5,55.5l4,-2l0,1l-4,2ZM241.5,56.5l-1,-1l1,-1l1,0ZM243.5,62.5l-1,0l0,1l-1,0l-1,0c0,-1,0,-1,0,-1c0,0,0,-1,0,-1c0,-1,0,-1,0,-1l0,-1c0,0,0,-1,0,-1c1,0,1,-1,2,-1c0,0,0,1,1,1c0,0,0,1,0,1l1,1l0,1l0,1l0,1c0,1,0,1,0,1c-1,1,-1,1,-1,1c1,0,1,1,1,1c0,0,1,0,1,0l0,1l0,1c-1,0,-1,0,-1,0c0,0,0,1,0,1c0,0,-1,0,-1,1c-1,0,-2,0,-3,1c0,0,-1,0,-2,0l-1,0c0,0,-1,0,-1,0c-1,0,-2,-1,-2,-1c0,0,-1,-1,-1,-1c0,-1,0,-1,0,-1c0,0,0,-1,0,-1c0,0,0,-1,0,-2c1,-1,1,-1,1,-2c1,0,1,0,1,0c-1,1,-1,1,-1,2c0,1,0,1,0,1c0,0,0,1,0,1c0,1,0,1,1,1c1,1,1,1,3,1c1,0,1,0,1,0c1,0,1,0,1,0c1,0,2,-1,3,-1l1,-1c-1,0,-1,0,-2,0c-1,0,-1,0,-1,-1c-1,0,-1,0,-1,0c0,0,0,-1,1,-1c0,0,1,-1,1,-1c1,0,1,0,1,0c0,0,0,-1,0,-1l0,-1ZM241.5,60.5l1,0c0,0,0,-1,0,-1l-1,0l0,1ZM244.5,71.5l-3,2c0,0,0,-1,0,-1l4,-2ZM314.5,63.5c1,0,1,0,1,0c0,0,1,0,1,0c0,0,1,0,1,0c0,0,0,-1,0,-1l0,-2l-1,-6c0,-1,0,-1,0,-1c0,0,0,-1,0,-1c0,0,1,0,1,-1c0,0,0,1,0,1c0,1,1,1,1,1c0,0,0,1,0,1l0,1l-1,0c0,0,0,1,1,2c0,0,0,1,0,2c0,1,0,1,0,2l0,1l0,1l-1,1c0,1,-1,1,-1,1l-1,0l-1,0l-1,0l-1,0l-1,-1c0,0,-1,0,-1,1c0,0,-1,0,-1,0l-1,0c-1,0,-1,0,-2,0l-1,0c0,-1,0,-1,0,-1l-1,-1c0,1,0,1,0,1l-1,0c0,0,-1,1,-1,1l-1,0l-1,0l-2,0c0,1,0,1,0,1c0,1,0,1,0,1c-1,1,-1,1,-1,2c0,0,-1,0,-1,1l-1,0c-1,0,-1,0,-1,0c0,1,-1,1,-1,1c-1,0,-1,-1,-2,-1c0,0,-1,0,-1,0c0,0,0,-1,0,-1c0,0,1,1,1,1l1,0c0,0,1,0,1,-1c0,0,1,0,1,0c1,0,1,-1,1,-1c0,0,1,0,1,-1l1,0c0,-1,0,-1,0,-1l0,-1c-1,0,-1,0,-1,0c-1,0,-1,0,-1,0c0,0,0,-1,-1,-1l0,-1c0,0,1,0,1,0c0,-1,0,-1,0,-1l0,-1l1,0l0,-1l1,0l0,1c0,0,1,0,1,0c0,0,0,1,0,1c0,1,0,1,0,1c1,0,1,0,1,0c1,0,1,0,1,0c1,0,1,0,1,0l1,0l1,0l0,-1c-1,0,-1,0,-2,-1l1,-1c0,-1,0,-1,1,-1c0,0,1,0,1,0l1,0c1,0,1,1,1,1c0,0,0,1,0,1l0,1l-1,1l1,0l1,0l1,0c1,0,1,0,1,0c1,0,1,0,1,0l1,-1l0,1c0,0,1,0,1,0c1,0,1,0,1,0l1,0ZM315.5,49.5l4,-2l0,1l-4,2ZM312.5,59.5l-2,-1l0,1l-2,-1l1,-1l2,1l0,-1l2,1ZM309.5,52.5l4,-2l0,1l-4,2ZM303.5,49.5l1,-1c1,0,1,0,1,0c0,0,0,1,0,1c0,0,0,1,0,1c0,1,0,1,0,1l0,1l-1,0l-1,1l-1,0l0,1l-1,0l0,-1l1,0l1,-1l1,0l-1,-1l0,-1l0,-1ZM304.5,50.5l0,-1c0,0,-1,0,-1,1l1,0ZM296.5,62.5l-1,1l1,0c0,0,1,0,1,0c0,0,0,-1,0,-1c-1,0,-1,0,-1,0ZM290.5,64.5l-1,1c-1,0,-1,0,-2,0l-1,0l-1,0l-1,0l0,-1l0,-1c0,0,1,0,1,0c1,0,1,0,2,0c0,0,1,0,1,0c0,0,1,0,1,0c0,0,1,-1,1,-1l0,-1c-1,0,-1,0,-1,-1l-1,0l-1,-1l-1,0l0,-1l1,-1l1,0c0,0,1,1,1,1c0,0,1,1,1,1c0,1,0,1,0,2c0,0,1,0,1,1c0,1,0,1,0,1c-1,0,-1,1,-1,1ZM288.5,49.5l1,-1c1,0,1,0,1,0c0,0,0,1,0,1c0,0,0,1,0,1c0,1,0,1,0,1l0,1l-1,0l-1,1l-1,0l0,1l-1,0l0,-1l1,0l1,-1l0,-1l0,-1l0,-1ZM289.5,50.5l0,-1c0,0,-1,0,-1,1l1,0ZM269.5,63.5l-2,-1l1,-1l1,1ZM281.5,65.5l0,1c0,0,0,1,-1,1l-1,1l-1,0c0,0,-1,0,-1,1c-1,0,-2,0,-3,0c-1,1,-2,1,-3,1c-1,0,-2,0,-2,0c-1,0,-2,0,-2,0c-1,0,-2,0,-2,0c-1,0,-1,0,-2,0c-1,0,-2,-1,-2,-1c-1,0,-2,0,-3,0c-1,-1,-2,-1,-3,-2c-1,0,-2,-1,-3,-2c0,-1,0,-1,0,-1c1,0,1,1,1,1c0,0,1,0,1,0c1,1,1,1,2,1c1,1,1,1,2,1c0,0,1,0,1,0c1,1,2,1,2,1c1,0,2,0,2,0c1,0,2,0,2,0c1,0,1,0,2,0c1,0,1,0,2,0c0,0,1,0,2,0c1,0,1,0,2,0c1,0,2,-1,3,-1c1,0,2,0,3,-1c1,0,2,-1,2,-1c0,-1,0,-1,0,-1l0,-1c-1,-1,-1,-1,-1,-1l0,-1l-1,0l1,-2l1,2c0,0,1,0,1,1c0,1,0,1,0,1l0,1c0,1,0,1,-1,1ZM259.5,53.5c0,1,0,1,0,1l1,0c0,-1,0,-1,0,-1l0,-1l1,0l0,1c0,0,1,0,1,-1l0,-1l0,1l0,1c0,1,0,1,-1,1l-1,0c0,1,-1,1,-1,1c0,-1,-1,-1,-1,-1l0,-1l1,0ZM263.5,50.5l-6,3c1,-1,1,-2,1,-2l5,-3ZM335.5,65.5l0,-1l0,-1l0,-8l0,-3l1,11c0,1,0,1,0,1c0,1,-1,1,-1,1ZM333.5,49.5l4,-2l0,1l-1,0l-4,2ZM330.5,61.5c-1,0,-1,0,-1,0c0,1,0,1,0,1l1,0l0,-1ZM330.5,69.5c-1,0,-1,0,-1,0c0,0,0,1,-1,1c0,0,-1,0,-1,0l-1,0c0,0,-1,0,-1,0c-1,-1,-1,-1,-1,-1l1,0c1,0,1,0,1,0c0,0,1,0,1,0c1,0,1,-1,1,-1c0,0,1,0,1,-1c1,0,1,0,1,0c0,-1,0,-1,1,-1c0,-1,0,-2,0,-2c-1,0,-1,0,-1,0l-1,0c0,0,-1,0,-1,0c0,0,0,-1,0,-1l0,-1c0,-1,0,-1,1,-2l0,-1c0,0,1,0,1,0l1,0c0,1,0,1,0,1c0,0,1,1,1,1c0,0,0,1,0,1c0,0,0,1,0,1c0,1,0,1,0,1c0,1,-1,2,-1,3c0,0,0,1,-1,1c0,0,0,1,0,1ZM326.5,51.5c0,0,1,-1,1,-1c0,0,1,0,1,0c1,0,1,0,2,0c0,1,0,1,0,1c0,1,0,1,0,1c-1,0,-1,1,-1,1c-1,0,-1,0,-1,0c0,0,-1,0,-1,0c0,0,-1,0,-1,0l2,0c0,-1,1,-1,1,-1l0,-1c-1,0,-1,0,-1,0c-1,0,-1,0,-1,1c-1,0,-1,0,-1,0c0,-1,0,-1,0,-1ZM383.5,65.5l0,-1l0,-1l-1,-8l1,-3l1,11c0,1,0,1,0,1c-1,1,-1,1,-1,1ZM381.5,50.5l4,-2c0,0,-1,1,-1,1l-4,2ZM372.5,68.5l1,0c1,0,2,0,3,0c0,-1,1,-1,1,-1c1,-1,1,-1,1,-2c1,0,1,-1,1,-1l0,-1l-1,-1l0,-1l0,-1l1,-1l0,1c0,0,0,1,0,1l1,1l0,1c0,1,0,1,0,2c-1,0,-1,0,-1,0l0,1c0,1,0,1,-1,1c0,1,0,1,0,1c0,0,-1,0,-1,1l-1,0l-1,0l-1,0c-1,0,-1,0,-1,0c0,0,-1,0,-1,0ZM374.5,54.5l1,0l1,0c0,0,1,0,1,0c1,0,1,0,1,1c0,0,-1,1,-1,1c-1,0,-1,0,-1,1c-1,0,-1,0,-1,0l-1,0l1,-1c1,0,2,0,2,-1l-1,0c-1,0,-1,0,-2,0l-1,0c1,0,1,-1,1,-1ZM364.5,58.5l-1,-1l1,-2l1,1ZM361.5,64.5l1,-1l3,-2l1,0c0,-1,0,-1,1,-1l1,-1l1,0l1,0c0,0,0,1,0,1c0,0,1,0,1,0l0,1l0,1c0,0,0,1,0,1l-1,1c0,0,-1,0,-1,1c-1,0,-2,0,-3,0c-1,0,-2,0,-3,0l-1,0l0,1l-1,0c0,1,0,1,0,1l0,-1l0,-1c-1,0,-1,0,-1,0c0,-1,0,-1,0,-1c-1,0,-1,0,-1,1c-1,0,-1,0,-1,0c0,0,-1,0,-1,0l-1,0c-1,0,-1,0,-1,0c0,0,-1,0,-1,0c0,-1,0,-1,0,-1l-1,0c0,0,-1,0,-1,0c0,1,0,1,-1,1l-1,0l-1,0l-1,0c-1,0,-1,0,-2,0c0,-1,0,-2,0,-2l-1,-9l1,-2l1,10l0,1c0,0,1,0,1,0l1,0l1,0c0,0,1,0,1,0c0,0,1,0,2,0c0,-1,0,-1,1,-1c0,1,0,1,0,1l1,0l1,0l1,0c0,0,1,0,1,0l1,0l0,-1c1,0,1,0,1,0c0,1,0,1,0,1c1,0,1,0,1,0c0,0,0,1,0,1ZM366.5,61.5c0,1,0,1,0,1l-1,0l-1,1l-1,1l2,0c0,0,1,0,2,-1c1,0,1,0,2,0c0,0,1,0,1,-1l-1,-1l-1,0c0,0,-1,0,-1,0l-1,0ZM366.5,68.5l-4,2c0,0,0,-1,1,-1l4,-2ZM353.5,61.5l-2,-1l1,-2l2,1ZM351.5,55.5l4,-2l-1,1l-4,2Z" class="g1_41" />
<path fill-rule="evenodd" d="M171.5,191.5c0,1,0,1,1,1c0,-1,0,-1,0,-1l0,-1l1,0l0,1c1,0,1,0,1,-1l0,-1l0,1l0,1c0,1,0,1,0,1l-1,0l-1,0c0,1,0,1,-1,1c0,0,0,-1,0,-1l0,-1ZM247.5,348.5c0,-1,0,-1,0,-2c0,-1,-1,-1,-1,-2l1,0l0,1l0,1c0,0,0,1,0,1c0,1,0,1,0,1ZM299.5,333.5c0,-1,0,-1,1,-1c0,0,1,0,1,0c1,0,1,0,2,0c0,0,0,1,0,1c0,1,0,1,0,1c-1,0,-1,1,-1,1c-1,0,-1,0,-1,0c0,0,-1,0,-1,0c0,0,-1,0,-1,0l2,-1c0,0,1,0,1,0c0,-1,0,-1,0,-1c-1,0,-1,0,-1,0c-1,0,-1,0,-1,0c-1,0,-1,1,-1,1l0,-1ZM168.5,330.5c1,0,1,0,1,0c1,0,1,0,2,0c0,0,1,0,1,0c0,0,1,0,1,0c0,0,0,1,0,1c-1,0,-1,0,-1,1l-1,0c-1,0,-1,1,-1,1l-1,0c0,0,0,-1,0,-1l1,0c1,0,1,-1,2,-1c0,0,-1,0,-1,0l-1,0c0,0,-1,0,-1,0l-1,0c0,-1,0,-1,0,-1ZM163.5,323.5l-1,1c0,0,0,1,0,1l0,1c0,0,0,1,0,1l0,-1l-1,0l0,-1l0,-1l1,0c0,0,0,-1,0,-1c0,0,1,0,1,-1l1,0l1,0ZM163.5,325.5c0,0,0,-1,0,-1c1,0,1,0,1,0c0,0,1,0,1,0l0,1l0,1l0,1l0,1l-1,-1l-1,1c0,0,0,1,-1,1l-1,0l1,-1l1,0l0,-1l0,-1l0,-1ZM164.5,325.5c0,0,-1,0,-1,0l1,0l0,1l0,-1ZM147.5,341.5c0,1,0,2,0,3l-1,1l0,1l1,0l0,1l-1,0c0,0,-1,0,-1,1c-1,0,-1,1,-2,1l-1,0l0,1l-1,0l-1,0l-1,1l0,1l-1,0l-3,0l-1,0l-1,0l-1,-1l0,-1c-1,0,-1,0,-1,0c-1,-1,-2,-1,-3,-1l-1,-1l-1,0l0,-1l-1,0l0,-1l-1,0l2,0l-1,-1l0,-1l-1,0l0,-1c0,-1,0,-1,0,-1l0,-1l0,-1c0,0,0,-1,1,-1c0,-1,0,-1,0,-1l0,-1l-1,0c0,0,1,0,1,-1l1,0l0,-1l1,0l1,-1l1,0l2,-1l1,-1c1,-1,1,-1,1,-1l1,0l1,0l3,0l1,1l1,0l0,1l1,0l2,1l1,0l0,1l1,0l1,1c0,0,1,0,1,1l-1,0l0,1l1,0l0,1l0,1l0,1ZM138.5,352.5l1,-1l1,-1l1,-1c0,0,1,0,1,0l1,0c1,-1,1,-1,1,-1l1,0l0,-1l1,0l0,-1l1,0l-1,0l0,-1l0,-1l1,0l0,-1l0,-1l0,-1c0,0,0,-1,0,-2l-1,-1l0,-1l1,0c-1,-1,-1,-1,-2,-1l0,-1l-1,0l-1,-1l-1,0l-1,-1c-1,0,-1,0,-1,0l-1,-1c0,-1,0,-1,-1,-1l-3,0l-1,0l-1,0l0,1l-1,0l0,1c-1,0,-1,0,-1,0l-2,1l-1,0l0,1l-1,0l-1,1c0,0,-1,0,-1,1l1,0l-1,1l0,1l0,1l-1,0l0,1l0,1l0,1l1,0l0,1l0,1l1,0l0,1l-1,0l0,1l1,0l1,1l1,0l0,1l1,0l2,0c0,1,0,1,1,1l0,1l1,0c0,0,0,1,0,1l1,0l1,0ZM144.5,337.5l-1,0l0,-1l-1,0c-1,0,-1,0,-1,0c0,-1,0,-1,0,-1l1,0l1,0l0,1l1,0ZM144.5,346.5l0,1l-1,0l0,1l-1,0l-1,0l1,-1c1,0,1,-1,1,-1l1,0ZM140.5,348.5c0,1,0,1,-1,1c0,1,0,1,-1,1l-3,0l-1,0l-1,0c0,0,-1,0,-1,-1l0,-1c0,0,0,-1,1,-1l1,0l1,0l3,0c1,0,1,0,1,0l0,1l1,0ZM140.5,335.5l-1,0c0,1,0,1,-1,1l-3,0l-1,0l-1,0c0,0,-1,0,-1,-1c0,-1,0,-1,0,-1l1,-1l1,0l1,0l3,0c1,0,1,0,1,1c0,0,1,0,1,0ZM138.5,337.5l1,0c0,0,1,0,1,0c1,0,1,0,1,0c0,0,1,0,1,1l1,0l1,0l1,1l0,1l0,1l0,1c0,1,0,1,0,1l0,1c0,0,-1,0,-1,1l-1,0l-1,0l0,1l-1,0l-1,0c-1,0,-1,0,-1,0l-1,0l-3,0l-1,0l-1,0l-1,0l-1,0c0,0,-1,0,-1,0c0,0,-1,0,-1,-1l-1,0l-1,0l0,-2l-1,0l0,-1l0,-1c0,-1,0,-1,1,-1l0,-1l0,-1c0,0,1,0,1,0l1,0l1,-1c0,0,1,0,1,0c1,0,1,0,1,0l1,0l1,0l1,0ZM138.5,345.5l1,1l1,0l1,0l1,0l0,-1c0,0,1,0,1,-1l1,1l0,-1l1,-1l0,-1l0,-1c0,0,0,-1,0,-1c0,-1,-1,-1,-1,-1c0,-1,0,-1,0,-1l-1,1c0,0,0,-1,-1,-1l0,-1l-1,0l-1,0l-1,0l-1,0l0,1l-3,0l-1,0l-1,0l0,-1l-1,0l-1,0c-1,0,-1,0,-1,0l0,1l-1,0c0,0,0,1,0,1l-1,-1l-1,1l0,1l0,1l0,1l0,1c0,1,0,2,1,2l1,-1c0,0,0,1,0,1l1,0l0,1l1,0c1,0,1,0,1,0c0,0,1,0,1,0l0,-1l1,0l1,0l3,0ZM136.5,344.5l0,-1l0,-1l-1,-1l0,-1l1,1l0,1l0,1l0,-1l1,0l0,-1c1,-1,1,-1,1,-1l0,1l-1,1l0,1l0,1l-1,0ZM134.5,340.5l0,1l0,1l0,1c0,1,0,1,0,1l0,-1c0,-1,0,-2,-1,-2ZM127.5,337.5l1,-1l1,-1l1,0l1,0l0,1c-1,0,-1,0,-1,0c0,0,-1,0,-1,0l-1,1l-1,0ZM127.5,346.5l1,0c0,0,1,1,1,1l1,0l0,1l1,0l-1,0c-1,0,-2,0,-2,-1l-1,0ZM183.5,335.5l-2,-1l1,-2l2,1ZM183.5,341.5c1,0,2,0,3,0c0,0,1,-1,2,-1l-1,1c0,1,-1,1,-1,1c-1,1,-2,1,-3,1c-1,1,-2,1,-3,1l-1,0c0,0,-1,0,-1,0c0,-1,-1,-1,-1,-2c0,1,0,1,-1,2l-1,0c-1,0,-1,0,-1,0c-1,0,-1,0,-1,-1l-1,0l0,-1c0,1,0,1,-1,2l-1,0l-1,0l-12,0c-1,0,-2,0,-2,-1c0,0,-1,0,-1,-1l2,0l1,0l1,0c1,0,1,0,1,0c1,0,1,-1,1,-2l0,-2l0,-1l-1,-3l0,-2c0,0,0,-1,0,-1l1,-1l1,2c-1,1,-1,1,-1,2l0,1l0,1l1,1l0,1l0,1l0,1l-1,1l2,-1l1,-1c1,-1,1,-1,2,-1l1,0c0,0,1,0,1,1c1,0,1,0,1,1c0,0,0,1,0,1l-1,1l0,1l-1,0l2,-1l1,0l1,0l1,0l1,0l0,-1l0,-1l1,0l0,1c0,1,0,1,0,1c1,0,1,0,2,0c1,0,1,0,2,-1l0,-1c0,-1,0,-1,0,-1l-1,-7l1,-2l1,11c0,1,0,1,0,1c0,0,1,0,1,0c1,0,1,0,1,0l1,0l-1,0c0,0,0,-1,0,-1c0,0,0,-1,0,-1c0,-1,0,-1,0,-1l0,-1c0,0,1,0,1,0c0,-1,0,-1,0,-1l1,0c0,-1,0,-1,0,-1c1,0,1,0,1,0c1,0,1,0,1,0c0,0,1,0,1,0l0,1c0,0,1,0,1,0l0,1l-1,0l0,-1l-1,0l-1,0l0,1c-1,0,-1,0,-1,0c-1,0,-1,0,-1,0c0,1,0,1,0,1c0,1,0,1,1,1c0,0,0,1,1,1ZM183.5,331.5l4,-2l0,1l-1,0l-4,2ZM177.5,350.5l-3,2c0,-1,0,-1,0,-1l4,-2ZM174.5,347.5l-2,-1l-1,2l-1,-1l1,-2l1,1l1,-1l1,1ZM163.5,337.5l-1,-1l1,-2l1,1ZM167.5,341.5l-1,-1c0,0,-1,0,-1,0c-1,0,-1,0,-2,0l-1,1l-1,0l-1,1l1,0c1,0,1,0,2,0l1,0c1,0,2,-1,3,-1ZM238.5,341.5c-1,0,-2,1,-3,1c-1,1,-2,1,-3,1c-1,1,-2,1,-3,1l-1,0l-2,0c0,0,-1,0,-1,-1c-1,-1,-1,-1,-1,-1c0,1,0,1,0,1l-1,0c0,0,-1,1,-1,1c-1,0,-1,0,-2,0l-1,0c0,0,-1,0,-1,-1l0,-1c0,-1,0,-1,0,-1l1,0l0,1l1,0l1,0l1,0l1,0c0,0,0,-1,1,-1c0,0,0,-1,0,-1l0,-2l-1,-1l1,-1l0,-1l1,1c0,0,0,1,0,2l0,2c0,1,0,1,0,1c0,1,1,1,1,1c0,0,1,0,1,0l1,0l1,0l1,0c0,0,1,0,1,0c0,0,0,-1,-1,-1c0,-1,0,-1,0,-1c0,-1,0,-1,0,-1c0,0,0,-1,0,-1c1,0,1,0,1,0l0,-1c0,0,1,-1,1,-1l1,0l1,0l1,0c1,0,1,0,1,1l1,0l-1,0l-1,0l-1,0l-1,0l-1,0l0,1c0,0,-1,0,-1,0c0,1,0,1,0,1c1,0,1,0,1,1c1,0,1,1,2,1l1,0c0,0,1,-1,1,-1l1,0l1,-1ZM229.5,331.5l5,-2l-1,1l-4,2ZM223.5,333.5l-2,-1l1,-2l2,1ZM220.5,328.5l4,-2c0,0,-1,1,-1,1l-4,2ZM213.5,344.5l0,-1l0,-1l0,-9l1,-2l0,11c0,0,0,1,0,1c0,0,0,1,-1,1ZM202.5,348.5l-1,-1l1,-1l1,1ZM210.5,342.5c-1,0,-1,1,-2,1c-1,1,-2,1,-3,1c-1,0,-3,1,-4,1c-1,0,-3,0,-3,-1c-2,0,-2,0,-3,-1l-1,-1c0,0,0,-1,0,-1c0,-1,0,-1,0,-2c1,0,1,-1,1,-1c1,0,1,0,1,0c0,0,-1,1,-1,1c0,1,0,1,0,1c0,1,0,1,0,1c1,1,1,1,2,1c0,0,1,0,1,1l1,0l1,0l2,0c1,0,1,0,2,0c0,0,0,-1,1,-1l1,0l1,0c0,0,1,-1,2,-1c0,0,1,0,1,-1l0,-1c-1,0,-1,0,-1,0c0,0,0,-1,0,-1c0,-1,1,-1,1,-1l0,1c0,0,1,1,1,1l0,1c0,0,0,1,-1,1c0,0,0,1,0,1ZM202.5,331.5c-1,0,-1,0,-1,0l-1,1l0,1c1,1,1,1,1,1l0,1l0,-1l-1,0l0,-1l0,-1l0,-1l1,-1l1,0l1,-1ZM202.5,332.5l0,-1c1,0,1,0,1,0c1,0,1,1,1,1c0,0,0,1,0,1l0,1l-1,0l1,0l0,1l-1,0l-1,1c0,0,-1,0,-1,0l0,1l-1,0l-1,0l1,-1l1,0c0,0,0,-1,0,-1l1,0l0,-1c0,0,-1,0,-1,-1c0,0,1,0,1,-1ZM203.5,333.5l0,-1l-1,0c0,1,0,1,0,1l1,0ZM275.5,339.5c0,1,0,1,-1,1c1,0,1,0,1,0l1,0l0,-1c-1,0,-1,0,-1,0ZM275.5,347.5c-1,1,-1,1,-1,1c-1,0,-1,0,-2,0c-1,0,-1,0,-2,0c0,-1,0,-1,-1,-1l1,0c0,0,1,0,1,0c0,0,1,0,1,0c1,0,1,0,1,0c0,0,0,-1,1,-1l1,-1c1,0,1,-1,1,-1c0,-1,1,-2,1,-2l-1,0c0,0,-1,0,-1,0c0,0,-1,0,-1,0l0,-1c-1,0,-1,0,-1,0l0,-1l1,0c0,-1,0,-1,0,-2c0,0,1,0,1,-1l1,0c0,1,1,1,1,1c0,0,0,1,0,1c0,0,0,1,0,1c0,1,0,1,0,1c0,1,0,1,0,1c0,1,0,2,0,3c-1,0,-1,1,-1,1c0,0,-1,1,-1,1ZM262.5,347.5l0,-1c0,0,1,0,1,0l1,1c0,0,1,-1,2,-1c1,-1,1,-1,1,-1c1,-1,1,-1,2,-2l0,-1l0,-1l0,-1l-1,0l0,-1l0,-1l1,-1l0,1c0,0,1,1,1,1l0,1l0,1c0,1,0,1,0,2l0,1c0,0,-1,0,-1,0c0,1,0,1,0,1c0,1,-1,1,-1,1c0,0,0,1,-1,1c-1,0,-1,0,-1,0c-1,0,-1,0,-1,0l-1,0c0,0,-1,0,-1,0l-1,0ZM265.5,333.5l4,-2l0,1c-1,0,-1,0,-1,0l-4,2ZM261.5,343.5l0,-1l0,-1l-1,-8l1,-3l1,11c0,1,0,1,-1,1c0,1,0,1,0,1ZM258.5,327.5l1,0l1,0c1,1,1,1,2,1l1,-1c0,1,0,1,-1,1l-1,0l0,1l-1,0l0,-1l-1,0l-1,0c0,0,-1,0,-1,0c0,0,1,-1,1,-1ZM253.5,346.5l0,-1c0,0,1,0,1,-1l1,0c1,0,1,0,1,0l0,1l0,1l-1,-1c-1,0,-1,0,-1,1l1,0l0,1c0,0,1,0,1,0l1,-1l0,1l-1,0l-3,2l0,-1c1,0,1,-1,1,-1c-1,0,-1,0,-1,-1ZM254.5,343.5l-1,0l-1,0c0,0,-1,0,-1,0c0,0,-1,0,-1,0c0,-1,0,-1,0,-1c0,0,0,-1,0,-1c-1,0,-1,0,-1,-1l0,1c-1,0,-1,0,-1,1l-1,0c-1,0,-1,0,-1,0l-1,-1l0,-1c0,0,0,-1,1,-1c0,-1,1,-1,2,-2c0,0,1,0,1,0l0,-1l0,-1l1,1c0,0,0,1,0,1c0,0,0,1,0,1l0,2c0,0,0,1,0,1c1,0,1,0,1,0c1,1,1,1,1,1l1,0l1,0c0,0,1,-1,1,-1c1,0,1,0,1,0c0,0,0,-1,0,-1c0,-1,0,-1,0,-1l0,-2c0,0,1,0,1,1l0,1l0,1l0,1l0,1c-1,1,-1,1,-2,1c0,0,-1,0,-1,0ZM257.5,351.5l-4,2c0,0,0,-1,1,-1l4,-2ZM249.5,338.5l-1,0l0,1l-1,0l-1,1l1,0l1,0c1,0,1,0,1,-1ZM327.5,339.5c0,1,0,1,0,1c1,0,1,0,1,0l0,-1l-1,0ZM327.5,347.5c0,1,-1,1,-1,1c0,0,-1,0,-2,0c0,0,-1,0,-2,0c0,-1,0,-1,0,-1l1,0c0,0,1,0,1,0l1,0c0,0,1,-1,1,-1c0,0,1,0,1,-1c0,0,1,0,1,0c0,0,0,-1,0,-1c1,-1,1,-2,1,-2c0,0,-1,0,-1,0l-1,0l-1,0l0,-1l0,-1c0,-1,0,-1,0,-2c1,0,1,0,1,-1c0,0,1,0,1,0c1,1,1,1,1,1c0,0,0,1,0,1c0,0,1,1,1,1c0,1,0,1,0,1c0,1,0,1,0,1c0,1,-1,2,-1,3c0,0,-1,1,-1,1c0,0,0,1,-1,1ZM325.5,333.5l4,-2l-1,1l-4,2ZM321.5,343.5c0,0,-1,0,-1,0l-1,0c0,-1,0,-1,0,-1l-1,0l-1,0c0,0,0,1,0,1l-1,0l-1,0c0,0,0,1,0,1c0,0,0,1,0,1l-1,0c0,1,0,1,0,1c0,1,0,1,-1,1c0,0,0,1,-1,1l-1,0c0,0,-1,1,-1,1c-1,0,-2,0,-3,1c-1,0,-2,0,-3,0c-1,0,-2,0,-2,0c-1,0,-2,0,-2,0c-1,0,-2,0,-2,0c-1,0,-1,0,-2,0c-1,0,-2,0,-2,0c-1,-1,-2,-1,-3,-1c-1,-1,-2,-1,-3,-2c-1,0,-2,-1,-3,-2c0,-1,0,-1,0,-1c0,1,1,1,1,1c0,0,1,0,1,1c1,0,1,0,2,1c1,0,1,0,2,0c0,0,1,0,1,1c1,0,2,0,2,0c1,0,2,0,2,0c1,0,1,0,2,1c1,0,1,0,2,0c0,0,1,0,2,0c0,-1,1,-1,2,-1c1,0,1,0,2,0c1,0,2,0,3,-1c1,0,2,0,3,0c0,-1,1,-1,1,-1c1,-1,1,-1,1,-1c0,0,0,-1,0,-1l-1,-2l0,-1c1,0,1,0,1,0l0,1l1,0l1,0c0,0,1,0,1,-1l1,-1c0,-1,0,-1,1,-2c0,0,1,0,1,0c0,0,1,0,1,0c0,1,0,1,0,2l1,1l-1,0c0,1,0,1,0,1l0,1ZM319.5,340.5l0,1l1,0l0,-1l-1,0ZM320.5,346.5l-4,2l0,-1l4,-2ZM301.5,344.5l-1,-1l1,-2l1,1ZM274.5,330.5l1,1c0,0,1,0,1,-1l0,-1l0,1c1,0,1,0,1,0l0,-1l1,0l0,1l0,1c0,0,-1,0,-1,0l-1,0l0,1c-1,0,-1,0,-1,0c0,0,-1,0,-1,0l0,-1l0,-1ZM279.5,327.5l-6,3c0,-1,1,-1,1,-2l5,-2ZM352.5,284.5c1,0,1,-1,1,-1c1,0,1,0,2,0c0,0,1,0,1,0c0,0,1,1,1,1c-1,1,-1,1,-1,1c0,0,0,1,-1,1l-1,0l-1,0l1,-1c1,0,1,0,2,0c0,-1,-1,-1,-1,-1c0,0,-1,0,-1,0c0,0,-1,0,-1,1l-1,0c0,-1,0,-1,0,-1ZM270.5,285.5c1,0,1,0,1,0c1,0,1,0,2,0c0,0,1,0,1,0c0,0,1,0,1,1c-1,0,-1,1,-1,1l-1,0l0,1l-1,0l-1,0l1,-1c1,0,1,0,2,-1c0,0,-1,0,-1,0c0,0,-1,0,-1,0c0,0,-1,0,-1,0l-1,0c0,0,0,-1,0,-1ZM70.5,297.5l0,-1l1,0l0,-1l0,-1l0,-1l0,-2l0,-1l1,1l0,1l0,1l0,1l0,1l0,-1l1,0c0,0,1,0,1,0c1,0,1,0,1,0l1,0l0,1l-1,0c0,1,0,1,0,1c0,0,-1,0,-1,0c0,0,-1,0,-1,0c0,0,-1,1,-1,1ZM74.5,294.5c0,0,-1,1,-1,1l-1,0l0,1c0,0,1,0,1,0l0,-1c1,0,2,0,2,0l-1,-1ZM121.5,301.5l-1,-1l0,-1l2,1ZM119.5,298.5l-1,0l-1,0c-1,0,-1,-1,-2,-1l-1,0c0,0,0,1,-1,1c0,0,-1,0,-1,0l-1,-1l-1,-1l-1,1c-1,0,-1,1,-1,1l-1,0l-1,0l-1,0c-1,-1,-1,-1,-1,-1l-1,0c0,0,0,-1,0,-1c-1,1,-1,1,-1,1c0,0,-1,0,-1,1l-1,0c-1,0,-1,0,-1,0c0,-1,-1,-1,-1,-1l0,-1c0,0,-1,1,-1,1l-1,0c0,0,-1,1,-2,1l-2,0c-1,0,-1,1,-1,1l-1,0l-1,0c-2,0,-3,0,-4,-1c-1,0,-1,0,-2,-1c0,0,-1,0,-1,-1c0,-1,0,-1,0,-1l0,-1l0,-1c1,0,1,-1,1,-1l1,0c-1,0,-1,1,-1,1c0,0,0,1,0,1c0,0,0,1,0,1c1,0,1,1,2,1l1,0c0,1,0,1,1,1c1,0,2,0,3,0c1,0,1,0,2,0c0,0,1,0,1,0l1,-1c0,0,1,0,1,0c1,0,1,0,2,-1c1,0,1,-1,1,-1c0,0,0,1,0,1l1,1l1,0c0,0,1,0,1,0c0,0,1,0,1,-1c0,0,1,0,1,0l1,0c0,0,0,1,0,1c1,0,1,0,1,0l1,0l1,0l1,0l1,0l0,-1l1,-1c1,-1,2,-1,2,-1l1,1l1,0l1,1c0,1,1,1,1,1l1,0l1,0l1,0c0,0,1,0,1,0c1,0,1,-1,1,-1c0,0,0,-1,0,-1l-1,-1l1,-2c0,0,0,1,0,1l1,0l0,1l0,1l0,1c0,1,0,1,0,1c0,0,-1,0,-1,1l-1,0c0,1,-1,1,-1,1ZM120.5,304.5l-4,2c1,-1,1,-1,1,-1l4,-2ZM114.5,296.5l-1,-1c0,0,-1,-1,-1,-1l-1,0l0,1l1,1l1,0ZM110.5,285.5l4,-3l-1,1l0,1l-4,2ZM104.5,301.5l-1,-1l-1,1l-1,-1l0,-1l2,1l1,-1l1,0ZM102.5,286.5l0,1c1,0,1,0,1,0l0,-1l1,1c0,0,0,-1,0,-1l1,-1l0,1l0,1c0,0,-1,1,-1,1c-1,0,-1,0,-1,0l0,-1l0,1c-1,0,-1,1,-1,1c0,0,0,-1,-1,-1l0,-1l0,-1ZM105.5,305.5l-5,3c1,-1,1,-1,1,-2l4,-2ZM92.5,292.5l-2,-1l-1,2l-1,-1l1,-2l1,1l1,-1l1,1ZM80.5,305.5l5,-2c0,1,0,1,0,1l-5,3ZM82.5,302.5l5,-2c0,0,0,1,-1,1l-4,2ZM146.5,297.5c-1,0,-1,0,-2,0c0,0,-1,-1,-1,-1l-1,0l0,1c0,0,-1,0,-1,0l-1,0l-1,0c0,0,0,1,0,1c-1,0,-1,0,-1,0l-2,0l0,1l0,1c-1,0,-1,1,-1,1c0,0,-1,1,-1,1c0,0,-1,0,-1,0c0,1,0,1,-1,1c-1,0,-1,0,-1,0c-1,0,-1,0,-2,0c0,0,-1,-1,-1,-1c0,0,1,0,1,0l1,0c0,0,1,0,1,0c0,0,1,0,1,-1c1,0,1,0,1,0c0,-1,1,-1,1,-1c0,0,0,-1,1,-1l0,-1c-1,0,-1,0,-1,0l0,-1c-1,0,-1,0,-1,0l-1,-1l0,-1c0,0,1,0,1,-1c0,-1,0,-1,1,-1c1,0,1,0,1,0l1,1c0,0,0,1,0,1c0,0,0,1,0,1c1,0,1,0,1,0c1,0,1,0,1,0c0,0,1,0,1,0c1,0,1,0,1,0l1,-1c-1,0,-1,0,-1,0c0,-1,0,-1,0,-1c0,0,0,-1,1,-1c0,0,0,-1,0,-1l1,0c-1,-1,-1,-1,-1,-1l1,-1c0,0,0,-1,0,-1c1,1,2,1,2,2c1,0,1,1,2,1c0,0,1,1,1,1c0,1,0,1,0,1c0,0,0,1,0,1c0,0,0,1,0,1c0,1,0,1,0,1c-1,0,-1,0,-1,0ZM142.5,293.5c0,0,-1,0,-1,0l0,1c1,0,1,0,1,1c0,-1,1,-1,1,-1c0,-1,0,-1,0,-1l-1,0ZM144.5,293.5l0,1c0,0,0,1,0,1l2,0c0,-1,0,-1,-1,-1l0,-1c-1,0,-1,0,-1,0ZM139.5,278.5l1,0c0,-1,0,-1,0,-1l1,0c0,0,0,1,0,1c0,0,0,1,0,1c0,1,0,1,0,1l0,2l-1,-1l-1,1l-1,1l-1,0l1,-1c0,0,1,0,1,-1l1,0l-1,-1l0,-1l0,-1ZM140.5,279.5l0,-1l0,1l0,1l0,-1ZM134.5,295.5c0,0,-1,0,-1,0l0,1c1,0,1,0,1,0l1,0l0,-1c-1,0,-1,0,-1,0ZM130.5,288.5l5,-2l-1,0c0,1,0,1,0,1l-4,2ZM173.5,294.5c0,0,-1,0,-1,0c0,1,0,1,1,1c0,0,0,-1,0,-1ZM173.5,301.5c0,1,-1,1,-1,1l-1,0c0,0,-1,0,-1,0l-1,0c0,0,-1,0,-1,0c0,0,-1,0,-1,0c0,0,0,-1,0,-1c0,0,1,0,1,0c0,0,0,1,0,1c1,0,1,0,1,-1c1,0,1,0,1,0c1,0,1,0,1,0c1,-1,1,-1,1,-1c1,0,1,-1,1,-1l1,-1c0,-1,0,-1,0,-1c0,-1,0,-1,0,-1c0,1,0,1,-1,1c-1,0,-1,0,-1,0c0,-1,0,-1,-1,-1c0,0,0,-1,0,-1l0,-1c0,-1,0,-1,1,-1c0,-1,0,-1,0,-1c1,0,1,0,1,0c0,0,1,0,1,0l0,1c1,0,1,0,1,0c0,1,0,1,0,2l0,1c0,1,0,1,0,1c0,1,0,2,-1,2c0,1,0,1,0,1c-1,1,-1,1,-1,1ZM166.5,297.5l-1,0c-1,0,-1,0,-1,0l-1,-1c-1,1,-1,1,-1,1l0,1l-1,0l-1,0l-1,0c-1,0,-1,-1,-2,-1c0,0,-1,-1,-1,-2l0,-8l1,-3l0,10l0,1l1,0c0,1,0,1,1,1l1,0l1,0c1,0,1,0,1,0l1,-1l0,-1c0,0,1,-1,1,-1c1,-1,1,-1,1,-1c1,0,1,0,1,1c0,0,1,1,1,1l0,1l0,1c0,1,-1,1,-1,1ZM164.5,295.5l1,0l1,0c0,0,-1,-1,-1,-1c-1,0,-1,0,-1,0l0,1ZM161.5,285.5l5,-3l-1,1l0,1l-4,2ZM215.5,297.5c-1,0,-1,0,-1,0l-1,0l-1,0l-1,-1c0,1,0,1,0,1l-1,1l-1,0l-1,0c0,0,-1,-1,-1,-1l-1,-1l-2,-2c-1,0,-1,0,-1,-1l-1,0l0,1l0,1l0,1l-1,1c-1,0,-1,0,-1,0c-1,1,-1,1,-2,1c-1,0,-1,-1,-1,-1c0,0,-1,0,-1,-1c0,0,0,-1,0,-1l-1,-8l1,-3l1,5l0,-1c0,0,0,-1,0,-1c0,0,1,0,1,0c0,0,1,-1,3,-2c1,0,2,-1,4,-1c1,-1,2,-1,3,-1l1,0l-1,1c-1,0,-1,0,-1,0c0,1,-1,1,-2,1c-2,1,-3,1,-4,2c-2,0,-3,1,-3,1c-1,0,-1,1,-1,1l1,0c1,0,1,1,1,1c1,0,1,0,1,0l1,0c1,1,1,1,2,2c0,0,1,0,1,1c1,0,1,1,2,1l2,2l1,0l1,0c0,0,1,0,1,0l0,-1l1,-1c0,0,0,-1,1,-1c0,-1,0,-1,1,-1l1,1c0,0,0,1,0,1l0,1l0,1c0,1,0,1,0,1ZM213.5,295.5l1,0c0,0,0,-1,0,-1l-1,0l0,1ZM210.5,285.5l4,-3l0,1l0,1l-4,2ZM198.5,296.5l1,0c0,0,1,0,1,0c1,0,1,-1,1,-1c0,0,1,0,1,0c0,-1,0,-1,0,-1l-1,-1c0,-1,-1,-1,-1,-1l-1,-1l-1,0c-1,0,-1,-1,-1,-1l0,4c0,0,0,1,0,1c1,1,1,1,1,1ZM199.5,281.5l4,-2l0,1l-4,2ZM187.5,291.5l-1,-1l0,-1l2,1ZM187.5,301.5c-1,0,-1,0,-2,0c0,-1,-1,-1,-1,-1c-1,0,-1,-1,-1,-1c0,-1,-1,-1,-1,-2c0,0,0,-1,0,-1c0,0,1,0,1,0c0,0,0,-1,0,-1c0,0,0,-1,0,-1c1,-1,1,-1,1,-1c0,1,0,1,0,1c0,0,0,1,-1,1c0,1,0,1,0,1c0,1,0,1,1,1c0,1,0,1,0,1c0,0,1,0,1,0c0,0,0,1,0,1c1,0,1,0,2,0c1,0,2,0,2,-1c1,0,1,0,2,-1c0,0,0,-1,0,-1c0,0,0,-1,0,-1c0,-1,0,-1,0,-1c0,0,0,-1,0,-1c0,0,-1,0,-1,-1l1,-2l0,1c0,0,0,1,1,1l0,1c0,1,0,1,0,1c0,0,0,1,0,1l0,1c0,0,0,1,0,2c0,0,-1,1,-1,1c-1,1,-1,1,-2,1c-1,1,-2,1,-2,1ZM182.5,308.5l5,-2c-1,1,-1,1,-1,1l-5,2ZM184.5,305.5l5,-3c-1,1,-1,2,-1,2l-5,2ZM259.5,296.5c-1,0,-1,0,-3,0c0,1,-2,1,-3,1c-2,0,-3,0,-3,0l-1,0c0,0,-1,0,-1,0c-1,0,-3,0,-4,0c-2,1,-3,1,-4,1c-1,0,-2,0,-3,0l-1,0c-1,0,-1,0,-1,-1c-1,0,-1,0,-1,-1l0,1l0,1c0,1,0,1,0,2c-1,0,-1,1,-2,1c0,0,0,1,0,1c-1,0,-1,0,-1,0c-1,0,-1,1,-2,1c0,0,-1,0,-1,0l-1,0c0,0,-1,0,-1,0c0,-1,-1,-1,-1,-1c0,-1,-1,-1,-1,-1c0,-1,0,-1,0,-1c0,-1,0,-2,0,-2c0,-1,0,-1,1,-2l0,-1l1,0l-1,1c0,1,0,1,0,1c0,1,0,1,0,1c0,1,0,2,1,2c0,0,1,1,1,1c1,0,1,0,1,0c1,0,2,0,3,-1c1,0,1,-1,2,-1c0,-1,0,-1,0,-1l0,-3c0,0,0,-1,0,-1c0,-1,0,-1,0,-2l-1,-6l1,-2l1,10c0,0,0,1,0,1l1,0c0,0,0,1,0,1c0,0,1,0,1,0l1,0c1,0,1,0,1,0c1,0,2,0,3,0c1,0,2,0,3,0c1,0,3,0,4,0l2,-1c1,0,2,0,3,0c1,0,2,0,4,0c1,0,2,0,2,0c0,0,1,0,1,0c0,-1,0,-1,0,-1c-1,0,-1,0,-1,0c0,-1,0,-1,-1,-1c0,0,-1,0,-1,0c-1,0,-2,0,-4,0c-2,1,-4,1,-6,1c-2,0,-3,0,-5,0c-1,0,-3,0,-3,0c0,0,0,-1,0,-1c0,0,0,-1,0,-1c0,-1,0,-1,1,-1c0,-1,0,-1,1,-2c0,0,1,-1,2,-1c1,-1,2,-2,3,-2l0,1c0,0,-1,1,-1,1c-1,1,-2,1,-3,2c-1,0,-2,1,-2,2c1,0,1,0,1,0l1,0l0,1c1,0,1,0,1,0c1,0,3,-1,5,-1c2,0,4,0,5,0c2,0,4,0,4,0c1,0,1,0,1,0c0,0,1,0,1,0c1,0,1,0,1,1l1,0c0,0,0,1,0,1c0,1,0,1,-1,2ZM241.5,278.5c0,0,1,0,1,0c0,-1,0,-1,1,-1c0,0,1,1,1,1c0,0,0,1,-1,1c0,1,0,1,0,1l1,0l0,2l-2,-1l0,1c-1,0,-1,0,-1,1l-1,0l-1,0l1,-1l1,0l0,-1l1,0l0,-1l-1,0l0,-1l0,-1ZM242.5,279.5l0,-1l0,1l1,0l0,1l0,-1ZM228.5,280.5l0,1l1,0l0,-1l0,-1l0,1c0,0,1,0,1,0l1,-1c0,0,0,1,0,1l0,1l-1,0l0,1c0,-1,-1,-1,-1,-1l0,1c0,0,-1,0,-1,0l-1,0l0,-1l0,-1ZM231.5,306.5l-4,2c0,-1,0,-1,0,-1l4,-2ZM285.5,297.5l-1,0c0,0,-1,0,-1,0l-1,-1c0,1,-1,1,-1,1l0,1l-1,0l-1,0l-1,0l0,1c0,1,0,2,-1,2c0,1,0,1,-1,2c0,0,-1,1,-2,1c-1,0,-1,1,-2,1c-1,0,-1,-1,-2,-1c0,0,-1,0,-1,0c-1,-1,-1,-1,-1,-2c-1,0,-1,-1,-1,-1c0,-1,0,-1,0,-1c0,-1,0,-1,1,-1c0,-1,0,-1,0,-1c0,-1,0,-1,0,-1c1,0,1,0,1,0c0,0,0,1,0,1c0,0,-1,0,-1,1c0,0,0,1,0,1c0,0,0,1,0,1c1,0,1,1,1,1c0,0,1,0,1,0c1,1,1,1,2,1c1,0,2,0,3,-1c0,0,1,0,2,-1c0,0,0,-1,0,-1c0,-1,0,-1,0,-1c0,-1,0,-1,0,-1l-1,-1l1,-2c0,1,1,1,1,1l1,0l1,0c1,0,1,0,1,0l1,-1l0,-1c1,0,1,-1,1,-1l1,0c0,-1,0,-1,0,-1c1,0,1,0,1,1c0,0,1,1,1,1l0,1l0,1c0,1,-1,1,-1,1ZM283.5,295.5l1,0l1,0c0,0,0,-1,0,-1c-1,0,-1,0,-1,0c0,0,-1,0,-1,0l0,1ZM284.5,301.5l-4,2c0,-1,1,-1,1,-1l4,-2ZM273.5,295.5l-2,-1l1,-1l2,1ZM337.5,298.5l0,-1l0,-2l-1,-8l1,-3l1,11c0,0,0,1,0,1c-1,1,-1,1,-1,2ZM329.5,296.5c1,0,1,0,1,0c1,0,1,0,1,0c0,0,1,-1,1,-1l0,-2l-1,-7c0,-1,0,-1,0,-1c1,-1,1,-1,1,-1c0,1,0,1,0,1c0,0,1,0,1,0c0,1,0,1,0,2c0,1,0,1,0,2c0,0,0,1,0,3c0,0,0,1,0,1l0,1c0,0,0,1,0,1c0,1,0,1,-1,1l0,1c0,0,-1,0,-1,0l-1,1l-1,0l-1,0c0,0,-1,-1,-1,-1l-1,0c0,0,0,1,-1,1c0,0,-1,0,-1,0l-1,-1l-2,-1l-1,1c0,0,0,1,-1,1l-1,0l-2,0l0,1l0,1c0,0,-1,1,-1,1c0,0,-1,1,-1,1l-1,0c0,1,0,1,0,1c-1,0,-1,0,-1,0c0,0,-1,0,-1,0c-1,0,-1,0,-2,0c0,0,0,-1,-1,-1c1,0,1,0,1,0c0,0,1,0,1,0c0,0,1,0,1,0c1,0,1,0,2,-1c1,-1,1,-1,1,-1c0,0,1,-1,1,-1l0,-1l-1,0l0,-1c0,0,-1,0,-1,0l0,-1l0,-1l0,-1c1,-1,1,-1,1,-1l1,0c0,0,1,0,1,1c0,0,0,1,0,1c0,0,1,1,1,1l1,0l1,0c1,0,1,0,1,0l1,-1l0,-1c1,-1,2,-1,3,-1l1,1l1,0l0,1l1,0c0,1,0,1,0,1l1,0l1,0ZM329.5,280.5c1,-1,1,-1,1,-1c1,0,1,0,2,0c0,0,1,0,1,0c1,0,1,1,1,1c-1,1,-1,1,-1,1c0,0,0,1,-1,1c-1,0,-1,0,-1,0l-1,0l1,-1c1,0,2,0,2,0c0,-1,-1,-1,-1,-1l-1,0c0,0,-1,0,-1,0c0,1,0,1,-1,1c0,-1,0,-1,0,-1ZM325.5,296.5l0,-1c-1,0,-1,-1,-1,-1l-1,0l-1,1c1,0,1,0,2,1ZM321.5,285.5l4,-3l0,1l0,1l-4,2ZM314.5,295.5l-1,0c0,0,1,0,1,1c0,0,1,0,1,0l0,-1c0,0,-1,0,-1,0ZM310.5,287.5c0,0,0,-1,1,-1c0,0,1,0,1,0c1,0,1,0,2,0c0,1,0,1,0,1c0,1,0,1,-1,1c0,1,0,1,0,1c-1,0,-1,0,-1,0c0,0,-1,0,-1,0c0,0,-1,0,-1,0l2,0c0,-1,1,-1,1,-1l0,-1c-1,0,-1,0,-1,0c-1,0,-1,0,-2,1c0,-1,0,-1,0,-1ZM303.5,291.5l-1,1l-2,-1l0,1l-2,-1l1,-1l2,1l0,-1ZM308.5,296.5c0,0,-1,0,-1,1c-1,0,-2,0,-3,1c-2,0,-3,0,-4,0c-2,0,-3,0,-4,0c-1,0,-2,-1,-2,-1c0,0,-1,-1,-1,-1c0,-1,0,-1,0,-1l0,-1c0,0,0,-1,0,-1c0,-1,1,-1,1,-1l1,0c-1,0,-1,0,-1,1l0,1l0,1c1,0,1,0,2,1l1,0l1,0l1,0l2,0c0,0,1,0,2,0c1,0,1,0,1,0l1,0l0,-1c1,0,2,0,2,0c1,-1,1,-1,2,-1l-1,-1c0,0,0,-1,0,-1l0,-1l0,-1c1,1,1,1,1,2c0,1,0,1,0,1c0,1,0,1,0,1c0,1,0,1,-1,2ZM299.5,282.5c0,-1,0,-1,0,-1c1,0,1,0,1,0c0,0,1,0,1,0l0,1l0,1l0,1l0,1l-1,-1l0,1l-1,0c0,1,-1,1,-1,1l-1,0l1,-1l1,-1c0,-1,0,-1,0,-1l0,-1ZM300.5,282.5l-1,0l1,1l0,-1ZM381.5,294.5c0,1,0,1,0,1c1,0,1,0,1,0c0,0,0,-1,0,-1l-1,0ZM381.5,301.5c0,1,0,1,0,1c0,0,-1,0,-1,0c0,0,-1,0,-2,0c0,0,-1,0,-2,0c0,0,0,-1,0,-1l1,0c0,0,0,1,0,1c0,0,1,0,1,-1l1,0c0,0,1,0,1,0c0,-1,1,-1,1,-1c0,0,0,-1,1,-1l0,-1c1,-1,1,-1,1,-1c0,-1,0,-1,0,-1c-1,0,-1,0,-1,0c0,1,0,1,0,1c0,0,-1,0,-1,0l-1,0c0,-1,0,-1,0,-1c0,0,0,-1,0,-1l0,-1c0,-1,0,-1,0,-1c1,-1,1,-1,1,-1l1,0c1,0,1,0,1,1c0,1,0,1,1,2l0,1c0,1,0,1,0,1c-1,1,-1,2,-1,2c0,1,-1,1,-1,1c0,1,0,1,-1,1ZM378.5,288.5l5,-2l-1,0c0,1,0,1,0,1l-4,2ZM376.5,301.5l-2,-1l-1,1l-1,-1l1,-1l1,1l1,-2l1,1ZM373.5,298.5l-1,0l-2,0c0,0,-1,-1,-2,-1c0,0,0,-1,0,-2l-1,-8l1,-3l1,10l0,1c0,1,1,1,1,1l2,0l1,0c0,0,1,0,1,0c1,0,1,-1,1,-1c0,0,0,-1,0,-1c0,0,0,-1,0,-1l-1,0l1,-2c0,0,1,1,1,1l0,1l0,1c0,1,0,1,0,1c0,1,0,1,0,1l-1,1l-1,0c0,1,-1,1,-1,1ZM372.5,285.5l5,-3l-1,1l0,1l-4,2ZM366.5,279.5c0,0,1,0,1,0c1,-1,1,-1,1,-1c1,0,1,1,2,1l0,1l0,1c0,0,-1,0,-1,0c0,0,-1,0,-1,0l-1,0l-1,0l2,0c1,0,1,-1,2,-1c-1,0,-1,0,-1,0c0,0,-1,0,-1,0c0,0,-1,0,-1,0c0,0,-1,0,-1,0l0,-1ZM363.5,289.5l-1,-1l-1,2l-2,-1l1,-2l2,1l0,-1l2,1ZM361.5,298.5l-1,0l-1,0c0,0,-1,0,-1,0c0,-1,0,-1,0,-1c-1,0,-1,0,-1,0c0,0,0,-1,0,-1c0,0,-1,0,-1,0c0,1,0,1,0,1c-1,0,-1,0,-2,1l-1,0c0,0,-1,0,-1,-1c0,0,-1,0,-1,0c0,0,0,-1,0,-1c-1,-1,-1,-1,-1,-1c0,0,0,1,0,1c-1,0,-1,0,-1,0l-1,0c-1,0,-1,0,-1,0l-1,0l0,-2l1,-1c0,0,1,-1,2,-1c0,-1,1,-1,1,-1l0,-1l0,-1l1,1c0,1,0,1,0,1c0,1,0,1,0,2l0,2c0,0,1,1,1,1c1,0,1,0,1,0c1,0,1,0,1,0c1,0,1,0,2,-1c1,0,1,0,1,0c1,0,1,1,1,1c0,0,1,0,1,0l1,0l1,0c0,0,1,0,1,0c1,0,1,-1,1,-1c0,0,1,0,1,0l-1,0c0,0,0,-1,0,-1l0,-1l0,-2c1,0,1,1,1,1l0,1l0,1l0,1c0,1,0,1,0,1l0,1c-1,0,-1,0,-2,0c0,1,-1,1,-1,1ZM365.5,301.5l-5,2c1,-1,1,-1,1,-1l4,-2ZM358.5,301.5l-2,-1l-1,1l-1,-1l1,-1l1,1l1,-1l2,0ZM350.5,292.5l-1,1l-1,0c0,1,0,1,-1,1l1,0l1,0c1,0,1,0,1,0ZM351.5,301.5l-5,2c1,-1,1,-1,1,-1l4,-2ZM172.5,285.5l0,1l1,0c0,-1,0,-1,0,-1l0,-1l1,0l0,1c1,0,1,0,1,-1l0,-1l0,1l0,1c0,1,0,1,0,1l-1,0l-1,0c0,1,0,1,-1,1c0,0,0,-1,0,-1l0,-1ZM176.5,282.5l-5,3c0,-1,0,-2,0,-2l6,-3ZM266.5,228.5c-1,2,0,3,-1,5l-1,0c0,1,0,1,0,1c-1,0,-1,0,-1,0c0,0,-1,0,-1,0l1,0l1,-1l0,-1c0,0,-1,-1,-1,-1l-1,0c0,-1,0,-1,0,-1c0,0,-1,0,-1,0c0,-1,0,-1,0,-1c1,0,1,0,1,0c1,1,1,1,1,1l1,1c0,1,0,1,0,1c1,0,1,0,1,1c0,-1,0,-1,0,-1c0,0,0,-1,0,-1l0,-2ZM364.5,241.5c0,0,1,0,1,0c0,-1,1,-1,1,-1c1,0,1,1,2,1l0,1l0,1c-1,0,-1,0,-1,0c0,0,-1,0,-1,0l-1,0l-1,0l2,0c1,0,1,-1,2,-1c-1,0,-1,0,-1,0c-1,0,-1,0,-1,0c0,0,-1,0,-1,0c-1,0,-1,0,-1,0l0,-1ZM293.5,238.5c0,-1,0,-1,1,-1c0,0,1,0,1,0c1,0,1,0,2,0c0,0,0,1,0,1c0,1,0,1,0,1c-1,0,-1,1,-1,1c-1,0,-1,0,-1,0c0,0,-1,0,-1,0c0,0,-1,0,-1,0l2,-1c0,0,1,0,1,0c0,-1,0,-1,0,-1c-1,0,-1,0,-1,0c-1,0,-1,0,-2,0c0,1,0,1,0,1c0,-1,0,-1,0,-1ZM90.5,238.5c0,-1,1,-1,1,-1c0,0,1,0,1,0c1,0,1,0,2,0c0,0,0,1,0,1c0,1,0,1,0,1c-1,0,-1,1,-1,1c0,0,-1,0,-1,0l-1,0c0,0,-1,0,-1,0l2,-1c1,0,1,0,2,0c-1,-1,-1,-1,-1,-1c-1,0,-1,0,-1,0c-1,0,-1,0,-1,0c-1,1,-1,1,-1,1c0,-1,0,-1,0,-1ZM112.5,256.5l-2,-1l-1,1l-1,-1l1,-1l1,0l1,-1l1,1ZM108.5,250.5c1,0,1,0,1,-1c1,0,1,0,1,0c0,0,0,-1,0,-1c0,-1,-1,-1,-1,-2c0,0,-1,0,-1,0l0,-1l0,-1l1,-1c0,1,0,1,1,1c0,1,0,1,0,1c0,1,0,1,1,1c0,0,0,1,0,1c0,0,0,1,0,1c0,0,0,1,0,1c0,0,0,1,0,1c-1,0,-1,0,-1,0c0,1,0,1,0,1c-1,0,-1,0,-1,0l-1,0l-1,0l-1,-1c0,0,0,-1,0,-1c-1,1,-1,1,-1,1c-1,1,-1,1,-1,1c-1,0,-2,-1,-2,-1c-1,1,-1,1,-2,1c-1,0,-1,0,-2,-1c-1,1,-1,1,-2,1l-1,0c0,0,-1,0,-1,0c0,0,-1,0,-1,0c0,-1,0,-1,0,-1c-1,0,-1,0,-1,1c-1,0,-1,0,-2,0l-1,0c0,0,-1,0,-1,0c0,0,-1,0,-1,0c0,-1,0,-1,-1,-1l0,-1c-1,1,-1,1,-1,1c-1,0,-1,1,-1,1c-1,0,-1,0,-1,0l-1,0l-1,0c0,0,-1,0,-1,0c0,0,-1,0,-1,0c0,-1,0,-1,0,-1c0,0,0,-1,0,-1c-1,0,-1,0,-1,-1l0,1c-1,0,-1,0,-1,0l-1,1c-1,0,-1,0,-1,-1l-1,0l0,-1c0,0,0,-1,1,-1c0,-1,1,-1,2,-2c0,0,1,0,1,0l0,-1l0,-1l1,1c0,0,0,1,0,1c0,0,0,1,0,1l0,2c0,0,0,1,0,1c0,0,1,0,1,0c1,0,1,1,1,1l1,0l0,-1l1,0c0,0,1,0,1,0l1,-1c-1,0,-1,0,-1,0c0,0,-1,0,-1,0c0,-1,0,-1,-1,-1l1,-1c1,-1,1,-1,1,-1c1,0,1,0,2,0l1,0l0,1c1,0,1,0,1,0c0,0,0,1,0,1l0,1c-1,0,-1,0,-1,1l1,0c1,0,1,1,1,1l1,0c0,0,1,-1,1,-1c0,0,1,0,1,0l0,-1c0,0,1,0,1,0l0,1l1,0c0,0,0,1,1,1l1,-1l1,0c1,0,1,-1,2,-1l0,1c0,0,1,0,1,1c1,0,1,-1,2,-1l0,-1l1,-1c0,1,0,1,0,2c0,0,1,0,1,0c0,0,1,0,1,0c0,0,0,-1,0,-1c1,0,1,0,1,-1c1,2,1,3,2,3ZM110.5,235.5c1,-1,1,-1,1,-1c1,0,1,1,1,1c0,0,0,1,0,1c0,1,-1,1,-1,1l1,0l0,2l-1,-1l-1,0l0,1c0,0,-1,0,-1,1l-1,0c0,0,-1,0,-1,0l1,-1l1,0l0,-1l1,0l0,-1c-1,0,-1,0,-1,-1l1,-1ZM111.5,236.5l0,-1l-1,0l0,1l1,0l0,1l0,-1ZM105.5,254.5l-4,2c0,0,0,-1,0,-1l4,-2ZM94.5,254.5l-2,-1l0,2l-2,-1l1,-2l2,1l0,-1l2,1ZM85.5,243.5l-1,-1l1,-1l1,1ZM85.5,232.5c0,0,0,-1,0,-1c0,0,1,0,1,0c1,0,1,0,1,1l0,1c-1,0,-1,0,-1,0l1,1l0,1l-1,0l-1,0c-1,1,-1,1,-1,1l-1,0c-1,0,-1,0,-1,0l1,0l1,-1l1,0l0,-1c-1,0,-1,-1,-1,-1c0,0,0,-1,1,-1ZM86.5,232.5l-1,0l0,1l1,0l0,-1ZM78.5,246.5l-1,0l0,1l-1,0l-1,1l1,0l1,0c1,0,1,0,1,-1ZM161.5,254.5l-2,-1l-1,2l-1,-1l1,-2l1,1l1,-1l2,1ZM158.5,251.5l-1,0l-1,0c0,0,-1,0,-1,0c0,0,-1,0,-1,0l0,-1c-1,0,-1,0,-1,0c0,0,0,-1,0,-1c0,0,-1,1,-1,1c-1,0,-2,0,-2,0c-1,0,-2,0,-2,0c-1,0,-2,0,-3,0c-1,1,-2,1,-2,1c-2,0,-3,0,-4,0c0,0,-1,0,-2,0c-1,0,-2,0,-3,0c-1,0,-2,0,-3,0c-1,0,-1,0,-1,0c0,-1,-1,-1,-1,-1c0,-1,0,-1,0,-1l-1,-9l1,-2l1,10l0,1c0,0,1,0,1,0c1,0,2,0,3,0c0,0,1,0,2,0c1,0,2,0,3,0c0,0,1,0,2,0c1,0,1,0,2,0c1,0,2,0,3,0c0,0,1,-1,2,-1c2,0,3,0,3,0c1,0,2,0,3,0c0,0,0,-1,0,-1c0,0,0,-1,0,-1c-1,0,-1,0,-1,0c-1,0,-1,0,-1,0c-1,0,-3,0,-5,1c-2,0,-4,0,-5,0c-2,0,-4,0,-5,0c-2,0,-3,0,-4,0c0,0,0,-1,0,-1c0,0,0,-1,0,-1c1,-1,1,-1,1,-1c0,0,1,-1,1,-1c1,-1,2,-2,2,-2c1,-1,2,-2,3,-2c0,0,1,0,1,0l-1,2l-1,0c-1,1,-1,1,-2,2c-1,0,-2,1,-3,2l0,1c1,0,1,0,2,0c0,0,1,0,1,0c1,0,3,0,5,-1c2,0,4,0,6,0c2,0,3,0,4,0c1,0,2,0,2,0c1,0,1,1,1,1c0,0,0,1,0,1c0,0,0,1,0,1c0,1,0,1,-1,1c0,0,1,0,1,1l1,0l1,0l1,0c0,0,1,-1,1,-1c1,0,1,0,1,0l1,0c0,0,0,-1,0,-1c-1,0,-1,0,-1,0c0,-1,0,-1,0,-1l0,-2c1,0,1,0,1,0c0,1,0,1,0,1l0,1l0,1c0,1,0,1,0,1l0,1c-1,0,-1,1,-2,1c0,0,-1,0,-1,0ZM158.5,238.5l4,-2l0,1l-5,2ZM134.5,235.5l4,-2c0,1,0,1,0,1l-4,2ZM125.5,250.5l-1,1c-1,0,-1,0,-2,0l-1,0l-1,0l-1,0l0,-1l0,-1c1,0,1,0,1,0c1,0,2,0,2,0c0,0,1,0,1,0c0,0,1,0,1,0c0,0,1,0,1,-1l0,-1c-1,0,-1,0,-1,-1l-1,0l-1,-1l-1,0l1,-2l1,0c0,1,1,1,1,1c0,1,1,1,1,1c0,1,0,1,0,2c1,0,1,0,1,1c0,1,0,1,0,1c-1,0,-1,1,-1,1ZM123.5,235.5l1,0c0,-1,0,-1,0,-1l1,0c0,0,0,1,0,1c0,0,0,1,0,1c0,1,0,1,0,1l0,2l-1,-1l-1,1l-1,1l-1,0l0,-1l1,0l1,-1l1,0l-1,-1l0,-1l0,-1ZM124.5,236.5l0,-1c0,0,-1,0,-1,1l1,0l0,1l0,-1ZM186.5,247.5c-1,1,-1,1,-1,1c0,0,1,0,1,0c1,0,1,0,1,0l-1,-1ZM186.5,255.5l-1,0c0,0,0,1,0,1c-1,0,-1,0,-2,0c-1,0,-1,0,-2,0c0,-1,0,-1,-1,-1c1,0,1,0,1,0c0,0,1,0,1,0l1,0c0,0,1,0,1,0c0,0,0,-1,0,-1c1,0,1,0,2,-1c0,-1,1,-1,1,-1c0,-1,0,-2,0,-2c-1,0,-1,0,-1,0l-1,0c0,0,-1,0,-1,-1l0,-1c1,-1,1,-1,1,-2l1,-1c1,0,1,0,1,0c0,1,0,1,1,1c0,0,0,1,0,1c0,0,0,1,0,1c0,1,0,1,0,1c0,1,0,1,0,1c0,1,0,2,-1,3c0,0,0,1,0,1c0,0,-1,1,-1,1ZM183.5,241.5l4,-2l0,1l-4,2ZM178.5,249.5l0,1c-1,1,-1,1,-1,1c0,0,1,0,1,0l1,0c0,-1,0,-1,0,-1ZM179.5,252.5l-1,0c0,0,-1,1,-1,1c0,0,-1,0,-1,0c-1,0,-1,0,-1,0l-1,0c0,0,0,-1,0,-1c0,0,0,-1,0,-1c1,0,1,0,1,0c1,0,1,0,1,-1c0,0,1,0,1,0c0,0,0,-1,0,-1c0,0,1,0,1,0c0,-1,-1,-1,-1,-1c0,-1,0,-1,-1,-1c0,-1,0,-1,-1,-2c0,0,-1,0,-1,-1c-1,0,-1,-1,-1,-1c0,0,-1,0,-1,0c-1,0,-1,0,-1,0c0,-1,-1,-1,-1,-1c0,-1,0,-1,0,-1c0,-1,0,-1,0,-1c0,-1,0,-1,0,-1c0,0,1,0,1,0c0,0,0,1,1,1c0,0,1,1,1,1c1,1,2,2,2,2c1,1,1,2,2,3c0,0,1,0,1,1l0,1c0,-1,1,-1,1,-2c0,0,0,-1,0,-2c0,0,0,-1,0,-1c0,-1,0,-1,0,-2c0,0,0,-1,0,-1c0,-1,0,-1,0,-1c0,0,0,-1,0,-1l1,-1c0,0,0,1,0,1c0,0,0,1,0,1c0,0,1,0,1,0c0,0,0,1,0,1l-1,1c0,1,0,1,0,2c0,0,0,1,0,1c0,0,0,1,0,1c0,1,-1,2,-1,2c0,1,0,1,0,1c0,1,0,1,0,1c0,1,0,1,0,1l0,1l0,1ZM176.5,235.5l5,-3c0,1,0,2,0,2l-6,3ZM245.5,254.5l-1,-1l-1,2l-1,-1l1,-2l1,1l1,-1l1,1ZM242.5,251.5l-1,0c-1,0,-1,0,-1,0c-1,0,-1,0,-1,0l0,-1l-1,0c0,0,0,1,-1,1c-1,0,-1,0,-1,0l-1,0l-2,0c-1,0,-2,0,-2,0c-1,-1,-1,-1,-1,-2l0,-1l-1,0c0,1,0,1,0,1l-5,1c0,1,-1,1,-1,1c0,0,-1,0,-1,0l-1,0c-1,0,-1,0,-1,0c0,1,0,1,0,1c0,1,-1,2,-1,2c0,1,0,1,0,1c-1,0,-1,1,-1,1c0,0,-1,0,-1,1c0,0,-1,0,-1,0c0,0,-1,0,-1,0c-1,0,-1,0,-2,-1c0,0,-1,0,-1,0c0,0,1,0,1,0l1,0c0,0,1,0,1,0c0,0,1,-1,1,-1c1,0,1,0,1,0c0,-1,1,-1,1,-1c0,-1,0,-1,0,-1c1,-1,1,-1,1,-1c0,-1,0,-1,0,-1c0,0,0,-1,0,-1c-1,0,-1,0,-1,0l0,-1l1,0c0,-1,0,-1,0,-1c0,1,0,1,0,1l1,0l1,1c1,0,1,0,1,0c0,0,0,-1,0,-1c1,0,1,0,1,0c1,0,1,0,2,0l1,-1l1,0l-1,-1c-1,0,-2,0,-3,0l-1,0l0,-1l1,-1l1,0l1,0c0,0,1,0,1,1c1,0,2,0,3,1c1,0,2,0,2,0c1,0,1,0,2,0l0,1l-1,0l-1,0c0,1,0,1,1,1l1,1l2,0l1,0c0,0,0,-1,1,-1l1,0l0,-1l1,0l0,1c1,0,1,1,2,1l1,0c1,0,1,-1,2,-1c0,0,1,0,1,0c0,0,0,-1,0,-1c0,-1,0,-1,-1,-1l1,-2c0,1,0,1,1,1l0,1l0,1c0,1,0,1,0,1l0,1c-1,0,-1,0,-1,0c0,0,-1,1,-1,1c-1,0,-1,0,-2,0ZM239.5,245.5l-1,-1l-1,1l-1,0l0,-2l2,1l1,-1l1,1ZM236.5,238.5l5,-2l-1,1l-4,2ZM226.5,255.5l-1,-1l1,-1l1,1ZM224.5,238.5l4,-2l0,1l-4,2ZM216.5,240.5l0,1l1,0c0,0,0,-1,0,-1l0,-1l1,0l0,1c1,0,1,0,1,-1l0,1l0,1l-1,0l-1,0l0,1l-1,0l0,-1l0,-1ZM220.5,237.5l-5,3c0,-1,0,-2,0,-2l6,-2ZM212.5,248.5c0,0,-1,1,-2,1c-1,1,-2,1,-3,2c-2,0,-3,0,-3,0l-1,0c-1,0,-1,0,-1,0c-1,0,-1,0,-1,0c-1,-1,-1,-1,-1,-1c0,0,0,-1,0,-1l0,-1l0,1c-1,0,-1,0,-1,0l-1,0l0,1l-1,0l-1,-1l0,-1c0,0,0,-1,1,-1c0,-1,1,-1,1,-2c1,0,1,0,1,0l0,-1l1,-1l0,1c0,0,0,1,0,1c0,0,0,1,1,1l0,2c0,0,0,1,0,1c1,0,1,0,1,0c0,0,1,1,1,1l1,-1c1,0,2,0,2,0c-1,0,-1,-1,-1,-1c0,-1,0,-1,0,-1c0,-1,0,-1,0,-1c0,0,0,-1,0,-1c0,-1,0,-1,1,-1l1,-1c1,0,1,0,1,0c1,0,1,0,1,0l1,0c0,0,0,1,1,1l0,1l-1,-1l-1,0l-1,0c-1,0,-1,0,-1,0c0,0,0,1,0,1c-1,0,-1,0,-1,0l0,1c0,0,0,1,1,1c0,0,1,1,1,1c1,0,1,0,1,0l1,0l1,-1l1,0l1,-1ZM206.5,235.5l1,0c0,-1,0,-1,1,-1c0,0,0,1,0,1c0,0,0,1,0,1c0,1,0,1,0,1l0,2l-1,-1l-1,1l-1,1l-1,0l1,-1c0,0,1,0,1,-1l1,0l-1,-1l0,-1l0,-1ZM207.5,236.5l0,-1l0,1l0,1l0,-1ZM200.5,246.5l-1,0l-1,1c-1,0,-1,0,-1,1l1,0l1,0l1,-1ZM74.5,239.5l0,-1l0,-1c-1,-1,0,-1,0,-2c0,0,0,-1,0,-1l1,-1c1,0,1,0,1,0l0,1l-1,0l0,1l-1,0l0,1c0,0,0,1,0,1c0,0,1,0,1,0l1,0l0,1c0,1,0,1,0,1c0,0,-1,0,-1,0c0,0,-1,0,-1,0ZM196.5,238.5l0,-1l0,-1c0,0,0,-1,0,-2c0,-1,0,-1,1,-1c1,0,1,0,1,0l-1,1l0,1l-1,0l0,1l0,1c1,0,1,0,1,0c0,-1,1,0,1,0c0,0,0,1,0,1l0,1c0,0,-1,0,-1,0c0,0,-1,-1,-1,-1ZM276.5,249.5c0,1,0,1,-1,2l0,1c0,0,-1,0,-1,1l1,0l0,1l-1,0c0,0,0,1,0,1l-1,0c0,1,-1,1,-1,1l-1,0l-1,0l0,1l-1,0l-1,0l0,1l-1,1l-3,0l-2,0l0,-1l-1,-1c0,0,-1,0,-1,0c-1,0,-2,-1,-2,-1l-1,0l-1,0l0,-1l-1,0l0,-1l-1,0l0,-1l1,0l0,-1l-1,0l0,-1l-1,-1c0,0,0,-1,0,-1l0,-1c0,0,0,-1,0,-1c0,0,1,0,1,-1c0,0,0,-1,0,-1l1,0l-1,-1l0,-1l1,0l1,-1l1,0l0,-1l1,0l2,-1l1,0l1,-1c0,0,0,-1,0,-1l2,0l3,0l0,1l1,0l0,1l1,0l2,1l1,0c0,1,0,1,1,1l1,0l0,1c1,0,1,1,1,1l1,0c-1,0,-1,0,-1,0l-1,1l1,0l0,1l0,1l1,0l0,1ZM267.5,259.5l0,-1l1,0l0,-1l1,0c1,0,1,-1,1,-1c0,0,1,0,1,0c1,0,1,-1,2,-1c1,-1,1,-1,1,-1l1,0l0,-1l-1,0l0,-1l1,0l0,-1l0,-1l0,-1c0,-1,0,-2,0,-3c0,-1,-1,-1,-1,-1l0,-1l1,0c0,0,-1,-1,-1,-1l-1,0l0,-1l-1,0l-2,-1l-1,0c0,-1,-1,-1,-1,-1l-1,-1c0,0,0,-1,0,-1l-1,0l-2,0l-2,0l0,1l-1,1c0,0,-1,0,-1,1l-2,0l-1,1l-1,0l0,1l-1,0l-1,1l1,0l0,1l-1,1l0,1l0,1l0,1l0,1l0,1c0,0,0,1,0,1l1,0l0,1l-1,0l0,1l1,0l1,0l0,1l1,0l1,1l1,0l1,1c0,0,1,0,1,0l0,1l1,0c0,1,0,1,0,1l2,0ZM272.5,244.5l-1,0l0,-1l-1,0l-1,0c0,0,0,-1,0,-1l1,0c1,0,1,0,1,0c0,1,0,1,0,1c0,0,1,0,1,0l0,1ZM273.5,254.5l-1,0l-1,1l-1,0l-1,1l0,-1c0,0,1,0,1,0l0,-1l1,0c0,0,1,0,1,-1ZM268.5,256.5c-1,1,-1,1,-1,1l-3,0l-2,0l-1,0c0,-1,0,-1,0,-1c0,-1,0,-1,0,-1c0,0,1,0,1,-1l2,0l3,0l0,1l1,0ZM268.5,242.5l0,1c0,0,-1,0,-1,0l-3,0l-2,0l-1,0l0,-1c0,-1,0,-1,0,-1l1,0l0,-1l2,0l3,0c0,0,0,1,1,1l0,1ZM267.5,244.5l1,0c1,0,1,0,2,0l0,1l1,0l1,0l1,0l0,1l0,1l0,1l1,0l0,1l-1,0c0,1,0,1,0,1l0,1c0,0,0,1,0,1c0,0,-1,0,-1,0l-1,0l-1,1l-1,0l-1,0c-1,0,-1,0,-1,0l-3,0l-2,0c-1,0,-1,0,-1,0c-1,0,-1,0,-2,0l-1,-1l-1,0l-1,0l0,-2l0,-1c0,-1,0,-1,0,-1c0,-1,0,-1,0,-1l0,-1c1,-1,1,-1,1,-1l1,0l1,0l0,-1c1,0,1,0,2,0l1,0l2,0ZM267.5,253.5l1,0l1,0l1,0l1,-1l1,0l1,-1l0,-1l0,-1c0,-1,0,-1,0,-2c0,0,0,-1,0,-1c-1,0,-1,-1,-1,-1l-1,1l0,-1l-1,0l-1,-1l-1,0l-1,0l0,1l-3,0l-2,0l0,-1l-1,0c-1,0,-1,0,-1,0l-1,0l0,1l-1,0c0,0,0,1,0,1l-1,-1l0,1l-1,0l0,1l0,1l0,1l0,1l0,1c0,0,1,1,1,1l1,0l1,1l1,0l1,0c1,0,1,0,1,0l2,0l3,0ZM264.5,247.5l1,0l1,0c0,0,0,1,0,1l0,1c0,1,0,1,0,1l0,1l0,-1l0,-1l0,-1l-1,0c-1,0,-1,0,-1,0l0,-1ZM263.5,247.5l0,1c0,0,0,1,0,1l1,0l0,1l-1,0l0,1l0,-1c0,-1,0,-1,-1,-2ZM257.5,244.5l0,-1l1,0l1,-1l1,0c0,0,0,1,0,1c0,0,-1,0,-1,0l-1,0l0,1l-1,0ZM256.5,254.5l1,-1c0,0,1,1,1,1l1,0l0,1l1,0l0,1l-1,-1c-1,0,-1,0,-2,-1ZM322.5,247.5c-1,1,-1,1,-1,1l-1,0l-1,1l-1,1l2,0c1,0,1,0,2,0c1,-1,2,-1,2,-1c0,0,1,0,1,-1l-1,-1l-1,0l-1,0ZM317.5,250.5l0,-1l3,-2l1,0c0,-1,0,-1,1,-1l1,0c0,-1,0,-1,1,-1l1,0c0,1,0,1,0,1c1,0,1,0,1,0l0,1l0,1c0,0,0,1,0,1l0,1c-1,0,-2,0,-2,1c-1,0,-2,0,-3,0c-1,0,-2,0,-3,0l-1,0l0,1c-1,1,-1,1,-1,1l0,-1l0,-1c0,0,-1,0,-1,0c0,-1,0,-1,0,-1c-1,0,-1,0,-1,1c0,0,-1,0,-1,0c0,0,-1,0,-1,0l-2,0l-1,0l-1,-1c0,0,0,-1,0,-1l-1,1c-1,1,-1,1,-2,1c0,0,-1,0,-1,0l-1,0l-1,0c-1,-1,-1,-1,-1,-1l0,-1c0,0,0,-1,0,-1l1,0l0,1l1,0l1,0l1,0c0,0,1,0,1,0c1,0,1,0,1,0c0,-1,0,-1,0,-1l1,0c0,0,0,-1,-1,-1l0,-2l0,-1l0,-1l1,-1l0,2l0,1l1,2c0,1,0,1,0,1l0,1l1,0c0,1,0,1,0,1l2,0l0,-1c1,0,1,0,1,0l1,0l1,-1l0,1l1,0ZM317.5,238.5l5,-2l-1,1l-4,2ZM305.5,254.5l-5,2c1,0,1,-1,1,-1l4,-2ZM298.5,254.5l-2,-1l0,2l-2,-1l1,-2l2,1l0,-1l2,1ZM295.5,251.5l-1,0l-2,0c0,0,-1,0,-1,0l0,-1l-1,0c0,0,0,-1,0,-1l0,1l-1,0c-1,1,-1,1,-2,1l-1,0l-1,0c-1,0,-1,0,-1,0c0,-1,0,-1,0,-1l-1,-1l1,0c0,0,0,-1,0,-1l0,1l1,0l1,0l1,0c0,0,1,0,1,0l1,0c0,-1,0,-1,1,-1c0,0,0,-1,0,-1l-1,-2l0,-1l0,-1l1,-1l0,2l1,1l0,2c0,1,0,1,0,1l0,1c1,0,1,0,1,0c0,1,0,1,0,1l2,0l1,0c0,0,1,-1,1,-1c1,0,1,0,2,0c0,0,0,-1,0,-1l-1,0c0,-1,0,-1,0,-1l1,-2c0,1,0,1,0,1l0,1l0,1c0,1,0,1,0,1l0,1c-1,0,-1,1,-2,1l-1,0ZM282.5,258.5l5,-3c0,0,0,1,0,1c-1,0,-1,0,-1,0l-5,3ZM284.5,254.5l5,-2c-1,1,-1,1,-1,1l-5,3ZM354.5,251.5l-1,0l-1,-1l-1,0l-1,0c0,0,0,1,0,1l-1,0l-1,0l-1,0c-1,0,-2,0,-2,0c-1,-1,-1,-2,-1,-2l-1,-9l1,-2l1,10l0,1c1,0,1,1,2,1l1,0l1,0c0,0,1,-1,1,-1l1,-1c0,-1,1,-1,1,-2c0,0,1,0,1,0c0,0,1,0,1,0c0,1,0,1,0,2l1,0l0,1c0,1,0,1,0,1l-1,0l0,1ZM352.5,248.5l1,1l0,-1c-1,0,-1,0,-1,0ZM350.5,237.5l0,1l1,0c0,0,0,-1,0,-1l0,-1l0,1l1,0l1,-1l0,-1l0,1l0,1l0,1l-1,0l-1,0l0,1c0,0,-1,0,-1,0c-1,0,-1,0,-1,-1l0,-1l1,0ZM354.5,234.5l-6,3c1,-1,1,-2,1,-2l5,-2ZM342.5,235.5c0,0,1,0,2,0c0,1,1,1,1,1l1,0l0,-1l1,0c-1,1,-1,1,-1,1l-1,0l0,1l-1,0l0,-1l-1,0l-1,0c-1,0,-1,0,-1,0c0,0,0,-1,1,-1ZM336.5,249.5c0,0,0,-1,0,-1c0,0,1,-1,1,-1c1,0,1,0,1,0c0,0,1,0,1,0l0,1l0,1l-1,-1c-1,0,-1,0,-2,1l1,0l0,1l1,0c0,0,1,0,1,0c0,0,1,0,1,0l0,1l-5,1l1,-1l1,0c-1,0,-1,0,-1,-1l0,-1ZM338.5,259.5l0,-1l4,-2l0,1l-5,3l1,0l0,-1ZM335.5,263.5c0,0,1,0,1,0l0,-1l4,-2l0,1l-1,0l-4,3l0,-1ZM379.5,251.5l-1,0l0,-1l-1,0l-1,0c0,0,0,1,-1,1l-1,0l-2,0l0,1l0,1c0,1,0,1,0,2c-1,0,-1,1,-2,2c0,0,-1,0,-1,1c-1,0,-2,0,-3,0c0,0,-1,0,-2,0c0,0,-1,-1,-1,-1c0,0,-1,-1,-1,-1c0,-1,0,-1,0,-2l0,-1c0,0,0,-1,0,-1c0,-1,0,-1,0,-1c1,0,1,0,1,0l0,-1l0,1l0,1c0,0,0,1,0,1c-1,0,-1,0,-1,0c0,0,0,1,0,1c1,0,1,0,1,1l1,0c0,0,0,1,0,1c1,0,2,0,3,0c0,0,1,0,2,0c1,0,1,-1,2,-1c0,0,0,-1,0,-1c0,0,0,-1,0,-1c0,-1,0,-1,0,-1c0,-1,0,-1,0,-1l-1,-1l1,-2l0,1c1,0,1,1,2,1l1,0l1,0c0,0,0,-1,0,-1l1,0l1,-1c0,-1,0,-1,1,-2l1,0c1,1,1,1,1,2l0,1c0,1,0,1,0,1l-1,1ZM378.5,248.5l0,1l1,0l0,-1c0,0,-1,0,-1,0l-1,0l1,0ZM379.5,254.5l-5,2c1,0,1,-1,1,-1l4,-2ZM367.5,249.5l-1,-1l1,-2l1,1ZM244.5,235.5l0,1c0,1,0,1,0,1l0,-1c0,0,1,0,1,0l0,-1l0,1c1,0,1,0,1,0l0,-1l0,-1l1,0l0,1l0,1c0,1,-1,1,-1,1c-1,0,-1,0,-1,0c-1,1,-1,1,-1,1c0,0,-1,0,-1,-1l0,-1ZM248.5,233.5l-6,2c0,0,1,-1,1,-1l5,-3ZM145.5,211.5l0,-1c0,0,0,-1,0,-1c0,-1,0,-1,-1,-2l1,0l0,-1c0,0,0,1,1,1c0,1,0,1,0,1l0,1c0,1,0,1,0,1c0,0,-1,1,-1,1ZM246.5,190.5c0,0,1,0,1,0c1,-1,1,-1,1,-1c1,0,1,0,2,1c0,1,0,1,0,1c0,1,-1,1,-1,1l-1,0l-1,0l-1,0l2,0c1,0,1,-1,2,-1c-1,0,-1,0,-1,0c0,0,-1,0,-1,0c0,0,-1,0,-1,0c0,0,-1,0,-1,0l0,-1ZM183.5,191.5c1,0,1,-1,1,-1c1,0,1,0,2,0c0,0,1,0,1,0c1,1,1,1,1,1c-1,1,-1,1,-1,1c0,1,0,1,-1,1c-1,0,-1,0,-1,0l-1,0l1,0c1,-1,2,-1,2,-1c0,0,-1,0,-1,0c0,-1,0,-1,-1,-1c0,0,-1,1,-1,1l-1,0c0,-1,0,-1,0,-1ZM92.5,200.5l0,1l1,0c0,-1,0,-1,-1,-1ZM93.5,208.5c-1,0,-1,0,-1,1c0,0,-1,0,-1,0c0,0,-1,0,-1,0l-1,0c0,0,-1,0,-1,0c-1,0,-1,-1,-1,-1l1,0c1,0,1,0,1,0c0,0,1,0,1,0c0,0,1,0,1,-1c0,0,1,0,1,0c0,-1,1,-1,1,-1c0,0,0,-1,0,-1c1,-1,1,-1,1,-2l-1,0c0,0,0,1,-1,1c0,0,0,-1,0,-1c-1,0,-1,0,-1,0l0,-1c0,-1,0,-1,0,-1c0,-1,0,-1,1,-2c0,-1,1,-1,1,-1l1,1c0,1,0,1,0,1c1,1,1,1,1,1c0,1,0,1,0,2c0,1,-1,2,-1,3c0,1,0,1,-1,1c0,0,0,1,0,1ZM90.5,195.5l4,-3l0,1c-1,0,-1,0,-1,1l-4,2ZM87.5,207.5l-2,0l0,1l-2,-1l1,-1l1,0l1,-1l2,1ZM84.5,204.5l-1,0l-1,0l-1,0c0,-1,0,-1,0,-1c0,0,0,-1,-1,-1l0,1l-1,1l-1,0c0,0,-1,0,-1,-1l-1,0c0,1,-1,1,-1,1c-1,0,-2,0,-2,-1l-1,1c0,0,-1,0,-2,0l-1,0c-1,0,-1,0,-2,0c0,0,-1,0,-1,0l-1,0c0,0,0,-1,0,-1c-1,1,-1,1,-2,1l-1,0l1,1l1,0c0,0,1,0,1,0c0,1,0,1,0,1c0,0,0,1,0,1c-1,0,-1,0,-1,0c0,1,0,1,0,1c0,0,-1,0,-1,1c-1,0,-2,1,-3,1c0,0,-1,0,-2,0c-1,0,-1,0,-1,0c0,0,-1,0,-1,0c-1,0,-2,-1,-2,-1c0,0,-1,-1,-1,-1c0,0,0,-1,0,-1c0,-1,0,-1,0,-1c0,0,0,-1,0,-2c1,0,1,-1,1,-2c1,0,1,0,1,0c0,1,0,1,0,1c0,0,-1,1,-1,1c0,1,0,1,0,1c0,1,0,1,0,1c0,1,0,1,1,2c1,0,2,0,3,0c1,0,1,0,1,0c1,0,1,0,1,0c1,0,2,0,3,-1l1,-1c-1,0,-1,0,-2,0c-1,0,-1,0,-1,0l0,-1c-1,0,-1,0,-1,0l1,-1c0,0,0,-1,1,-1c0,0,1,0,1,0c0,0,0,-1,0,-1c0,0,1,0,1,0c0,0,-1,0,-1,0l0,-1c0,-1,0,-1,1,-1c0,0,0,-1,0,-1c0,-1,0,-1,0,-1c1,0,1,0,1,0c0,0,0,-1,1,-1c1,0,1,0,1,1l1,0c0,0,0,1,0,1c0,0,0,1,0,1l0,1c-1,1,-1,1,-1,1l0,1l1,0c0,0,1,0,1,0l1,0l1,0l1,-1c0,0,1,0,1,-1l1,0l0,1l1,1c0,0,1,-1,1,-1c0,0,1,0,1,-1l1,0l0,1l1,0c1,0,1,0,1,-1l1,0c0,1,1,2,1,2l1,0l1,0c0,0,1,0,1,-1c1,0,1,0,1,0c0,0,1,0,1,0c0,0,0,-1,0,-1c0,0,-1,0,-1,0c0,-1,0,-1,0,-1l1,-2l0,1c0,0,0,1,0,1c0,1,0,1,0,1l0,1c0,0,0,1,0,1c-1,1,-1,1,-2,1c0,0,-1,0,-1,0ZM86.5,189.5c0,-1,0,-1,1,-1c0,-1,0,-1,0,-1l1,0c0,1,0,1,0,1c0,1,0,1,0,1l0,1l0,2l-1,-1l-1,1c0,0,0,1,-1,1l-1,0l0,-1l1,0l1,-1l1,0l-1,0l0,-1l0,-1ZM87.5,189.5l0,-1c0,0,0,1,-1,1c0,0,1,0,1,0l0,1l0,-1ZM74.5,193.5l1,0c0,0,1,0,1,0c1,0,1,0,1,0c1,0,1,0,1,1c0,0,0,1,-1,1l0,1l-1,0c0,0,-1,0,-1,0l-1,0l2,-1c0,0,1,0,1,-1l-1,0c-1,0,-1,0,-2,0l0,1l0,-1l0,-1ZM67.5,196.5l-2,-1l-1,2l-1,-1l1,-2l1,1l1,-1l2,1ZM66.5,199.5l-1,0c0,0,-1,1,-1,1l0,1l1,0l0,1c1,-1,1,-1,1,-1c0,0,1,0,1,0l0,-1l0,-1c0,0,-1,0,-1,0ZM65.5,188.5c0,1,-1,2,-1,2l0,-1l0,-1l0,-1l0,-1l-1,0c0,0,0,-1,1,-1l0,1l0,1ZM127.5,208.5l-2,-1l1,-2l1,1ZM134.5,202.5l-2,0c0,0,-1,0,-2,0c-1,0,-1,0,-1,0l-1,0l0,1l-1,0c0,0,-1,0,-1,0c0,1,-1,1,-1,1c-1,0,-2,0,-2,0l-1,0l-1,0l-1,0l-1,0l0,1l1,0l0,1c0,1,0,2,-1,2c0,1,0,1,-1,1c0,0,-1,0,-1,0c0,0,-1,-1,-1,-1c0,-1,-1,-2,-1,-3l0,-1c-1,0,-1,0,-1,0l-1,0l-1,0c0,0,-1,0,-1,0l0,-1c-1,0,-1,0,-1,0c0,-1,0,-1,0,-1c0,0,0,-1,0,-1c-1,0,-1,0,-1,0c0,-1,0,-1,-1,-1c0,0,-1,0,-1,1c0,0,-1,0,-1,0c1,0,1,0,1,1c1,0,1,0,1,1l0,1l0,1l-2,0c0,0,-1,0,-1,0c-1,0,-2,0,-2,1c-1,0,-1,0,-1,1c0,0,0,1,1,2c0,1,0,2,0,3c1,1,1,2,1,2c-1,1,-1,1,-1,1c0,-1,0,-1,0,-2c0,-1,-1,-2,-1,-3c0,-1,0,-2,0,-2l0,-1c0,-1,0,-1,0,-2c0,0,1,0,1,-1l1,-1c1,0,1,0,2,0l-1,0c0,0,0,-1,0,-1c-1,0,-1,0,-1,1l-1,0l1,-1c0,-1,0,-1,1,-1c0,-1,1,-1,1,-1c1,0,1,-1,1,-1c0,0,1,0,1,0l1,0c0,0,1,0,1,0c0,0,0,1,0,1c0,1,1,1,1,1c0,0,0,1,0,1c1,0,1,0,1,0c0,1,0,1,0,1c1,0,1,0,1,0l1,0l1,0l1,-1c0,0,0,-1,0,-1l1,-1l0,-1c1,-1,2,-2,2,-2c0,0,0,1,1,1l0,1l0,1c0,0,0,1,-1,1c0,1,-1,1,-2,2l2,0l2,0l1,0l1,0c1,0,1,-1,2,-1c0,0,1,0,1,0l2,-1l1,0l-2,0l-1,-1l-1,0c-1,0,-1,0,-1,0l-1,0c0,0,1,-1,1,-1c0,0,0,-1,1,-1c1,0,1,0,1,0c0,0,1,0,1,0l0,1l2,0l1,1c1,0,1,0,1,0c0,0,1,0,1,0c1,0,1,0,2,0l1,0ZM125.5,191.5l4,-2l0,1l-4,2ZM118.5,199.5c0,1,-1,1,-1,1l0,1l-1,1c1,0,2,0,2,-1c1,0,1,0,1,-1c0,-1,0,-1,-1,-1ZM116.5,205.5l0,1c1,0,1,1,1,1l1,0c0,1,0,1,0,1c1,0,1,-1,1,-1c0,-1,0,-1,-1,-2c0,0,-1,0,-2,0ZM116.5,191.5l4,-2l0,1l-4,2ZM109.5,197.5l-2,0l1,-2l1,1ZM108.5,186.5l0,1c0,0,1,0,1,0l0,-1l1,0c0,0,0,1,0,1c0,0,1,0,1,-1l0,-1l0,1l0,1c0,0,0,1,-1,1l-1,0c0,0,-1,1,-1,1c0,0,0,-1,0,-1l-1,0l0,-1l1,0l0,-1ZM112.5,183.5l-6,3c1,-1,1,-1,1,-1l5,-3ZM103.5,192.5c0,0,1,-1,1,-1l1,0l0,1l0,1l0,1l1,0l-1,1l-1,-1l0,1l-1,0c0,1,0,1,0,1l-1,0l-1,0l1,0l0,-1c0,0,1,0,1,0l1,-1l-1,0c0,-1,0,-1,0,-1c0,-1,0,-1,0,-1ZM104.5,192.5l0,1l0,-1ZM172.5,201.5c0,1,0,1,0,1c0,0,1,0,1,0l0,-1c0,0,-1,0,-1,0ZM172.5,209.5c-1,0,-1,0,-1,0c-1,0,-1,1,-2,1c0,0,-1,-1,-2,-1l-1,0c1,-1,1,-1,1,-1c0,0,0,1,0,1c1,0,1,0,1,0c0,0,1,0,1,0l1,-1c0,0,1,0,1,0c0,0,0,-1,1,-1c0,0,0,-1,1,-1l0,-1c1,-1,1,-1,1,-1c0,0,0,-1,0,-1c0,0,-1,0,-1,0l0,1c0,0,-1,0,-1,0l-1,0l0,-1l0,-1l0,-1c0,0,0,-1,0,-1c0,-1,1,-1,1,-1l1,0c1,0,1,0,1,1l0,1l0,1c1,0,1,1,1,1l0,1c-1,1,-1,2,-1,3c0,0,-1,0,-1,1l-1,1ZM159.5,208.5c0,0,1,0,1,0l1,0c0,0,1,0,2,-1c1,0,1,0,2,-1c0,0,1,-1,1,-1c0,-1,0,-1,0,-1c0,-1,0,-1,0,-1l0,-1l-1,-1l1,-1l0,-1l0,1c0,0,1,0,1,1l0,1l0,1c0,0,0,1,0,1c0,1,0,1,0,1c0,0,0,1,-1,1c0,0,0,1,0,1c0,0,-1,0,-1,1l-1,0l0,1c-1,0,-1,0,-1,0c0,0,-1,0,-1,0l-1,0c0,0,-1,0,-1,0c0,0,0,-1,-1,-1ZM162.5,195.5l4,-2l0,1l-1,0l-4,2ZM158.5,205.5l0,-1l0,-2l-1,-8l1,-2l1,10c0,1,0,1,0,1l0,1c-1,0,-1,1,-1,1ZM155.5,189.5l1,0c0,0,1,0,1,0c1,0,1,0,2,0l1,0c0,0,0,1,-1,1l-1,0l-1,0l-1,0l-1,0l-1,0c0,-1,1,-1,1,-1ZM150.5,207.5c1,0,1,-1,1,-1l1,0l0,-1c1,0,1,0,1,1l0,1l-1,0c-1,0,-1,0,-1,0l0,1l1,0c1,0,1,0,1,0l1,0l0,1l-4,1l0,-1l1,0c-1,0,-1,-1,-1,-1c0,0,0,-1,0,-1ZM151.5,205.5l-1,0l-1,0c0,0,-1,0,-1,0c0,0,-1,-1,-1,-1l0,-1c0,0,0,-1,-1,-1c0,1,0,1,0,1c0,0,-1,0,-1,0l-1,0c0,0,-1,0,-1,0l-1,0l0,-1c0,-1,1,-1,1,-2c0,0,1,0,2,-1c1,0,1,-1,1,-1c0,0,0,-1,0,-1l0,-1l1,2l0,1l0,1l0,2l1,0c0,1,0,1,0,1c1,0,1,0,1,0l1,0l1,0c0,0,1,0,1,0c1,0,1,0,1,-1c0,0,1,0,1,0c0,0,-1,-1,-1,-1l0,-1l0,-2c1,1,1,1,1,1c0,1,0,1,0,1l0,1l0,1l0,1l0,1c-1,0,-1,0,-2,1c0,0,-1,0,-1,0ZM154.5,213.5l-4,2c0,-1,1,-1,1,-1l4,-2ZM146.5,199.5l-1,1l-1,0c0,1,0,1,0,1l1,0l1,0ZM199.5,204.5l-1,0l-1,0l-1,-1l0,1c-1,0,-1,0,-1,1l-1,0l-1,0l-1,0c0,0,0,1,0,1c0,0,0,1,0,1c0,0,-1,1,-1,2c0,0,-1,1,-1,1c-1,1,-1,1,-2,1c-1,1,-2,1,-2,1c-1,0,-1,0,-2,-1c-1,0,-1,0,-2,0c0,-1,0,-1,-1,-1c0,-1,0,-2,0,-2c0,0,0,-1,0,-1c0,0,0,-1,0,-1c0,0,1,-1,1,-1l0,-1l1,0c0,0,0,1,-1,1c0,0,0,1,0,1c0,1,0,1,0,1c0,1,0,1,0,1c0,0,1,1,1,1c1,0,1,0,1,0c0,1,1,1,2,1c1,0,2,0,2,-1c1,0,2,0,2,-1c0,0,1,0,1,0c0,0,0,-1,0,-1c0,0,0,-1,0,-1c0,0,0,-1,-1,-1l0,-1l0,-2c0,0,1,0,1,0c0,1,0,1,1,1l1,0l1,0c1,0,1,0,1,0l0,-1l1,-1c0,0,1,-1,1,-1c0,0,1,-1,1,-1c0,0,1,1,1,1c0,0,0,1,1,1l0,1l0,1c-1,1,-1,1,-1,1ZM197.5,202.5l1,0l0,-1c-1,0,-1,0,-1,0c0,1,0,1,0,1ZM195.5,190.5l0,1l1,0l0,-1l1,0c0,0,0,1,0,1c0,0,1,0,1,-1l0,-1l0,1l0,1c0,0,0,1,-1,1l-1,0c0,0,-1,1,-1,1l0,-1l-1,0l0,-1l1,0l0,-1ZM198.5,208.5l-4,2c0,-1,0,-1,0,-1l4,-2ZM186.5,202.5l-1,-1l1,-1l1,1ZM230.5,202.5c0,1,0,2,0,2c0,0,-1,1,-1,1l0,1l-1,0l2,1l-1,0l0,1l-1,0l-1,1c0,0,-1,0,-1,1l-1,0l-1,0l-1,0c0,0,0,1,0,1l-1,0l0,1l-1,1l-3,0l-2,0c0,0,0,-1,0,-1l-1,-1c0,0,-1,0,-1,-1c-1,0,-2,0,-2,0l-1,-1l-1,0l0,-1l-1,0l-1,-1l1,-1l-1,0l0,-1l0,-1l0,-1c0,0,-1,0,-1,0l0,-1l0,-1l1,0c0,0,0,-1,0,-2l1,-1l-1,0c0,-1,0,-1,0,-1l1,0l0,-1l1,0l1,-1l2,-1l1,0l1,-1l1,-1l2,0l3,0l1,0l0,1l1,1l2,1l1,0c0,0,1,0,1,0l0,1l1,0c1,1,1,1,2,2l-2,0l1,0l0,1l0,1l1,0l0,1ZM221.5,212.5l1,-1l1,-1c1,0,1,0,1,0l1,0l1,-1l1,0l0,-1c1,0,1,0,1,0l0,-1l1,0l-1,-1l1,0l0,-1l0,-1l1,-1l0,-1c0,-1,-1,-1,-1,-2l0,-1l-1,-1l1,0c0,-1,-1,-1,-1,-1l0,-1l-1,0l-1,-1l-1,0l-2,-1l-1,0l0,-1l-1,-1l-1,0l-2,0l-2,0l0,1l-1,1c0,0,-1,0,-1,0l-2,1l-1,0l0,1l-1,0l-1,1l-1,1l1,0l0,1l-1,0l0,1l0,1c0,1,0,1,0,1l0,1l0,1l0,1l1,0l0,1l-1,1l1,0l0,1l1,0l0,1l1,0l1,0l0,1l1,0l1,0c0,0,1,0,1,1l1,1l2,0ZM227.5,197.5l-1,0l0,1l0,-1l-1,0l-1,0l0,-1c-1,0,-1,0,-1,0l0,-1l1,1l1,0c1,0,1,0,1,1ZM227.5,207.5l-1,0l0,1l-1,0l0,1l-1,0l-1,0c0,0,0,-1,0,-1c1,0,1,0,1,0l1,0c0,-1,1,-1,1,-1ZM222.5,209.5c0,0,0,1,0,1c0,0,-1,0,-1,0l-3,0l-2,0c-1,0,-1,0,-1,0c0,0,0,-1,0,-1l0,-1c1,0,1,0,1,0l2,0l3,0l1,0l0,1ZM222.5,195.5c0,1,0,1,0,1c0,0,-1,0,-1,1l-3,0l-2,0c0,0,0,-1,-1,-1l0,-1l0,-1l1,0l2,0l3,0c0,0,1,0,1,0c0,0,0,1,0,1ZM221.5,198.5l1,-1l1,0l1,1l1,0l0,1l1,0c0,0,1,0,1,0l0,1l1,1l0,1l0,1c0,0,0,1,-1,1l0,1c0,1,0,1,-1,1l-1,0l-1,0c0,0,0,1,0,1l-1,0l-1,0c-1,0,-1,0,-1,0l0,-1l-3,0l-2,0l0,1c0,0,-1,0,-1,0c-1,0,-1,0,-1,0c-1,0,-1,-1,-1,-1l-1,0l-1,0l0,-1l-1,-1l0,-1l0,-1c0,0,0,-1,0,-1l0,-1l0,-1c1,0,1,0,1,0l1,0l1,-1l1,0c0,-1,0,-1,1,-1l1,0l0,1l2,0ZM221.5,206.5l1,1l1,0c1,0,1,0,1,0l0,-1l1,0c0,-1,0,-1,0,-1l1,1l1,-1l0,-1l0,-1l0,-1c0,0,0,-1,0,-1c0,-1,0,-1,0,-2c-1,0,-1,0,-1,0l-1,0l-1,-1l-1,0c-1,0,-1,0,-1,0l-1,0l-3,0l-2,0l-1,0c-1,0,-1,0,-1,0l-1,0l0,1c-1,0,-1,0,-1,0l-1,0l-1,1l0,1l0,1c0,1,0,1,0,1l0,1c1,1,1,1,1,2l1,-1l1,1l1,1l1,0l1,0c0,0,0,-1,0,-1l2,0l3,0ZM220.5,201.5c0,0,0,1,0,1l1,1c0,1,-1,1,-1,1l0,1l-1,0l-1,-1l0,-1c0,0,0,-1,1,-1c0,0,0,-1,1,-1ZM219.5,202.5l0,1l-1,1c0,0,1,0,1,0l1,0l0,-1c0,-1,0,-1,-1,-1ZM217.5,201.5l0,1c1,0,1,0,1,0l0,1l0,1c0,0,-1,1,-1,1l0,-1c0,-1,0,-2,0,-3ZM211.5,197.5l1,-1l1,0l1,-1l0,1c0,0,-1,0,-1,0c0,0,0,1,0,1l-1,0l0,1l-1,0ZM211.5,207.5c1,0,1,0,1,1l1,0l1,0c0,0,0,1,0,1l-1,0c-1,0,-1,-1,-2,-1l0,-1ZM269.5,201.5c-1,1,-2,1,-3,2c-1,0,-2,1,-3,1c-1,0,-2,1,-3,1l-1,0l-1,0c0,0,0,-1,-1,-1c0,0,0,-1,0,-1c0,1,-1,1,-1,1c-1,1,-1,1,-1,1l-1,0c-1,0,-1,0,-1,0c-1,0,-1,-1,-1,-1c0,0,-1,-1,-1,-1c0,1,0,1,-1,1c0,1,-1,1,-1,1l-1,0l-1,0l-1,0c0,0,-1,-1,-1,-1l0,-1l0,-1l-1,1l0,1l-1,0c0,0,-1,0,-1,0c0,1,-1,1,-2,1l-1,0c0,-1,0,-1,-1,-1l0,-1c0,0,0,-1,0,-1l0,-1l1,0c0,1,0,1,0,1l0,1l1,0l1,0c1,0,1,0,1,0l1,-1c0,0,1,0,1,0c0,-1,0,-1,0,-2l0,-2l0,-1l0,-2l1,2c0,0,0,1,0,2l0,2c0,0,0,1,1,1c0,0,0,1,0,1l1,0l1,0l1,0l1,0l1,0c0,-1,0,-1,0,-1c0,0,0,-1,0,-1l1,0c0,0,0,1,0,1c0,0,0,1,1,1l1,0c1,0,1,0,1,0c1,0,1,0,1,0c0,-1,0,-1,1,-1c0,0,0,-1,0,-1c0,0,0,1,0,1c0,0,1,1,1,1c0,0,1,0,1,0l1,0c1,0,1,0,1,0c0,0,1,0,1,0c0,-1,0,-1,-1,-2l0,-1l0,-1l1,0c0,-1,0,-1,0,-1c0,-1,1,-1,1,-1c0,0,1,0,1,0c0,-1,0,-1,1,-1c0,0,1,0,1,1c1,0,1,0,1,0l0,1c1,0,1,0,1,0l-1,0l-1,0l-1,0l-1,0c0,0,-1,0,-1,0c0,0,0,1,0,1c-1,0,-1,0,-1,0l1,1c1,1,1,1,2,2c0,0,1,0,1,-1c1,0,1,0,1,0l1,0l0,-1l1,0ZM260.5,192.5l5,-2l-1,0l0,1l-4,2ZM256.5,200.5l-1,-1l1,-1l1,1ZM259.5,208.5l-4,2c0,-1,0,-1,0,-1l4,-2ZM253.5,208.5l-2,-1l-1,1l-1,-1l1,-1l1,1l1,-1l2,1ZM236.5,211.5l5,-2c0,1,0,1,0,1l-5,2ZM238.5,208.5l5,-3c0,1,0,2,-1,2l-4,2ZM301.5,208.5l-1,-1l1,-1l1,1ZM309.5,202.5l-1,0l-1,0c-1,0,-1,0,-2,0l-1,0l-1,1l-1,0l-1,0c0,1,0,1,-1,1l-1,0c-1,1,-1,1,-2,1l-1,0c-1,0,-1,0,-1,0l-1,0c0,0,0,-1,0,-1l-1,-1l0,1c0,0,-1,0,-1,0c0,0,-1,1,-1,1l-1,0l-1,0c-1,0,-2,0,-2,-1c-1,0,-1,-1,-1,-2l-1,-8l1,-2l1,9l0,1c1,1,1,1,2,1l1,0c1,0,1,0,1,0c0,0,1,0,1,-1l1,0l1,0c0,1,0,1,1,1l1,0l1,0c0,0,1,0,1,0c0,0,1,0,1,0c1,0,1,-1,2,-1l1,0l1,0l-1,-1l-1,0l-1,-1l-1,0l-1,0l0,1c0,-1,0,-1,0,-2c0,0,1,0,1,0c0,0,1,0,1,0c1,0,1,0,1,0l1,0l2,1l1,0l1,0c0,0,0,1,1,1c0,0,1,0,1,0l1,0ZM300.5,192.5l4,-2l-1,1l-4,2ZM293.5,209.5l-1,-1l1,-2l1,1ZM290.5,196.5l0,1c1,0,1,0,1,0c0,0,0,-1,0,-1l0,-1l1,0l0,1c1,0,1,0,1,-1l0,-1l0,1l0,1c0,1,0,1,0,1l-1,0l-1,0c0,1,0,1,-1,1c0,-1,0,-1,0,-1l0,-1ZM294.5,193.5l-5,3c0,-1,0,-2,0,-2l6,-2ZM275.5,208.5l1,0c1,0,2,0,3,-1c1,0,1,0,1,-1c1,0,1,-1,2,-1c0,-1,0,-1,0,-1c0,-1,0,-1,0,-1l0,-1l-1,0l0,-1l0,-1l1,-1l0,1l1,1l0,1l0,1c0,0,0,1,0,1c0,1,0,1,0,1c0,0,-1,0,-1,0c0,0,0,1,0,1c0,0,0,1,0,1c-1,0,-1,0,-1,1c0,0,-1,0,-1,0l-1,1c-1,0,-1,0,-1,0l-1,0l-1,0c0,0,0,-1,-1,-1ZM281.5,213.5l-5,2l0,-1l5,-3c0,1,0,1,0,2ZM276.5,213.5l0,-1l5,-3l0,1ZM352.5,203.5c0,0,-1,1,-2,1c-1,0,-2,0,-4,0c-1,0,-2,0,-3,0c-1,0,-1,0,-1,0c-2,0,-3,1,-5,1c-1,0,-2,0,-3,0c-2,0,-2,0,-3,0l-1,0l-1,0c0,0,-1,0,-1,-1c0,0,-1,0,-1,-1l0,1l0,1c0,1,0,1,0,2c0,0,-1,1,-1,1c0,1,-1,1,-1,1c0,0,-1,0,-1,0c0,1,-1,1,-1,1c-1,0,-1,0,-2,0l-1,0c-1,0,-1,-1,-2,-1c0,0,0,-1,0,-1c-1,0,-1,-1,-1,-1c0,-1,0,-2,0,-2c1,-1,1,-1,1,-1l0,-1l1,0l0,-1l0,1c-1,1,-1,1,-1,1c0,1,0,1,0,1c0,1,0,2,1,2c0,1,1,1,2,1c1,0,2,0,3,-1c1,0,2,0,2,-1c1,0,1,-1,1,-1l-1,-3l0,-1c0,-1,0,-1,0,-1l0,-7l1,-2l0,10c0,1,0,1,1,1c0,1,0,1,0,1c1,0,1,0,1,0l1,0l1,0c1,0,2,0,3,0c1,0,2,0,3,0c2,0,3,0,4,0l2,-1c1,0,2,0,3,0c1,0,3,0,4,0c2,0,2,0,3,0c0,0,0,-1,0,-1c0,0,-1,0,-1,0l0,-1c-1,0,-1,0,-1,0c-2,0,-3,0,-5,1c-2,0,-4,0,-6,0c-2,0,-3,0,-4,0c-2,0,-3,0,-4,0l0,-1c0,0,0,-1,0,-1c1,-1,1,-1,1,-1c0,0,0,-1,1,-1c1,-1,1,-2,2,-2c1,-1,2,-2,3,-2c1,0,1,0,1,0l-1,2l-1,0c-1,1,-2,1,-2,2c-1,0,-2,1,-3,2l1,0c0,1,0,1,1,1l1,0l1,0c1,0,2,0,4,-1c2,0,4,0,6,0c2,0,3,0,4,0c1,0,1,0,2,0c0,0,1,1,1,1c0,0,0,1,0,1c0,1,0,1,0,2c0,0,-1,0,-1,0ZM335.5,186.5c0,-1,0,-1,0,-1c1,-1,1,-1,1,-1c1,1,1,1,1,1c0,1,0,1,0,1l0,1l-1,0l1,0l0,2l-1,-1l-1,0l0,1c0,0,-1,1,-1,1l-1,0l-1,0l1,-1l1,0l0,-1l1,0l0,-1c0,0,-1,0,-1,-1c0,0,1,0,1,0ZM336.5,186.5l-1,-1c0,0,0,1,0,1l1,0l0,1l0,-1ZM321.5,191.5l0,1c1,0,1,0,1,0l0,-1l0,-1l1,0l0,1l0,1c1,0,1,-1,1,-1l0,-1l0,1l0,1l0,1l-1,0l0,-1l-1,0l0,1l-1,0l0,-1l0,-1ZM322.5,186.5c0,0,1,-1,1,-1l1,0c0,0,1,0,1,1l-1,0l0,1l0,1l0,1l-1,-1l0,1c-1,1,-1,1,-1,1c-1,0,-1,0,-1,0c-1,0,-1,0,-1,0c1,0,2,-1,3,-2l-1,0c0,-1,0,-1,0,-1c0,-1,0,-1,0,-1ZM323.5,186.5l0,1l1,0c0,-1,0,-1,0,-1ZM399.5,201.5l-1,0c0,0,1,0,1,0c0,1,0,1,0,1c0,0,1,0,1,0l0,-1c0,0,-1,0,-1,0ZM399.5,209.5c-1,0,-1,0,-1,0c-1,0,-1,1,-2,1c-1,0,-1,-1,-2,-1l-1,0c1,-1,1,-1,1,-1c0,0,0,1,0,1c1,0,1,0,1,0c0,0,1,0,1,0l0,-1c1,0,1,0,1,0l1,0c0,0,0,-1,1,-1c0,0,0,-1,0,-1c1,0,1,0,1,-1c1,-1,1,-1,1,-1c0,0,0,-1,0,-1c-1,0,-1,0,-1,0l0,1c0,0,-1,0,-1,0l-1,0l0,-1l0,-1l0,-1c0,0,0,-1,0,-1c0,-1,1,-1,1,-1l1,0c1,0,1,0,1,1l0,1l0,1c0,0,1,1,1,1l-1,1c0,1,0,2,0,3c-1,0,-1,0,-1,1l-1,1ZM396.5,195.5l5,-2l-1,1l-4,2ZM385.5,198.5l-1,-1l1,-2l1,1ZM393.5,200.5l0,2l-1,0c0,0,-1,0,-1,0l-1,0c0,0,0,1,-1,1l-1,0l-1,0l-1,1c-1,0,-1,0,-1,0l-1,1l-1,0l-1,0c0,0,0,-1,-1,-1l0,-1c-1,0,-1,0,-1,-1l0,-8l1,-2l0,9c0,0,0,1,0,1l1,0c0,1,0,1,0,1l0,-1c0,0,1,-1,1,-1c0,0,0,-1,0,-1c1,0,1,-1,1,-1c1,0,1,0,1,0l1,0c1,0,1,0,1,0l1,0l1,1l2,0l1,0l1,0ZM389.5,201.5l-1,0c-1,0,-1,0,-2,0l-1,0l-1,0c0,0,-1,1,-1,1l0,1l1,0c1,0,1,0,1,0l1,0l0,-1l1,0l1,0ZM383.5,189.5l4,-3l0,1l0,1l-4,2ZM369.5,209.5l-2,-1l1,-1l2,1ZM376.5,203.5c0,0,-1,1,-2,1c-1,0,-2,1,-3,1c-1,0,-2,0,-3,0c-2,0,-3,0,-4,0c-1,0,-2,-1,-2,-1c-1,0,-1,-1,-1,-1c0,0,0,-1,0,-1l0,-1c0,0,0,-1,0,-1c0,0,0,-1,1,-1l0,1c0,0,0,1,0,1c0,0,0,1,0,1c0,0,1,1,1,1c1,0,1,0,2,0l1,0l3,0c0,0,1,0,1,0c0,0,1,0,1,0c0,0,1,0,1,0l1,0c1,-1,1,-1,2,-1c1,0,1,-1,1,-1l0,-1l-1,-1l1,-1l0,-1c0,1,1,1,1,2c0,1,0,1,0,1c0,1,0,1,0,2c0,0,-1,0,-1,1ZM365.5,195.5l4,-2l0,1l-5,2ZM175.5,188.5l-5,3c0,-1,0,-2,0,-2l6,-3Z" class="g1_41" />
</svg>