<?xml version="1.0" encoding="UTF-8" standalone="no"?>
<!DOCTYPE svg PUBLIC "-//W3C//DTD SVG 1.1//EN"
"http://www.w3.org/Graphics/SVG/1.1/DTD/svg11.dtd">
<svg version="1.1" xmlns="http://www.w3.org/2000/svg" xmlns:xlink="http://www.w3.org/1999/xlink">
<defs>
<style type="text/css"><![CDATA[
.g1_43{
stroke: #1F1A17;
stroke-width: 1;
stroke-linecap: butt;
stroke-linejoin: miter;
}
]]></style>
</defs>
<path fill-rule="evenodd" d="M390.5,571.5l0,1c1,0,1,0,1,0l0,-1l0,-1l0,1l1,0c0,1,0,1,0,1c0,0,0,-1,0,-1l1,-1l0,1l0,1c0,0,-1,0,-1,1c-1,0,-1,0,-1,0l0,-1l0,1c-1,0,-1,0,-1,0c0,0,-1,0,-1,0l0,-1l0,-1ZM253.5,587.5c-1,0,-1,0,-2,0l-1,0c0,0,-1,0,-1,0c-1,0,-1,0,-1,0l-1,0c0,0,0,-1,0,-1c0,0,0,-1,0,-1c0,0,1,0,1,0l1,0c1,0,1,-1,1,-1c1,-1,1,-1,1,-1c0,0,0,-1,-1,-1l0,-1c-1,0,-1,-1,-2,-1c0,-1,-1,-1,-1,-2c0,0,-1,0,-1,0c0,-1,0,-1,-1,-1c0,0,-1,0,-1,0c0,0,0,-1,-1,-1c0,0,0,-1,0,-1c0,-1,0,-1,0,-1l0,-1c1,0,1,0,1,0c0,1,1,1,1,1c1,1,1,1,2,2c0,0,1,1,2,2c0,0,1,1,1,2c1,0,1,1,1,1c0,0,0,1,1,1c0,0,0,-1,0,-1c0,-1,0,-2,0,-2c0,-1,0,-2,0,-2c0,0,0,-1,0,-1c0,-1,0,-1,0,-2l0,-1l0,-1c0,0,1,0,1,0c0,0,0,1,0,1c1,0,1,0,1,0c0,1,0,1,0,1c0,1,0,1,0,1l-1,0l0,1c0,0,0,1,0,1c0,1,0,1,0,1c0,1,0,1,0,2c0,0,0,1,-1,1c0,1,0,1,0,2c0,0,0,1,0,1c0,0,1,0,1,0c0,1,0,1,0,1c0,1,0,1,0,1l0,1ZM251.5,584.5c0,1,0,1,0,1c0,0,-1,0,-1,0c1,0,1,0,1,0l1,0c0,0,0,-1,0,-1ZM203.5,577.5l-2,-1l1,-2l2,1ZM203.5,586.5c-1,0,-1,0,-2,0c-1,0,-1,-1,-1,-1c-1,0,-1,-1,-1,-1c-1,-1,-1,-1,-1,-2l0,-1l1,0c0,-1,0,-1,0,-1l0,-1c0,0,1,-1,1,-1l0,1c0,1,-1,1,-1,1l0,1c0,1,0,1,0,1c1,1,1,1,1,1c0,0,1,0,1,1c1,0,1,0,2,0c1,0,1,0,2,0c1,-1,1,-1,2,-1c0,-1,0,-1,0,-1l0,-1l0,-1c0,0,0,-1,0,-1l-1,-1l0,-1l1,-2c0,0,0,1,0,1c0,1,0,1,0,1c1,0,1,1,1,1l0,1c0,1,0,1,0,1c0,0,0,1,0,1c0,1,0,1,0,2c-1,0,-1,1,-1,1c-1,1,-2,1,-2,2c-1,0,-2,0,-2,0ZM213.5,586.5c0,0,-1,-1,-2,-1c0,-1,0,-1,0,-2l-1,-8l1,-3l1,10l0,1c0,1,1,1,1,1l1,0l1,0l1,0c1,-1,1,-1,2,-2l0,1c0,0,1,1,1,1c0,0,1,0,1,-1c1,0,1,0,1,-1l1,0c0,0,0,1,0,1c0,0,1,0,1,0c0,0,1,0,1,0c0,-1,1,-1,1,-1c0,1,1,2,2,2l1,0l1,0c0,0,1,0,1,-1c1,0,1,0,1,0l2,0l1,-1l-1,0l-1,-1l-1,0l-1,0l-1,0l-1,0c1,0,1,-1,1,-1c0,0,1,0,1,-1l1,0l1,0l0,1l1,0l2,1c1,0,1,0,1,0c1,0,1,0,2,0l1,0l1,0l-1,2l-2,0c0,0,-1,0,-1,0l-1,0c0,0,-1,0,-1,0l0,1l-1,0l-1,0l-1,1l-1,0c-1,0,-2,1,-2,1l-1,0l-1,-1l-1,0c0,0,0,-1,0,-1l0,-1l0,1c-1,0,-1,0,-1,1c-1,0,-1,0,-1,0c-1,0,-2,0,-2,-1l0,1c-1,0,-1,0,-2,1c-1,0,-1,-1,-2,-2l0,1c-1,0,-1,0,-2,0l0,1ZM103.5,586.5l0,-2l0,-1l0,-8l0,-3l1,11c0,0,0,1,0,1c0,1,-1,1,-1,2ZM95.5,584.5c1,0,1,0,1,0c1,0,1,0,1,0c1,0,1,-1,1,-1l0,-1l0,-1l0,-7c-1,0,-1,0,-1,0l0,-1l1,-1c0,1,0,1,0,1c1,0,1,0,1,0c0,1,0,1,0,1c0,1,0,1,0,1c0,1,0,1,0,2c0,0,0,1,0,3c0,0,0,1,0,1l0,1c0,0,0,1,0,1c0,0,0,1,0,1c0,0,-1,0,-1,0c0,1,0,1,0,1l-1,0c-1,0,-1,0,-1,0l0,1l-1,0l-1,0l-1,0c0,0,-1,-1,-2,-1l-1,0c0,0,-1,0,-1,0c-1,0,-1,0,-2,0l0,1l-1,0c0,0,0,-1,0,-1l0,1c0,0,-1,0,-1,0l0,1c0,0,0,1,0,2c-1,0,-1,0,-1,0c0,1,0,1,-1,1c0,0,0,1,-1,1l-1,0l-1,0c0,0,-1,0,-2,0l0,-1l1,0c1,0,1,0,2,0l1,-1l1,0c0,0,0,-1,0,-1c0,0,1,-1,1,-1c0,0,0,-1,1,-1c0,-1,0,-1,0,-1l-1,0c0,-1,0,-1,0,-1l0,-1l0,-1l1,1l0,1c0,0,1,0,1,0l1,0c1,0,1,0,1,0c1,0,1,0,1,0c0,-1,0,-1,0,-1c0,0,0,-1,0,-1c0,0,0,-1,0,-1c0,-1,0,-1,1,-1c0,-1,0,-1,0,-1c1,0,1,-1,2,-1c0,0,1,1,1,1c0,0,0,1,0,1l0,1c0,1,0,1,0,2c0,0,-1,0,-1,1c0,0,1,0,1,0c1,0,1,0,1,0ZM96.5,568.5c0,-1,0,-1,1,-1l1,0c0,0,1,0,1,0c1,0,1,1,1,1c0,0,-1,1,-1,1l0,1c-1,0,-1,0,-1,0c-1,0,-1,0,-1,0l-1,0l1,-1c1,0,2,0,2,-1l-1,0l-1,0l-1,0c0,0,0,1,-1,1l0,-1c0,0,1,0,1,0ZM92.5,577.5l-2,-1l0,2l-2,-1l1,-2l1,1l1,-1l2,1ZM91.5,580.5l-1,1c0,1,0,1,0,1l1,1c0,0,1,-1,1,-1c0,-1,0,-1,0,-1c0,-1,-1,-1,-1,-1ZM91.5,566.5l1,-1l1,0c0,0,0,1,0,1c0,0,0,1,0,1c0,1,0,1,0,1l1,0l-1,1l-1,0l-1,1l-1,1l-1,0l1,-1c0,0,1,-1,1,-1l1,0l-1,-1l0,-1l0,-1ZM92.5,567.5l0,-1l0,1ZM80.5,575.5c0,0,1,-1,1,-1c0,0,1,0,1,0c1,0,1,0,2,0c0,1,0,1,0,1c0,1,0,1,0,1c-1,0,-1,1,-1,1c0,0,-1,0,-1,0l-1,0c0,0,-1,0,-1,0l2,0c1,-1,1,-1,1,-1c0,0,0,-1,0,-1c-1,0,-1,0,-1,0c-1,0,-1,0,-1,1c-1,0,-1,0,-1,0c0,-1,0,-1,0,-1ZM80.5,588.5l-2,-1l1,-2l2,1ZM73.5,586.5l1,-1c0,0,1,0,1,0c1,0,1,-1,1,-1c1,0,1,0,1,0c0,0,-1,-1,-1,-1c0,-1,0,-1,0,-1c0,0,0,-1,0,-1l0,-1c1,1,1,1,1,2l0,1c0,1,0,1,0,1c0,1,0,1,0,1c0,0,-1,1,-1,1c1,0,1,0,1,0c0,0,1,0,1,0c0,0,0,1,0,1c0,1,0,1,0,1c-1,0,-1,0,-1,0c0,0,0,1,0,1c0,0,-1,0,-1,0c-1,1,-1,1,-2,1c-1,1,-2,1,-2,1c-1,0,-1,0,-2,0c0,1,-1,1,-1,1c-1,0,-2,0,-2,0c-1,0,-1,0,-1,0c0,0,-1,0,-1,0c-1,0,-1,0,-1,0c-1,0,-2,0,-3,0c-1,0,-2,0,-3,0c-1,-1,-1,-1,-2,-1c0,0,-1,0,-2,-1c0,0,-1,0,-1,0c-1,-1,-2,-1,-2,-1c0,0,-1,-1,-1,-1c0,-1,-1,-1,-1,-1l1,0c1,0,1,1,2,1c0,0,1,0,2,1l1,0c0,0,1,0,1,0c1,1,2,1,3,1c1,0,1,0,2,0c1,0,2,0,3,0l1,0l1,0c0,0,1,0,1,0c1,0,1,0,2,0c1,0,2,0,2,0c0,0,1,-1,2,-1c1,0,1,0,1,0c1,0,1,-1,1,-1c1,0,1,0,2,0c-1,-1,-1,-1,-2,-1c-1,0,-1,0,-1,0c-1,-1,-1,-1,-1,-1ZM75.5,573.5c0,2,0,2,0,3l0,-1l0,-1c0,0,0,-1,0,-1l-1,-1l0,-1l1,0l0,1l0,1ZM132.5,575.5l-1,-1l0,-2l2,1ZM136.5,584.5l-1,1c-1,0,-2,0,-2,1l-1,0l-1,0l-1,0c0,0,0,-1,0,-1c0,-1,0,-1,0,-1c0,-1,0,-1,0,-1c0,0,0,1,1,1c1,0,1,0,2,0c0,0,0,-1,1,-1l1,0c0,-1,0,-1,0,-1c0,-1,0,-1,-1,-1l0,-1l-1,0l-1,-1l0,-2c0,0,1,0,1,0c0,0,1,1,1,1c1,0,1,0,1,1l1,1c0,0,0,1,0,1c0,0,0,1,0,1c0,1,0,1,0,1c0,1,0,1,0,1ZM134.5,589.5l-5,2c1,-1,1,-1,1,-1l4,-2ZM127.5,579.5l-1,0l-1,0c0,0,-1,0,-1,0c0,0,-1,0,-1,1c-1,1,-1,1,-1,2l1,1l2,0c0,0,1,0,1,0c0,1,0,1,0,1c0,1,0,1,0,1c0,1,0,1,0,1c0,0,-1,0,-1,1c-1,0,-1,1,-2,1c-1,0,-2,0,-2,1c-1,0,-2,0,-2,0l-1,0c-1,0,-2,0,-2,0c-1,0,-1,-1,-2,-1c0,0,0,-1,0,-1c-1,-1,-1,-1,-1,-2c0,-1,0,-1,1,-2c0,-1,0,-1,0,-2c0,0,1,0,1,-1l1,0l-1,1l0,1l-1,0c0,1,0,1,0,1c0,0,0,1,0,1c0,1,0,1,0,1c0,0,1,1,1,1c1,1,2,1,3,1c1,0,3,0,4,0l1,-1l1,0c1,-1,1,-1,1,-1l-1,0c-1,-1,-2,-1,-3,-1c0,0,-1,-1,-1,-1c0,0,0,-1,0,-1c1,0,1,0,1,0c0,0,0,-1,0,-1c0,-1,1,-1,1,-1c0,-1,0,-1,0,-1c1,0,1,-1,1,-1c1,0,1,-1,2,-1c0,0,1,0,1,0c1,0,1,0,1,0c0,0,0,1,0,1l0,1ZM187.5,582.5l-1,0c0,1,1,1,1,1c0,-1,1,-1,1,-1c-1,0,-1,0,-1,0ZM187.5,589.5c0,0,0,1,-1,1c-1,0,-1,0,-2,0c-1,0,-1,0,-2,0c0,0,-1,0,-1,-1l-2,1l0,-1l1,0c-1,0,-1,0,-1,-1c0,-1,0,-1,1,-1l0,-1l1,0l0,1l0,1l-1,0l0,-1c0,0,0,1,-1,1l1,0l1,1l1,0l0,-1l0,1l-1,0c1,0,1,0,1,0l1,0c1,0,1,0,1,0l1,0c1,-1,1,-1,1,-1c1,-1,1,-1,1,-1c0,0,1,-1,1,-1c0,-1,0,-1,0,-2l0,1c0,0,-1,0,-1,0c0,0,-1,0,-1,0l0,-1c-1,0,-1,0,-1,0c0,0,0,-1,0,-1c0,0,0,-1,0,-1c0,-1,1,-1,1,-1c0,-1,0,-1,0,-1c1,0,1,-1,1,-1c1,0,1,1,1,1l1,1c0,1,0,1,0,1c0,1,0,1,0,2c0,0,0,1,0,1c0,1,0,1,-1,2c0,1,0,1,0,1c-1,1,-1,1,-1,1ZM184.5,576.5l4,-2c0,1,-1,1,-1,1l-4,2ZM180.5,586.5l0,-2l0,-1l0,-8l0,-3l1,11c0,0,0,1,0,1c0,1,-1,1,-1,2ZM181.5,592.5l-4,2c0,-1,0,-1,0,-1l4,-2ZM176.5,589.5l-1,-1l-1,1l-1,-1l0,-1l2,1l1,-2l1,1ZM173.5,586.5l-1,0l-1,0c0,0,-1,-1,-1,-1l-1,0c0,-1,0,-1,0,-1c0,0,-1,0,-1,0c0,0,0,1,0,1c-1,0,-1,0,-2,0l0,1l-1,0l-1,0c-1,0,-1,-1,-2,-1c0,-1,-1,-1,-1,-2l0,-9l1,-2l0,10l0,1l1,0c0,1,0,1,1,1l1,0c1,0,1,0,1,0c1,0,1,0,2,-1c1,0,1,0,1,0c1,0,1,0,1,1c0,0,1,0,1,0l1,0l1,0c1,0,1,0,2,0c0,0,1,-1,1,-1c0,-1,0,-1,0,-1c0,0,-1,-1,-1,-1l1,-2c0,0,0,1,0,1c1,1,1,1,1,1c0,0,0,1,0,1c0,0,0,1,0,1c0,1,0,1,-1,1c0,1,-1,1,-1,1c-1,0,-1,1,-2,1ZM169.5,580.5l-1,-1l-1,2l-1,-1l1,-2l1,1l1,-1l1,1ZM166.5,572.5l5,-2l-1,1l-4,2ZM159.5,570.5l0,-1c1,0,1,1,2,1c1,0,1,0,1,0l1,0l1,0c0,0,-1,0,-1,1l-1,0l-1,0l-1,0l0,-1l-1,0c-1,1,-1,1,-1,1c0,-1,0,-1,1,-1ZM148.5,592.5l0,-1c0,0,1,0,1,-1l1,0c0,0,1,0,1,0l0,1l0,1l-1,-1c-1,0,-1,1,-1,1l1,1l1,0l1,0l-1,0l-3,2l0,-1c0,0,1,0,1,0c-1,-1,-1,-1,-1,-2ZM158.5,579.5l-1,0l-1,0c-1,0,-1,0,-2,1c-1,1,-1,1,-1,2l1,1l2,0c1,0,1,0,1,0c0,1,0,1,0,1c0,1,0,1,0,1c0,0,0,1,0,1c0,0,-1,0,-1,1c-1,0,-1,1,-2,1c-1,0,-1,0,-2,1c-1,0,-2,0,-2,0l-1,0c-1,0,-1,0,-2,0c0,0,-1,-1,-1,-1c-1,0,-1,-1,-1,-1c-1,-1,-1,-1,-1,-2c0,-1,0,-1,1,-2c0,-1,0,-1,0,-2c1,0,1,0,1,-1l1,0l-1,1l0,1c0,1,-1,1,-1,1c0,0,0,1,0,1c0,1,0,1,1,1c0,0,0,1,0,1c1,1,2,1,4,1c1,0,2,0,3,0l1,-1l1,0l1,0c0,-1,0,-1,0,-1l1,0l-2,0c-1,-1,-2,-1,-3,-1c0,0,0,-1,0,-1c0,0,0,-1,0,-1c0,0,0,-1,0,-1c0,-1,1,-1,1,-1c0,-1,0,-1,0,-1l1,0c0,0,0,-1,0,-1c1,0,1,-1,2,-1c0,0,1,0,1,0c0,0,1,0,1,0c0,0,0,1,0,1l0,1ZM150.5,596.5l-4,2c0,-1,0,-1,1,-1l4,-2ZM264.5,582.5c0,1,0,1,0,1c1,0,1,0,1,0c0,-1,0,-1,0,-1l-1,0ZM264.5,589.5c0,0,0,1,0,1c0,0,-1,0,-1,0c0,0,-1,0,-2,0c0,0,-1,0,-2,0l0,-1l1,0c0,0,1,0,1,0l1,0c0,0,1,0,1,0c0,-1,1,-1,1,-1c0,-1,1,-1,1,-1c0,0,0,-1,0,-1c1,-1,1,-1,1,-2c0,0,-1,0,-1,0l0,1l-1,0l-1,-1c0,0,0,-1,0,-1c0,0,0,-1,0,-1c0,-1,0,-1,0,-1c1,-1,1,-1,1,-1c0,0,1,-1,1,-1c0,0,0,1,0,1c1,0,1,0,1,1c0,1,1,1,1,1c0,1,0,1,0,2c0,0,0,1,0,1c-1,1,-1,1,-1,2c0,1,-1,1,-1,1c0,1,0,1,-1,1ZM262.5,576.5l4,-2l-1,0c0,1,0,1,0,1l-4,2ZM258.5,586.5l0,-2l0,-1l-1,-8l1,-3l1,11c0,0,0,1,-1,1c0,1,0,1,0,2ZM249.5,591.5l-5,2c1,-1,1,-1,1,-1l4,-2ZM251.5,568.5l1,0l1,0c0,0,1,0,1,0c0,0,0,1,0,1c0,1,-1,1,-1,1l-1,0l-1,0l1,0c1,-1,1,-1,2,-1c-1,0,-1,0,-1,0l-1,0l-1,0ZM172.5,572.5c1,0,1,-1,1,-1c1,0,1,0,2,0c0,0,1,0,1,0c1,1,1,1,1,1c0,1,-1,1,-1,1c0,1,0,1,-1,1c-1,0,-1,0,-1,0l-1,0l1,0c1,-1,2,-1,2,-1c0,0,-1,0,-1,-1l-1,0c0,0,-1,0,-1,1l-1,0c0,-1,0,-1,0,-1ZM231.5,570.5c0,0,1,0,1,0c1,0,1,0,1,0c1,0,1,0,2,0l0,1l0,1c0,0,-1,0,-1,0c0,0,-1,1,-1,1l-1,0l-1,0l2,-1c1,0,1,0,2,-1c-1,0,-1,0,-1,0c0,0,-1,0,-1,0c0,0,-1,0,-1,0c0,0,-1,0,-1,0c0,0,0,-1,0,-1ZM220.5,572.5l4,-2l0,1l-4,2ZM370.5,569.5c0,-1,0,-1,0,-2c0,-1,0,-1,0,-2l0,-1c1,1,1,1,1,1c0,1,0,1,0,1l0,1l0,1c0,1,0,1,-1,1ZM206.5,589.5l-5,2c1,0,1,-1,1,-1l4,-2ZM321.5,589.5l-1,-1l1,-1l1,1ZM319.5,586.5l-1,0l-2,0c0,0,-1,-1,-2,-1c0,-1,0,-1,0,-2l-1,-9l1,-2l1,10l0,1c0,1,1,1,1,1l2,0l1,0c0,0,1,0,1,0c1,0,1,-1,1,-1c0,-1,0,-1,0,-1l0,-1l-1,0l1,-2c0,0,0,1,1,1l0,1l0,1l0,1c0,1,0,1,0,1l-1,0c0,1,0,1,-1,1c0,0,-1,1,-1,1ZM320.5,592.5l-4,2c1,-1,1,-1,1,-1l4,-2ZM306.5,584.5c0,0,1,0,1,0c0,0,1,0,1,0c0,0,0,-1,1,-1l0,-1l0,-1l-1,-7l0,-1l0,-1c0,0,1,0,1,0c0,1,0,1,0,1c0,0,1,0,1,0c0,1,0,1,0,1c0,1,0,1,-1,1c0,1,0,1,0,2c0,0,0,1,1,3c0,0,0,1,0,1l0,1c0,0,0,1,0,1l-1,0c0,0,0,1,0,1c0,1,0,1,0,1c-1,0,-1,0,-1,0l-1,0l0,1l-1,0c-1,0,-1,-1,-2,-1l-1,0l0,-1l-1,0l-1,0l0,1c0,0,-1,0,-1,0l-1,0l-1,1l-2,0l0,-1c-1,0,-1,0,-1,0l-1,0l0,-1l0,-1l0,1l-1,0l0,1c-1,0,-1,0,-2,0c0,0,-1,0,-1,0l-1,0l-1,0c-1,0,-1,-1,-1,-1l0,-1l1,-1c0,0,0,1,0,1l1,0l1,0l1,0c1,0,1,0,1,0c1,0,1,0,1,0l1,-1l-1,-1l0,-2l0,-1l0,-1l1,-1l0,2l0,1l1,3l0,1l0,1l1,0l2,0c1,0,1,0,1,0l1,0l0,-1l1,0l0,-1c-1,0,-1,0,-2,0l1,-2l1,0c0,-1,1,-1,1,-1l1,0l0,1c1,0,1,0,1,0l0,1l0,1l0,1l-1,0l1,0l0,1l1,0l1,0ZM306.5,568.5c0,-1,1,-1,1,-1c1,0,1,0,2,0c0,0,1,0,1,0c0,0,0,1,0,1c0,0,0,1,0,1c0,0,-1,0,-1,1l-1,0l-1,0l-1,0l2,-1c1,0,1,0,2,-1c-1,0,-1,0,-1,0c0,0,-1,0,-1,0c0,0,-1,0,-1,0c0,0,-1,1,-1,1l0,-1ZM301.5,572.5l4,-2l0,1l-4,2ZM290.5,570.5l1,0c0,0,1,0,1,0c1,0,1,0,1,0c1,0,1,0,1,1l-1,1l-1,0c0,0,0,1,0,1c0,0,-1,0,-1,0l-1,0l2,-1c0,0,1,0,1,-1l-1,0c-1,0,-1,0,-2,0c0,0,0,-1,0,-1ZM283.5,574.5l0,-1l0,-1c1,0,1,0,1,0c-1,0,-1,0,-1,0c0,1,1,1,1,1l1,0c0,1,-1,1,-1,1c0,1,0,1,0,1c0,1,0,1,0,2c0,2,0,3,0,3c0,1,0,2,0,3l0,1c0,1,0,1,0,2c0,0,-1,1,-1,1c0,1,-1,1,-1,1c0,0,-1,0,-1,0c-1,1,-2,1,-3,1l-1,0c-1,0,-1,-1,-2,-1c0,0,0,-1,0,-1c-1,0,-1,-1,-1,-1c0,-1,0,-2,1,-2c0,-1,0,-1,0,-1l1,-1l0,-1l0,1c0,1,0,1,-1,1c0,1,0,1,0,1c0,1,0,2,1,2c0,1,1,1,2,1l1,0c1,0,1,0,2,-1c1,0,2,0,2,-1c1,0,1,-1,1,-1c0,-1,-1,-2,-1,-3c0,-1,0,-3,0,-4c0,-1,0,-2,0,-3ZM281.5,591.5l-4,2c0,0,0,-1,0,-1l4,-2ZM354.5,589.5l-1,-1l-1,1l-1,-1l0,-1l2,1l1,-2l1,1ZM351.5,586.5l-1,0l-1,0c-1,0,-1,-1,-2,-1c0,-1,-1,-1,-1,-2l0,-9l1,-2l0,10l0,1l1,0c0,1,0,1,1,1l1,0l1,0c1,0,1,0,2,0c0,0,1,-1,1,-1c0,-1,0,-1,0,-1c0,0,-1,-1,-1,-1l1,-2c0,0,0,1,0,1c1,1,1,1,1,1c0,0,0,1,0,1c0,0,0,1,0,1c0,1,0,1,-1,1c0,1,-1,1,-1,1c-1,0,-1,1,-2,1ZM351.5,572.5l4,-2l0,1l-4,2ZM345.5,569.5l0,-1c1,0,1,0,1,-1l1,0l1,0c0,0,0,1,0,1l0,1l-1,0l0,-1c-1,0,-1,1,-1,1l1,1c1,0,1,0,1,0l1,0l-4,2l0,-1l1,0c-1,-1,-1,-1,-1,-2ZM345.5,564.5l1,0c0,-1,1,-1,1,-1c1,0,1,1,1,1c1,0,1,0,1,0l0,1l-1,0c0,1,0,1,0,1c0,0,-1,0,-1,0c0,0,-1,0,-1,0l-1,0l2,0c0,0,1,-1,1,-1l-1,0c-1,0,-1,0,-2,0l0,-1ZM342.5,585.5c0,0,-1,0,-1,0l-1,0l0,-1l-1,0l-1,0c0,1,0,1,0,1l-1,0l0,1l-1,0c0,0,0,-1,0,-1l-1,0l0,1l0,1c0,0,0,1,-1,2c0,1,-1,1,-1,1c0,0,-1,1,-1,1l-1,0l-1,0c-1,0,-1,0,-2,0l-1,-1c1,0,1,0,1,0l1,0c0,0,1,0,1,0c1,0,1,0,2,-1c1,0,1,-1,1,-1c0,0,0,-1,1,-1c0,0,0,-1,0,-1c1,-1,1,-1,1,-1l-1,0c0,-1,0,-1,0,-1l0,-1l0,-1l0,1l1,0l0,1l1,0l1,0c0,0,1,0,1,0l0,-1l1,-1c0,0,0,-1,1,-1c0,-1,1,-1,1,-1l1,1c0,0,0,1,0,1l0,1l1,0l0,1l-1,0c0,0,0,1,0,1ZM340.5,583.5l1,0c0,0,0,-1,0,-1l-1,0c0,1,0,1,0,1ZM339.5,570.5c0,-1,0,-1,1,-1c0,0,0,-1,1,-1c0,1,0,1,0,1l0,1l0,1l0,1l0,1l-1,-1l0,1l-1,0c0,1,0,1,-1,1l-1,0l1,0l0,-1c0,0,1,0,1,0l0,-1l1,0l-1,0l0,-1l0,-1ZM340.5,570.5l0,1l0,-1ZM333.5,570.5c0,-1,0,-1,0,-1c1,0,1,-1,1,-1c0,1,0,1,1,1l0,1l0,1l-1,0l1,1l0,1l-1,-1l0,1l-1,0c0,1,-1,1,-1,1l-1,0l1,-1l1,-1l0,-1c0,0,-1,0,-1,0l1,-1ZM334.5,570.5l-1,0l1,1l0,-1ZM379.5,586.5l0,-2l0,-1l0,-8l1,-3l0,11c0,0,0,1,0,1c0,1,-1,1,-1,2ZM375.5,585.5c-1,0,-1,0,-1,0c0,0,-1,0,-1,0c-1,-1,-1,-1,-1,-2c0,1,0,1,-1,2c0,0,-1,1,-2,1c0,0,-1,-1,-1,-1c-1,-1,-1,-1,-1,-2c0,1,-1,1,-1,1c0,0,-1,0,-2,0c0,0,-1,0,-1,0c0,0,0,-1,0,-1l0,-1l1,-1c0,0,1,0,1,-1l1,0l1,0l0,-1l0,-1l0,-1l0,1l1,1l0,3l0,1c1,0,1,1,2,1c0,0,0,-1,1,-1l0,-1c0,0,0,-1,0,-2c0,-1,0,-1,0,-2c0,-1,0,-1,0,-1l0,-1l0,-1l1,3l0,2l0,1c0,1,0,1,0,1c1,0,1,0,1,0c0,1,0,1,1,1l1,0l0,-1l0,-1l0,-1l-1,-1l0,-1l0,-1l1,0l0,-1l0,1c0,0,0,1,0,1l1,2c0,1,0,1,0,2c0,0,0,1,0,2c0,0,-1,0,-1,1ZM367.5,580.5l-1,1c-1,0,-1,0,-1,0c0,1,-1,1,-1,1c1,0,2,0,2,0c0,0,1,0,1,0ZM361.5,573.5l5,-2c0,0,-1,0,-1,0c0,0,0,1,0,1l-4,2ZM369.5,572.5l0,1l1,0l0,-1l1,0l0,-1l0,1c0,0,1,0,1,0l0,-1l1,-1l0,1l0,1l0,1l-1,1l-1,0l0,-1l0,1l-1,0c0,0,0,1,-1,1c0,0,0,-1,0,-1l-1,0l0,-1l1,0l0,-1ZM401.5,586.5l0,-2l0,-1l0,-8l1,-3l0,11c0,0,0,1,0,1c0,1,0,1,-1,2ZM404.5,588.5l-4,2c0,-1,0,-1,1,-1l3,-2ZM393.5,579.5l-2,-1l1,-1l2,1ZM393.5,589.5c-1,0,-1,0,-2,0c0,-1,-1,-1,-1,-1c-1,0,-1,-1,-1,-1c-1,-1,-1,-1,-1,-2c0,0,0,-1,0,-1c0,0,0,-1,1,-1c0,0,0,-1,0,-1l0,-1c1,0,1,0,1,0c0,0,0,1,0,1c0,0,-1,1,-1,1c0,1,0,1,0,1c0,1,0,1,1,1c0,0,0,1,0,1c0,0,1,0,1,0l0,1c1,0,1,0,2,0c1,0,2,0,2,-1c1,0,1,0,2,-1c0,0,0,-1,0,-1c0,0,0,-1,0,-1c0,-1,0,-1,0,-1c0,0,0,-1,-1,-1l0,-1l1,-2l0,1l0,1c1,0,1,0,1,1c0,1,0,1,0,1c0,0,0,1,0,1l0,1c0,0,0,1,0,2c0,0,-1,1,-1,1c-1,1,-2,1,-2,1c-1,1,-2,1,-2,1ZM394.5,568.5l-6,3c0,-1,1,-1,1,-1l5,-3Z" class="g1_43" />
</svg>