<?xml version="1.0" encoding="UTF-8" standalone="no"?>
<!DOCTYPE svg PUBLIC "-//W3C//DTD SVG 1.1//EN"
"http://www.w3.org/Graphics/SVG/1.1/DTD/svg11.dtd">
<svg version="1.1" xmlns="http://www.w3.org/2000/svg" xmlns:xlink="http://www.w3.org/1999/xlink">
<defs>
<style type="text/css"><![CDATA[
.g1_77{
stroke: #1F1A17;
stroke-width: 1;
stroke-linecap: butt;
stroke-linejoin: miter;
}
]]></style>
</defs>
<path fill-rule="evenodd" d="M272.5,322.5l0,1c1,1,1,1,1,1l0,-1c0,0,1,0,1,0l0,-1l0,-1l0,1c0,0,1,1,1,1c0,0,1,-1,1,-1l0,-1l0,1l0,1c0,1,0,1,0,1l-1,0c0,0,-1,0,-1,0c-1,1,-1,1,-1,1c-1,0,-1,0,-1,0c0,0,0,-1,0,-1c0,0,0,-1,0,-1l0,-1ZM315.5,319.5c1,0,1,0,1,-1c0,0,1,0,1,0c1,0,1,1,1,1c0,0,0,1,0,1l-1,0c0,1,0,1,0,1l1,0l0,1l-1,0l-1,0l0,1c-1,0,-1,0,-1,0l-1,1l-1,0l1,-1l1,0c0,0,0,-1,0,-1l1,0l0,-1c-1,0,-1,0,-1,-1l0,-1ZM317.5,320.5l-1,-1l0,1l1,0ZM298.5,315.5c0,0,0,-1,1,-1l1,0l0,1l0,1l0,1l0,1l-1,0l-1,0c0,1,0,1,-1,1l-1,0l1,-1c0,0,1,0,1,0l0,-1l1,0l-1,0c0,0,0,-1,0,-1c0,0,0,-1,0,-1ZM299.5,315.5l0,1l0,-1ZM327.5,336.5l0,-1l0,-1l-1,-9l1,-2l1,10c0,1,0,1,0,1l0,1c-1,0,-1,1,-1,1ZM323.5,332.5c-1,1,-2,1,-3,2c-1,0,-2,1,-3,1c-1,1,-2,1,-3,1l-1,0l-1,0c0,0,0,1,0,1c0,0,0,1,-1,1c0,1,0,1,0,1c0,1,-1,1,-1,1c0,0,-1,1,-1,1l-1,0c-1,0,-1,0,-1,0l-1,0l-1,0c0,0,-1,0,-1,-1c0,0,1,0,1,0l1,0l1,0c0,0,1,0,1,-1c1,0,1,0,1,0c0,0,1,-1,1,-1l0,-1c1,0,1,0,1,-1l-1,0c-1,0,-1,0,-1,-1c0,0,-1,0,-1,0c0,0,0,-1,0,-1c0,0,0,-1,0,-1c0,0,1,0,1,0c0,-1,0,-1,0,-1l0,-1c1,0,1,0,1,0c1,0,1,0,1,0c0,0,0,1,1,1c0,1,0,1,0,1c0,0,0,1,0,1c1,0,1,0,1,0c1,0,1,0,1,0l1,0c1,0,1,0,1,0c0,-1,0,-1,0,-2c-1,0,-1,0,-1,-1l0,-1c0,0,1,0,1,0c0,-1,0,-1,0,-1c1,-1,1,-1,1,-1c0,0,1,0,1,0c0,0,1,-1,1,-1c1,0,1,1,1,1l1,0c0,0,0,1,1,1l-1,0l-1,0l-1,0l-1,0c0,0,-1,0,-1,0c0,1,0,1,0,1c0,0,-1,0,-1,0c0,0,1,1,1,1l0,1c1,0,1,1,2,1c1,0,1,0,1,0l0,-1c1,0,1,0,1,0l1,0l1,-1ZM310.5,333.5c0,0,-1,0,-1,0c0,0,0,1,0,1c1,0,1,0,1,0l1,0c0,-1,0,-1,0,-1l-1,0ZM300.5,325.5l-1,-1l0,-1l2,0ZM304.5,335.5l-1,0c-1,0,-1,1,-2,1l-1,0l-1,0l-1,0l0,-1c0,0,0,-1,0,-1l1,0c1,0,1,0,2,0c0,0,1,0,1,0c0,0,0,-1,1,-1l1,0c0,0,0,-1,-1,-1c0,0,0,-1,0,-1l-1,0l0,-1l-1,0l0,-1l-1,0l0,-2c1,0,1,0,1,0l0,1c1,0,1,0,1,0l1,0c0,1,0,1,0,1c0,0,0,1,1,1c0,0,0,1,0,1c0,1,0,1,0,1c0,0,0,1,0,1l0,1l0,1ZM289.5,340.5l-1,-1l1,-2l1,1ZM287.5,336.5l-1,0c-1,0,-1,0,-1,-1c-1,0,-1,0,-1,-1l0,-1l-1,-8l1,-2l1,9c0,1,0,1,0,1l0,1l1,0l1,0c0,0,1,0,1,0c1,0,1,0,1,0l0,-1l0,-1l0,-1l-1,0l1,-1l1,0l0,1l0,1l0,1l0,1c0,0,0,1,-1,1l-1,1c0,0,-1,0,-1,0ZM279.5,335.5c0,0,-1,0,-1,0c0,0,-1,0,-1,0c-1,0,-1,-1,-1,-2c0,1,0,1,-1,2c0,1,-1,1,-2,1c0,0,-1,0,-1,-1c-1,0,-1,-1,-1,-2c0,1,0,1,-1,1c0,0,-1,1,-1,1c-1,0,-1,0,-2,-1c0,-1,0,-1,0,-2c0,0,1,0,1,0c0,-1,1,-1,1,-1l1,-1l1,0l0,-1l0,-1l1,1l0,1l0,2c0,0,0,1,0,1c1,1,1,1,2,1l1,-1l0,-1c0,0,0,-1,0,-2c0,0,0,-1,0,-1c0,-1,0,-1,0,-1c0,0,0,-1,0,-1l0,-1l1,-1l0,3l0,2l0,1l0,1l1,0l0,1l1,0l1,0c0,-1,0,-1,0,-2l0,-1l0,-1l-1,-1l0,-1c0,0,1,0,1,0l0,-1c0,0,0,1,0,1c0,0,0,1,1,1l0,2c0,1,0,1,0,2c0,1,0,1,0,2c0,0,0,1,-1,1ZM271.5,331.5l-1,0c0,0,-1,1,-1,1c0,0,-1,0,-1,1c1,0,2,0,2,-1c0,0,1,0,1,0ZM174.5,335.5l0,-2l0,-1l-1,-8l1,-3l1,11c0,0,0,1,0,1c-1,1,-1,1,-1,2ZM166.5,333.5c1,0,1,0,1,0c0,0,1,0,1,0c0,0,0,-1,1,-1l0,-1l0,-1l-1,-7c0,-1,0,-1,0,-2c0,0,1,0,1,0c0,1,0,1,0,1c0,0,1,0,1,0c0,1,0,1,0,1c0,1,0,1,0,1l-1,0c0,1,0,1,0,2c0,0,1,1,1,3c0,0,0,1,0,1l0,1c0,0,0,1,0,1c0,0,-1,1,-1,1c0,1,0,1,0,1c0,0,-1,0,-1,0l-1,0l0,1l-1,0l0,-1l-1,0l0,1l0,1c0,0,0,1,0,2c-1,0,-1,0,-1,0c0,1,0,1,-1,1c0,0,0,1,-1,1l-1,0l-1,0c0,0,-1,0,-2,0l-1,-1c1,0,1,0,1,0l1,0c1,0,1,0,1,0c1,0,1,0,2,-1c1,0,1,-1,1,-1c0,0,1,-1,1,-1c0,0,0,-1,0,-1c1,-1,1,-1,1,-1l-1,0c0,-1,0,-1,0,-1l0,-1c1,0,1,0,1,0l0,1l1,0ZM161.5,323.5l0,1l1,0c0,0,1,0,1,0l0,-1l0,1c1,0,1,0,1,0c0,0,0,-1,0,-1l0,-1l1,0l0,1l0,1c-1,0,-1,1,-1,1l-1,0l0,-1l0,1c-1,0,-1,0,-1,0c0,0,-1,0,-1,0l0,-1l0,-1ZM166.5,320.5l-6,3c0,-1,1,-1,1,-1l5,-3ZM150.5,338.5l-1,-1l0,-1l2,1ZM158.5,332.5l-1,0l-2,0c0,0,-1,0,-1,0l-1,0l-1,0l0,1l-1,0l-1,0c0,0,0,1,-1,1l-1,0c-1,0,-1,1,-2,1l-1,0l-1,-1c0,0,-1,0,-1,0l0,-1c0,0,-1,1,-1,1c-1,0,-1,0,-1,1l-1,0c-1,0,-2,-1,-2,-1l-1,0c0,0,0,1,0,1l-1,0c0,0,-1,0,-1,0c-1,0,-1,-1,-2,-1l0,1c0,1,-1,1,-2,1c0,1,-1,1,-1,1c-2,0,-3,0,-4,0l4,-2l1,0c1,0,1,-1,2,-1l1,-2c0,-1,0,-1,0,-1c1,0,1,0,1,-1l1,0c0,0,0,1,1,1c0,1,1,1,1,1c0,1,1,1,1,1l1,0c0,0,1,0,1,0c1,0,1,0,1,-1c1,0,1,-1,1,-1l0,1l1,1c0,0,1,0,1,0l1,0l1,0c0,0,1,0,1,-1c1,0,1,0,2,0l1,0l1,-1l-1,0l-1,-1l-1,0l-1,0l-1,0c0,0,0,-1,0,-1c0,0,1,0,1,0c0,-1,0,-1,1,-1c0,0,1,0,1,0c0,0,0,1,0,1l1,0l2,1l1,0l1,0l1,0c0,0,1,0,1,0l1,0ZM155.5,338.5l-4,2c0,0,0,-1,0,-1l4,-2ZM144.5,338.5l-1,-1l-1,1l-2,-1l1,-1l2,1l0,-2l2,1ZM136.5,333.5l0,-1c0,0,-1,0,-1,0c-1,0,-1,0,-1,0c0,0,1,1,1,1l1,0ZM135.5,340.5l-4,2c0,0,0,-1,0,-1l4,-2ZM234.5,335.5l0,-2l0,-1l-1,-8l1,-3l1,11c0,0,0,1,0,1l-1,0c0,1,0,1,0,2ZM226.5,333.5c0,0,1,0,1,0c0,0,1,0,1,0c0,0,0,-1,1,-1l0,-1l0,-1l-1,-7c0,-1,0,-1,0,-2c0,0,1,0,1,0c0,1,0,1,0,1c0,0,1,0,1,0c0,1,0,1,0,1c0,1,0,1,-1,1c0,1,0,1,0,2c0,0,0,1,1,3c0,0,0,1,0,1l0,1c0,0,0,1,0,1c-1,0,-1,1,-1,1c0,1,0,1,0,1c-1,0,-1,0,-1,0l-1,0c0,0,0,1,0,1l-1,0l-1,0l0,-1l-1,0c0,0,0,-1,0,-1l0,-1l-1,1l0,1c-1,0,-1,0,-2,0c0,0,-1,0,-1,-1l-1,1l-1,1c-1,0,-2,-1,-2,-2l0,1c-1,0,-2,0,-2,1l-1,0l-1,0l0,-1c-1,0,-1,0,-1,0l-1,0c0,-1,0,-1,0,-1l-1,0c0,0,0,1,0,1c0,0,-1,0,-1,0l0,1l-1,0l-11,0c0,1,0,1,0,2l-1,-1c0,0,0,-1,0,-1c0,0,1,0,1,0l-1,0l-1,0l-1,0c0,1,0,1,0,1c0,1,-1,2,-1,2c0,1,0,1,-1,2c-1,0,-1,1,-2,1c-1,0,-2,1,-2,1c-1,0,-1,-1,-2,-1c-1,0,-1,0,-2,0c0,-1,0,-1,-1,-2c0,0,0,-1,0,-1c0,-1,0,-1,0,-1l0,-1c1,-1,1,-1,1,-1c0,-1,0,-1,0,-1l1,0c0,0,0,1,-1,1l0,1c0,0,0,1,0,1c0,0,0,1,0,1c0,0,1,1,1,1c1,0,1,0,1,0c0,0,1,1,2,1c1,0,2,-1,2,-1c1,0,2,0,2,-1c0,0,1,0,1,0c0,-1,0,-1,0,-1c0,-1,0,-1,0,-1c0,-1,0,-1,-1,-1c0,0,0,-1,0,-1l1,-2c0,1,1,1,1,1l1,0l1,0c1,0,1,0,1,-1c1,0,1,0,1,-1l0,-1l0,-2l0,-1l0,-2l-1,-2l0,-1l1,-1l1,2c0,0,-1,1,-1,1l1,1l0,1l0,1l0,1l0,2l0,1l0,1l1,-2l1,0l1,-1c0,0,1,0,1,0l1,0c0,0,1,0,1,0c1,0,1,1,1,1l0,1c0,1,0,1,0,1l-1,1l1,0l2,0c0,0,1,0,1,0c0,0,1,0,1,-1c0,0,1,0,1,0c1,0,1,0,1,0c0,0,0,1,0,1c1,0,1,0,1,0l1,0l1,0l1,0c1,-1,1,-1,2,-2l0,1c0,0,0,1,1,1c0,0,1,0,1,-1c0,0,1,0,1,-1l1,0c0,0,0,1,0,1l1,0l1,0c0,-1,0,-1,1,-1c0,1,1,2,2,2ZM219.5,326.5l-2,0l1,-2l2,1ZM221.5,329.5l-2,-1l-1,1l-1,-1l1,-1l1,1l1,-2l1,1ZM217.5,317.5l0,1c1,0,1,0,1,0l0,-1l1,0l0,-1l0,1l1,0l0,-1l1,0l0,1l-1,0l0,1l-1,0l0,1c-1,0,-1,0,-1,0c-1,0,-1,0,-1,0l0,-1l0,-1ZM221.5,314.5l-5,3c0,-1,0,-1,1,-2l5,-2ZM211.5,338.5l-1,-1l-1,1l-1,-1l0,-1l2,1l1,-2l1,1ZM139.5,323.5c0,0,0,-1,1,-1c0,0,1,0,1,0c1,0,1,0,1,0c1,0,1,1,1,1c0,1,0,1,-1,1c0,0,0,1,0,1l-1,0c0,0,-1,0,-1,0c-1,0,-1,0,-1,0l2,0c0,-1,1,-1,1,-1c0,0,0,-1,-1,-1c-1,0,-1,0,-2,1c0,-1,0,-1,0,-1ZM307.5,321.5l1,0c0,0,1,0,1,0c1,0,1,0,1,0c1,0,1,0,1,1l-1,1l-1,0l0,1c0,0,-1,0,-1,0c-1,0,-1,0,-1,0l2,-1c0,0,1,0,1,-1l-1,0c-1,0,-1,0,-2,0c0,0,0,-1,0,-1ZM207.5,317.5c0,-1,0,-1,1,-1c0,0,1,0,1,0c1,0,1,0,1,0c1,0,1,1,1,1c0,0,0,1,-1,1c0,0,0,1,0,1c0,0,-1,0,-1,0c0,0,-1,0,-1,0l-1,0l2,-1c0,0,1,0,1,0c0,-1,0,-1,-1,-1c-1,0,-1,0,-2,0c0,0,0,1,0,1l0,-1ZM204.5,332.5c0,-1,0,-1,0,-1c0,0,-1,0,-1,-1l-1,0c-1,0,-1,1,-2,1l-1,1l-2,1l1,0c1,0,1,0,2,0c1,0,1,0,1,0c1,-1,2,-1,3,-1ZM197.5,319.5l0,-1c0,0,0,-1,0,-2c0,0,0,-1,0,-1l0,-1c0,0,1,0,1,1c0,0,0,1,0,1l0,1c0,0,0,1,0,1l-1,1ZM187.5,332.5l-1,-1l1,-1l1,1ZM190.5,345.5l-4,2c0,-1,0,-1,0,-1l4,-2ZM260.5,334.5l-1,0l-1,0l-1,-1l-1,0c0,1,0,1,0,1l-1,0l0,1l-1,0l-2,0c1,0,1,0,1,0c0,1,0,1,0,1c0,1,-1,2,-1,2c0,1,-1,1,-1,2c-1,0,-1,1,-2,1c-1,0,-2,1,-2,1c-1,0,-1,-1,-2,-1c-1,0,-1,0,-2,0c0,-1,0,-1,-1,-2c0,0,0,-1,0,-1c0,-1,0,-1,0,-1l0,-1c0,-1,1,-1,1,-1c0,-1,0,-1,0,-1l1,0c0,0,0,1,-1,1l0,1c0,0,0,1,0,1c0,0,0,1,0,1c0,0,1,1,1,1c1,0,1,0,1,0c0,0,1,1,2,1c1,0,2,-1,2,-1c1,0,2,0,2,-1l1,0c0,-1,0,-1,0,-1c0,-1,0,-1,0,-1c0,-1,0,-1,-1,-1c0,0,0,-1,0,-1l0,-2c0,0,1,0,1,0c0,1,0,1,1,1l1,0l1,0c0,0,1,0,1,0l0,-1l1,-1c0,0,1,-1,1,-1c0,-1,1,-1,1,-1c0,0,1,0,1,1c0,0,0,1,0,1l1,1l0,1c-1,1,-1,1,-1,1ZM258.5,332.5l1,0c0,0,0,-1,0,-1c-1,0,-1,0,-1,0l0,1ZM328.5,318.5l-4,2c0,0,0,-1,0,-1l4,-2ZM291.5,342.5l-4,2c1,0,1,-1,1,-1l4,-2ZM271.5,340.5l-4,2c0,0,0,-1,0,-1l5,-2ZM259.5,338.5l-4,2c0,-1,0,-1,0,-1l4,-2ZM247.5,332.5l-1,-1l1,-1l1,1ZM246.5,325.5l4,-2c0,1,0,1,0,1l-4,2ZM273.5,320.5c0,-1,0,-1,0,-2c0,-1,0,-1,0,-2c0,0,1,0,1,0c0,1,0,1,0,1l0,1l0,1c0,1,0,1,-1,1Z" class="g1_77" />
<path fill-rule="evenodd" d="M377.5,497.5c0,1,0,1,0,1l1,-1l0,-1l0,1c0,0,1,0,1,0l0,-1l1,-1l0,1l0,1c0,1,0,1,-1,1c0,0,-1,0,-1,0c0,1,-1,1,-1,1l-1,0c0,-1,0,-1,0,-1l0,-1ZM252.5,492.5c-1,0,-1,1,-1,1l-1,0c0,1,0,1,0,1l0,1c1,0,1,1,1,1l-1,0l0,-1l0,-1l0,-1l1,-1l1,0l1,-1ZM252.5,494.5l0,-1c0,0,1,0,1,0c0,0,1,1,1,1l0,1l-1,0l0,1l1,0l0,1l-1,-1l-1,1c-1,1,-1,1,-1,1l-1,0l1,-1l1,0l0,-1c-1,0,-1,-1,-1,-1c0,0,0,-1,1,-1ZM253.5,494.5l-1,0l0,1l1,0l0,-1ZM250.5,501.5l0,1c1,0,1,0,1,0c0,0,1,0,1,-1l0,-1l1,1c0,0,1,0,1,-1l0,-1l0,1l0,1l0,1l0,1l-1,0l-1,-1l0,1c-1,0,-1,0,-1,0c-1,0,-1,0,-1,0l0,-1l0,-1ZM123.5,555.5c0,1,0,1,0,2l-1,1c0,1,0,1,-1,1l2,0l0,1l-1,0l-1,1l-1,0l0,1c0,0,-1,0,-1,0l-1,0l0,1l-1,0l-1,0l0,1l-1,0l-1,1l-3,0l-1,0l0,-1c-1,-1,-1,-1,-1,-1c-1,0,-2,0,-3,-1l-1,0l0,-1l-1,0l-1,-1l-1,0l0,-1l2,0l-1,0l0,-1l-1,-1l0,-1l0,-1l0,-1l0,-1l1,-1l0,-1l-1,-1c0,0,1,0,1,0l0,-1l1,0l1,-1l1,0l1,-1l2,0l0,-1l1,-1c1,0,1,0,1,-1l3,0l1,1l0,1l1,0l0,1l2,0l1,0l0,1c0,0,1,0,1,0l1,1c1,0,1,1,2,1l-1,1l0,1l1,0l0,1l0,1ZM114.5,565.5l0,-1l1,0l0,-1l1,0c1,0,1,0,2,-1l1,0l1,-1l1,0c0,0,0,-1,0,-1l1,0l0,-1l-1,0l1,-1l0,-1l1,-1l0,-1c0,-1,0,-2,-1,-2c0,0,0,-1,0,-1c0,0,0,-1,0,-1l-1,0l1,-1c0,0,-1,0,-1,-1l-1,0l0,-1l-1,0l-1,-1l-2,0l-1,-1l0,-1l-1,0l-1,0l-2,0l-1,0l0,1c-1,1,-1,1,-1,1l-2,0l-1,1l-1,0l0,1l-1,0c0,0,-1,1,-1,1l1,1l-1,0l0,1l0,1l-1,0l0,1c0,0,0,1,0,1l0,1l0,1l1,0l0,1l1,0l0,1l-1,0l0,1l1,0l0,1l1,0l1,1l1,0l2,1l1,0l0,1c1,1,1,1,1,1ZM120.5,550.5l-1,0l-1,0l0,-1l-1,0c-1,0,-1,0,-1,0l0,-1l1,0l1,0c0,1,0,1,0,1l1,0l0,1ZM120.5,560.5l-1,0l0,1l-1,0l-1,1l-1,0l0,-1c1,0,1,0,1,0l1,0l0,-1c0,0,1,0,1,-1l0,1l1,0ZM115.5,562.5l0,1c0,0,-1,0,-1,0l-3,0c0,0,-1,0,-1,0c0,0,0,-1,0,-1c0,0,0,-1,0,-1l1,0l0,-1l3,0l0,1l1,0l0,1ZM115.5,548.5c0,0,0,1,0,1l-1,0l-3,0c0,0,-1,0,-1,0l0,-1c0,0,0,-1,0,-1l1,0l3,0c0,0,1,0,1,0l0,1ZM114.5,551.5l0,-1l1,0l1,0c0,0,1,0,1,0c0,0,0,1,1,1l0,1l1,-1c0,0,1,0,1,1l0,1l1,1l0,1l0,1l-1,1c0,1,0,1,0,1l-1,1l-1,-1l0,1l-1,0l0,1l-1,0l-1,0c0,0,-1,-1,-1,-1l-3,0l-1,1l-1,0c0,0,-1,0,-1,-1c0,0,-1,0,-1,0l0,-1l-1,1l-1,-1l0,-1l-1,-1l0,-1c0,-1,0,-1,0,-1c0,0,0,-1,1,-1l0,-1c0,-1,0,-1,1,-1l1,1c0,0,0,-1,0,-1l1,0l0,-1c0,0,1,0,1,0c1,0,1,0,1,0l1,0l0,1ZM114.5,559.5l1,0l1,0l1,0l1,-1l1,0l1,0l0,-1l0,-1l0,-1c0,-1,0,-1,0,-2c0,0,0,-1,0,-1c0,0,-1,0,-1,0l-1,0l-1,-1l0,-1l-1,0c-1,0,-1,0,-1,0c-1,0,-1,1,-1,1l-3,0l-1,-1l-1,0c-1,0,-1,0,-1,1l-1,0c0,1,0,1,0,1l-1,0c0,0,-1,0,-1,0l0,1l0,1l0,1l0,1l0,1c0,1,0,1,1,1l1,0l1,1l1,0c1,0,1,0,1,0c0,0,1,0,1,0l3,0ZM111.5,553.5l1,0l1,0c0,1,0,1,0,1l0,1l0,1c0,0,1,0,1,1l-1,0l0,-1l0,-1l0,-1l-1,0c0,0,-1,0,-1,0c0,0,0,-1,0,-1ZM105.5,550.5l1,0l0,-1l1,0l1,-1l1,0c0,1,0,1,0,1c-1,0,-1,0,-1,0c0,0,-1,0,-1,0l0,1l-1,0l-1,0ZM105.5,560.5l1,0l0,-1c0,1,0,1,1,1l0,1l1,0l1,0l-1,0c0,0,1,1,1,1c0,0,-1,0,-1,0c-1,-1,-2,-1,-2,-1l0,-1l-1,0ZM169.5,557.5l0,-1l0,-1l0,-8l1,-3l0,11l0,1c0,1,0,1,-1,1ZM162.5,556.5l1,0l1,0c0,-1,0,-1,0,-1l0,-1l0,-2l0,-6l0,-1l0,-1l1,0c0,0,0,1,0,1l1,0c0,1,0,1,-1,1c0,0,0,1,0,1c0,0,0,1,0,2c0,0,0,1,0,3l0,1l0,1c0,0,0,1,0,1c0,0,0,1,0,1c-1,0,-1,1,-1,1c0,0,-1,0,-1,0c0,0,-1,0,-1,0l-1,0l-1,0c0,0,0,-1,0,-1c-1,0,-1,0,-1,-1l0,1l-1,1c0,0,-1,0,-1,0c-1,0,-1,0,-1,-1l-1,1c0,0,-1,0,-1,0l-1,0c0,0,-1,0,-1,-1l-1,1c0,0,-1,0,-1,0l-1,0c-1,0,-1,0,-2,0l-1,0c0,0,0,-1,-1,-1l-1,0l0,1c0,0,-1,0,-1,0c0,0,-1,0,-1,0l-1,0l-1,0c0,0,-1,0,-1,0l-1,0l0,-1c0,0,-1,0,-1,0c0,0,0,-1,0,-1l0,-1c0,0,0,1,0,1l-1,0c0,1,-1,1,-1,1l-1,0l0,1l0,1l-1,1c0,0,0,1,0,1l-1,1l-1,1c-1,0,-1,0,-1,0c0,0,-1,0,-1,0l-1,0c0,0,-1,0,-1,0l-1,-1c0,0,1,0,1,0l1,0l1,0l1,0c0,-1,0,-1,0,-1c1,0,1,0,1,-1c1,0,1,0,1,-1c0,0,1,-1,1,-1l0,-1l0,-2l1,0c0,0,1,0,1,0c0,0,1,0,1,0c0,0,0,-1,0,-1c1,0,1,0,1,0c0,0,0,-1,0,-1l1,0c0,1,0,1,0,1l0,1c0,0,0,1,0,1c1,0,1,0,1,1c1,0,1,0,1,0l1,0c0,0,1,0,1,0l1,0c0,0,0,-1,0,-1l1,0l0,-1l-1,0l-1,0l0,-2c1,0,1,0,2,-1l1,0c0,0,1,0,1,0l0,1c0,0,1,0,1,0c0,1,0,1,0,1l0,1l-1,1c1,0,1,0,1,0l0,1l1,0l1,0l1,0l1,0l0,-1c0,0,1,0,1,-1c0,0,0,1,1,1c0,0,0,1,0,1c1,0,1,0,2,-1l1,-1c0,0,0,1,1,1l1,0c0,0,1,0,1,-1c1,1,2,2,2,2l1,0ZM154.5,547.5l0,1c0,0,1,1,1,1l0,-1l0,-1l1,0l0,1l1,0l0,-1l0,-1l0,1l0,1c0,1,0,1,0,1l-1,0l-1,0c0,1,0,1,0,1c-1,0,-1,0,-1,-1l0,-1l0,-1ZM158.5,545.5l-5,2c0,0,0,-1,0,-1l6,-3ZM145.5,561.5l-4,2c1,-1,1,-1,1,-1l4,-2ZM138.5,560.5l-1,-1l-1,2l-1,-1l0,-2l2,1l1,-1l1,1ZM132.5,564.5l-4,1c0,0,1,0,1,-1l3,-1ZM219.5,557.5l0,-1l0,-1l-1,-8l1,-3l1,11l0,1c0,0,-1,0,-1,0c0,1,0,1,0,1ZM218.5,538.5l4,-2l0,1c0,0,-1,0,-1,0l-4,2ZM204.5,550.5l-1,0l0,-1l-1,0c0,1,0,1,0,1l-1,0l-1,1l0,1l1,0l2,1c0,0,1,0,1,0c1,0,1,0,2,1l1,0l1,0l-1,1l-2,0l-1,0c0,0,-1,0,-1,0l-1,0c0,0,0,1,0,1c0,0,-1,0,-1,0l-2,1l-1,0l-1,0l-1,0l-1,0l-1,0l-1,0c0,0,-1,0,-1,0c0,0,0,-1,0,-1c-1,1,-1,1,-1,1c-1,0,-2,0,-2,1l-2,0c0,0,-1,0,-1,0l-1,0l-1,0l-1,0c-1,0,-2,0,-3,0c-1,0,-2,-1,-2,-1c-1,0,-1,-1,-1,-1c0,0,0,-1,0,-1l0,-1c0,0,0,-1,0,-1c0,0,0,-1,1,-1l0,1c0,0,-1,1,-1,1c0,0,1,1,1,1c0,0,1,1,1,1c0,0,1,0,1,0c1,0,1,0,1,1c1,0,2,0,3,0c1,0,2,0,2,0c1,0,1,-1,2,-1l1,0c1,0,2,-1,2,-1c1,0,2,-1,2,-1l0,1l0,1c0,0,1,0,1,0l1,0l1,0l1,0l1,0l0,-1c1,0,1,0,1,0l1,0l1,0l1,-1l-1,0l-1,0l-1,-1l-1,0l-1,0l-1,1c0,-1,1,-1,1,-2l1,0l1,-1l1,0c0,0,0,-1,0,-1c0,0,1,0,1,0l0,-1l1,0l0,-1c0,-1,1,-1,1,-1l1,0c0,1,0,1,0,1l1,1l0,-1l1,0l3,-2c1,-1,1,-1,1,-1c1,0,1,0,1,0c1,0,1,0,1,0c1,0,1,0,1,0c0,0,1,0,1,0l0,1l1,0c0,0,0,1,0,1c0,1,0,1,0,1c-1,0,-1,0,-1,1c0,0,-1,0,-2,1c0,0,-1,0,-3,0c-1,0,-2,0,-3,0l-1,0c0,0,-1,0,-1,0ZM210.5,547.5l-1,0l-1,1l-1,0l-1,1l2,0c1,0,2,0,3,0c1,0,1,-1,1,-1c1,0,1,0,2,0c0,-1,0,-1,0,-1c-1,0,-1,0,-1,0c-1,-1,-1,-1,-1,-1c-1,0,-1,0,-1,0c0,0,-1,1,-1,1ZM133.5,542.5c0,0,1,0,1,0c1,0,1,0,1,0c1,0,1,0,2,0l0,1c0,0,0,1,0,1c0,0,-1,0,-1,0c0,0,0,1,0,1l-1,0l-1,0l-1,0l2,-1c1,0,1,0,2,-1c-1,0,-1,0,-1,0c0,0,-1,0,-1,0c0,0,-1,0,-1,0c0,0,-1,0,-1,0l0,-1ZM204.5,537.5c0,0,0,-1,1,-1l1,0c0,0,1,0,1,0c1,1,1,1,1,1c0,1,-1,1,-1,1c0,0,0,1,0,1c-1,0,-1,0,-1,0c-1,0,-1,0,-1,0l-1,0l1,0c1,-1,2,-1,2,-1l-1,-1l-1,0l-1,1l-1,0c0,-1,0,-1,0,-1c0,0,1,0,1,0ZM185.5,562.5l-2,-1l1,-1l2,1ZM185.5,563.5l-4,2c0,-1,1,-1,1,-1l4,-2ZM244.5,557.5l-1,0c0,0,-1,0,-1,-1l-1,0c0,1,-1,1,-1,1l-1,0l-1,0l-1,0c0,1,0,1,0,1c0,0,0,1,0,1c0,1,0,2,-1,2c0,1,0,1,-1,2c0,0,-1,1,-2,1c-1,0,-1,0,-2,0c-1,0,-1,0,-2,0c0,0,-1,0,-1,-1c-1,0,-1,0,-1,-1c-1,0,-1,-1,-1,-2c0,0,0,-1,0,-1l1,0l0,-1l0,-1c0,0,1,0,1,0l0,1c0,0,-1,0,-1,0c0,1,0,1,0,1l0,1c0,0,0,1,0,1c1,0,1,0,1,1c0,0,1,0,1,0c1,0,1,0,2,0c1,0,2,0,3,0c0,0,1,-1,2,-1c0,-1,0,-1,0,-1l0,-1c0,-1,0,-1,0,-1c0,0,0,-1,-1,-1l0,-1l1,-1c0,1,1,1,1,1l1,0l1,0c1,0,1,0,1,0l1,-1l0,-1c1,0,1,-1,1,-1l1,-1c1,0,1,0,1,1c0,0,1,0,1,1l0,1c0,1,0,1,0,1c0,0,-1,1,-1,1ZM242.5,555.5l1,0l1,0c0,-1,0,-1,0,-1c-1,0,-1,0,-1,0c0,0,-1,0,-1,0c0,0,0,1,0,1ZM243.5,561.5l-4,2c0,-1,0,-1,1,-1l4,-2ZM232.5,555.5l-2,-1l1,-1l2,1ZM231.5,542.5c0,0,1,0,1,0c0,0,1,0,1,0c1,0,1,0,2,0c0,0,0,1,0,1l0,1c-1,0,-1,0,-1,0c0,0,-1,0,-1,0c0,0,0,1,-1,1c0,0,-1,-1,-1,-1l2,0c1,0,1,-1,1,-1c-1,0,-1,0,-1,0c-1,0,-1,0,-1,0c-1,0,-1,0,-1,0c0,-1,0,-1,0,-1ZM298.5,556.5l1,0l1,0c0,-1,0,-1,0,-1l0,-1l0,-2l0,-6l0,-1l0,-1l1,0c0,0,0,1,0,1l1,0c0,1,0,1,-1,1c0,0,0,1,0,1c0,0,0,1,0,2c0,0,0,1,0,3l0,1l0,1c0,0,0,1,0,1c0,0,0,1,0,1c-1,0,-1,1,-1,1c0,0,-1,0,-1,0c0,0,-1,0,-1,0l-1,0c0,0,-1,0,-1,0l-1,0l0,-1c0,0,-1,0,-1,0l0,1c-1,0,-1,0,-2,0l-1,0c-1,0,-1,0,-2,0l-1,-1l-2,-2c0,0,-1,-1,-1,-1l-1,0l1,0l0,1c0,1,-1,1,-1,1c0,1,0,1,0,2c-1,0,-1,0,-1,0l-1,0c0,0,-1,0,-1,0l-1,0l-1,0c0,1,0,1,0,2c-1,0,-1,0,-1,1c0,0,0,1,-1,1l-1,1c0,0,-1,1,-1,1l-1,0l-1,0c0,0,-1,0,-2,-1l1,0c1,0,1,0,2,0c0,0,0,-1,1,-1l1,-1c1,-1,1,-1,1,-1c0,0,0,-1,1,-1l0,-1c0,0,-1,0,-1,0c0,0,-1,0,-1,0c-1,0,-1,0,-1,-1c0,0,0,-1,0,-1c0,0,0,-1,0,-1l1,0c0,0,0,-1,0,-1l1,0l1,0c0,1,0,1,0,1c1,0,1,0,1,1l0,1c0,0,1,0,1,0l1,0c1,0,1,0,1,0c0,0,1,0,1,-1c0,0,1,0,1,0c0,0,0,-1,0,-1c0,0,0,-1,0,-1c0,0,-1,0,-1,0c0,-1,0,-1,0,-1c-1,0,-1,-1,-1,-1c-1,0,-1,0,-1,0c0,0,-1,0,-1,0c0,-1,0,-1,-1,-1c0,-1,0,-1,0,-1l0,-1c0,-1,0,-1,1,-1c1,-1,2,-1,3,-2c1,0,3,-1,4,-1c2,-1,3,-1,3,-1c1,0,1,0,1,0l0,-1l-1,2c-1,0,-2,1,-3,1c-2,1,-3,1,-4,2c-2,0,-2,1,-3,1l1,1c0,0,1,0,1,0c0,1,0,1,0,1l1,0c1,1,2,1,2,1c1,1,1,1,2,2c0,0,1,1,1,1l2,2l1,0c1,0,1,0,1,0c1,0,1,-1,2,-1c0,0,1,0,1,0c0,0,1,0,1,1c0,0,1,0,1,0l1,0ZM303.5,561.5l-5,2c1,-1,1,-1,1,-1l4,-2ZM296.5,561.5l-2,-1l-1,1l-1,-1l1,-1l1,1l1,-2l1,1ZM292.5,548.5l4,-2c0,0,0,1,0,1l-4,2ZM283.5,538.5c1,0,1,0,1,-1c0,0,1,0,1,0c1,0,1,1,1,1l0,1l-1,0c0,0,0,1,0,1l1,0l0,1l-1,0l-1,0l0,1c-1,0,-1,0,-1,0l-1,0l0,1l-1,0l1,-1l1,0c0,0,0,-1,0,-1l1,-1c-1,0,-1,-1,-1,-1l0,-1ZM285.5,538.5l-1,0c0,0,0,1,0,1l1,0ZM277.5,554.5c0,0,-1,0,-1,1c0,0,0,1,1,1l1,0c0,0,0,-1,0,-1c0,0,-1,0,-1,0c0,-1,0,-1,0,-1ZM267.5,551.5l-1,-1l1,-2l1,1ZM267.5,557.5l-1,0l-1,0c0,1,0,1,0,2c-1,0,-1,0,-1,1c0,0,0,1,-1,1l-1,1c-1,0,-1,1,-1,1l-1,0l-1,0c0,0,-1,0,-2,-1l1,0c1,0,1,0,2,0c0,0,0,-1,1,-1l1,-1c1,-1,1,-1,1,-1c0,0,0,-1,0,-1c1,0,1,0,1,0l0,-1c0,0,-1,0,-1,0c-1,0,-1,0,-1,0c-1,0,-1,0,-1,-1c0,0,0,-1,0,-1c0,0,0,-1,0,-1c1,0,1,-1,1,-1c1,0,1,0,1,0l1,0c0,1,0,1,0,1c0,0,1,0,1,1l0,1c0,0,1,0,1,0l1,0c0,0,1,0,1,0c1,-1,1,-1,2,-1l0,-1l-1,0c0,-1,0,-1,0,-1l1,-2l0,1c0,1,0,1,0,1l0,1c0,0,0,1,0,1c0,0,0,1,0,1c-1,1,-1,1,-2,1c0,0,-1,0,-1,0ZM267.5,542.5c0,-1,1,-1,1,-1c0,-1,0,-1,1,-1c0,1,1,1,1,1c0,1,-1,1,-1,1l0,1l1,1l0,1l-2,-1l0,1c-1,0,-1,1,-1,1l-1,0l-1,0l1,-1c1,0,1,0,1,0l0,-1l1,0l-1,-1l0,-1ZM268.5,542.5l0,1l1,0l0,-1ZM263.5,554.5c-1,0,-1,0,-1,1c0,0,0,1,0,1c1,0,1,0,1,0l1,0c0,0,0,-1,0,-1c-1,0,-1,0,-1,0c0,-1,0,-1,0,-1ZM255.5,557.5l0,-1l0,-1l0,-8l0,-3l1,11l0,1c0,1,-1,1,-1,1ZM343.5,554.5l-1,0l-1,0c-1,0,-1,0,-2,1l-1,0l-1,0l-1,1c-1,0,-1,0,-1,0c-1,0,-1,0,-2,1c0,0,-1,0,-2,0l-1,0c0,1,0,1,-1,1c0,1,0,2,0,2c0,0,-1,1,-1,1l-1,1l-1,0c0,0,0,1,0,1c-1,0,-1,0,-2,0c0,0,-1,0,-2,-1l1,0c1,0,1,0,2,0c0,-1,0,-1,1,-1l1,-1c1,-1,1,-1,1,-1c0,-1,0,-1,1,-2l0,-1c-1,0,-1,0,-1,0l0,-1c0,0,0,-1,0,-1l1,0c0,0,0,1,0,1c0,0,1,0,1,0l1,0c0,0,1,0,1,0c0,0,1,0,2,0l1,0l1,-1l1,0l-1,-1l-1,0l-1,0l-1,0l-1,0c0,-1,0,-1,0,-1c1,-1,1,-1,1,-1c0,0,1,0,1,0l1,0l1,0l2,1l1,0c0,1,0,1,1,1l1,0c0,0,1,0,1,0l1,0ZM335.5,560.5l-4,2c0,0,1,-1,1,-1l4,-2ZM328.5,552.5l-1,-1l1,-1l1,1ZM324.5,543.5c0,-1,1,-1,1,-1c0,0,1,0,1,0c1,0,1,0,2,0c0,0,0,1,0,1c0,1,0,1,0,1c-1,0,-1,1,-1,1c0,0,-1,0,-1,0l-1,0l-1,0l2,-1c1,0,1,0,2,0c-1,-1,-1,-1,-1,-1c-1,0,-1,0,-1,0c-1,0,-1,0,-1,0c-1,1,-1,1,-1,1c0,-1,0,-1,0,-1ZM321.5,561.5l-1,-1l1,-2l1,1ZM319.5,557.5l-1,0c-1,0,-1,0,-2,0l-1,-1l0,-1c0,0,0,-1,0,-1l-1,1l-1,0l-1,0c0,0,-1,0,-1,0l-1,0l0,-1c0,-1,1,-1,1,-2c1,0,1,0,2,-1c1,0,1,0,1,0l0,-1l0,-1l1,0l0,1l0,1c0,0,0,1,0,1l1,2c0,0,0,1,0,1l1,0l1,0l1,0c0,0,1,0,1,0c1,0,1,0,1,0l0,-1l0,-1l0,-1l0,-1c0,0,1,0,1,0l0,1l0,1l0,1c0,1,0,1,0,1c0,1,0,1,0,1c-1,0,-1,1,-2,1c0,0,-1,0,-1,0ZM319.5,544.5l4,-2l0,1l-1,0l-4,2ZM314.5,552.5l-1,0l0,1c-1,0,-1,0,-1,1l1,0l1,0c0,-1,0,-1,0,-1l1,0ZM312.5,548.5l-1,-1l0,-1c0,-1,0,-1,0,-2c0,0,0,-1,0,-1l1,-1c1,0,1,0,1,0l0,1l-1,0l0,1l0,1l-1,0c0,1,0,1,1,1l1,0c0,1,0,1,1,1c0,0,0,1,-1,1c-1,0,-1,0,-1,0ZM102.5,514.5l-1,-1l-1,1l-1,0l1,-2l1,1l1,-1l1,1ZM99.5,511.5l-1,0l-1,0l-1,0c0,0,-1,0,-1,-1c0,-1,0,-1,0,-1l-1,0c0,1,0,1,0,1l-1,0c0,0,-1,1,-1,1c0,0,-1,0,-2,0l-1,0l-1,-1l0,-1c0,-1,0,-1,0,-1l1,0l0,1l1,0l1,0c1,0,1,0,1,0l1,0c0,0,1,-1,1,-1c0,0,0,-1,0,-2l0,-1l0,-1l0,-1l0,-1l1,1c0,0,0,1,0,2l0,2c0,1,0,1,1,1c0,1,0,1,0,1l1,0l1,0l1,0c1,0,1,0,2,0c0,0,1,0,1,0c0,0,0,-1,0,-1l0,-1l-1,-1l1,-1l1,1c0,0,0,1,0,1c0,1,0,1,0,1c0,0,0,1,0,1c-1,1,-1,1,-1,1c0,0,-1,1,-1,1c-1,0,-1,0,-2,0ZM99.5,498.5l5,-2l-1,1l-4,2ZM70.5,496.5c0,0,0,-1,1,-1c0,0,1,0,1,0c0,0,1,0,1,0c1,0,1,1,1,1c0,1,0,1,-1,1c0,0,0,1,0,1c0,0,-1,0,-1,0c-1,0,-1,0,-1,0l-1,0l2,0c0,-1,1,-1,1,-1c0,0,0,-1,-1,-1c-1,0,-1,0,-2,1l-1,0c0,-1,0,-1,1,-1ZM90.5,496.5c1,0,1,-1,1,-1c1,0,1,0,2,0c0,0,1,0,1,0c1,0,1,1,1,1c-1,1,-1,1,-1,1c0,0,0,1,-1,1c-1,0,-1,0,-1,0l-1,0l1,0c1,-1,2,-1,2,-1c0,0,-1,-1,-1,-1l-1,0c0,0,-1,0,-1,1l-1,0c0,-1,0,-1,0,-1ZM84.5,508.5c0,0,-1,0,-2,1c-1,1,-2,1,-3,1c-1,1,-2,1,-3,1l-1,0l-1,0c0,0,0,1,0,1c-1,0,-1,1,-1,1c0,1,0,1,-1,1c0,1,0,1,-1,1c0,1,0,1,0,1c-1,0,-1,0,-1,0l-1,0l-1,0c0,0,-1,0,-2,0c0,-1,0,-1,0,-1l1,0c0,0,0,1,0,1c1,0,1,-1,2,-1l1,0c0,-1,0,-1,1,-1l0,-1c1,0,1,0,1,-1c1,0,1,-1,1,-1c0,0,-1,0,-1,0c-1,0,-1,0,-1,0c-1,-1,-1,-1,-1,-1c0,-1,0,-1,0,-1c0,-1,0,-1,0,-1c0,0,0,-1,0,-1c1,0,1,0,1,0c0,-1,0,-1,0,-1c1,0,1,0,1,0l1,0c0,0,0,1,0,1l0,1c1,0,1,0,1,0c0,1,0,1,0,1c0,0,1,0,1,0l1,0c1,0,2,0,2,0c0,-1,-1,-1,-1,-1c0,-1,0,-1,0,-2c0,-1,0,-1,0,-1l1,0l0,-1c0,0,1,-1,1,-1l1,0l1,0l1,0c1,0,1,0,1,1l1,0l-1,0l-1,0l-1,0l-1,0l-1,0l0,1c0,0,-1,0,-1,0c0,0,0,1,0,1c0,0,1,0,1,1c0,0,1,1,2,1l1,0c0,-1,1,-1,1,-1l1,0l1,-1ZM78.5,495.5c1,0,1,0,1,-1c0,0,1,0,1,0c0,0,1,1,1,1l0,1l-1,0c0,0,0,1,0,1l1,0l0,1l-1,0l-1,0l0,1c-1,0,-1,0,-1,0l-1,0l0,1l-1,0l0,-1l1,0l1,0c0,-1,0,-1,0,-1l1,-1l-1,0c0,0,0,-1,0,-1l0,-1ZM80.5,495.5l-1,0c0,0,0,1,0,1l1,0ZM72.5,508.5c0,0,-1,0,-1,0c0,0,0,1,0,1c1,0,1,0,1,0l1,0c-1,0,-1,-1,-1,-1ZM64.5,511.5l0,-1l0,-1l0,-9l0,-2l1,11c0,0,0,1,0,1c0,0,-1,1,-1,1ZM135.5,511.5l0,-1l0,-1l0,-9l1,-2l0,11c0,0,0,1,0,1c0,0,-1,1,-1,1ZM138.5,514.5l-4,2c0,0,0,-1,0,-1l4,-2ZM129.5,504.5l-2,-1l1,-1l2,1ZM128.5,511.5l-1,0l-1,0c0,0,-1,0,-2,-1c0,1,0,1,-1,1c0,0,-1,0,-1,0l-1,0l-2,-1l-1,1l-1,0l-1,0l-2,0c0,0,-1,0,-1,-1c-1,0,-1,-1,-1,-2l-1,-8l1,-2l1,10l0,1c0,0,1,0,1,0l2,0l1,0c1,0,1,0,1,0l1,0c0,0,0,-1,0,-1c1,-2,2,-2,3,-2l1,1l0,1l1,0l1,1l1,0l1,0l1,0c1,0,1,0,2,0c0,0,1,0,1,0c0,0,0,-1,0,-1l0,-1c-1,0,-1,0,-1,-1l1,-1l0,1c0,0,0,1,1,1c0,1,0,1,0,1c0,0,0,1,-1,1c0,1,0,1,0,1c0,0,-1,1,-1,1c-1,0,-1,0,-2,0ZM127.5,494.5c0,1,0,1,0,1l0,-1c1,0,1,0,1,0l0,-1l0,1l1,0l0,-1l1,-1l0,1l0,1c0,1,-1,1,-1,1c-1,0,-1,0,-1,0c-1,1,-1,1,-1,1c0,0,-1,0,-1,0c0,-1,0,-1,0,-1l0,-1ZM131.5,491.5l-6,3c0,-1,1,-2,1,-2l5,-3ZM123.5,509.5l0,-1c-1,0,-1,0,-1,-1l-1,1l-1,0c0,0,1,1,2,1ZM119.5,498.5l4,-2l0,1l-4,2ZM150.5,493.5c-1,0,-1,0,-1,0l-1,0l-1,0l-1,0c-1,0,-1,0,-1,0c0,0,-1,-1,-1,-1l0,-1c0,0,0,-1,0,-1c1,-1,1,-1,2,-2l-1,0c0,0,-1,0,-1,0l0,1l0,-1l1,0l1,0l1,0l1,0l-1,0c0,0,-1,0,-1,1c0,0,-1,0,-1,0c0,1,0,1,0,1c-1,1,-1,1,-1,1l1,1c0,0,1,1,1,1l1,0l1,0ZM147.5,490.5l0,1c-1,0,-1,0,-1,0l0,-1c1,0,1,0,1,0ZM183.5,508.5c0,0,-1,0,-2,1c-1,1,-2,1,-4,1c-1,1,-2,1,-3,1l-2,0l-1,0l0,-1l-1,0c0,-1,0,-1,0,-1c0,1,-1,1,-1,1c-1,0,-1,1,-2,1l-1,0l-1,0c-1,0,-1,0,-1,-1c0,0,-1,0,-1,0l0,-1c0,-1,1,-1,1,-1l0,1l1,0l1,0l1,0l1,0l1,0c0,0,0,-1,0,-1l1,0c0,0,0,-1,0,-2l-1,-1l0,-1l0,-1l1,-1l0,1c0,0,0,1,0,2l1,2c0,1,0,1,0,1c0,1,0,1,0,1c0,0,1,0,1,0l2,0l1,0c1,0,1,0,2,0c-1,-1,-1,-1,-1,-1c0,-1,0,-1,0,-2c0,-1,0,-1,0,-1l0,-1c1,0,1,0,1,0c0,0,0,-1,0,-1c1,0,1,0,1,0c1,0,1,0,1,0c0,0,1,0,1,0l1,0l1,1l-1,0l-1,0l-1,0c-1,0,-1,0,-1,0l0,1c-1,0,-1,0,-1,0c0,0,0,1,0,1l1,1c0,0,1,1,1,1c1,0,1,0,1,0l1,0c0,-1,0,-1,0,-1l1,0l1,0l1,-1ZM175.5,498.5l4,-2l0,1l-4,2ZM167.5,495.5l1,-1c1,0,1,0,1,0c0,0,0,1,0,1l0,1c0,0,0,1,0,1l0,1l-1,0l-1,1l-1,0l0,1l-1,0l0,-1l1,0c0,-1,0,-1,1,-1l0,-1c0,0,0,-1,0,-1l0,-1ZM168.5,495.5c0,0,-1,0,-1,0c0,0,0,1,1,1ZM158.5,507.5l0,1l1,0c0,-1,0,-1,0,-1l-1,0ZM159.5,515.5c-1,0,-1,0,-1,0c0,0,-1,0,-1,0c0,1,-1,1,-1,1l-1,0c0,0,-1,0,-1,-1c-1,0,-1,0,-1,0l1,0c1,0,1,0,1,0c0,0,1,0,1,0l0,-1c0,0,1,0,1,0c0,0,1,0,1,-1c0,0,1,0,1,-1l0,-1c1,0,1,-1,1,-1l0,-1c0,0,0,1,0,1l-1,0l-1,0c-1,0,-1,0,-1,0c0,-1,0,-1,0,-1c0,-1,0,-1,0,-1c0,0,0,-1,0,-1c0,0,0,-1,1,-1c0,0,0,-1,0,-1c0,0,1,0,1,0l1,0c0,0,0,1,0,1c0,0,0,1,1,1c0,0,0,1,0,1c0,0,0,1,0,1c0,0,0,1,0,1c0,1,-1,2,-1,3c0,0,0,1,-1,1l0,1ZM156.5,497.5c1,1,1,1,1,1l0,-1l1,0l0,-1l0,1c0,0,1,0,1,0l0,-1l0,-1l1,0l0,1l0,1l-1,0c0,1,0,1,0,1l-1,0c-1,1,-1,1,-1,1c-1,0,-1,0,-1,0c0,-1,0,-1,0,-1l0,-1ZM160.5,494.5l-5,2l0,-1l6,-2c-1,0,-1,1,-1,1ZM155.5,494.5l0,-1l6,-2c-1,0,-1,1,-1,1ZM152.5,511.5l0,-1l0,-1l-1,-9l1,-2l1,11c0,0,0,1,-1,1c0,0,0,1,0,1ZM239.5,501.5l-1,-1l1,-1l1,1ZM242.5,509.5l-1,0c0,1,0,1,0,1c-1,0,-1,1,-2,1c-1,0,-1,0,-2,0l-1,0l-1,0c-1,0,-1,0,-2,-1c0,0,0,-1,0,-2l-1,-8l1,-2l0,10l1,0l0,1c0,0,1,0,1,0l1,0l1,0c1,0,1,0,2,0c1,0,1,0,2,-1c0,-1,0,-1,0,-1l-1,0l0,1c0,0,-1,0,-1,0l-1,0c0,-1,0,-1,0,-1c0,0,0,-1,0,-1c0,0,0,-1,0,-1l0,-1c0,0,0,-1,0,-1c1,0,1,-1,2,-1c0,0,0,1,1,1l0,1l0,1l1,0l0,1c0,1,0,1,0,1c0,1,0,1,0,2ZM238.5,505.5l1,0l0,1l1,0c0,0,0,-1,0,-1c0,0,0,-1,-1,-1l0,1ZM238.5,495.5l4,-2l-1,0c0,1,0,1,0,1l-4,2ZM226.5,498.5l-1,-1l-1,1l-1,-1l0,-2l2,1l1,-1l1,1ZM225.5,502.5l0,-1l1,0c0,1,0,1,0,1c0,0,0,1,0,1l1,0l0,-1l0,-1c0,0,-1,-1,-1,-1c0,-1,-1,0,-1,0l0,1c-1,0,-1,0,-1,0c0,0,0,1,0,1l-1,0c0,1,0,1,0,1c0,0,-1,0,-1,1l-1,0l0,1c-1,0,-1,0,-1,0c-1,0,-1,1,-1,1c0,0,-1,1,-1,1l1,0l1,0l1,0l1,0l1,1l1,0l-1,0l-1,1l-1,0c0,0,-1,0,-1,0l-1,0l-1,0l-1,0l-1,0l-1,0c-1,0,-1,0,-1,0l0,-1l0,-1l-1,-2c0,-1,0,-2,0,-2l0,-1l-1,1l0,1l0,1l0,1c0,1,1,2,1,2l-1,0c0,0,0,1,-1,1c0,0,-1,0,-1,0l-1,0l-1,0l-1,0l0,-1l-1,0l0,1l0,1l1,0c0,1,0,1,0,1c1,0,1,0,1,0l1,0c0,0,1,0,1,0c1,0,1,-1,2,-1l0,-1l1,0l0,1c1,1,1,1,1,1l1,0l1,0l1,0l1,0l1,0l1,0c0,-1,1,-1,1,-1l2,-1l1,0l1,0c0,0,1,0,1,0l1,0l2,0l1,-2l-1,0c-1,0,-1,0,-2,0l-1,0c0,0,-1,0,-2,-1l-1,-1l-1,0l1,-1c1,-1,1,-1,1,-1l1,-1ZM223.5,489.5l0,1l1,0l1,0l0,-1c0,1,0,1,0,1c0,0,1,0,1,0l0,-1l0,-1l1,0l0,1l0,1c-1,1,-1,1,-1,1l-1,0c-1,0,-1,1,-1,1c0,0,-1,0,-1,-1l0,-1l0,-1ZM228.5,487.5l-6,2c0,0,1,-1,1,-1l5,-3ZM218.5,502.5l-2,0l1,-2l2,1ZM222.5,514.5l-5,2c1,0,1,-1,1,-1l4,-2ZM211.5,499.5l-1,0l0,-2l2,1ZM208.5,492.5c0,-1,0,-1,1,-1c1,0,1,0,1,0l0,1l0,1l0,1l0,1l-1,-1l0,1l-1,0c0,1,0,1,-1,1l-1,0l1,-1l1,0l0,-1c0,-1,0,-1,0,-1l0,-1ZM209.5,492.5c0,0,-1,0,-1,0l1,0l0,1l0,-1ZM202.5,507.5c-1,0,-1,0,-1,0l0,1l1,0c0,-1,0,-1,0,-1ZM202.5,515.5c-1,0,-1,0,-1,0l-1,0c0,1,-1,1,-1,1l-1,0c0,0,-1,0,-1,-1c-1,0,-1,0,-1,0l1,0c1,0,1,0,1,0c0,0,1,0,1,0l0,-1c1,0,1,0,1,0c0,0,1,0,1,-1c0,0,1,0,1,-1l1,-1c0,0,0,-1,0,-1l0,-1c0,0,0,1,0,1c-1,0,-1,0,-1,0l-1,0c-1,0,-1,0,-1,0c0,-1,0,-1,0,-1c0,-1,0,-1,0,-1c0,0,0,-1,0,-1c0,0,0,-1,1,-1c0,0,0,-1,0,-1c0,0,1,0,1,0l1,0c0,0,0,1,0,1c0,0,0,1,1,1c0,0,0,1,0,1c0,0,0,1,0,1c0,0,0,1,0,1c0,1,-1,2,-1,3c0,0,0,1,-1,1l0,1ZM194.5,511.5c-1,0,-1,0,-2,0c0,-1,0,-1,0,-2c0,0,0,-1,0,-1l0,-1l0,-1l1,-1c0,-1,1,-1,1,-1c0,0,1,0,1,1c1,0,1,1,1,1l1,1c0,0,0,1,0,1c0,1,-1,2,-2,3c0,0,-1,0,-1,0ZM194.5,507.5l-1,0c0,0,-1,0,-1,1c0,0,0,1,1,1l1,0l1,0c0,0,1,0,1,-1l-1,-1c0,0,-1,0,-1,0ZM192.5,495.5c1,0,1,0,1,-1c0,0,1,0,1,0c0,0,1,1,1,1l0,1l-1,0c0,0,0,1,0,1l1,0l0,1l-1,0l-1,0l0,1c-1,0,-1,0,-1,0l-1,0l0,1l-1,0l0,-1l1,0l1,0c0,-1,0,-1,0,-1l1,-1l-1,0c0,0,0,-1,0,-1l0,-1ZM194.5,495.5l-1,0c0,0,0,1,0,1l1,0ZM278.5,508.5c-1,0,-2,0,-3,1c-1,1,-2,1,-3,1c-1,1,-2,1,-3,1l-1,0l-2,0c0,0,-1,0,-1,-1c-1,-1,-1,-1,-1,-1c0,1,0,1,0,1l-1,0c0,0,-1,1,-1,1c-1,0,-1,0,-2,0l-1,0c0,0,-1,0,-1,-1l0,-1c0,-1,0,-1,0,-1c1,0,1,0,1,0l0,1l1,0l1,0l1,0l1,0c0,0,0,-1,0,-1c1,0,1,0,1,0c0,0,0,-1,0,-2l0,-1l-1,-1l1,-1l0,-1l1,1c0,0,0,1,0,2l0,2c0,1,0,1,0,1c0,1,1,1,1,1l1,0l1,0l1,0l1,0c0,0,1,0,1,0c0,-1,-1,-1,-1,-1c0,-1,0,-1,0,-2c0,-1,0,-1,0,-1c1,0,1,0,1,0l0,-1c0,0,1,-1,1,-1l1,0l1,0l1,0c1,0,1,0,1,1l1,0l-1,0l-1,0l-1,0l-1,0l-1,0l0,1c0,0,-1,0,-1,0c0,0,0,1,0,1c1,0,1,0,1,1c1,0,1,1,2,1l1,0c0,-1,1,-1,1,-1l1,0l1,-1ZM269.5,498.5l5,-2l-1,1l-4,2ZM261.5,495.5c0,0,1,0,1,-1l1,0c0,0,1,1,1,1l-1,1c0,0,0,1,0,1l1,0l0,1l-2,0l0,1c-1,0,-1,0,-1,0l-1,0l0,1l-1,0l0,-1l1,0l1,0c0,-1,0,-1,0,-1l1,-1l-1,0c0,0,0,-1,0,-1l0,-1ZM262.5,495.5c0,0,0,1,0,1l1,0ZM253.5,507.5l-1,0l0,1c0,0,1,0,1,0c0,0,1,0,1,0c-1,-1,-1,-1,-1,-1ZM253.5,515.5l-1,0c-1,1,-1,1,-2,1c-1,0,-1,0,-2,-1c0,0,-1,0,-1,0c0,0,1,0,1,0l1,0l1,0l1,-1c1,0,1,0,1,-1c1,0,1,0,1,-1c0,0,1,0,1,-1c0,0,0,-1,0,-1l0,-1c0,0,0,1,0,1c0,0,-1,0,-1,0l-1,0c-1,-1,-1,-1,-1,-1c0,-1,0,-1,0,-1c0,0,0,-1,0,-1c0,0,1,-1,1,-1c0,0,0,-1,1,-1c1,0,1,0,1,0c0,0,0,1,1,1c0,0,0,1,0,1c0,0,0,1,0,1c0,0,0,1,0,1c0,0,0,1,0,1c0,1,0,2,-1,3c0,0,0,1,0,1c-1,0,-1,0,-1,1ZM303.5,509.5c1,0,1,0,1,0c1,0,1,0,1,0c1,0,1,0,1,0c0,0,0,-1,0,-1l0,-2l0,-6c0,0,-1,-1,-1,-1c0,0,0,-1,1,-1c0,0,0,-1,0,-1l0,1c1,0,1,1,1,1l0,1l0,1l0,-1c0,0,0,1,0,1c0,0,0,1,0,2l0,2c0,1,0,1,0,1l0,2c0,0,0,1,0,1c0,1,-1,1,-1,1c0,0,0,1,-1,1c-1,0,-1,0,-1,0l-1,0c-1,0,-1,0,-1,-1c-1,0,-1,0,-1,0l-3,-2c0,-1,0,-1,-1,-1l0,-1c0,1,0,1,0,1l0,1c0,1,0,1,-1,1c0,0,0,1,0,1c0,0,-1,0,-1,1l-1,0l0,1l0,1l0,1l-1,0c0,0,-1,0,-1,0c-1,0,-2,-1,-2,-1l0,1c-1,1,-1,1,-2,2c0,0,-1,0,-2,0c-1,0,-2,1,-4,1l5,-2l1,-1c1,0,1,-1,2,-1l0,-2c1,0,1,0,1,-1c0,0,1,0,1,-1l1,0c1,0,1,0,1,0c0,0,1,0,1,0c1,0,1,0,1,-1c0,-1,0,-1,0,-1c0,-1,0,-1,0,-1c-1,0,-1,0,-1,-1c0,0,-1,0,-1,0c-1,-1,-1,-1,-1,-1c-1,0,-1,0,-1,0c-1,-1,-1,-1,-1,-1c0,-1,0,-1,0,-1c0,-1,0,-1,0,-1c0,0,1,0,1,0l0,-1c1,0,2,-1,3,-1c2,-1,3,-1,5,-2c1,0,2,-1,2,-1l1,0l-1,2c-1,0,-2,0,-3,1c-1,0,-3,1,-4,1c-1,1,-2,1,-3,1c0,1,0,1,0,1l1,1c0,0,1,0,1,0l1,0l0,1c1,0,2,1,2,1c1,0,1,1,2,1c0,1,1,1,2,2l1,1l1,0ZM304.5,495.5l5,-2l-1,0c0,1,0,1,0,1l-4,2ZM296.5,492.5c0,-1,0,-1,0,-1c0,0,1,0,1,0c1,0,1,0,1,1l0,1c0,0,-1,0,-1,0l1,1l0,1l-1,-1l-1,1c-1,1,-1,1,-1,1l-1,0c-1,0,-1,0,-1,0l1,0l1,-1l1,-1c-1,-1,-1,-1,-1,-1l0,-1l1,0ZM297.5,492.5l-1,0l0,1l1,0l0,-1ZM293.5,512.5l0,-1c-1,0,-1,0,-1,0l-1,0l0,1l1,0l1,0ZM200.5,496.5l1,0l1,0c0,0,1,0,1,0c1,0,1,0,1,1l-1,1c0,0,-1,0,-1,0c0,1,0,1,0,1c-1,0,-1,0,-1,0l-1,0l2,-1c0,0,1,0,1,-1l-1,0c-1,0,-1,0,-2,0l-1,0l1,0c0,0,0,-1,0,-1ZM258.5,544.5c1,0,1,0,1,-1c1,0,1,0,2,0c0,0,1,0,1,0c0,1,1,1,1,1c-1,1,-1,1,-1,1c0,1,0,1,-1,1c-1,0,-1,0,-1,0l-1,0l1,0c1,-1,1,-1,2,-1c0,0,-1,0,-1,0c0,-1,0,-1,-1,-1c0,0,-1,1,-1,1l-1,0c0,0,0,-1,0,-1ZM273.5,544.5c0,0,1,0,1,0c1,0,1,0,1,0c1,0,2,0,2,0c0,1,0,1,0,1l0,1c0,0,-1,0,-1,0l-1,0c0,1,0,1,-1,1l-1,-1l2,0c1,0,1,-1,2,-1c-1,0,-1,0,-1,0c0,0,-1,0,-1,0c0,0,-1,0,-1,0c0,0,-1,0,-1,0c0,-1,0,-1,0,-1ZM286.5,500.5l1,0c0,0,1,0,1,0c1,0,1,0,2,0c0,0,0,1,0,1l0,1c-1,0,-1,0,-1,0c-1,0,-1,0,-1,0c0,1,-1,1,-1,1c0,0,-1,0,-1,-1l2,0c0,0,1,-1,1,-1c-1,0,-1,0,-1,0c-1,0,-1,0,-2,0c0,-1,0,-1,0,-1ZM366.5,511.5l0,-1l0,-1l-1,-9l1,-2l1,11c0,0,0,1,0,1c-1,0,-1,1,-1,1ZM358.5,509.5c1,0,1,0,1,0c1,0,1,0,1,0c0,0,1,0,1,0c0,0,0,-1,0,-1l0,-2l-1,-6c0,0,0,-1,0,-1c0,0,0,-1,0,-1c1,0,1,-1,1,-1l0,1c0,0,1,1,1,1l0,1l0,1l-1,-1c0,0,0,1,0,1c0,0,0,1,1,2l0,2c0,1,0,1,0,1l0,2c0,0,0,1,0,1l-1,0c0,1,0,1,0,1c0,0,-1,1,-1,1l-1,0l-1,0l-1,0l0,-1l-1,0c0,-1,0,-1,0,-1c-1,1,-1,1,-1,1c-1,0,-1,1,-1,1c-1,0,-2,-1,-2,-2l0,1c-1,1,-1,1,-2,1c-1,0,-1,-1,-2,-2c0,1,0,1,0,1c-1,1,-1,1,-2,1l-1,0c-1,0,-1,0,-1,0c0,0,-1,0,-1,0c0,0,0,-1,0,-1c0,0,-1,0,-1,0c-1,0,-1,0,-1,0c0,1,-1,1,-1,1l-1,0l-10,0l-1,1c0,0,0,1,0,1l0,-1l0,-1l-1,0l-2,0l0,1c0,1,0,1,0,1c0,1,0,1,-1,2c0,0,0,1,-1,1c0,1,-1,1,-2,1c-1,1,-1,1,-2,1c-1,0,-1,0,-2,0c-1,-1,-1,-1,-1,-1c-1,0,-1,-1,-1,-1c-1,-1,-1,-1,-1,-2l0,-1l0,-1l1,0l0,-1c0,-1,1,-1,1,-1c0,1,0,1,0,1c-1,1,-1,1,-1,1l0,1c0,1,0,1,0,1c1,1,1,1,1,1l1,0c0,1,0,1,0,1c1,0,1,0,2,0c1,0,2,0,3,0c0,-1,1,-1,1,-1c1,-1,1,-1,1,-1l0,-1l0,-1l0,-1c0,0,-1,0,-1,0l0,-1l1,-2c0,0,0,1,0,1c0,0,1,0,1,0l2,0l1,0l1,0c0,0,0,-1,0,-2l0,-1l0,-1l0,-1l0,-3l-1,-2c0,0,0,-1,1,-1l0,-1l1,2c0,1,0,1,0,2l0,1l0,2l0,1l0,1l0,1l0,1l1,-1l1,-1l1,0c0,-1,1,-1,1,-1l1,0c0,0,1,0,1,0c1,1,1,1,1,2c0,0,0,1,0,1l0,1l-1,0l0,1l2,-1l1,0c0,0,1,0,1,0c0,0,1,0,1,0c1,0,1,-1,1,-1c0,0,1,0,1,0l0,1l1,0l1,0l1,0l1,0c1,0,1,-1,2,-2l0,1c0,1,0,1,1,1c0,0,1,0,1,0c1,0,1,-1,1,-1l1,-1c0,1,0,1,0,1c0,1,1,1,1,1c0,0,1,0,1,0c0,-1,0,-1,0,-1c0,0,1,0,1,-1c0,2,1,2,2,2ZM351.5,503.5l-1,-1l0,-1l2,0ZM353.5,505.5l-2,-1l-1,2l-1,-1l1,-2l1,1l1,-1l1,1ZM349.5,493.5l0,1l1,0c0,0,1,0,1,0l0,-1c0,0,0,1,0,1c0,0,1,0,1,0l0,-1l0,-1l1,0l0,1l0,1c-1,0,-1,1,-1,1l-1,0c-1,0,-1,1,-1,1c0,0,-1,0,-1,-1l0,-1l0,-1ZM354.5,490.5l-6,3c0,-1,1,-1,1,-1l5,-3ZM343.5,514.5l-1,-1l-1,2l-1,-1l0,-2l2,1l1,-1l1,1ZM339.5,493.5l1,0c0,0,1,-1,1,-1c1,0,1,1,2,1l0,1l-1,1l-1,0c0,0,-1,0,-1,0c-1,0,-1,0,-1,0l2,0c0,0,1,-1,1,-1c-1,0,-1,0,-1,0c-1,0,-1,0,-2,0l0,-1ZM336.5,508.5c0,0,0,-1,0,-1c0,0,-1,0,-1,0l-1,0c0,0,-1,0,-2,0l-1,1l-2,1l1,0l1,0c0,0,1,0,1,0l1,0c1,0,2,-1,3,-1ZM195.5,545.5l0,-1c0,0,0,-1,0,-1c0,-1,0,-2,0,-2l0,-1c1,0,1,0,1,1c0,0,0,1,0,1l0,1c0,1,0,1,0,1l-1,1ZM330.5,494.5c0,-1,0,-1,0,-2c0,0,0,-1,-1,-1l0,-1l1,0l0,1c0,0,1,0,1,1c0,1,0,1,0,1l-1,0c0,1,0,1,0,1ZM320.5,509.5l-2,-1l1,-2l1,1ZM318.5,501.5l5,-2l-1,1l-4,2ZM389.5,511.5l0,-1l0,-1l-1,-9l1,-2l1,11c0,0,-1,0,-1,0c0,0,0,1,0,1c0,0,0,1,0,1ZM391.5,514.5l-4,2c1,0,1,-1,1,-1l4,-2ZM380.5,505.5l-1,-1l0,-2l2,1ZM380.5,514.5c-1,0,-1,0,-2,0c0,0,-1,0,-1,-1c-1,0,-1,0,-1,-1c0,0,-1,-1,-1,-2l0,-1l1,0c0,0,0,-1,0,-1c0,-1,0,-1,0,-1c1,0,1,0,1,-1l0,1l0,1l-1,0c0,0,0,1,0,1c0,1,0,1,0,1l1,1c0,1,1,1,1,1c1,0,1,0,2,0c1,0,2,0,2,0c1,0,1,-1,2,-1c0,0,0,-1,0,-1c0,-1,0,-1,0,-1c0,-1,0,-1,0,-1l0,-1l0,-1c-1,0,-1,0,-1,0l0,-1l1,-2c0,0,0,1,0,1c0,1,0,1,1,1c0,0,0,1,0,1l0,1l0,1c0,0,0,1,0,1c0,1,0,1,0,2c0,1,-1,1,-1,2c-1,0,-1,0,-2,1c-1,0,-2,0,-2,0ZM381.5,494.5l-6,3c1,-1,1,-2,1,-2l5,-3Z" class="g1_77" />
</svg>