<?xml version="1.0" encoding="UTF-8" standalone="no"?>
<!DOCTYPE svg PUBLIC "-//W3C//DTD SVG 1.1//EN"
"http://www.w3.org/Graphics/SVG/1.1/DTD/svg11.dtd">
<svg version="1.1" xmlns="http://www.w3.org/2000/svg" xmlns:xlink="http://www.w3.org/1999/xlink">
<defs>
<style type="text/css"><![CDATA[
.g2_11{
stroke: #1F1A17;
stroke-width: 1;
stroke-linecap: butt;
stroke-linejoin: miter;
}
.g1_11{
fill: #1F1A17;
stroke: #1F1A17;
stroke-width: 1;
stroke-linecap: butt;
stroke-linejoin: miter;
}
]]></style>
</defs>
<path fill-rule="evenodd" d="M345.5,95.5c-1,0,-1,0,-1,0l-1,0c0,0,0,-1,0,-1l-1,0c0,0,0,-1,0,-1c0,-1,0,-1,0,-1c0,0,0,-1,0,-1c1,0,1,0,1,-1c0,0,1,0,1,0l-1,0l-1,0l0,-1c0,0,1,0,1,0l1,0c1,0,1,0,1,0c1,0,1,0,1,0l0,1l-1,0l-1,0l-1,0l0,1l-1,1c0,0,0,1,0,1l1,0c0,1,0,1,0,1l1,0c0,0,1,0,1,0l1,0l1,0ZM94.5,111.5c0,1,0,2,-1,2l0,1c-1,1,-1,1,-1,1l1,0l0,1l-1,0l0,1l-1,0l0,1c0,0,-1,0,-2,0l0,1l-1,0l-1,0l-1,0l0,1l-1,1l-3,0c-1,0,-1,0,-1,0l-1,-1c0,-1,0,-1,-1,-1c-1,0,-1,0,-2,-1l-1,0l-1,-1l-1,-1l-1,0l0,-1l1,0l0,-1l-1,0l0,-1l0,-1l0,-1l0,-1l0,-1l0,-1c0,0,1,0,1,-1l-1,-1l1,0l0,-1l1,0l0,-1l1,0l1,0l1,-1l1,0c0,0,1,0,1,0l0,-1l1,-1l1,-1l3,0l0,1l1,0l0,1l1,0l0,1l2,0l1,1l1,0l0,1l1,0c1,0,1,1,1,1l-1,1l1,0l0,1l0,1l1,0l0,1ZM85.5,121.5l0,-1l1,0l0,-1l1,0c0,0,1,0,1,0l0,-1l1,0c1,0,1,0,2,-1c0,0,1,-1,1,-1l1,0l-1,-1l0,-1l1,0l0,-1l0,-1l0,-1c0,-1,0,-2,0,-2c0,0,0,-1,0,-1c0,0,-1,-1,-1,-1l1,-1c0,0,-1,0,-1,-1l-1,0l0,-1l-1,0l-2,-1l-1,0c0,0,-1,0,-1,-1l-1,-1l-1,0l-2,0l-1,0l-1,1c0,1,0,1,0,1l-2,1l-1,0l-1,0l-1,1c-1,0,-1,1,-2,1l2,1l-1,0l0,1l-1,1l0,1c0,0,0,1,0,1l0,1l0,1l1,1l0,1l1,0l-2,1l1,0l1,0l0,1l1,0l0,1l1,0l1,0l1,1c1,0,1,0,1,0l1,1c0,1,1,1,1,1ZM90.5,106.5l-1,0l0,-1l-1,0c0,0,-1,0,-1,0c0,-1,0,-1,0,-1l1,0l0,1c1,0,1,0,1,0c0,0,1,0,1,0l0,1ZM90.5,116.5l0,1l-1,0l-1,1l-1,0l0,-1c0,0,1,0,1,0l1,-1c0,0,1,0,1,-1l0,1ZM86.5,118.5l0,1c-1,0,-1,0,-1,0l-3,0c-1,0,-1,0,-1,0l0,-1c-1,0,-1,0,-1,0c0,0,1,-1,1,-1l1,0l3,0l1,0l0,1ZM86.5,104.5c0,0,0,1,0,1c0,0,-1,0,-1,0l-3,0c-1,0,-1,0,-1,0l0,-1l-1,0c0,0,1,-1,1,-1l1,0l3,0l1,0l0,1ZM85.5,107.5l0,-1c1,0,1,0,1,0c1,0,1,0,2,0c0,0,0,1,0,1l1,1l1,-1l1,1l0,1l0,1l0,1l0,1l0,1c0,1,0,1,0,1c-1,0,-1,0,-1,1l-1,-1l0,1l-1,0l-1,1l-1,0c-1,0,-1,-1,-1,-1l-3,0l-1,0l0,1l-1,0c0,0,-1,0,-1,0c-1,-1,-1,-1,-1,-1l0,-1l-1,0l-1,1l0,-1l-1,-1l0,-1l0,-1c0,-1,0,-1,0,-1c0,0,0,-1,0,-1l1,-1c0,-1,0,-1,0,-1l1,1c1,0,1,-1,1,-1l1,0l0,-1c0,0,1,0,1,0c0,0,1,0,1,0l1,0l0,1ZM85.5,115.5c1,0,1,0,1,0l1,0l1,0l1,-1l1,0l1,-1l0,-1l0,-1c0,-1,0,-1,0,-2c0,0,0,-1,-1,-1l-1,0l-1,-1l-1,0l0,-1l-1,0l-1,0l0,1l-3,0l-1,-1l-1,0l-1,0l0,1l-1,0c0,1,0,1,-1,1l-1,0l0,1l-1,0l0,1l0,1l0,1l1,1c0,1,0,1,0,1l1,0c0,0,1,0,1,0l0,1l1,0l1,0c0,0,1,0,1,0l1,0l3,0ZM84.5,109.5l0,1l-1,0l0,1l0,1c0,1,0,1,0,1l0,-1l0,-1c-1,0,-1,0,-1,0l0,-1l0,-1c0,1,1,1,1,1c1,0,1,0,1,-1ZM76.5,106.5l1,-1l1,0l1,-1l0,1l1,0c-1,0,-1,0,-1,0l-1,0l0,1l-1,0l-1,0ZM76.5,116.5l1,-1c0,1,0,1,1,1l0,1l1,0c0,1,0,1,0,1l-1,0c0,-1,-1,-1,-1,-1l0,-1l-1,0ZM144.5,113.5l0,-1l0,-1l-1,-8l1,-3l0,11l0,1c0,1,0,1,0,1ZM135.5,102.5l0,3c0,0,0,1,0,1l0,1l-1,0c0,1,0,1,0,1l2,1c0,0,1,0,2,0c0,0,1,1,1,1c0,0,1,0,1,0l1,0l0,1l-1,0l-1,0l-1,0l-1,0l-1,0l-1,0c0,1,0,1,0,1l-3,1l-1,0l-1,0l-1,0l-1,0l-1,0l-1,0l-1,-1l-2,-2c0,0,-1,-1,-1,-1l-1,0l0,1c0,1,0,1,0,1c0,1,0,1,0,2c-1,0,-1,0,-1,0c0,0,-1,0,-1,0c0,0,-1,0,-1,0l-1,0l-1,0c-1,0,-1,0,-1,0c-1,0,-1,0,-1,-1c0,0,-1,0,-1,0l0,1c0,0,-1,0,-1,0l-1,0l-1,0c0,0,-1,0,-1,0c0,0,-1,0,-1,0c0,0,0,1,-1,1c0,0,-1,0,-1,0c-1,-1,-2,-1,-2,-1l0,1c-1,0,-1,1,-2,1c0,1,-1,1,-2,1c-1,0,-2,0,-4,0l5,-2l1,0c1,-1,1,-1,2,-1l0,-2c1,-1,1,-1,1,-1c0,0,1,-1,1,-1l1,0c0,0,0,1,1,1c0,1,1,1,1,1c0,0,0,1,1,1l1,0c0,0,1,0,1,0c0,0,1,-1,1,-1c0,0,1,0,1,0c0,0,1,0,1,0l0,1c1,0,1,0,1,0l1,0l1,0c1,0,1,0,1,0l1,0c0,-1,0,-1,0,-1l1,0l0,-1c0,0,0,-1,0,-1c-1,0,-1,0,-1,0c0,-1,0,-1,0,-1c-1,0,-1,-1,-1,-1c-1,0,-1,0,-1,0c0,0,-1,0,-1,0c0,0,-1,-1,-1,-1c0,-1,0,-1,0,-1l0,-1c0,-1,0,-1,0,-1c0,0,1,0,1,0c0,-1,1,-1,3,-2c1,0,3,-1,4,-1c2,-1,3,-1,3,-1l1,-1l-1,2l-1,0c0,0,-1,1,-2,1c-2,1,-3,1,-4,2c-2,0,-3,1,-3,1l1,1l1,0c0,1,0,1,0,1l1,0c1,1,1,1,2,1c0,1,1,1,2,2c0,0,1,1,1,1l2,2l1,0l1,0l1,0l1,0l1,-1l1,0l1,0l1,-1l-1,0l-1,0l-1,-1l-1,0c0,0,-1,0,-1,0l0,1c0,-1,0,-1,0,-2c1,0,1,0,1,0c0,0,0,-1,0,-1c1,0,1,0,1,0c0,0,1,0,1,0c1,0,1,-1,1,-1c0,-1,0,-1,0,-2c0,0,0,-1,0,-2c0,0,0,-1,0,-1c-1,0,-1,0,-1,0c0,-1,0,-1,1,-1c0,-1,0,-1,0,-1l0,1l1,0l0,1l0,1ZM133.5,95.5c0,0,1,0,1,0c1,0,1,0,1,0c1,0,2,0,2,0l0,1c0,0,0,1,0,1c0,0,-1,0,-1,1l-1,0l-1,0l-1,0l2,-1c1,0,1,0,2,-1c-1,0,-1,0,-1,0c0,0,-1,0,-1,0c0,0,-1,0,-1,0c0,0,-1,0,-1,1l0,-1l0,-1ZM126.5,104.5l5,-2l-1,0c0,1,0,1,0,1l-4,2ZM127.5,117.5l-4,2c0,-1,0,-1,0,-1l4,-2ZM115.5,117.5l-1,-1l-1,1l-2,-1l1,-1l2,1l0,-2l2,1ZM107.5,112.5l0,-1c-1,0,-1,0,-1,0l-1,0c0,0,0,1,1,1ZM106.5,119.5l-4,2c0,0,0,-1,0,-1l4,-2ZM186.5,113.5l0,-1l0,-1l0,-8l1,-3l0,11l0,1c0,1,0,1,-1,1ZM179.5,112.5l1,0c1,-1,1,-1,1,-1l0,-1l0,-2l0,-6c-1,0,-1,0,-1,-1c0,0,1,0,1,-1c0,0,0,1,1,1l1,0c-1,1,-1,1,-1,1c0,1,0,1,0,1c0,0,0,1,0,2c0,0,0,1,0,3l0,1l0,1c0,0,0,1,0,1c0,0,0,1,0,1l-1,0c0,0,0,1,0,1c-1,0,-1,0,-1,0c0,0,-1,0,-1,0l-1,0c0,0,-1,0,-1,0c0,0,-1,0,-1,0c0,0,-1,0,-1,-1c-1,0,-1,0,-1,0l-1,1c-1,0,-1,0,-1,0l-1,0l-1,0l-1,0l0,1l0,1c0,0,0,1,-1,2c0,1,-1,1,-1,1c0,0,-1,1,-1,1l-1,0l-1,0c-1,0,-1,0,-2,0c0,0,0,-1,-1,-1c1,0,1,0,1,0l1,0c0,0,1,0,1,0c1,0,1,0,2,-1c1,0,1,-1,1,-1c0,0,0,-1,1,-1c0,0,0,-1,0,-1c1,-1,1,-1,1,-1l-1,0c0,-1,0,-1,0,-1l0,-1l0,-1l0,1l1,0l0,1l1,0l1,0c1,0,1,0,1,0c0,0,0,-1,1,-1l1,0l-1,0l0,-1c0,0,-1,0,-1,0l-1,0l1,-2c1,0,1,0,1,0c1,-1,1,-1,1,-1l1,0l1,1c1,0,1,0,1,0c0,1,0,1,0,1l0,1c-1,0,-1,0,-1,1l1,0l0,1l1,0ZM179.5,95.5l1,0c0,0,1,0,1,0c1,0,1,0,1,0c1,0,1,0,1,1c0,0,0,1,-1,1l0,1c0,0,-1,0,-1,0c0,0,-1,0,-1,0l-1,0l2,-1c0,0,1,0,1,-1l-1,0c-1,0,-1,0,-2,0l0,1l0,-1l0,-1ZM174.5,100.5l4,-2l-1,1l-4,2ZM168.5,108.5l-1,-1l1,-1l1,1ZM168.5,121.5l-4,2c0,0,1,-1,1,-1l4,-2ZM162.5,117.5l-2,-1l-1,1l-1,-1l1,-1l1,1l1,-2l2,1ZM159.5,113.5l-1,0l-1,0l0,1l0,1c-1,0,-1,1,-1,2l-1,0c0,1,0,1,0,1c-1,0,-1,1,-1,1c-1,0,-1,0,-1,0c-1,0,-1,0,-1,0l-1,0c0,0,-1,0,-1,0c-1,0,-1,-1,-1,-1l1,0c1,0,1,0,2,0c0,0,1,0,1,-1c0,0,1,0,1,0c0,0,0,-1,1,-1c0,0,0,-1,0,-1c0,0,1,-1,1,-1c0,-1,0,-1,0,-1l-1,0c0,-1,0,-1,0,-1l0,-1c0,0,1,0,1,0l0,-1l0,1l1,1l1,0l1,0c0,0,1,0,1,0c1,-1,1,-1,1,-1c1,0,0,0,0,0c0,-1,0,-1,0,-1c0,0,0,-1,0,-1l0,-2c0,0,1,0,1,1c0,1,0,1,0,1l0,1c0,0,0,1,0,1c0,0,0,1,0,1c-1,1,-1,1,-2,1c0,0,-1,0,-1,0ZM156.5,108.5l-2,-1l1,-1l1,1ZM156.5,121.5l-4,2c0,0,0,-1,0,-1l4,-2ZM211.5,113.5l0,-1l0,-1l-1,-8l1,-3l1,11l0,1l-1,0c0,1,0,1,0,1ZM206.5,113.5c-1,0,-1,0,-2,0c0,-1,0,-1,-1,-2c0,1,0,1,0,2c-1,0,-1,0,-2,0c-1,0,-1,0,-2,0c0,-1,0,-1,0,-2c0,0,-1,0,-1,0c0,1,0,1,0,1c-1,0,-1,0,-2,0c-1,0,-1,0,-1,0c-1,0,-1,0,-1,0c0,-1,0,-1,0,-1c0,0,0,-1,1,-1l0,-1c1,0,1,0,2,-1l1,0l0,-1l0,-1c1,0,1,-1,1,-1l0,1l0,1l0,3l1,1c0,0,1,1,1,1c1,0,1,-1,1,-1c1,0,1,-1,1,-1c0,0,0,-1,0,-2c0,-1,0,-1,0,-2c0,0,-1,0,-1,0c0,-1,0,-1,0,-1l1,-1l0,-1l0,3l1,2l0,1c0,0,0,1,0,1c1,1,1,1,1,1l1,0c0,0,1,0,1,0l0,-1l0,-1l-1,-1l0,-1l0,-2l0,-1l1,-1c0,1,0,1,0,2l0,1l0,2c1,1,1,1,1,2c0,0,0,1,-1,2l0,1c0,0,-1,0,-1,0ZM198.5,108.5l0,1c0,0,-1,0,-1,0c-1,1,-1,1,-1,1c0,0,1,0,2,0ZM201.5,100.5l-1,0l1,0l0,1l1,0l0,-1l0,-1l1,0l0,1c1,0,1,0,1,-1l0,-1l0,1l1,0l0,1l-1,0l0,1l0,1l-1,0l0,-1l-1,0l0,1c0,0,-1,1,-1,1c0,0,-1,-1,-1,-1l0,-1l0,-1ZM199.5,117.5l-5,2c1,-1,1,-1,1,-1l4,-2ZM235.5,113.5l-1,0c0,0,-1,0,-1,-1l-1,0c0,1,-1,1,-1,1l-1,0l-1,0l-1,0c0,1,0,1,0,1c0,0,0,1,0,1c0,1,0,2,0,2c-1,1,-1,1,-2,2c0,0,-1,1,-2,1c0,0,-1,0,-2,0c0,0,-1,0,-2,0c0,0,-1,0,-1,-1c-1,0,-1,0,-1,-1c0,0,-1,-1,-1,-1c0,-1,0,-1,0,-1l1,-1l0,-1l0,-1c1,0,1,0,1,0l0,1l-1,1l0,1c0,0,0,1,1,1l0,1c0,0,1,0,1,0c1,0,2,1,2,1c1,0,2,-1,3,-1c1,0,1,-1,2,-1c0,-1,0,-1,0,-1l0,-1c0,-1,0,-1,0,-1c0,0,0,-1,0,-1c0,0,-1,0,-1,0l0,-1l1,-1c0,1,1,1,1,1l1,0l1,0c1,0,1,0,1,0l1,-1l0,-1c1,0,1,-1,1,-1l1,-1c1,0,1,0,1,1c1,0,1,0,1,1l0,1c0,1,0,1,0,1c0,0,0,1,-1,1ZM233.5,111.5l1,0l1,0c0,-1,0,-1,0,-1c-1,0,-1,0,-1,0c0,0,-1,0,-1,0c0,1,0,1,0,1ZM234.5,117.5l-4,2c0,-1,1,-1,1,-1l4,-2ZM223.5,111.5l-2,-1l1,-1l2,1ZM222.5,104.5l4,-2l-1,0c0,0,0,1,0,1l-4,2ZM285.5,113.5l0,-1l0,-1l-1,-8l1,-3l1,11l0,1c-1,1,-1,1,-1,1ZM277.5,112.5c1,0,1,0,1,0c1,0,1,0,1,0c0,-1,1,-1,1,-1l0,-1l0,-2l-1,-6l0,-1l0,-1c1,0,1,0,1,0c0,0,0,1,0,1c1,0,1,0,1,0c0,1,0,1,0,1c0,1,0,1,0,1c0,0,0,1,0,2c0,0,0,1,0,3l0,1l0,1c0,0,0,1,0,1c0,0,0,1,0,1c-1,0,-1,0,-1,0c0,0,0,1,0,1l-1,0l-1,0l-1,0c-1,0,-1,0,-2,0l-1,-1l-2,-2c0,0,-1,-1,-1,-1l-1,0l1,0l0,1l-1,0c0,1,0,1,0,1c0,1,0,1,0,2c-1,0,-1,0,-1,0l-1,0c0,0,-1,0,-1,0l-1,0l-1,0c0,0,-1,0,-1,0l-1,0l0,-1c-1,0,-1,0,-1,0l-1,1l-1,0l-1,0c-1,0,-1,0,-1,0c0,0,-1,0,-1,0c0,0,0,-1,0,-1c0,0,-1,0,-1,0c0,1,0,1,-1,1c0,0,-1,1,-2,1l-2,0c-1,0,-1,0,-1,0l-1,0l-1,1c-1,0,-3,-1,-4,-1c-1,0,-1,0,-2,-1c0,0,-1,-1,-1,-1l0,-1l0,-1c0,0,0,-1,0,-1c1,0,1,-1,1,-1l1,0c-1,0,-1,0,-1,1c0,0,0,1,0,1c0,0,0,1,0,1c1,0,1,1,2,1l1,0l1,1c1,0,2,0,3,0c1,0,1,0,2,0c0,0,1,0,1,-1l1,0c0,0,1,0,1,0c1,0,1,-1,2,-1c1,0,1,-1,1,-1l0,1l1,1l1,0c1,0,1,0,1,0c1,0,1,-1,2,-1c0,0,1,0,1,0c0,0,1,0,1,1l1,0l1,0l1,0c1,0,1,0,1,0c0,0,1,0,1,0c0,-1,0,-1,0,-1c0,0,1,0,1,0l0,-1c0,0,0,-1,0,-1c0,0,-1,0,-1,0c0,-1,0,-1,0,-1c-1,0,-1,-1,-1,-1c-1,0,-1,0,-1,0c-1,0,-1,0,-1,0c0,0,0,-1,-1,-1c0,-1,0,-1,0,-1l0,-1c0,-1,0,-1,0,-1c1,0,1,0,1,0c1,-1,2,-1,3,-2c1,0,3,-1,4,-1c2,-1,3,-1,3,-1c1,0,1,0,1,0l0,-1l-1,2c-1,0,-2,1,-3,1c-2,1,-3,1,-4,2c-2,0,-2,1,-3,1l1,1c0,0,1,0,1,0c0,1,0,1,0,1l1,0c1,1,2,1,2,1c1,1,1,1,2,2c0,0,1,1,1,1l2,2l1,0ZM277.5,95.5c1,0,1,0,1,0c1,0,1,0,2,0c0,0,1,0,1,0c1,0,1,0,1,1c0,0,-1,1,-1,1l-1,1c-1,0,-1,0,-1,0l-1,0l1,-1c1,0,2,0,2,-1c0,0,-1,0,-1,0l-1,0c0,0,-1,0,-1,0l-1,1l0,-1l0,-1ZM276.5,117.5l-4,2c0,-1,0,-1,0,-1l4,-2ZM263.5,108.5l-1,-1l-1,2l-1,-1l1,-2l1,1l1,-1l1,1ZM249.5,118.5l-1,-1l1,-1l1,1ZM250.5,121.5l-4,2c0,0,0,-1,0,-1l4,-2ZM326.5,105.5l-2,-1l-1,1l-1,-1l1,-1l1,1l1,-1l1,1ZM323.5,113.5l-1,0c-1,0,-1,0,-1,0c0,0,-1,0,-1,0l0,-1c-1,0,-1,0,-1,0c0,0,0,-1,0,-1l0,-1c0,0,0,1,0,1c0,0,-1,0,-1,0c0,1,-1,1,-1,1l-1,0l0,1l0,1c0,0,-1,0,-1,1c0,0,0,1,0,1c0,0,-1,0,-1,1c0,0,-1,0,-1,1l-1,0c-1,0,-1,0,-1,0l-1,0c-1,0,-1,0,-1,0l-1,-1c0,0,1,0,1,0l1,0l1,0l1,0l0,-1c1,0,1,0,1,-1c0,0,1,0,1,-1c0,0,1,-1,1,-1l0,-1l0,-2c1,0,1,0,1,0l1,0l1,0c0,0,0,-1,0,-1c0,0,1,0,1,0l0,-1l1,0c0,1,0,1,0,1l0,1c0,1,0,1,0,1c0,0,1,0,1,1c0,0,1,0,1,0l1,0c1,0,1,0,2,0c1,-1,1,-1,1,-1c0,-1,0,-1,0,-1c0,0,0,-1,0,-1l-1,0l1,-2l0,1l1,0l0,1l0,1l0,1c0,0,0,1,0,1c0,0,-1,0,-1,0c0,1,0,1,-1,1c-1,0,-1,0,-2,0ZM323.5,97.5l5,-2l-1,1l-4,2ZM318.5,107.5l-1,-1l1,-1l1,1ZM314.5,108.5l-1,-1l0,-1l2,1ZM316.5,121.5l-4,2c0,0,0,-1,0,-1l4,-2ZM309.5,117.5l-1,-1l-1,1l-1,-1l0,-1l2,1l1,-2l1,1ZM306.5,113.5l-1,0c-1,0,-1,0,-1,0c-1,0,-1,-1,-1,-1l0,1l0,1c0,1,0,1,-1,2c0,0,0,1,-1,1l0,1c-1,0,-1,0,-1,0c-1,0,-1,0,-2,1c0,0,-1,0,-1,0l-1,0c0,0,-1,0,-1,-1c0,0,-1,0,-1,0c0,-1,-1,-1,-1,-1c0,-1,0,-1,0,-2c0,0,0,-1,0,-1c0,-1,0,-1,1,-2l0,-1l1,0l-1,1c0,0,0,1,0,1c0,0,0,1,0,1c0,1,0,1,1,2c0,0,1,1,1,1c1,0,1,0,1,0c1,0,2,-1,3,-1c1,0,1,-1,2,-1l0,-1l0,-3c0,0,0,-1,0,-2l0,-1l-1,-6l1,-2l1,10l0,1l1,0l0,1c0,0,1,0,1,0l1,0c1,0,1,0,2,0c0,-1,1,-1,1,-1c0,-1,0,-1,0,-1c0,0,-1,-1,-1,-1l1,-2l0,1l1,0c0,1,0,1,0,1l0,1c0,0,0,1,0,1c0,0,0,1,-1,1c0,1,-1,1,-1,1c-1,0,-1,0,-2,0ZM296.5,98.5c0,-1,0,-1,0,-1c1,0,1,-1,1,-1l0,1c1,0,1,0,1,0c0,1,0,1,0,1l0,1l-1,0l1,0l0,1l0,1l-1,-1l-1,1c0,0,-1,1,-1,1l-1,0l1,-1l1,-1l0,-1c0,0,-1,0,-1,0l0,-1c0,0,1,0,1,0ZM297.5,98.5l-1,0l1,0l0,1l0,-1ZM353.5,111.5c0,1,0,2,0,2c-1,0,-1,0,-1,1c0,1,-1,1,-1,1l1,0l0,1l-1,0l0,1l-1,0l0,1c0,0,-1,0,-1,0l-1,1l-1,0l-1,0l-1,1l-1,1l-2,0l-1,-1c0,-1,-1,-1,-1,-1c-1,0,-2,0,-2,-1l-1,0l-1,0l0,-1l-1,0l0,-1l-1,0l0,-1l1,0l-1,-1l0,-1l-1,-1l0,-1l0,-1l1,-1l0,-1l0,-1l1,0l-1,-1l1,-1l1,0l0,-1l1,0l2,-1l1,0l0,-1l1,0l1,-1l0,-1l2,0l0,1l1,0l0,1l1,0l0,1l2,0l1,1l1,0l0,1l1,0c1,0,1,1,1,1l1,0c0,0,-1,0,-1,0l-1,1l1,0l0,1l0,1l1,0l0,1ZM344.5,121.5l0,-1l1,0l0,-1l1,0c1,0,1,0,1,0l0,-1c1,0,1,0,1,0c1,0,1,0,2,-1c1,0,1,-1,1,-1l1,0l-1,-1l0,-1l1,0l0,-1l0,-1l0,-1c0,-1,0,-2,0,-2c0,0,0,-1,0,-1c0,0,0,-1,-1,-1l1,-1c0,0,-1,0,-1,-1l-1,0l0,-1l-1,0l-2,-1l-1,0c0,0,-1,0,-1,-1l-1,-1l-2,0l-1,1c0,1,-1,1,-1,1l-2,1l-1,0l-1,0l0,1l-1,0c0,0,0,1,-1,1l1,1l-1,1l0,1l0,1c0,0,0,1,0,1l0,1l0,1l0,1l1,0l0,1l-1,1l1,0l0,1l1,0l1,0l0,1l1,0l1,0l1,1c0,0,1,0,1,0l0,1l1,0c0,1,0,1,0,1ZM349.5,106.5l-1,0l0,-1l-1,0l-1,0c0,-1,0,-1,0,-1l1,0l0,1c1,0,1,0,1,0c1,0,1,0,1,0l0,1ZM350.5,116.5l-1,0l0,1l-1,0l-1,1l-1,0l0,-1c1,0,1,0,1,0l1,-1c0,0,1,0,1,-1l0,1ZM345.5,118.5l0,1c-1,0,-1,0,-1,0l-2,0l-1,0l0,-1c0,0,0,-1,0,-1c1,0,1,0,1,0l2,0l1,0l0,1ZM345.5,104.5c0,0,0,1,0,1c0,0,-1,0,-1,0l-2,0l-1,0l0,-1c0,0,0,-1,0,-1l1,0l2,0l1,0l0,1ZM344.5,107.5l0,-1l1,0l1,0l1,0c0,0,0,1,1,1l0,1l1,-1l1,1l0,1l0,1l1,0l0,1l0,1c-1,0,-1,0,-1,1c0,1,0,1,0,1c0,0,-1,0,-1,1l-1,-1l0,1l-1,0l0,1l-1,0l-1,0c-1,0,-1,-1,-1,-1l-2,0l0,1c0,0,-1,0,-1,0c-1,0,-1,0,-2,0c0,-1,0,-1,-1,-1l0,-1l-1,1l0,-1l-1,-1l0,-1l0,-1c0,-1,0,-1,0,-1c0,0,0,-1,0,-1l0,-1c1,-1,1,-1,1,-1l1,1c0,0,0,-1,1,-1l0,-1l1,0l1,0l1,0l0,1ZM344.5,115.5l1,0l1,0c0,0,1,0,1,0l1,-1l1,0l1,0l0,-1l0,-1l0,-1c0,-1,0,-1,0,-2c0,0,0,-1,0,-1c-1,0,-1,0,-1,0l-1,0l-1,-1l-1,0l0,-1c-1,0,-1,0,-1,0l-1,1l-2,0l0,-1l-1,0c-1,0,-1,0,-1,0l-1,1c-1,1,-1,1,-1,1l-1,0l-1,1l0,1l0,1l0,1l0,1c1,1,1,1,1,1l1,0l1,0l0,1l1,0l1,0l1,0l2,0ZM343.5,109.5l0,1c0,1,1,1,1,1l0,1l0,1c-1,0,-1,0,-1,0l0,-1c0,0,0,-1,0,-2ZM337.5,106.5l0,-1l1,0l1,0l0,-1l1,0l0,1c0,0,-1,0,-1,0l-1,0l0,1l-1,0ZM337.5,116.5l0,-1c0,1,1,1,1,1l1,1l1,0c0,1,0,1,0,1l-1,0c-1,-1,-1,-1,-2,-1l0,-1ZM380.5,111.5l-2,0c0,0,-1,0,-1,0l-1,0c0,0,-1,0,-1,0l-1,1l-1,0l-1,1l-1,0c0,0,-1,0,-2,0l-1,0l-2,0c-1,0,-1,0,-1,0c-1,0,-1,0,-1,0l0,1l0,1c0,0,0,1,-1,1c0,0,0,-1,-1,-1c0,-1,0,-1,0,-2l-1,-1c0,0,0,1,-1,1l-1,0l0,1l0,1l0,1l1,2l0,1l0,1c0,1,0,2,0,2c0,1,0,1,0,1l-1,-1l0,-1l0,-1l0,-3l-1,-1l0,-1l0,-1l1,-1c0,0,0,-1,0,-1l1,0l0,-1l1,0l0,-1l1,0l0,-1c1,1,1,2,2,2l2,1l1,0l1,0l1,0l1,0c0,0,1,0,1,-1c1,0,1,0,2,0l1,-1l1,0l-1,0l-1,-1l-1,0l-1,0l-1,0l-1,0c1,0,1,-1,1,-1c0,0,1,0,1,-1l1,0c0,0,1,0,1,0l1,1l2,1l1,0l1,0l1,0l1,0l1,0ZM367.5,102.5c-1,0,-2,0,-2,0l-1,0l-1,0c0,0,-1,1,-1,1l0,-1l1,-1c1,0,1,1,2,1l1,0l0,-1l1,0ZM158.5,99.5l1,0c0,0,1,0,1,0c1,0,1,0,2,0l0,1c0,0,0,1,-1,1l0,1c-1,0,-1,0,-1,0c0,0,-1,0,-1,0c0,0,-1,0,-1,0l2,-1c0,0,1,0,1,-1c-1,0,-1,0,-1,0c-1,0,-1,0,-2,0c0,0,0,-1,0,-1ZM110.5,97.5c0,0,1,0,1,0c0,-1,1,-1,1,-1c1,0,1,0,2,1c0,1,0,1,0,1c-1,1,-1,1,-1,1c0,0,-1,0,-1,0l-1,0c0,0,-1,0,-1,0l2,0c1,0,1,-1,1,-1c-1,0,-1,0,-1,0c-1,0,-1,0,-1,0c-1,0,-1,0,-1,0l0,-1ZM305.5,97.5l1,0c0,0,1,0,1,0c1,0,1,0,1,0c1,0,1,0,1,1c0,0,0,1,-1,1c0,1,0,1,-1,1c0,0,-1,0,-1,0c-1,0,-1,0,-1,0l2,-1c0,0,1,0,1,-1l-1,0c-1,0,-1,0,-2,0l0,1l0,-1l0,-1ZM316.5,99.5l1,0c0,0,1,0,1,0c1,0,1,0,2,0c0,0,0,1,0,1l0,1c-1,0,-1,0,-1,0c-1,0,-1,0,-1,0c0,0,-1,1,-1,1c0,0,-1,-1,-1,-1l2,0c0,0,1,-1,1,-1c-1,0,-1,0,-1,0c-1,0,-1,0,-1,0c-1,0,-1,0,-1,0c0,-1,0,-1,0,-1ZM85.5,91.5c0,1,0,2,0,3c0,1,0,1,0,1c0,0,-1,0,-1,0c0,0,0,1,0,1l-1,0l-1,0l1,0c0,-1,0,-1,0,-1c1,0,1,0,1,0c0,-1,0,-1,0,-1c-1,0,-1,0,-1,0c0,-1,0,-1,0,-1l-1,0l0,-1l1,0c0,1,0,1,1,1l0,1l0,1c0,-1,0,-1,0,-1c1,0,1,0,1,0c0,-1,0,-1,0,-1l0,-1ZM262.5,102.5l0,-1c0,0,0,-1,0,-1c0,-1,-1,-1,-1,-2l1,0l0,-1c0,0,0,1,0,1c0,1,0,1,0,1l1,1c0,0,-1,1,-1,1c0,0,0,1,0,1ZM202.5,97.5c0,-1,0,-1,0,-2c0,-1,0,-1,-1,-2l1,0l0,1c0,0,1,0,1,0l0,1c0,0,0,1,0,1c-1,1,-1,1,-1,1ZM373.5,105.5l0,-1c0,0,0,-1,0,-1c0,-1,0,-2,0,-2l0,-1l1,1c0,0,0,1,0,1l0,1c0,1,0,1,0,1c0,0,-1,0,-1,1ZM94.5,64.5c0,1,0,2,-1,3l0,1c-1,0,-1,0,-1,1l1,0l0,1l-1,0l-1,1c0,0,-1,1,-2,1l-1,0l0,1l-1,0l-1,0l0,1l-1,1l-3,0c-1,0,-1,0,-1,-1l-1,-1l-1,0c-1,-1,-1,-1,-2,-1l-1,0l0,-1l-1,0l0,-1l-1,0l-1,-1l1,0l0,-1l-1,-1l0,-1c0,-1,0,-1,0,-1l0,-1l0,-1c0,0,0,-1,0,-1c0,-1,1,-1,1,-1l0,-1l-1,0l1,-1l1,0l0,-1l1,0l0,-1l1,0l1,0l1,-1c0,0,1,0,1,0l1,-1c0,-1,0,-1,1,-1l3,0l0,1l1,0l0,1l1,0l2,1l1,0l0,1l1,0l1,1c1,0,1,0,1,1l-1,0l1,1l0,1l1,1l0,1ZM85.5,75.5l0,-1l1,0l0,-1l1,-1c0,0,1,0,1,0l1,0c1,-1,1,-1,2,-1l0,-1c0,0,1,0,1,0l1,-1l-1,0l0,-1l1,0l0,-1l0,-1l0,-1l0,-1c0,0,0,-1,0,-2l0,-1c0,0,-1,0,-1,0l0,-1l1,0c0,-1,-1,-1,-1,-1l-1,0l0,-1l-1,0l0,-1l-2,0l-1,-1c0,0,-1,0,-1,0l-1,-1c0,-1,0,-1,0,-1l-1,0l-2,0l-1,1l-1,1l-2,1l-1,0l-1,1l-1,0l0,1c-1,0,-1,0,-2,1l2,0l-1,1l0,1l-1,0l0,1l0,1l0,1l0,1l0,1l1,0l0,1l1,0l0,1l-2,0l1,0l0,1l1,0l0,1l1,0l1,1l1,0l1,0c1,1,1,1,1,1l1,0l0,1c0,0,1,1,1,1ZM90.5,60.5l-1,0l0,-1l-1,0c0,0,-1,0,-1,0c0,-1,0,-1,0,-1l1,0c1,0,1,0,1,0l0,1c0,0,1,0,1,0ZM90.5,69.5l0,1l-1,0l0,1l-1,0l-1,0c0,0,1,0,1,-1l1,0c0,0,1,-1,1,-1ZM86.5,71.5c0,1,0,1,0,1c-1,1,-1,1,-1,1l-3,0c-1,0,-1,0,-1,-1c-1,0,-1,0,-1,-1c0,0,1,0,1,0c0,0,0,-1,1,-1l3,0l1,1ZM86.5,58.5c0,0,-1,1,-1,1l-3,0c-1,0,-1,0,-1,-1l-1,0c0,-1,1,-1,1,-1l0,-1l1,0l3,0l1,1ZM85.5,60.5c1,0,1,0,1,0c1,0,1,0,2,0l0,1l1,0l1,0l1,0l0,1l0,1l0,1l0,1c0,1,0,1,0,1l0,1l0,1c-1,0,-1,0,-1,0l-1,0l-1,1l-1,0l-1,0c-1,0,-1,0,-1,0l-3,0l-1,0l-1,0c0,0,-1,0,-1,0c-1,0,-1,0,-1,-1l-1,0l-1,0l-1,-2l0,-1l0,-1c0,-1,0,-1,0,-1l0,-1l1,0l0,-1l1,0c1,0,1,0,1,0l0,-1l1,0c0,0,1,0,1,0c0,0,1,0,1,0l1,0ZM85.5,68.5l0,1c1,0,1,0,1,0l1,0l1,0l0,-1l1,0c0,0,0,-1,0,-1l1,1l0,-1l1,0l0,-1l0,-1l0,-1c0,0,0,-1,0,-1c0,-1,0,-1,-1,-1c0,-1,0,-1,0,-1l-1,0l-1,0l0,-1l-1,0l-1,0l-1,0l0,1l-3,0l0,-1l-1,0l-1,0l-1,0l-1,1l-1,0l-1,0l0,1l-1,1l0,1l0,1l0,1l1,0c0,1,0,2,0,2l1,-1c0,0,1,1,1,1l0,1l1,0l1,0c0,0,1,0,1,0l1,0l0,-1l3,0ZM84.5,63.5c0,0,0,1,0,1l-1,0l0,1l0,1l0,1l0,-1l0,-1c-1,0,-1,0,-1,-1l0,-1c0,0,1,0,1,0c1,0,1,0,1,0ZM76.5,60.5l0,-1l1,0l1,-1l1,0l1,1c-1,0,-1,0,-1,0l-1,0l-1,0l0,1l-1,0ZM76.5,69.5l1,0c0,0,0,1,1,1l1,0l0,1l-1,0c0,0,-1,0,-1,-1l-1,0l0,-1ZM144.5,67.5l0,-1l0,-1l-1,-9l1,-2l0,11c0,0,0,1,0,1c0,0,0,1,0,1ZM135.5,56.5l0,2c0,1,0,1,0,2l-1,1l0,1l2,0c0,1,1,1,2,1c0,0,1,0,1,0c0,0,1,0,1,0l1,0l0,2l-1,0l-1,0l-1,0l-1,0l-1,0l-1,0l-3,1l0,1l-1,0l-1,0l-1,0l-1,0l-1,0l-1,0c0,-1,0,-1,-1,-1l-2,-2c0,-1,-1,-1,-1,-1l-1,-1c0,1,0,1,0,1l0,1c0,1,0,1,0,1c0,0,0,1,0,1c-1,0,-1,0,-1,1c0,0,-1,0,-1,0c0,0,-1,0,-1,0l-1,0l-1,0c-1,0,-1,0,-1,0l0,-1c-1,0,-1,0,-1,0c0,0,-1,0,-1,0c0,1,-1,1,-1,1l-1,0l-1,0c0,0,-1,0,-1,0c0,0,-1,-1,-1,-1c0,1,0,1,-1,2c0,0,-1,0,-1,-1c-1,0,-2,0,-2,0l0,1c-1,0,-1,0,-2,1c0,0,-1,0,-2,1c-1,0,-2,0,-4,0l5,-2l1,-1c1,0,1,0,2,-1l0,-1c1,-1,1,-2,1,-2c0,0,1,0,1,0l1,0l1,1c0,0,1,1,1,1l1,0l1,0c0,0,1,0,1,0c0,0,1,0,1,0c0,0,1,0,1,-1c0,0,1,0,1,0l0,1c1,0,1,0,1,0l1,0l1,0c1,0,1,0,1,0l1,0l1,-1c0,-1,0,-1,0,-1c-1,-1,-1,-1,-1,-1l0,-1c-1,0,-1,0,-1,0c-1,0,-1,-1,-1,-1c0,0,-1,0,-1,0c0,0,-1,0,-1,0c0,-1,0,-1,0,-1c0,-1,0,-1,0,-1c0,0,0,-1,0,-1c0,0,1,0,1,0c0,-1,0,-1,0,-1c0,0,1,-1,3,-1c1,-1,3,-1,4,-2c2,0,3,-1,3,-1l1,0l-1,2l-1,0c0,0,-1,0,-2,1c-2,0,-3,1,-4,1c-2,1,-3,1,-3,2l1,1l1,0l1,1c1,0,1,1,2,1c0,0,1,1,2,1c0,1,1,1,1,2l2,1l1,0l1,0l1,0l1,0l1,0l1,0l1,-1l1,0l-1,0l0,-1l-1,0l-1,0l-1,0c0,0,-1,0,-1,0c0,0,0,-1,0,-1c1,0,1,0,1,-1c1,0,1,0,1,0c0,0,1,0,1,0c0,0,0,-1,0,-1c1,0,1,0,1,-1c0,0,0,-1,0,-1c0,0,0,-1,0,-2c0,-1,0,-1,0,-1c-1,0,-1,0,-1,-1l1,-1l1,1c0,0,0,1,0,1c0,0,0,1,0,1ZM133.5,49.5c0,0,1,0,1,0c1,0,1,0,1,0c1,0,2,0,2,0l0,1l0,1c0,0,-1,0,-1,0l-1,0l-1,0l-1,0l2,0c1,0,1,-1,2,-1c-1,0,-1,0,-1,0c0,0,-1,0,-1,0c0,0,-1,0,-1,0c0,0,-1,0,-1,0l0,-1ZM126.5,57.5l5,-2l-1,1l-4,2ZM127.5,70.5l-4,2c0,-1,0,-1,0,-1l4,-2ZM115.5,70.5l-1,-1l-1,2l-2,-1l1,-2l2,1l0,-1l2,1ZM107.5,66.5l0,-1c-1,-1,-1,-1,-1,-1l-1,0c0,1,0,1,0,1l1,0l0,1ZM106.5,73.5l-4,2c0,-1,0,-1,0,-1l4,-2ZM186.5,67.5l0,-1l0,-1l0,-9l1,-2l0,11c0,0,0,1,0,1c0,0,0,1,-1,1ZM179.5,65.5l1,0c1,0,1,0,1,0c0,0,0,-1,0,-1l0,-2l0,-6l0,-1c-1,0,-1,0,-1,0c0,0,1,-1,1,-1c0,0,0,-1,0,-1c0,0,0,1,0,1l1,0c0,1,0,1,1,1c-1,0,-1,0,-1,1l0,1l0,-1c0,1,0,1,0,1c0,0,0,1,0,2c0,0,0,1,0,2c0,1,0,1,0,1l0,2c0,1,0,1,0,1c0,1,0,1,-1,1c0,0,0,1,0,1c-1,0,-1,0,-1,0c0,0,-1,0,-1,0l-1,0c0,0,-1,0,-1,0c0,0,-1,0,-1,-1c0,0,-1,0,-1,0l0,-1c-1,0,-1,1,-1,1l-1,0l0,1c-1,0,-1,0,-1,0l-1,0l-1,0l-1,0c0,1,0,1,0,1c0,1,0,2,-1,2c0,0,0,1,0,1c0,0,-1,0,-1,1c0,0,-1,0,-1,0c0,0,0,1,-1,1l-1,0c-1,0,-1,0,-2,-1l-1,0c1,0,1,0,1,0l1,0c0,0,1,0,1,0c1,-1,1,-1,2,-1l0,-1c1,0,1,0,1,0c0,-1,0,-1,1,-1c0,-1,0,-1,0,-2c1,0,1,0,1,0l-1,-1l0,-1c0,0,0,-1,0,-1c0,0,0,1,1,1l1,0l1,0c1,0,1,0,1,0l1,0c0,0,0,-1,1,-1l-1,0c0,0,-1,-1,-1,-1l-1,0l1,-1c1,-1,1,-1,1,-1c1,0,1,0,1,0l1,0l1,0l0,1c1,0,1,0,1,0l0,1c-1,1,-1,1,-1,1c0,1,0,1,0,1l1,0l1,0l1,0ZM179.5,49.5l1,0c0,0,1,0,1,0c1,0,1,0,1,0c1,0,1,0,1,0l0,1l-1,1c0,0,-1,0,-1,0c0,0,-1,0,-1,0l-1,0l2,0c0,0,1,-1,1,-1l-1,0c-1,0,-1,0,-2,0l0,-1ZM174.5,54.5l4,-2l-1,1l-4,2ZM168.5,62.5l-1,-1l1,-2l1,2ZM168.5,75.5l-4,2c0,-1,1,-1,1,-1l4,-2ZM162.5,70.5l-2,-1l-1,1l-1,0l1,-2l1,1l1,-1l2,1ZM159.5,67.5l-1,0l-1,0c0,1,0,1,0,1c-1,1,-1,2,-1,2c0,0,0,1,-1,1l0,1c-1,0,-1,0,-1,0c-1,0,-1,1,-1,1c-1,0,-1,0,-1,0l-1,0c0,0,-1,0,-1,-1c-1,0,-1,0,-1,0l1,0c1,0,1,0,2,0c0,-1,1,-1,1,-1c0,0,1,0,1,-1l1,0c0,-1,0,-1,0,-1c0,-1,1,-1,1,-2l0,-1l-1,0l0,-1c0,0,0,-1,0,-1c0,0,1,0,1,0c0,0,0,1,0,1l1,0l1,0l1,0c0,0,1,0,1,0c1,0,1,0,1,0c0,0,0,-1,0,-1c1,0,0,0,0,0l0,-1l0,-1l0,-1c0,0,1,0,1,0c0,0,0,1,0,1c0,0,0,1,0,1c0,1,0,1,0,1c0,1,0,1,0,1c0,1,0,1,0,1c-1,0,-1,1,-2,1c0,0,-1,0,-1,0ZM156.5,62.5l-2,-1l1,-2l1,2ZM156.5,75.5l-4,2c0,-1,0,-1,0,-1l4,-2ZM211.5,67.5l0,-1l0,-1l-1,-9l1,-2l1,11c0,0,0,1,-1,1c0,0,0,1,0,1ZM206.5,66.5c0,0,0,1,0,1c-1,0,-1,-1,-2,-1c0,0,0,-1,-1,-2c0,1,0,2,0,2c-1,1,-1,1,-2,1c-1,0,-1,0,-2,-1c0,0,0,-1,0,-2c0,0,0,1,0,1c0,0,-1,0,-1,0l0,1c-1,0,-1,0,-2,0c-1,0,-1,0,-1,0c-1,0,-1,-1,-1,-1c0,-1,0,-1,1,-1c0,-1,0,-1,0,-1c1,-1,1,-1,2,-1l1,-1l0,-1c1,-1,1,-1,1,-1l0,1l0,1l0,2c0,1,0,1,1,1l0,1c0,0,1,0,1,0c1,0,1,0,1,0c1,-1,1,-1,1,-1c0,-1,0,-2,0,-3c0,0,0,-1,0,-1c0,-1,-1,-1,-1,-1l0,-1l1,-1l0,2l1,2l0,2c0,0,0,1,0,1c1,0,1,0,1,1l1,0c0,0,1,0,1,-1c0,0,0,-1,0,-1l-1,-2l0,-1l0,-1c0,0,0,-1,0,-1l1,-1c0,0,0,1,0,1c0,1,0,1,0,1l0,2c1,1,1,2,1,2c0,1,0,1,-1,2c0,0,0,1,0,1c0,0,-1,0,-1,0ZM198.5,62.5c0,0,-1,0,-1,1c-1,0,-1,1,-1,1c0,0,1,0,2,0c0,0,0,-1,0,-1ZM201.5,53.5l-1,0l0,1l1,0c0,1,0,1,0,1l1,-1l0,-1l0,-1l1,1c0,0,0,1,0,1c1,0,1,-1,1,-1l0,-1l0,1l1,0l-1,0l0,1c0,1,0,1,0,1l-1,0l-1,0c0,1,-1,1,-1,1c0,0,-1,0,-1,0c0,0,0,-1,0,-1c0,0,0,-1,0,-1l0,-1ZM199.5,70.5l-5,2c1,0,1,-1,1,-1l4,-2ZM235.5,66.5c0,1,0,1,0,1l-1,0l0,-1c0,0,-1,0,-1,0l-1,-1l0,1c0,0,-1,1,-1,1l-1,0l-1,0l-1,0c0,0,0,1,0,1c0,1,0,1,0,1c0,1,0,1,0,2c-1,0,-1,1,-2,1c0,1,-1,1,-2,2c0,0,-1,0,-2,0c0,0,-1,0,-2,0c0,0,-1,-1,-1,-1c-1,0,-1,-1,-1,-1c0,-1,-1,-1,-1,-2l0,-1l1,0l0,-1l0,-1c1,0,1,-1,1,-1c0,1,0,1,0,1c0,1,0,1,-1,1l0,1c0,1,0,1,1,1c0,1,0,1,0,1c0,0,1,0,1,1c1,0,2,0,2,0c1,0,2,0,3,0c1,-1,1,-1,2,-1c0,-1,0,-1,0,-1l0,-1l0,-1l0,-1c0,0,-1,0,-1,0l0,-1l1,-2c0,1,0,1,0,1c0,0,1,0,1,0l1,0l1,0c1,0,1,0,1,0l1,0l0,-1c1,-1,1,-1,1,-2l1,0c1,0,1,0,1,0c1,1,1,1,1,1l0,1l0,1l0,1l-1,0ZM233.5,64.5l1,0l1,1c0,0,0,-1,0,-1c-1,0,-1,-1,-1,-1c0,0,-1,0,-1,1ZM234.5,70.5l-4,2c0,0,1,-1,1,-1l4,-2ZM223.5,65.5l-2,-1l1,-2l2,1ZM222.5,57.5l4,-2l-1,1l-4,2ZM285.5,67.5l0,-1l0,-1l-1,-9l1,-2l1,11c0,0,0,1,0,1c-1,0,-1,1,-1,1ZM277.5,65.5c1,0,1,0,1,0c1,0,1,0,1,0c0,0,1,0,1,0c0,0,0,-1,0,-1l0,-2l-1,-6l0,-1c0,0,0,-1,0,-1c1,0,1,-1,1,-1c0,0,0,1,0,1c1,1,1,1,1,1l0,1l0,1l0,-1c0,1,0,1,0,1c0,0,0,1,0,2c0,0,0,1,0,2c0,1,0,1,0,1l0,2c0,1,0,1,0,1c-1,1,-1,1,-1,1c0,0,0,1,-1,1l-1,0l-1,0c-1,0,-1,0,-2,0c0,-1,0,-1,-1,-1l-2,-2c0,-1,-1,-1,-1,-1l-1,-1c0,1,0,1,0,1l1,0l-1,1c0,1,0,1,0,1c0,0,0,1,0,1c-1,0,-1,0,-1,1l-1,0c0,0,-1,0,-1,0l-1,0l-1,0c0,0,-1,0,-1,0l-1,0l0,-1c-1,0,-1,0,-1,0l-1,0c0,1,0,1,-1,1l-1,0c-1,0,-1,0,-1,0c0,0,-1,0,-1,0c0,-1,0,-1,0,-1c0,0,-1,0,-1,0l-1,0c0,1,-1,1,-2,1l-2,1c-1,0,-1,0,-1,0l-1,0l-1,0c-1,0,-3,0,-4,0c-1,-1,-1,-1,-2,-1c0,-1,-1,-1,-1,-1c0,-1,0,-1,0,-1c0,0,0,-1,0,-1c0,-1,0,-1,0,-1c1,-1,1,-1,1,-2l1,1c-1,0,-1,0,-1,0c0,1,0,1,0,1c0,1,0,1,0,2c1,0,1,0,2,1l1,0l1,0c1,0,2,0,3,0c1,0,1,0,2,0c0,0,1,0,1,0l1,0c0,0,1,0,1,0c1,-1,1,-1,2,-1c1,-1,1,-1,1,-1l0,1l1,0l1,0c1,0,1,0,1,0c1,0,1,0,2,0l0,-1c0,0,1,0,1,0l0,1c0,0,1,0,1,0l1,0l1,0l1,0c1,0,1,0,1,0c0,0,1,0,1,0c0,0,1,0,1,-1c0,-1,0,-1,0,-1c0,-1,-1,-1,-1,-1l0,-1c-1,0,-1,0,-1,0c-1,0,-1,-1,-1,-1c-1,0,-1,0,-1,0l-1,0c0,-1,0,-1,0,-1c0,-1,0,-1,0,-1c0,0,0,-1,0,-1c1,0,1,0,1,0c0,-1,0,-1,0,-1c1,0,2,-1,3,-1c1,-1,3,-1,4,-2c2,0,3,-1,3,-1c1,0,1,0,1,0l-1,2c-1,0,-2,0,-3,1c-2,0,-3,1,-4,1c-2,1,-2,1,-3,2l1,1c0,0,1,0,1,0l1,0l0,1c1,0,2,1,2,1c1,0,1,1,2,1c0,1,1,1,1,2l2,1l1,0ZM109.5,52.5c0,0,0,-1,1,-1l1,0c0,0,1,0,1,0c1,1,1,1,1,1c0,1,-1,1,-1,1c0,0,0,1,0,1c0,0,-1,0,-1,0c-1,0,-1,0,-1,0l-1,0l2,0c0,-1,1,-1,1,-1l-1,-1c-1,0,-1,0,-2,1l-1,0c0,-1,0,-1,0,-1c1,0,1,0,1,0ZM158.5,54.5l1,0l1,0c0,0,1,0,1,0c1,0,1,0,1,1c0,0,-1,1,-1,1l0,1c-1,0,-1,0,-1,0c-1,0,-1,0,-1,0l-1,0l1,-1c1,0,2,0,2,-1c0,0,-1,0,-1,0l-1,0l-1,0l-1,1l0,-1l1,-1ZM277.5,49.5c1,0,1,0,1,0c1,0,1,0,2,0c0,0,1,0,1,0c1,0,1,0,1,0l0,1c0,0,-1,0,-1,1l-1,0c-1,0,-1,0,-1,0l-1,0l1,0c1,0,2,-1,2,-1c0,0,-1,0,-1,0l-1,0c0,0,-1,0,-1,0l-1,0l0,-1ZM276.5,70.5l-4,2c0,-1,0,-1,0,-1l4,-2ZM263.5,62.5l-1,-1l-1,1l-1,-1l1,-1l1,1l1,-2l1,1ZM249.5,72.5l-1,-1l1,-2l1,1ZM251.5,74.5l-4,2c0,0,0,-1,0,-1l4,-2ZM326.5,59.5l-2,-1l-1,1l-1,-1l1,-1l1,1l1,-2l1,1ZM323.5,67.5l-1,0c-1,0,-1,0,-1,0c0,0,-1,0,-1,0c0,-1,0,-1,0,-1c-1,0,-1,-1,-1,-1l0,-1c0,0,-1,1,-1,1c0,0,-1,0,-1,0l-1,0c0,0,0,1,0,1l0,1c0,1,-1,1,-1,1c0,1,0,1,0,2c0,0,-1,0,-1,0c0,0,0,1,0,1c0,0,-1,0,-1,0l-1,0c0,1,0,1,0,1c-1,0,-1,0,-1,0l-1,0c-1,0,-1,-1,-1,-1l-1,0c0,0,1,0,1,0l1,0l1,0c0,0,0,-1,1,-1c1,0,1,-1,1,-1c0,0,1,-1,1,-1c0,-1,1,-1,1,-1c0,-1,0,-1,0,-1l0,-2c1,0,1,0,1,0l1,-1l1,0c0,0,1,0,1,0c0,-1,0,-1,0,-1l1,0l0,1c0,1,0,1,0,1l0,1c0,0,1,0,1,0c0,0,1,0,1,0l1,0c1,0,1,0,2,0c1,0,1,0,1,0l0,-1l0,-1l-1,0l0,-1l1,-1l1,1l0,1l0,1c0,1,0,1,0,1c0,1,-1,1,-1,1c0,0,0,1,-1,1c-1,0,-1,0,-2,0ZM323.5,51.5l5,-2l-1,0c0,1,0,1,0,1l-4,2ZM318.5,61.5l-1,-1l1,-2l1,1ZM314.5,62.5l-1,-1l0,-2l2,1ZM316.5,75.5l-4,2c0,-1,0,-1,0,-1l4,-2ZM309.5,70.5l-1,-1l-1,1l-1,0l0,-2l2,1l1,-1l1,1ZM306.5,67.5l-1,0c-1,0,-1,0,-1,0c-1,-1,-1,-1,-1,-2l0,1l0,1c0,1,0,2,-1,2c0,1,0,1,-1,2c-1,0,-1,1,-1,1c-1,0,-1,0,-2,0c0,0,-1,0,-1,0l-1,0c0,0,-1,0,-1,0c0,0,-1,0,-1,-1c0,0,-1,0,-1,-1c0,0,0,-1,0,-1c0,-1,0,-1,0,-2c0,0,0,-1,1,-1l0,-1l1,0l-1,0l0,1c0,1,0,1,0,2c0,0,0,1,1,1c0,1,1,1,1,1c1,0,1,0,1,0c1,0,2,0,3,0c1,-1,1,-1,2,-2l0,-1l0,-3l0,-1c0,0,0,-1,0,-1l-1,-7l1,-2l1,11c0,0,0,1,1,1c0,0,1,0,1,0l1,0c1,0,1,0,2,0c0,0,1,0,1,0c0,0,0,-1,0,-1l0,-1c0,0,-1,0,-1,0l0,-1l1,-1c0,0,0,1,0,1l1,0c0,0,0,1,0,1c0,1,0,1,0,1c0,1,0,1,0,1l-1,0c0,1,0,1,0,1c0,0,-1,1,-1,1c-1,0,-1,0,-2,0ZM296.5,51.5l0,-1c1,0,1,0,1,0c1,0,1,1,1,1c0,0,0,1,0,1c0,0,0,1,-1,1l1,0l0,1l-1,0l-1,1c0,0,-1,0,-1,0l0,1l-1,0l0,-1l1,0c0,0,0,-1,0,-1l1,0l0,-1c0,0,-1,-1,-1,-1c0,0,1,0,1,-1ZM297.5,51.5l-1,0c0,0,0,1,0,1l1,0ZM353.5,64.5c0,1,0,2,0,3c-1,0,-1,0,-1,0l0,1c0,0,-1,0,-1,1l1,0l0,1l-1,0l0,1l-1,0c0,0,-1,1,-1,1l-1,0l-1,1l-1,0l-1,0l0,1l-1,1l-2,0l0,-1l-1,-1c0,0,-1,0,-1,0c-1,-1,-2,-1,-2,-1l-1,0l0,-1l-1,0l-1,-1l-1,0l0,-1l1,0l0,-1l-1,0l0,-1l0,-1l-1,0c0,-1,0,-1,0,-1l0,-1l0,-1l1,0c0,0,0,-1,0,-1c0,-1,0,-1,0,-1l1,-1l-1,0l0,-1l1,0l0,-1l1,0l1,-1l2,0l1,-1l1,0l1,-1c0,-1,0,-1,0,-1l2,0l1,1l0,1l1,0l2,1l1,0l1,1l1,0l0,1c1,0,1,0,1,1l1,0c0,0,-1,0,-1,0l-1,0l1,1l0,1l1,0l0,1l0,1ZM344.5,75.5l0,-1l1,0l0,-1l1,-1c1,0,1,0,1,0c1,0,1,0,1,0c1,-1,1,-1,2,-1l0,-1c1,0,1,0,1,0l1,-1l-1,0l0,-1l1,0l0,-1l0,-1l0,-1l0,-1c0,0,0,-1,0,-2l0,-1l-1,0l0,-1l1,0c0,-1,-1,-1,-1,-1l-1,-1l-1,0l0,-1l-2,0l-1,-1c0,0,-1,0,-1,0l-1,-1c0,-1,0,-1,0,-1l-2,0l0,1l-1,1c0,0,-1,0,-1,0l-2,1l-1,0l0,1l-1,0l0,1l-1,0l-1,1l1,0l0,1l-1,1l0,1l0,1l0,1l0,1l0,1l0,1l1,0l0,1l-1,0l1,1l1,0l0,1l1,0l1,1l1,0l1,0c0,1,1,1,1,1l1,1c0,0,0,1,0,1ZM349.5,60.5l-1,0l0,-1l-1,0l-1,0c0,-1,0,-1,0,-1l1,0c1,0,1,0,1,0l0,1c1,0,1,0,1,0ZM350.5,69.5l-1,1l-1,1l-1,0l-1,0c1,0,1,0,1,-1l1,0c0,0,1,-1,1,-1ZM345.5,71.5c0,1,0,1,0,1c-1,1,-1,1,-1,1l-2,0l-1,-1l0,-1c1,0,1,-1,1,-1l2,0l1,1ZM345.5,58.5c0,0,-1,1,-1,1l-2,0l-1,-1c0,-1,0,-1,0,-1l1,0l0,-1l2,0l1,1ZM344.5,60.5l1,0l1,0l1,0l1,1l1,0l1,0l0,1l0,1l0,1l1,0l0,1c-1,1,-1,1,-1,1l0,1l0,1c0,0,-1,0,-1,0l-1,0l-1,1l-1,0l-1,0c-1,0,-1,0,-1,0l-2,0c0,0,-1,0,-1,0c-1,0,-1,0,-2,0l-1,-1l-1,0l-1,-2l0,-1l0,-1c0,-1,0,-1,0,-1l0,-1l0,-1c1,0,1,0,1,0l1,0l1,0l0,-1l1,0l1,0l1,0ZM344.5,69.5l1,0l1,0c0,0,1,0,1,0l0,-1l1,0c0,0,0,-1,0,-1l1,1l1,-1l0,-1l0,-1l0,-1c0,0,0,-1,0,-1c0,-1,0,-1,0,-1c-1,-1,-1,-1,-1,-1l-1,0l-1,0l0,-1l-1,0c-1,0,-1,0,-1,0l-1,0l0,1l-2,0l0,-1l-1,0c-1,0,-1,0,-1,0l-1,0l0,1c-1,0,-1,0,-1,0l-1,0l0,1l-1,0l0,1l0,1l0,1l0,1c1,1,1,2,1,2l1,-1c0,0,0,1,1,1l0,1l1,0l1,0l1,0l0,-1l2,0ZM343.5,63.5l0,1c0,0,1,0,1,1l0,1c-1,1,-1,1,-1,1l0,-1c0,-1,0,-2,0,-2ZM337.5,60.5l0,-1l1,0l0,-1l1,0l1,0l0,1c0,0,-1,0,-1,0l-1,0l0,1l-1,0ZM337.5,69.5c0,0,1,1,1,1l1,0l1,1l-1,0c-1,0,-1,0,-2,-1l0,-1ZM380.5,64.5l-2,0c0,0,-1,0,-1,0l-1,1c0,0,-1,0,-1,0l-1,0l-1,1l-1,0l-1,1c0,0,-1,0,-2,0l-1,0l-2,0c-1,0,-1,0,-1,0c-1,0,-1,-1,-1,-1l0,1l0,1c0,1,0,1,-1,1l-1,-1c0,0,0,-1,0,-1l-1,-1l-1,0c0,0,0,1,-1,1c0,1,0,1,0,1l0,1c0,1,0,1,0,1l1,2l0,2c0,1,0,1,0,1l0,1l0,1l0,-1l-1,0l0,-1l0,-1l0,-3l-1,-1l0,-1l0,-1l0,-1l1,0c0,-1,0,-1,0,-2l1,0l0,-1l1,0l1,-1c1,1,1,1,2,2l2,0l1,0l1,0l1,0l1,0c0,0,1,0,1,0c1,0,1,0,2,0l1,-1l1,0l-1,-1l-1,0l-1,0l-1,0l-1,0l-1,0c1,-1,1,-1,1,-1c0,-1,1,-1,1,-1l1,0c0,0,1,0,1,0l1,0l2,1l1,0c0,1,0,1,1,1l1,0l1,0l1,0ZM367.5,55.5c-1,1,-2,1,-2,1l-1,0l-1,0l0,-1c0,1,-1,1,-1,1l0,-1l1,0c1,0,1,0,2,0l1,0l1,0ZM305.5,50.5c1,0,1,0,1,0c1,0,1,0,2,0c0,0,1,0,1,0c1,0,1,0,1,0c0,1,0,1,0,1c0,0,-1,0,-1,1l-1,0l0,1c-1,0,-1,0,-1,0l-1,0l1,-1c1,0,2,-1,2,-1c0,0,-1,0,-1,0l-1,0c0,0,-1,0,-1,0l-1,0c0,-1,0,-1,0,-1ZM316.5,52.5l1,0c0,0,1,0,1,0c1,0,1,0,2,0c0,1,0,1,0,1l0,1c-1,0,-1,0,-1,0c-1,0,-1,0,-1,1c0,0,-1,0,-1,0c0,0,-1,0,-1,0l2,-1c0,0,1,0,1,-1c-1,0,-1,0,-1,0c-1,0,-1,0,-1,0c-1,0,-1,0,-1,0c0,-1,0,-1,0,-1ZM83.5,46.5c0,1,0,2,0,3c0,1,0,1,0,1c-1,0,-1,0,-1,0c-1,0,-1,0,-1,0c0,1,0,1,-1,1l1,-1l1,0c0,0,0,-1,0,-1l0,-1l-1,0c0,0,-1,0,-1,0c0,-1,0,-1,0,-1c0,0,0,-1,0,-1l1,1c0,0,1,0,1,1c0,0,0,1,0,1c1,0,1,0,1,0c0,-1,0,-1,0,-1l0,-2ZM261.5,55.5c0,-1,-1,-1,-1,-2c0,0,0,-1,0,-1l0,-1c1,0,1,0,1,1l0,1c0,1,0,1,0,1l0,1ZM202.5,50.5c0,-1,0,-1,0,-2c-1,0,-1,-1,-1,-1l0,-1l1,0l0,1l0,1c0,1,0,1,0,1l0,1ZM373.5,57.5c0,-1,0,-1,0,-2c0,-1,-1,-1,-1,-2l1,0l0,-1c0,1,0,1,0,1c0,1,0,1,0,1l0,1l1,0l0,1c-1,0,-1,0,-1,0c0,1,0,1,0,1ZM343.5,47.5l-1,0l1,-1ZM343.5,50.5c0,0,-1,0,-1,0l0,-1c-1,0,-1,0,-1,0l-1,0c0,0,0,-1,0,-1l0,-1l0,-1l1,0c0,-1,0,-1,0,-1c0,0,1,-1,1,-1l-1,0l-1,0c1,0,1,0,1,0l1,0l1,0c1,0,1,0,1,0c-1,0,-1,0,-1,0c-1,0,-1,1,-1,1l-1,0c0,1,0,1,0,1c0,0,-1,1,-1,1l1,0c0,0,0,1,0,1c0,0,1,1,1,1c1,0,1,0,1,0l1,0l1,0ZM345.5,92.5l-1,0l1,0Z" class="g1_11" />
<path fill-rule="evenodd" d="M305.5,501.5l-4,2c0,0,0,-1,1,-1l3,-2ZM192.5,489.5l1,0l1,0c0,0,1,0,1,0c1,0,1,0,1,1c0,0,-1,0,-1,1c-1,0,-1,0,-1,0c0,1,0,1,0,1c-1,0,-1,0,-1,0l-1,0l1,-1c1,0,2,0,2,-1l-1,0c-1,0,-1,0,-2,0l-1,0c1,0,1,-1,1,-1ZM161.5,479.5c0,0,-1,1,-1,1c-1,0,-1,1,-1,1l0,1c0,1,0,1,0,1c0,0,1,0,1,0l0,1c1,0,1,0,1,0c1,0,1,0,1,0l1,-1l0,1l-1,0c-1,0,-1,0,-1,0c0,0,-1,0,-1,0l-1,0c0,-1,0,-1,0,-1l-1,-1l1,0c0,-1,0,-1,0,-1c0,-1,0,-1,0,-1c0,-1,0,-1,0,-1c0,0,0,-1,0,-1c0,0,1,0,1,0c-1,0,-1,0,-1,0c0,1,0,1,0,1c0,0,1,0,1,0l1,0ZM173.5,499.5c0,0,0,1,0,2l0,1l-1,0l0,1l1,0l0,1l-1,0c-1,0,-1,0,-1,1l-1,0c0,0,0,1,-1,1l-1,0l-1,1l-1,0l-1,1l0,1l-1,0l-4,0l-3,0l0,-1l-1,-1c0,0,-1,0,-1,0c-1,0,-2,-1,-2,-1l-1,0l0,-1l-1,0l0,-1l-1,0l-1,0l0,-1l1,0l0,-1l-1,0l0,-1l0,-1c0,0,0,-1,-1,-1l0,-1l0,-1c0,0,1,0,1,0c0,0,0,-1,0,-1c0,0,0,-1,0,-1l1,-1l-1,0l0,-1l1,0l1,0l0,-1l1,0l0,-1l2,0l1,-1l1,0l1,-1c0,-1,0,-1,0,-1l3,0l4,0l1,1l1,0l0,1l1,0l1,1l1,0c1,0,1,1,1,1l1,0l1,1c0,0,1,0,1,1l-1,0l0,1l1,0l0,1l0,1l0,1ZM164.5,509.5l1,0l0,-1l0,-1l1,0l1,0c0,-1,1,-1,1,-1l1,0c0,0,1,-1,1,-1l1,0l0,-1l1,0l0,-1l1,0l-1,0l-1,0l1,-1l0,-1l1,0l0,-1l0,-1c0,-1,0,-2,0,-3l-1,-1l0,-1l1,0c-1,0,-1,-1,-2,-1l0,-1l-1,0l-1,0l-1,-1l-1,-1c-1,0,-1,0,-1,0l-1,-1c0,-1,-1,-1,-1,-1l-4,0l-1,0l-2,0l0,1l-1,1l-1,0l-1,1l-1,1l-1,0l-1,0l0,1l-1,0l-1,1l1,0l0,1l-1,1l0,1l0,1l0,1l0,1l0,1l1,1l0,1l-1,0l1,1l1,0l0,1l1,0l1,1l1,0l1,1c1,0,1,0,1,0l1,1c0,0,0,1,0,1l3,0ZM170.5,494.5l-1,0l0,-1l-1,0l-1,0c0,-1,0,-1,0,-1l1,0l1,0c0,0,0,1,0,1l1,0ZM170.5,503.5l0,1l-1,0l0,1l-1,0l-1,0l1,0l0,-1c1,0,1,-1,1,-1l1,0ZM166.5,506.5l-1,0c0,1,0,1,-1,1l-4,0l-3,0l0,-1c-1,0,-1,0,-1,0c0,-1,0,-1,0,-1c1,0,1,-1,1,-1l3,0l4,0c1,0,1,0,1,0l0,1l1,0ZM166.5,492.5l-1,1l-1,0l-4,0l-3,0l-1,-1c0,-1,0,-1,1,-1l0,-1l3,0l4,0c1,0,1,0,1,1l1,0ZM164.5,494.5l1,0c0,0,1,0,1,0c1,0,1,0,1,0c0,0,1,0,1,1l1,0l1,0l1,1l0,1l0,1l0,1c0,1,0,1,0,1l0,1c0,0,-1,0,-1,1l-1,0l-1,0l0,1l-1,0l-1,0c-1,0,-1,0,-1,0l-1,0l-4,0l-3,0c0,0,-1,0,-1,0c-1,0,-1,0,-1,0c-1,0,-1,0,-1,-1l-1,0l-1,0l-1,-2l0,-1c0,-1,0,-1,0,-1c0,-1,0,-1,0,-1l0,-1l1,-1l1,0l1,0l0,-1l1,0l1,0l1,0l3,0ZM164.5,503.5l1,0l1,0l1,0l1,-1c0,0,1,0,1,0l1,0l0,-1l1,-1l0,-1c0,-1,0,-2,0,-2c-1,-1,-1,-1,-1,-1c0,-1,0,-1,0,-1l-1,1l-1,-1l-1,-1l-1,0c0,0,-1,0,-1,0l-1,1l-4,0l-3,0l0,-1l-1,0c0,0,-1,0,-1,0l-1,0l0,1c-1,0,-1,1,-1,1l-1,-1l0,1l-1,0l0,1l0,1l0,1l0,1l0,1c1,0,1,1,1,1l1,0l1,0l0,1l1,0l1,0c0,0,1,0,1,0l0,-1l3,0l4,0ZM162.5,497.5l1,0l0,1l0,1l1,1l0,1l-1,0l0,-2l-1,-1c0,1,0,1,0,1l0,1l-1,0l0,1l0,-1c0,0,0,-1,1,-1l0,-1l0,-1ZM160.5,497.5c0,0,0,1,0,1l-1,0l0,1l0,1c0,0,0,1,0,1l-1,0l0,-1l0,-1l0,-1l0,-1c0,0,1,0,1,0c1,0,1,0,1,0ZM152.5,494.5l0,-1l1,0l0,-1l1,0l1,0l0,1l-1,0l-1,0l0,1l-1,0ZM152.5,503.5c1,0,1,1,1,1l1,0l0,1l1,0l-1,0c-1,0,-1,0,-2,-1ZM226.5,501.5l0,-1l0,-1l-1,-9l1,-2l1,11c0,0,-1,1,-1,1c0,0,0,1,0,1ZM218.5,499.5c0,0,1,0,1,0l1,0c1,0,1,-1,1,-1l0,-2l-1,-6l0,-1c0,0,0,-1,0,-1c0,0,0,-1,1,-1l0,1c0,1,0,1,1,1c0,0,0,1,0,1c0,0,-1,0,-1,1c0,0,0,1,0,2c0,0,0,1,0,2c0,1,0,1,1,2l0,1c0,0,-1,0,-1,0c0,1,0,1,0,1c0,1,0,1,0,1l-1,0c0,1,0,1,0,1c0,0,-1,0,-1,0l-1,0l-1,0c0,1,0,1,0,1c0,1,0,2,-1,2c0,0,0,1,0,1c0,0,-1,0,-1,1c0,0,-1,0,-1,0c0,1,-1,1,-1,1c0,0,-1,0,-1,0c-1,0,-1,0,-2,-1l-1,0c1,0,1,0,1,0l1,0c0,0,1,0,1,0c1,-1,1,-1,2,-1l0,-1c1,0,1,0,1,0c0,-1,0,-1,1,-1c0,-1,0,-1,0,-2c0,0,1,0,0,0l0,-1l0,-1l0,-1c0,1,0,1,0,1l1,0l1,0ZM213.5,490.5l0,1c0,0,1,0,1,0c0,0,0,-1,0,-1l1,0l0,-1l0,1l1,0l0,-1l0,-1l0,1l0,1c0,1,0,1,0,1l-1,0l-1,0c0,1,0,1,0,1c-1,0,-1,0,-1,0c0,0,0,-1,0,-1l0,-1ZM217.5,487.5l-5,3c0,-1,0,-2,0,-2l6,-2ZM209.5,498.5l-2,0c0,0,-1,0,-1,1l-1,0c0,0,-1,0,-1,0l-1,0l-1,1c0,0,-1,0,-1,0c0,0,-1,0,-1,1c-1,0,-2,0,-2,0l-1,0c0,0,-1,0,-1,0c0,0,-1,0,-1,0c0,-1,0,-1,0,-1c-1,0,-1,0,-1,1c-1,0,-1,0,-2,0l-1,0c0,0,-1,0,-1,0c0,0,-1,-1,-1,-1c0,1,0,1,-1,2c0,0,-1,0,-2,-1c0,0,-1,0,-1,0l-1,1l-1,1c0,0,-1,0,-2,1c-1,0,-2,0,-4,0l5,-2l1,-1c1,0,1,0,2,-1l0,-1c1,-1,1,-1,1,-2l1,0c1,0,1,0,2,1c0,0,0,1,1,1l1,0l1,0c0,0,1,0,1,0c0,0,1,0,1,0l0,-1c0,0,1,0,1,-1l0,1c0,1,0,1,1,1l1,0l1,0l1,0c0,0,1,0,1,0c1,0,1,0,1,0l2,-1l1,0l-1,-1l-1,0l-1,0l-1,0l-1,0l-1,0c0,-1,1,-1,1,-1c0,-1,0,-1,1,-1l1,0c1,0,1,0,1,0l1,0l1,1l1,1c1,0,1,0,1,0c1,0,1,0,1,0c1,0,1,0,2,0l1,0ZM202.5,504.5l-4,2c0,0,0,-1,0,-1l4,-2ZM196.5,504.5l-2,-1l0,2l-2,-1l1,-2l2,1l0,-1l2,1ZM188.5,500.5l0,-1c-1,-1,-1,-1,-1,-1l-1,0c0,1,0,1,0,1l1,0l0,1ZM185.5,489.5c0,-1,0,-1,0,-1c1,0,1,-1,1,-1c0,0,0,1,0,1c1,0,1,0,1,1l0,1l-1,0l1,0l0,1l0,1l-1,-1l-1,0l0,1c0,0,-1,1,-1,1l-1,0l-1,0l1,0l1,-1l1,-1l0,-1c0,0,-1,0,-1,0l0,-1c0,0,1,0,1,0ZM186.5,489.5l-1,0l1,1l0,-1ZM254.5,501.5l0,-1l0,-1l-1,-9l1,-2l1,11c0,0,0,1,-1,1c0,0,0,1,0,1ZM246.5,499.5c0,0,1,0,1,0c0,0,1,0,1,0c1,0,1,-1,1,-1l0,-2l-1,-6l0,-1c0,0,0,-1,0,-1c0,0,1,-1,1,-1l0,1c0,1,1,1,1,1c0,0,0,1,0,1l-1,1c0,0,0,1,0,2c0,0,0,1,1,2c0,1,0,1,0,2l0,1c0,1,0,1,-1,1c0,1,0,1,0,1c-1,1,-1,1,-1,1l-1,0c0,0,-1,0,-1,0l-1,0l-1,0c0,0,-1,-1,-1,-1l0,-1l0,-1c0,0,-1,0,-1,0c0,1,0,1,0,1l-1,0c-1,0,-1,0,-1,1l-1,0l0,1c0,1,0,1,0,1c0,1,-1,1,-1,2c0,0,-1,1,-1,1l-1,0l0,1c0,0,-1,0,-1,0l-1,0l-1,0l0,-1c-1,0,-1,0,-1,0l-1,0c1,0,1,0,1,0l1,0l1,0c1,0,1,0,1,-1c0,0,1,0,1,0l1,-1c0,0,0,-1,1,-1c0,0,0,-1,0,-1c1,-1,1,-1,1,-1l-1,0l1,-2c1,0,1,0,1,0l1,-1c0,0,1,0,1,0l1,-1l0,1l0,1l1,1l1,0l1,0ZM246.5,483.5c0,0,1,0,1,0c1,0,1,0,1,0c1,0,2,0,2,0c0,0,0,1,0,1l0,1c0,0,-1,0,-1,0l-1,0c0,0,0,1,-1,1c0,0,0,-1,-1,-1l2,0c1,0,1,-1,2,-1c-1,0,-1,0,-1,0c0,0,-1,0,-1,0c0,0,-1,0,-1,0c0,0,-1,0,-1,0c0,-1,0,-1,0,-1ZM242.5,505.5l-1,-1l1,-1l1,1ZM241.5,488.5l5,-2l-1,1l-4,2ZM237.5,490.5l-1,0l1,0l0,1c0,0,0,-1,1,-1l0,-1l0,1c1,0,1,0,1,0l0,-1l1,-1l0,1l0,1c0,1,-1,1,-1,1l-1,0c-1,1,-1,1,-1,1c0,0,-1,0,-1,0c0,-1,0,-1,0,-1l0,-1ZM238.5,485.5c0,-1,0,-1,0,-1c1,-1,1,-1,1,-1c1,0,1,0,1,0c0,1,0,1,0,1c0,1,0,1,0,1l0,1l0,1l-1,0l-1,1c0,0,0,1,-1,1c0,0,-1,0,-1,0c1,-1,2,-1,2,-2l0,-1l0,-1ZM239.5,485.5c-1,0,-1,0,-1,0l1,0l0,1l0,-1ZM279.5,501.5c-1,0,-1,-1,-2,-1c0,0,-1,0,-1,0l-1,0c0,0,-1,0,-1,0c0,1,0,1,-1,1l-1,0c0,0,-1,0,-1,0l-2,0c0,1,0,1,0,1c0,1,0,1,0,1c-1,1,-1,1,-1,2c0,0,-1,0,-1,0c0,1,-1,1,-1,1l-1,0c-1,0,-1,0,-1,0c-1,0,-1,0,-2,0c0,0,-1,0,-1,0c0,-1,0,-1,0,-1c0,0,1,1,1,1l1,0c0,0,1,0,1,-1c0,0,1,0,1,0c1,0,1,-1,1,-1c0,0,1,0,1,-1l1,0c0,-1,0,-1,0,-1l0,-1c-1,0,-1,0,-1,0c-1,0,-1,0,-1,0c0,0,0,-1,-1,-1l0,-1c1,-1,1,-1,1,-1c0,0,0,-1,0,-1l1,0c0,0,0,-1,0,-1c1,0,1,0,1,0c0,1,0,1,1,1l0,1c0,1,0,1,0,1c1,0,1,0,1,0c1,0,1,0,1,0c0,0,1,0,1,0l1,0l1,0c-1,0,-1,-1,-1,-1l0,-1c0,0,1,0,1,0c0,-1,0,-1,0,-1l0,-1c0,0,1,0,1,0c0,0,-1,0,-1,-1c0,0,1,0,1,0l0,-1c1,0,2,1,2,1c1,1,1,1,2,1c0,1,1,1,1,2l0,1c0,1,0,1,0,1c0,0,0,1,0,1c-1,0,-1,1,-1,1ZM276.5,496.5c-1,0,-1,0,-1,0c0,0,-1,1,-1,1l0,1c1,0,1,0,1,0c1,0,1,0,1,0c0,0,0,-1,0,-1l0,-1ZM277.5,496.5c0,1,0,1,0,1l0,1l2,1l0,-1l-1,-1c0,0,-1,0,-1,-1ZM272.5,482.5c0,0,0,-1,1,-1l1,0l0,1l0,1l0,1l0,1l-1,-1l0,1l-1,0c0,1,0,1,-1,1l-1,0l1,0l0,-1c0,0,1,0,1,0l1,-1l-1,0c0,-1,0,-1,0,-1c0,-1,0,-1,0,-1ZM273.5,482.5l0,1l0,-1ZM267.5,498.5l-1,1c1,0,1,0,1,0l1,0c0,-1,0,-1,0,-1c-1,0,-1,0,-1,0ZM263.5,491.5l5,-2l-1,1l-4,2ZM296.5,494.5l-2,-1l1,-1l2,0ZM295.5,501.5l-1,0c0,0,-1,0,-1,0c0,-1,-1,-1,-1,-1l0,-1c-1,0,-1,-1,-1,-1c0,1,0,1,0,1c-1,0,-1,0,-1,0l-1,0c-1,0,-1,0,-1,0l-1,0l0,-2l1,-1c0,0,1,0,2,-1c0,0,1,-1,1,-1c0,0,0,-1,0,-1l0,-1l0,2c1,0,1,0,1,1l0,1l0,2c0,0,1,1,1,1c1,0,1,0,1,0l1,0c1,0,1,0,2,0c0,0,1,0,1,-1c0,0,0,-1,0,-1c0,0,-1,-1,-1,-1l1,-2c0,1,0,1,0,1c0,0,0,1,0,1c1,0,1,0,1,0l0,1c0,1,0,1,0,1l0,1l-1,0l0,1c0,0,-1,0,-1,1c-1,0,-1,0,-2,0ZM294.5,486.5c0,1,0,1,0,1l1,0c0,-1,0,-1,0,-1l0,-1l1,1l1,-1l0,-1l0,1l0,1c0,1,0,1,-1,1l-1,0c0,1,-1,1,-1,1c-1,-1,-1,-1,-1,-1l0,-1l1,0ZM298.5,483.5l-6,3c1,-1,1,-2,1,-2l5,-3ZM291.5,495.5l-1,1l-1,0c0,1,0,1,-1,1l1,0l1,0c1,0,1,0,1,0ZM287.5,490.5c0,0,0,-1,0,-1c-1,-1,-1,-1,0,-2c0,-1,0,-1,0,-1l0,-1l1,0c0,0,1,0,1,0l-1,0l0,1l-1,1l0,1c0,0,0,1,0,1c0,0,1,0,1,0l1,0c0,1,0,1,0,1c0,0,0,1,0,1c0,0,-1,0,-1,0c0,0,-1,0,-1,-1ZM303.5,500.5l0,-1l0,-1l-1,-9l1,-2l1,10c0,1,0,1,0,1l-1,1c0,0,0,1,0,1Z" class="g2_11" />
</svg>