<?xml version="1.0" encoding="UTF-8" standalone="no"?>
<!DOCTYPE svg PUBLIC "-//W3C//DTD SVG 1.1//EN"
"http://www.w3.org/Graphics/SVG/1.1/DTD/svg11.dtd">
<svg version="1.1" xmlns="http://www.w3.org/2000/svg" xmlns:xlink="http://www.w3.org/1999/xlink">
<defs>
<style type="text/css"><![CDATA[
.g1_22{
fill: #1F1A17;
stroke: #1F1A17;
stroke-width: 1;
stroke-linecap: butt;
stroke-linejoin: miter;
}
]]></style>
</defs>
<path fill-rule="evenodd" d="M353.5,50.5l-1,0l0,-1c-1,0,-1,0,-1,0c0,0,-1,0,-1,0c0,0,0,-1,0,-1l0,-1l0,-1c0,-1,0,-1,1,-1c0,0,0,-1,0,-1l-1,0c1,0,1,0,1,0l1,0c0,0,1,0,1,0c0,0,1,0,1,0l-1,0l-1,0c0,0,0,1,-1,1c0,0,-1,0,-1,0c0,1,0,1,0,1c0,0,0,1,0,1c0,0,0,1,0,1c0,0,1,0,1,0c0,0,0,1,0,1c0,0,1,0,1,0l1,0l1,0l1,0ZM242.5,58.5l-1,-1l0,-1c0,-1,0,-1,0,-2c0,0,0,-1,0,-1c0,0,1,0,1,0l0,-1c1,0,1,0,1,0l0,1l-1,0l0,1l0,1l-1,0c0,1,0,1,1,1c0,0,0,1,0,0c1,0,1,0,1,0l0,1c1,1,0,1,0,1l-1,0ZM377.5,54.5c1,0,1,0,1,0c1,0,1,0,2,0c0,0,1,0,1,0c0,0,1,0,1,0c0,0,0,1,-1,1l0,1c0,0,-1,0,-1,0l-1,0l-1,0l1,0c1,0,1,-1,2,-1c-1,0,-1,0,-1,0c0,0,-1,0,-1,0c0,0,-1,0,-1,0c0,0,-1,0,-1,0l0,-1ZM218.5,58.5l1,0c0,0,1,0,1,0c1,0,1,0,1,0c1,0,1,0,1,0c0,0,0,1,0,1l-1,1c0,0,-1,0,-1,0c0,1,-1,1,-1,1l-1,0l0,-1l2,0c0,0,1,-1,1,-1l-1,0c-1,0,-1,0,-2,0c0,-1,0,-1,0,-1ZM156.5,57.5c1,0,1,-1,1,-1c1,0,1,0,2,0c0,0,1,0,1,0c0,1,1,1,1,1c-1,1,-1,1,-1,1c0,1,0,1,-1,1c-1,0,-1,0,-1,0l-1,0l1,0c1,-1,1,-1,2,-1c0,0,-1,0,-1,-1l-1,0c0,0,-1,0,-1,1l-1,0c0,-1,0,-1,0,-1ZM96.5,56.5c0,0,1,0,1,-1c1,0,1,0,1,0c1,0,1,0,2,1c0,1,0,1,0,1c0,1,-1,1,-1,1c0,0,-1,0,-1,0l-1,0l-1,0l2,0c1,-1,1,-1,2,-1c-1,0,-1,0,-1,0c0,0,-1,0,-1,0c0,0,-1,0,-1,0c0,0,-1,0,-1,0c0,0,0,-1,0,-1ZM193.5,52.5l0,-1c0,0,0,-1,0,-1c0,-1,0,-1,-1,-2l1,0l0,-1c0,0,0,1,1,1c0,1,0,1,0,1l0,1c0,0,0,1,0,1c0,0,-1,1,-1,1ZM80.5,66.5c0,1,0,2,0,2c0,0,0,1,0,1l-1,0c0,1,0,1,0,1l1,0l0,1l-1,0l-1,1l0,1l-1,0l-1,0l0,1l-1,0l-1,0c-1,0,-1,0,-1,0l0,1l-1,1c-1,0,-1,0,-1,0l-4,0l-1,-1c0,0,-1,-1,-1,-1c-1,0,-2,0,-2,-1l-1,0l-1,0l0,-1l-1,0l0,-1l-1,0l0,-1l1,0l-1,-1l0,-1l-1,-1l0,-1l0,-1l1,-1l0,-1l1,-1l-1,0l0,-1l1,0l0,-1l1,0l0,-1l1,0l2,-1l1,0l0,-1l1,0l1,-1l0,-1l4,0l1,1l0,1l1,0l1,1l1,0l1,1c1,0,1,0,1,0l1,1c1,1,2,1,2,1c0,0,0,1,0,1l-1,0l0,1l1,0l0,1l0,1ZM71.5,76.5l1,0l0,-1l1,0l1,-1l1,0l0,-1l1,0c0,0,1,0,1,-1l1,0l1,-1l1,0l-2,-1l1,0l0,-1l0,-1l1,0l0,-1l0,-1c0,-1,0,-2,0,-2l-1,-1l0,-1l-1,0l2,-1c-1,0,-1,0,-2,-1l-1,-1l-1,0l-1,-1l-2,0l0,-1l-1,0l0,-1c-1,0,-1,0,-1,0l-4,0l0,1l-1,0c0,1,-1,1,-1,1l-2,1l-1,0l-1,0l0,1l-1,0c0,1,0,1,-1,1l1,1l-1,1l0,1l0,1c0,0,0,1,0,1l0,1l0,1l0,1l1,0l0,1l-1,1l1,0l0,1l1,0l1,1l1,0l1,1l1,0c0,0,1,0,1,1l1,0l0,1ZM77.5,61.5l-1,1l0,-1l-1,0l0,-1l-1,0l-1,0c1,0,1,0,1,0l0,-1l1,0l0,1c1,0,1,0,1,0l0,1l1,0ZM77.5,71.5l-1,1l-1,0l0,1l-1,0l0,-1l1,0c1,-1,1,-1,1,-1l1,0ZM73.5,73.5c0,0,-1,1,-1,1l-1,0l-4,0l-1,0l0,-1c0,0,0,-1,0,-1c1,0,1,0,1,0l4,0c0,0,1,0,1,0l1,1ZM73.5,59.5c0,0,-1,1,-1,1l-1,0l-4,0l-1,0l0,-1c0,0,0,-1,0,-1l1,0l4,0c1,0,1,0,1,0l0,1l1,0ZM71.5,62.5c0,0,1,-1,1,-1c0,0,1,0,1,0c0,0,1,0,1,0c0,0,1,1,1,1l0,1l2,-1l0,1l1,1l0,1l0,1l0,1l0,1l-1,0c0,1,0,1,0,1l0,1l-1,-1c0,0,-1,0,-1,1l-1,0l0,1l-1,0l-1,0l-1,-1l-4,0l0,1c0,0,-1,0,-1,0c-1,0,-1,0,-2,0c0,-1,0,-1,-1,-1l0,-1l-1,1l0,-1l-1,-1l0,-1l0,-1c0,0,0,-1,0,-1c0,0,0,-1,0,-1l0,-1c1,-1,1,-1,1,-1l1,1l1,-1l1,-1l1,0l1,0l0,1ZM71.5,70.5l1,0l0,1l1,0c1,0,1,0,1,0l0,-1l1,0l0,-1l1,0l1,0l0,-1l0,-1l1,0l0,-1c0,-1,0,-1,0,-2c-1,0,-1,-1,-1,-1l-1,0c-1,0,-1,0,-1,0l0,-1l-1,0l0,-1l-1,0c0,0,-1,0,-1,0l0,1l-1,0l-4,0l-1,-1c-1,0,-1,0,-1,0c0,0,0,1,-1,1l0,1c-1,0,-1,0,-1,0l-1,0l-1,1l0,1l0,1c0,0,0,1,0,1l0,1c1,1,1,1,1,1l1,0l1,0l0,1l1,0l0,1l1,0l1,-1l4,0ZM69.5,64.5l0,1l1,0l0,1l0,1c1,0,1,0,1,1l-1,0l0,-1l-1,-1c0,1,0,1,0,1l-1,1l0,1l0,-1c0,-1,0,-1,1,-2l0,-1c0,-1,0,-1,0,-1ZM62.5,61.5l0,-1l1,0l1,0l0,-1l1,0l0,1c0,0,-1,0,-1,0l-1,1l-1,1l0,-1ZM62.5,71.5c1,0,1,0,1,1l1,0l1,0c0,1,0,1,0,1l-1,0c-1,-1,-1,-1,-2,-1l0,-1ZM117.5,68.5c0,0,-1,0,-1,0l-1,0l0,-1l-1,0l-1,0c0,1,0,1,0,1l-1,0l0,1l-1,0l-1,0l-1,0l-1,0l1,0c0,0,0,1,0,1l0,1c0,0,0,1,0,2c-1,0,-1,1,-2,1c0,0,0,-1,-1,-1c0,0,-1,-1,-1,-1c0,-1,-1,-2,-1,-3c-1,0,-1,0,-1,0l-1,0l-1,-1c0,0,-1,0,-1,0c0,-1,-1,-1,-1,-1l0,-1l0,-1c0,0,0,-1,0,-1c0,1,-1,2,-2,2c0,0,0,1,0,1c0,1,0,1,0,1c0,1,0,2,-1,2c0,1,0,1,-1,2c0,0,-1,1,-2,1c0,0,-1,0,-2,0c0,0,-1,0,-1,0c-1,0,-1,0,-2,0c0,-1,-1,-1,-1,-2c0,0,0,-1,0,-1c0,-1,0,-1,0,-1c0,0,0,-1,0,-1l0,-1c1,0,1,0,1,-1l1,0c-1,0,-1,0,-1,1l0,1l0,1c0,0,0,1,0,1l1,1c0,0,1,0,1,0c0,0,1,0,2,0c0,0,1,0,2,0c0,0,1,-1,1,-1c0,0,1,0,1,0c0,-1,0,-1,0,-1l0,-1l0,-1c0,0,-1,0,-1,0c0,-1,0,-1,0,-1c0,-1,0,-1,0,-1l-1,-1l1,-1l1,0c0,0,0,1,0,1l1,0l1,0c0,0,1,0,1,-1l0,-1c1,0,1,0,1,1l0,1l0,1l0,1c1,1,1,1,1,1c0,0,1,0,1,0l1,0l1,0l1,0c0,-1,0,-1,0,-2l1,-1c1,-2,2,-2,2,-2l1,0l0,1l0,1c0,1,0,1,-1,1c0,1,-1,2,-2,2l2,0l2,0l1,0l1,0c0,0,1,0,1,0l0,-1l1,-1c0,0,0,-1,1,-1c0,-1,1,-1,1,-1c0,0,1,0,1,1c0,0,0,1,0,1l0,1l1,0l0,1c-1,0,-1,0,-1,0c0,0,0,1,0,1ZM115.5,66.5l1,0c0,0,0,-1,0,-1l-1,0c0,1,0,1,0,1ZM113.5,54.5l0,1l1,0l0,-1l0,-1l0,1c0,0,1,0,1,0c0,1,0,1,0,1c0,0,0,-1,1,-1l0,-1l0,1l0,1l-1,1c0,0,-1,0,-1,0l0,-1l0,1c0,0,-1,0,-1,0l-1,0l0,-1l0,-1ZM117.5,51.5l-6,3c1,-1,1,-1,1,-1l5,-3ZM107.5,64.5l-1,0l0,1l-1,1c1,0,2,0,2,-1c1,0,1,0,1,-1l-1,0ZM105.5,69.5l0,1c1,1,1,1,1,1l0,1l1,0c1,0,1,0,1,-1c0,0,1,0,1,0c0,0,-1,-1,-2,-1c0,-1,-1,-1,-2,-1ZM104.5,75.5l-3,2c0,-1,0,-1,0,-1l4,-2ZM101.5,72.5l-1,-1l-1,1l-2,-1l1,-1l2,0l0,-1l2,1ZM91.5,64.5l-1,-1l1,-1l1,1ZM87.5,79.5c0,0,0,-1,0,-1l4,-2l0,1l-4,2ZM84.5,83.5c1,-1,1,-1,1,-1l4,-2l0,1l-1,0l-4,2ZM145.5,68.5l-1,0l-1,0l0,-1l-1,0l-1,0c0,1,0,1,0,1l-1,0l0,1l-1,0l-1,0c-1,0,-2,-1,-2,-1c-1,-1,-1,-1,-1,-2l-1,-9l1,-2l1,10l0,1c1,1,1,1,2,1l1,0l1,0c0,0,1,0,1,0l0,-1l1,-1c0,0,1,-1,1,-1c0,-1,1,-1,1,-1c0,0,1,0,1,1c0,0,0,1,0,1l1,1l0,1l-1,0c0,0,0,1,0,1ZM143.5,66.5l1,0c0,0,0,-1,0,-1c-1,0,-1,0,-1,0c0,1,0,1,0,1ZM141.5,54.5l0,1c0,0,1,0,1,0l0,-1l0,-1l0,1l1,0c0,1,0,1,0,1c0,0,1,-1,1,-1l0,-1l0,1l0,1l-1,1l-1,0l0,-1l0,1c0,0,-1,0,-1,0c0,0,-1,0,-1,0l0,-1l1,-1ZM145.5,51.5l-6,3c1,-1,1,-1,1,-1l5,-3ZM133.5,53.5l0,-1c0,0,1,1,2,1c0,0,1,0,1,0l1,0l1,0c-1,0,-1,0,-1,1l-1,0l-1,0l-1,0l-1,-1c0,0,-1,0,-1,0c0,1,0,1,0,1c0,-1,0,-1,1,-1ZM127.5,66.5l1,-1l0,-1c1,0,1,0,1,0l1,0c0,0,1,1,1,1l-1,0l0,1l-1,0c0,0,-1,0,-1,0l0,1c0,0,1,0,1,0l1,0c1,0,1,0,1,0c0,0,0,1,0,1l-5,2c1,0,1,-1,1,-1c1,-1,1,-1,1,-1c0,0,-1,0,-1,0c0,-1,0,-1,0,-1c0,0,0,-1,0,-1ZM126.5,74.5c0,0,1,0,1,0l4,-3l0,1c-1,0,-1,0,-1,1l-4,2l0,-1ZM124.5,78.5l1,0l3,-3l0,1l0,1l-4,2l0,-1ZM170.5,68.5l-1,0l-1,-1l-1,0c0,1,0,1,-1,1l0,1l-1,0l-2,0c0,1,0,1,0,1c0,1,0,2,0,2c-1,1,-1,1,-2,2c0,0,-1,1,-1,1c-1,0,-2,1,-3,1c0,0,-1,-1,-2,-1c0,0,-1,0,-1,0c0,-1,-1,-1,-1,-2c0,0,0,-1,0,-1c0,-1,0,-1,0,-1l0,-1c0,-1,0,-1,0,-1c1,-1,1,-1,1,-1c0,0,0,1,0,1l0,1c0,0,-1,1,-1,1c1,0,1,1,1,1c0,0,0,1,1,1c1,0,2,1,3,1c0,0,1,-1,2,-1c1,0,1,0,2,-1c0,-1,0,-1,0,-1c0,-1,0,-1,0,-1c0,-1,0,-1,0,-1c0,0,0,-1,0,-1l-1,0l1,-2c1,1,1,1,2,1l1,0l1,0l1,-1l1,-1c0,0,0,-1,1,-1c0,-1,0,-1,1,-1l0,1c1,0,1,1,1,1l0,1l0,1c0,0,0,1,-1,1ZM169.5,66.5l1,0c0,0,0,-1,0,-1c0,0,-1,0,-1,0l-1,0c0,1,0,1,1,1ZM166.5,54.5l0,1l1,0l1,0l0,-1l0,-1l0,1c0,1,1,1,1,1c0,0,0,-1,0,-1l0,-1l1,0l0,1l0,1c-1,0,-1,0,-1,1l-1,0l0,-1l0,1c-1,0,-1,0,-1,0c0,0,-1,0,-1,0l0,-1l0,-1ZM170.5,72.5l-5,2c1,-1,1,-1,1,-1l4,-2ZM158.5,66.5l-1,-1l1,-1l1,1ZM200.5,67.5l-1,0l0,1c0,0,-1,0,-1,0l-1,0c0,0,0,1,0,1c-1,0,-1,-1,-2,-1c0,0,-1,-1,-1,-2c0,1,0,2,-1,2c0,0,0,1,-1,1l0,-2c0,0,1,0,1,0c0,0,1,-1,1,-1l0,-1c0,-1,0,-1,0,-1l0,-1l-1,-6l1,-2l1,10c0,1,0,1,0,1c1,1,1,1,1,1l1,0c1,0,1,0,1,0c1,0,1,-1,1,-1c0,0,1,0,1,-1l0,1l1,0l0,1c1,0,1,0,2,0l0,-1c1,0,1,0,1,0c0,-1,0,-1,0,-1l1,-1l0,1l0,1l1,1l1,0c0,-1,0,-1,0,-1l-1,0l1,-2l0,1l0,1l0,1l0,1c0,0,-1,0,-1,0c-1,0,-1,0,-1,0l-1,0l0,-1l0,1l-1,0l-1,0c0,1,-1,1,-1,1l0,-1c0,0,-1,0,-1,0l0,-1ZM202.5,53.5c0,-1,0,-1,0,-1c1,0,1,-1,1,-1c0,1,0,1,0,1c1,0,1,0,1,1l0,1c0,0,-1,0,-1,0l1,1l0,1l-1,-1l-1,1c0,1,-1,1,-1,1l-1,0l-1,0l1,0l1,-1l1,-1l0,-1c0,0,-1,0,-1,0l0,-1c0,0,1,0,1,0ZM203.5,53.5l-1,0l1,1l0,-1ZM186.5,67.5c0,1,0,1,0,1l1,0c0,1,0,1,0,1c1,0,1,0,1,0c0,-1,0,-1,0,-1c0,-1,0,-2,0,-2c0,-1,0,-2,0,-3l0,-1c0,-1,0,-2,-1,-2c0,-2,0,-3,0,-3l1,-2l1,10c0,0,0,1,0,1c0,0,1,0,1,0c0,1,0,1,0,1c1,0,1,0,1,0l1,0l0,2l-1,0c0,0,-1,-1,-1,-1c0,0,-1,0,-1,-1c0,1,0,1,0,1l0,1l-1,1l-1,0l-1,0l-1,-1l0,-1c-1,-1,-1,-1,-1,-1c0,-1,0,-1,0,-1c-1,0,-1,1,-1,1l-1,0l-1,0l-1,0l0,-2c0,0,0,-1,1,-1l1,-1c1,0,1,0,1,-1l0,-1l1,-1l0,1c0,1,0,1,1,2c0,1,0,1,0,2l0,1l0,1c0,0,1,0,1,0ZM186.5,52.5l4,-2l0,1l-4,2ZM183.5,59.5l-1,-1l-1,2l-1,-1l0,-2l2,1l1,-1l1,1ZM184.5,63.5l-1,0l0,1l-1,0c-1,1,-1,1,-1,1l1,0l1,0l1,0ZM176.5,77.5l5,-2c0,1,-1,1,-1,1l-5,2ZM178.5,74.5l5,-2c-1,0,-1,1,-1,1l-5,2ZM232.5,68.5l-1,0c0,0,-1,0,-1,-1l-1,0c0,1,0,1,-1,1l0,1l-1,0l-2,0c0,1,0,1,0,1c0,1,0,2,0,2c-1,1,-1,1,-2,2c0,0,-1,1,-2,1c0,0,-1,1,-2,1c0,0,-1,-1,-2,-1c0,0,-1,0,-1,0c-1,-1,-1,-1,-1,-2c0,0,-1,-1,-1,-1c0,-1,0,-1,1,-1l0,-1c0,-1,0,-1,0,-1c0,-1,0,-1,1,-1c0,0,0,1,0,1l0,1c0,0,-1,0,-1,0c0,0,0,1,0,1c0,0,1,1,1,1c0,0,0,1,0,1c1,0,1,0,1,0c1,0,2,1,3,1c0,0,1,-1,2,-1c1,0,1,0,2,-1c0,-1,0,-1,0,-1c0,-1,0,-1,0,-1c0,-1,0,-1,0,-1c0,0,0,-1,0,-1l-1,0l1,-2c1,1,1,1,1,1l2,0c1,0,1,0,1,0l1,-1l0,-1c1,0,1,-1,1,-1l1,0c0,-1,0,-1,1,-1l0,1c1,0,1,1,1,1l0,1l0,1c0,0,0,1,-1,1ZM230.5,66.5l1,0l1,0c0,0,0,-1,0,-1c0,0,-1,0,-1,0c0,0,-1,0,-1,0c0,1,0,1,0,1ZM231.5,72.5l-4,2c1,-1,1,-1,1,-1l4,-2ZM220.5,66.5l-1,-1l0,-1l2,1ZM265.5,59.5l-1,-1l1,-1l1,1ZM266.5,67.5l1,0c1,0,1,-1,1,-1c0,0,-1,0,-1,-1c0,-1,0,-1,-1,-1l0,-1c0,0,-1,0,-1,0c0,0,0,-1,0,-1c1,-1,1,-1,1,-1l1,1l0,1c1,0,1,0,1,0c0,1,0,1,0,1c0,1,0,1,0,2l0,1l0,1c-1,0,-1,0,-1,0l-1,0l0,1l-1,0l-1,-1c0,0,-1,-1,-1,-1l0,-1l0,1c0,0,-1,0,-1,1c0,0,-1,0,-1,0c-1,0,-1,0,-2,-1l0,1c0,0,-1,0,-1,1l-1,0c-1,0,-1,-1,-1,-2c0,0,-1,0,-1,1c0,0,-1,0,-2,1c-1,0,-1,-1,-2,-1l-1,-1c0,1,0,1,0,1l0,1l0,1c0,0,-1,0,-1,0c-1,0,-1,0,-2,0l0,-1l-1,0l0,-1c0,-1,0,-1,0,-1c-1,-1,-1,-1,-1,-1c0,0,0,1,0,1c-1,0,-1,0,-1,0l-1,0c-1,0,-1,0,-1,0l-1,0l0,-2c0,0,0,-1,1,-1c0,0,1,0,1,-1l1,0l0,-1c1,0,1,0,1,0l0,-1l0,-1l0,1c1,0,1,0,1,0c0,1,0,1,0,2c0,1,0,1,0,2l0,1c0,0,1,0,1,1c0,1,0,1,0,1c0,0,1,0,1,0c0,1,1,1,1,1c0,-1,0,-1,0,-1c0,-1,0,-2,0,-2c0,-1,0,-2,0,-3l0,-1c0,-1,0,-2,0,-2c0,-2,0,-3,0,-3l1,-2l0,10c0,0,1,1,1,1c0,1,1,1,1,1l1,0l1,0l1,0c0,-1,1,-1,1,-2l0,1c1,0,1,1,1,1c1,0,1,0,2,-1l1,-1c0,0,0,1,0,1c1,0,1,0,1,0l1,0l1,0c0,-1,0,-1,0,-1c1,1,1,2,2,2ZM265.5,52.5l4,-2l0,1c0,0,-1,0,-1,0l-4,2ZM256.5,58.5c1,-1,1,-1,1,-1c1,0,1,0,2,0c0,0,1,0,1,0c0,0,1,1,1,1c-1,1,-1,1,-1,1c0,0,0,1,-1,1c-1,0,-1,0,-1,0l-1,0l1,-1c1,0,1,0,2,0c0,-1,-1,-1,-1,-1l-1,0c0,0,-1,0,-1,1l-1,0c0,-1,0,-1,0,-1ZM248.5,52.5l4,-2l-1,1l-4,2ZM245.5,63.5l-1,1l-1,0c0,1,0,1,-1,1l1,0l1,0c1,0,1,0,1,0ZM301.5,72.5l-1,-1l1,-1l1,1ZM309.5,66.5l-2,0c-1,0,-1,0,-2,0l-1,0l-1,0l0,1l-1,0c-1,0,-1,0,-1,1c-1,0,-1,0,-1,0c-1,0,-2,0,-3,1l-1,0c0,0,-1,-1,-1,-1c0,0,-1,0,-1,0l-1,-1c0,0,-1,0,-1,0l0,1c-1,0,-1,0,-1,0c0,0,-1,0,-1,0l-1,0l0,1l-1,0c-1,0,-1,-1,-1,-1c-1,0,-1,-1,-1,-1l0,1l0,1c0,1,0,1,0,2c-1,0,-1,1,-2,1c0,0,0,1,0,1c-1,0,-1,0,-1,0c-1,0,-1,0,-2,1c0,0,-1,0,-1,0l-1,0c0,0,-1,0,-1,0l0,-1c0,0,-1,0,-1,0c0,-1,-1,-1,-1,-1c0,-1,0,-1,0,-1c0,-1,0,-2,0,-2c0,-1,1,-1,1,-2l0,-1l1,0l0,1l-1,0c0,1,0,1,0,1c0,1,0,1,0,1c0,1,0,1,1,2c0,0,1,1,1,1c1,0,1,0,1,0c1,0,2,0,3,-1c1,0,2,-1,2,-1l0,-1l0,-3c0,0,0,-1,0,-2l0,-1l0,-6l0,-2l1,10c0,0,0,1,0,1l1,0c0,0,0,1,0,1c0,0,1,0,1,0l1,0c1,0,1,0,1,0c0,0,1,0,1,0l0,-1c0,0,1,0,1,0l-1,0l0,-1c0,0,-1,0,-1,0l-1,0l1,-2c1,0,1,0,1,0c1,-1,1,-1,2,-1c0,0,0,1,0,1c0,0,1,0,1,0l1,0l0,1l0,1c0,0,-1,0,-1,1c0,0,0,1,1,1l1,0l1,0c1,0,1,0,1,0c1,0,1,0,2,-1l1,0l1,0l1,-1l-1,0l-1,-1l-1,0l-1,0l-1,0c0,0,0,-1,0,-1c1,0,1,0,1,-1c0,0,1,0,1,0l1,0l0,1l1,0l2,1l1,0c0,0,1,0,1,0c0,0,1,0,1,0c0,0,1,0,1,0l1,0ZM300.5,55.5l4,-2l0,1l-4,2ZM292.5,55.5l4,-2l0,1l-1,0l-4,2ZM282.5,53.5l6,-3c0,0,0,1,-1,1l-5,3ZM331.5,58.5l-1,-1l0,-2l2,1ZM333.5,60.5l-2,-1l0,1l-2,-1l1,-1l1,1l1,-1l2,0ZM330.5,69.5l-1,0c-1,0,-2,-1,-2,-1l-1,0c0,0,0,1,0,1l-1,0l-1,0c-1,0,-1,-1,-1,-1l-1,0l0,1c0,1,-1,1,-1,1c-1,1,-1,1,-2,1c-2,0,-3,0,-4,0l4,-2l2,0c0,0,1,-1,1,-1l1,-2c0,-1,0,-1,1,-1c0,0,0,-1,0,-1l1,0c0,0,1,1,1,1c0,1,1,1,1,1c0,1,1,1,1,1c0,0,1,0,1,0l1,0c0,0,1,0,1,0c1,0,1,-1,2,-1c0,-1,0,-1,-1,-1l0,-1l1,-2c0,0,0,1,0,1l0,1l0,1l0,1c0,1,0,1,0,1c0,1,-1,1,-2,1c0,0,-1,1,-1,1ZM330.5,49.5c1,0,1,0,1,-1c0,0,1,0,1,0c0,0,1,1,1,1c0,0,0,1,0,1l-1,0c0,1,0,1,0,1l1,0l0,1l-1,0l-1,0l0,1c-1,0,-1,0,-1,0l-1,1l-1,0l1,-1l1,0l0,-1l1,0l0,-1l-1,0l0,-1l0,-1ZM332.5,50.5l-1,-1l0,1l1,0ZM325.5,67.5l0,-1l-1,0c0,0,-1,0,-1,0c0,0,1,1,1,1l1,0ZM322.5,57.5l0,1c1,0,1,0,1,0l0,-1l1,1c0,0,0,-1,0,-1l1,-1l0,1l0,1c0,0,-1,1,-1,1c-1,0,-1,0,-1,0l0,-1l0,1c-1,0,-1,0,-1,0c0,0,-1,0,-1,0l0,-1l0,-1ZM326.5,54.5l-6,3c0,-1,1,-1,1,-1l5,-3ZM363.5,66.5c0,1,0,2,0,2c0,0,0,1,-1,1c0,1,0,1,-1,1l2,0l0,1l-1,0l-1,1l-1,0l0,1c0,0,-1,0,-1,0l-1,1l-1,0l-1,0l0,1l-1,1l-1,0l-4,0l-1,0l0,-1c-1,0,-1,-1,-1,-1c-1,0,-2,0,-3,-1l-1,0l0,-1l-1,0l-1,-1l-1,0l0,-1l2,0l-1,0l0,-1l-1,-1l0,-1l0,-1l0,-1l0,-1l1,-1l1,-1l-2,0l0,-1c0,0,1,0,1,0l1,-1l1,0l0,-1l1,0l1,-1l2,0l0,-1l1,0l0,-1c1,0,1,0,1,0l0,-1l4,0l1,1l0,1l1,0l0,1l2,0l1,1c0,0,1,0,1,0l0,1l1,0c1,1,1,1,2,1c0,0,0,1,0,1l-1,0l0,1l1,0l0,1l0,1ZM354.5,76.5l1,0l0,-1l1,-1c1,0,1,0,2,0l0,-1l1,0l1,-1l1,0l0,-1l1,0l-1,-1l1,-1l0,-1l1,0l0,-1l0,-1c0,-1,0,-2,-1,-2l0,-1l0,-1l-1,0l1,-1l-1,-1l-1,0l0,-1l-1,0l-1,-1l-2,0l-1,-1l-1,-1l-4,0l-1,1c-1,1,-1,1,-1,1l-2,1l-1,0l-1,0l0,1l-1,0c0,1,-1,1,-1,1l1,1l-1,0l0,1l0,1l0,1l-1,0c0,0,0,1,0,1l0,1l1,0l0,1l0,1l1,1l-1,1l1,1l1,0l0,1l1,0l1,0l1,1l1,0c0,0,1,0,1,1l1,1ZM360.5,61.5l-1,0l0,1l0,-1l-1,0l0,-1l-1,0c-1,0,-1,0,-1,0l0,-1l1,0l1,1l1,0l0,1ZM360.5,71.5l-1,0l0,1l-1,0l-1,1l-1,0l0,-1c1,0,1,0,1,0l1,0c0,-1,1,-1,1,-1l1,0ZM355.5,73.5c0,0,0,1,0,1c0,0,-1,0,-1,0l-4,0c0,0,-1,0,-1,0l0,-1c0,0,0,-1,0,-1c0,0,1,0,1,0l4,0l1,0l0,1ZM355.5,59.5c0,0,0,1,0,1l-1,0l-4,0c0,0,-1,0,-1,0l0,-1c0,0,0,-1,0,-1l1,0l4,0c0,0,1,0,1,0l0,1ZM354.5,62.5c0,0,0,-1,0,-1l1,0l1,0c0,0,1,0,1,0c0,0,0,1,1,1l0,1l1,-1c0,0,1,0,1,1l0,1l1,1l0,1l0,1l-1,1c0,1,0,1,0,1l-1,1l-1,-1l0,1l-1,0l0,1l-1,0l-1,0c0,0,-1,0,-1,-1l-4,0l0,1l-1,0l-1,0l-1,0c0,-1,0,-1,-1,-1l0,-1l-1,1l-1,-1l0,-1l0,-1l-1,0l0,-1c0,0,0,-1,0,-1c0,0,1,-1,1,-1l0,-1c0,-1,1,-1,1,-1l1,1l0,-1l1,0l0,-1c1,0,1,0,1,0c1,0,1,0,1,0l1,0l0,1ZM354.5,70.5l1,0l0,1l1,0l1,-1l1,-1l1,0l1,0l0,-1l0,-1l0,-1c0,-1,0,-1,0,-2c0,0,0,-1,0,-1c0,0,-1,0,-1,0l-1,0l-1,-1l-1,-1c-1,0,-1,0,-1,0l0,1c-1,0,-1,0,-1,0l-4,0l-1,0l0,-1l-1,0c0,0,-1,1,-1,1l-1,1l-1,0l-1,0l0,1l0,1l0,1c0,0,0,1,0,1l0,1c0,1,1,1,1,1l1,0l1,1l1,0l0,1c1,0,1,0,1,-1c1,0,1,0,1,0l4,0ZM352.5,69.5c0,0,0,-1,0,-1l-1,-1l0,-1l0,-1l-1,0l0,-1l1,1l1,1l0,1l0,-1l1,0l0,-1c0,0,0,-1,1,-1l0,1c-1,0,-1,1,-1,1l-1,1l0,1l0,1ZM344.5,61.5l1,0l0,-1l1,0l1,-1l1,0l0,1c-1,0,-1,0,-1,0c0,0,-1,0,-1,1l-1,0l0,1l0,-1ZM344.5,71.5l1,0c0,0,1,0,1,1l1,0l1,0c0,1,0,1,0,1l-1,0c-1,-1,-1,-1,-2,-1l0,-1l-1,0ZM384.5,69.5l0,-1c-1,0,-1,0,-1,0l-1,0c0,-1,0,-1,0,-1l0,-1l0,-1c0,0,0,-1,0,-1c-1,1,-1,2,-2,2l-1,0c0,0,0,1,0,1c0,1,0,1,0,1c0,1,0,2,0,2c0,1,-1,1,-1,2c-1,0,-1,1,-2,1c-1,0,-1,0,-2,0c-1,0,-1,0,-2,0c0,0,-1,0,-1,0c0,-1,-1,-1,-1,-2c0,0,0,-1,0,-1c0,-1,0,-1,0,-1c0,0,0,-1,0,-1l0,-1l0,-1c0,0,1,0,1,0l0,1l0,1c-1,0,-1,0,-1,1c0,0,1,1,1,1l0,1c1,0,1,0,1,0c1,0,2,0,2,0c1,0,2,0,2,0c1,0,2,-1,2,-1c0,-1,1,-1,1,-1l0,-1c0,0,-1,0,-1,0l0,-1c0,-1,0,-1,0,-1c0,-1,0,-1,-1,-1l0,-1l1,-1c0,0,0,1,0,1c1,0,1,0,1,0l1,0l1,0l1,-1l0,-1l0,1l0,1l1,1l0,1c0,1,0,1,1,1l1,0c1,0,1,0,1,-1c1,0,1,0,1,-1l0,-1l0,-2l0,-1l0,-3l-1,-1l0,-1l1,-1l1,2c0,0,-1,1,-1,1l1,1l0,1l0,1l0,1l0,2l0,1l0,1l1,-2l1,0l1,-1c0,0,1,0,1,0l1,0c0,0,1,0,1,0c1,0,1,1,1,1l0,1c0,1,0,1,0,1c-1,1,-1,1,-1,1c-1,0,-1,0,-1,1c-1,0,-2,0,-3,0c-1,0,-1,1,-2,1ZM392.5,64.5c-1,0,-1,1,-2,1l-1,1l-2,1l1,0c1,0,1,0,2,0c1,0,1,0,1,0c1,-1,2,-1,3,-1c0,-1,0,-1,0,-1c0,0,-1,0,-1,-1l-1,0ZM389.5,72.5l-4,2c0,-1,1,-1,1,-1l4,-2ZM384.5,72.5l-2,-1l0,1l-2,-1l1,-1l1,0l1,-1l2,1ZM374.5,64.5l-1,-1l1,-1l1,1ZM373.5,76.5l4,-2c0,1,0,1,0,1l-5,2l1,0c0,0,0,-1,0,-1ZM370.5,80.5c0,0,1,0,1,0l4,-2c0,1,0,1,-1,1l-4,2c0,-1,0,-1,0,-1ZM274.5,101.5l1,-1c0,0,1,0,1,0c1,0,1,0,1,1c1,0,1,0,1,0c0,1,0,1,-1,1c0,1,0,1,0,1c0,0,-1,0,-1,0c0,0,-1,0,-1,0l-1,0l2,0c0,-1,1,-1,1,-1l-1,0c-1,0,-1,0,-2,0l-1,0l1,0c0,0,0,-1,0,-1ZM243.5,103.5c0,0,1,-1,1,-1c0,0,1,0,1,0c1,0,1,0,2,0c0,0,0,1,0,1c0,1,0,1,0,1c0,0,-1,1,-1,1c0,0,-1,0,-1,0l-1,0l-1,0l2,0c1,-1,1,-1,2,-1c-1,0,-1,-1,-1,-1c-1,0,-1,0,-1,0c0,0,-1,0,-1,1c0,0,-1,0,-1,0c0,-1,0,-1,0,-1ZM200.5,120.5l0,-1c0,0,0,-1,0,-1c0,-1,0,-1,0,-2l0,-1c1,0,1,1,1,1c0,1,0,1,0,1l0,1c0,0,0,1,0,1c0,0,0,1,-1,1ZM105.5,115.5l0,-1l0,-1l-1,-9l1,-2l1,11c0,0,-1,1,-1,1c0,0,0,1,0,1ZM97.5,113.5c0,0,1,0,1,0c0,0,1,0,1,0c1,0,1,-1,1,-1l0,-2l-1,-6c0,0,0,-1,0,-1c0,0,0,-1,0,-1c0,0,0,-1,1,-1l0,1c0,0,1,1,1,1l0,1c0,0,-1,0,-1,1l0,-1c0,0,0,1,0,1c0,0,0,1,0,2l0,2c0,1,1,1,1,1l0,1c0,1,0,1,-1,1c0,0,0,1,0,1c0,1,0,1,0,1l-1,0l0,1c0,0,-1,0,-1,0l-1,0l-1,0l-1,0l0,-1c0,-1,0,-1,0,-1l-1,0c0,1,0,1,0,1c-1,0,-1,1,-2,1c0,0,-1,-1,-1,-2l-1,1c0,1,0,1,-1,1c-1,0,-2,-1,-2,-2c0,1,0,1,-1,1c0,1,-1,1,-1,1l-1,0l-1,0c0,0,-1,0,-2,-1c0,1,-1,1,-1,1c-1,0,-1,0,-1,0l-1,0l-2,-1l-1,0c0,1,0,1,-1,1l-1,0l-1,0c-1,0,-1,0,-2,0l-1,-1l-1,0c0,-1,0,-1,0,-1c0,0,-1,0,-1,0c-1,0,-1,0,-2,1l-1,1c0,0,-1,1,-1,2c0,0,0,1,0,1c0,0,0,1,0,1c0,0,0,1,0,1c0,1,1,1,1,2c1,0,1,0,1,0l0,1c1,0,1,0,1,0l1,0l1,0c0,0,1,0,1,0c0,0,0,1,1,1c1,0,2,0,2,-1l1,0l1,0l1,0l-4,2c-1,0,-1,0,-2,0c0,0,-1,0,-1,0c-1,0,-1,0,-2,0c0,0,-1,0,-1,-1c-1,0,-1,0,-2,-1c0,0,-1,-1,-1,-1c0,-1,0,-1,0,-1c0,-1,0,-1,0,-1l0,-1c0,-1,0,-1,0,-2c0,-1,0,-1,0,-1c1,0,1,0,1,-1l1,-1c0,0,0,-1,1,-1l0,-1l1,0c0,0,0,-1,0,-1c-1,0,-1,0,-1,0c0,0,-1,0,-1,0l1,-2c0,0,1,0,1,0l1,-1c1,0,1,0,1,1l1,0c0,0,1,0,1,1c0,0,0,1,0,1c-1,0,-1,0,-1,0c0,0,0,1,0,1l-1,0c0,0,1,0,1,0l0,1c0,0,1,0,1,0c1,0,1,0,2,0l1,0l1,0c1,0,1,0,1,0l1,0c0,0,0,-1,0,-1c1,-2,2,-2,3,-2l1,1l0,1l1,0l1,1l1,0l1,0l1,0l1,0c1,0,1,-1,2,-2l0,1c0,1,0,1,1,1c0,0,1,0,1,0c0,0,1,-1,1,-1l0,-1l1,0c0,1,0,1,0,1c0,1,0,1,1,1l1,0c0,-1,0,-1,0,-1l1,-1c0,2,1,2,1,2l1,0ZM89.5,105.5l0,1l1,0c0,0,1,0,1,-1l0,-1l0,1c0,0,1,0,1,0l0,-1l1,0c0,1,0,1,0,1l0,1c-1,0,-1,0,-1,0l0,1l-1,0c0,0,0,-1,0,-1l0,1c-1,0,-1,0,-1,0c0,0,-1,0,-1,0l0,-1l0,-1ZM94.5,102.5l-6,3c0,-1,1,-1,1,-1l5,-3ZM80.5,113.5l-1,-1l0,-1l-1,0l0,1l-1,0c0,0,1,1,1,1l1,0ZM76.5,100.5c1,-1,1,-1,1,-1c1,0,1,0,2,0c0,0,1,0,1,0c0,0,1,1,1,1c-1,1,-1,1,-1,1c0,0,0,1,-1,1c-1,0,-1,0,-1,0l-1,0l1,-1c1,0,1,0,2,0c0,-1,-1,-1,-1,-1l-1,0c0,0,-1,0,-1,0c0,1,0,1,-1,1c0,-1,0,-1,0,-1ZM65.5,102.5l4,-2l0,1l-4,2ZM135.5,113.5c0,0,1,0,1,0l1,0c0,0,1,-1,1,-1l-1,-2l0,-6c0,0,0,-1,0,-1c0,0,0,-1,0,-1c0,0,0,-1,1,-1l0,1c0,0,0,1,1,1l-1,1l0,1l0,-1c0,0,0,1,0,1c0,0,0,1,0,2l0,2c0,1,0,1,0,1l0,1c0,1,0,1,0,1c0,0,0,1,0,1c0,1,0,1,0,1c0,0,-1,0,-1,0l0,1c0,0,-1,0,-1,0l-1,0l-1,0c0,0,-1,0,-1,-1c0,0,-1,0,-1,0l-2,-2c-1,-1,-1,-1,-2,-1l0,-1c0,0,0,1,0,1l0,1c0,1,0,1,0,1c0,0,-1,1,-1,1l0,1c-1,0,-1,0,-1,0c-1,0,-1,0,-1,0l-1,0l-3,0c0,0,-1,0,-1,0c0,0,0,-1,0,-1l0,1l0,1l-1,0c0,1,0,1,0,1c0,0,-1,0,-1,-1c-1,0,-1,-1,-1,-1l0,-1c0,0,-1,0,-1,0l-1,0l0,1l-1,0c0,1,0,1,0,1l0,1l1,0c0,1,0,1,0,1l0,2l0,2c1,1,1,1,1,1l0,1c0,0,-1,0,-1,0l0,1l0,-1l0,-1l0,-1l-1,-3l0,-1l0,-1l0,-2c0,-1,1,-1,1,-2l1,-1l1,0l0,-1l1,0c0,1,1,1,2,2l1,0l2,0l1,0l1,0l1,0c1,0,1,0,1,0c0,0,0,-1,0,-1c1,0,1,0,1,0c0,-1,-1,-1,-1,-1c0,-1,0,-1,0,-1c0,0,-1,0,-1,-1l-1,0c0,-1,0,-1,-1,-1l-1,0c0,-1,0,-1,0,-1c0,-1,0,-1,0,-1c0,-1,0,-1,0,-1l0,-1l1,0c0,0,1,-1,3,-1c1,-1,2,-1,4,-2c1,0,2,-1,3,-1l1,0l-1,2c-1,0,-1,0,-1,0c0,0,-1,0,-2,1c-2,0,-3,1,-5,1c-1,1,-2,1,-2,1c0,0,0,1,0,1c0,0,-1,0,-1,0l1,0c1,1,1,1,1,1c1,0,1,0,1,0l0,1l1,0c0,0,1,1,2,1c0,0,1,1,1,1c1,1,1,1,2,2l2,1l1,0ZM136.5,99.5l4,-2c0,1,0,1,-1,1l-4,2ZM127.5,96.5c0,-1,0,-1,1,-1c0,0,0,-1,0,-1c1,1,1,1,1,1l0,1l0,1l0,1l0,1l-1,-1l0,1l-1,0c0,1,0,1,-1,1l-1,0l1,-1l1,0l0,-1l0,-1l0,-1ZM128.5,96.5c0,0,-1,0,-1,0l1,0l0,1l0,-1ZM117.5,99.5l0,-1c0,0,1,0,1,0c1,0,1,1,1,1l0,1c-1,0,-1,1,-1,1l1,0l0,1l-1,0l-1,0l0,1c-1,0,-1,0,-1,0l-1,0l0,1c-1,0,-1,-1,-1,-1l1,0l1,0c0,-1,0,-1,0,-1l1,0l0,-1c-1,0,-1,-1,-1,-1c0,0,0,-1,1,-1ZM118.5,99.5l-1,0c0,0,0,1,0,1l1,0ZM186.5,111.5l-1,0l0,1c0,0,1,0,1,0c1,0,1,0,1,0c0,-1,-1,-1,-1,-1ZM186.5,119.5l-1,0c-1,1,-1,1,-2,1c-1,0,-1,0,-2,-1l-1,0c1,0,1,0,1,0l1,0l1,0c0,0,1,-1,1,-1c1,0,1,0,2,-1l0,-1c0,0,1,0,1,-1c0,0,0,-1,0,-1c0,0,0,-1,0,-1l0,1l-1,0l-1,0c0,-1,-1,-1,-1,-1c0,-1,0,-1,0,-1c0,0,0,-1,0,-1c1,0,1,-1,1,-1c0,0,0,-1,1,-1c1,0,1,0,1,0c0,0,0,1,1,1l0,1l0,1c0,0,0,1,0,1c0,0,0,1,0,1c0,1,0,2,-1,3l0,1c0,0,-1,0,-1,1ZM183.5,105.5l4,-2l0,1l-4,2ZM172.5,118.5l-1,0l1,-2l1,1ZM180.5,112.5l-1,0l-1,0c-1,0,-1,0,-2,0l-1,1l-1,0l-1,0l0,1c-1,0,-1,0,-2,0l-1,0c0,1,-1,1,-2,1l-1,0c0,0,-1,0,-1,0c0,0,-1,0,-1,-1c0,0,-1,0,-1,0l0,-1c-1,0,-1,1,-1,1l-1,0l0,1c-1,0,-1,0,-1,0l-1,0l-1,0c-1,0,-1,0,-1,0c-1,-1,-1,-1,-1,-2l0,1l0,1c0,1,0,2,-1,2c0,1,0,1,-1,2l-1,0l-1,1l-1,0c0,0,-1,0,-1,0l-1,0l-1,0c0,0,-1,-1,-1,-1c-1,0,-1,-1,-1,-1c0,0,0,-1,0,-1c0,-1,0,-1,0,-2c0,0,0,-1,1,-1l0,-1l0,-1l1,1l-1,0l0,1c0,1,0,1,0,1c0,1,0,2,0,2c1,1,1,1,2,1c0,0,1,0,1,0c1,0,2,0,3,0c1,-1,1,-1,2,-2l0,-1l0,-3l0,-1c0,0,0,-1,0,-1l-1,-7l1,-2l1,10c0,1,0,1,0,1l0,1c1,0,1,0,1,0c0,0,1,0,1,0l1,0c0,0,1,0,1,0l1,0c0,-1,0,-1,1,-1l-1,0c0,0,-1,-1,-1,-1c0,0,-1,0,-1,0l1,-2c0,0,1,0,1,0c1,0,1,0,1,0l1,0l1,0l0,1c0,0,1,0,1,0l0,1l-1,0c0,1,0,1,0,1c0,0,0,1,0,1l1,0l1,0l1,0c0,0,1,0,1,0c0,0,1,0,1,0c1,0,1,0,2,0l1,-1l1,0l-1,-1l-1,0l-1,-1l-1,0l-1,1c0,-1,0,-1,0,-2c0,0,1,0,1,0c0,0,1,0,1,0l1,0l1,0l2,1l1,0c0,0,0,1,1,1l1,0c0,0,1,0,1,0l1,0ZM171.5,102.5l4,-2l-1,1l-4,2ZM163.5,102.5l4,-2l-1,0l0,1l-4,2ZM153.5,99.5l6,-3c0,1,-1,1,-1,2l-5,2ZM225.5,118.5c1,0,1,0,1,0l1,0c1,0,2,0,3,-1c0,0,1,0,1,-1c0,0,1,-1,1,-1c0,0,0,-1,1,-1c0,0,0,-1,0,-1l-1,-1l0,-1l-1,0l1,-1l0,-1l1,1c0,0,0,1,0,1l0,1l0,1c0,1,0,1,0,2c0,1,0,1,0,1c0,0,-1,1,-1,1c0,0,0,1,-1,1l-1,1c0,0,-1,0,-1,0l-1,0l-1,0c-1,0,-1,0,-1,-1ZM229.5,104.5c0,1,0,1,0,1c1,0,1,0,1,0c0,-1,0,-1,0,-1l0,-1l1,0l0,1c0,0,1,0,1,-1l0,-1l0,1l0,1c0,1,0,1,0,1l-1,0l-1,0c0,1,0,1,-1,1c0,-1,0,-1,0,-1l0,-1ZM230.5,98.5c0,0,1,0,1,0c0,-1,0,-1,1,-1c0,1,1,1,1,1c0,0,-1,1,-1,1c0,1,0,1,0,1l0,1l-1,0l0,1c-1,0,-1,0,-1,1c-1,0,-1,0,-2,0c1,-1,2,-2,3,-2l0,-1l-1,0l0,-1ZM231.5,99.5l0,-1c0,0,0,1,0,1l0,1l1,0l0,-1l-1,0ZM224.5,111.5c-1,0,-1,0,-1,0l0,1l1,0c0,-1,0,-1,0,-1ZM224.5,119.5c-1,0,-1,0,-1,0l-1,0c0,1,-1,1,-1,1l-1,0c0,0,-1,0,-1,-1c-1,0,-1,0,-1,0l1,0c1,0,1,0,1,0c0,0,1,0,1,0c0,0,0,-1,0,-1c1,0,1,0,1,0c1,0,1,0,1,-1c1,0,1,0,1,-1l1,-1c0,0,0,-1,0,-1c0,0,0,-1,0,-1l0,1c0,0,-1,0,-1,0c-1,0,-1,0,-1,0c0,0,-1,0,-1,0c0,-1,0,-1,0,-1c0,-1,0,-1,0,-1c0,0,0,-1,0,-1c0,0,0,-1,1,-1c0,0,0,-1,0,-1c1,0,1,0,1,0c0,0,1,0,1,0c0,0,0,1,0,1c0,0,1,0,1,1l0,1c0,0,0,1,0,1c0,0,0,1,0,1c0,1,0,2,-1,3l-1,1l0,1ZM217.5,112.5l-2,0c0,0,-1,0,-1,0l-1,1c0,0,-1,0,-1,0l-1,0l-1,1c0,0,-1,0,-1,0c0,0,-1,0,-1,0c-1,1,-2,1,-2,1l-1,0c-1,0,-1,0,-1,0c-1,0,-1,0,-1,-1c0,0,-1,0,-1,-1c0,0,0,-1,0,-1l0,1c0,0,-1,0,-1,0l-1,0c-1,0,-1,0,-2,0l0,-1c0,-1,0,-1,1,-2c0,0,1,0,2,-1l1,0l0,-1l-1,0l1,-1l0,1l1,1l0,1l0,2l0,1l1,0c0,0,1,0,1,0l1,0l1,0c0,0,1,0,1,0c1,0,1,0,1,0l2,-1l1,0l-1,-1l-1,0l-1,0l0,-1l-1,0l-1,1l-1,0c0,-1,1,-1,1,-2l1,0l1,0l1,0l1,0l1,1l1,0c1,0,1,1,1,1c1,0,1,0,1,0c1,0,1,0,2,0l1,0ZM210.5,118.5l-4,2c0,0,0,-1,0,-1l4,-2ZM202.5,110.5l-1,0l-1,0l0,1c0,0,-1,0,-1,0l1,0l1,0c0,0,1,0,1,0ZM258.5,114.5c0,1,0,1,-1,1l0,-1l-1,0l-1,-1l0,1c-1,0,-1,0,-1,1l-1,0l-1,0l-1,0c0,1,0,1,0,1c0,1,0,1,0,1c0,1,-1,1,-1,2c0,0,-1,1,-1,1c-1,1,-1,1,-2,1c-1,1,-2,1,-2,1c-1,0,-1,0,-2,0c-1,-1,-1,-1,-2,-1c0,0,0,-1,-1,-1c0,-1,0,-1,0,-2c0,0,0,-1,0,-1l0,-1c0,0,1,0,1,-1c0,-1,0,-1,0,-1l1,0c0,1,0,1,-1,1c0,1,0,1,0,1c0,1,0,1,0,1c0,1,0,1,0,1c0,1,1,1,1,1c1,1,1,1,1,1c0,0,1,0,2,0c1,0,2,0,2,0c1,-1,2,-1,2,-1c0,-1,1,-1,1,-1l0,-1l0,-1l-1,-1l0,-1l0,-2c0,0,1,0,1,0c0,0,0,1,0,1l1,0l1,0l1,0c1,0,1,0,1,0l1,-1c0,-1,1,-1,1,-2c1,0,1,0,1,0c0,0,1,0,1,0c0,1,0,1,1,1l0,1l0,1l0,1c-1,0,-1,0,-1,0ZM256.5,112.5l1,0l1,1c0,0,-1,-1,-1,-1c0,-1,0,-1,0,-1c-1,0,-1,0,-1,1ZM257.5,118.5l-4,2c0,0,0,-1,0,-1l4,-2ZM245.5,113.5l-1,-1l1,-2l1,1ZM282.5,105.5l-1,-1l1,-1l1,1ZM285.5,113.5l-1,0c0,1,0,1,0,1c-1,0,-1,1,-2,1c-1,0,-1,0,-2,0l-1,0c-1,0,-1,0,-1,-1c-1,0,-1,0,-1,0l0,-1c0,1,0,1,-1,2c0,0,-1,0,-1,0l-1,0c0,0,-1,0,-1,0c-1,0,-1,0,-1,-1l-1,-1c0,0,0,-1,0,-1l0,1c0,0,-1,0,-1,0l-1,0c-1,0,-1,0,-2,0l0,-1c0,-1,0,-1,1,-2c0,0,1,0,2,-1l1,0l0,-1l-1,0l1,0l0,-1l0,1l1,1l0,1l0,2l0,1l1,0c0,0,1,0,1,0l1,0c1,0,1,0,1,0c0,0,1,-1,1,-1l0,-1l1,0l0,1c0,0,-1,0,-1,0c1,1,1,1,1,1c1,0,1,0,1,0l1,0c1,0,2,0,2,0c1,0,1,0,2,-1c0,-1,0,-1,0,-1c0,0,-1,0,-1,0c0,1,0,1,-1,1l-1,0c0,-1,0,-1,0,-1c0,-1,0,-1,0,-1c0,0,0,-1,0,-1l0,-1c0,0,0,-1,1,-1c0,0,0,-1,1,-1c0,0,0,1,1,1l0,1l1,1l0,1c0,1,0,1,0,1c0,1,0,1,0,2ZM282.5,109.5l-1,0c0,0,1,0,1,0l0,1l1,0c0,-1,0,-1,0,-1c0,-1,0,-1,0,-1c0,0,-1,0,-1,0l0,1ZM284.5,118.5l-4,2c1,0,1,-1,1,-1l4,-2ZM278.5,118.5l-1,-1l-1,1l-1,0l1,-2l1,1l1,-1l1,1ZM271.5,110.5l-1,0l-1,1c0,0,-1,0,-1,0l1,0l1,0c0,0,1,0,1,0ZM271.5,118.5l-4,2c0,0,1,-1,1,-1l4,-2ZM325.5,111.5l0,1c1,0,1,0,1,0c0,-1,0,-1,0,-1l-1,0ZM325.5,119.5c0,0,-1,0,-1,0c0,1,-1,1,-2,1c0,0,-1,0,-2,-1l1,0c0,0,1,0,1,0l1,0c0,0,0,-1,0,-1c0,0,1,0,1,0c0,0,1,0,1,-1l1,-1l0,-1c1,0,1,-1,1,-1c0,0,0,-1,0,-1l0,1c-1,0,-1,0,-1,0c0,0,-1,0,-1,0l-1,0c0,-1,0,-1,0,-1c0,-1,0,-1,0,-1c0,0,0,-1,0,-1c0,0,0,-1,0,-1c1,0,1,-1,1,-1l1,0c1,0,1,1,1,1l0,1l1,1c0,0,0,1,0,1c0,0,0,1,0,1c-1,1,-1,2,-1,3c0,0,-1,0,-1,1l-1,1ZM322.5,105.5l5,-2l-1,1l-4,2ZM317.5,108.5l-2,-1l1,-1l2,1ZM316.5,115.5l-1,0l-1,0l-1,0c0,0,-1,0,-1,0c-1,0,-1,-1,-2,-1c0,0,-1,1,-1,1c-1,0,-1,0,-2,0l-3,0l-1,0l-1,0l-1,0l0,-1l0,-1c0,0,0,-1,0,-1l-1,0l-1,0c0,0,-1,0,-1,0c-1,1,-1,1,-1,1l-1,1c0,0,-1,0,-1,1c0,0,-1,1,-1,1c0,1,0,1,0,1c0,1,0,1,0,1c0,1,0,1,0,2l0,1c1,0,1,0,1,0c0,1,1,1,1,1c1,1,1,1,1,1c1,0,1,0,2,0c0,0,1,0,1,0l1,0l1,0l1,0l1,0l2,0l-4,2l-2,0c-1,0,-2,0,-3,0l-1,-1c-1,0,-1,0,-1,-1l-1,0c0,-1,-1,-1,-1,-1c0,-1,0,-2,0,-3c0,0,0,-1,0,-2c0,-1,1,-1,1,-2c1,-1,1,-1,1,-2c1,-1,2,-1,3,-1l-1,-1l-1,0l-1,0l-1,0l0,1l0,-1c0,-1,0,-1,1,-1l0,-1c0,0,1,0,1,0l1,0l0,1l1,0l1,0c1,0,2,0,3,0l1,0l1,0l-1,1l0,1l-1,0l-1,0l1,0l0,1l1,0c1,0,1,0,1,0l3,0c1,0,1,0,1,0c1,0,1,0,1,0l0,-1c0,-1,0,-1,0,-2c0,0,0,-1,1,-1l0,-1c1,0,1,0,2,0c0,0,1,0,1,0c0,1,0,1,0,2l0,1l0,1c0,0,-1,1,-1,1l1,0c1,0,1,0,1,0l1,0l1,0c1,0,1,0,2,0c0,0,1,0,1,0c0,-1,0,-1,0,-1l0,-1c0,0,-1,0,-1,-1l1,-1l0,1c0,0,1,0,1,0c0,0,0,1,0,1c0,0,0,1,0,1c0,0,0,1,0,1l-1,0c0,0,0,1,0,1c0,0,-1,1,-1,1c-1,0,-1,0,-2,0ZM316.5,102.5l5,-2l-1,0l0,1l-4,2ZM311.5,107.5l-1,-1l1,-2l1,1ZM311.5,110.5l-1,0l0,1c0,1,0,1,1,1c0,0,1,0,1,0c0,0,0,-1,0,-1c0,0,0,-1,0,-1c0,0,-1,0,-1,0ZM310.5,99.5l4,-3l-1,1l0,1l-4,2ZM298.5,107.5l-2,-1l1,-1l1,1ZM296.5,102.5l4,-2l0,1l-5,2ZM360.5,113.5l-1,1c0,0,-1,1,-1,1l-1,0l-2,0c0,0,0,1,0,1c0,0,0,1,-1,1c0,1,0,1,0,1c-1,1,-1,1,-1,1c0,1,-1,1,-1,1l-1,0c-1,0,-1,0,-1,0l-1,0c0,0,-1,0,-1,0c0,0,-1,0,-1,0c0,-1,0,-1,0,-1c0,0,1,0,1,0c1,0,1,0,2,0c0,0,1,0,1,0c1,-1,1,-1,1,-1c0,0,1,-1,1,-1l0,-1c1,0,1,0,1,0c0,0,0,-1,0,-1l-1,0c-1,0,-1,0,-1,0c0,-1,-1,-1,-1,-1c0,-1,0,-1,0,-1l0,-1l1,0c0,0,0,-1,0,-1c1,-1,1,-1,1,-1c1,0,1,0,1,0c0,0,0,1,1,1l0,1c0,1,0,1,0,1c1,0,1,0,1,0c1,0,1,0,1,0c0,0,1,0,1,0c1,0,1,0,1,0c0,-1,1,-1,1,-2l0,1l0,1l1,0c1,0,1,0,2,0c1,-1,1,-1,1,-1l0,-1l0,1l1,0c0,0,0,1,0,1l1,0c1,0,1,0,1,0l-1,-1l1,-1l0,1l0,1l0,1c0,1,-1,1,-1,1c-1,0,-1,0,-1,0l-1,-1l-1,0c0,1,0,1,-1,1c0,0,-1,0,-1,0c-1,0,-1,0,-1,0c0,0,0,-1,0,-1l0,-1ZM360.5,102.5l4,-2l0,1l-4,2ZM353.5,112.5l-1,0c0,0,0,1,0,1c0,0,1,0,1,0l1,0c0,0,0,-1,0,-1l-1,0ZM344.5,115.5l-1,0l-1,0c0,0,-1,0,-1,0c0,0,-1,0,-1,-1l0,-1c0,0,0,-1,0,-1l-1,1c0,0,-1,0,-1,0l-1,0c0,0,-1,0,-1,0l-1,0l0,-1c0,-1,1,-1,1,-2c1,0,1,0,2,-1c1,0,1,0,1,0l0,-1l0,-1l1,1l0,1l0,1l0,2c0,0,1,0,1,1l1,0l1,0l1,0c0,0,1,0,1,0c1,0,1,0,1,0c0,-1,0,-1,0,-1l0,-1l-1,-1l1,-1c1,0,1,0,1,1c0,0,0,1,0,1c0,0,0,1,0,1c0,0,0,1,0,1c0,0,-1,1,-1,1c0,0,0,1,-1,1c0,0,-1,0,-1,0ZM339.5,110.5l-1,0l-1,1l1,0c0,0,1,0,1,0ZM336.5,99.5c0,0,1,0,1,-1l1,0c0,0,1,1,1,1c0,0,-1,0,-1,1c0,0,0,1,0,1l1,0l0,1l-2,0l0,1c-1,0,-1,0,-1,0l-1,0l0,1l-1,0c0,0,0,-1,0,-1l1,0c1,-1,1,-1,1,-1l1,-1l-1,0c0,0,0,-1,0,-1c0,0,0,-1,0,-1ZM337.5,99.5c0,0,0,1,0,1l1,0ZM389.5,104.5l-1,-1l1,-1l1,1ZM391.5,106.5l-1,-1l-1,2l-1,-1l0,-2l2,1l1,-1l1,1ZM388.5,115.5l-1,0c-1,0,-1,0,-2,0c0,-1,0,-1,0,-1c0,1,0,1,-1,2c-1,0,-1,0,-2,-1c0,0,-1,0,-1,-1l0,1l-1,1l-1,1c0,0,-1,0,-2,1c-1,0,-2,0,-4,0l5,-2l1,-1c1,0,1,0,1,-1l1,-2c0,0,1,-1,1,-1l1,0c1,0,1,0,1,1c1,0,1,1,2,1c1,0,1,0,1,0l1,0c1,0,1,0,2,0c0,0,1,0,1,0c0,0,0,-1,0,-1l0,-1l-1,-1l1,-1l1,1l0,1l0,1c0,0,0,1,0,1c-1,0,-1,1,-1,1c0,0,-1,1,-1,1c-1,0,-1,0,-2,0ZM389.5,96.5c0,-1,0,-1,0,-1c1,0,1,-1,1,-1c0,1,1,1,1,1l0,1l0,1l0,1l0,1l-1,-1l0,1l-1,0c0,1,-1,1,-1,1l-1,0l1,-1l1,0l0,-1l0,-1l0,-1ZM390.5,96.5c-1,0,-1,0,-1,0l1,0l0,1l0,-1ZM384.5,114.5l0,-1l-1,0c0,-1,0,-1,0,-1c0,0,-1,0,-1,0c0,0,0,1,0,1l1,0l0,1ZM380.5,104.5c0,1,0,1,1,1l0,-1l0,-1l1,0l0,1c1,0,1,0,1,-1l0,-1l0,1l0,1c0,1,0,1,0,1l-1,0l-1,0c0,1,0,1,-1,1c0,-1,0,-1,0,-1l0,-1ZM384.5,101.5l-5,3c0,-1,0,-2,0,-2l6,-3ZM365.5,162.5l-1,0c0,0,-1,1,-1,1c0,0,-1,0,-1,0c-1,0,-1,0,-1,0l-1,0c0,0,0,-1,0,-1l0,-1c1,0,1,0,1,0l1,0l0,-1c0,0,1,0,1,0c0,0,0,-1,0,-1c1,0,1,0,1,0c0,-1,-1,-1,-1,-1c0,-1,0,-1,0,-1c-1,-1,-1,-1,-2,-2c0,0,-1,0,-1,-1c-1,0,-1,-1,-1,-1l-1,0c-1,0,-1,0,-1,0c0,0,-1,-1,-1,-1c0,-1,0,-1,0,-1c0,-1,0,-1,0,-1c0,-1,0,-1,0,-1l1,0c0,0,1,1,1,1c0,0,1,1,1,1c1,1,2,2,2,2c1,1,1,2,2,3c0,0,1,0,1,1l0,1c1,-1,1,-1,1,-2c0,0,0,-1,0,-2c0,0,0,-1,0,-1c0,-1,0,-1,0,-2c0,0,0,-1,0,-1c0,-1,0,-1,0,-1c0,0,0,-1,0,-1l1,-1c0,0,0,1,0,1c0,0,0,1,0,1c0,0,1,0,1,0c0,0,0,1,0,1l-1,1c0,1,0,1,0,2c0,0,0,1,0,1c0,0,0,1,0,1c0,1,0,2,-1,2c0,1,0,1,0,1c0,1,0,1,0,1c0,1,0,1,0,1c1,0,1,0,1,1l0,1c-1,0,-1,0,-1,0ZM364.5,160.5c-1,1,-1,1,-1,1c0,0,1,0,1,0l1,0c0,-1,0,-1,0,-1ZM303.5,162.5c0,0,-1,0,-1,0c-1,0,-1,1,-1,1c0,0,-1,0,-2,0c0,0,-1,0,-1,0c0,0,0,-1,0,-1l0,-1l1,0c1,0,1,0,1,-1l1,0c0,0,0,-1,0,-1l1,0c-1,-1,-1,-1,-1,-1c0,-1,-1,-1,-1,-1c0,-1,-1,-1,-1,-2c0,0,-1,0,-2,-1c0,0,0,-1,0,-1c-1,0,-1,0,-1,0c0,0,-1,0,-1,0c0,0,-1,-1,-1,-1c0,-1,0,-1,0,-1c0,-1,0,-1,0,-1c0,-1,0,-1,0,-1c1,0,1,1,2,1c0,0,1,1,1,1c1,1,2,2,2,2c1,1,1,2,2,3l1,1l0,1c0,-1,0,-1,1,-2c0,0,0,-1,0,-2c0,0,0,-1,0,-1c0,-1,0,-1,0,-2c0,0,0,-1,0,-1c0,-1,0,-1,0,-1c0,0,0,-1,0,-1l1,-1c0,0,0,1,0,1c0,0,0,1,0,1l1,0c0,0,0,1,-1,1l0,1c0,1,0,1,0,2c0,0,0,1,0,1c0,0,0,1,0,1c-1,1,-1,2,-1,2c0,1,0,1,0,1c0,1,0,1,0,1c0,1,0,1,0,1l0,1l0,1ZM302.5,160.5c0,0,-1,0,-1,0c0,1,0,1,0,1c1,0,1,0,1,0l1,0c0,-1,-1,-1,-1,-1ZM229.5,147.5c0,0,1,-1,1,-1c1,0,1,0,1,0c1,0,1,0,2,0c0,1,0,1,0,1c0,1,0,1,0,1c0,1,-1,1,-1,1l-1,0l-1,0l-1,0l2,0c1,-1,1,-1,2,-1c-1,0,-1,0,-1,-1c0,0,-1,0,-1,0c0,0,-1,0,-1,1c0,0,-1,0,-1,0c0,-1,0,-1,0,-1ZM133.5,149.5c1,-1,1,-1,1,-1c1,0,1,0,2,0c0,0,1,0,1,0c0,0,1,1,1,1c-1,0,-1,1,-1,1l-1,1l-1,0l-1,0l1,-1c1,0,1,0,2,0c0,-1,-1,-1,-1,-1c0,0,-1,0,-1,0c0,0,-1,0,-1,0c0,0,-1,1,-1,1l0,-1ZM252.5,157.5l0,-1l1,0c0,-1,0,-1,0,-1l0,-1l0,-1l0,-1l0,-1c0,-1,0,-1,0,-1l1,1l0,1l0,1l0,1l0,1l0,-1l1,0c0,0,1,0,1,0c1,0,1,0,1,0l1,0l0,1c-1,0,-1,0,-1,0c0,1,0,1,0,1c0,0,-1,0,-1,0l-1,0c0,1,-1,1,-1,1ZM256.5,154.5c0,1,-1,1,-1,1l-1,0l0,1c0,0,1,0,1,0c1,-1,2,-1,2,-1l-1,0c0,-1,0,-1,0,-1ZM339.5,150.5l0,-1c0,0,0,-1,0,-1c0,-1,0,-1,-1,-2l1,0l0,-1c0,0,0,1,1,1c0,1,0,1,0,1l0,1c0,1,0,1,0,1c0,0,-1,1,-1,1ZM95.5,159.5c0,1,0,2,0,2c0,0,0,1,-1,1l0,1l-1,0l2,1l-1,0l0,1l-1,0l-1,1l-1,1l-1,0l-1,0l-1,0l0,1l-1,1l-1,0c0,1,0,1,0,1l-3,0c0,-1,0,-1,-1,-1l0,-1c-1,0,-1,0,-1,-1c-1,0,-2,0,-3,0l0,-1l-1,0l-1,-1l-1,0l0,-1l-1,0l2,-1l-1,0l0,-1l-1,-1l0,-1l0,-1l0,-1c0,-1,0,-1,1,-2l1,-1l-2,0c0,0,0,-1,0,-1c0,0,1,0,1,0l1,-1l1,0l0,-1l1,0l1,-1l2,0l1,-1l0,-1c1,0,1,0,1,0l3,0l1,0l0,1l1,0l0,1l2,1l1,0c0,0,1,0,1,0l0,1l1,0c1,1,1,1,2,1l0,1l-1,0l0,1l1,1l0,1ZM86.5,169.5l1,0l0,-1l1,-1c1,0,1,0,2,0l1,-1c0,0,1,0,1,0l0,-1l1,0l0,-1l1,0l-1,-1l1,-1l0,-1l1,0l0,-1l0,-1c0,-1,0,-2,-1,-2l0,-1l-1,-1l1,-1l-1,0l0,-1l-1,0l0,-1l-1,0l-1,0l-2,-1l-1,-1l0,-1l-1,0l-1,0l-2,0l-1,1l0,1c-1,0,-1,0,-1,0l-2,1l-1,0l-1,0l0,1l-1,0l0,1c0,0,-1,0,-1,0l1,1l-1,1l0,1l0,1l-1,0c0,1,0,1,0,1l0,1l1,1l0,1l1,1l-1,1l1,1l1,0l0,1l1,0l1,1l1,0l1,0l1,1l1,1ZM92.5,154.5l-1,1l0,-1l-1,0l0,-1l-1,0c-1,0,-1,0,-1,0l0,-1c0,0,1,0,1,0l0,1l1,0l1,0l0,1l1,0ZM92.5,164.5l-1,1l-1,0l0,1l-1,0l-1,0l1,0c0,-1,-1,-1,-1,-1c1,0,1,0,1,0l1,0c1,-1,1,-1,1,-1l1,0ZM87.5,166.5c0,0,0,1,0,1c0,0,-1,0,-1,0l-3,0c0,0,-1,0,-1,0c0,-1,0,-1,0,-1c0,0,0,-1,0,-1c0,0,1,0,1,0l3,0l1,0l0,1ZM87.5,152.5c0,1,0,1,0,1l-1,0l0,1l-3,0l0,-1c0,0,-1,0,-1,0l0,-1l0,-1l1,0l3,0c0,0,1,0,1,0c0,0,0,1,0,1ZM86.5,155.5l1,-1l1,0c0,0,1,0,1,1l1,0l0,1l1,-1c1,0,1,1,1,1l0,1l1,0l0,1l0,1l0,1c0,0,0,1,0,1l-1,0l0,1c0,0,0,1,0,1l-2,-1c0,0,0,1,0,1c-1,0,-1,0,-1,1l-1,0l-1,0c0,0,-1,0,-1,0l0,-1l-3,0l0,1l-1,0l-1,0c0,0,-1,0,-1,0c0,0,0,-1,-1,-1l0,-1l-1,1l-1,-1l0,-1l0,-1l-1,0l0,-1c0,0,0,-1,0,-1c0,0,1,0,1,-1l0,-1c0,0,1,-1,1,-1l1,1l0,-1l1,0c1,-1,1,-1,1,-1c1,0,1,0,1,0l1,0l0,1ZM86.5,163.5l1,1l1,0l1,0l0,-1l1,-1l1,0l1,0l0,-1l0,-1l1,-1c0,0,-1,-1,-1,-1c0,-1,0,-1,0,-2c0,0,-1,0,-1,0l-1,0l0,-1l-1,0l-1,0l0,-1c-1,0,-1,1,-1,1c0,0,-1,0,-1,0l-3,0l-1,0l-1,-1c0,0,0,1,0,1c0,0,-1,0,-1,0l-1,1l-1,0l-1,0l0,1l0,1l0,1c0,1,0,1,0,1l0,1c0,1,0,1,1,1l1,0l0,1l1,0l1,1c1,0,1,0,1,0c1,-1,1,-1,1,-1l3,0ZM84.5,157.5c0,0,1,0,1,1l0,1l0,1l1,1l-1,1c0,0,0,-1,0,-3c-1,0,-1,0,-1,0c0,0,-1,0,-1,0c0,-1,0,-1,0,-1l1,0c0,-1,0,-1,0,-1ZM84.5,158.5l0,1l0,-1l1,0c0,0,-1,0,-1,0ZM77.5,154.5l1,0l0,-1l1,0l1,0l0,-1l1,0l0,1c-1,0,-1,0,-1,0c0,0,-1,0,-1,1l-1,0l0,1l0,-1ZM77.5,164.5l1,0c0,0,1,0,1,1l1,0l1,0l0,1l-1,0c-1,0,-2,-1,-2,-1l0,-1l-1,0ZM187.5,152.5l-1,-1l-1,1l-1,0l1,-2l1,1l1,-1l1,1ZM185.5,160.5c1,0,1,0,2,0c0,-1,0,-1,0,-1l0,-1c0,0,0,-1,-1,-1l-1,0c0,0,0,-1,0,-1c0,0,0,-1,0,-1c0,0,0,-1,1,-1l1,1l0,1l1,0l0,1c0,1,0,1,0,2l0,1c0,1,0,1,0,1l-1,0l-1,1l-1,0l-1,-1c-1,0,-1,0,-1,-1l0,-1l0,1c0,0,-1,1,-1,1c0,0,-1,0,-1,0c-1,0,-1,0,-2,-1l0,1c-1,0,-1,1,-2,1c-1,0,-1,-1,-2,-2c0,0,0,1,0,1c-1,0,-1,1,-2,1l-1,0c-1,0,-1,0,-1,0c-1,0,-1,0,-1,0c0,-1,0,-1,0,-1l-1,0c0,-1,0,-1,0,-1c-1,0,-1,0,-2,0c0,0,-1,0,-1,0c-1,0,-2,1,-2,1c-1,0,-2,0,-3,0c-1,0,-2,0,-3,0c-1,0,-2,0,-3,0c-1,0,-2,0,-2,0c-1,0,-2,1,-3,1c-1,0,-2,0,-2,0l-1,0l-1,0l0,-1l0,1l0,1c0,1,-1,1,-1,2l-1,1c-1,1,-1,1,-1,1c-1,0,-1,0,-1,0c0,0,-1,0,-1,0l-1,0c0,0,-1,0,-1,0c0,0,-1,0,-1,0l0,-1c0,0,1,0,1,0c1,0,1,0,2,0c0,0,1,0,1,0c0,-1,1,-1,1,-1c0,0,0,-1,1,-1l0,-1c1,0,1,-1,1,-1c0,0,0,-1,0,-1c-1,0,-1,-1,-1,-1l0,-1c0,0,1,0,1,0l0,1l1,0l1,0c1,0,1,0,2,0c1,0,2,0,3,0c1,0,2,0,2,0c1,0,2,0,3,0c0,0,1,0,2,-1c1,0,2,0,2,0c1,0,2,0,3,0c2,0,2,0,3,-1c1,0,2,0,3,0c0,-1,-1,-1,-1,-1c-1,0,-1,0,-1,0c-1,0,-3,0,-5,0c-2,0,-4,0,-6,1c-2,0,-3,0,-4,0c-2,0,-3,0,-4,-1c0,-1,0,-1,0,-2c0,0,1,0,1,0c0,-1,0,-1,1,-2c1,-1,1,-1,2,-2c1,-1,2,-1,3,-2l1,0l-1,2l-1,1c-1,0,-2,1,-2,1c-1,1,-2,2,-3,2c0,1,0,1,0,1c1,0,1,0,2,0l1,0c1,0,3,0,5,0c2,0,4,0,6,-1c2,0,3,0,4,0c1,0,1,0,2,1c0,0,1,0,1,0l0,1c0,1,0,1,0,2c0,0,-1,1,-1,1l2,0l1,0l1,0c1,-1,1,-1,2,-2l0,1c0,0,1,1,1,1c1,0,1,0,2,-1l1,-1c0,0,0,1,0,1c0,0,1,0,1,0c1,0,1,0,1,0l1,0c0,0,0,-1,0,-1c1,1,1,2,2,2ZM185.5,145.5l4,-2l-1,1l-4,2ZM178.5,154.5l-1,-1l1,-2l1,1ZM180.5,156.5l-2,-1l0,1l-2,-1l1,-1l1,1l1,-1l2,1ZM176.5,146.5c1,0,1,0,1,0c1,0,1,0,2,0c0,0,1,0,1,0c0,0,1,0,1,1c-1,0,-1,1,-1,1l-1,0c0,0,0,1,0,1c-1,0,-1,0,-1,0l-1,0l1,-1c1,0,1,0,2,-1c0,0,-1,0,-1,0l-1,0c0,0,-1,0,-1,0l-1,0l0,-1ZM152.5,142.5c0,-1,1,-1,1,-1c1,1,1,1,1,1c0,1,0,1,0,1l-1,1l1,0l0,2l-1,-1l-1,0l0,1c-1,0,-1,1,-1,1l-1,0l-1,0l1,-1l1,0l0,-1l1,0l0,-1c-1,0,-1,0,-1,-1l1,-1ZM153.5,143.5l0,-1l-1,0l0,1l1,1l0,-1ZM143.5,146.5c0,0,1,-1,1,-1l1,0c0,0,1,0,1,1l-1,0l0,1l0,1l1,0l0,1l-2,-1l0,1c-1,1,-1,1,-1,1l-1,0l-1,0l1,0l1,-1l1,-1l-1,0c0,-1,0,-1,0,-1c0,-1,0,-1,0,-1ZM144.5,146.5l0,1l1,0l0,-1ZM137.5,158.5c0,0,-1,0,-1,0c0,1,0,1,1,1l0,-1ZM137.5,165.5c-1,1,-1,1,-1,1l-1,0c0,0,-1,0,-1,0l-1,0c0,0,-1,0,-1,0c0,0,-1,0,-1,0l0,-1c0,0,1,0,1,1c1,0,1,0,1,0c1,0,1,-1,1,-1c1,0,1,0,1,0c1,0,1,-1,1,-1c1,0,1,-1,1,-1l1,-1c0,-1,0,-1,0,-1c0,0,0,-1,0,-1c0,1,-1,1,-1,1c-1,0,-1,0,-1,0c0,0,-1,-1,-1,-1c0,0,0,-1,0,-1l0,-1c0,0,0,-1,1,-1c0,-1,0,-1,0,-1c1,0,1,0,1,0c0,0,1,0,1,0l0,1c0,0,1,0,1,1l0,1l0,1c0,1,0,1,0,1c0,1,0,2,-1,2c0,1,0,1,0,1c-1,1,-1,1,-1,1ZM118.5,160.5l-1,-1l1,-2l1,1ZM131.5,162.5l0,1c-1,0,-1,0,-1,0c0,1,-1,1,-1,1c0,0,-1,0,-1,1c-1,0,-1,0,-2,0c-1,0,-2,1,-3,1c-1,0,-1,0,-3,0c0,0,-1,0,-2,0c0,0,-1,0,-1,0l-1,0c0,0,-1,0,-2,0c0,0,-1,0,-1,0c-1,0,-2,0,-3,0c-1,0,-1,-1,-2,-1c-2,0,-3,-1,-4,-1c0,-1,-1,-2,-2,-2c0,-1,0,-1,-1,-1c1,0,1,0,1,0c1,0,1,1,2,1c0,0,1,0,2,1c0,0,1,0,1,0c1,1,1,1,2,1c1,0,1,0,2,0c0,0,1,1,2,1c1,0,1,0,2,0c0,0,1,0,2,0c0,0,1,0,1,0c1,0,2,0,2,0c1,0,2,-1,3,-1c1,0,2,0,3,0c1,-1,1,-1,2,-1c2,-1,3,-1,3,-2l0,-1c0,0,-1,0,-1,0c0,0,0,-1,0,-1l0,-1c-1,0,-1,0,-1,0l1,-2l1,1c0,1,0,1,0,1l0,1l0,1c0,0,0,1,0,1c0,0,0,1,0,1ZM109.5,152.5l1,0l3,-1l5,-2l5,-2l-1,2l-1,0l-1,0l-2,1l-5,2l-4,1ZM207.5,161.5c0,0,-1,0,-1,0l-1,0l-1,0l-1,-1l0,1l-1,1l-1,0l-1,0c-1,0,-2,-1,-2,-1c-1,0,-1,-1,-1,-2l-1,-8l1,-2l1,9l0,1c0,1,1,1,2,1l1,0l1,0c0,0,1,0,1,0l0,-1l1,-1c0,0,0,-1,1,-1c0,-1,1,-1,1,-1l1,1c0,0,0,1,0,1l0,1l0,1c0,1,0,1,0,1ZM205.5,159.5l1,0c0,0,0,-1,0,-1l-1,0c0,0,0,1,0,1ZM203.5,147.5l0,1c1,0,1,0,1,0l0,-1c0,0,0,1,1,1c0,0,0,-1,0,-1l1,-1l0,1l0,1c0,0,-1,1,-1,1c0,0,-1,0,-1,0l0,-1l0,1c-1,0,-1,1,-1,1c0,0,0,-1,-1,-1l0,-1l0,-1ZM207.5,144.5l-6,3c0,-1,1,-1,1,-1l5,-3ZM245.5,152.5l-2,-1l-1,1l-1,-1l1,-1l1,1l1,-1l2,0ZM246.5,160.5c0,0,-1,1,-1,1c0,0,-1,0,-2,1c0,0,-1,0,-2,0c-1,0,-1,0,-1,-1c-1,0,-1,-1,-1,-1c-1,0,-1,1,-1,1c-1,0,-1,1,-1,1l-1,0c-1,0,-1,0,-1,0c0,0,-1,-1,-1,-1c0,0,-1,-1,-1,-1l0,1c-1,0,-1,0,-1,0c0,0,-1,0,-1,1l-1,0l-1,0c-1,0,-1,-1,-2,-1c0,0,0,-1,0,-2c0,0,-1,-1,-1,-1c0,-1,0,-1,0,-1l0,1c0,1,0,1,0,1c0,0,-1,1,-1,1l0,1c0,0,-1,0,-1,0c0,1,0,1,-1,1l-1,1c0,0,-1,0,-2,0c0,0,-1,0,-2,0l1,0l1,-1l1,0c0,0,1,-1,1,-1c1,0,1,0,1,-1c1,0,1,0,1,0c0,-1,0,-1,0,-1c-1,-1,-1,-1,-1,-1c0,0,0,-1,-1,-1c0,0,0,-1,0,-1c-1,0,-1,-1,-1,-1c-1,0,-1,-1,-2,-1c-1,0,-1,0,-1,0l-1,-1c0,-1,0,-1,0,-1c0,-1,0,-1,0,-1c0,-1,0,-1,0,-1c1,1,2,1,2,1c1,1,1,1,2,2c0,0,1,1,1,2c1,0,1,1,2,1c0,1,0,1,0,2c0,0,1,1,1,1c0,0,0,-1,0,-1l0,-1c1,0,1,-1,1,-1c0,-1,0,-1,0,-2l0,-3l1,-2l0,9l0,1c1,0,1,0,1,0c0,1,1,1,1,1l1,0c0,0,1,0,1,0c0,0,1,0,1,-1c1,0,1,0,1,0c0,0,1,0,1,0c0,0,0,1,1,1l1,0c1,0,1,0,1,0c0,0,1,-1,1,-1c0,-1,0,-1,0,-1c0,0,0,-1,0,-1l0,-7l1,-2l0,10c0,1,0,1,0,1c0,0,1,0,1,1c0,0,1,0,1,0c1,0,2,0,2,0c1,0,2,-1,2,-1c1,0,1,0,1,-1c0,0,-1,-1,-1,-1c0,0,0,1,0,1l-1,0c-1,0,-1,0,-1,0c-1,0,-1,0,-1,0c0,-1,0,-1,0,-1c0,-1,0,-1,0,-2c1,0,1,-1,1,-1c0,-1,1,-1,1,-1c0,0,1,0,1,1l1,1l0,1l0,1c0,0,0,1,0,1c0,1,0,1,0,1c0,0,0,1,0,1ZM243.5,156.5l1,0l1,0l-1,0c0,0,0,-1,0,-1c-1,0,-1,0,-1,0c0,0,0,1,0,1ZM242.5,145.5l4,-2l0,1l-4,2ZM239.5,168.5l-4,2c0,-1,1,-1,1,-1l3,-2ZM234.5,165.5l-1,-1l-1,1l-1,-1l0,-1l2,1l1,-1l1,0ZM219.5,145.5l5,-2c0,1,0,1,0,1l-5,3ZM221.5,142.5l5,-2c0,0,0,1,0,1l-5,2ZM315.5,158.5l-1,0c1,1,1,1,1,1l1,0l0,-1c-1,0,-1,0,-1,0ZM315.5,165.5c0,1,0,1,0,1c-1,0,-1,0,-1,0c-1,0,-1,0,-2,0c-1,0,-1,0,-2,0l-1,0l0,-1l1,0l0,1c0,0,1,0,1,0c0,0,1,0,1,0c0,0,0,-1,0,-1c1,0,1,0,1,0l1,0c0,0,0,-1,1,-1c0,0,0,-1,0,-1c1,0,1,0,1,-1c0,-1,1,-1,1,-1c0,0,0,-1,0,-1l-1,0c0,1,0,1,0,1c0,0,-1,0,-1,0c0,0,-1,0,-1,0c0,0,0,-1,0,-1c-1,0,-1,-1,-1,-1l1,-1c0,0,0,-1,0,-1c0,-1,1,-1,1,-1l1,0c0,0,1,0,1,1l0,1l0,1l0,1c0,1,0,1,0,1c0,1,0,2,0,2c-1,1,-1,1,-1,1c0,1,-1,1,-1,1ZM312.5,152.5l5,-2l-1,1l-4,2ZM308.5,162.5l0,-1l0,-2l0,-8l1,-2l0,10c0,0,0,1,0,1l0,1l-1,1ZM293.5,143.5l4,-2l0,1l-4,2ZM303.5,144.5c0,0,0,-1,1,-1l1,0c0,0,1,0,1,0c0,1,0,1,0,1c0,0,0,1,0,1l-1,0l0,1c0,0,-1,0,-1,0l-1,0l1,-1c1,0,1,0,2,-1l-1,0l-1,0l-1,0l0,1l0,-1ZM288.5,152.5l-1,-1l1,-1l1,1ZM291.5,160.5c-1,0,-1,1,-1,1c0,0,-1,0,-2,1c0,0,-1,0,-1,0l-1,0l-5,0l-1,0l-1,0c-1,0,-1,0,-1,0c0,-1,0,-1,0,-1l-1,0l0,-1l0,-1l0,1l-1,0l0,1c-1,0,-1,0,-2,0c0,0,-1,1,-1,1l-1,0c0,0,0,-1,-1,-1c-1,0,-1,0,-1,-1c0,0,0,-1,0,-1l1,0l0,-1c0,1,0,1,0,1l1,0l0,1l1,0l1,0c1,0,1,-1,1,-1c1,0,1,0,1,0l1,0c0,-1,0,-1,-1,-2l0,-2l0,-1l1,-2l0,2c0,0,0,1,0,1l1,3l0,1l0,1l1,0l1,0l1,0l5,0l1,0c0,0,1,0,1,0c1,0,2,-1,2,-1l1,0c0,0,0,-1,0,-1c-1,0,-1,-1,-1,-1c0,0,0,1,0,1c0,0,-1,0,-1,0c-1,0,-1,0,-1,0l-1,0l0,-1c0,-1,0,-1,0,-2c1,-1,1,-1,1,-1c0,-1,1,-1,1,-1c0,0,1,0,1,1l1,1l0,1l0,1c0,0,0,1,0,1c0,1,0,1,0,1c0,0,0,1,0,1ZM288.5,155.5l0,1l1,0l1,0l-1,0l0,-1l-1,0ZM286.5,144.5c0,0,1,-1,1,-1c1,0,1,0,1,0c1,0,1,0,2,0c0,1,0,1,0,1c0,1,0,1,0,1c0,0,-1,1,-1,1l-1,0l-1,0l-1,0l2,0c1,-1,1,-1,2,-1c-1,0,-1,-1,-1,-1c0,0,-1,0,-1,0c0,0,-1,0,-1,1c0,0,-1,0,-1,0c0,-1,0,-1,0,-1ZM281.5,155.5l1,0c0,0,0,-1,1,-1l1,0l0,1l-1,0c0,0,-1,0,-1,0l1,1l1,0c0,0,1,0,1,0c0,0,0,1,0,1l-4,1l1,-1c0,0,-1,-1,-1,-1l0,-1ZM285.5,165.5l-4,2c0,-1,1,-1,1,-1l4,-2ZM272.5,149.5l4,-2l0,1l-4,2ZM266.5,154.5l-1,-1l-1,1l-1,-1l0,-1l2,0l1,-1l1,1ZM265.5,162.5c-1,0,-1,0,-1,-1c-1,0,-1,-1,-1,-1c0,-1,0,-1,0,-2l0,-1l1,-1c1,-1,1,-1,1,-1c1,0,1,0,2,0c0,1,0,1,1,2l0,1c0,2,-1,3,-2,4c0,0,-1,0,-1,0ZM265.5,157.5c0,0,-1,0,-1,0c0,1,0,1,0,1c0,0,0,1,0,1c0,1,0,1,0,1l1,0l1,0c1,-1,1,-1,1,-1c0,0,0,-1,-1,-1c0,0,-1,-1,-1,-1ZM261.5,145.5l5,-2l-1,1l-4,2ZM377.5,158.5c0,1,0,1,0,1c1,0,1,0,1,0l0,-1l-1,0ZM377.5,165.5c0,1,0,1,0,1c0,0,-1,0,-1,0c0,0,-1,0,-2,0c0,0,-1,0,-2,0l0,-1l1,1c0,0,1,0,1,0c0,0,0,-1,1,-1c0,0,1,0,1,0c0,0,1,-1,1,-1c0,0,0,-1,1,-1l0,-1c1,-1,1,-1,1,-1c0,0,0,-1,0,-1c-1,0,-1,0,-1,0c0,1,0,1,0,1c0,0,-1,0,-1,0l-1,0c0,0,0,-1,0,-1c0,0,0,-1,0,-1l0,-1c0,0,0,-1,0,-1c1,-1,1,-1,1,-1l1,0c1,0,1,0,1,1l0,1l1,1l0,1c0,1,0,1,0,1c-1,1,-1,2,-1,2c0,1,-1,1,-1,1c0,1,0,1,-1,1ZM374.5,152.5l5,-2l-1,1l-4,2ZM371.5,162.5l0,-1l0,-2l-1,-8l1,-2l1,10c0,0,0,1,-1,1l0,1l0,1ZM355.5,143.5l4,-2l0,1l-4,2ZM365.5,144.5c0,0,1,-1,1,-1c0,0,1,0,1,0c0,0,1,0,1,0c0,1,1,1,1,1l-1,0c0,0,0,1,0,1l-1,0l0,1c-1,0,-1,0,-1,0c-1,0,-1,0,-1,0l2,-1c0,0,1,0,1,-1c-1,0,-1,0,-1,0c-1,0,-1,0,-1,0c-1,0,-1,0,-1,1l0,-1ZM352.5,165.5l-1,-1l1,-1l1,1ZM350.5,160.5c0,0,1,0,1,0c1,0,1,0,1,-1l1,0l-1,0c0,0,0,-1,0,-1l0,-1l0,-2c0,1,1,1,1,1l0,1l0,1l0,1l0,1l0,1c-1,0,-1,0,-2,0c0,1,-1,1,-1,1l-1,0l-12,0c0,1,0,1,0,2c0,0,-1,0,-1,0l0,-1c0,0,0,-1,0,-1l0,-1c-1,0,-1,0,-1,-1l0,1c-1,0,-1,0,-2,0c0,0,0,1,0,1l-1,0l-1,0l-1,-1l0,1l0,1c0,1,0,1,0,2c-1,0,-1,0,-1,1l-1,0c0,1,0,1,-1,1l-1,0l-1,0c0,0,-1,0,-2,0l0,-1l1,0c1,0,1,0,2,0l1,0c0,-1,0,-1,1,-1c0,0,0,-1,0,-1c0,0,1,0,1,-1c0,0,0,-1,1,-1c0,0,0,-1,0,-1l-1,0c0,0,0,-1,0,-1l0,-1c1,0,1,0,1,0l0,1c0,0,1,0,1,0l1,0l1,0c1,0,1,0,1,0c0,-1,1,-1,1,-1l0,-1l1,0c0,1,0,1,0,2l1,0l1,-1l1,-1l2,-1c0,0,1,0,1,-1c1,0,1,0,1,0l1,0c1,0,1,0,2,0c0,0,0,1,1,1l0,1c0,0,0,1,0,1c0,0,-1,0,-1,1l1,0l2,0ZM349.5,151.5c0,0,1,0,1,-1c0,0,1,0,1,0c1,0,1,0,2,1c0,1,0,1,0,1c-1,1,-1,1,-1,1c-1,0,-1,0,-1,0c0,0,-1,0,-1,0c0,0,-1,0,-1,0l2,0c1,-1,1,-1,1,-1c-1,0,-1,-1,-1,-1c-1,0,-1,1,-1,1c-1,0,-1,0,-1,0c0,0,0,-1,0,-1ZM346.5,159.5c0,0,-1,-1,-1,-1c0,0,-1,0,-1,0l-1,0c-1,0,-1,0,-1,0c-1,0,-1,0,-2,1l-2,1l1,0l1,0l1,0c1,0,1,0,1,0l1,0l1,0c0,0,0,-1,1,-1l1,0ZM326.5,149.5l4,-2l-1,1l-4,2ZM351.5,101.5c0,-1,0,-2,0,-2c0,-1,0,-1,-1,-2l1,0l0,-1c0,0,0,1,0,1c1,1,1,1,1,1l0,1c0,1,0,1,0,1c-1,1,-1,1,-1,1ZM350.5,103.5l0,1c0,0,0,1,1,1l0,-1l0,-1l1,-1l0,1l0,1c0,0,1,0,1,0c0,0,0,-1,0,-1l1,-1c0,1,0,1,0,1l0,1c0,1,-1,1,-1,1l-1,0l-1,0c0,1,0,1,-1,1c0,0,-1,-1,-1,-1c0,0,0,-1,0,-1l1,0l0,-1ZM68.5,50.5l-1,-1l1,0ZM68.5,52.5l-1,0c0,0,-1,0,-1,0l-1,0l0,-1l0,-1c0,0,0,-1,0,-1l0,-1c0,0,1,0,1,0c0,-1,0,-1,1,-1l-1,0l-1,0c0,0,0,-1,0,-1l1,0l1,0c0,0,1,0,1,0c1,0,1,0,1,0l0,1l-1,0l-1,0c0,0,-1,0,-1,0l0,1c-1,0,-1,1,-1,1l0,1c0,1,1,1,1,1c1,0,1,0,1,1l1,0c1,0,1,0,1,0l1,0ZM352.5,47.5l0,-1l1,0Z" class="g1_22" />
<path fill-rule="evenodd" d="M121.5,410.5l-1,0c-1,0,-1,0,-1,0c0,0,-1,0,-1,0c0,-1,0,-1,0,-1l0,-1l0,-1c0,-1,0,-1,1,-1c0,0,0,-1,1,-1l-1,0l-1,0c0,0,1,-1,1,-1l0,1l1,0c0,0,1,0,1,0c0,0,1,0,1,0l-1,0l-1,0l0,1c0,0,-1,0,-1,0l-1,0c0,1,0,1,0,1c0,0,0,1,0,1c0,0,0,1,0,1c1,0,1,0,1,0l0,1c0,0,1,0,1,0l1,0l1,0l1,0ZM183.5,447.5c0,0,1,0,1,0c1,0,1,0,1,0c1,0,2,0,2,0l0,1c0,0,0,1,0,1c0,0,-1,0,-1,0c0,1,0,1,-1,1l-1,0l-1,0l2,-1c1,0,1,0,2,-1c-1,0,-1,0,-1,0c0,0,-1,0,-1,0c0,0,-1,0,-1,0c0,0,-1,0,-1,0c0,0,0,-1,0,-1ZM158.5,438.5c0,0,-1,0,-1,0c0,0,0,1,0,1c-1,0,-1,0,-1,0c0,1,0,1,0,1c0,0,0,1,0,1c0,1,1,1,1,1c1,0,1,0,1,0c1,0,1,0,1,0l1,0l-1,1c-1,0,-1,0,-1,0c0,0,-1,0,-1,-1l-1,0l0,-1l-1,0c0,-1,0,-1,1,-1c0,0,0,-1,0,-1l0,-1l0,-1c0,-1,0,-1,0,-1c0,0,1,0,1,0l0,1l-1,0c0,1,0,1,0,1l1,0l1,-1ZM169.5,457.5c0,1,0,2,0,3l-1,1l1,1l-1,0l0,1l-1,0l0,1l-1,0l-1,1l-1,0l-1,0l0,1c0,0,-1,0,-1,0l-1,1l0,1c-1,0,-1,0,-1,0l-3,0l-1,0c0,0,-1,-1,-1,-1l-1,-1l-1,0c-1,-1,-1,-1,-2,-1l-1,-1l-1,0l0,-1l-1,0l0,-1l-1,0l1,-1l-1,-1l0,-1c0,-1,0,-1,0,-1l0,-1l0,-1c0,0,0,-1,0,-1c0,-1,1,-1,1,-1l0,-1l-1,0c0,0,0,-1,1,-1l1,0l0,-1l1,0l0,-1l1,0l1,0l1,-1c1,0,1,0,1,0l1,-1c0,-1,0,-1,1,-1l1,0l3,0l1,1l1,1l1,0l1,1l1,0c1,0,1,0,1,0l0,1l1,0l0,1c1,0,2,0,2,1l-1,0l0,1l1,1l0,1ZM160.5,468.5l0,-1l1,0l0,-1l1,0l1,-1l1,0l1,0c0,-1,1,-1,1,-1l1,0l0,-1l1,0l0,-1l1,0l-2,0l0,-1l1,0l0,-1l1,0l0,-1l0,-1l0,-1c0,-1,0,-1,0,-2l-1,0l0,-1l-1,-1l2,0c-1,-1,-1,-1,-2,-1l0,-1l-1,0l-1,-1l-1,0l-2,-1l-1,-1l0,-1c-1,0,-1,0,-1,0l-1,0l-2,0l-1,0l-1,0l0,1l-1,1l-2,1l-1,0l-1,1l-1,0l0,1c-1,0,-1,0,-2,1l2,0l-1,1l0,1l-1,0l0,1l0,1l0,1l0,1l0,1l1,0l0,1l1,0c0,1,0,1,0,1l-2,0l1,0l1,1l0,1l1,0l1,1l1,0l1,0c1,0,1,1,1,1l1,0l0,1c0,0,1,1,1,1l1,0ZM166.5,453.5l-1,0l0,-1l-1,0l-1,0c0,-1,0,-1,0,-1l-1,0c1,0,1,0,1,0l1,0c1,0,1,0,1,0c0,1,0,1,0,1l1,0ZM166.5,462.5l0,1l-1,0l0,1l-1,0l-1,0l0,-1l1,0c1,0,1,-1,1,-1l1,0ZM162.5,464.5c0,1,-1,1,-1,1c0,1,0,1,-1,1l-3,0l-1,0c-1,0,-1,-1,-1,-1c0,0,-1,0,-1,-1c0,0,1,0,1,0c0,-1,0,-1,1,-1l1,0l3,0c0,0,1,0,1,0l0,1l1,0ZM162.5,450.5c0,1,-1,1,-1,1c0,0,0,1,-1,1l-3,0l-1,0c-1,0,-1,0,-1,-1l-1,-1c0,0,1,0,1,0l0,-1l1,0l1,0l3,0c1,0,1,0,1,1l1,0ZM160.5,453.5c0,0,1,0,1,0c0,0,1,-1,1,-1c0,0,1,1,1,1c0,0,1,0,1,1l2,0l0,1l1,0l0,1l0,1l0,1c0,1,0,1,0,1l-1,1c0,1,0,1,0,1l-1,0c0,0,-1,0,-1,0l0,1l-1,0l-1,0l-1,0l-1,0l-3,0l-1,0l-1,0l-1,0c0,0,-1,0,-1,0c0,0,-1,0,-1,-1l-1,0l-1,0l0,-1l-1,-1l0,-1l0,-1l0,-1l0,-1l1,0l0,-1l2,0l0,-1l1,0c0,0,1,-1,1,-1c0,0,1,1,1,1l1,0l1,0ZM160.5,461.5l1,1l1,0c1,0,1,0,1,0l1,-1c0,0,0,-1,1,-1l1,1l0,-1l0,-1l1,-1l0,-1c0,0,0,-1,0,-1c-1,-1,-1,-1,-1,-1c0,-1,0,-1,0,-1l-1,0c-1,0,-1,0,-1,0l-1,-1l-1,0c0,0,-1,0,-1,0l-1,0l-3,0l-1,0l-1,0l-1,0l-1,0l-1,0l0,1l-1,0l-1,0l0,1l-1,1l0,1l0,1l0,1l1,0c0,1,0,1,0,2l1,-1c1,0,1,1,1,1l1,1l1,0c1,0,1,0,1,0l1,-1l1,0l3,0ZM158.5,456.5c1,0,1,0,1,0l0,1l0,1l1,0l0,1l0,1c-1,0,-1,-1,-1,-3c0,0,-1,1,-1,1c0,0,0,-1,-1,-1l1,0l0,-1ZM158.5,456.5c0,0,0,1,0,1l1,0c0,0,0,-1,0,-1c0,0,-1,0,-1,0ZM156.5,456.5l1,0l0,1l0,1l0,1c0,1,0,1,0,1l0,-1c0,-1,-1,-2,-1,-3ZM150.5,453.5l0,-1l1,0l0,-1l1,0l1,0l1,0l-1,0l1,0c-1,0,-1,0,-1,0l0,1l-1,0l-1,0l0,1l-1,0ZM150.5,462.5l1,0c0,0,0,1,1,1l1,0c0,1,0,1,0,1l-1,0c0,0,-1,-1,-1,-1l-1,0l0,-1ZM211.5,460.5l0,-1l0,-1l-1,-9l1,-2l1,11c0,0,0,1,-1,1c0,0,0,1,0,1ZM203.5,458.5c0,0,1,0,1,0c0,0,1,0,1,0l1,0c0,0,0,-1,0,-1l0,-2l-1,-6c0,-1,0,-1,0,-1c0,0,0,-1,0,-1c0,0,1,-1,1,-1c0,1,0,1,0,1c0,0,1,1,1,1l0,1l0,1l-1,-1l0,1c0,0,0,1,0,1c0,1,0,1,1,3c0,0,0,1,0,1l0,1c0,1,0,1,0,1c0,0,0,1,0,1c0,0,-1,0,-1,0c0,1,0,1,0,1c-1,0,-1,0,-1,1l-1,0l-1,0c-1,0,-1,0,-1,0c-1,0,-1,0,-2,-1l-1,-1c0,0,0,1,0,1l-1,0c0,0,-1,0,-1,0c0,1,0,1,-1,1l-1,0l-1,0c0,0,0,1,0,1c0,1,-1,1,-1,2c0,0,0,1,-1,1l0,1c-1,0,-1,0,-1,0c-1,0,-1,0,-1,0c-1,1,-1,1,-1,1l-1,0c0,0,-1,-1,-1,-1c-1,0,-1,0,-1,0c0,0,0,-1,0,-1c0,0,0,1,1,1c1,0,1,0,2,-1c0,0,1,0,1,0c0,0,1,-1,1,-1l1,-1c0,-1,1,-1,1,-2l0,-1l-1,0l0,-1c0,-1,0,-1,1,-1l0,1l1,0l1,0c1,0,1,0,1,0l1,0l1,0c0,-1,0,-1,0,-1c-1,0,-1,-1,-1,-1c-1,0,-1,0,-1,0l1,-2l1,0c0,0,1,0,1,0l1,0c1,0,1,0,1,1l0,1c0,1,0,1,0,1l-1,0c0,0,0,1,1,1l1,0l1,0ZM203.5,442.5c1,0,1,0,1,0c1,-1,1,-1,2,-1c0,0,1,0,1,1c0,0,1,0,1,0l-1,0c0,1,0,1,0,1c0,1,-1,1,-1,1l-1,0l-1,0l-1,0l2,0c1,0,1,-1,2,-1c-1,0,-1,0,-1,0c0,0,-1,0,-1,0c0,0,-1,0,-1,0c0,0,-1,0,-1,0c0,0,0,-1,0,-1ZM198.5,447.5l4,-2l0,1l-4,2ZM193.5,455.5l-2,-1l1,-2l2,1ZM193.5,468.5l-4,2c0,-1,0,-1,0,-1l4,-2ZM186.5,463.5l-1,-1l-1,1l-1,0l0,-2l2,1l1,-1l1,1ZM183.5,460.5l-1,0l-1,0c0,0,0,1,0,1c0,1,0,1,-1,2c0,0,0,1,0,1c0,0,-1,0,-1,1c0,0,-1,0,-1,0l-1,0c0,1,0,1,-1,1c-1,0,-1,-1,-2,-1l-1,0c0,0,0,-1,1,-1c0,0,0,1,0,1l1,0c0,0,1,0,1,-1c1,0,1,0,2,0c0,0,0,-1,0,-1c1,0,1,0,1,-1c0,0,1,0,1,0c0,-1,0,-1,0,-2c1,0,1,0,1,-1l-1,0l0,-1c0,-1,0,-1,0,-1l1,1l1,0l1,0c1,0,1,0,2,0c0,0,1,0,1,0c0,-1,0,-1,0,-1l0,-1c0,0,-1,0,-1,-1l1,-1l0,1c1,0,1,0,1,0c0,0,0,1,0,1c0,0,0,1,0,1c0,0,0,1,0,1c0,0,-1,0,-1,0c0,0,0,1,0,1c0,0,-1,1,-1,1c-1,0,-1,0,-2,0ZM180.5,455.5l-1,-1l1,-2l1,1ZM179.5,448.5c0,-1,0,-1,0,-1c1,-1,1,-1,1,-1l1,0c0,1,0,1,0,1c0,1,0,1,0,1l0,1l0,2l-1,-1l-1,1c0,0,-1,1,-1,1l-1,0l0,-1l1,0l0,-1l1,0l0,-1l0,-1ZM180.5,448.5l-1,-1c0,0,0,1,0,1l1,0l0,1l0,-1ZM273.5,460.5l0,-1l0,-1l-1,-9l1,-2l1,11c0,0,0,1,0,1c-1,0,-1,1,-1,1ZM265.5,458.5c0,0,1,0,1,0c0,0,1,0,1,0l1,0c0,0,0,-1,0,-1l0,-2l-1,-6c0,-1,0,-1,0,-1c0,0,0,-1,0,-1c0,0,1,-1,1,-1c0,1,0,1,0,1c0,0,1,1,1,1l0,1l0,1l-1,-1l0,1c0,0,0,1,0,1c0,1,1,1,1,3c0,0,0,1,0,1l0,1c0,1,0,1,0,1c0,0,0,1,0,1c0,0,-1,0,-1,0c0,1,0,1,0,1c0,0,-1,0,-1,1l-1,0l-1,0l-1,0l-1,0c-1,0,-1,0,-2,0c0,0,-1,-1,-1,-1c0,0,-1,1,-2,1c0,0,-1,0,-2,0l-2,0c0,0,0,1,0,1c0,0,0,1,0,1c-1,1,-1,1,-1,1c0,1,-1,1,-1,1c0,0,0,1,-1,1c-1,0,-1,0,-1,0c0,0,-1,0,-1,0c-1,0,-1,0,-2,0l-1,-1c1,0,1,0,1,0c0,0,1,0,1,0c0,0,1,0,1,0c1,0,1,0,1,0c1,-1,1,-1,1,-1c1,0,1,-1,1,-1c0,0,1,0,1,-1c0,-1,0,-1,0,-1c0,0,-1,0,-1,0c0,0,-1,0,-1,0c0,-1,0,-1,0,-1c0,-1,0,-1,0,-1l0,-1c0,0,0,-1,0,-1c1,0,1,0,1,0c0,-1,0,-1,0,-1l1,0c0,0,1,1,1,1c0,1,0,1,0,1c0,1,0,1,0,1c1,0,1,0,2,0l1,0c0,0,1,0,1,0l1,0c0,0,-1,0,-1,-1c0,-1,0,-1,1,-2c0,0,0,-1,0,-1c1,0,1,0,1,-1c0,0,1,0,1,0c1,0,1,0,2,0c0,1,0,1,0,2l0,1c0,0,0,1,0,1c-1,0,-1,1,-1,1c1,0,1,0,1,0l1,0ZM265.5,442.5c1,0,1,0,1,0c1,-1,1,-1,2,-1c0,0,1,0,1,1c0,0,1,0,1,0l-1,0c0,1,0,1,0,1c0,1,-1,1,-1,1l-1,0l-1,0l1,0c1,0,1,-1,2,-1c-1,0,-1,0,-1,0c0,0,-1,0,-1,0c0,0,-1,0,-1,0c0,0,-1,0,-1,0c0,0,0,-1,0,-1ZM262.5,452.5l-2,-1l-1,1l-1,-1l1,-1l1,0l1,-1l1,1ZM261.5,455.5c0,0,-1,0,-1,0c0,0,-1,0,-1,1c1,1,1,1,1,1c1,0,1,0,2,0c0,-1,0,-1,0,-1c0,0,0,-1,0,-1c-1,0,-1,0,-1,0ZM257.5,444.5l4,-2c0,1,0,1,0,1l-4,2ZM252.5,457.5c0,0,-1,0,-1,1c0,0,1,0,1,0c0,0,1,0,1,0c0,0,0,-1,0,-1c0,0,-1,0,-1,0ZM255.5,468.5l-4,2c0,-1,0,-1,0,-1l4,-2ZM246.5,450.5l0,1c0,1,0,1,0,1c0,0,-1,0,-1,0c0,0,0,-1,0,-1c-1,0,-1,1,-2,1c-1,1,-1,2,-1,2l0,1c1,0,1,0,1,0l1,0c1,0,1,0,1,0c1,1,1,1,1,1l0,1c0,1,0,1,0,1c-1,0,-1,1,-2,1c0,0,-1,1,-2,1c0,0,-1,1,-2,1l-1,0c0,0,-1,0,-2,1c0,0,-1,0,-1,0l-1,0c-1,0,-2,0,-3,0c-1,0,-1,0,-2,0c-1,0,-1,0,-2,0l-1,0c-1,-1,-2,-1,-2,-1c-1,0,-2,0,-2,0c-1,-1,-3,-2,-3,-2c-1,0,-1,-1,-1,-1c-1,-1,-1,-1,-1,-1l1,0c0,0,1,1,1,1c1,0,2,0,2,1l1,0c1,0,2,0,2,0c1,1,2,1,3,1c1,0,3,0,4,0c1,0,2,0,3,0c1,0,1,0,2,0c1,0,2,-1,3,-1c1,0,2,0,3,-1c1,0,1,-1,2,-1c-1,0,-1,0,-1,0l-1,0c0,0,-1,0,-1,-1c-1,0,-1,0,-1,0c0,-1,0,-1,0,-1c0,0,0,-1,0,-1c0,-1,0,-1,0,-1c0,0,1,0,1,-1c0,0,0,-1,0,-1c1,0,1,0,1,0c0,-1,0,-1,1,-1c0,0,0,-1,0,-1c1,0,1,0,1,0c1,0,1,0,1,0c0,0,0,1,0,1ZM232.5,452.5l0,1l1,0c0,0,0,-1,0,-1l0,-1l1,0l0,1c1,0,1,0,1,-1l0,-1l0,1l0,1c0,1,0,1,0,1l-1,0l-1,0c0,1,0,1,-1,1c0,-1,0,-1,0,-1l0,-1ZM233.5,447.5c1,-1,1,-1,1,-1c0,-1,1,-1,1,-1c1,1,1,1,1,1c0,1,0,1,0,1l-1,1l1,0l-1,1l-1,1c-1,0,-1,1,-1,1c-1,0,-1,0,-1,0c-1,0,-1,0,-1,0c1,-1,2,-1,3,-2l0,-1c-1,0,-1,0,-1,-1ZM235.5,447.5l-1,0l0,1l1,0l0,-1ZM305.5,456.5c0,0,-1,0,-1,0c0,1,0,1,0,1l1,0c0,-1,0,-1,0,-1ZM305.5,464.5c-1,0,-1,0,-1,0l-1,0c0,1,-1,1,-1,1l-1,0c0,0,-1,0,-1,-1c0,0,-1,0,-1,0c0,0,1,0,1,0c1,0,1,0,1,0c1,0,1,0,1,0c0,0,0,-1,0,-1c1,0,1,0,1,0c1,0,1,-1,1,-1c1,0,1,0,1,-1l1,-1c0,0,0,-1,0,-1c0,0,0,-1,0,-1l0,1c0,0,-1,0,-1,0c-1,0,-1,0,-1,0c0,0,-1,0,-1,0c0,-1,0,-1,0,-1c0,-1,0,-1,0,-1c0,-1,0,-1,0,-1c0,0,0,-1,1,-1c0,0,0,-1,0,-1c1,0,1,0,1,0c0,0,1,0,1,0c0,0,0,1,0,1c0,0,1,0,1,1l0,1c0,0,0,1,0,1c0,0,0,1,0,1c0,1,0,2,-1,3l0,1c-1,0,-1,0,-1,1ZM302.5,450.5l4,-2l0,1l-5,2ZM298.5,459.5c0,0,-1,0,-2,0c0,0,-1,0,-1,0l-1,-1c0,1,0,1,0,1l-1,0l0,1c-1,0,-1,0,-2,0c0,0,-1,0,-1,0l-2,0c0,0,0,1,0,1c0,0,0,1,0,1c-1,1,-1,1,-1,1c0,1,-1,1,-1,1c0,0,0,1,-1,1c-1,0,-1,0,-1,0c0,0,-1,0,-1,0c-1,0,-1,0,-2,0l-1,-1c1,0,1,0,1,0l1,0c0,0,1,0,1,0c1,0,1,0,1,0c1,-1,1,-1,1,-1c1,0,1,-1,1,-1l1,-1c0,-1,0,-1,0,-1c0,0,-1,0,-1,0c0,0,-1,0,-1,0c0,-1,0,-1,0,-1c0,0,-1,0,-1,0c0,-1,0,-1,0,-1c1,0,1,0,1,-1c0,0,0,-1,0,-1c0,0,1,0,1,0c0,-1,0,-1,0,-1l1,0c0,0,1,1,1,1c0,1,0,1,0,1c0,1,0,1,0,1c1,0,1,0,2,0c1,0,1,0,1,0l1,0c0,0,1,0,1,0c-1,0,-1,-1,-1,-1c0,0,0,-1,0,-1c1,0,1,0,1,-1c0,-1,0,-1,0,-1c1,0,1,0,1,0c0,0,0,-1,0,-1c0,-1,0,-1,0,-1c1,0,2,0,3,1c0,0,0,1,1,1c0,1,1,1,1,2c0,1,0,1,0,1c0,0,0,1,0,1l0,1c0,0,-1,0,-1,0ZM295.5,455.5c-1,0,-1,0,-1,0l-1,1l1,0c0,1,0,1,0,1c1,0,1,0,1,0c0,-1,0,-1,0,-1c0,0,0,-1,0,-1ZM296.5,455.5l0,1c0,1,0,1,0,1l2,1c0,0,0,-1,0,-1l-1,-1c0,0,-1,-1,-1,-1ZM291.5,441.5c0,-1,1,-1,1,-1c0,0,0,-1,1,-1c0,0,0,1,0,1l0,1l0,1l0,1l1,0l-1,1l-1,-1l0,1l-1,0c0,0,0,1,0,1l-1,0l-1,0l1,0l0,-1c0,0,1,0,1,0l0,-1l1,0l-1,0l0,-1l0,-1ZM292.5,441.5l0,1l1,0l0,-1l-1,0ZM286.5,457.5l-1,0l0,1l1,0c0,0,1,0,1,0c0,0,0,-1,0,-1c-1,0,-1,0,-1,0ZM283.5,450.5l4,-2l-1,1l-4,2ZM279.5,396.5l-1,0l0,1l0,1l0,1l0,1l0,-1l0,-1l0,-1c0,-1,0,-1,0,-2c0,0,1,0,2,0l1,-1ZM279.5,398.5c0,-1,1,-1,1,-1c0,-1,0,-1,1,-1c0,1,1,1,1,1c0,1,0,1,-1,1l0,1l1,0l0,2l-2,-1l0,1c-1,0,-1,1,-1,1l-1,0l-1,0l1,-1l1,0l0,-1l1,0l-1,-1l0,-1ZM280.5,398.5l0,-1c0,0,0,1,0,1l0,1l1,0l0,-1ZM332.5,401.5l4,-3l0,1c0,0,-1,0,-1,0l-4,3ZM288.5,402.5l1,-1l1,0c0,0,1,0,1,1c1,0,1,0,1,0c0,1,-1,1,-1,1c0,1,0,1,0,1c-1,0,-1,0,-1,0c-1,0,-1,0,-1,0l-1,0l1,0c1,-1,2,-1,2,-1l-1,0c-1,0,-1,0,-2,0l-1,0c0,0,0,-1,0,-1c1,0,1,0,1,0ZM164.5,403.5c1,0,1,-1,1,-1c1,0,1,0,2,0c0,0,1,0,1,0c1,1,1,1,1,1c0,1,-1,1,-1,1c0,1,0,1,-1,1c-1,0,-1,0,-1,0l-1,0l1,0c1,-1,2,-1,2,-1c0,0,-1,0,-1,-1l-1,0l-1,1l-1,0c0,-1,0,-1,0,-1ZM319.5,403.5l0,-1c1,0,1,0,1,0c1,0,1,0,1,0c0,0,0,1,0,1c0,0,0,1,0,1c0,0,0,1,0,1l0,1l-1,0l-1,1c0,0,-1,0,-1,0l0,1l-1,0l0,-1l1,0c0,0,0,-1,1,-1l0,-1l0,-1l0,-1ZM320.5,403.5c-1,0,-1,0,-1,0c0,1,0,1,0,1l1,0ZM226.5,423.5c0,-1,0,-1,0,-2c0,0,0,-1,0,-1l0,-1l1,1l0,1c0,1,0,1,0,1c0,1,-1,1,-1,1ZM155.5,421.5l-1,-1l-1,1l-1,-1l1,-1l1,1l1,-2l1,1ZM152.5,415.5c1,0,1,0,1,0c1,0,1,-1,1,-1c0,0,0,-1,0,-1c0,-1,-1,-1,-1,-2c0,0,-1,0,-1,0c0,-1,0,-1,0,-1c0,-1,0,-1,0,-1c1,0,1,0,1,0c1,1,1,1,1,1c0,1,0,1,0,1c0,0,1,1,1,1c0,0,0,1,0,1c0,1,0,1,0,1c0,1,0,1,0,1c0,0,-1,0,-1,0c0,0,0,1,0,1c0,0,-1,0,-1,0l-1,0l-1,0l-1,0c0,-1,0,-1,0,-1c0,0,0,-1,0,-1l-1,1c-1,1,-1,1,-2,1c0,0,-1,0,-1,-1l-1,0c0,1,0,1,-1,1c-1,0,-2,0,-2,-1c-1,1,-2,1,-2,1l-1,0l-1,0c-1,0,-2,0,-2,0c-1,-1,-1,-1,-1,-2l0,-9l1,-2l0,10l0,1c1,0,1,1,2,1l1,0l1,0l1,-1c1,0,1,-1,2,-1l0,1l1,1c0,0,1,-1,1,-1c0,0,1,0,1,-1l1,-1l0,1l0,1l1,0l1,0l0,-1l1,-1c0,2,1,3,2,3ZM145.5,408.5l-2,-1l1,-1l2,1ZM147.5,411.5l-2,-1l-1,1l-1,-1l1,-1l1,0l1,-1l1,1ZM140.5,403.5l4,-2l0,1l-4,2ZM133.5,400.5c0,0,1,0,2,0c0,1,1,1,1,1l1,0l0,-1l1,0c0,1,-1,1,-1,1l-1,0l0,1l-1,0l-1,0l0,-1l-1,0l-1,0c0,0,0,-1,1,-1ZM127.5,414.5l0,-1c1,0,1,-1,1,-1l1,0l1,0l0,1l0,1l-1,0l0,-1c-1,0,-1,1,-1,1c0,1,0,1,0,1c1,0,1,0,1,0c1,0,1,0,1,0c0,0,1,0,1,0c0,0,0,1,0,1l-5,2c0,-1,0,-1,1,-1l0,-1c1,0,1,0,1,0c0,0,-1,0,-1,-1l0,-1ZM129.5,404.5c0,0,0,-1,0,-1c1,0,1,0,1,0c1,0,1,0,1,1l0,1c0,0,-1,0,-1,0l1,1l0,1l-1,-1l-1,1c0,1,-1,1,-1,1l-1,0c0,0,-1,0,-1,0l1,0l1,-1l1,-1c0,-1,-1,-1,-1,-1c0,-1,0,-1,1,-1ZM130.5,404.5l-1,0l0,1l1,0l0,-1ZM179.5,416.5l-1,0l-1,0c0,-1,0,-1,0,-1l-1,0l-1,0c0,0,0,1,0,1l-1,0l-1,0l-2,0c0,0,1,1,1,1l0,1c0,1,-1,1,-1,2c0,1,-1,1,-1,2c-1,0,-1,0,-2,1c-1,0,-2,0,-2,0c-1,0,-1,0,-2,0c-1,0,-1,0,-2,-1l-1,-1c0,0,0,-1,0,-2c0,-1,0,-1,0,-1c0,0,0,-1,0,-1c0,0,1,0,1,0c0,0,0,-1,0,-1l1,0c0,0,-1,0,-1,1c0,0,0,1,0,1c0,1,0,1,0,1l0,1c0,0,1,0,1,0c0,1,0,1,0,1c1,0,1,0,1,0c0,0,1,0,2,0c1,0,2,0,2,0c1,0,2,-1,2,-1l1,-1c0,0,0,-1,0,-1c0,0,0,-1,0,-1c0,0,-1,0,-1,0c0,-1,0,-1,0,-1l0,-1l0,-2l1,1c0,0,0,1,1,1l1,0l1,0c0,0,1,0,1,-1l1,-1c0,-1,1,-1,1,-1l0,-1c0,0,1,0,1,0c0,0,1,0,1,0c0,1,0,1,0,2l1,0l0,1l0,1l-1,0l0,1ZM177.5,413.5l1,1l0,-1c-1,0,-1,0,-1,0ZM174.5,403.5l4,-2l0,1l-4,2ZM166.5,414.5l-1,-1l1,-1l1,0ZM217.5,419.5l-2,-1l0,2l-2,-1l1,-2l1,1l1,-1l2,1ZM214.5,416.5l-1,0l-1,0l0,1c0,1,-1,2,-1,2c0,1,0,1,-1,1c0,0,0,1,0,1c-1,0,-1,0,-1,1c-1,0,-1,0,-1,0c-1,0,-1,0,-1,0l-1,0c0,0,-1,0,-1,0c0,-1,-1,-1,-1,-1c0,0,1,0,1,0c1,0,1,0,2,0c0,0,1,-1,1,-1c0,0,1,0,1,0c0,-1,0,-1,1,-1c0,0,0,-1,0,-1c0,0,1,-1,1,-1c0,-1,0,-1,0,-1l-1,-1l0,-1l1,0c0,0,0,-1,0,-1c0,1,0,1,0,1l1,0l0,1l1,0l1,0c0,0,1,0,1,-1c1,0,1,0,1,0c0,0,1,0,1,0l0,-1c-1,0,-1,0,-1,0c0,-1,0,-1,0,-1l0,-2c1,0,1,0,1,1c0,0,0,1,0,1c0,0,0,1,0,1l0,1l0,1c-1,1,-1,1,-2,1c0,0,-1,0,-1,0ZM214.5,403.5l4,-2l-1,1l-4,2ZM206.5,405.5c1,0,1,0,1,0c1,0,1,0,2,0c0,0,1,0,1,0c0,0,1,0,1,1c-1,0,-1,1,-1,1l-1,0c0,1,0,1,0,1l-1,0l-1,0l1,-1c1,0,1,0,2,-1c0,0,-1,0,-1,0c0,0,-1,0,-1,0c0,0,-1,0,-1,0c0,0,-1,0,-1,1l0,-1l0,-1ZM203.5,409.5l-1,-1l1,-2l1,1ZM197.5,420.5l0,-1c0,0,1,0,1,0l1,1c0,0,1,-1,2,-1c1,-1,1,-1,2,-1c0,-1,1,-1,1,-2l0,-1c0,-1,0,-1,0,-1l0,-1l-1,0l0,-1l1,-1l0,-1l0,1c0,0,1,1,1,2l0,1c0,1,0,1,0,2c0,0,0,1,0,1l-1,0c0,1,0,1,0,1c0,1,-1,1,-1,1c0,0,0,1,-1,1c-1,0,-1,0,-1,0c-1,0,-1,0,-1,0l-1,0c0,0,-1,0,-1,0l-1,0ZM202.5,400.5l1,0c0,-1,0,-1,0,-1c1,0,1,0,1,0c0,1,0,1,0,1c0,0,0,1,0,1l0,1l0,2l-1,-1l-1,1l-1,1l-1,0l0,-1l1,0l1,-1l0,-1l0,-1l0,-1ZM203.5,401.5l0,-1c0,0,-1,0,-1,1l1,0l0,1l0,-1ZM196.5,406.5l-2,-1l0,2l-2,-1l1,-2l1,1l1,-1l2,1ZM186.5,415.5c0,-1,0,-1,1,-2c0,0,0,-1,0,-2c1,0,1,-1,1,-1l0,1l0,1c-1,1,-1,1,-1,2c0,0,0,1,1,1c0,1,0,1,0,1l1,0c1,1,1,1,2,1l1,0c1,0,1,0,2,-1l1,0c0,0,1,-1,1,-1l1,-1l0,-1c0,-1,0,-1,0,-1l0,-1c0,1,-1,1,-1,1c-1,1,-1,1,-1,1c-1,0,-1,0,-1,-1c-1,0,-1,0,-1,0c0,-1,0,-1,0,-1c0,-1,0,-1,0,-2c1,0,1,-1,1,-1c0,0,1,-1,1,-1c1,0,1,0,1,1c1,0,1,1,1,1c0,0,0,1,0,1l1,1c0,0,0,1,0,1c0,1,0,1,0,2l-1,0c0,0,0,1,0,1l0,1c0,0,-1,1,-3,2c-1,0,-2,1,-3,1c-1,0,-1,0,-1,0c0,0,-1,0,-2,-1c0,0,-1,0,-1,-1c-1,0,-1,-1,-1,-2ZM194.5,410.5c0,0,1,0,1,0l1,0c0,0,-1,0,-1,0c0,-1,0,-1,0,-1c-1,0,-1,0,-1,0l0,1ZM191.5,397.5c0,0,0,-1,0,-1c1,0,1,0,1,0c1,0,1,0,1,1l0,1c0,0,-1,0,-1,1l1,0l0,1l-1,0l-1,0c0,1,-1,1,-1,1l-1,0c0,0,-1,0,-1,0l1,0l1,-1l1,0l0,-1c0,0,-1,-1,-1,-1c0,0,1,-1,1,-1ZM192.5,397.5l-1,0l0,1l1,0c0,0,0,-1,0,-1ZM263.5,420.5l-1,-1l1,-1l1,1ZM261.5,416.5l-1,0l-1,0c0,0,-1,0,-1,0c0,0,-1,0,-1,0c0,0,-1,-1,-1,-1c0,0,-1,0,-1,0c-1,1,-1,1,-1,1c-1,0,-1,0,-1,0l-1,0l-1,0c-1,0,-1,0,-1,0c0,0,-1,0,-1,0l0,-1c0,0,-1,0,-1,0c-1,0,-1,0,-1,0c0,1,-1,1,-1,1l-1,0l-1,0c-1,0,-2,0,-2,0c-1,-1,-1,-1,-1,-2l-1,-9l1,-2l1,10l0,1c0,0,1,1,2,1l1,0c0,0,1,0,1,0c0,-1,1,-1,1,-1l1,0c0,0,0,-1,0,-1l1,0l0,1c1,1,1,1,2,1l1,0c1,0,1,0,1,-1l1,0c0,0,1,0,1,0l-1,-1c0,0,-1,0,-1,0c0,0,0,-1,-1,-1l1,-1c1,0,1,-1,1,-1c1,0,1,0,1,0l1,0c0,0,1,0,1,0c0,1,0,1,0,1c1,0,1,0,1,0c0,0,0,1,0,1l0,1c-1,0,-1,0,-1,0l0,1l1,0l1,1l1,0l1,0c0,0,1,0,1,-1c1,0,1,0,1,0l0,-1c0,0,0,-1,0,-1l-1,0l1,-2l0,1l1,0l0,1l0,1l0,1l0,1c0,0,-1,0,-1,0c0,1,0,1,-1,1c0,0,-1,0,-1,0ZM262.5,422.5l-4,2c1,0,1,-1,1,-1l4,-2ZM256.5,419.5l-4,3c0,-1,0,-1,0,-2l5,-2ZM248.5,420.5l-1,-1l0,-1l2,1ZM246.5,403.5l4,-2l0,1l-4,2ZM238.5,415.5l-1,0l0,1c-1,0,-2,0,-2,0l-1,0l-1,0l-1,0l0,-1l0,-1l1,0c0,0,1,0,2,0l1,0l1,0l0,-1l0,-1l-1,-1l-1,-1l-1,0l0,-2c0,0,1,0,1,0c0,0,1,0,1,0c0,1,0,1,0,1c0,0,1,0,1,0c0,1,0,1,0,1c1,1,1,1,1,2l0,1c0,1,0,1,0,1c0,0,0,1,0,1ZM235.5,419.5l-4,3c0,-1,1,-1,1,-2l4,-2ZM226.5,417.5c0,0,0,-1,-1,-1c0,-1,-1,-1,-1,-2l1,-1l0,-1l1,-2c0,0,0,-1,1,-1c0,0,1,1,1,1c1,1,1,1,1,2c0,1,0,1,0,1c0,2,0,3,-1,3c-1,0,-1,1,-2,1ZM227.5,412.5l-1,0c-1,0,-1,1,-1,1c0,1,0,1,0,1c0,0,1,0,1,0l1,0l1,0l1,-1c0,0,-1,0,-1,0c-1,-1,-1,-1,-1,-1ZM306.5,415.5c1,0,1,0,1,0c1,0,1,-1,1,-1c0,0,1,0,1,0l0,-1l0,-2l-1,-6c0,0,0,-1,0,-1l0,-1c1,0,1,0,1,0l0,1c1,0,1,0,1,0c0,0,0,1,0,1c0,0,0,1,0,1c0,0,0,1,0,2c0,0,0,1,0,2c0,1,0,1,0,2l0,1l0,1l0,1c-1,0,-1,0,-1,0l0,1l-1,0l-1,0l-1,0l-10,0l0,1c0,0,0,1,0,2c0,0,0,-1,-1,-1c0,-1,0,-1,0,-1c0,-1,0,-1,0,-1l-1,0c-1,0,-1,0,-1,0c0,0,-1,0,-1,0c0,0,0,-1,0,-1c0,0,-1,0,-1,0c-1,0,-1,0,-1,0c0,1,-1,1,-1,1l-1,0l-1,0c0,0,-1,0,-1,0c-1,0,-1,0,-1,0c0,0,-1,0,-1,0c0,0,-1,0,-1,0c-1,0,-1,1,-2,1c-1,0,-1,0,-2,0c0,0,-1,0,-1,0c-1,0,-1,0,-2,0c-1,0,-2,0,-3,0c-1,0,-2,0,-3,-1c0,0,0,-1,-1,-1c0,0,0,-1,0,-1c0,0,0,-1,0,-1c0,0,0,-1,1,-1c0,0,0,-1,1,-1c0,0,-1,0,-1,1c0,0,0,1,0,1c0,0,0,1,1,1c0,0,0,1,1,1c0,0,1,0,2,1c1,0,2,0,3,0c1,0,1,0,2,0c0,0,1,-1,2,-1l1,0l1,0c-1,-1,-1,-1,-1,-1l0,-1c0,0,0,-1,0,-1c1,-1,1,-1,1,-1c0,-1,0,-1,0,-1c0,0,1,0,1,0c0,-1,0,-1,0,-1c1,0,1,0,1,0c0,0,1,0,1,0c0,1,0,1,0,1c0,0,0,1,1,1l0,1c0,0,0,1,0,1c-1,0,-1,0,-1,0c0,1,0,1,0,1c0,1,1,1,1,1l1,0c0,0,1,0,1,0c0,-1,1,-1,1,-1c1,0,1,0,1,0c0,0,0,-1,0,-1c0,0,1,0,1,0l0,1l1,0c0,1,0,1,1,1l1,0c1,0,1,-1,1,-1c1,0,1,-1,1,-1l0,-1l0,-2l0,-1l-1,-3l0,-2c0,0,0,-1,0,-1l1,0l1,1l0,1c-1,0,-1,0,-1,1l0,1l0,1l1,1l0,1l0,2l-1,1l2,-1l1,-1c1,0,1,-1,2,-1l1,0c0,0,1,0,1,1c1,0,1,0,1,1l0,1c0,0,0,1,-1,1l0,1l-1,0l2,0l1,0ZM307.5,400.5l5,-2l-1,1l-4,2ZM304.5,413.5l-1,0c0,-1,0,-1,0,-1c0,0,-1,0,-1,0c-1,0,-1,0,-2,1l-1,0l-1,1l-1,1l1,0c1,0,1,0,2,-1l1,0c1,0,2,0,3,-1ZM299.5,419.5l-4,3c0,-1,0,-1,1,-2l4,-2ZM292.5,419.5l-1,0l-1,1l-1,-1l0,-2l2,1l1,-1l1,1ZM283.5,408.5l-1,-1l1,-2l1,1ZM285.5,411.5c-1,0,-1,0,-1,0c-1,1,-1,1,-1,1c0,0,0,1,0,1c0,0,1,0,1,1c1,0,1,-1,1,-1c0,0,1,0,1,-1l-1,0c0,-1,0,-1,0,-1ZM276.5,404.5l0,1l-1,0l-1,0c0,0,-1,1,-1,1l1,4c0,1,0,1,-1,1l0,-2l0,-1l0,-1l0,-1l0,-1l1,-1l-1,0l0,-1c1,0,1,0,1,0c0,0,1,0,1,0c1,1,1,1,1,1ZM335.5,416.5l0,-1l0,-1l0,-8l0,-3l1,11c0,1,0,1,0,1c0,1,-1,1,-1,1ZM331.5,416.5c-1,0,-1,0,-1,0c0,0,-1,0,-1,-1c-1,0,-1,-1,-1,-1c0,0,0,1,-1,1c0,1,-1,1,-2,1c0,0,-1,0,-1,0c-1,-1,-1,-2,-1,-3l0,1c0,0,-1,1,-1,1c0,0,-1,0,-2,0c0,0,-1,0,-1,0l0,-1c0,0,-1,0,-1,0c0,0,1,-1,1,-1c0,0,0,-1,1,-1c0,0,1,-1,1,-1l1,0l1,-1l0,-1c0,-1,0,-1,0,-1l0,1l1,1l0,3c0,1,0,1,0,1c1,0,1,0,2,0l1,0c0,0,0,-1,0,-1c0,-1,0,-1,0,-2c0,-1,0,-1,0,-2c0,0,0,-1,0,-1l0,-1l0,-1l1,2l0,2l0,2c1,1,1,1,1,1c0,0,0,1,1,1l1,0c0,0,0,-1,0,-1c0,0,0,-1,0,-1l0,-2l-1,-1l0,-1l0,-1l1,0l0,-1c0,1,0,1,0,1c0,1,0,1,0,2l1,2c0,0,0,1,0,1c0,1,0,2,0,2c0,1,-1,1,-1,1c0,1,0,1,0,1ZM323.5,411.5l-1,0c0,1,0,1,0,1c-1,0,-1,0,-1,0c0,0,-1,1,-1,1c1,0,2,0,2,0c0,0,1,0,1,0ZM150.5,401.5l0,1c0,0,1,0,1,0l1,-1l0,-1l0,1c0,0,1,0,1,0c0,0,1,0,1,-1l0,-1l0,1l0,1l0,1l-1,1c0,0,-1,0,-1,0l0,-1l0,1c-1,0,-1,1,-1,1c-1,0,-1,-1,-1,-1l0,-1l0,-1ZM154.5,398.5l-5,2c0,0,0,-1,0,-1l6,-3ZM326.5,398.5c0,-1,0,-1,0,-2c0,-1,0,-1,0,-2l1,1l0,1c0,0,0,1,0,1c0,1,-1,1,-1,1ZM325.5,400.5l0,1c0,1,0,1,1,1c0,-1,0,-1,0,-1l1,-1l0,1c1,0,1,0,1,0l1,-1l0,-1l0,1l0,1c0,1,0,1,-1,1l-1,0l0,1c-1,0,-1,0,-2,0l0,-1l0,-1l0,-1ZM120.5,408.5l0,-1l1,0Z" class="g1_22" />
</svg>