<?xml version="1.0" encoding="UTF-8" standalone="no"?>
<!DOCTYPE svg PUBLIC "-//W3C//DTD SVG 1.1//EN"
"http://www.w3.org/Graphics/SVG/1.1/DTD/svg11.dtd">
<svg version="1.1" xmlns="http://www.w3.org/2000/svg" xmlns:xlink="http://www.w3.org/1999/xlink">
<defs>
<style type="text/css"><![CDATA[
.g1_9{
stroke: #1F1A17;
stroke-width: 1;
stroke-linecap: butt;
stroke-linejoin: miter;
}
]]></style>
</defs>
<path fill-rule="evenodd" d="M292.5,85.5c0,-1,1,-1,1,-1c0,0,1,0,1,0c1,0,1,0,2,0c0,0,0,1,0,1c0,0,0,1,0,1c-1,0,-1,0,-1,1c0,0,-1,0,-1,0l-1,0l-1,0l2,-1c1,0,1,0,2,-1c-1,0,-1,0,-1,0c-1,0,-1,0,-1,0c0,0,-1,0,-1,0c0,0,-1,0,-1,1l0,-1ZM187.5,84.5l1,0c0,0,0,-1,1,-1c0,0,1,1,1,1c1,0,1,0,1,0l0,1c0,0,-1,0,-1,1c0,0,-1,0,-1,0c-1,0,-1,0,-1,0l-1,0l2,0c0,0,1,-1,1,-1l-1,0c-1,0,-1,0,-2,0l-1,0l1,-1ZM143.5,95.5c0,0,-1,0,-1,0l-1,0c0,0,0,-1,0,-1l-1,0l-1,0c0,1,0,1,0,1l-1,0l-1,0c-1,0,-1,0,-2,0l-1,0c0,0,0,-1,0,-1l-1,0l-1,0c0,1,-1,1,-1,1l-1,0l-1,0c-1,0,-1,0,-1,0c-1,0,-1,0,-1,-1c-1,0,-1,-1,-1,-2c0,0,-1,1,-1,1c0,1,-1,1,-2,2c0,0,-1,0,-1,0l-1,0l-1,0l-1,1l-1,0l-1,0l-1,0l-1,0l-1,0c-1,0,-2,-1,-2,-2c-1,0,-1,-1,-1,-2c0,-1,0,-1,0,-1c0,0,1,0,1,-1l0,1c0,1,1,2,2,2c1,1,1,1,2,1c1,0,1,0,2,0l2,0l1,0c3,-1,4,-2,5,-3l0,-1l-1,-7l1,-2l1,11c0,0,0,1,0,1c1,0,1,1,1,1l1,0c1,0,1,0,1,0l1,-1l1,0l0,-1l-1,0l-1,0l1,-2c0,0,0,-1,1,-1c0,0,1,0,1,0c1,0,1,0,1,0l0,1c1,0,1,0,1,0c0,1,0,1,0,1l0,1l-1,0l0,1c1,0,1,0,1,0l0,1l1,0l1,0l1,0c0,0,1,0,1,0l0,-1l1,-1c0,-1,0,-1,1,-1l0,-1c0,0,1,0,1,0c0,0,1,0,1,0c0,1,0,1,0,2l1,1c0,0,0,1,-1,1c0,0,0,1,0,1ZM141.5,93.5l1,0c0,-1,0,-1,0,-1l-1,0l0,1ZM138.5,82.5l4,-2l0,1l-4,2ZM132.5,82.5l4,-2l0,1l-4,2ZM120.5,90.5c-1,1,-2,1,-2,1c0,0,-1,0,-1,0c0,0,-1,0,-1,0l0,-1l1,0l1,0l1,0l0,-1l-1,0c0,0,-1,0,-1,0l0,-1l0,-1c1,-1,2,-2,2,-2l1,1l-1,0c-1,1,-1,1,-1,1l1,1c1,0,1,0,1,1c0,1,0,1,0,1ZM116.5,82.5l4,-2l0,1l-4,2ZM177.5,87.5l-2,-1l-1,1l-1,-1l1,-1l1,1l1,-1l2,1ZM175.5,95.5l-1,0l-2,0c0,0,-1,0,-2,0c0,-1,0,-1,0,-2l-1,-9l1,-2l1,10l0,1c0,0,1,1,1,1l2,0l1,0c0,0,1,0,1,-1c1,0,1,0,1,0l0,-1l0,-1l-1,0l1,-2l1,1l0,1l0,1l0,1c0,0,0,1,0,1l-1,0c0,1,0,1,-1,1c0,0,-1,0,-1,0ZM175.5,79.5l4,-2l0,1c-1,0,-1,0,-1,0l-4,2ZM159.5,100.5l-2,-1l1,-2l2,1ZM166.5,93.5c0,1,-1,1,-2,1c-1,1,-2,1,-3,1c-1,1,-2,1,-4,1c-1,0,-2,0,-3,0c-1,-1,-2,-1,-3,-1c0,-1,0,-1,0,-1c0,-1,0,-1,0,-1l-1,0c0,0,0,-1,0,-1c1,-1,1,-1,1,-1c0,-1,0,-1,1,-2l0,1c-1,1,-1,1,-1,1c0,1,1,1,1,2c0,0,1,0,1,1c1,0,1,0,2,0l1,0l2,0c1,0,2,0,2,0c0,0,1,0,1,0c0,0,1,0,1,-1l1,0c1,0,1,0,2,0c1,-1,1,-1,1,-1l0,-1c0,-1,0,-1,-1,-1l1,-1c0,0,0,-1,0,-1c0,0,0,1,1,1c0,0,0,1,0,1l0,1c0,0,0,1,0,1c0,1,-1,1,-1,1ZM155.5,86.5l4,-3l0,1c-1,0,-1,0,-1,1l-4,2ZM210.5,91.5c-1,0,-1,0,-1,1l1,0c0,-1,0,-1,0,-1ZM210.5,99.5c-1,0,-1,0,-1,1l-1,0c0,0,-1,0,-1,0l-1,0c0,0,-1,0,-1,0c-1,0,-1,-1,-1,-1l1,0c1,0,1,0,1,0c0,0,1,0,1,0c1,0,1,0,1,-1c0,0,1,0,1,0c0,-1,1,-1,1,-1c0,0,0,-1,1,-1c0,-1,0,-1,0,-2c-1,0,-1,0,-1,0c0,0,0,1,-1,1c0,0,0,-1,0,-1c-1,0,-1,0,-1,0c0,-1,0,-1,0,-1c0,-1,0,-1,0,-1c0,-1,0,-1,1,-2c0,-1,1,-1,1,-1l1,1c0,1,0,1,1,1c0,1,0,1,0,1c0,1,0,1,0,2c0,1,-1,2,-1,3c0,1,0,1,-1,1c0,0,0,1,0,1ZM207.5,86.5l4,-3l0,1c0,0,-1,0,-1,1l-4,2ZM203.5,95.5l-1,0l-1,0c0,0,0,-1,0,-1l-1,0c-1,1,-1,1,-1,1l-1,0l-1,0l-1,0c0,0,0,1,0,1c0,0,0,1,0,1c0,1,-1,2,-1,2c0,1,-1,1,-1,2c-1,0,-1,1,-2,1c-1,0,-2,0,-2,0c-1,0,-1,0,-2,0c-1,0,-1,0,-2,-1l-1,-1c0,0,0,-1,0,-2c0,-1,0,-1,0,-1l0,-1c0,0,1,0,1,0c0,0,0,-1,0,-1l1,0l-1,1c0,1,0,1,0,1l0,1l0,1c0,0,1,0,1,1c1,0,1,0,1,0c0,0,1,0,2,0c1,0,2,0,2,0c1,0,2,-1,2,-1c0,0,1,0,1,-1l0,-1l0,-1l-1,0c0,-1,0,-1,0,-1l0,-1l0,-2c0,0,1,1,1,1c0,0,0,1,1,1l1,0l1,0c1,0,1,0,1,0l0,-1l1,-1c0,-1,1,-1,1,-1l0,-1c0,0,1,0,1,0c0,0,1,0,1,0c0,1,0,1,1,2l0,1c0,0,0,1,0,1c-1,0,-1,1,-1,1ZM201.5,93.5l1,0l1,0c0,0,-1,0,-1,0c0,-1,0,-1,0,-1c-1,0,-1,0,-1,0l0,1ZM198.5,82.5l4,-2l0,1l-4,2ZM190.5,93.5l-1,-1l1,-1l1,1ZM252.5,95.5l0,-1l0,-1l-1,-8l1,-3l1,11l0,1c-1,1,-1,1,-1,1ZM251.5,77.5l0,-1c0,0,1,0,1,0c1,0,1,1,1,1c0,0,0,1,0,1c-1,1,-1,1,-1,1l1,0l0,1l-1,0l-1,0l0,1c-1,0,-1,0,-1,0l0,1l-1,0c-1,0,-1,0,-1,0l1,-1l1,0c0,0,0,-1,0,-1l1,0l0,-1c-1,0,-1,0,-1,-1l1,-1ZM252.5,78.5l0,-1l-1,0c0,1,0,1,0,1l1,0ZM247.5,95.5l-1,0c0,0,-1,-1,-1,-1l-1,0c0,1,-1,1,-1,1l-1,0l-1,0c0,0,0,1,0,1c-1,1,-1,2,-1,2c0,1,0,1,-1,1c0,0,0,1,0,1c-1,0,-1,1,-1,1c-1,0,-1,0,-1,0c-1,0,-1,0,-1,0l-1,0c0,0,-1,0,-1,0c-1,-1,-1,-1,-1,-1l1,0c1,0,1,0,2,0c0,0,1,0,1,-1c0,0,1,0,1,0c0,-1,0,-1,1,-1c0,0,0,-1,0,-1c0,0,1,-1,1,-1c0,-1,0,-1,0,-1l-1,-1c0,-1,0,-1,0,-1c1,0,1,0,1,-1l0,1l1,0c0,0,0,1,0,1l1,0c1,0,1,0,1,0l1,-1l0,-1c1,-1,1,-1,1,-1l1,-1c1,0,1,0,1,0c0,1,1,1,1,2l0,1c0,0,0,1,0,1c0,0,-1,1,-1,1ZM245.5,93.5l1,0l1,0c0,-1,0,-1,0,-1c-1,0,-1,0,-1,0c0,0,-1,0,-1,0l0,1ZM246.5,99.5l-4,2c0,-1,1,-1,1,-1l4,-3ZM235.5,85.5c0,-1,1,-1,1,-1c1,0,1,0,2,0c0,0,1,0,1,0c0,0,1,1,1,1c0,0,-1,0,-1,0c0,0,0,1,0,1c0,0,-1,0,-1,1l-1,0l-1,0l-1,0l2,-1c1,0,1,0,2,-1c-1,0,-1,0,-1,0c0,0,-1,0,-1,0c0,0,-1,0,-1,0c0,0,-1,0,-1,1l0,-1ZM228.5,88.5l-1,2l-1,-1l-1,1l-1,-1l0,-1l2,1l1,-2ZM234.5,93.5c-1,1,-1,1,-2,1c-1,1,-2,1,-3,1c-1,1,-3,1,-4,1c-1,0,-2,0,-3,0c-1,-1,-2,-1,-3,-1c0,-1,0,-1,-1,-1c0,-1,0,-1,0,-1c0,0,0,-1,0,-1c0,-1,0,-1,1,-1c0,-1,0,-1,1,-2l0,1l-1,0c0,1,0,1,0,1c0,1,0,1,1,2l1,1c0,0,1,0,1,0l1,0l1,0l2,0c1,0,1,0,2,0l1,0l1,-1l1,0c1,0,1,0,2,0c0,-1,1,-1,1,-1l0,-1c0,-1,-1,-1,-1,-1l0,-1c1,0,1,-1,1,-1c0,0,0,1,0,1c1,0,1,1,1,1l0,1c0,0,0,1,0,1c-1,1,-1,1,-1,1ZM225.5,82.5l4,-2l0,1l-4,2ZM286.5,82.5c0,0,0,1,-2,1c-1,1,-2,1,-4,2c-1,0,-2,1,-2,1l-1,0l0,1l1,0l2,1c0,0,1,1,1,2c0,0,1,0,1,1c0,0,0,1,0,1c0,1,0,1,0,2c0,0,-1,0,-1,0c0,1,0,1,0,1c-1,0,-1,0,-1,0c-1,0,-1,0,-2,0l-1,0c-1,0,-1,0,-2,0l0,-1c-1,1,-1,2,-1,2l-1,0l-1,-1l-1,0l-1,-1l-1,1c0,0,-1,0,-1,0l-1,0l-1,0l-1,0c-1,0,-1,0,-2,0c0,-1,-1,-1,-1,-2l0,-9l1,-2l0,10l1,0l0,1c0,0,1,1,1,1l1,0l1,0l1,0c0,0,1,0,1,-1c0,0,1,0,1,-1c1,-1,2,-2,3,-2l0,1l1,1l1,1c1,0,1,0,1,1l1,0l1,0l1,0c0,0,1,0,1,0c0,-1,0,-1,1,-1c1,0,1,0,1,-1l-1,0c0,-1,-1,-2,-1,-2c-1,0,-1,0,-1,-1c0,0,-1,0,-1,0l-1,0l0,-1c0,-1,0,-1,-1,-1l1,0l0,-1l0,-1c0,0,1,0,1,0c0,-1,1,-1,3,-2c1,0,2,-1,4,-1c1,-1,1,-1,2,-1ZM281.5,79.5l4,-2l0,1l-4,2ZM274.5,94.5l-1,-1c0,-1,0,-1,0,-1c-1,0,-1,0,-1,0l-1,1c0,0,1,0,1,0l1,1ZM270.5,82.5l4,-2l0,1l-5,2ZM260.5,79.5c1,0,1,0,2,1c1,0,1,0,1,0l1,0l1,0l0,-1l0,1c0,0,-1,0,-1,0l0,1l-1,0l-1,0l-1,-1l-1,0c0,0,-1,0,-1,0c0,0,0,-1,1,-1ZM340.5,86.5l-2,-1l1,-2l1,1ZM342.5,93.5l0,1c0,0,-1,0,-1,1c0,0,-1,0,-2,0c0,0,-1,0,-1,0l-1,0l-1,0c-1,0,-2,0,-2,0c-1,-1,-1,-1,-1,-2l-1,-9l1,-2l1,10l0,1c1,0,1,1,2,1l1,0l1,0c0,0,1,0,2,0c0,-1,1,-1,1,-1c0,0,1,0,1,-1c0,-1,-1,-1,-1,-1c0,1,0,1,0,1l-1,0c-1,0,-1,0,-1,0c-1,-1,-1,-1,-1,-1l0,-1l0,-1l0,-1c1,0,1,0,1,0c0,-1,1,-1,1,-1c0,0,1,0,1,0c0,0,0,1,1,1l0,1l0,1c0,1,0,1,0,2c0,0,0,1,0,1ZM339.5,89.5l0,1l1,0c0,0,1,0,1,0c0,0,0,-1,0,-1l-1,0c-1,0,-1,0,-1,0ZM338.5,79.5l4,-2l0,1l-4,2ZM321.5,94.5c0,1,-1,1,-1,1c0,0,-1,0,-1,0l-1,0l-1,0c0,0,-1,0,-1,0l-1,0l0,-1l-1,0c-1,1,-1,1,-2,1l-1,0l-1,0l-1,0c0,0,-1,0,-1,0c-1,0,-1,0,-2,0c0,0,-1,0,-1,0c-1,0,-1,0,-2,0l-1,0l-2,0c-1,0,-1,0,-2,0l0,1l0,1c0,0,0,1,-1,1c0,0,0,-1,-1,-1c0,-1,0,-1,0,-2l-1,-1l-1,1l-1,0l0,1l0,1l0,1l1,2l0,1l0,1c0,1,0,1,0,2l0,1l-1,0l0,-1l0,-1l0,-1l0,-3l-1,-1l0,-1l0,-1l0,-1l1,0c0,0,0,-1,0,-1l1,-1l1,0l0,-1l1,0l0,-1c1,1,1,2,2,2l2,1l1,0l2,0c1,0,1,0,1,0c1,-1,1,-1,1,-1l0,-1c0,0,0,-1,0,-1c0,-1,0,-1,1,-1c0,-1,0,-1,0,-1c1,-1,1,-1,2,-1c0,0,1,0,1,1c0,0,0,1,0,1l0,1c0,1,0,1,0,2l-1,0c0,0,1,1,1,1c1,0,1,0,1,0l1,0c1,0,1,0,1,0c1,0,1,-1,2,-1c1,0,1,0,1,0l1,0c0,1,1,1,1,1l1,0l1,0c0,0,1,0,1,0c0,-1,1,-1,1,-1c0,0,0,-1,1,-1l0,1c1,0,1,1,1,1c1,0,1,0,1,-1c1,0,1,0,1,0c0,0,1,0,1,-1l0,-1l0,1l0,1c1,0,1,0,1,0l1,1l1,-1l-1,0l0,-2c1,0,1,0,1,0l0,1l0,1c0,1,0,1,0,1c0,1,0,1,0,1c0,0,-1,0,-1,0c0,0,-1,0,-1,0c0,0,-1,0,-1,0l0,-1l-1,0l0,1l-1,0c-1,0,-1,0,-1,0l-1,0c0,0,-1,-1,-1,-1ZM322.5,84.5c0,0,1,0,1,0c1,0,1,0,1,0c1,0,1,0,2,0l0,1c0,0,0,1,0,1c0,0,-1,0,-1,1l-1,0l-1,0l-1,0l2,-1c1,0,1,0,2,-1c-1,0,-1,0,-1,0c0,0,-1,0,-1,0c0,0,-1,0,-1,0c0,0,-1,0,-1,1l0,-1l0,-1ZM316.5,90.5l-2,-1l-1,2l-1,-1l1,-2l1,1l1,-1l1,1ZM312.5,82.5l5,-2l-1,1l-4,2ZM308.5,87.5l-2,-1l0,1l-2,-1l1,-1l2,1l0,-1l2,1ZM307.5,90.5l-1,0c0,1,0,1,0,1c0,0,0,1,0,1l1,1c0,-1,1,-1,1,-1l0,-1l0,-1l-1,0ZM309.5,101.5l-4,2c0,-1,1,-1,1,-1l4,-2Z" class="g1_9" />
<path fill-rule="evenodd" d="M325.5,454.5l4,-2l0,1l-4,2ZM308.5,413.5c0,0,0,-1,1,-1l1,0c0,0,1,0,1,0c1,1,1,1,1,1c0,1,-1,1,-1,1c0,0,0,1,0,1c-1,0,-1,0,-1,0c-1,0,-1,0,-1,0l-1,0l1,0c1,-1,2,-1,2,-1c0,0,-1,0,-1,-1l-1,0l-1,1l-1,0c0,-1,0,-1,0,-1l1,0ZM133.5,410.5c1,0,1,0,1,0c1,0,1,0,2,0c0,0,1,0,1,0c1,0,1,0,1,0c0,0,0,1,0,1c0,0,-1,0,-1,1l-1,0c-1,0,-1,0,-1,0l-1,0l1,0c1,0,2,-1,2,-1c0,0,-1,0,-1,0l-1,0l-1,0l-1,0l0,-1ZM310.5,458.5l1,0c0,0,1,0,1,0c1,0,1,0,1,0c1,0,1,0,1,0c0,1,0,1,0,1l-1,1l-1,0c0,1,-1,1,-1,1l-1,0l0,-1l2,0c0,0,1,-1,1,-1l-1,0c-1,0,-1,0,-2,0c0,-1,0,-1,0,-1ZM210.5,456.5c1,0,1,0,1,0c1,0,1,0,2,0c0,0,1,0,1,0c0,0,1,0,1,0c0,0,0,1,-1,1l0,1c0,0,-1,0,-1,0l-1,0c0,1,0,1,-1,1l-1,-1l2,0c1,0,1,-1,2,-1c-1,0,-1,0,-1,0c0,0,-1,0,-1,0c0,0,-1,0,-1,0c0,0,-1,0,-1,0c0,-1,0,-1,0,-1ZM159.5,458.5c1,0,1,0,2,0c0,0,1,0,1,0c1,0,1,0,1,0c0,1,0,1,0,1c0,0,-1,0,-1,1c-1,0,-1,0,-1,0c-1,1,-1,1,-1,1l-1,0l0,-1l1,0c1,0,2,-1,2,-1c0,0,-1,0,-1,0l-1,0l-1,0l-1,0c0,-1,0,-1,1,-1ZM108.5,402.5c0,1,0,2,-1,3l0,1l0,1c-1,0,-1,0,-1,0c-1,0,-1,0,-1,0c0,0,1,0,1,-1l1,0c0,0,0,-1,0,-1c-1,0,-1,0,-1,0l0,-1c0,0,-1,0,-1,0c0,0,-1,-1,-1,-1l1,0l0,-1c0,1,0,1,0,1c0,0,1,0,1,0c0,1,0,1,0,1c0,0,1,0,1,1l0,-1l0,-1ZM140.5,468.5c0,0,0,1,0,2c0,0,-1,0,-1,1l-1,1l2,0l-1,0l0,1l-1,0l0,1l-1,0c0,0,-1,1,-1,1l-1,0l-1,1l-1,0l-1,0l0,1l-1,1l-4,0l-3,0l-1,-1l-1,-1c-1,0,-2,-1,-3,-1l-1,0l0,-1l-1,0l0,-1l-1,0l0,-1l-1,0l2,0l-1,-1l0,-1l-1,0l0,-1c0,0,0,-1,0,-1l0,-1c0,-1,0,-1,0,-1c0,0,0,-1,1,-1c0,0,0,-1,0,-1l-1,-1l1,-1l1,0l0,-1l1,0l1,-1l1,0l2,-1l1,-1c0,0,1,-1,1,-1l3,0l4,0l1,1l0,1l1,0l2,1l1,0c0,0,1,1,1,1l1,0l0,1c1,0,1,1,2,1l-2,1l1,0l0,1l1,0l0,1l0,1ZM131.5,478.5l0,-1l1,0l0,-1l1,0c1,-1,1,-1,1,-1l1,0c1,0,1,-1,2,-1l0,-1c1,0,1,0,1,0l1,0l0,-1l-1,0l0,-1l1,0l0,-1l0,-1l1,0l0,-1c0,-1,-1,-2,-1,-3l0,-1l-1,0l0,-1l1,0c0,0,-1,-1,-1,-1l-1,0l0,-1l-1,0l-1,-1l-2,0c0,-1,0,-1,-1,-1l0,-1l-1,0c0,0,0,-1,0,-1l-4,0l-1,0l-2,0l0,1l-1,0l-1,1l0,1l-2,0l-1,1l-1,0l-1,1c0,0,-1,0,-1,1l1,0l0,1l-1,0l0,1l0,1l-1,0l0,1l0,1l0,1l0,1l1,0c0,0,0,1,0,1l1,0l0,1l-1,0l0,1l1,0l0,1l1,0l1,0l0,1l1,0l2,1l1,0l0,1c1,0,1,1,1,1l3,0ZM137.5,463.5l-1,0l-1,0l0,-1l-1,0l-1,0c0,0,0,-1,0,-1l1,0l1,0c0,0,0,1,0,1c1,0,1,0,1,0l0,1ZM137.5,473.5l-1,0l0,1l-1,0l-1,0l-1,1l0,-1c1,0,1,0,1,0l0,-1l1,0c0,0,1,0,1,-1ZM132.5,475.5c0,1,-1,1,-1,1l-4,0l-3,0c0,0,-1,0,-1,-1c0,-1,0,-1,0,-1l1,-1l3,0l4,0l1,0l0,1ZM132.5,461.5l0,1c0,0,-1,0,-1,0l-4,0l-3,0c0,0,-1,0,-1,0l0,-1c0,-1,0,-1,0,-1l0,-1l1,0l3,0l4,0c0,0,1,1,1,1l0,1ZM131.5,463.5l1,0l1,0l1,0l1,1l1,0c0,0,1,0,1,0l0,1l0,1l1,0l0,1l0,1c0,1,-1,1,-1,1l0,1c0,0,0,1,0,1l-1,0l-1,0l-1,1l-1,0l-1,0c-1,0,-1,0,-1,0l-4,0l-3,0l-1,0l-1,0c0,0,-1,0,-1,0c0,0,-1,0,-1,-1l-2,0l0,-2l-1,0l0,-1c0,-1,0,-1,0,-1c0,-1,0,-1,0,-1l1,-1l0,-1l1,0l1,0l1,-1c0,0,1,0,1,0c1,0,1,0,1,0l1,0l3,0ZM131.5,472.5l1,0l1,0c1,0,1,0,1,0l1,-1l1,0l1,-1l0,-1l0,-1c0,-1,0,-1,0,-2c0,0,0,-1,0,-1c-1,0,-1,-1,-1,-1l-1,1l0,-1l-1,0l0,-1l-1,0c-1,0,-1,0,-1,0l-1,0l0,1l-4,0l-3,0l0,-1l-1,0l-1,0c-1,0,-1,0,-1,0l0,1l-1,0c0,0,0,1,0,1l-1,-1c0,0,-1,0,-1,1l0,1l0,1l-1,0l0,1l1,1l0,1c0,0,0,1,1,1l1,0l1,1l1,0c1,0,1,0,1,0c0,0,1,0,1,0l3,0l4,0ZM129.5,466.5l0,1l1,1l0,1l1,0l-1,1l-1,-2l0,-1c0,1,0,1,0,1l-1,1l0,1l-1,0l0,-1c1,0,1,-1,1,-1l1,-1l0,-1ZM125.5,466.5c0,0,1,0,1,0l0,1l0,1l0,1l1,0l-1,1c0,0,0,-1,-1,-2c-1,0,-1,0,-1,-1l0,-1c1,0,1,0,1,0ZM125.5,466.5l0,1c0,0,-1,0,-1,0l1,0c0,-1,0,-1,0,-1ZM118.5,463.5l1,-1l1,-1l1,0l1,0c0,0,0,1,0,1c-1,0,-1,0,-1,0c-1,0,-1,0,-1,0l-1,1l-1,0ZM118.5,473.5l1,-1c0,0,0,1,1,1l1,1l1,0c0,0,-1,0,-1,0l1,0l0,1c-1,0,-1,0,-1,0l0,-1c-1,0,-2,0,-2,-1l-1,0ZM202.5,464.5l-1,-1l-1,1l-2,-1l1,-1l2,1l0,-2l2,1ZM195.5,461.5c1,0,1,0,1,-1l1,1c0,1,0,1,0,1l1,0l-1,0c0,0,0,-1,0,-1c0,0,0,-1,0,-1c0,-1,0,-1,0,-1c-1,0,-1,0,-1,0l-1,0c0,1,0,1,0,1c0,1,-1,1,-1,1c0,0,0,1,0,1c-1,0,-1,1,-1,1c-1,0,-1,0,-1,0c-1,1,-1,1,-1,1l-1,0c0,0,0,1,-1,1c0,0,0,1,0,1c0,0,1,0,1,0l1,0l1,0l1,1l1,0l-1,0l-1,1l-1,0l-1,0l-1,0l-1,0l-2,0l-2,1l1,0l0,-1l0,-1c0,0,1,0,1,0l-1,-1c0,-1,0,-1,-1,-1c0,-1,0,-1,-1,-1l-1,0c0,0,-1,1,-1,1c-1,0,-1,0,-2,1l-1,1c0,0,-1,0,-1,0c0,0,0,1,0,1l-2,0c-1,0,-1,0,-1,0c0,-1,0,-1,0,-1l0,-1c0,-1,0,-1,0,-1c0,0,-1,0,-1,0l0,1c0,0,-1,0,-1,0l-1,0l-1,1l-1,0l0,-1l0,3l0,1c0,0,-1,1,-1,1c0,0,-1,1,-1,1c0,1,-1,1,-1,1c-1,1,-1,1,-1,1l-1,0l-1,0c0,0,-1,0,-1,0c1,0,1,0,1,1l1,0l1,0l1,0l1,-1c0,0,1,0,1,0c0,0,0,-1,0,-1l1,0c0,-1,0,-1,0,-1c0,-1,1,-1,1,-2l0,-1c1,0,1,-1,1,-1c0,0,1,0,1,0l1,-1l0,1c0,0,0,1,0,1l1,0c0,0,0,1,0,1l1,0l0,1l0,1l1,-1l0,-1l11,0l1,0l1,0l1,0c1,0,1,0,1,0l3,-1c0,-1,0,-1,0,-1l1,0l1,0l1,0l1,0l2,0l0,-2l-1,0c0,0,-1,0,-1,0c0,0,-1,0,-1,0c-1,0,-2,0,-2,-1l-2,0l0,-1l-1,0c1,0,1,0,1,0c0,0,0,-1,1,-1c0,0,1,-1,1,-1c0,0,0,-1,0,-1ZM187.5,452.5c1,0,1,0,1,0c1,0,1,0,2,0c0,0,1,0,1,0c0,0,1,0,1,0c0,1,0,1,0,1c-1,0,-1,0,-1,1l-1,0c-1,1,-1,1,-1,1l-1,0l1,-1c1,0,1,-1,2,-1c0,0,-1,0,-1,0l-1,0c0,0,-1,0,-1,0l-1,0c0,-1,0,-1,0,-1ZM179.5,462.5l-1,2l-2,-1l1,-2ZM184.5,467.5l-1,-1l-1,0l-1,0c-1,1,-1,1,-1,1l-1,0l-1,1l-1,1l2,0c1,0,1,0,2,-1c1,0,2,0,2,0c0,0,1,0,1,-1ZM179.5,454.5l0,-1c0,0,1,0,1,0c1,0,1,1,1,1c0,0,0,1,0,1c0,1,-1,1,-1,1l1,0l0,1l-1,0l-1,0l0,1c-1,0,-1,0,-1,0l0,1l-1,0c-1,0,-1,0,-1,0l1,-1l1,0l0,-1l1,0l0,-1c-1,0,-1,0,-1,-1l1,-1ZM180.5,455.5l0,-1l-1,0l0,1l1,0ZM167.5,454.5l0,-1c0,0,1,0,1,0c1,0,1,1,1,1c0,0,0,1,0,1c-1,1,-1,1,-1,1l1,0l0,1l-1,0l-1,0l0,1c-1,0,-1,0,-1,0l0,1l-1,0c-1,0,-1,0,-1,0l1,-1l1,0l0,-1l1,0l0,-1c-1,0,-1,0,-1,-1l1,-1ZM168.5,455.5l0,-1l-1,0l0,1l1,0ZM162.5,466.5c0,0,-1,0,-1,0c0,0,0,1,0,1l1,0l0,-1ZM162.5,474.5c0,0,-1,0,-1,0c0,0,0,1,-1,1c0,0,-1,0,-1,0l-1,0c0,0,-1,0,-1,0c0,-1,-1,-1,-1,-1c0,0,1,0,1,0c1,0,1,0,1,0c1,0,1,0,1,0c1,0,1,-1,1,-1c1,0,1,0,1,-1c1,0,1,0,1,0c0,-1,0,-1,1,-2c0,0,0,-1,0,-1c0,0,-1,0,-1,0c-1,0,-1,0,-1,0c0,0,-1,0,-1,0c0,0,0,-1,0,-1l0,-1c0,-1,0,-1,1,-2l0,-1c1,0,1,0,1,0c0,0,1,0,1,0c0,1,0,1,0,1c0,0,1,1,1,1c0,0,0,1,0,1c0,0,0,1,0,1c0,1,0,1,0,1c0,1,0,2,-1,3c0,0,0,1,0,1c-1,0,-1,1,-1,1ZM151.5,464.5l-1,-1l1,-1l1,1ZM151.5,473.5c-1,0,-1,0,-2,0c0,0,-1,0,-1,-1c0,0,-1,0,-1,-1c0,0,0,-1,0,-1c0,-1,0,-1,0,-1c0,-1,0,-1,0,-1l0,-1l0,-1c1,0,1,0,1,0l0,1c0,1,0,1,0,1l0,1l0,1l1,1l1,0c0,0,1,0,1,0c1,0,2,0,2,0c1,0,2,-1,2,-1l0,-1c1,0,1,0,1,0c0,0,0,-1,0,-1c0,0,-1,-1,-1,-1l0,-1l0,-1l-1,0l0,-1l1,-1l0,1c1,0,1,0,1,0c0,1,0,1,0,1c0,0,0,1,0,1c0,0,0,1,0,1c0,1,1,1,1,1c0,1,-1,2,-1,2c0,1,-1,1,-1,2c-1,0,-1,1,-2,1c-1,0,-1,0,-2,0ZM153.5,478.5l-4,2c0,0,1,-1,1,-1l4,-2ZM212.5,464.5l-1,-1l0,-1l2,1ZM212.5,473.5c-1,0,-1,0,-2,0c0,0,-1,0,-1,-1c-1,0,-1,0,-1,-1c0,0,-1,-1,-1,-1c0,-1,0,-1,0,-1c1,-1,1,-1,1,-1l0,-1l0,-1c1,0,1,0,1,0l0,1c-1,1,-1,1,-1,1l0,1l1,1l0,1c0,0,1,0,1,0c1,0,1,0,2,0c1,0,2,0,2,0c1,0,1,-1,2,-1l0,-1c0,0,0,-1,0,-1c0,0,0,-1,0,-1l0,-1l0,-1c0,0,-1,0,-1,0l0,-1l1,-1l0,1l1,0c0,1,0,1,0,1c0,0,0,1,0,1c0,0,0,1,0,1c0,1,0,1,0,1c0,1,0,2,0,2c0,1,-1,1,-1,2c-1,0,-1,1,-2,1c-1,0,-2,0,-2,0ZM244.5,473.5c0,0,1,0,1,0l1,0c1,0,1,0,2,0c1,-1,1,-1,2,-1c0,-1,1,-1,1,-2c0,0,0,-1,0,-1l0,-1l0,-1l-1,-1l1,-1l0,-1l0,1c1,0,1,1,1,1l0,1l0,1c0,1,0,1,0,2c0,1,0,1,-1,1c0,1,0,1,0,1c0,1,-1,1,-1,1l-1,1c-1,0,-1,0,-1,0c0,0,-1,0,-1,0l-1,0l-1,0l-1,0ZM247.5,460.5l4,-2l0,1l-5,2ZM237.5,474.5l-2,0l1,-2l1,1ZM244.5,468.5c-1,1,-1,1,-2,1c-1,1,-2,1,-3,1c-1,1,-2,1,-4,1c-1,0,-2,0,-3,-1c-1,0,-2,0,-3,-1l0,-1c0,0,-1,0,-1,0l0,-1c0,-1,1,-1,1,-2c0,0,0,-1,1,-1c0,1,0,1,0,1c-1,1,-1,1,-1,1c0,1,1,1,1,1c0,1,1,1,1,1c1,0,1,1,1,1l1,0l1,0l2,0c1,0,2,0,2,0c0,0,1,0,1,0c0,-1,1,-1,1,-1l1,0c1,0,1,0,2,-1c0,0,1,0,1,-1c0,-1,-1,-1,-1,-1c0,0,0,-1,0,-1c1,-1,1,-1,1,-1c0,0,0,1,1,1c0,1,0,1,0,1l0,1c0,0,0,1,0,1c0,0,-1,1,-1,1ZM235.5,460.5l0,1l1,0l0,-1c0,0,1,0,1,1c0,0,0,-1,0,-1l1,-1l0,1l0,1c0,0,0,1,-1,1c0,0,-1,0,-1,0l0,-1l0,1c0,0,-1,0,-1,0l-1,0l0,-1l0,-1ZM237.5,476.5l-5,2c1,-1,1,-1,1,-1l4,-2ZM290.5,474.5l-1,-1l0,-1l2,0ZM287.5,470.5l-1,0c0,0,-1,0,-1,0c-1,0,-1,-1,-1,-2c0,1,0,1,-1,2c0,0,-1,0,-1,0c-1,0,-2,0,-2,0l-1,0c0,0,-1,0,-2,0c-1,0,-2,0,-3,0c0,0,-1,0,-2,0c-1,0,-2,0,-3,0c-2,0,-3,0,-4,0c-1,0,-2,0,-2,0c0,0,-1,0,-1,0c-1,0,-1,0,-2,0l0,-1l-1,-1c1,0,2,1,2,1c1,0,2,0,2,0c0,0,1,0,2,0c1,0,2,0,4,0c1,0,2,0,3,0c1,0,2,0,3,0c1,0,2,0,3,0c1,0,1,0,1,0c1,0,1,0,1,0c1,0,1,0,2,-1c0,0,1,0,1,0c0,0,1,0,1,0c0,-1,0,-1,0,-1l0,-1c0,-1,0,-1,0,-1l-1,-7l1,-2l1,11l0,1l1,0l1,0c1,0,1,0,2,0c0,0,1,0,1,0l0,-1c0,-1,0,-1,0,-1l-1,0l1,-2l0,1l1,0l0,1l0,1l0,1l0,1c-1,0,-1,0,-1,0c0,0,-1,1,-1,1c-1,0,-1,0,-2,0ZM289.5,476.5l-4,2c0,0,1,-1,1,-1l3,-2ZM274.5,466.5c-1,1,-1,1,-1,1c0,0,-1,0,-1,0l-1,0l0,-1l-1,0c1,0,1,0,1,0c1,0,1,0,2,0c0,0,1,-1,1,-1l-1,0c-1,0,-1,0,-1,-1c0,-1,0,-1,0,-1c0,-1,1,-1,1,-1c0,-1,0,-1,1,-1c0,0,1,0,1,-1l-1,2c0,0,-1,0,-1,1l1,0c0,0,1,1,1,1c0,1,0,1,-1,2ZM267.5,461.5l1,-1l3,-1l5,-1l5,-2l1,0l-2,1l-1,1l-1,0l-1,1l-6,1l-4,2ZM335.5,466.5l-1,0c0,0,0,1,0,1c0,0,1,0,1,0c0,0,1,0,1,0c-1,0,-1,0,-1,-1ZM335.5,474.5l-1,0c0,0,0,1,0,1c-1,0,-1,0,-2,0c-1,0,-1,0,-2,0c0,-1,-1,-1,-1,-1c0,0,1,0,1,0l1,0c1,0,1,0,1,0l1,0c0,0,0,-1,0,-1c1,0,1,0,1,-1c1,0,1,0,1,0c0,-1,1,-1,1,-2c0,0,0,-1,0,-1c0,0,-1,0,-1,0c0,0,-1,0,-1,0c-1,0,-1,-1,-1,-1l0,-1c0,-1,1,-1,1,-2l0,-1c1,0,1,0,1,0c1,0,1,0,1,0c0,1,0,1,1,1c0,0,0,1,0,1c0,0,0,1,0,1c0,0,0,1,0,1c0,1,0,1,0,1c0,1,0,2,-1,3c0,0,0,1,0,1c-1,0,-1,1,-1,1ZM332.5,460.5l4,-2l0,1l-4,2ZM324.5,467.5c-1,0,-1,1,-2,1c-1,1,-2,1,-4,2c-1,0,-2,0,-3,0l-2,0c0,1,0,1,0,1c0,1,0,1,0,1c-1,1,-1,1,-1,2c0,0,-1,0,-1,1l-1,0c-1,0,-1,0,-1,0c0,1,-1,1,-1,1c-1,0,-1,-1,-2,-1l-1,0c0,0,0,-1,0,-1c1,0,1,1,1,1l1,0c0,0,1,0,1,-1c1,0,1,0,1,0c1,0,1,-1,1,-1c1,0,1,0,1,-1l1,0c0,-1,0,-1,0,-1l0,-1c0,0,-1,0,-1,0c0,0,-1,0,-1,0c0,0,0,-1,0,-1c0,0,-1,0,-1,0l0,-1l1,0c0,-1,0,-1,0,-1l0,-1c0,0,1,0,1,0l0,-1l1,0l0,1c0,0,1,0,1,0c0,0,0,1,0,1c0,1,0,1,0,1c1,0,1,0,2,0l1,0c1,0,1,0,2,0c-1,0,-1,-1,-1,-1c0,-1,0,-1,0,-1c0,-1,0,-1,0,-1c0,0,0,-1,0,-1c0,-1,0,-1,0,-1c0,0,1,0,1,0l0,-1c1,0,1,0,1,0c1,0,1,0,1,0l1,0c1,0,1,0,1,0c0,0,0,1,1,1l0,1l-1,-1l-1,0l-1,0l-1,0c0,0,0,1,0,1c-1,0,-1,0,-1,0c0,1,0,1,0,1c0,0,0,1,1,1c0,0,1,1,1,1c0,0,1,0,1,0l1,0l0,-1l1,0l1,0l1,-1ZM318.5,454.5l1,-1l1,0c0,0,0,1,0,1c0,0,0,1,0,1c0,1,0,1,0,1l0,1l-1,0l-1,1l-1,0l0,1l-1,0l0,-1l1,0l1,-1l1,0l-1,-1l0,-1l0,-1ZM319.5,455.5l0,-1l-1,1c0,0,1,0,1,0ZM311.5,467.5l0,1c-1,0,-1,0,-1,0l1,0c0,0,1,0,1,0c0,0,0,-1,0,-1c-1,0,-1,0,-1,0ZM301.5,459.5l-1,0l1,-2l1,1ZM305.5,469.5l-1,1c0,0,-1,0,-2,0l-1,0l-1,0c-1,0,-1,0,-1,0l0,-1l0,-1c1,0,1,0,1,0l1,0c0,0,1,0,1,0c0,0,1,0,1,0c0,0,1,0,1,0c0,0,1,-1,1,-1l0,-1c-1,0,-1,-1,-1,-1l-1,0l0,-1l-1,0l-1,0l0,-1l1,-1l1,0c0,0,1,1,1,1c0,0,1,1,1,1c0,1,0,1,0,2c1,0,1,0,1,1c0,0,0,1,0,1c-1,0,-1,1,-1,1ZM299.5,451.5c1,0,1,-1,1,-1c0,0,1,0,1,0c1,0,1,0,1,1l0,1l-1,0l1,1l0,1l-1,0l-1,0c-1,1,-1,1,-1,1l-1,0l-1,0l1,0l1,-1l1,-1l-1,0c0,-1,0,-1,0,-1c0,-1,0,-1,0,-1ZM301.5,451.5l-1,0l0,1l1,0l0,-1ZM120.5,421.5c0,1,0,2,-1,2c0,0,0,1,0,1l0,1c0,0,-1,0,-1,0l1,1l-1,1l-1,0l0,1c0,0,-1,0,-1,1l-1,0l-1,0l-1,0l0,1l-1,0l0,1l-1,0c0,1,0,1,0,1l-4,0l-3,0c0,0,-1,-1,-1,-1l-1,-1l-1,-1c-1,0,-1,0,-2,0l0,-1l-1,0l-1,0l0,-1l-1,0l0,-1l-1,0l1,-1l-1,-1l0,-1l0,-1l0,-1l0,-1c0,-1,0,-1,0,-2c0,0,1,0,1,0l0,-1l-1,0c0,-1,0,-1,1,-1l1,-1l1,0l0,-1l1,0l1,-1l1,0c1,0,1,0,1,0l0,-1l1,-1c0,0,1,0,1,0l3,0l4,0l1,1l1,1l2,1l1,0l1,0l0,1l1,0c1,1,1,1,1,2l-1,0l1,0l0,1l0,1l1,1ZM111.5,431.5l1,-1l1,-1c1,0,1,0,1,0c0,0,1,0,1,0l0,-1c1,0,1,0,2,0l0,-1c0,0,1,0,1,0l0,-1l1,0l-1,-1l1,-1l0,-1l0,-1l0,-1c0,-1,0,-1,0,-2l0,-1c0,0,-1,0,-1,0l0,-1l1,0c0,-1,-1,-1,-1,-1l-1,-1l-1,-1l-2,0l-1,-1c0,0,-1,0,-1,0l-1,-1l0,-1l-4,0l-1,0l-2,0l-1,1l-1,1l-2,1l-1,0l-1,0l0,1l-1,0l0,1c-1,0,-1,0,-2,1l2,0l-1,1l-1,1l0,1c0,1,0,1,0,1l0,1l0,1l1,1l0,1l1,0l-1,1l1,1l1,1l1,0l1,1l1,0c1,0,1,0,1,1l1,0l0,1c0,0,1,0,1,0l3,0ZM116.5,416.5l0,1l-1,-1l-1,0l0,-1l-1,0l0,-1l1,1c1,0,1,0,1,0c0,0,1,0,1,1ZM116.5,426.5l0,1l-1,0l0,1l-1,0l-1,0c0,0,0,-1,0,-1c0,0,1,0,1,0l1,0c0,-1,1,-1,1,-1ZM112.5,428.5c0,0,0,1,0,1c-1,0,-1,0,-1,0l-4,0l-3,0c-1,0,-1,0,-1,0c0,-1,0,-1,0,-1l0,-1l1,0l3,0l4,0l1,0l0,1ZM112.5,414.5c0,1,0,1,0,1c0,0,-1,0,-1,1l-4,0l-3,0c-1,-1,-1,-1,-1,-1l0,-1l0,-1l1,0l3,0l4,0l1,0c0,0,0,1,0,1ZM111.5,417.5l0,-1c1,0,1,0,1,0c1,0,1,0,2,1l1,1l1,-1c0,0,0,1,1,1l0,1l0,1l0,1l0,1c0,0,0,1,0,1l0,1c0,0,-1,1,-1,1l-1,-1c0,1,0,1,0,1l-1,0c0,0,0,1,0,1l-1,0l-1,0c-1,0,-1,0,-1,0l0,-1l-4,0l-3,0l0,1l-1,0l-1,0c0,0,-1,0,-1,0c0,0,-1,-1,-1,-1l-1,-1l-1,1l0,-1l-1,-1l0,-1l0,-1c0,0,0,-1,0,-1l0,-1l1,0l0,-1c0,0,0,-1,0,-1l2,1l0,-1l1,0c0,-1,1,-1,1,-1c0,0,1,0,1,0l0,1l1,0l3,0ZM111.5,425.5l1,1l1,0l1,-1l1,0c0,-1,0,-1,0,-1l1,1l0,-1l1,-1l0,-1l0,-1c0,0,0,-1,0,-1c0,-1,0,-1,0,-2c-1,0,-1,0,-1,0l-1,0l-1,-1l-1,0l-1,0l-1,0l-4,0l-3,0l-1,0l-1,0l-1,0l-1,0l0,1l-2,0l0,1l0,1l-1,0l0,1c0,1,0,1,0,1l1,1c0,1,0,1,0,2l2,-1l0,1l1,0l0,1l1,0c1,0,1,0,1,0c0,0,0,-1,1,-1l3,0l4,0ZM109.5,424.5l0,-1l-1,0l0,-1l0,-1l-1,0l0,-1l0,-1l0,1l1,0l0,1l1,1l0,-1l1,-1l0,-1l0,1c0,0,0,1,-1,2l0,1c0,1,0,1,0,1ZM105.5,419.5l0,1l1,0l0,1l0,1l0,1l0,1c0,0,0,-1,-1,-3c-1,0,-1,0,-1,0c0,-1,0,-1,0,-1c0,-1,1,-1,1,-1ZM105.5,420.5l-1,0l0,1l1,0l0,-1ZM98.5,416.5l1,0l0,-1l1,0l1,0l0,-1l1,0l-1,1l1,0c-1,0,-1,0,-1,0l-1,0c0,0,0,1,0,1l-1,0l0,1l-1,0l0,-1ZM98.5,426.5l1,0l1,1l1,0l1,0c-1,0,-1,0,-1,1c-1,0,-2,-1,-2,-1l-1,0l0,-1ZM181.5,424.5l0,-1l0,-2l-1,-8l1,-2l1,10c0,1,0,1,0,1l0,1c-1,0,-1,0,-1,1ZM173.5,422.5c1,0,1,0,1,0c1,0,1,0,1,0c0,0,1,0,1,0c0,-1,0,-1,0,-1l0,-2l-1,-7c0,-1,0,-1,0,-1c1,-1,1,-1,1,-1l0,1c0,0,1,0,1,1l0,1l-1,0c0,1,0,1,1,2c0,0,0,1,0,3c0,0,0,1,0,1l0,1c0,1,0,1,0,1c0,1,0,1,-1,1l0,1c0,0,-1,0,-1,0c0,0,0,1,-1,1l-1,0l-1,0l0,-1l-1,0l0,-1c-1,0,-1,1,-1,1c-1,0,-1,0,-1,0c-1,0,-2,0,-2,-1l0,1c-1,0,-1,1,-2,1c-1,0,-1,-1,-2,-2c0,0,0,1,0,1c-1,0,-1,1,-2,1l-1,0c-1,0,-1,0,-1,0c0,0,-1,-1,-1,-1c0,0,-1,0,-1,-1c0,0,0,1,0,1c-1,0,-1,0,-1,0c0,0,-1,0,-1,1l-1,0l-11,0c0,1,0,1,0,2l-1,0l0,-1l0,-1l-1,0l-1,0c0,-1,0,-1,0,-1l-1,0c0,0,0,-1,0,-1l0,-1l0,-1c-1,0,-1,1,-2,1c0,0,-1,0,-1,0c0,1,0,1,0,1l0,1c0,1,0,2,0,3c0,0,-1,1,-1,1c-1,1,-1,1,-2,1c-1,1,-2,1,-2,1c-1,0,-1,0,-2,-1c0,0,-1,0,-1,0c-1,-1,-1,-1,-1,-1c-1,-1,-1,-2,-1,-2c0,-1,0,-1,0,-1c0,-1,0,-1,1,-1c0,-1,0,-1,0,-1c0,0,0,-1,0,-1c1,0,1,0,1,0c0,0,0,1,0,1c0,0,-1,1,-1,1c0,0,0,1,0,1c0,0,0,1,0,1c1,0,1,1,1,1c0,0,1,0,1,0c1,1,1,1,2,1c1,0,1,0,2,-1c1,0,1,0,2,-1c0,-1,0,-1,0,-1c0,-1,0,-1,0,-1c0,-1,0,-1,0,-1c0,-1,0,-1,-1,-1c0,0,0,-1,0,-1l1,-2l0,1l1,0c1,0,1,0,1,0c1,0,1,0,1,-1c0,0,1,0,1,-1c0,0,0,1,0,1l0,1l0,1l1,1l0,1l1,0l1,0c1,0,1,0,1,0c1,-1,1,-1,1,-2l0,-1l0,-1l0,-1l0,-1l-1,-2l0,-2c0,-1,0,-1,0,-1l0,-1l1,0l1,2c-1,0,-1,1,-1,2l0,1l1,1l0,2l0,1l0,1l-1,1l2,-1l1,-1l0,-1c1,0,1,0,2,0c1,0,2,0,2,0c0,0,1,1,1,1l0,1l0,1l-1,1l-1,0l2,0l2,0c1,0,1,0,1,0c0,0,1,0,1,-1c1,0,1,0,1,0c0,0,1,0,1,0c0,0,0,1,1,1l1,0l1,0l1,0c1,-1,1,-1,2,-2l0,1c0,1,0,1,1,1c0,0,1,0,1,0c1,-1,1,-1,1,-2l1,0c0,0,0,1,0,1c0,0,1,1,1,1c0,0,1,-1,1,-1c0,0,1,-1,1,-1c0,1,1,2,2,2ZM166.5,416.5l-1,-1l0,-2l2,1ZM168.5,418.5l-2,-1l-1,1l-1,-1l1,-1l1,1l1,-1l1,1ZM164.5,406.5l0,1l1,0c0,0,1,0,1,0l0,-1l0,-1l0,1c0,0,1,1,1,1c0,0,0,-1,0,-1l0,-1l1,0l0,1l0,1c-1,0,-1,0,-1,1l-1,0l0,-1l0,1c-1,0,-1,0,-1,0c0,0,-1,0,-1,0l0,-1l0,-1ZM169.5,403.5l-6,3c0,-1,1,-1,1,-1l5,-3ZM158.5,427.5l-1,-1l-1,1l-1,-1l0,-1l2,1l1,-1l1,0ZM151.5,421.5c0,-1,0,-1,-1,-1c0,0,-1,0,-1,0c-1,0,-1,0,-2,0l-1,1l-1,0l-1,1l1,0c1,0,1,0,2,0l1,0c1,-1,2,-1,3,-1ZM146.5,427.5l-4,2c0,-1,0,-1,0,-1l5,-2ZM141.5,427.5l-2,-1l-1,1l-1,-1l1,-1l1,1l1,-2l1,1ZM131.5,419.5l-2,-1l1,-1l2,1ZM133.5,432.5l-4,2c0,-1,0,-1,1,-1l4,-2ZM235.5,423.5c-1,0,-1,0,-2,0c0,0,-1,0,-1,-1l-1,0c0,0,0,1,0,1c0,0,-1,0,-1,0l-1,0l-1,1c-1,0,-1,0,-1,0l-1,0c-1,0,-1,0,-2,-1l-1,0c0,0,0,1,0,1l-1,0l-1,0l-1,-1l-1,-1l-1,1c-1,1,-1,1,-1,1l-1,0l-1,0l-1,0l0,1c0,1,0,1,-1,2l0,1c0,0,-1,0,-1,0c0,1,0,1,-1,1l-1,0l-1,0c-1,0,-1,0,-2,0l-1,0l0,-1l1,0l1,1c0,0,1,-1,1,-1c1,0,1,0,2,0c0,-1,0,-1,0,-1c1,0,1,0,1,-1c0,0,1,0,1,-1l0,-1c1,0,1,-1,1,-1l-1,0c0,0,0,-1,0,-1l0,-1c0,0,1,0,1,0l0,1l1,0l1,0l1,0l1,0l0,-1l1,-1c1,-1,2,-1,2,-1l1,1l1,1l1,0l0,1c0,0,1,0,1,0l1,0l1,0c0,0,1,0,1,0c1,0,1,0,1,0c0,-1,0,-1,0,-1c0,-1,0,-1,0,-1c0,0,0,-1,0,-1c1,0,1,0,1,0c0,0,0,-1,0,-1c0,-1,0,-1,0,-1l0,-1c1,0,1,0,1,0c1,0,1,0,2,1c1,0,1,1,2,1c0,1,0,1,1,2c0,1,0,1,0,1c0,1,0,1,0,1c0,0,0,1,0,1c-1,0,-1,0,-1,0ZM231.5,419.5c0,0,-1,0,-1,0c0,0,0,1,0,1c1,0,1,1,1,1c0,0,1,-1,1,-1c0,-1,0,-1,0,-1l-1,0ZM233.5,419.5c0,1,0,1,0,1c0,0,0,1,0,1l2,0l0,1l0,-1c0,0,-1,-1,-1,-1l0,-1c-1,0,-1,0,-1,0ZM230.5,411.5l4,-2l0,1l-4,2ZM223.5,422.5l-1,-1c0,0,0,-1,-1,-1l-1,0l0,1l1,1l1,0ZM219.5,411.5l4,-2l-1,1l-4,2ZM213.5,419.5l-1,-1l1,-2l1,1ZM157.5,412.5c0,-1,0,-1,0,-2c-1,0,-1,-1,-1,-1l0,-1l1,0l0,1l0,1c0,1,0,1,0,1l0,1ZM212.5,413.5c0,-1,0,-2,0,-2c0,-1,0,-1,-1,-2l1,0l0,-1c0,0,0,1,0,1c1,1,1,1,1,1l0,1c0,1,0,1,0,1c-1,0,-1,1,-1,1ZM199.5,417.5l-1,1l-1,-1l-1,1l-2,-1l1,-1l2,1l0,-1ZM205.5,422.5c-1,0,-1,0,-2,1c-1,0,-2,1,-3,1c-2,0,-3,0,-4,0c-1,0,-3,0,-3,0c-2,0,-2,-1,-3,-1c0,0,-1,-1,-1,-1c0,0,0,-1,0,-1l0,-1c0,0,0,-1,0,-1c1,0,1,-1,1,-1c0,0,1,0,1,0c0,0,-1,0,-1,1l0,1c0,0,0,1,0,1c1,0,1,1,2,1c0,0,1,0,1,0l1,0l1,0l2,0c1,0,1,0,2,0l1,0l1,0l1,0c0,-1,1,-1,1,-1c1,0,2,-1,2,-1l0,-1c-1,0,-1,0,-1,-1l0,-1l1,-1c0,1,0,1,0,2l1,0c0,1,0,1,0,1c0,1,0,1,-1,2l0,1ZM198.5,428.5l-4,2c1,-1,1,-1,1,-1l4,-2ZM260.5,423.5l-1,0l-1,0l-1,-1l0,1l-1,1l-1,0l-2,0c0,0,0,1,0,1l0,1c0,0,0,1,0,2c-1,0,-1,1,-2,1c0,1,-1,1,-1,1c-1,1,-2,1,-3,1c0,0,-1,0,-2,-1c0,0,-1,0,-1,0c0,-1,-1,-1,-1,-1c0,-1,0,-2,0,-2c0,0,0,-1,0,-1c0,0,0,-1,0,-1c0,0,0,-1,0,-1c1,0,1,-1,1,-1c0,0,0,1,0,1c0,0,0,1,0,1c0,1,-1,1,-1,1c1,0,1,1,1,1c0,0,0,1,1,1c1,1,2,1,3,1c0,0,1,0,2,-1c1,0,1,0,2,-1c0,0,0,-1,0,-1c0,0,0,-1,0,-1c0,0,0,-1,0,-1l0,-1l-1,0l1,-2c1,1,1,1,2,1l1,0l1,0l1,-1l1,-1c0,0,0,-1,1,-1c0,-1,0,-1,1,-1c0,0,0,1,0,1c1,0,1,1,1,1l0,1l0,1c0,1,0,1,-1,1ZM259.5,421.5l1,0l0,-1c0,0,-1,0,-1,0l-1,0c0,0,0,1,0,1l1,0ZM260.5,427.5l-5,2c1,-1,1,-1,1,-1l4,-2ZM248.5,421.5l-1,-1l1,-1l1,1ZM247.5,408.5c1,0,1,0,1,0c1,0,1,0,2,0c0,0,1,0,1,0c0,0,1,0,1,1c-1,0,-1,1,-1,1l-1,0c0,1,0,1,0,1l-1,0l-1,0l1,-1c1,0,1,0,2,-1c0,0,-1,0,-1,0c0,0,-1,0,-1,0c0,0,-1,0,-1,0l-1,1l0,-1l0,-1ZM289.5,428.5l-1,-1l1,-2l1,1ZM287.5,424.5l-1,0l-1,0c-1,-1,-1,-1,-2,-1c0,-1,0,-2,0,-3c0,1,-1,1,-1,2c-1,0,-1,1,-2,1c-1,0,-1,0,-1,1l-1,0l-1,0l-1,0l-1,0l-1,0l-1,0c0,0,-1,0,-1,0l-1,0c-1,0,-2,0,-2,-1c-1,-1,-1,-1,-1,-2l0,-1l0,-1l1,-1c0,1,0,1,0,1c0,1,1,2,2,3c0,0,1,0,2,0c0,0,1,0,2,0l1,0l1,0l1,0c3,0,4,-1,5,-3l-1,-7l1,-2l1,10c0,1,0,1,0,1l0,1c0,0,1,0,1,0l1,0l1,0c0,0,1,0,1,0c1,0,1,0,1,-1c0,0,0,-1,0,-1l-1,-1l1,-2c0,1,0,1,1,1l0,1l0,1l0,1l0,1l-1,1l-1,1c0,0,-1,0,-1,0ZM288.5,430.5l-4,2c1,-1,1,-1,1,-1l4,-2ZM276.5,419.5c0,0,-1,0,-1,0c-1,0,-1,0,-1,0c0,0,-1,0,-1,0l1,0l1,-1c1,0,1,0,1,0l-1,0c-1,0,-1,-1,-1,-1c0,-1,0,-1,0,-1c1,-2,1,-2,2,-3l0,2c-1,0,-1,0,-1,1l1,0c1,0,1,0,1,1c0,0,0,1,0,1l-1,1ZM273.5,411.5l4,-2l-1,1l-4,2ZM323.5,420.5c0,1,-1,1,-2,2c-1,0,-2,1,-3,1c-1,0,-2,1,-3,1l-1,0l-1,0c0,0,0,1,0,1c-1,0,-1,1,-1,1c0,0,0,1,-1,1c0,0,0,1,-1,1l0,1c0,0,-1,0,-1,0l-1,0l-1,0c0,0,-1,0,-2,0c0,0,0,-1,0,-1l1,0c1,0,1,0,2,0l1,-1l1,0c0,0,0,-1,0,-1c1,0,1,-1,1,-1l1,-1l-1,0c0,0,-1,0,-1,0c0,0,0,-1,0,-1c-1,0,-1,0,-1,0c0,-1,0,-1,0,-1c0,-1,0,-1,0,-1c0,-1,0,-1,1,-1c0,0,0,-1,0,-1l1,0l1,0l0,1c1,1,1,1,1,1c0,0,0,1,0,1c0,0,1,0,1,0l1,0c1,0,2,0,2,-1c-1,0,-1,0,-1,-1l0,-1l0,-1l0,-1c0,0,1,0,1,0c0,-1,0,-1,1,-1c1,-1,1,-1,1,-1c1,0,1,0,1,0c0,1,1,1,1,1c0,0,1,0,1,0l0,1l-1,0l-1,0l-1,0c-1,0,-1,0,-1,0c-1,0,-1,1,-1,1l0,1l1,0c0,1,1,1,1,2c1,0,1,0,1,0c0,0,0,-1,0,-1l1,0l1,0l1,-1l1,0ZM317.5,408.5c0,0,1,-1,1,-1l1,0l0,1l0,1l0,1l1,0l-1,1l-1,-1l0,1l-1,0c0,1,0,1,0,1l-1,0l-1,0l1,0l0,-1c0,0,1,0,1,0l1,-1l-1,0c0,-1,0,-1,0,-1c0,-1,0,-1,0,-1ZM318.5,408.5l0,1l0,-1ZM311.5,421.5c0,0,-1,0,-1,0c0,0,0,1,0,1l1,0l1,0c0,-1,-1,-1,-1,-1ZM301.5,413.5l-2,-1l1,-1l2,0ZM305.5,423.5l-1,0c-1,0,-2,1,-2,1l-1,0l-1,0l-1,0l0,-1l-1,0c0,0,1,-1,1,-1l1,0c0,0,1,0,2,0l1,0c0,-1,0,-1,1,-1c0,0,0,-1,0,-1c0,-1,0,-1,-1,-1l0,-1l-1,0l-1,-1l0,-2c0,0,1,0,1,0l0,1c0,0,1,0,1,0c0,0,1,1,1,1l0,1c1,0,1,1,1,1c0,1,0,1,0,1l0,1l0,1l0,1ZM299.5,404.5c1,-1,1,-1,1,-1c1,0,1,0,1,0c0,1,0,1,0,1c0,1,0,1,0,1l0,1l0,2l-1,-1l-1,1c0,0,-1,1,-1,1l-1,0l0,-1l1,0l1,-1l0,-1l0,-1l0,-1ZM300.5,405.5l0,-1c-1,0,-1,1,-1,1l1,0l0,1l0,-1ZM351.5,427.5l1,0c1,0,2,0,3,-1c0,0,1,0,1,-1c1,0,1,-1,2,-1c0,-1,0,-1,0,-1c0,-1,0,-1,0,-1l0,-1l-1,-1l0,-1l1,-1l0,1l1,1l0,1l0,1c0,0,0,1,0,1c0,1,0,1,0,1c-1,0,-1,0,-1,0c0,0,0,1,0,1c0,0,0,1,0,1c-1,0,-1,0,-1,1c0,0,-1,0,-1,0l-1,1c-1,0,-1,0,-1,0l-1,0l-1,0c0,-1,-1,-1,-1,-1ZM196.5,451.5l0,1c0,0,1,0,1,0l0,-1l1,0l0,1c0,0,1,-1,1,-1l0,-1l0,1l0,1c0,0,0,1,-1,1l-1,-1l0,1c0,0,-1,0,-1,0c0,0,-1,0,-1,0l0,-1l1,-1ZM200.5,448.5l-6,3c1,-1,1,-1,1,-1l5,-3ZM354.5,412.5l0,1c0,0,1,0,1,0l1,-1c0,1,0,1,0,1l1,0l0,-1l0,-1l0,1l0,1c0,0,0,1,0,1l-1,0l-1,0c0,0,0,1,0,1c-1,0,-1,0,-1,-1l0,-1l0,-1ZM358.5,409.5l-5,3c0,-1,0,-1,0,-1l6,-3ZM343.5,428.5l-1,-1l1,-1l1,1ZM351.5,422.5c-1,0,-1,0,-2,1c-1,0,-2,1,-3,1c-2,0,-3,0,-4,0c-1,0,-3,0,-3,0c-2,0,-2,-1,-3,-1c0,0,0,-1,-1,-1c0,0,0,-1,0,-1l0,-1c0,0,0,-1,0,-1c1,0,1,-1,1,-1c0,0,1,0,1,0c0,0,-1,0,-1,1l0,1c0,0,0,1,0,1c1,0,1,1,2,1c0,0,1,0,1,0l1,0l1,0l2,0c1,0,1,0,2,0l1,0l1,0l1,0c0,-1,1,-1,1,-1c1,0,2,-1,2,-1l0,-1c-1,0,-1,0,-1,-1l0,-1l1,-1c0,1,0,1,0,2l1,0c0,1,0,1,0,1c0,1,0,1,-1,2l0,1ZM341.5,414.5l0,1c1,0,1,0,1,0c0,0,0,-1,1,-1l0,-1l0,1c0,0,1,0,1,0l0,-1l1,-1l0,1l0,1l-1,1l-1,0l0,1c-1,0,-1,0,-1,0c-1,0,-1,0,-1,0l0,-1l0,-1ZM345.5,430.5l-4,2c0,-1,0,-1,0,-1l4,-2ZM221.5,471.5l0,-1l0,-1l-1,-9l1,-2l1,11c-1,0,-1,1,-1,1c0,0,0,1,0,1ZM219.5,456.5l4,-2l0,1c0,0,-1,0,-1,0l-4,2ZM326.5,423.5l0,-2l0,-1l0,-8l1,-3l0,11c0,0,0,1,0,1c0,1,-1,1,-1,2ZM324.5,408.5l5,-2l-1,1l-4,2ZM327.5,469.5l0,-1l0,-1l-1,-9l1,-2l1,11c0,0,0,1,0,1c-1,0,-1,1,-1,1Z" class="g1_9" />
</svg>