<?xml version="1.0" encoding="UTF-8" standalone="no"?>
<!DOCTYPE svg PUBLIC "-//W3C//DTD SVG 1.1//EN"
"http://www.w3.org/Graphics/SVG/1.1/DTD/svg11.dtd">
<svg version="1.1" xmlns="http://www.w3.org/2000/svg" xmlns:xlink="http://www.w3.org/1999/xlink">
<defs>
<style type="text/css"><![CDATA[
.g2_59{
fill: #1F1A17;
stroke: #1F1A17;
stroke-width: 1;
stroke-linecap: butt;
stroke-linejoin: miter;
}
.g1_59{
stroke: #1F1A17;
stroke-width: 1;
stroke-linecap: butt;
stroke-linejoin: miter;
}
]]></style>
</defs>
<path fill-rule="evenodd" d="M345.5,203.5l-1,-1l1,-2l1,1ZM312.5,188.5l1,0l1,0c0,0,1,0,1,0c1,0,1,0,1,0l0,1c0,0,-1,0,-1,1c-1,0,-1,0,-1,0c-1,0,-1,0,-1,0l-1,0l1,0c1,0,2,-1,2,-1c0,0,-1,0,-1,0l-1,0l-1,0l-1,0l0,-1l1,0ZM109.5,192.5l1,0c0,0,1,0,1,0c1,0,1,0,1,0c1,0,1,0,1,1c0,0,0,1,-1,1c0,1,-1,1,-1,1c0,0,-1,0,-1,0l-1,0l2,-1c0,0,1,0,1,-1l-1,0c-1,0,-1,0,-2,0l-1,1l0,-1c0,0,1,0,1,0l0,-1ZM100.5,188.5c0,0,-1,0,-1,0l0,1c0,0,-1,0,-1,0l0,1l1,0c0,1,0,1,0,1l-1,0l0,-1l0,-1l0,-1c1,0,1,0,1,-1l1,0l1,-1ZM100.5,189.5l0,-1c1,0,1,0,1,0c1,0,1,1,1,1l0,1l-1,1l1,0l0,1l-1,0l-1,0c0,1,-1,1,-1,1l-1,0l1,-1l1,0l0,-1c0,0,0,-1,0,-1c0,0,0,-1,0,-1ZM101.5,189.5l-1,0c0,0,0,1,0,1l1,0ZM90.5,205.5c0,1,0,1,0,2l-1,1c0,0,0,1,0,1l1,0l0,1l-1,0l-1,0c0,0,0,1,0,1l-1,0c0,1,0,1,-1,1l-1,1l-1,0c-1,0,-1,0,-1,0l-1,1l-1,1l-3,0l-3,0l-1,-1c-1,-1,-1,-1,-1,-1c-1,0,-2,-1,-3,-1l-1,0l0,-1l-1,0l0,-1l-1,0l0,-1l-1,0l1,0l1,0l-1,-1l0,-1l-1,0l0,-1l0,-1l0,-1l0,-1c0,0,1,0,1,-1c0,0,0,-1,0,-1l1,0l-1,-1l-1,0c1,0,1,0,1,-1l1,0l1,-1l1,0l0,-1l1,0l2,-1l1,0l0,-1c1,0,1,-1,1,-1l3,0l3,0l1,1l1,1l1,0l1,1l1,0c1,1,1,1,1,1l1,0l0,1c1,0,2,1,2,1l-1,1l0,1l1,0l0,1l0,1ZM81.5,215.5l1,-1l0,-1l1,0c1,0,1,-1,2,-1l1,0c0,0,1,-1,1,-1l1,0c0,-1,0,-1,0,-1l1,0l0,-1l-1,0l1,-1l0,-1l1,0l0,-1l0,-1c0,-1,0,-2,0,-3c0,0,-1,0,-1,0c0,-1,0,-1,0,-1l-1,0l0,-1l2,0c-1,0,-1,-1,-2,-1l-1,-1l-1,0l-1,-1l-2,0c0,0,0,-1,0,-1l-1,-1l-1,0l-1,0l-2,0l-1,0l-2,0l-1,0l0,1c0,0,-1,1,-1,1l-2,0l-1,1l-1,0l0,1l-1,0c0,0,-1,1,-1,1l1,0l0,1l-1,1l0,1l0,1c0,0,-1,0,-1,1l1,0l0,1l0,1c0,1,0,1,0,1l1,0l0,1l-1,0l0,1l1,0l1,1l1,1l1,0l1,0l1,1c0,0,1,0,1,0l0,1l1,0c0,1,0,1,0,1l3,0ZM87.5,200.5l-1,0l-1,-1l-1,0l-1,0c1,0,1,-1,1,-1l-1,0c1,0,1,0,1,0l1,0l0,1c0,0,1,0,1,0l1,1ZM87.5,210.5l-1,0l0,1l-1,0l-1,0l0,1l0,-1l-1,0c1,0,1,0,1,0l1,0l0,-1c1,0,1,0,1,-1l1,0l0,1ZM82.5,212.5l0,1l-1,0l-3,0l-3,0l-1,0c0,-1,0,-1,0,-1c0,-1,0,-1,0,-1c0,0,1,0,1,-1l3,0l3,0c0,0,1,0,1,0l0,1ZM82.5,198.5l0,1l-1,0l-3,0l-3,0c0,0,-1,0,-1,0l0,-1c0,-1,0,-1,0,-1l1,0l0,-1l3,0l3,0c1,0,1,1,1,1l0,1ZM81.5,200.5l1,0c0,0,1,0,1,0c0,0,1,0,1,0l1,1l2,0l0,1l1,1l0,1l0,1l0,1l0,1l-1,0c0,0,0,1,0,1l-1,0c0,0,-1,0,-1,0l0,1l-1,0l0,1l-1,0l-1,0c0,0,0,-1,0,-1l-1,0l-3,0l-3,0l-1,0l0,1l-1,0c0,0,0,-1,-1,-1l-1,0l0,-1l-1,0l-1,0l0,-2l-1,-1c0,-1,0,-1,1,-1c0,-1,0,-1,0,-1l0,-1c0,-1,1,-1,1,-1l1,0l1,0l0,-1c1,0,1,0,1,0c1,0,1,0,1,0l1,0l3,0ZM81.5,209.5l1,0l1,0c0,0,1,0,1,0l1,0l0,-1l2,0l0,-1l0,-1l1,-1c0,-1,0,-1,-1,-2c0,0,0,-1,0,-1c0,0,0,-1,0,-1l-2,1l0,-1l-1,0l0,-1l-1,0c0,0,-1,0,-1,0l-1,1l-3,0l-3,0l-1,-1l-1,0c0,0,-1,0,-1,0l0,1l-1,0c0,1,0,1,0,1l-1,-1c0,0,0,1,-1,1l0,1l0,1l0,1l0,1l0,1c0,0,1,1,1,1l1,0l1,1l1,0c1,0,1,0,1,0c1,0,1,0,1,0l3,0l3,0ZM81.5,203.5l0,1c-1,0,-1,0,-1,0l-1,0l1,1l0,1c0,0,0,1,0,1c0,0,-1,0,-1,0l0,-1l0,-1l0,-1l-1,0l1,-1c0,0,0,1,1,1c0,0,1,-1,1,-1ZM78.5,203.5l0,1c-1,0,-1,0,-1,0l-1,0l0,1l1,0l0,1c0,0,0,1,0,1c-1,0,-1,0,-1,0l0,-1l0,-1l0,-1l-1,0l1,-1c0,0,0,1,1,1c0,0,1,-1,1,-1ZM70.5,200.5l0,-1l1,0l0,-1l1,0l1,0c0,1,0,1,0,1c0,0,-1,0,-1,0l-1,0l0,1l-1,0ZM69.5,210.5l1,-1c0,1,1,1,1,1l1,0l0,1l1,0l0,1l-1,0l0,-1c-1,0,-1,0,-2,-1ZM137.5,203.5l0,2l-1,0c-1,0,-1,0,-1,0l-1,0c0,0,-1,0,-1,0l-1,1l-1,0l-1,1l-1,0l-1,0l-1,0l-1,0l-2,0c-1,0,-1,0,-1,0l0,-1l-1,0c0,0,0,-1,0,-1l0,1l-1,0c0,1,-1,1,-1,1c-1,0,-1,0,-2,0l-1,0c0,0,-1,0,-1,0c0,-1,0,-1,0,-1l0,-1l0,-1c0,0,0,1,1,1l1,0l1,0c1,0,1,0,1,0l1,0c0,0,1,-1,1,-1c0,0,0,-1,0,-1l-1,-2l0,-1l1,-1l0,-1l0,2c1,0,1,0,1,1l0,2c0,1,0,1,0,1c0,0,0,1,0,1l1,0l0,1l2,0c0,-1,0,-1,0,-1l0,-1l1,0c0,-1,0,-1,0,-1c0,0,0,-1,0,-1c1,0,1,0,1,0c0,-1,1,-1,1,-1l1,0c1,0,1,0,1,0c0,1,0,1,0,1l2,0l2,1l1,0l1,0ZM133.5,204.5l-1,0c-1,-1,-1,-1,-2,-1c0,0,-1,0,-1,0c0,0,-1,0,-1,0c0,0,0,1,0,1c0,0,-1,0,-1,0c0,1,0,1,0,1l0,1l1,0l0,-1c1,0,1,0,1,0l1,0l1,0l1,-1ZM127.5,194.5l4,-2l0,1l-4,2ZM119.5,210.5l-4,3c0,-1,0,-1,0,-2l4,-2ZM112.5,210.5l-1,-1l-1,2l-1,-1l1,-2l1,1l1,-1l1,1ZM109.5,207.5l-1,0l-1,0l-1,0c0,0,-1,0,-1,0l0,-1c0,0,0,-1,0,-1l-1,0l0,1l-1,0c0,1,-1,1,-1,1c0,0,-1,0,-2,0l-1,0l-1,0c0,-1,0,-1,0,-1l0,-1l0,-1l1,0c0,0,0,1,0,1l1,0l1,0c1,0,1,0,1,0l1,0l1,0c0,0,0,-1,0,-1c0,0,0,-1,0,-1l0,-2l0,-1l0,-1l0,-1l1,2l0,1l0,2c0,1,0,1,0,1c1,0,1,1,1,1l0,1c1,0,1,0,1,0l1,0l1,0c1,0,1,0,2,-1c0,0,1,0,1,0l0,-1c0,-1,0,-1,-1,-1l1,-2l0,1c1,0,1,0,1,0c0,0,0,1,0,1c0,0,0,1,0,1l0,1l0,1c-1,0,-1,0,-1,0c0,1,-1,1,-1,1c-1,0,-1,0,-2,0ZM177.5,207.5l0,-1l0,-1l-1,-8l1,-3l1,11c0,1,-1,1,-1,1c0,1,0,1,0,1ZM169.5,206.5c0,0,1,0,1,0c0,0,1,-1,1,-1c1,0,1,0,1,-1l0,-2l-1,-6c0,-1,0,-1,0,-1l0,-1l1,0l0,1c0,0,1,0,1,0c0,0,0,1,0,1c0,0,-1,1,-1,1c0,0,0,1,0,2c0,0,0,1,0,2c0,1,1,1,1,2l0,1l-1,1l0,1l-1,1c0,0,-1,0,-1,0l-1,0l-1,0l-1,0c0,0,-1,0,-1,0c0,-1,0,-1,0,-1l-1,0c-1,1,-1,1,-2,1l-1,0l-1,0c0,1,0,1,0,1c0,1,0,1,-1,2l0,1c-1,0,-1,0,-1,1c-1,0,-1,0,-1,0c0,0,-1,0,-1,0c0,1,0,1,0,1c-1,0,-1,0,-1,0l-1,0c0,0,-1,0,-1,-1c-1,0,-1,0,-1,0l0,-1c0,1,0,1,1,1c1,0,1,0,2,0c0,-1,1,-1,1,-1c0,0,1,-1,1,-1l1,0c0,-1,0,-1,0,-1c0,0,1,-1,1,-1c0,-1,0,-1,0,-1c0,0,-1,0,-1,0l-1,0c0,0,-1,-1,-1,-1c0,-1,0,-1,0,-1c0,0,0,-1,0,-1c1,0,1,0,1,-1c0,0,1,0,1,0c0,-1,0,-1,0,-1c0,0,1,1,1,1c0,0,1,1,1,1c0,1,0,1,0,2c1,0,1,0,1,0c0,0,1,0,1,0l1,0c0,-1,0,-1,1,-1l1,0c0,0,0,-1,0,-1c0,0,1,0,1,1c0,1,1,1,1,1l1,0ZM169.5,189.5c0,0,1,0,1,0c1,0,1,0,1,0c1,0,1,0,2,0l0,1c0,0,0,1,0,1c0,0,-1,0,-1,0c0,1,-1,1,-1,1l-1,0l-1,0l2,-1c1,0,1,0,2,-1c-1,0,-1,0,-1,0c0,0,-1,0,-1,0c0,0,-1,0,-1,0c0,0,-1,0,-1,0c0,0,0,-1,0,-1ZM167.5,210.5l-2,0l0,1l-2,-1l1,-2l2,1l0,-1l2,1ZM164.5,198.5l4,-3l-1,1l-4,3ZM159.5,204.5c-1,0,-1,0,-1,0c0,1,0,1,0,1c0,0,1,0,1,0c0,0,0,1,1,1c0,0,0,-1,0,-1c0,0,-1,0,-1,-1ZM154.5,196.5c1,0,1,0,1,0c1,0,1,0,2,0c0,0,1,0,1,0c1,0,1,0,1,1c0,0,-1,1,-1,1l-1,0c0,1,0,1,0,1c-1,0,-1,0,-1,0l-1,0l1,-1c1,0,2,0,2,-1c0,0,-1,0,-1,0l-1,0c0,0,-1,0,-1,0l-1,1l0,-1l0,-1ZM152.5,205.5l-1,0c-1,0,-1,0,-1,0c-1,0,-2,0,-3,1c0,1,0,1,0,1c0,0,0,1,1,2c0,2,0,3,0,4c1,1,1,2,1,2l0,1c0,0,-1,0,-1,0c0,0,0,-1,0,-3c-1,-2,-1,-3,-1,-3c0,-1,0,-2,0,-2l0,-1c0,-1,0,-2,0,-2c0,0,0,-1,1,-1c0,0,0,-1,1,-1c0,0,1,0,1,0c1,0,1,0,1,0c0,0,-1,0,-1,0c0,-1,0,-1,-1,-1c0,1,-1,1,-1,1c0,0,0,-1,0,-1c0,0,1,0,1,0c0,-1,0,-1,0,-1c0,0,1,0,1,0c1,0,1,0,1,0c0,0,1,0,1,1l1,1c0,1,0,1,0,1ZM147.5,194.5l4,-2l0,1l-1,0l-4,2ZM231.5,198.5l-1,-1l0,-2l2,1ZM233.5,205.5l0,1c-1,1,-1,1,-2,1c-1,0,-1,0,-2,0l-1,0c-1,0,-1,0,-1,0c-1,0,-1,0,-1,0l0,-1l-1,0c0,0,-1,0,-1,0c0,1,0,1,-1,1l-1,0l-12,0c0,0,0,1,0,1c0,1,0,1,0,1c0,0,-1,0,-1,0c0,-1,0,-1,0,-1l0,-1c-1,0,-1,-1,-1,-1c-1,1,-1,1,-2,1l-1,0l-1,0l0,1c0,1,0,2,-1,2c0,1,0,1,0,1c0,0,-1,1,-1,1c0,0,-1,0,-1,1l-1,0l-1,0c-1,0,-1,0,-2,0c0,-1,0,-1,-1,-1c1,0,1,0,1,0l1,0c0,0,1,0,1,0c1,0,1,-1,2,-1c1,-1,1,-1,1,-1c0,0,0,-1,1,-1c0,-1,0,-1,0,-1c1,-1,1,-1,1,-1l-1,0l0,-1l0,-1c0,0,0,-1,0,-1c0,1,0,1,1,1l1,1l1,0l0,-1c1,0,1,0,1,0c0,0,1,0,1,0c0,-1,0,-1,0,-1l1,0c0,0,0,1,0,1c0,0,0,1,1,1l1,-1l0,-1l1,0l2,-1c0,0,1,-1,1,-1c1,0,1,0,1,-1l1,0c1,0,1,1,2,1l1,1l0,1c0,1,-1,1,-1,1l0,1l1,0l2,0c1,0,1,0,1,0c0,-1,1,-1,1,-1l1,0c0,0,0,-1,1,-1l0,1l1,0c0,1,0,1,1,1l1,0c1,0,1,0,2,-1c1,0,1,0,2,0c0,0,0,-1,0,-1l0,-1l-1,0c0,0,0,1,0,1c0,0,-1,0,-1,0l-1,0c0,-1,0,-1,0,-1c0,0,0,-1,0,-1c0,0,0,-1,0,-1l0,-1c1,-1,1,-1,2,-1l1,0c0,0,0,1,0,1l0,1l1,1c0,1,0,1,0,2c0,0,0,1,0,1l-1,0ZM230.5,201.5l1,1l1,0c0,-1,0,-1,0,-1c0,0,-1,0,-1,0ZM229.5,191.5l5,-2l-1,1l-4,2ZM225.5,211.5l-1,-1l1,-1l1,1ZM223.5,194.5l4,-2l0,1l-1,0l-4,2ZM219.5,205.5c0,-1,-1,-1,-1,-1c0,-1,-1,-1,-1,-1l-1,0c-1,0,-1,0,-1,0c-1,1,-1,1,-2,1l0,1l-2,1l1,0l1,0l1,0c1,0,1,0,1,0l1,-1l1,0l1,0l1,0ZM211.5,194.5l4,-2l0,1l-1,0l-4,2ZM202.5,191.5c1,-1,1,-1,1,-1l1,0c0,1,0,1,0,1c0,0,0,1,0,1l0,1l-1,0l1,0l0,2l-1,-1l-1,1c0,0,-1,0,-1,1l-1,0l0,-1l1,0l0,-1l1,0l0,-1c0,0,-1,0,-1,-1l1,0l0,-1ZM203.5,192.5l0,-1l-1,0l0,1l1,0l0,1l0,-1ZM197.5,206.5c0,0,0,1,-1,1l-1,0l-1,0c0,0,-1,0,-2,0c-1,0,-2,0,-2,0c-1,0,-2,0,-2,0c0,0,-1,0,-1,0c0,0,-1,0,-1,-1c0,-1,0,-1,0,-1c0,0,1,-1,1,-1l0,1c0,0,1,1,1,1c0,0,1,0,1,0l5,0c1,0,1,0,2,0c0,-1,0,-1,0,-1c0,0,0,-1,0,-1c0,-1,0,-1,0,-2l0,-1c0,-1,0,-2,0,-2c0,-2,0,-3,0,-3l0,-1c0,0,0,-1,0,-1c0,0,0,-1,1,-1c0,0,0,1,0,1c0,1,0,1,1,1l-1,1l0,1l0,-1l0,1c0,0,0,1,0,2c0,0,0,1,0,2c0,1,0,1,0,2c0,1,0,1,0,1l0,1c0,1,0,1,0,1ZM193.5,202.5c0,0,0,1,-1,1l-1,0c-1,0,-1,0,-1,0c0,0,-1,0,-1,0l1,0c0,0,1,-1,1,-1c1,0,1,0,2,0l-1,-1c-1,0,-1,0,-1,0l0,-1c0,0,0,-1,0,-1c0,0,0,-1,1,-1l1,-1l1,0l-1,1c-1,0,-1,1,-1,1c0,1,0,1,0,1c1,0,1,0,1,0l1,0c0,0,0,1,0,1c0,0,0,1,-1,1ZM189.5,191.5l4,-2c0,1,-1,1,-1,1l-4,2ZM284.5,198.5l-1,-1l1,-2l1,1ZM289.5,204.5c0,0,-1,1,-2,1c-1,1,-2,1,-3,2c-1,0,-2,0,-3,0l-1,0l-10,0l0,1c0,0,0,1,0,2c0,0,-1,-1,-1,-1c0,-1,0,-1,0,-1c0,-1,0,-1,0,-1l-1,0l-1,0c-1,0,-2,0,-2,0c-1,-1,-1,-1,-1,-2l0,-9l1,-2l0,10l0,1c1,0,1,1,2,1l1,0l1,0c0,0,1,-1,1,-1c0,0,1,-1,1,-1l0,-1l0,-2l0,-1l-1,-3l0,-2c0,0,0,-1,0,-1l2,1l-1,1l0,1l0,1l0,1l0,1l0,1l1,0l-1,2l0,1l2,-1l1,-1c1,0,1,-1,2,-1c1,0,1,0,2,1c0,0,1,0,1,1c0,1,0,1,0,1c0,0,0,1,-1,1l0,1l-1,0l2,0l1,0l1,0l0,-1c1,0,2,0,2,0c0,0,-1,-1,-1,-1c0,0,0,-1,0,-1c0,-1,0,-1,0,-1l0,-1l1,0c0,0,0,-1,0,-1l1,-1c1,0,1,0,2,0c0,0,1,0,1,0c0,1,1,1,1,1l0,1l0,-1l-1,0l-1,0l-1,0c0,0,-1,0,-1,1c0,0,-1,0,-1,0l0,1c0,0,1,1,1,1c0,1,1,1,2,1l1,0l1,0l0,-1l1,0l1,-1ZM285.5,210.5l-4,3c0,-1,0,-1,0,-2l4,-2ZM278.5,204.5l-1,-1c-1,0,-1,0,-1,0c-1,0,-2,0,-2,1l-1,0l-1,1l-1,1l1,0c1,0,1,0,1,-1c1,0,1,0,1,0c1,0,1,0,1,0c1,0,2,0,3,-1ZM269.5,191.5l4,-2l0,1l-4,2ZM262.5,191.5c0,0,1,0,2,0c0,1,1,1,1,1l1,0l0,-1l1,0c0,1,-1,1,-1,1l-1,0l0,1l-1,0c0,0,-1,0,-1,0l0,-1l-1,0l-1,0c0,0,0,-1,1,-1ZM256.5,205.5l0,-1c1,0,1,-1,1,-1l1,0l1,0l0,1l0,1l-1,0l0,-1c-1,0,-1,1,-1,1c0,1,0,1,0,1c1,0,1,0,1,0c1,0,1,0,1,0c0,0,1,0,1,0c0,0,0,1,0,1l-5,2c0,-1,0,-1,1,-1l0,-1c1,0,1,0,1,0c0,0,-1,0,-1,-1l0,-1ZM255.5,198.5l5,-3l-1,1l-4,3ZM253.5,206.5c0,0,0,1,-1,1l-1,0l-1,0c-1,0,-1,0,-2,0c-1,0,-2,0,-3,0c0,0,-1,0,-1,0l-1,0c0,0,-1,0,-1,-1c0,-1,0,-1,0,-1c0,0,1,-1,1,-1l0,1c0,0,1,1,1,1c0,0,1,0,1,0l5,0c1,0,1,0,2,0c0,-1,0,-1,0,-1c0,0,0,-1,0,-1c0,-1,0,-1,0,-2l0,-1c0,-1,0,-2,0,-2c0,-2,0,-3,0,-3l0,-1c0,0,0,-1,0,-1c0,0,0,-1,0,-1c1,0,1,0,1,0c0,0,0,1,0,1c0,1,0,1,1,1c0,0,-1,0,-1,1l0,1l0,-1l0,1c0,0,0,1,0,2c0,0,0,1,0,2c0,1,0,1,0,2c0,1,0,1,0,1l0,1c0,1,0,1,0,1ZM249.5,202.5c0,0,0,1,-1,1l-1,0c-1,0,-1,0,-1,0l-1,0l1,0c0,0,1,-1,1,-1c1,0,1,0,2,0l-1,-1l-1,0c0,0,-1,0,-1,-1c1,0,1,-1,1,-1c0,0,0,-1,1,-1l1,-1l1,0l-1,1c-1,0,-1,1,-1,1c0,1,0,1,0,1c0,0,1,0,1,0l1,0c0,0,0,1,0,1c0,0,-1,1,-1,1ZM245.5,191.5l4,-2c-1,1,-1,1,-1,1l-4,2ZM328.5,204.5c0,0,-1,1,-2,1c-1,1,-2,1,-4,2c-1,0,-2,0,-2,0l-1,0c-1,0,-1,0,-1,0c-1,0,-1,0,-1,0c0,0,0,-1,0,-1c-1,0,-1,0,-1,0c0,0,0,1,-1,1l-1,0l-1,0l-1,0c0,0,-1,0,-1,-1c0,0,0,-1,0,-2c-1,0,-1,1,-1,1c-1,1,-2,1,-2,2c-1,0,-1,0,-2,0l-1,0l-1,1c0,0,-1,0,-1,0l-1,0l-1,0l-1,0l-1,0c-1,-1,-2,-1,-2,-2c-1,0,-1,-1,-1,-2c0,-1,0,-1,0,-1c0,0,0,-1,0,-1l1,0l0,1c0,1,0,2,2,2c0,0,1,1,2,1c0,0,1,0,1,0l1,0l1,0l1,0l1,0c2,-1,4,-2,4,-3l0,-1l1,0l-1,-7l1,-2l1,11l0,1l1,0c0,1,0,1,0,1l1,0l1,-1l1,0c0,-1,0,-1,0,-1l1,0l0,1c1,1,1,1,2,1l1,0l0,-1c1,0,1,0,2,0c-1,0,-1,-1,-1,-1c0,0,0,-1,0,-1c0,-1,0,-1,0,-1l0,-1c0,0,0,-1,0,-1c1,0,1,0,1,0l0,-1c1,0,1,0,1,0c1,0,1,0,1,0c0,0,1,0,1,0l1,0c0,0,0,1,1,1l0,1l-1,-1l-1,0l-1,0c-1,0,-1,0,-1,1c-1,0,-1,0,-1,0l0,1c0,0,0,1,1,1c0,1,1,1,1,1c1,0,1,0,1,0l1,0l1,-1l1,0l1,-1ZM320.5,194.5l4,-2l0,1l-4,2ZM316.5,203.5l-2,-1l1,-2l2,1ZM304.5,202.5c0,1,-1,1,-2,1c-1,0,-1,0,-1,-1l1,0l1,0l0,-1c-1,0,-1,0,-1,0l0,-1l0,-1c1,-1,1,-2,2,-2l0,1c-1,1,-1,1,-1,1l1,1c1,0,1,0,1,1c0,1,-1,1,-1,1ZM301.5,194.5l4,-2l-1,1l-4,2ZM385.5,198.5l-2,-1l1,-2l2,1ZM387.5,205.5l0,1c0,0,-1,0,-1,0c0,1,-1,1,-2,1c0,0,-1,0,-1,0l-1,0l-1,0l-1,0c0,0,0,-1,-1,-1l-2,-2c0,0,-1,-1,-1,-1l-1,0l0,1c0,0,0,1,0,1c0,1,0,1,0,1c-1,1,-1,1,-1,1c0,0,-1,0,-1,0c0,0,-1,0,-1,0l-1,0l-1,0l-1,0c0,-1,0,-1,0,-1c0,0,0,-1,0,-1l-1,1c-1,1,-1,1,-2,1c0,0,-1,0,-1,-1c-1,1,-1,1,-2,1c-1,0,-1,0,-2,-1c-1,1,-1,1,-2,1l-1,0l-1,0l-1,0c-1,0,-1,0,-2,0l-1,0c0,0,-1,0,-1,0c-1,0,-2,0,-2,0l-1,0l-1,0l-1,0c-1,-1,-1,-1,-1,-1c-1,0,-1,0,-1,0c0,1,-1,1,-1,1c-1,0,-1,0,-1,0l-1,0l-1,0c-1,0,-2,0,-2,0c-1,-1,-1,-1,-1,-2l0,-9l0,-2l1,10l0,1c1,0,1,1,2,1l1,0c1,0,1,0,1,0c1,-1,2,-1,2,-1l1,0c0,0,0,-1,0,-1c1,0,1,0,1,1c1,1,1,1,1,1l1,0l1,0c1,0,1,0,1,0c0,0,0,-1,0,-1c0,0,1,0,1,0l0,-1c0,0,0,-1,0,-1c0,-1,0,-1,1,-2c1,-1,1,-1,2,-1c0,0,1,0,1,1l0,1l0,1c0,0,0,1,0,1c0,1,-1,1,-1,1l1,0l0,1c0,0,1,0,1,0l1,0l1,0l1,-1c1,0,1,-1,2,-1l0,1l1,1c0,0,1,-1,1,-1c1,0,1,0,1,-1l1,-1l0,1l0,1c0,0,1,0,1,0c0,0,1,0,1,0l0,-1c0,0,1,0,1,-1c0,2,1,3,2,3l1,0c1,0,1,0,1,0c0,0,0,-1,1,-1l1,0c0,-1,0,-1,0,-1c0,0,0,-1,0,-1c-1,0,-1,0,-1,-1c-1,-1,-1,-1,-1,-1c-1,0,-1,0,-1,0c0,0,-1,0,-1,0l0,-1c0,0,-1,0,-1,0l0,-1c0,0,0,-1,0,-1c0,-1,0,-1,0,-1c0,0,1,0,1,0c0,-1,1,-1,3,-2c1,0,3,-1,4,-2c2,0,3,0,3,0c0,0,0,-1,0,-1l1,0l-1,2l-1,0c0,0,-1,0,-2,1c-2,1,-3,1,-4,1c-2,1,-3,2,-3,2l1,1l1,0l0,1l1,0c1,0,1,1,2,1c0,1,1,1,2,2c0,0,1,0,1,1l2,1l0,1l1,0l1,0c0,0,1,0,2,-1c0,0,1,0,1,0c0,0,1,-1,1,-1l0,-1l-1,0c0,0,0,1,0,1c-1,0,-1,0,-1,0c-1,0,-1,0,-1,0c-1,-1,-1,-1,-1,-1c0,0,0,-1,0,-1c0,0,0,-1,0,-1l1,-1c0,-1,1,-1,1,-1c1,0,1,0,1,0c0,0,1,1,1,1l0,1l0,1c0,1,1,1,1,2c0,0,-1,1,-1,1ZM384.5,201.5l0,1l1,0c0,0,1,0,1,0c0,-1,0,-1,0,-1l-1,0c0,0,-1,0,-1,0ZM383.5,191.5l4,-2l0,1l-4,2ZM372.5,191.5l4,-2l0,1l-4,2ZM364.5,199.5l-1,-1l0,-1l2,1ZM366.5,202.5l-2,-1l-1,1l-1,-1l1,-1l1,0l1,-1l1,1ZM359.5,194.5l5,-2l-1,1l-4,2ZM354.5,199.5l-1,-1l1,-1l1,1ZM354.5,202.5c0,0,-1,0,-1,0c0,0,0,1,-1,1c0,0,1,0,1,1l1,0c0,0,1,0,1,0l0,-1l0,-1c0,0,-1,0,-1,0ZM349.5,189.5c1,0,1,0,1,0c1,0,1,0,2,0c0,0,1,0,1,0c0,0,1,0,1,1c-1,0,-1,1,-1,1l-1,0c0,1,0,1,0,1c-1,0,-1,0,-1,0l-1,0l1,-1c1,0,1,0,2,-1c0,0,-1,0,-1,0l-1,0c0,0,-1,0,-1,0l-1,0c0,0,0,-1,0,-1ZM343.5,198.5l4,-3l0,1l-4,3Z" class="g1_59" />
<path fill-rule="evenodd" d="M186.5,399.5c0,0,-1,0,-1,0c0,0,-1,0,-1,0l-1,0l0,-1l0,-1c0,0,0,-1,0,-1l0,-1c0,0,1,0,1,0c0,-1,0,-1,1,-1l-1,0l-1,0c0,0,0,-1,0,-1l1,0l1,0c1,0,1,0,1,0c1,0,1,0,1,0l0,1l-1,0l-1,0l-1,0l0,1c0,0,-1,1,-1,1l0,1c1,1,1,1,1,1c1,0,1,0,1,0c0,0,0,1,1,1l1,0l1,-1l0,1ZM209.5,364.5l0,-1l0,-1l0,-8l1,-3l0,11l0,1c0,1,0,1,-1,1ZM202.5,363.5l1,0c1,-1,1,-1,1,-1l0,-1l0,-2l0,-6l0,-1l0,-1c1,0,1,0,1,0c0,0,0,1,0,1l1,0c0,1,-1,1,-1,1c0,1,0,1,0,1c0,0,0,1,0,2c0,0,0,1,0,3l0,1l0,1c0,0,0,1,0,1c0,0,0,1,0,1c-1,0,-1,1,-1,1c0,0,-1,0,-1,0l-1,0l-1,0l0,1l0,1c-1,0,-1,1,-1,2l-1,0c0,1,0,1,0,1c-1,0,-1,1,-1,1c-1,0,-1,0,-1,0c-1,0,-1,0,-1,0l-1,0c0,0,-1,0,-1,0c-1,0,-1,-1,-1,-1l1,0c1,0,1,0,2,0c0,0,1,0,1,-1c0,0,1,0,1,0c0,-1,0,-1,1,-1c0,0,0,-1,0,-1c0,0,1,-1,1,-1c0,-1,0,-1,0,-1l-1,0c0,-1,0,-1,0,-1l0,-1c1,0,1,0,1,0l0,-1l0,1l1,1l1,0ZM197.5,353.5l0,1c0,0,1,0,1,0l0,-1l0,-1l0,1l1,0l0,1c0,0,1,-1,1,-1l0,-1c0,1,0,1,0,1l0,1l-1,1l0,-1l-1,0l0,1c0,0,-1,0,-1,0l-1,0l0,-1l1,-1ZM201.5,350.5l-6,3c1,-1,1,-1,1,-1l5,-3ZM193.5,362.5l-1,0l-1,0c-1,0,-1,0,-2,0l-1,0l-1,0l0,1l-1,0c-1,0,-1,0,-1,1c-1,0,-1,0,-2,0c0,0,-1,0,-2,0l-1,0l-1,0c-1,0,-1,0,-1,-1c0,0,-1,1,-1,1c0,0,-1,0,-1,0l-1,0c-1,0,-1,0,-2,0c-1,0,-1,1,-1,1l-1,0l-1,0c-1,-1,-1,-1,-1,-1l-1,0l0,1c0,0,-1,1,-1,1c-1,1,-1,1,-2,1c-1,0,-3,0,-4,0l4,-2l2,0c0,-1,1,-1,1,-1l1,-2c0,-1,0,-1,1,-1c0,0,0,-1,0,-1l1,0c0,0,1,0,1,1c1,1,1,1,1,1c1,0,1,1,1,1c0,0,1,0,1,0l1,0c1,0,1,-1,1,-1c0,0,1,0,1,0c0,-1,0,-1,0,-1c0,1,0,1,0,1c0,0,1,0,1,1c1,0,1,0,1,0l1,0c0,0,1,0,1,0c0,0,1,0,2,-1l1,0l1,-1l1,0l-1,0l-1,-1l-1,0l-1,0l-1,0c0,0,0,-1,0,-1c1,0,1,0,1,-1c0,0,1,0,1,0l1,0l1,1l2,1l1,0l1,0l1,0c0,0,1,0,1,0l1,0ZM185.5,368.5l-4,2c0,-1,1,-1,1,-1l4,-2ZM179.5,368.5l-1,-1l-1,1l-1,-1l0,-1l2,1l1,-2l1,1ZM171.5,363.5l0,-1l-1,0l-1,0c0,0,1,1,1,1l1,0ZM170.5,370.5l-4,2c0,0,1,-1,1,-1l4,-2ZM259.5,364.5l0,-1l0,-1l-1,-8l1,-3l1,11l0,1c-1,1,-1,1,-1,1ZM251.5,363.5c1,0,1,0,1,0c0,0,1,0,1,0c0,-1,0,-1,1,-1l0,-1l0,-2l-1,-6l0,-1l0,-1c0,0,1,0,1,0c0,0,0,1,0,1c0,0,1,0,1,0c0,1,0,1,0,1c0,1,0,1,-1,1c0,0,0,1,0,2c0,0,0,1,1,3l0,1l0,1c0,0,0,1,0,1l-1,0c0,0,0,1,0,1c0,0,0,1,0,1c-1,0,-1,0,-1,0l-1,0l-1,0c0,0,-1,0,-1,0l0,1l0,1c0,0,0,1,-1,2c0,1,-1,1,-1,1c0,0,-1,1,-1,1c0,0,-1,0,-1,0c0,0,-1,0,-1,0c-1,0,-1,0,-2,0c0,0,0,-1,-1,-1c1,0,1,0,1,0l1,0c0,0,1,0,1,0c1,0,1,0,1,-1c1,0,1,0,1,0c0,-1,1,-1,1,-1c0,0,0,-1,1,-1c0,0,0,-1,0,-1c0,-1,0,-1,0,-1c0,-1,0,-1,0,-1l0,-1l0,-1l0,1l1,0l0,1l1,0ZM246.5,353.5l0,1c0,0,1,0,1,0l0,-1l1,-1l0,1l1,1c0,0,0,-1,0,-1l0,-1c0,1,0,1,0,1l0,1l0,1l-1,0l0,-1l0,1l-1,0c-1,0,-1,0,-1,0l0,-1l0,-1ZM250.5,350.5l-5,3c0,-1,0,-1,0,-1l6,-3ZM233.5,359.5c1,0,1,0,1,0l1,-1l1,0c0,0,1,0,1,0c0,0,1,0,1,1l-1,-1l-1,-1l-1,0c0,0,-1,0,-1,0c-1,0,-1,0,-1,0c0,-1,1,-1,1,-1c0,-1,1,-1,1,-1c1,0,2,0,3,1l2,1l0,1l1,0l1,1l1,0l1,0l1,0l-1,2l-2,-1l-1,0l-2,0l-1,-1c-1,0,-2,0,-2,0l-1,0l-1,0c0,0,0,1,0,1c0,0,1,0,1,1l0,1c0,1,0,1,0,1c0,0,-1,1,-1,1l-1,0c0,0,-1,0,-1,-1l-1,0c0,1,-1,1,-1,1l-1,0l-1,0l-1,0c0,1,0,1,0,1c0,0,0,1,0,1c0,1,0,2,-1,2c0,1,0,1,-1,2c0,0,-1,1,-2,1c-1,0,-1,0,-2,0c-1,0,-1,0,-2,0c-1,0,-1,0,-1,-1c-1,0,-1,0,-1,-1c-1,0,-1,-1,-1,-1c0,-1,0,-1,0,-1c0,0,0,-1,0,-1c0,0,1,0,1,-1l0,-1c0,0,1,0,1,0l0,1c-1,0,-1,0,-1,0c0,1,0,1,0,1l0,1c0,0,0,1,0,1c1,0,1,0,1,1l1,0c1,0,1,0,2,0c1,0,2,0,3,0c0,0,1,-1,1,-1c1,0,1,0,1,0c0,-1,0,-1,0,-1l0,-1c0,-1,0,-1,0,-1c0,0,-1,-1,-1,-1l0,-1l1,-1c0,1,1,1,1,1l1,0l1,0c1,0,1,0,1,0l1,-1l0,-1c1,0,1,-1,1,-1l1,-1ZM233.5,350.5c0,0,1,0,1,0c1,0,1,-1,2,-1c0,0,1,1,1,1c0,0,1,0,1,0l-1,1l0,1c0,0,-1,0,-1,0l-1,0l-1,0l-1,0l2,0c1,0,1,-1,2,-1c-1,0,-1,0,-1,0c0,0,-1,0,-1,0c0,0,-1,0,-1,0c0,0,-1,0,-1,0l0,-1ZM232.5,362.5l1,0l1,0c0,-1,0,-1,0,-1c-1,0,-1,0,-1,0c0,0,-1,0,-1,0c0,0,0,1,0,1ZM228.5,357.5l0,-1c0,0,0,-1,0,-1c0,-1,0,-2,0,-2l0,-1c0,0,1,1,1,1c0,0,0,1,0,1l0,1l0,1c0,0,0,1,-1,1ZM222.5,362.5l-2,-1l1,-1l2,1ZM224.5,375.5l-4,2c0,-1,0,-1,1,-1l4,-2ZM283.5,364.5l0,-1l0,-1l0,-8l1,-3l0,11l0,1c0,1,-1,1,-1,1ZM279.5,364.5c-1,0,-1,0,-1,0c0,0,-1,0,-1,0c-1,-1,-1,-1,-1,-2c0,0,0,1,-1,2c0,0,-1,0,-2,0c0,0,-1,0,-1,0c-1,-1,-1,-1,-1,-3l0,1c0,1,-1,1,-1,1c0,0,-1,0,-2,0c0,0,-1,0,-1,0c0,-1,0,-1,0,-1c0,0,0,-1,0,-1c0,0,0,-1,1,-1c0,0,1,0,1,-1l1,0l1,-1l0,-1c0,0,0,-1,0,-1l0,1l1,1l0,3l0,1c1,0,1,0,2,0l1,0c0,0,0,-1,0,-1c0,0,0,-1,0,-2c0,-1,0,-1,0,-2l0,-1l0,-1l0,-1l1,3l0,2l0,1c0,0,0,1,0,1c1,0,1,0,1,0c0,1,0,1,1,1l1,0l0,-1l0,-1l0,-1l-1,-1l0,-2l1,0l0,-1l0,-1c0,1,0,1,0,2l0,1l1,2c0,1,0,1,0,2c0,0,0,1,0,1c0,1,-1,1,-1,2ZM271.5,359.5l-1,1c-1,0,-1,0,-1,0c0,1,-1,1,-1,1c1,0,2,0,2,0c0,0,1,0,1,0ZM318.5,369.5l-2,-1l1,-2l2,1ZM316.5,363.5l1,0l0,-1c0,0,0,-1,0,-1c0,-1,0,-1,-1,-1l0,-1l-1,0c0,-1,0,-1,0,-1c0,-1,1,-1,1,-1l1,1l0,1l1,0l0,1c0,1,0,1,0,1l0,1l0,1l-1,1l-1,0l-1,0l-1,0c-1,0,-1,-1,-1,-1l0,-1l0,1c0,0,-1,0,-1,1c0,0,-1,0,-1,0c-1,0,-1,0,-2,-1l0,1c-1,0,-1,0,-2,0c-1,0,-1,0,-2,-1l0,1c-1,0,-1,0,-2,0l-1,0c0,0,-1,0,-1,0c-1,0,-1,0,-1,0c0,0,0,1,-1,1c0,0,-1,0,-2,0c0,-1,-1,-1,-1,-1l-1,1c0,0,0,1,-1,1c0,1,-1,1,-2,1c-1,0,-2,0,-4,0l5,-2l1,0c1,-1,1,-1,2,-1l0,-2c1,-1,1,-1,1,-1c0,0,0,-1,1,-1c1,0,1,0,1,1c1,1,1,1,2,1c0,0,0,1,0,1c1,0,1,0,1,0l1,0l1,0l0,-1c1,0,1,0,2,-1c0,0,0,1,0,1c0,0,1,1,1,1c1,0,1,0,2,-1l1,-1c0,0,0,1,0,1c0,0,1,0,1,0c1,0,1,0,1,0l1,-1c1,1,1,2,2,2l1,0ZM318.5,371.5l-4,1c0,0,1,0,1,-1l3,-1ZM174.5,353.5c0,-1,1,-1,1,-1c0,0,1,0,1,0c1,0,1,0,2,0c0,0,0,1,0,1c0,1,0,1,0,1c-1,0,-1,1,-1,1c-1,0,-1,0,-1,0c0,0,-1,0,-1,0c0,0,-1,0,-1,0l2,-1c1,0,1,0,1,0c0,-1,0,-1,0,-1c-1,0,-1,0,-1,0c-1,0,-1,0,-1,0c-1,0,-1,1,-1,1l0,-1ZM306.5,354.5c1,-1,1,-1,1,-1c1,0,1,0,2,0c0,0,1,0,1,0c0,0,1,1,1,1l-1,0c0,0,0,1,0,1c0,0,-1,0,-1,1l-1,0l-1,0l-1,0l2,-1c1,0,1,0,2,-1c-1,0,-1,0,-1,0c0,0,-1,0,-1,0c0,0,-1,0,-1,0c0,0,-1,1,-1,1l0,-1ZM299.5,363.5l0,-1l-1,0l-1,0c0,0,0,1,1,1ZM271.5,368.5l-4,2c0,0,0,-1,0,-1l4,-2ZM298.5,370.5l-4,2c0,0,0,-1,0,-1l4,-2ZM191.5,388.5c0,0,0,1,0,1c-1,0,-1,0,-2,0c0,1,-1,1,-1,1l-1,0l-1,0l0,-1c-1,0,-1,0,-1,0c0,0,0,1,0,1c0,0,0,-1,-1,-1c0,0,0,-1,0,-1l-1,1l-1,1l1,0c1,0,1,0,1,0l1,0l1,0c0,0,1,0,2,0c0,0,1,0,1,0l2,0c0,1,-1,1,-1,1l-1,0c0,0,-1,0,-1,0c0,0,-1,0,-1,0l-1,0l-2,0l-2,0l-1,0c0,-1,0,-1,0,-1l2,-1l0,-1c0,0,1,0,1,-1l-1,-2l1,-1l0,4c0,1,1,1,1,1c1,0,1,-1,1,-1c0,0,0,1,0,1c1,0,1,0,1,0c0,-1,1,-1,2,-1c0,-1,1,-1,1,-1c0,0,1,0,1,0c0,0,0,1,0,1ZM190.5,388.5c-1,0,-1,0,-2,0c0,0,0,1,0,1l1,0c1,0,1,0,1,-1ZM139.5,413.5l0,-1l0,-1l0,-9l1,-2l0,11c0,1,0,1,0,1c0,1,0,1,-1,1ZM138.5,397.5l5,-2l-1,1l-4,2ZM136.5,412.5l-1,1c-1,0,-1,0,-2,0l-1,0l-1,0l-1,0l0,-1l0,-1c0,0,1,0,1,0c1,0,1,0,2,0c0,0,1,0,1,0c0,0,1,0,1,0c0,0,0,-1,1,-1l-1,-1c0,0,0,-1,0,-1l-1,0l-1,-1l-1,0l0,-1l0,-1c1,0,1,0,1,0l1,0c0,0,0,1,1,1c0,0,1,1,1,1c0,1,0,1,0,2l0,1c1,0,1,0,1,0c0,0,-1,1,-1,1c0,0,0,1,0,1ZM129.5,399.5c0,0,1,-1,1,-1c1,0,1,0,1,0c1,0,1,0,2,0c0,1,0,1,0,1c0,1,0,1,0,1c0,0,-1,1,-1,1c0,0,-1,0,-1,0l-1,0l-1,0l2,0c1,-1,1,-1,2,-1c-1,0,-1,-1,-1,-1c0,0,-1,0,-1,0c0,0,-1,0,-1,1c0,0,-1,0,-1,0c0,-1,0,-1,0,-1ZM120.5,416.5l1,0c1,0,2,0,3,0c0,-1,1,-1,1,-1c1,-1,1,-1,1,-2c1,0,1,-1,1,-1l0,-1l0,-1l-1,0l0,-1l0,-1l0,-1l1,1c0,0,0,1,0,1l0,1l1,0l0,1c0,1,0,1,-1,2c0,1,0,1,0,1c0,1,0,1,-1,1c0,1,0,1,0,1c-1,0,-1,0,-1,1l-1,0l-1,0l-1,0c0,0,-1,0,-1,0c0,0,-1,0,-1,0ZM116.5,413.5l-1,0l-1,0l-1,-1c0,0,0,-1,0,-2c-1,0,-1,1,-1,1c-1,1,-1,1,-2,2c-1,0,-1,0,-2,0l-1,0l-1,0c0,1,0,1,-1,1l-1,0l-1,0c-1,0,-1,0,-1,0l-1,0c-1,-1,-2,-1,-2,-2c-1,0,-1,-1,-1,-2l0,-1c0,0,0,-1,1,-1l0,-1l0,1l0,1c0,1,0,2,2,2c0,0,1,0,2,1c0,0,1,0,1,0l1,0l1,0l1,0l1,-1c2,0,4,-1,5,-2l0,-1l-1,-7l1,-2l1,11l0,1l1,0l1,0l1,0l1,0c1,0,1,0,1,0c0,-1,0,-1,0,-1c0,-1,0,-1,-1,-1l1,-2c0,1,0,1,1,1l0,1l0,1c0,1,0,1,0,1c0,1,-1,1,-1,1c0,0,0,1,-1,1c-1,0,-1,0,-2,0ZM106.5,408.5c0,1,-1,1,-1,1c-1,0,-1,0,-1,0c-1,0,-1,-1,-1,-1l1,0l1,0c0,0,1,-1,1,-1l-1,0c-1,0,-1,0,-1,0c0,0,0,-1,0,-1l0,-1c1,-1,1,-2,2,-2l0,1c-1,0,-1,1,-1,1l1,0c1,1,1,1,1,2c0,0,0,1,-1,1ZM103.5,400.5l4,-2l0,1l-1,0l-4,2ZM166.5,409.5c0,0,0,1,0,1c1,0,1,0,1,0c0,0,0,-1,0,-1l-1,0ZM166.5,417.5c0,0,-1,1,-1,1c0,0,-1,0,-2,0c0,0,-1,0,-2,-1l1,0c0,0,1,0,1,0l1,0c0,-1,1,-1,1,-1c0,0,1,0,1,-1l1,0c0,-1,0,-1,0,-2c1,0,1,-1,1,-1c0,0,-1,0,-1,0c0,0,-1,0,-1,0l-1,0c0,0,0,-1,0,-1c0,0,0,-1,0,-1c0,-1,0,-1,0,-2c1,0,1,0,1,-1l1,0c1,0,1,1,1,1c0,0,0,1,0,1c0,0,1,1,1,1c0,0,0,1,0,1c0,1,0,1,0,1c-1,1,-1,2,-1,3c0,0,-1,1,-1,1c0,0,0,1,-1,1ZM164.5,403.5l4,-2l-1,1l-4,2ZM160.5,413.5c0,0,-1,0,-1,0l-1,-1l-1,0l-1,0c0,0,0,1,0,1l-1,0l-1,0l-1,0c-1,0,-2,0,-2,-1c-1,0,-1,-1,-1,-1l-1,-9l1,-2l1,10l0,1c1,0,1,0,2,0l1,0l1,0c0,0,1,0,1,0l1,-1c0,-1,0,-1,1,-2c0,0,1,0,1,0l1,0c0,1,0,1,0,2l0,1l1,0c0,0,-1,0,-1,0c0,0,0,1,0,1l0,1ZM158.5,410.5l0,1l1,0l0,-1c0,0,0,-1,-1,-1c0,0,0,1,0,1ZM155.5,400.5l4,-2l0,1l-4,2ZM147.5,397.5l1,0c0,0,1,0,2,0c0,0,1,1,1,1l0,-1l1,0l1,0c-1,1,-1,1,-2,1l-1,0l-1,0l-1,0l-1,0l-1,0c1,0,1,-1,1,-1ZM195.5,411.5c0,0,0,1,0,2l0,1l-1,0l0,1l1,0l-1,1l-1,0l0,1l-1,0c0,0,0,1,-1,1l-1,0l-1,1c0,0,-1,0,-1,0l-1,1l0,1c0,0,-1,0,-1,0l-1,0c0,0,-1,0,-1,-1l-1,-1l-1,0c0,0,-1,-1,-2,-1l-1,0l0,-1l-1,0l0,-1l-1,0l-1,-1l1,0l0,-1l-1,-1l0,-1c0,0,0,-1,0,-1l0,-1c0,-1,0,-1,0,-1c0,0,0,-1,0,-1c1,0,1,-1,1,-1l-1,-1l1,-1l1,0l0,-1l1,0l1,-1l1,0l1,-1c1,0,1,0,1,0l1,-1c0,-1,1,-1,1,-1l1,0l1,1l1,1l1,0l1,1l1,0c1,0,1,1,1,1l1,0l0,1c1,0,2,0,2,1l-1,1l1,0l0,1l0,1l0,1ZM186.5,421.5l1,-1l0,-1l1,0l1,0c0,-1,0,-1,1,-1l1,0c0,0,1,-1,1,-1l1,0l0,-1l1,0l0,-1l1,0l-2,0l1,-1l0,-1l1,0l0,-1l0,-1c0,-1,0,-2,0,-3l-1,0l0,-1l-1,0l0,-1l1,0l1,0c-1,0,-1,-1,-2,-1l0,-1l-1,0l-1,0l-1,-1l-2,0c0,-1,0,-1,0,-1l-1,-1c-1,0,-1,-1,-1,-1l-1,0l0,1l-1,0l-1,1l0,1l-2,0l-1,1l-1,0l-1,1c0,0,-1,0,-1,1l1,0l0,1l-1,0l0,1l-1,1l0,1l0,1l0,1l0,1l1,0c0,0,0,1,0,1l1,1l-1,0l0,1l1,0l0,1l1,0l1,1l1,0l1,1c1,0,1,0,2,0l0,1c1,0,1,1,1,1ZM192.5,406.5l-1,0l-1,-1l-1,0l-1,0c1,-1,1,-1,1,-1l1,0c1,0,1,1,1,1l1,0l0,1ZM192.5,416.5l-1,0l0,1l-1,0l-1,0l0,1l0,-1l1,0l0,-1c1,0,1,0,1,-1l1,0ZM188.5,418.5c0,0,-1,0,-1,0c0,1,0,1,-1,1l-1,0c-1,0,-1,0,-1,-1c0,-1,0,-1,0,-1c0,0,0,-1,1,-1l1,0c1,0,1,0,1,0l0,1l1,0ZM188.5,404.5c0,0,-1,0,-1,1l-1,0l-1,0c-1,0,-1,0,-1,0l0,-1c0,-1,0,-1,0,-1l0,-1l1,0l1,0c1,0,1,1,1,1l1,1ZM186.5,406.5c1,0,1,0,1,0c0,0,1,0,1,0c0,0,1,0,1,0c0,0,1,0,1,1l1,0l1,0l0,1l1,0l0,1l0,1l0,1c0,1,0,1,0,1l0,1l-1,0l0,1l-1,0l-1,0l0,1l-1,0l-1,0l-1,0l-1,0l-1,0l-1,0l-1,0c0,0,-1,0,-1,0c0,0,-1,0,-1,-1l-1,0l-1,0l-1,-2l0,-1c0,-1,0,-1,0,-1c0,-1,0,-1,0,-1l0,-1l1,0l0,-1l2,0l1,-1c0,0,1,0,1,0c1,0,1,0,1,0l1,0ZM186.5,415.5l1,0l1,0c1,0,1,0,1,0l1,0l0,-1l1,0l1,0l0,-1l1,-1l0,-1c0,-1,0,-1,0,-2c-1,-1,-1,-1,-1,-1c0,0,0,-1,0,-1l-1,1c-1,0,-1,0,-1,-1l-1,-1l-1,0c0,0,-1,0,-1,0l-1,0l0,1l-1,0l0,-1l-1,0l-1,0l-1,0l0,1l-1,0c0,0,0,1,0,1l-1,-1c-1,0,-1,0,-1,1l0,1l-1,1l0,1l0,1l1,0l0,1c0,0,0,1,0,1l2,0l1,1l1,0c1,0,1,0,1,0l1,0l1,0ZM185.5,409.5l1,0l0,1l0,1l0,1c0,1,0,1,0,1l0,-1c0,-1,-1,-2,-1,-2ZM179.5,406.5l1,-1l1,-1l1,0l1,0l-1,0c0,0,0,1,1,1c-1,0,-1,0,-1,0l-1,0l-1,0l0,1l-1,0ZM179.5,416.5l0,-1l1,0c0,0,0,1,1,1l1,1l1,0c-1,0,-1,0,-1,0l0,1l0,-1c-1,0,-2,0,-2,-1l-1,0ZM238.5,413.5l0,-1l0,-1l-1,-9l1,-2l1,11c0,1,0,1,-1,1c0,1,0,1,0,1ZM230.5,411.5c0,0,1,0,1,0c0,0,1,0,1,0c1,0,1,-1,1,-1l0,-2l-1,-6l0,-1c0,0,0,-1,0,-1c0,0,1,0,1,-1l0,1c0,1,1,1,1,1c0,0,0,1,0,1l-1,1c0,0,0,1,0,2c0,0,0,1,1,2c0,1,0,1,0,2l0,1l0,1c0,0,-1,0,-1,0l0,1c-1,1,-1,1,-1,1l-1,0l-1,0l-1,0l-1,0c-1,0,-1,0,-2,0c0,0,-1,0,-1,-1c0,1,-1,1,-2,1c0,0,-1,0,-2,0l-2,0c-1,0,-1,0,-1,0l0,-1l-1,0c0,0,0,-1,0,-1l0,1l-1,0c0,1,-1,1,-1,1c-1,0,-1,0,-2,0l-1,0c0,0,-1,0,-1,0c0,-1,0,-1,0,-1l0,-1c0,0,0,-1,0,-1l1,1l1,0l1,0c1,0,1,0,1,0l1,0l0,-1c0,0,1,0,1,0c0,0,0,-1,0,-1l-1,-2l0,-1l1,-1l0,-1l0,1c1,1,1,1,1,2l0,2c0,1,0,1,0,1c0,1,0,1,1,1l2,0c1,0,1,0,1,0c0,0,1,0,1,0l1,0c-1,0,-1,0,-1,0l0,-1c0,0,0,-1,1,-2c0,0,0,-1,0,-1c0,0,1,0,1,0c0,-1,1,-1,1,-1c1,0,1,0,1,1c1,0,1,0,1,1l0,1c0,0,0,1,-1,1c0,1,0,1,0,1c0,0,1,0,1,0l1,0ZM230.5,395.5c0,0,1,0,1,0c1,0,1,0,1,0c1,0,1,0,2,0c0,1,0,1,0,1l0,1c0,0,-1,0,-1,0l-1,0c0,1,0,1,-1,1l-1,-1l2,0c1,0,1,-1,2,-1c-1,0,-1,0,-1,0c0,0,-1,0,-1,0c0,0,-1,0,-1,0c0,0,-1,0,-1,0c0,-1,0,-1,0,-1ZM226.5,405.5l-1,-1l-1,1l-1,-1l1,-1l1,1l1,-2l1,1ZM226.5,408.5c0,0,-1,0,-1,0c-1,0,-1,1,-1,1l0,1c1,0,1,0,1,0c1,0,1,0,1,0c1,0,1,0,1,-1l0,-1c-1,0,-1,0,-1,0ZM222.5,397.5l4,-2l0,1l-5,2ZM213.5,398.5c0,0,1,0,1,-1c1,0,1,0,1,0c1,0,1,0,2,1c0,1,0,1,0,1c0,1,-1,1,-1,1c0,0,-1,0,-1,0l-1,0l-1,0l2,0c1,-1,1,-1,2,-1c-1,0,-1,0,-1,0c0,0,-1,-1,-1,-1c0,0,-1,1,-1,1c0,0,-1,0,-1,0c0,0,0,-1,0,-1ZM200.5,416.5c0,0,1,0,1,0c1,0,2,0,3,0c1,-1,1,-1,1,-1c1,-1,1,-1,2,-2c0,0,0,-1,0,-1l0,-1l0,-1l-1,-1l0,-1l1,-1l0,1c0,0,0,1,1,1l0,1l0,1c0,1,0,1,0,2c-1,1,-1,1,-1,1c0,1,0,1,0,1c-1,1,-1,1,-1,1c0,0,-1,0,-1,1l-1,0c-1,0,-1,0,-1,0l-1,0c-1,0,-1,0,-1,0l-1,0ZM206.5,421.5l-4,2c0,-1,1,-1,1,-1l4,-2ZM265.5,411.5c1,0,1,0,1,0c0,0,1,0,1,0l1,0c0,0,0,-1,0,-1l0,-2l-1,-6l0,-1c0,0,0,-1,0,-1c0,0,1,0,1,-1l0,1c0,1,1,1,1,1c0,0,0,1,0,1l0,1l-1,0c0,0,0,1,0,2c0,0,1,1,1,2c0,1,0,1,0,2l0,1l0,1c0,0,-1,0,-1,1c0,1,-1,1,-1,1l-1,0l-1,0l-1,0c-1,0,-1,0,-1,0c-1,-1,-1,-1,-1,-1c-1,0,-1,0,-1,0c0,1,-1,1,-1,1c0,0,-1,0,-1,0c-1,0,-1,0,-2,0c0,0,0,-1,0,-1c0,0,-1,0,-1,1c0,1,0,1,0,1c0,0,-1,1,-1,1c-1,0,-1,0,-2,-1l-1,-1l0,-1c0,-1,0,-1,0,-1c0,0,-1,0,-1,-1l0,1c-1,0,-1,0,-1,0l-1,1c-1,0,-1,0,-1,-1l-1,0l0,-1c0,0,0,-1,1,-1c0,-1,1,-1,1,-1c0,0,1,0,1,-1c1,0,1,0,1,0l0,-1l0,-1c1,1,1,1,1,1c0,0,0,1,0,2c0,0,0,1,0,1c0,1,0,1,0,1c0,0,0,1,0,1c0,0,1,0,1,0c0,0,0,1,0,1c0,1,1,1,1,1c0,0,1,0,1,0l0,-1c0,0,0,-1,0,-2c0,0,0,-1,0,-2c0,0,0,-1,0,-1c0,-1,0,-2,0,-3c0,-1,0,-2,0,-3l1,-2l0,11c0,0,1,0,1,1c0,0,1,0,1,0l1,0c0,0,1,0,1,0c0,0,1,0,1,0l1,0c0,-1,0,-1,0,-1l1,0c0,1,0,1,0,1c1,0,1,0,1,0l1,0ZM266.5,397.5l4,-2l0,1l-4,2ZM263.5,416.5l-1,-1l-1,2l-2,-1l1,-2l2,1l0,-1l2,1ZM259.5,395.5l1,0c0,0,1,0,1,0c1,0,1,0,2,0c0,1,0,1,0,1l0,1c-1,0,-1,0,-1,0c-1,0,-1,0,-1,0c0,1,-1,1,-1,1c0,0,-1,0,-1,-1l2,0c0,0,1,-1,1,-1c-1,0,-1,0,-1,0c-1,0,-1,0,-2,0c0,-1,0,-1,0,-1ZM254.5,397.5l4,-2l-1,1l-4,2ZM250.5,404.5l-1,-1l-1,1l-1,-1l1,-1l1,1l1,-1l1,1ZM251.5,408.5l-1,0l0,1l-1,0l-1,1l1,0l1,0c1,0,1,0,1,-1ZM252.5,416.5l-5,2c1,0,1,-1,1,-1l4,-2ZM286.5,404.5l-1,-1l1,-1l1,0ZM288.5,410.5l-1,0c0,1,0,1,-1,1l-1,0c0,-1,0,-1,0,-1c0,0,0,-1,0,-1c0,-1,0,-1,0,-1l0,-1c0,0,0,-1,0,-1c1,0,1,-1,2,-1c0,0,0,1,1,1c0,0,0,1,1,1l0,1l0,1l0,1l0,1c0,1,0,1,0,1c0,1,-1,1,-1,1l1,0c0,0,0,1,0,1c0,0,1,0,1,0l0,1l0,1c-1,0,-1,0,-1,0l0,1c0,0,-1,0,-1,1c-1,0,-2,0,-3,1c0,0,-1,0,-2,0c0,0,-1,0,-1,0c0,0,-1,0,-1,0c-1,-1,-2,-1,-2,-1c0,0,-1,-1,-1,-1c0,-1,0,-1,0,-1c0,0,0,-1,0,-1c0,0,0,-1,0,-2c1,-1,1,-1,1,-2c1,0,1,0,1,0c0,1,-1,1,-1,2c0,1,0,1,0,1c0,0,0,1,0,1c0,1,0,1,1,1c1,1,2,1,3,1c1,0,1,0,1,0c1,0,1,0,1,0c1,0,2,-1,3,-1l1,-1c-1,0,-1,0,-2,0c-1,0,-1,0,-1,-1c-1,0,-1,0,-1,0c0,0,0,-1,1,-1c0,0,1,-1,1,-1c1,0,1,0,1,0c0,0,0,-1,0,-1l0,-1ZM286.5,408.5l1,0c0,0,0,-1,0,-1l-1,0l0,1ZM289.5,419.5l-3,2c0,0,0,-1,0,-1l4,-2ZM329.5,413.5l0,-1l0,-1l0,-9l1,-2l0,11c0,1,0,1,0,1c0,1,0,1,-1,1ZM327.5,398.5l4,-2c0,1,0,1,0,1l-4,2ZM323.5,406.5l-2,-1l1,-1l2,1ZM322.5,413.5l-1,0l-1,0l0,1c0,1,0,2,-1,2c0,0,0,1,0,1c0,0,-1,0,-1,1c0,0,-1,0,-1,0c0,1,0,1,-1,1l-1,0c-1,0,-1,0,-2,-1l-1,0l1,0l1,0c0,0,1,0,1,0c1,0,1,-1,2,-1l0,-1c1,0,1,0,1,0c0,-1,0,-1,1,-1c0,-1,0,-1,0,-2c1,0,1,0,1,0l-1,0c0,-1,0,-1,0,-1l0,-1l0,-1c0,1,0,1,1,1l1,0l1,0c1,0,1,0,2,0c0,0,1,0,1,0c0,-1,0,-1,0,-1c0,-1,-1,-1,-1,-1l1,-2c0,1,0,1,0,1c0,0,1,0,1,1l0,1c0,1,0,1,0,1c0,0,-1,0,-1,0c0,1,0,1,0,1c0,0,-1,1,-1,1c-1,0,-1,0,-2,0ZM319.5,408.5l-1,-1l1,-1l1,1ZM316.5,400.5l4,-2l-1,1l-4,2ZM309.5,411.5c0,0,1,0,1,0l1,0c0,0,1,-1,1,-1l-1,-2l0,-6l0,-1c0,0,0,-1,0,-1l1,-1l0,1c0,1,0,1,1,1c0,0,0,1,-1,1l0,1c0,0,0,1,0,2c0,0,0,1,0,2c0,1,0,1,0,2l0,1l0,1l0,1c0,0,-1,0,-1,0c0,1,0,1,0,1c0,0,-1,0,-1,0l-1,0c-1,0,-1,0,-1,0c-1,0,-1,0,-1,0c0,-1,-1,-1,-1,-1l-1,1l-1,0l-1,0c-1,0,-1,0,-1,-1l-1,0c0,-1,0,-1,0,-1l0,-1l0,1c0,0,-1,0,-1,0l-1,1c-1,0,-1,0,-2,-1l0,-1c0,0,0,-1,1,-1c0,-1,1,-1,2,-2c0,0,1,0,1,0l-1,-1l1,0l0,-1l0,1c0,0,0,1,1,1c0,0,0,1,0,1l0,2c0,0,0,1,0,1l1,0c0,0,1,0,1,0l1,0c1,0,1,0,1,-1l1,0l0,1c1,0,1,0,2,0ZM309.5,395.5c0,0,1,0,1,0c0,0,1,0,1,0c1,0,1,0,2,0c0,1,0,1,0,1l0,1c-1,0,-1,0,-1,0c-1,0,-1,0,-1,0c0,1,-1,1,-1,1c0,0,-1,0,-1,-1l2,0c1,0,1,-1,1,-1c-1,0,-1,0,-1,0c-1,0,-1,0,-1,0c-1,0,-1,0,-1,0c0,-1,0,-1,0,-1ZM305.5,409.5l-1,-1l1,-2l1,1ZM124.5,402.5c0,-1,0,-1,0,-2c0,-1,0,-1,-1,-2l1,0l0,1c1,0,1,0,1,0l0,1l0,1c-1,1,-1,1,-1,1ZM305.5,401.5c0,-1,0,-1,0,-2c0,0,0,-1,-1,-1l0,-1l1,0l0,1l1,1c0,1,0,1,0,1l-1,1ZM301.5,408.5l-1,0l-1,1c0,0,-1,0,-1,1l1,0l1,0c0,0,1,-1,1,-1ZM298.5,397.5l1,-1c1,0,1,0,1,0c0,0,0,1,0,1c0,0,0,1,0,1c0,1,0,1,0,1l0,1l-1,0l-1,1l-1,0l0,1l-1,0l0,-1l1,0l1,-1l0,-1l0,-1l0,-1ZM299.5,398.5l0,-1c0,0,-1,0,-1,1l1,0ZM352.5,413.5l0,-1l0,-1l0,-9l1,-2l0,11c0,1,0,1,0,1c0,1,-1,1,-1,1ZM355.5,416.5l-4,2c1,-1,1,-1,1,-1l4,-2ZM346.5,406.5l-2,-1l1,-1l2,1ZM345.5,413.5l-1,0l-1,0c-1,0,-2,0,-2,-1c-1,0,-1,-1,-1,-1l0,-9l1,-2l0,10l0,1c1,0,1,0,2,0l1,0l1,0c1,0,1,0,2,0c0,0,1,0,1,0c0,-1,0,-1,0,-1c-1,-1,-1,-1,-1,-1l1,-2c0,1,0,1,0,1l0,1c0,0,1,0,1,0l0,1c0,1,0,1,-1,1c0,1,0,1,0,1c0,0,-1,1,-1,1c-1,0,-1,0,-2,0ZM344.5,396.5l0,1c1,0,1,-1,1,-1l0,-1l0,1l1,0l0,-1l1,0l0,-1l0,1l0,1c0,1,-1,1,-1,1c-1,0,-1,0,-1,0c-1,1,-1,1,-1,1l-1,0c0,-1,0,-1,0,-1l0,-1ZM348.5,393.5l-6,3c0,-1,1,-2,1,-2l5,-2ZM338.5,397.5c0,0,1,0,2,0c0,0,1,1,1,1l1,-1l1,0c0,1,-1,1,-1,1l-1,0l-1,0c0,0,-1,0,-1,0l-1,0l-1,0c0,0,0,-1,1,-1ZM281.5,493.5l1,0c0,-1,0,-1,1,-1c0,0,1,1,1,1c1,0,1,0,1,0l0,1l-1,0c0,1,0,1,0,1c0,0,-1,0,-1,0c-1,0,-1,0,-1,0l-1,0l2,0c0,0,1,-1,1,-1l-1,0c-1,0,-1,0,-2,0l-1,0l1,-1ZM248.5,496.5c1,0,1,0,1,0c1,0,1,0,2,0c0,0,1,0,1,0c0,0,1,0,1,1c-1,0,-1,1,-1,1l-1,0c0,1,0,1,0,1c-1,0,-1,0,-1,0l-1,0l1,-1c1,0,1,0,2,-1c0,0,-1,0,-1,0l-1,0c0,0,-1,0,-1,0l-1,1l0,-1l0,-1ZM168.5,497.5l1,-1l1,0c0,0,1,0,1,1c1,0,1,0,1,0c0,1,-1,1,-1,1c0,1,0,1,0,1c-1,0,-1,0,-1,0c-1,0,-1,0,-1,0l-1,0l1,0c1,-1,2,-1,2,-1c0,0,-1,0,-1,0l-1,0l-1,0l-1,0c0,0,0,-1,0,-1l1,0ZM132.5,495.5c1,0,1,0,1,0c1,0,1,0,2,0c0,0,1,0,1,0c0,0,1,0,1,0c0,0,0,1,-1,1l0,1c0,0,-1,0,-1,0l-1,0c0,1,0,1,-1,1l0,-1l1,0c1,0,1,-1,2,-1c-1,0,-1,0,-1,0c0,0,-1,0,-1,0c0,0,-1,0,-1,0c0,0,-1,0,-1,0c0,-1,0,-1,0,-1ZM343.5,490.5l1,0c0,-1,-1,-1,-1,-2c0,0,0,-1,0,-1l0,-1c1,0,1,0,1,1l0,1c0,1,0,1,0,1l0,1l-1,0ZM70.5,503.5c0,1,0,2,0,3l-1,0l0,1l1,1l-1,0l0,1l-1,0l0,1l-1,0c0,0,0,1,-1,1l-1,0l-1,0l0,1c-1,0,-1,0,-1,0l-1,1l0,1c-1,0,-1,0,-1,0l-3,0l0,-1l-1,-1c0,0,-1,0,-1,0c-1,-1,-2,-1,-2,-1l-1,0l0,-1l-1,0l-1,-1l-1,-1l1,-1l-1,0l0,-1l-1,-1c0,-1,0,-1,0,-1l0,-1l0,-1c0,0,1,-1,1,-1c0,-1,0,-1,0,-1l1,-1l-1,0l0,-1l1,0l0,-1l1,0l1,-1l1,0l2,-1l1,0l1,-1c0,-1,0,-1,0,-1l3,0l1,1l1,1l1,0l1,1l1,0c1,0,1,0,1,1l1,0l0,1c1,0,2,0,2,1l-1,0l0,1l1,1l0,1l0,1ZM61.5,514.5l0,-1l1,0l0,-1l1,0l0,-1c1,0,1,0,2,0l1,0c0,-1,1,-1,1,-1l1,-1l1,0l0,-1l-1,0l0,-1l1,0l0,-1l1,0l0,-1l0,-1l0,-1c0,0,0,-1,0,-2c0,0,-1,0,-1,0l0,-1l-1,-1l2,0c-1,-1,-1,-1,-2,-1l0,-1l-1,0l-1,-1l-1,0l-2,-1l-1,-1l-1,-1l-1,0l-2,0l0,1l-1,1c0,0,-1,0,-1,0l-2,1l-1,0l0,1l-1,0l-1,1c0,0,-1,0,-1,1l1,0l0,1l-1,1l0,1l0,1l0,1l0,1l0,1l1,1l0,1l-1,0l1,1l1,0l0,1l1,0l1,1l1,0l1,0c0,1,1,1,1,1l1,1c0,0,0,1,0,1ZM67.5,499.5l-1,0l0,-1l-1,0l-1,0l0,-1l-1,0c1,0,1,0,1,0l-1,0c1,0,1,0,1,0l1,0c1,0,1,0,1,0c0,1,0,1,0,1l1,0ZM67.5,508.5l0,1l-1,0l0,1l-1,0l-1,0l-1,0c1,0,1,-1,1,-1l1,0c1,0,1,-1,1,-1l1,0ZM62.5,510.5c0,1,0,1,0,1c0,1,0,1,-1,1l-3,0l-1,-1l0,-1c0,-1,1,-1,1,-1l3,0c0,0,1,0,1,0l0,1ZM62.5,496.5c0,1,0,1,0,1c0,0,0,1,-1,1l-3,0l-1,-1l0,-1l1,-1l3,0c1,0,1,0,1,1ZM61.5,499.5c0,0,1,0,1,0c0,0,1,0,1,0c0,0,1,0,1,0l1,1l2,0l0,1l1,0l0,1l0,1l0,1c0,1,0,1,0,1l0,1l-1,0l0,1l-1,0c0,0,-1,0,-1,0l0,1l-1,0l-1,0l-1,0l-1,0l-3,0c-1,0,-1,0,-1,0c-1,0,-1,0,-2,0l-1,-1l-1,0l-1,0l0,-2l0,-1l0,-1c0,-1,0,-1,0,-1l0,-1l0,-1c1,0,1,0,1,0l1,0l1,0l0,-1c1,0,1,0,2,0l1,0ZM61.5,507.5l0,1l1,0l1,0c0,0,1,0,1,0l1,-1c0,0,0,-1,0,-1l2,1l0,-1l0,-1l1,-1l0,-1c0,0,0,-1,-1,-1c0,-1,0,-1,0,-1c0,-1,0,-1,0,-1l-2,0l-1,-1l-1,0c0,0,-1,0,-1,0l-1,0l-3,0l-1,0c-1,0,-1,0,-1,0l-1,0l0,1l-1,0l-1,0l-1,1l0,1l0,1l0,1l0,1c0,1,1,2,1,2l1,-1c0,0,0,1,0,1l1,0l0,1l1,0l1,0c1,0,1,0,1,0l0,-1l3,0ZM60.5,502.5c-1,0,-1,1,-1,1c1,0,1,0,1,1l-1,1l1,0l1,0l0,1c-1,0,-1,0,-2,0c0,0,-1,0,-1,-1l1,0l0,-1l-1,0l0,-1l1,0l0,-1l1,0ZM53.5,499.5l0,-1l1,0l0,-1l1,0l1,0c0,0,-1,0,-1,1l-1,0l-1,1ZM52.5,508.5l1,0c0,0,1,1,1,1l1,0l1,1l-1,0c-1,0,-1,0,-2,-1l0,-1ZM94.5,506.5l0,-1l0,-1l-1,-9l1,-2l1,11c0,0,0,1,-1,1c0,0,0,1,0,1ZM93.5,489.5l4,-2l0,1l-1,0l-4,2ZM82.5,506.5c1,-1,2,-2,3,-2c0,-1,1,-1,2,-1l0,-2l1,0l1,0c0,1,1,1,2,1l-1,2c-1,0,-2,0,-2,0c-1,0,-1,0,-1,1c-1,0,-2,0,-2,0c0,0,-1,0,-1,1l-1,0l0,1l-1,0l0,1l-1,1l-1,1l-1,1l-1,0l0,1l-1,0l-1,0l0,-1c-1,0,-1,0,-1,0l0,-1l0,-1l0,-1l1,-1c0,0,0,-1,0,-1c0,0,1,0,1,0l0,1c-1,0,-1,0,-1,1c0,0,0,1,0,1c0,0,0,1,0,1c0,0,1,0,1,0c0,0,1,0,2,-1l0,-1l1,-1l1,0c0,-1,0,-1,1,-1ZM84.5,495.5l1,0c0,0,1,0,1,0c1,0,1,0,1,0c1,0,1,0,1,0c0,0,0,1,0,1l-1,1l-1,0c0,1,-1,1,-1,1l-1,0l0,-1l2,0c0,0,1,-1,1,-1l-1,0c-1,0,-1,0,-2,0c0,-1,0,-1,0,-1ZM74.5,518.5l5,-3c0,0,0,1,0,1l-5,3ZM76.5,514.5l5,-2c0,1,0,1,0,1l-5,3ZM124.5,493.5c0,0,-1,0,-2,1c-2,0,-3,1,-4,1c-1,1,-2,1,-3,1c0,1,0,1,0,1l0,1l2,1c1,0,1,1,2,1c0,1,0,1,0,2c1,0,1,1,1,1c0,0,0,1,-1,1c0,1,0,1,0,1c0,0,-1,0,-1,1c0,0,-1,0,-1,0c0,0,-1,0,-1,0l-1,0c-1,0,-1,0,-1,0c-1,-1,-1,-1,-1,-2l0,1l0,1c0,1,0,2,-1,2c0,1,0,1,-1,2c-1,0,-1,0,-1,1c-1,0,-1,0,-2,0c0,0,-1,0,-1,0l-1,0c-1,0,-1,0,-1,0c0,0,-1,0,-1,-1c-1,0,-1,-1,-1,-1c0,0,0,-1,0,-1c0,-1,0,-1,0,-2c0,0,0,-1,1,-1l0,-1l0,-1l1,1l-1,0l0,1c0,1,0,1,0,2c0,0,0,1,0,1c1,1,2,1,2,1c1,0,1,0,1,0c1,0,2,0,3,0c1,-1,1,-1,2,-2l0,-1l0,-3l0,-1c0,0,0,-1,0,-1l-1,-7l1,-2l1,10c0,1,0,1,0,1l0,1c1,0,1,0,1,0c0,0,1,0,1,0l1,0l1,0c1,0,1,0,1,0c1,0,1,0,1,0c0,-1,0,-1,0,-1c0,0,0,-1,0,-1c-1,0,-1,-1,-2,-2l-1,0c0,0,-1,0,-1,0c0,0,0,-1,0,-1c0,0,-1,0,-1,0c0,0,0,-1,0,-1l0,-1l0,-1c0,0,1,0,1,0l0,-1c1,0,2,-1,3,-1c2,-1,3,-1,4,-2c1,0,2,0,2,0ZM118.5,487.5c1,-1,1,-1,1,-1c0,0,1,-1,1,-1c0,1,0,1,0,1c1,0,1,0,1,1l0,1l-1,0l1,1l0,1l-1,-1l-1,1c-1,1,-1,1,-1,1l-1,0l-1,0l1,0l1,-1l0,-1l1,0c-1,-1,-1,-1,-1,-1l0,-1ZM120.5,487.5l-1,0l0,1l1,0l0,-1ZM107.5,488.5l0,1c1,0,1,0,1,0l0,-1c0,0,0,1,1,1l0,-1l1,-1l0,1l0,1c0,0,-1,1,-1,1c-1,0,-1,0,-1,0c-1,0,-1,1,-1,1c0,0,-1,-1,-1,-1l0,-1l0,-1ZM110.5,514.5l-5,2c1,-1,1,-1,1,-1l4,-2ZM146.5,505.5c0,1,0,1,0,1l-1,0l0,-1c0,0,-1,0,-1,0l-1,-1l0,1l-1,1l-1,0l-2,0c0,1,0,1,0,1c0,1,0,1,0,1c0,1,0,1,0,2c-1,0,-1,1,-2,1c0,1,-1,1,-2,1c0,1,-1,1,-2,1c0,0,-1,0,-2,0c0,-1,-1,-1,-1,-1c0,0,-1,-1,-1,-1c0,-1,0,-1,0,-2c0,0,0,-1,0,-1l0,-1l0,-1c0,0,1,0,1,0c0,-1,0,-1,0,-1c0,1,0,1,0,1c0,1,0,1,0,1l-1,0c0,1,0,1,0,1c0,1,1,1,1,1c0,1,0,1,0,1c1,0,1,0,1,0c0,1,0,1,0,1c1,0,2,0,3,0c0,0,1,0,2,0c1,-1,1,-1,2,-1c0,-1,0,-1,0,-1l0,-1l0,-1l0,-1l-1,-1l1,-2c0,0,0,1,0,1c1,0,1,0,1,0l2,0c1,0,1,0,1,0l1,0l1,-1c0,-1,0,-1,0,-2l1,0l1,0c1,1,1,1,1,1l0,1l0,1l0,1l-1,0ZM144.5,503.5l1,0l1,1c0,0,0,-1,0,-1c0,-1,-1,-1,-1,-1l-1,1ZM142.5,492.5c1,1,1,1,1,1l0,-1l1,0l0,-1l0,1l1,0l0,-1l0,-1l1,0l0,1l0,1l-1,0c0,1,0,1,0,1l-1,0c-1,1,-1,1,-1,1c-1,0,-1,0,-1,0c0,-1,0,-1,0,-1l0,-1ZM145.5,509.5l-4,2c1,0,1,-1,1,-1l4,-2ZM134.5,504.5l-1,-1l0,-2l2,1ZM184.5,509.5l1,0l1,0c1,0,2,0,3,-1l1,-1c0,0,1,-1,1,-1c0,0,0,-1,0,-1c1,0,1,-1,1,-1l-1,0l0,-1l0,-1c0,0,-1,0,-1,0l1,-1l0,-1l1,1c0,0,0,1,0,1l0,1l0,1c0,1,0,1,0,2c0,1,0,1,0,1c-1,0,-1,1,-1,1c0,0,0,1,-1,1l-1,1c0,0,-1,0,-1,0c0,0,-1,0,-1,0c-1,0,-1,0,-1,0c-1,0,-1,0,-1,-1ZM187.5,496.5l4,-2l0,1l-4,2ZM184.5,509.5l-1,-1l0,-1l2,1ZM180.5,506.5l1,-1c0,-1,1,-1,1,-1l1,0l1,0c1,0,1,0,1,0l0,1l0,1l-1,0l0,-1l-1,0c-1,0,-1,0,-1,0l-1,0l1,0c-1,1,-1,1,-1,1c0,0,0,1,0,1l0,1c0,0,0,1,0,1l0,1l0,1c-1,0,-1,1,-1,1c0,0,0,-1,0,-1c-1,0,-1,0,-1,0l0,-1c0,-1,0,-2,0,-2c0,-1,0,-2,0,-2c-1,0,-1,0,-1,0l-2,0l-2,0c0,0,-1,0,-1,0c0,0,-1,-1,-1,-1l0,1l0,1c0,1,0,1,-1,1l-1,-1c0,0,0,-1,0,-1l0,-1c-1,0,-1,0,-1,0l-1,0l0,1l-1,0c0,1,0,1,0,1l0,1c0,1,0,1,0,1l1,2l0,2c0,1,0,1,0,1l0,1l0,1l0,-1l0,-1l-1,-1l0,-3l0,-1l0,-1l0,-2c0,-1,0,-1,1,-2l1,-1l1,0l0,-1c1,1,2,1,3,2l1,0l2,0l2,0c0,0,1,0,1,0l1,0c0,0,0,-1,0,-1c1,0,1,0,1,0l0,1l-1,1c0,0,-1,1,-1,2c0,1,1,2,1,2c0,0,0,-1,0,-1c0,0,0,-1,0,-1c0,-1,0,-1,0,-1ZM182.5,495.5c1,1,1,1,1,1c0,-1,0,-1,0,-1l1,-1l0,1l1,0l0,-1l0,-1l1,1l0,1l-1,0c0,1,0,1,0,1l-1,0c-1,1,-1,1,-1,1c-1,0,-1,0,-1,0c0,-1,0,-1,0,-1l0,-1ZM185.5,514.5l-4,2c0,-1,1,-1,1,-1l4,-2ZM181.5,514.5l-4,2c0,-1,1,-1,1,-1l4,-2ZM229.5,510.5l-1,-1l0,-2l2,1ZM226.5,506.5l-1,0l-1,0c0,0,-1,0,-2,-1c0,0,0,-1,0,-2l-1,-8l1,-2l1,9l0,1l0,1c0,0,1,0,1,0l1,0l1,0c1,0,1,0,2,0c0,0,1,0,1,0c0,0,0,-1,0,-1l0,-1l-1,-1l1,-1l0,1l1,0l0,1l0,1c0,0,0,1,0,1c-1,0,-1,1,-1,1c0,0,-1,1,-1,1c-1,0,-1,0,-2,0ZM228.5,512.5l-4,2c0,-1,1,-1,1,-1l3,-2ZM223.5,512.5l-4,2c0,-1,0,-1,0,-1l4,-2ZM215.5,495.5l-2,-1l1,-1l1,1ZM219.5,505.5l-1,0l-1,0c0,1,-1,1,-1,1l-1,0l-1,0l-1,0c0,0,-1,0,-1,0l0,-1l0,-1l1,0l1,0c0,0,1,0,1,0c1,0,1,0,1,0c1,0,1,0,1,0c1,-1,1,-1,1,-1c0,0,0,-1,0,-1c0,0,-1,-1,-1,-1l0,-1l-1,0l-1,0l0,-1l-1,0l1,-2l1,1c1,0,1,0,1,1l1,0c0,0,0,1,0,1c1,1,1,1,1,2c0,1,0,1,0,1c0,0,0,1,0,1l0,1ZM212.5,488.5l1,0c0,-1,0,-1,1,-1c0,0,1,1,1,1c1,0,1,0,1,0l0,1c0,0,-1,0,-1,1c-1,0,-1,0,-1,0c-1,0,-1,0,-1,0l-1,0l1,0c1,0,2,-1,2,-1l-1,0l-1,0l-1,0l-1,0l0,-1c0,0,1,0,1,0ZM205.5,500.5l-2,-1l1,-2l2,1ZM205.5,509.5c-1,0,-2,0,-2,0c-1,0,-1,0,-1,-1c-1,0,-1,0,-1,-1c-1,0,-1,-1,-1,-2l0,-1c0,0,0,-1,1,-1c0,-1,0,-1,0,-1c0,0,1,0,1,-1l0,1l0,1c-1,0,-1,0,-1,0c0,0,0,1,0,1c0,1,0,1,0,1l0,1c1,0,1,0,1,0c0,1,0,1,1,1c1,0,1,0,2,0c1,0,1,0,2,0c1,0,1,-1,2,-1c0,0,0,-1,0,-1c0,-1,0,-1,0,-1c0,-1,0,-1,0,-1c0,0,0,-1,0,-1l-1,-1l0,-1l0,-2c1,0,1,1,1,1c0,1,0,1,0,1c1,0,1,1,1,1l0,1l0,1c0,0,0,1,0,1c0,1,0,1,0,2c-1,1,-1,1,-2,2c0,0,-1,0,-1,1c-1,0,-2,0,-2,0ZM207.5,514.5l-4,2c0,-1,0,-1,0,-1l4,-2ZM256.5,496.5l-1,-1l1,-1l1,1ZM258.5,504.5c0,1,0,1,0,1c-1,0,-1,1,-2,1c-1,0,-1,0,-2,0l-1,0l-1,0c0,0,-1,0,-1,0c0,-1,0,-1,0,-1c0,0,-1,0,-1,0c0,0,-1,0,-1,0c-1,0,-1,0,-1,0c0,1,0,1,0,1l-1,0c0,0,0,1,0,1l0,1c0,0,0,1,0,1l1,1l-1,1c0,0,0,1,-1,1c0,0,0,-1,0,-1l-1,-1c0,-1,0,-2,0,-2c0,-1,0,-2,1,-2c-1,0,-2,0,-2,0l-1,0l-1,0c-1,0,-2,0,-2,-1c-1,0,-1,-1,-1,-2l0,-8l0,-2l1,9l0,1l0,1c1,0,1,0,2,0l1,0l1,0c1,0,1,0,2,0l1,0c0,0,0,-1,0,-1l0,1l0,1c-1,0,-1,1,-1,2c0,1,0,2,1,2c-1,0,-1,-1,-1,-1c0,0,0,-1,0,-1c0,0,1,0,1,0c0,-1,0,-1,0,-1l0,-1c0,0,1,0,1,0c0,-1,0,-1,0,-1c1,0,1,0,1,0l1,-1c0,0,1,0,1,1c0,0,1,0,1,0l1,0l1,0c1,0,1,0,2,0c1,0,1,0,2,-1c0,-1,0,-1,0,-1l-1,0l0,1c0,0,-1,0,-1,0l-1,0c0,-1,0,-1,0,-1c0,0,0,-1,0,-1c0,0,0,-1,0,-1l0,-1c0,0,0,-1,0,-1c1,0,1,-1,2,-1c0,0,0,1,1,1l0,1l0,1l1,0l0,1c0,1,0,1,0,1c0,1,0,1,0,2l-1,0ZM255.5,500.5l1,0l0,1l1,0c0,0,0,-1,0,-1c0,-1,0,-1,-1,-1l0,1ZM258.5,509.5l-4,2c0,0,1,-1,1,-1l4,-2ZM252.5,509.5l-1,-1l-1,2l-1,-1l0,-2l2,1l1,-1l1,1ZM241.5,496.5l5,-2l-1,1l-4,2ZM308.5,502.5c0,0,-1,0,-1,0l0,1l1,0c0,-1,0,-1,0,-1ZM308.5,510.5c0,0,-1,0,-1,0l-1,0c0,1,-1,1,-1,1l-1,0c0,0,-1,0,-1,-1c0,0,-1,0,-1,0c0,0,1,0,1,0c1,0,1,0,1,0c1,0,1,0,1,0l0,-1c1,0,1,0,1,0c1,0,1,0,1,-1c1,0,1,0,1,-1l1,-1c0,0,0,-1,0,-1c0,0,0,-1,0,-1l0,1l-1,0c-1,0,-1,0,-1,0l-1,0c0,-1,0,-1,0,-1c0,-1,0,-1,0,-1c0,0,0,-1,0,-1c0,0,1,-1,1,-1c0,0,0,-1,0,-1c1,0,1,0,1,0c0,0,1,0,1,0c0,0,0,1,0,1c1,0,1,1,1,1l0,1c0,0,0,1,0,1c0,0,0,1,0,1c0,1,0,2,-1,3l0,1c-1,0,-1,0,-1,1ZM305.5,496.5l4,-2l0,1l-4,2ZM301.5,506.5l0,-1l0,-1l-1,-9l1,-2l1,11c0,0,0,1,0,1c-1,0,-1,1,-1,1ZM293.5,504.5c1,0,1,0,1,0c1,0,1,0,1,0c0,0,1,0,1,0c0,0,0,-1,0,-1l0,-2l-1,-6c0,0,0,-1,0,-1c0,0,0,-1,0,-1c1,0,1,-1,1,-1l0,1c0,0,1,1,1,1l0,1l0,1l0,-1c0,0,0,1,-1,1c0,0,1,1,1,2l0,2c0,1,0,1,0,1l0,1c0,1,0,1,0,1c0,0,0,1,0,1l-1,0c0,1,0,1,0,1c0,0,-1,1,-1,1l-1,0l-1,0c0,0,0,1,-1,1c0,1,0,1,0,2c0,0,-1,1,-1,1l-1,1l-1,0l-1,1l-1,0c0,0,-1,-1,-2,-1c0,0,0,-1,0,-1c0,1,0,1,1,1c1,0,1,0,2,-1l1,0c0,0,0,-1,1,-1l0,-1c1,0,1,0,1,0c0,-1,0,-1,1,-2l-1,-1l0,-1c0,-1,0,-1,0,-1l1,0c0,0,0,1,0,1c0,0,1,0,1,0ZM290.5,497.5l-1,0l1,1l1,-1l0,-1l0,1c1,0,1,0,1,0l0,-1l1,0l0,1l0,1c0,0,-1,0,-1,0l-1,0l0,1c-1,0,-1,0,-1,0c0,0,-1,0,-1,0c0,0,0,-1,0,-1l0,-1ZM291.5,492.5c0,-1,0,-1,0,-1c1,0,1,-1,1,-1c1,1,1,1,1,1l0,1l0,1l0,2l-1,-1l-1,1c0,1,0,1,-1,1c0,0,-1,0,-1,0c1,-1,2,-1,2,-2l0,-1l0,-1ZM292.5,492.5c-1,0,-1,0,-1,0l1,1l0,-1ZM283.5,502.5l0,1c0,0,1,0,1,0c0,-1,0,-1,0,-1c0,0,-1,0,-1,0ZM283.5,510.5c0,0,-1,0,-1,0c0,1,-1,1,-2,1c0,0,-1,0,-2,-1l1,0c0,0,1,0,1,0l1,0l0,-1c0,0,1,0,1,0c0,0,1,0,1,-1l1,-1l0,-1c1,0,1,-1,1,-1c0,0,0,-1,0,-1l0,1c-1,0,-1,0,-1,0c0,0,-1,0,-1,0l-1,0c0,-1,0,-1,0,-1c0,-1,0,-1,0,-1c0,0,0,-1,0,-1c0,0,0,-1,0,-1c1,0,1,-1,1,-1l1,0c1,0,1,1,1,1c0,0,0,1,0,1l1,1c0,0,0,1,0,1c0,0,0,1,0,1c-1,1,-1,2,-1,3c0,0,-1,0,-1,1l-1,1ZM275.5,516.5l-1,0l-1,0c0,0,-1,0,-1,0c-1,0,-1,-1,-2,-1c0,0,-1,0,-2,-1l0,-1c-1,0,-1,0,-1,-1l0,-1l0,-1c0,-1,0,-2,0,-2c0,-1,0,-2,1,-2c0,-1,1,-2,1,-2c1,-1,2,-1,3,-2l-1,0l-1,0l-1,0l-1,0l-1,0l1,-1l0,-1l1,0c0,0,1,0,1,0l1,0l2,0c1,1,1,1,2,1c1,0,2,0,2,0l1,0l-1,1l-1,0c-1,0,-1,0,-1,0l-1,0l-1,0c0,0,-1,1,-1,1c0,0,-1,0,-1,0l-1,1c-1,1,-1,1,-1,1c-1,1,-1,1,-1,2c0,1,0,1,0,2c0,0,0,1,0,1c0,0,0,1,0,1c0,0,1,1,1,1l1,1l1,0c0,1,1,1,2,1l1,0l2,0c1,0,1,0,1,0l1,0l1,0l1,0ZM271.5,490.5l1,-1l1,0c0,0,0,1,0,1l0,1c0,0,0,1,0,1l0,1l-1,0l-1,1l-1,0l0,1l-1,0c0,0,0,-1,0,-1l1,0c0,-1,0,-1,1,-1l0,-1l1,0l-1,0c0,0,0,-1,0,-1c0,0,0,-1,0,-1ZM272.5,490.5l-1,0c0,0,1,1,1,1ZM366.5,506.5l0,-1l0,-1l0,-9l1,-2l0,11c0,0,0,1,0,1c0,0,0,1,-1,1ZM359.5,504.5l1,0c1,0,1,0,1,0c0,0,0,-1,0,-1l0,-2l0,-6c0,0,0,-1,0,-1c0,0,0,-1,0,-1c0,0,0,-1,0,-1c1,0,1,0,1,0l0,1c0,0,-1,0,-1,0c0,0,1,0,1,0c0,0,0,1,1,1c0,0,-1,0,-1,1l0,1l0,-1c0,0,0,1,0,1c0,0,0,1,0,2l0,2c0,1,0,1,0,1l0,1c0,1,0,1,0,1c0,0,0,1,0,1c0,1,0,1,0,1c-1,0,-1,0,-1,0c0,0,0,1,0,1c-1,0,-1,0,-1,0c0,0,-1,0,-1,0l-1,0c-1,0,-1,0,-2,-1l-1,0c0,1,0,1,0,1l-1,0l-1,0l-1,0l-1,-1l-1,0c-1,1,-1,1,-1,1l-1,0l-1,0c0,0,-1,0,-1,0c-1,-1,-1,-1,-1,-2c0,1,0,1,-1,1c0,1,-1,1,-1,1l-1,0c-1,0,-1,0,-1,0c0,0,-1,0,-1,0c0,0,0,-1,0,-1c0,0,-1,0,-1,0c-1,0,-1,0,-1,0c0,0,-1,1,-1,1l-1,0l-1,0c0,0,-1,0,-1,-1l-1,0l-2,-2c-1,-1,-1,-1,-1,-1l-1,-1c0,0,0,1,0,1l0,1c0,1,0,1,0,1c0,0,0,1,-1,1l0,1c0,0,-1,0,-1,0c0,0,-1,0,-1,0l-1,0c-1,0,-1,0,-1,0c-1,0,-1,0,-1,-1c-1,0,-1,0,-1,-1c0,0,0,-1,0,-1l0,1c-1,0,-1,0,-1,0l-1,0l-1,0l-1,0l0,-1c0,-1,0,-1,1,-2c0,0,1,0,1,-1c1,0,1,0,1,0l0,-1l1,-1l0,1l0,1c0,0,0,1,1,1l0,2l0,1c1,0,1,0,1,0c0,0,1,0,1,0l1,0c0,0,1,0,1,0l1,0l0,-1c1,0,1,0,1,0c0,-1,0,-1,-1,-1c0,-1,0,-1,0,-1l-1,-1l-1,0c0,-1,0,-1,-1,-1c-1,0,-1,0,-1,0c0,-1,0,-1,0,-1c0,-1,0,-1,0,-1c0,-1,0,-1,0,-1l0,-1c1,0,1,0,1,0c0,0,1,-1,3,-1c1,-1,2,-1,4,-2c2,0,2,-1,3,-1l1,0l-1,2c0,0,-1,0,-1,0c0,0,-1,0,-2,1c-2,0,-3,1,-4,1c-2,1,-3,1,-3,1c0,1,0,1,0,1l-1,0l2,0c0,1,0,1,1,1l1,1c1,0,1,1,2,1c0,0,1,1,1,1c1,1,1,1,2,2l2,1l1,0c0,0,1,0,1,0c0,0,1,0,1,0c1,0,1,-1,1,-1c0,0,1,0,1,0l0,1l1,0l1,0l1,0c1,0,1,0,2,-1c0,0,0,-1,0,-1l0,-1l-1,-7l1,-2l1,11c0,0,0,1,0,1l1,0l1,0l1,0l1,0c0,0,0,-1,1,-1c1,-2,2,-2,2,-2l1,1l1,1l1,0l0,1c0,0,1,0,1,0l1,0l1,0ZM359.5,488.5l1,0c0,-1,1,-1,1,-1c1,0,1,1,2,1l0,1l-1,1l-1,0c0,0,-1,0,-1,0c-1,0,-1,0,-1,0l2,0c0,0,1,-1,1,-1c-1,0,-1,0,-1,0c-1,0,-1,0,-2,0l0,-1ZM355.5,504.5l-1,-1l-1,-1l0,1l-1,0c0,0,0,1,1,1l1,0ZM351.5,493.5l4,-2l0,1l-1,0l-4,2ZM347.5,484.5c-1,0,-2,0,-3,0l-1,0l-1,0c-1,0,-1,1,-1,1l-1,0c0,0,0,-1,1,-1l1,-1c1,1,2,1,2,1l1,0l1,0l0,-1l1,0ZM337.5,509.5l1,-1l1,-1l1,0l0,1l0,1l0,-1l-1,0c0,0,-1,0,-1,1l1,0l0,1c1,0,1,0,1,0l1,0l0,-1l0,1l-4,2l0,-1l1,0c0,0,0,-1,0,-1c0,0,-1,0,-1,-1ZM341.5,514.5l-4,2c0,-1,0,-1,0,-1l4,-2ZM326.5,490.5l4,-2c0,1,0,1,0,1l-4,2ZM321.5,497.5l-1,-1l-1,1l-2,-1l1,-1l2,1l0,-1l2,0ZM322.5,501.5l-1,0l-1,0l0,1c-1,0,-1,0,-1,0l1,0l1,0l1,0ZM319.5,487.5c0,-1,0,-1,0,-1c1,0,1,-1,1,-1c0,1,0,1,1,1l0,1l0,1l-1,0l1,1l0,1l-1,-1l0,1l-1,0c0,1,-1,1,-1,1l-1,0l1,-1l1,-1c0,-1,-1,-1,-1,-1l1,-1ZM320.5,487.5l-1,0l1,1l0,-1ZM402.5,498.5l-1,-1l-1,1l-1,-1l1,-1l1,0l1,-1l1,1ZM400.5,506.5l-1,0c-1,0,-1,0,-1,0c-1,0,-1,0,-1,0c0,-1,0,-1,-1,-1c0,0,0,-1,0,-1l0,-1c-1,0,-1,1,-1,1l-1,0c0,0,-1,0,-1,0l0,1c0,1,0,1,0,1l-1,0c0,1,0,1,0,1c0,1,0,1,-1,2l0,1c-1,0,-1,0,-1,0l-1,0c0,0,0,1,-1,1l-1,0c0,0,-1,0,-1,-1c0,0,-1,0,-1,0l0,-1c0,1,0,1,1,1l1,0l1,0c0,-1,0,-1,0,-1c0,0,1,0,1,0c0,0,1,-1,1,-1c0,0,1,-1,1,-1c0,-1,0,-1,1,-2c0,0,-1,0,-1,0l1,-3l1,0c1,0,1,0,1,0c1,0,1,0,1,0l1,-1l0,1l1,0c0,0,0,1,0,1c0,1,0,1,0,1c1,0,1,0,1,0l1,0l1,0c1,0,1,0,2,0c0,0,1,0,1,0c0,0,0,-1,0,-1l0,-1c0,0,-1,0,-1,0l0,-1l1,-1l0,1l1,0l0,1l0,1c0,0,0,1,0,1c0,0,-1,0,-1,0c0,0,0,1,0,1c0,0,-1,1,-1,1c-1,0,-1,0,-2,0ZM400.5,490.5l4,-2c0,1,0,1,0,1l-4,2ZM395.5,500.5l-1,-1l1,-2l1,1ZM394.5,493.5l4,-2l0,1l-5,2ZM391.5,501.5l-2,-1l1,-2l2,1ZM390.5,491.5l0,1c0,1,0,1,0,1l0,-1c1,0,1,0,1,0l0,-1l0,1c0,0,1,0,1,0l0,-1l1,-1l0,1l0,1c0,1,0,1,-1,1c0,0,-1,0,-1,0c0,1,-1,1,-1,1l-1,0c0,-1,0,-1,0,-1l0,-1ZM394.5,489.5l-6,2c1,0,1,-1,1,-1l5,-3ZM385.5,495.5c-1,-1,-1,-1,-1,-1c0,0,0,-1,1,-1c0,0,0,-1,0,-1l0,1c1,0,1,1,1,1l0,1l0,1l0,-1c0,1,0,2,0,3c0,1,0,2,0,3c0,1,0,2,0,3l0,1c0,0,0,1,0,1c-1,1,-1,1,-1,2c-1,0,-1,0,-1,0c-1,1,-1,1,-1,1c-1,0,-2,0,-3,0l-1,0l-1,0c0,0,-1,0,-1,-1l-1,-1l0,-1c0,-1,0,-1,0,-2c1,0,1,-1,1,-1l0,-1l1,0l-1,1l0,1c0,0,0,1,0,1c0,1,0,1,1,2c0,0,1,0,2,0c1,0,2,0,3,0c1,-1,2,-1,2,-1c0,-1,0,-1,0,-1c0,-1,0,-3,0,-4c0,-1,0,-2,0,-3c0,-2,0,-3,0,-3ZM379.5,490.5l0,-1c0,0,1,0,1,0c1,0,1,1,1,1l0,1c0,0,-1,1,-1,1l1,0l0,1l-1,0l-1,0l0,1c-1,0,-1,0,-1,0l-1,0l0,1c0,0,-1,-1,-1,-1l1,0l1,0c0,-1,0,-1,0,-1l1,0l0,-1c-1,0,-1,-1,-1,-1c0,0,0,-1,1,-1ZM380.5,490.5l-1,0c0,0,0,1,0,1l1,0ZM308.5,545.5l-1,0l-1,1l0,-1l1,0l0,-1l1,1ZM308.5,549.5c0,0,0,1,0,1c-1,0,-1,0,-1,0c0,0,-1,0,-1,0l-1,0l-1,0c-1,0,-1,0,-1,0c0,0,0,1,-1,1l-1,0c-1,0,-1,0,-1,0c-1,0,-2,0,-2,0c-1,0,-1,0,-1,-1c0,0,-1,0,-1,0c0,0,0,-1,0,-1c0,0,0,-1,0,-1c0,0,1,0,1,0c0,0,0,1,0,1c0,0,0,1,1,1l1,0c0,0,1,0,1,0c0,0,1,0,1,0c0,0,1,0,1,0c1,0,1,0,1,0c0,-1,0,-1,0,-1c0,0,0,-1,0,-1c0,-1,0,-1,0,-1c1,0,1,0,1,0l1,0c0,0,0,1,0,1l0,1c-1,0,-1,0,-1,0l1,0c0,1,0,1,0,1l1,0c0,0,1,0,1,-1c0,0,1,0,1,0l0,-1c0,0,0,1,0,1c-1,0,-1,0,-1,0c0,0,-1,0,-1,0c0,-1,0,-1,0,-1c0,0,0,-1,0,-1c0,0,1,0,1,0c0,-1,0,-1,0,-1c0,0,1,0,1,0c0,0,0,1,0,1c0,1,0,1,0,1l0,1ZM307.5,547.5c0,1,0,1,0,1c0,-1,0,-1,0,-1ZM303.5,546.5l-1,0l1,-1l1,0ZM304.5,548.5l-1,0c0,0,0,1,0,1l1,0l0,-1ZM125.5,531.5c0,0,-1,1,-1,1l-1,0c0,0,0,1,0,1c0,0,0,1,0,1c0,1,0,1,0,1c0,0,1,0,1,0c1,0,1,0,1,0c1,0,1,0,1,0l1,0l-1,1c-1,0,-1,0,-1,0c0,0,-1,0,-1,0l-1,0l0,-1c-1,0,-1,0,-1,-1l0,-1c1,0,1,0,1,0c0,-1,0,-1,0,-1l0,-1l0,-1c0,0,1,0,1,0l-1,0l0,1l1,0l1,0ZM136.5,550.5c0,1,0,2,0,2c0,0,-1,1,-1,1l0,1l-1,0l2,1l-1,0l0,1l-1,0l-1,1c0,0,-1,0,-1,1l-1,0l-1,0l-1,0l0,1l-1,1l-1,0c0,1,0,1,0,1l-3,0c0,-1,0,-1,-1,-1l-1,-1l0,-1c-1,0,-2,0,-3,0l0,-1l-1,0l-1,-1l-1,0l0,-1l-1,0l2,-1l-1,0l0,-1l-1,-1l0,-1l0,-1l0,-1c0,-1,0,-1,1,-2l0,-1l-1,0c0,0,0,-1,0,-1c0,0,1,0,1,0l1,-1l1,0l0,-1l1,0l1,-1l2,0l0,-1l1,-1c0,0,1,0,1,0l3,0l1,0l0,1l1,1l2,1l1,0c0,0,1,0,1,0l0,1l1,0c1,1,1,1,2,1l0,1l-2,0l1,0l0,1l0,1l1,0l0,1ZM127.5,560.5l1,-1l1,-1c1,0,1,0,1,0l1,0l1,-1l1,0l0,-1l1,0l0,-1l1,0l-1,-1l1,0l0,-1l0,-1l1,-1l0,-1c0,-1,0,-1,-1,-2l0,-1l-1,-1l1,-1c0,0,-1,0,-1,0l0,-1l-1,0l-1,-1l-1,0l-2,-1l-1,0l0,-1l-1,-1l-1,0l-2,0l-1,1l0,1c-1,0,-1,0,-1,0l-2,1l-1,0l-1,0l0,1l-1,0l0,1c0,0,-1,0,-1,0l1,1l-1,1l0,1l-1,1c0,1,0,1,0,1l0,1l0,1l1,0l0,1l1,1l-1,1l1,1l1,0l0,1l1,0l1,1l2,0l1,1l0,1c1,0,1,0,1,0ZM133.5,545.5l-1,0l0,1l0,-1l-1,0l-1,-1c-1,0,-1,0,-1,0l0,-1l1,0l0,1l1,0c1,0,1,0,1,1ZM133.5,555.5l-1,0l0,1l-1,0l0,1l-1,0l-1,0c0,-1,0,-1,0,-1c1,0,1,0,1,0l1,0c0,-1,1,-1,1,-1ZM128.5,557.5c0,0,0,1,0,1c0,0,-1,0,-1,0l-3,0c0,0,-1,0,-1,0c0,-1,0,-1,0,-1c0,0,0,-1,0,-1l1,0l3,0l1,0l0,1ZM128.5,543.5c0,1,0,1,0,1c0,0,-1,0,-1,1l-3,0c0,-1,-1,-1,-1,-1l0,-1l0,-1l1,0l3,0c0,0,1,0,1,0c0,0,0,1,0,1ZM127.5,546.5l1,-1l1,0l1,1l1,0l0,1l1,-1c0,0,1,1,1,1l0,1l1,1l0,1l0,1c0,0,0,1,-1,1l0,1c0,0,0,1,-1,1l-1,-1c0,0,0,1,0,1l-1,0l0,1l-1,0l-1,0c0,0,-1,0,-1,0l0,-1l-3,0l0,1l-1,0l-1,0c0,0,-1,0,-1,0c0,0,-1,-1,-1,-1l0,-1l-2,1l0,-1l0,-1l-1,-1l0,-1c0,0,0,-1,0,-1l0,-1l1,0l0,-1c0,0,0,-1,1,-1l1,1l0,-1l1,0c0,-1,1,-1,1,-1c1,0,1,0,1,0l0,1l1,0ZM127.5,554.5l1,1l1,0l1,0l0,-1l1,0c0,-1,0,-1,0,-1l1,0l1,0l0,-1l0,-1l0,-1c0,0,0,-1,0,-1c0,-1,0,-1,0,-2c0,0,-1,0,-1,0l-1,0l-1,-1l-1,0c-1,0,-1,0,-1,0l-1,0l-3,0l-1,0l-1,0c-1,0,-1,0,-1,0l-1,0l0,1l-1,0c0,0,-1,0,-1,0l0,1l0,1l-1,1c0,1,0,1,0,1l1,0l0,1c0,1,0,1,1,1l1,0l0,1l1,0l0,1l1,0c1,0,1,0,1,0c0,-1,1,-1,1,-1l3,0ZM126.5,549.5c0,0,0,1,0,1l1,1c0,1,-1,1,-1,1l0,1l-1,0l-1,-1l0,-1c0,0,1,-1,1,-1c0,0,0,-1,1,-1ZM125.5,550.5l0,1l-1,0c0,1,1,1,1,1l1,0l0,-1c0,-1,0,-1,-1,-1ZM118.5,545.5l1,0l0,-1l1,0l1,0l0,-1l1,0l0,1c-1,0,-1,0,-1,0c-1,0,-1,1,-1,1l-1,0l0,1l-1,-1ZM118.5,555.5l1,0l1,1l1,0l1,0c0,0,-1,0,-1,1l1,0c-1,0,-1,0,-1,0c-1,0,-2,-1,-2,-1l-1,-1ZM180.5,553.5l0,-1l0,-2l0,-8l1,-2l0,10c0,0,0,1,0,1l0,1c0,0,-1,0,-1,1ZM172.5,551.5l1,0l1,0c1,0,1,0,1,-1l0,-2l0,-7l-1,0c0,-1,1,-1,1,-1c0,-1,0,-1,0,-1l0,1l1,0l1,1c-1,0,-1,0,-1,1c0,1,0,1,0,2c0,0,0,1,0,3c0,0,0,1,0,1l0,1c0,0,0,1,0,1c0,1,0,1,0,1l-1,1c-1,0,-1,1,-1,1c-1,0,-1,0,-1,0l-1,0l-1,0c-1,0,-2,0,-2,-1c-1,0,-1,0,-1,0c-1,0,-1,0,-2,0c-1,1,-2,1,-2,1l-1,0l-2,0c-1,0,-2,0,-2,-1c-1,0,-1,-1,-1,-1c0,-1,0,-1,0,-1l-1,0l-5,2c0,0,-1,0,-1,0c-1,0,-1,1,-1,1l-1,0c-1,0,-1,0,-1,0l0,-1l0,1l0,1c0,1,-1,1,-1,2l0,1c-1,0,-1,0,-1,0c0,1,-1,1,-1,1c0,0,-1,0,-1,0c0,0,-1,0,-1,0c-1,0,-1,0,-2,0c0,0,-1,0,-1,0l0,-1c0,0,1,0,1,0l1,1c0,0,1,-1,1,-1c0,0,1,0,1,0c1,-1,1,-1,1,-1c0,0,1,-1,1,-1l0,-1c1,0,1,0,1,-1c0,0,0,-1,0,-1c-1,0,-1,-1,-1,-1l0,-1l1,0l1,1l1,0c1,0,1,0,1,0c1,0,1,0,1,0c1,0,1,-1,2,-1l1,0l1,0l0,-1l-1,0c-1,-1,-2,-1,-3,-1l-1,0c0,-1,0,-1,1,-1c0,0,0,-1,1,-1l1,0l0,1c0,0,1,0,1,0c1,0,2,1,3,1c1,0,2,0,2,0c1,0,1,0,2,0l0,2l-1,0l-1,0c0,0,0,1,0,1c1,0,1,0,1,0l1,0l2,0l1,0l1,0c1,0,1,0,1,0c0,0,0,-1,0,-1l0,-1l0,-1c0,-1,0,-1,1,-1c0,0,0,-1,0,-1c1,0,1,-1,2,-1c0,0,1,1,1,1c0,0,0,1,0,2c0,1,0,1,0,1c0,0,0,1,0,1c0,0,0,1,-1,1l1,0c1,0,1,0,1,0ZM173.5,535.5c0,0,0,-1,1,-1c0,0,1,0,1,0c1,0,1,0,1,0c1,1,1,1,1,1c0,1,0,1,-1,1c0,0,0,1,0,1c0,0,-1,0,-1,0c0,0,-1,0,-1,0l-1,0l2,0c0,-1,1,-1,1,-1c0,0,0,-1,-1,-1c-1,0,-1,0,-2,1l-1,0l1,0c0,-1,0,-1,0,-1ZM168.5,545.5l-1,-1l1,-2l1,1ZM168.5,547.5l-1,1l0,1c0,0,0,1,1,1c0,0,1,0,1,-1l1,0c0,-1,-1,-1,-1,-1c0,0,0,-1,-1,-1ZM167.5,536.5l4,-2l0,1c-1,0,-1,0,-1,0l-4,2ZM154.5,556.5l-1,0l1,-2l1,1ZM153.5,537.5l1,0l1,0c0,0,1,0,1,0c1,0,1,0,1,1c0,0,-1,1,-1,1c-1,1,-1,1,-1,1c-1,0,-1,0,-1,0l-1,0l1,-1c1,0,2,0,2,-1c0,0,-1,0,-1,0l-1,0l-1,0l-1,1l0,-1c0,0,1,0,1,-1ZM147.5,563.5l-4,2c0,-1,0,-1,0,-1l4,-2ZM222.5,552.5l-1,0c0,0,-1,0,-1,0l-1,-1l0,1c0,0,-1,0,-1,0l0,1l-1,0l-1,0l-10,0c0,1,0,1,0,2l-1,-1c0,0,0,-1,0,-1l1,0l-1,0l-1,0c0,0,-1,0,-1,-1c0,0,-1,0,-1,-1c0,0,0,1,-1,1l0,1l-1,0l-1,0c0,0,-1,0,-1,0c-1,-1,-1,-1,-1,-1c-1,0,-1,0,-1,-1c0,0,-1,0,-1,0c0,0,0,-1,0,-1c-1,1,-2,1,-2,1c0,0,0,1,-1,1c-1,1,-1,2,-1,2c-1,1,-1,2,-1,2c0,1,0,1,0,1l1,1c0,0,0,1,1,2l1,0c0,0,0,1,1,1l1,0l1,0c1,0,1,0,1,0c0,0,1,0,1,0c1,0,1,0,2,0l1,0l1,0l-3,2c-1,0,-2,0,-2,0c-1,0,-1,0,-2,0c0,0,-1,0,-1,0c-1,0,-2,-1,-2,-1c0,0,-1,0,-1,-1c-1,0,-1,-1,-1,-2c0,0,-1,0,-1,-1c0,-1,0,-1,0,-1c0,-1,0,-2,1,-2l0,-1c0,0,0,-1,0,-1c1,0,1,-1,1,-1c0,0,1,-1,1,-1c0,0,1,-1,1,-1l1,0c0,-1,-1,-1,-1,-1l-1,0c0,0,0,-1,0,-1l1,-1c0,0,0,-1,1,-1l1,0c0,0,1,0,1,0c0,1,1,1,1,1c0,0,0,1,0,1l0,1c0,0,-1,0,-1,0l0,1c1,0,1,1,1,1l1,0c0,0,1,0,1,0l1,0l1,0c0,0,0,-1,1,-1c0,-1,0,-1,0,-1c0,0,0,-1,0,-1l-1,-7l1,-2l1,10c0,1,0,1,0,1l0,1c0,0,1,0,1,0l1,0c1,0,1,0,1,0c1,-1,1,-1,1,-2l0,-1l0,-1l0,-1l0,-1l0,-2l-1,-2c0,-1,0,-1,1,-1l0,-1l1,2c-1,0,-1,1,-1,2l1,1l0,1l0,1l0,1l0,1l0,1l0,1l1,-1l1,-1l1,-1c0,0,1,0,1,0l1,0c0,0,1,0,1,0c1,0,1,1,1,1l0,1l0,1l-1,1l1,0l1,0l1,0c1,0,1,0,1,0l1,-1l0,-1c1,0,1,-1,1,-1l1,0c0,-1,0,-1,0,-1c1,0,1,0,1,1c0,0,1,1,1,1l0,1l0,1c0,1,-1,1,-1,1ZM220.5,550.5l1,0l1,0l0,-1c-1,0,-1,0,-1,0c0,0,-1,0,-1,0c0,0,0,1,0,1ZM217.5,540.5l5,-2l-1,0l0,1l-4,2ZM214.5,550.5c0,-1,0,-1,0,-1c-1,0,-1,0,-1,0c0,0,-1,0,-1,0c-1,0,-1,0,-2,0l-1,1l-2,1l1,0c1,0,1,0,2,0c0,0,1,0,1,0c1,-1,2,-1,3,-1ZM208.5,537.5c1,0,1,0,1,0c1,0,1,0,2,0c0,0,1,0,1,0c1,0,1,0,1,1c-1,0,-1,1,-1,1l-1,0c0,1,0,1,0,1c-1,0,-1,0,-1,0l-1,0l1,-1c1,0,2,0,2,-1c0,0,-1,0,-1,0l-1,0c0,0,-1,0,-1,0l-1,1l0,-1l0,-1ZM199.5,536.5l4,-2l0,1l-4,2ZM196.5,566.5l-4,2c1,-1,1,-1,1,-1l4,-2ZM259.5,550.5l-1,0l-1,0c-1,0,-1,0,-2,0l-1,0l-1,0l0,1l-1,0l-1,0c0,0,0,1,-1,1l-1,0c-1,1,-2,1,-2,1l-1,0c0,0,-1,0,-1,0c0,0,0,-1,-1,-1c-1,-1,-1,-1,-1,-1c0,0,-1,0,-1,0c-1,1,-1,1,-1,2c0,1,1,1,2,1l1,0c0,0,0,1,0,1l0,1c0,1,0,1,-1,1c0,1,-1,1,-2,2c-2,0,-3,0,-4,0c-1,0,-1,0,-1,0c0,0,-1,0,-1,0c-1,0,-2,-1,-2,-1c0,0,-1,-1,-1,-1c0,-1,0,-2,0,-2c0,-1,0,-1,0,-2c0,-1,1,-1,1,-2l1,0c0,1,-1,1,-1,2c0,0,0,1,0,1c0,1,0,2,1,2c1,1,1,1,3,1c1,0,1,0,1,0l1,0l1,0c1,0,1,0,1,0c0,0,1,-1,1,-1c1,0,1,0,1,0c0,0,-1,-1,-1,-1c-1,0,-2,0,-2,0c-1,0,-1,-1,-1,-1c0,-1,0,-1,0,-1c1,-1,1,-2,2,-3c1,0,2,-1,3,-1l0,1c0,0,1,0,1,0c0,0,0,1,0,1c0,0,1,0,1,0l1,0c0,0,1,0,1,0c0,0,1,0,1,0c1,0,1,-1,2,-1l1,0l1,-1l-1,0l-1,0l0,-1l-1,0l-1,0l-1,0l0,1c0,-1,0,-1,0,-2c0,0,1,0,1,0c0,0,1,-1,1,-1l0,1c1,0,1,0,1,0l1,0l2,1l1,0l1,0l1,1c0,0,1,0,1,0l1,0ZM250.5,540.5l4,-2l-1,1l-4,2ZM244.5,547.5l-1,-1l-1,1l-1,-1l1,-1l1,0l1,-1l1,1ZM288.5,552.5c0,0,-1,0,-2,0l-1,-1c-1,0,-1,1,-1,1l-1,0c-1,0,-1,0,-1,1c-1,0,-1,0,-1,0c0,0,-1,0,-1,0l-1,0l-1,0c-1,0,-1,0,-1,0c0,0,0,1,1,1c1,0,1,0,1,0c1,0,1,0,1,0c1,0,1,0,1,1l0,1l0,1c-1,0,-1,0,-1,0c-1,1,-2,1,-3,2c-1,0,-2,0,-4,0c-1,0,-1,0,-2,0c-1,0,-1,0,-1,-1c-1,0,-1,-1,-1,-1c-1,-1,-1,-1,-1,-2c0,-1,0,-1,1,-2c0,-1,0,-1,1,-2c0,1,0,1,0,2c0,0,-1,1,-1,1c0,1,0,1,0,1c1,0,1,1,2,2c0,0,1,0,2,0c1,0,1,0,1,0l1,0c1,0,1,0,1,0c1,0,1,0,1,0c0,0,1,0,1,0c1,-1,1,-1,1,-1c1,0,1,0,1,0c0,0,-1,0,-1,0c-1,-1,-1,-1,-1,-1c-1,0,-1,0,-1,0c0,0,-1,0,-1,0l0,-1l0,-1l1,-1c1,-1,1,-1,2,-1l1,0c1,0,1,0,1,0l1,0c1,0,1,0,1,0c0,-1,0,-1,0,-1c0,-1,0,-1,0,-1c0,0,0,-1,0,-1c0,0,0,-1,0,-1l1,0c0,-1,0,-1,0,-1l0,-1c0,0,1,0,1,0c0,0,1,0,2,1c0,0,1,1,1,1c0,1,1,1,1,1c0,1,0,1,0,1c0,1,0,1,0,1c0,0,0,1,0,1l0,1l-1,0ZM285.5,548.5c0,0,-1,0,-1,0c-1,0,-1,1,-1,1c0,0,1,0,1,0c0,0,0,1,0,1c1,0,1,-1,1,-1c0,-1,0,-1,0,-1ZM286.5,548.5c0,0,0,1,0,1c0,0,0,1,0,1l2,0l0,1c0,0,0,-1,0,-1c0,0,0,-1,0,-1c-1,0,-1,0,-1,-1l-1,0ZM288.5,557.5l-4,2c0,0,0,-1,1,-1l4,-2ZM273.5,543.5l4,-2l-1,1l-4,2ZM331.5,551.5l-1,0c0,1,0,1,-1,1c0,0,-1,0,-1,0c-1,0,-1,0,-1,0c-1,0,-1,-1,-1,-2c-1,1,-1,1,-1,2c-1,0,-1,0,-1,0l-1,0c-1,0,-2,0,-2,0l-1,-1c0,1,0,1,0,2l-1,0l-1,0c-1,-1,-1,-1,-2,-1l0,1c0,0,-1,1,-1,1c-1,0,-1,1,-2,1c-2,0,-3,0,-4,0l4,-2l2,-1c0,0,1,0,1,-1l1,-1c0,-1,0,-1,1,-2l1,0c0,0,1,0,1,1c0,1,1,1,1,1c0,0,1,0,1,0c0,1,1,1,1,1c1,0,1,0,1,0c0,-1,1,-1,1,-1c0,0,0,-1,0,-1c0,-1,0,-1,0,-1c0,0,0,-1,0,-1l0,-7l1,-2l0,11l0,1c0,0,1,0,1,0c0,1,1,1,1,1c1,0,1,0,1,-1c1,0,1,0,1,0c1,0,1,-1,1,-1l1,0l0,1l1,1c0,0,1,-1,1,-1c0,0,1,0,1,0c0,0,0,-1,0,-1l0,-1l1,0l0,1l0,1l1,0l1,0l0,-1l0,-1l0,1l1,0l0,1c0,1,0,1,0,1l-1,0c0,1,0,1,0,1l-1,0l-1,0l-1,0l0,-1l-1,1l-1,0l-1,0c-1,0,-1,0,-1,0c0,-1,0,-1,0,-1ZM331.5,539.5l4,-2l0,1l-4,2ZM319.5,551.5l0,-1c0,0,-1,-1,-1,-1l0,1c0,0,-1,0,-1,0c0,0,1,0,1,1l1,0ZM314.5,539.5l-1,0l0,1l0,1l0,1l0,1l0,-1l-1,-1l0,-1l1,0c0,-1,0,-1,0,-2c0,0,1,0,1,0l2,-1ZM314.5,541.5c0,-1,1,-1,1,-1c0,-1,0,-1,1,-1c0,1,0,1,0,1c0,1,0,1,0,1l0,1l1,0l-1,2l-1,-1l-1,1c0,0,0,1,0,1l-1,0l-1,0l1,-1c0,0,1,0,1,-1l1,0l-1,0l0,-1l0,-1ZM315.5,541.5l0,-1c0,0,0,1,0,1l0,1l0,-1ZM323.5,536.5l0,-1c0,0,0,-1,0,-1c0,-1,-1,-2,-1,-2l1,-1l0,1c0,0,0,1,0,1l0,1c0,1,0,1,0,1l0,1ZM200.5,456.5l1,1l0,1c0,1,0,1,0,1l-1,1l-1,0c0,0,-1,0,-1,0c0,-1,0,-1,0,-1l0,-1c0,0,0,-1,0,-1l1,-1l1,0ZM200.5,457.5c-1,0,-1,0,-1,0c0,0,-1,1,-1,1c0,1,1,1,1,1l1,0c0,0,1,-1,1,-1l-1,0c0,0,0,-1,0,-1ZM170.5,444.5l-1,1l0,1l0,1c0,0,1,0,1,1l-1,0l0,-1l0,-1l0,-1c0,-1,0,-1,1,-1c0,0,0,-1,1,-1l1,0ZM170.5,446.5c1,-1,1,-1,1,-1c0,0,1,-1,1,-1c0,0,0,1,0,1c0,0,1,0,1,0c0,1,-1,1,-1,1l0,1l1,0l0,1l-1,0l-1,0l0,1c-1,0,-1,0,-1,0l-1,1l-1,0l1,-1l1,0c0,0,0,-1,0,-1l1,0l0,-1c-1,0,-1,0,-1,-1ZM172.5,446.5l-1,0l0,-1c0,0,0,1,0,1l1,1l0,-1ZM201.5,448.5c0,2,0,3,0,5c-1,0,-1,0,-1,0l0,1l-1,0c0,0,-1,0,-1,0c1,0,1,0,1,-1c1,0,1,0,1,0l0,-1l0,-1c-1,0,-1,0,-1,0c0,-1,0,-1,-1,-1l-1,0c0,0,0,-1,0,-1c1,0,1,0,1,0c0,0,1,0,1,1c1,1,1,1,1,1c0,0,0,1,0,1c1,0,1,0,1,0c0,-1,0,-1,0,-1l0,-1l0,-1ZM298.5,441.5c0,0,0,-1,0,-1l-1,0c0,0,-1,0,-2,1l0,-1l0,-1l0,-1l-1,-1c1,0,1,0,1,0l0,-1l-1,0l0,-1c0,1,0,1,0,1c0,1,0,1,0,2l0,1l0,1l0,1c0,0,0,1,0,1l-1,0l-1,0l0,1c0,0,1,0,1,0l1,0c1,0,2,0,2,0c1,0,1,-1,2,-1c0,-1,0,-1,0,-1ZM297.5,441.5c0,0,1,0,1,0c-1,1,-1,1,-2,1l-1,0c0,0,-1,0,-1,0l1,0c0,-1,0,-1,1,-1ZM66.5,440.5c0,-1,-1,-1,-1,-1c-1,0,-1,1,-2,1c0,0,0,1,-1,1l0,-1c0,-1,0,-1,0,-1l0,-1l0,-1l0,-1l1,0l-1,0l0,-1l-1,1c1,0,1,1,1,1l0,2l0,1l0,1l0,1c0,0,-1,0,-1,0l-1,0c-1,0,-1,0,-1,0c0,0,1,0,1,1c0,0,1,0,1,0l1,0c1,0,2,0,2,-1c1,0,1,0,2,0l0,-1ZM64.5,440.5c1,0,1,0,2,1c-1,0,-1,0,-2,1l-1,0c-1,0,-1,0,-1,0l0,-1l1,0l1,0l0,-1ZM74.5,457.5c0,1,0,2,0,2c0,0,0,1,0,1l-1,0c0,1,0,1,0,1l1,0l0,1l-1,0l0,1c-1,0,-1,0,-1,0l0,1c-1,0,-1,0,-2,0l0,1l-1,0l-1,0l-1,0l0,1l-1,1l-1,0l-3,0l-1,0l0,-1c-1,0,-1,-1,-1,-1c-1,0,-2,0,-3,-1l-1,0l0,-1l-1,0l0,-1l-1,0l-1,0l1,-1l1,0l-1,0l0,-1l-1,-1l0,-1l0,-1l0,-1l0,-1l1,-1l1,-1l-1,0l-1,0l0,-1c1,0,1,0,1,0l1,-1l1,0l0,-1l1,0l1,-1l2,0l1,-1l0,-1c1,0,1,0,1,0l0,-1l3,0l1,0l0,1l1,1l1,1l2,0l0,1l1,0l1,0l0,1l1,0c0,1,1,1,1,1c0,0,0,1,0,1l-1,0l0,1l1,0l0,1l0,1ZM65.5,467.5l1,0l0,-1l1,0l1,-1c0,0,1,0,1,0l1,-1c0,0,1,0,1,-1l1,0l1,-1l1,0l-1,-1l-1,0l1,0l0,-1l1,0l0,-1l0,-1l0,-1c0,-1,0,-2,0,-2l0,-1l-1,0l0,-1l1,-1c-1,0,-1,0,-2,-1l-1,0l0,-1l-1,0l-1,0l-1,-1c-1,0,-1,0,-1,-1l-1,0l0,-1c0,0,-1,0,-1,0l-3,0l-1,1c-1,1,-1,1,-1,1l-2,1l-1,0l-1,0l0,1l-1,0c0,1,-1,1,-1,1l1,1l-1,1l0,1l0,1c-1,0,-1,1,-1,1l0,1l1,0l0,1l0,1l1,1l-1,1l1,1l1,0l0,1l1,0l1,0l1,1l1,0c0,0,1,0,1,1l1,1ZM71.5,452.5l-1,1l0,-1l-1,0l0,-1l-1,0l0,-1l1,0l0,1l1,0l1,1ZM71.5,462.5l0,1l-1,0l-1,0l0,1l-1,0c0,-1,0,-1,0,-1l1,0c1,-1,1,-1,1,-1l1,0ZM67.5,464.5c0,0,0,1,-1,1l-1,0l-3,0l-1,0l0,-1c0,0,0,-1,0,-1c0,0,1,0,1,0l3,0l1,0l1,0l0,1ZM67.5,450.5c0,0,0,1,-1,1l-1,0l-3,0c0,0,-1,0,-1,0l0,-1c0,0,0,-1,0,-1l1,0l3,0l1,0c0,0,1,0,1,1ZM65.5,453.5l1,0c0,0,0,-1,0,-1c0,0,1,0,1,0c1,0,1,0,1,0c0,0,1,1,1,1l1,1l1,-1c0,0,0,1,0,1l1,0l0,1l0,1l0,1l0,1l0,1c0,1,-1,1,-1,1c0,0,0,1,0,1l-1,-1l-1,1l-1,1l-1,0c-1,0,-1,0,-1,0l0,-1l-1,0l-3,0l0,1l-1,0l-1,0l-1,0c0,-1,0,-1,-1,-1l0,-1l-1,1l-1,-1l0,-1l0,-1l-1,-1c0,0,0,-1,0,-1c1,0,1,-1,1,-1l0,-1c0,0,1,-1,1,-1l1,1l0,-1l1,0l0,-1c1,0,1,0,1,0c1,0,1,0,1,0l1,0l0,1ZM66.5,461.5c0,0,0,1,1,1l1,0l0,-1l1,0l0,-1c0,0,1,0,1,0l1,0l0,-1l1,-1l0,-1c0,-1,0,-1,0,-2c0,0,-1,0,-1,-1l-1,0l-1,0l0,-1l-1,0l0,-1l-1,0c0,0,-1,0,-1,1l-4,0l-1,0l0,-1l-1,0c0,0,-1,1,-1,1l-1,1l-1,0l-1,0l0,1l0,1l0,1c0,0,0,1,0,1l0,1c0,1,1,1,1,1l1,0l1,1l1,0l0,1c1,0,1,0,1,-1c1,0,1,0,1,0l3,0l1,0ZM63.5,457.5l1,0l0,1l0,1l-1,0c0,0,0,1,0,1c0,0,0,-1,0,-1c0,-1,0,-2,-1,-3l1,-1l0,1l1,0l1,-1l0,1l0,-1c1,0,1,0,1,0c0,1,0,1,0,1c-1,0,-1,1,-1,1c0,0,0,-1,-1,-1c0,1,0,1,-1,1ZM56.5,452.5l1,0l0,-1l1,0l1,-1l1,0l0,1c-1,0,-1,0,-1,0c0,0,-1,0,-1,1l-1,0l0,1l0,-1ZM56.5,462.5l1,0c0,0,1,0,1,1l1,0l1,0l0,1l-1,0c-1,-1,-1,-1,-2,-1l0,-1l-1,0ZM97.5,451.5l-1,-1l1,-2l1,1ZM99.5,453.5l-2,-1l0,2l-2,-1l1,-2l1,1l1,-1l2,1ZM97.5,458.5c1,0,1,0,1,0l1,0l0,-1l1,0l0,-1l0,-1l0,1l0,1c0,0,1,0,1,0c0,0,0,1,0,1l1,0l1,0c-1,-1,-1,-1,-1,-1l1,-1c0,0,0,1,0,1c0,0,0,1,0,1c0,0,0,1,0,1l-1,1c-1,0,-1,0,-1,0c0,0,0,-1,0,-1c-1,0,-1,0,-1,0l-1,0l0,1l-1,0c0,0,-1,0,-1,0c-1,0,-1,-1,-1,-1l-1,0l0,-1l-1,0c-1,0,-1,0,-1,1c-1,0,-1,0,-1,0c0,1,0,1,0,1l-1,0l0,1c0,1,0,1,0,2l1,1l-1,1l-1,0c0,0,0,-1,0,-1l-1,-1c0,-1,0,-1,0,-2c0,-1,0,-1,1,-2c-1,0,-1,1,-2,1l-1,0l0,-1l-1,1l0,1c0,0,0,1,0,2c-1,0,-1,0,-1,0c0,1,0,1,-1,1c0,0,0,1,-1,1l-1,0l-1,0c0,0,-1,0,-2,0l0,-1l1,0c1,0,1,0,2,0l1,-1l1,0c0,0,0,-1,0,-1c0,0,1,-1,1,-1c0,0,0,-1,1,-1c0,-1,0,-1,0,-1l-1,0c0,-1,0,-1,0,-1l0,-1c1,0,1,0,1,0l0,1c0,0,1,0,1,0l1,0c1,0,1,0,2,0l1,-1l0,1c-1,1,-1,2,-1,3c0,1,0,1,1,2c-1,-1,-1,-1,-1,-1c0,-1,0,-1,0,-1c1,0,1,-1,1,-1l0,-1c1,0,1,0,1,-1l1,0c0,-1,0,-1,0,-1c1,0,1,0,1,0c0,0,1,0,1,0l1,0c0,0,0,1,1,1ZM95.5,446.5l4,-2l0,1l-1,0l-4,2ZM87.5,449.5c1,0,1,-1,1,-1c1,0,1,0,2,0c0,0,1,0,1,0c0,1,1,1,1,1c-1,1,-1,1,-1,1c0,0,0,1,-1,1c-1,0,-1,0,-1,0l-1,0l1,0c1,-1,1,-1,2,-1c0,0,-1,-1,-1,-1l-1,0c0,0,-1,0,-1,1l-1,0c0,-1,0,-1,0,-1ZM79.5,471.5l5,-2c-1,0,-1,0,-1,0c0,1,0,1,0,1l-5,2ZM80.5,468.5l5,-3c0,1,0,2,0,2l-5,2ZM135.5,460.5l0,-2l0,-1l-1,-8l1,-3l1,11c0,0,0,1,0,1c-1,1,-1,1,-1,2ZM134.5,443.5l4,-2l-1,1l-4,2ZM127.5,458.5c1,0,1,0,1,0c1,0,1,0,1,0c0,0,1,-1,1,-1l0,-1l0,-1l-1,-7c0,-1,0,-1,0,-2c1,0,1,0,1,0c0,1,0,1,0,1c0,0,1,0,1,0c0,1,0,1,0,1c0,1,0,1,0,1l-1,0c0,1,0,1,1,2c0,0,0,1,0,3c0,0,0,1,0,1l0,1c0,0,0,1,0,1c0,0,0,1,-1,1c0,1,0,1,0,1c0,0,-1,0,-1,0l-1,0c0,0,0,1,0,1l-1,0l-1,0c0,0,-1,0,-1,-1c0,0,-1,0,-1,0c-1,0,-1,0,-1,0c0,0,-1,0,-1,1c0,0,-1,0,-2,0c0,0,-1,0,-1,0c-1,1,-1,1,-2,1c0,0,-1,0,-2,0c-1,0,-2,0,-3,-1c-1,0,-2,0,-3,-1l0,-1c-1,0,-1,-1,-1,-1c0,-1,1,-1,1,-2c0,0,0,-1,1,-1c0,0,0,1,0,1c-1,1,-1,1,-1,1c0,1,0,1,1,1c0,1,1,1,1,1c1,1,1,1,2,1c1,0,2,0,3,0c1,0,1,0,2,0c0,0,1,0,2,0c0,0,0,-1,1,-1l1,0c-1,0,-1,-1,-1,-1c0,0,0,-1,0,-1l1,-1c0,-1,0,-1,0,-1c1,-1,1,-1,1,-1l1,0c0,-1,0,-1,0,-1c1,0,1,0,1,1c1,1,1,1,1,1c0,0,0,1,0,1c0,1,0,1,0,1l-1,1c0,0,0,1,0,1c1,0,1,0,1,0c0,0,1,0,1,0ZM127.5,442.5c1,-1,1,-1,1,-1c1,0,1,0,2,0c0,0,1,0,1,0c0,0,1,1,1,1c-1,0,-1,1,-1,1c0,0,0,1,-1,1c-1,0,-1,0,-1,0l-1,0l1,-1c1,0,1,0,2,0c0,-1,-1,-1,-1,-1l-1,0c0,0,-1,0,-1,0c0,0,0,1,-1,1l0,-1ZM122.5,451.5l-1,-1l1,-1l1,1ZM124.5,454.5c-1,0,-1,0,-1,1c-1,0,-1,0,-1,0c0,1,0,1,0,1c0,0,1,1,1,1c1,0,1,0,1,-1c1,0,1,0,1,0c0,-1,0,-1,0,-1c-1,-1,-1,-1,-1,-1ZM118.5,465.5l-4,2c0,0,0,-1,0,-1l4,-2ZM161.5,459.5l-1,0c-1,0,-1,0,-1,0l-1,-1c-1,1,-1,1,-1,1l-1,1l-1,0l-1,0c0,1,0,1,0,1c0,1,0,2,-1,2c0,1,0,1,-1,2c-1,0,-1,1,-2,1c-1,0,-1,1,-2,1c-1,0,-1,-1,-2,-1c-1,0,-1,0,-1,0c-1,-1,-1,-1,-1,-2c-1,0,-1,-1,-1,-1c0,-1,0,-1,0,-1l0,-1l1,0c0,-1,0,-1,0,-1c0,-1,0,-1,0,-1l1,0c0,0,0,1,-1,1l0,1c0,0,0,1,0,1c0,0,0,1,0,1c0,0,1,1,1,1l1,0c1,0,1,1,2,1c1,0,2,-1,2,-1c1,0,2,0,2,-1c0,0,1,0,1,0c0,-1,0,-1,0,-1c0,-1,0,-1,0,-1c0,-1,0,-1,0,-1c-1,0,-1,-1,-1,-1l1,-2c0,1,1,1,1,1l1,0l1,0c1,0,1,0,1,0l1,-1l0,-1c0,0,1,-1,1,-1c1,-1,1,-1,1,-1c1,0,1,0,1,1c0,0,0,1,1,1l0,1l0,1c-1,1,-1,1,-1,1ZM159.5,457.5l1,0l1,0c0,0,-1,-1,-1,-1c-1,0,-1,0,-1,0l0,1ZM157.5,445.5l0,1c1,0,1,0,1,0l0,-1l1,-1l0,1c0,1,0,1,0,1c0,0,1,-1,1,-1l0,-1l0,1l0,1c0,0,0,1,0,1l-1,0l0,-1l-1,0l0,1l-1,0l0,-1l0,-1ZM160.5,463.5l-4,2c0,-1,0,-1,0,-1l4,-2ZM149.5,457.5l-2,-1l1,-1l1,1ZM148.5,444.5l1,0c0,0,1,0,1,0c1,0,1,0,2,0l0,1l-1,1l-1,0c0,0,0,1,0,1c0,0,-1,0,-1,0c-1,0,-1,0,-1,0l2,-1c0,0,1,0,1,-1c-1,0,-1,0,-1,0c-1,0,-1,0,-2,0c0,0,0,-1,0,-1ZM184.5,452.5l-2,-1l1,-1l1,1ZM192.5,455.5l-1,2l-1,0l-1,0c-1,0,-1,0,-1,0l-1,1l-1,0l-2,1l-1,0l-1,0l0,1l-1,0l-1,0l-1,-1c-1,0,-1,0,-1,-1l0,-1l0,-1c-1,0,-1,1,-1,1c0,0,-1,0,-1,1c-1,0,-1,0,-1,0l-1,0l0,1l0,1c0,0,0,1,0,1c0,0,-1,1,-1,1c0,0,0,1,0,1c0,0,-1,0,-1,0c0,0,0,1,0,1l-1,0c0,0,-1,0,-1,0l-1,0c0,0,-1,0,-1,0c-1,0,-1,0,-1,0c0,0,-1,-1,-1,-1l1,0l1,0l1,0c1,0,1,0,1,0c0,0,1,0,1,-1l1,0c0,-1,0,-1,0,-2c1,0,1,0,1,-1c0,0,1,0,1,-1c0,0,-1,0,-1,0l0,-2c1,0,1,0,1,0c1,0,1,0,1,0l1,0c0,0,1,0,1,-1c1,0,1,0,1,0l0,1c0,1,0,1,1,1c0,0,0,1,0,1l1,0l1,0c0,-1,0,-1,0,-1c0,-1,0,-1,0,-1l0,-1c0,0,1,0,1,0c0,-1,0,-1,1,-1l1,0l1,0c0,0,1,0,1,0l2,1l1,0l2,0l1,0ZM187.5,456.5l-1,0c0,0,-1,0,-1,0c0,-1,-1,-1,-1,-1l-1,0c0,1,0,1,0,1c0,0,-1,0,-1,0l0,1c0,0,-1,0,-1,0l0,1l1,0l1,0l1,-1l1,0l1,-1ZM184.5,446.5l4,-2l0,1l-4,2ZM179.5,463.5l-2,-1l-1,1l-1,-1l1,-1l1,0l1,-1l1,1ZM175.5,449.5c0,0,0,-1,1,-1c0,0,1,0,1,0c1,0,1,0,1,0c1,1,1,1,1,1c0,1,0,1,-1,1c0,0,0,1,0,1c0,0,-1,0,-1,0c0,0,-1,0,-1,0l-1,0l2,0c0,-1,1,-1,1,-1c0,0,0,-1,-1,-1c-1,0,-1,0,-2,1c0,-1,0,-1,0,-1ZM247.5,460.5l0,-2l0,-1l-1,-8l1,-3l1,11c0,0,0,1,0,1c-1,0,-1,0,-1,0c0,1,0,1,0,2ZM239.5,458.5c0,0,1,0,1,0l1,0c0,0,0,-1,0,-1c1,0,1,0,1,-1l0,-1l-1,-7c0,-1,0,-1,0,-2l1,0c0,1,0,1,0,1l1,0c0,1,0,1,0,1c-1,1,-1,1,-1,1c0,1,0,1,0,2c0,0,0,1,0,3c0,0,0,1,0,1l0,1c0,0,0,1,0,1c0,0,0,1,0,1c0,1,0,1,-1,1c0,0,-1,0,-1,0c0,0,0,1,-1,1l-1,0l-1,0c-1,0,-2,-1,-2,-1c0,0,-1,0,-1,0c-1,0,-1,0,-2,0c0,0,-1,1,-2,1l-2,0l-1,0c0,0,0,-1,0,-1l-1,0l0,-1l0,-1l0,1l-1,0l0,1c-1,0,-1,0,-2,0c0,0,-1,0,-1,0l-1,0l-1,0c-1,0,-1,-1,-1,-1l0,-1l0,-1l1,0c0,0,0,1,0,1l1,0l1,0c1,0,1,0,1,0c0,0,1,0,1,0c1,0,1,0,1,0l1,-1l-1,-1l0,-2l0,-1l0,-1l1,-1l0,2l0,1l1,3l0,1l0,1l1,0l2,0c1,0,1,0,1,0c0,0,1,0,1,0c0,-1,0,-1,0,-1c0,0,0,-1,0,-1c0,0,0,-1,0,-1c1,-1,1,-1,1,-1c0,-1,0,-1,1,-1c0,0,1,-1,1,-1c1,0,1,1,1,1c1,0,1,1,1,1l0,1c0,1,0,1,-1,2l0,1c0,0,1,0,1,0l1,0ZM239.5,442.5c0,-1,1,-1,1,-1c0,0,1,0,1,0c1,0,1,0,2,0c0,0,0,1,0,1c0,0,0,1,0,1c-1,0,-1,1,-1,1c0,0,-1,0,-1,0l-1,0l-1,0l2,-1c1,0,1,0,2,0c-1,-1,-1,-1,-1,-1c-1,0,-1,0,-1,0c0,0,-1,0,-1,0c0,0,-1,1,-1,1l0,-1ZM235.5,451.5l-1,-1l-1,2l-1,-1l0,-2l2,1l1,-1l1,1ZM235.5,454.5c-1,0,-1,0,-1,1c-1,0,-1,0,-1,0c0,1,0,1,0,1c0,0,1,0,1,1c1,0,1,-1,1,-1c1,0,1,0,1,0c0,-1,0,-1,0,-1c-1,-1,-1,-1,-1,-1ZM231.5,443.5l4,-2l0,1c0,0,-1,0,-1,0l-4,2ZM222.5,444.5l1,0c0,0,1,0,1,0c1,0,1,0,1,0c1,0,1,0,1,1l-1,1c0,0,-1,0,-1,0c0,0,0,1,0,1c0,0,-1,0,-1,0l-1,0l2,-1c0,0,1,0,1,-1l-1,0c-1,0,-1,0,-2,0l-1,0c0,0,1,0,1,0c0,0,0,-1,0,-1ZM208.5,463.5l1,0l1,0c1,0,2,0,3,-1c0,0,1,-1,1,-1c0,-1,1,-1,1,-2c0,0,1,0,1,0c0,-1,0,-1,0,-1c0,-1,0,-1,0,-1l-1,0l0,-1l0,-2l1,0c0,1,0,1,0,2l0,1l0,1c0,0,0,1,0,1l0,1l0,1c0,0,-1,0,-1,1l-1,1l-1,0c0,1,0,1,-1,1l-1,0l-1,0c0,0,0,-1,0,-1c-1,0,-1,0,-1,0ZM215.5,467.5l-4,2c0,0,0,-1,0,-1l4,-2ZM274.5,458.5l1,0l1,0c0,0,0,-1,0,-1l0,-1l0,-1l0,-7c0,-1,0,-1,0,-2l1,0c0,1,0,1,0,1l1,0c0,1,0,1,-1,1c0,1,0,1,0,1c0,1,0,1,0,2c0,0,0,1,0,3c0,0,0,1,0,1l0,1c0,0,0,1,0,1c0,0,0,1,0,1c-1,1,-1,1,-1,1c0,0,-1,0,-1,0c0,0,-1,0,-1,1l-1,0c0,0,-1,0,-1,-1l-1,0c0,-1,0,-1,0,-1c0,0,-1,0,-1,0c0,0,0,1,0,1c-1,0,-1,0,-2,0c0,0,0,1,0,1l-1,0c0,0,-1,-1,-1,-1c-1,0,-1,0,-1,-1c0,1,0,1,0,1l0,1l-1,1l-1,0l-1,0l-1,-1l0,-1c-1,-1,-1,-1,-1,-1c0,-1,0,-1,0,-1c-1,0,-1,1,-1,1l-1,0l-1,0l-1,0l0,-2l1,-1l1,-1c1,0,1,0,1,-1l0,-1l1,-1l0,1c0,1,0,1,1,2c0,1,0,1,0,2l0,1l0,1l1,0c0,1,0,1,0,1l1,0c0,1,0,1,0,1c1,0,1,0,1,0c0,-1,0,-1,0,-1c0,-1,0,-2,0,-2c0,-1,0,-2,0,-3l0,-1c0,-1,-1,-2,-1,-2c0,-2,0,-3,0,-3l1,-2l1,10c0,1,0,1,0,1c0,0,1,0,1,0c0,1,0,1,0,1c1,0,1,0,1,0c1,0,1,0,1,0c1,0,1,0,2,-1c0,0,1,0,1,0c0,0,1,1,1,1l1,0l1,0ZM275.5,443.5l4,-2l0,1c-1,0,-1,0,-1,0l-4,2ZM272.5,463.5l-2,-1l-1,1l-1,-1l1,-1l1,1l1,-2l1,1ZM267.5,442.5c1,-1,1,-1,1,-1c1,0,1,0,2,0c0,0,1,0,1,0c1,0,1,1,1,1c0,0,-1,1,-1,1c0,0,0,1,-1,1c-1,0,-1,0,-1,0l-1,0l1,-1c1,0,2,0,2,0c0,-1,-1,-1,-1,-1l-1,0c0,0,-1,0,-1,0c0,0,0,1,-1,1l0,-1ZM262.5,443.5l4,-2l0,1l-4,2ZM259.5,450.5l-1,0l-1,1l-2,-1l1,-2l2,1l0,-1l2,1ZM260.5,454.5l-1,0l0,1l-1,0c-1,1,-1,1,-1,1l1,0l1,0l1,0ZM259.5,440.5l0,-1c0,0,1,0,1,0c1,0,1,1,1,1c0,0,0,1,0,1l-1,0c0,1,0,1,0,1l1,0l0,1l-1,0l-1,0l0,1c-1,0,-1,0,-1,0l0,1l-1,0l-1,0l1,-1l1,0l0,-1l1,0l0,-1c-1,0,-1,0,-1,-1l1,-1ZM260.5,441.5l0,-1l-1,0l0,1l1,0ZM306.5,457.5c0,1,0,2,0,2c0,0,0,1,0,1l-1,0c0,1,0,1,0,1l1,0l0,1l-1,0l0,1c0,0,-1,0,-1,0l0,1c-1,0,-1,0,-2,0l0,1l-1,0l-1,0l-1,0l0,1l-1,1l-1,0l-3,0l-1,-1c0,0,0,-1,-1,-1c-1,0,-2,0,-2,-1l-1,0l-1,0l0,-1l-1,0l0,-1l-1,0l0,-1l1,0l-1,-1l0,-1l0,-1l-1,-1l0,-1l1,0l0,-1l0,-1l1,-1l-1,0l0,-1l1,0l0,-1l1,0l0,-1l1,0l2,-1l1,0l1,0l0,-1l1,-1l0,-1l3,0l1,1l1,1l1,1l2,0l0,1l1,0l1,0l0,1l1,0c0,1,1,1,1,1c0,0,0,1,0,1l-1,0l0,1l1,0l0,1l0,1ZM297.5,467.5l1,0l0,-1l1,0l1,-1c0,0,1,0,1,0l1,-1c0,0,1,0,1,-1l1,0l1,-1l1,0l-1,-1l-1,0l1,0l0,-1l1,0l0,-1l0,-1l0,-1c0,-1,0,-2,0,-2l0,-1l-1,0l0,-1l1,-1c-1,0,-1,0,-2,-1l-1,0l0,-1l-1,0l-1,0l-1,-1c-1,0,-1,0,-1,-1l-1,0l0,-1l-1,0l-1,0l-2,0l0,1l-1,0c0,1,0,1,-1,1l-1,1l-1,0l-1,0l0,1l-1,0l-1,0c0,1,0,1,-1,1l1,1l0,1l-1,0l0,1l0,1c0,0,0,1,0,1l0,1l0,1l0,1l1,0l0,1l-1,1l1,0l0,1l1,0l1,0l0,1l1,0l1,1l1,0c1,0,1,0,1,1l1,0l0,1ZM303.5,452.5l-1,1l0,-1l-1,0l0,-1l-1,0l0,-1l1,0l0,1l1,0l1,1ZM303.5,462.5l0,1l-1,0l-1,0l0,1l-1,0c0,-1,0,-1,0,-1l1,0c1,-1,1,-1,1,-1l1,0ZM299.5,464.5c0,0,0,1,-1,1l-1,0l-3,0c-1,0,-1,0,-1,-1c0,0,0,-1,1,-1l3,0c1,0,1,0,1,0l1,0l0,1ZM299.5,450.5c0,0,0,1,-1,1l-1,0l-3,0l-1,0l0,-1c0,0,0,-1,1,-1l3,0c1,0,1,0,1,0c0,0,1,0,1,1ZM297.5,453.5l1,0c0,0,0,-1,0,-1c0,0,1,0,1,0c1,0,1,0,1,0c0,0,1,1,1,1l1,1l1,-1c0,0,0,1,0,1l1,0l0,1l0,1l0,1l0,1l0,1c0,1,-1,1,-1,1c0,0,0,1,0,1l-1,-1l-1,1l-1,1l-1,0c-1,0,-1,0,-1,0l0,-1l-1,0l-3,0l0,1c0,0,-1,0,-1,0c-1,0,-1,0,-1,0c-1,-1,-1,-1,-1,-1l-1,0l0,-1l-1,1l0,-1l-1,-1l0,-1l0,-1c0,0,0,-1,0,-1c0,0,0,-1,0,-1l0,-1l1,0c0,0,0,-1,0,-1l1,1l1,-1l1,-1l1,0l1,0l0,1ZM297.5,461.5l1,0c0,0,0,1,1,1l1,0l0,-1l1,0l0,-1c0,0,1,0,1,0l1,0l0,-1l1,-1l0,-1c0,-1,0,-1,0,-2c0,0,-1,0,-1,-1l-1,0l-1,0l0,-1l-1,0l0,-1l-1,0c0,0,-1,0,-1,1l-1,0l-3,0l-1,-1c0,0,-1,0,-1,0c0,0,0,1,0,1l-1,0l0,1c-1,0,-1,0,-1,0l-1,0l-1,1l0,1l0,1c0,0,0,1,0,1l0,1c1,1,1,1,1,1l1,0l1,0l0,1l1,0l0,1l1,0c0,0,1,0,1,-1l3,0ZM297.5,455.5l0,1l-1,0l0,1l0,1c0,1,0,1,0,1l0,1l0,-1l-1,0l0,-1l0,-1l0,-1l0,-1c0,1,1,1,1,1c1,0,1,0,1,-1ZM289.5,452.5l0,-1l1,0l1,0l0,-1l1,0l0,1l-1,0l0,1l-1,0l0,1l-1,-1ZM289.5,462.5c1,0,1,0,1,1l1,0l1,0l0,1l-1,0c-1,-1,-1,-1,-2,-1l0,-1ZM349.5,460.5l0,-2l0,-1l0,-8l1,-3l0,11c0,0,0,1,0,1c0,1,-1,1,-1,2ZM341.5,458.5c1,0,1,0,2,0c1,0,1,-1,1,-1l0,-1l0,-1l0,-7l-1,0c0,-1,0,-1,1,-2c0,1,0,1,1,1c0,1,0,1,0,1c0,1,0,1,0,1c0,1,0,1,0,2c0,0,0,1,0,3c0,0,0,1,0,1l0,1c0,0,0,1,0,1c0,0,0,1,0,1c0,0,-1,0,-1,0c0,1,0,1,0,1c-1,0,-1,0,-1,0c-1,0,-1,1,-1,1l-1,0l-1,0l-1,0c0,0,-1,-1,-1,-1c-1,0,-1,0,-1,0c-1,0,-1,0,-2,0c-1,0,-2,1,-2,1l-1,0l-2,0c0,0,0,-1,0,-1c0,0,-1,0,-1,0l0,-1c-1,0,-1,0,-1,-1l0,1l-1,1c0,0,-1,0,-1,0c-1,0,-1,0,-2,0l-1,0c0,0,-1,0,-1,0c0,0,0,-1,0,-1l0,-1l0,-1c0,0,0,1,1,1l1,0l1,0l1,0l1,0c1,0,1,0,1,0l0,-1l0,-1l0,-2l-1,-1l1,-1l0,-1l1,2l0,1l0,3l0,1c0,0,1,0,1,1c0,0,1,0,1,0l1,0l1,0l1,0c1,0,1,0,1,0c0,-1,0,-1,0,-1c0,0,0,-1,0,-1c0,0,0,-1,0,-1c0,-1,0,-1,1,-1c0,-1,0,-1,0,-1c1,0,1,-1,2,-1c0,0,1,1,1,1c0,0,0,1,0,1l0,1c0,1,0,1,0,2l-1,1c0,0,1,0,1,0c1,0,1,0,1,0ZM342.5,442.5c0,-1,0,-1,1,-1c0,0,1,0,1,0c0,0,1,0,1,0c1,0,1,1,1,1c0,0,0,1,-1,1c0,0,0,1,0,1c0,0,-1,0,-1,0c-1,0,-1,0,-1,0l-1,0l2,-1c0,0,1,0,1,0c0,-1,0,-1,-1,-1c-1,0,-1,0,-2,0c0,0,0,1,-1,1l0,-1l1,0ZM338.5,451.5l-1,-1l-1,2l-2,-1l1,-2l2,1l0,-1l2,1ZM337.5,454.5l-1,1c0,1,0,1,0,1l1,1c0,0,1,-1,1,-1l1,0c0,-1,-1,-1,-1,-1c0,-1,0,-1,-1,-1ZM333.5,443.5l5,-2l-1,1l-4,2ZM324.5,444.5c1,0,1,0,1,0c1,0,1,0,2,0c0,0,1,0,1,0c0,0,1,0,1,1l-1,0l0,1c0,0,-1,0,-1,0c0,0,0,1,-1,1l-1,0l1,-1c1,0,1,0,2,-1c-1,0,-1,0,-1,0c0,0,-1,0,-1,0c0,0,-1,0,-1,0c0,0,-1,0,-1,0c0,0,0,-1,0,-1ZM311.5,463.5c0,0,1,0,1,0l1,0c0,0,1,0,2,-1c1,0,1,-1,2,-1c0,-1,0,-1,1,-2c0,-1,0,-1,0,-1c0,-1,0,-1,0,-1l0,-1l-1,0l1,-2c0,1,1,1,1,2l0,1l0,1c0,0,0,1,0,1l0,1l-1,1l0,1c0,0,-1,0,-1,1l-1,0c-1,1,-1,1,-1,1c-1,0,-1,0,-1,0l-1,0c0,0,-1,-1,-1,-1l-1,0ZM318.5,467.5l-5,2c1,0,1,-1,1,-1l4,-2ZM376.5,458.5c1,0,1,0,1,0c1,0,1,0,1,0c0,0,1,-1,1,-1l0,-1l0,-1l-1,-7c0,-1,0,-1,0,-2c1,0,1,0,1,0c0,1,0,1,0,1c1,0,1,0,1,0c0,1,0,1,0,1c0,1,0,1,0,1c0,1,0,1,0,2c0,0,0,1,0,3c0,0,0,1,0,1l0,1c0,0,0,1,0,1c0,0,0,1,0,1c-1,0,-1,0,-1,0c0,1,0,1,0,1l-1,0l-1,0l0,1l-1,0c-1,0,-1,0,-1,-1c-1,0,-1,0,-1,0l-1,0c0,-1,0,-1,0,-1c-1,0,-1,1,-1,1c0,0,-1,0,-1,0c0,0,0,1,-1,1c-1,0,-1,-1,-2,-1l0,-1c0,1,0,1,0,1c0,0,-1,0,-1,1l0,1c-1,0,-1,0,-1,0c0,0,-1,0,-1,0c-1,0,-1,0,-1,-1l-1,0l0,-1c0,-1,0,-1,0,-1c0,-1,0,-1,0,-1l-1,0c0,0,0,1,0,1c0,0,-1,0,-1,0l-1,0c0,0,-1,0,-1,0l-1,0l0,-2c0,0,1,0,1,-1c0,0,1,0,1,-1c0,0,1,0,1,0l0,-1c1,0,1,0,1,0l0,-1l0,-1c1,0,1,0,1,1c0,1,0,1,0,2c0,1,0,1,0,2l0,1c1,0,1,0,1,0l0,1c0,1,0,1,0,1c1,0,1,0,1,0c0,1,1,1,1,1c0,-1,1,-1,1,-1c0,-1,-1,-2,-1,-2c0,-1,0,-2,0,-3l0,-1c0,-1,0,-2,0,-2c0,-2,0,-3,0,-3l1,-2l1,10c0,1,0,1,0,1c1,1,1,1,1,1l1,0c0,0,1,0,1,0c0,0,1,0,1,-1c0,0,1,0,1,0l1,0c0,0,0,1,0,1c1,0,1,0,2,0ZM377.5,443.5l4,-2l0,1l-4,2ZM374.5,463.5l-1,-1l-1,1l-1,-1l0,-1l2,1l1,-2l1,1ZM370.5,442.5c0,-1,1,-1,1,-1c0,0,1,0,1,0c1,0,1,0,2,0c0,0,0,1,0,1c0,0,0,1,0,1c-1,0,-1,1,-1,1c0,0,-1,0,-1,0l-1,0l-1,0l2,-1c1,0,1,0,2,0c-1,-1,-1,-1,-1,-1c-1,0,-1,0,-1,0c0,0,-1,0,-1,0c0,0,-1,1,-1,1l0,-1ZM365.5,443.5l4,-2l0,1c0,0,-1,0,-1,0l-4,2ZM362.5,450.5l-2,0l-1,1l-1,-1l1,-2l1,1l1,-1l2,1ZM362.5,454.5l0,1l-1,0l-1,0c0,1,0,1,0,1l1,0l1,0ZM361.5,440.5l1,-1l1,0c0,0,0,1,0,1c0,0,0,1,0,1c0,1,0,1,0,1l0,1l-1,0l-1,1l-1,0l0,1l-1,0l1,-1c0,0,1,0,1,-1l1,0l-1,-1l0,-1l0,-1ZM362.5,441.5l0,-1l0,1ZM400.5,459.5c0,0,-1,0,-1,0l-1,0l-1,-1l-1,0c0,1,0,1,0,1l-1,0l0,1l-1,0l-1,0c-1,0,-2,-1,-2,-1c-1,-1,-1,-1,-1,-2l-1,-8l1,-3l1,10l0,1c1,1,1,1,2,1l1,0l1,0c0,0,1,0,1,0l0,-1l1,-1c0,0,0,-1,1,-1c0,-1,1,-1,1,-1c0,0,1,0,1,1c0,0,0,1,0,1l0,1l1,0l0,1l-1,0c0,1,0,1,0,1ZM398.5,457.5l1,0c0,0,0,-1,0,-1l-1,0l0,1ZM395.5,446.5l4,-2l0,1l-4,2ZM155.5,363.5c0,1,0,2,-1,2c0,0,0,1,0,1l0,1c-1,0,-1,0,-1,0l1,1l-1,1l-1,0l0,1c0,0,-1,0,-2,1l-1,0l-1,0l0,1l-1,0l0,1l-1,0c0,1,0,1,0,1l0,-1l1,-1l1,-1c0,0,1,0,1,0l1,0l0,-1c1,0,1,0,2,0l0,-1c0,0,1,0,1,0l0,-1l1,0l-1,-1l0,-1l1,0l0,-1l0,-1l0,-1c0,-1,0,-2,0,-2l0,-1c0,0,-1,0,-1,-1l1,-1c0,0,-1,0,-1,-1l-1,0l-1,-1l-2,0l-1,-1c0,0,-1,0,-1,0l-1,-1l0,-1l1,1l1,0l0,1l2,0l0,1l1,0l1,0l0,1l1,0c1,1,1,1,1,1l0,1l-1,0l1,0l0,1l0,1l1,1ZM151.5,358.5l0,1l-1,-1l-1,0l0,-1c0,0,-1,0,-1,0l0,-1l1,0l0,1c1,0,1,0,1,0c0,0,1,0,1,1ZM151.5,368.5l0,1l-1,0l0,1l-1,0l-1,0c0,-1,0,-1,0,-1c0,0,1,0,1,0l1,0c0,-1,1,-1,1,-1ZM147.5,370.5c0,0,0,1,0,1c-1,0,-1,0,-1,0l0,-2l1,0l0,1ZM147.5,356.5c0,0,0,1,0,1c0,0,-1,0,-1,0l0,-2l1,0c0,0,0,1,0,1ZM146.5,359.5l0,-1c1,0,1,0,1,0c1,0,1,0,2,1l1,1l1,-1c0,0,0,1,1,1l0,1l0,1l0,1l0,1l0,1l0,1c-1,0,-1,1,-1,1l-1,-1c0,0,0,1,0,1l-1,0l0,1l-1,0l-1,0c-1,0,-1,0,-1,-1l0,1c1,0,1,0,1,0l1,0l0,-1l1,0l1,-1l1,0l1,-1l0,-1l0,-1c0,0,0,-1,0,-1c0,-1,0,-1,-1,-2l-1,0l-1,-1l-1,0l0,-1l-1,0c0,0,0,1,-1,1ZM135.5,363.5l0,-1c0,-1,0,-1,1,-2l0,-1l-1,0c0,-1,0,-1,0,-1c0,0,1,0,1,0l1,-1l1,0l0,-1l1,0l1,-1l2,0l0,-1l1,-1c1,0,1,0,1,0l-1,1l0,1c-1,0,-1,0,-1,0l-2,1l-1,0l-1,0l0,1l-1,0c0,1,-1,1,-1,1l1,1l-1,1l0,1l-1,1c0,0,0,1,0,1l0,1l0,1l1,0l0,1l1,1l-1,1l1,1l1,0l0,1l1,0l1,1l2,0l1,1l0,1c1,0,1,0,1,0l0,1c0,0,0,-1,-1,-1l-1,-1c0,0,0,-1,0,-1c-1,0,-2,0,-3,0l0,-1l-1,0l0,-1l-1,0l-1,-1l-1,0l2,-1l-1,0l0,-1l-1,-1l0,-1ZM138.5,358.5l1,0l0,-1l1,0l1,-1l1,0l0,1c-1,0,-1,0,-1,0c-1,0,-1,0,-1,1l-1,0l0,1l0,-1l-1,0ZM138.5,368.5l1,0l1,1l1,0l1,0l-1,1c0,0,1,0,1,0c0,0,-1,0,-1,0c-1,0,-2,-1,-2,-1l-1,-1ZM143.5,370.5c0,0,0,-1,0,-1l1,0l0,2c0,0,-1,0,-1,0c0,-1,0,-1,0,-1ZM143.5,356.5l0,-1l1,0l0,2c0,0,-1,0,-1,0l0,-1ZM144.5,359.5l-1,0l-1,-1l0,1c-1,0,-1,0,-1,0l-1,0l0,1l-1,0c0,0,-1,0,-1,0l0,1l0,1l0,1c0,1,0,1,0,1l0,1c0,1,0,1,1,1l1,0l0,1l1,0l1,1c1,0,1,0,1,0c0,-1,1,-1,1,-1l0,1l-1,0l-1,0c0,0,-1,0,-1,0c0,0,-1,-1,-1,-1l0,-1l-1,1l-1,0l0,-1l0,-1l-1,-1l0,-1c0,0,0,-1,0,-1l1,-1l0,-1c0,0,0,-1,1,-1l1,1l0,-1l1,0c0,-1,1,-1,1,-1c1,0,1,0,1,0l1,0l0,1ZM274.5,350.5l0,1l1,0l0,-1c0,1,1,1,1,1l0,-1l1,-1l0,1l0,1c0,1,0,1,-1,1c0,0,-1,0,-1,0c0,1,-1,1,-1,1l-1,-1l0,-1l0,-1ZM275.5,348.5c0,-1,0,-1,0,-2c-1,0,-1,-1,-1,-1l0,-1l1,0l0,1l0,1l0,1c0,0,0,1,0,1ZM239.5,536.5l0,-1l1,0c0,0,-1,-1,-1,-1c0,-1,0,-2,0,-2l0,-1c1,0,1,0,1,1c0,0,0,1,0,1l0,1c0,1,0,1,0,1l-1,1ZM238.5,538.5l0,1c1,0,1,0,1,0c0,0,1,0,1,-1l0,-1l0,1l1,0c1,0,1,0,1,-1l0,-1l0,1l0,1l0,1c0,0,0,1,0,1l-1,0l-1,0l0,-1l0,1c-1,0,-1,1,-1,1c-1,0,-1,0,-1,-1l0,-1l0,-1ZM301.5,540.5l-1,-1l0,-1l2,1ZM302.5,542.5l-1,-1l-1,1l-1,-1l1,-1l1,1l1,-1l1,1ZM157.5,503.5l0,-1l1,0ZM158.5,505.5l-1,0l-1,0c0,0,-1,0,-1,0l0,-1l0,-1l-1,0c0,0,1,0,1,-1l0,-1c1,0,1,-1,1,-1l-1,0l0,-1c0,0,1,0,1,0l1,1l1,0c0,0,1,0,1,0l-1,0l-1,0l-1,0c0,0,0,1,0,1c0,0,-1,0,-1,0c0,1,0,1,0,1c0,0,0,1,0,1l0,1c0,0,1,0,1,0c0,1,0,1,1,1l1,0l1,0l1,0ZM186.5,397.5l-1,-1l1,0Z" class="g2_59" />
</svg>