<?xml version="1.0" encoding="UTF-8" standalone="no"?>
<!DOCTYPE svg PUBLIC "-//W3C//DTD SVG 1.1//EN"
"http://www.w3.org/Graphics/SVG/1.1/DTD/svg11.dtd">
<svg version="1.1" xmlns="http://www.w3.org/2000/svg" xmlns:xlink="http://www.w3.org/1999/xlink">
<defs>
<style type="text/css"><![CDATA[
.g1_32{
stroke: #1F1A17;
stroke-width: 1;
stroke-linecap: butt;
stroke-linejoin: miter;
}
]]></style>
</defs>
<path fill-rule="evenodd" d="M182.5,175.5l-4,2c1,-1,1,-1,1,-1l4,-2ZM69.5,262.5c0,1,0,1,0,2l-1,1c0,0,0,1,-1,1l2,0l-1,1l-1,0c0,0,0,1,0,1l-1,0c0,1,-1,1,-1,1l-1,0l0,1l-1,0l-1,0l-1,1l-1,1l-3,0l-1,0l-3,0c-1,0,-1,0,-1,0l-1,-2l-1,0c-1,0,-1,-1,-2,-1l-1,0l0,-1l-1,0l0,-1l-1,0l-1,0l0,-1l1,0l0,-1l-1,-1l0,-1l0,-1l0,-1c0,0,0,-1,0,-1l0,-1c0,0,1,-1,1,-1l-1,-1l1,-1l1,0l0,-1l1,0l1,-1l1,0l1,-1c1,0,1,0,1,0l1,-1c0,0,0,-1,1,-1l3,0l1,0l3,0l1,1l1,1l2,1l1,0c0,1,1,1,1,1l1,0l0,1c1,0,1,1,2,1l-1,1l0,1l1,0l0,1l0,1ZM60.5,272.5l0,-1l1,0l0,-1l1,0c1,0,1,-1,2,-1l1,0c0,0,0,-1,1,-1l1,0c0,-1,0,-1,0,-1l1,0l0,-1l-1,0l0,-1l1,0l0,-1l1,-1l0,-1c0,-1,0,-2,-1,-3c0,-1,0,-1,0,-1l-1,0l0,-1l1,0c0,0,-1,-1,-1,-1l-1,0l0,-1l-1,0l-1,-1l-2,0c0,0,0,-1,-1,-1l0,-1l-1,0l0,-1l-3,0l-1,0l-3,0l0,1l-1,0l-1,1c0,0,0,1,0,1l-2,0l-1,1l-1,0l-1,0l0,1c-1,0,-1,1,-2,1l2,0l0,1l-1,0l0,1l-1,0l0,1l0,1l0,1l0,1l0,1l1,0c0,1,0,1,0,1l1,1l-2,0l1,1l1,0l0,1l1,0l1,1l1,0l1,1c1,0,1,0,1,0l1,1c0,1,1,1,1,1l3,0l1,0ZM66.5,257.5l-1,0l-1,0l0,-1l-1,0c-1,0,-1,0,-1,0c0,0,0,-1,0,-1l1,0l1,0l0,1l1,0l0,1ZM66.5,267.5l-1,0l0,1l-1,0l-1,0l0,1l-1,0l0,-1c1,0,1,0,1,0l1,0l0,-1c0,0,1,0,1,-1l1,0ZM61.5,269.5l0,1c0,0,-1,0,-1,0l-3,0l-1,0l-3,0c-1,0,-1,0,-1,0c0,-1,0,-1,0,-1c-1,0,-1,0,-1,0c0,-1,1,-1,1,-1l1,-1l3,0l1,0l3,0l1,1ZM61.5,255.5l0,1l-1,0l-3,0l-1,0l-3,0c-1,0,-1,0,-1,0l0,-1l-1,0c0,-1,1,-1,1,-1l1,-1l3,0l1,0l3,0c0,0,1,1,1,1l0,1ZM60.5,257.5l1,0l1,0c0,0,1,0,1,0l1,1l1,0c0,0,1,0,1,1l0,1l1,0l0,1l0,1l0,1l-1,0l0,1c0,0,0,1,0,1l-1,0l-1,0l-1,1l-1,0l0,1l-1,0c0,0,0,-1,0,-1c0,0,-1,0,-1,0l-3,0l-1,0l-3,0l-1,0l-1,1c0,0,-1,-1,-1,-1c0,0,-1,0,-1,0l0,-1l-1,0l-1,0l-1,-2l0,-1c0,-1,0,-1,0,-1c0,-1,0,-1,0,-1l0,-1l1,0c0,-1,0,-1,0,-1l2,0l1,-1c0,0,1,0,1,0c0,0,1,0,1,0l1,0l3,0l1,0ZM60.5,266.5l1,0l1,0l1,0l1,-1l1,0l1,-1l0,-1l0,-1c0,-1,0,-1,0,-2c0,0,0,-1,0,-1c0,0,-1,-1,-1,-1l-1,1l-1,-1l0,-1l-1,0c-1,0,-1,0,-1,0c-1,0,-1,0,-1,0l0,1l-3,0l-4,0l-1,-1l-1,0l-1,0l0,1l-1,0c0,1,0,1,-1,1l-1,-1c0,0,0,1,0,1l-1,1l0,1l0,1l0,1l1,0l0,1c0,0,0,1,0,1l1,0c1,0,1,0,1,0l0,1l1,0l1,0c1,0,1,0,1,0l1,0l3,0l1,0l3,0ZM58.5,260.5l0,1l1,0l0,1l0,1l1,0l-1,1l-1,-1l0,-1l0,-1c0,1,0,1,0,1l-1,1l0,1l-1,0l0,-1c1,0,1,0,1,-1l1,-1l0,-1ZM54.5,261.5l0,1l0,1l0,1c0,-1,-1,-2,-1,-3l0,-1l1,0l0,1l1,0c0,-1,0,-1,0,-1c0,0,0,1,1,1l0,-1c0,0,0,1,0,1l-1,0l-1,0ZM47.5,257.5l0,-1l1,0l1,0l0,-1l1,0l1,0l-1,0c0,0,0,1,1,1c-1,0,-1,0,-1,0l-1,0l-1,1l-1,0ZM47.5,267.5l0,-1l1,0c0,1,0,1,1,1l1,1l0,1l0,-1l-1,0c0,0,-1,0,-1,-1l-1,0ZM142.5,264.5l0,-1l0,-1l-1,-8l1,-3l1,11c0,1,0,1,0,1c-1,1,-1,1,-1,1ZM134.5,263.5c1,0,1,0,1,0c1,0,1,-1,1,-1c0,0,1,0,1,0l0,-1l0,-2l-1,-6c0,-1,0,-1,0,-1l0,-1c1,0,1,0,1,0l0,1c1,0,1,0,1,0c0,0,0,1,0,1c0,0,0,1,0,1c0,0,0,1,0,2c0,0,0,1,0,2c0,1,0,1,0,2l0,1l0,1l0,1c-1,0,-1,0,-1,0l0,1l-1,0l-1,0l-1,0l-1,0c0,0,-1,0,-1,0l-1,-1c0,1,0,1,-1,2c0,0,-1,0,-1,-1l-1,0l-2,-1l-1,1l-2,0l-1,0c-1,0,-1,0,-1,0l-1,0l0,-1c0,0,-1,0,-1,0c-1,0,-1,0,-1,0c0,1,-1,1,-1,1l-1,0l-2,0c0,1,0,1,0,1c0,1,0,1,0,2c0,0,-1,0,-1,1c0,0,-1,0,-1,1l-1,0c-1,1,-1,1,-1,1c0,0,-1,0,-1,0c-1,0,-1,-1,-2,-1l-1,0l0,-1c1,1,1,1,1,1c0,0,1,0,1,0c0,0,1,0,1,0c1,-1,1,-1,2,-1c0,0,0,-1,0,-1c1,0,1,0,1,0c0,-1,1,-1,1,-1c0,-1,0,-1,0,-1c0,-1,0,-1,0,-1l-1,0c0,0,-1,0,-1,0c0,0,0,-1,0,-1c0,-1,0,-1,0,-1c0,0,0,-1,0,-1l0,-1c1,0,1,0,1,0c0,-1,0,-1,1,-1l0,1c0,0,1,0,1,0c0,0,0,1,0,1c0,1,1,1,1,2l1,0c0,0,1,0,1,0c0,-1,1,-1,1,-1l1,0c0,0,0,-1,0,-1l1,0l0,1l1,0c0,1,0,1,1,1l1,0l2,0l0,-1l1,0c0,0,0,-1,0,-1c2,-1,2,-2,3,-2l1,1l1,1l0,1l1,0l1,1l1,0ZM134.5,246.5c1,0,1,0,1,0c1,0,1,0,2,0c0,0,1,0,1,0c1,0,1,0,1,1c0,0,-1,0,-1,1l-1,0c0,1,0,1,0,1c-1,0,-1,0,-1,0l-1,0l1,-1c1,0,2,0,2,-1c0,0,-1,0,-1,0l-1,0c0,0,-1,0,-1,0l-1,0c0,0,0,-1,0,-1ZM130.5,263.5l0,-1c-1,-1,-1,-1,-1,-1l-1,0l-1,0c1,1,1,1,2,1ZM128.5,248.5l1,0c0,-1,0,-1,0,-1c1,0,1,0,1,0c0,1,0,1,0,1c0,0,0,1,0,1c0,1,0,1,0,1l0,2l-1,-1l-1,1l-1,1l-1,0l0,-1l1,0l1,-1l0,-1l0,-1l0,-1ZM129.5,249.5l0,-1c0,0,-1,0,-1,1l1,0l0,1l0,-1ZM120.5,259.5l-1,-1l-1,1l-2,-1l1,-1l2,1l0,-1l2,1ZM117.5,251.5l4,-2l0,1l-4,2ZM112.5,261.5c0,0,0,1,0,1l-1,0c0,0,1,0,1,0c0,0,1,1,1,1l0,-1c0,0,0,-1,0,-1c0,0,-1,0,-1,0ZM109.5,255.5l4,-3l0,1c0,0,-1,0,-1,0l-4,3ZM108.5,251.5c0,0,-1,1,-2,1c-1,1,-2,1,-4,2c-1,0,-2,1,-2,1c0,0,-1,0,-1,0c0,1,0,1,0,1l1,0l2,1c0,0,1,1,1,2c0,0,1,0,1,1c0,0,0,1,0,1c0,1,0,1,0,2c0,0,-1,0,-1,0c0,1,0,1,0,1c-1,0,-1,0,-1,0c-1,0,-1,0,-2,0c-1,0,-1,0,-2,0c0,0,-1,-1,-1,-2c0,1,0,1,-1,2l-1,0l-1,0c0,1,0,1,-1,1c0,1,0,1,0,2c0,0,-1,0,-1,1l-1,1c-1,0,-1,0,-1,0c0,1,-1,1,-1,1l-1,0c0,0,-1,-1,-2,-1l-1,0c1,0,1,0,1,0l0,-1c0,1,0,1,1,1c1,0,1,0,1,0c1,-1,1,-1,2,-1c0,0,0,-1,1,-1c1,-1,1,-1,1,-1c0,-1,0,-1,0,-1c0,0,1,0,1,0c0,-1,0,-1,0,-1c-1,0,-1,0,-1,0c-1,0,-1,0,-1,0c-1,0,-1,-1,-1,-1c0,-1,0,-1,0,-1c0,0,0,-1,0,-1l0,-1c0,0,1,0,1,0c1,-1,1,-1,1,-1l1,1c0,0,0,1,0,1c0,0,1,0,1,0c0,1,0,1,0,2c0,0,1,0,1,0c0,0,1,0,1,0c0,-1,1,-1,1,-1c0,0,0,-1,0,-1c0,-1,0,-1,0,-1c0,0,0,-1,0,-1l0,-7l0,-2l1,11l0,1l1,0c0,1,0,1,1,1l1,0c0,0,0,-1,1,-1l1,0c0,0,1,-1,1,-1c0,0,-1,0,-1,-1c0,0,-1,-1,-1,-1c-1,0,-1,-1,-1,-1c0,0,-1,0,-1,0c0,0,-1,0,-1,0c0,0,0,-1,0,-1c0,0,-1,0,-1,-1l1,-1l0,-1c0,0,1,0,1,0c0,-1,1,-1,3,-2c1,-1,2,-1,4,-2c1,0,1,0,2,0ZM102.5,246.5l0,1c0,0,1,0,1,0l0,-1c0,0,0,1,0,1c1,0,1,0,1,0c0,0,0,-1,0,-1l0,-1l1,0l0,1l0,1c0,0,-1,1,-1,1l-1,0c-1,0,-1,1,-1,1c0,0,-1,-1,-1,-1l0,-1l0,-1ZM105.5,267.5l-5,3c1,-1,1,-1,1,-2l4,-2ZM97.5,245.5c0,0,0,-1,0,-1c0,0,1,0,1,0c1,0,1,0,1,1l0,1c-1,0,-1,0,-1,1l1,0l0,1l-1,0l-1,0c-1,1,-1,1,-1,1l-1,0c-1,0,-1,0,-1,0l1,0l1,-1l1,0l0,-1c-1,0,-1,-1,-1,-1c0,0,0,-1,1,-1ZM98.5,245.5l-1,0l0,1l1,0c0,0,0,-1,0,-1ZM92.5,261.5c-1,0,-1,0,-1,0c0,0,0,1,0,1c1,0,1,1,1,1l0,-1c1,0,1,0,1,0l-1,0c0,0,0,-1,0,-1ZM80.5,258.5l-1,-1l1,-1l1,1ZM80.5,267.5c0,0,-1,0,-2,0c0,0,-1,0,-1,0c0,-1,-1,-1,-1,-2c0,0,0,-1,0,-1c0,-1,0,-1,0,-1c0,0,0,-1,0,-1l0,-1c0,0,1,0,1,-1l1,0c-1,0,-1,0,-1,1l0,1c0,0,0,1,0,1c0,0,0,1,0,1l1,1l1,0c0,0,1,0,2,0c0,0,1,0,2,0c0,0,1,-1,1,-1l1,0c0,-1,0,-1,0,-1l0,-1l0,-1c-1,0,-1,0,-1,0c0,-1,0,-1,0,-1c0,-1,0,-1,0,-1l-1,-1l1,-1c0,0,1,1,1,1c0,1,0,1,0,1c0,0,0,1,0,1c0,0,1,1,1,1c0,1,0,1,0,1c0,1,-1,2,-1,2c0,1,0,1,-1,2c-1,0,-1,1,-2,1c-1,0,-1,0,-2,0ZM76.5,251.5l5,-2l-1,1l-4,2ZM208.5,267.5l-1,-1l-1,2l-1,-1l1,-2l1,1l1,-1l1,1ZM206.5,264.5l-1,0l-1,0l-1,0c0,0,-1,0,-1,0l-1,0l0,-1l-1,0c-1,1,-1,1,-2,1l-1,0l-1,0c0,1,0,1,0,1c0,1,0,1,-1,2l0,1c-1,0,-1,0,-1,1c-1,0,-1,0,-1,0c0,0,-1,0,-1,0c0,1,0,1,0,1c-1,0,-1,0,-1,0l-1,0c0,0,-1,-1,-1,-1c-1,0,-1,0,-1,0l0,-1c0,1,0,1,1,1c1,0,1,0,2,0c0,-1,1,-1,1,-1c0,0,1,-1,1,-1l1,0c0,-1,0,-1,0,-1c0,-1,1,-1,1,-1c0,-1,0,-1,0,-1c0,0,-1,0,-1,0l-1,0c0,0,-1,-1,-1,-1c0,-1,0,-1,0,-1c0,0,0,-1,0,-1c1,0,1,0,1,-1c0,0,1,0,1,0c0,-1,0,-1,0,-1c0,0,1,0,1,1c0,0,1,1,1,1c0,1,0,1,0,2c1,0,1,0,1,0c0,0,1,0,1,0l1,0c0,-1,0,-1,1,-1c1,0,1,-1,1,-1c0,0,1,0,1,1c0,1,1,1,1,1l1,0l1,0l1,0l1,-1c1,0,1,0,1,0l0,-1c0,-1,0,-1,-1,-1l1,-2l0,1c0,0,1,0,1,0c0,0,0,1,0,1c0,0,0,1,0,1l0,1l0,1c0,0,-1,0,-1,0c0,1,0,1,-1,1c0,0,-1,0,-1,0ZM206.5,251.5l4,-2l-1,1l-4,2ZM202.5,259.5l-2,-1l-1,1l-1,-1l1,-1l1,1l1,-1l1,1ZM198.5,251.5l5,-2l-1,1l-4,2ZM194.5,261.5c-1,0,-1,0,-1,0c0,0,0,1,0,1c0,0,1,0,1,0c0,0,0,1,1,1l0,-1c0,0,-1,-1,-1,-1ZM190.5,255.5l4,-3l0,1l-4,3ZM185.5,263.5c0,0,-1,0,-2,0c0,0,-2,0,-4,0c-1,1,-2,1,-2,1l-1,0c0,0,-1,0,-1,0c-1,0,-3,0,-5,0c-1,0,-2,0,-3,0c-1,0,-2,0,-3,0l-1,0c0,0,-1,0,-1,0c0,0,-1,-1,-1,-2l0,2l0,1c0,0,0,1,0,1c-1,1,-1,1,-1,2c-1,0,-1,0,-1,0c0,1,-1,1,-1,1c0,0,-1,0,-1,0c-1,0,-1,0,-2,0l-1,0l-1,0c0,0,-1,0,-1,-1l-1,-1l0,-1c0,-1,0,-1,0,-2c1,0,1,-1,1,-1l0,-1l1,0l-1,1c0,0,0,1,0,1c0,0,0,1,0,1c0,1,0,1,1,2c0,0,1,0,2,0c1,0,2,0,3,0c1,-1,2,-1,2,-1c0,0,0,-1,0,-1l0,-1l0,-2c0,-1,0,-1,0,-2l0,-1l0,-7l1,-2l0,11c1,1,1,1,1,1c1,1,1,1,1,1l1,0c0,0,1,0,1,0c1,0,2,0,3,0c1,0,2,-1,3,-1c1,0,3,0,4,0l2,0c1,0,2,0,3,0c1,0,2,0,4,-1c1,0,2,0,2,0c1,0,1,0,1,0l-1,0c0,-1,0,-1,0,-1c0,0,-1,0,-1,0c0,0,-1,0,-1,0c-1,0,-2,0,-4,0c-2,0,-4,0,-6,1c-2,0,-4,0,-5,0c-2,0,-3,0,-3,-1l-1,0c1,-1,1,-1,1,-2c0,0,0,-1,1,-1l1,-1c0,-1,1,-1,2,-2c1,-1,2,-1,3,-1c0,-1,0,-1,0,-1l0,2c0,0,-1,0,-1,1c-1,0,-2,1,-3,1c-1,1,-2,2,-2,2c0,1,0,1,0,1c0,0,1,0,1,0c0,0,1,0,1,0c0,0,1,0,1,0c1,0,3,0,5,0c2,0,4,0,5,-1c2,0,4,0,4,0c0,0,1,0,1,0c0,0,1,0,1,1c1,0,1,0,1,0l0,1c1,0,1,0,1,1c0,0,0,1,-1,1c0,1,0,1,0,1ZM170.5,248.5l0,1c0,0,1,0,1,0l1,-1c0,0,0,1,0,1l1,0c0,0,0,-1,0,-1l0,-1l0,1l0,1c0,0,0,1,0,1l-1,0l-1,0c0,0,0,1,0,1c-1,0,-1,-1,-1,-1l0,-1l0,-1ZM174.5,245.5l-5,3c0,-1,0,-1,0,-1l6,-3ZM154.5,248.5l1,0c0,-1,0,-1,0,-1c1,0,1,0,1,0c0,1,0,1,0,1c0,0,0,1,0,1c0,1,0,1,0,1l0,2l-1,-1l-1,1l-1,1l-1,0l0,-1l1,0l1,-1l0,-1l0,-1l0,-1ZM155.5,249.5l0,-1c0,0,-1,0,-1,1l1,0l0,1l0,-1ZM244.5,261.5c-1,0,-1,1,-2,1c-1,1,-3,1,-4,2c-1,0,-2,0,-3,0c-1,0,-1,0,-2,0c0,0,-1,-1,-1,-2c0,1,0,1,0,2c-1,0,-1,0,-1,0l-1,0l-1,0c-1,0,-1,0,-1,0c0,-1,-1,-1,-1,-1l-1,0c0,1,-1,1,-1,1l-1,0c-1,0,-1,0,-2,0l-1,0c0,-1,0,-1,0,-1l0,-1l0,-1l-1,1l-1,1l-1,0c0,0,-1,0,-1,0l-1,-1l0,-1c1,0,1,-1,2,-1c0,-1,0,-1,1,-2c1,0,1,0,1,0l0,-1l0,-1l1,0l0,1c0,0,0,1,0,1c0,0,0,1,0,1l1,2c0,0,0,1,0,1c0,0,1,0,1,1l1,0c0,0,1,0,1,0c0,-1,1,-1,1,-1c0,0,1,0,1,0c0,0,0,-1,0,-1c1,0,1,0,1,0l0,1c1,1,1,1,1,1l1,0c0,0,1,0,1,0c0,-1,1,-1,1,-1c0,0,0,-1,0,-1c0,-1,0,-1,0,-1c0,0,0,-1,0,-1l0,-7l0,-2l1,11l0,1l1,0c0,1,0,1,1,1l1,0c0,0,0,-1,0,-1c1,0,1,0,2,0c-1,0,-1,-1,-1,-1c0,0,0,-1,0,-1c0,-1,0,-1,0,-1l0,-1c0,0,0,-1,0,-1c0,0,1,0,1,0l0,-1c1,0,1,0,1,0c0,0,1,0,1,0c1,0,1,0,1,0c1,0,1,0,1,0c0,0,0,1,0,1c1,0,1,0,1,0l0,1l-1,-1l-1,0l-1,0l-1,0l0,1l-1,0l0,1c0,0,0,1,0,1c1,1,2,1,2,1c0,0,1,0,1,0l1,0l1,-1l1,0l1,-1ZM236.5,251.5l4,-2l0,1l-1,0l-4,2ZM229.5,248.5l5,-2l-1,1l-4,2ZM228.5,267.5l-1,0l-1,1l-2,-1l1,-2l2,1l1,-1l1,1ZM224.5,246.5c0,0,1,0,1,0c0,0,1,0,1,0c1,0,1,0,2,0l0,1l0,1c-1,0,-1,0,-1,0c-1,1,-1,1,-1,1c0,0,-1,0,-1,0c0,0,-1,0,-1,0l2,-1c1,0,1,0,1,-1c-1,0,-1,0,-1,0c-1,0,-1,0,-1,0c-1,0,-1,0,-1,0c0,0,0,-1,0,-1ZM220.5,259.5l-1,1c-1,0,-1,0,-1,1l1,0l1,0l0,-1l1,0ZM221.5,267.5l-4,3c0,-1,0,-1,0,-2l4,-2ZM277.5,264.5l0,-1l0,-1l0,-8l1,-3l0,11c0,1,0,1,0,1c0,1,0,1,-1,1ZM273.5,264.5c-1,0,-1,0,-1,0c0,0,-1,0,-1,-1c0,0,-1,-1,-1,-1c0,0,0,1,-1,1c0,1,-1,1,-1,1c-1,0,-1,0,-2,0c0,-1,-1,-2,-1,-3l0,1c0,0,0,1,-1,1c0,0,-1,0,-1,0c-1,0,-1,0,-2,0l0,-1c0,0,0,-1,0,-1c0,0,1,-1,1,-1c0,0,1,-1,2,-1l1,-1l0,-1c0,-1,0,-1,1,-1l0,1l0,1l0,3c0,1,0,1,1,1l1,0c0,0,1,0,1,0c0,0,0,-1,1,-1c0,-1,0,-1,-1,-2c0,-1,0,-1,0,-2c0,0,0,-1,0,-1l0,-1l1,-1l0,2l0,2l1,2c0,1,0,1,0,1c0,0,1,1,1,1l1,0c1,0,1,-1,1,-1c0,0,0,-1,-1,-1l0,-2l0,-1l-1,-1l1,0l0,-1l0,-1c0,1,0,1,0,1c0,1,1,1,1,2l0,2c0,0,0,1,0,1c0,1,0,2,0,2c0,1,0,1,-1,1c0,1,0,1,0,1ZM265.5,259.5l-1,0c0,1,0,1,0,1c0,0,-1,0,-1,0c0,0,0,1,-1,1c1,0,2,0,2,0c1,0,1,0,1,0ZM326.5,262.5l-2,0c0,0,-1,0,-1,0l-1,0c0,0,-1,0,-1,0l-1,0l-1,1l-1,0c0,0,0,1,-1,1c-1,0,-2,0,-2,0l-1,0l-1,0l-1,0c0,-1,0,-1,0,-1c0,0,0,-1,0,-1l0,1c-1,0,-1,0,-1,0c-1,1,-1,1,-1,1c-1,0,-2,0,-2,-1c-1,1,-1,1,-2,1c-1,0,-1,0,-2,-1c-1,1,-2,1,-3,1c0,0,-1,0,-1,0l-1,0c0,0,0,-1,0,-1c-1,0,-1,0,-1,-1c0,0,-1,1,-1,1c-1,0,-1,1,-1,1c0,1,0,1,0,1c0,0,1,0,2,0l1,1l0,1c0,0,0,1,0,1l-1,1c0,0,-1,1,-2,1c-2,1,-3,1,-4,1c-1,0,-1,0,-1,0c0,0,-1,0,-1,-1c-1,0,-2,0,-2,0c0,-1,-1,-1,-1,-2c0,0,0,-1,0,-2c0,0,0,-1,0,-2c0,0,1,-1,1,-1c0,0,0,-1,0,-1l1,1c0,0,-1,1,-1,1c0,1,0,1,0,2c0,1,0,1,1,2c1,0,1,1,3,1c1,0,1,0,1,0l1,0l1,0c0,-1,0,-1,0,-1c1,0,1,0,1,0c0,0,1,0,1,0c1,-1,1,-1,1,-1c0,0,-1,0,-1,0c-1,0,-2,0,-2,-1c-1,0,-1,0,-1,0c0,0,0,-1,0,-1c0,-1,0,-1,0,-1c1,-1,1,-2,2,-2c1,-1,2,-1,3,-1c0,1,1,1,1,1c0,0,1,1,1,1l1,0l1,-1c1,0,1,-1,2,-1l0,1c0,0,1,0,1,1c0,0,1,-1,1,-1c1,0,1,0,1,-1l1,-1c0,1,0,1,0,2c0,0,1,0,1,0c0,0,1,0,1,0l0,-1c1,0,1,0,1,-1c0,2,1,3,2,3l1,0l1,0c0,-1,1,-1,1,-1c1,0,1,0,1,0l2,-1l1,0l-1,0l-1,-1l-1,0l-1,0l-1,0l-1,0c1,0,1,-1,1,-1c0,0,1,-1,1,-1l1,0l1,0l1,1l2,0l0,1c1,0,1,0,1,0c1,0,1,0,2,0l1,0l1,0ZM318.5,251.5l4,-2l-1,1l-4,2ZM305.5,253.5c0,0,1,0,1,0c1,0,1,0,1,0c1,0,1,0,2,0l0,1c0,0,0,1,0,1c0,0,-1,0,-1,0c0,0,0,1,0,1c0,0,-1,0,-1,0l-1,0l-1,0l2,-1c1,0,1,0,2,-1c-1,0,-1,0,-1,0c0,0,-1,0,-1,0c0,0,-1,0,-1,0c0,0,-1,0,-1,0l0,-1ZM301.5,269.5l-1,-1l1,-2l1,1ZM303.5,270.5l-4,2c0,-1,0,-1,0,-1l4,-2ZM289.5,255.5l5,-3l-1,1l-4,3ZM351.5,254.5l-1,0l-1,1l-1,-1l1,-1l1,0l1,-1l1,1ZM353.5,262.5c0,0,-1,1,-1,1c-1,1,-1,1,-2,1c-1,0,-1,0,-2,0l-1,0c0,0,-1,0,-1,0c-1,0,-1,-1,-1,-2l0,2l0,1c0,0,0,1,0,1c-1,1,-1,1,-1,2c-1,0,-1,0,-1,0c0,1,-1,1,-1,1c-1,0,-1,0,-1,0c-1,0,-1,0,-2,0l-1,0l-1,0c0,0,-1,0,-1,-1c0,0,-1,0,-1,-1l0,-1c0,-1,0,-1,0,-2c0,0,1,-1,1,-1l0,-1l1,0l-1,1c0,0,0,1,0,1c0,0,0,1,0,1c0,1,0,1,1,2c0,0,1,0,2,0c1,0,2,0,3,0c1,-1,2,-1,2,-1c0,0,0,-1,0,-1l0,-1l0,-2c0,-1,0,-1,0,-2l0,-1l0,-7l1,-2l0,11c0,1,1,1,1,1c1,1,1,1,1,1l1,0c1,0,1,0,2,-1c1,0,1,0,2,0c0,-1,0,-1,0,-1l0,-1c0,0,-1,1,-1,1l-1,0l-1,0c0,-1,0,-1,0,-1l0,-1c0,0,0,-1,0,-1c0,-1,0,-1,0,-1c1,-1,1,-1,2,-1l1,0c0,0,0,1,0,1c0,0,0,1,1,1c0,1,0,1,0,1c0,1,0,1,0,2c0,0,0,1,0,1ZM350.5,258.5c0,1,0,1,0,1c0,0,1,0,1,0c0,-1,0,-1,0,-1c0,0,-1,0,-1,0ZM349.5,245.5c0,0,0,-1,0,-1c1,0,1,0,1,0c1,0,1,0,1,0l0,1l0,1l0,1l0,1l-1,0l-1,0c0,1,-1,1,-1,1l-1,0l1,-1l1,0l0,-1c0,0,0,-1,0,-1c0,0,0,-1,0,-1ZM350.5,245.5c0,0,-1,0,-1,0l1,1c0,0,0,-1,0,-1ZM335.5,253.5l1,0c0,0,1,0,1,0c1,0,1,0,2,0l0,1c0,0,0,1,0,1c-1,0,-1,0,-1,0c0,1,0,1,0,1c-1,0,-1,0,-1,0c0,0,-1,0,-1,0c0,0,-1,0,-1,0l2,-1c0,0,1,0,1,-1c-1,0,-1,0,-1,0c-1,0,-1,0,-2,0l0,1l0,-1l0,-1ZM402.5,268.5l0,-1c0,0,1,0,1,0l1,1c0,0,1,-1,2,-1c1,-1,1,-1,1,-1c1,-1,1,-1,2,-2l0,-1c0,-1,0,-1,0,-1l0,-1l-1,0l0,-1l0,-1l1,-1l0,1c0,0,1,1,1,1l0,1l0,1c0,1,0,1,0,2c0,0,0,1,0,1c0,0,-1,0,-1,0c0,1,0,1,0,1c0,1,-1,1,-1,1c0,0,0,1,-1,1c-1,0,-1,0,-1,0c-1,0,-1,0,-1,0l-1,0c0,0,-1,0,-1,0l-1,0ZM405.5,255.5l4,-3l0,1c-1,0,-1,0,-1,0l-4,3ZM392.5,259.5c0,0,1,0,1,0l0,-1l1,0l1,0c1,0,1,0,1,0c1,0,1,0,2,0l-2,-1l-1,0c-1,0,-1,-1,-2,-1l-1,1c1,-1,1,-1,1,-2c1,0,1,0,2,0c0,0,1,0,2,1l2,1c0,0,1,1,1,1l1,0l1,1l1,0l1,0l-1,1l-1,0l-2,0l-1,0l-2,-1c-1,0,-1,0,-2,0c-1,0,-1,0,-1,0c0,0,-1,0,-1,0c0,0,1,0,1,0c0,1,0,1,0,2l0,1l0,1l0,1c-1,0,-1,0,-1,0l-1,0c0,-1,0,-1,-1,-1l-1,0c0,0,0,1,-1,1l-1,0l-2,0c-1,0,-1,0,-1,0l-1,-1l-1,0c0,1,-1,1,-1,1l-1,0c-1,0,-1,0,-2,0l-1,0c0,-1,0,-1,0,-1l0,-1l0,-1l-1,1l-1,1l-1,0c0,0,-1,0,-1,0l-1,-1l0,-1c1,0,1,-1,2,-1c0,-1,0,-1,1,-2c1,0,1,0,1,0l0,-1l0,-1l1,0l0,1c0,0,0,1,0,1c0,0,0,1,0,1l1,2c0,0,0,1,0,1c0,0,1,0,1,1l1,0c0,0,1,0,1,0c0,-1,1,-1,1,-1l1,0c0,0,0,-1,0,-1l1,0l0,1c1,1,1,1,1,1l2,0l1,0l1,-1l1,-1c0,-1,0,-1,1,-1l0,-1ZM393.5,250.5l1,-1l1,0c0,0,1,0,1,1c1,0,1,0,1,0c0,1,-1,1,-1,1c0,1,0,1,0,1c-1,0,-1,0,-1,0c-1,0,-1,0,-1,0l-1,0l1,0c1,-1,2,-1,2,-1l-1,0c0,0,0,-1,-1,-1c0,0,0,1,-1,1l-1,0c0,0,0,-1,0,-1c0,0,1,0,1,0ZM392.5,261.5l0,1l1,0l0,-1l-1,0c-1,0,-1,0,-1,0c0,0,1,0,1,0ZM389.5,255.5l4,-3l0,1l-1,0l-4,3ZM385.5,259.5l-2,-1l0,1l-2,-1l1,-1l2,1l0,-1l2,1ZM386.5,267.5l-5,3c1,-1,1,-1,1,-2l4,-2ZM377.5,259.5l-1,1c-1,0,-1,0,-1,1l1,0l1,0l0,-1l1,0ZM376.5,270.5c0,-1,0,-1,-1,-2c0,-1,0,-1,0,-2l1,0l0,1l0,1c0,0,0,1,0,1c0,1,0,1,0,1ZM88.5,253.5c0,0,0,-1,1,-1c0,0,1,0,1,0c1,0,1,0,2,0c0,1,0,1,0,1c0,1,0,1,-1,1c0,0,0,1,0,1l-1,0c0,0,-1,0,-1,0c-1,0,-1,0,-1,0l2,0c0,-1,1,-1,1,-1c0,0,0,-1,0,-1c-1,0,-1,0,-1,0c-1,0,-1,0,-2,1c0,-1,0,-1,0,-1ZM248.5,260.5l0,-1l1,0c0,0,0,-1,0,-1l0,-1l0,-1l0,-1l-1,-1l1,-1l0,1c0,0,0,1,0,1l0,1l0,1l0,1l0,1l1,-1l1,-1l1,0c1,0,1,1,1,1c0,1,0,1,0,1c-1,0,-1,0,-1,0c-1,1,-1,1,-2,1l-1,0ZM251.5,258.5l-1,0l0,1l-1,0l1,0c1,0,1,0,1,0c0,0,1,0,1,-1l-1,0ZM361.5,261.5l0,-1l1,0l0,-1c0,0,1,0,1,0l0,-1l0,-1l-1,-2l0,-1l1,0l0,1l0,1l0,1l0,1l0,1l1,-1c1,0,1,0,1,0c1,0,1,0,1,0c0,0,1,0,1,0l0,1l-1,0c0,1,0,1,0,1l-1,0l-1,0c0,0,-1,1,-1,1ZM365.5,258.5c0,0,0,1,-1,1l-1,0l0,1c1,0,1,0,1,0c1,0,1,0,1,-1c0,0,1,0,1,0l0,-1c-1,0,-1,0,-1,0ZM260.5,251.5c0,0,1,-1,1,-1l1,0c0,0,1,0,1,1l-1,1l0,1l1,0l0,1l-2,0c-1,1,-1,1,-1,1l-1,0l-1,0l1,0l0,-1c1,0,1,0,1,0l1,-1l-1,0c0,0,0,-1,0,-1c0,0,0,-1,0,-1ZM261.5,251.5l0,1l1,0c0,-1,0,-1,0,-1ZM236.5,114.5l0,-1c0,0,0,-1,0,-1c0,-1,0,-1,-1,-2l1,0l0,-1c0,0,0,1,0,1c0,1,1,1,1,1l0,1c0,0,0,1,0,1c-1,0,-1,1,-1,1ZM228.5,114.5c0,-1,-1,-1,-1,-2c0,0,0,-1,0,-1l0,-1c1,0,1,0,1,1l0,1l0,1l0,1ZM67.5,125.5l0,-1l0,-2l0,-8l1,-3l0,11c0,0,0,1,0,1l0,1c0,0,-1,0,-1,1ZM63.5,124.5c-1,0,-1,0,-1,0c0,0,-1,0,-1,0c-1,-1,-1,-1,-1,-2c0,1,0,1,-1,2c0,0,-1,1,-2,1c0,0,-1,-1,-1,-1c-1,0,-1,-1,-1,-2c0,1,-1,1,-1,1c0,0,-1,0,-2,0c0,0,-1,0,-1,0l0,-1l0,-1l1,-1c0,0,1,0,1,-1l1,0l1,0l0,-1l0,-1l0,-1l1,1l0,2l0,2c0,0,0,1,0,1c1,1,1,1,2,1l1,-1l0,-1c0,0,0,-1,0,-2c0,-1,0,-1,0,-2c0,0,0,-1,0,-1l0,-1l1,-1l0,3l0,2l0,1l0,1c1,0,1,0,1,0c0,1,0,1,1,1l1,0l0,-1l0,-1l0,-1l0,-1l-1,-1l0,-1l1,0l0,-1l0,1c0,0,0,1,0,1l1,2c0,1,0,1,0,2c0,0,0,1,0,2c0,0,-1,0,-1,1ZM55.5,120.5l-1,0c-1,0,-1,0,-1,1c0,0,-1,0,-1,0c1,0,2,0,2,0c0,0,1,0,1,0ZM131.5,123.5c1,0,1,0,1,0c0,0,1,0,1,0c0,0,1,0,1,-1l0,-2l-1,-7c0,-1,0,-1,0,-1c0,-1,1,-1,1,-1c0,1,0,1,0,1c0,0,1,0,1,1l0,1l-1,0c0,1,0,1,0,2c0,0,1,1,1,3c0,0,0,1,0,1l0,1c0,0,0,1,0,1c0,1,-1,1,-1,1l0,1c0,0,-1,0,-1,0l-1,1l-1,0l-1,0c-1,0,-1,-1,-1,-1c-1,0,-1,0,-1,0c0,0,0,-1,0,-1c0,0,-1,0,-1,0c0,1,0,1,0,1c0,0,-1,0,-1,1c0,0,-1,0,-1,0l-1,0l-1,0c-1,0,-2,0,-2,-1c-1,0,-1,0,-1,0c-1,0,-1,0,-2,0c0,1,-1,1,-2,1l-1,0l-1,0l0,1l0,1c-1,0,-1,1,-1,1c0,0,-1,1,-1,1l-1,1c-1,0,-1,0,-1,0c0,0,-1,0,-1,0c-1,0,-1,0,-2,0c0,0,0,-1,-1,-1c1,0,1,0,1,0c0,0,1,0,1,0c0,0,1,0,1,0c1,0,1,0,1,-1c1,0,1,0,1,0c1,-1,1,-1,1,-1c0,0,0,-1,1,-1l0,-1c0,0,-1,0,-1,0c0,-1,-1,-1,-1,-1l0,-1c-1,0,-1,0,-1,0l1,0c0,-1,0,-1,0,-1l0,-1c0,-1,1,-1,1,-1l1,0c0,0,1,0,1,1c0,0,0,1,0,1c0,0,0,1,0,1c1,0,1,0,2,0c1,0,1,0,1,0l1,0c0,0,0,-1,0,-1c0,0,0,-1,0,-1l0,-1c1,-1,1,-1,1,-1c0,0,0,-1,1,-1c0,0,1,-1,1,-1c1,0,1,1,1,1c0,0,1,1,1,1l0,1c0,1,-1,1,-1,2c0,0,0,1,0,1l1,0l1,0l1,0c0,0,1,0,1,0c0,0,1,0,1,-1c0,0,1,0,1,0c0,0,1,0,1,0c0,0,0,1,0,1c1,0,1,0,1,0l1,0ZM132.5,108.5l4,-2l0,1l-4,2ZM129.5,128.5l-1,-1l-1,1l-2,-1l1,-1l2,1l0,-1l2,0ZM126.5,115.5l4,-2c0,1,-1,1,-1,1l-4,2ZM121.5,116.5l-1,-1l-1,2l-2,-1l1,-2l2,1l1,-1l1,1ZM121.5,119.5c-1,0,-1,0,-1,1c-1,0,-1,0,-1,0l0,1c0,0,1,1,1,1c1,0,1,0,1,-1c0,0,1,0,1,0c0,-1,0,-1,-1,-1c0,0,0,-1,0,-1ZM121.5,105.5c0,-1,1,-1,1,-1c1,1,1,1,1,1c0,0,0,1,0,1l-1,0c0,1,0,1,0,1l1,0l0,2l-1,-1l-1,0l0,1c-1,0,-1,0,-1,1l-1,0l-1,0l1,-1l1,0l0,-1l1,0l0,-1c-1,0,-1,0,-1,-1l1,-1ZM122.5,106.5l-1,-1l0,1l1,0l0,1l0,-1ZM112.5,122.5c-1,0,-1,0,-1,0l1,1c0,0,1,0,1,0l0,-1c0,0,-1,0,-1,0ZM102.5,125.5c-1,1,-1,1,-1,1l0,1c0,0,0,1,0,1c0,0,-1,0,-1,1l-1,0c0,0,-1,1,-1,1c-1,0,-1,0,-2,0c-1,1,-2,1,-3,1c0,0,-1,0,-2,0c-1,1,-2,1,-2,1c-1,0,-2,0,-2,0l-1,0c0,0,-1,0,-1,0c-1,0,-2,0,-2,-1c-1,0,-2,0,-3,0c0,0,-1,0,-2,-1c-1,0,-2,-1,-3,-1c-1,-1,-2,-1,-3,-2l0,-1c0,0,-1,0,-1,0c0,0,1,0,1,0c0,0,1,0,1,0c0,1,0,1,1,1c0,0,1,1,2,1c1,0,1,0,2,1c0,0,1,0,1,0c1,0,1,0,2,1c1,0,1,0,2,0c1,0,1,0,2,0c1,0,1,0,2,0c0,0,1,0,2,0c0,0,1,0,2,0c0,0,1,0,2,0c1,-1,2,-1,3,-1c1,0,2,-1,2,-1c1,0,2,-1,2,-1c1,0,1,-1,1,-1c0,-1,0,-1,-1,-1l0,-1l0,-2l1,0l0,1l1,0c0,0,1,0,1,0l1,0l0,-1c0,0,1,0,1,0l-1,-2l0,-7c0,-1,0,-1,0,-1c0,-1,0,-1,1,-1c0,1,0,1,0,1l1,1l-1,1c0,1,0,1,0,2c0,0,0,1,0,3c0,0,0,1,0,1l0,1c0,0,0,1,0,1c0,1,0,1,0,1l0,1c0,0,-1,0,-1,0c0,0,-1,0,-1,1c0,0,-1,0,-1,0ZM105.5,105.5l1,0c0,-1,0,-1,0,-1l1,0c0,1,0,1,0,1c0,0,0,1,0,1c0,1,0,1,0,1l0,2l-1,-1l-1,1l-1,1l-1,0l0,-1l1,0l1,-1l1,0l-1,-1l0,-1l0,-1ZM106.5,106.5l0,-1c0,0,-1,0,-1,1l1,0l0,1l0,-1ZM88.5,125.5l-1,-1l1,-1l1,1ZM84.5,116.5l0,1l1,0l0,-1l1,0c0,1,0,1,0,1c1,0,1,0,1,-1l0,-1l0,1l0,1c0,1,0,1,0,1l-1,0l-1,0c0,0,0,1,-1,1l0,-1l0,-1l0,-1ZM88.5,114.5l-5,2c0,0,0,-1,0,-1l6,-3ZM195.5,121.5l-1,0c1,1,1,1,1,1l1,0c0,0,0,-1,0,-1c-1,0,-1,0,-1,0ZM195.5,128.5c0,1,0,1,0,1c-1,0,-1,0,-1,0c-1,0,-1,0,-2,0c-1,0,-1,0,-2,0l-1,0c0,0,0,-1,0,-1l1,0l0,1c0,0,1,0,1,0c0,0,1,0,1,0c0,0,0,-1,0,-1c1,0,1,0,1,0l1,0c0,0,0,-1,1,-1c0,0,0,-1,0,-1c1,0,1,0,1,-1c0,-1,1,-1,1,-1c0,-1,0,-1,0,-1l-1,0c0,1,0,1,0,1c0,0,-1,0,-1,0c0,0,-1,0,-1,0c0,0,0,-1,0,-1c-1,0,-1,-1,-1,-1l1,-1c0,0,0,-1,0,-1c0,-1,1,-1,1,-1l1,0c0,0,1,0,1,1l0,1l0,1l0,1c0,1,0,1,0,1c0,1,0,2,0,2c-1,1,-1,1,-1,1c0,1,-1,1,-1,1ZM192.5,115.5l5,-2l-1,0c0,1,0,1,0,1l-4,2ZM188.5,125.5l0,-1l0,-2l0,-8l1,-3l0,11c0,0,0,1,0,1l0,1l-1,1ZM173.5,106.5l4,-2l0,1l-4,2ZM183.5,107.5c0,0,0,-1,1,-1l1,0c0,0,1,0,1,0c0,0,0,1,0,1c0,0,0,1,0,1c0,0,-1,0,-1,0l0,1c0,0,-1,0,-1,0l-1,0l1,-1c1,0,1,0,2,-1l-1,0l-1,0l-1,0l0,1l0,-1ZM163.5,128.5l1,0l1,0c1,0,2,0,3,-1c0,0,0,-1,1,-1c0,0,1,-1,1,-1c0,-1,0,-1,0,-1c1,-1,1,-1,1,-1c0,0,0,-1,0,-1l-1,0l0,-1c0,0,-1,0,-1,0l1,-1l0,-1l1,1l0,1l0,1l0,1c0,0,0,1,0,1c0,0,0,1,0,1l0,1c-1,0,-1,1,-1,1l-1,1l-1,0l0,1c0,0,-1,0,-1,0c0,0,-1,0,-1,0c-1,0,-1,0,-1,0c-1,-1,-1,-1,-1,-1ZM165.5,114.5c0,0,1,0,1,-1c1,0,1,0,2,0c0,0,1,0,1,0c0,1,1,1,1,1c0,0,-1,0,-1,0c0,1,0,1,0,1c0,1,-1,1,-1,1l-1,0l-1,0l-1,0l2,0c1,-1,1,-1,2,-1c-1,0,-1,0,-1,0c0,-1,-1,-1,-1,-1c0,0,-1,1,-1,1c0,0,-1,0,-1,0c0,0,0,-1,0,-1ZM156.5,118.5l-1,-1l1,-2l1,1ZM154.5,125.5l0,1c0,0,0,1,0,1c0,0,-1,0,-1,0l0,-1l0,-1l-1,0c0,1,0,1,0,1c0,1,0,1,0,1c0,0,0,1,0,1c-1,1,-1,1,-1,1c0,1,-1,1,-1,1c0,0,-1,1,-1,1c0,0,-1,0,-1,1c-1,0,-1,0,-1,0c0,0,-1,0,-1,0c-1,0,-1,0,-2,-1c-1,0,-1,0,-2,0c0,-1,0,-1,0,-2c-1,0,-1,-1,-1,-1l0,-1c0,-1,0,-1,0,-1c0,0,1,0,1,0l0,-1c0,0,0,-1,1,-1c0,1,0,1,-1,2l0,1c0,0,0,1,1,1c0,1,0,1,0,1c1,0,1,1,2,1c1,0,1,0,1,0c1,0,1,0,2,0c0,0,1,-1,2,-1c0,0,0,-1,1,-1c0,-1,0,-1,0,-2c0,0,0,-1,0,-1c0,-1,0,-1,0,-2l0,-1l1,0c0,1,0,1,1,1l1,0l1,-1l2,-1l0,-1l1,0l1,-1c0,0,1,0,1,0c1,0,1,0,1,0c1,0,1,0,1,0c0,0,1,0,1,0c0,0,0,1,0,1c1,0,1,0,1,0c0,1,0,1,0,1c0,1,0,1,-1,2c-1,1,-1,1,-2,1l-1,0c0,1,-1,1,-1,1l-2,0l-1,0ZM159.5,121.5c0,0,-1,0,-1,0l0,1l-1,0l-1,0l-1,1l3,0c0,0,1,0,1,0c1,0,1,0,2,0c1,0,1,-1,1,-1l0,-1c-1,0,-1,0,-1,0c-1,0,-1,0,-1,0c-1,0,-1,0,-1,0ZM149.5,113.5l4,-2l0,1l-4,2ZM263.5,125.5l0,-1l0,-2l-1,-8l1,-3l1,11c0,0,0,1,0,1c-1,0,-1,0,-1,1l0,1ZM255.5,123.5c0,0,1,0,1,0l1,0l0,-1c1,0,1,0,1,0l-1,-2l0,-7c0,-1,0,-1,0,-1c0,-1,0,-1,1,-1c0,1,0,1,0,1l1,1l0,1c-1,0,-1,0,-1,0c0,1,0,1,0,2c0,0,0,1,0,3c0,0,0,1,0,1l0,1c0,0,0,1,0,1c0,1,0,1,0,1l0,1l-1,0c0,0,-1,0,-1,1l-1,0l-1,0l0,-1l-1,0l0,-1c0,0,-1,0,-1,-1l0,1c0,0,0,1,-1,1l-1,0c0,0,-1,0,-1,-1l-1,1c0,0,-1,1,-1,1c-1,0,-2,-1,-2,-2c0,0,0,1,-1,1c0,0,-1,1,-1,1l-1,0l-1,0c0,0,-1,-1,-2,-1c0,0,-1,1,-1,1c-1,0,-1,0,-2,0l0,-1l-2,-1l-1,1c0,0,0,1,-1,1l-1,0l-1,0l0,1l-1,1c0,0,0,1,0,1c-1,0,-1,1,-1,1c0,0,-1,0,-1,1l-1,0c-1,0,-1,0,-1,0l-1,0c0,0,-1,0,-1,0c0,0,-1,-1,-1,-1c0,0,1,0,1,0l1,0l1,0c0,0,1,0,1,-1c1,0,1,0,1,0c0,-1,1,-1,1,-1c0,0,0,-1,0,-1c1,0,1,0,1,-1l-1,0c-1,-1,-1,-1,-1,-1c0,0,-1,0,-1,-1c0,-1,0,-1,0,-1l1,-1c0,-1,0,-1,0,-1c1,0,1,0,1,0c1,0,1,0,1,0l1,1c0,0,0,1,0,1c0,0,0,1,0,1l1,0c1,0,1,0,1,0c0,0,1,0,1,0l1,-1l0,-1c1,-1,2,-1,3,-1l1,1l1,1l1,1l1,0l1,0l1,0l1,0c0,-1,1,-1,1,-2l1,0l0,1c0,0,0,1,1,1c0,0,1,0,1,-1c0,0,1,0,1,-1c0,0,1,1,1,1l1,0c1,0,1,0,1,0c0,-1,0,-1,0,-1l1,0c0,1,1,2,1,2l1,0ZM247.5,115.5l0,1c1,0,1,0,1,0c0,0,0,-1,1,-1l0,-1l0,1c0,0,1,0,1,0l0,-1l1,-1l0,1l0,1l-1,0c0,1,0,1,0,1l-1,0c-1,1,-1,1,-1,1c-1,0,-1,0,-1,0c0,0,0,-1,0,-1l0,-1ZM252.5,112.5l-6,3c0,-1,0,-2,1,-2l5,-2ZM238.5,123.5l-1,-1c0,0,0,-1,0,-1l-1,0l-1,1c0,0,1,0,1,1l1,0ZM228.5,122.5l-1,0l0,1c0,0,1,0,1,0l1,0l0,-1l-1,0ZM214.5,118.5l-1,1l-2,-1l-1,1l-1,-1l1,-1l1,1l1,-1ZM219.5,123.5c0,0,-1,0,-1,1c-1,0,-2,0,-4,1c-1,0,-2,0,-3,0c-2,0,-3,0,-4,0c-1,0,-2,-1,-2,-1c-1,0,-1,-1,-1,-1c0,-1,0,-1,0,-1l0,-1c0,0,0,-1,0,-1c0,-1,1,-1,1,-1l1,0c-1,0,-1,0,-1,1l0,1c0,0,0,1,0,1c0,0,1,0,2,1l1,0l1,0l1,0l2,0c0,0,1,0,2,0c1,0,1,0,1,0l1,0c1,-1,2,-1,2,-1c1,0,1,-1,2,-1l-1,-1l0,-1l0,-1l0,-1c1,1,1,1,1,2c0,1,0,1,0,1c0,1,0,1,0,1c0,1,0,1,-1,2ZM210.5,128.5l-5,2c1,-1,1,-1,1,-1l4,-2ZM289.5,117.5l-1,0l1,-2l1,1ZM298.5,120.5l-1,2l-1,0l-1,0l-1,0l-1,1l-1,0l-1,0l-1,1c-1,0,-1,0,-1,0l-1,0l0,1l-1,0l-1,0c0,0,-1,0,-1,-1c-1,0,-1,-1,-1,-1c0,0,-1,1,-1,1c0,0,-1,1,-1,1l-1,0l-1,1l0,1c-1,1,-1,2,-2,2c-2,1,-3,1,-4,1c-1,0,-1,0,-1,0c0,0,-1,0,-1,0c-1,0,-1,-1,-2,-1c0,-1,-1,-1,-1,-2l0,-1c0,0,1,0,1,-1c0,-1,0,-1,1,-2c0,-1,0,-1,0,-1l1,0l-1,0l0,1l0,1c0,1,-1,1,-1,2c0,0,1,1,1,1c0,0,0,1,0,1c0,0,1,0,1,0c1,0,1,0,2,0l1,0c0,0,1,0,1,0c1,0,1,0,2,0c0,-1,0,-1,1,-1c0,0,0,-1,1,-1c0,0,0,-1,0,-1l-2,0c0,0,-1,0,-1,-1c-1,0,-1,-1,-1,-1c0,-1,0,-1,0,-1c0,0,1,0,1,-1c0,-1,1,-1,1,-1c1,0,1,0,1,0c1,1,1,1,1,2c0,1,0,1,0,1l2,0c1,0,1,-1,2,-1c0,-1,0,-1,0,-1c0,0,0,-1,0,-1l-1,-7l1,-2l1,10c0,1,0,1,0,1l0,1c1,0,1,0,1,0c0,0,0,-1,0,-1c0,-1,1,-1,1,-1c0,-1,0,-1,0,-1l1,0c0,-1,0,-1,0,-1c1,0,1,0,1,0l1,0l1,0l1,0l1,1l2,0l1,0l1,0l1,0ZM293.5,121.5l-1,0c-1,0,-1,0,-2,0l-1,0c-1,0,-1,0,-1,0c0,0,0,1,-1,1l0,1l1,0c1,0,1,0,1,0l1,0l0,-1l1,0l1,0ZM290.5,112.5l4,-3l0,1l-1,1l-4,2ZM281.5,108.5l4,-2l0,1l-4,2ZM279.5,119.5l-2,-1l-1,1l-1,-1l1,-2l1,1l1,-1l2,1ZM277.5,122.5l0,1l1,0l1,0l0,-1c-1,0,-1,0,-1,0c-1,0,-1,0,-1,0ZM272.5,112.5l5,-3l-1,1l0,1l-4,2ZM322.5,124.5l-1,0c0,0,-1,0,-1,0l-1,-1l0,1c0,0,-1,0,-1,0l0,1l-1,0l-1,0l-1,0l0,1c0,1,0,2,0,2c-1,1,-1,1,-2,2c0,0,-1,1,-2,1c0,0,-1,1,-2,1c0,0,-1,0,-2,-1c0,0,-1,0,-1,0c-1,-1,-1,-1,-1,-2c0,0,-1,-1,-1,-1c0,-1,0,-1,0,-1l1,0c0,-1,0,-1,0,-1c0,-1,0,-1,0,-1c0,0,0,-1,0,-1c1,0,1,0,1,0c0,0,0,1,0,1l-1,1c0,0,0,1,0,1c0,0,0,1,1,1c0,0,0,1,0,1c0,0,1,0,1,0c1,1,2,1,2,1c1,0,2,0,3,-1c1,0,1,0,2,-1c0,0,0,-1,0,-1c0,-1,0,-1,0,-1c0,-1,0,-1,0,-1l0,-1c0,0,-1,0,-1,0l1,-2c0,1,1,1,1,1l1,0l1,0c1,0,1,0,1,0l1,-1l0,-1c1,0,1,-1,1,-1l1,0c0,-1,0,-1,0,-1c1,0,1,0,1,1c1,0,1,1,1,1l0,1l0,1c0,1,0,1,-1,1ZM320.5,122.5l1,0l1,0c0,0,0,-1,0,-1c-1,0,-1,0,-1,0c0,0,-1,0,-1,0c0,0,0,1,0,1ZM318.5,110.5l0,1c0,0,1,0,1,0l1,-1l0,1l1,0c0,0,0,-1,0,-1l0,-1l0,1l0,1c0,0,0,1,0,1l-1,0l0,-1l0,1l-1,0c-1,0,-1,0,-1,0l0,-1l0,-1ZM322.5,107.5l-5,3c0,-1,0,-1,0,-1l6,-3ZM310.5,122.5l-2,-1l1,-1l2,1ZM309.5,109.5c0,0,1,0,1,0c1,0,1,0,1,0c1,0,1,0,2,0l0,1c0,0,0,1,0,1c0,0,-1,0,-1,0c0,0,0,1,0,1c0,0,-1,0,-1,0l-1,0l-1,0l2,-1c1,0,1,0,2,-1c-1,0,-1,0,-1,0c0,0,-1,0,-1,0c0,0,-1,0,-1,0c0,0,-1,0,-1,0l0,-1ZM372.5,123.5l0,1c-1,0,-1,0,-1,0c0,0,-1,1,-1,1l-1,0l-1,0c0,0,-1,-1,-2,-1c0,0,0,-1,0,-2l-1,-8l1,-2l1,9l0,1c0,1,1,1,1,1l2,0c0,0,1,0,1,0c0,0,1,0,1,-1l1,-1l0,1l0,1c1,0,1,0,1,0c1,0,1,0,1,0c0,0,1,0,1,0c0,-1,0,-1,0,-1l1,0c0,0,0,-1,0,-1l0,-1l0,1l0,1c0,0,1,0,1,0l0,1l1,0l1,0c0,0,-1,-1,-1,-1l0,-2c1,1,1,1,1,1l0,1l0,1l0,1c-1,0,-1,1,-1,1c0,0,-1,0,-1,0l0,-1c0,0,-1,0,-1,0l-1,0c0,0,-1,0,-1,0l0,1c-1,0,-1,0,-1,0l-1,0c0,0,0,-1,0,-1c-1,0,-1,0,-1,0c0,-1,0,-1,0,-1ZM373.5,112.5l4,-3l0,1l-1,1l-4,2ZM365.5,105.5l4,-2l0,1l-4,2ZM358.5,123.5c1,0,1,0,1,0c0,0,1,0,1,0l1,-1l0,-2l-1,-7c0,-1,0,-1,0,-1c0,-1,1,-1,1,-1c0,1,0,1,0,1c0,0,1,0,1,1l0,1l-1,0c0,1,0,1,0,2c0,0,1,1,1,3c0,0,0,1,0,1l0,1c0,0,0,1,0,1c0,1,-1,1,-1,1l0,1c0,0,-1,0,-1,0l-1,1l-1,0l-1,0l-1,0c0,-1,0,-1,-1,-1c0,-1,0,-1,0,-1c0,1,-1,1,-1,1c0,0,-1,0,-1,1l-1,0l-1,0l-1,0l-1,0l1,0c0,0,0,1,0,1c0,0,0,1,0,1c0,1,0,1,-1,2c0,0,0,1,-1,1c0,0,-1,0,-1,-1c0,0,-1,0,-1,-1c0,-1,-1,-2,-1,-3c-1,0,-1,0,-1,0l-1,0c-1,0,-2,0,-2,-1l-1,0c0,0,0,1,-1,1c0,0,-1,0,-1,0c-1,0,-1,-1,-2,-1l0,1c-1,1,-1,1,-2,2c0,0,-1,0,-1,0c-2,0,-3,1,-4,1l4,-2l1,-1c1,0,1,-1,2,-1l1,-2c0,0,0,-1,0,-1c0,0,1,0,1,-1l1,0c0,0,0,1,1,1c0,1,1,1,1,2l1,0l1,0l1,0l1,0l1,0c0,-1,0,-1,0,-2l1,0c0,-1,0,-1,0,-1c1,-2,2,-2,2,-2l1,0l0,1l0,1c0,1,0,1,-1,2c0,0,-1,1,-2,1l2,0l2,0l1,0c1,0,1,0,1,0c1,0,1,0,1,-1l1,0c0,0,0,-1,0,-1l0,1c0,0,1,1,1,1c0,0,1,0,1,0l1,0ZM358.5,107.5c1,0,1,-1,1,-1c1,0,1,0,2,0c0,0,1,0,1,0c0,0,1,1,1,1l-1,0c0,1,0,1,0,1c0,0,-1,1,-1,1l-1,0l-1,0l1,0c1,-1,1,-1,2,-1c-1,0,-1,-1,-1,-1c0,0,-1,0,-1,0c0,0,-1,0,-1,1c0,0,-1,0,-1,0c0,-1,0,-1,0,-1ZM356.5,119.5l-2,-1l0,1l-2,-1l1,-1l1,0l1,-1l2,1ZM353.5,112.5l4,-3l0,1l0,1l-4,2ZM348.5,120.5c0,0,-1,0,-1,0l0,1l-1,2c1,-1,2,-1,2,-1c1,-1,1,-1,1,-2l-1,0ZM346.5,125.5c0,0,0,1,0,1c1,1,1,1,1,1l0,1l1,0c1,0,1,0,1,0c0,-1,0,-1,0,-1c0,0,0,-1,-1,-1c0,-1,-1,-1,-2,-1ZM348.5,109.5c0,0,0,-1,0,-1c1,0,1,0,1,0c0,0,1,0,1,0l0,1l0,1l0,1l0,1l-1,-1l0,1l-1,0c0,1,-1,1,-1,1l-1,0l1,-1l1,0l0,-1c0,-1,0,-1,0,-1c0,-1,0,-1,0,-1ZM349.5,109.5c-1,0,-1,0,-1,0l1,1l0,-1ZM339.5,123.5l0,-1c0,0,-1,0,-1,0c-1,0,-1,0,-1,1l1,0l1,0ZM411.5,121.5c0,1,0,1,0,1c1,0,1,0,1,0c0,0,0,-1,0,-1l-1,0ZM411.5,128.5c0,1,0,1,0,1c0,0,-1,0,-1,0c0,0,-1,0,-2,0c0,0,-1,0,-2,0c0,0,0,-1,0,-1l1,1c0,0,1,0,1,0c0,0,0,-1,1,-1c0,0,1,0,1,0c0,0,1,-1,1,-1c0,0,1,-1,1,-1l0,-1c1,-1,1,-1,1,-1c0,-1,0,-1,0,-1c0,0,-1,0,-1,0c0,1,0,1,0,1l-1,0l-1,0c0,0,0,-1,0,-1c0,0,0,-1,0,-1l0,-1c0,0,0,-1,0,-1c1,-1,1,-1,1,-1c0,0,1,0,1,0l1,0l0,1l0,1c0,0,1,0,1,1l0,1c0,1,0,1,0,1c0,1,-1,2,-1,2c0,1,-1,1,-1,1c0,1,0,1,-1,1ZM409.5,115.5l4,-2l-1,0c0,1,0,1,0,1l-4,2ZM402.5,125.5l0,-1c-1,0,-1,0,-1,0l0,-1l0,-1l0,-1c-1,0,-1,1,-2,1l-1,0c0,1,0,1,0,1l0,1c0,1,0,2,0,2c0,1,-1,2,-1,2c-1,1,-1,1,-2,1c-1,0,-1,1,-2,1c-1,0,-1,-1,-2,-1c0,0,-1,0,-1,0c0,-1,-1,-1,-1,-1c0,-1,0,-2,0,-2c0,-1,0,-1,0,-1c0,-1,0,-1,0,-1c0,-1,0,-1,0,-1c1,-1,1,-1,1,-1c0,0,0,1,0,1l0,1c-1,0,-1,1,-1,1c0,0,1,1,1,1c0,0,0,1,1,1c1,0,2,1,2,1c1,0,2,-1,2,-1c1,0,2,0,2,-1c1,-1,1,-1,1,-1c0,-1,0,-1,-1,-1c0,-1,0,-1,0,-1c0,-1,0,-1,0,-1c0,0,0,-1,-1,-1l1,-2l0,1c1,0,1,0,1,0l1,0l1,0l1,-1l0,-1c0,0,0,1,0,1l0,1l1,1l0,1l0,1c0,0,0,1,1,1c1,1,1,1,1,1c0,0,1,0,1,0c0,-1,0,-1,0,-1c0,0,0,-1,0,-2c0,-1,0,-2,0,-3l0,-1c-1,0,-1,-1,-1,-2c0,-1,0,-2,0,-3c0,-1,0,-1,0,-1c0,-1,1,-1,1,-1c0,1,0,1,0,1c0,0,1,0,1,1l0,1c0,1,0,1,0,2c0,0,0,1,0,3c0,0,0,1,0,1c0,0,0,1,0,1c0,2,0,2,0,2c0,1,0,1,0,1l0,1c-1,0,-1,1,-1,1c0,0,-1,0,-1,0c0,0,-1,0,-1,0l-1,-1ZM403.5,108.5l4,-2l0,1l-4,2ZM399.5,129.5l1,-1l0,-1l1,0l1,0l0,1l0,1l-1,-1c0,0,-1,0,-1,1l1,0l0,1c1,0,1,0,1,0l1,-1l0,1l-4,2l0,-1l1,0c0,-1,0,-1,0,-1c0,0,-1,0,-1,-1ZM403.5,132.5l-5,3c1,-1,1,-1,1,-2l4,-2ZM393.5,120.5l-1,-1l1,-1l1,1ZM183.5,125.5c-1,0,-1,0,-2,0c0,0,0,1,-1,1c0,0,-1,0,-1,0c-1,0,-1,0,-1,0c-1,0,-1,-1,-1,-1c0,0,0,-1,0,-1c1,0,1,0,1,0l1,0l0,-1c1,0,1,0,1,0c0,0,0,-1,1,-1c0,-1,0,-1,-1,-1c0,-1,0,-1,0,-1c-1,-1,-1,-1,-2,-2l-1,-1c0,0,-1,-1,-1,-1c-1,0,-1,0,-1,0c0,0,-1,0,-1,0c0,-1,0,-1,-1,-1c0,-1,0,-1,0,-1c0,-1,0,-1,0,-1c0,-1,0,-1,1,-1c0,0,1,1,1,1c1,0,1,1,2,1c0,1,1,2,2,2c0,1,1,2,1,3c1,0,1,0,1,1l1,1c0,-1,0,-1,0,-2c0,0,0,-1,0,-2c0,0,0,-1,0,-1c0,-1,0,-1,0,-2c0,0,0,-1,0,-1c0,-1,0,-1,0,-1c0,0,0,-1,0,-1c0,0,1,0,1,-1c0,0,0,1,0,1c0,0,0,1,0,1c1,0,1,0,1,0c0,0,0,1,0,1l0,1l-1,0c0,1,0,1,0,2c0,0,0,1,0,1c0,0,0,1,0,1c0,1,0,2,0,2c-1,1,-1,1,-1,1c0,1,0,1,0,1c1,1,1,1,1,1l0,1l0,1ZM181.5,122.5l0,1c0,1,0,1,-1,1c1,0,1,0,1,0l1,0c0,-1,0,-1,0,-1ZM391.5,110.5c0,-1,0,-1,1,-1c0,0,1,0,1,0c1,0,1,0,2,0c0,0,0,1,0,1c0,0,0,1,-1,1l0,1c-1,0,-1,0,-1,0c0,0,-1,0,-1,0c0,0,-1,0,-1,0l2,-1c0,0,1,0,1,0c0,-1,0,-1,0,-1c-1,0,-1,0,-1,0c-1,0,-1,0,-2,0c0,0,0,1,0,1l0,-1ZM110.5,112.5c1,0,1,0,1,0c1,0,1,-1,2,-1c0,0,1,1,1,1c0,0,1,0,1,0l0,1c-1,0,-1,0,-1,1l-1,0l-1,0l-1,0l1,0c1,0,1,-1,2,-1c-1,0,-1,0,-1,0c0,0,-1,0,-1,0c0,0,-1,0,-1,0c0,0,-1,0,-1,0l0,-1ZM336.5,112.5l1,0c0,0,1,-1,1,-1c0,0,1,1,1,1c1,0,1,0,1,0l0,1l-1,1c0,0,-1,0,-1,0c0,0,-1,0,-1,0l-1,0l2,0c0,0,1,-1,1,-1l-1,0c-1,0,-1,0,-2,0l-1,0c0,0,1,0,1,-1ZM40.5,119.5l0,-1l1,0c0,0,0,-1,0,-1l0,-1l0,-1l0,-1l0,-1l0,-1l1,1c0,0,-1,1,-1,1l1,0l0,1l0,1l0,1l0,1l0,-1l1,0l0,-1c0,0,1,0,1,0c0,0,1,0,1,0c0,0,0,1,0,1c0,1,0,1,0,1c0,0,-1,0,-1,0c0,1,-1,1,-1,1c-1,0,-1,0,-1,0ZM44.5,117.5c-1,0,-1,0,-1,0l-1,1l-1,0l1,0l1,0c1,0,1,0,2,-1c0,0,-1,0,-1,0ZM51.5,112.5c0,-1,0,-1,1,-1c1,0,1,0,1,0l0,1l0,1l0,1l0,1l-1,-1l0,1l-1,0c0,1,0,1,-1,1l-1,0l1,-1l1,0l0,-1c0,-1,0,-1,0,-1l0,-1ZM52.5,112.5c0,0,-1,0,-1,0l1,0l0,1l0,-1ZM53.5,166.5c0,0,-1,0,-2,-1c0,0,-1,0,-1,0l-1,0l-1,1l-1,0l-1,0c-1,0,-1,0,-1,0l-1,0c0,0,-1,0,-1,0c0,0,-1,-1,-1,-2l0,2l0,1c0,0,0,1,0,1c0,1,-1,1,-1,2c0,0,-1,0,-1,0c0,1,-1,1,-1,1c0,0,-1,0,-1,0c-1,0,-1,0,-2,0l-1,0c-1,0,-1,0,-2,-1l0,-1c-1,0,-1,0,-1,-1c0,-1,0,-1,1,-2c0,0,0,-1,0,-1l0,-1l1,0l0,1c-1,0,-1,1,-1,1c0,0,0,1,0,1c0,1,0,1,1,2c0,0,1,0,2,0l1,0c0,0,1,0,2,0c1,-1,2,-1,2,-1c0,0,0,-1,1,-1l0,-1l-1,-2c0,-1,0,-1,0,-2l0,-1l0,-7l1,-2l1,11c0,1,0,1,0,1c1,1,1,1,1,1l1,0c0,0,1,0,1,0l1,-1l1,0c-1,0,-1,0,-1,-1l0,-1c0,0,1,0,1,0c0,0,0,-1,0,-1l0,-1c0,0,1,0,1,0c0,0,-1,0,-1,0c0,-1,1,-1,1,-1c0,-1,0,-1,0,-1c1,0,2,1,2,1c1,1,1,1,2,2c0,0,1,1,1,1c0,0,0,1,0,1l0,1c0,0,0,1,0,1c-1,1,-1,1,-1,1ZM50.5,161.5c-1,0,-1,0,-1,0c0,1,0,1,-1,1c0,0,0,1,1,1c1,0,1,0,1,0l0,-1c0,-1,0,-1,0,-1ZM51.5,162.5c0,0,0,1,0,1l0,1l2,0l0,-1l-1,0c0,-1,0,-1,0,-1c0,0,-1,0,-1,0ZM48.5,153.5l4,-2l0,1l-4,2ZM32.5,155.5c0,0,1,0,1,0c1,0,1,0,1,0c1,0,1,0,2,0l0,1c0,0,0,1,0,1c0,0,-1,0,-1,0c0,1,0,1,0,1c0,0,-1,0,-1,0l-1,0l-1,0l2,-1c1,0,1,0,2,-1c-1,0,-1,0,-1,0c0,0,-1,0,-1,0c0,0,-1,0,-1,0c0,0,-1,0,-1,1l0,-1l0,-1ZM87.5,170.5l-1,-1l1,-1l1,1ZM85.5,166.5l-1,0l-1,0l-11,0l0,1c0,1,0,1,0,2c0,0,0,-1,-1,-1l0,-1l0,-1c0,0,-1,0,-1,0c0,0,0,-1,0,-1c0,0,0,-1,-1,-1c0,-1,0,-1,0,-1l0,1l-1,0c-1,1,-1,1,-2,1l0,1c0,1,0,1,0,2c0,0,-1,0,-1,1c-1,1,-1,1,-1,1l-1,1c0,0,-1,0,-1,0l-1,0c-1,0,-1,0,-1,0c-1,0,-1,-1,-1,-1c0,0,-1,0,-1,0c1,0,1,0,1,0l1,0l1,0c1,0,1,0,1,0c0,0,0,-1,0,-1l1,0l1,-1l0,-1c1,0,1,-1,1,-1c0,0,0,-1,1,-1l-1,0l0,-2c0,0,1,0,1,0l1,0c0,0,1,-1,1,-1c1,0,1,0,1,0c0,-1,0,-1,1,-1l0,1l0,1l1,1l0,1c1,0,1,0,1,0l1,-1l1,-1l2,-1c0,0,1,-1,1,-1c1,0,1,0,2,-1c1,0,1,1,2,1c0,0,1,0,1,1l0,1c0,1,-1,1,-1,1l0,1l1,0l1,0l1,0l1,0c0,0,1,0,1,-1c1,0,1,0,1,0l0,-1c0,0,0,-1,0,-1l-1,0l1,-2l0,1l1,0l0,1l0,1l0,1l0,1c0,0,-1,0,-1,0c0,1,0,1,-1,1c0,0,-1,0,-1,0ZM86.5,172.5l-4,2c1,0,1,-1,1,-1l4,-2ZM75.5,158.5l-1,2l-1,-1l1,-2ZM81.5,164.5c0,-1,0,-1,-1,-1l0,-1c-1,0,-1,0,-1,0c-1,0,-1,0,-1,0c-1,0,-1,0,-1,1l-1,0l-1,0l-1,1l-1,1l2,0c1,0,2,0,3,0c0,-1,1,-1,1,-1c1,0,1,0,2,0ZM75.5,150.5l1,0c0,-1,0,-1,0,-1l1,0c0,1,0,1,0,1c0,0,0,1,0,1c0,1,0,1,0,1l0,2l-1,-1l-1,1l-1,1l-1,0l0,-1l1,0l1,-1l1,0l-1,-1l0,-1l0,-1ZM76.5,151.5l0,-1l-1,1c0,0,1,0,1,0l0,1l0,-1ZM63.5,155.5l0,1c1,0,1,0,1,0l1,-1l0,-1l0,1l1,0l0,-1l1,0l0,1l-1,1l-1,0l0,1c-1,0,-1,0,-1,0c-1,0,-1,0,-1,0l0,-1l0,-1ZM66.5,174.5l-5,2l0,-1l5,-2c0,0,0,1,0,1ZM61.5,174.5l0,-1l5,-2l0,1ZM311.5,204.5c-1,0,-2,1,-3,1l-1,0l0,-1l-1,0c-1,1,-1,1,-1,1l0,-1l1,-1c0,0,1,0,1,0c1,1,1,1,2,1l1,-1l1,0l1,0ZM145.5,217.5l-1,0c0,0,-1,0,-1,0c-1,0,-1,0,-2,0l-1,0c-1,0,-1,1,-1,1c0,0,-1,0,-1,0c0,0,-1,0,-1,0l-1,0c0,0,0,1,0,1l0,1l0,1l-1,0c0,1,0,1,0,1c0,0,-1,0,-1,1c-1,0,-1,0,-1,0c-1,0,-1,1,-2,1c-1,0,-2,0,-3,1c-1,0,-2,0,-3,0c0,0,-1,0,-2,0c-1,0,-1,0,-2,0c0,0,-1,0,-2,0c0,0,-1,0,-2,0c-1,0,-1,0,-2,-1c-1,0,-1,0,-2,0c-2,-1,-3,-1,-4,-2c-1,0,-2,-1,-2,-2c0,0,-1,0,-1,0l0,-1c1,1,1,1,1,1c1,0,1,0,1,1c1,0,2,0,3,0c0,1,1,1,1,1c1,0,1,0,2,0c0,1,1,1,2,1c0,0,1,0,2,0c0,0,1,0,2,0c0,0,1,0,1,0c1,0,2,0,2,0c1,0,2,0,2,0c1,0,2,0,3,0c1,0,2,0,3,-1c0,0,1,0,2,0c1,-1,1,-1,2,-1c0,-1,1,-1,1,-1c0,-1,0,-1,-1,-1l0,-1l-1,-1l1,-2c0,0,0,1,0,1c1,0,1,0,1,0c1,0,1,0,1,0c0,0,1,0,1,0l1,0c0,0,0,-1,0,-1l0,-1c0,-1,0,-1,0,-1c0,0,1,-1,1,-1l0,-1c0,0,0,-1,0,-1c0,0,1,0,1,0c0,0,1,0,2,1c0,1,1,1,1,1c1,1,1,1,1,2l0,1c1,0,1,0,1,0c0,1,0,1,0,1c-1,0,-1,0,-1,1ZM141.5,213.5l-1,0l0,1l0,1l1,0c1,0,1,-1,1,-1c0,0,-1,0,-1,-1ZM143.5,213.5c0,1,0,1,0,1l0,1c0,0,-1,0,-1,0l2,1l1,0c0,0,0,-1,-1,-1l0,-1c0,0,-1,0,-1,0l0,-1ZM138.5,199.5c0,0,0,-1,0,-1c0,0,1,0,1,0c1,0,1,0,1,1l0,1c-1,0,-1,0,-1,0l1,1l0,1l-1,-1l-1,1c-1,1,-1,1,-1,1l-1,0c-1,0,-1,0,-1,0l1,0l1,-1l1,-1c-1,-1,-1,-1,-1,-1c0,-1,0,-1,1,-1ZM139.5,199.5l-1,0l0,1l1,0l0,-1ZM136.5,221.5c0,-1,0,-1,0,0ZM123.5,219.5l-1,-1l0,-2l2,1ZM119.5,210.5l0,1l1,0c0,0,0,-1,0,-1l0,-1l0,1l1,0l1,-1l0,1l0,1l-1,0l-1,0l0,1c0,0,-1,0,-1,0c-1,0,-1,0,-1,-1l0,-1l1,0ZM123.5,207.5l-6,3c1,-1,1,-2,1,-2l5,-2ZM174.5,217.5c0,0,-1,0,-2,0c0,0,-1,0,-1,0l-1,0l-1,0c0,0,0,1,0,1c-1,0,-1,0,-2,0c-1,0,-1,0,-1,0l-1,0c0,0,-1,0,-1,0c0,-1,-1,-1,-1,-2l0,1l0,1l0,1c0,0,0,1,0,1c0,1,-1,1,-1,2c0,0,-1,0,-1,0c0,0,-1,1,-1,1c0,0,-1,0,-1,0c-1,0,-1,0,-2,0l-1,0c-1,0,-1,0,-2,-1l0,-1c-1,0,-1,-1,-1,-1c0,-1,0,-1,1,-2c0,0,0,-1,0,-1l1,-1l0,1c0,0,-1,0,-1,0c0,1,0,1,0,2c0,0,0,1,1,1c0,1,1,1,2,1l1,0c1,0,1,0,2,0c1,-1,2,-1,2,-2c0,0,1,0,1,0l0,-1l0,-3c0,0,-1,0,-1,-1c0,0,0,-1,0,-1l0,-7l1,-2l1,11c0,0,0,1,0,1l1,0l1,0c0,0,1,0,1,0l1,0l1,0c-1,0,-1,-1,-1,-1l0,-1c1,0,1,0,1,0c0,-1,0,-1,0,-1c0,0,0,-1,0,-1c1,0,1,0,1,0l0,-1c0,0,0,-1,0,-1c1,0,2,0,3,1c0,1,0,1,1,1c0,1,1,1,1,2l0,1c0,1,0,1,0,1l0,1c0,0,-1,0,-1,0ZM171.5,213.5c-1,0,-1,0,-1,0l-1,1l1,1c1,0,1,0,1,0c0,0,0,-1,0,-1l0,-1ZM172.5,213.5c0,1,0,1,0,1l0,1l2,1c0,0,0,-1,0,-1l-1,-1c0,0,-1,0,-1,-1ZM169.5,205.5l4,-2l0,1l-4,2ZM153.5,207.5c0,0,1,0,1,0c1,0,1,0,1,0c1,0,1,0,2,0c0,1,0,1,0,1l0,1c0,0,-1,0,-1,0l-1,1l-1,0l-1,0l2,-1c1,0,1,0,2,-1c-1,0,-1,0,-1,0c0,0,-1,0,-1,0c0,0,-1,0,-1,0c0,0,-1,0,-1,0c0,0,0,-1,0,-1ZM226.5,222.5l-1,-1l1,-2l1,1ZM224.5,216.5c0,0,1,0,1,0c1,0,1,0,1,0l0,-1l0,-1l-1,0l0,-1l1,-1l1,0l0,1l0,1l0,1c0,1,0,1,0,1c0,1,0,1,-1,1c0,0,0,1,-1,1c0,0,-1,0,-1,0l-1,0l-1,0c0,1,0,1,0,1c0,1,-1,2,-1,2c0,0,0,1,0,1c-1,0,-1,0,-1,1c-1,0,-1,0,-1,0c-1,0,-1,1,-1,1c0,0,-1,0,-1,0l-1,0l-1,-1c0,0,-1,0,-1,0c0,0,1,0,1,0l1,0c0,0,1,0,1,0c0,-1,1,-1,1,-1c1,0,1,0,1,-1l1,0c0,-1,0,-1,0,-1c1,-1,1,-1,1,-2l0,-1c-1,0,-1,0,-1,-1l1,0c0,0,0,-1,0,-1c0,0,0,1,0,1l1,0l1,0ZM225.5,224.5l-4,2c1,0,1,-1,1,-1l4,-2ZM217.5,205.5l4,-2l0,1l-4,2ZM214.5,215.5l-1,0l-1,0c-1,0,-1,0,-2,1l-1,0l-1,0l-1,1c-1,0,-1,0,-1,0c-1,0,-1,0,-2,1c0,0,-1,0,-2,0l-1,0c-1,0,-1,0,-2,0l-1,-1c0,1,0,1,-1,1l0,1c0,0,-1,-1,-1,-1l-1,0l-1,-1l-1,1c-1,0,-1,0,-1,0l-1,0l-1,0c0,0,-1,0,-1,0c-1,0,-1,0,-1,-1l-1,-1c0,0,0,-1,0,-1l0,1l-1,0l-1,0c-1,0,-1,0,-2,0l0,-1c0,-1,0,-1,1,-2c0,0,1,0,2,-1c0,0,1,0,1,0l0,-1l-1,0c0,0,1,0,1,0l0,-1l0,1c0,0,1,0,1,1c0,0,0,1,0,1l0,2l0,1l1,0c0,0,1,0,1,0l1,0l1,0l1,0c0,0,0,-1,1,-1c1,-1,2,-2,2,-2l1,1l1,1l1,0l0,1c0,0,1,0,1,0l1,0l1,0c0,0,1,0,1,0c0,0,1,0,2,0l1,0l1,-1l1,0l-1,-1l-1,0l-1,0l-1,0l-1,0c0,-1,0,-1,0,-1c1,-1,1,-1,1,-1c0,0,1,0,1,0l1,0l1,0l2,1l1,0c0,1,0,1,1,1l1,0c0,0,1,0,1,0l1,0ZM205.5,203.5c1,0,1,-1,1,-1c1,0,1,0,2,0c0,0,1,0,1,0c1,1,1,1,1,1c-1,1,-1,1,-1,1c0,0,0,1,-1,1c-1,0,-1,0,-1,0l-1,0l1,0c1,-1,2,-1,2,-1c0,0,-1,0,-1,-1l-1,0c0,0,-1,0,-1,1l-1,0c0,-1,0,-1,0,-1ZM198.5,217.5l-1,-1c0,-1,-1,-1,-1,-2l0,1l-1,0c0,0,0,1,1,1l1,0ZM194.5,205.5l4,-2l-1,1l-4,2ZM186.5,209.5l-1,-1l-1,1l-1,-1l1,-1l1,1l1,-1l1,0ZM187.5,213.5l-1,0l-1,1c0,0,-1,0,-1,1l1,0l1,0c0,-1,1,-1,1,-1ZM188.5,222.5l-4,3l0,-2l5,-2c0,1,0,1,-1,1ZM184.5,223.5l0,-2l5,-2c0,0,0,1,-1,1ZM260.5,221.5c0,0,1,0,1,0l1,0c0,0,1,0,2,-1c1,0,1,0,2,-1c0,0,0,-1,1,-1c0,0,0,-1,0,-1l0,-1l0,-1l-1,-1l1,-1l0,-1l0,1c0,0,1,1,1,1l0,1l0,1c0,1,0,1,0,2c0,1,-1,1,-1,1c0,1,0,1,0,1c0,0,-1,1,-1,1l-1,1c-1,0,-1,0,-1,0c-1,0,-1,0,-1,0l-1,0c0,0,-1,0,-1,0l-1,0l0,-1ZM263.5,208.5l4,-2l0,1c0,0,-1,0,-1,0l-4,2ZM259.5,218.5l0,-1l0,-1l-1,-9l1,-2l1,11c0,0,0,1,-1,1c0,0,0,1,0,1ZM255.5,217.5l-1,1c0,0,-1,0,-2,0l-1,0l-1,0c-1,0,-1,0,-1,0l0,-1l0,-1l1,0l1,0c0,0,1,0,1,0c1,0,1,0,1,0c1,0,1,0,1,0c1,0,1,-1,1,-1c0,0,0,-1,0,-1c0,0,-1,-1,-1,-1l-1,0l0,-1l-1,0l-1,-1l1,-2c0,0,0,1,1,1c1,0,1,1,1,1c1,0,1,1,1,1c0,1,1,1,1,2c0,1,0,1,0,1c0,0,0,1,0,1c0,0,0,1,-1,1ZM252.5,205.5l4,-2l-1,1l-4,2ZM244.5,211.5l-1,-1l1,-1l1,1ZM243.5,218.5l0,-1c1,0,1,0,2,0c0,0,1,0,1,0c0,-1,0,-1,0,-1l0,-1c-1,0,-1,0,-1,-1c0,0,0,-1,1,-1c0,0,0,1,0,1c1,0,1,1,1,1l0,1l0,1c-1,0,-1,0,-1,1l0,1c1,0,1,0,1,0c0,1,0,1,0,1c0,1,0,1,-1,1c0,1,-1,1,-1,1c-1,1,-2,1,-2,2c-1,0,-2,0,-3,0c-1,0,-1,0,-2,0c-1,-1,-1,-1,-2,-1c0,-1,0,-1,-1,-1c0,-1,0,-1,0,-2c0,-1,0,-1,1,-2c0,-1,0,-1,1,-2c0,1,-1,1,-1,2c0,0,0,1,0,1c0,0,0,1,0,1c0,0,1,1,1,1c1,1,2,1,3,1c1,0,1,0,2,0l1,0c0,0,1,-1,2,-1c0,0,0,-1,1,-1c-1,0,-1,0,-2,0c0,0,-1,-1,-1,-1c0,-1,0,-1,0,-1ZM247.5,224.5l-4,2c0,0,0,-1,0,-1l4,-2ZM284.5,214.5l-1,0l0,1c0,0,1,0,1,0c0,0,1,0,1,0c-1,0,-1,-1,-1,-1ZM284.5,222.5l-1,0l0,1c-1,0,-1,0,-2,0c-1,0,-1,0,-2,-1c0,0,-1,0,-1,0c0,0,1,0,1,0l1,0l1,0l1,0c0,-1,0,-1,0,-1c1,0,1,0,1,-1c1,0,1,0,1,0c0,-1,1,-1,1,-2c0,0,0,-1,0,-1l0,-1c0,1,0,1,0,1c0,0,-1,0,-1,0l-1,0c-1,0,-1,-1,-1,-1c0,0,0,-1,0,-1l0,-1c0,0,1,-1,1,-1l1,-1c1,0,1,0,1,0c0,0,0,1,1,1c0,0,0,1,0,1c0,0,0,1,0,1c0,0,0,1,0,1c0,0,0,1,0,1c0,1,0,2,-1,3c0,0,0,1,0,1c-1,0,-1,1,-1,1ZM280.5,204.5c0,-1,1,-1,1,-1c1,0,1,0,2,0c0,0,1,0,1,0c0,0,1,1,1,1c0,0,-1,0,-1,0c0,1,0,1,0,1c0,0,-1,1,-1,1l-1,0l-1,0l-1,0l2,-1c1,0,1,0,2,0c-1,-1,-1,-1,-1,-1c0,0,-1,0,-1,0c0,0,-1,0,-1,0c0,1,-1,1,-1,1c0,-1,0,-1,0,-1ZM327.5,210.5l-1,-1l0,-1l2,1ZM324.5,218.5l-1,0c0,-1,0,-1,0,-1l-1,0c0,-1,0,-1,0,-1l0,-1c-1,1,-1,1,-1,1c0,0,-1,0,-1,0l-1,0l0,1l0,1c0,1,0,1,-1,1c0,1,0,1,0,2c0,0,-1,0,-1,0c0,0,0,1,0,1c0,0,-1,0,-1,0c-1,1,-1,1,-1,1c0,0,-1,0,-1,0l-1,0c0,0,-1,-1,-1,-1l-1,0c0,0,1,0,1,0l1,0l1,0c0,0,0,-1,1,-1c1,0,1,-1,1,-1c1,0,1,-1,1,-1c0,0,1,-1,1,-1c0,-1,0,-1,0,-1c0,0,1,0,1,0l-1,0l0,-3l1,0l1,0c1,0,1,0,1,0c0,0,1,0,1,-1c1,0,1,0,1,0l0,1l0,1c0,1,0,1,1,1l1,0l3,-2l1,-1l1,0c0,0,1,-1,1,-1c0,0,1,0,1,0c0,0,1,0,1,0c0,0,0,1,1,1l0,1c1,0,1,0,1,1c-1,0,-1,1,-1,1l0,1c-1,0,-1,0,-2,0c-1,1,-2,1,-3,1c-1,0,-2,0,-3,0l-1,0l0,1c0,1,0,1,0,1c-1,0,-1,0,-1,0l0,-1l0,-1ZM330.5,214.5c0,0,-1,0,-1,0c0,0,0,1,0,1l-1,0l-1,1l-1,1l2,0c1,0,1,0,2,-1c1,0,2,0,2,0c0,0,1,0,1,-1l-1,-1l-1,0l-1,0ZM324.5,199.5c0,0,0,-1,1,-1l1,0l0,1l0,1l0,1l0,1l-1,-1l0,1l-1,0c0,1,0,1,-1,1l-1,0l1,0l0,-1c0,0,1,0,1,0l0,-1l1,0l-1,0c0,-1,0,-1,0,-1c0,-1,0,-1,0,-1ZM325.5,199.5l0,1l0,-1ZM316.5,207.5l0,1l1,0c0,0,0,-1,0,-1l0,-1l1,0l0,1c1,0,1,0,1,-1l0,-1l0,1l0,1c0,1,0,1,0,1l-1,0l-1,0c0,1,0,1,-1,1c0,0,0,-1,0,-1l0,-1ZM317.5,224.5l-4,2c0,0,0,-1,1,-1l3,-2ZM307.5,217.5c-1,0,-1,0,-1,0c-1,-1,-1,-1,-1,-2c0,0,0,-1,0,-1l0,-1l1,-1l0,-1c1,-1,1,-1,1,-1c1,0,1,0,2,1c0,0,0,1,1,1l0,1l0,1c0,1,-1,2,-2,3c0,0,-1,0,-1,0ZM307.5,213.5c0,0,-1,0,-1,0l0,1l0,1l1,0l1,0c1,0,1,0,1,-1l-1,-1c0,0,-1,0,-1,0ZM387.5,205.5c0,0,-1,0,-2,1c-2,0,-3,1,-4,1c-1,1,-2,1,-3,2c0,0,0,1,0,1l1,0l1,1c1,0,1,1,2,1c0,1,0,1,0,2c1,0,1,1,1,1c0,1,0,1,-1,1c0,1,0,1,0,1c0,0,-1,1,-1,1c0,0,-1,0,-1,0l-1,0l-1,0l0,-1c-1,0,-1,0,-1,0c0,-1,0,-1,0,-1c0,1,-1,1,-1,1c0,1,-1,1,-1,1c-1,0,-1,-1,-2,-2l0,1c-1,1,-1,1,-2,1c-1,0,-1,0,-2,-2c0,1,0,1,0,1c-1,1,-1,1,-2,1l-1,0l-1,0c-1,0,-2,0,-2,0c-1,0,-1,0,-1,-1c-1,1,-1,1,-2,1c0,0,-1,0,-1,0l-1,0l-1,0c-1,-1,-1,-1,-1,-1c-1,0,-1,0,-1,0c-1,1,-2,1,-3,1l-1,1c-1,0,-1,0,-1,0c0,0,-1,0,-1,0l-1,0l-1,0c-1,0,-2,0,-3,0c-1,0,-2,-1,-3,-1c0,-1,0,-1,0,-1c0,-1,0,-1,0,-1l-1,0c0,0,0,-1,0,-1c0,-1,1,-1,1,-1c0,-1,0,-1,1,-2l0,1c-1,1,-1,1,-1,1c0,1,0,1,1,2c0,0,1,0,1,1l1,0c0,0,1,0,1,0c1,0,2,0,3,0c1,0,2,0,2,0c1,0,1,0,2,0c1,0,1,0,1,0c1,-1,2,-1,2,-1c1,-1,2,-1,2,-1l0,1c0,0,1,0,1,0l1,0c1,0,1,0,1,0l0,-1c0,-1,0,-1,0,-2c0,0,1,-1,1,-1c1,-1,1,-1,2,-1c0,0,1,0,1,1l0,1l0,1l0,1c0,1,0,1,-1,1l1,0c1,0,1,0,1,0l1,0l1,0l1,0c1,0,1,-1,2,-1c0,1,1,1,1,1c1,0,1,0,2,0c0,0,0,-1,1,-1l0,-1c0,1,0,1,0,1c0,1,1,1,1,1c1,0,1,0,1,0c0,0,0,-1,1,-1l0,-1c1,2,1,2,2,2l1,0c1,0,1,0,1,0c1,0,1,0,1,0c0,-1,0,-1,0,-1l0,-1c-1,0,-1,-1,-2,-1c0,-1,0,-1,0,-1c-1,0,-1,0,-1,0l-1,0l0,-1c-1,0,-1,0,-1,0c0,0,0,-1,0,-1l0,-1c0,-1,0,-1,0,-1c1,0,1,0,1,0c0,-1,0,-1,0,-1c1,0,2,-1,3,-1c2,-1,3,-1,5,-2c0,0,1,0,2,0ZM380.5,200.5c0,-1,0,-1,0,-2c0,0,0,-1,-1,-1l1,0l0,-1l0,1c1,0,1,0,1,1l0,1l0,1c-1,0,-1,0,-1,0ZM361.5,203.5l0,-1c0,0,0,-1,0,-1c0,-1,-1,-1,-1,-2l1,0l0,-1c0,0,0,1,0,1c0,1,0,1,0,1l0,1c0,0,0,1,0,1c0,0,0,1,0,1ZM306.5,226.5l0,-1c0,0,0,-1,0,-1c-1,-1,-1,-1,-1,-2l1,-1c0,0,0,1,0,1c0,1,0,1,0,1l0,1c0,0,0,1,0,1c0,0,0,1,0,1ZM372.5,210.5l-1,-1l1,-1l1,1ZM374.5,212.5l-2,-1l0,2l-2,-1l1,-2l1,1l1,-1l2,1ZM371.5,221.5l-4,2c0,0,1,-1,1,-1l4,-2ZM362.5,210.5l-1,-1l1,-2l1,2ZM362.5,213.5l-1,0c0,0,0,1,0,1c0,1,0,1,1,1c0,0,1,0,1,0c0,0,0,-1,1,-1c0,0,-1,0,-1,-1l-1,0ZM350.5,213.5l-1,-1l-1,1l-2,-1l1,-1l2,0l0,-1l2,1ZM347.5,199.5c0,0,0,-1,1,-1l1,0l0,1l0,1l0,1l0,1l-1,-1l0,1l-1,0c0,1,0,1,-1,1l-1,0l1,-1l1,0l0,-1l1,0l-1,0c0,-1,0,-1,0,-1c0,-1,0,-1,0,-1ZM348.5,199.5l-1,0c0,0,1,0,1,0l0,1l0,-1ZM412.5,217.5c0,0,-1,0,-2,0l-1,0c0,0,-1,0,-1,0c-1,0,-1,1,-1,1c-1,0,-1,0,-1,0c-1,0,-1,0,-1,0l-1,0l-2,0c0,0,0,1,0,1c0,1,0,1,0,1c0,1,0,1,0,2c0,0,-1,1,-1,1c-1,1,-1,1,-2,2c-1,0,-2,0,-2,0c-1,0,-2,0,-2,0c-1,0,-1,-1,-2,-1c0,0,0,-1,-1,-1c0,-1,0,-1,0,-2l0,-1c0,-1,0,-1,0,-1l1,-1c0,0,0,-1,0,-1l1,1c0,0,-1,0,-1,0c0,1,0,1,0,1l0,1c0,1,0,1,0,1c0,1,1,1,1,1l0,1c0,0,1,0,1,0c0,0,1,0,2,0c1,0,1,0,2,0c1,-1,2,-1,2,-1c0,0,0,-1,0,-1c1,0,1,0,1,0c0,-1,0,-1,0,-1c0,-1,0,-1,0,-1c-1,0,-1,0,-1,-1l0,-1l0,-2c1,1,1,1,1,1l1,0l2,0c0,0,1,0,1,0c1,0,1,0,1,0c0,0,0,-1,0,-1l0,-1c0,-1,0,-1,0,-1c0,0,0,-1,1,-1l0,-1c0,0,0,-1,0,-1c1,0,1,0,1,0c0,0,1,0,2,1c0,1,1,1,1,1c1,1,1,1,1,2l0,1c0,1,0,1,0,1l0,1l-1,0ZM409.5,213.5c0,0,-1,0,-1,0l0,1l0,1l1,0c0,0,0,-1,0,-1l0,-1ZM410.5,213.5c0,1,0,1,1,1l-1,1l2,1c0,0,1,0,1,0c0,0,-1,-1,-1,-1l0,-1c-1,0,-1,0,-1,0l-1,-1ZM405.5,199.5c1,0,1,-1,1,-1c0,0,1,0,1,0c1,0,1,0,1,1l-1,1l1,1l0,1l-1,-1l-1,1c-1,1,-1,1,-1,1l-1,0l-1,0l1,0l1,-1l0,-1l1,0l-1,0c0,-1,0,-1,0,-1c0,-1,0,-1,0,-1ZM407.5,199.5l-1,0l0,1l1,0l0,-1ZM397.5,216.5l-1,-1l1,-2l1,1ZM397.5,204.5l0,1c0,0,1,0,1,0l0,-1l1,0c0,1,0,1,0,1c0,0,1,0,1,-1l0,-1l0,1l0,1c0,0,0,1,-1,1l-1,0c0,0,-1,1,-1,1l0,-1l-1,0l1,-1l0,-1ZM401.5,201.5l-6,3c1,-1,1,-1,1,-1l6,-3ZM237.5,206.5c0,0,1,0,1,-1c0,0,1,0,1,0c1,0,1,0,2,1c0,1,0,1,0,1c-1,1,-1,1,-1,1c0,0,-1,0,-1,0l-1,0l-1,0l2,0c1,-1,1,-1,2,-1c-1,0,-1,0,-1,0c-1,0,-1,0,-1,0c0,0,-1,0,-1,0c0,0,-1,0,-1,0c0,0,0,-1,0,-1ZM98.5,219.5c0,1,0,1,0,1l-1,0l0,-1c-1,0,-1,0,-1,0l-1,-1l0,1c-1,0,-1,1,-1,1l-1,0l-1,0l-1,0c0,0,-1,0,-1,-1l-1,0c0,1,0,1,-1,1c0,0,-1,0,-1,0l-1,0l-2,-1l0,1c-1,0,-1,0,-1,0l-1,0l-1,0l-1,0l-1,-1c0,-1,0,-1,0,-1l-1,0c0,1,0,1,0,1c-1,1,-1,1,-2,1c0,0,-1,-1,-1,-2l-1,1c0,1,0,1,-1,1c-1,0,-2,-1,-2,-2c0,1,0,1,0,1c-1,1,-2,1,-2,1l-1,0l-1,0l-1,0c0,-1,0,-1,-1,-1l-2,-2c0,-1,-1,-1,-1,-1l-1,-1c0,1,0,1,0,1l0,1c0,1,0,1,0,1c0,0,0,1,0,1c-1,0,-1,0,-1,1c0,0,-1,0,-1,0l-1,0l-1,0l-1,0c0,-1,0,-1,0,-1l-1,0c-1,1,-2,1,-3,1l-1,1c-1,0,-1,0,-1,0c0,0,-1,0,-1,0l-1,0l-1,0c-1,0,-2,0,-3,0c-1,-1,-2,-1,-3,-1c0,-1,0,-1,0,-1c0,-1,-1,-1,-1,-1c0,0,0,-1,0,-1c0,-1,0,-1,1,-1c0,-1,0,-1,1,-2l0,1l-1,0c0,1,0,1,0,1c0,1,0,1,1,2l1,1c1,0,1,0,1,0c0,0,1,0,1,0c1,0,2,0,3,0c1,0,2,0,2,0c0,0,1,0,2,0c0,0,1,0,1,0l0,-1c1,0,2,0,2,0c1,-1,1,-1,2,-1l0,1c0,0,1,0,1,0c1,0,1,0,1,0c0,0,1,0,1,0c0,0,1,0,1,-1c0,-1,0,-1,0,-1c0,-1,-1,-1,-1,-1l0,-1c-1,0,-1,0,-1,0c-1,-1,-1,-1,-1,-1c-1,0,-1,0,-1,0c0,0,-1,0,-1,0c0,-1,0,-1,0,-1c0,-1,0,-1,0,-1c0,0,0,-1,0,-1c1,0,1,0,1,-1c1,0,2,-1,3,-1c1,-1,3,-1,4,-2c2,0,3,-1,3,-1c0,0,1,0,1,0l-1,2l-1,0c0,0,-1,0,-2,1c-2,0,-3,1,-4,1c-2,1,-3,1,-3,2l1,1c0,0,1,0,1,0l1,1c1,0,1,1,2,1c1,0,1,1,2,1c0,1,1,1,1,2l2,1l1,0l1,0l1,0c1,0,1,-1,2,-2l0,1c0,1,0,1,1,1c0,0,1,0,1,0c0,0,1,-1,1,-1l1,-1c0,1,0,1,0,1c0,1,0,1,1,1l1,0c0,-1,0,-1,0,-1l1,-1c0,2,1,2,2,2l1,0l1,0l1,0c0,0,0,-1,1,-1c1,-2,1,-2,2,-2l1,1l1,1l1,1l1,0l1,0l1,0c1,0,1,0,1,0l1,0l0,-1c0,-1,1,-1,1,-2c1,0,1,0,1,0c1,0,1,0,1,0c0,1,1,1,1,1l0,1l0,1l0,1c0,0,-1,0,-1,0ZM96.5,217.5l1,0l1,1c0,0,0,-1,0,-1l-1,0c0,-1,0,-1,0,-1c-1,0,-1,0,-1,1ZM96.5,204.5l0,-1c0,0,1,0,1,0c1,0,1,1,1,1l0,1l-1,0c0,0,0,1,0,1l1,0l0,1l-1,0l-1,0l0,1c-1,0,-1,0,-1,0l-1,1l-1,0l0,-1l1,0l1,0c0,0,0,-1,0,-1l1,0l0,-1c-1,0,-1,-1,-1,-1l1,-1ZM97.5,204.5l-1,0c0,0,0,1,0,1l1,0ZM88.5,218.5l0,-1c-1,0,-1,0,-1,-1l0,1l-1,0c0,0,0,1,1,1l1,0ZM85.5,205.5c0,0,0,-1,1,-1c0,0,1,0,1,0c1,0,1,0,2,0c0,1,0,1,0,1c0,1,0,1,0,1c-1,0,-1,1,-1,1c-1,0,-1,0,-1,0c0,0,-1,0,-1,0c0,0,-1,0,-1,0l2,0c0,-1,1,-1,1,-1c0,0,0,-1,0,-1c-1,0,-1,0,-1,0c-1,0,-1,0,-1,1c-1,0,-1,0,-1,0c0,-1,0,-1,0,-1ZM78.5,223.5l-4,2c0,-1,0,-1,0,-1l4,-2ZM50.5,215.5l-2,-1l0,1l-2,-1l1,-1l1,0l1,-1l2,1ZM47.5,201.5c0,-1,0,-1,0,-1c1,0,1,0,1,0c1,0,1,0,1,0l0,1l0,1l0,1l0,1l-1,-1l0,1l-1,0c0,1,-1,1,-1,1l-1,0l1,-1l1,0l0,-1c0,-1,0,-1,0,-1l0,-1ZM48.5,201.5c0,0,-1,0,-1,0l1,0l0,1l0,-1ZM59.5,204.5c0,-1,0,-1,0,-2c0,-1,-1,-1,-1,-2l1,0l0,1l0,1c0,0,0,1,0,1c0,1,0,1,0,1ZM288.5,204.5l4,-2l0,1l-4,3ZM289.5,221.5l0,-1l0,-1l0,-9l1,-2l0,11c0,0,0,1,0,1c0,0,0,1,-1,1ZM270.5,206.5l5,-2l-1,1l-4,2ZM272.5,223.5l0,-1l0,-1l-1,-9l1,-2l1,11c0,0,-1,0,-1,1c0,0,0,1,0,1ZM112.5,171.5l0,-1l0,-1l-1,-9l1,-2l1,11c-1,0,-1,1,-1,1c0,0,0,1,0,1ZM107.5,170.5c0,1,0,1,0,1c-1,0,-1,0,-2,-1c0,0,-1,-1,-1,-2c0,1,0,2,0,2c-1,1,-1,1,-2,1c-1,0,-1,0,-2,-1c0,0,0,-1,-1,-2c0,1,0,1,0,1c0,0,0,1,-1,1l-1,0c-1,0,-1,0,-1,0c-1,0,-1,-1,-1,-1c0,-1,0,-1,0,-1c1,-1,1,-1,1,-1c1,0,1,-1,2,-1l1,-1l0,-1c1,-1,1,-1,1,-1l0,1l0,1l0,3c1,0,1,1,1,1c0,0,1,0,1,0c0,0,1,0,1,0c0,-1,1,-1,1,-1c0,-1,0,-2,0,-3c0,0,0,-1,-1,-1c0,0,0,-1,0,-1l0,-1l1,0l0,-1l0,2l1,2l0,2c0,0,0,1,0,1c0,0,1,0,1,1l1,0c0,0,1,0,1,0c0,-1,0,-1,0,-1c0,0,0,-1,0,-1l-1,-2l0,-1l0,-1c0,0,0,-1,0,-1l0,-1c0,0,1,1,1,1c0,1,0,1,0,2l0,1c0,1,1,2,1,2c0,1,-1,2,-1,2c0,0,0,1,0,1c-1,0,-1,0,-1,0ZM99.5,166.5c-1,0,-1,1,-1,1c-1,0,-1,1,-1,1c0,0,1,0,2,0l0,-1ZM146.5,174.5l1,0c1,0,2,0,3,-1c1,0,1,0,1,-1c1,0,1,-1,2,-1c0,0,0,-1,0,-1l0,-1l0,-1l-1,0l0,-1l0,-1l1,-1l0,1c0,0,0,1,1,1l0,1l0,1c0,1,0,1,0,2c0,0,-1,0,-1,0c0,1,0,1,0,1c0,1,0,1,0,1c-1,0,-1,1,-1,1c0,0,-1,0,-1,1l-1,0c-1,0,-1,0,-1,0l-1,0l-1,0l-1,0ZM149.5,161.5l4,-2l-1,1l-4,2ZM145.5,171.5l0,-1l0,-1l-1,-9l1,-2l1,11c-1,0,-1,1,-1,1c0,0,0,1,0,1ZM141.5,170.5l-1,1c0,0,-1,0,-2,0l-1,0l-1,0c0,0,-1,0,-1,0l0,-1l0,-1l1,0l1,0c0,0,1,0,1,0c1,0,1,0,1,0c0,0,1,0,1,0c0,0,1,-1,1,-1l0,-1c-1,0,-1,-1,-1,-1l-1,0l0,-1l-1,0l-1,-1l1,-2c0,1,0,1,0,1l1,0c0,0,1,1,1,1c0,0,1,1,1,1c0,1,0,1,1,2c0,1,0,1,0,1c0,0,0,1,0,1c0,0,-1,1,-1,1ZM137.5,158.5l5,-2l-1,1l-4,2ZM130.5,165.5l-1,-1l1,-2l1,1ZM129.5,172.5l0,-1l0,-1c1,0,1,0,2,0l1,0c0,-1,0,-1,0,-1l-1,-1l0,-1c0,0,0,-1,0,-1c0,0,1,0,1,0c0,0,0,1,0,1c0,0,0,1,0,1c0,0,0,1,1,1c0,0,-1,0,-1,1l0,1l-1,0c0,0,1,0,1,0l0,1c0,0,1,0,1,0l0,1c0,1,-1,1,-1,1c0,1,-1,1,-1,2c-1,0,-2,0,-2,1c-1,0,-2,0,-3,0c-1,0,-2,0,-2,0c-1,-1,-2,-1,-2,-1c0,-1,0,-1,-1,-1c0,-1,0,-1,0,-1c0,-1,0,-1,0,-1c0,-1,0,-1,0,-2c1,-1,1,-1,1,-2c0,0,1,0,1,0c0,1,-1,1,-1,2c0,0,0,1,0,1c0,0,0,1,0,1c0,0,0,1,1,1c1,1,2,1,3,1c1,0,1,0,2,0l1,0c0,0,1,-1,2,-1c0,0,0,-1,1,-1c-1,0,-1,0,-2,0c-1,0,-1,0,-1,-1c0,0,-1,0,-1,0l1,0ZM132.5,177.5l-3,2c0,0,0,-1,0,-1l4,-2ZM129.5,172.5l0,-1M121.5,161.5l5,-2l-1,1l-4,2ZM170.5,163.5l-2,-1l1,-1l2,1ZM170.5,173.5c-1,0,-1,-1,-2,-1c-1,0,-1,0,-1,0c-1,-1,-1,-1,-1,-2c-1,0,-1,-1,-1,-1c0,-1,0,-1,0,-1l0,-1l1,0c0,-1,0,-1,0,-1c0,-1,0,-1,0,-1c0,0,1,0,1,0c0,0,0,1,0,1c0,0,-1,0,-1,1c0,0,0,1,0,1c0,0,0,1,0,1c1,0,1,1,1,1c0,0,1,0,1,0c1,0,1,1,2,1c1,0,1,-1,2,-1c1,0,1,0,2,-1c0,-1,0,-1,0,-1l0,-1l0,-1c0,-1,0,-1,-1,-1c0,-1,0,-1,0,-1l1,-2c0,1,0,1,0,1c1,1,1,1,1,1c0,0,0,1,0,1c0,1,0,1,0,1l0,1c0,1,0,2,0,2c-1,1,-1,1,-1,2c-1,0,-2,1,-2,1c-1,0,-2,1,-2,1ZM166.5,157.5c0,0,1,-1,1,-1c0,0,1,0,1,0c1,0,1,0,2,0c0,0,0,1,0,1c0,1,0,1,0,1c0,0,-1,1,-1,1c0,0,-1,0,-1,0l-1,0l-1,0l2,0c1,-1,1,-1,2,-1c-1,0,-1,-1,-1,-1c-1,0,-1,0,-1,0c0,0,-1,0,-1,1c0,0,-1,0,-1,0c0,-1,0,-1,0,-1ZM205.5,171.5l0,-1l0,-1l-1,-9l1,-2l1,11c0,0,0,1,-1,1c0,0,0,1,0,1ZM200.5,170.5c0,1,0,1,0,1c-1,0,-1,0,-2,-1c0,0,0,-1,-1,-2c0,1,0,2,0,2c-1,1,-1,1,-2,1c-1,0,-1,0,-1,-1c-1,0,-1,-1,-1,-2c0,1,0,1,0,1c-1,0,-1,1,-1,1c-1,0,-1,0,-2,0c0,0,-1,0,-1,0c-1,0,-1,-1,-1,-1c0,-1,0,-1,1,-1c0,-1,0,-1,1,-1c0,0,0,-1,1,-1l1,-1l0,-1l1,0c0,-1,0,-1,0,-1l0,1l0,1l0,3c0,0,1,0,1,0c0,0,0,1,0,1c0,0,1,0,1,0c1,0,1,0,1,0c1,-1,1,-1,1,-1c0,-1,0,-2,0,-3c0,0,0,-1,0,-1c0,0,0,-1,0,-1c0,0,-1,0,-1,-1l1,0l0,-1l1,2l0,2l0,2c0,0,0,1,0,1c1,0,1,0,1,1l1,0c1,0,1,0,1,0c0,-1,0,-1,0,-1c0,0,0,-1,0,-1l-1,-2l0,-1l0,-1c0,0,0,-1,0,-1l1,-1c0,0,0,1,0,1c0,1,0,1,0,2l1,1c0,1,0,2,0,2c0,1,0,2,-1,2c0,0,0,1,0,1l-1,0ZM192.5,166.5c0,0,-1,1,-1,1c-1,0,-1,1,-1,1c1,0,1,0,2,0l1,-1ZM240.5,170.5l-1,0l0,1c-1,0,-2,0,-2,0l-1,0l-1,0l-1,0l-1,0l0,-1l1,-1l1,0c0,0,1,0,2,0c1,0,1,0,1,0c1,0,1,-1,1,-1l0,-1c0,0,0,-1,-1,-1l-1,-1l-1,0l0,-1l0,-2c0,1,1,1,1,1l1,0c0,0,0,1,0,1l1,0c0,0,0,1,0,1c1,1,1,1,1,2c0,1,0,1,0,1c0,0,0,1,0,1c0,0,0,1,0,1ZM237.5,155.5c1,0,1,0,1,-1c0,0,1,0,1,0c1,0,1,1,1,1c0,0,0,1,0,1l-1,0c0,0,0,1,0,1l1,0l0,1l-1,0l-1,0l0,1c-1,0,-1,0,-1,0l-1,1l-1,0l1,-1l1,0c0,0,0,-1,0,-1l1,0l0,-1l-1,0l0,-1l0,-1ZM239.5,155.5l-1,0c0,1,0,1,0,1l1,0ZM229.5,167.5l-1,0c0,0,0,1,0,1c0,0,1,0,1,0c1,0,1,0,1,0c0,0,0,-1,-1,-1ZM229.5,175.5l-1,0l0,1c-1,0,-1,0,-2,0c-1,0,-1,0,-2,-1l-1,0c1,0,1,0,1,0c0,0,1,0,1,0l1,0c0,0,1,0,1,0c0,-1,0,-1,0,-1c1,0,1,0,2,-1c0,-1,1,-1,1,-2c0,0,0,-1,0,-1l0,-1c0,1,0,1,0,1l-1,0l-1,0c0,0,-1,-1,-1,-1c0,0,0,-1,0,-1l0,-1c1,0,1,0,1,-1l1,-1c1,0,1,0,1,0c0,0,0,1,1,1c0,0,0,1,0,1c0,0,0,1,0,1c0,0,0,1,0,1c0,1,0,1,0,1c0,1,0,2,-1,3c0,0,0,1,0,1c0,0,-1,1,-1,1ZM218.5,165.5l-1,-1l1,-2l1,1ZM218.5,174.5c0,0,-1,0,-1,0c-1,0,-1,0,-2,-1l-1,-1c0,0,0,-1,0,-2l0,-1l0,-1l1,0c0,0,0,-1,0,-1l1,0c0,0,-1,0,-1,1c0,1,0,1,0,1l0,1l0,1c0,0,1,0,1,1c1,0,1,0,1,0c0,0,1,0,2,0c0,0,1,0,2,0c0,0,1,-1,1,-1c1,0,1,0,1,-1c0,0,0,-1,0,-1c0,0,0,-1,0,-1l0,-1c-1,0,-1,0,-1,-1l-1,-1l1,-2c0,1,0,1,1,1c0,1,0,1,0,1c0,1,0,1,0,1c0,0,1,1,1,1c0,0,0,1,0,1c0,0,0,1,0,1c0,1,0,2,-1,2c0,1,0,1,-1,2c0,0,-1,1,-2,1c0,0,-1,0,-2,0ZM221.5,179.5l-4,2c0,-1,0,-1,0,-1l4,-2ZM264.5,171.5l-1,0l-1,-1l-1,0l-1,0c0,0,0,1,0,1l-1,0l-1,0l-2,0c1,0,1,0,1,0c0,1,0,1,0,1c0,1,0,1,0,1c0,1,-1,1,-1,2c0,0,-1,1,-1,1c-1,1,-1,1,-2,2c-1,0,-2,0,-2,0c-1,0,-1,0,-2,0c-1,0,-1,-1,-2,-1c0,0,0,-1,-1,-1c0,-1,0,-1,0,-2l0,-1c0,-1,0,-1,0,-1c0,0,1,0,1,-1c0,0,0,-1,0,-1l1,1c0,0,-1,0,-1,0c0,1,0,1,0,1l0,1c0,1,0,1,0,1c0,1,1,1,1,1l0,1c1,0,1,0,1,0c0,0,1,0,2,0c1,0,2,0,2,0c1,-1,2,-1,2,-1c0,0,0,-1,1,-1c0,-1,0,-1,0,-1c0,-1,0,-1,0,-1c0,0,-1,0,-1,-1l0,-1l0,-2l1,0c0,1,0,1,0,1l1,0l1,0l1,0c0,0,1,0,1,0l1,-1c0,-1,1,-1,1,-2c0,0,1,0,1,0c0,0,1,0,1,0c0,1,0,1,0,2l1,0l0,1l0,1l-1,0l0,1ZM262.5,168.5l1,0l0,1c0,0,0,-1,0,-1c0,0,0,-1,0,-1c-1,0,-1,1,-1,1ZM263.5,174.5l-4,2c0,0,0,-1,0,-1l4,-2ZM251.5,169.5l-1,-1l1,-2l1,1ZM319.5,163.5l-1,-1l-1,1l-2,-1l1,-1l2,1l1,-2l1,1ZM317.5,171.5l-1,0l-2,0l-1,0l0,-1l-1,0c0,-1,0,-1,0,-1l0,1c-1,0,-1,0,-1,0c-1,1,-1,1,-2,1c0,0,-1,0,-1,0l-1,0c-1,0,-1,0,-1,-1c0,0,-1,0,-1,0l0,-1c0,-1,0,-1,1,-1l0,1l1,0l1,0l1,0c1,0,1,0,1,0l1,0l0,-1l1,0c0,0,0,-1,0,-1l-1,-2l0,-1l0,-1l1,-1l0,1c0,1,0,1,0,2l1,2c0,1,0,1,0,1c0,1,0,1,0,1c0,0,1,0,1,0l2,0l1,0c0,0,1,0,1,0c1,0,1,0,1,0l1,0l0,-1c0,0,-1,0,-1,-1l0,-1l1,-1l0,1l0,1l0,1c0,1,0,1,0,1c0,1,0,1,0,1c-1,0,-1,1,-2,1c0,0,-1,0,-1,0ZM317.5,155.5l4,-2c0,1,0,1,0,1l-4,2ZM308.5,156.5c0,0,0,-1,1,-1c0,0,1,0,1,0c1,0,1,0,2,0c0,1,0,1,0,1c0,1,0,1,-1,1c0,1,0,1,0,1l-1,0c0,0,-1,0,-1,0c-1,0,-1,0,-1,0l2,0c0,-1,1,-1,1,-1l0,-1c-1,0,-1,0,-1,0c-1,0,-1,0,-2,1c0,-1,0,-1,0,-1ZM302.5,168.5c-1,0,-2,1,-3,1c-1,1,-2,1,-3,1c-1,1,-2,1,-3,1l-2,0c0,1,0,1,0,1c0,1,0,1,-1,1c0,1,0,1,0,2c-1,0,-1,0,-1,0c0,1,-1,1,-1,1l-1,0c-1,0,-1,0,-1,0l-1,0l-1,0c0,0,-1,0,-1,0c0,-1,0,-1,0,-1c0,0,1,0,1,1l1,0l1,-1c0,0,1,0,1,0c1,0,1,-1,1,-1c0,0,1,0,1,-1c1,-1,1,-1,1,-1l0,-1l-1,0c-1,0,-1,0,-1,0c0,0,-1,-1,-1,-1c0,0,0,-1,0,-1c0,-1,1,-1,1,-1c0,0,0,-1,0,-1c1,0,1,-1,1,-1c1,0,1,0,1,0c0,1,0,1,1,1l0,1c0,1,0,1,0,1c1,0,1,0,1,0l1,0l1,0c1,0,1,0,2,0c-1,0,-1,-1,-1,-1c0,-1,-1,-1,-1,-1c0,-1,0,-1,1,-1c0,0,0,-1,0,-1l0,-1l1,0c0,0,0,-1,0,-1c0,0,1,0,1,0c0,0,1,0,1,0l1,0c0,0,1,0,1,0l0,1c0,0,1,0,1,0l-1,0l-1,0l-1,0l-1,0l-1,1c0,1,0,1,0,1c0,0,0,1,0,1c1,0,1,1,2,1l1,0c1,0,1,-1,1,-1l1,0l1,0l0,-1ZM296.5,155.5l0,-1c1,0,1,0,1,0c0,0,1,0,1,0c0,0,0,1,0,1c0,0,0,1,0,1c0,0,0,1,0,1l0,1l-1,0l-1,1c0,0,-1,0,-1,0l0,1l-1,0l0,-1l1,0c0,0,0,-1,1,-1l0,-1l0,-1l0,-1ZM297.5,155.5c-1,0,-1,0,-1,0c0,1,0,1,0,1l1,0ZM289.5,168.5c-1,0,-1,0,-1,1c0,0,1,0,1,0l1,0c0,-1,0,-1,-1,-1ZM278.5,165.5l-2,-1l1,-2l2,1ZM278.5,174.5c-1,0,-1,0,-2,0c-1,0,-1,0,-1,-1c-1,0,-1,0,-1,-1c-1,0,-1,-1,-1,-2l0,-1c0,0,1,0,1,-1c0,0,0,-1,0,-1c0,0,1,0,1,0l0,1c-1,0,-1,0,-1,0c0,1,0,1,0,1l0,1l0,1c1,0,1,0,1,1l1,0c1,0,1,0,2,0c1,0,1,0,2,0c1,0,1,-1,2,-1l0,-1c0,0,0,-1,0,-1c0,0,0,-1,0,-1l0,-1l-1,-1l0,-1l0,-2c1,1,1,1,1,1c0,1,0,1,0,1c1,1,1,1,1,1c0,0,0,1,0,1c0,0,0,1,0,1c0,0,0,1,0,1c0,1,0,2,0,2c-1,1,-1,1,-2,2c0,0,-1,1,-1,1c-1,0,-2,0,-2,0ZM274.5,158.5l4,-2l0,1l-1,0l-4,2ZM339.5,171.5l-1,0l0,-1c0,0,-1,0,-1,0l-1,0c0,0,0,1,-1,1l-1,0l-1,0l-1,0c-1,0,-1,0,-2,-1c0,0,0,-1,0,-1l-1,-9l1,-2l1,10l0,1c0,0,1,0,1,0l1,0l1,0c1,0,1,0,1,0l1,0l0,-1c1,-1,1,-1,1,-2l1,0c1,0,1,0,1,0c1,1,1,1,1,2l0,1l0,1l-1,1ZM337.5,168.5l1,0l1,1c0,0,0,-1,0,-1c0,0,-1,-1,-1,-1c0,0,-1,1,-1,1ZM335.5,157.5l0,1c0,0,1,0,1,0c0,-1,0,-1,0,-1l1,0l0,-1l0,1l1,0l0,-1l0,-1l0,1l1,0l0,1l-1,0c0,1,0,1,0,1l-1,0l-1,0c0,1,0,1,0,1c-1,0,-1,0,-1,0c0,0,0,-1,0,-1l0,-1ZM339.5,154.5l-5,3c0,-1,0,-2,0,-2l6,-3ZM389.5,162.5l-2,-1l1,-2l2,1ZM391.5,169.5l0,1c0,0,-1,0,-1,0c0,1,-1,1,-2,1l-1,0l-1,0l-1,0c0,1,0,1,0,1c0,1,0,2,0,2c-1,0,-1,1,-1,1l-1,1l-1,0c0,1,0,1,-1,1l-1,0c0,0,-1,0,-2,-1l-1,0l1,0l1,0c1,0,1,0,2,0c0,-1,0,-1,1,-1l0,-1c1,0,1,0,1,0c0,-1,1,-1,1,-1c0,-1,0,-1,1,-2l-1,-1l0,-1c0,0,0,-1,0,-1c1,1,1,1,1,1c0,0,1,0,1,0l1,0c1,0,1,0,2,0c0,0,1,0,1,-1c0,0,1,0,1,0c0,0,0,-1,0,-1l-1,0c0,0,0,1,0,1c-1,0,-1,0,-1,0c-1,0,-1,0,-1,0c0,0,0,-1,0,-1c-1,0,-1,0,-1,0c0,0,0,-1,0,-1c0,0,0,-1,0,-1l1,-1c0,0,0,-1,0,-1c0,0,1,-1,1,-1c1,0,1,1,1,1c0,0,1,1,1,1l0,1l0,1c0,1,1,1,1,2c0,0,-1,0,-1,1ZM388.5,165.5c0,0,0,1,0,1l1,0c0,0,1,0,1,-1l-1,0c0,-1,0,-1,0,-1c0,0,-1,0,-1,0c0,1,0,1,0,1ZM387.5,155.5l4,-2c0,1,0,1,0,1l-4,2ZM381.5,158.5l4,-2l0,1l-1,0l-4,2ZM373.5,169.5c0,0,0,-1,1,-1c0,0,0,-1,1,-1l1,0c1,0,1,0,1,0l0,1l-1,0l0,1l0,-1l-1,0c0,0,-1,0,-1,1c1,0,1,0,1,0c0,1,0,1,0,1l1,0c1,0,1,0,2,0l-1,0l0,1l-4,1l1,-1l-1,-1c0,0,0,-1,0,-1ZM373.5,161.5l4,-2l0,1l-1,0l-4,2ZM370.5,174.5l-2,-1l0,2l-2,-1l1,-2l2,1l0,-1l2,1ZM367.5,171.5l-1,0l-1,0c0,0,-1,0,-1,0l-1,0l0,-1c0,0,-1,0,-1,1c0,0,-1,0,-1,0l-1,0c-1,0,-2,0,-2,0c0,0,0,-1,-1,-1c0,1,0,1,0,2l-1,0c0,0,-1,0,-1,-1c-1,0,-1,0,-2,0l0,1c0,0,-1,0,-2,1c0,0,-1,0,-1,1c-2,0,-3,0,-4,0l4,-2l1,-1c1,0,1,0,2,-1l1,-1c0,-1,0,-2,0,-2c1,0,1,0,1,0l1,0l1,1c0,0,1,1,1,1c0,0,1,0,1,0l1,0c1,0,1,0,1,0c1,0,1,0,1,0l0,-1c1,0,1,0,1,-1l0,1c0,1,0,1,1,1c0,0,1,0,1,0l1,0l1,0c0,0,1,0,1,0c1,0,1,0,2,0l0,-1l-1,-1l0,-1l1,-1c0,0,0,1,0,1c0,1,0,1,0,1c0,1,0,1,0,1c0,1,0,1,0,1c0,1,0,1,0,1c-1,0,-1,1,-2,1c0,0,-1,0,-1,0ZM366.5,157.5c0,0,1,-1,1,-1c1,0,1,0,1,0c1,0,1,0,2,0c0,0,0,1,0,1c0,1,0,1,0,1c0,0,-1,1,-1,1l-1,0l-1,0l-1,0l2,0c1,-1,1,-1,2,-1c-1,0,-1,-1,-1,-1c0,0,-1,0,-1,0c0,0,-1,0,-1,1c0,0,-1,0,-1,0c0,-1,0,-1,0,-1ZM364.5,165.5l-2,-1l-1,1l-1,-1l1,-1l1,1l1,-1l2,1ZM361.5,155.5c0,0,1,0,1,-1l1,0c0,0,0,1,0,1c0,0,0,1,0,1c0,0,0,1,0,1l1,0l-1,1l-1,0l0,1c-1,0,-1,0,-1,0l-1,1l-1,0l1,-1c1,0,1,-1,1,-1l1,0l0,-1l-1,0l0,-1l0,-1ZM362.5,155.5c0,1,0,1,0,1l1,0l-1,0ZM356.5,170.5l0,-1c0,-1,-1,-1,-1,-1c-1,1,-1,1,-1,1c0,0,1,0,1,0l1,1ZM420.5,161.5l-1,-1l-1,2l-1,-1l0,-2l2,1l1,-1l1,1ZM421.5,169.5l0,1c-1,1,-2,1,-2,1c-1,0,-1,0,-2,0l-1,0c-1,0,-1,0,-1,0c-1,0,-1,-1,-1,-2l0,1l0,1l0,1c0,0,0,1,-1,1c0,1,0,1,-1,2c-1,0,-1,1,-1,1c-1,0,-1,0,-2,0c0,0,-1,0,-1,0l-1,0c0,0,-1,0,-1,0c0,0,-1,0,-1,-1c0,0,-1,0,-1,-1l0,-1c0,-1,0,-1,0,-2c0,0,0,-1,1,-1l0,-1l1,0l-1,0l0,1l0,1l0,1c0,0,0,1,1,1c0,1,1,1,1,1c1,0,1,0,1,0c1,0,2,0,3,0c1,-1,1,-1,2,-2l0,-1l0,-3l0,-1c0,0,0,-1,0,-1l-1,-7l1,-2l1,11c0,0,0,1,1,1c0,0,1,0,1,0l1,0c0,0,1,0,2,0c1,0,1,0,2,-1c0,0,0,-1,0,-1l-1,0c0,1,0,1,0,1c0,0,-1,0,-1,0l-1,0c0,0,0,-1,0,-1c-1,0,-1,-1,-1,-1c0,0,0,-1,1,-1l0,-1l0,-1c1,0,1,-1,2,-1c0,0,0,1,1,1c0,0,0,1,0,1l0,1c1,0,1,1,1,1c0,1,0,1,0,2l0,1l-1,0ZM418.5,165.5l1,0c0,1,0,1,0,1l1,0c0,0,0,-1,0,-1c-1,-1,-1,-1,-1,-1l0,1l-1,0ZM418.5,152.5c0,0,0,-1,0,-1c1,0,1,0,1,0l1,0l0,1l0,1l0,1l0,1l-1,-1l0,1l-1,0c0,1,-1,1,-1,1l-1,0l1,-1l1,0l0,-1c0,-1,0,-1,0,-1c0,-1,0,-1,0,-1ZM419.5,152.5l-1,0l0,1l1,0l0,-1ZM404.5,160.5l1,0c0,0,1,0,1,0c1,0,1,0,1,0c1,0,1,0,1,1l-1,1l-1,0c0,0,0,1,0,1c0,0,-1,0,-1,0l-1,0l2,-1c0,0,1,0,1,-1l-1,0c-1,0,-1,0,-2,0c0,0,0,-1,0,-1ZM192.5,174.5l-6,3c0,-1,1,-2,1,-2l5,-2ZM350.5,159.5l1,0c0,0,1,0,1,0c1,0,1,0,1,0c1,0,1,0,1,1c0,0,0,1,-1,1c0,1,0,1,-1,1c0,0,-1,0,-1,0c-1,0,-1,0,-1,0l2,-1c0,0,1,0,1,-1l-1,0c-1,0,-1,0,-2,0l0,1l0,-1l0,-1ZM286.5,158.5l1,0c0,-1,1,-1,1,-1c1,0,1,0,1,1c1,0,1,0,1,0c0,1,0,1,-1,1c0,1,0,1,0,1l-1,0c0,0,-1,0,-1,0c-1,0,-1,0,-1,0l2,0c0,0,1,-1,1,-1l-1,0c-1,0,-1,0,-2,0c0,0,0,-1,0,-1ZM249.5,159.5c0,0,1,0,1,0c1,-1,1,-1,1,-1c1,0,1,0,2,1c0,1,0,1,0,1c0,1,-1,1,-1,1l-1,0l-1,0l-1,0l2,0c1,0,1,-1,2,-1c-1,0,-1,0,-1,0c0,0,-1,0,-1,0c0,0,-1,0,-1,0c0,0,-1,0,-1,0c0,0,0,-1,0,-1ZM225.5,157.5c0,0,1,0,1,0c1,0,1,0,1,0c1,0,2,0,2,0l0,1c0,0,0,1,0,1c0,0,-1,0,-1,1l-1,0l-1,0l-1,0l2,-1c1,0,1,0,2,-1c-1,0,-1,0,-1,0c0,0,-1,0,-1,0c0,0,-1,0,-1,0c0,0,-1,0,-1,1l0,-1l0,-1ZM96.5,159.5c0,-1,0,-1,1,-1c0,0,0,-1,0,-1l1,0c0,0,0,1,0,1l0,1l0,1l0,1l0,1l-1,-1l-1,1c0,0,0,1,-1,1l-1,0l1,-1l1,0l0,-1l1,0l-1,0l0,-1l0,-1ZM97.5,159.5l0,1l0,-1ZM394.5,152.5l4,-2c0,0,0,1,0,1l-5,2ZM394.5,169.5l0,-2l0,-1l0,-8l1,-3l0,11c0,0,0,1,0,1c0,1,-1,1,-1,2ZM58.5,108.5l0,-1c0,0,0,-1,0,-1c0,-1,0,-2,0,-2l0,-1c0,0,1,0,1,1c0,0,0,1,0,1l0,1c0,1,0,1,0,1l-1,1ZM57.5,110.5l0,1c0,0,1,0,1,0l1,-1l0,-1l0,1l1,0c0,0,1,0,1,-1l0,-1l0,1l0,1l0,1c0,0,0,1,-1,1c-1,0,-1,0,-1,0l0,-1l0,1c-1,0,-1,1,-1,1c-1,0,-1,-1,-1,-1l0,-1l0,-1ZM268.5,246.5l0,-1c0,0,0,-1,0,-1c0,-1,0,-1,0,-2l0,-1c0,0,0,1,1,1c0,1,0,1,0,1l0,1c0,0,0,1,0,1c0,0,-1,1,-1,1ZM267.5,248.5l0,1l1,0l1,-1l0,-1l0,1c1,1,1,1,1,1c0,0,0,-1,1,-1l0,-1l0,-1l0,1l0,1l0,1c0,0,0,1,-1,1l-1,0l-1,0c0,1,0,1,-1,1l0,-1c0,-1,0,-1,0,-1l0,-1ZM156.5,161.5l4,-2c0,1,0,1,0,1l-4,2ZM157.5,176.5l0,-1l0,-2l0,-8l1,-2l0,10c0,1,0,1,0,1l0,1c0,0,0,1,-1,1ZM103.5,154.5c0,-1,0,-1,0,-2c0,-1,0,-1,0,-2l0,-1c0,1,1,1,1,1c0,1,0,1,0,1l0,1l0,1c0,1,0,1,-1,1ZM102.5,156.5l0,1c1,0,1,1,1,1l0,-1c0,0,1,0,1,0l0,-1l0,-1l0,1c1,0,1,0,1,1c0,0,1,-1,1,-1l0,-1l0,1l0,1c0,1,0,1,0,1l-1,0l-1,0c-1,1,-1,1,-1,1c-1,0,-1,0,-1,0c0,0,0,-1,0,-1c0,0,0,-1,0,-1l0,-1ZM196.5,154.5c0,-1,0,-1,0,-2c0,-1,-1,-1,-1,-2l1,-1c0,1,0,1,0,1c0,1,0,1,0,1l0,1l0,1c0,1,0,1,0,1ZM195.5,156.5l0,1c0,0,0,1,0,1l0,-1l1,0l0,-1l0,-1l1,0l0,1l0,1c1,0,1,-1,1,-1l0,-1l1,0l0,1l0,1l-1,0c0,1,0,1,0,1l-1,0l-1,0c0,1,-1,1,-1,1c0,0,-1,0,-1,0c0,0,0,-1,0,-1c0,0,0,-1,0,-1l0,-1ZM179.5,172.5l0,-1l1,-1l-1,-8l1,-3l0,11c0,1,0,1,0,1c0,1,0,1,-1,1Z" class="g1_32" />
</svg>