<?xml version="1.0" encoding="UTF-8" standalone="no"?>
<!DOCTYPE svg PUBLIC "-//W3C//DTD SVG 1.1//EN"
"http://www.w3.org/Graphics/SVG/1.1/DTD/svg11.dtd">
<svg version="1.1" xmlns="http://www.w3.org/2000/svg" xmlns:xlink="http://www.w3.org/1999/xlink">
<defs>
<style type="text/css"><![CDATA[
.g2_29{
fill: #1F1A17;
stroke: #1F1A17;
stroke-width: 1;
stroke-linecap: butt;
stroke-linejoin: miter;
}
.g1_29{
stroke: #1F1A17;
stroke-width: 1;
stroke-linecap: butt;
stroke-linejoin: miter;
}
]]></style>
</defs>
<path fill-rule="evenodd" d="M199.5,98.5l4,-2l0,1l-4,2ZM332.5,53.5c0,-1,0,-1,1,-1c0,0,1,0,1,0c1,0,1,0,2,0c0,0,0,1,0,1c0,0,0,1,0,1c-1,0,-1,1,-1,1c-1,0,-1,0,-1,0c0,0,-1,0,-1,0c0,0,-1,0,-1,0l2,-1c0,0,1,0,1,0c0,-1,0,-1,0,-1c-1,0,-1,0,-1,0c-1,0,-1,0,-1,0c-1,0,-1,1,-1,1l0,-1ZM297.5,56.5c0,-1,1,-1,1,-1c0,0,1,0,1,0c1,0,1,0,2,0c0,0,0,1,0,1c0,0,0,1,0,1c-1,0,-1,0,-1,1c0,0,-1,0,-1,0l-1,0l-1,0l2,-1c1,0,1,0,2,-1c-1,0,-1,0,-1,0c-1,0,-1,0,-1,0c0,0,-1,0,-1,0c0,0,-1,1,-1,1l0,-1ZM84.5,54.5l1,0c0,0,1,0,1,0c1,0,1,0,1,0c1,0,1,0,1,1l-1,1l-1,0c0,1,0,1,0,1c0,0,-1,0,-1,0l-1,0l2,-1c0,0,1,0,1,-1l-1,0c-1,0,-1,0,-2,0c0,0,0,-1,0,-1ZM129.5,99.5c0,0,1,0,1,0c1,0,1,0,1,0c1,0,1,0,2,0l0,1l0,1c0,0,-1,0,-1,0c0,0,-1,1,-1,1l-1,0l-1,0l2,-1c1,0,1,0,2,-1c-1,0,-1,0,-1,0c0,0,-1,0,-1,0c0,0,-1,0,-1,0c0,0,-1,0,-1,0c0,0,0,-1,0,-1ZM213.5,58.5l1,0c0,0,0,-1,0,-1l0,-1l0,-1l0,-2l0,-1l1,0c0,1,-1,1,-1,1l1,1l0,1l0,1l0,1l0,-1l1,0c0,0,1,-1,1,-1c0,0,1,0,1,1c0,1,0,1,0,1c0,0,0,1,0,1c0,0,-1,0,-1,0c0,0,-1,0,-1,0c-1,0,-1,0,-1,0ZM217.5,56.5c-1,0,-1,0,-1,1l-1,0l-1,1l1,0c0,0,0,-1,1,-1c1,0,1,0,2,0l0,-1c0,0,-1,0,-1,0ZM288.5,48.5c0,-1,0,-1,0,-2c0,-1,0,-1,0,-2c1,0,1,0,1,1l0,1l0,1c0,1,0,1,-1,1ZM332.5,96.5l0,-1c0,0,0,-1,0,-1c0,-1,-1,-2,-1,-2l1,-1l0,1c0,0,0,1,0,1l0,1c0,1,0,1,0,1l0,1ZM107.5,109.5c0,1,0,2,0,3l-1,1l0,1l1,0l0,1l-1,0c0,0,-1,0,-1,1c-1,0,-1,1,-2,1l-1,0l0,1l-1,0l-1,0l-1,1l0,1l-1,0l-2,0l-1,0l-2,0c0,0,-1,0,-1,0l0,-1l-1,-1l-1,0c-1,-1,-2,-1,-2,-1l-1,0l0,-1l-1,0l0,-1l-1,0l-1,0l0,-1l1,0l0,-1l-1,0l0,-1l0,-1c0,-1,0,-1,0,-1l0,-1l0,-1c0,0,0,-1,0,-1c0,-1,0,-1,0,-1l1,-1l-1,0l0,-1l1,0l1,-1l1,-1l2,0l1,-1l1,0l1,-1c0,-1,0,-1,0,-1l1,0l2,0l1,0l2,0l1,0l0,1l1,0l0,1l1,0l2,1l1,0l0,1l1,0l1,1c0,0,1,0,1,1l-1,0l0,1l1,0l0,1l0,1l0,1ZM99.5,120.5l0,-1l1,-1l1,-1c0,0,1,0,1,0l1,0c1,-1,1,-1,1,-1l1,0l0,-1l1,0l0,-1l1,0l-1,0l0,-1l1,-1l0,-1l0,-1l0,-1c0,0,0,-1,0,-2l-1,-1l0,-1l1,0c-1,-1,-1,-1,-2,-1l0,-1l-1,0l0,-1l-2,0l-1,-1c-1,0,-1,0,-1,0l-1,-1c0,-1,0,-1,0,-1l-2,0l-1,0l-2,0l-1,0l-1,0l0,1l-1,1l-1,0l-1,1l-1,0l-1,1l-1,0l0,1c-1,0,-1,0,-2,1l1,0l0,1l-1,1l0,1l0,1l0,1l0,1l0,1c0,0,1,0,1,1l0,1l-1,0l1,0l0,1l1,0l0,1l1,0l1,1l1,0l1,0c1,1,1,1,1,1l1,0l0,1c0,0,0,1,0,1l3,0l1,0ZM104.5,105.5l-1,0l0,-1l-1,0c-1,0,-1,0,-1,0c0,-1,0,-1,0,-1l1,0c0,0,1,0,1,0l0,1l1,0ZM104.5,114.5l0,1l-1,0l0,1l-1,0l-1,0c0,0,1,0,1,-1c1,0,1,-1,2,-1ZM100.5,116.5c0,1,0,1,-1,1c0,1,0,1,-1,1l-2,0l-1,0l-2,0c-1,0,-1,0,-1,-1c-1,0,-1,0,-1,0l0,-1l1,0c0,0,0,-1,0,-1l3,0l1,0l3,0l0,1l1,0ZM100.5,103.5l-1,0c0,1,0,1,0,1l-1,0l-2,0l-1,0l-2,0l-1,0l0,-1l-1,0c0,-1,0,-1,1,-1l0,-1l1,0l2,0l1,0l2,0l1,0l0,1c1,0,1,0,1,0ZM98.5,105.5l1,0c1,0,1,0,1,0c1,0,1,0,1,0c0,0,1,0,1,1l1,0l1,0l1,1l0,1l0,1l0,1c0,1,0,1,0,1l0,1l-1,1l-1,0l-1,1l-1,0l-1,0c0,0,-1,0,-1,0l-1,0l-2,0l-1,0l-2,0l-1,0l-1,0c-1,0,-1,0,-1,0c-1,0,-1,0,-1,-1l-1,0l-1,0l-1,-2l0,-1l0,-1c0,-1,0,-1,0,-1l0,-1l1,-1l1,0l1,0l0,-1l1,0l1,0l1,0l1,0l2,0l1,0ZM99.5,113.5l0,1c0,0,1,0,1,0l1,0l1,0l0,-1c1,0,1,-1,1,-1l1,1l0,-1l1,0l0,-1l0,-1l0,-1c0,0,0,-1,0,-1c0,-1,-1,-1,-1,-1c0,-1,0,-1,0,-1l-1,1c0,0,0,-1,0,-1l-1,0l0,-1l-1,0l-1,0l-1,0l0,1l-3,0l-1,0l-3,0l0,-1l-1,0c0,0,-1,0,-1,0l-1,0l0,1c-1,0,-1,0,-1,1l-1,-1l0,1l-1,0l0,1l0,1l0,1l0,1c1,1,1,2,1,2l1,-1c0,0,0,1,1,1l0,1l1,0l1,0c0,0,1,0,1,0l0,-1l3,0l1,0l3,0ZM96.5,108.5l1,0l1,0l0,1l0,1c0,0,0,1,0,1l0,1l-1,-1l0,-1l0,-1c-1,0,-1,0,-1,0l0,-1ZM94.5,109.5l-1,0l1,0l0,1l-1,1c0,0,1,0,1,0l1,0l0,1c0,0,-1,0,-1,0c-1,0,-1,0,-1,-1l0,-1l0,-1l0,-1c0,0,1,0,1,0ZM87.5,105.5l0,-1l1,0l0,-1l1,0l1,0l0,1l-1,0l-1,0l0,1l-1,0ZM87.5,114.5c1,0,1,1,2,1l1,1l-1,0c0,0,-1,0,-2,-1l0,-1ZM145.5,105.5l-1,-1l1,-1l1,1ZM145.5,112.5l-1,0l-1,0l-1,0c-1,0,-2,0,-2,0c-1,0,-1,0,-1,-1c-1,1,-1,1,-2,1c0,0,-1,0,-2,0l-2,0c0,0,0,1,0,1c0,0,0,1,-1,1c0,1,0,1,0,1c-1,1,-1,1,-1,1c0,1,-1,1,-1,1l-1,0c-1,0,-1,0,-1,0l-1,0c0,0,-1,0,-1,0c0,0,-1,0,-1,0l0,-1c0,0,1,0,1,1c1,0,1,-1,2,-1c0,0,1,0,1,0c1,-1,1,-1,1,-1c0,0,1,0,1,-1c1,-1,1,-1,1,-1c0,0,0,-1,0,-1l-1,0c-1,0,-1,0,-1,0c0,0,-1,-1,-1,-1c0,0,0,-1,0,-1c0,-1,0,-1,1,-1c0,0,0,-1,0,-1c1,0,1,-1,1,-1c1,0,1,0,1,0c0,1,0,1,1,1l0,1c0,1,0,1,0,1c1,0,1,0,1,0c1,0,1,0,1,0c0,0,1,0,1,0c0,0,1,0,1,0l0,-1c0,-1,0,-1,0,-2c1,0,1,-1,1,-1l1,0c0,-1,1,-1,1,-1c1,0,1,0,1,1c0,0,1,0,1,1l0,1l-1,1c0,1,0,1,0,1l1,0l1,0l1,0l1,0c0,0,1,0,1,0c1,0,1,0,1,0c0,0,1,0,1,-1c-1,0,-1,0,-1,0l0,-1l0,-1l0,-1c0,0,1,0,1,0c0,0,0,1,0,1c0,1,0,1,0,1c0,1,0,1,0,1c0,1,0,1,0,1c0,1,0,1,0,1c-1,0,-1,1,-2,1c0,0,-1,0,-1,0ZM145.5,96.5l1,-1l1,0c0,0,0,1,0,1c0,0,0,1,0,1c0,0,0,1,0,1l1,0l-1,1l-1,0l-1,1l-1,0l0,1l-1,0l1,-1c0,0,1,-1,1,-1l1,-1l-1,0c0,0,0,-1,0,-1l0,-1ZM146.5,96.5c0,0,0,1,0,1ZM139.5,104.5l-1,-1l1,-2l1,2ZM140.5,107.5c-1,0,-1,0,-1,0c-1,0,-1,1,-1,1c0,1,1,1,1,1c1,0,1,0,1,0c0,0,1,-1,1,-1c0,0,0,-1,-1,-1ZM140.5,93.5c0,-1,0,-1,0,-1c0,0,1,0,1,0c1,0,1,0,1,1l0,1c-1,0,-1,0,-1,0l1,1l0,1l-1,-1l-1,1c-1,1,-1,1,-1,1l-1,0c-1,0,-1,0,-1,0l1,0l1,-1l1,-1c-1,-1,-1,-1,-1,-1c0,-1,0,-1,1,-1ZM141.5,93.5l-1,0l0,1l1,0l0,-1ZM131.5,109.5l-1,0c0,1,0,1,0,1c0,0,1,0,1,0l1,0c0,-1,0,-1,-1,-1ZM117.5,115.5c0,0,1,0,1,0l1,0c0,0,1,0,2,-1c1,0,1,0,2,-1c0,0,0,-1,1,-1c0,0,0,-1,0,-1l0,-1l0,-1l-1,-1l1,-1l0,-1l0,1c0,0,1,1,1,1l0,1l0,1c0,1,0,1,0,2c0,1,-1,1,-1,1c0,1,0,1,0,1c0,0,-1,1,-1,1l-1,1c-1,0,-1,0,-1,0c-1,0,-1,0,-1,0l-1,0c0,0,-1,0,-1,0l-1,0l0,-1ZM119.5,100.5l5,-2c-1,0,-1,1,-1,1l-5,2ZM120.5,97.5l5,-3c0,1,0,2,0,2l-5,2ZM116.5,112.5l0,-1l0,-1l-1,-9l1,-2l1,11c0,0,0,1,-1,1c0,0,0,1,0,1ZM197.5,111.5l-1,0c0,1,-1,1,-2,1l-1,0l-1,0l-1,0l0,-1l0,-1c0,0,1,0,1,0l1,0c0,0,1,0,1,0c1,0,1,0,1,0c0,0,1,0,1,0c0,-1,1,-1,1,-1c0,0,0,-1,0,-1c0,0,-1,-1,-1,-1l-1,-1l-1,0l-1,-1l1,-2c0,0,0,1,0,1l1,0c1,0,1,1,1,1c1,0,1,1,1,1c0,1,0,1,1,2c0,1,0,1,0,1c0,0,0,1,0,1c0,0,0,1,-1,1ZM190.5,98.5c1,-1,1,-1,1,-1c1,0,1,0,2,0c0,0,1,0,1,0c0,0,1,1,1,1c-1,1,-1,1,-1,1c0,0,0,1,-1,1c-1,0,-1,0,-1,0l-1,0l1,-1c1,0,1,0,2,0c0,-1,-1,-1,-1,-1l-1,0c0,0,-1,0,-1,0c0,0,0,1,-1,1l0,-1ZM187.5,116.5l-1,-1l1,-2l1,1ZM185.5,112.5l-1,0c0,1,0,1,0,1c0,1,0,2,-1,2c0,0,0,1,0,1c0,0,-1,0,-1,1c0,0,-1,0,-1,0c0,0,0,1,-1,1l-1,0c-1,0,-1,0,-2,-1l-1,0l1,0l1,0c0,0,1,0,1,0c1,-1,1,-1,2,-1l0,-1c1,0,1,0,1,0c0,-1,0,-1,1,-1c0,-1,0,-1,0,-2c1,0,1,0,1,0l-1,-1l0,-1c0,0,0,-1,0,-1c0,0,0,1,1,1l1,0c1,0,1,0,2,0l1,0l0,-1l0,-1c-1,0,-1,0,-1,0l0,-1l1,-1l0,1l0,1l1,1l-1,0c0,1,0,1,0,1c0,1,0,1,0,1c0,0,-1,1,-2,1l-1,0ZM185.5,104.5l0,-1c0,0,0,-1,0,-1c0,-1,0,-2,-1,-2l1,0l0,-1l1,1c0,0,0,1,0,1l0,1c0,1,0,1,0,1c0,0,-1,0,-1,1ZM183.5,122.5l-4,2c0,0,1,-1,1,-1l4,-2ZM176.5,111.5l-1,0l-1,0c0,0,-1,0,-1,0l-1,0c0,0,-1,0,-1,0c0,0,0,1,-1,1l-1,0l-1,0l-1,0c0,0,-1,0,-1,0c-1,0,-1,-1,-1,-1c0,1,0,1,-1,2c0,0,-1,0,-2,-1c0,0,-1,0,-1,0l-1,1l-1,1c0,0,-1,0,-2,1c-1,0,-2,0,-4,0l5,-2l1,-1c1,0,1,0,2,-1l0,-1c1,-1,1,-2,1,-2l1,0c1,0,1,0,2,1c0,0,0,1,1,1l1,0l1,0c0,0,1,0,1,0c1,0,1,0,1,0c0,0,0,-1,0,-1c0,0,0,-1,0,-1c0,-1,1,-1,1,-1c0,0,0,-1,0,-1l0,-1c1,0,1,-1,1,-1c1,0,1,0,2,1c1,1,1,1,2,1c0,1,0,1,1,2l0,1c0,1,0,1,0,1l0,1l-1,0ZM172.5,107.5c0,0,-1,0,-1,1l0,1c1,0,1,0,1,0c0,0,1,0,1,0c0,0,0,-1,0,-1l0,-1c0,0,-1,0,-1,0ZM174.5,107.5c0,0,0,1,0,1l0,1l2,1c0,0,0,-1,0,-1c0,0,-1,0,-1,-1c-1,0,-1,0,-1,-1ZM172.5,115.5l-4,2c0,0,1,-1,1,-1l4,-2ZM164.5,111.5l0,-1l-1,0c0,-1,0,-1,0,-1l-1,0c0,1,0,1,0,1l1,0l0,1ZM159.5,101.5c1,0,1,0,1,0c1,0,1,0,2,0c0,0,1,0,1,0c0,0,1,0,1,0c0,1,0,1,0,1c-1,0,-1,0,-1,1l-1,0c-1,1,-1,1,-1,1l-1,0l0,-1l1,0c1,0,1,-1,2,-1c0,0,-1,0,-1,0l-1,0c0,0,-1,0,-1,0l-1,0c0,-1,0,-1,0,-1ZM233.5,109.5c-1,0,-1,1,-2,1c-1,1,-3,1,-4,1c-1,1,-2,1,-3,1c-1,0,-1,0,-1,0c-1,-1,-1,-1,-2,-2l0,1l-1,1c-1,0,-1,0,-1,0l1,0l1,0l0,1c0,0,1,0,1,0c0,1,0,1,0,1c0,1,-1,1,-1,1c0,1,-1,1,-1,1c-1,1,-2,1,-2,2c-1,0,-2,0,-3,0c-1,0,-2,0,-2,0c-1,-1,-2,-1,-2,-1c0,-1,0,-1,-1,-1c0,-1,0,-1,0,-2c0,-1,0,-1,0,-2c1,-1,1,-1,1,-2c0,0,1,0,1,0c0,1,-1,1,-1,2c0,0,0,1,0,1l0,1c0,0,0,1,1,1c1,1,2,1,3,1c1,0,1,0,2,0l1,0c0,0,1,-1,2,-1c0,0,0,-1,1,-1c-1,0,-1,0,-2,0c-1,0,-1,-1,-1,-1c0,0,0,-1,0,-1c0,-1,0,-1,0,-1c0,0,1,0,1,0c0,0,1,0,1,-1c0,0,1,0,1,0l0,-1c0,-1,0,-1,0,-1c0,0,0,-1,0,-1l0,-7l1,-2l0,11c0,0,1,1,1,1l1,0l1,0c1,0,1,0,2,0c-1,0,-1,-1,-1,-1c0,-1,0,-1,0,-1c0,-1,0,-1,0,-1c0,0,0,-1,0,-1l0,-1c0,0,1,0,1,0c0,0,0,-1,0,-1c1,0,1,0,1,0c0,0,1,0,1,0c1,0,1,0,1,0c0,0,1,0,1,0l0,1c1,0,1,0,1,0l-1,0l-1,0l-1,0l-1,0l-1,1c0,1,0,1,0,1l0,1c1,0,2,1,2,1c0,0,1,0,1,0l1,0c0,-1,0,-1,0,-1l1,0l1,0l1,-1ZM225.5,99.5l4,-2l0,1l-1,0l-4,2ZM216.5,91.5c1,0,1,0,2,0c1,0,1,0,1,0c0,0,1,0,1,0l1,0c0,0,-1,1,-1,1l-1,0l-1,0l-1,0l-1,0l-1,0c0,-1,0,-1,1,-1ZM218.5,95.5c0,1,0,2,-1,2l1,0l0,-1c0,0,-1,-1,-1,-1l0,-1l0,-1l0,-1l0,1l1,0l0,1l0,1ZM263.5,108.5l0,1c1,0,1,0,1,0c0,0,0,-1,0,-1l-1,0ZM263.5,116.5c0,0,-1,0,-1,1c0,0,-1,0,-2,0c0,0,-1,0,-2,-1l1,0c0,0,1,0,1,0l1,0c0,-1,1,-1,1,-1c0,0,1,0,1,-1l1,-1l0,-1c1,0,1,-1,1,-1l0,-1c0,1,0,1,0,1c-1,0,-1,0,-1,0c0,0,-1,0,-1,0l-1,0c0,0,0,-1,0,-1c0,0,0,-1,0,-1c0,0,0,-1,0,-1c0,0,0,-1,0,-1c1,0,1,-1,1,-1l1,0c1,0,1,1,1,1c0,0,0,1,0,1c0,0,0,1,1,1c0,0,0,1,0,1c0,0,0,1,0,1c-1,1,-1,2,-1,3c0,0,-1,1,-1,1l-1,1ZM260.5,102.5l5,-2l-1,1l-4,2ZM254.5,110.5l1,0l1,0c0,0,0,-1,0,-1l0,-2l0,-6l0,-1c0,0,0,-1,0,-1c0,0,0,-1,1,-1c0,0,0,1,0,1c0,1,0,1,1,1l-1,1l0,1l0,-1c0,1,0,1,0,1c0,0,0,1,0,2c0,0,0,1,0,2c0,1,0,1,0,1l0,2c0,1,0,1,0,1c0,1,0,1,0,1c-1,0,-1,0,-1,0c0,0,0,1,0,1c0,0,-1,0,-1,0l-1,0l-1,0c-1,0,-1,1,-1,1c0,0,0,1,0,1c0,1,-1,1,-1,1c0,1,0,1,-1,1c0,1,0,1,-1,1c0,0,-1,0,-1,0c0,0,-1,0,-1,0c-1,0,-1,0,-2,0l-1,0l0,-1c1,0,1,0,1,1c0,0,1,0,1,0c0,0,1,-1,1,-1c1,0,1,0,2,0c0,-1,0,-1,0,-1c1,0,1,0,1,-1c0,0,1,0,1,0c0,-1,0,-1,0,-1c0,0,0,-1,0,-1l-1,0l-1,0c0,0,0,-1,0,-1c0,0,0,-1,0,-1c0,-1,0,-1,0,-1c0,0,0,-1,0,-1c1,0,1,0,1,0c0,0,0,-1,0,-1c0,0,1,0,1,0c1,1,1,1,1,1l0,1c1,1,1,1,1,1l1,0ZM255.5,94.5l1,1c0,0,1,0,1,-1l0,-1l0,1c1,0,1,0,1,0l0,-1l1,0c0,1,0,1,0,1l0,1c-1,0,-1,0,-1,1l-1,0l0,-1l0,1c-1,0,-1,0,-1,0c0,0,-1,0,-1,0l0,-1l0,-1ZM260.5,91.5l-6,3c0,-1,1,-1,1,-1l5,-3ZM250.5,109.5c0,1,0,1,0,1c0,0,1,0,1,0c0,-1,0,-1,0,-1c0,0,-1,0,-1,0ZM246.5,101.5c0,0,1,0,1,0c0,0,1,0,1,0c1,0,1,0,2,0c0,1,0,1,0,1l0,1c-1,0,-1,0,-1,0c-1,0,-1,0,-1,1c0,0,-1,0,-1,0c0,0,-1,0,-1,0l2,-1c0,0,1,-1,1,-1c-1,0,-1,0,-1,0c-1,0,-1,0,-1,0c-1,0,-1,0,-1,0c0,-1,0,-1,0,-1ZM243.5,112.5l0,-1l0,-1l-1,-9l1,-2l1,11c0,0,0,1,-1,1c0,0,0,1,0,1ZM310.5,108.5c-1,0,-1,0,-1,1c0,0,1,0,1,0c1,0,1,0,1,0c0,0,0,-1,0,-1c-1,0,-1,0,-1,0ZM310.5,116.5l-1,0l0,1c-1,0,-1,0,-2,0c-1,0,-1,0,-2,-1l-1,0c1,0,1,0,1,0c0,0,1,0,1,0l1,0c0,0,1,0,1,0c0,-1,0,-1,0,-1c1,0,1,0,2,-1l0,-1c0,0,1,0,1,-1c0,0,0,-1,0,-1l0,-1c0,1,0,1,0,1c-1,0,-1,0,-1,0l-1,0c0,0,0,-1,-1,-1c0,0,0,-1,0,-1c0,0,0,-1,1,-1c0,0,0,-1,0,-1c0,0,0,-1,1,-1c1,0,1,0,1,0c0,0,1,1,1,1c0,0,0,1,0,1c0,0,0,1,0,1c0,0,0,1,0,1c0,0,0,1,0,1c0,1,0,2,0,3c-1,0,-1,1,-1,1c0,0,-1,0,-1,1ZM307.5,102.5l4,-2l0,1l-4,2ZM304.5,108.5l-1,1l-1,0l-1,0l0,1c-1,0,-1,0,-1,0l-1,0l-1,1l-2,0c0,1,0,1,0,1l-1,0l-1,0l-1,0l-2,0c-1,0,-1,0,-1,0l0,-1l-1,0c0,-1,0,-1,0,-1l-1,0c0,1,0,1,0,1c-1,0,-1,1,-2,1c0,0,-1,0,-1,0l-1,0l-1,0l0,-1c-1,0,-1,0,-1,0l0,-1c0,-1,0,-1,0,-1l1,0l0,1l1,0l1,0l1,0c1,0,1,0,1,0c1,0,1,-1,1,-1l1,0c0,0,0,-1,-1,-2l0,-1l0,-1l0,-1l1,-1l0,1c0,0,0,1,0,2l1,2c0,1,0,1,0,1c0,1,0,1,0,1l1,0l2,0c0,-1,0,-1,0,-1l0,-1c1,-1,1,-1,1,-1l1,-1l1,0l1,0c1,0,1,0,1,0l2,1l1,0l1,0l1,1l1,0ZM299.5,109.5l-1,-1c0,0,-1,0,-1,0l-1,0l-1,0c0,0,-1,0,-1,1c0,0,0,1,0,1l-1,0l1,0l1,0l1,0l2,-1l1,0ZM293.5,98.5c0,-1,1,-1,1,-1c0,0,1,0,1,0c1,0,1,0,2,0c0,0,0,1,0,1c0,1,0,1,0,1c-1,0,-1,1,-1,1c-1,0,-1,0,-1,0c0,0,-1,0,-1,0c0,0,-1,0,-1,0l2,-1c1,0,1,0,1,0c0,-1,0,-1,0,-1c-1,0,-1,0,-1,0c-1,0,-1,0,-1,0c-1,0,-1,1,-1,1l0,-1ZM284.5,99.5l4,-2l0,1l-4,2ZM277.5,112.5c-1,0,-1,0,-2,0c0,-1,0,-1,0,-2c0,0,0,-1,0,-1l0,-1l0,-1l1,-1c1,-1,1,-1,1,-1c1,0,1,0,1,1c1,0,1,1,1,2l1,0c0,0,0,1,0,1c0,1,-1,2,-2,3c0,0,-1,0,-1,0ZM277.5,108.5l-1,0l-1,1c0,0,1,1,1,1l1,0l1,0c1,0,1,0,1,-1l-1,-1c0,0,-1,0,-1,0ZM275.5,102.5l0,-1l0,-1c-1,0,-1,-1,0,-2c0,-1,0,-1,0,-1l1,0c0,-1,0,-1,1,-1l-1,1l0,1l-1,1l0,1l0,1c1,0,1,0,1,0l0,-1c0,0,1,0,1,1c0,1,0,1,0,1l-1,0l-1,0ZM360.5,112.5l0,-1l0,-1l-1,-9l1,-2l1,11c-1,0,-1,1,-1,1c0,0,0,1,0,1ZM352.5,110.5c0,0,1,0,1,0l1,0c1,0,1,-1,1,-1l-1,-2l0,-6l0,-1c0,0,0,-1,0,-1c0,0,0,-1,1,-1c0,0,0,1,0,1c0,1,0,1,1,1l0,1c-1,0,-1,0,-1,1l0,-1c0,1,0,1,0,1c0,0,0,1,0,2c0,0,0,1,0,2c0,1,0,1,0,1l0,2c0,1,0,1,0,1c0,1,0,1,0,1l-1,0c0,0,0,1,0,1c0,0,-1,0,-1,0l-1,0l-1,0l-1,0c-1,0,-2,0,-2,0c0,0,-1,0,-1,-1c-1,1,-1,1,-2,1c0,0,-1,0,-1,0l-1,0c-1,0,-1,0,-1,0c0,1,0,1,0,1c0,1,-1,2,-1,2c0,0,0,1,0,1c-1,0,-1,0,-1,1c0,0,-1,0,-1,0c0,0,-1,1,-1,1c0,0,-1,0,-1,0c-1,0,-1,0,-2,-1c0,0,-1,0,-1,0c0,0,1,0,1,0l1,0c0,0,1,0,1,0c0,-1,1,-1,1,-1c1,0,1,0,1,-1c0,0,1,0,1,0c0,-1,0,-1,0,-1c1,-1,1,-1,1,-2l0,-1c-1,0,-1,0,-1,-1l1,0c0,0,0,-1,0,-1c0,0,0,1,0,1l1,0l1,0l1,0l1,0l0,-1c0,-1,0,-1,0,-2c1,0,1,-1,1,-1l1,0c0,-1,1,-1,1,-1c1,0,1,0,1,1c1,0,1,0,1,1l0,1c0,0,0,1,-1,1c0,1,0,1,0,1c0,0,1,0,1,0l1,0ZM352.5,94.5c0,0,1,0,1,0c0,0,1,0,1,0c1,0,1,0,2,0l0,1l0,1c-1,0,-1,0,-1,0c0,0,-1,0,-1,0l-1,0l-1,0l2,0c1,0,1,-1,2,-1c-1,0,-1,0,-1,0c-1,0,-1,0,-1,0c0,0,-1,0,-1,0c-1,0,-1,0,-1,0l0,-1ZM348.5,104.5l-1,-1l-1,1l-1,-1l0,-1l2,1l1,-2l1,1ZM348.5,107.5c-1,0,-1,0,-1,0c-1,0,-1,1,-1,1c0,1,1,1,1,1c1,0,1,0,1,0c1,0,1,-1,1,-1c0,0,0,-1,-1,-1ZM348.5,93.5c0,-1,0,-1,0,-1c1,0,1,0,1,0c1,0,1,0,1,1l0,1c0,0,-1,0,-1,0l1,1l0,1l-1,-1l-1,1c0,1,-1,1,-1,1l-1,0c0,0,-1,0,-1,0l1,0l1,-1l1,-1c0,-1,-1,-1,-1,-1c0,-1,0,-1,1,-1ZM349.5,93.5l-1,0l0,1l1,0l0,-1ZM336.5,101.5c1,0,1,0,1,0c1,0,1,0,2,0c0,0,1,0,1,0c1,0,1,0,1,0c0,1,0,1,0,1c0,0,-1,0,-1,1l-1,0l0,1c-1,0,-1,0,-1,0l-1,0l1,-1c1,0,2,-1,2,-1c0,0,-1,0,-1,0l-1,0l-1,0l-1,0c0,-1,0,-1,0,-1ZM333.5,112.5l0,-1l0,-1l0,-9l1,-2l0,11c0,0,0,1,0,1c0,0,-1,1,-1,1ZM325.5,106.5l-2,-1l1,-2l1,1ZM324.5,115.5c0,0,-1,0,-1,0c-1,0,-1,0,-2,-1l-1,-1c0,0,0,-1,0,-2l0,-1c0,0,0,-1,0,-1c0,0,1,0,1,0c0,0,0,-1,0,-1l1,0l-1,1c0,0,0,1,0,1c0,1,0,1,0,1l0,1c0,0,1,0,1,1c1,0,1,0,1,0c0,0,1,0,2,0c1,0,1,0,2,0c1,0,1,-1,2,-1c0,0,0,-1,0,-1c0,0,0,-1,0,-1c0,-1,0,-1,0,-1l0,-1c0,0,-1,0,-1,-1l0,-1l0,-2c0,1,1,1,1,1c0,1,0,1,0,1c0,1,0,1,1,1c0,0,0,1,0,1c0,0,0,1,0,1c0,0,0,1,0,1c0,1,0,1,0,2c-1,1,-1,1,-2,2c0,0,-1,1,-2,1c0,0,-1,0,-2,0ZM327.5,120.5l-4,2c0,-1,0,-1,0,-1l4,-2ZM93.5,56.5l-1,-1l0,-1l2,1ZM94.5,62.5l0,1c-1,0,-1,0,-1,0l-1,0l0,-1l-1,0c0,0,0,-1,0,-1c0,0,0,-1,0,-1l1,-1l0,-1c0,0,1,-1,1,-1c1,0,1,1,1,1c1,1,1,1,1,2l1,1c0,0,0,1,0,1c0,0,0,1,0,1c0,1,-1,1,-1,1c0,1,0,1,-1,1c1,1,1,1,1,1c0,0,1,0,1,0c0,1,0,1,0,1c0,0,0,1,0,1c0,1,0,1,-1,1l-1,1c0,0,-1,1,-2,1c-1,0,-2,0,-3,0c0,0,-1,0,-2,0c0,0,-1,-1,-1,-1c-1,0,-1,-1,-1,-1c0,0,0,-1,0,-1c0,-1,0,-1,0,-1c0,0,0,-1,0,-2c0,0,1,-1,1,-2c0,0,0,1,0,1c0,0,0,1,0,1c0,1,-1,1,-1,1c0,1,0,1,0,1c1,0,1,0,1,0c0,1,0,1,1,2c0,0,1,0,2,0l1,0c0,0,1,0,1,0c0,0,1,0,1,0c1,0,2,0,2,-1c1,0,1,0,1,-1c0,0,-1,0,-1,0c-1,0,-1,0,-2,0c0,0,0,-1,0,-1l0,-1c1,0,1,0,2,-1l1,0l0,-1l0,-1l-1,0ZM92.5,60.5c0,0,0,1,1,1l1,0l0,-1c-1,0,-1,0,-1,0l0,-1l0,1c0,0,-1,0,-1,0ZM96.5,71.5l-4,2c0,0,1,-1,1,-1l3,-2ZM124.5,69.5c0,-1,0,-1,0,-1c0,0,1,0,1,1l1,0c0,0,1,-1,2,-1c1,-1,1,-1,2,-1c0,-1,0,-1,1,-2l0,-1c0,0,0,-1,0,-1l0,-1l-1,0l0,-1l1,-1l0,-1l0,1c0,0,1,1,1,2l0,1l0,1c0,0,0,1,0,1c0,1,0,1,0,1l-1,0c0,1,0,1,0,1c0,1,-1,1,-1,1c0,0,0,1,-1,1c-1,0,-1,0,-1,0c-1,0,-1,0,-1,0l-1,0c0,0,-1,0,-1,0l-1,0ZM127.5,56.5l4,-3l0,1c0,0,-1,0,-1,1l-4,2ZM123.5,69.5l-1,-1l1,-1l1,1ZM121.5,65.5l-1,0c-1,0,-1,0,-1,0c-1,0,-1,0,-2,-1c0,0,0,-1,0,-2c0,0,-1,1,-1,1c-1,1,-1,1,-2,2c-1,0,-1,0,-1,0l-1,0l-1,0l-1,1l-1,0l-1,0l-1,0c0,0,-1,0,-1,0l-1,0c-1,0,-2,-1,-2,-2c-1,0,-1,-1,-1,-2c0,-1,0,-1,0,-1c0,0,0,-1,1,-1l0,1c0,1,1,2,2,2c0,1,1,1,2,1c0,0,1,0,2,0l1,0l1,0l1,0c3,-1,4,-2,5,-3l0,-1l-1,-7l1,-2l1,11c0,0,0,1,0,1c0,0,1,0,1,1l1,0l1,0c0,0,1,0,1,-1c1,0,1,0,1,0l0,-1l0,-1l-1,0l1,-2l1,1l0,1l0,1l0,1l0,1l-1,0c0,1,0,1,-1,1c0,0,-1,0,-1,0ZM365.5,51.5l0,1c0,0,1,0,1,-1l0,-1l0,1l1,0l1,-1l0,1l0,1c0,0,-1,0,-1,0c-1,0,-1,0,-1,0l0,1c-1,0,-1,0,-1,0c0,0,-1,0,-1,0c0,0,0,-1,0,-1l0,-1ZM369.5,48.5l-6,3c1,-1,1,-2,1,-2l5,-2ZM120.5,53.5l0,1c1,0,1,0,1,0l1,0l0,-1l0,1l1,0c0,0,0,-1,0,-1l0,-1l1,0l0,1l0,1l-1,0c0,0,0,1,0,1l-1,0l0,-1l0,1c-1,0,-1,0,-1,0c-1,0,-1,0,-1,0l0,-1l0,-1ZM124.5,50.5l-5,3c1,-1,1,-1,1,-2l5,-2ZM110.5,60.5c0,1,-1,1,-1,1c-1,0,-1,0,-1,0c0,0,-1,0,-1,0l0,-1l1,0l1,0c1,0,1,0,1,-1l-1,0c0,0,-1,0,-1,0l0,-1l0,-1c1,-1,1,-2,2,-2l0,1c-1,1,-1,1,-1,1l1,1c1,0,1,0,1,1c0,1,0,1,-1,1ZM107.5,52.5l4,-2l0,1l-1,0l-4,2ZM173.5,54.5l-1,0l0,-2l2,1ZM177.5,64.5l-1,0l0,1c-1,0,-1,0,-2,0l-1,0l-1,0l-1,0l0,-1l0,-1l1,0c1,0,1,0,2,0l1,0l1,0l1,-1c0,0,-1,0,-1,-1l-1,-1l-1,-1l-1,0l0,-2c1,0,1,0,1,0c1,0,1,0,1,0c0,1,0,1,0,1c1,0,1,0,1,0c0,1,0,1,1,2l0,1l0,1c0,1,0,1,0,1c0,0,0,1,0,1ZM171.5,49.5l4,-2l0,1c0,0,-1,0,-1,0l-4,2ZM170.5,52.5c0,0,-1,1,-2,1c-2,1,-3,1,-4,2c-1,0,-2,1,-2,1c-1,0,-1,0,-1,0l0,1l1,0l1,1c1,0,1,1,2,2l1,1c0,0,0,1,0,1c0,1,0,1,-1,2c0,1,-1,1,-1,1l-1,0l-1,0l-1,0c0,0,0,1,0,1c-1,1,-1,2,-1,2c0,1,0,1,-1,1c0,0,0,1,0,1c-1,0,-1,0,-1,1c-1,0,-1,0,-1,0c-1,0,-1,0,-1,0l-1,0c0,0,-1,0,-1,0c-1,-1,-1,-1,-1,-1l1,0c1,0,1,0,2,0c0,0,1,-1,1,-1c0,0,1,0,1,0c0,-1,0,-1,1,-1c0,0,0,-1,0,-1c0,0,1,-1,1,-1c0,-1,0,-1,0,-1l-1,-1c0,-1,0,-1,0,-1c1,0,1,-1,1,-1l0,1l1,0c0,0,0,1,0,1l1,0l1,0l0,-1c1,0,1,0,1,0c1,0,1,0,1,0c0,0,0,-1,0,-1c-1,-1,-1,-2,-2,-2l0,-1c-1,0,-1,0,-1,0c-1,0,-1,0,-1,0l0,-1c-1,0,-1,0,-1,0c0,-1,0,-1,0,-1l0,-1l1,-1c1,-1,2,-1,4,-2c1,0,2,-1,4,-1c0,-1,1,-1,2,-1ZM165.5,49.5l4,-2l0,1l-1,0l-4,2ZM155.5,54.5c0,0,1,0,1,0c1,0,1,0,2,0c0,0,1,0,1,0c0,0,1,0,1,1l-1,0c0,0,0,1,0,1c0,0,-1,0,-1,1l-1,0l-1,0l-1,0l2,-1c1,0,1,0,2,-1c-1,0,-1,0,-1,0c0,0,-1,0,-1,0c0,0,-1,0,-1,0c0,0,-1,0,-1,1l0,-1l0,-1ZM148.5,58.5l-1,2l-1,-1l-1,1l-1,-1l1,-1l1,1l1,-2ZM154.5,63.5c-1,1,-1,1,-2,1c-1,1,-2,1,-3,1c-1,1,-3,1,-4,1c-1,0,-2,0,-3,0c-1,-1,-2,-1,-3,-2l0,-1c-1,0,-1,0,-1,0c0,-1,0,-1,0,-1c0,-1,0,-1,1,-1c0,-1,0,-1,1,-2l0,1l-1,0c0,1,0,1,0,1c0,1,0,1,1,1c0,1,0,1,1,2c0,0,1,0,1,0l1,0l1,0l2,0c1,0,1,0,2,0l1,0c0,0,1,0,1,-1l1,0c1,0,1,0,2,0c0,-1,1,-1,1,-1l0,-1c0,-1,-1,-1,-1,-1l0,-1c1,0,1,-1,1,-1c0,0,0,1,1,1c0,0,0,1,0,1l0,1c0,0,0,1,0,1c-1,1,-1,1,-1,1ZM145.5,52.5l4,-2l0,1l-4,2ZM206.5,61.5l-1,1c0,0,1,0,1,0c0,0,1,0,1,0c0,0,-1,0,-1,0c0,-1,0,-1,0,-1ZM206.5,69.5l-1,0c0,1,0,1,0,1c-1,0,-1,0,-2,0c-1,0,-1,0,-2,0c0,0,-1,-1,-1,-1c0,0,1,0,1,0l1,0l1,0c0,0,1,0,1,0l0,-1c1,0,1,0,2,0c0,-1,0,-1,0,-1c0,0,1,-1,1,-1c0,-1,0,-1,0,-2l-1,0l-1,0c-1,0,-1,0,-1,-1c0,-1,0,-1,0,-1c1,-1,1,-1,1,-2l1,0c0,-1,0,-1,0,-1c1,0,1,0,1,1l1,0c0,1,0,1,0,1c0,0,0,1,0,1c0,1,0,1,0,1c0,1,0,1,0,1c0,1,0,2,-1,3c0,0,0,1,0,1c0,0,-1,1,-1,1ZM203.5,56.5l4,-3l0,1l0,1l-4,2ZM192.5,54.5l-1,0l1,-2l1,1ZM196.5,64.5l-1,1c-1,0,-1,0,-2,0l-1,0l-1,0l-1,0l0,-1l0,-1c0,0,1,0,1,0c1,0,1,0,2,0c0,0,1,0,1,0c0,0,1,0,1,0l1,-1l-1,-1l0,-1l-1,0l-1,-1l-1,0l1,-2l1,0c0,1,0,1,1,1c0,1,1,1,1,2l0,1l1,1c0,1,0,1,-1,1c0,0,0,1,0,1ZM190.5,49.5l4,-2l0,1l-4,2ZM186.5,65.5l0,-1l0,-1l-1,-8l1,-3l1,11c0,1,0,1,0,1c0,1,-1,1,-1,1ZM243.5,61.5l0,1l-1,0c1,0,1,0,1,0l1,0c0,-1,-1,-1,-1,-1ZM243.5,69.5c-1,1,-1,1,-1,1c-1,0,-1,0,-2,0c-1,0,-1,0,-2,0c0,0,0,-1,-1,-1c0,0,1,0,1,0c1,0,1,0,1,0c0,0,1,0,1,0c1,0,1,0,1,0l1,-1l1,0c0,-1,0,-1,0,-1c1,0,1,-1,1,-1c0,-1,1,-1,1,-2l-1,0c0,0,-1,0,-1,0l-1,0l0,-1c0,0,-1,0,-1,0c0,-1,1,-1,1,-1c0,-1,0,-1,0,-2c0,0,1,0,1,0c0,-1,0,-1,1,-1l0,1c0,0,1,0,1,0c0,1,0,1,0,1c0,0,0,1,0,1c0,1,0,1,0,1c0,1,0,1,0,1c0,1,0,2,0,3c-1,0,-1,1,-1,1c0,0,0,1,-1,1ZM240.5,56.5l5,-3l-1,1l0,1l-4,2ZM236.5,56.5l-1,-1l-1,1l-1,-1l1,-1l1,0l1,-1l1,1ZM238.5,63.5c0,1,0,1,-1,1c-1,1,-1,1,-2,1c0,0,-1,0,-1,0l-1,0l-1,0c0,0,0,1,0,1c0,1,-1,2,-1,2c0,1,0,1,0,1c-1,0,-1,1,-1,1c-1,0,-1,0,-1,1c-1,0,-1,0,-1,0c0,0,-1,0,-1,0l-1,0l-1,0c0,-1,-1,-1,-1,-1c0,0,1,0,1,0l1,0c0,0,1,0,1,0c0,0,1,-1,1,-1c1,0,1,0,1,0c0,-1,0,-1,1,-1c0,0,0,-1,0,-1c1,0,1,-1,1,-1c0,-1,0,-1,0,-1l0,-1c-1,0,-1,0,-1,0c0,-1,0,-1,0,-1l1,0c0,0,0,-1,0,-1l0,1l1,0c0,0,0,1,0,1l1,0c1,0,2,0,2,-1c1,0,2,0,2,0c0,-1,0,-1,0,-1l0,-1c0,0,0,1,-1,1l-1,0c-1,0,-1,0,-1,0c0,0,0,-1,0,-1l0,-1c0,0,0,-1,0,-1c0,-1,0,-1,1,-1c0,-1,0,-1,1,-1l1,0c0,1,0,1,0,1c0,0,1,1,1,1c0,1,0,1,0,1c0,1,0,1,0,2c0,0,0,1,0,1ZM235.5,59.5l0,1c1,0,1,0,1,0c0,-1,0,-1,0,-1l-1,0ZM233.5,47.5l1,0c0,0,1,0,1,0c1,0,1,0,2,0l0,1c0,0,0,1,-1,1l-1,1c0,0,-1,0,-1,0c-1,0,-1,0,-1,0l2,-1c0,0,1,0,1,-1l-1,0c-1,0,-1,0,-2,0c0,0,0,-1,0,-1ZM225.5,52.5l5,-3c0,1,-1,2,-1,2l-5,2ZM227.5,49.5l5,-3c-1,1,-1,1,-1,1l-5,3ZM223.5,65.5l0,-1l0,-1l0,-8l1,-3l0,11c0,1,0,1,0,1c0,1,0,1,-1,1ZM289.5,65.5l0,-1l0,-1l-1,-8l1,-3l1,11c-1,1,-1,1,-1,1c0,1,0,1,0,1ZM281.5,54.5l-1,0l1,-2l1,1ZM285.5,64.5l-1,1c0,0,-1,0,-2,0l-1,0l-1,0c0,0,-1,0,-1,0l0,-1l0,-1l1,0l1,0c0,0,1,0,1,0c1,0,1,0,1,0c0,0,1,0,1,0c0,0,1,0,1,-1l0,-1c-1,0,-1,0,-1,-1l-1,0l0,-1l-1,0l-1,0l1,-2l1,0c0,1,1,1,1,1c0,1,1,1,1,2l1,1l0,1c0,1,0,1,0,1c0,0,-1,1,-1,1ZM279.5,49.5l4,-2l0,1l-4,2ZM275.5,65.5l0,-1l0,-1l0,-8l1,-3l0,11c0,1,0,1,0,1c0,1,-1,1,-1,1ZM269.5,61.5l-1,-1l1,-1l1,1ZM267.5,65.5c1,0,1,0,1,-1c0,0,1,0,1,-1l1,0c0,0,1,0,1,0c0,1,1,1,1,1c0,0,0,1,0,1l-1,0c-1,0,-1,-1,-1,-1c-1,0,-1,0,-1,1l-1,0c0,0,-1,1,-1,1l0,1c0,1,0,1,0,1l1,1l-1,1c0,1,0,1,-1,1c0,-1,0,-1,0,-1l-1,-1c0,-1,0,-1,0,-2c0,-1,0,-1,1,-2c-1,0,-1,0,-2,0l-1,0l-2,0c-1,0,-1,0,-2,0l0,1l0,1c0,0,-1,1,-1,1c0,0,0,-1,-1,-1c0,-1,0,-1,-1,-2l0,-1l-1,1l-1,0l0,1l0,1l0,1l0,2l1,1l0,1c0,1,0,1,0,2l0,1l-1,0l0,-1l0,-1l0,-1l0,-3l-1,-1l0,-1l0,-1l0,-1c1,0,1,-1,1,-1l0,-1l1,0l1,-1l1,0l0,-1c1,1,1,2,2,2l2,0l1,1l1,0l1,0c1,0,1,0,2,-1l1,0l0,1c-1,1,-1,1,-1,3c0,0,0,1,1,1c-1,0,-1,0,-1,-1c1,-1,1,-1,1,-1c0,0,0,-1,0,-1ZM272.5,73.5l-4,2c0,0,0,-1,1,-1l4,-2ZM268.5,73.5l-4,2c0,0,0,-1,0,-1l4,-2ZM253.5,54.5c0,0,1,0,1,0c0,0,1,0,1,0c1,0,1,0,2,0l0,1c0,0,0,1,0,1c-1,0,-1,0,-1,1c-1,0,-1,0,-1,0l-1,0c0,0,-1,0,-1,0l2,-1c1,0,1,0,1,-1c-1,0,-1,0,-1,0c-1,0,-1,0,-1,0c-1,0,-1,0,-1,1l0,-1l0,-1ZM314.5,61.5c0,0,-1,0,-1,1l1,0c0,-1,0,-1,0,-1ZM314.5,69.5c0,0,-1,0,-1,0c0,1,0,1,-1,1c0,0,-1,0,-1,0l-1,0c0,0,-1,0,-1,0c0,0,-1,-1,-1,-1c0,0,1,0,1,0c1,0,1,0,1,0c1,0,1,0,1,0c1,0,1,0,1,-1c1,0,1,0,1,0c1,-1,1,-1,1,-1c0,0,0,-1,1,-1c0,-1,0,-1,0,-2c0,0,-1,0,-1,0c-1,0,-1,0,-1,0c0,0,-1,0,-1,0l0,-1c0,-1,0,-1,0,-1c0,-1,0,-1,1,-2c1,-1,1,-1,1,-1c0,0,1,0,1,1c0,1,1,1,1,1c0,0,0,1,0,1c0,1,0,1,0,1c0,1,0,1,0,1c0,1,0,2,-1,3c0,0,0,1,0,1c-1,0,-1,1,-1,1ZM311.5,56.5l4,-3l0,1l0,1l-5,2ZM305.5,56.5l-1,-1l1,-1l1,1ZM307.5,62.5l-1,0l0,1l-1,0c-1,0,-1,0,-1,-1c0,0,0,-1,0,-1c0,0,0,-1,0,-1l0,-1l1,-1c0,0,0,-1,1,-1c0,0,1,1,1,1c0,1,0,1,1,2l0,1c0,0,0,1,0,1c0,0,0,1,0,1c0,1,0,1,0,1c0,1,-1,1,-1,1c0,1,0,1,1,1c0,0,1,0,1,0c0,1,0,1,0,1c0,0,0,1,0,1c0,0,-1,0,-1,0c0,1,0,1,0,1c0,0,-1,0,-1,1c-1,0,-2,1,-2,1c-1,0,-2,0,-3,0c-1,0,-2,0,-2,0c-1,0,-2,-1,-2,-1c0,0,0,-1,-1,-1c0,0,0,-1,0,-1c0,-1,0,-1,0,-1c0,0,0,-1,0,-2c1,0,1,-1,1,-2c0,0,1,0,1,0c0,0,0,1,0,1c0,0,-1,1,-1,1c0,1,0,1,0,1c0,1,0,1,0,1c0,1,0,1,1,2c1,0,2,0,3,0c1,0,1,0,2,0l1,0c0,0,1,0,2,-1l1,-1c-1,0,-1,0,-2,0c-1,0,-1,0,-1,0c0,0,0,-1,0,-1l0,-1c0,0,1,0,1,-1c1,0,1,0,1,0l1,-1c0,0,-1,0,-1,-1ZM305.5,60.5c0,0,0,1,0,1l1,0l0,-1l-1,-1l0,1ZM309.5,71.5l-4,2c0,0,0,-1,0,-1l4,-2ZM304.5,50.5c-1,0,-2,0,-3,0l-1,0l-1,0c0,0,-1,1,-1,1c0,0,0,-1,0,-1l1,-1c1,0,2,1,3,1l1,0l0,-1l1,0l1,0ZM369.5,68.5l-1,0l-1,1l-1,-1l1,-2l1,1l1,-1l1,1ZM366.5,65.5l-1,0l-1,0l-1,0c-1,0,-1,0,-2,0c0,0,-1,0,-1,0c0,0,-1,0,-2,0c0,0,-1,0,-2,0l-1,0l-1,0c-1,0,-2,0,-2,0c0,0,-1,0,-1,0c0,0,-1,0,-2,0c0,0,-1,0,-2,0l-1,0c0,0,-1,0,-1,0l-1,0l0,1c0,0,1,0,1,1c0,1,0,2,-1,2c0,1,-1,1,-1,1c0,0,-1,0,-1,0c-1,0,-1,-1,-1,-1c-1,-1,-1,-2,-1,-3l0,-1c-1,0,-1,0,-2,0l-2,0c0,1,0,1,0,1c0,1,0,1,0,2c0,0,-1,0,-1,1c0,0,-1,0,-1,1l-1,0l0,1c-1,0,-1,0,-1,0c0,0,-1,0,-1,0c-1,0,-1,0,-2,-1l-1,0c1,0,1,0,1,0c0,0,1,0,1,0c0,0,1,0,1,0c1,-1,1,-1,2,-1l0,-1c1,0,1,0,1,0c0,-1,1,-1,1,-1c0,0,0,-1,0,-1c0,0,0,-1,0,-1l-1,0c0,0,-1,0,-1,0l0,-1c0,-1,0,-1,0,-1c0,0,0,-1,0,-1c0,-1,0,-1,0,-1c1,0,1,0,1,0c0,0,0,-1,1,-1c0,0,0,1,0,1c0,0,1,0,1,0c0,0,0,1,0,1l0,1c0,0,1,0,1,1l1,0l1,0l1,-1c1,0,1,-1,1,-1l0,-1l1,0l0,-1c1,-1,1,-2,2,-2l0,1l1,0l0,1l0,1c-1,0,-1,1,-1,1c0,1,-1,1,-2,2l2,0l1,0l1,0l1,0c1,0,1,0,1,0c0,0,1,0,1,0c0,-1,0,-1,1,-1c-1,0,-1,0,-1,0l0,-1c0,0,0,-1,1,-1c0,-1,0,-1,0,-1c0,-1,1,-1,1,-1c0,-1,1,-1,1,-1c1,0,1,0,1,1c1,0,1,1,1,1l0,1c0,1,0,1,-1,1c0,1,0,1,0,1l0,1c0,0,1,0,1,0l1,0l1,0l1,0l1,0l0,-1c0,0,1,0,1,0c0,0,-1,0,-1,0l0,-1c0,0,0,-1,1,-1c0,-1,0,-1,0,-1c1,-1,1,-1,1,-1c0,-1,1,-1,2,-1l1,1c0,0,0,1,0,1l0,1c0,0,0,1,0,1c-1,1,-1,1,-1,1l0,1l1,0c1,0,1,0,1,0l1,0l1,0c1,0,1,0,2,-1c0,0,1,0,1,0c0,-1,0,-1,0,-1c0,-1,-1,-1,-1,-1l1,-2l0,1c0,0,1,0,1,0c0,0,0,1,0,1c0,0,0,1,0,1l0,1l0,1c-1,0,-1,0,-1,0c0,1,-1,1,-1,1c-1,0,-1,0,-2,0ZM361.5,57.5l-2,-1l1,-1l2,1ZM361.5,60.5c0,0,-1,0,-1,0c0,1,-1,1,-1,1c0,0,0,1,0,1c1,0,1,0,1,0c1,0,1,0,2,0l0,-1l0,-1c-1,0,-1,0,-1,0ZM356.5,47.5c0,0,1,0,1,0c1,0,1,0,1,0c1,0,1,0,2,0l0,1c0,0,0,1,0,1c0,0,-1,0,-1,0l0,1l-1,0l-1,0l-1,0l2,-1c1,0,1,0,2,-1c-1,0,-1,0,-1,0c0,0,-1,0,-1,0c0,0,-1,0,-1,0c0,0,-1,0,-1,0c0,0,0,-1,0,-1ZM352.5,57.5l-1,-1l-1,1l-1,-1l1,-1l1,1l1,-1l1,0ZM352.5,60.5c-1,0,-1,0,-1,0c-1,1,-1,1,-1,1c0,0,0,1,0,1c1,0,1,0,1,0c1,0,1,0,1,0c1,0,1,0,1,-1l0,-1c-1,0,-1,0,-1,0ZM348.5,49.5l4,-2l0,1l-1,0l-4,2ZM343.5,60.5c0,1,-1,1,-1,1l0,1l-1,1c1,0,2,0,2,-1c1,0,1,0,1,-1c0,-1,-1,-1,-1,-1ZM341.5,66.5l0,1c0,0,1,1,1,1c1,1,1,1,1,1c0,0,1,-1,1,-1c0,-1,0,-1,-1,-2c0,0,-1,0,-2,0ZM343.5,50.5c0,-1,0,-1,0,-1c0,-1,1,-1,1,-1c1,1,1,1,1,1c0,1,0,1,0,1l0,1c0,0,-1,0,-1,0l1,0l0,2l-1,-1l-1,0l0,1c-1,0,-1,1,-1,1l-1,0c-1,0,-1,0,-1,0l1,-1l1,0l0,-1l1,0l0,-1c-1,0,-1,0,-1,-1l1,0ZM344.5,50.5l0,-1l-1,0c0,0,0,1,0,1l1,0l0,1l0,-1ZM334.5,62.5l0,1l-1,0c0,0,1,0,1,0c0,1,1,1,1,1c0,-1,0,-1,0,-1l0,-1c0,0,-1,0,-1,0ZM326.5,66.5c-1,0,-1,-1,-2,-1c0,0,0,-1,0,-2l0,-1l0,-1l1,-2c0,0,1,-1,1,-1c0,0,1,1,1,1c1,1,1,1,1,2c0,1,1,1,1,1c0,2,-1,3,-2,3c0,0,-1,1,-1,1ZM326.5,61.5l-1,0c0,0,-1,1,-1,1c0,1,0,1,0,1c1,0,1,0,1,0l1,0l1,0c0,0,1,0,1,0c0,-1,0,-1,-1,-1c0,-1,-1,-1,-1,-1ZM324.5,50.5c0,-1,1,-1,1,-1c0,-1,0,-1,1,-1c0,1,1,1,1,1c0,1,0,1,-1,1l0,1l1,0l0,2l-2,-1l0,1c-1,0,-1,1,-1,1l-1,0l-1,0l1,-1l1,0l0,-1l1,0l0,-1l-1,0l0,-1ZM325.5,50.5l0,-1c0,0,0,1,0,1l0,1l1,0l0,-1ZM198.5,66.5l0,-1l0,-1l-1,-9l1,-2l1,11c0,0,0,1,0,1c-1,0,-1,1,-1,1ZM200.5,68.5l-4,2c0,-1,1,-1,1,-1l3,-2ZM201.5,113.5l0,-1l0,-2l0,-8l1,-3l0,11c0,0,0,1,0,1c0,1,-1,1,-1,2Z" class="g1_29" />
<path fill-rule="evenodd" d="M104.5,461.5c0,0,-1,0,-1,0c0,0,-1,0,-1,0l-1,0l0,-1l0,-1l0,-1l0,-1c0,0,1,0,1,0c0,0,0,-1,1,-1l-1,0l-1,0l1,-1l1,0l0,1c1,0,1,0,1,0c1,0,1,0,1,0l-1,0l-1,0c0,1,0,1,0,1l-1,0c0,1,-1,1,-1,1l0,1l0,1c1,0,1,0,1,0l1,0c0,0,0,1,0,1l1,0c0,0,1,0,1,0l1,0ZM206.5,447.5l-4,2c0,-1,1,-1,1,-1l4,-2ZM219.5,454.5c1,-1,1,-1,1,-1c1,0,1,0,2,0c0,0,1,0,1,0c0,0,1,1,1,1c-1,0,-1,1,-1,1l-1,1c-1,0,-1,0,-1,0l-1,0l1,-1c1,0,1,0,2,-1c0,0,-1,0,-1,0l-1,0c0,0,-1,0,-1,0c0,0,0,1,-1,1l0,-1ZM209.5,463.5l0,-1c0,0,1,0,1,0c0,-1,0,-1,0,-1l0,-1l0,-1l0,-1l0,-1c0,-1,0,-1,0,-1l1,1l-1,0l0,1l0,1l0,1l0,1l1,0l0,-1l1,0l1,0l1,0l0,1l0,1l-1,0c0,0,-1,0,-1,0c-1,1,-1,1,-1,1ZM212.5,461.5l-1,0l-1,1l1,0c0,0,1,0,1,0c1,-1,1,-1,2,-1l-1,0ZM188.5,453.5l1,0c0,-1,0,-1,0,-1l1,0c0,0,0,1,0,1c0,0,0,1,0,1c0,1,0,1,0,1l0,1l-1,0l-1,1l-1,0l0,1l-1,0l1,-1c0,0,1,0,1,-1l1,0l-1,-1l0,-1l0,-1ZM189.5,454.5l0,-1l0,1ZM136.5,469.5l-1,-1l1,-1l1,1ZM134.5,465.5l-1,0l-1,0c-1,0,-1,0,-1,0l0,-1c-1,0,-1,0,-1,0c0,0,0,1,0,1c-1,0,-1,0,-2,0l-1,0l-1,0l-1,0c0,0,0,-1,0,-1c0,0,-1,1,-1,1c-1,0,-1,0,-2,0l-1,0c0,0,-1,0,-1,0c-1,0,-1,0,-1,0c0,0,0,-1,0,-1l-1,0l0,1c-1,0,-1,0,-2,0l-1,0l-2,0c0,0,-1,0,-1,0c-1,-1,-1,-1,-1,-2l-1,-9l1,-2l1,10l0,1c0,1,1,1,1,1l2,0c0,0,1,0,1,0c1,0,1,-1,2,-1c1,0,1,0,1,0c1,0,1,0,1,0c0,1,1,1,1,1l1,0c1,0,1,0,1,0c1,-1,1,-1,1,-1c1,-1,1,-1,1,-1c0,0,0,1,0,1c0,0,1,0,1,0c0,1,1,1,1,1c1,0,1,0,2,0c0,0,1,-1,1,-1c0,-1,0,-1,0,-1c0,-1,0,-1,0,-1c0,0,0,-1,0,-1c0,0,1,-1,1,-1l0,2c0,0,0,1,0,1c0,0,0,1,0,1c0,0,1,0,1,1l1,0l1,0c0,0,1,0,1,-1c1,0,1,0,1,0l1,0l0,-1c0,0,-1,0,-1,0c0,-1,0,-1,0,-1l1,-2l0,1l0,1l0,1l0,1c0,0,0,1,0,1c-1,1,-1,1,-2,1c0,0,-1,0,-1,0ZM134.5,452.5l4,-2l0,1l-4,2ZM132.5,470.5l-2,-1l0,1l-2,-1l1,-1l2,1l0,-2l2,1ZM128.5,451.5l1,0c0,-1,0,-1,1,-1c0,0,1,0,1,1c1,0,1,0,1,0c0,1,-1,1,-1,1c0,1,0,1,0,1c-1,0,-1,0,-1,0c-1,0,-1,0,-1,0l-1,0l1,0c1,0,2,-1,2,-1l-1,0l-1,0l-1,0l-1,0c0,0,0,-1,0,-1c0,0,1,0,1,0ZM124.5,461.5l-1,-1l1,-2l1,1ZM121.5,452.5l4,-2l0,1l-4,2ZM118.5,461.5l-1,-1l0,-1l2,1ZM116.5,456.5l4,-2c0,0,0,1,0,1l-5,2ZM182.5,459.5l-1,-1l-1,1l-2,-1l1,-1l2,1l0,-1l2,0ZM175.5,456.5c0,0,1,0,1,0c0,0,0,-1,0,-1c0,0,0,1,1,1l0,1c0,1,0,1,0,1c0,-1,0,-1,0,-1l0,-1c0,-1,0,-1,0,-1c0,0,0,-1,0,-1c-1,0,-1,0,-1,0c0,0,-1,0,-1,1l0,1c0,0,-1,0,-1,0c0,1,0,1,-1,1c0,1,0,1,-1,1l0,1c-1,0,-1,0,-1,0l-1,0c0,0,0,1,0,1l-1,0c0,0,0,1,0,1l1,0l1,0l1,0l0,1l1,0l1,0l-1,1l-1,0l-1,0l-1,0l-1,1l-1,0l-1,0l-1,0l-1,0c0,-1,0,-1,0,-1l-1,0l-1,-1l0,-1l-1,-1c-1,0,-2,1,-3,2c0,1,0,1,0,1l-1,0c0,1,0,1,-1,1l-1,0l-1,0c0,0,-1,0,-1,0l-1,-1l-1,0c0,0,0,-1,0,-1c1,0,1,-1,1,-1c0,-1,0,-1,0,-1l0,-1c-1,0,-1,0,-1,0c-1,0,-1,0,-1,0l-1,0c-1,0,-1,0,-2,0l0,2c0,0,1,1,1,1l1,0l-1,1c-1,0,-1,0,-1,1c0,0,-1,0,-1,1c0,0,-1,0,-1,1l0,1c0,0,-1,0,-1,0c0,1,0,2,0,3c0,1,0,1,0,1c0,0,0,1,0,1c1,1,1,1,2,2l1,1c0,0,1,0,2,0c0,1,1,1,1,1c0,0,1,0,2,0c0,0,1,0,1,0l4,-2l-1,0l-1,0c-1,0,-2,0,-2,0c-1,0,-1,0,-1,0c0,0,-1,0,-1,0l-1,0l-1,0l0,-1c-1,0,-1,0,-1,0l-1,0c0,0,0,-1,0,-1c-1,0,-1,-1,-2,-2c0,-1,0,-1,0,-1c0,-1,0,-1,0,-2c1,-1,1,-1,2,-2l0,-1c0,0,1,0,1,0c0,0,1,-1,1,-1c1,0,1,0,1,1l1,0c0,0,0,1,1,1l1,0l1,0l1,0l1,0c1,0,1,0,1,0l1,-1l2,1l1,1l1,0c0,0,1,-1,1,-2l0,1c1,0,2,0,2,0l2,0l1,0l1,0c0,0,1,0,1,0l3,-1c0,-1,0,-1,0,-1l1,0l1,0l1,0l1,0l1,0l1,0l0,-1l-1,0c0,0,-1,0,-1,-1c-1,0,-1,0,-1,0c-1,0,-2,0,-2,0l-2,-1l-1,0c0,-1,0,-1,0,-1c1,0,1,0,1,0l1,-1c0,0,0,-1,1,-1l0,-1ZM173.5,449.5l4,-2l0,1l-4,2ZM172.5,469.5l-1,-1l0,-1l2,1ZM167.5,447.5c1,0,1,0,1,0c1,0,1,0,2,0c0,0,1,0,1,0c0,0,1,0,1,1c-1,0,-1,1,-1,1l-1,0c0,1,0,1,0,1l-1,0l-1,0l1,-1c1,0,1,0,2,-1c0,0,-1,0,-1,0c0,0,-1,0,-1,0c0,0,-1,0,-1,0c0,0,-1,0,-1,1l0,-1l0,-1ZM163.5,464.5l-1,-1c0,-1,0,-1,0,-1l-1,0l-1,1c0,0,1,0,1,0l1,1ZM159.5,452.5l4,-2l0,1l-4,2ZM150.5,450.5c0,-1,0,-1,1,-1c0,-1,0,-1,0,-1l1,0c0,1,0,1,0,1c0,1,0,1,0,1l0,1l0,2l-1,-1l-1,1c0,0,0,1,-1,1l-1,0l0,-1l1,0c0,0,1,0,1,-1l1,0l-1,0l0,-1l0,-1ZM151.5,450.5l0,-1c0,0,0,1,0,1l0,1l0,-1ZM204.5,465.5l0,-1l0,-1l0,-8l1,-3l0,11l0,1c0,1,-1,1,-1,1ZM200.5,465.5c-1,0,-1,0,-1,0c0,0,-1,0,-1,0c-1,-1,-1,-1,-1,-2c0,0,0,1,-1,2c0,0,-1,0,-2,0c0,0,-1,0,-1,0c-1,-1,-1,-2,-1,-3l0,1c0,0,-1,1,-1,1c0,0,-1,0,-2,0c0,0,-1,0,-1,0c0,-1,0,-1,0,-1c0,0,0,-1,0,-1c0,0,0,-1,1,-1c0,0,1,0,1,-1l1,0l1,-1l0,-1c0,0,0,-1,0,-1l1,1l0,1l0,3c0,1,0,1,0,1c1,0,1,0,2,0l1,0c0,0,0,-1,0,-1c0,-1,0,-1,0,-2c0,-1,0,-1,0,-2l0,-1l0,-1l1,-1l0,3l0,1l0,2l0,1c1,0,1,0,1,0c0,0,0,1,1,1l1,0c0,0,0,-1,0,-1c0,0,0,-1,0,-1l0,-1l0,-2l-1,-1l1,0l0,-1l0,-1c0,1,0,1,0,2l0,1l1,2c0,0,0,1,0,1c0,1,0,2,0,2c0,1,-1,1,-1,1c0,1,0,1,0,1ZM192.5,460.5l-1,1c-1,0,-1,0,-1,0c0,1,-1,1,-1,1c1,0,2,0,2,0c0,0,1,0,1,0ZM263.5,461.5c-1,0,-1,0,-1,1l1,0c0,-1,0,-1,0,-1ZM263.5,469.5c-1,0,-1,0,-1,1l-1,0c0,0,-1,0,-1,0l-1,0c0,0,-1,0,-1,0c-1,0,-1,-1,-1,-1l1,0c1,0,1,0,1,0c0,0,1,0,1,0c1,0,1,0,1,-1c0,0,1,0,1,0c1,-1,1,-1,1,-1c0,0,0,-1,1,-1c0,-1,0,-1,0,-2c-1,0,-1,0,-1,0c0,1,0,1,-1,1l0,-1c-1,0,-1,0,-1,0c0,-1,0,-1,0,-1c0,-1,0,-1,0,-1c0,-1,0,-1,1,-2c0,-1,1,-1,1,-1l1,1c0,1,0,1,1,1c0,1,0,1,0,1c0,1,0,1,0,2c0,1,-1,2,-1,3c0,1,0,1,-1,1c0,1,0,1,0,1ZM260.5,456.5l4,-2c0,0,-1,1,-1,1l-4,2ZM256.5,469.5l-1,-1l1,-1l1,1ZM254.5,465.5l-1,0l-1,0l-1,0c-1,0,-1,0,-1,-1c0,0,0,1,-1,1c0,0,-1,0,-1,0l-1,0l-1,0l-1,0c-1,0,-1,-1,-1,-1l-1,0l0,1c0,0,-1,0,-1,0c-1,0,-1,0,-1,0l-1,0l-1,0l-1,0l-1,-1l-2,-2c0,0,-1,-1,-1,-1l-1,0l0,1c0,1,0,1,0,1c0,1,0,1,-1,2c0,0,-1,0,-1,0l-1,0l-1,0l-3,0l-1,0l0,1l0,1c0,0,-1,1,-1,1c0,0,-1,-1,-1,-1c0,-1,0,-1,-1,-2l0,-1l-1,1c0,0,-1,0,-1,0l0,1l0,1l0,1l0,2l1,1l0,1c0,1,0,1,0,2l0,1l-1,0l0,-1l0,-1l0,-1l-1,-3l0,-1l0,-1l0,-1l0,-1c1,0,1,-1,1,-1l0,-1l1,0l1,0l0,-1l1,0l0,-1c1,1,1,2,2,2l2,1l1,0l1,0l1,0c0,0,1,0,1,0l1,-1l1,0c0,0,0,-1,0,-1c0,0,0,-1,0,-1c-1,0,-1,0,-1,0c0,-1,0,-1,0,-1c-1,0,-1,-1,-1,-1c-1,0,-1,0,-1,0c0,0,-1,0,-1,0c0,-1,-1,-1,-1,-1c0,-1,0,-1,0,-1c0,0,0,-1,0,-1c0,-1,0,-1,0,-1c0,0,1,0,1,0c0,-1,1,-1,3,-2c1,0,3,-1,4,-1c2,-1,3,-1,3,-1l1,-1l-1,2l-1,0c0,0,-1,1,-2,1c-2,1,-3,1,-4,2c-2,0,-3,1,-3,1l1,1l1,0c0,0,0,1,0,1l1,0c1,1,1,1,2,1c0,1,1,1,1,2c1,0,2,1,2,1l2,1l0,1l1,0c1,0,1,0,1,0c1,0,2,-1,2,-1l1,0c1,0,1,0,1,0c1,1,1,1,1,1l1,0c1,0,1,0,2,0c0,0,0,-1,0,-1c1,0,1,0,1,0c0,-1,0,-1,0,-1c0,-1,0,-1,0,-1c0,0,0,-1,0,-1c0,0,0,-1,1,-1l0,2c0,0,0,1,0,1c0,0,0,1,0,1l1,1l1,0l1,0c0,0,1,0,1,-1c1,0,1,0,1,0l0,-1c0,-1,0,-1,0,-1l-1,0l1,-2l1,1l0,1l0,1l0,1c0,0,0,1,0,1l-1,0c0,1,0,1,-1,1c0,0,-1,0,-1,0ZM254.5,452.5l4,-2l0,1l-1,0l-4,2ZM252.5,470.5l-2,-1l-1,1l-1,-1l1,-1l1,1l1,-2l2,1ZM247.5,451.5c1,0,1,0,1,0c1,-1,1,-1,2,-1c0,0,1,0,1,1c0,0,1,0,1,0c-1,1,-1,1,-1,1c0,1,0,1,-1,1l-1,0l-1,0l1,0c1,0,1,-1,2,-1c0,0,-1,0,-1,0c0,0,-1,0,-1,0c0,0,-1,0,-1,0l-1,0c0,0,0,-1,0,-1ZM243.5,461.5l-1,-1l1,-1l1,1ZM241.5,456.5l4,-2c0,0,0,1,0,1l-4,2ZM232.5,446.5c0,0,1,0,1,-1l1,0c0,0,0,1,0,1l0,1c0,0,0,1,0,1l1,0l-1,1l-1,0l0,1c-1,0,-1,0,-1,0l-1,0l0,1l-1,0c0,0,0,-1,0,-1l1,0c1,-1,1,-1,1,-1l1,-1l-1,0c0,0,0,-1,0,-1c0,0,0,-1,0,-1ZM233.5,446.5c0,0,0,1,0,1l1,0l-1,0ZM299.5,469.5l-1,-1l1,-1l1,1ZM297.5,465.5l-1,0c-1,0,-1,0,-1,0c-1,0,-1,0,-1,0l0,-1c0,0,-1,0,-1,0c0,0,0,1,0,1c-1,0,-1,0,-2,0l-1,0l-1,0l-1,0c0,0,0,-1,0,-1c0,0,-1,1,-1,1c-1,0,-1,0,-2,0l-1,0l-1,0c0,0,-1,0,-1,0c0,0,0,-1,0,-1l-1,0l0,1c-1,0,-1,0,-1,0c-1,0,-1,0,-2,0l-1,0c-1,0,-2,0,-2,0c-1,-1,-1,-1,-1,-2l-1,-9l1,-2l1,10l0,1c1,1,1,1,2,1l1,0c1,0,1,0,1,0c1,0,1,-1,2,-1l1,0c0,0,1,0,1,0c0,1,1,1,1,1l1,0c1,0,1,0,1,0c1,-1,1,-1,1,-1l1,0c0,-1,0,-1,0,-1c0,0,0,1,0,1c0,0,1,0,1,0c0,1,1,1,1,1l1,0c0,0,1,0,1,0c0,0,1,-1,1,-1c0,-1,0,-1,0,-1c0,-1,0,-1,0,-1c0,0,0,-1,0,-1c1,0,1,-1,1,-1l0,2c0,0,0,1,0,1c0,0,0,1,0,1c1,0,1,0,1,1c0,0,1,0,1,0l1,0c0,0,1,0,1,-1c1,0,1,0,2,0l0,-1l-1,0c0,-1,0,-1,0,-1l1,-2l0,1l0,1l0,1l0,1c0,0,0,1,0,1c0,1,-1,1,-2,1c0,0,-1,0,-1,0ZM297.5,452.5l4,-2l0,1l-4,2ZM295.5,470.5l-1,-1l-1,1l-2,-1l1,-1l2,1l0,-2l2,1ZM291.5,451.5l1,0c0,-1,1,-1,1,-1c1,0,1,0,1,1c1,0,1,0,1,0c0,1,0,1,-1,1c0,1,0,1,0,1c0,0,-1,0,-1,0c0,0,-1,0,-1,0l-1,0l2,0c0,0,1,-1,1,-1l-1,0c-1,0,-1,0,-2,0c0,0,0,-1,0,-1ZM287.5,461.5l-1,-1l1,-2l1,1ZM284.5,452.5l4,-2l0,1l-4,2ZM281.5,461.5l-1,-1l1,-1l1,1ZM279.5,456.5l4,-2c0,0,0,1,0,1l-4,2ZM342.5,463.5l-2,0c0,0,-1,0,-1,0l-1,0c0,0,-1,0,-1,0l-1,1l-1,0l-1,0c0,1,0,1,-1,1c-1,0,-2,0,-2,0l-1,0l-2,0c-1,0,-2,0,-2,0c-1,0,-1,-1,-1,-1l0,-1l-1,0l-1,0l-4,2c0,0,-1,0,-1,0c-1,0,-1,0,-1,0l-1,0l-1,0c0,0,-1,0,-1,0c0,0,-1,0,-1,0c0,-1,0,-1,0,-1c0,-1,0,-1,0,-2l-1,1c0,1,-1,1,-1,1l-1,0c0,0,-1,0,-1,0l-1,0l0,-2c0,0,1,-1,1,-1c1,0,1,-1,2,-1c1,-1,1,-1,1,-1l0,-1l0,-1l1,1c0,0,0,1,0,1c0,1,0,1,0,1l0,2c0,1,1,1,1,1c0,1,0,1,1,1l1,0c0,0,1,0,1,0c0,0,1,0,1,-1c1,0,1,0,2,0l1,-1l1,0l-2,-1c0,0,-1,0,-2,0l-1,0l-1,0l1,0l0,-1c1,-1,1,-1,2,-1l1,0c0,0,1,0,1,1c1,0,2,1,3,1c1,0,2,0,2,0c1,0,1,0,2,0l0,2l-1,0l-1,0c1,0,1,1,1,1l1,0l2,0l1,0l1,0c0,0,1,-1,1,-1c1,0,1,0,1,0l2,-1l1,0l-1,0l-1,-1l-1,0l-1,0l-1,0l-1,0c1,0,1,-1,1,-1c0,0,1,-1,1,-1l1,0l1,0l1,1l2,0l0,1c1,0,1,0,1,0c1,0,1,0,2,0l1,0l1,0ZM333.5,450.5c1,-1,1,-1,1,-1c0,-1,1,-1,1,-1c0,1,1,1,1,1c0,1,0,1,0,1l-1,0l0,1l1,0l0,2l-1,-1l-1,0l0,1c-1,0,-1,1,-1,1l-1,0l-1,0l1,-1l1,0l0,-1l1,0l-1,-1l0,-1ZM335.5,450.5l-1,0l0,-1c0,0,0,1,0,1l1,1l0,-1ZM321.5,469.5l-1,-1l0,-1l2,1ZM320.5,448.5l0,1l1,0c0,0,0,-1,0,-1l0,-1l0,1c0,0,1,0,1,0l0,-1l1,0l0,-1l0,1l0,1l0,1l-1,0c0,0,-1,0,-1,0c0,1,-1,1,-1,1l-1,0l0,-1l0,-1ZM324.5,445.5l-6,3c1,-1,1,-2,1,-2l5,-2ZM312.5,456.5l-2,-1l-1,2l-1,-1l1,-2l1,1l1,-1l2,1ZM312.5,460.5l-1,1l-1,0c0,0,0,1,0,1l1,0c0,0,1,0,1,0l0,-1ZM309.5,449.5l4,-2l0,1l-4,2ZM349.5,460.5c-1,0,-1,0,-1,1c1,0,1,0,1,0l1,0c-1,-1,-1,-1,-1,-1ZM350.5,462.5c0,0,-1,1,-1,1c-1,0,-1,0,-1,0c-1,0,-1,0,-2,0c0,0,-1,0,-1,0l0,-1l0,-1l1,0c1,0,1,0,1,-1l1,0l0,-1l1,0c-1,0,-1,-1,-1,-1c0,0,-1,-1,-1,-1c0,0,-1,-1,-1,-1c0,-1,-1,-1,-2,-2l0,-1c-1,0,-1,0,-1,0c0,0,-1,0,-1,0c-1,0,-1,-1,-1,-1c0,0,0,-1,0,-1c0,0,0,-1,0,-1c0,0,0,-1,0,-1c1,0,1,1,2,1c0,1,1,1,1,2c1,0,2,1,2,2c1,0,1,1,2,2c0,0,0,1,1,1c0,0,0,1,0,1c0,0,0,-1,0,-2c1,0,1,-1,1,-1c0,-1,0,-2,0,-2c0,0,0,-1,0,-1c0,-1,0,-2,0,-2c0,0,0,-1,0,-1l0,-1c1,0,1,0,1,0c0,1,0,1,0,1l1,0c0,1,0,1,-1,1c0,0,0,1,0,1c0,1,0,1,0,2c0,0,0,1,0,1c0,1,0,1,0,1c-1,1,-1,2,-1,2c0,1,0,1,0,2l0,1c0,0,0,1,0,1c0,0,0,1,0,1ZM346.5,445.5l6,-2c0,0,-1,1,-1,1l-5,3ZM380.5,400.5l-4,2c0,0,0,-1,1,-1l4,-2ZM270.5,415.5l0,-1l1,0c0,0,1,0,1,-1l0,-1l-1,-2l0,-1l1,-1l0,1c0,0,0,1,0,1l0,1l0,1l0,1l0,1l1,-1c1,-1,1,-1,1,-1c1,0,1,0,1,0c0,1,1,1,1,1c0,0,0,1,0,1l-1,0c0,1,0,1,-1,1l-1,0c0,0,-1,0,-1,0ZM274.5,413.5c0,0,-1,0,-1,0l0,1l-1,0c1,0,1,0,1,0c1,0,1,0,1,0c0,0,1,0,1,0c0,0,0,-1,0,-1c-1,0,-1,0,-1,0ZM73.5,417.5l1,0l0,-1l0,-1l0,-1l0,-2l0,-1l1,0l0,1l0,1l0,1l0,1l0,1l0,-1l1,0c0,0,1,0,1,-1c1,0,1,1,1,1l1,0l0,1l-1,0c0,0,0,1,0,1c0,0,-1,0,-1,0c0,0,-1,0,-1,0c0,0,-1,0,-1,0ZM77.5,415.5c0,0,-1,0,-1,1l-1,0l0,1c0,0,1,0,1,0c0,-1,0,-1,0,-1c1,0,2,0,2,0c0,-1,0,-1,-1,-1ZM362.5,407.5c0,0,0,-1,1,-1l1,0l0,1l0,1l0,1l0,1l-1,-1l0,1l-1,0c0,1,0,1,-1,1l-1,0l1,-1c0,0,1,0,1,0l0,-1l1,0l-1,0c0,-1,0,-1,0,-1c0,-1,0,-1,0,-1ZM363.5,407.5l0,1l0,-1ZM129.5,407.5c0,-1,0,-1,0,-2c0,-1,0,-1,-1,-2l1,0l0,1c1,0,1,0,1,0l0,1c0,0,0,1,0,1c-1,1,-1,1,-1,1ZM217.5,409.5c0,-1,0,-2,0,-2c0,-1,0,-1,-1,-2l1,0l0,-1c0,0,0,1,0,1c0,1,0,1,1,1l0,1c0,1,0,1,0,1l-1,0c0,1,0,1,0,1ZM145.5,416.5c-1,0,-1,0,-2,1c-1,0,-2,1,-4,1c-1,1,-2,1,-3,1l-1,0c-1,0,-1,0,-2,-1c-1,1,-1,1,-1,1c-1,0,-1,0,-2,0l-1,0l-1,-1l-1,0c0,1,-1,1,-1,1l-1,0l-1,0c0,-1,-1,-1,-1,-2c0,1,0,1,-1,1c0,1,0,1,-1,1l-1,0c0,0,-1,0,-1,0l-1,0c0,-1,0,-1,0,-1c0,0,-1,0,-1,0l0,-1l1,0c-1,0,-1,0,-1,0c0,0,-1,0,-1,0c-1,0,-1,1,-2,1c-1,0,-2,0,-2,0c-1,0,-2,0,-3,0c-1,0,-2,0,-2,0c-2,1,-3,1,-4,1c0,0,-1,0,-2,0c-1,0,-2,0,-3,0c-1,0,-1,0,-2,0l-1,0l-3,0c0,0,-1,0,-1,0c0,-1,0,-1,0,-1l0,1l0,1c-1,1,-1,1,-1,1c0,0,-1,0,-1,-1c0,0,-1,-1,-1,-1l0,-1c0,0,-1,0,-1,0l-1,0l0,1c0,1,0,1,0,1l0,1c0,1,0,1,0,1l0,2l1,2c0,1,0,1,0,1l0,1l-1,1l0,-1l0,-1l0,-1l-1,-3l0,-1l0,-1l0,-2c0,-1,1,-1,1,-2l1,-1l1,0l0,-1l1,0c0,1,1,1,2,2l2,0l1,0l1,0c1,0,2,0,3,0c0,0,1,0,2,0c1,0,2,0,3,0c0,0,1,0,2,0c1,0,1,0,2,0c1,0,2,0,3,-1c0,0,1,0,3,0c1,0,2,0,2,0c1,0,2,0,3,0c0,-1,0,-1,0,-1c0,-1,0,-1,0,-1c-1,0,-1,0,-1,0c0,0,-1,0,-1,0c-1,0,-3,0,-5,0c-2,0,-3,1,-5,1c-2,0,-4,0,-5,0c-2,0,-3,0,-4,0l0,-1c0,0,0,-1,1,-1c0,-1,0,-1,0,-1c0,0,1,-1,1,-1c1,-1,2,-2,2,-3c2,0,3,-1,3,-1c1,0,1,0,1,0c0,0,0,-1,0,-1l-1,2l-1,1c0,0,-1,1,-2,1c-1,1,-2,2,-2,3c0,0,-1,0,-1,0l1,0l1,0c0,1,1,1,1,1c1,0,3,-1,5,-1c2,0,4,0,6,0c2,-1,3,-1,4,-1c1,0,2,0,2,1c1,0,1,0,1,0c0,0,0,1,0,1l0,1c0,0,0,1,0,1c0,1,0,1,-1,1c0,0,1,0,1,0l1,0l1,0c1,0,1,0,2,-1c0,0,0,-1,0,-1l0,-1l-1,-7l1,-2l1,11c0,0,0,1,0,1c0,0,1,0,1,0l1,0c0,0,1,0,1,0c0,-1,1,-1,1,-1c1,-2,2,-2,3,-2l1,1l0,1l1,0l0,1c1,0,1,0,1,0l1,0l1,0l1,0c1,0,1,0,2,0c-1,-1,-1,-1,-1,-1c0,-1,0,-1,0,-2c0,-1,0,-1,0,-1l0,-1c0,0,1,0,1,0c0,0,0,-1,0,-1c1,0,1,0,1,0c0,0,1,0,1,0l1,0c1,0,1,0,1,0l1,1l-1,0l-1,0l-1,0l-1,0c-1,1,-1,1,-1,1c0,0,0,1,0,1l1,1c0,0,1,1,1,1c0,0,1,0,1,0l1,-1l1,0l1,-1l1,0ZM140.5,404.5c0,-1,0,-1,1,-1c0,0,1,0,1,0c1,0,1,0,1,0c1,0,1,1,1,1c0,1,0,1,-1,1c0,0,0,1,0,1c0,0,-1,0,-1,0c0,0,-1,0,-1,0l-1,0l2,-1c0,0,1,0,1,0c0,-1,0,-1,-1,-1c-1,0,-1,0,-2,0c0,1,0,1,0,1c0,-1,0,-1,0,-1ZM132.5,417.5l-1,-1l0,-1c-1,0,-1,0,-1,0l0,1l-1,0c0,0,1,0,1,1l1,0ZM122.5,400.5c0,-1,1,-1,1,-1c0,0,0,-1,1,-1c0,1,0,1,0,1l0,1l0,1l0,1l1,0l-1,1l-1,-1l0,1c-1,1,-1,1,-1,1l-1,0l-1,0l1,0l0,-1c1,0,1,0,1,0l0,-1l1,0l-1,-1l0,-1ZM123.5,400.5l0,1l1,0l-1,-1ZM100.5,400.5c0,-1,0,-1,0,-1c1,0,1,-1,1,-1c1,1,1,1,1,1l0,1l0,1l0,1l0,1l-1,-1l0,1l-1,0c0,1,-1,1,-1,1l-1,0l1,-1l1,0l0,-1l0,-1l0,-1ZM101.5,400.5c-1,0,-1,0,-1,0l1,0l0,1l0,-1ZM85.5,408.5l1,0c0,0,1,0,1,0c1,0,1,0,1,0c1,0,1,0,1,0c0,0,0,1,0,1l-1,1c0,0,-1,0,-1,0c0,0,-1,1,-1,1l-1,0c0,0,0,-1,0,-1l2,0c0,0,1,-1,1,-1l-1,0c-1,0,-1,0,-2,0c0,-1,0,-1,0,-1ZM189.5,415.5l-1,0c0,1,0,1,0,1c0,0,1,0,1,0l1,0c-1,-1,-1,-1,-1,-1ZM189.5,423.5c0,0,-1,0,-1,0c-1,1,-1,1,-2,1c-1,0,-1,0,-2,-1c0,0,-1,0,-1,0c0,0,1,0,1,0l1,0c1,0,1,0,1,0c0,0,0,-1,1,-1c1,0,1,0,1,-1c1,0,1,0,1,-1c0,0,1,0,1,-1c0,0,0,-1,0,-1c0,0,0,-1,0,-1l0,1c0,0,-1,0,-1,0c0,0,-1,0,-1,0c-1,-1,-1,-1,-1,-1c0,-1,0,-1,0,-1c0,-1,0,-1,0,-1c0,0,1,-1,1,-1c0,0,0,-1,0,-1c1,0,1,0,1,0c1,0,1,0,1,0c0,0,0,1,1,1l0,1l0,1c0,0,0,1,0,1c0,0,0,1,0,1c0,1,0,2,-1,3l0,1c-1,0,-1,0,-1,1ZM186.5,409.5l4,-2l0,1l-4,2ZM179.5,417.5c1,0,1,0,1,0c1,0,1,0,1,0c0,0,1,0,1,0c0,0,0,-1,0,-1l0,-2l-1,-6c0,0,0,-1,0,-1c0,0,0,-1,0,-1c1,0,1,-1,1,-1l0,1c0,0,1,1,1,1l0,1l0,1l0,-1c-1,0,-1,0,-1,1c0,0,1,1,1,2l0,2c0,1,0,1,0,1l0,1c0,1,0,1,0,1c0,0,0,1,0,1l-1,0c0,1,0,1,0,1c0,0,-1,0,-1,1l-1,0l-1,0l-1,0l-1,-1l-1,0l-2,-2c0,-1,-1,-1,-1,-1l-1,-1c0,0,0,1,0,1l0,1c0,1,0,1,0,1c0,0,0,1,0,1c-1,0,-1,0,-1,1c0,0,-1,0,-1,0l-1,0l-1,0l-2,0c-1,0,-1,0,-2,0c0,-1,0,-1,0,-1l0,1l0,1c0,1,0,1,-1,1l-1,-1c0,0,0,-1,0,-1l-1,-1l-1,0l-1,1c0,1,0,1,0,1l0,1c0,1,0,1,0,1l0,2l1,0l0,2c0,1,0,1,0,1l0,1l0,1l-1,0l0,-1l0,-1l0,-1l0,-3l-1,-1l0,-1l0,-2c1,-1,1,-1,1,-2l1,0l0,-1l1,0l1,-1c1,1,1,1,2,2l2,0l1,0l1,0l1,0c1,0,1,0,1,0c0,0,1,0,1,0c0,0,1,-1,1,-1c0,-1,0,-1,0,-1c0,-1,-1,-1,-1,-1l0,-1c-1,0,-1,0,-1,0c-1,-1,-1,-1,-1,-1l-1,0c0,0,-1,0,-1,0c0,-1,0,-1,0,-1c0,-1,0,-1,0,-1c0,-1,0,-1,0,-1c1,0,1,0,1,-1c1,0,2,-1,3,-1c1,-1,3,-1,4,-2c2,0,3,-1,3,-1c0,0,1,0,1,0l-1,2l-1,0c0,0,-1,0,-2,1c-2,0,-3,1,-4,1c-2,1,-3,1,-3,1c0,0,0,1,0,1l1,0c0,1,0,1,1,1l1,0l0,1c1,0,1,1,2,1c1,0,1,1,2,1c0,1,1,1,1,2l2,1l1,0ZM180.5,403.5l4,-2c0,1,0,1,0,1l-4,2ZM171.5,400.5c1,-1,1,-1,1,-1c0,0,1,-1,1,-1c0,1,0,1,0,1c0,0,1,0,1,1l-1,0l0,1l0,1l1,0l0,1l-1,-1l-1,1c-1,1,-1,1,-1,1l-1,0l-1,0l1,0l1,-1l0,-1l1,0l-1,-1l0,-1ZM173.5,400.5l-1,0l0,1l1,0l0,-1ZM158.5,408.5c0,0,1,0,1,0c0,0,1,0,1,0c1,0,1,0,2,0c0,0,0,1,0,1l0,1c-1,0,-1,0,-1,0c0,0,-1,0,-1,0c0,0,0,1,-1,1c0,0,-1,-1,-1,-1l2,0c1,0,1,-1,2,-1c-1,0,-1,0,-1,0c-1,0,-1,0,-1,0c-1,0,-1,0,-1,0c-1,0,-1,0,-1,0c0,-1,0,-1,0,-1ZM234.5,416.5c-1,0,-2,0,-3,1c-1,0,-2,1,-3,1c-1,1,-2,1,-3,1l-1,0l-1,0c0,0,-1,0,-1,-1l-1,0c0,1,0,1,-1,1c0,0,-1,0,-1,0l-1,0l-2,-1c-1,1,-1,1,-1,1l-1,0l-1,0c-1,-1,-1,-1,-1,-2c0,1,-1,1,-1,1c0,1,-1,1,-1,1l-1,0l-1,0l-1,-1l0,-1c0,1,-1,1,-1,2c-1,0,-1,0,-2,0l-1,0c-1,0,-2,0,-2,-1c-1,0,-1,-1,-1,-2l-1,-8l1,-2l1,9l0,1l0,1c1,0,1,0,2,0l1,0c1,0,1,0,1,0c1,0,1,0,1,0c0,0,0,-1,1,-1l0,-1l0,1c0,1,1,1,1,1c0,0,1,0,1,0c1,0,1,0,1,0c1,0,1,0,1,-1c0,0,0,-1,0,-1l0,-1l0,-7l1,-2l0,11l1,0c0,0,0,1,0,1c0,0,1,0,1,0l1,0l1,0c0,-1,0,-1,1,-1c1,-2,2,-2,2,-2l1,1l1,1l1,1l1,0l1,0l1,0c1,0,1,0,1,0c0,0,1,0,1,0c0,-1,0,-1,-1,-1c0,-1,0,-1,0,-2c0,-1,0,-1,1,-1l0,-1c0,0,1,-1,1,-1l1,0l1,0c0,0,1,0,1,0c1,0,1,0,1,1c0,0,1,0,1,0l-1,0l-1,0l-1,0l-1,0c-1,0,-1,0,-1,0c0,1,0,1,-1,1c0,0,0,1,1,1l0,1c1,0,1,1,2,1c0,0,1,0,1,0l0,-1c0,0,1,0,1,0l1,0l0,-1l1,0ZM228.5,404.5c1,-1,1,-1,1,-1c1,0,1,0,2,0c0,0,1,0,1,0c0,0,1,1,1,1c-1,1,-1,1,-1,1c0,0,0,1,-1,1l-1,0l-1,0l1,-1c1,0,1,0,2,0c0,-1,-1,-1,-1,-1c0,0,-1,0,-1,0c0,0,-1,0,-1,0c0,1,-1,1,-1,1c0,-1,0,-1,0,-1ZM220.5,417.5l0,-1c-1,0,-1,0,-1,-1l-1,1l1,1l1,0ZM211.5,400.5c0,-1,0,-1,0,-1c1,0,1,-1,1,-1c0,1,1,1,1,1l0,1l0,1l0,1l0,1l-1,-1l0,1l-1,0c0,1,-1,1,-1,1l-1,0l1,-1l1,0l0,-1l0,-1l0,-1ZM212.5,400.5c-1,0,-1,0,-1,0l1,0l0,1l0,-1ZM206.5,414.5l-1,-1l1,-1l1,1ZM203.5,406.5l4,-2l0,1l-4,2ZM260.5,417.5l1,0c1,0,1,0,1,0c0,0,0,-1,0,-1l0,-2l0,-6c0,0,0,-1,0,-1c-1,0,-1,0,-1,0c0,0,1,-1,1,-1c0,0,0,-1,0,-1l0,1l1,0c0,0,0,1,1,1c0,0,-1,0,-1,1l0,1l0,-1l0,1c0,0,0,1,0,2l0,2c0,1,0,1,0,1l0,1c0,1,0,1,0,1c0,0,0,1,0,1c0,1,0,1,-1,1l0,1c-1,0,-1,0,-1,0c-1,0,-1,0,-1,0l-1,0c-1,0,-1,0,-1,0c0,0,-1,0,-1,0c0,0,0,-1,0,-1c-1,0,-1,0,-1,0c0,0,-1,0,-1,0c0,0,0,1,-1,1c0,0,-1,0,-1,0l-1,0l-1,0c-1,0,-1,0,-2,-1c0,0,-1,-1,-1,-2l0,-8l1,-2l0,9l0,1l1,0l0,1c0,0,1,0,1,0l1,0l1,0c0,0,1,0,1,0c0,0,1,0,1,0c1,0,1,-1,1,-1l1,0c0,1,0,1,1,1l1,0l1,0ZM261.5,403.5l4,-2l-1,0c0,1,0,1,0,1l-4,2ZM256.5,415.5l-2,-1l1,-2l1,1ZM254.5,409.5l4,-2l-1,1l-4,2ZM246.5,403.5c1,0,1,0,2,0c1,0,1,0,1,0l1,0l1,0c0,1,-1,1,-1,1l-1,0l-1,0l-1,0l-1,0c0,0,-1,0,-1,0c0,-1,0,-1,1,-1ZM320.5,415.5c-1,0,-1,0,-1,0c0,1,0,1,0,1l1,0c0,-1,0,-1,0,-1ZM320.5,423.5c-1,0,-1,0,-1,0l-1,0c0,1,-1,1,-1,1l-1,0c0,0,-1,0,-1,-1c-1,0,-1,0,-1,0l1,0c1,0,1,0,1,0c0,0,1,0,1,0c0,0,0,-1,0,-1c1,0,1,0,1,0c0,0,1,0,1,-1c1,0,1,0,1,-1l1,-1c0,0,0,-1,0,-1c0,0,0,-1,0,-1l0,1c0,0,-1,0,-1,0l-1,0c0,0,-1,0,-1,0c0,-1,0,-1,0,-1c0,-1,0,-1,0,-1c0,-1,0,-1,0,-1c0,0,0,-1,1,-1c0,0,0,-1,0,-1c1,0,1,0,1,0c0,0,1,0,1,0c0,0,0,1,0,1c0,0,1,0,1,1l0,1c0,0,0,1,0,1c0,0,0,1,0,1c0,1,0,2,-1,3l-1,1l0,1ZM317.5,409.5l4,-2l0,1l-1,0l-4,2ZM306.5,422.5l1,0l1,0c1,0,2,0,3,-1c0,0,1,0,1,-1c0,0,1,-1,1,-1c0,0,1,-1,1,-1c0,0,0,-1,0,-1l-1,-1l0,-1l0,-1l0,-1l1,1c0,0,0,1,0,1l0,1l0,1c0,1,0,1,0,2c0,1,0,1,0,1c0,0,-1,1,-1,1c0,0,0,1,-1,1l-1,1l-1,0l-1,0l-1,0c-1,0,-1,0,-1,-1ZM309.5,409.5l4,-2l0,1l-4,2ZM306.5,423.5l-2,-1l1,-2l2,1ZM303.5,419.5l-1,0c-1,0,-1,0,-2,-1l-1,0l-2,-2c0,-1,-1,-1,-1,-1l0,-1c0,0,0,1,0,1l0,1c0,1,-1,1,-1,1c0,0,0,1,0,1c0,0,-1,0,-1,1l-1,0l-1,0l-1,0l-2,0c-1,0,-1,0,-1,0c-1,-1,-1,-1,-1,-1l0,1l0,1c0,1,0,1,-1,1l-1,-1c0,0,0,-1,0,-1l-1,-1l-1,0l0,1c-1,0,-1,0,-1,0c0,1,0,1,0,1l0,1c0,1,0,1,0,1l1,2l0,2c0,1,0,1,0,1l0,1l0,1l0,-1l-1,-1l0,-1l0,-3l0,-1l0,-1l0,-2c0,-1,0,-1,0,-2l1,0l1,-1l1,-1c1,1,2,1,2,2l2,0l1,0l1,0l1,0c1,0,1,0,1,0c0,0,1,0,1,0c1,0,1,-1,1,-1c0,-1,0,-1,0,-1c0,-1,0,-1,-1,-1l0,-1c-1,0,-1,0,-1,0c-1,-1,-1,-1,-1,-1l-1,0l-1,0c0,-1,0,-1,0,-1c0,-1,0,-1,0,-1c0,-1,0,-1,0,-1c0,0,1,0,1,0l0,-1c1,0,2,-1,3,-1c1,-1,3,-1,4,-2c2,0,3,-1,3,-1c1,0,1,0,1,0l-1,2c-1,0,-2,0,-3,1c-1,0,-3,1,-4,1c-1,1,-2,1,-3,1c0,0,0,1,0,1l1,0c0,1,1,1,1,1l1,0l0,1c1,0,2,1,2,1c1,0,1,1,2,1c0,1,1,1,1,2l2,1l1,0l1,0c1,0,1,0,2,0c0,0,1,0,1,0c0,0,0,-1,0,-1l0,-1l-1,-1l1,-1l0,1l1,0l0,1l0,1c0,0,0,1,0,1l-1,0c0,0,0,1,0,1c0,0,-1,1,-1,1c-1,0,-1,0,-2,0ZM301.5,408.5l1,0c0,1,0,1,0,1l0,-1l1,0l0,-1l0,1c0,0,1,0,1,0l0,-1l0,-1l1,0l0,1l0,1c-1,1,-1,1,-1,1l-1,0c-1,1,-1,1,-1,1c0,0,-1,0,-1,0c0,-1,0,-1,0,-1l0,-1ZM303.5,402.5c1,-1,1,-1,1,-1c0,0,1,0,1,0c0,0,0,1,0,1c0,0,0,1,0,1c0,1,0,1,0,1l0,1l-1,0l-1,1l-1,1c0,0,-1,0,-1,0c1,-1,2,-2,2,-2l0,-1l0,-1l0,-1ZM304.5,403.5l0,-1c-1,0,-1,0,-1,1l1,0l0,1l0,-1ZM295.5,400.5c0,-1,0,-1,0,-1c0,0,1,-1,1,-1c0,1,0,1,0,1c1,0,1,0,1,1l0,1c-1,0,-1,0,-1,0l1,1l0,1l-1,-1l-1,1c-1,1,-1,1,-1,1l-1,0c-1,0,-1,0,-1,0l1,0l1,-1l1,-1l0,-1c-1,0,-1,0,-1,0l0,-1l1,0ZM296.5,400.5l-1,0l0,1l1,0l0,-1ZM281.5,408.5c0,0,1,0,1,0c1,0,1,0,1,0c1,0,1,0,2,0c0,0,0,1,0,1l0,1c0,0,-1,0,-1,0l-1,0c0,0,0,1,-1,1c0,0,0,-1,-1,-1l2,0c1,0,1,-1,2,-1c-1,0,-1,0,-1,0c0,0,-1,0,-1,0c0,0,-1,0,-1,0c0,0,-1,0,-1,0c0,-1,0,-1,0,-1ZM346.5,422.5l1,0l1,0c1,0,2,0,3,-1c0,0,1,0,1,-1c0,0,1,-1,1,-1c0,0,1,-1,1,-1c0,0,0,-1,0,-1l-1,-1l0,-1l0,-1l0,-1l1,1c0,0,0,1,0,1l0,1l0,1c0,1,0,1,0,2c0,1,0,1,0,1c0,0,-1,1,-1,1c0,0,0,1,-1,1l-1,1l-1,0l-1,0c-1,0,-1,0,-1,0c-1,0,-1,0,-1,-1ZM349.5,409.5l4,-2l0,1l-4,2ZM345.5,423.5l-1,-1l1,-2l1,1ZM343.5,419.5l-1,0l-1,0l-1,0c0,0,0,-1,-1,-1c0,0,-1,0,-1,0c0,0,-1,1,-1,1c-1,0,-1,0,-1,0l-1,0l-1,0c-1,0,-2,0,-2,-1c-1,0,-1,-1,-1,-2l-1,-8l1,-2l1,9l0,1l0,1c1,0,1,0,2,0l1,0c1,0,1,0,1,0c1,0,1,0,2,0c0,0,0,-1,1,-1c1,0,1,0,1,0c0,1,0,1,0,1c0,0,1,0,1,0l1,0l1,0c1,0,1,0,2,0l1,0c0,0,0,-1,0,-1l0,-1c-1,0,-1,0,-1,0l0,-1l1,-1l0,1l0,1l1,0l0,1l-1,0c0,0,0,1,0,1c0,0,0,1,0,1c0,0,-1,1,-2,1l-1,0ZM341.5,408.5c0,1,1,1,1,1l0,-1l0,-1l1,0l0,1c1,0,1,0,1,-1l0,-1l0,1l0,1c0,1,0,1,0,1l-1,0l-1,0c0,1,0,1,-1,1c0,-1,0,-1,0,-1l0,-1ZM343.5,402.5c0,-1,1,-1,1,-1c1,0,1,1,1,1c0,0,0,1,0,1c-1,1,-1,1,-1,1l1,0l-1,1l-1,1c0,0,-1,0,-1,1c-1,0,-1,0,-1,0c0,0,-1,0,-1,0c1,-1,2,-2,3,-2l0,-1c-1,0,-1,0,-1,-1l1,-1ZM344.5,403.5l0,-1l-1,0l0,1l1,1l0,-1ZM338.5,415.5l-1,-1l1,-2l1,1ZM336.5,409.5l4,-2l0,1l-4,2ZM379.5,419.5l0,-1l0,-1l-1,-9l1,-2l1,11c0,0,-1,0,-1,0c0,0,0,1,0,1c0,0,0,1,0,1ZM374.5,418.5c0,1,0,1,0,1l-1,0c0,0,0,-1,-1,-1c0,0,-1,-1,-1,-2c0,1,0,2,0,2c-1,1,-2,1,-2,1c-1,0,-1,0,-2,-1c0,0,-1,-1,-1,-2c0,1,0,1,0,1l-1,1c0,0,-1,0,-1,0c-1,0,-1,0,-1,0c-1,-1,-1,-1,-1,-1c0,-1,0,-1,0,-2c1,0,1,0,1,0c1,-1,1,-1,2,-1l0,-1l1,0l0,-1l0,-1c0,0,1,0,1,0l0,1l0,1l0,2c0,1,0,1,0,1c0,0,1,0,1,1l1,0c0,0,1,0,1,0c0,-1,1,-1,1,-1c0,-1,0,-2,0,-3c0,0,-1,-1,-1,-1c0,-1,0,-1,0,-1l0,-1l1,-1l0,2l1,2l0,1l0,1c0,0,0,1,0,1c0,0,1,0,1,0l1,1l1,-1c0,-1,0,-1,0,-1l-1,-2l0,-1l0,-1c0,-1,0,-1,0,-1l0,-1c0,0,0,1,1,1c0,1,0,1,0,1l0,2c0,1,0,2,0,2c0,1,0,1,0,2c0,0,0,1,0,1c-1,0,-1,0,-1,0ZM366.5,414.5c-1,0,-1,0,-1,0c0,1,0,1,-1,1l-1,1c1,0,2,0,2,0c1,0,1,-1,1,-1ZM369.5,402.5c0,0,0,-1,0,-1c0,-1,0,-1,0,-1l0,-1l0,1l1,1c0,0,0,1,0,1c-1,0,-1,0,-1,0ZM368.5,404.5l0,1c0,0,1,0,1,0l0,-1l1,0c0,1,0,1,0,1c1,0,1,-1,1,-1l0,-1l0,1l0,1l0,1l-1,0l0,-1l-1,1l-1,0l0,-1l0,-1ZM237.5,417.5l0,-1l0,-1l0,-8l1,-3l0,11c0,1,0,1,0,1c0,1,0,1,-1,1ZM235.5,403.5l5,-2l-1,0c0,0,0,1,0,1l-4,2ZM149.5,417.5l0,-1l1,-1l-1,-8l1,-3l0,11c0,1,0,1,0,1c0,1,0,1,-1,1ZM148.5,403.5l4,-2l-1,0c0,0,0,1,0,1l-4,2ZM195.5,449.5c0,-1,0,-1,0,-1c0,-1,0,-1,0,-2c0,1,1,1,1,1l0,1l-1,0c0,1,0,1,0,1ZM194.5,451.5c0,1,1,1,1,1c0,-1,0,-1,0,-1l0,-1l1,0l0,1c1,0,1,0,1,-1l0,-1l0,1l0,1c0,1,0,1,0,1l-1,0l-1,0c0,1,0,1,0,1c-1,0,-1,0,-1,-1l0,-1ZM104.5,459.5l-1,-1l1,0Z" class="g2_29" />
</svg>