<?xml version="1.0" encoding="UTF-8" standalone="no"?>
<!DOCTYPE svg PUBLIC "-//W3C//DTD SVG 1.1//EN"
"http://www.w3.org/Graphics/SVG/1.1/DTD/svg11.dtd">
<svg version="1.1" xmlns="http://www.w3.org/2000/svg" xmlns:xlink="http://www.w3.org/1999/xlink">
<defs>
<style type="text/css"><![CDATA[
.g1_36{
stroke: #1F1A17;
stroke-width: 1;
stroke-linecap: butt;
stroke-linejoin: miter;
}
]]></style>
</defs>
<path fill-rule="evenodd" d="M285.5,115.5l-4,2c0,0,0,-1,0,-1l4,-2ZM305.5,103.5c1,-1,1,-1,1,-1c1,0,1,0,2,0c0,0,1,0,1,0c0,0,1,1,1,1c-1,0,-1,1,-1,1c0,0,0,1,-1,1c-1,0,-1,0,-1,0l-1,0l1,-1c1,0,1,0,2,0c0,-1,-1,-1,-1,-1l-1,0c0,0,-1,0,-1,0c0,0,0,1,-1,1l0,-1ZM236.5,106.5l0,-1c0,0,0,-1,0,-1c0,-1,0,-1,-1,-2l1,0l0,-1c0,0,0,1,1,1c0,1,0,1,0,1l0,1c0,0,0,1,0,1c0,0,-1,1,-1,1ZM336.5,103.5c0,1,0,1,0,1c1,0,1,0,1,0c0,-1,0,-1,0,-1l0,-1l1,0l0,1c1,0,1,0,1,-1l0,-1l0,1l0,1c0,1,0,1,0,1l-1,0l-1,0c0,1,0,1,-1,1c0,-1,0,-1,0,-1l0,-1ZM340.5,100.5l-5,3c0,-1,0,-2,0,-2l6,-3ZM162.5,101.5c0,0,1,0,1,0c0,-1,1,-1,1,-1c1,0,1,0,2,1c0,1,0,1,0,1c-1,1,-1,1,-1,1c0,0,-1,0,-1,0l-1,0c0,0,-1,0,-1,0l2,0c1,0,1,-1,1,-1c-1,0,-1,0,-1,0c-1,0,-1,0,-1,0c-1,0,-1,0,-1,0c0,0,0,-1,0,-1ZM123.5,97.5l1,0l0,-1l1,0l0,-1l0,-1l-1,0l0,-2l0,-1l1,1l0,1l0,1l0,1l0,1l1,-1c1,0,1,0,1,0c1,0,1,0,1,0c0,0,1,0,1,0l0,1c0,0,-1,0,-1,0c0,1,0,1,0,1l-1,0l-1,0c0,0,-1,0,-1,0ZM127.5,95.5c0,0,-1,1,-1,1l-1,0l0,1c0,0,1,0,1,0c0,0,1,0,1,-1c0,0,1,0,1,0l0,-1c-1,0,-1,0,-1,0ZM140.5,111.5c0,1,-1,2,-1,2c0,1,0,1,0,1l-1,1l1,1l-1,1c0,0,-1,0,-1,0l0,1c-1,0,-1,0,-2,1l-1,0l-1,1l-1,0l-1,1l0,1l-3,0l-4,0l-2,0c0,0,0,-1,-1,-1l0,-1c-1,0,-1,0,-1,0c-1,-1,-2,-1,-3,-1l0,-1l-1,0l-1,-1l-1,0l0,-1l-1,0l2,-1l-1,0l0,-1l-1,-1c0,-1,0,-1,0,-1l0,-1l0,-1c0,0,0,-1,1,-2l1,-1l-2,0c0,0,1,-1,1,-1l1,0l0,-1l1,0l0,-1l1,0l1,0l2,-1l1,-1c1,-1,1,-1,1,-1l2,0l3,0l1,0l3,0l0,1l1,0l0,1l1,0l2,1l1,0l1,1l1,1c0,0,1,0,1,1l-1,0l0,1l1,0l0,1l0,1ZM131.5,122.5l0,-1l0,-1l1,0l1,-1c0,0,1,0,1,0l1,0c1,-1,1,-1,1,-1l1,0l0,-1l1,0l0,-1l1,0l-1,0l0,-1l0,-1l1,0l0,-1l0,-1l0,-1c0,-1,0,-1,0,-2l-1,-1l0,-1l1,0c0,-1,-1,-1,-1,-1l-1,-1l-1,0l0,-1l-2,0l-1,-1c-1,0,-1,0,-1,0l-1,-1l0,-1l-2,0l-1,0l-1,0l-3,0l-2,0l-1,1l0,1c-1,0,-1,0,-1,0l-2,1l-1,0l-1,1l-1,0l0,1c0,0,-1,0,-1,1l1,0l-1,1l0,1l0,1l-1,1l0,1l1,1l0,1l0,1l1,0c0,0,0,1,0,1l-1,0l1,1l1,0l0,1l1,0l0,1l1,0l1,0l1,0c0,0,1,1,1,1l0,1l1,0l0,1l2,0l3,0ZM136.5,107.5l-1,0l0,-1l-1,0l0,-1c-1,0,-1,0,-1,0l0,-1l0,1l1,0c0,0,1,0,1,0c0,0,0,1,1,1ZM136.5,116.5l0,1l-1,0l0,1l-1,0l-1,0l0,-1c0,0,1,0,1,0l1,0c0,0,0,-1,1,-1ZM132.5,118.5c0,1,0,1,-1,1c0,0,0,1,0,1l-3,0l-4,0l-2,0c0,0,-1,-1,-1,-1c0,0,0,-1,0,-1l0,-1c0,0,1,0,1,0l2,0l3,0l4,0l1,1ZM132.5,104.5c0,1,0,1,-1,1l0,1l-3,0l-1,0l-3,0l-2,0c0,0,-1,-1,-1,-1l0,-1l0,-1l1,0l2,0l3,0l1,0l3,0c1,1,1,1,1,1ZM131.5,107.5c1,-1,1,-1,1,-1c1,0,1,1,1,1c1,0,1,0,1,1l1,0l1,0l1,1l0,1l0,1l0,1c0,0,0,1,0,1l0,1l-1,0c0,1,0,1,0,1l-1,0l-1,1l-1,0l-1,0c0,0,-1,0,-1,0l0,-1l-3,0l0,1l-4,0l-2,0l-1,0l-1,0l-1,0l-1,-1l-1,0l-1,-1l0,-1l-1,-1l0,-1l0,-1c0,0,1,0,1,0l0,-1l0,-1c0,0,1,0,1,0l1,0l1,-1c1,0,1,-1,1,-1c1,0,1,0,1,1l1,0l2,0l3,0l1,0ZM131.5,115.5l0,1c0,0,1,0,1,0l1,0l1,0l0,-1c1,-1,1,-1,1,-1l1,1l0,-1l1,-1l0,-1l0,-1c0,0,0,-1,0,-1c0,-1,0,-1,-1,-1c0,-1,0,-1,0,-1l-1,0l-1,0l0,-1l-1,0l-1,0l-1,0l-3,0l-1,0l-3,0l-2,0l-1,0l-1,0c0,0,-1,0,-1,0l0,1l-1,0l-1,0l-1,1l0,1l0,1l0,1l0,1c0,1,1,1,1,2l1,-1l0,1l1,0l0,1l1,0c1,0,1,0,1,0c1,0,1,0,1,-1l2,0l3,0l4,0ZM129.5,111.5c0,0,1,0,1,0l0,1c0,1,0,1,0,1l-1,1c-1,0,-1,0,-1,0c0,-1,0,-1,0,-1l0,-1l0,-1l1,0ZM129.5,111.5c0,0,0,1,-1,1l0,1l1,0l1,0c0,-1,0,-1,0,-1c0,0,-1,-1,-1,-1ZM125.5,114.5l0,-1c0,0,0,-1,0,-1l-1,-1l0,-1l1,1l0,1l1,0l0,-1c1,-1,1,-1,1,-1c0,1,0,1,-1,2l0,1l0,1l-1,0ZM123.5,110.5l0,1l0,1l0,1c0,1,0,1,0,1l0,-1c0,-1,0,-2,-1,-3ZM116.5,107.5l1,-1l0,-1l1,0l1,0l1,0l0,-1l0,1c-1,0,-1,0,-1,0l0,1c0,0,-1,0,-1,0l-1,1ZM116.5,116.5l1,0c0,0,1,1,1,1l1,0l1,0c0,0,0,1,0,1l-1,0c-1,0,-2,-1,-2,-1l0,-1l-1,0ZM203.5,113.5l-1,0l-1,0l-1,-1l0,1c-1,0,-1,0,-1,1l-1,0l-1,0l-1,0l0,-1l-1,0l0,-1c-1,0,-1,1,-1,1c-1,0,-1,1,-1,1c-1,0,-2,-1,-2,-2l0,1c-1,0,-1,1,-2,1c-1,0,-1,-1,-2,-2c0,1,0,1,0,1c-1,1,-1,1,-2,1l-1,0l-1,0c0,0,-1,0,-1,0l-1,-1l0,-1c0,0,-1,1,-1,1c-1,0,-1,1,-2,1l-1,0l-1,0l-1,0c-1,0,-1,0,-2,0c0,0,0,-1,-1,-1c0,0,-1,1,-1,1c-1,0,-2,0,-2,0l-1,0c0,0,-1,0,-1,0c0,0,-1,0,-1,-1c0,0,0,-1,0,-1c-1,1,-1,1,-1,1c-1,1,-1,1,-2,1l-1,0c-1,0,-1,0,-2,-1c-1,1,-1,1,-1,1l-1,0l-1,0l-1,-1l-1,0l-1,0c0,1,-1,1,-1,1l-1,0l-1,0l-1,0c0,0,-1,0,-2,-1c0,0,0,-1,0,-2l-1,-8l1,-2l1,9l0,1l0,1c0,0,1,0,1,0l1,0l1,0l1,0l1,0l0,-1l1,0c1,-2,2,-2,2,-2l1,0l0,1l1,1l1,0l0,1c0,0,1,0,1,0l1,0l1,0c0,0,1,0,1,0c0,0,1,0,1,0c0,0,0,-1,0,-1c0,0,1,0,1,-1c0,1,0,1,0,1c0,1,0,1,1,1c0,0,1,0,1,0l1,0c1,0,1,0,1,0c0,0,1,0,1,0l0,-1c0,-1,0,-1,0,-2c0,0,0,-1,1,-1l0,-1c1,0,1,0,2,0c0,0,1,0,1,0c0,1,0,1,0,2l0,1c0,0,0,1,0,1c0,0,-1,1,-1,1l1,0c0,0,1,0,1,0l1,0c1,0,1,0,1,0c1,0,1,0,2,0l0,-1c1,0,1,0,1,0c1,1,1,1,1,1c0,0,1,0,1,0l1,0l1,0l1,0c1,0,1,-1,2,-2l0,1c0,1,0,1,1,1c0,0,1,0,1,0c1,0,1,-1,1,-1l1,-1c0,1,0,1,0,1c0,0,1,1,1,1c0,0,1,0,1,-1c0,0,1,-1,1,-1c0,1,1,2,2,2l1,0c1,0,1,0,1,0l1,-1c0,-1,1,-1,1,-2c1,0,1,0,1,0c0,0,1,0,1,0c0,0,0,1,1,1l0,1l0,1l0,1c-1,0,-1,0,-1,0ZM201.5,111.5l1,0l1,1c0,-1,-1,-1,-1,-1c0,-1,0,-1,0,-1c-1,0,-1,0,-1,1ZM199.5,102.5l0,1c0,0,0,1,0,1c1,0,1,0,1,-1l0,-1l1,0l0,1c0,0,1,0,1,-1l0,-1l0,1l0,1c0,1,0,1,0,1l-1,0l-1,0c0,1,0,1,-1,1l0,-1l0,-1ZM200.5,97.5c0,0,1,0,1,-1l1,0c0,0,1,1,1,1c0,0,0,1,-1,1c0,1,0,1,0,1l0,1l-1,0l0,1c-1,0,-1,0,-1,0c-1,1,-1,1,-1,1c-1,0,-1,0,-1,0c1,-1,2,-2,3,-2l0,-1l-1,0l0,-1ZM201.5,98.5l0,-1l0,1l1,0l0,1l0,-1ZM188.5,103.5c0,0,1,0,1,0c1,-1,1,-1,1,-1c1,0,1,1,2,1l0,1l0,1c0,0,-1,0,-1,0c0,0,-1,0,-1,0l-1,0l-1,0l2,0c1,0,1,-1,2,-1c-1,0,-1,0,-1,0c0,0,-1,0,-1,0c0,0,-1,0,-1,0c0,0,-1,0,-1,0l0,-1ZM181.5,109.5l-1,-1l-1,1l-1,-1l1,-1l1,1l1,-2l1,1ZM178.5,101.5l5,-2l-1,0l0,1l-4,2ZM174.5,106.5l-2,-1l0,1l-2,-1l1,-2l1,1l1,-1l2,1ZM173.5,109.5l-1,0l-1,1c0,0,1,0,1,0c0,1,0,1,1,1c0,0,1,0,1,0c0,-1,0,-1,0,-1c0,0,0,-1,0,-1c0,0,-1,0,-1,0ZM175.5,119.5l-4,3c0,-1,1,-1,1,-2l4,-2ZM167.5,117.5l-2,-1l0,1l-2,0l1,-2l2,1l0,-1l2,1ZM159.5,112.5l-1,-1l-1,-1l0,1l-1,0l1,1l1,0ZM153.5,99.5l5,-2c0,1,0,1,0,1l-5,3ZM155.5,96.5l5,-2c0,0,-1,1,-1,1l-5,2ZM243.5,114.5c-1,0,-1,0,-1,0l0,-1c-1,0,-1,0,-1,0c0,-1,0,-1,0,-1l0,-1l-1,0l0,1c-1,0,-1,0,-1,0c0,0,-1,0,-1,0l0,1c0,0,0,1,0,1c0,0,-1,0,-1,0c0,0,0,1,0,1c0,1,0,1,-1,1c0,1,0,1,0,1l-1,1l-1,0l-1,0c0,1,0,1,0,1l-1,0l0,-1c-1,0,-1,0,-1,0c0,0,-1,0,-1,0c0,-1,0,-1,0,-1c0,0,0,1,1,1c1,0,1,0,1,0l1,-1l1,0c0,0,1,-1,1,-1c0,0,0,-1,1,-1c0,-1,0,-1,1,-2l0,-1l-1,0l1,-2l1,0c1,0,1,0,1,0c0,0,1,0,1,0c0,0,0,-1,0,-1c1,0,1,0,1,0l1,2c0,0,0,1,0,1c0,0,1,0,1,0l1,0l3,-2l0,-1c1,0,1,0,1,0c1,-1,1,-1,1,-1c1,0,1,0,2,0c1,0,1,0,1,0c0,1,1,1,1,1l0,1l0,1l0,1l-1,0c0,1,-1,1,-2,1c0,0,-1,1,-2,1c-1,0,-2,0,-3,0l-1,0l-1,0l0,1c0,0,0,1,0,1l0,-1l0,-1ZM248.5,110.5l-1,1l-1,1l-2,1l2,-1c1,0,2,0,3,0c1,0,1,0,2,0c0,0,1,-1,1,-1c0,-1,0,-1,0,-1l-1,0c0,0,-1,0,-1,0c0,0,-1,0,-1,0l-1,0ZM247.5,117.5l-4,2l1,-1l4,-2ZM218.5,114.5l-1,0c-1,0,-2,0,-2,-1c-1,0,-1,-1,-1,-2l-1,-8l1,-2l1,9l0,1l0,1c1,0,1,0,2,0l1,0l1,0c0,0,1,0,1,0c0,-1,0,-1,0,-2l1,-1l-1,-1l0,-1l0,-3l0,-2c0,-1,0,-1,0,-1l0,-1l1,2c0,0,0,1,0,2l0,1l0,1l0,2l0,1l0,1l0,1l1,-1l1,-1l1,0c1,-1,1,-1,1,-1l1,0c1,0,1,0,2,0c0,1,0,1,1,1l0,1l0,1c-1,0,-1,0,-1,1c0,0,-1,0,-1,0c0,1,0,1,-1,1c-1,0,-1,0,-2,1c-1,0,-2,0,-2,0ZM225.5,110.5c0,0,-1,0,-1,0l-1,1l-1,0l-1,1l1,0c0,0,1,0,1,0c0,0,1,0,1,0l1,0c1,0,2,-1,2,-1c0,0,0,-1,0,-1l-1,0l-1,0ZM222.5,98.5l5,-3c0,1,0,1,-1,1l-4,3ZM224.5,94.5l5,-2c-1,1,-1,1,-1,1l-5,3ZM275.5,112.5c0,0,1,0,1,0l1,0c0,-1,1,-1,1,-1l-1,-2l0,-7c0,-1,0,-1,0,-1c0,-1,0,-1,1,-1c0,1,0,1,0,1c0,0,0,1,1,1l-1,1c0,1,0,2,0,2c0,1,0,1,0,3c0,0,0,1,0,1l0,1c0,1,0,1,0,1l0,1c0,0,0,1,0,1c0,0,-1,0,-1,0l0,1c0,0,-1,0,-1,0c0,0,-1,0,-1,0l-1,0c0,0,-1,0,-1,0l-1,-1l0,-1c0,0,-1,1,-1,1c-1,0,-1,1,-2,1l-1,0c0,0,-1,0,-1,0c0,0,-1,-1,-1,-1l0,-1c-1,0,-1,-1,-1,-1c0,1,0,1,0,1c-1,0,-1,0,-1,0l-1,0c-1,0,-1,0,-1,0l-1,0l0,-1c0,-1,0,-1,1,-2c0,0,1,0,2,-1c0,0,1,0,1,0l0,-1l0,-1l0,-1l0,2c1,0,1,0,1,1l0,1l0,2c0,1,1,1,1,1c1,0,1,0,1,0l1,0c1,0,1,0,2,0c0,-1,0,-1,0,-1c1,0,1,0,1,0c1,1,1,1,1,1c0,0,1,0,1,0l1,0ZM276.5,98.5l4,-2c0,0,-1,1,-1,1l-4,2ZM273.5,117.5l-2,-1l-1,1l-1,0l1,-2l1,1l1,-1l2,1ZM269.5,96.5l1,-1l1,0c0,0,1,0,1,1c1,0,1,0,1,0c0,1,-1,1,-1,1c0,1,0,1,0,1c-1,0,-1,0,-1,0c-1,0,-1,0,-1,0l-1,0l1,0c1,-1,2,-1,2,-1c0,0,-1,0,-1,0l-1,0l-1,0l-1,0c0,0,0,-1,0,-1l1,0ZM265.5,108.5l0,1l-1,0l-1,1l-1,0l1,0l1,0c1,0,1,0,1,0ZM266.5,117.5l-5,2c1,0,1,-1,1,-1l4,-2ZM337.5,110.5c-1,0,-1,0,-1,0c0,0,0,1,0,1l1,0c0,-1,0,-1,0,-1ZM337.5,118.5c-1,0,-1,0,-1,0l-1,0c0,1,-1,1,-1,1l-1,0c0,0,-1,-1,-1,-1c-1,0,-1,0,-1,0l0,1l-2,-1l1,-2l2,1l0,-1l2,1l-1,1c0,0,1,0,1,0c0,-1,0,-1,0,-1c1,0,1,0,1,0c0,0,1,-1,1,-1c1,0,1,0,1,-1l1,-1c0,0,0,-1,0,-1l0,-1c0,0,0,1,0,1c-1,0,-1,0,-1,0l-1,0c0,0,-1,0,-1,0c0,-1,0,-1,0,-1l0,-1c0,-1,0,-1,0,-1c0,0,0,-1,1,-1c0,0,0,-1,0,-1c0,0,1,0,1,0l1,0l0,1c0,0,1,0,1,1l0,1c0,0,0,1,0,1c0,0,0,1,0,1c0,1,-1,2,-1,3l-1,1l0,1ZM331.5,118.5c0,0,1,0,1,0l-1,-1ZM327.5,113.5l1,0c0,-1,0,-1,1,-1c1,0,1,0,1,0c1,0,1,0,1,0c0,0,1,1,1,1l-1,1c0,-1,0,-1,0,-1l-1,0l-1,0c-1,0,-1,0,-1,0c0,0,0,1,0,1l-1,0l0,1l0,1c0,0,0,1,0,1l1,1l-1,1c0,0,-1,1,-1,1c0,-1,0,-1,0,-1l-1,-1c0,-1,0,-2,0,-3c0,0,0,-1,0,-1c0,0,-1,0,-1,0l-1,0l-2,0c0,0,-1,0,-1,-1l0,-1c-1,0,-1,0,-1,0c0,0,0,1,0,1l-1,0c0,0,-1,0,-1,1c-1,0,-1,0,-2,0l-1,0c0,0,-1,-1,-1,-1l0,-1l0,-1c1,0,1,0,1,0l0,1l1,0l1,0l1,0l1,-1c1,0,1,0,1,0c0,0,0,-1,0,-2l0,-2l-1,-1l1,0l0,-1l1,1c0,0,0,1,0,2l0,2c0,0,0,1,0,1c0,0,1,1,1,1l1,0l1,0l1,0c0,0,1,0,2,0l1,0c0,-1,0,-1,0,-1c0,1,0,1,0,1c-1,1,-1,2,-1,3c0,1,0,2,0,2c0,0,0,-1,0,-1c0,0,0,-1,0,-1l0,-1c1,0,1,0,1,0l0,-1ZM328.5,104.5l4,-2l0,1l-4,2ZM323.5,103.5c0,0,1,0,1,0c1,0,1,-1,1,-1c1,0,1,1,2,1l0,1l0,1c0,0,-1,0,-1,0l-1,0l-1,0l-1,0l2,0c1,0,1,-1,2,-1c-1,0,-1,0,-1,0c0,0,-1,0,-1,0c0,0,-1,0,-1,0c0,0,-1,0,-1,0l0,-1ZM316.5,117.5l-4,2c0,0,0,-1,1,-1l4,-2ZM311.5,118.5l-1,-1l-1,2l-1,-1l1,-2l1,1l1,-1l1,1ZM306.5,113.5l1,0c0,-1,0,-1,0,-1c1,0,1,0,1,0l1,0l1,0c0,0,0,1,0,1l0,1c0,-1,-1,-1,-1,-1c0,0,-1,0,-1,0c0,0,-1,0,-1,0c0,0,-1,1,-1,1l0,1l0,1c0,0,0,1,0,1l0,1l0,1c-1,0,-1,1,-1,1c0,-1,0,-1,0,-1c-1,0,-1,0,-1,0l0,-1c0,-1,0,-2,0,-3c0,0,0,-1,0,-1c-1,0,-1,0,-1,0l-1,0l-3,0c0,0,-1,0,-1,0c0,-1,0,-1,-1,-1l0,1l0,1c0,1,0,1,0,1c-1,0,-1,0,-1,-1c-1,0,-1,-1,-1,-1l0,-1c-1,0,-1,0,-1,0l-1,0l0,1l-1,0c0,0,0,1,0,1l0,1c0,1,0,1,0,1l1,2l0,2c0,0,0,1,0,1l0,1l0,1l0,-1l0,-1l-1,-1l0,-3l0,-1l0,-1l0,-1l0,-1c0,-1,0,-1,1,-2l1,-1l1,0l0,-1c1,1,2,1,3,2l1,0l2,0l1,0l1,0c0,0,1,0,2,0c0,-1,0,-1,0,-1c1,0,1,0,1,0c0,1,0,1,0,1l-1,0c0,1,-1,2,-1,3c0,1,1,2,1,2c0,0,0,-1,0,-1c0,0,0,-1,0,-1l0,-1c1,0,1,0,1,-1ZM306.5,122.5l-4,2c0,-1,1,-1,1,-1l4,-2ZM291.5,103.5c1,0,1,0,1,0c1,0,1,-1,2,-1c0,0,1,1,1,1c1,0,1,0,1,0l0,1c-1,0,-1,0,-1,1l-1,0c-1,0,-1,0,-1,0l-1,0l1,0c1,0,2,-1,2,-1c0,0,-1,0,-1,0l-1,0c0,0,-1,0,-1,0l-1,0l0,-1ZM280.5,73.5c0,-1,0,-1,0,-2c0,-1,0,-1,-1,-2l1,0l0,-1c0,1,0,1,0,1c0,1,0,1,0,1l1,1l0,1c0,0,-1,0,-1,0c0,1,0,1,0,1ZM378.5,69.5l-4,3c0,-1,0,-1,0,-2l4,-2ZM305.5,53.5c1,0,1,0,1,0c1,0,1,0,2,0c0,0,1,0,1,0c0,0,1,0,1,1c-1,0,-1,1,-1,1l-1,1l-1,0l-1,0l1,-1c1,0,1,0,2,-1c-1,0,-1,0,-1,0c0,0,-1,0,-1,0c0,0,-1,0,-1,0c0,0,-1,0,-1,1l0,-1l0,-1ZM177.5,56.5c1,0,1,0,1,0c1,0,1,0,2,0c0,0,1,0,1,0c1,0,1,0,1,0c0,1,0,1,0,1c0,0,-1,0,-1,1l-1,0l0,1c-1,0,-1,0,-1,0l-1,0l1,-1c1,0,2,-1,2,-1c0,0,-1,0,-1,0l-1,0l-1,0l-1,0c0,-1,0,-1,0,-1ZM58.5,57.5c0,2,0,3,-1,5l0,1c-1,0,-1,0,-1,0l-1,0l1,0c0,-1,0,-1,0,-1l1,0c0,-1,0,-1,0,-1c-1,0,-1,0,-1,-1l-1,0c0,0,0,-1,0,-1l-1,0c0,0,0,-1,0,-1c0,0,1,0,1,0c0,0,0,1,1,1c0,1,1,1,1,1c0,0,0,1,0,1c1,-1,1,-1,1,-1l0,-1l0,-1ZM101.5,63.5c0,0,0,1,0,1c1,0,1,0,1,0l0,-1l-1,0ZM101.5,71.5c0,0,-1,1,-1,1c0,0,-1,0,-2,0c0,0,-1,0,-2,0c0,-1,0,-1,0,-1l1,0c0,0,1,0,1,0l1,0c0,0,1,-1,1,-1c0,0,1,0,1,-1c0,0,1,0,1,0c0,-1,0,-1,0,-2c1,0,1,-1,1,-1c0,0,-1,0,-1,0l-1,0l-1,0c0,0,0,-1,0,-1c0,0,0,-1,0,-1c0,-1,0,-1,0,-2c1,0,1,0,1,-1c0,0,1,0,1,0c1,1,1,1,1,1c0,0,0,1,0,1c0,0,1,1,1,1c0,0,0,1,0,1c0,1,0,1,0,1c0,1,-1,2,-1,3c0,0,-1,1,-1,1c0,0,0,1,-1,1ZM99.5,57.5l4,-2l-1,1l-4,2ZM93.5,58.5l-1,-1l1,-2l1,1ZM96.5,65.5l0,1c-1,0,-1,0,-1,0c0,1,-1,1,-2,1c0,0,-1,0,-1,0l-1,0l-12,0c0,0,0,1,0,1c0,1,0,1,0,1l-1,0l0,-1l0,-1c-1,-1,-1,-1,-1,-1c-1,0,-1,1,-1,1c-1,0,-1,0,-1,0l-1,0l-1,0l-1,0c0,0,0,-1,0,-2l0,2l0,1c0,0,-1,1,-1,1c0,1,0,1,-1,2l-1,0c0,0,0,1,-1,1l-1,0c0,0,-1,0,-1,0l-1,0c-1,0,-1,0,-1,0c-1,0,-1,0,-1,-1c-1,0,-1,0,-1,-1l0,-1c0,-1,0,-1,0,-2c0,0,0,-1,0,-1l1,-1l0,1l0,1c0,0,-1,1,-1,1c0,0,1,1,1,2c1,0,1,0,2,0c0,0,1,0,1,0c1,0,2,0,3,0c1,-1,1,-1,2,-1c0,-1,0,-1,0,-1l0,-1l0,-2c0,-1,0,-1,0,-2c0,0,0,-1,0,-1l-1,-7l1,-2l1,11c0,0,0,1,0,1c0,0,1,0,1,0l1,0l1,0c1,0,1,0,1,0c0,0,1,0,1,0c0,-1,0,-1,0,-1l1,0c0,0,0,1,0,1c0,0,1,0,1,0l1,0l0,-1l1,0l2,-1c0,-1,1,-1,1,-1c1,0,1,-1,2,-1c1,0,1,0,2,1c0,0,1,0,1,1l0,1c0,1,-1,1,-1,1l0,1l1,0l0,-1l2,0l1,0c0,0,1,0,1,0c1,0,2,0,2,0c0,-1,0,-1,0,-1c0,0,1,0,1,0l-1,-1c-1,1,-1,1,-1,1l-1,0c-1,0,-1,0,-1,-1c0,0,0,-1,0,-1c0,0,0,-1,0,-1l0,-1c0,0,1,0,1,-1l1,0c0,0,1,0,1,0c0,0,0,1,0,1l1,1l0,1c0,1,0,1,0,2l0,1ZM93.5,61.5l0,1l1,0l1,-1c-1,0,-1,0,-1,0l0,-1l-1,0c0,0,0,1,0,1ZM92.5,51.5l4,-2l0,1l-5,2ZM84.5,58.5l-1,1l-2,-1l1,-1ZM88.5,64.5c0,0,-1,0,-1,0c0,-1,-1,-1,-1,-1l-1,0c0,0,-1,0,-1,0c-1,1,-1,1,-2,1l0,1l-2,1l1,0l1,0l1,0c1,0,1,-1,1,-1l2,0l1,0l1,-1ZM78.5,52.5l1,-1c0,0,1,0,1,0c1,0,1,0,2,1c0,1,0,1,0,1c-1,1,-1,1,-1,1c-1,0,-1,0,-1,0c0,0,-1,0,-1,0c0,0,-1,0,-1,0l2,0c0,-1,1,-1,1,-1c-1,0,-1,-1,-1,-1c-1,0,-1,1,-1,1c-1,0,-1,0,-1,0c0,0,0,-1,0,-1ZM59.5,79.5l5,-3c0,0,0,1,0,1c0,0,0,1,-1,1l-4,2ZM61.5,76.5l5,-3c0,1,-1,1,-1,1l-5,3ZM131.5,67.5l-1,0l0,-1c-1,0,-1,0,-1,0l-1,0c-1,0,-1,1,-1,1l-1,0l-1,0c-1,0,-1,0,-1,0c-1,0,-1,0,-1,0c0,-1,0,-1,-1,-1c-1,0,-1,0,-1,0c0,1,-1,1,-1,1c0,0,-1,0,-1,0l-1,0c0,0,-1,0,-1,0c0,0,-1,0,-1,0c0,-1,0,-1,0,-1c0,-1,0,-1,0,-1c-1,0,-1,0,-1,-1l0,1c-1,0,-1,0,-1,0l-1,1c-1,0,-1,0,-1,-1l-1,0l0,-1c0,0,0,-1,1,-1c0,-1,1,-1,2,-2c0,0,1,0,1,0l0,-1l0,-1l0,1c1,0,1,1,1,1c0,0,0,1,0,1l0,2c0,0,0,1,0,1c0,0,1,0,1,0c1,0,1,0,1,0l1,0l1,0c0,0,1,0,1,0c0,0,1,0,1,0c0,-1,0,-1,0,-1l1,0c0,1,0,1,0,1c1,0,1,0,2,0l1,0c1,0,1,0,1,0l1,0l0,-1c0,-1,1,-1,1,-2c1,0,1,0,1,0c1,0,1,0,1,0c0,1,1,1,1,2l0,1c0,0,0,1,0,1c0,0,-1,0,-1,1ZM129.5,64.5l1,1l1,0l0,-1l-1,0c-1,0,-1,0,-1,0ZM127.5,53.5l0,1l1,0c0,0,0,-1,0,-1l0,-1l1,0l0,1c1,0,1,0,1,-1l0,-1l0,1l0,1l0,1l-1,0l-1,0c0,1,0,1,-1,1l0,-1l0,-1ZM130.5,70.5l-4,2c0,0,0,-1,0,-1l5,-2ZM121.5,63.5l-1,-1l1,-2l1,1ZM119.5,53.5c0,0,0,-1,1,-1l1,0c0,0,1,0,1,0c1,1,1,1,1,1c0,1,-1,1,-1,1c0,0,0,1,0,1c-1,0,-1,0,-1,0c-1,0,-1,0,-1,0l-1,0l1,0c1,-1,2,-1,2,-1c0,0,-1,-1,-1,-1l-1,0l-1,1l-1,0c0,-1,0,-1,0,-1l1,0ZM115.5,62.5l-1,0l-1,1l-1,1l1,0l1,0c1,0,1,-1,1,-1ZM112.5,51.5l1,-1l1,0c0,0,0,1,0,1c0,0,0,1,0,1c0,1,0,1,0,1l0,1l-1,0l-1,1l-1,0l0,1l-1,0l0,-1l1,0c0,0,1,0,1,-1l1,0l-1,-1l0,-1l0,-1ZM113.5,52.5l0,-1l0,1ZM162.5,70.5l1,0c1,0,2,0,3,0c0,-1,1,-1,1,-1c1,-1,1,-1,2,-2c0,0,0,-1,0,-1l0,-1l0,-1l-1,0l0,-1l0,-1l1,-1l0,1c0,0,0,1,1,1l0,1l0,1c0,1,0,1,0,2c-1,0,-1,0,-1,0c0,1,0,1,0,1c0,1,0,1,0,1c-1,1,-1,1,-1,1c0,0,-1,0,-1,1l-1,0c-1,0,-1,0,-1,0l-1,0l-1,0c0,0,-1,0,-1,0ZM165.5,57.5l4,-2l-1,1l-4,2ZM152.5,62.5l1,0c0,-1,0,-1,0,-1l1,0l1,0c1,0,1,0,1,0c1,0,1,0,1,0l-1,-1l-1,0l-1,0c0,-1,-1,-1,-1,-1c0,0,-1,0,-1,0c0,0,1,0,1,-1c1,0,1,0,2,0c0,0,1,0,2,1l2,1l1,1l1,0l1,0l0,1l1,0l1,0l-1,1l-1,0l-2,0l-2,0l-1,-1c-1,0,-1,0,-2,0c-1,0,-1,0,-1,0l-1,0c1,1,1,1,1,2l0,1c0,0,0,1,0,1l-1,1l-1,0l0,-1c0,0,-1,0,-1,0l-1,0c0,0,0,1,-1,1l-1,0c-1,0,-1,0,-2,0l-1,0c0,-1,0,-1,0,-1c0,-1,0,-1,0,-1l0,-1l-1,1c0,0,-1,0,-1,0l0,1l-1,0c0,0,-1,0,-1,-1l-1,0l0,-1c0,0,1,-1,1,-1c1,-1,1,-1,2,-2c1,0,1,0,1,0l0,-1l0,-1l1,1c0,0,0,1,0,1c0,0,0,1,0,1l0,2c1,0,1,1,1,1l1,0l1,0c1,0,1,0,1,0l1,0l1,-1c0,-1,0,-1,0,-2l1,0ZM152.5,53.5c1,0,1,-1,1,-1c1,0,1,0,2,0c0,0,1,0,1,0c0,1,1,1,1,1c-1,1,-1,1,-1,1c0,0,0,1,-1,1c-1,0,-1,0,-1,0l-1,0l1,0c1,-1,1,-1,2,-1c0,0,-1,-1,-1,-1l-1,0c0,0,-1,0,-1,1l-1,0c0,-1,0,-1,0,-1ZM151.5,64.5l1,1l1,0l0,-1c0,0,-1,0,-1,0l-1,0ZM149.5,57.5l4,-2l0,1c-1,0,-1,0,-1,0l-4,2ZM144.5,58.5l-2,-1l-1,1l-1,-1l1,-1l1,1l1,-1l2,1ZM144.5,62.5l-1,0l-1,1l0,1l1,0c1,0,1,0,1,0c0,0,0,-1,0,-1ZM140.5,74.5l5,-3c0,0,0,1,-1,1l-5,3ZM141.5,70.5l5,-2c0,1,0,1,0,1l-5,3ZM186.5,58.5l-1,-1l1,-1l1,0ZM188.5,64.5l-1,0c0,1,0,1,-1,1l-1,0c0,-1,0,-1,0,-1c0,0,0,-1,0,-1c0,-1,0,-1,0,-1l0,-1c0,0,0,-1,0,-1c1,0,1,-1,2,-1c0,0,0,1,1,1c0,0,0,1,0,1l1,1l0,1l0,1l0,1c0,1,0,1,0,1c-1,1,-1,1,-1,1c1,0,1,1,1,1c0,0,1,0,1,0l0,1l-1,1c0,0,0,1,0,1c0,0,-1,0,-1,1c-1,0,-2,0,-3,1c-1,0,-1,0,-2,0c-1,0,-1,0,-1,0c0,0,-1,0,-1,0c-1,0,-2,-1,-2,-1c0,0,-1,-1,-1,-1c0,-1,0,-1,0,-1c0,0,0,-1,0,-1c0,0,0,-1,0,-2c1,-1,1,-1,1,-2c0,0,1,0,1,0c-1,1,-1,1,-1,2c0,1,0,1,0,1c0,0,0,1,0,1c0,1,0,1,1,1c1,1,1,1,3,1c1,0,1,0,1,0c1,0,1,0,1,0c1,0,2,-1,3,-1l1,-1c-1,0,-1,0,-2,0c-1,0,-1,0,-1,-1l-1,0c0,0,0,-1,1,-1c0,0,1,-1,1,-1c0,0,1,0,1,0c0,0,0,-1,0,-1l0,-1ZM186.5,62.5c1,0,1,0,1,0c0,0,0,-1,0,-1l-1,0l0,1ZM189.5,73.5l-4,2c1,0,1,-1,1,-1l4,-2ZM268.5,58.5l-1,-1l1,-2l1,1ZM271.5,65.5l0,1c-1,0,-1,0,-1,0c-1,1,-1,1,-2,1c0,0,-1,0,-1,0l-1,0l-1,0l-1,0l0,-1c0,0,-1,-1,-1,-1c0,1,0,1,-1,1c0,1,0,1,-1,1c0,0,-1,-1,-1,-1l-1,0c0,1,-1,1,-1,1c-1,0,-2,0,-2,-1l-1,0c0,1,-1,1,-1,1l-1,0l-1,0l-1,0l-1,0c0,-1,0,-1,0,-1c0,0,-1,0,-1,0c-1,1,-1,1,-1,1c-1,0,-1,0,-1,0l-1,0l-1,0l-1,0l-1,0l0,-1c0,0,0,-1,0,-1l-1,0l0,1l-1,0c0,1,0,1,-1,1c0,0,-1,0,-1,0l-1,0c0,0,-1,0,-1,0c-1,-1,-1,-1,-1,-1l0,-1c0,0,0,-1,0,-1l1,0l0,1l1,0l1,0l1,0l1,0c0,0,1,0,1,0c0,-1,0,-1,0,-1c0,0,0,-1,0,-1l0,-2l0,-1l0,-1l0,-1l1,1c0,1,0,1,0,2l0,2c1,1,1,1,1,1c0,1,0,1,0,1c0,0,1,0,1,0l1,0l1,0l1,0l1,0l1,0c0,-1,0,-1,0,-1c1,0,1,0,1,0c0,1,0,1,0,1c0,0,1,0,1,0l1,0l1,0l1,0c0,0,1,-1,1,-1l1,0l0,1l1,0c0,0,1,0,1,0c0,0,1,-1,1,-1l0,-1c0,1,1,1,1,1c0,1,0,1,1,1c1,0,1,-1,1,-1l0,-1l1,0c0,2,1,2,1,2l1,0l1,0c0,0,1,0,1,0c1,0,2,0,2,0c0,-1,0,-1,0,-1c0,0,1,0,1,0c0,0,-1,0,-1,-1l-1,0c0,1,0,1,0,1l-1,0c-1,0,-1,0,-1,-1c0,0,0,-1,0,-1c0,0,0,-1,0,-1l0,-1c0,0,1,0,1,-1l1,0c0,0,1,0,1,0c0,0,0,1,0,1l1,1l0,1c0,1,0,1,0,2l0,1ZM268.5,61.5l0,1l1,0l0,-1l-1,-1c0,0,0,1,0,1ZM267.5,51.5l4,-2l0,1l-5,2ZM259.5,54.5l4,-2l0,1l-1,0l-4,2ZM251.5,70.5l-2,-1l0,2l-2,-1l1,-2l2,1l0,-1l2,1ZM250.5,51.5l0,-1c1,0,1,0,1,0l1,0c0,0,0,1,0,1c0,0,0,1,0,1c0,1,0,1,-1,1l1,0l0,1l-1,0l-1,1c0,0,-1,0,-1,0l0,1l-1,0l0,-1l1,0l0,-1l1,0l0,-1l0,-1l0,-1ZM251.5,52.5l0,-1l-1,0l0,1l1,0ZM239.5,52.5l1,-1l1,0c0,0,1,0,1,1c1,0,1,0,1,0c0,1,-1,1,-1,1c0,1,0,1,0,1c-1,0,-1,0,-1,0c-1,0,-1,0,-1,0l-1,0l1,0c1,-1,2,-1,2,-1c0,0,-1,0,-1,0c0,0,0,-1,-1,-1c0,0,0,1,-1,1l-1,0c0,0,0,-1,0,-1l1,0ZM224.5,59.5l-1,-1l1,-1l1,1ZM233.5,64.5l-2,0c-1,0,-1,1,-2,1l-1,0l-1,0l-1,1c-1,0,-1,0,-1,0c-1,0,-1,1,-1,1c-1,0,-2,0,-3,0c-1,0,-1,0,-1,0l-1,0c0,0,-1,-1,-1,-2c0,1,0,1,-1,2l-1,0l-1,0l-1,0l-1,0l1,1l0,1c0,1,0,2,0,2c-1,1,-1,1,-2,1l-1,0c0,0,-1,-1,-1,-2c0,0,-1,-1,-1,-3c-1,0,-1,0,-1,0l-1,0l-3,0c0,0,-1,0,-1,0l0,-1l0,1l0,1l0,1c-1,0,-1,0,-1,0c0,0,-1,0,-1,0c0,-1,-1,-1,-1,-2l0,-1c0,0,-1,0,-1,0l-1,1l0,1c0,0,-1,0,-1,0l1,1l0,1l0,2l0,1l1,1c0,1,0,1,0,2l-1,1l0,-1l0,-1l0,-1l-1,-3l0,-1l0,-1l0,-1l0,-1c0,-1,1,-1,1,-2l1,-1l1,0l1,-1c0,1,1,1,2,2l2,0l1,0l1,0l1,0l1,0l1,0c0,0,0,-1,0,-1l1,-1c0,0,0,-1,0,-1c1,-1,2,-2,2,-2c0,0,1,0,1,1l0,1l0,1c0,0,0,1,-1,1c0,1,-1,1,-2,2l2,0l2,0l1,-1l1,0c0,0,1,0,1,0c0,-1,0,-1,0,-1l0,-1c0,-1,0,-1,0,-1l-1,-7l1,-2l1,11l0,1c1,0,1,0,1,0c0,0,1,0,1,0c0,0,1,0,1,0c1,0,1,0,2,0l1,0l1,-1l1,0l-1,-1l-1,0l-1,0l-1,0l-1,0c0,-1,0,-1,0,-1c1,-1,1,-1,1,-1c0,0,1,0,1,0l1,0l1,0l2,1l1,1c0,0,1,0,1,0c0,0,1,0,1,0c0,0,1,0,1,0l1,0ZM230.5,70.5l-4,2c0,0,0,-1,1,-1l4,-2ZM217.5,48.5c1,0,1,-1,1,-1c0,0,1,0,1,0c0,0,1,0,1,1l0,1l-1,0l1,1l0,1l-1,0l-1,0c-1,1,-1,1,-1,1l-1,0l-1,0l1,0l1,-1l1,-1l-1,0c0,-1,0,-1,0,-1c0,-1,0,-1,0,-1ZM219.5,48.5l-1,0l0,1l1,0l0,-1ZM212.5,62.5c0,0,0,1,-1,1l0,1l-1,1c1,0,2,-1,2,-1c1,0,1,-1,1,-1l0,-1l-1,0ZM210.5,67.5c0,1,0,1,0,2c1,0,1,1,1,1l1,0c1,0,1,0,1,0c1,0,1,0,1,0c0,-1,-1,-1,-2,-2c0,0,-1,0,-2,-1ZM212.5,51.5l0,-1c1,0,1,0,1,0c0,0,1,0,1,0c0,0,0,1,0,1c0,0,0,1,0,1c0,1,0,1,0,1l0,1l-1,0l-1,1c0,0,-1,0,-1,0l0,1l-1,0l0,-1l1,0l1,-1l0,-1l0,-1l0,-1ZM213.5,52.5l0,-1c-1,0,-1,0,-1,1l1,0ZM197.5,56.5l1,0c0,0,1,0,1,0c1,0,1,0,1,0c1,0,1,0,1,1c0,0,0,1,-1,1c0,0,-1,0,-1,1c0,0,-1,0,-1,0l-1,0l2,-1c0,0,1,0,1,-1l-1,0c-1,0,-1,0,-2,0c0,0,0,-1,0,-1ZM289.5,70.5l-1,-1l1,-1l1,1ZM287.5,67.5l-1,0c-1,0,-1,0,-2,0c0,-1,0,-1,-1,-1c0,0,0,-1,0,-1c0,-1,0,-1,0,-1l-1,0c0,1,0,1,0,1l-1,0l-1,0c0,0,-1,0,-1,0l-1,0l0,-2c0,0,1,0,1,-1c1,0,1,-1,2,-1c1,0,1,-1,1,-1c0,-1,0,-1,0,-1l1,-1l0,2l0,1l0,1l1,2c0,0,0,1,0,1l1,0l1,0l1,0c0,0,1,0,1,0c1,0,1,0,1,-1c0,0,0,-1,0,-1l0,-1l-1,0l1,-2c0,1,1,1,1,1l0,1l0,1l0,1l0,1l-1,1l-1,0c0,1,-1,1,-1,1ZM288.5,73.5l-4,2c1,-1,1,-1,1,-1l4,-2ZM282.5,61.5l0,1l-1,0c-1,1,-1,1,-1,1l1,0c1,0,1,0,1,0l1,0ZM365.5,63.5l-1,0c0,1,1,1,1,1c1,0,1,0,1,-1c0,0,-1,0,-1,0ZM365.5,70.5c0,1,0,1,-1,1c-1,0,-1,0,-2,0c-1,0,-1,0,-2,0l-1,0c0,-1,0,-1,0,-1c1,0,1,0,1,1l1,0l1,0c0,0,0,-1,0,-1c0,0,1,0,1,0c1,0,1,-1,2,-1c0,0,0,-1,0,-1c0,0,1,0,1,-1c0,-1,0,-1,0,-1c0,0,0,-1,0,-1l0,1l-1,0l-1,0c0,0,0,-1,0,-1c0,0,-1,0,-1,0l0,-1l0,-1c1,0,1,-1,1,-1c0,-1,0,-1,1,-1c1,0,1,0,1,0l1,1l0,1l0,1l0,1c0,1,0,1,0,1c0,1,0,2,-1,2c0,1,0,1,0,2c0,0,-1,0,-1,0ZM362.5,57.5l4,-2l0,1l-4,2ZM358.5,67.5l0,-1l0,-2l0,-8l1,-2l0,10c0,1,0,1,0,1l0,1c0,0,-1,0,-1,1ZM354.5,63.5c0,1,-1,1,-2,2c-1,0,-2,1,-4,1c-1,0,-2,1,-3,1l-1,0c0,0,-1,0,-1,0c0,-1,-1,-1,-1,-1c0,-1,0,-1,0,-1c0,1,-1,1,-1,1c-1,0,-1,0,-1,1l-1,0l-12,0l0,1c0,0,0,1,0,1l-1,0l0,-1c0,0,0,-1,0,-1l0,-1c-1,0,-1,0,-1,-1l0,1c-1,0,-1,0,-1,0c-1,1,-1,1,-1,1l-1,0l-1,0c0,0,-1,-1,-2,-1c0,0,-1,1,-1,1c-1,0,-1,0,-2,0l0,-1l-2,-1l-1,1c0,1,0,1,-1,1l-1,0l-2,0l0,1c0,0,0,1,0,1c-1,0,-1,1,-1,1c0,0,-1,1,-1,1c0,0,-1,0,-1,1l-1,0c-1,0,-1,0,-1,0c-1,0,-1,0,-2,0c0,0,-1,-1,-1,-1c0,0,1,0,1,0l1,0c0,0,1,0,1,0c0,0,1,0,1,-1c1,0,1,0,1,0c0,-1,1,-1,1,-1c0,0,0,-1,1,-1l0,-1c-1,0,-1,0,-1,0c-1,0,-1,-1,-1,-1l-1,0c0,-1,0,-1,0,-1c0,-1,0,-1,0,-1c1,0,1,0,1,-1c0,0,0,-1,1,-1c1,0,1,0,1,0l1,1c0,0,0,1,0,1c0,0,0,1,0,1c1,0,1,0,1,0c1,0,1,0,1,0l1,0c1,0,1,0,1,0l1,-1l0,-1c1,-1,2,-1,3,-1l1,1l0,1l1,0l1,1l1,0l1,0l1,0c1,0,1,0,1,0c0,-1,1,-1,1,-1l0,-1l1,0c0,1,0,1,0,2c0,0,1,0,1,0l1,-1l1,-1l2,-1c0,0,1,0,1,-1c1,0,1,0,1,0l1,0c1,0,1,0,2,0c0,0,1,1,1,1l0,1c0,0,0,1,0,1c0,0,-1,0,-1,1l1,0l2,0c1,0,1,0,1,0c1,0,1,0,1,-1c1,0,1,-1,1,-1l0,1c0,0,0,1,1,1c0,0,1,0,1,0l1,0l1,0c1,0,1,0,2,-1c-1,0,-1,0,-1,-1l0,-1c0,0,0,-1,0,-1l0,-1l1,0l0,-1c1,0,1,0,1,0c1,-1,1,-1,1,-1c0,0,1,0,1,0c0,0,0,1,1,1l1,0l0,1l-1,0l-1,0l-1,0c-1,0,-1,0,-1,0c-1,0,-1,1,-1,1l0,1l1,0c0,1,1,1,1,2c1,0,1,0,1,0c0,-1,0,-1,0,-1l1,0l1,0l1,-1l1,0ZM349.5,51.5l1,0c0,0,1,0,1,0c1,0,1,0,2,0l0,1c0,0,0,1,-1,1c0,1,0,1,-1,1c0,0,-1,0,-1,0c-1,0,-1,0,-1,0l2,-1c0,0,1,0,1,-1l-1,0c-1,0,-1,0,-2,0l0,1l0,-1l0,-1ZM343.5,61.5l-2,-1l-1,1l-1,-1l1,-1l1,1l1,-2l2,1ZM340.5,54.5l4,-2l0,1l-5,2ZM336.5,64.5c0,0,-1,-1,-1,-1c0,0,-1,0,-1,0l-1,0c0,0,-1,0,-1,0c-1,0,-1,0,-2,1l-2,1l1,0l1,0l1,0c1,0,1,0,1,0l1,0l1,0c0,0,0,-1,1,-1l1,0ZM328.5,54.5l4,-2l-1,1l-4,2ZM318.5,65.5l-1,-1c0,0,0,-1,0,-1l-1,0l-1,1c0,0,1,0,1,1l1,0ZM316.5,51.5c0,0,0,-1,0,-1c1,0,1,0,1,0c1,0,1,0,1,1l0,1l-1,0l1,1l0,1l-1,-1l0,1l-1,0c0,1,-1,1,-1,1l-1,0l1,-1l1,0l0,-1c0,-1,-1,-1,-1,-1c0,-1,1,-1,1,-1ZM317.5,51.5l-1,0l0,1l1,0l0,-1ZM307.5,64.5c0,0,-1,0,-1,0l0,1c1,0,1,0,1,0l1,0c0,-1,0,-1,0,-1c-1,0,-1,0,-1,0ZM300.5,67.5l0,-1l0,-2l-1,-8l1,-2l1,10c0,1,0,1,-1,1l0,1l0,1ZM399.5,70.5l-2,-1l1,-1l2,1ZM396.5,67.5l-1,0l-1,0c-1,0,-1,-1,-2,-1c0,0,-1,-1,-1,-2l0,-8l1,-2l0,9l0,1l1,0c0,1,0,1,1,1l1,0l1,0c1,0,1,0,2,0c0,0,1,0,1,-1c0,0,0,-1,0,-1l-1,0l0,-1l1,-2c0,1,0,1,0,1l0,1l1,0l0,1l0,1l0,1l-1,0l0,1c0,0,-1,0,-1,0c-1,1,-1,1,-2,1ZM398.5,73.5l-4,2c0,-1,1,-1,1,-1l3,-2ZM387.5,66.5c0,0,-1,0,-1,0c0,0,-1,0,-1,0c0,-1,-1,-1,-1,-2c0,1,0,1,-1,2c0,0,-1,1,-1,1c-1,0,-1,-1,-2,-1c0,0,-1,-1,-1,-2c0,1,0,1,-1,1c0,0,-1,0,-1,0c-1,0,-1,0,-2,0l0,-1l0,-1c0,0,1,0,1,-1c1,0,1,0,2,-1l1,0l0,-1l0,-1l1,-1l0,2l0,1l0,2c0,0,0,1,0,1l1,0c0,1,0,1,1,1c0,0,1,0,1,-1c0,0,1,0,1,-1c0,0,0,-1,-1,-2c0,-1,0,-1,0,-2c0,0,0,-1,0,-1l0,-1l1,-1l0,3l0,2l1,1l0,1c0,1,1,1,1,1l1,0c1,0,1,0,1,-1l0,-1l-1,-1l0,-1l0,-1l0,-1l0,-1l0,1c1,0,1,1,1,1l0,2c0,1,0,1,0,2c0,1,0,1,0,2l-1,1ZM379.5,62.5c-1,0,-1,0,-1,0l-1,1l-1,1c1,0,2,-1,2,-1c1,0,1,0,1,0ZM383.5,48.5c0,-1,0,-1,0,-2c0,-1,-1,-1,-1,-2l1,0l0,1l0,1l0,1c0,1,0,1,0,1ZM382.5,50.5l0,1c0,1,0,1,0,1l1,-1l0,-1l1,-1l0,1c0,0,0,1,0,1c1,0,1,0,1,-1l0,-1l1,0l0,1l0,1l-1,0c0,1,0,1,0,1l-1,0l-1,0c0,1,-1,1,-1,1c0,0,-1,0,-1,0c0,0,0,-1,0,-1c0,0,0,-1,0,-1l0,-1ZM282.5,113.5l0,-1l0,-1l-1,-9l1,-2l1,11l-1,1c0,0,0,1,0,1Z" class="g1_36" />
<path fill-rule="evenodd" d="M296.5,512.5l0,-1c1,0,1,0,1,0c1,0,1,0,1,0c0,0,0,1,0,1l0,1c0,0,0,1,0,1l0,1l-1,0l-1,1c0,0,-1,0,-1,0l-1,1c0,0,0,-1,0,-1l1,0c0,-1,0,-1,1,-1l0,-1c0,0,0,-1,0,-1c0,0,0,-1,0,-1ZM207.5,515.5c0,0,1,0,1,0c1,-1,1,-1,2,-1c0,0,1,0,1,1c0,0,1,0,1,0c0,0,-1,0,-1,0c0,1,0,1,0,1c0,1,-1,1,-1,1l-1,0l-1,0l-1,0l2,0c1,0,1,-1,2,-1c-1,0,-1,0,-1,0c0,0,-1,0,-1,0c0,0,-1,0,-1,0c0,0,-1,0,-1,0c0,0,0,-1,0,-1ZM149.5,525.5c0,1,0,2,0,3c0,0,-1,0,-1,0l0,1l-1,0l2,1l-1,0l0,1l-1,0l0,1l-1,0c0,0,-1,1,-1,1l-1,0l-1,0l-1,1l-1,0l0,1l-1,1l-3,0l-3,0c0,0,-1,0,-1,-1l-1,-1c-1,-1,-2,-1,-3,-1l-1,-1l-1,0l0,-1l-1,0l0,-1l-1,0l1,-1l-1,-1l0,-1c0,-1,0,-1,0,-1l0,-1l0,-1c0,0,0,-1,0,-1c1,-1,1,-1,1,-1l0,-1l-1,0l1,-1l1,0l0,-1l1,0l0,-1l1,0l1,0l2,-1l1,-1c0,-1,1,-1,1,-1l3,0l3,0l1,1l0,1l1,0l2,1l1,0c0,0,1,0,1,1l1,0l0,1c1,0,1,0,2,1l-2,0l1,1l0,1l1,0l0,1l0,1ZM140.5,536.5l0,-1l1,-1l1,-1c1,0,1,0,1,0l1,0c1,-1,1,-1,2,-1l0,-1c1,0,1,0,1,0l1,-1l-1,0l0,-1l1,0l0,-1l0,-1l1,0l0,-1l0,-1c0,0,-1,-1,-1,-2l0,-1l-1,0l0,-1l1,0c0,-1,-1,-1,-1,-1l-1,-1l-1,0l0,-1l-1,0l-2,-1l-1,0l0,-1l-1,0l0,-1l-1,0l-2,0l-1,0l-2,0l-1,1l-1,1l-2,1l-1,0l0,1l-1,0l-1,0l0,1c0,0,-1,0,-1,1l1,0l-1,1l0,1l-1,0l0,1l0,1l0,1l0,1l0,1l1,0l0,1l1,0l0,1l-1,0l0,1l1,0l1,1l1,1l1,0l2,0c0,1,0,1,1,1l0,1c1,0,1,1,1,1l3,0ZM146.5,521.5l-1,0l-1,-1l-1,0l-1,-1l1,0l1,0c1,1,1,1,1,1ZM146.5,530.5l-1,1l-1,1l-1,0l-1,0l0,-1c1,0,1,0,1,0l1,0c0,0,1,-1,1,-1ZM141.5,532.5c0,1,0,1,0,1c0,1,-1,1,-1,1l-3,0l-3,0c0,0,-1,0,-1,-1l0,-1c0,-1,0,-1,1,-1l3,0l3,0l1,0l0,1ZM141.5,518.5c0,1,0,1,0,1c0,0,-1,1,-1,1l-3,0l-3,0c-1,0,-1,0,-1,-1l0,-1l0,-1l1,0l3,0l3,0c0,0,1,0,1,1ZM140.5,521.5l1,0l1,0l1,0l1,1l1,0c0,0,1,0,1,0l0,1l0,1l1,0l0,1l0,1c0,1,-1,1,-1,1l0,1l0,1l-1,0l-1,0l-1,1l-1,0l-1,0c-1,0,-1,0,-1,0l-3,0l-3,0l-1,0l-1,0c0,0,-1,0,-1,0c0,0,-1,0,-1,-1l-2,0l-1,-2l0,-1l0,-1c0,-1,0,-1,0,-1l1,-1l0,-1l2,0l1,-1c0,0,1,0,1,0c1,0,1,0,1,0l1,0l3,0ZM140.5,529.5l0,1l1,0l1,0c1,0,1,0,1,0l0,-1l1,0c0,0,0,-1,0,-1l1,1l1,-1l0,-1l0,-1l0,-1c0,0,0,-1,0,-1c0,-1,0,-1,0,-1c-1,-1,-1,-1,-1,-1l-1,0l-1,0l0,-1l-1,0c-1,0,-1,0,-1,0l-1,0l-3,0l-3,0l-1,0l-1,0c-1,0,-1,0,-1,0l-1,1l-1,0c-1,0,-1,0,-1,1l0,1l-1,1l0,1l1,1c0,1,0,1,1,2l1,-1c0,0,0,1,0,1l1,0l0,1l1,0c1,0,1,0,1,0c0,0,1,0,1,0l0,-1l3,0l3,0ZM139.5,525.5l1,1l0,1c0,0,-1,0,-1,1l-1,0l-1,0c0,-1,0,-1,0,-1l0,-1l1,0l0,-1l1,0ZM138.5,526.5l-1,1c0,0,1,0,1,0l1,0c0,0,0,-1,0,-1l-1,0ZM135.5,524.5c0,0,0,1,0,1l0,1l0,1l1,0l1,0c0,0,-1,0,-1,1l-1,0c-1,0,-1,0,-1,-1l1,-1l-1,0l0,-1l1,-1ZM128.5,521.5l0,-1l1,0l1,-1l1,0l1,0l-1,0c0,0,1,0,1,0c-1,0,-1,0,-1,1l-1,0l-1,0l0,1l-1,0ZM128.5,530.5l1,0c0,0,0,1,1,1l1,0l1,0c-1,1,-1,1,-1,1l1,0l-1,0c-1,0,-2,0,-2,-1l-1,0l0,-1ZM185.5,528.5l0,-1l0,-1l-1,-9l1,-2l1,11c0,0,0,1,0,1c-1,0,-1,1,-1,1ZM178.5,529.5c-1,-1,-1,-1,-1,-1c0,0,0,-1,-1,-1c0,0,0,-1,0,-1c0,1,-1,1,-1,1c0,0,-1,1,-2,1c0,0,-1,0,-1,0c0,0,-1,0,-1,0c-1,0,-1,-1,-2,-1c0,-1,0,-1,0,-1l1,-1c1,1,1,1,1,1c0,0,1,0,1,0c1,0,1,0,1,0c0,0,1,0,1,0c1,0,1,0,1,-1c0,0,1,0,1,0c0,0,0,-1,0,-2c0,0,-1,-1,-1,-1c0,-1,0,-1,0,-1c0,-1,0,-1,0,-1c1,-1,1,-1,1,-1l0,1c0,0,0,1,0,2c1,0,1,1,1,2c0,0,0,1,0,1c0,1,0,1,0,1l0,-1c0,0,0,1,0,1c1,1,1,1,1,1c0,0,1,1,1,1c0,0,1,0,1,0c0,-1,0,-1,0,-1c0,0,0,-1,0,-2c0,-1,0,-1,0,-2c0,-1,0,-1,0,-1c0,-1,0,-2,0,-3c0,-1,0,-2,0,-2c0,0,0,-1,0,-1c-1,0,-1,0,-1,0c0,0,1,-1,1,-1c0,0,0,-1,0,-1c0,1,0,1,0,1c0,0,1,0,1,0c0,0,0,1,1,1l-1,1l0,1l0,-1c0,0,0,1,0,1c0,0,0,1,0,2l0,2c0,1,0,1,0,1c0,1,0,1,0,2c0,1,0,2,0,2l0,1l0,1c0,0,-1,0,-1,0c0,1,0,1,0,1c-1,0,-1,-1,-2,-1ZM172.5,514.5l0,1c0,0,1,0,1,0l0,-1l1,0l0,1c1,0,1,-1,1,-1l0,-1l0,1l0,1c0,0,0,1,0,1l-1,0l-1,0c0,0,0,1,-1,1c0,0,0,-1,0,-1l0,-1l0,-1ZM174.5,509.5c0,0,0,-1,0,-1c0,0,1,0,1,0c1,0,1,0,1,1l0,1l-1,0l0,1l1,0l-1,1l-1,1c0,0,-1,0,-1,0c-1,0,-1,0,-1,0c0,0,-1,0,-1,0c1,0,2,-1,3,-2c-1,0,-1,-1,-1,-1ZM175.5,509.5l-1,0c0,0,0,1,0,1l1,0ZM165.5,532.5l-1,-1l1,-2l1,1ZM163.5,526.5c0,0,1,0,1,0c1,0,1,0,2,0c0,0,0,-1,0,-1l-1,-1l0,-1l1,-1l0,1l0,1l0,1c0,0,0,1,0,1c0,0,0,1,0,1c-1,0,-1,1,-2,1c0,0,-1,0,-1,0l-1,0l-1,0c0,0,0,1,0,1c0,1,0,1,-1,2c0,0,0,1,0,1c0,0,-1,0,-1,1c0,0,-1,0,-1,0l-1,1l-1,0c-1,0,-1,-1,-2,-1l-1,0c0,0,0,-1,0,-1c1,1,1,1,1,1l1,0c0,0,1,0,1,-1c1,0,1,0,2,0c0,0,0,-1,0,-1c1,0,1,0,1,-1l1,0c0,-1,0,-1,0,-2c0,0,1,0,1,0l-1,-1l0,-1c0,-1,0,-1,0,-1c0,0,0,1,1,1l1,0ZM163.5,512.5c0,0,1,0,1,-1l1,0c0,0,1,1,1,1l-1,1c0,0,0,1,0,1l1,0l0,1l-2,0l0,1c-1,0,-1,0,-1,0l-1,0l0,1l-1,0c0,0,0,-1,0,-1l1,0l1,0c0,-1,0,-1,0,-1l1,-1l-1,0c0,0,0,-1,0,-1c0,0,0,-1,0,-1ZM164.5,512.5c0,0,0,1,0,1l1,0ZM157.5,515.5l4,-2l-1,0l0,1l-4,2ZM237.5,524.5c-1,0,-1,0,-1,0l0,1l1,0c0,-1,0,-1,0,-1ZM237.5,532.5c-1,0,-1,0,-1,0l-1,0c0,1,-1,1,-1,1l-1,0c0,0,-1,0,-1,-1c-1,0,-1,0,-1,0l1,0c1,0,1,0,1,0c0,0,1,0,1,0l0,-1c1,0,1,0,1,0c1,0,1,0,1,-1c1,0,1,0,1,-1l1,-1c0,0,0,-1,0,-1c0,0,0,-1,0,-1l0,1c0,0,-1,0,-1,0c-1,0,-1,0,-1,0c0,0,-1,0,-1,0c0,-1,0,-1,0,-1c0,-1,0,-1,0,-1c0,0,0,-1,0,-1c0,0,0,-1,1,-1c0,0,0,-1,0,-1c1,0,1,0,1,0c0,0,1,0,1,0c0,0,0,1,0,1c0,0,1,0,1,1l0,1c0,0,0,1,0,1c0,0,0,1,0,1c0,1,0,2,-1,3l-1,1l0,1ZM234.5,518.5l4,-2l0,1l-5,2ZM231.5,531.5l-2,-1l0,1l-2,0l1,-2l2,1l0,-1l2,1ZM228.5,528.5l-1,0l-1,0c0,0,0,1,0,1c-1,0,-1,1,-1,1c0,1,0,1,-1,1c0,1,0,1,-1,1c0,1,0,1,0,1c0,0,-1,0,-1,0l-1,0l-1,0c0,0,-1,0,-1,0c-1,0,-1,0,-1,0c0,-1,0,-1,0,-1l1,0l0,1c1,0,1,-1,2,-1l1,0c0,-1,0,-1,1,-1c0,0,0,-1,1,-1l0,-1l1,0c0,0,0,-1,0,-1l-1,0c0,0,-1,0,-1,0c-1,-1,-1,-1,-1,-1c0,-1,0,-1,0,-1l0,-1c0,0,0,-1,1,-1c0,-1,0,-1,1,-1l1,0c0,0,0,1,0,1l0,1c1,0,1,0,1,0c0,1,0,1,0,1c0,0,1,0,1,0l1,0c0,0,1,0,2,0l1,0c0,-1,0,-1,0,-1l-1,-1l0,-1l1,-1l0,1c0,0,0,1,0,1c0,0,0,1,0,1c0,0,0,1,0,1c0,0,0,1,0,1c0,0,-1,1,-2,1l-1,0ZM230.5,512.5c0,0,1,0,1,-1l1,0c0,0,0,1,0,1l0,1c0,0,0,1,0,1l1,0l-1,1l-1,0l-1,1l-1,0l0,1l-1,0c0,0,0,-1,0,-1l1,0c0,-1,1,-1,1,-1l1,-1l-1,0c0,0,0,-1,0,-1c0,0,0,-1,0,-1ZM231.5,512.5c0,0,0,1,0,1ZM224.5,525.5c0,0,-1,0,-1,0c0,0,0,1,0,1l1,0l1,0c0,0,-1,-1,-1,-1ZM220.5,518.5l4,-2l0,1l-4,2ZM213.5,526.5c1,0,1,0,1,0c1,0,1,0,1,0c0,0,1,0,1,0c0,0,0,-1,0,-1l0,-2l-1,-6c0,0,0,-1,0,-1c0,0,0,-1,0,-1c1,0,1,-1,1,-1l0,1c1,0,1,1,1,1l0,1l0,1l0,-1c0,0,0,1,0,1c0,0,0,1,0,2l0,2c0,1,0,1,0,1l0,1c0,1,0,1,0,1c0,0,0,1,0,1c-1,1,-1,1,-1,1l-1,1l-1,0l-1,0l-1,0c0,0,0,1,0,1c-1,0,-1,1,-1,1c0,1,0,1,-1,1c0,1,0,1,-1,1c0,1,0,1,0,1c-1,0,-1,0,-1,0l-1,0l-1,0c0,0,-1,0,-2,0c0,-1,0,-1,0,-1l1,0l0,1c1,0,1,-1,2,-1l1,0c0,-1,0,-1,1,-1c0,0,0,-1,0,-1c1,0,1,0,1,-1l1,0c0,0,0,-1,0,-1c0,0,-1,0,-1,0c0,0,-1,0,-1,0c-1,-1,-1,-1,-1,-1c0,-1,0,-1,0,-1l0,-1c0,0,0,-1,0,-1c1,0,1,0,1,0c0,-1,0,-1,0,-1c1,0,1,0,1,0l1,0c0,0,0,1,0,1l0,1c1,0,1,0,1,0c0,1,0,1,0,1c0,0,1,0,1,0ZM215.5,510.5l0,1l1,0l0,-1l0,-1l1,0l0,1c1,0,1,0,1,0l0,-1l0,1l0,1l-1,0l0,1c0,-1,0,-1,0,-1l-1,1l-1,0l0,-1l0,-1ZM216.5,505.5c1,0,1,-1,1,-1c0,0,1,0,1,0c0,0,1,0,1,1l-1,1l0,2l0,-1l-1,1c-1,1,-1,1,-1,1c-1,0,-1,0,-1,0c-1,0,-1,0,-1,0c1,0,2,-1,3,-2l-1,0c0,-1,0,-1,0,-1l0,-1ZM218.5,505.5l-1,0l0,1l1,0l0,-1ZM210.5,525.5c0,0,-1,0,-1,0c0,0,0,1,0,1l1,0l1,0c-1,0,-1,-1,-1,-1ZM198.5,522.5l-1,-1l1,-2l1,1ZM198.5,531.5c0,0,-1,0,-1,0c-1,0,-1,0,-2,-1c0,0,-1,0,-1,-1c0,0,0,-1,0,-2l0,-1c0,0,0,-1,0,-1c1,-1,1,-1,1,-1l0,-1l1,1c-1,0,-1,0,-1,1c0,0,0,1,0,1c0,0,0,1,0,1l0,1l1,0c0,1,0,1,0,1c0,0,1,0,1,0c0,0,1,0,2,0c0,0,1,0,2,0c0,0,1,-1,1,-1c0,0,1,-1,1,-1c0,-1,0,-1,0,-1c0,-1,0,-1,0,-1c0,0,-1,-1,-1,-1l0,-1l-1,-1l1,-2c0,0,0,1,1,1c0,1,0,1,0,1c0,0,0,1,0,1l1,1l0,1c0,0,0,1,0,1c0,1,0,1,-1,2c0,1,0,1,-1,2c0,0,-1,0,-2,1c0,0,-1,0,-2,0ZM194.5,515.5l5,-2l-1,0l0,1l-4,2ZM284.5,528.5l0,-1l0,-1l-1,-9l1,-2l1,11c0,0,-1,1,-1,1c0,0,0,1,0,1ZM275.5,517.5l0,2c0,1,0,1,0,2l0,1c-1,0,-1,0,-1,0l2,1c1,1,1,1,2,1c0,0,1,0,1,0c0,0,1,0,1,0l1,0l0,2l-2,0l-1,0l-1,0l-1,0c-1,0,-1,0,-1,0l-3,1c0,1,0,1,-1,1l-1,0l-1,0l-2,0c0,0,-1,0,-1,-1l-1,0c0,1,0,1,-1,1c0,0,-1,0,-1,0l-1,0l-2,-1l-1,0c0,1,0,1,0,1l-1,0l-1,0l-1,0c0,0,-1,0,-1,0c-1,0,-1,0,-1,-1c-1,0,-1,0,-1,0c0,-1,-1,-1,-1,-1c-1,0,-2,0,-2,1l-1,0l0,1c-1,0,-1,1,-1,2c-1,0,-1,1,-1,1c0,0,0,1,0,1c0,0,0,1,0,1c1,1,1,1,2,2l1,1l1,0l1,0c1,0,1,0,1,0c1,0,1,1,1,1c0,0,1,0,1,0c1,0,1,0,2,-1l1,0l1,0l-3,2c-1,0,-2,0,-2,0c-1,0,-1,0,-2,0c0,0,-1,0,-1,0c-1,0,-2,0,-2,-1c0,0,-1,0,-1,-1c-1,0,-1,-1,-1,-1c-1,-1,-1,-1,-1,-1c0,-1,0,-1,0,-1l0,-1c0,-1,0,-1,1,-2c0,-1,0,-1,0,-1l0,-1c1,0,1,0,1,-1c0,0,1,-1,1,-1l1,-1l1,0c0,0,-1,-1,-1,-1l-1,0l1,-2l1,0l0,-1l1,0l1,1c0,0,1,0,1,0l0,1c0,0,0,1,0,1c0,0,-1,1,-1,1l0,1c1,0,1,0,1,0l1,0c0,0,1,0,1,0l1,0l1,0l1,0l1,0c0,0,0,-1,0,-1c2,-2,2,-2,3,-2l1,1l1,1l1,1l1,0l1,0l1,0l1,0l1,0l1,0l1,0l2,-1l-1,0l0,-1l-1,0l-1,0l-1,0l-1,0c0,0,0,-1,0,-1c1,0,1,0,1,0c0,0,0,-1,0,-1c1,0,1,0,1,0c0,0,1,0,1,0c0,-1,0,-1,0,-1c1,0,1,0,1,-1c0,0,0,-1,0,-1c0,-1,0,-1,0,-2c0,-1,0,-1,0,-1l0,-1l0,-1l0,-1c0,1,0,1,0,1l1,1l1,0c0,0,-1,1,-1,1c0,0,0,1,0,1ZM273.5,510.5c1,0,1,0,1,0c1,-1,1,-1,2,-1c0,0,1,1,1,1c0,0,1,0,1,0l0,1c-1,0,-1,0,-1,0c0,1,0,1,-1,1l-1,0l-1,0l1,0c1,0,1,-1,2,-1c0,0,-1,0,-1,0c0,0,-1,0,-1,0c0,0,-1,0,-1,0l-1,0l0,-1ZM273.5,532.5l-1,-1l1,-2l1,1ZM267.5,518.5l4,-2l-1,1l-4,2ZM264.5,526.5l0,-1c-1,0,-1,0,-1,-1l-1,0l0,1l-1,0c1,0,1,1,2,1ZM261.5,513.5c0,-1,0,-1,1,-1c0,0,1,0,1,0c1,0,1,0,2,0c0,0,0,1,0,1c0,1,0,1,-1,1c0,0,0,1,0,1l-1,0c0,0,-1,0,-1,0c-1,0,-1,0,-1,0l2,-1c0,0,1,0,1,0c0,-1,0,-1,0,-1c-1,0,-1,0,-1,0c-1,0,-1,0,-2,0c0,1,0,1,0,1c0,-1,0,-1,0,-1ZM251.5,512.5c0,0,1,0,1,-1l1,0c0,0,0,1,0,1l0,1c0,0,0,1,0,1l1,0l-1,1l-1,0l-1,1l-1,0l0,1l-1,0c0,0,0,-1,0,-1l1,0c0,-1,1,-1,1,-1l1,-1l-1,0c0,0,0,-1,0,-1c0,0,0,-1,0,-1ZM252.5,512.5c0,0,0,1,0,1l1,0l-1,0ZM321.5,526.5l0,1l-1,0c0,0,0,1,-1,1l-1,0l-1,0c-1,0,-1,0,-1,0c0,0,-1,0,-1,0c0,-1,0,-1,0,-1c-1,0,-1,0,-1,0l-1,0c0,1,0,1,0,1l-1,0c0,0,0,1,0,1l0,1c0,0,0,1,0,1l1,1l-1,1c0,0,-1,1,-1,1c0,0,0,-1,0,-1l-1,-1c0,-1,0,-2,0,-2c0,-1,0,-2,0,-2c0,0,-1,0,-1,0l-1,0l-1,0c0,0,0,1,0,1c0,1,-1,1,-1,2c0,0,0,1,0,1c-1,0,-1,0,-1,1c-1,0,-1,0,-1,0c0,0,-1,0,-1,1c0,0,-1,0,-1,0l-1,0c0,0,0,-1,-1,-1c0,0,-1,0,-1,0c0,0,0,-1,0,-1c0,1,1,1,1,1l1,0c0,0,1,0,1,-1c0,0,1,0,1,0c1,0,1,-1,1,-1c0,0,1,0,1,-1c1,-1,1,-1,1,-2l0,-1c-1,0,-1,0,-1,-1l1,0c0,-1,0,-1,0,-1c0,0,0,1,0,1l1,0l1,0l1,0c0,0,1,0,2,0l1,0c0,0,0,-1,0,-1l0,1l0,1c-1,0,-1,1,-1,2c0,1,0,2,0,2c0,0,0,-1,0,-1c0,0,0,-1,0,-1l0,-1l1,0c0,-1,0,-1,0,-1c1,-1,1,-1,1,-1c1,0,1,0,1,-1l1,0l0,1l1,0l1,0l1,0c1,0,1,0,2,0l1,0c0,-1,0,-1,0,-2l1,0l0,1l0,1l1,0c0,0,1,0,1,0c1,0,1,0,1,0c0,-1,0,-1,0,-1l0,-1l1,0l0,1c0,0,0,1,0,1l1,0l1,0l0,-1l0,-1l1,0l0,1l0,1l0,1c-1,0,-1,0,-1,1l-1,0c-1,0,-1,0,-1,-1l-1,0c-1,1,-1,1,-1,1l-1,0c-1,0,-1,0,-1,0c-1,0,-1,-1,-1,-1l0,-1ZM321.5,515.5l5,-2l-1,0l0,1l-4,2ZM317.5,531.5l-2,-1l0,2l-2,-1l1,-2l1,1l1,-1l2,1ZM317.5,512.5l0,-1c1,0,1,0,1,0c1,0,1,0,1,0c0,0,0,1,0,1l0,1c0,0,0,1,0,1l0,1l-1,0l-1,1c0,0,-1,0,-1,0l-1,1c0,0,0,-1,0,-1l1,0c0,-1,0,-1,1,-1l0,-1c0,0,0,-1,0,-1c0,0,0,-1,0,-1ZM318.5,512.5c-1,0,-1,0,-1,0c0,0,0,1,0,1l1,0ZM308.5,517.5c0,0,1,0,1,0c1,0,1,0,1,0c1,0,1,0,2,0c0,0,0,1,0,1l0,1c0,0,-1,0,-1,0l-1,0c0,0,0,1,-1,1c0,0,0,-1,-1,-1l2,0c1,0,1,-1,2,-1c-1,0,-1,0,-1,0c0,0,-1,0,-1,0c0,0,-1,0,-1,0c0,0,-1,0,-1,0c0,-1,0,-1,0,-1ZM306.5,523.5l-2,-1l1,-2l2,2ZM302.5,515.5l4,-2l0,1l-4,2ZM299.5,525.5l-1,0c-1,0,-1,0,-1,0c-2,1,-2,1,-3,2l0,1c0,0,0,1,0,2c1,1,1,3,1,4c1,1,1,2,1,2c0,0,-1,1,-1,1c0,-1,0,-1,0,-3c-1,-2,-1,-3,-1,-4c0,-1,0,-1,0,-1l0,-1c0,-1,0,-2,0,-2c0,-1,0,-1,1,-1c0,-1,0,-1,1,-1c0,0,1,0,1,0c1,0,1,0,1,0c0,0,-1,-1,-1,-1l-1,0c0,0,-1,0,-1,1c0,-1,0,-1,0,-2l1,0l0,-1c0,0,1,0,1,0c0,0,1,0,1,0c0,1,1,1,1,1c0,1,0,1,1,1c0,1,0,1,0,1c0,0,0,1,0,1ZM297.5,512.5c-1,0,-1,0,-1,0c0,0,0,1,0,1l1,0Z" class="g1_36" />
</svg>