<?xml version="1.0" encoding="UTF-8" standalone="no"?>
<!DOCTYPE svg PUBLIC "-//W3C//DTD SVG 1.1//EN"
"http://www.w3.org/Graphics/SVG/1.1/DTD/svg11.dtd">
<svg version="1.1" xmlns="http://www.w3.org/2000/svg" xmlns:xlink="http://www.w3.org/1999/xlink">
<defs>
<style type="text/css"><![CDATA[
.g1_24{
stroke: #1F1A17;
stroke-width: 1;
stroke-linecap: butt;
stroke-linejoin: miter;
}
]]></style>
</defs>
<path fill-rule="evenodd" d="M193.5,328.5l0,1c0,0,1,0,1,0l0,-1l1,0l0,1c1,0,1,-1,1,-1l0,-1l0,1l0,1c0,0,0,1,0,1l-1,0l0,-1l0,1l-1,0c-1,0,-1,0,-1,0l0,-1l0,-1ZM185.5,331.5l4,-3l0,1l0,1l-4,2ZM354.5,345.5l5,-2l-1,1l-4,2ZM333.5,327.5c0,0,1,-1,1,-1c0,0,1,0,1,0c1,0,1,0,2,0c0,1,0,1,0,1c0,1,0,1,0,1c-1,0,-1,1,-1,1c0,0,-1,0,-1,0l-1,0c0,0,-1,0,-1,0l2,0c1,-1,1,-1,1,-1c0,0,0,-1,0,-1c-1,0,-1,0,-1,0c-1,0,-1,0,-1,1c-1,0,-1,0,-1,0c0,-1,0,-1,0,-1ZM149.5,325.5l1,0c0,0,1,0,1,0c1,0,1,0,1,0c1,0,1,0,1,1c0,0,0,1,-1,1c0,0,0,1,-1,1c0,0,-1,0,-1,0l-1,0l2,-1c0,0,1,0,1,-1l-1,0c-1,0,-1,0,-2,0l0,-1ZM75.5,339.5c0,1,0,2,0,2c0,1,-1,1,-1,1l0,1l-1,0l2,1l-1,0l0,1l-1,0l0,1l-1,0c0,0,-1,0,-1,1l-1,0l-1,0l-1,1l-1,1l-1,1l-2,0l0,-1l2,0l1,-1l1,-1c1,0,1,0,2,0l1,-1l1,0l0,-1l1,0l1,-1l-1,-1l1,0l0,-1l0,-1l1,0l0,-1l0,-1c0,-1,0,-1,-1,-2l0,-1l-1,-1l1,0c0,-1,-1,-1,-1,-1l0,-1l-1,0l-1,-1l-1,0l-2,-1l-1,0l0,-1l-1,0l0,-1l-2,0l2,0l1,0l0,1l1,1l2,1l1,0c0,0,1,0,1,0l0,1l1,0c1,1,1,1,2,2l-2,0l1,1l0,1l1,0l0,1ZM72.5,334.5l0,1l-1,0l-1,-1l-1,0l0,-1c-1,0,-1,0,-1,0l0,-1l1,0l0,1l1,0l1,0c0,0,0,1,0,1ZM72.5,344.5l-1,0l0,1l-1,0l0,1l-1,0l-1,0c0,0,0,-1,0,-1c1,0,1,0,1,0l1,0c0,0,1,-1,1,-1ZM67.5,346.5c0,1,0,1,0,1c0,0,-1,0,-1,1l-2,0l0,-3l2,0l1,0l0,1ZM67.5,332.5c0,1,0,1,0,1l-1,1l-2,0l0,-3l2,0c0,0,1,0,1,0c0,1,0,1,0,1ZM66.5,335.5l1,0c0,-1,0,-1,1,-1l1,1l1,1l1,0c0,0,1,0,1,0l0,1l0,1l1,0l0,1l0,1c0,0,0,1,-1,1l0,1c0,1,0,1,-1,1l-1,0l-1,0c0,1,0,1,0,1l-1,0l-1,0c0,0,-1,0,-1,0l0,-1l-2,0l2,0l0,1l1,0l1,0l1,0l0,-1l1,0c0,-1,0,-1,0,-1l1,1l1,-1l0,-1l0,-1l0,-1c0,0,0,-1,0,-1c0,-1,0,-1,0,-2c0,0,-1,0,-1,0l-1,0l-1,-1l-1,0c-1,0,-1,0,-1,0l-1,0l-2,0ZM65.5,338.5l1,1l0,1l0,1c0,1,0,1,-1,1l0,-1c0,-1,0,-2,0,-3ZM63.5,338.5l1,1l0,1l0,1c0,1,0,1,0,1c0,0,-1,0,-1,0l0,-1l1,0c0,-1,-1,-2,-1,-3ZM64.5,329.5l-1,0l-2,0l-1,0l-1,0l0,1l-1,1l-1,0l-1,1l-1,0l-1,0l0,1l-1,0l0,1c-1,0,-1,0,-2,1l1,0l0,1l-1,1l0,1c0,1,0,1,0,1l0,1l0,1l0,1c1,0,1,0,1,0l0,1l1,0l-1,0l-1,1l1,0l1,1l1,1l1,0l1,1l1,0c1,0,1,1,1,1l1,0l0,1c0,0,1,0,1,0l3,0l1,0l0,1l-1,0l-3,0l-1,0c0,0,0,-1,0,-1l-1,-1l-1,0c-1,-1,-2,-1,-2,-1l-1,0l0,-1l-1,0l0,-1l-1,0l-1,-1l1,-1l-1,-1l0,-1c0,-1,0,-1,0,-1l0,-1l0,-1c0,0,0,-1,0,-2l1,0l0,-1l-1,0c0,0,0,-1,1,-1l0,-1l1,0l1,-1l2,0l1,-1l1,0l0,-1l1,-1l1,0l3,0l1,0ZM64.5,334.5l-1,0l-3,0l-1,0c0,0,0,-1,0,-1l-1,0l0,-1l1,-1l1,0l3,0l1,0ZM64.5,335.5l-1,0l-4,0l-1,0c0,0,-1,0,-1,0l-1,0l0,1c0,0,-1,0,-1,0l-1,0l0,1l-1,1l0,1l0,1l0,1l1,0c0,1,0,1,0,2l1,-1c0,0,1,0,1,1l1,0l0,1l1,0c0,0,1,0,1,0l0,-1l1,0l3,0l1,0l-1,0l-3,0l-1,1l-1,0c-1,0,-1,0,-1,0c-1,0,-1,-1,-1,-1l-1,0l-1,0l0,-1l-1,-1l0,-1l0,-1l0,-1l0,-1l1,-1l1,0c0,0,1,0,1,0l0,-1l1,0c0,-1,0,-1,1,-1c0,0,1,0,1,1l1,0l3,0l1,0ZM64.5,348.5l-1,0l-3,0l-1,0c0,-1,0,-1,0,-1l-1,0c0,0,0,-1,0,-1l1,-1l1,0l3,0l1,0ZM62.5,338.5c0,1,0,1,-1,1l0,1c0,1,0,1,0,1c0,1,0,1,0,1l0,-1c0,-1,0,-1,0,-1l-1,0c0,0,0,-1,0,-1l0,-1c0,0,1,0,1,0c1,0,1,0,1,0ZM54.5,334.5l1,0l0,-1l1,0l1,-1l0,1l-1,0l0,1l-1,0l0,1l-1,0ZM54.5,344.5l1,0l1,1l1,0c0,0,0,1,0,1l-1,0c0,0,-1,-1,-1,-1l-1,0l0,-1ZM129.5,342.5l0,-1l0,-1l-1,-9l1,-2l1,10c0,1,0,1,0,1l-1,1c0,0,0,1,0,1ZM121.5,340.5c0,0,1,0,1,0c0,0,1,0,1,0c1,-1,1,-1,1,-1l0,-2l-1,-7c0,-1,0,-1,0,-1c0,-1,1,-1,1,-1c0,0,0,1,0,1c0,0,1,1,1,1l0,1l-1,0c0,1,0,1,0,2c0,0,0,1,1,3c0,0,0,1,0,1l0,1c0,1,0,1,0,1c0,0,-1,0,-1,1c0,0,0,1,0,1c-1,0,-1,0,-1,0c0,1,0,1,-1,1l-1,0c-1,0,-1,0,-2,0c0,0,0,-1,-1,-1l-1,-1l0,1l-1,0c0,0,-1,0,-1,0c0,0,0,1,-1,1l-1,0l-1,0l-1,0c-1,0,-2,0,-2,0c-1,0,-1,-1,-1,-1c-1,0,-1,0,-2,1c-1,0,-1,0,-2,0l-1,0l-1,0c-1,0,-1,0,-2,-1c0,0,0,-1,0,-2l-1,-8l1,-2l0,9l0,1l1,0l0,1c0,0,1,0,1,0l2,0c0,0,1,0,1,0l1,0c0,0,0,-1,0,-1c0,-1,0,-1,0,-2c1,0,1,-1,1,-1c0,0,0,-1,1,-1c0,0,1,0,1,0c1,0,1,0,1,0c0,1,1,1,1,2l0,1c0,0,-1,1,-1,1c0,0,0,1,0,1l1,0l1,0l1,0c1,0,1,0,1,0l1,0l1,-1l-1,0c0,-1,0,-1,-1,-1l1,-2l1,0c0,0,1,0,1,0c1,0,1,0,1,0c1,0,1,0,1,0c0,0,0,1,0,1c0,1,0,1,0,1c0,0,0,1,-1,1l0,1c1,0,1,0,1,0l1,0l1,0ZM121.5,324.5c0,0,1,0,1,-1c1,0,1,0,1,0c1,0,1,0,2,1c0,1,0,1,0,1c0,1,-1,1,-1,1l-1,0l-1,0l-1,0l2,0c1,-1,1,-1,2,-1c-1,0,-1,0,-1,0c0,0,-1,-1,-1,-1c0,0,-1,1,-1,1c0,0,-1,0,-1,0c0,0,0,-1,0,-1ZM118.5,345.5l-5,2c1,-1,1,-1,1,-1l4,-2ZM109.5,334.5l-1,-1l-1,1l-2,-1l1,-2l2,1l1,-1l1,1ZM109.5,337.5c-1,0,-1,0,-1,0c-1,0,-1,0,-1,1c0,0,1,1,1,1c1,0,1,0,1,0c0,-1,1,-1,1,-1c0,0,0,-1,-1,-1ZM105.5,326.5l4,-2l-1,0c0,0,0,1,0,1l-4,2ZM89.5,346.5l-2,-1l1,-1l1,1ZM96.5,340.5c-1,0,-1,1,-2,1c-1,0,-2,1,-3,1c-1,0,-2,0,-4,0c-1,0,-2,0,-3,0c-1,0,-2,0,-3,-1c0,0,0,-1,0,-1l-1,0l0,-1l0,-1c0,0,1,-1,1,-1c0,0,0,-1,1,-1l0,1c-1,0,-1,1,-1,1c0,0,0,1,1,1c0,0,1,1,1,1c1,0,1,0,1,0l1,0l1,0l2,0c1,0,2,0,2,0l1,0c0,0,1,0,1,0l1,0c1,-1,1,-1,2,-1c0,0,1,-1,1,-1l0,-1c0,0,-1,0,-1,-1c1,-1,1,-1,1,-1l1,1l0,1l0,1l0,1c0,0,-1,0,-1,1ZM88.5,347.5l-4,2c1,0,1,0,1,-1l4,-2ZM173.5,333.5l-2,-1l1,-1l2,1ZM174.5,336.5l-1,-1l-1,1l-1,-1l1,-2l1,1l1,-1l1,1ZM170.5,340.5l0,1l-1,0l-1,1c-1,0,-1,0,-1,0l-2,0c-1,0,-1,-1,-1,-1l-1,-1c0,0,0,1,0,1l-1,0c0,0,-1,0,-1,1c-1,0,-1,0,-2,0l-1,0c-1,0,-1,-1,-1,-1l0,-1l0,-1l1,0l0,1l1,0l1,0c1,0,1,0,1,0l1,-1c0,0,1,0,1,0c0,-1,0,-1,0,-2l-1,-2l0,-1l1,0l0,-2l0,2c0,0,1,1,1,2l0,2c0,0,0,1,0,1c0,0,0,1,1,1l2,0c1,0,1,0,2,0l1,-1l1,-1l0,1l0,1l1,0c0,0,1,0,1,0c1,0,1,0,1,-1c0,0,0,-1,0,-1l1,0l0,1c0,1,0,1,1,1l1,0l0,-1l0,-1l1,0l0,1l0,1l0,1c0,0,-1,0,-1,0c0,1,0,1,-1,1c-1,0,-1,-1,-1,-1l-1,0c-1,0,-1,0,-1,1l-1,0c-1,0,-1,0,-1,0c0,-1,-1,-1,-1,-1c0,0,0,-1,0,-1ZM170.5,325.5l5,-2l-1,1l-4,2ZM160.5,345.5l-4,2c0,-1,0,-1,0,-1l4,-2ZM153.5,345.5l-1,-1l-1,1l-1,-1l0,-1l2,1l1,-1l1,1ZM150.5,342.5l-1,0l-2,0c0,0,-1,-1,-1,-1l0,-1c0,0,-1,0,-1,0c0,0,0,1,0,1l-1,0c0,0,-1,0,-1,1c0,0,-1,0,-2,0l-1,0c0,0,0,-1,-1,-1l0,-1l0,-1l1,0l0,1l1,0l1,0c0,0,1,0,1,0l1,0l0,-1l1,0c0,-1,0,-1,0,-2l0,-2l-1,-1l1,0l0,-2l1,2c0,0,0,1,0,2l0,2c0,0,0,1,0,1l1,0c0,0,0,1,0,1c1,0,1,0,1,0l1,0l1,0c1,0,1,0,2,0c0,0,1,0,1,0c0,-1,0,-1,0,-1l0,-1c0,0,-1,0,-1,-1l1,-1c0,1,1,1,1,1l0,1l0,1l0,1l-1,0c0,0,0,1,0,1c0,0,-1,0,-1,1c-1,0,-1,0,-2,0ZM142.5,326.5c1,0,1,-1,1,-1c0,0,1,0,1,0c1,0,1,0,1,1l0,1l-1,0l0,1l1,0l0,1l-1,0l-1,0c-1,1,-1,1,-1,1l-1,0l-1,0l1,0l1,-1l1,-1l-1,0c0,0,0,-1,0,-1c0,0,0,-1,0,-1ZM144.5,326.5l-1,0l0,1l1,0c0,-1,0,-1,0,-1ZM203.5,342.5l0,-1l0,-1l-1,-9l1,-2l1,10c0,1,0,1,0,1c0,0,-1,0,-1,1c0,0,0,1,0,1ZM198.5,341.5c-1,0,-1,0,-2,0c0,0,-1,-1,-1,-2c0,1,0,1,0,2c-1,1,-1,1,-2,1c-1,0,-1,0,-2,-1c0,0,0,-1,-1,-2c0,1,0,1,0,1c-1,1,-1,1,-2,1c-1,0,-1,0,-1,-1c-1,0,-1,0,-1,0c0,-1,0,-1,0,-2c1,0,1,0,1,0c1,-1,1,-1,2,-1l1,-1l0,-1l0,-1c1,0,1,0,1,0l0,1l0,1l0,2c0,1,0,1,0,1c1,0,1,0,1,0c0,1,1,1,1,1c0,0,1,0,1,-1c0,0,1,0,1,-1c0,0,0,-1,0,-2c0,0,0,-1,-1,-1c0,-1,0,-1,0,-1l0,-1l1,-1l0,-1l0,3l1,2l0,1l0,1l0,1c0,0,1,0,1,0l1,0c0,0,1,0,1,0c0,-1,0,-1,0,-2l-1,-1l0,-1l0,-1l0,-1l0,-1c0,0,1,1,1,1c0,0,0,1,0,1l0,2c1,1,1,1,1,2c0,1,-1,1,-1,2c0,0,0,1,0,1c-1,0,-1,0,-1,0ZM190.5,337.5c0,0,-1,0,-1,0c0,0,0,1,0,1c-1,0,-1,0,-1,1c0,0,1,0,2,-1ZM231.5,332.5l-1,-1l1,-1l1,1ZM233.5,340.5c0,1,0,1,0,1c-1,0,-1,1,-2,1c-1,0,-1,0,-2,0l-1,0l-1,0c0,0,-1,0,-1,-1c-1,0,-1,-1,-1,-2l-1,-8l1,-2l1,9l0,1l0,1c0,0,1,0,1,0l1,0l1,0c1,0,1,0,2,0c1,0,1,0,2,-1l0,-1l0,-1c0,1,0,1,-1,1c0,1,-1,1,-1,1l-1,-1c0,-1,0,-1,0,-1c0,-1,0,-1,0,-1l0,-1c0,0,0,-1,0,-1c1,-1,1,-1,2,-1l1,1l0,1l0,1l1,1c0,0,0,1,0,1c0,1,0,1,0,1c0,1,0,1,-1,1ZM230.5,336.5l1,0l1,0c0,-1,0,-1,0,-1c0,0,-1,0,-1,0ZM229.5,326.5l5,-2l-1,0c0,0,0,1,0,1l-4,2ZM227.5,345.5l-3,2c0,0,0,-1,0,-1l4,-2ZM216.5,336.5l-1,-1l1,-2l1,1ZM216.5,345.5c0,0,-1,0,-1,0c-1,0,-1,-1,-2,-1c0,0,-1,-1,-1,-1c0,-1,0,-1,0,-2l0,-1c0,-1,0,-1,0,-1l0,-1c1,0,1,0,1,0c0,0,0,-1,0,-1l1,1c-1,0,-1,0,-1,0c0,1,0,1,0,1l0,1c0,1,0,1,0,1c0,1,0,1,1,1l0,1c0,0,1,0,1,0c0,0,1,0,2,0c0,0,1,0,2,0c0,-1,1,-1,1,-1c0,-1,1,-1,1,-1l0,-1l0,-1c0,0,-1,-1,-1,-1l0,-1l-1,-1l1,-2c0,0,0,1,1,1c0,0,0,1,0,1c0,0,0,1,0,1l0,1c1,0,1,0,1,0c0,1,0,1,0,1c0,0,0,1,0,1c0,1,0,1,-1,2c0,0,0,1,-1,1c0,1,-1,1,-2,2c0,0,-1,0,-2,0ZM213.5,327.5l0,1l1,0l0,-1l1,0c0,1,0,1,0,1c1,0,1,0,1,-1l0,-1l0,1l0,1c0,1,0,1,0,1l-1,0l-1,0c0,0,0,1,-1,1l0,-1l0,-1l0,-1ZM217.5,325.5l-5,2c0,0,0,-1,0,-1l6,-3ZM272.5,344.5l-1,1l-1,-1l1,-1ZM278.5,337.5l-1,2l-1,0l-1,0c0,0,-1,1,-1,1l-1,0l-1,1l-1,0c-1,0,-1,0,-1,0l-1,1l-1,0l-1,0c0,0,-1,0,-1,-1l-1,-1l0,-1l0,-8l0,-2l1,9c0,1,0,1,0,1l0,1c1,0,1,0,1,0c0,-1,0,-1,0,-1c0,0,0,-1,0,-1l1,0l0,-1c0,0,1,-1,1,-1c0,0,1,0,1,0l1,0c0,0,1,0,1,0l2,1l2,0l1,0l1,0ZM274.5,338.5l-1,0l-1,0l-1,0c-1,0,-1,0,-1,0c0,0,-1,0,-1,0l-1,0c0,0,0,1,0,1l0,1l1,0l1,0l1,0l1,-1l1,0ZM270.5,329.5l5,-2l-1,0l0,1l-4,2ZM262.5,326.5c1,0,1,0,2,0c1,0,1,0,1,0l1,0l1,0c0,0,-1,1,-1,1l-1,0l-1,0l-1,0l-1,0c0,0,-1,0,-1,0c0,-1,0,-1,1,-1ZM256.5,339.5l1,0c0,-1,0,-1,1,-1c0,0,0,-1,0,-1l1,0l0,1c1,0,1,0,1,0l0,1l-1,0l-1,0c0,0,-1,0,-1,1c1,0,1,0,1,0l1,1c1,0,1,0,2,-1c0,1,0,1,-1,1l-4,2l0,-1l1,0c0,-1,0,-1,-1,-1c0,0,0,-1,0,-1l0,-1ZM256.5,332.5l4,-2l0,1l-1,0l-4,2ZM252.5,334.5l-2,-1l-1,1l-1,-1l1,-2l1,1l1,-1l2,1ZM250.5,342.5l-1,0c-1,0,-1,0,-2,0c0,0,0,-1,-1,-1l0,-1c0,0,0,-1,0,-1l-1,0c0,1,0,1,0,1l-1,0l-1,0c0,0,-1,0,-1,0l-1,0l0,-1c0,-1,1,-1,1,-2c1,0,1,0,2,-1c1,0,1,-1,1,-1c0,0,0,-1,0,-1l1,-1l0,2l0,1l0,1l1,2c0,1,0,1,0,1l1,0l1,0l1,0c0,0,1,0,1,0c1,0,1,0,1,0l0,-1l0,-1l0,-1l-1,0l1,-1l1,0l0,1l0,1l0,1l0,1c0,0,0,1,-1,1l-1,1c0,0,-1,0,-1,0ZM249.5,324.5l1,-1c0,0,1,0,1,0c1,0,1,0,2,1c0,1,0,1,-1,1c0,1,0,1,0,1l-1,0c0,0,-1,0,-1,0c-1,0,-1,0,-1,0l2,0c0,-1,1,-1,1,-1c-1,0,-1,-1,-1,-1c-1,0,-1,1,-2,1c0,0,0,-1,0,-1ZM245.5,336.5l0,1l-1,0l0,1c-1,0,-1,0,-1,0l1,0c1,0,1,0,1,0l1,0ZM242.5,326.5c1,0,1,-1,1,-1c0,0,1,0,1,0c0,0,1,0,1,1l0,1l-1,0l0,1l1,0l0,1l-1,0l-1,0c-1,1,-1,1,-1,1l-1,0l-1,0l1,0l1,-1l1,-1l-1,0c0,0,0,-1,0,-1c0,0,0,-1,0,-1ZM244.5,326.5l-1,0l0,1l1,0c0,-1,0,-1,0,-1ZM295.5,341.5c-1,0,-1,0,-1,0l-1,0l-1,0l-1,-1l0,1l0,1l-1,0l-1,0l-2,0c0,0,-1,0,-1,-1c-1,0,-1,-1,-1,-2l-1,-8l1,-2l1,9l0,1l0,1c0,0,1,0,1,0l2,0l1,0c0,0,1,0,1,0l1,-2c0,0,0,-1,1,-1c0,0,0,-1,1,-1c0,0,0,1,1,1c0,0,0,1,0,1l0,1l0,1c0,1,0,1,0,1ZM293.5,339.5l1,0c0,-1,0,-1,-1,-1c0,1,0,1,0,1ZM290.5,329.5l4,-2l0,1l-4,2ZM321.5,346.5l-2,-1l1,-2l2,1ZM318.5,342.5l-1,0c0,0,-1,0,-1,0c-1,0,-1,-1,-1,-1c0,0,-1,0,-1,0l-1,-1l0,1l-1,0l-1,0c0,0,0,1,-1,1l-1,0l-2,0l-1,0c0,0,0,-1,0,-1l-1,0l0,-1c0,0,0,1,0,1l-1,0c0,0,-1,0,-1,1c-1,0,-1,0,-2,0l-1,0c-1,0,-1,-1,-1,-1l0,-1l0,-1l1,0l0,1l1,0l1,0c0,0,1,0,1,0l1,-1c0,0,1,0,1,0c0,-1,0,-1,0,-2l-1,-2l0,-1l1,-2l0,2c0,0,1,1,1,2l0,2c0,0,0,1,0,1c0,0,0,1,1,1l2,0l1,0c0,0,1,0,1,0l1,0l0,-1c0,-1,-1,-1,-1,-1c0,0,-1,0,-1,0l1,-2c0,0,1,0,1,0c1,0,1,0,1,0l1,0l1,0c0,0,0,1,0,1c0,0,1,0,1,0c0,1,0,1,0,1l-1,0c0,0,0,1,0,1l-1,0c1,0,1,0,1,1l1,0l1,0l1,0c1,0,1,0,2,0c0,0,1,0,1,0l0,-1l0,-1l-1,-1l1,-1l0,1l1,0l0,1l0,1l0,1l-1,0c0,0,0,1,0,1c0,0,-1,0,-1,1c-1,0,-1,0,-2,0ZM318.5,329.5l5,-2l-1,0l0,1l-4,2ZM309.5,327.5c1,0,1,0,1,0c1,0,1,0,2,0c0,0,1,0,1,0c0,0,1,0,1,1l-1,0c0,0,0,1,0,1c0,0,-1,0,-1,0c0,1,0,1,0,1l-1,0l-1,0l1,-1c1,0,1,0,2,-1c-1,0,-1,0,-1,0c0,0,-1,0,-1,0c0,0,-1,0,-1,0c0,0,-1,0,-1,1l0,-1l0,-1ZM302.5,345.5l-4,2c0,-1,0,-1,0,-1l4,-2ZM346.5,341.5l-1,0c0,0,-1,0,-1,0l-1,-1l0,1c0,0,-1,0,-1,1l-1,0l-1,0l-1,0c0,0,0,1,0,1c0,0,0,1,0,1c0,0,0,1,0,2c-1,0,-1,1,-2,1c0,1,-1,1,-2,1c0,1,-1,1,-2,1c0,0,-1,0,-2,0c0,-1,-1,-1,-1,-1c-1,0,-1,-1,-1,-1c0,-1,-1,-1,-1,-2c0,0,0,-1,0,-1l1,0c0,0,0,-1,0,-1c0,0,0,-1,0,-1c1,-1,1,-1,1,-1c0,1,0,1,0,1c0,0,0,1,-1,1c0,1,0,1,0,1c0,1,0,1,1,1c0,1,0,1,0,1c0,0,1,0,1,0c1,1,2,1,2,1c1,0,2,0,3,-1c1,0,1,0,2,-1l0,-1c0,0,0,-1,0,-1c0,0,0,-1,0,-1c0,0,-1,-1,-1,-1l1,-2l0,1c0,0,1,0,1,0l1,0l1,0c1,0,1,0,1,0l1,0l0,-2c1,0,1,-1,1,-1l1,0c0,0,0,-1,0,-1c1,0,1,1,1,1c1,0,1,1,1,1l0,1l0,1c0,1,0,1,-1,1ZM344.5,339.5l1,0l1,0c0,-1,-1,-1,-1,-1c0,0,-1,0,-1,0c0,1,0,1,0,1ZM345.5,345.5l-4,2c0,-1,1,-1,1,-1l4,-2ZM334.5,339.5l-2,0l1,-2l2,1ZM333.5,333.5l-1,1l-1,0c-1,0,-1,0,-1,0c0,0,0,1,0,1l1,2l0,1c0,0,-1,1,-1,1l0,-1l0,-1l0,-1l0,-1l0,-1l0,-1l1,0l0,-1l-1,0l0,1l0,-1c0,-1,1,-1,1,-1c0,0,1,0,1,1c1,0,1,0,1,1ZM372.5,342.5l0,-1l0,-1l-1,-9l1,-2l1,10c0,1,0,1,0,1l-1,1c0,0,0,1,0,1ZM367.5,341.5c-1,0,-1,0,-2,0c0,0,0,-1,-1,-2c0,1,0,1,0,2c-1,1,-1,1,-2,1c-1,0,-1,0,-1,-1c-1,0,-1,-1,-1,-2c-1,1,-1,1,-1,1c-1,1,-1,1,-2,1c0,0,-1,0,-1,-1c-1,0,-1,0,-1,0c0,-1,0,-1,1,-2l1,0c0,-1,0,-1,1,-1l1,-1l0,-1l1,-1l0,1l0,1l0,2c0,1,1,1,1,1c0,1,1,1,1,1c1,0,1,0,1,-1c1,0,1,0,1,-1c0,0,0,-1,0,-2c0,0,0,-1,0,-1c0,-1,0,-1,0,-1c0,0,-1,0,-1,-1l1,-1l0,-1l1,3l0,2l0,1l0,1l0,1c1,0,1,0,1,0l1,0c1,0,1,0,1,0c0,-1,0,-1,0,-2l-1,-1l0,-1l0,-1l0,-1l0,-1l1,0c0,0,0,1,0,1c0,0,0,1,0,1l1,2c0,1,0,1,0,2c0,1,0,1,-1,2c0,0,0,1,0,1l-1,0ZM359.5,337.5c0,0,-1,0,-1,0c0,0,0,1,0,1c-1,0,-1,0,-1,1c1,0,1,0,2,-1l1,0ZM409.5,335.5l-1,-1l1,-1l1,1ZM409.5,342.5l-1,0l-1,0l-1,0c0,0,-1,-1,-1,-1l-1,0l0,-1c0,0,-1,0,-1,1c-1,0,-1,0,-1,0c0,0,-1,1,-1,1l-1,0l-1,0l-1,0l-1,-1l-1,0c0,1,0,1,-1,1c0,0,-1,0,-1,0l-1,-1l-1,0l-1,0c-1,1,-1,1,-1,1l-1,0l-1,0c0,0,-1,0,-1,0c-1,0,-1,-1,-1,-1l-1,-1c0,0,0,-1,0,-1c0,1,-1,1,-1,1l-1,0c-1,0,-1,0,-2,0l0,-1c0,-1,0,-1,1,-2c0,0,1,0,2,-1c0,0,1,-1,1,-1l-1,0c0,0,0,-1,1,-1l0,-1l0,2l1,1l0,1l0,2c0,1,0,1,1,1c0,0,1,0,1,0l1,0l1,0l1,-1l1,-1c1,-1,2,-1,2,-1l1,1l1,1l1,1l1,0l1,0l1,0l1,0c1,0,1,0,1,0l0,-1c1,0,1,0,1,0l-1,0c0,-1,0,-1,-1,-1l-1,0l1,-2c1,0,1,0,2,0l1,0l1,0c0,0,1,0,1,0c0,0,0,1,0,1c0,1,0,1,0,1c0,0,-1,1,-1,1l0,1c0,0,1,0,1,0l1,0l1,0l1,0c0,0,1,0,1,0c1,0,1,0,1,0c0,-1,0,-1,0,-1l0,-1l0,-1l0,-1c0,0,1,0,1,0c0,1,0,1,0,1l0,1l0,1l0,1c0,0,0,1,0,1c-1,0,-1,0,-2,1c0,0,-1,0,-1,0ZM413.5,345.5l-5,2c1,-1,1,-1,1,-1l4,-2ZM400.5,327.5l1,0c0,0,1,0,1,0c1,0,1,0,1,0c1,0,1,0,1,1c0,0,0,1,-1,1c0,1,-1,1,-1,1c0,0,-1,0,-1,0l-1,0l2,-1c0,0,1,0,1,-1l-1,0c-1,0,-1,0,-2,0l0,1l0,-1l0,-1ZM396.5,340.5l-1,-1c0,0,-1,0,-1,-1l-1,1l1,1l1,0ZM392.5,329.5l4,-2l-1,0l0,1l-4,2ZM384.5,333.5l-1,-1l-1,1l-1,-1l0,-1l2,1l1,-2l1,1ZM385.5,336.5l-1,1l-1,1c0,0,-1,0,-1,0l1,0l1,0c0,0,1,0,1,0ZM382.5,326.5l4,-2l-1,0c0,0,0,1,0,1l-4,2ZM283.5,283.5c0,0,1,0,1,0c1,0,1,0,1,0c1,0,1,0,2,0l0,1c0,0,0,1,0,1c0,0,-1,0,-1,0c0,1,0,1,0,1c0,0,-1,0,-1,0l-1,0l-1,0l2,-1c1,0,1,0,2,-1c-1,0,-1,0,-1,0c0,0,-1,0,-1,0c0,0,-1,0,-1,0c0,0,-1,0,-1,1l0,-1l0,-1ZM160.5,283.5c1,0,1,0,1,0c1,0,1,0,2,0c0,0,1,0,1,0c1,0,1,0,1,1c0,0,-1,1,-1,1l-1,0c0,1,0,1,0,1c-1,0,-1,0,-1,0l-1,0l1,-1c1,0,2,0,2,-1c0,0,-1,0,-1,0l-1,0l-1,0l-1,1l0,-1l0,-1ZM188.5,293.5l0,-1l1,0c0,0,1,-1,1,-1l0,-1l0,-1l-1,-1l0,-1c0,0,0,-1,0,-1l1,1l0,1l0,1l0,1l0,1l1,0l0,-1c1,0,1,0,1,0c1,0,1,0,1,0c0,0,1,0,1,1c0,0,-1,1,-1,1l-1,0c0,0,0,1,-1,1c0,0,-1,0,-1,0ZM192.5,291.5c0,0,-1,0,-1,0l-1,1c1,0,1,0,1,0c0,0,1,0,1,0c0,0,1,0,1,-1c-1,0,-1,0,-1,0ZM318.5,279.5l0,-1c0,0,0,-1,0,-1c0,-1,0,-2,0,-2l0,-1c0,0,1,0,1,1c0,0,0,1,0,1l0,1c0,1,0,1,0,1l-1,1ZM300.5,283.5l0,-1c0,0,0,-1,0,-1c0,-1,0,-2,-1,-2l1,-1l0,1c0,0,1,1,1,1l0,1c0,1,0,1,-1,1l0,1ZM245.5,279.5c0,-1,0,-1,0,-2c0,-1,0,-1,-1,-2l1,0l0,-1c0,1,0,1,0,1c1,1,1,1,1,1l0,1l0,1c0,1,-1,1,-1,1ZM150.5,299.5l-1,-1l-1,1l-1,-1l0,-1l2,0l1,-1l1,1ZM147.5,295.5l-1,0c-1,0,-1,0,-1,0c0,0,-1,0,-1,0l0,-1c0,0,-1,0,-1,0c-1,0,-1,0,-1,1c0,0,-1,0,-1,0c0,0,-1,0,-1,0l-2,0l-1,0l-1,-1c0,0,0,-1,0,-1l0,1c0,0,-1,0,-1,0l0,1c-1,0,-1,0,-2,0l-1,0l-1,0c-1,0,-1,0,-1,0c0,0,-1,-1,-1,-1l0,-1c0,0,1,0,1,0l0,-1l0,1l1,0l1,0l1,0l1,0l1,0l1,-1l0,-1l-1,-2l0,-1l0,-1l1,-1l0,2l0,1l1,2c0,1,0,1,0,1c0,1,0,1,0,1c0,0,1,1,1,1l2,0c1,0,1,0,1,0c0,0,1,-1,1,-1l1,0l1,0l1,0c0,1,0,1,1,1l1,0c1,0,1,0,2,0c0,-1,1,-1,1,-1l0,-1c0,-1,-1,-1,-1,-1l1,-2l0,1c1,1,1,1,1,1c0,1,0,1,0,1c0,0,0,1,0,1c0,0,0,1,-1,1c0,1,-1,1,-1,1c-1,0,-1,0,-2,0ZM149.5,276.5l1,0c0,-1,0,-1,0,-1l1,0c0,1,0,1,0,1c0,0,0,1,0,1l0,1l0,2l-1,-1l-1,1l-1,1l-1,0l0,-1l1,0l1,-1l1,0l-1,-1l0,-1l0,-1ZM150.5,277.5l0,-1l0,1l0,1l0,-1ZM143.5,299.5l-1,-1l0,-1l2,1ZM141.5,282.5l4,-2l0,1l-4,2ZM148.5,283.5l0,1l1,0l0,-1l0,-1l0,1l1,0l1,0l0,-1c0,1,0,1,0,1l0,1l-1,1l-1,-1l0,1c0,0,-1,0,-1,0l-1,0l0,-1l0,-1l1,0ZM132.5,282.5l0,1l1,0c0,0,0,-1,0,-1l0,-1l1,0l0,1c1,0,1,0,1,-1l0,-1l0,1l0,1c0,1,0,1,0,1l-1,0l-1,0c0,1,0,1,-1,1c0,0,0,-1,0,-1l0,-1ZM133.5,299.5l-4,2c0,-1,0,-1,0,-1l4,-2ZM125.5,284.5l0,-1l0,-1l1,0c0,0,0,1,0,1l1,0c0,0,0,1,-1,1c0,0,0,1,0,1c0,0,0,1,0,2c0,2,0,3,0,3c1,1,1,2,1,3l-1,1c0,1,0,1,0,2c0,0,-1,1,-1,1c0,0,-1,1,-1,1c0,0,-1,0,-1,0c-1,1,-2,1,-2,1l-1,0l-1,0c-1,-1,-1,-1,-2,-1c0,-1,0,-1,0,-1c0,-1,0,-1,0,-1c0,-1,0,-2,0,-2c0,-1,0,-1,0,-2l1,0l0,-1l0,1c0,1,0,1,0,1c-1,1,-1,1,-1,1c0,1,1,2,1,2c1,0,1,1,2,1l1,0c1,0,2,0,3,-1c0,0,1,-1,1,-1c0,0,1,0,1,0c0,-1,0,-1,0,-1c0,-1,0,-2,-1,-3c0,-2,0,-3,0,-4c0,-1,0,-2,0,-3ZM116.5,285.5c0,-1,1,-1,1,-1c0,0,1,0,1,0c1,0,1,0,2,0c0,0,0,1,0,1c0,0,0,1,0,1c-1,0,-1,0,-1,1c-1,0,-1,0,-1,0l-1,0c0,0,-1,0,-1,0l2,-1c1,0,1,0,1,-1c-1,0,-1,0,-1,0c-1,0,-1,0,-1,0c-1,0,-1,1,-1,1l0,-1ZM182.5,291.5c0,0,0,1,-1,1c0,0,1,0,1,0c0,0,1,0,1,0c0,0,-1,0,-1,0c0,0,0,-1,0,-1ZM182.5,299.5l-1,1c-1,0,-1,0,-2,0c-1,0,-1,0,-2,0c0,0,-1,0,-1,-1c0,0,1,0,1,0l1,0l1,0c0,0,1,0,1,0l0,-1c1,0,1,0,2,0c0,-1,0,-1,0,-1c0,0,1,-1,1,-1c0,-1,0,-1,0,-2l-1,0c0,1,0,1,0,1l-1,-1c-1,0,-1,0,-1,0c0,-1,0,-1,0,-1c0,-1,0,-1,0,-1c1,-1,1,-1,1,-2l1,0c0,-1,0,-1,0,-1c1,0,1,0,1,1l1,0c0,1,0,1,0,1c0,1,0,1,0,1c0,1,0,1,0,2c0,1,0,2,-1,3c0,1,0,1,0,1c0,1,-1,1,-1,1ZM179.5,286.5l4,-2c0,0,0,1,0,1l-4,2ZM175.5,295.5l-1,0c0,0,-1,-1,-1,-1l-1,0c0,1,-1,1,-1,1l-1,0l-1,0l-1,0c0,1,0,1,0,1c0,0,0,1,0,1c0,1,0,2,0,2c-1,1,-1,1,-2,2c0,0,-1,1,-2,1c0,0,-1,0,-2,0c0,0,-1,0,-2,0c0,0,-1,0,-1,-1c-1,0,-1,0,-1,-1c0,0,-1,-1,-1,-2c0,0,0,-1,1,-1l0,-1l0,-1c1,0,1,0,1,0l0,1l-1,0c0,1,0,1,0,1l0,1l1,1l0,1c0,0,1,0,1,0c1,0,2,0,2,0c1,0,2,0,3,0c1,0,1,-1,2,-1c0,-1,0,-1,0,-1l0,-1l0,-1c0,-1,0,-1,0,-1c0,0,-1,0,-1,0l0,-1l1,-1c0,1,1,1,1,1l1,0l1,0c1,0,1,0,1,0l1,-1l0,-1c1,0,1,-1,1,-1l1,-1c1,0,1,0,1,1c1,0,1,0,1,1l0,1c0,0,0,1,0,1c0,0,0,1,-1,1ZM173.5,293.5l1,0l1,0c0,-1,0,-1,0,-1c-1,0,-1,0,-1,0c0,0,-1,0,-1,0c0,0,0,1,0,1ZM171.5,282.5l4,-2l-1,1l-4,2ZM163.5,293.5l-2,-1l1,-1l2,1ZM221.5,299.5l-1,-1l0,-1l2,1ZM218.5,295.5l-1,0c0,0,-1,0,-1,0l-1,0l0,-1c0,0,0,1,-1,1c0,0,-1,0,-2,0l-1,0l-1,0c0,0,-1,0,-1,0c0,0,0,-1,0,-1l-1,0l0,1c-1,0,-1,0,-1,0c-1,0,-1,0,-1,0l-1,0c-1,0,-1,0,-1,0c-1,0,-1,0,-1,0c-1,0,-1,-1,-1,-1c0,-1,0,-1,0,-1c-1,0,-1,0,-1,0c0,1,0,1,-1,1l-1,0l-1,0l0,-2c0,0,0,-1,1,-1c0,0,1,-1,1,-1c1,-1,1,-1,1,-1l0,-1l1,0l0,-1l0,1c0,0,0,1,0,1c0,1,0,1,1,1l0,2c0,1,0,1,0,1c1,1,1,1,1,1c0,0,1,0,1,0c1,0,1,0,1,0c1,0,1,-1,2,-1l1,0c0,0,1,0,1,0c0,1,1,1,1,1l1,0c1,0,1,0,1,0c1,0,1,-1,1,-1c0,0,1,0,1,0c0,-1,0,-1,0,-1c0,-1,-1,-1,-1,-1c1,0,1,-1,1,-1c0,0,0,-1,0,-1l1,2c0,1,0,1,0,1c0,0,0,1,0,1l1,1l1,0l1,0l1,0c1,-1,1,-1,1,-1l0,-1c0,-1,0,-1,0,-1l-1,0l1,-2l0,1l1,0l0,1l0,1l0,1c0,0,0,1,0,1c0,0,-1,0,-1,0c0,1,0,1,-1,1c-1,0,-1,0,-2,0ZM218.5,282.5l5,-2l-1,1l-4,2ZM216.5,300.5l-1,-1l-1,1l-1,-1l1,-1l1,1l1,-2l1,1ZM214.5,281.5l0,1l1,0l0,-1l0,-1l0,1c0,0,1,0,1,0l1,0l0,-1c0,0,0,1,0,1l0,1l-1,0l0,1c0,-1,-1,-1,-1,-1l0,1c0,0,-1,0,-1,0l-1,0l0,-1l0,-1ZM219.5,301.5l-4,2c0,-1,0,-1,0,-1l5,-2ZM208.5,291.5l-1,-1l1,-1l1,1ZM206.5,286.5l4,-2c0,0,0,1,0,1l-4,2ZM201.5,286.5l-1,-1l-1,2l-2,-1l1,-2l2,1l0,-1l2,1ZM202.5,290.5l-1,0l-1,1c-1,0,-1,1,-1,1l1,0l1,0l1,0l0,-1ZM227.5,304.5l5,-3c0,0,0,1,0,1l-5,3ZM229.5,300.5l5,-2c0,1,0,1,0,1l-5,3ZM197.5,302.5l5,-3c0,1,0,1,0,1c0,0,0,1,-1,1l-4,2ZM199.5,299.5l5,-3c0,1,-1,1,-1,1l-5,3ZM245.5,295.5l0,-1l0,-1l0,-8l0,-3l1,11l0,1c0,1,-1,1,-1,1ZM241.5,299.5l-1,-1l-1,1l-1,-1l0,-1l2,0l1,-1l1,1ZM238.5,295.5l-1,0c0,0,-1,0,-1,0c0,0,-1,0,-1,0c0,0,0,-1,0,-1c-1,-1,-1,-1,-1,-1c-1,1,-1,1,-1,1l-1,0c-1,0,-1,0,-1,0l-1,0l0,-2c0,0,0,-1,1,-1c0,0,1,-1,2,-1c0,-1,1,-1,1,-1l0,-1l0,-1l1,1c0,0,0,1,0,1c0,1,0,1,0,1l0,2c0,1,0,1,0,1c0,0,1,0,1,0c0,1,0,1,0,1c1,0,1,0,1,0l1,0c1,0,1,0,2,0c0,-1,1,-1,1,-1l0,-1c0,-1,-1,-1,-1,-1l1,-2l0,1c1,1,1,1,1,1c0,1,0,1,0,1c0,0,0,1,0,1c0,0,0,1,-1,1c0,1,-1,1,-1,1c-1,0,-1,0,-2,0ZM238.5,282.5l5,-2l-1,1l-4,2ZM233.5,286.5l-1,-1l-1,2l-1,-1l1,-2l1,1l1,-1l1,1ZM234.5,290.5l-1,0l0,1l-1,0c0,0,0,1,-1,1l1,0l1,0c1,0,1,0,1,0l0,-1ZM229.5,296.5l0,1l-1,0l-1,0l0,1l0,3c0,1,0,1,0,1l0,-1l0,-1l0,-1l-1,-1c0,-1,0,-1,0,-1l1,-1l1,0l0,-1l-1,0l0,1l-1,0l0,-1c0,0,1,0,1,0c0,-1,0,-1,1,-1l1,1c0,0,0,1,0,1ZM270.5,295.5c-1,0,-1,0,-1,0l-1,0c0,0,0,-1,-1,-1l-1,0c0,1,0,1,0,1l-1,0l-1,0l-2,0c0,1,0,1,0,1c0,0,0,1,0,1c0,1,0,2,0,2c0,1,-1,1,-1,2c-1,0,-2,1,-2,1c-1,0,-2,0,-3,0c0,0,-1,0,-1,0c-1,0,-2,0,-2,-1c0,0,-1,0,-1,-1c0,0,0,-1,0,-2c0,0,0,-1,0,-1l0,-1l1,-1l1,0c-1,0,-1,0,-1,1c0,1,0,1,0,1l0,1l0,1l1,1c1,0,2,0,3,0c1,0,1,0,2,0c1,0,2,-1,2,-1c0,-1,0,-1,0,-1l0,-1l0,-1c0,-1,0,-1,0,-1l-1,-1l1,-1l1,0c0,1,0,1,1,1l1,0l1,0c0,0,1,0,1,0l0,-1l1,-1c0,0,0,-1,1,-1l0,-1l1,0l1,1l0,1l0,1c0,0,0,1,0,1c0,0,0,1,0,1ZM268.5,293.5l1,0c0,-1,0,-1,0,-1l-1,0c0,0,0,1,0,1ZM266.5,281.5l0,1c1,0,1,0,1,-1l0,-1l0,1l1,0l1,-1c0,0,0,1,0,1l0,1c0,0,-1,0,-1,0l0,1c-1,-1,-1,-1,-1,-1l0,1c-1,0,-1,0,-1,0c0,0,-1,0,-1,0l0,-1l0,-1ZM269.5,299.5l-5,2c1,-1,1,-1,1,-1l4,-2ZM257.5,293.5l-1,-1l1,-1l1,1ZM256.5,280.5c1,0,1,0,1,0c1,0,1,0,2,0c0,0,1,0,1,0c1,0,1,0,1,0c0,0,0,1,0,1c0,0,-1,0,-1,1l-1,0c-1,0,-1,0,-1,0l-1,0l1,0c1,0,2,-1,2,-1c0,0,-1,0,-1,0l-1,0c0,0,-1,0,-1,0l-1,0c0,-1,0,-1,0,-1ZM318.5,295.5l0,-1l0,-1l0,-8l1,-3l0,11l0,1c0,1,0,1,-1,1ZM313.5,287.5l-1,-1l-1,1l-1,-1l1,-1l1,1l1,-1l1,1ZM311.5,295.5l-1,0c-1,0,-1,0,-1,0c0,0,-1,0,-1,0l0,-1c0,0,-1,1,-1,1c-1,0,-1,0,-2,0l-1,0c-1,0,-1,0,-1,0c0,0,-1,-1,-1,-1c0,0,0,1,-1,1c0,0,-1,0,-1,0l-1,0c-1,0,-1,0,-2,0l0,1l0,1l0,1c0,0,0,1,0,1c-1,1,-1,1,-2,1l-1,0c0,0,0,-1,-1,-1c0,-1,0,-2,0,-3l-1,-1c0,0,-1,0,-1,0l-1,0c-1,0,-1,0,-2,0l0,-1c-1,1,-1,1,-1,2l-1,0l-1,0c-1,-1,-1,-1,-1,-1l-1,0l0,1c0,0,-1,1,-1,1c-1,1,-1,1,-2,1c-1,0,-3,0,-4,0l4,-2l2,0c0,-1,1,-1,1,-2l1,-1c0,-1,0,-1,1,-1c0,-1,0,-1,0,-1l1,0c0,0,1,0,1,1c1,1,1,1,1,1c1,0,1,1,1,1c0,0,1,0,1,0l1,0l1,0l1,-1l0,-1l1,-1c1,-2,2,-3,2,-3c1,0,1,1,1,1l0,1l0,1c0,0,0,1,0,1c-1,1,-1,2,-2,2l1,0l1,0l1,0l1,0l1,0l1,0c0,-1,0,-1,0,-1c1,0,1,0,1,0c0,-1,0,-1,0,-1l1,0c0,0,0,1,0,1c1,1,1,1,1,1l1,0c0,0,1,0,1,0c1,0,1,-1,1,-1c0,-1,0,-1,0,-1c0,-1,0,-1,0,-1c0,0,0,-1,1,-1c0,0,0,-1,0,-1l0,2c0,1,0,1,0,1c0,0,0,1,1,1l0,1c1,0,1,0,1,0l1,0c1,0,1,0,2,0c0,-1,1,-1,1,-1l0,-1c0,-1,-1,-1,-1,-1l1,-2l0,1l1,1l0,1l0,1c0,0,-1,1,-1,1c0,1,-1,1,-1,1c-1,0,-1,0,-2,0ZM311.5,279.5l4,-2l0,1l-4,2ZM309.5,300.5l-1,-1l-1,1l-1,-1l0,-1l2,1l1,-2l1,1ZM305.5,281.5l1,0c0,-1,1,-1,1,-1c1,0,1,0,2,1l0,1c-1,1,-1,1,-1,1c-1,0,-1,0,-1,0c0,0,-1,0,-1,0c0,0,-1,0,-1,0l2,0c0,0,1,-1,1,-1c-1,0,-1,0,-1,0c-1,0,-1,0,-1,0c-1,0,-1,0,-1,0l0,-1ZM301.5,291.5l-1,-1l1,-2l1,1ZM296.5,290.5c-1,0,-1,0,-1,0c0,1,0,1,0,1l-1,1l-1,1c1,0,2,0,3,-1l0,-1c0,-1,0,-1,0,-1ZM293.5,296.5l1,1c0,0,0,1,0,1l1,0l0,1l1,0l1,-1c0,0,-1,-1,-2,-2c0,0,-1,0,-2,0ZM295.5,280.5c0,-1,0,-1,1,-1c0,-1,0,-1,0,-1l1,0c0,1,0,1,0,1c0,1,0,1,0,1l0,1l0,2l-1,-1l-1,1c0,0,0,1,-1,1l-1,0l1,-1c0,0,1,0,1,0l0,-1l1,0l-1,0l0,-1l0,-1ZM296.5,280.5l0,-1c0,0,0,1,0,1l0,1l0,-1ZM286.5,294.5l0,-1l-1,0l0,1l1,0ZM347.5,283.5c0,0,-1,0,-2,0c-1,1,-2,1,-4,2c-1,0,-2,1,-2,1c0,0,-1,0,-1,0c0,0,0,1,0,1l1,0l2,1c0,0,1,1,1,2c0,0,1,1,1,1c0,1,0,1,0,1c0,1,0,1,0,2c0,0,-1,0,-1,0c0,1,0,1,0,1c-1,0,-1,0,-1,0c-1,0,-1,0,-1,0l-1,0l-3,0c0,0,-1,0,-1,0l0,1l0,1l-1,0c0,0,0,1,0,1c-1,0,-1,-1,-1,-1c-1,-1,-1,-1,-1,-2l0,-1c0,0,-1,0,-1,1l-1,0l-1,1l0,1l1,1l0,2l0,1l0,1c0,1,0,1,0,2l0,1l0,-1l0,-1l0,-1l-1,-3l0,-1l0,-1l0,-1l0,-1c0,0,0,-1,1,-1l0,-1l1,0l0,-1l1,0l1,-1c0,1,1,2,2,2l1,1l2,0l1,0l1,0l1,0c0,0,0,-1,1,-1c0,0,1,0,1,-1c0,0,-1,0,-1,0c0,-1,-1,-2,-1,-2c-1,0,-1,0,-1,-1c0,0,-1,0,-1,0c0,0,-1,0,-1,0c0,-1,0,-1,0,-1c0,0,-1,0,-1,0c0,-1,0,-1,0,-1l1,-1c0,-1,0,-1,0,-1c0,0,1,0,1,0c0,-1,1,-1,3,-2c1,0,2,-1,4,-1c1,-1,1,-1,2,-1ZM342.5,279.5l4,-2l0,1l-4,2ZM329.5,285.5c0,-1,0,-1,1,-1l1,0c0,0,1,0,1,0c1,0,1,1,1,1c0,0,-1,1,-1,1l0,1c-1,0,-1,0,-1,0c-1,0,-1,0,-1,0l-1,0l1,-1c1,0,2,0,2,-1c0,0,-1,0,-1,0l-1,0l-1,0c0,0,0,1,-1,1l0,-1c0,0,1,0,1,0ZM362.5,326.5l0,-1l0,-1c0,0,0,-1,0,-1l0,-1c0,0,0,1,0,1c0,0,0,1,0,1l1,0c0,0,0,1,0,1c0,0,-1,0,-1,0c0,0,0,1,0,1ZM361.5,327.5l0,1l1,0l0,-1l1,0c0,0,0,1,0,1c1,0,1,0,1,-1l0,-1l0,1l0,1c0,0,0,1,0,1l-1,0l-1,0l-1,0c0,-1,0,-1,0,-1l0,-1ZM194.5,327.5l0,-1c0,0,0,-1,0,-1c0,0,0,-1,0,-1l0,-1c0,0,0,1,0,1c1,0,1,0,1,1c0,1,0,1,0,1c-1,0,-1,0,-1,1Z" class="g1_24" />
<path fill-rule="evenodd" d="M102.5,588.5l-4,2c1,-1,1,-1,1,-1l3,-2ZM193.5,529.5c1,0,1,-1,2,-1c0,0,1,1,1,1c1,0,1,0,1,0l0,1c0,0,-1,0,-1,1l-1,0c-1,0,-1,0,-1,0l-1,0l1,0c1,0,2,-1,2,-1c0,0,-1,0,-1,0l-1,0l-1,0l-1,0l0,-1l1,0ZM372.5,530.5c0,-1,0,-2,0,-2c0,-1,0,-1,-1,-2l1,0l0,-1c0,0,0,1,0,1c1,1,1,1,1,1l0,1c0,1,0,1,0,1c-1,0,-1,1,-1,1ZM303.5,529.5l0,-1c0,0,0,-1,0,-1c-1,-1,-1,-1,-1,-2l1,-1c0,0,0,1,0,1c0,1,0,1,0,1l0,1c0,0,0,1,0,1c0,0,0,1,0,1ZM86.5,545.5l-1,-1l-1,1l-1,-1l0,-1l2,1l1,-1l1,0ZM83.5,542.5l-1,0c-1,0,-1,0,-1,0c-1,-1,-1,-1,-1,-1c-1,0,-1,0,-1,-1l-1,0l0,1l-1,0l-1,0l-1,1l-1,0c-1,0,-1,0,-1,-1c-1,0,-1,0,-1,-1c-1,0,-1,1,-1,1c0,0,-1,0,-1,1l-1,0c-1,0,-1,0,-2,-1c0,0,-1,1,-1,1c-1,0,-1,0,-2,0c0,0,-1,-1,-1,-1l0,1l-1,0c0,1,0,1,-1,2c0,0,-1,0,-2,0c-1,0,-2,1,-4,1l5,-2l1,-1c0,0,1,-1,1,-1l1,-2c0,0,1,-1,1,-1l1,-1c1,0,1,1,1,1c1,1,1,1,2,2c1,0,1,0,1,0c1,0,1,0,1,0c1,0,1,-1,1,-1c0,-1,0,-1,0,-1c0,0,0,-1,0,-1l0,-7l1,-2l0,10c0,1,0,1,0,1c0,0,1,0,1,1c0,0,1,0,1,0l1,0l1,0l1,-1c-1,-1,-1,-1,-1,-1c-1,0,-1,0,-1,0l1,-2c0,0,1,0,1,0c0,0,1,0,1,0c1,0,1,0,1,0l1,0l0,1c1,0,1,0,1,0c0,0,0,1,-1,1c0,0,0,1,0,1l-1,0c0,0,1,0,1,0c0,1,0,1,0,1l1,0l1,0l1,0c1,0,1,0,2,0c0,0,1,0,1,-1c0,0,0,-1,0,-1c-1,0,-1,-1,-1,-1l1,-2c0,1,0,1,0,1c0,0,0,1,0,1c0,0,1,0,1,1c0,1,0,1,0,1l0,1c-1,0,-1,0,-1,0l0,1c0,0,-1,0,-1,0c-1,1,-1,1,-2,1ZM83.5,529.5l4,-2l0,1l-4,2ZM74.5,527.5c0,0,1,0,1,0c1,0,1,0,1,0c1,0,1,0,2,0l0,1c0,0,0,1,0,1c0,0,-1,0,-1,0c0,1,0,1,-1,1l-1,0l-1,0l2,-1c1,0,1,0,2,-1c-1,0,-1,0,-1,0c0,0,-1,0,-1,0c0,0,-1,0,-1,0c0,0,-1,0,-1,0c0,0,0,-1,0,-1ZM69.5,526.5l4,-3l0,1c-1,0,-1,0,-1,0l-4,3ZM66.5,540.5l-1,0l0,-1c0,0,-1,0,-1,0l0,1l1,0ZM62.5,529.5c1,0,1,0,1,-1c0,0,1,0,1,0c1,0,1,1,1,1c0,0,0,1,0,1l-1,0c0,1,0,1,0,1l1,0l0,1l-1,0l-1,0l0,1c-1,0,-1,0,-1,0l-1,1l-1,0l1,-1l1,0c0,0,0,-1,0,-1l1,0l0,-1c-1,0,-1,0,-1,-1l0,-1ZM64.5,530.5l-1,-1c0,1,0,1,0,1l1,0ZM138.5,538.5l-1,0c1,0,1,0,1,0c0,1,0,1,0,1c0,0,1,0,1,0l0,-1c0,0,-1,0,-1,0ZM138.5,545.5c0,1,0,1,0,1c-1,0,-1,0,-1,0c-1,0,-1,0,-2,0c-1,0,-1,0,-2,0l-1,0c1,-1,1,-1,1,-1l0,1c1,0,1,0,1,0c0,0,1,0,1,0c0,0,0,-1,0,-1c1,0,1,0,1,0l1,0c0,0,0,-1,1,-1c0,0,0,-1,0,-1c1,0,1,0,1,-1c1,-1,1,-1,1,-1c0,0,0,-1,0,-1c0,0,-1,0,-1,0l0,1c0,0,-1,0,-1,0l-1,0c0,0,0,-1,0,-1l0,-1l0,-1c0,0,0,-1,0,-1c0,-1,1,-1,1,-1l1,0c1,0,1,0,1,1l0,1l0,1c0,0,1,0,1,1c-1,1,-1,1,-1,1c0,1,0,2,0,2c0,1,-1,1,-1,2l-1,0ZM135.5,532.5l5,-2l-1,1l-4,2ZM125.5,545.5c0,0,1,0,1,0l1,0c0,0,1,0,2,-1c1,0,1,0,2,-1c0,0,0,-1,1,-1c0,-1,0,-1,0,-1c0,-1,0,-1,0,-1c0,0,0,-1,0,-1l0,-1l-1,0l1,-1l0,-1l0,1c0,0,1,0,1,1l0,1l0,1c0,0,0,1,0,1c0,1,0,1,0,1l-1,1c0,0,0,1,0,1c0,0,-1,0,-1,1l-1,0l0,1c-1,0,-1,0,-1,0c-1,0,-1,0,-1,0l-1,0c0,0,-1,0,-1,0c0,-1,0,-1,-1,-1ZM128.5,532.5l4,-2l0,1l-1,0l-4,2ZM124.5,545.5l-1,-1l1,-1l1,1ZM122.5,542.5l-1,0c-1,0,-1,0,-1,-1c-1,0,-1,0,-1,-1c-1,0,-1,1,-1,1c-1,0,-1,0,-2,1c-1,0,-1,0,-1,0c-1,0,-1,0,-1,0c-1,0,-1,0,-2,0c-1,0,-2,0,-3,0c-1,0,-2,0,-2,0c-1,0,-3,0,-4,0c-1,0,-2,0,-3,0c-1,0,-2,0,-2,0c-1,0,-1,0,-1,0c-1,0,-2,-1,-2,-1c0,0,-1,0,-1,0c0,0,0,-1,0,-1c1,0,1,0,2,0c0,0,1,0,2,0l1,0c1,0,3,0,4,0c1,0,3,0,4,0c1,0,2,0,3,0c1,0,2,0,3,0l1,0l1,0c0,0,1,0,1,0c0,0,1,0,1,0l1,0c0,0,0,-1,0,-1c0,-1,0,-1,0,-1c0,0,0,-1,0,-1l0,-7l1,-2l0,10c0,1,0,1,0,1c0,0,1,0,1,1c0,0,1,0,1,0l1,0c0,0,1,0,1,0c1,0,1,0,2,-1c0,0,0,-1,-1,-1l0,-1l1,-2c0,1,0,1,0,1l0,1l0,1l0,1l0,1l0,1c-1,0,-1,0,-2,0c0,1,-1,1,-1,1ZM120.5,530.5l0,1l1,0l0,-1l1,0l0,1c1,0,1,0,1,-1l0,-1l0,1l0,1c0,0,0,1,0,1l-1,0l-1,0c0,0,0,1,-1,1c0,0,0,-1,0,-1l0,-1l0,-1ZM121.5,525.5c1,0,1,0,1,-1c0,0,1,0,1,0c1,0,1,1,1,1l0,1l-1,0c0,0,0,1,0,1l1,0l-1,1l-1,1c-1,0,-1,0,-1,0c-1,0,-1,1,-1,1c-1,0,-1,0,-1,-1c1,0,2,-1,3,-2l-1,0c0,0,0,-1,0,-1c0,0,0,-1,0,-1ZM123.5,525.5l-1,0c0,1,0,1,0,1l1,0ZM109.5,537.5c0,1,-1,1,-1,1l-1,0c-1,0,-1,0,-1,0l-1,0l1,0c0,0,1,0,1,-1c1,0,1,0,1,0l0,-1l-1,0c-1,0,-1,0,-1,-1c0,0,1,0,1,-1c0,0,0,-1,1,-1l0,-1c1,0,1,0,1,0l0,1c-1,1,-1,1,-2,1c1,1,1,1,1,1l1,0c1,0,1,1,1,1c0,0,-1,1,-1,1ZM102.5,532.5l3,-1l6,-2l4,-1l1,-1l-1,2l-1,0l-1,0l-2,1l-5,2l-4,1l-1,1ZM172.5,539.5c0,1,0,2,0,2c0,0,0,1,0,1l-1,1l1,1l-1,1l-1,0l0,1l-1,0l-1,1l-1,0l-1,0l-1,0l0,1l-1,1c0,1,-1,1,-1,1l-4,0l-3,0c0,-1,0,-1,0,-1l-1,-1c0,0,-1,0,-1,-1c-1,0,-2,0,-2,0l-1,-1l-1,0l0,-1l-1,0l-1,-1l1,-1l-1,0l0,-1l0,-1l-1,-1l0,-1l0,-1l1,0c0,-1,0,-1,0,-2l1,-1l-1,0l0,-1l1,0l0,-1l1,0l0,-1l1,0l2,-1l1,0l1,-1l1,-1l3,0l4,0l1,0l0,1l1,0l0,1l1,0l1,1l1,0c1,0,1,0,1,0l1,1c1,1,2,1,2,1l0,1l-1,0l0,1l1,0l0,1l0,1ZM163.5,549.5l1,0l0,-1l1,0l1,-1c0,0,1,0,1,0l1,-1c0,0,1,0,1,0l0,-1l1,0l1,-1l1,0l-2,-1l1,0l0,-1l1,0l0,-1l0,-1l0,-1c0,-1,0,-1,0,-2l-1,-1l0,-1l-1,0l1,0l1,-1c-1,0,-1,0,-2,0l0,-1l-1,0l0,-1l-1,0l-1,0l-1,-1c-1,0,-1,0,-1,0l-1,-1l0,-1c-1,0,-1,0,-1,0l-4,0l-1,0l-2,0l0,1l-1,1c0,0,-1,0,-1,0l-2,1l-1,0l-1,1l-1,1l-1,0l1,1l0,1l-1,0l0,1l0,1c0,1,0,1,0,1l0,1l0,1l0,1l1,0l0,1l-1,1l1,0l0,1l1,0l0,1l1,0l1,0l0,1l1,0l1,0c0,0,1,0,1,1l1,0l0,1l3,0ZM169.5,534.5l0,1l-1,0l0,-1l-1,0l0,-1l-1,0l0,-1l1,1c1,0,1,0,1,0l0,1l1,0ZM169.5,544.5l0,1l-1,0l-1,1l-1,0c0,-1,0,-1,0,-1l1,0c1,-1,1,-1,1,-1l1,0ZM165.5,546.5c0,0,-1,1,-1,1l-1,0l-4,0l-3,0c-1,0,-1,0,-1,0c0,-1,0,-1,0,-1l0,-1c1,0,1,0,1,0l3,0l4,0c1,0,1,0,1,0l1,1ZM165.5,532.5c0,1,-1,1,-1,1l-1,1l-4,0l-3,0c0,-1,0,-1,-1,-1l0,-1l0,-1l1,0l3,0l4,0c1,0,1,0,1,0c0,0,0,1,0,1l1,0ZM163.5,535.5l1,0l0,-1c0,0,1,0,1,0c0,0,1,0,1,1c0,0,1,0,1,0l1,1l1,-1c0,0,0,1,0,1l1,1l0,1l0,1l0,1c0,0,0,1,0,1l0,1c-1,0,-1,0,-1,0c0,0,0,1,0,1l-1,-1c0,0,0,1,-1,1l0,1l-1,0l-1,0c-1,0,-1,0,-1,0l-1,-1l-4,0l-3,0l0,1c0,0,-1,0,-1,0c-1,0,-1,0,-2,0c0,0,0,-1,0,-1l-1,0l0,-1l-1,1l0,-1l-1,-1l0,-1l0,-1c0,0,0,-1,0,-1l0,-1l0,-1c1,0,1,-1,1,-1l1,1l1,-1l1,0c0,-1,0,-1,1,-1l1,0l0,1l3,0ZM163.5,543.5l1,0l0,1l1,0l1,0l0,-1l1,0c0,-1,1,-1,1,-1l1,0l0,-1l1,0l0,-1l0,-1c0,0,0,-1,0,-1c-1,-1,-1,-1,-1,-2l-1,0c0,0,-1,0,-1,0l0,-1l-1,0l-1,0c0,0,-1,0,-1,0l-1,0l-4,0l-3,0l-1,0c-1,0,-1,0,-1,0l-1,0l0,1c-1,0,-1,0,-1,0l-1,0l-1,1l0,1l0,1c0,1,0,1,0,1l0,1c1,1,1,1,1,1l1,0l1,1l1,1l1,0l1,0c0,0,0,-1,0,-1l3,0l4,0ZM161.5,537.5l1,1l0,1l0,1l1,0c0,0,0,1,0,1l0,1c0,0,0,-1,-1,-1l0,-1l0,-1l-1,0l0,1l-1,1l0,1l0,-1c0,-1,0,-1,1,-1l0,-1l0,-1c0,-1,0,-1,0,-1ZM157.5,538.5l1,0l1,0l0,1l0,1l0,1l0,1c0,0,-1,-1,-1,-1l0,-1l0,-1c-1,0,-1,0,-1,-1ZM151.5,534.5l1,-1l1,0l1,-1l0,1c0,0,-1,0,-1,0c0,0,0,1,0,1l-1,0l-1,1l0,-1ZM151.5,544.5c1,0,1,0,1,1l1,0l1,0l0,1l-1,0c-1,0,-1,-1,-2,-1l0,-1ZM246.5,546.5l-2,-1l0,1l-2,0l1,-2l1,1l1,-1l2,1ZM242.5,542.5l0,-1l-1,0l0,-1l0,-1l0,1l-1,0l0,1c-1,0,-1,1,-1,1c-1,0,-1,-1,-1,-1l-1,0l0,-1l0,1l-1,0l0,1c0,0,-1,0,-1,0l-1,0c0,-1,-1,-1,-1,-1l0,-1l-1,0l0,-1c0,0,-1,0,-1,0c0,1,0,1,-1,1l-1,0l0,1c0,0,0,1,0,1c0,0,0,1,0,1c-1,0,-1,1,-1,1c0,0,0,1,-1,1c0,0,0,1,-1,1c-1,0,-1,0,-1,0c0,0,-1,0,-1,0l-1,0l-1,0c-1,0,-1,0,-1,0l0,-1c1,0,1,0,1,0l1,1c0,0,0,-1,0,-1l1,0c0,0,1,0,1,0c1,-1,1,-1,1,-1c1,-1,1,-1,1,-1c1,-1,1,-1,1,-2c0,-1,0,-1,1,-1l-1,0l0,-2l1,0l1,0l1,0c1,-1,1,-1,1,-1l1,-1l0,1l0,1c0,1,0,1,0,1c0,0,1,0,1,1l1,0c0,0,1,0,1,0l1,0c0,-1,0,-1,0,-1l0,-1l1,0l0,1c0,0,1,1,1,1c0,0,1,0,1,-1l1,-1l0,1l1,0c0,0,0,1,0,1c0,0,1,0,1,0l1,0c1,-1,0,-1,0,-2c0,0,0,-1,-1,-1c-1,0,-1,-1,-1,-1c0,0,0,-1,0,-1c0,0,1,-1,1,-1c0,0,0,1,1,1c0,0,0,1,0,1c0,0,1,0,1,0c0,1,0,1,0,1c0,1,0,1,0,2c0,0,0,1,0,1c0,1,0,1,0,1l-1,0l0,1l-1,0ZM244.5,526.5c0,0,0,-1,0,-1c1,0,1,0,1,0c0,0,1,0,1,0l0,1l0,1l0,1l0,1l-1,-1l0,1l-1,0c0,1,-1,1,-1,1l-1,0l1,-1l1,0l0,-1c0,-1,0,-1,0,-1c0,-1,0,-1,0,-1ZM245.5,526.5c-1,0,-1,0,-1,0l1,1l0,-1ZM237.5,534.5l-2,-1l1,-2l2,1ZM238.5,536.5l-1,-1l-1,1l-1,-1l1,-1l1,1l1,-1l1,1ZM233.5,526.5c0,0,1,0,1,0c1,0,1,0,1,0c1,0,1,0,2,0l0,1c0,0,0,1,0,1c0,0,-1,0,-1,0c0,1,0,1,0,1l-1,0l-1,0l-1,0l2,-1c1,0,1,0,2,-1c-1,0,-1,0,-1,0c0,0,-1,0,-1,0c0,0,-1,0,-1,0c0,0,-1,0,-1,1l0,-1l0,-1ZM227.5,548.5l-4,2c0,-1,1,-1,1,-1l3,-2ZM221.5,540.5c-1,0,-1,0,-3,1c0,0,-1,0,-3,0c-2,0,-3,0,-3,0l-1,0c0,0,-1,0,-1,0c-1,0,-3,0,-4,1c-2,0,-3,0,-4,0c-1,0,-2,0,-2,0l-1,0l-1,0l-1,0l0,1c0,0,-1,1,-1,1c0,0,0,1,0,1c-1,0,-1,1,-1,1c-1,0,-1,0,-1,1c0,0,-1,0,-1,0l-1,0l-1,0c0,0,-1,0,-1,0c-1,0,-1,-1,-1,-1l1,0c1,0,1,0,2,0c0,0,1,0,1,-1c0,0,1,0,1,0c0,-1,0,-1,1,-1c0,0,0,-1,0,-1c0,0,1,0,1,-1c0,0,-1,0,-1,0l-1,0c0,0,0,-1,0,-1c0,0,-1,0,-1,0c0,-1,0,-1,0,-1c0,-1,0,-1,0,-1l0,-1c0,0,1,0,1,0c0,0,0,-1,0,-1c0,0,1,0,1,0c0,0,1,0,1,0l0,1c0,0,1,0,1,0c0,0,0,1,0,1c0,0,0,1,0,1c1,0,1,0,1,0l1,0c1,0,1,0,1,0c1,0,2,0,3,0c1,0,2,0,3,0c1,0,3,0,4,0l2,-1c1,0,2,0,3,0c1,0,2,0,4,0c1,0,2,0,2,0l1,0c0,0,0,-1,0,-1c-1,0,-1,0,-1,0c0,0,0,-1,-1,-1l-1,0c-1,0,-2,0,-4,1c-2,0,-4,0,-6,0c-2,0,-3,0,-4,0c-2,0,-4,0,-4,0l0,-1c0,0,0,-1,0,-1c0,-1,1,-1,1,-1c0,0,0,-1,1,-1c0,-1,1,-2,2,-2c1,-1,2,-2,3,-2l1,0l-1,2c0,0,-1,0,-1,0c-1,1,-2,1,-3,2c-1,0,-1,1,-2,2c1,0,1,1,1,1c0,0,1,0,1,0c1,0,1,0,1,0c1,0,3,0,5,-1c2,0,4,0,6,0c1,0,3,0,3,0c1,0,1,0,1,0c0,0,1,0,2,0l0,1c0,0,1,0,1,0c0,0,0,1,0,1c0,1,0,1,0,2c-1,0,-1,0,-1,0ZM203.5,522.5c1,0,1,0,1,0c0,-1,1,-1,1,-1c1,1,1,1,1,1c0,1,0,1,0,1l-1,0l0,1l1,0l0,2l-1,-1l-1,0l0,1c-1,0,-1,1,-1,1l-1,0l-1,0l1,-1l1,0l0,-1l1,0l0,-1l-1,0l0,-1l0,-1ZM205.5,523.5l-1,-1l0,1l1,1l0,-1ZM195.5,539.5c-1,0,-1,0,-1,0l0,1l1,0l1,0c0,-1,0,-1,0,-1c0,0,-1,0,-1,0ZM184.5,536.5l-2,-1l1,-2l1,1ZM183.5,545.5c0,0,-1,0,-1,0c-1,0,-1,-1,-2,-1c0,0,0,-1,-1,-1c0,-1,0,-1,0,-2c0,0,0,-1,0,-1l0,-1c0,0,1,0,1,-1c0,-1,0,-1,0,-1l1,0c0,1,0,1,-1,1c0,1,0,1,0,1c0,1,0,1,0,1c0,1,0,1,0,1c0,1,1,1,1,1c1,1,1,1,1,1c0,0,1,0,2,0c1,0,1,0,2,0c1,-1,1,-1,2,-2l0,-1c0,0,0,-1,0,-1c0,0,0,-1,0,-1c0,0,-1,-1,-1,-1l0,-1l0,-2c0,0,1,0,1,1c0,0,0,1,0,1c0,0,0,1,1,1l0,1c0,1,0,1,0,1l0,1c0,0,0,1,-1,2c0,0,0,1,-1,1c0,1,-1,1,-2,1c0,1,-1,1,-2,1ZM180.5,529.5l4,-2l-1,1l-4,2ZM278.5,538.5c0,1,-1,1,-2,2c-1,0,-2,1,-3,1c-1,0,-2,1,-3,1l-1,0l-1,0c0,0,-1,0,-1,-1l-1,0c0,0,0,1,-1,1c0,0,-1,0,-1,0l-1,-1l-2,-1l-1,1c0,1,0,1,0,1l-2,0l-1,0c-1,0,-2,-1,-2,-1c-1,0,-1,-1,-1,-2l-1,-8l1,-2l1,9l0,1c1,1,1,1,2,1l1,0l2,0l1,-1l0,-1c2,-1,2,-1,3,-1l1,1l1,1l1,1l1,0l1,0l1,0l1,0c0,0,1,0,1,-1c0,0,-1,0,-1,-1l0,-1c0,0,0,-1,0,-1l0,-1c0,0,1,0,1,0l0,-1c0,0,1,0,1,0l1,0c0,-1,0,-1,1,-1l1,0c0,0,0,1,0,1c1,0,1,0,1,0l0,1l1,0l-1,0l-1,0l-1,0l-1,0l-1,0c0,0,-1,1,-1,1l0,1c1,0,1,0,1,0c0,1,1,1,2,2c0,0,0,-1,0,-1l1,0c0,0,1,0,1,0l1,0l0,-1l1,0ZM270.5,529.5l4,-2l0,1l-4,2ZM265.5,540.5l0,-1c-1,0,-1,-1,-1,-1l-1,0l-1,1c1,0,1,0,2,1ZM262.5,528.5l0,1l1,0l0,-1l0,-1l1,0l0,1c1,0,1,0,1,0l0,-1c0,1,0,1,0,1l0,1l0,1l-1,0c0,0,0,-1,0,-1l-1,1l-1,0l0,-1l0,-1ZM266.5,525.5l-5,3c0,-1,0,-1,0,-1l6,-3ZM320.5,538.5l-1,0c0,1,1,1,1,1c1,0,1,0,1,-1l-1,0ZM320.5,545.5c0,1,0,1,-1,1c-1,0,-1,0,-2,0c-1,0,-1,0,-2,0l-1,0c0,-1,0,-1,0,-1c1,0,1,0,1,1c0,0,1,0,1,0l1,0c0,0,0,-1,0,-1c0,0,1,0,1,0c1,0,1,-1,2,-1c0,0,0,-1,0,-1c0,0,1,0,1,-1c0,-1,0,-1,0,-1c0,0,0,-1,0,-1l0,1l-1,0l-1,0c0,0,0,-1,0,-1c0,0,-1,0,-1,0l0,-1l0,-1c1,0,1,-1,1,-1c0,-1,0,-1,1,-1c1,0,1,0,1,0l1,1l0,1l0,1l0,1c0,1,0,1,0,1c0,1,0,2,-1,2c0,1,0,1,0,2c0,0,-1,0,-1,0ZM317.5,532.5l4,-2l0,1l-4,2ZM313.5,533.5l-1,-1l-1,2l-1,-1l0,-2l2,1l1,-1l1,1ZM311.5,542.5l-1,0l-1,0l-1,0c0,-1,-1,-1,-1,-1l-1,-1l-1,0l0,1c-1,0,-1,0,-1,0c0,0,-1,0,-1,1l-1,0l-1,0l0,-2l1,0l1,0c1,0,1,0,1,0l0,-1c1,0,1,0,1,0l-1,0c0,-1,0,-1,-1,-1l-1,0l1,-2c1,0,1,0,2,0l1,0l1,0c0,0,1,0,1,0l0,1c0,0,0,1,0,1c0,0,-1,1,-1,1c0,1,1,1,1,1l1,0l1,0l1,0c1,0,1,0,2,0l1,-1c0,0,0,-1,-1,-1l0,-1l1,-2c0,1,0,1,0,1l0,1l0,1l0,1l0,1l0,1c0,0,-1,0,-2,0c0,1,0,1,-1,1ZM311.5,526.5l4,-3l0,1c0,0,-1,0,-1,0l-4,3ZM298.5,539.5l0,-1l0,-1l0,-7l1,-2l0,10c0,1,0,1,0,1l1,1l1,0l0,2c-1,0,-1,0,-1,-1c-1,0,-1,-1,-2,-2l0,1c0,0,0,1,0,1l-1,0l0,1c-1,0,-1,0,-1,0l1,0l1,0c0,0,1,0,1,1l0,1c-1,0,-1,0,-1,1c0,0,-1,1,-1,1c-1,1,-2,1,-2,1c-1,0,-2,1,-3,1c-1,0,-2,0,-2,-1c-1,0,-2,0,-2,-1l-1,-1c0,0,0,-1,0,-1c0,-1,0,-2,0,-2c1,-1,1,-2,1,-2l1,0c0,0,-1,1,-1,2l0,1c0,1,0,2,1,2c1,0,2,1,3,1c1,0,1,0,2,0c0,0,0,-1,1,-1c0,0,1,0,2,0c0,-1,0,-1,1,-1c-1,0,-1,-1,-2,-1c-1,0,-1,0,-1,0c0,0,-1,-1,-1,-1c0,0,1,0,1,0c0,0,0,-1,0,-1c0,0,1,-1,1,-1c0,0,1,0,1,0c0,0,1,0,1,0c0,0,0,-1,0,-1ZM295.5,524.5c0,1,0,2,-1,2l0,-1c0,-1,0,-1,0,-2l0,-1c0,0,0,-1,0,-1l1,1l0,1ZM346.5,542.5l0,-1l1,-2l-1,-8l1,-2l0,10c0,1,0,1,0,1l0,1l-1,1ZM342.5,541.5c0,0,-1,0,-1,0l-1,0c0,-1,-1,-1,-1,-2c0,1,0,1,-1,2c0,0,-1,1,-1,1c-1,0,-1,-1,-2,-1c0,0,-1,-1,-1,-2c0,1,0,1,-1,1c0,0,-1,0,-1,0c-1,0,-1,0,-2,0l0,-1l0,-1c1,0,1,0,1,-1c1,0,1,0,2,-1l1,0l0,-1l0,-1c0,0,1,0,1,-1l0,2l0,1l0,2c0,0,0,1,0,1l1,0c0,1,0,1,1,1c0,0,1,0,1,-1c0,0,1,0,1,-1c0,0,0,-1,0,-2c-1,-1,-1,-1,-1,-2c0,0,0,-1,0,-1l0,-1l1,-1l0,3l0,2l1,1l0,1c0,1,1,1,1,1l1,0l1,0l0,-1l0,-1l-1,-1l0,-1l0,-1l0,-1l0,-1l0,1c1,0,1,1,1,1l0,2c0,1,0,1,0,2c0,1,0,1,0,2l-1,1ZM334.5,537.5c-1,0,-1,0,-1,0l-1,1l-1,1c1,0,2,-1,2,-1c1,0,1,0,1,0ZM333.5,544.5l-4,2c0,-1,0,-1,0,-1l4,-2ZM391.5,540.5l-1,0l0,1l-1,0c0,1,0,1,-1,1l-1,0l-1,0c0,-1,0,-1,-1,-1c0,-1,0,-1,0,-1c0,1,-1,1,-1,1c0,0,-1,1,-1,1l-1,0l-2,0c-1,0,-2,0,-3,-1c0,0,0,-1,0,-1c0,-1,0,-1,0,-1l-1,0c0,0,-1,0,-1,0l-4,2c-1,0,-1,0,-1,0c-1,0,-1,1,-2,1l-1,0l0,-2l1,0c1,0,1,0,1,0c0,0,1,0,1,0c1,0,1,-1,2,-1l1,0l1,-1l-1,0l-1,0c-1,-1,-1,-1,-2,-1c0,0,-1,0,-1,0l-1,1l0,-1l1,0c0,-1,0,-1,0,-1c1,0,1,-1,2,-1l1,1l1,0c1,0,2,1,3,1c1,0,1,0,2,0c1,0,1,1,2,1l0,1l-1,0l-1,0c0,0,0,1,0,1l1,0l1,0l1,0l1,0c1,0,1,0,1,0c1,0,1,0,1,-1l1,0c0,0,0,-1,0,-1l0,1c0,0,1,1,1,1c0,0,1,0,1,0l1,0c1,0,1,0,1,0c1,0,1,0,1,-1c0,0,1,0,1,-1l0,1l1,1c1,0,1,0,2,0c0,0,0,-1,1,-1c0,0,0,-1,0,-1l1,-1l0,1l0,1c0,0,0,1,0,1l1,0l1,0l0,-1l-1,0l1,-1l0,1l1,0l0,1c0,0,-1,0,-1,0l0,1c0,1,0,1,-1,1c0,0,-1,0,-1,0c0,-1,0,-1,-1,-1l-1,0l-1,1c0,0,-1,0,-1,0c0,0,-1,-1,-1,-1c0,-1,0,-1,0,-1ZM393.5,526.5c0,0,0,-1,0,-1c1,0,1,0,1,0c1,0,1,0,1,1l0,1l-1,0l1,1l0,1l-1,-1l0,1l-1,0c0,1,-1,1,-1,1l-1,0l1,-1l1,0l0,-1c0,-1,-1,-1,-1,-1c0,-1,1,-1,1,-1ZM394.5,526.5l-1,0l0,1l1,0l0,-1ZM384.5,546.5l-1,-1l1,-2l1,1ZM382.5,531.5c0,0,1,0,1,-1c1,0,1,0,1,0c1,0,1,0,2,1c0,1,0,1,0,1c0,1,-1,1,-1,1l-1,0l-1,0l-1,0l2,0c1,-1,1,-1,2,-1c-1,0,-1,0,-1,0c0,0,-1,0,-1,0c0,0,-1,0,-1,0c0,0,-1,0,-1,0c0,0,0,-1,0,-1ZM360.5,539.5l-2,-1l1,-1l2,1ZM364.5,539.5c0,1,1,1,1,1l2,0l0,2l-2,0l0,1l0,1c0,0,0,1,-1,1c0,1,0,1,-1,2c0,0,-1,1,-2,1c0,1,-1,1,-2,1c-1,0,-1,0,-2,-1c0,0,-1,0,-1,0c-1,-1,-1,-1,-1,-1c-1,-1,-1,-2,-1,-2c0,-1,0,-1,0,-1c1,-1,1,-1,1,-1c0,0,0,-1,0,-1c0,0,0,-1,0,-1c1,0,1,0,1,0c0,0,0,1,0,1c0,0,0,1,-1,1c0,0,0,1,0,1c0,0,0,1,1,1c0,0,0,1,0,1c0,0,1,0,1,0c1,1,2,1,2,1c1,0,2,0,3,-1c1,0,1,0,2,-1c0,0,0,-1,0,-1c0,0,0,-1,0,-1c0,0,0,-1,0,-1l0,-1c-1,0,-1,0,-1,0l1,-2ZM359.5,532.5l4,-2l-1,1l-4,2ZM411.5,578.5l-1,-1l-1,1l-1,-1l0,-1l2,1l1,-1l1,0ZM409.5,586.5l-1,0l-1,0l-1,0c0,0,0,-1,-1,-1l-2,-2c0,-1,-1,-1,-1,-1l-1,0l0,1c0,0,0,1,0,1c0,1,0,1,-1,1c0,0,0,1,0,1c0,0,-1,0,-1,0c0,0,-1,0,-1,0l-1,0l-2,0c0,1,0,1,0,1l0,1c0,1,0,1,0,2c0,0,-1,1,-1,1c-1,1,-1,1,-2,2c-1,0,-2,0,-2,0c-1,0,-2,0,-2,0c-1,0,-1,-1,-2,-1c0,0,0,-1,-1,-1c0,-1,0,-1,0,-2l0,-1c0,0,0,-1,0,-1l1,0c0,-1,0,-1,0,-1l0,-1l1,1c0,0,-1,0,-1,0c0,1,0,1,0,1c0,0,0,1,0,1c0,0,0,1,0,1l0,1c0,0,1,0,1,0c0,0,0,1,0,1c0,0,1,0,1,0c0,0,1,0,2,0c1,0,1,0,2,0c1,0,2,-1,2,-1c0,0,0,-1,0,-1c1,0,1,0,1,0c0,0,0,-1,0,-1c0,-1,0,-1,0,-1c-1,0,-1,0,-1,-1l0,-1l0,-2l0,1c1,0,1,0,1,0l1,0l1,0l1,0c0,0,1,0,1,0l1,0l1,0c0,-1,0,-1,0,-1c0,-1,0,-1,0,-1c-1,0,-1,-1,-1,-1l-1,0c0,-1,0,-1,-1,-1c0,0,0,-1,-1,-1c-1,0,-1,0,-1,0c0,0,0,-1,0,-1c0,0,0,-1,0,-1l0,-1l1,0c0,0,0,-1,0,-1c0,0,1,0,3,-1c1,-1,3,-1,4,-2c2,0,3,0,3,-1l1,0l1,-1l1,-1l-1,0c0,0,0,-1,0,-1c0,-1,0,-1,0,-1c1,0,1,-1,1,-1c0,0,1,0,1,0c1,0,1,0,1,1l0,1l-1,0l1,1l0,1l-1,0l-1,0c-1,1,-1,1,-1,1l-1,0l-1,2c0,0,-1,0,-1,0c0,0,-1,0,-2,1c-2,0,-3,1,-4,1c-2,1,-3,1,-3,2l1,1l1,0l0,1l1,0c1,0,1,1,2,1c0,0,1,1,1,1c1,1,2,1,2,2l2,1l1,0l1,0c1,0,1,0,2,0l1,0l0,-1l-1,0c0,-1,0,-1,0,-1l1,-2l0,1l0,1l0,1l0,1l0,1c0,0,-1,1,-2,1l-1,0ZM411.5,567.5l-1,0l0,1l1,0l0,-1ZM407.5,589.5l-5,2c1,0,1,0,1,0c0,0,0,-1,0,-1l4,-2ZM390.5,584.5l-1,-1l1,-2l1,1ZM390.5,575.5l0,1c0,0,1,0,1,0l0,-1l1,-1l0,1l1,0l0,-1l0,1l0,1l-1,0l-1,1c-1,0,-1,0,-1,0c0,0,0,-1,0,-1l0,-1ZM392.5,570.5c0,-1,0,-1,0,-1c0,0,1,-1,1,-1l0,1c1,0,1,0,1,0c0,1,0,1,0,1l0,1c0,0,-1,0,-1,0l1,0l0,1l-1,0l-1,1c0,0,-1,1,-1,1c0,0,-1,0,-1,0c0,0,-1,0,-1,0c1,-1,2,-1,3,-2l0,-1c-1,0,-1,0,-1,0l0,-1l1,0ZM393.5,570.5l-1,0l0,1l1,0l0,-1ZM428.5,586.5l-1,0l0,-1c-1,0,-1,0,-1,0l-1,0c-1,0,-1,1,-1,1l-1,0l-1,0l-1,0c-1,0,-1,0,-2,0c0,-1,-1,-2,-1,-2l0,-9l1,-2l0,10l0,1l1,0l1,0l1,0l1,0c1,0,1,0,1,0l1,0l0,-1c0,-1,1,-1,1,-2c1,0,1,0,1,0c1,0,1,0,1,0c0,1,0,1,1,2l0,1c0,0,0,1,0,1c-1,0,-1,0,-1,1ZM426.5,583.5l1,1l1,0l0,-1c0,0,-1,0,-1,0c-1,0,-1,0,-1,0ZM423.5,573.5l4,-2l0,1l-4,2ZM344.5,574.5c1,0,1,0,1,-1c1,0,1,0,2,0c0,0,1,0,1,1c0,0,1,0,1,0c-1,1,-1,1,-1,1c0,1,0,1,-1,1c-1,0,-1,0,-1,0l-1,0l1,0c1,-1,1,-1,2,-1c0,0,-1,0,-1,0l-1,0c0,0,-1,0,-1,0l-1,0c0,0,0,-1,0,-1ZM250.5,574.5l1,-1l1,0c0,0,1,0,1,1c1,0,1,0,1,0c0,1,-1,1,-1,1c0,1,0,1,0,1c0,0,-1,0,-1,0c-1,0,-1,0,-1,0l-1,0l2,0c0,-1,1,-1,1,-1l-1,0c-1,0,-1,0,-2,0l-1,0c0,0,0,-1,1,-1ZM25.5,584.5l0,-1c1,0,1,0,1,0l0,-1l0,-1l0,-2l0,-1l1,0c-1,1,-1,1,-1,1l0,1l1,1l0,1l-1,1l1,-1l1,0c0,0,0,-1,1,-1c0,0,1,0,1,1c0,1,0,1,0,1l-1,1c0,0,-1,0,-1,0c-1,0,-1,0,-1,0ZM29.5,582.5c-1,0,-1,0,-1,0l-1,1l-1,0l1,0l1,0c1,0,1,0,2,0l-1,-1ZM127.5,574.5c0,0,1,0,1,0c0,-1,0,-1,1,-1c0,1,1,1,1,1c0,1,-1,1,-1,1l0,1l1,0l0,2l-2,-1l0,1c-1,0,-1,1,-1,1l-1,0l-1,0l1,-1c1,0,1,0,1,-1l1,0l0,-1l-1,0l0,-1l0,-1ZM128.5,575.5l0,-1l0,1l0,1l1,0l0,-1l-1,0ZM91.5,571.5c0,-1,0,-1,0,-2c0,0,0,-1,0,-1l0,-1l1,1l0,1l0,1c0,0,0,1,0,1c0,0,-1,0,-1,0ZM52.5,588.5l0,-1c-1,0,-1,0,-2,0c0,0,-1,0,-1,0l-1,0l-1,0c0,0,0,1,-1,1l-1,0c0,0,-1,0,-1,0l-2,0c0,0,0,1,0,1c0,1,0,1,0,1c-1,1,-1,1,-1,2c0,0,-1,0,-1,0c0,1,-1,1,-1,1l-1,0c0,0,-1,0,-1,0c-1,0,-1,0,-2,0c0,0,-1,0,-1,0c0,-1,0,-1,0,-1c0,0,1,0,1,1l1,0c0,0,1,0,1,-1c0,0,1,0,1,0c1,0,1,-1,1,-1c0,0,1,0,1,-1l1,0c0,-1,0,-1,0,-1l0,-1c-1,0,-1,0,-1,0c-1,0,-1,0,-1,0c0,0,0,-1,-1,-1c0,0,0,-1,0,-1l1,0c0,-1,0,-1,0,-1c0,0,0,-1,0,-1l1,0c0,0,0,-1,0,-1c1,0,1,0,1,0c0,1,0,1,1,1l0,1c0,1,0,1,0,1c1,0,1,0,1,0c1,0,1,0,1,0c0,0,1,0,1,0l1,0l1,0c-1,0,-1,-1,-1,-1l0,-1c0,0,1,0,1,0c0,-1,0,-1,0,-1c0,0,0,-1,0,-1c0,0,1,0,1,0c0,0,-1,0,-1,-1c0,0,1,0,1,0c0,0,0,-1,0,-1c1,0,2,0,2,1c1,1,1,1,2,1c0,1,1,1,1,2l0,1c0,1,0,1,0,1l0,1c-1,0,-1,1,-1,1ZM49.5,583.5c-1,0,-1,0,-1,0c0,0,-1,1,-1,1l1,1c1,0,1,0,1,0c0,0,0,-1,0,-1l0,-1ZM50.5,583.5c0,1,0,1,0,1l0,1l2,1c0,0,0,-1,0,-1l-1,-1c0,0,-1,0,-1,-1ZM45.5,569.5c0,0,0,-1,1,-1l1,0l0,1l0,1l0,1l0,1l-1,-1l0,1l-1,0c0,1,0,1,-1,1l-1,0l1,0l0,-1c0,0,1,0,1,0l1,-1l-1,0c0,-1,0,-1,0,-1c0,-1,0,-1,0,-1ZM46.5,569.5l0,1l0,-1ZM40.5,585.5l-1,1c1,0,1,0,1,0l1,0c0,-1,0,-1,0,-1c-1,0,-1,0,-1,0ZM37.5,578.5l4,-2l-1,1l-4,2ZM70.5,586.5l0,1c0,0,-1,0,-1,0c0,0,0,1,0,1c1,0,1,0,1,0l1,-1c0,0,-1,0,-1,0ZM71.5,589.5c0,0,-1,0,-1,0c-1,0,-1,0,-1,0c0,0,-1,0,-2,0c0,0,-1,1,-1,1c0,0,0,-1,0,-1c0,0,0,-1,0,-1l1,0c1,0,1,-1,1,-1l1,0c0,-1,0,-1,0,-1l1,0c-1,-1,-1,-1,-1,-1c0,-1,-1,-1,-1,-1c0,-1,-1,-1,-1,-2c0,0,-1,-1,-2,-1c0,0,0,-1,0,-1c-1,0,-1,0,-1,0c0,0,-1,0,-1,0c0,-1,-1,-1,-1,-2l0,-1l0,-1c1,0,1,1,2,1c0,0,1,1,1,1c1,1,2,2,2,2c1,1,1,2,2,2c0,1,0,1,1,2l0,-1c1,0,1,-1,1,-2c0,0,0,-1,0,-1c0,-1,0,-1,0,-2c0,0,0,-1,0,-1l0,-1c0,0,0,-1,0,-1c0,0,0,-1,1,-1l0,1l0,1l1,0c0,0,0,1,-1,1l0,1c0,1,0,1,0,2c0,0,0,1,0,1c0,0,0,1,0,1c-1,1,-1,1,-1,2c0,1,0,1,0,1c0,0,0,1,0,1c0,0,0,1,0,1l0,1l0,1ZM68.5,572.5l0,1c0,0,1,0,1,0l0,-1l0,-1l0,1c1,1,1,1,1,1c0,0,0,-1,0,-1l0,-1l1,0l0,1l0,1c0,0,-1,1,-1,1l-1,0l0,-1l0,1c-1,0,-1,0,-1,0c0,0,-1,0,-1,0l0,-1l0,-1ZM72.5,569.5l-6,3c0,-1,1,-1,1,-1l5,-3ZM92.5,586.5c1,0,1,0,1,0c1,0,1,0,1,0c0,0,1,0,1,0c0,0,0,-1,0,-1l0,-2l-1,-6l0,-1c0,0,0,-1,0,-1c1,0,1,-1,1,-1l0,1c0,1,1,1,1,1c0,0,0,1,0,1l0,1c0,0,-1,0,-1,0c0,0,1,1,1,2c0,0,0,1,0,2c0,1,0,1,0,2l0,1c0,1,0,1,0,1l-1,0c0,1,0,1,0,1c0,0,-1,1,-1,1l-1,0l-1,0c0,0,-1,0,-1,0c-1,0,-1,0,-1,-1l0,-1l-1,0c0,0,0,-1,0,-1l0,1l-1,0l-1,0c-1,0,-1,0,-2,0l0,-1c0,-1,0,-1,1,-2c0,0,1,0,2,-1c0,0,1,0,1,0l0,-1l-1,0c0,0,1,0,1,0l0,-1l0,1c0,0,1,0,1,1c0,0,0,1,0,1l0,2c0,0,0,1,0,1c0,0,1,0,1,0c1,0,1,0,1,0ZM89.5,583.5l-1,0l-1,1l-1,1l1,0l1,0c0,0,1,-1,1,-1ZM86.5,575.5l4,-2l0,1l-1,0l-4,2ZM118.5,586.5l0,1c-1,0,-1,1,-1,1l1,0l1,-1ZM119.5,589.5l-1,0c0,0,-1,0,-1,0c0,0,-1,0,-1,0c-1,0,-1,1,-1,1l-1,0c0,0,0,-1,0,-1c0,0,0,-1,0,-1c0,0,1,0,1,0c1,0,1,-1,1,-1c0,0,1,0,1,0c0,-1,0,-1,0,-1c0,0,1,0,1,0c0,-1,-1,-1,-1,-1c0,-1,0,-1,-1,-1c0,-1,0,-1,-1,-2c0,0,-1,-1,-1,-1c-1,0,-1,-1,-1,-1c0,0,-1,0,-1,0c-1,0,-1,0,-1,0c0,-1,-1,-1,-1,-2l0,-1l0,-1c0,0,1,0,1,0c0,0,0,1,1,1c0,0,1,1,1,1c1,1,2,2,2,2c1,1,1,2,2,2c0,1,1,1,1,2c0,0,1,0,1,-1c0,0,0,-1,0,-2c0,0,0,-1,0,-1c0,-1,0,-1,0,-2c0,0,0,-1,0,-1l0,-1c0,0,0,-1,0,-1c0,0,0,-1,1,-1l0,1l0,1c0,0,1,0,1,0c0,0,0,1,0,1c0,0,-1,0,-1,1c0,1,0,1,0,2c0,0,0,1,0,1c0,0,0,1,0,1c0,1,-1,1,-1,2c0,1,0,1,0,1c0,0,0,1,0,1c0,0,0,1,0,1l0,1l0,1ZM118.5,573.5l4,-2c0,0,-1,1,-1,1l-4,2ZM115.5,573.5c-1,1,-2,1,-3,1l-1,0l-1,0c-1,0,-1,1,-1,1l0,-1l1,-2c0,1,1,1,1,1c1,0,1,0,2,0l1,0l1,0l1,-1ZM145.5,588.5l0,-1l0,-1l0,-9l0,-2l1,11c0,0,0,1,0,1c0,0,-1,1,-1,1ZM141.5,587.5c0,1,0,1,0,1c-1,0,-1,0,-1,0c0,0,-1,0,-1,-1c-1,0,-1,-1,-1,-2c0,1,0,2,-1,2c0,1,-1,1,-2,1c0,0,-1,0,-1,-1c-1,0,-1,-1,-1,-2c0,1,0,1,0,1c0,0,-1,0,-1,1c0,0,-1,0,-2,0c0,0,-1,0,-1,0c0,0,0,-1,0,-1c0,0,-1,0,-1,0c0,-1,1,-1,1,-1c0,-1,0,-1,1,-1c0,0,1,-1,1,-1l1,-1l1,0l0,-1c0,-1,0,-1,0,-1l0,1l1,1l0,3c0,0,0,1,0,1c1,0,1,0,2,0l1,0c0,-1,0,-1,0,-1c0,-1,0,-2,0,-3c0,0,0,-1,0,-1c0,0,0,-1,0,-1l0,-1l0,-1l1,2l0,2l0,2c1,0,1,1,1,1l1,1l1,0c0,-1,0,-1,0,-1c0,0,0,-1,0,-1l0,-2l-1,-1l0,-1c0,0,0,-1,0,-1l1,0l0,-1c0,0,0,1,0,1c0,1,0,1,0,2l1,1c0,1,0,2,0,2c0,1,0,2,0,2c0,0,-1,1,-1,1ZM133.5,583.5l-1,0c0,0,0,1,0,1c-1,0,-1,0,-1,0c0,0,-1,1,-1,1c1,0,2,0,2,0c0,0,1,0,1,-1ZM177.5,584.5l-1,0c0,0,0,1,0,1c0,0,1,0,1,0c0,0,1,0,1,0c0,0,-1,-1,-1,-1ZM177.5,592.5l-1,0l0,1c-1,0,-1,0,-2,0c-1,0,-1,0,-2,-1c0,0,-1,0,-1,0c0,0,1,0,1,0l1,0l1,0l1,0c0,-1,0,-1,0,-1c1,0,1,0,1,-1c1,0,1,0,1,0c0,-1,1,-1,1,-2c0,0,0,-1,0,-1l0,-1c0,1,0,1,0,1c0,0,-1,0,-1,0l-1,0c-1,0,-1,-1,-1,-1c0,0,0,-1,0,-1l0,-1c1,0,1,-1,1,-1l1,-1c1,0,1,0,1,0c0,0,0,1,1,1c0,0,0,1,0,1c0,0,0,1,0,1c0,0,0,1,0,1c0,1,0,1,0,1c0,1,0,2,-1,3c0,0,0,1,0,1c0,0,-1,1,-1,1ZM174.5,578.5l4,-2l0,1l-4,2ZM170.5,588.5l0,-1c0,0,-1,0,-2,0l-1,0c0,0,-1,0,-1,0c-1,0,-1,1,-1,1c-1,0,-1,0,-1,0c0,0,-1,0,-1,0c-1,0,-1,0,-1,0l-1,0c0,0,-1,1,-1,1c0,1,0,1,0,1c0,1,-1,1,-1,2l-1,0c0,1,0,1,0,1c-1,0,-1,0,-1,0c0,0,-1,0,-1,0l-1,0c-1,0,-1,0,-2,0l-1,0c1,-1,1,-1,1,-1l0,1c1,0,1,0,1,0c0,0,1,0,1,-1c1,0,1,0,2,0c0,0,0,-1,1,-1l0,-1c1,0,1,0,1,0c0,-1,0,-1,0,-1l0,-1c1,0,1,0,1,0l-1,0c-1,0,-1,0,-1,0l-1,0c0,0,0,-1,0,-1c0,0,0,-1,0,-1c0,-1,0,-1,0,-1c0,0,0,-1,0,-1l1,0c0,0,0,-1,0,-1c0,0,1,0,1,0c1,1,1,1,1,1l0,1c1,1,1,1,1,1c0,0,1,0,1,0l1,0c0,0,1,0,1,0c1,0,1,0,1,0c0,0,0,-1,0,-1l0,-1c0,-1,0,-1,0,-1c0,0,0,-1,1,-1l0,-1c0,0,0,-1,0,-1l1,0c0,0,1,0,2,1c0,1,1,1,1,1c1,1,1,1,1,2l0,1c0,1,0,1,0,1l0,1c0,0,0,1,-1,1ZM167.5,583.5c0,0,-1,0,-1,0c0,0,0,1,0,1l0,1l1,0c0,0,1,-1,1,-1c-1,0,-1,0,-1,-1ZM168.5,583.5c1,1,1,1,1,1l-1,1l2,1c0,0,1,0,1,0c0,0,-1,-1,-1,-1l0,-1c-1,0,-1,0,-1,0l-1,-1ZM163.5,569.5c1,0,1,-1,1,-1c0,0,1,0,1,0c1,0,1,0,1,1l0,1l-1,0l1,1l0,1l-1,-1l-1,1c-1,1,-1,1,-1,1l-1,0l-1,0l1,0l1,-1l1,-1c-1,-1,-1,-1,-1,-1c0,-1,0,-1,0,-1ZM165.5,569.5l-1,0l0,1l1,0l0,-1ZM158.5,585.5l0,1c1,0,1,0,1,0c0,0,1,0,1,0c0,0,-1,0,-1,0c0,-1,0,-1,0,-1l-1,0ZM155.5,578.5l4,-2l0,1l-5,2ZM210.5,586.5c0,0,0,1,0,2l-1,1l0,1l1,0l-1,1l-1,0l0,1l-1,0c0,0,0,1,-1,1l-1,0l-1,1l-1,0l-1,1l-1,1l-3,0l-3,0l-1,-1l0,-1c-1,0,-1,0,-1,0c-1,0,-2,-1,-3,-1l-1,-1l-1,0l0,-1l-1,0l0,-1l-1,0l2,0l-1,-1l0,-1l-1,0l0,-1c0,0,0,-1,0,-1l0,-1l0,-1c0,0,0,-1,1,-1c0,-1,0,-1,0,-1l1,-1l-2,0c0,0,1,0,1,-1l1,0l0,-1l1,0l1,-1l1,0l2,-1l1,0l0,-1c1,-1,1,-1,1,-1l3,0l3,0l1,1l1,1l2,1l1,0c0,0,1,1,1,1l1,0l0,1c1,0,1,0,2,1l-1,0l0,1l0,1l1,0l0,1l0,1ZM201.5,596.5l0,-1l1,0l0,-1l1,0c1,-1,1,-1,2,-1l1,0c0,-1,1,-1,1,-1l1,-1l1,-1l-1,0l1,-1l0,-1l1,-1l0,-1c0,-1,0,-2,-1,-3l0,-1l-1,-1l1,0c0,0,0,-1,-1,-1l0,-1l-1,0l-1,0l-1,-1l-2,-1l-1,-1l-1,0c0,-1,0,-1,0,-1l-1,0l-2,0l-1,0l-2,0l0,1l-1,0l0,1c-1,0,-1,0,-1,0l-2,1l-1,1l-1,0l-1,1c0,0,-1,0,-1,1l1,0l-1,1l0,1l0,1l-1,0l0,1l0,1l0,1l1,0l0,1l0,1l1,0l0,1l-1,0l0,1l1,0l1,1l1,0l0,1l1,0l1,0l1,1l1,0l0,1l1,0c0,0,0,1,0,1l3,0ZM207.5,581.5l-1,0l-1,-1l-1,0c0,0,-1,0,-1,0c0,-1,1,-1,1,-1l-1,0c0,0,1,0,1,0l1,0c0,0,1,1,1,1l1,0ZM207.5,590.5l0,1l-1,0l-1,1l-1,0l-1,0l1,0l-1,0c1,0,1,0,1,-1l1,0c1,0,1,-1,1,-1l1,0ZM202.5,592.5c0,1,0,1,0,1c0,1,-1,1,-1,1l-3,0l-3,0c0,0,-1,0,-1,-1l0,-1c0,0,0,-1,1,-1l3,0l3,0l1,0l0,1ZM202.5,579.5c0,1,0,1,-1,1l-3,0l-3,0c0,0,-1,0,-1,-1c0,-1,0,-1,0,-1l1,-1l3,0l3,0c0,0,1,0,1,1ZM201.5,581.5l1,0l1,0c0,0,1,0,1,0l1,1l2,0l0,1l1,1l0,1l0,1c0,1,0,1,0,1l-1,1l0,1l-1,0c-1,0,-1,0,-1,0l0,1c0,0,-1,0,-1,0l-1,0l-1,0c0,0,-1,0,-1,0l-3,0l-3,0l-1,0l-1,0c0,0,-1,0,-1,0l-1,-1l-1,0l-1,0l0,-2l-1,-1c0,-1,0,-1,0,-1c0,-1,1,-1,1,-1l0,-1l0,-1c0,0,1,0,1,0l1,0l1,-1c1,0,1,0,1,0c1,0,1,0,1,0l1,0l3,0ZM201.5,590.5l1,0l1,0l1,0l0,-1l1,0l1,0l1,-1l0,-1l0,-1l1,0c0,-1,-1,-2,-1,-2c0,-1,0,-1,0,-1c0,-1,0,-1,-1,-1l-1,1c0,0,0,-1,0,-1l-1,-1l-1,0c-1,0,-1,0,-1,0l-1,0l0,1l-3,0l-3,0l0,-1l-1,0l-1,0c0,0,-1,0,-1,0l0,1l-1,0c0,0,0,1,0,1l-1,-1l-1,1l0,1l0,1l0,1l0,1l0,1c0,0,0,1,1,1l1,0l1,0l0,1l1,0c1,0,1,0,1,0c1,0,1,0,1,0l0,-1l3,0l3,0ZM199.5,584.5c1,0,1,0,1,0l0,1l0,1l0,1l1,0l-1,1c0,0,0,-1,0,-3c-1,1,-1,1,-1,1c0,0,-1,0,-1,-1l0,-1l1,0ZM199.5,584.5l0,1l1,0l-1,0c0,-1,0,-1,0,-1ZM195.5,584.5l1,0l1,0l0,1l0,1c0,0,1,1,1,1l-1,1l0,-1l0,-1l0,-1l-1,0c0,0,-1,0,-1,0l0,-1ZM189.5,581.5l1,-1l1,-1l1,0l1,0l0,1c-1,0,-1,0,-1,0c0,0,-1,0,-1,0l0,1l-1,0ZM189.5,590.5l1,0c0,0,1,1,1,1l1,0l0,1l1,0l-1,0c-1,0,-2,0,-2,-1l-1,0ZM278.5,591.5l-1,-1l-1,2l-2,-1l1,-2l2,1l0,-1l2,1ZM275.5,588.5l-1,0c-1,0,-1,0,-1,0c-1,0,-1,0,-2,0c0,-1,0,-1,0,-1l-1,-1c0,0,0,1,0,1l-1,0l-1,1l-1,0l-1,0c-1,0,-1,0,-2,0c0,0,0,-1,-1,-2c0,1,0,1,0,2c-1,0,-1,0,-1,0l-1,0c0,0,-1,0,-1,0c0,0,-1,0,-1,0c0,-1,0,-1,0,-1c0,0,-1,0,-1,1c-1,0,-1,0,-1,0l-1,0l-1,0c0,0,-1,1,-1,1c0,1,0,1,0,1c0,1,-1,1,-1,2l-1,0c0,1,0,1,0,1c-1,0,-1,0,-1,0c0,0,-1,0,-1,0l-1,0c-1,0,-1,0,-2,0l-1,0c0,-1,1,-1,1,-1l0,1c1,0,1,0,1,0c0,0,1,0,1,-1c1,0,1,0,2,0c0,0,0,-1,1,-1l0,-1c1,0,1,0,1,0c0,-1,0,-1,0,-1l0,-1c1,0,1,0,1,0c0,0,-1,0,-1,0l-1,0l-1,0c0,0,0,-1,0,-1c0,0,0,-1,0,-1c0,-1,0,-1,0,-1c0,0,0,-1,0,-1l1,0c0,0,0,-1,0,-1c0,0,1,0,1,0c1,1,1,1,1,1l0,1c1,1,1,1,1,1l1,0c0,0,1,0,1,0c0,0,1,0,1,0l0,-1c1,0,1,0,1,-1l0,1c0,1,0,1,1,1c0,0,1,0,1,0c0,0,1,0,1,0c0,0,1,0,1,-1l0,-1c0,-1,0,-1,0,-1l0,-7l1,-2l0,11l0,1l1,0l1,0c1,0,1,0,1,0l1,0l1,0l0,-1c-1,0,-1,0,-1,-1c-1,0,-1,0,-1,0l1,-1c0,-1,0,-1,1,-1c0,0,1,0,1,0l1,0c1,0,1,0,1,1l0,1c0,1,0,1,0,1l-1,1l1,0l1,0l1,0l1,0c1,0,1,0,2,0l1,0l0,-1l0,-1c-1,0,-1,0,-1,0l0,-1l1,-1c0,0,0,1,0,1c0,1,0,1,0,1l1,0c0,1,0,1,0,1l-1,0c0,1,0,1,0,1c0,1,0,1,0,1c0,0,-1,1,-1,1c-1,0,-1,0,-2,0ZM277.5,572.5c0,0,1,0,1,-1l1,0c0,0,0,1,0,1c0,0,0,1,0,1c0,0,0,1,0,1l1,0l-1,1l-1,0l0,1c-1,0,-1,0,-1,0l-1,1l-1,0l1,-1c1,0,1,-1,1,-1l1,0l0,-1l-1,0l0,-1l0,-1ZM278.5,572.5c0,1,0,1,0,1l1,0l-1,0ZM266.5,574.5c0,0,1,-1,1,-1c0,0,1,0,1,0c1,0,1,0,2,0c0,0,0,1,0,1c0,1,0,1,0,1c-1,0,-1,1,-1,1c0,0,-1,0,-1,0l-1,0l-1,0l2,0c1,-1,1,-1,2,-1c-1,0,-1,-1,-1,-1c-1,0,-1,0,-1,0c0,0,-1,0,-1,1c-1,0,-1,0,-1,0c0,-1,0,-1,0,-1ZM264.5,594.5l-4,2c0,0,0,-1,1,-1l3,-2ZM258.5,584.5l-1,-1l1,-2l1,1ZM259.5,572.5l1,-1c1,0,1,0,1,0c0,0,0,1,0,1c0,0,0,1,0,1c0,0,0,1,0,1l0,1l-1,0l-1,1l-1,0l0,1l-1,0l0,-1l1,0c0,0,0,-1,1,-1l0,-1l0,-1l0,-1ZM260.5,572.5c0,0,-1,0,-1,0c0,1,0,1,1,1ZM252.5,585.5l0,1c1,0,1,0,1,0c0,0,1,0,1,0c0,0,-1,0,-1,0c0,-1,0,-1,0,-1l-1,0ZM233.5,586.5l-1,-1l1,-1l1,1ZM246.5,588.5l0,1c-1,0,-1,0,-1,1c0,0,-1,0,-1,0c0,1,-1,1,-1,1c-1,0,-1,0,-2,1c-1,0,-2,0,-3,0c-1,0,-1,1,-3,1c0,0,-1,0,-2,0c0,0,-1,0,-1,0l-1,0c0,0,-1,0,-2,0c0,0,-1,0,-1,0c-1,0,-2,-1,-3,-1c-1,0,-1,0,-2,-1c-2,0,-3,-1,-3,-1c-1,-1,-2,-1,-3,-2l-1,0c0,-1,0,-1,0,-1l1,0c0,0,0,1,0,1c1,0,1,0,2,0c0,1,1,1,2,1c0,0,1,1,1,1c1,0,1,0,2,0c1,0,1,1,2,1c1,0,1,0,2,0c1,0,1,0,2,0c0,0,1,0,2,0c0,0,1,0,1,0c1,0,2,0,2,0c1,0,2,0,3,0c1,0,2,-1,3,-1c1,0,1,0,2,-1c2,0,3,-1,3,-2c0,0,-1,0,-1,-1c0,-1,0,-1,0,-1c0,0,-1,-1,-1,-1l1,-2l1,2l0,1c0,1,0,1,0,1l0,1c0,1,0,1,0,1ZM224.5,579.5l1,-1l3,-1l5,-2l5,-1l-1,1l-1,1l-1,0l-2,0l-5,2l-4,2ZM304.5,584.5l-1,0c0,0,0,1,0,1c0,0,1,0,1,0l1,0c-1,0,-1,-1,-1,-1ZM304.5,592.5c0,0,-1,0,-1,0l0,1c-1,0,-1,0,-2,0c-1,0,-1,0,-2,-1c0,0,-1,0,-1,0c0,0,1,0,1,0l1,0c1,0,1,0,1,0l1,0c0,-1,0,-1,0,-1c1,0,1,0,1,-1c1,0,1,0,1,0c0,-1,1,-1,1,-2c0,0,0,-1,0,-1l0,-1c0,1,0,1,0,1c0,0,-1,0,-1,0c0,0,-1,0,-1,0c-1,0,-1,-1,-1,-1c0,0,0,-1,0,-1l0,-1c0,0,1,-1,1,-1l0,-1c1,0,1,0,1,0c1,0,1,0,1,0c0,0,0,1,1,1c0,0,0,1,0,1c0,0,0,1,0,1c0,0,0,1,0,1c0,1,0,1,0,1c0,1,0,2,-1,3c0,0,0,1,0,1c-1,0,-1,1,-1,1ZM301.5,578.5l4,-2l0,1l-4,2ZM297.5,588.5l-1,0l0,-1c0,0,-1,0,-1,0l-1,0c0,0,-1,1,-1,1l-1,0l-1,0l-1,0c0,0,-1,0,-1,-1c-1,0,-1,-1,-1,-1l-1,-9l1,-2l1,10l0,1c0,0,1,0,1,0l1,0l1,0c1,0,1,0,1,0l1,0l0,-1c1,-1,1,-1,1,-2l1,0c1,0,1,0,1,0c0,1,1,1,1,2l0,1l0,1c0,0,-1,0,-1,1ZM295.5,585.5l1,0l1,1c0,0,0,-1,0,-1c-1,0,-1,-1,-1,-1c0,0,-1,1,-1,1ZM292.5,575.5l5,-2l-1,1l-4,2ZM372.5,584.5c-1,1,-1,1,-1,1l-1,0l-1,1l-1,1l2,0c1,0,2,0,2,-1c1,0,2,0,2,0c1,0,1,0,2,-1l-1,0l0,-1c-1,0,-1,0,-1,0c-1,0,-1,0,-2,0ZM367.5,586.5l1,0l2,-2l1,-1c0,0,1,0,1,0c0,0,1,-1,1,-1c0,0,1,0,1,0c0,0,1,0,1,0c0,0,0,1,1,1l0,1l1,0l0,1c0,0,-1,1,-1,1l0,1c-1,0,-1,0,-2,0c-1,1,-1,1,-3,1c-1,0,-2,0,-2,0l-1,0l-1,0l0,1c0,1,0,1,0,1c0,0,-1,0,-1,0l0,-1c0,0,0,-1,0,-1l-1,0c0,-1,0,-1,0,-1c0,0,-1,0,-1,1l-1,0l-1,0l-2,0c-1,0,-1,0,-1,0l0,-1l-1,0c0,-1,0,-1,0,-1l0,1c0,0,-1,0,-1,0c-1,1,-1,1,-2,1l-1,0l-1,0c-1,0,-1,0,-1,-1l-1,0l0,-1l1,0c0,-1,0,-1,0,-1l0,1l1,0l1,0l1,0l1,0l1,0l0,-1l1,0c0,0,0,-1,0,-1l-1,-2l0,-1l0,-1l1,-1l0,1c0,1,0,1,1,2l0,2c0,1,0,1,0,1c0,1,0,1,0,1c1,0,1,0,1,0l2,0l1,0l1,0l1,-1l1,0c0,1,0,1,0,1ZM367.5,572.5l0,-1c1,0,1,0,1,0c1,0,1,0,1,0c0,0,0,1,0,1c0,0,0,1,0,1c0,0,0,1,0,1l0,1l-1,0l-1,1l-1,0l0,1l-1,0l0,-1l1,0c0,0,0,-1,1,-1l0,-1l0,-1l0,-1ZM368.5,572.5c0,0,-1,0,-1,0c0,1,0,1,1,1ZM355.5,572.5l1,-1l1,0c0,0,0,1,0,1c0,0,0,1,0,1c0,0,0,1,0,1l0,1l-1,0l-1,1l-1,0l0,1l-1,0l0,-1l1,0c0,0,0,-1,1,-1l1,-1l-1,0l0,-1l0,-1ZM356.5,572.5l-1,0c0,1,1,1,1,1ZM347.5,584.5c-1,0,-1,0,-1,0c0,0,0,1,0,1l1,0c0,0,0,-1,0,-1ZM347.5,592.5c-1,0,-1,0,-1,0l-1,1c0,0,-1,0,-1,0l-1,0c0,0,-1,0,-1,-1c-1,0,-1,0,-1,0l1,0c1,0,1,0,1,0c0,0,1,0,1,0c1,-1,1,-1,1,-1c0,0,1,0,1,-1c0,0,1,0,1,0c0,-1,0,-1,1,-2c0,0,0,-1,0,-1l0,-1c0,1,0,1,0,1c-1,0,-1,0,-1,0l-1,0c-1,0,-1,0,-1,0c0,0,0,-1,0,-1c0,0,0,-1,0,-1l0,-1c0,0,0,-1,1,-1l0,-1c0,0,1,0,1,0l1,0c0,0,0,1,0,1c0,0,0,1,1,1c0,0,0,1,0,1c0,0,0,1,0,1c0,1,0,1,0,1c0,1,-1,2,-1,3c0,0,0,1,-1,1c0,0,0,1,0,1ZM333.5,591.5c0,0,1,0,1,0l1,0c1,0,2,0,3,-1l1,-1c0,0,1,-1,1,-1c0,0,0,-1,1,-1l0,-1l-1,0l0,-1l0,-1l-1,0l1,-1l0,-1l1,1c0,0,0,1,0,1l0,1l0,1c0,1,0,1,0,2c0,1,0,1,0,1c0,1,-1,1,-1,1c0,0,0,1,-1,1l0,1l-1,0c0,0,-1,0,-1,0l-1,0c0,0,-1,0,-1,0c-1,0,-1,0,-1,0ZM338.5,576.5c0,-1,1,-1,1,-1c0,0,0,-1,1,-1c0,0,0,1,0,1l0,1l0,1l1,1l-1,1l-1,-1l0,1c-1,0,-1,1,-1,1l-1,0l-1,0l1,0l0,-1c1,0,1,0,1,0l0,-1l1,0l-1,-1l0,-1ZM339.5,576.5l0,1l1,0l0,-1l-1,0ZM333.5,588.5l-1,-1c0,0,-1,0,-2,0l-1,0c0,0,-1,0,-1,0c-1,0,-1,1,-1,1c0,0,-1,0,-1,0c0,0,-1,0,-1,0c-1,0,-1,0,-1,0l-3,0l-1,0l0,-1l0,1l0,1l0,1c0,0,-1,0,-1,0l-1,-1c0,0,0,-1,-1,-1l0,-1l-1,0c0,1,-1,1,-1,1l0,1l0,1l0,1l0,2l1,0l0,2c0,1,0,1,0,1l0,1l0,1l-1,0l0,-1l0,-1l0,-1l-1,-3l0,-1l0,-1l0,-1l0,-1c1,-1,1,-1,1,-2l1,0l0,-1l1,0l1,0l0,-1c1,1,1,1,2,2l2,0l1,0l2,0c0,0,1,0,1,0c1,0,1,0,1,0c0,0,0,-1,0,-1l0,-1c0,-1,0,-1,0,-1c0,0,1,-1,1,-1l0,-1c0,0,0,-1,0,-1l1,0c0,0,1,0,2,1c0,1,1,1,1,1c1,1,1,1,1,2l0,1c0,1,0,1,0,1l0,1c0,0,0,1,0,1ZM329.5,583.5l-1,0c0,0,0,1,0,1l0,1l1,0c0,0,1,-1,1,-1c-1,0,-1,0,-1,-1ZM331.5,583.5c0,1,0,1,0,1l0,1c-1,0,-1,0,-1,0l2,1c1,0,1,0,1,0c0,0,-1,-1,-1,-1l0,-1c-1,0,-1,0,-1,0l0,-1ZM326.5,569.5c0,0,0,-1,0,-1c0,0,1,0,1,0c1,0,1,0,1,1l0,1l-1,0l1,1l0,1l-1,-1l-1,1c-1,1,-1,1,-1,1l-1,0l-1,0l1,0l1,-1l1,0l0,-1c-1,-1,-1,-1,-1,-1c0,-1,0,-1,1,-1ZM327.5,569.5l-1,0l0,1l1,0l0,-1ZM314.5,577.5l1,0c0,0,1,0,1,0c1,0,1,0,2,0l0,1l0,1c-1,0,-1,0,-1,0c-1,0,-1,1,-1,1c0,0,-1,0,-1,0c0,0,-1,0,-1,0l2,-1c0,0,1,0,1,-1c-1,0,-1,0,-1,0c-1,0,-1,0,-1,0c-1,0,-1,0,-1,0c0,0,0,-1,0,-1ZM337.5,524.5c0,-1,0,-1,0,-2c0,0,0,-1,0,-1l0,-1c0,1,0,1,0,1c0,0,0,1,1,1c0,1,0,1,0,1c0,0,-1,0,-1,0c0,0,0,1,0,1ZM336.5,525.5l0,1c0,0,1,0,1,0l0,-1l1,0l0,1c1,0,1,0,1,-1l0,-1l0,1l0,1c0,1,0,1,0,1l-1,0l-1,0c0,0,0,1,-1,1c0,0,0,-1,0,-1c0,0,0,-1,0,-1ZM135.5,570.5c0,0,0,-1,0,-1c0,-1,0,-1,0,-1l0,-1l0,1l0,1l0,1ZM134.5,572.5l0,1l1,0l0,-1l0,-1l1,0l0,1c0,0,1,0,1,0l0,-1l0,1l0,1l-1,0l-1,0l0,1l-1,0l0,-1l0,-1ZM77.5,586.5l0,-1l0,-1l-1,-8l1,-3l1,11l0,1l-1,0c0,1,0,1,0,1ZM79.5,588.5l-4,2c0,-1,1,-1,1,-1l3,-2ZM100.5,586.5l0,-1l0,-1l-1,-8l1,-3l1,11l0,1c-1,1,-1,1,-1,1Z" class="g1_24" />
</svg>