<?xml version="1.0" encoding="UTF-8" standalone="no"?>
<!DOCTYPE svg PUBLIC "-//W3C//DTD SVG 1.1//EN"
"http://www.w3.org/Graphics/SVG/1.1/DTD/svg11.dtd">
<svg version="1.1" xmlns="http://www.w3.org/2000/svg" xmlns:xlink="http://www.w3.org/1999/xlink">
<defs>
<style type="text/css"><![CDATA[
.g1_27{
stroke: #1F1A17;
stroke-width: 1;
stroke-linecap: butt;
stroke-linejoin: miter;
}
]]></style>
</defs>
<path fill-rule="evenodd" d="M415.5,130.5l5,-2l-1,1l-4,2ZM384.5,289.5c-1,0,-1,0,-2,0l-1,0c0,0,-1,0,-1,0c-1,0,-1,0,-1,0c-1,0,-1,0,-1,0l0,-1l0,-1l1,0l1,0c1,0,1,-1,1,-1l1,0c0,0,0,-1,0,-1l-1,-1l0,-1c-1,0,-1,-1,-2,-1c0,0,0,-1,-1,-2c0,0,-1,0,-1,0c0,-1,0,-1,0,-1c-1,0,-1,0,-1,0l-1,0l0,-1c-1,0,-1,0,-1,-1c0,-1,0,-1,0,-1l1,-1l0,1c0,0,1,0,1,1c1,0,1,0,2,1c0,1,1,1,2,2c0,0,1,1,1,2c1,0,1,1,1,1c0,1,1,1,1,1c0,0,0,-1,0,-1c0,-1,0,-1,0,-2c0,-1,0,-1,0,-2l0,-1c0,-1,0,-1,0,-2c0,-1,0,-1,0,-1c0,-1,1,-1,1,-1c0,1,0,1,0,1c1,0,1,0,1,1l0,1l-1,0c0,0,0,1,0,1c0,0,0,1,0,1c0,1,0,1,0,2l0,1c0,0,0,1,0,2c-1,0,-1,1,-1,1c0,1,0,1,1,1c0,1,0,1,0,1c0,1,0,1,0,1l0,1ZM383.5,286.5l-1,1l-1,0c1,0,1,0,1,0l1,0l0,-1ZM83.5,280.5c0,1,0,1,-1,2l0,1c0,0,-1,1,-1,1l1,0l0,1l-1,0c0,0,0,1,0,1l-1,0c0,1,-1,1,-1,1l-1,0l-1,1l-1,0l-1,0l0,1l-1,1l-3,0l-3,0l-3,0c-1,0,-1,0,-1,-1l-1,-1l-1,0c-1,0,-1,-1,-2,-1l-1,0l0,-1l-1,0l0,-1l-1,0l-1,0l0,-1l1,0l0,-1l-1,-1l0,-1l0,-1l0,-1l0,-1l0,-1c0,0,1,-1,1,-1l-1,-1l1,0l0,-1l1,0l0,-1l1,0l1,0l1,-1l1,-1c1,0,1,0,1,0l1,-1c0,0,0,-1,1,-1l3,0l3,0l3,0l1,1l0,1l1,0l2,1l1,0c0,1,0,1,1,1l1,1c1,0,1,1,1,1l-1,1l1,0l0,1l0,1l1,0l0,1ZM74.5,290.5l0,-1l1,0l0,-1l1,0c1,0,1,-1,1,-1c0,0,1,0,1,0c1,0,1,-1,2,-1c1,-1,1,-1,1,-1l1,0l0,-1l-1,0l0,-1l1,0l0,-1l0,-1l0,-1c0,-1,0,-2,0,-3c0,-1,-1,-1,-1,-1l0,-1l1,0c0,0,-1,-1,-1,-1l-1,0l0,-1l-1,0l-2,-1l-1,0c0,0,-1,-1,-1,-1l-1,-1l-1,0l-2,0l-1,0l-2,0l-1,0l-2,0l-1,0l-1,1c0,0,0,1,0,1l-2,0l-1,1l-1,0l-1,0l0,1c-1,0,-1,1,-2,1l2,0l0,1l-1,0l0,1l-1,0l0,1l0,1l0,1l0,1l0,1l1,0c0,1,0,1,0,1l1,1l-2,0l1,1l1,0l0,1l1,0l1,1l1,0l1,1c1,0,1,0,1,0l1,1c0,1,1,1,1,1l3,0l3,0ZM79.5,275.5l-1,0l0,-1l-1,0l-1,0c0,0,0,-1,0,-1l1,0c1,0,1,0,1,1c0,0,1,0,1,0l0,1ZM80.5,285.5l-1,0l-1,1l-1,0l-1,1l0,-1c1,0,1,0,1,0l1,-1c0,0,1,0,1,-1ZM75.5,287.5l0,1c-1,0,-1,0,-1,0l-3,0l-3,0l-3,0c-1,0,-1,0,-1,0c0,-1,0,-1,0,-1c-1,0,-1,0,-1,0c0,-1,1,-1,1,-1l1,-1l3,0l3,0l3,0l0,1l1,0ZM75.5,273.5l0,1c0,0,-1,0,-1,0l-3,0l-3,0l-3,0c-1,0,-1,0,-1,0l0,-1l-1,0c0,-1,1,-1,1,-1l1,0l0,-1l3,0l3,0l3,0c0,1,0,1,1,1l0,1ZM74.5,275.5l1,0l1,0l1,0l1,1l1,0l1,1l0,1l0,1l1,0l0,1l-1,1l0,1c0,0,0,1,0,1c0,0,-1,0,-1,0l-1,0l-1,1l-1,0l0,1l-1,0c0,-1,0,-1,0,-1c-1,0,-1,0,-1,0l-3,0l-3,0l-3,0l-1,0l-1,1c0,0,-1,-1,-1,-1c0,0,-1,0,-1,0l0,-1l-1,0l-1,0l-1,-2l0,-1c0,-1,0,-1,0,-1c0,-1,0,-1,0,-1l0,-1l1,0c0,-1,0,-1,0,-1l2,0l1,-1c0,0,1,0,1,0c0,0,1,0,1,0l1,0l3,0l3,0ZM74.5,284.5l1,0l1,0l1,0l1,-1l1,0l1,-1l0,-1l0,-1c0,-1,0,-1,0,-2c0,0,0,-1,0,-1c-1,0,-1,-1,-1,-1l-1,1l-1,-1l-1,-1c-1,0,-1,0,-1,0l-1,0l0,1l-3,0l-3,0l-3,0l-1,-1l-1,0l-1,0l0,1l-1,0c0,1,0,1,-1,1l-1,-1c0,0,0,1,0,1l-1,1l0,1l0,1l0,1l1,0l0,1c0,0,0,1,0,1l1,0c1,0,1,0,1,0l0,1l1,0l1,0c1,0,1,0,1,0l1,0l3,0l3,0l3,0ZM72.5,279.5c1,0,1,0,1,0l0,1l0,1c0,0,0,1,0,1l-1,0c0,0,-1,0,-1,0l0,-1c0,-1,0,-1,0,-1l1,0l0,-1ZM72.5,280.5l-1,1c0,0,1,0,1,0l1,0c0,-1,0,-1,0,-1l-1,0ZM69.5,279.5c1,0,1,0,1,0l0,1l0,1c0,0,0,1,0,1l-1,0c0,0,-1,0,-1,0l0,-1c0,-1,0,-1,0,-1l1,0l0,-1ZM69.5,280.5c0,0,-1,0,-1,1c0,0,1,0,1,0l1,0c0,-1,0,-1,0,-1l-1,0ZM67.5,278.5l0,1l-1,0l0,1l0,1c0,0,0,1,0,1l0,-1l0,-1c-1,0,-1,0,-1,0l0,-1l0,-1c0,0,1,1,1,1c1,0,1,-1,1,-1ZM59.5,275.5l0,-1l1,0l1,0l0,-1l1,0l1,0l-1,0c0,1,0,1,1,1c-1,0,-1,0,-1,0l-1,0l-1,1l-1,0ZM59.5,285.5l0,-1l1,0c0,1,0,1,1,1l1,1l0,1l0,-1l-1,0c0,0,-1,0,-1,-1l-1,0ZM132.5,287.5l0,-2l0,-1l0,-8l1,-3l0,11l0,1c0,1,-1,1,-1,2ZM124.5,285.5c1,0,1,0,1,0c1,0,1,0,1,0c1,-1,1,-1,1,-1l0,-1l0,-2l0,-6c0,0,-1,0,-1,0l0,-1l1,-1c0,0,0,1,0,1c1,0,1,0,1,0c0,1,0,1,0,1c0,1,0,1,0,1c0,0,0,1,0,2c0,0,0,1,0,3l0,1l0,1c0,0,0,1,0,1c0,0,0,1,0,1c0,0,-1,0,-1,0c0,1,0,1,0,1l-1,0c-1,0,-1,0,-1,0l-1,0c0,0,-1,0,-1,0c-1,0,-1,0,-1,0c0,0,-1,0,-1,-1c-1,0,-1,0,-1,0l-1,1c-1,0,-1,0,-1,0l-1,0l-1,0l-10,0l0,1c0,1,0,1,0,2c0,0,-1,0,-1,0l0,-1c0,0,0,-1,0,-1l0,-1l-1,0c0,0,-1,0,-1,0c0,0,-1,0,-1,0l0,-1c0,0,-1,1,-1,1c-1,0,-1,0,-2,0l-1,0c0,0,-1,0,-1,0c0,0,-1,0,-1,0c0,0,0,1,-1,1c0,0,-1,0,-1,0c-1,-1,-2,-1,-2,-1l0,1c-1,0,-1,1,-2,1c0,1,-1,1,-2,1c-1,0,-2,0,-3,0l4,-2l1,0c1,-1,1,-1,2,-1l0,-2c1,-1,1,-1,1,-1c0,0,1,-1,1,-1l1,0c0,0,0,1,1,1c0,1,1,1,1,1c0,1,0,1,1,1l1,0c0,0,1,0,1,0c0,0,1,-1,1,-1c1,-1,1,-1,1,-1c0,1,0,1,0,1l1,1c0,0,1,0,1,0l1,0c1,0,1,0,1,-1c0,0,1,0,1,-1l0,-1l0,-2l0,-1l-1,-3l0,-1l0,-1l0,-1l1,0l1,2c-1,0,-1,1,-1,1l0,1l0,1l0,1l1,1l0,2l-1,1l0,1l2,-2l1,0l0,-1c1,0,1,0,2,0c1,0,2,0,2,0c0,0,1,1,1,1l0,1c0,1,0,1,-1,1l0,1l-1,0l2,0l1,0l1,0c0,0,1,0,1,0l0,-1l1,0l1,0l-1,0l0,-1c0,0,-1,0,-1,0c0,0,-1,0,-1,0l1,-2c0,0,1,0,1,0c1,-1,1,-1,1,-1l1,0c0,1,0,1,0,1l1,0l1,0l0,1l0,1l-1,0l0,1l0,1l1,0l1,0ZM98.5,274.5c0,-1,0,-1,1,-1l1,0c0,0,1,0,1,0c1,0,1,1,1,1c0,1,-1,1,-1,1c0,0,0,1,0,1c0,0,-1,0,-1,0c-1,0,-1,0,-1,0l-1,0l2,-1c0,0,1,0,1,0c0,-1,0,-1,-1,-1c-1,0,-1,0,-2,0c0,0,0,1,-1,1l0,-1c1,0,1,0,1,0ZM125.5,269.5c0,-1,0,-1,1,-1l1,0c0,0,1,0,1,0c1,0,1,1,1,1c0,0,-1,1,-1,1l0,1c0,0,-1,0,-1,0c-1,0,-1,0,-1,0l-1,0l2,-1c0,0,1,0,1,-1l-1,0c-1,0,-1,0,-2,0l-1,1l0,-1c1,0,1,0,1,0ZM119.5,273.5l5,-2l-1,1l-4,2ZM111.5,279.5l-2,-1l1,-2l2,1ZM114.5,283.5l-1,0l0,-1c-1,0,-1,0,-1,0c-1,0,-1,1,-2,1l-1,1l-1,0l-1,1l1,0c1,0,1,0,1,0c1,0,1,0,1,0c1,0,1,-1,1,-1c1,0,2,0,3,-1ZM109.5,290.5l-4,2c0,-1,0,-1,0,-1l4,-2ZM103.5,290.5l-1,-1l-1,1l-2,-1l1,-1l2,1l0,-2l2,1ZM95.5,285.5l0,-1c-1,0,-1,0,-1,0c-1,0,-1,0,-1,0c0,0,0,1,1,1l1,0ZM92.5,274.5c0,0,0,-1,0,-1c1,0,1,0,1,0c0,0,1,0,1,0l0,1l0,1l0,1l0,1l-1,0l-1,0c0,1,-1,1,-1,1l-1,0l1,-1l1,0l0,-1c0,0,0,-1,0,-1c0,0,0,-1,0,-1ZM93.5,274.5c-1,0,-1,0,-1,0l0,1l1,0l0,-1ZM170.5,287.5l0,-2l0,-1l0,-8l1,-3l0,11l0,1c0,1,-1,1,-1,2ZM162.5,285.5c1,0,1,0,1,0c1,0,1,0,1,0c1,-1,1,-1,1,-1l0,-1l0,-2l0,-6c-1,0,-1,0,-1,0l0,-1l1,-1c0,0,0,1,0,1c1,0,1,0,1,0c0,1,0,1,0,1c0,1,0,1,0,1c0,0,0,1,0,2c0,0,0,1,0,3l0,1l0,1c0,0,0,1,0,1c0,0,0,1,0,1c-1,0,-1,0,-1,0c0,1,0,1,0,1l-1,0c-1,0,-1,0,-1,0l-1,0c0,0,-1,0,-1,0c-1,0,-1,0,-1,0c0,0,-1,0,-1,-1l-1,0l-1,1l-1,0l-1,0l-1,0c0,0,-1,0,-1,0c-1,0,-1,-1,-1,-2l0,1l-1,0l0,1c0,0,-1,0,-1,0l-1,0c0,1,1,1,1,1c0,0,1,0,1,0c1,0,1,0,1,0c0,0,0,1,0,1c0,1,0,1,0,1c-1,1,-1,1,-1,1c0,0,0,1,-1,1c-1,0,-1,1,-2,1c-1,0,-2,0,-3,0c-1,0,-1,0,-2,0c-1,0,-1,0,-2,-1l0,-1c-1,0,-1,-1,-1,-1c0,-1,0,-1,0,-1c0,0,0,-1,1,-1c0,-1,0,-2,1,-2c0,0,0,-1,0,-1c0,0,0,1,0,1c0,0,0,1,-1,1c0,1,0,1,0,2c0,1,1,1,1,2c1,0,2,1,3,1c1,0,1,0,2,-1c0,0,1,0,1,0c1,0,1,0,2,-1c0,0,1,0,1,0c-1,-1,-1,-1,-2,-1c0,0,-1,0,-1,0c0,-1,0,-1,0,-1l0,-1l1,0c0,-1,0,-1,1,-1c0,0,1,0,1,0c0,0,0,-1,0,-1c0,0,0,-1,0,-1c0,0,1,0,1,-1l-1,0c0,0,0,-1,0,-1l0,-6l1,-2l1,10c0,0,0,1,0,1c0,1,0,1,0,1c1,0,1,0,1,0l1,0c0,0,1,0,1,0l0,-1l1,0l0,-1c0,0,-1,0,-1,0c0,0,-1,0,-1,0l1,-2c0,0,1,0,1,0c1,-1,1,-1,1,-1l1,0c0,1,0,1,0,1l1,0c1,0,1,0,1,1l0,1l-1,0l0,1l0,1l1,0l1,0ZM163.5,269.5c0,-1,0,-1,1,-1l1,0c0,0,1,0,1,0c1,0,1,1,1,1c0,0,-1,1,-1,1l0,1c-1,0,-1,0,-1,0c-1,0,-1,0,-1,0l-1,0l1,-1c1,0,2,0,2,-1c0,0,-1,0,-1,0l-1,0l-1,0l-1,1l0,-1c0,0,1,0,1,0ZM157.5,273.5l5,-2l-1,1l-4,2ZM154.5,294.5l-4,2c0,0,0,-1,0,-1l4,-2ZM144.5,275.5l0,1l1,0l0,-1l1,-1l0,1c0,1,0,1,0,1c1,0,1,-1,1,-1l0,-1l0,1l0,1c0,0,0,1,0,1l-1,0l0,-1l-1,1l-1,0l0,-1l0,-1ZM145.5,270.5c1,0,1,-1,1,-1c0,0,1,0,1,0c1,0,1,0,1,1l0,1l-1,0l1,1l-1,1l-1,0c-1,1,-1,1,-1,1c-1,0,-1,0,-1,0c-1,0,-1,0,-1,0c1,0,2,-1,3,-2c-1,-1,-1,-1,-1,-1c0,0,0,-1,0,-1ZM147.5,270.5l-1,0l0,1l1,0c0,0,0,-1,0,-1ZM201.5,283.5c-1,0,-1,0,-1,0c0,0,0,1,1,1l0,-1ZM201.5,290.5c-1,0,-1,1,-1,1l-1,0c0,0,-1,0,-1,0l-1,0c0,0,-1,0,-1,0c-1,0,-1,0,-1,-1l1,0c1,0,1,0,1,0c1,0,1,0,1,0c1,0,1,0,1,0c1,-1,1,-1,1,-1c1,-1,1,-1,1,-1c0,0,0,-1,1,-1c0,-1,0,-1,0,-2c0,0,-1,0,-1,0c0,0,0,1,0,1c-1,0,-1,0,-1,0l0,-1c0,0,-1,0,-1,0c0,-1,0,-1,0,-1c0,0,0,-1,0,-1c0,-1,0,-1,1,-1c0,-1,0,-1,0,-1c1,0,1,-1,1,-1c0,0,1,1,1,1c0,1,1,1,1,1c0,1,0,1,0,1c0,1,0,1,0,2l0,1c0,1,0,1,-1,2c0,1,0,1,-1,1c0,1,0,1,0,1ZM198.5,277.5l4,-2c0,1,0,1,0,1l-5,2ZM194.5,286.5c0,0,-1,0,-2,0c0,-1,-1,-1,-1,-1l-1,0c0,1,0,1,-1,1c-1,0,-1,0,-2,0l-1,0l-1,0c-1,1,-1,1,-1,2l0,1c0,0,-1,1,-1,1c0,0,0,1,-1,1l-1,0c0,0,0,1,0,1c0,0,-1,0,-1,0c0,0,-1,0,-1,0c-1,0,-1,0,-2,-1l-1,0c1,0,1,0,1,0c0,0,1,0,1,0c0,0,1,0,1,0c1,0,1,-1,2,-1l0,-1c1,0,1,0,1,0c0,0,1,-1,1,-1c0,0,0,-1,0,-1l0,-1c0,1,0,1,0,1l0,-1l-1,0l-1,0l0,-1l0,-1l0,-1l0,-1c1,0,1,0,1,0c0,0,1,0,1,0c1,0,1,0,1,0c0,1,0,1,0,1c0,0,0,1,0,1c1,0,1,0,1,1l1,0l1,0l1,0c0,-1,1,-1,1,-1c-1,0,-1,0,-1,-1c1,-1,1,-1,1,-1c0,-1,0,-1,0,-1c1,0,1,-1,1,-1c0,0,0,-1,0,-1c0,-1,0,-1,0,-1c1,0,2,1,3,2l1,1c0,0,1,1,1,1c0,1,0,1,0,1c0,0,0,1,0,1l0,1c0,0,0,1,0,1c0,0,-1,0,-1,0ZM191.5,281.5c-1,0,-1,0,-1,1l-1,0c0,1,0,1,1,1c1,0,1,0,1,0c0,0,0,-1,0,-1c0,0,0,-1,0,-1ZM192.5,282.5c0,1,0,1,0,1l0,1l2,0c0,-1,0,-1,-1,-1c0,0,0,-1,0,-1c0,0,-1,0,-1,0ZM187.5,267.5c0,0,1,0,1,-1l1,0c0,0,0,1,0,1c0,0,0,1,0,1c0,1,0,1,0,1l1,0l-1,1l-1,0l-1,1l-1,1l-1,0l1,-1c0,0,1,-1,1,-1l1,0l0,-1l-1,0l0,-1l0,-1ZM188.5,267.5c0,1,0,1,0,1ZM182.5,284.5c0,1,0,1,0,1c0,0,1,0,1,0c0,0,0,-1,0,-1c0,0,-1,0,-1,0ZM179.5,277.5l4,-2c0,1,-1,1,-1,1l-4,2ZM215.5,268.5l-1,1l-1,0l-1,0l-1,0c-1,0,-1,0,-1,0l0,-1c-1,0,-1,0,-1,0c0,-1,0,-1,0,-1c0,-1,0,-1,0,-2c0,0,1,-1,1,-1c-1,0,-1,0,-1,0c-1,0,-1,0,-1,0l1,0l0,-1l1,0l1,0l1,0l1,0l-1,1c0,0,-1,0,-2,0c0,0,0,1,0,1c0,0,-1,0,-1,1c0,1,0,1,0,1c0,0,1,1,1,1l1,0l1,0ZM212.5,266.5l0,1l-1,0c0,-1,0,-1,0,-1l1,0ZM269.5,284.5l-2,0c0,0,-1,0,-1,0l-1,0c0,0,-1,0,-1,0l-1,1l-1,0c0,0,-1,0,-1,1c0,0,-1,0,-1,0c-1,0,-2,0,-3,0l-1,0l-1,0c-1,0,-2,0,-2,0c0,0,-1,0,-1,0c0,0,-1,0,-2,0c0,0,-1,0,-1,0l-1,0l-10,0l-1,1c0,1,0,1,0,2l0,-1c0,0,0,-1,0,-1l0,-1l-1,0l-1,0c0,0,0,1,-1,1l-1,0c0,0,1,0,1,1l0,1c0,0,0,1,-1,2c0,0,-1,1,-1,1c0,0,-1,-1,-1,-1c-1,0,-1,-1,-1,-1c-1,-1,-1,-2,-1,-3c-1,0,-1,-1,-1,-1l-1,0l-1,0c0,0,-1,0,-1,0l0,1l0,1c0,0,-1,1,-1,1c0,0,-1,-1,-1,-1c0,-1,-1,-1,-1,-2l0,-1c0,1,0,1,-1,1c0,0,-1,0,-1,0l-1,0l-1,0c-1,0,-1,0,-2,0c0,-1,-1,-1,-1,-2l0,-9l1,-2l0,10l0,1l1,0c0,1,0,1,1,1l1,0l1,0l1,0c0,-1,1,-1,1,-1c0,0,0,-1,0,-1l1,0c0,0,1,1,1,1c1,0,2,1,2,1l1,0l1,0l1,0c1,-1,1,-1,1,-2l0,-1c0,0,1,0,1,0c1,-2,1,-2,2,-2c0,-1,0,0,0,0l1,0l0,1l0,1c0,0,-1,1,-1,1c0,1,-1,2,-2,2l2,0l1,0l1,0l1,0l1,0c0,0,1,0,1,-1l0,-1l0,-1l0,-2l0,-1l0,-3l-1,-1l0,-1c0,0,1,0,1,-1l1,2c0,0,0,1,0,1l0,1l0,1l0,1l0,1l0,2l0,1l0,1l1,-2l1,0l1,-1c0,0,1,0,1,0l1,0c1,0,1,0,2,0c0,0,0,1,0,1l1,0l0,1l-1,0c0,1,0,1,0,1l-1,1l2,0l2,0c1,0,1,0,1,0l1,-1c-1,0,-1,0,-1,0l0,-1c0,0,0,-1,1,-1c0,-1,0,-1,0,-1c0,-1,1,-1,1,-1c0,-1,1,-1,1,-1c1,0,1,0,1,1c1,0,1,1,1,1l0,1c0,1,0,1,0,1l-1,1l0,1l1,0l1,0l1,0l1,0l1,0c0,0,1,0,1,-1c1,0,1,0,1,0l2,0l1,-1l-1,0l-1,-1l-1,0l-1,0l-1,0l-1,0c0,0,1,-1,1,-1l1,-1l1,0c1,0,1,0,1,1l2,1l1,0c1,0,1,0,1,0c1,0,1,0,1,0c1,0,1,0,2,0l1,0ZM262.5,290.5l-4,2c0,-1,0,-1,0,-1l4,-2ZM253.5,278.5l-2,-1l1,-1l2,1ZM253.5,281.5c-1,0,-1,0,-1,1c-1,0,-1,0,-1,0c0,1,0,1,0,1c1,0,1,0,1,1c1,0,1,-1,1,-1c1,0,1,0,1,0c0,-1,0,-1,0,-1c-1,-1,-1,-1,-1,-1ZM291.5,272.5c1,-1,1,-1,1,-1c1,0,1,0,2,0c0,0,1,0,1,0c0,0,1,1,1,1c-1,0,-1,1,-1,1l-1,1l-1,0l-1,0l1,-1c1,0,1,0,2,0c0,-1,-1,-1,-1,-1c0,0,-1,0,-1,0c0,0,-1,0,-1,0c0,0,-1,1,-1,1l0,-1ZM248.5,269.5c0,-1,1,-1,1,-1c0,0,1,0,1,0c1,0,1,0,2,0c0,0,0,1,0,1c0,0,0,1,0,1c-1,0,-1,0,-1,1c-1,0,-1,0,-1,0c0,0,-1,0,-1,0c0,0,-1,0,-1,0l2,-1c1,0,1,0,1,-1c-1,0,-1,0,-1,0c-1,0,-1,0,-1,0c-1,0,-1,0,-1,1l0,-1ZM242.5,279.5l-1,-1l1,-2l1,1ZM245.5,283.5l-1,-1l-1,0c0,0,-1,1,-1,1l-2,1l-1,1l1,0c0,0,1,0,1,0c0,0,1,0,1,0c0,0,0,-1,0,-1c2,0,3,0,3,-1ZM243.5,271.5c0,-1,0,-1,0,-1c0,0,1,-1,1,-1c0,0,0,1,0,1c1,0,1,0,1,1l0,1c0,0,-1,0,-1,0l1,0l0,1l0,1l-1,-1l-1,0l0,1c-1,0,-1,1,-1,1l-1,0c0,0,-1,0,-1,0l1,0l1,-1l1,-1l0,-1c-1,0,-1,0,-1,0l0,-1l1,0ZM244.5,271.5l-1,0l0,1l1,0l0,-1ZM232.5,281.5l0,1c0,0,-1,0,-1,0l0,1l-1,1c1,0,2,0,2,-1c1,0,1,0,1,-1c0,0,-1,-1,-1,-1ZM230.5,287.5l0,1c0,0,1,1,1,1l1,1c0,0,1,0,1,-1c0,0,0,-1,-1,-2c0,0,-1,0,-2,0ZM232.5,271.5c0,-1,0,-1,0,-1c1,0,1,-1,1,-1c0,0,0,1,0,1c1,0,1,0,1,1l0,1c0,0,-1,0,-1,0l1,0l0,1l0,1l-1,-1l-1,0l0,1c0,0,-1,1,-1,1l-1,0c0,0,-1,0,-1,0l1,0l1,-1l1,-1l0,-1c0,0,-1,0,-1,0l0,-1l1,0ZM233.5,271.5l-1,0l1,1l0,-1ZM220.5,277.5l4,-2c0,1,0,1,0,1l-4,2ZM307.5,290.5l-2,-1l-1,1l-1,-1l1,-1l1,1l1,-2l2,1ZM304.5,286.5l-1,0l-5,0l-1,0l-1,0c0,1,0,1,0,2c0,0,-1,0,-1,1c0,0,0,1,-1,1c0,0,0,1,0,1c-1,0,-1,0,-1,0c0,0,-1,1,-1,1l-1,0l-1,0c0,0,-1,0,-1,-1c-1,0,-1,0,-1,0l1,0c1,0,1,0,2,0c0,0,1,-1,1,-1c0,0,1,0,1,-1l1,0c0,0,0,-1,0,-1c0,0,1,-1,1,-1l0,-1c0,1,0,1,0,1c-1,0,-1,0,-1,-1l-1,0c-1,0,-1,0,-1,-1l0,-1l0,-1c0,0,1,0,1,0l0,-1c0,0,1,0,1,0c0,0,1,0,1,0c0,1,1,1,1,1c0,0,0,1,0,1l0,1c1,0,1,0,1,0c1,0,1,0,1,0l5,0l1,0c0,0,1,0,1,0c1,-1,1,-1,1,-1c0,-1,0,-1,0,-1c0,0,0,-1,0,-1l0,-2c0,0,1,1,1,1c0,1,0,1,0,1c0,0,0,1,0,1c0,0,0,1,0,1c0,1,0,1,0,1c-1,1,-1,1,-2,1c0,0,-1,0,-1,0ZM304.5,273.5l4,-2l0,1l-1,0l-4,2ZM298.5,280.5c1,-1,1,-1,1,-1l1,-1c1,0,1,0,1,1l0,1l-1,0c-1,0,-1,0,-1,0l0,1l1,0c1,0,1,0,1,0l1,0l0,1l-4,1l0,-1l1,0c-1,0,-1,-1,-1,-1c0,-1,0,-1,0,-1ZM300.5,267.5c1,0,1,0,1,-1c0,0,1,0,1,0c0,0,1,1,1,1c0,0,0,1,0,1l-1,0c0,1,0,1,0,1l1,0l0,1l-1,0l-1,0l0,1c-1,0,-1,0,-1,0l-1,1l-1,0l1,-1l1,0c0,0,0,-1,0,-1l1,0l0,-1l-1,0l0,-1l0,-1ZM302.5,267.5l-1,0c0,1,0,1,0,1l1,0ZM294.5,284.5l-1,0c0,1,0,1,1,1c1,0,1,0,1,0c0,0,0,-1,0,-1c-1,0,-1,0,-1,0ZM288.5,285.5l-1,1c-1,0,-2,0,-2,1l-1,0l-1,0l-1,0c0,-1,0,-1,0,-1c0,-1,0,-1,0,-1c0,-1,0,-1,0,-1c0,0,0,1,0,1l1,0c1,0,1,0,2,0c0,-1,0,-1,1,-1l1,0c0,-1,0,-1,0,-1c0,-1,0,-1,-1,-2l-1,-1l-1,0l0,-2c0,0,1,0,1,0l0,1c1,0,1,0,1,0c0,0,1,0,1,1l0,1c1,0,1,1,1,1c0,0,0,1,0,1c0,1,0,1,0,1c0,1,0,1,0,1ZM286.5,271.5c0,-1,0,-1,0,-1c0,0,1,-1,1,-1c0,0,0,1,0,1c1,0,1,0,1,1l-1,1l1,0l0,1l0,1l-1,-1l-1,0l0,1c-1,0,-1,1,-1,1l-1,0l-1,0l1,0l1,-1l1,-1l0,-1c-1,0,-1,0,-1,0l0,-1l1,0ZM287.5,271.5l-1,0l0,1l1,0l0,-1ZM277.5,287.5c-1,0,-1,0,-2,-1c0,0,0,-1,0,-2l0,-1l0,-1l1,-2c0,0,1,-1,1,-1c0,0,1,1,1,1c1,1,1,1,1,2l0,1c0,0,1,0,1,0c0,2,-1,3,-2,3c0,1,-1,1,-1,1ZM277.5,282.5l-1,0c0,0,-1,1,-1,1l0,1c1,0,1,0,1,1l1,0l1,0l0,-1c0,0,1,0,1,0c0,0,0,-1,-1,-1c0,-1,-1,-1,-1,-1ZM276.5,277.5l0,-1l-1,-1c0,0,0,-1,0,-2l1,-1l1,-1l0,1l-1,1l0,1c0,1,0,1,0,1c0,0,1,1,1,0l1,0l0,1c0,0,0,1,0,1c0,0,-1,0,-1,0c0,0,-1,0,-1,0ZM331.5,283.5c0,0,-1,0,-1,0c0,0,0,1,1,1l0,-1ZM331.5,290.5c0,0,-1,1,-1,1c-1,0,-2,0,-2,0l-1,0c0,0,-1,0,-1,0c0,0,-1,0,-1,-1c0,0,1,0,1,0l1,0c1,0,1,0,1,0c1,0,1,0,1,0c1,-1,1,-1,1,-1c1,-1,1,-1,1,-1c0,0,0,-1,1,-1c0,-1,0,-1,0,-2c-1,0,-1,1,-1,1c0,0,-1,0,-1,0l0,-1l-1,0c0,-1,0,-1,0,-1c0,0,0,-1,0,-1c0,-1,1,-1,1,-1c0,-1,0,-1,0,-1c1,0,1,-1,1,-1c0,0,1,1,1,1c1,1,1,1,1,1c0,1,0,1,0,1c0,1,0,1,0,2l0,1c0,1,0,1,-1,2c0,1,0,1,0,1c-1,1,-1,1,-1,1ZM328.5,277.5l4,-2c0,1,0,1,0,1l-4,2ZM323.5,285.5l-1,0c0,1,0,1,0,1c0,0,1,0,1,0c0,0,0,-1,0,-1ZM324.5,288.5c0,0,-1,0,-1,0c-1,0,-1,0,-1,0c-1,0,-1,0,-2,0c0,0,-1,0,-1,0c0,0,0,-1,0,-1c0,0,0,-1,0,-1c1,0,1,0,1,0c0,0,1,0,1,0c0,0,0,-1,0,-1c1,0,1,0,1,0c0,-1,0,-1,0,-1c0,0,0,-1,0,-1c-1,0,-1,-1,-1,-1c0,0,-1,-1,-1,-1c-1,-1,-1,-1,-2,-2l0,-1c-1,0,-1,0,-1,0c-1,0,-1,0,-1,0c-1,0,-1,-1,-1,-1c0,0,0,-1,0,-1c0,-1,0,-1,0,-1c0,0,0,-1,0,-1c1,1,1,1,2,1c0,1,1,1,1,2c1,0,2,1,2,2c1,0,1,1,2,2c0,0,0,1,0,1c1,0,1,1,1,1c0,0,0,-1,0,-1c0,-1,1,-2,1,-2c0,-1,0,-2,0,-2c0,0,0,-1,0,-1c0,-1,0,-1,0,-2l-1,0l0,-1c0,0,1,0,1,-1l0,1c1,0,1,0,1,0l1,0c0,1,-1,1,-1,1c0,1,0,1,0,1l0,1l0,1c0,1,0,1,0,1c0,1,0,1,-1,2c0,0,0,1,0,1c0,1,0,1,-1,2c1,0,1,0,1,0l0,1c0,1,0,1,0,1c0,0,0,1,0,1l0,1ZM320.5,270.5l6,-2c0,0,-1,1,-1,1l-5,3ZM346.5,262.5c0,1,-1,1,-2,1c0,0,-1,0,-1,0c0,0,-1,0,-1,0c-1,0,-1,0,-1,0c-1,0,-1,0,-1,0l-1,0l0,-1l0,-1c0,1,0,1,0,1c0,1,-1,1,-1,1c-1,1,-1,1,-1,1c0,0,1,0,1,0c1,0,2,0,2,0l1,0c1,0,1,0,2,0c1,0,1,0,1,0l3,0l-1,0c-1,0,-1,0,-2,1l-1,0l-1,0l-2,0l-2,0c-1,0,-1,0,-1,0c-1,0,-1,-1,-1,-1l1,-1l1,-1c1,0,1,-1,1,-1l0,-2l0,-1l0,3c1,1,1,1,1,1l1,0c1,0,1,0,1,0c0,0,0,1,0,1c1,-1,1,-1,2,-2c0,0,1,0,1,0c1,0,1,0,1,0c0,0,0,1,0,1ZM346.5,262.5c-1,0,-1,0,-1,0c0,0,-1,0,-1,0c-1,0,-1,0,-1,1l1,-1c1,0,1,0,2,0ZM396.5,283.5c-1,0,-1,0,-1,0c0,0,0,1,1,1l0,-1ZM396.5,290.5c-1,0,-1,1,-1,1l-1,0c0,0,-1,0,-1,0l-1,0c0,0,-1,0,-1,0c-1,0,-1,0,-1,-1l1,0c1,0,1,0,1,0c0,0,1,0,1,0c1,0,1,0,1,0c1,-1,1,-1,1,-1c1,-1,1,-1,1,-1c0,0,0,-1,1,-1c0,-1,0,-1,0,-2c0,0,-1,0,-1,0c0,0,0,1,0,1c-1,0,-1,0,-1,0l0,-1c0,0,-1,0,-1,0c0,-1,0,-1,0,-1c0,0,0,-1,0,-1c0,-1,0,-1,1,-1c0,-1,0,-1,0,-1c1,0,1,-1,1,-1c0,0,1,1,1,1c0,1,1,1,1,1c0,1,0,1,0,1c0,1,0,1,0,2l0,1c0,1,0,1,-1,2c0,1,0,1,-1,1c0,1,0,1,0,1ZM393.5,277.5l4,-2c0,1,0,1,0,1l-5,2ZM389.5,287.5l0,-2l0,-1l-1,-8l1,-3l1,11l0,1l-1,0c0,1,0,1,0,2ZM373.5,268.5l5,-2l-1,1l-4,2ZM383.5,269.5c1,-1,1,-1,1,-1c1,0,1,0,1,0c1,0,1,0,1,0c1,0,1,1,1,1c0,0,-1,0,-1,1l-1,0c0,0,-1,0,-1,0l1,0c0,0,1,0,1,-1l-1,0c0,0,-1,0,-1,0c0,0,-1,0,-1,0ZM364.5,290.5l0,-1c0,1,0,1,1,1c1,0,2,-1,3,-1c0,0,1,-1,1,-1c1,-1,1,-1,1,-2c1,0,1,0,1,0c0,-1,0,-1,0,-1l0,-1l-1,-1l0,-1l0,-1l1,0c0,1,0,1,0,2l1,0l0,1l0,1c0,0,0,1,0,1c-1,0,-1,0,-1,1l0,1l0,1c-1,0,-1,0,-1,1c0,0,-1,0,-1,0l-1,0c0,0,0,1,-1,1l-1,0c0,0,-1,0,-1,-1c0,0,-1,0,-1,0ZM366.5,276.5c0,-1,0,-1,1,-1l1,0c0,0,1,0,1,0c1,0,1,1,1,1c0,1,-1,1,-1,1c0,0,0,1,0,1c-1,0,-1,0,-1,0c-1,0,-1,0,-1,0l-1,0l2,-1c0,0,1,0,1,0c0,-1,0,-1,-1,-1c-1,0,-1,0,-2,0c0,1,0,1,-1,1c0,-1,0,-1,0,-1c1,0,1,0,1,0ZM357.5,280.5l-2,-1l1,-2l1,1ZM354.5,287.5l0,1l0,1l-1,-1l0,-1l0,-1l-1,0l0,1l0,1l0,1c0,0,0,1,0,1c0,1,-1,1,-1,1c0,1,0,1,-1,1c0,0,0,1,-1,1c0,0,-1,0,-1,0c0,0,-1,0,-1,1l-1,0c0,0,-1,-1,-2,-1c0,0,-1,0,-1,-1c-1,0,-1,0,-1,-1c0,0,0,-1,0,-1l0,-1l0,-1c0,0,0,-1,0,-1c0,0,1,-1,1,-1l1,0l-1,0c0,1,0,1,0,1c0,1,0,1,0,2c0,0,0,1,0,1c0,0,0,1,1,1c0,0,1,0,1,1l1,0c1,0,1,0,2,0c1,-1,1,-1,2,-1c0,0,1,-1,1,-1c0,-1,1,-1,1,-2c0,-1,0,-1,-1,-2l0,-1l1,-1c0,1,0,1,1,1l1,0l1,-1l1,0l1,-1l1,-1l1,-1c1,0,1,0,1,0c1,0,1,0,1,0c1,0,1,0,1,0c1,0,1,0,1,0c0,0,1,1,1,1c0,0,0,1,0,1c0,1,0,1,0,1l-1,1c0,1,-1,1,-2,1l-1,0l-1,0l-1,0l-1,0l-1,1ZM359.5,283.5l-1,0l-1,1l-2,1l3,0c1,0,1,0,1,0c1,0,2,0,2,0c1,-1,1,-1,2,-1l0,-1c-1,0,-1,0,-1,0c0,0,-1,0,-1,0c0,-1,0,-1,0,-1c-1,0,-1,0,-1,1c0,0,-1,0,-1,0ZM345.5,277.5l4,-2c-1,1,-1,1,-1,1l-4,2ZM343.5,274.5c0,0,0,1,0,1c0,0,-1,0,-1,0l-1,0l-1,0l-1,0c0,0,-1,0,-1,0c0,-1,-1,-1,-1,-1c0,0,0,-1,0,-1c0,-1,0,-1,0,-2c1,0,1,-1,2,-1l-1,0l-1,0c0,-1,1,-1,1,-1l1,0l1,0l1,0l0,1c-1,0,-2,0,-2,0c0,1,-1,1,-1,1l0,1c0,0,-1,0,-1,1c0,0,1,0,1,0c0,1,0,1,0,1l1,0l1,0l1,0ZM340.5,272.5l0,1c-1,0,-1,0,-1,-1l1,0ZM121.5,240.5l0,-1l0,-1l-1,-9l1,-2l1,10c0,1,0,1,0,1l0,1c-1,0,-1,1,-1,1ZM113.5,238.5c0,0,1,0,1,0c0,0,1,0,1,0l1,0c0,-1,0,-1,0,-1l0,-2l-1,-7c0,-1,0,-1,0,-1c0,-1,1,-1,1,-1c0,0,0,1,0,1c0,0,1,0,1,1l0,1l-1,0c0,1,0,1,0,2c0,0,0,1,1,3c0,0,0,1,0,1l0,1c0,1,0,1,0,1l-1,1c0,0,0,1,0,1c-1,0,-1,0,-1,0c0,1,0,1,-1,1l-1,0l-1,0l0,-1l-1,0l0,-1l-1,0c0,0,0,1,0,1c-1,0,-1,0,-2,0c0,0,-1,0,-1,-1l-1,1c0,0,0,1,-1,1c-1,0,-2,-1,-2,-2c0,0,0,1,0,1c-1,0,-2,1,-2,1l-1,0l-1,0c0,0,-1,0,-2,-1c0,0,-1,1,-1,1c-1,0,-1,0,-1,0l-1,-1l-2,-1l-1,1c0,1,0,1,-1,1l-1,0l-2,0c0,0,0,1,0,1c0,0,0,1,0,1c0,1,-1,1,-1,1c0,0,-1,1,-1,1c0,0,0,1,-1,1c-1,0,-1,0,-1,0c0,0,-1,0,-1,0c-1,0,-1,0,-2,0l-1,-1c1,0,1,0,1,0c0,0,1,0,1,0c0,0,1,0,1,0c1,0,1,0,2,-1c1,0,1,-1,1,-1c0,0,1,0,1,-1l0,-1l-1,0c0,0,-1,0,-1,-1c0,0,0,-1,0,-1c0,0,0,-1,0,-1c0,-1,0,-1,0,-1c1,0,1,0,1,-1l1,0c0,0,1,0,1,1c0,1,0,1,0,1c0,0,1,1,1,1l1,0l1,0c1,0,1,0,1,0l1,-1l0,-1c1,-1,2,-1,3,-1l1,1l0,1l1,0l1,1l1,0l1,0l1,0l1,0c1,0,1,-1,2,-2l0,1c0,1,0,1,1,1c0,0,1,0,1,0c0,-1,1,-1,1,-1l0,-1l1,0c0,1,0,1,0,1c0,0,0,1,1,1l1,-1c0,0,0,-1,1,-1c0,1,1,2,2,2ZM106.5,230.5l0,1c0,0,1,0,1,-1l0,-1l0,1c1,0,1,0,1,0l0,-1l1,0l0,1l0,1c0,0,-1,0,-1,0c-1,0,-1,0,-1,0l0,1c-1,0,-1,0,-1,0c0,0,-1,0,-1,0l0,-1l0,-1ZM110.5,227.5l-6,3c0,-1,1,-1,1,-2l5,-2ZM96.5,238.5l-1,-1l0,-1l-1,0l0,1l-1,0c0,0,1,0,2,1ZM85.5,237.5l-1,0c0,0,1,1,1,1c0,0,1,0,1,0c0,-1,0,-1,0,-1c0,0,-1,0,-1,0ZM85.5,229.5c0,-1,0,-1,-1,-2c0,-1,0,-1,0,-2l1,0l0,1l0,1l0,1c0,1,0,1,0,1ZM71.5,233.5l-1,1l-2,-1l0,1l-2,-1l1,-1l2,1l0,-1ZM76.5,238.5c0,0,-1,1,-1,1c-1,0,-2,1,-3,1c-2,0,-3,0,-4,0c-2,0,-3,0,-4,0c-1,0,-2,-1,-2,-1c0,0,-1,-1,-1,-1c0,0,0,-1,0,-1l0,-1c0,0,0,-1,0,-1c1,0,1,-1,1,-1l1,0c-1,0,-1,0,-1,1c0,0,0,1,0,1c0,0,0,1,0,1c1,0,1,1,2,1l1,0l1,0l1,0l2,0c0,0,1,0,2,0c1,0,1,0,1,0l1,0l1,0c0,-1,1,-1,1,-1c1,0,1,-1,2,-1l-1,-1l0,-1c0,-1,0,-1,0,-2c1,1,1,1,1,2l0,1l0,1l0,1l-1,1ZM67.5,243.5l-5,2c1,-1,1,-1,1,-1l4,-2ZM93.5,232.5l0,-1c0,0,0,-1,0,-1c0,-1,0,-2,-1,-2l1,0l0,-1l0,1c1,0,1,1,1,1l0,1c0,1,0,1,0,1c-1,0,-1,0,-1,1ZM288.5,239.5l0,-1l0,-1l0,-8l1,-3l0,11l0,1c0,1,0,1,-1,1ZM291.5,242.5l-4,2c1,-1,1,-1,1,-1l3,-2ZM170.5,227.5l-2,1c-1,0,-2,1,-3,1c-2,1,-3,1,-3,1c0,0,0,1,0,1c0,0,-1,0,-1,0l1,1l2,1c0,0,1,0,1,1c1,1,1,1,1,2c0,0,0,1,0,1c0,0,0,1,0,1c0,1,0,1,-1,1l0,1c-1,0,-1,0,-1,0c-1,0,-1,0,-1,0l-1,0c-1,0,-1,0,-1,0c0,0,0,1,0,1c0,1,0,1,-1,2c0,0,0,1,0,1c-1,0,-1,0,-1,1c0,0,-1,0,-1,0c0,0,-1,0,-1,1c0,0,-1,0,-1,0c-1,0,-1,-1,-2,-1c0,0,-1,0,-1,0c0,0,0,-1,0,-1c0,1,1,1,1,1l1,0c0,0,1,0,1,-1c0,0,1,0,1,0c1,0,1,-1,1,-1c0,0,1,0,1,-1c1,-1,1,-1,1,-2l0,-1c0,0,-1,0,-1,-1l1,0c0,-1,0,-1,0,-1c0,0,0,1,0,1l1,0l1,0l1,0c0,0,1,0,1,0c0,0,1,0,1,0l0,-1c1,0,1,0,1,0c0,0,0,-1,-1,-1c0,0,-1,-1,-1,-2c-1,0,-1,0,-1,0l-1,0l-1,0c0,-1,0,-1,0,-1c0,-1,0,-1,0,-1l0,-1l0,-1l0,-1c1,0,1,0,1,0c0,0,1,-1,3,-1c1,-1,3,-1,4,-2c1,0,1,0,2,0ZM165.5,221.5c0,-1,0,-1,1,-1c0,0,0,-1,0,-1l1,0c0,1,0,1,0,1l0,1l0,1l0,1l0,1l-1,-1l0,1l-1,0c0,1,0,1,-1,1l-1,0l1,-1c0,0,1,0,1,0l0,-1l1,0l-1,0l0,-1l0,-1ZM166.5,221.5l0,1l0,-1ZM156.5,229.5l1,0l1,0c0,0,1,0,1,0c1,0,1,0,1,0c0,0,0,1,0,1c0,0,-1,0,-1,1c-1,0,-1,0,-1,0c-1,0,-1,1,-1,1l-1,0c0,0,0,-1,0,-1l1,0c1,0,2,-1,2,-1c0,0,-1,0,-1,0l-1,0l-1,0l-1,0c0,-1,0,-1,1,-1ZM146.5,238.5l0,1l-1,0c0,0,-1,0,-1,1l-1,0l-1,0c-1,0,-1,0,-1,0c0,0,-1,0,-1,0c0,0,0,-1,0,-1c0,0,-1,0,-1,0c0,0,-1,0,-1,0c0,0,0,1,-1,1l-1,0c-1,0,-1,0,-1,0c-1,0,-1,0,-1,-1c0,0,-1,0,-1,-1c0,0,0,-1,0,-1l0,1c-1,0,-1,0,-1,0l-1,0l-1,0l-1,0l0,-1c0,-1,0,-1,1,-2c0,0,1,0,1,-1c1,0,1,0,1,0l0,-1l0,-1l1,0l0,1l0,1c0,0,1,0,1,1l0,2l0,1c1,0,1,0,1,0c0,0,1,0,1,0c1,0,1,0,1,0c1,0,1,0,1,0c1,0,1,-1,1,-1l1,0c0,1,0,1,1,1l1,0l1,0c0,0,1,0,1,0c1,0,1,0,1,0c0,-1,1,-1,1,-2l0,1l0,1l1,0c1,0,1,0,2,0c1,-1,1,-1,1,-1l0,-1l1,0l0,1c0,0,0,1,0,1l1,0c1,0,1,0,1,0l-1,-1l1,-1l0,1l0,1l0,1c0,1,-1,1,-1,1c-1,0,-1,0,-1,0l-1,-1l-1,0c0,0,0,1,0,1l-1,0c0,0,-1,0,-1,0c0,0,-1,0,-1,0c0,0,0,-1,0,-1l0,-1ZM152.5,243.5l-4,2l0,-1c0,0,1,0,1,0l4,-2ZM140.5,243.5l-1,-1l-1,1l-1,0l1,-2l1,1l1,-1l1,1ZM138.5,229.5c0,1,0,1,0,1c0,0,1,0,1,-1l0,-1l1,0l0,1c0,0,1,0,1,-1l0,-1l0,1l0,1c0,1,0,1,-1,1l-1,0c0,1,-1,1,-1,1c0,-1,-1,-1,-1,-1l0,-1l1,0ZM139.5,223.5c0,0,1,0,1,0c0,-1,0,-1,1,-1c0,0,0,1,0,1c0,0,0,1,0,1c0,1,0,1,0,1l0,1l-1,0l0,1c-1,0,-1,0,-1,1c-1,0,-1,0,-2,0c1,-1,2,-2,3,-2l-1,-1l0,-1ZM140.5,224.5l0,-1l0,1l0,1l1,0l0,-1l-1,0ZM133.5,235.5l-1,0l-1,0l0,1c0,0,-1,0,-1,0l1,0l1,0l1,0ZM130.5,224.5l0,-1c1,0,1,0,1,0c0,0,1,0,1,0c0,0,0,1,0,1l0,1c0,0,0,1,0,1l0,1l-1,0l-1,1c0,0,-1,0,-1,0l-1,1c0,-1,0,-1,0,-1l1,-1l1,0l0,-1c0,0,0,-1,0,-1c0,0,0,-1,0,-1ZM131.5,224.5l-1,0c0,0,0,1,0,1l1,0ZM202.5,236.5c-1,0,-1,0,-1,1c0,0,1,0,1,0c1,0,1,0,1,0c0,-1,0,-1,0,-1c-1,0,-1,0,-1,0ZM202.5,244.5l-1,0c-1,1,-1,1,-2,1c-1,0,-1,0,-2,-1l-1,0c1,0,1,0,1,0c0,0,1,0,1,0l1,0c0,0,1,-1,1,-1c1,0,1,0,2,-1l0,-1c0,0,1,0,1,-1c0,0,0,-1,0,-1c0,0,0,-1,0,-1l0,1c-1,0,-1,0,-1,0l-1,0c0,-1,-1,-1,-1,-1c0,-1,0,-1,0,-1c0,0,0,-1,1,-1c0,0,0,-1,0,-1c0,0,0,-1,1,-1c1,0,1,0,1,0c0,0,1,1,1,1l0,1l0,1c0,0,0,1,0,1c0,0,0,1,0,1c0,1,0,2,0,3c-1,0,-1,0,-1,1c0,0,-1,0,-1,1ZM199.5,230.5l4,-2l0,1l-4,2ZM188.5,238.5l0,1c0,0,-1,0,-1,1l-1,0l-1,0c-1,0,-1,0,-2,0c0,0,-1,0,-1,-1l-1,0c0,-1,0,-1,0,-1c-1,0,-1,0,-1,0c-1,0,-1,0,-2,1l-1,1c0,0,-1,1,-1,2c0,0,0,1,0,1c0,0,0,1,0,1c0,0,0,1,0,1c0,1,1,1,1,2c0,0,1,0,1,0l0,1c1,0,1,0,1,0l1,0l1,0l1,0l1,1c1,0,2,-1,2,-1l1,0l1,0l1,0l-4,2c-1,0,-1,0,-2,0c0,0,-1,0,-1,0c-1,0,-1,0,-2,0c0,0,-1,0,-2,-1l-1,-1c0,0,-1,-1,-1,-1c0,-1,0,-1,0,-1c0,-1,0,-1,0,-1l0,-1c0,-1,0,-1,0,-2c0,-1,0,-1,0,-1c1,0,1,0,1,-1l1,-1c0,0,0,-1,1,-1l0,-1l1,0c0,0,0,-1,0,-1c-1,0,-1,0,-1,0c0,0,-1,0,-1,0l1,-2c0,0,1,0,1,0l1,-1c1,0,1,0,1,1l1,0l1,1c0,0,0,1,0,1c-1,0,-1,0,-1,0c0,0,0,1,0,1l-1,0l1,0l0,1c0,0,1,0,1,0c1,0,1,0,2,0l1,0c1,0,1,0,1,0c0,0,1,0,1,0c0,-1,1,-1,1,-2l0,1l0,1l1,0c1,0,1,0,2,0c0,-1,1,-1,1,-1l0,-1l0,1l1,0c0,0,0,1,0,1l1,0c0,0,1,0,1,0l-1,-1l1,-1l0,1l0,1l0,1c0,1,-1,1,-1,1l-1,0l-1,-1l-1,0c0,0,0,1,-1,1c0,0,-1,0,-1,0c-1,0,-1,0,-1,0c0,0,0,-1,0,-1c-1,0,-1,0,-1,-1ZM195.5,243.5l-4,2l0,-1l5,-2ZM178.5,227.5l4,-2l0,1l-4,2ZM216.5,222.5c0,0,-1,0,-1,0l-1,0l-1,0c0,0,-1,0,-1,0c-1,0,-1,0,-1,0c0,0,0,-1,-1,-1l0,-1c0,0,0,-1,1,-1c0,-1,0,-1,1,-2l-1,0c-1,0,-1,0,-1,1c0,0,0,-1,0,-1c0,0,1,0,1,0l1,0l1,0l1,0c-1,0,-1,0,-2,1l-1,0c0,0,0,1,0,1c0,0,0,1,0,1l0,1l1,0l0,1l1,0l1,0ZM214.5,219.5l-1,1l0,-1l1,0ZM234.5,231.5l-1,-1l1,-1l1,1ZM236.5,234.5l-2,-1l0,1l-2,-1l1,-1l1,1l1,-2l2,1ZM231.5,238.5l0,1c0,0,-1,0,-1,1c0,0,-1,0,-1,0l-1,0l-1,0c-1,0,-1,0,-2,-1c0,0,0,-1,0,-2l-1,-8l1,-2l0,9l1,1l0,1c0,0,1,0,1,0l2,0c0,0,1,0,1,0c0,0,1,0,1,0c0,-1,0,-1,1,-2l0,1l0,1c1,0,1,0,1,0c1,0,1,0,1,0c1,0,1,0,1,0c0,-1,1,-1,1,-1l0,-1l0,1c1,0,1,1,1,1l1,0l1,0l-1,0l0,-1l1,-1l0,1l0,1l0,1c0,1,-1,1,-1,1c0,0,-1,0,-1,0c0,0,-1,0,-1,-1l-1,0c0,0,0,1,-1,1c-1,0,-1,0,-1,0l-1,0c0,0,0,-1,0,-1c0,0,-1,0,-1,0l0,-1ZM232.5,224.5l4,-3l0,1l-1,1l-4,2ZM222.5,224.5l1,0l1,0c1,0,1,0,2,0l1,0c0,1,0,1,-1,1l-1,0l-1,0l-1,0l-1,0c0,0,-1,0,-1,0c0,-1,1,-1,1,-1ZM216.5,238.5c0,-1,0,-1,1,-1c0,-1,0,-1,1,-1l1,-1c0,1,0,1,0,1c1,0,1,0,1,0l0,1l-1,1l0,-1l-1,0c0,0,-1,0,-1,1l1,0l1,1c1,0,1,0,2,-1c0,1,0,1,0,1c0,0,-1,0,-1,0l-4,2l0,-1l1,0c0,0,0,-1,-1,-1c0,0,0,-1,0,-1ZM216.5,230.5l4,-2l0,1l-4,2ZM266.5,244.5l-1,-1l1,-2l1,1ZM264.5,240.5l-1,0l-1,0c-1,0,-1,0,-2,-1l-1,0c0,1,0,1,0,1l-1,0l-1,0l-1,0l-1,-1l-1,0c-1,1,-1,1,-1,1l-1,0l-1,0l-1,0c-1,0,-1,0,-2,-1c0,0,-1,-1,-1,-2l0,-8l1,-2l0,9l0,1l1,0l0,1l1,0l1,0l1,0l1,0l1,0c0,-1,0,-1,1,-1c1,-2,2,-2,2,-2l1,0l0,1l1,1l1,0l0,1c0,0,1,0,1,0l1,0l1,0l1,0c0,0,1,0,1,0c1,0,1,0,1,0c0,0,0,-1,0,-1l0,-1l0,-1l-1,0l1,-1c0,0,1,0,1,0l0,1l0,1l0,1c0,0,0,1,0,1c0,0,0,1,0,1c-1,0,-1,1,-2,1c0,0,-1,0,-1,0ZM265.5,246.5l-4,2c1,-1,1,-1,1,-1l4,-2ZM259.5,238.5l-1,-1l-1,-1l0,1l-1,0l1,1l1,0ZM255.5,227.5l4,-2l-1,1l-4,2ZM283.5,238.5l-1,1l0,1c0,0,0,-1,0,-1c0,0,1,0,1,0ZM284.5,241.5c0,0,-1,0,-1,0c-1,0,-1,0,-1,0c-1,0,-1,0,-2,0c0,0,-1,0,-1,0c0,-1,0,-1,0,-1c0,0,0,-1,0,0c1,0,1,0,1,0c0,-1,1,-1,1,-1c1,-1,1,-1,1,-1l0,-1l0,-1c-1,0,-1,0,-1,0c0,-1,-1,-1,-1,-2c-1,0,-1,-1,-2,-1c0,-1,0,-1,0,-1c-1,0,-1,0,-1,-1c0,0,0,1,0,1c-1,0,-1,0,-1,0l0,-1c-1,0,-1,0,-1,-1c0,-1,0,-1,0,-1l0,-1c1,0,1,0,2,1c0,0,1,1,1,1c1,1,1,2,2,2c0,1,1,1,2,2c0,1,0,1,0,1c1,1,1,1,1,1l0,-1c0,-1,1,-1,1,-2c0,-1,0,-1,0,-2l0,-1c0,0,0,-1,0,-1c0,0,0,-1,-1,-1c0,0,0,-1,1,-1c0,0,0,-1,0,-1l0,1c0,0,1,0,1,0c0,1,0,1,1,1c0,0,-1,0,-1,1c0,1,0,1,0,1c0,0,0,1,0,2l0,1c0,0,-1,1,-1,1c0,1,0,1,0,2c0,0,0,1,-1,1c1,0,1,0,1,1c0,0,0,1,0,1l0,1c0,1,0,1,0,1ZM280.5,224.5l0,1c1,0,1,0,1,0l0,-1l1,0l0,-1l0,1l1,0l0,-1l1,0c0,1,0,1,0,1l-1,0l0,1l0,1l-1,0c0,0,0,-1,0,-1l0,1l-1,0c-1,0,-1,0,-1,0l0,-1l0,-1ZM284.5,221.5l-5,3c0,-1,0,-1,1,-1l5,-3ZM328.5,237.5c-1,0,-2,0,-3,1c-1,0,-2,1,-3,1c-1,1,-2,1,-3,1c-1,0,-1,0,-2,0c0,-1,-1,-1,-1,-2c0,1,0,1,-1,1c0,1,0,1,0,1l-1,0l-1,0c0,0,-1,0,-2,-1c0,1,-1,1,-1,1c-1,0,-1,0,-2,0l-1,0l-1,-1l-1,0c0,1,-1,1,-1,1l-1,0l-1,0c0,0,-1,0,-1,0l-1,-1l0,-1c0,0,0,-1,0,-1l-1,1c0,0,-1,0,-1,0l-1,0c0,0,-1,0,-1,0l-1,0l0,-1c0,-1,1,-1,1,-2c1,0,1,0,2,-1c1,0,1,0,1,0l0,-1l0,-1l1,1l0,1l0,1l0,2c0,0,1,0,1,1l1,0l1,0l1,0c0,0,1,0,1,0l1,0c0,-1,0,-1,0,-1c1,-2,2,-2,3,-2l1,1l0,1l1,0l0,1c1,0,1,0,1,0l1,0l1,0l1,0c0,0,1,0,1,-1c0,0,0,-1,0,-1l0,-1l-1,-7l1,-2l1,11c0,0,0,1,0,1c1,0,1,0,1,0l1,0l1,0c1,0,1,0,1,0c0,-1,0,-1,0,-1c-1,-1,-1,-1,-1,-2c0,-1,1,-1,1,-1l0,-1c1,0,1,-1,1,-1c0,0,1,0,1,0c0,0,1,0,1,0l1,0l1,0l0,1l1,0l-1,0l-1,0l-1,0l-1,0l-1,0c0,1,0,1,0,1c0,0,-1,0,-1,0c0,0,1,1,1,1l0,1c1,0,1,1,2,1c1,0,1,0,1,0c1,-1,1,-1,1,-1l1,0l1,-1ZM323.5,243.5l-4,2c0,0,1,-1,1,-1l4,-2ZM314.5,218.5c0,0,1,0,1,0c1,0,1,0,1,0c1,0,2,0,2,0l0,1c0,0,0,1,0,1c0,0,-1,0,-1,0c0,1,0,1,0,1l-1,0l-1,0l-1,0l2,-1c1,0,1,0,2,-1c-1,0,-1,0,-1,0c0,0,-1,0,-1,0c0,0,-1,0,-1,0c0,0,-1,0,-1,1l0,-1l0,-1ZM310.5,238.5l-1,-1l0,-1c0,0,-1,0,-1,0l0,1l-1,0c0,0,1,0,1,1l1,0ZM307.5,243.5l-4,2c1,0,1,-1,1,-1l4,-2ZM299.5,235.5l-1,0l-1,1l1,0c0,0,1,0,1,0ZM302.5,227.5c-1,0,-2,0,-3,0l-1,0c-1,0,-1,0,-1,0l-1,0c0,0,-1,1,-1,1l0,-1l1,-1c2,0,3,1,3,1l1,0l0,-1l1,0l1,0l1,0ZM352.5,239.5c0,0,-1,1,-1,1l0,-1l-1,0l-1,0l-1,-1l0,1l0,1l-1,0l-1,0l-2,0c0,1,0,1,0,1c0,1,0,1,0,1c0,1,0,1,0,2c0,0,-1,1,-1,1c-1,1,-2,1,-2,1c-1,1,-2,1,-3,1c0,0,-1,0,-1,0c-1,-1,-2,-1,-2,-1c0,0,-1,-1,-1,-1c0,-1,0,-1,0,-2c0,0,0,-1,0,-1l0,-1l0,-1l1,0c0,-1,0,-1,0,-1c0,1,0,1,0,1c0,1,0,1,0,1c0,1,0,1,0,1c0,1,0,1,0,1c0,1,0,1,1,1c0,1,0,1,0,1c1,0,2,0,3,0c0,0,1,0,2,0c1,-1,1,-1,2,-1c0,-1,0,-1,0,-1l0,-1l0,-1l0,-1l-1,-1l1,-2c0,0,0,1,0,1c1,0,1,0,2,0l1,0l1,0c0,0,1,0,1,0l1,-1c0,-1,0,-1,1,-2l1,0l1,0c0,0,0,1,0,1l0,1l0,1l0,1ZM350.5,237.5l1,1c0,-1,0,-1,0,-1c0,-1,0,-1,-1,-1l0,1ZM348.5,225.5l0,1c0,1,0,1,0,1l0,-1c1,0,1,0,1,0l0,-1l0,1l1,0l0,-1l1,-1l0,1l0,1c0,1,-1,1,-1,1c-1,0,-1,0,-1,0c-1,1,-1,1,-1,1c0,0,-1,0,-1,-1l0,-1ZM351.5,243.5l-4,2c0,0,0,-1,0,-1l4,-2ZM339.5,238.5l-1,-1l1,-2l1,1ZM338.5,225.5c1,-1,1,-1,1,-1c1,0,1,0,2,0c0,0,1,0,1,0c0,0,1,1,1,1c-1,1,-1,1,-1,1c0,0,0,1,-1,1c-1,0,-1,0,-1,0l-1,0l1,-1c1,0,1,0,2,0c0,-1,-1,-1,-1,-1l-1,0c0,0,-1,0,-1,0c0,1,0,1,-1,1c0,-1,0,-1,0,-1ZM394.5,244.5l-1,-1l1,-2l1,1ZM392.5,240.5l-1,0l-1,0c-1,0,-1,0,-1,0c0,-1,0,-1,0,-1c-1,0,-1,0,-1,0c0,0,0,-1,0,-1l0,1l-1,0c0,1,0,1,0,1c0,0,-1,0,-1,0c0,0,-1,0,-1,0c0,-1,0,-1,0,-1c-1,0,-1,0,-1,0c0,0,0,1,0,1c-1,0,-1,0,-1,0c0,0,-1,0,-1,0c-1,0,-1,0,-1,0c-1,0,-1,0,-1,-1l-1,0l0,-1c0,0,-1,0,-1,0c0,1,0,1,0,1c-1,0,-1,0,-1,0l0,1l-1,0c0,0,1,1,1,1c0,0,1,0,2,0l1,0l0,1l0,1l0,1c0,0,-1,0,-1,0c-1,1,-1,1,-2,2c-2,0,-3,0,-4,0c-1,0,-1,0,-1,0c0,0,-1,0,-2,0c0,0,-1,0,-1,-1c-1,0,-1,-1,-1,-1c0,-1,0,-1,0,-2c0,-1,0,-1,0,-2c0,-1,1,-1,1,-2c1,0,1,0,1,0c-1,1,-1,1,-1,2c0,0,0,1,0,1c0,1,0,1,0,1c0,0,0,1,1,2c0,0,1,0,2,0l1,0c0,0,1,0,1,0l1,0l1,0c0,0,1,0,1,0l1,0c0,-1,0,-1,0,-1c1,0,1,0,1,0c0,0,-1,0,-1,0c-1,-1,-2,-1,-3,-1l0,-1c0,0,0,-1,0,-1l1,-1l0,-1l1,0c0,0,0,-1,0,-1c0,0,1,0,1,0l1,0l0,-1c1,0,1,1,1,1c0,1,0,1,1,1c1,0,1,0,1,0l1,0c0,0,1,0,1,0c0,0,1,-1,1,-1c0,-1,0,-1,0,-1l0,1c0,0,1,0,1,1l1,0c0,0,1,-1,1,-1c0,-1,0,-1,0,-1l1,0l0,1l0,1c1,0,1,0,1,0l2,0c0,0,1,0,1,0c1,0,1,0,2,0c0,0,0,-1,0,-1l-1,-1l0,-1l1,-1l0,1l0,1l0,1c0,0,0,1,0,1c0,0,0,1,0,1c-1,0,-1,1,-2,1c0,0,-1,0,-1,0ZM394.5,246.5l-4,2c0,-1,0,-1,0,-1l4,-2ZM384.5,232.5l-2,-1l1,-1l1,0ZM385.5,234.5l-1,-1l-1,2l-1,-1l1,-2l1,1l1,-1l1,1ZM380.5,227.5l4,-2l0,1l-5,2ZM371.5,229.5l1,0c0,0,1,0,1,0c1,0,1,0,1,0c1,0,1,0,1,0l0,1l-1,1c0,0,-1,0,-1,0c0,0,-1,0,-1,0l-1,0l2,0c0,0,1,-1,1,-1l-1,0c-1,0,-1,0,-2,0l0,-1ZM361.5,238.5c0,-1,0,-1,0,-1c0,-1,1,-1,1,-1l1,0l0,-1c1,1,1,1,1,1l0,1l0,1l-1,-1l-1,0l-1,1l1,0l1,1l1,0c0,0,1,0,1,-1c0,1,0,1,0,1l-1,0l-4,2l0,-1l1,0c0,0,0,-1,0,-1c-1,0,-1,-1,-1,-1l1,0ZM360.5,248.5c0,0,1,0,1,-1l4,-2l0,1c-1,0,-1,0,-1,0l-4,3l0,-1ZM358.5,252.5l0,-1l1,0l3,-2l0,1l-4,3l0,-1ZM298.5,245.5l0,-1c0,0,0,-1,0,-1c0,-1,-1,-1,-1,-2l1,-1c0,0,0,1,0,1c0,1,0,1,0,1l0,1c0,1,0,1,0,1c0,0,0,1,0,1ZM360.5,99.5l0,-1l0,-1l-1,-8l1,-3l1,11l0,1c-1,0,-1,0,-1,0c0,1,0,1,0,1ZM362.5,102.5l-3,2c0,-1,0,-1,0,-1l4,-2ZM337.5,100.5l0,-1l0,-1l0,-9l1,-2l0,10c0,1,0,1,0,1l0,1c0,0,-1,1,-1,1ZM340.5,102.5l-4,2c0,-1,1,-1,1,-1l3,-2ZM208.5,88.5l1,0l0,1l0,1l0,1c0,1,0,1,0,2l-1,0l-1,0c-1,0,-1,0,-2,0c0,0,0,-1,0,-1l0,-1l0,-1c1,0,1,-1,1,-1l0,-1c1,0,1,0,2,0ZM207.5,89.5l-1,1l0,1c0,1,0,1,1,1l1,0c1,0,1,-1,1,-1c0,-1,0,-1,0,-1c-1,-1,-1,-1,-2,-1ZM49.5,96.5l0,-1c1,0,1,0,1,0c0,0,0,-1,0,-1l0,-1l0,-1l0,-1l0,-1c0,0,0,-1,0,-1l1,1c-1,0,-1,0,-1,1l1,1l0,1l0,1l-1,0l1,0l1,-1l1,0c0,0,1,0,1,0l0,1l0,1c-1,0,-1,0,-1,0c0,0,-1,1,-1,1c-1,0,-1,0,-1,0ZM53.5,94.5c-1,0,-1,0,-1,0l-1,0l-1,1l1,0l1,0c1,0,1,-1,2,-1l-1,0ZM60.5,84.5c-1,0,-1,0,-1,1l-1,0c0,1,0,1,0,1l0,1c0,0,1,1,1,1l-1,0l0,-1l0,-1l0,-1c0,0,0,-1,1,-1l1,-1l1,0ZM60.5,86.5c0,0,0,-1,0,-1c0,0,1,0,1,0c1,0,1,0,1,1l0,1l-1,0l1,1l0,1l-1,0l-1,0c0,1,-1,1,-1,1l-1,0c0,0,-1,0,-1,0l1,0l1,-1l1,0l0,-1c-1,0,-1,-1,-1,-1c0,0,0,-1,1,-1ZM61.5,86.5l-1,0l0,1l1,0c0,-1,0,-1,0,-1ZM112.5,80.5c0,0,-1,0,-1,1c-1,1,-1,1,-1,1l0,1l1,0c0,1,0,1,0,1l-1,0l0,-1l0,-1l0,-1c0,0,1,-1,1,-1l1,-1l1,0l1,0ZM112.5,82.5l0,-1c1,0,1,0,1,0c0,0,1,0,1,0c0,0,0,1,0,1l0,1l0,1l0,1l-1,0l-1,1c0,0,-1,0,-1,0l-1,0l1,-1l1,0l0,-1c0,0,0,-1,0,-1c0,0,0,-1,0,-1ZM113.5,82.5l-1,0l0,1l1,0l0,-1ZM75.5,94.5l-2,-1l1,-2l1,1ZM74.5,100.5l-1,0l-1,0c0,1,0,1,0,2c-1,0,-1,0,-1,1c0,0,0,1,-1,1l-1,1c-1,0,-1,1,-1,1l-1,0l-1,0c0,0,-1,0,-2,-1l1,0c1,0,1,0,2,0c0,0,0,-1,1,-1l1,-1c1,-1,1,-1,1,-1c0,0,0,-1,1,-1l0,-1c0,0,-1,0,-1,0c0,0,-1,0,-1,0c-1,0,-1,0,-1,-1l0,-1l0,-1l1,0c0,0,0,-1,0,-1l1,0l1,0c0,1,0,1,0,1c1,0,1,0,1,1l0,1c0,0,1,0,1,0c0,0,1,0,1,0c1,0,1,0,2,0c0,-1,0,-1,1,-1c0,-1,0,-1,0,-1c-1,0,-1,-1,-1,-1l1,-2c0,0,0,1,0,1c0,1,0,1,0,1l0,1c1,0,1,0,1,0c0,0,0,1,0,1c-1,0,-1,0,-1,0c0,0,0,1,0,1c0,1,-1,1,-1,1c-1,0,-1,0,-2,0ZM74.5,87.5l4,-2l0,1l-4,2ZM70.5,98.5c0,0,-1,0,-1,0c0,0,0,1,1,1l1,0c0,0,0,-1,0,-1c-1,0,-1,0,-1,0ZM65.5,90.5c0,-1,1,-1,1,-1c1,0,1,0,2,0c0,0,1,0,1,0c0,0,0,1,0,1c0,1,0,1,0,1c0,0,-1,1,-1,1l-1,0l-1,0l-1,0l2,-1c1,0,1,0,2,0c-1,-1,-1,-1,-1,-1c0,0,-1,0,-1,0c0,0,-1,0,-1,0c0,1,-1,1,-1,1c0,-1,0,-1,0,-1ZM63.5,98.5l-2,0l-1,0c-1,0,-2,1,-2,1c0,0,0,1,0,1c0,0,0,1,0,2c1,2,1,3,1,4c0,1,0,2,0,2l0,1c0,0,0,-1,-1,-2c0,-2,0,-4,0,-4c-1,-1,-1,-2,-1,-2l0,-1c0,-1,0,-1,1,-2l0,-1c1,0,1,0,2,0c0,-1,1,-1,1,-1c0,0,-1,-1,-1,-1l0,1c-1,0,-1,0,-1,0c0,0,0,-1,0,-1c1,-1,1,-1,1,-1c0,0,1,0,1,0c1,0,1,0,2,1l0,1l1,0l0,1c0,0,-1,0,-1,1ZM101.5,97.5c0,0,0,1,0,1c0,0,1,0,1,-1c0,0,-1,0,-1,0ZM101.5,104.5c0,0,0,1,0,1c-1,0,-1,0,-1,0c0,0,-1,0,-2,0c0,0,-1,0,-2,0l0,-1l1,0c0,0,1,0,1,0l1,0c0,0,1,0,1,0c0,-1,1,-1,1,-1c0,-1,0,-1,1,-1c0,0,0,-1,0,-1c1,-1,1,-1,1,-2c-1,0,-1,0,-1,0c0,0,0,1,0,1c0,0,-1,0,-1,0l-1,-1c0,-1,0,-1,0,-1c0,0,0,-1,0,-1c0,-1,0,-1,0,-2c1,0,1,0,1,0c0,0,0,-1,1,-1c0,0,0,1,0,1c1,0,1,0,1,0c0,1,0,1,0,1c0,1,0,1,1,1c0,1,0,1,0,2l0,1c-1,1,-1,1,-1,2c0,1,-1,1,-1,1c0,1,0,1,-1,1ZM93.5,99.5c0,1,0,1,0,1l-1,0c1,0,1,0,1,0l1,0c0,0,0,-1,0,-1ZM95.5,102.5c-1,0,-1,0,-2,0l-1,0c0,0,-1,0,-1,0c-1,0,-1,0,-1,0l-1,0c0,-1,0,-1,0,-1c0,-1,0,-1,0,-1c0,0,1,0,1,0l1,0c1,-1,1,-1,1,-1c1,-1,1,-1,1,-1c0,0,0,-1,-1,-1c0,0,0,-1,0,-1c-1,0,-1,-1,-2,-1c0,-1,0,-1,-1,-2c0,0,-1,0,-1,-1c-1,0,-1,0,-1,0c0,0,-1,0,-1,0c0,0,0,-1,-1,-1c0,0,0,-1,0,-1c0,-1,0,-1,0,-1c0,0,0,-1,1,-1c0,1,1,1,1,1c1,1,1,1,2,2c0,0,1,1,2,2c0,0,1,1,1,2c1,0,1,1,1,1c0,0,0,1,1,1c0,0,0,-1,0,-1c0,-1,0,-2,0,-2c0,-1,0,-2,0,-2c0,0,0,-1,0,-1c0,-1,0,-1,0,-2l0,-1l0,-1c0,0,1,0,1,0l0,1c1,0,1,0,1,0c0,1,0,1,0,1c0,1,0,1,0,1l-1,0l0,1l0,1c0,0,0,1,0,1c0,1,0,1,0,2c0,0,0,1,0,1c-1,1,-1,1,-1,2l0,1c0,0,1,0,1,0c0,1,0,1,0,1c0,0,0,1,0,1l0,1ZM91.5,84.5l5,-2c0,0,0,1,0,1l-6,3ZM127.5,99.5l0,1c0,0,-1,0,-1,0c0,0,-1,0,-1,0l-1,0l-1,0c-1,0,-1,0,-1,0c0,0,-1,0,-1,-1l-1,0c0,0,0,1,0,1c0,0,-1,0,-1,0c0,0,-1,0,-1,0l-1,0c0,0,-1,0,-1,0c-1,0,-1,0,-1,0c0,0,0,-1,-1,-1c0,-1,0,-1,0,-1c0,0,-1,0,-1,1l-1,0c-1,0,-1,0,-2,0l0,-2c0,0,0,-1,1,-1c0,0,1,-1,2,-1c0,-1,1,-1,1,-1l-1,-1l1,0l0,-1l0,1c0,1,0,1,1,1c0,1,0,1,0,1l0,3l1,0c0,1,0,1,0,1c0,0,1,0,1,0c1,0,1,0,2,0c0,0,1,-1,1,-1c0,0,1,0,1,0c1,0,1,0,1,0l0,1c1,0,1,0,1,0l1,0l1,0c0,0,1,0,1,0c0,0,1,-1,1,-1l1,-1l0,1l0,1c1,0,1,0,1,0c1,0,1,0,1,0c0,0,1,-1,1,-1l1,-1l0,-1l0,1l0,1c1,0,1,0,1,0l0,1l1,0l1,-1c0,0,-1,0,-1,0l0,-2c1,0,1,0,1,0l0,1l0,1l0,1l0,1c-1,0,-1,0,-1,0c0,0,-1,0,-1,0c0,0,-1,0,-1,0l0,-1l-1,1c0,0,-1,0,-1,0c-1,0,-1,0,-1,0l-1,0c-1,0,-1,0,-1,-1ZM134.5,104.5l-4,2c0,-1,0,-1,0,-1l4,-2ZM120.5,96.5l-1,-1l1,-1l1,1ZM118.5,91.5l4,-2c0,1,0,1,0,1l-4,2ZM113.5,91.5l-1,-1l-1,2l-1,-1l0,-2l2,1l1,-1l1,1ZM114.5,95.5l-1,0l0,1l-1,0c0,0,-1,1,-1,1l1,0l1,0c0,0,1,0,1,0l0,-1ZM181.5,92.5l-1,-1l-1,1l-1,-1l0,-1l2,1l1,-1l1,1ZM179.5,100.5l-1,0l-1,0c-1,0,-2,0,-2,0c-1,-1,-1,-1,-1,-2l0,-9l0,-2l1,10l0,1c1,1,1,1,2,1l1,0l1,0c1,0,1,0,2,0c0,-1,0,-1,1,-1c0,-1,0,-1,-1,-1c0,0,0,-1,0,-1l1,-2c0,0,0,1,0,1l0,1l0,1l0,1c0,0,0,1,0,1c0,1,-1,1,-2,1l-1,0ZM179.5,84.5l4,-2l0,1l-4,2ZM173.5,79.5l1,0c0,-1,0,-1,1,-1c0,0,1,0,1,1c1,0,1,0,1,0c0,1,-1,1,-1,1c0,1,0,1,0,1c-1,0,-1,0,-1,0c-1,0,-1,0,-1,0l-1,0l1,0c1,0,2,-1,2,-1c0,0,-1,0,-1,0l-1,0l-1,0l-1,0c0,0,0,-1,0,-1c0,0,1,0,1,0ZM162.5,93.5l-1,-1l1,-1l1,1ZM171.5,96.5l-1,2l-1,0c0,0,-1,0,-1,0l-1,0l-1,0l-1,1l-1,0l-1,1c-1,0,-1,0,-1,0l-1,0l-1,0l-1,0l-2,0c0,0,-1,0,-1,0l0,-1c0,0,-1,0,-1,-1l0,1l-1,1c0,0,-1,0,-1,0c-1,0,-1,0,-2,0l-1,0c0,0,-1,0,-1,0c0,0,0,-1,0,-1l0,-1l0,-1c0,0,1,1,1,1l1,0l1,0c0,0,1,0,1,0l1,0l1,0l0,-1l0,-1l0,-2l-1,-1l1,-1l0,-1l1,2l0,1l0,3c0,1,0,1,0,1c1,0,1,0,1,0c0,1,0,1,0,1c0,0,1,0,1,0l1,0c0,-1,0,-1,0,-1c1,-1,1,-1,1,-1l0,-1l1,-1c1,0,1,0,1,0l1,-1l0,1l1,0l1,0l1,0l2,1l1,0l1,0c0,0,1,0,1,0ZM166.5,97.5l-1,0c-1,0,-1,0,-1,-1c-1,0,-1,0,-1,0l-1,0l0,1c-1,0,-1,0,-1,0l-1,1l0,1l1,0l1,0l1,-1l1,0l1,-1ZM161.5,81.5l0,-1c1,0,1,0,1,0l1,0c0,0,0,1,0,1c0,0,0,1,0,1c0,0,0,1,-1,1l1,0l0,1l-1,0l-1,1c0,0,-1,0,-1,0l0,1l-1,0l0,-1l1,0c0,0,0,-1,0,-1l1,0l0,-1c0,0,-1,0,-1,-1l1,0l0,-1ZM162.5,81.5l-1,0c0,1,0,1,0,1l1,0ZM154.5,89.5l-2,-1l1,-1l2,0ZM151.5,81.5l0,-1c0,0,1,0,1,0c1,0,1,1,1,1c0,0,0,1,0,1c0,0,-1,1,-1,1l1,0l0,1l-1,0l-1,0l0,1c-1,0,-1,0,-1,0l0,1l-1,0c-1,0,-1,0,-1,0l1,-1l1,0c0,0,0,-1,0,-1l1,0l0,-1c-1,0,-1,0,-1,-1l1,-1ZM152.5,81.5l-1,0c0,1,0,1,0,1l1,0ZM143.5,101.5l-1,-1c0,0,-1,-1,-1,-2l1,-1l0,-1l1,-2c0,0,1,-1,1,-1c0,0,1,1,1,1c1,1,1,1,1,2l0,1c0,2,0,3,-1,3c-1,1,-1,1,-2,1ZM144.5,96.5l-1,0c-1,0,-1,1,-1,1l0,1c0,0,1,0,1,1l1,0l1,0l0,-1c0,0,1,0,1,0c0,0,-1,-1,-1,-1c-1,-1,-1,-1,-1,-1ZM142.5,89.5l0,-1l0,-1c0,0,0,-1,0,-1c1,-1,1,-1,1,-1c0,0,0,-1,0,-1l1,0c0,0,1,0,1,0l-1,0l0,1l-1,1l0,1l0,1l1,0c0,1,0,1,0,1c0,0,0,1,0,1l-1,0l-1,-1ZM198.5,99.5c0,1,0,1,-1,1l1,0l1,0c0,0,0,-1,-1,-1ZM199.5,102.5l-1,0c0,0,-1,0,-1,0c0,0,-1,0,-2,0l-1,0c0,-1,0,-1,0,-1c0,-1,0,-1,0,-1c0,0,1,0,1,0c1,0,1,0,1,0c0,-1,1,-1,1,-1c0,-1,1,-1,1,-1c0,0,-1,-1,-1,-1c0,0,0,-1,-1,-1c0,0,0,-1,-1,-1c0,-1,-1,-1,-1,-2c-1,0,-1,0,-1,-1c0,0,-1,0,-1,0l-1,0c0,0,-1,-1,-1,-1c0,0,0,-1,0,-1c0,-1,0,-1,0,-1c0,0,0,-1,0,-1l1,0c0,1,0,1,1,1c0,1,1,1,1,2c1,0,2,1,2,2c1,0,1,1,2,2c0,0,1,1,1,1c0,0,0,1,0,1c0,0,1,-1,1,-1c0,-1,0,-2,0,-2c0,-1,0,-2,0,-2c0,0,0,-1,0,-1c0,-1,0,-1,0,-2l0,-1l0,-1l1,0l0,1c0,0,1,0,1,0c0,1,0,1,0,1c0,1,-1,1,-1,1l0,1l0,1c0,0,0,1,0,1c0,1,0,1,0,2c0,0,-1,1,-1,1c0,1,0,1,0,2l0,1c0,1,0,1,0,1c0,0,0,1,0,1l0,1ZM196.5,84.5l5,-2c0,0,0,1,-1,1l-5,3ZM296.5,86.5c0,0,0,1,-1,1l-1,0l-1,0c0,0,-1,0,-1,0c-1,-1,-1,-1,-1,-1l-1,0c0,-1,0,-1,0,-1c0,-1,0,-1,1,-2c0,-1,0,-1,1,-1l-1,0c-1,0,-1,0,-1,0l0,-1c0,0,1,0,1,0l1,0l1,0l1,0l0,1c-1,0,-1,0,-2,0c0,0,0,1,-1,1l0,1c0,1,0,1,0,1c0,0,0,1,1,1l1,0l1,0ZM294.5,84.5l-1,0l1,0ZM211.5,84.5l0,1c0,0,-1,0,-1,0l-1,0l-1,0l-1,0c0,0,-1,0,-1,0l0,-1c0,0,-1,0,-1,0c0,0,0,-1,0,-1c0,-1,0,-1,0,-2c1,0,1,-1,2,-1l-1,0l-1,0c0,-1,1,-1,1,-1l1,0l1,0l1,0l0,1c-1,0,-2,0,-2,0c0,1,-1,1,-1,1l0,1c0,0,-1,0,-1,1c0,0,1,0,1,0c0,1,0,1,0,1l1,0l1,0l1,0ZM208.5,82.5l0,1c0,0,-1,-1,-1,-1l1,0ZM250.5,100.5l0,-1l0,-1l-1,-8l1,-3l1,11l0,1c-1,1,-1,1,-1,1ZM242.5,99.5c0,0,1,0,1,0c0,0,1,0,1,0c0,-1,0,-1,1,-1l0,-1l0,-2l-1,-6l0,-1l0,-1c0,0,1,0,1,0c0,0,0,1,0,1c0,0,1,0,1,0c0,1,0,1,0,1c0,1,0,1,-1,1c0,0,0,1,0,2c0,0,0,1,1,3l0,1l0,1c0,0,0,1,0,1l-1,0c0,0,0,1,0,1c0,1,0,1,0,1c-1,0,-1,0,-1,0l-1,0l-1,0l-1,0l-1,0c-1,0,-2,0,-2,0c0,0,-1,0,-1,0c-1,0,-1,0,-2,0c0,0,-1,0,-2,0l-1,0c-1,0,-1,0,-1,0c0,0,-1,0,-1,0l0,-1c0,0,-1,0,-1,0c0,0,-1,1,-1,1l-1,0l-1,0l-1,0c0,1,0,1,0,2c-1,0,-1,0,-1,1c0,0,0,1,-1,1l-1,1c-1,0,-1,1,-1,1l-1,0l-1,0c0,0,-1,0,-2,-1l1,0c1,0,1,0,2,0c0,0,0,-1,1,-1l1,-1c1,-1,1,-1,1,-1c0,0,0,-1,1,-1l0,-1c0,0,-1,0,-1,0c0,0,-1,0,-1,0c-1,0,-1,0,-1,-1l0,-1l0,-1l1,0c0,0,0,-1,0,-1c1,0,1,0,1,0l1,0c0,1,0,1,0,1c1,0,1,0,1,1l0,1c0,0,1,0,1,0c1,0,1,0,1,0c1,0,1,-1,1,-1c1,0,1,0,1,0l1,0l1,1l1,0l1,0c1,0,1,0,1,0l1,0l0,-1c0,-1,0,-1,0,-1c0,0,0,-1,0,-1c1,-1,1,-1,1,-1c0,-1,0,-1,1,-1c0,-1,1,-1,1,-1c1,0,1,0,1,1c1,0,1,1,1,1l0,1c0,1,0,1,-1,2l0,1c0,0,1,0,1,0l1,0l1,0ZM219.5,87.5c1,0,1,-1,1,-1c1,0,1,0,2,0c0,0,1,0,1,0c0,0,1,1,1,1c-1,1,-1,1,-1,1c0,0,0,1,-1,1l-1,0l-1,0l1,0c1,-1,1,-1,2,-1c0,-1,-1,-1,-1,-1c0,0,-1,0,-1,0c0,0,-1,0,-1,1l-1,0c0,-1,0,-1,0,-1ZM242.5,83.5c0,-1,1,-1,1,-1c1,0,1,0,2,0c0,0,1,0,1,0c0,0,0,1,0,1c0,0,0,1,0,1c0,0,-1,0,-1,1l-1,0l-1,0l-1,0l2,-1c1,0,1,0,2,-1c-1,0,-1,0,-1,0c0,0,-1,0,-1,0c0,0,-1,0,-1,0c0,0,-1,0,-1,1l0,-1ZM238.5,92.5l-1,-1l-1,1l-1,-1l0,-1l2,1l1,-1l1,1ZM238.5,95.5c-1,0,-1,0,-1,1c-1,0,-1,0,-1,0c0,1,0,1,0,1c0,0,1,0,1,1c1,0,1,-1,1,-1c1,0,1,0,1,0l0,-1l-1,0c0,-1,0,-1,0,-1ZM234.5,84.5l4,-2l0,1c-1,0,-1,0,-1,0l-4,2ZM230.5,104.5l-1,-1l-1,1l-1,-1l1,-1l1,1l1,-2l1,1ZM228.5,89.5l0,1c0,0,1,0,1,0l0,-1l0,-1l0,1l1,0c0,1,0,1,0,1c0,0,1,-1,1,-1l0,-1l0,1l0,1l0,1l-1,0l-1,-1l0,1c0,0,-1,0,-1,0c0,0,-1,0,-1,-1l1,0l0,-1ZM229.5,84.5c0,0,1,-1,1,-1l1,0l0,1l0,1l0,1l0,1l-1,0c-1,1,-1,1,-1,1c-1,0,-1,0,-2,0c1,0,2,-1,3,-2l-1,0c0,-1,0,-1,0,-1c0,0,0,-1,0,-1ZM230.5,84.5l0,1l1,0l-1,0c0,0,0,-1,0,-1ZM223.5,98.5c0,0,-1,0,-1,0c0,0,0,1,1,1l1,0c0,0,0,-1,0,-1c-1,0,-1,0,-1,0ZM218.5,98.5l-1,0c-1,0,-1,0,-2,0c-1,0,-1,1,-2,1c0,0,0,1,0,1c0,0,0,1,0,2c1,2,1,3,1,4c0,1,1,2,1,2l-1,1c0,0,0,-1,0,-2c-1,-2,-1,-4,-1,-4c0,-1,-1,-2,-1,-2l0,-1c1,-1,1,-1,1,-2l0,-1c1,0,1,0,2,0c0,-1,1,-1,1,-1l1,0c-1,0,-1,0,-1,0c0,0,0,-1,-1,-1l0,1c-1,0,-1,0,-1,0c0,0,0,-1,0,-1c1,-1,1,-1,1,-1c1,0,1,0,1,0c0,0,1,0,1,0l1,1l1,1l0,1l0,1ZM215.5,85.5c0,-1,0,-1,0,-1c1,0,1,-1,1,-1l1,1l0,1l0,1l-1,0l1,0l0,1l0,1l-1,-1l-1,1c0,0,-1,1,-1,1l-1,0l1,-1l1,-1l0,-1l0,-1ZM216.5,85.5l-1,0l1,1l0,-1ZM284.5,100.5l0,-1l0,-1l-1,-8l1,-3l1,11l0,1l-1,0c0,1,0,1,0,1ZM276.5,99.5c0,0,1,0,1,0c0,0,1,0,1,0c0,-1,0,-1,0,-1c1,0,1,0,1,-1l0,-2l-1,-6l0,-1l0,-1c0,0,1,0,1,0c0,0,0,1,0,1c0,0,1,0,1,0c0,1,0,1,0,1c0,1,0,1,-1,1c0,0,0,1,0,2c0,0,0,1,1,3l0,1l0,1c0,0,0,1,0,1l-1,0c0,0,0,1,0,1c0,1,0,1,0,1c-1,0,-1,0,-1,0l-1,0l-1,0l-2,0c-1,0,-1,0,-1,0c-1,0,-2,0,-2,0c0,-1,0,-1,0,-1c0,-1,0,-1,0,-1c-1,0,-1,0,-1,0c-1,0,-2,0,-3,0c0,1,-1,1,-1,1c0,0,-1,0,-1,0c-1,0,-1,0,-1,1c-1,0,-1,0,-1,0c-1,0,-1,0,-1,0c0,1,0,1,0,1c0,0,1,0,1,0c0,0,1,1,2,1c1,0,1,0,1,0c0,1,0,1,0,1c0,1,0,1,0,1c0,0,-1,1,-1,1c-1,1,-1,1,-3,1c-1,1,-2,1,-4,1c0,0,-1,0,-2,0c0,-1,-1,-1,-1,-1c-1,-1,-1,-1,-1,-1c0,-1,0,-2,0,-2l0,-1c0,0,0,-1,0,-1c0,-1,1,-2,1,-2c1,0,1,0,1,0c-1,0,-1,1,-1,1c0,1,0,1,0,2c0,1,0,2,1,2c0,1,1,1,2,1c1,0,1,0,1,0c0,0,1,0,1,0c1,0,1,0,2,0c0,0,1,-1,1,-1l1,0c1,0,1,-1,1,-1c0,0,-1,0,-2,0c-1,0,-1,0,-2,-1l0,-1c0,0,0,-1,0,-1c1,0,1,0,1,0c0,0,0,-1,0,-1c1,0,1,-1,2,-1c0,0,1,0,1,0c1,-1,1,-1,2,-1c0,0,1,0,1,0l-1,0l-1,0c-1,-1,-1,-1,-2,-1c0,0,-1,0,-1,0l-1,0l0,-1c1,0,1,0,1,0c1,-1,1,-1,2,-1l1,0c0,0,0,1,1,1l1,0c1,1,1,1,1,1c0,0,1,0,1,0c1,0,1,0,1,0c1,0,1,0,2,0l1,0l-1,2l-1,0c1,1,2,1,3,1l1,0ZM276.5,83.5c0,-1,1,-1,1,-1c1,0,1,0,1,0c1,0,2,0,2,0c0,0,0,1,0,1c0,0,0,1,0,1c0,0,-1,0,-1,1l-1,0l-1,0l-1,0l2,-1c1,0,1,0,2,-1c-1,0,-1,0,-1,0c0,0,-1,0,-1,0c0,0,-1,0,-1,0c0,0,-1,0,-1,1l0,-1ZM282.5,84.5l4,-3l0,1l-1,1l-4,2ZM266.5,87.5l4,-2l0,1l-1,0l-4,2ZM257.5,89.5l0,1c1,0,1,0,1,0l1,0l0,-1l0,-1l0,1c0,1,1,1,1,1c0,0,0,-1,0,-1l0,-1l1,0l0,1l0,1l-1,0l0,1l-1,0l0,-1l0,1c-1,0,-1,0,-1,0c-1,0,-1,0,-1,0l0,-1l0,-1ZM259.5,84.5c0,0,0,-1,0,-1c1,0,1,0,1,0l1,0l0,1l0,1l-1,0l1,0l0,1l0,1l-1,0l-1,0c0,1,-1,1,-1,1c0,0,-1,0,-1,0c1,0,1,-1,2,-2c0,-1,0,-1,0,-1c0,0,0,-1,0,-1ZM260.5,84.5l-1,0l0,1l1,0c0,0,0,-1,0,-1ZM314.5,100.5c0,0,-1,0,-2,0c0,-1,-1,-1,-1,-1l-1,0c0,1,0,1,-1,1l-1,0l-1,0l-1,0l-2,0c0,1,0,1,0,2l0,1c0,0,-1,1,-1,1c0,0,-1,0,-1,1l-1,0c0,0,0,1,0,1c-1,0,-1,0,-1,0c0,0,-1,0,-1,0c-1,0,-1,0,-2,-1l-1,0c1,0,1,0,1,0c0,0,1,0,1,0c0,0,1,0,1,0c1,0,1,-1,2,-1l0,-1c1,0,1,0,1,0c0,-1,1,-1,1,-1c0,0,0,-1,0,-1l0,-1l-1,0c0,0,-1,0,-1,0l0,-1l0,-1l0,-1c0,0,0,-1,0,-1c1,0,1,0,1,0l1,0c1,0,1,0,1,0c0,1,0,1,0,1l0,1c0,0,1,0,1,1l1,0c1,0,1,0,1,0l1,0c0,-1,0,-1,1,-1c-1,0,-1,0,-1,-1c0,-1,1,-1,1,-1c0,-1,0,-1,0,-1c0,0,1,-1,1,-1c0,0,-1,0,-1,0c0,0,1,-1,1,-1l0,-1c1,0,2,1,2,2c1,0,1,0,2,1c0,0,1,1,1,1c0,1,0,1,0,1c0,0,0,1,0,1l0,1c0,0,0,1,0,1c-1,0,-1,0,-1,0ZM311.5,95.5c-1,0,-1,0,-1,1l-1,0c0,1,0,1,1,1c1,0,1,0,1,0c0,0,0,-1,0,-1c0,0,0,-1,0,-1ZM312.5,96.5c0,1,0,1,0,1l0,1l2,0c0,-1,0,-1,-1,-1c0,0,0,-1,0,-1c0,0,-1,0,-1,0ZM387.5,86.5c0,-1,0,-1,0,-1c0,0,1,-1,1,-1c0,1,0,1,0,1c1,0,1,0,1,1l0,1c0,0,-1,0,-1,0l1,1l0,1l-1,-1l-1,1c-1,1,-1,1,-1,1l-1,0c-1,0,-1,0,-1,0l1,0l1,-1l1,-1c-1,-1,-1,-1,-1,-1l0,-1l1,0ZM388.5,86.5l-1,0l0,1l1,0l0,-1ZM307.5,81.5l1,-1l1,0c0,0,0,1,0,1c0,0,0,1,0,1c0,0,0,1,0,1l1,0l-1,1l-1,0l-1,1l-1,0l0,1l-1,0l1,-1c0,0,1,-1,1,-1l1,0l0,-1l-1,0l0,-1l0,-1ZM308.5,81.5c0,1,0,1,0,1ZM302.5,98.5c0,0,0,1,0,1c0,0,1,0,1,0c0,0,0,-1,0,-1c0,0,-1,0,-1,0ZM299.5,91.5l4,-2c0,1,-1,1,-1,1l-4,2ZM331.5,99.5l-1,0c0,1,0,1,0,1c0,0,1,0,1,0c0,0,0,-1,0,-1ZM332.5,102.5c0,0,-1,0,-1,0c-1,0,-1,0,-1,0c-1,0,-1,0,-2,0c0,0,-1,0,-1,0c0,-1,0,-1,0,-1c0,-1,0,-1,0,-1c1,0,1,0,1,0c0,0,1,0,1,0c0,-1,0,-1,0,-1c1,0,1,0,1,0c0,-1,0,-1,0,-1c0,0,0,-1,0,-1c-1,0,-1,-1,-1,-1c0,0,-1,-1,-1,-1c-1,-1,-1,-1,-2,-2l0,-1c-1,0,-1,0,-1,0c-1,0,-1,0,-1,0c-1,0,-1,-1,-1,-1c0,0,0,-1,0,-1c0,-1,0,-1,0,-1c0,0,0,-1,0,-1c1,1,1,1,2,1c0,1,1,1,1,2c1,0,1,1,2,2c0,0,1,1,2,2c0,0,0,1,0,1c1,0,1,1,1,1c0,0,0,-1,0,-1c0,-1,1,-2,1,-2c0,-1,0,-2,0,-2c0,0,0,-1,0,-1c0,-1,0,-1,0,-2l-1,0l0,-1l1,-1l0,1c0,0,1,0,1,0l1,0c0,1,-1,1,-1,1c0,1,0,1,0,1l0,1l0,1c0,0,0,1,0,1c0,1,-1,1,-1,2c0,0,0,1,0,1c0,1,0,1,-1,2c1,0,1,0,1,0l0,1c0,1,0,1,0,1c0,0,0,1,0,1l0,1ZM100.5,88.5l0,1l1,0l0,-1l1,0c0,1,0,1,0,1c1,0,1,0,1,-1l0,-1l0,1l0,1c0,1,0,1,0,1l-1,0l-1,0c0,1,0,1,-1,1l0,-1l0,-1l0,-1ZM104.5,86.5l-5,2c0,0,0,-1,0,-1l6,-3ZM328.5,84.5l0,1c1,1,1,1,1,1l0,-1l1,-1l0,1l1,0l0,-1l0,-1l1,1l0,1l-1,0c0,1,0,1,0,1l-1,0l-1,0c0,1,0,1,0,1c-1,0,-1,0,-1,-1l0,-1ZM332.5,82.5l-5,2c0,0,0,-1,1,-1l5,-3ZM352.5,99.5c1,0,1,0,1,0c1,0,1,0,1,0c0,-1,1,-1,1,-1l0,-1l0,-2l-1,-6l0,-1l0,-1c1,0,1,0,1,0c0,0,0,1,0,1c0,0,1,0,1,0c0,1,0,1,0,1c0,1,0,1,0,1l-1,0c0,0,1,1,1,2c0,0,0,1,0,3l0,1l0,1c0,0,0,1,0,1c0,0,0,1,-1,1c0,1,0,1,0,1c0,0,-1,0,-1,0l-1,0l-1,0c-1,0,-1,0,-1,0c-1,0,-1,0,-1,0c0,0,-1,-1,-1,-1c0,-1,0,-1,0,-1c-1,0,-1,0,-1,1l-1,0c-1,0,-1,0,-2,0l0,-2c0,0,0,-1,1,-1c0,0,1,-1,2,-1c0,-1,0,-1,0,-1l0,-1l1,0l0,-1l0,1c0,1,0,1,0,1c1,1,1,1,1,1l0,3c1,1,1,1,1,1c0,0,1,0,1,0ZM393.5,84.5l1,0c0,-1,-1,-1,-1,-2c0,0,0,-1,0,-1l0,-1c1,0,1,0,1,1c0,0,0,1,0,1l0,1c0,0,0,1,0,1l-1,0ZM354.5,85.5l1,0c0,-1,-1,-1,-1,-2c0,-1,0,-1,0,-2l0,-1c1,1,1,1,1,1c0,1,0,1,0,1l0,1l0,1c0,1,0,1,-1,1ZM349.5,95.5l-1,0l-1,1c0,0,-1,1,-1,1l1,0l1,0l1,0l0,-1ZM401.5,85.5l4,-3l0,1l-1,1l-4,2ZM345.5,87.5l5,-2l-1,1l-4,2ZM377.5,99.5l-1,0c0,1,0,1,0,1c0,0,1,0,1,0c0,0,0,-1,0,-1ZM378.5,102.5c0,0,-1,0,-1,0c-1,0,-1,0,-1,0c-1,0,-1,0,-2,0c-1,0,-1,0,-1,0c0,-1,0,-1,0,-1c0,-1,0,-1,0,-1c0,0,1,0,1,0l1,0c0,-1,0,-1,0,-1c1,0,1,0,1,0c0,-1,0,-1,0,-1c0,0,0,-1,0,-1c-1,0,-1,-1,-1,-1c0,0,-1,-1,-1,-1c-1,-1,-1,-1,-2,-2l-1,-1l-1,0c-1,0,-1,-1,-1,-1c0,0,0,-1,0,-1c0,-1,0,-1,0,-1c0,0,0,-1,0,-1c1,1,1,1,1,1c1,1,1,1,2,2c1,0,1,1,2,2c0,0,1,1,2,2c0,0,0,1,0,1c1,0,1,1,1,1c0,0,0,-1,0,-1c0,-1,0,-2,0,-2c1,-1,1,-2,1,-2c0,0,0,-1,0,-1c0,-1,0,-1,0,-2c-1,0,-1,0,-1,0l0,-1l1,-1l0,1l1,0c0,1,0,1,0,1c0,1,0,1,0,1l0,1l0,1c0,0,0,1,-1,1c0,1,0,1,0,2c0,0,0,1,0,1c0,1,-1,1,-1,2l1,0l0,1c0,1,0,1,0,1c0,0,0,1,0,1l0,1ZM376.5,85.5l4,-2l0,1l-4,2ZM374.5,86.5c-1,0,-2,0,-3,0l-1,0l-1,0l-1,0c0,1,0,1,-1,1l0,-1l1,0l1,-1l1,0c0,0,1,0,1,0l1,0l1,0l1,0ZM403.5,100.5l0,-1l0,-1l-1,-8l1,-3l1,11c0,0,-1,0,-1,1c0,1,0,1,0,1ZM398.5,100.5c0,0,-1,0,-1,0c0,0,-1,0,-1,0c0,-1,-1,-1,-1,-2c0,1,0,1,-1,2c0,0,-1,0,-1,0c-1,0,-1,0,-2,0c0,-1,-1,-1,-1,-2c0,1,0,1,-1,1c0,0,-1,0,-1,0c-1,0,-1,0,-2,0c0,0,0,-1,0,-1c0,0,0,-1,0,-1c0,0,1,0,1,-1c1,0,1,0,2,-1l1,-1l0,-1c0,0,1,-1,1,-1l0,1l0,1l0,3l0,1l1,0c0,0,0,1,1,1c0,0,1,-1,1,-1c0,0,1,-1,1,-1c0,0,0,-1,-1,-2c0,-1,0,-1,0,-2c0,-1,0,-1,0,-1l0,-1l1,-1l0,3l0,2l1,1c0,0,0,1,0,1c0,1,1,1,1,1l1,0c1,0,1,0,1,-1l0,-1l-1,-1l0,-1l0,-1l0,-1l0,-1l0,1c1,0,1,1,1,1l0,2c0,1,0,1,0,2c0,0,0,1,0,2l-1,1ZM390.5,95.5l0,1c-1,0,-1,0,-1,0l-1,0c0,1,0,1,-1,1c1,0,2,0,2,0c1,0,1,0,1,0ZM392.5,87.5l0,1c1,0,1,0,1,0c0,0,1,0,1,-1l0,-1l0,1c0,0,1,0,1,0c0,0,1,0,1,-1l0,-1l0,1l0,1l0,1l0,1l-1,0c0,0,-1,0,-1,-1l0,1c-1,0,-1,1,-1,1c-1,0,-1,-1,-1,-1l0,-1l0,-1ZM424.5,192.5l0,-1l0,-1l0,-8l0,-3l1,11l0,1c0,1,-1,1,-1,1ZM427.5,195.5l-4,2c0,-1,0,-1,1,-1l3,-2ZM225.5,179.5l1,0c0,0,1,0,1,0c1,0,1,0,1,0c1,0,1,0,1,1c0,0,0,1,-1,1l0,1l-1,0c0,0,-1,0,-1,0c-1,0,-1,0,-1,0l2,-1c0,0,1,0,1,-1l-1,0c-1,0,-1,0,-2,0l0,1l0,-1l0,-1ZM360.5,182.5c0,0,1,-1,1,-1l0,-1l0,-1l0,-2l-1,-1c0,0,1,0,1,0l0,1l0,1l0,1l0,1l0,1l1,-1l1,0l0,-1l1,0c0,0,0,1,1,1l0,1c0,0,-1,1,-1,1c-1,0,-1,0,-1,0c-1,0,-1,0,-1,0ZM363.5,180.5l0,1l-1,0l-1,1l1,0c0,-1,1,-1,1,-1c1,0,1,0,1,0c0,-1,0,-1,0,-1l-1,0ZM126.5,169.5l0,1c0,0,-1,0,-2,1c0,0,-1,0,-1,0c-1,0,-1,0,-1,0c-1,0,-1,0,-1,-1c0,0,0,1,-1,1c0,-1,-1,-1,-1,-1l0,-1c0,0,0,1,0,1c0,0,-1,0,-1,0l0,1c-1,0,-1,0,-1,0c0,0,1,0,1,0c1,0,2,0,2,0l1,0c1,0,1,0,2,0c1,0,1,0,1,0l3,0l-1,1c-1,0,-1,0,-2,0l-1,0l-1,0l-2,0l-2,0c-1,0,-1,0,-1,0c-1,0,-1,0,-1,0c0,0,0,-1,0,-1l1,0l1,-1l0,-1c1,0,1,0,1,-1l0,-2l0,-1l0,4c0,0,1,0,1,0c0,1,0,1,0,1l1,0l0,-1c0,1,1,1,1,1c1,-1,1,-1,2,-1c0,-1,1,-1,1,-1c1,0,1,0,1,0c0,1,0,1,0,1ZM126.5,169.5c-1,0,-1,0,-1,0c0,0,-1,0,-1,0c-1,1,-1,1,-1,1l1,0c1,0,1,0,2,-1ZM164.5,185.5l-2,-1l1,-1l2,1ZM172.5,191.5l-2,0c0,0,-1,0,-1,0l-1,0c0,0,-1,0,-1,0l-1,0l0,1l-1,0c0,0,-1,0,-1,1c0,0,-1,0,-1,0c-1,0,-2,0,-3,0c-1,0,-1,0,-1,0c-1,0,-1,-1,-1,-2c0,1,-1,2,-1,2c-1,0,-1,0,-1,0l-1,0l-1,0l-1,0c-1,0,-1,0,-2,0l-1,0c0,0,-1,0,-1,0c-1,0,-2,0,-2,0l-1,0c-1,0,-1,0,-2,0l0,1l-1,0l1,0l0,1l0,1c0,0,0,1,0,1c-1,1,-1,1,-2,1l-1,0c0,0,-1,-1,-1,-1c0,-1,0,-2,0,-3l-1,-1c0,0,-1,0,-1,0l-1,0l-3,0l-1,0l0,1l0,1c0,0,-1,1,-1,1c0,0,-1,-1,-1,-1c0,-1,0,-1,-1,-2l0,-1c0,0,-1,0,-1,1c0,0,-1,0,-1,0l0,1l0,1l0,1l0,2l0,1l1,1c0,1,0,1,0,2c0,0,0,1,0,1l-1,0l0,-1l0,-1l0,-1l-1,-3l0,-1l0,-1l0,-1l0,-1c1,0,1,-1,1,-1l0,-1l1,0l1,0l0,-1l1,0l0,-1c0,1,1,2,2,2l2,1l1,0l1,0l1,0l1,0l1,-1l0,-1l1,-1c1,-2,2,-3,2,-3c0,0,1,1,1,1l0,1l0,1c0,0,0,1,-1,1c0,1,-1,2,-1,2l1,0l1,0l1,0l1,0l1,0c0,0,1,0,1,0c0,0,1,-1,1,-1l0,-1c0,0,0,-1,0,-1c0,-1,0,-1,0,-1c1,-1,1,-1,1,-1c1,-1,1,-1,2,-1c0,0,1,0,1,1c0,0,0,1,0,1l0,1c0,0,0,1,0,1l0,1c0,0,-1,0,-1,0l1,1c0,0,1,0,1,0l1,0c1,0,1,0,1,0c1,-1,1,-1,1,-1l0,-1c0,-1,0,-1,0,-1c0,0,0,-1,0,-1l0,-7l1,-2l0,11c0,0,0,1,1,1c0,0,0,1,0,1c0,0,1,0,1,0l1,0c1,0,1,-1,2,-1c0,0,1,0,1,0l2,-1l1,0l-1,0l-1,-1l-1,0l-1,0c0,0,-1,0,-1,0l-1,0c0,0,1,-1,1,-1c0,0,0,-1,1,-1l1,0c1,0,1,0,1,0l0,1l2,0l1,1c1,0,1,0,1,0c1,0,1,0,1,0c1,0,1,0,2,0l1,0ZM163.5,180.5l5,-2l-1,1l-4,2ZM156.5,172.5l1,-1c0,0,1,0,1,0c1,0,1,0,1,1c1,0,1,0,1,0c0,1,0,1,-1,1c0,1,0,1,0,1c0,0,-1,0,-1,0c0,0,-1,0,-1,0l-1,0l2,0c0,-1,1,-1,1,-1l-1,0c0,0,0,-1,0,-1c-1,0,-1,1,-2,1l-1,0c0,0,1,-1,1,-1ZM151.5,185.5l-1,-1l1,-1l1,1ZM151.5,188.5c0,0,-1,0,-1,0c0,1,0,1,-1,1c0,0,1,1,1,1l1,1c0,-1,0,-1,1,-1l0,-1c0,-1,-1,-1,-1,-1ZM149.5,177.5l5,-2l-1,1l-4,2ZM143.5,188.5l-1,0c0,1,0,1,-1,1l0,1l-1,1c1,0,2,0,3,-1l0,-1c0,-1,0,-1,0,-1ZM140.5,194.5l0,1c1,0,1,1,1,1l1,0l0,1c1,0,1,0,2,-1c0,0,-1,-1,-2,-2c0,0,-1,0,-2,0ZM142.5,178.5c0,-1,0,-1,0,-1c1,-1,1,-1,1,-1c1,0,1,0,1,0c0,1,0,1,0,1c0,1,0,1,0,1l0,1l0,2l-1,-1l-1,1c0,0,0,1,-1,1l-1,0l0,-1l1,0l1,0l0,-1l0,-1l0,-1ZM143.5,178.5l0,-1c0,0,-1,1,-1,1l1,0l0,1l0,-1ZM127.5,183.5c0,-1,0,-1,1,-1c0,0,1,0,1,0c1,0,1,0,2,0c0,0,0,1,0,1c0,0,0,1,0,1c-1,0,-1,0,-1,1c-1,0,-1,0,-1,0c0,0,-1,0,-1,0c0,0,-1,0,-1,0l2,-1c0,0,1,0,1,-1c-1,0,-1,0,-1,0c-1,0,-1,0,-2,0c0,0,0,1,0,1l0,-1ZM197.5,189.5c0,0,0,1,-1,1c0,0,1,0,1,0c0,0,1,0,1,0c-1,0,-1,0,-1,0c0,0,0,-1,0,-1ZM197.5,197.5l-1,1c-1,0,-1,0,-2,0c-1,0,-1,0,-2,0c0,0,-1,0,-1,-1c0,0,1,0,1,0l1,0c1,0,1,0,1,0l1,0l0,-1c1,0,1,0,1,0c1,-1,1,-1,1,-1c0,0,1,-1,1,-1c0,-1,0,-1,0,-2c0,0,-1,0,-1,0c0,1,0,1,0,1c0,0,-1,0,-1,0c0,-1,0,-1,0,-1c-1,0,-1,0,-1,0c0,-1,0,-1,0,-1c0,-1,0,-1,0,-1c0,-1,1,-1,1,-2l1,0c0,-1,0,-1,0,-1c1,0,1,0,1,1l1,0c0,1,0,1,0,1c0,1,0,1,0,1c0,1,0,1,0,2c0,1,0,2,-1,3c0,1,0,1,0,1c-1,1,-1,1,-1,1ZM194.5,184.5l4,-2c0,0,0,1,0,1l-4,2ZM190.5,193.5l-1,0c0,0,-1,-1,-1,-1l-1,0c0,1,-1,1,-1,1l-1,0l-1,0l-1,0c-1,0,-1,0,-2,0c0,-1,0,-1,0,-2l-1,-9l1,-2l0,10l1,0l0,1c0,1,1,1,1,1l1,0l1,0c1,0,1,0,1,0l1,-1l0,-1c1,0,1,-1,1,-1l1,-1c1,0,1,0,1,1c0,0,1,0,1,1l0,1c0,1,0,1,0,1c0,0,-1,1,-1,1ZM188.5,191.5l1,0l1,0c0,-1,0,-1,0,-1c-1,0,-1,0,-1,0c0,0,-1,0,-1,0c0,0,0,1,0,1ZM185.5,180.5l5,-2l-1,1l-4,2ZM248.5,197.5l-2,-1l0,1l-2,-1l1,-1l2,0l0,-1l2,1ZM245.5,193.5l-1,0l-2,0c0,0,-1,0,-1,0l-1,-1c0,0,0,-1,0,-1l0,1l-1,0l0,1c-1,0,-1,0,-2,0l-1,0l-1,0c-1,0,-1,0,-1,0c0,0,0,-1,-1,-1l0,-1l1,0l0,-1l0,1l1,0l1,0l1,0l1,0l1,0l1,0l0,-1l0,-1l-1,-2l0,-1l0,-1l1,-1l0,2l1,1l0,2c0,1,0,1,0,1c0,1,0,1,0,1c1,0,1,1,1,1l2,0l1,0c0,0,1,0,1,0c1,-1,1,-1,2,-1l0,-1l-1,0c0,-1,0,-1,0,-1l1,-2l0,1c0,1,0,1,0,1c0,1,0,1,0,1c0,0,0,1,0,1c0,0,0,1,0,1c-1,1,-1,1,-2,1l-1,0ZM244.5,179.5c0,0,1,0,1,0c1,-1,1,-1,1,-1c1,0,1,1,2,1l0,1c0,1,-1,1,-1,1l-1,0l-1,0l-1,0l2,0c1,0,1,-1,2,-1c-1,0,-1,0,-1,0c0,0,-1,0,-1,0c0,0,-1,0,-1,0c0,0,-1,0,-1,0l0,-1ZM237.5,197.5l-4,2c0,-1,0,-1,0,-1l4,-2ZM230.5,197.5l-1,-1l-1,1l-1,-1l0,-1l2,0l1,-1l1,1ZM227.5,193.5l-1,0c-1,0,-1,0,-2,0l0,1l-1,0l1,0l0,1l0,1c0,0,0,1,0,1c-1,1,-1,1,-2,1l-1,0c0,0,-1,-1,-1,-1c0,-1,0,-2,0,-3l-1,-1c0,0,-1,0,-1,0l-1,0c-1,0,-1,0,-2,0l0,-1c-1,1,-1,1,-1,2l-1,0l-1,0c-1,-1,-1,-1,-1,-1l-1,0l0,1c0,0,-1,1,-1,1c-1,1,-1,1,-2,1c-1,0,-3,0,-4,0l4,-2l2,0c0,-1,1,-1,1,-2l1,-1c0,-1,0,-1,1,-1c0,-1,0,-1,0,-1l1,0c0,0,1,0,1,1c0,1,1,1,1,1c0,0,1,1,1,1c0,0,1,0,1,0l1,0l1,0l1,-1l0,-1l1,-1c1,-2,2,-3,2,-3c1,0,1,1,1,1l0,1l0,1c0,0,0,1,0,1c-1,1,-1,2,-2,2l1,0l1,0l1,0l1,0l1,0c1,0,1,0,2,0c0,-1,1,-1,1,-1l0,-1c-1,-1,-1,-1,-1,-1l1,-2l0,1c0,1,0,1,0,1c0,0,1,0,1,0c0,1,0,1,0,1c0,0,0,1,0,1c-1,0,-1,1,-1,1c0,1,-1,1,-1,1c-1,0,-1,0,-2,0ZM223.5,188.5c-1,0,-1,0,-1,0c0,1,0,1,-1,1l0,1l-1,1c1,0,2,0,3,-1l0,-1c0,-1,0,-1,0,-1ZM220.5,194.5l1,1c0,0,0,1,0,1l1,0l0,1c1,0,1,0,2,-1c0,0,-1,-1,-2,-2c0,0,-1,0,-2,0ZM220.5,199.5l-4,2c0,0,0,-1,0,-1l4,-2ZM213.5,192.5l0,-1l-1,0l-1,0c0,0,1,0,1,1l1,0ZM209.5,183.5c0,-1,0,-1,1,-1c0,0,1,0,1,0c1,0,1,0,2,0c0,0,0,1,0,1c0,0,0,1,-1,1l0,1c-1,0,-1,0,-1,0c0,0,-1,0,-1,0c0,0,-1,0,-1,0l2,-1c0,0,1,0,1,-1c-1,0,-1,0,-1,0c-1,0,-1,0,-2,0l0,1l0,-1ZM299.5,197.5l-2,-1l1,-1l2,1ZM296.5,193.5l-1,0l-1,0l-1,0l0,-1l0,-1l0,-1l-1,0l0,-1c0,1,0,1,-1,2c0,0,-1,0,-1,0l0,1l0,1c0,0,0,1,0,1l-1,0c0,1,0,1,0,1c-1,0,-1,1,-1,1c-1,0,-1,0,-2,0c0,0,0,1,-1,1c-1,0,-2,0,-3,1c-1,0,-2,0,-3,0c0,0,-1,0,-2,0c-1,0,-1,0,-2,0c-1,0,-1,0,-2,0c0,0,-1,0,-2,0c-1,0,-1,0,-2,0c-1,-1,-2,-1,-2,-1c-2,-1,-3,-1,-4,-2c-1,0,-2,-1,-2,-2c-1,0,-1,0,-1,0c0,-1,0,-1,0,-1c1,1,1,1,1,1c1,0,1,0,1,1c1,0,2,0,3,1c0,0,1,0,1,0c1,0,1,0,2,1c0,0,1,0,2,0c0,0,1,0,2,0c0,0,1,0,2,0c0,0,1,0,1,0c1,0,1,0,2,0c1,0,1,0,2,0c1,0,2,0,3,0c1,0,2,0,3,-1c0,0,1,0,2,0c2,-1,2,-2,2,-2c0,-1,0,-1,0,-1l0,-1l-1,-1l0,-2l1,1l1,0c1,0,1,0,1,0c1,0,1,-1,1,-1l1,-1c0,1,0,1,0,1l0,1c0,1,0,1,1,2c0,0,0,1,0,1c1,0,1,0,1,0l1,0c1,0,1,0,2,0c0,-1,1,-1,1,-1l0,-1c0,-1,0,-1,-1,-1l1,-2l0,1l1,1l0,1l0,1c0,0,0,1,-1,1c0,1,-1,1,-1,1c-1,0,-1,0,-2,0ZM296.5,180.5l5,-2l-1,1l-4,2ZM294.5,196.5l-1,-1l-1,2l-1,-1l1,-2l1,1l1,-1l1,1ZM290.5,179.5l1,0c0,-1,0,-1,1,-1c0,0,1,1,1,1c1,0,1,0,1,0l0,1c0,0,-1,0,-1,0c0,1,0,1,0,1c0,0,-1,0,-1,0c-1,0,-1,0,-1,0l-1,0l2,0c0,0,1,-1,1,-1l-1,0c-1,0,-1,0,-2,0l-1,0l1,-1ZM277.5,192.5l-1,-1l0,-2l2,1ZM267.5,184.5l1,0l3,-1l5,-2l5,-2l-1,1l0,1l-1,0l-1,0l-2,1l-5,2l-4,1ZM317.5,193.5l-1,0c0,0,-1,-1,-1,-1l-1,0c0,1,0,1,-1,1l-1,0l-2,0c0,0,-1,0,-2,0c0,-1,0,-1,0,-2l-1,-9l1,-2l1,10l0,1c0,1,1,1,1,1l2,0c1,0,1,0,1,0l1,-1l0,-1c1,0,1,-1,1,-1l1,-1c1,0,1,0,1,1c1,0,1,0,1,1l0,1c0,1,0,1,0,1c0,0,0,1,-1,1ZM315.5,191.5l1,0l1,0c0,-1,0,-1,0,-1c0,0,-1,0,-1,0c0,0,-1,0,-1,0c0,0,0,1,0,1ZM313.5,180.5l4,-2l-1,1l-4,2ZM352.5,197.5l-2,-1l0,1l-2,-1l1,-1l1,0l1,-1l2,1ZM349.5,193.5l-1,0c-1,0,-1,0,-2,0l-1,0c0,0,0,-1,-1,-1l-1,0l0,1c0,0,-1,0,-1,0c0,0,-1,0,-1,0l-1,0c-1,0,-1,0,-2,0c0,0,-1,-1,-1,-2c0,1,0,2,-1,2l-1,0l-2,0c-1,0,-1,0,-2,0l0,1l0,1c0,0,-1,1,-1,1c0,0,0,-1,-1,-1c0,-1,0,-1,-1,-2l0,-1l-1,1l-1,0l0,1l0,1l0,1l0,2l1,1l0,1c0,1,0,1,0,2c0,0,0,1,0,1l-1,0l0,-1l0,-1l0,-1l0,-3l-1,-1l0,-1l0,-1l0,-1c1,0,1,-1,1,-1l0,-1l1,0l1,0l0,-1l1,0l0,-1c1,1,1,2,2,2l2,1l1,0l1,0c0,0,1,0,1,0c0,-1,1,-1,1,-1l0,-1c0,-1,0,-1,0,-1c0,0,0,-1,0,-1l-1,-7l1,-2l1,11c0,0,0,1,0,1c1,0,1,1,1,1l1,0c0,0,1,0,1,0l1,-1l1,0l0,-1l-1,0l-1,0l1,-2l1,-1c0,0,1,0,1,0c0,0,1,0,1,0l0,1c0,0,1,0,1,0c0,1,0,1,0,1l0,1l-1,0l0,1c1,0,1,0,1,0l0,1l1,0l1,0l1,0c0,0,1,0,1,0c1,-1,1,-1,1,-1c1,0,1,0,1,0l0,-1c0,0,-1,0,-1,0c0,-1,0,-1,0,-1l1,-2l0,1c0,1,0,1,0,1c0,1,0,1,0,1c0,0,0,1,0,1c0,0,0,1,0,1c-1,1,-1,1,-2,1c0,0,-1,0,-1,0ZM349.5,180.5l4,-2l0,1l-4,2ZM340.5,179.5l1,0c0,-1,1,-1,1,-1c1,0,1,1,2,1l0,1l-1,0c0,1,0,1,0,1l-1,0c0,0,-1,0,-1,0c-1,0,-1,0,-1,0l2,0c0,0,1,-1,1,-1c-1,0,-1,0,-1,0c-1,0,-1,0,-2,0l0,-1ZM334.5,177.5l4,-2l0,1l-4,2ZM328.5,178.5c0,-1,0,-1,1,-1c0,-1,0,-1,0,-1l1,0c0,1,0,1,0,1c0,1,0,1,0,1l0,1l0,2l-1,-1l-1,1c0,0,0,1,-1,1l-1,0l0,-1l1,0l1,0l0,-1l1,0l-1,0l0,-1l0,-1ZM329.5,178.5l0,-1c0,0,-1,1,-1,1l1,0l0,1l0,-1ZM402.5,197.5l-1,-1l0,-1l2,1ZM400.5,193.5l-1,0l-1,0l-1,0c0,0,-1,0,-1,0c-1,-1,-1,-1,-1,-2l-1,-9l1,-2l1,10l0,1c0,1,1,1,1,1l1,0l1,0l1,0l1,0c1,-1,1,-1,1,-1l0,-1c0,-1,0,-1,0,-1l-1,0l1,-2l0,1l1,0l0,1l0,1l0,1c0,0,0,1,0,1c0,0,-1,0,-1,0c0,1,0,1,-1,1c-1,0,-1,0,-1,0ZM401.5,199.5l-4,2c1,0,1,-1,1,-1l4,-2ZM396.5,198.5l-4,2c0,-1,0,-1,0,-1l4,-2ZM388.5,183.5l-2,-1l1,-2l1,1ZM392.5,192.5l-1,0l-1,1c0,0,-1,0,-1,0l-1,1l-1,0l-1,0c0,0,0,-1,0,-1c0,0,-1,0,-1,0c0,-1,0,-1,0,-1l1,0l0,-1l1,1c0,0,1,-1,1,-1c1,0,1,0,1,0c1,0,1,0,1,0c1,0,1,0,1,0c0,-1,0,-1,0,-2c0,0,-1,0,-1,-1l-1,-1l-1,0l-1,0l1,-2l1,0l1,1l1,0c0,1,0,1,0,2c1,0,1,1,1,1c0,0,0,1,0,1c0,1,0,1,0,1c0,1,0,1,0,1ZM385.5,175.5l1,0l1,0c0,0,1,0,1,0c1,0,1,0,1,1c0,0,-1,1,-1,1c-1,1,-1,1,-1,1c-1,0,-1,0,-1,0l-1,0l1,-1c1,0,2,0,2,-1l-1,0c-1,0,-1,0,-2,0l-1,1l0,-1c1,0,1,0,1,-1ZM380.5,187.5l-2,-1l1,-2l2,1ZM379.5,193.5l-1,0c-1,0,-1,0,-1,0c-1,0,-1,0,-1,0c0,0,-1,-1,-1,-1c0,-1,0,-1,0,-1c0,0,-1,0,-1,0c0,1,0,1,0,1l-1,0c-1,0,-1,0,-2,0l0,-2c0,0,0,-1,1,-1c0,0,1,-1,2,-1c0,-1,0,-1,0,-1l0,-1l1,0l0,-1l0,1c0,0,0,1,0,1c1,1,1,1,1,1l0,2c0,1,0,1,0,1c1,1,1,1,1,1c0,0,1,0,1,0l1,0c1,0,1,0,2,0c0,-1,1,-1,1,-1l0,-1c-1,-1,-1,-1,-1,-1l1,-2l0,1c0,1,0,1,0,1l1,0c0,1,0,1,0,1c0,0,0,1,0,1l-1,0c0,0,0,1,0,1c0,1,-1,1,-1,1c-1,0,-1,0,-2,0ZM383.5,197.5l-4,2c0,-1,0,-1,0,-1l4,-2ZM375.5,188.5l-1,0l-1,1c0,0,-1,1,-1,1l1,0l1,0l1,0l0,-1ZM419.5,192.5l-1,0c0,0,0,1,0,1l1,0c0,0,0,-1,0,-1ZM420.5,194.5c0,0,-1,1,-2,1c-1,0,-1,0,-2,0c-1,0,-1,0,-1,0c-1,-1,-1,-1,-1,-1l0,-1c1,0,1,0,1,0c0,0,1,0,1,0l1,0c0,-1,0,-1,0,-1c0,0,1,0,1,-1c0,0,0,-1,-1,-1c0,0,0,-1,0,-1c-1,0,-1,-1,-1,-1c-1,-1,-1,-1,-2,-2l-1,-1c0,0,-1,0,-1,0c-1,0,-1,-1,-1,-1c0,0,0,-1,-1,-1l0,-1l1,0c0,0,0,-1,0,-1c0,1,1,1,1,1c1,1,1,1,2,2c1,0,1,1,2,2c0,0,1,1,1,2c1,0,1,1,1,1c0,0,1,1,1,1c0,0,0,-1,0,-2c0,0,0,-1,0,-1c0,-1,1,-2,1,-2c0,0,0,-1,-1,-1c0,-1,0,-2,0,-2c0,0,0,-1,0,-1l0,-1c1,0,1,0,1,0c0,1,0,1,1,1c0,1,0,1,0,1c0,0,0,1,0,1c-1,1,-1,1,-1,2c0,0,0,1,0,1c0,1,0,1,0,1c0,1,0,2,0,2c0,1,-1,1,-1,2c1,0,1,0,1,1c0,0,0,1,0,1c0,0,0,1,0,1ZM416.5,177.5l0,1c0,0,0,1,1,1l0,-1l0,-1l1,0l0,1c1,0,1,0,1,-1l0,-1l0,1l0,1c0,1,0,1,0,1l-1,0l-1,0c0,1,0,1,-1,1l0,-1l0,-1l0,-1ZM420.5,175.5l-5,2c0,0,0,-1,0,-1l6,-3ZM373.5,199.5l0,-1c0,0,0,-1,0,-1c0,-1,0,-2,0,-2l0,-1l1,1c0,0,0,1,0,1l0,1c0,0,0,1,0,1l-1,1ZM123.5,184.5c0,0,-1,0,-1,0l-1,0l-1,0l-1,0l-1,0l-1,0c0,0,0,-1,0,-1c0,0,0,-1,0,-1c0,0,0,-1,0,-1c0,-1,1,-2,1,-2l-1,0l-1,0l1,0c0,0,0,-1,1,-1l1,0l1,1l1,-1l0,1l-1,0c-1,0,-1,0,-2,1c-1,0,-1,1,-1,1c0,0,0,1,0,1l0,1l1,0l1,1l1,0ZM120.5,181.5l0,1l-1,0c0,0,0,-1,0,-1c0,0,1,0,1,0ZM251.5,181.5l5,-3l-1,1l0,1l-4,2ZM253.5,195.5l0,-1l0,-2l0,-8l1,-2l0,10c0,1,0,1,0,1l0,1c0,0,-1,0,-1,1ZM41.5,179.5l1,0c0,-1,1,-1,1,-1c1,0,1,0,1,1c1,0,1,0,1,0c0,1,0,1,-1,1c0,1,0,1,0,1l-1,0c0,0,-1,0,-1,0l-1,0l2,0c0,0,1,-1,1,-1l-1,0c-1,0,-1,0,-2,0c0,0,0,-1,0,-1ZM57.5,177.5c0,0,1,0,1,0c1,0,1,0,1,0c1,0,1,0,2,0l0,1l0,1c0,0,-1,0,-1,0c0,0,-1,0,-1,1l-1,0l-1,0l2,-1c1,0,1,0,2,-1c-1,0,-1,0,-1,0c0,0,-1,0,-1,0c0,0,-1,0,-1,0c0,0,-1,0,-1,0c0,0,0,-1,0,-1ZM82.5,195.5l-1,-1l-1,1l-1,-1l0,-1l2,1l1,-2l1,1ZM79.5,192.5l-1,0l-2,0c-1,0,-2,-1,-2,-1c-1,0,-1,-1,-1,-1c0,0,0,-1,0,-1c-1,0,-1,0,-1,0l-5,2c0,0,-1,0,-1,0c0,0,-1,0,-1,0l-1,0l0,1l-1,0c0,0,0,-1,0,-1c-1,0,-1,0,-1,0c0,0,-1,0,-1,-1c0,0,0,1,-1,1l-1,0l0,1l-1,0l-10,0c0,1,0,1,0,2c-1,0,-1,0,-1,0l0,-1c0,0,0,-1,0,-1l-1,0l-1,0l0,1c0,0,-1,0,-1,1c0,0,0,1,-1,1c0,0,0,1,-1,1c0,1,-1,1,-1,1l-1,0l-1,0c0,0,-1,0,-1,0c-1,-1,-1,-1,-1,-1l1,0c1,0,1,0,2,0c0,0,0,-1,1,-1c0,0,1,0,1,0c0,-1,0,-1,1,-1c0,0,0,-1,0,-1l1,-1l-1,0c0,-1,-1,-1,-1,-1c-1,0,-1,0,-1,-1l0,-1l0,-1l1,0l0,-1l1,0c0,0,1,0,1,0l0,1l1,0c0,0,0,1,0,1c0,0,0,1,0,1c0,0,1,0,1,0l1,0c0,0,1,0,1,-1c0,0,1,0,1,-1l0,-1l0,-2l0,-1l-1,-3l0,-1l0,-1l0,-1l2,2l-1,0c0,0,0,1,0,1l0,1l0,1l0,1l0,1l0,2l0,1l0,1l2,-2l1,-1c1,0,1,0,1,0l1,0c1,0,1,0,2,0c0,0,1,1,1,1l0,1c0,1,0,1,-1,1l0,1l-1,0l2,0l1,0l1,0l1,0c0,0,0,-1,0,-1c1,0,1,0,1,0c0,0,0,-1,0,-1l1,0c0,1,0,1,0,1l0,1c1,0,1,0,2,0c1,0,1,0,1,0c1,0,1,0,2,0c0,-1,1,-1,1,-1l1,0l1,-1l-1,0c-1,-1,-2,-1,-3,-1l-1,0l0,-1l1,0c0,-1,1,-1,1,-1l1,0c0,0,1,1,1,1c1,0,2,1,4,1c0,0,1,0,1,0c1,0,2,0,2,0l1,0l-1,2l-1,0l-1,0l1,1l1,0l2,0l1,0c1,0,1,0,2,0c0,0,1,-1,1,-1c0,-1,0,-1,0,-1c0,0,-1,-1,-1,-1l1,-2c0,0,0,1,0,1c0,1,0,1,1,1c0,1,0,1,0,1c0,0,0,1,0,1c-1,1,-1,1,-1,1c0,1,-1,1,-1,1c-1,0,-1,1,-2,1ZM81.5,176.5c1,-1,1,-1,1,-1c0,0,1,-1,1,-1c0,1,0,1,0,1c0,0,1,0,1,1l-1,1l1,1l0,1l-1,-1l-1,1c-1,1,-1,1,-1,1l-1,0l-1,0l1,0l1,-1l0,-1l1,0l-1,-1l0,-1ZM83.5,176.5l-1,0l0,1l1,0l0,-1ZM73.5,195.5l-4,2c0,0,0,-1,0,-1c1,0,1,0,1,0l4,-2ZM62.5,195.5l-1,-1l-1,1l-1,-1l1,-1l1,1l1,-2l1,1ZM56.5,189.5c0,-1,0,-1,-1,-1l0,-1c-1,0,-1,0,-1,0l-1,0c0,0,-1,1,-1,1l-1,1l-1,0l-1,1l1,0c1,0,1,0,1,0c0,0,1,0,1,0c0,0,1,0,1,0c1,-1,2,-1,3,-1ZM49.5,172.5c0,0,1,0,1,-1l1,0c0,0,1,1,1,1c0,0,0,1,-1,1c0,1,0,1,0,1l1,0l0,1l-2,0l0,1c-1,0,-1,0,-1,0l-1,1l-1,0l1,-1l1,0c0,0,0,-1,0,-1l1,0l0,-1l-1,0l0,-1l0,-1ZM50.5,173.5l0,-1l0,1l1,0ZM43.5,189.5l-1,0c0,1,0,1,1,1c0,0,1,0,1,0l0,-1l-1,0ZM31.5,185.5l-1,-1l1,-1l1,1ZM31.5,195.5c0,0,-1,0,-1,0c-1,-1,-1,-1,-2,-1c0,0,0,-1,-1,-1c0,-1,0,-1,0,-2c0,0,0,-1,0,-1c0,0,0,-1,0,-1c0,0,1,-1,1,-1l0,-1l1,0c0,0,-1,1,-1,1c0,0,0,1,0,1c0,1,0,1,0,1c0,1,0,1,0,1c0,0,1,1,1,1c1,0,1,0,1,1c0,0,1,0,2,0c0,0,1,0,2,-1c0,0,1,0,2,-1c0,0,0,-1,0,-1c0,0,0,-1,0,-1c0,-1,0,-1,0,-1c-1,0,-1,-1,-1,-1l0,-1l0,-2l1,1l0,1l0,1c1,0,1,0,1,0c0,1,0,1,0,1c0,0,0,1,0,1l0,1c0,0,0,1,-1,2c0,0,0,1,-1,1c0,1,-1,1,-2,1c0,1,-1,1,-2,1ZM28.5,178.5l4,-2l-1,1l-4,2ZM106.5,188.5c0,1,0,1,0,1c0,0,1,0,1,0c0,-1,0,-1,0,-1c0,0,-1,0,-1,0ZM106.5,195.5c0,0,0,1,0,1c-1,0,-1,0,-1,0c-1,0,-1,0,-2,0c0,0,-1,0,-2,0l-1,-1l1,0c1,0,1,0,1,0c0,0,1,0,1,0l1,0c0,0,1,0,1,0c0,-1,1,-1,1,-1c0,-1,0,-1,1,-1c0,0,0,-1,0,-1c1,-1,1,-1,1,-1c0,-1,0,-1,0,-1l-1,0l0,1c0,0,-1,0,-1,0l-1,-1c0,0,0,-1,0,-1c0,0,0,-1,0,-1c0,-1,0,-1,0,-1c0,-1,1,-1,1,-1c0,0,0,-1,1,-1c0,0,0,1,0,1c1,0,1,0,1,1c0,1,0,1,0,1c1,1,1,1,1,2c0,0,0,1,0,1c-1,1,-1,2,-1,2c0,1,-1,1,-1,1c0,1,0,1,-1,1ZM103.5,182.5l5,-2l-1,0c0,1,0,1,0,1l-4,2ZM98.5,190.5c0,1,0,1,0,1c0,0,-1,0,-1,0c1,0,1,0,1,0l1,0c0,0,0,-1,0,-1ZM100.5,193.5c-1,0,-1,0,-2,0l-1,0c0,0,-1,0,-1,0c-1,0,-1,0,-1,0c0,0,-1,0,-1,0c0,0,0,-1,0,-1c0,0,0,-1,0,-1l1,0l1,0c1,0,1,-1,1,-1c1,-1,1,-1,1,-1c0,0,0,-1,-1,-1l0,-1c-1,0,-1,-1,-2,-1c0,-1,-1,-1,-1,-2c0,0,-1,0,-1,0c0,-1,0,-1,-1,-1c0,0,-1,0,-1,0c0,0,0,-1,-1,-1c0,0,0,-1,0,-1c0,-1,0,-1,0,-1l0,-1c1,0,1,0,1,0c0,1,1,1,1,1c1,1,1,1,2,2c0,0,1,1,2,2c0,0,1,1,1,2c0,0,1,1,1,1c0,0,0,1,1,1c0,0,0,-1,0,-1c0,-1,0,-2,0,-2c0,-1,0,-2,0,-2c0,0,0,-1,0,-1c0,-1,0,-1,0,-2l0,-1l0,-1c0,0,1,0,1,0c0,0,0,1,0,1c0,0,1,0,1,0c0,1,0,1,0,1c0,1,0,1,0,1l-1,0l0,1c0,0,0,1,0,1c0,1,0,1,0,1c0,1,0,1,0,2c0,0,0,1,-1,1c0,1,0,1,0,2c0,0,0,1,0,1c0,0,1,0,1,0c0,1,0,1,0,1c0,1,0,1,0,1l0,1ZM96.5,176.5l5,-3c0,0,0,1,0,1l-6,3ZM69.5,146.5c-1,0,-2,0,-3,1c-1,1,-2,1,-3,1c-1,1,-2,1,-3,1l-1,0l-1,0l-1,-1l0,-1c0,1,-1,1,-1,2c-1,0,-1,0,-2,0l-2,0c-1,0,-1,0,-1,0l0,-1l-1,0c0,-1,0,-1,0,-1c0,1,-1,1,-1,1c-1,0,-1,1,-2,1l-1,0l-1,0c-1,0,-1,0,-1,-1l-1,0l0,-1c1,-1,1,-1,1,-1l0,1l1,0l1,0l1,0l1,0l1,0c0,-1,0,-1,0,-1l1,0c0,0,0,-1,0,-2l-1,-1l0,-1l0,-1l1,-1l0,1c0,0,0,1,1,2l0,2c0,0,0,1,0,1c0,1,0,1,0,1c1,0,1,0,1,0l2,0c1,0,1,0,1,0c1,0,1,0,1,0l1,-1l0,-1l0,1c0,1,1,1,1,1c0,0,1,0,1,0l1,0c1,0,1,0,1,0c0,0,1,0,1,0c0,-1,0,-1,-1,-1c0,-1,0,-1,0,-2c0,-1,0,-1,1,-1l0,-1c0,0,1,-1,1,-1l1,0l1,0c0,0,1,0,1,0c1,0,1,0,1,1c0,0,1,0,1,0l-1,0l-1,0l-1,0l-1,0c-1,0,-1,0,-1,0c0,1,0,1,-1,1c0,0,0,1,1,1l0,1c1,0,1,1,2,1c0,0,1,0,1,0c0,-1,1,-1,1,-1l1,0l1,-1ZM64.5,152.5l-4,2c0,0,0,-1,1,-1l4,-2ZM56.5,144.5l-1,-1l1,-1l1,1ZM45.5,136.5l5,-2l-1,1l-4,2ZM38.5,149.5c0,0,-1,0,-1,0c-1,-1,-1,-1,-1,-2c0,0,0,-1,0,-1l0,-1l1,-1l0,-1c1,-1,1,-1,1,-1c1,0,1,0,2,1c0,0,1,1,1,1l0,1l0,1c0,1,-1,2,-2,3l-1,0ZM38.5,145.5l-1,0l0,1l0,1l1,0l1,0c1,0,1,0,1,-1l0,-1c-1,0,-1,0,-2,0ZM37.5,139.5c0,0,0,-1,0,-1l0,-1c0,0,0,-1,0,-2c0,-1,0,-1,1,-1c1,0,1,-1,1,-1l0,1l-1,1l0,1l-1,0c0,1,0,1,0,1c1,1,1,1,1,1l0,-1c0,0,1,0,1,1l0,1c0,1,-1,1,-1,1c0,-1,-1,-1,-1,-1ZM42.5,131.5c-1,1,-2,1,-3,1l-1,0l-1,0l-1,-1c-1,1,-1,1,-2,1l1,-1l1,-1c1,1,2,1,3,1l1,0l1,0l1,0l1,-1ZM246.5,149.5c0,0,-1,0,-1,0c-1,0,-1,0,-1,0c-1,0,-1,0,-2,0c0,0,-1,0,-1,0c0,0,0,-1,0,-1c1,0,1,0,1,0c0,0,1,-1,1,-1l1,0c0,-1,0,-1,0,-1c0,-1,0,-1,0,-1c0,-1,-1,-1,-1,-1c0,-1,-1,-1,-1,-2c0,0,-1,-1,-2,-1c0,0,0,-1,0,-1c-1,0,-1,0,-1,-1c0,1,0,1,0,1c0,0,-1,0,-1,0c-1,-1,-1,-1,-1,-2c0,0,0,-1,0,-1l0,-1c1,0,1,0,2,1c0,0,1,1,1,1c1,1,2,2,2,2c1,1,1,2,2,2c0,1,0,1,1,2l0,-1c1,0,1,-1,1,-2c0,0,0,-1,0,-2l0,-1c0,0,0,-1,0,-1l0,-1c0,0,-1,0,-1,0c0,0,1,-1,1,-1c0,0,0,-1,0,-1c0,0,0,1,0,1l1,0l0,1l1,0c0,0,-1,1,-1,1l0,1c0,1,0,1,0,2l0,1c0,0,0,1,0,1c-1,1,-1,1,-1,2c0,1,0,1,0,1c0,0,0,1,0,1c0,0,0,1,0,1l0,1c0,1,0,1,0,1ZM245.5,146.5l0,1c-1,0,-1,0,-1,0c0,0,0,1,0,1c1,0,1,0,1,0l0,-1ZM200.5,140.5l0,-1c1,0,1,0,1,0l0,-1l0,-1l0,-1l0,-1l0,-1l0,-1l1,1c0,0,-1,1,-1,1l1,0l0,1l0,1l0,1l0,1l0,-1l1,0l0,-1c0,0,1,0,1,0c0,0,1,0,1,0c0,0,0,1,0,1c0,1,0,1,0,1c-1,0,-1,0,-1,1c0,0,-1,0,-1,0c-1,0,-1,0,-1,0ZM204.5,138.5c-1,0,-1,0,-1,0l-1,1l-1,0l1,0l1,0c1,0,1,0,2,0c0,-1,0,-1,0,-1c0,0,-1,0,-1,0ZM113.5,151.5l-2,0l-1,1l-1,-1l1,-2l1,1l1,-1l2,1ZM109.5,145.5c1,0,1,0,2,0c0,0,0,-1,0,-1c0,-1,0,-2,-1,-2l-1,0c0,0,0,-1,0,-1l0,-1c0,0,1,0,1,-1c0,1,0,1,1,1c0,1,0,1,0,1c0,0,1,1,1,1l0,1c0,0,0,1,0,1l0,1c0,0,0,1,0,1l-1,0c0,1,0,1,0,1c0,0,-1,0,-1,0l-1,0l-1,0l0,-1c-1,0,-1,0,-1,0c0,-1,0,-1,0,-1c0,1,-1,1,-1,1c0,1,-1,1,-1,1c-1,0,-1,-1,-2,-2l0,1c-1,1,-1,1,-2,1c-1,0,-1,0,-2,-2c0,1,0,1,0,1c-1,1,-1,1,-2,1l-1,0l-1,0l-1,0c0,0,-1,0,-2,0l-1,-1c0,1,-1,1,-1,1c-1,0,-1,0,-2,0l-1,0l-1,0c0,0,-1,0,-1,0c-1,0,-1,0,-1,-1c0,0,-1,0,-1,0c0,0,-1,-1,-1,-1c-1,0,-2,0,-2,1c-1,0,-1,0,-1,1c-1,0,-1,1,-1,2c0,0,-1,1,-1,1c0,0,0,1,0,1c0,1,1,1,1,1c0,1,0,1,1,2l1,1c0,0,1,0,1,0l1,0l1,0c0,0,0,1,1,1c0,0,1,0,1,0c1,0,1,0,2,0l0,-1l1,0l1,0l0,1l-3,1c-1,0,-2,0,-2,0c-1,0,-1,0,-2,0c0,0,-1,0,-1,0c-1,0,-1,0,-2,-1c0,0,-1,0,-1,0c-1,-1,-1,-2,-1,-2c0,-1,0,-1,-1,-1c0,-1,0,-1,0,-1l0,-1c0,0,0,-1,1,-2c0,0,0,-1,0,-1l0,-1c1,0,1,0,1,-1c1,0,1,0,1,-1c0,0,1,0,1,-1l1,0l-1,-1l-1,0l1,-2l1,0l1,-1c0,0,1,1,1,1c1,0,1,0,1,0l0,1c0,0,0,1,0,1c0,1,-1,1,-1,1l1,1l1,0c0,0,1,0,1,0l2,0c1,0,1,0,1,0c1,0,1,0,1,0l0,-1c0,-1,0,-1,0,-2c0,0,0,-1,1,-1c1,-1,1,-1,2,-1c0,0,1,0,1,0c0,1,0,1,0,2l0,1l0,1c0,1,-1,1,-1,1l1,0c1,0,1,0,1,0l1,0l1,0l1,0c1,0,1,-1,2,-2l0,1c0,1,1,1,1,1c1,0,1,0,2,0c0,0,0,-1,1,-1l0,-1c0,1,0,1,0,1c0,1,1,1,1,1c1,0,1,0,1,0c0,0,0,-1,1,-1l0,-1c1,2,1,2,2,2ZM109.5,134.5l4,-2l-1,1l-4,2ZM102.5,139.5l-1,-1l1,-1l1,0ZM104.5,141.5l-2,-1l0,2l-2,-1l1,-2l1,1l1,-1l2,1ZM178.5,134.5c1,0,1,-1,1,-1c1,0,1,0,2,0c0,0,1,0,1,0c0,1,1,1,1,1c-1,1,-1,1,-1,1c0,1,0,1,-1,1l-1,0l-1,0l1,0c1,-1,1,-1,2,-1c0,0,-1,0,-1,-1c0,0,-1,0,-1,0c0,0,-1,0,-1,1l-1,0c0,-1,0,-1,0,-1ZM54.5,132.5l1,0c0,0,1,0,1,0c1,0,1,0,2,0c0,1,0,1,0,1l-1,1c-1,0,-1,0,-1,1c0,0,-1,0,-1,0c0,0,-1,0,-1,0l2,-1c0,0,1,0,1,-1c-1,0,-1,0,-1,0c-1,0,-1,0,-2,0c0,-1,0,-1,0,-1ZM100.5,132.5c1,0,1,-1,1,-1c1,0,1,0,2,0c0,0,1,0,1,0c0,1,1,1,1,1c-1,1,-1,1,-1,1c0,0,0,1,-1,1c-1,0,-1,0,-1,0l-1,0l1,0c1,-1,1,-1,2,-1c0,0,-1,-1,-1,-1l-1,0c0,0,-1,0,-1,1l-1,0c0,-1,0,-1,0,-1ZM92.5,139.5l-1,-1l1,-2l1,2ZM92.5,142.5l-1,0c0,0,0,1,0,1c0,1,0,1,1,1c0,0,1,0,1,0c0,0,0,-1,0,-1c0,0,0,-1,0,-1c0,0,-1,0,-1,0ZM91.5,131.5l4,-2l-1,0c0,0,0,1,0,1l-4,2ZM81.5,131.5c0,0,1,0,1,-1l1,0c0,0,1,1,1,1c0,0,0,1,-1,1c0,0,0,1,0,1l1,0l0,1l-2,0l0,1c-1,0,-1,0,-1,0l-1,0l0,1l-1,0l1,-1l1,0c0,0,0,-1,0,-1l1,-1l-1,0c0,0,0,-1,0,-1l0,-1ZM82.5,131.5c0,0,0,1,0,1l1,0ZM151.5,147.5l0,-1l0,-1l0,-9l1,-2l0,11c0,0,0,1,0,1c0,0,0,1,-1,1ZM144.5,148.5l0,-1l-1,0c0,-1,0,-1,0,-1c0,0,0,-1,0,-1c-1,0,-1,0,-1,1l-1,0c0,0,0,1,-1,1c-1,0,-1,0,-2,0c0,0,-1,0,-1,0c0,0,-1,-1,-1,-1c0,0,0,-1,0,-1c0,-1,0,-1,0,-1l1,0l0,1l1,0c1,0,1,0,1,0c0,0,1,0,1,0l1,0c1,-1,1,-1,1,-1c0,0,0,-1,0,-2c0,0,0,-1,0,-1c0,-1,0,-1,0,-1c0,-1,0,-1,0,-1c0,-1,0,-1,0,-1l1,1c0,0,0,1,0,2c0,1,0,1,0,2c1,1,1,1,1,1l0,1l0,1c1,0,1,1,1,1c1,0,1,0,1,0l1,0c0,0,0,-1,0,-1c0,0,0,-1,-1,-2c0,-1,0,-1,0,-2c0,-1,0,-1,0,-1c0,-1,0,-2,0,-3c0,-1,0,-2,0,-2l0,-1c0,0,0,-1,0,-1c0,0,0,-1,1,-1l0,1c0,0,0,1,1,1l0,1l-1,1l0,-1c0,1,0,1,0,1c0,0,0,1,0,2c0,0,0,1,1,2c0,1,0,1,0,1c0,1,0,1,0,2c0,1,0,2,0,2l0,1l-1,0l0,1l0,1c-1,0,-1,0,-1,0c0,0,-1,0,-1,-1c0,0,-1,0,-1,0ZM146.5,129.5l0,1c1,0,1,0,1,-1l0,-1l0,1l1,0l1,-1c0,1,0,1,0,1l0,1c0,0,-1,0,-1,1c-1,0,-1,0,-1,-1l0,1c-1,0,-1,0,-1,0c0,0,-1,0,-1,0l0,-1l0,-1ZM150.5,126.5l-6,3c0,-1,1,-1,1,-1l5,-3ZM141.5,136.5l-1,-1l1,-1l1,1ZM139.5,150.5l-4,2c1,0,1,-1,1,-1l4,-2ZM133.5,141.5c0,0,-1,-1,-1,-1l-1,0c-1,0,-1,0,-1,0c0,0,-1,1,-1,1c-1,1,-2,2,-2,2c0,0,1,1,1,1c1,0,1,0,1,0l1,1c1,0,2,0,2,0c0,0,0,1,0,1l0,1c0,1,-1,1,-1,1c-1,1,-1,1,-2,1c-1,1,-2,1,-2,1c-1,0,-2,0,-2,0l-1,0c-1,0,-2,0,-2,0c-1,0,-1,0,-2,-1l-1,-1c0,0,0,-1,0,-1l0,-1c0,0,0,-1,0,-2c1,0,1,-1,1,-1c0,-1,1,-1,1,-1l0,-1l0,1c0,1,0,1,0,1c0,0,-1,1,-1,1c0,1,0,1,0,1c0,1,0,1,0,1l0,1c0,0,1,0,1,1c1,0,2,1,3,1c1,0,2,-1,4,-1l1,0l1,-1c1,0,1,0,1,0c0,-1,0,-1,0,-1l-1,0c-1,0,-2,0,-3,-1c0,0,-1,0,-1,-1l1,-1l0,-1l1,-1l0,-1c1,0,1,0,1,-1c1,0,1,0,1,0c1,-1,2,-1,2,-1l1,0c0,1,0,1,0,1c0,1,0,1,0,1l0,1ZM167.5,136.5l-1,-1l0,-1l2,1ZM171.5,146.5l-1,0c-1,1,-1,1,-2,1l-1,0l-1,0l-1,0l0,-1l0,-1l1,0c1,0,1,0,2,0c0,0,1,0,1,0l1,0c0,-1,0,-1,1,-1c0,0,0,-1,-1,-1c0,0,0,-1,0,-1l-1,0l0,-1l-1,0l-1,0l0,-1l0,-2c1,0,1,1,1,1c1,0,1,0,1,0c0,0,0,1,0,1c1,0,1,0,1,0c0,0,0,1,1,1c0,1,0,1,0,2c0,1,0,1,0,1c0,0,0,1,0,1c0,0,0,1,0,1ZM165.5,131.5l4,-2c0,1,0,1,-1,1l-4,2ZM161.5,147.5l0,-1l0,-1l-1,-9l1,-2l1,11c0,0,0,1,-1,1c0,0,0,1,0,1ZM194.5,146.5c0,1,0,1,0,1l-1,0l0,-1c-1,0,-1,0,-1,0l-1,-1l0,1c-1,0,-1,1,-1,1l-1,0l-1,0l-1,0c0,0,0,1,0,1c0,1,0,1,0,1c0,1,0,1,-1,2c0,0,0,1,-1,1c0,1,-1,1,-2,2c-1,0,-1,0,-2,0c-1,0,-1,0,-2,0c-1,0,-1,-1,-1,-1c-1,0,-1,-1,-1,-1c-1,-1,-1,-1,-1,-2l0,-1l0,-1l1,0l0,-1c0,0,0,-1,1,-1c0,1,0,1,-1,1c0,1,0,1,0,1l0,1c0,1,0,1,0,1c0,1,1,1,1,1l1,1c1,0,1,0,2,0c1,0,2,0,2,0c1,-1,2,-1,2,-1c1,-1,1,-1,1,-1l0,-1l0,-1l0,-1c-1,0,-1,0,-1,0l0,-1l1,-2c0,1,0,1,0,1c0,0,1,0,1,0l1,0l1,0c1,0,1,0,1,0l1,0l0,-1c0,-1,1,-1,1,-2c1,0,1,0,1,0c1,0,1,0,1,0c0,1,1,1,1,1l0,1l0,1l0,1c0,0,-1,0,-1,0ZM192.5,144.5l1,0l1,1c0,0,0,-1,0,-1l-1,0c0,0,0,-1,0,-1c-1,0,-1,0,-1,1ZM189.5,134.5l5,-2l-1,1l-4,2ZM182.5,145.5l-2,-1l1,-2l1,1ZM205.5,123.5l0,1l-1,0l-1,0l0,-1l1,0l1,0ZM207.5,128.5l-1,0l-1,0l-3,1c-1,0,-2,-1,-2,-1l0,-1l1,0l0,-1l1,0l0,-1l0,-2l0,1l1,2c0,1,0,1,1,1c0,0,1,-1,1,-1l-1,0c-1,0,-1,0,-1,-1c1,-1,1,-1,1,-1c0,1,0,1,0,1l1,0l0,1c0,1,0,1,0,1c-1,0,-1,0,-1,0c-1,0,-1,0,-1,0c0,0,-1,0,-1,-1l0,1l-1,0l-1,1c0,0,1,0,1,0l1,0l1,0l2,0l1,0l1,0ZM251.5,147.5l0,-1l0,-1l0,-9l1,-2l0,11c0,0,0,1,0,1c0,0,0,1,-1,1ZM236.5,129.5l4,-2c0,0,0,1,0,1l-4,2ZM246.5,129.5l1,0l1,0c0,0,1,0,1,0c0,1,0,1,0,1c0,0,-1,1,-1,1c0,0,-1,0,-1,0l-1,0l1,0c1,-1,1,-1,2,-1c0,0,-1,0,-1,0l-1,0l-1,0c0,-1,0,-1,0,-1ZM226.5,150.5c1,0,1,0,1,0l1,0c1,0,2,0,2,-1c1,0,1,0,2,-1c0,0,1,-1,1,-1c0,0,0,-1,0,-1c0,0,1,0,1,-1l-1,0l0,-1l0,-1l-1,0l1,-1l0,-1l1,1c0,0,0,1,0,1l0,1l0,1c0,1,0,1,0,2c0,1,0,1,0,1c-1,1,-1,1,-1,1c0,0,0,1,-1,1l0,1l-1,0c0,0,-1,0,-1,0c0,0,-1,0,-1,0l-1,0l-1,0l-1,-1ZM228.5,136.5c0,0,1,0,1,0c1,0,1,0,1,0c1,0,1,0,2,0c0,1,0,1,0,1l0,1c0,0,-1,0,-1,0c0,0,-1,0,-1,1l-1,0l-1,0l2,-1c1,0,1,-1,2,-1c-1,0,-1,0,-1,0c0,0,-1,0,-1,0c0,0,-1,0,-1,0c0,0,-1,0,-1,0c0,-1,0,-1,0,-1ZM219.5,140.5l-1,-1l1,-2l1,1ZM217.5,147.5l0,1c-1,1,-1,1,-1,1l0,-1c0,-1,0,-1,0,-1l-1,0l0,1c0,0,0,1,0,1c0,1,0,1,-1,2l0,1c-1,0,-1,0,-1,1c0,0,-1,0,-1,0c-1,1,-1,1,-2,1c-1,0,-1,0,-1,0c-1,0,-2,0,-2,0c-1,0,-1,-1,-2,-1c0,0,0,-1,-1,-1c0,-1,0,-1,0,-2c0,0,0,-1,0,-1c0,0,0,-1,0,-1l1,0c0,-1,0,-1,1,-2l0,1c0,0,-1,0,-1,1c0,0,0,1,0,1c0,1,0,1,0,2c1,0,1,0,1,1c1,0,1,0,2,0c0,0,1,0,1,0c0,0,1,0,2,0c0,0,1,0,1,-1c1,0,1,0,2,-1c0,0,0,-1,0,-1c0,-1,0,-2,0,-2c0,0,0,-1,-1,-1l1,-2l0,1c1,0,1,0,1,0l2,0l1,-1l1,-1l1,0l1,-1l1,0c0,0,1,0,1,-1c0,0,1,0,1,0c0,0,1,0,1,0c0,0,0,1,1,1l0,1c1,0,1,0,1,0l0,1c-1,0,-1,1,-1,1l-1,1l-1,1l-1,0c0,0,-1,0,-1,0l-2,0l-1,0l-1,0ZM222.5,143.5c-1,0,-1,0,-1,0l0,1l-1,0l-1,1l-1,1l3,0l1,-1c0,0,1,0,2,0c0,0,1,0,1,-1l0,-1l-1,0c0,0,-1,0,-1,0l-1,0ZM213.5,157.5l-4,2c0,0,1,-1,1,-1l4,-2ZM268.5,138.5l-1,-1l0,-2l2,1ZM270.5,143.5c-1,1,-1,1,-1,1c0,1,-1,1,-1,1c-1,0,-1,-1,-1,-1c-1,-1,-1,-1,-1,-1c0,-1,0,-1,0,-2l1,0c0,0,0,-1,0,-1c1,0,1,-1,1,-1c1,0,1,0,1,1c1,0,1,1,1,1l0,1l1,1l0,1l0,1c0,0,-1,1,-1,1c0,0,0,1,-1,1c1,0,1,0,1,0c0,0,1,0,1,1c0,1,0,1,0,1c0,1,0,1,0,1l-1,0c0,1,0,1,-1,1c0,1,-1,1,-2,2c-1,0,-2,0,-3,0c0,0,-1,0,-2,0c0,-1,-1,-1,-1,-1c-1,-1,-1,-1,-1,-1c0,-1,0,-1,0,-2c0,-1,0,-1,0,-2c0,-1,1,-1,1,-2c0,1,0,1,0,2c0,0,-1,1,-1,1l0,1l1,0c0,0,0,1,1,1c0,1,1,1,2,1l1,0c0,0,1,0,1,0c0,0,1,0,1,0c1,0,2,-1,2,-1c1,0,1,-1,1,-1c0,0,-1,0,-1,0c-1,0,-1,-1,-2,-1c0,0,0,-1,0,-1c0,0,1,-1,1,-1c0,0,1,0,1,0l1,0c0,0,0,-1,0,-1c0,0,0,-1,0,-1l0,-1ZM267.5,142.5c0,0,1,0,1,0l1,0c-1,-1,-1,-1,-1,-1l-1,0ZM271.5,153.5l-4,2c0,-1,1,-1,1,-1l3,-2ZM295.5,143.5l-1,1c1,0,1,0,1,0l1,0c0,0,0,-1,0,-1c0,0,-1,0,-1,0ZM295.5,151.5c-1,0,-1,0,-1,1c-1,0,-1,0,-2,0c-1,0,-1,0,-2,-1l-1,0c0,0,1,0,1,0c1,0,1,0,1,0c0,0,1,0,1,0c1,0,1,0,1,0c0,-1,0,-1,1,-1l1,-1l0,-1c1,0,1,0,1,-1c0,0,1,-1,1,-1l-1,-1c0,0,0,1,0,1c0,0,-1,0,-1,0l-1,0c0,0,0,-1,0,-1c0,0,-1,0,-1,0c0,0,0,-1,0,-1c0,0,1,0,1,0c0,0,0,-1,0,-1c0,0,0,-1,0,-1c0,0,1,-1,1,-1l1,0c0,0,1,1,1,1c0,0,0,1,0,1c0,0,0,1,0,1c0,0,0,1,0,1c0,0,0,1,0,1c0,1,0,2,0,3c-1,0,-1,1,-1,1l-1,1ZM292.5,137.5l5,-2l-1,1l-4,2ZM288.5,146.5c0,1,0,1,0,1l-1,-1l-1,0l-1,-1l0,1c0,0,0,1,-1,1l-1,0l-2,0c0,0,-1,0,-1,-1c-1,0,-1,-1,-1,-2l-1,-8l1,-2l1,10l0,1c0,0,1,0,1,0l2,0l1,0l1,0l1,-1c0,-1,0,-1,1,-2l1,0c1,1,1,1,1,1l0,1l0,1l0,1l-1,0ZM287.5,144.5l1,1c0,0,0,-1,0,-1c0,0,-1,-1,-1,-1l-1,1l1,0ZM284.5,134.5l4,-2l0,1l-1,0l-4,2ZM362.5,147.5l0,-1l0,-1l0,-9l1,-2l0,11c0,0,0,1,0,1c0,0,0,1,-1,1ZM355.5,145.5l1,0c1,0,1,0,1,0c0,0,0,-1,0,-1l0,-2l0,-6l0,-1c0,0,0,-1,0,-1c0,0,0,-1,0,-1c1,0,1,0,1,0c0,0,0,1,0,1c0,0,-1,0,-1,0c0,0,1,0,1,0c0,1,0,1,1,1c0,0,-1,0,-1,1l0,1l0,-1c0,1,0,1,0,1c0,0,0,1,0,2c0,0,0,1,0,2c0,1,0,1,0,1l0,2c0,1,0,1,0,1c0,1,0,1,0,1c-1,0,-1,0,-1,0c0,0,0,1,0,1c0,0,-1,0,-1,0c0,0,-1,0,-1,0l-1,0l-1,0l0,-1l-1,0c0,-1,0,-1,0,-1c0,1,0,1,-1,1c0,1,-1,1,-1,1c-1,0,-1,-1,-2,-2l0,1c0,1,-1,1,-1,1l-1,0c0,0,-1,0,-1,-2c0,1,-1,1,-1,1c0,1,-1,1,-2,1l-1,0c-1,0,-1,0,-2,-1c-1,1,-1,1,-1,1l-1,0l-1,0l-1,0l-1,-1l-1,1c0,0,-1,0,-1,0l-1,0l-1,0l-1,0c0,0,0,1,0,1c0,0,0,1,-1,1c0,1,0,1,0,1c-1,1,-1,1,-1,1c0,1,-1,1,-1,1l-1,0c-1,0,-1,0,-1,0l-1,0c0,0,-1,0,-1,0c0,0,-1,0,-1,0c0,0,0,-1,0,-1c0,0,1,0,1,1c1,0,1,-1,2,-1c0,0,1,0,1,0c0,-1,1,-1,1,-1c0,0,1,0,1,-1c1,-1,1,-1,1,-1c0,0,0,-1,0,-1c0,0,-1,0,-1,0l-1,0c0,0,-1,-1,-1,-1c0,0,0,-1,0,-1c0,-1,0,-1,1,-1c0,0,0,-1,0,-1c1,0,1,-1,1,-1c1,0,1,0,1,0c0,1,0,1,0,1c1,0,1,0,1,1c0,1,0,1,0,1c1,0,1,0,1,0c1,0,1,0,1,0l1,0l1,0c0,0,1,-1,1,-1c1,-1,2,-2,2,-2l1,0l0,1l1,1l1,0l0,1c0,0,1,0,1,0l1,0l1,0l1,0l1,0c0,0,1,-1,1,-2l0,1l1,0c0,1,0,1,0,1c1,0,1,0,2,0c0,0,0,-1,1,-1l0,-1c0,1,0,1,1,1c0,1,0,1,0,1l1,0c0,0,1,-1,1,-1l0,-1c1,2,1,2,2,2l1,0ZM347.5,137.5l0,1c0,0,1,0,1,0l0,-1l1,-1l0,1c0,0,0,1,0,1c1,0,1,-1,1,-1l0,-1l0,1l0,1l0,1l-1,0l0,-1l-1,1l-1,0l0,-1l0,-1ZM351.5,134.5l-5,3c0,-1,0,-1,0,-1l6,-3ZM338.5,146.5l-1,-1c0,-1,0,-1,-1,-2l0,1l-1,0c0,0,0,1,1,1l1,0ZM335.5,138.5c0,-1,0,-1,0,-2c0,0,0,-1,-1,-1l1,-1l0,1l0,1l1,0l0,1c-1,0,-1,1,-1,1ZM327.5,144.5c0,0,-1,0,-1,0c0,1,0,1,0,1c0,0,1,0,1,0l1,0c0,-1,-1,-1,-1,-1ZM327.5,139.5c0,-1,0,-1,0,-2c0,0,0,-1,-1,-1l1,-1l0,1l1,1l0,1c0,0,-1,1,-1,1ZM315.5,140.5l-1,2l-1,-1l-1,1l-1,-1l1,-2l1,1l1,-1ZM321.5,145.5c0,0,-1,1,-2,1c-1,1,-2,1,-3,1c-1,0,-2,1,-4,1c-1,0,-2,0,-3,-1c-1,0,-2,0,-3,-1l0,-1c-1,0,-1,-1,-1,-1l0,-1c1,0,1,0,1,-1c0,0,0,-1,1,-1c0,0,0,1,0,1c0,0,-1,1,-1,1c0,0,1,1,1,1c0,1,1,1,1,1c1,0,1,0,2,1l1,0l2,0c1,0,2,0,2,0c0,0,1,-1,1,-1c0,0,1,0,1,0l1,0c1,0,1,-1,2,-1c1,0,1,0,1,-1l0,-1l-1,0c0,0,0,-1,1,-1c0,-1,0,-1,0,-1l1,1c0,0,0,1,0,1l0,1c0,0,0,1,0,1c0,0,-1,1,-1,1ZM315.5,151.5l-4,3c0,-1,0,-1,0,-2l4,-2ZM379.5,138.5l-1,-1l0,-2l2,1ZM380.5,143.5c0,1,0,1,0,1c-1,1,-1,1,-1,1l-1,0c0,0,0,-1,0,-1l-1,0c0,-1,0,-1,0,-1c0,-1,0,-1,0,-2l1,0c0,0,0,-1,0,-1c0,0,1,-1,1,-1c1,0,1,0,1,1c1,0,1,1,1,1l0,1l1,1l0,1l0,1c0,0,-1,1,-1,1c0,0,0,1,-1,1c1,0,1,0,1,0l1,1c0,1,0,1,0,1c0,1,0,1,0,1c0,0,-1,0,-1,0c0,1,0,1,-1,1c0,1,-1,1,-2,2c-1,0,-2,0,-3,0c-1,0,-1,0,-2,0c-1,-1,-1,-1,-1,-1c-1,-1,-1,-1,-1,-1c0,-1,-1,-1,-1,-2c0,-1,1,-1,1,-2c0,-1,0,-1,1,-2c0,1,0,1,0,2c-1,0,-1,1,-1,1l0,1c1,0,1,1,1,1c1,1,2,1,3,1l1,0c0,0,1,0,1,0c0,0,1,0,1,0c1,0,2,-1,2,-1c0,0,1,-1,1,-1c0,0,-1,0,-1,0c-1,0,-2,-1,-2,-1c0,0,0,-1,0,-1c0,0,0,-1,0,-1c1,0,1,0,2,0l1,0c0,0,0,-1,0,-1c0,0,0,-1,0,-1l-1,-1ZM378.5,142.5l1,0l1,0c-1,-1,-1,-1,-1,-1c0,0,-1,0,-1,0ZM382.5,153.5l-4,2c0,-1,1,-1,1,-1l3,-2ZM399.5,146.5c0,1,0,1,0,1l-1,-1c0,0,-1,0,-1,0l-1,-1l0,1c0,0,0,1,-1,1l-1,0l-2,0c0,0,-1,0,-1,-1c-1,0,-1,-1,-1,-2l-1,-8l1,-2l1,10l0,1c0,0,1,0,1,0l2,0l1,0l1,0l1,-1c0,-1,0,-1,0,-2l1,0l1,0c1,1,1,1,1,1l0,1l0,1l0,1l-1,0ZM397.5,144.5l1,0l1,1c0,0,0,-1,0,-1c0,0,-1,-1,-1,-1l-1,1ZM395.5,134.5l4,-2l0,1l-1,0l-4,2ZM415.5,145.5l1,0l1,0c0,0,0,-1,0,-1l0,-2l0,-6l0,-1c0,0,0,-1,0,-1c0,0,0,-1,1,-1c0,0,0,1,0,1c0,1,0,1,1,1l-1,1l0,1l0,-1c0,1,0,1,0,1c0,0,0,1,0,2c0,0,0,1,0,2c0,1,0,1,0,1l0,2c0,1,0,1,0,1c0,1,0,1,0,1c-1,0,-1,0,-1,0c0,0,0,1,0,1c0,0,-1,0,-1,0c0,0,-1,0,-1,0c-1,0,-1,0,-2,0l-1,-1l0,-1c0,0,0,-1,0,-1l-1,1c0,0,-1,0,-1,0l-1,0c0,0,-1,0,-1,0l-1,0l0,-1c0,-1,1,-1,1,-2c1,0,1,0,2,-1c1,0,1,0,1,0l0,-1l0,-1l1,1l0,1c0,0,0,1,0,1l0,2c1,0,1,0,1,1l1,0l1,0ZM411.5,142.5l-1,0l-1,1l0,1l1,0c1,0,1,0,1,-1ZM408.5,137.5l-1,-1l0,-1c0,0,0,-1,0,-2l0,-1c1,0,1,0,1,0c1,-1,1,-1,1,-1l0,1l-1,1l0,1c-1,1,-1,1,0,1c0,1,0,1,0,1c0,0,0,-1,0,-1l1,0l0,1c1,1,1,1,0,1l-1,0Z" class="g1_27" />
</svg>