<?xml version="1.0" encoding="UTF-8" standalone="no"?>
<!DOCTYPE svg PUBLIC "-//W3C//DTD SVG 1.1//EN"
"http://www.w3.org/Graphics/SVG/1.1/DTD/svg11.dtd">
<svg version="1.1" xmlns="http://www.w3.org/2000/svg" xmlns:xlink="http://www.w3.org/1999/xlink">
<defs>
<style type="text/css"><![CDATA[
.g2_56{
stroke: #1F1A17;
stroke-width: 1;
stroke-linecap: butt;
stroke-linejoin: miter;
}
.g1_56{
}
]]></style>
</defs>
<path fill-rule="evenodd" d="M275,144c0,-1,0,-1,0,-2c-1,0,-1,-1,-1,-1l0,-1l1,0l0,1l0,1l0,1c0,0,0,1,0,1ZM209,160l0,-1l0,-1l0,-8l1,-3l0,11l0,1c0,1,0,1,-1,1ZM202,159l1,0c1,-1,1,-1,1,-1l0,-1l0,-2l0,-6l0,-1l0,-1c1,0,1,0,1,0c0,0,0,1,0,1l1,0c0,1,-1,1,-1,1c0,1,0,1,0,1c0,0,0,1,0,2c0,0,0,1,0,3l0,1l0,1c0,0,0,1,0,1c0,0,0,1,0,1c-1,1,-1,1,-1,1c0,0,-1,0,-1,0l-1,0l-1,0l0,1l0,1c-1,0,-1,1,-1,2l-1,0c0,1,0,1,0,1c-1,0,-1,1,-1,1c-1,0,-1,0,-1,0c-1,0,-1,0,-1,0l-1,0c0,0,-1,0,-1,0c-1,0,-1,-1,-1,-1l1,0c1,0,1,0,2,0c0,0,1,0,1,-1c0,0,1,0,1,0c0,0,0,-1,1,-1c0,0,0,-1,0,-1c0,0,1,-1,1,-1c0,-1,0,-1,0,-1l-1,0c0,-1,0,-1,0,-1l0,-1c1,0,1,0,1,0l0,-1l0,1l1,1l1,0ZM197,149l0,1c0,0,1,0,1,0l0,-1l0,-1l0,1l1,0c0,0,0,1,0,1c0,0,1,-1,1,-1l0,-1l0,1l0,1l-1,1l0,-1l-1,0l0,1c0,0,-1,0,-1,0l-1,0l0,-1l1,-1ZM201,146l-6,3c1,-1,1,-1,1,-1l5,-3ZM193,158l-1,0l-1,0c-1,0,-1,0,-2,0l-1,0l-1,0l0,1l-1,0c-1,0,-1,0,-1,1c-1,0,-1,0,-2,0c0,0,-1,0,-2,0l-1,0l-1,0c-1,0,-1,0,-1,-1c0,0,-1,1,-1,1c0,0,-1,0,-1,0l-1,0c-1,0,-1,0,-2,0c-1,0,-1,1,-1,1l-1,0l-1,0c-1,-1,-1,-1,-1,-1l-1,0l0,1c0,0,-1,1,-1,1c-1,1,-1,1,-2,1c-1,0,-3,0,-4,0l4,-2l2,0c0,-1,1,-1,1,-1l1,-2c0,-1,0,-1,1,-1c0,0,0,-1,0,-1l1,0c0,0,1,1,1,1c1,1,1,1,1,1c1,0,1,1,1,1c0,0,1,0,1,0c1,0,1,0,1,0c1,0,1,-1,1,-1c0,0,1,0,1,0c0,-1,0,-1,0,-1c0,1,0,1,0,1c0,0,1,0,1,1c1,0,1,0,1,0l1,0c0,0,1,0,1,0c0,0,1,0,2,-1l1,0l1,-1l1,0l-1,0l-1,-1l-1,0l-1,0l-1,0c0,0,0,-1,0,-1c1,0,1,0,1,-1c0,0,1,0,1,0l1,0l1,1l2,1l1,0l1,0l1,0c0,0,1,0,1,0l1,0ZM185,164l-4,2c0,-1,1,-1,1,-1l4,-2ZM179,164l-1,-1l-1,1l-1,-1l0,-1l2,1l1,-2l1,1ZM171,159l0,-1l-1,0l-1,0c0,0,1,1,1,1l1,0ZM170,166l-4,2c0,0,1,-1,1,-1l4,-2ZM259,160l0,-1l0,-1l-1,-8l1,-3l1,11l0,1c-1,1,-1,1,-1,1ZM251,159c0,0,1,0,1,0c0,0,1,0,1,0c0,-1,0,-1,1,-1l0,-1l0,-2l-1,-6l0,-1l0,-1c0,0,1,0,1,0c0,0,0,1,0,1c0,0,1,0,1,0c0,1,0,1,0,1c0,1,0,1,-1,1c0,0,0,1,0,2c0,0,0,1,1,3l0,1l0,1c0,0,0,1,0,1l-1,0c0,0,0,1,0,1c0,1,0,1,0,1c-1,0,-1,0,-1,0l-1,0l-1,0c0,0,-1,0,-1,0l0,1l0,1c0,0,0,1,-1,2c0,1,-1,1,-1,1c0,0,-1,1,-1,1c0,0,-1,0,-1,0c0,0,-1,0,-1,0c-1,0,-1,0,-2,0c0,0,0,-1,-1,-1c1,0,1,0,1,0l1,0c0,0,1,0,1,0c1,0,1,0,1,-1c1,0,1,0,1,0c0,0,1,-1,1,-1c0,0,0,-1,1,-1c0,0,0,-1,0,-1c0,-1,0,-1,0,-1c0,-1,0,-1,0,-1l0,-1l0,-1l0,1l1,0l0,1l1,0ZM246,149l0,1c0,0,1,0,1,0l0,-1l1,-1l0,1c0,0,0,1,1,1c0,0,0,-1,0,-1l0,-1l0,1l0,1l0,1l-1,0l0,-1l0,1l-1,0c-1,0,-1,0,-1,0l0,-1l0,-1ZM250,146l-5,3c0,-1,0,-1,0,-1l6,-3ZM233,155c1,0,1,0,1,0l1,-1l1,0c0,0,1,0,1,0c0,0,1,0,1,1l-1,-1l-1,-1l-1,0c0,0,-1,0,-1,0c-1,0,-1,0,-1,0c0,-1,1,-1,1,-1c0,-1,1,-1,1,-1c1,0,2,0,3,1l2,1c0,0,0,1,0,1l1,0l1,1l1,0l1,0l1,0l-1,2l-2,-1l-1,0l-2,0l-1,0c-1,-1,-2,-1,-2,-1l-1,0l-1,0c0,1,0,1,0,1c0,0,1,0,1,1l0,1c0,1,0,1,0,1c0,0,-1,1,-1,1l-1,0c0,0,-1,0,-1,-1l-1,0c0,1,-1,1,-1,1l-1,0l-1,0l-1,0c0,1,0,1,0,1c0,0,0,1,0,1c0,1,0,2,-1,2c0,1,0,1,-1,2c0,0,-1,1,-2,1c-1,0,-1,0,-2,0c-1,0,-1,0,-2,0c-1,0,-1,0,-1,-1c-1,0,-1,0,-1,-1c-1,0,-1,-1,-1,-1c0,-1,0,-1,0,-1l0,-1c0,0,1,0,1,-1l0,-1c0,0,1,0,1,0l0,1c-1,0,-1,0,-1,1l0,1c0,0,0,1,0,1c1,0,1,0,1,1l1,0c1,0,1,1,2,1c1,0,2,-1,3,-1c0,0,1,-1,1,-1c1,0,1,0,1,0c0,-1,0,-1,0,-1l0,-1c0,-1,0,-1,0,-1c0,0,-1,-1,-1,-1l0,-1l1,-1c0,1,1,1,1,1l1,0l1,0c1,0,1,0,1,0l1,-1l0,-1c1,0,1,-1,1,-1l1,-1ZM233,146c0,0,1,0,1,0c1,0,1,-1,2,-1c0,0,1,1,1,1c0,0,1,0,1,0l-1,1l0,1c0,0,-1,0,-1,0l-1,0l-1,0l-1,0l2,0c1,0,1,-1,2,-1c-1,0,-1,0,-1,0c0,0,-1,0,-1,0c0,0,-1,0,-1,0c0,0,-1,0,-1,0l0,-1ZM232,158l1,0l1,0c0,-1,0,-1,0,-1c-1,0,-1,0,-1,0c0,0,-1,0,-1,0c0,1,0,1,0,1ZM228,153l0,-1c0,0,0,-1,0,-1c0,-1,0,-2,0,-2l0,-1c0,0,1,1,1,1c0,0,0,1,0,1l0,1l0,1c0,0,0,1,-1,1ZM222,158l-2,-1l1,-1l2,1ZM224,171l-4,2c0,-1,0,-1,1,-1l4,-2ZM283,160l0,-1l0,-1l0,-8l1,-3l0,11l0,1c0,1,-1,1,-1,1ZM279,160c-1,0,-1,0,-1,0c0,0,-1,0,-1,0c-1,-1,-1,-1,-1,-2c0,1,0,1,-1,2c0,0,-1,0,-2,0c0,0,-1,0,-1,0c-1,-1,-1,-1,-1,-2c0,1,-1,1,-1,1c0,0,-1,0,-2,0c0,0,-1,0,-1,0c0,-1,0,-1,0,-1c0,0,0,-1,0,-1l1,-1c0,0,1,0,1,-1l1,0l1,-1l0,-1c0,0,0,-1,0,-1l0,1l1,1l0,3l0,1c1,0,1,1,2,1c0,0,0,-1,1,-1c0,0,0,-1,0,-1c0,0,0,-1,0,-2c0,-1,0,-1,0,-2c0,-1,0,-1,0,-1l0,-1l0,-1l1,3l0,2l0,1c0,0,0,1,0,1c1,0,1,0,1,0c0,1,0,1,1,1l1,0l0,-1l0,-1l0,-1l-1,-1l0,-2l1,0l0,-1l0,-1c0,1,0,1,0,2l0,1l1,2c0,1,0,1,0,2c0,0,0,1,0,2c0,0,-1,0,-1,1ZM271,155l-1,1c-1,0,-1,0,-1,0c0,1,-1,1,-1,1c1,0,2,0,2,0c0,0,1,0,1,0ZM318,165l-2,-1l1,-2l2,1ZM315,159c1,0,1,0,2,0l0,-1c0,0,0,-1,0,-1c0,-1,0,-1,-1,-1l-1,-1c0,-1,0,-1,0,-1c0,-1,1,-1,1,-1l1,1l0,1l1,0l0,1c0,1,0,1,0,1l0,1l0,1l0,1l-1,0l-1,0l-1,0l-1,0c-1,0,-1,-1,-1,-1l0,-1l0,1c0,0,-1,0,-1,1c0,0,-1,0,-1,0c-1,0,-1,0,-2,-1l0,1c-1,0,-1,0,-2,0c-1,0,-1,0,-2,-1l0,1c-1,0,-1,0,-2,0l-1,0c0,0,-1,0,-1,0c-1,0,-1,0,-1,0c0,0,0,1,-1,1c0,0,-1,0,-2,0c0,-1,-1,-1,-1,-1l-1,1c0,0,0,1,-1,1c0,1,-1,1,-2,1c-1,0,-2,0,-4,0l5,-2l1,0c1,-1,1,-1,2,-1l0,-2c1,-1,1,-1,1,-1c0,0,0,-1,1,-1c1,0,1,1,1,1c1,1,1,1,2,1c0,0,0,1,0,1c1,0,1,0,1,0l1,0l1,0l0,-1c1,0,1,0,2,-1c0,1,0,1,0,1c0,0,1,1,1,1c1,0,1,0,2,-1l1,-1c0,0,0,1,0,1c0,0,1,0,1,0c1,0,1,0,1,0l1,-1c1,1,1,2,2,2ZM318,167l-4,2c0,-1,1,-1,1,-2l3,-1ZM174,149c0,-1,1,-1,1,-1c0,0,1,0,1,0c1,0,1,0,2,0c0,0,0,1,0,1c0,1,0,1,0,1c-1,0,-1,1,-1,1c-1,0,-1,0,-1,0c0,0,-1,0,-1,0c0,0,-1,0,-1,0l2,-1c1,0,1,0,1,0c0,-1,0,-1,0,-1c-1,0,-1,0,-1,0c-1,0,-1,0,-1,0c-1,1,-1,1,-1,1c0,-1,0,-1,0,-1ZM306,150c1,-1,1,-1,1,-1c1,0,1,0,2,0c0,0,1,0,1,0c0,0,1,1,1,1l-1,0c0,0,0,1,0,1c0,0,-1,1,-1,1l-1,0l-1,0l-1,0l2,-1c1,0,1,0,2,0c-1,-1,-1,-1,-1,-1c0,0,-1,0,-1,0c0,0,-1,0,-1,0c0,0,-1,1,-1,1l0,-1ZM299,159l0,-1l-1,0l-1,0c0,0,0,1,1,1ZM271,164l-4,2c0,0,0,-1,0,-1l4,-2ZM298,166l-4,2c0,0,0,-1,0,-1l4,-2ZM155,159c0,1,0,2,-1,2c0,0,0,1,0,1l0,1c-1,0,-1,0,-1,0l1,1l-1,1l-1,0l0,1c0,0,-1,0,-2,1l-1,0l-1,0l0,1l-1,0l0,1l-1,0c0,1,0,1,0,1l0,-1l1,-1l1,-1c0,0,1,0,1,0l1,0l0,-1c1,0,1,0,2,0l0,-1c0,0,1,0,1,0l0,-1l1,0l-1,-1l0,-1l1,0l0,-1l0,-1l0,-1c0,-1,0,-2,0,-2l0,-1c0,0,-1,0,-1,0l0,-1l1,-1c0,0,-1,0,-1,0l-1,-1l-1,-1l-2,0l-1,-1c0,0,-1,0,-1,0l-1,-1l0,-1l1,1l1,0l0,1l2,0l0,1l1,0l1,0l0,1l1,0c1,1,1,1,1,1l0,1l-1,0l1,0l0,1l0,1l1,1ZM151,154l0,1l-1,-1l-1,0l0,-1c0,0,-1,0,-1,0l0,-1l1,1c1,0,1,0,1,0c0,0,1,0,1,1ZM151,164l0,1l-1,0l0,1l-1,0l-1,0c0,-1,0,-1,0,-1c0,0,1,0,1,0l1,0c0,-1,1,-1,1,-1ZM147,166c0,0,0,1,0,1c-1,0,-1,0,-1,0l0,-2l1,0l0,1ZM147,152c0,1,0,1,0,1c0,0,-1,0,-1,1l0,-3l1,0c0,0,0,1,0,1ZM146,155l0,-1c1,0,1,0,1,0c1,0,1,0,2,1l1,1l1,-1c0,0,0,1,1,1l0,1l0,1l0,1l0,1c0,0,0,1,0,1l0,1c-1,0,-1,1,-1,1l-1,-1c0,0,0,1,0,1l-1,0l0,1l-1,0l-1,0c-1,0,-1,0,-1,0l0,-1l0,1c1,0,1,0,1,0l1,0l0,-1l1,0l1,-1l1,0l1,-1l0,-1l0,-1c0,0,0,-1,0,-1c0,-1,0,-1,-1,-2l-1,0l-1,-1l-1,0l-1,-1c0,0,0,1,-1,1ZM135,159l0,-1c0,-1,0,-1,1,-2l0,-1l-1,0c0,0,0,-1,0,-1c0,0,1,0,1,0l1,-1l1,0l0,-1l1,0l1,-1l2,0l0,-1l1,-1c1,0,1,0,1,0l-1,1l0,1c-1,0,-1,0,-1,0l-2,1l-1,0l-1,0l0,1l-1,0l0,1c0,0,-1,0,-1,0l1,1l-1,1l0,1l-1,1c0,1,0,1,0,1l0,1l0,1l1,0l0,1l1,1l-1,1l1,1l1,0l0,1l1,0l1,1l2,0l1,1l0,1c1,0,1,0,1,0l0,1c0,0,0,-1,-1,-1l-1,-1l0,-1c-1,0,-2,0,-3,0l0,-1l-1,0l0,-1l-1,0l-1,0l0,-1l-1,0l2,-1l-1,0l0,-1l-1,-1l0,-1ZM138,154l1,0l0,-1l1,0l1,0l0,-1l1,0l0,1c-1,0,-1,0,-1,0c-1,0,-1,0,-1,1l-1,0l0,1l0,-1l-1,0ZM138,164l1,0l1,1l1,0l1,0l-1,1c0,0,1,0,1,0c0,0,-1,0,-1,0c-1,0,-2,-1,-2,-1l-1,-1ZM143,166c0,0,0,-1,0,-1l1,0l0,2c0,0,-1,0,-1,0c0,-1,0,-1,0,-1ZM143,152l0,-1l1,0l0,3c0,-1,-1,-1,-1,-1l0,-1ZM144,155l-1,0l-1,-1c0,0,0,1,0,1c-1,0,-1,0,-1,0l-1,0l0,1l-1,0c0,0,-1,0,-1,0l0,1l0,1l0,1c0,1,0,1,0,1l0,1c0,1,0,1,1,1l1,0l0,1l1,0l1,1c1,0,1,0,1,0c0,-1,1,-1,1,-1l0,1l-1,0l-1,0c0,0,-1,0,-1,0c0,0,-1,-1,-1,-1l0,-1l-1,1l-1,0l0,-1l0,-1l-1,-1l0,-1c0,0,0,-1,0,-1l1,-1l0,-1c0,0,0,-1,1,-1l1,1l0,-1l1,0c0,-1,1,-1,1,-1c1,0,1,0,1,0l1,0l0,1ZM274,146l0,1c0,0,0,1,0,1c0,0,0,-1,0,-1l1,0l0,-1l0,1c0,0,1,0,1,0l0,-1l1,-1l0,1l0,1c0,1,0,1,-1,1c0,0,-1,0,-1,0c0,1,-1,1,-1,1l-1,-1l0,-1l0,-1Z" class="g1_56" />
<path fill-rule="evenodd" d="M163.5,487.5l0,1c0,0,1,0,1,0l1,0l0,-1l0,-1l0,1l1,1c0,0,1,-1,1,-1l0,-1c0,1,0,1,0,1l0,1c0,1,0,1,-1,1c-1,0,-1,0,-1,0c-1,1,-1,1,-1,1c-1,0,-1,0,-1,0c0,-1,0,-1,0,-1c0,0,0,-1,0,-1l0,-1ZM374.5,534.5c1,0,1,0,1,0c1,0,1,0,2,0c0,0,1,0,1,0c0,0,1,0,1,0c0,0,0,1,0,1c-1,0,-1,0,-1,1l-1,0c-1,0,-1,1,-1,1l-1,0l0,-1l1,0c1,0,1,-1,2,-1c0,0,-1,0,-1,0l-1,0c0,0,-1,0,-1,0l-1,0c0,-1,0,-1,0,-1ZM398.5,536.5l1,0c0,0,1,0,1,0c1,0,1,0,1,0c1,0,1,0,1,1l-1,1c0,0,-1,0,-1,0c0,0,0,1,0,1c0,0,-1,0,-1,0l-1,0l2,-1c0,0,1,0,1,-1l-1,0c-1,0,-1,0,-2,0c0,0,0,-1,0,-1ZM248.5,536.5c0,0,1,0,1,0c1,0,1,0,1,0c1,0,1,0,2,0l0,1l0,1c0,0,-1,0,-1,0c0,0,-1,1,-1,1l-1,0l-1,0l2,-1c1,0,1,0,2,-1c-1,0,-1,0,-1,0c0,0,-1,0,-1,0c0,0,-1,0,-1,0c0,0,-1,0,-1,0c0,0,0,-1,0,-1ZM210.5,534.5c0,-1,1,-1,1,-1c0,0,1,0,1,0c1,0,1,0,2,0c0,0,0,1,0,1c0,0,0,1,0,1c-1,0,-1,1,-1,1c0,0,-1,0,-1,0l-1,0l-1,0l2,-1c1,0,1,0,2,0c-1,-1,-1,-1,-1,-1c-1,0,-1,0,-1,0c0,0,-1,0,-1,0c-1,0,-1,1,-1,1l0,-1ZM226.5,546.5c0,0,-1,0,-1,0c-1,0,-1,0,-1,0c-1,0,-1,0,-2,0c-1,0,-1,0,-1,0c-1,0,-1,0,-1,0c0,0,0,-1,1,-1c0,0,1,0,1,0c0,0,0,-1,1,-1c0,-1,1,-1,1,-1c0,-1,0,-1,-1,-1c0,-1,0,-1,0,-1c-1,-1,-1,-1,-1,-2c-1,0,-1,-1,-2,-1c0,0,0,-1,-1,-1l0,-1c0,1,-1,1,-1,1c-1,-1,-1,-1,-1,-2l-1,0c0,0,0,-1,0,-1l1,-1c0,0,1,0,1,1c1,0,1,1,2,1c1,1,1,2,2,2c0,1,1,2,1,2c1,1,1,1,1,2c0,0,1,0,1,0l0,-1c0,-1,0,-1,0,-2c0,0,1,-1,1,-2l0,-1c-1,0,-1,-1,-1,-1l0,-1c0,0,0,-1,0,-1c1,0,1,-1,1,-1c0,0,0,1,0,1l1,1c0,0,0,1,0,1l0,1c0,1,-1,1,-1,2l0,1c0,0,0,1,0,1c0,1,0,1,0,2c0,1,-1,1,-1,1c0,0,0,1,0,1c1,0,1,0,1,0c0,0,0,1,0,1l0,1c0,1,0,1,0,1ZM225.5,543.5l-1,1c0,0,0,1,0,1l1,0l0,-1ZM362.5,554.5l0,-1c0,0,0,-1,0,-1c0,-1,0,-2,0,-2l0,-1c1,0,1,0,1,1c0,0,0,1,0,1l0,1c0,0,0,1,0,1l-1,1ZM64.5,545.5l0,-1l1,0l0,-1l0,-1l0,-1l0,-1l-1,-1c0,0,1,0,1,-1l0,1c0,0,0,1,0,1l0,1l0,1l0,1l0,1l1,-1l1,-1l1,0l1,0c0,0,0,1,0,1c0,1,0,1,0,1c0,0,-1,0,-1,0l0,1c-1,0,-1,0,-2,0ZM67.5,543.5l-1,1l-1,0l1,0l1,0c1,0,1,0,1,0c0,-1,0,-1,0,-1l-1,0ZM91.5,540.5l-1,-1l1,-1l1,1ZM88.5,548.5c0,0,-1,0,-1,0c0,0,0,-1,0,-1c0,0,0,-1,0,-1l0,-1l-1,0c0,1,0,1,-1,1c-1,0,-1,1,-1,1l-1,0l0,1c0,1,0,1,0,2c0,0,-1,0,-1,1c0,0,-1,1,-1,1l-1,0l0,1c0,0,-1,0,-1,0l-1,0c0,0,-1,0,-1,0c-1,-1,-1,-1,-1,-1l-1,0c0,0,1,0,1,0l1,0l1,0c1,0,1,0,1,-1c1,0,1,0,1,0l1,-1c0,0,0,-1,1,-1c0,0,0,-1,0,-1c0,-1,1,-1,1,-1l-1,0l0,-3c0,1,1,1,1,1l1,0l0,-1c0,0,1,0,1,0l1,0c0,-1,1,-1,1,-1l0,1l0,1l1,1l1,0c0,1,0,1,0,1l0,-1l1,0l3,-2c0,-1,1,-1,1,-1c1,0,1,0,1,0c1,-1,1,-1,1,-1c1,0,1,0,1,0c0,1,1,1,1,1l1,1l0,1c0,0,0,1,-1,1l0,1c-1,0,-1,0,-2,1c0,0,-1,0,-2,0c-1,0,-2,0,-3,0l-1,0l-1,0l0,1c0,1,0,1,0,1l-1,0l0,-1l0,-1ZM94.5,544.5c0,1,0,1,0,1l-1,0l-1,0l-1,1l-1,1l2,0c1,0,2,0,3,0c1,-1,1,-1,1,-1c1,0,1,0,2,-1c-1,0,-1,0,-1,0l0,-1c-1,0,-1,0,-1,0c-1,0,-1,0,-1,0c0,0,-1,0,-1,0ZM90.5,532.5l6,-3c0,1,-1,2,-1,2l-5,2ZM81.5,541.5l0,1c1,0,1,0,1,0l0,-1l1,0l0,-1l0,1l1,0l0,-1l1,0l0,1l-1,0l0,1l-1,0l-1,1c-1,0,-1,0,-1,0l0,-1l0,-1ZM80.5,540.5l5,-3c0,1,0,1,-1,2l-4,2ZM82.5,537.5l5,-3c0,1,-1,1,-1,2l-5,2ZM76.5,548.5l0,-1l0,-1l-1,-8l1,-3l1,11c0,1,-1,1,-1,1c0,1,0,1,0,1ZM124.5,544.5c0,1,0,1,0,1c0,0,1,0,1,0l0,-1c0,0,-1,0,-1,0ZM124.5,552.5c0,0,-1,1,-1,1c0,0,-1,0,-2,0c0,0,-1,0,-2,0c0,-1,0,-1,0,-1l1,0c0,0,1,0,1,0l1,0c0,0,1,-1,1,-1c0,0,1,0,1,-1l1,0c0,-1,0,-1,0,-1c1,-1,1,-2,1,-2c-1,0,-1,0,-1,0c0,0,-1,0,-1,0l-1,0l0,-1l0,-1c0,-1,0,-1,0,-2c1,0,1,0,1,-1l1,0c1,1,1,1,1,1c0,0,0,1,0,1c0,0,0,1,1,1c0,0,0,1,0,1c0,1,0,1,0,1c-1,1,-1,2,-1,3c0,0,-1,1,-1,1c0,0,0,1,-1,1ZM121.5,538.5l5,-2l-1,1l-4,2ZM116.5,546.5l0,1c-1,1,-1,1,-1,1c0,0,1,0,1,0l1,0c0,-1,0,-1,0,-1ZM117.5,549.5l-1,0c0,0,-1,0,-1,1c0,0,-1,0,-1,0c-1,0,-1,0,-1,0l-1,0c0,0,0,-1,0,-1c0,0,0,-1,0,-1c1,0,1,0,1,0c1,0,1,-1,1,-1c0,0,1,0,1,0c0,0,0,-1,0,-1c0,0,1,0,1,0c0,-1,-1,-1,-1,-1c0,-1,0,-1,0,-1c-1,-1,-1,-1,-2,-2c0,0,-1,0,-1,-1c-1,0,-1,-1,-1,-1c0,0,-1,0,-1,0c-1,0,-1,0,-1,0c0,-1,-1,-1,-1,-1c0,-1,0,-1,0,-1c0,-1,0,-1,0,-1c0,-1,0,-1,0,-1c0,0,1,0,1,0c0,0,0,1,1,1c0,0,1,1,1,1c1,1,2,2,2,2c1,1,1,2,2,3c0,0,1,0,1,1l0,1c0,-1,1,-1,1,-2c0,0,0,-1,0,-2c0,0,0,-1,0,-1c0,-1,0,-1,0,-2c0,0,0,-1,0,-1c0,-1,0,-1,0,-1c0,0,0,-1,0,-1l1,-1c0,0,0,1,0,1c0,0,0,1,0,1c0,0,1,0,1,0c0,0,0,1,0,1l-1,1c0,1,0,1,0,2c0,0,0,1,0,1c0,0,0,1,0,1c0,1,-1,2,-1,2c0,1,0,1,0,1c0,1,0,1,0,1c0,1,0,1,0,1l0,1l0,1ZM114.5,532.5l5,-3c0,1,0,2,0,2l-6,2ZM158.5,541.5l-1,-1l1,-1l1,1ZM158.5,548.5l-1,0l-1,0l-1,0c-1,0,-2,0,-2,0c0,0,-1,0,-1,-1c-1,1,-1,1,-2,1c0,0,-1,0,-2,0l-1,0l-1,0c0,0,-1,0,-1,0c0,-1,0,-1,-1,-1l0,-1c0,1,-1,1,-1,1c-1,0,-1,1,-1,1c0,0,-1,0,-1,0l-1,0l-1,0l-1,0c-1,0,-1,0,-2,0c0,-1,-1,-2,-1,-2l0,-9l1,-2l0,10l1,1c0,0,0,1,1,1l1,0l1,0c0,0,0,-1,0,-1c1,0,1,0,1,0c1,0,1,0,1,0c0,0,1,0,1,-1l-1,0c0,0,-1,0,-1,-1l-1,0l1,-1c1,-1,1,-1,2,-1l1,0c1,0,1,0,1,0c0,0,0,1,1,1c0,0,0,1,0,1l0,1c0,0,-1,0,-1,0l0,1l1,0l1,0l0,1l1,0c1,0,1,-1,1,-1c0,0,1,0,1,0l0,-1c0,0,0,-1,0,-2c1,0,1,0,1,-1l1,0c0,-1,1,-1,1,-1c1,0,1,0,1,1c0,0,1,0,1,1l0,1l0,1c-1,0,-1,0,-1,0c0,1,0,1,0,1l1,0c0,0,0,1,0,1l1,0l1,0l1,0c0,0,1,-1,1,-1c1,0,1,0,1,0c0,0,1,0,1,0c0,0,0,-1,0,-1c-1,0,-1,0,-1,0c0,-1,0,-1,0,-1l0,-2c1,0,1,0,1,0c0,1,0,1,0,1l0,1l0,1c0,1,0,1,0,1l0,1c-1,0,-1,1,-2,1c0,0,-1,0,-1,0ZM158.5,535.5l4,-2l0,1l-5,2ZM152.5,540.5l-1,-1l1,-1l1,1ZM153.5,543.5c-1,0,-1,0,-1,0c-1,0,-1,1,-1,1l0,1c0,0,1,0,1,0c1,0,1,0,1,0c0,0,1,0,1,-1l-1,-1ZM148.5,530.5l1,0c0,0,1,0,1,0c1,0,1,0,2,0c0,1,0,1,0,1l-1,1c-1,0,-1,0,-1,1c0,0,-1,0,-1,0c0,0,-1,0,-1,0l2,-1c0,0,1,-1,1,-1c-1,0,-1,0,-1,0c-1,0,-1,0,-2,0c0,-1,0,-1,0,-1ZM139.5,536.5l5,-2c0,1,0,1,0,1l-5,2ZM141.5,533.5l5,-2c0,0,0,1,-1,1l-4,2ZM228.5,550.5l-4,2c0,0,0,-1,1,-1l4,-2ZM216.5,530.5l4,-2l0,1l-4,2ZM212.5,541.5l-1,-1l1,-1l1,1ZM212.5,548.5l-1,0l-1,0l-1,0c-1,0,-2,0,-2,0c-1,0,-1,0,-1,-1c-1,1,-1,1,-2,1c-1,0,-1,0,-2,0l-1,0l-1,0l0,-1c0,0,-1,0,-1,0c0,0,0,-1,0,-1c0,1,-1,1,-1,1c0,1,-1,1,-1,1c-1,0,-1,-1,-2,-1c-1,1,-1,1,-1,1l-1,0c-1,0,-1,0,-1,-1c-1,0,-1,0,-1,0c-1,1,-1,1,-2,1l-1,0c0,0,-1,0,-1,0l-1,0l0,1l1,1c0,1,-1,2,-1,2c0,1,-1,1,-2,1c-1,0,-1,-1,-1,-2c-1,0,-1,-1,-1,-3l-1,0l-1,0l-1,0l-2,0c-1,0,-1,0,-1,0c-1,0,-1,0,-1,-1l0,1l0,1l0,1l-1,0l-1,0c0,-1,0,-1,0,-2l0,-1c-1,0,-1,0,-2,0l0,1c-1,0,-1,0,-1,0l0,1l0,1l0,1l1,2l0,1l0,1c0,1,0,1,0,2l0,1l0,-1l-1,-1l0,-1l0,-3l0,-1l0,-1l0,-1l0,-1c0,-1,0,-1,1,-2l1,0l0,-1l1,0l0,-1c1,1,2,1,3,2l1,0l1,1l1,0l1,0l1,0l0,-1l1,0c0,0,1,-1,1,-1l0,-1c0,0,1,-1,1,-1c0,-1,1,-2,2,-2l0,1l0,1l0,1c0,0,0,1,0,1c0,1,-1,1,-2,2l1,0l1,0l1,0l1,0l1,0l0,-1l1,0c1,0,2,-1,2,-1l0,1c0,0,1,0,1,1c1,0,1,-1,2,-1l1,-1l0,-1c0,1,0,1,0,1c1,1,1,1,1,1c1,0,1,0,1,0c0,0,0,-1,1,-1l0,-1c1,2,1,3,2,3l1,0c0,0,1,0,1,-1c1,0,1,0,1,0l0,-1c0,0,0,-1,0,-2c0,0,1,0,1,-1c1,-1,1,-1,2,-1c0,0,1,0,1,1l0,1l0,1l0,1c0,1,0,1,-1,1l1,0c1,0,1,1,1,1l1,0l2,0c0,0,1,-1,1,-1c1,0,1,0,1,0c0,0,0,-1,0,-1c0,-1,0,-1,-1,-1l1,-2l1,0c0,1,0,1,0,1l0,1l0,1c0,1,0,1,0,1l0,1l-1,0c0,0,0,1,-1,1c0,0,-1,0,-1,0ZM206.5,540.5l-1,-1l1,-1l1,1ZM206.5,543.5l-1,0c0,0,0,1,0,1l0,1c0,0,1,0,1,0c0,0,1,0,1,0l1,-1l-1,-1l-1,0ZM206.5,529.5c1,0,1,-1,1,-1c0,0,1,0,1,0c0,0,1,0,1,1l0,1l-1,0l0,1l1,0l0,1l-1,0l-1,0c-1,1,-1,1,-1,1l-1,0l-1,0l1,0l1,-1l1,-1l-1,0c0,0,0,-1,0,-1c0,0,0,-1,0,-1ZM208.5,529.5l-1,0l0,1l1,0l0,-1ZM198.5,551.5l-4,2c0,0,0,-1,1,-1l4,-2ZM185.5,543.5c-1,0,-1,1,-1,1l-1,1l0,1c1,0,2,-1,2,-1c1,0,1,-1,1,-1l-1,-1ZM183.5,548.5c0,1,0,1,0,2c0,0,0,1,1,1c0,0,1,0,1,0c0,0,1,0,1,0c0,-1,0,-1,-1,-2c-1,0,-1,0,-2,-1ZM182.5,554.5l-4,2c0,0,1,-1,1,-1l3,-2ZM169.5,537.5c0,0,1,0,1,0c1,0,1,0,2,0c0,0,1,0,1,0c0,0,1,0,1,1c0,0,-1,0,-1,0c0,0,0,1,0,1c0,0,-1,0,-1,0l0,1l-1,0l-1,0l-1,0l2,-1c1,0,1,0,2,-1c-1,0,-1,0,-1,0c0,0,-1,0,-1,0c0,0,-1,0,-1,0c0,0,-1,0,-1,0c0,0,0,-1,0,-1ZM287.5,551.5l-1,-1l-1,2l-1,-1l0,-2l2,1l1,-1l1,1ZM284.5,548.5l-1,0l-1,0c0,0,-1,0,-1,0l-1,-1c0,1,0,1,-1,2c0,0,-1,0,-1,-1l-1,0l-2,-1l-1,1l-2,0c-1,0,-1,0,-1,0c-1,0,-1,-1,-1,-2c-1,1,-1,1,-1,2c-1,0,-1,0,-1,0l-1,0c-1,0,-1,0,-2,0c0,0,0,-1,-1,-1l-2,-2c0,-1,-1,-1,-1,-1l0,1c0,0,0,1,0,1l-1,0c0,1,0,1,0,1c0,0,-1,1,-1,1l-1,0l-1,0l-1,0l-1,0c0,1,0,1,0,1c0,1,-1,1,-1,1c0,1,0,1,-1,2l0,1c-1,0,-1,0,-1,0c0,0,-1,0,-1,0l-1,1l-1,0c0,0,-1,-1,-1,-1c-1,0,-1,0,-1,0c0,0,0,-1,0,-1c0,0,0,1,1,1c1,0,1,0,2,-1c0,0,1,0,1,0c0,0,1,-1,1,-1l1,-1c0,-1,1,-1,1,-1l0,-1c-1,0,-1,0,-1,0c0,0,-1,0,-1,0c-1,0,-1,-1,-1,-1l0,-1c0,-1,0,-1,0,-1c0,0,1,0,1,-1l1,-1c0,0,1,0,1,1c0,0,0,1,1,1c0,1,0,1,0,2c1,0,1,0,1,0c0,0,1,0,1,0c1,0,1,-1,1,-1c0,0,1,0,1,0c1,0,1,0,1,0c0,-1,0,-1,0,-1c0,-1,0,-1,0,-1c0,0,0,-1,0,-1c-1,0,-1,0,-1,0c-1,-1,-1,-1,-1,-1c-1,0,-1,-1,-1,-1c-1,0,-1,0,-1,0l-1,0c0,0,0,-1,0,-1c0,0,0,-1,0,-1l0,-1c0,0,1,0,1,0c0,0,0,-1,0,-1c1,0,2,0,3,-1c1,-1,3,-1,5,-2c1,0,2,0,2,-1l1,0l-1,2c-1,0,-2,0,-3,1c-1,0,-3,1,-4,1c-1,1,-2,1,-3,2l1,1c0,0,1,0,1,0l1,1c1,0,2,1,2,1c1,1,1,1,2,1c0,1,1,1,1,2l2,1l1,0l0,1c1,-1,1,-1,1,-1c1,0,1,0,1,0c0,-1,0,-1,0,-1l0,-1c0,-1,0,-1,0,-1l0,-7l1,-2l0,11l0,1c0,0,1,0,1,0c0,0,1,1,1,1l2,0c0,0,0,-1,0,-1l1,0c0,0,0,-1,0,-1c2,-1,2,-2,3,-2l1,1l1,1l0,1l1,0l1,0l0,1l1,0l1,0c1,0,1,-1,2,-1c0,0,1,0,1,0c0,0,0,-1,0,-1c0,-1,-1,-1,-1,-1l1,-2c0,1,0,1,0,1c0,0,1,0,1,1l0,1c0,1,0,1,0,1c0,0,-1,0,-1,1c0,0,-1,1,-1,1c-1,0,-1,0,-2,0ZM284.5,535.5l4,-2l0,1l-4,2ZM279.5,547.5l0,-1c-1,-1,-1,-1,-1,-1l-1,0l-1,0c1,0,1,1,2,1ZM276.5,533.5l1,-1c0,0,1,0,1,0c1,0,1,0,2,1c0,1,0,1,-1,1c0,1,0,1,0,1c-1,0,-1,0,-1,0c0,0,-1,0,-1,0c0,0,-1,0,-1,0l2,0c0,-1,1,-1,1,-1c-1,0,-1,0,-1,0c-1,0,-1,0,-2,0c0,0,0,-1,0,-1ZM270.5,554.5l-4,2c0,0,1,-1,1,-1l3,-2ZM260.5,529.5c0,0,0,-1,0,-1c0,0,1,0,1,0c1,0,1,0,1,1l0,1c-1,0,-1,0,-1,0l1,1l0,1l-1,0l-1,0c-1,1,-1,1,-1,1l-1,0c-1,0,-1,0,-1,0l1,0l1,-1l1,0l0,-1c-1,0,-1,-1,-1,-1c0,0,0,-1,1,-1ZM261.5,529.5l-1,0l0,1l1,0l0,-1ZM253.5,545.5l-1,0l0,1l1,0c1,0,1,0,1,0c-1,0,-1,-1,-1,-1ZM241.5,542.5l-1,-1l1,-1l1,1ZM241.5,551.5c0,0,-1,0,-1,0c-1,0,-1,0,-2,0c0,-1,0,-1,-1,-2c0,0,0,-1,0,-1c0,-1,0,-1,0,-1c0,-1,0,-1,0,-1l0,-1c0,0,1,0,1,0l0,-1l1,0c0,0,-1,0,-1,1c0,1,0,1,0,1l0,1c0,0,0,1,0,1c0,0,1,0,1,1c1,0,1,0,1,0c0,0,1,0,2,0c0,0,1,0,2,0c0,0,1,-1,1,-1c1,0,1,0,1,-1l0,-1c0,0,0,-1,0,-1l0,-1c-1,0,-1,0,-1,-1l0,-1l0,-1l1,0l0,1c0,1,0,1,0,1c1,0,1,1,1,1c0,0,0,1,0,1c0,1,0,1,0,1c0,1,0,2,-1,2c0,1,0,1,-1,2c0,0,-1,1,-2,1c0,0,-1,0,-2,0ZM238.5,535.5l4,-2l-1,1l-4,2ZM304.5,546.5l0,1c0,1,-1,1,-1,1c1,0,1,0,1,0l1,0c0,-1,0,-1,0,-1ZM306.5,549.5c-1,0,-1,0,-2,0l-1,1c0,0,-1,0,-1,0c-1,0,-1,0,-1,0l-1,0c0,0,0,-1,0,-1c0,0,0,-1,0,-1c0,0,1,0,1,0l1,0c0,0,0,-1,0,-1c1,0,1,0,1,0c0,0,0,-1,0,-1c1,0,1,0,1,0c0,-1,0,-1,-1,-1c0,-1,0,-1,0,-1c-1,-1,-1,-1,-2,-2l-1,-1c0,0,-1,-1,-1,-1l-1,0c0,0,-1,0,-1,0c0,-1,0,-1,-1,-1c0,-1,0,-1,0,-1c0,-1,0,-1,0,-1c0,-1,0,-1,0,-1c1,0,1,0,1,0c0,0,1,1,1,1c1,0,1,1,2,1c0,1,1,2,2,2c0,1,1,2,1,3c1,0,1,0,1,1l1,1c0,-1,0,-1,0,-2c0,0,0,-1,0,-2c0,0,0,-1,0,-1c0,-1,0,-1,0,-2c0,0,0,-1,0,-1c0,-1,0,-1,0,-1c0,0,0,-1,0,-1c0,0,1,0,1,-1c0,0,0,1,0,1c0,0,0,1,0,1c1,0,1,0,1,0c0,0,0,1,0,1l0,1l-1,0c0,1,0,1,0,2c0,0,0,1,0,1c0,0,0,1,0,1c0,1,0,2,0,2c-1,1,-1,1,-1,1c0,1,0,1,0,1c0,1,1,1,1,1l0,1l0,1ZM302.5,532.5l5,-3c0,1,0,2,0,2l-6,2ZM348.5,548.5l0,-1l1,-1l-1,-8l1,-3l0,11c0,1,0,1,0,1c0,1,0,1,-1,1ZM348.5,532.5l4,-2c0,1,0,1,0,1l-4,2ZM343.5,544.5c-1,1,-1,1,-1,1c0,0,1,0,1,0c1,0,1,0,1,0l0,-1c-1,0,-1,0,-1,0ZM343.5,552.5l-1,0c0,0,0,1,0,1c-1,0,-1,0,-2,0c-1,0,-1,0,-2,0c0,-1,0,-1,-1,-1c1,0,1,0,1,0c0,0,1,0,1,0l1,0c0,0,1,0,1,0c0,0,0,-1,0,-1c1,0,1,0,2,-1c0,-1,1,-1,1,-1c0,-1,0,-2,0,-2c-1,0,-1,0,-1,0l-1,0c0,0,-1,0,-1,-1l0,-1c1,-1,1,-1,1,-2l1,-1c1,0,1,0,1,0c0,1,1,1,1,1c0,0,0,1,0,1c0,0,0,1,0,1c0,0,0,1,0,1c0,1,0,1,0,1c0,1,0,2,-1,3c0,0,0,1,0,1c0,0,-1,1,-1,1ZM339.5,534.5c1,0,1,-1,1,-1c1,0,1,0,2,0c0,0,1,0,1,0c0,1,1,1,1,1c-1,1,-1,1,-1,1c0,0,0,1,-1,1c-1,0,-1,0,-1,0l-1,0l1,0c1,-1,1,-1,2,-1c0,0,-1,0,-1,-1l-1,0c0,0,-1,0,-1,1l-1,0c0,-1,0,-1,0,-1ZM333.5,547.5c1,0,1,-1,1,-1c1,0,1,0,1,0c1,0,1,0,1,0c0,0,0,-1,0,-1l0,-2l0,-6c-1,0,-1,0,-1,0c0,-1,0,-1,0,-1c0,0,0,-1,1,-1l0,-1c0,0,0,1,0,1c1,1,1,1,1,1c0,0,0,1,0,1l0,1c0,0,0,1,0,2c0,0,0,1,0,2c0,1,0,1,0,2l0,1l0,1l0,1c0,0,-1,0,-1,0c0,1,0,1,-1,1c-1,0,-1,0,-1,0l-1,0l-1,0l-1,0c0,-1,0,-1,0,-1c0,0,-1,0,-1,1c-1,0,-1,0,-2,0l-1,0c-1,0,-2,0,-2,0c-1,-1,-1,-2,-1,-2l-1,-9l1,-2l1,10l0,1c0,0,1,1,2,1l1,0c1,0,1,-1,1,-1c1,0,1,0,1,0l0,-1c1,0,1,0,1,0l0,1c0,0,1,0,1,0c0,0,1,1,1,1ZM338.5,551.5l-4,2c0,0,0,-1,1,-1l4,-2ZM332.5,551.5l-1,-1l-1,2l-2,-1l1,-2l2,1l1,-1l1,1ZM329.5,538.5l4,-2l0,1l-4,2ZM321.5,532.5l1,0c0,0,1,0,2,0c0,0,0,1,1,1l1,-1l1,0c-1,1,-1,1,-2,1l-1,0l0,1l-1,-1l-1,0l-1,0l-1,0c1,0,1,-1,1,-1ZM316.5,546.5c0,0,0,-1,0,-1c1,0,1,-1,1,-1l1,0c1,0,1,0,1,0l0,1l0,1l-1,-1c-1,0,-1,0,-1,1l0,1c0,0,1,0,1,0c1,0,1,0,1,0c0,0,1,0,1,0l0,1l-5,1l1,0l0,-1c1,0,1,0,1,0c-1,0,-1,0,-1,-1l0,-1ZM315.5,538.5l5,-2l-1,1l-4,2ZM389.5,547.5l-1,0l-1,1c0,0,-1,0,-1,0l-1,0l-1,0l-1,0c0,0,-1,0,-1,0l0,-1l1,-1l1,0c0,0,1,0,2,0c1,0,1,0,1,0c1,0,1,0,1,-1l0,-1l-1,-1l-1,-1l-1,0l-1,-1l1,-1l1,0l1,0c0,0,0,1,0,1l1,0c0,1,0,1,0,1c1,1,1,1,1,2l0,1c0,1,0,1,0,1c0,0,0,1,0,1ZM386.5,532.5c1,0,1,0,1,0c0,-1,1,-1,1,-1c0,0,1,1,1,1c0,0,0,1,0,1l-1,0c0,1,0,1,0,1l1,0l0,1l-1,0l-1,0l0,1c-1,0,-1,0,-1,1l-1,0l-1,0l1,-1l1,0l0,-1l1,0l0,-1l-1,0l0,-1l0,-1ZM388.5,533.5l-1,-1l0,1l1,0ZM378.5,544.5l-1,0c0,1,0,1,0,1c0,0,1,0,1,0c0,0,1,0,1,0c0,0,-1,0,-1,-1ZM378.5,552.5l-1,0c0,0,0,1,0,1c-1,0,-1,0,-2,0c-1,0,-1,0,-2,0c0,-1,-1,-1,-1,-1c0,0,1,0,1,0l1,0l1,0c0,0,1,0,1,0c0,0,0,-1,0,-1c1,0,1,0,2,-1c0,-1,1,-1,1,-1c0,-1,0,-2,0,-2l-1,0l-1,0c-1,0,-1,0,-1,-1l0,-1c1,-1,1,-1,1,-2l1,-1c1,0,1,0,1,0c0,1,0,1,1,1c0,0,0,1,0,1c0,0,0,1,0,1c0,0,0,1,0,1c0,1,0,1,0,1c0,1,0,2,-1,3c0,0,0,1,0,1c0,0,-1,1,-1,1ZM369.5,541.5l-1,-1l1,-1l1,1ZM369.5,548.5l-1,0c-1,0,-1,0,-2,0l-1,0c0,-1,0,-1,0,-1c0,0,0,-1,0,-1l0,-1l-1,1l-1,0l0,1l-1,0c0,0,-1,0,-1,-1l-1,0l0,-1c0,0,1,-1,1,-1c1,-1,1,-1,2,-2c1,0,1,0,1,0l0,-1l0,-1l1,0l0,1c0,0,0,1,0,1c0,0,0,1,0,1l1,2c0,0,0,1,0,1l1,0c0,0,0,1,1,1l1,0c0,0,1,-1,1,-1c1,0,1,0,1,0c0,0,0,-1,0,-1c0,-1,0,-1,0,-1l-1,0l1,-2l1,0c0,1,0,1,0,1l0,1l0,1c0,1,0,1,0,1l0,1l-1,0c0,0,0,1,-1,1c0,0,-1,0,-1,0ZM373.5,551.5l-5,2c1,0,1,-1,1,-1l4,-2ZM364.5,543.5l-1,1c-1,0,-1,0,-1,1l1,0c1,0,1,0,1,0l0,-1l1,0ZM366.5,535.5c-1,0,-3,1,-4,1l-1,0l0,-1l-1,0l-1,0c0,1,0,1,-1,1l0,-1l1,0l1,-1c1,0,2,1,3,1l1,0l1,-1l1,0ZM413.5,548.5l-1,0l0,-1c-1,0,-1,0,-1,0l-1,0c0,0,-1,1,-1,1l-1,0l-1,0l-1,0l0,1l0,1c0,1,0,1,-1,2c0,0,0,1,-1,1c0,1,-1,1,-2,2c-1,0,-1,0,-2,0c-1,0,-1,0,-2,0c0,0,-1,-1,-1,-1c-1,0,-1,-1,-1,-1c-1,-1,-1,-1,-1,-2l0,-1c0,0,1,-1,1,-1c0,-1,0,-1,0,-1c0,0,1,0,1,-1l0,1c-1,1,-1,1,-1,1c0,0,0,1,0,1c0,0,0,1,0,1l0,1c1,0,1,0,1,0c0,0,0,1,1,1c1,0,1,0,2,0c1,0,2,0,3,0c0,0,1,-1,1,-1c1,0,1,-1,1,-1c0,0,0,-1,0,-1c0,-1,0,-1,0,-1l0,-1c0,0,-1,0,-1,0l0,-1l1,-2l0,1c0,0,1,1,1,1l1,0l1,0c1,0,1,-1,1,-1l1,0l0,-1c1,-1,1,-1,1,-2c1,0,1,0,1,0c1,0,1,0,1,0c0,1,1,1,1,2l0,1c0,0,0,1,0,1c0,0,-1,0,-1,1ZM411.5,545.5l1,1l1,0l0,-1l-1,0c-1,0,-1,0,-1,0ZM409.5,534.5l0,1l1,0c0,0,0,-1,0,-1l0,-1l1,0l0,1c1,0,1,0,1,-1l0,-1l0,1l0,1l0,1l-1,0l-1,0l0,1l-1,0l0,-1l0,-1ZM412.5,551.5l-4,2c0,0,0,-1,1,-1l4,-2ZM401.5,546.5l-2,-1l1,-2l2,1ZM56.5,488.5l1,0c0,0,1,0,1,0c1,0,1,0,1,0c1,0,1,0,1,1c0,0,0,1,-1,1l0,1c0,0,-1,0,-1,0c0,0,-1,0,-1,0l-1,0l2,-1c0,0,1,0,1,-1l-1,0c-1,0,-1,0,-2,0l0,1l0,-1l0,-1ZM380.5,490.5c0,0,1,0,1,0c1,0,1,0,2,0c0,0,1,0,1,0c0,0,1,0,1,0c0,1,0,1,-1,1l0,1c0,0,-1,0,-1,0l-1,1l-1,0l-1,0l2,-1c1,0,1,0,2,-1c-1,0,-1,0,-1,0c0,0,-1,0,-1,0c0,0,-1,0,-1,0c0,0,-1,0,-1,0c0,0,0,-1,0,-1ZM156.5,490.5c0,-1,1,-1,1,-1c0,-1,0,-1,1,-1l0,1c0,1,0,1,0,1l0,1l1,1l-1,1l-1,-1l-1,1c0,0,0,1,0,1l-1,0l-1,0l1,-1c0,0,1,0,1,0l0,-1l1,0l-1,0l0,-1l0,-1ZM157.5,490.5l0,1l1,0l0,-1l-1,0ZM261.5,502.5c0,0,-1,0,-1,0c-1,1,-1,1,-1,1c-1,0,-1,0,-2,0c-1,0,-1,0,-1,0l0,-1l0,-1c0,0,1,0,1,0c0,0,1,0,1,-1c1,0,1,-1,1,-1c0,-1,0,-1,0,-1c-1,-1,-1,-1,-1,-1c0,-1,-1,-1,-1,-2c-1,0,-1,0,-2,-1c0,0,0,-1,-1,-1l-1,0c-1,0,-1,-1,-1,-1c0,-1,0,-1,0,-1c0,-1,0,-1,0,-1c0,-1,0,-1,0,-1c1,0,1,1,1,1c1,0,1,1,2,1c1,1,1,2,2,2c0,1,1,2,2,3l0,1c1,0,1,0,1,1c0,-1,0,-1,0,-2c0,0,0,-1,1,-1c0,-1,0,-2,0,-2c0,-1,0,-1,0,-2c0,0,0,-1,0,-1c0,0,-1,0,-1,0c0,-1,0,-1,0,-1c0,0,0,-1,1,-1l0,-1c0,1,0,1,0,1c0,0,1,1,1,1l1,0c-1,0,-1,1,-1,1c0,0,0,1,0,1c0,1,0,1,0,2c0,0,0,1,0,1c-1,0,-1,1,-1,1c0,1,0,2,0,2c0,1,0,1,-1,1c0,1,1,1,1,1c0,1,0,1,0,1l0,1l0,1ZM260.5,500.5l-1,0c0,1,0,1,0,1c0,0,1,0,1,0c0,-1,0,-1,0,-1ZM314.5,492.5c0,-1,0,-1,-1,-2c0,0,0,-1,0,-1l0,-1l1,0l0,1c0,0,0,1,0,1l0,1c0,0,0,1,0,1ZM305.5,491.5l1,0c0,-1,-1,-1,-1,-2c0,-1,0,-1,0,-2c1,0,1,0,1,1l0,1c0,0,0,1,0,1c0,1,0,1,-1,1ZM207.5,500.5c0,0,1,-1,1,-1l0,-1l0,-1l0,-2l0,-1c0,1,0,1,0,1l0,1l0,1l0,1l0,1l1,-1l1,0c0,0,0,-1,0,-1l1,0l1,1c0,1,0,1,0,1c0,0,-1,1,-1,1c-1,0,-1,0,-1,0c-1,0,-1,0,-1,0ZM210.5,498.5l0,1l-1,0l-1,1l1,0l0,-1c1,0,1,0,1,0c1,0,1,0,2,0c0,0,-1,0,-1,-1l-1,0ZM144.5,499.5l0,-1c1,0,1,0,1,0l0,-1l0,-1l0,-1l0,-1l0,-1l0,-1l1,1c-1,0,-1,1,-1,1l0,1l1,1l0,1l-1,0l0,1l1,-1l1,0l0,-1l1,0c0,0,1,0,1,0c0,0,0,1,0,1c0,1,0,1,0,1l-1,0l0,1c0,0,-1,0,-1,0c-1,0,-1,0,-1,0ZM148.5,497.5c-1,0,-1,0,-1,0l-1,1l-1,0l1,0c1,0,1,0,1,0c1,0,1,0,2,0c0,-1,0,-1,-1,-1ZM112.5,501.5l0,-1l0,-1l-1,-8l1,-3l1,11c0,1,0,1,0,1c-1,1,-1,1,-1,1ZM111.5,485.5l4,-2l0,1l-4,2ZM106.5,492.5l-2,-1l1,-2l2,1ZM108.5,499.5l0,1l-1,0c0,1,-1,1,-1,1c-1,0,-2,0,-2,0l-1,0l-1,0c-1,0,-2,0,-2,0c-1,-1,-1,-1,-1,-2l0,-9l1,-2l0,10l0,1c1,0,1,1,2,1l1,0l1,0c1,0,1,0,2,-1c0,0,1,0,1,0c1,0,1,-1,1,-1l0,-1l-1,0c0,0,0,1,0,1c-1,0,-1,0,-1,0c-1,0,-1,0,-1,0c0,-1,-1,-1,-1,-1l0,-1l0,-1l1,-1c0,-1,1,-1,1,-1c1,0,1,0,1,0c0,0,1,1,1,1l0,1l0,1c1,1,1,1,1,2c0,0,0,1,-1,1ZM105.5,495.5l0,1l1,0c1,0,1,0,1,0c0,0,0,-1,0,-1l-1,0c-1,0,-1,0,-1,0ZM104.5,485.5l4,-2l0,1l-4,2ZM93.5,488.5l-2,-1l0,1l-2,-1l1,-1l2,1l0,-1l2,0ZM92.5,492.5c0,-1,0,-1,0,-1c0,0,1,0,1,1l0,1l0,1l1,0l0,-1l0,-1l-1,0c0,-1,0,-1,0,-1c0,-1,0,-1,0,-1l-1,0l0,1l-1,0l0,1c-1,0,-1,1,-1,1c-1,0,-1,1,-1,1c-1,0,-1,0,-1,1l-1,0c0,0,-1,0,-1,0l0,1c-1,0,-1,1,-1,1l1,0l1,0l1,0l1,1l1,0l-2,1l-1,0l-1,1l-1,0l-1,0l-1,0l-1,0c0,0,-1,0,-1,0c0,-1,0,-1,0,-1l-1,0c0,0,0,-1,0,-1l0,-1l0,-2c0,-1,0,-1,0,-1l-1,-2l0,1l-1,1l1,1l0,2c0,0,0,1,0,1c0,1,0,1,0,1c-1,0,-1,0,-1,0l-1,0c0,0,-1,0,-1,0l-1,0l-1,0l0,-1l-1,0c0,1,0,1,0,1l0,1l0,1c0,0,1,0,1,0l1,0c1,0,1,0,2,0c0,0,1,0,1,-1l1,0l0,-1c0,0,1,1,1,1l0,1c0,0,1,0,1,0l2,0l1,0l1,0l1,0l1,0l3,-1l0,-1c0,0,1,0,1,0l1,0l1,0l1,0l2,0l0,-2l-1,0l-1,0c0,0,-1,0,-1,0c-1,0,-1,0,-2,0l-2,-1l-1,-1l1,0l1,-1c0,0,1,-1,1,-1ZM90.5,480.5l0,1l1,0c0,0,0,-1,0,-1l0,-1l1,0l0,1c1,0,1,0,1,-1l0,-1l0,1l0,1c0,1,0,1,0,1l-1,0l-1,0c0,1,0,1,-1,1c0,0,0,-1,0,-1l0,-1ZM94.5,477.5l-5,3c0,-1,0,-2,0,-2l6,-2ZM84.5,493.5l-1,-1l1,-2l1,1ZM84.5,485.5l5,-2l-1,1l-4,2ZM78.5,490.5l-2,-1l1,-2l2,1ZM75.5,481.5c1,-1,1,-1,1,-1c1,0,1,0,2,0c0,0,1,0,1,0c0,0,1,1,1,1c-1,1,-1,1,-1,1c0,0,0,1,-1,1c-1,0,-1,0,-1,0l-1,0l1,-1c1,0,1,0,2,0c0,-1,-1,-1,-1,-1l-1,0c0,0,-1,0,-1,0c0,1,0,1,-1,1c0,-1,0,-1,0,-1ZM68.5,493.5l-1,-1l-1,1l-1,-1l1,-1l1,1l1,-1l1,1ZM66.5,501.5l-1,0l-1,0c0,0,-1,0,-1,0l-1,-1c0,1,0,1,-1,2c-1,0,-2,-1,-3,-2c-1,0,-2,0,-3,1l0,1l0,1l0,1l0,2l1,1l0,1c0,1,0,1,0,2l0,1l-1,0l0,-1l0,-1l0,-1l-1,-3l0,-1l0,-1l0,-1l0,-1c1,0,1,-1,1,-1l0,-1l1,0l1,-1l1,0l1,-1c1,-1,1,-1,1,-1c0,1,1,1,1,1l1,1l0,1l1,0l1,1l1,0l1,0c1,0,1,0,2,-1c0,0,1,0,1,0l0,-1c0,0,0,-1,0,-1l-1,0l1,-2l0,1l1,1l0,1l0,1l-1,1c0,1,-1,1,-1,1c-1,0,-1,0,-2,0ZM67.5,482.5c0,0,0,-1,0,-1c1,0,1,0,1,0c1,0,1,0,1,1l0,1l-1,1l1,0l0,1l-1,0l-1,0c0,1,-1,1,-1,1l-1,0l1,-1l1,0l0,-1c0,0,-1,-1,-1,-1c0,0,1,-1,1,-1ZM68.5,482.5l-1,0l0,1l1,0l0,-1ZM62.5,500.5l-1,-1c-1,-1,-1,-1,-1,-1c0,0,-1,0,-1,1l1,0l1,1ZM137.5,492.5l-1,-1l-1,1l-1,-1l0,-1l2,0l1,-1l1,1ZM139.5,499.5c-1,0,-1,1,-1,1c-1,1,-1,1,-2,1c-1,0,-1,0,-2,0l-1,0c-1,0,-1,0,-1,0c-1,0,-1,-1,-1,-2l0,2l0,1c0,0,0,1,0,1c-1,1,-1,2,-1,2c-1,0,-1,0,-1,0c-1,1,-1,1,-1,1c-1,0,-1,0,-2,0c0,0,-1,0,-1,0l-1,0l-1,0c0,0,-1,0,-1,-1c0,0,-1,0,-1,-1l0,-1c0,0,0,-1,0,-2c0,0,1,-1,1,-1l0,-1l1,0l-1,1c0,0,0,1,0,1c0,0,0,1,0,1c0,1,0,1,1,2c0,0,1,0,1,0c1,1,1,1,1,1c1,0,2,-1,3,-1c1,0,2,-1,2,-1c0,0,0,-1,0,-1l0,-1l0,-2c0,0,0,-1,0,-2l0,-1l0,-7l0,-2l1,11l0,1l1,0c0,1,1,1,1,1l1,0c0,0,1,0,2,-1c1,0,1,0,2,0c0,-1,0,-1,0,-1l0,-1l-1,0c0,0,0,1,0,1c0,0,-1,0,-1,0l-1,0c0,-1,0,-1,0,-1c0,0,-1,0,-1,-1c0,0,1,-1,1,-1c0,-1,0,-1,0,-1c1,-1,1,-1,2,-1l1,0c0,0,0,1,0,1c0,0,0,1,0,1l1,0c0,1,0,1,0,1c0,1,0,1,0,2c0,0,0,1,0,1ZM135.5,495.5c1,0,1,0,1,1c0,0,1,0,1,0c0,-1,0,-1,0,-1c-1,0,-1,0,-1,0c0,0,-1,0,-1,0ZM135.5,482.5c0,0,0,-1,0,-1c1,0,1,0,1,0c0,0,1,0,1,0l0,1l0,1l0,1l0,1l-1,0l-1,0c0,1,-1,1,-1,1l-1,0l1,-1l1,0l0,-1c0,0,0,-1,0,-1c0,0,0,-1,0,-1ZM136.5,482.5c-1,0,-1,0,-1,0l0,1l1,0l0,-1ZM121.5,490.5l1,0c0,0,1,0,1,0c1,0,1,0,2,0l0,1c0,0,0,1,-1,1l0,1l-1,0c0,0,-1,0,-1,0c-1,0,-1,0,-1,0l2,-1c0,0,1,0,1,-1l-1,0c-1,0,-1,0,-2,0l0,1l0,-1l0,-1ZM174.5,502.5l0,-1l0,-2l-1,-8l1,-2l1,10c0,1,0,1,-1,1l0,1l0,1ZM169.5,501.5l-1,0l-1,0c0,0,-1,-1,-1,-2c0,1,0,1,0,2c-1,0,-2,1,-2,1c-1,0,-1,0,-2,-1c0,0,0,-1,-1,-2c0,1,0,1,-1,1l-1,0c-1,0,-1,0,-1,0c-1,0,-1,0,-1,0c0,-1,0,-1,0,-2c1,0,1,0,1,-1c1,0,1,0,2,0l1,-1l0,-1l0,-1c0,0,1,0,1,-1l0,2l0,1l0,2c0,0,0,1,0,1c0,0,1,0,1,0c0,1,0,1,1,1c0,0,1,0,1,-1c0,0,1,0,1,-1c0,0,0,-1,0,-2c0,0,-1,-1,-1,-1c0,-1,0,-1,0,-1c0,0,0,-1,0,-1l1,-1l0,-1l0,3l1,2l0,1l0,1c0,1,1,1,1,1l1,0l1,0c0,-1,0,-1,0,-2l-1,-1l0,-1l0,-1l0,-1l0,-1c0,0,0,1,1,1c0,0,0,1,0,1l0,2c0,1,0,1,0,2c0,1,0,1,0,2l0,1c-1,0,-1,0,-1,0ZM161.5,497.5c-1,0,-1,0,-1,0c0,0,0,1,-1,1l-1,1c1,0,2,0,2,-1c1,0,1,0,1,0ZM199.5,492.5l-2,-1l0,1l-2,-1l1,-1l2,1l0,-1l2,0ZM200.5,500.5c0,0,0,1,-1,1c0,0,-1,0,-2,1c0,0,-1,0,-1,0l-1,0c-1,0,-1,0,-1,-1c-1,0,-1,0,-1,-1l0,1l0,1c0,1,-1,1,-1,2c0,0,0,1,-1,1c0,1,0,1,-1,1l-1,0c0,1,0,1,-1,1c0,0,-1,0,-1,0l-1,0c0,0,-1,0,-1,0c-1,0,-1,-1,-1,-1c-1,0,-1,-1,-1,-1c0,0,0,-1,0,-1c0,-1,0,-2,0,-2c0,-1,0,-1,0,-1l1,-1l0,-1l1,0l-1,1c0,1,0,1,0,1c0,1,0,1,0,1c0,1,0,2,0,2c1,1,1,1,2,1c0,0,1,0,1,0c1,0,2,0,3,-1c1,0,1,0,2,-1c0,0,0,-1,0,-1l0,-3c0,0,0,-1,0,-1c0,-1,0,-1,0,-1l-1,-7l1,-2l1,10c0,1,0,1,0,1c0,1,1,1,1,1l1,0c1,0,2,0,3,0c0,0,1,-1,2,-1l0,-1l0,-1c-1,1,-1,1,-1,1c-1,0,-1,0,-1,0c0,0,-1,0,-1,0l-1,0c0,-1,0,-1,0,-1c0,-1,0,-1,0,-2l1,0c0,0,0,-1,0,-1c0,-1,1,-1,1,-1c1,0,1,0,1,1c1,0,1,0,1,1l0,1c0,0,0,1,1,1c0,0,0,1,0,1c0,1,0,1,-1,1c0,0,0,1,0,1ZM197.5,496.5c0,0,1,0,1,0c0,0,1,0,1,0l0,-1c-1,0,-1,0,-1,0c-1,0,-1,0,-1,1ZM197.5,483.5c0,-1,0,-1,0,-1c0,-1,1,-1,1,-1c1,1,1,1,1,1c0,1,0,1,0,1l-1,1l1,0l0,2l-1,-1l-1,0l0,1c-1,0,-1,1,-1,1l-1,0l-1,0l1,-1l1,0l0,-1l1,0l0,-1c-1,0,-1,0,-1,-1l1,0ZM198.5,483.5l-1,0l0,-1c0,0,0,1,0,1l1,1l0,-1ZM189.5,510.5l-4,2c1,-1,1,-1,1,-1l4,-2ZM273.5,497.5l0,1l1,0c0,-1,0,-1,-1,-1ZM273.5,505.5c0,1,-1,1,-1,1c0,0,-1,0,-1,0l-1,0c0,0,-1,0,-1,0c-1,0,-1,-1,-1,-1l1,0c1,0,1,0,1,0c0,0,1,0,1,0c0,0,1,0,1,-1c0,0,1,0,1,0c0,-1,1,-1,1,-1c0,0,0,-1,0,-1c1,-1,1,-1,1,-2l-1,0l-1,0c-1,0,-1,0,-1,0l0,-1c0,-1,0,-1,0,-1c0,-1,0,-1,1,-2c0,-1,1,-1,1,-1l1,0c0,1,0,1,0,1c0,1,0,1,0,1c1,0,1,1,1,1c0,1,0,1,0,1c0,1,0,1,0,1c0,1,-1,2,-1,3c0,0,0,1,-1,1c0,0,0,1,-1,1ZM271.5,492.5l4,-3l0,1c-1,0,-1,0,-1,1l-4,2ZM267.5,501.5l0,-1l0,-1l-1,-8l1,-3l1,11c0,1,-1,1,-1,1c0,1,0,1,0,1ZM251.5,483.5l4,-2l0,1l-4,2ZM261.5,483.5c0,0,1,0,1,0c0,0,1,0,1,0c1,0,1,0,1,0c1,0,1,0,1,1c0,0,-1,0,-1,1l-1,0c0,0,-1,0,-1,0l-1,0l2,0c0,0,1,-1,1,-1l-1,0c-1,0,-1,0,-1,0c0,0,-1,0,-1,0l0,-1ZM242.5,505.5l0,-1l1,1c1,0,2,-1,3,-1c0,-1,1,-1,1,-1c1,-1,1,-1,1,-2c1,0,1,0,1,-1c0,-1,0,-1,0,-1l-1,-1l0,-1l0,-1l0,-1l1,1c0,0,0,1,0,2l1,0l0,1c0,1,0,1,-1,2c0,0,0,1,0,1c0,1,0,1,-1,1c0,1,0,1,0,1c0,0,-1,1,-1,1l-1,0l-1,0l-1,0c-1,0,-1,0,-1,0c0,0,-1,0,-1,0ZM244.5,490.5l1,0l1,0c0,0,1,0,1,0c1,0,1,0,1,1c0,0,-1,1,-1,1l0,1c-1,0,-1,0,-1,0c-1,0,-1,0,-1,0l-1,0l1,-1c1,0,2,0,2,-1l-1,0l-1,0l-1,0l-1,1l0,-1c0,0,1,0,1,-1ZM234.5,494.5l-1,-1l1,-1l1,1ZM232.5,501.5l0,1c0,1,0,1,0,2c0,0,-1,-1,-1,-1l0,-1c0,0,0,-1,0,-1l-1,0l0,1c0,0,0,1,0,1c0,1,0,1,0,2c-1,0,-1,1,-1,1c0,0,-1,1,-1,1c0,0,-1,0,-1,1c0,0,-1,0,-1,0c-1,0,-1,0,-1,0c0,0,-1,0,-1,0c-1,0,-1,0,-2,0c-1,0,-1,0,-1,-1c-1,0,-1,0,-1,-1c-1,0,-1,-1,-1,-1l0,-1l0,-1l1,0c0,-1,0,-1,0,-1c0,-1,0,-1,1,-2l0,1c0,0,0,1,-1,1c0,1,0,1,0,1c0,1,0,1,1,2c0,0,0,1,1,1l1,0l0,1c1,0,1,0,1,0c1,0,1,0,2,-1c0,0,1,0,2,0c0,-1,1,-1,1,-2c0,0,0,-1,0,-1c0,-1,0,-1,0,-2c0,0,0,-1,0,-1l0,-2c0,0,0,1,1,1c0,0,0,1,1,1l1,0l0,-1l1,0l0,-1l2,0l0,-1l1,0l1,-1c0,0,1,0,1,0c1,0,1,0,1,0c1,0,1,0,1,0c0,0,1,0,1,0l0,1c1,0,1,0,1,0l0,1c0,0,0,1,-1,1l0,1c-1,0,-1,1,-2,1l-1,0c0,0,-1,0,-1,0l-2,0l-1,0ZM237.5,498.5c0,0,-1,0,-1,0l-1,1l-1,0l-1,1l3,0c0,0,1,0,1,0c1,0,1,0,2,-1c1,0,1,0,2,0c0,0,-1,-1,-1,-1c-1,-1,-1,-1,-1,-1c-1,0,-1,0,-1,0c-1,0,-1,1,-1,1ZM229.5,512.5l-5,2c1,-1,1,-1,1,-1l4,-2ZM341.5,501.5l0,-1l0,-1l-1,-8l1,-3l1,11c0,1,0,1,0,1c-1,1,-1,1,-1,1ZM333.5,500.5c1,0,1,0,1,0c1,0,1,-1,1,-1c0,0,1,0,1,0l0,-1l0,-2l-1,-6c0,0,0,-1,0,-1l0,-1c1,0,1,0,1,0l0,1c0,0,1,0,1,0c0,0,0,1,0,1c0,0,0,1,0,1l-1,0c0,0,0,1,1,2c0,0,0,1,0,2c0,1,0,1,0,2l0,1l0,1l-1,1l0,1c0,0,-1,0,-1,0l-1,0l-1,0l-1,0l-1,0c0,-1,0,-1,0,-1c0,0,0,-1,0,-1l0,1c-1,0,-1,0,-1,0c-1,1,-1,1,-1,1c-1,0,-2,0,-2,-1c-1,1,-1,1,-2,1c-1,0,-1,0,-2,-1c-1,1,-1,1,-2,1l-1,0l-1,0c0,0,-1,0,-1,0l-1,-1c0,1,0,1,-1,2c0,0,-1,0,-1,-1l-1,0l-2,-1l0,1c-1,0,-1,0,-1,0l-1,0l-1,0l-1,0c0,1,0,1,0,1c0,1,0,1,0,2c0,0,-1,0,-1,1c0,0,-1,0,-1,1l-1,0c-1,1,-1,1,-1,1c0,0,-1,0,-1,0c-1,0,-1,0,-2,-1l-1,0c1,0,1,0,1,0c0,0,1,0,1,0c0,0,1,0,1,0c1,-1,1,-1,2,-1l0,-1c1,0,1,0,1,0c0,-1,1,-1,1,-1c0,0,0,-1,0,-1c0,0,0,-1,0,-1l-1,0c0,0,-1,0,-1,0l0,-1c0,-1,0,-1,0,-1c0,0,0,-1,0,-1c0,-1,0,-1,0,-1c1,0,1,0,1,0c0,0,0,-1,1,-1c0,0,0,1,0,1c1,0,1,0,1,0c0,0,0,1,0,1l0,1c0,0,1,0,1,1c0,0,1,0,1,0l1,0l0,-1l1,0l1,-1c1,-1,1,-2,2,-2l1,1l1,1l0,1l1,0l1,1l1,0l1,0l1,0l0,-1c1,0,1,-1,2,-1l0,1l1,1c0,0,1,-1,1,-1c1,0,1,0,1,-1l1,0l0,1c0,0,1,0,1,0c0,0,1,0,1,0l0,-1c0,0,1,0,1,-1c0,2,1,3,2,3ZM326.5,491.5l0,1l1,0l0,-1c1,1,1,1,1,1l1,-1l0,-1l0,1l0,1c0,0,0,1,-1,1l-1,0c0,0,-1,1,-1,1l-1,-1l0,-1l1,-1ZM330.5,488.5l-6,3c1,0,1,-1,1,-1l5,-3ZM316.5,500.5l0,-1c-1,-1,-1,-1,-1,-1l-1,0c0,1,0,1,1,1l1,1ZM306.5,498.5l0,1c0,1,1,1,1,1c0,-1,0,-1,0,-1l0,-1c0,0,-1,0,-1,0ZM292.5,494.5l-1,2l-2,-1l0,1l-2,-1l1,-1l2,1l0,-2ZM297.5,499.5c0,1,-1,1,-1,1c-1,1,-2,1,-3,1c-2,1,-3,1,-4,1c-2,0,-3,0,-4,0c-1,-1,-2,-1,-2,-2c0,0,-1,0,-1,-1c0,-1,0,-1,0,-1c0,-1,0,-1,0,-1c0,-1,1,-1,1,-2l1,1c-1,0,-1,0,-1,0c0,1,0,1,0,1c0,1,0,1,0,1c1,1,1,1,2,2l1,0l1,0l1,0l2,0c0,0,1,0,2,0c1,0,1,0,1,-1l1,0c1,0,2,0,2,-1c1,0,1,0,2,-1l-1,0c0,-1,0,-1,0,-1l0,-1c0,0,0,-1,0,-1c1,0,1,1,1,1c0,0,0,1,0,1l0,1c0,0,0,1,0,1c0,1,0,1,-1,1ZM292.5,506.5l-4,2c1,0,1,-1,1,-1l4,-2ZM364.5,505.5l1,-1l0,1l1,0c1,0,2,-1,3,-1c0,-1,1,-1,1,-1c0,-1,1,-1,1,-2c0,0,1,0,1,-1c0,-1,0,-1,0,-1l-1,0l0,-1l0,-1l0,-1l0,-1l1,1c0,0,0,1,0,2l0,1c0,1,0,1,0,2c0,0,0,1,0,1c0,1,-1,1,-1,1c0,1,0,1,-1,1c0,0,0,1,0,1l-1,0l-1,0l-1,0l-1,0c-1,0,-1,0,-1,0ZM368.5,490.5l0,1c1,0,1,0,1,0l0,-1l0,-1l1,0l0,1c0,0,1,0,1,0l0,-1l0,1l0,1l-1,0l-1,0l0,1l-1,0l0,-1l0,-1ZM372.5,487.5l-6,3c1,-1,1,-1,1,-2l6,-2ZM357.5,506.5l-1,-1l0,-2l2,1ZM364.5,499.5c0,1,-1,1,-1,1c-1,1,-2,1,-4,1c-1,1,-2,1,-3,1c-2,0,-3,0,-4,0c-1,-1,-2,-1,-2,-2c-1,0,-1,0,-1,-1c0,-1,0,-1,0,-1c0,-1,0,-1,0,-1c0,-1,1,-1,1,-2l0,1c0,1,0,1,0,1c0,1,0,1,0,1c0,1,1,1,2,2l1,0l1,0l3,0c0,0,1,0,1,0c1,0,1,0,1,0c1,0,1,0,1,-1l1,0c1,0,2,0,2,-1c1,0,1,0,2,-1l-1,0c0,-1,0,-1,0,-1l0,-1c0,0,0,-1,0,-1c1,0,1,1,1,1c0,0,0,1,0,1l0,1c0,0,0,1,0,1c0,1,0,1,-1,1ZM355.5,491.5l0,1l1,0l0,-1l1,0l0,1c1,0,1,0,1,-1l0,-1l0,1l0,1c0,1,0,1,0,1l-1,0l-1,0c0,0,0,1,-1,1l0,-1l0,-1l0,-1ZM356.5,486.5c1,0,1,0,1,-1c0,0,1,0,1,0c0,0,1,1,1,1l0,1l-1,0c0,0,0,1,0,1l0,1l-1,1c-1,0,-1,0,-1,0c-1,0,-1,1,-1,1c-1,0,-1,0,-1,-1c1,0,2,-1,3,-2l-1,0c0,0,0,-1,0,-1c0,0,0,-1,0,-1ZM358.5,486.5l-1,0c0,1,0,1,0,1l1,0ZM397.5,501.5c0,0,-1,0,-1,0l-1,0c0,0,0,-1,-1,-1l-1,0c0,0,0,1,0,1l-1,0l-1,0l-2,0c0,0,0,1,0,1l0,1c0,1,0,2,0,2c0,1,-1,1,-1,2c-1,0,-2,0,-2,1c-1,0,-2,0,-3,0c0,0,-1,0,-1,0c-1,0,-1,0,-2,-1c0,0,-1,0,-1,-1c0,0,0,-1,0,-2c0,-1,0,-1,0,-1l0,-1c0,0,1,-1,1,-1l1,0c-1,0,-1,0,-1,1c0,0,0,1,0,1c0,1,0,1,0,1l0,1l1,1l1,0c0,0,1,0,2,0c1,0,1,0,2,0c1,0,2,-1,2,-1l0,-1l0,-1c0,0,0,-1,0,-1c0,-1,0,-1,0,-1l-1,-1l1,-2c0,0,0,1,0,1l1,0c0,0,0,1,1,1l1,0l1,0c0,0,1,0,1,0l0,-1l1,-1c0,-1,0,-1,1,-1l0,-1l1,0l1,0c0,1,0,1,0,2l0,1l0,1c0,0,0,1,0,1ZM395.5,498.5l0,1l1,0l0,-1l-1,0ZM392.5,488.5l4,-2l0,1l-4,2ZM384.5,499.5l-1,-1l1,-1l1,1ZM422.5,492.5l-1,-1l-1,1l-1,-1l0,-1l2,0l1,-1l1,1ZM423.5,499.5c0,0,0,1,0,1c-1,1,-2,1,-2,1c-1,0,-1,0,-2,0l-1,0c-1,0,-1,0,-1,0c-1,0,-1,-1,-1,-2l0,2l0,1c0,0,0,1,0,1c-1,1,-1,2,-2,2c-1,1,-1,1,-1,1c-1,0,-1,0,-2,0c0,0,-1,0,-1,0l-1,0c0,0,-1,0,-1,0c0,0,-1,0,-1,-1c0,0,-1,0,-1,-1l0,-1c0,0,0,-1,0,-2c0,0,0,-1,1,-1l0,-1l1,0l-1,1c0,0,0,1,0,1c0,0,0,1,0,1c0,1,0,1,1,2c0,0,1,0,1,0c1,1,1,1,1,1c1,0,2,-1,3,-1c1,0,2,-1,2,-1c0,0,0,-1,0,-1l0,-1l0,-2c0,0,0,-1,0,-2l0,-1l0,-7l0,-2l1,11l0,1l1,0c0,1,1,1,1,1l1,0c0,0,1,0,2,-1c1,0,1,0,2,0c0,-1,0,-1,0,-1l0,-1l-1,0c0,0,0,1,0,1c0,0,-1,0,-1,0l-1,0c0,-1,0,-1,0,-1c0,0,-1,0,-1,-1c0,0,1,-1,1,-1c0,-1,0,-1,0,-1c1,-1,1,-1,2,-1l1,0c0,0,0,1,0,1c0,0,0,1,0,1l1,0c0,1,0,1,0,1c0,1,0,1,0,2c0,0,0,1,0,1l-1,0ZM420.5,495.5c0,0,1,0,1,1l1,0c0,-1,0,-1,0,-1c-1,0,-1,0,-1,0l-1,0ZM420.5,482.5c0,0,0,-1,0,-1c1,0,1,0,1,0c0,0,1,0,1,0l0,1l0,1l0,1l0,1l-1,0l-1,0c0,1,-1,1,-1,1l-1,0l1,-1l1,0l0,-1c0,0,0,-1,0,-1c0,0,0,-1,0,-1ZM421.5,482.5c-1,0,-1,0,-1,0l0,1l1,0l0,-1ZM406.5,490.5l1,0c0,0,1,0,1,0c1,0,1,0,1,0c1,0,1,0,1,1c0,0,0,1,-1,1l0,1l-1,0c0,0,-1,0,-1,0l-1,0l2,-1c0,0,1,0,1,-1l-1,0c-1,0,-1,0,-2,0l0,1l0,-1l0,-1ZM164.5,485.5l0,-1c0,0,0,-1,0,-1c0,-1,0,-1,0,-2l0,-1c0,0,1,1,1,1c0,1,0,1,0,1l0,1c0,1,0,1,0,1c0,0,0,1,-1,1Z" class="g2_56" />
</svg>