<?xml version="1.0" encoding="UTF-8" standalone="no"?>
<!DOCTYPE svg PUBLIC "-//W3C//DTD SVG 1.1//EN"
"http://www.w3.org/Graphics/SVG/1.1/DTD/svg11.dtd">
<svg version="1.1" xmlns="http://www.w3.org/2000/svg" xmlns:xlink="http://www.w3.org/1999/xlink">
<defs>
<style type="text/css"><![CDATA[
.g1_73{
stroke: #1F1A17;
stroke-width: 1;
stroke-linecap: butt;
stroke-linejoin: miter;
}
]]></style>
</defs>
<path fill-rule="evenodd" d="M239.5,52.5l-1,1l1,0l0,1l1,0c0,0,0,-1,0,-1l0,-1l1,0l0,1c1,0,1,0,1,-1l0,-1l0,1l1,0l-1,1l0,1l-1,0l-1,0l0,1c0,0,-1,0,-1,0c0,0,-1,0,-1,0l0,-1l0,-1ZM62.5,64.5c0,1,0,2,0,2c0,0,0,1,-1,1l0,1l-1,0l2,1l-1,0l0,1l-1,0l-1,1c0,0,-1,0,-1,1l-1,0l-1,0l-1,0l0,1l-1,1l-1,0c0,0,0,1,0,1l-3,0l-3,0c0,-1,0,-1,-1,-1l-1,-1c0,0,0,-1,0,-1c-1,0,-2,0,-3,0l0,-1l-1,0l-1,-1l-1,-1l-1,0l1,-1l0,-1l-1,-1l0,-1l0,-1l0,-1c0,-1,0,-1,1,-2l0,-1l-1,0c0,-1,0,-1,0,-1l1,0l1,-1l1,0l0,-1l1,0l1,-1l2,0l0,-1l1,-1c0,0,1,0,1,0l0,-1l3,0l3,0l0,1l1,0l0,1l1,0l0,1l2,0l1,1c0,0,1,0,1,0l0,1l1,0c1,1,1,1,2,1l0,1l-1,0l0,1l1,0l0,1l0,1ZM53.5,74.5l1,-1l1,-1c1,0,1,0,2,0l1,-1l1,0l0,-1l1,0l0,-1l1,0l-1,-1l1,-1l0,-1l1,0l0,-1l0,-1c0,-1,0,-2,-1,-2l0,-1l0,-1l-1,0l1,-1c0,0,-1,0,-1,-1l-1,0l-1,-1l-1,0l-2,-1l-1,0l0,-1l-1,-1l-1,0l-2,0l-1,0l-2,0l-1,1l-1,1l-2,1l-1,0l-1,0l0,1l-1,0c0,1,-1,1,-1,1l1,1l-1,1l0,1l-1,1c0,0,0,1,0,1l0,1l0,1l1,0l0,1l0,1l1,0l-1,1l1,1l1,0l0,1l1,0l1,1l2,0l1,1l0,1c1,0,1,0,1,0l3,0ZM59.5,59.5l-1,0l0,1l0,-1l-1,0l-1,-1c-1,0,-1,0,-1,0l0,-1l1,0l0,1l1,0l1,0l0,1ZM59.5,69.5l-1,0l0,1l-1,0l0,1l-1,0l-1,0c0,-1,0,-1,0,-1c1,0,1,0,1,0l1,0c0,-1,1,-1,1,-1l1,0ZM54.5,71.5c0,0,0,1,0,1c0,0,-1,0,-1,0l-3,0l-3,0c0,0,-1,0,-1,0c0,-1,0,-1,0,-1c0,0,0,-1,0,-1l1,0l3,0l3,0l1,0l0,1ZM54.5,57.5c0,0,0,1,0,1c0,0,-1,0,-1,0l-3,0l-3,0c0,0,-1,0,-1,0l0,-1l0,-1l1,0l3,0l3,0c0,0,1,0,1,0c0,0,0,1,0,1ZM53.5,60.5l1,-1l1,0c0,0,1,0,1,1l1,0l0,1l1,-1c0,0,1,1,1,1l0,1l1,1l0,1l0,1l-1,1l0,1c0,0,0,1,-1,1l-1,-1c0,0,0,1,0,1l-1,0l0,1l-1,0l-1,0c0,0,-1,0,-1,-1l-3,0l-3,0l0,1l-1,0l-1,0c0,0,-1,0,-1,0c0,0,-1,-1,-1,-1l0,-1l-2,1l0,-1l-1,-1l0,-1l0,-1c0,0,0,-1,0,-1l0,-1l1,0l0,-1c0,0,0,-1,1,-1l1,1l0,-1l1,0c0,-1,1,-1,1,-1c1,0,1,0,1,0l1,1l3,0ZM53.5,68.5l1,1l1,0l1,0l0,-1l1,-1l1,0l1,0l0,-1l0,-1l0,-1c0,0,0,-1,0,-2l0,-1c0,0,-1,0,-1,0l-1,0l-1,-1l-1,0l0,-1c-1,0,-1,1,-1,1c-1,0,-1,0,-1,0l-3,0l-3,0l-1,0l-1,-1l0,1c-1,0,-1,0,-1,0l-1,0l0,1l-1,0c0,0,-1,0,-1,0l0,1l0,1l-1,1c0,1,0,1,0,1l1,0l0,1c0,1,0,1,1,1l1,0l0,1l1,0l0,1l1,0c1,0,1,0,1,0c0,-1,1,-1,1,-1l3,0l3,0ZM50.5,62.5l1,1l1,0l0,-1l0,1l0,1l0,1c0,0,1,0,1,1l-1,1c0,0,0,-1,0,-1l0,-1l0,-1l0,-1l-1,1c0,0,-1,-1,-1,-1l0,-1ZM49.5,63.5l0,1l1,1c0,1,-1,1,-1,1l0,1l-1,0l-1,-1l0,-1c0,0,0,-1,1,-1c0,-1,0,-1,1,-1ZM48.5,64.5l0,1l-1,0c0,1,1,1,1,1l1,0c0,0,0,-1,0,-1c0,-1,0,-1,-1,-1ZM41.5,59.5l1,0l0,-1l1,0l1,-1l1,0l0,1c-1,0,-1,0,-1,0c-1,0,-1,0,-1,1l-1,0l0,1l0,-1l-1,0ZM41.5,69.5l1,0l1,1l1,0l1,0c0,0,-1,0,-1,1l1,0l-1,0c-1,0,-2,-1,-2,-1l-1,-1ZM137.5,67.5l0,-1l0,-2l0,-8l1,-3l0,11c0,0,0,1,0,1l0,1l-1,1ZM130.5,65.5l1,0l1,0l0,-1l0,-2l0,-7c0,-1,0,-1,0,-1c0,-1,0,-1,1,-1c0,1,0,1,0,1l1,1l-1,1c0,1,0,1,0,2c0,0,0,1,0,3c0,0,0,1,0,1l0,1c0,0,0,1,0,1c0,1,0,1,0,1l0,1c-1,0,-1,0,-1,0c0,0,-1,0,-1,1c0,0,-1,0,-1,0l-1,0c-1,0,-1,-1,-2,-1c-1,0,-1,1,-1,1l-1,0l-1,0l-1,-1l-1,-1l-1,1c0,0,-1,1,-1,1l-1,0l-1,0l-2,0c-1,0,-2,-1,-2,-1c-1,0,-1,-1,-1,-1l0,-1c-1,0,-1,0,-1,0l-5,2c0,0,-1,0,-1,0c0,0,-1,1,-1,1l-1,0l-1,0l-1,-1c-1,0,-1,0,-1,-1l0,-1l0,1c0,0,-1,1,-1,1c0,0,-1,0,-1,0c-1,0,-1,0,-2,-1l0,1c-1,0,-1,1,-1,1l-1,0c-1,0,-1,-1,-1,-2c-1,0,-1,1,-1,1c-1,0,-1,1,-2,1l-1,0c-1,0,-1,0,-1,0c0,-1,-1,-1,-1,-1c0,0,0,-1,0,-1c0,0,-1,0,-1,0c0,1,-1,1,-1,1l-1,0c0,1,0,1,-1,1l-1,0l0,-1c-1,0,-1,0,-1,0l-1,0c0,-1,0,-1,0,-1l0,-1l0,-1l0,-1c-1,1,-1,2,-2,2l-1,0c0,1,0,1,0,1l0,1c0,1,0,2,0,2c0,1,-1,2,-1,2c-1,1,-1,1,-2,1c-1,0,-1,1,-2,1c-1,0,-1,-1,-2,-1c0,0,-1,0,-1,0c0,-1,-1,-1,-1,-2c0,0,0,-1,0,-1c0,-1,0,-1,0,-1l0,-1c0,-1,0,-1,0,-1c0,-1,1,-1,1,-1c0,0,0,1,0,1l0,1l-1,0c0,0,0,1,0,1c0,0,1,1,1,1c0,0,0,1,0,1c1,0,1,0,1,0c1,0,2,1,2,1c1,0,2,-1,2,-1c1,0,2,0,2,-1c0,-1,1,-1,1,-1l0,-1c-1,0,-1,0,-1,0l0,-1c0,-1,0,-1,0,-1c0,0,0,-1,-1,-1l1,-2c0,1,0,1,0,1c0,0,1,0,1,0l1,0l1,0l0,-1c1,0,1,0,1,-1c0,0,0,1,0,1l0,1l0,1c0,0,1,0,1,1l0,1l1,0l1,0c0,0,1,0,1,0c0,0,1,0,1,-1c1,0,1,0,1,0l1,0c0,0,0,1,1,1l1,0l1,0l1,0c1,-1,2,-1,2,-2l0,1c0,0,1,1,1,1c1,0,1,0,2,-1l1,-1c0,0,0,1,0,1c1,0,1,0,1,0c1,0,1,0,1,0l1,0c0,-1,0,-1,0,-1c1,1,1,2,2,2l1,0c1,0,1,0,1,0c1,0,1,0,2,0c0,0,1,-1,1,-1l1,0l1,0l0,-1l-1,0c-1,-1,-2,-1,-3,-1l-1,0c0,-1,0,-1,1,-1c0,-1,0,-1,1,-1l1,0c0,1,1,1,1,1c1,0,2,1,4,1c0,0,1,0,1,0c1,0,1,0,2,0l0,2l-1,0l-1,0l1,1l1,0l2,0l1,0l1,0l1,0l0,-1c0,0,1,0,1,-1c1,-1,2,-1,2,-1l1,0l0,1l1,0l1,1c0,1,1,1,1,1l1,0l1,0ZM130.5,49.5c0,-1,0,-1,1,-1c0,0,1,0,1,0c1,0,1,0,2,0c0,0,0,1,0,1c0,1,0,1,-1,1c0,0,0,1,0,1c-1,0,-1,0,-1,0c0,0,-1,0,-1,0c0,0,-1,0,-1,0l2,-1c0,0,1,0,1,0c0,-1,0,-1,0,-1c-1,0,-1,0,-1,0c-1,0,-1,0,-2,0c0,1,0,1,0,1c0,-1,0,-1,0,-1ZM126.5,65.5l-1,-1c0,0,0,-1,-1,-1l-1,1l1,1l1,0ZM123.5,51.5c0,-1,1,-1,1,-1l1,0c0,0,1,0,1,1l-1,0l0,1l0,1l1,0l0,1l-2,-1l0,1c-1,1,-1,1,-1,1l-1,0l-1,0l1,0l1,-1l0,-1l1,0l-1,0c0,-1,0,-1,0,-1c0,-1,0,-1,0,-1ZM124.5,51.5l0,1l1,0l0,-1ZM107.5,56.5c0,0,1,-1,1,-1c1,0,1,0,1,0c1,0,1,0,2,0c0,1,0,1,0,1c0,1,0,1,0,1c0,0,-1,1,-1,1l-1,0l-1,0l-1,0l2,0c1,-1,1,-1,2,-1c-1,0,-1,0,-1,-1c0,0,-1,0,-1,0c0,0,-1,0,-1,1c0,0,-1,0,-1,0c0,-1,0,-1,0,-1ZM100.5,70.5l-4,2c0,0,0,-1,0,-1l1,0l4,-2ZM87.5,62.5l-2,-1l1,-1l2,1ZM88.5,70.5l-4,2c0,-1,1,-1,1,-1l4,-2ZM83.5,70.5l-2,-1l0,1l-2,-1l1,-1l1,1l1,-2l2,1ZM73.5,62.5l-1,-1l1,-1l1,1ZM69.5,54.5l4,-3l0,1l0,1l-4,2ZM182.5,66.5l-1,0c0,0,-1,0,-1,0l-1,-1c0,1,-1,1,-1,1l0,1l-1,0l-1,0c0,1,0,1,0,1l0,1c0,0,0,1,-1,1l0,1c-1,0,-1,0,-1,0c-1,0,-1,1,-2,1l-1,0c-1,1,-2,1,-3,1c-1,0,-2,0,-3,0c0,1,-1,1,-2,1c-1,0,-1,0,-2,0c-1,0,-1,0,-2,0c0,0,-1,0,-2,-1c-1,0,-1,0,-2,0c-1,0,-2,0,-2,-1c-2,0,-3,-1,-4,-1c-1,-1,-2,-1,-2,-2c-1,0,-1,0,-1,-1c1,0,1,0,1,0c1,1,1,1,1,1c1,0,2,1,3,1c0,0,1,0,1,1c1,0,1,0,2,0c0,0,1,0,2,1c0,0,1,0,2,0c0,0,1,0,2,0c0,0,1,0,1,0c1,0,1,0,2,0c1,0,1,0,2,0c1,0,2,0,3,0c1,-1,2,-1,3,-1c0,0,1,-1,2,-1c1,0,1,-1,2,-1c0,0,0,-1,0,-1c0,-1,0,-1,0,-1l-1,-1l1,-2c0,1,1,1,1,1l1,0c1,0,1,0,1,0l1,-1l0,-1c1,0,1,-1,1,-1l1,0c0,-1,0,-1,0,-1c1,0,1,0,1,1c0,0,1,1,1,1l0,1l0,1c0,1,-1,1,-1,1ZM180.5,64.5l1,0l1,0c0,0,0,-1,0,-1c-1,0,-1,0,-1,0c0,0,-1,0,-1,0l0,1ZM178.5,52.5l0,1l1,0l0,-1l1,0l0,1c1,0,1,-1,1,-1l0,-1l0,1l0,1c0,0,0,1,0,1l-1,0l0,-1l-1,1l-1,0l0,-1l0,-1ZM181.5,70.5l-4,2c0,-1,0,-1,1,-1l4,-2ZM163.5,67.5l-1,-1l0,-1l2,1ZM154.5,57.5l1,0l2,-1l6,-2l4,-2l1,0l-1,2l-1,0l-1,0l-2,1l-5,2l-4,1l-1,0ZM223.5,57.5l-1,-1l-1,1l-2,-1l1,-1l2,1l0,-1l2,0ZM224.5,65.5c0,0,0,1,-1,1c0,0,-1,0,-1,0c-1,1,-1,1,-2,1l-1,0l0,-1l0,1c0,0,-1,0,-1,0l0,1c0,0,0,1,0,2c-1,0,-1,0,-1,1l-1,0c0,1,0,1,-1,1l-1,0l-1,0c0,0,-1,0,-2,0l0,-1l1,0c1,0,1,0,2,0l1,0c0,-1,0,-1,1,-1c0,0,0,-1,0,-1c0,0,1,0,1,-1c0,0,0,-1,1,-1c0,0,0,-1,0,-1l-1,0c0,0,0,-1,0,-1l0,-1l1,0l0,1c0,0,1,0,1,0l1,0c0,0,1,0,2,0c1,0,1,-1,2,-1l0,-1c0,0,0,-1,0,-1c-1,0,-1,1,-1,1c-1,0,-1,0,-1,0c0,0,-1,0,-1,0c-1,-1,-1,-1,-1,-1c0,-1,0,-1,0,-2c0,0,1,0,1,0c0,-1,0,-1,0,-1c1,-1,1,-1,1,-1c1,0,1,0,1,1c1,0,1,0,1,1l0,1c0,0,1,0,1,1c0,0,0,1,0,1c0,1,0,1,-1,1c0,0,0,1,0,1ZM221.5,61.5c0,0,1,0,1,0c1,0,1,0,1,0c0,-1,0,-1,0,-1c-1,0,-1,0,-1,0c-1,0,-1,0,-1,0l0,1ZM220.5,50.5l4,-2l0,1l-4,2ZM218.5,77.5l-5,2c1,-1,1,-1,1,-1l4,-2ZM211.5,70.5l-2,-1l0,1l-2,-1l1,-1l2,1l0,-2l2,1ZM208.5,67.5l-1,0c-1,0,-1,0,-1,0c0,-1,0,-1,-1,-1l0,-1c0,0,-1,1,-1,1l-1,0c0,0,-1,1,-2,1l-2,0c-1,0,-1,1,-1,1l-1,0l-1,0c-1,0,-3,0,-3,-1c-2,0,-2,0,-3,-1l-1,-1c0,-1,0,-1,0,-1l0,-1l0,-1c1,0,1,-1,1,-1c1,0,1,0,1,0c0,0,-1,1,-1,1c0,0,0,1,0,1c0,0,0,1,0,1c1,0,1,1,2,1c0,0,1,0,1,0c0,1,1,1,1,1c1,0,2,0,3,0c1,0,1,0,2,0c0,0,1,0,2,0l0,-1c1,0,1,0,1,0c1,0,1,0,2,-1c1,0,1,0,1,-1c0,0,1,1,1,1l-1,0l1,1l1,0l1,0c0,0,1,0,1,0c1,0,1,-1,2,-1c0,0,0,-1,-1,-1c0,0,0,-1,0,-1l1,-2c0,0,0,1,0,1l0,1l0,1c0,1,0,1,0,1c0,1,0,1,0,1l0,1c-1,0,-1,0,-2,0c0,1,-1,1,-1,1ZM197.5,71.5l-1,-1l1,-1l1,1ZM249.5,67.5l0,-1l0,-2l-1,-8l1,-3l1,11c0,0,0,1,0,1l0,1c-1,0,-1,0,-1,1ZM245.5,66.5c0,0,-1,0,-1,0c-1,0,-1,0,-1,0c-1,-1,-1,-1,-1,-2c0,1,-1,1,-1,2c-1,0,-1,1,-2,1c0,0,-1,-1,-1,-1c-1,0,-1,-1,-1,-2c0,1,-1,1,-1,1c-1,0,-1,0,-2,0c0,0,-1,0,-1,0c0,0,-1,0,-1,0l0,-1l1,-1l1,-1l1,-1l1,0l1,0l-1,-1l1,-1l0,-1l0,1l0,1l1,3c0,0,0,1,0,1c0,1,1,1,1,1c1,0,1,0,1,-1c1,0,1,0,1,-1c0,0,0,-1,0,-2c0,-1,0,-1,0,-2c0,0,0,-1,0,-1l0,-1l0,-1l1,3l0,2l0,1c0,1,0,1,0,1l1,0c0,1,0,1,1,1l1,0l0,-1l0,-1l0,-1l-1,-1l0,-1l0,-1l0,-1l1,0l0,1c0,0,0,1,0,1l1,2c0,1,0,1,0,2c0,0,0,1,0,2c-1,0,-1,0,-1,1ZM237.5,62.5l-1,0l-1,0l0,1c-1,0,-1,0,-1,0c1,0,1,0,2,0l1,0ZM237.5,70.5l-4,2c0,-1,0,-1,0,-1l4,-2ZM288.5,70.5c0,0,1,0,1,0l1,0c0,0,1,0,2,-1c1,0,1,-1,2,-1c0,0,0,-1,1,-1c0,-1,0,-1,0,-1c0,-1,0,-1,0,-1c0,-1,0,-1,0,-1l0,-1l-1,0l1,-2l0,1c0,0,1,0,1,1l0,1l0,1c0,0,0,1,0,1c0,0,0,1,0,1l-1,1c0,0,0,1,0,1c0,0,-1,0,-1,1l-1,0l0,1c-1,0,-1,0,-1,0c-1,0,-1,0,-1,0l-1,0c0,0,-1,0,-1,-1l-1,0ZM291.5,57.5l4,-2c0,1,-1,1,-1,1l-4,2ZM278.5,61.5c0,0,1,0,1,0l1,0l1,0l1,0l1,0l1,0l-2,-1l-1,-1c-1,0,-1,0,-2,0l-1,0c1,0,1,-1,1,-1c1,0,1,-1,2,-1c1,0,1,1,2,1l2,2c0,0,1,0,1,0l1,1l1,0l1,0l1,0l-1,2l-1,0l-2,-1l-1,0l-2,0c-1,0,-1,0,-2,0c0,0,-1,0,-1,0c0,0,0,1,0,1l0,1l0,1c0,1,0,1,0,1c-1,0,-1,0,-1,0l-1,0l-1,0l-1,-1c0,1,0,1,0,1l-1,1l-1,0c-1,0,-1,0,-1,0c0,-1,-1,-1,-1,-1l0,-1c0,0,-1,1,-1,1l-1,0c0,0,-1,1,-2,1l-2,0c-1,0,-1,1,-1,1l-1,0l-1,0c-1,0,-3,0,-4,-1c-1,0,-1,0,-2,-1c0,0,-1,0,-1,-1c0,-1,0,-1,0,-1l0,-1l0,-1c1,0,1,-1,1,-1l1,0c-1,0,-1,1,-1,1c0,0,0,1,0,1c0,0,0,1,0,1c1,0,1,1,2,1c0,0,1,0,1,0c0,1,0,1,1,1c1,0,2,0,3,0c1,0,1,0,2,0c0,0,1,0,1,0l1,-1c0,0,1,0,1,0c1,0,1,0,2,-1c1,0,1,0,1,-1c0,0,0,1,0,1l1,1l1,0l1,0c0,0,1,0,1,0l0,-1l1,-1c0,0,0,-1,1,-1c0,0,0,-1,0,-1ZM77.5,49.5c0,0,1,0,1,0c0,0,1,0,1,0c1,0,1,0,2,0c0,0,0,1,0,1l0,1c-1,0,-1,0,-1,0c0,0,-1,0,-1,0c0,1,0,1,-1,1c0,0,-1,0,-1,-1l2,0c1,0,1,-1,1,-1c-1,0,-1,0,-1,0c-1,0,-1,0,-1,0c-1,0,-1,0,-1,0c0,-1,0,-1,0,-1ZM207.5,53.5c1,-1,1,-1,1,-1c1,0,1,0,2,0c0,0,1,0,1,0c0,0,1,1,1,1c-1,1,-1,1,-1,1c0,0,0,1,-1,1c-1,0,-1,0,-1,0l-1,0l1,-1c1,0,1,0,2,0c0,-1,-1,-1,-1,-1l-1,0c0,0,-1,0,-1,0c0,1,0,1,-1,1c0,-1,0,-1,0,-1ZM279.5,52.5l1,0l1,0c0,0,1,0,1,0c1,0,1,0,1,0c0,1,0,1,0,1l-1,1c0,0,-1,0,-1,0l0,1c-1,0,-1,0,-1,0l-1,0l2,-1c0,0,1,0,1,-1l-1,0c-1,0,-1,0,-2,0l-1,0l1,0c0,-1,0,-1,0,-1ZM278.5,64.5l1,0c0,0,0,-1,0,-1l-1,0l0,1ZM275.5,57.5l4,-2c0,1,0,1,0,1l-4,2ZM266.5,61.5l-2,-1l-1,2l-1,-1l1,-2l1,1l1,-1l1,1ZM263.5,54.5l5,-3l-1,1l0,1l-4,2ZM317.5,67.5l0,-1l0,-2l0,-8l0,-3l1,11c0,0,0,1,0,1l0,1c0,0,-1,0,-1,1ZM320.5,69.5l-4,2c0,-1,0,-1,0,-1l4,-2ZM308.5,60.5l-1,0l1,-2l1,1ZM308.5,70.5c0,0,-1,0,-1,0c-1,-1,-1,-1,-2,-1c0,0,0,-1,-1,-1c0,-1,0,-1,0,-2c0,0,0,-1,0,-1l0,-1c0,0,0,-1,1,-1c0,-1,0,-1,0,-1l1,0c0,1,-1,1,-1,1c0,0,0,1,0,1c0,1,0,1,0,1c0,1,0,1,0,1c0,1,1,1,1,1c1,0,1,1,1,1c0,0,1,0,2,0c0,0,1,0,2,-1c0,0,1,0,1,-1c1,0,1,0,1,0c0,0,0,-1,0,-1c0,0,0,-1,0,-1c0,-1,0,-1,-1,-1c0,0,0,-1,0,-1l0,-1l-1,0l1,-2l1,1c0,0,0,1,0,1l0,1c0,0,1,0,1,0c0,1,0,1,0,1c0,0,0,1,0,1l0,1c0,0,0,1,-1,2c0,0,0,1,-1,1c0,1,-1,1,-2,1c0,1,-1,1,-2,1ZM372.5,52.5l0,1l1,0c0,0,0,-1,0,-1l0,-1l1,0l0,1c1,0,1,0,1,-1l0,-1l0,1l0,1l0,1l-1,0l-1,0l0,1l-1,0l0,-1l0,-1ZM376.5,49.5l-5,3c0,-1,0,-2,0,-2l6,-2ZM305.5,52.5l0,1c0,0,1,0,1,0l0,-1l1,0l0,1c1,0,1,-1,1,-1l0,-1l0,1l0,1c0,0,0,1,0,1l-1,0l0,-1l0,1l-1,0c-1,0,-1,0,-1,0l0,-1l0,-1ZM309.5,49.5l-5,3c0,-1,0,-1,0,-1l6,-3ZM373.5,63.5c-1,0,-1,0,-1,0c0,1,1,1,1,1c1,0,1,-1,1,-1l-1,0ZM373.5,70.5c0,1,0,1,-1,1c-1,0,-1,0,-2,0c-1,0,-1,0,-2,0l-1,0c0,0,0,-1,0,-1c1,0,1,0,1,0c0,1,1,1,1,1l1,0c0,-1,0,-1,0,-1c0,0,1,0,1,0c1,-1,1,-1,2,-1c0,0,0,-1,0,-1c0,0,1,0,1,-1c0,-1,0,-1,0,-1c0,-1,0,-1,0,-1c0,1,0,1,0,1c-1,0,-1,0,-1,0l-1,0c0,-1,0,-1,0,-1c0,0,-1,0,-1,0c0,0,0,-1,0,-1l0,-1c1,0,1,-1,1,-1c0,-1,0,-1,1,-1c1,0,1,0,1,0l1,1c0,1,0,1,0,2l0,1c0,1,0,1,0,1c0,1,0,2,-1,2c0,1,0,1,0,1c0,1,-1,1,-1,1ZM357.5,67.5l-1,0c0,0,-1,-1,-2,-1c0,0,-1,1,-1,1c-1,0,-1,0,-2,0l-1,-1l-1,-1l-1,1c0,0,-1,1,-1,1l-1,0l-1,0c0,0,-1,0,-1,-1c0,0,-1,0,-1,0l-1,-1c0,0,-1,0,-1,0l0,1c-1,0,-1,0,-1,0c0,0,-1,0,-1,0l-1,1l-1,0l-1,0c-1,0,-1,-1,-2,-1c0,0,-1,-1,-1,-2l0,-8l1,-3l0,10l0,1l1,0c0,1,0,1,1,1l1,0l1,0c1,0,1,0,1,0c1,0,1,0,1,0l0,-1c0,0,1,0,1,0l-1,0l0,-1c0,0,-1,0,-1,0l-1,0l1,-2c1,0,1,0,1,0c1,0,1,0,2,0c0,0,1,0,1,0l1,0c0,1,0,1,0,1c0,0,0,1,0,1c0,0,-1,0,-1,1c0,1,0,1,1,1l1,0l1,0l1,0c0,0,1,0,1,0l1,-1l0,-1c1,-1,2,-1,3,-1l1,1l1,1c1,1,1,1,1,1l1,0l1,0l1,0c0,0,1,0,1,0c0,-1,0,-1,0,-2l1,-1l-1,-1l0,-1l0,-1l0,-2l0,-2c0,-1,0,-1,0,-1l0,-1l1,2c0,0,0,1,0,2l0,1l0,1l0,1l0,2l0,1l0,1l1,-2l1,0l1,-1c1,0,1,0,1,0l1,0c1,0,1,0,2,0c0,0,0,1,1,1l0,1c-1,1,-1,1,-1,1c0,1,-1,1,-1,1l-1,1c-1,0,-1,0,-2,0c-1,1,-2,1,-2,1ZM364.5,62.5c0,1,-1,1,-1,1l-1,1l-1,0l-1,1l1,0c0,0,1,0,1,0c1,0,1,0,1,0l1,0c1,-1,2,-1,3,-1c0,-1,-1,-1,-1,-1l-1,0c0,-1,0,-1,0,-1l-1,0ZM358.5,50.5l4,-2l0,1l-4,2ZM353.5,65.5l-1,-1c0,0,0,-1,0,-1c0,0,-1,0,-1,0l-1,1c0,0,1,0,1,1l1,0ZM349.5,54.5l4,-3l0,1l0,1l-4,2ZM342.5,54.5l-5,2l0,-1l5,-3c0,1,0,1,0,1c0,1,0,1,0,1ZM337.5,54.5l0,-1l5,-3c0,1,0,2,0,2ZM407.5,58.5l-2,-1l1,-1l2,1ZM415.5,64.5l-2,0c0,0,-1,0,-1,0l-1,0c0,0,-1,0,-1,0l0,1l-1,0l-1,0c0,0,-1,1,-1,1c0,0,-1,0,-1,0c-1,0,-2,1,-2,1l-1,0l-1,0c0,0,-1,0,-1,1l0,1c0,0,-1,1,-1,1c0,0,0,1,-1,1c-1,1,-1,1,-1,1c0,0,-1,0,-1,0l-1,0c-1,0,-1,0,-2,0c0,0,0,-1,-1,-1c0,0,1,0,1,0c1,0,1,0,1,0c0,0,1,0,1,0c1,0,1,0,2,-1l1,0c0,-1,0,-1,0,-1c1,0,1,-1,1,-1l0,-1c1,0,1,0,1,0c0,0,-1,0,-1,0l-1,0l0,-1l-1,0l0,-1c0,-1,0,-1,0,-1l0,-1l1,0c0,-1,0,-1,0,-1c0,0,1,0,1,0c1,0,1,0,1,1c0,0,0,1,0,1c1,0,1,1,1,1c0,0,1,0,1,0c0,0,1,0,1,0c1,0,2,0,2,0c1,-1,1,-1,1,-1l2,0l1,-1l-1,0l-1,0l-1,-1l-1,0l-1,0l-1,0c0,0,1,-1,1,-1l1,0c0,-1,0,-1,1,-1l0,1c1,0,1,0,1,0l2,1l1,0c1,0,1,0,1,0c1,0,1,0,1,0c1,1,1,1,2,1l1,0ZM406.5,54.5l5,-3l-1,1l0,1l-4,2ZM399.5,64.5l0,1c1,0,1,0,1,0c0,0,1,0,1,0c0,0,-1,0,-1,-1l-1,0ZM395.5,56.5c0,0,1,-1,1,-1c0,0,1,0,1,0c1,0,1,0,2,0c0,1,0,1,0,1c0,1,0,1,0,1c-1,1,-1,1,-1,1c0,0,-1,0,-1,0l-1,0l-1,0l2,0c1,-1,1,-1,2,-1c-1,0,-1,0,-1,0c-1,-1,-1,-1,-1,-1c-1,0,-1,1,-1,1c-1,0,-1,0,-1,0c0,-1,0,-1,0,-1ZM391.5,57.5l-2,-1l1,-1l2,0ZM393.5,65.5c0,0,-1,1,-1,1c0,0,-1,0,-2,0c0,1,-1,1,-1,1l-1,0l-1,0c-1,0,-2,-1,-2,-1c-1,0,-1,-1,-1,-2l0,-8l0,-3l1,10l0,1c1,1,1,1,2,1l1,0l1,0c0,0,1,0,2,0c0,0,1,-1,1,-1c0,0,1,0,1,0c0,0,0,-1,0,-1c0,0,-1,-1,-1,-1c0,0,0,1,0,1c-1,0,-1,0,-1,0c-1,0,-1,0,-1,0c-1,0,-1,0,-1,-1c0,-1,0,-1,0,-2l1,0c0,-1,0,-1,0,-1c0,-1,1,-1,1,-1c0,0,1,0,1,1c0,0,1,0,1,1l0,1l0,1c0,0,0,1,0,1c0,1,0,1,0,1c0,0,0,1,0,1ZM390.5,60.5l0,1l1,0c0,0,1,0,1,0l-1,-1c0,0,-1,0,-1,0ZM387.5,49.5l5,-2c-1,1,-1,1,-1,1l-5,2ZM388.5,46.5l5,-2c0,0,0,1,0,1l-5,2ZM329.5,58.5l-1,0c0,-1,0,-1,0,-1c-1,0,-2,1,-2,1c-1,0,-1,1,-1,1l0,-1c0,-1,0,-1,0,-1l0,-1l0,-1l0,-1l0,-1l-1,0l0,1c0,0,0,1,0,1l0,2l0,1l1,1c0,0,-1,0,-1,1l-1,0c-1,0,-1,0,-1,0l0,1c1,0,1,0,1,0l1,0l1,0c1,0,1,0,2,-1c0,0,1,0,1,0l0,-1c1,0,1,0,1,0ZM327.5,58.5c1,0,1,0,1,1c0,0,-1,0,-2,1l-1,0l0,-1c0,0,1,0,1,0l0,-1l1,0ZM199.5,52.5c-1,0,-1,0,-1,0l0,1c-1,0,-1,0,-1,0l0,1l1,0c0,1,0,1,0,1l-1,0l0,-1l0,-1l0,-1c0,0,1,0,1,-1l1,0l1,-1ZM199.5,53.5l0,-1c1,0,1,0,1,0c1,0,1,1,1,1l0,1l-1,0l0,1l1,0l0,1l-1,0l-1,0c0,1,-1,1,-1,1l-1,0l1,-1l1,0l0,-1c0,0,0,-1,0,-1c0,0,0,-1,0,-1ZM200.5,53.5l-1,0c0,0,0,1,0,1l1,0ZM240.5,50.5c0,-1,0,-1,0,-2c-1,0,-1,-1,-1,-1l0,-1l1,0l0,1l0,1c0,1,0,1,0,1l0,1Z" class="g1_73" />
<path fill-rule="evenodd" d="M111.5,484.5l1,0l1,0c0,0,1,0,1,0c1,0,1,0,1,0c0,1,0,1,0,1c0,0,-1,0,-1,1c-1,0,-1,0,-1,0c-1,1,-1,1,-1,1l-1,0l0,-1l1,0c1,0,2,-1,2,-1c0,0,-1,0,-1,0l-1,0l-1,0l-1,0c0,-1,0,-1,1,-1ZM188.5,450.5c-1,0,-1,0,-2,0c0,0,0,1,0,1l0,-1c0,0,0,-1,0,-1l-1,-1l1,-1l-1,0l0,-1c0,1,0,1,0,1c0,0,0,1,0,1l0,1l0,1l0,1l-1,1l-1,0c0,0,1,0,1,0l1,0l1,0c0,0,1,0,1,0c0,0,1,0,1,-1ZM187.5,450.5c1,0,1,1,1,1c0,0,-1,0,-1,0l-1,0l0,1c0,0,0,-1,0,-1l1,0l0,-1ZM279.5,439.5c0,1,0,2,-1,2l1,0l0,-1c0,0,-1,-1,-1,-1l0,-1l0,-1l0,-1l0,1l1,0l0,1l0,1ZM75.5,457.5c0,0,-1,0,-2,0c0,-1,0,-1,-1,-1c0,0,-1,0,-1,0c0,1,0,1,-1,1c-1,0,-1,0,-1,0c-1,0,-1,0,-1,0l-1,0l-2,0c0,1,0,1,0,2l0,1c0,0,-1,1,-1,1c0,0,0,1,-1,1l-1,0c0,1,0,1,0,1c-1,0,-1,0,-1,0c0,0,-1,0,-1,0c-1,0,-1,0,-2,-1l-1,0c1,0,1,0,1,0c0,0,1,0,1,0c0,0,1,0,1,0c1,0,1,-1,2,-1c1,-1,1,-1,1,-1c0,0,1,-1,1,-1c0,0,0,-1,0,-1l0,-1c0,1,0,1,0,1c0,0,0,-1,-1,-1l-1,0l0,-1l0,-1l0,-1l0,-1c1,0,1,0,1,0c0,0,1,0,1,0c1,0,1,0,1,0c0,1,0,1,0,1c0,0,0,1,0,1c0,0,1,0,1,1l1,0l1,0l1,0c1,-1,1,-1,1,-1l0,-1c0,-1,0,-1,0,-1c0,-1,0,-1,0,-1l1,0c0,0,0,-1,0,-1c0,0,0,-1,0,-1c0,-1,1,-1,1,-1c0,0,1,1,2,2c0,0,1,0,1,1c0,0,1,1,1,1c0,1,0,1,0,1c0,0,0,1,0,1l0,1c0,0,0,1,0,1l-1,0ZM72.5,452.5c0,0,-1,0,-1,1c0,0,-1,0,-1,1c0,0,1,0,1,0c1,0,1,0,1,0c0,0,0,-1,0,-1c0,0,0,-1,0,-1ZM73.5,453.5c0,1,0,1,0,1c0,0,0,1,0,1l2,0c0,-1,0,-1,0,-1c-1,0,-1,-1,-1,-1l-1,0ZM68.5,438.5c1,0,1,0,1,-1l1,0c0,0,1,1,1,1c0,0,0,1,-1,1c0,1,0,1,0,1l1,0l0,1l-2,0l0,1c-1,0,-1,0,-1,0l-1,1l-1,0l1,-1l1,0c0,0,0,-1,0,-1l1,0l0,-1l-1,0l0,-1l0,-1ZM70.5,439.5l-1,-1c0,1,0,1,0,1l1,0ZM63.5,455.5c0,1,0,1,0,1c0,0,1,0,1,0c0,0,0,-1,0,-1c0,0,-1,0,-1,0ZM60.5,448.5l4,-2c0,1,-1,1,-1,1l-4,2ZM99.5,458.5l0,-2l1,-1l-1,-8l1,-3l0,11l0,1c0,1,0,1,-1,2ZM102.5,461.5l-4,2c0,-1,1,-1,1,-1l3,-2ZM93.5,456.5c0,1,0,1,0,1c-1,0,-1,0,-1,0c0,0,1,0,1,0l1,0c0,0,0,-1,0,-1ZM94.5,459.5l-1,0c0,0,-1,0,-1,0c0,0,-1,0,-1,0c-1,0,-1,0,-1,0l-1,0c0,0,0,-1,0,-1c0,0,0,-1,0,-1c1,0,1,0,1,0l1,0c0,0,1,-1,1,-1c1,-1,1,-1,1,-1c0,0,-1,-1,-1,-1l0,-1c-1,0,-1,-1,-2,-1c0,-1,-1,-1,-1,-2c-1,0,-1,0,-1,0c0,-1,0,-1,-1,-1c-1,0,-1,0,-1,0c0,0,-1,-1,-1,-1c0,0,0,-1,0,-1c0,-1,0,-1,0,-1l0,-1l1,0c0,1,1,1,1,1c0,1,1,1,1,2c1,0,2,1,2,2c1,0,1,1,2,2c0,0,1,1,1,1c0,0,0,1,0,1c1,0,1,-1,1,-1c0,-1,0,-2,0,-2c0,-1,0,-2,0,-2c0,0,0,-1,0,-1c0,-1,0,-1,0,-2l0,-1l0,-1l1,0c0,0,0,1,0,1c0,0,1,0,1,0c0,1,0,1,0,1c0,1,0,1,-1,1l0,1l0,1c0,1,0,1,0,1c0,1,0,1,0,2c0,0,0,1,-1,1c0,1,0,1,0,2c0,0,0,1,0,1c1,1,1,1,1,1c0,0,0,1,0,1c0,0,-1,0,-1,1ZM91.5,442.5c0,1,0,1,0,1l1,-1l0,-1l1,1l1,-1l0,-1l0,1l0,1c0,1,0,1,-1,1l-1,0c0,1,-1,1,-1,1l-1,-1l0,-1l1,0ZM95.5,439.5l-6,3c1,-1,1,-2,1,-2l5,-3ZM134.5,456.5l-1,1c-1,0,-2,0,-2,1l-1,0l-1,0l-1,0c0,-1,0,-1,0,-1c0,-1,0,-1,0,-1c0,-1,0,-1,0,-1c0,0,0,1,0,1l1,0c0,0,1,0,2,0c0,-1,0,-1,1,-1l1,0c0,-1,0,-1,0,-1c0,-1,0,-1,-1,-2l-1,-1l-1,0l0,-2c0,0,1,0,1,0l0,1c0,0,1,0,1,0c0,0,1,0,1,1l0,1c1,0,1,1,1,1c0,0,0,1,0,1c0,1,0,1,0,1c0,1,0,1,0,1ZM130.5,444.5l4,-2l0,1l-4,2ZM124.5,458.5l0,-2l0,-1l-1,-8l1,-3l1,11l0,1c-1,0,-1,0,-1,0c0,1,0,1,0,2ZM122.5,438.5c1,0,1,0,2,1c1,0,1,0,1,0l1,0l1,-1l0,1c0,0,-1,0,-1,0l0,1l-1,0l-1,0l-1,0l0,-1l-1,0c-1,0,-1,0,-1,1l0,-1l1,-1ZM119.5,461.5l-1,-1l0,-1l2,1ZM117.5,457.5l-1,0l-1,0c0,0,-1,0,-1,0c0,0,-1,0,-1,0c0,0,0,-1,0,-1c0,-1,0,-1,0,-1l-1,0l0,1c0,0,-1,0,-1,0l-1,0c0,0,-1,0,-1,0l-1,0l0,-2c0,0,1,-1,1,-1c1,0,1,-1,2,-1c1,-1,1,-1,1,-1l0,-1l0,-1l1,1c0,1,0,1,0,1c0,1,0,1,0,1l0,3c0,0,1,0,1,0l0,1l1,0l1,0l1,0c0,0,1,0,1,0c1,-1,1,-1,1,-1c0,-1,0,-1,0,-1l0,-1l-1,0l1,-2c0,0,0,1,0,1l1,0l0,1l0,1l0,1c0,1,0,1,0,1c0,0,-1,0,-1,0c0,1,0,1,-1,1c0,0,-1,0,-1,0ZM116.5,445.5l0,1c0,0,1,0,1,0l1,-1l0,1l1,0l0,-1l0,-1l0,1l0,1c0,1,0,1,0,1l-1,0l-1,0c0,1,0,1,0,1c-1,0,-1,0,-1,-1l0,-1l0,-1ZM120.5,443.5l-5,2c0,-1,1,-1,1,-1l5,-3ZM112.5,448.5l-2,-1l-1,2l-1,-1l1,-2l1,1l1,-1l2,1ZM112.5,452.5l-1,1l-1,0c0,0,0,1,0,1l1,0c0,0,1,0,1,0l0,-1ZM114.5,462.5l-5,2l0,-1l5,-3c0,1,0,1,0,2ZM109.5,462.5l0,-1l5,-3c0,1,0,1,0,2ZM158.5,457.5l-1,0c-1,0,-1,0,-1,-1l-1,0c-1,1,-1,1,-1,1l-1,0l-1,0l-1,0c0,1,0,1,0,1c0,1,0,1,0,1c0,1,-1,2,-1,2c0,1,0,1,-1,2c-1,0,-1,1,-2,1c-1,0,-2,0,-2,0c-1,0,-1,0,-2,0c-1,0,-1,0,-2,0c0,-1,0,-1,-1,-2c0,0,0,-1,0,-1c0,-1,0,-1,0,-1l0,-1l0,-1c1,0,1,0,1,0c0,-1,0,-1,0,-1l1,0l-1,1l0,1c0,0,0,1,0,1c0,0,0,1,0,1c0,0,1,0,1,1c1,0,1,0,1,0c0,0,1,1,2,1c1,0,2,-1,2,-1c1,0,2,0,2,-1c0,0,1,0,1,0c0,-1,0,-1,0,-1c0,-1,0,-1,0,-1c0,-1,0,-1,-1,-1c0,0,0,-1,0,-1l0,-1l0,-1c1,0,1,0,1,0c0,1,1,1,1,1l1,0l1,0c1,0,1,0,1,0l0,-1l1,-1c0,0,1,-1,1,-1l0,-1c1,0,1,0,1,0c0,0,1,0,1,1c0,0,0,1,1,1l0,1c0,1,0,1,0,1c-1,0,-1,1,-1,1ZM156.5,455.5l1,0l1,0l-1,0c0,-1,0,-1,0,-1c-1,0,-1,0,-1,0c0,1,0,1,0,1ZM157.5,461.5l-4,2c0,-1,0,-1,0,-1l4,-2ZM145.5,455.5l-1,-1l1,-1l1,1ZM178.5,457.5l-1,0c0,0,-1,0,-1,-1l-1,0c0,1,0,1,-1,1l-1,0l-2,0c0,0,-1,0,-2,0c0,-1,0,-1,0,-2l-1,-9l1,-2l1,10l0,1c0,1,1,1,1,1l2,0l1,0l1,-1l1,-1c0,0,0,-1,0,-1l1,-1l1,0l0,1c1,0,1,1,1,1l0,1c0,1,0,1,0,1c0,0,0,1,-1,1ZM176.5,455.5l1,0l1,0c0,-1,0,-1,0,-1c0,0,-1,0,-1,0l-1,0c0,1,0,1,0,1ZM179.5,440.5l-6,3c0,-1,0,-1,1,-1l5,-3ZM233.5,454.5c0,0,0,1,0,1c0,0,1,0,1,0c0,-1,0,-1,0,-1l-1,0ZM233.5,461.5c0,0,0,1,0,1c0,0,-1,0,-1,0c0,0,-1,0,-2,0c0,0,-1,0,-2,0l0,-1l1,0c0,0,1,0,1,0l1,0c0,0,1,0,1,0c0,-1,1,-1,1,-1c0,-1,0,-1,1,-1c0,0,0,-1,0,-1c1,-1,1,-1,1,-2c-1,0,-1,0,-1,0c0,1,0,1,0,1c0,0,-1,0,-1,0l-1,-1c0,-1,0,-1,0,-1c0,0,0,-1,0,-1c0,-1,0,-1,0,-1c1,-1,1,-1,1,-1c0,0,0,-1,1,-1c0,0,0,1,0,1c1,0,1,0,1,1c0,1,0,1,1,1c0,1,0,1,0,2c0,0,0,1,0,1c-1,1,-1,1,-1,2c0,1,-1,1,-1,1c0,1,0,1,-1,1ZM230.5,448.5l5,-2l-1,0c0,1,0,1,0,1l-4,2ZM220.5,461.5l0,-1c0,1,1,1,1,1l1,0c1,0,1,0,2,-1c1,0,1,-1,2,-1c0,-1,1,-1,1,-2c0,-1,0,-1,0,-1l0,-1l0,-1l-1,0l0,-1l1,-1c1,1,1,1,1,2l0,1l0,1c0,0,0,1,0,1l0,1l-1,1l0,1c0,0,-1,0,-1,1l-1,0c-1,0,-1,1,-1,1c0,0,-1,0,-1,0l-1,0l0,-1l-1,0l-1,0ZM223.5,448.5l4,-2c0,1,0,1,0,1l-5,2ZM219.5,461.5l-1,-1l1,-1l1,1ZM217.5,457.5l-1,0l-1,0c0,0,-1,0,-1,0c0,0,-1,0,-1,-1l-2,-2c-1,0,-1,0,-2,-1l0,1l0,1c0,1,-1,1,-1,2c-1,0,-1,0,-1,0c-1,0,-1,0,-2,0l-1,0c0,0,-1,0,-1,0c0,0,-1,0,-1,0c0,0,0,1,-1,1c0,0,-1,0,-1,0c-1,-1,-2,-1,-2,-1l0,1c-1,1,-1,1,-2,1c0,1,-1,1,-2,1c-1,0,-2,0,-3,0l4,-2l1,0c1,-1,1,-1,2,-1l0,-2c1,-1,1,-1,1,-1c0,0,1,-1,1,-1l1,0c0,0,0,1,1,1c0,1,1,1,1,1c0,1,0,1,1,1l1,0l1,0l1,0c1,-1,1,-1,1,-1l0,-1c0,0,0,-1,0,-1c0,-1,-1,-1,-1,-1c0,0,-1,-1,-1,-1c0,0,-1,0,-1,0l-1,0c0,0,0,-1,0,-1c0,-1,-1,-1,-1,-1l1,-1c0,-1,0,-1,0,-1l1,0c0,-1,1,-1,3,-2c1,0,2,-1,4,-1c1,-1,2,-1,3,-1l1,0l-1,1l-1,0c0,0,-1,1,-3,1c-1,1,-2,1,-4,2c-1,0,-2,1,-2,1c0,0,-1,0,-1,0c0,0,0,1,0,1l1,0c1,0,1,0,1,1c0,0,1,0,1,0l1,0c0,1,1,1,2,2c0,0,1,0,1,1c1,0,1,1,2,1l2,2l1,0l1,0c0,0,1,0,1,0c1,-1,1,-1,1,-1c0,-1,0,-1,0,-1l0,-1l0,-2c0,0,1,1,1,1l0,1l0,1l0,1c0,1,0,1,0,1c-1,1,-1,1,-2,1c0,0,-1,0,-1,0ZM215.5,446.5l0,1l1,0l0,-1l0,-1l0,1l1,0c0,1,0,1,0,1c0,0,1,-1,1,-1l0,-1l0,1l0,1c0,0,0,1,-1,1l-1,-1l0,1c0,0,-1,0,-1,0l-1,0l0,-1l1,0l0,-1ZM218.5,464.5l-3,2c0,-1,0,-1,0,-2l4,-1ZM208.5,438.5l0,-1c1,0,1,0,1,0c1,0,1,0,1,0c0,0,0,1,0,1c0,0,0,1,0,1c0,1,0,1,0,1l0,1l-1,0l-1,1l-1,0l0,1l-1,0l0,-1l1,0c0,0,0,-1,1,-1l0,-1l0,-1l0,-1ZM209.5,439.5l0,-1c0,0,-1,0,-1,0c0,1,0,1,1,1ZM201.5,456.5l0,-1c-1,0,-1,0,-1,0c-1,0,-1,0,-1,0c0,0,0,1,1,1ZM255.5,461.5l0,-1c1,1,1,1,1,1l1,0c1,0,2,0,3,-1c0,0,0,-1,1,-1c0,-1,1,-1,1,-2c1,-1,1,-1,1,-1l0,-1c-1,0,-1,0,-1,0l0,-1c-1,0,-1,0,-1,-1l1,-1l1,0c0,1,0,1,0,2l0,1l0,1c0,0,0,1,0,1l0,1l0,1c-1,0,-1,0,-1,1l-1,1l-1,0c0,0,-1,1,-1,1c0,0,-1,0,-1,0l-1,0l0,-1c-1,0,-1,0,-1,0l-1,0ZM258.5,448.5l4,-2c0,1,0,1,0,1l-4,2ZM257.5,460.5l-1,-1l1,-2l1,1ZM251.5,458.5c0,0,0,-1,0,-1c1,0,1,0,1,0c0,0,1,0,1,0c0,0,1,-1,1,-1c0,0,0,-1,0,-1c0,-1,-1,-1,-1,-1c0,0,0,-1,0,-1l1,0l0,-1c0,1,0,1,0,1c1,1,1,1,1,2c0,1,0,1,0,1c0,1,-1,1,-1,1c0,0,0,1,0,1c1,0,1,0,1,0c0,0,0,1,0,1c0,1,0,1,0,1l-1,1c0,0,0,1,-1,1c-1,0,-1,1,-2,1c-1,0,-2,0,-3,0c-1,0,-1,0,-2,0c-1,0,-1,0,-2,-1l0,-1c-1,0,-1,-1,-1,-1c0,-1,0,-1,0,-1c0,0,0,-1,1,-1c0,-1,0,-2,1,-2l0,-1c0,0,0,1,0,1c0,0,0,1,-1,1c0,1,0,1,0,2c0,1,1,1,1,2c1,0,2,1,3,1c1,0,1,0,2,-1l1,0c1,0,1,0,2,-1c0,0,1,0,1,0c-1,-1,-1,-1,-2,-1c0,0,-1,0,-1,0c0,-1,0,-1,0,-1ZM251.5,446.5l0,1c0,0,1,0,1,0l0,-1l1,0l0,-1l0,1c0,1,0,1,0,1c1,0,1,-1,1,-1l0,-1l0,1l0,1c0,0,0,1,0,1l-1,0l0,-1l0,1l-1,0c-1,0,-1,0,-1,0l0,-1l0,-1ZM255.5,464.5l-4,2c0,-1,0,-1,0,-2l4,-1ZM288.5,458.5l0,-2l0,-1l-1,-8l1,-3l1,11l0,1c0,0,-1,0,-1,0c0,1,0,1,0,2ZM283.5,457.5c-1,0,-1,0,-2,0c0,-1,-1,-1,-1,-2c0,1,0,1,0,2c-1,0,-1,0,-2,0c-1,0,-1,0,-2,0c0,-1,0,-1,-1,-2c0,1,0,1,0,1c-1,0,-1,0,-2,0c-1,0,-1,0,-1,0c-1,0,-1,0,-1,0c0,0,0,-1,0,-1c0,0,0,-1,0,-1c1,0,1,0,1,-1c1,0,1,0,2,-1l1,0l0,-1l0,-1c1,0,1,-1,1,-1l0,1l0,1l0,3l0,1c1,0,1,0,1,0c0,0,1,1,1,1c0,0,1,-1,1,-1c0,0,1,0,1,-1c0,0,0,-1,0,-2c0,-1,0,-1,-1,-2c0,-1,0,-1,0,-1l1,-1l0,-1l0,3l1,2l0,1c0,0,0,1,0,1c0,1,1,1,1,1l1,0c0,0,1,0,1,0l0,-1l0,-1l-1,-1l0,-1l0,-1l0,-1l0,-1c0,0,1,0,1,1c0,0,0,1,0,1l0,2c1,1,1,1,1,2c0,0,-1,1,-1,2l0,1c-1,0,-1,0,-1,0ZM275.5,452.5l0,1c0,0,-1,0,-1,0c-1,1,-1,1,-1,1c0,0,1,0,2,0ZM277.5,444.5l1,1c1,0,1,0,1,-1l0,-1l1,0l0,1c1,0,1,0,1,-1l0,-1l0,1l0,1l0,1l0,1l-1,0l0,-1l-1,0l0,1c-1,0,-1,1,-1,1c0,0,-1,-1,-1,-1l0,-1l0,-1ZM276.5,461.5l-5,2c1,-1,1,-1,1,-1l4,-2ZM320.5,454.5c-1,1,-1,1,-2,2c-1,0,-3,1,-4,1c-1,0,-2,0,-3,0c-1,0,-1,0,-1,0c-1,0,-1,-1,-2,-2l0,1l0,1l-1,0c-1,0,-1,0,-1,0c0,1,0,1,1,1l1,0c0,0,1,0,1,0c0,0,0,1,0,1c0,1,0,1,0,1c0,0,-1,0,-1,1c0,0,-1,1,-1,1c-1,0,-2,1,-2,1c-1,0,-2,0,-3,0c-1,0,-2,0,-2,0c-1,0,-2,0,-2,-1l-1,-1c0,0,0,-1,0,-1c0,-1,0,-1,0,-1c0,0,0,-1,0,-1c1,-1,1,-2,1,-2c0,0,1,0,1,-1c0,0,0,1,0,1c0,0,-1,1,-1,1c0,1,0,1,0,2c0,1,0,1,1,2c1,0,2,1,3,1c1,0,1,0,2,-1l1,0c0,0,1,0,2,-1l1,0c-1,-1,-1,-1,-2,-1c-1,0,-1,0,-1,0c0,-1,-1,-1,-1,-1c0,0,1,0,1,-1c0,-1,1,-1,1,-1c0,0,1,0,1,0c0,0,1,-1,1,-1c0,0,0,-1,0,-1l0,-1c0,0,0,-1,0,-1l0,-6l1,-2l0,10c0,0,0,1,0,1l1,0c0,1,0,1,0,1l1,0l1,0c1,0,1,-1,2,-1c-1,0,-1,0,-1,-1c0,0,0,-1,0,-1c0,0,0,-1,0,-1l0,-1c0,0,0,-1,1,-1c1,0,1,-1,1,-1c0,0,1,0,1,0c0,0,1,0,1,0c0,0,1,0,1,1c1,0,1,0,1,0c0,0,0,1,0,1l-1,0l-1,-1l-1,0l0,1l-1,0l-1,0c0,1,0,1,0,1c0,1,0,1,0,1c1,1,2,1,2,1c0,0,1,0,1,0c1,0,1,0,1,0l1,-1l1,0l1,0ZM312.5,444.5l4,-2l0,1l-1,0l-4,2ZM305.5,441.5l4,-2l0,1l-4,2ZM368.5,449.5l-1,-1l-1,1l-1,0l0,-2l2,1l1,-1l1,1ZM366.5,457.5l-1,0l-1,0c0,1,-1,1,-1,2l0,1c0,0,-1,1,-1,1c0,0,0,1,-1,1c-1,1,-1,1,-1,1c0,0,-1,0,-1,0l-1,0c0,0,-1,0,-2,-1l-1,0c1,0,1,0,1,0c1,0,1,0,1,0c0,0,1,0,1,0c1,0,1,-1,2,-1l1,0c0,-1,0,-1,0,-1c1,0,1,-1,1,-1c0,0,0,-1,0,-1l1,0l0,-1c0,1,0,1,-1,1c0,0,0,-1,0,-1c-1,0,-1,0,-1,0l-1,0l0,-1l0,-1l0,-1c0,0,1,0,1,-1c0,0,1,0,1,0c1,0,1,0,1,0c0,1,0,1,0,1c0,0,0,1,1,1l0,1c0,0,1,0,1,0c0,0,1,0,1,0c1,0,1,0,2,0c0,-1,1,-1,1,-1c0,-1,0,-1,0,-1c-1,0,-1,0,-1,0l0,-1l1,-2c0,0,0,1,0,1l0,1l1,1l0,1c0,0,-1,0,-1,0c0,1,0,1,0,1c0,1,-1,1,-1,1c-1,0,-1,0,-2,0ZM366.5,441.5l4,-2l0,1l-4,2ZM361.5,455.5c0,1,0,1,0,1c1,0,1,0,1,0c0,0,1,0,1,0c0,0,0,-1,-1,-1l-1,0ZM358.5,448.5l4,-2c0,1,0,1,0,1l-5,2ZM357.5,445.5c0,0,-1,0,-2,0c-1,1,-3,1,-4,2c-1,0,-2,1,-2,1c-1,0,-1,0,-1,0l0,1l1,0l1,1c1,1,1,1,2,2c0,0,0,1,1,1c0,1,0,1,0,2l0,1c-1,0,-1,0,-1,1l-1,0l-1,0l-1,0c-1,0,-1,0,-2,0c0,0,-1,-1,-1,-2c0,1,0,2,-1,2l-1,0c0,0,-1,0,-1,0l-1,0c0,0,0,-1,0,-1l-1,1c-1,0,-2,1,-3,1l-2,0c-1,0,-1,0,-1,0l-1,1l-1,0c-1,0,-2,-1,-3,-1c-1,0,-2,0,-3,-1c0,0,0,-1,-1,-1l0,-1l0,-1c0,0,0,-1,1,-1c0,0,0,-1,0,-1c1,0,1,0,1,0c0,0,-1,1,-1,1c0,0,0,1,0,1c0,0,0,1,1,1c0,0,0,1,1,1c0,0,1,0,1,0c0,0,1,1,1,1c1,0,2,0,3,0c1,0,1,0,2,0c0,0,1,0,2,-1l1,0c1,0,1,-1,2,-1c1,0,1,-1,2,-1l0,1l-1,0l1,1l1,0l1,0c0,0,1,-1,1,-1l0,-1c0,-1,0,-1,0,-1l0,-1l-1,-6l1,-2l1,10c0,0,0,1,0,1c1,1,1,1,1,1l1,0l1,0l1,0l1,-1l0,-1c0,-1,-1,-1,-2,-2c0,-1,-1,-1,-1,-1c0,0,-1,0,-1,0c0,-1,-1,-1,-1,-1c0,0,0,-1,0,-1l0,-1c1,0,1,0,1,0c0,-1,0,-1,0,-1l1,0c0,-1,1,-1,3,-2c1,0,2,-1,4,-1c0,-1,1,-1,2,-1ZM350.5,439.5l0,1l1,0c0,1,0,1,0,1l0,-1l1,0l0,-1l0,1c0,0,1,0,1,0l0,-1l0,-1l1,0l0,1l0,1l-1,0c0,1,0,1,0,1l-1,0c-1,1,-1,1,-1,1c-1,0,-1,0,-1,-1l0,-1ZM355.5,437.5l-6,2c0,0,1,-1,1,-1l5,-3ZM142.5,443.5c1,0,1,0,1,0c1,0,1,0,2,0c0,0,1,0,1,0c0,0,1,0,1,1c-1,0,-1,1,-1,1l-1,1l-1,0l-1,0l1,-1c1,0,1,0,2,-1c0,0,-1,0,-1,0c0,0,-1,0,-1,0c0,0,-1,0,-1,0l-1,1l0,-1l0,-1ZM195.5,445.5l1,0c0,0,1,0,1,0c1,0,1,0,1,0c1,0,1,0,1,0c0,1,0,1,0,1l-1,1l-1,0l0,1c0,0,-1,0,-1,0c-1,0,-1,0,-1,0l2,-1c0,0,1,0,1,-1l-1,0c-1,0,-1,0,-2,0c0,-1,0,-1,0,-1ZM242.5,445.5c1,0,1,0,1,0c1,0,1,0,2,0c0,0,1,0,1,0c0,0,1,0,1,0c0,1,0,1,0,1c-1,0,-1,0,-1,1l-1,0l0,1c-1,0,-1,0,-1,0l-1,0l1,-1c1,0,1,0,2,-1c0,0,-1,0,-1,0l-1,0c0,0,-1,0,-1,0l-1,0c0,-1,0,-1,0,-1ZM376.5,444.5c1,0,1,0,1,-1c1,0,1,0,2,0c0,0,1,0,1,1c0,0,1,0,1,0c-1,1,-1,1,-1,1c0,1,0,1,-1,1c-1,0,-1,0,-1,0l-1,0l1,0c1,-1,1,-1,2,-1c0,0,-1,0,-1,0l-1,0c0,0,-1,0,-1,0l-1,0c0,0,0,-1,0,-1ZM344.5,436.5c0,0,1,0,1,0c1,-1,1,-1,2,-1c0,0,1,0,1,1c0,1,0,1,0,1c0,1,-1,1,-1,1l-1,0l-1,0l-1,0l2,0c1,0,1,-1,2,-1c-1,0,-1,0,-1,0c0,0,-1,0,-1,0c0,0,-1,0,-1,0c0,0,-1,0,-1,0l0,-1ZM336.5,452.5l-2,-1l0,1l-2,0l1,-2l1,1l1,-1l2,1ZM333.5,438.5l0,-1c1,0,1,0,1,0c0,0,1,0,1,0c0,0,0,1,0,1c0,0,0,1,0,1c0,1,0,1,0,1l0,1l-1,0l-1,1c0,0,-1,0,-1,0l0,1l-1,0l0,-1l1,0c0,0,0,-1,1,-1l0,-1l0,-1l0,-1ZM334.5,439.5l0,-1c-1,0,-1,0,-1,0c0,1,0,1,0,1l1,0ZM393.5,458.5l0,-2l0,-1l-1,-8l1,-3l1,11l0,1l-1,0c0,1,0,1,0,2ZM396.5,460.5l-4,2c0,-1,1,-1,1,-1l3,-2ZM387.5,451.5l-1,-1l0,-1l2,0ZM385.5,458.5c0,0,0,-1,0,-1c0,0,1,0,1,0c0,0,1,0,1,0c1,0,1,-1,1,-1c0,0,0,-1,0,-1c0,-1,0,-1,-1,-1c0,0,1,-1,1,-1c0,-1,0,-1,0,-1c1,1,1,1,1,1c0,1,0,1,0,2c0,1,0,1,0,1c0,1,0,1,0,1c-1,0,-1,1,-1,1c0,0,1,0,1,0c0,0,0,1,0,1c1,0,1,0,1,0c0,0,-1,0,-1,0c0,1,0,1,0,1l0,1c-1,0,-1,1,-2,1c0,0,-1,1,-2,1c-1,0,-2,0,-3,0c0,0,-1,0,-2,0c0,0,-1,0,-1,-1c-1,0,-1,0,-1,-1c0,0,0,-1,0,-1c0,-1,0,-1,0,-1c0,0,0,-1,0,-1c0,-1,1,-2,1,-2l0,-1c0,0,0,1,0,1c0,0,1,0,1,0c-1,0,-1,1,-1,1c0,1,0,1,0,2c0,1,0,1,1,2c0,0,1,1,2,1c1,0,1,0,1,0c0,0,1,0,1,-1c1,0,1,0,1,0c1,0,2,0,2,-1c1,0,1,0,1,0c0,-1,-1,-1,-1,-1c-1,0,-1,0,-2,0c0,-1,0,-1,0,-1ZM386.5,443.5l0,1c0,0,1,0,1,0l0,-1l0,-1l0,1c1,0,1,1,1,1c0,0,0,-1,0,-1l0,-1l1,0l0,1l0,1c0,0,-1,0,-1,1l-1,0l0,-1l0,1c-1,0,-1,0,-1,0c0,0,-1,0,-1,0l0,-1l0,-1ZM389.5,464.5l-4,2c1,-1,1,-1,1,-2l4,-1ZM100.5,498.5c0,0,0,1,-1,2l0,1c-1,0,-1,0,-1,1l1,0l0,1l-1,0l-1,1c0,0,-1,1,-1,1l-1,0l-1,0l0,1l-1,0l-1,0l0,1l-1,1l0,-1l1,0l0,-1l1,0c0,-1,1,-1,1,-1l1,0c1,0,1,-1,2,-1l0,-1c0,0,1,0,1,0l1,0l0,-1l-1,0l0,-1l1,0l0,-1l0,-1l0,-1c0,-1,0,-2,0,-3l0,-1c0,0,-1,0,-1,0l0,-1l1,0c0,0,-1,-1,-1,-1l-1,0l0,-1l-1,0l-2,-1l-1,0c0,-1,-1,-1,-1,-1l-1,-1c0,0,0,-1,0,-1l0,1l1,0l0,1l1,0l2,1l1,0c0,0,0,1,1,1l1,1c1,0,1,0,1,1l-1,1l1,0l0,1l0,1l1,0l0,1ZM96.5,493.5l-1,0l0,-1l-1,0c0,0,-1,0,-1,0c0,-1,0,-1,0,-1l1,0c1,0,1,0,1,0c0,0,0,1,0,1c0,0,1,0,1,0ZM96.5,502.5l0,1l-1,1l-1,0l-1,0l0,1l0,-1c0,0,1,0,1,0l0,-1l1,0c0,0,1,0,1,-1ZM92.5,505.5c-1,1,-1,1,-1,1l0,-3l1,1ZM92.5,491.5l0,1c0,0,-1,0,-1,0l0,-3l1,1l0,1ZM91.5,493.5c1,0,1,0,1,0c1,0,1,0,2,0l0,1l1,0l1,0l1,0l0,1l0,1l0,1l0,1c0,1,0,1,0,1l0,1l0,1c-1,0,-1,0,-1,0l-1,0l-1,1l-1,0l-1,0c-1,0,-1,0,-1,0c1,0,1,0,1,0l1,0l1,0l1,-1l1,0l0,-1l1,0l0,-1l0,-1c0,-1,0,-1,0,-2c0,-1,0,-1,-1,-1c0,0,0,-1,0,-1l-1,1l0,-1l-1,0l0,-1l-1,0l-1,0l-1,0l0,1ZM88.5,496.5l1,0l1,0c0,0,0,1,0,1l0,1c0,1,0,1,0,1l0,1l-1,-1l0,-1l0,-1c-1,0,-1,0,-1,0l0,-1ZM90.5,494.5l-3,0l-3,0l0,-1l-1,0c-1,0,-1,0,-1,0l-1,0l0,1c-1,0,-1,1,-1,1l-1,-1l0,1l-1,0l0,1l0,1l0,1l0,1l0,1c1,0,1,1,1,1l1,0l1,0l0,1l1,0l1,0l1,0l0,-1l3,0l3,0l0,1l-3,0l-3,0c0,0,-1,0,-1,0c-1,0,-1,0,-2,0l-1,-1l-1,0l-1,-2l0,-1c0,-1,0,-1,0,-1c0,-1,0,-1,0,-1l0,-1l0,-1c1,0,1,0,1,0l1,0l1,0l0,-1l1,0l1,0l1,0l3,0l3,0ZM90.5,492.5l-3,0l-3,0l-1,0l0,-1c0,-1,0,-1,0,-1l1,0l0,-1l3,0l3,0ZM90.5,487.5l-1,0l-2,0l-1,0l-2,0l0,1l-1,1c0,0,-1,0,-1,1l-2,0l-1,1l-1,0l0,1l-1,0l-1,1l1,0l0,1l-1,1l0,1l0,1l0,1l0,1l0,1c0,0,0,1,0,1l1,0l0,1l-1,0l1,1l1,0l0,1l1,0l1,1l1,0l1,1c0,0,1,0,1,0l0,1l1,0c0,0,0,1,0,1l3,0l3,0l-3,0l-3,0l0,-1l-1,-1c0,0,-1,0,-1,0c-1,0,-2,-1,-2,-1l-1,0l0,-1l-1,0l-1,-1l-1,0l0,-1l1,0l0,-1l-1,0l0,-1l0,-1l-1,0c0,0,0,-1,0,-1l0,-1c0,-1,0,-1,0,-1l1,0c0,0,0,-1,0,-1c0,0,0,-1,0,-1l1,0l-1,-1l0,-1l1,0l1,-1l1,0l0,-1l2,0l1,-1l1,0l1,-1c0,-1,0,-1,0,-1l3,0l3,0ZM90.5,506.5l-3,0l-3,0l-1,-1c0,-1,0,-1,0,-1c1,0,1,-1,1,-1l3,0l3,0ZM86.5,497.5l1,0l0,1l0,1l0,1l-1,0l-1,0c0,0,0,-1,0,-1l0,-1l0,-1c1,0,1,0,1,0ZM86.5,498.5c0,0,-1,0,-1,0l0,1l1,0c1,0,1,0,1,0l0,-1c-1,0,-1,0,-1,0ZM79.5,493.5l0,-1l1,0l0,-1l1,0l1,0c0,0,0,1,0,1c0,0,-1,0,-1,0l-1,0l0,1l-1,0ZM79.5,502.5c1,0,1,1,1,1l1,0l0,1l1,0l0,1l0,-1l-1,0c-1,0,-1,0,-2,-1ZM151.5,500.5l-1,0l0,-1l-1,0l-1,0c0,0,0,1,-1,1l-1,0l-1,0l-1,0l0,-1c-1,0,-1,-1,-1,-1c0,1,0,1,-1,1c0,1,0,1,-1,1c-1,0,-1,-1,-1,-1l-1,0c0,1,-1,1,-1,1l-1,0c0,0,-1,0,-1,-1l-1,0c0,1,-1,1,-2,1l-1,0c-1,0,-1,0,-1,0c0,0,-1,0,-1,0l0,-1c-1,0,-1,0,-1,0c-1,0,-1,0,-1,0c0,1,-1,1,-1,1l-1,0l-1,0l-1,0c-1,0,-2,0,-2,0c0,0,-1,0,-1,-1c0,1,-1,1,-2,1c0,0,-1,0,-2,0c-1,0,-1,0,-1,0l-1,0c0,0,0,-1,0,-1c-1,0,-1,-1,-1,-1c0,-1,0,-1,0,-1c0,0,-1,-1,-1,-1c0,0,-1,0,-1,0l-1,0c0,0,0,1,-1,1c1,0,1,0,1,1c1,0,1,0,1,0c0,1,0,1,0,1c0,0,0,1,0,1l0,1l-2,0c0,0,-1,0,-1,0c-1,0,-2,0,-2,1c0,0,0,1,0,1c0,0,0,1,0,2c0,1,0,2,1,3c0,1,0,2,0,2c0,0,0,1,-1,1c0,-1,0,-2,0,-3c0,0,0,-1,-1,-3c0,-1,0,-1,0,-1l0,-1c0,-1,0,-2,0,-2c1,0,1,-1,1,-1c0,0,1,-1,1,-1c1,0,1,0,2,0c-1,-1,-1,-1,-1,-1l-1,0c0,1,0,1,0,1l-1,0c0,0,1,-1,1,-1c0,-1,1,-1,1,-1c0,-1,0,-1,0,-1c1,0,1,0,1,0l1,-1c1,0,1,0,1,0c0,0,1,0,1,0l1,0c0,1,0,1,1,1c0,1,0,1,0,1l0,1c0,0,1,0,1,0l1,0c1,0,1,0,1,0c0,0,1,0,1,0l1,0c-1,0,-1,0,-1,0l0,-1c0,-1,0,-1,0,-2c1,0,1,-1,1,-1c0,0,1,0,1,0c0,-1,1,-1,1,-1c1,0,1,0,1,1c1,0,1,0,1,1l0,1c0,0,0,1,-1,1c0,1,0,1,0,1c0,0,1,0,1,0l1,0l1,0c0,0,1,0,1,0c0,0,1,0,1,0l1,0c0,-1,0,-1,0,-1l1,0l0,1c1,0,1,0,2,0l1,0l1,0l1,0c0,0,1,-1,1,-1l1,0l0,1c1,0,2,0,2,0c0,0,0,-1,1,-1l0,-1c0,1,0,1,1,1c0,1,0,1,1,1c0,0,1,-1,1,-1l0,-1l1,0c0,2,1,2,1,2l1,0l1,0l1,0l1,-1c0,-1,0,-1,1,-2l1,0c1,1,1,1,1,2l0,1c0,0,0,1,0,1l-1,1ZM150.5,497.5l0,1l1,0l0,-1c0,0,-1,-1,-1,-1c0,0,0,1,-1,1l1,0ZM148.5,489.5l0,1c0,0,1,-1,1,-1l0,-1l0,1c1,0,1,0,1,0l0,-1l1,-1l0,1l0,1l0,1c0,0,-1,0,-1,0l-1,0l0,1c-1,0,-1,0,-1,0c0,0,-1,0,-1,0c0,0,0,-1,0,-1l0,-1ZM149.5,484.5c0,-1,0,-1,0,-1c1,-1,1,-1,1,-1c1,0,1,0,1,0c0,1,0,1,0,1c0,1,0,1,0,1l0,1l0,1l-1,0l-1,1c0,0,0,1,-1,1c0,0,-1,0,-1,0c1,-1,2,-1,2,-2l0,-1l0,-1ZM150.5,484.5c-1,0,-1,0,-1,0l1,0l0,1l0,-1ZM137.5,489.5l1,0c0,0,1,0,1,0c0,0,1,0,1,0c1,0,1,0,1,1l-1,1c0,0,-1,0,-1,0c0,0,0,1,0,1c-1,0,-1,0,-1,0l-1,0l2,-1c0,0,1,0,1,-1l-1,0c-1,0,-1,0,-2,0l-1,0l1,0c0,0,0,-1,0,-1ZM130.5,495.5l-1,-1l-1,1l-2,-1l1,-1l2,1l0,-1l2,0ZM127.5,487.5l4,-2l0,1l-4,2ZM122.5,492.5l-1,-1l-1,1l-1,-1l0,-1l2,1l1,-2l1,1ZM122.5,495.5c-1,0,-1,0,-1,0c-1,0,-1,1,-1,1l0,1c0,0,1,0,1,0c1,0,1,0,1,0c1,0,1,0,1,-1l0,-1c-1,0,-1,0,-1,0ZM124.5,506.5l-4,2c0,-1,0,-1,0,-1l4,-2ZM116.5,503.5l-1,-1l-1,2l-1,-1l0,-2l2,1l1,-1l1,1ZM104.5,516.5l5,-2c0,0,-1,0,-1,1l-5,3ZM105.5,513.5l5,-2c0,0,0,1,0,1l-5,2ZM188.5,500.5l-1,0c0,0,0,-1,0,-1c0,0,0,-1,0,-1l0,-1l-1,0c0,1,0,1,0,1c-1,0,-1,0,-1,0c-1,0,-1,1,-1,1l-1,0l0,1c0,1,0,1,0,1c0,1,-1,1,-1,2c0,0,-1,1,-1,1l-1,0l0,1c0,0,-1,0,-1,0l-1,0l-1,0c-1,-1,-1,-1,-1,-1l-1,0l1,0l1,0c0,0,1,0,1,0c1,0,1,0,1,-1c1,0,1,0,1,0l1,-1c0,0,0,-1,1,-1c0,0,0,-1,0,-1c1,-1,1,-1,1,-1l-1,0l1,-3c0,0,0,1,0,1l1,0l0,-1c0,0,1,0,1,0l1,0c0,-1,1,-1,1,-1l0,1l0,1c0,0,1,0,1,1l1,0c0,0,0,1,0,1l1,-1l3,-2l0,-1c1,0,1,0,1,0c1,0,1,0,1,-1c1,0,1,0,1,0c1,0,1,0,1,0c0,0,1,1,1,1l1,0l0,1l0,1c0,0,0,1,0,1c0,0,-1,0,-1,0l0,1c0,0,-1,0,-2,1c0,0,-1,0,-2,0c-1,0,-2,0,-3,0l-1,0l-1,0l0,1c0,1,0,1,0,1l-1,0l0,-1l0,-1ZM194.5,496.5c0,0,0,1,0,1l-1,0l-1,0l0,1l-2,1l2,0c1,0,2,0,3,-1c1,0,1,0,1,0c1,0,1,0,2,-1c0,0,-1,0,-1,0l0,-1c0,0,-1,0,-1,0c-1,0,-1,0,-1,0c0,0,-1,0,-1,0ZM193.5,503.5l-4,2c0,-1,1,-1,1,-1l4,-2ZM181.5,493.5l0,-1c0,0,0,-1,0,-1c0,-1,0,-2,0,-2l0,-1l1,1c0,0,0,1,0,1l0,1c0,0,0,1,0,1c0,0,-1,0,-1,1ZM174.5,496.5c0,1,0,1,0,1c0,0,0,1,0,1c-1,1,-1,1,-2,1c-1,1,-2,1,-3,1c-1,0,-2,0,-3,0c-1,0,-1,0,-2,0l-1,0c-1,0,-1,0,-2,-1l-1,-1l2,0l1,1l1,0l1,-1l1,0c0,0,0,-1,0,-2l0,-2l0,-1l0,-3l-1,-2c0,0,0,-1,1,-1l1,1c0,1,-1,1,-1,2l1,1l0,1l0,1l0,1l0,1l0,1l0,1l1,-1l1,-1l1,0c0,0,1,-1,1,-1l1,0c0,0,1,0,1,1c1,0,1,0,1,1ZM173.5,497.5l0,-1c0,0,-1,0,-1,0l-1,0c-1,0,-1,0,-2,0l-1,1l0,1l-2,0l1,0l1,0l1,0c1,0,1,0,1,0c1,0,2,0,3,-1ZM158.5,510.5l5,-2l0,1c0,0,-1,0,-1,0l-5,3ZM160.5,507.5l5,-2c-1,0,-1,1,-1,1l-5,2ZM230.5,497.5c0,0,-1,1,-2,1c-1,1,-2,1,-3,1c-1,1,-2,1,-3,1l-1,0c0,0,-1,0,-1,0c-1,-1,-1,-1,-1,-2c0,0,0,1,0,1c0,0,-1,0,-1,0l0,1c0,0,-1,0,-1,0l-1,0c1,0,1,0,1,0c1,0,1,0,1,0c0,0,0,1,1,1l0,1l0,1c0,0,-1,0,-1,1l-1,1c0,0,-1,0,-2,1c-1,0,-2,0,-3,0c-1,0,-1,0,-2,0c-1,-1,-1,-1,-1,-1c-1,0,-1,-1,-1,-1c0,-1,-1,-1,-1,-1c0,0,0,-1,0,-1c0,-1,1,-1,1,-2c0,-1,0,-1,1,-2c0,1,0,1,0,2c-1,1,-1,1,-1,1c0,0,0,1,0,1c1,1,1,1,1,1c1,1,2,1,3,1l1,0c0,0,1,0,1,0c0,0,1,0,1,0c1,0,2,-1,2,-1c0,0,1,0,1,-1c0,0,-1,0,-1,0c-1,0,-2,0,-2,-1c0,0,0,-1,0,-1c0,0,1,-1,1,-1l1,0c0,0,0,-1,1,-1l0,-1c0,0,1,0,1,0c0,-1,0,-1,0,-1l0,-1l-1,-7l1,-2l1,11l0,1l1,0l1,0c1,0,2,0,2,0c0,0,-1,-1,-1,-1c0,-1,0,-1,0,-1c0,-1,0,-1,0,-1c0,0,0,-1,0,-1l1,-1l1,-1l1,0l1,0c1,0,1,0,1,0c0,0,1,1,1,1l0,1l0,-1l-1,0l-1,0l-1,0c0,0,-1,0,-1,0c0,0,0,1,0,1c0,0,-1,0,-1,0c0,1,0,1,0,1c0,0,1,1,1,1c0,0,1,1,2,1l1,0c0,0,1,-1,1,-1l1,0l1,-1ZM222.5,487.5l4,-2l0,1l-4,2ZM376.5,482.5c0,1,0,2,-1,2l0,-1c0,-1,0,-1,0,-2l0,-1c0,0,0,-1,0,-1l1,1l0,1ZM216.5,485.5c0,1,0,2,0,2l0,-1c0,-1,0,-1,0,-2l-1,-1c0,0,0,-1,1,-1l0,1l0,1ZM251.5,503.5c1,0,1,0,1,0l1,0c1,0,2,0,3,0c0,-1,0,-1,1,-1c0,-1,1,-1,1,-2c0,0,0,-1,0,-1c1,0,1,0,1,-1c-1,0,-1,0,-1,0l0,-1l0,-1l-1,0l1,-1l0,-1l1,1c0,0,0,1,0,1l0,1l0,1c0,1,0,1,0,2c0,1,0,1,0,1c-1,1,-1,1,-1,1c0,0,0,1,-1,1l0,1l-1,0c0,0,-1,0,-1,0c0,0,-1,0,-1,0l-1,0l-1,0l-1,0ZM254.5,490.5l4,-2l0,1l-4,2ZM253.5,502.5l-1,-1l0,-1l2,1ZM246.5,501.5c0,-1,1,-1,1,-1l0,-1c1,0,1,0,1,0l1,0l1,0c0,0,0,-1,0,-1l-1,-1l0,-1l0,-1l1,0c0,0,0,1,0,1c0,0,0,1,0,1c0,1,0,1,0,1c0,0,0,1,0,1c0,0,0,1,0,1l-1,0l1,0c0,0,0,1,0,1c0,0,1,0,1,0l0,1l0,1c-1,0,-1,0,-1,0l0,1c0,0,-1,0,-1,1c-1,0,-2,0,-3,1c0,0,-1,0,-2,0c-1,0,-1,0,-1,0c0,0,-1,0,-1,0c-1,-1,-2,-1,-2,-1c0,0,-1,-1,-1,-1c0,-1,0,-1,0,-1c0,0,0,-1,0,-1c0,-1,0,-1,0,-2c1,-1,1,-1,1,-2c1,0,1,0,1,0c0,1,-1,1,-1,2c0,1,0,1,0,1c0,0,0,1,0,1c0,1,0,1,1,1c1,1,2,1,3,1c1,0,1,0,1,0c1,0,1,0,1,0c1,0,2,-1,3,-1l1,-1c-1,0,-1,0,-2,0c-1,0,-1,0,-1,-1c-1,0,-1,0,-1,0ZM247.5,489.5l0,1c0,0,1,0,1,0c0,0,0,-1,0,-1l0,-1l1,0l0,1c0,0,1,0,1,-1l0,-1l0,1l0,1l0,1l-1,0l-1,0l0,1c0,0,-1,0,-1,0l0,-1l-1,0l1,0l0,-1ZM250.5,506.5l-3,2c0,0,0,-1,0,-1l4,-2ZM280.5,500.5l0,-1l0,-1l-1,-9l1,-2l1,11c0,0,-1,1,-1,1c0,1,0,1,0,1ZM282.5,503.5l-4,2c1,-1,1,-1,1,-1l3,-2ZM271.5,494.5l-1,-1l1,-1l1,1ZM271.5,503.5c0,0,-1,0,-1,0c-1,0,-1,0,-2,-1c0,0,-1,0,-1,-1c0,0,0,-1,0,-1c0,-1,0,-1,0,-1c0,-1,0,-1,0,-1l0,-1c1,0,1,0,1,-1l1,0c-1,0,-1,0,-1,1c0,1,0,1,0,1l0,1l0,1l1,1c0,0,1,0,1,0c0,0,1,0,2,0c0,0,1,0,2,0c0,0,1,-1,1,-1c0,0,1,0,1,-1c0,0,0,-1,0,-1c0,0,0,-1,0,-1c0,0,-1,0,-1,-1l0,-1l-1,-1l1,-1l1,0l0,1c0,1,0,1,0,1c0,0,0,1,1,1c0,0,0,1,0,1c0,1,0,1,0,1c0,1,0,2,-1,2c0,1,0,1,-1,2c0,0,-1,1,-2,1c0,0,-1,0,-2,0ZM268.5,486.5l0,1l1,0c0,0,0,-1,0,-1l0,-1l1,0l0,1c1,0,1,0,1,-1l0,-1l0,1l0,1c0,1,0,1,0,1l-1,0l-1,0c0,1,0,1,-1,1c0,0,0,-1,0,-1l0,-1ZM272.5,483.5l-5,3c0,-1,0,-2,0,-2l6,-2ZM342.5,504.5l-1,-1l1,-1l1,1ZM340.5,501.5l-1,0l-1,0c0,0,-1,0,-1,-1l-1,0c0,-1,0,-1,0,-1c-1,0,-1,0,-1,0c0,0,0,1,-1,1l-1,0l-1,1l-2,0c0,0,-1,-1,-2,-1c0,-1,0,-1,0,-2l-1,-9l1,-2l1,10l0,1c0,1,1,1,1,1l2,0c0,0,1,0,1,0c1,0,1,0,2,-1c0,0,1,0,1,0c0,0,1,0,1,1l1,0l1,0l1,0c0,0,1,0,1,0c1,0,1,-1,1,-1c0,-1,0,-1,0,-1l0,-1l0,-2c0,0,1,1,1,1l0,1l0,1l0,1c0,1,0,1,0,1c-1,1,-1,1,-2,1c0,0,-1,1,-1,1ZM341.5,507.5l-3,2c0,-1,0,-1,0,-1l4,-2ZM335.5,496.5l-2,-1l1,-1l2,1ZM333.5,491.5l4,-2c0,1,-1,1,-1,1l-4,2ZM319.5,497.5l-1,0l0,1l-1,0l-1,0l-1,1l2,0c1,0,2,0,3,0c0,0,1,0,1,0c1,-1,1,-1,2,-1c0,0,0,-1,-1,-1c-1,0,-1,-1,-1,-1c-1,0,-1,0,-1,1c-1,0,-1,0,-1,0ZM314.5,499.5l1,-1l3,-2c0,0,1,-1,1,-1c0,0,1,0,1,0c1,0,1,0,1,0c1,0,1,0,1,0c0,0,1,0,1,0l0,1l1,0c0,1,0,1,0,1c0,1,0,1,-1,1c0,1,0,1,0,1c-1,0,-1,1,-2,1c0,0,-1,0,-2,0c-1,1,-2,1,-3,1l-1,0l-1,0l0,1l0,1l-1,-1l0,-1c0,0,0,-1,0,-1l-1,0c0,0,0,-1,0,-1c0,0,0,1,-1,1c-1,0,-1,0,-1,1l-1,0c0,0,-1,-1,-1,-1c0,0,-1,0,-1,0l0,-1c-1,0,-1,1,-2,1c0,0,0,1,-1,1l-1,0l-1,-1l-1,0l0,-1c0,0,-1,0,-1,0l0,1l-1,0c-1,1,-1,1,-1,1l0,1c0,1,0,1,0,2l1,1l-1,1l-1,0c0,0,0,-1,0,-1l-1,-1c0,-1,0,-1,0,-2c0,-1,0,-1,1,-2c-1,0,-2,1,-2,1l-1,0l-1,0c-1,0,-2,-1,-2,-1c-1,-1,-1,-1,-1,-2l0,-9l0,-2l1,10l0,1c1,1,1,1,2,1l1,0l1,0c1,0,1,0,2,0l1,-1l0,1c-1,1,-1,2,-1,3c0,1,0,1,1,2c-1,-1,-1,-1,-1,-1c0,-1,0,-1,0,-1c0,0,1,-1,1,-1l0,-1l1,-1l1,-1c0,0,1,0,1,0c0,0,1,0,1,1l1,0l1,0c0,0,1,0,1,0c0,0,1,0,1,-1c0,0,1,-1,1,-1l0,1l1,1l1,0l1,0c0,0,1,0,1,0l1,-1c0,-1,0,-1,0,-1l1,0l0,1c0,0,0,1,1,1ZM314.5,504.5l-4,2c0,-1,0,-1,0,-1l4,-2ZM308.5,504.5l-2,-1l0,1l-2,-1l1,-1l1,1l1,-2l2,1ZM305.5,491.5l4,-2l-1,0c0,1,0,1,0,1l-4,2ZM302.5,496.5l-2,-1l-1,1l-1,-1l1,-2l1,1l1,-1l2,1ZM305.5,506.5l-4,2c0,0,1,-1,1,-1l4,-2ZM292.5,491.5l5,-2l-1,1l-4,2ZM377.5,501.5l0,-2l0,-1l0,-8l1,-3l0,11c0,0,0,1,0,1c0,1,0,1,-1,2ZM365.5,493.5l-1,-1l1,-1l1,1ZM373.5,496.5l0,2l-1,0c0,0,-1,0,-1,0l-1,0l-1,0l-1,1l-1,0l-1,1c-1,0,-1,0,-1,0l-1,0l-1,0l0,1l-1,0l-2,0l0,-1c-1,0,-1,0,-1,0l0,-1c-1,0,-1,0,-1,-1l0,1l-1,1c0,0,-1,0,-1,0c-1,0,-1,0,-2,0l-1,0c0,0,-1,0,-1,0c0,0,0,-1,0,-1l0,-1l0,-1c0,0,0,1,0,1c0,0,1,0,1,0l1,0l1,0l1,0l1,0c1,0,1,0,1,0l0,-1l0,-1l0,-2l-1,-1l1,-1l0,-1l1,2l0,1l0,3l0,1c0,0,1,0,1,1l1,0l1,0c0,-1,0,-1,0,-1c0,-1,1,-1,1,-1l0,-1c1,-1,1,-1,1,-1c1,0,1,0,1,0l1,0c1,0,1,0,1,0l1,0l1,1l2,0l1,0l1,0ZM369.5,497.5l-1,0c-1,0,-1,0,-2,0c0,-1,0,-1,0,-1l-1,0c0,0,0,1,-1,1c0,0,-1,0,-1,1l0,1l1,0c1,0,1,0,1,0l0,-1l1,0l1,0l1,-1ZM367.5,504.5l-4,2c0,-1,0,-1,0,-1l4,-2ZM357.5,489.5l-2,-1l1,-1l2,1ZM354.5,481.5l0,1l-1,0l-1,0c0,1,0,1,0,1l0,3l0,1l0,-1l0,-1l-1,-2l0,-1l0,-1c1,0,1,0,1,0l1,-1l-1,0l0,1c0,0,-1,0,-1,-1c0,0,1,0,1,0c0,-1,0,-1,1,-1l1,1c0,0,0,1,0,1ZM355.5,481.5c0,0,1,0,1,-1l1,0c0,0,1,1,1,1c0,0,-1,0,-1,1l0,1l0,1l-1,0l0,1c-1,0,-1,0,-1,0c-1,0,-1,0,-1,1c-1,0,-1,0,-1,-1c1,0,2,-1,3,-2l-1,0c0,0,0,-1,0,-1c0,0,0,-1,0,-1ZM356.5,481.5c0,1,0,1,0,1l1,0ZM238.5,487.5c0,0,1,0,1,-1c0,0,1,0,1,0c1,0,1,0,2,0c0,1,0,1,0,1c0,1,0,1,0,1c-1,1,-1,1,-1,1c-1,0,-1,0,-1,0c0,0,-1,0,-1,0c0,0,-1,0,-1,0l2,0c0,-1,1,-1,1,-1c-1,-1,-1,-1,-1,-1c-1,0,-1,1,-1,1c-1,0,-1,0,-1,0c0,0,0,-1,0,-1Z" class="g1_73" />
</svg>