<?xml version="1.0" encoding="UTF-8" standalone="no"?>
<!DOCTYPE svg PUBLIC "-//W3C//DTD SVG 1.1//EN"
"http://www.w3.org/Graphics/SVG/1.1/DTD/svg11.dtd">
<svg version="1.1" xmlns="http://www.w3.org/2000/svg" xmlns:xlink="http://www.w3.org/1999/xlink">
<defs>
<style type="text/css"><![CDATA[
.g1_46{
stroke: #1F1A17;
stroke-width: 1;
stroke-linecap: butt;
stroke-linejoin: miter;
}
]]></style>
</defs>
<path fill-rule="evenodd" d="M365.5,159.5l4,-2l-1,1l-4,2ZM133.5,156.5l0,-1l0,-1c0,0,0,-1,0,-2l0,-1l1,0l0,-1c1,0,1,0,1,0l0,1l-1,0l0,1l0,1l-1,0c0,1,0,1,0,1c1,1,1,1,1,1c0,-1,0,-1,0,-1c0,0,1,0,1,0l0,1c0,1,0,1,0,1c0,0,-1,0,-1,0c0,0,-1,0,-1,0ZM375.5,159.5l0,-1c0,0,0,-1,0,-1c0,-1,0,-2,-1,-2l1,0l0,-1l0,1c1,0,1,1,1,1l0,1c0,1,0,1,0,1c-1,0,-1,0,-1,1ZM242.5,156.5l0,-1c0,0,0,-1,0,-1c0,-1,-1,-2,-1,-2l1,-1l0,1c0,0,0,1,0,1l0,1c0,1,0,1,0,1l0,1ZM324.5,156.5c0,-1,0,-1,1,-1c0,0,1,0,1,0c1,0,1,0,1,0c1,0,1,1,1,1c0,0,0,1,-1,1l0,1l-1,0c0,0,-1,0,-1,0c-1,0,-1,0,-1,0l2,-1c0,0,1,0,1,0c0,-1,0,-1,-1,-1c-1,0,-1,0,-2,0c0,0,0,1,0,1l0,-1ZM88.5,155.5c0,0,0,-1,1,-1c0,0,1,0,1,0c1,0,1,0,1,0c1,1,1,1,1,1c0,1,0,1,-1,1c0,0,0,1,0,1l-1,0c0,0,-1,0,-1,0c-1,0,-1,0,-1,0l2,0c0,-1,1,-1,1,-1c0,0,0,-1,-1,-1c-1,0,-1,0,-2,1c0,-1,0,-1,0,-1ZM74.5,166.5c0,1,0,2,-1,3l0,1c-1,0,-1,0,-1,1l1,0l0,1l-1,0l-1,1c0,0,-1,1,-2,1l-1,0l0,1l-1,0l-1,0l-1,1l0,1l-4,0l-1,0c0,0,-1,0,-1,-1l-1,-1c-1,0,-2,-1,-3,-1l-1,0l0,-1l-1,0l0,-1l-1,0l0,-1l-1,0l1,0l0,-1l-1,-1l0,-1c0,0,0,-1,0,-1l0,-1l0,-1c0,0,0,-1,0,-1c1,-1,1,-1,1,-1l0,-1l-1,0l1,-1l1,0l0,-1l1,0l1,-1l1,0l2,-1l1,-1c0,-1,1,-1,1,-1l1,0l4,0l0,1l1,0l0,1l1,0l2,1l1,0c0,0,0,1,0,1l1,0l1,1c0,0,1,0,1,1l-1,0l0,1l1,0l0,1l0,1l1,1ZM65.5,177.5l0,-1l1,0l0,-1l1,0c0,-1,1,-1,1,-1l1,0c1,-1,1,-1,2,-1l0,-1c0,0,1,0,1,0l1,-1l-1,0l0,-1l1,0l0,-1l0,-1l0,-1l0,-1c0,0,0,-1,0,-2l0,-1c-1,0,-1,0,-1,0l0,-1l1,0c0,0,-1,-1,-1,-1l-1,0l0,-1l-1,0l-2,-1l-1,-1c0,0,-1,0,-1,0l-1,-1c0,-1,0,-1,0,-1l-4,0l-1,0l0,1l-1,0l-1,1l-2,1l-1,0l0,1l-1,0l-1,1c0,0,-1,0,-1,1l1,0l-1,1l0,1l-1,1l0,1l0,1l0,1l0,1l1,0l0,1l1,1l-1,0l0,1l1,0l0,1l1,0l1,1l1,0l2,1l1,0l0,1c1,0,1,1,1,1l1,0ZM70.5,162.5l-1,0l0,-1l-1,0c0,0,-1,0,-1,0c0,-1,0,-1,0,-1l1,0c1,0,1,0,1,0l0,1l1,0ZM70.5,171.5l0,1l-1,0l0,1l-1,0l-1,0c0,0,1,0,1,-1l1,0c0,0,0,-1,1,-1ZM66.5,173.5c0,1,0,1,0,1c-1,0,-1,1,-1,1l-4,0l-1,0c-1,0,-1,0,-1,-1l0,-1c0,0,0,-1,1,-1l1,0l4,0l1,1ZM66.5,160.5c0,0,-1,1,-1,1l-4,0l-1,0c-1,0,-1,0,-1,-1c0,-1,0,-1,0,-1l0,-1l1,0l1,0l4,0l0,1l1,0ZM65.5,162.5c1,0,1,0,1,0c1,0,1,0,2,0l0,1l1,0l1,0l1,0l0,1l0,1l0,1l0,1c0,1,0,1,0,1l0,1l0,1c-1,0,-1,0,-1,0l-1,0l-1,1l-1,0l-1,0l-1,0l-4,0l-1,0l-1,0l-1,0c0,0,-1,0,-1,0c0,0,-1,0,-1,-1l-1,0l-1,0l-1,-2l0,-1l0,-1c0,-1,0,-1,0,-1l0,-1l1,0l0,-1l2,0l1,-1c0,0,1,0,1,0c1,0,1,0,1,0l1,0l1,0ZM65.5,171.5c1,0,1,0,1,0l1,0l1,0l0,-1l1,0l1,0l0,-1l1,0l0,-1l0,-1l0,-1c0,0,0,-1,0,-1c0,-1,0,-1,-1,-1c0,-1,0,-1,0,-1l-1,1c0,0,0,-1,0,-1l-1,0l0,-1l-1,0l-1,0l-1,0l0,1l-4,0l-1,0l0,-1l-1,0l-1,0l-1,0l0,1l-1,0c0,0,0,1,0,1l-1,-1c-1,0,-1,0,-1,1l0,1l-1,1l0,1l0,1l1,0l0,1c0,0,0,1,0,1l2,0l1,1l1,0c1,0,1,0,1,0l1,0l0,-1l1,0l4,0l0,1ZM63.5,166.5l0,1l0,1l0,1l-1,0c0,-1,0,-2,0,-3l0,-1l1,0c0,0,1,0,1,0l1,0l0,1c0,0,-1,0,-1,0c-1,0,-1,0,-1,0ZM60.5,165.5l1,0l0,1l0,1l0,1c0,1,0,1,0,1l0,-1c0,-1,-1,-2,-1,-2ZM54.5,162.5l0,-1l1,0l1,-1l1,0l1,0l-1,0c0,0,1,0,1,1c-1,0,-1,0,-1,0l-1,0l-1,1l-1,0ZM54.5,171.5l1,0c0,0,0,1,1,1l1,0l0,1l1,0c-1,0,-1,0,-1,0l1,0l-1,0c-1,0,-2,0,-2,-1l-1,0ZM123.5,169.5c0,0,-1,0,-1,0l-1,-1l-1,0l0,-1l-1,1c0,0,0,1,0,1l-1,0l-1,0l-1,0l-1,0c-1,0,-2,0,-2,0c0,0,-1,0,-1,-1c0,1,-1,1,-2,1c0,0,-1,0,-1,0l-1,0c0,0,-1,0,-1,0c0,1,0,1,0,1c0,1,0,2,-1,2c0,0,0,1,0,1c-1,0,-1,0,-1,1c0,0,-1,0,-1,0c0,0,-1,1,-1,1c0,0,-1,0,-1,0c-1,0,-1,0,-2,-1c0,0,-1,0,-1,0c0,0,1,0,1,0l1,0c0,0,1,0,1,0c1,-1,1,-1,1,-1c1,0,1,0,1,-1c0,0,1,0,1,0c0,-1,0,-1,0,-1c1,-1,1,-1,1,-2l0,-1c0,0,-1,0,-1,-1l1,0c0,0,0,-1,0,-1c0,0,0,1,0,1l1,0l1,0l1,0c0,0,1,0,1,0l1,0c-1,0,-1,0,-1,-1c0,-1,0,-1,1,-2c0,0,0,-1,0,-1c0,0,1,0,1,0c0,-1,1,-1,1,-1c1,0,1,0,1,1c1,0,1,0,1,1l0,1c0,0,0,1,-1,1c0,1,0,1,0,1c0,0,1,0,1,0l1,0l1,0l1,0c0,0,1,0,1,0l1,-1c0,-1,0,-1,1,-2c0,0,1,0,1,0l1,0c0,1,0,1,0,2l0,1l0,1l0,1ZM121.5,166.5l1,1c0,0,0,-1,0,-1c0,0,0,-1,-1,-1c0,0,0,1,0,1ZM120.5,153.5l1,-1l1,0c0,0,0,1,0,1c0,0,0,1,0,1c0,0,0,1,0,1l0,1l-1,0l-1,1l-1,0l0,1l-1,0l1,-1c0,0,1,-1,1,-1l1,0l0,-1l-1,0l0,-1l0,-1ZM121.5,153.5c0,1,0,1,0,1ZM113.5,161.5l-1,-1l-1,1l-1,-1l1,-1l1,1l1,-2l1,1ZM113.5,164.5c-1,0,-1,0,-1,0c-1,0,-1,1,-1,1c1,1,1,1,1,1c1,0,1,0,1,0c1,0,1,-1,1,-1l0,-1c-1,0,-1,0,-1,0ZM108.5,151.5c0,0,1,0,1,0c0,0,1,0,1,0c1,0,1,0,2,0c0,0,0,1,0,1l0,1c-1,0,-1,0,-1,0c-1,0,-1,0,-1,0c0,0,-1,0,-1,0c0,0,-1,0,-1,0l2,0c1,0,1,-1,1,-1c-1,0,-1,0,-1,0c-1,0,-1,0,-1,0c-1,0,-1,0,-1,0c0,-1,0,-1,0,-1ZM106.5,179.5l-4,2c0,0,0,-1,1,-1l4,-2ZM97.5,162.5l-2,-1l1,-1l2,1ZM96.5,169.5l-1,0l-1,0l-1,0l0,-1l0,-1l0,-1l-1,-1c0,1,0,1,-1,1c0,1,-1,1,-1,1c0,1,0,1,0,1l0,1c0,1,0,1,0,2c-1,0,-1,1,-1,1c-1,1,-2,1,-2,2c-1,0,-2,0,-2,0c-1,0,-1,0,-2,0c-1,0,-1,-1,-1,-1c-1,0,-1,-1,-1,-1c-1,-1,-1,-1,-1,-2c0,0,0,-1,0,-1l0,-1c0,0,1,0,1,0l0,-1c0,0,1,-1,1,-1c0,1,0,1,0,1c-1,1,-1,1,-1,1l0,1c0,1,0,1,0,1c1,1,1,1,1,1l1,1c1,0,1,0,2,0c1,0,1,0,2,0c1,-1,1,-1,2,-1c0,-1,0,-1,0,-1l0,-1l0,-1c0,0,0,-1,0,-1c0,0,0,-1,-1,-1l0,-1l0,-2c1,0,1,1,1,1c0,0,0,1,0,1l1,0c1,0,1,0,1,-1c1,0,1,0,1,0c0,0,0,-1,1,-1l0,1l0,1c0,0,0,1,1,1c0,1,0,1,0,1c1,0,1,0,1,0l1,0c1,0,1,0,2,0c0,0,1,0,1,0l0,-1l0,-1c0,0,-1,0,-1,0l0,-1l1,-1c0,0,0,1,0,1l1,0c0,1,0,1,0,1c0,1,0,1,0,1c0,1,0,1,0,1c0,0,-1,0,-1,0c0,1,0,1,0,1c0,0,-1,1,-1,1c-1,0,-1,0,-2,0ZM100.5,172.5l-4,2c0,0,0,-1,0,-1l4,-2ZM94.5,172.5l-1,-1l-1,1l-1,0l1,-2l1,1l1,-1l1,1ZM85.5,165.5l-2,-1l1,-2l2,1ZM81.5,156.5l4,-2l0,1l-4,2ZM139.5,167.5c1,0,1,0,1,0c0,0,1,0,1,0c0,0,1,0,1,0c0,0,0,-1,0,-1l0,-2l-1,-6l0,-1c0,0,0,-1,0,-1c0,0,1,-1,1,-1c0,0,0,1,0,1c0,1,1,1,1,1c0,0,0,1,0,1l0,1l-1,0c0,0,0,1,1,2c0,0,0,1,0,2c0,1,0,1,0,1l0,2c0,1,0,1,0,1l-1,0c0,1,0,1,0,1c0,0,-1,1,-1,1l-1,0l-1,0c0,0,-1,0,-1,0c-1,0,-1,0,-1,-1c0,0,-1,0,-1,-1c0,0,0,-1,0,-1l0,1c0,0,-1,0,-1,0l-1,0c-1,0,-1,0,-2,0l0,-1c0,-1,0,-1,1,-2c0,0,1,0,2,-1l1,0l0,-1l-1,0l1,-1l0,1l1,1c0,0,0,1,0,1l0,2c0,0,0,1,0,1l1,0c0,0,1,0,1,0ZM140.5,153.5l4,-2c0,1,0,1,0,1l-4,2ZM136.5,164.5l-1,0l-1,0l0,1c0,0,-1,0,-1,1l1,0l1,0c0,-1,1,-1,1,-1ZM186.5,168.5c0,0,-1,0,-2,0c-1,0,-2,0,-4,0c-1,0,-2,0,-2,0c-1,0,-1,0,-1,0c-1,1,-1,1,-1,1c-2,0,-3,0,-5,0c-1,0,-2,0,-3,0c-1,0,-2,0,-3,0l-1,0l-1,0c0,0,-1,0,-1,0c-1,0,-1,0,-1,-1l-1,0c-1,1,-1,1,-2,1l-1,0l-2,0c0,0,-1,0,-1,-1c-1,0,-1,-1,-1,-2l-1,-8l1,-2l1,10l0,1c0,0,1,0,1,0l2,0c0,0,1,0,1,0c1,0,1,0,2,0l0,-1c1,0,1,0,1,0c0,0,0,1,1,1c0,0,1,0,1,0l1,0c0,0,1,0,1,0l1,0c1,0,2,0,3,0c0,0,1,0,3,0c1,0,2,0,4,0l1,0c1,0,2,0,3,0c2,-1,3,-1,4,-1c2,0,3,0,3,0l0,-1l-1,0c-1,0,-1,0,-1,0c-1,0,-3,0,-5,0c-2,0,-4,0,-6,0c-1,1,-3,1,-4,1c-2,0,-3,-1,-4,-1l0,-1l1,-1c0,0,0,-1,0,-1c0,0,1,-1,1,-1c1,-1,2,-1,2,-2c1,-1,2,-1,3,-2l1,0l-1,2l-1,1c-1,0,-2,1,-2,1c-1,1,-2,1,-2,2c0,0,-1,0,-1,0c0,1,0,1,1,1l1,0c0,0,1,0,1,0l1,0c1,0,2,0,4,0c2,0,4,-1,6,-1c2,0,3,0,4,0c1,0,1,0,2,0c0,1,1,1,1,1c0,1,0,1,0,1c0,1,0,2,0,2c0,1,0,1,-1,1ZM169.5,150.5c0,0,0,-1,0,-1c1,0,1,0,1,0c1,0,1,0,1,0l0,1l0,1l0,1l0,1l-1,-1l0,1l-1,0c0,1,-1,1,-1,1l-1,0l1,-1l1,0l0,-1c0,-1,0,-1,0,-1c0,-1,0,-1,0,-1ZM170.5,150.5c-1,0,-1,0,-1,0l1,1l0,-1ZM160.5,165.5l-1,-1l0,-2l2,1ZM159.5,155.5c0,1,0,1,0,1c1,-1,1,-1,1,-1l0,-1l0,1l1,0l0,-1l1,-1l0,1l0,1c0,1,-1,1,-1,1c-1,0,-1,0,-1,0c-1,1,-1,1,-1,1c0,0,-1,0,-1,0c0,0,0,-1,0,-1l0,-1ZM163.5,152.5l-6,3c0,-1,1,-2,1,-2l5,-3ZM214.5,165.5l-1,0l0,1c0,0,1,0,1,0c0,0,1,0,1,0c-1,0,-1,-1,-1,-1ZM214.5,173.5c0,0,-1,0,-1,0l0,1c-1,0,-1,0,-2,0c-1,0,-1,0,-2,-1c0,0,-1,0,-1,0c0,0,1,0,1,0l1,0c1,0,1,0,1,0l1,0c0,-1,0,-1,0,-1c1,0,1,0,1,-1c1,0,1,0,1,0c0,-1,1,-1,1,-2c0,0,0,-1,0,-1l0,-1c0,1,0,1,0,1c0,0,-1,0,-1,0c0,0,-1,0,-1,0c-1,0,-1,-1,-1,-1c0,0,0,-1,0,-1l0,-1c0,0,1,-1,1,-1l0,-1c1,0,1,0,1,0c1,0,1,0,1,0c0,0,0,1,1,1c0,0,0,1,0,1c0,0,0,1,0,1c0,0,0,1,0,1c0,1,0,1,0,1c0,1,0,2,-1,3c0,0,0,1,0,1c-1,0,-1,1,-1,1ZM211.5,159.5l4,-2l0,1l-4,2ZM207.5,169.5l-1,0l0,-1c0,0,-1,0,-1,0l-1,-1l0,1c0,0,-1,1,-1,1l-1,0l-1,0l-1,0c-1,0,-1,0,-2,-1c0,0,-1,-1,-1,-2l0,-8l1,-2l0,10l1,0l0,1l1,0l1,0l1,0c1,0,1,0,1,0l1,0l0,-1c1,-1,1,-1,1,-2l1,0c1,0,1,0,1,0c0,1,1,1,1,2l0,1l0,1c0,0,-1,0,-1,1ZM205.5,166.5l1,0l1,1c0,0,0,-1,0,-1c-1,0,-1,-1,-1,-1c0,0,-1,1,-1,1ZM202.5,156.5l5,-2l-1,1l-4,2ZM247.5,169.5l0,-1c0,0,-1,0,-2,0l-1,0c0,0,-1,0,-1,0c-1,0,-1,1,-1,1c-1,0,-1,0,-1,0c0,0,-1,0,-1,0l-1,0l-1,0c-1,0,-1,0,-1,0l0,-1l-1,0c0,-1,0,-1,0,-1l0,1c0,0,-1,0,-1,0c-1,0,-1,1,-2,1l-1,0l-1,0c-1,0,-1,0,-1,-1l-1,0l0,-1l1,0c0,-1,0,-1,0,-1l0,1l1,0l1,0l1,0l1,0l1,0l0,-1l1,0c0,0,0,-1,0,-1l-1,-2l0,-1l0,-1l1,-1l0,1c0,1,0,1,1,2l0,2c0,1,0,1,0,1c0,1,0,1,0,1c1,0,1,0,1,0l2,0c0,0,1,0,1,0c1,0,1,0,1,0c0,0,0,-1,0,-1l0,-1c0,-1,0,-1,0,-1c0,0,0,-1,1,-1l0,-1c0,0,0,-1,0,-1c1,0,1,0,1,0c0,0,1,0,2,1c0,1,1,1,1,1c1,1,1,1,1,2l0,1c0,1,0,1,0,1l0,1c0,0,0,1,-1,1ZM244.5,164.5c0,0,-1,0,-1,0l0,1l0,1l1,0c0,0,0,-1,0,-1l0,-1ZM245.5,164.5c0,1,0,1,0,1l1,0c0,0,-1,0,-1,1l2,1c0,0,0,-1,0,-1l0,-1c-1,0,-1,0,-1,0l-1,-1ZM234.5,158.5l-1,-1l1,-2l1,1ZM231.5,153.5l5,-2l-1,0c0,0,0,1,0,1l-4,2ZM225.5,169.5l0,-1l0,-1l0,-9l0,-2l1,11c0,0,0,1,0,1c0,0,-1,1,-1,1ZM267.5,167.5c1,0,1,0,1,0c0,0,1,0,1,0c0,0,1,0,1,0c0,0,0,-1,0,-1l0,-2l-1,-6l0,-1c0,0,0,-1,0,-1c0,0,1,-1,1,-1c0,0,0,1,0,1c0,1,1,1,1,1c0,0,0,1,0,1l0,1l-1,0c0,0,0,1,0,2c0,0,1,1,1,2c0,1,0,1,0,1l0,2c0,1,0,1,0,1l-1,0c0,1,0,1,0,1c0,0,-1,1,-1,1l-1,0l-1,0c0,0,-1,0,-1,0c0,0,-1,0,-1,-1c-1,0,-1,0,-1,1c-1,0,-1,0,-2,0l-2,0c0,0,-1,0,-2,-1c0,0,0,-1,0,-2l-1,-8l1,-2l1,10l0,1c0,0,1,0,1,0l2,0c0,0,1,0,1,0c0,0,1,0,1,0l0,-1c0,0,1,0,1,-1l0,1c0,1,0,1,1,1l1,0ZM268.5,153.5l4,-2c0,1,0,1,0,1l-4,2ZM264.5,165.5l-1,-1l0,-2l2,1ZM261.5,156.5l4,-2l0,1l-5,2ZM303.5,168.5c-1,0,-1,1,-1,1c-1,0,-1,0,-1,0c-1,0,-1,0,-1,0l-2,0c-1,0,-2,0,-2,0c-1,-1,-1,-1,-1,-2l0,-1l-1,0c0,0,-1,0,-1,1l-4,1c-1,0,-1,1,-1,1c-1,0,-1,0,-1,0l-1,0l-1,0c0,1,0,1,0,1c-1,1,-1,2,-1,2c0,0,0,1,-1,1l0,1c-1,0,-1,0,-1,0c-1,0,-1,1,-1,1c-1,0,-1,0,-1,0l-1,0c0,0,-1,0,-1,-1c-1,0,-1,0,-1,0l1,0c1,0,1,0,2,0c0,-1,1,-1,1,-1c0,0,1,0,1,-1l1,0c0,-1,0,-1,0,-1c0,-1,1,-1,1,-2l0,-1l-1,0l0,-1c0,0,0,-1,0,-1c1,0,1,0,1,0c0,0,0,1,0,1l1,0l1,0c0,0,1,0,1,0c0,0,1,0,1,0c1,0,1,0,2,0l1,-1l1,0l-2,-1c-1,0,-1,0,-2,0c0,0,-1,0,-1,0l-1,0l0,-1l1,0c0,0,0,-1,0,-1c1,0,1,0,2,0l1,0c0,0,1,0,1,0c1,1,2,1,3,1c1,1,2,1,2,1c1,0,1,0,2,0l0,1l-1,0l-1,0c0,1,0,1,0,1c0,0,1,0,1,0l1,0l2,0c1,0,1,0,2,0l1,0c0,-1,0,-1,1,-1l0,1l1,0c0,0,1,0,1,0c1,0,1,0,1,0c0,-1,0,-1,0,-1l0,-1l1,0l0,1c0,1,0,1,0,1c0,0,1,0,1,0l1,0l0,-1l0,-1l1,0l0,1l0,1l0,1c0,0,-1,0,-1,1l-1,0c-1,0,-1,0,-1,0l0,-1l-1,0c-1,1,-1,1,-1,1l-1,0c-1,0,-1,0,-1,0c0,0,-1,0,-1,-1ZM303.5,156.5l5,-2l-1,1l-4,2ZM292.5,161.5l-2,-1l1,-1l2,1ZM290.5,151.5l0,1c1,0,1,0,1,0l0,-1l0,1l1,0l0,-1l1,-1l0,1l0,1c0,1,-1,1,-1,1c-1,0,-1,0,-1,0c-1,1,-1,1,-1,1c0,0,-1,0,-1,-1l0,-1l0,-1ZM294.5,149.5l-6,2c0,0,1,-1,1,-1l5,-3ZM280.5,156.5l4,-2l0,1l-4,2ZM352.5,169.5l0,-1l0,-1l0,-9l1,-2l0,11c0,0,0,1,0,1c0,0,-1,1,-1,1ZM345.5,170.5l0,-1l-1,0c0,0,0,-1,0,-1c0,0,0,-1,0,-1c-1,0,-1,0,-1,1l-1,0c0,0,0,1,-1,1c-1,0,-1,0,-2,0c-1,0,-1,0,-1,0c-1,0,-1,-1,-1,-1c0,0,0,-1,0,-1c0,-1,0,-1,0,-1l1,0l0,1c1,0,1,0,1,0c0,0,1,0,1,0l1,0l1,0c1,-1,1,-1,1,-1c0,0,0,-1,0,-1c0,-1,0,-1,0,-2c0,-1,0,-1,0,-1c0,-1,0,-1,0,-1c0,-1,0,-1,0,-1l1,1c0,0,0,1,0,2c0,1,0,1,0,2c0,1,0,1,1,1l0,1l0,1c1,0,1,1,1,1c0,0,1,0,1,0c1,0,1,0,1,0c0,0,0,-1,0,-1c0,0,0,-1,-1,-2c0,-1,0,-1,0,-2c0,0,0,-1,0,-1c0,-1,0,-2,0,-2c0,-2,0,-3,0,-3l0,-1c0,0,0,-1,0,-1c0,0,0,-1,1,-1l0,1c0,1,0,1,1,1c0,0,0,1,0,1c0,0,-1,0,-1,1c0,0,0,1,0,2c0,0,0,1,0,2c0,1,0,1,1,1c0,1,0,1,0,2c0,1,0,2,0,2l0,1c-1,0,-1,0,-1,0l0,1l0,1c-1,0,-1,0,-1,0c-1,0,-1,0,-1,-1c-1,0,-1,0,-1,0ZM347.5,151.5l0,1c0,0,1,0,1,0l0,-1l0,-1l0,1c1,0,1,1,1,1c0,0,0,-1,0,-1l0,-1l1,0l0,1l0,1c0,0,-1,0,-1,1l-1,0l0,-1l0,1c-1,0,-1,0,-1,0c0,0,-1,0,-1,0l0,-1l0,-1ZM351.5,148.5l-6,3c0,-1,1,-1,1,-1l5,-3ZM342.5,158.5l-1,0l0,-2l2,1ZM340.5,172.5l-4,2c0,0,1,-1,1,-1l4,-2ZM334.5,163.5c0,0,-1,-1,-1,-1l-1,0c-1,0,-1,0,-1,0c0,0,-1,1,-1,2c-1,0,-2,1,-2,1c0,0,1,1,1,1c1,0,1,0,1,0l1,1c1,0,2,0,2,0c0,0,0,1,0,1l0,1c0,1,-1,1,-1,1c-1,1,-2,1,-2,1c-1,1,-2,1,-2,1c-1,0,-2,1,-2,1l-1,0c-1,0,-2,-1,-2,-1c-1,0,-1,0,-2,0c0,-1,0,-1,-1,-2c0,0,0,-1,0,-1l0,-1c0,0,0,-1,0,-2c1,0,1,-1,1,-1c0,-1,0,-1,1,-1l0,-1l0,1c0,1,0,1,0,1c0,0,-1,1,-1,1c0,1,0,1,0,2l0,1c0,0,1,0,1,1c1,0,2,1,3,1c1,0,2,0,4,-1l1,0l1,-1c1,0,1,0,1,0c0,-1,0,-1,0,-1l-1,0c-1,0,-2,0,-3,-1c0,0,-1,0,-1,-1l0,-1c1,0,1,0,1,-1l1,-1l0,-1c1,0,1,0,1,0c1,-1,1,-1,1,-1c1,-1,1,-1,2,-1l1,0l0,1c0,1,0,1,0,1c0,0,0,1,0,1ZM395.5,168.5l-1,0c0,0,0,1,-1,1l-1,0l-1,0c-1,0,-1,0,-1,-1l-1,0l-1,1l-1,0l-1,0l-2,0c-1,0,-2,0,-2,0c-1,-1,-1,-1,-1,-2l0,-1l-1,0l0,1l-5,1c0,0,-1,1,-1,1c0,0,-1,0,-1,0l-1,0l-1,0c0,0,0,1,0,1c0,1,0,1,0,1c0,1,0,1,-1,2c0,0,0,1,-1,1c0,1,-1,1,-2,2c0,0,-1,0,-2,0c-1,0,-1,0,-2,0c0,0,-1,-1,-1,-1c-1,0,-1,-1,-1,-1c0,-1,-1,-1,-1,-2l0,-1l1,0c0,-1,0,-1,0,-1l0,-1c1,0,1,-1,1,-1l0,1c0,1,0,1,-1,1l0,1c0,1,0,1,1,1c0,1,0,1,0,1c0,0,1,0,1,1c1,0,2,0,2,0c1,0,2,0,3,0c1,-1,1,-1,2,-1c0,0,0,-1,0,-1c0,-1,0,-1,0,-1c0,-1,0,-1,0,-1l0,-1c0,0,-1,0,-1,0l0,-1l1,-2c0,1,0,1,0,1c0,0,1,0,1,0l1,0c1,0,1,0,1,0c1,0,1,0,1,0c1,0,1,0,2,0l1,-1l1,0l-1,-1c-1,0,-2,0,-3,0l-1,0l0,-1c0,0,0,-1,0,-1c1,0,1,0,2,0l1,0c0,0,1,0,1,0c1,1,2,1,3,1c1,1,2,1,2,1c1,0,1,0,2,0l0,1l-1,0l-1,0c0,1,0,1,0,1c1,0,1,0,1,0l1,0l2,0l1,0l1,0c1,0,1,0,1,-1l0,-1l1,0l0,1c0,1,0,1,0,1c1,0,1,0,2,0l1,0l1,0l1,0c0,-1,0,-1,0,-1l1,0l0,1l1,0c0,0,1,0,1,0c1,0,1,0,1,0c0,-1,0,-1,0,-1l0,-1l1,0l0,1c0,1,0,1,0,1l1,0l1,0l0,-1l0,-1l1,0l0,1l0,1l0,1c0,0,-1,0,-1,1l-1,0c-1,0,-1,0,-1,0l0,-1l-1,0c-1,1,-1,1,-1,1l-1,0c-1,0,-1,0,-1,0c0,0,-1,0,-1,-1ZM397.5,153.5l1,-1l1,0c0,0,0,1,0,1c0,0,0,1,0,1c0,0,0,1,0,1l0,1l-1,0l-1,1l-1,0l0,1l-1,0l0,-1l1,0c0,0,0,-1,1,-1l1,-1l-1,0l0,-1l0,-1ZM398.5,153.5l-1,0c0,1,1,1,1,1ZM389.5,173.5l-2,-1l1,-1l2,1ZM386.5,158.5c1,0,1,0,1,0c1,0,1,0,2,0c0,0,1,0,1,0c1,0,1,0,1,1c0,0,-1,0,-1,1l-1,0c0,0,0,1,0,1c-1,0,-1,0,-1,0l-1,0l1,-1c1,0,2,0,2,-1c0,0,-1,0,-1,0l-1,0c0,0,-1,0,-1,0l-1,0c0,0,0,-1,0,-1ZM366.5,167.5l-2,-1l1,-2l2,1Z" class="g1_46" />
<path fill-rule="evenodd" d="M371.5,379.5l-4,2c0,-1,1,-1,1,-1l4,-2ZM132.5,359.5c0,0,-1,0,-1,0l0,1c-1,0,-1,1,-1,1l1,1c0,0,0,1,0,1l-1,-1l0,-1l0,-1c0,0,1,-1,1,-1l1,-1l1,0ZM132.5,361.5c0,0,0,-1,0,-1c1,0,1,0,1,0c1,0,1,0,1,1l0,1l-1,0l1,0l0,1l0,1l-1,-1l-1,1c0,0,-1,1,-1,1l-1,0l0,-1l1,0l1,0l0,-1l0,-1l0,-1ZM133.5,361.5l-1,0l1,1l0,-1ZM92.5,357.5l-1,0l0,1l0,1c0,1,0,1,0,1l0,-1l-1,0l0,-1l1,0l0,-1l0,-1c0,0,1,0,1,0l1,-1l1,0ZM92.5,358.5l1,-1l1,0c0,0,0,1,0,1l0,1l0,1l0,1l-1,0l-1,0c0,1,0,1,0,1l-1,0l-1,0l1,0l0,-1c0,0,1,0,1,0l1,-1l-1,0c0,0,0,-1,0,-1c0,0,0,-1,0,-1ZM93.5,358.5c0,0,0,1,0,1ZM175.5,363.5c1,0,1,0,1,0c1,-1,1,-1,2,-1c0,0,1,1,1,1c0,0,1,0,1,0l0,1c-1,0,-1,0,-1,0c0,1,0,1,-1,1l-1,0l-1,0l1,0c1,0,1,-1,2,-1c0,0,-1,0,-1,0c0,0,-1,0,-1,0c0,0,-1,0,-1,0l-1,0l0,-1ZM140.5,361.5l1,0c0,0,1,0,1,0c1,0,1,0,1,0c1,0,1,0,1,0c0,0,0,1,0,1l-1,1l-1,0c0,0,-1,1,-1,1c-1,0,-1,-1,-1,-1l2,0c0,0,1,-1,1,-1l-1,0c-1,0,-1,0,-2,0c0,-1,0,-1,0,-1ZM96.5,360.5c1,-1,1,-1,1,-1c1,0,1,0,2,0c0,0,1,0,1,0c0,0,1,1,1,1c-1,1,-1,1,-1,1c0,0,0,1,-1,1c-1,0,-1,0,-1,0l-1,0l1,-1c1,0,1,0,2,0c0,-1,-1,-1,-1,-1l-1,0c0,0,-1,0,-1,0c0,0,0,1,-1,1l0,-1ZM84.5,370.5c0,1,0,2,0,2c0,0,-1,1,-1,1l0,1l-1,0l1,1l1,0l-1,0l0,1l-1,0l-1,1c0,0,-1,0,-1,1l-1,0l-1,0l-1,0c0,0,0,1,0,1l-1,0l0,1l-1,1l-2,0l-3,0c0,0,0,-1,0,-1l-1,-1c0,0,-1,0,-1,-1c-1,0,-2,0,-2,0l-1,-1l-1,0l0,-1l-1,0l-1,-1l1,-1l-1,0l0,-1l0,-1l-1,-1l0,-1l0,-1l1,0c0,0,0,-1,0,-2l1,-1l-1,0c0,-1,0,-1,0,-1l1,0l0,-1l1,0l1,-1l2,-1l1,0l1,-1l1,-1l3,0l2,0l1,0l0,1l1,1l2,1l1,0c0,0,1,0,1,0l0,1l1,0c1,1,1,1,2,2l-2,0l1,0l0,1l0,1l1,0l0,1ZM75.5,380.5l1,-1l1,-1c1,0,1,0,1,0l1,0l0,-1c1,0,1,0,2,0l0,-1c1,0,1,0,1,0l0,-1l1,0l-1,-1l1,0l0,-1l0,-1l1,-1l0,-1c0,-1,-1,-1,-1,-2l0,-1l-1,0l0,-1l1,0c0,-1,-1,-1,-1,-1l0,-1l-1,0l-1,-1l-1,0l-2,-1l-1,0l0,-1l-1,-1l-2,0l-1,0l-2,0l0,1l-1,1c0,0,-1,0,-1,0l-2,1l-1,0l0,1l-1,0l-1,1l-1,1l1,0l0,1l-1,0l0,1l0,1c0,1,0,1,0,1l0,1l0,1l0,1l1,0l0,1l-1,1l1,0l0,1l1,0l0,1l1,0l1,0l0,1l1,0l1,0c0,0,1,0,1,1l1,1l3,0ZM81.5,365.5l-1,0l0,1l0,-1l-1,0l-1,0l0,-1l-1,0l0,-1l1,1l1,0c1,0,1,0,1,1ZM81.5,375.5l-1,0l0,1l-1,0l0,1l-1,0l-1,0c0,0,0,-1,0,-1c1,0,1,0,1,0l1,0c0,-1,1,-1,1,-1ZM76.5,377.5c0,0,0,1,0,1c0,0,-1,0,-1,0l-2,0l-3,0c-1,0,-1,0,-1,0c0,0,0,-1,0,-1l0,-1c1,0,1,0,1,0l3,0l2,0l1,0l0,1ZM76.5,363.5c0,1,0,1,0,1c0,0,-1,0,-1,1l-2,0l-3,0c0,0,0,-1,-1,-1l0,-1l0,-1l1,0l3,0l2,0c0,0,1,0,1,0c0,0,0,1,0,1ZM75.5,366.5l1,-1l1,0l1,1l1,0l0,1l1,0c0,0,1,0,1,0l0,1l0,1l1,0l0,1l0,1c0,0,-1,1,-1,1l0,1c0,1,0,1,-1,1l-1,0l-1,0c0,0,0,1,0,1l-1,0l-1,0c-1,0,-1,0,-1,0l0,-1l-2,0l-3,0l0,1c0,0,-1,0,-1,0c-1,0,-1,0,-2,0c0,0,0,-1,0,-1l-1,0l-1,0l0,-1l-1,-1l0,-1l0,-1c0,0,0,-1,0,-1l0,-1l0,-1c1,0,1,0,1,0l1,0l1,-1l1,0c0,-1,0,-1,1,-1l1,0l0,1l3,0ZM75.5,374.5l1,1l1,0c1,0,1,0,1,0l0,-1l1,0c0,-1,0,-1,0,-1l1,1l1,-1l0,-1l0,-1l0,-1c0,0,0,-1,0,-1c0,-1,0,-1,0,-2c-1,0,-1,0,-1,0l-1,0l-1,-1l-1,0c-1,0,-1,0,-1,0l-1,0l-2,0l-3,0l-1,0c-1,0,-1,0,-1,0l-1,0l0,1c-1,0,-1,0,-1,0l-1,0l-1,1l0,1l0,1c0,1,0,1,0,1l0,1c1,1,1,1,1,2l1,-1l1,1l1,1l1,0l1,0c0,0,0,-1,0,-1l3,0l2,0ZM74.5,369.5l0,1c1,0,1,0,1,0l0,1l0,1c0,0,-1,1,-1,1l0,-1c0,-1,0,-2,0,-3ZM72.5,369.5c0,0,-1,0,-1,0l0,1l1,0l0,1l-1,0l0,1l1,0l1,0c-1,1,-1,1,-1,1c-1,0,-1,0,-1,-1l0,-1l0,-1c0,-1,0,-1,0,-1c0,0,1,0,1,-1ZM65.5,365.5l1,-1l1,0l1,-1l0,1c0,0,-1,0,-1,0c0,0,0,1,-1,1l0,1l-1,0ZM65.5,375.5c1,0,1,0,1,1l1,0l1,0c0,0,0,1,0,1l-1,0c-1,0,-1,-1,-2,-1l0,-1ZM114.5,376.5l1,0c1,0,2,0,3,-1c1,0,1,0,1,-1c1,0,1,-1,2,-1c0,-1,0,-1,0,-1c0,-1,0,-1,0,-1l0,-1l-1,0l0,-1l0,-1l1,-1l0,1l1,1l0,1l0,1c0,0,0,1,0,1c0,1,0,1,0,1l-1,0c0,0,0,1,0,1c0,0,0,1,0,1c-1,0,-1,0,-1,1c0,0,-1,0,-1,0l-1,1c-1,0,-1,0,-1,0l-1,0l-1,0c0,0,0,-1,-1,-1ZM117.5,361.5l0,1c1,0,1,0,1,0l1,0l0,-1c0,1,0,1,0,1l1,0l0,-1l0,-1l1,0l0,1l0,1l-1,0c0,1,0,1,0,1l-1,0c-1,0,-1,1,-1,1c-1,0,-1,0,-1,-1l0,-1l0,-1ZM122.5,359.5l-6,2c0,0,0,-1,1,-1l5,-3ZM113.5,370.5l-2,0c0,0,-1,0,-2,0c-1,0,-1,0,-1,1l-1,0l-1,0c0,1,-1,1,-1,1c0,0,-1,0,-1,0c-1,1,-2,1,-3,1c-1,0,-1,0,-1,0c0,0,0,-1,0,-1c-1,0,-1,0,-1,0l0,-1l-1,0c0,0,0,-1,0,-1c0,-1,0,-1,-1,-1c-1,0,-1,0,-2,0c0,1,0,1,1,1c0,0,0,1,0,1l0,1l1,0c0,0,-1,0,-1,1l-2,0l-1,0c-1,0,-2,1,-2,2l0,1l0,1c0,2,1,3,1,4c0,1,0,1,0,1l0,1c0,0,-1,-1,-1,-2c0,-1,0,-1,0,-3c-1,-1,-1,-2,-1,-2c0,-1,0,-2,1,-2c0,-1,0,-1,0,-2c0,0,1,0,1,0c1,0,2,0,2,0c0,-1,0,-1,0,-1c0,0,-1,0,-1,0l-1,0l0,1c0,-1,0,-1,0,-1c0,-1,0,-1,0,-1c1,0,1,0,1,-1c0,0,1,0,1,0l0,-1c0,0,1,0,1,0c1,0,1,0,1,-1c1,0,1,0,1,0c0,0,1,0,1,0c0,0,0,1,0,1c1,0,1,0,1,1l0,1c1,0,1,1,1,1l1,0l1,0c1,0,1,0,2,0c0,0,1,-1,1,-1l2,0l-1,-1l-1,0l-1,-1c-1,0,-1,0,-1,0l-1,1c0,-1,0,-1,1,-2c1,0,1,0,1,0c1,0,1,0,1,0l1,0l2,1l1,0c0,0,1,0,1,0c0,0,1,1,1,1c1,0,1,0,1,0l2,0ZM106.5,376.5l-4,2c0,-1,0,-1,0,-1l4,-2ZM100.5,376.5l-1,-1l-1,1l-1,-1l1,-1l1,1l1,-1l1,1ZM162.5,371.5c1,0,1,0,1,0c1,0,1,0,1,0c0,0,1,0,1,0c0,-1,0,-1,0,-1l0,-2l-1,-7c0,-1,0,-1,0,-1c1,-1,1,-1,1,-1c0,0,0,1,0,1c1,0,1,0,1,1l0,1c0,1,0,1,0,2c0,0,0,1,0,3c0,0,0,1,0,1l0,1c0,1,0,1,0,1l0,1c-1,0,-1,1,-1,1l-1,0c0,1,0,1,-1,1l-1,0c0,0,-1,0,-1,0c-1,-1,-1,-1,-1,-1c0,0,-1,0,-1,-1l-1,0c0,0,0,1,-1,1l-1,0c0,0,0,1,-1,1l-1,0l-1,0l-1,0c-1,0,-1,0,-2,0c0,-1,-1,-1,-1,-1c0,0,-1,0,-2,1c0,0,-1,0,-2,0l-2,0c0,0,0,1,0,1c0,0,0,1,0,1c-1,0,-1,1,-1,1c0,0,-1,1,-1,1l-1,1c-1,0,-1,0,-1,0c0,0,-1,0,-1,0c-1,0,-1,0,-2,0l-1,-1c1,0,1,0,1,0c0,0,1,0,1,0c0,0,1,0,1,0c1,0,1,0,1,-1c1,0,1,0,1,0c1,0,1,-1,1,-1c0,0,1,0,1,-1l0,-1c0,0,-1,0,-1,0c0,0,-1,0,-1,-1c0,0,0,-1,0,-1c0,-1,0,-1,0,-1c0,-1,0,-1,0,-1c0,0,1,-1,1,-1l1,0c0,0,1,0,1,1c0,1,0,1,0,1c0,0,0,1,0,1c1,0,1,0,2,0c1,0,1,0,1,0l1,0l1,0c0,0,-1,-1,-1,-1c0,-1,0,-1,1,-2c0,-1,0,-1,0,-1c0,0,1,-1,1,-1c0,0,1,0,1,0c1,0,1,0,2,0c0,1,0,1,0,2l0,1c0,1,0,1,0,1c-1,0,-1,1,-1,1l1,0c1,0,1,0,1,0l1,0c1,0,1,0,1,0c0,0,1,0,1,0l1,0c0,0,0,-1,0,-1l0,-1c-1,0,-1,0,-1,0c0,0,-1,0,-1,0l0,-1c1,0,1,-1,1,-1c0,0,1,0,1,0c1,0,1,0,1,0c1,0,1,0,1,0c1,0,1,0,1,0c0,0,0,1,1,1c0,1,0,1,-1,1c0,1,0,1,-1,1c1,0,1,0,1,1l1,0c0,0,1,0,1,0ZM163.5,357.5l5,-3l-1,1l0,1l-4,2ZM158.5,365.5l-1,-1l1,-2l1,1ZM155.5,360.5l4,-2l0,1l-4,2ZM150.5,365.5l-2,-1l1,-2l2,1ZM150.5,367.5c0,0,-1,1,-1,1c0,0,-1,0,-1,1c1,0,1,1,1,1c1,0,1,0,2,-1c0,0,0,-1,0,-1c-1,0,-1,-1,-1,-1ZM150.5,354.5c0,-1,0,-1,0,-1c1,-1,1,-1,1,-1c1,0,1,0,1,0c0,1,0,1,0,1c0,1,0,1,0,1l0,1l0,2l-1,-1l-1,1c0,0,-1,1,-1,1l-1,0l0,-1l1,0l1,-1l0,-1l0,-1ZM151.5,354.5l0,-1c-1,0,-1,1,-1,1l1,0l0,1l0,-1ZM141.5,370.5c0,0,-1,0,-1,0c0,0,0,1,1,1c0,0,1,0,1,0c0,-1,0,-1,0,-1c0,0,-1,0,-1,0ZM127.5,376.5c1,0,1,0,1,0l1,0c1,0,2,0,3,-1l1,-1c0,0,1,-1,1,-1c0,-1,0,-1,0,-1c1,-1,1,-1,1,-1c0,0,-1,0,-1,0l0,-1l0,-1c-1,0,-1,0,-1,0l1,-1l0,-1l1,1l0,1l0,1l0,1c0,0,0,1,0,1c0,1,0,1,0,1c0,0,0,1,0,1c-1,0,-1,1,-1,1l-1,1l-1,0l0,1c0,0,-1,0,-1,0c0,0,-1,0,-1,0c-1,0,-1,0,-1,0c-1,0,-1,-1,-1,-1ZM187.5,376.5c1,0,1,0,1,0l1,0c1,0,1,0,2,-1c1,0,1,0,2,-1c0,0,1,-1,1,-1c0,-1,0,-1,0,-1c0,-1,0,-1,0,-1l0,-1l0,-1l-1,0l1,-1l0,-1l0,1c1,0,1,0,1,1l0,1l0,1c0,0,0,1,0,1c0,1,0,1,0,1c0,0,0,1,0,1c-1,0,-1,1,-1,1l-1,1l-1,0l0,1c-1,0,-1,0,-1,0c0,0,-1,0,-1,0l-1,0l-1,0c0,0,0,-1,0,-1l-1,0ZM190.5,363.5l4,-2l0,1l-4,2ZM189.5,375.5l-1,-1l0,-1l2,1ZM182.5,373.5l1,-1c1,0,1,0,1,0c1,0,1,0,1,-1l1,0c0,0,0,-1,-1,-1c0,0,0,-1,0,-1l0,-1l1,-1c0,1,0,1,0,2l0,1c0,1,0,1,0,1c0,1,0,1,0,2c0,0,-1,0,-1,0c1,0,1,0,1,0c0,0,0,1,1,1c0,0,0,1,0,1l-1,0c0,0,0,1,0,1c0,0,-1,1,-1,1c-1,1,-2,1,-3,1c-1,1,-1,1,-2,1l-1,0c0,0,-1,0,-1,-1c-1,0,-2,0,-2,-1c0,0,-1,0,-1,-1l0,-1c0,-1,0,-1,0,-2c1,-1,1,-2,1,-2c0,0,1,0,1,0c-1,0,-1,1,-1,2c0,0,0,1,0,1l0,1c0,0,0,1,1,1c1,1,1,1,3,1c1,0,1,0,1,0c1,0,1,0,1,-1c1,0,2,0,3,0c0,-1,0,-1,1,-1c-1,0,-1,-1,-2,-1c-1,0,-1,0,-1,0c-1,0,-1,0,-1,-1ZM183.5,361.5l0,1l1,0l0,-1l1,0c0,1,0,1,0,1c0,0,1,0,1,-1l0,-1l0,1l0,1c0,1,0,1,-1,1l-1,0c0,0,-1,1,-1,1l0,-1c0,0,-1,0,-1,0l0,-1l1,0l0,-1ZM186.5,379.5l-4,2c1,-1,1,-1,1,-1l4,-2ZM216.5,373.5l0,-1l0,-2l-1,-8l1,-2l1,10c0,1,0,1,0,1l0,1c-1,0,-1,1,-1,1ZM219.5,376.5l-4,2c0,-1,0,-1,0,-1l4,-2ZM207.5,367.5l-1,-1l1,-2l1,1ZM207.5,376.5c0,0,-1,0,-2,0c0,0,-1,-1,-1,-1c0,0,-1,-1,-1,-1c0,-1,0,-1,0,-2c0,0,0,-1,0,-1l0,-1l0,-1c0,0,1,0,1,0c0,-1,0,-1,0,-1l1,0c-1,1,-1,1,-1,1c0,1,0,1,0,1l0,1c0,1,0,1,0,1c0,1,0,1,1,1c0,1,0,1,1,1c0,0,1,0,2,0c0,0,1,0,2,0c0,-1,1,-1,1,-2l1,0l0,-1l0,-1c-1,0,-1,-1,-1,-1c0,0,0,-1,0,-1l0,-1l-1,0l1,-2c0,0,0,1,0,1c0,0,1,0,1,0c0,0,0,1,0,1c0,0,0,1,0,1l0,1c0,0,1,0,1,0c0,1,0,1,0,1l0,1c0,1,-1,1,-1,2c0,0,0,1,-1,1c-1,1,-1,1,-2,2c-1,0,-1,0,-2,0ZM204.5,358.5l0,1l1,0l0,-1l1,0c0,0,0,1,0,1c1,0,1,0,1,-1l0,-1l0,1l0,1c0,0,0,1,0,1l-1,0l-1,0c0,0,0,1,-1,1c0,0,0,-1,0,-1l0,-1l0,-1ZM208.5,355.5l-5,3c0,-1,0,-1,0,-1l6,-3ZM347.5,357.5c0,-1,0,-1,0,-2c0,0,0,-1,0,-1l0,-1c0,0,1,0,1,1l0,1c0,1,0,1,0,1l0,1l-1,0ZM314.5,385.5c0,-1,0,-1,0,-2c0,0,0,-1,0,-1l0,-1c0,0,1,0,1,1l0,1c0,1,0,1,0,1l0,1l-1,0ZM255.5,363.5c0,-1,0,-1,0,-2c0,0,0,-1,0,-1l0,-1l1,1l0,1c0,1,0,1,0,1l0,1l-1,0ZM225.5,368.5l1,0l0,-1c1,0,1,0,1,0l0,-1l0,-1l-1,-2l0,-1l1,0l0,1l0,1l0,1l0,1l0,1l1,-1c1,0,1,0,1,0l1,0c1,0,1,0,1,0l0,1l-1,0c0,1,0,1,0,1c-1,0,-1,0,-2,0l-1,0ZM229.5,366.5c0,0,0,1,-1,1l-1,0l0,1c1,0,1,0,1,0l1,0l0,-1c0,0,1,0,1,0l0,-1c0,0,-1,0,-1,0ZM282.5,369.5l-1,0c0,1,0,1,0,1c0,0,1,0,1,0c0,0,1,0,1,0c0,0,-1,0,-1,-1ZM282.5,377.5l-1,0c0,0,0,1,0,1c-1,0,-1,0,-2,0c-1,0,-1,0,-2,0c0,-1,-1,-1,-1,-1c0,0,1,0,1,0l1,0l1,0c0,0,1,0,1,0c0,0,0,-1,0,-1c1,0,1,0,2,-1c0,-1,1,-1,1,-1c0,-1,0,-2,0,-2l-1,0l-1,0c-1,0,-1,0,-1,-1l0,-1c1,-1,1,-1,1,-2l1,-1c1,0,1,0,1,0c0,1,0,1,1,1c0,0,0,1,0,1c0,0,0,1,0,1c0,1,0,1,0,1c0,1,0,1,0,1c0,1,0,2,-1,3c0,0,0,1,0,1c0,0,-1,1,-1,1ZM279.5,363.5l4,-2l0,1l-4,2ZM275.5,373.5l-1,0l0,-1c0,0,-1,0,-1,0l-1,0c0,0,-1,1,-1,1l-1,0l-1,0c0,0,0,1,0,1c0,1,-1,2,-1,2c0,1,0,1,-1,1c0,0,0,1,0,1c-1,0,-1,0,-1,0c-1,1,-1,1,-1,1c-1,0,-1,0,-1,0l-1,0c0,0,-1,0,-1,-1c0,0,-1,0,-1,0c0,0,1,0,1,0c1,0,1,0,2,0c0,0,1,-1,1,-1c0,0,1,0,1,-1l1,0c0,-1,0,-1,0,-1c0,-1,1,-1,1,-1c0,-1,0,-1,0,-1c0,0,0,-1,0,-1c-1,0,-1,0,-1,0l0,-1c0,0,1,0,1,0c0,-1,0,-1,0,-1c0,1,0,1,0,1l1,0l1,1l1,0c0,0,0,-1,0,-1l1,0l0,-1c1,-1,1,-1,1,-2l1,0c1,0,1,0,1,0c1,1,1,1,1,2l0,1c0,1,0,1,0,1l-1,1ZM273.5,370.5l1,1l1,0l0,-1c-1,0,-1,0,-1,0c0,0,-1,0,-1,0ZM273.5,357.5c1,-1,1,-1,1,-1c1,0,1,1,1,1c0,0,0,1,0,1c0,1,0,1,-1,1l1,0l0,1l-1,0l-1,1c0,0,-1,0,-1,1l-1,0l0,-1l1,0l0,-1l1,0l0,-1c0,0,-1,0,-1,-1c0,0,1,0,1,-1ZM274.5,358.5l0,-1l-1,0l0,1l1,0ZM263.5,362.5c1,0,1,0,1,0c1,0,1,0,2,0c0,0,1,0,1,0c0,0,1,0,1,1c-1,0,-1,1,-1,1l-1,0c0,0,0,1,0,1l-1,0l-1,0l1,-1c1,0,1,0,2,-1c0,0,-1,0,-1,0c0,0,-1,0,-1,0c0,0,-1,0,-1,0l-1,0c0,0,0,-1,0,-1ZM253.5,372.5c-1,1,-1,1,-1,1l-1,0l-1,0l-1,0l-1,0l1,1l0,1c0,1,0,2,-1,2c0,1,0,1,-1,1c0,0,-1,0,-1,0c0,0,-1,-1,-1,-2c0,0,-1,-1,-1,-3c-1,0,-1,0,-1,0l-1,0l-2,0c0,0,-1,0,-1,0c-1,-1,-1,-2,-1,-2l-1,-9l1,-2l1,10l0,1c0,0,1,1,1,1l2,0l1,0l0,-1l1,0l1,0c0,0,0,-1,0,-1l1,-1c0,0,0,-1,0,-1c1,-1,2,-2,2,-2l1,1l0,1l0,1c0,0,0,1,-1,1c0,1,-1,1,-2,2l2,0l2,0l1,0c0,-1,1,-1,1,-1c0,0,1,0,1,0c0,0,0,-1,1,-1l0,1c0,0,1,0,1,0c1,0,1,0,1,0c0,0,1,0,1,0c0,0,0,-1,0,-1c1,0,1,0,1,0l0,-1l0,1l0,1l1,0l1,0l0,-1l0,-1c0,0,1,0,1,0l0,1l0,1c0,0,0,1,0,1c0,0,0,1,0,1c-1,0,-1,0,-1,0c-1,0,-1,0,-1,0c0,0,-1,0,-1,0l0,-1l-1,0l0,1c0,0,-1,0,-1,0c-1,0,-1,0,-1,0c0,0,-1,0,-1,0l-1,0c0,-1,0,-1,0,-1ZM247.5,368.5c0,0,-1,1,-1,1l0,1l-1,1c1,0,2,-1,2,-1c1,0,1,-1,1,-1l0,-1l-1,0ZM245.5,373.5c0,1,0,1,0,2c1,0,1,1,1,1l1,0c1,0,1,0,1,0c0,-1,0,-1,-1,-2c0,0,-1,0,-2,-1ZM245.5,360.5l4,-2l0,1l-4,2ZM235.5,357.5l1,0c0,0,1,0,2,0c0,0,0,1,1,1l0,-1l1,0l1,0c-1,1,-1,1,-2,1l-1,0l0,1l-1,-1l-1,0l-1,0l-1,0c0,0,1,-1,1,-1ZM322.5,367.5l1,0c0,-1,1,-1,1,-1l1,0c0,0,1,-1,1,-1c1,0,1,0,1,0l-1,-1l1,-2l1,1l1,0c0,0,1,1,1,1l-1,2l-1,0c-1,0,-1,0,-2,0c-1,0,-2,1,-2,1c-1,0,-1,0,-1,0l1,0l1,1l1,1c1,0,2,0,2,0c1,0,1,0,2,0l1,0l1,0l-1,2l-2,0l-1,0c0,0,-1,0,-1,0l-1,0c-1,0,-1,0,-1,1l-2,1l-1,0l-1,0l-1,0l-1,0c-1,0,-1,0,-1,0c0,0,0,1,0,1c0,1,-1,2,-1,2c0,1,0,1,0,1c-1,0,-1,1,-1,1c0,0,-1,0,-1,0c0,1,-1,1,-1,1c0,0,-1,0,-1,0c-1,0,-1,0,-2,-1c0,0,-1,0,-1,0c0,0,1,0,1,0l1,0c0,0,1,0,1,0c0,0,1,-1,1,-1c1,0,1,0,1,-1c0,0,1,0,1,0c0,-1,0,-1,0,-1c1,-1,1,-1,1,-1c0,-1,0,-1,0,-1c0,0,0,-1,0,-1c0,0,-1,0,-1,0l0,-1l1,0c0,-1,0,-1,0,-1c0,1,0,1,0,1l1,0l1,1l1,-1l1,0l1,0c1,0,1,0,1,0l1,0l1,-1l1,0l-1,0l-1,0l0,-1l-1,0l-1,0l-1,0l-1,0c0,0,1,-1,1,-1l1,-1ZM327.5,357.5l4,-2c0,1,0,1,0,1l-4,2ZM324.5,377.5l-2,-1l1,-1l1,1ZM319.5,355.5l1,0c0,0,1,0,1,0c1,0,1,0,2,0c0,1,0,1,0,1l0,1c-1,0,-1,0,-1,0c-1,0,-1,0,-1,1c0,0,-1,0,-1,0c0,0,-1,0,-1,0l2,-1c0,0,1,0,1,-1c-1,0,-1,0,-1,0c-1,0,-1,0,-2,0c0,-1,0,-1,0,-1ZM307.5,373.5l-1,0c0,0,-1,0,-1,0l-1,0l0,1l0,1c0,1,0,2,0,2c0,1,-1,1,-2,1c-1,0,-1,-1,-2,-2c0,0,0,-1,0,-3l-1,0c0,0,-1,0,-1,0l-1,0l-1,0c-1,0,-1,0,-2,0c0,-1,-1,-2,-1,-2l0,-9l1,-2l0,10l0,1l1,0c0,0,0,1,1,1l1,0l1,0l1,0l0,-1l1,0c0,0,0,-1,1,-1l0,-1c0,0,0,-1,1,-1c0,-1,1,-2,2,-2l0,1l0,1l0,1c0,0,0,1,0,1c-1,1,-1,1,-2,2l1,0l1,0l1,0l1,0l1,0l1,0c0,0,0,-1,1,-1c1,0,1,0,1,0c0,0,0,-1,0,-1c0,-1,0,-1,-1,-1l1,-2c0,1,0,1,1,1l0,1l0,1c0,1,0,1,0,1l0,1c0,0,-1,0,-1,0c0,0,0,1,-1,1c-1,0,-1,0,-2,0ZM303.5,368.5l-1,0c0,0,0,1,0,1l-1,1l0,1c1,0,1,-1,2,-1c0,0,1,-1,1,-1l-1,-1ZM301.5,373.5c0,1,0,1,0,2c0,0,0,1,1,1l1,0l1,0c0,-1,0,-1,-1,-2c-1,0,-1,0,-2,-1ZM301.5,360.5l4,-2l0,1l-1,0l-4,2ZM355.5,373.5l0,-1l1,-1l-1,-8l1,-3l0,11c0,1,0,1,0,1c0,1,0,1,-1,1ZM351.5,373.5c0,0,-1,0,-1,0l-1,-1c0,0,-1,-1,-1,-1c0,0,0,1,-1,1c0,1,-1,1,-1,1c-1,0,-1,0,-2,0c0,-1,-1,-2,-1,-3l0,1c0,0,0,1,-1,1c0,0,-1,0,-1,0c-1,0,-1,0,-2,0l0,-1c0,0,0,-1,0,-1c1,0,1,-1,1,-1c1,0,1,-1,2,-1l0,-1l1,0l0,-1c0,-1,1,-1,1,-1l0,1l0,1l0,3c0,0,0,1,1,1l1,0c0,0,1,0,1,0c0,0,1,-1,1,-1c0,-1,0,-2,0,-3c-1,0,-1,-1,-1,-1c0,0,0,-1,0,-1l0,-1l1,-1l0,2l0,2l1,2c0,1,0,1,0,1c0,0,1,1,1,1l1,0l1,0c0,-1,0,-1,0,-1c0,0,0,-1,0,-1l-1,-2l0,-1l0,-1l0,-1l0,-1c0,1,0,1,0,1c1,1,1,1,1,2l0,2c0,0,0,1,0,1c0,1,0,2,0,2c0,1,0,1,-1,1c0,0,0,1,0,1ZM343.5,368.5c-1,0,-1,1,-1,1l-1,0c0,0,0,1,-1,1c1,0,2,0,2,0c1,0,1,0,1,-1ZM345.5,359.5l0,1c1,1,1,1,1,1c0,-1,1,-1,1,-1l0,-1l0,1c1,0,1,0,1,0c0,0,1,0,1,-1l0,-1l0,1l0,1c0,1,0,1,0,1l-1,0c0,0,-1,0,-1,0l0,1c-1,0,-1,0,-1,0c-1,0,-1,0,-1,0l0,-1l0,-1l0,-1ZM343.5,376.5l-4,2c0,0,1,-1,1,-1l4,-2ZM391.5,377.5l-1,-1l1,-1l1,1ZM389.5,372.5c0,0,1,-1,1,-1c1,0,1,0,1,0c0,-1,0,-1,0,-1c-1,-1,-1,-1,-1,-2l-1,0l0,-1l0,-1l0,-1c1,1,1,1,1,1c0,1,1,1,1,1l0,1l1,1c0,0,0,1,0,1l0,1c0,0,0,1,0,1c-1,0,-1,0,-1,0c0,1,0,1,-1,1l-1,0l-1,0l-1,0l0,-1c0,0,0,-1,0,-1l-1,0c0,1,0,1,0,1c-1,1,-1,1,-2,1c0,0,-1,-1,-1,-1l-1,0c0,1,0,1,-1,1c-1,0,-2,0,-2,-1l-1,0c0,1,-1,1,-1,1l-1,0c-1,0,-1,0,-2,0l0,-1c-1,1,-1,1,-1,2l-1,0l-1,-1c-1,0,-1,0,-1,0l-1,0l0,1c0,0,-1,1,-1,1c-1,0,-1,1,-2,1c-1,0,-3,0,-4,0l4,-2l2,-1c0,0,1,0,1,-1l1,-1c0,-1,0,-1,1,-2l1,0c0,0,1,0,1,1c1,0,1,1,1,1c1,0,1,0,1,0c0,0,1,1,1,1l1,-1l1,0c1,0,1,-1,2,-1l0,1l1,1c0,0,1,-1,1,-1c0,0,1,0,1,-1l0,-1l1,0c0,1,0,1,0,2l1,0l1,0c0,0,0,-1,0,-1l1,-1c0,2,1,3,1,3l1,0ZM392.5,379.5l-4,2c0,0,0,-1,0,-1l4,-2ZM380.5,362.5l1,0c0,0,1,0,1,0c1,0,1,0,2,0l0,1c0,0,0,1,0,1c-1,0,-1,0,-1,0c-1,1,-1,1,-1,1c0,0,-1,0,-1,0c0,0,-1,0,-1,0l2,-1c0,0,1,0,1,-1c-1,0,-1,0,-1,0c-1,0,-1,0,-2,0c0,0,0,-1,0,-1ZM372.5,372.5l0,-1c0,0,0,-1,-1,-1l0,1l0,1l1,0Z" class="g1_46" />
<path fill-rule="evenodd" d="M345.5,527.5l4,-2l0,1l-4,2ZM218.5,573.5l-1,1l0,1l0,1l0,1l0,-1l0,-1l0,-1c0,-1,0,-1,0,-1c0,0,1,-1,2,-1l1,0ZM218.5,575.5c0,-1,1,-1,1,-1c0,0,0,-1,1,-1l0,1c0,1,0,1,0,1l0,1l1,0l-1,1l-1,0l0,1c-1,0,-1,0,-1,0l-1,0l0,1l-1,0l0,-1l1,0l1,0c0,0,0,-1,0,-1l1,0l0,-1l-1,0l0,-1ZM219.5,575.5l0,-1c0,0,0,1,0,1l0,1l1,0l0,-1c0,0,-1,0,-1,0ZM179.5,570.5c-1,0,-1,0,-1,1c-1,1,-1,1,-1,1l0,1l1,0c0,0,0,1,0,1l-1,0l0,-1l0,-1l0,-1c0,0,1,-1,1,-1l1,-1l1,0ZM179.5,572.5c0,0,0,-1,0,-1c0,0,1,0,1,0c1,0,1,0,1,1l0,1l-1,0l1,1l0,1l-1,-1l-1,0l0,1c0,0,-1,1,-1,1l-1,0l0,-1l1,0l1,-1c0,-1,-1,-1,-1,-1c0,-1,1,-1,1,-1ZM180.5,572.5l-1,0l0,1l1,0l0,-1ZM262.5,577.5c0,0,0,-1,1,-1c0,0,1,0,1,0c1,0,1,0,2,0c0,0,0,1,0,1c0,1,0,1,0,1c-1,0,-1,1,-1,1c-1,0,-1,0,-1,0c0,0,-1,0,-1,0c0,0,-1,0,-1,0l2,0c0,-1,1,-1,1,-1c0,0,0,-1,0,-1c-1,0,-1,0,-1,0c-1,0,-1,0,-2,1c0,-1,0,-1,0,-1ZM226.5,575.5c1,0,1,0,1,-1c1,0,1,0,2,0c0,0,1,0,1,0c0,1,1,1,1,1c-1,1,-1,1,-1,1c0,1,0,1,-1,1c-1,0,-1,0,-1,0l-1,0l1,0c1,-1,1,-1,2,-1c0,0,-1,0,-1,0c0,-1,0,-1,-1,-1c0,0,-1,1,-1,1l-1,0c0,0,0,-1,0,-1ZM183.5,573.5c0,0,1,0,1,0c0,0,1,0,1,0c1,0,1,0,2,0l0,1c0,0,0,1,0,1c-1,0,-1,0,-1,0l0,1c-1,0,-1,0,-1,0c0,0,-1,0,-1,0c0,0,-1,0,-1,0l2,-1c0,0,1,0,1,-1c-1,0,-1,0,-1,0c-1,0,-1,0,-1,0c-1,0,-1,0,-1,0c0,0,0,-1,0,-1ZM170.5,584.5c0,1,0,2,0,2l0,1l-1,0c0,1,0,1,0,1l1,0l0,1l-1,0l0,1c0,0,-1,0,-1,0l0,1c-1,0,-1,0,-2,0l0,1l-1,0l-1,0l-1,0l0,1l-1,1l-1,0l-1,0l-3,0l-1,0l-1,-1c0,-1,0,-1,0,-1c-1,0,-2,0,-3,-1l-1,0l0,-1l-1,0l-1,-1l-1,0l0,-1l2,0l-1,0l0,-1l-1,-1l0,-1l0,-1l0,-1l0,-1l1,-1l0,-1l-1,-1l1,0l0,-1l1,0l1,-1l1,0l1,-1l2,0l0,-1l1,-1c0,0,1,0,1,-1l3,0l1,0l1,0l0,1l1,1l1,1l2,0l0,1l1,0l1,0l0,1l1,0c0,0,1,1,1,1l-1,1l1,1l0,1l0,1ZM161.5,594.5l1,0l0,-1l1,0l1,-1c0,0,1,0,1,0c0,0,0,-1,0,-1l1,0c1,0,1,0,1,-1l1,0c0,0,0,-1,0,-1l1,0l1,0l-1,-1l0,-1l1,0l0,-1l0,-1l0,-1c0,-1,0,-2,0,-2c0,0,0,-1,0,-1l-1,0c0,0,0,-1,0,-1l1,-1c-1,0,-1,0,-2,-1l-1,-1l-1,0l-1,-1l-1,0c-1,0,-1,0,-1,-1l-1,-1l-1,0l-1,0l-1,0l-2,0l-1,0l-1,1c0,1,0,1,0,1l-2,1l-1,0l-1,0l0,1l-1,0c0,0,-1,1,-1,1l1,1l-1,0l0,1l0,1l-1,0l0,1c0,0,0,1,0,1l0,1l0,1l1,0l0,1l1,1l-1,1l1,0l0,1l1,0l0,1l1,0l1,0l0,1l2,0l1,0l0,1c1,1,1,1,1,1l3,0ZM167.5,579.5l-1,0l-1,-1c-1,0,-1,0,-1,0c0,-1,0,-1,0,-1l1,0l0,1l1,0l1,1ZM167.5,589.5l0,1l-1,0l-1,0l0,1l-1,0l0,-1l1,0l0,-1c1,0,1,0,1,-1l1,1ZM163.5,591.5l-1,1l-1,0l-1,0l-3,0c0,0,-1,0,-1,0l0,-1c0,0,0,-1,0,-1l1,0l3,0l1,0l1,0l1,0l0,1ZM163.5,577.5c0,0,0,1,-1,1l-1,0l-1,0l-3,0c0,0,-1,0,-1,0l0,-1c0,0,0,-1,0,-1l1,0l3,0l1,0l1,0c0,0,1,0,1,1ZM161.5,580.5l1,-1c0,0,1,0,1,0c1,0,1,0,1,0c0,0,1,1,1,1l1,1l1,-1l0,1l1,0l0,1l0,1l0,1l0,1l0,1c0,1,-1,1,-1,1l0,1l-1,-1l-1,1l-1,0l0,1l-1,0c-1,0,-1,0,-1,0c0,0,0,-1,0,-1l-1,0l-1,0l-3,0l-1,1l-1,0c0,0,-1,0,-1,0c0,-1,-1,-1,-1,-1l0,-1l-2,1l0,-1l0,-1l-1,-1l0,-1c0,-1,0,-1,0,-1c0,0,0,-1,0,-1l1,0l0,-1c0,-1,0,-1,1,-1l1,1l0,-1l1,0l0,-1c0,0,1,0,1,0c1,0,1,0,1,0l1,0l0,1l3,0ZM162.5,588.5l1,0l0,1l1,-1l1,0l0,-1c0,0,1,0,1,0l1,0l0,-1l1,-1l0,-1c0,-1,0,-1,0,-2c0,0,-1,-1,-1,-1l-1,0l-1,0l0,-1l-1,0l0,-1l-1,0l-1,0l0,1l-2,0l-3,0l-1,-1l-1,0c-1,0,-1,0,-1,1l-1,0c0,1,0,1,0,1l-1,0c0,0,-1,0,-1,0l0,1l0,1l-1,1l1,1l0,1c0,1,0,1,1,1l1,0l0,1l1,0l1,0l0,1c1,0,1,-1,1,-1c0,0,1,0,1,0l3,0l1,0l1,0ZM161.5,582.5l0,1c0,1,0,1,0,1l0,1l0,1l0,-1c0,0,0,-1,-1,-2ZM158.5,583.5l0,1l0,1c0,1,0,1,1,1l1,0l-1,0l-1,0c-1,0,-1,0,-1,0l0,-1l1,0c0,0,0,-1,0,-1l-1,0l0,-1l1,0c0,0,0,-1,1,-1ZM151.5,579.5l1,0l0,-1l1,0l1,-1l1,0l0,1c-1,0,-1,0,-1,0c-1,0,-1,0,-1,0l0,1l-1,0l-1,0ZM151.5,589.5l1,0l0,-1c0,1,0,1,1,1l0,1l1,0l1,0c0,0,-1,0,-1,0c0,1,0,1,1,1c-1,0,-1,0,-1,0c-1,-1,-2,-1,-2,-1l0,-1l-1,0ZM200.5,590.5c1,0,1,-1,1,-1c0,1,0,1,0,1l1,0c1,0,2,-1,3,-1c0,0,1,-1,1,-1c0,-1,1,-1,1,-2l1,-1l0,-1l-1,0l0,-1c0,0,0,-1,-1,-1l1,-1l1,0c0,1,0,1,0,2l0,1l0,1c0,0,0,1,0,1l0,1c0,1,-1,1,-1,2l-1,0c0,1,0,1,0,1l-1,0c0,0,-1,0,-1,1l-1,0l-1,0c0,0,0,-1,0,-1c-1,0,-1,0,-1,0ZM204.5,575.5l0,1c1,0,1,0,1,0l0,-1l0,-1l1,1c0,0,0,1,0,1c0,0,1,-1,1,-1l0,-1l0,1l0,1l0,1l-1,0l0,-1l-1,0l0,1l-1,0l0,-1l0,-1ZM208.5,572.5l-6,3c1,-1,1,-1,1,-1l6,-3ZM200.5,584.5l-1,0l-1,0c-1,0,-1,0,-2,0l-1,0l-1,0l-1,1c-1,0,-1,0,-2,1l-1,0c-1,0,-1,0,-2,0l-1,0c0,0,-1,0,-1,0c-1,-1,-1,-1,-1,-1c0,-1,0,-1,0,-1c0,0,0,-1,0,-1c-1,0,-1,0,-1,0l-1,-1c0,0,-1,1,-1,1c0,0,-1,0,-1,0c1,0,1,1,1,1c0,0,1,1,1,1l0,1l0,1l-2,0c0,0,-1,0,-1,0c-1,0,-2,1,-2,1c-1,0,-1,1,-1,1c0,0,0,1,1,2c0,1,0,2,0,3c1,1,1,2,1,2l-1,1c0,0,0,-1,0,-2c0,-1,-1,-2,-1,-3c0,-1,0,-2,0,-2l0,-1c0,-1,0,-1,0,-2c0,0,1,0,1,-1l1,0c1,-1,1,-1,2,-1l-1,0c-1,0,-1,0,-1,0l-1,0l1,-1c0,0,0,-1,1,-1c0,-1,1,-1,1,-1c1,0,1,0,1,0c0,-1,1,-1,1,-1l1,0c0,0,1,0,1,0c0,1,0,1,0,1c0,1,1,1,1,1c0,1,0,1,0,1c1,0,1,1,1,1c1,0,1,0,1,0c0,0,1,0,1,0c0,0,1,0,2,-1l1,0l1,0l1,-1l-1,0l-1,-1l-1,0l-1,0l-1,0c0,0,0,-1,0,-1c1,0,1,0,1,-1c0,0,1,0,1,0l1,0l1,1l2,1l1,0l1,0l1,0c0,0,1,0,1,0l1,0ZM192.5,590.5l-4,2c0,-1,1,-1,1,-1l4,-2ZM187.5,590.5l-1,-1l-1,1l-2,-1l1,-1l2,1l0,-2l2,1ZM249.5,585.5c0,0,1,0,1,0l1,0c0,-1,0,-1,0,-1c1,0,1,0,1,-1l0,-2l-1,-6l0,-1l0,-1l1,0c0,0,0,1,0,1l1,0c0,1,0,1,0,1c-1,1,-1,1,-1,1c0,0,0,1,0,2c0,0,0,1,0,3l0,1l0,1c0,0,0,1,0,1c0,0,0,1,0,1c0,1,0,1,-1,1c0,0,-1,0,-1,0l-1,0c-1,0,-1,0,-2,0l-1,0l-1,-1c0,0,-1,0,-1,1c0,0,-1,0,-1,0c-1,0,-1,0,-1,0l-1,0l-2,0c-1,0,-2,0,-2,0c-1,0,-1,0,-1,0c-1,0,-1,0,-2,0c-1,0,-1,0,-2,0l-1,0l-1,0c0,1,0,1,0,2c0,0,-1,0,-1,1c0,0,0,1,0,1c-1,0,-1,0,-1,1c-1,0,-1,0,-1,0c0,0,-1,1,-1,1l-1,0l-1,0c0,0,-1,0,-1,-1c-1,0,-1,0,-1,0l1,0c1,0,1,0,2,0c0,0,1,-1,1,-1c0,0,1,0,1,-1l1,0c0,-1,0,-1,0,-1c0,0,1,-1,1,-1l0,-1c-1,0,-1,0,-1,0l-1,0c0,0,-1,0,-1,-1c0,0,0,-1,0,-1c0,0,0,-1,0,-1c0,0,1,0,1,0c0,0,0,-1,0,-1c0,0,1,0,1,0c0,0,1,0,1,0c0,1,1,1,1,1l0,1l0,1c1,0,1,0,1,0c0,0,1,0,1,0c0,0,1,0,1,0l1,0l0,-1l0,-1c0,0,0,-1,0,-1c0,-1,1,-1,1,-1c0,-1,0,-1,0,-1c1,-1,1,-1,2,-1c0,0,1,0,1,1c0,0,0,1,0,1l1,1l-1,0c0,1,0,1,0,1l0,1l-1,1l1,0l1,0l1,0l1,0l1,0c1,0,1,-1,1,-1c0,0,1,0,1,0c0,0,-1,-1,-1,-1l-1,0l0,-1c0,-1,0,-1,0,-1c1,0,1,0,2,0c0,-1,0,-1,1,-1c0,0,1,0,1,1l1,0l0,1c0,0,0,1,0,1c0,0,-1,1,-1,1l1,1c1,0,1,0,2,0ZM250.5,570.5l4,-2l0,1l-4,2ZM245.5,579.5l-2,-1l1,-2l2,1ZM242.5,573.5l4,-2l0,1l-1,0l-4,2ZM236.5,578.5l-1,-1l1,-1l1,1ZM236.5,581.5l-1,0c0,1,0,1,0,1c0,1,0,1,0,1c0,0,1,0,1,1c0,0,1,-1,1,-1l1,0l0,-1l-1,0c0,-1,0,-1,-1,-1ZM236.5,567.5c1,0,1,0,1,-1c0,0,1,0,1,0c0,0,1,1,1,1c0,0,0,1,0,1l-1,0c0,0,0,1,0,1l1,0l0,1l-1,0l-1,0l0,1c-1,0,-1,0,-1,0l-1,1l-1,0l1,-1l1,0c0,0,0,-1,0,-1l1,0l0,-1l-1,0l0,-1l0,-1ZM238.5,567.5l-1,0c0,1,0,1,0,1l1,0ZM228.5,583.5c0,0,0,1,0,1c-1,0,-1,0,-1,0c0,0,0,1,1,1c1,0,1,0,1,0c0,0,0,-1,0,-1c-1,0,-1,0,-1,0c0,0,0,-1,0,-1ZM214.5,590.5c0,0,0,-1,0,-1c0,1,0,1,1,1c1,0,2,-1,3,-1c1,0,1,-1,1,-1c1,-1,1,-1,2,-2l0,-1l0,-1l0,-1l-1,0c0,0,0,-1,0,-1l0,-1l1,0c0,1,0,1,1,2l0,1l0,1c0,0,0,1,0,1l0,1l-1,0c0,1,0,1,0,2c-1,0,-1,0,-1,0c0,1,-1,1,-1,1l-1,0l0,1c-1,0,-1,0,-1,0l-1,0c0,0,0,-1,-1,-1l-1,0ZM274.5,590.5c0,0,0,-1,0,-1c0,1,0,1,1,1c1,0,2,-1,3,-1c0,0,1,-1,1,-1c1,-1,1,-1,1,-2c1,0,1,0,1,-1l0,-1l-1,-1c0,0,0,-1,0,-1l0,-1l1,0c0,1,0,1,0,2l1,0l0,1l0,1c0,0,0,1,0,1c0,0,-1,0,-1,1c0,1,0,1,0,2c-1,0,-1,0,-1,0c0,1,-1,1,-1,1l-1,0l-1,1l-1,0c0,0,-1,-1,-1,-1c0,0,-1,0,-1,0ZM276.5,577.5l5,-2l-1,0c0,0,0,1,0,1l-4,2ZM275.5,589.5l-1,-1l1,-2l1,1ZM269.5,587.5c0,0,0,-1,0,-1l1,0c1,0,1,0,1,0c1,-1,1,-1,1,-1c0,-1,0,-1,0,-1c0,-1,-1,-1,-1,-1c0,0,0,-1,1,-1l0,-1c0,0,1,1,1,1c0,1,0,1,0,2c0,0,0,1,0,1c0,1,0,1,-1,1c0,0,0,1,0,1l1,0l0,1c0,1,0,1,0,1c-1,1,-1,1,-1,1c0,0,0,1,-1,1c-1,0,-1,1,-2,1c-1,0,-2,0,-3,0c-1,0,-1,0,-2,0c-1,0,-1,0,-2,-1l0,-1c0,0,-1,-1,-1,-1l0,-1c0,0,1,-1,1,-2c0,0,0,-1,1,-1c0,0,0,-1,0,-1c0,0,0,1,0,1c0,0,0,1,0,1c-1,1,-1,1,-1,2c1,1,1,1,1,2c1,0,2,1,3,1c0,0,1,0,1,0c0,0,1,-1,1,-1c0,0,1,0,1,0c1,0,1,0,2,-1c0,0,1,0,1,0c0,-1,-1,-1,-2,-1c0,0,-1,0,-1,0c0,-1,0,-1,0,-1ZM269.5,575.5l0,1c1,0,1,0,1,0l1,0l0,-1l0,-1l0,1c0,1,1,1,1,1c0,0,0,-1,0,-1l0,-1l1,0l0,1l0,1l-1,0l0,1l-1,0l0,-1l0,1c-1,0,-1,0,-1,0c-1,0,-1,0,-1,0l0,-1l0,-1ZM273.5,593.5l-4,2c0,-1,0,-1,1,-2l3,-1ZM302.5,586.5l0,-1l0,-1l0,-8l1,-3l0,11l0,1c0,1,0,1,-1,1ZM305.5,590.5l-3,2c0,-1,0,-1,0,-2l4,-1ZM294.5,580.5l-2,-1l1,-1l2,1ZM294.5,590.5c-1,0,-1,0,-2,-1c0,0,-1,0,-1,0c-1,-1,-1,-1,-1,-1c-1,-1,-1,-2,-1,-2c0,0,0,-1,0,-1c0,0,0,-1,1,-1c0,0,0,-1,0,-1c0,0,0,-1,0,-1c1,0,1,0,1,0c0,0,0,1,0,1c0,0,-1,1,-1,1c0,1,0,1,0,1c0,0,0,1,0,1c1,0,1,1,1,1c0,0,1,0,1,0c1,1,1,1,2,1c1,0,1,0,2,-1c1,0,1,0,2,-1c0,0,0,-1,0,-1c0,-1,0,-1,0,-1c0,-1,0,-1,0,-1c0,0,0,-1,-1,-1c0,0,0,-1,0,-1l1,-2l0,1l0,1c1,0,1,0,1,0c0,1,0,1,0,1c0,1,0,1,0,1l0,1l0,1c0,0,0,1,0,2c0,0,-1,1,-1,1c-1,1,-2,1,-2,1c-1,1,-2,1,-2,1ZM291.5,572.5l0,1c1,0,1,0,1,0l0,-1l0,-1l0,1l1,0l0,1c0,0,0,-1,0,-1l1,-1c0,1,0,1,0,1l0,1c0,0,-1,0,-1,1c-1,0,-1,0,-1,-1l0,1c-1,0,-1,0,-1,0c0,0,-1,0,-1,0l0,-1l0,-1ZM295.5,569.5l-6,3c0,-1,1,-1,1,-1l5,-3ZM200.5,524.5c0,-1,0,-1,0,-2c0,-1,0,-1,0,-2l1,1l0,1c0,0,0,1,0,1c0,1,-1,1,-1,1ZM167.5,552.5c0,-1,0,-1,0,-2c0,-1,0,-1,0,-2c0,0,1,0,1,1l0,1c0,0,0,1,0,1c0,1,0,1,-1,1ZM108.5,530.5c0,-1,0,-1,0,-2c0,-1,0,-1,0,-2l1,1l0,1c0,0,0,1,0,1c0,1,-1,1,-1,1ZM287.5,529.5c0,0,0,-1,1,-1l1,0c0,0,1,0,1,0c1,1,1,1,1,1c0,1,-1,1,-1,1c0,1,0,1,0,1c-1,0,-1,0,-1,0c-1,0,-1,0,-1,0l-1,0l1,0c1,-1,2,-1,2,-1l-1,0c0,-1,0,-1,0,-1c-1,0,-1,1,-2,1l-1,0c0,-1,0,-1,0,-1c0,0,1,0,1,0ZM263.5,530.5l1,0c0,-1,0,-1,1,-1c0,0,1,0,1,1c1,0,1,0,1,0c0,1,0,1,-1,1c0,1,0,1,0,1c0,0,-1,0,-1,0c-1,0,-1,0,-1,0l-1,0l2,0c0,0,1,-1,1,-1l-1,0c-1,0,-1,0,-2,0l-1,0c0,0,0,-1,1,-1ZM78.5,535.5l1,0c0,0,0,-1,0,-1c0,0,1,0,1,0l0,-1l0,-1l-1,-2l0,-1l1,0c0,1,0,1,0,1l0,1l0,1l0,1l0,1l1,-1c1,0,1,-1,1,-1c1,0,1,0,1,1c0,0,1,0,1,0c0,1,0,1,0,1l-1,0c0,0,0,1,0,1l-1,0l-1,0c0,0,-1,0,-1,0ZM82.5,533.5l-1,1l-1,0l0,1c1,0,1,0,1,-1c1,0,1,0,1,0c0,0,1,0,1,0l0,-1c-1,0,-1,0,-1,0ZM135.5,536.5l-1,0l0,1c0,0,1,0,1,0c0,0,1,0,1,0c-1,0,-1,-1,-1,-1ZM135.5,544.5c0,0,-1,0,-1,0l0,1c-1,0,-1,0,-2,0c-1,0,-1,0,-2,-1c0,0,-1,0,-1,0c0,0,1,0,1,0l1,0c1,0,1,0,1,0l1,0c0,-1,0,-1,0,-1c1,0,1,0,1,-1c1,0,1,0,1,0c0,-1,1,-1,1,-2c0,0,0,-1,0,-1l0,-1c0,1,0,1,0,1c0,0,-1,0,-1,0c0,0,-1,0,-1,0c-1,0,-1,-1,-1,-1c0,0,0,-1,0,-1c0,0,0,-1,0,-1c0,0,1,-1,1,-1c0,0,0,-1,0,-1c1,0,1,0,1,0c1,0,1,0,1,0c0,0,0,1,1,1c0,0,0,1,0,1c0,0,0,1,0,1c0,0,0,1,0,1c0,0,0,1,0,1c0,1,0,2,-1,3c0,0,0,1,0,1c-1,0,-1,0,-1,1ZM132.5,530.5l4,-2l0,1l-4,2ZM128.5,539.5c0,1,0,1,0,1l-1,0l0,-1c0,0,-1,0,-1,0l-1,-1l0,1c0,0,-1,1,-1,1l-1,0l-1,0c0,1,0,1,0,1c-1,1,-1,2,-1,2c0,0,0,1,-1,1l0,1c-1,0,-1,0,-1,0c-1,0,-1,1,-1,1c-1,0,-1,0,-1,0l-1,0c0,0,-1,0,-1,-1c-1,0,-1,0,-1,0l1,0c1,0,1,0,2,0c0,-1,1,-1,1,-1c0,0,1,0,1,-1l1,0c0,-1,0,-1,0,-1c0,-1,1,-1,1,-2l0,-1l-1,0l0,-1c0,0,0,-1,0,-1c1,0,1,0,1,0c0,0,0,1,0,1l1,0l1,0c1,0,1,0,1,0l1,0l0,-1c1,-1,1,-1,1,-2l1,0c1,0,1,0,1,0c0,1,1,1,1,1l0,1l0,1l0,1c0,0,-1,0,-1,0ZM126.5,537.5l1,0l1,1c0,0,0,-1,0,-1c-1,0,-1,-1,-1,-1c0,0,-1,1,-1,1ZM126.5,524.5l0,-1c1,0,1,0,1,0c1,0,1,1,1,1c0,0,0,1,0,1c0,0,-1,1,-1,1l1,0l0,1l-1,0l-1,0l0,1c0,0,-1,0,-1,0l-1,1c0,0,-1,0,-1,0l1,-1l1,0c0,0,0,-1,0,-1l1,0l0,-1c0,0,-1,0,-1,-1l1,-1ZM127.5,524.5l-1,0c0,0,0,1,0,1l1,0ZM116.5,529.5c0,0,1,0,1,0c1,0,1,0,2,0c0,0,1,0,1,0c0,0,1,0,1,0c0,1,0,1,-1,1l0,1c0,0,-1,0,-1,0l-1,1l-1,0l-1,0l2,-1c1,0,1,0,2,-1c-1,0,-1,0,-1,0c0,0,-1,0,-1,0c0,0,-1,0,-1,0c0,0,-1,0,-1,0c0,-1,0,-1,0,-1ZM106.5,538.5l0,1c-1,0,-1,1,-1,1l-1,0c0,0,-1,0,-1,0c0,0,-1,0,-1,0l-1,0l0,1c1,0,1,0,1,0c0,1,0,1,0,1c0,1,0,2,-1,2c0,1,0,1,-1,1c0,0,-1,0,-1,0c0,-1,-1,-1,-1,-2c0,0,-1,-2,-1,-3c-1,0,-1,0,-1,0l-1,0l-2,0c0,0,-1,0,-1,-1c-1,0,-1,-1,-1,-2l-1,-8l1,-2l1,10l0,1c0,0,1,0,1,0l2,0l1,0l1,0l1,0c0,0,0,-1,0,-1l0,-1c1,0,1,0,1,0c0,-1,0,-1,0,-1c1,-1,1,-2,2,-2l1,1l0,1c0,1,-1,2,-1,2c0,1,-1,1,-2,2l2,0l1,-1l1,0l1,0l1,0l1,0c0,-1,0,-1,1,-1l0,1l1,0c1,0,1,0,1,0l1,0c0,-1,0,-1,0,-1c0,0,1,0,1,-1l0,1c0,1,0,1,0,1c1,0,1,0,1,0l1,0l0,-1l0,-1l1,0l0,1l0,1l0,1l-1,1c-1,0,-1,0,-1,0c-1,0,-1,0,-1,-1l-1,0c0,1,-1,1,-1,1c-1,0,-1,0,-1,0c0,0,-1,0,-1,0l-1,-1l0,-1ZM100.5,535.5c0,0,-1,0,-1,1l0,1l-1,1c1,0,2,-1,2,-1c1,0,1,-1,1,-1c0,0,0,-1,0,-1c0,0,-1,0,-1,0ZM98.5,540.5c0,1,0,1,0,1c0,1,1,1,1,2l1,0c1,0,1,0,1,0c0,-1,0,-1,-1,-2c0,0,-1,0,-2,-1ZM98.5,527.5l4,-2l0,1l-4,2ZM88.5,524.5l1,0c0,0,1,0,1,0c1,0,1,0,2,0l1,0c0,1,0,1,-1,1l-1,0l-1,0l-1,0l-1,0l-1,0c0,0,1,-1,1,-1ZM175.5,534.5l1,0c0,-1,1,-1,1,-1c1,-1,2,-1,2,-1c1,0,1,0,1,0l-1,-1l1,-2l1,1l1,0l1,1l-1,2l-1,0c-1,0,-2,0,-2,0c-1,0,-2,1,-3,1l1,0l1,1l1,0c1,1,2,1,2,1c1,0,1,0,1,0c1,0,1,0,2,0l1,0l-1,2l-2,0l-1,0c0,0,-1,0,-1,0l-1,0c-1,0,-1,0,-1,0l-2,1c0,0,-1,0,-1,1l-1,0l-1,0l-1,0l-1,0c0,1,0,1,0,1c0,1,-1,2,-1,2c0,0,0,1,0,1c-1,0,-1,0,-1,1c-1,0,-1,0,-1,0c0,0,-1,1,-1,1c0,0,-1,0,-1,0l-1,0l-1,-1c0,0,-1,0,-1,0c0,0,1,0,1,0l1,0c0,0,1,0,1,0c0,-1,1,-1,1,-1c1,0,1,0,1,-1c0,0,1,0,1,0c0,-1,0,-1,0,-1c1,-1,1,-1,1,-2l0,-1c-1,0,-1,0,-1,-1l1,0c0,0,0,-1,0,-1c0,0,0,1,0,1l1,0l1,0l1,0l1,0l1,0c0,0,1,0,1,0l1,0l1,-1l-1,-1l-1,0l-1,0l-1,0l-1,0c0,0,1,-1,1,-1c0,0,0,-1,1,-1ZM180.5,524.5l4,-2c0,0,0,1,0,1l-5,2ZM176.5,544.5l-1,-1l1,-2l1,1ZM172.5,522.5l1,0c0,0,1,0,1,0c1,0,1,0,2,0l0,1l-1,1l-1,0c0,0,-1,0,-1,0c-1,0,-1,0,-1,0l2,0c0,0,1,-1,1,-1c-1,0,-1,0,-1,0c-1,0,-1,0,-2,0l0,-1ZM160.5,540.5l-1,0c0,0,-1,0,-1,0l-1,0l0,1c0,1,0,1,0,1c0,1,0,2,0,2c0,1,-1,1,-2,1l-1,0c0,-1,0,-1,-1,-2c0,0,0,-2,0,-3l-1,0c0,0,-1,0,-1,0l-1,0l-1,0c-1,0,-1,0,-2,-1c0,0,-1,-1,-1,-2l0,-8l1,-2l0,10l1,1l1,0l1,0l1,0l1,0l1,0c0,0,0,-1,1,-1l0,-1c0,-1,0,-1,0,-1c1,-1,2,-2,3,-2l0,1l0,1c0,1,0,2,0,2c-1,1,-1,1,-2,2l1,0l1,0l1,-1l1,0l1,0c1,0,1,0,2,0c0,0,1,0,1,0l0,-1l0,-1l-1,0l0,-1l1,-1c0,0,0,1,0,1c1,0,1,0,1,0c0,1,0,1,0,1c0,1,0,1,0,1c0,1,0,1,0,1c-1,1,-1,1,-1,1c0,0,-1,1,-1,1c-1,0,-1,0,-2,0ZM156.5,535.5c0,0,-1,0,-1,0l0,1l-1,1l0,1c1,0,1,-1,2,-1c0,0,1,-1,1,-1c0,0,-1,-1,-1,-1ZM154.5,540.5c0,1,0,1,0,1c0,1,0,1,1,2l1,0l1,0c0,-1,-1,-1,-1,-2c-1,0,-1,0,-2,-1ZM154.5,527.5l4,-2l-1,1l-4,2ZM208.5,540.5l0,-1l0,-1l0,-9l1,-2l0,11c0,0,0,1,0,1c0,0,0,1,-1,1ZM204.5,539.5c0,0,0,1,0,1c-1,0,-1,0,-1,0c0,0,-1,0,-1,-1c0,0,-1,-1,-1,-2c0,1,0,2,-1,2c0,1,-1,1,-1,1c-1,0,-1,0,-2,-1c0,0,-1,-1,-1,-2c0,0,0,1,0,1l-1,1c0,0,-1,0,-1,0c-1,0,-1,0,-2,0c0,0,0,-1,0,-1c0,-1,0,-1,0,-1c0,-1,1,-1,1,-1c0,0,1,-1,2,-1l0,-1l1,0l0,-1c0,-1,0,-1,1,-1l0,1l0,1l0,2c0,1,0,1,0,1c0,0,0,1,1,1l1,0c0,0,1,0,1,0c0,-1,0,-1,1,-1c0,-1,0,-2,-1,-3c0,0,0,-1,0,-1c0,-1,0,-1,0,-1l0,-1l1,-1l0,2l0,2l1,2c0,0,0,1,0,1c0,0,1,0,1,1l1,0l0,-1c1,0,1,0,1,0c0,0,0,-1,-1,-1l0,-2l0,-1l0,-1c0,0,0,-1,0,-1l0,-1c0,0,0,1,0,1c0,1,1,1,1,1l0,2c0,1,0,2,0,2c0,1,0,2,0,2c0,0,0,1,-1,1ZM196.5,535.5l-1,0l0,1l-1,0c0,0,0,1,-1,1c1,0,2,0,2,0c1,0,1,-1,1,-1ZM198.5,526.5l0,1c0,1,1,1,1,1l0,-1l1,0l0,-1l0,-1l0,1c0,0,1,1,1,1c0,0,1,0,1,-1l0,-1l0,1l0,1c0,1,0,1,-1,1c0,0,-1,0,-1,0c-1,1,-1,1,-1,1c-1,0,-1,0,-1,0c0,0,0,-1,0,-1c0,0,0,-1,0,-1l0,-1ZM196.5,543.5l-4,2c0,0,1,-1,1,-1l4,-2ZM244.5,544.5l-1,-1l1,-1l1,1ZM242.5,538.5c0,0,1,0,1,0c0,0,1,0,1,0l0,-1c-1,-1,-1,-2,-1,-2l-1,0c0,0,0,-1,0,-1l0,-1l0,-1c1,1,1,1,1,1c0,0,1,1,1,1l0,1l0,1c1,0,1,1,1,1l0,1c0,0,0,1,-1,1c0,1,0,1,-1,1l-1,0l-1,0l-1,0l0,-1c0,-1,0,-1,-1,-1c0,1,0,1,0,1c-1,1,-1,1,-2,1c0,0,-1,-1,-1,-2l-1,1c0,1,-1,1,-1,1c-1,0,-2,0,-2,-2c0,1,0,1,-1,1c0,1,-1,1,-1,1l-1,0c-1,0,-1,0,-2,0c0,0,0,-1,0,-1c-1,1,-1,1,-1,2l-1,0l-1,-1c-1,0,-1,0,-1,0l-1,0l0,1c0,0,-1,0,-1,1c-1,0,-1,0,-2,1c-1,0,-3,0,-4,0l4,-2l2,-1c0,0,1,0,1,-1l1,-1c0,-1,0,-2,1,-2l1,0c0,0,1,0,1,1c1,0,1,1,1,1c1,0,1,0,1,0c0,0,1,0,1,0l1,0l1,0c0,0,1,-1,1,-1l1,0c0,1,0,1,1,1c0,0,1,0,1,0c0,0,1,-1,1,-1l0,-1l1,0c0,1,0,1,0,1c0,1,0,1,1,1l1,0c0,0,0,-1,0,-1l0,-1l1,0c0,2,1,2,1,2l1,0ZM245.5,546.5l-4,2c0,-1,0,-1,0,-1l4,-2ZM233.5,529.5l1,0c0,0,1,0,1,0c1,0,1,0,2,0c0,1,0,1,0,1l-1,1l-1,0c0,1,-1,1,-1,1c-1,0,-1,0,-1,-1l2,0c0,0,1,-1,1,-1l-1,0c-1,0,-1,0,-2,0c0,-1,0,-1,0,-1ZM225.5,539.5l0,-1c0,-1,0,-1,-1,-1c0,1,0,1,-1,1c0,0,1,0,1,0l1,1ZM224.5,546.5l-4,2c0,-1,1,-1,1,-1l4,-2ZM270.5,530.5l-1,-1l1,-1l1,1ZM273.5,538.5c-1,1,-1,1,-1,1c0,1,-1,1,-2,1c0,0,-1,0,-1,0l-1,0l-2,0c-1,0,-1,0,-1,0l0,-1c0,0,-1,0,-1,0c0,0,-1,0,-1,0c-1,1,-1,1,-1,1c0,0,0,1,0,1l-1,0l0,1c0,0,1,1,1,1l0,1l0,1c-1,0,-1,1,-1,1c0,0,0,-1,-1,-1l0,-1c0,-1,-1,-2,-1,-2c0,-1,1,-2,1,-2c-1,0,-1,0,-2,0l-1,0l-1,0c-1,0,-1,0,-2,-1c0,0,-1,-1,-1,-2l0,-8l1,-2l0,10l1,0l0,1c0,0,1,0,1,0l1,0l1,0l1,0c0,0,1,0,1,0l1,0c0,-1,1,-1,1,-1c0,1,0,1,0,1l-1,0l0,1c0,0,-1,1,-1,2c0,1,1,2,1,2c0,0,0,-1,0,-1c0,0,0,-1,0,-1c0,0,0,-1,0,-1c0,0,1,0,1,0c0,-1,0,-1,0,-1c0,0,1,-1,1,-1c1,0,1,0,1,0c0,-1,0,-1,0,-1c1,0,1,0,1,0c0,0,0,1,0,1c1,0,1,0,1,0l2,0l1,0c0,0,1,0,1,0c1,0,2,0,2,-1c1,0,1,0,1,0c0,0,0,-1,-1,-1c-1,0,-1,1,-1,1l-1,0c0,0,-1,-1,-1,-1c0,0,0,-1,0,-1c0,0,0,-1,0,-1l0,-1c0,0,1,-1,1,-1c0,0,1,-1,1,-1c0,0,1,1,1,1c0,0,0,1,1,1l0,1l0,1c0,1,0,1,0,2l0,1ZM270.5,534.5l0,1l1,0c0,0,0,-1,1,-1c0,0,-1,0,-1,0l0,-1l-1,0c0,0,0,1,0,1ZM273.5,543.5l-5,2c1,0,1,-1,1,-1l4,-2ZM267.5,543.5l-2,0l-1,1l-1,-1l1,-2l1,1l1,-1l2,1ZM256.5,530.5l4,-2l0,1l-1,0l-4,2ZM335.5,540.5l1,-1l0,-1l-1,-9l1,-2l0,11c0,0,0,1,0,1c0,0,0,1,-1,1ZM324.5,543.5c1,0,1,0,1,0l1,0c1,0,2,0,2,-1c1,0,1,0,2,-1c0,0,1,-1,1,-1c0,0,0,-1,0,-1c0,0,1,0,1,-1c0,0,-1,0,-1,0l0,-1l0,-1l-1,0l1,-1l0,-1l0,1c1,0,1,1,1,1l0,1l0,1c0,1,0,1,0,2c0,1,0,1,0,1c-1,1,-1,1,-1,1c0,0,0,1,-1,1l-1,1c0,0,-1,0,-1,0c0,0,-1,0,-1,0l-1,0l-1,0l-1,-1ZM326.5,529.5c0,0,1,0,1,0c1,0,1,0,1,0c1,0,1,0,2,0c0,1,0,1,0,1l0,1c0,0,-1,0,-1,0c0,0,-1,0,-1,1l-1,0l-1,0l2,-1c1,0,1,0,2,-1c-1,0,-1,0,-1,0c0,0,-1,0,-1,0c0,0,-1,0,-1,0c0,0,-1,0,-1,0c0,-1,0,-1,0,-1ZM322.5,539.5c0,0,-1,0,-2,0c-1,0,-2,0,-4,0c-1,0,-2,0,-2,0c-1,0,-1,0,-1,0c-1,1,-1,1,-1,1c-2,0,-3,0,-5,0c-1,0,-2,0,-3,0c-1,0,-2,0,-3,0l-1,0l-1,0l-1,0l-1,-1l-1,0c-1,1,-1,1,-1,1c-1,0,-1,0,-1,0l-1,0l-1,0c0,0,0,1,0,1c0,0,0,1,-1,1c0,1,0,1,0,1c-1,1,-1,1,-1,1c-1,1,-1,1,-1,1l-1,0c-1,0,-1,0,-1,0l-1,0c0,0,-1,0,-1,0c-1,0,-1,0,-1,0l0,-1l1,1c1,0,1,-1,2,-1c0,0,1,0,1,0c0,-1,1,-1,1,-1l1,-1c1,-1,1,-1,1,-1c0,0,0,-1,0,-1c0,0,-1,0,-1,0l-1,0c0,0,-1,-1,-1,-1c0,0,0,-1,0,-1c0,-1,0,-1,0,-1c1,0,1,-1,1,-1c0,0,1,-1,1,-1c0,0,1,0,1,0c0,1,0,1,0,1c1,0,1,0,1,1c0,1,0,1,0,1c1,0,1,0,1,0l1,0l1,0l1,0l1,-1c0,0,1,0,1,0l0,1c0,0,1,0,1,0l1,0c0,0,1,0,1,0l1,0c1,0,2,0,3,0c0,0,1,0,3,0c1,0,2,0,4,0l1,0c1,0,2,0,3,0c2,-1,3,-1,4,-1c2,0,3,0,3,0l0,-1l-1,0c-1,0,-1,0,-1,0c-1,0,-3,0,-5,0c-2,0,-3,0,-5,0c-2,1,-4,1,-5,1c-2,0,-3,-1,-4,-1l0,-1l1,-1c0,-1,0,-1,0,-1c0,0,1,-1,1,-1c1,-1,2,-1,2,-2c1,-1,2,-1,3,-2l1,0l-1,2l-1,0c-1,1,-2,1,-2,2c-1,1,-2,1,-2,2l-1,0c0,1,0,1,1,1l1,0c0,0,1,0,1,0l1,0c1,0,2,0,4,0c2,0,4,-1,6,-1c2,0,3,0,4,0c1,0,1,0,2,0c1,1,1,1,1,1c0,1,0,1,0,1c0,1,0,1,0,2c0,1,0,1,-1,1ZM307.5,524.5l5,-3c0,1,0,1,0,2l-6,2ZM297.5,544.5l-2,-1l1,-1l1,0ZM295.5,524.5l0,-1c1,0,1,0,1,0c1,0,1,0,1,0c0,0,0,1,0,1c0,0,0,1,0,1c0,0,0,1,0,1l0,1l-1,0l-1,1l-1,0l0,1l-1,0l0,-1l1,0c0,0,0,-1,1,-1l0,-1l0,-1l0,-1ZM296.5,524.5c0,0,-1,0,-1,0c0,0,0,1,1,1ZM290.5,537.5c0,0,-1,0,-1,0c0,1,0,1,0,1c0,0,1,0,1,0l1,0c0,-1,-1,-1,-1,-1ZM282.5,540.5l0,-1l0,-1l0,-9l1,-2l0,11c0,0,0,1,0,1c0,0,0,1,-1,1ZM373.5,536.5c0,0,-1,0,-1,1c1,0,1,0,1,0l1,0c0,0,0,-1,0,-1c-1,0,-1,0,-1,0ZM373.5,544.5c-1,0,-1,0,-1,1c-1,0,-1,0,-2,0c-1,0,-1,0,-2,-1l-1,0c1,0,1,0,1,0c0,0,1,0,1,0l1,0c1,0,1,0,1,0c0,-1,0,-1,1,-1l1,-1c1,-1,1,-1,1,-2c0,0,1,-1,1,-1c0,0,-1,0,-1,-1c0,1,0,1,0,1c-1,0,-1,0,-1,0c0,0,-1,0,-1,0c0,0,0,-1,0,-1c-1,0,-1,0,-1,0c0,0,0,-1,0,-1l1,0c0,0,0,-1,0,-1c0,0,0,-1,0,-1c0,0,1,-1,1,-1l1,0c0,0,1,1,1,1c0,0,0,1,0,1c0,0,0,1,0,1c0,0,0,1,0,1c0,0,0,1,0,1c0,1,0,2,0,3c-1,0,-1,1,-1,1c0,0,-1,0,-1,1ZM370.5,530.5l4,-2l0,1l-4,2ZM366.5,530.5l-1,-1l-1,2l-1,-1l1,-2l1,1l1,-1l1,1ZM368.5,538.5c0,0,-1,0,-1,0c0,1,0,1,0,1c-1,1,-1,1,-2,1c-1,0,-1,0,-2,0l-1,0l-1,0c-1,0,-1,0,-2,-1c0,0,0,-1,0,-2l-1,-8l1,-2l0,10l1,0l0,1c0,0,1,0,1,0l1,0l1,0c1,0,1,0,2,0c1,0,2,0,2,-1c0,0,0,-1,0,-1c0,0,-1,0,-1,0c0,0,0,1,0,1l-1,0l-1,0c0,0,0,-1,0,-1c0,0,0,-1,0,-1c0,-1,0,-1,0,-1c0,0,0,-1,0,-1l0,-1c1,0,1,-1,2,-1c0,0,0,1,1,1c0,0,0,1,0,1l1,1c0,0,0,1,0,1c0,1,0,1,0,2l0,1ZM365.5,534.5c0,1,0,1,0,1c0,0,1,0,1,0c0,-1,0,-1,0,-1c0,-1,-1,-1,-1,-1c0,1,0,1,0,1ZM364.5,524.5l4,-2l-1,0c0,1,0,1,0,1l-4,2ZM353.5,529.5c0,0,0,-1,0,-1c0,0,0,-1,0,-1c1,0,1,-1,1,-1c0,0,0,1,0,1c0,1,1,1,1,1l0,1l0,1l0,-1c0,1,0,2,0,3c0,2,0,2,0,3c0,1,0,2,0,3l0,1c0,0,0,1,-1,1c0,1,0,1,-1,2c-1,1,-1,1,-1,1c-1,0,-2,0,-3,0l-1,0l-1,0c0,0,-1,0,-1,-1c0,0,-1,0,-1,-1l0,-1c0,-1,0,-1,0,-2c0,0,1,-1,1,-1l0,-1l1,0l-1,1c0,0,0,1,0,1c0,0,0,1,0,1c0,1,0,1,1,2c0,0,1,0,1,0c1,0,1,0,1,0c1,0,2,0,3,0c1,-1,1,-1,2,-1c0,0,0,-1,0,-1c0,-1,0,-3,0,-4c0,-1,0,-2,0,-3c-1,-1,-1,-2,-1,-3Z" class="g1_46" />
</svg>