<?xml version="1.0" encoding="UTF-8" standalone="no"?>
<!DOCTYPE svg PUBLIC "-//W3C//DTD SVG 1.1//EN"
"http://www.w3.org/Graphics/SVG/1.1/DTD/svg11.dtd">
<svg version="1.1" xmlns="http://www.w3.org/2000/svg" xmlns:xlink="http://www.w3.org/1999/xlink">
<defs>
<style type="text/css"><![CDATA[
.g1_55{
stroke: #1F1A17;
stroke-width: 1;
stroke-linecap: butt;
stroke-linejoin: miter;
}
]]></style>
</defs>
<path fill-rule="evenodd" d="M199.5,51.5l1,0l1,0c0,0,1,0,1,0c1,0,1,0,1,1c0,0,-1,1,-1,1l0,1c-1,0,-1,0,-1,0c-1,0,-1,0,-1,0l-1,0l1,-1c1,0,2,0,2,-1l-1,0l-1,0l-1,0l-1,1l0,-1c0,0,1,0,1,-1ZM181.5,62.5c0,1,0,2,0,3l-1,0l0,1l0,1l1,0l-1,1l-1,0l0,1l-1,0c0,0,0,1,-1,1l-1,0l-1,1l-1,0l-1,1l-1,1l-3,0l-2,0l-1,0c-1,0,-1,0,-1,-1l-1,-1l-1,0c-1,-1,-1,-1,-2,-1l-1,0l0,-1l-1,0l0,-1l-1,0l-1,-1l1,0l0,-1l-1,-1l0,-1c0,-1,0,-1,0,-1l0,-1l0,-1c0,0,0,-1,0,-1c0,-1,1,-1,1,-1l0,-1l-1,0l1,-1l1,0l0,-1l1,0l0,-1l1,0l1,0l1,-1c1,0,1,0,1,0l1,-1c0,-1,0,-1,1,-1l1,0l2,0l3,0l1,1l1,1l2,1l1,0c0,0,1,0,1,1l1,0l0,1c1,0,1,0,2,1l-1,0l0,1l0,1l1,0l0,1l0,1ZM172.5,73.5l0,-1l1,0l0,-1l1,-1c1,0,1,0,2,0l1,0c0,-1,1,-1,1,-1l1,-1l1,-1l-1,0l0,-1l1,0l0,-1l1,-1l0,-1l0,-1c0,0,0,-1,-1,-2l0,-1l-1,-1l1,0c0,-1,0,-1,-1,-1l0,-1l-1,0l-1,-1l-1,0l-2,-1l-1,-1l-1,0c0,-1,0,-1,0,-1l-1,0l-2,0l-2,0l-1,0l-1,1l-1,1l-2,1l-1,0l-1,1l-1,0l0,1c-1,0,-1,0,-2,1l2,0l-1,1l0,1l-1,0l0,1l0,1l0,1l0,1l0,1l1,0l0,1l1,0l0,1l-2,0l1,0l0,1l1,0l0,1l1,0l1,1l1,0l1,0c1,1,1,1,1,1l1,0l0,1c0,0,1,1,1,1l1,0l2,0ZM178.5,58.5l-1,0l-1,-1l-1,0c0,0,-1,0,-1,-1c0,0,1,0,1,0l-1,0c0,0,1,0,1,0l1,0c0,0,1,0,1,1l1,0ZM178.5,67.5l0,1l-1,0l-1,1l-1,0l-1,0l1,0l-1,0c1,0,1,0,1,-1l1,0c1,0,1,-1,1,-1l1,0ZM173.5,69.5c0,1,0,1,0,1c0,1,-1,1,-1,1l-3,0l-2,0l-1,0c-1,0,-1,0,-1,-1c0,0,-1,0,-1,-1c0,0,1,0,1,0c0,0,0,-1,1,-1l1,0l2,0l3,0l1,0l0,1ZM173.5,56.5c0,0,0,1,-1,1l-3,0l-2,0l-1,0c-1,0,-1,0,-1,-1l-1,0c0,-1,1,-1,1,-1l0,-1l1,0l1,0l2,0l3,0c0,0,1,0,1,1ZM172.5,58.5l1,0l1,0c0,0,1,0,1,0l1,1l2,0l0,1l1,1l0,1l0,1c0,1,0,1,0,1l-1,1l0,1l-1,0c-1,0,-1,0,-1,0l0,1c0,0,-1,0,-1,0l-1,0l-1,0c0,0,-1,0,-1,0l-3,0l-2,0l-1,0l-1,0l-1,0c0,0,-1,0,-1,0c0,0,-1,0,-1,-1l-1,0l-1,0l-1,-2l0,-1l0,-1c0,-1,0,-1,0,-1l0,-1l1,0l0,-1l2,0l0,-1l1,0c0,0,1,0,1,0c0,0,1,0,1,0l1,0l1,0l2,0ZM172.5,66.5l0,1l1,0l1,0l1,0l0,-1l1,0c0,0,0,-1,0,-1l1,1l1,-1l0,-1l0,-1l1,0l0,-1c0,0,-1,-1,-1,-1c0,-1,0,-1,0,-1c0,-1,0,-1,-1,-1l-1,0l-1,-1l-1,0c-1,0,-1,0,-1,0l-1,0l0,1l-3,0l-2,0l-1,0l0,-1l-1,0l-1,0l-1,0l-1,1l-1,0l-1,0l0,1l-1,1l0,1l0,1l0,1l1,0c0,1,0,2,0,2l1,-1c1,0,1,1,1,1l0,1l1,0l1,0c1,0,1,0,1,0l1,0l0,-1l1,0l2,0l3,0ZM171.5,62.5l1,0l0,1l0,1l-1,1l-1,0c-1,0,-1,-1,-1,-1l0,-1l1,0l0,-1c0,0,1,0,1,0ZM171.5,63.5c-1,0,-1,0,-1,0l0,1l1,0c0,0,0,-1,0,-1ZM168.5,65.5l-1,-1l1,-1l1,1ZM166.5,61.5l1,0l0,1l0,1l0,1c0,1,0,1,0,1l0,-1c0,-1,-1,-2,-1,-2ZM160.5,58.5l0,-1l1,0l1,-1l1,0l1,0l-1,0l1,0c-1,0,-1,1,-1,1l-1,0l-1,0l0,1l-1,0ZM160.5,67.5l1,0c0,0,0,1,1,1l1,0l0,1l-1,0c0,0,-1,0,-1,-1l-1,0l0,-1ZM226.5,61.5l0,1c1,0,1,0,1,0c0,0,0,-1,0,-1l-1,0ZM226.5,69.5c0,0,-1,0,-1,1c0,0,-1,0,-2,0c0,0,-1,0,-2,-1l1,0c0,0,1,0,1,0l1,0c0,-1,1,-1,1,-1c0,0,1,0,1,-1c0,0,1,0,1,-1l0,-1c1,0,1,-1,1,-1l0,-1c0,0,0,1,0,1c0,0,-1,0,-1,0l-1,0l-1,0c0,0,0,-1,0,-1c0,0,0,-1,0,-1c0,0,0,-1,0,-1c0,0,0,-1,0,-1c1,0,1,-1,1,-1c0,0,1,0,1,0c1,0,1,1,1,1c0,0,0,1,0,1c0,0,1,1,1,1c0,0,0,1,0,1c0,0,0,1,0,1c0,1,-1,2,-1,3c0,0,-1,1,-1,1l-1,1ZM218.5,58.5l-1,-1l0,-1l2,1ZM217.5,65.5l-1,0l-2,0c0,0,-1,0,-1,-1c0,-1,0,-1,-1,-1c0,1,0,1,0,1l-1,0c0,0,-1,1,-1,1c0,0,-1,0,-2,0l-1,0l-1,-1l0,-1c0,-1,0,-1,0,-1l1,0l0,1l1,0l1,0c0,0,1,0,1,0l1,0c0,0,0,-1,1,-1c0,0,0,-1,0,-2l0,-1l0,-1l0,-1l0,-1l1,1c0,0,0,1,0,2l0,2c0,1,0,1,0,1c1,0,1,0,1,0c0,1,0,1,0,1c1,0,1,0,1,0l1,0l1,0c1,0,1,0,2,0c0,0,1,0,1,0c0,0,0,-1,0,-1l0,-1l-1,0l0,-1l1,-1c0,0,0,1,0,1c1,0,1,0,1,0c0,0,0,1,0,1c0,1,0,1,0,1c0,1,0,1,0,1c-1,1,-1,1,-1,1c0,0,-1,1,-1,1c-1,0,-1,0,-2,0ZM217.5,52.5l5,-2l-1,1l-4,2ZM211.5,54.5l-2,-1l1,-2l2,1ZM212.5,71.5l-4,2c0,-1,0,-1,0,-1l4,-2ZM203.5,68.5l-2,-1l-1,1l-1,0l1,-2l1,1l1,-1l1,1ZM200.5,63.5c0,0,1,0,1,0c1,0,1,0,1,0c0,0,0,-1,0,-1l0,-1l-1,-1l1,-1c0,0,1,0,1,0c0,0,0,1,0,1c0,0,0,1,0,1c0,1,0,1,0,1c0,1,0,1,0,1c0,1,0,1,-1,1c0,0,0,1,-1,1c0,0,-1,0,-1,0l-1,0c-1,0,-1,0,-1,0c0,1,0,1,0,1c0,1,-1,2,-1,2c0,0,0,1,0,1c-1,0,-1,0,-1,1c0,0,-1,0,-1,0c0,0,-1,1,-1,1c0,0,-1,0,-1,0c-1,0,-1,0,-2,-1c0,0,-1,0,-1,0c0,0,1,0,1,0l1,0c0,0,1,0,1,0c0,-1,1,-1,1,-1c1,0,1,0,1,-1c0,0,1,0,1,0c0,-1,0,-1,0,-1c1,-1,1,-1,1,-2l0,-1c0,0,-1,0,-1,-1l1,0c0,0,0,-1,0,-1c0,0,0,1,0,1l1,0l1,0ZM191.5,52.5l5,-3c0,1,0,1,-1,1l-4,3ZM193.5,48.5l5,-2c-1,1,-1,1,-1,1l-5,3ZM189.5,65.5l0,-1l0,-1l0,-9l1,-2l0,11c0,0,0,1,0,1c0,0,0,1,-1,1ZM270.5,64.5c0,1,0,1,0,1l-1,0l0,-1c-1,0,-1,0,-1,0l-1,-1l0,1c0,0,-1,1,-1,1l-1,0l-1,0c0,0,-1,0,-1,0l-1,-1c0,0,-1,0,-1,1c0,0,-1,0,-1,0l-1,0l-1,0l0,-1l-1,0c0,-1,0,-1,0,-1l0,1c0,0,-1,0,-1,0c0,1,-1,1,-1,1c0,0,-1,0,-1,-1l-1,0c0,1,0,1,0,1l-1,0l-1,0l-1,0l0,-1c-1,0,-1,0,-1,0l0,-1l0,-1l-1,0c0,0,0,1,0,1c-1,0,-1,0,-1,0c0,0,-1,0,-1,0l0,1l0,1c-1,0,-1,0,-1,0c0,1,0,1,0,1c0,1,0,1,-1,2l-1,1l-1,0c0,1,0,1,-1,1l-1,0c-1,0,-1,0,-1,0c0,0,0,-1,0,-1c0,0,-1,0,-1,0l1,0c1,0,1,0,1,0l1,0c0,0,0,-1,0,-1l1,0c0,0,1,-1,1,-1c0,0,0,-1,1,-1c0,-1,0,-1,1,-1c0,-1,0,-1,0,-1l-1,0l1,-3l1,0c1,0,1,0,1,0c0,0,1,0,1,0l0,-1c1,0,1,0,1,0l0,1l1,1c0,1,0,1,0,1c0,0,1,0,1,0l1,0l1,0l0,-1c0,0,1,0,1,0l0,-1l0,1l1,0c0,1,0,1,0,1l1,0l1,-1l0,-1l1,0l0,1l0,1l1,0c1,0,1,0,1,0c1,0,1,0,1,0l0,-1l0,-2l1,0l0,-1l0,2c1,1,1,1,1,2l1,0l1,0c1,0,1,0,1,0l1,0l0,-1c1,-1,1,-1,1,-2c1,0,1,0,1,0c1,0,1,0,1,0c0,1,1,1,1,1l0,1l0,1l0,1c0,0,-1,0,-1,0ZM268.5,62.5l1,0l1,1c0,0,0,-1,0,-1l-1,0c0,0,0,-1,0,-1c-1,0,-1,0,-1,1ZM268.5,49.5l0,-1c0,0,1,0,1,0c1,0,1,1,1,1l0,1c-1,0,-1,1,-1,1l1,0l0,1l-1,0l-1,0l0,1c-1,0,-1,0,-1,0l-1,1c-1,0,-1,0,-1,0l1,-1l1,0c0,0,0,-1,0,-1l1,0l0,-1c-1,0,-1,-1,-1,-1l1,-1ZM269.5,49.5l-1,0c0,0,0,1,0,1l1,0ZM261.5,69.5l-1,-1l1,-1l1,1ZM260.5,55.5l4,-2l0,1l-4,2ZM253.5,57.5l-1,-1l1,-1l1,1ZM255.5,59.5l-2,-1l0,2l-2,-1l1,-2l2,1l0,-1l2,1ZM250.5,47.5l0,1l1,0l0,-1l1,0c0,1,0,1,0,1c0,0,1,0,1,-1l0,-1l0,1l0,1c0,1,0,1,-1,1l-1,0c0,0,-1,1,-1,1l0,-1l-1,0l0,-1l1,0l0,-1ZM255.5,68.5l-4,2c1,-1,1,-1,1,-1l4,-2ZM242.5,49.5l5,-2c0,1,-1,1,-1,1l-4,2ZM244.5,46.5l5,-2c-1,0,-1,1,-1,1l-5,2ZM238.5,65.5l0,-1l0,-1l-1,-9l1,-2l1,11c0,0,0,1,0,1c-1,0,-1,1,-1,1ZM294.5,65.5l0,-1l0,-1l0,-9l1,-2l0,11c0,0,0,1,0,1c0,0,0,1,-1,1ZM297.5,69.5l-4,2c0,0,0,-1,0,-1l4,-2ZM288.5,63.5l0,1c-1,0,-1,0,-1,1c0,0,1,0,1,0c0,0,0,-1,0,-1l1,0ZM289.5,66.5l-1,0c0,0,-1,0,-1,0c0,0,-1,0,-1,0c-1,0,-1,0,-1,0l-1,0c0,0,0,-1,0,-1c1,0,1,0,1,0c1,0,1,-1,1,-1c0,0,1,0,1,0c0,-1,0,-1,0,-1c0,0,1,0,1,0c0,-1,-1,-1,-1,-1c0,-1,0,-1,0,-1c-1,-1,-1,-1,-2,-2c0,0,-1,-1,-1,-1c-1,-1,-1,-1,-1,-1c0,0,-1,0,-1,-1c0,1,0,1,0,1c-1,0,-1,0,-1,0c0,-1,-1,-1,-1,-2c0,0,0,-1,0,-1l0,-1c0,0,1,0,1,0l1,1c0,0,1,1,1,1c1,1,2,2,2,2c1,1,1,2,2,2c0,1,1,1,1,2c0,0,1,0,1,-1c0,-1,0,-1,0,-2c0,0,0,-1,0,-2l0,-1c0,0,0,-1,0,-1c0,0,0,-1,0,-1c0,0,0,-1,0,-1c0,0,0,-1,1,-1c0,0,0,1,0,1c0,1,1,1,1,1c0,0,0,1,0,1l-1,1c0,1,0,1,0,2l0,1c0,0,0,1,0,1c0,1,0,1,-1,2c0,0,0,1,0,1c0,0,0,1,0,1c0,0,0,1,0,1l0,1c0,1,0,1,0,1ZM223.5,55.5l0,1l1,0l1,-1l0,-1l0,1c0,0,1,0,1,0l0,-1l1,0l0,1l-1,1l-1,0l0,1c-1,0,-1,0,-1,0c-1,0,-1,0,-1,0l0,-1l0,-1ZM228.5,52.5l-6,3c0,-1,1,-1,1,-2l5,-2ZM286.5,49.5l0,1l1,0l0,-1l0,-1l0,1l1,0c0,0,0,1,0,1c0,0,0,-1,1,-1l0,-1l0,1l0,1l-1,1l-1,-1l0,1c0,0,-1,0,-1,0l-1,0l0,-1l0,-1l1,0ZM290.5,46.5l-6,3c1,-1,1,-1,1,-1l5,-3Z" class="g1_55" />
<path fill-rule="evenodd" d="M275.5,225.5c0,-1,0,-1,0,-2c-1,-1,-1,-1,-1,-2l1,-1c0,1,0,1,0,1c0,1,0,1,0,1l0,1l0,1c0,1,0,1,0,1ZM209.5,241.5l0,-1l0,-1l0,-9l1,-2l0,11c0,0,0,1,0,1c0,0,0,1,-1,1ZM202.5,239.5l1,0c1,0,1,0,1,0c0,0,0,-1,0,-1l0,-2l0,-6l0,-1c0,0,0,-1,0,-1c0,0,0,-1,0,-1c1,0,1,0,1,0c0,0,0,1,0,1c0,1,0,1,1,1c0,0,-1,0,-1,1l0,1l0,-1c0,1,0,1,0,1c0,0,0,1,0,2c0,0,0,1,0,2c0,1,0,1,0,1l0,2c0,1,0,1,0,1c0,1,0,1,0,1c-1,0,-1,0,-1,0c0,0,0,1,0,1c0,0,-1,0,-1,0l-1,0l-1,0c0,1,0,1,0,1c-1,1,-1,2,-1,2c0,0,0,1,-1,1l0,1c-1,0,-1,0,-1,0c-1,0,-1,1,-1,1c-1,0,-1,0,-1,0l-1,0c0,0,-1,0,-1,-1c-1,0,-1,0,-1,0l1,0c1,0,1,0,2,0c0,-1,1,-1,1,-1c0,0,1,0,1,-1l1,0c0,-1,0,-1,0,-1c0,-1,1,-1,1,-2l0,-1l-1,0l0,-1c0,0,0,-1,0,-1c1,0,1,0,1,0c0,0,0,1,0,1l1,0l1,0ZM197.5,230.5l0,1c0,0,1,0,1,0c0,-1,0,-1,0,-1l0,-1l1,0l0,1c0,0,1,0,1,-1l0,-1l0,1l0,1c0,1,0,1,-1,1l-1,0c0,1,-1,1,-1,1c0,0,0,-1,-1,-1l0,-1l1,0ZM201.5,227.5l-6,3c1,-1,1,-2,1,-2l5,-3ZM193.5,238.5l-1,0l-1,0c-1,0,-1,0,-2,0l-1,1l-1,0l-1,1c-1,0,-1,0,-1,0c-1,0,-1,0,-2,1c0,0,-1,0,-2,0l-1,0l-1,0l0,-1c-1,0,-1,0,-1,0l0,-1c0,1,-1,1,-1,2c0,0,-1,0,-1,0l-1,0c-1,0,-1,0,-2,0c0,0,0,-1,0,-1c-1,1,-1,1,-1,2l-1,0l-1,-1c-1,0,-1,0,-1,0l-1,0l0,1c0,0,-1,0,-1,1c-1,0,-1,0,-2,1c-1,0,-3,0,-4,0l4,-2l2,-1c0,0,1,0,1,-1l1,-1c0,-1,0,-2,1,-2l1,0c0,0,1,0,1,1c1,0,1,1,1,1c1,0,1,0,1,0c0,0,1,0,1,0c1,0,1,0,1,0c1,0,1,0,1,0c0,0,1,0,1,-1l0,-1l0,1c0,1,1,1,1,1c1,0,1,0,1,0l1,0c0,0,1,0,1,0c0,0,1,0,2,0l1,0l1,-1l1,0l-1,-1l-1,0l-1,0l-1,0l-1,0c0,-1,0,-1,0,-1c1,-1,1,-1,1,-1c0,0,1,0,1,0l1,0l1,0l2,1l1,0c0,1,0,1,1,1l1,0c0,0,1,0,1,0l1,0ZM185.5,244.5l-4,2c0,0,1,-1,1,-1l4,-2ZM179.5,244.5l-1,-1l-1,2l-1,-1l0,-2l2,1l1,-1l1,1ZM171.5,240.5l0,-1c0,-1,0,-1,-1,-1c0,1,0,1,-1,1c0,0,1,0,1,0l1,1ZM170.5,247.5l-4,2c0,-1,1,-1,1,-1l4,-2ZM259.5,241.5l0,-1l0,-1l-1,-9l1,-2l1,11c0,0,0,1,0,1c-1,0,-1,1,-1,1ZM251.5,239.5c0,0,1,0,1,0c0,0,1,0,1,0l1,0c0,0,0,-1,0,-1l0,-2l-1,-6l0,-1c0,0,0,-1,0,-1c0,0,1,-1,1,-1c0,0,0,1,0,1c0,1,1,1,1,1l0,1l-1,1l0,-1c0,1,0,1,0,1c0,0,0,1,0,2c0,0,0,1,1,2c0,1,0,1,0,1l0,2c0,1,0,1,-1,1c0,1,0,1,0,1c-1,0,-1,1,-1,1l-1,0l-1,0c0,0,-1,0,-1,0c0,1,0,1,0,1c0,1,0,2,-1,2c0,0,0,1,0,1c0,0,-1,0,-1,1c0,0,-1,0,-1,0c0,0,-1,1,-1,1c0,0,-1,0,-1,0c-1,0,-1,0,-2,-1l-1,0c1,0,1,0,1,0l1,0c0,0,1,0,1,0c1,-1,1,-1,1,-1c1,0,1,0,1,-1c0,0,1,0,1,0c0,-1,0,-1,1,-1c0,-1,0,-1,0,-2l0,-1l0,-1c0,0,0,-1,0,-1c0,0,0,1,0,1l1,0l1,0ZM246.5,230.5l0,1c0,0,1,0,1,0c0,-1,0,-1,0,-1l1,-1l0,1l1,0l0,-1l0,-1l0,1l0,1c0,1,0,1,0,1l-1,0l-1,0c0,1,0,1,0,1c-1,0,-1,0,-1,0c0,0,0,-1,0,-1l0,-1ZM250.5,227.5l-5,3c0,-1,0,-2,0,-2l6,-3ZM233.5,236.5l0,-1c1,0,1,0,1,0l1,0l1,0c0,0,1,0,1,0c0,0,1,0,1,0l-1,-1l-1,0l-1,-1c0,0,-1,0,-1,0c-1,0,-1,0,-1,0c0,0,1,0,1,-1c0,0,1,0,1,0c1,0,2,0,3,0l2,2l1,1l1,0l1,1l1,0l1,0l-1,1l-2,0l-1,0l-2,-1l-1,0c-1,0,-2,0,-2,0l-1,0l-1,0c0,1,1,1,1,1l0,1l0,1l0,1c0,0,-1,0,-1,0c0,1,0,1,0,1l-1,0l0,-1c0,0,-1,0,-1,0l-1,-1l0,1c0,0,-1,1,-1,1l-1,0l-1,0l-1,0c0,0,0,1,0,1c0,1,0,1,0,1c0,1,0,1,-1,2c0,0,0,1,-1,1c0,1,-1,1,-2,2c-1,0,-1,0,-2,0c-1,0,-1,0,-2,0c-1,0,-1,-1,-1,-1c-1,0,-1,-1,-1,-1c-1,-1,-1,-1,-1,-2l0,-1c0,-1,1,-1,1,-1l0,-1c0,0,1,-1,1,-1c0,1,0,1,0,1c-1,1,-1,1,-1,1l0,1c0,1,0,1,0,1c1,1,1,1,1,1l1,1c1,0,1,0,2,0c1,0,2,0,3,0c0,-1,1,-1,1,-1c1,-1,1,-1,1,-1c0,-1,0,-1,0,-1l0,-1l0,-1c0,0,-1,0,-1,0l0,-1l1,-2c0,1,0,1,0,1c0,0,1,0,1,0l1,0l1,0c1,0,1,0,1,0l1,0l0,-1c1,-1,1,-1,1,-2l1,0ZM233.5,227.5c0,-1,1,-1,1,-1c1,0,1,0,2,0c0,0,1,0,1,0c0,0,1,1,1,1l-1,0c0,1,0,1,0,1c0,0,-1,1,-1,1l-1,0l-1,0l-1,0l2,-1c1,0,1,0,2,0c-1,-1,-1,-1,-1,-1c0,0,-1,0,-1,0c0,0,-1,0,-1,0c0,1,-1,1,-1,1c0,-1,0,-1,0,-1ZM232.5,238.5l1,0l1,1c0,0,0,-1,0,-1c-1,0,-1,-1,-1,-1c0,0,-1,1,-1,1ZM228.5,233.5c0,-1,0,-1,0,-2c0,0,0,-1,0,-1l0,-1c0,0,1,0,1,1l0,1c0,1,0,1,0,1l0,1l-1,0ZM222.5,239.5l-2,-1l1,-2l2,1ZM224.5,251.5l-4,2c0,0,0,-1,1,-1l4,-2ZM283.5,241.5l0,-1l0,-1l0,-9l1,-2l0,11c0,0,0,1,0,1c0,0,-1,1,-1,1ZM279.5,240.5c0,0,0,1,0,1c-1,0,-1,0,-1,0c0,0,-1,0,-1,-1c-1,0,-1,-1,-1,-2c0,1,0,2,-1,2c0,1,-1,1,-2,1c0,0,-1,0,-1,-1c-1,0,-1,-1,-1,-2c0,0,0,1,0,1c0,0,-1,0,-1,1c0,0,-1,0,-2,0c0,0,-1,0,-1,0c0,0,0,-1,0,-1c0,-1,0,-1,0,-1c0,-1,0,-1,1,-1c0,0,1,-1,1,-1l1,-1l1,0l0,-1c0,-1,0,-1,0,-1l0,1l1,1l0,2c0,1,0,1,0,1c0,0,0,1,0,1c1,0,1,0,2,0l1,0c0,-1,0,-1,0,-1c0,-1,0,-2,0,-3c0,0,0,-1,0,-1c0,-1,0,-1,0,-1l0,-1l0,-1l1,2l0,2l0,2c1,0,1,1,1,1l1,1l1,0l0,-1c0,0,0,-1,0,-1l0,-2l-1,-1l0,-1c0,0,0,-1,1,-1l0,-1c0,0,0,1,0,1c0,1,0,1,0,2l1,1c0,1,0,2,0,2c0,1,0,2,0,2c0,0,-1,1,-1,1ZM271.5,236.5l-1,0l0,1c-1,0,-1,0,-1,0c0,0,-1,1,-1,1c1,0,2,0,2,0c0,0,1,-1,1,-1ZM318.5,245.5l-2,-1l1,-1l2,1ZM315.5,239.5c1,0,1,0,2,0l0,-1c0,-1,0,-2,-1,-2l-1,0c0,0,0,-1,0,-1l0,-1c0,0,1,0,1,-1c0,1,0,1,1,1c0,0,0,1,0,1l1,1l0,1c0,0,0,1,0,1l0,1c0,0,0,1,0,1l-1,0c0,1,0,1,0,1l-1,0l-1,0l-1,0l0,-1c-1,0,-1,0,-1,0c0,-1,0,-1,0,-1c0,1,-1,1,-1,1c0,1,-1,1,-1,1c-1,0,-1,-1,-2,-2l0,1c-1,1,-1,1,-2,1c-1,0,-1,0,-2,-2c0,1,0,1,0,1c-1,1,-1,1,-2,1l-1,0c0,0,-1,0,-1,0c-1,0,-1,-1,-1,-1c0,1,0,1,-1,2c0,0,-1,0,-2,-1c0,0,-1,0,-1,0l-1,1l-1,1c0,0,-1,0,-2,1c-1,0,-2,0,-4,0l5,-2l1,-1c1,0,1,0,2,-1l0,-1c1,-1,1,-2,1,-2l1,0c1,0,1,0,1,1c1,0,1,1,2,1c1,0,1,0,1,0l1,0l1,0c1,0,1,-1,2,-1c0,1,1,1,1,1c1,0,1,0,2,0c0,0,0,-1,1,-1l0,-1c0,1,0,1,0,1c0,1,1,1,1,1c1,0,1,0,1,0c0,0,0,-1,1,-1l0,-1c1,2,1,2,2,2ZM318.5,247.5l-4,2c0,-1,1,-1,1,-1l3,-2ZM174.5,229.5c0,0,1,0,1,0c0,0,1,0,1,0c1,0,1,0,2,0c0,1,0,1,0,1l0,1c-1,0,-1,0,-1,0c-1,0,-1,0,-1,1c0,0,-1,0,-1,0c0,0,-1,0,-1,0l2,-1c1,0,1,0,1,-1c-1,0,-1,0,-1,0c-1,0,-1,0,-1,0c-1,0,-1,0,-1,0c0,-1,0,-1,0,-1ZM306.5,230.5c1,0,1,0,1,0c1,0,1,0,2,0c0,0,1,0,1,0c0,0,1,0,1,0c0,1,0,1,-1,1l0,1c0,0,-1,0,-1,0l-1,0c0,1,0,1,-1,1l-1,-1l2,0c1,0,1,-1,2,-1c-1,0,-1,0,-1,0c0,0,-1,0,-1,0c0,0,-1,0,-1,0c0,0,-1,0,-1,0c0,-1,0,-1,0,-1ZM299.5,240.5l0,-1l-1,0c0,-1,0,-1,0,-1l-1,0c0,1,0,1,0,1l1,0l0,1ZM271.5,245.5l-4,2c0,-1,0,-1,0,-1l4,-2ZM298.5,247.5l-4,2c0,-1,0,-1,0,-1l4,-2ZM299.5,327.5c1,0,1,0,1,1l1,1l0,1c0,0,-1,1,-1,1l-1,1c-1,0,-1,-1,-1,-1c0,0,-1,0,-1,-1l1,-1l0,-1c1,0,1,-1,1,-1ZM299.5,328.5c0,0,-1,1,-1,1l0,1l1,0l1,0l0,-1c0,0,-1,-1,-1,-1ZM316.5,322.5c0,0,1,0,1,0c1,-1,1,-1,2,-1c0,0,1,1,1,1c0,0,1,0,1,0c0,0,-1,0,-1,1c0,1,-1,1,-1,1l-1,0l-1,0l-1,0l2,0c1,0,1,-1,2,-1c-1,0,-1,0,-1,0c0,0,-1,0,-1,0c0,0,-1,0,-1,0c0,0,-1,0,-1,0l0,-1ZM245.5,320.5c1,0,1,0,1,0c1,0,1,0,2,0c0,0,1,0,1,0c0,0,1,0,1,1c-1,0,-1,1,-1,1l-1,0l0,1l-1,0l-1,0l1,-1c1,0,1,0,2,-1c0,0,-1,0,-1,0c0,0,-1,0,-1,0c0,0,-1,0,-1,0c0,0,-1,0,-1,0c0,0,0,-1,0,-1ZM201.5,320.5c0,-1,0,-1,1,-1c0,0,1,0,1,0c1,0,1,0,2,0c0,0,0,1,0,1c0,0,0,1,0,1c-1,0,-1,0,-1,1c-1,0,-1,0,-1,0c0,0,-1,0,-1,0c0,0,-1,0,-1,0l2,-1c0,0,1,0,1,-1c-1,0,-1,0,-1,0c-1,0,-1,0,-2,0l0,1l0,-1ZM113.5,322.5c0,0,1,0,1,0c0,0,1,0,1,0c1,0,1,0,2,0l0,1c0,0,0,1,0,1c-1,0,-1,0,-1,0c0,1,0,1,0,1c-1,0,-1,0,-1,0c0,0,-1,0,-1,0c0,0,-1,0,-1,0l2,-1c0,0,1,0,1,-1c-1,0,-1,0,-1,0c-1,0,-1,0,-1,0c-1,0,-1,0,-1,1l0,-1l0,-1ZM370.5,324.5c0,-1,0,-1,0,-2c0,0,0,-1,0,-1l0,-1c1,0,1,0,1,1l0,1c0,0,0,1,0,1c0,1,0,1,-1,1ZM297.5,323.5l0,-1l1,0c0,0,0,-1,1,-1l0,-1l-1,-1l0,-1l0,-1c0,0,0,-1,0,-1l1,1l0,1l0,1l0,1l0,1l1,0l0,-1c1,0,1,0,1,0c1,0,1,0,1,0c0,0,1,0,1,1c0,0,-1,1,-1,1l-1,0c0,0,0,1,-1,1c0,0,-1,0,-1,0ZM301.5,321.5c0,0,-1,0,-1,0l-1,1c0,0,1,0,1,0c0,0,1,0,1,0c0,0,1,0,1,-1c-1,0,-1,0,-1,0ZM73.5,331.5c0,1,0,1,0,2l-1,1c0,0,0,1,-1,1l2,0l-1,1l-1,0c0,1,0,1,0,1l-1,0c0,1,-1,1,-1,1l-1,0l0,1l-1,0l-1,0l-1,1l-1,1l-1,0l-1,0l-1,-1c0,-1,0,-1,-1,-1c-1,0,-2,-1,-2,-1l-1,0l-1,-1l-1,-1l-1,0l0,-1l1,0l0,-1l-1,0l0,-1l0,-1l0,-1l0,-1l0,-1l0,-1l0,-1l1,0l-1,-1l1,-1l1,0l0,-1l1,0l2,-1l1,-1l1,0l1,-1c0,0,0,-1,0,-1l1,0l1,0l1,1l0,1l1,0l2,1l1,0l0,1c0,0,1,0,1,0l1,0l0,1c1,0,1,1,2,1l-2,1l1,0l0,1l1,0l0,1l0,1ZM64.5,341.5l0,-1l1,0l0,-1l1,0c1,0,1,0,2,-1l1,0c0,0,0,-1,1,-1l1,0c0,-1,0,-1,0,-1l1,0l0,-1l-1,0l0,-1l1,0l0,-1l1,-1l0,-1c0,-1,0,-2,-1,-2c0,-1,0,-1,0,-1c0,-1,0,-1,0,-1l-1,0l0,-1l1,0c0,0,-1,-1,-1,-1l-1,0l0,-1l-1,0l-1,-1l-2,0c0,0,0,-1,-1,-1l0,-1l-1,0l-1,0l-1,0l-1,1c0,0,0,1,-1,1l-1,0l-1,1l-1,0l-1,0l0,1c-1,0,-1,1,-2,1l1,0l0,1l-1,1l0,1l0,1l0,1l0,1l0,1c0,1,1,1,1,1l0,1l-1,0l1,1l1,0l0,1l1,0l0,1l1,0l1,0l1,1c1,0,1,0,1,0l1,1c0,1,0,1,1,1ZM70.5,326.5l-1,0l-1,0l0,-1l-1,0c-1,0,-1,0,-1,0l0,-1l1,0l1,0l0,1l1,0l0,1ZM70.5,336.5l-1,0l0,1l-1,0l-1,0l0,1l-1,0l0,-1c1,0,1,0,1,0l1,-1c0,0,1,0,1,-1l1,1ZM65.5,338.5l0,1c0,0,-1,0,-1,0l-1,0l-1,0c0,0,-1,-1,-1,-1c0,-1,0,-1,1,-1l0,-1l1,0l1,0l1,1ZM65.5,324.5l0,1l-1,0l-1,0l-1,0l-1,0l0,-1c0,-1,0,-1,1,-1l1,0l1,0c0,0,1,0,1,0l0,1ZM64.5,326.5l1,0l1,0l1,0c0,0,0,1,1,1l0,1l1,-1c0,0,1,0,1,1l0,1l1,0l0,1l0,1l0,1l-1,0l0,1c0,0,0,1,0,1l-1,0l-1,0l-1,1l-1,1l-1,0l0,-1c0,0,-1,0,-1,0l-1,0l-1,0c0,0,0,1,-1,1c-1,0,-1,0,-1,-1c-1,0,-1,0,-1,0l-1,-1l-1,0l-1,-2l0,-1c0,-1,0,-1,0,-1c0,-1,0,-1,0,-1l0,-1l1,0c0,-1,0,-1,0,-1l1,1c0,0,0,-1,1,-1l0,-1l1,0l1,0l1,0l1,0ZM64.5,335.5l1,0l1,0l1,0l1,-1l1,0l1,-1l0,-1l0,-1c0,-1,0,-1,0,-2c0,0,0,-1,0,-1c0,0,-1,-1,-1,-1l-1,1l-1,-1l0,-1l-1,0c-1,0,-1,0,-1,0l-1,0l0,1l-2,0l0,-1l-1,0c0,0,-1,0,-1,0l-1,1c-1,1,-1,1,-1,1l-1,-1c0,0,0,1,0,1l-1,1l0,1l0,1l0,1l0,1c1,0,1,1,1,1l1,0l1,0l0,1l1,0l1,0c0,0,1,0,1,0l1,0l1,0ZM63.5,329.5l0,1l1,0c0,0,0,1,0,1l0,1l0,1l-1,0l0,-1c0,-1,0,-1,0,-2ZM57.5,326.5l0,-1l1,0l1,-1l1,0c0,1,0,1,0,1l-1,0l-1,0l0,1l-1,0ZM57.5,336.5l0,-1c1,1,1,1,2,1l0,1l1,0l0,1l-1,0l0,-1c0,0,-1,0,-2,-1ZM149.5,336.5l-2,0l-1,1l-1,-1l1,-2l1,1l1,-1l1,1ZM146.5,333.5l-1,0l-1,0c0,0,-1,0,-1,0c0,0,-1,0,-1,0c0,0,0,-1,-1,-1c0,0,-1,0,-1,0c-1,1,-1,1,-1,1c0,0,-1,0,-1,0l-1,0l-1,0l-2,0c0,0,-1,0,-1,0l0,-1c0,0,0,-1,-1,-1l0,1l-1,0c0,1,-1,1,-1,1c0,0,-1,0,-2,0l-1,0l-1,0c0,-1,0,-1,0,-1l0,-1l0,-1l1,0c0,1,0,1,0,1l1,0l1,0c0,0,1,0,1,0l1,0l1,0l0,-1c0,0,0,-1,0,-1l0,-2l-1,-1l1,-1l0,-1l1,2l0,1l0,2c0,1,0,1,0,1c0,0,1,1,1,1l0,1c1,0,1,0,1,0l1,0l1,0c1,0,1,0,1,-1c1,0,1,0,1,0c0,0,1,0,1,0l-1,-1c0,0,-1,0,-1,0l-1,-1l1,-1c1,0,1,-1,1,-1c1,0,1,0,2,0c0,0,1,0,1,0l0,1l1,0c0,0,0,1,0,1l0,1c0,0,-1,0,-1,0l0,1l1,0l1,1l1,0l1,0c0,0,1,0,1,-1c1,0,1,0,1,0c0,-1,0,-1,0,-1c0,-1,0,-1,0,-1l-1,0l1,-2l1,1c0,0,0,1,0,1c0,0,0,1,0,1l0,1l0,1l-1,0c0,1,0,1,-1,1c0,0,-1,0,-1,0ZM146.5,320.5l4,-2l0,1l-1,0l-4,2ZM137.5,319.5l1,-1l1,0c0,0,1,0,1,1c1,0,1,0,1,0c0,1,-1,1,-1,1c0,1,0,1,0,1c-1,0,-1,0,-1,0c-1,0,-1,0,-1,0l-1,0l1,0c1,-1,2,-1,2,-1l-1,0c-1,0,-1,0,-2,0l-1,0c0,0,0,-1,0,-1c0,0,1,0,1,0ZM129.5,336.5l-4,3c0,-1,1,-1,1,-2l4,-2ZM119.5,332.5l1,0c0,0,0,-1,1,-1l0,-1l0,-2l0,-6c0,0,0,-1,0,-1l0,-1l1,0l0,1l1,0c0,0,0,1,-1,1c0,0,0,1,0,1c0,0,0,1,0,2c0,0,0,1,0,2c0,1,0,1,0,2l0,1l0,1l0,1c-1,0,-1,0,-1,1c0,0,-1,0,-1,0l-1,0l-2,0c0,1,0,1,0,1c0,1,0,1,0,2c0,0,-1,0,-1,1l-1,1l-1,0c0,1,-1,1,-1,1c0,0,-1,0,-1,0c-1,0,-1,0,-2,-1l-1,0c1,0,1,0,1,0c0,0,1,0,1,0c0,0,1,0,1,0c1,-1,1,-1,2,-1l0,-1c1,0,1,0,1,0c0,-1,1,-1,1,-1c0,0,0,-1,0,-1c0,0,0,-1,0,-1l-1,0l-1,0l0,-1c0,-1,0,-1,0,-1c0,0,0,-1,0,-1c0,-1,0,-1,0,-1c1,0,1,0,1,0c0,0,1,-1,1,-1c0,0,0,1,0,1c1,0,1,0,1,0c0,0,0,1,0,1l0,1c0,0,1,0,1,1l1,0ZM122.5,314.5c0,0,0,-1,0,-1c1,0,1,0,1,0c1,0,1,0,1,0l0,1l0,1l0,1l0,1l-1,0l-1,0c0,1,-1,1,-1,1l-1,0l1,-1l1,0l0,-1c0,0,0,-1,0,-1c0,0,0,-1,0,-1ZM123.5,314.5c-1,0,-1,0,-1,0l0,1l1,0l0,-1ZM115.5,330.5l0,1c0,1,1,1,1,1c0,-1,0,-1,0,-1l0,-1c0,0,-1,0,-1,0ZM96.5,332.5l-1,-1l1,-2l1,1ZM109.5,334.5l-1,0c0,0,0,1,0,1c0,0,-1,0,-1,1c-1,0,-1,0,-1,0c-1,0,-1,1,-2,1c-1,0,-2,0,-3,1c-1,0,-2,0,-3,0c0,0,-1,0,-2,0c0,0,-1,0,-2,0c0,0,-1,0,-2,0c0,0,-1,0,-1,0c-2,0,-2,0,-3,-1c-1,0,-1,0,-2,0c-2,-1,-3,-1,-4,-2c-1,0,-1,-1,-2,-2c0,0,-1,0,-1,0l0,-1c1,1,1,1,1,1c1,0,1,0,2,1c0,0,1,0,2,0c0,1,1,1,1,1c1,0,1,0,2,0c0,1,1,1,2,1c0,0,1,0,2,0c0,0,1,0,2,0c0,0,1,0,1,0c1,0,2,0,2,0c1,0,2,0,2,0c1,0,2,0,3,0c1,0,2,0,3,-1c0,0,1,0,2,0c2,-1,2,-2,2,-2c0,-1,0,-1,0,-1c0,0,0,-1,0,-1c0,0,0,-1,-1,-1c0,-1,0,-1,0,-1l1,-1l1,1c0,1,0,1,0,1l0,1c0,0,0,1,0,1c0,1,0,1,0,2ZM87.5,324.5l1,0l2,-1l6,-2l5,-2l-1,1l0,1l-1,0l-1,0l-2,1l-5,2l-4,1ZM186.5,337.5l-1,-1l1,-1l1,1ZM184.5,332.5c0,0,1,0,1,-1c1,0,1,0,1,0l1,0l0,-1c-1,0,-1,0,-1,0c0,0,0,-1,0,-1l0,-2c1,0,1,0,1,1l0,1l0,1l0,1l0,1c-1,1,-1,1,-2,1c0,0,-1,0,-1,0l-1,0c0,0,-1,0,-1,0c0,0,0,1,0,1c0,1,0,2,-1,2c0,1,0,1,0,1c0,0,-1,1,-1,1c0,0,-1,0,-1,1c0,0,-1,0,-1,0c0,0,-1,0,-1,0c-1,0,-1,0,-2,0c0,-1,0,-1,-1,-1c1,0,1,0,1,0l1,0c0,0,1,0,1,0c1,0,1,-1,1,-1c1,0,1,0,1,0c0,-1,1,-1,1,-1c0,0,0,-1,1,-1c0,0,0,-1,0,-1c0,-1,0,-1,0,-1l0,-1l0,-1c0,0,0,-1,0,-1l0,1l1,0c0,0,0,1,0,1l1,0ZM185.5,339.5l-3,2c0,0,0,-1,0,-1l4,-2ZM177.5,320.5l5,-2l-1,1l-4,2ZM174.5,337.5l-1,-1l1,-2l1,1ZM171.5,333.5l0,-1c0,0,1,0,1,0l0,-1l1,0l1,0l1,0c0,1,0,1,0,1l0,1l-1,0l0,-1l-1,0c0,0,-1,0,-1,0l0,1l-1,0c0,0,0,1,0,1l0,1c0,1,0,1,0,1l0,1l0,1c-1,1,-1,1,-1,1c0,-1,-1,-1,-1,-1l0,-1c0,-1,0,-2,0,-2c0,-1,0,-1,0,-2c-1,0,-1,0,-1,0l-1,0l-3,0c0,0,-1,0,-1,0l-1,0l0,1l0,1c0,0,0,1,0,1c-1,0,-1,-1,-1,-1c-1,-1,-1,-1,-1,-2l0,-1c-1,0,-1,0,-1,0l-1,1l-1,0l0,1l0,1l0,1c0,0,1,0,1,0l0,2l0,1l0,1c0,1,0,1,0,2l0,1l0,-1l0,-1l0,-1l-1,-3l0,-1l0,-1l0,-1l0,-1c0,0,0,-1,1,-1l0,-1l1,0l0,-1l1,0l0,-1c1,1,2,2,3,2l1,0l2,1l1,0l1,0c0,0,1,0,2,-1l1,0l0,1l-1,0c0,1,-1,1,-1,3c0,0,1,1,1,1l0,-1c0,-1,0,-1,0,-1c0,-1,0,-1,0,-1c1,0,1,0,1,0ZM173.5,322.5l0,1l1,0l0,-1l0,-1l0,1c1,0,1,0,1,0l1,0l0,-1l0,1l0,1l-1,0l-1,0l0,1c0,0,-1,0,-1,0l-1,0l0,-1l0,-1l1,0ZM176.5,341.5l-4,2c0,0,0,-1,0,-1l4,-2ZM171.5,341.5l-4,2c1,0,1,-1,1,-1l4,-2ZM156.5,322.5c1,0,1,0,1,0c1,0,1,0,2,0c0,0,1,0,1,0c1,0,1,0,1,1c0,0,-1,1,-1,1l-1,1c-1,0,-1,0,-1,0l-1,0l1,-1c1,0,2,0,2,-1c0,0,-1,0,-1,0l-1,0c0,0,-1,0,-1,0l-1,1l0,-1l0,-1ZM231.5,320.5c0,0,-1,1,-2,1c-1,1,-3,1,-4,2c-1,0,-2,1,-2,1c0,0,-1,0,-1,0c0,1,0,1,0,1l1,0l1,1c1,0,1,1,2,2l1,1c0,0,0,1,0,1c0,1,0,1,0,2c-1,0,-1,0,-1,0c0,1,0,1,-1,1l-1,0l-1,0l-1,0l-1,0c-1,0,-2,0,-2,0c-1,0,-1,0,-1,0c-1,0,-1,0,-2,0c-1,0,-1,0,-2,0l-1,0c0,0,0,1,0,1c-1,1,-1,2,-1,2c0,1,-1,1,-1,1c0,0,0,1,0,1c-1,0,-1,0,-2,1c-1,0,-1,0,-1,0l-1,0c0,0,-1,0,-1,0c-1,-1,-1,-1,-1,-1l1,0c1,0,1,0,2,0c0,0,1,-1,1,-1c0,0,1,0,1,0c0,-1,0,-1,0,-1c1,0,1,-1,1,-1c0,0,1,-1,1,-1c0,-1,0,-1,0,-1c0,0,-1,0,-1,-1l0,-1c0,0,0,-1,1,-1l0,1c1,0,1,1,1,1l1,0c0,0,1,0,1,0l0,-1c1,0,1,0,1,0l0,-1c0,0,0,-1,0,-1c0,-1,1,-1,1,-1c0,-1,0,-1,0,-1c1,-1,1,-1,2,-1c0,0,1,0,1,1c0,0,0,1,0,1l0,1c0,0,0,1,0,1c0,1,0,1,-1,1l1,1c1,0,1,0,1,0l1,0l1,0l1,0l1,-1c1,0,1,0,1,0c0,0,0,-1,0,-1c0,-1,-1,-2,-2,-2c0,0,0,-1,0,-1c-1,0,-1,0,-1,0c-1,0,-1,0,-1,0c0,0,0,-1,0,-1c0,0,-1,0,-1,0c0,-1,0,-1,0,-1l0,-1l1,-1c1,-1,2,-1,4,-2c1,0,2,-1,4,-2c0,0,1,0,2,0ZM226.5,317.5l4,-2l0,1l-4,2ZM218.5,325.5l-1,-1l1,-1l1,1ZM218.5,328.5l-1,0c0,1,0,1,0,1c0,0,0,1,0,1l1,0c0,0,1,0,1,0l1,-1c0,0,-1,0,-1,-1l-1,0ZM217.5,317.5l4,-2l0,1c0,0,-1,0,-1,0l-4,2ZM210.5,317.5l1,0c0,-1,0,-1,1,-1c0,1,0,1,0,1c0,1,0,1,0,1l0,1l0,2l-1,-1l-1,1c0,0,0,1,-1,1l-1,0l1,-1c0,0,1,0,1,-1l1,0l-1,-1l0,-1l0,-1ZM211.5,318.5l0,-1l0,1l0,1l0,-1ZM203.5,329.5l0,1l1,0c0,-1,0,-1,-1,-1ZM203.5,337.5c0,1,-1,1,-1,1c0,0,-1,0,-1,0l-1,0c0,0,-1,0,-1,0c-1,0,-1,-1,-1,-1l1,0c1,0,1,0,1,0c0,0,1,0,1,0c0,0,1,0,1,-1c0,0,1,0,1,0c0,-1,1,-1,1,-1c0,0,0,-1,0,-1c1,-1,1,-1,1,-2l-1,0l-1,0c-1,0,-1,0,-1,0l0,-1c0,-1,0,-1,0,-1c0,-1,0,-1,0,-2c1,0,1,0,1,0c0,-1,1,-1,1,-1l1,0c0,1,0,1,0,1c0,1,0,1,0,1c1,0,1,1,1,1c0,1,0,1,0,1c0,1,0,1,0,1c0,1,-1,2,-1,3c0,0,0,1,-1,1c0,0,0,1,-1,1ZM197.5,333.5l0,-1l0,-1l-1,-8l1,-3l1,11c0,1,-1,1,-1,1c0,1,0,1,0,1ZM269.5,333.5l0,-1l0,-1l-1,-8l1,-3l1,11c0,1,0,1,-1,1c0,1,0,1,0,1ZM262.5,334.5l-1,0l0,-1c0,0,-1,0,-1,-1c0,0,0,-1,0,-1c0,0,0,1,-1,1c-1,1,-1,1,-2,1c0,0,-1,0,-1,0c-1,0,-1,0,-1,0l-1,0c0,0,-1,0,-1,-1l0,-1c0,0,0,-1,1,-1c0,0,0,1,0,1c0,0,1,0,1,0l1,0c0,0,1,0,1,0c0,0,1,0,1,0c0,0,1,0,1,0c0,0,0,-1,1,-1c0,0,0,-1,-1,-1c0,-1,0,-1,0,-2c0,0,0,-1,0,-1c0,0,0,-1,0,-1c0,0,1,-1,1,-1l0,2l0,1c0,1,1,2,1,2c0,1,0,1,0,1c0,0,0,1,0,1l0,-1c0,1,0,1,0,1c0,1,1,1,1,1c0,1,0,1,1,1l1,0c0,-1,0,-2,0,-3c0,0,0,-1,0,-2c0,0,0,-1,0,-1c0,-1,0,-2,0,-2c0,-1,0,-2,0,-3c-1,0,-1,0,-1,0c0,0,0,-1,0,-1l1,-1l0,1c1,0,1,0,2,0c-1,0,-1,1,-1,1c0,0,0,1,0,1c0,0,0,1,0,2c0,0,0,1,0,2c0,1,0,1,0,2l0,1c0,1,0,2,0,2c0,0,0,1,0,1c0,0,0,1,0,1c-1,1,-1,1,-1,1l-1,0l-1,0c0,-1,0,-1,0,-1ZM263.5,315.5l0,1l1,0l0,-1l1,0c0,0,0,1,0,1c1,0,1,-1,1,-1l0,-1l0,1l0,1c0,0,0,1,0,1l-1,0l-1,0c0,0,0,1,-1,1c0,0,0,-1,0,-1l0,-1l0,-1ZM267.5,312.5l-5,3c0,-1,0,-1,0,-1l6,-3ZM258.5,323.5l-1,-1l1,-2l1,1ZM257.5,336.5l-5,3c1,-1,1,-1,1,-2l4,-2ZM251.5,335.5l-1,-1l-1,2l-1,-1l1,-2l1,1l1,-1l1,1ZM246.5,330.5l1,0c0,0,1,0,1,0l1,-1l1,0c0,0,0,-1,0,-1c-1,0,-1,-1,-1,-1l0,-1l1,0c0,0,0,-1,0,-1c0,1,0,1,0,2c1,0,1,1,1,1l0,1l-1,0c0,0,0,1,0,1c0,0,-1,1,-1,1c-1,0,-1,0,-2,0c0,0,0,1,0,1c0,0,0,1,0,1c0,1,0,2,0,2c-1,1,-1,1,-2,2c0,0,-1,1,-1,1c-1,0,-2,0,-2,0c-1,0,-2,0,-2,0c-1,0,-1,0,-1,-1c-1,0,-1,0,-1,-1c-1,0,-1,-1,-1,-2l0,-1c0,0,0,-1,1,-1c0,0,0,-1,0,-1l1,0l-1,1c0,0,0,1,0,1c0,1,0,1,0,1l0,1c0,0,1,0,1,0c0,1,0,1,1,1c1,0,1,0,2,0c1,0,1,0,2,0c1,0,1,-1,2,-1c0,0,0,-1,0,-1c0,-1,0,-1,0,-1c0,-1,0,-1,0,-1l0,-1c0,0,-1,0,-1,-1l0,-1l0,-2c0,0,1,1,1,1c0,1,0,1,0,1l0,1ZM242.5,329.5l-2,-1l1,-2l2,1ZM238.5,320.5l4,-2l0,1l-4,2ZM291.5,322.5l-1,-1l1,-1l1,1ZM293.5,325.5l-1,-1l-1,1l-1,-1l0,-1l2,1l1,-2l1,1ZM290.5,333.5l-1,0c-1,0,-1,0,-2,0l0,-1c0,1,-1,1,-1,2c-1,0,-1,0,-2,0c0,-1,-1,-1,-1,-1l-1,1c0,0,0,1,-1,1c0,0,-1,1,-2,1c-1,0,-2,0,-4,0l5,-2l1,-1c1,0,1,0,1,-1l1,-1c0,-1,1,-1,1,-2l1,0c1,0,1,0,1,1c1,1,1,1,2,1l0,1c1,0,1,0,1,0l1,0c1,0,1,0,2,-1c0,0,1,0,1,0l0,-1c0,0,0,-1,0,-1l-1,0l1,-2l0,1l1,0l0,1l0,1l0,1l0,1c-1,0,-1,0,-1,0c0,1,-1,1,-1,1c-1,0,-1,0,-2,0ZM291.5,314.5c0,0,0,-1,0,-1c1,0,1,0,1,0c0,0,1,0,1,0l0,1l0,1l0,1l0,1l-1,0l-1,0c0,1,-1,1,-1,1l-1,0l1,-1l1,0l0,-1c0,0,0,-1,0,-1c0,0,0,-1,0,-1ZM292.5,314.5c-1,0,-1,0,-1,0l0,1l1,0l0,-1ZM286.5,332.5l-1,-1c0,0,0,-1,0,-1c0,0,-1,1,-1,1l1,1ZM282.5,322.5l0,1c1,0,1,0,1,0l0,-1l0,-1l1,0l0,1c1,0,1,0,1,0l0,-1l0,1l0,1l-1,0l-1,0l0,1l-1,0l0,-1l0,-1ZM286.5,319.5l-5,3c0,-1,0,-1,0,-2l6,-2ZM345.5,329.5c-1,0,-1,0,-1,1l1,0c0,-1,0,-1,0,-1ZM345.5,337.5c-1,0,-1,0,-1,0c0,1,0,1,-1,1c0,0,-1,0,-1,0l-1,0c0,0,-1,0,-1,0c-1,0,-1,-1,-1,-1l1,0c1,0,1,0,1,0c0,0,1,0,1,0c1,0,1,0,1,-1c0,0,1,0,1,0c1,-1,1,-1,1,-1c0,0,0,-1,1,-1c0,-1,0,-1,0,-2c-1,0,-1,0,-1,0l-1,0c0,0,-1,0,-1,0l0,-1c0,-1,0,-1,0,-1c0,-1,0,-1,1,-2c0,-1,1,-1,1,-1l1,0c0,1,0,1,0,1c0,1,1,1,1,1c0,0,0,1,0,1c0,1,0,1,0,1c0,1,0,1,0,1c0,1,-1,2,-1,3c0,0,0,1,-1,1c0,0,0,1,0,1ZM342.5,324.5l4,-3l0,1c0,0,-1,0,-1,1l-4,2ZM338.5,333.5l0,-1l0,-1l-1,-8l1,-3l1,11c0,1,0,1,-1,1c0,1,0,1,0,1ZM330.5,332.5c0,0,1,0,1,0c0,0,1,-1,1,-1l1,0l0,-1l0,-2l-1,-6c0,0,0,-1,0,-1l0,-1c0,0,1,0,1,0l0,1c0,0,1,0,1,0c0,0,0,1,0,1c0,0,0,1,-1,1c0,0,0,1,0,2c0,0,0,1,1,2c0,1,0,1,0,2l0,1l0,1c0,0,-1,0,-1,1l0,1c-1,0,-1,0,-1,0l-1,0l-1,0l-1,0l-1,0l-1,0c0,0,0,-1,0,-1c0,0,-1,0,-1,0c0,1,-1,1,-1,1c-1,0,-1,0,-1,0l-1,0l-1,0c-1,1,-1,1,-1,1c0,1,0,1,0,2c0,0,-1,0,-1,1l-1,1c-1,0,-1,0,-1,0c0,1,-1,1,-1,1l-1,0c-1,0,-1,0,-2,-1l-1,0l1,0c1,0,1,0,1,0c0,0,1,0,1,0c1,-1,1,-1,2,-1l0,-1c1,0,1,0,1,0c0,-1,1,-1,1,-1c0,0,0,-1,0,-1c0,0,1,-1,1,-1c-1,0,-1,0,-1,0l-1,0l-1,0l0,-1c0,-1,0,-1,0,-1c0,0,0,-1,0,-1c0,-1,0,-1,1,-1c0,0,1,-1,1,-1c0,0,0,1,0,1c1,0,1,0,1,0c0,0,0,1,0,1l0,1c1,0,1,0,1,1c0,0,1,0,1,0c1,0,1,0,1,0c1,-1,1,-1,2,-1l1,0c0,-1,0,-1,0,-1c1,0,1,1,1,1c0,1,1,1,1,1l1,0ZM326.5,329.5l-1,-1l1,-1l1,0ZM327.5,320.5c0,1,0,1,1,1c0,-1,0,-1,0,-1l0,-1l1,0l0,1c1,0,1,0,1,-1l0,-1l0,1l0,1c0,1,0,1,0,1l-1,0l-1,0c0,1,0,1,-1,1c0,-1,0,-1,0,-1l0,-1ZM328.5,314.5c1,0,1,0,1,0c0,-1,1,-1,1,-1c1,1,1,1,1,1c0,0,0,1,0,1l-1,0c0,1,0,1,0,1l1,0l-1,1l-1,1c0,0,-1,0,-1,1c-1,0,-1,0,-1,0c0,0,-1,0,-1,0c1,-1,2,-2,3,-2l0,-1c-1,0,-1,0,-1,-1ZM330.5,315.5l-1,0l0,-1c0,0,0,1,0,1l1,1l0,-1ZM319.5,330.5l0,1c1,1,1,1,1,1l1,0c-1,-1,-1,-1,-1,-1l0,-1l-1,0ZM305.5,337.5l0,-1c1,0,1,0,1,0l0,1l1,0c1,0,2,-1,3,-1c0,-1,1,-1,1,-1c0,-1,1,-1,1,-2c0,0,1,0,1,-1c0,-1,0,-1,0,-1l-1,0l0,-1l0,-1l0,-1l0,-1l1,1c0,0,0,1,0,2l0,1c0,1,0,1,0,2c0,1,0,1,0,1c0,1,-1,1,-1,1c0,1,0,1,-1,1c0,0,0,1,0,1l-1,0c0,0,-1,0,-1,0l-1,0l-1,0c-1,0,-1,0,-1,0ZM308.5,324.5l4,-3l0,1l0,1l-4,2ZM399.5,333.5l0,-1l0,-1l0,-8l1,-3l0,11c0,1,0,1,0,1c0,1,-1,1,-1,1ZM391.5,332.5c1,0,1,0,2,0c0,0,0,-1,0,-1c1,0,1,0,1,0l0,-1l0,-2l0,-6c0,0,-1,0,-1,0c0,0,0,-1,0,-1l1,-1l1,1c0,0,0,1,0,1c0,0,0,1,0,1c0,0,0,1,0,2c0,0,0,1,0,2c0,1,0,1,0,2l0,1l0,1l0,1c0,0,-1,0,-1,0l0,1c-1,0,-1,0,-1,0l-1,0l-1,0l-10,0l0,1c0,0,0,1,0,2c0,0,0,-1,0,-1l-1,0c0,-1,0,-1,0,-1c0,-1,0,-1,1,-1l-1,0l-1,0l-1,0c0,0,0,-1,0,-1c0,0,-1,0,-1,-1l0,-4l0,1l-1,0l-1,1c1,0,1,0,1,1l0,1l0,1c0,0,-1,1,-1,1l-1,0c0,0,-1,-1,-1,-1l-1,0c0,0,-1,1,-1,1l-1,0l-1,0c0,0,-1,0,-1,0c0,-1,0,-1,0,-1c-1,0,-1,1,-1,1c-1,0,-2,0,-2,1l-2,0c0,0,-1,0,-1,0l-1,0l-1,0l-1,0c-1,0,-2,0,-3,0c-1,0,-2,-1,-2,-1c-1,0,-1,-1,-1,-1c0,-1,0,-1,0,-1l0,-1c0,0,0,-1,0,-1c0,-1,0,-1,1,-1l0,1c0,0,-1,0,-1,1c0,0,1,1,1,1c0,0,1,0,1,1c0,0,1,0,1,0c1,0,1,0,1,0c1,1,2,1,3,1c1,0,2,0,2,0c1,-1,1,-1,2,-1l1,0c1,0,2,-1,2,-1c1,0,2,-1,2,-1l0,1c0,1,1,1,1,1c1,0,1,0,1,0l1,-1l0,-1c0,0,1,0,1,-1l1,-1l1,-1c1,0,1,0,1,0c0,0,0,-1,1,-1l0,-1l0,-3l1,-2l0,10c0,1,0,1,1,1c0,1,0,1,0,1l1,0c1,0,1,-1,1,-1c1,0,1,-1,1,-1l0,-1l0,-2l0,-1l0,-3l-1,-2c0,0,0,-1,1,-1l1,1l0,1c-1,0,-1,0,-1,1l0,1l1,1l0,1l0,1l0,2l0,1l1,-1l1,0l1,-1c0,0,1,-1,1,-1l1,0c0,0,1,1,1,1c1,0,1,0,1,1l0,1c0,0,0,1,0,1l-1,1l1,0l1,0ZM386.5,326.5l-2,-1l1,-2l2,1ZM389.5,330.5c-1,-1,-1,-1,-1,-1c0,0,-1,0,-1,0c-1,0,-1,0,-2,1l-1,0l0,1l-2,1l1,0c1,0,1,0,2,0c0,0,0,-1,0,-1c0,0,1,0,1,0c1,0,2,0,3,-1ZM381.5,315.5l0,1c1,0,1,0,1,0l1,-1l0,1l1,0c0,0,0,-1,0,-1l0,-1l1,0l0,1l0,1l-1,0c0,0,0,1,0,1l-1,0c-1,0,-1,1,-1,1c-1,0,-1,-1,-1,-1l0,-1l0,-1ZM383.5,310.5l0,-1c1,0,1,0,1,0c1,0,1,1,1,1l0,1c0,0,0,1,-1,1l1,0l0,1l-1,0l-1,1c0,0,-1,0,-1,0c0,0,-1,1,-1,1c0,0,0,-1,0,-1c1,0,1,-1,2,-2c0,0,-1,-1,-1,-1l1,0c0,-1,0,-1,0,-1ZM384.5,310.5l-1,0c0,0,0,1,0,1l1,0ZM377.5,314.5c0,0,1,-1,1,-1l1,0l0,1l0,1l0,1l1,0l-1,1l-1,0l-1,0c0,1,0,1,0,1l-1,0l-1,0l1,0l0,-1c0,0,1,0,1,0l1,-1l-1,0c0,0,0,-1,0,-1c0,0,0,-1,0,-1ZM378.5,314.5l0,1l1,0l-1,0l0,-1ZM373.5,330.5l1,1l1,0l0,-1c-1,0,-1,0,-1,0c0,0,-1,0,-1,0ZM362.5,328.5l-1,-1l-1,1l-2,-1l1,-1l2,1l1,-1l1,0ZM359.5,336.5l-4,3c0,-1,0,-1,0,-2l4,-2ZM286.5,275.5c0,0,0,-1,1,-1c0,0,1,0,1,0c1,0,1,0,1,0c1,0,1,1,1,1c0,1,0,1,-1,1c0,0,0,1,0,1l-1,0c0,0,-1,0,-1,0l-1,0l2,0c0,-1,1,-1,1,-1c0,0,0,-1,-1,-1c-1,0,-1,0,-2,1c0,-1,0,-1,0,-1ZM384.5,269.5l-6,3c0,-1,1,-2,1,-2l5,-2ZM158.5,287.5c0,1,0,1,-1,1c0,0,-1,0,-1,0c0,0,-1,0,-1,0c-1,0,-1,0,-1,0l-1,0c0,-1,0,-1,0,-1c0,-1,0,-1,0,-1c0,0,1,0,1,0c1,0,1,0,1,0c0,-1,1,-1,1,-1c0,-1,1,-1,1,-1c0,0,-1,-1,-1,-1c0,0,0,-1,-1,-1c0,0,0,-1,-1,-1c0,-1,-1,-1,-1,-2c-1,0,-1,0,-1,-1c0,0,-1,0,-1,0c-1,0,-1,0,-1,0c0,0,-1,-1,-1,-1c0,0,0,-1,0,-1l0,-1c0,0,0,-1,0,-1c0,0,1,0,1,0c0,1,0,1,1,1c0,1,1,1,1,2c1,0,2,1,2,2c1,0,1,1,2,2c0,0,1,1,1,1c0,0,0,1,0,1c0,0,1,-1,1,-1c0,-1,0,-2,0,-2c0,-1,0,-2,0,-2c0,0,0,-1,0,-1c0,-1,0,-1,0,-2l0,-1l0,-1l1,0l0,1c0,0,1,0,1,0c0,1,0,1,0,1c0,1,-1,1,-1,1l0,1l0,1c0,0,0,1,0,1c0,1,0,1,0,2c0,0,-1,1,-1,1c0,1,0,1,0,2l0,1c0,1,0,1,0,1c0,0,0,1,0,1ZM157.5,285.5c0,1,0,1,0,1c-1,0,-1,0,-1,0l1,0l1,0c0,0,0,-1,0,-1ZM332.5,271.5c0,-1,0,-1,0,-2c0,-1,0,-1,-1,-2l1,0l0,1l1,1c0,0,0,1,0,1c0,0,-1,0,-1,0c0,1,0,1,0,1ZM210.5,277.5c0,-1,0,-1,0,-2c0,0,0,-1,0,-1l0,-1c0,0,1,0,1,1l0,1c0,1,0,1,0,1l0,1l-1,0ZM203.5,278.5c0,-1,0,-1,0,-2c-1,-1,-1,-1,-1,-2l1,0l0,1l0,1c0,0,0,1,0,1c0,1,0,1,0,1ZM110.5,283.5c0,0,-1,0,-1,0c0,0,0,1,0,1l1,0c0,-1,0,-1,0,-1ZM110.5,291.5c0,0,-1,0,-1,0l-1,0c0,1,-1,1,-1,1l-1,0c0,0,-1,-1,-1,-1c0,0,-1,0,-1,0l0,-1c0,1,1,1,1,1c1,0,1,0,1,0c1,0,1,0,1,0c0,-1,0,-1,0,-1c1,0,1,0,1,0c1,0,1,-1,1,-1c1,0,1,0,1,-1l1,-1c0,0,0,-1,0,-1l0,-1c0,0,0,1,0,1l-1,0c-1,0,-1,0,-1,0c0,0,-1,0,-1,0c0,-1,0,-1,0,-1l0,-1c0,-1,0,-1,0,-1c0,0,0,-1,1,-1c0,0,0,-1,0,-1c1,0,1,0,1,0c0,0,1,0,1,0l0,1c0,0,1,0,1,1l0,1c0,0,0,1,0,1c0,0,0,1,0,1c0,1,0,2,-1,3l0,1c-1,0,-1,0,-1,1ZM107.5,277.5l4,-2l0,1l-5,2ZM96.5,290.5l-2,-1l1,-1l2,1ZM103.5,284.5l-2,0c0,0,-1,0,-1,0l-1,0c0,0,-1,1,-1,1l-1,0l-1,1l-1,0c0,0,-1,0,-1,0c-1,1,-1,1,-2,1l-1,0c-1,0,-1,0,-1,0c-1,0,-1,-1,-1,-1c-1,0,-1,0,-1,0l-1,-1l0,1l-1,0l-1,0c0,0,0,1,-1,1l-1,0l-1,0l-1,0c0,-1,0,-1,-1,-2l1,1l0,1c-1,1,-1,1,-1,2c0,1,-1,1,-1,1c0,1,0,1,-1,1l-1,1c0,0,-1,0,-1,0c-1,0,-1,0,-1,0l-1,0l-1,0c-1,0,-1,-1,-2,-1c0,0,0,-1,0,-1c0,0,0,-1,0,-1c0,-1,0,-2,0,-2c0,-1,0,-1,0,-1l1,-1l0,-1l0,1l0,1c-1,1,-1,1,-1,1c0,1,1,2,1,2c1,1,1,1,2,1l1,0c1,0,2,0,3,-1c0,0,1,0,1,-1c1,0,1,0,1,0c0,0,0,-1,0,-1l0,-3l0,-1c0,0,0,-1,-1,-1l0,-7l1,-2l1,10c0,1,0,1,0,1l0,1l1,0l1,0c1,0,1,0,1,0l1,0l1,0l0,-1c-1,-1,-1,-1,-1,-1c-1,0,-1,0,-1,0l1,-2c0,0,1,0,1,0c0,0,1,0,1,0c0,0,1,0,1,0l1,0c0,1,0,1,0,1c1,0,1,0,1,0c0,1,-1,1,-1,1c0,0,0,1,0,1l-1,0c0,0,1,1,1,1l1,0l1,0l1,0l1,0c0,0,1,0,1,0c1,0,1,0,1,-1l2,0l1,0l-1,-1l-1,0l-1,0l0,-1l-1,0l-1,1l-1,0c1,-1,1,-1,1,-2l1,0l1,0l1,0l1,0l1,1l1,0c1,0,1,0,1,1c1,0,1,0,2,0l1,0l1,0ZM95.5,274.5l4,-2l-1,0l0,1l-4,2ZM86.5,274.5l4,-2l0,1l-4,2ZM77.5,271.5l6,-3c-1,1,-1,1,-1,1l-5,3ZM171.5,283.5c0,0,-1,0,-1,0c0,0,0,1,0,1l1,0c0,-1,0,-1,0,-1ZM171.5,291.5c0,0,-1,0,-1,0c-1,1,-2,1,-2,1l-1,0c0,0,0,-1,-1,-1c0,0,-1,0,-1,0l0,-1c0,1,1,1,1,1l1,0c1,0,1,0,1,0c0,-1,0,-1,0,-1c1,0,1,0,1,0c1,0,1,-1,1,-1c1,0,1,0,1,-1l1,-1c0,0,0,-1,0,-1l0,-1c0,0,0,1,0,1c-1,0,-1,0,-1,0c0,0,-1,0,-1,0l-1,0c0,-1,0,-1,0,-1l0,-1c0,-1,0,-1,0,-1c0,0,1,-1,1,-1c0,0,0,-1,0,-1c1,0,1,0,1,0c0,0,1,0,1,0l0,1c1,0,1,0,1,1l0,1c0,0,0,1,0,1c0,0,0,1,0,1c0,1,0,2,-1,3l0,1c-1,0,-1,0,-1,1ZM168.5,277.5l4,-2l0,1l-4,2ZM164.5,287.5l0,-1l0,-1l-1,-9l1,-2l1,11l0,1c-1,0,-1,1,-1,1ZM149.5,269.5l4,-3l-1,1l0,1l-4,2ZM159.5,269.5c1,-1,1,-1,1,-1c1,0,1,0,2,1c0,1,0,1,-1,1l0,1l-1,0l-1,0l1,-1c1,0,1,0,1,0c0,-1,0,-1,0,-1l-1,0c0,0,-1,0,-1,1l-1,0l0,-1l1,0ZM139.5,290.5c0,0,1,0,1,0l1,0c0,0,1,0,2,-1c1,0,1,0,1,-1c1,0,1,-1,2,-1c0,-1,0,-1,0,-1c0,0,0,-1,0,-1l0,-1l-1,-1l0,-1l1,-1l0,1c0,0,1,0,1,1l0,1l0,1c0,1,0,1,0,2c0,0,-1,1,-1,1c0,0,0,1,0,1c0,0,-1,1,-1,1l-1,0l0,1c-1,0,-1,0,-1,0c-1,0,-1,0,-1,0l-1,0c0,0,-1,0,-1,0l-1,-1ZM141.5,276.5l1,0c0,0,1,-1,1,-1c1,0,1,1,2,1l0,1l-1,1c-1,0,-1,0,-1,0c0,0,-1,0,-1,0c0,0,-1,0,-1,0l2,0c0,0,1,-1,1,-1c-1,0,-1,0,-1,0c-1,0,-1,0,-2,0l0,-1ZM132.5,280.5l-2,-1l1,-2l2,1ZM130.5,287.5l-1,0l0,1c0,0,0,1,0,1l0,-1l0,-1l-1,0l0,1c0,1,0,1,0,1c0,1,-1,1,-1,1c0,1,0,1,0,2c-1,0,-1,0,-1,0c-1,1,-1,1,-1,1c-1,0,-1,1,-2,1l-1,0c-1,0,-2,0,-2,0c-1,-1,-1,-1,-2,-1c0,-1,-1,-1,-1,-1c0,-1,0,-1,0,-2c0,-1,0,-1,0,-1l0,-1c1,-1,1,-2,2,-2l0,1c-1,0,-1,0,-1,1c0,0,0,1,0,1c0,0,0,1,0,1c0,1,1,1,1,1c0,1,1,1,1,1l1,0l1,0c0,0,1,0,1,0c1,0,2,0,2,-1c1,0,1,0,1,-1c1,0,1,-1,1,-2c0,0,0,-1,0,-1c0,-1,-1,-1,-1,-1l1,-2l0,1c0,0,1,0,1,0l1,0l1,0l1,-1l1,-1l1,0l1,-1l1,0c0,0,0,-1,1,-1c0,0,1,0,1,0l1,0c1,1,1,1,1,1l0,1l0,1l0,1l-1,1c0,0,-1,0,-1,0l-1,1c-1,0,-1,0,-1,0l-2,0l-1,0l-1,0ZM134.5,283.5l-1,1l-1,1l-1,0l3,0l1,0c0,0,1,0,1,0c1,0,2,0,2,-1c0,-1,0,-1,0,-1l-1,0c-1,0,-1,0,-1,0l-1,0l-1,0ZM120.5,277.5l4,-2l0,1l-4,2ZM239.5,287.5l0,-1l0,-1l-1,-9l1,-2l1,11c0,0,-1,0,-1,0l0,1c0,0,0,1,0,1ZM231.5,285.5c0,0,1,0,1,0l1,0c0,-1,1,-1,1,-1l-1,-2l0,-7c0,-1,0,-1,0,-1c0,-1,0,-1,1,-1c0,1,0,1,0,1c0,0,0,1,1,1l-1,1c0,1,0,1,0,2c0,0,0,1,0,3c0,0,0,1,0,1l0,1c0,1,0,1,0,1l0,1c0,0,0,1,0,1c0,0,-1,0,-1,0l0,1c0,0,-1,0,-1,0c0,0,-1,0,-1,0l-1,0l-1,-1l0,-1c0,0,-1,0,-1,0c0,0,0,1,-1,1c0,0,0,1,-1,1c0,0,-1,-1,-1,-2l-1,1c0,0,-1,1,-1,1c-1,0,-2,-1,-2,-2c0,1,0,1,-1,1c0,0,-1,1,-1,1l-1,0l-1,0c0,0,-1,0,-2,-1c0,1,-1,1,-1,1c-1,0,-1,0,-2,0l-1,-1l-1,0l-1,0c0,1,-1,1,-1,1l-1,0l-1,0c0,0,0,1,0,1c0,0,0,1,-1,1c0,1,0,1,0,1c-1,1,-1,1,-1,1c0,0,-1,1,-1,1l-1,0c-1,0,-1,0,-1,0l-1,0c0,0,-1,0,-1,0c0,0,-1,0,-1,-1c0,0,1,0,1,0c1,0,1,0,2,0c0,0,1,0,1,0c0,-1,1,-1,1,-1c0,0,1,-1,1,-1l0,-1c1,0,1,0,1,0c0,-1,0,-1,0,-1c0,0,-1,0,-1,0l-1,0c0,-1,-1,-1,-1,-1l0,-1c0,0,0,-1,0,-1l1,0c0,-1,0,-1,0,-1l0,-1c1,0,1,0,1,0c1,0,1,0,1,0c0,0,0,1,0,1c1,0,1,0,1,0c0,1,0,1,0,1c0,0,0,1,0,1l1,0c0,0,1,0,1,0c0,0,1,0,1,0l1,-1c1,-2,2,-2,3,-2l1,1l0,1l1,0l0,1c1,0,1,0,1,0l1,0l1,0l1,0l1,0c0,0,1,-1,1,-2l1,0l0,1c0,1,0,1,1,1c0,0,1,0,1,0c0,0,1,-1,1,-1l0,-1c0,1,1,1,1,1c0,0,0,1,1,1l0,-1c1,0,1,0,1,0c0,0,0,-1,0,-1l1,0c0,1,1,2,1,2l1,0ZM223.5,277.5l0,1c1,0,1,0,1,0l0,-1l1,0l0,-1l0,1l1,0l0,-1l1,0l0,1l-1,0l0,1l-1,0l-1,1c-1,0,-1,0,-1,0l0,-1l0,-1ZM227.5,274.5l-5,3c0,-1,0,-1,1,-2l5,-2ZM214.5,285.5l-1,-1l0,-1c0,0,-1,0,-1,0l0,1l-1,0c0,0,1,0,1,1l1,0ZM204.5,284.5c0,0,-1,0,-1,0c0,1,0,1,0,1c0,0,1,0,1,0l1,0c0,-1,0,-1,0,-1l-1,0ZM189.5,280.5l-1,1l-1,-1l-1,2l-1,-1l1,-2l1,1l1,-1ZM195.5,285.5c0,0,-1,1,-2,1c-1,0,-2,1,-3,1c-1,0,-2,0,-4,0c-1,0,-2,0,-3,0c-1,0,-2,0,-3,-1c0,0,0,-1,0,-1l0,-1c-1,0,-1,0,-1,0l0,-1c1,0,1,0,1,-1c0,0,0,-1,1,-1c0,0,0,1,0,1c0,0,-1,1,-1,1c0,0,1,1,1,1c0,0,1,1,1,1c1,0,1,0,2,0l1,1l2,0c1,0,2,-1,2,-1c0,0,1,0,1,0c0,0,1,0,1,0l1,0c1,0,1,-1,2,-1c1,0,1,-1,1,-1l0,-1l-1,-1l1,0c0,-1,0,-1,0,-1l1,1l0,1l0,1l0,1c0,0,-1,1,-1,1ZM188.5,291.5l-4,2c0,0,0,-1,0,-1l4,-2ZM265.5,280.5l-1,-1l1,-2l1,1ZM273.5,282.5l0,2l-1,0c0,0,-1,0,-1,0l-1,0c0,1,0,1,-1,1l-1,0l-1,1l-1,0c-1,0,-1,0,-1,0l-1,1l-1,0l-1,0c0,0,-1,0,-1,0c-1,-1,-1,-1,-1,-2c0,0,-1,1,-1,1c0,1,-1,1,-1,1l-1,0l-1,1c0,0,0,1,0,1l0,1c-1,0,-1,1,-3,2c-1,0,-2,1,-3,1l-1,0c0,0,-1,-1,-1,-1c-1,0,-1,0,-2,-1c0,0,-1,-1,-1,-2c0,-1,1,-1,1,-2c0,0,0,-1,1,-2c0,0,0,-1,0,-1l0,1l0,1c0,1,-1,1,-1,2c0,0,1,1,1,1c0,1,0,1,0,1c0,0,1,0,1,0c1,1,1,1,2,1c1,0,1,0,1,0c0,0,1,0,1,-1c1,0,1,0,2,0c0,0,0,-1,1,-1l0,-1c1,0,1,0,1,0l0,-1l-2,0c0,0,-1,0,-1,0l0,-1l-1,0c0,0,0,-1,0,-1c0,0,0,-1,0,-1l1,0c0,-1,0,-1,0,-1c0,-1,1,-1,1,-1c1,0,1,0,1,1c0,0,1,0,1,1c0,1,0,1,0,1l2,0c1,0,1,0,1,-1c1,0,1,0,1,0c0,0,0,-1,0,-1l0,-1l-1,-7l1,-2l1,11l0,1c1,0,1,0,1,0c0,0,0,-1,0,-1c0,0,1,-1,1,-1l0,-1c1,0,1,-1,1,-1c1,0,1,0,1,0l1,0c1,0,1,0,1,0l1,0l1,1l2,0l1,0l1,0ZM269.5,284.5l-1,-1c-1,0,-1,0,-2,0l-1,0l-1,0c0,1,-1,1,-1,1l0,1l1,0c1,0,1,0,1,0l1,0l1,-1l1,0ZM266.5,274.5l4,-2l-1,0l0,1l-4,2ZM257.5,271.5l4,-2c0,0,0,1,0,1l-4,2ZM255.5,281.5l-2,-1l-1,1l-1,-1l1,-1l1,1l1,-2l1,1ZM253.5,284.5c0,1,0,1,0,1c1,0,1,0,1,0l1,0c0,-1,0,-1,-1,-1l-1,0ZM248.5,274.5l4,-2l0,1l-4,2ZM315.5,287.5l0,-1l0,-1l-1,-9l1,-2l1,11c-1,0,-1,0,-1,1c0,0,0,1,0,1ZM307.5,288.5l0,-1c0,-1,0,-1,-1,-1c0,-1,0,-1,0,-1c-1,0,-1,1,-1,1c-1,0,-1,0,-2,1c0,0,-1,0,-1,0c-1,0,-1,0,-1,0c-1,0,-1,-1,-2,-2l0,-1c1,0,1,0,1,0c1,1,1,1,1,1c0,0,1,0,1,0c1,0,1,0,1,0c0,0,1,0,1,0c0,-1,1,-1,1,-1l1,0c0,0,0,-1,0,-2c0,0,-1,-1,-1,-2l0,-1c1,-1,1,-1,1,-1l0,1c0,0,0,1,0,2c1,0,1,1,1,2c0,0,0,1,0,1c0,0,0,1,0,1c0,1,1,1,1,1c0,0,0,1,1,1c1,0,1,0,1,0c0,-1,0,-1,0,-1c0,0,0,-1,0,-2c0,-1,0,-2,0,-2c0,-1,0,-1,0,-1c0,-1,-1,-2,-1,-3c0,-1,0,-2,0,-3c0,-1,0,-1,0,-1c0,-1,1,-1,1,-1l0,1c0,0,1,1,1,1l0,1c0,1,0,1,0,2c0,0,0,1,0,3c0,0,0,1,0,1c0,0,0,1,0,1c0,2,0,3,0,3c0,1,0,1,0,1c0,1,-1,1,-1,1c0,0,0,1,-1,1c0,0,-1,-1,-1,-1l-1,0ZM309.5,269.5l0,1c1,0,1,0,1,0l0,-1l0,-1l1,0l0,1c0,0,1,0,1,-1l0,1l0,1l-1,0l-1,0l0,1l-1,0l0,-1l0,-1ZM313.5,266.5l-6,3c1,-1,1,-1,1,-2l6,-2ZM305.5,276.5l-2,-1l1,-1l1,1ZM303.5,290.5l-4,2c0,0,0,-1,0,-1l4,-2ZM296.5,281.5c0,-1,0,-1,0,-1c-1,0,-1,0,-1,0c-1,0,-1,0,-1,0c-1,0,-1,1,-2,1c-1,1,-1,2,-1,2c0,0,0,1,1,1l1,0l1,0c1,1,1,1,1,1l1,0l0,1l-1,1c0,0,0,1,-1,1c0,1,-1,1,-2,1c-1,1,-1,1,-2,1c-1,0,-1,0,-2,0l-1,0c-1,0,-1,0,-2,0c0,0,-1,0,-1,-1c-1,0,-1,0,-1,-1c0,0,-1,-1,-1,-1l0,-1c0,-1,1,-1,1,-2c0,0,0,-1,1,-1c0,-1,0,-1,0,-1l1,-1l0,1c-1,0,-1,1,-1,1l0,1c-1,1,-1,1,-1,1c0,1,1,1,1,2c1,1,2,1,4,1c1,0,2,0,3,0l1,0l1,-1l1,0l0,-1c1,0,1,0,1,0l-2,0c-1,0,-2,0,-2,-1c-1,0,-1,-1,-1,-1l0,-1c0,0,0,-1,0,-1c1,0,1,-1,1,-1l1,-1l1,-1l1,-1c0,0,1,0,1,0l1,0l0,1c0,0,0,1,0,1l0,1ZM336.5,286.5c0,0,-1,0,-1,0c0,0,-1,0,-1,0c-1,0,-1,-1,-1,-2c0,1,0,1,-1,2c0,1,-1,1,-2,1c0,0,-1,0,-1,-1c0,0,-1,-1,-1,-2l0,1l-1,0c0,1,-1,1,-1,1c-1,0,-1,0,-2,-1c0,-1,0,-1,0,-2c0,0,1,0,1,0c0,-1,1,-1,1,-1l1,-1l1,0l0,-1l0,-1l1,1l0,1l0,2c0,1,0,1,0,1c1,1,1,1,2,1l1,-1l0,-1c0,0,0,-1,0,-2c0,0,0,-1,0,-1c0,-1,0,-1,0,-1l0,-1l0,-1l1,-1l0,3l0,2l0,1l0,1c0,0,1,0,1,0l0,1l1,0l1,1c0,0,0,-1,0,-1c0,-1,0,-1,0,-1l0,-2l0,-1l-1,-1c0,-1,1,-1,1,-1l0,-1c0,0,0,1,0,1c0,0,0,1,1,1l0,2c0,1,0,2,0,2c0,1,0,1,0,2c0,0,0,1,-1,1ZM328.5,282.5l-1,0c0,1,-1,1,-1,1c0,0,-1,0,-1,1c1,0,2,0,2,0c0,-1,1,-1,1,-1ZM330.5,273.5l0,1l1,0l1,-1l0,-1l0,1l0,1c1,0,1,0,1,0c0,0,0,-1,1,-1l0,-1l0,-1l0,1c0,0,0,1,0,1l0,1c0,1,0,1,-1,1l-1,0l-1,0c0,1,0,1,-1,1c0,-1,0,-1,0,-1c0,-1,0,-1,0,-1l0,-1ZM338.5,289.5l-5,2c1,0,1,-1,1,-1l4,-2ZM328.5,290.5l-4,2c0,0,0,-1,0,-1l5,-2ZM382.5,287.5l0,-1l0,-1l0,-9l1,-2l0,11l0,1c0,0,0,1,-1,1ZM374.5,276.5l0,2c0,1,0,1,0,2l-1,0l0,1l2,1c1,0,1,1,2,1c0,0,1,0,1,0c1,0,1,0,1,0l1,0l0,1l-2,0l-1,0l-1,0c0,0,0,1,0,1l-1,0c-1,0,-1,0,-1,0l-3,1l0,1l-1,0l-1,0l-1,0l-1,0l-1,0c0,0,-1,0,-1,-1l-1,0c0,1,0,1,-1,1c0,0,-1,0,-1,0l-1,-1l-2,0c-1,1,-1,1,-1,1l-2,0l-2,0c0,0,-1,0,-1,0l0,-1l-1,0l0,-1c0,0,0,1,-1,1c-1,0,-1,0,-1,1c-1,0,-1,0,-2,0l-1,0c-1,0,-1,-1,-1,-1l0,-1l-1,0c0,0,1,0,1,-1l1,1l1,0l1,0c0,0,1,0,1,0l1,-1l1,0c0,0,0,-1,0,-2l-1,-2l0,-1l1,-1l0,1c0,0,0,1,1,2l0,2c0,0,0,1,0,1c0,0,0,1,1,1l2,0l2,0l1,-1c2,-2,2,-2,3,-2l1,1l1,1l1,1l1,0l1,0l1,0l1,0l1,0l1,0l1,0l0,-1l2,0l-1,0l0,-1l-1,0l-1,0l-1,0l-1,0l0,-1l1,-1c0,0,1,0,1,0c0,0,1,0,1,-1c1,0,1,0,1,-1c0,0,0,-1,0,-1c0,-1,0,-1,0,-2c0,-1,0,-1,0,-1c-1,0,-1,-1,-1,-1c0,0,0,-1,1,-1l0,-1l0,1c1,1,1,1,1,1c0,0,0,1,0,1l0,1ZM372.5,269.5c0,0,1,0,1,-1c1,0,1,0,1,0c1,0,1,0,2,1c0,1,0,1,0,1c0,1,-1,1,-1,1c0,0,-1,0,-1,0l-1,0l-1,0l2,0c1,-1,1,-1,2,-1c-1,0,-1,0,-1,0c0,0,-1,0,-1,0c0,0,-1,0,-1,0c0,0,-1,0,-1,0c0,0,0,-1,0,-1ZM366.5,277.5l4,-2l0,1c-1,0,-1,0,-1,0l-4,2ZM363.5,285.5l0,-1c-1,0,-1,0,-1,-1l-1,0l0,1l1,1l1,0ZM360.5,272.5c0,-1,0,-1,1,-1c0,0,1,0,1,0c1,0,1,0,2,0c0,0,0,1,0,1c0,0,0,1,0,1c-1,0,-1,0,-1,1c-1,0,-1,0,-1,0c0,0,-1,0,-1,0c0,0,-1,0,-1,0l2,-1c0,0,1,0,1,-1c-1,0,-1,0,-1,0c-1,0,-1,0,-2,0c0,0,0,1,0,1l0,-1ZM349.5,271.5c0,0,0,-1,1,-1l1,0l0,1l0,1l0,1l0,1l-1,0l-1,0c0,1,0,1,-1,1l-1,0l1,-1c0,0,1,0,1,0l0,-1l1,0l-1,0c0,0,0,-1,0,-1c0,0,0,-1,0,-1ZM350.5,271.5l0,1c0,0,0,-1,0,-1ZM155.5,240.5c0,1,0,1,-1,2l0,1c-1,0,-1,1,-1,1l1,0l0,1l-1,0c0,0,0,1,-1,1c0,1,-1,1,-2,1l-1,1l-1,0l-1,0l0,1l-1,1l0,-1l1,0l0,-1l1,0c0,0,1,-1,1,-1l1,0c1,0,1,-1,2,-1c0,-1,1,-1,1,-1l1,0l0,-1l-1,0l0,-1l1,0l0,-1l0,-1l0,-1c0,-1,0,-2,0,-3c0,-1,-1,-1,-1,-1l0,-1l1,0c0,0,-1,-1,-1,-1l-1,0l0,-1l-1,0l-2,-1l-1,0c0,0,-1,-1,-1,-1l-1,-1l0,-1l0,1l1,0l0,1l1,0l2,1l1,0c0,1,0,1,0,1l1,0l0,1l1,0c1,0,1,1,1,1l-1,1l1,0l0,1l0,1l1,0l0,1ZM151.5,235.5l-1,0l0,-1l-1,0c0,0,-1,0,-1,0c0,0,0,-1,0,-1l1,0c1,0,1,0,1,1c0,0,1,0,1,0l0,1ZM151.5,245.5l-1,1l-1,0l-1,1l0,-1c0,0,1,0,1,0l1,-1c0,0,1,0,1,-1ZM147.5,247.5l0,1c-1,0,-1,0,-1,0l0,-3l0,1l1,0ZM147.5,233.5l0,1c0,0,-1,0,-1,0l0,-3c0,0,0,1,1,1l0,1ZM146.5,235.5c1,0,1,0,1,0c1,0,1,0,2,0l0,1l1,0l1,0l1,1l0,1l0,1l0,1l0,1l0,1c0,0,0,1,0,1c-1,0,-1,0,-1,0l-1,0l-1,1l-1,0l0,1l-1,0c0,0,0,-1,0,-1c-1,0,-1,0,-1,0c1,0,1,0,1,0l1,0l1,0l1,-1l1,0l0,-1l1,0l0,-1l0,-1c0,-1,0,-1,0,-2c0,0,0,-1,-1,-1c0,0,0,-1,0,-1l-1,1l-1,-1l-1,-1l-1,0l-1,0l0,1ZM135.5,240.5l0,-1c0,0,0,-1,0,-1l1,-1c0,0,0,-1,0,-1l-1,-1c0,0,1,0,1,-1l1,0l0,-1l1,0l1,-1l1,0l2,-1l1,-1c1,0,1,-1,1,-1l0,1l-1,0l0,1c-1,0,-1,1,-1,1l-2,0l-1,1l-1,0l-1,1c0,0,-1,1,-1,1l1,0l0,1l-1,0l0,1l0,1l-1,0l0,1l0,1l0,1l0,1l1,0c0,1,0,1,0,1l1,0l0,1l-1,0l0,1l1,0l0,1l1,0l1,0l0,1l1,0l2,1l1,0l0,1c1,1,1,1,1,1l-1,0l-1,-2c-1,0,-2,-1,-3,-1l-1,0l0,-1l-1,0l0,-1l-1,0l0,-1l-1,0l2,0l-1,-1l0,-1l-1,0l0,-1ZM138.5,235.5l1,0l0,-1l1,0l0,-1l1,0l1,0c0,0,0,1,0,1c-1,0,-1,0,-1,0c-1,0,-1,0,-1,0l0,1l-1,0l-1,0ZM138.5,245.5l1,-1c0,1,0,1,1,1l1,1l1,0l-1,0c0,0,1,0,1,0l0,1c0,0,-1,0,-1,0l0,-1c-1,0,-2,0,-2,-1l-1,0ZM143.5,247.5c0,-1,0,-1,0,-1l1,-1l0,3c0,0,-1,0,-1,0c0,-1,0,-1,0,-1ZM143.5,233.5c0,-1,0,-1,0,-1l1,0l0,-1l0,3c0,0,-1,0,-1,0l0,-1ZM144.5,235.5l0,1l-1,-1l-1,0c-1,0,-1,0,-1,0l0,1l-1,0c0,1,0,1,0,1l-1,-1c0,0,-1,1,-1,1l0,1l0,1l0,1l0,1l0,1c0,0,0,1,1,1l1,0l1,1l1,0c1,0,1,0,1,0c0,0,1,0,1,0l-1,0l-1,1c0,0,-1,-1,-1,-1c0,0,-1,0,-1,0l0,-1l-1,0l-1,0l0,-2l-1,0l0,-1c0,-1,0,-1,0,-1c0,-1,0,-1,1,-1l0,-1c0,-1,0,-1,1,-1l1,0l1,0l0,-1c0,0,1,0,1,0c1,0,1,0,1,0l1,0ZM274.5,227.5l0,1l1,0l0,-1l0,-1l0,1c0,0,1,0,1,0l1,-1c0,1,0,1,0,1l0,1l-1,1c0,0,-1,-1,-1,-1l0,1c0,0,-1,0,-1,0l-1,0l0,-1l0,-1Z" class="g1_55" />
<path fill-rule="evenodd" d="M333.5,572.5l0,1c0,0,1,0,1,-1l0,-1l0,1c1,0,1,0,1,0l0,-1l1,0c0,1,0,1,0,1l0,1c0,0,-1,0,-1,0l0,1l-1,0c0,0,0,-1,0,-1l0,1c-1,0,-1,0,-1,0c0,0,-1,0,-1,0l0,-1l0,-1ZM138.5,585.5c0,1,0,2,0,3l-1,1l1,1l-1,1c-1,0,-1,0,-1,1l-1,0c0,0,0,1,-1,1l-1,0l-1,0l0,1l-1,0l-1,1l0,1l-1,0l-2,0l-2,0c0,0,-1,0,-1,-1l-1,-1c-1,-1,-2,-1,-3,-1l-1,-1l-1,0l0,-1l-1,0l0,-1l-1,0l1,-1l-1,-1l0,-1c0,-1,0,-1,0,-1l0,-1l0,-1c0,0,0,-1,0,-1c1,-1,1,-1,1,-1l0,-1l-1,0l1,-1l1,0l0,-1l1,0l0,-1l1,0l1,0l2,-1l1,-1c0,-1,1,-1,1,-1l1,0l1,0l2,0l1,1l1,0l0,1l1,0l1,1l1,0c1,0,1,0,1,1l1,0l1,1c0,0,1,0,1,1l-1,0l0,1l1,0l0,1l0,1l0,1ZM129.5,596.5l1,-1l0,-1l1,0l1,-1c0,0,1,0,1,0l1,0c0,-1,1,-1,1,-1l1,0l0,-1l1,0l0,-1l1,0l-1,0l-1,0l0,-1l1,0l0,-1l1,0l0,-1l0,-1l0,-1c0,0,0,-1,0,-2l-1,-1l0,-1l1,0c-1,-1,-1,-1,-2,-1l0,-1l-1,0l-1,-1l-1,0l-1,-1c-1,0,-1,0,-1,0l-1,-1l0,-1c0,0,-1,0,-1,0l-1,0l-1,0l-1,0l-1,0l-1,1l-1,1l-2,1l-1,0l0,1l-1,0l-1,0l0,1c0,0,-1,0,-1,1l1,0l-1,1l0,1l-1,0l0,1l0,1l0,1l0,1l0,1l1,0l0,1l1,0l0,1l-1,0l1,1l1,1l1,1l1,0l2,0c0,0,0,1,1,1l0,1c1,0,1,1,1,1l1,0ZM135.5,581.5l-1,0l0,-1l-1,0l-1,0l0,-1l1,0l1,0c0,1,0,1,0,1l1,0ZM135.5,590.5l0,1l-1,0l0,1l-1,0l-1,0l0,-1l1,0c1,0,1,-1,1,-1l1,0ZM131.5,592.5c0,1,0,1,-1,1c0,1,0,1,-1,1l-2,0l-2,0c0,0,-1,0,-1,-1l0,-1c0,-1,0,-1,1,-1l1,0l3,0c1,0,1,0,1,0l1,1ZM131.5,578.5c0,1,0,1,-1,1c0,0,0,1,-1,1l-2,0l-1,0l-1,0c-1,0,-1,0,-1,-1l0,-1l0,-1l1,0l1,0l1,0l2,0c1,0,1,0,1,1l1,0ZM129.5,581.5l1,0c0,0,1,0,1,0c1,0,1,0,1,0c0,0,1,0,1,1l1,0l1,0l1,1l0,1l0,1l0,1c0,1,0,1,0,1l0,1c0,0,-1,0,-1,1l-1,0l-1,0l0,1l-1,0l-1,0c-1,0,-1,0,-1,0l-1,0l-2,0l-2,0l-1,0l-1,0c0,0,-1,0,-1,0c0,0,-1,0,-1,-1l-2,0l-1,-2l0,-1l0,-1c0,-1,0,-1,0,-1l1,-1l0,-1l2,0l1,-1c0,0,1,0,1,0c1,0,1,0,1,0l1,0l1,0l1,0ZM129.5,589.5l1,1l1,0l1,0l1,-1c0,0,1,-1,1,-1l1,1l0,-1l1,-1l0,-1l0,-1c0,0,0,-1,0,-1c0,-1,-1,-1,-1,-1c0,-1,0,-1,0,-1l-1,0l-1,0l-1,-1l-1,0c0,0,-1,0,-1,0l-1,0l-2,0l-1,0l-1,0l-1,0l-1,0c-1,0,-1,0,-1,0l-1,1l-1,0c0,0,-1,0,-1,1l0,1l-1,1l0,1l1,1c0,1,0,1,1,2l1,-1c0,0,0,1,0,1l1,0l0,1l1,0c1,0,1,0,1,0c0,0,1,0,1,0l0,-1l1,0l3,0ZM128.5,584.5l0,1l0,1l1,0l0,1l0,1c0,0,-1,-1,-1,-3c0,0,0,1,-1,1c0,0,0,-1,0,-1l0,-1l1,0ZM127.5,584.5c0,0,0,1,0,1l1,0l0,-1l-1,0ZM125.5,584.5l1,0l0,1l0,1l0,1c0,1,0,1,0,1l0,-1c0,-1,0,-2,-1,-3ZM119.5,581.5l0,-1l1,0l1,-1l1,0l1,0l-1,0c0,0,1,0,1,0c-1,0,-1,0,-1,1l-1,0l-1,0l0,1l-1,0ZM119.5,590.5l1,0c0,0,0,1,1,1l1,0l1,0c-1,1,-1,1,-1,1l1,0l-1,0c-1,0,-2,0,-2,-1l-1,0l0,-1ZM186.5,591.5l-1,-1l-1,1l-1,0l0,-2l2,1l1,-1l1,1ZM183.5,588.5l-1,0c-1,0,-1,0,-1,0c0,0,-1,0,-1,0c0,-1,0,-1,-1,-1c0,0,0,-1,0,-1l0,-1c-1,0,-1,1,-1,1l-1,0c0,0,-1,0,-1,0l0,1c0,1,0,1,0,1l-1,0c0,0,0,1,0,1c0,1,0,1,-1,2l0,1c-1,0,-1,0,-1,0l-1,0c0,0,0,1,-1,1l-1,0c0,0,-1,-1,-1,-1c0,0,-1,0,-1,0c0,0,0,-1,0,-1c0,1,0,1,1,1l1,0l1,0c0,-1,0,-1,0,-1c0,0,1,0,1,0c0,0,1,-1,1,-1c0,0,1,-1,1,-1c0,-1,0,-1,1,-2c0,0,-1,0,-1,0l1,-3c0,0,1,0,1,0l1,0l1,0l1,-1l1,1c0,0,0,1,0,1c0,1,0,1,0,1l1,0c0,0,1,0,1,0l1,0c1,0,1,0,2,0c0,0,1,0,1,0c0,-1,0,-1,0,-1l0,-1c0,0,-1,0,-1,-1l1,-1l0,1c0,0,1,0,1,0c0,0,0,1,0,1c0,0,0,1,0,1c0,0,0,1,0,1c0,0,-1,0,-1,0c0,0,0,1,0,1c0,0,-1,1,-1,1c-1,0,-1,0,-2,0ZM185.5,572.5c1,0,1,0,1,-1c0,0,1,0,1,0c1,0,1,1,1,1l0,1l-1,0c0,0,0,1,0,1l1,0l0,1l-1,0l-1,0l0,1c-1,0,-1,0,-1,0l-1,0l0,1l-1,0c0,-1,0,-1,0,-1l1,0l1,0c0,-1,0,-1,0,-1l1,-1c-1,0,-1,-1,-1,-1c0,0,0,-1,0,-1ZM187.5,572.5l-1,0c0,0,0,1,0,1l1,0ZM178.5,582.5l-1,-1l1,-2l1,1ZM174.5,583.5l-2,-1l1,-2l2,1ZM176.5,596.5l-4,2c0,-1,0,-1,0,-1l4,-2ZM167.5,578.5l-2,-1l1,-1l2,1ZM169.5,586.5c0,1,0,1,-1,1c0,0,-1,1,-1,1c-1,0,-1,0,-2,0l-1,0l-1,0c0,0,0,1,0,1c0,0,0,1,-1,1c0,1,0,1,0,1c-1,1,-1,1,-1,1c0,1,-1,1,-1,1l-1,0c-1,0,-1,0,-1,0l-1,0c0,0,-1,0,-1,0c0,0,-1,0,-1,0c0,-1,0,-1,0,-1c0,0,1,0,1,0c1,0,1,0,2,0c0,0,1,0,1,0c0,-1,1,-1,1,-1c0,0,1,-1,1,-1l0,-1c1,0,1,0,1,0c0,0,0,-1,0,-1c0,0,-1,0,-1,0l-1,0c0,-1,-1,-1,-1,-1c0,-1,0,-1,0,-1l0,-1l1,0c0,0,0,-1,0,-1c1,-1,1,-1,1,-1c1,0,1,0,1,0c0,0,0,1,0,1c1,0,1,0,1,1c0,1,0,1,0,1c1,0,1,0,1,0c1,0,1,0,1,0c1,0,1,0,2,0c0,0,1,0,1,-1c1,0,1,0,1,0c0,-1,0,-1,0,-1c-1,0,-1,0,-1,0c-1,1,-1,1,-1,1c0,0,-1,0,-1,0c0,-1,0,-1,0,-1l-1,0c0,-1,0,-1,0,-1c0,0,0,-1,0,-1l1,-1c0,0,0,-1,0,-1c0,0,1,-1,1,-1c1,0,1,1,1,1c0,0,1,0,1,1l0,1l1,1c0,1,0,1,0,1c0,1,0,1,-1,2ZM166.5,582.5l1,0l0,1c1,-1,1,-1,1,-1c-1,0,-1,0,-1,0c0,-1,0,-1,0,-1c0,0,-1,0,-1,1ZM166.5,569.5c0,-1,0,-1,0,-1c1,0,1,-1,1,-1c0,1,0,1,0,1c1,0,1,0,1,1l0,1c0,0,-1,0,-1,0l1,1l0,1l-1,-1l-1,1c0,1,-1,1,-1,1l-1,0c0,0,-1,0,-1,0l1,0l1,-1l1,-1l0,-1c0,0,-1,0,-1,0l0,-1c0,0,1,0,1,0ZM167.5,569.5l-1,0l1,1l0,-1ZM161.5,585.5c0,0,-1,0,-1,0c0,0,0,1,0,1c0,0,1,0,1,0l1,0c0,0,0,-1,0,-1l-1,0ZM150.5,582.5l-2,-1l1,-2l2,1ZM150.5,591.5c-1,0,-2,0,-2,0c-1,0,-1,0,-1,-1c-1,0,-1,0,-1,-1c-1,0,-1,-1,-1,-2l0,-1c0,0,0,-1,1,-1c0,-1,0,-1,0,-1l1,-1l0,1l-1,1c0,0,0,1,0,1c0,0,0,1,0,1l0,1c0,0,1,0,1,0c0,0,0,1,1,1c1,0,1,0,2,0c1,0,1,0,2,0c1,0,1,-1,2,-1c0,0,0,-1,0,-1c0,-1,0,-1,0,-1c0,-1,0,-1,0,-1c0,0,0,-1,0,-1c0,0,-1,0,-1,-1l0,-1l0,-2c0,0,1,1,1,1c0,1,0,1,0,1c0,0,1,1,1,1l0,1l0,1c0,0,0,1,0,1c0,1,0,1,0,2c-1,1,-1,1,-2,2c0,0,-1,0,-1,1c-1,0,-2,0,-2,0ZM146.5,575.5l4,-2l-1,1l-4,2ZM211.5,584.5l0,1l1,0c0,-1,0,-1,0,-1l-1,0ZM211.5,592.5c0,0,-1,0,-1,0c0,1,-1,1,-1,1l-1,0c0,0,-1,0,-1,-1c-1,0,-1,0,-1,0l1,0c1,0,1,0,1,0c0,0,1,0,1,0c0,0,0,-1,0,-1c0,0,1,0,1,0c0,0,1,0,1,-1c0,0,1,0,1,-1l0,-1c1,0,1,-1,1,-1c0,0,0,-1,0,-1l0,1l-1,0l-1,0c-1,0,-1,0,-1,0c0,-1,0,-1,0,-1c0,-1,0,-1,0,-1c0,0,0,-1,0,-1c0,0,0,-1,1,-1c0,0,0,-1,0,-1c0,0,1,0,1,0l1,0c0,0,0,1,0,1l0,1c1,0,1,0,1,1c0,0,0,1,0,1c0,0,0,1,0,1c0,1,-1,2,-1,3l-1,1l-1,1ZM209.5,578.5l4,-2l0,1c-1,0,-1,0,-1,0l-4,2ZM204.5,586.5l-1,1l0,1l0,-1l1,0ZM205.5,589.5c0,0,-1,0,-1,0c-1,0,-1,0,-1,0c-1,0,-1,0,-2,0c-1,0,-1,0,-1,0c0,0,-1,0,-1,0c0,-1,1,-1,1,-1c0,0,1,0,1,0c0,-1,0,-1,1,-1c0,-1,1,-1,1,-1l0,-1l0,-1c-1,0,-1,0,-1,0c-1,-1,-1,-1,-1,-2c-1,0,-1,-1,-2,-1c0,-1,0,-1,-1,-1l0,-1c0,0,0,1,-1,1c-1,-1,-1,-1,-1,-2c0,-1,0,-1,0,-1l0,-1c1,0,1,0,1,1c1,0,1,1,2,1c1,1,1,2,2,2c0,1,1,1,2,2c0,1,0,1,0,1c1,1,1,1,1,1l0,-1c0,-1,0,-1,0,-2c1,-1,1,-1,1,-2l0,-1c0,0,0,-1,0,-1c-1,0,-1,-1,-1,-1c0,0,0,-1,1,-1c0,0,0,-1,0,-1l0,1l1,0c0,1,0,1,0,1l0,1l0,1l0,-1c0,1,0,1,0,1c0,0,0,1,0,2l-1,1c0,0,0,1,0,1c0,1,0,1,0,2c0,0,-1,1,-1,1l1,1c0,0,0,1,0,1l0,1c0,1,0,1,0,1ZM201.5,572.5l6,-3c-1,1,-1,1,-1,2l-5,2ZM246.5,585.5c0,0,-1,0,-2,1c-1,0,-2,1,-3,1c-2,1,-3,1,-4,1l-1,0l-1,0c-1,-1,-1,-1,-1,-1l-1,0c0,0,-1,0,-1,0c0,1,0,1,0,1c0,0,-1,0,-1,0l0,1l0,1c0,0,0,1,0,1l1,1l-1,1c0,0,-1,1,-1,1c0,0,0,-1,0,-1l-1,-1c0,-1,0,-2,0,-2c0,-1,0,-2,0,-2c0,0,-1,0,-1,0l-1,0l-1,0c-1,0,-2,0,-2,-1c-1,0,-1,-1,-1,-2l-1,-8l1,-2l1,9l0,1l0,1c0,0,1,0,2,0l1,0l1,0c0,0,1,0,2,0c1,0,1,-1,1,-1l0,1l0,1c-1,0,-1,1,-1,2c0,1,0,2,0,2c0,0,0,-1,0,-1c0,0,0,-1,0,-1c0,-1,0,-1,1,-1l0,-1c0,0,1,0,1,0c0,-1,0,-1,0,-1c0,0,1,0,1,0l0,-1c0,0,1,0,1,0l0,1c1,0,1,0,1,0l1,0l1,0l1,0c1,0,2,0,2,0c-1,-1,-1,-1,-1,-1c0,-1,0,-1,0,-2c0,-1,0,-1,0,-1l0,-1l1,0c0,0,0,-1,1,-1c1,0,1,0,1,0c0,0,1,0,1,0l1,0l1,1l-1,0l-1,0l-1,0c-1,0,-1,0,-1,0c-1,1,-1,1,-1,1c0,0,0,1,0,1l1,1c0,0,1,1,1,1c1,0,1,0,1,0l1,0c0,-1,0,-1,1,-1l1,0l1,-1ZM238.5,575.5l4,-2l0,1l-4,2ZM234.5,584.5l-2,-1l1,-1l1,1ZM158.5,576.5c0,-1,0,-1,1,-1l1,0c0,0,1,0,1,0c1,0,1,1,1,1c0,0,-1,1,-1,1l0,1c-1,0,-1,0,-1,0c-1,0,-1,0,-1,0l-1,0l1,-1c1,0,2,0,2,-1l-1,0l-1,0l-1,0c0,0,0,1,-1,1l0,-1c0,0,1,0,1,0ZM176.5,572.5c0,-1,0,-1,1,-1c0,0,1,0,1,0c1,0,1,0,2,0c0,0,0,1,0,1c0,0,0,1,-1,1l0,1l-1,0c0,0,-1,0,-1,0c-1,0,-1,0,-1,0l2,-1c0,0,1,0,1,-1l-1,0c-1,0,-1,0,-2,0l0,1l0,-1ZM267.5,576.5c0,0,1,0,1,-1c1,0,1,0,2,0c0,0,1,0,1,1c0,1,0,1,0,1c0,1,-1,1,-1,1l-1,0l-1,0l-1,0l2,0c1,-1,1,-1,2,-1c-1,0,-1,0,-1,0c0,0,-1,-1,-1,-1c0,0,-1,1,-1,1c0,0,-1,0,-1,0c0,0,0,-1,0,-1ZM231.5,574.5c1,-1,1,-1,1,-1c1,0,1,0,2,0c0,0,1,0,1,0c0,0,1,1,1,1c-1,0,-1,1,-1,1l-1,1c-1,0,-1,0,-1,0l-1,0l1,-1c1,0,1,0,2,-1c0,0,-1,0,-1,0l-1,0c0,0,-1,0,-1,0c0,0,0,1,-1,1l0,-1ZM225.5,578.5l4,-2l0,1l-4,2ZM318.5,591.5l-2,-1l-1,1l-1,0l1,-2l1,1l1,-1l1,1ZM315.5,586.5c0,0,1,0,1,0c1,0,1,0,1,0c0,-1,0,-1,0,-1l0,-1l0,-1l-1,0l1,-1l1,0l0,1c0,0,0,1,0,1c0,0,0,1,0,1c0,0,0,1,0,1c0,0,0,1,-1,1c0,0,0,1,-1,1c0,0,-1,0,-1,0l-1,0l-12,0l0,1c0,0,0,1,0,1c-1,0,-1,0,-1,0c0,-1,0,-1,0,-1l0,-1l-1,0c0,-1,0,-1,0,-2l0,1l-1,0c0,0,0,1,-1,1l-1,0l-2,0c0,0,-1,0,-1,0l0,-1l-1,0c0,-1,0,-1,0,-1c-1,1,-1,1,-1,1c-1,0,-1,1,-2,1c0,0,-1,0,-1,0l-1,0c-1,0,-1,0,-1,-1c0,0,-1,0,-1,0l0,-1l0,-1l1,0l0,1l1,0l1,0l1,0c1,0,1,0,1,0l1,0c0,-1,0,-1,0,-1l1,0c0,0,0,-1,0,-2l-1,-1l0,-1l0,-1l1,-1l0,1c0,0,0,1,0,2l1,2c0,0,0,1,0,1c0,1,0,1,0,1c0,0,1,0,1,0l2,0c1,0,1,0,1,0c0,0,1,0,1,0l1,-1l0,-1l0,1c0,0,1,1,1,1l1,0l1,0l0,-1l1,0l1,-1c1,-1,1,-1,2,-1c0,-1,1,-1,1,-1l1,0c1,0,1,0,2,0c0,1,0,1,0,2l1,0c0,1,0,1,-1,1c0,0,0,1,0,1l1,0l2,0ZM317.5,572.5l0,-1c1,0,1,0,1,0c0,0,1,0,1,0c0,0,0,1,0,1l0,1c0,0,0,1,0,1l0,1l-1,0l-1,1c0,0,-1,0,-1,0l-1,1c0,-1,0,-1,0,-1l1,0c0,-1,0,-1,1,-1l0,-1c0,0,0,-1,0,-1c0,0,0,-1,0,-1ZM318.5,572.5c-1,0,-1,0,-1,0c0,0,0,1,0,1l1,0ZM310.5,585.5l0,-1c0,0,-1,0,-2,0l-1,0c-1,0,-1,1,-2,1l-1,0l-1,1l1,0l1,0l1,0c0,0,1,0,1,0l1,0l1,0c1,0,1,-1,1,-1ZM303.5,575.5l4,-2l-1,0l0,1l-4,2ZM289.5,574.5l0,1l1,0l0,-1l1,0l0,1c1,0,1,-1,1,-1l0,-1l0,1l0,1c0,0,0,1,0,1l-1,0l0,-1l-1,1c0,0,0,1,-1,1c0,0,0,-1,0,-1l0,-1l0,-1ZM293.5,571.5l-5,3c0,-1,0,-1,0,-1l6,-3ZM283.5,585.5c-1,0,-2,0,-3,1c-1,0,-2,1,-3,1c-1,1,-2,1,-3,1l-2,0c0,0,0,1,0,1c0,0,0,1,0,1c-1,1,-1,1,-1,1c0,1,-1,1,-1,1c0,1,0,1,-1,1c-1,0,-1,0,-1,0c0,0,-1,0,-1,0c-1,0,-1,0,-2,0l-1,0c0,-1,0,-1,0,-1c1,0,1,0,1,0c0,0,1,0,1,0c0,0,1,0,1,0c1,0,1,0,1,0c1,-1,1,-1,1,-1c1,0,1,-1,1,-1c0,0,1,0,1,-1c0,0,0,-1,0,-1c0,0,-1,0,-1,0c0,0,-1,0,-1,0c0,-1,0,-1,0,-1c0,-1,0,-1,0,-1l0,-1c0,0,0,-1,0,-1c1,0,1,0,1,0c0,-1,0,-1,0,-1l1,0c0,0,1,1,1,1l0,1c0,1,0,1,0,1c1,0,1,0,2,0l1,0c1,0,1,0,1,0c0,-1,0,-1,0,-1c-1,-1,-1,-1,-1,-2c1,-1,1,-1,1,-1l0,-1c1,0,1,-1,1,-1c0,0,1,0,1,0c0,0,1,0,1,0l1,0l1,0l0,1l1,0l-1,0l-1,0l-1,0l-1,0l-1,0c0,1,0,1,0,1l-1,0c0,0,1,1,1,1l0,1c1,0,1,1,2,1l1,0c1,-1,1,-1,1,-1l1,0l1,0l0,-1ZM277.5,572.5l0,-1c1,0,1,0,1,0c0,0,1,0,1,0c0,0,0,1,0,1l0,1c0,0,0,1,0,1l0,1l-1,0l-1,1c0,0,-1,0,-1,0l-1,1c0,-1,0,-1,0,-1l1,0c0,-1,0,-1,1,-1l0,-1c0,0,0,-1,0,-1c0,0,0,-1,0,-1ZM278.5,572.5c-1,0,-1,0,-1,0c0,0,0,1,0,1l1,0ZM270.5,585.5c0,0,0,1,-1,1c0,0,1,0,1,0c0,0,1,0,1,0c0,0,0,-1,0,-1c0,0,-1,0,-1,0ZM259.5,582.5l-1,-1l1,-2l1,1ZM259.5,591.5c-1,0,-1,0,-2,0c0,0,-1,0,-1,-1c-1,0,-1,0,-1,-1c0,0,-1,-1,-1,-2l1,-1c0,0,0,-1,0,-1c0,-1,0,-1,0,-1c0,0,1,0,1,0l0,-1l0,1l0,1c0,0,-1,1,-1,1c0,0,0,1,0,1c0,0,1,0,1,1c1,0,1,1,1,1c1,0,2,0,2,0c1,0,2,0,2,0c1,0,2,-1,2,-1c0,0,0,-1,0,-1c0,-1,0,-1,0,-1c0,-1,0,-1,0,-1c0,0,0,-1,0,-1l0,-1c0,0,-1,0,-1,0l0,-1l1,-2c0,0,0,1,0,1c0,1,1,1,1,1c0,0,0,1,0,1l0,1l0,1c0,0,0,1,0,1c0,1,0,1,0,2c0,1,-1,1,-1,2c-1,0,-1,0,-2,1c-1,0,-1,0,-2,0ZM255.5,575.5l4,-2l0,1l-4,2ZM335.5,586.5l0,1c0,0,-1,0,-1,0l0,1l0,-1c1,0,1,0,1,0l1,0c0,0,-1,0,-1,0ZM336.5,589.5c0,0,-1,0,-1,0c-1,0,-1,0,-1,0c0,0,-1,0,-2,0c0,0,-1,0,-1,0c0,-1,0,-1,0,-1l1,0c1,-1,1,-1,1,-1l1,0c0,-1,0,-1,0,-1l1,-1c-1,0,-1,0,-1,-1c0,0,-1,0,-1,0c0,-1,-1,-1,-1,-2c0,0,-1,-1,-1,-1c-1,-1,-1,-1,-1,-1c0,0,-1,0,-1,-1c0,0,0,1,0,1l-1,0c0,-1,-1,-1,-1,-2c0,-1,0,-1,0,-1l0,-1l1,0l1,1c0,0,1,1,1,1c1,1,2,2,2,2c1,1,1,1,2,2c0,1,0,1,1,1c0,1,0,1,0,1l1,-1c0,-1,0,-1,0,-2c0,-1,0,-1,0,-2l0,-1c0,0,0,-1,0,-1c0,0,0,-1,0,-1c0,0,0,-1,0,-1c0,0,0,-1,1,-1l0,1c0,1,0,1,1,1l-1,1l0,1l0,-1c0,1,0,1,0,1c0,0,0,1,0,2l0,1c0,0,0,1,0,1c-1,1,-1,1,-1,2c0,0,0,1,0,1l0,1c0,0,0,1,0,1l0,1c0,1,0,1,0,1ZM337.5,569.5l-6,3c0,-1,1,-1,1,-1l5,-3Z" class="g1_55" />
</svg>