<?xml version="1.0" encoding="UTF-8" standalone="no"?>
<!DOCTYPE svg PUBLIC "-//W3C//DTD SVG 1.1//EN"
"http://www.w3.org/Graphics/SVG/1.1/DTD/svg11.dtd">
<svg version="1.1" xmlns="http://www.w3.org/2000/svg" xmlns:xlink="http://www.w3.org/1999/xlink">
<defs>
<style type="text/css"><![CDATA[
.g1_33{
stroke: #1F1A17;
stroke-width: 1;
stroke-linecap: butt;
stroke-linejoin: miter;
}
]]></style>
</defs>
<path fill-rule="evenodd" d="M112.5,221.5l-3,2c0,0,0,-1,0,-1l4,-2ZM160.5,164.5l0,1l1,0l0,-1l1,0l0,1c0,0,0,-1,1,-1l0,-1l0,1l0,1c0,0,0,1,-1,1l-1,0l0,-1l0,1c0,0,-1,0,-1,0l-1,0l0,-1l1,-1ZM164.5,161.5l-6,3c1,-1,1,-1,1,-1l5,-3ZM228.5,159.5l1,0l0,-1c0,0,-1,-1,-1,-1c0,-1,0,-1,0,-2l0,-1c1,0,1,1,1,1c0,1,0,1,0,1l0,1c0,0,0,1,0,1c0,0,0,1,-1,1ZM109.5,172.5c0,0,1,0,1,0l1,0c0,0,1,-1,1,-1l-1,-2l0,-6l0,-1c0,0,0,-1,0,-1c0,0,0,-1,1,-1c0,0,0,1,0,1c0,1,0,1,1,1l-1,1l0,1l0,-1c0,1,0,1,0,1c0,0,0,1,0,2c0,0,0,1,0,2c0,1,0,1,0,1l0,2c0,1,0,1,0,1c0,1,0,1,0,1c0,0,-1,0,-1,0c0,0,0,1,0,1c0,0,-1,0,-1,0l-1,0c-1,0,-1,0,-1,0c-1,0,-1,0,-1,-1c0,0,-1,0,-1,0l0,-1c0,1,0,1,-1,2c0,0,-1,0,-1,0l-1,0l-1,0c-1,0,-1,0,-1,0l0,-1c0,0,-1,0,-1,0l-1,0c0,0,-1,1,-1,1c0,0,-1,0,-1,0l-1,0l-1,0c-1,0,-1,0,-2,-1c-1,0,-1,-1,-1,-2l0,-8l1,-2l0,10l1,1l1,0l1,0c1,0,1,0,2,0c0,0,1,0,1,0c0,0,1,0,1,-1c1,0,1,0,1,0l0,1c1,0,1,0,1,0l1,0l1,0l1,0c1,0,1,0,1,-1l0,-1l1,0l0,1c0,1,0,1,0,1c1,0,1,0,2,0ZM110.5,158.5l4,-2c0,1,0,1,-1,1l-4,2ZM107.5,177.5l-1,-1l-1,2l-1,-1l1,-2l1,1l1,-1l1,1ZM103.5,156.5c1,0,1,0,1,0c1,0,1,0,2,0c0,0,1,0,1,0c1,0,1,0,1,0l0,1c0,0,-1,0,-1,1l-1,0c-1,0,-1,0,-1,0l-1,0l1,0c1,0,2,-1,2,-1c0,0,-1,0,-1,0l-1,0l-1,0l-1,0l0,-1ZM99.5,170.5l-1,-1l1,-2l1,1ZM97.5,164.5l4,-2l0,1l-4,2ZM161.5,170.5l0,1l1,0c0,0,0,-1,0,-1l-1,0ZM162.5,178.5c-1,0,-1,0,-1,0c0,0,-1,0,-1,1c0,0,-1,0,-1,0l-1,0c0,0,-1,0,-1,-1c-1,0,-1,0,-1,0l1,0c1,0,1,0,1,0c0,0,1,0,1,0c0,-1,1,-1,1,-1c0,0,1,0,1,-1c0,0,1,0,1,-1l0,-1c1,0,1,-1,1,-1l0,-1c0,1,0,1,0,1l-1,0l-1,0c-1,0,-1,0,-1,0c0,0,0,-1,0,-1c0,0,0,-1,0,-1c0,0,0,-1,0,-1c0,0,0,-1,1,-1c0,0,0,-1,0,-1c0,0,1,0,1,0l1,0c0,0,0,1,0,1c0,0,0,1,0,1c1,0,1,1,1,1c0,0,0,1,0,1c0,0,0,1,0,1c0,1,-1,2,-1,3c0,0,0,1,-1,1l0,1ZM148.5,167.5l-1,-1l1,-1l1,1ZM148.5,174.5l-1,0l-1,0c0,0,-1,0,-1,0c0,-1,-1,-1,-1,-1l-2,-2c-1,-1,-1,-1,-2,-1l0,-1c0,1,0,1,0,1l0,1l0,1c0,1,-1,1,-1,1l-1,1c-1,0,-1,0,-1,0l-1,0l-3,0c0,0,-1,0,-1,0c0,0,0,-1,-1,-1l0,1l0,1c0,1,0,1,0,1c-1,0,-1,0,-1,-1c-1,0,-1,-1,-1,-1l0,-1c-1,0,-1,0,-1,0l-1,0c0,0,0,1,0,1l-1,0c0,1,0,1,0,1l0,1l1,0c0,1,0,1,0,1l0,2l0,2c0,1,0,1,0,1l0,1l0,1l0,-1l0,-1l0,-1l-1,-3l0,-1l0,-1l0,-1l0,-1c0,-1,0,-1,1,-2l1,-1l1,0l0,-1l1,0c0,1,1,1,2,2l1,0l2,0l1,0l1,0l1,0c0,0,1,0,1,0l0,-1c0,-1,0,-1,0,-1c0,-1,0,-1,0,-1c-1,0,-1,0,-1,0c0,-1,-1,-1,-1,-1c0,0,-1,-1,-1,-1c0,0,-1,0,-1,0c0,-1,0,-1,0,-1c-1,0,-1,0,-1,0c0,-1,0,-1,0,-1l1,0c0,0,0,-1,0,-1c0,-1,0,-1,0,-1c1,0,2,-1,4,-1c1,-1,2,-1,4,-2c1,0,2,-1,2,-1c1,0,1,0,1,0l0,2l-1,0c0,0,-1,0,-3,1c-1,0,-3,1,-4,1c-1,1,-2,1,-2,2c-1,0,-1,0,-1,0l1,1c1,0,1,0,1,0c0,0,1,0,1,0l0,1l1,0c0,0,1,1,2,1c0,0,0,1,1,1c1,1,1,1,2,2l1,1l1,0l1,0l1,0c0,0,1,0,1,0c1,0,1,0,1,0l0,-1l0,-1l-1,-1l1,-1l1,0c0,0,0,1,0,1c0,1,0,1,0,1c0,1,0,1,0,1c0,1,0,1,0,1c0,1,0,1,-1,1c0,0,0,1,-1,1c0,0,-1,0,-1,0ZM146.5,157.5c0,1,0,1,1,1c0,-1,0,-1,0,-1l0,-1l1,0l0,1c1,0,1,0,1,-1l0,-1l0,1l0,1c0,1,0,1,0,1l-1,0l-1,0c0,1,0,1,-1,1c0,-1,0,-1,0,-1l0,-1ZM150.5,154.5l-5,3c0,-1,0,-2,0,-2l6,-3ZM139.5,155.5c0,-1,0,-1,0,-1c1,0,1,0,1,0c0,0,1,0,1,0l0,1l0,1l0,1l0,1l-1,-1l0,1l-1,0c0,1,-1,1,-1,1l-1,0l1,-1l1,0l0,-1c0,-1,0,-1,0,-1c0,-1,0,-1,0,-1ZM140.5,155.5c-1,0,-1,0,-1,0l1,1l0,-1ZM125.5,163.5c1,0,1,0,1,0c1,0,1,0,2,0c0,0,1,0,1,0c1,0,1,0,1,0c0,1,0,1,0,1c0,0,-1,0,-1,1l-1,0l0,1c-1,0,-1,0,-1,0l-1,0l1,-1c1,0,2,-1,2,-1c0,0,-1,0,-1,0l-1,0l-1,0l-1,0c0,-1,0,-1,0,-1ZM199.5,171.5c-1,0,-2,1,-3,1c-1,1,-2,1,-3,1c-1,1,-2,1,-3,1l-1,0c-1,0,-1,0,-1,0l-1,0l0,-1l-1,0c0,0,-1,0,-1,0c0,1,-1,1,-1,1l-1,0l-1,0l-1,0l-1,-1l-1,0c-1,1,-1,1,-1,1c-1,0,-1,0,-1,0l-2,0c-1,0,-1,0,-2,-1c0,0,0,-1,0,-2l-1,-8l1,-2l1,10l0,1c0,0,1,0,1,0l2,0c0,0,1,0,1,0l1,0l1,-1c1,0,1,0,1,0l0,1c0,0,1,0,1,0l1,0c1,0,1,0,1,0c0,0,1,0,1,0l1,-1l1,0l0,1l1,0l1,0l1,0c1,0,1,0,1,0c0,0,1,0,1,0c0,0,0,-1,-1,-1c0,-1,0,-1,0,-1c0,-1,0,-1,0,-1c0,0,0,-1,1,-1l0,-1c0,0,1,-1,1,-1l1,0l1,0c0,0,1,0,1,0c1,0,1,0,1,1c0,0,1,0,1,0l-1,0l-1,0l-1,0l-1,0c-1,0,-1,0,-1,1l-1,0c0,1,0,1,1,1l0,1c1,0,1,1,2,1c0,0,1,0,1,0c0,-1,1,-1,1,-1l1,0l1,-1ZM190.5,161.5l5,-2l-1,1l-4,2ZM186.5,178.5l-1,-1l1,-1l1,0ZM184.5,161.5l4,-2l0,1l-4,2ZM179.5,166.5l-2,-1l1,-2l1,1ZM180.5,168.5l-1,-1l-1,2l-1,-1l1,-2l1,1l1,-1l1,1ZM178.5,158.5l5,-2c-1,1,-1,1,-1,1l-5,3ZM179.5,155.5l5,-2c0,0,0,1,0,1l-5,2ZM250.5,166.5l-1,-1l1,-2l1,1ZM259.5,171.5l-1,0l-1,0c-1,0,-1,0,-2,0l-1,1l-1,0l-1,1c-1,0,-1,0,-1,0c-1,0,-1,0,-2,1c-1,0,-1,0,-2,0l-1,0c0,0,-1,0,-1,0c0,-1,-1,-1,-1,-2c0,1,0,1,-1,2l-1,0l-1,0l-1,0c-1,0,-2,0,-2,0c0,0,-1,0,-1,-1c0,1,-1,1,-2,1c0,0,-1,0,-2,0c-1,0,-1,0,-1,0c-1,0,-1,0,-1,-1l-1,0l0,-1c0,1,0,1,-1,2l-1,0l-1,0l-1,0c0,-1,0,-1,-1,-1l-2,-2c0,-1,-1,-1,-1,-1l-1,-1c0,1,0,1,0,1l0,1l0,1c0,1,0,1,0,1c-1,0,-1,0,-1,1c0,0,-1,0,-1,0l-1,0l-1,0l-2,0c-1,0,-1,0,-2,0c0,0,0,-1,0,-1l0,1l0,1c0,1,0,1,-1,1l-1,-1c0,0,0,-1,0,-1l-1,-1l-1,0c0,0,0,1,-1,1c0,1,0,1,0,1l0,1c0,1,0,1,0,1l0,2l1,0l0,2c0,1,0,1,0,1l0,1l0,1l-1,0l0,-1l0,-1l0,-1l0,-3l-1,-1l0,-1l0,-1l0,-1c1,-1,1,-1,1,-2l1,0l0,-1l1,0l1,-1c1,1,1,1,2,2l2,0l1,0l1,0l1,0c1,0,1,0,1,0c0,0,1,0,1,0c0,0,1,0,1,-1c0,-1,0,-1,0,-1c0,-1,-1,-1,-1,-1c-1,-1,-1,-1,-1,-1c-1,0,-1,-1,-1,-1c-1,0,-1,0,-1,0c0,0,-1,0,-1,0c0,-1,0,-1,0,-1c0,-1,0,-1,0,-1c0,0,0,-1,0,-1c1,0,1,0,1,0c0,-1,0,-1,0,-1c1,0,2,-1,3,-1c1,-1,3,-1,4,-2c2,0,1,0,2,0l-1,1l-1,1c-2,0,-3,1,-4,1c-2,1,-3,1,-3,2l1,1c0,0,1,0,1,0l1,1c1,0,1,1,2,1c1,0,1,1,2,1c0,1,1,1,1,2l2,1l1,0l1,0c1,0,1,0,1,-1l0,-1l1,0l0,1c0,1,0,1,0,1c1,0,1,0,2,0c1,0,1,0,1,0c0,0,1,0,1,0l1,0c-1,0,-1,0,-1,-1c0,-1,0,-1,1,-2c0,0,0,-1,0,-1c0,0,1,0,1,0c0,-1,1,-1,1,-1c1,0,1,0,1,1c1,0,1,0,1,1l0,1c0,0,0,1,-1,1c0,1,0,1,0,1c0,0,1,0,1,0l1,0l1,0l1,0l1,-1l0,-1c0,-1,0,-1,0,-1l-1,-7l1,-2l1,11c0,0,0,1,0,1c0,0,1,0,1,0l1,0c0,0,1,0,1,0c0,0,1,0,2,0l1,0l1,-1l1,0l-1,-1l-1,0l-1,0l-1,0l-1,0c0,-1,0,-1,0,-1c1,-1,1,-1,1,-1c0,0,1,0,1,0l1,0l1,0l2,1l1,0c0,1,0,1,1,1l1,0c0,0,1,0,1,0l1,0ZM250.5,161.5l4,-2l0,1l-4,2ZM241.5,158.5l4,-2c0,1,0,1,0,1l-4,2ZM238.5,166.5l-1,-1l-1,1l-1,-1l1,-1l1,1l1,-2l1,1ZM238.5,169.5c-1,0,-1,0,-1,0c-1,0,-1,1,-1,1c1,1,1,1,1,1c1,0,1,0,1,0c1,0,1,-1,1,-1c0,0,0,-1,0,-1c-1,0,-1,0,-1,0ZM233.5,156.5c0,0,1,0,1,0c0,0,1,0,1,0c1,0,1,0,2,0l0,1l0,1c-1,0,-1,0,-1,0c0,0,-1,0,-1,0l-1,0c0,0,-1,0,-1,0l2,0c1,0,1,-1,1,-1c-1,0,-1,0,-1,0c-1,0,-1,0,-1,0c-1,0,-1,0,-1,0l0,-1ZM230.5,169.5l-2,0l1,-2l1,1ZM220.5,155.5c1,-1,1,-1,1,-1c0,0,1,0,1,0c0,0,1,0,1,1l-1,1l0,1l1,0l0,1l-1,-1l-1,1c-1,1,-1,1,-1,1l-1,0l-1,0l1,0l1,-1l0,-1l1,0l-1,0c0,-1,0,-1,0,-1c0,-1,0,-1,0,-1ZM222.5,155.5l-1,0l0,1l1,0l0,-1ZM207.5,163.5c0,0,1,0,1,0c0,0,1,0,1,0c1,0,1,0,2,0c0,1,0,1,0,1l0,1c-1,0,-1,0,-1,0c0,0,-1,0,-1,1l-1,0l-1,0l2,-1c1,0,1,-1,2,-1c-1,0,-1,0,-1,0c-1,0,-1,0,-1,0c-1,0,-1,0,-1,0c-1,0,-1,0,-1,0c0,-1,0,-1,0,-1ZM285.5,167.5l-1,-1l1,-1l1,1ZM285.5,174.5l-1,0l-1,0c-1,0,-1,0,-2,-1c-1,1,-1,1,-1,1l-1,0l-1,0l-1,0l-1,-1l-1,1c0,0,-1,0,-1,0l-1,0l-1,0l-1,0c-1,0,-1,0,-2,-1c0,0,-1,-1,-1,-2l0,-8l1,-2l0,10l1,0l0,1c0,0,1,0,1,0l1,0l1,0l1,0c0,0,1,0,1,0c0,0,1,-1,1,-1c1,-1,2,-2,3,-2l0,1l1,1l1,0l0,1c1,0,1,0,1,0l1,0l1,0l1,0c0,0,1,0,1,0c1,0,1,0,1,0l1,0l0,-1l-1,0l0,-1l0,-1l0,-1c1,0,1,0,1,0c0,0,0,1,0,1c0,1,0,1,0,1c0,1,0,1,0,1c0,1,0,1,0,1c0,1,0,1,0,1c-1,0,-1,1,-2,1c0,0,-1,0,-1,0ZM283.5,157.5c0,1,1,1,1,1c0,-1,0,-1,0,-1l0,-1l1,0l0,1l1,0l0,-1l0,-1l0,1l0,1c0,1,0,1,0,1l-1,0l-1,0c0,1,0,1,0,1c-1,0,-1,0,-1,0c0,-1,0,-1,0,-1l0,-1ZM287.5,154.5l-5,3c0,-1,0,-2,0,-2l6,-3ZM280.5,173.5l-1,-1c0,-1,0,-1,0,-2c-1,0,-1,0,-1,0l0,1l-1,0c0,0,1,1,1,1l1,0ZM276.5,161.5l4,-2l0,1l-5,2ZM355.5,164.5l-1,-1l1,-1l1,1ZM358.5,172.5l-1,0c0,1,0,1,0,1c-1,1,-1,1,-2,1c-1,0,-1,0,-2,0l-1,0l-2,0c-1,0,-2,0,-2,0c-1,-1,-1,-1,-1,-2l0,-1l1,0l-1,0c-1,0,-1,0,-1,1l-5,1c0,0,-1,1,-1,1c0,0,-1,0,-1,0l-1,0l-1,0l-1,0l0,-1c0,-1,0,-1,-1,-1c0,1,0,1,0,1c-1,1,-1,1,-2,1c0,0,-1,-1,-1,-2l-1,1c0,1,-1,1,-1,1c-1,0,-2,0,-2,-2c0,1,0,1,-1,1c0,1,-1,1,-1,1l-1,0l-1,0l-1,0l0,-1l-1,0l-1,0c-1,1,-1,1,-1,1c-1,0,-1,0,-1,0l-1,0c-1,0,-1,0,-1,0c-1,0,-1,0,-1,-1l0,-1c-1,1,-1,1,-2,2c0,0,-1,0,-1,0l-1,0c0,0,-1,0,-1,0c-1,0,-1,-1,-1,-1c0,1,0,1,-1,2c0,0,-1,0,-2,-1c0,0,-1,0,-1,0l-1,1l-1,1c0,0,-1,0,-2,1c-1,0,-2,0,-4,0l5,-2l1,-1c1,0,1,0,2,-1l0,-1c1,-1,1,-2,1,-2l1,0c1,0,1,0,1,1c1,0,1,1,2,1c1,0,1,0,1,0l1,0l1,0c0,0,1,0,1,0l0,-1l1,-1l0,1c0,1,0,1,1,1l1,0l1,0c0,0,1,0,1,0l1,0l1,-1c1,0,1,0,1,0l0,1c1,0,1,0,1,0l1,0l1,0l1,0c0,0,1,-1,1,-1l1,0c0,1,0,1,1,1c0,0,1,0,1,0c0,0,1,-1,1,-1l0,-1l1,0c0,1,0,1,0,1c0,1,0,1,1,1c1,0,1,-1,1,-1l0,-1l1,0c0,2,1,2,1,2l1,0l1,0l1,0l1,0c0,0,1,0,1,-1l1,0l1,0l1,0l-1,0l-1,-1c-1,0,-2,0,-3,0l-1,0l0,-1c0,0,0,-1,1,-1c0,0,1,0,1,0l1,0c1,0,1,0,1,0c1,1,2,1,4,1c0,1,1,1,2,1c0,0,1,0,1,0l1,0l-1,1l-1,0l-1,0c0,1,0,1,1,1l1,0l1,0l1,0l1,0c1,0,1,0,2,0c1,0,1,0,2,-1c0,0,0,-1,0,-1l-1,0c0,0,0,1,0,1c0,0,-1,0,-1,0l-1,0c0,0,0,-1,0,-1c0,0,0,-1,0,-1c0,0,0,-1,0,-1l0,-1c0,0,0,-1,0,-1c1,0,1,-1,2,-1c0,0,0,1,1,1c0,0,0,1,0,1l0,1l1,0l0,1c0,1,0,1,0,2l0,1ZM354.5,168.5l1,0l0,1l1,0c0,0,0,-1,0,-1l-1,-1c0,0,0,1,0,1ZM354.5,158.5l4,-2l-1,0c0,1,0,1,0,1l-4,2ZM341.5,161.5l4,-2l0,1l-4,2ZM335.5,177.5l-5,2c1,0,1,0,1,0c0,-1,0,-1,0,-1l4,-2ZM322.5,178.5l-2,-1l1,-1l2,0ZM319.5,163.5l1,0c0,0,1,0,1,0c1,0,1,0,2,0c0,1,0,1,0,1l-1,1l-1,0l0,1c0,0,-1,0,-1,0c-1,0,-1,0,-1,0l2,-1c0,0,1,-1,1,-1c-1,0,-1,0,-1,0c-1,0,-1,0,-2,0c0,-1,0,-1,0,-1ZM316.5,168.5l-1,-1l-1,1l-1,-1l1,-1l1,1l1,-1l1,1ZM314.5,158.5l0,-1c1,0,1,0,1,0c1,0,1,0,1,0c0,0,0,1,0,1c0,0,0,1,0,1c0,0,0,1,0,1l0,1l-1,0l-1,1c0,0,-1,0,-1,0l0,1l-1,0l0,-1l1,0c0,0,0,-1,1,-1l0,-1c0,0,0,-1,0,-1l0,-1ZM315.5,158.5c0,0,-1,0,-1,0c0,0,0,1,0,1l1,0ZM309.5,173.5l0,-1l-1,0c0,-1,0,-1,0,-1l-1,0c0,1,0,1,0,1l1,0l0,1ZM304.5,163.5c1,0,1,0,1,0c1,0,1,0,2,0c0,0,1,0,1,0c0,0,1,0,1,0c0,0,0,1,0,1c-1,0,-1,0,-1,1l-1,0c-1,1,-1,1,-1,1l-1,0l0,-1l1,0c1,0,1,-1,2,-1c0,0,-1,0,-1,0l-1,0c0,0,-1,0,-1,0l-1,0c0,-1,0,-1,0,-1ZM86.5,340.5l-1,0l0,1c-1,0,-1,0,-1,0c0,0,0,1,0,1c0,0,0,1,0,1c1,0,1,1,1,1l1,0c1,0,1,0,1,0c0,0,1,0,1,0l-1,0c0,1,-1,1,-1,1c0,0,-1,-1,-1,-1c-1,0,-1,0,-1,0c0,0,0,-1,0,-1l0,-1c0,0,0,-1,0,-1c0,0,0,-1,0,-1l0,-1c0,0,0,-1,0,-1l1,0l1,0l-1,0c0,1,0,1,0,1l-1,0l0,1c1,0,1,0,1,0l1,-1ZM99.5,358.5c0,1,-1,2,-1,3l0,1l-1,0l0,1l1,0l0,1l-1,0c0,0,-1,0,-1,1c-1,0,-1,1,-2,1l-1,0l0,1l-1,0l-1,0l-1,1l0,1l-4,0l-2,0l-1,0l-1,0l0,-1l-1,-1l-1,0c-1,0,-2,-1,-2,-1l-1,0l0,-1l-1,0l0,-1l-1,0l-1,0l0,-1l1,0l0,-1l-1,-1l0,-1c0,0,0,-1,0,-1l0,-1l0,-1c0,0,0,-1,0,-1c0,-1,0,-1,1,-1l0,-1l-1,0l1,-1l1,-1l1,0l0,-1l2,0l1,-1l1,0l1,-1c0,-1,0,-1,0,-1l1,0l1,0l2,0l4,0l0,1l1,0l0,1l1,0l2,1l1,0c0,0,0,1,0,1l1,0l1,1c0,0,1,0,1,1l-1,0l0,1l1,0l0,1l0,1l0,1ZM90.5,369.5l0,-1l1,-1l1,0c0,-1,1,-1,1,-1l1,0c1,-1,1,-1,1,-1l1,0l0,-1l1,0l0,-1l1,0l-1,0l0,-1l1,-1l0,-1l0,-1l0,-1c0,0,0,-1,0,-2l-1,-1l0,-1l1,0c0,0,-1,-1,-1,-1l-1,0l0,-1l-1,0l-2,-1l-1,-1c-1,0,-1,0,-1,0l-1,-1c0,-1,0,-1,0,-1l-4,0l-2,0l-1,0l-1,0l0,1l-1,1l-1,0l-1,1l-1,0l-1,1l-1,0l0,1c-1,0,-1,0,-2,1l1,0l0,1l-1,1l0,1l0,1l0,1l0,1l0,1c1,0,1,0,1,1l1,1c0,0,-1,0,-1,0l-1,0l1,0l0,1l1,0l0,1l1,0l1,1l1,0l1,1c1,0,1,0,1,0l1,1c0,0,0,1,1,1l1,0l2,0ZM95.5,354.5l-1,0l0,-1l-1,0c-1,0,-1,0,-1,0c0,-1,0,-1,0,-1l1,0c0,0,1,0,1,0l0,1l1,0ZM95.5,363.5l0,1l-1,0l0,1l-1,0l-1,0c0,0,1,0,1,-1l1,0c0,0,0,-1,1,-1ZM91.5,365.5c0,1,0,1,-1,1c0,1,0,1,0,1l-4,0l-2,0l-1,0l-1,0l0,-1c0,0,-1,0,-1,0l0,-1l1,0c0,0,0,-1,0,-1l1,0l1,0l2,0l4,0l0,1l1,0ZM91.5,352.5l-1,0c0,1,0,1,0,1l-4,0l-2,0l-1,0l-1,0l0,-1l-1,0c0,-1,0,-1,1,-1l0,-1l1,0l1,0l2,0l4,0l0,1c1,0,1,0,1,0ZM90.5,354.5c1,0,1,0,1,0c1,0,1,0,1,0c1,0,1,0,1,1l1,0l1,0l1,1l0,1l0,1l0,1c0,1,0,1,0,1l0,1l-1,1l-1,0l-1,1l-1,0l-1,0c0,0,-1,0,-1,0l-4,0l-2,0l-1,0l-1,0l-1,0c-1,0,-1,0,-1,0c-1,0,-1,0,-1,-1l-1,0l-1,0l-1,-2l0,-1l0,-1c0,-1,0,-1,0,-1l0,-1l1,0l0,-1l1,0c0,0,1,0,1,0l0,-1l1,0l1,0c0,0,1,0,1,0l1,0l1,0l2,0ZM90.5,363.5c0,0,1,0,1,0l1,0l1,0l0,-1c1,0,1,0,1,0l1,0l0,-1l1,0l0,-1l0,-1l0,-1c0,0,0,-1,0,-1c0,-1,-1,-1,-1,-1c0,-1,0,-1,0,-1l-1,1c0,0,0,-1,0,-1l-1,0l0,-1l-1,0l-1,0l-1,0l0,1l-4,0l-2,0l-2,0l0,-1l-1,0c0,0,-1,0,-1,0l-1,1c0,0,-1,1,-1,1l-1,-1l0,1l-1,1l0,1l0,1l0,1l1,1c0,0,0,1,0,1l1,0c0,0,1,0,1,0l0,1l1,0l1,0c0,0,1,0,1,0l0,-1l1,0l1,0l2,0l4,0ZM88.5,357.5l0,1l0,1l1,0l0,1l0,1l0,-1l-1,-1l0,-1c-1,0,-1,1,-1,1l0,1l-1,1l0,-1c0,0,1,-1,1,-1l0,-1l0,-1c0,0,1,0,1,0ZM85.5,357.5l0,1l0,1l0,1c0,1,0,1,0,1l0,-1c0,-1,0,-2,-1,-2ZM83.5,357.5l1,1l0,1l0,1c0,1,0,1,-1,1l0,-1c0,-1,0,-2,0,-2ZM77.5,354.5l0,-1l1,0l0,-1l1,0l1,0l0,1l-1,0l-1,0l0,1l-1,0ZM77.5,363.5l1,0c0,0,0,1,1,1l1,1l-1,0c0,0,-1,0,-1,-1l-1,0ZM154.5,361.5l0,-1l0,-1l-1,-9l1,-2l1,11l-1,0c0,0,0,1,0,1c0,0,0,1,0,1ZM146.5,359.5c0,0,1,0,1,0l1,0c0,0,1,-1,1,-1l-1,-2l0,-6l0,-1c0,0,0,-1,0,-1c0,0,0,-1,1,-1c0,0,0,1,0,1c0,1,0,1,1,1c0,0,0,1,-1,1l0,1c0,0,0,1,0,2c0,0,0,1,0,2c0,1,0,1,0,1l0,2c0,1,0,1,0,1c0,1,0,1,0,1c0,0,-1,0,-1,0c0,0,0,1,0,1c0,0,-1,0,-1,0l-1,0c0,0,-1,0,-1,0c0,1,0,1,0,1c0,1,0,2,-1,2c0,0,0,1,0,1c0,0,-1,0,-1,1c0,0,-1,0,-1,0c0,0,-1,1,-1,1c0,0,-1,0,-1,0c-1,0,-1,0,-2,-1c0,0,-1,0,-1,0c0,0,1,0,1,0l1,0c0,0,1,0,1,0c1,-1,1,-1,1,-1c1,0,1,0,1,-1c0,0,1,0,1,0c0,-1,0,-1,1,-1c0,-1,0,-1,0,-2l0,-1l0,-1c0,0,0,-1,0,-1c0,0,0,1,0,1l1,0ZM125.5,356.5l0,-1c1,0,1,0,1,0l1,0l1,0c0,0,1,0,1,0c0,0,1,0,1,0l-1,-1l-1,0l-1,-1c0,0,-1,0,-1,0c-1,0,-1,0,-1,0c0,0,1,0,1,-1c0,0,1,0,1,0c1,0,2,0,2,1l3,1l1,1l1,0l1,1l1,0l0,1l-2,0l-1,0l-2,-1l-1,0c-1,0,-2,0,-2,0l-1,0l-1,0c0,1,1,1,1,2l0,1l0,1c0,0,-1,0,-1,1l-1,0l0,-1c0,0,-1,0,-1,0l-1,-1l0,1c0,0,-1,1,-1,1l-1,0l-1,0l-1,0l-1,-1l0,-1l0,-1l0,-1c-1,1,-1,1,-2,1c0,1,-1,1,-1,1c0,1,0,1,0,1l0,1c0,1,0,1,0,2c0,0,-1,1,-1,1c-1,1,-1,1,-2,2c-1,0,-1,0,-2,0c-1,0,-1,0,-2,0c0,0,-1,-1,-1,-1c-1,0,-1,-1,-1,-1c0,-1,-1,-1,-1,-2c0,0,0,-1,0,-1c0,0,1,0,1,0l0,-1l0,-1c1,0,1,-1,1,-1c0,1,0,1,0,1c0,1,0,1,-1,1l0,1c0,1,0,1,1,1c0,1,0,1,0,1c0,0,1,0,1,1c1,0,1,0,2,0c1,0,2,0,2,0c1,-1,1,-1,2,-1c0,-1,0,-1,0,-1l0,-1l0,-1c0,0,0,-1,0,-1c0,0,0,-1,0,-1c-1,0,-1,0,-1,0l0,-1l1,-2c0,0,0,1,0,1c0,0,0,1,1,1c1,0,1,0,1,-1c1,0,1,0,1,0c1,0,1,-1,1,-1l0,1l0,1c0,0,0,1,1,1c0,1,0,1,0,1l1,0l1,0c1,0,1,0,1,0l1,0l0,-1c1,-1,1,-1,1,-2l1,0ZM132.5,361.5l-4,2c0,-1,1,-1,1,-1l4,-2ZM124.5,358.5l1,0l1,1c0,0,0,-1,0,-1c-1,0,-1,-1,-1,-1c0,0,-1,1,-1,1ZM125.5,364.5l-4,2c0,0,1,-1,1,-1l4,-2ZM120.5,364.5l-2,-1l-1,1l-1,0l1,-2l1,1l1,-1l2,1ZM110.5,357.5l-1,-1l0,-2l2,1ZM106.5,348.5l4,-2l0,1l-4,2ZM178.5,353.5l-2,-1l1,-1l1,0ZM186.5,358.5l-2,0c0,0,-1,0,-2,1c-1,0,-1,0,-1,0l-1,0l-1,1c0,0,-1,0,-1,0c0,0,-1,0,-1,1c-1,0,-2,0,-3,0l-1,0l-1,0c-1,0,-1,-1,-1,-1l0,-1l0,-1c-1,0,-1,0,-1,0c0,1,0,1,0,1c0,0,-1,0,-1,0c-1,0,-1,0,-1,1c0,0,-1,0,-1,0l0,1c0,1,0,1,0,1c0,1,-1,1,-1,2c0,0,-1,1,-1,1l-1,0c0,1,-1,1,-1,1l-1,0c0,0,-1,0,-1,0l0,-1c-1,0,-1,0,-1,0c0,0,-1,0,-1,0l1,0l1,0l1,0c1,0,1,-1,1,-1c0,0,1,0,1,0c0,0,0,-1,1,-1c0,0,0,-1,0,-1c1,0,1,-1,1,-1c0,-1,0,-1,1,-1c0,0,-1,0,-1,0l0,-2c1,0,1,0,1,0c1,0,1,0,1,0c0,0,0,-1,1,-1c0,0,1,0,1,0c0,0,0,-1,0,-1c1,0,1,0,1,0l0,1c0,1,0,1,0,1l1,1l1,0l1,0l1,0c1,0,1,0,2,0c0,0,1,0,1,0l2,-1l-1,-1l-1,0l-1,0c-1,0,-1,0,-1,0l-1,0c0,-1,0,-1,1,-1c0,-1,0,-1,0,-1c1,0,1,0,1,0c1,0,1,0,1,0l1,0l2,1l1,0c0,1,1,1,1,1c0,0,1,0,1,0c1,0,1,0,1,0l2,0ZM177.5,348.5l4,-2l0,1l-4,2ZM172.5,364.5l-2,-1l-1,1l-1,0l1,-2l1,1l1,-1l1,1ZM168.5,350.5l1,0c0,0,1,0,1,0c1,0,1,0,1,0c1,0,1,0,1,1l-1,1c0,0,-1,0,-1,0c0,0,0,1,0,1c0,0,-1,0,-1,0l-1,0l2,-1c0,0,1,0,1,-1l-1,0c-1,0,-1,0,-2,0l-1,0l1,0c0,0,0,-1,0,-1ZM164.5,345.5l1,-1l1,0c0,0,0,1,0,1c0,0,0,1,0,1c0,0,0,1,0,1l0,1l-1,0l-1,1l-1,0l0,1l-1,0l0,-1l1,0c0,0,0,-1,1,-1l1,-1l-1,0l0,-1l0,-1ZM165.5,345.5c0,0,-1,0,-1,0c0,1,0,1,1,1ZM225.5,357.5c0,0,-1,0,-1,0c0,0,0,1,0,1l1,0c0,0,0,-1,0,-1ZM225.5,365.5c0,0,-1,0,-1,0l0,1c-1,0,-2,0,-2,0l-1,0l-1,-1c0,0,-1,0,-1,0c0,0,1,0,1,0l1,0c1,0,1,0,1,0c1,-1,1,-1,1,-1c1,0,1,0,1,-1c1,0,1,0,1,0c0,-1,0,-1,1,-2c0,0,0,-1,0,-1l0,-1c0,1,0,1,0,1c-1,0,-1,0,-1,0c0,0,-1,0,-1,0l-1,0c0,0,0,-1,0,-1c0,0,0,-1,0,-1l0,-1c0,0,1,-1,1,-1l0,-1c1,0,1,0,1,0c0,0,1,0,1,0c0,0,0,1,0,1c1,0,1,1,1,1c0,0,0,1,0,1c0,0,0,1,0,1c0,1,0,1,0,1c0,1,0,2,-1,3c0,0,0,1,0,1c-1,0,-1,1,-1,1ZM222.5,351.5l4,-2l0,1l-4,2ZM218.5,361.5l0,-1l0,-1l-1,-9l1,-2l1,11c0,0,0,1,0,1c-1,0,-1,1,-1,1ZM216.5,346.5l4,-3l0,1l-1,0l-4,3ZM211.5,354.5l-1,-1l1,-1l1,1ZM211.5,361.5l-1,0c-1,0,-1,0,-1,0c0,0,-1,0,-1,0c0,-1,0,-1,0,-1c0,0,-1,0,-1,0l-1,0c0,1,-1,1,-2,1l-2,1c-1,0,-1,0,-1,0l-1,0l-1,0c-1,0,-3,0,-3,0c-2,0,-2,-1,-3,-1c0,-1,0,-1,-1,-1c0,0,0,-1,0,-1l0,-1c0,-1,0,-1,0,-1c1,-1,1,-1,1,-2c0,0,1,0,1,0l0,1c0,0,-1,0,-1,0c0,1,0,1,0,1c0,1,0,1,0,2c1,0,1,0,2,1c0,0,1,0,1,0c0,0,1,0,1,0c1,0,2,0,3,0c1,0,1,0,2,0c0,0,1,0,2,0c1,0,1,0,1,0c1,-1,1,-1,2,-1c1,-1,1,-1,1,-1l0,1l1,0l1,0l1,0c0,0,1,0,1,0c1,0,1,0,2,0l0,-1l-1,-1l0,-1l1,-1c0,0,0,1,0,1c0,1,0,1,0,1c0,1,0,1,0,1c0,1,0,1,0,1c0,1,0,1,0,1c-1,0,-1,1,-2,1c0,0,-1,0,-1,0ZM202.5,356.5l-2,-1l-1,1l-1,-1l1,-1l1,1l1,-2l2,1ZM199.5,348.5l5,-2l-1,1l-4,2ZM277.5,357.5c0,0,-1,0,-1,0c0,0,0,1,0,1l1,0c0,0,0,-1,0,-1ZM277.5,365.5c0,0,-1,0,-1,0l-1,1c0,0,-1,0,-1,0l-1,0c0,0,-1,0,-1,-1c0,0,-1,0,-1,0c0,0,1,0,1,0c1,0,1,0,1,0c1,0,1,0,1,0c1,-1,1,-1,1,-1c1,0,1,0,1,-1c1,0,1,0,1,0c0,-1,0,-1,1,-2c0,0,0,-1,0,-1l0,-1c0,1,0,1,0,1l-1,0c-1,0,-1,0,-1,0l-1,0c0,0,0,-1,0,-1c0,0,0,-1,0,-1l0,-1c0,0,1,-1,1,-1l0,-1c1,0,1,0,1,0c0,0,1,0,1,0c0,0,0,1,0,1c1,0,1,1,1,1c0,0,0,1,0,1c0,0,0,1,0,1c0,1,0,1,0,1c0,1,0,2,-1,3c0,0,0,1,0,1c-1,0,-1,1,-1,1ZM274.5,351.5l4,-2l0,1l-4,2ZM270.5,361.5l0,-1l0,-1l-1,-9l1,-2l1,11c0,0,0,1,0,1c-1,0,-1,1,-1,1ZM259.5,364.5l1,0c1,0,2,0,3,-1c0,0,1,0,1,-1c1,0,1,-1,1,-1c1,0,1,-1,1,-1l0,-1l0,-1l-1,0l0,-1l0,-1l0,-1l1,1c0,0,0,1,0,1l1,1l0,1c0,1,0,1,-1,2c0,1,0,1,0,1c0,1,0,1,-1,1c0,0,0,1,0,1c-1,0,-1,0,-1,1l-1,0l-1,0l-1,0l-1,0c0,0,-1,0,-1,0l0,-1ZM261.5,350.5l1,0l1,0c0,0,1,0,1,0c1,0,1,0,1,1c0,0,-1,0,-1,1c-1,0,-1,0,-1,0c0,0,0,1,0,1c-1,0,-1,0,-1,0l-1,0l1,-1c1,0,2,0,2,-1c0,0,-1,0,-1,0l-1,0l-1,0l-1,0c0,0,0,-1,1,-1ZM258.5,358.5l-2,0c0,0,-1,0,-1,1l-1,0c-1,0,-1,0,-1,0l-1,0l-1,1c0,0,-1,0,-1,0c0,0,-1,0,-1,1c-1,0,-2,0,-2,0l-1,0c-1,0,-2,0,-2,0c0,0,0,-1,-1,-1c0,1,0,1,0,2l-1,0l-1,-1c-1,0,-1,0,-2,0l0,1c0,0,-1,0,-1,1c-1,0,-1,0,-2,1c-2,0,-3,0,-4,0l4,-2l2,-1c0,0,1,0,1,-1l1,-1c0,-1,0,-2,1,-2l1,0c0,0,1,0,1,1c0,0,1,1,1,1c0,0,1,0,1,0c0,0,1,0,1,0l1,0c1,0,1,0,2,0c0,0,1,0,1,0l2,-1l1,0l-2,-1l-1,0l-1,0c0,0,-1,0,-1,0l-1,0c0,-1,1,-1,1,-1c0,-1,0,-1,1,-1l1,0c0,0,1,0,1,0l2,1l1,0c1,1,1,1,1,1c1,0,1,0,1,0c1,0,1,0,2,0l1,0ZM249.5,348.5l5,-2l-1,1l-4,2ZM242.5,360.5l0,-1c0,-1,-1,-1,-1,-1c0,1,-1,1,-1,1c0,0,1,0,1,0l1,1ZM207.5,345.5c1,0,1,0,1,0c1,0,1,0,2,0c0,0,1,0,1,0c1,0,1,0,1,0l0,1c0,0,-1,0,-1,1l-1,0c-1,0,-1,0,-1,0l-1,0l1,0c1,0,2,-1,2,-1c0,0,-1,0,-1,0l-1,0c0,0,-1,0,-1,0l-1,0l0,-1ZM238.5,350.5l1,0c0,0,1,0,1,0c1,0,1,0,2,0c0,1,0,1,0,1l-1,1l-1,0l0,1c0,0,-1,0,-1,0c-1,0,-1,0,-1,0l2,-1c0,0,1,-1,1,-1l-1,0c-1,0,-1,0,-2,0c0,-1,0,-1,0,-1ZM315.5,361.5l0,-1l0,-1l0,-9l1,-2l0,11c0,0,0,1,0,1c0,0,-1,1,-1,1ZM306.5,352.5l-1,-1l0,-2l2,1ZM311.5,358.5c0,0,-1,1,-2,1c-1,1,-2,1,-4,1c-1,1,-2,1,-3,1l-1,0l-1,0c-1,0,-2,0,-2,0c0,0,-1,0,-1,-1c0,1,-1,1,-2,1c0,0,-1,0,-1,0l-1,0c-1,0,-1,0,-1,0c0,1,0,1,0,1c0,1,0,2,-1,2c0,0,0,1,0,1c-1,0,-1,0,-1,1c0,0,-1,0,-1,0c0,0,-1,1,-1,1c0,0,-1,0,-1,0c-1,0,-1,0,-2,-1c0,0,-1,0,-1,0c0,0,1,0,1,0l1,0c0,0,1,0,1,0c0,-1,1,-1,1,-1c1,0,1,0,1,-1c0,0,1,0,1,0c0,-1,0,-1,0,-1c1,-1,1,-1,1,-2l0,-1c0,0,-1,0,-1,-1l1,0c0,0,0,-1,0,-1c0,0,0,1,0,1l1,0l1,0l1,0c0,0,1,0,1,0l1,0c-1,0,-1,0,-1,-1c0,-1,0,-1,0,-2c1,0,1,-1,1,-1c0,0,1,0,1,0c0,-1,1,-1,1,-1c1,0,1,0,1,1c1,0,1,0,1,1l0,1l0,1c0,0,-1,0,-1,0c0,1,0,1,0,1l1,0l1,0l1,0l1,0c1,0,1,0,2,0c-1,0,-1,-1,-1,-1c0,-1,0,-1,0,-1c0,-1,0,-1,0,-1c0,0,0,-1,0,-1l0,-1c1,0,1,0,1,0c0,0,0,-1,0,-1c1,0,1,0,1,0c1,0,1,0,1,0c0,0,1,0,1,0l1,0l1,1l-1,0l-1,0l-1,0c-1,0,-1,0,-1,0l0,1c-1,0,-1,0,-1,0c0,1,0,1,0,1c0,0,0,1,1,1c0,0,1,1,1,1c1,0,1,0,1,0l1,0c0,0,0,-1,0,-1l1,0l1,0l1,-1ZM302.5,343.5c0,0,1,0,1,0c1,0,1,0,1,0c1,0,1,0,2,0c0,0,0,1,0,1l0,1c0,0,-1,0,-1,0c0,0,-1,0,-1,0l-1,0l-1,0l2,0c1,0,1,-1,2,-1c-1,0,-1,0,-1,0c0,0,-1,0,-1,0c0,0,-1,0,-1,0c0,0,-1,0,-1,0c0,-1,0,-1,0,-1ZM298.5,353.5l-2,-1l1,-2l2,2ZM298.5,356.5c-1,0,-1,0,-1,0c-1,0,-1,1,-1,1c0,1,1,1,1,1c1,0,1,0,1,0c1,0,1,-1,1,-1l0,-1c-1,0,-1,0,-1,0ZM298.5,364.5l-5,2c1,0,1,-1,1,-1l4,-2ZM287.5,350.5c1,0,1,0,2,0c0,0,1,0,1,0c1,0,1,0,1,1c0,0,-1,0,-1,1c-1,0,-1,0,-1,0c0,0,0,1,0,1c-1,0,-1,0,-1,0l-1,0l1,-1c1,0,2,0,2,-1c0,0,-1,0,-1,0l-1,0l-1,0l-1,0c0,0,0,-1,1,-1ZM339.5,364.5c0,0,1,0,1,0l1,0c0,0,1,0,2,-1c1,0,1,0,1,-1c1,0,1,-1,2,-1c0,0,0,-1,0,-1l0,-1l0,-1l-1,-1l0,-1l1,-1l0,1c0,0,1,1,1,1l0,1l0,1c0,1,0,1,0,2c0,1,-1,1,-1,1c0,1,0,1,0,1c0,0,-1,1,-1,1l-1,1c-1,0,-1,0,-1,0c-1,0,-1,0,-1,0l-1,0c0,0,-1,0,-1,0l-1,0l0,-1ZM342.5,350.5l1,0l0,1c0,0,1,-1,1,-1l0,-1l0,1c1,0,1,0,1,0l0,-1l1,-1l0,1l0,1c-1,1,-1,1,-1,1l-1,0c-1,1,-1,1,-1,1c0,0,-1,0,-1,0c0,0,0,-1,0,-1l0,-1ZM347.5,347.5l-6,3c0,-1,1,-2,1,-2l5,-3ZM332.5,365.5l-2,-1l1,-1l1,1ZM339.5,359.5c-1,0,-1,1,-2,1c-1,1,-2,1,-3,1c-1,1,-3,1,-4,1c-1,0,-2,0,-3,-1c-1,0,-2,0,-3,-1l0,-1c-1,0,-1,0,-1,0c0,0,0,-1,0,-1c0,-1,0,-1,1,-2c0,0,0,-1,1,-1c0,0,0,1,-1,1c0,1,0,1,0,1c0,1,0,1,1,1c0,1,0,1,1,1c0,0,1,0,1,1l1,0l1,0l2,0c1,0,1,0,2,0l1,-1c0,0,1,0,1,0l1,0c1,0,1,0,2,-1c0,0,1,0,1,-1c0,-1,-1,-1,-1,-1c0,0,0,-1,0,-1c1,-1,1,-1,1,-1l1,1c0,0,0,1,0,1l0,1c0,0,0,1,0,1c-1,0,-1,1,-1,1ZM330.5,351.5l0,1c1,0,1,0,1,0l0,-1l0,-1l0,1l1,0c0,1,0,1,0,1c0,0,0,-1,0,-1l1,-1l0,1l0,1c0,0,-1,0,-1,1c-1,0,-1,0,-1,0l0,-1l0,1c-1,0,-1,0,-1,0c0,0,-1,0,-1,0l0,-1l0,-1ZM331.5,367.5l-4,2c0,-1,1,-1,1,-1l4,-2ZM378.5,357.5l-1,0c0,0,0,1,0,1c0,0,1,0,1,0l1,0c-1,0,-1,-1,-1,-1ZM378.5,365.5c0,0,-1,0,-1,0l0,1c-1,0,-2,0,-2,0c-1,0,-1,0,-2,-1c0,0,-1,0,-1,0c0,0,1,0,1,0l1,0c1,0,1,0,1,0l1,0c0,-1,0,-1,0,-1c1,0,1,0,1,-1c1,0,1,0,1,0c0,-1,0,-1,1,-2c0,0,0,-1,0,-1l0,-1c0,1,0,1,0,1c-1,0,-1,0,-1,0c0,0,-1,0,-1,0c-1,0,-1,-1,-1,-1c0,0,0,-1,0,-1l0,-1c0,0,1,-1,1,-1l0,-1c1,0,1,0,1,0c0,0,1,0,1,0c0,0,0,1,0,1c1,0,1,1,1,1c0,0,0,1,0,1c0,0,0,1,0,1c0,1,0,1,0,1c0,1,0,2,-1,3c0,0,0,1,0,1c-1,0,-1,1,-1,1ZM375.5,351.5l4,-2l0,1l-4,2ZM371.5,351.5l-1,-1l-1,2l-2,-1l1,-2l2,1l1,-1l1,1ZM372.5,359.5c0,1,0,1,-1,1c0,1,-1,1,-1,1c-1,0,-1,0,-2,0l-1,0c-1,0,-1,0,-1,0c-1,0,-1,-1,-1,-2l0,1l0,1l0,1c0,0,0,1,-1,1c0,1,0,1,-1,2c-1,0,-1,1,-1,1c-1,0,-1,0,-2,0c0,0,-1,0,-1,0l-1,0c-1,0,-1,0,-1,0c0,0,-1,0,-1,-1c-1,0,-1,0,-1,-1c0,0,0,-1,0,-1c0,-1,0,-1,0,-2c0,0,0,-1,1,-1l0,-1l1,0l-1,0l0,1l0,1l0,1c0,0,0,1,0,1c1,1,1,1,2,1c1,0,1,0,1,0c1,0,2,0,3,0c1,-1,1,-1,2,-2l0,-1l0,-3l0,-1c0,0,0,-1,0,-1l-1,-7l1,-2l1,11c0,0,0,1,0,1c1,0,1,0,1,0c0,0,1,0,1,0c1,0,2,0,3,0c1,0,1,0,2,-1c0,0,0,-1,0,-1c0,0,-1,0,-1,0c0,0,0,1,0,1c0,0,-1,0,-1,0c0,0,-1,0,-1,0c0,0,0,-1,0,-1c-1,0,-1,-1,-1,-1c0,0,0,-1,1,-1c0,0,0,-1,0,-1l0,-1c1,0,1,-1,1,-1c1,0,1,1,1,1c1,0,1,1,1,1l0,1c0,0,1,1,1,1c0,1,0,1,0,2l0,1c0,0,-1,0,-1,0ZM369.5,355.5c1,1,1,1,1,1l1,0c0,0,0,-1,0,-1l-1,0c0,-1,0,-1,0,-1c0,1,-1,1,-1,1ZM369.5,342.5c0,0,0,-1,0,-1c1,0,1,0,1,0c1,0,1,0,1,1l0,1c0,0,-1,0,-1,0l1,1l0,1l-1,-1l-1,1c0,1,-1,1,-1,1l-1,0c0,0,-1,0,-1,0l1,0l1,-1l1,-1c0,-1,-1,-1,-1,-1c0,-1,1,-1,1,-1ZM370.5,342.5l-1,0l0,1l1,0l0,-1ZM114.5,344.5c0,0,0,-1,1,-1c0,0,1,0,1,0c1,0,1,0,2,0c0,1,0,1,0,1c0,1,0,1,-1,1c0,0,0,1,0,1l-1,0c0,0,-1,0,-1,0c-1,0,-1,0,-1,0l2,0c0,-1,1,-1,1,-1c0,0,0,-1,0,-1c-1,0,-1,0,-1,0c-1,0,-1,0,-2,1c0,-1,0,-1,0,-1ZM357.5,341.5l1,0c0,0,1,0,1,0c1,0,1,0,2,0c0,1,0,1,0,1l0,1c-1,0,-1,0,-1,0c-1,0,-1,0,-1,0c0,1,-1,1,-1,1c0,0,-1,0,-1,-1l2,0c0,0,1,-1,1,-1c-1,0,-1,0,-1,0c-1,0,-1,0,-2,0c0,-1,0,-1,0,-1ZM116.5,172.5l0,-1l1,-1l-1,-8l1,-3l0,11c0,1,0,1,0,1c0,1,0,1,-1,1ZM119.5,174.5l-4,2c0,-1,0,-1,0,-1l4,-2ZM154.5,172.5l0,-2l0,-1l-1,-8l1,-3l1,11c0,0,0,1,0,1c0,0,-1,0,-1,0c0,1,0,1,0,2ZM152.5,157.5l4,-2l0,1l-1,0l-4,2ZM292.5,173.5l0,-1l0,-1l0,-8l1,-3l0,11l0,1c0,1,-1,1,-1,1ZM290.5,159.5l5,-2l-1,0c0,1,0,1,0,1l-4,2ZM361.5,172.5l0,-1l0,-1l0,-8l0,-3l1,11l0,1c0,1,-1,1,-1,1ZM359.5,158.5l4,-2l0,1l-4,2ZM412.5,304.5l-1,-1l0,-1c0,-1,0,-1,0,-2c0,0,0,-1,0,-1c1,0,1,0,1,0l1,-1l0,1l-1,0l0,1l0,1c0,0,0,1,0,1l1,0c0,1,1,1,1,1c0,0,0,1,-1,1c-1,0,-1,0,-1,0ZM417.5,313.5c1,0,1,0,1,0c1,0,1,0,1,0c0,0,1,0,1,0c0,-1,0,-1,0,-1l0,-2l-1,-7c0,-1,0,-1,0,-1c1,-1,1,-1,1,-1c0,0,0,1,0,1c0,0,1,0,1,1l0,1l-1,0c0,1,0,1,1,2c0,0,0,1,0,3c0,0,0,1,0,1l0,1c0,1,0,1,0,1l0,1l-1,0c0,0,0,1,0,1c0,0,-1,0,-1,0c0,1,0,1,-1,1l-1,0c0,0,-1,0,-1,0c-1,0,-1,-1,-1,-1l-1,-1c0,0,0,-1,0,-1c0,1,-1,1,-1,1l-1,0c-1,0,-1,0,-2,0l0,-1c0,-1,0,-1,1,-2c0,0,1,0,2,-1c0,0,1,-1,1,-1l-1,0c0,0,0,-1,1,-1l0,-1l0,2l1,1l0,1l0,2c0,1,0,1,1,1c0,0,1,0,1,0ZM418.5,299.5l4,-3l0,1c0,0,0,1,0,1l-4,2ZM414.5,309.5l-1,1l-1,0c0,1,-1,1,-1,1l1,0l1,0c0,0,1,0,1,0ZM189.5,304.5l0,-1c0,0,-1,0,-1,0l0,-1c0,0,0,-1,0,-1c0,-1,1,-1,1,-1c0,-1,0,-1,0,-1l1,0c0,0,0,-1,1,-1l-1,1l0,1l-1,1l0,1l0,1l1,0c0,-1,0,-1,0,0l1,0l0,1l0,1c0,0,-1,0,-1,0c-1,0,-1,-1,-1,-1ZM296.5,305.5l-1,0c0,0,0,-1,0,-1c0,-1,0,-1,0,-2c0,0,0,-1,0,-1c0,0,1,0,1,0l0,-1c1,0,1,0,1,0l-1,1l0,1l0,1l-1,0c0,0,0,1,1,1c1,0,1,0,1,0c0,1,0,1,0,1c1,0,0,1,0,1l-1,0l0,-1ZM218.5,312.5l0,-1l1,0c1,-1,1,-1,1,-1l0,-1l0,-1l-1,-1l0,-1c0,-1,0,-1,0,-1l1,0l0,1l0,1l0,1l0,1l0,1l1,-1c1,0,1,0,1,0l1,0c1,0,1,0,1,0l0,1l-1,0c0,1,0,1,0,1c-1,0,-1,0,-2,0c0,1,0,1,-1,1ZM222.5,310.5l-1,0l-1,0l0,1c1,0,1,0,1,0l1,0c0,-1,1,-1,1,-1c0,0,-1,-1,-1,-1ZM98.5,298.5c0,-1,0,-2,0,-2c0,-1,0,-1,0,-2l0,-1c0,0,0,1,1,1c0,1,0,1,0,1l0,1c0,1,0,1,0,1c0,1,-1,1,-1,1ZM231.5,319.5c0,-1,0,-2,0,-2c0,-1,0,-1,-1,-2l1,0l0,-1c0,0,0,1,0,1c1,1,1,1,1,1l0,1c0,1,0,1,0,1c-1,0,-1,1,-1,1ZM394.5,317.5l0,-1c0,0,0,-1,0,-1c-1,-1,-1,-1,-1,-2l1,-1c0,0,0,1,0,1c0,1,0,1,0,1l0,1c0,0,0,1,0,1c0,0,0,1,0,1ZM56.5,312.5c0,1,0,2,0,2c0,0,0,1,0,1l-1,1l1,1l-1,0l0,1l-1,0l0,1l-1,0l-1,1l-1,0l-1,0c0,0,-1,0,-1,0l0,1l-1,1c-1,0,-1,1,-1,1l-4,0l-1,0l-2,0c0,-1,0,-1,0,-1l-1,-1c0,0,-1,-1,-1,-1c-1,0,-2,0,-2,0l-1,-1l-1,0l0,-1l-1,0l0,-1l-1,0l1,-1l-1,-1l0,-1l-1,0l0,-1l0,-1l0,-1c0,-1,1,-1,1,-2l1,-1l-1,0c0,-1,0,-1,0,-1l1,0l0,-1l1,0l0,-1l1,0l1,-1l2,0l1,-1l1,-1l2,0l1,0l4,0l1,0l0,1l1,0l1,1l1,0l1,1c1,0,1,0,1,0l1,1c1,1,2,1,2,1l0,1l-1,0l0,1l1,0l0,1l0,1ZM47.5,322.5l1,0l0,-1l1,0l1,-1l1,0l1,-1c0,0,1,0,1,0l0,-1l1,0l1,-1l1,0l-2,-1l1,0l0,-1l1,-1l0,-1l0,-1c0,-1,0,-2,0,-2l-1,-1l0,-1l-1,0l1,0l1,-1c-1,0,-1,0,-2,-1l-1,0l0,-1l-1,0l-1,0l-2,-1l-1,-1l0,-1c-1,0,-1,0,-1,0l-4,0l-1,0l-2,0l0,1l-1,1c0,0,-1,0,-1,0l-2,1l-1,0l-1,1l-1,0c0,1,0,1,-1,1l1,1l0,1l-1,0l0,1l0,1c0,0,0,1,0,1l0,1l0,1l0,1l1,0l0,1l-1,1l1,0l0,1l1,0l0,1l1,0l1,0l0,1l1,0l1,0c0,0,1,0,1,1l1,0l0,1l2,0l1,0ZM53.5,307.5l0,1l-1,0l0,-1l-1,0l0,-1l-1,0l-1,0c1,0,1,0,1,0l0,-1l1,1c1,0,1,0,1,0l0,1l1,0ZM53.5,317.5l0,1l-1,0l-1,1l-1,0c0,-1,0,-1,0,-1l1,0c1,-1,1,-1,1,-1l1,0ZM49.5,319.5c0,0,-1,1,-1,1l-1,0l-4,0l-1,0l-2,0l-1,0c0,-1,0,-1,0,-1c0,0,0,-1,0,-1c0,0,1,0,1,0l2,0l1,0l4,0c0,0,1,0,1,0l0,1l1,0ZM49.5,305.5c0,0,-1,1,-1,1l-1,0l-4,0l-1,0l-2,0l-1,0l0,-1l0,-1l1,0l2,0l1,0l4,0c1,0,1,0,1,0c0,0,0,1,0,1l1,0ZM47.5,308.5c0,0,1,0,1,0l0,-1c0,0,1,0,1,0c0,0,1,0,1,1c0,0,1,0,1,0l1,1l1,-1c0,0,0,1,0,1l0,1l1,0l0,1l0,1l0,1l0,1l-1,1c0,0,0,1,0,1l-1,-1c0,0,-1,1,-1,1l-1,1l-1,0l-1,0l-1,-1l-4,0l-1,0l-2,0l0,1c-1,0,-1,0,-1,0c-1,0,-1,0,-2,0c0,0,0,-1,-1,-1l0,-1l-1,1l-1,-1l0,-1l0,-1l0,-1c0,0,0,-1,0,-1l0,-1l0,-1c1,0,1,-1,1,-1l1,1l1,-1c1,-1,1,-1,2,-1l1,0l0,1l2,0l1,0ZM47.5,316.5l1,0l0,1l1,0c1,0,1,0,1,0l0,-1l1,0l0,-1l1,0l1,0l0,-1l1,0l0,-1l0,-1c0,0,0,-1,0,-1c-1,-1,-1,-1,-1,-2l-1,0c-1,0,-1,0,-1,0l0,-1l-1,0l-1,-1c0,0,-1,1,-1,1l-1,0l-4,0l-1,0l-2,0l-1,0l0,-1c-1,0,-1,0,-1,1l-1,0l0,1c-1,0,-1,0,-1,0l-1,0l-1,1l0,1l0,1c0,1,0,1,0,1l0,1c0,1,1,1,1,1l1,0l0,1l1,0l1,0l0,1l1,0l1,0c0,-1,0,-1,0,-1l2,0l1,0l4,0ZM45.5,315.5c0,0,0,-1,0,-1l0,-1l-1,0l0,-1l0,-1l0,-1l0,1l1,1l0,1l1,-1l0,-1c0,0,1,-1,1,-1l0,1c0,0,-1,1,-1,1l0,2l-1,0c0,0,0,1,0,1ZM42.5,310.5l1,1c0,1,0,1,0,1l0,1l0,1c0,0,0,1,0,1l0,-1c0,-1,-1,-2,-1,-3ZM41.5,310.5l0,1c0,1,1,1,1,1l0,1l0,1l-1,0c0,0,0,1,0,1l0,-1c0,-1,0,-2,-1,-3ZM35.5,307.5l0,-1l1,0l1,0l0,-1l1,0l0,1c0,0,-1,0,-1,0l-1,1l-1,1l0,-1ZM35.5,317.5c0,0,1,0,1,1l1,0l1,0l0,1l-1,0c-1,0,-1,-1,-2,-1l0,-1ZM116.5,315.5l0,-1l0,-2l-1,-8l1,-3l1,11c0,0,0,1,-1,1l0,1l0,1ZM108.5,313.5c0,0,1,0,1,0l1,0l0,-1c0,0,1,0,1,0l-1,-2l0,-7c0,-1,0,-1,0,-1c0,-1,0,-1,1,-1c0,1,0,1,0,1l1,1l-1,1c0,1,0,1,0,2c0,0,0,1,0,3c0,0,0,1,0,1l0,1c0,0,0,1,0,1c0,1,0,1,0,1l0,1c0,0,-1,0,-1,0c0,0,-1,0,-1,1l-1,0l-1,0c0,0,-1,-1,-1,-1c0,0,-1,0,-1,-1l-2,-2c-1,0,-1,0,-2,-1l0,1l0,1l0,1c0,0,-1,0,-1,1c-1,0,-1,0,-1,0c0,1,-1,1,-1,1l-1,0l-1,0c-1,0,-2,0,-2,-1c-1,0,-1,0,-1,0c-1,0,-1,0,-2,0c0,1,-1,1,-2,1l-1,0l0,-1l0,1l-1,1c0,0,0,1,0,2c0,0,-1,0,-1,1l-1,0c0,1,0,1,-1,1c-1,0,-1,0,-2,0c0,0,-1,0,-2,0l0,-1l1,0c1,0,1,0,2,0l1,0c0,-1,0,-1,1,-1c0,0,0,-1,0,-1c1,0,1,0,1,-1c0,0,0,-1,1,-1c0,0,0,-1,0,-1c-1,0,-1,0,-1,0c0,0,0,-1,0,-1l0,-1l1,0l0,1c0,0,1,0,1,0l1,0c1,0,1,0,1,0l1,0c0,-1,0,-1,0,-1l0,-1l0,-1c1,-1,1,-1,1,-1c0,0,0,-1,1,-1c0,0,1,-1,1,-1c1,0,1,1,1,1c0,0,1,1,1,1l0,1c0,1,0,1,-1,1c0,0,0,1,0,1l0,1l1,0l1,0l1,0l1,0c1,0,1,-1,1,-1c1,-1,1,-1,1,-1c0,0,-1,0,-1,-1c0,-1,-1,-1,-1,-1l-1,-1l-1,0l-1,0c0,0,0,-1,0,-1c0,0,0,-1,0,-1l0,-1c0,0,0,-1,0,-1l1,0c0,0,1,-1,3,-2c1,0,2,-1,4,-1c1,-1,2,-1,3,-1l1,0l-1,1c-1,0,-1,0,-1,0c0,1,-1,1,-2,1c-2,1,-3,1,-5,2c-1,0,-2,1,-2,1l-1,0c0,0,0,1,0,1l1,0c1,0,1,1,1,1c1,0,1,0,1,0l1,0c0,1,1,1,2,2c0,0,1,0,1,1c1,0,1,1,2,1l2,2l1,0ZM108.5,297.5c0,-1,1,-1,1,-1c0,0,1,0,1,0c1,0,1,0,2,0c0,0,0,1,0,1c0,1,0,1,0,1c-1,0,-1,1,-1,1c0,0,-1,0,-1,0l-1,0c0,0,-1,0,-1,0l2,-1c1,0,1,0,1,0c0,-1,0,-1,0,-1c-1,0,-1,0,-1,0c-1,0,-1,0,-1,1c-1,0,-1,0,-1,0c0,-1,0,-1,0,-1ZM93.5,307.5l-1,-1l1,-2l1,1ZM94.5,309.5c-1,0,-1,0,-1,1c-1,0,-1,0,-1,0l0,1c0,0,1,1,1,1c1,0,1,0,1,-1c0,0,1,0,1,0c0,-1,0,-1,-1,-1c0,-1,0,-1,0,-1ZM93.5,318.5l-4,2c0,-1,0,-1,0,-1l4,-2ZM85.5,299.5c0,-1,0,-1,1,-1l1,0l0,1l0,1l0,1l0,1l-1,-1l0,1l-1,0c0,1,0,1,-1,1l-1,0l1,-1l1,0l0,-1l1,0l-1,0c0,-1,0,-1,0,-1c0,-1,0,-1,0,-1ZM86.5,299.5l-1,0c0,0,1,0,1,0l0,1l0,-1ZM78.5,311.5c0,1,0,1,0,1c1,0,1,0,1,0c0,0,0,-1,0,-1l-1,0ZM78.5,318.5c0,1,0,1,0,1c0,0,-1,0,-1,0c0,0,-1,0,-2,0c0,0,-1,0,-2,0c0,0,0,-1,0,-1l1,0c0,1,0,1,0,1c0,0,1,0,1,0c0,-1,0,-1,1,-1c0,0,1,0,1,0c0,-1,1,-1,1,-1c0,0,0,-1,1,-1l0,-1c1,-1,1,-1,1,-1c0,-1,0,-1,0,-1c0,0,-1,0,-1,0c0,1,0,1,0,1c0,0,-1,0,-1,0l-1,0c0,-1,0,-1,0,-1c0,0,0,-1,0,-1l0,-1c0,0,0,-1,0,-1c1,-1,1,-1,1,-1l1,0c1,0,1,0,1,1c0,1,0,1,1,2l0,1c0,1,0,1,0,1c-1,1,-1,2,-1,2c0,1,-1,1,-1,1c0,1,0,1,-1,1ZM68.5,308.5l-2,0l1,-2l2,1ZM68.5,318.5c-1,0,-1,0,-2,0c0,-1,-1,-1,-1,-1c-1,0,-1,-1,-1,-1c-1,-1,-1,-1,-1,-2c0,0,0,-1,0,-1l1,-1c0,0,0,-1,0,-1c1,-1,1,-1,1,-1c0,1,0,1,0,1c0,0,-1,1,-1,1c0,1,0,1,0,1c0,1,0,1,0,1c1,1,1,1,1,1c0,0,1,0,1,0c0,0,0,1,0,1c1,0,1,0,2,0c1,0,1,0,2,-1c1,0,1,0,2,-1c0,0,0,-1,0,-1c0,0,0,-1,0,-1c0,-1,0,-1,0,-1c0,0,0,-1,-1,-1l0,-1l1,-2l0,1c0,0,0,1,0,1c1,0,1,0,1,1c0,1,0,1,0,1c0,0,0,1,0,1l0,1c0,0,0,1,0,2c0,0,-1,1,-1,1c-1,1,-2,1,-2,1c-1,1,-2,1,-2,1ZM64.5,302.5l4,-3l0,1l0,1l-4,2ZM156.5,318.5l-1,-1l-1,1l-2,-1l1,-1l2,1l0,-2l2,1ZM153.5,315.5l-1,0l-1,0l-1,0c-1,0,-1,0,-2,-1c0,0,-1,0,-1,0c0,0,-1,0,-2,0c0,1,-1,1,-2,1c-1,0,-1,0,-1,-1c-1,0,-1,-1,-1,-1c-1,0,-1,1,-1,1c-1,0,-1,0,-1,1l-3,0l-1,0c-1,0,-1,-1,-1,-1l-1,0c0,-1,0,-1,0,-1l0,-1l0,-1l-1,0l0,1c-1,0,-2,0,-2,0c0,0,-1,1,-1,1l-1,1c0,0,-1,0,-1,0c0,1,-1,2,-1,2c0,0,0,1,0,1c0,0,0,1,0,1c0,1,0,1,0,1c0,1,0,1,1,1c0,1,0,1,0,1c0,0,1,0,1,1l1,0c1,1,1,1,2,1c0,0,1,0,1,0l1,0l1,0c0,0,1,0,1,0l2,0l1,0l-4,2l-2,0c-1,0,-2,0,-3,-1c-1,0,-1,0,-1,0c0,0,-1,-1,-1,-1l-1,0c0,0,0,-1,0,-1l-1,-1c0,0,0,-1,0,-2c0,-1,0,-1,0,-2c0,-1,1,-2,1,-2c1,-1,1,-2,2,-2c0,-1,1,-1,2,-2l-1,0l-1,0l-1,0l-1,0c0,-1,0,-1,1,-1l0,-1c1,0,1,0,1,0l1,0l1,0l1,1c1,0,2,0,3,0c0,0,1,0,1,0l1,0l0,1l-1,0l-1,0l0,1l0,1l1,0c1,0,1,0,1,0l2,0c1,0,1,0,1,0c0,0,1,-1,1,-1c0,-1,0,-1,0,-1c0,0,0,-1,0,-1l0,-7l1,-2l0,10c0,1,0,1,0,1c0,0,1,0,1,1c0,0,1,0,1,0l1,0l1,0l1,0c0,-1,-1,-1,-1,-1l0,-1l1,-1c0,-1,0,-1,0,-1c1,0,1,-1,1,-1c0,0,1,-1,1,-1c1,0,1,1,2,1c0,0,0,1,0,1l0,1c0,1,0,1,0,1c0,0,0,1,0,1c-1,0,-1,0,-1,1l1,0c1,0,1,0,1,0l1,0l1,0c1,0,1,0,2,0c0,0,0,-1,1,-1c0,0,0,-1,0,-1c-1,0,-1,-1,-1,-1l1,-2c0,0,0,1,0,1l0,1l0,1c1,0,1,0,1,0c0,1,0,1,0,1c-1,0,-1,0,-1,0c0,1,0,1,0,1l0,1c0,0,-1,0,-1,0c-1,1,-1,1,-2,1ZM155.5,299.5c0,-1,1,-1,1,-1l1,0l0,1l0,1l0,1l1,0l-1,1l-1,-1l0,1c-1,1,-1,1,-1,1l-1,0l-1,0l1,0l0,-1c1,0,1,0,1,0l0,-1l1,0l-1,0c0,-1,0,-1,0,-1c0,-1,0,-1,0,-1ZM156.5,299.5l0,1l1,0l0,-1c0,0,-1,0,-1,0ZM148.5,307.5l-2,-1l1,-2l2,1ZM148.5,309.5c0,0,-1,0,-1,1c0,0,-1,0,-1,0l0,1c1,0,1,1,1,1c1,0,1,0,2,-1c0,-1,0,-1,0,-1c-1,-1,-1,-1,-1,-1ZM143.5,297.5c0,-1,1,-1,1,-1c1,0,1,0,1,0c1,0,1,0,2,0c0,0,0,1,0,1c0,1,0,1,0,1c0,0,-1,1,-1,1c0,0,-1,0,-1,0l-1,0l-1,0l2,-1c1,0,1,0,2,0c-1,-1,-1,-1,-1,-1c0,0,-1,0,-1,0c0,0,-1,0,-1,1c0,0,-1,0,-1,0c0,-1,0,-1,0,-1ZM141.5,319.5l-4,2c0,-1,1,-1,1,-2l3,-1ZM130.5,299.5c0,-1,0,-1,0,-1c0,0,1,0,1,0c1,0,1,0,1,1l0,1c-1,0,-1,0,-1,0l1,1l0,1l-1,-1l-1,1c-1,1,-1,1,-1,1l-1,0c-1,0,-1,0,-1,0l1,0l1,-1l1,-1c-1,-1,-1,-1,-1,-1c0,-1,0,-1,1,-1ZM131.5,299.5l-1,0l0,1l1,0l0,-1ZM173.5,313.5l0,1c-1,0,-1,0,-1,0l1,0l1,0l0,-1ZM174.5,316.5l-1,0c0,0,-1,0,-1,0c0,0,-1,0,-1,0c-1,0,-1,0,-1,0l-1,0l0,-1l0,-1c0,0,1,0,1,0c1,0,1,0,1,0c0,0,1,-1,1,-1c0,0,1,-1,1,-1c0,0,-1,0,-1,-1l-1,-1c0,0,0,-1,-1,-1c0,-1,-1,-1,-1,-2c-1,0,-1,0,-1,0c0,-1,-1,-1,-1,-1c-1,0,-1,0,-1,0c0,0,-1,0,-1,-1l0,-1c0,-1,0,-1,0,-1l0,-1c0,0,1,0,1,0c0,1,0,1,1,1c0,1,1,1,1,2c1,1,2,1,2,2c1,0,1,1,2,2c0,0,1,1,1,1c0,1,0,1,0,1c0,0,1,-1,1,-1c0,-1,0,-2,0,-2c0,-1,0,-1,0,-2c0,0,0,-1,0,-1c0,-1,0,-1,0,-2c0,-1,0,-1,0,-1c0,-1,0,-1,1,-1c0,1,0,1,0,1c0,0,1,0,1,1l0,1c0,0,-1,0,-1,0c0,0,0,1,0,1c0,0,0,1,0,1c0,1,0,1,0,1c0,1,0,1,0,2c0,0,-1,1,-1,2c0,0,0,1,0,1c0,0,0,1,0,1c0,1,0,1,0,1c0,1,0,1,0,1l0,1ZM171.5,299.5l5,-3c0,1,0,1,0,1l-6,3ZM198.5,308.5l-1,-1l1,-2l1,1ZM198.5,315.5l-1,0c-1,0,-1,0,-1,-1c-1,0,-1,0,-1,0c-1,0,-1,-1,-1,-1c0,-1,0,-1,0,-1c-1,0,-1,1,-1,1l-1,0l-1,0l-1,0l0,-2l1,-1c0,0,1,-1,1,-1c1,-1,1,-1,1,-1l0,-1l1,0l0,-1l0,1c0,1,0,1,0,1c0,1,0,1,1,2l0,2c0,0,0,1,0,1c1,0,1,0,1,0c0,0,1,0,1,0l1,0c0,0,1,0,1,0c1,0,1,-1,2,-1c0,0,0,-1,-1,-1c0,0,0,-1,0,-1l1,-2c0,0,0,1,0,1l0,1l0,1c0,1,0,1,0,1c0,1,0,1,0,1l0,1c-1,0,-1,0,-2,0c0,1,0,1,-1,1ZM196.5,297.5l0,1l1,0l1,0l0,-1l0,1c0,0,1,0,1,0c0,0,0,-1,0,-1l0,-1l1,0l0,1l0,1c-1,0,-1,1,-1,1l-1,0l0,-1l0,1c-1,0,-1,0,-1,0c-1,0,-1,0,-1,0l0,-1l0,-1ZM201.5,294.5l-6,3c0,-1,1,-1,1,-1l5,-3ZM194.5,309.5l-1,0l0,1l-1,0c-1,1,-1,1,-1,1l1,0l1,0l1,0ZM241.5,318.5c0,0,1,0,1,0l1,0c1,0,2,0,3,-1c0,0,0,-1,1,-1c0,0,1,-1,1,-1c0,-1,0,-1,1,-1c0,-1,0,-1,0,-1c0,-1,0,-1,0,-1l-1,0l0,-1l-1,0l1,-2l1,1l0,1l0,1l0,1c0,0,0,1,0,1c0,0,0,1,0,1l0,1c0,0,-1,1,-1,1l-1,1l-1,0l0,1c0,0,-1,0,-1,0l-1,0l-1,0l0,-1c-1,0,-1,0,-1,0ZM244.5,305.5l4,-2c0,1,0,1,0,1l-4,2ZM240.5,318.5l-1,-1l1,-1l1,1ZM238.5,315.5l-1,0c-1,0,-1,0,-1,-1c-1,0,-1,0,-1,0c0,0,-1,-1,-1,-1c0,-1,0,-1,0,-1c-1,0,-1,1,-1,1l-1,0l-1,0l-1,0l0,-2l1,-1c0,0,1,-1,1,-1c1,-1,1,-1,1,-1l0,-1l1,0l0,-1l0,1c0,1,0,1,0,1c0,1,0,1,1,2l0,2c0,0,0,1,0,1c1,0,1,0,1,0c0,0,1,0,1,0l1,0c0,0,1,0,1,0c1,0,1,-1,2,-1c0,0,0,-1,-1,-1l0,-1l1,-2c0,0,0,1,0,1l0,1l0,1l0,1c0,1,0,1,0,1l0,1c0,0,-1,0,-2,0c0,1,-1,1,-1,1ZM236.5,303.5l0,1l1,0l0,-1l1,0c0,0,0,1,0,1c1,0,1,-1,1,-1l0,-1l0,1l0,1c0,0,0,1,0,1l-1,0l-1,0c0,0,0,1,-1,1c0,0,0,-1,0,-1l0,-1l0,-1ZM240.5,321.5l-4,2c0,-1,0,-1,0,-1l4,-2ZM234.5,309.5l-1,0l0,1l-1,0c-1,1,-1,1,-1,1l1,0l1,0l1,0ZM285.5,311.5c-1,1,-2,1,-3,2c-1,0,-2,1,-3,1c-1,0,-2,1,-3,1l-1,0c-1,0,-1,0,-1,0c0,0,-1,-1,-1,-1c0,0,0,-1,-1,-1c0,1,-1,1,-1,1l-1,0c0,1,-1,1,-1,1l-1,0l-1,0l-1,0l0,-1c0,0,-1,0,-1,0l0,-1l0,-1l-1,1l-1,1c0,0,-1,0,-1,0c0,0,-1,0,-2,0c-1,0,-1,0,-1,0l-1,0l0,-1c0,0,0,-1,0,-1l0,-1l1,0c0,1,0,1,0,1l1,0l0,1l1,0c1,0,1,0,1,0l0,-1l1,0c0,0,1,0,1,0l0,-1l0,-1l0,-2l0,-1l0,-1l0,-1l1,2c0,0,0,1,0,1l0,3l1,1l0,1l1,0l1,0l1,0c0,0,1,0,1,0c0,0,1,0,1,-1c1,0,1,0,1,0c1,0,1,0,1,0c0,0,0,1,1,1l1,0l1,0l1,0c1,0,1,0,1,-1l0,-1c-1,0,-1,0,-1,-1c0,0,0,-1,0,-1l1,0c0,0,0,-1,0,-1l0,-1c1,0,1,0,1,0c0,0,1,0,1,-1c0,0,1,0,1,0c1,0,1,0,1,0l0,1l1,0c1,1,1,1,1,1l-1,0l-1,0l-1,0l-1,0c0,0,-1,0,-1,0c0,0,0,1,0,1c-1,0,-1,0,-1,0l1,1c1,1,1,1,2,2c0,0,0,-1,0,-1c0,0,1,0,1,0c1,0,1,0,1,0l1,0l0,-1l1,0ZM280.5,318.5l-4,2c0,-1,1,-1,1,-1l4,-2ZM272.5,310.5l-2,-1l1,-1l1,1ZM260.5,302.5l4,-3l0,1l0,1l-4,2ZM340.5,312.5l-1,0l-1,0c-1,0,-1,0,-2,0l-1,0l-1,0l0,1l-1,0c-1,0,-1,1,-1,1c-1,0,-1,0,-2,0c0,0,-1,1,-2,1l-1,0l-1,-1c0,0,-1,0,-1,-1l0,-1l0,1c0,0,-1,1,-1,1c0,0,-1,0,-1,0c-1,0,-1,0,-2,-1l0,1c0,0,-1,1,-1,1l-1,0c-1,0,-1,-1,-1,-2c0,0,-1,1,-1,1c0,0,-1,1,-2,1l-2,0c0,0,-1,-1,-2,-1c0,0,0,-1,0,-2l-1,-8l1,-3l1,10l0,1c0,1,1,1,1,1l2,0l1,0l1,0c0,-1,1,-1,1,-2l0,1c1,0,1,1,1,1c1,0,1,0,2,-1l1,-1c0,0,0,1,0,1c1,0,1,0,1,0l1,0l1,0c0,-1,0,-1,0,-1c1,1,1,2,2,2l1,0c0,0,1,0,1,0c0,0,1,0,2,0c0,-1,0,-1,1,-1l1,0l1,-1l-1,0l-1,0l0,-1l-1,0l-1,0l-1,0c0,0,0,-1,0,-1c1,0,1,0,1,0c0,-1,1,-1,1,-1l1,0l0,1l1,0l2,1l1,0l1,0l1,0c0,1,1,1,1,1l1,0ZM332.5,318.5l-4,2c0,-1,1,-1,1,-1l4,-2ZM320.5,302.5l5,-3l-1,1l0,1l-4,2ZM306.5,318.5l-1,-1l1,-1l1,1ZM304.5,315.5l-1,0c-1,0,-1,0,-2,-1c-1,0,-1,-1,-1,-1c0,-1,0,-1,0,-1l-1,0c0,0,0,1,0,1l-1,0l-1,0c0,0,-1,0,-1,0l-1,0l0,-2c1,0,1,0,2,-1c0,0,0,-1,1,-1c1,-1,1,-1,1,-1l0,-1l1,-1l0,1c0,1,0,1,0,1c0,1,0,1,0,2l1,2c0,0,0,1,0,1c0,0,1,0,1,0l1,0l1,0c0,0,1,0,1,0c1,0,1,-1,1,-1c1,0,1,0,1,0l-1,0c0,0,0,-1,0,-1l0,-1l0,-2c1,0,1,1,1,1l0,1l0,1l0,1c0,1,0,1,0,1l0,1c-1,0,-1,0,-2,0c0,1,-1,1,-1,1ZM304.5,299.5c0,-1,1,-1,1,-1l1,0l0,1l0,1l0,1l1,0l-1,1l-1,-1l0,1l-1,0c0,1,0,1,0,1l-1,0l-1,0l1,0l0,-1c0,0,1,0,1,0l0,-1l1,0l-1,0c0,-1,0,-1,0,-1c0,-1,0,-1,0,-1ZM305.5,299.5l0,1l0,-1ZM299.5,309.5l0,1l-1,0c-1,1,-1,1,-1,1l1,0l1,0l1,0ZM379.5,305.5l-1,-1l1,-1l1,0ZM382.5,313.5l-1,0c0,0,0,1,0,1c-1,0,-1,0,-2,0c-1,1,-1,1,-1,1l-1,0l-1,0c-1,0,-2,-1,-2,-1c-1,0,-1,-1,-1,-2l-1,-8l1,-3l1,10l0,1c1,1,1,1,2,1l1,0l1,0c0,0,1,0,1,0c1,0,2,-1,2,-1c0,0,0,-1,0,-1c0,0,0,-1,0,-1c0,0,0,1,0,1l-1,0l-1,0c-1,0,-1,0,-1,0l0,-1c0,-1,0,-1,0,-2c0,-1,0,-1,1,-1c0,-1,0,-1,1,-1l1,1l0,1l1,0l0,1l0,1c0,0,0,1,0,1c0,1,0,1,0,1c0,0,0,1,0,1ZM379.5,308.5l0,1l1,0l0,-1c0,0,-1,0,-1,0ZM378.5,298.5l4,-2l0,1c0,0,-1,0,-1,0l-4,2ZM375.5,318.5l-4,2c1,0,1,-1,1,-1l4,-2ZM367.5,308.5l-2,-1l1,-2l1,1ZM366.5,315.5l-1,0l-1,0c0,0,-1,-1,-2,-1c0,0,-1,1,-1,1c-1,0,-1,0,-1,0l-1,-1l-2,-1l-1,1c0,0,0,1,-1,1l-1,0l-2,0c0,0,-1,-1,-1,-1c-1,0,-1,-1,-1,-2l-1,-8l1,-3l1,10l0,1c0,1,1,1,1,1l2,0l1,0c1,0,1,0,1,0l1,-1l0,-1c1,-1,2,-1,3,-1l1,1l1,1l1,0c0,1,0,1,0,1l1,0l1,0l1,0c1,0,1,0,2,0c0,0,1,-1,1,-1c0,0,0,-1,0,-1c-1,0,-1,-1,-1,-1l1,-2c0,0,0,1,0,1l0,1l0,1c0,0,1,0,1,0c0,1,0,1,0,1c0,0,-1,0,-1,0c0,1,0,1,0,1l0,1c0,0,-1,0,-1,0c-1,1,-1,1,-2,1ZM365.5,297.5l0,1c0,0,1,0,1,0l0,-1l0,1c1,0,1,0,1,0c0,0,0,-1,0,-1l0,-1l1,0l0,1l0,1c0,0,-1,1,-1,1l-1,0l0,-1l0,1c-1,0,-1,0,-1,0c0,0,-1,0,-1,0l0,-1l0,-1ZM369.5,294.5l-6,3c0,-1,1,-1,1,-1l5,-3ZM361.5,313.5l-1,-1c0,0,0,-1,0,-1l-1,0l-1,1c0,0,1,0,1,1l1,0ZM357.5,302.5l4,-3l0,1l0,1l-4,2ZM402.5,315.5l-1,-1l1,-1l1,1ZM400.5,311.5l-1,0c-1,0,-1,0,-2,0l-1,0c0,-1,0,-1,0,-1l0,-1l0,-1l-1,1l-1,1l-1,0c0,0,-1,0,-1,0l-1,-1l0,-1c0,0,1,-1,1,-1c1,-1,1,-1,2,-2c1,0,1,0,1,0l0,-1l0,-1l1,0l0,1c0,0,0,1,0,1c0,0,0,1,0,1l1,2c0,0,0,1,0,1l1,0c0,1,0,1,1,1l1,0c0,0,1,-1,1,-1c1,0,1,0,1,0l0,-1c0,0,0,-1,0,-1l-1,0l1,-2l1,1l0,1l0,1l0,1l0,1l-1,0c0,1,0,1,-1,1c0,0,-1,0,-1,0ZM401.5,317.5l-4,2c1,0,1,-1,1,-1l4,-2ZM395.5,306.5l-1,1l-1,0l0,1l1,0c1,0,1,0,1,0l0,-1l1,0ZM75.5,299.5c1,0,1,0,1,0c1,0,1,0,2,0c0,0,1,0,1,0c0,0,1,0,1,1c-1,0,-1,1,-1,1l-1,0l0,1c-1,0,-1,0,-1,0l-1,0l1,-1c1,0,1,0,2,-1c0,0,-1,0,-1,0l-1,0c0,0,-1,0,-1,0l-1,0c0,0,0,-1,0,-1ZM149.5,268.5l4,-2c0,1,0,1,0,1l-4,2ZM218.5,249.5l0,1l1,0l0,-1l1,0c0,0,0,1,0,1c1,0,1,-1,1,-1l0,-1l0,1l0,1c0,0,0,1,0,1l-1,0l-1,0c0,0,0,1,-1,1c0,0,0,-1,0,-1l0,-1l0,-1ZM222.5,246.5l-5,3c0,-1,0,-1,0,-1l6,-3ZM304.5,252.5c0,0,1,-1,1,-1c1,0,1,0,1,0c1,0,1,0,2,0c0,1,0,1,0,1c0,1,0,1,0,1c0,0,-1,1,-1,1c0,0,-1,0,-1,0l-1,0l-1,0l2,0c1,-1,1,-1,2,-1c-1,0,-1,0,-1,-1c0,0,-1,0,-1,0c0,0,-1,0,-1,1c0,0,-1,0,-1,0c0,-1,0,-1,0,-1ZM231.5,252.5c1,0,1,-1,1,-1c1,0,1,0,2,0c0,0,1,0,1,0c0,1,1,1,1,1c-1,1,-1,1,-1,1c0,0,0,1,-1,1c-1,0,-1,0,-1,0l-1,0l1,0c1,-1,1,-1,2,-1c0,0,-1,0,-1,-1l-1,0c0,0,-1,0,-1,1l-1,0c0,-1,0,-1,0,-1ZM84.5,255.5c0,1,0,2,0,3c0,1,-1,1,-1,1c-1,0,-1,0,-1,0c0,0,0,1,-1,1l0,-1l1,0l1,0c0,0,0,-1,0,-1l0,-1c0,0,-1,0,-1,0l0,-1c0,1,0,1,0,1c-1,0,-1,0,-1,0l0,-1c0,0,0,-1,0,-1l1,1l1,1c0,0,0,1,0,1l1,0c0,-1,0,-1,0,-1l0,-2ZM134.5,249.5l0,-1c0,0,0,-1,0,-1c0,-1,0,-2,0,-2l0,-1c1,0,1,0,1,1c0,0,0,1,0,1l0,1c0,1,0,1,0,1l-1,1ZM113.5,246.5c0,-1,0,-1,0,-2c0,-1,0,-1,-1,-2l1,0l0,1c1,0,1,0,1,0l0,1l0,1c-1,1,-1,1,-1,1ZM44.5,254.5c0,-1,0,-1,0,-2c0,0,0,-1,-1,-1l1,-1l0,1c1,0,1,0,1,1c0,1,0,1,0,1l0,1c-1,0,-1,0,-1,0ZM60.5,269.5l-1,-1l1,-2l1,1ZM58.5,263.5c0,0,1,0,1,0c1,0,1,0,2,0l0,-1l-1,-1l0,-1l1,-1l0,1l0,1l0,1c0,0,0,1,0,1c0,0,0,1,0,1c-1,0,-1,0,-2,1l-1,0l-1,0l-1,0l0,1c0,1,0,1,-1,2l0,1c0,0,-1,0,-1,1c0,0,-1,0,-1,0l-1,0c0,0,0,1,-1,1c-1,0,-1,-1,-2,-1l-1,0c0,-1,0,-1,1,-1c0,0,0,1,0,1l1,0c0,0,1,0,1,-1c1,0,1,0,2,0c0,0,0,-1,0,-1c1,0,1,0,1,-1c0,0,1,0,1,-1l0,-1c1,0,1,0,1,-1l-1,0c0,0,0,-1,0,-1l0,-1l1,1l1,0ZM58.5,249.5c1,0,1,-1,1,-1c0,0,1,0,1,0c0,0,1,0,1,1l-1,1l0,1l1,0l0,1l-1,0l-1,0c-1,1,-1,1,-1,1l-1,0l-1,0l1,0l1,-1l1,-1l-1,0c0,0,0,-1,0,-1c0,0,0,-1,0,-1ZM60.5,249.5l-1,0l0,1l1,0c0,0,0,-1,0,-1ZM51.5,254.5l1,0c0,0,1,-1,1,-1c1,0,1,1,1,1c1,0,1,0,1,0l0,1l-1,1l-1,0c0,0,-1,0,-1,0c-1,0,-1,0,-1,0l2,0c0,0,1,-1,1,-1l-1,0c-1,0,-1,0,-2,0l0,-1ZM48.5,264.5l-1,0l-1,0c0,0,-1,0,-1,0l-1,-1c0,1,0,1,0,1c0,0,-1,0,-1,0l-1,0c0,1,0,1,-1,1l-1,0l-1,0c0,1,0,1,0,1c0,0,0,1,0,1c0,0,0,1,-1,2c0,0,0,1,-1,1c0,1,-1,1,-2,1c0,1,-1,1,-2,1c-1,0,-1,0,-2,0c0,-1,-1,-1,-1,-1c-1,0,-1,-1,-1,-1c-1,-1,-1,-1,-1,-2c0,0,0,-1,0,-1c1,0,1,-1,1,-1c0,0,0,-1,0,-1c1,-1,1,-1,1,-1c0,1,0,1,0,1c0,0,0,1,-1,1c0,1,0,1,0,1c0,1,0,1,1,1c0,1,0,1,0,1c0,0,1,0,1,0l0,1c1,0,2,0,2,0c1,0,2,0,3,0c1,-1,1,-1,2,-2l0,-1c0,0,0,-1,0,-1c0,0,0,-1,0,-1c-1,0,-1,-1,-1,-1l1,-2l0,1c0,0,1,0,1,0l2,0c1,0,1,0,1,0c0,-1,0,-1,0,-1c0,0,0,-1,0,-1l0,-1c0,0,1,0,1,0l0,-1c0,0,0,-1,0,-1c1,-1,1,-1,1,-1c1,0,1,0,2,1c1,0,1,1,2,1c0,1,0,1,1,2c0,1,0,1,0,1c0,0,0,1,0,1l0,1l-1,0ZM44.5,260.5c0,0,-1,0,-1,1c1,1,1,1,1,1c0,0,1,0,1,-1c0,0,0,-1,0,-1c0,0,-1,0,-1,0ZM46.5,260.5c0,1,0,1,0,1c0,1,0,1,0,1l2,1c0,-1,0,-1,0,-1c0,0,-1,-1,-1,-1c-1,-1,-1,-1,-1,-1ZM34.5,263.5l-2,-1l1,-2l2,1ZM33.5,255.5l4,-2l-1,1l-4,2ZM73.5,263.5l-1,0l0,1c0,0,1,0,1,0c0,-1,0,-1,0,-1ZM74.5,265.5c0,0,-1,1,-1,1c-1,0,-1,0,-1,0c-1,0,-1,0,-2,0c0,0,-1,0,-1,0l0,-1l0,-1c0,0,1,0,1,0c0,0,1,0,1,0c0,-1,0,-1,0,-1c1,0,1,0,1,-1c0,0,0,-1,0,-1c-1,0,-1,-1,-1,-1c0,0,-1,-1,-1,-1c-1,-1,-1,-1,-2,-2l0,-1c-1,0,-1,0,-1,0c-1,0,-1,0,-1,0c-1,0,-1,-1,-1,-1c0,0,0,-1,0,-1c0,0,0,-1,0,-1c0,0,0,-1,0,-1c1,0,1,1,2,1c0,1,0,1,1,2c1,0,1,1,2,2c0,0,1,1,2,2c0,0,0,1,0,1c1,0,1,1,1,1c0,0,0,-1,0,-2c0,0,0,-1,1,-1c0,-1,0,-2,0,-2c0,0,0,-1,0,-1c0,-1,0,-2,0,-2c0,0,-1,0,-1,0c0,0,0,-1,0,-1l1,-1c0,1,1,1,1,1l1,0c-1,1,-1,1,-1,1c0,0,0,1,0,1c0,1,0,1,0,2c0,0,0,1,0,1c0,1,-1,1,-1,1c0,1,0,2,0,2c0,1,0,1,-1,2c0,0,1,0,1,0l0,1c0,0,0,1,0,1c0,0,0,1,0,1ZM70.5,248.5l6,-2c-1,0,-1,1,-1,1l-5,3ZM113.5,264.5l0,-1l0,-1l-1,-8l1,-3l1,11l0,1l-1,0c0,1,0,1,0,1ZM101.5,256.5l-2,-1l1,-1l1,1ZM109.5,262.5l-2,0c-1,0,-1,0,-2,0l-1,0l-1,0l0,1l-1,0c-1,0,-1,0,-1,0c-1,1,-1,1,-1,1c-1,0,-2,0,-2,0l-1,0l-1,0c0,1,0,1,0,1c0,1,0,2,-1,2c0,1,0,1,0,1c-1,0,-1,1,-1,1c0,0,-1,1,-1,1c0,0,-1,0,-1,0c0,0,-1,0,-1,0c-1,0,-1,0,-2,0c0,-1,-1,-1,-1,-1c0,0,1,0,1,0l1,0c0,0,1,0,1,0c1,0,1,0,1,-1c1,0,1,0,1,0c0,-1,1,-1,1,-1c0,0,0,-1,0,-1c1,0,1,-1,1,-1c0,-1,0,-1,0,-1l0,-1c0,0,-1,0,-1,0c0,-1,0,-1,1,-1l0,-1l0,1l1,0c0,0,0,1,0,1l1,0c1,0,1,0,1,0c1,0,1,-1,2,-1c0,0,1,0,1,0l2,-1l-1,0l-1,-1l-1,0l-1,0l-1,0c0,0,0,-1,1,-1c0,0,0,-1,0,-1c1,0,1,0,1,0c0,0,1,0,1,0l1,1l2,0l1,1c0,0,1,0,1,0c0,0,1,0,1,0c1,0,1,0,1,0l1,0ZM100.5,251.5l4,-2l0,1l-4,2ZM91.5,251.5l5,-2l-1,1l-4,2ZM133.5,263.5c0,0,1,0,1,0l1,-1c0,0,1,0,1,-1l-1,-2l0,-6c0,0,0,-1,0,-1l0,-1l1,0c0,0,0,1,0,1l1,0c0,0,0,1,-1,1c0,0,0,1,0,1c0,0,0,1,0,2c0,0,0,1,0,2c0,1,0,1,0,2l0,1l0,1l0,1c0,0,-1,1,-1,1l-1,0l-1,0c0,0,-1,0,-1,0l-1,0l0,1l1,1c0,1,0,2,-1,2c0,1,-1,1,-1,1c0,0,-1,0,-1,0c-1,0,-1,-1,-1,-1c-1,-1,-1,-2,-1,-3l0,-1c-1,0,-1,0,-2,0l-1,0l-1,0c-1,0,-1,0,-2,0c0,-1,0,-1,0,-2l-1,-9l1,-2l0,10l1,0l0,1c0,0,1,1,1,1l1,0l1,0l1,0l1,0l0,-1c0,0,1,-1,1,-1l0,-1c1,0,1,0,1,-1c1,-1,1,-2,2,-2c0,0,0,1,0,1l1,1l-1,1c0,0,0,1,0,1c0,1,-1,1,-2,2l1,0l1,0l1,0ZM130.5,259.5c-1,1,-1,1,-1,1l-1,1l0,1c1,0,2,0,2,-1c1,0,1,0,1,-1c-1,-1,-1,-1,-1,-1ZM128.5,265.5l0,1c0,0,1,1,1,1c1,1,1,1,1,1c0,0,1,-1,1,-1c0,-1,0,-1,-1,-2c0,0,-1,0,-2,0ZM129.5,252.5l-5,2l0,-1l5,-3c0,0,0,1,0,1l0,1ZM124.5,252.5l0,-1l5,-3c0,1,0,1,0,1ZM166.5,264.5l0,-1l0,-1l0,-8l1,-3l0,11l0,1c0,1,-1,1,-1,1ZM162.5,264.5c0,0,-1,0,-1,0c0,0,-1,0,-1,0c-1,-1,-1,-1,-1,-2c0,0,0,1,-1,1c0,1,-1,1,-2,1c0,0,-1,0,-1,0c-1,-1,-1,-2,-1,-3l0,1c0,0,-1,1,-1,1c0,0,-1,0,-2,0l-1,0c0,-1,0,-1,0,-1c0,0,0,-1,0,-1c0,0,1,-1,1,-1c0,0,1,0,1,-1l1,0l1,-1l0,-1c0,0,0,-1,0,-1l1,1l0,1l0,3c0,1,0,1,0,1c1,0,1,0,2,0l1,0c0,0,0,-1,0,-1c0,-1,0,-1,0,-2c0,-1,0,-1,0,-2l0,-1l0,-1l1,-1l0,3l0,1l0,2l1,1c0,0,0,1,1,1l1,0c0,0,0,-1,0,-1c0,0,0,-1,0,-1l0,-1l0,-2l-1,-1l1,0l0,-1l0,-1c0,1,0,1,0,2l0,1l1,2c0,0,0,1,0,1c0,1,0,2,0,2c0,1,-1,1,-1,1c0,1,0,1,0,1ZM154.5,259.5l-1,1c-1,0,-1,0,-1,0c0,1,-1,1,-1,1c1,0,2,0,2,0c0,0,1,0,1,0ZM186.5,263.5c0,0,-1,0,-1,0l-1,0l-1,-1l-1,1l0,1l-1,0l-1,0l-1,0c0,0,-1,0,-1,0c-1,0,-1,-1,-1,-1c-1,0,-1,0,-1,0c0,-1,-1,-1,-1,-1l0,-1c-1,1,-2,1,-2,1c0,1,0,1,-1,1l0,1c-1,0,-1,1,-1,2c-1,0,-1,1,-1,1l0,1c0,0,1,1,1,1c0,1,0,1,1,2l1,0c0,1,1,1,1,1l1,0l1,0c1,0,1,0,1,0c0,0,1,0,1,0c1,0,1,0,2,0l1,0l1,0l-3,2c-1,0,-2,0,-2,0c-1,0,-1,0,-2,0c0,0,-1,0,-1,0c-1,0,-1,-1,-2,-1c0,0,-1,0,-1,-1c-1,0,-1,-1,-1,-2c0,0,-1,0,-1,-1c0,0,0,-1,0,-1c0,-1,0,-1,1,-2l0,-1c0,0,0,-1,0,-1c1,0,1,-1,1,-1c0,0,1,-1,1,-1c0,0,1,0,1,-1l1,0c0,-1,-1,-1,-1,-1l-1,0l1,-2l1,-1l1,0c0,0,1,0,1,0l0,1c1,0,1,0,1,0c0,1,0,1,0,1l0,1c0,0,-1,0,-1,1l1,0c0,1,0,1,0,1l1,0c0,0,1,0,1,0l1,0l1,0c0,0,1,0,1,0l1,-1c0,-1,0,-1,1,-2c0,0,1,-1,1,-1c0,0,1,1,1,1c0,0,0,1,0,1l1,1l0,1l-1,0c0,1,0,1,0,1ZM184.5,261.5l1,0c0,-1,0,-1,-1,-1l0,1ZM181.5,251.5l4,-2l0,1l-4,2ZM173.5,251.5l4,-2l-1,1l-4,2ZM221.5,267.5l-1,-1l-1,1l-1,-1l1,-1l1,1l1,-1l1,1ZM219.5,264.5l-1,0l-1,0l-1,0l-1,0c0,0,0,-1,-1,-1l0,-1l-1,0c0,0,0,1,0,1l-1,0l-1,1c0,0,-1,0,-1,0l-1,0c0,0,-1,0,-1,0c0,0,0,-1,0,-1c-1,0,-1,0,-1,-1l0,-1l1,0l0,1l1,0l1,0c0,0,1,0,1,0c0,0,1,0,1,0l0,-1c0,0,1,0,1,0c0,-1,0,-1,0,-2l0,-2l0,-1l0,-2l1,2c0,0,0,1,0,2l1,2c0,0,0,1,0,1c0,0,0,1,0,1c1,0,1,0,1,0l1,0l1,0l1,0c0,0,1,0,1,0c1,0,1,0,1,0c0,0,0,-1,0,-1l0,-1l-1,-1l1,-1l1,0c0,1,0,1,0,1l0,1l0,1c0,0,0,1,0,1c0,0,0,1,-1,1l-1,1c0,0,-1,0,-1,0ZM210.5,249.5c0,-1,0,-1,1,-1l1,0c0,0,1,0,1,0c1,0,1,1,1,1c0,0,-1,1,-1,1l0,1c-1,0,-1,0,-1,0c-1,0,-1,0,-1,0l-1,0l1,-1c1,0,2,0,2,-1l-1,0l-1,0l-1,0c0,0,0,1,-1,1l0,-1c0,0,1,0,1,0ZM202.5,260.5c0,0,-1,1,-2,1c-1,0,-1,1,-2,1c0,1,-1,2,-1,2c-1,1,-1,2,-1,2c0,0,0,1,0,1c0,1,0,1,0,2c1,1,1,1,2,2l1,0c0,1,1,1,2,1c1,0,2,0,3,0c0,0,1,0,2,0c0,0,1,0,2,0l-4,2c0,0,-1,0,-2,0c-1,0,-2,0,-2,0c-1,0,-2,-1,-2,-1c-1,0,-1,0,-1,-1c-1,0,-1,-1,-2,-2c0,0,0,-1,0,-1c0,0,0,-1,0,-1c0,-1,0,-1,0,-2c0,-1,1,-1,1,-2c0,-1,1,-2,1,-3c0,0,-1,0,-1,-1l0,-1l0,-1l0,-1c0,-1,0,-1,1,-1l0,-1c1,0,1,0,1,0l1,0l1,0c0,0,1,0,1,1l-1,0l-1,0c-1,0,-1,0,-1,0c0,0,0,1,0,1c-1,0,-1,0,-1,0l0,1c-1,0,-1,0,-1,0c0,0,1,1,1,1c1,0,1,1,1,1c1,0,1,0,1,0c1,0,1,-1,1,-1l2,0c1,-1,1,-1,2,-1ZM198.5,245.5c0,-1,0,-1,0,-1c0,-1,1,-1,1,-1l0,1c1,0,1,0,1,0c0,1,0,1,0,1l0,1c-1,0,-1,0,-1,0l1,0l0,1l0,1l-1,-1l-1,0l0,1c-1,0,-1,1,-1,1l-1,0c-1,0,-1,0,-1,0l1,-1l1,0l1,-1l0,-1c-1,0,-1,0,-1,0l0,-1l1,0ZM199.5,245.5l-1,0l1,1l0,-1ZM253.5,260.5l-1,0c0,0,1,1,1,1l1,0c0,-1,0,-1,0,-1c0,0,-1,0,-1,0ZM253.5,268.5c-1,0,-1,0,-1,0c-1,1,-1,1,-2,1c-1,0,-1,-1,-2,-1l-1,0c0,0,1,-1,1,-1c0,1,0,1,0,1c1,0,1,0,1,0c0,0,1,0,1,0c1,-1,1,-1,1,-1l1,0c0,0,0,-1,1,-1l0,-1c1,0,1,0,1,-1c1,0,1,-1,1,-1l0,-1c-1,0,-1,0,-1,0c0,0,0,1,0,1c0,0,-1,0,-1,0l-1,0l0,-1l0,-1c0,-1,0,-1,0,-1c0,0,0,-1,0,-1c0,0,1,-1,1,-1l1,0c1,0,1,0,1,1l0,1l0,1c0,0,0,1,0,1l0,1c0,1,0,2,0,3c-1,0,-1,0,-1,1l-1,1ZM250.5,254.5l5,-2l-1,1l-4,2ZM247.5,263.5c-1,0,-1,0,-1,0l-1,0l-1,0l-1,-1l0,1l0,1l-1,0l-1,0l-2,0c0,0,0,1,0,1c0,0,0,1,0,1c0,0,0,1,0,2c0,0,-1,1,-1,1c-1,1,-2,1,-2,1c-1,1,-2,1,-3,1c0,0,-1,0,-1,0c-1,-1,-2,-1,-2,-1c0,0,-1,-1,-1,-1c0,-1,0,-1,0,-2c0,0,0,-1,0,-1c0,0,0,-1,0,-1c0,0,0,-1,0,-1l1,0c0,-1,0,-1,0,-1c0,1,0,1,0,1c0,0,0,1,0,1c0,1,0,1,0,1c0,1,0,1,0,1c0,1,0,1,1,1l0,1c1,0,2,0,3,0c0,0,1,0,2,0c1,-1,1,-1,2,-2l0,-1c0,0,0,-1,0,-1c0,0,0,-1,0,-1c0,0,0,-1,0,-1l-1,0l1,-2l0,1c1,0,1,0,2,0l1,0l1,0l1,0l1,-1c0,-1,0,-1,1,-2c0,0,0,-1,1,-1c0,0,0,1,1,1c0,0,0,1,0,1l0,1l0,1c0,1,0,1,0,1ZM245.5,261.5l1,0c0,-1,0,-1,-1,-1l0,1c0,0,-1,0,-1,0c0,0,1,0,1,0ZM242.5,251.5l4,-2l0,1l-5,2ZM234.5,261.5l-1,0l1,-2l1,1ZM287.5,261.5c0,1,0,2,0,2c0,1,0,1,-1,1l0,1l-1,0l2,1l-1,0l0,1l-1,0l0,1l-1,0l-1,1l-1,0l-1,0l-1,1l-1,1l-1,1l-3,0l-2,0l2,0l0,-1l3,0l1,0l0,-1l1,-1c1,0,1,0,2,0l1,-1c0,0,1,0,1,0l0,-1l1,0l1,-1l-1,0l0,-1l1,0l0,-1l1,-1l0,-1l0,-1c0,-1,0,-1,-1,-2l0,-1l-1,-1l1,0c0,-1,0,-1,-1,-1l0,-1l-1,0l-1,0l0,-1l-1,0l-2,-1l-1,0l0,-1l-1,0l0,-1l-1,0l-2,0l-2,0l2,0l3,0l1,0l0,1l1,0l0,1l2,1l1,0c0,0,1,0,1,0l0,1l1,0c1,1,1,1,2,2l-1,0l0,1l1,1l0,1ZM284.5,257.5l-1,0l0,-1l-1,0l-1,-1c-1,0,-1,0,-1,0l0,-1c0,0,1,0,1,0l0,1l1,0l1,0c0,0,0,1,0,1ZM284.5,266.5l-1,1l-1,0l0,1l-1,0l-1,0l1,0c0,0,-1,-1,-1,-1c1,0,1,0,1,0l1,0c1,0,1,-1,1,-1l1,0ZM279.5,268.5c0,1,0,1,0,1c0,0,-1,1,-1,1l-3,0l-2,0l0,-3l2,0l3,0l1,0l0,1ZM279.5,254.5c0,1,0,1,0,1l-1,1l-3,0l-2,0l0,-3l2,0l3,0c0,0,1,0,1,0c0,1,0,1,0,1ZM278.5,257.5l1,0c0,-1,0,-1,1,-1c0,0,1,1,1,1l1,1l1,0c0,0,1,0,1,0l0,1l1,1l0,1l0,1c0,0,0,1,0,1l-1,0l0,1c0,1,0,1,0,1l-2,0l0,1c-1,0,-1,0,-1,0l-1,0l-1,0c0,0,-1,0,-1,0l0,-1l-3,0l-2,0l2,0l3,0l0,1l1,0l1,0l1,0l0,-1l1,0c0,-1,0,-1,0,-1l1,1l1,-1l0,-1l0,-1l1,-1c0,0,-1,-1,-1,-1c0,-1,0,-1,0,-1c0,-1,-1,-1,-1,-1l-1,0l-1,-1l-1,0c-1,0,-1,0,-1,0c0,0,-1,0,-1,0l-3,0l-2,0l2,0ZM275.5,260.5l1,0l1,0l0,1l0,1c0,0,1,1,1,1l-1,1c0,0,0,-1,0,-1l0,-1l0,-1l-1,0c0,0,-1,0,-1,0l0,-1ZM274.5,260.5l1,1l0,1l0,1c0,1,0,1,-1,1l0,-1c0,-1,0,-2,0,-3ZM272.5,260.5l1,1l0,1l0,1c0,1,0,1,0,1l-1,0l1,-1c0,-1,-1,-2,-1,-3ZM273.5,251.5l-1,0l-1,0l0,1l-1,1l-1,0l-1,1l-1,0l-1,0l0,1l-1,0l0,1c-1,0,-1,0,-2,1l1,0l1,0l-1,1l-1,1l0,1l0,1l0,1l0,1l0,1l1,0l0,1l1,0l0,1l-2,0l1,0l1,1l1,1l1,0l1,1l1,0c1,0,1,1,1,1l1,0l0,1c0,0,1,0,1,1l1,0l-1,0c-1,0,-1,-1,-1,-1l-1,-1l-1,0c-1,-1,-1,-1,-2,-1l-1,-1l-1,0l0,-1l-1,0l-1,-1l1,-1l-1,-1l0,-1c0,-1,0,-1,0,-1l0,-1l0,-1c0,0,0,-1,0,-2c0,0,1,0,1,0l0,-1l-1,0c0,0,0,-1,1,-1l1,-1l1,0l0,-1l1,0l1,0l1,-1c0,0,1,0,1,0l0,-1l1,-1l1,0l1,0ZM273.5,256.5l-1,0c-1,0,-1,-1,-1,-1l-1,0l0,-1c0,0,1,0,1,-1l1,0l1,0ZM273.5,257.5l-1,0l-1,0l-1,0l-1,0l-1,0l0,1c0,0,-1,0,-1,0l-1,0l0,1l-1,1l0,1l0,1l0,1l1,0c0,1,0,1,0,2l1,-1c0,0,1,0,1,1l1,0l0,1l1,0c0,0,1,0,1,0l1,-1l1,0l-1,0l0,1l-1,0l-1,0c0,0,-1,0,-1,0c-1,0,-1,-1,-1,-1l-1,0l-1,0l0,-1l-1,-1l0,-1l0,-1l0,-1l0,-1l1,-1l1,0c1,0,1,0,1,0l0,-1l1,0c0,0,1,-1,1,-1c0,0,1,0,1,1l1,0l1,0ZM273.5,270.5l-1,0c-1,0,-1,-1,-1,-1c-1,0,-1,-1,-1,-1c0,0,1,0,1,-1l1,0l1,0ZM266.5,257.5l0,-1l1,0l0,-1l1,0l1,0l0,-1l0,1l-1,1l-1,0l0,1l-1,0ZM266.5,266.5l1,0l1,1l1,0c0,0,0,1,0,1l-1,0c0,0,-1,-1,-1,-1l-1,0l0,-1ZM351.5,264.5l0,-1l0,-1l0,-9l1,-2l0,10c0,1,0,1,0,1l0,1c0,0,-1,1,-1,1ZM344.5,262.5c1,0,1,0,1,0c1,0,1,0,1,0c0,-1,0,-1,0,-1l0,-2l0,-7c0,0,-1,0,-1,0c0,-1,0,-1,1,-1c0,-1,0,-1,0,-1c0,1,0,1,0,1l1,0c0,0,0,1,0,1l0,1c0,1,0,1,0,2c0,0,0,1,0,3c0,0,0,1,0,1l0,1c0,1,0,1,0,1l0,1c0,0,-1,1,-1,1c-1,1,-1,1,-1,1c-1,0,-1,0,-1,0l-1,0c-1,0,-1,0,-1,0c-1,0,-1,0,-1,0c0,0,-1,0,-1,-1c0,0,0,-1,0,-1c-1,0,-1,0,-2,0c0,0,-1,0,-1,0c-1,1,-2,1,-3,1c0,0,-1,0,-2,0c-1,0,-2,0,-3,0c-1,0,-2,1,-3,1c-1,0,-2,0,-3,0c0,0,-1,0,-2,0c-1,0,-2,0,-2,0l-1,0l-1,0l0,1c0,1,-1,1,-1,2l-1,1c-1,1,-1,1,-1,1c-1,0,-1,0,-1,0c-1,0,-1,0,-1,0l-1,0c0,0,-1,0,-1,0c-1,0,-1,0,-1,0c0,-1,0,-1,0,-1l1,1c1,0,1,0,2,-1c0,0,1,0,1,0c0,0,1,-1,1,-1l1,-1l0,-1c0,0,1,0,1,-1l0,-1l-1,0c0,0,0,-1,0,-1l0,-1l1,0l0,1l1,0l1,0c1,0,1,0,2,0c1,0,2,0,3,0c1,0,2,0,2,0c1,0,2,0,2,0c1,0,2,0,3,0c1,0,2,-1,2,-1c1,0,2,0,3,0c1,0,2,0,3,0c1,0,2,-1,3,-1c0,-1,-1,-1,-1,-1l-1,0c-2,0,-3,0,-5,0c-2,0,-4,1,-6,1c-2,0,-3,0,-4,0c-2,0,-4,0,-4,0c0,0,0,-1,0,-1c0,0,0,-1,0,-1c0,-1,1,-1,1,-1c0,-1,0,-1,1,-2c0,0,1,-1,2,-2c1,0,2,-1,3,-1l0,-1c1,0,1,0,1,0l-1,2l-1,1c-1,0,-2,1,-2,1c-1,1,-2,2,-3,3c0,0,1,0,1,0l1,0l1,0c1,0,3,0,5,0c2,0,4,0,6,-1c2,0,3,0,4,0c1,0,1,0,2,1c0,0,1,0,1,0c0,0,0,1,0,1c0,1,0,2,0,2c0,1,-1,1,-1,1l2,0l1,0ZM344.5,246.5l1,-1l1,0c0,0,1,0,1,1c1,0,1,0,1,0c0,1,0,1,-1,1c0,1,0,1,0,1c0,0,-1,0,-1,0c-1,0,-1,0,-1,0l-1,0l2,0c0,-1,1,-1,1,-1l-1,0c-1,0,-1,0,-2,0l-1,0c0,0,0,-1,1,-1ZM321.5,247.5l4,-2l0,1l-5,2ZM316.5,274.5l-4,2c0,-1,0,-1,0,-1l4,-2ZM309.5,267.5l-1,-1l-1,1l-1,-1l0,-1l2,1l1,-1l1,1ZM306.5,264.5l-1,0c-1,0,-1,0,-2,-1c0,0,-1,1,-1,1l-1,1c0,0,0,-1,-1,-1c-1,0,-1,0,-1,-1l0,1l-1,1l-1,1c0,0,-1,0,-2,0c-1,1,-3,1,-4,1l4,-2l2,-1c0,0,1,-1,1,-1l1,-2c0,0,1,-1,1,-1l1,0c0,0,1,0,1,1c1,0,1,1,2,1c1,0,1,0,1,0l1,0c1,0,1,0,2,0c0,0,1,0,1,0c0,0,0,-1,0,-1l0,-1c0,0,-1,0,-1,-1l1,-1c0,1,0,1,0,1c0,0,1,0,1,0l0,1l0,1c0,0,0,1,0,1c0,0,-1,0,-1,0c0,0,0,1,0,1c0,0,-1,0,-1,1c-1,0,-1,0,-2,0ZM301.5,263.5l0,-1c0,-1,0,-1,0,-1c-1,0,-1,0,-1,0c0,0,0,1,0,1l1,0ZM301.5,269.5l-5,3c1,-1,1,-1,1,-2l4,-2ZM397.5,263.5l0,-1l0,-1l-1,-9l1,-2l1,11l0,1c-1,0,-1,1,-1,1ZM389.5,261.5c1,0,1,0,1,0c1,0,1,0,1,0c0,0,1,0,1,0c0,-1,0,-1,0,-1l0,-2l-1,-7c0,-1,0,-1,0,-1c1,-1,1,-1,1,-1c0,1,0,1,0,1c0,0,1,1,1,1l0,1l-1,0c0,1,0,1,1,2c0,0,0,1,0,3c0,0,0,1,0,1l0,1c0,1,0,1,0,1l0,1l-1,0c0,0,0,1,0,1c0,0,-1,0,-1,0c0,1,0,1,-1,1l-1,0c-1,0,-1,0,-1,0c-1,0,-1,-1,-1,-1c-1,0,-1,0,-1,0l-1,-1l0,1l-1,0l-1,0c0,0,0,1,-1,1l-1,0l-1,0l0,1c0,1,0,1,-1,2l0,1c0,0,-1,0,-1,1c0,0,-1,0,-1,0l-1,0c0,0,0,1,-1,1c-1,0,-1,-1,-2,-1l-1,0c0,-1,0,-1,0,-1c1,0,1,1,1,1l1,0c0,0,1,0,1,-1c1,0,1,0,2,0c0,0,0,-1,0,-1c1,0,1,0,1,-1l1,-1l0,-1c0,0,1,0,1,-1l-1,0c0,0,0,-1,0,-1l0,-1l1,1l1,0c1,0,1,0,1,0l1,0l1,0l0,-1c-1,-1,-1,-1,-1,-1c-1,0,-1,0,-1,0l1,-2c0,0,1,0,1,0c0,0,1,0,1,0c0,0,1,0,1,0l1,0c0,1,0,1,0,1c0,0,1,0,1,0c0,1,-1,1,-1,1c0,0,0,1,0,1l-1,0c0,0,1,0,1,1l1,0l1,0ZM389.5,245.5c1,0,1,0,1,-1c1,0,1,0,2,0c0,0,1,0,1,1c0,0,1,0,1,0c-1,1,-1,1,-1,1c0,1,0,1,-1,1c-1,0,-1,0,-1,0l-1,0l1,0c1,-1,1,-1,2,-1c0,0,-1,0,-1,0l-1,0c0,0,-1,0,-1,0l-1,0c0,0,0,-1,0,-1ZM384.5,250.5l4,-2l0,1l-4,2ZM375.5,252.5l1,0c0,0,1,-1,1,-1c1,0,1,1,1,1c1,0,1,0,1,0l0,1l-1,1c0,0,-1,0,-1,0c0,0,-1,0,-1,0l-1,0l2,0c0,0,1,-1,1,-1l-1,0c-1,0,-1,0,-2,0l0,-1ZM368.5,252.5l-1,-1l1,-1l1,0ZM370.5,254.5l-2,-1l0,2l-2,-1l1,-2l1,1l1,-1l2,1ZM358.5,268.5l-1,-1c-1,0,-1,-1,-1,-1l-1,-1l0,-1c0,-1,0,-1,0,-1l0,-1l1,0c0,0,0,-1,0,-1l1,-1l0,1c0,0,-1,1,-1,1l0,1c0,1,0,1,0,1c1,1,1,1,1,1l1,0c0,1,1,1,1,1c0,0,1,0,1,0c1,0,1,0,2,0l1,-1c0,0,1,0,1,0l1,-1l0,-1l0,-1c0,0,0,-1,0,-1l0,-1c0,0,-1,0,-1,0l0,-1l1,-1l1,1l1,0c1,0,1,0,1,0c1,0,1,0,1,0l0,-1c0,0,1,0,1,0c0,0,0,-1,0,-1l0,1l1,0c0,1,0,1,0,1l1,0l1,0l-1,0l0,-1l1,-1l0,1l0,1l0,1c0,1,-1,1,-1,1c0,0,-1,0,-1,0c0,0,-1,-1,-1,-1l-1,0l-1,1c-1,0,-1,0,-1,0l-1,0l0,1c0,0,0,1,0,1l0,1c-1,1,-1,1,-1,1c0,0,0,1,-1,1c0,0,0,1,-1,1l-1,0c0,1,0,1,-1,1l-1,0c-1,0,-1,0,-1,0c0,0,-1,0,-1,0ZM365.5,269.5l-4,2c0,-1,0,-1,0,-1l4,-2ZM417.5,266.5c0,-1,1,-1,1,-1l0,1l1,0c1,0,2,-1,3,-1c0,0,0,-1,1,-1c0,-1,1,-1,1,-2l1,-1c0,0,0,-1,0,-1l-1,0l0,-1c0,-1,0,-1,-1,-1l1,-1l1,0c0,0,0,1,0,2l0,1l0,1c0,0,0,1,0,1c0,1,0,1,0,1c0,1,-1,1,-1,1c0,1,0,1,-1,1c0,1,0,1,0,1l-1,0c0,0,-1,0,-1,0l-1,0c0,0,-1,0,-1,0c-1,0,-1,0,-1,0ZM420.5,253.5l4,-3l0,1c0,0,0,1,0,1l-4,2ZM410.5,267.5l-1,-1l0,-2l2,1ZM417.5,260.5c0,1,-1,1,-2,1c0,1,-1,1,-3,1c-1,1,-2,1,-3,1c-2,0,-3,0,-4,0c-1,-1,-2,-1,-2,-1c-1,-1,-1,-1,-1,-1c0,-1,0,-1,0,-1c0,0,0,-1,0,-1c0,-1,0,-1,0,-1c0,-1,1,-1,1,-2l0,1c0,1,0,1,0,1c0,1,0,1,0,2c0,0,1,0,2,1l1,0l1,0l3,0c0,0,1,0,1,0c1,0,1,0,1,0c1,0,1,0,1,-1l1,0c1,0,2,0,2,0c1,-1,1,-1,2,-1l-1,-1c0,0,0,-1,0,-1l0,-1c0,0,0,-1,0,-1c0,0,1,1,1,1c0,0,0,1,0,1l0,1c0,0,0,1,0,1c0,1,0,1,-1,1ZM408.5,252.5l0,1c1,0,1,0,1,0l0,-1l1,0l0,1c0,0,1,0,1,-1l0,-1l0,1l0,1c0,1,0,1,0,1l-1,0l-1,0c0,0,0,1,-1,1l0,-1l0,-1l0,-1ZM409.5,247.5c0,0,1,0,1,-1l1,0c0,0,1,1,1,1c0,0,0,1,-1,1c0,0,0,1,0,1l0,1l-1,0l0,1c-1,0,-1,0,-1,0c-1,1,-1,1,-1,1c-1,0,-1,0,-1,0c1,-1,2,-2,3,-3l-1,0l0,-1l0,-1ZM410.5,248.5l0,-1l0,1l1,0ZM158.5,247.5c0,0,0,-1,0,-1c0,-1,0,-1,-1,-1l1,-1l0,1l0,1c0,0,0,1,0,1ZM157.5,249.5l0,1l1,0l0,-1l1,0c0,1,0,1,0,1c0,0,1,-1,1,-1l0,-1l0,1l0,1l-1,1c0,0,0,-1,0,-1l-1,0l0,1l-1,0l0,-1l0,-1ZM141.5,262.5l0,-1l0,-1l-1,-9l1,-2l1,11c0,0,-1,1,-1,1c0,0,0,1,0,1ZM143.5,264.5l-4,2c0,-1,0,-1,0,-1l4,-2ZM205.5,312.5l0,-1l0,-1l-1,-8l1,-3l1,11c-1,1,-1,1,-1,1c0,1,0,1,0,1ZM207.5,314.5l-4,2c0,-1,0,-1,0,-1l4,-2ZM356.5,208.5c0,-1,0,-1,1,-1c0,0,1,0,1,0c1,0,1,0,1,0c1,0,1,1,1,1c0,0,0,1,-1,1c0,0,0,1,0,1c0,0,-1,0,-1,0c0,0,-1,0,-1,0l-1,0l2,-1c0,0,1,0,1,0c0,-1,0,-1,-1,-1c-1,0,-1,0,-2,0c0,0,0,1,0,1l0,-1ZM336.5,216.5c0,1,0,1,0,2l-1,1c0,0,0,1,-1,1l2,0l0,1l-1,0l-1,1l-1,0l0,1l-1,0l-1,0l0,1l-1,0l-1,0l0,1l-1,0l-1,1l-3,0l-1,0l-1,0l-1,0l-1,0l-1,-1c0,-1,0,-1,0,-1c-1,0,-2,0,-3,-1l-1,0l0,-1l-1,0l-1,-1l-1,-1l2,0l-1,0l0,-1l-1,-1l0,-1l0,-1l0,-1l0,-1l1,-1l0,-1l-1,-1c0,0,1,0,1,0l0,-1l1,0l1,-1l1,0l1,-1l2,0c0,0,0,-1,0,-1l1,-1c1,0,1,0,1,-1l1,0l1,0l1,0l3,0l1,1l0,1l1,0l0,1l2,0l1,0l0,1c0,0,1,0,1,0l1,1c1,0,1,1,2,1l-1,1l0,1l1,0l0,1l0,1ZM327.5,226.5l1,-1l0,-1l1,0c1,0,1,0,2,-1l1,0c0,0,1,0,1,-1l1,0c0,0,0,-1,0,-1l1,0l0,-1l-1,0l0,-1l1,0l0,-1l1,-1l0,-1c0,-1,0,-2,-1,-2c0,0,0,-1,0,-1c0,0,0,-1,0,-1l-1,0l1,-1l-1,-1l-1,0l0,-1l-1,0l-1,-1l-2,0c0,0,0,-1,-1,-1l0,-1l-1,0l-1,0l-2,0l-1,0l-1,0l-1,0l-1,0l0,1c-1,0,-1,1,-1,1l-2,0l-1,1l-1,0l0,1l-1,0c0,0,-1,1,-1,1l1,1l-1,0l0,1l0,1l-1,0l0,1l0,1l0,1l0,1l1,0l0,1l1,0l0,1l-1,0l0,1l1,0l0,1l1,0l1,1l1,0l2,1l1,0l0,1c1,1,1,1,1,1l1,0l1,0l1,0ZM333.5,211.5l-1,0l-1,0l0,-1l-1,0c-1,0,-1,0,-1,0l0,-1c0,0,1,0,1,0l1,0c0,0,0,1,0,1l1,0l0,1ZM333.5,221.5l-1,0l0,1l-1,0l-1,1l-1,0l1,-1c0,0,-1,0,-1,0c1,0,1,0,1,0l1,0l0,-1c1,0,1,0,1,-1l0,1l1,0ZM328.5,223.5l0,1c0,0,-1,0,-1,0l-3,0l-1,0l-1,0l-1,0c0,0,-1,0,-1,0c0,0,0,-1,0,-1c0,-1,0,-1,0,-1l1,0l0,-1l1,0l1,0l1,0l3,0c0,0,0,1,0,1l1,0l0,1ZM328.5,209.5c0,0,0,1,0,1l-1,0l-3,0l-1,0l-1,0l-1,0c0,0,-1,0,-1,0l0,-1c0,0,0,-1,0,-1l1,0l1,0l1,0l1,0l3,0c0,0,1,0,1,0l0,1ZM327.5,212.5l0,-1l1,0l1,0c0,0,1,0,1,0c0,0,0,1,1,1l0,1l1,-1c0,0,1,0,1,1l0,1l1,0l0,1l0,1l0,1l-1,1c0,1,0,1,0,1l0,1l-2,-1l0,1c-1,0,-1,0,-1,0l-1,1l-1,0c0,-1,-1,-1,-1,-1l-3,0l-1,0l-1,0l-1,0l-1,1l-1,0c0,0,-1,0,-1,-1c0,0,-1,0,-1,0l0,-1l-1,1l-1,-1l0,-2l-1,0l0,-1c0,-1,0,-1,0,-1c0,0,0,-1,1,-1l0,-1c0,-1,0,-1,1,-1l1,1c0,0,0,-1,0,-1l1,0l0,-1c0,0,1,0,1,0c1,0,1,0,1,0l1,0l0,1l1,0l1,0l1,0ZM327.5,220.5l1,0l1,0l1,0l1,-1l1,0l1,0l0,-1l0,-1l0,-1c0,-1,0,-1,0,-2c0,0,0,-1,0,-1c0,0,-1,0,-1,-1l-1,1l-1,-1l0,-1l-1,0c-1,0,-1,0,-1,0c0,0,-1,0,-1,1l-3,0l-1,0l-1,0l-1,0l-1,-1l-1,0c-1,0,-1,0,-1,1l-1,0c0,1,0,1,0,1l-1,-1c0,0,-1,1,-1,1l0,1l0,1l0,1l0,1l0,1c0,0,0,1,1,1l1,0l1,1l1,0c1,0,1,0,1,0c0,0,1,0,1,0l1,0l1,0l1,0l3,0ZM326.5,215.5l0,1l1,0l0,1c0,0,0,1,-1,1l-1,0l-1,0l0,-1l0,-1c1,0,1,0,1,0c0,-1,0,-1,1,-1ZM326.5,216.5c-1,0,-1,0,-1,0c0,0,0,1,0,1c0,0,0,1,0,1l1,0l0,-1c0,0,0,-1,0,-1ZM323.5,214.5l0,1l1,0c0,0,0,1,0,1l0,1l0,1l-1,0l0,-1c0,0,0,-1,0,-2ZM322.5,214.5l0,1c0,0,0,1,0,1l0,1l0,1l0,-1c0,0,0,-1,-1,-2ZM315.5,211.5l1,0l0,-1l1,0l0,-1l1,0l1,0c0,1,0,1,0,1c-1,0,-1,0,-1,0c-1,0,-1,0,-1,0l0,1l-1,0l-1,0ZM315.5,221.5l1,0l0,-1c0,1,0,1,1,1l0,1l1,0l1,0l-1,0c0,0,1,1,1,1c0,0,-1,0,-1,0c-1,-1,-2,-1,-2,-1l0,-1l-1,0ZM395.5,210.5l-1,-1l-1,1l-2,-1l1,-1l2,1l1,-1l1,1ZM393.5,217.5c0,0,1,0,1,0c1,-1,1,-1,1,-1l1,0l0,-1c0,0,-1,0,-1,0c0,-1,0,-1,0,-1l0,-2c1,0,1,0,1,1l0,1l0,1l0,1c0,0,0,1,0,1c-1,1,-1,1,-2,1c0,0,-1,0,-1,0l-1,0l-1,0c0,1,0,1,0,1c0,1,0,2,-1,2c0,1,0,1,0,1c0,0,-1,1,-1,1c0,0,-1,1,-1,1c0,0,-1,0,-1,0c0,0,-1,0,-1,0c-1,0,-1,0,-2,0c0,0,0,-1,-1,-1c1,0,1,0,1,0l1,0c0,0,1,0,1,0c1,0,1,0,1,-1c1,0,1,0,1,0c0,-1,1,-1,1,-1c0,0,0,-1,1,-1c0,0,0,-1,0,-1c0,-1,0,-1,0,-1l0,-1c0,0,0,-1,0,-1l0,-1l0,1l1,0c0,1,0,1,0,1l1,0l1,0ZM393.5,199.5c0,0,1,0,1,-1l1,0c0,0,0,1,0,1l0,1c0,0,0,1,0,1l1,0l-1,1l-1,0l-1,1l-1,0l0,1l-1,0c0,0,0,-1,0,-1l1,0c0,-1,1,-1,1,-1l1,-1l-1,0c0,0,0,-1,0,-1c0,0,0,-1,0,-1ZM394.5,199.5c0,0,0,1,0,1l1,0l-1,0ZM386.5,208.5c0,-1,0,-1,1,-1l1,0c0,0,1,0,1,0c1,0,1,1,1,1c0,0,-1,1,-1,1l0,1c0,0,-1,0,-1,0c-1,0,-1,0,-1,0l-1,0l2,-1c0,0,1,0,1,-1l-1,0c-1,0,-1,0,-2,0c0,0,0,1,-1,1l0,-1c1,0,1,0,1,0ZM375.5,222.5l-1,-1l1,-1l1,0ZM383.5,216.5l-2,0c-1,0,-1,0,-2,0l-1,0l-1,0l0,1l-1,0c-1,0,-1,0,-1,0c-1,1,-1,1,-1,1c-1,0,-2,0,-3,0l-1,0l-1,0c0,0,-1,0,-1,0c0,0,0,-1,-1,-1l-1,0l0,1c-1,0,-1,0,-1,0c0,0,-1,0,-1,0l-1,0l-1,0l-1,0c0,1,0,1,0,2l-1,1l0,1c-1,0,-1,0,-1,1c-1,0,-1,0,-1,0c0,0,-1,0,-1,1c-1,0,-1,0,-1,0l-1,0c0,0,-1,0,-1,-1c-1,0,-1,0,-1,0l1,0c1,0,1,0,2,0c0,0,1,-1,1,-1c0,0,1,0,1,-1l1,0c0,-1,0,-1,0,-1c0,0,1,-1,1,-1c0,0,0,-1,0,-1c0,0,-1,0,-1,0l-1,0c0,0,-1,0,-1,-1c0,0,0,-1,0,-1c0,0,0,-1,0,-1c1,0,1,0,1,0c0,-1,0,-1,0,-1c0,0,1,0,1,0c0,0,1,0,1,0c1,1,1,1,1,1l0,1l0,1c1,0,1,0,1,0c1,0,1,0,1,0l1,0l0,-1c1,0,1,0,1,0c1,0,1,0,1,0l0,-1l-1,0l-1,0l-1,0l1,-2c1,0,1,0,2,-1l1,0l1,0l0,1c0,0,1,0,1,0c0,1,0,1,0,1l0,1l-1,0l0,1c0,0,1,0,1,0l0,1l1,0l1,0c1,0,1,0,1,0c1,0,1,-1,2,-1c0,0,1,0,1,0l2,-1l-1,0l-1,-1l-1,0l-1,0l-1,0c0,0,0,-1,1,-1c0,0,0,-1,0,-1c1,0,1,0,1,0c0,0,1,0,1,0l1,1l2,0l1,1c0,0,1,0,1,0c0,0,1,0,1,0c1,0,1,0,1,0l1,0ZM374.5,205.5l4,-2l0,1l-4,2ZM366.5,203.5c0,-1,0,-1,0,-1c1,-1,1,-1,1,-1c1,1,1,1,1,1c0,1,0,1,0,1l0,1l-1,0l1,0l0,2l-1,-1l-1,1c0,0,-1,1,-1,1l-1,0l-1,0l1,-1l1,0l0,-1l1,0l0,-1c0,0,-1,0,-1,0l0,-1c0,0,1,0,1,0ZM367.5,203.5l-1,-1c0,0,0,1,0,1l1,0l0,1l0,-1ZM359.5,215.5c-1,1,-1,1,-1,1c0,0,1,0,1,1l1,0c0,-1,0,-1,0,-1c0,0,-1,0,-1,0c0,-1,0,-1,0,-1ZM348.5,212.5l-2,-1l1,-1l1,1ZM347.5,222.5c0,0,-1,0,-1,-1c-1,0,-1,0,-2,0c0,-1,0,-1,-1,-1c0,-1,0,-2,0,-2c0,-1,0,-1,0,-1c0,-1,0,-1,0,-1c1,-1,1,-1,1,-1c0,-1,0,-1,0,-1l1,0c0,0,0,1,-1,1l0,1c0,0,0,1,0,1c0,0,0,1,0,1c0,0,1,1,1,1l1,0c0,1,1,1,2,1c1,0,1,-1,2,-1c1,0,1,0,2,-1c0,-1,0,-1,0,-1c0,-1,0,-1,0,-1c0,-1,0,-1,0,-1c0,-1,-1,-1,-1,-1c0,0,0,-1,0,-1l0,-2c0,0,1,0,1,1c0,1,1,1,1,1c0,1,0,1,0,1c0,1,0,1,0,1l0,1c0,1,0,2,0,2c-1,1,-1,1,-2,2c0,0,-1,1,-1,1c-1,0,-2,1,-3,1ZM344.5,205.5l4,-2l0,1l-1,0l-4,2ZM413.5,217.5c0,0,0,1,0,1c-1,0,-1,0,-1,0c0,0,1,0,1,0l1,0c0,0,0,-1,0,-1ZM414.5,219.5c0,0,0,1,-1,1c0,0,-1,0,-1,0c0,0,-1,0,-1,0c-1,0,-1,0,-1,0l-1,0c0,-1,0,-1,0,-1l0,-1c1,0,1,0,1,0c1,0,1,0,1,0c0,-1,1,-1,1,-1l0,-1c0,0,1,0,1,0c0,0,-1,-1,-1,-1c0,0,0,-1,0,-1c-1,0,-1,-1,-2,-1c0,-1,-1,-1,-1,-2c-1,0,-1,0,-1,-1l-1,0c-1,0,-1,0,-1,0c0,0,-1,-1,-1,-1c0,0,0,-1,0,-1l0,-1c0,0,0,-1,0,-1c1,0,1,0,1,0c0,0,1,1,1,1c0,1,1,1,1,2c1,0,2,1,2,2c1,0,1,1,2,2c0,0,1,1,1,1c0,0,0,1,0,1c0,0,1,-1,1,-2c0,0,0,-1,0,-1c0,-1,0,-2,0,-2c0,0,0,-1,0,-1c0,-1,0,-2,0,-2c0,0,0,-1,0,-1l0,-1l1,0c0,1,0,1,0,1c0,0,1,0,1,0c0,1,0,1,0,1c0,0,0,1,-1,1c0,1,0,1,0,2c0,0,0,1,0,1c0,1,0,1,0,1c0,1,0,2,-1,2c0,1,0,1,0,2l0,1c0,0,1,1,1,1c0,0,0,1,-1,1ZM411.5,202.5l5,-2c0,0,0,1,0,1l-6,3ZM241.5,210.5c0,0,0,-1,0,-1c1,0,1,0,1,0c0,0,1,0,1,0l0,1l0,1l0,1l0,1l-1,-1l0,1l-1,0c0,1,-1,1,-1,1l-1,0l1,-1l1,0l0,-1c0,-1,0,-1,0,-1c0,-1,0,-1,0,-1ZM242.5,210.5c-1,0,-1,0,-1,0l1,1l0,-1ZM283.5,209.5l0,-1c0,0,0,-1,-1,-1c0,-1,0,-2,0,-2l0,-1l1,0l0,1c0,0,0,1,0,1l0,1c0,0,0,1,0,1l0,1ZM105.5,206.5l0,-1c0,0,0,-1,0,-1c0,-1,0,-2,0,-2l0,-1c1,0,1,0,1,1c0,0,0,1,0,1l0,1c0,0,0,1,0,1l-1,1ZM64.5,220.5c0,0,-1,0,-2,0l-1,0c-1,0,-1,0,-1,0l-1,0l0,1c-1,0,-1,0,-1,0c-1,0,-1,0,-1,0l-1,0l-2,0c0,0,0,1,0,1c0,0,0,1,0,1c0,1,-1,1,-1,1c0,1,-1,1,-1,1c0,1,0,1,-1,1c-1,0,-1,0,-1,0c0,0,-1,0,-1,0c-1,0,-1,0,-2,0l-1,0c0,-1,0,-1,0,-1c1,0,1,0,1,0c0,0,1,0,1,1c0,0,1,-1,1,-1c1,0,1,0,2,0c0,-1,0,-1,0,-1c1,0,1,0,1,-1c0,0,1,0,1,-1c0,0,0,-1,0,-1l-1,0c0,0,-1,0,-1,0c0,-1,0,-1,0,-1c0,-1,0,-1,0,-1c0,-1,0,-1,0,-1c0,0,0,-1,0,-1c1,0,1,0,1,0c0,-1,0,-1,0,-1l1,0c1,0,1,1,1,1l0,1c0,1,1,1,1,1l1,0c1,0,1,0,1,0l1,0c0,0,1,0,1,0c0,0,0,-1,0,-1c0,0,0,-1,0,-1c0,-1,0,-1,0,-1c0,0,0,-1,1,-1c0,0,0,-1,0,-1c0,0,0,-1,0,-1c0,0,1,0,1,0c0,0,1,0,2,1c0,0,1,1,1,1c0,1,1,1,1,2l0,1c0,1,0,1,0,1l0,1c0,0,-1,0,-1,0ZM61.5,216.5c0,0,-1,0,-1,0l0,1c-1,0,-1,0,-1,0c0,0,1,0,1,1c1,0,1,0,1,0c0,-1,0,-1,0,-1c0,0,0,-1,0,-1ZM62.5,216.5l0,1l0,1l2,1c0,0,0,-1,0,-1l-1,-1c0,0,0,-1,-1,-1ZM57.5,202.5c0,-1,1,-1,1,-1c0,0,0,-1,1,-1c0,1,0,1,0,1c0,0,1,0,1,1l-1,0l0,1l0,1l1,0l0,1l-2,-1l0,1c-1,1,-1,1,-1,1l-1,0l-1,0l1,0l1,-1l0,-1l1,0l-1,0c0,-1,0,-1,0,-1l0,-1ZM58.5,202.5l0,1l1,0l0,-1ZM52.5,218.5c0,0,0,1,-1,1c0,0,1,0,1,0c0,0,1,0,1,0c0,0,0,-1,0,-1c0,0,-1,0,-1,0ZM49.5,211.5l4,-2l0,1c0,0,-1,0,-1,0l-4,2ZM82.5,219.5l0,1c-1,0,-1,0,-1,1c0,0,1,0,1,0c0,-1,0,-1,0,-1l1,0ZM83.5,222.5l-1,0c0,0,-1,0,-1,0c0,0,-1,0,-1,0c-1,0,-1,0,-1,0l-1,0c0,-1,0,-1,0,-1c1,0,1,0,1,0c1,-1,1,-1,1,-1c0,0,1,0,1,0c0,-1,0,-1,0,-1c0,0,1,0,1,-1c0,0,-1,0,-1,-1c-1,-1,-1,-1,-2,-2c0,0,-1,-1,-1,-1c-1,-1,-1,-1,-1,-1c0,0,-1,0,-1,-1c0,0,0,1,0,1c-1,0,-1,0,-1,0c0,-1,-1,-1,-1,-2c0,0,0,-1,0,-1l0,-1c1,0,1,0,1,0c0,0,1,0,1,1c0,0,1,1,1,1c1,1,2,2,2,2c1,1,1,1,2,2c0,1,1,1,1,1c0,1,0,1,0,1c0,0,1,0,1,-1c0,-1,0,-1,0,-2c0,0,0,-1,0,-2l0,-1c0,0,0,-1,0,-1c0,0,0,-1,0,-1c0,0,0,-1,0,-1c0,0,0,-1,1,-1l0,1c0,1,1,1,1,1c0,0,0,1,0,1l-1,1l0,-1c0,1,0,1,0,1c0,0,0,1,0,2l0,1c0,0,0,1,0,1c0,1,0,1,-1,2c0,0,0,1,0,1l0,1c0,0,0,1,0,1c0,0,1,0,1,0l0,1l-1,0c0,1,0,1,0,1ZM80.5,205.5l0,1l1,0l0,-1l0,-1l0,1l1,0l1,0l0,-1c0,1,0,1,0,1l0,1l-1,1l-1,-1l0,1c0,0,-1,0,-1,0l-1,0l0,-1l0,-1l1,0ZM84.5,202.5l-6,3c1,-1,1,-1,1,-1l5,-3ZM104.5,221.5l-1,0c0,0,-1,0,-1,-1l0,-1c0,0,0,-1,0,-1l-1,1c0,0,-1,0,-1,0l-1,0c0,0,-1,0,-1,0l-1,0l0,-1c0,-1,1,-1,1,-2c1,0,1,0,2,-1c1,0,1,0,1,0l0,-1l0,-1l1,1l0,1c0,0,0,1,0,1l0,2l1,1l1,0l1,0c1,0,1,0,1,0c0,0,0,-1,0,-1l0,-2l0,-6c0,0,0,-1,0,-1c0,0,0,-1,0,-1c0,0,0,-1,0,-1c0,0,1,0,1,0l-1,1c0,0,1,0,1,0c0,0,0,1,1,1c0,0,-1,0,-1,1l0,1l0,-1c0,0,0,1,0,1c0,0,0,1,0,2l0,2c0,1,0,1,0,1l0,1c0,1,0,1,0,1c0,0,0,1,0,1c0,1,0,1,0,1c-1,0,-1,0,-1,0c0,0,0,1,0,1c0,0,-1,0,-1,0l-1,0ZM101.5,216.5l-1,0l-1,1l1,0c0,0,1,0,1,0ZM98.5,208.5l4,-2l0,1l-4,2ZM126.5,219.5l-1,1l-1,1c1,0,1,0,1,0c0,-1,0,-1,0,-1l1,0ZM127.5,222.5c-1,0,-1,0,-2,0l-1,0c0,0,-1,0,-1,0c-1,0,-1,0,-1,0c-1,0,-1,0,-1,0c0,-1,0,-1,0,-1c1,0,1,0,1,0l1,0c0,-1,0,-1,0,-1c1,0,1,0,1,0c0,-1,0,-1,1,-1l0,-1l-1,-1c-1,-1,-1,-1,-2,-2c0,0,0,-1,-1,-1c0,-1,-1,-1,-1,-1l0,-1c-1,0,-1,1,-1,1l-1,0c0,-1,0,-1,0,-2c-1,0,-1,0,-1,0c0,0,0,-1,0,-1l0,-1l1,0c0,0,1,0,1,1c1,0,1,1,2,1c0,1,1,2,2,2c0,1,1,1,1,2c1,1,1,1,1,1c0,1,1,1,1,1l0,-1c0,-1,0,-1,0,-2c0,0,0,-1,0,-2l0,-1c0,0,0,-1,0,-1c0,0,0,-1,0,-1c0,0,0,-1,0,-1c0,0,1,-1,1,-1l0,1c1,1,1,1,1,1c0,0,0,1,0,1l0,1l-1,-1c0,1,0,1,0,1c0,0,0,1,0,2l0,1c0,0,0,1,0,1c0,1,0,1,0,2c-1,0,-1,1,-1,1l0,1l1,0c0,0,0,1,0,1l0,1c0,1,0,1,0,1ZM125.5,205.5l4,-2l0,1l-4,3ZM122.5,206.5c-1,1,-2,1,-2,1l-1,0l-1,0c0,0,-1,0,-1,-1c0,1,-1,1,-1,2l0,-1l0,-1l1,-1c1,0,1,1,2,1c0,0,1,0,1,0l1,0l1,0l0,-1l1,0ZM183.5,221.5l0,-1l0,-1l0,-9l1,-2l0,11c0,0,0,1,0,1c0,0,0,1,-1,1ZM176.5,219.5l1,0l1,0c0,0,0,-1,0,-1l0,-2l0,-6c0,0,0,-1,0,-1c0,0,0,-1,0,-1c0,0,0,-1,1,-1l0,1c0,0,0,1,1,1l-1,1l0,1l0,-1c0,0,0,1,0,1c0,0,0,1,0,2l0,2c0,1,0,1,0,1l0,1c0,1,0,1,0,1c0,0,0,1,0,1c0,1,0,1,0,1c-1,0,-1,0,-1,0c0,0,0,1,0,1c0,0,-1,0,-1,0c0,0,-1,0,-1,0l-3,0c-1,0,-1,0,-2,-1c0,0,-1,0,-1,-1l1,-1l-1,0c-1,0,-1,0,-1,0l-5,2l-1,1c0,0,-1,0,-1,0l-1,0l-1,0c0,0,0,1,0,1c0,0,0,1,-1,1l0,1c0,0,-1,1,-2,2c-1,0,-2,1,-3,1l-1,0c-1,0,-1,0,-2,-1c-1,0,-1,0,-2,-1c0,0,0,-1,0,-2c0,-1,0,-1,0,-2c0,0,1,-1,1,-2c0,0,0,-1,0,-1l1,1l-1,1c0,1,0,1,0,2c0,0,0,1,0,1c0,1,0,1,1,1c1,1,1,1,2,1c0,0,1,0,1,0c1,0,1,0,2,0c0,-1,1,-1,1,-1c0,0,1,-1,1,-1c0,0,1,0,1,-1l0,-1l-1,0c-1,0,-1,0,-2,0c0,-1,0,-1,0,-1l0,-1c0,0,0,-1,0,-1c0,-1,0,-1,0,-1c1,-1,1,-1,2,-1l1,1l0,1l0,1c1,0,1,0,1,0l1,0l1,0l1,0l1,0c0,0,1,0,2,-1l1,0l1,0l-1,-1l-1,0c-1,0,-2,0,-2,0c-1,0,-1,0,-1,0l-1,0l0,-1c0,0,1,-1,1,-1c0,0,1,0,1,0l1,0c1,0,1,0,2,0c0,1,2,1,3,1c0,1,1,1,2,1c0,0,1,0,1,0l1,0l-1,1l-1,0l-1,0c0,1,0,1,1,1c0,0,1,0,1,0l1,0l1,0l1,0ZM176.5,203.5l1,0c0,0,1,-1,1,-1c1,0,1,1,2,1l0,1l0,1c-1,0,-1,0,-1,0c-1,0,-1,0,-1,0c0,0,-1,0,-1,0c0,0,-1,0,-1,0l2,0c0,0,1,-1,1,-1c-1,0,-1,0,-1,0c-1,0,-1,0,-2,0l0,-1ZM164.5,208.5l5,-2l-1,1l-4,2ZM158.5,215.5l-1,-1l-1,1l-2,-1l1,-1l2,1l0,-2l2,1ZM157.5,218.5l-1,1c0,0,1,0,1,0c1,0,1,0,1,0c0,0,0,-1,0,-1c0,0,-1,0,-1,0ZM155.5,207.5l0,1l1,0l0,-1l1,0l0,1c0,0,0,-1,1,-1l0,-1l0,1l0,1c0,0,0,1,-1,1l-1,0c0,0,-1,1,-1,1c0,0,0,-1,0,-1c-1,0,-1,0,-1,0l0,-1l1,-1ZM156.5,202.5l1,-1l1,0c0,0,0,1,0,1l0,1l0,1l0,1l-1,0l-1,1l-1,0l-1,0c1,0,2,-1,3,-2l-1,0c0,0,0,-1,0,-1ZM157.5,202.5c0,0,0,1,0,1ZM232.5,221.5l0,-1l0,-1l-1,-9l1,-2l1,11c0,0,0,1,0,1c-1,0,-1,1,-1,1ZM224.5,219.5c1,0,1,0,1,0c1,0,1,0,1,0c0,0,1,0,1,0c0,0,0,-1,0,-1l0,-2l-1,-6c0,0,0,-1,0,-1c0,0,0,-1,0,-1c1,0,1,-1,1,-1l0,1c1,0,1,1,1,1l0,1l0,1l0,-1c0,0,0,1,0,1c0,0,0,1,0,2l0,2c0,1,0,1,0,1l0,1c0,1,0,1,0,1c0,0,0,1,0,1c-1,1,-1,1,-1,1c0,0,0,1,-1,1l-1,0l-1,0l-1,0c0,0,-1,0,-1,-1l-1,0c0,1,0,1,-1,1c0,0,-1,0,-1,0l-1,0l-2,-1l-1,1l-2,0c-1,0,-1,0,-1,0c-1,-1,-1,-1,-1,-2c-1,1,-1,1,-1,1c0,1,-1,1,-1,1l-1,0c0,0,-1,0,-1,0c0,0,-1,-1,-1,-1c0,-1,0,-2,0,-3c-1,1,-1,2,-1,2c-1,0,-2,1,-3,1c0,1,0,1,-1,1l-1,0l-1,0c0,0,-1,0,-1,0l-1,0l-1,1l-1,0l0,-1l-1,0c-1,0,-2,0,-3,-1c0,0,0,-1,0,-2l0,-1c0,-1,0,-1,0,-1l0,-1l1,0l0,1c0,2,0,2,2,3c0,0,1,0,1,0c1,0,2,1,2,1l1,0l1,-1l1,0l1,0c2,0,4,-1,4,-3l0,-7l1,-2l1,11c0,0,0,1,0,1c1,0,1,0,1,0c1,0,1,0,1,0c1,0,1,0,1,-1c0,0,0,-1,0,-1l0,-1l0,-7l1,-2l0,11c0,0,1,1,1,1c0,0,1,0,1,0l2,0l1,0c0,0,0,-1,0,-1c2,-2,2,-2,3,-2l1,1l1,1l1,1l1,0l1,0ZM224.5,203.5c1,0,1,0,1,0c1,0,1,-1,2,-1c0,0,1,1,1,1c1,0,1,0,1,0l0,1c0,0,-1,0,-1,1l-1,0c-1,0,-1,0,-1,0l-1,0l1,0c1,0,2,-1,2,-1c0,0,-1,0,-1,0l-1,0c0,0,-1,0,-1,0l-1,0l0,-1ZM220.5,219.5l0,-1c-1,0,-1,0,-1,-1l-1,1l-1,0c1,0,1,1,2,1ZM216.5,208.5l4,-2l0,1l-4,2ZM211.5,227.5l-4,2c0,-1,1,-1,1,-1l3,-2ZM199.5,216.5c0,0,-1,1,-2,1c-1,-1,-1,-1,-1,-1l1,0l1,0l0,-1c-1,0,-1,0,-1,0c0,-1,0,-1,0,-1l0,-1c0,-1,1,-2,2,-3l0,2c-1,0,-1,1,-1,1l1,0c1,0,1,1,1,1c0,1,0,1,0,1c0,0,-1,1,-1,1ZM197.5,202.5c0,-1,0,-1,1,-1c0,0,0,-1,1,-1c0,1,0,1,0,1l0,1l0,1l0,1l1,0l-1,1l-1,-1l0,1l-1,0c0,1,0,1,-1,1l-1,0l1,0l0,-1c0,0,1,0,1,0l0,-1l1,0l-1,0c0,-1,0,-1,0,-1l0,-1ZM198.5,202.5l0,1l0,-1ZM258.5,221.5l0,-1l0,-1l-1,-9l1,-2l1,11c0,0,-1,1,-1,1c0,0,0,1,0,1ZM253.5,220.5l0,1c-1,0,-1,-1,-2,-1c0,0,0,-1,-1,-2c0,1,0,2,0,2c-1,1,-1,1,-2,1c-1,0,-1,0,-2,-1c0,0,0,-1,0,-2l-1,0l0,1l0,1c-1,0,-1,0,-2,0c-1,0,-1,0,-1,0c-1,0,-1,-1,-1,-1c0,-1,0,-1,1,-1c0,-1,0,-1,0,-1c1,-1,1,-1,2,-1l1,-1l0,-1l0,-1c1,0,1,0,1,0l0,1l0,1l0,2c0,1,0,1,0,1c1,0,1,0,1,1c0,0,1,0,1,0c0,0,1,0,1,0c1,-1,1,-1,1,-1c0,-1,0,-2,0,-3c0,0,0,-1,0,-1c-1,-1,-1,-1,-1,-1l0,-1l1,-1l0,2l1,2l0,1l0,1c0,0,0,1,0,1c1,0,1,0,1,0l1,1c0,0,1,0,1,-1c0,-1,0,-1,0,-1l-1,-2l0,-1l0,-1c0,-1,0,-1,0,-1l0,-1c1,0,1,1,1,1c0,1,0,1,0,1l0,2c1,1,1,2,1,2c0,1,-1,1,-1,2c0,0,0,1,0,1c0,0,-1,0,-1,0ZM245.5,216.5c0,0,-1,0,-1,1c-1,0,-1,0,-1,1c0,0,1,0,2,0c0,0,0,-1,0,-1ZM298.5,211.5l-2,-1l1,-1l2,1ZM300.5,219.5c0,1,-1,1,-1,1c0,0,-1,1,-2,1c0,0,-1,0,-1,0l-1,0l-1,0c-1,0,-1,0,-1,0c-1,0,-1,0,-1,0l0,-1l-1,0c0,0,-1,0,-1,0c0,0,0,1,-1,1l-1,0c-1,0,-1,0,-1,0c-1,0,-1,0,-1,-1c-1,0,-1,0,-1,0l-1,-1c0,0,0,1,0,1l-1,0l-1,1l-1,0l-1,0c-1,-1,-1,-1,-2,-2l0,1l-1,0c0,1,0,1,0,1c-1,0,-1,0,-1,0l1,0l1,0c0,1,1,1,1,1c0,1,0,1,0,1c0,1,-1,1,-1,1c0,1,-1,1,-1,1c-1,1,-2,1,-2,1c-1,1,-2,1,-3,1c-1,0,-2,0,-2,0c-1,-1,-2,-1,-2,-1c0,-1,0,-1,-1,-1c0,-1,0,-1,0,-2c0,-1,0,-1,0,-2c1,-1,1,-1,1,-2c0,0,1,0,1,0c0,1,-1,1,-1,2c0,0,0,1,0,1l0,1c0,0,0,1,1,1c1,1,2,1,3,1c1,0,1,0,2,0l1,0c0,-1,1,-1,2,-1c0,0,0,-1,1,-1c-1,0,-1,0,-2,0c-1,0,-1,-1,-1,-1c0,-1,0,-1,0,-1c0,-1,0,-1,0,-1c0,0,1,0,1,0c0,0,1,-1,1,-1c0,0,1,0,1,0l0,-1c0,-1,0,-1,0,-1c0,0,0,-1,0,-1l0,-7l1,-2l0,11c0,0,1,1,1,1l1,0l1,0l1,0c0,0,0,-1,0,-1c-1,0,-1,-1,-1,-1c-1,0,-1,0,-1,0l1,-2c0,0,1,0,1,0c0,0,1,0,1,0l1,0l1,0l0,1l0,1c0,1,0,1,0,1l-1,0c0,1,0,1,1,1l1,0l1,0c1,0,1,0,1,0c1,0,1,0,1,0l1,-1l1,0l0,1l1,0l1,0l1,0l1,0c0,0,1,0,2,0c0,0,1,0,1,-1c0,0,1,0,1,0c0,-1,0,-1,0,-1l-1,0l0,1c-1,0,-1,0,-1,0c-1,0,-1,0,-1,0c0,-1,0,-1,0,-1c-1,0,-1,0,-1,0c0,0,0,-1,0,-1c0,0,0,-1,0,-1l1,-1c0,0,0,-1,0,-1c0,0,1,-1,1,-1c0,0,1,1,1,1c0,0,1,0,1,1l0,1l0,1c0,1,1,1,1,1c0,1,-1,1,-1,2ZM297.5,215.5l0,1l1,0c0,0,1,-1,1,-1l-1,0c0,-1,0,-1,0,-1c0,0,-1,0,-1,0l0,1ZM296.5,205.5l4,-2c0,1,0,1,0,1l-4,2ZM292.5,216.5l-1,-1l-1,1l-1,-1l0,-1l2,1l1,-2l1,1ZM289.5,208.5l4,-2l0,1l-4,2ZM275.5,205.5l4,-2c0,1,0,1,0,1l-4,2ZM143.5,350.5c0,0,0,-1,0,-1c0,-1,0,-1,0,-1l0,-1l0,1l0,1c0,1,0,1,0,1ZM142.5,352.5l0,1l1,0l0,-1l0,-1l1,0l0,1c0,0,1,0,1,0l0,-1c0,0,0,1,0,1l0,1l-1,0l-1,0l0,1l-1,0l0,-1l0,-1ZM249.5,204.5c0,0,0,-1,0,-1c0,-1,-1,-1,-1,-1l0,-1l1,0l0,1l0,1c0,1,0,1,0,1ZM248.5,206.5l0,1l1,0l0,-1l0,-1l0,1l1,0l1,-1c0,1,0,1,0,1l0,1l-1,0l-1,0l0,1c0,0,-1,0,-1,0l-1,-1c0,0,1,0,1,0l0,-1ZM40.5,216.5l0,-1l1,1ZM41.5,219.5l-1,0c0,0,-1,0,-1,0c0,-1,-1,-1,-1,-1l0,-1l-1,0c0,-1,0,-1,1,-1c0,-1,0,-1,0,-1c0,0,0,-1,0,-1c1,0,1,0,1,0l0,-1l-1,0l0,1l0,-1l1,0l1,0l1,0l1,0l-1,1l-1,0l-1,0c-1,1,-1,1,-1,1c0,1,0,1,0,1l0,1l1,1l1,0l1,0l1,0l1,0ZM138.5,213.5l-1,0l1,-1l0,1ZM138.5,216.5c-1,0,-1,0,-1,0l-1,0c0,-1,0,-1,0,-1l-1,0l0,-1c0,-1,0,-1,0,-1c0,-1,0,-1,0,-1c1,0,1,-1,1,-1c0,0,1,0,1,0l-1,0l0,-1l-1,1l0,-1c0,0,1,0,1,0l1,0c1,0,1,0,1,0c1,0,1,0,1,0l0,1l-1,0c-1,0,-1,0,-1,0l-1,0c0,1,0,1,0,1c-1,1,-1,1,-1,1l0,1c0,0,1,0,1,0l0,1l1,0c0,0,1,0,1,0l1,0l1,0ZM89.5,219.5l0,-1l0,-1l-1,-8l1,-3l1,11l0,1c-1,1,-1,1,-1,1ZM91.5,221.5l-4,2c1,-1,1,-1,1,-1l4,-2ZM110.5,220.5l0,-1l0,-2l0,-8l1,-2l0,10c0,1,0,1,0,1l0,1c0,0,0,1,-1,1Z" class="g1_33" />
</svg>