<?xml version="1.0" encoding="UTF-8" standalone="no"?>
<!DOCTYPE svg PUBLIC "-//W3C//DTD SVG 1.1//EN"
"http://www.w3.org/Graphics/SVG/1.1/DTD/svg11.dtd">
<svg version="1.1" xmlns="http://www.w3.org/2000/svg" xmlns:xlink="http://www.w3.org/1999/xlink">
<defs>
<style type="text/css"><![CDATA[
.g2_17{
fill: #1F1A17;
stroke: #1F1A17;
stroke-width: 1;
stroke-linecap: butt;
stroke-linejoin: miter;
}
.g1_17{
stroke: #1F1A17;
stroke-width: 1;
stroke-linecap: butt;
stroke-linejoin: miter;
}
]]></style>
</defs>
<path fill-rule="evenodd" d="M67.5,156.5l0,1l-1,0l0,1l0,1c0,1,0,1,0,1l0,-1l-1,0l0,-1l0,-1l0,-1c0,1,1,1,1,1c1,0,1,0,1,-1ZM383.5,167.5l-1,0c0,0,-1,0,-1,0c0,0,-1,0,-1,0c-1,0,-1,0,-1,0l-1,0c0,-1,0,-1,0,-1c0,-1,0,-1,0,-1c1,0,1,0,1,0c0,1,0,1,1,1c0,-1,0,-1,0,-1c0,0,1,0,1,-1c0,0,1,0,1,-1c0,0,-1,0,-1,-1c-1,-1,-1,-1,-2,-2c0,0,-1,-1,-1,-1c-1,-1,-1,-1,-1,-1c0,0,0,-1,-1,-1c0,1,0,1,0,1c-1,0,-1,0,-1,-1c0,0,-1,0,-1,-1l0,-1c0,0,0,-1,0,-1l1,0c0,0,1,0,1,1c0,0,1,1,1,1c1,1,2,1,2,2c1,1,1,1,2,2c0,1,1,1,1,1c0,1,0,1,0,1c1,0,1,0,1,-1c0,-1,0,-1,0,-2c0,-1,0,-1,0,-2l0,-1c0,-1,0,-1,0,-2c0,-1,0,-1,0,-1c0,-1,0,-1,1,-1c0,1,0,1,0,1c0,0,1,1,1,1l0,1l-1,0c0,1,0,1,0,1c0,0,0,1,0,1c0,1,0,1,0,2c0,0,0,1,0,1c0,1,0,1,-1,2c0,0,0,1,0,1l0,1l0,1c1,0,1,0,1,0c0,1,0,1,0,1c-1,0,-1,1,-1,1ZM382.5,164.5l0,1c-1,0,-1,0,-1,0c0,0,1,0,1,0l1,0ZM132.5,165.5l0,-1l0,-2l-1,-8l1,-2l1,10c0,0,0,1,0,1l0,1c-1,0,-1,0,-1,1ZM124.5,163.5c1,0,1,0,1,0c1,0,1,0,1,0c0,0,1,0,1,-1l0,-2l-1,-7c0,-1,0,-1,0,-1c1,-1,1,-1,1,-1l0,1c0,0,1,0,1,1l0,1l-1,0c0,1,0,1,1,2c0,0,0,1,0,3c0,0,0,1,0,1l0,1c0,0,0,1,0,1c0,1,0,1,-1,1l0,1c0,0,-1,0,-1,0c0,0,0,1,-1,1l-1,0c-1,0,-1,0,-1,0c-1,-1,-1,-1,-1,-1c-1,0,-1,0,-1,-1l-1,0l0,1l-1,0l-1,0l-1,1l-1,0l-10,0c0,1,-1,1,-1,2l0,-1c0,0,0,-1,0,-1l-1,0c-1,0,-1,0,-1,0c-1,-1,-1,-1,-1,-1c0,-1,0,-1,0,-1c-1,1,-1,1,-2,1c0,0,0,1,-1,1l-1,0c0,0,-1,0,-1,-1c-1,0,-1,0,-1,0c0,0,0,1,-1,1c0,0,-1,0,-2,0c0,0,-1,-1,-1,-1l0,1l-1,0c0,1,0,1,-1,2c0,0,-1,0,-2,0c-1,0,-2,1,-4,1l5,-2l1,-1c1,0,1,-1,2,-1l0,-2c1,0,1,-1,1,-1l1,-1c1,0,1,1,1,1c1,1,1,1,2,2c1,0,1,0,1,0l1,0l1,0c0,0,1,0,1,-1c0,0,0,-1,1,-1c0,0,0,1,0,1c0,0,0,1,1,1l1,0l1,0c0,0,1,0,1,0c0,-1,0,-1,0,-2l1,-1l0,-1l0,-1l-1,-1l0,-2l0,-2c0,-1,0,-1,0,-1l0,-1l1,2c0,0,0,1,0,2l0,1l0,1l0,1l0,1l0,1l0,1l0,1l2,-1l0,-1l1,-1c1,0,1,0,1,0l1,0c1,0,1,0,2,0c0,0,0,1,1,1l0,1l0,1c0,0,-1,0,-1,0l0,1l-1,0l2,0l1,0c1,0,1,0,1,0l1,0l1,-1c-1,-1,-1,-1,-1,-1c-1,0,-1,0,-1,0l1,-2c0,0,1,0,1,0c0,0,1,0,1,0c0,0,1,0,1,0l1,0c0,1,0,1,0,1c1,0,1,0,1,0c0,0,-1,1,-1,1c0,0,0,1,0,1l-1,0c0,0,1,0,1,0c0,1,0,1,0,1l1,0l1,0ZM97.5,152.5c1,0,1,0,1,-1c1,0,1,0,2,0c0,0,1,0,1,0c0,1,1,1,1,1c-1,1,-1,1,-1,1c0,1,0,1,-1,1c-1,0,-1,0,-1,0l-1,0l1,0c1,-1,1,-1,2,-1c0,0,-1,0,-1,0c0,-1,0,-1,-1,-1c0,0,-1,1,-1,1l-1,0c0,0,0,-1,0,-1ZM124.5,147.5c1,0,1,-1,1,-1c1,0,1,0,2,0c0,0,1,0,1,0c0,1,1,1,1,1c-1,1,-1,1,-1,1c0,0,0,1,-1,1c-1,0,-1,0,-1,0l-1,0l1,0c1,-1,1,-1,2,-1c0,0,-1,-1,-1,-1l-1,0c0,0,-1,0,-1,1l-1,0c0,-1,0,-1,0,-1ZM119.5,152.5l4,-2l0,1l-4,2ZM110.5,157.5l-1,-1l1,-1l1,1ZM114.5,162.5c0,-1,-1,-1,-1,-1l-1,0l-1,0c0,0,-1,0,-1,0l-1,1l-1,0l-1,1l1,0c0,0,1,0,1,0c1,0,1,0,1,0l1,0c1,-1,2,-1,3,-1ZM109.5,168.5l-4,2c0,-1,0,-1,0,-1l4,-2ZM103.5,168.5l-2,-1l-1,1l-1,-1l1,-1l1,1l1,-1l2,0ZM95.5,163.5l-1,-1l-1,0l0,1l1,0ZM92.5,152.5l0,-1c0,0,1,0,1,0c1,0,1,1,1,1c0,0,0,1,0,1c-1,0,-1,1,-1,1l1,0l0,1l-1,0l-1,0l0,1c-1,0,-1,0,-1,0l0,1l-1,0c-1,0,-1,0,-1,0l1,-1l1,0c0,0,0,-1,0,-1l1,0l0,-1c-1,0,-1,0,-1,-1l1,-1ZM93.5,152.5l-1,0c0,1,0,1,0,1l1,0ZM170.5,165.5l0,-1l0,-2l-1,-8l1,-2l1,10c0,0,0,1,0,1l0,1c-1,0,-1,0,-1,1ZM162.5,163.5c1,0,1,0,1,0c0,0,1,0,1,0c0,0,1,0,1,-1l0,-2l-1,-7c0,-1,0,-1,0,-1c0,-1,1,-1,1,-1l0,1c0,0,1,0,1,1l0,1l-1,0c0,1,0,1,0,2c0,0,1,1,1,3c0,0,0,1,0,1l0,1c0,0,0,1,0,1c0,1,-1,1,-1,1l0,1c0,0,-1,0,-1,0c0,0,0,1,-1,1l-1,0c-1,0,-1,0,-1,0c-1,-1,-1,-1,-1,-1c-1,0,-1,0,-1,-1l-1,0l-1,1l-1,0l-1,1l-1,0c-1,0,-1,0,-1,-1c-1,0,-1,-1,-1,-2l-1,1c0,0,0,1,0,1l-1,0l0,1c0,0,-1,0,-1,0l1,0l1,0c0,0,1,0,1,1l0,1c0,0,-1,0,-1,1c0,0,-1,1,-1,1c-1,1,-2,1,-2,1c-1,0,-2,1,-3,1c-1,0,-2,0,-2,-1c-1,0,-2,0,-2,-1l-1,-1c0,0,0,-1,0,-1c0,-1,0,-2,0,-2c1,-1,1,-2,1,-2c0,0,1,0,1,0c0,0,-1,1,-1,2l0,1c0,1,0,2,1,2c1,0,2,1,3,1c1,0,1,0,2,0c0,0,0,-1,1,-1c0,0,1,0,2,0c0,-1,0,-1,1,-1c-1,0,-1,-1,-2,-1c-1,0,-1,0,-1,0c0,0,0,-1,0,-1c0,0,0,-1,0,-1c1,0,1,-1,1,-1c1,0,1,0,1,0c1,0,1,0,1,0c0,-1,0,-1,0,-1l0,-1l0,-1l0,-7l1,-2l0,10c0,1,0,1,0,1c0,0,1,0,1,1c0,0,1,0,1,0c1,0,1,0,1,0l1,0l1,-1c-1,-1,-1,-1,-1,-1c-1,0,-1,0,-1,0l1,-2c0,0,1,0,1,0c0,0,1,0,1,0c0,0,1,0,1,0l1,0c0,1,0,1,0,1c0,0,0,1,0,1c0,0,0,1,0,1l-1,0l1,0c0,1,0,1,0,1l1,0l1,0ZM162.5,147.5c1,0,1,-1,1,-1c1,0,1,0,2,0c0,0,1,0,1,0c0,1,1,1,1,1c-1,1,-1,1,-1,1c0,0,0,1,-1,1l-1,0l-1,0l1,0c1,-1,1,-1,2,-1c0,0,-1,-1,-1,-1c0,0,-1,0,-1,0c0,0,-1,0,-1,1l-1,0c0,-1,0,-1,0,-1ZM157.5,152.5l4,-2l0,1l-4,2ZM154.5,173.5l-4,2c0,-1,0,-1,0,-1l4,-3ZM144.5,153.5l0,1c0,0,1,0,1,0l0,-1l1,0l0,1c0,0,1,0,1,-1l0,-1l0,1l0,1c0,0,0,1,-1,1l-1,0c0,0,-1,1,-1,1c0,0,0,-1,0,-1c0,0,-1,0,-1,0l0,-1l1,0l0,-1ZM145.5,148.5c0,0,1,0,1,-1l1,0c0,0,0,1,0,1l0,1c0,0,0,1,0,1l0,1l-1,0l0,1c-1,0,-1,0,-1,0c-1,0,-1,1,-2,1l0,-1c1,0,2,-1,3,-2l-1,0c0,0,0,-1,0,-1c0,-1,0,-1,0,-1ZM146.5,148.5c0,1,0,1,0,1l1,0l-1,0ZM200.5,161.5c0,1,0,1,0,1c1,0,1,0,1,0l0,-1l-1,0ZM200.5,168.5c0,1,0,1,0,1c0,0,-1,0,-1,0c0,0,-1,0,-2,0c0,0,-1,0,-2,0c0,-1,0,-1,0,-1l1,1c0,0,1,0,1,0c0,0,0,-1,1,-1c0,0,1,0,1,0c0,0,1,-1,1,-1c0,0,1,-1,1,-1l0,-1c1,-1,1,-1,1,-1c0,0,0,-1,0,-1c0,0,-1,0,-1,1l-1,0l-1,0c0,0,0,-1,0,-1c0,0,0,-1,0,-1l0,-1c0,0,0,-1,0,-1c1,-1,1,-1,1,-1c0,0,1,0,1,0l1,0l0,1l0,1c0,0,1,0,1,1l0,1c0,1,0,1,0,1c0,1,-1,2,-1,2c0,1,-1,1,-1,2l-1,0ZM198.5,155.5l4,-2l-1,1l-4,2ZM194.5,164.5l-1,0l-1,0c0,0,-1,0,-1,-1l-1,0c0,0,0,1,0,1c0,0,-1,0,-1,0l-1,0l-1,1l-1,0l-2,0l0,1c0,0,0,1,0,1c-1,0,-1,1,-1,1c0,0,-1,1,-1,1c0,0,-1,0,-1,1l-1,0c0,0,-1,0,-1,0c-1,0,-1,0,-2,0c0,0,-1,-1,-1,-1c0,0,1,0,1,0l1,0c0,0,1,0,1,0c0,0,1,0,1,-1c1,0,1,0,1,0c0,-1,1,-1,1,-1c0,0,0,-1,1,-1l0,-1c-1,0,-1,0,-1,0c-1,0,-1,-1,-1,-1l-1,0c0,-1,0,-1,0,-1c0,-1,0,-1,1,-1l0,-1c0,0,0,-1,1,-1c1,0,1,0,1,0l1,1c0,0,0,1,0,1c0,0,0,1,0,1c1,0,1,0,1,0c1,0,1,0,1,0c0,0,1,0,1,0c1,0,1,0,1,0c0,-1,0,-1,0,-1c0,-1,0,-1,0,-1c0,0,0,-1,0,-1c0,0,1,0,1,0c0,0,0,-1,0,-1c0,-1,0,-1,0,-1l0,-1c1,0,1,0,1,0c1,0,1,0,2,1c1,0,1,1,2,1c0,1,0,1,1,1c0,1,0,1,0,1c0,1,0,1,0,1c0,0,0,1,0,1l0,1l-1,0ZM190.5,160.5c0,0,-1,0,-1,0c0,0,0,1,0,1c1,0,1,1,1,1c0,0,1,-1,1,-1c0,-1,0,-1,0,-1c0,0,-1,0,-1,0ZM192.5,160.5c0,0,0,1,0,1c0,0,0,1,0,1l2,0l0,1c0,0,0,-1,0,-1c0,0,-1,-1,-1,-1l0,-1c-1,0,-1,0,-1,0ZM187.5,145.5l1,0c0,-1,0,-1,0,-1c1,0,1,0,1,0c0,1,0,1,0,1c0,1,0,1,0,1l0,1l0,2l-1,-1l-1,1c0,0,0,1,-1,1l-1,0l0,-1l1,0l1,-1l1,0l-1,-1l0,-1l0,-1ZM188.5,146.5l0,-1c0,0,-1,0,-1,1l1,0l0,1l0,-1ZM182.5,162.5l-1,0l0,1c1,0,1,0,1,0l1,0c0,-1,0,-1,0,-1c-1,0,-1,0,-1,0ZM179.5,155.5l4,-2l-1,1l-4,2ZM215.5,146.5c-1,0,-1,1,-1,1l-1,0l-1,0l-1,0l-1,0c0,0,-1,0,-1,0c0,-1,0,-1,0,-1c0,0,-1,-1,-1,-1c0,-1,1,-1,1,-2c0,0,1,-1,1,-1l-1,0l-1,0c1,-1,1,-1,2,-1l1,0l1,0l0,1c-1,0,-1,0,-2,1c-1,0,-1,0,-1,1l0,1c0,1,0,1,1,1l1,0l1,1ZM212.5,144.5l-1,1c0,-1,0,-1,0,-1l1,0ZM269.5,162.5l-2,0c0,0,-1,0,-2,0l-1,0l-1,1l-1,0c0,0,-1,1,-1,1c0,0,-1,0,-1,0c-1,1,-2,1,-3,1l-1,0l-1,0c-1,0,-2,0,-2,-1c-1,0,-1,0,-1,0c-1,0,-1,0,-2,0c0,1,-1,1,-1,1l-1,0l-1,0l-10,0c0,1,0,1,0,2l-1,-1c0,0,0,-1,1,-1l-1,0l-1,0c0,0,-1,0,-1,0l-1,0c0,0,0,1,1,1c0,0,0,1,0,1c0,1,-1,1,-1,2c0,0,-1,1,-1,1c-1,0,-1,0,-1,-1c-1,0,-1,0,-1,-1c-1,-1,-1,-2,-1,-3l-1,0l-1,0l-1,0c-1,0,-1,-1,-1,-1l0,1l0,1l-1,0c0,1,0,1,0,1c-1,0,-1,0,-1,-1c-1,-1,-1,-1,-1,-2l0,-1c0,1,-1,1,-1,1c-1,1,-1,1,-1,1l-1,0l-1,0c-1,0,-2,-1,-2,-1c-1,0,-1,-1,-1,-2l-1,-8l1,-2l1,9l0,1c1,1,1,1,2,1l1,0l1,0l1,0c0,0,0,-1,1,-1c0,0,0,-1,0,-1l1,0c0,0,0,1,1,1c1,1,1,1,2,1l1,0l1,0l1,0c0,-1,1,-1,1,-2c0,-1,0,-1,0,-1c0,0,1,0,1,0c0,-2,1,-2,2,-2l0,1l0,1c0,1,0,1,0,2c0,0,-1,1,-2,1l1,0l1,0l1,0l1,0l1,0c1,0,1,0,2,0c0,-1,0,-1,0,-2l0,-1l0,-1l0,-1l0,-1l0,-2l-1,-2c0,-1,0,-1,1,-1l0,-1l1,2c0,0,-1,1,-1,2l1,0l0,1l0,1l0,1l0,1l0,1l0,1l0,1l1,-1l1,-1l1,-1c0,0,1,0,1,0l1,0c0,0,1,0,1,0c1,0,1,1,1,1l0,1l0,1l-1,1l1,0l2,0c1,0,1,0,1,0l1,0c0,0,0,-1,0,-1l0,-1l0,-1c0,-1,1,-1,1,-1c0,0,0,-1,0,-1c1,0,2,-1,2,-1c1,0,1,1,1,1c0,0,0,1,1,2c0,1,-1,1,-1,1c0,0,0,1,0,1c0,0,0,1,0,1l1,0l1,0l1,0c1,0,1,0,1,0c1,0,1,0,2,0c0,0,1,-1,1,-1l2,0l0,-1l-1,0l-1,0l0,-1l-1,0l-1,0l-1,0l0,1c0,-1,0,-1,1,-2c1,0,1,-1,1,-1c1,0,1,0,1,1l1,0l2,1l1,0c0,0,1,0,1,0c0,0,1,0,1,1c1,0,1,0,1,0l2,0ZM262.5,168.5l-5,2c1,-1,1,-1,1,-1l4,-2ZM252.5,157.5l-1,-1l1,-2l1,1ZM253.5,159.5c-1,0,-1,0,-2,1l0,1c0,0,1,1,1,1c1,0,1,0,1,-1c0,0,1,0,1,0c0,-1,0,-1,-1,-1c0,0,0,-1,0,-1ZM291.5,150.5c0,0,1,-1,1,-1c0,0,1,0,1,0c1,0,1,0,2,0c0,1,0,1,0,1c0,1,0,1,0,1c-1,1,-1,1,-1,1c0,0,-1,0,-1,0l-1,0l-1,0l2,0c1,-1,1,-1,2,-1c-1,0,-1,0,-1,-1c-1,0,-1,0,-1,0c0,0,-1,0,-1,1c-1,0,-1,0,-1,0c0,-1,0,-1,0,-1ZM248.5,147.5c0,0,0,-1,1,-1c0,0,1,0,1,0c1,0,1,0,1,0c1,1,1,1,1,1c0,1,0,1,-1,1c0,0,0,1,0,1c0,0,-1,0,-1,0c0,0,-1,0,-1,0l-1,0l2,0c0,-1,1,-1,1,-1c0,0,0,-1,-1,-1c-1,0,-1,0,-2,1c0,-1,0,-1,0,-1ZM242.5,157.5l-1,-1l0,-1l2,1ZM245.5,162.5c0,-1,0,-1,0,-1c0,0,-1,0,-1,0l-1,0c-1,0,-1,0,-2,0l-1,1l-2,1l1,0c1,0,1,0,2,0c1,0,1,0,1,0c1,-1,2,-1,3,-1ZM242.5,149.5c0,0,1,-1,1,-1l1,0c0,0,1,0,1,1l-1,0l0,1l0,1l1,0l0,1l-2,-1l0,1c-1,1,-1,1,-1,1l-1,0l-1,0l1,0l1,-1l1,-1l-1,0c0,-1,0,-1,0,-1c0,-1,0,-1,0,-1ZM244.5,149.5l-1,0l0,1l1,0l0,-1ZM232.5,160.5c-1,0,-1,0,-1,1l-1,0l0,2c1,-1,2,-1,2,-1c1,-1,1,-1,1,-1c0,-1,0,-1,-1,-1ZM230.5,165.5c0,0,0,1,0,1c0,1,0,1,1,1l0,1c0,0,1,0,1,0c0,0,1,0,1,0c0,0,0,-1,0,-1c0,0,0,-1,-1,-1c-1,-1,-1,-1,-2,-1ZM231.5,149.5c1,0,1,-1,1,-1c0,0,1,0,1,0c0,0,1,0,1,1l-1,1l1,1l0,1l-1,-1l-1,1c-1,1,-1,1,-1,1l-1,0l-1,0l1,0l1,-1l1,-1l-1,0c0,-1,0,-1,0,-1c0,-1,0,-1,0,-1ZM233.5,149.5l-1,0l0,1l1,0l0,-1ZM220.5,155.5l4,-2l0,1l-4,2ZM306.5,168.5l-1,-1l-1,1l-1,-1l1,-1l1,1l1,-1l1,0ZM304.5,165.5l-1,0l-1,0l-4,0l-1,0l-1,0l-1,1c0,0,0,1,0,1c0,0,0,1,-1,1c0,0,0,1,-1,1l0,1c-1,0,-1,0,-1,0c0,0,-1,0,-1,0l-1,0c0,0,-1,0,-2,0c0,0,0,-1,0,-1l1,0c1,0,1,0,1,0c1,0,1,0,2,-1l1,0c0,-1,0,-1,0,-1c1,0,1,-1,1,-1l0,-1c0,0,1,0,1,0c-1,0,-1,0,-1,0c-1,0,-1,0,-1,0c0,0,0,-1,0,-1c-1,0,-1,0,-1,0c0,-1,0,-1,0,-1c0,-1,0,-1,0,-1l0,-1c0,0,1,0,1,0c0,0,0,-1,0,-1c1,0,1,0,1,0l1,0l0,1c0,0,1,1,1,1c0,0,0,1,0,1c0,0,1,0,1,0c1,0,1,0,1,0l4,0l1,0l1,0l1,0c1,0,1,0,1,-1c0,0,0,-1,0,-1c0,0,0,-1,-1,-1l1,-2c0,1,0,1,0,1c0,0,1,0,1,0c0,0,0,1,0,1l0,1c0,1,0,1,0,1l0,1c0,0,-1,0,-1,1l-1,0c-1,1,-1,1,-1,1ZM303.5,152.5l5,-2l-1,0l0,1l-4,2ZM298.5,158.5c0,0,1,-1,1,-1l1,0c0,0,1,0,1,0l0,1l-1,0c-1,0,-1,0,-1,0l0,1l1,0l1,0l1,0c0,0,0,1,0,1l-1,0l-3,1l0,-1c0,0,1,0,1,0c-1,0,-1,-1,-1,-1l0,-1ZM300.5,145.5c0,0,1,0,1,0c0,-1,0,-1,1,-1c0,1,0,1,0,1c0,1,0,1,0,1l0,1l1,0l-1,2l-1,-1l-1,1c0,0,0,1,0,1l-1,0l-1,0l1,-1c0,0,1,0,1,-1l1,0l-1,-1l0,-1l0,-1ZM301.5,146.5l0,-1l0,1l0,1l0,-1ZM294.5,162.5c-1,0,-1,0,-1,0l0,1c1,0,1,0,1,0c1,0,1,0,1,0c-1,-1,-1,-1,-1,-1ZM288.5,163.5l-1,1l-1,0c0,0,-1,1,-2,1l-1,0l-1,0c-1,0,-1,0,-1,-1c0,0,0,-1,0,-1l1,0l1,0c0,0,1,0,1,0c1,0,1,0,1,0c1,-1,1,-1,1,-1c1,0,1,0,1,0c0,-1,0,-1,0,-1c0,-1,-1,-1,-1,-1l0,-1l-1,0l-1,-1l-1,0l1,-2l1,0l0,1c1,0,1,0,1,0c0,0,0,1,0,1c1,0,1,0,1,1c0,0,1,1,1,1c0,1,0,1,0,1l0,1l0,1ZM285.5,149.5c0,0,1,-1,1,-1l1,0c0,0,1,0,1,1c0,0,-1,0,-1,0l0,1l0,1l1,0l0,1l-2,-1l0,1c-1,1,-1,1,-1,1l-1,0l-1,0l1,0l0,-1c1,0,1,0,1,0l1,-1l-1,0c0,-1,0,-1,0,-1c0,-1,0,-1,0,-1ZM286.5,149.5l0,1l1,0l0,-1l-1,0ZM276.5,165.5c0,0,-1,0,-1,-1c0,0,-1,-1,-1,-1c0,-1,0,-1,0,-2l1,0l0,-1l1,-1c0,-1,0,-1,1,-1c0,0,1,0,1,0c1,1,1,1,1,2l0,1l0,1c0,1,0,2,-1,3c-1,0,-1,0,-2,0ZM276.5,160.5l-1,0c0,1,0,1,0,1c0,0,0,1,0,1c0,1,1,1,1,1l1,0l1,0c0,-1,0,-1,0,-1c0,0,0,-1,0,-1c-1,0,-1,-1,-2,-1ZM276.5,155.5l0,-1l-1,0l0,-1c0,0,0,-1,0,-2l0,-1c0,0,1,0,1,0l0,-1c1,0,1,0,1,0l0,1l-1,1l0,1c0,1,0,1,0,1c0,1,0,1,0,1c1,-1,1,-1,1,-1l0,1l1,0c0,1,0,1,0,1c-1,0,-1,0,-1,0c-1,0,-1,0,-1,0ZM330.5,161.5c0,1,0,1,1,1l0,-1l-1,0ZM331.5,168.5c-1,1,-1,1,-1,1c0,0,-1,0,-1,0c0,0,-1,0,-1,0l-1,0c0,0,-1,0,-1,0c-1,0,-1,0,-1,0c0,-1,0,-1,0,-1l1,1c1,0,1,0,1,0c0,0,1,-1,1,-1c1,0,1,0,1,0c0,0,1,-1,1,-1c0,0,1,-1,1,-1l0,-1c1,-1,1,-1,1,-1c0,0,0,-1,0,-1l-1,1l-1,0c-1,0,-1,-1,-1,-1c0,0,0,-1,0,-1l0,-1c0,0,0,-1,1,-1c0,-1,0,-1,0,-1c0,0,1,0,1,0l1,0l0,1l1,1l0,1l0,1c0,1,0,1,0,1c0,1,-1,2,-1,2c0,1,0,1,-1,2ZM328.5,155.5l4,-2l0,1c0,0,-1,0,-1,0l-4,2ZM323.5,163.5l-1,1l1,0l0,-1ZM324.5,166.5c-1,0,-1,0,-2,0c-1,0,-1,0,-2,0c-1,0,-1,0,-1,0l-1,0l0,-1c0,0,1,0,1,-1c0,0,1,0,1,0l1,0l0,-1c0,0,1,0,1,0c0,0,0,-1,0,-1l-1,-1l0,-1c-1,0,-1,-1,-1,-1c-1,0,-1,-1,-2,-2l-1,0c0,-1,0,-1,0,-1c0,0,-1,0,-1,0l-1,0l0,-1l-1,-1c0,-1,0,-1,1,-1l0,-1l0,1c0,0,1,0,1,1c1,0,1,0,2,1c1,1,1,1,2,2c0,0,1,1,1,2c1,0,1,1,1,1c0,1,1,1,1,1c0,0,0,-1,0,-1c0,-1,0,-1,0,-2c0,-1,1,-1,1,-2c0,0,-1,0,-1,-1c0,-1,0,-1,0,-2c0,-1,0,-1,0,-1c1,-1,1,-1,1,-1c0,1,0,1,0,1l1,0l0,1l0,1c0,0,0,1,0,1c-1,0,-1,1,-1,1c0,1,0,1,0,2l0,1c0,0,0,1,0,2c0,0,-1,1,-1,1c1,1,1,1,1,1l0,1c0,1,0,1,0,1c0,0,0,1,0,1ZM320.5,149.5l6,-3c-1,1,-1,1,-1,1l-5,3ZM346.5,140.5l0,1c-1,0,-1,0,-2,0c0,0,-1,1,-1,1c-1,0,-1,0,-1,0l0,-1c-1,0,-1,0,-1,0c0,0,-1,0,-1,0c-1,0,-1,0,-1,0c0,0,0,-1,0,-1l0,1c-1,0,-1,0,-1,0l-1,1l1,0c1,0,1,0,1,0l1,0l1,0c0,0,1,0,2,0c0,0,1,0,1,0l3,0l-1,0c0,0,-1,1,-1,1l-1,0c0,0,-1,0,-1,0l-1,0l-1,0l-2,0l-2,0c-1,0,-1,0,-1,-1l2,-1l0,-1c0,0,1,-1,1,-1l0,-2l0,-1l0,4c1,1,1,1,1,1c1,0,1,-1,1,-1c0,0,0,1,1,1c0,-1,1,-1,2,-1c0,-1,1,-1,1,-1c0,0,1,0,1,0l0,1ZM345.5,140.5c-1,0,-1,0,-2,0c0,0,0,1,0,1l1,0c1,0,1,-1,1,-1ZM395.5,161.5c0,1,0,1,0,1c1,0,1,0,1,0l0,-1l-1,0ZM395.5,168.5c0,1,0,1,0,1c0,0,-1,0,-1,0c0,0,-1,0,-2,0c0,0,-1,0,-2,0c0,-1,0,-1,0,-1l1,1c0,0,1,0,1,0c0,0,0,-1,1,-1c0,0,1,0,1,0c0,0,1,-1,1,-1c0,0,1,-1,1,-1l0,-1c1,-1,1,-1,1,-1c0,0,0,-1,0,-1c0,0,-1,0,-1,1l-1,0l-1,0c0,0,0,-1,0,-1c0,0,0,-1,0,-1l0,-1c0,0,0,-1,0,-1c1,-1,1,-1,1,-1c0,0,1,0,1,0l1,0l0,1l0,1c0,0,1,0,1,1l0,1c0,1,0,1,0,1c0,1,-1,2,-1,2c0,1,-1,1,-1,2l-1,0ZM393.5,155.5l4,-2l-1,1l-4,2ZM389.5,165.5l0,-1l0,-2l-1,-8l1,-2l1,10c0,0,0,1,-1,1l0,1l0,1ZM373.5,146.5l4,-2l0,1l-4,2ZM383.5,147.5c0,0,1,-1,1,-1c0,0,1,0,1,0c0,0,1,0,1,0c0,1,1,1,1,1l-1,0c0,0,0,1,0,1l-1,0l0,1c-1,0,-1,0,-1,0c-1,0,-1,0,-1,0l2,-1c0,0,1,0,1,-1c-1,0,-1,0,-1,0c-1,0,-1,0,-1,0c-1,0,-1,0,-1,1l0,-1ZM363.5,168.5l1,0l1,0c1,0,2,0,3,-1c0,0,1,0,1,-1c0,0,1,-1,1,-1c0,-1,1,-1,1,-1c0,-1,0,-1,0,-1c0,0,0,-1,0,-1l-1,0l0,-1l0,-1l0,-1l1,1l0,1l0,1l0,1c0,0,0,1,0,1c0,0,0,1,0,1l0,1c0,0,-1,1,-1,1l-1,1l-1,0l0,1l-1,0l-1,0c-1,0,-1,0,-1,0c-1,-1,-1,-1,-1,-1ZM365.5,154.5c1,0,1,0,1,-1c1,0,1,0,2,0c0,0,1,0,1,1c0,0,1,0,1,0c-1,1,-1,1,-1,1c0,1,0,1,-1,1c-1,0,-1,0,-1,0l-1,0l1,0c1,-1,1,-1,2,-1c0,0,-1,0,-1,0c0,0,0,-1,-1,-1c0,0,-1,1,-1,1l-1,0c0,0,0,-1,0,-1ZM356.5,158.5l-1,-1l1,-2l1,1ZM354.5,165.5l0,1c0,0,0,1,0,1c0,0,-1,0,-1,0l0,-1l0,-1l-1,0l0,1c0,0,0,1,0,1c0,0,0,1,0,1c-1,1,-1,1,-1,1c0,1,-1,1,-1,1c0,1,-1,1,-1,1c0,0,-1,0,-1,1c-1,0,-1,0,-1,0c0,0,-1,0,-1,0c-1,0,-1,0,-2,-1c-1,0,-1,0,-1,0c-1,-1,-1,-1,-1,-2c-1,0,-1,-1,-1,-1c0,-1,0,-1,0,-1c0,-1,0,-1,0,-1c1,0,1,0,1,0l0,-1c0,0,0,-1,1,-1c0,1,0,1,-1,2l0,1c0,0,0,1,1,1c0,1,0,1,1,1c0,0,0,1,1,1c1,0,1,0,1,0c1,0,1,0,2,0c0,0,1,-1,2,-1c0,0,1,-1,1,-1c0,-1,0,-1,0,-2c0,0,0,-1,0,-1c0,-1,0,-1,0,-1l0,-2l1,0c0,1,0,1,1,1l1,0l1,-1l2,-1l0,-1l1,0l1,0c0,-1,1,-1,1,-1c1,0,1,0,1,0c1,0,1,0,1,0c0,0,1,0,1,0c0,0,0,1,0,1c1,0,1,0,1,0c0,1,0,1,0,1c0,1,0,1,-1,2c-1,1,-1,1,-2,1l-1,0c0,1,-1,1,-1,1l-2,0l-1,0ZM359.5,161.5c0,0,-1,0,-1,0l0,1l-1,0l-1,0l-1,1l3,0c0,0,1,0,1,0c1,0,1,0,2,0c1,0,1,-1,2,-1c0,0,-1,0,-1,-1c-1,0,-1,0,-1,0c-1,0,-1,0,-1,0c-1,0,-1,0,-1,0ZM344.5,155.5l5,-2l-1,1l-4,2ZM343.5,153.5l-1,0l-1,0l-1,0l-1,0c0,0,-1,0,-1,0c-1,0,-1,-1,-1,-1c0,0,0,-1,0,-1c0,0,0,-1,0,-2c0,0,1,-1,2,-1l-1,0c-1,0,-1,0,-1,0c0,0,0,-1,1,-1l1,0l1,0l1,0l0,1l-1,0c0,0,-1,0,-1,1c-1,0,-1,0,-1,0c0,0,0,1,-1,1c0,0,0,1,0,1l0,1c1,0,1,0,1,0l1,1l1,0ZM340.5,150.5l0,1l-1,0c0,0,0,-1,0,-1l1,0ZM121.5,118.5l0,-1l0,-1l-1,-9l1,-2l1,11c-1,0,-1,1,-1,1c0,0,0,1,0,1ZM113.5,116.5c0,0,1,0,1,0l1,0c0,0,1,-1,1,-1l-1,-2l0,-6c0,0,0,-1,0,-1c0,0,0,-1,0,-1c0,0,0,-1,1,-1l0,1c0,0,0,1,1,1l-1,1l0,1l0,-1c0,0,0,1,0,1c0,0,0,1,0,2l0,2c0,1,0,1,0,1l0,2c0,0,0,1,0,1c0,1,0,1,0,1c0,0,-1,0,-1,0c0,0,0,1,0,1c0,0,-1,0,-1,0c0,0,-1,0,-1,0l-1,0l-1,0l0,-1c0,-1,-1,-1,-1,-1c0,1,0,1,-1,1c0,0,0,1,-1,1c0,0,-1,-1,-1,-2l-1,1c0,1,-1,1,-1,1l-1,0c0,0,-1,-1,-1,-2c0,1,0,1,-1,1c0,1,-1,1,-2,1l-1,0c-1,0,-1,0,-2,-1c0,1,-1,1,-1,1c-1,0,-1,0,-2,0l-1,0l-1,-1l-1,1c0,0,-1,0,-1,0l-1,0l-1,0l-1,0c0,0,0,1,0,1c0,0,0,1,-1,1c0,1,0,1,0,1c0,1,-1,1,-1,1c0,1,-1,1,-1,1l-1,0c-1,0,-1,0,-1,0c-1,0,-1,0,-2,0c0,0,-1,0,-1,0c0,0,0,-1,0,-1c0,0,1,0,1,0c0,0,0,1,1,1c0,0,1,-1,1,-1c0,0,1,0,1,0c1,-1,1,-1,1,-1c0,0,1,0,1,-1l1,-1c0,0,0,-1,0,-1c-1,0,-1,0,-1,0c-1,0,-1,0,-1,0c0,-1,0,-1,-1,-1c0,-1,0,-1,0,-1c0,-1,1,-1,1,-1c0,0,0,-1,0,-1c1,-1,1,-1,1,-1c1,0,1,0,1,0c0,0,0,1,1,1l0,1c0,1,0,1,0,1c1,0,1,0,1,0l1,0l1,0c0,0,1,0,1,0l1,0c0,0,0,-1,0,-1c1,-2,2,-2,3,-2l1,1l0,1l1,0l0,1c1,0,1,0,1,0l1,0l1,0l1,0l1,0c0,0,1,-1,1,-2l1,0l0,1c0,1,0,1,1,1c0,0,1,0,1,0c0,0,1,-1,1,-1l0,-1c0,1,1,1,1,1c0,1,0,1,1,1c1,-1,1,-1,1,-1l0,-1l1,0c0,2,1,2,1,2l1,0ZM105.5,108.5l0,1c1,0,1,0,1,0l1,-1l0,-1l0,1l1,1c0,0,0,-1,0,-1l0,-1l1,0c0,1,0,1,0,1l-1,0l0,1l0,1l-1,0l0,-1l0,1l-1,0c-1,0,-1,0,-1,0l0,-1l0,-1ZM109.5,105.5l-5,3c0,-1,0,-1,1,-1l5,-3ZM96.5,116.5l-1,-1l0,-1c-1,0,-1,0,-1,0l0,1l-1,0c0,0,1,1,1,1l1,0ZM85.5,115.5c0,0,-1,0,-1,0c0,0,0,1,0,1c1,0,1,0,1,0l1,0l0,-1l-1,0ZM84.5,107.5c0,-1,0,-1,0,-2c0,0,0,-1,0,-1l0,-1c0,0,1,0,1,1l0,1c0,1,0,1,0,1l0,1l-1,0ZM70.5,111.5l0,2l-2,-2l-1,2l-1,-1l1,-2l1,1l1,-1ZM76.5,116.5c0,0,-1,1,-2,1c0,0,-1,1,-3,1c-1,0,-2,1,-3,1c-2,0,-3,-1,-4,-1c-1,0,-2,0,-2,-1c-1,0,-1,0,-1,-1c0,-1,0,-1,0,-1l0,-1l0,-1c0,0,1,-1,1,-1c0,0,0,1,0,1c0,0,0,1,0,1c0,0,0,1,0,1c0,0,1,1,2,1l1,0l1,1l3,0c0,0,1,0,1,0c1,-1,1,-1,1,-1c1,0,1,0,1,0l1,0c1,0,2,-1,2,-1c1,0,1,0,1,-1l0,-1l-1,0c0,-1,1,-1,1,-1c0,-1,0,-1,0,-1c0,0,1,0,1,1c0,0,0,1,0,1l0,1l0,1c0,0,0,1,-1,1ZM66.5,121.5l-4,2c0,0,1,-1,1,-1l4,-2ZM93.5,110.5l0,-1c0,0,0,-1,0,-1c0,-1,-1,-1,-1,-2l1,0l0,-1c0,0,0,1,0,1c0,1,0,1,0,1l0,1c0,0,0,1,0,1c0,0,0,1,0,1ZM170.5,105.5c0,0,-1,1,-2,1c-1,1,-3,1,-4,1c-1,1,-2,1,-2,2c-1,0,-1,0,-1,0c0,0,0,1,0,1l1,0l1,1c1,0,1,1,2,2c0,0,1,0,1,1c0,0,0,1,0,1c0,1,0,1,0,2c0,0,-1,0,-1,0c0,0,0,1,-1,1l-1,0l-1,0l-1,0l0,1c0,1,-1,2,-1,2c0,0,0,1,-1,1l0,1c-1,0,-1,0,-1,0c-1,1,-1,1,-1,1c-1,0,-1,0,-1,0l-1,0c0,0,-1,0,-1,-1c-1,0,-1,0,-1,0l1,0c1,0,1,0,2,0c0,0,1,-1,1,-1c0,0,1,0,1,-1l1,0c0,-1,0,-1,0,-1c0,-1,1,-1,1,-2c0,-1,0,-1,-1,-1l0,-1l1,-1c0,1,0,1,0,1l1,0l1,0l1,0l1,0l1,0c0,0,0,-1,0,-1l0,-1c0,0,-1,-1,-2,-1c0,-1,0,-1,0,-1c0,0,-1,0,-1,0c0,0,-1,0,-1,0c0,-1,0,-1,0,-1l-1,0l0,-1l0,-1l1,0c0,0,0,-1,0,-1c0,0,0,-1,1,-1c0,0,1,0,3,-1c1,-1,2,-1,4,-2c0,0,1,0,2,0ZM165.5,99.5c0,0,0,-1,0,-1c1,0,1,0,1,0c1,0,1,0,1,0l0,1l0,1l0,1l0,1l-1,-1l0,1l-1,0c0,1,-1,1,-1,1l-1,0l1,-1l1,0l0,-1c0,-1,0,-1,0,-1c0,-1,0,-1,0,-1ZM166.5,99.5c-1,0,-1,0,-1,0l1,1l0,-1ZM155.5,107.5c1,0,1,0,1,0c1,0,1,0,2,0c0,0,1,0,1,0c0,0,1,0,1,1l-1,0c0,0,0,1,0,1c0,0,-1,0,-1,0l0,1l-1,0l-1,0l-1,0l2,-1c1,0,1,0,2,-1c-1,0,-1,0,-1,0c0,0,-1,0,-1,0c0,0,-1,0,-1,0c0,0,-1,0,-1,0c0,0,0,-1,0,-1ZM145.5,117.5c0,0,-1,1,-1,1c0,0,-1,0,-1,0l-1,0l-1,0c-1,0,-1,0,-1,0l0,-1l-1,0c-1,0,-1,0,-1,0c0,1,-1,1,-1,1l-1,0c-1,0,-1,0,-2,0l-1,-1c0,-1,0,-1,0,-1l0,-1l-1,1l-1,0l0,1l-1,0c0,0,-1,0,-1,-1l-1,0l0,-1c1,0,1,-1,2,-1c0,-1,0,-1,1,-2c1,0,1,0,1,0l0,-1l0,-1l1,0l0,1c0,0,0,1,0,1c0,0,0,1,0,1l1,2c0,0,0,1,0,1c0,0,1,0,1,0l1,0c0,0,1,0,1,0c0,0,1,0,1,0c0,0,1,0,1,0c0,-1,0,-1,0,-1l1,0c0,1,0,1,0,1c1,0,1,0,1,0l1,0l1,0c0,0,1,0,1,0c0,0,1,0,1,0c0,0,0,-1,1,-1l0,1c1,0,1,0,1,0c1,0,1,0,1,0c1,0,1,0,1,0c0,0,1,-1,1,-1l0,-1l0,1l0,1c1,0,1,0,1,0l1,0l1,0c0,0,-1,0,-1,0l0,-1l0,-1c1,0,1,0,1,0l0,1l0,1c0,0,0,1,0,1c0,0,0,1,0,1c0,0,-1,0,-1,0c0,0,-1,0,-1,0c0,0,-1,0,-1,0l0,-1l-1,0l0,1l-1,0c-1,0,-1,0,-1,0l-1,0l0,-1c0,0,-1,0,-1,0ZM152.5,121.5l-4,2c0,0,0,-1,0,-1l4,-2ZM140.5,121.5l-1,-1l-1,2l-1,-1l0,-2l2,1l1,-1l1,1ZM138.5,107.5l0,1c1,0,1,0,1,-1l0,-1l0,1l1,0l0,-1l1,0l0,-1l0,1l0,1l0,1c0,0,-1,0,-1,0c0,0,-1,0,-1,0l0,1c-1,0,-1,0,-1,0l-1,0c0,0,0,-1,0,-1l0,-1ZM139.5,102.5c0,-1,0,-1,1,-1c0,-1,0,-1,0,-1l1,0c0,1,0,1,0,1c0,1,0,1,0,1l0,1l0,1l-1,0l-1,1c0,0,0,1,-1,1l-1,0c1,-1,2,-1,3,-2l-1,0l0,-1l0,-1ZM140.5,102.5c0,0,-1,0,-1,0l1,0l0,1l0,-1ZM132.5,113.5l-1,0l0,1c-1,0,-1,0,-1,1l1,0l1,0c0,0,0,-1,0,-1l1,0ZM130.5,102.5l0,-1c0,0,1,0,1,0c1,0,1,1,1,1c0,0,0,1,0,1l-1,0c0,1,0,1,0,1l1,0l0,1l-1,0l-1,0l0,1c-1,0,-1,0,-1,0l0,1l-1,0l-1,0l1,-1l1,0l0,-1l1,0l0,-1c-1,0,-1,0,-1,-1l1,-1ZM131.5,103.5l0,-1l-1,0l0,1l1,0ZM202.5,114.5c0,0,-1,0,-1,0c0,0,0,1,0,1c0,0,1,0,1,0c0,0,0,-1,0,-1ZM202.5,122.5c0,0,-1,0,-1,0c0,0,0,1,0,1c-1,0,-2,0,-2,0l-1,0l-1,-1c0,0,-1,0,-1,0c0,0,1,0,1,0l1,0c1,0,1,0,1,0c1,-1,1,-1,1,-1c1,0,1,0,1,-1c1,0,1,0,1,0c0,-1,0,-1,1,-2c0,0,0,-1,0,-1c-1,0,-1,0,-1,0c0,0,-1,0,-1,0l-1,0c0,0,0,-1,0,-1c0,0,0,-1,0,-1c0,-1,1,-1,1,-2l0,-1c1,0,1,0,1,0c0,0,1,0,1,0c0,0,0,1,0,1c1,0,1,1,1,1c0,0,0,1,0,1c0,0,0,1,0,1c0,1,0,1,0,1c0,1,0,2,-1,3c0,0,0,1,0,1c-1,0,-1,1,-1,1ZM199.5,108.5l4,-2l0,1l-4,2ZM188.5,117.5c-1,0,-1,1,-1,1c-1,0,-1,0,-1,0l-1,0l-1,0c0,0,-1,0,-1,0c0,0,-1,0,-1,0c0,-1,-1,-1,-1,-1c0,0,0,-1,-1,-1c-1,0,-1,1,-2,1c-1,0,-1,1,-1,1c0,0,-1,1,-1,2c0,0,0,1,0,1c0,1,0,1,0,1c0,1,0,1,0,1c0,1,0,2,1,2l1,0l0,1c0,0,1,0,1,0l1,0l1,1l1,0c1,0,1,0,1,0c1,0,1,0,2,0l1,0l1,-1l0,1l-3,1c-1,0,-1,0,-2,0c-1,0,-1,0,-2,0l-1,0c-1,0,-1,0,-2,-1c0,0,-1,0,-1,0c0,-1,-1,-2,-1,-2c0,-1,0,-1,0,-1c0,0,0,-1,0,-1c-1,0,-1,0,-1,-1c0,0,1,-1,1,-2l0,-1l1,0c0,-1,0,-1,0,-2c1,0,1,0,1,-1c0,0,1,0,1,0l1,-1l-1,0c0,-1,0,-1,-1,-1l1,-2c0,0,1,0,1,0l1,0c0,0,1,0,1,0l1,0c0,0,0,1,0,1c0,1,0,1,0,1l0,1l-1,0c0,0,1,1,1,1l1,0c1,0,1,0,1,0l2,0c0,0,1,0,1,0c0,0,1,0,1,0c0,0,0,-1,1,-1l0,1c0,0,1,0,1,0c1,0,1,0,1,0c0,0,1,0,1,0c0,0,0,-1,1,-1l0,-1l0,1l0,1l1,0l1,0l0,-1l0,-1c0,0,1,0,1,0l0,1l0,1c0,0,0,1,0,1c0,0,0,1,0,1c-1,0,-1,0,-1,0c-1,0,-1,0,-1,0c0,0,-1,0,-1,0l0,-1l-1,0l0,1c0,0,-1,0,-1,0c-1,0,-1,0,-1,0l-1,0l0,-1c-1,0,-1,0,-1,0ZM195.5,121.5l-4,2c0,0,0,-1,0,-1l4,-2ZM178.5,105.5l4,-2l0,1l-5,2ZM216.5,100.5c0,0,-1,0,-1,0l-1,1l-1,0l-1,0c0,-1,0,-1,0,-1c0,0,-1,0,-1,0c0,0,-1,0,-1,-1l0,-1c0,0,0,-1,0,-1c1,-1,1,-1,2,-2l-1,0l-1,0c0,0,0,1,0,1l0,-1c0,0,1,0,1,0l1,0l1,0l1,0l-1,0c0,0,-1,1,-1,1c0,0,-1,0,-1,1c-1,1,-1,1,-1,1c0,0,1,1,1,1c0,1,0,1,0,1c1,0,1,0,1,0l1,0l1,0ZM213.5,98.5c-1,0,-1,0,-1,0c1,-1,1,-1,1,-1l0,1ZM234.5,109.5l-2,0l1,-2l2,1ZM236.5,112.5l-2,-1l-1,1l-1,-1l1,-1l1,1l1,-2l1,1ZM231.5,117.5c-1,0,-1,1,-1,1c-1,0,-1,0,-1,0c0,0,-1,0,-1,0l-1,0c-1,0,-1,0,-2,-1c0,0,-1,-1,-1,-1l0,-9l1,-2l0,10l0,1l1,0l1,0l2,0l1,0l1,0c0,0,0,-1,1,-1l0,1l1,0c0,0,1,0,1,0l1,0c0,0,0,-1,0,-1l1,-1l0,1l0,1c0,0,1,0,1,0l1,0l0,-1l0,-1l1,0l0,1l0,1c0,0,0,1,0,1c0,0,0,1,-1,1c-1,0,-1,0,-1,0c-1,0,-1,0,-1,0l0,-1l-1,0l0,1c-1,0,-1,0,-1,0l-1,0c0,0,-1,0,-1,0l-1,-1ZM232.5,102.5l4,-2l-1,0c0,1,0,1,0,1l-4,2ZM222.5,102.5c1,0,1,0,2,0c1,0,1,1,1,1l1,0l0,-1l1,0c0,1,-1,1,-1,1l-1,0l-1,0l-1,0l-1,0c-1,0,-1,0,-1,0c0,0,0,-1,1,-1ZM216.5,116.5c0,0,0,-1,0,-1c1,0,1,-1,1,-1c1,0,1,0,1,0l1,0l0,1l0,1l0,-1l-1,0c0,0,-1,0,-1,1l1,1l1,0c1,0,1,0,1,0l0,1l-5,1c1,0,1,0,1,0l0,-1c1,0,1,0,1,0c0,0,-1,0,-1,-1l0,-1ZM216.5,108.5l4,-2l0,1c-1,0,-1,0,-1,0l-4,2ZM266.5,122.5l-1,-1l0,-1l2,0ZM263.5,118.5l-1,0l-1,0c0,0,-1,0,-1,0l-1,-1c0,1,0,1,-1,2c0,0,-1,-1,-1,-1l-1,0l-2,-1l0,1c-1,0,-1,0,-1,0l-1,0l-1,0l-1,0c-1,0,-2,0,-2,-1c-1,0,-1,-1,-1,-1l0,-9l1,-2l0,10l0,1l1,0l1,0l1,0l1,0l1,0l1,0c0,0,0,-1,1,-1c1,-1,2,-2,2,-2l1,1l1,1l0,1l1,0l1,0l1,0l1,0c1,0,1,0,2,0c0,0,1,0,1,0l0,-1c0,-1,0,-1,0,-1l-1,0l1,-2l1,1l0,1l0,1l0,1c0,1,-1,1,-1,1c0,0,0,1,-1,1c-1,0,-1,0,-2,0ZM265.5,124.5l-4,2c1,0,1,-1,1,-1l3,-2ZM258.5,117.5l0,-1c-1,-1,-1,-1,-1,-1l-1,0c0,0,0,1,1,1l1,0ZM254.5,105.5l5,-2l-1,1l-4,2ZM283.5,116.5l-1,1c0,0,0,1,0,1l1,-1ZM284.5,119.5c-1,0,-1,0,-2,0c-1,0,-1,0,-2,1c-1,0,-1,0,-1,0c0,0,0,-1,-1,-1c0,0,0,-1,0,-1l1,0l1,0c0,0,0,-1,1,-1c0,0,1,-1,1,-1c0,-1,0,-1,-1,-1c0,-1,0,-1,0,-1c-1,-1,-1,-1,-1,-2c-1,0,-1,-1,-2,-1c0,0,0,-1,-1,-1c0,0,-1,0,-1,0l-1,0c0,-1,0,-1,0,-1c0,-1,-1,-1,-1,-1l0,-1c1,-1,1,-1,1,-1c0,0,1,1,1,1c1,0,1,1,2,1c1,1,1,2,2,2c0,1,1,2,1,3c1,0,1,0,1,1c0,0,1,0,1,1c0,-1,0,-1,0,-2c0,0,0,-1,0,-2c0,0,0,-1,0,-1c0,-1,0,-1,0,-2c0,0,0,-1,0,-1l0,-1c0,0,0,-1,0,-1c1,0,1,0,1,-1l0,1l1,1c0,0,0,1,0,1l0,1l-1,0c0,1,0,1,0,2c0,0,0,1,0,1c0,0,0,1,0,1c0,1,0,1,0,2c0,1,-1,1,-1,1c0,0,0,1,0,1c1,0,1,0,1,0c0,1,0,1,0,1l0,1l0,1ZM280.5,102.5l0,1l1,0l0,-1l1,0l0,1c1,0,1,-1,1,-1l0,-1l0,1l0,1c0,0,0,1,0,1l-1,0l0,-1l-1,1l-1,0l0,-1l0,-1ZM284.5,99.5l-5,3c0,-1,0,-1,0,-1l6,-3ZM328.5,115.5c-1,0,-2,1,-3,1c-1,1,-2,1,-3,2c-1,0,-2,0,-3,0l-1,0c0,0,-1,0,-1,0c-1,0,-1,-1,-1,-2c0,1,0,1,-1,2l-1,0l-1,0c-1,0,-1,0,-2,0l0,-1c-1,1,-1,1,-1,2l-1,0c0,0,0,-1,-1,-1l-1,0l-1,-1l-1,1c0,0,-1,0,-1,0l-1,0l-1,0c0,0,-1,0,-1,0c0,0,-1,0,-1,-1c0,-1,0,-1,0,-1c-1,0,-1,0,-1,-1l0,1c-1,0,-1,0,-1,0l-1,1c-1,0,-1,0,-1,-1l-1,0l0,-1c0,0,0,-1,1,-1c0,-1,1,-1,2,-2c0,0,1,0,1,0l0,-1l0,-1l1,1c0,0,0,1,0,1c0,0,0,1,0,1l0,2c0,0,0,1,0,1c0,0,1,0,1,0c1,0,1,0,1,0l1,0l1,0l1,0c0,0,1,-1,1,-1c1,-1,2,-2,2,-2l1,0l0,1l1,1l1,1c0,0,1,0,1,0l1,0l1,0c1,0,1,0,2,-1l0,-1c0,-1,0,-1,0,-1l-1,-7l1,-2l1,11l0,1l1,0l1,0c0,0,1,0,1,0c0,0,1,0,1,0c0,0,0,-1,-1,-1c0,-1,0,-1,0,-1c0,-1,0,-1,0,-1c0,0,0,-1,0,-1c0,0,1,0,1,0l0,-1c0,0,1,0,1,-1l1,0l1,0l1,0c1,0,1,1,1,1c0,0,1,0,1,0l-1,1l0,-1l-1,0l-1,0l-1,0c-1,0,-1,1,-1,1l-1,0c0,1,0,1,0,1c1,0,1,1,1,1c1,0,1,1,2,1l1,0c0,0,1,-1,1,-1l1,0l1,-1ZM323.5,121.5l-4,2c0,0,0,-1,0,-1l5,-2ZM314.5,97.5c0,-1,1,-1,1,-1c0,0,1,0,1,0c1,0,1,0,2,0c0,0,0,1,0,1c0,0,0,1,0,1c-1,0,-1,1,-1,1c-1,0,-1,0,-1,0c0,0,-1,0,-1,0c0,0,-1,0,-1,0l2,-1c1,0,1,0,1,0c0,-1,0,-1,0,-1c-1,0,-1,0,-1,0c-1,0,-1,0,-1,0c-1,0,-1,1,-1,1l0,-1ZM310.5,117.5l-1,-1c0,-1,0,-1,-1,-1l-1,0c0,0,0,1,1,1l1,0ZM307.5,121.5l-4,2c0,0,0,-1,1,-1l4,-2ZM299.5,113.5l-1,0l-1,1l-1,1l1,0l1,0c1,0,1,-1,1,-1ZM302.5,105.5c-1,0,-2,0,-3,0l-1,0l-1,0l-1,0c0,0,-1,1,-1,1c0,0,0,-1,0,-1l1,-1c1,1,2,1,3,1l1,0l1,0l0,-1l1,0l1,0ZM351.5,118.5l-1,0l0,-1c0,0,-1,0,-1,0l-1,0c0,0,0,1,-1,1l-1,0l-2,0c0,1,0,1,0,1l0,1c0,1,0,1,0,2c-1,0,-1,1,-2,1c0,1,-1,1,-2,2c0,0,-1,0,-2,0c0,0,-1,0,-2,0c0,0,-1,-1,-1,-1c-1,0,-1,-1,-1,-1c0,-1,-1,-1,-1,-2l1,-1c0,0,0,-1,0,-1l0,-1l1,0c0,0,0,-1,0,-1l0,1c0,1,0,1,0,1c-1,0,-1,0,-1,1l0,1l1,1c1,0,1,1,1,1c1,0,2,0,3,0c0,0,1,0,2,0c1,0,1,-1,2,-1c0,0,0,-1,0,-1c0,0,0,-1,0,-1c0,-1,0,-1,0,-1l0,-1l-1,-1l1,-2c0,1,0,1,0,1c1,0,1,0,1,0l2,0c1,0,1,0,1,0l1,0l1,-1c0,-1,0,-1,0,-2l1,0l1,0c1,1,1,1,1,2l0,1c0,0,0,1,0,1l-1,1ZM349.5,115.5l1,1l1,0l0,-1c0,0,-1,-1,-1,-1c0,0,0,1,-1,1ZM347.5,104.5l0,1c1,0,1,0,1,0c0,0,0,-1,1,-1l0,-1l0,1c0,0,1,0,1,0l0,-1l1,-1l0,1l0,1l-1,1l-1,0c-1,1,-1,1,-1,1c-1,0,-1,0,-1,0l0,-1l0,-1ZM351.5,121.5l-5,2c1,0,1,-1,1,-1l4,-2ZM339.5,116.5l-1,-1l0,-2l2,1ZM338.5,103.5c0,0,1,0,1,-1c1,0,1,0,1,0c1,0,1,0,2,1c0,1,0,1,0,1c0,1,-1,1,-1,1l-1,0l-1,0l-1,0l2,0c1,-1,1,-1,2,-1c-1,0,-1,0,-1,0c0,0,-1,-1,-1,-1c0,0,-1,1,-1,1c0,0,-1,0,-1,0c0,0,0,-1,0,-1ZM394.5,122.5l-1,-1l1,-1l1,0ZM392.5,118.5l-1,0l-1,0l-1,0c0,0,-1,0,-1,-1l0,-1l0,1l-1,0l0,1c-1,0,-1,0,-1,0c0,0,-1,0,-1,0c0,0,-1,-1,-1,-1l0,1l-1,0c-1,0,-1,0,-1,0c-1,0,-1,0,-1,0c-1,0,-1,0,-1,0l-1,-1l-1,0l-1,0c0,0,0,1,-1,1c0,1,0,1,1,1c0,0,1,0,1,0c1,0,1,0,1,0c1,1,1,1,1,1c0,1,0,1,0,1c0,0,0,1,0,1c-1,0,-1,0,-1,1c-1,0,-2,1,-3,1c-1,0,-2,1,-4,1c-1,0,-1,-1,-2,-1c-1,0,-1,0,-1,-1c-1,0,-1,0,-1,-1c-1,0,-1,-1,-1,-2c0,0,0,-1,1,-2c0,0,0,-1,1,-1l0,-1c0,1,0,1,1,1c-1,0,-1,1,-1,1c0,1,-1,1,-1,2c1,1,1,1,2,2c0,0,1,1,2,1c1,0,1,0,1,0l1,0c1,0,1,-1,1,-1c1,0,1,0,1,0c0,0,1,0,1,0c1,0,1,0,1,0c0,-1,1,-1,1,-1c0,0,-1,0,-2,0c-1,0,-1,-1,-2,-1c0,-1,0,-1,0,-1l0,-1l0,-1l1,0l0,-1c1,0,1,0,1,-1l1,0l1,0c0,0,1,0,1,0l0,1c1,0,1,0,1,0c0,0,1,0,1,0l1,0l1,0l0,-1c1,0,1,0,1,0l0,-1l0,1c0,0,0,1,0,1l1,0l1,0l0,-1l1,0l0,-1l0,1c0,0,1,0,1,0l0,1c0,0,1,0,1,0l1,0l1,0c0,0,1,0,1,0c1,0,1,0,1,0l0,-1c0,-1,0,-1,0,-1l0,-2c0,0,1,0,1,0l0,1l0,1l0,1l0,1c0,1,0,1,0,1c-1,0,-1,1,-2,1c0,0,-1,0,-1,0ZM393.5,124.5l-3,2c0,0,0,-1,0,-1l4,-2ZM383.5,110.5l-1,-1l1,-1l1,1ZM385.5,113.5l-1,-1l-1,1l-1,-1l0,-2l2,1l1,-1l1,1ZM380.5,105.5l4,-2l-1,1l-4,2ZM370.5,107.5c1,0,1,0,1,0c1,0,1,0,2,0c0,0,1,0,1,0c1,0,1,0,1,1c0,0,-1,0,-1,1l-1,0c0,0,0,1,0,1c-1,0,-1,0,-1,0l-1,0l1,-1c1,0,2,0,2,-1c0,0,-1,0,-1,0l-1,0l-1,0l-1,0c0,0,0,-1,0,-1ZM360.5,116.5c0,0,0,-1,1,-1c0,0,0,-1,1,-1l1,0c1,0,1,0,1,0l0,1l0,1l-1,0l0,-1l-1,0c0,0,-1,0,-1,1l1,0l0,1l1,0c1,0,1,0,2,0c0,0,-1,0,-1,1l-4,1l1,-1l-1,-1l0,-1ZM360.5,126.5l1,0l0,-1l3,-2l0,1l-4,3l0,-1ZM358.5,130.5l0,-1l4,-2l0,1l-4,3l0,-1ZM297.5,123.5l1,0c0,-1,-1,-1,-1,-2c0,-1,0,-1,0,-2c1,0,1,0,1,1l0,1c0,0,0,1,0,1c0,1,0,1,-1,1ZM225.5,58.5c0,-1,0,-1,1,-1l1,0c0,0,1,0,1,0c1,0,1,1,1,1c0,1,-1,1,-1,1c0,0,0,1,0,1c-1,0,-1,0,-1,0c-1,0,-1,0,-1,0l-1,0l1,-1c1,0,2,0,2,0c0,-1,-1,-1,-1,-1l-1,0l-1,0c0,1,0,1,-1,1c0,-1,0,-1,0,-1c0,0,1,0,1,0ZM359.5,61.5l0,-1l1,0c1,-1,1,-1,1,-1l0,-1l0,-1l-1,-1l0,-1c0,-1,0,-1,0,-1l1,0l0,1l0,1l0,1l0,1l0,1l1,0l0,-1c1,0,1,0,1,0l1,0c1,0,1,0,1,0l0,1l-1,0c0,1,0,1,0,1c-1,0,-1,0,-2,0c0,1,0,1,-1,1ZM363.5,59.5l-1,0l-1,0l0,1c1,0,1,0,1,0l1,0c0,-1,1,-1,1,-1c0,0,-1,0,-1,0ZM126.5,47.5c0,0,0,1,0,1c-1,0,-1,1,-2,1c0,0,-1,0,-1,0l-1,0c-1,0,-1,0,-1,0c0,0,0,-1,0,-1c0,1,0,1,0,1c-1,0,-1,0,-1,0l-1,0l0,-1c0,-1,0,-1,0,-1c0,0,0,1,-1,1l0,1l-1,0c0,0,0,1,0,1l1,0c1,0,1,0,1,0l1,0l1,0c0,0,1,0,2,0c0,0,1,0,1,0l3,-1l-1,1c0,0,-1,0,-1,0l-1,0c0,0,-1,0,-1,0c0,0,-1,0,-1,0l-1,0l-2,0l-2,0l-1,0l0,-1l2,-1l0,-1c0,0,1,0,1,0l0,-3l0,3c0,0,0,1,0,1c0,0,1,0,1,0c1,0,1,0,1,-1c0,1,0,1,1,1c0,0,1,-1,2,-1c0,0,1,-1,1,-1c0,0,1,0,1,1ZM125.5,48.5c0,0,0,-1,0,-1c-1,0,-1,0,-2,1l1,0c1,0,1,0,1,0ZM164.5,63.5l-2,-1l1,-1l1,1ZM172.5,69.5l-2,0c0,0,-1,0,-2,0l-1,0l-1,1l-1,0c0,0,-1,1,-1,1c-1,0,-1,0,-1,0c-1,0,-2,1,-3,1c-1,0,-1,-1,-2,-1c0,0,0,-1,-1,-2c0,1,0,2,0,2c-1,0,-1,0,-1,1l-1,0l-1,0l-1,0c-1,0,-1,0,-2,-1c0,0,-1,0,-1,0c0,0,-1,0,-2,0c0,0,-1,1,-2,1l-1,0l-1,0l-1,0c0,0,1,1,1,1c0,0,0,1,0,1c0,0,0,1,-1,2c0,0,-1,1,-1,1c0,0,-1,0,-1,-1c-1,0,-1,0,-1,-1c0,-1,-1,-2,-1,-3c-1,0,-1,0,-1,0l-1,0l-3,0c0,0,-1,-1,-1,-1l0,1l0,1c-1,1,-1,1,-1,1c0,0,-1,0,-1,-1c-1,0,-1,-1,-1,-2l0,-1c0,1,-1,1,-1,1l-1,0l0,1c-1,0,-1,0,-1,1l1,0l0,1l0,3l0,1c1,1,1,2,1,2l0,1l-1,0l0,-1l0,-2l-1,-2l0,-2l0,-1l0,-1c0,-1,1,-2,1,-2l0,-1l1,0l1,0l0,-1l1,0c0,0,1,1,2,1l2,1l1,0l1,0l1,0l1,0c1,-1,1,-1,1,-2c0,-1,1,-1,1,-1c1,-2,1,-2,2,-2l1,0l0,1l0,1c0,1,-1,1,-1,1c0,1,-1,2,-2,2l2,0l1,0l1,0l1,0c1,0,1,0,1,0l1,0l1,0c0,-1,-1,-1,-1,-1l0,-1c0,0,0,-1,1,-1c0,-1,0,-1,0,-1c0,-1,1,-1,1,-1c0,0,1,-1,1,-1c1,0,1,1,2,1c0,0,0,1,0,1l0,1c0,1,0,1,0,1c0,0,0,1,0,1c-1,0,-1,0,-1,1l1,0c1,0,1,0,1,0l1,0c0,0,1,0,1,0c0,0,1,-1,1,-1c0,-1,0,-1,0,-1c0,0,0,-1,0,-1l0,-1l0,-6l1,-2l0,10c0,1,0,1,0,1l1,0c0,1,0,1,0,1l1,0c1,0,1,0,1,0c1,0,1,0,2,0c0,-1,1,-1,1,-1l2,0l0,-1l-1,0l-1,-1l-1,0l-1,0l-1,0c0,0,0,-1,1,-1c1,-1,1,-1,1,-1c0,0,1,0,1,0c0,1,0,1,1,1l2,1l1,0c0,0,1,0,1,0c0,0,1,0,1,0c1,0,1,0,1,0l1,0ZM163.5,59.5l4,-3l0,1l0,1l-4,2ZM155.5,50.5c1,0,1,0,1,0c1,0,1,-1,2,-1c0,0,1,1,1,1c1,0,1,0,1,0l0,1c-1,0,-1,0,-1,1l-1,0c-1,0,-1,0,-1,0l-1,0l1,0c1,0,2,-1,2,-1c0,0,-1,0,-1,0l-1,0c0,0,-1,0,-1,0l-1,0l0,-1ZM151.5,64.5l-2,-2l1,-1l2,1ZM151.5,66.5c0,0,-1,0,-1,1c-1,0,-1,0,-1,0c0,1,0,1,0,1c1,0,1,0,1,1c1,0,1,-1,2,-1c0,-1,0,-1,0,-1c-1,-1,-1,-1,-1,-1ZM149.5,55.5l4,-2l0,1l-4,2ZM142.5,67.5c0,0,-1,0,-1,0l0,1l-1,1c1,0,2,0,2,-1c1,0,1,0,1,-1c0,0,-1,0,-1,0ZM140.5,72.5c0,0,0,1,0,1c0,1,1,1,1,1l0,1l1,0c0,0,1,0,1,-1c0,0,0,-1,-1,-1c0,-1,-1,-1,-2,-1ZM142.5,56.5c0,-1,0,-1,0,-1c1,0,1,0,1,0c1,0,1,0,1,1l0,1l-1,0l1,1l0,1l-1,-1l-1,1c0,1,-1,1,-1,1l-1,0l-1,0l1,0l1,-1l1,-1c0,-1,-1,-1,-1,-1l0,-1c0,0,1,0,1,0ZM143.5,56.5l-1,0l1,1l0,-1ZM127.5,61.5c0,0,0,-1,1,-1l1,0c0,0,1,0,1,0c1,1,1,1,1,1c0,1,0,1,-1,1c0,0,0,1,0,1c0,0,-1,0,-1,0c-1,0,-1,0,-1,0l-1,0l2,0c0,-1,1,-1,1,-1l-1,-1c-1,0,-1,0,-2,1l-1,0c0,-1,0,-1,1,-1ZM197.5,68.5c-1,0,-1,0,-1,0c0,1,0,1,1,1c0,0,0,-1,0,-1ZM197.5,75.5c-1,1,-1,1,-1,1l-1,0c0,0,-1,0,-1,0l-1,0c0,0,-1,0,-1,0c-1,0,-1,0,-1,0c0,-1,0,-1,0,-1l1,0l0,1c1,0,1,-1,1,-1c0,0,1,0,1,0c1,0,1,0,1,0c0,-1,1,-1,1,-1c1,0,1,-1,1,-1l1,-1c0,-1,0,-1,0,-1c0,-1,0,-1,0,-1c0,0,-1,1,-1,1l-1,0c0,-1,-1,-1,-1,-1c0,0,0,-1,0,-1c0,0,0,-1,0,-1c0,-1,0,-1,1,-1c0,-1,0,-1,0,-1c1,0,1,0,1,0c0,0,1,0,1,0l0,1c0,0,1,0,1,0c0,1,0,1,0,2l0,1c0,0,0,1,0,1c0,1,0,2,-1,2c0,1,0,1,-1,1c0,1,0,1,0,1ZM194.5,62.5l4,-2c0,1,0,1,-1,1l-4,2ZM190.5,71.5l-1,0l-1,0l-1,-1c-1,1,-1,1,-1,1l0,1l-1,0l-1,0l-1,0c-1,0,-1,-1,-2,-1c0,-1,-1,-1,-1,-2l0,-8l1,-3l0,10l0,1l1,0c0,1,0,1,1,1l1,0l1,0c1,0,1,0,1,0l0,-1l1,-1c0,0,1,-1,1,-1c1,-1,1,-1,1,-1c0,0,1,0,1,1c0,0,0,1,1,1l0,1l0,1c-1,1,-1,1,-1,1ZM188.5,69.5l1,0l1,0l-1,0c0,0,0,-1,0,-1c-1,0,-1,0,-1,0l0,1ZM185.5,59.5l4,-3l0,1l0,1l-4,2ZM248.5,75.5l-2,-1l-1,1l-1,-1l1,-1l1,1l1,-2l2,1ZM245.5,72.5l-1,0l-2,0l-1,0c0,-1,0,-1,0,-1l-1,0l0,-1l0,-1l0,1l-1,0l0,1c-1,0,-1,0,-2,0c0,0,-1,0,-1,0l-1,0l-1,0c-1,0,-1,-1,-1,-1c0,-1,0,-1,0,-1l1,-1c0,1,0,1,0,1l1,0l0,1l1,0l1,0l0,-1c0,0,1,0,1,0c1,0,1,0,1,0l1,-1l-1,-1l0,-2l0,-1l0,-1l1,-1l0,2c0,0,0,1,0,1l1,3l0,1l0,1l1,0l2,0l1,0c0,0,1,0,1,0c1,0,1,-1,1,-1c0,0,0,-1,0,-1c0,0,0,-1,0,-1l0,-2c0,0,1,1,1,1l0,1l0,1c0,1,0,1,0,1c0,1,0,1,0,1c-1,1,-1,1,-2,1c0,1,-1,1,-1,1ZM244.5,57.5l1,0c0,0,1,0,1,0c1,0,1,0,2,0c0,1,0,1,0,1l0,1c-1,0,-1,0,-1,0c-1,0,-1,0,-1,0c0,1,-1,1,-1,1c0,0,-1,0,-1,-1l2,0c0,0,1,-1,1,-1c-1,0,-1,0,-1,0c-1,0,-1,0,-1,0c-1,0,-1,0,-1,0c0,-1,0,-1,0,-1ZM237.5,75.5l-5,2c1,-1,1,-1,1,-1l4,-2ZM230.5,75.5l-2,-1l0,1l-2,-1l1,-1l2,1l0,-2l2,1ZM227.5,72.5l-1,0l-1,0l-1,0l-1,0l1,0c0,0,0,1,0,1c0,0,0,1,0,1c0,0,0,1,-1,2c0,0,0,1,-1,1c0,0,-1,0,-1,-1c0,0,-1,0,-1,-1c0,-1,-1,-2,-1,-3c-1,0,-1,0,-1,0l-1,0c-1,0,-2,-1,-2,-1l-1,0c0,0,0,1,-1,1c0,0,-1,0,-1,0c-1,0,-2,-1,-2,-1l0,1c-1,1,-1,1,-2,1c0,1,-1,1,-1,1c-2,0,-3,0,-4,0l4,-1l1,-1c1,0,1,-1,2,-1l1,-2c0,-1,0,-1,0,-1c0,0,1,0,1,-1l1,0c0,0,0,1,1,1c0,1,1,1,1,2l1,0l1,0l1,0l1,0l1,0c0,-1,0,-1,0,-2l1,0c0,-1,0,-1,0,-1c1,-2,2,-2,2,-2l1,0l0,1l0,1c0,1,0,1,-1,1c0,1,-1,2,-2,2l2,0l2,0l1,0l1,0c0,0,1,0,1,0c1,0,1,-1,2,-1c0,0,0,-1,-1,-1c0,0,0,-1,0,-1l1,-2c0,0,0,1,0,1l0,1l0,1c0,1,0,1,0,1c0,1,0,1,0,1c-1,1,-1,1,-2,1c0,1,-1,1,-1,1ZM222.5,67.5c0,0,-1,0,-1,0l0,1l-1,1c1,0,2,0,2,-1c1,0,1,0,1,-1l-1,0ZM220.5,72.5c0,0,0,1,0,1c1,1,1,1,1,1l0,1l1,0c1,0,1,0,1,-1c0,0,0,-1,-1,-1c0,-1,-1,-1,-2,-1ZM219.5,78.5l-3,2c0,-1,0,-1,0,-1l4,-2ZM213.5,70.5l0,-1c0,0,-1,0,-1,0c-1,0,-1,0,-1,0c0,1,0,1,1,1l1,0ZM209.5,61.5c0,0,0,-1,1,-1l1,0c0,0,1,0,1,0c1,1,1,1,1,1c0,1,0,1,-1,1c0,0,0,1,0,1c0,0,-1,0,-1,0c-1,0,-1,0,-1,0l-1,0l2,0c0,-1,1,-1,1,-1c0,0,0,-1,-1,-1c-1,0,-1,0,-2,1l-1,0c0,-1,0,-1,1,-1ZM298.5,75.5l-1,-1l1,-1l1,1ZM296.5,72.5l-1,0l-1,0l0,-1c0,0,-1,0,-1,0c0,-1,0,-1,-1,-1l0,-1l0,-1c0,0,0,-1,0,-1c0,1,-1,2,-1,2c-1,0,-1,0,-1,0c0,0,0,1,0,1c0,1,0,1,0,1l0,1l-1,0l0,1c-1,1,-1,1,-2,1l-1,0c0,1,-1,1,-1,1c-1,0,-2,1,-3,1c-1,0,-2,0,-3,0c-1,0,-1,0,-2,0c-1,0,-1,0,-2,0c-1,0,-1,0,-2,0c-1,0,-1,0,-2,0c-1,0,-2,0,-2,0c-1,0,-2,-1,-3,-1c-1,0,-2,-1,-3,-1c-1,-1,-2,-2,-3,-2c0,-1,0,-1,0,-1c0,0,0,-1,0,-1c1,1,1,1,1,1c0,0,1,1,1,1c1,0,1,0,2,1c1,0,2,0,2,0c0,0,1,1,2,1c0,0,1,0,1,0c1,0,2,0,3,1c0,0,1,0,1,0c1,0,2,0,2,0c1,0,1,0,2,0c1,0,1,0,2,0c1,-1,2,-1,2,-1c1,0,2,0,3,0c1,-1,2,-1,3,-1c1,-1,2,-1,2,-2c0,0,0,-1,0,-1c0,-1,0,-1,0,-1c-1,0,-1,0,-1,0c0,-1,0,-1,0,-1l0,-2l1,1l1,0c0,0,1,0,1,0c0,0,1,0,1,-1l0,-1l1,0l0,1l0,1l0,1l0,1l1,1c0,0,1,0,1,0l1,0c1,0,1,0,2,0c0,0,0,-1,1,-1c0,0,0,-1,-1,-1l0,-1l1,-2c0,0,0,1,0,1l0,1l0,1l1,0l0,1l-1,0c0,1,0,1,0,1c0,1,-1,1,-2,1c0,1,0,1,-1,1ZM296.5,59.5l4,-3l0,1l0,1l-4,2ZM294.5,75.5l-1,-1l-1,1l-1,-1l0,-1l2,0l1,-1l1,1ZM289.5,57.5c1,0,1,0,1,0c1,0,1,0,2,0c0,0,1,0,1,0c0,0,1,0,1,0c0,1,0,1,0,1c-1,0,-1,0,-1,1l-1,0c-1,1,-1,1,-1,1l-1,0l0,-1l1,0c1,0,1,-1,2,-1c0,0,-1,0,-1,0l-1,0c0,0,-1,0,-1,0l-1,0c0,-1,0,-1,0,-1ZM277.5,70.5l-2,-1l1,-2l2,1ZM267.5,62.5l3,-1l6,-2l4,-2l1,0l-1,2l-1,0l-1,0l-2,1l-5,2l-4,1l-1,0ZM317.5,71.5l-1,0c-1,0,-1,0,-1,0l-1,-1c0,1,-1,1,-1,1l0,1l-1,0l-1,0l-1,0c-1,0,-1,-1,-2,-1c0,-1,-1,-1,-1,-2l0,-8l1,-3l0,10l0,1l1,0c0,1,1,1,1,1l1,0l1,0c1,0,1,0,1,0l1,-1l0,-1c1,0,1,-1,1,-1c1,-1,1,-1,1,-1c1,0,1,0,1,1c0,0,1,1,1,1l0,1l0,1c0,1,-1,1,-1,1ZM315.5,69.5l1,0l1,0c0,0,0,-1,-1,-1c-1,0,-1,0,-1,0l0,1ZM312.5,59.5l5,-3l-1,1l0,1l-4,2ZM352.5,75.5l-2,-1l-1,1l-1,-1l1,-1l1,1l1,-2l1,1ZM349.5,72.5l-1,0l-1,0l-1,-1c0,0,-1,0,-1,0l-1,-1c0,0,-1,0,-1,0l0,1c-1,0,-1,0,-1,0c0,0,-1,0,-1,0l-1,1l-1,0c0,0,-1,-1,-1,-1c-1,0,-1,-1,-1,-2c0,1,0,2,-1,2l0,1l-1,0l-3,0c0,0,0,-1,-1,-1l0,1l0,1c0,1,-1,1,-1,1c0,0,-1,0,-1,-1c0,0,-1,-1,-1,-2l0,-1c0,1,-1,1,-1,1c-1,0,-1,0,-1,0l0,1l0,1l0,1l0,3l1,1c0,1,0,2,0,2l0,1l-1,0l0,-1l0,-2l-1,-2l0,-2l0,-1l0,-1c0,-1,1,-2,1,-2l0,-1l1,0l1,0l0,-1l1,0c0,0,1,1,2,1l2,1l1,0l1,0c1,0,1,-1,2,-1c0,-1,0,-1,0,-1c0,0,0,-1,0,-1l0,-1l-1,-6l1,-2l1,10c0,1,0,1,0,1c0,1,0,1,1,1l1,0c1,0,1,0,1,0c1,0,1,0,1,0l0,-1c0,0,1,0,1,0l-1,0l0,-1c0,0,-1,0,-1,0l-1,0l1,-2c1,0,1,0,1,0c1,0,1,-1,2,-1c0,0,0,1,0,1c1,0,1,0,1,0l1,0c0,0,0,1,0,1c0,0,0,1,0,1c0,0,-1,0,-1,1c0,0,0,1,1,1l1,0l1,0l1,0c0,0,1,0,1,0c1,0,1,-1,1,-1c0,0,0,-1,0,-1c0,0,0,-1,0,-1l-1,0l1,-2c0,0,0,1,1,1l0,1l0,1c0,1,0,1,0,1c0,1,0,1,0,1l-1,0c0,1,0,1,-1,1c0,1,-1,1,-1,1ZM349.5,59.5l4,-3l0,1l-1,1l-4,2ZM340.5,57.5l1,0l1,0c0,0,1,0,1,0c1,0,1,0,1,0c0,1,0,1,0,1c0,0,-1,0,-1,1c-1,0,-1,0,-1,0c-1,1,-1,1,-1,1l-1,0l0,-1l1,0c1,0,2,-1,2,-1l-1,0c-1,0,-1,0,-2,0l-1,0c1,-1,1,-1,1,-1ZM334.5,55.5l4,-2l0,1l-4,2ZM328.5,56.5c0,-1,0,-1,0,-1c1,0,1,0,1,0l1,0l0,1l0,1l-1,0l1,1l0,1l-1,-1l0,1l-1,0c0,1,-1,1,-1,1l-1,0l1,-1l1,-1c0,-1,0,-1,0,-1l0,-1ZM329.5,56.5l-1,0l1,1l0,-1ZM402.5,75.5l-2,-1l1,-1l2,1ZM399.5,72.5l-1,0l-1,0c-1,0,-1,-1,-2,-1c0,-1,0,-1,0,-2l-1,-8l1,-3l0,10l1,1c0,1,1,1,1,1l1,0l1,0c1,0,1,0,2,0c0,0,1,-1,1,-1c0,0,0,-1,0,-1l-1,0l0,-1l1,-2c0,0,0,1,0,1l0,1l1,0l0,1l0,1c0,1,-1,1,-1,1c0,1,-1,1,-1,1c-1,1,-1,1,-2,1ZM401.5,78.5l-4,2c0,-1,0,-1,1,-1l3,-2ZM395.5,76.5l-3,2c0,-1,0,-1,0,-1l4,-2ZM387.5,61.5l-1,-1l1,-2l1,1ZM391.5,70.5l0,1l-1,0c0,0,-1,0,-2,1l-1,0l-1,0l-1,0c0,0,0,-1,0,-1c0,-1,0,-1,0,-1c0,0,1,-1,1,-1c0,1,0,1,0,1l1,0c0,0,1,0,1,0c1,0,1,0,1,-1c0,0,1,0,1,0c0,0,1,0,1,0c0,-1,0,-1,0,-1c0,-1,-1,-1,-1,-1l0,-1l-1,0l-1,-1l-1,0l1,-2l1,0c0,1,0,1,0,1c0,0,1,0,1,0c0,0,0,1,0,1c1,0,1,0,1,1c0,0,0,1,1,1c0,1,0,1,0,1l0,1c0,1,0,1,-1,1ZM384.5,54.5c1,-1,1,-1,1,-1c1,0,1,0,2,0c0,0,1,0,1,0c0,0,1,1,1,1c-1,1,-1,1,-1,1c0,0,0,1,-1,1c-1,0,-1,0,-1,0l-1,0l1,-1c1,0,1,0,2,0c0,-1,-1,-1,-1,-1l-1,0c0,0,-1,0,-1,0c0,0,0,1,-1,1l0,-1ZM379.5,65.5l-1,-1l1,-2l1,1ZM379.5,72.5l-1,0c-1,0,-1,0,-2,-1c-1,0,-1,-1,-1,-1c0,-1,0,-1,0,-1l-1,0c0,0,0,1,0,1l-1,0l-1,0l-1,0l0,-2l1,-1c0,0,0,-1,1,-1c1,-1,1,-1,1,-1l0,-1l1,-1l0,1c0,1,0,1,0,1c0,1,0,1,0,2l1,2l0,1c0,0,1,0,1,0l1,0l1,0c0,0,1,0,1,0c1,0,1,-1,2,-1c0,0,0,-1,-1,-1c0,0,0,-1,0,-1l1,-2c0,0,0,1,0,1l0,1l0,1c0,1,0,1,0,1c0,1,0,1,0,1c-1,1,-1,1,-2,1c0,1,-1,1,-1,1ZM383.5,75.5l-4,2c0,-1,0,-1,0,-1l4,-2ZM374.5,66.5l0,1l-1,0c-1,1,-1,1,-1,1l1,0l1,0l1,0ZM418.5,70.5c0,1,0,1,0,1l-1,0c1,0,1,0,1,0l1,0l0,-1ZM420.5,73.5c-1,0,-1,0,-2,0l-1,0c0,0,-1,0,-1,0c-1,0,-1,0,-1,0l-1,0c0,0,0,-1,0,-1l0,-1c0,0,1,0,1,0l1,0c1,0,1,-1,1,-1c1,-1,1,-1,1,-1l-1,-1l0,-1c-1,0,-1,-1,-2,-1c0,-1,0,-1,-1,-2c0,0,-1,0,-1,0c0,-1,0,-1,0,-1c-1,0,-1,0,-1,0c0,0,-1,0,-1,0c0,0,0,-1,-1,-1l0,-1c0,-1,0,-1,0,-1l0,-1c1,0,1,0,1,0c0,1,1,1,1,1c1,1,1,1,2,2c0,1,1,1,2,2c0,0,1,1,1,2c1,0,1,1,1,1c0,0,0,1,1,1c0,0,0,-1,0,-1c0,-1,0,-2,0,-2c0,-1,0,-1,0,-2c0,0,0,-1,0,-1c0,-1,0,-1,0,-2c0,-1,0,-1,0,-1c0,-1,1,-1,1,-1c0,0,0,1,0,1c1,0,1,0,1,1l0,1l-1,0l0,1c0,0,0,1,0,1c0,1,0,1,0,1c0,1,0,1,0,2c0,0,0,1,0,1c-1,1,-1,1,-1,2c0,0,0,1,0,1c0,0,1,0,1,0c0,1,0,1,0,1c0,1,0,1,0,1l0,1ZM416.5,56.5c0,1,0,1,0,1c0,0,1,0,1,0c0,-1,0,-1,0,-1l0,-1l1,0l0,1c0,0,1,0,1,-1l0,-1l0,1l0,1c0,1,0,1,0,1l-1,0l-1,0c0,1,-1,1,-1,1l0,-1l-1,0l1,0l0,-1ZM420.5,53.5l-6,3c1,-1,1,-2,1,-2l6,-3ZM373.5,77.5l0,-1c0,0,0,-1,0,-1c0,-1,0,-2,-1,-2l1,-1c0,0,0,1,0,1c1,0,1,1,1,1l0,1l0,1c-1,0,-1,1,-1,1ZM122.5,62.5l-1,0l-1,1l-1,0c0,0,-1,0,-1,-1c-1,0,-1,0,-1,0l-1,-1l0,-1c0,0,0,-1,1,-1c0,-1,0,-1,1,-2l-1,0c-1,0,-1,0,-1,1l0,-1c0,0,1,0,1,0l1,0l1,0l1,0c-1,0,-1,1,-2,1l-1,0c0,1,0,1,0,1c0,1,0,1,0,1c0,0,0,1,0,1l1,0c0,1,0,1,0,1l1,0l1,0ZM120.5,59.5l0,1l-1,0l0,-1l1,0ZM41.5,57.5l1,0l1,0c0,0,1,0,1,0c1,0,1,0,1,0c0,0,0,1,0,1c0,0,-1,0,-1,1c-1,0,-1,0,-1,0c-1,1,-1,1,-1,1l-1,0l0,-1l1,0c1,0,2,-1,2,-1c0,0,-1,0,-1,0l-1,0l-1,0l-1,0c0,-1,0,-1,1,-1ZM57.5,55.5l1,0c0,0,1,0,1,0c1,0,1,0,2,0l0,1c0,0,0,1,-1,1c0,1,0,1,-1,1c0,0,-1,0,-1,0c-1,0,-1,0,-1,0l2,-1c0,0,1,0,1,-1c-1,0,-1,0,-1,0c-1,0,-1,0,-2,0l0,1l0,-1l0,-1ZM82.5,73.5l-2,-1l0,1l-2,-1l1,-1l2,1l0,-1l2,0ZM79.5,70.5l-1,0l-2,0c-1,0,-2,0,-2,-1c-1,0,-1,0,-1,-1c0,-1,0,-1,0,-1l-1,0l-1,0l-4,2c-1,0,-1,0,-1,0c-1,0,-1,1,-1,1l-1,0l-1,0l-1,0c0,0,0,-1,-1,-1c0,-1,0,-1,0,-1c0,1,-1,1,-1,1c0,1,-1,1,-1,1l-1,0l-10,0c-1,1,-1,1,-1,2l0,-1l0,-1l-1,0l-1,0c0,0,-1,1,-1,1c0,0,0,1,0,1c0,0,-1,1,-1,1c0,0,0,1,-1,1l0,1c-1,0,-1,0,-1,0c0,0,-1,0,-1,0l-1,0c0,0,-1,0,-2,0c0,0,0,-1,-1,-1c1,0,1,0,1,0c1,0,1,0,1,0c0,0,1,0,1,0c1,0,1,0,2,-1l1,0c0,0,0,-1,0,-1c1,0,1,-1,1,-1l0,-1l1,0l-1,0c-1,0,-1,0,-1,0c0,0,0,-1,-1,-1c0,0,0,-1,0,-1c0,-1,0,-1,0,-1c0,-1,0,-1,0,-1c0,0,1,0,1,0c0,0,0,-1,0,-1c0,0,1,0,1,0c1,0,1,0,1,1c0,1,0,1,1,1c0,0,0,1,0,1c0,0,1,0,1,0c1,0,1,0,1,0c0,0,1,0,1,0c0,-1,0,-1,0,-2l1,-1l-1,-1l0,-1l0,-1l0,-2l0,-2c0,-1,0,-1,0,-1l0,-1l1,2c0,0,0,1,0,2l0,1l0,1l0,2l0,1l0,1l0,1l1,-1l1,-1l1,-1c1,0,1,0,1,0l1,0c1,0,1,0,2,0c0,0,0,1,1,1l0,1l0,1c-1,0,-1,0,-1,1l-1,0l2,0l1,0c1,0,1,0,1,0c1,0,1,0,1,0c0,-1,0,-1,1,-1c0,0,0,-1,0,-1c0,0,0,1,0,1c0,0,1,1,1,1c0,0,1,0,1,0l1,0c0,0,1,0,1,0c0,0,1,0,1,0c1,0,1,-1,2,-1l1,0l1,-1l-2,0c0,-1,-1,-1,-2,-1c0,0,-1,0,-1,0l-1,1l0,-1l1,0c0,-1,0,-1,0,-1c1,0,1,-1,2,-1l1,0l0,1c0,0,1,0,1,0c1,1,2,1,3,1c1,0,2,0,2,0c1,1,1,1,2,1l0,1l-1,0l-1,0c0,0,0,1,0,1c0,0,1,0,1,0l1,0l2,0l1,0c0,0,1,0,1,0c1,0,1,0,2,-1c0,0,0,-1,-1,-1c0,0,0,-1,0,-1l1,-2c0,1,0,1,0,1c0,0,0,1,0,1l0,1l0,1l0,1l0,1c-1,0,-1,0,-2,1l-1,0ZM81.5,54.5c0,0,1,-1,1,-1l1,0l0,1l0,1l0,1l1,0l-1,1l-1,-1l0,1l-1,0c0,1,0,1,0,1l-1,0l-1,0l1,0l0,-1c0,0,1,0,1,0l1,-1l-1,0c0,-1,0,-1,0,-1c0,-1,0,-1,0,-1ZM82.5,54.5l0,1l0,-1ZM73.5,73.5l-4,2c0,0,0,-1,0,-1l4,-2ZM62.5,73.5l-1,-1l-1,1l-1,-1l0,-1l2,1l1,-1l1,0ZM55.5,67.5c0,-1,0,-1,0,-1l-1,0l-1,0c0,0,-1,0,-1,0l-2,1l-1,1l1,0c0,0,1,0,1,0c0,0,1,0,1,0l1,0c1,-1,2,-1,2,-1ZM49.5,51.5c0,-1,0,-1,1,-1c0,-1,0,-1,0,-1l1,0c0,1,0,1,0,1c0,1,0,1,0,1l0,1l0,2l-1,-1l-1,1c0,0,0,1,-1,1l-1,0l1,-1c0,0,1,0,1,-1l1,0l-1,0l0,-1l0,-1ZM50.5,51.5l0,-1c0,0,0,1,0,1l0,1l0,-1ZM42.5,67.5c0,0,0,1,0,1c1,0,1,0,1,0c0,0,1,0,1,0l-1,0c0,-1,0,-1,0,-1l-1,0ZM31.5,64.5l-1,-1l1,-2l1,1ZM31.5,73.5c0,0,-1,0,-2,0c0,0,-1,-1,-1,-1c0,0,-1,-1,-1,-1c0,-1,0,-1,0,-2c0,0,0,-1,0,-1l0,-1l0,-1c0,0,1,0,1,0c0,-1,0,-1,0,-1l1,0c-1,1,-1,1,-1,1c0,1,0,1,0,1l0,1c0,1,0,1,0,1c0,1,0,1,1,1c0,1,0,1,1,1c0,0,1,0,2,0c0,0,1,0,2,0c0,-1,1,-1,1,-2l1,0l0,-1l0,-1c-1,0,-1,-1,-1,-1c0,0,0,-1,0,-1l0,-1l-1,0l1,-2l0,1c0,0,1,0,1,0c0,0,0,1,0,1c0,0,0,1,0,1l0,1c0,0,1,0,1,0c0,1,0,1,0,1l0,1c0,1,-1,1,-1,2c0,0,0,1,-1,1c-1,1,-1,1,-2,2c-1,0,-1,0,-2,0ZM27.5,57.5l5,-2l-1,0l0,1l-4,2ZM106.5,66.5c-1,0,-1,0,-1,0c0,1,1,1,1,1c1,0,1,0,1,-1c-1,0,-1,0,-1,0ZM106.5,73.5c0,1,0,1,-1,1c-1,0,-1,0,-2,0c-1,0,-1,0,-2,0l-1,0c0,-1,0,-1,0,-1c1,0,1,1,1,1c0,0,1,0,1,0l1,0l0,-1c0,0,1,0,1,0c1,0,1,-1,2,-1c0,0,0,-1,0,-1c0,0,1,0,1,-1c0,-1,0,-1,0,-1c0,0,0,-1,0,-1l0,1c-1,0,-1,0,-1,0l-1,0c0,0,0,-1,0,-1c0,0,-1,0,-1,0l0,-1l0,-1c1,0,1,-1,1,-1c0,-1,0,-1,1,-1c1,0,1,0,1,0c0,0,1,0,1,1l0,1l0,1l0,1c0,1,0,1,0,1c0,1,0,2,-1,3l0,1c0,0,-1,0,-1,0ZM103.5,60.5l4,-2l0,1l-4,2ZM98.5,68.5l0,1l-1,0l1,0l1,0l-1,0ZM99.5,71.5l-1,0c0,0,-1,0,-1,0c0,0,-1,0,-2,0c0,0,-1,0,-1,0l0,-1c0,-1,0,-1,0,-1c0,0,1,0,1,0c1,0,1,0,1,0l1,-1c0,0,1,-1,1,-1c0,0,-1,0,-1,-1l-1,0c0,-1,-1,-2,-1,-2c0,0,-1,-1,-1,-2c-1,0,-1,0,-1,0c0,-1,-1,-1,-1,-1l-1,0c0,0,-1,0,-1,-1l0,-1c0,0,0,-1,0,-1l1,0l1,1c0,0,1,0,1,1c1,1,2,1,2,2c1,1,1,1,2,2c0,1,1,1,1,1c0,1,0,1,0,1c0,0,0,-1,1,-1c0,-1,0,-1,0,-2c0,-1,0,-1,0,-2l0,-1c0,-1,0,-1,0,-2c0,-1,0,-1,0,-1c0,-1,0,-1,1,-1l0,1c0,0,1,1,1,1l0,1c-1,0,-1,0,-1,0c0,0,0,1,0,1c0,0,0,1,0,1c0,1,0,1,0,2l0,1c0,0,-1,1,-1,2c0,0,0,1,0,1c0,1,0,1,0,1l0,1c0,1,0,1,0,1c0,0,0,1,0,1ZM96.5,54.5l5,-3c0,1,0,1,-1,1l-5,3ZM251.5,59.5l4,-2c0,1,0,1,0,1l-4,2ZM253.5,73.5l0,-1l0,-1l-1,-9l1,-2l1,11c0,0,0,1,0,1c-1,0,-1,1,-1,1ZM424.5,71.5l0,-1l0,-2l-1,-8l1,-3l1,11c0,0,0,1,0,1l0,1c-1,0,-1,0,-1,1ZM427.5,73.5l-4,2c0,-1,0,-1,0,-1l4,-2ZM288.5,118.5l0,-2l0,-1l0,-8l0,-3l1,11c0,0,0,1,0,1c0,1,-1,1,-1,2ZM291.5,120.5l-4,2c0,-1,0,-1,1,-1l3,-2ZM82.5,158.5c0,1,0,2,0,2l0,1l-1,0c0,1,0,1,0,1l1,0l0,1l-1,0l0,1c0,0,-1,0,-1,0l0,1c-1,0,-1,0,-2,0l-1,1l-1,0l-1,0l0,1l-1,0l0,1l-3,0l-1,0l-3,0l-2,0l-1,0l-1,-1c0,-1,0,-1,-1,-1c-1,0,-2,0,-2,-1l-1,0l-1,0l0,-1l-1,0l0,-1l-1,0l0,-1l1,0l-1,-1l0,-1l0,-1l0,-1l0,-1l0,-1l0,-1l0,-1l1,0l-1,-1l1,-1l1,0l0,-1l1,0l2,-1l1,0l1,-1l1,-1l0,-1l1,0l2,0l3,0l1,0l3,0l0,1l1,1l1,1l2,0l0,1l1,0l1,0l0,1l1,0c0,0,1,1,1,1l-1,1l1,0l0,1l0,1l0,1ZM74.5,168.5l0,-1l1,0l0,-1l1,0c0,0,1,0,1,-1l1,0c1,0,1,0,1,-1l1,0c0,0,0,-1,1,-1l1,0l0,-1l-1,0l0,-1l1,0l0,-1l0,-1l0,-1c0,-1,0,-2,0,-2c0,0,0,-1,0,-1l-1,0c0,0,0,-1,0,-1l1,-1c-1,0,-1,0,-2,-1l-1,-1l-2,-1l-1,0c-1,0,-1,0,-1,-1l-1,-1l-2,0l-1,0l-2,0l-2,0l-1,0l-1,0l-1,0l-1,1c0,1,0,1,-1,1l-1,1l-1,0l-1,0l-1,1c-1,0,-1,1,-2,1l1,1l-1,1l0,1l0,1c0,0,0,1,0,1l0,1l0,1l0,1c0,0,1,0,1,0l0,1l-1,0l1,1l1,1l1,0l0,1l1,0l1,0l1,1c1,0,1,0,1,0l1,1c0,1,0,1,1,1l2,0l3,0l1,0ZM79.5,153.5l-1,0l-1,-1c-1,0,-1,0,-1,0c0,-1,0,-1,0,-1l1,0l0,1c0,0,1,0,1,0l1,0l0,1ZM79.5,163.5l0,1l-1,0l-1,0l0,1l-1,0l0,-1c0,0,1,0,1,0l1,-1l1,-1l0,1ZM75.5,165.5l-1,1l-3,0l-1,0l-3,0l-2,0l-1,0c-1,0,-1,-1,-1,-1c0,0,0,-1,1,-1l1,0l2,0l3,0l1,0l3,0l1,0l0,1ZM75.5,151.5c0,0,0,1,-1,1l-3,0l-1,0l-3,0l-2,0l-1,0l-1,0l0,-1c0,0,0,-1,1,-1l1,0l2,0l3,0l1,0l3,0c1,0,1,0,1,1ZM74.5,154.5l0,-1c1,0,1,0,1,0c1,0,1,0,1,0c0,0,1,1,1,1l1,1l1,-1l0,1l1,0l0,1l0,1l0,1l0,1l0,1c0,1,0,1,-1,1l0,1l-1,-1l0,1l-1,0l-1,1l-1,0c0,0,-1,0,-1,0c0,0,0,-1,0,-1l-3,0l-1,0l-3,0l-2,0l-1,0l0,1l-1,0c-1,0,-1,0,-1,-1c-1,0,-1,0,-1,0l-1,0l0,-1l-1,1l0,-1l-1,-1l0,-1l0,-1c0,-1,0,-1,0,-1c0,0,0,-1,0,-1l0,-1l1,0c0,-1,0,-1,0,-1l1,1c0,0,1,0,1,-1l1,-1l1,0l1,0l1,1l2,0l3,0l1,0ZM74.5,162.5c0,0,1,0,1,0l1,0l1,0l0,-1c1,0,1,0,1,0l1,0l1,-1l0,-1l0,-1c0,-1,0,-1,0,-2c0,0,-1,-1,-1,-1l-1,0l-1,-1l-1,0l0,-1l-1,0l-1,0l0,1l-3,0l-1,0l-3,0l-3,0l0,-1l-1,0c0,0,-1,0,-1,0l0,1l-1,0c-1,1,-1,1,-1,1l-1,0l-1,1l0,1l0,1l0,1l0,1c1,1,1,1,1,1l1,0l1,0l0,1l1,0l1,0c0,0,1,0,1,0l1,0l2,0l3,0l1,0l3,0ZM72.5,157.5c0,0,1,0,1,1l0,1c0,0,0,1,0,1l-1,0c-1,0,-1,0,-1,0l0,-1c0,-1,0,-1,0,-1l1,0c0,-1,0,-1,0,-1ZM72.5,158.5l-1,0c0,1,0,1,0,1c0,0,0,1,1,1l1,-1l0,-1c0,0,-1,0,-1,0ZM69.5,157.5c0,0,1,0,1,1l0,1c0,0,0,1,0,1l-1,0c-1,0,-1,0,-1,0l0,-1c0,-1,0,-1,0,-1l1,0c0,-1,0,-1,0,-1ZM69.5,158.5l-1,0c0,1,0,1,0,1c0,0,0,1,1,1l1,-1l0,-1c0,0,-1,0,-1,0ZM59.5,153.5l0,-1l1,0l1,0l0,-1l1,0l0,1l-1,0l-1,1l-1,0ZM59.5,163.5l0,-1c1,1,1,1,2,1l0,1l1,0c0,0,0,1,0,1l-1,0c0,-1,-1,-1,-2,-1l0,-1Z" class="g1_17" />
<path fill-rule="evenodd" d="M249.5,503.5c0,0,-1,1,-1,1l-3,2c0,0,0,-1,0,-1l1,0ZM230.5,524.5l0,1l-3,1c0,0,0,-1,0,-1ZM236.5,510.5l0,1l-1,0c-1,1,-1,1,-2,1l-1,0c1,0,2,-1,3,-1c-1,-1,-1,-1,-1,-1c0,-1,0,-1,0,-2c1,0,1,0,1,0c1,0,1,0,1,1l0,1ZM235.5,509.5l0,1c0,0,0,-1,0,-1ZM213.5,512.5l0,1l-1,-1c-1,1,-2,2,-2,2c0,0,-1,0,-1,0c1,-1,2,-1,2,-2c0,0,0,-1,0,-1c0,0,0,-1,0,-1c0,-1,1,-1,1,-1c1,0,1,0,1,1c0,0,0,1,-1,1c1,0,1,1,1,1ZM212.5,511.5c0,-1,0,-1,0,-1l-1,0c0,0,1,1,1,1ZM222.5,522.5l-1,1l-2,-1l-1,1l-1,-1l1,-1l1,1l2,-1ZM216.5,517.5c-2,2,-7,3,-10,2c-1,-1,-1,-2,-1,-3c0,-1,0,-1,0,-2c0,0,1,-1,1,-1c0,1,0,1,0,2c0,1,0,1,2,2c3,1,6,0,9,-2c0,1,0,1,0,1c1,1,2,1,2,1c0,0,1,-1,1,-2c0,1,1,1,1,2l1,0l1,0c1,0,1,0,1,0c1,0,1,0,2,0c0,0,1,-1,2,-1c-1,-1,-2,-1,-2,-1c0,0,-1,0,-1,0c0,0,-1,0,-1,0c0,-1,0,-1,1,-2c0,0,1,0,1,0c1,0,1,0,2,0c1,1,2,1,3,1c1,0,1,0,2,0c0,1,0,1,0,2c-1,0,-1,0,-2,0c0,1,1,1,2,1c1,0,1,0,1,0c1,0,1,-1,2,-1c1,-1,1,-1,1,-1c1,0,1,0,1,0c1,1,1,1,1,1c1,1,4,2,4,0c0,-3,0,-6,0,-7c-1,-1,-1,-1,-1,-1c0,-1,1,-2,2,-3l0,1l-1,0c0,1,1,1,1,1c0,1,0,1,0,1c0,0,0,1,0,1c0,0,0,1,0,1c0,0,0,1,0,2c0,0,0,1,0,1l0,2c0,1,0,2,0,3c-1,1,-2,1,-4,1l-1,0c0,1,0,1,-1,1c-1,0,-2,-1,-2,-2c-1,2,-2,1,-3,1c-2,0,-2,-1,-2,-3c-1,0,-1,0,-2,1c-1,1,-2,1,-2,1c-1,1,-2,1,-3,1l-1,0l-1,0c-1,0,-1,0,-1,0c-1,-1,-1,-1,-1,-1c-1,2,-2,2,-4,-1ZM211.5,522.5l-1,2l-1,-2l1,-1ZM248.5,515.5c0,2,-1,4,-1,4l0,-12c-1,0,0,0,1,-1ZM229.5,522.5l-1,1l-2,-1l2,-1ZM238.5,518.5l0,-1c0,-1,0,-1,-1,-1c0,0,-1,1,-1,1c0,0,1,0,1,0c0,1,1,1,1,1ZM220.5,511.5c0,1,0,2,-2,2c0,0,1,-1,1,-1c1,0,1,0,1,-1c0,0,-1,0,-1,0c-1,0,-1,0,-1,0c0,-1,0,-1,0,-1c1,0,1,0,1,0c0,0,1,0,1,0c0,0,0,1,0,1ZM243.5,504.5c0,1,-1,1,-3,2l0,-1c1,0,1,0,2,0c0,-1,0,-1,0,-1c-1,0,-1,0,-1,0c0,0,-1,0,-1,-1l1,0c0,-1,0,-1,0,-1c1,0,1,1,1,1c1,0,1,0,1,1Z" class="g2_17" />
</svg>