<?xml version="1.0" encoding="UTF-8" standalone="no"?>
<!DOCTYPE svg PUBLIC "-//W3C//DTD SVG 1.1//EN"
"http://www.w3.org/Graphics/SVG/1.1/DTD/svg11.dtd">
<svg version="1.1" xmlns="http://www.w3.org/2000/svg" xmlns:xlink="http://www.w3.org/1999/xlink">
<defs>
<style type="text/css"><![CDATA[
.g1_30{
stroke: #1F1A17;
stroke-width: 1;
stroke-linecap: butt;
stroke-linejoin: miter;
}
]]></style>
</defs>
<path fill-rule="evenodd" d="M303.5,167.5l0,1c0,0,1,0,1,0l0,-1l0,-1l1,0l0,1c1,0,1,0,1,0l0,-1c0,1,0,1,0,1l0,1l-1,0l-1,0l0,1c-1,0,-1,0,-1,0l0,-1l0,-1ZM122.5,180.5c0,0,0,1,0,2l0,1l-1,0l0,1l1,0l0,1l-1,0c-1,0,-1,0,-1,1l-1,0c0,0,0,1,-1,1l-1,0l-1,1l-1,0l-1,1l0,1l-1,0l-1,0l-3,0c0,0,-1,0,-1,-1l-1,-1c-1,0,-2,-1,-3,-1l-1,0l0,-1l-1,0l0,-1l-1,0l-1,-1l1,0l0,-1l-1,-1l0,-1c0,0,0,-1,0,-1l0,-1c0,-1,0,-1,0,-1c0,0,0,-1,0,-1c1,0,1,-1,1,-1l-1,-1l1,-1l1,0l0,-1l1,0l1,-1l1,0l2,-1l1,-1c0,-1,1,-1,1,-1l3,0l1,0l1,0l0,1l1,0l0,1l1,0l1,1l1,0c1,0,1,1,1,1l1,0l1,1c0,0,1,0,1,1l-1,1l1,0l0,1l0,1l0,1ZM113.5,190.5l1,0l0,-1l0,-1l1,0l1,0c0,-1,1,-1,1,-1l1,0c0,0,1,-1,1,-1l1,0l0,-1l1,0l0,-1l1,0l-1,0l-1,0l1,-1l0,-1l1,0l0,-1l0,-1c0,-1,0,-2,0,-3l-1,-1l-1,-1l1,0l1,0c-1,0,-1,-1,-2,-1l0,-1l-1,0l-1,0l-1,-1l-1,0c-1,-1,-1,-1,-1,-1l-1,-1c0,0,-1,-1,-1,-1l-1,0l-1,0l-2,0l0,1l-1,0l-1,1l0,1l-2,0l-1,1l-1,0l-1,1c0,0,-1,0,-1,1l1,0l0,1l-1,0l0,1l-1,1l0,1l0,1l0,1l0,1l1,0c0,0,0,1,0,1l1,1l-1,0l0,1l1,0l0,1l1,0l1,1l1,0l2,1l1,0l0,1c1,0,1,1,1,1l3,0ZM119.5,175.5l-1,0l0,-1l-1,0l-1,0c0,-1,0,-1,0,-1l1,0l1,0c0,0,0,1,0,1l1,0ZM119.5,184.5l0,1l-1,0l0,1l-1,0l-1,0l0,1l0,-1l1,0l0,-1c1,0,1,0,1,-1l1,0ZM115.5,187.5l-1,0c0,1,0,1,0,1l-1,0l-1,0l-3,0c0,0,-1,0,-1,-1c0,-1,0,-1,0,-1c0,0,0,-1,1,-1l3,0l1,0l1,0l0,1l1,0ZM115.5,173.5l-1,1l-1,0l-1,0l-3,0c-1,0,-1,0,-1,0l0,-1c0,-1,0,-1,0,-1l0,-1l1,0l3,0l1,0l1,0c0,0,0,1,0,1l1,0l0,1ZM113.5,175.5l1,0c0,0,1,0,1,0c1,0,1,0,1,0c0,0,1,0,1,1l1,0l1,0l1,1l0,1l0,1l0,1c0,1,0,1,0,1l0,1c-1,0,-1,0,-1,1l-1,0l-1,0l0,1l-1,0l-1,0c-1,0,-1,0,-1,0l-1,0l-1,0l-3,0l-1,0l-1,0c0,0,-1,0,-1,0c0,0,-1,0,-1,-1l-2,0l-1,-2l0,-1c0,-1,0,-1,0,-1c0,-1,0,-1,0,-1l0,-1l1,0l0,-1l2,0l1,-1c0,0,1,0,1,0c1,0,1,0,1,0l1,0l3,0ZM114.5,184.5l1,0l1,0l1,0l0,-1c0,0,1,0,1,0l1,0l0,-1l1,-1l0,-1c0,-1,0,-1,0,-2c-1,-1,-1,-1,-1,-1c0,0,0,-1,0,-1l-1,1c0,0,-1,0,-1,-1l-1,-1l-1,0c0,0,-1,0,-1,0l0,1l-2,0l-3,0l0,-1l-1,0l-1,0c-1,0,-1,0,-1,0l0,1l-1,0c0,0,0,1,0,1l-1,-1c-1,0,-1,0,-1,1l0,1l-1,1l0,1l0,1l1,0l0,1c0,0,0,1,1,1l1,0l1,1l1,0c1,0,1,0,1,0c0,0,1,0,1,0l0,-1l3,0l0,1l1,0l1,0ZM112.5,178.5l1,0l0,1l0,1l0,1c0,1,0,1,0,1l0,-1c0,-1,0,-2,-1,-2ZM110.5,179.5c1,0,1,0,1,0l0,1l0,1l0,1l-1,0c0,0,-1,0,-1,0c0,0,0,-1,0,-1l0,-1l1,0l0,-1ZM110.5,180.5l0,1l-1,0c0,0,1,0,1,0l1,0l0,-1l-1,0ZM103.5,175.5l0,-1l1,0l1,-1l1,0l1,0l-1,0c0,0,1,1,1,1c-1,0,-1,0,-1,0l-1,0l-1,1l-1,0ZM103.5,184.5l1,0c0,0,0,1,1,1l1,1l1,0c-1,0,-1,0,-1,0l1,1l-1,0l0,-1c-1,0,-2,0,-2,-1l-1,0ZM211.5,182.5l0,-1l0,-1l0,-9l1,-2l0,11c0,0,0,1,0,1c0,1,0,1,-1,1ZM204.5,180.5l1,0c1,0,1,0,1,0c0,0,0,-1,0,-1l0,-2l0,-6l0,-1c-1,0,-1,0,-1,0c0,0,1,-1,1,-1l0,-1l0,1l1,0c0,1,0,1,1,1c-1,0,-1,1,-1,1l0,1c0,0,0,1,0,2c0,0,0,1,0,2c0,1,0,1,0,2l0,1l0,1c0,1,0,1,-1,1c0,1,0,1,0,1c-1,0,-1,0,-1,0c-1,0,-1,0,-1,0l-1,0c-1,0,-1,0,-2,0l-1,-1c0,1,0,1,-1,2c0,0,-1,-1,-1,-1l-1,0l-1,-1l-1,1c-1,0,-1,0,-1,0l-1,0l-1,0l-1,0c0,1,0,1,0,1c-1,1,-1,1,-1,1c0,1,0,1,-1,2l-1,1c-1,0,-1,0,-1,0l-1,0c0,0,0,1,-1,1c0,0,-1,-1,-2,-1c0,-1,0,-1,0,-1c0,0,0,1,1,1c1,0,1,0,2,-1l1,0c0,0,0,-1,1,-1l0,-1c1,0,1,0,1,0c0,-1,0,-1,0,-1c1,0,1,0,1,-1c0,0,-1,0,-1,0c-1,0,-1,0,-1,0c-1,0,-1,-1,-1,-1l0,-1c0,-1,0,-1,0,-1l0,-1c1,0,1,0,1,0c0,0,0,-1,0,-1c1,0,1,0,1,0l1,0c0,1,0,1,0,1l0,1c0,0,1,0,1,0c0,1,0,1,0,1c0,0,1,0,1,0l1,0l1,0l1,0c0,0,0,-1,1,-1c1,-1,2,-2,2,-2l1,1l1,1l0,1l1,0l1,0l1,0ZM204.5,164.5l1,0c0,0,1,0,1,0c1,0,1,0,1,0c1,0,1,0,1,0c0,0,0,1,0,1l-1,1c0,0,-1,0,-1,0c0,1,-1,1,-1,1l-1,0l0,-1l2,0c0,0,1,-1,1,-1l-1,0c-1,0,-1,0,-2,0c0,-1,0,-1,0,-1ZM200.5,181.5l-1,-1c0,-1,-1,-1,-1,-1l-1,0c0,0,0,1,1,1l1,0ZM197.5,166.5c0,0,1,0,1,-1l1,0c0,0,0,1,0,1c0,0,0,1,0,1c0,1,0,1,0,1l1,0l-1,1l-1,0l-1,1l-1,1l-1,0l1,-1c0,0,1,-1,1,-1l1,0l-1,-1l0,-1l0,-1ZM198.5,167.5l0,-1c0,1,0,1,0,1ZM187.5,173.5c0,-1,0,-1,1,-1l1,0l0,1l-1,0c0,0,-1,0,-1,0c0,1,1,1,1,1l1,0l1,0c0,1,0,1,0,1l-4,1c0,0,1,0,1,-1c0,0,-1,0,-1,-1ZM189.5,179.5c-1,0,-1,0,-1,0l0,1c1,0,1,0,1,0l1,0c-1,0,-1,0,-1,0c0,-1,0,-1,0,-1ZM184.5,168.5c0,0,1,-1,1,-1c1,0,1,0,1,0c1,0,1,0,2,0c0,1,0,1,0,1c0,1,0,1,0,1c0,0,-1,1,-1,1l-1,0l-1,0l-1,0l2,0c1,-1,1,-1,2,-1c-1,0,-1,-1,-1,-1c0,0,-1,0,-1,0c0,0,-1,0,-1,1c0,0,-1,0,-1,0c0,-1,0,-1,0,-1ZM181.5,182.5l-1,0l0,-1c0,0,-1,0,-1,0l-1,0c0,0,-1,1,-1,1l-1,0l-1,0c-1,0,-1,0,-1,0c0,0,-1,0,-1,0l0,-1c0,0,-1,0,-1,0c-1,0,-1,0,-1,0c0,1,-1,1,-1,1c0,0,-1,0,-1,0l-1,0l-1,0c0,1,0,1,0,1c0,1,-1,1,-1,1c0,1,0,1,-1,2l0,1c-1,0,-1,0,-1,0c0,0,-1,0,-1,0l-1,0c0,0,0,1,0,1l-1,0c0,0,-1,-1,-1,-1c-1,0,-1,0,-1,0c0,-1,0,-1,0,-1c0,0,0,1,1,1c1,0,1,0,2,-1c0,0,1,0,1,0c0,0,1,-1,1,-1l1,-1c0,-1,1,-1,1,-1l0,-1c-1,0,-1,0,-1,0c0,0,-1,0,-1,0c-1,0,-1,-1,-1,-1l0,-1c0,-1,0,-1,0,-1c0,0,1,0,1,-1c0,0,0,-1,1,-1c0,0,1,0,1,0c0,1,0,1,0,1l1,1c0,1,0,1,0,1c1,0,1,0,1,0c1,0,1,0,2,0c0,0,1,0,1,0c1,0,1,0,1,-1c0,0,1,0,1,0c0,1,0,1,0,1l1,0l1,0l1,0c1,0,1,0,1,0l1,0l0,-1c1,-1,1,-1,1,-2l1,0c1,0,1,0,1,0c0,1,1,1,1,2l0,1c0,0,0,1,0,1c0,0,-1,0,-1,1ZM179.5,179.5l1,1l1,0l0,-1c-1,0,-1,-1,-1,-1c0,0,-1,1,-1,1ZM180.5,185.5l-4,2c0,0,0,-1,1,-1l4,-2ZM171.5,178.5l-1,-1l1,-2l1,1ZM172.5,166.5l0,-1c0,0,1,0,1,0c1,0,1,1,1,1c0,0,0,1,0,1c-1,1,-1,1,-1,1l1,0l0,1l-1,0l-1,0l0,1c-1,0,-1,0,-1,0l0,1l-1,0c-1,0,-1,0,-1,0l1,-1l1,0c0,0,0,-1,0,-1l1,0l0,-1c-1,0,-1,0,-1,-1l1,-1ZM173.5,167.5l0,-1l-1,0c0,1,0,1,0,1l1,0ZM165.5,179.5l-1,0l0,1l1,0c1,0,1,0,1,0c-1,-1,-1,-1,-1,-1ZM145.5,180.5l-1,-1l1,-1l1,1ZM158.5,182.5l0,1c0,0,0,1,-1,1l-1,0c0,1,-1,1,-1,1c0,0,-1,0,-1,1c-1,0,-2,0,-3,0c-1,1,-2,1,-3,1c-1,0,-2,0,-2,0c-1,0,-2,0,-2,0c-1,0,-2,0,-2,0c-1,0,-1,0,-2,0c-1,0,-2,-1,-3,-1c0,0,-1,0,-2,0c-1,-1,-2,-1,-3,-2c-1,0,-2,-1,-3,-2c0,-1,0,-1,0,-1c0,0,1,1,1,1l1,0c1,1,1,1,2,1c1,1,1,1,2,1c0,0,1,0,1,0c1,1,2,1,2,1c1,0,2,0,2,0c1,0,1,0,2,0c1,0,1,0,2,0c0,0,1,0,2,0c0,0,1,0,2,0c1,0,1,0,2,0c1,0,2,-1,3,-1c1,0,2,0,2,-1c2,0,3,-1,3,-2l0,-1l-1,0c0,-1,0,-1,0,-1l0,-1c0,0,-1,0,-1,0l1,-2l1,2l0,1c0,0,1,0,1,0c0,1,0,1,0,1l0,1c-1,1,-1,1,-1,1ZM137.5,173.5l0,-1l3,-1l5,-1l5,-2l1,0l-1,1l-1,0l0,1l-2,0l-1,0l-6,2l-4,2ZM286.5,173.5l-1,-1l1,-2l1,1ZM289.5,180.5l0,1c-1,0,-1,0,-1,0c0,1,-1,1,-2,1c0,0,-1,0,-1,0l-1,0c-1,0,-1,0,-1,0c-1,0,-1,-1,-2,-2c0,1,0,1,0,2c-1,0,-1,0,-1,0l-1,0c0,0,-1,0,-1,0c0,0,-1,0,-1,0c0,-1,0,-1,0,-1c0,0,-1,0,-1,1c-1,0,-1,0,-2,0l-2,0c-1,0,-1,0,-1,0l0,-1l-1,0l-1,0c0,1,-1,1,-1,1l-1,0l-1,0c0,1,-1,1,-1,1c0,1,0,1,0,1c0,1,-1,1,-1,2l-1,1c-1,0,-1,0,-1,0c0,0,-1,0,-1,0c0,0,0,1,-1,1c-1,0,-1,-1,-2,-1l-1,0c0,-1,1,-1,1,-1c0,0,0,1,0,1c1,0,1,0,1,0c0,0,1,0,1,-1c1,0,1,0,2,0c0,0,0,-1,1,-1l0,-1c0,0,1,0,1,0c0,-1,0,-1,0,-1l0,-1c1,0,1,0,1,0c0,0,-1,0,-1,0l-1,0l-1,0c0,0,0,-1,0,-1l0,-1c0,-1,0,-1,0,-1l0,-1l1,0c0,0,0,-1,0,-1c0,0,1,0,1,0c1,1,1,1,1,1l0,1c1,1,1,1,1,1l1,0c0,0,1,0,1,0c0,0,1,0,1,0l1,0c0,-1,0,-1,0,-1l1,0l0,1c1,0,1,0,1,0l2,0c0,0,1,0,1,0c0,0,1,0,1,0l0,-1c1,0,1,0,1,0c0,1,0,1,1,1c0,0,1,0,1,0c0,0,1,0,1,0c0,0,1,0,1,-1l0,-1c0,-1,0,-1,0,-1l0,-7l1,-2l0,11l0,1l1,0l1,0l1,0c0,0,1,0,1,0c1,0,2,0,2,0c0,-1,0,-1,0,-1c1,0,1,0,1,0c0,0,0,-1,-1,-1c-1,1,-1,1,-1,1l-1,0c0,0,-1,0,-1,-1c0,0,0,-1,0,-1c0,0,0,-1,0,-1l0,-1c0,0,1,0,1,-1c0,0,1,0,1,0c0,0,1,0,1,0c0,0,0,1,1,1l0,1l0,1c0,1,0,1,0,2l0,1ZM286.5,176.5l0,1l1,0l1,-1c0,0,-1,0,-1,0c0,0,0,-1,0,-1l-1,0c0,0,0,1,0,1ZM285.5,166.5l4,-2l0,1l-4,2ZM280.5,161.5c0,-1,0,-1,0,-1c1,0,1,0,2,0c0,0,1,0,1,0c1,0,1,1,1,1c0,0,-1,1,-1,1c0,0,0,1,-1,1c-1,0,-1,0,-1,0l-1,0l1,-1c1,0,2,0,2,0c0,-1,-1,-1,-1,-1l-1,0l-1,0c0,0,0,1,-1,1l0,-1l1,0ZM278.5,185.5l-1,-1l-1,2l-2,-1l1,-2l2,1l0,-1l2,1ZM275.5,172.5l4,-2l0,1l-1,0l-4,2ZM271.5,177.5l-2,-1l0,1l-2,-1l1,-1l2,1l0,-1l2,0ZM268.5,169.5l4,-2l0,1l-1,0l-4,2ZM263.5,179.5l0,1c1,0,1,0,1,0c0,0,1,0,1,0c0,0,-1,0,-1,0c0,-1,0,-1,0,-1l-1,0ZM260.5,172.5l4,-2l0,1l-5,2ZM255.5,181.5c0,0,-1,0,-2,0c-1,0,-2,0,-4,0c-1,0,-2,0,-3,0c0,0,0,1,0,1c-1,0,-1,0,-1,0c-2,0,-3,0,-5,0c-1,0,-2,0,-3,0c-1,0,-2,0,-3,0l-1,0l-1,0c0,0,-1,0,-1,0c0,0,0,-1,-1,-2l1,2l-1,1c0,0,0,1,0,1c0,1,-1,1,-1,2c0,0,-1,0,-1,0c0,0,0,1,-1,1c0,0,-1,0,-1,0c-1,0,-1,0,-2,0l-1,0c-1,0,-1,0,-2,-1l0,-1c-1,0,-1,0,-1,-1c0,-1,0,-1,1,-2c0,0,0,-1,0,-1l1,-1l0,1l-1,1l0,1c0,0,0,1,1,2c0,0,1,0,2,0l1,0c1,0,2,0,3,0c0,-1,1,-1,1,-1c0,-1,1,-1,1,-1l0,-1l0,-3l-1,-1c0,0,0,-1,0,-1l0,-7l1,-2l1,11c0,0,0,1,0,1l1,0l1,0c0,0,1,0,1,0c2,0,3,0,3,0c1,0,2,0,4,0c1,0,2,0,4,0l1,0c1,0,2,0,3,0c2,0,3,-1,4,-1c2,0,3,0,3,0c0,-1,0,-1,-1,-1c-1,0,-1,0,-1,0c-1,0,-3,0,-5,0c-2,0,-4,0,-6,0c-1,1,-3,1,-4,1c-2,0,-3,-1,-4,-1c0,-1,0,-1,1,-2c0,0,0,-1,0,-1c0,0,1,0,1,-1c1,-1,2,-1,2,-2c1,-1,2,-1,3,-2l1,0l-1,2l-1,1c-1,0,-2,1,-2,1c-1,1,-2,1,-3,2c0,1,0,1,1,1l1,0l1,0l1,0c1,0,2,0,4,0c2,0,4,-1,6,-1c2,0,3,0,4,0c1,0,1,0,2,1c0,0,1,0,1,0l0,1c0,1,0,2,0,2c0,1,0,1,-1,1ZM240.5,166.5l0,1l1,0l0,-1l1,0l0,1c0,0,1,-1,1,-1l0,-1l0,1l0,1c0,0,0,1,-1,1l-1,0l0,-1l0,1c0,0,-1,0,-1,0l-1,0l0,-1l1,0l0,-1ZM244.5,163.5l-6,3c1,-1,1,-1,1,-1l5,-3ZM227.5,190.5l-4,2c0,0,0,-1,1,-1l4,-2ZM313.5,182.5l0,-1l0,-1l0,-9l1,-2l0,11c0,0,0,1,0,1c0,1,0,1,-1,1ZM309.5,182.5l-1,0c0,0,-1,0,-1,-1c-1,0,-1,-1,-1,-1c0,0,0,1,-1,1c0,1,-1,1,-1,1c-1,0,-2,0,-2,0c0,-1,-1,-2,-1,-3l0,1c0,0,0,1,-1,1c0,0,-1,0,-1,0c-1,0,-1,0,-2,0l0,-1c0,0,0,-1,0,-1c0,-1,1,-1,1,-1c0,0,1,-1,1,-1l1,-1l1,0l0,-1c0,-1,0,-1,1,-1l0,1l0,1l0,3c0,0,0,1,0,1c1,0,1,0,2,0l1,0c0,-1,0,-1,1,-1c0,-1,-1,-2,-1,-3c0,0,0,-1,0,-1c0,0,0,-1,0,-1l0,-1l1,-1l0,2l0,2l0,2l1,0c0,1,0,1,0,1c0,0,1,0,1,1l1,0c0,-1,1,-1,1,-1c0,0,-1,-1,-1,-1l0,-2l0,-1l-1,-1l1,0c0,0,0,-1,0,-1l0,-1c0,1,0,1,0,1c0,1,0,1,1,2l0,2c0,0,0,1,0,1c0,1,0,2,0,2c0,1,0,1,-1,1c0,0,0,1,0,1ZM301.5,177.5l-1,0c0,0,0,1,0,1c0,0,-1,0,-1,0c0,0,-1,1,-1,1c1,0,2,0,2,0c1,0,1,0,1,-1ZM352.5,178.5c-1,0,-1,0,-1,0c0,0,0,1,0,1l1,0c0,0,0,-1,0,-1ZM352.5,186.5c-1,0,-1,0,-1,0c0,0,0,1,-1,1c0,0,-1,0,-1,0l-1,0c0,0,-1,0,-1,-1c-1,0,-1,0,-1,0l1,0c1,0,1,0,1,0c0,0,1,0,1,0c1,-1,1,-1,1,-1c0,0,1,0,1,-1c0,0,1,0,1,0c0,-1,0,-1,1,-2c0,0,0,-1,0,-1c-1,0,-1,0,-1,0l-1,0c-1,0,-1,0,-1,0c0,0,0,-1,0,-1c0,0,0,-1,0,-1c0,-1,0,-1,1,-2l0,-1c0,0,1,0,1,0l1,0c0,0,0,1,0,1c0,0,0,1,1,1c0,0,0,1,0,1c0,0,0,1,0,1c0,1,0,1,0,1c0,1,-1,2,-1,3c0,0,0,1,-1,1c0,0,0,1,0,1ZM349.5,172.5l4,-2l0,1c0,0,-1,0,-1,0l-4,2ZM346.5,179.5c-1,0,-2,1,-3,1c-1,1,-2,1,-3,1c-1,1,-2,1,-3,1l-1,0l-1,0c0,-1,-1,-1,-1,-2c0,0,0,1,0,1c0,0,-1,0,-1,1l-1,0c1,0,1,0,1,0c0,0,1,1,1,1l1,0l0,1l-1,0l0,1l0,1c-1,0,-1,0,-2,1c0,0,-1,0,-2,1c-1,0,-2,0,-3,0c0,0,-1,0,-2,0c0,-1,-1,-1,-1,-1c-1,0,-1,-1,-1,-1c0,-1,0,-1,0,-1c0,0,0,-1,0,-1c0,-1,0,-1,0,-2c0,-1,1,-1,1,-2c0,0,1,0,1,0c-1,1,-1,1,-1,2c0,1,0,1,0,1c0,0,0,1,0,1c0,1,0,1,1,1c0,1,1,1,2,1c1,0,1,0,1,0c0,0,1,0,1,0c1,0,1,0,1,0c1,0,2,-1,2,-1c1,0,1,0,1,-1c0,0,-1,0,-1,0c-1,0,-1,0,-1,-1c-1,0,-1,0,-1,0c0,0,0,-1,0,-1l1,0c0,0,0,-1,0,-1l1,0c1,0,1,-1,1,-1c0,0,1,0,1,-1c0,-1,0,-1,0,-1l0,-1l-1,-7l1,-2l1,11l0,1c0,0,1,0,1,0l1,0c1,0,1,0,1,0c0,0,1,0,1,0c0,0,0,-1,-1,-1c0,-1,0,-1,0,-1c0,-1,0,-1,0,-1c0,0,0,-1,1,-1l0,-1c0,0,1,0,1,-1l1,0l1,0c0,0,1,0,1,0c1,0,1,1,1,1c0,0,1,0,1,0l-1,1l0,-1l-1,0l-1,0l-1,0c-1,0,-1,1,-1,1l-1,0c0,1,0,1,1,1c0,0,0,1,0,1c1,0,1,1,2,1c0,0,1,0,1,0c0,0,1,-1,1,-1l1,0l1,-1ZM337.5,169.5l5,-2l-1,1l-4,2ZM331.5,166.5l4,-2l0,1c0,0,-1,0,-1,0l-4,2ZM300.5,185.5l-3,2c0,0,0,-1,0,-1l4,-2ZM162.5,170.5l1,0c0,0,0,-1,1,-1c0,0,1,1,1,1c1,0,1,0,1,0l0,1c0,0,-1,0,-1,1c-1,0,-1,0,-1,0c-1,0,-1,0,-1,0l-1,0l1,0c1,0,2,-1,2,-1c0,0,-1,0,-1,0l-1,0l-1,0l-1,0l0,-1c0,0,1,0,1,0ZM72.5,126.5c0,0,0,1,-1,1l-1,0l-1,0l-1,0c0,-1,-1,-1,-1,-1c-1,-1,-1,-1,-1,-1c0,-1,1,-1,1,-2c0,-1,1,-1,1,-1l-1,0c0,0,-1,0,-1,0l0,-1c1,0,1,0,2,0l1,0l1,0l0,1c-1,0,-1,0,-2,0c0,0,0,1,-1,1l0,1c0,1,0,1,0,1c0,0,0,1,1,1l1,0l1,0ZM70.5,124.5l-1,0l1,0ZM105.5,135.5c0,0,-1,0,-1,0l-1,-1l-1,0l-1,0c0,0,0,1,0,1l-1,0l-1,0l-2,0c0,1,0,1,0,1c0,1,0,1,0,1c-1,1,-1,1,-1,2c0,0,-1,0,-1,0c0,1,0,1,-1,1c-1,0,-1,0,-1,0c0,0,-1,1,-1,1c-1,0,-1,-1,-2,-1l-1,0c0,-1,0,-1,0,-1c1,0,1,1,1,1c0,0,1,0,1,0c0,0,1,0,1,-1c1,0,1,0,1,0c1,0,1,-1,1,-1c1,0,1,0,1,-1c0,0,1,0,1,0c0,-1,0,-1,0,-1l0,-1c0,0,-1,0,-1,0c0,0,-1,0,-1,0c0,0,0,-1,0,-1l0,-1c0,-1,0,-1,0,-1l0,-1c1,0,1,0,1,0c0,0,0,-1,0,-1l1,0c0,1,1,1,1,1l0,1c0,1,0,1,0,1c1,0,1,0,2,0l1,0c0,0,1,0,1,0l1,-1c0,-1,0,-1,1,-2c0,0,1,0,1,0l1,0c0,1,0,1,0,2l0,1c0,0,0,1,0,1l0,1ZM103.5,132.5l0,1l1,0l0,-1c0,0,0,-1,-1,-1c0,0,0,1,0,1ZM100.5,122.5l4,-2l0,1l-4,2ZM95.5,132.5l0,1c0,0,-1,0,-1,0c0,0,1,0,1,0c0,0,1,0,1,0c0,-1,0,-1,0,-1c0,0,-1,0,-1,0ZM91.5,124.5l1,0c0,0,1,0,1,0c1,0,1,0,2,0l0,1c0,0,0,1,-1,1c-1,1,-1,1,-1,1c0,0,-1,0,-1,0c0,0,-1,0,-1,0l2,-1c0,0,1,0,1,-1c-1,0,-1,0,-1,0c-1,0,-1,0,-2,0c0,0,0,-1,0,-1ZM85.5,135.5c-1,0,-1,0,-1,0l0,-1c0,0,-1,0,-1,0c0,0,-1,0,-1,0c0,1,-1,1,-1,1c0,0,-1,0,-1,0l-1,0l-1,0c-1,0,-2,0,-2,-1c-1,0,-1,-1,-1,-1l0,-9l1,-2l0,10l0,1c1,0,1,0,2,0l1,0c1,0,1,0,2,0c0,0,1,0,1,0c0,0,1,0,1,-1c1,0,1,0,1,0c0,1,0,1,0,1c1,0,1,0,1,0c0,0,1,0,1,0l1,0c1,0,1,-1,1,-1l0,-2l-1,-6l0,-1c0,0,0,-1,0,-1c0,0,0,-1,1,-1l0,1c0,1,0,1,1,1c0,0,0,1,0,1c-1,0,-1,0,-1,1c0,0,0,1,0,2c0,0,0,1,0,2c0,1,0,1,0,2l0,1l0,1c0,1,0,1,0,1l-1,0c0,1,0,1,0,1l-2,0ZM82.5,131.5l-1,-1l1,-2l1,1ZM80.5,125.5l4,-2l0,1l-4,2ZM126.5,133.5l-1,0l-1,0c0,0,-1,0,-1,0l-1,0c-1,0,-1,0,-1,0c0,0,-1,0,-1,1l-1,0l-1,0l-1,0l-1,0c0,0,0,1,0,1c0,0,-1,1,-1,1c0,1,0,1,0,1c-1,1,-1,1,-1,1c-1,1,-1,1,-1,1c0,0,-1,0,-1,0l-1,0l-1,0c0,0,-1,0,-1,0c-1,0,-1,0,-1,0c0,-1,0,-1,0,-1l1,0l0,1c1,0,1,-1,2,-1c0,0,1,0,1,0c0,-1,1,-1,1,-1l1,-1l0,-1c0,0,1,0,1,0c0,0,0,-1,0,-1c0,0,-1,0,-1,0l-1,0c0,-1,-1,-1,-1,-1c0,-1,0,-1,0,-1l0,-1c0,0,1,-1,1,-1c0,-1,1,-1,1,-1c0,0,1,0,1,0c0,0,0,1,0,1c0,0,1,0,1,1c0,1,0,1,0,1c1,0,1,0,1,0c0,0,1,0,1,0l1,0c0,0,1,0,1,0c0,0,0,-1,0,-1c0,0,0,-1,0,-1l0,-1c1,0,1,0,1,0c0,0,0,-1,0,-1c0,0,0,-1,0,-1c0,0,1,-1,1,-1c1,0,1,0,2,1c1,0,1,1,2,1c0,1,0,1,1,2l0,1c0,1,0,1,0,1l0,1c-1,0,-1,0,-1,0ZM122.5,129.5c-1,0,-1,0,-1,1l0,1c0,0,1,0,1,0l1,0c0,-1,0,-1,0,-1c0,0,0,-1,0,-1c0,0,-1,0,-1,0ZM124.5,129.5l0,1c0,1,0,1,0,1l1,1l1,0c0,0,0,-1,0,-1c-1,0,-1,0,-1,-1l-1,0c0,0,0,-1,0,-1ZM119.5,115.5c0,-1,0,-1,0,-1c1,0,1,-1,1,-1c1,1,1,1,1,1l0,1l0,1l0,1l0,1l-1,-1l0,1l-1,0c0,1,-1,1,-1,1l-1,0l1,-1l1,0l0,-1l0,-1l0,-1ZM120.5,115.5c-1,0,-1,0,-1,0l1,0l0,1l0,-1ZM114.5,131.5c-1,0,-1,0,-1,0c0,0,0,1,0,1l1,0l1,0c0,0,0,-1,0,-1c0,0,-1,0,-1,0ZM110.5,124.5l4,-2l0,1l-4,2ZM157.5,134.5c0,0,1,0,1,0c0,0,1,0,1,0l0,-1c1,0,1,0,1,0l0,-2l-1,-7c0,-1,0,-1,0,-1c0,-1,0,-1,1,-1l0,1c0,0,1,0,1,1l0,1c0,0,-1,0,-1,0c0,1,0,1,0,2c0,0,0,1,0,3c0,0,1,1,1,1l0,1c0,1,0,1,-1,1c0,1,0,1,0,1l0,1l-1,0c0,0,-1,1,-1,1l-1,0l-1,0c0,0,-1,0,-1,0c0,0,0,-1,0,-1c0,0,-1,0,-1,0c0,0,0,-1,0,-1l-1,0l0,1c-1,0,-1,0,-1,0c-1,1,-1,1,-2,1l-1,0c-1,0,-2,-1,-2,-1c-1,0,-1,-1,-1,-2l-1,-8l1,-2l1,9l0,1c0,1,1,1,2,1l1,0c1,0,1,0,1,0c1,0,1,0,2,-1c1,0,1,0,1,0c1,0,1,0,1,0c0,0,0,1,0,1c0,0,1,0,1,0l1,0ZM158.5,120.5l4,-3l0,1l-4,3ZM153.5,131.5l-1,-1l0,-1l2,1ZM151.5,126.5l4,-2l0,1l-4,2ZM185.5,136.5l0,-1l0,-2l0,-8l1,-2l0,10c0,1,0,1,0,1l0,1l-1,1ZM181.5,135.5c0,0,-1,0,-1,0c0,0,-1,0,-1,0c0,-1,-1,-1,-1,-2c0,1,0,1,-1,2c0,0,-1,1,-1,1c-1,0,-1,-1,-2,-1c0,0,-1,-1,-1,-2c0,1,0,1,-1,1c0,0,-1,0,-1,0c-1,0,-1,0,-2,0l0,-1l0,-1c0,0,1,0,1,-1c0,0,1,0,2,-1l1,0l0,-1l0,-1l1,-1l0,2l0,1l0,2c0,0,0,1,0,1l1,0c0,1,0,1,1,1c0,0,1,0,1,-1c0,0,1,0,1,-1c0,0,0,-1,-1,-2c0,-1,0,-1,0,-2c0,0,0,-1,0,-1l0,-1l1,-1l0,3l0,2l1,1l0,1c0,1,1,1,1,1l1,0c1,0,1,0,1,-1l-1,-1l0,-1l0,-1l0,-1l0,-1l0,-1l0,1c1,0,1,1,1,1l0,2c0,1,0,1,0,2c0,1,0,1,0,2l-1,1ZM173.5,131.5c-1,0,-1,0,-1,0l-1,1l-1,1c1,0,2,-1,2,-1c1,0,1,0,1,0ZM239.5,134.5c-1,0,-1,0,-3,1c0,0,-1,0,-3,0c-2,0,-3,0,-3,0l-1,0c0,0,-1,0,-1,0c-1,0,-3,0,-4,1c-1,0,-3,0,-4,0c-1,0,-2,0,-2,0l-1,0l-1,0c-1,0,-1,0,-1,0c-1,-1,-1,-1,-1,-1c-1,-1,-1,-1,-1,-1c0,1,0,1,-1,1c0,0,0,1,0,1c-1,0,-1,0,-1,0l-1,0l-1,0c0,0,0,-1,0,-1c0,0,-1,0,-1,0l0,-1c0,0,0,1,0,1c-1,0,-1,0,-1,0c-1,0,-2,1,-2,1l-2,0c0,0,-1,0,-1,1l-1,0l-1,0l-1,0c-1,0,-2,0,-3,-1c-1,0,-2,0,-2,-1c-1,0,-1,0,-1,-1c0,0,0,-1,0,-1c0,-1,0,-1,0,-2c0,0,0,-1,1,-1c0,0,0,1,0,1c0,1,-1,1,-1,1c0,1,1,1,1,1c0,1,1,1,1,1c0,0,1,0,1,0l0,1c1,0,1,0,1,0c1,0,2,0,3,0c1,0,2,0,2,0c1,0,1,0,2,0l1,-1c1,0,2,0,2,-1c1,0,2,0,2,-1c0,0,0,1,0,1l0,1c0,0,1,0,1,0l1,0l1,0l1,-1c0,0,0,-1,0,-1l1,0l0,1c0,0,0,1,0,1c1,0,1,0,2,0l1,0c1,0,1,0,1,0c1,0,2,0,3,0c1,0,2,0,3,0c1,0,3,0,4,0l2,-1c1,0,2,0,3,0c1,0,3,0,4,0c1,0,2,0,2,0c0,0,1,0,1,0c0,0,0,-1,0,-1c-1,0,-1,0,-1,0c0,0,0,-1,-1,-1l-1,0c-1,0,-2,0,-4,1c-2,0,-4,0,-6,0c-2,0,-3,0,-4,0c-2,0,-4,0,-4,0l0,-1c0,0,0,-1,0,-1c0,-1,1,-1,1,-1c0,0,0,-1,1,-1c0,-1,1,-2,2,-2c1,-1,2,-2,3,-2l1,0l-1,2l-1,0c-1,1,-2,1,-3,2c-1,0,-1,1,-2,2c1,0,1,1,1,1c0,0,1,0,1,0c1,0,1,0,1,0c1,0,3,0,5,-1c2,0,4,0,6,0c1,0,3,0,3,0c1,0,1,0,1,0c0,0,1,0,2,0l0,1c0,0,1,0,1,0c0,0,0,1,0,1c0,1,0,1,0,2c-1,0,-1,0,-1,0ZM223.5,120.5l6,-3c0,1,-1,1,-1,1l-5,3ZM214.5,130.5l-1,-1l-1,1l-1,-1l0,-1l2,1l1,-2l1,1ZM211.5,123.5l5,-2l-1,0l0,1l-4,2ZM201.5,140.5l-2,-1l1,-1l2,1ZM200.5,123.5l4,-2l0,1l-4,2ZM260.5,135.5l-1,0l-1,0l-1,-1l-1,1l-1,1l-1,0l-1,0c-1,0,-2,-1,-2,-1c-1,0,-1,-1,-1,-2l-1,-8l1,-2l1,9l0,1c1,1,1,1,2,1l1,0l1,0c0,0,1,0,1,0l0,-1l1,-1c0,0,1,-1,1,-1c0,-1,1,-1,1,-1c0,0,1,0,1,1c0,0,0,1,0,1l1,1l0,1l-1,0c0,1,0,1,0,1ZM258.5,133.5l1,0l0,-1c-1,0,-1,0,-1,0c0,0,0,1,0,1ZM255.5,123.5l4,-2l0,1l-4,2ZM278.5,134.5l0,1c-1,0,-1,0,-1,0c1,0,1,0,1,0l0,-1ZM279.5,137.5c0,0,-1,0,-1,0c-1,0,-1,0,-1,0c-1,0,-1,0,-2,0c0,0,-1,0,-1,0l0,-1c0,-1,0,-1,0,-1c1,0,1,0,1,0c0,0,1,0,1,0l1,-1c0,0,0,-1,0,-1l0,-1c0,0,-1,0,-1,-1c0,0,-1,-1,-1,-1c0,0,-1,-1,-2,-2c-1,-1,-1,-1,-1,-1c0,0,-1,0,-1,0c-1,0,-1,0,-1,-1l0,-1c0,-1,0,-1,0,-1c0,-1,0,-1,0,-1l0,1c1,0,1,0,2,1c0,0,1,0,1,1c1,1,2,1,2,2c1,0,1,1,2,2c0,1,0,1,1,1c0,1,0,1,0,1c0,0,0,-1,0,-1c1,-1,1,-1,1,-2c0,-1,0,-1,0,-2l0,-1c0,-1,0,-1,0,-2c-1,0,-1,0,-1,0c0,-1,1,-1,1,-1c0,-1,0,-1,0,-1c0,1,0,1,0,1c1,0,1,0,1,0l1,1c0,0,-1,0,-1,1c0,0,0,1,0,1c0,0,0,1,0,1c0,1,0,1,0,2l-1,1c0,0,0,1,0,2c0,0,0,1,0,1c0,1,0,1,0,1l0,1c0,1,0,1,0,1c0,0,0,1,0,1ZM275.5,120.5l1,1c0,0,0,-1,1,-1l0,-1l0,1c0,0,1,0,1,0l0,-1l1,-1l0,1l0,1l-1,1l-1,0l0,1c-1,0,-1,0,-1,0c-1,0,-1,0,-1,0l0,-1l0,-1ZM280.5,117.5l-6,3c0,-1,0,-2,1,-2l5,-2ZM338.5,139.5l-1,-1l-1,1l-1,-1l0,-1l2,1l1,-1l1,0ZM335.5,134.5c1,0,1,0,2,0c0,0,1,0,1,-1c0,0,0,-1,0,-1c0,0,-1,-1,-1,-1l1,-2c0,1,0,1,0,1c0,0,1,1,1,1l0,1c0,1,0,1,0,1l0,1c-1,0,-1,0,-1,1c0,0,-1,0,-1,0c-1,1,-1,1,-2,1l-1,0l-11,0l-1,1c0,0,0,1,0,1l0,-1c0,0,0,-1,0,-1l-1,-1l0,-1l-1,0l0,1l-1,0c0,1,0,1,-1,1l-1,0c-1,0,-1,0,-1,0c0,0,0,-1,-1,-1c0,0,0,-1,0,-1c-1,0,-1,0,-1,0l0,1l-1,0l-1,1l-1,0c-1,0,-1,0,-1,0c0,0,-1,-1,-1,-1c0,0,0,-1,0,-1c0,1,-1,1,-1,1c-1,1,-1,1,-2,1l-1,0c-1,0,-1,0,-1,0c0,0,0,-1,-1,-1c0,0,0,-1,0,-1c-1,0,-1,0,-1,0l0,1l-1,0l-1,0c0,1,0,1,-1,1l-2,0c0,0,-1,-1,-2,-1c0,0,0,-1,0,-2l-1,-8l1,-2l1,9l0,1c0,1,1,1,1,1l2,0c0,0,1,0,1,0c1,0,1,0,2,-1c0,0,1,0,1,0c0,0,1,1,1,1l1,0l1,0c0,0,1,0,1,0c0,0,1,0,1,0c0,0,0,-1,0,-1l0,-1l0,-1l1,-1l0,-1l0,3c0,1,0,1,1,1c0,0,0,1,0,1l1,0c1,0,1,0,1,0c1,0,1,0,2,-1c0,0,1,0,1,0c0,0,1,1,1,1l1,0l1,0c1,0,1,0,1,0c0,0,1,0,1,0c0,-1,0,-1,0,-1c1,0,1,0,1,-1c0,1,0,1,1,2l1,-1l1,0l1,-1l1,-1c1,0,1,0,2,-1c0,0,1,0,1,0l1,0c0,0,1,0,1,0c1,0,1,1,1,1l0,1c0,0,0,1,0,1l0,1l-1,0l2,0l1,0l1,0ZM335.5,117.5c1,0,1,0,1,-1c0,0,1,0,1,0c1,0,1,1,1,1c0,0,0,1,0,1l-1,0c0,1,0,1,0,1l1,0l0,1l-1,0l-1,0l0,1c-1,0,-1,0,-1,0l-1,1l-1,0l1,-1l1,0c0,0,0,-1,0,-1l1,0l0,-1l-1,0l0,-1l0,-1ZM337.5,118.5l-1,-1c0,1,0,1,0,1l1,0ZM331.5,133.5c0,0,0,-1,0,-1c-1,0,-1,0,-2,0c-1,0,-1,0,-1,0l-1,0c0,0,-1,0,-1,1l-1,0l-1,1l1,0l1,0l1,0c0,0,1,0,1,0l1,0l1,0c0,0,0,-1,0,-1c1,0,1,0,1,0ZM327.5,139.5l-4,2c0,0,0,-1,0,-1l1,0l4,-2ZM315.5,139.5l-1,-1l-1,1l-1,-1l1,-1l1,1l1,-1l1,0ZM308.5,140.5l-1,-1l1,-1l1,0ZM307.5,126.5l4,-2l0,1c-1,0,-1,0,-1,0l-4,2ZM302.5,131.5l-2,-1l1,-1l2,1ZM300.5,126.5l4,-2l0,1c-1,0,-1,0,-1,0l-4,2ZM292.5,120.5l1,0l1,0c1,0,1,0,2,0l1,0c0,0,0,1,-1,1l-1,0l-1,0l-1,0l-1,0l-1,0c0,-1,1,-1,1,-1ZM358.5,134.5l1,0c1,0,1,0,1,-1l0,-2l0,-7c0,-1,0,-1,0,-1c0,-1,0,-1,0,-1c1,0,1,0,1,0c-1,0,-1,0,-1,1c0,0,1,0,1,0l1,1c0,0,-1,0,-1,1c0,1,0,1,0,2c0,0,0,1,0,3c0,0,0,1,0,1l0,1c0,1,0,1,0,1c0,1,0,1,0,1l0,1c-1,0,-1,0,-1,0c-1,0,-1,1,-1,1c0,0,-1,0,-1,0l-2,0l0,1l0,1c0,0,0,1,0,1c-1,1,-1,2,-2,2c0,0,-1,1,-2,1c0,1,-1,1,-2,1c0,0,-1,0,-2,-1c0,0,-1,0,-1,0c-1,-1,-1,-1,-1,-1c0,-1,-1,-2,-1,-2c0,-1,0,-1,1,-1c0,-1,0,-1,0,-1c0,0,0,-1,0,-1c0,0,0,-1,1,-1c0,0,0,1,0,1c0,0,0,1,0,1c0,0,-1,0,-1,0c0,0,0,1,0,1c0,0,1,1,1,1c0,0,0,1,0,1c1,0,1,0,1,0c1,1,2,1,3,1c0,0,1,0,2,-1c1,0,1,0,2,-1c0,0,0,-1,0,-1c0,0,0,-1,0,-1c0,0,0,-1,0,-1l0,-1l-1,0l1,-2c1,1,1,1,1,1l2,0ZM334.5,124.5l0,1l1,0l0,-1l1,-1l0,1c0,1,0,1,0,1c1,0,1,-1,1,-1l0,-1l0,1l0,1l0,1l-1,0l0,-1l-1,1l-1,0l0,-1l0,-1ZM359.5,118.5l1,1c0,0,0,-1,1,-1l0,-1l0,1c0,0,1,0,1,0l0,-1l1,-1l0,1l0,1l-1,0c0,1,0,1,0,1l-1,0c-1,1,-1,1,-1,1c-1,0,-1,0,-1,0c0,0,0,-1,0,-1l0,-1ZM364.5,115.5l-6,3c0,-1,1,-2,1,-2l5,-3ZM351.5,133.5l-1,-1l0,-1l2,1ZM386.5,126.5l-2,-1l0,1l-2,-1l1,-1l2,1l0,-1l2,0ZM387.5,134.5c0,0,-1,1,-1,1c0,0,-1,0,-2,1c0,0,-1,0,-1,0l-1,0l-1,0l-1,-1l0,-1l0,1l0,1c0,1,-1,1,-1,2c0,0,0,1,-1,1c0,1,0,1,-1,1l-1,0c0,1,0,1,-1,1c0,0,-1,0,-1,0l-1,0c-1,0,-1,0,-1,0c-1,0,-1,-1,-1,-1c-1,0,-1,-1,-1,-1c0,0,0,-1,0,-1c0,-1,0,-2,0,-2c0,-1,0,-1,0,-2l1,0l0,-1l0,1c0,1,0,1,0,1c0,1,-1,1,-1,1c0,1,1,2,1,2c1,1,1,1,2,1c0,0,1,0,1,0c1,0,2,0,3,-1c1,0,1,0,2,-1c0,-1,0,-1,0,-1l0,-3c0,0,0,-1,0,-1c0,-1,0,-1,0,-1l-1,-7l1,-2l1,10c0,0,0,1,0,1c0,1,1,1,1,1l1,0c1,0,2,0,3,0c0,0,1,-1,1,-1c1,0,1,0,1,-1l-1,-1c0,0,0,1,0,1c-1,0,-1,0,-1,0c-1,0,-1,0,-1,0c0,0,-1,0,-1,0c0,-1,0,-1,0,-1c0,-1,0,-1,0,-2l1,0c0,0,0,-1,0,-1c0,-1,1,-1,1,-1c1,0,1,0,1,1c0,0,1,0,1,1l0,1l0,1c1,0,1,1,1,1c0,1,-1,1,-1,1c0,0,0,1,0,1ZM384.5,130.5c0,0,1,0,1,0c0,0,1,0,1,0c0,0,-1,-1,-1,-1l-1,0c0,1,0,1,0,1ZM383.5,116.5c1,0,1,0,1,0c0,-1,1,-1,1,-1c1,1,1,1,1,1c0,1,0,1,0,1l-1,0l0,1l1,0l0,2l-1,-1l-1,0l0,1c-1,0,-1,1,-1,1l-1,0l-1,0l1,-1l1,0l0,-1l1,0l0,-1l-1,0l0,-1l0,-1ZM385.5,117.5l-1,-1l0,1l1,1l0,-1ZM371.5,117.5l1,0c0,0,1,0,1,0c1,0,1,0,1,0c1,0,1,0,1,0c0,0,0,1,0,1l-1,1c0,0,-1,0,-1,0c0,0,-1,1,-1,1l-1,0c0,0,0,-1,0,-1l2,0c0,0,1,-1,1,-1l-1,0c-1,0,-1,0,-2,0c0,-1,0,-1,0,-1ZM348.5,121.5c1,0,1,-1,1,-1c1,0,1,0,2,0c0,0,1,0,1,0c0,1,1,1,1,1c-1,1,-1,1,-1,1c0,1,0,1,-1,1l-1,0l-1,0l1,0c1,-1,1,-1,2,-1c0,0,-1,0,-1,0c0,-1,-1,-1,-1,-1c0,0,-1,0,-1,1l-1,0c0,-1,0,-1,0,-1ZM313.5,122.5c1,0,1,0,1,0c1,0,1,0,2,0c0,0,1,0,1,0c0,0,1,0,1,1c-1,0,-1,1,-1,1l-1,0c0,1,0,1,0,1l-1,0l-1,0l1,-1c1,0,1,0,2,-1c0,0,-1,0,-1,0c0,0,-1,0,-1,0c0,0,-1,0,-1,0l-1,1l0,-1l0,-1ZM168.5,124.5c1,-1,1,-1,1,-1c0,0,0,-1,1,-1l0,1c0,0,1,0,1,0c0,1,0,1,-1,1l0,1l1,1l0,1l-2,-1l0,1c-1,0,-1,1,-1,1l-1,0l-1,0l1,0l1,-1l0,-1l1,0l-1,-1l0,-1ZM170.5,124.5l-1,0l0,1l1,0l0,-1ZM86.5,117.5c0,-1,0,-1,0,-2c0,0,0,-1,0,-1l0,-1l1,1l0,1c0,0,0,1,0,1c0,1,-1,1,-1,1ZM176.5,119.5c0,0,0,-1,0,-1c0,-1,0,-1,0,-1l0,-1l1,1l0,1c0,1,0,1,0,1c0,0,-1,0,-1,0ZM175.5,121.5l0,1c1,0,1,0,1,0l0,-1l1,0l0,-1l0,1c1,0,1,0,1,0l0,-1c0,1,0,1,0,1l0,1l-1,0l-1,1c-1,0,-1,0,-1,0l0,-1l0,-1ZM284.5,133.5l0,-1l0,-1l-1,-8l1,-3l1,11l0,1c-1,1,-1,1,-1,1ZM286.5,135.5l-4,2c0,-1,1,-1,1,-1l3,-2ZM136.5,123.5l1,0ZM137.5,126.5l-1,0c-1,0,-1,0,-1,0c0,0,-1,0,-1,-1c0,0,0,-1,0,-1c0,0,0,-1,0,-1c0,0,0,-1,0,-1l1,-1l-1,0c0,-1,0,-1,0,-1l1,0l1,0c0,0,1,0,1,0c0,0,1,0,1,0l0,1l-1,0l-1,0c-1,0,-1,0,-1,0l0,1l-1,0l0,1c0,1,0,1,0,1l0,1c0,0,1,0,1,0c0,0,1,0,1,0l1,0l1,0l1,0ZM304.5,165.5c0,0,0,-1,0,-1c0,-1,0,-1,0,-1l0,-1l0,1c0,0,1,0,1,0l0,1c0,1,0,1,-1,1Z" class="g1_30" />
<path fill-rule="evenodd" d="M368.5,350.5l-4,2c0,-1,1,-1,1,-1l3,-2ZM96.5,299.5l-1,0l-1,0c0,0,-1,0,-1,-1l-1,0c0,0,0,1,0,1c-1,0,-1,0,-1,0c0,0,-1,0,-1,0c0,0,0,1,-1,1l-1,0l-1,0l-1,0c0,0,0,1,0,1c0,0,-1,1,-1,1c0,0,0,1,0,1c-1,0,-1,1,-1,1c-1,0,-1,0,-1,1c0,0,-1,0,-1,0l-1,0l-1,0c0,0,-1,0,-1,0c-1,0,-1,-1,-1,-1l1,0c1,0,1,0,2,0c0,0,1,0,1,-1c0,0,1,0,1,0c0,0,0,-1,1,-1c0,0,0,-1,0,-1c0,0,1,0,1,-1c-1,0,-1,0,-1,0l-1,0c0,0,0,-1,0,-1c0,0,-1,0,-1,0c0,0,0,-1,0,-1c0,-1,0,-1,0,-1c0,-1,1,-1,1,-1c0,0,0,-1,0,-1c0,0,1,0,1,0c0,0,1,0,1,0l0,1c0,0,1,0,1,0c0,1,0,1,0,1c0,0,0,1,0,1c1,0,1,0,1,0c0,0,1,0,1,0l1,0c0,0,1,0,1,0c0,-1,0,-1,0,-1c0,-1,0,-1,0,-1c0,0,0,-1,0,-1c1,0,1,-1,1,-1c0,-1,0,-1,0,-1l0,-1c0,0,1,0,1,0c1,0,1,0,2,1c1,0,1,1,2,1c0,1,0,1,1,2c0,1,0,1,0,1c0,1,0,1,0,1c0,0,0,1,0,1c-1,0,-1,0,-1,0ZM92.5,295.5c-1,0,-1,0,-1,0c0,1,0,1,0,1c0,0,1,1,1,1l1,-1c0,-1,0,-1,0,-1c0,0,-1,0,-1,0ZM94.5,295.5l0,1c0,1,0,1,0,1l1,1l1,0l0,-1c-1,0,-1,-1,-1,-1l-1,0c0,-1,0,-1,0,-1ZM89.5,281.5c0,-1,0,-1,0,-1c1,-1,1,-1,1,-1c1,0,1,0,1,0c0,1,0,1,0,1c0,1,0,1,0,1l0,1l0,2l-1,-1l-1,1c0,0,-1,1,-1,1l-1,0l0,-1l1,0l1,-1l0,-1l0,-1ZM90.5,281.5l0,-1c-1,0,-1,1,-1,1l1,0l0,1l0,-1ZM84.5,297.5c-1,0,-1,0,-1,0c0,0,0,1,0,1l1,0l1,0c0,-1,0,-1,0,-1c0,0,-1,0,-1,0ZM80.5,290.5l4,-2l0,1l-4,2ZM111.5,298.5l-1,1l-1,0c1,0,1,0,1,0l1,0ZM112.5,301.5c-1,0,-1,0,-2,0l-1,0c0,0,-1,0,-1,0c-1,0,-1,0,-1,0c-1,0,-1,0,-1,0l0,-1c0,-1,0,-1,0,-1c1,0,1,0,1,0l1,0c1,0,1,0,1,-1l1,0c0,0,0,-1,0,-1l-1,-1c-1,-1,-1,-2,-2,-2c0,0,0,-1,-1,-2c0,0,-1,0,-1,0c0,-1,0,-1,0,-1c-1,0,-1,0,-1,0c0,0,-1,0,-1,0l-1,-1l0,-1c0,0,0,-1,0,-1l1,0c0,0,1,0,1,1c1,0,1,0,2,1c0,1,1,1,2,2c0,1,1,1,1,2c1,1,1,1,1,1c0,1,1,1,1,1c0,0,0,-1,0,-1c0,-1,0,-1,0,-2c0,-1,0,-1,0,-2l0,-1c0,-1,0,-1,0,-2c0,-1,0,-1,0,-1c0,-1,1,-1,1,-1l0,1c1,0,1,1,1,1l0,1l-1,0c0,0,0,1,0,1c0,0,0,1,0,1c0,1,0,1,0,2l0,1c0,0,0,1,0,2c-1,0,-1,1,-1,1c0,1,0,1,0,1c1,0,1,0,1,1c0,1,0,1,0,1c0,0,0,1,0,1ZM350.5,377.5l0,1l1,0l0,-1l1,0c0,0,0,1,0,1c0,0,0,-1,1,-1l0,-1l0,1l0,1c0,0,0,1,-1,1l-1,0c0,0,-1,1,-1,1c0,0,0,-1,0,-1l-1,0l0,-1l1,-1ZM354.5,374.5l-6,3c1,-1,1,-1,1,-1l5,-3ZM352.5,285.5l-1,0l1,0l0,1c0,-1,1,-1,1,-1l0,-1l0,1c1,0,1,0,1,0l0,-1l0,-1l1,0l0,1l0,1c0,1,-1,1,-1,1l-1,0c-1,1,-1,1,-1,1c0,0,-1,0,-1,0l0,-1l0,-1ZM356.5,282.5l-6,3c0,-1,1,-2,1,-2l5,-3ZM108.5,284.5l0,1c1,0,1,0,1,0c0,0,0,-1,0,-1l0,-1l1,0l0,1c1,0,1,0,1,-1l0,1l0,1l-1,0l-1,0l0,1l-1,0l0,-1l0,-1ZM112.5,281.5l-5,3c0,-1,0,-2,0,-2l6,-2ZM133.5,301.5c0,0,0,-1,0,-1l-1,0l0,-1c0,0,0,-1,0,-1c0,0,0,-1,-1,-1c0,1,0,1,0,1c0,0,-1,0,-1,0l-1,0c0,0,-1,0,-1,0l-1,0l0,-1c0,-1,1,-1,1,-2c0,0,1,0,1,-1c0,0,1,0,1,0c1,-1,1,-1,1,-1l0,-2c0,0,0,1,1,1l0,1c0,0,0,1,0,1c0,1,0,1,0,2c0,0,0,1,0,1c1,0,1,1,1,1l0,1c0,0,1,0,1,1c0,0,1,0,1,0c0,0,0,-1,1,-1c0,0,-1,-1,-1,-2c0,-1,0,-2,0,-2c0,-1,0,-1,0,-1c0,-1,0,-2,0,-3c0,-1,0,-2,0,-3c0,-1,0,-1,0,-1c0,-1,0,-1,0,-1c1,0,1,0,1,0c0,1,0,1,0,1l1,1l0,1c-1,0,-1,0,-1,0c0,1,0,1,0,2c0,0,0,1,0,3c0,0,0,1,0,1c0,0,0,1,0,1c1,2,1,2,1,2c0,1,0,1,-1,1c0,0,0,1,0,1c0,1,0,1,0,1l-1,0c-1,0,-1,0,-1,0c-1,0,-1,0,-1,0ZM134.5,284.5l4,-3l0,1c-1,0,-1,0,-1,1l-4,2ZM131.5,294.5l0,1l-1,0l-1,1l1,0c1,0,1,0,1,0ZM200.5,298.5c0,0,-1,1,-3,1c0,0,-1,0,-3,0c-2,0,-2,0,-3,0c-1,0,-1,0,-2,0c-1,0,-3,0,-4,1c-1,0,-3,0,-4,0c-1,0,-2,0,-2,0l-1,0l-1,0c0,0,0,-1,0,-1c-1,0,-1,0,-1,-1l0,-1l-1,-8l1,-2l1,9c0,0,0,1,0,1c0,1,0,1,1,1c1,0,1,0,1,0c1,0,2,0,3,0c1,0,2,0,3,0c2,0,3,0,4,0l2,-1c1,0,2,0,3,0c1,0,3,0,4,0c1,0,2,0,3,0c0,0,0,-1,0,-1c0,0,-1,0,-1,0c0,0,0,-1,-1,-1l-1,0c-1,0,-2,0,-4,1c-2,0,-4,0,-6,0c-2,0,-3,0,-4,0c-2,0,-3,0,-4,0l0,-1c0,0,0,-1,0,-1c0,-1,1,-1,1,-1c0,0,0,-1,1,-1c1,-1,1,-2,2,-2c1,-1,2,-2,3,-2c0,0,1,0,1,0l-1,2l-1,0c-1,1,-2,1,-3,2c-1,0,-1,1,-2,2c1,1,1,1,1,1c1,0,1,0,1,0c1,0,1,0,1,0c1,0,3,0,5,-1c2,0,4,0,6,0c2,0,3,0,3,0c1,0,1,0,1,0c1,0,1,0,2,0c0,0,0,1,0,1c1,0,1,0,1,0c0,0,0,1,0,1c0,1,0,1,0,2c-1,0,-1,0,-1,0ZM184.5,284.5l6,-3c0,1,0,1,-1,1l-5,3ZM166.5,291.5l-1,-1l1,-1l1,1ZM168.5,293.5l-1,-1l-1,2l-2,-1l1,-2l2,1l0,-1l2,1ZM164.5,298.5l-1,0l0,1l-1,0c0,1,0,1,-1,1l-1,0c-1,0,-1,0,-1,0c-1,0,-1,0,-2,-1c-1,0,-1,1,-1,1c-1,0,-1,0,-2,0c-1,0,-1,1,-2,1c0,0,-1,0,-1,0c-1,0,-1,0,-2,0c-1,0,-3,0,-4,0c-1,-1,-1,-1,-2,-2c0,0,-1,0,-1,-1l0,-1c0,-1,0,-1,0,-1c1,-1,1,-1,1,-2c0,0,1,0,1,0c-1,1,-1,1,-1,1c0,1,0,1,0,1c0,1,0,1,0,1c1,1,1,1,2,1c0,1,1,1,2,1c1,0,2,0,3,0c1,0,1,0,2,0c0,0,1,0,1,0c1,0,1,0,1,-1c1,0,1,0,1,0l0,-1c0,-1,0,-1,0,-2c0,0,1,-1,1,-1c0,-1,0,-1,1,-1c0,0,1,0,1,0l1,0l0,1c0,0,0,1,0,1c0,1,0,1,0,1c0,0,0,1,0,1c0,1,-1,1,-1,1c0,0,1,0,1,0c0,0,1,0,1,0l1,0c1,0,1,0,1,0c1,0,1,0,1,-1c0,0,1,0,1,-1l0,1l1,1l1,0l1,0c0,0,0,-1,1,-1c0,0,0,-1,0,-1l1,-1l0,1l0,1c0,0,0,1,0,1l1,0l1,0l0,-1l-1,0l1,-1l1,1l0,1l-1,0l0,1c0,1,0,1,-1,1c0,0,-1,0,-1,0c0,-1,0,-1,-1,-1l-1,0l0,1l-1,0l-1,0c0,0,-1,0,-1,-1c0,-1,0,-1,0,-1ZM166.5,303.5l-5,2c1,-1,1,-1,1,-1l4,-2ZM156.5,291.5l-1,-1l0,-1l2,1ZM157.5,295.5l-1,0l0,1c0,1,0,1,1,1c0,0,1,0,1,0c0,-1,0,-1,1,-1c0,0,-1,-1,-1,-1l-1,0ZM148.5,287.5l4,-2l-1,0l0,1l-4,2ZM227.5,290.5l-2,-1l1,-1l2,1ZM229.5,298.5c0,0,0,1,-1,1c0,0,-1,0,-1,1c-1,0,-1,0,-2,0l-1,0c-1,0,-2,0,-2,-1c-1,0,-1,-1,-1,-2c0,0,0,-1,0,-1c0,-1,0,-1,0,-1l-1,1l0,1c0,1,0,1,0,1c0,0,-1,0,-1,1c-1,1,-1,1,-1,1c-1,0,-1,0,-2,1c0,0,-1,0,-1,0c-1,0,-1,0,-2,0l1,0c0,-1,1,-1,1,-1c1,0,1,0,1,-1c1,0,1,0,2,-1l1,0c-1,-1,-1,-1,-1,-1c0,-1,0,-1,0,-1c-1,0,-1,-1,-1,-1c-1,0,-1,-1,-1,-1c0,0,-1,-1,-1,-1c0,0,-1,-1,-1,-1l-1,0l-1,0c0,-1,-1,-1,-1,-1c0,-1,0,-1,0,-1c0,-1,0,-1,0,-1c0,0,0,-1,1,-1c0,1,1,1,2,1c0,1,1,1,1,2c1,0,1,1,2,2c0,0,0,1,1,1c0,1,0,1,1,2c0,0,0,1,0,1l0,-1c1,0,1,0,1,-1c0,0,0,-1,0,-1c0,-1,0,-1,0,-2l0,-3l1,-2l1,9c0,0,0,1,0,1c0,1,1,1,2,1l1,0c1,0,1,0,2,0c1,0,1,-1,2,-1l0,-1l0,-1c-1,1,-1,1,-1,1c-1,0,-1,0,-1,0c0,0,-1,0,-1,0l-1,0c0,-1,0,-1,0,-1c0,-1,0,-1,1,-2c0,-1,0,-1,0,-1c1,-1,1,-1,1,-1c1,0,1,0,1,1c1,0,1,0,1,1l0,1l1,1c0,0,0,1,0,1c0,1,0,1,-1,1c0,1,0,1,0,1ZM226.5,294.5l1,0c1,0,1,0,1,0l0,-1c-1,0,-1,0,-1,0c0,0,-1,0,-1,0ZM225.5,284.5l5,-3l-1,1l0,1l-4,2ZM217.5,284.5l5,-3c0,1,0,1,-1,1l-5,3ZM262.5,304.5l-1,-1l1,-2l1,1ZM260.5,300.5l-1,0l-11,0l-1,0l0,1c0,0,0,1,0,1l-1,0l0,-1l1,-1c-1,0,-1,0,-1,0c0,0,0,-1,0,-1c-1,0,-1,0,-1,0l0,-1l0,-1l-1,0l0,1c-1,0,-1,0,-1,0c0,0,-1,0,-1,0l0,1l-1,0c0,1,0,1,0,1c0,0,0,1,0,1c0,1,0,1,-1,1c0,1,0,1,0,1l-1,0c0,1,0,1,0,1l-1,0l-1,0l-1,0c-1,0,-1,0,-1,0c0,0,-1,0,-1,0l0,-1l1,1c0,0,1,0,1,0l0,-1l1,0c1,0,1,0,1,0c0,-1,0,-1,1,-1c0,-1,0,-1,1,-1c0,-1,0,-1,1,-2c0,0,0,-1,0,-1l-1,0l1,-2l1,0c1,0,1,0,1,0l1,0c0,-1,0,-1,0,-1c1,0,1,0,1,0l0,-1l0,1l1,1c0,1,0,1,0,1c0,0,0,1,0,1c0,0,1,0,1,0l1,-1c0,0,1,0,1,0l2,-2c0,0,1,0,2,-1l1,0l1,0c0,0,1,0,1,0c1,1,1,1,1,1l0,1c0,0,0,1,0,1l-1,1l2,0l1,0l1,0c0,0,1,0,1,0c1,0,1,0,1,-1l1,0l-1,0c0,0,0,-1,0,-1l0,-1l0,-2c1,1,1,1,1,1l0,1l0,1l0,1l0,1l0,1c-1,0,-1,0,-2,1c0,0,-1,0,-1,0ZM261.5,306.5l-3,2c0,-1,0,-1,0,-1l4,-2ZM250.5,292.5l-1,1l-1,-1l1,-1ZM256.5,297.5l0,-1l-1,0c0,0,-1,0,-1,0c0,0,-1,0,-1,0c0,0,-1,0,-1,0c0,0,-1,0,-1,1l-1,0l0,1l-2,0l2,0c1,0,2,0,3,0c1,0,1,0,1,0c1,0,1,-1,2,-1ZM250.5,284.5c0,0,1,-1,1,-1l1,0l0,1l0,1l0,1l1,0l-1,1l-1,-1l0,1c-1,1,-1,1,-1,1l-1,0l-1,0l1,0l0,-1c1,0,1,0,1,0l1,-1l-1,0c0,-1,0,-1,0,-1c0,-1,0,-1,0,-1ZM251.5,284.5l0,1l1,0l-1,-1ZM239.5,288.5l0,1c1,0,1,0,1,0l0,-1c0,1,0,1,1,1l0,-1l1,-1l0,1l0,1c0,1,-1,1,-1,1c-1,0,-1,0,-1,0c-1,0,-1,1,-1,1c0,0,-1,0,-1,-1l0,-1l0,-1ZM235.5,311.5l5,-2c0,0,-1,0,-1,1l-5,3ZM236.5,308.5l5,-2c0,0,0,1,0,1l-5,2ZM288.5,300.5l0,-1l0,-2l-1,-8l1,-2l1,10c0,1,0,1,0,1c0,0,-1,0,-1,1c0,0,0,1,0,1ZM283.5,299.5c-1,0,-1,0,-2,0c0,0,-1,-1,-1,-2c0,1,0,1,0,2c-1,0,-1,1,-2,1c-1,0,-1,0,-2,-1c0,0,0,-1,-1,-2c0,1,0,1,0,1c-1,0,-1,0,-2,0c-1,0,-1,0,-1,0c-1,0,-1,0,-1,0c0,-1,0,-1,0,-2c1,0,1,0,1,-1c1,0,1,0,2,0l1,-1l0,-1l0,-1c1,0,1,0,1,-1l0,2l0,1l0,2c0,0,0,1,0,1c1,0,1,0,1,0c0,1,1,1,1,1c0,0,1,0,1,-1c0,0,1,0,1,-1c0,0,0,-1,0,-2c0,0,0,-1,-1,-1c0,-1,0,-1,0,-1c0,0,0,-1,0,-1l1,-1l0,-1l0,3l1,2l0,1l0,1c0,1,1,1,1,1l1,0c0,0,1,0,1,0c0,-1,0,-1,0,-2l-1,-1l0,-1l0,-1l0,-1l0,-1c0,0,1,1,1,1c0,0,0,1,0,1l0,2c1,1,1,1,1,2c0,1,-1,1,-1,2l0,1c-1,0,-1,0,-1,0ZM275.5,295.5c0,0,-1,0,-1,0c0,0,0,1,0,1c-1,0,-1,0,-1,1c0,0,1,0,2,-1ZM353.5,303.5l-1,-1l-1,1l-1,-1l1,-1l1,1l1,-1l1,0ZM351.5,300.5l-1,0l-1,0c-1,0,-1,0,-2,-1l-1,0c0,0,0,1,-1,1c0,0,-1,0,-1,0l-1,-1l-1,-1l-1,1c-1,1,-1,1,-1,1l-1,0l-1,0l-1,0l0,-1l-1,0l0,-1c-1,0,-1,1,-1,1c-1,0,-1,0,-1,0c-1,0,-2,0,-2,-1l0,1c-1,0,-1,1,-2,1c-1,0,-1,-1,-2,-2c0,0,0,1,0,1c-1,0,-1,1,-2,1l-1,0l-1,0l0,-1c-1,0,-1,0,-1,-1c0,0,-1,1,-1,1c0,0,-1,0,-1,0c-1,0,-1,0,-2,-1l0,1c-1,0,-1,1,-1,1l-1,0c-1,0,-1,-1,-2,-2c0,0,0,1,0,1c-1,0,-1,1,-2,1l-1,0l-1,0c0,0,0,-1,-1,-1c0,-1,0,-2,0,-3c0,1,-1,1,-1,2c-1,0,-1,1,-2,1c-1,0,-1,0,-1,1l-1,0l-1,0l-1,0l-1,0l-1,0l-1,0c-1,0,-1,0,-1,0l-1,0c-1,0,-2,0,-2,-1c-1,-1,-1,-1,-1,-2l0,-1l0,-1l1,-1c0,1,0,1,0,1c0,1,1,2,2,3c0,0,1,0,2,0c0,0,1,0,2,0l1,0l1,0l1,0c3,0,4,-1,5,-3l-1,-7l1,-2l1,10c0,1,0,1,0,1l0,1c0,0,1,0,1,0l1,0l1,0c1,-1,2,-1,2,-2l0,1c0,1,1,1,1,1c1,0,1,0,2,0c0,-1,0,-1,1,-1l0,-1c0,0,0,1,0,1c1,0,1,1,1,1c1,0,1,-1,1,-1l1,0c0,0,0,-1,0,-1c1,1,1,2,2,2l1,0l1,0c1,-1,1,-1,2,-2l0,1c0,1,1,1,1,1c1,0,1,0,2,0c0,-1,0,-1,0,-1l1,-1c0,0,0,1,0,1c0,0,1,1,1,1c0,0,1,-1,1,-1c1,0,1,-1,1,-1c0,1,1,2,2,2l1,0l1,0l1,0l0,-1l1,-1c1,-1,2,-1,2,-1l1,1l1,1l1,1l1,0l1,0l1,0l1,0c0,0,1,0,1,0c1,0,1,0,1,-1c0,0,0,-1,0,-1c0,0,0,-1,-1,-1l1,-2c0,1,0,1,0,1c0,0,1,0,1,0c0,0,0,1,0,1l0,1l0,1l0,1c0,0,-1,0,-1,1l-1,1c0,0,-1,0,-1,0ZM346.5,298.5l-1,-1c0,0,-1,-1,-1,-1l-1,0l0,1l1,1l1,0ZM342.5,284.5c0,0,1,0,1,0c1,0,1,0,1,0c1,0,1,0,2,0l0,1c0,0,0,1,0,1c0,0,-1,0,-1,1c0,0,-1,0,-1,0l-1,0l-1,0l2,-1c1,0,1,0,2,-1c-1,0,-1,0,-1,0c0,0,-1,0,-1,0c0,0,-1,0,-1,0c0,0,-1,0,-1,1l0,-1l0,-1ZM331.5,287.5l4,-2l0,1l-4,2ZM316.5,289.5c1,0,1,0,1,-1c1,0,1,0,2,0c0,0,1,0,1,1c0,0,1,0,1,0c-1,1,-1,1,-1,1c0,1,0,1,-1,1l-1,0l-1,0l1,0c1,-1,1,-1,2,-1c0,0,-1,0,-1,0c0,0,-1,0,-1,0c0,0,-1,0,-1,0c0,0,-1,0,-1,0c0,0,0,-1,0,-1ZM303.5,295.5c0,0,-1,0,-1,0c-1,0,-1,0,-1,0c0,0,-1,0,-1,0l1,0l1,-1c1,0,1,0,1,0l-1,0c-1,0,-1,-1,-1,-1c0,0,0,-1,0,-1c1,-1,1,-2,2,-3l0,2c-1,0,-1,0,-1,1l1,0c1,0,1,1,1,1c0,0,0,1,0,1l-1,1ZM300.5,287.5l4,-2l-1,1l-4,2ZM381.5,296.5c0,1,0,1,1,1l0,-1l-1,0ZM381.5,303.5c0,1,0,1,0,1c0,0,-1,0,-1,0c0,0,-1,1,-1,1l-1,0c0,0,-1,-1,-1,-1c-1,0,-1,0,-1,0c0,-1,0,-1,0,-1c0,0,0,1,1,1c1,0,1,0,1,0c0,0,1,0,1,-1c0,0,1,0,1,0c0,0,1,-1,1,-1c0,0,1,-1,1,-1l0,-1c1,-1,1,-1,1,-1c0,0,0,-1,0,-1l-1,1l-1,0c-1,0,-1,0,-1,-1l0,-1l0,-1c0,0,0,-1,0,-1c1,-1,1,-1,1,-1c0,0,1,0,1,0l1,0l0,1l0,1c1,0,1,0,1,1l0,1l0,1c0,1,-1,2,-1,3l-1,1l-1,0ZM379.5,290.5l4,-2l0,1c-1,0,-1,0,-1,0l-4,2ZM366.5,294.5l-1,-1l1,-2l1,1ZM366.5,303.5c0,0,-1,0,-1,0c-1,0,-1,-1,-2,-1c0,0,0,-1,-1,-1c0,-1,0,-1,0,-2c0,0,0,-1,0,-1l0,-1l1,-1c0,-1,0,-1,0,-1l1,0c0,1,-1,1,-1,1c0,1,0,1,0,1l0,1c0,1,0,1,0,1c0,1,0,1,1,1c0,1,1,1,1,1c0,0,1,0,2,0c0,0,1,0,2,0c0,-1,1,-1,1,-2c1,0,1,0,1,0l0,-1l0,-1c0,0,0,-1,-1,-1c0,0,0,-1,0,-1l0,-1l-1,0l1,-2l1,1c0,0,0,1,0,1c0,0,0,1,0,1l1,1c0,1,0,1,0,1l0,1c0,1,0,1,-1,2c0,0,0,1,-1,1c0,1,-1,1,-2,2c0,0,-1,0,-2,0ZM127.5,290.5l0,-1l0,-1c-1,-1,-1,-1,0,-2c0,0,0,-1,0,-1l1,-1c0,0,1,0,1,0l-1,1l-1,1l0,1c0,0,0,1,0,1c0,0,1,0,1,0l1,0l0,1c0,1,0,1,0,1c0,0,-1,0,-1,0c0,0,-1,0,-1,0ZM363.5,284.5c1,-1,1,-1,1,-1c1,0,1,0,2,0c0,0,1,0,1,0c0,0,1,1,1,1c-1,0,-1,1,-1,1l-1,1c-1,0,-1,0,-1,0l-1,0l1,-1c1,0,1,0,2,-1c0,0,-1,0,-1,0l-1,0c0,0,-1,0,-1,0c0,0,0,1,-1,1l0,-1ZM271.5,289.5c0,0,0,-1,1,-1l1,0l0,1l0,1l0,1l0,1l-1,-1l0,1l-1,0c0,1,0,1,-1,1l-1,0l1,0l0,-1c0,0,1,0,1,0l1,-1l-1,0c0,-1,0,-1,0,-1c0,-1,0,-1,0,-1ZM272.5,289.5l0,1l0,-1ZM101.5,390.5c0,1,0,2,0,2c0,0,-1,1,-1,1l0,1l-1,0l2,0l0,1l-1,0l-1,1l-1,0l0,1c0,0,-1,0,-1,0l-1,1l-1,0l-1,0l0,1l-1,0l0,1l-1,0l0,1l-4,0l-2,0l-1,0l0,-1c-1,0,-1,0,-1,0l-1,-1c0,0,0,-1,-1,-1c-1,0,-1,0,-2,-1l-1,0l-1,0l0,-1l-1,-1l-1,0l0,-1l1,0l0,-1l-1,0l0,-1l0,-1l0,-1l0,-1c0,-1,0,-1,0,-2l1,0l0,-1l-1,0c0,-1,0,-1,0,-1l1,0l1,-1l1,-1l1,0l1,-1l1,0l1,0l0,-1l1,-1l1,0l0,-1l1,0l2,0l4,0l0,1l1,0l0,1l1,0l0,1l2,0l1,1c0,0,1,0,1,0l0,1l1,0c1,1,1,1,2,1c0,1,0,1,0,1l-2,0l1,0l0,1l1,1l0,1ZM92.5,400.5l1,-1l1,-1c1,0,1,0,1,0l1,0l0,-1l1,0l1,0l0,-1c1,0,1,0,1,0l0,-1l1,0l-1,-1l1,-1l0,-1l1,-1l0,-1c0,-1,-1,-2,-1,-2l0,-1l0,-1l-1,0l1,-1c0,0,-1,0,-1,-1l-1,0l-1,-1l-1,0l-2,-1l-1,0l0,-1l-1,-1l-4,0l-2,0l-1,0l-1,0l0,1l-1,1l-1,0l-1,1l-1,0l-1,0l0,1l-1,0c-1,1,-1,1,-2,1l1,1l1,0l-1,0l0,1l-1,1l0,1c0,0,0,1,0,1l0,1l0,1l1,1l0,1l1,0l-2,1l1,0l1,1l1,1l1,0l1,0l0,1l1,0c1,0,1,0,1,1l1,0l0,1c0,0,1,0,1,0l1,0l2,0ZM98.5,385.5l-1,0l0,1l0,-1l-1,0l0,-1l-1,0c-1,0,-1,0,-1,0l0,-1l1,0l0,1l1,0c1,0,1,0,1,0l0,1ZM98.5,395.5l-1,0l0,1l-1,0l0,1l-1,0l-1,0c0,-1,0,-1,0,-1c1,0,1,0,1,0l1,0c0,-1,1,-1,1,-1ZM93.5,397.5c0,0,0,1,0,1c0,0,-1,0,-1,0l-4,0l-2,0l-1,0c-1,0,-1,0,-1,0l-1,0c0,-1,0,-1,0,-1c0,0,0,-1,1,-1l1,0l1,0l2,0l4,0l1,0l0,1ZM93.5,383.5c0,0,0,1,0,1c0,0,-1,0,-1,0l-4,0l-2,0l-1,0c-1,0,-1,0,-1,0l-1,0l0,-1c0,0,1,-1,1,-1l1,0l1,0l2,0l4,0c0,0,1,0,1,0l0,1ZM92.5,386.5l0,-1l1,0l1,0l1,0c0,1,0,1,1,1l0,1l1,-1c0,0,1,1,1,1l0,1l1,1l0,1l0,1l-1,1c0,1,0,1,0,1c0,0,0,1,-1,1l-1,-1c0,0,0,1,0,1l-1,0l0,1l-1,0l-1,0c-1,0,-1,0,-1,-1l-4,0l-2,0l-1,0l-1,0l0,1l-1,0c-1,0,-1,0,-1,0c-1,0,-1,-1,-1,-1l-1,-1l-1,1l0,-1l-1,-1l0,-1l0,-1c0,0,0,-1,0,-1l0,-1l0,-1l1,0c0,0,0,-1,0,-1l1,1c0,0,1,0,1,-1l1,0c0,-1,1,-1,1,-1c0,0,1,0,1,0l0,1l1,0l1,0l2,0ZM92.5,394.5l1,0c0,1,0,1,0,1l1,0c1,0,1,-1,1,-1l1,-1l1,0l1,0l0,-1l0,-1l0,-1c0,-1,0,-1,0,-2l0,-1c-1,0,-1,0,-1,0l-1,0l-1,-1l-1,0l0,-1c-1,0,-1,0,-1,1l-1,0l-4,0l-2,0l-1,0l-1,0l-1,-1l-1,1l-1,0l0,1c0,0,-1,0,-1,0l-1,0l0,1l-1,1l0,1c0,0,0,1,0,1l0,1l1,0c0,1,0,1,0,1l1,0c0,0,1,0,1,1l1,0l0,1l1,0c0,0,1,0,1,-1l1,0l1,0l2,0l4,0ZM90.5,393.5c0,0,0,-1,0,-1l-1,-1l0,-1l-1,-1l0,-1l1,1l1,1l0,1l0,-1l1,-1c0,0,0,-1,1,-1l-1,1c0,0,0,1,0,1l-1,2c0,0,0,1,0,1ZM87.5,392.5l-1,0l1,-1l1,0ZM85.5,388.5l0,1l1,0c0,1,0,1,0,1l0,1l0,1c0,0,0,1,0,1c0,0,-1,0,-1,-1l1,0c0,-1,-1,-2,-1,-3ZM79.5,385.5l1,-1l1,0l0,-1l1,0l0,1l-1,0l0,1l-1,0l0,1l-1,-1ZM79.5,395.5l1,0l1,1l1,0l0,1l-1,0c0,0,-1,-1,-1,-1l-1,0l0,-1ZM154.5,393.5l0,-2l0,-1l-1,-8l1,-3l1,11c0,0,0,1,0,1l-1,0c0,1,0,1,0,2ZM146.5,391.5c0,0,1,0,1,0c0,0,1,0,1,0c0,0,0,-1,1,-1l0,-2l-1,-7c0,-1,0,-1,0,-1c0,-1,1,-1,1,-1c0,1,0,1,0,1c0,0,1,0,1,0c0,1,0,1,0,2l-1,0c0,1,0,1,0,2c0,0,0,1,1,3c0,0,0,1,0,1l0,1c0,0,0,1,0,1l-1,0c0,1,0,1,0,1l0,1c-1,0,-1,0,-1,0l-1,0c0,0,0,1,0,1l-1,0l-1,-1l0,1l0,1c0,0,0,1,-1,2c0,1,-1,1,-1,1c0,1,0,1,-1,1l-1,0l-1,0c-1,0,-1,0,-2,0l-1,-1c0,0,1,0,1,0l1,0c0,0,1,0,1,0c1,0,1,0,2,0c0,-1,0,-1,0,-1c1,0,1,-1,1,-1c0,0,1,0,1,-1c0,0,0,-1,0,-1c1,0,1,-1,1,-1l-1,0c0,-1,0,-1,0,-1l0,-1c0,0,1,0,1,0l0,1l1,0ZM141.5,381.5l0,1l1,0l1,0l0,-1l0,1c0,0,1,0,1,0c0,0,0,-1,0,-1l0,-1l1,0l0,1l0,1l-1,0c0,0,0,1,0,1l-1,0l0,-1l0,1c-1,0,-1,0,-1,0c-1,0,-1,0,-1,0l0,-1l0,-1ZM146.5,378.5l-6,3c0,-1,1,-1,1,-1l5,-3ZM137.5,390.5l-2,0c0,0,-1,0,-2,0c-1,0,-1,0,-1,0l-1,1l-1,0c0,0,-1,1,-1,1c0,0,-1,0,-1,0c-1,0,-2,1,-2,1l-1,0c-1,0,-1,0,-1,-1c-1,0,-1,0,-1,0c0,-1,-1,-1,-1,-1c0,1,0,1,-1,1c0,0,0,1,-1,1l-1,0c-1,0,-1,-1,-1,-1c-1,0,-1,0,-1,0c0,0,0,1,-1,1c-1,0,-1,0,-2,0c0,0,-1,-1,-1,-1l0,1l-1,0c0,1,0,1,-1,1c0,1,-1,1,-2,1c-1,0,-2,0,-4,0l5,-1l1,-1c1,0,1,-1,1,-1l1,-2c0,-1,1,-1,1,-1l1,-1c1,0,1,1,1,1c1,1,1,1,2,2c1,0,1,0,1,0l1,0l1,0l1,-1c0,0,0,-1,0,-1l1,0l0,1l1,1l1,0l1,0c1,0,1,0,2,0c0,-1,1,-1,1,-1l2,0l1,-1l-2,0l-1,-1l-1,0c-1,0,-1,0,-1,0l-1,0c0,0,1,-1,1,-1l1,0c0,-1,0,-1,0,-1c1,0,1,0,1,0c0,1,1,1,1,1l2,1l1,0c1,0,1,0,1,0c0,0,1,0,1,0c1,0,1,0,2,0l1,0ZM130.5,396.5l-4,2c0,-1,0,-1,0,-1l4,-2ZM124.5,396.5l-2,-1l-1,1l-1,-1l1,-1l1,1l1,-1l2,0ZM116.5,391.5l-1,0l0,-1c0,0,-1,0,-1,0c0,1,0,1,1,1ZM112.5,380.5c1,0,1,0,1,-1c0,0,1,0,1,0c1,0,1,1,1,1l0,1l-1,0c0,0,0,1,0,1l1,0l0,1l-1,0l-1,0l0,1c-1,0,-1,0,-1,0l-1,1l-1,0l0,-1l1,0l1,0c0,0,0,-1,0,-1l1,0l0,-1c-1,0,-1,-1,-1,-1l0,-1ZM114.5,380.5l-1,0c0,0,0,1,0,1l1,0ZM204.5,393.5l0,-2l0,-1l-1,-8l1,-3l1,11c0,0,0,1,-1,1c0,1,0,1,0,2ZM196.5,391.5c0,0,1,0,1,0l1,0c0,0,0,-1,0,-1c1,0,1,0,1,0l-1,-2l0,-7c0,-1,0,-1,0,-1c0,-1,0,-1,1,-1c0,1,0,1,0,1l1,0c0,1,0,1,-1,2c0,1,0,1,0,2c0,0,0,1,0,3c0,0,0,1,0,1l0,1c0,0,0,1,0,1c0,1,0,1,0,1l0,1c0,0,-1,0,-1,0c0,0,-1,0,-1,0c0,1,0,1,0,1l-1,0l-1,0l-1,-1l-1,0l-1,-1c0,0,-1,0,-1,1c0,0,-1,0,-1,0c-1,0,-1,0,-1,0l-1,1l-1,0l-1,0c-1,0,-2,0,-2,-1c-1,0,-1,0,-1,0c-1,0,-1,0,-2,0c-1,1,-1,1,-2,1l-1,0l-1,0l0,1c0,0,-1,0,-1,1c0,0,0,1,-1,1c0,0,0,1,0,1c-1,0,-1,0,-1,0c0,1,-1,1,-1,1l-1,0l-1,0c0,0,-1,0,-1,0c-1,-1,-1,-1,-1,-1l1,0c1,0,1,0,2,0c0,0,1,0,1,-1c0,0,1,0,1,0c0,-1,0,-1,1,-1c0,0,0,-1,0,-1c0,0,1,0,1,-1c-1,0,-1,0,-1,0c0,0,-1,0,-1,-1c-1,0,-1,0,-1,-1l0,-1l0,-1c0,0,1,0,1,0c0,-1,0,-1,0,-1l1,0c0,0,1,0,1,0l0,1l1,0c0,0,0,1,0,1c0,0,0,1,0,1c1,0,1,0,1,0c0,0,1,0,1,0c0,0,1,0,1,0c1,0,1,0,1,0c0,-1,0,-1,0,-1l0,-1c0,0,0,-1,0,-1c0,-1,1,-1,1,-1c0,0,0,-1,0,-1c1,0,1,-1,2,-1c0,0,1,1,1,1c0,0,0,1,0,1l0,1c0,1,0,1,0,1c0,0,0,1,0,1l-1,1l1,0c1,0,1,0,1,0l1,0l1,0l1,0c1,0,1,0,1,0c0,-1,1,-1,1,-1c0,0,-1,-1,-1,-1l-1,0l0,-1c0,0,0,-1,0,-1c1,0,1,0,2,0l1,0c0,0,1,0,1,0l1,0l0,1c0,0,0,1,0,1c0,0,-1,1,-1,1l1,1c1,0,1,0,2,0ZM196.5,375.5c0,-1,1,-1,1,-1c0,0,1,0,1,0c1,0,1,0,2,0c0,0,0,1,0,1c0,1,0,1,0,1c-1,0,-1,1,-1,1c0,0,-1,0,-1,0l-1,0c0,0,-1,0,-1,0l2,-1c1,0,1,0,1,0c0,-1,0,-1,0,-1c-1,0,-1,0,-1,0c-1,0,-1,0,-1,0c-1,1,-1,1,-1,1c0,-1,0,-1,0,-1ZM192.5,385.5l-2,-1l1,-2l2,1ZM189.5,380.5l4,-3l-1,1l0,1l-4,2ZM183.5,385.5l-1,-2l1,-1l1,1ZM183.5,387.5l-1,1c0,1,0,1,0,1c0,0,0,1,1,1c0,0,1,-1,1,-1l1,0c0,-1,-1,-1,-1,-1c0,-1,0,-1,-1,-1ZM183.5,373.5c1,0,1,0,1,0c0,-1,1,-1,1,-1c0,0,1,1,1,1c0,0,0,1,-1,1c0,1,0,1,0,1l1,0l0,2l-2,-1l0,1c-1,0,-1,0,-1,1l-1,0l-1,0l1,-1l1,0l0,-1l1,0l0,-1l-1,0l0,-1l0,-1ZM185.5,374.5l-1,-1l0,1l1,0l0,1l0,-1ZM175.5,390.5l-1,0l0,1l1,0c1,0,1,0,1,0l0,-1c-1,0,-1,0,-1,0ZM161.5,396.5l1,0c1,0,2,0,3,-1c0,0,1,-1,1,-1c1,0,1,-1,2,-2c0,-1,0,-1,0,-1c0,-1,0,-1,0,-1l-1,-1l0,-2l1,0l0,1l1,1l0,1l0,1c0,0,0,1,0,1c0,0,0,1,0,1c-1,0,-1,0,-1,0l0,1l0,1c-1,0,-1,0,-1,1c0,0,-1,0,-1,0l-1,0c0,1,0,1,0,1c-1,0,-1,0,-1,0l-1,0l-1,0l0,-1c0,0,-1,0,-1,0ZM166.5,380.5l0,-1c1,0,1,0,1,0c1,0,1,1,1,1l0,1c0,0,0,1,-1,1l1,0l0,1l-1,0l-1,1c0,0,-1,0,-1,0l-1,1l0,-1l1,0c0,0,0,-1,0,-1l1,0l0,-1c0,0,-1,-1,-1,-1c0,0,1,0,1,-1ZM167.5,380.5l-1,0c0,0,0,1,0,1l1,0ZM235.5,389.5c0,1,0,1,0,1c1,0,1,0,1,0c0,0,0,-1,0,-1l-1,0ZM235.5,396.5c0,1,0,1,0,1c0,0,-1,0,-1,0c0,0,-1,0,-2,0c0,0,-1,0,-2,0c0,-1,0,-1,0,-1l1,0l0,1c0,0,1,0,1,-1l1,0c0,0,1,0,1,0c0,-1,1,-1,1,-1c0,0,1,-1,1,-1l0,-1c1,-1,1,-1,1,-1c0,-1,0,-1,0,-1c0,0,-1,0,-1,0c0,0,0,1,0,1l-1,0l-1,0c0,-1,0,-1,0,-1c0,0,0,-1,0,-1l0,-1c0,-1,0,-1,0,-1c1,-1,1,-1,1,-1c0,0,1,0,1,0c1,0,1,0,1,1c0,1,1,1,1,2l0,1c0,0,0,1,0,1c0,1,-1,2,-1,2c0,1,-1,1,-1,1c0,1,0,1,-1,1ZM233.5,383.5l4,-2l-1,0c0,1,0,1,0,1l-4,2ZM229.5,392.5l-1,0l-1,0c0,0,-1,-1,-1,-1l-1,0l0,1c0,0,-1,0,-1,0l-1,0l-1,0c0,0,0,1,-1,1l-1,0l-1,0l0,1l-1,1c0,0,0,1,0,1c-1,0,-1,1,-1,1c-1,0,-1,0,-1,0c0,1,0,1,-1,1c-1,0,-1,0,-1,0l-1,0c0,0,-1,0,-1,0c0,-1,-1,-1,-1,-1c0,0,1,0,1,0c1,0,1,0,2,0c0,0,1,0,1,-1c0,0,1,0,1,0c0,-1,1,-1,1,-1c0,0,0,-1,0,-1c1,0,1,0,1,-1c0,0,-1,0,-1,0l-1,-1c0,0,-1,0,-1,-1l0,-1l1,-1c0,-1,0,-1,0,-1c1,0,1,0,1,0c1,0,1,0,1,0l0,1c1,0,1,0,1,0c0,0,0,1,0,1c0,0,0,1,0,1c1,0,1,0,1,0c0,0,1,0,1,0l1,0c1,0,1,0,1,0l0,-1c0,-1,0,-1,0,-1c0,0,0,-1,0,-1l1,0c0,0,0,-1,0,-1c0,-1,0,-1,0,-1l0,-1c0,0,1,0,1,0c0,0,0,-1,0,-1c1,1,1,1,2,2c1,0,1,1,2,1c0,0,0,1,1,1c0,1,0,1,0,1c0,0,0,1,0,1c0,0,0,1,0,1c0,1,-1,1,-1,1ZM225.5,388.5c-1,0,-1,0,-1,0l0,1c0,0,1,0,1,1c0,-1,1,-1,1,-1c0,-1,0,-1,0,-1c0,0,-1,0,-1,0ZM227.5,388.5l0,1c0,0,0,1,0,1l2,0c0,-1,-1,-1,-1,-1l0,-1c-1,0,-1,0,-1,0ZM222.5,373.5l1,0c0,-1,0,-1,0,-1c1,0,1,0,1,0c0,0,0,1,0,1c0,0,0,1,0,1c0,1,0,1,0,1l0,2l-1,-1l-1,1l-1,1l-1,0l0,-1l1,0l1,-1l0,-1l0,-1l0,-1ZM223.5,374.5l0,-1c0,0,-1,0,-1,1l1,0l0,1l0,-1ZM217.5,390.5c0,0,-1,0,-1,0l0,1c0,0,1,0,1,0l1,0l0,-1c0,0,-1,0,-1,0ZM213.5,383.5l5,-2l-1,0c0,1,0,1,0,1l-4,2ZM296.5,389.5c-1,1,-1,1,-2,2c-1,0,-2,1,-4,1c-1,0,-2,1,-2,1l-1,0l-1,0l-1,-1l-1,0c0,-1,0,-1,0,-1c0,1,-1,1,-1,1c0,0,-1,0,-1,0c0,1,0,1,0,1l-1,0l-1,0c-1,0,-2,-1,-2,-1c-1,-1,-1,-1,-1,-2l-1,-8l1,-3l1,10l0,1c1,1,1,1,2,1l1,0c1,0,1,0,1,0c1,0,1,0,1,-1l1,0c0,0,0,-1,0,-1l0,1c0,0,1,0,1,1c1,0,1,0,1,0l1,0l1,0c1,0,1,0,2,-1c-1,0,-1,0,-1,-1l0,-1c0,0,0,-1,0,-1c0,-1,0,-1,0,-1c0,0,1,0,1,-1c1,0,1,0,1,-1c1,0,1,0,1,0l1,0c1,1,1,1,1,1l1,0c0,1,0,1,0,1l-1,0l-1,0l-1,0l-1,0c-1,0,-1,0,-1,1l0,1l1,0c0,1,1,1,1,2c0,-1,1,-1,1,-1l1,0l1,0l1,-1l1,0ZM292.5,396.5l-5,2c1,-1,1,-1,1,-1l4,-2ZM284.5,397.5l-2,-1l1,-2l2,1ZM282.5,380.5l4,-3l0,1l0,1l-4,2ZM274.5,391.5l-1,1c-1,0,-1,0,-2,1l-1,0l-1,0l-1,0c0,0,0,-1,0,-1c0,-1,0,-1,0,-1c0,0,0,-1,0,-1c0,1,0,1,1,1c1,0,1,0,2,0l1,-1l1,0c0,-1,0,-1,0,-1c0,-1,0,-1,-1,-1l0,-1l-1,0l-1,-1l0,-2c0,0,1,0,1,0c0,1,1,1,1,1c1,0,1,1,1,1l1,1c0,0,0,1,0,1c0,1,0,1,0,1l0,1l0,1ZM272.5,396.5l-5,2c1,-1,1,-1,1,-1l4,-2ZM263.5,393.5c-1,0,-1,0,-2,-1c0,0,0,-1,0,-1c0,-1,0,-1,0,-2l0,-1l1,-2c0,0,1,0,1,0c0,0,1,0,1,0c1,1,1,1,1,2l0,1c0,0,1,0,1,0c0,2,-1,3,-2,4c0,0,-1,0,-1,0ZM263.5,388.5l-1,0c0,1,-1,1,-1,1l0,1c1,0,1,1,1,1l1,0l1,0c0,-1,1,-1,1,-1c0,0,0,-1,-1,-1c0,0,-1,-1,-1,-1ZM318.5,392.5l-1,0l-1,0l-1,-1c0,1,0,1,-1,1l0,1l-1,0l-2,0l0,1c0,1,0,2,0,2c-1,1,-1,1,-2,2c0,0,-1,1,-1,1c-1,0,-2,1,-3,1c0,0,-1,-1,-1,-1c-1,0,-2,0,-2,0c0,-1,-1,-1,-1,-2c0,0,0,-1,0,-1c0,-1,0,-1,0,-1c0,-1,0,-1,0,-1c0,-1,0,-1,0,-1c1,-1,1,-1,1,-1c0,0,0,1,0,1l0,1c0,0,-1,1,-1,1c1,0,1,1,1,1c0,0,0,1,1,1c1,1,2,1,3,1c0,0,1,0,2,-1c1,0,1,0,2,-1c0,0,0,-1,0,-1c0,-1,0,-1,0,-1c0,-1,0,-1,0,-1c0,0,0,-1,0,-1l-1,0l1,-2c1,1,1,1,2,1l1,0l1,0l1,0l0,-1l1,-1c0,0,0,-1,1,-1c0,-1,0,-1,1,-1l0,1c1,0,1,1,1,1l0,1l0,1c0,1,0,1,-1,1ZM317.5,390.5l1,0c0,0,0,-1,0,-1c0,0,-1,0,-1,0l-1,0l0,1l1,0ZM318.5,396.5l-5,2c1,-1,1,-1,1,-1l4,-2ZM306.5,390.5l-1,-1l1,-1l1,1ZM305.5,377.5c1,0,1,0,1,0c1,0,1,0,2,0c0,0,1,0,1,0c0,0,1,0,1,1c-1,0,-1,1,-1,1l-1,0l0,1l-1,0l-1,0l1,-1c1,0,1,0,2,-1c0,0,-1,0,-1,0c0,0,-1,0,-1,0c0,0,-1,0,-1,0l-1,0c0,0,0,-1,0,-1ZM354.5,397.5l-2,-1l0,1l-2,-1l1,-1l1,1l1,-1l2,1ZM351.5,391.5l1,0c1,-1,0,-1,0,-2c0,0,0,-1,-1,-1c-1,-1,-1,-1,-1,-1c0,0,0,-1,0,-1c0,0,1,-1,1,-1l1,1l0,1c0,0,1,0,1,0c0,1,0,1,0,1c0,1,0,1,0,2l0,1c0,0,0,1,0,1l-1,0c0,0,-1,0,-1,0c0,1,0,1,0,1l-1,0l-1,-1c-1,0,-1,-1,-1,-1l0,-1l0,1c0,0,-1,1,-1,1c0,0,-1,0,-1,0c-1,0,-1,0,-2,-1l0,1c-1,0,-1,0,-1,1l-1,0c-1,0,-1,-1,-2,-2c0,0,0,1,0,1c-1,0,-1,0,-2,1l-1,0l-1,0c-1,0,-1,-1,-2,-1c0,-1,0,-1,0,-2l-1,-8l1,-3l0,10l1,0l0,1c0,1,1,1,1,1l1,0l1,0l1,0c1,-1,2,-1,2,-2l0,1c0,0,1,1,1,1c1,0,1,0,2,-1l1,-1c0,0,0,1,0,1c1,0,1,0,1,0c1,0,1,0,1,0l1,0c0,-1,0,-1,0,-1c1,1,1,2,2,2ZM343.5,384.5l-1,0l1,-2l1,1ZM345.5,387.5l-2,-1l0,1l-2,-1l1,-1l2,1l0,-1l2,0ZM339.5,380.5l4,-3l-1,1l0,1l-4,2ZM331.5,377.5l1,0l1,0c1,0,1,0,2,0l1,0l-1,1l-1,0l-1,0l-1,0l-1,-1l0,1c0,0,-1,0,-1,0c0,-1,1,-1,1,-1ZM325.5,390.5l1,0c0,-1,0,-1,1,-1c0,-1,0,-1,0,-1l1,0c1,0,1,1,1,1l0,1l-1,0l-1,0c0,0,-1,0,-1,0l0,1c1,0,1,0,1,0l1,0c1,0,1,0,2,0c0,0,0,1,0,1c0,0,-1,0,-1,0l-4,2c0,0,0,-1,0,-1l1,0c0,0,0,-1,0,-1l-1,0c0,-1,0,-1,0,-1c0,0,0,-1,0,-1ZM327.5,380.5l1,-1l1,0c0,0,0,1,0,1l0,1c0,0,0,1,0,1l0,1l-1,0l-1,1l-1,0l0,1l-1,0l0,-1l1,0c0,0,0,-1,1,-1l0,-1l1,0l-1,0c0,0,0,-1,0,-1l0,-1ZM328.5,380.5l-1,0c0,0,1,1,1,1ZM377.5,392.5l-1,0c0,0,-1,0,-1,0l-1,-1c0,1,-1,1,-1,1l0,1l-1,0l-1,0l-1,0l0,1c0,1,0,2,-1,2c0,1,0,1,-1,2c0,0,-1,1,-2,1c-1,0,-1,1,-2,1c-1,0,-1,-1,-2,-1c0,0,-1,0,-1,0c-1,-1,-1,-1,-1,-2c-1,0,-1,-1,-1,-1c0,-1,0,-1,0,-1c0,-1,1,-1,1,-1c0,-1,0,-1,0,-1c0,-1,0,-1,0,-1c1,0,1,0,1,0c0,0,0,1,0,1c0,0,-1,0,-1,1c0,0,0,1,0,1c0,0,0,1,1,1c0,0,0,1,0,1c0,0,1,0,1,0c1,1,1,1,2,1c1,0,2,0,3,-1c0,0,1,0,2,-1c0,0,0,-1,0,-1c0,-1,0,-1,0,-1c0,-1,0,-1,0,-1c0,0,0,-1,-1,-1l1,-2c0,1,1,1,1,1l1,0l1,0c1,0,1,0,1,0l1,-1l0,-1c1,0,1,-1,1,-1l1,0c0,-1,0,-1,0,-1c1,0,1,0,1,1c0,0,1,1,1,1l0,1l0,1c0,1,-1,1,-1,1ZM375.5,390.5l1,0l1,0c0,0,0,-1,0,-1c-1,0,-1,0,-1,0c0,0,-1,0,-1,0l0,1ZM372.5,380.5l5,-3l-1,1l0,1l-4,2ZM365.5,390.5l-2,-1l1,-1l2,1ZM363.5,380.5l1,0c0,0,1,0,1,0c1,0,1,0,1,0c1,0,1,0,1,0c0,0,0,1,0,1l-1,1c0,0,-1,0,-1,0c0,0,-1,0,-1,0l-1,0l2,0c0,0,1,-1,1,-1l-1,0c-1,0,-1,0,-2,0l0,-1ZM173.5,378.5c0,0,0,-1,1,-1c0,0,1,0,1,0c1,0,1,0,2,0c0,1,0,1,0,1c0,1,0,1,0,1c-1,0,-1,1,-1,1c-1,0,-1,0,-1,0c0,0,-1,0,-1,0c0,0,-1,0,-1,0l2,0c0,-1,1,-1,1,-1c0,0,0,-1,0,-1c-1,0,-1,0,-1,0c-1,0,-1,0,-2,1c0,-1,0,-1,0,-1ZM119.5,380.5c0,-1,1,-1,1,-1c0,0,1,0,1,0c1,0,1,0,2,0c0,0,0,1,0,1c0,1,0,1,0,1c-1,0,-1,1,-1,1c0,0,-1,0,-1,0l-1,0l-1,0l2,-1c1,0,1,0,2,0c-1,-1,-1,-1,-1,-1c-1,0,-1,0,-1,0c-1,0,-1,0,-1,0c-1,0,-1,1,-1,1l0,-1ZM245.5,391.5c1,0,1,-1,1,-1l0,-1l0,-1l0,-2l0,-1l1,0l-1,1l0,1l0,1l1,0l-1,1l0,1l1,-1l1,0l1,-1c0,0,0,1,1,1l0,1c0,0,0,1,-1,1c0,0,-1,0,-1,0c-1,0,-1,0,-1,0ZM249.5,389.5c-1,0,-1,0,-1,1l-1,0l-1,1l1,0c1,0,1,0,1,-1c1,0,1,0,2,0l-1,0c0,-1,0,-1,0,-1ZM261.5,401.5c0,-1,0,-1,0,-2c0,0,-1,-1,-1,-1l0,-1l1,0l0,1l0,1c0,0,0,1,0,1c0,1,0,1,0,1ZM89.5,350.5l-2,-1l1,-1l2,1ZM86.5,346.5l-1,0c-1,0,-1,0,-1,0c-1,0,-1,0,-1,0c-1,-1,-1,-1,-1,-1c0,0,0,-1,0,-1l0,-1l0,1c-1,0,-1,0,-1,0l-1,1l-1,0l-1,-1l0,-1c0,0,0,-1,1,-1c0,-1,1,-1,1,-2c1,0,1,0,1,0l0,-1l1,-1l0,1c0,0,0,1,0,1c0,0,0,1,1,1l0,2c0,0,0,1,0,1c1,0,1,0,1,0c0,0,1,1,1,1l1,0c1,0,1,-1,2,-1c0,0,1,0,1,0l0,-1c0,-1,0,-1,0,-1l-1,0l1,-2l0,1l1,1l0,1l0,1c0,0,-1,0,-1,1c0,0,-1,1,-1,1c-1,0,-1,0,-2,0ZM88.5,352.5l-4,2c0,0,0,-1,0,-1l4,-2ZM82.5,341.5l-1,0l-1,1c-1,0,-1,0,-1,1l1,0l1,0l1,-1ZM140.5,349.5l-2,-1l-1,2l-1,-1l1,-2l1,1l1,-1l1,1ZM137.5,345.5c0,0,1,-1,1,-1c1,0,1,0,1,0c0,0,0,-1,0,-1c0,-1,0,-1,0,-1l-1,0l1,-2c0,0,1,0,1,0c0,1,0,1,0,1l0,1l0,1c0,1,0,1,0,1l0,1l-1,0c0,0,0,1,-1,1c0,0,-1,0,-1,0l-1,0l-12,0c0,0,0,1,0,1c0,1,0,1,0,1c0,0,-1,0,-1,0l0,-1l0,-1l-1,0c0,-1,0,-1,0,-1l-1,0c0,0,0,1,-1,1l-1,0c-1,0,-1,0,-1,0c-1,0,-1,0,-1,0c0,-1,0,-1,0,-1c-1,0,-1,0,-1,0l-1,1l-1,0l-1,0l-1,0c0,0,-1,-1,-1,-1c-1,0,-1,0,-1,1c-1,0,-2,0,-2,0l-2,1c0,0,-1,0,-1,0l-1,0l-1,0l-1,0c-1,0,-2,0,-3,0c-1,0,-2,-1,-2,-1c-1,-1,-1,-1,-1,-1l0,-1l0,-1c0,0,0,-1,0,-1c0,-1,0,-1,1,-2c0,0,0,1,0,1l0,1c0,0,-1,0,-1,0c0,1,1,1,1,2c0,0,1,0,1,1c1,0,1,0,1,0c1,0,1,0,1,0c1,0,2,0,3,0c1,0,2,0,2,0c1,0,1,0,2,0l1,0c1,-1,2,-1,2,-1c1,-1,2,-1,2,-1l0,1c0,0,1,1,1,1l1,0c0,0,0,-1,1,-1l1,0l0,-1l1,0l0,1c1,0,1,1,2,1l0,-1c1,0,1,0,1,0c0,0,1,0,1,0c0,0,1,0,1,0c0,-1,0,-1,0,-1c0,0,1,1,1,1c0,0,0,1,1,1l1,-1l0,-1l1,0l1,-1c1,-1,2,-1,2,-1c0,0,1,-1,1,-1l1,0c1,0,1,0,2,1l1,1l0,1c-1,1,-1,1,-1,1l0,1l1,0l2,0l1,0ZM139.5,330.5c1,-1,1,-1,1,-1c1,0,1,0,1,0c0,0,0,1,0,1c0,0,0,1,0,1c0,1,0,1,0,1l0,1l-1,0l-1,1c0,0,-1,0,-1,1l-1,0l0,-1l1,0l1,-1l0,-1l0,-1l0,-1ZM140.5,331.5l0,-1c-1,0,-1,0,-1,1l1,0ZM132.5,343.5c0,-1,-1,-1,-1,-1l-1,0c-1,0,-1,0,-1,0c-1,1,-1,1,-2,1l0,1l-2,1l1,0l1,0l1,0c1,0,1,0,1,-1l1,0l1,0c1,0,1,0,1,-1ZM129.5,349.5l-5,2c0,0,1,0,1,0c0,0,0,-1,0,-1l4,-2ZM118.5,349.5l-2,-1l-1,2l-1,-1l1,-2l1,1l1,-1l1,1ZM104.5,351.5l-2,-1l1,-1l2,1ZM104.5,334.5c0,-1,0,-1,1,-1c0,0,0,-1,0,-1c1,1,1,1,1,1l0,1l0,1l0,1l0,1l-1,-1l0,1l-1,0c0,1,0,1,-1,1l-1,0l1,-1l1,0l0,-1c0,-1,0,-1,0,-1l0,-1ZM105.5,334.5c0,0,-1,0,-1,0l1,0l0,1l0,-1ZM197.5,344.5c0,0,1,0,1,0l1,0l0,-1c1,0,1,0,1,0l-1,-2l0,-7c0,-1,0,-1,0,-1c0,-1,0,-1,1,-1l0,1l1,1l0,1c-1,0,-1,0,-1,0c0,1,0,1,0,2c0,0,0,1,0,3c0,0,0,1,0,1l0,1c0,1,0,1,0,1c0,1,0,1,0,1l0,1l-1,0c0,0,-1,1,-1,1l-1,0l-1,0l-1,0c-1,0,-2,0,-2,0c0,-1,-1,-1,-1,-1c-1,0,-1,0,-2,1c0,0,-1,0,-1,0l-1,0l-12,0l0,1c0,0,0,1,0,1c-1,0,-1,0,-1,0l0,-1c0,0,0,-1,0,-1l0,-1l-1,0l0,-1l-1,1l-1,0c0,1,0,1,0,1l-1,0c-1,0,-2,0,-2,-1l-1,-1c0,1,0,1,0,1c0,0,0,1,0,1c0,0,0,1,0,1c-1,0,-1,0,-1,0c-1,0,-1,0,-2,0c0,-1,0,-1,0,-1c-1,0,-1,0,-1,0l0,-1c0,0,0,-1,0,-1l-1,0c0,0,0,-1,0,-1c0,1,0,1,-1,1l-1,0c-1,0,-1,0,-2,0l0,-2l1,-1l1,-1l1,0c0,-1,1,-1,1,-1l-1,0l1,-2c0,0,0,1,0,1l0,1c1,0,1,1,1,1c0,1,0,1,0,2l0,1c0,0,0,1,0,1c1,0,1,0,1,0l0,1c0,0,1,0,1,1l1,0c0,-1,0,-1,0,-1c0,-1,0,-1,0,-2c0,-1,0,-2,0,-3l0,-1c0,-1,0,-2,0,-2c0,-1,0,-2,0,-3l1,-2l0,10c0,1,0,1,1,1l0,1c0,0,1,0,1,0l1,0c1,0,1,0,1,0c0,0,1,0,1,0c0,-1,1,-1,1,-1l0,-1c0,1,1,1,1,2l1,0l1,-1l1,-1l1,-1c1,0,1,0,2,-1c0,0,1,0,1,0l1,0c1,0,1,0,2,0c0,1,0,1,1,1l0,1c0,0,0,1,0,1c-1,0,-1,0,-1,1l1,0l3,0c0,0,1,0,1,0c0,0,0,-1,0,-1l0,-1l0,-1c1,-1,1,-1,1,-1c0,0,0,-1,1,-1c0,0,1,-1,1,-1c1,0,1,1,1,1c1,0,1,1,1,2l0,1c0,0,-1,1,-1,1c0,0,0,1,0,1l1,0l1,0ZM202.5,349.5l-5,2c1,-1,1,-1,1,-1l4,-2ZM192.5,338.5l-1,-1l1,-2l1,1ZM193.5,340.5c-1,0,-1,1,-1,1c-1,0,-1,0,-1,0l0,1c0,0,1,1,1,1c1,0,1,0,1,-1c0,0,1,0,1,0c0,-1,0,-1,-1,-1c0,0,0,-1,0,-1ZM191.5,329.5l4,-2l0,1l-4,2ZM181.5,336.5l-1,2l-2,-1l1,-2ZM184.5,343.5c0,0,0,-1,0,-1c0,0,-1,0,-1,0l-1,0c-1,0,-1,0,-1,0c-1,0,-1,0,-2,1l-1,0l-1,1l1,0l1,0l1,0c1,0,1,0,1,0l1,0l1,0l0,-1c1,0,1,0,1,0ZM174.5,330.5c1,0,1,0,1,0c1,0,1,0,2,0c0,0,1,0,1,0c1,0,1,0,1,1c0,0,-1,1,-1,1l-1,0c0,1,0,1,0,1c-1,0,-1,0,-1,0l-1,0l1,-1c1,0,2,0,2,-1c0,0,-1,0,-1,0l-1,0c0,0,-1,0,-1,0l-1,1l0,-1l0,-1ZM167.5,352.5l-4,2c1,-1,1,-1,1,-1l3,-2ZM163.5,340.5l-1,1l-1,1c0,0,-1,0,-1,0l1,0l1,0c0,0,1,0,1,0ZM220.5,349.5l1,0l1,0c1,0,2,0,3,-1c0,0,1,0,1,-1c1,0,1,-1,1,-1c0,-1,1,-1,1,-1c0,-1,0,-1,0,-1c0,0,0,-1,0,-1l-1,0l0,-1l0,-1l0,-1l1,1l0,1l0,1l0,1c0,0,0,1,0,1c0,1,0,1,0,1c0,0,0,1,0,1c0,0,-1,1,-1,1l-1,1l-1,0l0,1l-1,0l-1,0c-1,0,-1,0,-1,0c-1,-1,-1,-1,-1,-1ZM223.5,336.5l4,-2l0,1l-4,2ZM219.5,346.5l0,-1l0,-2l0,-8l1,-2l0,10c0,1,0,1,0,1l0,1l-1,1ZM217.5,330.5c0,0,1,0,2,0c0,0,1,0,1,0l1,0l1,0c-1,0,-1,1,-1,1l-1,0l-1,0c-1,0,-1,0,-1,0l-1,0c0,0,-1,0,-1,0c0,-1,0,-1,1,-1ZM216.5,344.5l0,1l-1,0c-1,0,-1,1,-2,1l-1,0l-1,0l-1,0l0,-1c0,0,0,-1,0,-1l1,0c1,0,1,0,2,0l1,0c0,-1,0,-1,1,-1l1,0c0,0,-1,-1,-1,-1c0,-1,0,-1,0,-1l-1,-1l-1,0l0,-1l-1,0l0,-2c1,0,1,0,1,0l0,1c1,0,1,0,1,0c1,0,1,1,1,1l1,1c0,0,0,1,0,1c0,1,0,1,0,1l0,1l0,1ZM210.5,331.5l0,1l1,0l1,0l0,-1c0,0,0,1,0,1c0,0,1,0,1,0c0,0,0,-1,0,-1l0,-1l1,0l0,1l0,1c-1,0,-1,1,-1,1l-1,0c-1,0,-1,1,-1,1c0,0,-1,-1,-1,-1l0,-1l0,-1ZM215.5,328.5l-6,3c0,-1,1,-1,1,-1l5,-3ZM253.5,336.5l-2,-1l1,-1l2,1ZM255.5,344.5c0,0,0,1,-1,1c0,0,-1,0,-1,1c-1,0,-1,0,-2,0l-1,0c-1,0,-2,-1,-2,-1c-1,0,-1,-1,-1,-2c0,0,0,-1,0,-1c0,-1,0,-1,0,-1l0,1c-1,0,-1,0,-1,0c0,1,0,1,0,1c0,0,0,1,0,1c0,0,-1,0,-1,1c-1,1,-1,1,-1,1c-1,0,-1,0,-2,1c0,0,-1,0,-1,0c-1,0,-1,0,-2,0l1,0c0,-1,1,-1,1,-1c1,0,1,0,1,-1c1,0,1,0,2,-1l1,0c-1,-1,-1,-1,-1,-1c0,-1,0,-1,0,-1c-1,0,-1,-1,-1,-1c-1,0,-1,-1,-1,-1c0,0,-1,-1,-1,-1c0,0,-1,-1,-1,-1l-1,0l-1,0c0,-1,-1,-1,-1,-1c0,-1,0,-1,0,-1c0,-1,0,-1,0,-1c0,-1,0,-1,1,-1c0,1,1,1,2,1c0,1,1,1,1,2c1,0,1,1,2,2c0,0,1,1,1,1c0,1,0,1,1,2c0,0,0,1,0,1c0,0,0,-1,0,-1c1,0,1,0,1,-1c0,0,0,-1,0,-1c0,-1,0,-1,0,-2l0,-3l1,-2l1,9l0,1c0,1,1,1,2,1l1,0c1,0,1,0,2,0c1,0,1,-1,2,-1c0,0,0,-1,0,-1l0,-1c-1,0,-1,1,-1,1c-1,0,-1,0,-1,0c0,0,-1,0,-1,0l-1,0c0,-1,0,-1,0,-1c0,-1,0,-1,1,-2c0,-1,0,-1,0,-1c1,-1,1,-1,1,-1c1,0,1,0,1,1c1,0,1,0,1,1l0,1l1,1c0,0,0,1,0,1c0,1,0,1,-1,1c0,0,0,1,0,1ZM252.5,339.5l0,1l1,0c1,0,1,0,1,0l0,-1c0,0,-1,0,-1,0c0,0,-1,0,-1,0ZM251.5,330.5l5,-3l-1,1l-4,3ZM243.5,330.5l5,-3c0,1,0,1,-1,1l-5,3ZM287.5,341.5l-2,-1l1,-2l2,1ZM282.5,337.5l1,-1l1,0c0,0,0,1,0,1l0,1l0,-1l0,-1l0,-1c-1,-1,-1,-1,-1,-1c0,1,-1,1,-1,1l0,1c-1,0,-1,1,-1,1l0,1c-1,0,-1,0,-2,0c0,1,0,1,0,1l-1,0c0,0,0,1,-1,1c0,1,-1,1,-1,1l1,0c-1,0,-1,0,-1,1l1,0l1,0l1,0l1,0l1,0l0,1l-1,0l-1,0l-1,1l-1,0l-1,0l-1,0l-1,0c0,0,-1,0,-1,0c0,0,-1,0,-1,0c0,-1,0,-1,0,-1l0,-1l0,-1l-1,0c-1,0,-1,1,-1,1c-1,0,-1,0,-1,0c-1,0,-1,0,-1,0l-1,0l-1,2c1,0,1,0,1,0c0,0,0,1,0,1c0,1,-1,1,-1,2c0,0,-1,0,-1,1c0,0,-1,0,-1,1l-1,0l-1,0c0,1,0,1,0,1l-1,0l0,-1c0,0,-1,0,-1,0l0,1c1,0,1,0,1,0c1,0,1,0,1,0l1,0l1,0l1,0c0,0,1,0,1,-1c0,0,0,-1,1,-1c0,0,0,-1,0,-1c0,0,1,-1,1,-1c0,0,0,-1,0,-1l0,-1c1,0,1,0,1,0l1,0c0,0,0,-1,0,-1c0,0,1,0,1,0l0,-1l0,1c0,1,0,1,0,1l1,1c0,0,1,1,1,1l1,0l1,0l1,0l1,0l1,-1l1,0l2,-1c0,0,1,0,1,0l1,-1l2,0l2,0l1,-1l-2,0l-1,0c0,0,-1,0,-1,0c-1,-1,-1,-1,-2,-1l-2,-1l-1,0c1,-1,1,-1,1,-1l1,0c0,-1,1,-1,1,-2ZM286.5,345.5l-4,2c0,0,1,-1,1,-1l4,-2ZM275.5,337.5l-1,-1l1,-1l1,1ZM275.5,330.5l5,-3l-1,1l-4,3ZM272.5,349.5l-1,-1l-1,1l-2,-1l1,-1l2,1l0,-2l2,1ZM268.5,335.5c0,0,1,0,1,-1c1,0,1,0,1,0c1,0,2,0,2,1c0,1,0,1,0,1c0,1,-1,1,-1,1l-1,0l-1,0l-1,0l2,0c1,-1,1,-1,2,-1c-1,0,-1,0,-1,0c0,0,-1,0,-1,0c0,0,-1,0,-1,0c0,0,-1,0,-1,0c0,0,0,-1,0,-1ZM261.5,357.5l5,-2l0,1c0,0,-1,0,-1,0l-5,3ZM263.5,354.5l5,-2c-1,0,-1,1,-1,1l-5,2ZM326.5,349.5l-1,-1l-1,1l-1,-1l0,-1l2,1l1,-1l1,0ZM323.5,346.5l-1,0l-1,0l0,1c0,1,0,1,0,2c-1,0,-1,0,-1,1l-1,0c0,1,0,1,-1,1l-1,0l-1,0c0,0,-1,0,-2,0l-1,0l0,-1c1,0,1,0,1,0l1,1c0,0,1,-1,1,-1c1,0,1,0,2,0c0,-1,0,-1,0,-1c1,0,1,-1,1,-1c0,0,1,0,1,-1l0,-1c1,0,1,-1,1,-1l-1,0c0,0,0,-1,0,-1l0,-1c0,0,1,0,1,0l0,1l1,0l1,0c1,0,1,0,2,0c0,0,1,0,1,-1c0,0,0,-1,0,-1c0,0,-1,-1,-1,-1l1,-2c0,1,0,1,0,1c0,0,1,1,1,1l0,1c0,1,0,1,0,1l0,1l-1,0l0,1c0,0,-1,0,-1,0c-1,1,-1,1,-2,1ZM323.5,331.5c1,-1,1,-1,1,-1c0,0,1,0,1,0c0,0,1,0,1,1l-1,0l0,1l0,1l1,0l0,1l-1,-1l-1,1c-1,1,-1,1,-1,1l-1,0l-1,0l1,0l1,-1l0,-1l1,0l-1,0c0,-1,0,-1,0,-1c0,-1,0,-1,0,-1ZM325.5,331.5l-1,0l0,1l1,0l0,-1ZM321.5,356.5l-5,2c1,-1,1,-1,1,-1l4,-2ZM314.5,344.5l0,1l-1,0c0,0,-1,1,-2,1l-1,0l-1,0c0,0,-1,0,-1,0l0,-1c0,0,0,-1,0,-1l1,0l1,0c0,0,1,0,1,0c1,0,1,0,1,0c0,-1,1,-1,1,-1c0,0,1,0,1,0c0,0,0,-1,0,-1c-1,-1,-1,-1,-1,-1l0,-1l-1,0l-1,-1l-1,0l1,-2l1,1c0,0,1,0,1,0c0,0,0,1,0,1c0,0,1,0,1,1c0,0,0,1,1,1c0,1,0,1,0,1l0,1l0,1c0,0,-1,0,-1,0ZM307.5,331.5c1,0,1,0,1,0c1,0,1,0,2,0c0,0,1,0,1,0c0,0,1,0,1,1c-1,0,-1,1,-1,1l-1,0c0,1,0,1,-1,1l-1,0l1,-1c1,0,1,0,2,-1c0,0,-1,0,-1,0c0,0,-1,0,-1,0c0,0,-1,0,-1,0c0,0,-1,0,-1,0c0,0,0,-1,0,-1ZM305.5,345.5c0,0,0,1,-1,1c0,0,-1,0,-1,0c-1,0,-2,0,-3,0c0,0,-1,0,-2,0c-1,0,-1,0,-2,0l-1,-1c0,0,0,-1,0,-1l0,-1l1,0l0,1l1,0l1,0l5,0c1,0,1,0,1,0c1,0,1,0,1,-1l0,-1c0,0,0,-1,0,-1c0,0,0,-1,0,-1c0,-1,0,-2,0,-3c0,-1,-1,-2,-1,-3l0,-1l0,-1c1,0,1,0,1,0c0,0,0,1,0,1c1,0,1,0,1,0c0,1,0,1,0,1c0,1,0,1,0,1c0,0,0,1,0,2c0,1,0,2,0,3c0,0,0,1,0,1c0,0,0,1,0,1l0,1l0,1l-1,1ZM302.5,341.5c-1,0,-1,0,-1,0c0,0,-1,1,-1,1c0,0,-1,0,-1,0c-1,0,-1,0,-1,-1c1,0,2,0,2,0c1,-1,1,-1,1,-1l-1,0c0,0,-1,0,-1,-1c0,-1,0,-1,0,-1c1,-1,1,-1,1,-2c0,0,1,0,1,0c1,0,1,-1,1,-1l-1,2c0,0,-1,0,-1,1c1,0,1,0,1,0c1,0,1,0,1,1c0,1,0,1,0,2ZM297.5,329.5l5,-2l-1,1l-4,2ZM374.5,342.5l-1,0c1,1,1,1,1,1l1,0l0,-1c0,0,-1,0,-1,0ZM374.5,349.5c0,1,0,1,0,1c-1,0,-1,0,-1,0c-1,0,-1,0,-2,0c-1,0,-1,0,-2,0l-1,0c0,-1,1,-1,1,-1l0,1c1,0,1,0,1,0c0,0,1,0,1,0c0,0,0,-1,0,-1c1,0,1,0,1,0l1,0c0,0,0,-1,1,-1c0,0,0,-1,0,-1c1,0,1,0,1,-1c0,-1,1,-1,1,-1c0,0,0,-1,0,-1l-1,0l0,1c0,0,-1,0,-1,0l-1,0c0,0,0,-1,0,-1c0,0,-1,0,-1,-1c0,0,1,0,1,-1c0,0,0,-1,0,-1c0,-1,1,-1,1,-1l1,0c0,0,1,0,1,1l0,1l0,1l0,1c0,1,0,1,0,1c0,1,0,2,0,2c-1,1,-1,1,-1,2l-1,0ZM371.5,336.5l5,-2l-1,1l-4,2ZM351.5,344.5l-1,-1l1,-2l1,1ZM364.5,346.5l-1,1c0,1,-1,1,-1,1c0,0,-1,0,-1,1c-1,0,-1,0,-2,0c-1,0,-2,1,-3,1c-1,0,-2,0,-3,0c0,0,-1,0,-2,0c0,0,-1,0,-1,0l-1,0c0,0,-1,0,-2,0c0,0,-1,0,-1,0c-1,0,-2,0,-3,0c-1,0,-1,-1,-2,-1c-2,0,-3,-1,-4,-1c-1,-1,-1,-2,-2,-2c0,0,-1,-1,-1,-1c1,0,1,0,1,0c1,0,1,1,2,1c0,0,1,1,2,1c0,0,1,0,1,0c1,1,1,1,2,1c1,0,1,0,2,0c0,0,1,1,2,1c0,0,1,0,2,0c0,0,1,0,1,0c1,0,2,0,2,0c1,0,2,0,2,0c1,0,2,-1,3,-1c1,0,2,0,3,0c0,0,1,-1,2,-1c2,-1,2,-1,2,-2l0,-1c0,0,0,-1,0,-1l0,-1c-1,0,-1,0,-1,0l1,-2l1,1l0,1l0,1c0,0,0,1,0,1c0,0,0,1,0,1c0,0,0,1,0,1ZM322.5,335.5l0,1l0,1c0,0,1,0,1,0c0,0,0,-1,1,-1l0,-1l0,1l1,0c0,0,1,0,1,-1l0,-1l0,1l0,1c0,1,0,1,-1,1c0,0,-1,0,-1,0l0,1c-1,0,-1,0,-1,0c-1,0,-1,0,-1,0l0,-1l0,-1ZM348.5,332.5l1,-1c0,0,1,0,1,0c1,0,1,0,1,0c1,1,1,1,1,1c0,1,0,1,-1,1c0,1,0,1,0,1c0,0,-1,0,-1,0c0,0,-1,0,-1,0l-1,0l2,0c0,-1,1,-1,1,-1l-1,0c0,-1,0,-1,0,-1c-1,0,-1,1,-2,1c0,0,0,-1,0,-1ZM113.5,333.5c0,0,1,-1,1,-1c0,0,1,0,1,0c1,0,1,0,2,0c0,1,0,1,0,1c0,1,0,1,0,1c-1,0,-1,1,-1,1c-1,0,-1,0,-1,0c0,0,-1,0,-1,0c0,0,-1,0,-1,0l2,0c1,-1,1,-1,1,-1l0,-1c-1,0,-1,0,-1,0c-1,0,-1,0,-1,1c-1,0,-1,0,-1,0c0,-1,0,-1,0,-1ZM146.5,344.5l0,-1l1,0c1,-1,1,-1,1,-1l0,-1l0,-1l-1,-1l0,-1c0,-1,0,-1,0,-1l1,0l0,1l0,1l0,1l0,1l0,1l1,0l0,-1l1,0l1,0c1,0,1,0,1,0l0,1l0,1c-1,0,-1,0,-1,0c-1,0,-1,0,-2,0c0,1,0,1,-1,1ZM150.5,342.5l-1,0l-1,0l0,1c1,0,1,0,1,0c0,0,1,0,1,0c0,-1,1,-1,1,-1c0,0,-1,0,-1,0ZM160.5,352.5l0,-1c0,0,0,-1,0,-1c-1,-1,-1,-2,-1,-2l0,-1l1,0l0,1c0,0,0,1,0,1l0,1c0,0,0,1,0,1l0,1ZM80.5,352.5c0,0,0,-1,0,-2c0,0,0,-1,-1,-1l1,-1l0,1c0,0,1,1,1,1l0,1c0,0,0,1,-1,1ZM279.5,284.5l0,-1c0,0,0,-1,0,-1c0,-1,0,-1,0,-1l0,-1c0,0,1,0,1,1l0,1c0,0,0,1,0,1l-1,1ZM279.5,285.5l0,1c0,0,1,0,1,0l0,-1c0,1,1,1,1,1c0,0,0,-1,0,-1l0,-1l1,0l0,1l-1,1l0,1l-1,0l0,-1l0,1c-1,0,-1,0,-1,0c0,0,-1,0,-1,0l0,-1l0,-1ZM73.5,296.5l-1,0l1,-1l0,1ZM73.5,299.5c-1,0,-1,0,-1,0l-1,-1l-1,0l0,-1l0,-1c0,-1,0,-1,0,-1c1,0,1,-1,1,-1c0,0,1,0,1,-1l-1,0l-1,0c0,0,1,0,1,0l1,0c1,0,1,0,1,0c1,0,1,0,1,0l-1,0l-1,1l-1,0l0,1l-1,0c0,1,0,1,0,1c0,1,0,1,1,1c0,1,0,1,1,1c0,0,1,0,1,0l1,0l1,0ZM117.5,300.5l0,-1l0,-2l-1,-8l1,-2l1,10c0,1,0,1,0,1c0,0,-1,0,-1,1l0,1ZM119.5,301.5l-4,2c0,0,0,-1,0,-1l4,-2ZM374.5,299.5l0,-1l0,-1l-1,-8l1,-3l1,11c0,1,0,1,0,1c-1,1,-1,1,-1,1ZM376.5,301.5l-4,2c0,-1,1,-1,1,-1l3,-2ZM366.5,348.5l0,-1l0,-1l-1,-9l1,-2l1,11c0,0,0,1,-1,1c0,0,0,1,0,1Z" class="g1_30" />
<path fill-rule="evenodd" d="M227.5,541.5l-4,1c0,0,1,0,1,-1l3,-1ZM92.5,583.5c0,1,0,1,0,2l-1,1c0,0,0,1,-1,1l2,0l0,1l-1,0l-1,0c0,0,0,1,0,1l-1,0c0,1,0,1,-1,1l-1,0l0,1l-1,0l-1,0l-1,1l-1,1l-3,0l-1,0l0,-2c-1,0,-1,0,-1,0c-1,0,-2,-1,-3,-1l-1,0l0,-1l-1,0l0,-1l-1,0l0,-1l-1,0l2,0l-1,-1l0,-1l-1,0l0,-1l0,-1l0,-1l0,-1l1,-1c0,0,0,-1,0,-1l1,0l-2,-1c0,0,1,0,1,-1l1,0l0,-1l1,0l1,-1l1,0l2,-1l1,0l0,-1c1,0,1,-1,1,-1l3,0l1,1l1,1l2,1l1,0c0,1,1,1,1,1l1,0l0,1c1,0,1,1,2,1l-1,1l0,1l1,0l0,1l0,1ZM83.5,593.5l1,-1l0,-1l1,0c1,0,1,-1,2,-1l1,0c0,0,1,-1,1,-1l1,0c0,-1,0,-1,0,-1l1,0l0,-1l-1,0l0,-1l1,0l0,-1l1,-1l0,-1c0,-1,0,-2,-1,-3c0,-1,0,-1,0,-1l-1,0l0,-1l1,0c0,0,0,-1,-1,-1l-1,0l0,-1l-1,0l-1,-1l-2,0c0,0,0,-1,0,-1l-1,-1l-1,0l-1,-1l-2,0l0,1l-1,0l0,1c-1,0,-1,1,-1,1l-2,0l-1,1l-1,0l-1,1c0,0,-1,1,-1,1l1,0l0,1l-1,0l0,1l0,1l-1,0l0,1l0,1l0,1l1,0l0,1c0,1,0,1,0,1l1,0l0,1l-1,0l0,1l1,0l0,1l1,0l1,0l0,1l1,0l1,0l1,1c0,0,1,0,1,0l0,1l1,0c0,1,0,1,0,1ZM89.5,578.5l-1,0l-1,-1l-1,0c-1,0,-1,0,-1,0c0,0,1,-1,1,-1c0,0,-1,0,-1,0c0,0,1,0,1,0l1,0l0,1l1,0l1,1ZM89.5,588.5l-1,0l0,1l-1,0l-1,0l0,1l-1,0l1,-1c0,0,-1,0,-1,0c1,0,1,0,1,0l1,0l0,-1c1,0,1,0,1,-1l1,0ZM84.5,590.5l0,1c0,0,-1,0,-1,0l-3,0c0,0,-1,0,-1,0c0,-1,0,-1,0,-1c0,-1,0,-1,0,-1c0,0,1,0,1,-1l3,0l1,0l0,1ZM84.5,576.5l0,1l-1,0l-3,0c0,0,-1,0,-1,0l0,-1c0,-1,0,-1,0,-1l1,0l0,-1l3,0c0,0,1,1,1,1l0,1ZM83.5,578.5l1,0l1,0c0,0,1,0,1,0l1,1l1,0c1,0,1,0,1,1l0,1l1,0l0,1l0,1l0,1l-1,1c0,0,0,1,0,1l-2,0l0,1c0,0,-1,0,-1,0l-1,0l0,1l-1,0c0,0,0,-1,0,-1c0,0,-1,0,-1,0l-3,0l-1,0l0,1l-1,0c0,0,0,-1,-1,-1l-1,0l0,-1l-1,0l-1,0l0,-2l-1,0l0,-1c0,-1,0,-1,0,-1c0,-1,1,-1,1,-1l0,-1c0,-1,1,-1,1,-1l1,0l1,0l0,-1c1,0,1,0,1,0c1,0,1,0,1,0l1,0ZM83.5,587.5l1,0l1,0l1,0l1,-1l1,0l1,-1l0,-1l0,-1l1,0c0,-1,-1,-1,-1,-2c0,0,0,-1,0,-1c0,0,-1,-1,-1,-1l-1,1l0,-1l-1,0l0,-1l-1,0c-1,0,-1,0,-1,0c0,0,-1,0,-1,0l0,1l-3,0l-1,-1l-1,0c0,0,-1,0,-1,0l0,1l-1,0c0,1,0,1,0,1l-1,-1c0,0,0,1,-1,1l0,1l0,1l0,1l0,1l0,1c0,0,1,1,1,1l1,0l1,1l1,0c1,0,1,0,1,0c1,0,1,0,1,0l3,0ZM80.5,581.5l1,0l1,0c0,0,0,1,0,1l0,1c0,1,1,1,1,1l-1,1l0,-1l0,-1l0,-1l-1,0c0,0,-1,0,-1,0c0,-1,0,-1,0,-1ZM74.5,578.5l1,0l0,-1l1,0l0,-1l1,0l1,0c0,0,0,1,0,1c-1,0,-1,0,-1,0c0,0,-1,0,-1,0l0,1l-1,0ZM74.5,588.5l1,-1c0,1,1,1,1,1l1,1l1,0l0,1l-1,0l0,-1c-1,0,-2,0,-2,-1l-1,0ZM126.5,585.5l-1,0l-1,0c0,-1,0,-1,0,-1l-1,0l-1,0c0,0,0,1,0,1l-1,0l-1,0l-1,0l-1,0l-1,-1l-1,0c0,1,-1,1,-1,1l-1,0l-1,0c-1,0,-1,0,-1,0l-1,-1l0,-1l0,-1l0,-1c-1,1,-1,1,-2,2l-1,0l0,1c0,0,0,1,0,1c0,1,0,1,0,2c0,1,-1,1,-1,2c-1,0,-1,1,-2,1c0,0,-1,0,-2,0c-1,0,-1,0,-2,0c0,0,-1,0,-1,-1c0,0,-1,0,-1,-1c0,0,0,-1,0,-2l0,-1c0,0,0,-1,0,-1c0,-1,0,-1,0,-1c1,0,1,0,1,0l0,-1l0,1l0,1c0,0,0,1,0,1c0,0,-1,0,-1,0c0,0,0,1,1,1l0,1l1,0c0,1,0,1,0,1l1,0c0,0,1,0,1,0c1,0,2,0,2,0c1,0,2,-1,2,-1c0,0,0,-1,0,-1c1,0,1,0,1,0c0,-1,0,-1,0,-1c0,-1,-1,-1,-1,-1c0,0,0,-1,0,-1l0,-1l-1,0l0,-1l1,-2c0,0,0,1,0,1c1,1,1,1,1,1l1,0l1,0c0,0,0,-1,1,-1c0,0,0,-1,0,-1c1,0,1,1,1,1l0,1c0,1,0,1,0,2c0,0,1,0,1,0c0,1,0,1,1,1c0,0,1,0,1,0c0,-1,1,-1,1,-1l1,0c0,0,0,-1,0,-1c1,0,1,0,1,1c1,1,1,1,1,1l1,0l1,0c0,0,1,0,1,-1l1,-1c0,-1,1,-1,1,-1l0,-1c0,0,1,0,1,0c0,0,1,0,1,0c0,1,0,1,0,2l1,0l0,1l0,1l-1,0l0,1ZM124.5,582.5l1,1l0,-1c-1,0,-1,0,-1,0ZM122.5,574.5l0,1c0,0,1,0,1,0l0,-1l0,-1l1,1c0,0,1,0,1,0l0,-1l0,1l0,1l-1,0l-1,0l0,1c0,0,-1,0,-1,0c0,0,-1,-1,-1,-1l1,0l0,-1ZM123.5,569.5c0,-1,1,-1,1,-1c0,0,0,-1,1,-1c0,1,0,1,0,1l0,1l0,1l0,2l-1,-1l0,1c-1,0,-1,1,-1,1c-1,0,-1,0,-2,0c1,-1,2,-1,3,-2l-1,0l0,-1l0,-1ZM124.5,569.5l0,1l1,0l-1,-1ZM117.5,589.5l-2,-1l1,-1l2,1ZM116.5,591.5l-4,2c1,0,1,-1,1,-1l4,-2ZM113.5,588.5l-2,-1l0,2l-2,-1l1,-2l2,1l0,-1l2,1ZM103.5,581.5l-1,-1l1,-2l1,1ZM102.5,593.5l4,-3l0,1l0,1l-4,2l0,-1ZM99.5,597.5c1,0,1,0,1,0l4,-3l0,1l-1,1l-4,2l0,-1ZM179.5,584.5c0,0,-1,0,-2,0c-1,0,-2,0,-4,0c-1,1,-2,1,-2,1c-1,0,-1,0,-1,0c-1,0,-1,0,-1,0c-2,0,-3,0,-5,0c-1,0,-2,0,-3,0c-1,0,-2,0,-3,0l-1,0l-1,0c-1,0,-1,0,-1,0l-1,0l0,-1l-1,0c0,0,-1,0,-1,0c0,1,0,1,0,1l-1,0c0,0,-1,0,-1,0c0,0,-1,0,-1,0l0,-1c0,0,-1,0,-1,0c0,0,0,1,-1,1c0,0,-1,0,-2,1l-2,0c-1,0,-1,0,-1,0l-1,0l-1,0c-1,0,-3,0,-3,0c-2,0,-2,-1,-3,-1c0,0,0,-1,-1,-1c0,-1,0,-1,0,-1l0,-1c0,0,0,-1,0,-1c1,-1,1,-1,1,-1l1,0c0,0,-1,0,-1,1l0,1l0,1c1,0,1,0,2,1c0,0,1,0,1,0c0,0,1,0,1,0c1,0,2,1,3,1c1,0,1,0,2,-1c0,0,1,0,2,0c1,0,1,0,1,0c1,-1,1,-1,2,-1c1,0,1,-1,1,-1l0,1l1,0c0,1,0,1,0,1c1,0,1,0,1,0c0,-1,1,-1,1,-1l1,0c0,0,0,-1,0,-1l1,0l0,1l1,0c0,1,0,1,1,1l1,0c0,0,1,0,1,0l1,0c1,0,2,0,3,0c1,0,2,-1,3,-1c1,0,2,0,4,0l2,0c0,0,1,0,2,0c2,0,3,0,4,-1c2,0,3,0,3,0l1,0c0,0,-1,0,-1,0c0,-1,0,-1,0,-1c-1,0,-1,0,-1,0c-1,0,-1,0,-1,0c-1,0,-3,0,-5,0c-1,0,-3,0,-5,1c-2,0,-4,0,-5,0c-2,0,-3,0,-3,-1c-1,0,-1,0,-1,0c0,-1,0,-1,1,-2c0,0,0,-1,0,-1c0,0,1,0,1,-1c1,-1,2,-1,3,-2c1,-1,1,-1,2,-1c0,0,1,-1,1,-1l-1,2l-1,1c-1,0,-1,1,-2,1c-1,1,-2,2,-2,2l-1,0c0,1,0,1,0,1c0,0,1,0,1,0c0,0,1,0,1,0c0,0,1,0,1,0l1,0c1,0,2,0,4,0c2,0,4,0,6,-1c2,0,3,0,4,0c1,0,2,0,2,1c1,0,1,0,1,0l0,1l0,1c0,0,0,1,0,1c0,1,0,1,-1,1ZM167.5,588.5l-5,3c1,-1,1,-1,1,-1l0,-1l4,-2ZM154.5,580.5l-1,-1l-1,1l-1,-1l0,-1l2,1l1,-1l1,1ZM141.5,590.5l-1,-1l1,-1l1,1ZM135.5,596.5l5,-3c0,0,-1,1,-1,1l0,1l-5,2ZM136.5,593.5l5,-3c0,1,0,1,0,1l-5,3ZM198.5,576.5l-2,-1l1,-1l2,1ZM199.5,582.5l0,1c-1,0,-1,0,-1,0c0,0,-1,0,-1,0c0,0,0,-1,0,-1c0,0,-1,0,-1,0c0,0,0,-1,0,-1c0,0,0,-1,0,-1l0,-1c1,0,1,0,1,-1c0,0,1,-1,1,-1c1,0,1,1,1,1c1,0,1,1,1,2l0,1c0,0,0,1,1,1c0,0,0,1,0,1c-1,1,-1,1,-1,1c0,1,0,1,-1,1c1,0,1,1,1,1l1,0c0,0,0,1,0,1c0,0,0,1,0,1c0,0,-1,1,-1,1l-1,1c-1,0,-1,0,-2,1c-1,0,-2,0,-3,0c-1,0,-1,0,-2,0c-1,0,-1,-1,-1,-1c-1,0,-1,-1,-1,-1c0,-1,-1,-1,-1,-1l0,-1c0,0,1,-1,1,-2c0,-1,0,-1,1,-2c0,0,0,1,0,1l0,1c-1,1,-1,1,-1,1c0,0,0,1,0,1c1,1,1,1,1,2c1,0,2,0,3,0c1,0,1,0,1,0c0,0,1,0,1,0c0,0,1,0,1,0c1,0,1,-1,2,-1c0,0,1,0,1,-1c0,0,-1,0,-2,0c0,0,-1,0,-1,0c0,0,0,-1,0,-1l0,-1c1,0,1,0,2,-1l1,0l0,-1l0,-1l-1,0ZM197.5,580.5l0,1l1,0l1,-1l-1,0l0,-1c0,0,-1,0,-1,0c0,0,0,1,0,1ZM201.5,591.5l-4,2c0,0,0,-1,1,-1l3,-2ZM230.5,572.5c0,0,-1,1,-2,1c-2,1,-3,1,-4,2c-2,0,-2,1,-3,1l-1,0c0,1,1,1,1,1l2,1c0,0,1,1,2,2l0,1c0,0,0,1,0,1c0,1,0,1,0,2c-1,1,-1,1,-1,1c0,0,-1,0,-1,0c0,0,-1,0,-2,0c-1,0,-1,0,-1,0c-1,0,-1,-1,-1,-2l0,2l0,1c0,0,0,1,-1,1c0,1,0,1,-1,2l-1,0c0,1,0,1,-1,1l-1,0c0,0,-1,0,-1,0l-1,0l-1,0c-1,0,-1,0,-1,-1c-1,0,-1,0,-1,-1l0,-1c0,-1,0,-1,0,-2c0,0,0,-1,1,-1l0,-1l1,0l-1,0l0,1c0,0,0,1,0,1c0,0,0,1,0,1c0,1,0,1,0,2c1,0,1,0,2,0c0,0,1,0,1,0c1,0,2,0,3,0c1,-1,1,-1,2,-1c0,0,0,-1,0,-1l0,-1l0,-2c0,0,0,-1,0,-2l0,-1l-1,-7l1,-2l1,11c0,1,0,1,0,1c0,0,1,0,1,0c0,1,0,1,1,1l1,0c1,0,1,-1,1,-1c1,0,1,0,1,0c0,0,1,0,1,0c0,0,0,-1,0,-1l0,-1c-1,0,-1,-1,-2,-1c0,0,0,-1,-1,-1c-1,0,-1,0,-1,0c-1,0,-1,-1,-1,-1c0,-1,0,-1,0,-1l0,-1l0,-1c1,0,1,0,1,0c1,-1,2,-1,3,-2c1,-1,3,-1,4,-2c1,0,2,0,2,0ZM224.5,566.5c0,0,1,-1,1,-1l1,0c0,0,1,0,1,1l-1,1l0,1l1,0l0,1l-2,0c-1,1,-1,1,-1,1l-1,0l-1,0l1,0l1,-1l1,-1l-1,0c0,0,0,-1,0,-1c0,0,0,-1,0,-1ZM225.5,566.5l0,1l1,0c0,0,0,-1,0,-1ZM241.5,567.5c-1,0,-1,0,-1,1l-1,0l-1,0l-1,0l-1,0c0,0,0,-1,0,-1c-1,0,-1,0,-1,-1c0,-1,0,-2,0,-2c1,-1,1,-1,2,-1l-1,0l0,-1c0,0,-1,1,-1,1l0,-1l1,0l1,0l1,0l1,0l-1,1c0,0,-1,0,-1,0c-1,0,-1,0,-1,1l-1,0c0,1,0,1,0,1c0,0,0,1,1,1l0,1c0,0,1,0,1,0l1,0l1,0ZM238.5,565.5l-1,0c0,0,1,-1,1,-1c0,0,0,1,0,1ZM315.5,581.5l0,1l1,0c0,-1,0,-1,-1,-1ZM315.5,589.5c0,1,-1,1,-1,1c0,0,-1,0,-1,0l-1,0c0,0,-1,0,-2,0c0,0,0,-1,0,-1l1,0c1,0,1,0,1,0l1,0c0,0,1,-1,1,-1c0,0,1,0,1,0c0,-1,1,-1,1,-1c0,0,0,-1,0,-1c1,-1,1,-1,1,-2l-1,0l-1,0l-1,0l0,-1l0,-1c0,-1,0,-1,0,-2c1,0,1,0,1,0c0,-1,1,-1,1,-1l1,0c0,1,0,1,0,1c0,1,0,1,0,1c1,0,1,1,1,1c0,1,0,1,0,1c0,1,0,1,0,1c0,1,-1,2,-1,3c0,0,-1,1,-1,1c0,0,0,1,-1,1ZM313.5,576.5l4,-3l-1,1l-4,3ZM309.5,585.5l-1,0l-1,0c0,-1,0,-1,0,-1l-1,0l-1,0c0,0,0,1,0,1l-1,0l-1,0l-1,0l-1,0c0,-1,0,-1,0,-1c0,0,0,-1,0,-1l-1,1c-1,1,-1,1,-2,1c0,0,-1,0,-1,-1l-1,0c0,1,0,1,-1,1c-1,0,-2,0,-2,-1c-1,1,-2,1,-2,1l-1,0l-1,0l-1,0l-1,-1c0,0,0,1,-1,1l-1,0l-1,0l-1,0c0,1,-1,1,-1,1c0,1,0,1,0,2c0,0,-1,0,-1,1l-1,1c-1,0,-1,0,-1,0c0,1,-1,1,-1,1l-1,0c-1,0,-1,0,-2,-1l-1,0c1,0,1,0,1,-1c0,1,0,1,0,1c1,0,1,0,1,0c0,0,1,0,1,0c1,-1,1,-1,2,-1c0,0,0,-1,1,-1c1,-1,1,-1,1,-1c0,-1,0,-1,0,-1c1,-1,1,-1,1,-1l-1,0c-1,0,-1,0,-1,0l-1,0c0,0,0,-1,0,-1c0,-1,0,-1,0,-1c0,0,0,-1,0,-1l0,-1l1,0c0,-1,1,-1,1,-1c0,0,0,1,0,1c1,0,1,0,1,0c0,0,0,1,0,1c1,1,1,1,1,2c0,0,1,0,1,0c1,0,1,0,1,-1c1,0,1,0,1,0c0,0,1,0,1,0c0,-1,0,-1,0,-1l0,1c0,0,1,0,1,0c1,1,1,1,1,1l1,0l1,0l1,-1c1,0,1,-1,2,-1l0,1l1,1c0,0,1,-1,1,-1c0,0,1,0,1,-1l1,-1c0,1,0,1,0,2l1,0l1,0l0,-1l1,-1c0,2,1,3,2,3l1,0c0,0,1,0,1,-1l1,-1c0,-1,1,-1,1,-1l0,-1c0,0,1,0,1,0c0,0,1,0,1,0c0,1,0,1,0,2l1,0l0,1l0,1l-1,0l0,1ZM307.5,582.5l1,1l0,-1c-1,0,-1,0,-1,0ZM306.5,569.5c0,0,1,0,1,0c0,-1,0,-1,1,-1c0,1,0,1,0,1c0,0,0,1,0,1c0,1,0,1,0,1l1,0l-1,2l-1,-1l-1,1l0,1l-1,0l-1,0l1,-1c0,0,1,0,1,-1l1,0l-1,-1l0,-1l0,-1ZM307.5,570.5l0,-1l0,1l0,1l1,0l0,-1l-1,0ZM294.5,574.5c0,0,1,0,1,0c0,0,1,0,1,0c1,0,1,0,2,0l0,1c0,0,0,1,0,1c-1,0,-1,0,-1,0c0,0,0,1,0,1c-1,0,-1,0,-1,0c0,0,-1,0,-1,0c0,0,-1,0,-1,0l2,-1c1,0,1,0,1,-1c-1,0,-1,0,-1,0c-1,0,-1,0,-1,0c-1,0,-1,0,-1,0l0,-1ZM288.5,579.5l-1,-1l-1,2l-2,-1l1,-2l2,1l1,-1l1,1ZM285.5,572.5l4,-2l0,1l-4,2ZM280.5,582.5c0,0,0,1,0,1c1,0,1,1,1,1c0,-1,1,-1,1,-1c0,0,-1,0,-1,0l0,-1l-1,0ZM276.5,574.5c0,0,1,0,1,0c0,0,1,0,1,0c1,0,1,0,2,0l0,1c0,0,0,1,0,1c-1,0,-1,0,-1,0c0,1,0,1,0,1c0,0,-1,0,-1,0l-1,0l-1,0l2,-1c1,0,1,0,2,-1c-1,0,-1,0,-1,0c-1,0,-1,0,-1,0c0,0,-1,0,-1,0c-1,0,-1,0,-1,1l0,-1l0,-1ZM275.5,584.5l-1,0l-1,1c0,0,-1,0,-2,0l-1,0l-1,0c-1,0,-1,0,-1,0l0,-1l0,-1l1,0l1,0c0,0,1,0,1,0c1,0,1,0,1,0c1,0,1,0,1,0c1,0,1,0,1,-1l0,-1c0,0,-1,0,-1,-1l-1,0l0,-1l-1,0l-1,0l1,-2l1,0c1,1,1,1,1,1c1,1,1,1,1,1c0,1,1,1,1,2l0,1c0,1,0,1,0,1c0,0,0,1,0,1ZM271.5,572.5l4,-2l0,1l-1,0l-4,2ZM265.5,582.5c0,0,-1,1,-2,1c-1,1,-2,1,-3,2c-2,0,-3,0,-3,0l-1,0l-1,0l-1,0l-1,0l1,1l0,1c0,1,0,2,0,2c-1,1,-1,1,-2,1l-1,0c0,0,-1,-1,-1,-1c0,-1,-1,-2,-1,-4c-1,0,-1,0,-1,0l-1,0l-2,0c0,0,-1,0,-1,0c-1,-1,-1,-1,-1,-2l-1,-9l1,-2l1,10l0,1c0,0,1,1,1,1l2,0l1,0l1,0l0,-1l1,0c0,0,0,-1,0,-1l1,-1l0,-1c1,-1,2,-2,2,-2l1,1l0,1l0,1c0,0,0,1,-1,1c0,1,-1,1,-2,2l2,0l2,0l1,0l1,0l0,-1c1,0,2,0,2,0c-1,0,-1,-1,-1,-1c0,0,0,-1,0,-1c0,-1,0,-1,0,-1l0,-1c0,0,1,-1,1,-1l1,-1c1,0,1,0,1,0c1,0,1,0,1,0c0,0,1,0,1,0c0,0,1,1,1,1l0,1l-1,-1l-1,0l-1,0c-1,0,-1,0,-1,1c-1,0,-1,0,-1,0l0,1c0,0,0,1,1,1c0,1,1,1,1,1c1,0,1,0,1,0l1,0l1,0l0,-1l1,0l1,-1ZM257.5,572.5l4,-2l0,1l-4,2ZM252.5,580.5c0,0,0,1,-1,1l0,1l-1,1c1,0,2,-1,2,-1c1,0,1,-1,1,-1l0,-1l-1,0ZM250.5,586.5l0,1c1,0,1,1,1,1l1,0c0,0,0,1,0,1c1,0,1,-1,1,-1c0,0,1,0,1,0c0,-1,-1,-1,-2,-2c0,0,-1,0,-2,0ZM250.5,572.5l4,-2l0,1l-4,2ZM382.5,585.5l-1,0l-1,0c0,-1,0,-1,0,-1l-1,0l-1,0c0,0,0,1,0,1l-1,0l-1,0l-1,0l-1,0c0,-1,0,-1,0,-1c0,0,0,-1,0,-1l-1,1c-1,1,-1,1,-2,1c0,0,-1,0,-1,-1l-1,0c0,1,0,1,-1,1c-1,0,-2,0,-2,-1c-1,1,-2,1,-2,1l-1,0l-1,0l-1,0l-1,-1c0,0,0,1,-1,1l-1,0l-1,0l-1,0l-1,0c-1,0,-1,0,-2,0c0,0,-1,0,-1,0c0,0,-1,0,-2,0l-1,0l-1,0l-1,0l0,1c0,1,0,2,-1,2c0,1,0,1,0,1c0,0,-1,1,-1,1c0,0,-1,0,-1,1l-1,0l-1,0c-1,0,-1,0,-2,0c0,-1,0,-1,-1,-1c1,0,1,0,1,0l1,0c0,0,1,0,1,0c1,0,1,-1,2,-1c1,-1,1,-1,1,-1c0,-1,0,-1,1,-1c0,-1,0,-1,0,-1c0,-1,1,-1,1,-1l-1,0c0,0,0,-1,0,-1l0,-1c0,0,0,-1,0,-1c0,1,0,1,1,1l1,1l1,0c0,0,1,0,1,-1c0,0,1,0,1,0c0,0,-1,0,-1,0l0,-1c0,0,0,-1,1,-1c0,-1,0,-1,0,-2c1,0,1,0,1,0c0,-1,1,-1,2,-1l1,1c0,0,0,1,0,1l0,1c0,1,0,1,0,1c-1,1,-1,1,-1,1c1,0,1,1,1,1c0,0,1,0,1,0l1,0l1,0l0,-1c1,0,1,0,1,0c0,0,1,0,1,0c0,-1,0,-1,0,-1l0,1c0,0,1,0,1,0c1,1,1,1,1,1l1,0l1,0l1,-1c1,0,1,-1,2,-1l0,1l1,1c0,0,1,-1,1,-1c0,0,1,0,1,-1l1,-1c0,1,0,1,0,2l1,0l1,0l0,-1l1,-1c0,2,1,3,2,3l1,0c0,0,1,0,1,-1l1,-1c0,-1,1,-1,1,-1l0,-1c0,0,1,0,1,0c0,0,1,0,1,0c0,1,0,1,0,2l1,0l0,1l0,1l-1,0l0,1ZM380.5,582.5l1,1l0,-1c-1,0,-1,0,-1,0ZM379.5,569.5c0,0,1,0,1,0c0,-1,0,-1,1,-1c0,1,0,1,0,1c0,0,0,1,0,1c0,1,0,1,0,1l1,0l-1,2l-1,-1l-1,1l0,1l-1,0l-1,0l1,-1c0,0,1,0,1,-1l1,0l-1,-1l0,-1l0,-1ZM380.5,570.5l0,-1l0,1l0,1l1,0l0,-1l-1,0ZM367.5,574.5c0,0,1,0,1,0c0,0,1,0,1,0c1,0,1,0,2,0l0,1c0,0,0,1,0,1c-1,0,-1,0,-1,0c0,0,0,1,0,1c-1,0,-1,0,-1,0c0,0,-1,0,-1,0c0,0,-1,0,-1,0l2,-1c1,0,1,0,1,-1c-1,0,-1,0,-1,0c-1,0,-1,0,-1,0c-1,0,-1,0,-1,0l0,-1ZM361.5,579.5l-1,-1l-1,2l-2,-1l1,-2l2,1l1,-1l1,1ZM358.5,572.5l4,-2l0,1l-4,2ZM354.5,577.5l-2,-1l-1,1l-1,-1l1,-1l1,1l1,-2l1,1ZM353.5,580.5c0,0,-1,0,-1,0c0,0,-1,1,-1,1l1,1c1,0,1,0,2,0l0,-1l0,-1c-1,0,-1,0,-1,0ZM349.5,569.5l4,-2l0,1l-4,2ZM343.5,574.5l0,1c1,0,1,0,1,0l0,-1l1,0l0,-1l0,1l1,0l0,-1l1,0l0,1l-1,0l0,1l-1,0l-1,1c-1,0,-1,0,-1,0l0,-1l0,-1ZM347.5,571.5l-5,3c0,-1,0,-1,1,-2l5,-2ZM339.5,585.5l-1,0l-1,-1c0,0,-1,0,-1,0l-1,0c-1,0,-1,0,-1,1l-1,0l-1,0l-1,0l-1,0l-1,0c-1,0,-1,0,-2,0c0,-1,0,-1,0,-2l-1,-9l1,-2l0,10l1,0l0,1c0,0,1,1,1,1l2,0l1,0l0,-1c1,0,1,0,1,0l0,-1l0,-1c0,0,0,-1,1,-1l0,-1c0,-1,0,-1,0,-1c0,0,1,0,1,0c0,-1,0,-1,0,-1c1,0,1,1,2,1c1,1,1,1,2,2c0,0,0,1,1,1c0,0,0,1,0,1l0,1c0,0,0,1,0,1c0,0,-1,0,-1,0c0,1,0,1,0,1ZM335.5,580.5c-1,1,-1,1,-1,1c0,0,0,1,0,1c0,0,1,0,1,0c0,0,1,0,1,0l0,-1c0,-1,-1,-1,-1,-1ZM337.5,581.5c0,0,0,1,0,1l0,1l2,0l0,-1c0,0,-1,0,-1,0c0,-1,0,-1,0,-1c-1,0,-1,0,-1,0ZM334.5,572.5l4,-2l0,1l-5,2ZM210.5,570.5l0,1c1,0,1,0,1,0c0,0,1,0,1,0l0,-1l0,-1l0,1l1,0l0,1c0,0,1,-1,1,-1l0,-1l0,-1l0,1c0,0,0,1,0,1l0,1c0,1,0,1,0,1l-1,0l-1,0c-1,1,-1,1,-1,1c-1,0,-1,0,-1,0c0,-1,0,-1,0,-1c0,-1,0,-1,0,-1l0,-1ZM211.5,561.5l-1,1c0,1,0,1,0,1l0,1c0,1,0,1,0,1l-1,-1l0,-1l0,-1c1,0,1,-1,1,-1c0,0,1,0,1,-1l1,0l1,0ZM211.5,563.5l1,-1l1,0c0,0,0,1,0,1l0,1l0,1l0,1l-1,0l-1,1l-1,0l0,1l-1,0c0,0,0,-1,0,-1l1,0c0,-1,1,-1,1,-1l0,-1l1,0l-1,0c0,0,0,-1,0,-1c0,0,0,-1,0,-1ZM212.5,563.5c0,0,0,1,0,1ZM188.5,573.5c0,0,1,0,1,0c1,0,1,0,1,0c1,0,1,0,2,0c0,1,0,1,0,1l0,1c0,0,-1,0,-1,0c0,0,-1,0,-1,1l-1,0l-1,0l2,-1c1,0,1,0,2,-1c-1,0,-1,0,-1,0c0,0,-1,0,-1,0c0,0,-1,0,-1,0c0,0,-1,0,-1,0c0,-1,0,-1,0,-1ZM107.5,572.5l1,0c0,0,1,0,1,0c1,0,1,0,2,0l0,1c0,0,0,1,-1,1c0,1,0,1,-1,1c0,0,-1,0,-1,0c-1,0,-1,0,-1,0l2,-1c0,0,1,0,1,-1c-1,0,-1,0,-1,0c-1,0,-1,0,-2,0l0,1l0,-1l0,-1ZM152.5,575.5c0,-1,0,-1,0,-2c0,-1,0,-1,-1,-2l1,0l0,1l1,0l0,1c0,0,0,1,0,1c0,0,-1,0,-1,0c0,1,0,1,0,1ZM104.5,535.5c0,0,0,1,0,1c1,0,1,0,1,0c0,-1,0,-1,0,-1l-1,0ZM104.5,543.5c0,0,-1,0,-1,0c0,0,-1,1,-2,1c0,0,-1,-1,-2,-1c0,0,0,-1,0,-1c0,1,0,1,1,1c0,0,1,0,1,0l1,0c0,-1,0,-1,0,-1c0,0,1,0,1,0c0,0,1,-1,1,-1l1,-1l0,-1c1,0,1,-1,1,-1l0,-1c-1,0,-1,1,-1,1c0,0,-1,0,-1,0l-1,0l0,-1l0,-1c0,-1,0,-1,0,-1c0,0,0,-1,0,-1c1,0,1,-1,1,-1l1,0c1,0,1,0,1,1l0,1l1,1c0,0,0,1,0,1l0,1c-1,1,-1,2,-1,3c0,0,-1,0,-1,1l-1,1ZM101.5,529.5l5,-2l-1,1l-4,2ZM99.5,542.5l-2,-1l-1,1l-1,-1l1,-1l1,1l1,-1l1,1ZM96.5,539.5l-1,0l-1,0l-1,0c0,0,-1,-1,-1,-1l-1,0l0,-1c0,0,-1,0,-1,1c-1,0,-1,0,-1,0c0,0,-1,1,-1,1l-1,0l-1,0c0,0,-1,0,-1,0c0,-1,-1,-1,-1,-2c0,0,0,1,-1,1c0,0,0,1,0,1l-1,0c-1,0,-2,0,-2,-1l-1,0c0,0,0,1,0,1l-1,1c0,0,-1,-1,-1,-1c-1,0,-1,0,-2,-1l0,1l0,1c0,0,-1,0,-2,1c0,0,-1,0,-1,0c-2,1,-3,1,-4,1l4,-2l1,-1c1,0,1,-1,2,-1l1,-2c0,0,0,-1,0,-1c1,0,1,0,1,0l1,-1c0,1,0,1,1,2c0,0,1,1,1,1c0,0,1,0,1,0l1,0c1,0,1,0,2,-1c0,0,0,-1,0,-1l0,-1l-1,-7l1,-2l1,11l0,1c0,0,1,0,1,0l1,0l1,0l1,0l0,-1c1,0,1,0,1,0l-1,0c0,-1,0,-1,-1,-1l-1,0l1,-2c1,0,1,0,2,0l1,0c1,0,1,0,1,0l1,0c0,0,0,1,0,1c0,1,0,1,0,1c0,0,-1,1,-1,1l0,1c0,0,1,0,1,0l1,0l1,0l1,0c0,0,1,0,1,0c1,0,1,0,1,0c0,-1,0,-1,0,-1l0,-1l0,-1l-1,0l1,-1c0,0,1,0,1,0c0,1,0,1,0,1l0,1l0,1l0,1c0,0,0,1,-1,1l-1,1c0,0,-1,0,-1,0ZM96.5,526.5l4,-2l-1,1l-4,2ZM87.5,524.5l1,0l1,0c0,0,1,0,1,0c1,0,1,0,1,1c0,0,0,1,-1,1c0,1,-1,1,-1,1c-1,0,-1,0,-1,0l-1,0l2,-1c0,0,1,0,1,-1l-1,0c-1,0,-1,0,-2,0l-1,1l0,-1l1,0l0,-1ZM81.5,523.5l4,-2c0,0,0,1,0,1l-4,2ZM78.5,538.5l0,-1c0,-1,-1,-1,-1,-1c-1,0,-1,0,-1,1c0,0,1,0,1,0l1,0ZM75.5,526.5c1,-1,1,-1,1,-1c1,0,1,0,1,0c0,0,0,1,0,1c0,0,0,1,0,1c0,1,0,1,0,1l0,2l-1,-1l-1,1c0,0,-1,0,-1,1l-1,0l0,-1l1,0l1,-1l0,-1l0,-1l0,-1ZM76.5,527.5l0,-1c0,0,-1,0,-1,1l1,0l0,1l0,-1ZM141.5,542.5c0,0,1,0,1,0l1,0c0,0,1,0,2,-1c1,0,1,0,1,-1c1,0,1,-1,2,-1c0,-1,0,-1,0,-1c0,0,0,-1,0,-1l0,-1l-1,-1l0,-1l1,-1l0,1l1,1l0,1l0,1c0,1,0,1,0,1c0,1,0,1,0,1c-1,0,-1,1,-1,1c0,0,0,1,0,1c0,0,-1,0,-1,1l-1,0l0,1l-1,0c-1,0,-1,0,-1,0l-1,0c-1,0,-1,0,-1,0c0,0,0,-1,-1,-1ZM147.5,547.5l-4,2c1,-1,1,-1,1,-1l4,-2ZM140.5,531.5l-2,-1l1,-1l2,1ZM134.5,542.5l1,0c1,0,2,0,3,-1c0,0,1,0,1,-1c1,0,1,-1,1,-1c1,-1,1,-1,1,-1c0,0,0,-1,0,-1l0,-1l-1,0l0,-1l0,-1l0,-1l1,1l0,1l0,1l1,0l0,1c0,1,0,1,-1,1c0,1,0,1,0,1c0,0,0,1,0,1c0,0,0,1,-1,1l0,1c-1,0,-1,0,-1,0l0,1l-1,0l-1,0l-1,0l-1,0c0,0,-1,-1,-1,-1ZM136.5,521.5l0,-1c1,0,1,0,2,0c0,0,1,0,1,1c1,0,1,0,1,0c0,1,-1,1,-1,1c0,1,0,1,0,1c-1,0,-1,0,-1,0c-1,0,-1,0,-1,0l-1,0l1,0c1,-1,2,-1,2,-1c0,0,-1,0,-1,0c0,0,0,-1,-1,-1c0,0,0,1,-1,1l-1,0c0,0,0,-1,0,-1l1,0ZM132.5,529.5l-1,-1l-1,1l-1,-1l1,-1l1,1l1,-1l1,1ZM134.5,537.5l-1,0c0,1,0,1,0,1c-1,0,-1,1,-2,1c-1,0,-1,0,-2,0l-1,0c0,0,-1,0,-1,0l-1,0c0,1,0,1,1,1c0,1,0,1,0,1c0,1,-1,1,-1,2c0,1,-1,1,-2,1c-1,-1,-1,-1,-1,-2c-1,-1,-1,-2,-1,-3l-1,0l-1,0l-1,0l-1,0c-1,0,-1,0,-2,-1c0,0,-1,-1,-1,-2l0,-8l1,-2l0,9l0,1l1,0l0,1l1,0l1,0l1,0l1,0l1,0c0,-1,1,-1,1,-2l0,-1c0,0,1,0,1,0c0,-1,1,-2,2,-2l0,1l0,1c0,1,0,1,0,2c0,0,-1,1,-2,2l1,-1l1,0l1,0l1,0l1,0c1,0,2,0,2,0c1,0,2,-1,2,-1l0,-1l0,-1c0,1,0,1,0,1l-1,0c0,1,0,1,-1,1l0,-1c-1,0,-1,0,-1,0c0,-1,0,-1,0,-1c0,-1,0,-1,0,-1c0,-1,0,-1,0,-1c0,0,0,-1,1,-1c0,0,0,-1,1,-1l1,1l0,1c0,0,1,0,1,0c0,0,0,1,0,1c0,0,0,1,0,1c0,0,0,1,0,1c0,1,0,1,0,1c0,1,0,1,0,1ZM131.5,533.5c1,0,1,0,1,0c0,-1,0,-1,0,-1l-1,0l0,1ZM130.5,520.5c0,-1,0,-1,1,-1c0,-1,0,-1,0,-1l1,0c0,1,0,1,0,1c0,1,0,1,0,1l0,1l0,1l0,1l-1,-1l-1,1c0,0,0,1,-1,1l-1,0l0,-1l1,0l1,0l0,-1l1,0l-1,0l0,-1l0,-1ZM131.5,520.5c0,0,-1,0,-1,0l1,0l0,1l0,-1ZM125.5,534.5c-1,0,-1,0,-1,1l-1,1l0,1c1,-1,2,-1,2,-1c1,-1,1,-1,1,-1c0,-1,0,-1,-1,-1ZM123.5,539.5c0,0,0,1,0,1c0,1,0,1,1,2c0,0,1,0,1,0c0,0,1,0,1,0l0,-1c0,0,0,-1,-1,-1c-1,0,-1,-1,-2,-1ZM119.5,525.5l4,-3l0,1l0,1l-5,2ZM173.5,539.5l0,-1l0,-1l0,-9l1,-2l0,10c0,1,0,1,0,1l0,1c0,0,0,1,-1,1ZM169.5,538.5l-1,0c0,0,-1,0,-1,0c-1,0,-1,-1,-1,-2c0,1,0,1,-1,2c0,1,-1,1,-1,1c-1,0,-2,0,-2,-1c0,0,-1,-1,-1,-2l0,1l-1,0c0,1,-1,1,-1,1c-1,0,-1,0,-2,-1c0,-1,0,-1,0,-2c0,0,1,0,1,0c0,-1,1,-1,1,-1l1,-1l1,0l0,-1l0,-1l1,0l0,1l0,1l0,2c0,1,0,1,0,1c1,1,1,1,2,1l1,-1l1,-1c0,0,-1,-1,-1,-2c0,0,0,-1,0,-1c0,-1,0,-1,0,-1l0,-1l0,-1l1,-1l0,3l0,2l0,1l1,1l0,1c0,0,1,0,1,0l1,0c0,0,1,0,1,0c0,-1,-1,-1,-1,-2l0,-1l0,-1l-1,-1l1,-1l0,-1c0,0,0,1,0,1c0,0,0,1,1,1l0,2c0,1,0,1,0,2c0,1,0,1,0,2c0,0,0,1,-1,1ZM161.5,534.5l-1,0c0,0,-1,1,-1,1c0,0,-1,0,-1,1c1,0,2,0,2,-1c1,0,1,0,1,0ZM201.5,535.5c0,0,-1,1,-2,1c-1,1,-2,1,-3,2c-1,0,-2,0,-3,0l-1,0c0,0,-1,0,-1,0c-1,0,-1,-1,-1,-2l0,1c-1,0,-1,0,-1,0c0,1,0,1,0,1c0,0,-1,0,-1,0c-1,0,-1,0,-1,0c1,0,1,1,1,1c0,0,1,0,1,0l1,0l0,1c0,1,0,1,0,1c-1,1,-1,1,-1,1c0,0,0,1,-1,1c-1,0,-1,1,-2,1c-1,0,-2,0,-3,0c-1,0,-1,0,-2,0c-1,0,-1,-1,-2,-1c0,0,0,-1,0,-1c-1,0,-1,-1,-1,-1c0,0,0,-1,0,-1c0,0,1,-1,1,-2c0,0,0,-1,1,-1c0,-1,0,-1,0,-1l0,1c0,0,0,1,0,1c-1,1,-1,1,-1,2c0,1,1,1,1,2c1,0,2,0,3,0c0,1,0,1,0,1c0,-1,0,-1,0,-1c0,0,1,0,1,0c0,0,1,0,1,0c0,0,1,0,1,0c1,0,1,0,2,-1c0,0,1,0,1,0c0,-1,-1,-1,-2,-1c0,0,-1,0,-1,0c0,-1,0,-1,0,-1l0,-1l1,0c0,-1,0,-1,1,-1c1,0,1,0,1,0c0,0,0,-1,0,-1c0,0,0,-1,1,-1c0,0,0,-1,0,-1c0,0,0,-1,0,-1l-1,-7l1,-2l1,11c0,0,0,1,0,1c0,0,0,1,0,1c1,0,1,0,1,0l1,0c1,0,2,-1,2,-1c0,0,-1,0,-1,-1c0,0,0,-1,0,-1c0,-1,0,-1,0,-1l0,-1l1,0c0,-1,0,-1,0,-1l1,0c0,0,0,-1,0,-1c1,0,1,0,2,0c0,0,1,0,1,0l0,1c0,0,1,0,1,0c0,0,0,1,0,1l-1,0l-1,-1l-1,0l0,1c0,0,-1,0,-1,0c0,0,-1,0,-1,0c0,1,0,1,0,1c0,1,1,1,1,1c0,1,1,1,2,1l1,0l1,0l0,-1l1,0l1,0ZM193.5,525.5l4,-2l0,1l-4,2ZM186.5,522.5l5,-2l-1,1l-4,2ZM219.5,537.5l-1,0c0,0,0,1,0,1l1,0c0,0,0,-1,0,-1ZM220.5,539.5c0,1,-1,1,-1,1c-1,0,-1,0,-1,0c-1,0,-1,0,-2,0c-1,0,-1,0,-1,0c0,-1,-1,-1,-1,-1c0,0,1,0,1,0c0,-1,0,-1,0,-1c0,0,1,0,1,0l1,0c0,-1,0,-1,0,-1c0,0,1,0,1,0c0,-1,0,-1,0,-1c0,0,0,-1,0,-1c-1,0,-1,-1,-1,-1c0,0,-1,-1,-1,-1c-1,-1,-1,-1,-2,-2l-1,-1l-1,0c-1,0,-1,-1,-1,-1c0,0,0,-1,0,-1l0,-1c0,0,0,-1,0,-1c1,1,1,1,1,1c1,1,1,1,2,2c1,0,1,1,2,2c0,0,1,1,2,2c0,0,0,1,0,1c1,0,1,1,1,1c0,0,0,-1,0,-1c0,-1,0,-2,0,-2c1,-1,1,-2,1,-2c0,0,0,-1,0,-1c0,-1,0,-1,0,-2c-1,0,-1,0,-1,0l0,-1l1,-1l0,1l1,0c0,1,0,1,0,1c0,1,0,1,0,1l0,1l0,1c0,0,0,1,-1,1c0,1,0,1,0,1c0,1,0,2,0,2c0,1,-1,1,-1,2l1,0l0,1c0,0,0,1,0,1c0,0,0,1,0,1ZM216.5,522.5l0,1c0,0,1,1,1,1l0,-1l0,-1l1,0l0,1c1,0,1,0,1,-1l0,-1l0,1l0,1c0,1,0,1,0,1l-1,0l-1,0c0,1,0,1,0,1c-1,0,-1,0,-1,-1l0,-1ZM220.5,520.5l-5,2c0,0,0,-1,0,-1l6,-3ZM278.5,538.5l0,-1l0,-1l0,-8l1,-3l0,11l0,1c0,1,0,1,-1,1ZM263.5,520.5l4,-2l0,1l-4,2ZM273.5,520.5l1,0l1,0c0,0,1,0,1,0l0,1l0,1c0,0,-1,0,-1,0c0,0,-1,0,-1,0l-1,0l1,0c1,0,1,-1,2,-1l-1,0l-1,0l-1,0ZM253.5,542.5c0,0,0,-1,1,-1c0,0,0,1,0,1l1,0c1,0,2,-1,3,-1c0,0,0,-1,1,-1c0,-1,1,-1,1,-2l0,-1c1,0,1,0,1,0l0,-1l-1,0l0,-1c0,0,-1,-1,-1,-1l1,-1l1,0c0,1,0,1,0,2l0,1l0,1c0,0,0,1,0,1l0,1c-1,1,-1,1,-1,2l-1,0c0,1,0,1,0,1l-1,0c0,0,-1,0,-1,0c0,1,-1,1,-1,1c-1,0,-1,0,-1,0l0,-1c-1,0,-1,0,-1,0ZM255.5,528.5c0,-1,1,-1,1,-1c1,0,1,0,2,0c0,0,1,0,1,0c0,0,1,1,1,1c0,0,-1,0,-1,0c0,0,0,1,0,1c0,0,-1,1,-1,1l-1,0l-1,0l-1,0l2,-1c1,0,1,0,2,0c-1,-1,-1,-1,-1,-1c0,0,-1,0,-1,0c0,0,-1,0,-1,0c0,0,-1,1,-1,1l0,-1ZM246.5,531.5l-1,-1l1,-1l1,1ZM244.5,538.5l0,1l0,1l0,1c0,0,-1,0,-1,0l0,-1l0,-1l0,-1l-1,0l0,1c0,1,0,1,0,1c0,1,0,2,0,2c-1,0,-1,1,-1,1c0,1,-1,1,-1,1c0,0,-1,0,-1,1c0,0,-1,0,-1,0c-1,0,-1,0,-1,0c0,1,-1,1,-1,1c-1,0,-1,-1,-2,-1c-1,0,-1,0,-2,-1l0,-1c-1,0,-1,-1,-1,-1l0,-1l0,-1c0,0,1,0,1,0c0,0,0,-1,0,-1c0,0,0,-1,1,-2l0,1c0,0,0,1,-1,1c0,1,0,1,0,1c0,1,0,2,1,2c0,0,0,1,1,1l1,1c1,0,1,0,1,0c1,0,1,0,2,0c0,-1,1,-1,2,-1c0,-1,0,-1,1,-1c0,-1,0,-1,0,-2c0,-1,0,-1,0,-2l0,-1l0,-1l1,0c0,1,0,1,1,1l1,0l0,-1l1,0l2,-1l0,-1l1,0l1,-1c0,0,1,0,1,0c1,0,1,0,1,0c1,0,1,0,1,0c0,0,1,0,1,0l0,1c1,0,1,0,1,0c0,0,0,1,0,1c0,1,0,1,-1,1l0,1c-1,0,-1,1,-2,1l-1,0c0,0,-1,0,-1,0l-2,0l-1,0ZM249.5,535.5c0,0,-1,0,-1,0l-1,1l-1,0l-1,1l3,0c0,0,1,0,1,0c1,0,1,0,2,0c1,-1,1,-1,1,-1c0,0,0,-1,0,-1c-1,0,-1,0,-1,-1c-1,0,-1,0,-1,1c-1,0,-1,0,-1,0ZM241.5,549.5l-5,2c1,-1,1,-1,1,-1l4,-2ZM296.5,529.5l-1,-1l1,-1l1,1ZM298.5,535.5l0,1l-1,0l-1,0c-1,0,-1,0,-1,0c0,-1,0,-1,0,-1l0,-1c0,0,0,-1,0,-1l0,-1l1,0c0,-1,0,-1,1,-1c0,0,1,0,1,0c0,1,0,1,1,2l0,1c0,1,0,1,0,1l0,1c0,1,0,1,0,1c0,1,-1,1,-1,2l1,0c1,0,1,0,1,0l0,1c0,1,0,1,0,1c0,0,-1,0,-1,0c0,1,0,1,0,1c0,0,-1,1,-1,1c-1,0,-2,1,-2,1c-1,0,-2,0,-3,0c-1,0,-2,0,-2,0c-1,0,-2,-1,-2,-1c0,0,0,-1,-1,-1c0,0,0,-1,0,-1c0,0,0,-1,0,-1c0,0,0,-1,0,-2c1,0,1,-1,1,-1c1,-1,1,-1,1,-1l0,1c0,0,-1,1,-1,1c0,1,0,1,0,2c0,1,0,1,1,2c1,0,2,0,3,0c0,1,0,1,0,1c0,-1,0,-1,0,-1c1,0,1,0,2,0l1,0c0,0,1,0,2,-1l1,0c-1,-1,-1,-1,-2,-1c-1,0,-1,0,-1,0c0,-1,0,-1,0,-1l0,-1c1,0,1,0,1,0c1,-1,1,-1,1,-1l1,0c0,-1,-1,-1,-1,-1c0,-1,0,-1,0,-1ZM296.5,533.5l0,1l1,0c0,-1,0,-1,0,-1l-1,0ZM300.5,545.5l-4,1l0,-1l4,-1ZM332.5,537.5l0,1l-1,0c0,0,-1,0,-2,0l0,1l-1,0l-1,0l0,-1c-1,0,-1,0,-1,0c0,-1,0,-1,0,-1l1,-1l0,1l1,0c0,0,1,0,1,-1c1,0,1,0,1,0c1,0,1,0,1,0c1,0,1,0,1,0c0,-1,0,-1,0,-1c0,-1,-1,-1,-1,-2l-1,0l0,-1l-1,0l-1,0l1,-2l1,0c0,0,0,1,0,1c1,0,1,0,1,0l0,1c1,0,1,0,1,1c0,0,1,1,1,1c0,0,0,1,0,1c0,1,0,1,0,1c0,1,0,1,-1,1ZM329.5,525.5l4,-2l0,1l-1,0l-4,2ZM322.5,538.5l0,-1l0,-1l0,-8l1,-3l0,11l0,1c0,1,0,1,-1,1ZM320.5,519.5l1,0l1,0c1,0,1,0,2,0l1,0c0,0,0,1,-1,1l-1,0l-1,0l-1,0l-1,0c0,0,-1,0,-1,0c0,-1,1,-1,1,-1ZM318.5,542.5l-2,-1l1,-1l2,1ZM315.5,538.5l-1,0c0,0,-1,0,-1,0c0,0,-1,0,-1,0c0,0,0,-1,0,-1c-1,-1,-1,-1,-1,-1c-1,1,-1,1,-1,1l-1,0c-1,0,-1,0,-1,0l-1,0l0,-2c0,0,0,-1,1,-1c0,0,1,-1,2,-1c0,-1,1,-1,1,-1l0,-1l0,-1l0,1c1,0,1,1,1,1c0,1,0,1,0,1l0,2c0,1,0,1,0,1c0,0,1,0,1,0c0,1,0,1,0,1c1,0,1,0,1,0l1,0c1,0,1,0,2,0c0,-1,1,-1,1,-1l0,-1c0,0,0,-1,-1,-1l1,-2l0,1l1,1l0,1l0,1c0,0,0,1,-1,1c0,1,-1,1,-1,1c-1,0,-1,0,-2,0ZM315.5,526.5l0,1l1,0l0,-1l1,0l0,1c1,0,1,0,1,-1l0,-1l0,1l0,1c0,0,0,1,0,1l-1,0l-1,0c0,0,0,1,-1,1l0,-1l0,-1l0,-1ZM319.5,523.5l-5,3c0,-1,0,-1,1,-1l5,-3ZM310.5,529.5l-1,-1l-1,2l-1,-1l1,-2l1,1l1,-1l1,1ZM311.5,533.5l-1,0l0,1l-1,0c0,0,0,1,-1,1l1,0l1,0c1,0,1,0,1,0l0,-1ZM306.5,545.5l5,-3c0,1,0,1,0,1c0,0,0,1,0,1l-5,2ZM308.5,542.5l5,-3c0,1,0,1,0,1l-5,3ZM357.5,538.5l-1,0c-1,0,-1,0,-1,-1l-1,0c-1,1,-1,1,-1,1l-1,0l-1,0l-1,0c0,1,0,1,0,1c0,0,0,1,0,1c0,1,0,2,-1,2c0,1,0,1,-1,2c-1,0,-1,1,-2,1c-1,0,-1,0,-2,0c-1,0,-1,0,-2,0c-1,0,-1,0,-1,-1c-1,0,-1,0,-1,-1c-1,0,-1,-1,-1,-1c0,-1,0,-1,0,-1c0,0,0,-1,0,-1l1,-1l0,-1l1,0l-1,1c0,1,0,1,0,1l0,1c0,0,0,1,0,1c0,0,1,0,1,1l1,0c1,0,1,0,2,0c1,0,2,0,2,0c1,0,2,-1,2,-1c0,0,1,0,1,0c0,-1,0,-1,0,-1l0,-1c0,-1,0,-1,0,-1c-1,0,-1,-1,-1,-1l0,-1l1,-1c0,1,1,1,1,1l1,0l1,0c1,0,1,0,1,0l1,-1l0,-1c0,0,1,-1,1,-1l0,-1c1,0,1,0,1,0c1,0,1,0,1,1l1,1l0,1c0,1,0,1,0,1c-1,0,-1,1,-1,1ZM355.5,536.5l1,0l1,0c0,-1,-1,-1,-1,-1c-1,0,-1,0,-1,0c0,0,0,1,0,1ZM356.5,542.5l-4,2c0,-1,0,-1,0,-1l4,-2ZM345.5,536.5l-2,-1l1,-1l1,1ZM384.5,534.5c0,0,-1,1,-1,1c0,0,1,1,1,1c0,0,0,-1,0,-1c0,0,0,-1,0,-1ZM384.5,542.5c0,0,-1,0,-1,1c-1,0,-2,0,-2,0c-1,0,-1,0,-2,0c0,0,-1,0,-1,-1c0,0,1,0,1,0l1,0c1,0,1,0,1,0c1,0,1,0,1,0c1,-1,1,-1,1,-1c1,-1,1,-1,1,-1c0,0,0,-1,1,-1c0,-1,0,-1,0,-2c-1,0,-1,0,-1,1c0,0,-1,0,-1,0l0,-1l-1,0c0,-1,0,-1,0,-1c0,0,0,-1,0,-1c0,-1,1,-1,1,-2c1,0,1,-1,1,-1c0,0,1,0,1,1c1,1,1,1,1,1c0,1,0,1,0,1c0,1,0,1,0,2l0,1c0,1,0,1,-1,2c0,1,0,1,0,1c-1,1,-1,1,-1,1ZM381.5,529.5l4,-2c0,0,0,1,0,1l-4,2ZM377.5,538.5l-1,0c-1,0,-1,0,-1,-1l-1,0c0,1,-1,1,-1,1l-1,0l-1,0l-1,0c-1,0,-1,0,-2,0c0,-1,-1,-1,-1,-2l0,-9l1,-2l0,10l0,1l1,0c0,1,0,1,1,1l1,0l1,0c1,0,1,0,1,0l1,-1l0,-1c1,0,1,-1,1,-1l1,-1c1,0,1,0,1,1c0,0,1,0,1,1l0,1c0,1,0,1,0,1c0,0,-1,1,-1,1ZM375.5,536.5l1,0l1,0c0,-1,0,-1,0,-1c-1,0,-1,0,-1,0c0,0,-1,0,-1,0c0,0,0,1,0,1ZM372.5,525.5l5,-2l-1,1l-4,2ZM156.5,543.5l4,-2c0,1,0,1,0,1l-4,2ZM274.5,539.5c-1,0,-1,0,-2,0l-1,0c0,0,-1,0,-1,0c-1,0,-1,0,-1,0c0,0,-1,0,-1,0l0,-1l0,-1l1,0l1,0c1,0,1,-1,1,-1l1,0c0,0,0,-1,0,-1l-1,-1l0,-1c-1,0,-1,-1,-2,-1c0,-1,0,-1,-1,-2c0,0,-1,0,-1,0c0,-1,0,-1,0,-1c-1,0,-1,0,-1,0l-1,0l0,-1c-1,0,-1,0,-1,-1c0,-1,0,-1,0,-1l1,-1c0,1,1,1,1,1c1,1,1,1,2,2c1,1,1,1,2,2c0,0,1,1,1,2c1,0,1,1,1,1c0,1,1,1,1,1c0,0,0,-1,0,-1c0,-1,0,-2,0,-2c0,-1,0,-1,0,-2c0,0,0,-1,0,-1c0,-1,0,-1,0,-2c0,-1,0,-1,0,-1c0,-1,1,-1,1,-1c0,1,0,1,0,1c1,0,1,0,1,1l0,1l-1,0c0,0,0,1,0,1c0,0,0,1,0,1c0,1,0,1,0,1c0,1,0,1,0,2c0,0,0,1,0,2c-1,0,-1,1,-1,1c0,0,0,1,1,1c0,1,0,1,0,1c0,1,0,1,0,1l0,1ZM273.5,536.5l-1,1l-1,0c1,0,1,0,1,0l1,0l0,-1ZM342.5,527.5c1,0,1,0,1,0c1,0,1,0,2,0c0,0,1,0,1,0c1,0,1,0,1,0c0,0,0,1,0,1c0,0,-1,0,-1,1l-1,0c-1,0,-1,1,-1,1l-1,0c0,0,0,-1,0,-1l1,0c1,0,2,-1,2,-1c0,0,-1,0,-1,0l-1,0l-1,0l-1,0c0,-1,0,-1,0,-1ZM164.5,523.5l0,-1l0,-1c0,0,0,-1,0,-1l0,-1c1,0,1,1,1,1l0,1l0,1l-1,1ZM164.5,524.5l0,1c0,0,1,0,1,0l0,-1l0,1c0,0,1,0,1,0c0,0,0,-1,0,-1l0,-1l1,0l0,1l0,1l-1,0c0,0,0,1,0,1l-1,0l0,-1l0,1c-1,0,-1,0,-1,0l-1,0l0,-1l0,-1ZM225.5,539.5l0,-1l0,-1l-1,-9l1,-2l1,11l0,1c-1,0,-1,1,-1,1Z" class="g1_30" />
</svg>