<?xml version="1.0" encoding="UTF-8" standalone="no"?>
<!DOCTYPE svg PUBLIC "-//W3C//DTD SVG 1.1//EN"
"http://www.w3.org/Graphics/SVG/1.1/DTD/svg11.dtd">
<svg version="1.1" xmlns="http://www.w3.org/2000/svg" xmlns:xlink="http://www.w3.org/1999/xlink">
<defs>
<style type="text/css"><![CDATA[
.g3_6{
fill: #1F1A17;
stroke: #1F1A17;
stroke-width: 1;
stroke-linecap: butt;
stroke-linejoin: miter;
}
.g1_6{
fill: #1F1A17;
}
.g2_6{
stroke: #1F1A17;
stroke-width: 1;
stroke-linecap: butt;
stroke-linejoin: miter;
}
]]></style>
</defs>
<path fill-rule="evenodd" d="M265,165c0,0,-1,-1,-1,-2c0,0,-1,-1,-1,-1l0,-1c0,0,0,-1,0,-1l0,-8l-4,0l0,2l-2,1l-1,1c0,1,0,1,0,1c0,0,-1,0,-1,1l0,-3c0,0,0,-1,1,-1c0,0,1,-1,1,-1l0,-1l0,-1l8,0ZM257,153l-2,1l0,-2l-5,0c0,0,0,1,0,1l0,1c0,0,0,1,0,1c1,0,1,-1,1,-2l1,0l0,1c0,0,0,1,0,1c-1,1,-1,1,-2,1c0,0,-1,0,-1,-1c-1,0,-1,-1,-1,-2c0,0,0,-1,1,-1c0,-1,1,-1,1,-1l6,0l0,1c0,1,0,1,1,1ZM259,159c0,1,0,1,-1,2c0,0,0,1,-1,1l0,1l-1,-1c0,0,-1,-1,-1,-1c0,0,0,-1,0,-1c0,-1,0,-1,0,-2c1,-1,2,-1,3,-2c0,0,-1,0,-1,0l0,-1l2,0l0,2c0,1,-1,1,-1,1c-1,0,-1,1,-1,1c-1,0,-1,0,-1,1c0,0,1,0,1,0c0,0,0,-1,0,-1l1,-1c1,1,1,1,1,1ZM265,176l0,1c0,0,-1,0,-1,0c0,-1,-1,-1,-1,-1c0,0,1,0,1,-1c1,0,1,0,1,1ZM265,175l-2,0c0,0,-1,0,-1,1c0,1,-1,1,-1,1c0,1,0,1,0,1c0,-1,0,-1,0,-1c-1,0,-2,0,-2,-1c0,-1,-1,-1,-1,-1l-5,0l-1,1c0,0,-1,1,-2,1c-1,0,-1,0,-1,-1c0,0,1,0,1,0l1,0c0,0,0,-1,0,-1l0,-3c0,-1,0,-1,1,-2l1,0c0,0,1,0,1,-1l1,-1l0,5l1,0l0,-2c0,0,0,-1,-1,-1c1,0,1,0,1,0c0,-1,0,-1,1,-1c0,-1,0,-1,0,-2l1,0l0,6l0,-3l0,-1c0,0,0,-1,0,-1c1,0,1,-1,1,-1c0,0,1,-1,1,-2l0,10l1,0l0,-6c0,0,0,-1,0,-1l0,-2c1,0,1,-1,1,-1c0,-1,0,-1,0,-1l1,0l0,9l0,-2c0,0,0,-1,0,-1l0,-1c1,0,1,0,1,-1c0,0,1,-1,1,-2ZM245,154c0,0,-1,1,-1,2c-1,0,-1,0,-2,0c-1,0,-2,0,-2,-2l0,-1l2,0c0,1,0,1,0,1c1,0,1,0,1,0c0,-1,0,-2,-1,-2l-5,0c0,1,0,1,0,2c0,0,0,1,-1,1c0,0,0,1,0,1c0,0,-1,0,-1,0l-1,0l0,1l0,1c-1,0,-1,0,-1,0c0,0,-1,-1,-1,-1c0,-1,1,-2,2,-2c1,-1,1,-1,1,-2c0,0,0,-1,0,-1l0,-1l6,0c1,0,2,0,3,0c0,1,1,2,1,3ZM250,175c0,0,-1,0,-1,0c0,0,-1,0,-1,0l0,-20c0,1,1,1,1,1l1,0ZM247,173c0,2,0,2,-1,3l-1,0l0,1l-1,-1c0,0,-1,0,-1,0c0,-1,0,-1,0,-2l-1,0l0,3c-1,0,-1,-1,-2,-1c0,-1,0,-1,0,-1l-3,0c1,-1,1,-1,1,-1c0,-1,0,-1,0,-1c0,-1,0,-1,0,-1c0,-1,0,-1,0,-1c0,-1,1,-1,1,-2c1,0,1,0,1,0c0,-1,0,-2,0,-2c0,-1,1,-2,1,-2c0,0,1,0,1,0l0,7l1,0l0,-15c0,0,1,-1,1,-2l0,20l1,0l0,-20c0,0,0,-1,0,-1c1,-1,1,-2,2,-3ZM234,154c0,0,-1,1,-1,1c0,-1,0,-1,0,-2c-1,0,-1,0,-1,-1l-5,0c0,0,0,1,0,2c0,0,0,1,0,1c0,0,-1,0,-1,-1c0,-1,0,-1,0,-1c0,-1,0,-1,0,-1c0,-1,0,-1,0,-1l8,0ZM237,157c0,1,-1,2,-1,2c0,0,-1,0,-1,0c-1,1,-1,1,-1,1c0,1,0,1,0,1l-1,0l0,1c0,0,-1,0,-1,-1c0,-1,1,-2,1,-2c0,-1,1,-1,1,-1l1,0c0,0,0,-1,0,-1l1,-1c1,0,1,0,1,1ZM237,175l-2,0l0,-12l1,-1c0,1,1,1,1,1ZM227,157l0,1l-1,0c0,0,0,-1,0,-1c0,0,-1,0,-1,-1l-1,0c-1,0,-1,-1,-1,-1c0,-2,0,-3,0,-3l-5,0c0,0,-1,1,-1,1c0,0,0,1,0,1c0,0,0,1,0,1c1,0,1,0,1,0c0,-1,0,-1,0,-1l1,0l1,0c0,1,-1,2,-1,2c-1,1,-1,1,-1,1c-1,0,-2,0,-2,-1c-1,0,-1,-1,-1,-2c0,0,1,-1,1,-2c1,-1,1,-1,2,-1l6,0l0,1c0,1,0,2,0,2c0,0,1,0,1,1c0,0,1,0,1,0c1,0,1,1,1,2ZM227,160c0,1,0,1,0,1c0,1,0,1,-1,1l-1,-1l1,0c0,-1,-1,-1,-1,-1c-1,0,-1,-1,-1,-1c-1,0,-1,0,-1,-1l0,-1l0,-1c0,0,1,0,1,0c0,1,0,1,1,1c0,0,0,1,0,1c0,0,1,0,1,0c1,1,1,1,1,2ZM237,161c-1,0,-1,1,-1,1c0,0,-1,1,-1,1c-1,0,-1,0,-1,0l0,12l-2,0l-1,1c0,1,0,1,-1,1c0,0,-1,0,-1,0c0,0,-1,-1,-1,-1c1,0,1,0,2,0c0,-1,0,-1,0,-2c0,-1,0,-2,0,-2c0,-1,0,-1,-1,-1c0,-1,0,-1,1,-1c0,0,0,-1,1,-1c0,-1,0,-1,0,-1c0,-1,0,-1,1,-1l0,5c0,1,0,1,0,1l0,-1l0,-9l1,0c0,0,0,-1,0,-1c1,-1,1,-1,1,-1c1,0,1,0,1,0l0,-1c1,0,1,-1,1,-1c1,0,1,1,1,2ZM224,163c0,1,0,1,0,1c-1,1,-1,1,-1,1c0,0,0,1,1,1c0,0,0,1,0,1l-1,1c0,0,0,-1,0,-1c0,0,-1,-1,-1,-1c0,-1,1,-1,1,-1c0,-1,0,-2,0,-2c1,0,1,0,1,0ZM211,153c0,1,0,1,-1,2c0,1,-1,1,-1,1c-1,0,-1,0,-2,0c0,-1,0,-2,0,-2c0,-1,0,-1,0,-1c1,0,1,0,1,0c0,1,0,1,1,1l0,-1c0,0,-1,0,-1,0l-4,0l0,1l-1,-1c0,0,0,-1,0,-1l0,-1l6,0c0,0,1,0,1,0c1,0,1,1,1,2ZM217,170l-2,-1l0,-13c1,0,1,1,1,1c0,0,1,0,1,0ZM230,175l-11,0c0,1,0,1,-1,2c0,0,-1,1,-2,1c0,0,-1,-1,-2,-1c0,-1,0,-2,0,-3c0,-1,0,-2,1,-3c0,0,1,-1,1,-1c0,0,1,0,1,0c-1,0,-1,1,-2,2c0,0,-1,1,-1,2c0,0,1,1,1,1c0,1,1,1,1,1c1,0,1,0,1,-1c1,0,1,-1,1,-2l0,-1c0,0,-1,0,-1,0c1,-1,1,-2,2,-3c0,0,0,-1,0,-1l1,0l0,5l1,0c0,0,0,-1,0,-1c0,0,0,-1,0,-1c0,0,0,-1,1,-1c0,0,1,0,2,0c0,0,0,-1,1,-1l0,4c1,0,1,-1,1,-1l0,-1c-1,0,-1,0,-1,-1c0,0,1,-1,1,-2c0,0,0,-1,0,-2c0,-1,0,-2,0,-2c-1,0,-1,0,-1,-1c-1,0,-1,0,-1,0l-1,-1c0,0,0,-1,0,-1c0,-1,0,-1,0,-2c0,1,1,1,2,1c-1,0,-1,1,-1,1l1,1c1,0,2,1,2,1c0,0,0,1,0,2c0,1,0,1,0,2c0,0,0,1,0,1c0,1,0,1,0,2c0,0,0,1,0,1c0,0,0,1,0,1c0,0,0,1,1,1c0,0,0,-1,0,-1c0,0,1,1,1,1c0,1,0,1,1,2ZM215,155c0,1,-1,1,-1,1l0,15c0,0,0,1,-1,1c0,1,0,1,0,2c0,0,0,1,0,1l0,-24c0,0,0,1,0,2c1,1,1,2,2,2ZM204,160c0,0,0,1,0,2c0,0,-1,0,-1,0l-1,1c-1,-1,-1,-1,-1,-1c-1,-1,-1,-1,-1,-2l0,-1c1,0,1,0,1,-1l1,1c0,1,0,1,0,1c1,0,1,0,1,0c0,0,-1,-1,-2,-2c0,0,-1,0,-1,0l0,-3c0,0,1,0,1,-1c0,1,0,1,0,1c0,0,1,0,1,0c0,1,0,1,0,1l0,1l1,0c0,1,1,1,1,1c0,1,0,1,0,2ZM217,174l0,1c-1,0,-1,0,-1,0c-1,-1,-1,-1,-1,-1c0,0,1,-1,1,-1l1,0c0,0,0,1,0,1ZM211,173c0,1,0,2,-1,2l-2,0c0,1,0,2,0,2c-1,1,-1,1,-2,1c0,0,-1,0,-1,0c1,-1,2,-1,2,-1c0,-1,0,-1,0,-3c0,-1,0,-2,0,-2c-1,0,-1,-1,-1,-1l2,-4l0,3c0,1,0,2,0,3c1,0,1,-1,1,-2l0,-1l0,-13l2,-2ZM204,158c-1,-1,-1,-1,-1,-1l0,-1c-1,-1,-1,-1,-1,-1c-1,0,-1,0,-1,0c0,-1,0,-1,0,-1c0,-1,0,-1,-1,-1l-4,0l0,8c0,1,0,1,0,2c0,0,0,1,0,1c0,0,-1,1,-1,1c-1,1,-1,2,-1,3l0,-17l8,0l0,1c0,1,0,1,0,1c0,0,1,1,1,1c1,0,1,1,1,1ZM206,175l-9,0c-1,0,-1,0,-2,1c0,1,-1,1,-2,1c0,0,1,-1,1,-1c0,-1,0,-1,0,-1c0,-1,0,-1,0,-2c0,0,0,-1,0,-1c0,-1,1,-2,2,-2c1,0,2,-1,2,-1c0,1,0,1,0,1c0,1,0,1,0,1c0,1,0,1,0,1c0,0,0,1,0,1c1,0,1,0,1,-1c0,-1,0,-1,0,-1c0,-1,0,-1,-1,-1l2,-3l0,6l2,0c0,-1,0,-1,0,-2c0,0,0,-1,0,-2c0,-1,0,-1,0,-2c0,0,0,-1,0,-1c-1,-1,-1,-1,-1,-1c0,0,-1,0,-1,0c0,1,0,1,0,1c-1,-1,-1,-1,-1,-1c-1,-1,-1,-2,-1,-2c1,0,2,0,3,0c1,0,1,1,2,2c0,0,0,1,0,1c0,1,0,1,0,2c0,1,0,2,0,2c0,1,0,1,0,2c0,0,0,1,1,1l0,-1c1,0,1,0,1,1c0,0,0,1,1,2ZM200,177c0,0,0,1,-1,1c0,0,-1,-1,-1,-1c0,-1,1,-1,1,-1l1,0c0,0,0,1,0,1ZM198,177c0,0,0,1,-1,1c0,0,0,-1,0,-1c0,-1,0,-1,0,-1c1,0,1,0,1,1ZM253,173l0,-1c0,0,-1,0,-1,0l1,1ZM240,173l0,-1c0,-1,0,-1,0,-1l-1,1l0,1ZM223,173l0,-2l-1,0c0,0,0,1,0,1c0,0,0,1,0,1ZM197,173l0,-1l-1,0l0,1Z" class="g1_6" />
<path fill-rule="evenodd" d="M303.5,239.5l0,1l1,0c1,0,1,0,1,0l0,-1l0,-1l1,1l0,1c1,0,1,-1,1,-2l0,-1l0,1l0,1l0,1c0,0,0,1,0,1l-1,0l-1,0c0,1,-1,1,-1,1c0,0,-1,0,-1,-1l0,-1l0,-1ZM333.5,233.5c-1,1,-1,2,-1,3l0,1c0,0,-1,0,-1,0c0,1,0,1,0,1l-1,0l0,-1c1,0,1,0,1,0c0,0,1,0,1,0c0,0,0,-1,-1,-1l0,-1l-1,0c-1,0,-1,0,-1,0c0,0,0,-1,0,-1l0,-1c1,1,1,1,1,1c1,1,1,1,1,1l0,1c0,0,1,0,1,0l0,-1l0,-1ZM202.5,245.5c0,1,0,3,0,4c-1,0,-1,0,-1,1c-1,0,-1,0,-1,0l-1,0l1,0l1,-1c0,0,0,-1,0,-1l-1,0l0,-1l-1,0c0,0,0,-1,0,-1l1,0c0,0,0,1,0,1c0,0,1,0,1,0c0,0,0,1,0,1c0,0,0,1,0,1c1,0,1,0,1,0c0,-1,0,-1,0,-1c0,0,0,-1,0,-1l0,-1ZM93.5,237.5l0,-1l1,0l0,-1l0,-1l0,-1l0,-1l1,1c-1,0,-1,0,-1,1l1,1l0,1l-1,0l1,0l0,-1l1,0c0,0,1,0,1,0l0,1l0,1c-1,0,-1,0,-1,0l-1,0ZM96.5,236.5l-1,0l-1,0l1,0c0,0,1,0,1,0l1,0c-1,0,-1,0,-1,0ZM106.5,251.5c0,1,0,2,0,2c0,0,0,1,0,1l-1,1l1,1l-1,0l0,1l-1,0l0,1l-1,0l-1,1l-1,0l-1,0c0,0,-1,0,-1,0l0,1l-1,1c-1,0,-1,1,-1,1l-3,0c0,-1,0,-1,0,-1l-1,-1c0,0,-1,-1,-1,-1c-1,0,-2,0,-2,0l-1,-1l-1,0l0,-1l-1,0l0,-1l-1,0l1,-1l-1,-1l0,-1l-1,0l0,-1l0,-1l0,-1c0,-1,1,-1,1,-2l1,-1l-1,0c0,-1,0,-1,0,-1l1,0l0,-1l1,0l0,-1l1,0l1,-1l2,0l1,-1l1,-1l0,-1l3,0l0,1l1,0l0,1l1,0l1,1l1,0l1,1c1,0,1,0,1,0l1,1c1,1,2,1,2,1l0,1l-1,0l0,1l1,0l0,1l0,1ZM97.5,261.5l1,0l0,-1l1,0l1,-1l1,0l1,-1c0,0,1,0,1,0l0,-1l1,0l1,-1l1,0l-2,-1l1,0l0,-1l1,0l0,-1l0,-1l0,-1c0,-1,0,-2,0,-2l-1,-1l0,-1l-1,0l1,0l1,-1c-1,0,-1,0,-2,-1l-1,0l0,-1l-1,0l-1,0l-2,-1l-1,-1l0,-1c-1,0,-1,0,-1,0l-1,0l-2,0l0,1l-1,1c0,0,-1,0,-1,0l-2,1l-1,0l-1,1l-1,0c0,1,0,1,-1,1l1,1l0,1l-1,0l0,1l0,1c0,0,0,1,0,1l0,1l0,1l0,1l1,0l0,1l-1,1l1,0l0,1l1,0l0,1l1,0l1,0l0,1l1,0l1,0c0,0,1,0,1,1l1,0l0,1ZM103.5,246.5l0,1l-1,0l0,-1l-1,0l0,-1l-1,0l-1,0c1,0,1,0,1,0l0,-1l1,1c1,0,1,0,1,0l1,1ZM103.5,256.5l0,1l-1,0l-1,1l-1,0c0,-1,0,-1,0,-1l1,0c1,-1,1,-1,1,-1l1,0ZM99.5,258.5c0,0,-1,1,-1,1l-1,0l-3,0l-1,0c0,-1,0,-1,0,-1c0,0,0,-1,0,-1c0,0,1,0,1,0l3,0c0,0,1,0,1,0l0,1l1,0ZM99.5,244.5c0,0,-1,1,-1,1l-1,0l-3,0l-1,0l0,-1l0,-1l1,0l3,0c1,0,1,0,1,0c0,0,0,1,0,1l1,0ZM97.5,247.5c1,0,1,0,1,0l0,-1c0,0,1,0,1,0c0,0,1,0,1,1c0,0,1,0,1,0l1,1l1,-1c0,0,0,1,0,1l0,1l1,0l0,1l0,1l0,1l0,1l-1,1c0,0,0,1,0,1l-1,-1c0,0,0,1,-1,1l-1,1l-1,0l-1,0l-1,-1l-3,0l0,1c-1,0,-1,0,-1,0c-1,0,-1,0,-2,0c0,0,0,-1,-1,-1l0,-1l-1,1l-1,-1l0,-1l0,-1l0,-1c0,0,0,-1,0,-1l0,-1l0,-1c1,0,1,-1,1,-1l1,1l1,-1c1,-1,1,-1,2,-1l1,0l0,1ZM97.5,255.5l1,0l0,1l1,0c1,0,1,0,1,0l0,-1l1,0l0,-1l1,0l1,0l0,-1l1,0l0,-1l0,-1c0,0,0,-1,0,-2c-1,0,-1,0,-1,-1l-1,0c-1,0,-1,0,-1,0l0,-1l-1,0l-1,-1c0,0,-1,1,-1,1l-1,0l-3,0l-1,0l0,-1c-1,0,-1,0,-1,1l-1,0l0,1c-1,0,-1,0,-1,0l-1,0l-1,1l0,1l0,1c0,1,0,1,0,1l0,1c0,1,1,1,1,1l1,0l0,1l1,0l1,0l0,1l1,0l1,0c0,-1,0,-1,0,-1l3,0ZM97.5,249.5l0,1c0,0,-1,0,-1,1l0,1c0,1,0,1,0,1c0,0,0,1,-1,1l0,-1l0,-1c0,-1,0,-1,0,-1l0,-1l-1,0l1,-1c0,1,0,1,1,1c0,0,1,0,1,-1ZM89.5,246.5l0,-1l1,0l1,0l0,-1l1,0l0,1c0,0,-1,0,-1,0l-1,1l-1,1l0,-1ZM89.5,256.5c0,0,1,0,1,1l1,0l1,0l0,1l-1,0c-1,0,-1,-1,-2,-1l0,-1ZM153.5,254.5l0,-1l0,-2l-1,-8l1,-3l1,11c0,0,0,1,0,1l-1,1l0,1ZM145.5,252.5c0,0,1,0,1,0c0,0,1,0,1,0l0,-1c1,0,1,0,1,0l0,-2l-1,-7c0,-1,0,-1,0,-1c0,-1,1,-1,1,-1c0,1,0,1,0,1c0,0,1,0,1,1l0,1l-1,0c0,1,0,1,0,2c0,0,0,1,1,3c0,0,0,1,0,1l0,1c0,0,0,1,0,1c0,0,-1,0,-1,0c0,1,0,1,0,1l0,1c-1,0,-1,0,-1,0l-1,1l-1,0l-1,0l-1,0c-1,0,-1,0,-2,-1c0,0,-1,0,-1,0c0,0,-1,0,-2,0c0,1,-1,1,-2,1l-1,0c0,0,-1,0,-1,0c0,-1,0,-1,0,-1c-1,0,-1,0,-1,0c0,0,0,-1,0,-1l-1,0c0,1,0,1,0,1c-1,0,-1,0,-2,1l-1,0l-1,0l0,1c0,0,-1,0,-1,1c0,0,0,1,-1,1c0,0,0,1,0,1c-1,0,-1,0,-1,0c0,1,-1,1,-1,1l-1,0l-1,0c0,0,-1,0,-1,0c-1,0,-1,-1,-1,-1l1,0c1,0,1,0,2,0c0,0,1,0,1,-1c0,0,1,0,1,0c0,-1,0,-1,1,-1c0,0,0,-1,0,-1c0,0,1,0,1,-1c-1,0,-1,0,-1,0c0,0,-1,0,-1,-1c-1,0,-1,0,-1,-1c0,-1,0,-1,0,-1l0,-1c0,0,1,0,1,0c0,-1,0,-1,0,-1l1,0c0,0,1,0,1,0l0,1l1,0c0,0,0,1,0,1c0,0,0,1,0,1c0,0,1,0,1,0c1,0,1,0,1,0c1,0,1,0,2,-1c1,0,1,0,1,0c1,0,1,1,1,1c0,0,1,0,1,0l1,0c1,0,1,0,1,0c0,0,1,0,1,0l1,0c-1,-1,-1,-1,-1,-1c0,0,0,-1,0,-1l1,-1c0,-1,0,-1,0,-1c0,0,1,-1,1,-1c0,0,1,-1,1,-1c1,0,1,1,1,1c1,0,1,1,1,1l0,1c0,1,0,1,-1,2l0,1c0,0,1,0,1,0l1,0ZM145.5,236.5c0,-1,1,-1,1,-1c1,0,1,0,1,0c1,0,1,0,2,0c0,0,0,1,0,1c0,1,0,1,0,1c0,0,-1,1,-1,1l-1,0l-1,0l-1,0l2,-1c1,0,1,0,2,0c-1,-1,-1,-1,-1,-1c0,0,-1,0,-1,0c0,0,-1,0,-1,0c0,1,-1,1,-1,1c0,-1,0,-1,0,-1ZM141.5,245.5l-1,-1l-1,2l-1,-1l1,-2l1,1l1,-1l1,1ZM141.5,248.5c-1,0,-1,0,-1,1c-1,0,-1,0,-1,0l0,1c1,0,1,1,1,1c1,0,1,0,1,-1c1,0,1,0,1,0c0,-1,0,-1,0,-1c-1,-1,-1,-1,-1,-1ZM137.5,237.5l4,-2l0,1l-5,2ZM134.5,257.5l-2,-1l-1,1l-1,-1l1,-1l1,1l1,-1l2,0ZM131.5,242.5l0,1c0,0,1,0,1,0l0,-1l1,0l0,1c1,0,1,-1,1,-1l0,-1l0,1l0,1c0,0,0,1,0,1l-1,0l-1,0c0,0,0,1,0,1c-1,0,-1,-1,-1,-1l0,-1l0,-1ZM133.5,237.5c0,0,0,-1,0,-1c0,0,1,0,1,0c1,0,1,0,1,1l0,1c-1,0,-1,0,-1,1l1,0l0,1l-1,0l-1,1c0,0,-1,0,-1,0c0,0,-1,0,-1,0c0,0,-1,0,-1,0c1,0,2,-1,3,-2c-1,0,-1,-1,-1,-1ZM134.5,237.5l-1,0c0,0,0,1,0,1l1,0ZM126.5,251.5l-1,0l0,1l1,0c1,0,1,0,1,0l0,-1c-1,0,-1,0,-1,0ZM119.5,251.5l-1,0c-1,0,-1,0,-1,0c-2,0,-2,1,-3,1c0,1,0,1,0,1c0,0,0,1,0,3c1,1,1,2,1,3c1,2,1,2,1,2l0,1c-1,0,-1,0,-1,0c0,0,0,-1,0,-2c-1,-2,-1,-3,-1,-4c0,-1,-1,-2,-1,-2l0,-1c1,-1,1,-1,1,-2l1,-1l1,0c0,0,1,-1,1,-1c0,0,1,0,1,0c-1,0,-1,0,-1,0l-1,0c0,0,-1,0,-1,0l0,-1c1,0,1,-1,1,-1l1,0c0,0,1,0,1,0c0,0,0,1,1,1c0,0,0,1,1,1l0,1l0,1ZM116.5,238.5c0,-1,0,-1,0,-1c1,0,1,0,1,0c0,0,1,0,1,0l0,1l0,1l0,1l0,1l-1,-1l0,1l-1,0c0,1,-1,1,-1,1l-1,0l1,-1l1,0l0,-1c0,-1,0,-1,0,-1c0,-1,0,-1,0,-1ZM117.5,238.5l-1,0l0,1l1,0l0,-1ZM195.5,254.5l0,-1l0,-2l-1,-8l1,-3l1,11c0,0,0,1,0,1l0,1c-1,0,-1,0,-1,1ZM187.5,252.5c1,0,1,0,1,0c0,0,1,0,1,0c0,0,1,0,1,-1l0,-2l-1,-7c0,-1,0,-1,0,-1c0,-1,1,-1,1,-1c0,1,0,1,0,1c0,0,1,0,1,1l0,1l-1,0c0,1,0,1,0,2c0,0,1,1,1,3c0,0,0,1,0,1l0,1c0,0,0,1,0,1c0,1,0,1,-1,1l0,1c0,0,-1,0,-1,0l-1,1l-3,0l-1,0l-1,-1c-1,0,-1,-1,-1,-1l0,-1c0,0,0,1,-1,1c0,0,-1,0,-1,0c-1,1,-1,1,-2,1l-1,0c0,1,-1,1,-1,1c0,0,-1,0,-1,0l-1,0l-1,0c-1,0,-1,0,-1,0c0,0,0,1,1,1c1,0,1,0,1,0c1,0,1,0,1,0c0,0,1,0,1,0c0,1,0,1,0,1c0,1,0,1,0,1l0,1c-1,0,-1,0,-1,0c-1,1,-2,1,-3,2c-1,0,-2,0,-4,0c-1,0,-1,0,-2,0c-1,0,-1,0,-2,-1c0,0,0,-1,0,-1c-1,-1,-1,-1,-1,-2c0,-1,0,-1,1,-2c0,-1,0,-1,1,-2c0,1,0,1,0,2c-1,0,-1,1,-1,1c0,0,0,1,0,1c1,0,1,1,2,2c0,0,1,0,2,0c1,0,1,0,1,0l1,0c1,0,1,0,1,0c1,0,1,0,1,0l1,0c1,-1,1,-1,1,-1c0,0,1,0,1,0c0,0,-1,0,-1,0c-1,-1,-1,-1,-1,-1c-1,0,-1,0,-1,0c0,0,-1,0,-1,0c0,0,0,-1,0,-1c0,0,0,-1,0,-1c0,0,0,-1,1,-1c1,-1,1,-1,2,-1l1,0c0,0,0,-1,0,-1c0,-1,0,-1,0,-1c1,-1,1,-1,1,-1c1,-1,1,-1,2,-1c0,0,1,0,1,0l1,0l2,1l2,0c0,0,1,0,1,0l1,0l-1,2c0,0,-1,0,-1,0c0,0,-1,0,-1,0c0,0,0,1,0,1c0,0,1,0,1,0l1,0ZM187.5,236.5c1,-1,1,-1,1,-1c1,0,1,0,2,0c0,0,1,0,1,0c0,0,1,1,1,1c-1,1,-1,1,-1,1c0,0,0,1,-1,1l-1,0l-1,0l1,-1c1,0,1,0,2,0c0,-1,-1,-1,-1,-1c0,0,-1,0,-1,0c0,0,-1,0,-1,0c0,1,0,1,-1,1c0,-1,0,-1,0,-1ZM177.5,252.5l1,0c0,-1,0,-1,1,-1l1,0l1,0c0,-1,0,-1,1,-1l-1,0c-1,0,-1,0,-2,0c0,-1,-1,-1,-1,-1c0,0,-1,0,-1,1c-1,0,-1,0,-1,0c0,0,0,1,0,1l0,1l1,0ZM178.5,241.5l4,-3l0,1l0,1l-4,2ZM166.5,242.5l0,1c0,0,1,0,1,0l1,-1l0,1l1,0c0,0,0,-1,0,-1l0,-1l0,1l0,1c0,0,0,1,0,1l-1,0l-1,0c0,0,0,1,0,1c-1,0,-1,-1,-1,-1l0,-1l0,-1ZM168.5,237.5l0,-1c0,0,1,0,1,0c1,0,1,0,1,1l0,1c0,0,-1,0,-1,1l1,0l0,1l-1,0l-1,1c0,0,-1,0,-1,0c0,0,-1,0,-1,0c0,0,-1,0,-1,0c1,0,2,-1,3,-2c-1,0,-1,-1,-1,-1l0,-1c0,0,1,0,1,0ZM169.5,237.5l-1,0c0,0,0,1,0,1l1,0ZM224.5,253.5l-1,0l-1,0c0,0,-1,-1,-1,-1l-1,0l0,1c0,0,-1,0,-1,0l-1,0l-1,0c0,1,0,1,-1,1l-2,0l0,1l-1,1c0,0,0,1,0,1c-1,0,-1,1,-1,1c0,0,-1,0,-1,0c0,1,0,1,-1,1c-1,0,-1,0,-1,0l-1,0c0,0,-1,0,-1,0c0,0,-1,-1,-1,-1c0,0,1,0,1,0c1,0,1,0,2,0c0,0,1,0,1,-1c0,0,1,0,1,0c0,-1,1,-1,1,-1c0,0,0,-1,0,-1c1,0,1,0,1,-1l-1,0l-1,-1c0,0,-1,0,-1,-1c0,-1,0,-1,0,-1l1,-1c0,-1,0,-1,0,-1c1,0,1,0,1,0c1,0,1,0,1,0l0,1c1,0,1,0,1,0c0,0,0,1,0,1c0,0,0,1,0,1c1,0,1,0,1,0c1,0,1,0,1,0l1,0c1,0,1,0,1,0l0,-1c0,-1,0,-1,0,-1c0,0,0,-1,0,-1c0,0,1,0,1,0c0,0,0,-1,0,-1c0,-1,0,-1,0,-1l0,-1c1,0,1,0,1,0l0,-1c1,1,1,1,2,2c1,0,1,1,2,1c0,1,0,1,1,1c0,1,0,1,0,1c0,0,0,1,0,1c0,0,0,1,0,1c0,1,0,1,-1,1ZM220.5,249.5c0,0,-1,0,-1,0c0,0,0,1,0,1c1,0,1,0,1,1c0,-1,1,-1,1,-1c0,-1,0,-1,0,-1c0,0,-1,0,-1,0ZM222.5,249.5l0,1c0,0,0,1,0,1l2,0c0,0,-1,-1,-1,-1l0,-1c-1,0,-1,0,-1,0ZM298.5,241.5c1,0,1,0,1,-1c0,0,1,0,1,0c1,0,1,1,1,1c0,0,0,1,0,1l-1,0c0,0,0,1,0,1l1,0l0,1l-1,0l-1,0l0,1c-1,0,-1,0,-1,0l-1,0l0,1l-1,0l1,-1l1,0c0,0,0,-1,0,-1l1,-1c-1,0,-1,-1,-1,-1l0,-1ZM300.5,241.5l-1,0c0,0,0,1,0,1l1,0ZM217.5,234.5l1,0c0,-1,0,-1,0,-1c1,0,1,0,1,0c0,1,0,1,0,1c0,0,0,1,0,1c0,1,0,1,0,1l0,2l-1,-1l-1,1l-1,1l-1,0l0,-1l1,0l1,-1l1,0l-1,-1l0,-1l0,-1ZM218.5,235.5l0,-1c0,0,-1,0,-1,1l1,0l0,1l0,-1ZM212.5,251.5c0,0,-1,0,-1,0l0,1c0,0,1,0,1,0l1,0l0,-1l-1,0ZM208.5,244.5l5,-2l-1,0c0,1,0,1,0,1l-4,2ZM244.5,254.5l0,-1l0,-2l0,-8l1,-3l0,11c0,0,0,1,0,1l0,1l-1,1ZM247.5,256.5l-4,2c1,-1,1,-1,1,-1l4,-2ZM238.5,252.5l0,1c-1,0,-1,0,-1,0l1,0l1,0l-1,-1ZM239.5,255.5l-1,0c0,0,-1,0,-1,0c0,0,-1,0,-1,0c-1,0,-1,0,-1,0l-1,0l0,-1l0,-1c0,0,1,0,1,0c1,0,1,0,1,0c0,0,1,-1,1,-1c0,0,1,-1,1,-1c0,0,-1,0,-1,-1l-1,-1c0,0,0,-1,-1,-1c0,-1,-1,-1,-1,-2c-1,0,-1,0,-1,0c0,-1,-1,-1,-1,-1c-1,0,-1,0,-1,0c0,0,-1,0,-1,-1l0,-1c0,-1,0,-1,0,-1l0,-1l1,0c0,1,0,1,1,1c0,1,1,1,1,2c1,1,2,1,2,2c1,0,1,1,2,2c0,0,1,1,1,1c0,1,0,1,0,1c0,0,1,-1,1,-1c0,-1,0,-2,0,-2c0,-1,0,-1,0,-2c0,0,0,-1,0,-1c0,-1,0,-1,0,-2c0,-1,0,-1,0,-1c0,-1,0,-1,1,-1c0,1,0,1,0,1c0,0,1,0,1,1l0,1c0,0,-1,0,-1,0c0,0,0,1,0,1c0,0,0,1,0,1c0,1,0,1,0,1c0,1,0,1,0,2c0,0,-1,1,-1,2c0,0,0,1,0,1c0,0,0,1,0,1c0,1,0,1,0,1c0,1,0,1,0,1l0,1ZM352.5,244.5l0,1c0,0,0,1,0,1l1,-1l0,-1l1,1l1,-1l0,-1l0,1l0,1c0,1,0,1,-1,1l-1,0c0,1,-1,1,-1,1l0,-1l-1,0l0,-1l1,0ZM356.5,242.5l-6,2c1,0,1,-1,1,-1l5,-3ZM236.5,238.5l0,1l1,0c0,0,0,-1,0,-1l0,-1l0,1c0,0,1,0,1,0l0,-1l1,0l0,-1l0,1l0,1c0,1,0,1,-1,1c0,0,-1,0,-1,0c0,1,-1,1,-1,1l-1,0l0,-1l0,-1ZM240.5,235.5l-6,3c1,-1,1,-2,1,-2l5,-3ZM268.5,254.5l0,-1l0,-2l0,-8l1,-3l0,11c0,0,0,1,0,1l0,1c0,0,-1,0,-1,1ZM271.5,256.5l-4,2c1,-1,1,-1,1,-1l4,-2ZM260.5,254.5c0,0,-1,0,-1,-1c0,0,-1,0,-1,0c0,0,0,-1,0,-1c0,-1,-1,-1,-1,-1c0,0,0,1,0,1c0,0,-1,0,-1,0l-1,0c0,0,-1,0,-1,0l-1,0l0,-2c0,0,1,0,1,-1c0,0,1,-1,2,-1c0,-1,1,-1,1,-1l0,-1l0,-1l1,1c0,1,0,1,0,1c0,1,0,1,0,2l0,2c1,0,1,1,1,1c1,0,1,0,1,0c1,0,1,0,1,0c1,0,1,0,1,0c1,0,1,0,1,-1l0,-2l0,-7c-1,0,-1,0,-1,0c0,-1,0,-1,1,-1c0,-1,0,-1,0,-1c0,1,0,1,0,1c1,0,1,0,1,1l0,1c0,1,0,1,0,2c0,0,0,1,0,3c0,0,0,1,0,1l0,1c0,0,0,1,0,1c0,1,0,1,0,1c0,0,-1,0,-1,1l-1,0l0,1c-1,0,-1,0,-1,0l-1,0ZM261.5,239.5l0,-1c0,0,0,-1,0,-1c0,-1,0,-2,-1,-2l1,0l0,-1l0,1c1,0,1,1,1,1l0,1c0,1,0,1,0,1c-1,0,-1,0,-1,1ZM257.5,248.5l-1,1l-1,0c0,1,0,1,0,1l1,0l1,0ZM254.5,241.5l4,-3l0,1l0,1l-5,2ZM286.5,252.5l0,1c0,0,-1,0,-1,0c1,0,1,0,1,0l1,0l0,-1ZM288.5,255.5c-1,0,-1,0,-2,0l-1,0c0,0,-1,0,-1,0c-1,0,-1,0,-1,0l-1,0l0,-1l0,-1c0,0,1,0,1,0l1,0c1,0,1,-1,1,-1c1,0,1,-1,1,-1l-1,-1l0,-1c-1,0,-1,-1,-2,-1c0,-1,-1,-1,-1,-2c0,0,-1,0,-1,0c0,-1,0,-1,-1,-1c0,0,-1,0,-1,0l-1,-1l0,-1c0,-1,0,-1,0,-1l0,-1c1,0,1,0,1,0c0,1,1,1,1,1c1,1,1,1,2,2c0,1,1,1,2,2c0,0,1,1,1,2c1,0,1,1,1,1c0,1,0,1,1,1c0,0,0,-1,0,-1c0,-1,0,-2,0,-2c0,-1,0,-1,0,-2c0,0,0,-1,0,-1c0,-1,0,-1,0,-2c0,-1,0,-1,0,-1c0,-1,1,-1,1,-1c0,1,0,1,0,1c1,0,1,0,1,1l0,1l-1,0c0,0,0,1,0,1c0,0,0,1,0,1c0,1,0,1,0,1c0,1,0,1,0,2c0,0,0,1,-1,2c0,0,0,1,0,1c0,0,0,1,0,1c0,0,1,0,1,0c0,1,0,1,0,1c0,1,0,1,0,1l0,1ZM286.5,238.5l4,-2l0,1l-4,2ZM283.5,239.5c-1,0,-2,1,-3,1l-1,0l0,-1c-1,0,-1,0,-1,0c0,1,-1,1,-1,1l0,-1l1,-1c1,0,1,0,2,0c0,1,0,1,1,1l1,0l1,-1l1,0ZM313.5,254.5l0,-1l0,-2l0,-8l1,-3l0,11c0,0,0,1,0,1l0,1l-1,1ZM309.5,253.5l-1,0c0,0,-1,0,-1,0c0,-1,-1,-1,-1,-2c0,1,0,1,-1,2c0,0,-1,1,-1,1c-1,0,-2,-1,-2,-1c0,0,-1,-1,-1,-2c0,1,0,1,-1,1c0,0,-1,0,-1,0c-1,0,-1,0,-2,0l0,-1l0,-1c0,0,1,0,1,-1c0,0,1,0,1,-1l1,0l1,0l0,-1l0,-1l1,-1l0,1l0,1l0,3c0,0,0,1,0,1l1,0c0,1,0,1,1,1l1,-1l1,-1c0,0,-1,-1,-1,-2c0,-1,0,-1,0,-2c0,0,0,-1,0,-1l0,-1l1,-1l0,3l0,2l0,1l1,0c0,1,0,1,0,1c0,1,1,1,1,1l1,0c0,0,1,0,1,-1l-1,-1l0,-1l0,-1l-1,-1l1,-1l0,-1l0,1c0,0,1,1,1,1l0,2c0,1,0,1,0,2c0,0,0,1,0,2l-1,1ZM301.5,249.5l-1,0c0,0,-1,0,-1,1c0,0,-1,0,-1,0c1,0,2,0,2,0c1,0,1,0,1,0ZM341.5,251.5c0,1,0,2,0,2c0,0,0,1,0,1l-1,1l1,1l-1,1c-1,0,-1,0,-1,0l0,1c-1,0,-1,0,-2,1l-1,0l-1,0l-1,1l-1,1l0,1l-1,0l-1,0c0,-1,0,-1,-1,-1l-1,-1c0,0,0,-1,0,-1c-1,0,-2,0,-3,0l0,-1l-1,0l0,-1l-1,0l-1,-1l-1,0l2,-1l-1,0l0,-1l-1,-1l0,-1l0,-1l0,-1c0,-1,0,-1,1,-2l0,-1l-1,0c0,-1,0,-1,0,-1c0,0,1,0,1,0l1,-1l1,0l0,-1l1,0l1,-1l2,0l0,-1l1,-1c0,0,1,0,1,0l0,-1l1,0l1,0l0,1l0,1l1,0l1,1l2,0l0,1c1,0,1,0,1,0l1,0l0,1l1,0c0,1,1,1,1,1l0,1l-1,0l0,1l1,0l0,1l0,1ZM332.5,261.5l1,0l0,-1l1,0l1,-1c0,0,1,0,1,0l1,0l0,-1c0,0,1,0,1,0l1,-1l1,-1l1,0l-1,-1l-1,0l1,0l0,-1l1,0l0,-1l0,-1l0,-1c0,-1,0,-2,0,-2l0,-1l-1,0l0,-1l1,-1c-1,0,-1,0,-2,-1l-1,0l0,-1l-1,0l-1,0l-1,-1c-1,0,-1,0,-1,0l-1,-1l0,-1c0,0,-1,0,-1,0l-1,0l-1,1l0,1c-1,0,-1,0,-1,0l-2,1l-1,0l-1,0l0,1l-1,0c0,1,-1,1,-1,1l1,1l-1,1l0,1l-1,1c0,0,0,1,0,1l0,1l0,1l1,0l0,1l1,1l-1,1l1,1l1,0l0,1l1,0l1,1l2,0l1,1l0,1c1,0,1,0,1,0ZM338.5,246.5l0,1l-1,0l0,-1l-1,0l0,-1l-1,0l0,-1l1,0l0,1l1,0l1,1ZM338.5,256.5l0,1l-1,0l-1,1l-1,0c0,-1,0,-1,0,-1l1,0c1,-1,1,-1,1,-1l1,0ZM334.5,258.5c0,0,0,1,-1,1l-1,0l-1,0c0,0,-1,0,-1,0c0,-1,0,-1,0,-1c0,0,0,-1,0,-1l1,0l1,0l1,0l1,1ZM334.5,244.5c0,0,0,1,-1,1l-1,0l-1,0c0,0,-1,0,-1,0l0,-1l0,-1l1,0l1,0l1,0c0,0,0,1,1,1ZM332.5,247.5l1,0l0,-1c0,0,1,0,1,0c1,0,1,0,1,1c0,0,1,0,1,0l1,1l1,-1c0,0,0,1,0,1l1,1l0,1l0,1l0,1l0,1l0,1c0,0,-1,0,-1,0c0,0,0,1,0,1l-1,-1c0,0,0,1,-1,1l0,1l-1,0l-1,0c-1,0,-1,0,-1,0l0,-1l-1,0l-1,0l0,1l-1,0l-1,0c0,0,-1,0,-1,0c0,0,-1,-1,-1,-1l0,-1l-1,1l-1,0l0,-1l0,-1l-1,-1l0,-1c0,0,0,-1,0,-1l1,-1l0,-1c0,0,0,-1,1,-1l1,1l0,-1l1,0c0,-1,1,-1,1,-1c1,0,1,0,1,0l1,0l0,1ZM333.5,255.5l0,1l1,0l1,0l0,-1l1,0l0,-1c0,0,1,0,1,0l1,0l0,-1l1,0l0,-1l0,-1c0,0,0,-1,0,-2c0,0,-1,0,-1,-1l-1,0l-1,0l0,-1l-1,0l-1,-1c0,0,-1,1,-1,1l-2,0l-1,0l-1,-1l0,1c-1,0,-1,0,-1,0l-1,0l0,1l-1,0c0,0,-1,0,-1,0l0,1l0,1l0,1c0,1,0,1,0,1l0,1c0,1,0,1,1,1l1,0l0,1l1,0l1,1c1,0,1,0,1,0c0,-1,1,-1,1,-1l1,0l1,0ZM332.5,249.5l0,1c0,1,0,1,0,1l0,1l0,1c0,0,0,1,0,1l0,-1c0,-1,0,-2,-1,-3ZM325.5,246.5l1,0l0,-1l1,0l1,-1l1,0l0,1c-1,0,-1,0,-1,0c-1,0,-1,0,-1,1l-1,0l0,1l0,-1l-1,0ZM325.5,256.5l1,0l1,1l1,0l1,0l-1,1l1,0c-1,0,-1,0,-1,0c-1,0,-2,-1,-2,-1l-1,-1ZM367.5,254.5l0,-1l0,-2l0,-8l1,-3l0,11c0,0,0,1,0,1l0,1l-1,1ZM360.5,252.5l1,0l1,0l0,-1l0,-2l0,-7c0,-1,0,-1,0,-1c0,-1,0,-1,1,-1c0,1,0,1,0,1l1,1l-1,1c0,1,0,1,0,2c0,0,0,1,0,3c0,0,0,1,0,1l0,1c0,0,0,1,0,1c0,1,0,1,0,1l0,1c-1,0,-1,0,-1,0c0,0,-1,0,-1,1c0,0,-1,0,-1,0l-1,0c0,0,-1,-1,-1,-1c0,0,-1,0,-1,0c0,0,0,1,-1,1c0,0,-1,0,-2,0c0,0,-1,-1,-1,-1l0,1l-1,0c0,1,0,1,-1,1c0,1,-1,1,-2,1c-1,0,-2,1,-4,1l5,-2l1,-1c1,0,1,-1,2,-1l0,-2c1,-1,1,-1,1,-1c0,0,1,0,1,-1l1,0c0,0,0,1,1,1c0,1,1,1,1,2l1,0l1,0ZM359.5,238.5c1,0,1,0,2,0c1,0,1,0,1,0l1,0l1,0c0,0,-1,0,-1,1l-1,0l-1,0l-1,0l-1,0c0,0,-1,0,-1,0c0,-1,0,-1,1,-1ZM356.5,252.5l0,-1c-1,0,-1,0,-1,0l-1,0c0,1,0,1,1,1ZM356.5,239.5c-1,0,-1,0,-2,0l-1,0l-1,0l-1,1l0,-1l1,0l0,-1c1,0,2,0,2,0l1,0l1,0ZM305.5,237.5l0,-1c0,0,0,-1,-1,-1c0,-1,0,-2,0,-2l0,-1l1,0c0,0,0,1,0,1c0,0,0,1,0,1l0,1l0,1c0,0,0,1,0,1Z" class="g2_6" />
<path fill-rule="evenodd" d="M66.5,416.5c0,0,-1,0,-1,0c0,0,-1,0,-1,0l0,-1c0,0,0,-1,0,-1c0,0,0,-1,0,-1c1,0,1,0,1,0l-1,0l0,-1c0,0,1,0,1,0l0,1c1,0,1,0,1,0l1,0l-1,0l-1,0c0,0,-1,1,-1,1c0,1,0,1,0,1c0,0,1,0,1,0c0,1,0,1,0,1l1,0l1,0ZM397.5,416.5l0,-1c0,0,0,-1,0,-1c-1,-1,-1,-2,-1,-2l0,-1l1,0l0,1c0,0,0,1,0,1l0,1c0,1,0,1,0,1l0,1ZM299.5,422.5l0,-1c0,0,0,-1,-1,-1c0,-1,0,-1,0,-2l1,-1c0,0,0,1,0,1c0,1,0,1,0,1l0,1c0,1,0,1,0,1c0,0,0,1,0,1ZM78.5,429.5c0,1,0,2,0,2c0,0,0,1,-1,1l0,1l1,1l-1,0l0,1l-1,0l0,1l-1,0l-1,1l-1,0l-1,0c-1,0,-1,1,-1,1l-1,1l-1,1l-4,0l-4,0c0,0,0,-1,0,-1l-1,-1c0,0,-1,0,-1,-1c-1,0,-2,0,-2,0l-1,-1l-1,0l0,-1l-1,0l-1,-1l1,-1l-1,0l0,-1l0,-1l-1,0l0,-1l0,-1l0,-1c1,0,1,-1,1,-2l1,-1l-1,0c0,-1,0,-1,0,-1l1,0l0,-1l1,0l1,-1l1,-1l2,0l1,-1l1,-1l4,0l4,0l1,0l0,1l1,0l0,1l1,0l1,1l1,0c1,0,1,0,1,0l0,1l1,0c1,1,2,1,2,2l-1,0l0,1l1,0l0,1l0,1ZM69.5,439.5l1,0l0,-1l1,0l0,-1c1,0,1,0,2,0l1,-1c0,0,1,0,1,0l0,-1l1,0l1,-1l-1,-1l1,0l0,-1l1,-1l0,-1l0,-1c0,-1,0,-1,0,-2c0,0,-1,0,-1,0l0,-1l0,-1l-1,0l2,0c-1,-1,-1,-1,-2,-1l0,-1l-1,0l0,-1l-1,0l-1,0l-2,-1l-1,-1l0,-1l-1,0l-4,0l-4,0l0,1l-1,1c0,0,-1,0,-1,0l-2,1l-1,0l0,1l-1,0l-1,1l-1,1l1,0l0,1l-1,0l0,1l0,1c0,1,0,1,0,1l0,1l0,1l0,1l1,0l0,1l-1,1l1,0l0,1l1,0l0,1l1,0l1,0l0,1l1,0l1,0c0,0,1,0,1,1l1,1l4,0ZM75.5,424.5l0,1l-1,0l0,-1l-1,0l-1,-1c0,0,-1,0,-1,0c1,0,1,0,1,0l-1,-1c1,0,1,0,1,0l0,1l1,0c0,0,1,0,1,0l0,1l1,0ZM75.5,434.5l0,1l-1,0l-1,1l-1,0c0,0,0,-1,-1,-1c1,0,1,0,1,0l1,0c1,-1,1,-1,1,-1l1,0ZM70.5,436.5c0,0,0,1,0,1l-1,0l-4,0l-4,0l-1,0c0,0,0,-1,0,-1l0,-1c0,0,1,0,1,0l4,0l4,0c0,0,1,0,1,0l0,1ZM70.5,422.5c0,1,0,1,0,1l-1,1l-4,0l-4,0c0,0,0,-1,-1,-1l0,-1l0,-1l1,0l4,0l4,0c1,0,1,0,1,0c0,0,0,1,0,1ZM69.5,425.5l1,0l0,-1c0,0,1,0,1,0c0,0,1,0,1,1l1,0l0,1l2,0l0,1l1,0l0,1l0,1l0,1c0,0,0,1,0,1l-1,1c0,1,0,1,0,1l-1,0c0,0,-1,0,-1,0c0,0,0,1,-1,1l-1,0l-1,0l-1,0l0,-1l-4,0l-4,0l0,1c-1,0,-1,0,-1,0c-1,0,-1,0,-2,0c0,0,0,-1,-1,-1l-1,0l-1,-1l0,-1l0,-1l0,-1c0,0,0,-1,0,-1l0,-1l0,-1c1,0,1,0,1,0l1,0l1,-1c1,-1,1,-1,2,-1l1,0l0,1l4,0ZM69.5,433.5l1,0l0,1l1,0c0,0,1,0,1,0l0,-1l1,0c0,-1,0,-1,0,-1l2,1l0,-1l0,-1l1,-1l0,-1c0,0,0,-1,-1,-1c0,-1,0,-1,0,-2l-2,0l0,-1l-1,0l-1,0c0,0,-1,0,-1,0l-1,0l-4,0l-4,0l-1,0c-1,0,-1,0,-1,0l-1,0l0,1c-1,0,-1,0,-1,0l-1,0l-1,1l0,1l0,1c0,1,0,1,0,1l0,1c1,1,1,1,1,2l1,-1l0,1l1,0l1,1l1,0l1,0c0,0,0,-1,0,-1l4,0l4,0ZM67.5,432.5l0,-1l0,-1l-1,0l0,-1l-1,-1l1,-1l0,1l1,1l0,1l0,-1l1,0l0,-1c0,0,1,0,1,-1l0,1c0,0,-1,1,-1,2l-1,1c0,1,0,1,0,1ZM63.5,427.5l0,1l1,0l0,1l0,1c1,0,1,1,1,1l0,1c0,0,0,-1,-1,-1l0,-1l-1,-1l0,1l-1,1l0,1l0,-1c0,-1,0,-1,0,-1l1,-1l0,-1c0,0,0,-1,0,-1ZM56.5,424.5l1,-1l1,0l1,-1l0,1c0,0,-1,0,-1,0c0,0,0,1,-1,1l0,1l-1,0ZM56.5,434.5c0,0,1,0,1,1l1,0l1,0c0,0,0,1,0,1l-1,0c-1,0,-1,-1,-2,-1l0,-1ZM152.5,432.5l0,-1l0,-1l-1,-8l1,-3l1,11c0,1,0,1,0,1c-1,1,-1,1,-1,1ZM144.5,431.5c1,0,1,0,1,-1c1,0,1,0,1,0c0,0,1,0,1,0l0,-1l0,-2l-1,-6c0,-1,0,-1,0,-1c0,0,0,-1,0,-1c1,0,1,0,1,-1c0,1,0,1,0,1l0,1c0,0,1,0,1,0c0,0,0,1,0,1c0,0,0,1,0,1l-1,0c0,0,1,1,1,2c0,0,0,1,0,2c0,1,0,1,0,2l0,1l0,1l-1,1c0,1,-1,1,-1,1l-1,0l-1,0l-10,0l0,1c0,0,0,1,0,2c0,-1,-1,-1,-1,-1c0,-1,0,-1,0,-1l0,-1l-1,0c0,0,-1,0,-1,0c-1,0,-1,-1,-1,-2c0,1,0,1,-1,2l-1,0l-1,0c-1,0,-1,0,-2,0l0,-1c-1,1,-1,1,-1,2l-1,0l-1,-1l-1,0l-1,-1l-1,1c0,0,-1,0,-1,0l-1,0l-1,0l-1,0l-1,-1l0,-1l0,-1l0,-1c-1,1,-1,1,-2,2c0,0,-1,0,-1,0c0,1,0,1,0,1l0,1l0,1l-1,0c0,0,0,1,0,1c0,0,-1,0,-1,1c-1,0,-1,0,-1,0c-1,0,-1,0,-2,1c-1,0,-2,0,-3,0c-1,1,-2,1,-3,1c0,0,-1,0,-2,0c-1,0,-1,0,-2,0c-1,0,-1,0,-2,0c0,0,-1,0,-2,0c-1,0,-1,0,-2,-1c-1,0,-2,0,-2,0c-2,-1,-3,-1,-4,-2c-1,0,-2,-1,-2,-2c-1,0,-1,0,-1,0c0,0,0,-1,0,-1c1,1,1,1,1,1c1,0,1,0,1,0c1,1,2,1,3,1c0,1,1,1,1,1c1,0,1,0,2,0c0,1,1,1,2,1c0,0,1,0,2,0c0,0,1,0,2,0c0,0,1,0,1,0c1,0,1,0,2,0c1,0,2,0,2,0c1,0,2,0,3,0c1,0,2,-1,3,-1c0,0,1,0,2,-1c2,0,2,-1,2,-1c0,-1,0,-1,0,-1c0,-1,0,-1,0,-1l-1,-1l1,-2l0,1l1,0c1,0,1,0,1,0c1,-1,1,-1,1,-1c1,0,1,-1,1,-1c0,0,0,1,0,1l0,1c0,1,0,1,1,2l1,0c0,1,0,1,1,1l1,0c0,0,0,-1,1,-1c0,0,1,-1,1,-1c1,-1,2,-2,2,-2l1,0l0,1l1,1l1,1c0,0,1,0,1,0l0,1l1,0l1,0l0,-1c1,0,1,0,2,0c0,-1,0,-1,0,-1l0,-1c0,-1,0,-1,0,-1l-1,-7l1,-2l1,11l0,1l1,0c0,1,0,1,0,1l1,0c1,0,1,-1,1,-1c0,0,1,-1,1,-1l0,-1l0,-2l0,-1l-1,-3l0,-2c0,0,0,-1,0,-1l1,0l1,1c-1,1,-1,1,-1,2l0,1l0,1l0,1l1,1l0,1l0,1l-1,0l0,1l2,-1l1,-1c1,0,1,-1,2,-1c1,0,2,0,2,1c0,0,1,0,1,1c0,1,0,1,0,1c0,0,0,1,-1,1l0,1l-1,0l2,0l1,0ZM139.5,425.5l-2,-1l1,-2l2,1ZM142.5,429.5l-1,-1c-1,0,-1,0,-1,0c-1,0,-1,0,-2,1l-1,0l-1,1l-1,1l1,0c1,0,1,-1,1,-1c1,0,1,0,1,0c1,0,1,0,1,0c1,0,2,0,3,-1ZM130.5,438.5l-3,2c0,0,0,-1,0,-1l4,-2ZM124.5,431.5l-1,-1c0,-1,0,-1,-1,-1l-1,0c0,1,0,1,1,1l1,0ZM121.5,435.5l-4,2c0,0,1,-1,1,-1l4,-2ZM116.5,435.5l-2,-1l-1,2l-1,-1l1,-2l1,1l1,-1l2,1ZM98.5,430.5l-1,-1l0,-1l2,1ZM88.5,423.5l1,0l3,-1l5,-2l5,-2l-1,1l-1,1l-1,0l-1,1l-6,2l-4,1ZM175.5,431.5c-1,0,-1,0,-1,0l-1,0l-1,0l-1,-1l0,1l-1,1l-1,0l-2,0c0,0,0,1,0,1c0,0,0,1,0,1c0,0,0,1,0,2c0,0,-1,1,-1,1c-1,1,-2,1,-2,1c-1,1,-2,1,-3,1c0,0,-1,0,-1,-1c-1,0,-2,0,-2,0c0,-1,-1,-1,-1,-1c0,-1,0,-2,0,-2c0,0,0,-1,0,-1c0,0,0,-1,0,-1c0,0,0,-1,0,-1l1,0l0,-1c0,0,0,1,0,1c0,0,0,1,0,1c0,1,0,1,0,1c0,1,0,1,0,1c0,0,0,1,1,1c1,1,2,1,3,1c0,0,1,0,2,-1c1,0,1,0,2,-1c0,0,0,-1,0,-1c0,0,0,-1,0,-1c0,0,0,-1,0,-1l0,-1l-1,0l1,-2c1,1,1,1,2,1l1,0l1,0l1,0l0,-1l1,-1c0,0,0,-1,1,-1c0,-1,0,-1,1,-1c0,0,0,1,1,1c0,0,0,1,0,1l0,1l0,1c0,1,0,1,0,1ZM173.5,429.5l1,0l0,-1l-1,0c0,1,-1,1,-1,1c0,0,1,0,1,0ZM174.5,435.5l-5,2c1,-1,1,-1,1,-1l4,-2ZM162.5,429.5l-1,-1l1,-1l1,1ZM161.5,422.5l4,-2l0,1l-5,2ZM229.5,430.5c0,0,-1,1,-2,1c-1,0,-2,0,-4,0c-1,0,-2,0,-3,0c-1,0,-1,0,-1,0c-2,0,-4,0,-5,1c-1,0,-2,0,-3,0c-2,0,-2,0,-3,0l-1,0l-1,0c0,0,-1,0,-1,0l-1,-1l0,-1c-1,0,-1,0,-1,0c0,1,0,1,0,1l-1,0l-1,1l-1,0l-1,0c-1,0,-1,-1,-1,-1l-1,-1c0,1,0,1,0,1c0,0,-1,0,-1,0c-1,1,-1,1,-2,1l-2,0c0,0,0,1,-1,1l-1,0l-1,0c-2,0,-3,0,-4,-1c-1,0,-2,0,-2,-1c0,0,-1,0,-1,-1c0,0,0,-1,0,-1c0,-1,0,-1,0,-2c0,0,1,-1,1,-1c0,0,0,1,0,1c0,1,0,1,0,1c0,1,0,1,0,1c0,1,1,1,2,1c0,0,0,1,1,1l1,0c1,0,2,0,3,0c1,0,1,0,2,0c0,0,1,0,1,0l1,0c0,-1,0,-1,0,-1l1,0c0,0,1,0,2,-1c0,0,1,0,1,-1c0,0,0,1,0,1l0,1l1,0l1,0c0,0,1,0,1,0c1,0,1,0,2,-1c0,0,1,0,1,0c0,1,1,1,1,1l1,0l1,0l1,0c1,0,2,0,3,0c1,0,2,0,3,0c2,0,3,0,4,0l2,-1c1,0,2,0,3,0c1,0,3,0,4,0c2,0,2,0,3,0c0,0,0,-1,0,-1c0,0,-1,0,-1,0c0,0,0,-1,-1,-1c-2,0,-3,0,-5,1c-2,0,-4,0,-6,0c-2,0,-3,0,-4,0c-2,0,-3,0,-4,0l0,-1c0,0,0,-1,0,-1c1,-1,1,-1,1,-1c0,0,0,-1,1,-1c1,-1,1,-2,2,-2c1,-1,2,-2,3,-2c1,0,1,0,1,0l-1,2l-1,0c-1,1,-2,1,-2,2c-1,0,-2,1,-3,2l1,0c0,1,0,1,1,1l1,0l1,0c1,0,2,0,4,-1c2,0,4,0,6,0c2,0,3,0,4,0c1,0,1,0,2,0c0,0,0,1,0,1c1,0,1,0,1,0c0,0,0,1,0,1c0,1,0,1,0,2c0,0,-1,0,-1,0ZM212.5,413.5c0,-1,0,-1,0,-1c1,-1,1,-1,1,-1c1,1,1,1,1,1c0,1,0,1,0,1l0,1c0,0,-1,0,-1,0l1,0l0,2l-1,-1l-1,0l0,1c0,0,-1,1,-1,1l-1,0c0,0,-1,0,-1,0l1,-1l1,0l0,-1l1,0l0,-1c0,0,-1,0,-1,-1l1,0ZM213.5,413.5l-1,-1c0,0,0,1,0,1l1,0l0,1l0,-1ZM203.5,427.5l-2,-1l1,-1l2,1ZM191.5,426.5l-1,-1l-1,2l-1,-1l1,-2l1,1l1,-1l1,1ZM188.5,413.5c1,-1,1,-1,1,-1c0,-1,1,-1,1,-1c1,1,1,1,1,1c0,1,0,1,0,1l-1,0l0,1l1,0l0,2l-1,-1l-1,0l0,1c-1,0,-1,1,-1,1l-1,0l-1,0l1,-1l1,0l0,-1l1,0l-1,-1l0,-1ZM190.5,413.5l-1,0l0,-1c0,0,0,1,0,1l1,1l0,-1ZM248.5,432.5c0,0,1,0,1,-1l1,0l0,1l-1,0l-1,0l1,1l1,0l1,0l0,1l-3,1l0,-1l1,0c-1,0,-1,-1,-1,-1c0,0,0,-1,0,-1ZM249.5,430.5l0,-1l0,-1l0,-9l1,-2l0,11c0,0,0,1,0,1c0,0,-1,1,-1,1ZM250.5,436.5l-4,2c0,-1,0,-1,0,-1l4,-2ZM243.5,423.5l-1,-1l1,-1l1,1ZM242.5,430.5c0,0,0,-1,0,-1c1,0,1,0,2,0c0,0,1,0,1,0c0,0,0,-1,0,-1l-1,-1c0,0,0,-1,0,-1c0,-1,0,-1,0,-1c1,0,1,0,1,0l0,1c0,0,1,1,1,1l0,1l-1,1l0,1l-1,0c1,0,1,0,1,0c1,1,1,1,1,1c0,1,0,1,0,1c0,1,-1,1,-1,1c0,1,-1,1,-1,1c-1,1,-2,1,-2,1c-1,1,-2,1,-3,1c-1,0,-1,0,-2,0c-1,-1,-1,-1,-2,-1c0,-1,0,-1,-1,-1c0,-1,0,-1,0,-2c0,-1,0,-1,0,-2c1,-1,1,-2,1,-2c1,0,1,0,1,0c0,1,-1,1,-1,2c0,0,0,1,0,1l0,1c0,0,1,1,1,1c1,1,2,1,3,1c1,0,1,0,2,0l1,0c0,-1,1,-1,2,-1c0,0,0,-1,1,-1c-1,0,-1,0,-2,0c0,-1,-1,-1,-1,-1c0,0,0,-1,0,-1m0,-15l0,1c0,1,0,1,0,1c1,0,1,0,1,0l0,-1l0,-1l1,0l0,1c0,0,1,0,1,-1l0,-1l0,1l0,1c0,1,0,1,0,1l-1,0l-1,0c0,1,0,1,-1,1l0,-1l0,-1ZM246.5,436.5l-4,2c0,-1,0,-1,0,-1l4,-2ZM318.5,430.5l0,1c-1,0,-1,0,-1,0c0,1,-1,1,-1,1l-1,0c-1,0,-1,0,-1,0c0,0,-1,-1,-1,-1c0,-1,0,-1,0,-1c-1,1,-1,1,-2,1c0,0,0,1,0,1c-1,0,-1,0,-1,0l-1,0l-2,0c-1,0,-2,0,-2,-1c0,0,-1,0,-1,-1c0,-1,0,-1,0,-1l1,0l-1,0c-1,0,-1,0,-1,0l-5,2l-1,0c0,1,-1,1,-1,1l-1,0c-1,0,-1,0,-1,0c-1,0,-1,-1,-1,-1c0,0,-1,-1,-1,-1c0,1,0,1,-1,1c0,1,-1,1,-1,1l-1,0c0,0,-1,0,-1,0c0,-1,-1,-1,-1,-2c0,0,0,1,-1,1c0,0,-1,1,-1,1c-1,0,-2,0,-2,0l-1,0c0,0,-1,0,-2,0c-1,0,-2,0,-3,0c0,0,-1,0,-2,0c-1,0,-2,0,-3,0c-2,0,-3,0,-4,0c-1,0,-2,0,-2,0c0,0,-1,0,-1,0c-1,0,-1,0,-2,-1c0,0,0,-1,-1,-1c1,0,2,0,2,0c1,0,2,0,2,0c0,0,1,0,2,0c1,0,2,0,4,0c1,0,2,0,3,0c1,0,2,0,3,0c1,0,2,0,3,0c1,0,1,0,1,0c1,0,1,0,1,0c1,0,1,0,2,0c1,0,1,0,1,0l0,-1c0,0,1,0,1,0c0,-1,0,-1,0,-1c0,0,0,-1,0,-1l-1,-7l1,-2l1,10c0,1,0,1,0,1l0,1c0,0,1,0,1,0l1,0l1,0l1,0c0,-1,0,-1,0,-1c0,0,0,-1,0,-1l1,0c0,0,0,1,0,1c0,0,0,1,1,1l1,0l1,0l1,0l1,0c0,0,1,-1,1,-1l1,0l1,0l1,-1l-1,0l-1,0c-1,-1,-2,-1,-2,-1c-1,0,-1,0,-1,0l-1,0l0,1l0,-1c0,-1,1,-1,1,-1c0,0,1,-1,1,-1l1,0l0,1c1,0,1,0,1,0c1,1,2,1,4,1c0,0,1,0,2,0c0,1,1,1,1,1l1,0l-1,1l-1,0l-1,0c0,0,0,1,1,1l1,0l1,0l1,0l1,0c0,0,1,0,1,0c0,0,1,0,1,0c0,-1,0,-1,0,-1c0,0,0,-1,1,-1l0,1c0,0,0,1,1,1l1,0l1,0c0,0,1,0,1,0c0,0,1,0,1,-1l1,-1l0,1l0,1c0,0,1,0,1,0c1,0,1,0,1,0c0,0,1,0,1,0c0,0,0,-1,0,-1l1,0c0,0,0,-1,0,-1l0,-1l0,1l0,1c0,0,1,0,1,0c0,0,0,1,0,1l1,0l0,-1l0,-1c1,0,1,0,1,0l0,1l0,1l0,1c-1,1,-1,1,-1,1c0,0,-1,0,-1,0c0,-1,-1,-1,-1,-1l-1,0c0,0,-1,0,-1,1c-1,0,-1,0,-1,0l-1,0l0,-1c-1,0,-1,0,-1,0c0,-1,0,-1,0,-1ZM320.5,416.5c0,0,1,-1,1,-1l1,0c0,0,1,0,1,1l-1,1l0,1l1,0l0,1l-2,-1l0,1c-1,1,-1,1,-1,1l-1,0l-1,0l1,0l1,-1l1,-1l-1,0c0,-1,0,-1,0,-1c0,0,0,-1,0,-1ZM321.5,416.5l0,1l1,0l0,-1ZM312.5,436.5l-1,-1l1,-2l1,1ZM348.5,416.5c1,0,1,0,1,0c1,-1,1,-1,2,-1c0,0,1,0,1,1c0,0,1,0,1,0c-1,1,-1,1,-1,1c0,1,0,1,-1,1l-1,0l-1,0l1,0c1,0,1,-1,2,-1c0,0,-1,0,-1,0c0,0,-1,0,-1,0c0,0,-1,0,-1,0c0,0,-1,0,-1,0c0,0,0,-1,0,-1ZM198.5,415.5c0,0,1,0,1,0c1,0,1,-1,2,-1c0,0,1,1,1,1l0,1l0,1c0,0,-1,0,-1,0l-1,0l-1,0l-1,0l2,0c1,0,1,-1,2,-1c-1,0,-1,0,-1,0c0,0,-1,0,-1,0c0,0,-1,0,-1,0c0,0,-1,0,-1,0l0,-1ZM111.5,418.5c0,0,0,-1,1,-1l1,0c0,0,1,0,1,0c1,1,1,1,1,1c0,1,-1,1,-1,1c0,0,0,1,0,1c-1,0,-1,0,-1,0c-1,0,-1,0,-1,0l-1,0l1,0c1,-1,2,-1,2,-1c0,0,-1,0,-1,-1l-1,0l-1,1l-1,0c0,-1,0,-1,0,-1l1,0ZM310.5,421.5l1,0c0,-1,1,-1,1,-1c1,0,1,0,1,1c1,0,1,0,1,0c0,1,0,1,-1,1c0,1,0,1,0,1l-1,0c0,0,-1,0,-1,0l-1,0l2,0c0,0,1,-1,1,-1l-1,0c-1,0,-1,0,-2,0c0,0,0,-1,0,-1ZM292.5,427.5l-2,-1l1,-1l2,1ZM289.5,419.5l4,-2l-1,1l-4,2ZM277.5,427.5c0,1,0,1,0,1c-1,0,-1,0,-1,0c0,0,-1,0,-1,0l-1,0l-1,0c1,0,1,0,1,0c1,0,1,0,2,-1c0,0,1,0,1,0l0,-1l-1,0c0,0,-1,0,-1,0l0,-1l0,-1c0,0,1,0,1,-1c0,0,1,0,1,-1c0,0,1,0,1,0l-1,2c0,0,-1,0,-1,0c0,1,0,1,0,1c0,0,1,0,1,0c0,0,1,0,1,0c0,0,0,1,0,1c0,0,0,1,-1,1ZM270.5,422.5l1,0l3,-1l5,-2l5,-1l0,-1l1,0l-2,2l-1,0l-1,1l-1,0l-6,2l-4,1l0,1ZM357.5,416.5l4,-2c-1,1,-1,1,-1,1l-4,2ZM352.5,425.5l-1,-1l0,-1l2,1ZM352.5,432.5l-1,0l-1,0c-1,0,-1,-1,-1,-1c-1,0,-1,0,-1,-1c0,1,0,1,0,1c0,0,-1,0,-1,0c-1,1,-2,1,-2,1l-2,0c0,0,0,1,-1,1l-1,0l-1,0c-2,0,-3,0,-4,-1c-1,0,-2,0,-2,-1c-1,0,-1,0,-1,-1c0,0,0,-1,0,-1c0,-1,0,-1,0,-2c0,0,1,-1,1,-1c0,0,0,1,0,1c0,1,0,1,0,1c0,1,0,1,0,1c0,1,1,1,2,1c0,0,0,1,0,1c1,0,1,0,2,0c0,0,1,0,3,0c0,0,1,0,1,0c1,0,1,0,2,0l1,0c0,-1,0,-1,0,-1c1,0,2,0,3,-1c0,0,1,0,1,-1c0,0,0,1,0,1l0,1c1,0,1,0,1,0l1,0l1,0l1,0c1,0,1,0,1,-1c0,0,0,-1,0,-1c0,0,0,-1,-1,-1l1,-2c0,1,0,1,0,1c0,0,1,0,1,0c0,1,0,1,0,1l0,1l0,1l0,1c0,0,-1,0,-1,1l-1,1c-1,0,-1,0,-1,0ZM342.5,426.5l-1,-1l-1,2l-1,-1l0,-2l2,1l1,-1l1,1ZM340.5,419.5l4,-2l0,1l-4,2ZM374.5,430.5l0,1c0,0,-1,0,-1,0l1,0l1,0c0,0,-1,0,-1,0ZM375.5,433.5c0,0,-1,0,-1,0c0,0,-1,0,-1,0c0,0,-1,0,-2,0c0,0,-1,0,-1,0l0,-1c0,-1,0,-1,0,-1l1,0c1,0,1,0,1,0l1,-1c0,0,0,-1,1,-1c-1,0,-1,0,-1,-1c0,0,-1,0,-1,0c0,-1,-1,-2,-1,-2c0,0,-1,-1,-1,-2c-1,0,-1,0,-1,0c0,0,-1,-1,-1,-1l-1,0c0,0,-1,0,-1,-1l0,-1c0,0,0,-1,0,-1l1,0l1,1c0,0,1,0,1,1c1,1,2,1,2,2c1,1,1,1,2,2c0,1,0,1,1,1c0,1,0,1,0,1c0,0,0,-1,1,-1c0,-1,0,-1,0,-2c0,-1,0,-1,0,-2l0,-1c0,-1,0,-1,0,-2c0,-1,0,-1,0,-1c0,-1,0,-1,1,-1l0,1c0,0,0,1,1,1l-1,1c0,0,0,1,0,1c0,0,0,1,0,1c0,1,0,1,0,2l0,1c-1,0,-1,1,-1,2c0,0,0,1,0,1c0,1,0,1,0,1l0,1c0,1,0,1,0,1c0,0,0,1,0,1ZM370.5,417.5c-1,1,-2,1,-3,1l-1,0l-1,0l0,-1l-1,0c0,1,0,1,-1,1l1,-1l1,-1l1,1c0,0,1,0,1,0l1,0l1,-1l1,0ZM374.5,415.5l0,1c1,0,1,0,1,0c0,0,1,0,1,0l0,-1l0,-1l0,1c1,0,1,0,1,0c0,1,0,1,0,1c0,0,1,-1,1,-1l0,-1l0,-1l0,1l0,1l0,1c0,0,0,1,0,1l-1,0c0,0,-1,0,-1,0c-1,1,-1,1,-1,1c-1,0,-1,0,-1,-1l0,-1l0,-1ZM378.5,412.5l-4,2c0,0,0,-1,0,-1l4,-2ZM358.5,432.5l0,-1l1,-1l-1,-8l1,-3l0,11c0,1,0,1,0,1c0,1,0,1,-1,1ZM380.5,432.5l0,-2l0,-1l0,-8l0,-3l1,11c0,0,0,1,0,1c0,1,-1,1,-1,2ZM404.5,432.5l0,-1l0,-2l0,-8l0,-2l1,10c0,1,0,1,0,1l0,1c0,0,-1,1,-1,1ZM383.5,434.5l-4,2c0,-1,0,-1,0,-2l4,-1ZM406.5,434.5l-3,2c0,-1,0,-1,0,-1l4,-2ZM396.5,432.5c0,0,-1,0,-1,0c0,0,-1,-1,-1,-1l0,-1c-1,0,-1,-1,-1,-1c0,1,0,1,0,1c-1,0,-1,0,-1,0l-1,0c-1,0,-1,0,-1,0l-1,0l0,-1c0,-1,0,-1,1,-2c0,0,1,0,2,-1c0,0,1,-1,1,-1c0,0,0,-1,0,-1l0,-1l0,2c1,0,1,0,1,1l0,1l0,2c0,1,1,1,1,1c1,0,1,0,1,0c1,0,1,0,1,0c1,0,1,0,1,0c0,0,1,0,1,0c0,-1,0,-1,0,-1l0,-2l-1,-7c0,-1,0,-1,0,-1c1,-1,1,-1,1,-1c0,0,0,1,0,1c1,0,1,0,1,1l0,1c0,1,0,1,0,2c0,0,0,1,0,3c0,0,0,1,0,1l0,1c0,1,0,1,0,1l0,1c-1,0,-1,1,-1,1l-1,0c0,0,0,1,-1,1l-1,0ZM393.5,426.5l-1,1l-1,0c0,1,0,1,-1,1l1,0l1,0c1,0,1,0,1,0ZM390.5,419.5l4,-2l-1,1l-4,2ZM420.5,430.5l-1,0l0,1l1,0c0,-1,0,-1,0,-1ZM421.5,432.5c0,0,-1,0,-1,1c-1,0,-1,0,-1,0c-1,0,-1,0,-2,0c-1,0,-1,0,-1,0l0,-1c-1,0,-1,0,-1,0l1,-1c0,0,1,0,1,0l1,-1c0,0,1,0,1,-1c0,0,0,-1,0,-1c-1,0,-1,-1,-1,-1c-1,-1,-1,-1,-1,-1c-1,-1,-1,-1,-2,-2l-1,-1l-1,0c-1,0,-1,-1,-1,-1c0,-1,0,-1,0,-1l-1,0c0,0,0,-1,0,-1c0,0,1,0,1,0c0,-1,0,-1,0,-1c1,0,1,1,1,1c1,1,1,1,2,1c1,1,1,2,2,2c0,1,1,2,2,3l0,1c1,0,1,0,1,1c0,-1,0,-1,0,-2c0,0,0,-1,0,-1c1,-1,1,-2,1,-2c0,0,0,-1,0,-1c0,-1,-1,-2,-1,-2c0,0,0,-1,0,-1l0,-1c1,0,1,0,1,0c0,1,0,1,1,1c0,0,0,1,0,1c0,0,0,1,0,1c0,1,0,1,0,2c0,0,-1,1,-1,1c0,1,0,1,0,1c0,1,0,2,0,2c0,1,-1,1,-1,1c0,1,0,1,1,1c0,1,0,1,0,1c0,0,0,1,0,1c0,0,0,1,0,1ZM415.5,417.5c-1,0,-2,0,-3,0l-1,0l-1,0c0,0,-1,1,-1,1c0,0,0,-1,0,-1l1,-1c1,0,1,0,2,0l1,0l1,0l1,0l1,0ZM420.5,414.5l0,1l0,1c1,0,1,0,1,0c0,0,0,-1,0,-1l0,-1l1,0l0,1c0,0,1,0,1,0l0,-1l1,-1l0,1l0,1l0,1c0,0,-1,0,-1,0l-1,0l-1,1l-1,0l-1,0l0,-1l0,-1l1,0ZM424.5,412.5l-5,2c1,-1,1,-1,1,-1l4,-2ZM67.5,408.5l-1,1c1,0,1,0,1,0c1,0,1,0,1,0c0,-1,0,-1,0,-1c-1,0,-1,0,-1,0ZM68.5,410.5c-1,1,-7,1,-7,0c1,0,1,-1,1,-1c1,0,1,0,1,0c0,-1,0,-1,0,-1l0,-2l0,-1l0,3l0,1c0,0,1,0,1,0l1,0l0,-1l0,1l1,0l1,-1c1,0,1,0,1,0l1,0c0,0,0,1,-1,1c0,0,-1,0,-1,0c0,0,-1,0,-1,0l0,1l-1,0c0,-1,0,-1,0,-1c0,0,-1,0,-1,0c-1,0,-1,0,-1,0l-1,0c0,0,0,1,0,1c1,1,4,0,6,0ZM259.5,423.5c0,0,-1,0,-1,0l-1,0l1,0c0,0,1,0,1,0c0,0,1,0,1,0l-1,0ZM260.5,425.5l-1,0c-1,0,-7,0,-6,-1c0,0,1,0,1,-1l1,0c0,0,0,-1,0,-1l-1,-2l1,-1l0,4l1,0l1,0l1,-1c0,0,1,0,1,0l1,0l0,1c0,0,-1,1,-1,1l-1,0l-1,0l0,1l0,-1c-1,0,-1,-1,-1,-1c0,0,0,1,0,1l-1,0c0,0,0,-1,0,-1c0,0,0,1,-1,1l-1,0c2,1,4,0,6,0ZM133.5,411.5c0,-1,0,-1,0,-2c0,-1,0,-1,0,-2l0,-1c0,1,1,1,1,1c0,1,0,1,0,1l0,1l0,1c0,1,0,1,-1,1ZM132.5,413.5l0,1c0,1,1,1,1,1l0,-1l1,0l0,-1l0,-1l0,1c0,0,1,1,1,1c0,0,1,-1,1,-1l0,-1l0,1l0,1c0,1,0,1,-1,1c0,0,-1,0,-1,0c-1,1,-1,1,-1,1c-1,0,-1,0,-1,0c0,0,0,-1,0,-1c0,0,0,-1,0,-1l0,-1ZM258.5,427.5l-1,0l0,-1l0,1l1,-1l0,1ZM255.5,429.5l1,-1l0,1c0,0,-1,0,-1,0c0,0,1,0,1,1c1,0,1,0,1,0l1,0l0,-1l0,-1c0,1,0,1,0,1c-1,0,-1,0,-1,0c0,-1,0,-1,0,-1c0,-1,1,-1,1,-1c0,1,0,1,0,1c0,0,0,1,0,1l0,1l-1,0l-1,0c0,0,-1,0,-1,0ZM66.5,415.5l-1,-1l1,0Z" class="g3_6" />
<path fill-rule="evenodd" d="M61.5,579.5l-1,0l0,-1c0,0,-1,0,-1,0l-1,0c0,0,0,-1,0,-1l0,-1l0,-1c0,-1,1,-1,1,-1c0,0,0,-1,1,-1l-1,0l-1,0l1,0l1,0c0,0,1,0,1,0c0,0,1,0,1,0l-1,0l-1,0c0,0,0,1,0,1c0,0,-1,0,-1,0c-1,1,-1,1,-1,1c0,0,0,1,0,1c0,0,0,1,0,1l1,0c0,0,0,1,0,1c1,0,1,0,1,0l1,0c1,0,1,0,1,0l1,0ZM315.5,575.5l1,0c0,0,1,0,1,0c1,0,1,0,1,0c1,0,1,0,1,0c0,0,0,1,0,1l-1,1c0,0,-1,0,-1,0c0,0,-1,1,-1,1l-1,0c0,0,0,-1,0,-1l2,0c0,0,1,-1,1,-1l-1,0c-1,0,-1,0,-2,0c0,-1,0,-1,0,-1ZM354.5,576.5c0,-1,0,-1,1,-1c0,-1,0,-1,0,-1l1,0c0,1,0,1,0,1c0,1,0,1,0,1l0,1l0,2l-1,-1l-1,1c0,0,0,1,-1,1l-1,0l0,-1l1,0c0,0,1,0,1,-1l1,0l-1,0l0,-1l0,-1ZM355.5,576.5l0,-1c0,0,0,1,0,1l0,1l0,-1ZM275.5,574.5l0,-1c0,0,0,-1,0,-1c0,-1,-1,-1,-1,-2l1,0l0,-1c0,0,0,1,0,1c0,1,0,1,0,1l0,1c0,0,0,1,0,1c0,0,0,1,0,1ZM197.5,575.5l1,0c0,-1,-1,-1,-1,-2c0,-1,0,-1,0,-2c1,0,1,0,1,1l0,1c0,0,0,1,0,1c0,1,0,1,-1,1ZM88.5,578.5l0,-1c0,0,0,-1,0,-1c0,-1,0,-2,-1,-2l1,-1c0,0,0,1,0,1c0,0,1,1,1,1l0,1l0,1l-1,0c0,0,0,1,0,1ZM121.5,584.5c0,0,-1,0,-1,0l0,1l1,0c0,-1,0,-1,0,-1ZM121.5,592.5c0,0,-1,0,-1,0l-1,0c0,1,-1,1,-1,1l-1,0c0,0,-1,0,-1,-1c0,0,-1,0,-1,0c0,0,1,0,1,0c1,0,1,0,1,0c1,0,1,0,1,0c0,0,0,-1,0,-1c1,0,1,0,1,0c1,0,1,0,1,-1c1,0,1,0,1,-1l1,-1c0,0,0,-1,0,-1c0,0,0,-1,0,-1l0,1l-1,0c-1,0,-1,0,-1,0l-1,0c0,-1,0,-1,0,-1c0,-1,0,-1,0,-1c0,0,0,-1,0,-1c0,0,1,-1,1,-1c0,0,0,-1,0,-1c1,0,1,0,1,0c0,0,1,0,1,0c0,0,0,1,0,1c1,0,1,0,1,1l0,1c0,0,0,1,0,1c0,0,0,1,0,1c0,1,0,2,-1,3l0,1c-1,0,-1,0,-1,1ZM118.5,578.5l4,-2l0,1l-4,2ZM114.5,588.5l0,-1l0,-1l-1,-9l1,-2l1,11c0,0,0,1,0,1c-1,0,-1,1,-1,1ZM106.5,586.5c1,0,1,0,1,0c1,0,1,0,1,0c0,0,1,0,1,0c0,0,0,-1,0,-1l0,-2l-1,-6c0,0,0,-1,0,-1c0,0,0,-1,0,-1c1,0,1,-1,1,-1l0,1c0,0,1,1,1,1l0,1l0,1l-1,-1c0,0,0,1,0,1c0,0,0,1,1,2l0,2c0,1,0,1,0,1l0,1c0,1,0,1,0,1c0,0,0,1,0,1l-1,0c0,1,0,1,0,1c0,0,-1,0,-1,1l-1,0l-1,0l-1,0l0,-1l-1,0c0,-1,0,-1,0,-1c-1,1,-1,1,-1,1c-1,0,-1,1,-1,1c-1,0,-2,-1,-2,-2l0,1c-1,1,-1,1,-2,1c-1,0,-1,-1,-2,-2c0,1,0,1,0,1c-1,1,-1,1,-2,1l-1,0c-1,0,-1,0,-2,0l0,1c0,1,0,1,0,1c0,1,0,1,0,2c-1,1,-1,1,-2,1l-1,0c0,-1,0,-1,-1,-2c0,-1,0,-2,0,-3l-1,0c0,0,-1,0,-1,0l-1,0l-1,0c-1,0,-1,0,-1,-1l-1,0c0,-1,0,-1,0,-1c0,1,0,1,0,1l-1,0c0,0,-1,1,-1,1c-1,0,-1,0,-2,0l-1,0c0,0,-1,0,-1,-1l0,-1l0,-1l1,0l0,1l1,0l1,0c1,0,1,0,1,0l1,0c0,-1,0,-1,0,-1c0,0,1,0,1,0c0,0,0,-1,0,-2l-1,-1l0,-1l1,-1l0,-1l0,1c0,0,1,1,1,2l0,2c0,0,0,1,0,1c0,1,0,1,1,1l1,0l1,0l1,0l1,0c0,0,0,-1,1,-1l0,-1c0,-1,0,-1,0,-1c1,-1,2,-2,3,-2l0,1l0,1c0,1,0,1,0,2c-1,0,-1,1,-2,2l1,0l1,-1l1,0l1,0l1,0l1,0c1,0,1,-1,2,-2l0,1c0,1,0,1,1,1c0,0,1,0,1,0c1,0,1,-1,1,-1l1,-1c0,1,0,1,0,1c0,1,1,1,1,1c0,0,1,0,1,0c0,-1,0,-1,0,-1c0,0,1,0,1,-1c0,2,1,2,2,2ZM99.5,580.5l-1,-1l0,-2l2,1ZM101.5,582.5l-2,-1l-1,2l-1,-1l1,-2l1,1l1,-1l1,1ZM97.5,570.5l0,1l1,0c0,0,1,0,1,0l0,-1c0,0,0,1,0,1c0,0,1,0,1,0c0,0,0,-1,0,-1l0,-1l1,0l0,1l0,1c-1,0,-1,1,-1,1l-1,0c-1,0,-1,1,-1,1c0,0,-1,-1,-1,-1l0,-1l0,-1ZM102.5,567.5l-6,3c0,-1,1,-1,1,-1l5,-3ZM90.5,583.5c0,0,-1,0,-1,0l0,1l-1,1l0,1c1,-1,1,-1,2,-1c0,0,1,-1,1,-1c0,0,-1,-1,-1,-1ZM87.5,588.5c0,0,1,1,1,1c0,1,0,1,1,2l1,0l1,0c0,-1,-1,-1,-1,-2c-1,0,-2,-1,-3,-1ZM77.5,575.5l4,-2l-1,0l0,1l-4,2ZM71.5,580.5l-2,-1l-1,1l-1,-1l1,-1l1,1l1,-1l1,0ZM69.5,588.5c0,0,-1,0,-1,0c-1,-1,-1,-1,-1,-2c0,0,0,-1,0,-1l1,-1l0,-1l1,-1c0,-1,0,-1,1,-1l1,1c0,0,1,1,1,1l0,1l0,1c0,1,0,2,-1,3c-1,0,-1,0,-2,0ZM69.5,584.5l-1,0l0,1l0,1l1,0l1,0l1,0c0,0,0,-1,0,-1l0,-1c-1,0,-1,0,-2,0ZM71.5,596.5l-4,2c0,-1,1,-1,1,-1l4,-2ZM169.5,588.5l0,-1l0,-1l-1,-9l1,-2l1,11c0,0,0,1,0,1c-1,0,-1,1,-1,1ZM161.5,586.5c1,0,1,0,1,0c1,0,1,0,1,0c0,0,1,0,1,0c0,0,0,-1,0,-1l0,-2l-1,-6c0,0,0,-1,0,-1c0,0,0,-1,0,-1c1,0,1,-1,1,-1l0,1c0,0,1,1,1,1l0,1l0,1l-1,-1c0,0,0,1,0,1c0,0,0,1,1,2l0,2c0,1,0,1,0,1l0,1c0,1,0,1,0,1c0,0,0,1,0,1l-1,0c0,1,0,1,0,1c0,0,-1,0,-1,1l-1,0l-1,0c-1,0,-1,0,-1,0c-1,0,-1,0,-1,-1c-1,0,-1,0,-1,0l-1,-1c0,1,0,1,-1,1c0,0,-1,0,-1,1c0,0,-1,0,-1,0l-1,0l-1,0l-1,0c0,0,-1,-1,-1,-1l-1,0c-1,0,-1,1,-2,1l-1,0c-1,0,-1,0,-1,-1c0,0,-1,0,-1,0c0,0,-1,0,-1,0c-1,1,-2,1,-2,1l-2,1l-1,0l-1,0l-1,0c-2,0,-3,0,-4,0c-1,-1,-2,-1,-2,-2c-1,0,-1,0,-1,-1c0,-1,0,-1,0,-1c0,-1,0,-1,0,-1c0,-1,1,-1,1,-2l0,1c0,1,0,1,0,1c0,1,0,1,0,1c0,1,1,1,2,2c1,0,1,0,2,0c0,0,1,0,3,0c0,0,1,0,1,0c1,0,1,0,2,0l1,0l0,-1c1,0,2,0,3,0c0,-1,1,-1,1,-2c0,1,0,1,0,1l0,1c1,0,1,0,1,0l1,0l1,0l1,0c0,0,0,-1,0,-1c1,0,1,0,1,0c0,0,1,0,1,0c0,1,0,1,0,1c0,0,1,0,1,0l1,0c0,0,1,0,1,0c1,0,1,0,1,0c1,0,1,0,1,-1l-1,0c0,0,0,-1,0,-1c-1,0,-1,0,-1,0l0,-1c0,0,1,0,1,-1c0,0,1,0,1,0c0,0,1,0,1,0c0,0,1,0,1,0c0,0,1,0,1,0c0,1,0,1,0,1c0,0,1,0,1,1c0,0,-1,0,-1,0c0,1,0,1,-1,1c0,1,1,1,1,1l1,0c0,0,1,0,1,0ZM161.5,570.5c1,0,1,0,1,0c1,-1,1,-1,2,-1c0,0,1,0,1,1c0,0,1,0,1,0l0,1c-1,0,-1,0,-1,0c0,1,0,1,-1,1c-1,0,-1,0,-1,0l-1,0l1,0c1,0,1,-1,2,-1c0,0,-1,0,-1,0l-1,0c0,0,-1,0,-1,0l-1,0l0,-1ZM157.5,580.5l-1,-1l0,-1l2,1ZM154.5,575.5l4,-2l0,1l-4,2ZM151.5,591.5l-2,-1l0,1l-2,0l1,-2l2,1l0,-1l2,1ZM147.5,570.5l1,0c0,-1,1,-1,1,-1c1,0,1,0,1,1c1,0,1,0,1,0l0,1l-1,0c0,1,0,1,0,1c0,0,-1,0,-1,0c0,0,-1,0,-1,0l-1,0l2,0c0,0,1,-1,1,-1l-1,0c-1,0,-1,0,-2,0l0,-1ZM137.5,593.5l-2,-1l1,-2l2,1ZM138.5,595.5l-4,2c0,-1,0,-1,0,-1l4,-2ZM204.5,585.5c-1,0,-2,0,-3,1c-1,0,-2,1,-3,1c-1,1,-2,1,-3,1l-1,0c0,0,-1,0,-1,0c0,-1,-1,-1,-1,-2c0,1,0,1,-1,1c0,1,0,1,0,1l-1,0c-1,0,-2,0,-2,0c0,-1,0,-1,-1,-1c0,1,0,1,0,2l-1,0c0,0,-1,0,-1,-1c-1,0,-1,0,-2,-1l0,1l0,1c0,0,-1,0,-1,1c-1,0,-1,0,-2,1c-2,0,-3,0,-4,0l4,-2l2,-1l1,-1l1,-2c0,0,0,-1,0,-1c1,0,1,0,1,0l1,0l1,1c0,0,1,1,1,1c0,0,1,0,1,0l1,0c1,0,1,0,2,-1c0,0,0,-1,0,-1l0,-1l-1,-7l1,-2l1,11c0,0,0,1,0,1c0,0,1,0,1,0l1,0c1,0,1,0,1,0c0,0,1,0,1,0c0,-1,0,-1,-1,-1c0,-1,0,-1,0,-2c0,-1,0,-1,1,-1l0,-1c0,0,1,-1,1,-1l1,0l1,0c0,0,1,0,1,0c1,0,1,0,1,1c0,0,1,0,1,0l-1,0l-1,0l-1,0l-1,0c-1,0,-1,0,-1,0c0,1,0,1,-1,1c0,0,0,1,1,1l0,1c1,0,1,1,2,1c0,0,1,0,1,0c0,-1,1,-1,1,-1l1,0l1,-1ZM193.5,594.5l-4,2c0,-1,0,-1,0,-1l4,-2ZM186.5,587.5l0,-1c0,-1,-1,-1,-1,-1c-1,0,-1,1,-1,1c0,0,1,0,1,0l1,1ZM183.5,576.5c0,-1,0,-1,1,-1c0,-1,0,-1,0,-1c1,0,1,0,1,0c0,1,0,1,0,1c0,1,0,1,0,1l0,1l0,2l-1,-1l-1,1c0,0,0,1,-1,1l-1,0l0,-1l1,0l1,-1l0,-1l0,-1ZM184.5,576.5l0,-1c0,0,-1,1,-1,1l1,0l0,1l0,-1ZM234.5,587.5l-1,0l-1,0c0,0,-1,0,-1,0l-1,0c0,0,-1,0,-1,0l-1,1l-1,0l-1,0l-1,0l-1,0c0,0,0,1,0,1c0,0,0,1,-1,1c0,1,0,1,0,1c-1,1,-1,1,-1,1c0,1,-1,1,-1,1l-1,0c-1,0,-1,0,-1,0l-1,0c0,0,-1,0,-1,0c0,0,-1,0,-1,0c0,-1,0,-1,0,-1c0,0,1,0,1,0c1,0,1,0,2,0c0,0,1,0,1,0c0,-1,1,-1,1,-1c0,0,1,-1,1,-1l0,-1c1,0,1,0,1,0c0,0,0,-1,0,-1c0,0,-1,0,-1,0l-1,0c0,-1,-1,-1,-1,-1c0,-1,0,-1,0,-1l0,-1l1,0c0,0,0,-1,0,-1c1,-1,1,-1,1,-1c1,0,1,0,1,0c0,0,0,1,0,1c1,0,1,0,1,1c0,1,0,1,0,1c1,0,1,0,1,0c1,0,1,0,1,0l1,0c1,0,1,0,1,0c0,0,0,-1,0,-1c0,0,0,-1,0,-1l0,-1l1,0c0,-1,0,-1,0,-1c0,0,0,-1,0,-1c0,0,1,-1,1,-1c1,0,1,0,2,1c1,0,1,1,2,1c0,1,0,1,1,2l0,1c0,1,0,1,0,1l0,1l-1,0ZM230.5,583.5c0,0,-1,0,-1,1l0,1c0,0,1,0,1,0c0,0,1,0,1,0c0,-1,0,-1,0,-1c0,0,0,-1,0,-1c0,0,-1,0,-1,0ZM232.5,583.5l0,1c0,1,0,1,0,1l2,1c0,0,0,-1,0,-1c0,0,-1,0,-1,-1c-1,0,-1,-1,-1,-1ZM227.5,569.5c0,-1,0,-1,1,-1c0,0,0,-1,0,-1c1,1,1,1,1,1l0,1l0,1l0,1l0,1l-1,-1l0,1l-1,0c0,1,0,1,-1,1l-1,0l1,-1l1,0l0,-1l0,-1l0,-1ZM228.5,569.5c0,0,-1,0,-1,0l1,0l0,1l0,-1ZM222.5,585.5c0,0,-1,0,-1,0c0,0,0,1,0,1c0,0,1,0,1,0l1,0c0,0,0,-1,0,-1l-1,0ZM218.5,578.5l5,-2l-1,1l-4,2ZM260.5,590.5l-4,2c0,-1,1,-1,1,-1l3,-2ZM252.5,586.5l-1,1l0,1l0,-1c0,0,1,0,1,0ZM253.5,589.5c0,0,-1,0,-1,0c-1,0,-1,0,-1,0c-1,0,-1,0,-2,0c0,0,-1,0,-1,0c0,-1,0,-1,0,-1c1,0,1,0,1,0c0,-1,1,-1,1,-1c1,-1,1,-1,1,-1l0,-1l0,-1c-1,0,-1,0,-1,0c0,-1,-1,-1,-1,-2c-1,0,-1,-1,-2,-1c0,-1,0,-1,0,-1c-1,0,-1,0,-1,-1c0,0,0,1,0,1c-1,0,-1,0,-1,0c-1,-1,-1,-1,-1,-2c0,-1,0,-1,0,-1l0,-1c1,0,1,0,2,1c0,0,1,1,1,1c1,1,1,2,2,2c1,1,1,1,2,2c0,1,0,1,0,1c1,1,1,1,1,1l0,-1c0,-1,1,-1,1,-2c0,-1,0,-1,0,-2l0,-1c0,0,0,-1,0,-1c0,0,0,-1,-1,-1c0,0,1,-1,1,-1c0,0,0,-1,0,-1l0,1c1,0,1,0,1,0c0,1,0,1,1,1c0,0,-1,0,-1,1l0,1l0,-1c0,1,0,1,0,1c0,0,0,1,0,2l0,1c0,0,0,1,-1,1c0,1,0,1,0,2c0,0,0,1,-1,1c1,0,1,0,1,1c0,0,0,1,0,1l0,1c0,1,0,1,0,1ZM249.5,572.5l0,1c1,0,1,0,1,0l1,-1l0,-1l0,1l1,0l0,-1l1,0c0,1,0,1,0,1l-1,1l0,1l-1,0c0,0,0,-1,0,-1l0,1c-1,0,-1,0,-1,0c-1,0,-1,0,-1,0l0,-1l0,-1ZM253.5,569.5l-5,3c0,-1,0,-1,1,-1l5,-3ZM258.5,588.5l0,-1l0,-1l-1,-9l1,-2l1,11c-1,0,-1,1,-1,1c0,0,0,1,0,1ZM282.5,588.5l0,-1l0,-1l0,-9l1,-2l0,11c0,0,0,1,0,1c0,0,0,1,-1,1ZM285.5,590.5l-4,2c0,-1,1,-1,1,-1l3,-2ZM275.5,586.5l1,0c1,0,1,0,1,0c0,0,0,-1,0,-1l0,-2l0,-6c0,0,0,-1,0,-1c-1,0,-1,0,-1,0c0,0,1,-1,1,-1c0,0,0,-1,0,-1l0,1l1,0c0,0,0,1,1,1c-1,0,-1,0,-1,1l0,1l0,-1c0,0,0,1,0,1c0,0,0,1,0,2l0,2c0,1,0,1,0,1l0,1c0,1,0,1,0,1c0,0,0,1,0,1c0,1,0,1,-1,1l0,1c-1,0,-1,0,-1,0c-1,0,-1,0,-1,0l-1,0c-1,0,-1,0,-1,0c-1,0,-1,0,-1,-1c0,0,-1,0,-1,-1c0,0,0,-1,0,-1l0,1c0,0,-1,0,-1,0l-1,0c-1,0,-1,0,-2,0l0,-1c0,-1,0,-1,1,-2c0,0,1,0,2,-1l0,-1l0,-1l1,0l0,1l1,1l0,1l0,2l0,1l1,0c0,0,1,0,1,0ZM271.5,583.5l-1,0l-1,0l0,1c0,0,-1,0,-1,0l1,0l1,0c0,0,1,0,1,0ZM267.5,575.5l5,-2l-1,0l0,1l-4,2ZM301.5,586.5l-1,1l-1,1c1,0,1,0,1,-1l1,0ZM302.5,589.5c-1,0,-1,0,-2,0l-1,0c0,0,-1,0,-1,0c-1,0,-1,0,-1,0c-1,0,-1,0,-1,0c0,-1,0,-1,0,-1l1,0l1,0c0,-1,0,-1,0,-1c1,0,1,0,1,0c0,-1,0,-1,1,-1l0,-1l-1,-1c-1,-1,-1,-1,-2,-2c0,0,0,-1,-1,-1c0,-1,-1,-1,-1,-1l0,-1c-1,0,-1,1,-1,1l-1,0c0,-1,0,-1,0,-2c-1,0,-1,0,-1,0c0,-1,0,-1,0,-1l0,-1l1,0c0,0,1,0,1,1c1,0,1,1,2,1c0,1,1,2,2,2c0,1,1,1,1,2c1,1,1,1,1,1c0,1,1,1,1,1l0,-1c0,-1,0,-1,0,-2c0,-1,0,-1,0,-2l0,-1c0,0,0,-1,0,-1c0,0,0,-1,0,-1c0,0,0,-1,0,-1c0,0,1,-1,1,-1l0,1c1,1,1,1,1,1l0,1l0,1l-1,-1c0,1,0,1,0,1c0,0,0,1,0,2l0,1c0,0,0,1,0,1c0,1,0,1,0,2c-1,0,-1,1,-1,1l0,1l1,0c0,0,0,1,0,1l0,1c0,1,0,1,0,1ZM300.5,572.5l4,-2l0,1l-4,2ZM297.5,573.5c-1,1,-2,1,-2,1l-1,0l-1,0c0,0,-1,0,-1,-1c0,1,-1,1,-1,2l0,-1l0,-1l1,-1c1,0,1,1,2,1c0,0,1,0,1,0l1,0l1,0l0,-1l1,0ZM344.5,588.5l0,-1l0,-1l-1,-9l1,-2l1,11c0,0,0,1,0,1c-1,0,-1,1,-1,1ZM337.5,589.5c0,-1,0,-1,-1,-1c0,-1,0,-1,0,-1c0,0,-1,-1,-1,-1c0,1,0,1,-1,1c0,0,-1,1,-1,1c-1,0,-1,0,-2,0l-1,0c-1,0,-1,-1,-1,-1c0,-1,0,-1,0,-1l0,-1c0,0,1,0,1,0c0,1,0,1,0,1c1,0,1,0,1,0l1,0l1,0c1,0,1,0,1,-1c0,0,1,0,1,0c0,0,0,-1,0,-2c0,0,0,-1,0,-1c-1,-1,-1,-1,-1,-1c1,-1,1,-1,1,-1c0,-1,0,-1,0,-1l1,1c0,0,0,1,0,2c0,0,0,1,0,2c0,0,0,1,0,1c0,1,0,1,0,1c1,0,1,0,1,0c0,1,0,1,0,1c0,0,1,1,1,1c0,0,1,0,1,0c0,-1,0,-1,0,-1c0,0,0,-1,0,-2c0,-1,0,-1,0,-2c0,-1,0,-1,0,-1c0,-1,0,-2,0,-3c0,-1,0,-2,0,-2c0,0,0,-1,0,-1c-1,0,-1,0,-1,0c0,0,1,-1,1,-1c0,0,0,-1,0,-1c0,1,0,1,0,1c0,0,1,0,1,0c0,0,0,1,1,1l-1,1l0,1l0,-1c0,0,0,1,0,1c0,0,0,1,0,2l0,2c0,1,0,1,0,1c0,1,0,1,0,2c0,1,0,2,0,2l0,1l0,1c0,0,-1,0,-1,0c0,1,0,1,0,1c-1,0,-1,-1,-2,-1ZM338.5,570.5l0,1c1,0,1,0,1,0l0,-1l1,0l0,-1l0,1l1,0l0,-1l1,0c0,0,0,1,0,1l-1,0l0,1l0,1l-1,-1l0,1l-1,0c-1,0,-1,0,-1,0l0,-1l0,-1ZM342.5,567.5l-5,3c0,-1,0,-1,1,-2l5,-2ZM334.5,577.5l-1,-1l0,-1l2,1ZM332.5,591.5l-4,2c0,0,0,-1,1,-1l4,-2ZM325.5,582.5c0,-1,0,-1,0,-1c0,0,-1,0,-1,0l-1,0c0,0,-1,1,-2,1c0,1,-1,2,-1,2c0,0,1,1,1,1c0,0,1,0,1,0l1,0c1,1,2,1,2,1l0,1l0,1l-1,0c0,1,0,1,-1,1c0,1,-1,1,-1,1c-1,1,-2,1,-3,1c0,0,-1,0,-2,0c-1,0,-2,0,-2,0c-1,0,-1,0,-2,-1c0,0,-1,0,-1,-1c0,0,0,-1,0,-1c0,0,0,-1,0,-1c0,0,0,-1,0,-2c0,0,1,-1,1,-1c0,-1,0,-1,0,-1l1,-1l0,1c0,1,0,1,-1,1c0,0,0,1,0,1c0,1,0,1,0,1c0,0,0,1,0,1l0,1l1,1c1,0,2,1,3,1c1,0,2,-1,3,-1l2,0l0,-1c1,0,1,0,1,0c0,0,1,0,1,-1l-2,0c-1,0,-1,0,-2,-1c-1,0,-1,0,-1,-1l0,-1c0,0,1,0,1,-1c0,0,0,-1,0,-1c1,0,1,0,1,0l0,-1c0,0,1,0,1,-1c0,0,1,0,1,0c1,-1,1,-1,2,-1l1,0c0,0,0,1,0,1c0,0,0,1,0,1l-1,1ZM370.5,588.5l0,-1l0,-1l-1,-9l1,-2l1,11c-1,0,-1,1,-1,1c0,0,0,1,0,1ZM365.5,587.5c0,1,0,1,0,1c-1,0,-1,-1,-2,-1c0,0,-1,-1,-1,-2c0,1,0,2,0,2c-1,1,-1,1,-2,1c-1,0,-1,0,-2,-1c0,0,0,-1,-1,-2c0,1,0,1,0,1l-1,1l-1,0c-1,0,-1,0,-1,0c-1,-1,-1,-1,-1,-1c0,-1,0,-1,0,-1c1,-1,1,-1,1,-1c1,-1,1,-1,2,-1l1,-1l0,-1l0,-1c1,0,1,0,1,0l0,1l0,1l0,2c0,1,0,1,0,1c1,0,1,0,1,1c0,0,1,0,1,0c0,0,1,0,1,0c0,-1,1,-1,1,-1c0,-1,0,-2,0,-3c0,0,0,-1,-1,-1c0,-1,0,-1,0,-1l0,-1l1,-1l0,2l1,2l0,1l0,1c0,0,0,1,0,1c0,0,1,0,1,0l1,1c0,0,1,0,1,-1c0,-1,0,-1,0,-1l-1,-2l0,-1l0,-1c0,-1,0,-1,0,-1l0,-1c0,0,1,1,1,1c0,1,0,1,0,1l0,2c0,1,1,2,1,2c0,1,-1,1,-1,2c0,0,0,1,0,1c-1,0,-1,0,-1,0ZM357.5,583.5c-1,0,-1,0,-1,0c0,1,0,1,0,1c-1,0,-1,0,-1,1c0,0,1,0,2,0c0,0,0,-1,0,-1ZM395.5,587.5c-1,0,-1,0,-2,0c0,0,-1,0,-1,0l-1,0c0,0,-1,0,-1,0l-1,1l-1,0c-1,0,-1,0,-1,0l-2,0c0,0,0,1,0,1c0,0,0,1,-1,1c0,1,0,1,0,1c-1,1,-1,1,-1,1c0,1,-1,1,-1,1l-1,0c-1,0,-1,0,-1,0l-1,0c0,0,-1,0,-1,0c0,0,-1,0,-1,0c0,-1,0,-1,0,-1c0,0,1,0,1,0c1,0,1,0,2,0c0,0,1,0,1,0c1,-1,1,-1,1,-1c0,0,1,-1,1,-1l0,-1c1,0,1,0,1,0c0,0,0,-1,0,-1l-1,0c-1,0,-1,0,-1,0c0,-1,-1,-1,-1,-1c0,-1,0,-1,0,-1l0,-1l1,0c0,0,0,-1,0,-1c1,-1,1,-1,1,-1c1,0,1,0,1,0c0,0,0,1,1,1l0,1c0,1,0,1,0,1c1,0,1,0,1,0c1,0,1,0,1,0c0,0,1,0,1,0c1,0,1,0,1,0c0,0,0,-1,0,-1c0,0,0,-1,0,-1l0,-1c0,0,1,0,1,0c0,-1,0,-1,0,-1c0,0,0,-1,0,-1c1,0,1,-1,1,-1c1,0,1,0,2,1c1,0,1,1,2,1c0,1,0,1,1,2l0,1c0,1,0,1,0,1l0,1l-1,0ZM391.5,583.5c0,0,-1,0,-1,1l0,1c1,0,1,0,1,0c0,0,1,0,1,0c0,-1,0,-1,0,-1c0,0,0,-1,0,-1l-1,0ZM393.5,583.5l0,1c0,1,0,1,0,1l2,1c0,0,0,-1,0,-1c0,0,-1,0,-1,-1c-1,0,-1,-1,-1,-1ZM388.5,569.5c0,-1,0,-1,1,-1c0,0,0,-1,0,-1l1,0c0,1,0,1,0,1l0,1l0,1l0,1l0,1l-1,-1l0,1l-1,0c0,1,0,1,-1,1l-1,0l1,-1l1,0l0,-1l1,0l-1,0l0,-1l0,-1ZM389.5,569.5l-1,0c0,0,1,0,1,0l0,1l0,-1ZM383.5,585.5l-1,0c0,0,0,1,0,1c0,0,1,0,1,0l1,0c0,0,0,-1,0,-1l-1,0ZM379.5,578.5l5,-2l-1,1l-4,2ZM361.5,571.5l0,-1c0,0,0,-1,0,-1c0,-1,0,-2,0,-2l0,-1l1,1c0,0,0,1,0,1l0,1c0,0,0,1,0,1c0,0,-1,0,-1,1ZM360.5,573.5l0,1l1,0l0,-1l1,0l0,-1l0,1c1,0,1,0,1,0l1,-1l0,-1l0,1l0,1l0,1l-1,1l-1,0l0,-1l0,1c-1,0,-1,1,-2,1c0,0,0,-1,0,-1l0,-1l0,-1ZM211.5,578.5l-1,0l1,-1l0,1ZM211.5,581.5l-1,0l-1,-1l-1,0l0,-1l0,-1c0,-1,0,-1,0,-1c1,0,1,-1,1,-1c0,0,1,0,1,-1l-1,0l-1,0l1,0l1,0c1,0,1,0,1,0c1,0,1,0,1,0l-1,0l0,1l-1,0l-1,0c0,0,0,1,0,1l-1,0c0,1,0,1,0,1c0,1,0,1,1,1c0,1,0,1,1,1c0,0,1,0,1,0l1,0l1,0ZM61.5,576.5l-1,0l0,-1l1,0Z" class="g3_6" />
</svg>