<?xml version="1.0" encoding="UTF-8" standalone="no"?>
<!DOCTYPE svg PUBLIC "-//W3C//DTD SVG 1.1//EN"
"http://www.w3.org/Graphics/SVG/1.1/DTD/svg11.dtd">
<svg version="1.1" xmlns="http://www.w3.org/2000/svg" xmlns:xlink="http://www.w3.org/1999/xlink">
<defs>
<style type="text/css"><![CDATA[
.g2_75{
stroke: #1F1A17;
stroke-width: 1;
stroke-linecap: butt;
stroke-linejoin: miter;
}
.g1_75{
fill: #1F1A17;
stroke: #1F1A17;
stroke-width: 1;
stroke-linecap: butt;
stroke-linejoin: miter;
}
]]></style>
</defs>
<path fill-rule="evenodd" d="M247.5,172.5c0,2,-1,4,-1,4l0,-12c0,0,0,-1,1,-2ZM221.5,165.5c0,1,-1,1,-3,2c1,-1,1,-1,2,-1c0,0,0,-1,0,-1c0,0,-1,0,-1,0c0,0,-1,0,-1,-1c0,0,1,0,1,0c1,0,1,0,2,0c0,0,0,1,0,1ZM228.5,178.5c0,0,0,1,-1,1l-3,2c0,-1,0,-1,0,-1c0,0,1,0,1,0ZM234.5,165.5l-1,0l-3,2c0,0,1,-1,1,-1ZM242.5,160.5c0,1,-1,2,-3,2c1,0,1,0,2,-1l0,-1c0,0,-1,0,-1,0c0,0,-1,0,-1,0c0,0,1,-1,1,-1l1,0l1,0c0,1,0,1,0,1ZM217.5,162.5l0,1l-1,0c-1,1,-2,1,-2,1c0,0,-1,0,-1,0c1,0,1,-1,2,-1c0,-1,0,-1,0,-1c0,-1,0,-1,0,-2c0,0,1,0,1,0c0,0,1,0,1,1l-1,1c0,0,1,0,1,0ZM216.5,161.5l-1,0l1,1c0,0,0,-1,0,-1ZM248.5,158.5c0,1,0,1,0,1l-4,2c0,0,1,0,1,-1ZM224.5,178.5l-1,2l-1,-2l-1,2l-2,-2l2,-1l1,1l1,-1ZM244.5,165.5l-1,1c0,0,0,1,0,1c0,0,0,1,0,1c0,1,0,2,0,2l0,2c0,1,0,2,0,3c0,1,-1,1,-2,1l-2,0l-1,0c-1,0,-2,-1,-2,-3c0,0,-1,0,-1,1c-1,0,-2,1,-3,1c-2,1,-5,1,-7,0c-2,1,-3,1,-4,-1c-1,1,-1,1,-1,1c-1,2,-10,1,-11,1c-1,0,-3,-1,-3,-2l3,0c0,0,1,0,1,-1c1,0,1,-1,1,-1l0,-7l0,-1c-1,0,-1,0,-1,0c0,-1,1,-1,1,-2l1,-1c0,1,0,1,0,1c0,1,0,1,1,2c0,0,-1,0,-1,1l0,7c1,-1,1,-1,2,-2c1,0,2,-1,3,-1c0,0,1,0,1,1c1,0,1,1,1,1c0,1,-1,2,-2,3c1,0,2,0,3,-1c0,0,1,-1,1,-1c0,0,0,1,1,1c0,1,1,1,2,1c0,-1,0,-1,0,-2c0,0,0,-1,0,-2c1,-1,2,-2,2,-2c1,0,1,1,1,1c0,1,1,1,1,2c0,1,-1,1,-1,2c0,1,3,1,4,1c1,-1,2,-1,3,-2c-1,0,-2,-1,-3,-1c0,0,0,1,0,1c-1,0,-1,0,-1,0c0,-1,0,-1,0,-2c1,0,1,0,2,0c0,0,1,0,2,0c1,1,2,1,3,1c0,0,1,0,2,0c-1,0,-1,1,-1,1c0,1,0,1,-1,1c0,1,0,1,2,1l1,0c0,0,1,0,1,0c1,0,1,0,1,-1c0,-3,0,-6,0,-7c0,-1,-1,-1,-1,-2c1,-1,1,-1,2,-2c0,0,0,1,0,1c0,0,0,1,0,1c1,0,1,1,1,1ZM227.5,165.5l-2,1l-1,-1l1,-1ZM226.5,172.5c0,-1,0,-1,0,-1c-1,0,-1,0,-1,0c0,0,-1,1,-1,1l1,1c0,0,1,0,1,-1ZM216.5,166.5l-1,1l-1,-1l1,-1ZM217.5,172.5l-1,-1c0,0,-1,0,-1,0c-1,0,-2,1,-4,3l1,0c0,0,1,0,3,-1c1,0,2,0,2,-1Z" class="g1_75" />
<path fill-rule="evenodd" d="M294.5,384.5c0,0,1,0,1,0c0,0,1,0,1,0c1,0,1,0,2,0l0,1c0,0,0,1,0,1c-1,0,-1,0,-1,0l0,1c0,0,-1,0,-1,0l-1,0c0,0,-1,0,-1,0l2,-1c1,0,1,0,1,-1c-1,0,-1,0,-1,0c-1,0,-1,0,-1,0c-1,0,-1,0,-1,0c0,0,0,-1,0,-1ZM86.5,350.5l-1,1l-1,0c0,0,-1,0,-1,0c-1,0,-1,0,-1,0c-1,0,-1,-1,-2,-2c0,1,0,2,0,2c-1,0,-1,0,-1,0l-1,0c0,0,-1,0,-1,0c0,0,-1,0,-1,0l0,-1c0,0,-1,1,-1,1c-1,0,-1,0,-2,0l-1,0c-1,0,-1,0,-2,0l0,-1c-1,1,-1,2,-1,2l-1,0l-1,0l-1,-1l-1,-1l-1,1c0,0,-1,0,-1,0l-1,0l-1,0l-2,0c0,1,0,1,1,1c0,0,0,1,0,1c0,1,-1,2,-1,2c0,1,-1,1,-1,2c-1,0,-1,1,-2,1c-1,0,-2,0,-2,0c-1,0,-2,0,-2,0c-1,0,-1,0,-2,-1l-1,-1c0,0,0,-1,0,-1c0,-1,0,-1,0,-1c0,0,0,-1,0,-1l0,-1l1,0l0,-1l1,0c0,0,-1,0,-1,1l0,1l0,1c0,0,0,1,0,1c0,0,1,0,1,1c1,0,1,0,1,0c0,0,1,1,2,1c1,0,2,-1,2,-1c1,0,2,-1,2,-1l1,0c0,-1,0,-1,0,-1l0,-1c0,-1,-1,-1,-1,-1c0,0,0,-1,0,-1l0,-1l0,-1l1,0c0,1,0,1,1,1l1,0l1,0l1,0c0,0,1,0,1,0l0,-1c0,0,1,0,1,-1c1,-1,2,-2,3,-2l0,1l1,1l1,1c1,0,1,1,1,1l1,0l1,0c0,0,1,0,1,0c0,0,1,-1,1,-1c1,-1,1,-1,1,-1c0,1,0,1,0,1l1,1c0,0,1,0,1,0c0,0,1,0,1,0c0,0,1,-1,1,-1l0,-1c0,-1,0,-1,0,-1l0,-1l0,-6l1,-2l0,10c0,0,0,1,0,1l1,0c0,0,0,1,0,1l1,0c1,0,1,0,1,0c1,-1,1,-1,1,-1c1,0,1,-1,1,-1l0,1l1,0l0,1l1,0c0,0,1,0,1,0c0,0,0,-1,0,-1l1,0l0,-1l1,-1l0,1l0,1l1,1l1,0l0,-1l-1,0l1,-2l0,1l1,0l0,1l0,1l-1,0c0,1,0,1,0,1l-1,0l-1,0l-1,0l0,-1l0,1l-1,0l-1,0l-1,0l-1,0c0,0,0,-1,0,-1ZM88.5,336.5c0,-1,0,-1,0,-1c1,0,1,-1,1,-1c0,0,1,0,1,1c0,1,0,1,0,1l0,1l0,1l0,1l-1,-1l-1,1c0,0,-1,1,-1,1l-1,0l1,-1l1,0l0,-1l0,-1l0,-1ZM89.5,336.5c-1,0,-1,0,-1,0l1,0l0,1l0,-1ZM77.5,335.5l5,-2l-1,1l-4,2ZM77.5,355.5l-1,-1l-1,1l-2,-1l1,-1l2,1l0,-2l2,1ZM73.5,333.5c0,0,1,0,1,0c0,0,1,0,1,0c1,0,1,0,2,0l0,1c0,0,0,1,0,1c-1,0,-1,0,-1,1c0,0,-1,0,-1,0l-1,0c0,0,-1,0,-1,0l2,-1c1,0,1,0,1,-1c-1,0,-1,0,-1,0c-1,0,-1,0,-1,0c-1,0,-1,0,-1,1l0,-1l0,-1ZM69.5,350.5l-1,-1c0,0,0,-1,0,-1c-1,0,-1,0,-1,0l-1,1c0,0,1,0,1,0l1,1ZM65.5,342.5l0,-1c0,0,0,-1,0,-1c-1,-1,-1,-1,-1,-2l1,-1c0,0,0,1,0,1c0,1,0,1,0,1l0,1l0,1c0,0,0,1,0,1ZM54.5,349.5l-1,-1l1,-1l1,1ZM55.5,336.5c0,-1,0,-1,0,-1c1,0,1,-1,1,-1c0,0,1,0,1,1c0,1,0,1,0,1l0,1l0,1l0,1l-1,-1l-1,1c0,0,-1,1,-1,1l-1,0l1,-1l1,0l0,-1l0,-1l0,-1ZM56.5,336.5l-1,0l1,0l0,1l0,-1ZM168.5,345.5l-1,-1l-1,1l-2,-1l1,-1l2,1l0,-1l2,1ZM161.5,342.5c0,0,1,0,1,0l1,0l0,1l0,1c0,0,0,-1,0,-1l0,-1c0,-1,0,-1,0,-1l0,-1c-1,0,-1,0,-1,0c0,0,-1,0,-1,1c0,0,0,1,0,1c0,0,-1,0,-1,0c0,1,0,1,0,1c-1,1,-1,1,-2,1c0,0,0,1,0,1c-1,0,-1,0,-1,0l-1,1l-1,0c0,1,0,1,0,2l0,-1c0,0,1,0,1,0l1,0l1,1l1,0l1,0l-1,1l-1,0l-1,0l-1,1l-1,0l-1,0l-2,0l-2,0l1,0l0,-1c1,0,1,0,1,-1l0,-1c0,0,-1,-1,-1,-1c-1,0,-1,0,-2,0c-1,0,-1,0,-2,0l0,1l-1,0l-2,2l0,-1l0,-1l1,0l0,-2l-1,-1l0,-1l0,-1l0,-1c0,0,0,-1,0,-1l1,-1l-1,-1l-1,0c0,1,0,1,0,1l0,1l0,1l1,3l0,1l0,2l0,1c0,0,-1,1,-1,1c0,1,0,1,-1,1l-1,0l-1,0l-1,0c0,0,0,-1,0,-1l-1,0l-1,-1l0,-1l-1,-1c-1,0,-2,1,-3,2c0,1,0,1,0,1l-1,1l-1,0l-1,0l-1,0c0,0,-1,0,-1,0c0,-1,0,-1,0,-1c0,0,-1,0,-1,0l-1,0c-1,0,-1,1,-2,1l-1,0l-1,0l-2,-2c-1,0,-1,-1,-2,-1c0,-1,-1,-1,-1,-2c-1,0,-1,0,-2,-1l-1,0l-1,-1l-1,0l-1,-1l1,0c0,0,1,-1,3,-1c1,-1,2,-1,4,-2c1,0,2,-1,2,-1l1,0l1,-2l-1,1c-1,0,-2,0,-3,1c-2,0,-3,1,-4,1c-2,1,-3,1,-3,2c0,0,-1,0,-1,0l0,1c0,1,0,1,0,1l0,1l1,1c1,0,1,0,1,0c1,0,1,1,1,1c0,0,1,0,1,1c1,0,1,1,1,1c0,1,-1,1,-1,1l-1,0c0,1,0,1,0,1c0,0,-1,0,-1,0l-1,0l-1,0l-1,0l-2,-1c-1,0,-2,-1,-2,-2l-1,1l-1,1l-1,0l0,1c0,0,-1,1,-1,1l0,1l0,1l0,1l0,1l1,3l0,1l0,1l0,1l1,0c0,0,0,-1,0,-1c0,0,0,-1,0,-2l-1,-1l0,-1l0,-2l0,-1l-1,-1c0,0,1,0,1,0l0,-1l1,0c0,0,1,-1,1,-1l0,1c0,1,1,1,1,2c0,0,1,1,1,1c0,0,0,-1,1,-1l0,-1l0,-1c0,0,1,0,1,0l3,0l1,0c0,0,1,0,1,0l1,0c1,-1,1,-1,1,-2l0,-1l0,-1l1,0c0,0,0,1,1,1l2,2c1,1,1,1,1,1c0,0,1,0,1,0l1,0c1,0,1,0,1,0c1,0,1,0,2,0c0,-1,0,-1,0,-1c1,0,1,0,1,0c0,1,0,1,0,1l1,0c0,0,1,0,1,0l1,0l1,0c1,0,1,0,1,0l1,-1l2,1l1,1c0,0,1,0,1,0c1,0,1,-1,1,-2l1,1c0,0,1,0,1,0l1,0l1,0c0,1,0,1,0,1c0,0,0,1,0,1l0,1c0,0,1,0,1,0c0,-1,0,-1,0,-2l0,-1l10,0l1,0l1,0l1,0c1,0,1,0,1,0l3,-1l0,-1l1,0l1,0l1,0l1,0l1,0l1,0l0,-1l-1,0c0,0,-1,0,-1,0c0,0,-1,-1,-1,-1c-1,0,-2,0,-2,0l-2,-1l-1,0c0,0,0,-1,0,-1c1,0,1,0,1,0l1,-1c0,0,1,-1,1,-1l0,-1ZM159.5,335.5l4,-2l0,1l-4,2ZM153.5,333.5c1,0,1,0,1,0c1,0,1,0,2,0c0,0,1,0,1,0c0,0,1,0,1,1c-1,0,-1,1,-1,1l-1,1l-1,0l-1,0l1,-1c1,0,1,0,2,-1c0,0,-1,0,-1,0c0,0,-1,0,-1,0c0,0,-1,0,-1,0l-1,1l0,-1l0,-1ZM151.5,348.5l-1,0c0,0,0,-1,0,-1c-1,0,-1,0,-1,0c-1,0,-2,1,-2,1l-1,1l-1,0l-1,1l1,0c1,0,1,0,1,0c1,0,1,0,1,0c1,-1,1,-1,1,-1c1,0,2,0,3,-1ZM146.5,355.5l-4,2c0,-1,0,-1,0,-1l4,-2ZM137.5,350.5l0,-1c-1,0,-1,-1,-1,-1l-1,0l-1,1c1,0,1,0,2,0l0,1ZM133.5,338.5l4,-2l0,1l-4,2ZM126.5,347.5l-1,-1l0,-1l2,1ZM125.5,337.5l0,1c1,0,1,0,1,-1l0,-1l0,1l1,0l1,-1c0,1,0,1,0,1l0,1c0,0,-1,0,-1,1c-1,0,-1,-1,-1,-1l0,1c-1,0,-1,0,-1,0c0,0,-1,0,-1,0l0,-1l0,-1ZM129.5,334.5l-6,3c0,-1,1,-1,1,-1l5,-3ZM115.5,332.5l1,-1l1,0c0,0,0,1,0,1c0,0,0,1,0,1c0,0,0,1,0,1l0,1l-1,0l-1,1l-1,0l0,1l-1,0l0,-1l1,0c0,0,1,-1,1,-1l1,-1l-1,0l0,-1l0,-1ZM116.5,332.5c0,0,0,1,0,1ZM102.5,341.5c0,-1,0,-1,1,-1c0,0,1,0,1,0c1,0,1,0,1,0c1,0,1,1,1,1c0,1,0,1,-1,1c0,0,0,1,0,1c0,0,-1,0,-1,0c0,0,-1,0,-1,0l-1,0l2,-1c0,0,1,0,1,0c0,-1,0,-1,-1,-1c-1,0,-1,0,-2,0c0,0,0,1,0,1l0,-1ZM183.5,350.5l-1,0c0,0,0,1,0,1c0,0,1,0,1,0c0,0,0,-1,0,-1ZM184.5,352.5c0,1,-1,1,-1,1c-1,0,-1,0,-1,0c-1,0,-1,0,-2,0c-1,0,-1,0,-1,0c0,-1,0,-1,0,-1c0,-1,0,-1,0,-1c0,0,1,0,1,0c0,0,1,0,1,0c0,-1,0,-1,0,-1c1,0,1,0,1,0c0,-1,0,-1,0,-1c0,0,0,-1,0,-1c-1,0,-1,-1,-1,-1c0,0,-1,-1,-1,-1c-1,-1,-1,-1,-2,-2l0,-1c-1,0,-1,0,-1,0l-1,0c-1,0,-1,-1,-1,-1c0,0,0,-1,0,-1l0,-1c0,0,0,-1,0,-1c1,1,1,1,2,1c0,1,0,1,1,2c1,0,1,1,2,2c0,0,1,1,2,2c0,0,0,1,0,1c1,0,1,1,1,1c0,0,0,-1,0,-1c0,-1,0,-2,1,-2c0,-1,0,-2,0,-2c0,0,0,-1,0,-1c0,-1,0,-1,0,-2c0,0,-1,0,-1,0l0,-1l1,-1l0,1c0,0,1,0,1,0l1,0c-1,1,-1,1,-1,1c0,1,0,1,0,1l0,1l0,1c0,0,0,1,0,1c-1,1,-1,1,-1,2c0,0,0,1,0,1c0,1,0,1,-1,2c0,0,1,0,1,0l0,1c0,0,0,1,0,1c0,0,0,1,0,1ZM180.5,335.5l6,-2c-1,0,-1,1,-1,1l-5,3ZM266.5,351.5l-1,0l-1,0l0,-1l-1,0l-1,0c0,1,0,1,0,1l-1,0l-1,0l-1,0l-1,0c0,0,0,-1,0,-1l0,-1l-1,1l0,1c-1,0,-1,0,-2,0c0,0,-1,0,-1,-1l0,1c-1,0,-1,0,-2,0c-1,0,-1,0,-2,-1l0,1c-1,0,-2,0,-3,0l-1,0c0,0,-1,0,-1,0l-1,-1l-2,-2c-1,0,-1,-1,-1,-1l-1,0l0,1c0,1,0,1,0,1c0,1,0,1,-1,2c-1,0,-1,0,-1,0c-1,0,-1,0,-2,0l-1,0c0,0,-1,0,-1,0c-1,0,-1,0,-1,0l0,-1l-1,0l0,1c-1,0,-1,0,-2,0l-1,0l-1,0c0,0,-1,0,-1,0l-1,0c0,0,-1,-1,-1,-1l1,0c-1,0,-1,0,-1,0c0,0,-1,0,-1,0c-1,0,-1,0,-2,0c-1,0,-2,0,-2,0c-1,0,-2,1,-3,1c-1,0,-2,0,-2,0c-2,0,-3,0,-4,0c0,0,-1,0,-2,0c-1,0,-2,0,-3,0c-1,0,-1,0,-2,0l-1,0l-3,0l-1,0l0,1l0,1c-1,0,-1,1,-1,1c0,0,-1,-1,-1,-1c0,-1,-1,-1,-1,-2l0,-1c0,0,-1,1,-1,1l-1,0l0,1l0,1l0,1l0,2l0,1l1,1c0,1,0,2,0,2c0,0,0,1,0,1l-1,0l0,-1l0,-1l0,-1l-1,-3l0,-1l0,-1l0,-1l0,-1c0,0,1,-1,1,-1l0,-1l1,0l1,-1l1,-1c0,1,1,2,2,2l2,1l1,0l1,0c1,0,2,0,3,0c1,0,1,0,2,0c1,0,2,0,3,0c0,0,1,0,2,-1c1,0,1,0,2,0c1,0,2,0,3,0c0,0,1,0,3,0c1,-1,2,-1,2,-1c1,0,2,0,3,0l0,-1c-1,0,-1,0,-1,0c0,-1,-1,-1,-1,-1c-1,0,-3,1,-5,1c-1,0,-3,0,-5,0c-2,1,-4,1,-5,1c-2,0,-3,0,-4,-1c0,-1,0,-1,1,-2c0,0,0,-1,0,-1c0,0,1,0,1,-1c1,-1,2,-1,3,-2c1,-1,2,-1,2,-2c1,0,1,0,1,0l-1,2l-1,0c0,1,-1,1,-2,2c-1,1,-2,1,-2,2c0,0,-1,0,-1,0l0,1l1,0l1,0c0,0,1,0,1,0c1,0,3,0,5,0c2,0,4,-1,6,-1c2,0,3,0,4,0l1,0c0,0,1,0,1,0c1,1,1,1,1,1c0,1,0,1,0,1c0,1,0,1,0,2c0,0,0,1,-1,1c0,0,1,0,1,0l1,0l1,0c1,0,1,0,1,0c1,0,1,-1,2,-1c1,0,1,0,1,0l1,0l0,1c0,0,1,0,1,0l1,0l1,0c0,0,1,0,1,0l0,-1c1,0,1,0,1,0c0,0,1,0,1,-1c0,0,0,-1,-1,-1c0,-1,0,-1,-1,-1c0,0,0,-1,-1,-1l-1,0c-1,-1,-1,-1,-1,-1c0,-1,0,-1,0,-1l0,-1c0,-1,0,-1,0,-1c0,0,1,0,1,0c0,-1,1,-1,3,-2c1,0,2,-1,4,-1c1,-1,2,-1,3,-1l1,-1l-1,2c-1,0,-1,0,-1,0c0,0,-1,1,-2,1c-2,1,-3,1,-4,2c-2,0,-3,1,-3,1c0,0,-1,0,-1,0l1,1c1,0,1,0,1,0c1,1,1,1,1,1l1,0c1,1,1,1,2,1c0,1,1,1,1,2c1,0,1,1,2,1l2,2l1,0l1,0l1,0l0,-1c1,0,1,0,2,-1c0,0,0,1,0,1c0,0,0,1,1,1c0,0,1,0,1,-1c1,0,1,0,1,-1l1,0c0,0,0,1,0,1c0,0,1,0,1,0l1,0l0,-1c0,0,1,0,1,0c0,1,1,2,2,2l1,0c0,0,1,0,1,0l0,-1l1,-1c0,0,1,-1,1,-1l0,-1c0,0,1,0,1,0c0,0,1,0,1,1l0,1l1,1c0,1,0,1,0,1l-1,0c0,0,0,1,0,1ZM264.5,349.5l1,0c0,-1,0,-1,0,-1c-1,0,-1,0,-1,0c0,0,0,1,0,1ZM261.5,338.5l4,-2l0,1l-4,2ZM252.5,341.5c0,-1,0,-1,0,-2c0,-1,0,-1,0,-2l0,-1c0,1,1,1,1,1c0,1,0,1,0,1l0,1l0,1c0,1,0,1,-1,1ZM246.5,355.5l-5,2c0,-1,1,-1,1,-1l4,-2ZM232.5,347.5l-1,-1l0,-1l2,1ZM230.5,342.5l4,-2c0,0,0,1,0,1l-4,2ZM208.5,332.5l0,-1c1,0,1,0,1,0c1,0,1,0,1,0c0,0,0,1,0,1c0,0,0,1,0,1c0,0,0,1,0,1l0,1l-1,0l-1,1c0,0,-1,0,-1,0l0,1l-1,0l0,-1l1,0c0,0,0,-1,1,-1l0,-1l0,-1l0,-1ZM209.5,332.5c-1,0,-1,0,-1,0c0,0,0,1,0,1l1,0ZM193.5,341.5c0,-1,0,-1,1,-1c0,0,1,0,1,0c1,0,1,0,1,0c1,0,1,1,1,1c0,1,0,1,-1,1c0,0,0,1,0,1c0,0,-1,0,-1,0c0,0,-1,0,-1,0l-1,0l2,-1c0,0,1,0,1,0c0,-1,0,-1,-1,-1c-1,0,-1,0,-2,0c0,0,0,1,0,1l0,-1ZM317.5,351.5l0,-1l0,-1l0,-8l0,-3l1,11l0,1c0,1,-1,1,-1,1ZM314.5,350.5l-1,1c-1,0,-2,0,-2,0l-1,1l-1,0l-1,0c0,-1,0,-1,0,-1l-1,0c0,-1,1,-1,1,-1l0,-1l0,1l1,0c0,0,1,0,2,-1l1,0l1,0c0,-1,0,-1,0,-1c0,-1,0,-1,-1,-2l-1,-1l-1,0l0,-2c0,0,1,0,1,0c0,0,1,1,1,1c0,0,1,0,1,1l0,1c1,0,1,1,1,1c0,0,0,1,0,1c0,1,0,1,0,1c0,1,0,1,0,1ZM281.5,338.5l1,0c0,0,1,0,1,0c1,0,1,0,1,0c1,0,1,0,1,1c0,0,0,1,-1,1c0,0,-1,0,-1,1c0,0,-1,0,-1,0l-1,0l2,-1c0,0,1,0,1,-1l-1,0c-1,0,-1,0,-2,0c0,0,0,-1,0,-1ZM307.5,337.5l1,0c0,0,1,-1,1,-1c1,0,1,1,1,1c1,0,1,0,1,0l0,1l-1,1l-1,0c0,0,-1,0,-1,0l-1,0l2,0c0,0,1,-1,1,-1l-1,0c-1,0,-1,0,-2,0l0,-1ZM296.5,343.5l-1,-1l1,-1l1,1ZM305.5,349.5l-1,0l-1,0c-1,0,-1,0,-2,0l-1,0l-1,0l-1,1c-1,0,-1,0,-2,1l-1,0c-1,0,-1,0,-2,0l-1,0c0,0,-1,0,-1,0c0,0,-1,-1,-1,-2c0,1,0,2,-1,2l-1,0l-2,0c0,1,0,1,0,2l0,1c-1,0,-1,1,-1,1c0,0,-1,0,-1,1l-1,0c0,0,0,1,0,1c-1,0,-1,0,-1,0c0,0,-1,0,-1,0c-1,0,-1,0,-2,-1l-1,0c1,0,1,0,1,0c0,0,1,0,1,0c0,0,1,0,1,0c1,0,1,-1,1,-1c1,0,1,0,1,-1c1,0,1,0,1,0c0,-1,1,-1,1,-1c0,0,0,-1,0,-1l0,-1c0,0,-1,0,-1,0c0,0,-1,0,-1,0l0,-1c0,0,0,-1,0,-1c0,0,0,-1,0,-1c0,0,0,-1,0,-1c1,0,1,0,1,0l1,0c0,0,1,0,1,0c0,1,0,1,0,1l0,1l0,1c1,0,1,0,2,0l1,0c0,0,0,-1,1,-1l0,-1c0,-1,0,-1,0,-1l0,-1l-1,-6l1,-2l1,10c0,0,0,1,0,1c0,0,1,1,1,1l1,0c0,0,1,0,1,0c0,0,1,0,2,-1l1,0l1,-1l1,0l-1,0l-1,-1l-1,0l-1,0l-1,0c0,0,0,-1,0,-1c1,0,1,0,1,-1c0,0,1,0,1,0l1,0l1,1l2,1l1,0l1,0l1,0c0,0,1,0,1,0l1,0ZM296.5,332.5l0,-1c1,0,1,0,1,0c1,0,1,1,1,1c0,0,0,1,0,1c0,0,0,1,-1,1l1,0l0,1l-1,0l-1,0l0,1c0,0,-1,0,-1,0l0,1l-1,0l-1,0l1,-1l1,0c0,0,0,-1,0,-1l1,0l0,-1c0,0,-1,0,-1,-1c0,0,1,0,1,-1ZM297.5,332.5l-1,0c0,0,0,1,0,1l1,0ZM289.5,332.5c0,0,1,0,1,-1l1,0c0,0,1,1,1,1c0,0,-1,1,-1,1c0,0,0,1,0,1l1,0l0,1l-2,0l0,1c-1,0,-1,0,-1,0l-1,1l-1,0l1,-1c1,0,1,-1,1,-1l1,0l0,-1l-1,0l0,-1l0,-1ZM290.5,332.5c0,0,0,1,0,1l1,0ZM284.5,348.5l0,1c0,0,-1,0,-1,0c0,0,1,0,1,0c0,0,0,1,0,1c0,0,1,0,1,0c0,0,0,-1,0,-1c0,0,-1,-1,-1,-1ZM277.5,351.5l0,-1l0,-1l-1,-8l1,-3l1,11l0,1l-1,0c0,1,0,1,0,1ZM363.5,351.5l0,-1l0,-1l0,-8l1,-3l0,11l0,1c0,1,-1,1,-1,1ZM356.5,350.5c1,0,1,0,1,0c1,-1,1,-1,1,-1l0,-1l0,-2l0,-6c0,0,-1,0,-1,0l0,-1l1,-1c0,0,0,1,0,1c1,0,1,0,1,0c0,1,0,1,0,1c0,1,0,1,0,1c0,0,0,1,0,2c0,0,0,1,0,3l0,1l0,1c0,0,0,1,0,1c0,0,0,1,0,1c0,0,-1,0,-1,0c0,0,0,1,0,1l-1,0c-1,0,-1,0,-1,0l-1,0l-1,0l-1,0l0,-1c0,0,-1,1,-1,1c-1,0,-1,0,-2,0l-1,0c-1,0,-1,0,-2,0l0,-1c0,1,-1,2,-1,2c-1,0,-1,0,-2,0l-1,-1l-1,-1l-1,1c0,0,-1,0,-1,0l-1,0l-1,0c0,0,-1,0,-1,0c0,0,-1,-1,-1,-1l0,1l0,1c0,1,0,1,0,2c-1,0,-1,1,-1,1c-1,0,-1,0,-1,1c0,0,-1,0,-1,0c0,0,-1,0,-1,0c-1,1,-1,1,-2,1l-1,0l0,-1l-1,0c0,0,-1,0,-1,0c0,-1,0,-1,-1,-1c0,-1,0,-1,0,-2c0,0,0,-1,0,-2c1,0,1,0,1,-1l1,-1l0,1l-1,0c0,0,0,1,0,1c0,0,0,1,0,1c0,1,0,1,1,2c0,0,1,1,2,1c1,0,2,-1,3,-1c1,0,2,-1,2,-1l0,-1l0,-3c0,0,0,-1,0,-2l0,-1l0,-6l1,-2l0,10l0,1c1,0,1,0,1,0l0,1c1,0,1,0,1,0l1,0l1,0c0,0,1,0,1,0l1,-1l0,-1c1,-1,2,-2,3,-2l1,1l0,1l1,1c1,0,1,1,1,1l1,0l1,0c1,0,1,0,1,0c1,0,1,-1,1,-1l1,0c0,-1,0,-1,0,-1c0,1,0,1,0,1c0,0,1,0,1,1c0,0,1,0,1,0l1,0ZM352.5,347.5l-1,-1l1,-1l1,0ZM352.5,337.5l0,1c1,0,1,0,1,-1l0,-1l0,1l1,0l1,-1c0,1,0,1,0,1l0,1c0,0,-1,0,-1,1c0,0,-1,-1,-1,-1l0,1c-1,0,-1,0,-1,0l-1,0l0,-1l0,-1ZM356.5,334.5l-6,3c0,-1,1,-1,1,-1l5,-3ZM346.5,350.5l-1,-1c0,0,0,-1,0,-1c0,0,-1,0,-1,0l-1,1c0,0,1,0,1,0l1,1ZM343.5,336.5c1,0,1,0,2,0c0,0,1,0,1,0c1,0,1,0,1,0c0,0,0,1,0,1c0,0,-1,0,-1,1l-1,0c-1,1,-1,1,-1,1l-1,0l0,-1l1,0c1,0,2,-1,2,-1c0,0,-1,0,-1,0l-1,0l-1,0l-1,0c0,-1,0,-1,1,-1ZM329.5,336.5c0,-1,0,-1,1,-1c0,0,0,-1,0,-1c1,0,1,0,1,1c0,1,0,1,0,1l0,1l0,1l0,1l-1,-1l-1,1c0,0,0,1,-1,1l-1,0l1,-1l1,0l0,-1l0,-1l0,-1ZM330.5,336.5c0,0,-1,0,-1,0l1,0l0,1l0,-1ZM403.5,355.5l-2,-1l0,1l-2,-1l1,-1l1,0l1,-1l2,1ZM400.5,351.5l-1,0l-2,0c-1,0,-1,0,-2,0c0,-1,-1,-1,-1,-2l0,-9l1,-2l0,10l1,1c0,1,1,1,1,1l2,0l1,0c0,0,1,0,1,0c1,-1,1,-1,1,-1c1,0,1,0,1,0c0,-1,-1,-1,-1,-1c0,0,0,-1,0,-1l1,-2l0,1c0,1,0,1,0,1l0,1c0,0,0,1,0,1c0,0,0,1,0,1c-1,1,-1,1,-2,1c0,0,-1,0,-1,0ZM402.5,339.5c0,-1,0,-1,0,-2c0,-1,0,-1,-1,-2l1,0l0,-1c0,1,0,1,0,1c1,1,1,1,1,1l0,1l0,1c-1,1,-1,1,-1,1ZM404.5,333.5c0,0,-1,0,-2,0l-1,0c-1,0,-1,1,-1,1c0,0,0,-1,0,-1l1,-1c0,1,1,1,2,1l1,0l0,-1l1,0ZM394.5,332.5l4,-2l0,1c-1,0,-1,0,-1,0l-4,2ZM391.5,355.5l-2,-1l0,1l-2,-1l1,-1l1,0l1,-1l2,1ZM388.5,351.5l-1,0l-1,0l-1,1l-1,0c0,0,1,0,1,1l0,1c0,0,0,1,-1,2c0,0,-1,1,-1,1c0,0,-1,-1,-1,-1c-1,0,-1,-1,-1,-1c0,-1,-1,-2,-1,-3c-1,-1,-1,-1,-1,-1l-1,0l-2,0c0,0,-1,0,-2,0c0,-1,0,-1,0,-2l-1,-9l1,-2l1,10l0,1c0,1,1,1,1,1l2,0l1,0l1,0l0,-1c1,0,1,0,1,-1l0,-1c0,0,1,0,1,0c1,-2,1,-3,2,-3c0,0,0,1,1,1l0,1l0,1c0,0,-1,1,-1,1c0,1,-1,2,-2,2l2,0l1,0l1,0l1,0l1,0c0,0,1,0,1,0c1,-1,1,-1,1,-1c1,0,1,0,1,0c0,-1,-1,-1,-1,-1c0,0,0,-1,0,-1l1,-2l0,1c0,1,0,1,0,1l0,1c0,0,0,1,0,1c0,0,0,1,0,1c-1,1,-1,1,-2,1c0,0,-1,0,-1,0ZM389.5,340.5l0,1l1,0l0,-1l0,-1l0,1l1,0c0,0,0,1,0,1c0,0,0,-1,0,-1l1,-1l0,1l0,1l-1,1c0,0,-1,0,-1,-1l0,1c0,0,-1,0,-1,0l-1,0l0,-1l0,-1ZM390.5,335.5c0,0,0,-1,1,-1l1,0l0,1l0,1l0,1l0,1l-1,-1l-1,1c0,1,0,1,-1,1l-1,0c1,0,2,-1,3,-2l-1,0c0,-1,0,-1,0,-1c0,-1,0,-1,0,-1ZM391.5,335.5l-1,0c0,0,1,0,1,1c0,-1,0,-1,0,-1ZM383.5,346.5l0,1c0,0,-1,0,-1,0l0,1l-1,1c1,0,2,0,2,-1c1,0,1,0,1,-1c0,0,-1,-1,-1,-1ZM381.5,352.5l0,1c0,0,1,1,1,1l1,1c0,0,1,0,1,-1c0,0,0,-1,-1,-2c0,0,-1,0,-2,0ZM381.5,338.5l4,-2l0,1l-4,2ZM278.5,387.5l0,-1l-1,0l0,-1c0,-1,0,-1,0,-2c1,0,1,-1,1,-1l1,-1c0,0,1,0,1,0l-1,1l-1,1l0,1c0,0,0,1,0,1l1,0l1,0l0,1c0,1,0,1,0,1c-1,0,-1,0,-1,0c-1,0,-1,0,-1,0ZM272.5,389.5c0,2,0,4,-1,5l0,1c-1,0,-1,0,-1,0c0,0,-1,0,-1,0l-1,0l1,0c0,0,1,0,1,0c0,-1,0,-1,0,-1l1,0c0,0,-1,0,-1,0c0,-1,0,-1,0,-1c0,0,0,-1,0,-1c-1,0,-1,0,-1,0l-1,0c0,0,0,-1,0,-1c0,-1,0,-1,0,-1l1,0c0,1,0,1,0,1c0,0,1,1,1,1l0,1c0,0,1,0,1,0l0,1c0,-1,0,-1,0,-1l0,-1l0,-2ZM149.5,395.5c0,1,0,2,0,2c0,1,0,1,0,1l-1,1l1,1l-1,1c-1,0,-1,0,-1,0l0,1l-1,0l-1,1l-1,0l-1,0l0,1l-1,0l-1,1l0,1l-1,0l-3,0l-1,0l-1,0c0,0,0,-1,-1,-1l-1,-1c-1,-1,-2,-1,-3,-1l-1,-1l-1,-1l-1,0l0,-1l-1,0l2,-1l-1,0l0,-1l-1,-1c0,-1,0,-1,0,-1l0,-1l0,-1c0,0,0,-1,1,-2l0,-1l-1,0c0,0,1,-1,1,-1l1,0l0,-1l1,0l0,-1l1,0l1,0l2,-1l0,-1l1,0c0,-1,1,-1,1,-1l1,0l1,0l3,0l1,1l1,0l0,1l1,0l1,1l1,0c1,0,1,0,1,0l0,1l1,0l1,1c0,0,1,0,1,1l-1,0l0,1l1,0l0,1l0,1ZM140.5,406.5l1,-1l0,-1l1,0l1,-1c0,0,1,0,1,0l1,0c0,-1,1,-1,1,-1l1,0l0,-1l1,0l0,-1l1,0l-1,0l-1,-1l1,0l0,-1l1,0l0,-1l0,-1l0,-1c0,-1,0,-1,0,-2l-1,-1l0,-1l1,0c-1,-1,-1,-1,-2,-1l0,-1l-1,0l-1,-1l-1,0l-1,-1c-1,0,-1,0,-1,0l-1,-1l0,-1c0,0,-1,0,-1,0l-3,0l-1,0l-1,0l-1,1l0,1c-1,0,-1,0,-1,0l-2,1l-1,0l-1,1l-1,0l0,1c0,0,-1,0,-1,1l1,0l-1,1l0,1l-1,1l0,1l0,1l0,1l1,0l0,1l0,1l1,0c0,0,0,1,0,1l-1,0l1,1l1,0l0,1l1,0l0,1l1,0l2,0c0,0,0,1,1,1l0,1c1,0,1,0,1,1l1,0l1,0ZM146.5,391.5l-1,0l0,-1l-1,0l-1,-1l0,-1l0,1l1,0l1,0c0,0,0,1,0,1l1,0ZM146.5,400.5l0,1l-1,0l0,1l-1,0l-1,0l0,-1l1,0c1,0,1,-1,1,-1l1,0ZM142.5,402.5c0,1,0,1,-1,1c0,0,0,1,-1,1l-3,0l-1,0l-1,0c0,0,-1,-1,-1,-1c0,0,0,-1,0,-1l0,-1l1,0l1,0l1,0l3,0c1,0,1,0,1,0l1,1ZM142.5,388.5c0,1,0,1,-1,1l-1,1l-3,0l-1,0l-1,0c0,0,-1,-1,-1,-1l0,-1l0,-1l1,0l1,0l1,0l3,0c1,0,1,0,1,0c0,1,0,1,1,1ZM140.5,391.5l1,0c0,-1,1,-1,1,-1c1,0,1,1,1,1c0,0,1,0,1,1l1,0l1,0l1,1l0,1l0,1l0,1c0,0,0,1,0,1l0,1c0,0,-1,0,-1,0c0,1,0,1,0,1l-1,0l-1,0l0,1l-1,0l-1,0c-1,0,-1,0,-1,0l-1,0l-3,0l-1,0l-1,0l-1,0l-1,0c0,0,-1,0,-1,0c0,0,-1,0,-1,-1l-1,0l-1,0l0,-1l0,-1l-1,0l0,-1l0,-1l0,-1l1,-1l0,-1l1,0l1,0l1,-1c0,0,1,-1,1,-1c1,0,1,0,1,1l1,0l1,0l1,0ZM140.5,399.5l1,0l0,1l1,0l1,0l1,-1c0,-1,1,-1,1,-1l1,1l0,-1l0,-1l1,0l0,-1l0,-1c0,0,0,-1,0,-1c-1,-1,-1,-1,-1,-1c0,-1,0,-1,0,-1l-1,0l-1,0l-1,-1l-1,0c0,0,-1,0,-1,0l-1,0l-3,0l-1,0l-1,0l-1,0l-1,0c-1,0,-1,0,-1,0l-1,1l-1,0c0,0,-1,0,-1,1l0,1l0,1l-1,0l0,1l1,0l0,1c0,1,0,1,1,2l1,-1l0,1l1,0l0,1l1,0c1,0,1,0,1,0c0,0,1,0,1,-1l1,0l1,0l3,0ZM138.5,394.5l1,0l0,1l0,1l1,0c0,1,0,1,0,1l0,1l-1,-1l0,-1l-1,-1c0,0,0,1,0,1l-1,1l0,1l0,-1c0,0,0,-1,1,-1l0,-1l0,-1ZM136.5,394.5l0,1l0,1l0,1c0,1,0,1,0,1l0,-1c0,-1,0,-2,-1,-3ZM129.5,391.5l1,-1l0,-1l1,0l1,0l1,-1l0,1c-1,0,-1,0,-1,0l0,1c-1,0,-1,0,-1,0l-1,0l0,1l-1,0ZM129.5,400.5l1,0c0,0,0,1,1,1l1,0l1,0c0,1,-1,1,-1,1l1,0c-1,0,-1,0,-1,0c-1,0,-2,-1,-2,-1l-1,0l0,-1ZM205.5,402.5l-1,-1l-1,2l-1,-1l1,-2l1,1l1,-1l1,1ZM202.5,396.5c1,0,1,0,1,0c1,0,1,0,1,0c0,0,0,-1,0,-2c0,0,-1,-1,-1,-1l-1,0c0,-1,0,-1,0,-1l0,-1c0,0,0,-1,0,-1c1,0,1,1,1,1c1,0,1,1,1,1l0,1c1,0,1,0,1,0c0,1,0,2,0,2c0,1,0,1,0,1l0,1l-1,0l0,1l-1,0l-1,0l-1,0l0,-1l-1,0l0,-1l-1,0c0,0,0,1,0,1c-1,0,-1,1,-2,1c0,0,-1,-1,-1,-2l0,1c-1,0,-1,1,-2,1c-1,0,-1,-1,-2,-2c0,1,0,1,0,1c-1,0,-1,1,-2,1l-1,0c0,0,-1,0,-1,0c-1,0,-1,-1,-1,-1c0,0,-1,0,-1,0l-1,-1l0,1l-1,0l-1,0c0,0,0,1,-1,1l-1,0l-1,0c0,0,0,1,0,1c0,1,0,1,0,2c-1,0,-1,0,-1,1l-1,1l-1,0l-1,0c0,0,0,1,-1,1c0,0,-1,-1,-2,-1l-1,0c0,-1,1,-1,1,-1c0,0,0,1,0,1l1,0c0,0,1,0,1,-1c1,0,1,0,2,0c0,0,0,-1,0,-1c1,0,1,0,1,-1c0,0,1,0,1,-1l0,-1c1,0,1,0,1,-1l-1,0l0,-1c0,-1,0,-1,0,-1c0,0,1,0,1,1l1,0l1,0c0,0,1,0,1,0l1,0l0,-1c-1,-1,-1,-1,-1,-1c0,0,-1,0,-1,0l1,-2c0,0,1,0,1,0c1,0,1,0,1,0l1,0l1,0c0,1,0,1,0,1c0,0,1,0,1,0c0,1,0,1,0,1l-1,0c0,0,0,1,0,1l-1,0c1,0,1,1,1,1l1,0l1,0l1,0l1,0c1,0,1,-1,2,-2l0,1c0,1,0,1,1,1c0,0,1,0,1,0c1,0,1,-1,1,-1l1,-1c0,1,0,1,0,1c0,1,1,1,1,1c0,0,1,0,1,-1c0,0,1,-1,1,-1c0,1,1,2,2,2ZM201.5,385.5l5,-2l-1,1l-4,2ZM195.5,390.5l-1,-1l0,-2l2,1ZM197.5,392.5l-2,-1l-1,2l-1,-1l1,-2l1,1l1,-1l1,1ZM193.5,383.5c0,-1,1,-1,1,-1c1,0,1,0,1,0c1,0,2,0,2,0c0,0,0,1,0,1c0,0,0,1,0,1c0,0,-1,0,-1,1l-1,0l-1,0l-1,0l2,-1c1,0,1,0,2,0c-1,-1,-1,-1,-1,-1c0,0,-1,0,-1,0c0,0,-1,0,-1,0c0,0,-1,1,-1,1l0,-1ZM184.5,382.5c0,0,1,-1,1,-1l1,0l0,1l0,1l0,1l1,0l-1,1l-1,0l-1,0c0,1,0,1,0,1l-1,0l-1,0l1,0l0,-1c0,0,1,0,1,0l1,-1l-1,0c0,0,0,-1,0,-1c0,0,0,-1,0,-1ZM185.5,382.5l0,1l1,0l-1,0c0,0,0,-1,0,-1ZM178.5,382.5c0,0,0,-1,0,-1c1,0,1,0,1,0c0,0,1,0,1,0l0,1l0,1l0,1l0,1l-1,0l-1,0c0,1,-1,1,-1,1l-1,0l1,-1l1,0l0,-1c0,0,0,-1,0,-1c0,0,0,-1,0,-1ZM179.5,382.5c-1,0,-1,0,-1,0l0,1l1,0c0,0,0,-1,0,-1ZM171.5,394.5l-1,0c0,0,0,1,0,1c1,0,1,0,1,0l1,0c0,-1,0,-1,0,-1c0,0,-1,0,-1,0ZM171.5,402.5c-1,0,-1,0,-1,0c-1,1,-1,1,-2,1c-1,0,-1,-1,-2,-1l-1,0l1,-1c0,1,0,1,0,1c1,0,1,0,1,0c0,0,1,0,1,0c1,-1,1,-1,1,-1l1,0c0,0,0,-1,1,-1l0,-1c1,0,1,0,1,-1c0,0,1,-1,1,-1l0,-1l-1,0c0,0,0,1,0,1c0,0,-1,0,-1,0c0,0,-1,0,-1,0c0,-1,0,-1,0,-1c-1,0,-1,0,-1,-1l1,0c0,-1,0,-1,0,-1c0,0,0,-1,0,-1c0,0,1,-1,1,-1l1,0c0,0,1,0,1,1l0,1l0,1c0,0,0,1,0,1c0,0,0,1,0,1c0,1,0,2,0,3c-1,0,-1,0,-1,1c0,0,-1,0,-1,1ZM161.5,392.5l-2,-1l1,-2l2,1ZM161.5,401.5c-1,0,-2,0,-2,0c-1,0,-1,-1,-1,-1c-1,0,-1,0,-1,-1c-1,-1,-1,-1,-1,-2l0,-1c0,0,0,-1,1,-1l0,-1c0,0,0,-1,1,-1l0,1l-1,0c0,1,0,1,0,1l0,1l0,1l0,1c0,0,1,0,1,0c0,0,0,1,1,1c1,0,1,0,2,0c1,0,1,0,2,0c1,-1,1,-1,2,-1c0,-1,0,-1,0,-1l0,-1l0,-1c0,0,0,-1,0,-1c0,0,-1,0,-1,-1l0,-1l0,-2c0,0,1,1,1,1c0,1,0,1,0,1c0,0,1,1,1,1l0,1l0,1c0,0,0,1,0,1c0,1,0,1,0,2c-1,0,-1,1,-2,2c0,0,-1,0,-1,1c-1,0,-2,0,-2,0ZM157.5,385.5l4,-2l-1,1l-4,2ZM222.5,396.5l-1,1l1,0ZM223.5,399.5c0,0,-1,0,-1,0c-1,0,-1,0,-1,0c-1,0,-1,0,-2,0c-1,0,-1,0,-1,0c0,-1,0,-1,0,-1c0,-1,0,-1,0,-1l0,1c0,0,1,0,1,0c0,-1,0,-1,1,-1l0,-1c0,0,1,0,1,0l0,-1l0,-1c-1,0,-1,0,-1,0c0,-1,-1,-1,-1,-2c-1,0,-1,-1,-2,-1c0,-1,0,-1,-1,-1c0,0,0,-1,0,-1l-1,1l0,-1c-1,0,-1,0,-1,-1c0,-1,0,-1,0,-1c0,0,0,-1,0,-1c1,0,1,0,1,1c1,0,1,1,2,1c1,1,1,1,2,2c0,1,1,1,2,2c0,1,0,1,0,1c1,1,1,1,1,1l0,-1c0,-1,0,-1,0,-2c1,-1,1,-1,1,-2l0,-1c0,-1,0,-1,0,-2c-1,0,-1,0,-1,0c0,-1,0,-1,1,-1c0,-1,0,-1,0,-1c0,1,0,1,0,1l1,0c0,1,0,1,0,1l0,1c0,1,0,1,0,1c0,0,0,1,0,1c0,1,0,1,-1,2c0,0,0,1,0,1c0,1,0,1,0,2c0,0,-1,1,-1,1l1,1l0,1l0,1c0,1,0,1,0,1ZM219.5,382.5l6,-3c-1,1,-1,1,-1,1l-5,3ZM258.5,394.5c0,0,0,1,0,1l1,0c0,-1,0,-1,0,-1l-1,0ZM259.5,402.5c-1,0,-1,0,-1,0c0,0,-1,0,-1,0c0,1,-1,1,-1,1l-1,0c0,0,-1,-1,-1,-1c-1,0,-1,0,-1,0l0,-1c0,1,0,1,1,1c1,0,1,0,1,0c0,0,1,0,1,0c0,-1,0,-1,0,-1c1,0,1,0,1,0c0,0,1,-1,1,-1c0,0,1,0,1,-1l0,-1c1,0,1,-1,1,-1l0,-1c0,0,0,1,-1,1l-1,0c-1,0,-1,0,-1,0c0,-1,0,-1,0,-1l0,-1c0,-1,0,-1,0,-1c0,0,0,-1,1,-1c0,0,0,-1,0,-1c0,0,1,0,1,0l1,0l0,1l1,1l0,1c0,0,0,1,0,1c0,0,0,1,0,1c0,1,-1,2,-1,3l-1,1l0,1ZM256.5,388.5l4,-2l0,1c-1,0,-1,0,-1,0l-4,2ZM252.5,397.5c-1,0,-1,0,-2,0c0,0,-1,0,-1,0l-1,-1c0,1,0,1,0,1c0,0,-1,0,-1,0l-1,0c0,1,0,1,-1,1c0,0,-1,0,-1,0l-1,0c0,0,-1,0,-1,0c0,-1,-1,-1,-1,-1c0,0,0,1,-1,1l0,1c0,0,-1,-1,-2,-1c0,0,-1,0,-1,-1l0,1l-1,1l-1,1c0,0,-1,0,-2,0c-1,1,-2,1,-4,1l5,-2l1,-1c1,0,1,-1,2,-1l0,-2c1,0,1,-1,1,-1c0,0,1,0,1,0l1,0l1,1c0,0,1,1,1,1l1,0l1,0c1,0,1,0,1,0c1,0,1,0,1,0c0,0,0,-1,0,-1c0,0,0,-1,0,-1l1,-1l0,-1l1,0c-1,0,-1,-1,-1,-1l1,0c0,-1,0,-1,0,-1c1,0,2,0,2,1c1,0,1,1,2,1c0,1,1,1,1,2c0,1,0,1,0,1c0,0,0,1,0,1l0,1c-1,0,-1,0,-1,0ZM248.5,393.5c0,0,-1,0,-1,1c1,1,1,1,1,1c0,0,1,0,1,0c0,-1,0,-1,0,-1c0,0,0,-1,0,-1l-1,0ZM250.5,393.5c0,1,0,1,0,1c0,1,0,1,0,1l2,1c0,-1,0,-1,0,-1c0,0,-1,-1,-1,-1c-1,-1,-1,-1,-1,-1ZM245.5,379.5c0,-1,0,-1,1,-1c0,0,0,-1,0,-1l1,0l0,1l0,1l0,1l0,1l0,1l-1,-1l-1,1c0,0,0,1,-1,1l-1,0l1,-1c0,0,1,0,1,0l0,-1l1,0l-1,0l0,-1l0,-1ZM246.5,379.5l0,1l0,-1ZM240.5,397.5l0,-1c-1,-1,-1,-1,-1,-1l-1,0c0,0,0,1,0,1l1,0ZM168.5,384.5l1,0c0,-1,1,-1,1,-1c1,0,1,0,2,1c0,1,0,1,-1,1c0,1,0,1,0,1l-1,0c0,0,-1,0,-1,0c-1,0,-1,0,-1,0l2,0c0,0,1,-1,1,-1l-1,0c-1,0,-1,0,-2,0l0,-1ZM236.5,387.5c1,0,1,-1,2,-1c0,0,1,1,1,1c1,0,1,0,1,0l0,1c0,0,-1,0,-1,1c-1,0,-1,0,-1,0c-1,0,-1,0,-1,0l-1,0l1,0c1,0,2,-1,2,-1c0,0,-1,0,-1,0l-1,0l-1,0l-1,0l0,-1l1,0ZM325.5,393.5c0,0,0,1,0,1c0,0,0,1,1,1l0,-1c0,0,0,-1,-1,-1ZM325.5,401.5l0,1c0,0,-1,0,-1,0c0,0,-1,0,-1,0l-1,0c0,0,-1,0,-1,0c-1,0,-1,0,-1,-1l1,0c1,0,1,0,1,0c0,0,1,0,1,0c0,0,1,0,1,0c0,-1,1,-1,1,-1c0,-1,1,-1,1,-1c0,0,0,-1,0,-1c1,-1,1,-1,1,-2l-1,0l0,1l-1,0l0,-1c-1,0,-1,0,-1,0c0,-1,0,-1,0,-1c0,0,0,-1,0,-1c0,-1,0,-1,0,-2c1,0,1,0,1,0c0,0,1,-1,1,-1l1,1c0,1,0,1,0,1c1,1,1,1,1,1c0,1,0,1,0,2l0,1c0,1,-1,1,-1,2c0,1,0,1,-1,1c0,1,0,1,-1,1ZM323.5,388.5l4,-2c-1,0,-1,1,-1,1l-4,2ZM312.5,401.5l-2,-1l1,-1l1,0ZM319.5,395.5l-2,0c0,0,-1,0,-2,0c-1,0,-1,0,-1,0l-1,0l0,1l-1,0c0,0,-1,0,-1,1c0,0,-1,0,-1,0c-1,0,-2,0,-3,0l-1,0c0,0,-1,0,-1,0c0,0,-1,0,-1,0l0,-1l-1,0l0,1c-1,0,-1,0,-1,0c-1,0,-1,0,-2,0l-2,0c0,1,0,1,0,2l0,1c-1,0,-1,1,-1,1c0,0,-1,0,-1,1l-1,0c0,0,0,1,0,1c-1,0,-1,0,-1,0c0,0,-1,0,-1,0c-1,0,-1,0,-2,-1l-1,0c1,0,1,0,1,0c0,0,1,0,1,0c0,0,1,0,1,0c1,0,1,-1,1,-1c1,0,1,0,1,-1c1,0,1,0,1,0c0,-1,1,-1,1,-1c0,0,0,-1,0,-1l0,-1c0,0,-1,0,-1,0c0,0,-1,0,-1,0l0,-1c0,0,0,-1,0,-1c0,0,0,-1,0,-1c0,0,0,-1,0,-1c1,0,1,0,1,0l1,0c0,0,1,0,1,0c0,1,0,1,0,1l0,1l0,1c1,0,1,0,2,0c1,0,1,0,1,0c1,0,1,-1,2,-1c1,0,1,0,1,0l1,0l0,1c0,0,1,0,1,0l1,0l1,0c1,0,1,0,2,-1c0,0,1,0,1,0l2,-1l1,0l-2,0l-1,-1l-1,0c-1,0,-1,0,-1,0l-1,0c0,0,0,-1,1,-1l1,-1c1,0,1,0,1,0c0,0,1,0,1,0l0,1l2,1l1,0c1,0,1,0,1,0c0,0,1,0,1,0c1,0,1,0,2,0l1,0ZM310.5,382.5c0,-1,0,-1,1,-1c0,0,0,-1,1,-1l0,1c0,1,0,1,0,1l0,1l0,1l0,1l-1,-1l-1,1c0,0,0,1,-1,1l-1,0l1,0l0,-1c0,0,1,0,1,0l0,-1l1,0l-1,0l0,-1l0,-1ZM311.5,382.5l0,1l0,-1ZM303.5,393.5l-1,-1l0,-1l2,1ZM303.5,382.5c0,-1,0,-1,1,-1c0,0,0,-1,0,-1l1,0l0,1c0,1,0,1,0,1l0,1l0,1l0,1l-1,-1l-1,1c0,0,0,1,-1,1l-1,0l1,0l0,-1c0,0,1,0,1,0l0,-1l1,0l-1,0l0,-1l0,-1ZM304.5,382.5l0,1l0,-1ZM296.5,394.5l0,1l-1,0c0,0,1,0,1,0c0,0,0,1,0,1c0,0,1,0,1,0c0,0,0,-1,0,-1c0,0,-1,-1,-1,-1ZM290.5,396.5l0,1l-1,0c0,0,-1,0,-2,0l-1,1l-1,0c0,0,-1,0,-1,-1c0,-1,0,-1,0,-1l0,-1l1,0l0,1l1,0c0,0,1,0,1,-1c1,0,1,0,1,0c0,0,1,0,1,0c0,0,1,0,1,0c0,-1,0,-1,0,-1c-1,-1,-1,-1,-1,-2l-1,0l0,-1l-1,0l-1,0l1,-2l1,0c0,0,0,1,0,1c0,0,1,0,1,0l0,1c0,0,1,0,1,1c0,0,0,1,1,1c0,0,0,1,0,1c0,1,0,1,0,1c0,1,-1,1,-1,1ZM288.5,382.5c0,-1,0,-1,1,-1c0,0,0,-1,0,-1l1,0l0,1c0,1,0,1,0,1l0,1l0,1l0,1l-1,-1l-1,1c0,0,0,1,-1,1l-1,0l1,-1c0,0,1,0,1,0l0,-1l1,0l-1,0l0,-1l0,-1ZM289.5,382.5l0,1l0,-1ZM279.5,398.5c0,0,-1,0,-1,-1c-1,0,-1,-1,-1,-2l0,-1l0,-1l1,0l0,-2c1,0,1,-1,1,-1c1,0,1,1,2,1c0,1,1,1,1,2l0,1c0,2,-1,3,-2,3c0,1,0,1,-1,1ZM279.5,393.5c0,0,-1,0,-1,0c0,0,0,1,0,1c0,1,0,1,0,1l0,1l1,0l1,0l0,-1c1,0,1,0,1,0c0,0,0,-1,-1,-1c0,-1,0,-1,-1,-1Z" class="g2_75" />
<path fill-rule="evenodd" d="M410.5,590.5c-1,0,-2,0,-2,0c-1,-1,-1,-2,-1,-2l0,-9l1,-2l0,10l0,1l1,0c0,0,0,1,1,1l1,0l1,0c1,0,1,-1,1,-1l1,0l0,-1c0,-1,1,-1,1,-2c1,0,1,0,1,0c0,0,1,0,1,0c0,1,0,1,1,2l0,1c0,1,0,1,0,1c-1,0,-1,0,-1,1l-1,0l0,-1c-1,0,-1,0,-1,0l-1,0c-1,0,-1,1,-1,1l-1,0l-1,0ZM116.5,580.5c0,-1,0,-1,-1,-1c0,0,-1,0,-2,1l0,1l0,-1c0,-1,0,-1,0,-1l0,-1l-1,-1c0,0,0,-1,1,-1l-1,-1l0,1c0,0,0,1,0,1l0,2l0,1l0,1c0,1,0,1,-1,1l-1,0c0,1,1,1,1,1l1,0l1,0c0,0,1,-1,1,-1c1,0,1,0,2,0l0,-1l0,-1ZM115.5,580.5c0,0,1,0,1,1c-1,0,-1,0,-2,0l-1,1c0,0,-1,0,-1,0l1,-1l1,-1ZM104.5,586.5c0,1,0,1,-1,1c1,0,1,0,1,0l1,0l0,-1c0,0,-1,0,-1,0ZM104.5,594.5c-1,0,-1,1,-1,1c-1,0,-1,0,-2,0c-1,0,-1,0,-2,0c0,-1,0,-1,-1,-1l1,0c1,0,1,0,1,0c0,0,1,0,1,0c1,0,1,0,1,0c0,0,0,-1,1,-1l1,-1c1,-1,1,-1,1,-1c0,-1,1,-2,1,-2l-1,0c0,0,-1,0,-1,0c0,0,-1,0,-1,0l0,-1c-1,0,-1,0,-1,0l0,-1l1,0c0,-1,0,-1,0,-2c0,0,1,0,1,-1l1,0c0,1,1,1,1,1c0,0,0,1,0,1c0,0,0,1,0,1c0,1,0,1,0,1c0,1,0,1,0,1c0,1,0,2,0,3c-1,0,-1,1,-1,1c0,0,-1,1,-1,1ZM101.5,580.5l5,-2l-1,1l-4,2ZM95.5,589.5l1,-1c1,0,1,0,1,0l0,-1l0,-2l0,-6c-1,-1,-1,-1,-1,-1c0,0,1,-1,1,-1l0,-1c0,0,0,1,0,1l1,0c0,1,0,1,1,1c-1,0,-1,1,-1,1l0,1c0,0,0,1,0,2c0,0,0,1,0,2c0,1,0,1,0,2l0,1l0,1l0,1l-1,0c0,1,0,1,0,1c-1,0,-1,0,-1,0c-1,0,-1,0,-1,0l-1,0c-1,0,-1,0,-1,0c0,0,-1,0,-1,0c0,-1,0,-1,0,-1c-1,0,-1,0,-1,0c0,0,-1,0,-1,0c0,1,0,1,-1,1l-1,0l-1,0l-11,0c0,0,0,1,0,1c-1,1,-1,1,-1,1l0,-1l0,-1l-1,0c0,-1,0,-1,0,-1l-1,0c0,0,0,1,-1,1l-1,0l-1,0c0,0,-1,0,-1,0l-1,0c0,0,0,-1,0,-1c-1,-1,-1,-1,-1,-1l0,-1c0,1,0,1,-1,1l-1,0c0,0,0,1,-1,1l0,1c0,1,0,1,0,2c-1,0,-1,0,-1,1l-1,0c0,0,0,1,0,1l-1,0l0,1c-1,0,-1,0,-1,0c0,0,-1,0,-1,0l-1,0l-1,0c0,-1,0,-1,0,-1c-1,0,-1,0,-1,0c0,0,1,0,1,0l1,0l1,0c0,0,1,0,1,-1c1,0,1,0,1,-1c1,0,1,0,1,-1c1,0,1,-1,1,-1c0,-1,0,-1,0,-1l0,-2l1,0c0,0,1,0,1,0c1,0,1,-1,1,-1l1,0l0,-1c1,0,1,0,1,0l0,1l0,1l0,1l1,0c1,1,1,1,1,1l1,0l0,-1l1,0c0,0,1,0,1,0c1,-1,1,-1,1,-1c0,0,0,1,1,1c0,0,0,1,0,1l2,-1l0,-1l1,0l1,-1c1,-1,1,-1,2,-1c0,0,1,-1,1,-1l1,0c0,0,1,0,1,1c1,0,1,0,1,1l0,1c0,1,0,1,0,1l-1,1l2,0l1,0l1,0c0,0,1,-1,1,-1c0,0,1,0,1,0c1,0,1,0,1,0c0,-1,0,-1,1,-1c0,1,0,1,0,1l1,0c0,0,0,1,1,1l1,0ZM96.5,574.5l4,-2l-1,1l-4,2ZM91.5,586.5l-2,-1l1,-2l1,1ZM88.5,580.5l5,-2l-1,1l-4,2ZM84.5,587.5c-1,-1,-1,-1,-2,-1c0,0,-1,0,-1,0c-1,1,-1,1,-2,1l-1,1l-1,1l1,0l1,0l1,0c0,0,1,0,1,-1l1,0l1,0c1,0,1,0,1,-1ZM74.5,579.5c1,0,1,0,1,0c1,0,1,0,2,0c0,0,1,0,1,0c1,0,1,0,1,1c0,0,-1,1,-1,1l-1,0l0,1c-1,0,-1,0,-1,0l-1,0l1,-1c1,0,2,0,2,-1c0,0,-1,0,-1,0l-1,0c0,0,-1,0,-1,0l-1,0c0,0,0,-1,0,-1ZM67.5,594.5l-1,-1l1,-1l1,1ZM71.5,596.5l-4,2c1,-1,1,-1,1,-1l4,-2ZM60.5,580.5l5,-2l-1,1l-4,2ZM45.5,588.5l-2,-1l1,-1l2,1ZM57.5,591.5c0,0,0,1,-1,1l-1,1l-1,0c0,0,-1,0,-1,1c-1,0,-2,0,-3,0c-1,1,-2,1,-3,1c-1,0,-1,0,-2,0c-1,0,-1,0,-2,0c-1,0,-1,0,-2,0c-1,0,-1,0,-2,0c-1,0,-2,-1,-2,-1c-1,0,-2,0,-3,0c-1,-1,-2,-1,-3,-2c-1,0,-2,-1,-3,-2c0,0,0,-1,0,-1c1,0,1,1,1,1c0,0,1,0,1,0c1,1,1,1,2,1c1,1,2,1,2,1c0,0,1,0,2,0c0,1,1,1,1,1c1,0,2,0,2,0c1,0,2,0,2,0c1,0,2,0,2,0c1,0,1,0,2,0c1,0,1,0,2,0c1,0,2,0,2,0c1,0,2,-1,3,-1c1,0,2,0,3,-1c1,0,2,-1,2,-1c0,-1,0,-1,0,-1c0,-1,0,-1,0,-1c0,-1,-1,-1,-1,-1l0,-1l0,-2l1,2l1,0c0,0,0,1,0,1c0,1,0,1,0,1c0,0,0,1,0,1c0,1,0,1,-1,2ZM35.5,578.5c0,1,0,1,0,1c0,0,1,0,1,0c0,-1,0,-1,0,-1l0,-1l1,0l0,1c0,0,1,0,1,-1l0,-1l0,1l0,1c0,1,0,1,0,1l-1,0l-1,0c0,1,-1,1,-1,1c0,0,0,-1,0,-1l0,-1ZM39.5,575.5l-6,3c1,-1,1,-2,1,-2l6,-3ZM144.5,589.5c0,1,-1,1,-1,1l-1,0l-1,0c-1,0,-1,0,-1,0c0,0,-1,0,-1,0l0,-1c-1,0,-1,0,-1,0l-1,0c0,1,0,1,-1,1l-1,0c0,0,-1,0,-1,0c-1,0,-1,-1,-1,-2c0,1,-1,1,-1,2c0,0,-1,0,-1,0l-1,0l-1,0c-1,-1,-1,-1,-1,-1c0,0,-1,0,-1,1c0,0,-1,0,-1,0l-1,0l-1,0c-1,0,-2,0,-2,0c-1,-1,-1,-2,-1,-2l-1,-9l1,-2l1,10l0,1c1,0,1,1,2,1l1,0l1,0c0,0,0,-1,0,-1c1,0,1,0,1,0c0,0,1,0,1,-1l0,1c0,0,1,0,1,0c1,0,1,1,1,1c1,0,1,-1,1,-1c1,0,1,0,1,0c0,-1,0,-1,0,-1l0,-1c0,-1,0,-1,0,-1l0,-7l1,-2l0,11c0,0,1,0,1,1c0,0,1,1,1,1c1,0,1,-1,1,-1c1,0,1,0,2,0c0,-1,1,-1,1,-1l0,1c0,0,1,0,1,0c0,0,0,1,1,1l1,0c0,0,1,-1,1,-1c0,0,1,0,1,0c0,0,1,-1,1,-1l0,1l1,0c1,0,1,0,2,0c1,0,1,-1,1,-1l0,-1l0,1l1,0l0,1l1,0c0,0,1,0,1,0l-1,-1l1,-1l0,1l0,1c0,0,0,1,0,1c0,0,0,1,0,1c0,0,-1,0,-1,0l-1,0l-1,0l0,-1l-1,0l0,1l-1,0c0,0,-1,0,-1,0c-1,0,-1,0,-1,0c0,-1,0,-1,0,-1c0,0,-1,0,-1,0ZM147.5,574.5c0,-1,1,-1,1,-1c1,0,1,1,1,1c0,0,0,1,0,1l-1,0c0,1,0,1,0,1l1,0l0,2l-1,-1l-1,0l0,1c-1,0,-1,0,-1,1l-1,0l-1,0l1,-1l1,0l0,-1l1,0l0,-1c-1,0,-1,0,-1,-1l1,-1ZM148.5,575.5l0,-1l-1,0l0,1l1,0l0,1l0,-1ZM138.5,594.5l-1,-1l1,-1l1,1ZM137.5,574.5c0,-1,1,-1,1,-1c1,0,1,1,1,1c0,0,0,1,0,1c-1,1,-1,1,-1,1l1,0l0,2l-1,-1l-1,0l0,1c-1,0,-1,0,-1,1l-1,0c-1,0,-1,0,-1,0l1,-1l1,0l0,-1l1,0l0,-1c-1,0,-1,0,-1,-1l1,-1ZM138.5,575.5l0,-1l-1,0l0,1l1,0l0,1l0,-1ZM130.5,574.5l4,-2l0,1l-1,0l-4,2ZM127.5,586.5l-1,-1l1,-2l1,1ZM124.5,577.5l4,-2l0,1l-4,2ZM199.5,590.5l-1,0c0,0,0,-1,-1,-1c-1,0,-1,0,-2,0c-1,0,-1,0,-1,0c0,1,-1,1,-1,1l-1,0l-1,0l-1,0l-1,0l-1,0c0,0,-1,0,-1,0l0,-1c0,0,0,-1,0,-1l-1,0l0,1l-1,0c0,1,-1,1,-1,1c0,0,-1,0,-2,0l-1,0l-1,0c0,-1,0,-1,0,-1l0,-1c0,0,0,-1,0,-1l1,0l0,1l1,0l1,0c1,0,1,0,1,0l1,0l1,0c0,-1,0,-1,0,-1c0,0,0,-1,0,-1l0,-2l0,-1l0,-1l0,-1l1,2l0,1l0,2c0,1,0,1,0,1c1,0,1,0,1,1c1,1,1,1,1,1l1,0l1,0c1,-1,1,-1,1,-1c0,0,1,0,1,0l0,-1l0,-1c0,0,0,-1,0,-1c1,0,1,0,1,0l0,-1c0,-1,0,-1,0,-1l1,-1c1,0,1,1,2,1c1,1,1,1,1,2c1,0,1,1,1,1c1,0,1,0,1,1l0,1c0,0,0,1,0,1c-1,0,-1,0,-1,0c0,1,0,1,0,1ZM195.5,585.5c-1,0,-1,1,-1,1c0,0,0,1,0,1c0,0,1,0,1,0l1,0c0,0,0,-1,0,-1l0,-1c-1,0,-1,0,-1,0ZM197.5,586.5l0,1l1,1l1,0l0,-1c-1,0,-1,0,-1,0c0,-1,0,-1,-1,-1ZM194.5,577.5l4,-2l0,1l-1,0l-4,2ZM184.5,577.5c0,-1,0,-1,0,-2c0,0,0,-1,0,-1l0,-1c0,0,1,0,1,1l0,1c0,1,0,1,0,1c0,1,0,1,-1,1ZM248.5,575.5c0,-1,0,-1,0,-2c0,-1,-1,-1,-1,-2l1,0l0,-1c0,1,0,1,0,1c0,1,0,1,0,1l1,1l0,1c0,0,-1,0,-1,0c0,1,0,1,0,1ZM174.5,590.5l-1,0l-1,0c0,0,-1,0,-1,0l-1,0c0,-1,0,-1,0,-1c-1,0,-1,0,-1,0l-1,0c0,1,0,1,-1,1l-1,0l-1,0c-1,0,-2,0,-2,0c-1,-1,-1,-2,-1,-2l-1,-9l1,-2l1,10l0,1c1,0,1,1,2,1l1,0c0,0,1,-1,1,-1c1,0,1,0,2,0c0,-1,1,-1,1,-1c0,1,0,1,0,1c0,0,1,0,1,0c0,0,0,1,1,1l1,0l1,0c0,0,1,-1,1,-1c1,0,1,0,1,0c0,0,0,-1,0,-1c0,-1,0,-1,0,-1l0,-2c0,0,1,0,1,0c0,1,0,1,0,1l0,1l0,1c0,1,0,1,0,1l0,1c-1,0,-1,1,-2,1c0,0,-1,0,-1,0ZM169.5,586.5l-2,-1l1,-2l2,1ZM167.5,580.5l4,-2l0,1c0,0,-1,0,-1,0l-4,2ZM230.5,586.5c-1,1,-1,1,-1,1c0,0,1,0,1,0c1,0,1,0,1,0l-1,-1ZM230.5,594.5l-1,0c0,0,0,1,0,1c-1,0,-1,0,-2,0c-1,0,-1,0,-2,0c0,-1,0,-1,-1,-1c1,0,1,0,1,0c0,0,1,0,1,0l1,0c0,0,1,0,1,0c0,0,0,-1,0,-1c1,0,1,0,2,-1c0,-1,1,-1,1,-1c0,-1,0,-2,0,-2c-1,0,-1,0,-1,0l-1,0c0,0,-1,0,-1,-1l0,-1c1,-1,1,-1,1,-2l1,-1c1,0,1,0,1,0c0,1,0,1,1,1c0,0,0,1,0,1c0,0,0,1,0,1c0,1,0,1,0,1c0,1,0,1,0,1c0,1,0,2,-1,3c0,0,0,1,0,1c0,0,-1,1,-1,1ZM227.5,580.5l4,-2l0,1l-4,2ZM223.5,580.5l-1,0l-1,1l-1,-1l0,-2l2,1l1,-1l1,1ZM225.5,588.5c-1,0,-1,1,-1,1c-1,1,-1,1,-2,1c-1,0,-1,0,-2,0l-1,0l-1,0l-1,0c0,0,-1,0,-1,0l0,-1c0,0,0,-1,0,-1l-1,0l0,1l-1,0c0,1,-1,1,-1,1c0,0,-1,0,-2,0l-1,0l-1,0c0,-1,0,-1,0,-1l0,-1c0,0,0,-1,0,-1l1,0l0,1l1,0l1,0c1,0,1,0,1,0l1,0c0,0,1,0,1,0c0,-1,0,-1,0,-1c0,0,0,-1,0,-1l0,-2l0,-1l0,-1l0,-1l1,2l0,1l0,2c0,1,0,1,1,1l0,1l1,0c0,1,0,1,0,1l1,0l1,0c1,0,1,-1,2,-1c1,0,1,0,2,0c0,-1,0,-1,0,-1l0,-1l-1,0l0,1c0,0,-1,0,-1,0l-1,0c0,-1,0,-1,0,-1c0,0,-1,-1,-1,-1c0,0,1,-1,1,-1l0,-1c1,-1,1,-1,2,-1l1,0c0,0,0,1,0,1c0,0,0,1,0,1l1,0c0,1,0,1,0,1c0,1,0,1,0,2l0,1ZM221.5,584.5c1,0,1,0,1,0c0,1,0,1,0,1c0,0,1,0,1,0l0,-1c0,0,-1,0,-1,0l-1,0ZM220.5,574.5l5,-2l-1,1l-4,2ZM211.5,575.5c1,0,1,0,1,-1c1,0,1,0,2,0c0,0,1,0,1,1c1,0,1,0,1,0c-1,1,-1,1,-1,1c0,1,0,1,-1,1c-1,0,-1,0,-1,0l-1,0l1,0c1,-1,2,-1,2,-1c0,0,-1,0,-1,0l-1,0c0,0,-1,0,-1,0l-1,0c0,0,0,-1,0,-1ZM257.5,590.5l0,-1l0,-1l-1,-8l1,-3l1,11c0,0,-1,0,-1,0c0,1,0,1,0,1c0,1,0,1,0,1ZM252.5,590.5l-1,0l-1,-1c0,0,-1,-1,-1,-1c0,0,0,1,0,1c-1,1,-2,1,-2,1c-1,0,-1,0,-2,0c0,-1,-1,-2,-1,-3l0,1c0,0,0,1,-1,1c0,0,-1,0,-1,0c-1,0,-1,0,-1,0c-1,0,-1,0,-1,-1c0,0,0,-1,0,-1c1,0,1,-1,1,-1c1,0,1,-1,2,-1l0,-1l1,0l0,-1c0,-1,1,-1,1,-1l0,1l0,1l0,3c0,0,1,1,1,1l1,0c0,0,1,0,1,0c0,0,1,-1,1,-1c0,-1,0,-1,0,-3c0,0,-1,-1,-1,-1c0,0,0,-1,0,-1l1,-1l0,-1l0,2l1,2l0,2c0,1,0,1,0,1c0,0,1,1,1,1l1,0l1,0c0,-1,0,-1,0,-1c0,0,0,-1,0,-1l-1,-2l0,-1l0,-1l0,-1l0,-1c0,1,0,1,1,1c0,1,0,1,0,2l0,2c0,0,0,1,0,1c0,1,0,2,0,2c0,1,0,1,0,1c-1,0,-1,1,-1,1ZM244.5,585.5c-1,1,-1,1,-1,1l-1,0c0,0,0,1,-1,1c1,0,2,0,2,0c1,0,1,0,1,-1ZM246.5,576.5l0,1c1,1,1,1,1,1c0,-1,1,-1,1,-1l0,-1l1,1c0,0,1,0,1,-1l0,-1l0,1l0,1c0,1,0,1,0,1l-1,0l-1,0l0,1c-1,0,-1,0,-1,0c-1,0,-1,0,-1,0l0,-1l0,-1l0,-1ZM244.5,593.5l-4,2c1,0,1,-1,1,-1l4,-2ZM284.5,587.5c0,0,-1,1,-2,1c-1,1,-2,1,-3,2c-2,0,-3,0,-3,0l-1,0c-1,0,-1,0,-1,0c-1,-1,-1,-1,-1,-2c0,0,-1,1,-1,1c0,0,0,1,0,1c-1,0,-1,0,-1,0l-1,0c0,0,1,0,1,0c0,0,1,0,1,0c0,1,0,1,1,1l0,1l0,1c-1,0,-1,1,-1,1l-1,1c-1,0,-1,0,-2,1c-1,0,-2,0,-3,0c-1,0,-1,0,-2,0c-1,0,-1,-1,-2,-1c0,0,0,-1,0,-1c-1,-1,-1,-1,-1,-1l0,-1c0,0,0,-1,1,-2c0,-1,0,-1,1,-2c0,1,0,1,-1,2c0,1,0,1,0,1c0,1,0,1,0,1c0,1,1,1,1,1c1,1,2,1,3,1l1,0l1,0c0,0,1,0,1,0c1,0,1,-1,2,-1c0,0,1,0,1,-1c-1,0,-1,0,-2,0c0,0,-1,0,-1,0c0,-1,0,-1,0,-1c0,0,0,-1,0,-1c0,0,0,-1,0,-1c1,0,1,0,2,0l0,-1c0,0,1,0,1,0c0,-1,0,-1,0,-1c0,0,0,-1,0,-1l0,-1l0,-7l1,-2l0,11c0,0,1,0,1,1c0,0,1,1,1,1l1,-1c1,0,2,0,2,0c-1,0,-1,-1,-1,-1c0,-1,0,-1,0,-1c0,-1,0,-1,0,-1c0,0,0,-1,0,-1c0,-1,1,-1,1,-1l1,-1c1,0,1,0,1,0c1,0,1,0,1,0l1,0c0,0,1,1,1,1l0,1l-1,-1l-1,0l-1,0c-1,0,-1,0,-1,0c0,0,0,1,0,1c-1,0,-1,0,-1,0l0,1c0,0,0,1,1,1c0,0,1,1,1,1c1,0,1,0,1,0l1,0l1,-1l1,0l1,-1ZM276.5,577.5l4,-2l0,1l-4,2ZM269.5,574.5l5,-2l-1,1l-4,2ZM348.5,583.5l-2,-1l1,-1l2,1ZM347.5,590.5l-1,0l-1,0c-1,0,-1,0,-1,0c0,0,-1,0,-1,0l0,-1c-1,0,-1,0,-1,0c0,0,-1,0,-1,0c0,1,0,1,-1,1l-1,0l-1,0c0,1,0,1,-1,1c0,1,0,1,0,1c0,1,-1,1,-1,2l-1,1c-1,0,-1,0,-1,0c0,0,-1,0,-1,1l-1,0c0,0,-1,-1,-2,-1l-1,0c0,0,1,0,1,0c0,0,0,-1,0,-1c0,1,0,1,0,1c1,0,1,0,1,0c0,0,1,0,1,-1c1,0,1,0,2,0c0,0,0,-1,1,-1l0,-1c1,0,1,0,1,0c0,-1,0,-1,0,-1l1,0c0,-1,0,-1,0,-1l-1,0c-1,0,-1,0,-1,0c-1,0,-1,-1,-1,-1c0,-1,0,-1,0,-1c0,-1,0,-1,0,-1l0,-1c0,0,1,0,1,0l0,-1c1,0,1,0,1,0l1,1c0,0,0,1,0,1l1,0c0,1,0,1,0,2c0,0,1,0,1,0c1,0,1,-1,1,-1c1,0,1,0,2,0c0,-1,1,-1,1,-1l0,1c0,0,1,0,1,0c0,0,0,1,1,1l1,0l1,0c1,0,1,-1,2,-1c0,0,1,0,1,0c0,0,0,-1,0,-1c-1,-1,-1,-1,-1,-1l1,-2c0,1,0,1,0,1l0,1l1,0l0,1c0,1,0,1,-1,1l0,1c0,0,-1,1,-1,1c-1,0,-1,0,-2,0ZM347.5,577.5l4,-2l0,1l-4,2ZM343.5,585.5l-1,-1l-1,1l-1,-1l0,-1l2,1l1,-1l1,1ZM340.5,577.5l4,-2l0,1l-4,2ZM335.5,587.5l0,1c1,0,1,0,1,0c1,0,1,0,1,0l-1,0c0,0,0,-1,0,-1l-1,0ZM332.5,580.5l4,-2l0,1l-4,2ZM327.5,589.5c0,0,-1,0,-2,0c-1,0,-2,0,-4,0c-1,0,-2,1,-2,1c-1,0,-1,0,-1,0c-1,0,-1,0,-1,0c-2,0,-3,0,-5,0c-1,0,-2,0,-3,0c-1,0,-2,0,-3,0l-1,0l-1,0l-1,0c0,0,0,-1,-1,-2l1,2l0,1c-1,0,-1,1,-1,1c0,1,-1,1,-1,2l-1,0c0,1,0,1,-1,1c0,0,-1,0,-1,0c-1,0,-1,0,-1,0l-1,0l-1,0c-1,0,-1,0,-2,-1l0,-1c0,0,-1,0,-1,-1c0,-1,1,-1,1,-2c0,0,0,-1,0,-1l1,-1l0,1l0,1c-1,0,-1,1,-1,1c0,1,1,1,1,2c1,0,1,0,2,0l1,0c1,0,2,0,3,0c0,-1,1,-1,1,-1c1,-1,1,-1,1,-1l0,-1l0,-2c0,-1,0,-1,0,-2c0,0,0,-1,-1,-1l0,-7l1,-2l1,11c0,1,0,1,0,1l1,0c0,0,0,1,1,1l0,-1c0,0,1,0,1,0l1,0c1,0,2,0,3,0c0,0,1,0,3,0c1,0,2,0,4,0l1,0c1,0,2,0,3,0c2,0,3,-1,4,-1c2,0,3,0,3,0c0,-1,0,-1,-1,-1c-1,0,-1,0,-1,0c-1,0,-3,0,-5,0c-2,0,-4,0,-5,0c-2,1,-4,1,-5,1c-2,0,-3,0,-4,-1c0,-1,0,-1,1,-2c0,0,0,-1,0,-1c0,0,1,0,1,-1c1,-1,2,-1,2,-2c1,-1,2,-1,3,-1c0,-1,0,-1,1,-1l-1,2l-1,1c-1,0,-2,1,-2,1c-1,1,-2,1,-2,2l-1,0l0,1l1,0l1,0c0,0,1,0,1,0l1,0c1,0,2,0,4,0c2,0,4,0,6,-1c2,0,3,0,4,0c1,0,1,0,2,1c0,0,1,0,1,0l0,1l0,1c0,0,0,1,0,1c0,1,0,1,-1,1ZM312.5,574.5l0,1c0,0,1,0,1,0l0,-1l1,0l0,1c0,0,1,-1,1,-1l0,-1l0,1l0,1c0,0,0,1,0,1l-1,0l-1,0l0,-1l0,1c0,0,-1,1,-1,1c0,0,0,-1,0,-1l0,-1l0,-1ZM316.5,571.5l-6,3c1,-1,1,-1,1,-1l6,-3ZM299.5,574.5l6,-3c-1,1,-1,2,-1,2l-5,3ZM374.5,590.5l0,-1l0,-1l-1,-8l1,-3l1,11c0,1,0,1,-1,1c0,1,0,1,0,1ZM373.5,571.5l4,-2c0,1,0,1,0,1l-5,2ZM368.5,588.5l-1,1c0,1,0,1,0,1l1,0c0,-1,0,-1,0,-1ZM369.5,591.5c-1,0,-1,0,-2,0c0,0,0,1,0,1c-1,0,-1,0,-2,0c-1,0,-1,0,-1,0c0,0,-1,-1,-1,-1c0,0,0,-1,0,-1l1,0l1,0l1,-1c0,0,1,-1,1,-1c0,-1,0,-1,-1,-1c0,-1,0,-1,0,-1c-1,-1,-1,-1,-1,-2c-1,0,-1,0,-2,-1c0,0,0,-1,-1,-1c0,0,-1,0,-1,0l-1,0c0,-1,0,-1,0,-1c0,-1,-1,-1,-1,-1c0,-1,0,-1,0,-1c0,-1,1,-1,1,-1c0,0,1,1,1,1c1,0,1,1,2,1c1,1,1,2,2,2c0,1,1,2,1,3c1,0,1,0,1,1c0,0,1,0,1,1c0,-1,0,-1,0,-2c0,0,0,-1,0,-2c0,0,0,-1,0,-1c0,-1,0,-1,0,-2c0,0,0,-1,0,-1c0,-1,0,-1,0,-1c0,0,0,-1,0,-1c1,0,1,0,1,-1c0,0,0,1,0,1c0,0,0,1,1,1c0,0,0,1,0,1l0,1c0,0,-1,0,-1,0c0,1,0,1,0,2c0,0,0,1,0,1c0,0,0,1,0,1c0,1,0,2,0,2c0,1,-1,1,-1,1c0,1,0,1,0,1c0,0,1,0,1,0c0,1,0,1,0,1l0,1l0,1ZM365.5,574.5l0,1l1,0l0,-1l1,0l0,1c1,0,1,-1,1,-1l0,-1l0,1l0,1c0,0,0,1,0,1l-1,0l0,-1l-1,1c0,0,0,1,-1,1c0,0,0,-1,0,-1l0,-1l0,-1ZM369.5,571.5l-5,3c0,-1,0,-1,0,-1l6,-3ZM394.5,589.5l1,-1c1,0,1,0,1,0l0,-1l0,-2l0,-6c-1,-1,-1,-1,-1,-1c0,0,1,-1,1,-1l0,-1c0,0,0,1,0,1l1,0c0,1,0,1,1,1c-1,0,-1,1,-1,1l0,1c0,0,0,1,0,2c0,0,0,1,0,2c0,1,0,1,0,2l0,1l0,1l0,1l-1,0c0,1,0,1,0,1c-1,0,-1,0,-1,0c-1,0,-1,0,-1,0l-1,0l-1,0l-1,0c0,-1,0,-1,0,-1c0,0,-1,0,-1,1c-1,0,-1,0,-1,0l-1,0l-1,0c-1,0,-2,0,-2,0c-1,-1,-1,-2,-1,-2l-1,-9l1,-2l1,10l0,1c1,0,1,1,2,1l1,0c1,0,1,-1,1,-1c1,0,1,0,1,0l1,-1l0,1c0,0,1,0,1,0c0,0,1,1,1,1l1,0ZM395.5,574.5l4,-2l-1,1l-4,2ZM390.5,586.5l-1,-1l1,-2l1,1ZM387.5,577.5l4,-2l0,1l-4,2ZM382.5,574.5c0,0,1,0,2,0c0,1,1,1,1,1l1,0l0,-1l1,0c-1,1,-1,1,-1,1l-1,0l0,1l-1,0l0,-1l-1,0l-1,0c-1,0,-1,0,-1,0c0,0,0,-1,1,-1ZM424.5,586.5c-1,0,-1,0,-1,0c0,1,0,1,0,1l1,0l0,-1ZM424.5,594.5c-1,0,-1,0,-1,0c0,0,0,1,-1,1c0,0,-1,0,-1,0l-1,0c0,0,-1,0,-1,0c-1,-1,-1,-1,-1,-1l1,0c1,0,1,0,1,0c0,0,1,0,1,0c1,0,1,-1,1,-1c0,0,1,0,1,-1c1,0,1,0,1,0c0,-1,0,-1,1,-1c0,-1,0,-2,0,-2c0,0,-1,0,-1,0l-1,0c0,0,-1,0,-1,0l0,-1l0,-1c0,-1,0,-1,1,-2l0,-1c1,0,1,0,1,0c0,0,1,0,1,0c0,1,0,1,0,1c0,0,1,1,1,1c0,0,0,1,0,1c0,1,0,1,0,1c0,1,0,1,0,1c0,1,-1,2,-1,3c0,0,0,1,-1,1c0,0,0,1,0,1ZM421.5,580.5l4,-2l0,1l-1,0l-4,2ZM415.5,587.5l1,1l1,0l0,-1c-1,0,-1,0,-1,0c-1,0,-1,0,-1,0ZM412.5,577.5l4,-2l0,1l-4,2Z" class="g2_75" />
</svg>