<?xml version="1.0" encoding="UTF-8" standalone="no"?>
<!DOCTYPE svg PUBLIC "-//W3C//DTD SVG 1.1//EN"
"http://www.w3.org/Graphics/SVG/1.1/DTD/svg11.dtd">
<svg version="1.1" xmlns="http://www.w3.org/2000/svg" xmlns:xlink="http://www.w3.org/1999/xlink">
<defs>
<style type="text/css"><![CDATA[
.g1_40{
stroke: #1F1A17;
stroke-width: 1;
stroke-linecap: butt;
stroke-linejoin: miter;
}
]]></style>
</defs>
<path fill-rule="evenodd" d="M352.5,573.5l4,-3l-1,1l0,1l-4,2ZM318.5,571.5c0,0,1,-1,1,-1c1,0,1,0,1,0c1,0,1,0,2,0c0,1,0,1,0,1c0,1,0,1,0,1c0,0,-1,1,-1,1c0,0,-1,0,-1,0l-1,0l-1,0l2,0c1,-1,1,-1,2,-1c-1,0,-1,0,-1,-1c0,0,-1,0,-1,0c0,0,-1,0,-1,1c0,0,-1,0,-1,0c0,-1,0,-1,0,-1ZM256.5,572.5c0,-1,0,-1,1,-1l1,0c0,0,1,0,1,0c1,0,1,1,1,1c0,1,-1,1,-1,1c0,0,0,1,0,1c-1,0,-1,0,-1,0c-1,0,-1,0,-1,0l-1,0l1,-1c1,0,2,0,2,0c0,-1,-1,-1,-1,-1l-1,0l-1,0c0,0,0,1,-1,1l0,-1l1,0ZM99.5,572.5c1,0,1,0,1,0c1,0,1,0,2,0c0,0,1,0,1,0c0,0,1,0,1,1c-1,0,-1,1,-1,1l-1,1c-1,0,-1,0,-1,0l-1,0l1,-1c1,0,1,0,2,-1c0,0,-1,0,-1,0l-1,0c0,0,-1,0,-1,0l-1,1l0,-1l0,-1ZM90.5,585.5l-1,0l-1,0l-1,-1c-1,1,-1,1,-1,1l0,1l-1,0l-1,0l-1,0l0,1c0,1,-1,2,-1,2c0,1,-1,1,-1,2c-1,0,-1,1,-2,1c-1,0,-2,1,-2,1c-1,0,-1,0,-2,-1c-1,0,-1,0,-2,0c0,-1,0,-1,-1,-2c0,0,0,-1,0,-1c0,-1,0,-1,0,-1c0,-1,0,-1,0,-1c0,-1,1,-1,1,-1c0,-1,0,-1,0,-1l1,0c0,0,0,1,-1,1l0,1c0,0,0,1,0,1c0,0,0,1,0,1c0,0,1,1,1,1c1,0,1,0,1,0c0,1,1,1,2,1c1,0,2,0,2,-1c1,0,2,0,2,-1c0,0,1,0,1,0c0,0,0,-1,0,-1c0,-1,0,-1,0,-1c0,-1,0,-1,-1,-1l0,-1l0,-2c0,0,1,0,1,0c0,1,0,1,1,1l1,0l1,0c1,0,1,0,1,0l0,-1l1,-1c0,0,1,-1,1,-1c1,-1,1,-1,1,-1c0,0,1,0,1,1c0,0,0,1,1,1l0,1l0,1c-1,1,-1,1,-1,1ZM88.5,583.5l1,0l1,0c0,0,-1,0,-1,0c0,0,0,-1,0,-1c-1,0,-1,0,-1,0l0,1ZM86.5,571.5l0,1l1,0l0,-1l1,0l0,1c0,0,1,-1,1,-1l0,-1l0,1l0,1c0,0,0,1,-1,1l-1,0l0,-1l0,1c0,0,-1,0,-1,0l-1,-1l1,0l0,-1ZM89.5,589.5l-4,2c0,-1,0,-1,0,-1l4,-2ZM77.5,583.5l-1,-1l1,-1l1,1ZM77.5,570.5l1,0c0,0,1,0,1,0c1,0,1,0,1,0c1,0,1,0,1,1c0,0,0,1,-1,1l-1,1c0,0,-1,0,-1,0l-1,0l2,-1c0,0,1,0,1,-1l-1,0c-1,0,-1,0,-2,0c0,0,0,-1,0,-1ZM183.5,584.5c1,0,1,0,1,0c1,0,1,0,1,0c1,0,1,0,1,-1l0,-2l0,-7c0,0,-1,0,-1,0c0,-1,0,-1,1,-1c0,-1,0,-1,0,-1c0,1,0,1,1,1c0,1,0,1,0,2c0,1,0,1,0,2c0,0,0,1,0,3c0,0,0,1,0,1l0,1c0,0,0,1,0,1c0,1,0,1,0,1c0,0,-1,0,-1,1c-1,0,-1,0,-1,1c-1,0,-1,0,-1,0l-1,0c-1,0,-1,0,-1,0c0,-1,-1,-1,-1,-1c0,0,-1,-1,-1,-1c-1,1,-1,1,-1,1l-1,0c0,1,-1,1,-1,1l-1,0l-2,0c-1,0,-2,-1,-2,-1c-1,0,-1,-1,-1,-1l0,-1c-1,0,-1,0,-1,0l-5,2c0,0,-1,0,-1,0c0,0,-1,0,-1,1l-1,0c-1,0,-1,0,-1,0l0,-1l0,1l0,1c0,0,0,1,-1,2c-1,1,-1,1,-1,1c0,1,-1,1,-1,1c0,0,-1,0,-1,0c0,0,-1,0,-1,0c-1,0,-1,0,-2,0c0,0,-1,0,-1,-1c0,0,1,0,1,0l1,0c0,0,1,0,1,0c1,0,1,0,1,0c1,-1,1,-1,1,-1c0,0,1,-1,1,-1l0,-1c1,0,1,-1,1,-1c0,0,0,-1,0,-1c0,0,-1,-1,-1,-1l1,0l0,-1l1,1l1,0c1,0,1,0,1,0c1,0,1,0,2,0c0,0,1,-1,1,-1l1,0l1,0l0,-1l-1,0c-1,-1,-2,-1,-3,-1l-1,0c0,-1,0,-1,1,-1c0,-1,1,-1,1,-1l1,0c0,1,1,1,1,1c1,0,2,1,4,1c0,0,1,0,1,0c1,0,2,0,2,0l1,0l-1,2l-1,0l-1,0l1,1l1,0l2,0c1,0,1,0,2,0c0,0,1,0,1,-1c1,0,1,0,1,0c0,0,1,0,1,0c0,0,0,1,1,1l1,0ZM184.5,569.5l5,-2l-1,1l-4,2ZM179.5,581.5l-1,-1l1,-1l1,1ZM180.5,570.5c0,-1,0,-1,0,-1c0,0,1,0,1,0c1,0,1,0,1,1l0,1c0,0,-1,0,-1,0l1,1l0,1l-1,-1l-1,1c-1,1,-1,1,-1,1l-1,0c-1,0,-1,0,-1,0l1,0l1,-1l1,-1c-1,-1,-1,-1,-1,-1l0,-1l1,0ZM181.5,570.5l-1,0l0,1l1,0l0,-1ZM168.5,578.5l-1,-1l1,-2l1,1ZM162.5,571.5c0,0,1,0,1,0c0,0,1,0,1,0c1,0,1,0,2,0c0,1,0,1,0,1l0,1c-1,0,-1,0,-1,0c-1,0,-1,0,-1,1c0,0,-1,0,-1,0c0,0,-1,0,-1,0l2,-1c1,0,1,0,1,-1c-1,0,-1,0,-1,0c-1,0,-1,0,-1,0c-1,0,-1,0,-1,0c0,-1,0,-1,0,-1ZM160.5,596.5l-4,2c0,-1,0,-1,0,-1l5,-2ZM145.5,589.5l-1,-1l1,-1l1,1ZM153.5,583.5l-2,0c-1,0,-1,0,-2,0l-1,0l-1,1l-1,0c-1,0,-1,1,-1,1c-1,0,-1,0,-1,0c-1,0,-2,1,-3,1l-1,0c-1,-1,-1,-1,-1,-1c0,0,-1,0,-1,0c0,-1,0,-1,0,-1c0,1,0,1,-1,1c0,0,-1,1,-1,1l-1,0l-1,0l-1,0l0,-1c0,0,-1,0,-1,0c0,-1,0,-1,0,-1c-1,0,-1,0,-1,0l-1,0c-1,0,-1,0,-2,0c-1,0,-1,0,-2,1c-1,0,-1,0,-2,0c-1,0,-2,0,-3,0c-1,0,-2,0,-3,0c-1,0,-2,0,-3,0c-1,0,-2,0,-3,1c0,0,-1,0,-2,0l-1,0l-2,0c-1,0,-1,-1,-2,-1l0,1l0,1c0,1,0,1,-1,1l-1,-1c0,0,0,-1,0,-2l-1,0l-1,0l-1,0l0,1l0,1c0,0,0,1,0,1l1,3l0,1c0,1,0,2,0,2l0,1l-1,0l0,-1l0,-2l0,-2l-1,-2l0,-1l0,-1c1,-1,1,-2,1,-2l1,0l0,-1l1,0l0,-1l1,0c1,0,1,1,2,1l2,1l1,0l1,0l1,0c0,0,1,0,2,0c1,0,2,0,3,0c1,0,1,0,2,0c1,0,1,0,2,0c1,0,2,-1,3,-1c0,0,1,0,2,0c1,0,2,0,3,0c1,0,2,-1,3,-1c1,0,1,0,2,0c0,0,1,0,1,0l0,-1c-1,0,-1,0,-1,0l-1,0l-1,0c-1,0,-2,0,-4,0c-2,0,-4,0,-6,1c-2,0,-4,0,-5,0c-2,0,-3,0,-3,-1c-1,0,-1,0,-1,0c0,-1,1,-1,1,-2l0,-1c1,0,1,0,2,-1c0,-1,1,-1,2,-2c1,-1,2,-1,3,-2l1,0l-1,2c0,0,-1,0,-1,1c-1,0,-2,0,-3,1c-1,1,-2,2,-2,2c0,0,0,1,0,1c0,0,1,0,1,0c1,0,1,0,2,0c1,0,2,0,4,0c2,0,4,-1,6,-1c2,0,4,0,4,0c1,0,1,0,1,0c0,0,1,0,2,0c0,1,0,1,0,1c0,0,1,0,1,1c0,1,0,1,-1,2c0,0,0,1,0,1l1,0l2,0c1,0,1,0,1,-1c0,0,1,0,1,0c0,0,0,-1,0,-1l1,0l0,1l-1,0c1,0,1,1,1,1c1,0,1,0,1,0l1,0c1,0,1,0,1,0c1,0,1,0,2,0c0,-1,1,-1,1,-1l2,0l0,-1l-1,0l-1,-1l-1,0l-1,0l-1,0c0,0,0,-1,0,-1c1,0,1,0,1,0c1,-1,1,-1,1,-1c0,0,1,0,1,0l0,1l1,0l2,1l1,0c0,0,1,0,1,0c0,0,1,0,1,0c0,0,1,1,1,1l1,0ZM144.5,573.5l4,-3l0,1l0,1l-4,2ZM137.5,581.5l-1,-1l1,-1l1,1ZM137.5,571.5l0,1c1,0,1,0,1,0l0,-1l1,0l0,1c0,0,1,-1,1,-1l0,-1l0,1l0,1c0,0,0,1,0,1l-1,0l-1,0l0,-1l0,1c0,0,-1,0,-1,0l0,-1l0,-1ZM141.5,568.5l-6,3c1,-1,1,-1,1,-1l6,-3ZM114.5,566.5c0,0,1,0,1,0c0,-1,0,-1,1,-1c0,0,0,1,0,1c0,0,0,1,0,1c0,1,0,1,0,1l1,0l-1,2l-1,-1l-1,1l0,1l-1,0l-1,0l1,-1c0,0,1,0,1,-1l1,0l-1,-1l0,-1l0,-1ZM115.5,567.5l0,-1l0,1l0,1l0,-1ZM238.5,584.5c1,0,1,0,1,0c1,0,1,0,1,0c1,0,1,0,1,-1l0,-2l0,-7c0,0,-1,0,-1,0c0,-1,0,-1,1,-1c0,-1,0,-1,0,-1c0,1,0,1,1,1c0,1,0,1,0,2c0,1,0,1,0,2c0,0,0,1,0,3c0,0,0,1,0,1l0,1c0,0,0,1,0,1c0,1,0,1,0,1c0,0,-1,0,-1,1l-1,0l0,1l-2,0l0,-1l0,1l0,1c-1,0,-1,1,-1,2l-1,0c0,1,0,1,0,1c-1,1,-1,1,-1,1c-1,0,-1,0,-1,0c-1,0,-1,0,-1,0l-1,0c0,0,-1,0,-1,0c-1,0,-1,0,-1,-1l1,0c1,0,1,0,2,0c0,0,1,0,1,0c0,-1,1,-1,1,-1c0,0,0,-1,1,-1l0,-1c0,0,1,-1,1,-1c0,0,0,-1,0,-1c0,0,-1,0,-1,0c0,0,0,-1,0,-1l0,-1c0,0,1,0,1,0l0,1l1,0ZM243.5,589.5l-4,2c0,-1,0,-1,1,-1l4,-2ZM235.5,570.5c0,-1,1,-1,1,-1l1,0l0,1l0,1l0,1l1,0l-1,1l-1,-1l0,1l-1,0c0,1,0,1,0,1l-1,0l-1,0l1,0l0,-1c0,0,1,0,1,0l0,-1l1,0l-1,0c0,-1,0,-1,0,-1l0,-1ZM236.5,570.5l0,1l0,-1ZM222.5,584.5l0,1c-1,0,-1,0,-1,0c-1,0,-1,0,-1,1c0,0,-1,0,-1,0c0,0,-1,0,-1,-1c-1,0,-1,-1,-1,-2c0,1,-1,2,-1,2c0,0,-1,0,-1,1l-1,0c0,0,-1,0,-1,0l-1,0c0,0,0,1,1,1c0,0,0,1,0,1c0,0,-1,1,-1,2c0,0,-1,1,-1,1c-1,0,-1,0,-1,-1c-1,0,-1,0,-1,-1c-1,-1,-1,-2,-1,-3l-1,0l-1,0l-1,0l-2,0c-1,0,-1,-1,-1,-1c0,0,-1,0,-1,0l0,1l0,1c0,1,0,1,-1,1l-1,-1c0,0,0,-1,0,-2c-1,0,-1,0,-2,0c0,0,-1,0,-1,1l0,1c0,0,0,1,0,1l1,3l0,1c0,1,0,2,0,2l0,1l0,-1l-1,0l0,-2l0,-2l0,-2l0,-1l0,-1c0,-1,0,-2,1,-2l0,-1l1,0l0,-1l1,0c1,0,2,1,3,1l1,1l1,0l1,0l2,0l1,0c0,-1,1,-1,1,-2c0,-1,0,-1,0,-1c0,0,1,0,1,0c0,-2,1,-2,2,-2l0,1l0,1c0,1,0,1,0,1c0,1,-1,2,-2,2l1,0l1,0l1,0l1,0l1,0c1,0,1,-1,1,-1l1,0c0,-1,0,-1,0,-1c0,0,0,-1,0,-1c-1,0,-1,0,-1,-1l0,-6l1,-2l1,10c0,1,0,1,0,1c0,1,0,1,0,1c1,0,1,0,1,0l1,0l1,0l1,-1l1,-1l0,1l0,1l1,0c0,0,1,0,1,0l1,0c0,-1,0,-1,0,-1c0,-1,0,-1,1,-1l0,-1l0,1l0,1c0,0,1,0,1,1l1,0c0,0,0,-1,0,-1l0,-2c0,0,0,1,0,1l1,0l0,1l0,1l0,1l-1,0c0,0,0,1,0,1c-1,0,-1,0,-1,0c0,0,0,-1,0,-1c-1,0,-1,0,-1,0l-1,-1l0,1c-1,0,-1,0,-1,0l-1,1c0,0,-1,0,-1,0c0,-1,0,-1,0,-1l-1,0c0,-1,0,-1,0,-1ZM224.5,570.5c0,-1,0,-1,1,-1l1,0l0,1l0,1l0,1l1,0l-1,1l-1,-1l0,1l-1,0c0,1,0,1,-1,1l-1,0l1,0l0,-1c0,0,1,0,1,0l0,-1l1,0l-1,0c0,-1,0,-1,0,-1l0,-1ZM225.5,570.5l0,1l0,-1ZM217.5,592.5l-4,2c1,-1,1,-1,1,-1l4,-2ZM211.5,581.5c-1,0,-1,0,-1,0l-1,1l0,1c1,0,2,0,2,0c1,-1,1,-1,1,-2l-1,0ZM209.5,586.5c0,0,0,1,0,1c0,1,0,1,1,1l0,1c0,0,1,0,1,0c0,0,1,0,1,0c0,-1,0,-1,0,-1c0,0,0,-1,-1,-1c-1,-1,-1,-1,-2,-1ZM208.5,592.5l-4,2c0,-1,1,-1,1,-1l3,-2ZM195.5,575.5c0,0,1,-1,1,-1c1,0,1,0,2,0c0,0,1,0,1,0c0,1,1,1,1,1l-1,0c0,1,0,1,0,1c0,1,-1,1,-1,1l-1,0l-1,0l-1,0l2,0c1,-1,1,-1,2,-1c-1,0,-1,0,-1,0c0,-1,-1,-1,-1,-1c0,0,-1,0,-1,1c0,0,-1,0,-1,0c0,-1,0,-1,0,-1ZM300.5,584.5c0,0,-1,0,-2,0c-1,1,-2,1,-4,1c-1,0,-2,0,-3,0c-1,0,-1,0,-1,0c-2,0,-3,0,-5,0c-1,1,-2,1,-3,1c-1,0,-2,0,-3,0l-1,0l-1,0l-1,0c-1,0,-2,0,-2,-1c0,0,-1,0,-1,0c-1,0,-1,0,-2,0c0,1,-1,1,-1,1l-1,0c-1,0,-1,0,-1,0l0,-1l0,1l0,1c0,0,-1,1,-1,2c-1,1,-1,1,-1,1c0,1,-1,1,-1,1c0,0,-1,0,-1,0c0,0,-1,0,-1,0c-1,0,-1,0,-2,0c0,0,-1,0,-1,-1c0,0,1,0,1,0l1,0c0,0,1,0,1,0c0,0,1,0,1,0c1,-1,1,-1,1,-1c0,0,1,-1,1,-1l0,-1c1,0,1,-1,1,-1c0,0,0,-1,0,-1c-1,0,-1,-1,-1,-1l0,-1l1,0l1,1l1,0l1,0c0,0,1,0,1,0c0,-1,0,-1,0,-1l0,-1l0,-1c1,-1,1,-1,1,-1c0,0,0,-1,1,-1c0,0,1,-1,1,-1c1,0,1,1,1,1c1,0,1,1,1,1l0,1c0,1,0,1,0,1c0,0,-1,1,-1,1l0,1l1,0l1,0l1,0c0,0,1,0,1,0c2,0,3,0,3,0c1,0,2,0,4,0c1,0,2,0,4,0l1,-1c1,0,2,0,3,0c2,0,3,0,4,0c2,0,3,0,3,0c0,-1,0,-1,0,-1l-1,0c0,-1,0,-1,0,-1c-1,0,-1,0,-1,0c-1,0,-3,0,-5,0c-2,1,-4,1,-6,1c-2,0,-3,0,-4,0c-2,0,-3,0,-4,0c0,0,0,-1,0,-1c0,0,0,-1,0,-1c1,-1,1,-1,1,-1c0,-1,1,-1,1,-2c1,0,2,-1,2,-1c1,-1,2,-2,3,-2l1,0l-1,1c0,0,0,1,-1,1c-1,1,-2,1,-2,2c-1,0,-2,1,-3,2l1,0l1,0l1,1l1,0c1,0,2,-1,4,-1c2,0,4,0,6,0c2,0,3,0,4,0c1,0,1,0,2,0c0,0,1,0,1,1c0,0,0,1,0,1c0,1,0,1,0,2l-1,0ZM285.5,570.5l5,-3c0,1,0,1,0,1l-6,3ZM273.5,578.5l-1,-1l1,-2l1,1ZM274.5,580.5c-1,0,-1,0,-1,1c-1,0,-1,0,-1,0l0,1c0,0,1,1,1,1c1,0,1,-1,1,-1c0,0,1,0,1,0c0,-1,0,-1,-1,-1c0,-1,0,-1,0,-1ZM272.5,569.5l4,-2l0,1l-4,2ZM265.5,570.5c1,-1,1,-1,1,-1c0,0,1,0,1,0c1,0,1,0,1,1l-1,1l1,1l0,1l-1,-1l-1,1c-1,1,-1,1,-1,1l-1,0l-1,0l1,0l1,-1l0,-1l1,0l-1,0c0,-1,0,-1,0,-1l0,-1ZM267.5,570.5l-1,0l0,1l1,0l0,-1ZM259.5,582.5c0,0,-1,0,-1,0c0,1,0,1,1,1c0,0,0,-1,0,-1ZM259.5,589.5c0,1,-1,1,-1,1l-1,0c0,0,-1,0,-1,0l-1,0c0,0,-1,0,-1,0c0,0,-1,0,-1,0c0,0,0,-1,0,-1c0,0,1,0,1,0c0,0,0,1,1,1c1,-1,1,-1,1,-1c1,0,1,0,1,0c1,-1,1,-1,1,-1c1,0,1,-1,1,-1l1,-1c0,-1,0,-1,0,-1c0,-1,0,-1,0,-1c0,1,0,1,-1,1c0,0,-1,0,-1,0c0,-1,0,-1,-1,-1c0,0,0,-1,0,-1l0,-1c0,-1,1,-1,1,-1c0,-1,0,-1,0,-1c1,0,1,0,1,0c0,0,1,0,1,0l0,1c1,0,1,0,1,0c0,1,0,1,0,2l0,1c0,1,0,1,0,1c0,1,0,2,-1,2c0,1,0,1,0,1c-1,1,-1,1,-1,1ZM252.5,586.5l0,-1l0,-2l-1,-8l1,-3l1,11c0,0,0,1,0,1c-1,1,-1,1,-1,2ZM342.5,586.5l0,-1l0,-2l-1,-8l1,-3l1,11c0,0,0,1,0,1l-1,0c0,1,0,1,0,2ZM335.5,586.5l-1,0c0,-1,-1,-1,-1,-1c0,-1,0,-1,0,-2c0,1,0,1,-1,1l0,1c-1,0,-1,0,-2,0c0,0,-1,0,-1,0c-1,0,-1,0,-1,0l-1,0c0,0,-1,0,-1,-1c0,0,0,-1,0,-1l1,-1c0,1,0,1,0,1c0,0,1,0,1,0c0,1,0,1,1,1c0,0,1,0,1,0c0,-1,1,-1,1,-1c0,0,1,0,1,0l1,-1l-1,-1c0,0,0,-1,0,-2l0,-1l0,-1c0,0,1,-1,1,-1l0,2l0,1c0,1,1,2,1,2c0,1,0,2,0,2l0,1c0,0,1,1,1,1l1,0c0,1,0,1,1,1c0,-1,0,-1,0,-1c0,0,0,-1,0,-2c0,-1,0,-2,0,-3l0,-1c0,0,0,-1,0,-2c0,-1,0,-2,0,-3c-1,0,-1,0,-1,0c0,-1,0,-1,1,-1c0,-1,0,-1,0,-1c0,1,0,1,0,1c1,0,1,0,2,0c-1,1,-1,1,-1,2c0,1,0,1,0,2c0,0,0,1,0,3c0,0,0,1,0,1c0,0,0,1,0,1c0,2,0,2,0,2c0,1,0,1,0,1l0,1c0,0,0,1,0,1c-1,0,-1,0,-1,0c-1,0,-1,0,-2,0l0,-1ZM336.5,568.5c0,1,0,1,1,1c0,-1,0,-1,0,-1l0,-1l1,0l0,1c1,0,1,0,1,-1l0,-1l0,1l0,1c0,1,0,1,0,1l-1,0l-1,0c0,1,0,1,-1,1c0,-1,0,-1,0,-1l0,-1ZM340.5,565.5l-5,3c0,-1,0,-2,0,-2l6,-3ZM331.5,575.5l-1,-1l1,-1l1,0ZM330.5,589.5l-4,2c0,-1,0,-1,0,-1l4,-2ZM324.5,588.5l-1,-1l-1,1l-1,-1l1,-1l1,1l1,-2l1,1ZM319.5,582.5l1,0c0,0,1,0,1,0l1,0l1,-1c0,0,0,-1,0,-1c-1,0,-1,0,-1,-1c0,-1,0,-1,1,-1l0,1l0,1c1,0,1,0,1,0c0,1,0,1,0,1l-1,1l0,1c0,0,-1,0,-1,0c-1,0,-1,1,-2,1l0,1c0,1,0,2,0,2c-1,1,-1,2,-1,2c-1,1,-2,1,-2,1c-1,0,-2,1,-2,1c-1,0,-2,-1,-2,-1c-1,0,-1,0,-1,0c-1,-1,-1,-1,-1,-2c-1,0,-1,-1,-1,-1c0,-1,0,-1,0,-1l0,-1l1,0c0,-1,0,-1,0,-1c0,-1,0,-1,0,-1l1,0c0,0,0,1,-1,1l0,1c0,0,0,1,0,1c0,0,0,1,0,1c0,0,1,1,1,1l1,0c1,0,1,1,2,1c1,0,1,-1,2,-1c1,0,1,0,2,-1c0,-1,0,-1,0,-1l0,-1l0,-1c0,-1,-1,-1,-1,-1c0,-1,0,-1,0,-1l0,-2c0,0,1,0,1,0c0,1,0,1,0,1c0,1,0,1,0,1ZM315.5,581.5l-2,-1l1,-1l2,1ZM311.5,573.5l4,-3l0,1l0,1l-4,2ZM379.5,582.5c0,1,0,1,0,1c1,0,1,0,1,0c0,0,0,-1,0,-1l-1,0ZM379.5,589.5c0,1,0,1,0,1c0,0,-1,0,-1,0c0,0,-1,0,-1,0l-1,0c0,0,-1,0,-2,0c0,0,0,-1,0,-1l1,0c0,0,0,1,0,1c1,0,1,0,1,0c0,-1,0,-1,1,-1c0,0,1,0,1,0c0,-1,1,-1,1,-1c0,0,1,-1,1,-1l0,-1c1,-1,1,-1,1,-1c0,-1,0,-1,0,-1l-1,0c0,1,0,1,0,1l-1,0l-1,0c0,-1,0,-1,0,-1c0,0,0,-1,0,-1l0,-1c0,-1,0,-1,0,-1c1,-1,1,-1,1,-1c0,0,1,0,1,0l1,0l0,1c1,1,1,1,1,2l0,1c0,1,0,1,0,1c0,1,-1,2,-1,2c0,1,-1,1,-1,1c0,1,0,1,-1,1ZM377.5,576.5l4,-2l-1,0c0,1,0,1,0,1l-4,2ZM373.5,576.5l-2,-1l-1,1l-1,-1l1,-1l1,1l1,-1l2,0ZM374.5,584.5c0,0,-1,1,-1,1c0,0,-1,0,-2,0c0,1,-1,1,-2,1l-2,0c0,0,-1,-1,-1,-1c-1,0,-1,-1,-1,-2l-1,-8l1,-3l1,10l0,1c0,1,1,1,1,1l2,0c1,0,2,0,2,0c1,0,2,-1,2,-1c1,0,1,-1,1,-1c-1,0,-1,-1,-1,-1c0,0,0,1,0,1c0,0,-1,0,-1,0c-1,0,-1,0,-1,0c0,0,-1,0,-1,0c0,-1,0,-1,0,-1c0,-1,0,-1,0,-2c1,-1,1,-1,1,-1c0,-1,1,-1,1,-1c0,0,1,0,1,1l1,1l0,1l0,1c0,0,0,1,0,1c0,1,0,1,0,1l0,1ZM371.5,580.5l1,0l1,0c0,0,-1,0,-1,0c0,-1,0,-1,0,-1l-1,0l0,1ZM370.5,569.5l4,-2l0,1l-4,2ZM360.5,574.5c0,0,-1,0,-1,0c0,-1,1,-1,1,-1c0,-1,0,-1,0,-1c0,1,0,1,1,1l1,0c-1,1,-1,1,-1,2c0,1,0,1,0,2c0,2,0,3,0,3c0,1,0,2,0,3l0,1c0,1,0,1,0,2c-1,1,-1,1,-1,1c-1,1,-1,1,-1,1c0,0,-1,0,-1,0c-1,1,-2,1,-3,1l-1,0c-1,0,-1,-1,-2,-1c0,0,0,-1,0,-1c-1,0,-1,-1,-1,-1c0,-1,0,-2,1,-2c0,-1,0,-1,0,-1l0,-1l1,0l0,-1l0,1l0,1c-1,0,-1,0,-1,0c0,1,0,1,0,1c0,1,0,2,1,2c0,1,1,1,2,1c1,0,2,0,3,-1c1,0,2,0,2,-1c0,0,0,-1,0,-1c0,-1,0,-2,0,-3c0,-1,0,-2,0,-4c0,-1,0,-2,0,-3Z" class="g1_40" />
<path fill-rule="evenodd" d="M351.5,115.5l-4,2c0,0,0,-1,0,-1l4,-2ZM124.5,110.5c0,1,0,1,0,2l-1,1l-1,1l2,0l-1,0l0,1l-1,0l0,1l-1,0c0,1,-1,1,-1,1l-1,0l-1,1l-1,0l-1,1l-1,1l1,0l-1,0l-3,0c-1,0,-1,0,-1,-1l-1,-1l-1,0c-1,0,-1,-1,-2,-1l-1,0l0,-1l-1,0l0,-1l-1,0l-1,0l0,-1l1,0l0,-1l-1,-1l0,-1c0,0,0,-1,0,-1l0,-1c0,-1,0,-1,0,-1c0,0,0,-1,0,-1c0,0,1,-1,1,-1l-1,-1l1,-1l1,0l0,-1l1,0l1,-1l1,0l1,-1c1,0,1,0,1,0l1,-1c0,0,0,-1,1,-1l3,0l1,0l-1,0l1,1l1,1l2,1l1,0c0,0,1,1,1,1l1,0l0,1c1,0,1,1,2,1l-1,1l0,1l1,0l0,1l0,1ZM115.5,120.5l1,-1l0,-1l1,0c1,0,1,-1,2,-1l1,0c0,0,1,-1,1,-1l1,-1l1,0l0,-1l-1,0l0,-1l1,0l0,-1l1,-1l0,-1c0,-1,0,-2,-1,-3l0,-1l-1,0l0,-1l1,0c0,0,0,-1,-1,-1l-1,0l0,-1l-1,0l-1,-1l-2,0c0,-1,0,-1,-1,-1l0,-1l-1,0c0,0,0,-1,0,-1l-3,0l-1,1l-1,1l0,1l-2,0l-1,1l-1,0l-1,0l0,1c-1,0,-1,0,-2,1l2,0l0,1l-1,0l0,1l-1,0l0,1l0,1l0,1l0,1l0,1l1,0c0,0,0,1,0,1l1,1l-2,0l1,0l0,1l1,0l0,1l1,0l1,1l1,0l1,1c1,0,1,0,1,0l1,1c0,1,1,1,1,1ZM121.5,105.5l-1,0l-1,0l0,-1l-1,0c-1,0,-1,0,-1,0c0,0,0,-1,0,-1c0,0,1,0,1,0l1,0c0,1,0,1,1,1l0,1ZM121.5,115.5l-1,0l0,1l-1,0l-1,0l-1,1l0,-1l1,0c0,0,-1,0,-1,0c1,0,1,0,1,0l1,-1c0,0,1,0,1,-1l1,0ZM116.5,117.5c0,1,0,1,0,1l-1,0l-3,0c-1,0,-1,0,-1,-1c-1,0,-1,0,-1,0c0,-1,1,-1,1,-1l1,-1l3,0l1,0l0,1ZM116.5,103.5l0,1l-1,0l-3,0c-1,0,-1,0,-1,0l0,-1l-1,0c0,-1,1,-1,1,-1l0,-1l1,0l3,0l1,0l0,1l0,1ZM115.5,105.5l1,0l1,0c0,0,1,0,1,0l1,1l1,0c0,0,1,0,1,0l0,1l1,1l0,1l0,1c0,1,0,1,0,1l-1,1c0,0,0,1,0,1l-2,0l0,1c-1,0,-1,0,-1,0l-1,0l-1,0c0,0,-1,0,-1,0l-3,0l-1,0l-1,0c0,0,-1,0,-1,0c0,0,-1,0,-1,-1l-1,0l-1,0l-1,-2l0,-1c0,-1,0,-1,0,-1c0,-1,0,-1,0,-1l0,-1l1,0l0,-1l2,0l0,-1l1,0c0,0,1,0,1,0c0,0,1,0,1,0l1,0ZM115.5,114.5l1,0l1,0l1,0l1,-1l1,0l1,-1l0,-1l0,-1c0,-1,0,-1,0,-2c0,0,0,-1,0,-1c0,0,-1,-1,-1,-1l-1,1l0,-1l-1,0l0,-1l-1,0c-1,0,-1,0,-1,0c-1,0,-1,0,-1,0l1,0l0,1l-4,0l0,-1l-1,0l-1,0l-1,0l-1,1c0,0,0,1,-1,1l-1,-1l0,1l-1,1l0,1l0,1l0,1l1,0l0,1c0,0,0,1,0,1l1,0c1,0,1,0,1,0l0,1l1,0l1,0c1,0,1,0,1,0l1,0l3,0l1,0ZM113.5,109.5l0,1l0,1l0,1c0,-1,-1,-2,-1,-3l0,-1l1,0l0,1l1,-1l1,0l0,1l-1,0l-1,0ZM106.5,105.5l0,-1l1,0l1,-1l1,0l1,0l-1,0c0,0,0,1,1,1c-1,0,-1,0,-1,0l-1,0l-1,0l0,1l-1,0ZM106.5,115.5l0,-1l1,0c0,0,0,1,1,1l1,1l0,1l0,-1l-1,0c0,0,-1,0,-1,-1l-1,0ZM187.5,115.5l-2,-1l0,2l-2,-1l1,-2l1,1l1,-1l2,1ZM184.5,112.5l-1,0l-1,0c-1,0,-1,0,-1,0c0,0,-1,0,-1,0l-1,-1c-1,0,-1,0,-1,0c0,1,-1,1,-1,1l-1,0l-1,0l-1,0c-1,0,-2,0,-2,0c0,0,-1,0,-1,-1c-1,1,-1,1,-2,1c0,0,-1,0,-2,0l-1,0c0,0,-1,0,-1,0c0,0,-1,-1,-1,-1l-2,-2c-1,-1,-1,-1,-2,-1l0,1c0,0,0,1,0,1c0,1,-1,1,-1,1c0,0,0,1,-1,1c-1,0,-1,0,-1,0l-1,0c-1,0,-1,0,-1,0c0,0,0,1,0,1c0,1,-1,2,-1,2c0,1,0,1,0,1c-1,0,-1,1,-1,1c0,0,-1,0,-1,0c0,1,-1,1,-1,1c0,0,-1,0,-1,0c-1,0,-1,0,-2,-1c0,0,-1,0,-1,0c0,0,1,0,1,0l1,0c0,0,1,0,1,0c0,0,1,-1,1,-1c1,0,1,0,1,-1c0,0,1,0,1,0c0,-1,0,-1,0,-1c1,-1,1,-1,1,-2c0,-1,0,-1,0,-1c-1,0,-1,0,-1,0l0,-1l1,0l0,-1c0,1,0,1,0,1l1,0l1,0l1,0l1,0c0,0,1,0,1,0c0,-1,0,-1,0,-1c0,-1,0,-1,0,-1c0,0,0,-1,0,-1c0,0,-1,0,-1,0c0,-1,-1,-1,-1,-1c0,0,-1,-1,-1,-1c0,0,-1,0,-1,0c0,0,0,-1,0,-1c-1,0,-1,0,-1,0c0,-1,0,-1,0,-1l1,0l0,-1c0,0,0,-1,1,-1c0,0,1,0,3,-1c1,-1,2,-1,4,-2c1,0,2,0,3,-1l0,2l-1,0c0,0,-1,0,-3,1c-1,0,-2,1,-4,1c-1,1,-2,1,-2,2c-1,0,-1,0,-1,0l1,1c1,0,1,0,1,0c0,0,1,0,1,0l0,1l1,0c0,0,1,1,2,1c0,0,1,1,1,1c1,1,1,1,2,2l1,1l1,0l1,0l0,1c1,0,1,-1,1,-1c0,0,1,0,1,0l0,-1c0,0,0,-1,0,-2c1,0,1,0,1,-1l1,0c0,-1,1,-1,1,-1c1,0,1,0,1,1c1,0,1,0,1,1l0,1l0,1c0,0,-1,0,-1,0c0,1,0,1,0,1l1,0c0,0,0,1,0,1l1,0l1,0l0,-1c0,0,1,0,1,0c0,0,1,0,1,0l1,0c0,-1,0,-1,0,-1l1,0l0,1c1,0,1,0,2,0l1,0l1,0c0,0,1,0,1,0c1,0,1,0,1,0c1,0,1,0,1,0c0,-1,0,-1,0,-1c0,0,-1,0,-1,0c0,-1,0,-1,0,-1l1,-2c0,1,0,1,0,1l0,1l0,1c0,1,0,1,0,1l0,1c-1,0,-1,1,-2,1c0,0,-1,0,-1,0ZM180.5,107.5l-1,-1l-1,1l-2,-1l1,-1l2,1l0,-1l2,0ZM177.5,99.5l4,-2l0,1l-5,2ZM171.5,104.5l-1,-1l1,-1l2,1ZM172.5,107.5c-1,0,-1,0,-1,0c-1,0,-1,1,-1,1l0,1c0,0,1,0,1,0c1,0,1,0,1,0c1,0,1,0,1,-1l0,-1c-1,0,-1,0,-1,0ZM170.5,96.5l4,-2c0,1,0,1,0,1l-4,2ZM157.5,94.5l0,1l1,0c0,0,1,0,1,0l0,-1l0,1c1,0,1,0,1,0c0,0,0,-1,0,-1l0,-1l1,0l0,1l0,1c0,0,-1,1,-1,1l-1,0l0,-1l0,1c-1,0,-1,0,-1,0c0,0,-1,0,-1,0l0,-1l0,-1ZM162.5,91.5l-6,3c0,-1,1,-1,1,-1l5,-3ZM152.5,96.5c1,0,1,0,1,0c0,-1,1,-1,1,-1c1,0,1,1,1,1c0,0,0,1,0,1l-1,0c0,1,0,1,0,1l1,0l0,1l-1,0l-1,0l0,1c-1,0,-1,0,-1,1l-1,0l-1,0l1,-1l1,0l0,-1l1,0l0,-1c-1,0,-1,0,-1,-1l0,-1ZM154.5,97.5l-1,-1l0,1l1,0ZM146.5,108.5c0,0,-1,0,-1,0c0,1,0,1,0,1l1,0l0,-1ZM146.5,116.5c0,0,-1,0,-1,0c0,0,0,1,0,1c-1,0,-2,0,-2,0l-1,0l-1,0c0,-1,-1,-1,-1,-1c0,0,1,0,1,0l1,0c1,0,1,0,1,0c1,0,1,-1,1,-1c1,0,1,0,1,-1c1,0,1,0,1,0c0,-1,0,-1,1,-1c0,-1,0,-2,0,-2c-1,0,-1,0,-1,0c0,0,-1,0,-1,0l-1,0c0,0,0,-1,0,-1l0,-1c0,-1,1,-1,1,-2l0,-1c1,0,1,0,1,0c0,0,1,0,1,0c0,1,0,1,0,1c1,0,1,1,1,1c0,0,0,1,0,1c0,0,0,1,0,1c0,1,0,1,0,1c0,1,0,2,-1,3c0,0,0,1,0,1c-1,0,-1,1,-1,1ZM135.5,106.5l-1,-1l1,-1l1,1ZM135.5,115.5c0,0,-1,0,-1,0c-1,0,-1,0,-2,0c0,-1,-1,-1,-1,-2c0,0,0,-1,0,-1c0,-1,0,-1,0,-1c0,-1,0,-1,0,-1l0,-1c0,0,1,0,1,-1l1,0c-1,0,-1,0,-1,1c0,1,0,1,0,1l0,1c0,0,0,1,0,1l1,1c0,0,1,0,1,0c0,0,1,0,2,0c0,0,1,0,2,0c0,0,1,-1,1,-1c0,0,1,0,1,-1l0,-1c0,0,0,-1,0,-1c0,0,-1,0,-1,-1l0,-1l-1,-1l1,-1c1,0,1,0,1,1c0,1,0,1,0,1c0,0,0,1,0,1c1,0,1,1,1,1c0,1,0,1,0,1c0,1,-1,2,-1,2c0,1,0,1,-1,2c0,0,-1,1,-2,1c-1,0,-1,0,-2,0ZM131.5,99.5l5,-2l-1,1l-4,2ZM222.5,111.5l0,-1l1,0l1,0c1,0,1,0,1,0c0,0,0,-1,0,-1l0,-2l0,-6c0,-1,0,-1,0,-1c0,0,0,-1,0,-1l0,-1c0,0,1,1,1,1l-1,0c0,0,1,0,1,0c0,1,0,1,1,1c0,0,-1,1,-1,1l0,1c0,0,0,1,0,2c0,0,0,1,0,2c0,1,0,1,0,2l0,1l0,1l0,1l-1,0c0,1,0,1,0,1c-1,0,-1,0,-1,0c0,0,-1,0,-1,0l-1,0l-1,0c-1,0,-2,0,-2,0c-1,0,-1,0,-1,-1c-1,1,-1,1,-2,1c-1,0,-1,0,-2,0l-1,0l-1,0c0,1,0,1,0,1c0,1,0,1,0,1c-1,1,-1,1,-1,2c0,0,-1,0,-1,1c0,0,-1,0,-1,0l-1,0c-1,1,-1,1,-1,1c-1,0,-1,-1,-2,-1c0,0,-1,0,-1,0c0,0,0,-1,0,-1c0,0,1,1,1,1l1,0c0,0,1,0,1,-1c0,0,1,0,1,0c1,0,1,-1,1,-1c0,0,1,0,1,-1l1,0c0,-1,0,-1,0,-1l0,-1c-1,0,-1,0,-1,0c-1,0,-1,0,-1,0c0,0,0,-1,-1,-1l0,-1c1,-1,1,-1,1,-1l0,-1l1,0l0,-1c1,0,1,0,1,1l1,0c0,0,0,1,0,1c0,1,0,1,0,1c1,0,1,0,1,0c1,0,1,0,1,0l0,1c0,-1,1,-1,1,-1c1,0,1,0,1,0l0,-1c0,0,0,-1,0,-2c0,0,1,0,1,-1c1,-1,1,-1,2,-1c0,0,1,0,1,1l0,1l1,1l-1,0c0,1,0,1,0,1c0,1,0,1,-1,1c1,0,1,0,1,0l1,0c0,0,0,1,0,1ZM224.5,94.5l0,1l1,0l1,0l0,-1l0,1c0,0,1,0,1,0c0,0,0,-1,0,-1l0,-1l1,0l0,1l0,1l-1,0c0,0,0,1,0,1l-1,0l0,-1l0,1c-1,0,-1,0,-1,0c-1,0,-1,0,-1,0l0,-1l0,-1ZM227.5,115.5l-4,2c0,0,1,-1,1,-1l4,-2ZM219.5,104.5l-1,-1l-1,1l-2,-1l1,-1l2,1l0,-2l2,1ZM218.5,107.5l-1,0c0,0,0,1,0,1l0,1c0,0,1,0,1,0c0,0,1,0,1,0l1,-1l-1,-1l-1,0ZM214.5,96.5l5,-2l-1,1l-4,2ZM210.5,109.5c0,0,-1,0,-1,1c1,0,1,0,1,0l1,0c0,0,0,-1,0,-1c-1,0,-1,0,-1,0ZM144.5,96.5c0,0,1,0,1,0c1,0,1,0,1,0c1,0,2,0,2,0l0,1c0,0,0,1,0,1c0,0,-1,0,-1,1l-1,0l-1,0l-1,0l2,-1c1,0,1,0,2,-1c-1,0,-1,0,-1,0c0,0,-1,0,-1,0c0,0,-1,0,-1,0c0,0,-1,0,-1,1l0,-1l0,-1ZM206.5,101.5l1,0c0,0,1,0,1,0c1,0,1,0,1,0c1,0,1,0,1,1c0,0,0,1,-1,1c0,0,-1,0,-1,1c0,0,-1,0,-1,0l-1,0l2,-1c0,0,1,0,1,-1l-1,0c-1,0,-1,0,-2,0l-1,0l1,0c0,0,0,-1,0,-1ZM203.5,111.5c0,0,-1,0,-2,-1c0,0,-1,0,-1,0c0,1,-1,1,-1,2c-1,0,-1,1,-2,1c0,0,-1,1,-2,1c-1,0,-2,0,-4,0l5,-2c2,-1,3,-2,4,-3l0,-1c1,-1,1,-1,1,-2l1,0c1,0,1,0,1,0c0,0,0,1,1,1c0,0,0,1,0,1l0,1c0,1,0,1,0,1c0,0,-1,1,-1,1ZM203.5,109.5l0,-1c-1,0,-1,-1,-1,-1l-1,1l1,0l0,1ZM195.5,123.5l5,-3c0,0,-1,1,-1,1l-5,3ZM196.5,119.5l5,-2c0,1,0,1,0,1l-5,3ZM255.5,115.5l-2,-1l-1,2l-1,-1l1,-2l1,1l1,-1l1,1ZM252.5,112.5l-1,0l-1,0c-1,0,-1,0,-1,0c0,0,0,-1,0,-1c-1,0,-1,0,-1,0c0,0,-1,0,-1,1c-1,0,-1,0,-2,0l-2,1l-1,0l-1,0l-1,0c-2,0,-3,0,-4,0c-1,0,-2,-1,-2,-1c0,-1,-1,-1,-1,-1l0,-1l0,-1c0,0,0,-1,0,-1c0,-1,1,-1,1,-2l0,1l0,1c0,1,0,1,0,2c0,0,1,0,2,1l1,0l1,0c1,0,2,0,3,0c1,0,1,0,2,0c0,0,1,0,1,0l1,0l1,0c0,-1,1,-1,2,-1c1,-1,1,-1,1,-1l0,1l1,0l1,0l1,0c0,0,1,0,1,0c1,0,1,0,1,0c0,-1,0,-1,0,-1c0,-1,0,-1,0,-1l-1,0l1,-2l1,0c0,1,0,1,0,1l0,1l0,1c0,1,0,1,0,1l0,1l-1,0c0,0,0,1,-1,1c0,0,-1,0,-1,0ZM242.5,107.5l-1,-1l-1,1l-1,-1l1,-1l1,1l1,-2l1,1ZM231.5,120.5l5,-3c0,1,0,1,0,1c0,0,0,1,0,1l-5,2ZM233.5,117.5l5,-3c0,1,-1,1,-1,1l-5,3ZM305.5,101.5l-2,0l1,-2l1,1ZM309.5,111.5l-1,0l-1,1c0,0,-1,0,-2,0l-1,0l-1,0c-1,0,-1,0,-1,0l0,-1l0,-1l1,0l1,0c0,0,1,0,1,0c1,0,1,0,1,0c1,0,1,0,1,0c1,0,1,-1,1,-1l0,-1c0,0,-1,0,-1,-1l-1,-1l-1,0l-1,-1l1,-1l1,0c1,0,1,1,1,1c1,0,1,1,1,1c0,1,1,1,1,2l0,1c0,1,0,1,0,1c0,0,0,1,0,1ZM293.5,110.5l1,0c1,0,1,0,1,0c0,0,0,-1,0,-1l0,-2l0,-6l-1,0c0,-1,0,-1,0,-1c0,0,1,-1,1,-1l0,-1c0,0,0,1,0,1l1,0c0,1,0,1,1,1c-1,0,-1,1,-1,1l0,1c0,0,0,1,0,2c0,0,0,1,0,2c0,1,0,1,0,2l0,1l0,1l0,1l-1,0c0,1,0,1,0,1c-1,0,-1,0,-1,0c-1,0,-1,0,-1,0l-1,0l-1,0l-1,-1c0,0,0,-1,0,-2c-1,0,-1,1,-1,1c-1,1,-1,1,-2,2c-1,0,-1,0,-2,0l-1,0l-1,1l-1,0l-1,0l-1,0c-1,0,-1,0,-1,0l-1,0c-1,-1,-2,-1,-2,-2c-1,0,-1,-1,-1,-2l0,-1c0,0,0,-1,1,-1l0,-1l0,1l0,1c0,1,0,2,2,2c0,0,1,0,2,1c0,0,1,0,1,0l1,0l1,0l1,0l1,-1c2,0,4,-1,5,-2l0,-1l-1,-7l1,-2l1,11l0,1l1,0l1,0ZM297.5,115.5l-4,2c0,0,1,-1,1,-1l4,-2ZM283.5,107.5c0,1,-1,1,-1,1c-1,0,-1,0,-1,0c-1,0,-1,-1,-1,-1l1,0l1,0c0,0,1,-1,1,-1l-1,0c-1,0,-1,0,-1,0c0,0,0,-1,0,-1l0,-1c1,-1,1,-2,2,-2l0,1c-1,1,-1,1,-1,1l1,0c1,1,1,1,1,2c0,0,0,1,-1,1ZM265.5,92.5l4,-2l0,1l-1,0l-4,2ZM280.5,99.5l4,-2l0,1l-1,0l-4,2ZM325.5,103.5l-2,-1l1,-1l2,0ZM326.5,109.5l0,1c-1,0,-1,0,-1,0c-1,0,-1,0,-1,0c0,-1,0,-1,0,-1c-1,0,-1,0,-1,0c0,0,0,-1,0,-1c0,-1,0,-1,0,-1l0,-1c1,0,1,-1,1,-1c0,0,1,-1,1,-1c0,0,1,1,1,1c0,0,1,1,1,1l0,1l0,1l0,1l0,1c0,1,0,1,0,1c0,1,0,1,-1,1c1,0,1,0,1,0c0,0,0,1,1,1l0,1l0,1c-1,0,-1,1,-1,1l-1,1c-1,0,-1,0,-2,1c-1,0,-2,0,-3,0c-1,0,-1,0,-2,0c-1,0,-1,-1,-2,-1c0,0,0,-1,0,-1c-1,-1,-1,-1,-1,-1c0,0,0,-1,0,-1c0,0,0,-1,1,-2c0,-1,0,-1,1,-2c0,1,0,1,-1,2c0,1,0,1,0,1c0,0,0,1,0,1c0,1,1,1,1,1c1,1,2,1,3,1l1,0c0,0,1,0,1,0c0,0,1,0,1,0c1,0,1,-1,2,-1c0,0,1,0,1,-1c0,0,-1,0,-2,0c0,0,-1,0,-1,-1c0,0,0,-1,0,-1c1,0,1,-1,2,-1c1,0,1,-1,1,-1l0,-1c0,0,-1,0,-1,0ZM324.5,107.5l1,0l1,0l-1,0c0,0,0,-1,0,-1c-1,0,-1,0,-1,0l0,1ZM328.5,118.5l-4,2c0,0,0,-1,0,-1l4,-2ZM340.5,106.5l-1,-1l1,-1l1,1ZM340.5,115.5c0,0,-1,0,-2,0c0,0,-1,0,-1,0c0,-1,-1,-1,-1,-2c0,0,0,-1,0,-1c0,-1,0,-1,0,-1c0,-1,0,-1,0,-1l0,-1l1,-1l0,1c0,1,0,1,0,1l0,1c0,0,0,1,0,1l1,1l1,0c0,0,1,0,1,0c1,0,2,0,3,0c0,0,1,-1,1,-1l1,-1l0,-1c0,0,0,-1,0,-1c-1,0,-1,0,-1,-1l0,-1l-1,-1l1,-1l1,1c0,1,0,1,0,1c0,0,0,1,0,1c0,0,0,1,0,1c0,0,1,0,1,0c0,1,0,1,0,1c0,1,-1,2,-1,2c0,1,-1,1,-1,2c-1,0,-1,1,-2,1c-1,0,-1,0,-2,0ZM337.5,98.5l0,1c1,0,1,0,1,0c0,0,0,-1,0,-1l0,-1l1,0l0,1c0,0,1,0,1,-1l0,-1l0,1l0,1l0,1l-1,0l-1,0c0,1,0,1,-1,1l0,-1l0,-1ZM341.5,95.5l-6,3c1,-1,1,-2,1,-2l6,-2ZM183.5,96.5l0,1c0,0,1,0,1,0l1,-1l0,-1l0,1c0,1,0,1,1,1c0,0,0,-1,0,-1l0,-1l0,1l0,1c0,0,0,1,0,1l-1,0l0,-1l0,1l-1,0c-1,0,-1,0,-1,0l0,-1l0,-1ZM187.5,93.5l-5,3c0,-1,0,-1,0,-1l6,-3ZM316.5,99.5c0,0,1,0,1,0c1,0,1,0,1,0c1,0,2,0,2,0l0,1l0,1c0,0,-1,0,-1,0c0,0,0,1,-1,1l-1,0l-1,0l2,-1c1,0,1,0,2,-1c-1,0,-1,0,-1,0c0,0,-1,0,-1,0c0,0,-1,0,-1,0c0,0,-1,0,-1,0c0,0,0,-1,0,-1ZM305.5,97.5l0,-1c0,0,0,-1,-1,-1c0,-1,0,-1,0,-2l0,-1c1,0,1,1,1,1c0,1,0,1,0,1l0,1c0,0,0,1,0,1c0,0,0,1,0,1ZM258.5,96.5c0,-1,0,-1,-1,-2c0,0,0,-1,0,-1l0,-1l1,0l0,1l0,1l0,1c0,0,0,1,0,1ZM250.5,103.5c0,-1,0,-1,0,-2c0,0,0,-1,0,-1l0,-1c0,0,1,0,1,1l0,1c0,0,0,1,0,1c0,1,0,1,-1,1ZM267.5,113.5c0,0,-1,0,-1,0c-1,0,-1,0,-1,0c-1,0,-1,0,-2,0c-1,0,-1,0,-1,0c0,0,-1,0,-1,0c0,-1,1,-1,1,-1c0,0,0,-1,0,-1c0,1,0,1,0,1c0,0,1,0,1,0c0,-1,0,-1,1,-1c0,-1,1,-1,1,-1l0,-1l0,-1c-1,0,-1,0,-1,0c-1,-1,-1,-1,-1,-2c-1,0,-1,-1,-2,-1c0,-1,0,-1,-1,-1l0,-1c0,0,0,1,-1,1l0,-1c-1,0,-1,0,-1,-1c0,-1,0,-1,0,-1c0,0,0,-1,0,-1c1,0,1,0,1,1c1,0,1,1,2,1c1,1,1,2,2,2c0,1,1,1,2,2c0,1,0,1,0,1c1,1,1,1,1,1l0,-1c0,-1,0,-1,0,-2c1,-1,1,-1,1,-2l0,-1c0,0,0,-1,0,-1c-1,0,-1,-1,-1,-1c0,0,0,-1,1,-1c0,0,0,-1,0,-1l0,1l1,0c0,1,0,1,0,1l0,1c0,1,0,1,0,1c0,0,0,1,0,2l-1,1c0,0,0,1,0,1c0,1,0,1,0,2c0,0,-1,1,-1,1l1,1c0,0,0,1,0,1l0,1c0,1,0,1,0,1ZM266.5,110.5l-1,1l1,0ZM81.5,66.5l0,-1l0,-2l0,-8l1,-2l0,10c0,1,0,1,0,1l0,1l-1,1ZM74.5,64.5l1,0l1,0c0,-1,0,-1,0,-1l0,-2l0,-7c0,-1,0,-1,0,-1c0,-1,0,-1,1,-1l0,1l1,1l-1,1c0,1,0,1,0,2c0,0,0,1,0,3c0,0,0,1,0,1l0,1c0,1,0,1,0,1c0,1,0,1,0,1l0,1c-1,0,-1,0,-1,0c0,0,-1,1,-1,1c-1,0,-1,0,-1,0l-2,0c0,-1,-1,-1,-1,-1c-1,0,-1,-1,-1,-1c0,0,0,1,0,1l-1,0c0,0,-1,0,-1,0c0,1,0,1,0,1l0,1c0,1,0,1,0,2l0,1l0,1c-1,0,-1,0,-1,0c-1,0,-1,0,-1,-1l0,-1c0,0,0,-1,0,-2c0,0,0,-1,0,-1c-1,0,-1,0,-1,0l-1,0l-1,0l-1,0c-1,0,-1,0,-2,-1c0,0,0,-1,0,-2l-1,-8l1,-2l1,9l0,1c0,1,1,1,1,1l1,0l1,0l1,0c0,0,1,0,2,0l0,-1c1,0,1,0,1,0c0,0,0,1,0,1l-1,0c0,1,-1,2,-1,3c0,1,1,1,1,2c0,-1,0,-1,0,-1c0,-1,0,-1,0,-1l0,-1c1,0,1,-1,1,-1l0,-1c1,0,1,0,1,0c1,-1,1,-1,1,-1l1,0c0,0,0,1,0,1c1,0,1,0,1,0l2,0ZM70.5,62.5l-1,-1l1,-2l1,1ZM70.5,51.5l0,1c1,0,1,0,1,0l0,-1c0,0,0,1,1,1c0,0,0,-1,0,-1l1,-1l0,1l0,1c0,0,-1,1,-1,1c-1,0,-1,0,-1,0c-1,0,-1,1,-1,1c0,0,-1,-1,-1,-1l0,-1l0,-1ZM74.5,48.5l-6,3c0,-1,1,-1,1,-1l5,-3ZM62.5,56.5l4,-2l0,1l-4,2ZM48.5,69.5c1,0,1,0,1,0l1,0c1,0,2,0,3,-1c0,0,1,0,1,-1c0,0,1,-1,1,-1c0,-1,0,-1,1,-1c0,-1,0,-1,0,-1l0,-1l-1,0l0,-1l0,-1l0,-1l1,1l0,1l0,1l0,1c0,0,0,1,0,1c0,1,0,1,0,1c0,0,0,1,0,1c0,0,-1,1,-1,1l-1,1l-1,0l0,1c0,0,-1,0,-1,0l-1,0l-1,0c-1,-1,-1,-1,-1,-1ZM51.5,56.5l4,-2l0,1l-4,2ZM116.5,66.5l0,-1l0,-2l0,-8l1,-2l0,10c0,1,0,1,0,1l0,1c0,0,-1,0,-1,1ZM109.5,64.5l1,0c1,0,1,0,1,0c0,-1,0,-1,0,-1l0,-2l0,-7l-1,0c0,-1,1,-1,1,-1c0,-1,0,-1,0,-1l0,1l1,0l1,1c-1,0,-1,0,-1,1c0,1,0,1,0,2c0,0,0,1,0,3c0,0,0,1,0,1l0,1c0,1,0,1,0,1c0,1,0,1,0,1l-1,1c-1,0,-1,1,-1,1c-1,0,-1,0,-1,0l-1,0l-1,0c0,0,0,-1,-1,-1c0,-1,0,-1,0,-1c0,1,-1,1,-1,1c-1,1,-1,1,-2,1l-1,0l-1,-1l0,-1l0,1l0,1c-1,1,-1,1,-1,2c0,0,-1,1,-1,1c0,1,0,1,-1,1l-1,0c0,1,-1,1,-1,1c-1,0,-1,0,-1,0l-1,0l-1,0c-1,0,-1,-1,-2,-1c0,0,0,-1,0,-1c0,0,0,-1,0,-1c0,-1,0,-2,0,-2c0,-1,0,-1,0,-1l1,-1l0,-1l0,1c0,1,0,1,0,1c-1,1,-1,1,-1,1c0,1,1,2,1,2c1,1,1,1,2,1c0,0,1,0,1,0c1,0,2,0,3,-1c0,0,1,0,1,-1c1,0,1,0,1,0c0,-1,0,-1,0,-1l0,-3c0,0,0,-1,0,-1c0,-1,0,-1,0,-1l-1,-7l1,-2l1,10c0,1,0,1,0,1c0,1,0,1,1,1l1,0c1,0,1,0,1,0c1,0,1,0,1,0c0,-1,0,-1,1,-1c0,0,0,-1,0,-1c0,0,0,1,0,1c0,0,1,1,1,1c0,0,1,0,1,0l1,0ZM110.5,48.5l0,1c0,0,1,0,1,0c0,0,0,-1,0,-1l1,0l0,-1l0,1l1,0l0,-1l0,-1l0,1l0,1l0,1l-1,0l-1,0c0,1,0,1,0,1c-1,0,-1,0,-1,0l0,-1l0,-1ZM114.5,45.5l-5,3c0,-1,0,-2,0,-2l6,-2ZM107.5,69.5l-1,-1l-1,1l-1,-1l0,-1l2,1l1,-1l1,0ZM103.5,48.5c0,0,1,-1,1,-1c1,0,1,0,1,0c1,0,1,0,2,0c0,1,0,1,0,1c0,1,0,1,0,1c0,0,-1,1,-1,1l-1,0l-1,0l-1,0l2,0c1,-1,1,-1,2,-1c-1,0,-1,0,-1,-1c0,0,-1,0,-1,0c0,0,-1,0,-1,1c0,0,-1,0,-1,0c0,-1,0,-1,0,-1ZM97.5,50.5l6,-3c-1,1,-1,1,-1,1l-5,3ZM161.5,69.5l-1,-1l-1,1l-2,-1l1,-1l2,1l0,-1l2,0ZM158.5,66.5l-1,0c-1,0,-1,0,-1,0c-1,-1,-1,-1,-2,-1l0,-1l-1,0c0,0,-1,1,-1,1c0,0,-1,0,-1,0c0,0,-1,1,-1,1l-1,0l-1,0c-1,0,-1,0,-1,0c0,-1,0,-1,0,-1c-1,0,-1,0,-1,0c0,0,0,-1,0,-1l0,1l-1,0c0,0,0,1,0,1c0,0,-1,0,-1,0c0,0,-1,0,-1,-1c-1,0,-1,0,-1,0l0,1c-1,0,-1,0,-1,0c0,0,-1,0,-1,0c-1,0,-1,0,-1,0c-1,0,-1,-1,-1,-1l-1,0l0,-1c0,0,-1,0,-1,0c-1,1,-1,1,-1,1l-1,1c0,0,1,0,1,0c0,1,1,1,2,1l1,0c0,0,0,1,0,1l0,1c0,1,-1,1,-1,1c-1,1,-1,1,-2,2c-2,0,-3,0,-4,0c-1,0,-1,0,-1,0c0,0,-1,0,-2,0c0,0,-1,-1,-1,-1c-1,0,-1,-1,-1,-1c0,-1,0,-1,0,-2c0,-1,0,-1,0,-2c0,-1,1,-1,1,-2c1,0,1,0,1,0c-1,1,-1,1,-1,2c0,0,0,1,0,1c0,1,0,2,1,2c0,1,1,1,2,1l1,0c0,0,1,0,1,0l1,0l1,0c0,0,1,0,1,0c0,0,0,-1,1,-1c1,0,1,0,1,0c0,0,-1,0,-1,-1c-1,0,-2,0,-3,0c0,0,0,-1,0,-1c0,-1,0,-1,0,-1l1,-1c0,0,0,-1,0,-1l1,0c0,-1,0,-1,0,-1c0,0,1,0,1,0l0,-1l1,0c1,0,1,0,1,1l0,1c1,0,1,0,1,0c0,0,1,0,1,0l1,0l1,0l0,-1l1,0c0,-1,0,-1,0,-1l0,1l1,0l0,1l1,0l0,-1l1,0c0,0,0,-1,0,-1l1,1c0,1,0,1,0,1c1,0,1,0,1,0l1,0c1,0,1,0,1,0l1,0c1,-1,1,-1,1,-1l-1,-1c-1,0,-1,0,-1,0l0,-1c0,0,1,-1,1,-1l1,0c0,0,1,0,1,0c0,0,1,0,1,0c0,0,1,0,1,0c0,0,0,1,0,1c0,1,0,1,0,1c0,0,0,1,-1,1l1,1l1,0l1,0l1,0c1,0,1,0,2,0l1,-1c0,0,0,-1,-1,-1c0,0,0,-1,0,-1l1,-2c0,1,0,1,0,1c0,0,0,1,0,1l0,1c0,0,1,0,1,1c0,0,-1,0,-1,0l0,1l0,1c0,0,-1,0,-2,1l-1,0ZM160.5,50.5c0,0,1,-1,1,-1l1,0l0,1l0,1l0,1l1,0l-1,1l-1,-1l0,1l-1,0c0,1,0,1,0,1l-1,0l-1,0l1,0l0,-1c0,0,1,0,1,0l1,-1l-1,0c0,-1,0,-1,0,-1c0,-1,0,-1,0,-1ZM161.5,50.5l0,1l1,0l-1,-1ZM153.5,58.5l-2,-1l1,-2l2,1ZM149.5,48.5c0,0,1,-1,1,-1c0,0,1,0,1,0c1,0,1,0,2,0c0,1,0,1,0,1c0,1,0,1,0,1c-1,0,-1,1,-1,1c0,0,-1,0,-1,0l-1,0c0,0,-1,0,-1,0l2,0c1,-1,1,-1,1,-1l0,-1c-1,0,-1,0,-1,0c-1,0,-1,0,-1,1c-1,0,-1,0,-1,0c0,-1,0,-1,0,-1ZM142.5,58.5l-2,-1l1,-2l1,1ZM143.5,60.5l-1,-1l-1,1l-1,0l1,-2l1,1l1,-1l1,1ZM144.5,69.5l-4,2c0,0,0,-1,0,-1l4,-2ZM206.5,66.5l0,-1l0,-2l-1,-8l1,-2l1,10c0,1,0,1,0,1l-1,1l0,1ZM199.5,55.5l-1,-1l1,-2l1,1ZM201.5,57.5l-1,-1l-1,2l-2,-1l1,-2l2,1l1,-1l1,1ZM198.5,66.5l-1,0c-1,0,-1,0,-1,0c-1,0,-1,0,-1,-1c-1,0,-1,0,-1,-1c0,1,0,1,0,1c-1,0,-1,0,-1,0c0,0,-1,0,-1,1c0,0,-1,0,-1,0l-1,0l-1,0c0,0,0,-1,0,-1l-1,0c0,0,0,-1,0,-1l0,-1l0,-1c-1,0,-1,1,-2,1c0,0,-1,0,-1,0c0,1,0,1,0,1l0,1c0,1,0,2,0,3c0,0,-1,1,-1,1c-1,1,-1,1,-2,1c-1,1,-2,1,-2,1c-1,0,-1,0,-2,-1c0,0,-1,0,-1,0c-1,-1,-1,-1,-1,-1c-1,-1,-1,-2,-1,-2c0,-1,0,-1,0,-1c0,-1,0,-1,1,-1c0,-1,0,-1,0,-1c0,0,0,-1,0,-1c1,0,1,0,1,0c0,0,0,1,0,1c0,0,-1,1,-1,1c0,0,0,1,0,1c0,0,0,1,0,1c1,0,1,1,1,1c0,0,1,0,1,0c1,1,1,1,2,1c1,0,1,0,2,-1c1,0,1,0,2,-1c0,-1,0,-1,0,-1c0,-1,0,-1,0,-1c0,-1,0,-1,0,-1c0,-1,0,-1,-1,-1c0,0,0,-1,0,-1l1,-2l0,1l1,0c1,0,1,0,1,0c1,0,1,0,1,-1c0,0,1,0,1,-1c0,0,0,1,0,1l0,1l0,1l1,1l0,1l1,0l1,0l1,0c0,0,1,0,1,-1c0,0,1,0,1,0l1,0c0,1,0,1,0,1c1,0,1,0,2,0l1,0c1,0,1,0,2,0c0,0,1,0,1,-1c0,0,0,-1,0,-1l-1,-1l1,-2c0,1,0,1,0,1l1,1l0,1l0,1l0,1l-1,0l0,1c0,0,-1,0,-1,1c-1,0,-1,0,-2,0ZM198.5,48.5c0,0,0,-1,1,-1l1,0c0,0,1,0,1,0c1,1,1,1,1,1c0,1,-1,1,-1,1c0,0,0,1,0,1c-1,0,-1,0,-1,0c-1,0,-1,0,-1,0l-1,0l1,0c1,-1,2,-1,2,-1l-1,-1l-1,0l-1,1l-1,0c0,-1,0,-1,0,-1c0,0,1,0,1,0ZM193.5,61.5l-1,-1l1,-1l1,1ZM191.5,56.5l5,-2l-1,1l-4,2ZM190.5,69.5l-2,-1l-1,1l-1,-1l1,-1l1,1l1,-2l1,1ZM185.5,51.5l1,0c0,0,1,0,1,0c1,0,1,0,1,0c1,0,1,0,1,1c0,0,0,1,-1,1l-1,1c0,0,-1,0,-1,0l-1,0l2,-1c0,0,1,0,1,-1l-1,0c-1,0,-1,0,-2,0c0,0,0,-1,0,-1ZM180.5,61.5l-2,-1l1,-1l2,1ZM182.5,74.5l-4,2c0,-1,0,-1,1,-1l4,-2ZM255.5,58.5l-1,-1l1,-1l1,1ZM249.5,69.5c0,0,1,0,1,0l1,0c1,0,1,0,2,-1c1,0,1,0,2,-1c0,0,1,-1,1,-1c0,-1,0,-1,0,-1c0,-1,0,-1,0,-1l0,-1l-1,-1l1,-1l0,-1l0,1c1,0,1,0,1,1l0,1l0,1c0,0,0,1,0,1c0,1,0,1,0,1c0,0,0,1,-1,1c0,0,0,1,0,1c0,0,-1,0,-1,1l-1,0l0,1c-1,0,-1,0,-1,0c0,0,-1,0,-1,0l-1,0l-1,0c0,-1,0,-1,-1,-1ZM254.5,53.5l4,-2l0,1l-4,2ZM247.5,62.5c0,1,0,1,0,1c1,0,1,0,1,0l0,-1l-1,0ZM247.5,69.5c0,1,0,1,0,1c0,0,-1,0,-1,0c0,0,-1,0,-2,0c0,0,-1,0,-2,0c0,-1,0,-1,0,-1c0,0,0,1,1,1c0,0,1,0,1,0l1,-1c0,0,1,0,1,0c0,0,1,-1,1,-1c0,0,0,-1,1,-1l0,-1c1,-1,1,-1,1,-1c0,0,0,-1,0,-1c-1,0,-1,0,-1,1c0,0,-1,0,-1,0l-1,0c0,0,0,-1,0,-1l0,-1l0,-1c0,0,0,-1,0,-1c1,-1,1,-1,1,-1l1,0c1,0,1,0,1,1l0,1l1,1l0,1c0,1,0,1,0,1c-1,1,-1,2,-1,3c0,0,-1,0,-1,1l-1,0ZM244.5,51.5l1,0c0,0,1,0,1,0c1,0,1,0,1,0c1,0,1,0,1,1c0,0,0,1,-1,1c0,0,-1,0,-1,1c0,0,-1,0,-1,0l-1,0l2,-1c0,0,1,0,1,-1l-1,0c-1,0,-1,0,-2,0c0,0,0,-1,0,-1ZM235.5,68.5l-1,1l-1,-1l0,-1ZM241.5,61.5l-1,2l-1,0l-1,0c-1,0,-1,1,-1,1l-1,0l-1,0l-2,1l-1,1l-1,0l-1,0l-1,0c-1,0,-1,-1,-1,-1c-1,0,-1,-1,-1,-1l0,-1l0,-1c0,0,-1,1,-2,1l-1,0c0,1,1,1,1,1l0,1c0,1,-1,2,-1,3c0,0,0,1,-1,1c0,1,-1,1,-2,1c0,1,-1,1,-2,1c0,0,-1,0,-2,-1c0,0,-1,0,-1,0c0,-1,-1,-1,-1,-1c0,-1,0,-2,0,-2c0,-1,0,-1,0,-1c0,-1,0,-1,0,-1c0,-1,0,-1,0,-1l1,0c0,0,0,-1,0,-1l1,0c-1,0,-1,1,-1,1c0,0,0,1,0,1c0,0,0,1,0,1c0,0,0,1,0,1c0,0,0,1,1,1l1,0c0,1,1,1,2,1c0,0,1,0,2,-1c0,0,1,0,1,-1l1,0c0,-1,0,-1,0,-1c0,-1,0,-1,0,-1c-1,-1,-1,-1,-1,-1c0,-1,0,-1,0,-1c0,0,0,-1,0,-1l-1,0l1,-2l0,1c0,0,1,0,1,0l1,0l1,0l1,-1l0,-1c0,0,1,1,1,1l0,1l0,1l0,1l0,1c0,0,1,0,1,0l1,0l0,-1c0,0,0,-1,0,-1c0,0,0,-1,0,-1c1,0,1,0,1,0c0,0,0,-1,1,-1l1,0l1,0c1,0,1,0,1,0l2,1l1,0l1,0l1,0l1,0ZM236.5,62.5l-1,0c0,0,-1,0,-1,0l-1,0l-1,0c0,0,-1,0,-1,0c0,0,0,1,0,1l0,1l-1,0l1,0l1,0l1,0l0,-1l2,0l1,0ZM233.5,53.5l4,-2l0,1l-4,2ZM229.5,69.5l-1,-1l-1,1l-2,-1l1,-1l2,1l0,-2l2,1ZM224.5,51.5c0,0,1,0,1,0c1,0,1,0,1,0c1,0,1,0,2,0l0,1c0,0,0,1,0,1c0,0,-1,0,-1,0l0,1l-1,0l-1,0l-1,0l2,-1c1,0,1,0,2,-1c-1,0,-1,0,-1,0c0,0,-1,0,-1,0c0,0,-1,0,-1,0c0,0,-1,0,-1,0c0,0,0,-1,0,-1ZM219.5,61.5l-1,-1l1,-1l1,1ZM222.5,74.5l-5,2c1,-1,1,-1,1,-1l4,-2ZM283.5,56.5l-1,-1l0,-1l2,1ZM285.5,64.5c0,0,0,1,0,1c-1,0,-1,0,-2,1c-1,0,-1,0,-2,0l-1,0l-1,0c-1,0,-1,0,-1,0c0,-1,0,-1,0,-1c-1,0,-1,0,-1,0c0,0,0,-1,0,-1c-1,0,-1,0,-1,1c-1,0,-1,0,-1,0c0,1,0,1,0,1c0,0,-1,0,-1,0l0,1c0,1,0,1,0,2l1,1l-1,1l-1,0l0,-1l-1,-1c0,0,0,-1,0,-2c0,0,0,-1,0,-1c0,0,-1,0,-1,0l-1,0l-1,0c-1,0,-2,0,-2,-1c-1,0,-1,-1,-1,-2l-1,-8l1,-2l1,9l0,1c1,1,1,1,2,1l1,0l1,0c1,0,1,0,2,0l1,-1c0,0,0,1,0,1c-1,1,-1,2,-1,3c0,1,0,1,0,2c0,-1,0,-1,0,-1c0,-1,0,-1,0,-1l1,-1c0,0,0,-1,0,-1l1,0l0,-1c1,0,1,0,1,0c0,-1,0,-1,0,-1c1,0,1,0,1,0l1,0c0,0,0,1,0,1l1,0l1,0l1,0c1,0,1,0,2,0c1,0,1,-1,2,-1c0,0,0,-1,0,-1l0,-1c0,1,0,1,-1,1c0,0,-1,0,-1,0c0,0,-1,0,-1,0c0,-1,-1,-1,-1,-1c0,-1,1,-1,1,-2c0,-1,0,-1,0,-1c1,-1,1,-1,2,-1l1,1l0,1l0,1l1,1c0,0,0,1,0,1c0,1,0,1,0,1c0,0,0,1,-1,1ZM282.5,60.5l1,0l1,0l0,-1c0,0,-1,0,-1,0ZM285.5,69.5l-4,2c0,-1,1,-1,1,-1l4,-2ZM279.5,69.5l-1,-1l-1,1l-1,0l0,-2l2,1l1,-1l1,1ZM268.5,56.5l5,-2l-1,1l-4,2ZM319.5,69.5l-2,-1l1,-1l2,1ZM326.5,63.5l-2,0c0,0,-1,0,-1,0l-1,0c0,0,-1,0,-1,1l-1,0l-1,0c0,1,-1,1,-1,1c0,0,-1,0,-1,0c-1,1,-2,1,-2,1l-1,0c-1,0,-1,0,-1,0c-1,-1,-1,-1,-2,-1l0,-1l-1,0l-1,1c0,0,-1,0,-1,0l-1,1l-1,0l-1,0c0,0,-1,0,-1,-1l-1,-1l0,1l0,1c0,1,0,1,0,2c0,0,-1,1,-1,1c0,1,-1,1,-1,1c0,0,-1,0,-1,0c0,1,-1,1,-1,1c-1,0,-1,0,-2,0l-1,0c-1,0,-1,-1,-2,-1c0,0,0,-1,0,-1c-1,0,-1,-1,-1,-1c0,-1,0,-2,1,-2c0,-1,0,-1,0,-1l1,-1l0,-1l0,1c0,1,-1,1,-1,1c0,1,0,1,0,1c0,1,0,2,1,2c0,1,1,1,2,1l1,0c1,0,1,0,2,-1c1,0,2,0,2,-1c0,0,1,0,1,0c0,-1,0,-1,0,-1l0,-3c0,0,-1,-1,-1,-1c0,-1,0,-1,0,-1l0,-7l1,-2l1,10c0,1,0,1,0,1c0,1,0,1,1,1l1,0c1,0,1,0,1,0l1,0l1,-1c-1,-1,-1,-1,-1,-1c-1,0,-1,0,-1,0l1,-2l1,0c0,0,1,0,1,0l1,0c1,0,1,0,1,0l0,1c0,0,0,1,0,1c0,0,0,1,0,1l-1,0l1,0c0,1,0,1,0,1l1,0l1,0l1,0c1,0,2,0,2,0c1,0,1,-1,1,-1l2,0l1,-1l-1,0l-1,0l-1,-1l-1,0c0,0,-1,0,-1,0l-1,0l0,1c0,-1,1,-1,1,-2l1,0c0,0,0,-1,1,-1c0,0,0,1,0,1c1,0,1,0,1,0l2,1l1,0c1,0,1,0,1,0c1,0,1,1,1,1c1,0,1,0,2,0l1,0ZM317.5,53.5l5,-2l-1,0l0,1l-4,2ZM309.5,53.5l4,-2l0,1l-4,2ZM300.5,50.5l5,-3c0,1,0,1,0,1l-6,3ZM384.5,66.5l0,-1l0,-2l0,-8l1,-2l0,10c0,1,0,1,0,1l0,1l-1,1ZM377.5,64.5l1,0l1,0c0,-1,0,-1,0,-1l0,-2l0,-7c0,-1,0,-1,0,-1c0,-1,0,-1,1,-1l0,1l1,1l-1,1c0,1,0,1,0,2c0,0,0,1,0,3c0,0,0,1,0,1l0,1c0,1,0,1,0,1c0,1,0,1,0,1l0,1c-1,0,-1,0,-1,0c0,0,-1,1,-1,1c0,0,-1,0,-1,0l-1,0l-1,0c0,0,0,-1,-1,-1c0,-1,0,-1,0,-1c0,1,-1,1,-1,1c0,0,-1,1,-1,1l-1,0l-1,0c-1,0,-1,0,-2,-1c0,0,-1,1,-1,1c-1,0,-1,0,-2,0l-1,-1l-1,-1l-1,1c0,1,-1,1,-1,1l-1,0l-1,0l0,1c0,1,-1,1,-1,2l-1,1c-1,1,-1,1,-1,1c-1,0,-1,0,-1,0c0,0,-1,0,-1,0l-1,0c0,0,-1,0,-1,0c0,0,-1,0,-1,0l0,-1c0,0,1,0,1,0l0,1c1,0,1,-1,2,-1c0,0,1,0,1,0c0,-1,1,-1,1,-1l1,-1l0,-1c1,0,1,0,1,-1c0,0,0,-1,0,-1c-1,0,-1,-1,-1,-1l0,-1c1,0,1,0,1,0l0,1l1,0l1,0l1,0c0,0,1,0,1,0l1,-1l0,-1c1,-1,2,-1,3,-1l1,1l0,1l1,0l0,1c1,0,1,0,1,0l1,0l1,0c1,0,1,0,1,0c1,0,1,0,1,0c0,-1,0,-1,0,-1c1,0,1,-1,1,-1l0,1c0,0,1,1,1,1c0,0,1,0,1,0l1,0ZM373.5,57.5l-2,-1l1,-1l2,1ZM375.5,60.5l-2,-1l-1,1l-1,-1l1,-1l1,0l1,-1l1,1ZM373.5,51.5l0,1c1,0,1,0,1,0l0,-1c0,0,0,1,1,1c0,0,0,-1,0,-1l1,-1l0,1l0,1c0,0,-1,1,-1,1c-1,0,-1,0,-1,0c-1,0,-1,1,-1,1c0,0,-1,-1,-1,-1l0,-1l0,-1ZM377.5,48.5l-6,3c0,-1,1,-1,1,-1l5,-3ZM367.5,64.5l-1,-1c0,0,0,-1,0,-1c-1,0,-1,0,-1,0l-1,1c0,0,1,0,1,1l1,0ZM363.5,53.5l4,-2l0,1l-4,2ZM343.5,59.5l0,1l-2,-1l-1,1l-1,-1l1,-1l1,1l1,-1ZM349.5,64.5c0,0,-1,0,-2,1c0,0,-1,1,-3,1c-1,0,-2,0,-3,0c-2,0,-3,0,-4,0c-1,0,-2,-1,-2,-1c-1,0,-1,-1,-1,-1c0,0,0,-1,0,-1l0,-1c0,0,0,-1,0,-1c0,0,1,-1,1,-1l0,1l0,1c0,0,0,1,0,1c0,0,1,1,2,1l1,0l1,0l3,0c0,0,1,0,1,0c1,0,1,0,1,0c1,0,1,0,1,0l1,0c1,-1,2,-1,2,-1c1,0,1,-1,1,-1l0,-1l-1,-1c0,0,1,0,1,-1l0,-1c0,1,1,1,1,2c0,1,0,1,0,1c0,1,0,1,0,2c0,0,-1,0,-1,1ZM339.5,69.5l-4,2c0,-1,1,-1,1,-1l4,-2ZM415.5,53.5c0,0,-1,0,-2,1c-2,0,-3,1,-4,1c-1,1,-2,1,-3,1c0,1,0,1,0,1l0,1l2,0c1,1,1,1,2,2c0,0,0,1,0,1c1,1,1,1,1,2c0,0,0,1,-1,1c0,0,0,1,0,1c0,0,-1,0,-1,0c0,0,-1,1,-1,1c0,0,-1,0,-1,0l-1,0c-1,0,-1,0,-1,-1c-1,0,-1,0,-1,-1l0,1l0,1c0,1,0,1,-1,2c0,0,0,1,-1,1c0,1,0,1,0,1c-1,0,-1,0,-1,0c-1,1,-1,1,-2,1c0,0,-1,0,-1,0l-1,0c-1,0,-1,0,-1,0c0,0,-1,-1,-1,-1c-1,0,-1,-1,-1,-1c0,0,0,-1,0,-1c0,-1,0,-2,0,-2c0,-1,0,-1,1,-1l0,-1l0,-1l1,0l-1,1c0,1,0,1,0,1c0,1,0,1,0,1c0,1,0,2,0,2c1,1,2,1,2,1c1,0,1,0,1,0c1,0,2,0,3,-1c1,0,1,0,2,-1c0,-1,0,-1,0,-1l0,-3c0,0,0,-1,0,-1c0,-1,0,-1,0,-1l-1,-7l1,-2l1,10c0,1,0,1,0,1c1,1,1,1,1,1c0,0,1,0,1,0l1,0l1,0c1,0,1,0,1,0c1,0,1,-1,1,-1c0,-1,0,-1,0,-1c-1,-1,-1,-1,-2,-2l-1,0l0,-1c0,0,-1,1,-1,1c0,0,0,-1,0,-1c0,0,-1,0,-1,0l0,-1l0,-1l0,-1c0,0,1,0,1,-1c1,0,2,-1,3,-2c2,0,3,-1,4,-1c1,0,2,-1,2,-1ZM409.5,47.5c1,-1,1,-1,1,-1c0,-1,1,-1,1,-1c1,1,1,1,1,1c0,1,0,1,0,1l-1,1l1,0l0,2l-1,-1l-1,0l0,1c-1,0,-1,1,-1,1l-1,0l-1,0l1,-1l1,0l0,-1l1,0l0,-1c-1,0,-1,0,-1,-1ZM411.5,47.5l-1,0l0,-1c0,0,0,1,0,1l1,1l0,-1ZM398.5,48.5l0,1c1,0,1,0,1,0l0,-1l0,-1l0,1l1,0c0,0,0,1,0,1c0,0,0,-1,0,-1l1,-1l0,1l0,1c0,0,-1,0,-1,1c-1,0,-1,0,-1,-1l0,1c-1,0,-1,0,-1,0c0,0,-1,0,-1,0l0,-1l0,-1ZM401.5,74.5l-5,2c1,-1,1,-1,1,-1l4,-2ZM357.5,59.5c0,-1,0,-1,0,-2c0,-1,0,-1,0,-2c0,0,1,0,1,1l0,1l0,1c0,1,0,1,-1,1ZM38.5,63.5l0,-1l1,0c0,0,0,-1,1,-1l0,-1l0,-1l-1,-1l0,-1c0,0,0,-1,0,-1l1,1l0,1l0,1l0,1l0,1l1,0l0,-1c1,0,1,0,1,0c1,0,1,0,1,0c0,0,1,0,1,1c0,0,-1,1,-1,1l-1,0c0,0,0,1,-1,1c0,0,-1,0,-1,0ZM42.5,61.5c0,0,-1,0,-1,0l-1,1c0,0,1,0,1,0c0,0,1,0,1,0c0,0,1,0,1,-1c-1,0,-1,0,-1,0ZM348.5,113.5l0,-1l0,-1l-1,-9l1,-2l1,10c0,1,0,1,0,1l-1,1c0,0,0,1,0,1Z" class="g1_40" />
</svg>