<?xml version="1.0" encoding="UTF-8" standalone="no"?>
<!DOCTYPE svg PUBLIC "-//W3C//DTD SVG 1.1//EN"
"http://www.w3.org/Graphics/SVG/1.1/DTD/svg11.dtd">
<svg version="1.1" xmlns="http://www.w3.org/2000/svg" xmlns:xlink="http://www.w3.org/1999/xlink">
<defs>
<style type="text/css"><![CDATA[
.g1_60{
stroke: #1F1A17;
stroke-width: 1;
stroke-linecap: butt;
stroke-linejoin: miter;
}
]]></style>
</defs>
<path fill-rule="evenodd" d="M279.5,368.5l-1,1c-1,0,-2,1,-2,1c-1,1,-2,1,-3,1l1,-1c1,0,1,0,2,-1c1,0,2,0,3,-1ZM84.5,419.5l-1,-1l-1,2l-1,-1l0,-2l2,1l1,-1l1,1ZM81.5,413.5c0,0,1,0,1,0c0,0,1,0,1,0c0,0,0,-1,0,-1c-1,-1,-1,-2,-1,-2c-1,0,-1,0,-1,0c0,0,0,-1,0,-1l0,-1l0,-1c0,0,1,1,1,1c0,1,1,1,1,1c0,0,0,1,0,1l0,1c1,0,1,1,1,1l0,1c0,0,0,1,-1,1c0,0,0,1,-1,1l-1,0l-1,0l-1,0l0,-1c0,-1,0,-1,-1,-1c0,1,0,1,-1,1c0,1,0,1,-1,1c0,0,-1,-1,-1,-2l-1,1c0,1,-1,1,-1,1c-1,0,-2,-1,-2,-2c0,1,0,1,-1,1c0,1,0,1,-1,1l-1,0l-10,0l0,1c0,0,0,1,0,1c-1,0,-1,0,-1,0l0,-1l0,-1l-1,0l-1,0c0,1,0,1,0,1c0,1,0,1,0,2c-1,0,-1,1,-1,1l-1,1l-1,0l-1,1l-1,0c0,0,-1,0,-2,-1l-1,0l1,0l0,-1c0,1,0,1,1,1c1,0,1,0,2,0c0,-1,0,-1,1,-1l0,-1c1,0,1,0,1,-1c0,0,1,0,1,0c0,-1,0,-1,1,-2l-1,-1l0,-1c0,0,0,-1,0,-1c1,0,1,1,1,1c0,0,1,0,1,0l1,0c0,0,1,0,1,0c0,0,0,-1,1,-2l0,-1l0,-1l0,-1l-1,0l0,-3l0,-2c0,0,0,-1,0,-1l0,-1l2,2l-1,0c0,1,0,1,0,2l0,1l0,2l0,1l0,1l0,1l0,1l2,-1l0,-1l1,0c1,-1,1,-1,1,-1l1,0c1,0,1,0,2,0c0,1,1,1,1,2c0,0,0,1,0,1c0,0,-1,0,-1,1l-1,0l0,1l2,-1l1,0l1,0l1,0c0,0,1,-1,1,-2l1,1c0,1,0,1,1,1c0,0,1,0,1,0c0,0,1,-1,1,-1l0,-1l1,0c0,1,0,1,0,1c0,1,0,1,1,1c1,-1,1,-1,1,-1l0,-1l1,0c0,2,1,2,1,2l1,0ZM80.5,402.5l4,-2l0,1l-4,2ZM44.5,402.5c0,0,1,0,1,0c0,0,1,0,1,0c1,0,1,0,2,0c0,0,0,1,0,1l0,1c-1,0,-1,0,-1,0c0,0,-1,0,-1,0c0,0,0,1,-1,1c0,0,-1,-1,-1,-1l2,0c1,0,1,-1,1,-1c-1,0,-1,0,-1,0c-1,0,-1,0,-1,0c-1,0,-1,0,-1,0c0,-1,0,-1,0,-1ZM72.5,404.5l1,0c0,0,1,0,1,0c1,0,1,0,1,0c1,0,1,0,1,0c0,0,0,1,0,1l-1,1l-1,0c0,0,-1,1,-1,1c-1,0,-1,-1,-1,-1l2,0c0,0,1,-1,1,-1l-1,0c-1,0,-1,0,-2,0c0,-1,0,-1,0,-1ZM66.5,412.5c0,0,0,-1,-1,-1c-1,0,-1,0,-1,0l-1,0c0,0,-1,0,-1,0l-1,1l-1,0l-1,1l1,0c0,0,1,0,1,0c0,0,1,0,1,0c0,0,1,0,1,0c1,0,2,-1,3,-1ZM59.5,396.5c0,-1,1,-1,1,-1l1,0c0,0,1,0,1,1c0,0,-1,0,-1,0l0,1l0,1l1,0l0,1l-2,-1l0,1c-1,1,-1,1,-1,1l-1,0l-1,0l1,0l0,-1c1,0,1,0,1,0l0,-1l1,0l-1,0c0,-1,0,-1,0,-1l0,-1ZM60.5,396.5l0,1l1,0l0,-1ZM53.5,399.5l0,-1c1,0,1,0,1,0c1,0,1,0,1,0c0,0,0,1,0,1l0,1c0,0,0,1,0,1l0,1l-1,0l-1,1c0,0,-1,0,-1,0l0,1l-1,0l0,-1l1,0c0,0,0,-1,1,-1l0,-1c0,0,0,-1,0,-1l0,-1ZM54.5,399.5c-1,0,-1,0,-1,0c0,0,0,1,0,1l1,0ZM46.5,411.5l-1,1c0,0,1,0,1,0l1,0c0,0,0,-1,0,-1c0,0,-1,0,-1,0ZM46.5,419.5c-1,0,-1,0,-1,0c-1,1,-1,1,-2,1c-1,0,-1,0,-2,-1l-1,0c0,0,1,0,1,0c1,0,1,0,1,0c0,0,1,0,1,0c1,0,1,0,1,0c0,-1,0,-1,1,-1l1,-1l0,-1c1,0,1,0,1,-1c1,0,1,-1,1,-1l0,-1c-1,0,-1,1,-1,1c0,0,-1,0,-1,0l-1,0c0,-1,0,-1,0,-1c0,-1,0,-1,0,-1c0,0,0,-1,0,-1c0,0,0,-1,0,-1c0,0,1,-1,1,-1l1,0c1,0,1,1,1,1c0,0,0,1,0,1c0,0,0,1,0,1c0,0,0,1,0,1c0,0,0,1,0,1c0,1,0,2,0,3c-1,0,-1,1,-1,1l-1,1ZM36.5,409.5l-2,-1l1,-2l2,1ZM36.5,418.5c-1,0,-2,0,-2,0c-1,0,-1,0,-1,-1c-1,0,-1,0,-1,-1c-1,0,-1,-1,-1,-2l0,-1c0,0,0,-1,1,-1c0,0,0,-1,0,-1c0,0,1,0,1,-1l0,1l0,1c-1,0,-1,0,-1,0c0,0,0,1,0,1c0,1,0,1,0,1l0,1c1,0,1,0,1,0c0,1,0,1,1,1c1,0,1,0,2,0c1,0,1,0,2,0c1,0,1,-1,2,-1c0,0,0,-1,0,-1c0,-1,0,-1,0,-1c0,-1,0,-1,0,-1l0,-1l-1,-1l0,-1l0,-2c1,0,1,1,1,1c0,1,0,1,0,1c1,0,1,1,1,1l0,1l0,1c0,0,0,1,0,1c0,1,0,1,0,2c-1,1,-1,1,-2,2c0,0,-1,0,-1,1c-1,0,-2,0,-2,0ZM32.5,402.5l4,-2l0,1l-1,0l-4,2ZM109.5,411.5l-1,0l0,1c0,0,1,0,1,0l1,0c-1,0,-1,-1,-1,-1ZM109.5,419.5c0,0,-1,0,-1,0c-1,1,-1,1,-2,1c-1,0,-1,0,-2,-1c0,0,-1,0,-1,0c0,0,1,0,1,0l1,0c1,0,1,0,1,0l1,0c0,-1,0,-1,0,-1c1,0,1,0,1,-1c1,0,1,0,1,-1c0,0,1,0,1,-1c0,0,0,-1,0,-1l0,-1c0,0,0,1,0,1c-1,0,-1,0,-1,0c0,0,-1,0,-1,0c-1,-1,-1,-1,-1,-1c0,-1,0,-1,0,-1c0,0,0,-1,0,-1c0,0,1,-1,1,-1c0,0,0,-1,0,-1c1,0,1,0,1,0c1,0,1,0,1,0c0,0,0,1,1,1c0,0,0,1,0,1c0,0,0,1,0,1c0,0,0,1,0,1c0,0,0,1,0,1c0,1,0,2,-1,3c0,0,0,1,0,1c-1,0,-1,0,-1,1ZM106.5,405.5l4,-2l0,1l-4,2ZM102.5,414.5c0,1,0,1,0,1l-1,0l0,-1c0,0,-1,0,-1,0l-1,-1l0,1c0,0,-1,1,-1,1l-1,0l-1,0l-1,0c-1,0,-1,0,-2,-1c0,0,-1,-1,-1,-2l0,-8l1,-2l0,10l1,0l0,1l1,0l1,0l1,0c1,0,1,0,1,0l1,0l0,-1c1,-1,1,-1,1,-2l1,0c1,0,1,0,1,0c0,1,1,1,1,1l0,1l0,1l0,1c0,0,-1,0,-1,0ZM100.5,412.5l1,0l1,1c0,0,0,-1,0,-1c-1,-1,-1,-1,-1,-1c0,0,-1,0,-1,1ZM97.5,402.5l5,-2l-1,1l-4,2ZM159.5,411.5l-1,0l0,1c0,0,1,0,1,0c0,0,1,0,1,0c0,0,-1,-1,-1,-1ZM159.5,419.5l-1,0c-1,1,-1,1,-2,1c-1,0,-1,0,-2,-1c0,0,-1,0,-1,0c0,0,1,0,1,0l1,0l1,0c0,0,1,0,1,0c0,-1,0,-1,0,-1c1,0,1,0,2,-1l0,-1c0,0,1,0,1,-1c0,0,0,-1,0,-1l0,-1c0,0,0,1,0,1l-1,0l-1,0c-1,-1,-1,-1,-1,-1c0,-1,0,-1,0,-1c0,0,0,-1,0,-1c1,0,1,-1,1,-1c0,0,0,-1,1,-1c1,0,1,0,1,0c0,0,0,1,1,1c0,0,0,1,0,1c0,0,0,1,0,1c0,0,0,1,0,1c0,0,0,1,0,1c0,1,0,2,-1,3c0,0,0,1,0,1c0,0,-1,0,-1,1ZM156.5,405.5l4,-2l0,1l-4,2ZM152.5,415.5l0,-1l0,-1l0,-9l1,-2l0,11c0,0,0,1,0,1c0,0,-1,1,-1,1ZM144.5,413.5c1,0,1,0,1,0c1,0,1,0,1,0c1,0,1,0,1,0c0,0,0,-1,0,-1l0,-2l0,-6c0,0,-1,-1,-1,-1c0,0,0,-1,1,-1c0,0,0,-1,0,-1l0,1c1,0,1,1,1,1l0,1l0,1l0,-1c0,0,0,1,0,1c0,0,0,1,0,2l0,2c0,1,0,1,0,1l0,2c0,0,0,1,0,1c0,1,-1,1,-1,1c0,0,0,1,-1,1c-1,0,-1,0,-1,0l-1,0l-1,0l-1,0c-1,0,-1,0,-2,0c0,0,-1,0,-1,-1c0,0,-1,1,-2,1c0,0,-1,0,-2,0c-1,0,-1,0,-1,0c-1,-1,-1,-1,-1,-2c-1,1,-1,1,-1,2c-1,0,-1,0,-1,0l-1,0c-1,0,-1,0,-2,0c0,0,0,-1,0,-1c0,1,-1,1,-1,2c-1,0,-1,0,-2,-1c-1,0,-1,0,-1,0l-1,1l-1,1c0,0,-1,0,-2,1c-1,0,-3,0,-4,0l5,-2l1,-1c0,0,1,0,1,-1l1,-2c0,0,1,-1,1,-1l1,0c1,0,1,0,1,1c1,0,1,1,2,1c1,0,1,0,1,0c1,0,1,0,1,0c0,0,1,0,1,-1l0,-1l0,-1l0,-7l1,-2l0,11c0,0,1,1,1,1c0,0,1,0,1,0l1,0c0,0,1,0,1,0l1,0c0,0,-1,0,-1,-1c0,-1,0,-1,1,-2c0,0,0,-1,0,-1c1,0,1,0,1,-1c0,0,1,0,1,0c1,0,1,0,2,0c0,1,0,1,0,2l0,1c0,0,0,1,0,1c-1,1,-1,1,-1,1c1,0,1,0,1,0c0,0,1,0,1,0l1,0ZM144.5,397.5c1,0,1,0,1,0c1,0,1,-1,2,-1c0,0,1,1,1,1c0,0,1,0,1,0l0,1c-1,0,-1,0,-1,1l-1,0l-1,0l-1,0l1,0c1,0,1,-1,2,-1c0,0,-1,0,-1,0c0,0,-1,0,-1,0c0,0,-1,0,-1,0c0,0,-1,0,-1,0l0,-1ZM141.5,407.5l-2,-1l-1,1l-1,-1l1,-1l1,1l1,-2l1,1ZM140.5,410.5c0,0,-1,0,-1,0c0,0,-1,0,-1,1c1,1,1,1,1,1c1,0,1,0,2,0c0,0,0,-1,0,-1c0,0,0,-1,0,-1c-1,0,-1,0,-1,0ZM136.5,399.5l4,-2c0,1,0,1,0,1l-4,2ZM130.5,399.5l4,-2l-1,0c0,1,0,1,0,1l-4,2ZM127.5,414.5l0,-1l-1,0c0,-1,0,-1,0,-1c0,0,-1,0,-1,0c0,1,0,1,0,1l1,0l0,1ZM126.5,421.5l-5,2c1,-1,1,-1,1,-1l4,-2ZM185.5,413.5l-1,-1l1,-1l1,1ZM198.5,415.5l0,1l-1,1l-1,0c0,1,-1,1,-1,1c0,0,-1,0,-2,0c-1,1,-2,1,-3,1c0,0,-1,1,-2,1c-1,0,-2,0,-2,0c-1,0,-2,0,-2,0c-1,0,-2,0,-2,0c-1,0,-2,0,-2,0c-1,-1,-2,-1,-3,-1c0,0,-1,0,-2,-1c-1,0,-2,-1,-3,-1c-1,-1,-2,-1,-3,-2l0,-1c0,0,1,1,1,1l1,0c0,0,1,1,2,1c1,0,1,1,2,1c0,0,1,0,1,0c1,0,1,1,2,1c1,0,1,0,2,0c1,0,1,0,2,0c1,0,1,0,2,0c0,0,1,0,2,0c0,0,1,0,2,0c0,0,1,0,2,0c1,-1,2,-1,3,-1c1,0,2,0,2,-1c2,0,3,-1,3,-2c0,0,0,-1,0,-1c0,0,-1,0,-1,0c0,-1,0,-1,0,-1c0,0,0,-1,0,-1c-1,0,-1,0,-1,0l1,-2l1,1c0,1,0,1,0,1c0,1,0,1,0,1c0,0,1,0,1,0c0,1,0,1,0,1c0,1,0,1,0,1c-1,1,-1,1,-1,1ZM244.5,412.5c-1,0,-2,0,-3,1c-1,1,-2,1,-3,1c-1,1,-2,1,-3,1l-1,0l-1,0l0,-1l-1,0c0,-1,0,-1,0,-1c0,1,0,1,-1,1c0,1,-1,1,-1,1c-1,0,-1,-1,-2,-2l0,1c0,1,-1,1,-1,1l-1,0c0,0,-1,-1,-1,-2c0,1,-1,1,-1,1c0,1,-1,1,-2,1l-1,0c0,0,0,1,0,1c0,0,-1,0,-1,0c0,0,0,1,0,1l0,1c-1,0,-1,1,-2,2c-2,0,-3,1,-4,1c-1,0,-1,0,-1,0c0,0,-1,0,-1,-1c-1,0,-1,0,-2,-1c0,0,0,-1,0,-2c0,-1,0,-1,0,-2c0,0,0,-1,1,-2c0,0,0,-1,0,-1l1,1l-1,0l0,1c0,1,0,1,0,2c0,0,0,1,0,1c0,1,0,1,0,1c0,0,1,0,1,0c1,1,1,1,2,1l1,0c0,0,1,0,1,0c1,-1,1,-1,2,-1c0,0,1,-1,1,-1l1,-1l0,-1l-2,0l-1,0c0,-1,0,-1,0,-1c-1,0,-1,0,-1,-1c0,0,0,-1,1,-1c0,-1,0,-1,0,-1c0,-1,1,-1,1,-1c1,0,1,0,1,1c1,0,1,0,1,1l0,1l2,0l1,0l1,0c0,0,1,-1,1,-2l0,1c1,1,1,1,1,1c1,0,1,0,2,0c0,0,0,-1,1,-1l0,-1c0,1,0,1,1,1c0,1,0,1,0,1l1,0c0,-1,1,-1,1,-1l0,-1c1,2,1,2,2,2l1,0l1,0c1,0,1,0,1,0c0,0,0,-1,0,-1c-1,-1,-1,-1,-1,-2c0,0,1,-1,1,-1l0,-1c1,0,1,-1,1,-1c0,0,1,0,1,0c0,0,1,0,1,0l1,0l1,0l0,1l1,0l-1,0l-1,0l-1,0l-1,0l-1,1c0,0,-1,0,-1,0c0,0,1,1,1,1l0,1c1,0,1,1,2,1c1,0,1,0,1,0c1,-1,1,-1,1,-1l1,0l1,0l0,-1ZM219.5,409.5l-2,-1l0,1l-2,-1l1,-1l1,1l1,-2l2,1ZM217.5,412.5l0,1c0,0,1,0,1,0l1,0c0,0,0,-1,0,-1c-1,0,-1,0,-1,0c-1,0,-1,0,-1,0ZM282.5,412.5l-1,0l-1,0c-1,0,-1,0,-2,0l-1,1l-1,0l-1,0l-1,1l-1,0l-1,1c-1,0,-1,0,-2,0l-1,0c-1,0,-1,0,-2,0c0,0,0,-1,0,-1c0,1,-1,1,-1,2c-1,0,-1,0,-2,-1c0,0,-1,0,-1,0l-1,1l-1,1c0,0,-1,0,-2,1c-1,0,-2,0,-4,0l5,-2l1,-1c0,0,1,0,1,-1l1,-2c0,0,1,-1,1,-1l1,0c1,0,1,0,1,1c1,0,1,1,2,1c1,0,1,0,1,0l1,0c0,0,1,0,1,0c0,0,1,0,1,0c1,0,1,0,2,0l1,-1l1,0l-1,-1l-1,0l-1,0l0,-1l-1,0l0,1l-1,0c0,-1,0,-1,0,-1c0,-1,1,-1,1,-1c0,0,1,0,1,0c1,0,1,0,1,0l1,0l2,1l1,0c0,0,0,1,1,1l1,0c0,0,1,0,1,0l1,0ZM266.5,414.5l0,-1l-1,0c0,-1,0,-1,0,-1c0,0,-1,0,-1,0c0,1,0,1,0,1l1,0l0,1ZM336.5,415.5l0,-1l1,-1l-1,-9l1,-2l0,11c0,0,0,1,0,1c0,0,0,1,-1,1ZM328.5,404.5l0,2c0,1,0,1,0,2l-1,1l0,1l2,0c0,1,1,1,2,1l1,0c0,0,1,0,1,0l1,0l0,2l-1,0l-1,0l-1,0l-1,0l-1,0l-1,0l-3,1l0,1c0,0,-1,0,-1,0l-1,0l-1,0l-1,0l-1,0l-1,0c0,-1,0,-1,-1,-1l-2,-2c0,-1,-1,-1,-1,-1l-1,-1c0,1,0,1,0,1l0,1c0,1,0,1,0,1c0,0,0,1,-1,1l0,1c0,0,-1,0,-1,0c0,0,-1,0,-1,0l-1,0l-1,0l-1,0c0,0,0,-1,0,-1c-1,0,-1,0,-1,0c-1,0,-1,0,-1,0c0,1,-1,1,-1,1c0,0,-1,0,-1,0l-1,0c0,0,-1,0,-1,0c0,0,-1,-1,-1,-1c0,1,0,1,-1,2c0,0,-1,0,-2,-1c0,0,-1,0,-1,0l-1,1l-1,1c0,0,-1,0,-2,1c-1,0,-2,0,-4,0l5,-2l1,-1c1,0,1,0,2,-1l0,-2c1,0,1,-1,1,-1c0,0,1,0,1,0l1,0l1,1c0,0,1,1,1,1l1,0l1,0c0,0,1,0,1,0c0,0,1,0,1,0c0,0,0,-1,1,-1c1,0,1,0,1,0l0,1c1,0,1,0,1,0l1,0l1,0c0,0,1,0,1,0l1,0l1,-1c0,-1,0,-1,0,-1c-1,-1,-1,-1,-1,-1l0,-1c-1,0,-1,0,-2,0c0,-1,0,-1,0,-1c-1,0,-1,0,-1,0c0,0,-1,0,-1,0c0,-1,0,-1,0,-1c0,-1,0,-1,0,-1c0,0,0,-1,0,-1l1,-1c0,0,1,-1,3,-1c1,-1,3,-1,4,-2c2,0,3,-1,3,-1l1,0l-1,2l-1,0c0,0,-1,0,-2,1c-2,0,-3,1,-4,1c-2,1,-3,1,-3,2l1,1l1,0l1,1c1,0,1,1,2,1c0,0,1,1,1,1c1,1,2,1,2,2l2,1l1,0l1,0l1,0l1,0l1,0l1,0l1,-1l1,0l-1,0l0,-1l-1,0l-1,0l-1,0c-1,0,-1,0,-1,0c0,0,0,-1,0,-1c0,0,1,-1,1,-1c1,0,1,0,1,0c0,0,1,0,1,0c0,0,0,-1,0,-1c1,0,1,0,1,-1c0,0,0,-1,0,-1c0,-1,0,-1,0,-2c0,-1,0,-1,0,-1c-1,0,-1,0,-1,-1l1,-1l0,1c1,0,1,0,1,0c0,0,0,1,0,1c0,0,0,1,0,1ZM326.5,397.5c0,0,1,0,1,0c1,0,1,-1,1,-1c1,0,1,1,2,1l0,1l0,1c0,0,-1,0,-1,0l-1,0l-1,0l-1,0l2,0c1,0,1,-1,2,-1c-1,0,-1,0,-1,0c0,0,-1,0,-1,0c0,0,-1,0,-1,0c0,0,-1,0,-1,0l0,-1ZM319.5,405.5l5,-2l-1,1l-4,2ZM320.5,418.5l-5,2c1,0,1,0,1,0c0,-1,0,-1,0,-1l4,-2ZM308.5,418.5l-1,-1l-1,2l-2,-1l1,-2l2,1l0,-1l2,1ZM300.5,414.5l0,-1c-1,-1,-1,-1,-1,-1l-1,0c0,1,0,1,0,1l1,0l0,1ZM299.5,421.5l-4,2c0,-1,0,-1,0,-1l4,-2ZM388.5,411.5l-1,0l1,0c0,1,0,1,0,1l1,0c0,0,0,-1,0,-1c0,0,-1,0,-1,0ZM388.5,418.5c0,1,0,1,0,1c-1,0,-1,0,-1,0c-1,0,-1,0,-2,0c-1,0,-1,0,-2,0l-1,0c0,-1,0,-1,0,-1c0,0,1,0,1,0c1,0,1,0,1,1c0,0,1,0,1,-1c1,0,1,0,1,0l1,0c0,-1,0,-1,1,-1c0,0,0,-1,0,-1c1,0,1,0,1,-1c0,-1,1,-1,1,-1c0,-1,0,-1,0,-1c-1,0,-1,0,-1,0c0,0,0,1,0,1c0,0,-1,0,-1,0l-1,0c0,-1,0,-1,0,-1c0,0,-1,-1,-1,-1c0,0,1,0,1,-1c0,-1,0,-1,0,-1c0,-1,1,-1,1,-1l1,0c0,0,1,0,1,1c0,1,0,1,0,2l0,1c0,0,0,1,0,1c0,1,0,2,0,2c-1,1,-1,1,-1,1c0,1,0,1,-1,1ZM385.5,405.5l5,-2l-1,0c0,1,0,1,0,1l-4,2ZM381.5,415.5l0,-2l0,-1l0,-8l1,-3l0,11c0,0,0,1,0,1c0,1,0,1,-1,2ZM374.5,413.5l1,0l1,0c0,0,0,-1,0,-1l0,-2l0,-7c0,-1,0,-1,0,-1c0,-1,0,-1,0,-1c1,0,1,0,1,0c0,1,0,1,0,1l1,0c0,1,-1,1,-1,2c0,1,0,1,0,2c0,0,0,1,0,3c0,0,0,1,0,1l0,1c0,0,0,1,0,1c0,1,0,1,0,1c-1,1,-1,1,-1,1c0,0,-1,0,-1,0c0,1,-1,1,-1,1l-1,0l-1,0c-1,0,-2,0,-2,-1c-1,0,-1,0,-1,0c-1,0,-1,0,-2,0c0,0,-1,1,-1,1l-1,0l-1,0l0,-1l0,1l0,1c0,0,-1,1,-1,2l-1,0c0,1,0,1,0,1c-1,1,-1,1,-1,1c-1,0,-1,0,-1,0c-1,0,-1,0,-1,0l-1,0c0,0,-1,0,-1,0c-1,0,-1,0,-1,-1l1,0c1,0,1,0,2,0c0,0,1,0,1,0c0,-1,1,-1,1,-1c0,0,0,-1,1,-1l0,-1c0,0,1,-1,1,-1c0,0,0,-1,0,-1l-1,0c0,-1,0,-1,0,-1l0,-1l1,0l1,1l1,0c1,0,1,0,1,0l1,0c0,-1,0,-1,0,-1c0,-1,0,-1,0,-1c0,0,0,-1,0,-1c0,-1,1,-1,1,-1c0,-1,0,-1,0,-1c1,0,2,-1,2,-1c1,0,1,1,1,1c0,0,0,1,1,1l0,1c-1,1,-1,1,-1,2l-1,1c1,0,1,0,1,0l1,0l1,0ZM374.5,397.5c0,-1,0,-1,1,-1c0,0,1,0,1,0c1,0,1,0,2,0c0,0,0,1,0,1c0,1,0,1,-1,1c0,0,0,1,0,1l-1,0c0,0,-1,0,-1,0c-1,0,-1,0,-1,0l2,-1c0,0,1,0,1,0c0,-1,0,-1,0,-1c-1,0,-1,0,-1,0c-1,0,-1,0,-2,0c0,0,0,1,0,1l0,-1ZM370.5,406.5l-1,-1l-1,2l-2,-1l1,-2l2,1l1,-1l1,1ZM369.5,409.5l-1,1c0,1,0,1,0,1c0,0,1,0,1,1c0,0,1,-1,1,-1c0,0,1,0,1,0c0,-1,0,-1,-1,-1c0,-1,0,-1,-1,-1ZM369.5,395.5c1,0,1,0,1,0c0,-1,1,-1,1,-1c1,0,1,1,1,1c0,0,0,1,0,1l-1,0c0,1,0,1,0,1l1,0l0,2l-1,-1l-1,0l0,1c-1,0,-1,0,-1,1l-1,0l-1,0l1,-1l1,0l0,-1l1,0l0,-1c-1,0,-1,0,-1,-1l0,-1ZM371.5,396.5l-1,-1l0,1l1,0l0,1l0,-1ZM302.5,401.5c1,0,1,0,1,0c1,0,1,0,2,0c0,0,1,0,1,0c0,0,1,0,1,1c-1,0,-1,1,-1,1l-1,0c0,0,0,1,0,1c-1,0,-1,0,-1,0l-1,0l1,-1c1,0,1,0,2,-1c0,0,-1,0,-1,0l-1,0c0,0,-1,0,-1,0l-1,0c0,0,0,-1,0,-1ZM358.5,404.5c1,0,1,-1,1,-1c1,0,1,0,2,0c0,0,1,0,1,0c0,1,1,1,1,1l-1,0c0,1,0,1,0,1c0,0,-1,1,-1,1l-1,0l-1,0l1,0c1,-1,1,-1,2,-1c-1,0,-1,0,-1,-1c0,0,-1,0,-1,0c0,0,-1,0,-1,1c0,0,-1,0,-1,0c0,-1,0,-1,0,-1ZM355.5,415.5l0,-2l0,-1l-1,-8l1,-3l1,11c0,0,0,1,0,1l-1,0c0,1,0,1,0,2ZM346.5,408.5l-1,-1l1,-1l1,1ZM346.5,418.5c-1,0,-1,0,-2,0c0,-1,-1,-1,-1,-1c0,0,-1,-1,-1,-1c0,-1,0,-1,0,-2c0,0,0,-1,0,-1c0,0,0,-1,0,-1c0,0,0,-1,0,-1c1,0,1,0,1,0c0,-1,0,-1,0,-1c0,1,0,1,0,1c0,0,0,1,0,1c0,1,-1,1,-1,1c1,1,1,1,1,1c0,1,0,1,1,1c0,0,0,1,1,1c0,0,1,0,1,0c1,0,2,0,2,-1c1,0,2,0,2,-1c1,0,1,-1,1,-1c0,0,0,-1,0,-1c-1,0,-1,0,-1,0c0,-1,0,-1,0,-1c0,0,0,-1,0,-1l-1,-1l1,-2l0,1c1,0,1,0,1,1l0,1c0,1,0,1,0,1c0,0,0,1,0,1l0,1c0,0,0,1,0,2c0,0,-1,1,-1,1c-1,1,-1,1,-2,1c-1,1,-1,1,-2,1ZM348.5,420.5l-4,2c0,0,1,-1,1,-1l4,-2ZM422.5,418.5l-1,-1l-1,1l-1,-1l0,-1l2,1l1,-2l1,1ZM419.5,415.5l-1,0l-1,0l0,-1l-1,0c0,-1,0,-1,0,-1l-1,0c0,1,0,1,0,1l-1,0l0,1l-1,0c0,-1,0,-1,-1,-1l0,-1c0,0,0,1,-1,1c-1,0,-1,0,-1,1l-1,0l-1,1c0,1,0,1,0,1l0,1c0,0,0,1,-1,1c0,0,0,1,0,1c-1,0,-1,0,-1,1c0,0,-1,0,-1,0c-1,0,-1,0,-2,0l0,1l-1,0l-1,-1l-1,0c-1,0,-1,0,-1,0c0,-1,-1,-1,-1,-1c0,0,0,-1,0,-1l0,-1c0,0,0,-1,0,-1c0,-1,0,-1,0,-1c0,-1,0,-1,0,-1l1,-1c0,1,0,1,0,1l0,1l-1,0l0,1c0,0,1,1,1,1c0,0,0,1,1,1c1,0,1,0,1,1c1,0,1,0,2,0c0,0,1,0,1,0c0,0,0,-1,1,-1c1,0,1,0,1,0c0,0,1,-1,1,-1c0,-1,0,-1,1,-1l0,-1c0,0,0,-1,-1,-1c0,0,0,-1,0,-1l0,-1l0,-1l1,0l0,1c1,0,1,0,1,0c0,0,1,0,1,0l1,0l0,-1l1,0l0,-1l1,0c0,0,0,1,0,1l0,1c1,0,1,0,1,0c0,0,1,0,1,-1l0,-1l1,0l0,1c1,1,1,1,1,1l1,0l1,0c1,0,1,0,2,0c0,0,1,-1,1,-1c0,0,0,-1,0,-1c0,0,-1,-1,-1,-1l1,-2c0,0,0,1,0,1l0,1l1,0l0,1c0,1,0,1,0,1c0,1,-1,1,-1,1c0,1,-1,1,-1,1c-1,1,-1,1,-2,1ZM186.5,405.5c-1,1,-3,1,-4,1l-1,0l-1,0l-1,0c0,0,-1,1,-1,1c0,0,0,-1,0,-1l2,-2c1,1,2,1,3,1l1,0l1,0l1,0l1,-1ZM230.5,404.5c-1,1,-2,1,-3,1l-1,0l-1,0l-1,0c-1,0,-1,1,-1,1l-1,0c0,0,0,-1,1,-1l1,-2c1,1,2,1,3,1l1,0l1,0l1,0l0,-1l1,0ZM243.5,402.5c-1,1,-2,1,-4,1l-1,0l-1,0l-1,0c0,0,0,1,-1,1c0,-1,0,-1,0,-1l2,-2c1,1,2,1,3,1l1,0l1,0l1,-1l1,0ZM217.5,403.5c-1,0,-2,1,-3,1l-1,0l-1,-1l-1,0c-1,1,-1,1,-1,1l-1,0l1,-1l1,-2c1,1,2,1,3,1l1,0l1,0l1,0l1,-1ZM411.5,405.5c-1,0,-2,1,-3,1l-1,0l-1,0c0,0,0,-1,0,-1l-1,0c-1,1,-1,1,-1,1l-1,0c0,0,1,0,1,-1l1,-1c1,0,2,0,3,0l1,0l1,0l1,0l1,0ZM267.5,405.5c-1,0,-2,1,-3,1l-1,0l-1,0c0,0,0,-1,0,-1l-1,0c-1,1,-1,1,-1,1l-1,0l1,-1l1,-1c1,0,2,0,3,0l1,0l1,0l1,0l1,0ZM354.5,399.5c0,0,0,1,0,1c0,0,0,1,0,1c0,-1,0,-1,0,-1c0,-1,0,-1,-1,-1c0,0,0,-1,0,-1l0,-1l0,-1c0,1,1,1,1,2c0,0,0,1,0,1ZM419.5,404.5c0,1,0,1,0,1l0,-1c-1,0,-1,0,-1,-1l0,-1l-1,0l1,-1l1,1c0,1,0,1,0,2ZM275.5,404.5c0,1,0,1,0,1c0,0,-1,0,-1,-1l0,-1l0,-1c-1,0,-1,0,-1,0l1,-1l1,1c0,1,0,1,0,2ZM390.5,370.5l-1,-1l0,-2l2,1ZM378.5,364.5c1,0,1,0,2,0c0,0,0,-1,1,-1l0,-1c0,1,0,1,0,1c1,1,1,1,1,1c1,0,1,0,1,0c0,-1,0,-1,1,-1l0,-1c1,2,1,2,2,2l1,0c1,0,1,0,2,0c0,0,1,0,1,0c0,0,0,-1,0,-1l0,-1l-1,-1l1,-1l1,1l0,1l0,1c0,0,0,1,0,1c0,0,-1,1,-1,1c0,0,0,1,-1,1c-1,0,-1,0,-2,0l-1,0l-1,0l0,-1c0,0,-1,0,-1,0c0,-1,0,-1,0,-1c0,1,-1,1,-1,1c0,0,-1,1,-1,1c-1,0,-1,-1,-2,-2l0,1c-1,1,-1,1,-1,1l-1,0c-1,0,-1,-1,-1,-2c-1,1,-1,1,-1,1c-1,5,-31,4,-37,1c0,0,-1,-1,-1,-1c0,1,0,1,-1,2c0,0,-1,0,-2,-1c0,0,-1,0,-1,0l-1,1l-1,1c0,0,-1,0,-2,1c-1,0,-2,0,-4,0l5,-2l1,-1c1,0,1,0,2,-1l0,-2c1,0,1,-1,1,-1c0,0,1,0,1,0l1,0l1,1c0,0,1,1,1,1c9,5,26,3,36,0c1,0,2,-1,2,-2l0,1c0,1,1,1,1,1ZM337.5,365.5l0,-1c-1,-1,-1,-1,-1,-1l-1,0c0,0,0,1,0,1l1,0l0,1ZM323.5,367.5l0,1c0,0,0,1,0,2c0,0,-1,0,-1,0c0,0,-1,0,-1,-1c0,0,-1,0,-1,0l0,-1c0,1,0,1,-1,1l0,1l-1,0l-1,0l-1,0l0,-1c0,0,-1,0,-1,0c0,1,-1,1,-1,1c-1,0,-1,0,-1,0l-1,0l0,-1c0,-1,0,-1,0,-1c1,-1,1,-1,1,-1c1,0,1,-1,1,-1c1,0,1,0,1,0c0,-1,0,-1,0,-1l1,-1c0,0,0,1,0,1c0,1,0,1,0,1c0,1,0,1,0,1c0,0,0,1,1,1c0,1,0,1,1,1l0,-1c1,0,1,0,1,0c0,-1,0,-1,0,-1c0,0,0,-1,0,-1l0,-1l0,-1l0,-1c0,0,1,1,1,2c0,1,0,1,0,1c0,1,1,1,1,1c0,0,0,1,0,1c1,0,1,0,1,0c0,-1,0,-1,0,-1c0,-1,0,-1,-1,-1c0,-1,0,-1,0,-1c0,-1,0,-1,0,-1l0,-2c0,1,1,1,1,1c0,1,0,1,0,2c1,1,1,2,1,2ZM315.5,367.5c0,0,-1,0,-1,1c0,0,-1,0,-1,0c1,0,1,0,1,0l1,0c0,0,0,-1,0,-1ZM262.5,370.5c1,1,2,1,3,2c1,0,2,1,4,1c2,1,5,1,7,1c1,0,3,0,4,0c2,0,3,-1,5,-1c2,-1,3,-1,4,-2c1,0,2,-1,2,-1c0,-1,0,-1,0,-1c0,-1,0,-1,-1,-1l1,-2c0,0,0,1,1,1c1,0,1,0,1,0c0,0,1,0,1,0c0,-1,1,-2,1,-2c1,0,1,0,1,0c1,0,1,-1,2,-1c0,0,-1,0,-1,0c0,0,-1,0,-1,0c-1,0,-1,0,-1,0l-1,0c0,0,0,-1,1,-1c0,-1,1,-1,1,-1l1,0l1,0l1,0c0,1,1,1,1,1c1,0,2,1,3,1c0,0,1,0,1,0l0,1c-1,0,-1,0,-2,0l-1,0c-1,0,-2,0,-3,0c0,0,-1,1,-1,1c0,1,0,1,0,1l0,1c0,0,0,1,0,1c-1,0,-1,0,-1,0c0,0,-1,0,-1,0c-1,-1,-1,-1,-1,-1c0,1,0,1,-1,1l-1,0l0,1c0,1,0,1,-1,1c0,0,0,1,0,1c-1,0,-1,0,-2,1c0,0,-1,1,-2,1c-1,0,-2,1,-4,1c-1,0,-2,0,-3,1c-1,0,-2,0,-4,0c-1,0,-3,0,-5,-1c-2,0,-4,-1,-5,-1c-1,-1,-2,-1,-2,-1c-1,-1,-1,-1,-2,-1c0,-1,-1,-1,-1,-2c-1,0,-1,0,-2,0c0,0,-1,0,-1,0c0,0,-1,0,-1,1c0,0,-1,-1,-1,-1c-1,0,-1,0,-1,0l-1,1c0,1,-1,1,-1,1c0,0,-1,0,-1,0l-1,0c0,0,-1,0,-1,0c0,0,-1,0,-1,0c1,0,1,0,2,0c0,-1,1,-1,2,-1c0,-1,1,-1,1,-1l0,-1c0,0,0,-1,0,-1l0,-1l1,-1c1,1,2,1,2,2c1,0,2,0,2,0c1,1,2,1,3,1l1,0c0,0,1,0,2,0c0,0,1,-1,2,-1l1,0l1,-1l0,1c0,0,1,0,1,0c1,0,2,0,2,-1c1,0,1,0,2,0c-1,-1,-1,-1,-2,-1c0,0,-1,0,-2,0c-1,0,-1,0,-1,0l-1,0c1,-2,2,-2,3,-2c1,0,1,0,1,0c1,0,2,1,2,1c1,0,1,0,1,0l1,0c0,1,0,1,1,1c0,0,1,0,1,0c1,0,1,0,1,0l0,1l-4,0l-1,1c0,0,-1,0,-1,0c-1,1,-1,1,-2,1c0,0,-1,0,-1,0c-1,0,-1,0,-1,0c-1,0,-2,1,-3,1c-2,0,-3,0,-4,0ZM296.5,367.5c0,-1,0,-1,-1,-1c0,1,0,1,0,1l1,0ZM256.5,369.5c0,0,0,-1,-1,-1l0,-1c0,1,0,1,0,1l0,1c1,0,1,0,1,0ZM261.5,363.5c0,0,1,0,1,-1c0,0,1,0,1,0c0,0,1,0,1,1c0,0,1,0,1,0c-1,1,-1,1,-1,1c0,0,-1,1,-1,1c0,0,-1,0,-1,0l-1,0l2,-1c0,0,1,0,1,0c0,-1,0,-1,-1,-1c-1,0,-1,0,-1,0c0,1,-1,1,-1,1c0,-1,0,-1,0,-1ZM131.5,367.5c-1,0,-1,0,-3,0c0,0,-1,1,-3,1c-2,0,-3,0,-3,0l-1,0c0,0,-1,0,-1,0c-1,0,-3,0,-4,0c-2,0,-3,1,-4,1c-1,0,-2,0,-2,0l-1,0l-1,0c0,0,-1,0,-1,0l-1,0c0,0,0,1,0,1l0,1c0,0,0,1,0,2c0,0,-1,1,-2,1l-1,-1c0,0,0,-1,-1,-1c0,-1,0,-2,0,-3l-1,0c0,0,-1,0,-1,0l-1,0c-1,0,-1,0,-1,-1c-1,0,-1,0,-1,0c-1,-1,-1,-1,-1,-1c-1,0,-1,1,-1,1c0,0,-1,0,-1,0l0,1l-1,0c-1,0,-1,0,-2,-1l-1,0l-1,-1l-1,0l0,1c0,0,-1,0,-1,0c0,0,-1,0,-1,0l-1,0l0,1l-12,0l0,1l0,1l-1,-1l0,-1c0,1,-1,1,-1,2c0,0,0,1,0,1c0,1,-1,1,-1,1c0,1,0,1,-1,1l0,1c0,0,-1,0,-1,0c-1,0,-1,0,-1,0c-1,1,-1,1,-2,1c0,0,-1,0,-2,-1c0,0,-1,0,-1,0c-1,-1,-1,-1,-1,-2l0,-1l0,-1c0,-1,0,-1,0,-2c0,0,1,-1,1,-1l1,0l-1,0c0,1,0,1,0,1c0,1,0,1,0,2c0,0,0,1,0,1c0,0,0,1,1,1c0,0,0,1,1,1c0,0,1,0,1,0c1,0,1,0,1,0c0,0,1,0,1,0c1,0,1,-1,2,-1c0,0,1,-1,1,-1c0,-1,1,-1,1,-2c0,0,0,-1,-1,-1c0,-1,0,-1,0,-1c0,0,0,-1,0,-1l1,-1c0,1,0,1,1,1l1,0l1,-1l3,-2l1,-1c1,0,1,0,1,0c1,0,1,0,1,0c1,0,1,0,1,0c1,0,1,0,1,0c0,0,0,1,1,1c0,1,0,1,0,1c0,1,0,1,0,1c0,1,-1,1,-1,1l2,0l1,0c0,0,1,0,1,0l1,0l0,-1l1,0l-1,-1l-1,0l1,-2l1,0c0,0,1,-1,1,-1l0,1c0,0,1,0,1,0c0,0,1,0,1,0c0,0,0,1,0,1c0,0,0,1,0,1l-1,1c1,0,1,1,1,1l1,0l1,0c0,0,1,0,1,0c0,0,1,0,1,-1c0,0,1,0,1,0l1,0c0,0,0,1,0,1c1,0,1,0,2,0l1,0l1,0l1,0c0,-1,0,-1,1,-2l0,-1c1,-2,2,-2,3,-2l0,1l0,1c0,1,0,1,0,1c-1,1,-1,2,-2,2l1,0l1,0l1,0l1,0l1,0c1,0,1,0,1,0c1,0,2,0,3,0c1,0,2,0,3,0c1,0,3,0,4,-1l2,0c1,0,2,0,3,0c1,0,2,0,4,0c1,0,2,0,2,0l1,0c0,-1,0,-1,0,-1c-1,0,-1,0,-1,-1l-1,0l-1,0c-1,0,-2,0,-4,0c-2,1,-4,1,-6,1c-2,0,-3,0,-4,0c-2,0,-4,0,-4,0c0,0,0,-1,0,-1c0,0,0,-1,0,-2c0,0,1,0,1,0c0,-1,0,-1,1,-2c0,0,1,-1,2,-2c1,0,2,-1,3,-1l1,0l-1,1c0,0,-1,1,-1,1c-1,1,-2,1,-3,2c-1,0,-1,1,-2,2c1,0,1,0,1,0c0,0,1,0,1,0c1,0,1,0,1,0c1,0,3,0,5,0c2,0,4,0,6,0c1,0,3,0,3,0c1,0,1,0,1,0c0,0,1,0,2,0c0,1,1,1,1,1c0,0,0,1,0,1c0,0,0,1,0,2c-1,0,-1,0,-1,0ZM105.5,364.5l-1,0l-1,1l0,1c1,0,1,0,2,-1c0,0,1,0,1,-1l-1,0ZM103.5,369.5l0,1c0,1,0,1,1,1l0,1l1,0l1,-1c0,0,0,-1,-1,-1c-1,-1,-1,-1,-2,-1ZM97.5,372.5l-1,-1l-1,1l-1,-1l0,-1l2,1l1,-2l1,1ZM78.5,365.5l-1,0l-1,1l-2,1l4,0c1,0,2,0,2,0c1,-1,1,-1,2,-1l0,-1c-1,0,-1,0,-1,0c0,0,-1,0,-1,0c-1,0,-1,0,-1,0c0,0,-1,0,-1,0ZM165.5,369.5l-1,-1c0,0,0,-1,-1,-1l0,-1l0,1l-1,1c0,0,-1,0,-1,0c-1,0,-1,0,-2,-1l0,1c0,0,-1,0,-1,1l-1,0c0,0,-1,-1,-1,-2c0,0,-1,0,-1,1c0,0,-1,0,-2,1l-1,0c0,0,-1,-1,-1,-1c0,0,-1,0,-1,0c0,0,0,1,-1,1c0,0,-1,0,-1,0c-1,0,-2,-1,-2,-1l0,1c-1,1,-1,1,-2,1c0,1,-1,1,-2,1c-1,0,-2,0,-3,0l4,-2l1,0c1,0,1,-1,2,-1l0,-2c1,-1,1,-1,1,-1c0,0,1,0,1,-1l1,0c0,0,0,1,1,1c0,1,1,1,1,1c0,1,0,1,1,1l1,0l1,0l1,0c0,-1,1,-1,1,-2l0,1c1,0,1,1,1,1c1,0,1,0,2,-1l1,-1c0,0,0,1,0,1c1,0,1,0,1,0l1,0c0,0,1,0,1,0c0,-1,0,-1,0,-1c1,1,1,2,2,2l1,0c1,0,1,0,2,-1l0,-1l0,-1l0,-2l0,-1l0,-2l-1,-2l0,-1l1,-1l1,2c0,0,-1,1,-1,1l1,1l0,1l0,1l0,1l0,2l0,1l0,1l1,-2l1,0l1,-1c0,0,1,0,1,0l1,0c0,0,1,0,1,0c1,0,1,1,1,1l0,1c0,1,0,1,0,1c-1,1,-1,1,-1,1c-1,0,-1,0,-1,1c-1,0,-2,0,-3,0c-1,0,-1,1,-2,1ZM173.5,364.5c-1,0,-1,1,-2,1l-1,1l-2,1l1,0c1,0,1,0,2,0c1,0,1,0,1,0c1,-1,2,-1,3,-1c0,-1,0,-1,0,-1c0,0,-1,0,-1,0c0,-1,0,-1,-1,-1ZM149.5,367.5l0,-1c-1,0,-1,0,-1,0c-1,0,-1,0,-1,0c0,1,0,1,1,1l1,0ZM236.5,369.5l0,-2l0,-1l-1,-8l1,-3l1,11c0,0,0,1,0,1c-1,1,-1,1,-1,2ZM228.5,367.5c1,0,1,0,1,0c1,0,1,0,1,0c0,0,1,-1,1,-1l0,-2l-1,-7c0,-1,0,-1,0,-1c1,-1,1,-1,1,-1c0,1,0,1,0,1c0,0,1,0,1,0c0,1,0,1,0,1c0,1,0,1,0,1c-1,0,-1,0,-1,0c0,1,1,1,1,2c0,0,0,1,0,3c0,0,0,1,0,1l0,1c0,0,0,1,0,1c0,1,0,1,-1,1c0,1,0,1,0,1c0,0,-1,0,-1,0l-1,0c0,0,0,1,0,1l-1,0l-1,0c0,0,-1,-1,-1,-1l-1,0c0,0,0,1,-1,1c0,0,-1,0,-1,0l-1,-1l-2,-1l-1,1c0,0,0,1,-1,1l-1,0l-11,0l-1,0l0,1l0,1l0,-1l0,-1l-1,0c0,1,0,1,0,2c-1,0,-1,1,-1,1c0,1,0,1,-1,1c0,1,0,1,0,1c-1,0,-1,0,-1,1l-1,0l-1,0c0,1,-1,1,-1,1c-1,0,-2,0,-3,-1c0,0,-1,0,-1,0c0,-1,-1,-1,-1,-2l0,-1l0,-1c0,-1,0,-1,0,-2c1,0,1,-1,1,-1l1,0c-1,1,-1,1,-1,1c0,1,0,1,0,2c0,0,0,1,0,1c0,0,1,1,1,1c0,0,1,1,1,1c1,0,1,0,2,0c1,0,1,0,1,0c1,0,1,-1,2,-1c0,0,1,-1,1,-1c1,-1,1,-1,1,-2c0,0,0,-1,0,-1c0,-1,0,-1,-1,-1c0,0,0,-1,0,-1l1,-1c0,1,1,1,1,1l1,0l1,-1l3,-2l1,0l0,-1c1,0,1,0,2,0l1,0l1,0c1,0,1,1,1,1c0,1,0,1,0,1c0,1,0,1,0,1c0,1,0,1,0,1l-1,0l2,0l1,0l1,0c1,0,1,0,1,0l1,-1l0,-1c1,-1,2,-2,3,-2l0,1l1,1l1,1l1,0c0,1,0,1,0,1l1,0l1,0ZM227.5,351.5l1,0c0,0,1,0,3,0c1,1,1,1,2,1l1,0l1,-1l1,0c-1,1,-2,1,-2,1l-1,1l-1,0l-1,0l-1,0l-1,-1l-1,0l-1,0c0,0,-1,0,-1,1l0,-1c0,0,0,-1,1,-1ZM224.5,367.5l0,-1c-1,0,-1,-1,-1,-1l-1,0l-1,1c1,0,1,0,2,0l0,1ZM210.5,365.5l-1,0l0,1l-1,0l-1,1l3,0l1,0c0,0,1,0,1,0c1,-1,2,-1,2,-1l0,-1l-1,0c-1,0,-1,0,-1,0c0,0,-1,0,-1,0l-1,0ZM222.5,356.5c-1,1,-2,1,-3,1l-1,0l-1,0l-1,-1c-1,1,-1,1,-2,2l0,-1l1,0l0,-1l1,-1c1,0,2,1,3,1l1,0l1,0l1,-1l1,0ZM122.5,351.5c-1,0,-2,1,-3,1l-1,-1l-1,0l-1,0c-1,1,-1,1,-2,1l1,-1l1,-2c1,1,2,1,3,1l1,0l1,0l1,0l1,-1ZM91.5,355.5c-2,1,-3,1,-4,1l-1,0c0,0,-1,0,-1,0l-1,-1c0,1,-1,2,-1,2l0,-1l0,-1l1,-1c2,0,3,1,4,1l1,0l1,-1l1,0ZM74.5,356.5c-2,0,-3,0,-4,0l-1,0c-1,0,-1,0,-1,0l-1,0c0,0,-1,1,-1,1c0,0,0,-1,0,-1l1,-2c2,1,3,1,4,1l1,0l1,0l1,0l0,-1ZM150.5,356.5c-1,1,-2,1,-3,1l-1,0l-1,0l-1,-1c0,1,-1,1,-1,2l0,-1l0,-1l1,-1c1,0,2,1,4,1l1,0l1,-1l1,0ZM163.5,359.5c-1,1,-2,1,-3,1l-1,0l-1,0l-1,0c-1,0,-1,1,-2,1c0,0,0,-1,0,-1l1,0l1,-2c1,1,2,1,3,1l1,0l1,0l1,0l0,-1l1,0ZM207.5,357.5c-1,1,-2,1,-3,1l-1,0l-1,0l-1,0l0,-1c-1,1,-1,1,-2,2l0,-1l1,-1l1,-1c1,0,2,1,3,1l1,0l1,0l1,-1l1,0ZM380.5,358.5c0,0,-1,1,-1,1l-1,0c0,0,0,1,0,1c0,0,-1,0,-1,0c0,-1,0,-1,1,-1l0,-1c0,0,-1,0,-1,0l-1,0c0,0,0,1,0,1c0,-1,0,-1,1,-1c0,-1,0,-1,1,-1c0,0,1,0,1,0c0,1,1,1,1,1ZM298.5,354.5c0,1,0,1,-1,1c0,1,0,1,-1,1l-1,0l1,-1l-1,0c-1,0,-1,0,-1,0c0,-1,1,-1,1,-1l1,0c0,0,1,0,1,0c0,0,1,0,1,0ZM318.5,358.5c0,1,0,1,0,1c0,0,0,-1,-1,-1c0,0,0,-1,0,-1l0,-1c0,0,-1,0,-1,0l1,-1l1,1c0,1,0,1,0,2ZM172.5,355.5c0,0,0,1,-1,1c0,-1,0,-1,0,-1c0,-1,-1,-1,-1,-1l0,-1l0,-1c1,0,1,1,1,2c0,0,1,1,1,1ZM96.5,356.5l0,1c0,0,-1,0,-1,0c0,-1,0,-1,0,-2l-1,0c0,-1,0,-1,0,-1l0,-1c1,0,1,1,1,1c1,1,1,1,1,2ZM104.5,356.5l0,1c0,-1,-1,-1,-1,-2c0,-1,0,-1,-1,-1l1,-1c0,0,0,1,1,1c0,1,0,1,0,2ZM293.5,360.5l0,1l0,-1c-1,0,-1,0,-1,-1l0,-1l-1,0l1,-1l1,1c0,1,0,1,0,2ZM290.5,363.5l-1,1l-1,-1l1,-1ZM326.5,366.5c0,0,-1,1,-1,1c0,0,0,1,0,1c0,0,0,-1,-1,-2l0,-1l-1,-5l1,-3l1,8l0,1c1,0,1,0,1,0ZM310.5,367.5l0,1c0,0,0,1,-1,1c0,0,0,-1,0,-2c0,0,0,-1,0,-1l-1,-5l1,-3l1,8c0,0,0,1,0,1ZM307.5,366.5c0,1,0,1,0,2c0,0,-1,0,-1,1l-1,0l-1,0c0,1,0,1,0,2c0,1,-1,1,-1,1c0,1,-1,1,-1,1c0,0,0,1,-1,1c-1,0,-1,0,-1,0c-1,0,-1,0,-2,-1l-1,0c0,-1,0,-1,0,-1l0,-1c0,1,1,1,1,1c0,0,0,1,0,1c1,0,1,0,1,0c1,0,1,0,1,0c1,0,1,-1,1,-1c1,0,1,-1,2,-1c0,-1,0,-1,1,-1c-1,-1,-1,-1,-1,-1l0,-1c0,-1,0,-1,0,-1c0,0,1,1,1,1c1,0,1,0,1,0c0,0,1,0,1,-1l0,-1l-2,-6l0,-1c0,-1,0,-1,0,-1c1,-1,1,-1,1,-1c0,0,0,1,0,1c0,1,1,1,1,1c0,0,0,1,0,1c0,0,0,1,0,2c0,1,0,1,0,2c1,1,1,1,1,2ZM336.5,369.5c0,0,0,1,0,1c-1,1,-2,1,-3,2c-1,0,-1,0,-2,0l1,-1l1,0c1,-1,1,-1,2,-1c0,0,1,-1,1,-1ZM294.5,373.5l-1,0l0,1c-1,0,-2,1,-2,1c-1,0,-2,1,-3,1l1,-1c1,0,1,-1,2,-1c0,0,1,0,1,-1c1,0,1,0,2,0ZM303.5,354.5l0,1c-1,0,-2,1,-3,1c-1,1,-1,1,-2,1l1,-1c0,0,1,0,1,-1c1,0,1,0,2,0c1,-1,1,-1,1,-1ZM393.5,370.5c0,0,0,1,0,1c-1,1,-2,1,-3,2c-1,0,-2,0,-2,0l1,-1l1,0c0,-1,1,-1,2,-1c0,0,1,-1,1,-1ZM315.5,371.5l0,1c-1,1,-2,1,-3,1c-1,1,-2,1,-2,1l1,-1l1,0c0,-1,1,-1,2,-1c0,-1,1,-1,1,-1ZM303.5,359.5l-1,1c-1,0,-1,0,-1,0c0,0,-1,1,-1,1l0,-1c-1,0,-1,0,-1,0l0,-1c1,0,1,0,1,0c0,0,0,1,0,1c0,0,0,-1,1,-1c0,-1,0,-1,0,-1c0,1,0,1,0,1c0,0,1,0,1,0c0,0,0,-1,0,-1c0,0,1,0,1,0c0,1,0,1,0,1ZM320.5,360.5c0,0,0,1,0,1c-1,0,-1,0,-1,0l-1,0c0,0,0,1,0,1l-1,0c0,0,-1,-1,-1,-1c0,-1,0,-1,0,-1c0,0,1,0,1,0c0,0,0,1,0,1c1,0,1,0,1,-1l0,-1l0,1c0,0,1,1,1,1c0,0,0,-1,0,-1c0,0,0,-1,0,-1l1,0c0,1,0,1,0,1ZM288.5,367.5c0,0,-1,0,-1,1c0,0,0,1,0,1c0,0,0,-1,0,-1c-1,-1,-1,-2,-1,-2l-1,-5l1,-3l1,8l1,0c0,0,0,1,0,1ZM280.5,361.5c0,0,0,1,0,1l-1,0c-1,0,-1,0,-1,0c0,1,0,1,0,1c-1,0,-1,0,-1,0c0,-1,0,-1,0,-1c0,-1,0,-1,0,-1l0,1c0,0,1,0,1,0l0,-1c0,0,0,-1,0,-1c1,1,1,1,1,1c0,0,1,0,1,0c-1,0,-1,0,-1,-1l1,0c0,0,0,1,0,1ZM284.5,366.5c0,0,0,1,0,1c0,0,0,1,0,1c-1,0,-1,0,-2,1l-1,1c0,0,0,1,-1,1c0,1,0,1,0,1c-1,0,-1,0,-1,0c0,0,-1,0,-1,0l-1,0c0,0,-1,0,-1,0c-1,0,-1,-1,-1,-1l1,0l1,0l1,0l1,0c0,0,1,-1,1,-1c0,0,1,-1,1,-1c0,0,0,-1,-1,-1c0,-1,0,-1,0,-1c1,0,1,-1,1,-1c0,1,0,1,0,1c0,0,1,0,1,0l1,0l0,-1l-1,-6l0,-1c0,-1,0,-1,0,-1c0,-1,1,-1,1,-1c0,0,0,1,0,1c0,1,0,1,1,1c0,0,0,1,0,1c0,0,-1,0,-1,0l1,5ZM279.5,353.5l-21,8c0,-1,1,-1,1,-2c5,-2,10,-4,13,-5c1,0,3,-1,5,-2c1,0,2,-1,3,-1ZM273.5,371.5l-2,1l-1,-1l-1,1l-1,-1l1,-1l1,0c0,1,0,1,0,1l1,-1ZM259.5,371.5c0,0,0,1,0,1c-1,1,-2,1,-3,2c-1,0,-1,0,-2,0l1,-1c0,0,1,0,1,0c1,-1,1,-1,2,-1c0,0,1,-1,1,-1Z" class="g1_60" />
</svg>