<?xml version="1.0" encoding="UTF-8" standalone="no"?>
<!DOCTYPE svg PUBLIC "-//W3C//DTD SVG 1.1//EN"
"http://www.w3.org/Graphics/SVG/1.1/DTD/svg11.dtd">
<svg version="1.1" xmlns="http://www.w3.org/2000/svg" xmlns:xlink="http://www.w3.org/1999/xlink">
<defs>
<style type="text/css"><![CDATA[
.g2_20{
stroke: #1F1A17;
stroke-width: 1;
stroke-linecap: butt;
stroke-linejoin: miter;
}
.g1_20{
fill: #1F1A17;
stroke: #1F1A17;
stroke-width: 1;
stroke-linecap: butt;
stroke-linejoin: miter;
}
]]></style>
</defs>
<path fill-rule="evenodd" d="M244.5,131.5l0,1l-1,0c-1,1,-1,1,-2,1l-1,0c1,0,2,-1,3,-1c-1,-1,-1,-1,-1,-1c0,-1,0,-1,0,-2c1,0,1,0,1,0c1,0,1,0,1,1l0,1ZM186.5,140.5c3,1,2,-3,8,-6l0,-1c0,0,-1,0,-1,0c-1,0,-4,5,-6,6c-3,1,0,-2,-3,-2c0,1,1,1,1,2c0,0,0,1,1,1ZM193.5,149.5c0,0,-1,1,-1,1l-3,2c0,-1,0,-1,0,-1l1,0ZM220.5,134.5l0,1l0,1c0,0,0,1,0,1c0,1,0,2,0,2l0,2c0,1,0,2,0,2c-1,1,-1,2,-2,2l-2,0c-1,0,-1,0,-1,-1c0,0,-1,1,-1,1c-1,0,-2,0,-3,-1l-1,1l-2,0l-9,0c-2,0,-3,-1,-3,-2c-1,1,-1,2,-1,2c-1,0,-1,0,-2,0l-1,0c0,1,-1,2,-2,3c0,1,-1,1,-2,1c-2,0,-3,0,-4,-1c1,0,2,0,3,0c1,0,2,0,2,-1c1,0,2,-1,2,-2c0,0,-1,0,-1,0c-1,0,-1,-1,-1,-1c0,-1,0,-2,0,-2c1,-1,1,-2,2,-2c0,0,0,1,1,1c0,1,0,1,0,2c0,0,1,0,1,0l1,0c0,0,1,0,1,-1l1,-1c0,1,0,1,0,1c1,1,1,1,2,1c0,0,1,-1,2,-2c1,-1,2,-1,3,-2c1,0,2,-1,3,-1c0,0,1,0,1,1c0,0,0,1,0,1c0,1,0,1,0,2c0,0,-1,0,-1,1c0,0,1,0,1,0c1,0,1,0,1,0c1,0,2,0,2,0c0,-1,1,-1,1,-2c1,-1,1,-1,2,-1c0,0,1,0,1,1c0,0,1,1,1,1c0,0,1,1,2,1c1,0,2,-1,2,-1c0,-4,0,-6,0,-8c-1,0,-1,0,-1,-1c0,-1,1,-2,2,-2l-1,1c0,0,1,1,1,1l0,1ZM191.5,143.5c0,-1,-1,-1,-1,-1c0,0,0,1,0,1c0,0,1,0,1,0ZM206.5,141.5l-1,0c-1,-1,-1,-1,-1,-1c-1,0,-3,1,-5,3l1,0c1,0,2,0,3,0c2,-1,3,-1,3,-2ZM213.5,143.5l0,-1c0,0,0,-1,0,-1c-1,1,-1,1,-1,1c0,0,0,1,0,1c1,0,1,0,1,0ZM224.5,141.5c0,2,0,4,-1,4l0,-12c0,0,1,0,1,-1ZM225.5,128.5c0,0,0,1,0,1l-4,2c0,-1,0,-1,0,-1c1,0,1,0,1,-1ZM220.5,128.5c0,1,-2,2,-4,2c1,0,2,0,2,-1c0,0,1,0,1,-1l-1,0c-1,0,-2,0,-2,-1c0,0,1,0,1,0c0,-1,0,-1,1,-1c0,0,1,1,1,1c0,0,1,0,1,1ZM214.5,136.5l0,2l-1,-1c-1,1,-1,2,-2,2l-1,-1c1,0,2,-1,3,-1c-1,-1,-1,-1,-1,-1c0,-1,0,-1,0,-1c1,-1,1,-1,1,-1c1,0,1,0,1,1c0,0,0,1,0,1ZM213.5,135.5c0,0,0,1,0,1l0,-1ZM186.5,145.5c0,0,-1,0,-1,0c0,-1,0,-1,0,-1l0,-1c0,-1,1,0,1,1c1,0,0,0,0,-1c0,0,0,-1,0,-1c1,0,1,0,1,0c1,0,1,0,1,0c0,0,0,1,0,1l-1,0c0,-1,0,-1,0,-1c-1,1,1,2,-1,3ZM194.5,138.5c0,1,0,1,-1,1l-1,0l0,1c-1,0,-1,0,-1,0c0,-1,0,-1,0,-1l0,-1c0,1,0,1,1,1l0,-1c1,0,1,0,1,0c0,0,1,0,1,-1c0,0,0,1,0,1ZM192.5,132.5l-1,1l0,-1c-1,1,-2,2,-3,2c0,-1,1,-1,2,-2c0,0,-1,-1,-1,-1c0,0,1,-1,1,-1c0,-1,0,-1,1,-1l0,1c0,0,0,1,0,1c0,0,0,1,1,1ZM191.5,131.5c0,-1,0,-1,-1,-1c0,0,0,1,1,1ZM204.5,134.5c0,1,0,1,0,1l-3,2c0,0,0,-1,0,-1ZM252.5,132.5c0,-1,0,-1,0,-2l0,-1c0,0,1,1,1,1l0,1c1,-1,0,-2,1,-2c0,-1,0,-1,0,-1c0,0,1,0,1,0c0,0,0,1,0,1l-1,0c-1,1,0,2,-2,3ZM243.5,135.5c0,0,0,1,0,1c-1,0,-3,3,-3,1c0,0,1,0,1,-1c0,-1,0,-2,1,-2c0,0,1,0,1,0c0,1,0,1,-1,1c-1,0,-1,0,-1,0c0,1,1,1,2,0ZM261.5,144.5c-1,0,-1,0,-1,0c-2,1,-4,1,-5,0c-1,-1,-1,-2,-1,-5c0,-1,0,-3,0,-6c0,0,0,-1,0,-1l1,-1l0,8c0,1,0,2,0,3c1,0,3,1,4,0c0,0,1,0,1,-1l0,1c0,0,1,0,1,0c0,1,2,0,2,0c0,-4,0,-6,0,-8c-1,0,-1,-1,-1,-1c0,-1,1,-2,2,-2c0,1,0,1,0,1l0,1c0,0,1,0,1,0c0,1,-1,1,-1,1c0,1,0,1,0,1c0,1,0,1,0,2c0,1,0,1,0,2l0,2c0,1,0,2,0,2c-1,2,-2,2,-3,1ZM259.5,148.5l1,1l2,-1l-2,-1ZM250.5,142.5c0,1,0,3,-1,4c-1,1,-2,2,-3,2c-1,0,-2,0,-3,-1c1,0,2,0,4,-1c2,-1,3,-2,3,-3c0,0,-1,-1,-1,-1c0,0,-1,-1,-1,-1l1,-2c0,1,1,1,1,1c0,1,0,1,0,2ZM247.5,136.5l0,1c-1,0,-1,0,-1,0l-1,0c0,0,-1,0,-1,1c-1,0,-1,1,-1,1c0,1,0,1,1,1c0,0,1,0,2,0c0,1,1,1,1,2c0,1,-1,2,-3,3c-2,1,-3,1,-4,1c-2,0,-3,0,-3,-1c-1,0,-1,-1,-1,-3c0,0,0,-1,0,-2c1,0,1,-1,1,-1c0,1,0,2,0,2c0,2,1,3,3,3c1,0,2,0,3,0c1,-1,2,-1,2,-2c0,0,-1,0,-1,0c-1,0,-1,0,-2,0c0,-1,0,-1,0,-2c0,-1,0,-2,1,-3c1,-2,2,-2,3,-2l1,0l0,1ZM269.5,140.5c0,3,0,4,-1,5l0,-12c0,0,0,-1,1,-2ZM264.5,128.5c0,1,-1,2,-3,2c0,0,1,0,1,-1c1,0,1,0,1,-1l-1,0c-1,0,-1,0,-1,-1c0,-1,1,-1,1,-1c1,0,1,1,1,1c1,0,1,0,1,1ZM261.5,134.5c0,1,0,1,0,1l-4,3c0,-1,0,-1,0,-1l1,-1ZM251.5,148.5c0,1,0,1,0,1l-4,2c0,0,1,0,1,-1ZM270.5,127.5c0,1,-1,1,-1,1l-3,2c0,-1,0,-1,1,-1ZM243.5,130.5l0,1l0,-1Z" class="g1_20" />
<path fill-rule="evenodd" d="M381.5,312.5l0,1c1,0,1,0,1,0c0,0,1,0,1,-1l0,-1l0,1c1,0,1,0,1,0c0,0,1,0,1,-1l0,-1l0,1l0,1l0,1c0,0,0,1,0,1l-1,0l-1,0l0,-1l0,1c-1,0,-1,1,-1,1c-1,0,-1,0,-1,-1l0,-1l0,-1ZM187.5,359.5c0,0,1,0,1,0c0,-1,1,-1,1,-1c1,0,1,0,2,1c0,1,0,1,0,1c-1,1,-1,1,-1,1c0,0,-1,0,-1,0l-1,0c0,0,-1,0,-1,0l2,0c1,0,1,-1,2,-1c-1,0,-1,0,-1,0c-1,0,-1,0,-1,0c-1,0,-1,0,-1,0c-1,0,-1,0,-1,0c0,0,0,-1,0,-1ZM170.5,363.5l0,-1l0,-1c0,0,0,-1,0,-2c0,-1,0,-1,0,-1l1,0c0,0,1,-1,1,-1l-1,1l0,1l0,1l-1,0l0,1l0,1c1,0,1,0,1,0l0,-1c0,0,1,0,1,1l0,1c0,1,0,1,-1,1c0,0,0,-1,-1,-1ZM300.5,371.5l0,-1l1,0c0,-1,0,-1,0,-1l0,-1l0,-1l0,-1l0,-1c0,-1,0,-1,0,-1l1,1c0,0,-1,0,-1,1l1,0l0,1l0,1l0,1l1,-1c0,0,1,0,1,0c0,0,1,0,1,0l0,1l0,1c0,0,-1,0,-1,0c0,0,-1,0,-1,1c-1,0,-1,0,-1,0ZM304.5,369.5c-1,0,-1,0,-1,0l-1,0l-1,1l1,0l1,0c1,0,1,-1,2,-1c0,0,-1,0,-1,0ZM104.5,371.5c0,1,0,2,0,2c0,0,-1,0,-1,1c0,1,0,1,-1,1l2,0l0,1l-1,0l-1,1l-1,0l0,1c0,0,-1,0,-1,0l-1,1l-1,0l-1,0l-1,1l-1,1l-4,0l-1,0l0,-1c-1,-1,-1,-1,-1,-1c-1,0,-2,0,-3,-1l-1,0l0,-1l-1,0l-1,-1l-1,0l0,-1l2,0l-1,0l0,-1l-1,-1l0,-1l0,-1l0,-1l0,-1l1,-1l0,-1l-1,-1c0,0,1,0,1,0l0,-1l1,0l1,-1l1,0l1,-1l2,0l0,-1l1,-1c1,0,1,0,1,-1l4,0l1,1l0,1l1,0l0,1l2,0l1,0l0,1c0,0,1,0,1,0l1,1c1,0,1,1,2,1l-2,1l1,0l0,1l1,1l0,1ZM95.5,381.5l0,-1l1,0l0,-1l1,0c1,0,1,0,1,0l1,-1l1,0l1,-1l1,0c0,0,0,-1,0,-1l1,0l0,-1l-1,0l1,-1l0,-1l0,-1l1,0l0,-1c0,-1,-1,-2,-1,-2c0,0,0,-1,0,-1c0,0,0,-1,0,-1l-1,0l1,-1c0,0,-1,0,-1,-1l-1,0l0,-1l-1,0l-1,-1l-2,0l-1,-1l0,-1l-1,0l-4,0l-1,0l0,1c-1,1,-1,1,-1,1l-2,0l-1,1l-1,0l0,1l-1,0c0,0,-1,1,-1,1l1,1l-1,0l0,1l0,1l-1,0l0,1c0,0,0,1,0,1l0,1l0,1l1,0l0,1l1,1l-1,0l0,1l1,0l0,1l1,0l0,1l1,0l1,0l2,1l1,0l0,1l1,0c0,1,0,1,0,1ZM101.5,366.5l-1,0l-1,0l0,-1l-1,0c-1,0,-1,0,-1,0c0,-1,0,-1,0,-1l1,0l1,0c0,1,0,1,0,1c1,0,1,0,1,0l0,1ZM101.5,376.5l-1,0l0,1l-1,0l-1,1l-1,0l0,-1c1,0,1,0,1,0l1,-1c0,0,1,0,1,-1l0,1ZM96.5,378.5l0,1c0,0,-1,0,-1,0l-4,0c0,0,-1,0,-1,0l0,-1c0,0,0,-1,0,-1l1,0l4,0l1,0l0,1ZM96.5,364.5c0,0,0,1,0,1c0,0,-1,0,-1,0l-4,0c0,0,-1,0,-1,0l0,-1c0,0,0,-1,0,-1l1,0l4,0c0,0,1,0,1,0l0,1ZM95.5,367.5l0,-1l1,0l1,0l1,0c0,0,0,1,1,1l0,1l1,-1c0,0,1,0,1,1l0,1l1,1l0,1l0,1l-1,1c0,1,0,1,0,1l-1,1l-1,-1l0,1l-1,0l0,1l-1,0l-1,0c0,0,-1,-1,-1,-1l-4,0l-1,1l-1,0c0,0,-1,0,-1,0c0,-1,-1,-1,-1,-1l0,-1l-1,1l-1,-1l0,-1l-1,-1l0,-1c0,-1,0,-1,0,-1c0,0,0,-1,1,-1l0,-1c0,-1,0,-1,1,-1l1,1c0,0,0,-1,0,-1l1,0l0,-1c0,0,1,0,1,0c1,0,1,0,1,0l1,0l0,1ZM95.5,375.5l1,0l1,0c1,0,1,0,1,0l1,-1l1,0l1,0l0,-1l0,-1l0,-1c0,-1,0,-1,0,-2c0,0,0,-1,0,-1c-1,0,-1,0,-1,0l-1,0l-1,-1l0,-1l-1,0c-1,0,-1,0,-1,0l-1,0c0,1,0,1,0,1l-4,0l-1,-1l-1,0c-1,0,-1,0,-1,1l-1,0c0,1,0,1,0,1l-1,0l-1,0l0,1l0,1l0,1l0,1l0,1c0,1,0,1,1,1l1,0l1,1l1,0c1,0,1,0,1,0c0,0,1,0,1,0l4,0ZM93.5,369.5l0,1l0,1l1,0l0,1l1,1l-1,0l-1,-1l0,-1c0,0,0,1,-1,1l0,1l-1,0c1,-1,1,-1,1,-2l1,-1l0,-1ZM85.5,366.5l1,0l0,-1l1,0l1,-1l1,0l0,1c-1,0,-1,0,-1,0c0,0,-1,0,-1,0l0,1l-1,0l-1,0ZM85.5,376.5l1,0l0,-1c0,1,1,1,1,1l0,1l1,0l1,0c0,0,0,1,0,1l-1,0c-1,-1,-2,-1,-2,-1l0,-1l-1,0ZM158.5,377.5l-1,-1l1,-1l1,1ZM156.5,373.5l-1,0l-1,0c-1,0,-1,0,-2,0l0,-1c-1,1,-1,2,-1,2c-1,0,-1,0,-2,0l-1,-1l-1,-1l-1,1c0,0,-1,0,-1,0l-1,0l-1,0l-1,0c-1,0,-2,0,-2,0c-1,0,-1,0,-1,0c-1,0,-1,0,-2,0c-1,0,-1,0,-2,0l-1,0l-1,0l-1,0l-1,0l0,-1l0,-1l0,1l-1,0l0,1c-1,0,-1,0,-2,0c0,0,-1,0,-1,0l-1,0l-1,0c-1,0,-1,-1,-1,-1l0,-1l0,-1l1,0c0,0,0,1,0,1l1,0l1,0c1,0,1,0,1,0c0,0,1,0,1,0c1,0,1,0,1,0l1,-1c0,0,-1,0,-1,-1l0,-2l0,-1l0,-1l1,-1l0,2l0,1l1,3c0,1,0,1,0,1c0,1,0,1,1,1l1,0l1,0l1,0c1,0,1,0,1,-1l0,-1c0,0,0,-1,0,-1c0,-1,1,-1,1,-1c0,-1,0,-1,0,-1c1,-1,1,-1,2,-1c0,0,1,0,1,1c0,0,0,1,0,1l0,1c0,1,0,1,0,2l-1,1c1,0,1,0,1,0c1,0,1,0,1,0l1,0l2,0c0,0,1,0,1,0l0,-1c0,0,1,0,1,-1c1,-1,2,-2,3,-2l1,1l0,1l1,1c1,0,1,1,1,1l1,0l1,0l1,0c0,0,1,0,1,0c1,-1,1,-1,1,-1l1,0c0,-1,-1,-1,-1,-1c0,0,0,-1,0,-1l0,-2c1,0,1,0,1,1l0,1l0,1l0,1c0,0,0,1,0,1c-1,1,-1,1,-2,1c0,0,-1,0,-1,0ZM157.5,380.5l-3,1l0,-1l4,-1ZM151.5,372.5l-1,-1c0,0,0,-1,0,-1c-1,0,-1,0,-1,0l-1,1c0,0,1,0,1,0l1,1ZM148.5,377.5l-4,2c0,-1,1,-1,1,-1l4,-2ZM140.5,365.5l-1,-1l-1,1l-2,-1l1,-1l2,1l0,-1l2,1ZM139.5,368.5l-1,0c0,1,0,1,0,1c0,1,0,1,0,1l1,1c0,-1,1,-1,1,-1l1,0l0,-1c0,0,-1,0,-1,0c0,-1,0,-1,-1,-1ZM135.5,355.5l1,0l1,0c0,0,1,0,1,0c1,0,1,0,1,1c0,0,-1,1,-1,1l0,1c-1,0,-1,0,-1,0c-1,0,-1,0,-1,0l-1,0l1,-1c1,0,2,0,2,-1l-1,0l-1,0l-1,0l-1,1l0,-1c0,0,1,0,1,-1ZM126.5,360.5l4,-2l0,1l-4,2ZM120.5,373.5l0,-1l0,-1l-1,-8l1,-3l1,11l0,1l-1,0c0,1,0,1,0,1ZM109.5,377.5c0,0,0,-1,0,-1c0,0,0,1,1,1c1,0,2,-1,3,-1c0,0,1,-1,1,-1c1,-1,1,-1,1,-2c0,0,1,0,1,-1l0,-1l-1,-1c0,0,0,-1,0,-1l0,-1l1,0c0,1,0,1,0,2l0,1l1,0l0,1c0,0,-1,1,-1,1l0,1c0,1,-1,1,-1,2c-1,1,-1,1,-1,1l-1,0l-1,1l-1,0c0,0,-1,0,-1,-1c-1,0,-1,0,-1,0ZM114.5,381.5l-5,3l1,-2l5,-2c0,1,-1,1,-1,1ZM109.5,382.5l1,-2l5,-2l-1,1ZM202.5,370.5c0,0,-1,1,-2,1c-1,1,-2,1,-3,2c-2,0,-3,0,-3,0l-1,0c-1,0,-1,0,-1,0c-1,0,-1,0,-1,0l0,-1c0,0,-1,0,-1,0c0,0,0,1,-1,1c0,0,-1,0,-1,0l-1,0l-1,0l-1,0c0,0,-1,0,-1,0l0,-1l0,-1l-1,1l-1,1c0,0,-1,0,-1,0c0,0,-1,0,-2,0c-1,0,-1,0,-1,0l-1,0c0,0,0,-1,0,-1l0,-1l0,-1l1,0c0,0,0,1,0,1l1,0l1,0c1,0,1,0,1,0l1,0c0,0,1,0,1,0l0,-1l0,-1l0,-2l0,-1l0,-1l0,-1l1,2l0,1l0,3l1,0c0,1,0,1,0,1c0,1,0,1,0,1l1,0l1,0l1,0l1,0c0,0,0,-1,1,-1c0,-1,0,-1,0,-1l1,0c0,1,0,1,0,1l1,1l1,0l1,0c1,0,2,-1,2,-1c-1,0,-1,0,-1,-1c0,0,0,-1,0,-1c0,0,0,-1,0,-1l0,-1l1,0c0,-1,0,-1,0,-1l1,0c0,0,0,-1,0,-1c1,0,1,0,1,0c1,0,1,0,1,0l1,0l0,1l1,0c0,0,0,1,0,1l-1,0l-1,-1l-1,0l0,1c-1,0,-1,0,-1,0c-1,0,-1,0,-1,0c0,1,0,1,0,1c0,1,0,1,1,1c0,1,1,1,1,1c1,0,1,0,1,0l1,0l1,0l0,-1l1,0l1,0ZM198.5,377.5l-4,2c0,-1,0,-1,0,-1l4,-2ZM190.5,369.5l-2,-1l1,-1l2,0ZM179.5,360.5l4,-2l0,1l-4,2ZM171.5,374.5l-1,-1c0,0,-1,-1,-1,-2l1,-1l0,-1l1,-2c0,0,1,-1,1,-1c0,0,1,1,1,1c1,1,1,1,1,2l0,1c0,2,0,3,-1,3c-1,1,-1,1,-2,1ZM172.5,369.5l-1,0c-1,0,-1,1,-1,1c0,1,0,1,0,1c0,0,1,0,1,1l1,0l1,0l0,-1c0,0,1,0,1,0c0,0,-1,-1,-1,-1c-1,-1,-1,-1,-1,-1ZM233.5,364.5l-1,0l1,-2l1,1ZM235.5,367.5l-1,-1l-1,1l-2,-1l1,-1l2,1l0,-1l2,0ZM235.5,371.5c1,0,1,-1,1,-1l0,-1l1,0c0,0,0,1,0,1l0,1l1,0l0,-1l0,-1c0,0,1,0,1,0l0,1l0,1l0,1c0,1,0,1,-1,1c-1,0,-1,0,-1,0c-1,0,-1,0,-1,0c0,0,-1,0,-1,0c-1,0,-1,1,-2,1c-1,0,-1,0,-1,0c0,-1,-1,-1,-1,-1c-1,-1,-1,-1,-1,-1c0,0,-1,0,-2,0c0,1,0,1,-1,1c0,0,0,1,0,1c0,0,1,0,1,0c0,0,1,0,2,1l1,0c0,1,0,1,0,1c0,1,0,1,0,1c0,0,-1,1,-1,1c0,0,-1,1,-2,1c-2,1,-3,1,-4,1c-1,0,-1,0,-1,0c0,0,-1,0,-1,0c-1,-1,-2,-1,-2,-1c-1,-1,-1,-1,-1,-2c0,0,0,-1,0,-1l0,-1c0,0,0,-1,0,-1c0,-1,1,-2,1,-2l1,0c-1,0,-1,1,-1,1c0,1,0,1,0,2c0,1,0,2,1,2c1,1,1,1,2,1c0,0,1,0,1,0c0,0,1,0,1,0l1,0l1,0c0,0,1,-1,1,-1c0,0,1,0,1,0c1,0,1,-1,1,-1c0,0,-1,0,-1,0c-1,0,-2,0,-3,-1l0,-1l0,-1c1,0,1,-1,1,-1c1,-1,1,-1,2,-1c0,-1,0,-1,1,-1l1,0l0,1c1,0,1,0,1,0c0,0,0,1,1,1l1,0l0,-1c1,0,1,0,1,0ZM231.5,357.5l4,-2l0,1l-5,2ZM222.5,363.5c0,-1,0,-1,1,-1c0,0,1,0,1,0c1,0,1,0,1,0c1,0,1,1,1,1c0,0,0,1,-1,1l0,1l-1,0c0,0,-1,0,-1,0l-1,0l2,-1c0,0,1,0,1,-1l-1,0c-1,0,-1,0,-2,0c0,0,0,1,0,1l0,-1ZM212.5,371.5l0,-1c1,0,1,0,1,-1c1,0,1,0,1,0c1,0,1,0,1,0l0,1l0,1l-1,0c-1,0,-1,0,-1,0l0,1c0,0,1,0,1,0c0,0,1,0,1,0c0,0,1,0,1,0l0,1l-5,2c0,-1,0,-1,1,-1l0,-1c0,0,1,0,1,0c-1,0,-1,0,-1,0c0,-1,0,-1,0,-1c0,-1,0,-1,0,-1ZM216.5,378.5l-5,2l1,-1l5,-3c0,1,-1,1,-1,2ZM211.5,378.5l1,-1l5,-3c0,1,-1,1,-1,1ZM289.5,369.5c0,0,0,1,0,1c0,0,0,1,0,1c1,0,1,0,1,-1c0,0,0,-1,-1,-1ZM289.5,377.5c0,0,0,1,0,1c0,0,-1,0,-1,0c0,0,-1,0,-2,0c0,0,-1,0,-2,0l0,-1l1,0c0,0,1,0,1,0l1,0c0,0,1,0,1,0c0,-1,1,-1,1,-1c0,-1,1,-1,1,-1c0,0,0,-1,0,-1c1,-1,1,-1,1,-2c0,0,-1,0,-1,0l0,1l-1,0l0,-1l-1,0c0,-1,0,-1,0,-1c0,0,0,-1,0,-1c0,-1,0,-1,0,-2c1,0,1,0,1,0c0,0,1,-1,1,-1l0,1c1,0,1,0,1,0c0,1,0,1,0,1c0,1,1,1,1,1c0,1,0,1,0,2l0,1c-1,1,-1,1,-1,2c0,1,-1,1,-1,1c0,1,0,1,-1,1ZM287.5,364.5l4,-2l-1,0c0,0,0,1,0,1l-4,2ZM282.5,372.5c0,0,-1,0,-3,0c0,0,-1,0,-3,1c-2,0,-2,0,-3,0c-1,0,-1,0,-2,0c-1,0,-3,0,-4,0c-1,0,-3,0,-4,0c-1,0,-2,0,-2,0l-1,0l-1,0c0,0,-1,0,-1,0c0,0,-1,-1,-1,-1l0,1l0,1c0,1,0,1,0,2c-1,0,-1,1,-1,1c-1,0,-1,0,-1,1c0,0,-1,0,-1,0c-1,0,-1,0,-1,0c-1,1,-1,1,-2,1l-1,0l0,-1l-1,0c0,0,-1,0,-1,0c0,-1,0,-1,-1,-1c0,-1,0,-1,0,-2c0,0,0,-1,0,-2c0,0,1,0,1,-1l1,-1l0,1l-1,0c0,0,0,1,0,1c0,0,0,1,0,1c0,1,0,1,1,2c0,0,1,1,2,1c1,0,2,-1,3,-1c1,0,2,-1,2,-1l0,-1l0,-3c0,0,0,-1,0,-2l0,-1l0,-6l1,-2l0,10l0,1c0,0,1,0,1,0l0,1c1,0,1,0,1,0l1,0c1,0,1,0,1,0c1,0,2,0,3,0c1,0,2,0,3,0c2,0,3,-1,4,-1l2,0c1,0,2,0,3,0c1,0,3,0,4,0c1,0,2,-1,3,-1c0,0,-1,-1,-1,-1l-1,0l-1,0c-1,0,-2,0,-4,0c-2,0,-4,1,-6,1c-2,0,-3,0,-4,0c-2,0,-3,0,-4,-1c0,-1,0,-1,0,-2c0,0,1,0,1,-1l1,-1c1,0,1,-1,2,-2c1,0,2,-1,3,-1c0,0,1,0,1,-1l-1,2c0,0,0,1,-1,1c-1,0,-2,1,-3,1c-1,1,-1,2,-2,2l0,1c1,0,1,0,1,0c1,0,1,0,1,0c1,0,1,0,1,0c1,0,3,0,5,0c2,0,4,0,6,0c2,-1,3,-1,3,-1c1,0,1,0,1,0c1,0,1,1,2,1c1,0,1,1,1,1l0,1c0,0,0,1,0,1c-1,1,-1,1,-1,1ZM265.5,354.5l0,-1c0,0,1,0,1,0c1,0,1,1,1,1c0,0,0,1,0,1l-1,0c0,0,0,1,0,1l1,0l0,1l-1,0l-1,0l0,1c-1,0,-1,0,-1,0l0,1l-1,0l-1,0l1,-1l1,0c0,0,0,-1,0,-1l1,0l0,-1c-1,0,-1,0,-1,-1l1,-1ZM266.5,354.5l-1,0c0,0,0,1,0,1l1,0ZM251.5,360.5l0,1c0,0,1,0,1,0c0,0,0,-1,0,-1l0,-1l1,1c0,0,1,0,1,-1l0,-1l0,1l0,1l0,1l-1,0l-1,0c0,1,-1,1,-1,1c0,0,-1,-1,-1,-1l1,-1ZM252.5,355.5c0,-1,1,-1,1,-1c0,-1,0,-1,1,-1c0,1,0,1,0,1c0,1,0,1,0,1l0,1l0,1l-1,0l0,1c-1,0,-1,1,-1,1c-1,0,-1,0,-2,0c1,-1,2,-1,3,-2l-1,0l0,-1l0,-1ZM253.5,355.5l0,1l0,-1ZM342.5,365.5l-1,-1l-1,1l-2,-1l1,-1l2,1l1,-1l1,1ZM340.5,373.5l-1,0c-1,0,-1,0,-1,0l0,1l0,1c0,0,-1,1,-1,2c-1,1,-1,1,-1,1c0,0,-1,1,-1,1c0,0,-1,0,-1,0c0,0,-1,0,-1,0c-1,0,-1,0,-2,0c0,0,-1,-1,-1,-1c0,0,1,0,1,0l1,0c0,0,1,0,1,0c0,0,1,0,1,-1c1,0,1,0,1,0c0,0,1,-1,1,-1c0,0,0,-1,0,-1c1,0,1,-1,1,-1c0,-1,0,-1,0,-1c-1,-1,-1,-1,-1,-1l0,-1l1,0l0,-1l0,1l1,0l0,1l1,0l1,0c0,0,1,0,1,0c1,-1,1,-1,2,-1c0,-1,0,-1,-1,-1c0,0,0,-1,0,-1l1,-2l0,1l0,1l0,1l0,1c0,0,0,1,0,1c-1,1,-1,1,-2,1c0,0,-1,0,-1,0ZM340.5,357.5l4,-2l0,1l-4,2ZM337.5,368.5l-2,-1l1,-1l2,1ZM332.5,359.5c1,0,1,0,1,0c1,0,1,-1,2,-1c0,0,1,1,1,1c1,0,1,0,1,0l0,1c0,0,-1,0,-1,1l-1,0c-1,0,-1,0,-1,0l-1,0l1,0c1,0,2,-1,2,-1c0,0,-1,0,-1,0l-1,0c0,0,-1,0,-1,0l-1,0l0,-1ZM331.5,372.5l-1,1c-1,0,-1,0,-2,0l-1,1l-1,0l-1,0c0,-1,0,-1,0,-1c0,-1,0,-1,0,-1l0,-1l1,1c1,0,1,0,2,-1l1,0l1,0l1,0c0,-1,-1,-1,-1,-1c0,-1,0,-1,-1,-2l-1,-1l-1,0l0,-2c1,0,1,0,1,0c0,0,1,0,1,0c0,0,0,1,0,1c1,0,1,0,1,1l1,1c0,0,0,1,0,1c0,0,0,1,0,1c0,1,0,1,0,1c0,1,0,1,0,1ZM327.5,360.5l4,-2l0,1l-4,2ZM321.5,373.5l0,-1l0,-1l-1,-8l1,-3l1,11l0,1l-1,0c0,1,0,1,0,1ZM317.5,372.5l0,1l-1,0c0,0,-1,0,-2,0l0,1l-1,0l-1,0c-1,-1,-1,-1,-1,-1c0,-1,0,-1,0,-1l1,-1l0,1l1,0c0,0,1,0,1,-1c1,0,1,0,1,0c1,0,1,0,1,0c1,0,1,0,1,0c0,-1,0,-1,0,-1c0,-1,-1,-1,-1,-2l-1,0l0,-1l-1,0l-1,0l1,-2l1,0c0,0,0,1,0,1c1,0,1,0,1,0l0,1c1,0,1,0,1,1c0,0,1,1,1,1c0,0,0,1,0,1c0,1,0,1,0,1c0,1,0,1,-1,1ZM315.5,358.5c0,-1,1,-1,1,-1c0,0,0,-1,1,-1l0,1c0,1,0,1,0,1l0,1l1,1l-1,1l-1,-1l-1,1c0,0,0,1,0,1l-1,0l-1,0l1,0l0,-1c0,0,1,0,1,0l0,-1l1,0l-1,0l0,-1l0,-1ZM316.5,358.5l0,1l1,0l0,-1l-1,0ZM369.5,369.5c0,0,0,1,0,1c0,0,0,1,0,1c1,0,1,0,1,-1c0,0,0,-1,-1,-1ZM369.5,377.5c0,0,0,1,0,1c0,0,-1,0,-1,0c0,0,-1,0,-2,0c0,0,-1,0,-2,0l0,-1l1,0c0,0,1,0,1,0l1,0c0,0,1,0,1,0c0,-1,1,-1,1,-1c0,-1,1,-1,1,-1c0,0,0,-1,0,-1c1,-1,1,-1,1,-2c0,0,-1,0,-1,0l0,1l-1,0l0,-1l-1,0c0,-1,0,-1,0,-1c0,0,0,-1,0,-1c0,-1,0,-1,0,-2c1,0,1,0,1,0c0,0,1,-1,1,-1l0,1c1,0,1,0,1,0c0,1,0,1,0,1c0,1,1,1,1,1c0,1,0,1,0,2l0,1c0,1,-1,1,-1,2c0,1,-1,1,-1,1c0,1,0,1,-1,1ZM367.5,364.5l4,-2l-1,0c0,0,0,1,0,1l-4,2ZM363.5,373.5c0,0,-1,0,-1,0l-1,0l0,-1l-1,0l-1,0c0,1,0,1,0,1l-1,0l-1,0l-1,0c-1,0,-2,0,-2,0c-1,-1,-1,-1,-1,-2l-1,-9l1,-2l1,10l0,1c1,1,1,1,2,1l1,0l1,0c0,0,1,0,1,0l0,-1l1,-1c0,0,0,-1,1,-1l0,-1c0,0,1,0,1,0c0,0,1,0,1,1l0,1l0,1l1,0c0,1,0,1,0,1c-1,0,-1,0,-1,0c0,0,0,1,0,1ZM361.5,371.5l1,0c0,-1,0,-1,0,-1l-1,0c0,0,0,1,0,1ZM358.5,360.5l4,-2l0,1l-4,2ZM108.5,328.5c-1,0,-1,0,-2,0l-1,0c0,0,-1,0,-1,0c-1,0,-1,0,-1,0c0,0,-1,0,-1,0l0,-1c0,0,0,-1,0,-1l1,0l1,0c1,0,1,0,1,-1c1,0,1,-1,1,-1l-1,-1c-1,-1,-1,-2,-2,-2c0,0,-1,-1,-1,-2c0,0,-1,0,-1,0c0,0,0,-1,-1,-1c0,0,-1,0,-1,0l-1,-1l0,-1c0,0,0,-1,0,-1c1,0,1,0,1,0c0,0,1,0,1,1c1,0,1,0,2,1c0,1,1,1,1,2c1,1,2,1,2,2c0,1,1,1,1,1c0,1,0,1,1,1c0,0,0,-1,0,-1c0,-1,0,-1,0,-2c0,-1,0,-1,0,-2l0,-1c0,-1,0,-1,0,-2c0,-1,0,-1,0,-1c0,-1,1,-1,1,-1c0,0,0,1,0,1c0,0,1,1,1,1l0,1l-1,0c0,0,0,1,0,1c0,0,0,1,0,1c0,1,0,1,0,2l0,1c0,1,0,1,-1,2c0,0,0,1,0,1c0,1,0,1,0,1l1,1c0,1,0,1,0,1c0,0,0,1,0,1ZM106.5,325.5l0,1c0,0,-1,0,-1,0c0,0,1,0,1,0l1,0ZM221.5,328.5l0,-1l0,-2l0,-8l1,-2l0,10c0,1,0,1,0,1l0,1c0,0,-1,1,-1,1ZM389.5,311.5l4,-2l0,1c-1,0,-1,0,-1,0l-4,2ZM213.5,311.5c1,-1,1,-1,1,-1c1,0,1,0,2,0c0,0,1,0,1,0c0,0,1,1,1,1c-1,0,-1,1,-1,1l-1,1c-1,0,-1,0,-1,0l-1,0l1,-1c1,0,1,0,2,-1c0,0,-1,0,-1,0l-1,0c0,0,-1,0,-1,0l-1,1l0,-1ZM142.5,312.5l1,0c0,-1,1,-1,1,-1c1,0,1,0,2,1c0,1,0,1,-1,1c0,1,0,1,0,1l-1,0c0,0,-1,0,-1,0c-1,0,-1,0,-1,0l2,0c0,0,1,-1,1,-1c-1,0,-1,0,-1,0c-1,0,-1,0,-2,0c0,0,0,-1,0,-1ZM375.5,315.5c0,-1,0,-1,0,-1c1,-1,1,-1,1,-1c0,0,1,0,1,0c0,1,0,1,0,1c0,1,0,1,0,1l0,1l0,2l-1,-1l-1,1c0,0,-1,1,-1,1l-1,0l0,-1l1,0l1,0l0,-1l0,-1l0,-1ZM376.5,315.5l0,-1c-1,0,-1,1,-1,1l1,0l0,1l0,-1ZM113.5,327.5l0,-1l0,-1l0,-9l0,-2l1,11c0,0,0,1,0,1c0,0,-1,1,-1,1ZM98.5,309.5l4,-2c-1,0,-1,1,-1,1l-4,2ZM108.5,309.5c1,0,1,0,1,0c1,0,1,0,2,0c0,1,0,1,-1,1c0,0,0,1,0,1l-1,0l-1,0l1,-1c1,0,1,0,1,0l-1,0c0,0,-1,0,-1,0l-1,0c0,-1,0,-1,0,-1l1,0ZM88.5,330.5c0,0,1,0,1,0l1,0c0,0,1,0,2,-1c1,0,1,0,2,-1c0,0,0,-1,1,-1c0,0,0,-1,0,-1c0,0,0,-1,0,-1l0,-1l-1,-1l1,-1l0,-1l0,1c0,0,1,1,1,1l0,1l0,1c0,1,0,1,0,2c0,1,-1,1,-1,1c0,1,0,1,0,1c0,0,-1,1,-1,1l-1,1c-1,0,-1,0,-1,0c-1,0,-1,0,-1,0l-1,0c0,0,-1,0,-1,0l-1,0l0,-1ZM90.5,316.5l1,0c0,0,1,0,1,0c1,0,1,0,2,0c0,1,0,1,0,1l0,1c-1,0,-1,0,-1,0c-1,0,-1,0,-1,0c0,1,-1,1,-1,1c0,0,-1,0,-1,0l2,-1c0,0,1,-1,1,-1c-1,0,-1,0,-1,0c-1,0,-1,0,-2,0c0,-1,0,-1,0,-1ZM88.5,324.5l-1,0l-2,0l-1,0l-1,1l-1,0l-1,0l-1,1l-1,0l-1,1c-1,0,-1,0,-2,0l-1,0l-1,0c-1,0,-1,0,-2,-1c0,0,-1,-1,-1,-2l0,-8l1,-2l0,10l1,1l1,0l1,0l1,0l1,0c0,0,1,0,1,0c1,0,1,0,2,0l1,-1l1,0l-1,-1l-1,0l-1,0l-1,-1c0,0,0,1,0,1l-1,0c0,-1,0,-1,0,-1c0,-1,1,-1,1,-1c0,0,1,0,1,0c1,0,1,0,1,0l1,0l2,1l1,0c0,1,0,1,1,1l1,0c0,0,1,0,1,0l1,0ZM79.5,314.5l4,-2l0,1l-1,0l-4,2ZM68.5,324.5l-2,0c0,0,-1,0,-1,1c-1,0,-2,0,-2,1c-1,0,-1,0,-1,0l0,1c0,0,1,1,1,2c0,2,0,3,1,4c0,1,0,2,0,2c0,0,0,1,0,1c0,0,-1,-1,-1,-3c0,-2,-1,-3,-1,-3c0,-2,0,-2,0,-2l0,-1c0,-1,0,-2,0,-2c0,0,1,-1,1,-1c0,-1,0,-1,1,-1c1,0,1,0,2,0c0,0,0,-1,0,-1c-1,0,-1,0,-1,0c-1,0,-1,0,-1,0c0,0,0,1,0,1l-1,0c0,-1,0,-1,1,-1c0,-1,0,-1,0,-1l1,0c0,-1,0,-1,0,-1c0,0,1,0,1,0c0,1,1,1,1,1c0,1,1,1,1,1l0,1c0,0,0,1,0,1ZM64.5,311.5l1,-1l1,0c0,0,0,1,0,1l0,1c0,0,0,1,0,1l1,0l-1,1l-1,0l-1,1l-1,0l0,1l-1,0l1,-1c0,0,1,-1,1,-1l1,-1l-1,0c0,0,0,-1,0,-1l0,-1ZM65.5,311.5c0,0,0,1,0,1ZM162.5,319.5l-2,-1l-1,1l-1,-1l1,-1l1,1l1,-2l1,1ZM159.5,327.5l-1,0c0,0,-1,0,-1,0c-1,0,-1,0,-1,-1c0,0,-1,0,-1,0l0,-1c-1,1,-1,1,-2,1l-1,1l-1,0l-1,0l-1,0c-1,0,-1,0,-1,0l0,-1c0,0,-1,0,-1,0l-1,0c0,1,-1,1,-1,1l-1,0l-11,0l-1,0l0,1c0,1,0,1,0,1l-1,0l0,-1l0,-1l1,0l-1,0c0,1,0,2,-1,2c0,1,0,1,0,2c0,0,0,1,-1,1l-1,1l-1,0c0,0,0,1,0,1c0,0,-1,0,-1,0c-1,0,-1,0,-1,0c-1,0,-2,0,-3,0c0,0,-1,-1,-1,-1c0,0,-1,-1,-1,-1c0,-1,0,-1,0,-1l0,-1c0,0,0,-1,0,-1c0,0,0,-1,0,-1c0,-1,1,-1,1,-2l1,0l-1,1l0,1c0,0,0,1,0,1c0,1,0,1,0,2l1,1c0,0,1,0,1,0c1,0,1,0,2,0c1,0,1,0,1,0c1,0,1,0,2,-1c0,0,1,0,1,-1c1,0,1,-1,1,-2c0,0,0,-1,0,-1c0,0,-1,0,-1,-1l1,-2l0,1c0,0,1,0,1,0l1,0l1,0l3,-2l0,-1l1,0c1,0,1,0,2,-1c1,0,1,0,1,0c1,0,1,0,1,1c0,0,1,0,1,0l0,1l0,1c0,0,0,1,0,1l-1,0l0,1l2,-1l1,0c0,0,1,0,1,0c0,0,1,0,1,0c0,0,1,-1,1,-1c1,0,1,0,1,0l0,1c1,0,1,0,1,0l1,0c1,0,1,0,1,0c1,0,1,0,1,0l1,0l1,-1c-1,0,-1,0,-1,0c-1,0,-1,-1,-1,-1c0,0,-1,0,-1,0l1,-1l0,-1c0,0,1,0,1,0c1,0,1,0,1,0c1,0,1,0,1,0c1,0,1,0,1,1c0,0,1,0,1,0l0,1l-1,0c0,1,0,1,0,1c0,1,0,1,0,1l1,0c0,0,1,0,1,0l1,0c1,0,1,0,2,0c0,0,1,0,1,0l0,-1l0,-1l-1,-1l1,-1l0,1l1,0l0,1l0,1c0,1,0,1,0,1c-1,1,-1,1,-1,1c0,0,-1,1,-1,1c-1,0,-1,0,-2,0ZM159.5,311.5l5,-2l-1,0c0,1,0,1,0,1l-4,2ZM154.5,319.5l-1,-1l1,-1l1,1ZM157.5,333.5l-4,2c0,-1,1,-1,1,-1l4,-2ZM148.5,330.5l-1,-1l-1,2l-2,-1l1,-2l2,1l1,-1l1,1ZM135.5,320.5l-1,-1l1,-2l1,1ZM137.5,323.5l0,1l-1,0l-1,0l0,1l-1,0l3,0l1,0c0,0,1,0,1,0c1,0,2,0,2,-1c0,0,-1,-1,-1,-1l-1,0c0,0,-1,0,-1,0c0,0,-1,0,-1,0ZM131.5,312.5l1,-1l1,0c0,0,0,1,0,1c0,0,0,1,0,1c0,0,0,1,0,1l0,1l-1,0l-1,1l-1,0l0,1l-1,0l0,-1l1,0c0,0,1,-1,1,-1l1,-1l-1,0l0,-1l0,-1ZM132.5,312.5c0,1,0,1,0,1ZM189.5,323.5l-1,0l0,1c0,0,1,0,1,0l1,0c-1,0,-1,-1,-1,-1ZM189.5,331.5c0,0,-1,0,-1,0l0,1c-1,0,-1,0,-2,0c-1,0,-1,0,-2,-1c0,0,-1,0,-1,0c0,0,1,0,1,0l1,0c1,0,1,0,1,0l1,0c0,-1,0,-1,0,-1c1,0,1,0,1,-1c1,0,1,0,1,-1c0,0,1,0,1,-1c0,0,0,-1,0,-1l0,-1c0,0,0,1,0,1c-1,0,-1,0,-1,0c0,0,-1,0,-1,0c-1,0,-1,-1,-1,-1c0,-1,0,-1,0,-1c0,0,0,-1,0,-1c0,0,1,-1,1,-1c0,0,0,-1,0,-1c1,0,1,0,1,0c1,0,1,0,1,0c0,0,0,1,1,1c0,0,0,1,0,1c0,0,0,1,0,1c0,0,0,1,0,1c0,0,0,1,0,1c0,1,0,2,-1,3c0,0,0,1,0,1c-1,0,-1,0,-1,1ZM186.5,317.5l4,-2l0,1l-4,2ZM182.5,326.5c0,1,0,1,0,1l-1,0l0,-1c0,0,-1,0,-1,0l-1,-1l0,1c0,0,-1,1,-1,1l-1,0l-1,0l-1,0c-1,0,-1,0,-2,-1c0,0,-1,-1,-1,-2l0,-8l1,-2l0,10l1,0l0,1l1,0l1,0l1,0c1,0,1,0,1,0l1,0l0,-1c1,-1,1,-1,1,-2l1,0c1,0,1,0,1,0c0,1,1,1,1,1l0,1l0,1l0,1c0,0,-1,0,-1,0ZM180.5,324.5l1,0l1,1c0,0,0,-1,0,-1c-1,-1,-1,-1,-1,-1c0,0,-1,0,-1,1ZM177.5,314.5l5,-2l-1,1l-4,2ZM220.5,309.5c0,0,1,-1,1,-1l1,0c0,0,0,1,0,1l0,1l0,1l1,0l-1,1l-1,0l0,1c-1,0,-1,0,-1,0l-1,0l-1,0l1,0l0,-1c1,0,1,0,1,0l1,-1l-1,0c0,0,0,-1,0,-1c0,0,0,-1,0,-1ZM221.5,309.5l0,1l1,0l-1,-1ZM215.5,320.5l-1,-1l1,-1l1,1ZM215.5,327.5l-1,0l-1,0l-1,0c-1,-1,-1,-1,-1,-1c0,0,0,-1,0,-1c-1,0,-2,0,-2,1c-1,0,-1,1,-1,1c0,0,0,1,0,1c1,0,1,0,2,0c0,0,1,0,1,0c0,0,0,1,1,1c0,0,0,1,0,1c0,0,-1,0,-1,1c-1,1,-2,2,-3,2c-1,0,-3,0,-4,0c-1,0,-1,0,-2,0c-1,0,-1,0,-2,-1l-1,-1c0,-1,0,-1,0,-2c0,-1,0,-1,0,-2c1,0,1,-1,1,-1c0,-1,1,-1,1,-1c0,1,0,1,-1,2c0,1,0,1,0,1l0,1c0,1,1,1,1,2c1,0,2,0,3,0c0,1,0,1,0,1c0,0,0,-1,0,-1c0,1,0,1,0,1l1,0c1,0,1,-1,1,-1c0,0,1,0,1,0c0,0,1,0,1,0l1,0c0,0,1,-1,1,-1l1,0c-1,0,-1,0,-2,0c-1,0,-2,-1,-2,-1c0,-1,0,-1,0,-1l0,-1c0,-1,1,-2,1,-2c1,-1,2,-1,3,-1l1,0c0,0,0,1,0,1c1,0,1,0,2,0l1,0c0,0,1,0,1,0c1,0,1,0,1,0c0,0,0,-1,0,-1l0,-1l0,-1l0,-1c0,0,1,0,1,0c0,0,0,1,0,1c0,0,0,1,0,1c0,1,0,1,0,1c0,1,0,1,0,1c0,1,0,1,0,1c-1,0,-1,1,-2,1c0,0,-1,0,-1,0ZM210.5,318.5l-1,-1l1,-1l1,0ZM212.5,320.5l-1,-1l-1,2l-2,-1l1,-2l2,1l1,-1l1,1ZM207.5,311.5c0,2,0,2,0,3l0,-1l0,-1c0,0,0,-1,0,-1l0,-1l-1,0l0,-1l1,-1l0,1l0,1l0,1ZM265.5,326.5l-2,0c0,0,-2,0,-3,0c-2,0,-3,0,-3,0l-1,0c0,0,-1,1,-1,1c-1,0,-3,0,-4,0c-2,0,-3,0,-4,0c-1,0,-2,0,-3,0l-1,0c-1,0,-1,0,-1,0c-1,-1,-1,-1,-1,-2l0,1l0,1c0,1,0,2,-1,2c0,1,0,1,-1,2c-1,0,-1,1,-1,1c-1,0,-1,0,-2,0c0,0,-1,0,-1,0l-1,0c0,0,-1,0,-1,0c0,0,-1,0,-1,-1c0,0,-1,0,-1,-1c0,0,0,-1,0,-1c0,-1,0,-1,0,-2c0,0,0,-1,1,-1l0,-1l1,0l-1,0l0,1c0,1,0,1,0,2c0,0,0,1,1,1c0,1,1,1,1,1c1,0,1,0,1,0c1,0,2,0,3,0c1,-1,1,-1,2,-2l0,-1l0,-3l0,-1c0,0,0,-1,0,-1l-1,-7l1,-2l1,11c0,0,0,1,0,1c1,0,1,0,1,0c0,0,1,0,1,0l1,0c1,0,1,0,1,0c1,0,2,0,3,0c1,0,2,0,3,0c1,0,3,0,4,0l2,0c1,0,2,0,3,0c1,-1,2,-1,4,-1c1,0,2,0,2,0c0,0,1,0,1,0l0,-1c-1,0,-1,0,-1,0l-1,0c0,0,-1,0,-1,0c-1,0,-2,0,-4,0c-2,0,-4,0,-6,0c-2,0,-4,1,-5,1c-1,0,-3,-1,-3,-1l0,-1c0,0,0,-1,0,-1c0,-1,0,-1,1,-1c0,0,0,-1,1,-1c0,-1,1,-1,2,-2c1,-1,2,-1,3,-2l0,2c0,0,-1,0,-1,0c-1,1,-2,1,-3,2c-1,1,-2,1,-2,2c0,0,0,1,0,1c1,0,1,0,1,0c1,0,1,0,1,0c0,0,1,0,1,0c1,0,3,0,5,0c2,0,4,-1,5,-1c2,0,4,0,4,0c0,0,1,0,1,0c0,0,1,0,1,0c1,1,1,1,1,1l1,0c0,1,0,1,0,1c0,1,0,1,-1,2c0,0,0,1,0,1ZM248.5,308.5c0,-1,1,-1,1,-1l1,0c0,0,1,0,1,1c0,0,-1,0,-1,0l0,1l0,1l1,0l0,1l-2,-1l0,1c-1,1,-1,1,-1,1l-1,0l-1,0l1,0l0,-1c1,0,1,0,1,0l0,-1l1,0l-1,0c0,-1,0,-1,0,-1l0,-1ZM249.5,308.5l0,1l1,0l0,-1ZM235.5,313.5l0,1c1,0,1,0,1,0l0,-1l1,1c0,0,0,-1,0,-1l1,-1l0,1l0,1c0,0,0,1,-1,1c0,0,-1,0,-1,0c0,0,-1,1,-1,1c0,0,0,-1,-1,-1l0,-1l0,-1ZM236.5,308.5l1,-1l1,0c0,0,0,1,0,1l0,1c0,0,0,1,0,1l0,1l-1,0l-1,1l-1,0c0,0,0,1,-1,1l0,-1c1,0,2,-1,3,-2l-1,0c0,0,0,-1,0,-1ZM237.5,308.5c0,0,-1,0,-1,0c0,0,0,1,1,1ZM308.5,314.5l-1,-1l-1,1l-1,-1l0,-2l2,1l1,-1l1,1ZM307.5,318.5l0,-1l1,0c0,1,0,1,0,1c0,0,0,1,0,1l1,0l0,-1l0,-1c-1,0,-1,0,-1,-1c0,0,-1,0,-1,0l0,1l-1,0c0,0,0,1,0,1l-1,0c0,1,0,1,0,1c0,0,-1,0,-1,1l-1,0l-1,1c0,0,-1,0,-1,1c0,0,0,1,0,1l1,0l1,0l1,0l1,0l0,1l1,0l-1,0l-1,1l-1,0l-1,0l-1,0l-1,0l-1,0l-1,0l-1,0l-1,0l0,-1l-1,0l0,-1l-1,-1c-1,0,-2,1,-3,2c0,0,0,1,0,1l-1,0c0,0,-1,0,-1,0l-1,0l-1,0l-1,0c0,0,0,-1,0,-1c-1,0,-1,0,-1,0l0,-11l-1,2l0,7c0,0,0,1,0,1c0,1,0,1,0,1l0,3c0,1,0,1,0,1c0,1,-1,1,-2,2c-1,0,-2,0,-3,0c-1,0,-2,0,-2,-1c-1,0,-1,-1,-1,-1c0,-1,0,-1,0,-2l1,-1l-1,0l0,1c0,0,0,1,-1,1c0,1,0,1,0,2c0,0,0,1,0,1c1,1,1,1,1,1c0,1,1,1,1,1l1,0l1,0c1,0,1,0,2,0c0,0,1,0,1,0c0,0,1,-1,1,-1c0,0,1,0,1,0c0,-1,0,-1,1,-2c0,0,0,-1,0,-2l0,-1l0,-1c0,1,1,1,1,2c0,0,1,0,1,0l1,0l1,0c0,0,1,0,1,0l1,-1l1,1l1,0c1,0,1,0,2,0c0,0,1,0,1,-1c1,1,2,1,2,1l1,0l1,0l1,0l1,0l1,0c0,-1,0,-1,0,-1l2,-1c1,0,1,0,1,0l1,0c1,0,1,0,1,0l1,0l1,0l1,0l1,0l0,-2l-1,0c0,0,-1,0,-1,0c-1,0,-1,0,-1,0c-1,0,-2,0,-2,-1l-2,0l-1,-1l1,-1c1,-1,1,-1,1,-1l1,-1ZM305.5,308.5l4,-3l-1,1c0,0,0,1,0,1l-4,2ZM299.5,309.5c0,0,1,0,1,0c1,0,1,-1,1,-1c1,0,1,1,2,1l0,1l0,1c0,0,-1,0,-1,0c0,0,-1,0,-1,0l-1,0l-1,0l2,0c1,0,1,-1,2,-1c-1,0,-1,0,-1,0c0,0,-1,0,-1,0c0,0,-1,0,-1,0c0,0,-1,0,-1,0l0,-1ZM295.5,326.5l-1,-2l0,-1c0,0,-1,0,-1,0l0,1l-1,0c0,0,1,1,1,1l1,0ZM292.5,330.5l-4,2c1,0,1,-1,1,-1l4,-2ZM278.5,311.5l1,-1l1,0c0,0,0,1,0,1l0,1c0,0,0,1,0,1l0,1l-1,0l-1,1l-1,0l0,1l-1,0l0,-1l1,0c0,0,0,-1,1,-1l0,-1l1,0l-1,0c0,0,0,-1,0,-1l0,-1ZM279.5,311.5c0,0,-1,0,-1,0c0,0,0,1,1,1ZM330.5,326.5c0,1,0,1,0,1l-1,0l0,-1c0,0,-1,0,-1,0l-1,-1l0,1c0,0,0,1,-1,1l-1,0l-2,0c-1,0,-1,0,-2,-1c0,0,0,-1,0,-2l-1,-8l1,-2l1,10l0,1c0,0,1,0,1,0l2,0c1,0,1,0,1,0l1,0l0,-1c1,-1,1,-1,1,-2l1,0c1,0,1,0,1,0c1,1,1,1,1,1l0,1l0,1l0,1l-1,0ZM328.5,324.5l1,0l1,1c0,0,0,-1,0,-1c0,-1,-1,-1,-1,-1c0,0,-1,0,-1,1ZM326.5,314.5l4,-2l-1,1l-4,2ZM366.5,330.5l-1,-1l-1,1l-2,0l1,-2l2,1l1,-1l1,1ZM363.5,327.5l-1,0c-1,0,-1,0,-1,0c-1,0,-1,0,-1,-1c-1,0,-1,0,-1,0l-1,-1c0,0,0,1,0,1l-1,0l-1,1l-1,0l-1,0c-1,0,-1,0,-1,0c-1,-1,-1,-1,-1,-2c-1,1,-1,1,-1,2c0,0,-1,0,-1,0l-1,0l-2,0c-1,0,-1,0,-1,0c-1,0,-1,-1,-1,-1l0,1l0,1c0,1,0,1,-1,1l-1,-1c0,0,0,-1,0,-1l-1,-1l-1,0c0,0,0,1,0,1c-1,0,-1,0,-1,0c0,1,0,1,0,1l0,1c0,1,0,1,0,1l1,2l0,2c0,1,0,1,0,1l0,1l0,1l0,-1l-1,-1l0,-1l0,-3l0,-1l0,-1l0,-1l0,-1c0,-1,0,-1,0,-2l1,0l1,-1l1,-1c1,1,2,1,2,2l2,0l1,0l1,0c1,0,1,0,1,0c0,0,1,0,1,-1l0,-1l0,-1l0,-7l1,-2l0,11c0,0,1,1,1,1c0,0,1,0,1,0c1,0,1,0,1,0l1,0l1,0c0,0,0,-1,0,-1c-1,0,-1,-1,-1,-1c-1,0,-1,0,-1,0l1,-2c0,0,1,0,1,0c0,0,1,0,1,0c0,0,1,0,1,0l1,0l0,1c0,0,1,0,1,1c0,0,-1,0,-1,0c0,1,0,1,0,1l-1,0c0,1,1,1,1,1l1,0l1,0l1,0c1,0,1,0,2,0c0,0,1,0,1,0c0,0,0,-1,0,-1l0,-1c-1,0,-1,0,-1,-1l1,-1c0,0,0,1,0,1c0,0,0,1,1,1c0,1,0,1,0,1c0,1,0,1,-1,1c0,1,0,1,0,1c0,0,-1,1,-1,1c-1,0,-1,0,-2,0ZM363.5,314.5l4,-2l0,1l-4,2ZM354.5,313.5c0,-1,1,-1,1,-1c1,0,1,0,1,0c1,0,1,0,2,0c0,0,0,1,0,1c0,0,0,1,0,1c0,0,-1,1,-1,1c0,0,-1,0,-1,0l-1,0l-1,0l2,-1c1,0,1,0,2,0c-1,-1,-1,-1,-1,-1c0,0,-1,0,-1,0c0,0,-1,0,-1,0c0,0,-1,1,-1,1l0,-1ZM349.5,311.5l4,-2l-1,0c0,1,0,1,0,1l-4,2ZM342.5,311.5l1,-1l1,0c0,0,0,1,0,1l0,1c0,0,0,1,0,1l0,1l-1,0l-1,1l-1,0l0,1l-1,0l1,-1c0,0,1,-1,1,-1l1,-1l-1,0c0,0,0,-1,0,-1l0,-1ZM343.5,311.5c0,0,0,1,0,1ZM391.5,327.5l0,-1l0,-1l-1,-9l1,-2l1,11c0,0,0,1,0,1c-1,0,-1,1,-1,1ZM387.5,326.5c0,0,0,1,-1,1c-1,0,-1,-1,-1,-1c-1,0,-1,-1,-1,-2c0,1,-1,2,-1,2c-1,1,-1,1,-2,1c0,0,-1,0,-1,-1c-1,0,-1,-1,-1,-2c0,0,0,1,0,1c0,0,-1,0,-1,1c-1,0,-1,0,-2,0c0,0,-1,0,-1,0c0,0,-1,-1,-1,-1c0,-1,1,-1,1,-1c0,-1,0,-1,1,-1c0,-1,1,-1,1,-1l1,-1l1,0l-1,-1l1,0c0,-1,0,-1,0,-1l0,1l0,1l1,2c0,1,0,1,0,1l0,1c0,0,1,0,1,0c1,0,1,0,2,0c0,-1,0,-1,0,-1c0,-1,0,-2,0,-3c0,0,0,-1,0,-1c0,-1,0,-1,0,-1l0,-1l0,-1l1,2l0,2l0,2c0,0,0,1,1,1l1,1l1,0l0,-1c0,0,0,-1,0,-1l0,-2l-1,-1l0,-1c0,0,0,-1,0,-1l1,0l0,-1c0,0,0,1,0,1c0,1,0,1,0,1l1,2c0,1,0,2,0,2c0,1,0,1,0,2c-1,0,-1,1,-1,1ZM379.5,322.5l-1,0l-1,1c-1,0,-1,1,-1,1c1,0,1,0,2,0c0,0,1,-1,1,-1ZM382.5,310.5l0,-1c0,0,0,-1,0,-1c0,-1,0,-2,0,-2l0,-1c0,0,1,0,1,1c0,0,0,1,0,1l0,1c0,1,0,1,0,1l-1,1Z" class="g2_20" />
<path fill-rule="evenodd" d="M409.5,580.5l4,-2l0,1c0,0,-1,0,-1,0l-4,2ZM169.5,592.5l-1,0c0,0,-1,0,-1,0c0,0,-1,0,-1,0c-1,0,-1,0,-1,0c-1,0,-1,0,-1,0c0,0,0,-1,0,-1l0,-1l1,0l1,0c0,0,1,-1,1,-1c1,-1,1,-1,1,-1c0,0,-1,0,-1,-1l0,-1c-1,0,-1,-1,-2,-1c0,-1,-1,-1,-1,-2c0,0,-1,0,-1,0c0,-1,0,-1,-1,-1c-1,0,-1,0,-1,0c0,0,0,-1,-1,-1l0,-1c0,-1,0,-1,0,-1l0,-1c0,0,1,0,1,0c0,1,1,1,1,1c1,1,1,1,2,2c0,1,1,1,1,2c1,0,2,1,2,2c0,0,1,1,1,1c0,0,0,1,0,1c1,0,1,-1,1,-1c0,-1,0,-2,0,-2c0,-1,0,-2,0,-2c0,0,0,-1,0,-1c0,-1,0,-1,0,-2c0,-1,0,-1,0,-1c0,-1,1,-1,1,-1c0,0,0,1,0,1c0,0,1,0,1,1l0,1l-1,0l0,1c0,0,0,1,0,1c0,1,0,1,0,1c0,1,0,1,0,2c0,0,0,1,-1,1c0,1,0,1,0,2c0,0,0,1,0,1l1,0c0,1,0,1,0,1c0,1,0,1,0,1l-1,1ZM168.5,589.5c0,1,0,1,0,1c0,0,-1,0,-1,0c0,0,1,0,1,0l1,0l0,-1ZM333.5,574.5l1,0c0,0,1,0,1,0c1,0,1,0,2,0c0,0,0,1,0,1l-1,1l-1,0c0,0,-1,0,-1,0c-1,0,-1,0,-1,0l2,0c0,0,1,-1,1,-1c-1,0,-1,0,-1,0c-1,0,-1,0,-2,0c0,-1,0,-1,0,-1ZM287.5,578.5c0,-1,0,-1,1,-1l1,0c0,0,1,0,1,0c1,0,1,1,1,1c0,0,-1,1,-1,1c0,0,0,1,0,1c-1,0,-1,0,-1,0c-1,0,-1,0,-1,0l-1,0l1,-1c1,0,2,0,2,0c0,-1,-1,-1,-1,-1l-1,0l-1,0c0,0,0,1,-1,1l0,-1l1,0ZM215.5,582.5l0,-1c0,0,0,-1,0,-1c0,-1,-1,-2,-1,-2l1,-1l0,1c0,0,0,1,0,1l0,1c0,1,0,1,0,1l0,1ZM222.5,582.5l0,-1c0,0,0,-1,0,-1c0,-1,0,-2,0,-2l0,-1c0,0,1,0,1,1c0,0,0,1,0,1l0,1c0,0,0,1,0,1l-1,1ZM60.5,594.5c1,0,1,0,1,0l1,0c1,0,2,0,3,-1l1,-1c0,0,1,-1,1,-1c0,-1,0,-1,0,-1c1,0,1,-1,1,-1c-1,0,-1,0,-1,0l0,-1l0,-1l-1,0l1,-1l0,-1l1,1l0,1l0,1l0,1c0,0,0,1,0,1c0,1,0,1,0,1c0,0,0,1,0,1c-1,0,-1,1,-1,1l-1,1l-1,0l0,1c0,0,-1,0,-1,0c0,0,-1,0,-1,0l-1,0c-1,0,-1,-1,-1,-1l-1,0ZM63.5,581.5l4,-2l0,1l-4,2ZM59.5,582.5l-1,0l-1,1l-2,-1l1,-2l2,1l1,-1l1,1ZM57.5,591.5l-1,0l-1,0l-1,0c-1,0,-2,0,-2,0c0,-1,-1,-1,-1,-1c-1,0,-1,0,-2,1c0,0,-1,0,-2,0l-2,0c0,0,-1,0,-2,-1c0,0,0,-1,0,-2l-1,-8l1,-2l1,9l0,1c0,1,1,1,1,1l2,0c1,0,1,0,1,0c0,0,1,0,1,0c0,0,0,-1,0,-1c0,-1,0,-1,0,-2c1,-1,1,-1,1,-1c0,0,0,-1,1,-1c0,0,1,0,1,0c1,0,1,0,1,0c1,1,1,1,1,2l0,1c0,0,0,1,-1,1c0,0,0,1,0,1c0,0,1,0,1,0l1,0l1,0l1,0c0,0,1,0,1,0c1,0,1,0,1,-1l1,0c0,0,-1,-1,-1,-1l0,-1l1,-2c0,1,0,1,0,1l0,1l0,1l0,1l0,1l0,1c-1,0,-1,0,-2,1c0,0,-1,0,-1,0ZM56.5,573.5c0,0,1,-1,1,-1c0,0,1,0,1,0c1,0,1,0,2,0c0,1,0,1,0,1c0,1,0,1,0,1c-1,1,-1,1,-1,1c0,0,-1,0,-1,0l-1,0l-1,0l2,0c1,-1,1,-1,2,-1c-1,0,-1,0,-1,0c-1,-1,-1,-1,-1,-1c0,0,-1,1,-1,1c0,0,-1,0,-1,0c0,-1,0,-1,0,-1ZM52.5,582.5l-1,0l-1,1l-1,-1l0,-2l2,1l1,-1l1,1ZM52.5,585.5c-1,0,-1,1,-1,1c-1,0,-1,0,-1,1c0,0,1,1,1,1c1,0,1,0,1,-1c1,0,1,0,1,0c0,0,0,-1,0,-1c-1,0,-1,-1,-1,-1ZM48.5,575.5l5,-2c0,0,-1,1,-1,1l-5,2ZM50.5,572.5l5,-3c-1,1,-1,1,-1,2l-5,2ZM120.5,589.5c0,0,-1,1,-2,1c-1,0,-2,0,-4,0c-1,0,-2,0,-3,0c-1,0,-1,0,-1,0c-2,0,-3,1,-5,1c-1,0,-2,0,-3,0c-2,0,-2,0,-3,0l-1,0c-1,0,-1,-1,-1,-1c-1,0,-1,0,-1,-1l0,-1l-1,-8l1,-2l1,9c0,1,0,1,0,1l0,1l1,0l1,0c1,0,2,0,3,0c1,0,2,0,3,0c2,0,3,0,4,0l2,0c1,-1,2,-1,3,-1c1,0,3,0,4,0c2,0,2,0,3,0c0,0,0,-1,0,-1c0,0,-1,0,-1,0l0,-1c-1,0,-1,0,-1,0c-2,0,-3,0,-5,1c-2,0,-4,0,-6,0c-2,0,-3,0,-4,0c-2,0,-3,0,-4,0c0,-1,0,-1,0,-1c0,0,0,-1,0,-1c1,-1,1,-1,1,-1c0,0,0,-1,1,-1c1,-1,1,-2,2,-2c1,-1,2,-2,3,-2c1,0,1,0,1,0l-1,2l-1,0c-1,1,-2,1,-2,2c-1,0,-2,1,-3,2l1,0c0,1,0,1,1,1l1,0l1,0c1,0,2,0,4,-1c2,0,4,0,6,0c2,0,3,0,4,0c1,0,1,0,2,0c0,0,1,1,1,1c0,0,0,1,0,1c0,1,0,1,0,2c0,0,-1,0,-1,0ZM105.5,575.5l5,-3c0,1,0,1,0,1l-6,3ZM89.5,584.5l-2,-1l1,-1l2,1ZM88.5,591.5l-1,0l-1,0c-1,0,-1,-1,-1,-1l-1,0c0,0,0,-1,0,-1c0,1,0,1,-1,1c0,0,0,1,-1,1l-1,0l-1,0c-1,0,-2,0,-2,-1c-1,0,-1,-1,-1,-2l0,-8l1,-2l0,9l0,1c1,1,1,1,2,1l1,0l1,0l1,0c1,-1,1,-1,1,-1c0,0,0,-1,0,-1l1,0l0,1l-1,0c1,0,1,1,1,1c1,0,1,0,1,0l1,0l1,0c1,0,1,0,2,0c0,0,1,0,1,-1c0,0,0,-1,0,-1c0,0,-1,0,-1,-1l1,-2c0,1,0,1,0,1c0,1,0,1,0,1c1,0,1,0,1,0l0,1l0,1l0,1l-1,0l0,1c0,0,-1,0,-1,1c-1,0,-1,0,-2,0ZM88.5,578.5l5,-2l-1,0l0,1l-4,2ZM85.5,585.5l-1,-1l-1,1l-2,-1l1,-1l2,1l1,-2l1,1ZM82.5,578.5l4,-2l0,1l-4,2ZM182.5,587.5c-1,0,-1,0,-1,0c0,1,0,1,1,1l0,-1ZM182.5,595.5c-1,0,-1,0,-1,0l-1,0c0,0,-1,1,-1,1l-1,0c0,0,-1,-1,-1,-1c-1,0,-1,0,-1,0c0,-1,0,-1,0,-1c0,0,0,1,1,1c1,0,1,0,1,0c0,0,1,0,1,-1c1,0,1,0,1,0c0,0,1,-1,1,-1c1,0,1,-1,1,-1l1,-1c0,-1,0,-1,0,-1c0,0,0,-1,0,-1l0,1c-1,0,-1,0,-1,0l-1,0c0,0,-1,0,-1,-1l0,-1l0,-1c0,0,0,-1,1,-1c0,-1,0,-1,0,-1c0,0,1,0,1,0l1,0l0,1l1,1l0,1c0,0,0,1,0,1l0,1c0,1,-1,2,-1,3l-1,1l0,1ZM179.5,581.5l4,-2l0,1c0,0,-1,0,-1,0l-4,2ZM175.5,591.5l0,-1l0,-2l-1,-8l1,-2l1,10c0,1,0,1,0,1l-1,1c0,0,0,1,0,1ZM159.5,572.5l5,-2l-1,1l-4,2ZM169.5,573.5c1,0,1,0,1,-1c1,0,1,0,1,0c1,0,1,0,1,1c1,0,1,0,1,0c0,0,-1,1,-1,1l-1,1c0,0,-1,0,-1,0l1,-1c0,0,1,0,1,0c0,-1,0,-1,0,-1l-1,0c0,0,-1,0,-1,0c0,0,-1,1,-1,1l0,-1ZM150.5,594.5l1,0c1,0,2,0,3,-1c0,0,1,0,1,-1c1,0,1,-1,2,-1c0,-1,0,-1,0,-1c0,0,0,-1,0,-1l0,-1l-1,0l0,-1l0,-1l1,-1l0,1l1,1l0,1l0,1c0,0,0,1,0,1c0,1,0,1,-1,1c0,0,0,1,0,1c0,0,0,1,0,1c-1,0,-1,0,-1,1c0,0,-1,0,-1,0l-1,1l-1,0l-1,0c0,0,-1,0,-1,0c0,0,-1,-1,-1,-1ZM152.5,580.5l1,0c0,-1,1,-1,1,-1c1,0,1,0,1,1c1,0,1,0,1,0c0,1,0,1,-1,1c0,1,0,1,0,1c0,0,-1,0,-1,0c0,0,-1,0,-1,0l-1,0l2,0c0,0,1,-1,1,-1l-1,0c-1,0,-1,0,-2,0l-1,0c0,0,1,-1,1,-1ZM142.5,584.5l-1,-1l1,-2l1,1ZM140.5,591.5l0,1c0,0,0,1,0,1l-1,0l0,-1l0,-1l-1,0c0,0,0,1,0,1c0,0,0,1,0,1c0,0,0,1,0,1c0,1,-1,1,-1,2l-1,0c0,1,0,1,-1,1c0,0,-1,0,-1,1c-1,0,-1,0,-1,0l-1,0c-1,0,-1,0,-2,0c-1,-1,-1,-1,-1,-1c-1,-1,-1,-1,-1,-1c0,-1,-1,-1,-1,-2c0,-1,1,-1,1,-1c0,0,0,-1,0,-1c0,-1,0,-2,1,-2c0,1,0,1,0,2c-1,0,-1,0,-1,1c0,0,0,1,1,1c0,1,0,1,1,1c0,1,0,1,1,1l1,0c1,0,1,0,2,0c1,0,1,-1,2,-1c0,0,1,-1,1,-1c0,-1,0,-1,0,-2c0,0,0,-1,0,-1c0,-1,0,-1,0,-1l0,-2c1,0,1,0,1,0c0,1,0,1,1,1l1,0l1,0l1,-1l1,-1l1,0l0,-1l1,0c1,-1,1,-1,1,-1c1,0,1,0,1,0c1,0,1,0,1,0c0,0,1,0,1,0c0,1,0,1,1,1l0,1l0,1l0,1l-1,0c-1,1,-1,1,-2,1l-1,1c0,0,-1,0,-1,0l-1,0l-1,0l-1,0ZM145.5,587.5l-1,0l0,1l-1,0l-1,1l-1,0l3,0c0,0,1,0,1,0c1,0,1,0,2,0c1,0,1,-1,2,-1l-1,0c0,-1,0,-1,0,-1c-1,0,-1,0,-1,0c-1,0,-1,0,-1,0c-1,0,-1,0,-1,0ZM130.5,581.5l5,-2l-1,1l-4,2ZM251.5,591.5l0,-1l0,-2l-1,-8l1,-2l1,10c0,1,0,1,0,1l-1,1c0,0,0,1,0,1ZM243.5,589.5c0,0,1,0,1,0c0,0,1,0,1,0c1,-1,1,-1,1,-1l0,-2l-1,-7c0,-1,0,-1,0,-1c0,-1,1,-1,1,-1c0,0,0,1,0,1c0,0,1,0,1,1l0,1l-1,0c0,1,0,1,0,2c0,0,0,1,1,3c0,0,0,1,0,1l0,1c0,1,0,1,0,1l-1,1c0,0,0,1,0,1c-1,0,-1,0,-1,0c0,1,0,1,-1,1l-1,0l-1,0l0,-1l-1,0l0,-1l-1,0c0,0,0,1,0,1c-1,0,-1,0,-2,0c0,0,-1,0,-1,-1l-1,1c0,0,0,1,-1,1c-1,0,-2,-1,-2,-2c0,0,0,1,0,1c-1,0,-2,1,-2,1l-1,0l-1,0c0,0,-1,0,-1,-1l-1,0c0,0,0,1,-1,1c0,0,-1,0,-1,0l-1,-1l-2,-1l-1,1c0,1,0,1,-1,1l-1,0l0,-2l1,0c1,0,1,0,1,0l1,-1l0,-1c1,-1,2,-1,3,-1l1,1l0,1l1,0l1,1l1,0l1,0l1,0l1,0c1,-1,1,-1,2,-2l0,1c0,1,0,1,1,1c0,0,1,0,1,0c0,-1,1,-1,1,-1l0,-1l1,0c0,0,0,1,0,1c0,0,0,1,1,1c0,0,0,-1,1,-1c0,0,0,-1,1,-1c0,1,1,2,2,2ZM236.5,581.5l0,1c0,0,1,0,1,-1l0,-1l0,1c1,0,1,0,1,0l0,-1l1,0l0,1l0,1c0,0,-1,0,-1,0l-1,0l0,1c-1,0,-1,0,-1,0c0,0,-1,0,-1,0l0,-1l0,-1ZM240.5,578.5l-6,3c0,-1,1,-2,1,-2l5,-2ZM226.5,589.5l0,-1c-1,0,-1,0,-1,-1l-1,0l0,1l-1,0c1,0,1,0,2,1ZM219.5,589.5l0,2l-2,0c0,0,-1,1,-1,1c0,0,0,1,0,1c0,0,-1,1,-1,1c0,0,0,1,-1,1l0,1c-1,0,-1,0,-1,0c0,0,-1,0,-1,0l-1,0c-1,0,-1,0,-2,0l-1,-1c0,0,1,0,1,0c1,0,1,0,1,0c0,0,1,0,1,0c1,0,1,0,2,-1l1,0c0,0,0,-1,0,-1c0,0,1,0,1,-1l0,-1c1,0,1,0,1,0c0,0,-1,0,-1,0l-1,0l-1,-1c0,0,0,-1,0,-1c0,0,0,-1,0,-1c0,-1,0,-1,0,-1l1,0c0,0,0,-1,0,-1c0,0,1,0,1,0c1,0,1,0,1,1c0,1,0,1,0,1c1,0,1,1,1,1c0,0,1,0,1,0l1,0ZM214.5,588.5c0,0,0,1,0,1c1,0,1,0,1,0c0,0,1,0,1,0c0,0,-1,0,-1,0c0,-1,0,-1,0,-1l-1,0ZM200.5,584.5l-1,1l-2,-1l0,1l-2,-1l1,-1l2,1l0,-1ZM205.5,589.5c0,0,0,1,-1,1c-1,0,-2,1,-3,1c-2,0,-3,0,-4,0c-2,0,-3,0,-4,0c-1,0,-2,-1,-2,-1c0,0,-1,-1,-1,-1c0,0,0,-1,0,-1l0,-1c0,0,0,-1,0,-1c1,0,1,-1,1,-1l1,0c-1,0,-1,0,-1,1c0,0,0,1,0,1c0,0,0,1,0,1c1,0,1,1,2,1c0,0,1,0,1,0l1,0l1,0l2,0c1,0,1,0,2,0c1,0,1,0,1,0l1,0l1,0c0,-1,1,-1,1,-1c1,0,2,-1,2,-1l-1,-1l0,-1c0,-1,0,-1,1,-2c0,1,0,1,0,2l0,1l1,0c0,1,-1,1,-1,2l-1,1ZM196.5,594.5l-5,2c1,-1,1,-1,1,-1l4,-2ZM264.5,585.5l-1,-1l1,-2l1,1ZM264.5,594.5c0,0,-1,0,-1,0c-1,0,-1,-1,-2,-1c0,0,0,-1,-1,-1c0,-1,0,-1,0,-2c0,0,0,-1,0,-1l0,-1l1,-1c0,0,0,-1,0,-1l1,0c0,1,-1,1,-1,1c0,1,0,1,0,1l0,1c0,1,0,1,0,1c0,1,1,1,1,1l0,1c1,0,1,0,1,0c0,0,1,0,2,0c0,0,1,0,2,0c0,-1,1,-1,1,-1c1,-1,1,-1,1,-1l0,-1l0,-1c0,0,0,-1,-1,-1c0,0,0,-1,0,-1l-1,-1l1,-2c0,0,0,1,1,1c0,0,0,1,0,1c0,0,0,1,0,1c0,0,1,0,1,1c0,1,0,1,0,1l0,1c0,1,0,1,-1,2c0,0,0,1,-1,1c0,1,-1,1,-2,2c0,0,-1,0,-2,0ZM261.5,576.5l0,1c0,0,1,0,1,0l0,-1l1,0c0,1,0,1,0,1c1,0,1,0,1,-1l0,-1l0,1l0,1c0,0,0,1,0,1l-1,0l-1,0c0,0,0,1,0,1c-1,0,-1,0,-1,-1l0,-1l0,-1ZM265.5,573.5l-5,3c0,0,0,-1,0,-1l6,-3ZM318.5,578.5c0,0,-1,0,-2,1c-2,0,-3,1,-4,1c-1,1,-2,1,-3,1l0,1l0,1l2,1c1,0,1,0,2,1c0,0,0,1,0,1c1,1,1,1,1,2c0,0,-1,1,-1,1c0,0,0,1,0,1c0,0,-1,0,-1,0c0,0,-1,1,-1,1c0,0,-1,0,-1,0l-1,0l-1,0l-1,0c-1,0,-1,0,-2,0c0,-1,0,-1,-1,-1c0,0,-1,0,-1,1c-1,0,-1,0,-2,0l-1,0l-1,0l0,1c0,1,0,1,0,2c-1,0,-1,0,-1,1l-1,0c0,1,0,1,-1,1l-1,0l-1,0c0,0,-1,0,-2,0l-1,0l1,-1l1,1c1,0,1,-1,2,-1l1,0c0,-1,0,-1,0,-1c1,0,1,0,1,-1c0,0,1,0,1,-1l1,-1c0,0,0,-1,0,-1l-1,0c0,0,0,-1,0,-1l0,-1c1,0,1,0,1,0l0,1c0,0,1,0,1,0l1,0c0,0,1,0,1,0c0,0,1,0,1,0c0,0,0,-1,0,-1c0,-1,0,-1,0,-2c0,-1,0,-1,0,-1c1,0,1,-1,1,-1c1,0,1,0,2,0c0,0,1,0,1,0c0,1,0,1,0,2l0,1c0,1,0,1,0,1c0,0,-1,1,-1,1l1,0c0,0,1,0,1,0l1,0l1,0c1,0,1,0,1,0c1,0,1,0,1,0c0,0,1,0,1,-1c0,0,0,-1,0,-1c-1,-1,-1,-1,-2,-2l-1,0l0,-1c0,0,-1,1,-1,1c0,0,0,-1,0,-1c0,0,-1,0,-1,0l0,-1l0,-1l0,-1c0,0,1,0,1,0c0,-1,0,-1,0,-1c1,0,2,-1,3,-1c2,-1,3,-2,4,-2c1,0,2,0,2,-1ZM313.5,574.5l4,-2l0,1c-1,0,-1,0,-1,0l-4,2ZM305.5,583.5l-1,-1l1,-2l1,1ZM305.5,585.5c0,0,-1,1,-1,1l-1,1c0,0,1,0,1,0c0,0,0,1,1,1l1,-1c0,0,0,-1,0,-1c0,0,-1,-1,-1,-1ZM303.5,574.5l5,-2l-1,1l-4,2ZM297.5,575.5c0,0,0,-1,0,-1c1,0,1,0,1,0c1,0,1,0,1,0l0,1l0,1l0,1l0,1l-1,0l-1,0c0,1,-1,1,-1,1l-1,0l1,-1l1,0l0,-1c0,0,0,-1,0,-1c0,0,0,-1,0,-1ZM298.5,575.5c-1,0,-1,0,-1,0l1,1l0,-1ZM290.5,587.5l-1,0c0,0,1,0,1,0c0,1,0,1,0,1c0,0,1,0,1,0l0,-1c0,0,-1,0,-1,0ZM290.5,595.5c-1,0,-1,0,-1,0c-1,0,-1,1,-2,1c-1,0,-1,-1,-2,-1l-1,0c0,-1,1,-1,1,-1c0,0,0,1,0,1c1,0,1,0,1,0c0,0,1,0,1,0l0,-1c1,0,1,0,1,0l1,0c0,0,0,-1,1,-1c0,0,0,-1,0,-1c1,0,1,0,1,-1c1,-1,1,-1,1,-1c0,0,0,-1,0,-1c-1,0,-1,0,-1,0l0,1c0,0,-1,0,-1,0l-1,0l0,-1l0,-1l0,-1c0,0,0,-1,0,-1c0,-1,1,-1,1,-1l1,0c1,0,1,0,1,1l0,1l0,1c0,0,1,1,1,1c0,0,-1,0,-1,1c0,1,0,2,0,3c-1,0,-1,0,-1,1l-1,1ZM290.5,573.5c-1,1,-2,1,-3,1l-1,0l-1,0l-1,0l0,-1c-1,1,-1,1,-2,1l1,0l0,-1l1,-1c1,1,2,1,3,1l1,0l1,0l1,0l1,-1ZM283.5,591.5l0,-1l0,-2l0,-8l1,-2l0,10c0,1,0,1,0,1l0,1c0,0,0,1,-1,1ZM356.5,591.5l0,-1l0,-2l-1,-8l1,-2l1,10c0,1,-1,1,-1,1l0,1c0,0,0,1,0,1ZM348.5,592.5c0,0,0,-1,0,-1l0,1c0,0,0,-1,0,-1c-1,-1,-1,-1,-1,-1c0,-1,0,-1,0,-1c-1,0,-1,0,-1,0c0,0,0,1,-1,1l-1,0c-1,1,-1,1,-2,1c-1,0,-1,0,-1,0c0,-1,-1,-1,-1,-2l0,-1l0,-1l1,0c0,1,0,1,0,1c0,0,0,1,1,1c0,0,1,0,1,0l1,0l1,0c0,-1,0,-1,0,-1c1,0,1,0,1,0c0,-1,0,-1,0,-2c0,0,0,-1,0,-2l0,-1c0,-1,0,-1,0,-2l1,2c0,0,0,1,0,1c0,1,0,2,0,3c0,0,1,1,1,1c0,0,0,1,0,1c0,0,0,1,1,1l0,1c1,0,1,0,1,0c0,0,1,0,1,0l0,-1c0,0,0,-1,0,-2c0,-1,0,-2,0,-2c0,-1,0,-1,0,-1c-1,-1,-1,-2,-1,-3c0,-1,0,-2,0,-3c0,-1,0,-1,0,-1c0,-1,1,-1,1,-1c0,1,0,1,0,1c0,0,1,0,1,1l0,1c0,1,0,1,0,2c0,0,0,1,0,3c0,0,0,1,0,1c0,0,0,1,0,1c0,2,0,2,0,2c0,1,0,1,0,1c0,0,0,1,0,1c-1,1,-1,1,-1,1l-1,0c0,0,-1,0,-1,0l-1,0ZM350.5,573.5l0,1c0,0,1,0,1,0c0,0,0,-1,0,-1l0,-1l1,1c0,0,1,0,1,-1l0,-1l0,1l0,1l0,1l-1,0l-1,0l0,1c0,0,-1,0,-1,0l0,-1l-1,0l1,-1ZM354.5,570.5l-6,3c1,-1,1,-2,1,-2l6,-2ZM345.5,580.5l-1,-1l1,-1l1,1ZM343.5,594.5l-4,2c1,-1,1,-1,1,-1l4,-2ZM338.5,593.5l-1,-1l-1,1l-1,-1l0,-1l2,1l1,-1l1,0ZM333.5,587.5l1,0l1,0c1,0,1,0,1,0c0,0,0,-1,1,-1c0,0,-1,0,-1,-1l0,-1c0,0,0,-1,0,-1l1,0c0,0,0,1,0,1l0,1l0,1l0,1c0,0,0,1,0,1c-1,0,-1,0,-1,0l-1,0c0,1,-1,1,-1,1l0,1l0,1c0,0,0,1,-1,2c0,0,0,1,-1,1c0,1,-1,1,-2,1c0,1,-1,1,-2,1c0,0,-1,0,-1,-1c-1,0,-1,0,-2,0c0,-1,0,-1,-1,-1c0,-1,0,-2,0,-2c0,0,0,-1,0,-1c0,0,0,-1,0,-1c0,0,0,-1,1,-1c0,0,0,-1,0,-1l1,0c0,0,-1,1,-1,1c0,0,0,1,0,1c0,1,0,1,0,1c0,0,0,1,0,1c0,0,0,1,1,1c0,0,1,0,1,0c0,1,1,1,2,1c0,0,1,0,2,-1c0,0,1,0,1,-1c1,0,1,0,1,0c0,0,0,-1,0,-1c0,-1,0,-1,0,-1c0,-1,0,-1,-1,-1c0,0,0,-1,0,-1c0,0,0,-1,0,-1l-1,0l1,-2l1,1l0,1ZM328.5,586.5l-1,-1l1,-1l1,1ZM325.5,578.5l4,-2l-1,1l-4,2ZM375.5,594.5l-2,-1l-1,1l-1,-1l1,-1l1,1l1,-1l1,0ZM372.5,589.5c0,0,1,0,1,0c1,0,1,0,1,-1c0,0,0,-1,0,-1l0,-1l-1,0l1,-2c0,1,1,1,1,1c0,1,0,1,0,1l0,1l0,1l0,1l-1,1l-1,1c0,0,-1,0,-1,0l-1,0c-1,0,-1,0,-1,0l0,1c0,1,-1,1,-1,2l0,1c-1,0,-1,0,-1,0c0,1,-1,1,-1,1c0,0,-1,0,-1,0c0,0,-1,0,-1,0c-1,0,-1,0,-2,0c0,0,-1,0,-1,0l0,-1c0,0,1,0,1,1l1,0c0,0,1,-1,1,-1c0,0,1,0,1,0c1,-1,1,-1,1,-1c0,0,1,0,1,-1l0,-1c1,0,1,0,1,-1c0,0,0,-1,0,-1c-1,0,-1,-1,-1,-1l1,-1l1,1l1,0ZM372.5,578.5l4,-2l-1,1l-4,2ZM365.5,578.5l4,-2l0,1l-4,2ZM404.5,587.5l-1,0c1,1,1,1,1,1l1,0l0,-1c0,0,-1,0,-1,0ZM404.5,595.5c-1,0,-1,0,-1,0c-1,0,-1,1,-2,1c-1,0,-1,-1,-2,-1l-1,0c0,-1,0,-1,1,-1c0,0,0,1,0,1c1,0,1,0,1,0c0,0,1,0,1,0l0,-1c1,0,1,0,1,0l1,0c0,0,0,-1,1,-1c0,0,0,-1,0,-1c1,0,1,0,1,-1c0,-1,1,-1,1,-1c0,0,0,-1,0,-1l-1,0l0,1c0,0,-1,0,-1,0c0,0,-1,0,-1,0l0,-1c-1,0,-1,0,-1,-1l1,-1c0,0,0,-1,0,-1c0,-1,1,-1,1,-1l1,0c0,0,1,0,1,1l0,1l0,1c0,0,0,1,0,1l0,1c0,1,0,2,0,3c-1,0,-1,0,-1,1c0,0,-1,0,-1,1ZM401.5,581.5l5,-2l-1,1l-4,2ZM395.5,589.5l1,0c1,0,1,0,1,0c0,-1,0,-1,0,-1l0,-2l0,-7c-1,0,-1,0,-1,0c0,-1,1,-1,1,-1c0,-1,0,-1,0,-1c0,0,0,1,0,1l1,0l1,1c-1,0,-1,0,-1,1c0,1,0,1,0,2c0,0,0,1,0,3c0,0,0,1,0,1l0,1c0,1,0,1,0,1l0,1c0,0,0,1,-1,1c-1,1,-1,1,-1,1c-1,0,-1,0,-1,0l-1,0c0,0,-1,0,-1,-1c-1,0,-1,0,-1,0c0,0,0,1,-1,1c0,0,-1,0,-2,0c0,0,-1,0,-1,-1l0,1l-1,1l-1,1c0,0,-1,0,-2,0c-1,1,-2,1,-4,1l5,-2l1,-1c1,0,1,-1,2,-1l0,-2c1,0,1,-1,1,-1l1,0l0,-1c1,0,1,1,1,2c1,0,1,0,2,1c1,0,1,0,1,0ZM396.5,575.5l4,-3l-1,1l0,1l-4,2ZM391.5,589.5l-1,0c0,-1,0,-1,0,-1l-1,0l0,1l1,0ZM386.5,580.5c1,0,1,0,1,-1c1,0,1,0,2,0c0,0,1,0,1,1c0,0,1,0,1,0c-1,1,-1,1,-1,1c0,1,0,1,-1,1l-1,0l-1,0l1,0c1,-1,1,-1,2,-1c0,0,-1,0,-1,0c0,0,-1,0,-1,0c0,0,-1,0,-1,0l-1,0c0,0,0,-1,0,-1ZM273.5,591.5l0,-1l0,-2l-1,-8l1,-3l1,11c0,0,0,1,0,1c0,0,-1,0,-1,1l0,1ZM271.5,576.5l4,-2l0,1l-1,0l-4,2ZM411.5,595.5l0,-1l0,-2l-1,-8l1,-3l1,11c0,0,0,1,0,1c-1,0,-1,0,-1,1l0,1Z" class="g2_20" />
</svg>