<?xml version="1.0" encoding="UTF-8" standalone="no"?>
<!DOCTYPE svg PUBLIC "-//W3C//DTD SVG 1.1//EN"
"http://www.w3.org/Graphics/SVG/1.1/DTD/svg11.dtd">
<svg version="1.1" xmlns="http://www.w3.org/2000/svg" xmlns:xlink="http://www.w3.org/1999/xlink">
<defs>
<style type="text/css"><![CDATA[
.g2_66{
stroke: #1F1A17;
stroke-width: 1;
stroke-linecap: butt;
stroke-linejoin: miter;
}
.g1_66{
fill: #1F1A17;
stroke: #1F1A17;
stroke-width: 1;
stroke-linecap: butt;
stroke-linejoin: miter;
}
]]></style>
</defs>
<path fill-rule="evenodd" d="M217.5,100.5c-1,0,-2,-1,-3,-2l0,1l-1,1l1,0c0,1,0,1,0,1l1,1l0,1c0,1,0,1,-1,2c0,0,0,1,-1,1c-1,0,-1,0,-2,1c-1,0,-2,0,-2,0c-1,0,-1,0,-2,-1c-1,0,-2,-1,-2,-2c0,0,0,-1,1,-1l0,-2l-1,1l0,1l0,1c0,0,0,1,0,2c0,0,0,1,1,2c1,0,2,1,3,1c2,0,4,-1,5,-2c0,-1,1,-2,1,-2c0,-1,0,-1,1,-2l0,-1l1,0c1,0,1,0,1,0c1,0,1,-1,1,-1l1,-1l1,0l0,1c1,0,1,0,2,0l0,-1c1,0,1,0,1,-1l0,-1c0,0,-1,-1,-1,-1l1,0l1,0l1,0c0,0,1,0,1,0l1,0l1,0l1,1l1,-2c0,0,-1,0,-2,0l-1,-1l-1,0l0,-1l-1,0l-1,-1c-1,0,-1,-1,-2,-1c0,0,-1,1,-1,1c-1,1,-2,1,-2,2l1,0c1,-1,1,-1,1,-1c1,0,1,0,2,1c1,0,1,1,1,1l-1,0c0,0,-1,0,-1,0c-1,0,-2,0,-2,1l-1,0c0,1,-1,1,-1,2c0,0,0,1,-1,1c-1,0,-1,0,-1,0ZM207.5,85.5c0,-1,0,-1,0,-1c1,0,1,-1,1,-1c0,1,0,1,0,1c1,0,1,0,1,1l0,1l-1,0l1,1l0,1l-1,-1l-1,1c0,1,-1,1,-1,1l-1,0l-1,0l1,0l1,-1l1,-1l0,-1c0,0,-1,0,-1,0l0,-1c0,0,1,0,1,0ZM208.5,85.5l-1,0l1,1l0,-1ZM220.5,87.5c0,1,-1,2,-3,2c1,0,1,0,1,-1c1,0,1,0,1,-1l-1,0c-1,0,-1,0,-1,0c0,0,0,-1,1,-1c1,0,1,0,1,0c1,1,1,1,1,1ZM240.5,87.5l-1,1l-3,2c0,-1,0,-1,0,-1c0,0,1,0,1,-1ZM228.5,104.5c0,1,0,1,0,1l-4,2c1,-1,1,-1,1,-1ZM237.5,92.5l0,1l1,0l0,-1l0,-1l1,0l0,1c1,0,1,0,1,-1l0,-1l1,0l0,1l0,1l-1,1c0,0,0,1,0,1l-1,0l0,-1l-1,0l0,1c0,0,-1,1,-1,1c0,0,-1,0,-1,-1l0,-1l0,-1ZM250.5,87.5l-2,2c0,1,0,1,0,1l0,2l0,1l0,1l1,1l0,2c0,2,0,2,0,3l0,1l0,1c1,0,1,0,1,-1c0,-1,0,-1,0,-2l0,-2l0,-1ZM242.5,102.5c0,0,1,0,2,-1l1,0c0,-1,0,-1,0,-2c1,-1,1,-1,1,-2l0,-1l-1,-1l0,-3l0,-1l0,-1c0,0,0,-1,0,-1c0,0,0,-1,1,-1l-1,0l0,-1l-1,-1l-1,2c0,0,1,1,1,3l0,4c1,2,1,3,1,4l-1,1c0,0,-1,0,-1,0l-2,0c0,0,-1,0,-1,-1c0,0,-1,0,-1,-1l-1,2c1,1,1,2,1,3c0,0,0,1,-2,2c-1,1,-2,2,-2,2c-1,0,-1,0,-2,0c0,0,-1,0,-1,0c0,0,1,0,1,1c1,0,1,0,2,0l1,0c0,0,1,0,2,-1c0,0,1,-1,1,-2c0,0,1,-1,1,-1l0,-2c0,0,1,0,1,0l1,0ZM223.5,100.5c0,0,-1,0,-2,-1c0,0,-1,-1,-1,-1l1,0c0,0,1,0,1,0c1,1,1,1,1,1l0,1ZM208.5,95.5c0,1,1,1,1,1l1,1l0,-1l1,-1c0,0,-1,0,-1,-1l-1,0l0,1Z" class="g1_66" />
<path fill-rule="evenodd" d="M158.5,542.5c0,0,-1,0,-1,0c-1,0,-1,0,-1,0c-1,0,-1,0,-2,0c0,0,-1,0,-1,0c0,0,0,-1,0,-1l0,-1c1,0,1,0,1,0c0,0,1,0,1,0c0,0,0,-1,1,-1c0,0,0,-1,0,-1l0,-1c0,0,-1,0,-1,-1c0,0,-1,-1,-1,-1c0,-1,-1,-1,-2,-2c-1,-1,-1,-1,-1,-1c0,0,-1,0,-1,0c-1,0,-1,0,-1,-1l0,-1c0,-1,0,-1,0,-1l0,-1c1,1,1,1,2,1c0,1,1,1,1,2c1,1,2,1,2,2c1,0,1,1,2,2c0,0,0,1,1,1c0,0,0,1,0,1c0,0,0,-1,0,-1c1,-1,1,-2,1,-2c0,-1,0,-1,0,-2c0,0,0,-1,0,-1c0,-1,0,-1,0,-2c0,0,-1,0,-1,0c0,-1,1,-1,1,-1c0,-1,0,-1,0,-1c0,1,0,1,0,1c1,0,1,0,1,0l1,1c0,0,-1,0,-1,1c0,0,0,1,0,1c0,0,0,1,0,1c0,1,0,1,0,1c0,1,0,1,-1,2c0,0,0,1,0,2c0,0,0,1,0,1c0,0,0,1,0,1c0,1,0,1,0,1c0,1,0,1,0,1l0,1ZM104.5,585.5c0,1,0,2,-1,3l0,1c-1,0,-1,0,-1,0l1,1l-1,1l-1,1c0,0,-1,1,-2,1l-1,0l-1,1l-1,0l0,1l-1,1l-3,0l-3,0c-1,0,-1,0,-1,-1l-1,-1l-1,0c-1,-1,-1,-1,-2,-1l-1,-1l-1,0l0,-1l-1,0l-1,-1l1,-1l-1,-1l0,-1c0,-1,0,-1,0,-1l0,-1l0,-1c0,0,0,-1,0,-1c0,-1,0,-1,1,-1l0,-1l-1,0l1,-1l1,0l0,-1l1,0l0,-1l1,0l1,0l1,-1l1,0l1,-1c0,-1,0,-1,1,-1l3,0l3,0l0,1l1,0l0,1l1,0l2,1l1,0l0,1l1,0l1,1c0,0,1,0,1,1l-1,0l0,1l1,0l0,1l1,1l0,1ZM95.5,596.5l0,-1l1,-1l1,-1c0,0,1,0,1,0l1,0c1,-1,1,-1,2,-1l0,-1c0,0,1,0,1,0l1,-1l-1,0l0,-1l1,-1l0,-1l0,-1l0,-1c0,0,0,-1,0,-2l0,-1c0,0,-1,0,-1,0l0,-1l1,0c0,-1,-1,-1,-1,-1l-1,0l0,-1l-1,0l0,-1l-2,0l-1,-1c0,0,-1,0,-1,0l-1,-1l0,-1l-1,0l-2,0l-2,0l-1,0l-1,0l0,1l-1,1l-1,0l-1,1l-1,0l-1,1l-1,0l0,1c-1,0,-1,0,-2,1l1,0l1,0l-1,0l0,1l0,1l-1,0l0,1l0,1l0,1l0,1l0,1l1,0l0,1l1,0l0,1l-2,0l1,0l1,1l0,1l1,0l1,1l1,0l1,0c1,0,1,1,1,1l1,0l0,1c0,0,1,0,1,1l3,0ZM100.5,581.5l-1,0l0,-1l-1,0c0,0,-1,0,-1,-1l1,0c1,0,1,0,1,0c0,1,1,1,1,1ZM100.5,590.5l0,1l-1,0l0,1l-1,0l-1,0l0,-1c0,0,1,0,1,0l1,0c0,0,1,-1,1,-1ZM96.5,592.5c0,1,0,1,0,1c-1,1,-1,1,-1,1l-3,0l-3,0c-1,0,-1,0,-1,-1l-1,0l0,-1l1,0c0,-1,0,-1,1,-1l3,0l3,0l1,0l0,1ZM96.5,578.5c0,1,0,1,0,1c-1,0,-1,1,-1,1l-3,0l-3,0c-1,0,-1,0,-1,-1l-1,0l0,-1l1,0l0,-1l1,0l3,0l3,0l1,1ZM95.5,581.5c1,0,1,0,1,0c1,0,1,0,2,0l0,1l1,0l1,0l1,0l0,1l0,1l0,1l0,1c0,1,0,1,0,1l0,1l0,1c-1,0,-1,0,-1,0l-1,0l-1,1l-1,0l-1,0l-1,0l-3,0l-3,0l-1,0l-1,0c-1,0,-1,0,-1,0c-1,0,-1,0,-1,-1l-1,0l-1,0l-1,-2l0,-1l0,-1c0,-1,0,-1,0,-1l0,-1l1,0l0,-1l1,0c0,0,1,0,1,0l0,-1l1,0c0,0,1,0,1,0c0,0,1,0,1,0l1,0l3,0ZM95.5,589.5l0,1c1,0,1,0,1,0l1,0l1,0l0,-1l1,0c0,0,0,-1,0,-1l1,1l0,-1l1,0l0,-1l0,-1l0,-1c0,0,0,-1,0,-1c0,-1,0,-1,-1,-1c0,-1,0,-1,0,-1l-1,0l-1,0l0,-1l-1,0l-1,0l-1,0l-3,0l-3,0l-1,0l-1,0l-1,0l-1,0l0,1c0,0,-1,0,-1,0l-1,0l0,1l-1,1l0,1l0,1l0,1l1,0c0,1,0,1,0,2l1,-1c0,0,1,1,1,1l1,1l1,0c0,0,1,0,1,0l1,-1l3,0l3,0ZM93.5,584.5c0,0,0,1,0,1l-1,0l1,0l0,1l0,1l-1,0c0,0,1,0,1,0l1,0l0,1c0,0,-1,0,-1,0c-1,0,-1,0,-1,-1l0,-1l1,0l-1,0l0,-1c0,0,0,-1,0,-1c1,0,1,0,1,0ZM89.5,584.5l1,0l1,0l0,1l0,1c0,0,0,1,0,1l0,1c0,0,0,-1,0,-1l-1,-1l0,-1c-1,0,-1,0,-1,0l0,-1ZM83.5,581.5l0,-1l1,0l0,-1l1,0l1,0l0,1l-1,0l-1,0l0,1l-1,0ZM83.5,590.5l1,0c0,0,0,1,1,1l1,0c0,1,0,1,0,1l-1,0c0,0,-1,0,-1,-1l-1,0l0,-1ZM155.5,588.5l0,-1l0,-1l0,-9l1,-2l0,11c0,0,0,1,0,1c0,0,0,1,-1,1ZM148.5,586.5l1,0c1,0,1,0,1,0c0,0,0,-1,0,-1l0,-2l0,-6c0,0,0,-1,0,-1c0,0,0,-1,0,-1c0,0,0,-1,0,-1l0,1c0,0,1,0,1,0c0,0,0,1,1,1c0,0,-1,0,-1,1l0,1l0,-1c0,0,0,1,0,1c0,0,0,1,0,2l0,2c0,1,0,1,0,1l0,1c0,1,0,1,0,1c0,0,0,1,0,1c0,1,0,1,-1,1l0,1c-1,0,-1,0,-1,0c0,0,-1,0,-1,0l-1,0c0,0,-1,0,-1,0c0,0,-1,0,-1,-1l-1,0l0,-1c0,0,-1,1,-1,1c-1,0,-1,0,-1,0c-1,1,-1,1,-1,1l-1,0l-1,0l-10,0l0,1c0,0,0,1,0,1l-1,0l0,-1l0,-1l-1,0l-1,0l-1,-1l0,-1c0,1,-1,1,-1,2c-1,0,-1,0,-1,0l-1,0c-1,0,-2,0,-2,0c0,-1,0,-1,-1,-1c0,1,0,1,0,2l-1,0c0,0,-1,0,-1,-1c-1,0,-1,0,-2,-1l0,1l0,1c0,0,-1,0,-1,1c-1,0,-1,0,-2,1c-2,0,-3,0,-4,0l4,-2l2,-1l1,-1l1,-2c0,0,0,-1,1,-1l1,0l1,1c0,0,1,1,1,1c0,0,1,0,1,0l1,0c1,0,1,0,1,0c1,0,1,0,1,0c0,0,0,-1,1,-1l0,-1l0,1c0,1,1,1,1,1c0,0,1,0,1,0l1,0c1,0,1,0,1,0c1,-1,1,-1,1,-2l0,-1l0,-1l0,-1l-1,-3l0,-2c0,-1,0,-1,0,-1l1,0l0,-1l1,2c-1,1,-1,1,-1,2l0,1l1,2l0,1l0,1l0,1l-1,1l2,-1l1,-1c1,-1,1,-1,2,-1l1,0c0,0,1,0,1,0c1,1,1,1,1,2c0,0,0,1,0,1l-1,1l-1,1l2,-1l1,0l1,0c1,0,1,0,1,0l1,0c0,-1,1,-1,1,-1l-1,0c0,0,-1,-1,-1,-1l-1,0l1,-2c1,0,1,0,1,0c1,0,1,0,1,0l1,0c0,0,1,0,1,0l0,1c1,0,1,0,1,0l0,1c-1,1,-1,1,-1,1c0,0,0,1,0,1l1,0l1,0ZM148.5,570.5l1,0c0,-1,1,-1,1,-1c1,0,1,0,1,1c1,0,1,0,1,0l0,1l-1,0c0,1,0,1,0,1l-1,0c0,0,-1,0,-1,0c-1,0,-1,0,-1,0l2,0c0,0,1,-1,1,-1l-1,0c-1,0,-1,0,-2,0l0,-1ZM143.5,575.5l4,-2l-1,1l-4,2ZM134.5,580.5l-2,-1l1,-1l2,1ZM137.5,585.5c0,0,0,-1,0,-1c-1,0,-1,0,-1,0c0,0,-1,0,-1,0c-1,0,-1,0,-2,0l-1,1l-1,0l-1,1l1,0c1,0,1,0,2,0l1,0c1,0,2,-1,3,-1ZM132.5,591.5l-4,2c0,0,0,-1,1,-1l4,-2ZM126.5,591.5l-1,-1l-1,1l-1,0l0,-2l2,1l1,-1l1,1ZM118.5,587.5l0,-1c0,-1,-1,-1,-1,-1c0,0,-1,1,-1,1c0,0,1,0,1,0l1,1ZM115.5,576.5c0,-1,0,-1,1,-1c0,-1,0,-1,0,-1l1,0c0,1,0,1,0,1c0,1,0,1,0,1l0,1l0,2l-1,-1l-1,1c0,0,0,1,-1,1l-1,0l0,-1l1,0l1,-1l1,0l-1,0l0,-1l0,-1ZM116.5,576.5l0,-1c0,0,-1,1,-1,1l1,0l0,1l0,-1ZM197.5,588.5l0,-1l0,-1l-1,-9l1,-2l1,11l-1,0c0,0,0,1,0,1c0,0,0,1,0,1ZM189.5,586.5c0,0,1,0,1,0l1,0c1,0,1,-1,1,-1l-1,-2l0,-6c0,0,0,-1,0,-1c0,0,0,-1,0,-1c0,0,0,-1,1,-1l0,1c0,0,0,1,1,1l-1,1l0,1l0,-1c0,0,0,1,0,1c0,0,0,1,0,2l0,2c0,1,0,1,0,1l0,1c0,1,0,1,0,1c0,0,0,1,0,1c0,1,0,1,0,1c0,0,-1,0,-1,0l0,1c0,0,-1,0,-1,0l-1,0l-1,0l-1,0c-1,0,-2,0,-2,0c0,0,-1,-1,-1,-1c-1,0,-1,1,-2,1c0,0,-1,0,-2,0l-2,0c0,0,0,1,0,1c0,0,0,1,-1,1c0,1,0,1,0,1c-1,1,-1,1,-1,1c0,1,-1,1,-1,1l-1,0c-1,0,-1,0,-1,0l-1,0l-1,0c0,0,-1,0,-1,0c0,-1,0,-1,0,-1c0,0,1,0,1,0l1,0l1,0c0,0,1,0,1,0c1,-1,1,-1,1,-1c0,0,1,-1,1,-1l0,-1c1,0,1,0,1,0c0,0,0,-1,0,-1l-1,0c-1,0,-1,0,-1,0c0,-1,-1,-1,-1,-1c0,-1,0,-1,0,-1l0,-1c0,0,1,0,1,0c0,0,0,-1,0,-1c1,-1,1,-1,1,-1c1,0,1,0,1,0c0,0,0,1,1,1l0,1c0,1,0,1,0,1c1,0,1,0,1,0c1,0,1,0,1,0c1,0,1,0,1,0c0,0,1,0,1,0l0,-1c0,-1,0,-1,0,-2c1,0,1,-1,1,-1l1,-1c0,0,1,0,1,0c1,0,1,0,1,0c0,1,1,1,1,2l0,1c-1,1,-1,1,-1,1c0,0,0,1,0,1l1,0l1,0ZM189.5,570.5c0,0,1,0,1,0c0,-1,1,-1,1,-1c1,0,1,0,2,1l0,1c-1,1,-1,1,-1,1c0,0,-1,0,-1,0l-1,0c0,0,-1,0,-1,0l2,0c1,0,1,-1,1,-1c-1,0,-1,0,-1,0c-1,0,-1,0,-1,0c-1,0,-1,0,-1,0l0,-1ZM184.5,580.5l-1,-1l1,-2l1,1ZM185.5,583.5c-1,0,-1,0,-1,0c-1,0,-1,0,-1,1c0,1,1,1,1,1c1,0,1,0,1,0c0,0,1,-1,1,-1c0,0,0,-1,-1,-1ZM183.5,572.5l4,-3l0,1l0,1l-4,2ZM176.5,585.5c-1,0,-1,0,-1,0c0,0,0,1,0,1c0,0,1,0,1,0l1,0c0,0,0,-1,0,-1l-1,0ZM172.5,577.5l1,0l1,0c0,0,1,0,1,0c1,0,1,0,1,0c0,0,0,1,0,1c0,0,-1,0,-1,1c-1,0,-1,0,-1,0c-1,0,-1,1,-1,1l-1,0c0,0,0,-1,0,-1l1,0c1,0,2,-1,2,-1l-1,0c-1,0,-1,0,-2,0l-1,0c1,-1,1,-1,1,-1ZM168.5,580.5l-1,-1l1,-1l2,1ZM162.5,591.5c0,0,1,0,1,0l1,0c1,0,2,0,3,-1l1,-1c0,0,1,-1,1,-1c0,0,0,-1,1,-1c0,0,0,-1,0,-1l-1,0l0,-1l0,-1c0,0,-1,0,-1,0l1,-1l0,-1l1,1c0,0,0,1,0,1l0,1l0,1c0,1,0,1,0,2c0,1,0,1,0,1c0,0,-1,1,-1,1c0,0,0,1,-1,1l-1,1c0,0,-1,0,-1,0l-1,0c0,0,-1,0,-1,0c-1,0,-1,0,-1,-1ZM167.5,572.5c0,0,1,0,1,-1l1,0c0,0,0,1,0,1l0,1c0,0,0,1,0,1l1,0l-1,1l-1,0l0,1c-1,0,-1,0,-1,0l-1,0l0,1l-1,0c0,-1,0,-1,0,-1l1,0c1,-1,1,-1,1,-1l1,-1l-1,0c0,0,0,-1,0,-1c0,0,0,-1,0,-1ZM168.5,572.5c0,0,0,1,0,1l1,0l-1,0ZM222.5,587.5l-1,0l-1,0c0,0,-1,0,-1,0l-1,0c0,0,-1,0,-1,0l-1,1l-1,0l-1,0l-1,0l-1,0c0,0,0,1,0,1c0,0,0,1,-1,1c0,1,0,1,0,1c-1,1,-1,1,-1,1c0,1,-1,1,-1,1l-1,0c-1,0,-1,0,-1,0l-1,0c0,0,-1,0,-1,0c0,0,-1,0,-1,0c0,-1,0,-1,0,-1c0,0,1,0,1,0c1,0,1,0,2,0c0,0,1,0,1,0c0,-1,1,-1,1,-1c0,0,1,-1,1,-1l0,-1c1,0,1,0,1,0c0,0,0,-1,0,-1c0,0,-1,0,-1,0l-1,0c0,-1,-1,-1,-1,-1c0,-1,0,-1,0,-1l0,-1l1,0c0,0,0,-1,0,-1c1,-1,1,-1,1,-1c1,0,1,0,1,0c0,0,0,1,0,1c1,0,1,0,1,1c0,1,0,1,0,1c1,0,1,0,1,0c0,0,1,0,1,0l1,0c1,0,1,0,1,0c0,0,0,-1,0,-1c0,0,0,-1,0,-1l0,-1l1,0c0,-1,0,-1,0,-1c0,0,0,-1,0,-1c0,0,1,-1,1,-1c1,0,1,0,2,1c1,0,1,1,2,1c0,1,0,1,1,2l0,1c0,1,0,1,0,1l0,1c0,0,-1,0,-1,0ZM218.5,583.5c-1,0,-1,0,-1,1l0,1c0,0,1,0,1,0c0,0,1,0,1,0c0,-1,0,-1,0,-1c0,0,0,-1,0,-1c0,0,-1,0,-1,0ZM220.5,583.5l0,1c0,1,0,1,0,1l2,1c0,0,0,-1,0,-1c0,0,-1,0,-1,-1c-1,0,-1,-1,-1,-1ZM215.5,569.5c0,-1,0,-1,1,-1c0,0,0,-1,0,-1c1,1,1,1,1,1l0,1l0,1l0,1l0,1l-1,-1l0,1l-1,0c0,1,0,1,-1,1l-1,0l1,-1l1,0l0,-1l0,-1l0,-1ZM216.5,569.5c0,0,-1,0,-1,0l1,0l0,1l0,-1ZM210.5,585.5c0,0,-1,0,-1,0c0,0,0,1,0,1c0,0,1,0,1,0l1,0c0,0,0,-1,0,-1c0,0,-1,0,-1,0ZM206.5,578.5l5,-2l-1,1l-4,2ZM269.5,577.5l-1,-1l1,-1l1,1ZM273.5,587.5l-1,0c0,1,-1,1,-2,1l-1,0l-1,0c0,0,-1,0,-1,0l0,-1c0,0,0,-1,0,-1l1,0l1,0c0,0,1,0,1,0c1,0,1,0,1,0c0,0,1,0,1,0c0,-1,1,-1,1,-1c0,0,0,-1,0,-1c-1,0,-1,-1,-1,-1l-1,-1l-1,0l0,-1l-1,0l1,-2l0,1l1,0c0,0,1,0,1,1c0,0,1,1,1,1c0,1,0,1,1,2c0,1,0,1,0,1c0,0,0,1,0,1c0,0,-1,0,-1,1ZM267.5,572.5l4,-2c0,1,0,1,0,1l-4,2ZM299.5,572.5c0,-1,0,-1,0,-2c0,-1,0,-1,0,-2c1,0,1,0,1,1l0,1c0,0,0,1,0,1c0,1,0,1,-1,1ZM257.5,588.5c0,0,-1,0,-1,0c-1,-1,-1,-1,-1,-2c0,1,-1,1,-1,1c0,1,-1,1,-2,1c0,0,-1,0,-1,0c0,0,-1,0,-1,0c0,0,-1,0,-2,0c-1,0,-2,0,-3,0c-1,0,-1,0,-2,0c-1,0,-2,0,-4,0c-1,0,-2,0,-3,0c-1,0,-2,0,-2,0c-1,0,-1,0,-1,0c-1,0,-2,0,-2,0c0,-1,0,-1,0,-1c-1,0,-1,0,-1,-1c1,0,1,0,2,0c1,1,1,1,2,1c0,0,1,0,2,0c1,0,2,0,3,0c2,0,3,0,4,0c1,0,2,0,3,0c1,0,2,0,3,-1c0,0,1,0,1,0c0,0,1,0,1,0c0,0,1,0,1,0c1,0,1,0,1,0c0,0,1,0,1,0c0,0,0,-1,0,-1c0,0,1,0,1,0c0,0,0,-1,0,-1l0,-1l-1,0l0,-7l1,-2l1,11c0,0,0,1,0,1c1,0,1,0,1,0c1,0,1,0,1,0c1,0,1,0,1,0c0,0,1,0,1,0c0,0,0,-1,0,-1l0,-2l-1,-6c0,0,0,-1,0,-1c0,0,0,-1,0,-1c1,0,1,-1,1,-1l0,1c1,0,1,1,1,1l0,1l0,1l0,-1c0,0,0,1,0,1c0,0,0,1,0,2l0,2c0,1,0,1,0,1l0,1c0,1,0,1,0,1c0,0,0,1,0,1l-1,0c0,1,0,1,0,1l-1,1l-1,0l-1,0ZM262.5,591.5l-4,2c0,0,0,-1,0,-1l4,-2ZM245.5,584.5l-1,0l-1,0c0,0,-1,0,-1,0l-1,0c0,0,1,0,1,0c1,0,1,0,2,0c0,-1,1,-1,1,-1l-1,0c-1,0,-1,-1,-1,-1c0,-1,0,-1,0,-1c0,-1,0,-1,1,-2l1,0c0,-1,0,-1,1,-1l-1,2c-1,0,-1,0,-1,1l1,0c0,0,1,0,1,1c0,1,0,1,-1,2ZM238.5,578.5l1,0l3,-1l5,-2l5,-1l0,-1l-1,2l-1,0l-1,1l-2,0l-5,2l-4,2ZM307.5,588.5l1,-1l0,-1l-1,-9l1,-2l0,11c0,0,0,1,0,1c0,0,0,1,-1,1ZM303.5,587.5c0,1,0,1,0,1c0,0,-1,0,-1,0c0,0,0,-1,-1,-1c0,0,-1,-1,-1,-2c0,1,0,2,-1,2c0,1,-1,1,-1,1c-1,0,-1,0,-2,-1c0,0,-1,-1,-1,-2c0,1,0,1,0,1l-1,1c0,0,-1,0,-1,0c-1,0,-1,0,-2,0c0,-1,0,-1,0,-1c0,-1,0,-1,0,-1c1,-1,1,-1,1,-1c1,-1,1,-1,2,-1l0,-1l1,0l0,-1l0,-1c0,0,1,0,1,0l0,1l0,1l0,2c0,1,0,1,0,1l1,1l1,0c0,0,1,0,1,0c0,-1,1,-1,1,-1c0,-1,0,-2,0,-3c-1,0,-1,-1,-1,-1c0,-1,0,-1,0,-1l0,-1l0,-1l1,0l0,2l0,2l1,1l0,1c0,0,0,1,0,1c0,0,1,0,1,0l1,1l1,-1c0,-1,0,-1,0,-1l-1,-2l0,-1l0,-1c0,-1,0,-1,0,-1l0,-1c0,0,0,1,0,1c1,1,1,1,1,1l0,2c0,1,0,2,0,2c0,1,0,1,0,2c0,0,0,1,-1,1ZM295.5,583.5c-1,0,-1,0,-1,0c0,1,0,1,-1,1l-1,1c1,0,2,0,2,0c1,0,1,-1,1,-1ZM297.5,574.5l0,1c1,0,1,1,1,1l0,-1c0,0,1,0,1,0l0,-1l0,-1l0,1c1,0,1,0,1,1c0,0,1,-1,1,-1l0,-1c0,1,0,1,0,1l0,1c0,1,0,1,0,1l-1,0l-1,0c-1,1,-1,1,-1,1c-1,0,-1,0,-1,0c0,0,0,-1,0,-1c0,0,0,-1,0,-1l0,-1ZM295.5,591.5l-4,2c0,0,1,-1,1,-1l4,-2ZM369.5,586.5c0,0,1,0,1,0l1,0c1,0,1,-1,1,-1l-1,-2l0,-6c0,0,0,-1,0,-1c0,0,0,-1,0,-1c0,0,0,-1,1,-1l0,1c0,0,0,1,1,1l0,1c-1,0,-1,0,-1,1l0,-1c0,0,0,1,0,1c0,0,0,1,0,2l0,2c0,1,0,1,0,1l0,1c0,1,0,1,0,1c0,0,0,1,0,1c0,1,0,1,0,1l-1,0l0,1c0,0,-1,0,-1,0c0,0,-1,0,-1,0l-1,0c0,0,-1,0,-1,0l-1,0c0,-1,0,-1,0,-1c-1,0,-1,0,-1,0l0,-1c0,0,-1,0,-1,0c-1,0,-2,1,-2,1c-1,0,-2,0,-2,0c-1,0,-2,0,-3,0c-1,0,-2,0,-2,0c-2,1,-3,1,-4,1c0,0,-1,0,-2,0c-1,0,-2,0,-3,0c-1,0,-2,0,-2,0l-1,0c-1,0,-1,0,-1,0c-1,-1,-1,-1,-1,-1c0,-1,0,-1,0,-1l0,-1l-1,-4l0,1l0,1l-1,0c0,1,0,1,0,1l0,1l0,1l0,1c-1,0,-1,1,-1,1l0,-1l-1,0l-1,0l-1,-1l0,1l-1,1l-1,0l-1,0l-1,0l0,-1l-1,0c-1,0,-1,0,-1,0c-1,1,-2,1,-2,1l-2,1c0,0,-1,0,-1,0l-1,0l-1,0l-1,0c-1,0,-2,0,-3,0c-1,-1,-2,-1,-2,-2c-1,0,-1,0,-1,-1c0,-1,0,-1,0,-1c0,-1,0,-1,0,-1c0,-1,0,-1,1,-2l0,1c0,1,-1,1,-1,1c0,1,1,1,1,1c0,1,1,1,1,2c1,0,1,0,1,0c1,0,1,0,1,0c1,0,2,0,3,0c1,0,2,0,2,0c1,0,1,0,2,0l1,0l0,-1c1,0,2,0,2,0c1,-1,2,-1,2,-2c0,1,0,1,0,1l0,1c1,0,1,0,1,0l1,0l1,0l1,0l1,-1c0,0,0,-1,0,-1l1,-1l1,0l1,-1l0,-1c1,0,1,0,1,0c0,-1,0,-1,0,-1l0,-3l1,-2l1,9c0,1,0,1,0,1c0,0,0,1,0,1c0,0,1,0,1,0c1,0,2,0,3,0c0,0,1,0,2,0c1,0,2,0,3,0c0,0,1,0,2,0c1,0,1,0,2,0c1,0,2,0,3,-1c0,0,1,0,2,0c2,0,3,0,3,0c1,0,2,0,3,0c0,-1,0,-1,0,-1c0,-1,0,-1,0,-1c-1,0,-1,0,-1,0c0,0,-1,0,-1,0c-1,0,-3,0,-5,0c-2,0,-3,1,-5,1c-2,0,-4,0,-5,0c-2,0,-3,0,-4,0l0,-1c0,0,0,-1,1,-1c0,-1,0,-1,0,-1c0,0,1,-1,1,-1c1,-1,2,-2,2,-3c2,0,3,-1,3,-1c1,0,1,0,1,0l0,-1l-1,2l-1,1c0,0,-1,1,-2,1c-1,1,-2,2,-3,3l1,0l1,0c0,1,1,1,1,1c1,0,3,-1,5,-1c2,0,4,0,6,0c2,-1,3,-1,4,-1c1,0,2,0,2,1c1,0,1,0,1,0c0,0,0,1,0,1l0,1c0,0,0,1,0,1c0,1,0,1,-1,1c0,0,1,0,1,0l1,0l1,0ZM374.5,591.5l-5,2c1,0,1,-1,1,-1l4,-2ZM346.5,572.5l4,-3l0,1l0,1l-4,2ZM342.5,596.5l-4,2c0,-1,0,-1,1,-1l4,-2ZM337.5,585.5l1,1c0,0,0,-1,0,-1c0,-1,0,-1,-1,-1l0,1c-1,0,-1,0,-1,0c0,0,1,0,1,0ZM324.5,582.5l-1,0l-1,1l-2,-1l1,-2l2,1l1,-1l1,1ZM321.5,591.5l-4,2c0,0,0,-1,0,-1l4,-2ZM286.5,578.5c-1,-1,-1,-1,-1,-1c-1,0,-1,1,-2,1c0,0,-1,1,-1,1l0,-1c0,-1,0,-1,0,-1l0,-1l0,-1c0,0,0,-1,0,-1l0,-1c0,0,-1,0,-1,1c0,0,0,1,0,1l1,2l0,1l0,1l-1,1l-1,0c0,0,-1,0,-1,0l1,1l1,0l1,0c1,0,1,-1,2,-1c0,0,1,0,1,0l1,-1ZM284.5,578.5c1,0,1,0,1,1c0,0,-1,0,-1,0l-1,1l-1,0l0,-1c1,0,1,0,1,-1l1,0ZM120.5,575.5c1,0,1,0,1,0c1,0,1,0,2,0c0,0,1,0,1,0c0,0,1,0,1,1l-1,0l0,1c0,0,-1,0,-1,0c0,0,0,1,-1,1l-1,0l1,-1c1,0,1,0,2,-1c-1,0,-1,0,-1,0c0,0,-1,0,-1,0c0,0,-1,0,-1,0c0,0,-1,0,-1,0c0,0,0,-1,0,-1ZM92.5,565.5c0,1,0,3,-1,4c0,1,0,1,0,1l-1,0l0,1l-1,0l-1,0l1,0l0,-1c1,0,1,0,1,0c1,0,1,-1,1,-1c0,0,-1,0,-1,0c0,-1,0,-1,0,-1l-1,-1c0,0,-1,0,-1,0l0,-1l0,-1c0,1,1,1,1,1c1,1,1,1,1,1c0,0,0,1,1,1l0,1l0,-1l1,0c0,0,0,-1,0,-1l0,-1ZM335.5,580.5c0,-1,0,-2,0,-2c-1,-1,-1,-1,-1,-2l1,-1c0,0,0,1,0,1c0,1,0,1,0,1l0,1c0,1,0,1,0,1c0,1,0,1,0,1ZM81.5,533.5l-1,-1l-1,1l-2,0l1,-2l2,1l1,-1l1,1ZM79.5,542.5l-1,0l-1,0c0,0,0,-1,-1,-1l-1,0c0,-1,0,-1,0,-1l-1,0c0,0,0,1,0,1c-1,0,-1,0,-1,0c-1,0,-1,0,-1,0l0,1l-1,0l-1,0l-1,-1l-1,0l0,-1l0,-1l-1,1l-1,1l-1,0c0,0,-1,0,-1,0l-1,0c0,0,-1,0,-1,0l-1,0c0,0,0,-1,0,-1l0,-1l0,-1l1,0c0,0,0,1,0,1l1,0l1,0l1,0l1,0c0,0,1,0,1,0l0,-1l0,-1l0,-2l0,-1l0,-1l0,-1l1,2l0,1l0,3c1,0,1,0,1,1l0,1c0,0,1,0,1,0l1,0l1,0l1,0l1,-1l1,0c1,0,1,0,1,0l0,1c0,0,1,0,1,0l1,0l1,0c0,0,1,0,1,0c1,0,1,-1,2,-1c0,-1,0,-1,-1,-1l0,-1l1,-2c0,0,0,1,0,1l0,1l0,1l0,1c0,1,0,1,0,1c-1,1,-1,1,-2,1c0,0,-1,1,-1,1ZM79.5,525.5l4,-2l0,1l-4,2ZM75.5,545.5l-2,-1l1,-1l2,1ZM72.5,531.5c0,0,0,-1,1,-1c0,0,1,0,1,0c1,0,1,0,1,0c1,0,1,1,1,1c0,1,0,1,-1,1c0,0,0,1,0,1l-1,0c0,0,-1,0,-1,0l-1,0l2,0c0,-1,1,-1,1,-1c0,0,0,-1,-1,-1c-1,0,-1,0,-2,1c0,-1,0,-1,0,-1ZM64.5,545.5l-4,2c1,-1,1,-1,1,-1l4,-2ZM58.5,545.5l-2,-1l0,1l-2,-1l1,-1l1,1l1,-2l2,1ZM55.5,542.5l-1,0l-1,0c0,0,-1,-1,-1,-1c0,0,0,-1,-1,-1l1,1l-1,1c0,1,0,1,0,2c0,0,-1,1,-1,1c0,0,-1,1,-1,1l-1,0c0,0,-1,0,-1,1c-1,0,-1,0,-2,0l-1,0l0,-1c-1,0,-1,0,-2,0c0,-1,0,-1,0,-1c-1,-1,-1,-1,-1,-1c0,-1,0,-2,1,-2c0,-1,0,-1,0,-2l1,0l0,-1l0,1c0,1,0,1,-1,1c0,1,0,1,0,1c0,1,0,1,1,2c0,0,1,1,2,1l1,0c1,0,2,0,3,-1c0,0,1,-1,1,-1c0,0,1,0,1,-1l0,-3c0,0,0,-1,-1,-2l0,-1l0,-6l1,-2l1,10c0,0,0,1,0,1c0,0,0,1,1,1l1,0l1,0c0,0,1,0,1,0c1,0,1,-1,1,-1c0,0,1,0,1,0c0,-1,-1,-1,-1,-1c0,0,0,-1,0,-1l1,-2c0,0,0,1,0,1c0,1,0,1,0,1c0,0,0,1,0,1c0,0,0,1,0,1c0,1,0,1,0,1c-1,1,-1,1,-2,1c0,0,-1,1,-1,1ZM48.5,525.5l6,-2c-1,0,-1,1,-1,1l-6,3ZM99.5,540.5c0,1,0,1,0,1c0,0,-1,0,-1,0c1,0,1,0,1,0l1,0c0,0,0,-1,0,-1ZM101.5,543.5c-1,0,-1,0,-2,0l-1,0c0,0,-1,0,-1,0c-1,0,-1,0,-1,0l-1,0c0,0,0,-1,0,-1c0,0,0,-1,0,-1c0,0,1,0,1,0l1,0c1,0,1,-1,1,-1c1,-1,1,-1,1,-1c0,0,0,-1,-1,-1l0,-1c-1,0,-1,-1,-2,-1c0,-1,0,-1,-1,-2c0,0,-1,0,-1,0c0,-1,0,-1,-1,-1c0,0,-1,0,-1,0c0,0,0,-1,-1,-1c0,0,0,-1,0,-1c0,-1,0,-1,0,-1l0,-1c1,0,1,0,1,0c0,1,1,1,1,1c1,1,1,1,2,2c0,0,1,1,2,2c0,0,1,1,1,2c1,0,1,1,1,1c0,0,0,1,1,1c0,0,0,-1,0,-1c0,-1,0,-2,0,-2c0,-1,0,-2,0,-2c0,0,0,-1,0,-1c0,-1,0,-1,0,-2l0,-1l0,-1c0,0,1,0,1,0c0,0,0,1,0,1c1,0,1,0,1,0c0,1,0,1,0,1c0,1,0,1,0,1l-1,0l0,1c0,0,0,1,0,1c0,1,0,1,0,1c0,1,0,1,0,2c0,0,0,1,0,1c-1,1,-1,1,-1,2c0,0,0,1,0,1c0,0,1,0,1,0c0,1,0,1,0,1c0,1,0,1,0,1l0,1ZM97.5,525.5l5,-2c0,0,0,1,0,1l-6,3ZM164.5,542.5l0,-2l0,-1l0,-8l1,-3l0,11c0,0,0,1,0,1c0,1,-1,1,-1,2ZM138.5,533.5l-1,-1l1,-1l1,1ZM147.5,539.5l-1,0l-1,0c-1,0,-1,0,-2,0l-1,0l-1,0l-1,1l-1,0l-1,1l-1,0c0,0,-1,0,-2,0l0,1l-1,0l0,-1l0,1l0,1c-1,0,-1,1,-1,2l-1,0c0,1,0,1,0,1c-1,0,-1,1,-1,1c-1,0,-1,0,-1,0c-1,0,-1,0,-1,0l-1,0c0,0,-1,0,-1,0c-1,0,-1,0,-1,-1l1,0c1,0,1,0,2,0c0,0,1,0,1,-1c0,0,1,0,1,0c0,0,0,-1,1,-1c0,0,0,-1,0,-1c0,0,1,-1,1,-1c0,-1,0,-1,0,-1c0,0,-1,0,-1,0c0,-1,0,-1,0,-1l0,-1c0,0,1,0,1,0l0,-1l0,1l1,1l1,0c0,0,1,0,1,0c0,0,1,0,1,-1c1,0,1,0,2,0l1,0l1,-1l-1,0l-1,-1l-1,0l-1,0l-1,0c0,0,0,-1,0,-1c0,0,1,0,1,-1c0,0,1,0,1,0c1,0,1,0,1,0l0,1l1,0l2,1l1,0l1,0l1,0c0,0,1,0,1,0l1,0ZM144.5,545.5l-4,2c0,-1,0,-1,0,-1l4,-2ZM129.5,528.5l4,-2l0,1l-4,2ZM125.5,533.5l-1,0l-1,1l-1,-1l1,-2l1,1l1,-1l1,1ZM124.5,542.5c0,0,-1,0,-1,-1c-1,0,-1,-1,-1,-2l0,-1l0,-1l1,0l0,-2c1,0,1,0,1,0c1,0,1,0,2,0c0,1,1,1,1,2l0,1c0,2,-1,3,-2,3c0,1,0,1,-1,1ZM124.5,537.5c0,0,-1,0,-1,0c0,0,0,1,0,1l0,1c0,0,0,1,0,1l1,0l1,0l0,-1c1,0,1,0,1,0c0,0,0,-1,-1,-1c0,-1,0,-1,-1,-1ZM126.5,549.5l-4,2c0,0,0,-1,0,-1l4,-2ZM200.5,538.5c0,0,-1,0,-1,0c0,0,0,1,1,1c0,-1,0,-1,0,-1ZM200.5,545.5c0,0,-1,1,-1,1l-1,0c0,0,-1,0,-1,0l-1,0c0,0,-1,0,-1,0c0,0,-1,0,-1,-1c0,0,1,0,1,0c1,0,1,0,1,0c1,0,1,0,1,0c1,0,1,0,1,0c1,-1,1,-1,1,-1c1,-1,1,-1,1,-1c0,0,0,-1,1,-1c0,-1,0,-1,0,-2l-1,0c0,1,0,1,0,1c-1,0,-1,0,-1,0l0,-1l-1,0c0,0,0,-1,0,-1c0,0,0,-1,0,-1c0,-1,1,-1,1,-1c0,-1,0,-1,0,-1c1,0,1,-1,1,-1c0,0,1,1,1,1l0,1c1,0,1,0,1,0c0,1,0,1,0,1c0,1,0,1,0,2c0,0,0,1,0,1c0,1,0,1,-1,2c0,1,0,1,0,1c-1,1,-1,1,-1,1ZM197.5,532.5l4,-2c0,1,0,1,0,1l-4,2ZM191.5,532.5l-1,-1l1,-1l1,1ZM193.5,538.5l0,1l-1,0l-1,0c-1,0,-1,0,-1,0c0,0,0,-1,0,-1l0,-1c0,0,0,-1,0,-1c0,-1,0,-1,1,-1c0,-1,0,-1,1,-1c0,0,1,0,1,0c0,1,0,1,1,2l0,1c0,1,0,1,0,1c0,0,0,1,0,1c0,1,0,1,0,1c0,1,-1,1,-1,2c0,0,1,0,1,0c1,0,1,0,1,0c0,0,0,1,0,1c0,1,0,1,0,1c0,0,-1,1,-1,1l-1,0c0,1,-1,1,-2,1c-1,1,-1,1,-2,1c-1,0,-1,0,-1,0c-1,1,-1,1,-2,1c-1,0,-1,0,-2,0l-1,0l-1,0c0,0,-1,0,-1,0c-1,0,-2,0,-3,0c-1,0,-1,0,-2,-1c-1,0,-2,0,-2,0c-1,0,-2,0,-2,-1c-1,0,-2,0,-2,0c-1,-1,-1,-1,-2,-1c0,0,0,-1,-1,-1c0,-1,0,-1,0,-1c1,0,1,0,1,0c0,0,1,1,1,1c1,0,1,0,2,1c1,0,1,0,1,0c0,0,1,0,2,0c1,1,1,1,2,1c1,0,2,0,2,0c1,0,2,0,3,0c0,0,1,0,1,0c0,0,1,0,1,0c1,0,1,0,2,0c0,0,1,0,1,0c1,0,2,0,2,0c1,0,1,-1,2,-1c1,0,2,0,2,0c0,0,0,-1,1,-1c0,0,1,0,1,0c-1,-1,-1,-1,-2,-1c0,0,-1,0,-1,0c0,0,0,-1,0,-1c0,0,0,-1,0,-1c1,0,1,0,1,0c1,-1,1,-1,1,-1l1,0c0,-1,0,-1,-1,-1c0,-1,0,-1,0,-1ZM191.5,536.5l0,1l1,0c0,0,0,-1,0,-1l-1,0ZM195.5,548.5l-4,2c0,-1,0,-1,0,-2l4,-1ZM247.5,542.5l0,-2l0,-1l0,-8l1,-3l0,11c0,0,0,1,0,1c0,1,0,1,-1,2ZM240.5,540.5l1,0c1,0,1,-1,1,-1l0,-1l0,-1l0,-7l0,-1l0,-1c0,1,1,1,1,1l1,0c0,1,-1,1,-1,1c0,1,0,1,0,1c0,1,0,1,0,2c0,0,0,1,0,3c0,0,0,1,0,1l0,1c0,0,0,1,0,1c0,0,0,1,0,1l-1,0c0,1,0,1,0,1c-1,0,-1,0,-1,0c-1,0,-1,0,-1,1l-1,0l-1,0l-1,-1l-1,0l0,-1l0,-1l-1,1l-1,1l-1,0c0,0,-1,0,-1,0l-1,0c0,0,-1,0,-1,0c-1,0,-1,-1,-1,-1l0,-1l0,-1l1,0c0,0,0,1,0,1l1,0l1,0l1,0l1,0c0,0,1,0,1,0l0,-1l0,-1l0,-2l0,-1l0,-1l0,-1l1,2l0,1l0,3c1,0,1,0,1,1l0,1c0,0,1,0,1,0l1,0l1,0ZM232.5,528.5l0,1c0,0,1,0,1,0l0,-1l0,-1l0,1l1,0l1,-1l0,1l0,1l-1,0l-1,0l0,1c0,0,-1,0,-1,0c-1,0,-1,-1,-1,-1l0,-1l1,0ZM233.5,523.5c0,-1,0,-1,1,-1c0,0,0,-1,1,-1l0,1c0,1,0,1,0,1l0,1l0,2l-1,-1l-1,1c0,0,0,1,-1,1l-1,0c1,-1,2,-1,3,-2l-1,0l0,-1l0,-1ZM234.5,523.5l0,1l0,-1ZM223.5,535.5l-1,-1l1,-2l1,1ZM223.5,542.5l-1,0l-1,0c-1,0,-1,-1,-1,-1l-1,0c0,-1,0,-1,0,-1l-1,0c0,0,0,1,-1,1l-1,0l0,1l-1,0l-1,0c-1,0,-2,-1,-2,-1c-1,-1,-1,-1,-1,-2l0,-9l0,-2l1,10l0,1c1,1,1,1,2,1l1,0c1,0,1,0,1,0c1,0,1,0,2,-1l1,0c0,0,1,0,1,1l1,0l1,0l1,0c0,0,1,0,1,0c1,0,1,-1,1,-1c0,-1,0,-1,0,-1c0,0,0,-1,-1,-1l1,-2c0,0,0,1,0,1c1,0,1,0,1,0c0,1,0,1,0,1c0,0,0,1,0,1c0,0,0,1,0,1c0,1,0,1,0,1c0,0,-1,0,-1,0c0,1,0,1,-1,1c0,0,-1,1,-1,1ZM156.5,520.5l1,0l1,0c0,0,1,0,1,0c1,0,1,0,1,1c0,0,-1,0,-1,1c0,0,-1,0,-1,0c0,1,0,1,0,1c-1,0,-1,0,-1,0l-1,0l2,-1c0,0,1,0,1,-1l-1,0c-1,0,-1,0,-2,0l-1,0c1,0,1,-1,1,-1ZM222.5,527.5l1,0c0,0,1,0,1,0c1,0,1,0,1,0c1,0,1,0,1,0c0,0,0,1,0,1l-1,1l-1,0c0,0,-1,1,-1,1l-1,0c0,0,0,-1,0,-1l2,0c0,0,1,-1,1,-1l-1,0c-1,0,-1,0,-2,0c0,-1,0,-1,0,-1ZM219.5,545.5l-1,-1l-1,1l-1,-1l1,-1l1,1l1,-2l1,1ZM216.5,532.5l4,-2c0,1,0,1,0,1l-4,2ZM300.5,542.5l0,-2l0,-1l-1,-8l1,-3l1,11c0,0,0,1,-1,1c0,1,0,1,0,2ZM292.5,540.5c0,0,1,0,1,0l1,0c0,0,0,-1,0,-1c0,0,1,0,1,-1l-1,-1l0,-7l0,-1l0,-1l1,0c0,1,0,1,0,1l1,0c0,1,0,1,-1,1c0,1,0,1,0,1c0,1,0,1,0,2c0,0,0,1,0,3c0,0,0,1,0,1l0,1c0,0,0,1,0,1c0,0,0,1,0,1c0,1,-1,1,-1,1c0,0,-1,0,-1,0c0,0,-1,0,-1,1l-2,0c-1,0,-2,-1,-3,-1c0,0,0,-1,0,-1c0,0,0,-1,0,-1l-1,0c-1,0,-1,0,-1,0l-5,2l-1,0l-1,0l0,1l-1,0l-1,0c0,0,0,-1,0,-1c-1,0,-1,0,-1,0c0,0,-1,0,-1,0c0,-1,0,-1,0,-1c0,0,-1,0,-1,0c0,0,0,1,0,1c0,0,-1,0,-1,0c0,0,-1,0,-1,0l0,1l-2,0l0,1l0,1c-1,0,-1,1,-1,1c0,0,-1,1,-1,1c0,0,-1,0,-1,0c0,1,0,1,-1,1c-1,0,-1,0,-1,0c-1,0,-1,0,-2,-1c0,0,-1,0,-1,0c0,0,1,0,1,0l1,0c0,0,1,0,1,0c0,0,1,-1,1,-1c1,0,1,0,1,0c0,-1,1,-1,1,-1c0,0,0,-1,1,-1c0,0,0,-1,0,-1c-1,0,-1,0,-1,-1c-1,0,-1,0,-1,0l-1,-1l0,-1c1,0,1,0,1,-1l0,-1l1,0c1,0,1,0,1,0l1,1c0,0,0,1,0,1c0,0,0,1,0,1c1,0,1,0,1,0c1,0,1,0,1,0c0,0,1,0,1,0c0,0,1,0,1,-1c0,0,1,0,1,0c0,0,1,0,1,0l0,1c1,0,1,0,1,0l1,0l1,0c0,0,1,0,1,0l1,0c0,-1,1,-1,2,-1l1,0l0,-1l1,0l-1,0l-1,0c-1,-1,-2,-1,-2,-1c-1,0,-1,0,-1,0l-1,0l0,-1c1,0,1,0,1,0c0,-1,1,-1,1,-1l1,0c1,0,1,1,2,1c1,0,2,1,3,1c1,0,1,0,2,0c0,0,1,0,1,0l1,0l-1,2l-2,0c0,0,1,0,1,1c1,0,1,0,1,0l1,0l1,0l1,0ZM292.5,524.5c0,-1,1,-1,1,-1c0,0,1,0,1,0c1,0,1,0,2,0c0,0,0,1,0,1c0,0,0,1,0,1c-1,0,-1,0,-1,1c0,0,-1,0,-1,0l-1,0c0,0,-1,0,-1,0l2,-1c1,0,1,0,1,-1c-1,0,-1,0,-1,0c-1,0,-1,0,-1,0c-1,0,-1,1,-1,1l0,-1ZM280.5,528.5l5,-2l-1,1l-4,2ZM275.5,545.5l-1,-1l-1,1l-2,-1l1,-1l2,1l0,-2l2,1ZM267.5,539.5c0,0,-1,0,-1,0c1,1,1,1,1,1l1,0c0,0,0,-1,0,-1c-1,0,-1,0,-1,0ZM150.5,523.5c0,1,-1,2,-1,2l0,-1c0,-1,0,-1,0,-2l-1,-1c0,0,1,-1,1,-1l0,1l0,1l1,0ZM273.5,531.5c0,1,0,2,0,2l0,-1c0,-1,0,-1,0,-2l-1,0l0,-1c0,0,0,-1,0,-1l1,0l0,1l0,1ZM260.5,533.5l-1,0l-1,1l-1,-1l0,-2l2,1l1,-1l1,1ZM259.5,542.5c-1,0,-1,0,-2,-1c0,0,0,-1,0,-2l0,-1l0,-1l1,-2c1,0,1,0,1,0c1,0,1,0,2,0c0,1,0,1,1,2l0,1c0,2,-1,3,-2,3c0,1,-1,1,-1,1ZM259.5,537.5c-1,0,-1,0,-1,0c0,0,0,1,0,1c0,0,-1,0,-1,1c0,0,1,0,1,0c0,0,0,1,0,1l1,0l1,0l0,-1c1,0,1,0,1,0c0,0,0,-1,-1,-1c0,-1,-1,-1,-1,-1ZM261.5,549.5l-4,2c0,0,0,-1,0,-1l4,-2ZM317.5,532.5l-1,-1l1,-1l1,1ZM319.5,538.5l0,1l-1,0l-1,0l-1,0c0,0,0,-1,0,-1l0,-1c0,0,0,-1,0,-1c0,-1,0,-1,0,-1c1,-1,1,-1,2,-1l1,0c0,1,0,1,1,2l0,1c0,1,0,1,0,1c0,0,0,1,0,1c0,1,0,1,0,1c-1,1,-1,1,-1,2l1,0c0,0,1,0,1,0c0,0,0,1,0,1c0,1,0,1,0,1c-1,0,-1,0,-1,1c0,0,-1,1,-1,1c-1,0,-2,1,-3,1c0,0,-1,0,-2,0c-1,0,-1,0,-1,0c0,0,-1,0,-1,0c-1,0,-2,0,-2,-1c0,0,-1,0,-1,-1c0,0,0,-1,0,-1c0,-1,0,-1,0,-1c0,0,0,-1,0,-1c1,-1,1,-2,1,-2l0,-1c1,1,1,1,1,1c0,0,-1,1,-1,1c0,1,0,1,0,2c0,1,0,1,1,2c1,0,2,1,3,1c1,0,1,0,1,-1c1,0,1,0,1,0c1,0,2,0,3,-1l1,0c-1,-1,-1,-1,-2,-1c-1,0,-1,0,-1,0c-1,0,-1,-1,-1,-1l1,-1c0,0,1,0,1,0c1,-1,1,-1,1,-1c0,-1,0,-1,0,-1c0,-1,0,-1,0,-1ZM317.5,536.5l0,1l1,0c0,0,0,-1,0,-1l-1,0ZM320.5,548.5l-3,2c0,-1,0,-1,0,-2l4,-1ZM377.5,542.5l0,-2l0,-1l0,-8l1,-3l0,11c0,0,0,1,0,1c0,1,0,1,-1,2ZM370.5,540.5l1,0l1,0c0,0,0,-1,0,-1l0,-1l0,-1l0,-7l0,-1l0,-1l1,0c0,1,0,1,0,1l1,0c0,1,0,1,-1,1c0,1,0,1,0,1c0,1,0,1,0,2c0,0,0,1,0,3c0,0,0,1,0,1l0,1c0,0,0,1,0,1c0,0,0,1,0,1c-1,1,-1,1,-1,1c0,0,-1,0,-1,0l-1,0l0,1l-1,0c0,0,0,-1,-1,-1l-1,0l0,-1c0,0,-1,1,-1,1c0,0,-1,0,-1,0l-1,1l-1,0l0,-1l-1,0c0,0,0,-1,0,-1l-1,-1l0,1l0,1c-1,0,-1,0,-2,0c0,0,-1,0,-1,-1l-1,1c0,0,-1,0,-1,1c-1,0,-2,-1,-2,-2l-1,1l-1,0l0,1l-1,0c0,-1,0,-1,0,-1l-1,0l0,1l0,1c0,0,0,1,0,2c-1,0,-1,0,-1,0c0,1,0,1,-1,1c0,0,0,1,-1,1l-1,0l-1,0c0,0,-1,0,-2,0l-1,-1c0,0,1,0,1,0l1,0c0,0,1,0,1,0c1,0,1,0,2,-1c1,0,1,-1,1,-1c0,0,1,-1,1,-1c0,0,0,-1,0,-1c1,-1,1,-1,1,-1l-1,0c0,-1,0,-1,0,-1l0,-1l0,-1l0,1c0,0,1,0,1,0l0,1l1,0l1,0l1,0c0,-1,1,-1,1,-2l1,0l0,1c0,0,0,1,1,1c0,0,1,0,1,-1c0,0,1,0,1,-1l1,0c0,0,0,1,0,1l1,0l1,0c0,-1,0,-1,0,-1l1,0c0,1,1,2,1,2l1,0c1,0,1,0,1,0c1,0,1,-1,1,-1c1,0,1,-1,1,-1c0,1,0,1,0,1c0,0,1,0,1,1c0,0,1,0,1,0l1,0ZM370.5,524.5c0,-1,0,-1,1,-1c0,0,1,0,1,0c1,0,1,0,2,0c0,0,0,1,0,1c0,0,0,1,0,1c-1,0,-1,0,-1,1c-1,0,-1,0,-1,0c0,0,-1,0,-1,0c0,0,-1,0,-1,0l2,-1c0,0,1,0,1,-1c-1,0,-1,0,-1,0c-1,0,-1,0,-2,0c0,0,0,1,0,1l0,-1ZM366.5,545.5l-1,0l1,-2l1,1ZM365.5,526.5c0,-1,1,-1,1,-1c0,0,0,-1,1,-1c0,0,0,1,0,1c0,0,1,0,1,1c0,0,-1,0,-1,0l0,1l0,1l1,0l0,1l-2,-1l0,1c-1,0,-1,1,-1,1l-1,0l-1,0l1,0l0,-1c1,0,1,0,1,0l0,-1l1,0l-1,-1l0,-1ZM366.5,526.5l0,1l1,0l0,-1l-1,0ZM357.5,533.5l-2,0l1,-2l2,1ZM358.5,536.5l-1,-1l-1,1l-1,-1l1,-1l1,1l1,-2l1,1ZM355.5,526.5c0,0,1,0,1,0c0,0,1,0,1,0c1,0,1,0,2,0c0,1,0,1,0,1l0,1c-1,0,-1,0,-1,0c-1,0,-1,0,-1,1c0,0,-1,0,-1,0c0,0,-1,0,-1,0l2,-1c0,0,1,0,1,-1c-1,0,-1,0,-1,0c-1,0,-1,0,-1,0c-1,0,-1,0,-1,0c0,0,0,-1,0,-1ZM343.5,535.5l-1,0l-1,0c0,0,-1,0,-1,0c0,0,-1,0,-1,1c-1,1,-1,1,-1,2l1,1l2,0c0,0,1,0,1,0c0,1,0,1,0,1c0,1,0,1,0,1c0,0,0,1,0,1c0,0,-1,0,-1,1c-1,0,-1,1,-2,1c-1,0,-2,0,-2,1c-1,0,-2,0,-2,0l-1,0c-1,0,-2,0,-2,0c-1,0,-1,-1,-2,-1c0,0,0,-1,0,-1c-1,-1,-1,-1,-1,-2c0,-1,0,-1,1,-2c0,-1,0,-1,0,-2c0,0,1,0,1,-1l1,0l-1,1l0,1l-1,0c0,1,0,1,0,1c0,0,0,1,0,1c0,1,0,1,0,1c0,0,1,1,1,1c1,1,2,1,3,1c1,0,3,0,4,0l1,-1l1,0c1,-1,1,-1,1,-1l-1,0c-1,-1,-2,-1,-3,-1c0,0,-1,-1,-1,-1c0,-1,0,-1,0,-1c0,0,1,0,1,0c0,0,0,-1,0,-1c0,-1,0,-1,1,-1c0,-1,0,-1,0,-1c1,0,1,-1,1,-1c1,0,1,-1,2,-1c0,0,1,0,1,0c0,0,1,0,1,0c0,0,0,1,0,1l0,1ZM349.5,531.5c0,1,0,2,0,2l0,-1c0,-1,0,-1,-1,-2l0,-1c0,0,0,-1,0,-1l1,0l0,1l0,1ZM408.5,540.5l1,0c1,0,1,-1,1,-1l0,-1l0,-1l0,-7l0,-1l0,-1c0,1,1,1,1,1l1,0c0,1,-1,1,-1,1c0,1,0,1,0,1c0,1,0,1,0,2c0,0,0,1,0,3c0,0,0,1,0,1l0,1c0,0,0,1,0,1c0,0,0,1,0,1l-1,0c0,1,0,1,0,1c-1,0,-1,0,-1,0c0,0,-1,0,-1,0l0,1l-1,0c0,0,-1,0,-1,0l-1,0l1,1l0,1c0,0,-1,1,-1,2c0,0,-1,1,-2,1c0,0,0,-1,0,-1c-1,0,-1,-1,-1,-1c-1,-1,-1,-2,-1,-3l-1,0l-1,0l-1,0c-1,0,-1,-1,-2,-1c0,0,-1,1,-1,1c-1,0,-1,0,-2,0c0,-1,-1,-1,-1,-1l-1,1c0,1,0,1,-1,1c0,1,-1,1,-2,1c-1,0,-2,0,-4,0l5,-2l1,0c0,-1,1,-1,1,-1l1,-2c0,-1,1,-1,1,-1c0,0,0,-1,1,-1c1,0,1,1,1,1c1,1,1,1,2,1c0,1,0,1,0,1c1,0,1,0,1,0l1,0l1,0l1,0c0,-1,1,-1,1,-2l0,-1l1,0c0,-2,1,-2,2,-2l0,1l0,1c0,1,0,1,0,1c0,1,-1,2,-2,2l1,0l1,0l1,0l1,0l1,0ZM409.5,525.5l4,-2l-1,1l-4,2ZM404.5,536.5c0,0,0,1,0,1c-1,0,-1,0,-1,0l-1,1l0,1c1,0,1,0,2,-1c0,0,1,0,1,-1l-1,0l0,-1ZM402.5,542.5l0,1c0,0,0,1,1,1l0,1c0,0,1,0,1,0c0,0,1,0,1,-1c0,0,0,-1,-1,-1c-1,-1,-1,-1,-2,-1ZM403.5,526.5c1,-1,1,-1,1,-1c0,0,1,-1,1,-1c0,0,0,1,0,1c0,0,1,0,1,1l-1,0l0,1l0,1l1,0l0,1l-1,-1l-1,1c-1,0,-1,1,-1,1l-1,0l-1,0l1,0l1,-1l0,-1l1,0l-1,-1l0,-1ZM405.5,526.5l-1,0l0,1l1,0l0,-1ZM395.5,540.5l-1,0l0,-1c0,0,-1,0,-1,0c0,0,0,1,1,1ZM391.5,529.5c1,0,1,-1,1,-1c0,0,1,0,1,0c1,0,1,1,1,1l0,1l-1,0l0,1l1,0l0,1l-1,0l-1,0l0,1c-1,0,-1,0,-1,0l-1,0l-1,0l1,0l1,-1l1,-1c-1,0,-1,-1,-1,-1c0,0,0,-1,0,-1ZM393.5,529.5l-1,0l0,1l1,0l0,-1ZM114.5,536.5l0,-1c0,0,-1,0,-1,0c0,0,-1,0,-2,1l0,1l-1,0l1,-1l0,-1l-1,0l0,-1l0,-1l0,-1l1,0l-1,-1l-1,1c1,0,1,0,1,1l0,2l0,1c0,1,0,1,0,1c0,0,-1,0,-1,1l-1,0c0,1,1,1,1,1l1,0c1,-1,2,-1,2,-1c1,0,1,0,2,-1l0,-1ZM112.5,536.5c1,0,2,0,2,1c-1,0,-1,0,-2,0l-1,0l0,1c-1,0,-1,0,-1,-1l1,0l1,-1ZM56.5,529.5c0,0,1,-1,1,-1c0,0,1,0,1,0c1,0,1,0,2,0c0,1,0,1,0,1c0,1,0,1,0,1c-1,0,-1,1,-1,1c-1,0,-1,0,-1,0c0,0,-1,0,-1,0c0,0,-1,0,-1,0l2,0c0,-1,1,-1,1,-1c0,0,0,-1,0,-1c-1,0,-1,0,-1,0c-1,0,-1,0,-1,1c-1,0,-1,0,-1,0c0,-1,0,-1,0,-1ZM157.5,539.5l0,1c-1,0,-1,0,-1,0c1,0,1,0,1,0l0,-1Z" class="g2_66" />
</svg>