<?xml version="1.0" encoding="UTF-8" standalone="no"?>
<!DOCTYPE svg PUBLIC "-//W3C//DTD SVG 1.1//EN"
"http://www.w3.org/Graphics/SVG/1.1/DTD/svg11.dtd">
<svg version="1.1" xmlns="http://www.w3.org/2000/svg" xmlns:xlink="http://www.w3.org/1999/xlink">
<defs>
<style type="text/css"><![CDATA[
.g1_63{
stroke: #1F1A17;
stroke-width: 1;
stroke-linecap: butt;
stroke-linejoin: miter;
}
]]></style>
</defs>
<path fill-rule="evenodd" d="M275.5,131.5c0,-1,0,-1,0,-2c-1,-1,-1,-1,-1,-2l1,0l0,1l0,1c0,0,0,1,0,1c0,1,0,1,0,1ZM110.5,328.5c0,0,0,-1,0,-1c-1,0,-1,0,-1,0c-1,0,-1,0,-2,1l-1,0l0,-1l0,-1l0,-1c0,-1,0,-1,0,-1l1,0l-1,-1l-1,0c0,1,1,1,1,2l0,2l0,1c0,1,0,1,0,1c-1,0,-1,0,-1,0l-1,0l-1,0c0,1,0,1,0,1l1,0l1,0l1,0c1,0,2,0,2,0c1,0,1,0,1,-1l1,0c0,-1,0,-1,0,-1ZM108.5,328.5c1,0,1,0,1,0c0,1,0,1,-1,1l-1,0l-1,0l1,0c0,-1,0,-1,0,-1l1,0ZM373.5,322.5l1,0c0,0,1,0,1,0c1,0,1,0,1,0c1,0,1,0,1,1c0,0,0,1,-1,1c0,0,-1,0,-1,1c0,0,-1,0,-1,0l-1,0l2,-1c0,0,1,0,1,-1l-1,0c-1,0,-1,0,-2,0c0,0,0,-1,0,-1ZM307.5,322.5c0,0,1,0,1,-1c0,0,1,0,1,0c1,0,1,0,2,1c0,1,0,1,0,1c-1,1,-1,1,-1,1c-1,0,-1,0,-1,0c0,0,-1,0,-1,0c0,0,-1,0,-1,0l2,0c1,-1,1,-1,1,-1c-1,0,-1,0,-1,0c-1,0,-1,0,-1,0c-1,0,-1,0,-1,0c0,0,0,-1,0,-1ZM219.5,322.5c0,0,1,0,1,0c0,0,1,0,1,0c1,0,1,0,2,0l0,1c0,0,0,1,0,1c-1,0,-1,0,-1,0l0,1c0,0,-1,0,-1,0l-1,0c0,0,-1,0,-1,0l2,-1c1,0,1,0,1,-1c-1,0,-1,0,-1,0c-1,0,-1,0,-1,0c-1,0,-1,0,-1,0c0,0,0,-1,0,-1ZM158.5,321.5c0,0,1,0,1,0c1,0,1,-1,1,-1c1,0,1,1,2,1l0,1l0,1c0,0,-1,0,-1,0c0,0,-1,0,-1,0l-1,0l-1,0l2,0c1,0,1,-1,2,-1c-1,0,-1,0,-1,0c0,0,-1,0,-1,0c0,0,-1,0,-1,0c0,0,-1,0,-1,0l0,-1ZM65.5,322.5c0,0,1,0,1,0c1,0,1,0,2,0c0,0,1,0,1,0c0,0,1,0,1,1c0,0,-1,0,-1,0c0,0,0,1,0,1c0,0,-1,0,-1,0l0,1l-1,0l-1,0l-1,0l2,-1c1,0,1,0,2,-1c-1,0,-1,0,-1,0c0,0,-1,0,-1,0c0,0,-1,0,-1,0c0,0,-1,0,-1,0c0,0,0,-1,0,-1ZM201.5,323.5c0,2,0,3,-1,5c0,0,-1,1,-1,1c0,0,-1,0,-1,0l-1,0l1,0c0,0,1,-1,1,-1c0,0,1,0,1,0c0,0,0,-1,-1,-1c0,-1,0,-1,0,-1c-1,0,-1,0,-1,0c0,0,0,-1,0,-1c0,0,-1,0,-1,0l0,-1l1,0c0,0,0,1,0,1c0,0,1,0,1,1c0,0,1,1,1,1c0,-1,0,-1,0,-1l0,-1l0,-1ZM58.5,323.5l-1,0l1,-2l1,1ZM62.5,333.5l-1,1c0,0,-1,0,-2,0l-1,0l-1,0c-1,0,-1,0,-1,0l0,-1l0,-1c1,0,1,0,1,0l1,0c0,0,1,0,1,0c0,0,1,0,1,0c0,0,1,0,1,0c0,0,1,0,1,-1l0,-1c-1,0,-1,0,-1,-1l-1,0l0,-1l-1,0l-1,0l1,-2l1,0c0,1,1,1,1,1c0,1,1,1,1,1c0,1,0,1,0,2c1,0,1,0,1,1c0,1,0,1,0,1c-1,0,-1,1,-1,1ZM58.5,318.5l0,-1c0,0,-1,-1,-1,-1c0,-1,0,-2,0,-2l0,-1c1,0,1,1,1,1c0,0,0,1,0,1l0,1l0,1c0,0,0,1,0,1ZM49.5,333.5c1,0,1,0,1,0c1,-1,1,-1,1,-1c0,0,1,0,1,0l0,-1l0,-2l-1,-6c0,-1,0,-1,0,-1l0,-1c1,0,1,0,1,0l0,1c1,0,1,0,1,0c0,0,0,1,0,1c0,0,0,1,0,1c0,0,0,1,0,2c0,0,0,1,0,2c0,1,0,1,0,2l0,1l0,1l0,1c-1,0,-1,0,-1,0l0,1l-1,0l-1,0l-1,0c0,0,-1,0,-1,0c0,0,-1,0,-1,-1c0,0,0,-1,0,-2c-1,0,-1,1,-1,1c-1,1,-2,1,-3,2l-1,0l-1,0l-1,1c0,0,-1,0,-1,0l-1,0l-1,0l-1,0l-1,0c-1,-1,-2,-1,-3,-2c0,0,0,-1,0,-2c0,-1,0,-1,0,-1c0,0,0,-1,0,-1l1,-1l0,1l0,1c0,1,0,2,2,2c0,0,1,1,1,1c1,0,2,0,2,0l1,0l1,0l1,0l1,0c2,-1,4,-2,4,-3l0,-1l0,-7l1,-2l0,11c0,0,1,0,1,1c1,1,1,1,1,1ZM54.5,337.5l-4,3c0,-1,0,-1,0,-2l4,-2ZM40.5,329.5c0,1,-1,1,-2,1c-1,0,-1,0,-1,-1l-1,0l1,0l1,0l1,0l0,-1l-1,0c0,0,0,-1,0,-1l0,-1c0,-1,1,-2,2,-2l0,1c-1,1,-1,1,-1,1l1,1c0,0,1,0,1,1c-1,1,-1,1,-1,1ZM36.5,321.5l5,-2l-1,1l-4,2ZM75.5,324.5l-1,-1l0,-1l2,1ZM77.5,330.5c-1,0,-1,0,-1,0l0,1c-1,0,-1,0,-1,0l-1,0l0,-1c-1,0,-1,-1,-1,-1c0,0,0,-1,0,-1l1,-1l0,-1c1,0,1,0,1,0c1,0,1,0,1,0c1,1,1,1,1,2l1,1c0,0,0,1,0,1c0,1,0,1,0,1c0,1,-1,1,-1,1c0,1,0,1,-1,2c1,0,1,0,1,0c0,0,1,0,1,0c0,1,0,1,0,1c0,0,0,1,0,1c0,1,0,1,-1,1l-1,1c0,0,-1,1,-2,1c-1,0,-2,0,-3,0c0,0,-1,0,-2,0c0,0,-1,-1,-1,-1c-1,0,-1,-1,-1,-1c0,0,0,-1,0,-1c0,-1,0,-1,0,-1c0,0,0,-1,0,-2c0,0,1,-1,1,-1c0,-1,0,-1,0,-1c0,1,0,1,1,1c-1,0,-1,1,-1,1c0,1,-1,1,-1,2l1,0c0,1,0,1,1,2c0,0,1,0,2,0l1,0c0,0,1,0,1,0c0,0,1,0,1,0c1,0,2,0,2,-1c1,0,1,0,1,-1c0,0,-1,0,-1,0c-1,0,-1,0,-2,0l0,-1c0,0,0,1,0,1c0,-1,0,-1,0,-1l0,-1l1,0l1,-1l1,0l0,-1c0,-1,0,-1,0,-1ZM74.5,328.5c0,1,1,1,1,1l1,0l0,-1c-1,0,-1,0,-1,0l0,-1c0,1,0,1,0,1c0,0,-1,0,-1,0ZM78.5,339.5l-4,2c0,0,1,-1,1,-1l3,-2ZM98.5,333.5l0,-1l0,-1l-1,-8l1,-3l1,11l0,1c-1,1,-1,1,-1,1ZM99.5,339.5l-4,2c0,0,0,-1,0,-1l4,-2ZM89.5,327.5l-1,-1l1,-1l1,1ZM89.5,337.5c0,0,-1,-1,-2,-1c0,0,-1,0,-1,0c0,-1,-1,-1,-1,-1c0,-1,0,-2,0,-2c0,-1,0,-1,0,-1c0,-1,0,-1,0,-1c0,-1,0,-1,0,-1l1,0c0,-1,0,-1,0,-1c0,0,0,1,0,1l0,1c0,0,0,1,0,1c0,0,0,1,0,1c0,0,0,1,1,1l1,0c0,0,1,1,1,1c1,0,2,-1,3,-1c0,0,1,0,1,-1l1,0c0,-1,0,-1,0,-1c0,-1,0,-1,0,-1c-1,-1,-1,-1,-1,-1c0,-1,0,-1,0,-1c0,0,0,-1,0,-1l-1,0l1,-2l0,1l1,0c0,1,0,1,0,1c0,1,0,1,0,1c0,1,0,1,0,1c1,0,1,0,1,1c0,1,-1,2,-1,2c0,1,0,1,-1,2c-1,0,-1,1,-2,1c-1,0,-1,1,-2,1ZM86.5,319.5l0,1c1,0,1,0,1,0l0,-1l0,-1l1,0l0,1c1,0,1,0,1,0l0,-1c0,0,0,1,0,1l0,1l-1,0l-1,0l0,1l-1,0l0,-1l0,-1ZM90.5,316.5l-5,3c0,-1,0,-1,0,-2l6,-2ZM174.5,338.5l-1,-1l0,-2l2,1ZM171.5,334.5l-1,0c-1,0,-1,0,-1,0c0,0,-1,0,-1,-1l0,-1c-1,0,-1,0,-1,0c0,0,0,1,0,1c0,0,-1,0,-1,0c0,0,-1,1,-1,1l-1,0l-1,0c-1,0,-1,1,-1,1c0,0,0,1,0,1c0,1,-1,1,-1,1c0,1,0,1,-1,1c0,0,0,1,0,1c-1,0,-1,0,-1,0c0,0,-1,0,-1,0l-1,0c-1,0,-1,0,-2,0l-1,-1l1,0c1,0,1,0,1,0c0,0,1,0,1,0c1,0,1,0,2,-1c1,0,1,-1,1,-1c0,0,1,0,1,-1l0,-1c0,0,1,0,1,0c-1,0,-1,0,-1,0l-1,0l-1,-1c0,0,0,-1,0,-1c0,0,0,-1,0,-1c0,-1,0,-1,0,-1l1,0l0,-1c0,0,1,0,1,0c1,0,1,1,1,1c0,1,0,1,0,1c1,0,1,1,1,1c0,0,1,0,1,0c1,0,1,0,1,0c0,0,1,0,1,0c1,-1,1,-1,1,-1l1,0c0,1,0,1,1,1l1,0l1,0c1,0,1,0,2,0c0,0,1,0,1,-1l0,-1l-1,-1l1,-1l1,0l0,1l0,1l0,1l0,1c-1,0,-1,1,-1,1c0,0,-1,0,-1,1c-1,0,-1,0,-2,0ZM172.5,318.5c0,0,0,-1,0,-1c1,0,1,0,1,0c0,0,1,0,1,0l0,1l0,1l0,1l0,1l-1,0l-1,0c0,1,-1,1,-1,1l-1,0l1,-1l1,0l0,-1c0,0,0,-1,0,-1c0,0,0,-1,0,-1ZM173.5,318.5c-1,0,-1,0,-1,0l0,1l1,0c0,-1,0,-1,0,-1ZM168.5,337.5l-1,-1l-1,1l-1,-1l1,-1l1,1l1,-1l1,1ZM167.5,318.5c0,0,1,-1,1,-1l1,0l0,1l0,1l0,1l1,0l-1,1l-1,0l-1,0c0,1,0,1,0,1l-1,0l-1,0l1,0l0,-1c0,0,1,0,1,0l1,-1l-1,0c0,0,0,-1,0,-1c0,0,0,-1,0,-1ZM168.5,318.5l0,1c0,-1,0,-1,0,-1ZM160.5,331.5c0,0,0,1,0,1c1,0,1,0,1,0l1,0c-1,0,-1,0,-1,0c0,-1,0,-1,0,-1l-1,0ZM153.5,325.5l-2,0l-1,1l-1,-1l1,-2l1,1l1,-1l2,1ZM151.5,334.5l-1,0l-1,0c0,0,-1,0,-1,0l-1,0c0,0,0,-1,0,-1c0,0,0,-1,0,-1c0,0,-1,0,-1,0c0,0,-1,0,-1,0c-1,0,-1,0,-2,0c-1,1,-2,1,-2,1c-1,0,-2,0,-2,0c-2,0,-2,0,-3,0c-1,0,-2,0,-3,0c-1,0,-2,1,-3,1c-1,0,-2,0,-3,0c-1,0,-1,0,-2,0l-1,0l-3,0l-1,-1l0,1l0,1c0,1,-1,1,-1,1c0,0,-1,0,-1,-1c0,0,-1,-1,-1,-1l0,-1c0,0,-1,0,-1,0c-1,0,-1,0,-1,0c0,1,0,1,0,1c0,0,0,1,0,1l0,1c0,0,0,1,0,1l0,2l1,2c0,0,0,1,0,1l0,1l-1,0l0,1l0,-1l0,-1l0,-1l-1,-3l0,-2l0,-1l0,-1c0,-1,1,-2,1,-2l1,0l0,-1l1,0l0,-1l1,0c0,1,1,1,2,2l2,0l1,0l1,0c1,0,2,0,3,0c1,0,2,0,2,0c1,0,2,0,3,0c0,0,1,0,2,0c1,0,2,0,2,0c1,-1,2,-1,3,-1c1,0,1,0,3,0c1,0,2,0,2,0c1,-1,2,-1,3,-1l1,0c0,0,-1,0,-1,0c0,-1,0,-1,0,-1c0,0,-1,0,-1,0c0,0,-1,0,-1,0c-1,0,-3,0,-4,0c-2,0,-4,1,-6,1c-2,0,-4,0,-5,0c-2,0,-3,0,-3,0c-1,-1,-1,-1,-1,-1c0,-1,0,-1,1,-1c0,-1,0,-1,0,-1c0,-1,1,-1,1,-2c1,0,2,-1,3,-2c1,0,2,-1,3,-1c0,0,0,-1,0,-1l0,2c0,0,-1,0,-1,1c-1,0,-2,1,-3,1c-1,1,-2,2,-2,3c-1,0,-1,0,-1,0l1,0l1,0c0,0,1,0,1,0c2,0,3,0,5,0c2,0,4,0,6,-1c2,0,3,0,4,0c0,0,1,0,1,0c0,0,1,0,1,1c1,0,1,0,1,0l0,1c0,1,0,2,0,2c0,1,0,1,-1,1c0,0,1,0,1,0l1,0l1,0l1,0c0,0,1,0,1,0c1,0,1,0,1,-1l0,-1l0,-1l-1,0l1,-1l1,0l0,1l0,1l0,1l0,1c0,0,0,1,-1,1l-1,1c0,0,-1,0,-1,0ZM155.5,337.5l-5,2c1,-1,1,-1,1,-1l4,-2ZM129.5,315.5c0,-1,0,-1,1,-1c0,-1,0,-1,0,-1l1,0c0,1,0,1,0,1c0,1,0,1,0,1l0,1l0,2l-1,-1l-1,1c0,0,0,1,-1,1l-1,0l0,-1l1,0l1,0l0,-1l1,0l-1,0l0,-1l0,-1ZM130.5,315.5l0,-1c0,0,-1,1,-1,1l1,0l0,1l0,-1ZM114.5,323.5l1,0c0,-1,1,-1,1,-1c1,0,1,0,2,1c0,1,0,1,-1,1c0,1,0,1,0,1l-1,0c0,0,-1,0,-1,0c-1,0,-1,0,-1,0l2,0c0,0,1,-1,1,-1c-1,0,-1,0,-1,0c-1,0,-1,0,-2,0l0,-1ZM190.5,325.5l-1,-1l1,-2l1,1ZM192.5,330.5c0,0,-1,1,-1,1c0,0,-1,0,-1,0c0,0,-1,0,-1,0c0,-1,-1,-1,-1,-2l1,-1c0,-1,0,-1,0,-1c1,-1,1,-1,2,-1l1,1l0,1l1,1c0,1,0,1,0,1c0,1,0,1,0,1l0,1c0,0,0,1,0,1c-1,0,-1,1,-1,1c1,0,1,0,1,0c0,0,0,1,0,1c1,0,1,0,1,0c0,0,0,1,0,1c0,0,-1,0,-1,0c0,0,0,1,0,1c-1,1,-1,1,-2,1c0,1,-1,1,-2,1c-1,1,-2,1,-2,1c-1,0,-1,0,-1,0c0,0,-1,0,-1,-1c-1,0,-2,0,-2,-1c0,0,-1,0,-1,-1l0,-1c0,-1,0,-1,0,-2c0,-1,1,-2,1,-2l1,0c-1,1,-1,1,-1,2c0,0,0,1,0,1c0,0,0,1,0,1c0,0,0,1,1,1c0,1,1,1,2,1c0,0,1,0,1,0c1,0,1,0,1,0c1,0,1,0,1,0c1,-1,2,-1,2,-1c1,-1,1,-1,1,-1c0,0,-1,0,-1,-1c-1,0,-1,0,-1,0c0,0,-1,0,-1,0c0,0,0,-1,0,-1c0,0,1,0,1,-1c0,0,1,0,1,0c0,0,1,0,1,-1c0,0,0,-1,0,-1l0,-1ZM189.5,328.5l0,1l1,0c0,0,1,0,1,0l0,-1l-1,0ZM193.5,340.5l-4,2c1,-1,1,-1,1,-1l4,-2ZM262.5,325.5l-2,0l-1,1l-1,-1l1,-2l1,1l1,-1l1,1ZM259.5,334.5l-1,0l-1,0l-1,0c0,0,0,-1,-1,-1l0,-1l-1,0l0,1l-1,0c0,0,-1,0,-1,1c0,0,-1,0,-2,0c-1,0,-1,0,-1,0c0,0,0,-1,-1,-1l0,-1l0,-1l1,0l0,1l1,0l1,0c1,0,1,0,1,0l1,0l0,-1c0,0,1,0,1,0c0,-1,0,-1,0,-2l0,-2l0,-1l0,-2l1,2c0,0,0,1,0,2l0,2c0,0,0,1,1,1c0,0,0,1,0,1l1,0l1,0l1,0c1,0,1,0,2,0c1,0,1,0,1,-1l0,-1l-1,-1l1,-1l1,0l0,1l0,1l0,1l0,1c0,0,-1,1,-1,1l-1,1c-1,0,-1,0,-2,0ZM259.5,318.5l5,-3l-1,1c0,0,0,1,0,1l-4,2ZM251.5,320.5l0,1l1,0l0,-1l0,-1l0,1c0,0,1,0,1,0c0,0,0,1,0,1c0,0,0,-1,0,-1l1,-1l0,1l0,1l-1,1c0,0,-1,0,-1,0l0,-1l0,1c0,0,-1,0,-1,0l-1,0l0,-1l0,-1ZM255.5,317.5l-6,3c1,-1,1,-1,1,-1l5,-3ZM236.5,326.5l-1,-1l1,-2l1,1ZM245.5,331.5l-1,0l-1,0c-1,0,-1,0,-2,0l-1,0l-1,1l-1,0c-1,1,-1,1,-2,1l-1,0c0,1,-1,1,-1,1l-1,0l-1,0l0,1c0,1,-1,1,-1,2l-1,1c-1,1,-1,1,-1,1c-1,0,-1,0,-1,0c-1,0,-1,0,-1,0l-1,0c0,0,-1,0,-1,0c-1,0,-1,0,-1,0c0,-1,0,-1,0,-1l1,1c1,0,1,0,2,-1c0,0,1,0,1,0c0,0,1,-1,1,-1l1,-1l0,-1c0,0,1,0,1,-1c0,0,0,-1,0,-1l-1,0c0,0,0,-1,0,-1l0,-1l1,0l0,1l1,0l1,0c0,0,1,0,1,0c0,0,1,0,2,0l1,-1l1,0l1,0l-1,-1l-1,0l-1,-1l-1,0l-1,0l0,1c0,-1,0,-1,0,-2c1,0,1,0,1,0c0,0,1,0,1,0l1,0l1,0l2,1l1,0l1,0c0,1,0,1,1,1c0,0,1,0,1,0l1,0ZM242.5,337.5l-4,2l0,-1l4,-2ZM229.5,318.5c0,0,1,-1,1,-1l1,0l0,1l0,1l0,1l1,0l-1,1l-1,0c-1,1,-1,1,-1,1l-1,0l-1,0l1,0l0,-1c1,0,1,0,1,0l1,-1l-1,0c0,0,0,-1,0,-1c0,0,0,-1,0,-1ZM230.5,318.5l0,1l1,0c0,-1,0,-1,-1,-1ZM223.5,330.5c-1,0,-1,0,-1,0l0,1l1,0c0,-1,0,-1,0,-1ZM223.5,338.5c-1,0,-1,0,-1,0l-1,0c0,0,-1,1,-1,1l-1,0c0,0,-1,-1,-1,-1c-1,0,-1,0,-1,0c0,0,0,-1,0,-1c0,1,0,1,1,1c1,0,1,0,1,0c0,0,1,0,1,-1c1,0,1,0,1,0c0,0,1,-1,1,-1c1,0,1,-1,1,-1l1,-1c0,0,0,-1,0,-1l0,-1c0,0,0,1,0,1c-1,0,-1,0,-1,0l-1,0c0,0,-1,0,-1,-1l0,-1l0,-1c0,0,0,-1,1,-1c0,0,0,-1,0,-1c0,0,1,0,1,0c0,0,1,0,1,0l0,1c0,0,1,0,1,1l0,1c0,0,0,1,0,1l0,1c0,1,-1,2,-1,3l-1,1l0,1ZM212.5,328.5l-1,-1l1,-2l1,1ZM212.5,337.5c-1,0,-1,0,-2,0c0,0,-1,-1,-1,-1c0,0,-1,-1,-1,-1c0,-1,0,-1,0,-2l0,-1c0,-1,0,-1,0,-1l0,-1c1,0,1,0,1,0c0,0,0,-1,0,-1c0,1,0,1,0,1c0,1,0,1,0,1l0,1c-1,0,-1,0,-1,0c0,1,1,1,1,1c0,1,0,1,1,1l0,1c1,0,2,0,2,0c1,0,2,0,2,0c1,-1,2,-1,2,-1c0,-1,0,-1,0,-1c1,0,1,0,1,-1l0,-1c-1,0,-1,0,-1,0c0,0,0,-1,0,-1l0,-1l-1,0l0,-1l1,-2c0,0,0,1,0,1c1,0,1,1,1,1c0,0,0,1,0,1l0,1c0,1,0,1,0,1l0,1c0,1,0,1,0,2c0,0,-1,1,-1,1c-1,1,-1,1,-2,2c-1,0,-1,0,-2,0ZM208.5,321.5l4,-2l0,1l-4,2ZM288.5,330.5c0,0,-1,0,-1,0l0,1l1,0c0,-1,0,-1,0,-1ZM288.5,338.5c-1,0,-1,0,-1,0l-1,0c0,0,-1,1,-1,1l-1,0c0,0,-1,-1,-1,-1c0,0,-1,0,-1,0c0,0,0,-1,0,-1c0,1,1,1,1,1c1,0,1,0,1,0c1,0,1,0,1,-1c1,0,1,0,1,0c1,0,1,-1,1,-1c1,0,1,-1,1,-1l1,-1c0,0,0,-1,0,-1l0,-1c0,0,0,1,0,1c0,0,-1,0,-1,0c-1,0,-1,0,-1,0c0,0,-1,0,-1,-1l0,-1l0,-1c0,0,0,-1,1,-1c0,0,0,-1,0,-1c1,0,1,0,1,0c0,0,1,0,1,0l0,1c0,0,1,0,1,1l0,1c0,0,0,1,0,1l0,1c0,1,0,2,-1,3l0,1c-1,0,-1,0,-1,1ZM285.5,324.5l4,-2l0,1l-5,2ZM281.5,333.5l-1,0c-1,0,-1,0,-1,0l-1,-1l0,1c-1,0,-1,0,-1,1l-1,0l-1,0l-1,0c-1,0,-1,0,-2,-1c0,0,-1,-1,-1,-2l0,-8l1,-2l0,9l0,1l1,1l1,0l1,0l1,0c1,0,1,0,1,0l1,0l0,-2c0,0,1,-1,1,-1c1,0,1,-1,1,-1c1,0,1,1,1,1c0,0,0,1,1,1l0,1l0,1c-1,1,-1,1,-1,1ZM279.5,331.5l1,0l1,0c0,0,-1,0,-1,0c0,-1,0,-1,0,-1c-1,0,-1,0,-1,0c0,1,0,1,0,1ZM276.5,321.5l4,-2l0,1l-4,2ZM337.5,325.5l-1,0l-1,1l-2,-1l1,-2l2,1l1,-1l1,1ZM335.5,334.5l-1,0l-1,0c-1,0,-2,0,-2,-1c-1,0,-1,-1,-1,-2l0,-8l1,-2l0,9l0,1l1,1l1,0l1,0l1,0c0,0,1,0,1,0c1,0,1,0,2,-1l-1,-1l0,-1l1,-1l0,1l0,1l0,1l0,1c0,0,0,1,0,1c-1,0,-1,0,-2,1c0,0,-1,0,-1,0ZM335.5,318.5l4,-3l0,1c0,0,0,1,0,1l-4,2ZM329.5,312.5l1,0l1,0c0,0,1,0,1,0c1,0,1,0,1,1c0,0,-1,0,-1,1c0,0,-1,0,-1,0c0,0,0,1,0,1c-1,0,-1,0,-1,0l-1,0l2,-1c0,0,1,0,1,-1l-1,0c-1,0,-1,0,-2,0l-1,0c1,0,1,-1,1,-1ZM329.5,321.5c0,0,-1,0,-2,1c-2,0,-3,1,-4,1c-2,1,-2,1,-3,1c0,0,0,1,0,1l-1,0c0,0,1,0,1,0l0,1l2,1c0,0,1,0,2,1c0,1,0,1,0,1c0,1,0,1,0,2c0,0,0,1,0,1c0,0,0,1,0,1c-1,0,-1,0,-1,0c0,1,-1,1,-1,1c0,0,-1,0,-1,0l-1,0c0,0,-1,0,-1,0c-1,-1,-1,-1,-1,-2c0,0,-1,1,-1,1c0,0,0,1,-1,1l-2,0c0,0,0,1,0,1c0,0,0,1,0,1c-1,1,-1,1,-1,1c0,1,-1,1,-1,1c0,0,0,1,-1,1c-1,0,-1,0,-1,0c0,0,-1,0,-1,0c-1,0,-1,0,-2,0l-1,-1c1,0,1,0,1,0c0,0,1,0,1,0c0,0,1,0,1,0c1,0,1,0,1,-1c1,0,1,0,1,0c1,0,1,-1,1,-1c0,0,1,0,1,-1l0,-1c0,0,-1,0,-1,0c0,0,-1,0,-1,-1c0,0,0,-1,0,-1c0,0,0,-1,0,-1c0,-1,0,-1,0,-1c1,0,1,0,1,-1l1,0c0,0,1,1,1,1c0,1,0,1,0,1c0,0,0,1,0,1c1,0,1,0,2,0c1,0,1,0,1,-1c1,0,1,-1,1,-1c0,0,0,-1,0,-1c-1,0,-1,0,-1,0l0,-7l1,-2l1,11l0,1c1,0,1,0,1,0l1,0c1,0,1,0,1,0c1,0,1,0,1,0c0,0,1,0,1,-1c0,0,0,-1,0,-1c-1,-1,-1,-1,-2,-2l-1,0l0,-1c-1,1,-1,1,-1,1l0,-1c-1,0,-1,0,-1,0l0,-1l0,-1l0,-1c1,-1,1,-1,1,-1c1,0,2,-1,3,-1c1,-1,3,-1,4,-2c1,0,2,0,2,-1ZM323.5,315.5c0,-1,1,-1,1,-1c0,-1,0,-1,1,-1c0,1,1,1,1,1c0,1,0,1,-1,1l0,1l1,0l0,2l-2,-1l0,1c-1,0,-1,1,-1,1l-1,0l-1,0l1,-1l1,0l0,-1l1,0l-1,-1l0,-1ZM324.5,315.5l0,-1c0,0,0,1,0,1l0,1l1,0l0,-1ZM317.5,315.5c0,-1,0,-1,1,-1c0,-1,0,-1,0,-1l1,0c0,1,0,1,0,1c0,1,0,1,0,1l0,1l0,2l-1,-1l-1,1c0,0,0,1,-1,1l-1,0l0,-1l1,0l1,0l0,-1l1,0l-1,0l0,-1l0,-1ZM318.5,315.5l0,-1c0,0,-1,1,-1,1l1,0l0,1l0,-1ZM312.5,331.5c0,0,-1,0,-1,0c0,0,1,1,1,1c0,0,1,0,1,0c0,-1,0,-1,0,-1c0,0,-1,0,-1,0ZM301.5,328.5l-1,-1l1,-2l1,1ZM301.5,337.5c-1,0,-1,0,-2,0c0,0,-1,-1,-1,-1c-1,0,-1,-1,-1,-1c0,-1,-1,-1,-1,-2l1,-1c0,-1,0,-1,0,-1l0,-1l1,0c0,0,0,-1,0,-1c0,1,0,1,0,1c0,1,0,1,0,1c-1,0,-1,0,-1,1c0,1,0,1,1,1c0,1,0,1,0,1c1,0,1,0,1,1c1,0,1,0,2,0c1,0,2,0,2,0c1,-1,2,-1,2,-1c0,-1,0,-1,0,-1l0,-1l0,-1c0,0,0,-1,0,-1l0,-1c0,0,-1,0,-1,0l0,-1l1,-2c0,0,0,1,0,1c0,0,1,1,1,1c0,0,0,1,0,1l0,1c0,1,0,1,0,1l0,1c0,1,0,1,0,2c0,0,-1,1,-1,1c-1,1,-1,1,-2,2c-1,0,-1,0,-2,0ZM297.5,321.5l4,-2l0,1l-4,2ZM365.5,338.5l-1,-1l1,-2l1,1ZM363.5,334.5l-1,0l-1,0c-1,0,-1,0,-2,-1c-1,1,-1,1,-1,1l-1,0l-1,0l-1,-1l-1,-1l-1,1c0,1,-1,1,-1,1l-1,0l-1,0l-1,0c-1,0,-1,0,-2,-1c0,0,-1,-1,-1,-2l0,-8l1,-2l0,9l0,1l1,0l0,1l1,0l1,0l1,0l1,0l1,0l0,-1c0,0,1,0,1,-1c1,-1,2,-1,2,-1l1,0l0,1l1,1l1,0l0,1c0,0,1,0,1,0l1,0l1,0l1,0c0,0,1,0,1,0c1,0,1,0,1,-1l0,-1l0,-1l0,-1c0,0,1,0,1,0l0,1l0,1l0,1l0,1c0,0,0,1,0,1c-1,0,-1,0,-2,1c0,0,-1,0,-1,0ZM364.5,340.5l-4,2c1,-1,1,-1,1,-1l4,-2ZM358.5,332.5l-1,-1l-1,-1l0,1l-1,0l1,1l1,0ZM354.5,321.5l4,-2l-1,1l-4,2ZM420.5,330.5c-1,0,-1,0,-1,0l0,1l1,0c0,-1,0,-1,0,-1ZM420.5,338.5c-1,0,-1,0,-1,0l-1,0c0,0,-1,1,-1,1l-1,0c0,0,-1,-1,-1,-1c-1,0,-1,0,-1,0c0,0,0,-1,0,-1c0,1,0,1,1,1c1,0,1,0,1,0c0,0,1,0,1,-1c1,0,1,0,1,0c0,0,1,-1,1,-1c1,0,1,-1,1,-1l1,-1c0,0,0,-1,0,-1l0,-1c0,0,0,1,0,1c0,0,-1,0,-1,0l-1,0c0,0,-1,0,-1,-1l0,-1l0,-1c0,0,0,-1,1,-1c0,0,0,-1,0,-1c1,0,1,0,1,0c0,0,1,0,1,0l0,1c0,0,1,0,1,1l0,1c0,0,0,1,0,1l0,1c0,1,0,2,-1,3l-1,1l0,1ZM417.5,324.5l4,-2l0,1l-1,0l-4,2ZM413.5,334.5l0,-1l0,-1l-1,-9l1,-2l1,10c0,1,0,1,0,1l0,1c-1,0,-1,1,-1,1ZM412.5,311.5c0,0,1,0,1,-1l1,0c0,0,1,1,1,1c0,0,-1,0,-1,1c0,0,0,1,0,1l1,0l0,1l-2,0l0,1c-1,0,-1,0,-1,0l-1,0l0,1l-1,0l0,-1l1,0c1,0,1,-1,1,-1l1,-1l-1,0c0,0,0,-1,0,-1l0,-1ZM413.5,311.5c0,0,0,1,0,1l1,0l-1,0ZM406.5,327.5l-1,-1l1,-1l1,1ZM406.5,334.5l-1,0l-1,0c-1,0,-1,-1,-1,-1l-1,0l0,-1c0,1,0,1,-1,1c0,1,0,1,-1,1l-1,0c0,0,-1,0,-1,0c0,0,-1,-1,-1,-1c0,0,0,-1,0,-1c0,1,-1,1,-1,1c-1,1,-1,1,-2,1l-1,0c0,0,-1,0,-1,-1c0,0,-1,0,-1,-1l-2,-2c-1,0,-1,0,-1,0l-1,-1l0,1l0,1c0,0,0,1,0,1c0,0,-1,1,-1,1c-1,1,-1,1,-1,1c0,0,-1,0,-1,0l-1,0l-3,0c0,0,-1,0,-1,-1l0,1l0,1l-1,0c0,1,0,1,0,1c0,0,-1,0,-1,-1c-1,0,-1,-1,-1,-1l0,-1c0,0,-1,0,-1,0l-1,0c0,1,0,1,0,1l-1,0c0,0,0,1,0,1l0,1c0,0,1,0,1,0c0,0,0,1,0,1l0,2l0,2c1,0,1,1,1,1l0,1l-1,0l0,1l0,-1l0,-1l0,-1l-1,-3l0,-2l0,-1l0,-1c0,-1,1,-2,1,-2l1,-1l1,0l0,-1l1,0c0,1,1,1,2,2l1,0l2,0l1,0l1,0l1,0c1,0,1,0,1,0c0,-1,0,-1,0,-1c1,0,1,0,1,-1c0,0,-1,0,-1,-1c0,0,-1,-1,-1,-1l-1,0c0,-1,0,-1,-1,-1l-1,0l0,-1l0,-1c0,-1,0,-1,0,-1c0,-1,0,-1,0,-1l1,0c0,0,1,-1,3,-1c1,-1,2,-1,4,-2c1,-1,2,-1,3,-1l1,0l-1,1l0,1c-1,0,-1,0,-1,0c0,0,-1,0,-2,1c-2,0,-3,1,-5,1c-1,1,-2,1,-2,1c0,0,0,1,-1,1l1,0c1,1,1,1,1,1c1,0,1,0,1,0l1,1c0,0,1,0,2,1c0,0,1,1,1,1c1,1,1,1,2,2l2,1l1,0c0,0,1,0,1,0c0,0,1,0,1,0c0,0,0,-1,0,-1c1,0,1,0,1,-1c0,0,0,1,0,1c0,0,0,1,1,1c0,0,1,0,1,0c1,0,1,0,2,0c0,0,1,0,1,0c0,0,0,-1,0,-1l0,-1l0,-1l0,-1l1,0l0,2c0,1,0,1,0,1c0,1,1,1,1,1l1,0l1,0c0,0,1,0,1,0c1,0,1,0,1,-1c1,0,1,0,1,0c0,0,-1,0,-1,0l0,-1l0,-1l0,-1c1,0,1,0,1,0c0,1,0,1,0,1l0,1l0,1l0,1c0,0,0,1,0,1c-1,0,-1,0,-2,1c0,0,-1,0,-1,0ZM406.5,321.5l4,-2l-1,1l-4,2ZM402.5,338.5l-2,-1l1,-1l2,1ZM399.5,320.5l0,1c1,0,1,0,1,0l0,-1l1,0l0,-1l0,1l1,0l0,-1l1,0l0,1l-1,0l0,1l-1,0l-1,1c-1,0,-1,0,-1,0l0,-1l0,-1ZM404.5,340.5l-4,2c0,-1,0,-1,0,-1l4,-2ZM392.5,325.5c1,0,1,-1,1,-1l1,0c1,0,1,0,1,0l0,1l-1,0c-1,0,-1,0,-1,1l1,0c0,0,1,0,1,0l1,0l0,1l-4,2l0,-1l1,-1c-1,0,-1,0,-1,-1l0,-1ZM395.5,313.5c1,0,1,0,1,-1c0,0,1,0,1,0c1,0,1,1,1,1l0,1l-1,0c0,0,0,1,0,1l1,0l0,1l-1,0l-1,0l0,1c-1,0,-1,0,-1,0l-1,1l-1,0l0,-1l1,0l1,0c0,0,0,-1,0,-1l1,0l0,-1c-1,0,-1,-1,-1,-1l0,-1ZM397.5,313.5l-1,0c0,0,0,1,0,1l1,0ZM386.5,315.5c0,-1,0,-1,1,-1c0,-1,0,-1,0,-1l1,0c0,1,0,1,0,1c0,1,0,1,0,1l0,1l0,2l-1,-1l-1,1c0,0,0,1,-1,1l-1,0l0,-1l1,0l1,0l0,-1l1,0l-1,0l0,-1l0,-1ZM387.5,315.5l0,-1c0,0,-1,1,-1,1l1,0l0,1l0,-1ZM38.5,235.5l1,0c0,0,-1,0,-1,0l0,-1l0,1ZM40.5,232.5l-1,0l-1,0l0,-1l-1,0c0,0,-1,0,-1,0c0,1,0,1,0,1l1,0l1,0c-1,0,-1,1,-2,1c0,1,0,2,0,2c0,1,0,2,1,2c0,0,1,1,1,1c1,0,1,0,1,0l1,-1c1,0,1,0,1,0c-1,0,-1,0,-2,0c-1,0,-2,0,-3,-1c0,0,0,-1,0,-1c0,-1,0,-1,1,-2l1,-1c0,0,1,0,1,0ZM347.5,228.5c1,0,1,0,1,0c1,0,1,0,2,0c0,0,1,0,1,0c0,0,1,0,1,0c0,0,0,1,0,1c-1,0,-1,0,-1,1l-1,0l-1,0c0,1,0,1,0,1l-1,0l0,-1l1,0c1,0,1,-1,2,-1c0,0,-1,0,-1,0c0,0,-1,0,-1,0c0,0,-1,0,-1,0l-1,0c0,-1,0,-1,0,-1ZM237.5,226.5c0,0,0,-1,1,-1c0,0,1,0,1,0c1,0,1,0,1,0c1,1,1,1,1,1c0,1,0,1,-1,1c0,0,0,1,0,1c0,0,-1,0,-1,0c0,0,-1,0,-1,0l-1,0l2,0c0,-1,1,-1,1,-1c0,0,0,-1,-1,-1c-1,0,-1,0,-2,1c0,-1,0,-1,0,-1ZM195.5,229.5c0,-1,0,-1,1,-1c0,0,1,0,1,0c1,0,1,0,2,0c0,0,0,1,0,1c0,0,0,1,0,1c-1,0,-1,0,-1,1c-1,0,-1,0,-1,0c0,0,-1,0,-1,0c0,0,-1,0,-1,0l2,-1c0,0,1,0,1,0c0,-1,0,-1,0,-1c-1,0,-1,0,-1,0c-1,0,-1,0,-1,0c-1,0,-1,1,-1,1l0,-1ZM151.5,229.5l1,0c0,0,1,0,1,0c1,0,1,0,2,0l0,1c0,0,0,1,0,1c-1,0,-1,0,-1,1c-1,0,-1,0,-1,0c0,0,-1,0,-1,0c0,0,-1,0,-1,0l2,-1c0,0,1,0,1,-1c-1,0,-1,0,-1,0c-1,0,-1,0,-1,0c-1,0,-1,0,-1,1l0,-1l0,-1ZM46.5,245.5l4,-2l0,1c0,0,-1,0,-1,0l-4,2ZM63.5,241.5l0,-1l0,-1l-1,-9l1,-2l1,11c0,0,-1,1,-1,1c0,0,0,1,0,1ZM58.5,240.5c0,1,0,1,0,1c-1,0,-1,0,-2,-1c0,0,0,-1,-1,-2c0,1,0,2,0,2c-1,1,-1,1,-2,1c-1,0,-1,0,-2,-1c0,0,0,-1,0,-2l-1,0c0,1,0,1,0,1c0,0,0,1,0,1c-1,0,-1,0,-2,0c-1,0,-1,0,-1,0c-1,0,-1,-1,-1,-1c0,-1,0,-1,1,-1c0,-1,0,-1,0,-1c1,0,1,-1,2,-1l1,-1l0,-1c1,-1,1,-1,1,-1l0,1l0,1l0,3c1,0,1,1,1,1c0,0,1,0,1,0c0,0,1,0,1,0c1,-1,1,-1,1,-1c0,-1,0,-2,0,-3c0,0,0,-1,0,-1c-1,0,-1,-1,-1,-1l0,-1l1,0l0,-1l0,2l1,2l0,2c0,0,0,1,0,1c1,0,1,0,1,1l1,0c0,0,1,0,1,0c0,-1,0,-1,0,-1c0,0,0,-1,0,-1l-1,-2l0,-1l0,-1c0,0,0,-1,0,-1l0,-1c1,0,1,1,1,1c0,1,0,1,0,2l0,1c1,1,1,2,1,2c0,1,0,2,-1,2c0,0,0,1,0,1c0,0,-1,0,-1,0ZM50.5,236.5c0,0,-1,1,-1,1c-1,0,-1,1,-1,1c0,0,1,0,2,0l0,-1ZM99.5,245.5l-1,-1l1,-2l1,1ZM97.5,241.5l-1,0l-1,0c-1,0,-2,0,-2,-1c-1,0,-1,-1,-1,-1l0,-9l0,-2l1,10l0,1c1,0,1,0,2,0l1,0l1,0c0,0,1,0,1,0c1,0,1,0,1,0l1,0l0,-1c0,0,-1,0,-1,-1l0,-1l1,-1l0,1l0,1l0,1c0,1,0,1,0,1c0,1,0,1,0,1c-1,0,-1,1,-2,1c0,0,-1,0,-1,0ZM98.5,247.5l-3,2c0,0,0,-1,0,-1l4,-2ZM93.5,247.5l-4,2c0,0,1,-1,1,-1l3,-2ZM85.5,230.5l-1,-1l0,-1l2,1ZM89.5,240.5l-1,1c-1,0,-1,0,-2,0l-1,0l-1,0l-1,0l0,-1l0,-1l1,0c1,0,1,0,2,0c0,0,1,0,1,0l1,0c0,0,0,-1,1,-1l-1,-1c0,0,0,-1,0,-1l-1,0l-1,-1l-1,0l0,-1l0,-2c1,1,1,1,1,1c1,0,1,0,1,0c0,0,0,1,0,1c1,0,1,0,1,0c0,0,0,1,1,1c0,1,0,1,0,2c0,1,0,1,0,1c0,0,0,1,0,1c0,0,0,1,0,1ZM82.5,223.5c0,0,1,0,1,0c0,0,1,0,1,0c1,0,1,0,2,0c0,0,0,1,0,1l0,1c-1,0,-1,0,-1,0c0,0,-1,0,-1,0c0,0,0,1,-1,1c0,0,-1,-1,-1,-1l2,0c1,0,1,-1,1,-1c-1,0,-1,0,-1,0c-1,0,-1,0,-1,0c-1,0,-1,0,-1,0c0,-1,0,-1,0,-1ZM75.5,235.5l-1,-1l1,-2l1,1ZM75.5,244.5c-1,0,-1,0,-2,0c0,0,-1,0,-1,-1c0,0,-1,0,-1,-1c0,0,0,-1,0,-2l0,-1l0,-1c0,0,0,-1,0,-1c1,0,1,0,1,0l0,1c0,1,0,1,0,1c0,0,-1,0,-1,1c1,0,1,0,1,1l1,1l1,0c0,0,1,0,1,0c1,0,2,0,2,0c1,0,2,-1,2,-1l0,-1c1,0,1,0,1,0c0,0,0,-1,0,-1c0,0,-1,-1,-1,-1l0,-1l0,-1l-1,0l0,-1l1,-2c0,1,0,1,0,1c1,1,1,1,1,1c0,1,0,1,0,1c0,0,0,1,0,1c0,0,0,1,0,1c0,0,0,1,0,1c0,1,0,2,0,2c0,1,-1,1,-1,2c-1,0,-1,1,-2,1c-1,0,-1,0,-2,0ZM77.5,249.5l-4,2c0,-1,1,-1,1,-1l4,-2ZM122.5,241.5c-1,0,-1,0,-1,0c0,0,-1,0,-1,0c0,0,0,-1,0,-1c-1,0,-1,0,-1,-1l0,-1c0,1,-1,1,-1,1c-1,0,-1,0,-1,0l-1,1l0,1c0,1,-1,1,-1,1c0,1,0,1,0,2c-1,0,-1,0,-1,0c0,0,0,1,0,1c0,0,-1,0,-1,0l-1,0c0,1,0,1,0,1c-1,0,-1,0,-1,0l-1,0l-1,0l0,-1l-1,0c0,0,1,0,1,0l1,0l1,0c0,0,0,-1,0,-1c1,0,1,0,1,0c0,0,1,-1,1,-1c0,0,1,-1,1,-1c0,0,1,-1,1,-1c0,-1,0,-1,0,-1l-1,0l1,-2c1,0,1,0,1,0l1,0l0,-1l1,0l1,0c0,0,0,-1,0,-1c1,0,1,0,1,1c0,1,0,1,0,1l0,1c0,0,1,0,1,0c0,0,1,0,1,0l1,0c1,0,1,0,1,0c1,0,1,-1,1,-2l0,-2l0,-1l-1,-3l0,-2c0,0,0,-1,0,-1l1,0l0,-1l1,2c-1,1,-1,1,-1,2l0,1l0,1l1,1l0,1l0,1l0,1l-1,1l2,-1l1,-1l1,0c0,-1,0,-1,1,-1l1,0c0,0,1,0,1,1c1,0,1,0,1,1c0,1,0,1,0,1l0,1c-1,0,-1,0,-1,1c-1,0,-1,0,-1,0c-1,0,-2,1,-3,1c-1,0,-1,0,-2,0ZM130.5,237.5c-1,0,-1,0,-2,0l-1,1l-1,1l-1,0l1,0c1,0,1,0,2,0c0,0,1,0,1,0c1,0,2,-1,3,-1l0,-1c-1,0,-1,0,-1,0c0,0,-1,0,-1,0ZM123.5,225.5l5,-2l-1,0c0,1,0,1,0,1l-4,2ZM120.5,244.5l-1,-1l-1,1l-2,0l1,-2l2,1l0,-1l2,1ZM116.5,230.5c0,0,1,0,1,0c1,0,1,0,1,0c1,0,2,0,2,0l0,1l0,1c0,0,-1,0,-1,0c0,0,0,1,-1,1l-1,0l-1,0l2,-1c1,0,1,0,2,-1c-1,0,-1,0,-1,0c0,0,-1,0,-1,0c0,0,-1,0,-1,0c0,0,-1,0,-1,0c0,0,0,-1,0,-1ZM106.5,224.5l0,1l-1,0c0,0,-1,0,-1,0l0,1l0,3c0,1,0,1,0,1l0,-1l0,-1l0,-1l-1,0l0,-1c0,-1,0,-1,0,-1c1,-1,1,-1,1,-1l1,0l-1,-1l0,1c0,0,-1,0,-1,0l0,-1l1,0c0,-1,0,-1,0,-1c1,0,1,0,2,1c0,0,0,1,0,1ZM108.5,241.5l0,-1l0,-1l0,-9l1,-2l0,11c0,0,0,1,0,1c0,0,-1,1,-1,1ZM179.5,232.5l-2,-1l1,-2l2,1ZM181.5,239.5l0,1c0,0,-1,0,-1,0c0,1,-1,1,-2,1c0,0,-1,0,-1,0l-1,0l-1,0c-1,0,-1,0,-1,0l0,-1c0,0,-1,0,-1,0l-1,0c0,1,-1,1,-1,1l-1,0l-1,0c0,0,-1,0,-1,0c0,0,-1,-1,-1,-1l-2,-2c-1,-1,-1,-1,-2,-1l0,1l0,1c0,1,-1,1,-1,1c0,0,0,1,0,1c-1,0,-1,0,-1,0c-1,0,-1,0,-1,0l-1,0l-1,0c0,1,-1,1,-1,1c0,1,0,1,0,1c0,1,-1,1,-1,2l-1,0c0,1,0,1,0,1c-1,0,-1,0,-1,0c0,0,-1,0,-1,0l-1,0c-1,0,-1,0,-2,0l-1,0c0,-1,1,-1,1,-1l0,1c1,0,1,0,1,0c0,0,1,0,1,-1c1,0,1,0,2,0c0,0,0,-1,1,-1l0,-1c1,0,1,0,1,0c0,-1,0,-1,0,-1l0,-1c1,0,1,0,1,0l-1,0c-1,0,-1,0,-1,0l-1,0c0,0,0,-1,0,-1c0,0,0,-1,0,-1c0,-1,0,-1,0,-1c0,0,0,-1,0,-1l1,0c0,0,0,-1,0,-1c0,0,1,0,1,0c1,1,1,1,1,1l0,1c1,1,1,1,1,1l1,0l1,0l1,0c1,0,1,0,1,0l0,-1c1,0,1,0,1,0c0,-1,-1,-1,-1,-1c0,0,0,-1,0,-1c0,0,-1,0,-1,0c0,-1,0,-1,-1,-1c0,0,0,-1,-1,-1l-1,0c0,-1,0,-1,0,-1c0,-1,0,-1,0,-1c0,0,0,-1,0,-1c0,-1,0,-1,1,-1c0,0,1,-1,3,-1c1,-1,2,-1,4,-2c1,0,2,-1,3,-1l1,0l-1,2c-1,0,-1,0,-1,0c0,0,-1,0,-3,1c-1,0,-2,1,-4,1c-1,1,-2,1,-2,2c0,0,-1,0,-1,0l1,1c1,0,1,0,1,0c0,0,1,0,1,0l0,1l1,0c0,0,1,1,2,1c0,0,1,1,1,1c1,1,1,1,2,2l2,1l1,0c0,0,1,0,1,0c0,0,1,0,1,0c0,0,1,0,1,-1c1,0,1,0,1,0c0,0,0,1,0,1c1,0,1,0,1,0l1,0l1,0c1,0,1,0,2,0c0,0,1,0,1,-1c1,0,1,0,1,0c0,0,0,-1,0,-1l-1,0c0,0,0,1,0,1c-1,0,-1,0,-1,0c-1,0,-1,0,-1,0c0,0,0,-1,0,-1c0,0,-1,0,-1,0c0,0,0,-1,0,-1c0,0,0,-1,0,-1l1,-1c0,0,0,-1,0,-1c0,0,1,-1,1,-1c1,0,1,1,1,1c0,0,1,1,1,1l0,1l0,1c1,1,1,1,1,2l-1,1ZM178.5,235.5c0,0,0,1,1,1c1,0,1,0,1,-1l-1,0c0,-1,0,-1,0,-1l-1,0c0,1,0,1,0,1ZM177.5,225.5l4,-2c0,1,0,1,0,1l-4,2ZM174.5,244.5l-1,-1l-1,2l-2,-1l1,-2l2,1l1,-1l1,1ZM171.5,231.5l4,-2l0,1l-1,0l-4,2ZM162.5,222.5c0,0,0,-1,1,-1c1,0,1,0,1,0l0,1l0,1l0,1l0,1l-1,-1l0,1l-1,0c0,1,0,1,-1,1l-1,0l1,-1l1,0l0,-1c0,-1,0,-1,0,-1c0,-1,0,-1,0,-1ZM163.5,222.5c0,0,-1,0,-1,0l1,0l0,1l0,-1ZM155.5,238.5l0,1c1,0,1,0,1,0c0,0,1,0,1,0c0,0,-1,0,-1,0c0,-1,0,-1,0,-1l-1,0ZM144.5,235.5l-1,-1l1,-2l1,1ZM144.5,244.5c0,0,-1,0,-2,0c0,0,-1,0,-1,-1c0,0,-1,0,-1,-1c0,0,0,-1,0,-2l0,-1l0,-1c0,0,0,-1,1,-1l0,1c0,1,0,1,0,1l0,1l0,1l1,1l1,0c0,0,1,0,1,0c1,0,2,0,2,0c1,0,2,-1,2,-1l0,-1c1,0,1,0,1,0c0,0,0,-1,0,-1c0,0,0,-1,-1,-1l0,-1l0,-1l-1,-1l1,-2c0,1,0,1,0,1l1,0c0,1,0,1,0,1c0,1,0,1,0,1c0,0,0,1,0,1c0,0,0,1,0,1c1,0,1,1,1,1c0,1,-1,2,-1,2c0,1,-1,1,-1,2c-1,0,-1,1,-2,1c-1,0,-1,0,-2,0ZM142.5,225.5c1,0,1,0,1,-1c0,0,1,0,1,0c0,0,1,1,1,1c0,0,0,1,0,1l-1,0c0,0,0,1,0,1l1,0l0,1l-1,0l-1,0l0,1c-1,0,-1,0,-1,0l-1,1l-1,0l1,-1l1,0c0,0,0,-1,0,-1l1,0l0,-1l-1,0l0,-1l0,-1ZM144.5,225.5l-1,0c0,1,0,1,0,1l1,0ZM204.5,232.5l-1,-1l1,-2l1,1ZM207.5,239.5l0,1c-1,0,-1,0,-1,0c0,1,-1,1,-2,1c0,0,-1,0,-1,0l-1,0l-1,0c0,0,-1,0,-1,0c0,0,-1,0,-1,-1l-1,0c-1,1,-1,1,-2,1l-1,0c0,0,-1,0,-1,0c0,0,-1,0,-1,-1l0,-1c0,0,-1,-1,-1,-1l0,1c0,0,-1,0,-1,0l-1,0c0,0,-1,0,-1,0l-1,0l0,-1c0,-1,1,-1,1,-2c0,0,1,0,2,-1c0,0,1,0,1,0l0,-1l0,-1l1,1l0,1c0,0,0,1,0,1l0,2c0,0,0,1,0,1c1,0,1,0,1,0c1,0,1,0,1,0c1,0,1,0,2,0l1,0l0,-1c1,0,1,0,1,0c1,0,1,1,1,1c0,0,1,0,1,0l1,0l1,0c0,0,1,0,1,0c1,0,2,0,2,-1c1,0,1,0,1,0c0,0,0,-1,-1,-1c-1,0,-1,1,-1,1l-1,0c-1,0,-1,-1,-1,-1c0,0,0,-1,0,-1c0,0,0,-1,0,-1l0,-1c0,0,1,-1,1,-1c0,0,0,-1,1,-1c0,0,1,1,1,1c0,0,0,1,0,1l1,1l0,1c0,1,0,1,0,2l0,1ZM204.5,235.5c0,0,0,1,0,1l1,0l1,-1c0,0,-1,0,-1,0c0,-1,0,-1,0,-1l-1,0c0,1,0,1,0,1ZM207.5,244.5l-5,2c1,0,1,-1,1,-1l4,-2ZM200.5,244.5l-2,-1l0,2l-2,-1l1,-2l1,1l1,-1l2,1ZM192.5,236.5l-1,0l-1,1l0,1l1,0c1,0,1,-1,1,-1ZM193.5,244.5l-5,2c1,0,1,-1,1,-1l4,-2ZM251.5,232.5l-2,-1l1,-2l2,1ZM253.5,239.5l0,1l-1,0c0,1,-1,1,-1,1c-1,0,-2,0,-2,0l-1,0l-1,0c-1,0,-1,0,-2,-1c0,0,-1,-1,-1,-1l0,-9l1,-2l0,10l1,1l1,0l1,0l1,0c1,0,1,0,2,0c1,0,1,0,2,-1c0,0,0,-1,0,-1c-1,0,-1,0,-1,0c0,0,0,1,0,1c-1,0,-1,0,-1,0c0,0,-1,0,-1,0c0,0,0,-1,0,-1l-1,0c0,0,0,-1,0,-1c0,0,0,-1,0,-1l1,-1c0,0,0,-1,0,-1c1,0,1,-1,1,-1c1,0,1,1,1,1c1,0,1,1,1,1l0,1l1,1c0,1,0,1,0,2l-1,1ZM250.5,235.5c0,0,0,1,1,1c1,0,1,0,1,-1c-1,0,-1,0,-1,0c0,-1,0,-1,0,-1c0,1,-1,1,-1,1ZM249.5,225.5l4,-2c0,1,0,1,0,1l-4,2ZM243.5,224.5l4,-2l-1,1l-4,2ZM238.5,234.5l-2,-1l1,-1l2,1ZM237.5,241.5l-1,0l-1,0l-1,0c0,0,-1,0,-2,0l-1,-1c0,1,-1,1,-1,1c-1,0,-1,0,-2,0l-3,0l-1,0l-1,0l-1,0c0,0,0,-1,0,-1c0,0,-1,0,-1,0c0,-1,0,-1,0,-1c1,0,1,0,1,0l0,-1l-1,0l-1,0c0,0,-1,0,-1,1c-1,0,-1,0,-1,0l-1,1c0,0,-1,0,-1,1c0,0,-1,1,-1,2c0,1,0,1,0,2l0,1l0,1c1,0,1,0,1,0c0,1,0,1,1,1l0,1c1,0,1,0,1,0c1,0,1,0,2,0c0,0,1,1,1,1l1,0l1,0l1,0l1,0l2,-1l0,1l-4,1l-2,0c-1,0,-2,0,-3,0l-1,0c0,0,0,-1,0,-1c-1,0,-1,0,-1,-1l-1,0c0,-1,-1,-1,-1,-1c0,-1,0,-2,0,-3c0,0,0,-1,0,-2c0,-1,1,-1,1,-2c0,-1,1,-1,1,-2c1,0,2,-1,3,-1l-1,0l-1,-1l-1,0l-1,0l0,1l0,-1c0,0,0,-1,1,-1c0,0,1,0,1,0l1,0l1,0l1,0c1,0,2,0,3,0l1,0l1,0l-1,2l-1,0l-1,0l1,0c0,0,0,1,0,1l1,0c1,0,1,0,1,0l3,0c1,0,1,0,1,0c1,0,1,0,1,0l0,-1c0,-1,0,-1,0,-2c0,0,0,-1,1,-1c1,-1,1,-1,2,-1c0,0,1,0,1,1l0,1l0,1l0,1c0,1,-1,1,-1,1l1,0c1,0,1,0,1,0l1,0l1,0c1,0,1,0,2,0c0,0,1,0,1,0l0,-1l0,-1c0,0,-1,0,-1,0l0,-1l1,-1c0,0,0,1,0,1l1,0c0,1,0,1,0,1c0,1,0,1,0,1c0,1,0,1,0,1l-1,0c0,1,0,1,0,1c0,0,-1,1,-1,1c-1,0,-1,0,-2,0ZM232.5,233.5l-1,-1l1,-1l1,1ZM232.5,236.5l-1,0c0,0,0,1,0,1c0,1,0,1,1,1c0,0,1,0,1,0c0,0,0,-1,0,-1l0,-1c0,0,-1,0,-1,0ZM230.5,222.5c0,0,0,-1,0,-1c1,0,1,0,1,0c0,0,1,0,1,0l0,1l0,1l0,1l0,1l-1,-1l0,1l-1,0c0,1,-1,1,-1,1l-1,0l1,-1l1,0l0,-1c0,-1,0,-1,0,-1c0,-1,0,-1,0,-1ZM231.5,222.5l-1,0l0,1l1,0l0,-1ZM219.5,233.5l-2,-1l1,-1l1,1ZM217.5,225.5l0,-1c1,0,1,0,1,0c1,0,1,1,1,1c0,0,0,1,0,1c0,0,-1,1,-1,1l1,0l0,1l-1,0l-1,0l0,1c0,0,-1,0,-1,0l0,1l-1,0c0,0,-1,0,-1,0l1,-1l1,0c0,0,0,-1,0,-1l1,0l0,-1c-1,0,-1,0,-1,-1l1,-1ZM218.5,225.5l-1,0c0,1,0,1,0,1l1,0ZM291.5,241.5l0,-1l0,-1l-1,-9l1,-2l1,11c0,0,0,1,0,1c-1,0,-1,1,-1,1ZM283.5,239.5c1,0,1,0,1,0c0,0,1,0,1,0l1,0c0,0,0,-1,0,-1l0,-2l-1,-6l0,-1c0,0,0,-1,0,-1c0,0,1,-1,1,-1l0,1c0,1,1,1,1,1c0,0,0,1,0,1l0,1l-1,0c0,0,0,1,0,2c0,0,1,1,1,2c0,1,0,1,0,2l0,1c0,1,0,1,0,1c0,0,-1,0,-1,0c0,1,0,1,0,1c0,0,-1,1,-1,1l-1,0l-1,0l-10,0l0,1c0,0,0,1,0,1c0,0,-1,0,-1,0c0,-1,0,-1,0,-1l0,-1l-1,0c-1,0,-1,0,-1,0c-1,0,-1,0,-1,0c0,0,-1,-1,-1,-1l0,-1l0,-1l-1,0c0,1,0,1,0,1l-1,0c0,0,-1,0,-1,1l0,1l-1,0c0,1,0,1,0,1c0,1,0,1,-1,2c0,0,0,1,-1,1l-1,0c0,1,0,1,-1,1l-1,0c-1,0,-1,0,-1,0l0,-1c0,0,-1,0,-1,0l1,0c1,0,1,0,1,0l1,0c0,0,0,-1,0,-1l1,0c0,0,1,-1,1,-1c0,0,0,-1,1,-1c0,0,0,-1,1,-1c0,-1,0,-1,0,-1c0,0,-1,0,-1,0l1,-2l1,0c1,0,1,0,1,-1c1,0,1,0,1,0c1,0,1,-1,1,-1l0,1c0,1,0,1,0,1c1,0,1,0,1,1c1,0,1,0,1,0l1,0l1,0c0,0,1,0,1,0c0,0,1,-1,1,-2l0,-2l0,-1l-1,-3l0,-2c0,0,0,-1,0,-1l0,-1l2,2l-1,0c0,1,0,1,0,2l0,1l0,1l0,1l0,1l1,0l-1,1l0,1l0,1l2,-1l1,-1c1,-1,1,-1,2,-1c1,0,1,0,2,1c0,0,1,0,1,1c0,0,0,1,0,1l-1,1l-1,1l2,-1l1,0ZM281.5,238.5l-1,-1c-1,0,-1,0,-1,0c-1,0,-2,0,-2,0l-1,1l-1,1l-1,0l1,0c1,0,1,0,1,0c0,0,1,0,1,0c1,0,1,0,1,0c1,0,2,-1,3,-1ZM273.5,223.5l0,1c1,0,1,0,1,0l0,-1l0,-1l1,0l0,1c0,0,0,1,0,1c1,0,1,-1,1,-1l0,-1l0,1l0,1l0,1l-1,0l0,-1l-1,0l0,1l-1,0l0,-1l0,-1ZM277.5,220.5l-5,3c0,-1,0,-1,0,-1l6,-3ZM269.5,244.5l-2,-1l0,1l-2,0l1,-2l1,1l1,-1l2,1ZM265.5,230.5c0,0,1,0,1,0c0,0,1,0,1,0c1,0,1,0,2,0l0,1l0,1c-1,0,-1,0,-1,0c-1,0,-1,1,-1,1l-1,0c0,0,-1,0,-1,0l2,-1c1,0,1,0,1,-1c-1,0,-1,0,-1,0c-1,0,-1,0,-1,0c-1,0,-1,0,-1,0c0,0,0,-1,0,-1ZM263.5,247.5l-4,2c0,0,0,-1,0,-1l4,-2ZM335.5,228.5c0,0,-1,0,-2,1c-2,0,-3,1,-4,1c-2,1,-2,1,-3,2l-1,0c0,0,1,1,1,1l2,1c0,0,1,1,2,1c0,1,0,1,0,2c0,0,0,1,0,1c0,1,0,1,0,1c0,1,0,1,0,1c-1,0,-1,1,-1,1c0,0,-1,0,-1,0c0,0,-1,0,-1,0l-1,0c-1,0,-1,0,-2,0l-1,0l1,1l0,1c0,1,0,2,0,2c-1,1,-1,1,-2,1l-1,0c0,-1,-1,-1,-1,-2c0,0,0,-1,0,-3l-1,0c0,0,-1,0,-1,0l-1,0c-1,0,-1,0,-1,0c-1,0,-1,0,-1,0c0,-1,0,-1,0,-1c-1,0,-1,0,-2,1c0,0,-1,0,-1,0l-1,0l-4,0l-1,0c-1,0,-1,0,-1,0c-1,0,-1,0,-1,-1c0,0,-1,0,-1,-1c0,0,0,-1,0,-1l0,1c-1,0,-1,0,-1,0l-1,0l-1,0l-1,0l0,-1c0,-1,0,-1,1,-2c0,0,1,0,1,-1c1,0,1,0,1,0l0,-1l1,-1l0,1l0,1c0,0,1,1,1,1l0,2c0,0,0,1,0,1c1,0,1,0,1,0c0,0,1,0,1,0l1,0l4,0l1,0l1,0c0,0,1,0,1,0l0,-1l1,-1l0,1c0,1,0,1,1,1l1,0l1,0l1,0l1,0c0,0,0,-1,0,-1l1,-1c0,0,0,-1,0,-1c1,-1,2,-2,2,-2c0,0,1,0,1,1l0,1c0,1,0,2,-1,2c0,1,0,1,-1,2l1,0l1,0l1,-1l1,0l1,0c1,0,1,0,1,0c1,0,1,0,1,0c0,0,1,0,1,0c0,-1,0,-1,0,-1l0,-1c-1,0,-1,-1,-2,-1c0,-1,0,-1,-1,-1c-1,0,-1,0,-1,0l0,-1c-1,0,-1,0,-1,0c0,0,0,-1,0,-1l0,-1c0,-1,0,-1,0,-1c1,0,1,0,1,0c0,0,0,-1,0,-1c1,0,2,0,3,-1c1,-1,3,-1,4,-2c1,0,2,0,2,0ZM329.5,225.5l5,-2l-1,0c0,0,0,1,0,1l-4,2ZM323.5,236.5c-1,0,-1,0,-1,0c0,0,0,1,-1,1l0,1l-1,1c1,0,2,-1,3,-1c0,0,0,-1,0,-1l0,-1ZM320.5,241.5c0,1,0,1,1,1c0,1,0,2,0,2l1,0c1,0,1,0,2,0c0,-1,-1,-1,-2,-2c0,0,-1,0,-2,-1ZM320.5,228.5l5,-2l-1,1l-4,2ZM316.5,244.5l-2,-1l-1,2l-1,-1l1,-2l1,1l1,-1l2,1ZM312.5,223.5l1,0c0,0,1,0,1,0c1,0,1,0,1,0c1,0,1,0,1,0c0,0,0,1,0,1l-1,1c0,0,-1,0,-1,0c0,0,-1,1,-1,1l-1,0c0,0,0,-1,0,-1l2,0c0,0,1,-1,1,-1l-1,0c-1,0,-1,0,-2,0c0,-1,0,-1,0,-1ZM307.5,235.5l0,-1c0,0,1,0,1,-1l1,0c0,0,1,0,1,0l0,1l0,1l-1,-1c-1,0,-1,0,-1,1l1,0l0,1l1,0l1,0l0,-1l0,1l-1,0l-3,2l0,-1c0,0,1,0,1,0l0,-1c-1,0,-1,0,-1,-1ZM307.5,228.5l4,-2l0,1l-4,2ZM302.5,232.5l-1,-1l-1,1l-2,-1l1,-1l2,1l1,-1l1,1ZM303.5,236.5l-1,0l-1,0l0,1c0,0,-1,0,-1,1l1,0l1,0c0,0,0,-1,1,-1ZM303.5,244.5l-4,2c0,0,0,-1,1,-1l4,-2ZM374.5,241.5l0,-1l0,-1l0,-9l1,-2l0,11c0,0,0,1,0,1c0,0,-1,1,-1,1ZM367.5,239.5l1,0c1,0,1,0,1,0c0,0,0,-1,0,-1l0,-2l0,-6l-1,-1c0,0,1,-1,1,-1c0,0,0,-1,0,-1l0,1l1,0c0,1,0,1,1,1c-1,0,-1,1,-1,1l0,1c0,0,0,1,0,2c0,0,0,1,0,2c0,1,0,1,0,2l0,1c0,1,0,1,0,1c0,1,0,1,-1,1c0,0,0,1,0,1c-1,0,-1,0,-1,0l-1,0l-1,0l-10,0l0,1c0,0,0,1,0,1l-1,0c0,-1,0,-1,0,-1l0,-1c0,0,1,0,1,0l-1,0l-1,0c-1,0,-1,0,-1,0l-1,-1l0,-1l0,-1l0,-1c-1,1,-1,1,-2,1c0,1,0,1,-1,1c0,1,0,1,0,1l0,1c0,1,0,1,0,2c0,0,-1,1,-1,1c-1,1,-1,1,-2,2c-1,0,-1,0,-2,0c-1,0,-1,0,-2,0c0,0,-1,-1,-1,-1c0,0,-1,-1,-1,-1c0,-1,0,-1,0,-2c0,0,0,-1,0,-1l0,-1l0,-1c0,0,1,0,1,0c0,0,0,-1,0,-1c0,1,0,1,0,1c0,1,0,1,0,1l-1,1c0,1,1,1,1,1c0,1,0,1,0,1c1,0,1,0,1,1c1,0,2,0,2,0c1,0,2,0,2,0c1,-1,2,-1,2,-1c0,-1,0,-1,0,-1c0,0,1,0,1,-1c0,0,-1,0,-1,-1c0,0,0,-1,0,-1l0,-1l-1,0l0,-1l1,-2c0,0,0,1,0,1c1,0,1,1,1,1l1,0l1,0c0,-1,0,-1,1,-1c0,0,0,-1,0,-1l0,1l1,1c0,0,0,1,0,1c0,1,0,1,0,1l1,0l1,0c1,0,1,0,1,0c1,0,1,-1,1,-2l0,-2l0,-1l0,-3l-1,-2c0,0,0,-1,1,-1l0,-1l1,2c0,1,-1,1,-1,2l1,1l0,1l0,1l0,1l0,1l0,1l0,1l1,-1l1,-1l1,0c0,-1,1,-1,1,-1l1,0c0,0,1,0,1,1c1,0,1,0,1,1c0,0,0,1,0,1l0,1l-1,0l0,1l1,-1l1,0ZM364.5,238.5l0,-1c0,0,-1,0,-1,0l-1,0c-1,0,-1,0,-2,0l-1,1l0,1l-2,0l1,0c1,0,1,0,2,0c1,0,1,0,1,0c1,0,2,-1,3,-1ZM359.5,223.5l0,1c0,0,0,1,0,1l0,-1l1,0l0,-1l0,1c1,0,1,0,1,0l1,-1l0,-1l0,1l0,1c0,1,0,1,-1,1c0,0,-1,0,-1,0c0,1,-1,1,-1,1l-1,-1l0,-1l1,-1ZM359.5,244.5l-4,2c0,0,1,-1,1,-1l4,-2ZM354.5,244.5l-2,-1l0,1l-2,0l1,-2l1,1l1,-1l2,1ZM344.5,237.5l-1,-1l1,-2l1,1ZM347.5,249.5l-5,2c1,-1,1,-1,1,-1l4,-2ZM418.5,241.5c0,0,-1,0,-1,0l-1,-1l-1,0l-1,0c0,0,0,1,0,1l-1,0l-1,0c0,0,0,1,0,1l0,1c-1,0,-1,0,-1,1c0,1,0,1,-1,1l-1,1l-1,0c0,0,-1,1,-1,1c-1,0,-2,0,-3,1c-1,0,-2,0,-3,0c-1,0,-2,0,-2,0c-1,0,-2,0,-2,0c-1,0,-2,0,-2,0c-1,0,-1,0,-2,0c-1,0,-2,0,-2,-1c-1,0,-2,0,-3,0c-1,-1,-2,-1,-3,-2c-1,0,-2,-1,-3,-2l0,-1c0,1,1,1,1,1c0,0,1,0,1,1c1,0,1,0,2,0c1,1,1,1,2,1c0,0,1,0,1,1c1,0,2,0,2,0c1,0,2,0,2,0c1,0,1,0,2,0c1,0,1,0,2,0c0,0,1,0,2,0c0,0,1,0,2,0c1,0,1,0,2,0c1,0,2,0,3,-1c1,0,2,0,3,0c0,-1,1,-1,1,-1c1,-1,1,-1,1,-1c0,-1,0,-1,0,-1l0,-1l-1,-1l0,-2c1,1,1,1,1,1l1,0l1,0c0,0,1,0,1,0l1,-1c0,-1,0,-1,1,-2c0,0,1,0,1,0c0,0,1,0,1,0c0,1,0,1,0,2l1,0l0,1c0,0,-1,0,-1,1l0,1ZM416.5,238.5l1,1c0,0,0,-1,0,-1c0,0,0,-1,-1,-1c0,0,0,1,0,1ZM414.5,227.5l0,1l1,0c0,0,0,-1,0,-1l0,-1l1,1l1,-1l0,-1l0,1l0,1c0,1,0,1,-1,1l-1,0c0,1,-1,1,-1,1l-1,0c0,0,0,-1,0,-1l0,-1l1,0ZM417.5,244.5l-4,2c0,0,0,-1,0,-1l4,-2ZM411.5,244.5c0,-1,0,-1,0,0ZM399.5,242.5l-2,-1l1,-2l1,1ZM390.5,232.5l0,-1l3,-1l5,-2l5,-1l1,0l-1,1l-1,0l-2,1l-1,0l-6,2l-3,2l-1,0ZM374.5,185.5c0,-1,0,-1,1,-1c0,0,1,0,1,0c1,0,1,0,1,0c1,0,1,1,1,1c0,0,0,1,-1,1c0,0,0,1,0,1l-1,0c0,0,-1,0,-1,0c-1,0,-1,0,-1,0l2,-1c0,0,1,0,1,0c0,-1,0,-1,-1,-1c-1,0,-1,0,-2,0c0,0,0,1,0,1l0,-1ZM239.5,182.5c0,0,1,0,1,0c1,-1,1,-1,1,-1c1,0,1,0,2,1c0,1,0,1,0,1c0,1,-1,1,-1,1l-1,0l-1,0l-1,0l2,0c1,0,1,-1,2,-1c-1,0,-1,0,-1,0c0,0,-1,0,-1,0c0,0,-1,0,-1,0c0,0,-1,0,-1,0c0,0,0,-1,0,-1ZM149.5,185.5c0,0,1,0,1,0c0,0,1,-1,1,-1c1,0,1,1,2,1l0,1l0,1c-1,0,-1,0,-1,0c-1,0,-1,0,-1,0c0,0,-1,0,-1,0c0,0,-1,0,-1,0l2,0c1,0,1,-1,1,-1c-1,0,-1,0,-1,0c-1,0,-1,0,-1,0c-1,0,-1,0,-1,0l0,-1ZM61.5,181.5c1,0,1,0,1,0c1,0,1,-1,2,-1c0,0,1,1,1,1c0,0,1,0,1,0l0,1c-1,0,-1,0,-1,1l-1,0c-1,0,-1,0,-1,0l-1,0l1,0c1,0,1,-1,2,-1c0,0,-1,0,-1,0l-1,0c0,0,-1,0,-1,0l-1,0l0,-1ZM174.5,184.5c0,2,0,4,0,5l-1,0c0,1,0,1,0,1l-1,0c0,0,-1,0,-1,1l0,-1c0,0,1,0,1,0c1,0,1,-1,1,-1c0,0,0,-1,0,-1l-1,0l0,-1c0,0,-1,0,-1,0c0,0,-1,0,-1,0c0,-1,0,-1,0,-1c0,0,0,-1,0,-1c1,0,1,0,1,1c0,0,1,0,1,0c0,0,0,1,0,1c1,0,1,0,1,1c0,0,0,1,0,1c0,0,1,0,1,-1l0,-1l0,-2ZM99.5,193.5c0,0,1,0,1,-1l1,0l0,-1l0,-2l0,-6c0,-1,0,-1,0,-1c0,0,0,-1,0,-1l1,-1c0,1,0,1,0,1l0,1l1,0c0,0,0,1,-1,1c0,0,0,1,0,1c0,0,0,1,0,2c0,0,0,1,0,2c0,1,0,1,0,2l0,1l0,1l0,1c-1,0,-1,0,-1,0c0,1,0,1,0,1c0,0,-1,0,-1,0c0,0,-1,0,-1,0l-1,0c-1,0,-1,0,-1,0c0,0,-1,0,-1,0c0,0,-1,0,-1,0c0,-1,0,-1,0,-1l0,-1c0,1,-1,1,-1,1c-1,0,-2,0,-2,0c-1,0,-2,0,-2,0c-1,0,-2,0,-3,0c-1,1,-2,1,-3,1c-1,0,-2,0,-3,0c0,0,-1,0,-2,0c-1,0,-2,0,-3,0c-1,0,-2,0,-2,0l-1,0l-3,0c0,0,-1,0,-1,0l0,1l-1,0l0,1c-1,0,-1,0,-1,0c-1,-1,-1,-1,-1,-2l0,-1c0,0,-1,0,-1,0l-1,1l-1,1l0,1l1,1l0,2l0,1l0,1c0,1,0,1,0,2l0,1l0,-1l0,-1l0,-1l-1,-3l0,-1l0,-1l0,-1l0,-1c0,-1,0,-1,1,-2l1,0l0,-1l1,0l1,-1c0,1,1,2,2,2l1,0l2,1l1,0l0,-1l0,1c1,0,2,-1,2,-1c1,0,2,0,3,0c1,0,2,0,2,0c1,0,2,0,3,0c0,0,1,0,2,0c1,0,2,0,3,0c0,0,1,-1,2,-1c2,0,3,0,3,0c1,0,2,0,3,0c0,0,0,-1,0,-1l-1,-1c-1,0,-1,0,-1,0c-1,0,-3,0,-5,1c-2,0,-4,0,-6,0c-2,0,-3,0,-4,0c-2,0,-3,0,-4,0c0,0,0,-1,0,-1c0,0,0,-1,0,-1c1,-1,1,-1,1,-1c0,0,0,-1,1,-1c1,-1,2,-2,2,-2c1,-1,2,-2,3,-2c0,0,1,0,1,0l-1,2l-1,0c-1,1,-1,1,-2,2c-1,0,-2,1,-3,2l0,1c1,0,1,0,2,0c0,0,1,0,1,0c1,0,3,0,5,0c2,-1,4,-1,6,-1c2,0,3,0,4,0c1,0,2,0,2,0c1,0,1,1,1,1c0,0,0,1,0,1c0,0,0,1,0,1c0,1,0,1,-1,1c0,0,0,1,1,1l1,0l1,0ZM100.5,178.5l4,-2l0,1c0,0,-1,0,-1,0l-4,2ZM78.5,175.5c0,0,0,-1,0,-1c1,0,1,0,1,0c1,0,1,0,1,1l0,1l-1,1l1,0l0,1l-1,0l-1,0c0,1,-1,1,-1,1l-1,0l1,-1l1,0l0,-1c0,0,-1,-1,-1,-1c0,0,1,-1,1,-1ZM79.5,175.5l-1,0l0,1l1,0c0,-1,0,-1,0,-1ZM140.5,194.5l0,-1l0,-1l0,-8l0,-3l1,11c0,1,0,1,0,1c0,1,-1,1,-1,1ZM139.5,178.5l4,-3l0,1l0,1l-4,2ZM128.5,186.5l-2,-1l1,-1l2,1ZM136.5,192.5l-2,0c0,0,-1,0,-1,0l-1,0c0,0,-1,0,-1,0l-1,0l-1,1c0,0,-1,0,-1,0c0,0,-1,1,-1,1c-1,0,-2,0,-3,0c-1,0,-1,0,-1,0c-1,0,-1,-1,-1,-2c0,1,-1,1,-1,2c0,0,-1,0,-1,0l-1,0l-1,0c0,0,0,1,0,1l0,1l0,1c-1,1,-2,1,-3,2c-1,1,-2,1,-3,1l-1,0c-1,0,-1,0,-2,0c0,-1,-1,-1,-1,-1c-1,-1,-1,-2,-1,-2l0,-1c0,0,0,-1,1,-1c0,-1,0,-2,0,-3c1,0,1,0,1,0l0,2c-1,0,-1,1,-1,1c0,1,0,1,1,2l1,1c0,0,1,0,1,0c1,0,1,0,1,0c0,0,1,0,1,0c0,0,1,0,1,0c1,0,1,-1,2,-1l1,-1c0,0,0,-1,0,-1c1,0,1,0,1,0l0,-1l-2,0c0,0,-1,0,-1,0c-1,0,-1,0,-1,-1l0,-1l0,-1c1,0,1,-1,1,-1c0,0,1,-1,1,-1c0,0,1,1,1,1c0,0,1,1,1,1c0,0,0,1,0,1l0,1l1,0c1,0,1,0,1,-1c1,0,1,0,1,0c0,-1,0,-1,0,-1l0,-1c0,-1,0,-1,0,-1l0,-7l1,-2l0,11l1,1c0,1,1,1,1,1l1,0l0,-1c1,0,1,0,2,0c0,0,1,0,1,0l2,-1l1,0l-1,-1l-1,0l-1,0l-1,0c0,0,-1,0,-1,0l-1,0c0,0,1,-1,1,-1c0,-1,0,-1,1,-1l1,0c1,0,1,0,1,0l2,1l1,1c1,0,1,0,1,0c1,0,1,0,1,0c1,0,1,0,2,0l1,0ZM124.5,180.5c0,0,1,-1,1,-1c1,0,1,0,2,0c0,0,1,0,1,0c0,1,1,1,1,1l-1,0c0,1,0,1,0,1c0,1,-1,1,-1,1l-1,0l-1,0l-1,0l2,0c1,-1,1,-1,2,-1c-1,0,-1,0,-1,0c0,-1,-1,-1,-1,-1c0,0,-1,1,-1,1c0,0,-1,0,-1,0c0,-1,0,-1,0,-1ZM121.5,175.5c0,0,0,-1,0,-1c1,0,1,0,1,0c1,0,1,0,1,0l0,1l0,1l0,1l0,1l-1,0l-1,0c0,1,-1,1,-1,1l-1,0l1,-1l1,0l0,-1c0,0,0,-1,0,-1c0,0,0,-1,0,-1ZM122.5,175.5c-1,0,-1,0,-1,0l0,1l1,0c0,-1,0,-1,0,-1ZM116.5,188.5l-1,-1l-1,1l-1,-1l1,-1l1,1l1,-1l1,1ZM115.5,192.5c0,0,1,0,1,0c1,0,1,0,1,0c-1,0,-1,0,-1,0c0,-1,0,-1,0,-1c-1,0,-1,0,-1,0l0,1ZM114.5,178.5l1,0c0,-1,0,-1,0,-1l1,0c0,0,0,1,0,1c0,0,0,1,0,1c0,1,0,1,0,1l0,2l-1,-1l-1,1l-1,1l-1,0l0,-1l1,0l1,-1l1,0l-1,-1l0,-1l0,-1ZM115.5,179.5l0,-1l0,1l0,1l0,-1ZM163.5,194.5l0,-1l0,-1l0,-8l1,-3l0,11c0,1,0,1,0,1c0,1,0,1,-1,1ZM163.5,178.5l4,-2l0,1l-1,0l-4,2ZM157.5,188.5l-1,-1l1,-2l1,1ZM156.5,195.5c0,-1,0,-1,0,-1c1,0,1,0,2,-1c0,0,1,0,1,0l0,-1l0,-1c-1,0,-1,0,-1,-1l1,-1c0,0,0,1,0,1c1,1,1,1,1,1c0,0,0,1,0,1c0,0,0,1,0,1c-1,0,-1,1,-1,1c0,0,0,1,0,1c1,0,1,0,1,0c0,0,0,1,0,1l0,1l-1,0c0,0,0,1,0,1c0,0,-1,0,-1,1c-1,0,-1,0,-2,1c-1,0,-2,0,-3,0c-1,0,-1,0,-2,0c-1,0,-1,-1,-2,-1c0,0,0,-1,0,-1c-1,-1,-1,-1,-1,-1l0,-1c0,0,0,-1,1,-2c0,-1,0,-1,1,-2l0,1l-1,1c0,1,0,1,0,1c0,1,0,1,0,1c0,1,1,1,1,2c1,0,2,0,3,0c1,0,1,0,2,0l1,0c1,0,1,-1,2,-1c0,0,1,0,1,-1c-1,0,-1,0,-2,0c0,0,-1,0,-1,0c0,-1,0,-1,0,-1ZM156.5,180.5l0,1l1,0c0,0,0,-1,0,-1l0,-1l1,0l0,1c1,0,1,0,1,-1l0,1l0,1l-1,0l-1,0l0,1l-1,0l0,-1l0,-1ZM160.5,200.5l-4,2c0,0,0,-1,0,-1l4,-2ZM154.5,178.5c-1,1,-2,1,-4,1l-1,0l-1,0l0,-1c-1,1,-1,1,-1,2l-1,-1l1,0l0,-1l1,-1c1,1,2,1,3,1l1,0l1,0l1,0l0,-1ZM223.5,198.5c0,0,1,0,1,0l1,0c0,0,1,0,2,-1c1,0,1,-1,2,-1c0,0,1,-1,1,-1c0,-1,0,-1,0,-1c0,-1,0,-1,0,-1c0,0,0,-1,0,-1l0,-1l-1,0l1,-1l0,-1l0,1c0,0,1,0,1,1l0,1l0,1c0,0,0,1,0,1c0,0,0,1,0,1l-1,1c0,0,0,1,0,1c0,0,-1,0,-1,1l-1,0l0,1c-1,0,-1,0,-1,0c-1,0,-1,0,-1,0l-1,0c0,0,-1,0,-1,0c0,-1,0,-1,-1,-1ZM227.5,183.5l0,1c1,0,1,0,1,0l0,-1c0,0,0,1,1,1c0,0,0,-1,0,-1l1,-1l0,1l0,1c0,0,-1,1,-1,1c-1,0,-1,0,-1,0c-1,0,-1,1,-1,1c0,0,-1,-1,-1,-1l0,-1l0,-1ZM231.5,180.5l-6,3c0,-1,1,-1,1,-1l5,-3ZM222.5,198.5l-1,-1l1,-1l1,1ZM220.5,195.5l-1,0l-1,0c-1,0,-1,0,-1,0c0,0,-1,0,-1,0c0,-1,0,-1,0,-1c-1,0,-1,0,-1,0c0,-1,0,-1,0,-1c0,0,-1,0,-2,0c0,0,-1,0,-1,0c-1,0,-2,1,-2,1c-1,0,-2,0,-3,0c-1,0,-2,0,-3,0c-1,0,-2,0,-3,0c-1,0,-1,0,-2,0c-1,0,-2,1,-3,1c-1,0,-1,0,-2,0l-1,0l-3,0l-1,-1l0,1l0,1c0,1,-1,1,-1,1c0,0,-1,0,-1,-1c0,0,-1,-1,-1,-2c0,0,-1,0,-1,0c-1,0,-1,0,-1,0c0,0,0,1,0,1l0,1c0,1,0,1,0,1l0,3l1,2c0,0,0,1,0,1l0,1l-1,0l0,-1l0,-1l-1,-3l0,-2l0,-1l0,-1c0,-1,1,-2,1,-2l1,-1l1,0l0,-1l1,0c0,0,1,1,2,1l2,1l1,0l1,0c1,0,2,0,2,0c1,0,2,0,3,0c1,0,2,0,2,0c1,0,2,0,3,0c0,0,1,0,2,-1c1,0,2,0,2,0c1,0,2,0,3,0c2,0,3,-1,3,-1c1,0,2,0,3,0c0,-1,0,-1,-1,-1c-1,0,-1,0,-1,0c-1,0,-3,0,-5,0c-2,0,-4,0,-6,1c-2,0,-3,0,-4,0c-2,0,-3,0,-4,-1c0,-1,0,-1,0,-2c1,0,1,0,1,0c0,-1,0,-1,1,-2c1,-1,1,-1,2,-2c1,-1,2,-1,3,-2l1,0l-1,2l-1,1c-1,0,-1,1,-2,1c-1,1,-2,2,-3,2c0,0,0,1,0,1c1,0,1,0,2,0c0,0,1,0,1,0c1,0,3,0,5,0c2,0,4,0,6,-1c2,0,3,0,4,0c1,0,2,0,2,1c1,0,1,0,1,0l0,1c0,1,0,1,0,2c0,0,-1,1,-1,1l1,0l1,0l1,0l1,0c0,0,1,0,1,0c1,0,1,-1,1,-1c0,0,0,-1,0,-1l0,-1l-1,0l1,-2c0,0,0,1,1,1l0,1l0,1l0,1c0,1,0,1,0,1l-1,1l-1,0c0,1,-1,1,-1,1ZM218.5,183.5l0,1l1,0l0,-1l1,0c0,0,0,1,0,1c0,0,0,-1,1,-1l0,-1l0,1l0,1c0,0,0,1,-1,1l-1,0c0,0,-1,1,-1,1c0,0,0,-1,0,-1c-1,0,-1,0,-1,0l0,-1l1,-1ZM221.5,201.5l-4,2c1,-1,1,-1,1,-1l4,-2ZM198.5,175.5c1,-1,1,-1,1,-1c1,1,1,1,1,1c0,0,0,1,0,1c0,1,0,1,-1,1l1,0l0,2l-1,-1l-1,0l0,1c0,0,-1,0,-1,1l-1,0l-1,0l1,-1l1,0l0,-1l1,0l0,-1c0,0,-1,0,-1,-1c0,0,1,0,1,-1ZM199.5,176.5l0,-1l-1,0l0,1l1,0l0,1l0,-1ZM183.5,184.5l1,-1c0,0,1,0,1,0c1,0,1,0,2,0c0,1,0,1,0,1c0,1,0,1,-1,1c0,1,0,1,0,1l-1,0c0,0,-1,0,-1,0c-1,0,-1,0,-1,0l2,0c0,-1,1,-1,1,-1l-1,0c0,-1,0,-1,0,-1c-1,0,-1,1,-2,1c0,0,0,-1,0,-1ZM254.5,194.5l-1,0c-1,0,-1,0,-1,0l-1,-1l0,1c-1,0,-1,0,-1,0l0,1l-1,0l-1,0l-1,0l0,1c0,1,0,2,-1,2c0,1,0,1,-1,2c0,0,-1,1,-2,1c-1,0,-1,1,-2,1c-1,0,-1,0,-2,-1c-1,0,-1,0,-1,0c-1,-1,-1,-1,-1,-2c-1,0,-1,-1,-1,-1c0,-1,0,-1,0,-1c0,-1,0,-1,0,-1l1,0c0,-1,0,-1,0,-1c0,0,0,-1,0,-1l1,0c0,0,0,1,0,1c-1,0,-1,0,-1,1c0,0,0,1,0,1c0,0,0,1,0,1c1,0,1,1,1,1l1,0c1,1,1,1,2,1c1,0,2,0,2,-1c1,0,2,0,2,-1c1,0,1,0,1,0c0,0,0,-1,0,-1c0,-1,0,-1,0,-1c0,-1,0,-1,0,-1c-1,0,-1,0,-1,-1l1,-2c0,1,1,1,1,1l1,0l1,0c1,0,1,0,1,0l1,-1l0,-1c0,0,1,-1,1,-1c1,-1,1,-1,1,-1c1,0,1,0,1,1c0,0,0,1,1,1l0,1l0,1c0,1,-1,1,-1,1ZM252.5,192.5l1,0l1,0c0,0,-1,-1,-1,-1c-1,0,-1,0,-1,0c0,0,0,1,0,1ZM250.5,180.5l0,1c1,0,1,0,1,0l0,-1l1,0l0,1c1,0,1,-1,1,-1l0,-1l0,1l0,1c0,0,0,1,0,1l-1,0l-1,-1l0,1c0,0,0,1,-1,1c0,0,0,-1,0,-1l0,-1l0,-1ZM253.5,198.5l-4,2c0,-1,0,-1,0,-1l4,-2ZM242.5,192.5l-2,-1l1,-1l1,1ZM290.5,198.5l-1,-1l0,-1l2,1ZM287.5,195.5l-1,0l-5,0l-1,0c-1,0,-2,-1,-2,-1c-1,0,-1,-1,-1,-2l-1,-8l1,-3l1,10l0,1c1,1,1,1,2,1l1,0l5,0l1,0c1,0,1,0,2,0c1,0,1,-1,1,-1c0,0,0,-1,0,-1l-1,-1l1,-2c0,0,0,1,0,1l1,0l0,1l0,1l0,1c0,1,0,1,0,1c0,0,-1,0,-1,1l-1,0c-1,1,-1,1,-2,1ZM289.5,201.5l-4,2c1,-1,1,-1,1,-1l3,-2ZM282.5,188.5c0,0,1,-1,1,-1l1,0c0,0,1,0,1,0l0,1l-1,0c-1,0,-1,0,-1,0l0,1l1,0l1,0l1,0c0,0,0,1,0,1l-1,0l-3,1l0,-1c0,0,1,0,1,0c-1,0,-1,-1,-1,-1c0,0,0,-1,0,-1ZM282.5,182.5l4,-3l0,1l0,1l-4,2ZM273.5,198.5l-1,-1l-1,1l-1,-1l0,-1l2,1l1,-2l1,1ZM270.5,195.5l-1,0c0,0,-1,0,-1,-1c0,0,-1,0,-1,0c0,0,0,-1,0,-1c-1,-1,-1,-1,-1,-1c0,0,0,1,0,1c-1,0,-1,0,-1,0l-1,0c-1,0,-1,0,-1,0l-1,0l0,-2l1,-1c0,0,1,-1,2,-1c0,-1,1,-1,1,-1c0,-1,0,-1,0,-1l0,-1l1,1c0,1,0,1,0,1c0,1,0,1,0,2l0,2c1,0,1,1,1,1c1,0,1,0,1,0l1,0c1,0,1,0,2,0c0,0,1,-1,1,-1c0,0,0,-1,0,-1c0,0,-1,-1,-1,-1l1,-2c0,0,0,1,0,1l1,1l0,1c0,1,0,1,0,1c0,1,0,1,-1,1l0,1c0,0,-1,0,-1,0c-1,1,-1,1,-2,1ZM270.5,182.5l5,-3l-1,1l0,1l-4,2ZM265.5,186.5l-1,-1l-1,1l-1,-1l1,-1l1,0l1,-1l1,1ZM266.5,189.5l-1,1l-1,0c0,1,0,1,-1,1l1,0l1,0c1,0,1,0,1,0ZM261.5,201.5l5,-2c0,1,0,1,0,1l-5,2ZM263.5,198.5l5,-3c0,1,0,2,0,2l-5,2ZM336.5,198.5l-2,-1l1,-1l2,1ZM343.5,192.5l-2,0c0,0,-1,0,-1,0l-1,0c0,0,-1,0,-1,0l0,1l-1,0l-1,0c0,0,-1,1,-1,1c0,0,-1,0,-1,0c-1,0,-2,1,-2,1l-1,0c0,0,-1,0,-1,0c0,-1,-1,-1,-1,-1c0,-1,0,-1,0,-1c-1,1,-1,1,-2,1c0,1,-1,1,-1,1l-1,0l-1,0l-1,0l0,-1l-1,0c0,0,0,-1,0,-1l-1,0c0,1,0,1,0,1c-1,0,-1,0,-1,1c-1,0,-1,0,-1,0l-1,0c-1,0,-1,-1,-1,-1c0,0,-1,0,-1,-1l-3,-2l-1,-1l0,1l0,1l0,1c-1,0,-1,1,-1,1l-1,0l0,1c-1,0,-1,0,-1,0l-1,0l-1,0l-2,0c0,0,-1,0,-1,-1c0,0,-1,0,-1,0l0,1l0,1c0,1,0,1,-1,1l-1,-1c0,0,0,-1,0,-2c-1,0,-1,0,-1,0l-1,0c0,0,-1,1,-1,1l0,1c0,1,0,1,0,1l1,3l0,2c0,0,0,1,0,1l0,1l0,-1l-1,-1l0,-3l0,-2l0,-1l0,-1c0,-1,0,-2,1,-2l0,-1l1,0l1,-1c1,0,2,1,3,1l1,1l2,0l1,0l1,0c1,0,1,0,1,0c0,0,1,0,1,-1c0,-1,0,-1,0,-1l0,-1c-1,-1,-1,-1,-1,-1c0,0,-1,0,-1,-1c0,0,-1,0,-1,0c0,0,-1,0,-1,0l0,-1c0,0,-1,0,-1,0c0,0,0,-1,0,-1l0,-1l1,0c0,0,0,-1,0,-1c1,0,2,-1,3,-2c2,0,3,-1,5,-1c1,-1,2,-1,2,-1c0,0,1,0,1,0l0,1c0,0,-1,0,-1,0c-1,1,-1,1,-3,1c-1,1,-3,1,-4,2c-1,0,-2,1,-2,1c-1,0,-1,0,-1,0c0,0,0,1,0,1l1,0c1,0,1,1,1,1l1,0l1,0c0,1,1,1,1,2c1,0,1,0,2,1c1,0,1,1,2,1l1,2l1,0l1,0l1,0l1,-1l1,0c0,0,1,0,1,0c0,0,0,1,0,1c0,0,1,0,1,0l1,0l1,0c0,0,1,0,1,0c0,0,1,0,1,-1c0,0,0,-1,1,-1l0,1c0,0,0,1,1,1l1,0l1,0c1,0,2,0,2,0c1,-1,1,-1,1,-1l2,0l1,-1l-1,0l-1,0l-1,-1l-1,0l-1,0l-1,1c0,-1,1,-1,1,-2l1,0c0,-1,0,-1,1,-1c0,0,0,1,0,1c1,0,1,0,1,0l2,1l1,0c1,0,1,0,1,0c1,0,1,0,1,0c1,1,1,1,2,1l1,0ZM341.5,198.5l-5,2c1,0,1,-1,1,-1l4,-2ZM327.5,187.5c0,0,1,-1,1,-1l1,0l0,-1c0,0,1,1,1,1l0,1l-1,0c-1,0,-1,0,-1,0l0,1l1,0l1,0l1,0l0,1l-1,0l-3,1l0,-1c0,0,1,0,1,0c-1,0,-1,-1,-1,-1c0,0,0,-1,0,-1ZM326.5,177.5c0,0,0,-1,1,-1c0,0,1,0,1,0c1,0,1,0,1,0c1,0,1,1,1,1c0,1,0,1,-1,1c0,0,0,1,0,1l-1,0c0,0,-1,0,-1,0c-1,0,-1,0,-1,0l2,0c0,-1,1,-1,1,-1c0,0,0,-1,-1,-1c-1,0,-1,0,-2,1c0,-1,0,-1,0,-1ZM323.5,189.5l-2,0l0,1l-2,-1l1,-2l1,1l1,-1l2,1ZM320.5,179.5c0,0,0,-1,1,-1c1,0,1,0,1,0l0,1l0,1l0,1l0,1l-1,-1l0,1l-1,0c0,1,0,1,-1,1l-1,0l1,-1l1,0l0,-1c0,-1,0,-1,0,-1c0,-1,0,-1,0,-1ZM321.5,179.5c0,0,-1,0,-1,0l1,0l0,1l0,-1ZM311.5,175.5c1,-1,1,-1,1,-1l1,0c0,1,0,1,0,1c0,0,0,1,0,1c0,1,0,1,-1,1l1,0l0,2l-1,-1l-1,1c0,0,-1,0,-1,1l-1,0l0,-1l1,0l0,-1l1,0l0,-1c0,0,-1,0,-1,-1l1,0l0,-1ZM312.5,176.5l0,-1l-1,0l0,1l1,0l0,1l0,-1ZM366.5,185.5l-1,-1l-1,1l-2,-1l1,-1l2,1l0,-1l2,0ZM367.5,193.5c0,0,0,1,-1,1c0,0,-1,0,-1,1c-1,0,-1,0,-2,0l-1,0l-2,0c-1,-1,-1,-1,-1,-1l0,-1c-1,0,-1,0,-1,-1l0,1l-1,1c0,0,-1,0,-1,0c-1,0,-1,0,-2,0l-1,0c0,0,-1,0,-1,0l0,-1c0,0,0,-1,0,-1l0,-1c0,1,0,1,0,1c0,0,1,0,1,0l0,1l1,0l1,0l1,0c0,-1,0,-1,0,-1l1,0c1,0,1,0,1,0l0,-1l0,-1l0,-2l-1,-1l1,0l0,-2l1,2c0,0,0,1,0,1l0,3l0,1c0,0,1,0,1,1l1,0l1,0l1,0c0,0,1,0,2,0c1,0,1,-1,2,-1l0,-1c0,0,0,-1,0,-1c0,0,-1,1,-1,1c0,0,-1,0,-1,0c0,0,-1,0,-1,0c-1,-1,-1,-1,-1,-1c0,-1,0,-1,0,-2c1,0,1,0,1,0c0,-1,0,-1,0,-1c1,-1,1,-1,1,-1c1,0,1,0,1,1c1,0,1,0,1,1l0,1c0,0,1,0,1,1c0,0,0,1,0,1c0,1,0,1,0,1c-1,0,-1,1,-1,1ZM364.5,189.5c1,0,1,0,1,0c1,0,1,0,1,0c0,-1,0,-1,0,-1c0,0,-1,0,-1,0c0,0,-1,0,-1,0c0,0,0,1,0,1ZM363.5,178.5l4,-2l0,1l-4,2ZM354.5,179.5c0,0,1,0,1,0c1,0,1,0,1,0c1,0,2,0,2,0l0,1c0,0,0,1,0,1c0,0,-1,0,-1,0c0,0,0,1,0,1l-1,0l-1,0l-1,0l2,-1c1,0,1,0,2,-1c-1,0,-1,0,-1,0c0,0,-1,0,-1,0c0,0,-1,0,-1,0c0,0,-1,0,-1,0c0,0,0,-1,0,-1ZM389.5,195.5l0,-1l0,-2l0,-8l1,-3l0,11c0,0,0,1,0,1l0,1c0,0,-1,0,-1,1ZM388.5,179.5l4,-2l0,1l-4,2ZM383.5,188.5l-1,-1l1,-1l1,1ZM382.5,195.5l0,-1c1,0,1,0,2,0c0,0,1,0,1,-1c0,0,0,-1,0,-1c-1,-1,-1,-1,-1,-1l0,-1l1,0c0,0,0,-1,0,-1c0,1,0,1,0,2c1,0,1,0,1,1c0,1,0,1,0,1c-1,1,-1,1,-1,1c0,1,0,1,0,1c1,0,1,0,1,1l0,1l-1,1c0,0,-1,1,-1,1c-1,1,-2,1,-2,1c-1,0,-2,1,-3,1c-1,0,-1,-1,-2,-1c-1,0,-1,0,-2,-1l-1,-1c0,0,0,-1,0,-1l0,-1c0,0,0,-1,1,-1c0,-1,0,-2,1,-2c0,0,-1,1,-1,2l0,1c0,1,1,2,1,2c1,0,2,1,3,1c1,0,1,0,2,0c0,0,0,-1,1,-1c0,0,1,0,2,-1l1,0c-1,0,-1,-1,-2,-1c0,0,-1,0,-1,0c0,0,0,-1,0,-1ZM382.5,180.5l0,1l1,0l0,-1l1,0l0,1c1,0,1,-1,1,-1l0,-1l0,1l0,1c0,0,0,1,0,1l-1,0l0,-1l-1,1c0,0,0,1,-1,1c0,0,0,-1,0,-1l0,-1l0,-1ZM386.5,201.5l-4,2c0,-1,0,-1,0,-1l4,-2ZM53.5,223.5l0,-1c0,0,0,-1,0,-1c0,-1,-1,-2,-1,-2l1,-1l0,1c0,0,0,1,0,1l1,0l0,1l-1,0c0,1,0,1,0,1l0,1ZM52.5,225.5l0,1l1,0l0,-1l0,-1l1,0l0,1l1,0l0,-1l0,-1l1,0l0,1l0,1l0,1c-1,0,-1,0,-1,1l-1,0l0,-1l-1,1c0,0,-1,1,-1,1c0,0,0,-1,-1,-1l0,-1l0,-1ZM116.5,224.5l-6,3c0,-1,1,-1,1,-1l5,-3ZM115.5,222.5l-5,2c0,0,0,-1,0,-1l6,-3ZM48.5,280.5c0,0,1,0,1,0l0,1c0,-1,0,-1,0,-1ZM51.5,278.5l0,-1l-1,0c0,0,-1,0,-1,0l-1,0c-1,0,-1,0,-1,0l0,1c0,0,0,-1,0,-1c1,0,1,0,1,0c0,1,-1,1,-1,2c0,0,-1,1,-1,2c0,0,1,1,1,1c1,1,1,1,2,1c1,0,1,0,1,0l1,0c0,0,1,-1,1,-1c-1,0,-1,0,-2,0c-1,0,-2,0,-3,-1l0,-1c0,0,0,-1,0,-1c1,-1,1,-1,2,-1c0,0,1,0,1,0ZM343.5,289.5c0,0,-1,0,-1,0c-1,1,-1,1,-1,1c-1,0,-1,0,-2,0c-1,0,-1,0,-1,0c0,0,0,-1,0,-1c0,0,-1,0,-1,0c0,0,1,0,1,-1c0,0,1,0,1,0l1,-1c0,0,1,-1,1,-1c0,-1,0,-1,0,-1c-1,-1,-1,-1,-1,-1c0,-1,-1,-1,-1,-2c-1,0,-1,0,-2,-1c0,0,0,-1,-1,-1l-1,0c-1,0,-1,-1,-1,-1c0,-1,0,-1,0,-1c0,-1,0,-1,0,-1c0,-1,0,-1,0,-1c1,0,1,1,1,1c1,0,1,1,2,1c1,1,1,2,2,2c0,1,1,2,2,3l0,1c1,0,1,0,1,1c0,-1,0,-1,0,-2c0,0,0,-1,0,-1c1,-1,1,-2,1,-2c0,-1,0,-1,0,-2c0,0,0,-1,0,-1c-1,0,-1,0,-1,0c0,-1,0,-1,0,-1c0,0,0,-1,1,-1l0,-1c0,1,0,1,0,1c0,0,0,1,1,1c0,0,0,1,0,1c0,0,0,1,0,1c0,1,0,1,0,2c0,0,0,1,-1,1c0,0,0,1,0,1c0,1,0,2,0,2c0,1,-1,1,-1,1c0,1,0,1,1,1c0,1,0,1,0,1l0,1l0,1ZM342.5,287.5l-1,0c0,1,0,1,0,1l1,0c0,-1,0,-1,0,-1ZM267.5,288.5c0,0,-1,1,-1,1c-1,0,-1,0,-1,0c-1,0,-1,0,-2,0c-1,0,-1,0,-1,0l0,-1l0,-1c0,0,1,0,1,0l1,-1c0,0,1,0,1,-1c0,0,0,-1,0,-1c-1,0,-1,-1,-1,-1c0,0,-1,-1,-1,-1c-1,-1,-1,-1,-2,-2l-1,-1l-1,0c-1,0,-1,-1,-1,-1c0,0,0,-1,0,-1c0,0,0,-1,0,-1c0,0,0,-1,0,-1c1,0,1,1,1,1c1,1,1,1,2,2c1,0,1,1,2,2c0,0,1,1,2,2c0,0,0,1,0,1c1,0,1,1,1,1c0,0,0,-1,0,-2c0,0,0,-1,0,-1c1,-1,1,-2,1,-2c0,0,0,-1,0,-1c0,-1,0,-2,0,-2c-1,0,-1,0,-1,0c0,0,0,-1,0,-1l1,-1c0,1,0,1,1,1c0,1,0,1,0,1c0,0,0,1,0,1c0,1,0,1,0,2c0,0,0,1,-1,1c0,1,0,1,0,1c0,1,0,2,0,2c0,1,-1,1,-1,2l1,0c0,1,0,1,0,1c0,0,0,1,0,1c0,0,0,1,0,1ZM266.5,286.5l-1,0l0,1l1,0c0,-1,0,-1,0,-1ZM75.5,288.5l0,-2l0,-1l-1,-8l1,-3l1,11c0,0,0,1,0,1c-1,1,-1,1,-1,2ZM71.5,287.5c0,0,-1,0,-1,0c-1,0,-1,0,-1,0c-1,-1,-1,-1,-1,-2c0,1,-1,1,-1,2c-1,0,-1,0,-2,0c0,0,-1,0,-1,0c-1,-1,-1,-1,-1,-2c0,1,-1,1,-1,1c-1,0,-1,0,-2,0c0,0,-1,0,-1,0c0,0,-1,0,-1,0c0,0,0,-1,0,-1c0,0,0,-1,1,-1l1,-1l1,-1l1,0l1,-1l-1,0l1,-1c0,0,0,-1,0,-1l0,1l0,1l1,3l0,1c0,0,1,1,1,1c1,0,1,-1,1,-1c1,0,1,0,1,-1c0,0,0,-1,0,-2c0,-1,0,-1,0,-2c0,-1,0,-1,0,-1l0,-1l0,-1l1,3l0,2l0,1c0,0,0,1,0,1l1,0c0,1,0,1,1,1l1,0l0,-1l0,-1l0,-1l-1,-1l0,-1l0,-1l0,-1l1,0l0,1c0,0,0,1,0,1l1,2c0,1,0,1,0,2c0,0,0,1,0,2c-1,0,-1,0,-1,1ZM63.5,282.5l-1,1l-1,0c-1,1,-1,1,-1,1c1,0,1,0,2,0l1,0ZM65.5,274.5l0,1l1,0l0,-1l0,-1l1,0l0,1l1,0l0,-1l0,-1l1,0l0,1l0,1l0,1c-1,0,-1,0,-1,1l-1,0l0,-1l-1,1c0,0,-1,1,-1,1c0,0,0,-1,-1,-1l0,-1l0,-1ZM63.5,291.5l-4,2c0,-1,0,-1,0,-1l4,-2ZM112.5,291.5l-2,-1l1,-1l1,1ZM109.5,287.5l-1,0l-1,0c-1,0,-1,0,-2,0c0,-1,-1,-1,-1,-2l0,-9l1,-2l0,10l0,1l1,0c0,1,0,1,1,1l1,0l1,0c1,0,1,0,2,0c0,-1,1,-1,1,-1c0,-1,0,-1,0,-1c-1,0,-1,0,-1,0l0,-1l1,-2c0,0,0,1,0,1l0,1l1,1l0,1c0,0,-1,0,-1,0c0,1,0,1,0,1c0,1,-1,1,-1,1c-1,0,-1,0,-2,0ZM111.5,294.5l-4,2c0,-1,0,-1,0,-2l4,-1ZM105.5,291.5l-4,2c0,0,0,-1,0,-1l4,-2ZM97.5,277.5l-1,-1l1,-2l1,1ZM101.5,286.5l0,1l-1,0c0,0,-1,0,-2,1l-1,0l-1,0c-1,0,-1,0,-1,0c0,-1,0,-1,0,-1c0,-1,0,-1,0,-1c0,-1,0,-1,1,-1c0,0,0,1,0,1l1,0c0,0,1,0,1,0c0,-1,1,-1,1,-1c0,0,1,0,1,0c0,0,1,0,1,0c0,-1,0,-1,0,-1c-1,-1,-1,-1,-1,-1l0,-1l-1,0l-1,-1l-1,0l1,-2l1,0c0,0,0,1,0,1c0,0,1,0,1,0l0,1c0,0,1,0,1,1c0,0,0,1,0,1c1,0,1,1,1,1c0,1,0,1,0,1c0,1,-1,1,-1,1ZM94.5,270.5c0,-1,1,-1,1,-1c1,0,1,0,2,0c0,0,1,0,1,0c0,0,1,1,1,1l-1,0c0,0,0,1,0,1c0,0,-1,0,-1,1l-1,0l-1,0l-1,0l2,-1c1,0,1,0,2,-1c-1,0,-1,0,-1,0c0,0,-1,0,-1,0c0,0,-1,0,-1,0c0,0,-1,1,-1,1l0,-1ZM87.5,281.5l-1,-1l1,-1l1,1ZM87.5,291.5c0,0,-1,0,-1,-1c-1,0,-1,0,-2,0c0,0,0,-1,-1,-1c0,-1,0,-1,0,-2c0,0,0,-1,0,-1c0,0,0,-1,0,-1c0,0,0,-1,1,-1l0,-1l1,0c0,0,-1,1,-1,1c0,0,0,1,0,1c0,1,0,1,0,1c0,1,0,1,0,1c0,0,0,1,1,1c0,0,1,0,1,0c0,1,1,1,2,1c0,0,1,0,2,-1c0,0,1,0,1,-1c1,0,1,0,1,0c0,0,0,-1,0,-1c0,-1,0,-1,0,-1c0,-1,0,-1,-1,-1c0,0,0,-1,0,-1c0,0,0,-1,0,-1l-1,0l1,-2l1,1l0,1l0,1l1,0c0,1,0,1,0,1c0,0,0,1,0,1l0,1c0,0,0,1,-1,2c0,0,0,1,-1,1c0,1,-1,1,-2,1c0,1,-1,1,-2,1ZM90.5,295.5l-5,3c1,-1,1,-1,1,-2l4,-2ZM156.5,288.5l1,-2l0,-1l-1,-8l1,-3l0,11c0,0,0,1,0,1c0,1,0,1,-1,2ZM149.5,286.5l1,0l1,0c0,-1,0,-1,0,-1c0,0,1,0,1,-1l-1,-2l0,-6l0,-1l0,-1l1,0c0,1,0,1,0,1l1,0c0,1,0,1,-1,1c0,1,0,1,0,1c0,0,0,1,0,2c0,0,0,1,0,3c0,0,0,1,0,1l0,1c0,0,0,1,0,1c0,0,0,1,0,1c0,1,-1,1,-1,1c0,0,-1,0,-1,0c0,0,-1,0,-1,0l-1,0c-1,0,-1,0,-1,0l0,1l0,1c-1,0,-1,1,-1,1c0,0,-1,-1,-1,-1c0,-1,-1,-1,-1,-2l0,-1c0,1,-1,1,-1,1c0,0,-1,0,-1,0l-1,0l-1,0c0,1,-1,1,-1,2l0,1c0,0,-1,1,-1,1c0,0,0,1,-1,1c-1,1,-1,1,-1,1c0,0,-1,0,-1,0l-1,0c-1,0,-1,0,-2,-1l-1,0c1,0,1,0,1,0c1,0,1,0,1,0c0,0,1,0,1,0c1,0,1,-1,2,-1l1,0c0,-1,0,-1,0,-1c1,0,1,-1,1,-1c0,0,0,-1,0,-1c1,0,1,0,1,0l-1,0c0,0,0,-1,0,-1c-1,0,-1,0,-1,0l-1,0l0,-1l0,-1l0,-1l1,-1c0,0,1,0,1,0c1,0,1,0,1,0c0,1,0,1,0,1c0,0,0,1,0,1c1,0,1,1,1,1c0,0,1,0,1,0c0,0,1,0,1,0l1,0c0,-1,1,-1,1,-1c0,0,0,-1,0,-1l1,0c0,0,1,1,1,1c1,0,1,1,2,1l1,0ZM149.5,270.5c0,-1,0,-1,1,-1c0,0,1,0,1,0c1,0,1,0,2,0c0,0,0,1,0,1c0,0,0,1,0,1c-1,0,-1,0,-1,1c-1,0,-1,0,-1,0c0,0,-1,0,-1,0c0,0,-1,0,-1,0l2,-1c0,0,1,0,1,-1c-1,0,-1,0,-1,0c-1,0,-1,0,-1,0c-1,0,-1,1,-1,1l0,-1ZM142.5,278.5l4,-2c0,1,0,1,0,1l-4,2ZM137.5,285.5c0,1,0,1,0,1c1,0,1,0,1,0c0,0,1,0,1,0c0,0,-1,-1,-1,-1l-1,0ZM133.5,277.5c0,0,1,-1,1,-1c0,0,1,0,1,0c1,0,1,0,2,0c0,0,0,1,0,1c0,1,0,1,0,1c-1,0,-1,1,-1,1c0,0,-1,0,-1,0l-1,0l-1,0l2,0c1,-1,1,-1,2,-1c-1,0,-1,-1,-1,-1c-1,0,-1,0,-1,0c0,0,-1,0,-1,1c-1,0,-1,0,-1,0c0,-1,0,-1,0,-1ZM131.5,280.5l-2,-1l-1,1l-1,-1l1,-1l1,1l1,-1l1,1ZM127.5,288.5l0,-1l1,0c1,0,1,0,1,0c1,0,1,-1,1,-1c0,0,0,-1,0,-1c0,-1,0,-1,-1,-1c0,0,0,-1,1,-1l0,-1c0,1,1,1,1,1c0,1,0,1,0,2c0,1,0,1,0,1c0,1,0,1,-1,1c0,0,0,1,0,1l1,0c0,0,0,1,0,1c0,1,0,1,0,1l0,1c0,0,-1,0,-1,0c0,0,0,1,-1,1c-1,0,-1,1,-2,1c-1,0,-2,0,-3,0c-1,0,-1,0,-2,0c-1,0,-1,0,-1,-1c-1,0,-1,0,-1,-1c0,0,-1,-1,-1,-1c0,-1,0,-1,0,-1c0,0,1,-1,1,-1c0,-1,0,-2,1,-2l0,-1c0,1,0,1,0,1c0,0,0,1,0,1c-1,1,-1,1,-1,2c1,1,1,1,1,2c1,0,2,1,3,1c1,0,1,0,1,0c0,0,1,0,1,-1c0,0,1,0,1,0c1,0,1,0,2,-1c0,0,1,0,1,0c0,-1,-1,-1,-2,-1c0,0,-1,0,-1,0c0,-1,0,-1,0,-1ZM128.5,271.5c0,2,0,2,-1,2l0,-1c0,0,0,-1,0,-1l0,-1l0,-1l0,-1l0,1l1,1l0,1ZM67.5,270.5c0,1,0,2,-1,2l1,0l0,-1c0,-1,0,-1,-1,-1l0,-1l0,-1l0,-1l1,1l0,1l0,1ZM195.5,284.5c0,0,0,1,0,1c1,0,1,0,1,0c0,-1,0,-1,0,-1l-1,0ZM195.5,291.5c0,0,0,1,0,1c0,0,-1,0,-1,0c0,0,-1,0,-2,0c0,0,-1,0,-2,0l0,-1l1,0c0,0,1,0,1,0l1,0c0,0,1,0,1,0c0,-1,1,-1,1,-1c0,-1,0,-1,1,-1c0,0,0,-1,0,-1c1,-1,1,-1,1,-2c0,0,-1,0,-1,0c0,1,0,1,0,1c0,0,-1,0,-1,0l-1,-1c0,0,0,-1,0,-1c0,0,0,-1,0,-1c0,-1,0,-1,0,-1c1,-1,1,-1,1,-1c0,0,0,-1,1,-1c0,0,0,1,0,1c1,0,1,0,1,1c0,1,1,1,1,1c0,1,0,1,0,2c0,0,0,1,0,1c-1,1,-1,1,-1,2c0,1,-1,1,-1,1c0,1,0,1,-1,1ZM192.5,278.5l5,-2l-1,0c0,1,0,1,0,1l-4,2ZM189.5,288.5l0,-2l0,-1l-1,-8l1,-3l1,11c0,0,0,1,-1,1c0,1,0,1,0,2ZM188.5,267.5c0,-1,0,-1,1,-1c0,0,0,-1,0,-1l1,0c0,1,0,1,0,1l0,1l0,1l0,1l0,1l-1,-1l0,1l-1,0c0,1,0,1,-1,1l-1,0l1,-1l1,0l0,-1l1,0l-1,0l0,-1l0,-1ZM189.5,267.5l-1,0c0,0,1,0,1,0l0,1l0,-1ZM184.5,286.5l-1,0l-1,0l-1,0l-2,0c0,0,-1,0,-1,0l-1,0l-1,0c0,0,0,1,0,1l-1,0l-1,0l-1,0c0,1,0,1,0,1c0,0,1,0,1,0c0,0,1,1,2,1l1,0c0,1,0,1,0,1c0,1,0,1,0,1c0,0,-1,1,-1,1c0,1,-1,1,-2,1c-2,1,-3,1,-4,1c-1,0,-1,0,-1,0c0,0,-1,0,-1,0c-1,-1,-2,-1,-2,-1c-1,-1,-1,-1,-1,-1c0,-1,0,-2,0,-2l0,-1c0,0,0,-1,0,-1c0,-1,1,-2,1,-2l1,0c-1,0,-1,1,-1,2l0,1c0,1,0,2,1,2c1,1,1,1,2,1c0,0,1,0,1,0c0,0,1,0,1,0l1,0l1,0c0,0,1,0,1,-1c0,0,1,0,1,0c1,0,1,0,1,-1c0,0,-1,0,-1,0c-1,0,-2,0,-3,-1l0,-1c0,-1,0,-1,1,-1l0,-1c0,0,1,0,1,0l1,0c0,-1,1,-1,1,-1l1,0l1,0l1,0c-1,-1,-2,-1,-2,-1l-1,0c0,0,-1,0,-1,0l-1,0l-1,0c0,0,1,-1,1,-1c0,-1,0,-1,1,-1l1,0l1,0l1,0l1,1l1,1c1,0,1,0,1,0l1,0l1,0l1,0ZM177.5,277.5c0,-1,1,-1,1,-1c1,0,1,0,2,0c0,0,1,0,1,0c0,0,0,1,0,1c0,1,0,1,0,1c0,0,-1,1,-1,1l-1,0l-1,0l-1,0l2,-1c1,0,1,0,2,0c-1,-1,-1,-1,-1,-1c0,0,-1,0,-1,0c0,0,-1,0,-1,0c0,1,-1,1,-1,1c0,-1,0,-1,0,-1ZM174.5,295.5l-5,2c1,0,1,0,1,0c0,0,0,-1,0,-1l4,-2ZM280.5,284.5l-1,0c0,0,1,1,1,1c1,-1,1,-1,1,-1c0,0,-1,0,-1,0ZM280.5,291.5c0,0,0,1,-1,1c-1,0,-1,0,-2,0c-1,0,-1,0,-2,0l-1,-1c1,0,1,0,1,0l1,0l1,0c0,0,1,0,1,0c1,-1,1,-1,2,-1c0,-1,0,-1,0,-1c0,0,1,-1,1,-1c0,-1,0,-1,0,-2c0,1,0,1,-1,1l-1,0l0,-1c0,0,-1,0,-1,0c0,0,0,-1,0,-1c0,0,0,-1,0,-1c1,-1,1,-1,1,-1c0,-1,0,-1,1,-1c0,0,0,-1,0,-1c1,0,1,1,1,1l1,1c0,1,0,1,0,1c0,1,0,1,0,2c0,0,0,1,0,1c0,1,0,1,-1,2c0,1,0,1,0,1c0,1,-1,1,-1,1ZM277.5,278.5l4,-2c0,1,0,1,0,1l-4,2ZM273.5,288.5l0,-2l0,-1l0,-8l1,-3l0,11c0,0,0,1,0,1c0,1,-1,1,-1,2ZM258.5,269.5l4,-2l0,1l-1,0l-4,2ZM268.5,270.5c0,-1,0,-1,1,-1l1,0l1,0c0,0,0,1,0,1l0,1c-1,0,-1,0,-1,0c-1,0,-1,0,-1,0l-1,0l1,0c1,0,1,0,2,-1c-1,0,-1,0,-1,0l-1,0l-1,0ZM255.5,291.5l-2,-1l1,-1l2,1ZM252.5,286.5c1,0,1,0,2,0c0,-1,1,-1,1,-1c0,-1,0,-1,0,-1l0,-1l-1,0l1,-2c0,0,0,1,0,1l1,0l0,1l0,1l0,1c0,1,0,1,-1,1c0,1,-1,1,-1,1c-1,0,-1,0,-2,0l-1,0l0,1l0,1c-1,0,-1,1,-1,2c0,0,-1,0,-1,0c0,1,0,1,0,1c-1,0,-1,1,-2,1c-1,0,-1,0,-1,0l-1,0c0,0,-1,0,-1,0c-1,0,-1,0,-1,-1l1,0c1,0,1,0,2,0c0,0,1,0,1,-1c0,0,1,0,1,0c0,0,0,-1,0,-1c1,0,1,-1,1,-1c0,0,1,-1,1,-1c0,-1,0,-1,0,-1c0,0,-1,0,-1,0c0,-1,0,-1,0,-1l0,-1l1,0l0,-1l0,1l0,1c1,0,1,0,1,0ZM252.5,277.5c0,0,0,-1,1,-1l1,0c0,0,1,0,1,0c1,0,1,1,1,1c0,1,-1,1,-1,1c0,0,0,1,0,1c-1,0,-1,0,-1,0c-1,0,-1,0,-1,0l-1,0l1,0c1,-1,2,-1,2,-1c0,0,0,-1,-1,-1l-1,0l-1,1l-1,0c0,-1,0,-1,0,-1c0,0,1,0,1,0ZM246.5,274.5l4,-2l0,1l-4,2ZM242.5,283.5c0,0,-1,0,-1,0c-1,0,-2,0,-3,1c-1,0,-2,1,-2,2l1,0c0,0,1,0,1,0c1,0,2,-1,2,-1c2,0,3,-1,3,-1l-1,-1ZM233.5,286.5l2,0c1,-1,2,-2,3,-3c1,-2,3,-2,4,-2c0,0,1,0,1,0c0,1,0,1,1,1c0,0,0,1,0,1l0,1c-1,0,-1,0,-1,1c0,1,-1,1,-3,2c-1,0,-3,0,-5,0l-1,0l0,1c0,0,-1,0,-1,0c0,1,0,1,0,1c0,1,0,1,-1,2c-1,1,-3,2,-7,2c-2,1,-5,1,-7,1c-1,0,-3,0,-5,0c-1,0,-2,0,-3,-1c-1,0,-1,0,-2,0c0,0,0,-1,-1,-1c0,0,-1,-1,-2,-1l-1,-1l0,-1c-1,0,-1,0,-1,0l1,0c2,1,5,2,7,3c1,0,1,0,2,0l1,0c1,0,2,0,4,0c2,0,4,0,6,0c1,0,2,0,3,-1c1,0,1,0,1,0l1,0l1,0c1,-1,2,-2,3,-2c0,-1,0,-1,0,-2l-1,-1c0,-1,-1,-1,-1,-1l1,0l0,-1l1,1ZM211.5,278.5l1,0l3,-1l5,-2l5,-2l1,0l-2,2l-1,0l-1,0l-1,1l-6,2l-4,1ZM349.5,288.5l0,-2l0,-1l-1,-8l1,-3l1,11c0,0,0,1,0,1c-1,0,-1,0,-1,0c0,1,0,1,0,2ZM333.5,269.5l4,-2l0,1l-4,2ZM343.5,270.5c0,-1,1,-1,1,-1c0,0,1,0,1,0c0,0,1,0,1,0c0,0,1,1,1,1c-1,0,-1,0,-1,1l-1,0c-1,0,-1,0,-1,0c0,0,-1,0,-1,0l2,0c0,0,1,0,1,-1c0,0,-1,0,-1,0c-1,0,-1,0,-1,0c0,0,-1,0,-1,0ZM329.5,286.5c0,0,-1,0,-2,0c-1,0,-2,1,-4,1c-1,0,-2,0,-2,0c-1,0,-1,0,-1,0c-1,0,-1,0,-1,0c-2,0,-3,0,-5,0c-1,0,-2,0,-3,0c-1,0,-2,0,-3,0l-1,0l-1,0c0,0,-1,0,-2,0c0,0,-1,1,-1,1c-1,0,-1,0,-2,0l-1,-1l-1,-1l-1,1l-1,0l-1,0c-1,0,-1,0,-2,0l-1,0c0,0,0,-1,0,-1c0,-1,0,-1,0,-1l-1,0c0,0,0,1,0,1l-1,0l-1,0c0,0,-1,0,-1,0l-1,0l0,-2c0,0,1,-1,1,-1c1,0,1,-1,2,-1c1,-1,1,-1,1,-1l0,-1l1,-1l0,1c0,1,0,1,0,1c0,1,0,1,0,1l1,3l0,1l1,0l1,0l1,0c0,0,1,0,1,0l1,-1l0,-1c1,-1,2,-2,3,-2l0,1l1,0l0,1l1,1c1,1,1,1,1,1l1,0l1,0c0,0,1,0,1,0l1,0c1,0,2,0,3,0c0,0,2,0,3,0c1,0,2,0,4,-1l1,0c1,0,2,0,3,0c2,0,3,0,4,0c2,0,3,0,3,0c0,-1,0,-1,0,-1c0,0,0,-1,-1,-1c-1,0,-1,0,-1,0c-1,0,-3,0,-5,0c-2,1,-3,1,-5,1c-2,0,-4,0,-5,0c-2,0,-3,0,-4,0c0,-1,0,-1,0,-1c0,-1,0,-1,1,-2c0,-1,1,-1,1,-2c1,0,2,-1,2,-2c1,0,2,-1,3,-1c0,0,1,0,1,0l-1,1c0,0,0,1,-1,1c-1,0,-1,1,-2,1c-1,1,-2,2,-2,2c0,0,0,1,-1,1l1,0c0,0,1,0,1,0c0,0,1,0,1,0l1,0c1,0,2,0,4,0c2,0,4,0,6,0c2,0,3,-1,4,-1l0,1c1,0,2,0,2,0c1,0,1,0,1,0c0,0,0,1,0,1l0,1c0,0,0,1,0,1c0,1,0,1,-1,1ZM315.5,270.5c1,-1,1,-1,1,-1c1,0,1,0,2,0c0,0,1,0,1,0c0,0,1,1,1,1c-1,0,-1,1,-1,1l-1,1c-1,0,-1,0,-1,0l-1,0l1,-1c1,0,1,0,2,-1c0,0,-1,0,-1,0l-1,0c0,0,-1,0,-1,0l-1,1l0,-1ZM303.5,286.5l-1,-1c0,0,0,-1,0,-1l-1,0l-1,1c0,0,1,0,1,0l1,1ZM299.5,274.5l4,-2l0,1l-4,2ZM292.5,282.5l-1,1c-1,0,-1,1,-1,1l1,0c1,0,1,0,1,0l1,-1ZM289.5,274.5l4,-2l0,1l-4,2ZM405.5,284.5c0,0,0,1,1,1c0,-1,0,-1,0,-1l-1,0ZM406.5,291.5c-1,0,-1,1,-1,1c0,0,-1,0,-1,0c0,0,-1,0,-1,0l-1,0c0,0,-1,0,-1,0c-1,0,-1,0,-1,-1l1,0c1,0,1,0,1,0c0,0,1,0,1,0c0,0,1,0,1,0c0,-1,1,-1,1,-1c0,-1,1,-1,1,-1c0,0,0,-1,0,-1c1,-1,1,-1,1,-2l-1,0c0,1,0,1,0,1l-1,0l0,-1c-1,0,-1,0,-1,0c0,0,0,-1,0,-1c0,0,0,-1,0,-1c0,-1,0,-1,1,-1c0,-1,0,-1,0,-1c0,0,1,-1,1,-1c0,0,0,1,1,1l0,1l1,0c0,1,0,1,0,1c0,1,0,1,0,2c0,0,0,1,0,1c0,1,-1,1,-1,2c0,1,0,1,-1,1c0,1,0,1,0,1ZM403.5,278.5l4,-2c-1,1,-1,1,-1,1l-4,2ZM399.5,288.5l0,-2l0,-1l0,-8l0,-3l1,11c0,0,0,1,0,1c0,1,-1,1,-1,2ZM399.5,267.5l0,-1c1,0,1,0,1,0c1,0,1,0,1,0c0,0,0,1,0,1l0,1c0,0,0,1,0,1l0,1l-1,0l-1,1l-1,0l0,1l-1,0l0,-1l1,0c0,0,0,-1,1,-1l0,-1c0,0,0,-1,0,-1l0,-1ZM400.5,267.5c0,0,-1,0,-1,0c0,0,0,1,1,1ZM394.5,291.5l-1,-1l1,-1l1,1ZM392.5,286.5c0,0,1,0,1,0c1,-1,1,-1,2,-1c0,-1,0,-1,-1,-1l0,-1l1,-2c0,0,0,1,0,1l0,1l0,1l0,1c0,1,0,1,0,1c-1,1,-1,1,-2,1l-1,0l-1,0l-1,0l0,1l0,1c0,0,0,1,-1,2c0,1,-1,1,-1,1c0,0,-1,1,-1,1l-1,0l-1,0c-1,0,-1,0,-2,0l-1,-1c1,0,1,0,1,0l1,0c0,0,1,0,1,0c1,0,1,0,2,-1c1,0,1,-1,1,-1c0,0,0,-1,1,-1c0,0,0,-1,0,-1c1,-1,1,-1,1,-1l-1,0c0,-1,0,-1,0,-1l0,-1l0,-1l0,1l1,0l0,1l1,0ZM391.5,277.5c0,0,1,-1,1,-1c1,0,1,0,1,0c1,0,1,0,2,0c0,0,0,1,0,1c0,1,0,1,0,1c0,0,-1,1,-1,1l-1,0l-1,0l-1,0l2,0c1,-1,1,-1,2,-1c-1,0,-1,-1,-1,-1c0,0,-1,0,-1,0c0,0,-1,0,-1,1c0,0,-1,0,-1,0c0,-1,0,-1,0,-1ZM389.5,298.5l-4,2c0,-1,1,-1,1,-1l4,-2ZM356.5,278.5l1,0c0,0,0,-1,1,-1l1,0l0,1l-1,0c0,0,-1,0,-1,0l1,1l1,0c0,0,1,0,1,0c0,1,0,1,0,1l-4,1l1,-1c0,0,-1,0,-1,-1l0,-1ZM383.5,278.5c0,1,0,1,-1,1c-1,0,-1,0,-2,1c-1,1,-1,1,-1,2c1,0,1,0,1,0l1,1c0,0,1,0,1,0c0,0,1,0,1,0c0,1,0,1,0,1l0,1l-1,1l-1,1c0,0,-1,0,-2,1c0,0,-1,0,-2,0c0,0,-1,1,-1,1c-1,0,-1,0,-2,0c0,0,-1,0,-1,0c0,0,-1,0,-1,0l-1,0c0,1,-1,1,-2,1c-1,0,-2,0,-2,0c-1,0,-1,-1,-2,-1c0,0,-1,0,-1,0c-1,0,-2,0,-2,0c-1,0,-2,-1,-2,-1c-2,0,-3,-1,-4,-2l-1,-1c0,0,0,-1,0,-1c1,0,1,1,1,1c0,0,1,0,1,0c1,1,1,1,2,1c1,0,1,0,1,0c1,1,1,1,2,1c1,0,2,0,3,1c1,0,3,0,4,0c1,0,2,0,3,0c0,0,1,-1,2,-1c1,0,2,0,3,0c1,0,2,-1,3,-1c1,-1,1,-1,2,-1c0,0,0,-1,-1,-1l-1,0c-1,0,-1,0,-1,0c-1,0,-1,-1,-1,-1l0,-1l0,-1c0,-1,0,-1,1,-1c0,0,0,-1,0,-1c1,0,1,-1,1,-1c1,-1,1,-1,1,-1c1,0,1,0,1,0c0,0,1,0,1,0c0,1,0,1,0,1ZM365.5,272.5c0,-1,0,-1,1,-1c0,0,0,-1,0,-1l1,0c0,0,0,1,0,1l0,1l0,1l0,1l0,1l-1,-1l0,1l-1,0c0,0,0,1,-1,1l-1,0l1,-1l1,0l0,-1l1,0l-1,0l0,-1l0,-1ZM366.5,272.5l-1,0c0,0,1,0,1,0l0,1l0,-1ZM259.5,365.5l1,0c0,-1,0,-1,1,-1c0,0,1,1,1,1c1,0,1,0,1,0l0,1c0,0,-1,0,-1,0c0,1,0,1,0,1c-1,0,-1,0,-1,0c-1,0,-1,0,-1,0l-1,0l1,0c1,0,2,-1,2,-1c0,0,-1,0,-1,0l-1,0l-1,0l-1,0l0,-1l1,0ZM238.5,363.5c0,0,1,0,1,0c1,0,1,0,1,0c1,0,1,0,2,0c0,1,0,1,0,1l0,1c0,0,-1,0,-1,0c0,0,-1,0,-1,1l-1,0l-1,0l2,-1c1,0,1,0,2,-1c-1,0,-1,0,-1,0c0,0,-1,0,-1,0c0,0,-1,0,-1,0c0,0,-1,0,-1,0c0,-1,0,-1,0,-1ZM223.5,371.5c1,0,1,0,1,0c1,0,1,0,2,0c0,0,1,0,1,0c1,0,1,0,1,0c0,1,0,1,0,1c-1,0,-1,0,-1,1l-1,0l0,1c-1,0,-1,0,-1,0l-1,0l1,-1c1,0,2,0,2,-1c0,0,-1,0,-1,0l-1,0c0,0,-1,0,-1,0l-1,0c0,-1,0,-1,0,-1ZM176.5,367.5l1,0c0,0,1,0,1,0c1,0,1,0,2,0c0,1,0,1,0,1l-1,1c-1,0,-1,0,-1,1c0,0,-1,0,-1,0c0,0,-1,0,-1,0l2,-1c0,0,1,0,1,-1c-1,0,-1,0,-1,0c-1,0,-1,0,-2,0c0,-1,0,-1,0,-1ZM334.5,384.5l-1,0c0,0,-1,0,-1,0c0,0,-1,0,-1,0c-1,0,-1,0,-1,0l-1,0c0,-1,0,-1,0,-1c0,-1,0,-1,0,-1c1,0,1,0,1,0c0,1,0,1,0,1c1,-1,1,-1,1,-1c0,0,1,0,1,-1c0,0,1,0,1,-1c0,0,-1,0,-1,-1l-1,0c0,-1,0,-1,-1,-2c0,0,-1,-1,-1,-1c-1,-1,-1,-1,-1,-1c0,0,-1,-1,-1,-1c0,1,0,1,0,1c-1,0,-1,0,-1,-1c0,0,-1,0,-1,-1c0,-1,0,-1,0,-1c0,0,0,-1,0,-1c0,0,1,0,1,0l1,1c0,0,1,1,1,1c1,1,2,1,2,2c1,1,1,1,2,2c0,1,1,1,1,1c0,1,0,1,0,1c0,0,1,0,1,-1c0,-1,0,-1,0,-2c0,-1,0,-1,0,-2l0,-1c0,-1,0,-1,0,-2c0,-1,0,-1,0,-1c0,-1,0,-1,1,-1c0,1,0,1,0,1c0,0,1,1,1,1l0,1c0,0,-1,0,-1,0c0,1,0,1,0,1c0,0,0,1,0,1c0,1,0,1,0,2c0,0,0,1,0,1c0,1,-1,1,-1,2c0,0,0,1,0,1l0,1l0,1l0,1c0,0,0,1,0,1ZM333.5,381.5l0,1c-1,0,-1,0,-1,0l1,0l1,0ZM326.5,367.5l0,-1c0,0,0,-1,0,-1c0,-1,0,-2,0,-2l0,-1c0,0,0,1,1,1c0,0,0,1,0,1l0,1l0,1c0,0,-1,0,-1,1ZM142.5,378.5c0,1,0,2,-1,2c0,0,0,1,0,1l0,1c0,0,-1,0,-1,0l1,1l-1,1l-1,0l0,1c0,0,-1,0,-1,1l-1,0l-1,0l-1,0l0,1l-1,0l0,1l-1,0c0,1,0,1,0,1l-3,0l-3,0c-1,-1,-1,-1,-1,-1l-1,-1l-1,-1c-1,0,-1,0,-2,0l0,-1l-1,0l-1,0l0,-1l-1,0l0,-1l-1,0l1,-1l0,-1l-1,0l0,-1l0,-1l0,-1l0,-1c0,-1,0,-1,0,-2c0,0,1,0,1,0l0,-1l-1,0c0,0,0,-1,0,-1l1,0l1,-1l1,-1l1,0l1,-1l1,0c1,0,1,0,1,0l0,-1l1,-1l1,0l3,0l3,0l1,1l1,1l2,1l1,0l1,0l0,1l1,0c1,1,1,1,1,1l1,1c-1,0,-1,0,-1,0l-1,0l1,0l0,1l0,1l1,0l0,1ZM133.5,388.5l1,-1l1,-1c1,0,1,0,1,0c0,0,1,0,1,0l0,-1c1,0,1,0,2,0l0,-1c1,0,1,0,1,0l0,-1l1,0l-1,-1l0,-1l1,0l0,-1l0,-1l0,-1c0,-1,0,-1,0,-2l0,-1l-1,0l0,-1l1,-1c0,0,-1,0,-1,0l-1,-1l-1,-1l-2,0l-1,-1c0,0,-1,0,-1,0l-1,-1l0,-1l-1,0l-2,0l-1,0l-2,0l-1,0l0,1l-1,1l-2,1l-1,0l-1,0l0,1l-1,0l0,1c-1,0,-1,0,-2,0l2,1l-1,1l-1,1l0,1c0,1,0,1,0,1l0,1l0,1l1,1l0,1l1,0l-2,1l1,0l1,1l1,1l1,0l1,1l1,0c1,0,1,0,1,1l1,0l0,1c0,0,1,0,1,0l3,0ZM138.5,373.5l0,1l-1,-1l-1,0l0,-1l-1,0l0,-1l1,1c1,0,1,0,1,0c0,0,1,0,1,1ZM139.5,383.5l-1,0l0,1l-1,0l0,1l-1,0l-1,0c0,-1,0,-1,0,-1c1,0,1,0,1,0l1,0c0,-1,1,-1,1,-1ZM134.5,385.5c0,0,0,1,0,1c-1,0,-1,0,-1,0l-3,0l-3,0c-1,0,-1,0,-1,0c-1,-1,-1,-1,-1,-1c0,0,1,-1,1,-1l1,0l3,0l3,0l1,0l0,1ZM134.5,371.5c0,1,0,1,0,1c0,0,-1,0,-1,0l0,1l-3,0l-3,0l0,-1c-1,0,-1,0,-1,0l-1,-1c0,0,1,0,1,-1l1,0l3,0l3,0l1,0c0,0,0,1,0,1ZM133.5,374.5l1,-1l1,0l1,1l1,0l0,1l1,-1c0,0,0,1,1,1l0,1l0,1l1,1l0,1l-1,0c0,0,0,1,0,1l0,1c0,0,-1,1,-1,1l-1,-1c0,0,0,1,0,1l-1,0l0,1l-1,0l-1,0c-1,0,-1,0,-1,0l0,-1l-3,0l-3,0l0,1l-1,0l-1,0c0,0,-1,0,-1,0c0,0,-1,-1,-1,-1l-1,-1l-1,1l0,-1l-1,-1l0,-1l0,-1c0,0,0,-1,0,-1l0,-1l1,0l0,-1c0,0,0,-1,0,-1l2,1l0,-1l1,0c0,-1,1,-1,1,-1c0,0,1,0,1,0l0,1l1,0l3,0ZM133.5,382.5l1,1l1,0l1,0l0,-1l1,-1l1,0l1,0l0,-1l0,-1l0,-1c0,0,0,-1,0,-1c0,-1,0,-1,0,-2c-1,0,-1,0,-1,0l-1,0l-1,-1l-1,0c-1,0,-1,0,-1,0l-1,0l-3,0l-3,0l-1,0l-1,0l-1,0l-1,0l0,1l-1,0l-1,0l0,1l-1,1l0,1c0,1,0,1,0,1l0,1l1,0c0,1,0,1,0,1l1,0c1,0,1,0,1,1l1,0l0,1l1,0c1,0,1,0,1,0c0,-1,0,-1,1,-1l3,0l3,0ZM131.5,376.5l0,1l1,0l0,1l0,1l0,1l0,1c0,0,0,-1,-1,-3c-1,0,-1,0,-1,0c0,-1,0,-1,0,-1c0,-1,1,-1,1,-1ZM131.5,377.5l-1,0l1,1l0,-1ZM128.5,377.5l-1,1l1,0l0,1l-1,1c0,0,1,0,1,0l1,0c0,1,-1,1,-1,1c-1,0,-1,-1,-1,-1l0,-1l1,0l-1,0l0,-1c0,-1,0,-1,0,-1c1,0,1,0,1,-1ZM121.5,373.5l1,0l0,-1l1,0l1,0l0,-1l1,0l-1,0l0,1l1,0c-1,0,-1,0,-1,0l-1,0l0,1l-1,0l0,1l-1,0l0,-1ZM121.5,383.5l1,0l1,1l1,0l0,1l-1,0c0,0,-1,-1,-1,-1l-1,0l0,-1ZM212.5,380.5l-1,0l-1,0l-1,-1l0,1l-1,0l0,1l-1,0l-2,0l0,1c0,0,0,1,0,1c-1,0,-1,1,-1,1c0,0,-1,1,-1,1c0,0,-1,0,-1,1l-1,0c-1,0,-1,0,-1,0c-1,0,-1,0,-2,0c0,0,-1,-1,-1,-1c0,0,1,0,1,0l1,0c0,0,1,0,1,0c0,0,1,0,1,-1c1,0,1,0,1,0c0,-1,1,-1,1,-1c0,0,0,-1,1,-1l0,-1c-1,0,-1,0,-1,0c-1,-1,-1,-1,-1,-1l-1,0c0,-1,0,-1,0,-1c0,-1,0,-1,0,-1c1,0,1,0,1,-1c0,-1,0,-1,1,-1c1,0,1,0,1,0l1,1c0,0,0,1,0,1c0,0,0,1,0,1c1,0,1,0,1,0c1,0,1,0,1,0l1,0l1,-1l1,-1c0,0,0,-1,1,-1c0,-1,0,-1,1,-1l0,1c1,0,1,1,1,1l0,1l0,1c0,1,0,1,-1,1ZM211.5,378.5l1,0c0,0,0,-1,0,-1c0,0,-1,0,-1,0l-1,0c0,0,0,1,0,1l1,0ZM209.5,369.5l0,1c0,0,1,0,1,0l0,-1l0,1c1,0,1,0,1,0c0,0,0,-1,0,-1l0,-1l1,0l0,1l0,1c0,0,-1,1,-1,1l-1,0c-1,0,-1,1,-1,1c0,0,-1,-1,-1,-1l0,-1l0,-1ZM210.5,364.5l0,-1c1,0,1,0,1,0c1,0,1,0,1,0c0,0,0,1,0,1l0,1c0,0,0,1,0,1l0,1l-1,0l-1,1l-1,0c0,0,-1,1,-1,1c0,0,0,-1,0,-1c1,0,2,-1,2,-2c0,0,0,-1,0,-1ZM211.5,364.5c-1,0,-1,0,-1,0c0,0,0,1,0,1l1,0ZM201.5,372.5l0,-1c1,0,1,0,1,-1c1,0,1,0,1,0c0,0,1,0,1,0c0,0,0,1,0,1l0,1l-1,0l0,-1c-1,0,-1,1,-1,1c0,0,0,1,1,1l1,0c0,0,1,0,1,0l-1,1l-3,1l0,-1l1,0c-1,0,-1,-1,-1,-2ZM203.5,378.5l-1,0l0,1c1,0,1,0,1,0l1,0c0,-1,0,-1,0,-1c-1,0,-1,0,-1,0ZM199.5,366.5l1,0c0,0,1,0,1,0c1,0,1,0,1,0c1,0,1,0,1,1l-1,1c0,0,-1,0,-1,0c0,1,0,1,0,1c0,0,-1,0,-1,0l-1,0l2,-1c0,0,1,0,1,-1l-1,0c-1,0,-1,0,-2,0c0,0,0,-1,0,-1ZM196.5,380.5c0,0,-1,0,-1,0l-1,0l-1,0l0,-1l-1,1l-1,1l-1,0l-1,0c0,0,-1,0,-1,0c0,0,0,-1,0,-1c0,0,-1,0,-1,0c0,0,0,-1,0,-1l-1,0l0,1c-1,0,-1,0,-1,0c-1,1,-1,1,-1,1l-1,0l-1,0c0,-1,-1,-1,-1,-1c0,0,-1,-1,-1,-1l0,-1l0,-1c0,0,-1,1,-2,1c0,1,0,1,0,1l0,1c-1,0,-1,1,-1,1l0,1l-1,0c0,1,0,1,-1,1c0,0,-1,0,-1,1c0,0,-1,0,-1,0c-1,0,-2,1,-3,1c-1,0,-2,0,-3,0c-1,0,-2,0,-2,0c-1,0,-2,0,-2,0c-1,0,-2,0,-2,0c-1,0,-1,0,-2,0c-1,0,-2,0,-3,0c0,0,-1,-1,-2,-1c-1,0,-2,-1,-3,-1c-1,-1,-2,-2,-3,-2c0,-1,0,-1,0,-1c0,0,1,0,1,0c0,0,0,1,1,1c0,0,1,0,2,1c1,0,1,0,2,0c0,1,1,1,1,1c1,0,2,0,2,0c1,0,1,1,2,1c1,0,1,0,2,0c1,0,1,0,2,0c0,0,1,0,2,0c0,0,1,0,2,0c1,0,1,-1,2,-1c1,0,2,0,3,0c1,0,2,-1,2,-1c2,-1,3,-1,3,-2l0,-1l-1,0c0,-1,0,-1,0,-1c0,0,0,-1,0,-1c0,0,-1,0,-1,0l1,-2l1,1l1,0c0,0,1,0,1,0c0,0,1,0,1,-1l0,-1l1,0c0,0,0,1,0,1l0,1l0,1l0,1l1,1c0,0,1,0,1,0c1,0,1,0,1,0c1,0,1,0,2,-1c1,0,1,0,1,0l1,0c0,0,0,1,0,1c0,0,1,0,1,0l1,0l1,0c0,0,1,0,1,0l0,-1l1,-1c0,0,0,-1,1,-1c0,-1,1,-1,1,-1l1,1c0,0,0,1,0,1l0,1l1,0l-1,1c0,1,0,1,0,1ZM194.5,378.5l1,0c0,0,0,-1,0,-1l-1,0c0,0,0,1,0,1ZM195.5,384.5l-4,2c0,-1,0,-1,0,-1l4,-2ZM186.5,376.5l-1,-1l0,-1l2,1ZM188.5,384.5l-4,2c0,-1,0,-1,0,-1l4,-2ZM182.5,384.5l-1,-1l-1,1l-1,-1l0,-1l2,1l1,-2l1,1ZM164.5,379.5l-1,-1l1,-2l1,1ZM155.5,371.5l3,-1l6,-2l4,-2l1,0l-1,2l-1,0l-1,0l-2,1l-6,2l-3,1l-1,0ZM253.5,368.5l-2,1c-1,0,-2,1,-3,1c-2,1,-3,1,-3,1c0,1,-1,1,-1,1l1,0l0,1l2,0c0,1,1,1,1,2c1,0,1,1,1,1c0,1,0,1,0,2c0,0,0,1,0,1c0,0,0,1,-1,1c-1,0,-1,0,-1,1c-1,0,-1,0,-2,0l-1,0c0,0,-1,0,-1,0c0,0,0,-1,0,-1c0,0,-1,0,-1,0c0,0,0,-1,0,-1l-1,0l0,1c-1,0,-1,0,-1,0c-1,1,-1,1,-2,1l-1,0c0,0,-1,0,-1,0c0,-1,-1,-1,-1,-1c0,-1,0,-1,0,-1c0,1,-1,1,-1,1c-1,0,-1,0,-1,1l-1,0c-1,0,-2,0,-2,-1c0,0,-1,0,-1,0c0,0,0,1,-1,1c0,0,-1,0,-1,0c-1,0,-2,-1,-2,-1l0,1c-1,1,-1,1,-2,2c0,0,-1,0,-2,0c-1,0,-2,1,-3,1l4,-2l1,-1c1,0,1,-1,2,-1l1,-2c0,0,0,-1,0,-1c0,0,1,0,1,-1l1,0c0,0,0,1,1,1c0,1,1,1,1,2l1,0l1,0c0,0,1,0,1,0c0,0,1,0,1,-1c1,0,1,-1,1,-1l0,1c0,0,0,1,1,1c0,0,1,0,1,0l1,0c1,0,1,0,1,0c1,0,1,0,2,-1c1,0,1,0,1,0c1,0,1,0,1,0c0,0,0,1,0,1c0,0,1,0,1,0l1,0l1,0c0,0,1,0,1,0c0,0,1,0,1,0c0,0,0,-1,1,-1c0,-1,0,-1,-1,-1c0,-1,-1,-1,-1,-2c-1,0,-1,0,-1,0c0,0,0,-1,-1,-1l-1,0c0,0,0,-1,0,-1l0,-1l0,-1l0,-1c1,0,1,0,1,0c0,0,1,-1,3,-2c1,0,3,-1,4,-1c1,0,1,-1,2,-1ZM248.5,361.5l1,0c0,-1,0,-1,0,-1l1,0c0,1,0,1,0,1c0,1,0,1,0,1l0,1l0,2l-1,-1l-1,1c0,0,0,1,-1,1l-1,0l1,-1c0,0,1,0,1,-1l1,0l-1,-1l0,-1l0,-1ZM249.5,362.5l0,-1l0,1l0,1l0,-1ZM241.5,376.5l-1,-1l0,-1l2,1ZM236.5,375.5l-2,-1l-1,1l-1,-1l1,-1l1,1l1,-2l2,1ZM233.5,365.5c0,0,1,-1,1,-1l1,0l0,1l0,1l0,1l1,0l-1,1l-1,-1l0,1l-1,0c0,1,0,1,0,1l-1,0l-1,0l1,0l0,-1c0,0,1,0,1,0l1,-1l-1,0c0,-1,0,-1,0,-1c0,-1,0,-1,0,-1ZM234.5,365.5l0,1l0,-1ZM228.5,379.5l0,-1c0,0,-1,0,-1,0c-1,0,-1,0,-1,1l1,0l1,0ZM271.5,381.5l0,-1l0,-2l0,-8l1,-2l0,10c0,0,0,1,0,1l0,1l-1,1ZM274.5,385.5l-4,1c1,0,1,-1,1,-1l4,-2ZM263.5,374.5l-2,0l1,-2l2,1ZM263.5,384.5c-1,0,-2,0,-2,0c-1,-1,-1,-1,-1,-1c-1,0,-1,-1,-1,-1c-1,-1,-1,-1,-1,-2c0,0,0,-1,0,-1l0,-1l1,0l0,-1c0,-1,0,-1,1,-1c0,1,0,1,0,1c-1,1,-1,1,-1,1c0,1,0,1,0,1c0,1,0,1,0,1c1,1,1,1,1,1l1,0c0,1,0,1,0,1c1,0,1,0,2,0c1,0,1,0,2,0c1,-1,1,-1,2,-2l0,-1c0,0,0,-1,0,-1c0,-1,0,-1,0,-1c0,0,0,-1,-1,-1l0,-1l0,-2c1,0,1,0,1,1c0,0,0,1,0,1c0,0,1,0,1,1l0,1c0,0,0,1,0,1l0,1c0,0,0,1,0,2c-1,0,-1,1,-2,1c0,1,-1,1,-1,1c-1,1,-2,1,-2,1ZM300.5,379.5c0,0,1,0,1,0c0,0,1,0,1,0l0,-1c1,0,1,0,1,0l0,-2l-1,-7c0,-1,0,-1,0,-1c0,-1,0,-1,1,-1l0,1l1,1l0,1c0,0,-1,0,-1,0c0,1,0,1,0,2c0,0,0,1,0,3c0,0,0,1,1,1l0,1c0,0,-1,1,-1,1c0,1,0,1,0,1l0,1l-1,0c0,0,-1,1,-1,1l-1,0l-1,0c0,0,-1,0,-1,-1l-1,-1l-2,-2c-1,0,-1,0,-1,-1l-1,0l0,1l0,1l0,1c0,0,0,1,-1,1c-1,0,-1,0,-1,1c0,0,-1,0,-1,0l-1,0l-3,0l-1,-1l0,1l0,1c-1,1,-1,1,-1,1c0,0,-1,0,-1,-1c0,0,-1,-1,-1,-2c0,0,-1,0,-1,0l-1,0c0,0,0,1,0,1l0,1c0,1,0,1,0,1l0,3l1,2c0,0,0,1,0,1l0,1l-1,0l0,-1l0,-1l-1,-3l0,-2l0,-1l0,-1c0,-1,1,-2,1,-2l1,-1l1,0l0,-1l1,0c0,0,1,1,2,1l2,1l1,0l1,0l1,0c0,0,1,0,1,0c1,0,1,0,1,-1c0,0,1,0,1,0c0,0,0,-1,0,-1l-1,-1c0,0,0,-1,-1,-1l-1,-1l-1,0c-1,0,-1,0,-1,-1c0,0,0,-1,0,-1l0,-1c0,0,0,-1,0,-1c0,0,1,0,1,0c0,0,1,-1,3,-2c1,0,2,-1,4,-1c1,-1,2,-1,3,-1l1,0l-1,1c-1,0,-1,0,-1,1c0,0,-1,0,-2,0c-2,1,-3,1,-4,2c-2,1,-3,1,-3,1c0,1,-1,1,-1,1l1,0c1,0,1,1,1,1c1,0,1,0,1,0l1,0c1,1,1,1,2,2c0,0,1,0,1,1c1,0,1,1,2,1l2,2l1,0ZM302.5,363.5l0,1l1,0c0,0,0,-1,0,-1l0,-1l0,1c0,0,1,0,1,0l1,-1l0,-1l0,1l0,1c0,1,0,1,-1,1c0,0,-1,0,-1,0c0,1,-1,1,-1,1l-1,0c0,0,0,-1,0,-1l0,-1l1,0ZM306.5,360.5l-6,3c1,-1,1,-2,1,-2l5,-3ZM292.5,361.5l1,0c0,-1,0,-1,0,-1l1,0c0,1,0,1,0,1c0,1,0,1,0,1l0,1l0,2l-1,-1l-1,1c0,0,0,1,-1,1l-1,0l0,-1l1,0c0,0,1,0,1,-1l1,0l-1,-1l0,-1l0,-1ZM293.5,362.5l0,-1l0,1l0,1l0,-1ZM279.5,370.5l1,-1c0,0,1,0,1,0c1,0,1,0,1,1c1,0,1,0,1,0c0,1,0,1,-1,1c0,1,0,1,0,1c0,0,-1,0,-1,0c0,0,-1,0,-1,0l-1,0l2,0c0,-1,1,-1,1,-1l-1,0c0,0,0,-1,0,-1c-1,0,-1,1,-2,1c0,0,0,-1,0,-1ZM332.5,365.5l3,-2c0,1,0,1,0,1l-3,2ZM322.5,384.5l-2,-1l0,1l-2,-1l1,-1l2,1l0,-1l2,0ZM319.5,381.5l-1,0c-1,0,-1,0,-2,0c0,-1,0,-1,0,-1c-1,0,-1,-1,-1,-1c0,-1,0,-1,0,-1c-1,1,-1,1,-1,1l-1,0l-1,0l-1,0l0,-2l1,-1c0,0,1,-1,1,-1c1,0,1,-1,1,-1c0,-1,0,-1,0,-1l1,0l0,-1l0,1c0,1,0,1,0,2l0,1l1,2c0,0,0,1,0,1c0,0,1,0,1,0l1,0l1,0c0,0,1,0,1,0c1,0,1,0,2,-1c0,0,0,-1,-1,-1c0,0,0,-1,0,-1l1,-2c0,1,0,1,0,1c0,0,0,1,0,1l0,1c0,1,0,1,0,1l0,1l0,1c-1,0,-1,0,-2,0c0,1,-1,1,-1,1ZM319.5,368.5l4,-2l0,1l-4,2ZM314.5,372.5l-1,-1l-1,1l-2,-1l1,-1l2,0l0,-1l2,1ZM315.5,375.5l-1,0l0,1l-1,0c-1,1,-1,1,-1,1l1,0l1,0l1,0ZM311.5,365.5l5,-3c0,1,0,2,0,2l-5,2ZM313.5,362.5l5,-3c0,1,0,1,0,1l-5,3ZM209.5,147.5l0,-1l0,-1l0,-8l1,-3l0,11c0,1,0,1,0,1c0,1,0,1,-1,1ZM202.5,146.5l1,-1c1,0,1,0,1,0l0,-1l0,-2l0,-6c0,-1,0,-1,0,-1c0,0,0,-1,0,-1l0,-1c1,1,1,1,1,1l0,1l1,0c0,0,-1,1,-1,1c0,0,0,1,0,1c0,0,0,1,0,2c0,0,0,1,0,2c0,1,0,1,0,2l0,1l0,1l0,1c-1,0,-1,0,-1,0c0,1,0,1,0,1c0,0,-1,0,-1,0l-1,0l-1,0c0,1,0,1,0,1c-1,1,-1,2,-1,2c0,1,0,1,-1,1c0,0,0,1,0,1c-1,0,-1,0,-1,1c-1,0,-1,0,-1,0c-1,0,-1,0,-1,0l-1,0c0,0,-1,0,-1,-1c-1,0,-1,0,-1,0l1,0c1,0,1,0,2,0c0,0,1,-1,1,-1c0,0,1,0,1,0c0,-1,0,-1,1,-1c0,-1,0,-1,0,-1c0,-1,1,-1,1,-1c0,-1,0,-1,0,-1c0,0,0,-1,-1,-1l0,-1c1,-1,1,-1,1,-1c0,1,0,1,0,1l1,0l1,1ZM197.5,136.5l0,1c0,0,1,0,1,0l0,-1l0,-1l1,1c0,0,1,0,1,-1l0,1l0,1l-1,0l-1,0l0,1c0,0,-1,0,-1,0l-1,-1l1,-1ZM201.5,133.5l-6,3c1,-1,1,-2,1,-2l5,-2ZM193.5,145.5l-1,0l-1,0c-1,0,-1,0,-2,0l-1,0l-1,0l-1,1c-1,0,-1,0,-1,0c-1,0,-1,1,-2,1c0,0,-1,0,-2,0l-1,0l-1,0c-1,-1,-1,-1,-1,-1c0,0,-1,1,-1,1c0,0,-1,0,-1,0l-1,0c-1,0,-1,0,-2,0l0,-1c-1,1,-1,1,-1,2l-1,0l-1,-1c-1,0,-1,0,-1,0l-1,0l0,1c0,0,-1,1,-1,1c-1,0,-1,1,-2,1c-1,0,-3,0,-4,0l4,-2l2,-1c0,0,1,0,1,-1l1,-1c0,-1,0,-1,1,-2l1,0c0,0,1,0,1,1c1,1,1,1,1,1c1,0,1,0,1,0c0,1,1,1,1,1c1,0,1,0,1,-1c1,0,1,0,1,0c0,0,1,0,1,0c0,-1,0,-1,0,-1l0,1c0,0,1,0,1,0c1,0,1,1,1,1l1,0c0,0,1,0,1,-1c0,0,1,0,2,0l1,0l1,-1l1,0l-1,-1l-1,0l-1,0l-1,0l-1,0c0,0,0,-1,0,-1c1,-1,1,-1,1,-1c0,0,1,0,1,0l1,0l1,0l2,1l1,1l1,0l1,0c0,0,1,0,1,0l1,0ZM185.5,150.5l-4,2c0,0,1,0,1,-1l4,-2ZM179.5,150.5l-1,-1l-1,2l-1,-1l0,-2l2,1l1,-1l1,1ZM171.5,146.5l0,-1c0,0,0,-1,-1,-1l0,1l-1,0c0,0,1,0,1,1l1,0ZM170.5,153.5l-4,2c0,-1,1,-1,1,-1l4,-2ZM259.5,147.5l0,-1l0,-1l-1,-8l1,-3l1,11c0,1,0,1,0,1c-1,1,-1,1,-1,1ZM251.5,146.5c0,0,1,0,1,-1c0,0,1,0,1,0l1,0l0,-1l0,-2l-1,-6c0,-1,0,-1,0,-1c0,0,0,-1,0,-1c0,0,1,0,1,-1c0,1,0,1,0,1l0,1c0,0,1,0,1,0c0,0,0,1,0,1c0,0,0,1,-1,1c0,0,0,1,0,2c0,0,0,1,1,2c0,1,0,1,0,2l0,1l0,1l-1,0l0,1c-1,1,-1,1,-1,1l-1,0l-1,0c0,0,-1,0,-1,0c0,1,0,1,0,1c0,1,0,2,-1,2c0,1,0,1,0,1c0,0,-1,1,-1,1c0,0,-1,0,-1,1c0,0,-1,0,-1,0c0,0,-1,0,-1,0c-1,0,-1,0,-2,-1l-1,0c1,0,1,0,1,0l1,0c0,0,1,0,1,0c1,0,1,-1,1,-1c1,0,1,0,1,0c0,-1,1,-1,1,-1c0,-1,0,-1,1,-1c0,-1,0,-1,0,-1c0,-1,0,-1,0,-1c0,0,0,-1,0,-1l0,-1c0,-1,0,-1,0,-1c0,1,0,1,0,1l1,0l1,1ZM246.5,136.5l0,1c0,0,1,0,1,0l0,-1l1,-1l0,1l1,0l0,-1l0,1l0,1l-1,0l-1,1c-1,0,-1,0,-1,0l0,-1l0,-1ZM250.5,133.5l-5,3c0,-1,0,-2,0,-2l6,-2ZM233.5,142.5c1,0,1,-1,1,-1l1,0l1,0c0,0,1,0,1,0c0,0,1,0,1,0l-1,-1l-1,0l-1,0c0,-1,-1,-1,-1,-1c-1,0,-1,0,-1,0l0,1c0,-1,1,-1,1,-2c0,0,1,0,1,0c1,0,2,0,3,1l2,1c0,0,0,1,0,1l1,0l1,0l0,1l1,0l1,0l1,0l-1,1l-2,0l-1,0l-2,0l-1,-1c-1,0,-2,0,-2,0l-1,0l-1,0c0,1,1,1,1,2l0,1c0,1,0,1,0,1c0,0,-1,0,-1,1l-1,0c0,-1,-1,-1,-1,-1l-1,0c0,0,-1,1,-1,1l-1,0l-1,0l-1,0l0,1l0,1c0,1,0,1,-1,2c0,1,0,1,-1,2c0,0,-1,0,-2,1c-1,0,-1,0,-2,0c-1,0,-1,0,-2,0c-1,0,-1,-1,-1,-1c-1,0,-1,0,-1,-1c-1,-1,-1,-1,-1,-2l0,-1c0,0,1,-1,1,-1c0,-1,0,-1,0,-1c0,0,1,0,1,-1l0,1l0,1c-1,0,-1,0,-1,0c0,0,0,1,0,1c0,1,0,1,0,1l0,1c1,0,1,0,1,0c0,1,0,1,1,1c1,0,1,0,2,0c1,0,2,0,3,0c0,0,1,-1,1,-1c1,0,1,0,1,-1c0,0,0,-1,0,-1c0,0,0,-1,0,-1c0,-1,-1,-1,-1,-1l0,-1l1,-2l0,1c0,0,1,1,1,1l1,0l1,0c1,0,1,0,1,-1l1,0l0,-1c1,-1,1,-1,1,-2l1,0ZM233.5,133.5c0,0,1,-1,1,-1c1,0,1,0,2,0c0,0,1,0,1,0c0,1,1,1,1,1l-1,0c0,1,0,1,0,1c0,1,-1,1,-1,1l-1,0l-1,0l-1,0l2,0c1,-1,1,-1,2,-1c-1,0,-1,0,-1,0c0,-1,-1,-1,-1,-1c0,0,-1,1,-1,1c0,0,-1,0,-1,0c0,-1,0,-1,0,-1ZM232.5,144.5l1,1l1,0l0,-1c-1,0,-1,0,-1,0c0,0,-1,0,-1,0ZM228.5,139.5c0,0,0,-1,0,-2c0,0,0,-1,0,-1l0,-1c0,0,1,0,1,1c0,0,0,1,0,1l0,1c0,0,0,1,0,1l-1,0ZM222.5,145.5l-2,-1l1,-2l2,1ZM224.5,157.5l-4,3c0,-1,0,-1,1,-2l4,-2ZM283.5,147.5l0,-1l0,-1l0,-8l1,-3l0,11c0,1,0,1,0,1c0,1,-1,1,-1,1ZM279.5,147.5c-1,0,-1,0,-1,0c0,0,-1,0,-1,-1c-1,0,-1,-1,-1,-1c0,0,0,1,-1,1c0,1,-1,1,-2,1c0,0,-1,0,-1,0c-1,-1,-1,-2,-1,-3l0,1c0,0,-1,1,-1,1c0,0,-1,0,-2,0c0,0,-1,0,-1,0l0,-1c0,0,0,-1,0,-1c0,0,0,-1,1,-1c0,0,1,-1,1,-1l1,0l1,-1l0,-1c0,-1,0,-1,0,-1l0,1l1,1l0,3c0,1,0,1,0,1c1,0,1,0,2,0l1,0c0,0,0,-1,0,-1c0,-1,0,-1,0,-3c0,0,0,-1,0,-1c0,0,0,-1,0,-1l0,-1l0,-1l1,2l0,2l0,2c1,1,1,1,1,1c0,0,0,1,1,1l1,0c0,-1,0,-1,0,-1c0,0,0,-1,0,-1l0,-2l-1,-1l0,-1l1,-1l0,-1c0,1,0,1,0,1c0,1,0,1,0,2l1,2c0,0,0,1,0,1c0,1,0,2,0,2c0,1,-1,1,-1,1c0,0,0,1,0,1ZM271.5,142.5l-1,0c0,1,0,1,0,1c-1,0,-1,0,-1,0c0,0,-1,1,-1,1c1,0,2,0,2,0c0,0,1,0,1,-1ZM318.5,151.5l-2,-1l1,-1l2,1ZM315.5,146.5c1,0,1,0,2,-1c0,-1,0,-1,0,-1c0,-1,0,-1,-1,-2l-1,0c0,-1,0,-1,0,-2c0,0,1,0,1,-1c0,1,0,1,1,1c0,1,0,1,0,1l1,1l0,1c0,0,0,1,0,1l0,1c0,0,0,1,0,1l-1,1l-1,0l-1,0l-1,0l0,-1c-1,0,-1,0,-1,0c0,0,0,-1,0,-1c0,1,-1,1,-1,1c0,1,-1,1,-1,1c-1,0,-1,-1,-2,-1c-1,1,-1,1,-2,1c-1,0,-1,0,-2,-1c-1,1,-1,1,-2,1l-1,0c0,0,-1,0,-1,0c-1,0,-1,0,-1,-1c0,1,0,1,-1,2c0,0,-1,0,-2,-1c0,0,-1,0,-1,0l-1,1c0,0,0,1,-1,1c0,0,-1,1,-2,1c-1,0,-2,0,-4,0l5,-2l1,-1c1,0,1,0,2,-1l0,-1c1,-1,1,-1,1,-2l1,0c1,0,1,0,1,1c1,1,1,1,2,1c1,1,1,1,1,1l1,0l1,0l0,-1c1,0,1,-1,2,-1l0,1c0,0,1,0,1,1c1,0,1,-1,2,-1l1,-1l0,-1c0,1,0,1,0,2c0,0,1,0,1,0c1,0,1,0,1,0c0,0,0,-1,1,-1l0,-1c1,2,1,3,2,3ZM318.5,153.5l-4,2c0,0,1,-1,1,-1l3,-2ZM174.5,135.5c0,0,1,0,1,0c0,0,1,0,1,0c1,0,1,0,2,0l0,1c0,0,0,1,0,1c-1,0,-1,0,-1,0c0,0,0,1,0,1c-1,0,-1,0,-1,0c0,0,-1,0,-1,0c0,0,-1,0,-1,0l2,-1c1,0,1,0,1,-1c-1,0,-1,0,-1,0c-1,0,-1,0,-1,0c-1,0,-1,0,-1,1l0,-1l0,-1ZM306.5,136.5c1,0,1,0,1,0c1,0,1,0,2,0c0,0,1,0,1,0c0,0,1,0,1,1l-1,0c0,0,0,1,0,1c0,0,-1,0,-1,0l0,1l-1,0l-1,0l-1,0l2,-1c1,0,1,0,2,-1c-1,0,-1,0,-1,0c0,0,-1,0,-1,0c0,0,-1,0,-1,0c0,0,-1,0,-1,0c0,0,0,-1,0,-1ZM299.5,146.5l0,-1l-1,0c0,0,0,-1,0,-1l-1,1l1,1ZM271.5,151.5l-4,2c0,0,0,-1,0,-1l4,-2ZM298.5,153.5l-4,2c0,-1,0,-1,0,-1l4,-2ZM155.5,146.5c0,1,0,1,-1,2l0,1c-1,1,-1,1,-1,1l1,0l0,1l-1,0l0,1l-1,0l0,1c0,0,-1,0,-2,0l-1,1l-1,0l-1,0l0,1l-1,1l0,-1l1,0l0,-1l1,0c0,0,1,0,1,-1l1,0c1,0,1,0,2,-1c0,0,1,-1,1,-1l1,0l0,-1l-1,0l0,-1l1,0l0,-1l0,-1l0,-1c0,-1,0,-2,0,-2c0,0,0,-1,0,-1c0,0,-1,-1,-1,-1l1,-1c0,0,-1,0,-1,-1l-1,0l0,-1l-1,0l-2,-1l-1,0c0,0,-1,0,-1,-1l-1,-1l0,-1l0,1l1,0l0,1l1,0l0,1l2,0l1,1l1,0l0,1l1,0c1,0,1,1,1,1l-1,1l1,0l0,1l0,1l1,0l0,1ZM151.5,141.5l-1,0l0,-1l-1,0c0,0,-1,0,-1,0l0,-1l1,0c1,1,1,1,1,1c0,0,1,0,1,0l0,1ZM151.5,151.5l0,1l-1,0l-1,1l-1,0l0,-1c0,0,1,0,1,0l1,-1c0,0,1,0,1,-1l0,1ZM147.5,153.5l0,1c-1,0,-1,0,-1,0l0,-2l1,0l0,1ZM147.5,139.5c0,0,0,1,0,1c0,0,-1,0,-1,0l0,-2l1,0l0,1ZM146.5,142.5l0,-1c1,0,1,0,1,0c1,0,1,0,2,0c0,0,0,1,0,1l1,1l1,-1l1,1l0,1l0,1l0,1l0,1l0,1c0,1,0,1,0,1c-1,0,-1,0,-1,1l-1,-1l0,1l-1,0l-1,1l-1,0c-1,0,-1,-1,-1,-1c1,0,1,0,1,0l1,0l1,0l1,-1l1,0l1,-1l0,-1l0,-1c0,-1,0,-1,0,-2c0,0,0,-1,-1,-1l0,-1l-1,1l-1,-1l-1,-1l-1,0l-1,0c0,0,0,1,0,1ZM135.5,146.5l0,-1l0,-1l1,-1l0,-1l-1,-1c0,0,1,0,1,0l0,-1l1,0l1,-1l1,0l1,-1l2,0l0,-1l1,-1c1,0,1,-1,1,-1l0,1l-1,0l0,1c-1,1,-1,1,-1,1l-2,0l-1,1l-1,0l0,1l-1,0c0,0,-1,1,-1,1l1,1l-1,0l0,1l0,1l-1,0l0,1c0,0,0,1,0,1l0,1l0,1l1,0l0,1l1,0l0,1l-1,0l0,1l1,0l0,1l1,0l1,1l1,0l2,1l1,0l0,1c1,1,1,1,1,1l-1,0l-1,-1c0,-1,0,-1,0,-1c-1,0,-2,0,-3,-1l-1,0l0,-1l-1,0l-1,-1l-1,0l0,-1l2,0l-1,0l0,-1l-1,-1l0,-1ZM138.5,141.5l1,0l0,-1l1,0l1,-1l1,0c0,1,0,1,0,1c-1,0,-1,0,-1,0c-1,0,-1,0,-1,0l0,1l-1,0l-1,0ZM138.5,151.5l1,0l0,-1c0,1,0,1,1,1l0,1l1,0l1,0l-1,0c0,0,1,1,1,1c0,0,-1,0,-1,0c-1,-1,-2,-1,-2,-1l0,-1l-1,0ZM143.5,153.5c0,0,0,-1,0,-1l1,0l0,2c0,0,-1,0,-1,0c0,0,0,-1,0,-1ZM143.5,139.5c0,0,0,-1,0,-1l1,0l0,2c0,0,-1,0,-1,0l0,-1ZM144.5,142.5l-1,-1l-1,0c-1,0,-1,0,-1,1l-1,0c0,1,0,1,0,1l-1,-1c0,1,-1,1,-1,1l0,1l0,1l0,1l0,1l0,1c0,0,0,1,1,1l1,0l1,1l1,0c1,0,1,0,1,0c0,0,1,0,1,0l-1,1l-1,0c0,0,-1,0,-1,-1c0,0,-1,0,-1,0l0,-1l-1,1l-1,-1l0,-1l-1,-1l0,-1c0,-1,0,-1,0,-1c0,0,0,-1,1,-1l0,-1c0,-1,0,-1,1,-1l1,1c0,0,0,-1,0,-1l1,0l0,-1c0,0,1,0,1,0c1,0,1,0,1,0l1,0ZM274.5,133.5l0,1l1,0l0,-1c0,0,1,0,1,1c0,0,0,-1,0,-1l1,-1l0,1l0,1c0,0,0,1,-1,1c0,0,-1,0,-1,0l0,-1l0,1c0,0,-1,0,-1,0l-1,0l0,-1l0,-1Z" class="g1_63" />
</svg>