<?xml version="1.0" encoding="UTF-8" standalone="no"?>
<!DOCTYPE svg PUBLIC "-//W3C//DTD SVG 1.1//EN"
"http://www.w3.org/Graphics/SVG/1.1/DTD/svg11.dtd">
<svg version="1.1" xmlns="http://www.w3.org/2000/svg" xmlns:xlink="http://www.w3.org/1999/xlink">
<defs>
<style type="text/css"><![CDATA[
.g1_70{
stroke: #1F1A17;
stroke-width: 1;
stroke-linecap: butt;
stroke-linejoin: miter;
}
]]></style>
</defs>
<path fill-rule="evenodd" d="M267.5,57.5l0,1c0,0,1,0,1,0l1,-1l0,-1l0,1c0,0,1,0,1,0c0,0,1,0,1,-1l0,-1l0,1l0,1l0,1c0,0,0,1,-1,1c0,0,-1,0,-1,0l0,-1l0,1c-1,1,-1,1,-1,1c-1,0,-1,0,-1,-1l0,-1l0,-1ZM298.5,55.5l1,0c0,0,1,0,1,0c1,0,1,0,1,0c1,0,1,0,1,1c0,0,0,1,-1,1l0,1c0,0,-1,0,-1,0c0,0,-1,0,-1,0l-1,0l2,-1c0,0,1,0,1,-1l-1,0c-1,0,-1,0,-2,0l0,1l0,-1l0,-1ZM343.5,103.5c1,0,1,0,1,-1c1,0,1,0,2,0c0,0,1,0,1,0c0,1,1,1,1,1c-1,1,-1,1,-1,1c0,1,0,1,-1,1c-1,0,-1,0,-1,0l-1,0l1,0c1,-1,1,-1,2,-1c0,0,-1,0,-1,0c0,-1,0,-1,-1,-1c0,0,-1,1,-1,1l-1,0c0,0,0,-1,0,-1ZM319.5,106.5l1,0c0,0,1,0,1,0c1,0,1,0,1,0c1,0,1,0,1,1c0,0,0,1,-1,1c0,1,0,1,-1,1c0,0,-1,0,-1,0l-1,0l2,-1c0,0,1,0,1,-1l-1,0c-1,0,-1,0,-2,0l0,1l0,-1l0,-1ZM298.5,102.5c0,-1,0,-1,1,-1c0,0,1,0,1,0c1,0,1,0,1,0c1,0,1,1,1,1c0,0,0,1,-1,1c0,0,0,1,0,1l-1,0c0,0,-1,0,-1,0c-1,0,-1,0,-1,0l2,-1c0,0,1,0,1,0c0,-1,0,-1,-1,-1c-1,0,-1,0,-2,0c0,0,0,1,0,1l0,-1ZM204.5,103.5c0,0,1,0,1,-1c1,0,1,0,2,0c0,0,1,0,1,0c0,1,1,1,1,1l-1,0c0,1,0,1,0,1c0,1,-1,1,-1,1l-1,0l-1,0l-1,0l2,0c1,-1,1,-1,2,-1c-1,0,-1,0,-1,0c0,-1,-1,-1,-1,-1c0,0,-1,1,-1,1c0,0,-1,0,-1,0c0,0,0,-1,0,-1ZM124.5,103.5l1,-1l1,0c0,0,1,0,1,0c1,1,1,1,1,1c0,1,-1,1,-1,1c0,1,0,1,0,1c-1,0,-1,0,-1,0c-1,0,-1,0,-1,0l-1,0l2,0c0,-1,1,-1,1,-1l-1,0c0,-1,0,-1,0,-1c-1,0,-1,1,-2,1l-1,0c0,0,0,-1,0,-1c1,0,1,0,1,0ZM108.5,105.5l1,0c0,0,1,0,1,0c1,0,1,0,2,0l0,1l0,1c-1,0,-1,0,-1,0c-1,0,-1,0,-1,1c0,0,-1,0,-1,0c0,0,-1,0,-1,0l2,-1c0,0,1,0,1,-1c-1,0,-1,0,-1,0c-1,0,-1,0,-2,0c0,0,0,-1,0,-1ZM94.5,116.5c0,1,0,2,0,2c0,0,-1,1,-1,1c0,1,-1,1,-1,1l1,0l0,1l1,0l-1,0l-1,0l0,1l-1,0l0,1c0,0,-1,0,-1,0l-1,1l-1,0l-1,0l0,1l-1,0l0,1l-1,0c0,0,0,1,0,1l0,-1l-3,0l0,1l-3,0l0,-1c0,0,-1,0,-1,0l-1,-1c0,0,0,-1,-1,-1c-1,0,-1,0,-2,-1l-1,0l-1,-1l-1,-1l-1,0l0,-1l1,0l0,-1l-1,0l0,-1l0,-1l0,-1l0,-1l0,-1l0,-1c0,0,1,0,1,0l0,-1l-1,0l0,-1l1,0l1,-1l1,-1l1,0l1,-1l1,0c1,0,1,0,1,0l0,-1l1,-1l1,0l0,-1l3,0l3,0l1,1l0,1l1,0l0,1l2,0l0,1l1,0l1,0l0,1l1,0c1,1,1,1,1,1l1,0c0,0,0,1,-1,1l-1,0l1,0l0,1l0,1l1,0l0,1ZM85.5,126.5l1,-1l1,-1c1,0,1,0,1,0c1,0,1,0,1,0l0,-1c1,0,1,0,2,-1c1,0,1,0,1,0l0,-1l1,0l-1,-1l0,-1l1,0l0,-1l0,-1l0,-1c0,-1,0,-2,0,-2l0,-1l-1,-1l1,-1c0,0,-1,0,-1,-1l-1,0l-1,-1l-2,0l-1,-1c0,0,-1,0,-1,-1l-1,0l0,-1l-1,0l-2,0l-1,0l-2,0l-1,0l0,1l-1,0c0,1,0,1,0,1l-2,1l-1,0l-1,0l0,1l-1,0c-1,1,-1,1,-2,1l2,1l-1,1l-1,1l0,1c0,0,0,1,0,1l0,1l0,1l1,1l0,1l1,0l-1,1l1,1l1,0l0,1l1,0l1,0l0,1l1,0c1,0,1,0,1,1l1,0l0,1c1,0,1,0,1,0l3,0ZM90.5,111.5l0,1l-1,-1l0,-1l-1,0l-1,0l0,-1l1,0l0,1c1,0,1,0,1,0c1,0,1,0,1,0l0,1ZM91.5,121.5l-1,0l0,1l-1,0l-1,1l-1,0c0,-1,0,-1,0,-1c1,0,1,0,1,0l1,0c0,-1,1,-1,1,-1ZM86.5,123.5c0,0,0,1,0,1c-1,0,-1,0,-1,0l-3,0l-3,0c-1,0,-1,0,-1,0l0,-1c0,0,0,-1,0,-1l1,0l3,0l3,0l1,0l0,1ZM86.5,109.5c0,0,0,1,0,1c0,0,-1,0,-1,0l-3,0l-3,0c-1,0,-1,0,-1,0l0,-1c0,0,0,-1,0,-1l1,0l3,0l3,0l1,0l0,1ZM85.5,112.5c0,0,0,-1,0,-1l1,0l1,0l1,0c0,0,0,1,1,1l0,1l1,-1c0,0,0,1,1,1l0,1l0,1l1,0l0,1l0,1c-1,0,-1,0,-1,1c0,1,0,1,0,1c0,0,-1,1,-1,1l-1,-1l0,1l-1,0l0,1l-1,0l-1,0c-1,0,-1,0,-1,-1l-3,0l-3,0l-1,1l-1,0c0,0,-1,0,-1,0c0,-1,-1,-1,-1,-1l-1,-1l-1,1l0,-1l-1,-1l0,-1l0,-1c0,0,0,-1,0,-1c0,0,0,-1,0,-1l1,-1c0,0,0,-1,0,-1l2,1l0,-1l1,0l0,-1c0,0,1,0,1,0c0,0,1,0,1,0l1,1l3,0ZM85.5,120.5l1,0c0,0,0,1,0,1l1,0l0,-1c0,0,1,0,1,0l1,-1l1,0l1,0l0,-1l0,-1l0,-1c0,-1,0,-1,0,-2l0,-1c-1,0,-1,0,-1,0l-1,0l-1,-1l-1,-1c-1,0,-1,0,-1,1l-1,0l-3,0l-3,0l-1,0l0,-1l-1,0l-1,0c0,0,0,1,0,1l-1,0l0,1l-1,0l-1,0l0,1l-1,1l0,1c0,0,0,1,0,1l1,1c0,1,0,1,0,1l1,0c1,0,1,0,1,0l0,1l1,0l0,1l1,0c1,0,1,0,1,-1l1,0l3,0l3,0ZM83.5,114.5l1,0l0,1l0,1c0,0,0,1,0,1l0,1l0,1c0,-1,0,-1,-1,-3c-1,0,-1,0,-1,0l0,-1c0,-1,1,-1,1,-1ZM83.5,115.5c-1,0,-1,0,-1,0l1,0l0,1l0,-1ZM81.5,114.5l0,1l0,1l-1,0l0,1c0,1,0,1,0,1l0,1l0,-1l0,-1l0,-1c0,0,-1,0,-1,0l0,-1l0,-1c1,1,1,1,1,1c1,0,1,0,1,-1ZM73.5,111.5l1,-1l1,0l1,-1l1,0l-1,0l0,1l1,0c-1,0,-1,0,-1,0l-1,0l0,1l-1,0l0,1l0,-1l-1,0ZM73.5,121.5l1,0l1,1l1,0l1,0c-1,0,-1,0,-1,1c-1,-1,-2,-1,-2,-1l-1,-1ZM150.5,119.5l0,-2l0,-1l-1,-8l1,-3l1,11c0,0,0,1,0,1l-1,0c0,1,0,1,0,2ZM142.5,117.5c0,0,1,0,1,0c0,0,1,0,1,0c0,0,0,-1,0,-1c1,0,1,0,1,-1l0,-1l-1,-7c0,-1,0,-1,0,-2c0,0,1,0,1,0c0,1,0,1,0,1c0,0,1,0,1,0c0,1,0,1,0,1c0,1,0,1,-1,1c0,1,0,1,0,2c0,0,0,1,1,3c0,0,0,1,0,1l0,1c0,0,0,1,0,1c0,0,-1,0,-1,0c0,0,0,1,0,1c0,1,0,1,0,1c-1,0,-1,0,-1,0l-1,0c0,0,0,1,0,1l-1,0l-1,0c0,0,-1,-1,-2,-1c0,0,-1,1,-1,1c-1,0,-1,0,-2,0l-1,-1l-1,-1l-1,1c0,0,0,1,-1,1l-1,0l-1,0c0,0,-1,0,-1,-1l-1,0l0,-1c-1,0,-1,0,-1,-1l0,-1c0,0,0,1,0,1l-1,0l0,1l-1,0l-1,0l0,1l0,1c0,0,0,1,-1,1c0,0,0,1,0,1c0,0,0,1,-1,1c0,0,0,1,-1,1c-1,0,-1,0,-1,0c0,0,-1,0,-1,0l-1,0l-1,0c-1,0,-1,-1,-1,-1c0,0,1,0,1,0l1,0l1,0c0,0,1,0,1,0l0,-1c1,0,1,0,1,0c1,-1,1,-1,1,-2c1,0,1,0,1,-1l0,-1l0,-2l1,0c0,0,1,0,1,0c0,0,1,0,1,0l0,-1c1,0,1,0,1,0c1,0,1,0,1,0l0,1c0,1,0,1,0,1l1,0c0,0,0,1,0,1c1,0,1,0,1,0l1,0l1,0c0,0,1,0,1,0l1,-1l0,-1c1,-1,2,-2,3,-2l0,1l1,1l1,1c1,1,1,1,1,1l1,0l1,0ZM142.5,101.5c0,-1,1,-1,1,-1c1,0,1,0,1,0c1,0,1,0,2,0c0,0,0,1,0,1c0,0,0,1,0,1c0,0,-1,1,-1,1l-1,0l-1,0l-1,0l2,-1c1,0,1,0,2,0c-1,-1,-1,-1,-1,-1c0,0,-1,0,-1,0c0,0,-1,0,-1,0c0,0,-1,1,-1,1l0,-1ZM138.5,117.5l-1,-1c0,0,0,-1,0,-1l-1,0l-1,1c0,0,1,0,1,0l1,1ZM136.5,103.5c0,-1,0,-1,0,-1c1,0,1,-1,1,-1c0,1,0,1,0,1c1,0,1,0,1,1l0,1c0,0,-1,0,-1,0l1,1l0,1l-1,-1l-1,1c0,1,-1,1,-1,1l-1,0c0,0,-1,0,-1,0l1,0l1,-1l1,-1l0,-1c0,0,-1,0,-1,0l0,-1l1,0ZM137.5,103.5l-1,0l1,1l0,-1ZM127.5,112.5l-2,-1l1,-1l2,1ZM122.5,113.5l-1,-1l1,-1l1,1ZM124.5,126.5l-4,2l1,-1l4,-2ZM114.5,119.5c0,0,-1,0,-1,0c0,-1,0,-1,0,-1c0,0,0,-1,0,-1l0,-1l0,-1c0,0,0,-1,0,-1c-1,1,-1,2,-2,2c0,0,-1,0,-1,0c0,0,0,1,0,1c0,1,0,1,0,1c0,1,0,2,0,2c0,1,-1,1,-1,2c-1,0,-1,1,-2,1c-1,0,-1,0,-2,0c-1,0,-1,0,-2,0c0,0,-1,0,-1,0c-1,-1,-1,-1,-1,-2c-1,0,-1,-1,-1,-1c0,-1,0,-1,0,-1c0,0,0,-1,0,-1c1,0,1,0,1,0l0,-1c0,-1,0,-1,0,-1c1,0,1,0,1,0l0,1l-1,1c0,0,0,1,0,1c0,0,0,1,1,1l0,1c0,0,1,0,1,0c1,0,1,0,2,0c1,0,2,0,2,0c1,0,1,-1,2,-1c0,-1,0,-1,0,-1l0,-1l0,-1c0,-1,0,-1,0,-1c-1,-1,-1,-1,-1,-1l1,-2c0,0,0,1,0,1c0,0,1,0,1,0c1,0,1,0,1,0c1,0,1,0,1,-1c0,0,1,0,1,-1l0,1l0,1l0,1l0,1c1,0,1,0,1,1l0,1c1,0,1,0,1,0c1,1,1,1,1,1l1,0l0,-1c0,0,0,-1,0,-3c-1,0,-1,-1,-1,-2l0,-1c0,-1,0,-1,0,-2c0,-1,0,-2,0,-3c0,-1,0,-1,0,-2l1,0c0,0,0,1,0,1c0,0,1,0,1,0c0,1,0,1,0,1c0,1,0,1,-1,1c0,1,0,1,0,2c0,0,0,1,1,3c0,0,0,1,0,1c0,0,0,1,0,1c0,2,0,2,0,2c0,1,0,1,0,1l0,1c0,0,-1,0,-1,0c0,0,0,1,0,1c0,0,-1,0,-1,0c0,0,-1,0,-1,0c0,0,-1,0,-1,-1ZM117.5,125.5l-4,2c0,-1,0,-1,0,-1l4,-2ZM114.5,123.5l-1,-1l-1,2l-2,-1l1,-2l2,1l1,-1l1,1ZM105.5,114.5l-1,-1l0,-1l2,1ZM101.5,105.5l4,-2l0,1l-4,2ZM173.5,110.5l-1,-1l1,-1l1,1ZM182.5,116.5l-1,0l-1,0c-1,0,-1,0,-2,0l-1,0l-1,0l0,1l-1,0c-1,0,-1,1,-2,1l-1,0c-1,0,-1,1,-2,1l-1,0c0,0,-1,0,-1,-1c-1,0,-1,0,-1,-1l0,-1l-1,-1c0,0,0,1,0,1c-1,0,-1,0,-1,1l-1,0c-1,0,-1,0,-1,0l0,1l0,1c0,0,0,1,0,1c-1,0,-1,1,-1,1c0,0,0,1,0,1c-1,0,-1,0,-1,0c0,0,0,1,-1,1c0,0,-1,0,-1,0c0,0,-1,0,-1,0l-1,0l-1,0c-1,0,-1,-1,-1,-1c1,0,1,0,1,0l1,0l1,0c0,0,1,0,1,0l0,-1c1,0,1,0,1,0c1,-1,1,-1,1,-2c1,0,1,0,1,-1l0,-1c0,0,1,0,1,0c-1,0,-1,0,-1,0l0,-2c0,0,1,0,1,0c1,0,1,0,1,0c1,0,1,0,1,0l1,-1l1,0l0,1c0,1,0,1,0,1c0,0,1,0,1,0c0,0,0,1,0,1l1,0l1,0c0,0,1,0,1,0c0,0,1,0,2,-1l1,0l1,0l1,-1l-1,0l-1,-1l-1,0l-1,0l-1,0c0,0,0,-1,0,-1c1,0,1,0,1,0c0,-1,1,-1,1,-1l1,0c0,0,0,1,0,1l1,0l2,1l1,0l1,0l1,0c0,0,1,0,1,0l1,0ZM173.5,105.5l4,-2l0,1l-5,2ZM167.5,122.5l-1,-1l-1,1l-1,-1l1,-1l1,0l1,-1l1,1ZM164.5,108.5c0,0,0,-1,1,-1l1,0c0,0,1,0,1,0c1,1,1,1,1,1c0,1,-1,1,-1,1c0,0,0,1,0,1c-1,0,-1,0,-1,0c-1,0,-1,0,-1,0l-1,0l1,0c1,-1,2,-1,2,-1c0,0,0,-1,-1,-1l-1,0l-1,1l-1,0c0,-1,0,-1,0,-1c0,0,1,0,1,0ZM160.5,103.5c0,-1,0,-1,0,-1c1,0,1,-1,1,-1c1,1,1,1,1,1l0,1l0,1l0,1l0,1l-1,-1l0,1l-1,0c0,1,-1,1,-1,1l-1,0l1,-1l1,0l0,-1l0,-1l0,-1ZM161.5,103.5c-1,0,-1,0,-1,0l1,0l0,1l0,-1ZM221.5,115.5c0,0,-1,0,-1,0c0,1,0,1,1,1c0,-1,0,-1,0,-1ZM221.5,122.5c-1,0,-1,1,-1,1l-1,0c0,0,-1,0,-1,0l-1,0c0,0,-1,0,-1,0c0,0,-1,0,-1,-1c0,0,1,0,1,0c1,0,1,0,1,0c1,0,1,0,1,0c1,0,1,0,1,0c1,-1,1,-1,1,-1c1,0,1,-1,1,-1c0,0,0,-1,1,-1c0,-1,0,-1,0,-1c0,-1,0,-1,0,-1c0,0,-1,0,-1,1c-1,0,-1,0,-1,0l0,-1c0,0,-1,0,-1,0c0,0,0,-1,0,-1c0,0,0,-1,0,-1c0,-1,0,-1,1,-1c0,-1,0,-1,0,-1c1,0,1,0,1,0c0,0,1,0,1,0l0,1c0,0,1,0,1,0c0,1,0,1,0,1c0,1,0,1,0,2c0,0,0,1,0,1c0,1,0,2,-1,2c0,1,0,1,0,1c-1,1,-1,1,-1,1ZM214.5,119.5l0,-2l0,-1l-1,-8l1,-3l1,11c0,0,0,1,0,1c-1,1,-1,1,-1,2ZM213.5,102.5l4,-2l0,1l-4,2ZM207.5,112.5l-1,-1l1,-2l1,1ZM207.5,119.5l-1,0c-1,0,-1,0,-1,-1c0,0,-1,0,-1,0l0,-1c0,0,-1,0,-1,1l-1,0c0,0,-1,1,-2,1l-2,0c-1,0,-1,0,-1,1l-1,0l-1,0c-2,0,-3,-1,-4,-1c-1,0,-1,0,-2,-1c0,0,-1,-1,-1,-1c0,-1,0,-1,0,-1l0,-1l0,-1c1,0,1,-1,1,-1l1,0c-1,0,-1,1,-1,1c0,0,0,1,0,1c0,0,0,1,0,1c1,0,1,1,2,1l1,0c0,0,0,1,1,1c1,0,2,0,3,0c1,0,1,0,2,0c0,0,1,0,1,-1l1,0c0,0,1,0,1,0c1,0,1,0,2,-1c1,0,1,-1,1,-1l0,1l1,1l1,0l1,0c0,0,1,0,1,0c1,0,1,-1,1,-1c0,0,1,0,1,0c-1,-1,-1,-1,-1,-1c0,0,0,-1,0,-1l0,-2c1,0,1,1,1,1c0,1,0,1,0,1c0,1,0,1,0,1c0,1,0,1,0,1c0,1,0,1,0,1c-1,1,-1,1,-2,1c0,0,-1,1,-1,1ZM198.5,113.5l-2,-1l-1,1l-1,0l1,-2l1,1l1,-1l1,1ZM195.5,105.5l5,-2l-1,1l-4,2ZM268.5,118.5l-1,0c0,0,-1,0,-1,0l-1,-1c0,1,0,1,-1,1l0,1l-1,0l-1,0c-1,0,-1,0,-1,-1c0,0,-1,0,-1,0c0,0,0,-1,0,-1c-1,0,-1,0,-1,0c0,0,0,1,-1,1l-1,0c0,0,0,1,0,1l-1,0l-1,0c-1,0,-2,-1,-2,-1c-1,-1,-1,-1,-1,-2l0,-8l1,-3l0,10l0,1l1,0c0,1,0,1,1,1l1,0c1,0,1,0,1,0c1,0,1,0,2,-1c0,0,1,0,1,0c0,0,1,1,1,1l1,0l1,0c1,0,1,0,1,0l1,-1l1,-1c0,0,0,-1,0,-1l1,0c0,-1,0,-1,1,-1l0,1c1,0,1,1,1,1l0,1l0,1c0,1,0,1,-1,1ZM266.5,116.5l1,0l1,0c0,0,0,-1,0,-1c0,0,-1,0,-1,0l-1,0l0,1ZM264.5,107.5l0,1l1,0l1,0l0,-1l0,1c0,0,1,0,1,0c0,0,0,-1,0,-1l0,-1l1,0l0,1l0,1c-1,0,-1,1,-1,1l-1,0l0,-1l0,1c-1,0,-1,0,-1,0c0,0,-1,0,-1,0l0,-1l0,-1ZM266.5,102.5c0,0,0,-1,0,-1c1,0,1,0,1,0c0,0,1,0,1,0l0,1l0,1l0,1l0,1l-1,0l-1,0c0,1,-1,1,-1,1c0,0,-1,0,-1,0c1,0,2,-1,2,-2c0,0,0,-1,0,-1l0,-1ZM267.5,102.5c-1,0,-1,0,-1,0l0,1l1,0l0,-1ZM259.5,122.5l-1,-1l1,-1l1,1ZM257.5,105.5l4,-2l0,1l-4,2ZM241.5,122.5c0,0,1,0,1,0l1,0c1,0,1,0,2,-1c1,0,1,-1,2,-1c0,-1,1,-1,1,-2c0,-1,0,-1,0,-1c0,-1,0,-1,0,-1l0,-1l-1,0l1,-2c0,1,1,1,1,2l0,1l0,1c0,0,0,1,0,1c0,0,0,1,0,1l-1,1l0,1c0,0,-1,0,-1,1l-1,0c-1,1,-1,1,-1,1c0,0,-1,0,-1,0l-1,0c0,0,-1,-1,-1,-1l-1,0ZM244.5,109.5l4,-2c0,1,0,1,-1,1l-4,2ZM243.5,106.5c0,0,-1,0,-2,0c-1,1,-3,1,-4,2c-1,0,-2,1,-2,1c0,0,-1,0,-1,0c0,0,0,1,0,1l1,0l1,1c1,1,1,1,2,2c0,0,0,1,1,1c0,1,0,1,0,2c0,0,0,1,0,1c-1,0,-1,0,-1,1l-1,0l-1,0c0,0,0,1,-1,1l-1,0c0,-1,0,-1,0,-1c-1,0,-1,-1,-1,-1c0,0,0,-1,0,-1l-1,-9l1,-2l0,5l0,-1l1,0c0,0,0,-1,0,-1c1,-1,2,-1,4,-2c1,0,2,-1,4,-1c0,0,1,-1,2,-1ZM235.5,117.5l1,0l1,0c1,-1,1,-1,1,-1c0,-1,0,-1,0,-1c0,-1,-1,-1,-2,-2c-1,-1,-1,-1,-1,-1c-1,0,-1,0,-1,0c0,0,-1,-1,-1,-1l1,4c0,0,0,1,0,1c0,1,0,1,1,1ZM236.5,103.5l5,-3c-1,1,-1,1,-1,2l-5,2ZM237.5,100.5l5,-3c0,1,0,1,0,1l-5,3ZM308.5,118.5l-1,0c-1,0,-1,0,-1,0l-1,-1c-1,1,-1,1,-1,1l-1,1l-1,0c-1,0,-1,0,-1,-1c0,0,-1,0,-1,0l-1,-1l0,-1l0,-1c0,0,0,1,0,1c-1,0,-1,0,-1,0l0,1c-1,0,-1,0,-1,0l-1,0l0,1l0,1c-1,0,-1,1,-1,1c0,0,0,1,0,1c-1,0,-1,1,-1,1c-1,0,-1,1,-1,1l-1,0c-1,0,-1,0,-1,0l-1,0l-1,0c0,0,-1,0,-1,0c0,0,0,-1,0,-1l1,0l1,0l1,0c1,0,1,0,1,0l0,-1c0,0,1,0,1,0c0,-1,1,-1,1,-2l1,-1l0,-1l-1,0l1,-2c0,0,1,0,1,0l1,0l1,0l0,-1l1,0c1,0,1,0,1,0l0,1c0,1,0,1,0,1c0,0,0,1,1,1c0,0,1,0,1,0l1,0c1,0,1,0,1,0l1,-1l0,-1c1,0,1,-1,1,-1c1,-1,1,-1,1,-1c1,0,1,0,1,1c0,0,1,1,1,1l0,1l0,1c0,1,-1,1,-1,1ZM306.5,116.5l1,0l1,0c0,0,0,-1,-1,-1c-1,0,-1,0,-1,0l0,1ZM306.5,103.5c0,-1,0,-1,0,-1c0,0,1,-1,1,-1c0,1,0,1,0,1c1,0,1,0,1,1l0,1l-1,0l1,1l0,1l-1,-1l-1,1c-1,1,-1,1,-1,1l-1,0l-1,0l1,0l1,-1l1,-1l0,-1c-1,0,-1,0,-1,0l0,-1l1,0ZM307.5,103.5l-1,0l0,1l1,0l0,-1ZM298.5,112.5l-1,-1l1,-1l1,1ZM294.5,113.5l-2,-1l1,-1l2,1ZM292.5,109.5l4,-2c0,1,0,1,0,1l-4,2ZM287.5,117.5l-1,0c0,1,0,1,0,1c0,0,1,0,1,0c0,0,0,-1,0,-1ZM288.5,120.5c0,0,-1,0,-1,0c-1,0,-1,0,-1,0c-1,0,-1,0,-2,0c0,0,-1,0,-1,0c0,0,0,-1,0,-1c0,0,0,-1,0,-1c0,0,1,0,1,0c0,0,1,0,1,0c0,0,0,-1,0,-1c1,0,1,0,1,0c0,-1,0,-1,0,-1l0,-1c-1,0,-1,0,-1,-1c0,0,-1,-1,-1,-1c-1,-1,-1,-1,-2,-2c-1,-1,-1,-1,-1,-1c-1,0,-1,0,-1,0c-1,0,-1,-1,-1,-1l0,-1c0,-1,0,-1,0,-1l0,-1c1,1,1,1,2,1c0,1,1,1,1,2c1,1,1,1,2,2c0,0,1,1,2,2c0,0,0,1,0,1c1,0,1,1,1,1c0,0,0,-1,0,-1c0,-1,0,-2,1,-2c0,-1,0,-2,0,-2c0,0,0,-1,0,-1c0,-1,0,-1,0,-2c0,0,-1,0,-1,0c0,-1,0,-1,1,-2c0,0,0,1,0,1c0,0,1,0,1,0l1,0c-1,1,-1,1,-1,1c0,1,0,1,0,1l0,1c0,0,0,1,0,1c0,1,0,1,0,1c0,1,-1,1,-1,2c0,0,0,1,0,1c0,1,0,1,-1,2c0,0,1,0,1,0c0,0,0,1,0,1c0,1,0,1,0,1c0,1,0,1,0,1l0,1ZM278.5,103.5l5,-3c0,1,0,1,0,2l-5,2ZM280.5,100.5l5,-3c0,1,0,1,0,1l-5,3ZM353.5,119.5l0,-2l0,-1l-1,-8l1,-3l1,11c0,0,0,1,-1,1c0,1,0,1,0,2ZM351.5,103.5l4,-2c0,1,0,1,0,1l-5,2ZM346.5,112.5l-1,-1l0,-2l2,1ZM346.5,119.5l-1,0l-1,0l0,-1l0,1l-1,0l0,1c0,0,0,1,0,2c-1,0,-1,0,-1,0c0,1,0,1,-1,1c0,0,0,1,-1,1l-1,0l-1,0c0,0,-1,0,-2,0l0,-1l1,0c1,0,1,0,2,0l1,-1l1,0c0,0,0,-1,0,-1c0,0,1,-1,1,-1c0,0,0,-1,1,-1c0,-1,0,-1,0,-1l-1,0c0,-1,0,-1,0,-1l0,-1l1,0l0,1c0,0,1,0,1,0l1,0l1,0l1,0c1,0,1,-1,1,-1c0,-1,0,-1,0,-1c0,0,0,-1,-1,-1l1,-2c0,0,0,1,0,1c0,0,1,0,1,0c0,1,0,1,0,1c0,1,0,1,0,1c0,1,0,1,0,1c0,1,0,1,0,1c0,0,-1,0,-1,0c0,1,0,1,-1,1c-1,0,-1,1,-1,1ZM342.5,114.5l-1,-1l1,-2l1,1ZM343.5,129.5l-5,2c1,-1,1,-1,1,-1l4,-2ZM332.5,119.5c-1,0,-1,0,-1,-1c-1,0,-1,0,-1,0c0,0,-1,0,-1,-1c-1,0,-1,0,-2,0c0,1,-1,1,-1,1c0,1,0,1,0,1l1,0c0,0,1,1,1,1c0,0,1,0,1,0c1,0,1,0,1,0l0,1c0,1,0,1,0,1c-1,1,-1,1,-1,1c-1,1,-2,1,-3,1c-1,1,-2,1,-4,1c-1,0,-1,0,-2,0c-1,-1,-1,-1,-1,-1c-1,-1,-1,-1,-1,-1c-1,-1,-1,-2,-1,-2l0,-1c0,0,0,-1,1,-1c0,-1,0,-1,1,-2c0,0,0,1,0,2c0,0,-1,1,-1,1c1,1,1,2,2,2c0,1,1,1,2,1c1,0,1,0,1,0l1,0c1,0,1,0,1,0c1,0,1,0,1,0l1,-1c1,0,1,0,1,0c0,0,1,0,1,0c-1,-1,-1,-1,-2,-1c-1,0,-1,0,-2,-1l0,-1c0,-1,0,-1,0,-1l1,-1c0,0,0,-1,1,-1c1,0,1,-1,2,-1c1,0,1,0,1,0c0,0,0,1,0,1l1,1l1,0c0,0,1,0,1,0c0,0,1,0,1,0c0,0,0,-1,0,-1c1,0,1,0,1,-1l0,-1l-1,-7c0,-1,0,-1,0,-2c0,0,1,0,1,0c0,1,0,1,0,1c0,0,1,0,1,0c0,1,0,1,0,1c0,1,0,1,-1,1c0,1,0,1,0,2c0,0,0,1,1,3c0,0,0,1,0,1l0,1c0,0,0,1,0,1c0,0,-1,0,-1,0c0,0,0,1,0,1c0,1,0,1,0,1c-1,0,-1,0,-1,0l-1,0c0,1,-1,1,-1,1ZM332.5,101.5c0,-1,1,-1,1,-1c1,0,1,0,1,0c1,0,1,0,2,0c0,0,0,1,0,1c0,0,0,1,0,1c0,0,-1,1,-1,1l-1,0l-1,0l-1,0l2,-1c1,0,1,0,2,0c-1,-1,-1,-1,-1,-1c0,0,-1,0,-1,0c0,0,-1,0,-1,0c0,0,-1,1,-1,1l0,-1ZM328.5,114.5l-1,-1l1,-2l1,1m-1,2l-1,-1l1,-2l1,1m-1,2l-1,-1l1,-2l1,1ZM331.5,126.5l-4,2l0,-1l4,-2ZM376.5,122.5l1,0c1,0,2,0,3,-1c0,0,1,-1,1,-1c1,-1,1,-1,2,-2c0,-1,0,-1,0,-1c0,-1,0,-1,0,-1l-1,-1l0,-2l1,0c0,1,0,1,1,2l0,1l0,1c0,0,0,1,0,1c0,0,0,1,0,1c-1,0,-1,0,-1,0l0,1l0,1c-1,0,-1,0,-1,1c0,0,-1,0,-1,0l-1,0c0,1,0,1,0,1c-1,0,-1,0,-1,0l-1,0l-1,0c0,0,0,-1,0,-1c0,0,-1,0,-1,0ZM219.5,106.5c0,1,1,1,1,1l0,-1l0,-1l1,0l0,1l1,0l0,-1l0,-1l0,1l0,1c0,1,0,1,0,1l-1,0l-1,0c0,1,0,1,0,1c-1,0,-1,0,-1,0c0,-1,0,-1,0,-1l0,-1ZM223.5,103.5l-5,3c0,-1,0,-2,0,-2l6,-3ZM379.5,107.5l0,1c1,0,1,0,1,0l1,-1l0,1l1,0c0,0,0,-1,0,-1l0,-1l0,1l1,0l-1,0l0,1c0,0,0,1,0,1l-1,0l0,-1l0,1l-1,0c-1,0,-1,0,-1,0l0,-1l0,-1ZM383.5,104.5l-5,3c0,-1,0,-1,1,-1l5,-3ZM368.5,123.5l-1,-1l1,-1l1,0ZM376.5,117.5c-1,0,-1,0,-2,1c-1,0,-2,0,-3,1c-2,0,-3,0,-4,0c-1,0,-3,0,-3,0c-2,0,-2,-1,-3,-1c0,-1,0,-1,-1,-1l0,-1l0,-1c0,0,0,-1,0,-1c1,-1,1,-1,1,-2c0,0,1,1,1,1c0,0,-1,0,-1,1l0,1l0,1c1,0,1,0,2,1c0,0,1,0,1,0l1,0l1,0l2,0c1,0,1,0,2,0l1,0l1,0l1,-1c0,0,1,0,1,0c1,-1,2,-1,2,-1l0,-1c-1,0,-1,-1,-1,-1l0,-1c0,0,1,-1,1,-1c0,1,0,1,0,2c0,0,1,0,1,0c0,0,0,1,0,1c0,1,0,1,-1,1c0,1,0,1,0,2ZM366.5,109.5c1,1,1,1,1,1c0,-1,0,-1,1,-1l0,-1l0,1c0,0,1,0,1,0l0,-1l0,-1l1,0l0,1l0,1l-1,0c0,1,0,1,0,1l-1,0c-1,1,-1,1,-1,1c-1,0,-1,0,-1,0c0,-1,0,-1,0,-1l0,-1ZM368.5,124.5l-4,2c0,0,0,-1,1,-1l4,-2ZM132.5,56.5c0,0,1,0,1,0c1,0,1,0,2,0c0,0,1,0,1,0l0,1c0,0,0,1,0,1c0,0,-1,0,-1,0c0,1,0,1,0,1l-1,0l-1,0l-1,0l2,-1c1,0,1,0,2,-1c-1,0,-1,0,-1,0c0,0,-1,0,-1,0c0,0,-1,0,-1,0c0,0,-1,0,-1,1l0,-1l0,-1ZM62.5,53.5c0,-1,0,-1,1,-1l1,0c0,0,1,0,1,0c1,0,1,1,1,1c0,1,-1,1,-1,1c0,0,0,1,0,1c-1,0,-1,0,-1,0c-1,0,-1,0,-1,0l-1,0l1,-1c1,0,2,0,2,0c0,-1,0,-1,-1,-1l-1,0l-1,0c0,0,0,1,-1,1l0,-1c0,0,1,0,1,0ZM361.5,52.5c0,-1,1,-1,1,-1c1,1,1,1,1,1c0,0,0,1,0,1c-1,1,-1,1,-1,1l1,0l0,2l-1,-1l-1,0l0,1c-1,0,-1,0,-1,1l-1,0c-1,0,-1,0,-1,0l1,-1l1,0l0,-1l1,0l0,-1c-1,0,-1,0,-1,-1l1,-1ZM362.5,53.5l0,-1l-1,0l0,1l1,0l0,1l0,-1ZM342.5,54.5l0,-1c0,0,0,-1,0,-1c0,-1,-1,-2,-1,-2l0,-1l1,0l0,1c0,0,0,1,0,1l0,1c0,1,0,1,0,1l0,1ZM83.5,66.5c0,0,0,1,-1,1c0,0,1,1,1,1l0,-1c1,0,1,0,1,0c0,0,-1,0,-1,0c0,0,0,-1,0,-1ZM83.5,74.5c0,0,0,1,-1,1c-1,0,-1,0,-2,0c-1,0,-1,0,-2,0l-1,-1c1,0,1,0,1,0l1,0l1,0c0,0,1,0,1,0c1,-1,1,-1,2,-1c0,-1,0,-1,0,-1c0,0,1,-1,1,-1c0,-1,0,-1,0,-2l-1,1l-1,0l0,-1c0,0,-1,0,-1,0c0,-1,0,-1,0,-1c0,0,0,-1,0,-1c1,-1,1,-1,1,-2l1,0c0,0,0,-1,0,-1c1,0,1,0,1,1l1,0c0,1,0,1,0,1c0,1,0,1,0,1c0,1,0,1,0,2l0,1c0,1,0,1,-1,2c0,1,0,1,0,1c0,1,-1,1,-1,1ZM80.5,61.5l4,-2c0,0,0,1,0,1l-4,2ZM76.5,61.5l-1,-1l-1,1l-1,-1l0,-1l2,1l1,-2l1,1ZM78.5,68.5c-1,1,-1,1,-1,1l0,1c-1,0,-2,0,-2,0c-1,0,-1,0,-2,0l-1,0c-1,0,-1,0,-1,0c-1,0,-1,-1,-1,-1l0,1l0,1c0,1,0,1,0,2c-1,0,-1,1,-2,1l0,1c-1,0,-1,0,-1,0c-1,0,-1,0,-2,1c0,0,-1,0,-1,0l-1,0l-1,-1c0,0,-1,0,-1,0c0,-1,-1,-1,-1,-1c0,-1,0,-1,0,-2c0,0,0,-1,0,-1c0,-1,1,-1,1,-2l0,-1l1,0l0,1l-1,0c0,0,0,1,0,1c0,0,0,1,0,1c0,1,0,1,1,2c0,0,1,1,1,1c1,0,1,0,1,0c1,0,2,-1,3,-1c1,0,2,-1,2,-1l0,-1l0,-3c0,0,0,-1,0,-2l0,-1l0,-6l0,-2l1,10l0,1l1,0l0,1c0,0,1,0,1,0l1,0c0,0,1,0,2,0c1,-1,1,-1,2,-1c0,0,0,-1,0,-1c0,-1,0,-1,0,-1l-1,1c0,0,-1,0,-1,0l-1,0l0,-1c0,0,-1,0,-1,-1c0,0,1,-1,1,-1c0,-1,0,-1,0,-1c1,-1,1,-1,2,-1l1,0c0,1,0,1,0,1c0,1,0,1,0,1l1,0c0,1,0,1,0,2c0,0,0,1,0,1c0,0,0,1,0,1ZM74.5,64.5c0,1,1,1,1,1l1,0c0,0,0,-1,0,-1c-1,0,-1,0,-1,0l-1,0ZM74.5,51.5l0,-1c1,0,1,0,1,0c0,0,1,0,1,0c0,0,0,1,0,1c0,0,0,1,0,1c0,0,0,1,0,1l0,1l-1,0l-1,1c0,0,-1,0,-1,0l0,1l-1,0l0,-1l1,0c0,0,0,-1,1,-1l0,-1l0,-1l0,-1ZM75.5,51.5c-1,0,-1,0,-1,0c0,1,0,1,0,1l1,0ZM117.5,68.5c0,1,0,2,0,2l-1,1c0,1,0,1,0,1l1,0l0,1l-1,0l-1,1l-1,0l0,1l-1,0l-1,1l-1,0l-1,0l0,1l-1,0l-1,1l-4,0l-3,0l-1,0l0,-1c-1,-1,-1,-1,-1,-1c-1,0,-2,0,-3,-1l-1,0l0,-1l-1,0l-1,-1l-1,-1l1,0l1,0l-1,0l0,-1l-1,-1l0,-1l0,-1l0,-1l0,-1l1,-1l0,-1l1,0l-1,-1l-1,0c0,0,1,0,1,0l0,-1l1,0l1,0l0,-1l1,0l1,-1l2,0l0,-1l1,0l0,-1c1,0,1,0,1,-1l3,0l4,0l1,1l0,1l1,0l0,1l2,0l1,0l0,1c0,0,1,0,1,0l1,0l0,1c1,0,1,1,2,1l-1,1l0,1l1,0l0,1l0,1ZM108.5,78.5l1,-1l0,-1l1,0c1,0,1,0,2,0l0,-1l1,0c0,0,1,0,1,-1l1,0c0,0,0,-1,0,-1l1,0l-1,-1l1,0l0,-1l0,-1l1,-1l0,-1c0,-1,0,-2,-1,-2c0,0,0,-1,0,-1c0,0,0,-1,0,-1l-1,0l1,-1l-1,-1l-1,-1l-1,0l-1,-1l-2,0l0,-1l-1,-1l-1,0l-4,0l-1,0l-2,0l-1,0l0,1c-1,1,-1,1,-1,1l-2,0l-1,1l-1,0l0,1l-1,0c0,0,-1,1,-1,1l1,1l-1,0l0,1l0,1l0,1c-1,0,-1,1,-1,1l1,1l0,1l0,1l1,1l-1,1l1,0l0,1l1,0l0,1l1,0l1,0l1,0l1,1c0,0,1,0,1,0l0,1l1,0c0,1,0,1,0,1l3,0ZM114.5,63.5l-1,0l-1,0l0,-1l-1,0c0,0,-1,0,-1,0c0,0,1,0,1,0c0,-1,0,-1,0,-1l-1,0c0,0,1,0,1,0l1,0c0,1,0,1,0,1c0,0,1,0,1,0l0,1l1,0ZM114.5,73.5l-1,0l0,1l-1,0l-1,1l-1,0l1,0l0,-1l-1,0c1,0,1,0,1,0l1,0l0,-1c1,0,1,0,1,-1l0,1l1,0ZM109.5,75.5l0,1c0,0,-1,0,-1,0l-4,0l-3,0l-1,0l0,-1c0,0,0,-1,0,-1c0,0,1,0,1,0l3,0l4,0l1,0l0,1ZM109.5,61.5c0,0,0,1,0,1l-1,0l-4,0l-3,0c0,0,-1,0,-1,0l0,-1c0,0,0,-1,0,-1l1,0l3,0l4,0c0,0,1,0,1,0l0,1ZM108.5,64.5l0,-1l1,0l1,0c0,0,1,0,1,0c0,0,0,1,1,1l0,1l2,-1l0,1l0,1l1,0l0,1l0,1l0,1l0,1l-1,0c0,1,0,1,0,1l0,1l-1,-1c-1,0,-1,0,-1,1c0,0,-1,0,-1,0l0,1l-1,0l-1,0c0,0,-1,-1,-1,-1l-4,0l-3,0l-1,1l-1,0l-1,0c0,-1,0,-1,-1,-1l0,-1l-1,1l0,-1l-1,0l0,-1l0,-1l-1,0l0,-1c0,-1,0,-1,0,-1c1,0,1,-1,1,-1l0,-1c0,-1,1,-1,1,-1l1,1c0,0,0,-1,0,-1l1,0l0,-1c1,0,1,0,1,0c1,0,1,0,1,0l1,0l0,1l3,0ZM108.5,72.5l1,0l1,0l1,0l1,-1l1,0l1,0l0,-1l0,-1l1,-1c0,-1,-1,-1,-1,-2c0,0,0,-1,0,-1l-1,0l-1,0l0,-1l-1,0l-1,-1c-1,0,-1,0,-1,0l0,1l-1,0l-4,0l-3,0l-1,-1l-1,0c0,0,-1,0,-1,1l-1,0c0,1,0,1,0,1l-1,0l-1,0l0,1l0,1l0,1l0,1l0,1c0,1,1,1,1,1l1,0l1,1l1,0c1,0,1,0,1,0c1,0,1,0,1,0l3,0l4,0ZM106.5,66.5l0,1l1,0l0,1l0,1c0,0,1,0,1,1c0,0,-1,0,-1,0l0,-1l-1,-1c0,0,0,1,0,1l-1,1l-1,0c1,-1,1,-1,1,-2l1,0l0,-1l0,-1ZM104.5,66.5l0,1c-1,0,-1,0,-1,0l-1,0l0,1l1,0l0,1c0,1,0,1,0,1c-1,0,-1,0,-1,0l0,-1l0,-1l0,-1l-1,0l1,-1c0,1,0,1,1,1c0,0,1,0,1,-1ZM95.5,63.5l1,0l0,-1l1,0l1,-1l1,0l0,1c-1,0,-1,0,-1,0c0,0,-1,0,-1,0l0,1l-1,0ZM95.5,73.5l1,0l0,-1c0,1,1,1,1,1l1,1l1,0c0,1,0,1,0,1l-1,0c-1,-1,-1,-1,-2,-1l0,-1l-1,0ZM175.5,70.5l0,-1l0,-1l-1,-8l1,-3l1,11l0,1c-1,0,-1,0,-1,0c0,1,0,1,0,1ZM167.5,69.5c0,0,1,0,1,0l1,0c0,-1,0,-1,0,-1c1,0,1,0,1,-1l0,-2l-1,-6l0,-1l0,-1l1,0c0,0,0,1,0,1l1,0c0,1,0,1,0,1c-1,1,-1,1,-1,1c0,0,0,1,0,2c0,0,0,1,0,3l0,1l0,1c0,0,0,1,0,1c0,0,0,1,0,1c0,0,0,1,-1,1c0,0,-1,0,-1,0l-1,0l-10,0l0,1c-1,1,-1,1,-1,2l0,-1c0,0,0,-1,0,-1l0,-1l-1,0c-1,0,-1,0,-2,0c0,0,-1,-1,-1,-2c0,1,0,2,-1,2l-1,0l-1,0c0,0,-1,0,-2,0l0,-1c0,1,-1,2,-1,2c-1,0,-1,0,-2,0l0,-1l-2,-1l-1,1l-1,0l-1,0l-1,0c-1,0,-1,0,-1,0c-1,-1,-1,-1,-1,-1l0,-1l0,-1l0,-1c0,1,-1,1,-2,2l-1,0c0,0,0,1,0,1l1,0c0,1,0,1,0,1c0,1,-1,2,-1,2c0,1,0,1,-1,2c-1,0,-1,1,-2,1c0,0,-1,0,-2,0c0,0,-1,0,-2,0c0,0,-1,0,-1,-1c0,0,-1,0,-1,-1c0,0,0,-1,0,-1c0,-1,0,-1,0,-1c0,-1,0,-1,0,-1l0,-1l1,-1l0,1c0,1,0,1,0,1l0,1l0,1l1,1l1,0c0,0,1,0,1,0c1,0,2,0,2,0c1,0,2,-1,2,-1l0,-1c1,0,1,0,1,0l0,-1c0,0,0,-1,-1,-1l0,-1l0,-1l-1,-1l1,-1l1,1l1,0l1,0c0,0,0,-1,1,-1l0,-1l1,1l0,1c0,1,0,1,0,2c0,0,1,1,1,1l1,0l1,0c0,0,1,0,1,0l1,-1l0,-1c1,-1,2,-2,3,-2l0,1l1,0l0,1l1,1c1,0,1,1,1,1l1,0l1,0l1,0c0,0,1,-1,1,-1l0,-1c0,-1,0,-1,0,-1l0,-1l-1,-6l1,-2l1,10c0,0,0,1,0,1c1,1,1,1,1,1l1,0l1,0c0,0,1,0,1,-1c0,0,0,-1,0,-1l1,-1l-1,-2l0,-1l0,-3l0,-1l0,-1l0,-1l1,2c0,0,0,1,0,1l0,1l0,1l0,1l0,1l0,2l0,1l0,1l1,-2l1,0l1,-1c1,0,1,0,1,0l1,0c1,0,1,0,2,0c0,0,0,1,1,1l0,1c-1,1,-1,1,-1,1l0,1l-1,0l2,0l1,0ZM161.5,63.5l-1,-1l1,-2l1,1ZM165.5,67.5c0,0,-1,0,-1,0c0,0,0,-1,-1,-1l-1,0c0,0,-1,1,-1,1l-1,1l-1,0l-1,1l1,0c0,0,1,0,1,0c1,0,1,0,1,0c0,-1,0,-1,1,-1c1,0,2,0,3,-1ZM153.5,77.5l-4,2c0,-1,0,-1,0,-2l4,-1ZM146.5,69.5l-1,-1c0,0,0,-1,0,-1l-1,0l-1,1c0,0,1,0,1,0l1,1ZM144.5,74.5l-5,2c1,-1,1,-1,1,-1l4,-2ZM138.5,73.5l-2,0l0,1l-2,-1l1,-2l2,1l0,-1l2,1ZM128.5,66.5l-1,-1l1,-1l1,1ZM124.5,57.5l5,-2l-1,1l-4,2ZM219.5,70.5l0,-1l0,-1l0,-8l1,-3l0,11l0,1c0,1,-1,1,-1,1ZM211.5,69.5c1,0,1,0,2,0c1,-1,1,-1,1,-1l0,-1l0,-2l0,-6l-1,0l0,-1l1,-1c0,0,0,1,1,1l1,0c-1,1,-1,1,-1,1c0,1,0,1,0,1c0,0,0,1,0,2c0,0,0,1,0,3l0,1l0,1c0,0,0,1,0,1c0,0,0,1,0,1c0,0,-1,0,-1,0c0,0,0,1,0,1c-1,0,-1,0,-1,0c-1,0,-1,0,-1,0l-1,0l-1,0l-1,0c0,0,-1,0,-1,0c-1,0,-1,0,-1,0c-1,0,-1,0,-2,0c-1,0,-1,0,-2,0l-1,0l-1,0c0,1,0,1,0,2c-1,0,-1,0,-1,1c0,0,0,1,-1,1l-1,1c0,0,-1,1,-1,1l-1,0l-1,0c0,0,-1,0,-2,-1l1,0c1,0,1,0,2,0c0,0,0,-1,1,-1l1,-1c1,-1,1,-1,1,-1c0,0,0,-1,1,-1l0,-1l-1,0c0,0,-1,0,-1,0c-1,0,-1,0,-1,-1c0,0,0,-1,0,-1c0,0,0,-1,0,-1l1,0c0,0,0,-1,0,-1l1,0l1,0c0,1,0,1,0,1c1,0,1,0,1,1l0,1c0,0,1,0,1,0c0,0,1,0,1,0l1,0c1,0,1,0,1,-1c0,-1,0,-1,0,-1c0,0,0,-1,0,-1c0,-1,0,-1,1,-1c0,-1,0,-1,0,-1c1,-1,1,-1,2,-1c0,0,1,0,1,1c0,0,0,1,0,1l0,1c0,1,0,1,0,2l-1,1c0,0,1,0,1,0c1,0,1,0,1,0ZM212.5,52.5l1,0c0,0,1,0,1,0c0,0,1,0,1,0c1,0,1,0,1,1c0,0,0,1,-1,1l0,1c0,0,-1,0,-1,0c0,0,-1,0,-1,0l-1,0l2,-1c0,0,1,0,1,-1l-1,0c-1,0,-1,0,-2,0l-1,1l0,-1c0,0,1,0,1,0l0,-1ZM208.5,62.5l-1,-1l-1,1l-2,-1l1,-1l2,1l0,-1l2,1ZM207.5,65.5l-1,0c0,1,0,1,0,1c0,1,0,1,0,1l1,1c0,-1,1,-1,1,-1l1,0l0,-1c0,0,-1,0,-1,0c0,-1,0,-1,-1,-1ZM203.5,54.5l5,-2l-1,1l-4,2ZM199.5,67.5c0,0,-1,1,-1,1c0,0,0,1,1,1l1,0c0,0,0,-1,0,-1c0,0,-1,0,-1,0c0,0,0,-1,0,-1ZM194.5,60.5c0,-1,1,-1,1,-1c1,0,1,0,2,0c0,0,1,0,1,0c0,0,1,1,1,1l-1,0c0,1,0,1,0,1c0,0,-1,1,-1,1l-1,0l-1,0l-1,0l2,-1c1,0,1,0,2,0c-1,-1,-1,-1,-1,-1c0,0,-1,0,-1,0c0,0,-1,0,-1,0c0,0,-1,1,-1,1l0,-1ZM192.5,69.5c0,0,-1,0,-2,0c0,-1,-1,-1,-1,-1c-1,1,-1,1,-1,2c-1,0,-1,1,-2,1c0,1,-1,1,-2,1c-1,0,-2,0,-4,0l5,-2c1,-1,3,-2,3,-2l1,-2c0,-1,1,-1,1,-1c0,0,0,-1,1,-1c1,0,1,0,1,0c0,1,0,1,1,1c0,1,0,1,0,2c0,1,0,1,0,1c0,1,-1,1,-1,1ZM192.5,67.5l-1,-1l-1,0c0,0,0,1,1,1ZM189.5,74.5l-5,2c1,-1,1,-1,1,-1l4,-2ZM245.5,70.5l-1,0c0,0,-1,0,-1,-1l-1,0c0,1,-1,1,-1,1l-1,0l-1,0l-1,0c0,1,0,1,0,1c0,0,0,1,0,1c0,1,0,2,0,2c-1,1,-1,1,-2,2c0,0,-1,1,-2,1c0,0,-1,0,-2,0c0,0,-1,0,-2,0c0,0,-1,0,-1,-1c-1,0,-1,0,-1,-1c0,0,-1,-1,-1,-1c0,-1,0,-1,0,-1c0,0,1,-1,1,-1l0,-1l0,-1c1,0,1,0,1,0l0,1l-1,1l0,1c0,0,0,1,1,1l0,1c0,0,1,0,1,0c1,0,2,1,2,1c1,0,2,-1,3,-1c1,0,1,-1,2,-1c0,-1,0,-1,0,-1l0,-1c0,-1,0,-1,0,-1c0,0,0,-1,0,-1l-1,0l0,-1l1,-1c0,1,1,1,1,1l1,0l1,0c1,0,1,0,1,0l1,-1l0,-1c1,0,1,-1,1,-1l1,-1c1,0,1,0,1,1c1,0,1,0,1,1l0,1c0,1,0,1,0,1c0,0,0,1,-1,1ZM243.5,68.5l1,0l1,0c0,-1,0,-1,0,-1c0,0,-1,0,-1,0c0,0,-1,0,-1,0c0,1,0,1,0,1ZM244.5,74.5l-4,2c0,-1,1,-1,1,-1l4,-2ZM233.5,68.5l-1,-1l0,-1l2,1ZM232.5,61.5l4,-2l-1,0c0,0,0,1,0,1l-4,2ZM281.5,64.5l-1,-1l1,-2l1,1ZM281.5,70.5l-1,0l-2,0c-1,0,-2,0,-3,0c0,0,0,-1,0,-1c0,-1,0,-1,0,-1l-1,0c-1,0,-1,0,-1,0l-5,2l-1,0l-1,0l-1,0c0,0,-1,0,-1,0c0,0,-1,0,-1,0l0,-1c0,0,-1,1,-1,1c-1,0,-1,0,-2,0l-2,0c0,0,-1,0,-2,0c0,-1,0,-1,0,-2l-1,-9l1,-2l1,10l0,1c0,1,1,1,1,1l2,0c0,0,1,0,1,0c0,0,1,-1,1,-1c1,-1,1,-1,1,-1c0,1,0,1,0,1l1,1c0,0,1,0,1,0l1,0c0,0,1,0,1,0l1,-1c0,0,1,0,2,0l1,0l0,-1l1,0l-1,0l-1,-1c-1,0,-2,0,-2,0c-1,0,-1,0,-1,0l-1,0l0,-1c1,0,1,0,1,0c0,-1,1,-1,1,-1l1,0c1,0,1,1,2,1c1,0,2,1,3,1c1,0,1,0,2,0c0,0,1,0,1,0l1,0l-1,2l-2,0c0,0,1,0,1,0c0,1,0,1,0,1c1,0,1,0,1,0l1,0l1,0l1,0l1,0c0,0,1,0,1,0c1,-1,1,-1,1,-1l1,0l-1,0c0,-1,0,-1,0,-1c0,0,0,-1,0,-1l0,-2c1,0,1,0,1,1c0,1,0,1,0,1l0,1c0,0,0,1,0,1c0,0,0,1,0,1c-1,1,-1,1,-2,1c0,0,-1,0,-1,0ZM281.5,57.5l4,-2l0,1l-5,2ZM271.5,74.5l-2,-1l1,-1l1,1ZM262.5,66.5l-1,-1l0,-1l2,0ZM259.5,58.5l4,-3l0,1l0,1l-4,2ZM325.5,70.5l0,-1l0,-1l0,-8l1,-3l0,11l0,1c0,1,0,1,-1,1ZM318.5,71.5l0,-1c-1,0,-1,0,-1,-1l0,-1c0,1,-1,1,-1,1l0,1c-1,0,-1,0,-2,0c0,0,-1,0,-1,0c-1,0,-1,0,-1,0l-1,0c0,0,-1,0,-1,-1c0,-1,0,-1,0,-1c0,0,0,-1,1,-1c0,1,0,1,0,1c0,0,1,0,1,0l1,0c0,0,1,0,1,0c0,0,1,0,1,0c0,0,1,0,1,0l1,-1l-1,-1c0,0,0,-1,0,-2c0,0,0,-1,0,-1c0,0,0,-1,0,-1c0,0,1,-1,1,-1l0,2l0,1c0,1,0,2,1,2c0,1,0,1,0,2l0,1c0,1,0,1,1,1c1,0,1,1,1,1l1,-1c0,-1,0,-1,0,-3c0,0,0,-1,0,-2l-1,-1c0,-1,0,-1,0,-2c0,-1,0,-2,0,-3l0,-1l0,-1c0,0,1,0,1,0c0,0,0,1,0,1c0,0,1,0,1,0c0,1,0,1,0,1c0,1,0,1,0,1l-1,0c0,0,0,1,1,2c0,0,0,1,0,3l0,1l0,1c0,1,0,2,0,2c0,0,0,1,0,1c0,1,0,1,-1,1l0,1c0,0,-1,0,-1,0c0,0,-1,0,-1,0c0,0,0,-1,-1,-1ZM320.5,52.5l0,1c0,0,0,1,0,1c0,0,1,-1,1,-1l0,-1l1,1l1,-1l0,-1l0,1l0,1c0,1,0,1,-1,1l-1,0c0,1,-1,1,-1,1l0,-1c-1,0,-1,0,-1,0l0,-1l1,-1ZM324.5,50.5l-6,2c1,0,1,-1,1,-1l5,-3ZM315.5,60.5l-1,-1l1,-2l1,1ZM314.5,74.5l-5,2c1,-1,1,-1,1,-1l4,-2ZM307.5,64.5l-1,0c0,0,0,-1,0,-1l-1,0l0,1c-1,0,-1,0,-2,1c-1,1,-1,1,-1,2l1,1l2,0c1,0,1,0,1,0c0,0,0,1,0,1c0,1,0,1,0,1c0,0,0,1,0,1c0,0,-1,0,-1,1c-1,0,-1,0,-2,1c-1,0,-1,0,-2,1c-1,0,-2,0,-2,0l-1,0c-1,0,-1,0,-2,0c0,0,-1,-1,-1,-1c-1,0,-1,-1,-1,-1c-1,-1,-1,-1,-1,-2c0,-1,0,-2,1,-2c0,-1,0,-1,0,-2c1,0,1,0,1,-1l1,0l-1,1c0,1,0,1,0,1c0,1,0,1,-1,1c0,0,0,1,0,1c0,1,0,1,1,1c0,0,0,1,0,1c1,1,2,1,4,1c1,0,2,0,3,0l1,-1l1,0l1,0c0,-1,0,-1,0,-1l1,0l-2,-1c-1,0,-2,0,-3,0c0,-1,0,-1,0,-1c0,-1,0,-1,0,-1c0,-1,0,-1,0,-1c0,-1,1,-1,1,-1c0,-1,0,-1,0,-1l1,0c0,-1,0,-1,0,-1c1,0,1,-1,2,-1c0,0,1,0,1,0c0,0,1,0,1,0c0,0,0,1,0,1l0,1ZM347.5,70.5l-1,0c0,0,-1,0,-1,0c-1,-1,-1,-1,-1,-2c0,1,0,1,-1,2c0,0,-1,0,-2,0c0,0,-1,0,-1,0c-1,-1,-1,-1,-1,-2c0,1,-1,1,-1,1c0,0,-1,0,-2,0c0,0,-1,0,-1,0c-1,-1,-1,-1,-1,-1c0,0,1,-1,1,-1l1,-1c0,0,1,0,1,-1l1,0l1,-1l0,-1c0,0,0,-1,0,-1l0,1l1,1l0,3l0,1c1,0,1,1,2,1c0,0,0,-1,1,-1c0,0,0,-1,0,-1c0,0,0,-1,0,-2c0,-1,0,-1,0,-2c0,-1,0,-1,0,-1l0,-1l0,-1l1,3l0,2l0,1c0,0,0,1,0,1c0,0,1,0,1,0c0,1,0,1,1,1l1,0l0,-1l0,-1l0,-1l-1,-1l0,-2l1,-1l0,-1c0,1,0,1,0,2l0,1l1,2c0,1,0,1,0,2c0,0,0,1,0,1c0,1,-1,1,-1,2ZM339.5,65.5l-1,1c-1,0,-1,0,-1,0c0,1,-1,1,-1,1c1,0,2,0,2,0c0,0,1,0,1,0ZM341.5,57.5l0,1l1,0l0,-1l1,-1l0,1c0,0,1,0,1,0l0,-1l1,-1l0,1l0,1l0,1c0,0,-1,0,-1,1l-1,0l0,-1l0,1l-1,0c0,0,0,1,-1,1c0,0,0,-1,0,-1c0,0,-1,0,-1,0l0,-1l1,-1ZM348.5,73.5l-4,2c1,-1,1,-1,1,-1l4,-2ZM339.5,74.5l-4,2c0,-1,0,-1,0,-1l4,-2ZM393.5,70.5l0,-1l0,-1l0,-8l1,-3l0,11l0,1c0,1,0,1,-1,1ZM384.5,59.5l1,3c0,0,0,1,-1,1l0,1c0,0,0,1,0,1l2,1c0,0,1,0,2,0c0,0,1,1,1,1c0,0,1,0,1,0l1,0l0,1l-2,0l-1,0l-1,0l-1,0l-1,0c0,1,0,1,0,1l-3,1l-1,0l-1,0l-1,0l-1,0l-1,0c0,0,-1,0,-2,0l0,-1c0,1,0,2,-1,2c0,0,-1,0,-1,0l-1,-1l-2,-1l-1,1l-1,0l-1,0l-2,0c0,0,-1,0,-1,0l-1,0l0,-1l0,-1l0,1c-1,0,-1,0,-1,0l0,1c-1,0,-1,0,-2,0c0,0,-1,0,-1,0l-1,0c-1,0,-1,0,-1,0c0,0,-1,-1,-1,-1l0,-1l1,0l0,-1c0,0,0,1,0,1l1,0l1,0l1,0c1,0,1,0,1,0l1,0l1,-1l0,-1l-1,-2l0,-1l0,-1l1,-1l0,2l0,1l1,3c0,1,0,1,0,1c0,1,1,1,1,1l2,0l1,0c1,0,1,0,1,0l1,-1l0,-1c1,-1,2,-2,3,-2l0,1l1,0l0,1l1,1l1,0c0,0,0,1,0,1l1,0l1,0l1,0l1,0l1,0l1,-1l1,0l1,0l1,-1l-1,0l-1,0l-1,-1l-1,0c0,0,-1,0,-1,0l0,1c0,-1,0,-1,0,-1c0,-1,0,-1,0,-1c1,0,1,-1,1,-1c0,0,1,0,1,0l1,0c0,0,1,-1,1,-1c0,-1,0,-1,0,-2c0,0,0,-1,-1,-2c0,0,0,-1,0,-1c0,-1,0,-1,0,-1c1,-1,1,-1,1,-1l0,1c0,0,1,0,1,1l0,1ZM383.5,52.5c0,0,1,0,1,0c0,0,1,0,1,0c1,0,1,0,2,0l0,1c0,0,0,1,0,1c-1,0,-1,0,-1,1c-1,0,-1,0,-1,0c0,0,-1,0,-1,0c0,0,-1,0,-1,0l2,-1c0,0,1,0,1,-1c-1,0,-1,0,-1,0c-1,0,-1,0,-1,0c-1,0,-1,0,-1,1l0,-1l0,-1ZM376.5,61.5l5,-2l-1,0c0,1,0,1,0,1l-4,2ZM374.5,69.5l0,-1c-1,0,-1,-1,-1,-1l-1,0l-1,1c0,0,1,0,2,0l0,1ZM371.5,55.5l1,0c0,0,1,0,1,0c1,0,1,0,1,0c1,0,1,0,1,0c0,0,0,1,0,1l-1,1l-1,0c0,1,-1,1,-1,1l-1,0l0,-1l2,0c0,0,1,-1,1,-1l-1,0c-1,0,-1,0,-2,0c0,-1,0,-1,0,-1ZM160.5,48.5c0,-1,0,-1,0,-2c-1,-1,-1,-1,-1,-2l1,0l0,1l0,1l0,1c0,1,0,1,0,1ZM158.5,50.5l0,1l1,0c0,1,0,1,0,1l1,-1l0,-1l0,-1l0,1l1,0c0,0,0,1,0,1c1,0,1,0,1,-1l0,-1l0,1l0,1c0,1,0,1,0,1l-1,0l-1,0c0,1,-1,1,-1,1c0,0,-1,0,-1,0c0,0,0,-1,0,-1c0,0,0,-1,0,-1l0,-1ZM268.5,55.5l0,-1c0,0,0,-1,0,-1c0,-1,0,-2,0,-2l0,-1c0,0,1,1,1,1c0,0,0,1,0,1l0,1l0,1c0,0,0,1,-1,1Z" class="g1_70" />
<path fill-rule="evenodd" d="M311.5,479.5l-2,-1l1,-1l2,1ZM148.5,467.5c0,-1,0,-1,-1,-1c0,0,-1,1,-1,1c-1,0,-1,1,-1,1l0,-1c0,-1,0,-1,0,-1l0,-1l0,-1c-1,0,-1,0,-1,0c0,0,1,0,1,-1l-1,-1l0,1c0,0,0,1,0,1l0,2l0,1l0,1l0,1l-1,0l-1,0l0,1c1,0,1,0,1,0l1,0l1,0c0,0,1,0,2,-1c0,0,1,0,1,0l0,-1ZM147.5,467.5c0,0,1,1,1,1c0,0,-1,0,-2,1l-1,0l0,-1c0,0,1,0,1,0l0,-1l1,0ZM159.5,484.5c0,0,0,1,0,2c0,0,-1,0,-1,1l-1,1l1,0l1,0l-1,0l0,1l-1,0l0,1l-1,0c0,0,-1,1,-1,1l-1,0l-1,1l-1,0l-1,0l0,1l-1,1l-3,0l-3,0l-2,0l0,-1l-1,-1c0,0,-1,0,-1,0c-1,0,-2,-1,-2,-1l-1,0l0,-1l-1,0l-1,-1l-1,0l0,-1l1,0l0,-1l-1,0l0,-1l0,-1l-1,0c0,0,0,-1,0,-1l0,-1c0,-1,0,-1,0,-1c1,0,1,-1,1,-1c0,0,0,-1,0,-1l1,0l-1,-1l0,-1l1,0l1,-1l1,0l0,-1l1,0l2,-1l1,0l1,-1c0,-1,0,-1,0,-1l2,0l3,0l3,0l1,1l0,1l1,0l2,1l1,0c0,0,1,1,1,1l1,0l0,1c1,0,1,0,2,1l-2,1l1,0l0,1l1,0l0,1l0,1ZM150.5,494.5l0,-1l1,0l0,-1l1,0c1,-1,1,-1,1,-1l1,0c1,0,1,-1,2,-1l0,-1c1,0,1,0,1,0l1,0l0,-1l-1,0l0,-1l1,0l0,-1l0,-1l1,0l0,-1c0,-1,-1,-2,-1,-3l0,-1l-1,0l0,-1l1,0c0,0,-1,-1,-1,-1l-1,-1l-1,0l-1,-1l-2,0c0,-1,0,-1,-1,-1l0,-1l-1,0c0,0,0,-1,0,-1l-1,0l-2,0l-1,0l-2,0l-2,0l0,1l-1,1c0,0,-1,0,-1,1l-2,0l-1,1l-1,0l0,1l-1,0l-1,1l1,0l0,1l-1,1l0,1l0,1l0,1l0,1l0,1c0,0,0,1,0,1l1,0l0,1l-1,0l1,1l1,0l0,1l1,0l1,1l1,0l1,1c0,0,1,0,1,0l0,1l1,0c0,0,0,1,0,1l2,0l3,0ZM156.5,479.5l-1,0l-1,0l0,-1l-1,0l-1,0c0,-1,0,-1,0,-1l1,0l1,0c0,0,0,1,0,1c1,0,1,0,1,0ZM156.5,488.5l-1,1l0,1l-1,0l-1,0l-1,1l0,-1c1,0,1,0,1,0l0,-1l1,0c0,0,1,0,1,-1ZM151.5,491.5c0,1,-1,1,-1,1l-3,0l-3,0l-2,0l-1,-1c0,-1,0,-1,0,-1c0,0,1,-1,1,-1l2,0l3,0l3,0l1,0l0,1ZM151.5,477.5l0,1c0,0,-1,0,-1,0l-3,0l-3,0l-2,0l-1,0l0,-1c0,-1,0,-1,0,-1l1,0l0,-1l2,0l3,0l3,0l1,1l0,1ZM150.5,479.5l1,0l1,0l1,0l1,1l1,0c0,0,1,0,1,0l0,1l0,1l1,1l0,1c0,1,-1,1,-1,1l0,1l0,1l-1,0l-1,0l-1,1l-1,0l-1,0c-1,0,-1,0,-1,0l-3,0l-3,0l-2,0c-1,0,-1,0,-1,0c-1,0,-1,0,-2,0l-1,-1l-1,0l-1,0l0,-2l0,-1c0,-1,0,-1,0,-1c0,-1,0,-1,0,-1l0,-1l0,-1c1,0,1,0,1,0l1,0l1,0l0,-1c1,0,1,0,2,0l1,0l2,0l3,0ZM150.5,488.5l1,0l1,0c1,0,1,0,1,0l1,-1l1,0l1,-1l0,-1l0,-1c0,-1,0,-1,0,-2c0,-1,0,-1,0,-1c-1,0,-1,-1,-1,-1l-1,1l0,-1l-1,0l0,-1l-1,0c-1,0,-1,0,-1,0l-1,0l0,1l-3,0l-3,0l-2,0l0,-1l-1,0c-1,0,-1,0,-1,0l-1,0l0,1c-1,0,-1,1,-1,1l-1,-1l0,1l-1,0l0,1l0,1l0,1l0,1l0,1c1,0,1,1,1,1l1,0l1,0l0,1l1,0l1,0l1,0l2,0l0,-1l3,0l3,0ZM147.5,482.5l1,0l1,0c0,0,0,1,0,1l0,1c0,1,0,1,1,1l-1,1l0,-1l0,-1l0,-1l-1,0c0,0,-1,0,-1,0l0,-1ZM145.5,483.5c1,0,1,0,1,0l0,1l0,1l0,1l-1,0c0,0,-1,0,-1,0c0,0,0,-1,0,-1l0,-1l1,0l0,-1ZM145.5,484.5l0,1l-1,0c0,0,1,0,1,0l1,0l0,-1l-1,0ZM143.5,482.5l0,1c0,0,1,0,1,1l0,1c-1,1,-1,1,-1,1l0,-1c0,-1,0,-2,0,-2ZM137.5,479.5l0,-1l1,0l0,-1l1,0l1,0c0,0,0,1,0,1c0,0,-1,0,-1,0l-1,0l0,1l-1,0ZM137.5,488.5c0,0,1,1,1,1l1,0l0,1l1,0l0,1l0,-1l-1,0c-1,0,-1,0,-2,-1ZM205.5,489.5c0,0,1,0,1,0l1,0c0,0,1,0,2,-1c1,0,1,0,2,-1c0,0,0,-1,1,-1c0,-1,0,-1,0,-1c0,0,0,-1,0,-1l0,-1l-1,-1l1,-1l0,-1l0,1c0,0,1,0,1,1l0,1l0,1c0,1,0,1,0,2c0,0,0,1,-1,1c0,0,0,1,0,1c0,0,-1,1,-1,1l-1,0l0,1c-1,0,-1,0,-1,0c-1,0,-1,0,-1,0l-1,0c0,0,-1,0,-1,0c0,0,0,-1,-1,-1ZM290.5,469.5c0,-1,0,-1,0,-2c0,-1,0,-1,0,-2l0,-1c1,1,1,1,1,1c0,1,0,1,0,1l0,1l0,1c0,1,0,1,-1,1ZM211.5,477.5c0,-1,0,-1,0,-2c-1,-1,-1,-1,-1,-2l1,-1c0,1,0,1,0,1c0,1,0,1,0,1l0,1l0,1c0,1,0,1,0,1ZM198.5,490.5l-2,-1l1,-2l1,1ZM205.5,483.5l-2,0c0,0,-1,0,-1,1l-1,0c-1,0,-1,0,-1,0l-1,0l-1,1c0,0,-1,0,-1,0c0,0,-1,1,-1,1c-1,0,-2,0,-2,0l-1,0c-1,0,-1,0,-2,0l-1,0c0,-1,0,-1,0,-1l-1,-1c0,1,0,1,0,1l-1,0c0,0,-1,1,-1,1l-1,0l-1,0l-1,0c0,1,-1,1,-1,1c0,1,0,1,0,1c0,1,-1,1,-1,2l-1,1c-1,0,-1,0,-1,0c0,0,-1,0,-1,0c0,0,0,1,-1,1c-1,0,-1,-1,-2,-1l-1,0c0,-1,1,-1,1,-1c0,0,0,1,0,1c1,0,1,0,1,0c0,0,1,0,1,-1c1,0,1,0,2,0c0,0,0,-1,1,-1l0,-1c0,0,1,0,1,0c0,-1,0,-1,0,-1l0,-1c1,0,1,0,1,0c0,0,-1,0,-1,0l-1,0l-1,0c0,0,0,-1,0,-1l0,-1c0,-1,0,-1,0,-1l0,-1l1,0c0,0,0,-1,0,-1c0,0,1,0,1,0c1,1,1,1,1,1l0,1c1,1,1,1,1,1l1,0c1,0,1,0,1,0l1,0l1,0l0,-1c-1,0,-1,0,-2,-1l1,-1c0,-1,0,-1,1,-1c0,0,1,0,1,0c1,0,1,0,1,0c1,0,1,1,1,1c0,0,0,1,0,1l0,1l-1,1l1,0l1,0l1,0l1,0c1,0,1,0,2,0c0,0,1,0,1,0l2,-1l1,0l-2,-1l-1,0l-1,0c0,0,-1,0,-1,0l-1,0c0,-1,1,-1,1,-1c0,-1,0,-1,1,-1l1,0c0,0,1,0,1,0l2,1l1,1c1,0,1,0,1,0c1,0,1,0,1,0c1,0,1,0,2,0l1,0ZM203.5,489.5l-5,2c1,0,1,0,1,0c0,-1,0,-1,0,-1l4,-2ZM188.5,470.5l1,-1c1,0,1,0,1,0c0,0,0,1,0,1c0,0,0,1,0,1c0,1,0,1,0,1l0,1l-1,0l-1,1l-1,0l0,1l-1,0l0,-1l1,0c0,0,0,-1,1,-1l0,-1l0,-1l0,-1ZM189.5,471.5l0,-1c0,0,-1,0,-1,0c0,1,0,1,1,1ZM181.5,483.5l0,1c1,0,1,0,1,0c0,0,1,0,1,0c0,0,-1,0,-1,0c0,-1,0,-1,0,-1l-1,0ZM170.5,480.5l-1,-1l1,-1l1,1ZM170.5,489.5c-1,0,-1,0,-2,0c0,0,-1,0,-1,-1c0,0,-1,0,-1,-1c0,0,0,-1,0,-1c0,-1,0,-1,0,-1c0,-1,0,-1,0,-1l0,-1l0,-1c1,0,1,0,1,0l0,1c0,1,0,1,0,1l0,1l0,1l1,1l1,0c0,0,1,0,1,0c1,0,2,0,2,0c1,0,2,-1,2,-1l0,-1c1,0,1,0,1,0c0,0,0,-1,0,-1c0,0,-1,-1,-1,-1l0,-1l0,-1l-1,0l0,-1l1,-1l0,1c1,0,1,0,1,0c0,1,0,1,0,1c0,0,0,1,0,1c0,0,0,1,0,1c0,1,0,1,0,1c0,1,0,2,0,2c0,1,-1,1,-1,2c-1,0,-1,1,-2,1c-1,0,-1,0,-2,0ZM166.5,473.5l4,-2l0,1l-4,2ZM244.5,486.5l0,-1l0,-1l-1,-9l1,-2l1,11c0,0,0,1,0,1c-1,1,-1,1,-1,1ZM246.5,489.5l-4,2c1,-1,1,-1,1,-1l3,-2ZM236.5,484.5c0,0,1,0,1,0c0,0,1,0,1,0c1,0,1,-1,1,-1l0,-2l-1,-6l0,-1c0,0,0,-1,0,-1c0,0,1,0,1,-1l0,1c0,1,1,1,1,1c0,0,0,1,0,1c0,0,-1,0,-1,1c0,0,0,1,0,2c0,0,0,1,0,2c1,1,1,1,1,2l0,1l-1,1c0,1,0,1,0,1c-1,1,-1,1,-1,1l-1,0l-1,0l-1,0l-1,0l-1,-1c-1,0,-1,0,-1,0c-1,1,-1,1,-1,1c-1,0,-1,0,-1,0l-1,0c0,0,-1,0,-1,0c0,0,-1,0,-1,-1c0,-1,0,-1,0,-1l0,-1l-1,1c0,0,-1,0,-1,0l-1,1c0,0,-1,-1,-1,-1l-1,0l0,-1c0,0,1,-1,1,-1c1,-1,1,-1,2,-2c1,0,1,0,1,0l0,-1l0,-1l1,1c0,0,0,1,0,1c0,0,0,1,0,1l0,2c0,0,0,1,1,1l1,0l1,0l1,0l1,0l1,-1c0,0,1,0,1,0c0,1,0,1,0,1c0,0,1,0,1,0l1,0ZM237.5,470.5l4,-2l0,1l-4,2ZM234.5,489.5l-2,-1l0,2l-2,-1l1,-2l2,1l0,-1l2,1ZM179.5,472.5c0,-1,0,-1,1,-1c0,0,1,0,1,0c1,0,1,0,2,0c0,0,0,1,0,1c0,0,0,1,-1,1l0,1c-1,0,-1,0,-1,0c0,0,-1,0,-1,0c0,0,-1,0,-1,0l2,-1c0,0,1,0,1,-1c-1,0,-1,0,-1,0c-1,0,-1,0,-2,0c0,0,0,1,0,1l0,-1ZM230.5,468.5l1,0c0,0,1,0,1,0c1,0,1,0,1,0c1,0,1,0,1,0c0,0,0,1,0,1l-1,1c0,0,-1,0,-1,0c0,1,-1,1,-1,1l-1,0l0,-1l2,0c0,0,1,-1,1,-1l-1,0c-1,0,-1,0,-2,0c0,-1,0,-1,0,-1ZM226.5,481.5l-1,0l-1,1l0,1l1,0c0,0,1,0,1,0c0,0,0,-1,0,-1ZM227.5,489.5l-4,2c0,0,0,-1,0,-1l4,-2ZM275.5,482.5c-1,0,-1,0,-1,0c0,0,0,1,0,1c1,0,1,0,1,0c1,0,1,0,1,0c0,-1,0,-1,0,-1c-1,0,-1,0,-1,0ZM275.5,490.5l-1,0c-1,1,-1,1,-2,1c-1,0,-1,-1,-2,-1l-1,0l0,-1c1,1,1,1,1,1c0,0,1,0,1,0l1,0c0,-1,1,-1,1,-1l1,0c0,0,0,-1,1,-1l0,-1c0,0,1,0,1,-1c0,0,1,-1,1,-1c0,0,-1,0,-1,-1c0,0,0,1,0,1c-1,0,-1,0,-1,0c-1,0,-1,0,-1,0l0,-1l-1,0l0,-1c0,-1,0,-1,1,-1c0,0,0,-1,0,-1c0,0,0,-1,1,-1c1,0,1,0,1,0c0,0,1,0,1,1l0,1l0,1c0,0,0,1,0,1l0,1c0,1,0,2,0,3c-1,0,-1,0,-1,1c0,0,-1,0,-1,1ZM272.5,476.5l5,-2l-1,0c0,1,0,1,0,1l-4,2ZM266.5,486.5l0,-1l0,-1l0,-9l1,-2l0,11c0,0,0,1,0,1c0,1,0,1,-1,1ZM268.5,489.5l-3,1l0,-1l4,-1ZM260.5,479.5l-2,-1l1,-1l2,1ZM259.5,486.5l-1,0l-1,0c-1,0,-1,0,-2,-1c0,0,0,-1,0,-1l-1,-9l1,-2l0,10l1,0l0,1c0,0,1,0,1,0l1,0l1,0c1,0,1,0,2,0c0,0,1,0,1,0c0,-1,0,-1,0,-1c0,-1,-1,-1,-1,-1l0,-1l1,-1c0,1,0,1,0,1l1,1l0,1c0,1,0,1,0,1c0,0,-1,0,-1,0c0,1,0,1,0,1c0,0,-1,1,-1,1c-1,0,-1,0,-2,0ZM258.5,471.5l0,1c0,0,1,0,1,0c0,0,0,-1,0,-1l1,-1l0,1l1,0l0,-1l0,-1l0,1l0,1c0,1,0,1,0,1l-1,0l-1,0c0,1,0,1,0,1c-1,0,-1,0,-1,0c0,-1,0,-1,0,-1l0,-1ZM262.5,468.5l-5,3c0,-1,0,-2,0,-2l6,-3ZM251.5,467.5l1,0c0,0,1,0,2,0c1,0,2,0,2,0l1,0l1,-1c0,1,-1,1,-1,2l-1,0l-1,0l-1,0l-1,0l-1,0c-1,0,-1,0,-1,0l-1,0c0,0,1,-1,1,-1ZM295.5,486.5l-1,0c0,0,-1,0,-1,-1c-1,0,-1,-1,-1,-1c0,0,0,1,-1,1c0,1,-1,1,-2,1c0,0,-1,0,-1,0c0,-1,-1,-2,-1,-3l0,1c0,0,0,1,-1,1c0,0,-1,0,-1,0c-1,0,-1,0,-2,0l0,-1c0,0,0,-1,0,-1c0,-1,1,-1,1,-1c0,0,1,-1,1,-1l1,-1l1,0l0,-1c0,-1,0,-1,0,-1l1,1l0,1l0,3c0,0,0,1,0,1c1,0,1,0,2,0l1,0c0,-1,0,-1,1,-1c0,-1,-1,-2,-1,-3c0,0,0,-1,0,-1c0,0,0,-1,0,-1l0,-1l1,-1l0,2l0,2l0,2l1,0c0,1,0,1,0,1l1,1l1,0c0,-1,0,-1,1,-1c0,0,-1,-1,-1,-1l0,-2l0,-1l-1,-1c1,0,1,-1,1,-1l0,-1c0,1,0,1,0,1c0,1,0,1,1,2l0,2c0,0,0,1,0,1c0,1,0,2,0,2c0,1,0,1,-1,1c0,0,0,1,0,1ZM287.5,481.5l-1,0c0,0,0,1,0,1c0,0,-1,0,-1,0c0,0,-1,1,-1,1c1,0,2,0,2,0c1,0,1,0,1,-1ZM289.5,472.5l0,1c0,1,0,1,1,1c0,-1,0,-1,1,-1l0,-1c0,1,0,1,0,1c1,0,1,0,1,0l1,-1l0,-1l0,1l0,1c0,1,0,1,-1,1c-1,0,-1,0,-1,0l0,1c-1,0,-1,0,-2,0l0,-1l0,-1l0,-1ZM297.5,488.5l-5,3c1,-1,1,-1,1,-2l4,-2ZM287.5,489.5l-4,2c0,0,0,-1,1,-1l4,-2ZM317.5,486.5l0,-1l0,-1l0,-9l1,-2l0,11c0,0,0,1,0,1c0,1,0,1,-1,1ZM320.5,488.5l-4,2c0,0,1,-1,1,-1l3,-2ZM308.5,486.5c-1,0,-1,0,-2,-1c-1,0,-1,-1,-1,-1l0,-9l1,-2l0,10l0,1l1,0l1,0l1,0l1,0c1,0,1,0,2,0c0,0,1,0,1,0c0,-1,0,-1,0,-1c0,-1,-1,-1,-1,-1l0,-1l1,-1c0,1,0,1,0,1c0,0,1,0,1,1l0,1c0,1,0,1,0,1c0,0,-1,0,-1,0c0,1,0,1,0,1c0,0,-1,1,-1,1c-1,0,-1,0,-2,0l-1,0ZM309.5,469.5l0,1l1,0c0,0,0,-1,0,-1l0,-1l0,1c0,0,1,0,1,0l1,-1l0,-1l0,1l0,1c0,1,0,1,-1,1c0,0,-1,0,-1,0c0,1,-1,1,-1,1l-1,0c0,-1,0,-1,0,-1l0,-1ZM313.5,466.5l-6,3c1,-1,1,-2,1,-2l5,-2Z" class="g1_70" />
</svg>