<?xml version="1.0" encoding="UTF-8" standalone="no"?>
<!DOCTYPE svg PUBLIC "-//W3C//DTD SVG 1.1//EN"
"http://www.w3.org/Graphics/SVG/1.1/DTD/svg11.dtd">
<svg version="1.1" xmlns="http://www.w3.org/2000/svg" xmlns:xlink="http://www.w3.org/1999/xlink">
<defs>
<style type="text/css"><![CDATA[
.g2_47{
fill: #1F1A17;
stroke: #1F1A17;
stroke-width: 1;
stroke-linecap: butt;
stroke-linejoin: miter;
}
.g1_47{
stroke: #1F1A17;
stroke-width: 1;
stroke-linecap: butt;
stroke-linejoin: miter;
}
]]></style>
</defs>
<path fill-rule="evenodd" d="M382.5,292.5c0,0,0,-1,1,-1c0,0,1,0,1,0c1,0,1,0,1,0c1,0,1,1,1,1c0,1,0,1,-1,1c0,0,0,1,0,1l-1,0c0,0,-1,0,-1,0l-1,0l2,0c0,-1,1,-1,1,-1c0,0,0,-1,-1,-1c-1,0,-1,0,-2,1c0,-1,0,-1,0,-1ZM245.5,351.5c-1,0,-1,0,-2,0l-1,0c0,0,-1,0,-1,1c-1,0,-1,0,-1,0c0,0,-1,-1,-1,-1c0,0,0,-1,0,-1l1,0l1,0c0,0,0,-1,0,-1c1,0,1,0,1,0c0,0,0,-1,1,-1c0,-1,0,-1,-1,-1c0,-1,0,-1,0,-1c-1,-1,-1,-1,-2,-2c0,0,0,-1,-1,-1c0,0,-1,-1,-1,-1c-1,0,-1,0,-1,0l-1,0c0,-1,0,-1,0,-1c-1,-1,-1,-1,-1,-1l0,-1c0,-1,0,-1,1,-1c0,0,1,1,1,1c1,0,1,1,2,1c1,1,1,2,2,2c0,1,1,2,1,3c1,0,1,0,1,1c0,0,1,0,1,1c0,-1,0,-1,0,-2c0,0,0,-1,0,-2c0,0,0,-1,0,-1c0,-1,0,-1,0,-2c0,0,0,-1,0,-1l0,-1c0,0,0,-1,0,-1c0,0,1,0,1,-1l0,1l0,1c1,0,1,0,1,0c0,0,0,1,0,1l0,1c-1,0,-1,0,-1,0c0,1,0,1,0,2c0,0,0,1,0,1c0,0,0,1,0,1c0,1,0,1,0,2c-1,1,-1,1,-1,1c0,0,0,1,0,1l1,0c0,1,0,1,0,1l0,1l0,1ZM244.5,348.5l-1,1c0,0,0,1,-1,1c1,0,1,0,1,0l1,-1ZM337.5,346.5l0,-1l1,0l0,-1l0,-1l0,-1l0,-1l-1,-1c0,0,1,0,1,-1l0,1c0,0,0,1,0,1l0,1l0,1l0,1l0,1l1,-1l1,-1l1,0c1,0,1,1,1,1c0,1,0,1,0,1c0,0,-1,0,-1,0l0,1c-1,0,-1,0,-2,0ZM340.5,344.5l-1,1l-1,0l1,0l1,0c1,0,1,0,1,0c0,-1,0,-1,0,-1l-1,0ZM81.5,346.5c0,1,0,2,0,3l-1,0l0,1l-1,0l2,1l-1,0l0,1l-1,0l0,1l-1,0c0,0,0,1,-1,1l-1,0l-1,0l-1,1l-1,1l-1,1l-1,0l-1,0l-3,0l0,-1l-1,-1c0,0,-1,0,-1,0c-1,-1,-2,-1,-2,-1l-1,0l0,-1l-1,0l-1,-1l-1,-1l1,-1l-1,0l0,-1l-1,-1c0,-1,0,-1,0,-1l0,-1l0,-1c0,0,1,-1,1,-1c0,-1,0,-1,0,-1l1,-1l-1,0l0,-1l1,0l0,-1l1,0l1,-1l1,0l2,-1l1,0l1,-1c0,-1,0,-1,0,-1l3,0l1,0l1,0l1,1l1,1l2,1l1,0c0,0,1,0,1,1l1,0l0,1c1,0,1,0,2,1l-1,0l0,1l0,1l1,0l0,1l0,1ZM72.5,357.5l0,-1l1,0l0,-1l1,-1c1,0,1,0,2,0l1,0c0,-1,1,-1,1,-1l1,-1l1,-1l-1,0l0,-1l1,0l0,-1l1,-1l0,-1l0,-1c0,0,0,-1,-1,-2l0,-1l-1,0l0,-1l1,0c0,-1,0,-1,-1,-1l-1,-1l-1,0l0,-1l-1,0l-2,-1l-1,-1l-1,0l0,-1l-1,0l-1,0l-3,0l0,1l-1,1c0,0,-1,0,-1,0l-2,1l-1,0l0,1l-1,0l-1,1c0,0,-1,0,-1,1l1,0l0,1l-1,1l0,1l0,1l0,1l0,1l0,1l0,1l1,0l0,1l-1,0l1,1l1,0l0,1l1,0l1,1l1,0l1,0c0,1,1,1,1,1l1,1c0,0,0,1,0,1l3,0l1,0ZM78.5,342.5l-1,0l0,-1l-1,0l-1,0c-1,-1,-1,-1,-1,-1c0,0,1,0,1,0l1,0l1,1ZM78.5,351.5l0,1l-1,0l-1,1l-1,0l-1,0l1,0c0,0,-1,0,-1,0c1,0,1,-1,1,-1l1,0c1,0,1,-1,1,-1l1,0ZM73.5,353.5c0,1,0,1,0,1c0,1,-1,1,-1,1l-1,0l-1,0l-3,0l-1,-1l0,-1c0,-1,1,-1,1,-1l3,0l1,0l1,0l1,0l0,1ZM73.5,340.5c0,0,0,1,-1,1l-1,0l-1,0l-3,0l-1,-1c0,-1,0,-1,0,-1l1,-1l3,0l1,0l1,0c0,0,1,0,1,1ZM72.5,342.5l1,0l1,0c0,0,1,0,1,0l1,1l1,0c1,0,1,0,1,0l0,1l1,1l0,1l0,1c0,1,0,1,0,1l-1,1l0,1l-2,0l0,1c-1,0,-1,0,-1,0l-1,0l-1,0c0,0,-1,0,-1,0l-1,0l-1,0l-3,0c-1,0,-1,0,-1,0c-1,0,-1,0,-2,0l-1,-1l-1,0l-1,0l0,-2l0,-1l0,-1c0,-1,0,-1,0,-1l0,-1l0,-1c1,0,1,0,1,0l1,0l1,0l0,-1c1,0,1,0,2,0l1,0l3,0l1,0ZM72.5,351.5l1,0l1,0l1,0l0,-1l1,0c0,0,0,-1,0,-1l1,1l1,-1l0,-1l0,-1l1,-1c0,0,-1,-1,-1,-1c0,-1,0,-1,0,-1c0,-1,-1,-1,-1,-1l-1,0l-1,0l0,-1l-1,0c-1,0,-1,0,-1,0c0,0,-1,0,-1,0l-1,0l-4,0l-1,0c-1,0,-1,0,-1,0l-1,0l0,1l-1,0l-1,0l-1,1l0,1l0,1l0,1l0,1c0,1,1,2,1,2l1,-1c0,0,0,1,0,1l1,0l0,1l1,0l1,0c1,0,1,0,1,0l0,-1l3,0l1,0l1,0ZM71.5,345.5l1,1l0,1l0,1c0,1,0,1,-1,1l0,-1c0,-1,0,-2,0,-2ZM69.5,346.5l0,1l0,1c0,1,-1,1,-1,1l0,-1c0,0,0,-1,-1,-2l1,-1l1,0l1,0l1,0l0,1c-1,0,-1,0,-1,0l-1,0ZM62.5,342.5l0,-1l1,0l0,-1l1,0l1,0c0,0,-1,0,-1,1l-1,0l-1,1ZM61.5,351.5l1,0c0,0,1,1,1,1l1,0l1,1l-1,0c-1,0,-1,0,-2,-1l0,-1ZM120.5,340.5l-1,-1l0,-1l2,1ZM122.5,343.5l-2,-1l-1,1l-1,-1l1,-1l1,1l1,-2l1,1ZM117.5,347.5l0,1c-1,0,-1,1,-1,1c-1,0,-1,0,-1,0c0,0,-1,0,-1,0c-1,0,-1,0,-2,0c0,-1,0,-1,-1,-1l-2,-2c0,-1,-1,-1,-1,-1l-1,-1c0,1,0,1,0,1l1,0l-1,1c0,1,0,1,0,1c0,0,0,1,0,1c-1,0,-1,0,-1,1l-1,0c0,0,-1,0,-1,0l-1,0l-1,0c0,0,0,1,0,1c-1,0,-1,1,-1,1c0,1,0,1,-1,1c0,1,0,1,-1,1c0,1,0,1,0,1c-1,0,-1,0,-1,0l-1,0l-1,0c0,0,-1,0,-2,0c0,0,0,-1,0,-1l1,0c0,0,0,1,0,1c1,0,1,-1,2,-1l1,0c0,-1,0,-1,1,-1l0,-1c1,0,1,0,1,-1c1,0,1,-1,1,-1c0,0,-1,0,-1,0c0,0,-1,0,-1,0c-1,-1,-1,-1,-1,-1c0,-1,0,-1,0,-1c0,-1,0,-1,0,-1c0,0,0,-1,0,-1c1,0,1,0,1,0c0,-1,0,-1,0,-1c1,0,1,0,1,0l1,0c0,0,0,1,0,1l0,1c1,0,1,0,1,0c0,1,0,1,0,1c0,0,1,0,1,0c1,0,1,0,1,0c1,0,1,0,1,0c0,0,1,0,1,0c0,0,1,0,1,-1c0,-1,0,-1,0,-1c0,-1,-1,-1,-1,-1l0,-1c-1,0,-1,0,-1,0c-1,-1,-1,-1,-1,-1c-1,0,-1,0,-1,0l-1,0c0,-1,0,-1,0,-1c0,-1,0,-1,0,-1c0,-1,0,-1,0,-1c1,0,1,0,1,-1c1,0,2,-1,3,-1c1,-1,3,-1,4,-2c2,0,3,-1,3,-1c1,0,1,0,1,0l-1,2c-1,0,-2,0,-3,1c-2,0,-3,1,-4,1c-2,1,-2,1,-3,1c0,1,0,1,0,1l1,1c0,0,1,0,1,0l1,1c1,0,2,1,2,1c1,0,1,1,2,1c0,1,1,1,1,2l2,1l1,0l1,0l1,0l1,0c0,-1,0,-1,1,-2l0,1l0,1l1,0c1,0,1,0,1,0l1,0c0,-1,0,-1,0,-1c0,0,1,0,1,-1l0,1c0,0,0,1,0,1c1,0,1,0,1,0l1,0l0,-1l0,-1l1,0l0,1l0,1l0,1l-1,1c-1,0,-1,0,-1,0c-1,0,-1,0,-1,-1l-1,0c0,1,-1,1,-1,1c-1,0,-1,0,-1,0c0,0,-1,0,-1,0c0,0,0,-1,-1,-1l0,-1ZM118.5,333.5l4,-2l-1,0c0,0,0,1,0,1l-4,2ZM106.5,330.5c1,-1,1,-1,1,-1c0,0,1,0,1,0c0,0,1,0,1,1l-1,1l1,1l0,1l-1,-1l-1,1c-1,1,-1,1,-1,1l-1,0l-1,0l1,0l1,-1l0,-1l1,0l-1,0c0,-1,0,-1,0,-1l0,-1ZM108.5,330.5l-1,0l0,1l1,0l0,-1ZM100.5,346.5c0,0,-1,0,-1,0c0,0,0,1,0,1c1,0,1,0,1,0l1,0c-1,0,-1,-1,-1,-1ZM86.5,352.5l1,0c1,0,2,0,3,-1c0,0,1,0,1,-1c1,0,1,-1,1,-1c1,0,1,-1,1,-1c0,0,0,-1,0,-1l0,-1l-1,0l0,-1l0,-1l0,-1l1,1c0,0,0,1,0,1l1,1l0,1c0,1,0,1,-1,2c0,1,0,1,0,1c0,1,0,1,-1,1c0,0,0,1,0,1c0,0,-1,0,-1,1l-1,0l-1,0l-1,0c-1,0,-1,0,-1,0c0,0,-1,0,-1,-1ZM85.5,361.5l5,-3c0,0,0,1,0,1l-5,3ZM87.5,357.5l5,-2c0,1,-1,1,-1,1l-5,3ZM162.5,345.5l0,1l-1,0l-1,1l-2,1l3,0c0,0,1,-1,2,-1c1,0,1,0,2,0c0,0,1,0,1,-1c0,0,0,-1,0,-1l-1,0c0,0,-1,0,-1,0c0,0,-1,0,-1,0l-1,0ZM157.5,347.5l1,0l3,-2l0,-1c1,0,1,0,1,0c1,0,1,-1,2,-1l1,0c1,0,1,0,1,1c0,0,1,0,1,0l0,1l0,1c0,0,0,1,0,1l-1,0c0,1,-1,1,-1,1c-1,1,-2,1,-3,1c-1,0,-2,0,-3,0l-1,0l-1,0l0,1c0,1,0,1,0,1l0,-1l0,-1c0,0,-1,0,-1,0l0,-1c-1,0,-1,0,-1,-1c0,1,0,1,0,1l-1,1c0,0,-1,0,-1,0l-1,0c-1,0,-1,0,-1,0l-1,0l0,-1l-1,0c0,0,-1,0,-1,0c0,0,-1,1,-1,1l-1,0l-1,0c-1,0,-2,0,-2,-1c-1,0,-1,-1,-1,-2l-1,-8l1,-2l1,10l0,1c1,0,1,0,2,0l1,0c1,0,1,0,1,0c0,0,1,0,1,0l1,-1l1,0l0,1l1,0l1,0l1,0c1,0,1,0,1,0l1,0l0,-1c0,0,1,0,1,-1l0,1c0,0,0,1,0,1c0,0,1,0,1,0ZM158.5,336.5l4,-2l0,1l-4,2ZM149.5,353.5l-1,-1l1,-2l1,1ZM146.5,340.5l0,1l1,0l0,-1l0,-1l1,0l0,1c1,0,1,0,1,0l0,-1l0,1l0,1l-1,0l-1,0l0,1l-1,0c0,0,0,-1,0,-1l0,-1ZM150.5,337.5l-5,3c0,-1,0,-1,0,-2l6,-2ZM131.5,352.5c0,0,1,0,1,0c1,0,2,0,3,-1c1,0,1,0,1,-1c1,0,1,-1,2,-1c0,0,0,-1,0,-1c0,0,0,-1,0,-1l0,-1l-1,-1l0,-1l1,-1l0,1c0,0,0,1,1,1l0,1l0,1c0,1,0,1,0,2l-1,0c0,1,0,1,0,1c0,1,0,1,0,1c-1,0,-1,1,-1,1c0,0,-1,0,-1,1l-1,0c-1,0,-1,0,-1,0l-1,0l-1,0l-1,-1ZM130.5,361.5l5,-3c0,0,0,1,0,1l-5,3ZM132.5,357.5l5,-2c0,1,0,1,0,1l-5,3ZM199.5,347.5c0,0,1,0,1,0l1,0c1,0,1,-1,1,-1l0,-2l-1,-6c0,0,0,-1,0,-1c0,0,0,-1,0,-1c0,0,0,-1,1,-1l0,1c0,0,0,1,1,1l0,1c-1,0,-1,0,-1,1l0,-1c0,0,0,1,0,1c0,0,0,1,0,2l0,2c0,1,0,1,0,1l0,2c0,0,0,1,0,1c0,1,0,1,0,1l-1,0c0,0,0,1,0,1c0,0,-1,0,-1,0l-1,0l-1,0c0,0,-1,0,-1,0c0,-1,-1,-1,-1,-1l-2,-2c-1,-1,-1,-1,-1,-1l-1,-1c0,1,0,1,0,1l0,1c0,1,0,1,0,1c0,0,0,1,-1,1l0,1c-1,0,-1,0,-1,0c-1,0,-1,0,-2,0l-1,0l-1,0c0,-1,0,-1,-1,-2l1,1l0,1l-1,0c0,1,0,2,0,2c0,1,-1,1,-1,2c0,0,-1,0,-1,0c0,0,0,1,-1,1c0,0,-1,0,-1,0c-1,0,-1,0,-2,0l-1,0c-1,0,-1,0,-2,-1l0,-1c0,0,-1,-1,-1,-1c0,-1,1,-1,1,-2c0,0,0,-1,0,-1l1,-1l0,1l-1,0c0,1,0,1,0,2c0,0,1,1,1,1c0,1,1,1,2,1l1,0c1,0,2,0,3,0c0,-1,1,-1,1,-2c0,0,1,0,1,0l0,-1l0,-3l-1,-1c0,0,0,-1,0,-1l0,-7l1,-2l1,10c0,1,0,1,0,1l0,1l1,0l1,0l1,0c0,0,1,0,1,0c1,0,1,0,1,0l0,-1l1,0c0,-1,0,-1,-1,-1c0,-1,0,-1,0,-1c0,0,-1,0,-1,-1l-1,0c0,-1,0,-1,-1,-1c-1,0,-1,0,-1,0c0,-1,0,-1,0,-1c0,-1,0,-1,0,-1c0,-1,0,-1,0,-1l0,-1c0,0,1,0,1,0c0,0,1,-1,3,-1c1,-1,2,-1,4,-2c1,0,2,-1,3,-1l1,0l-1,2c-1,0,-1,0,-1,0c0,0,-1,0,-2,1c-2,0,-3,1,-5,1c-1,1,-2,1,-2,1c0,1,0,1,0,1c-1,0,-1,0,-1,0l1,1c1,0,1,0,1,0c1,0,1,0,1,0l0,1l1,0c1,0,1,1,2,1c0,0,1,1,1,1c1,1,1,1,2,2l2,1l1,0ZM201.5,331.5l0,1l1,0l0,-1l0,-1l0,1c0,0,1,0,1,0l1,-1c0,1,0,1,0,1l0,1l-1,0l0,1c0,0,-1,-1,-1,-1l0,1c0,0,-1,0,-1,0l-1,0l0,-1l0,-1ZM204.5,352.5l-5,2c1,0,1,-1,1,-1l4,-2ZM191.5,330.5c0,-1,0,-1,1,-1l1,0l0,1l0,1l0,1l0,1l-1,-1l0,1l-1,0c0,1,0,1,-1,1l-1,0l1,-1l1,0l0,-1l1,0l-1,0c0,-1,0,-1,0,-1l0,-1ZM192.5,330.5l0,1l0,-1ZM179.5,331.5l0,1l1,0l0,-1l1,0c0,1,0,1,0,1c1,0,1,0,1,-1l0,-1l0,1l0,1c0,0,0,1,0,1l-1,0l-1,0c0,0,0,1,-1,1l0,-1l0,-1l0,-1ZM182.5,357.5l-4,2c0,-1,0,-1,1,-1l4,-2ZM234.5,333.5l3,-1l-3,2ZM243.5,332.5l3,-2l0,1l-3,2ZM231.5,352.5l-1,-1l-1,1l-2,0l1,-2l2,1l0,-1l2,1ZM228.5,349.5l-1,0l-1,0c-1,0,-1,0,-1,0c0,-1,0,-1,0,-1l-1,0c0,0,-1,0,-1,0c-1,1,-1,1,-2,1l-2,1l-1,0l-1,0l-1,0c-2,0,-3,0,-4,0c-1,-1,-2,-1,-2,-1c0,-1,-1,-1,-1,-1c0,-1,0,-1,0,-1c0,0,0,-1,0,-1c0,-1,0,-1,0,-1c0,-1,1,-1,1,-2l0,1c0,1,0,1,0,1c0,1,0,1,0,2c0,0,1,0,2,1l1,0l1,0c1,0,2,0,3,0c1,0,1,0,2,0c0,0,1,0,1,0l1,0l1,-1c0,0,1,0,2,0c0,-1,1,-1,1,-1l0,1l1,0l1,0l1,0c1,0,1,0,2,0l1,0c0,0,0,-1,0,-1l-1,-1l0,-1l1,-1l0,1c0,0,0,1,0,1c0,1,0,1,0,1c0,0,0,1,0,1c0,1,0,1,0,1c0,0,-1,1,-2,1l-1,0ZM218.5,344.5l-1,-1l-1,1l-1,-1l1,-1l1,0l1,-1l1,1ZM212.5,359.5l6,-2c-1,0,-1,0,-1,0c0,1,0,1,0,1l-5,2ZM214.5,356.5l5,-3c0,1,0,2,0,2l-5,2ZM281.5,338.5l-1,-1l0,-1l2,1ZM285.5,348.5l-1,0c-1,1,-1,1,-2,1l-1,0l-1,0l-1,0l0,-1l0,-1l1,0c1,0,1,0,2,0l1,0l1,0c0,-1,0,-1,1,-1c0,0,-1,-1,-1,-1c0,0,0,-1,-1,-1l0,-1l-1,0l-1,-1l0,-2c1,0,1,1,1,1c1,0,1,0,1,0l0,1c1,0,1,0,1,0c0,0,0,1,1,1c0,1,0,1,0,2c0,1,0,1,0,1c0,0,0,1,0,1l0,1ZM228.5,339.5l0,-1c0,0,0,-1,0,-1c0,-1,0,-2,-1,-2l1,-1l0,1c0,0,0,1,1,1l0,1c0,1,-1,1,-1,1l0,1ZM280.5,333.5c0,-1,0,-1,0,-2c0,-1,0,-1,0,-2c1,0,1,0,1,1l0,1c0,0,0,1,0,1c0,1,0,1,-1,1ZM269.5,347.5c0,0,1,0,1,0l1,0c1,0,1,-1,1,-1l0,-2l-1,-6c0,0,0,-1,0,-1c0,0,0,-1,0,-1c0,0,0,-1,1,-1l0,1c0,0,0,1,1,1l0,1c0,0,-1,0,-1,1l0,-1c0,0,0,1,0,1c0,0,0,1,0,2l0,2c0,1,0,1,1,1l0,2c0,0,-1,0,-1,0c0,0,0,1,0,1c0,1,0,1,0,1l-1,0c0,0,0,1,0,1c0,0,-1,0,-1,0l-1,0c-1,0,-1,0,-1,0c-1,0,-1,-1,-1,-1c-1,-1,-1,-1,-1,-3c0,1,0,2,-1,2c0,0,-1,1,-2,1c0,1,-1,1,-1,1l-1,0l-2,0l-1,1l-1,0l-1,0l0,-1l-1,0l-1,0c-1,0,-2,0,-2,-1c0,0,-1,-1,-1,-2l0,-1c0,0,1,0,1,0c0,0,0,-1,0,-1l0,-1l0,1c0,2,1,2,2,3c1,0,1,0,2,0c1,0,1,1,2,1l1,0l1,-1l1,0c3,0,4,-1,5,-3l-1,-7l1,-2l1,11c0,0,0,1,1,1l1,0ZM274.5,352.5l-4,2c0,0,0,-1,0,-1l4,-2ZM260.5,344.5c-1,0,-1,1,-2,1c0,0,-1,0,-1,0c0,-1,0,-1,-1,-1l1,0l1,0l1,-1l-1,0c0,0,-1,0,-1,0c0,-1,0,-1,0,-1l0,-1c1,-1,2,-2,3,-2l0,1l-1,0c0,0,-1,1,-1,1l1,0c1,0,1,1,1,1c0,1,0,1,0,1c0,0,0,1,0,1ZM256.5,336.5l4,-2l0,1l-4,2ZM301.5,340.5l-1,-1l1,-2l1,1ZM303.5,345.5c0,1,-1,1,-1,1c0,0,-1,1,-1,1c0,-1,-1,-1,-1,-1c-1,-1,-1,-1,-1,-1c0,-1,0,-1,1,-2c0,0,0,-1,0,-1c1,-1,1,-1,2,-1l1,1c0,0,0,1,0,1l0,1l1,0l0,1l0,1l0,1c0,0,0,1,0,1c-1,0,-1,1,-1,1c1,0,1,0,1,1c0,0,1,0,1,0c0,1,0,1,0,1c-1,0,-1,0,-1,0c0,1,0,1,0,1c-1,1,-1,1,-2,1c0,1,-1,1,-2,1c-1,1,-2,1,-3,1c0,0,-1,0,-2,0c0,-1,-1,-1,-1,-1c0,-1,-1,-1,-1,-1c0,-1,0,-1,0,-2c0,-1,0,-1,0,-2c0,-1,1,-1,1,-2c1,0,1,0,1,0c-1,1,-1,1,-1,2c0,0,0,1,0,1l0,1c0,0,0,1,1,1c0,1,1,1,2,1l1,0c1,0,1,0,1,0c1,0,1,0,1,0c1,0,2,-1,2,-1c1,0,1,-1,1,-1c0,0,-1,0,-1,0c-1,0,-1,-1,-1,-1c0,0,-1,0,-1,0c0,-1,0,-1,0,-1l1,0c0,0,0,-1,0,-1c0,0,1,0,1,0c0,0,1,0,1,0c0,-1,0,-1,0,-1c0,0,0,-1,0,-1l0,-1ZM300.5,344.5l1,0l1,0l0,-1l-1,0ZM304.5,355.5l-4,2c1,-1,1,-1,1,-1l4,-2ZM325.5,349.5l0,-1l0,-1l0,-9l1,-2l0,11c0,0,0,1,0,1c0,0,-1,1,-1,1ZM328.5,352.5l-3,2c0,-1,0,-1,0,-1l4,-2ZM317.5,343.5l-2,-1l1,-2l1,1ZM316.5,352.5c0,0,-1,0,-1,0c-1,0,-1,0,-2,-1l-1,-1c0,0,0,-1,0,-2l0,-1c0,0,0,-1,0,-1c1,0,1,0,1,0c0,-1,0,-1,0,-1l0,-1l1,1l-1,1c0,0,0,1,0,1c0,1,0,1,0,1l0,1c0,0,1,0,1,0c0,1,0,1,0,1c1,0,1,0,1,0c0,0,1,0,2,0c1,0,1,0,2,0c1,0,1,-1,2,-1c0,0,0,-1,0,-1c0,-1,0,-1,0,-1c0,-1,0,-1,0,-1l0,-1c0,0,-1,0,-1,-1l0,-1l0,-2c0,0,1,1,1,1c0,1,0,1,0,1c0,0,1,1,1,1l0,1l0,1c0,0,0,1,0,1c0,1,0,1,0,2c-1,1,-1,1,-2,2c0,0,-1,0,-2,1c0,0,-1,0,-2,0ZM313.5,335.5c1,1,1,1,1,1l0,-1l1,0l0,-1l0,1l1,0l0,-1l0,-1l1,0l0,1l0,1l-1,0c0,1,0,1,0,1l-1,0c-1,1,-1,1,-1,1c-1,0,-1,0,-1,0c0,-1,0,-1,0,-1l0,-1ZM317.5,332.5l-5,3c0,-1,0,-2,1,-2l5,-3ZM96.5,335.5l1,0l1,0c0,0,1,0,1,0c1,0,1,0,1,0c0,0,0,1,0,1c0,0,-1,0,-1,1c-1,0,-1,0,-1,0c-1,0,-1,0,-1,0l-1,0l1,0c1,0,2,-1,2,-1l-1,0l-1,0l-1,0l-1,0l0,-1c0,0,1,0,1,0ZM293.5,337.5c0,0,1,0,1,0c1,0,1,0,1,0c1,0,1,0,2,0l0,1c0,0,0,1,0,1c0,0,-1,0,-1,0c0,0,0,1,0,1l-1,0l-1,0l-1,0l2,-1c1,0,1,0,2,-1c-1,0,-1,0,-1,0c0,0,-1,0,-1,0c0,0,-1,0,-1,0c0,0,-1,0,-1,0l0,-1ZM371.5,348.5l0,-1l0,-1l-1,-9l1,-2l1,11c0,0,0,1,0,1c-1,0,-1,1,-1,1ZM367.5,351.5l-1,-1l-1,1l-1,0l0,-2l2,1l1,-1l1,1ZM364.5,346.5c1,0,1,0,2,0c0,0,1,0,1,0c0,-1,0,-1,0,-1l0,-1c0,0,-1,0,-1,-1l1,-1l0,1l1,0c0,0,0,1,0,1c0,0,0,1,0,1c0,0,0,1,0,1c0,0,-1,0,-1,0c0,0,0,1,0,1c0,0,-1,1,-1,1c-1,0,-1,0,-1,0l-1,0l-1,0c-1,0,-1,0,-1,0c0,0,-1,0,-1,0l0,-1c-1,0,-1,0,-1,0l-1,0c0,0,0,1,-1,1l-1,0c0,0,-1,0,-1,0c-1,0,-1,0,-1,-1c0,0,-1,0,-1,-1c0,0,0,-1,0,-1c0,1,-1,1,-1,1l-1,0c-1,0,-1,0,-2,0l0,-1c0,-1,0,-1,1,-2c0,0,1,0,2,-1l1,0l0,-1l-1,0l0,-1l1,0l0,1l1,1l0,1l0,2l0,1l1,0c0,0,1,0,1,0c1,0,1,0,1,0c1,0,1,0,2,0l0,-1c0,0,1,0,1,0c0,1,1,1,1,1l1,0l1,0ZM364.5,338.5l0,-1c0,0,0,-1,0,-1c0,-1,0,-1,0,-2l0,-1c0,0,1,1,1,1c0,1,0,1,0,1l0,1c0,0,0,1,0,1c0,0,0,1,-1,1ZM352.5,353.5c0,-1,0,-1,0,-2c0,-1,-1,-1,-1,-2l1,0l0,1l0,1c0,0,0,1,0,1c0,1,0,1,0,1ZM371.5,333.5l0,-1c0,0,0,-1,0,-1c0,-1,-1,-1,-1,-2l1,0l0,-1c0,0,0,1,0,1c0,1,0,1,0,1l1,1c0,0,0,1,-1,1c0,0,0,1,0,1ZM361.5,343.5l-1,-1l-1,1l-1,-1l0,-1l2,1l1,-2l1,1ZM362.5,351.5l-4,2c0,0,0,-1,0,-1l4,-2ZM354.5,343.5l-1,0l-1,0l0,1c0,0,-1,0,-1,0l1,0l1,0c0,0,1,0,1,0ZM395.5,347.5c0,0,-1,1,-1,1l0,-1l-1,0l-1,0l-1,-1l0,1l0,1l-1,0l-1,0l-2,0c0,1,0,1,0,1c0,1,0,1,0,1c0,0,0,1,0,2c0,0,-1,1,-1,1c-1,1,-2,1,-2,1c-1,1,-2,1,-3,1c0,0,-1,0,-1,0c-1,-1,-1,-1,-2,-1c0,0,-1,-1,-1,-1c0,-1,0,-1,0,-2c0,0,0,-1,0,-1l0,-1l0,-1c0,0,1,0,1,0c0,-1,0,-1,0,-1l1,0c-1,1,-1,1,-1,1c0,1,0,1,0,1c0,1,0,1,0,1c0,1,0,1,0,1c0,1,0,1,1,1c0,0,0,1,1,1c0,0,1,0,2,0c1,0,1,0,2,0c1,-1,2,-1,2,-1c0,-1,0,-1,0,-1l0,-1l0,-1c0,0,0,-1,0,-1l0,-1l-1,0l1,-2c0,0,0,1,1,1l1,0l1,0l1,0c0,0,1,0,1,0l1,-1c0,-1,0,-1,1,-2l1,0l1,0c0,0,0,1,0,1l0,1l0,1l0,1ZM393.5,345.5l1,1c0,-1,0,-1,0,-1c0,-1,0,-1,-1,-1l0,1ZM391.5,333.5l0,1c0,1,0,1,0,1l0,-1c1,0,1,0,1,0l0,-1l0,1l1,0l0,-1l1,-1l0,1l0,1c0,1,-1,1,-1,1c-1,0,-1,0,-1,0c-1,1,-1,1,-1,1c0,0,-1,0,-1,-1l0,-1ZM394.5,351.5l-4,2c0,0,0,-1,0,-1l4,-2ZM382.5,346.5l-1,-1l1,-2l1,1ZM382.5,333.5c0,-1,0,-1,0,-1c1,0,1,0,2,0c0,0,1,0,1,0c1,0,1,1,1,1c0,1,-1,1,-1,1c0,0,0,1,-1,1c-1,0,-1,0,-1,0l-1,0l1,-1c1,0,2,0,2,0c0,-1,-1,-1,-1,-1l-1,0l-1,0c0,0,0,1,-1,1l0,-1l1,0ZM54.5,293.5c0,0,1,0,1,-1c0,0,1,0,1,0c1,0,1,0,2,1c0,1,0,1,0,1c-1,1,-1,1,-1,1c-1,0,-1,0,-1,0c0,0,-1,0,-1,0c0,0,-1,0,-1,0l2,0c1,-1,1,-1,1,-1c-1,0,-1,0,-1,0c-1,0,-1,0,-1,0c-1,0,-1,0,-1,0c0,0,0,-1,0,-1ZM112.5,287.5l0,-1c0,0,0,-1,0,-1c0,-1,-1,-2,-1,-2l0,-1l1,0l0,1c0,0,0,1,0,1l0,1c0,0,0,1,0,1l0,1ZM92.5,301.5c1,0,1,0,1,0c0,0,1,0,1,0c0,0,0,-1,1,-1l0,-1l0,-1l-1,-7c0,-1,0,-1,0,-2c0,0,1,0,1,0c0,1,0,1,0,1c0,0,1,0,1,0c0,1,0,1,0,1c0,1,0,1,0,1l-1,0c0,1,0,1,0,2c0,0,1,1,1,3c0,0,0,1,0,1l0,1c0,0,0,1,0,1c0,1,-1,1,-1,1c0,1,0,1,0,1c0,0,-1,0,-1,0l-1,0c0,1,0,1,-1,1c-1,0,-1,0,-1,-1c-1,0,-1,0,-1,0c0,0,-1,0,-1,-1l0,-1l0,-1c0,0,-1,1,-1,1l-1,1c0,0,-1,0,-1,0l-1,1l0,1c0,0,0,1,0,1c0,0,0,1,-1,1c0,0,0,1,0,1l-1,0c0,0,0,1,0,1l-1,0l-1,0l-1,0l-1,0c-1,0,-1,0,-1,0c0,0,0,-1,0,-1l1,0c0,0,1,0,1,0c1,0,1,0,1,0c1,0,1,0,1,0l0,-1l1,0c0,-1,0,-1,1,-2l0,-1c1,0,1,0,1,-1c-1,0,-1,0,-1,0l1,-2l1,0c0,0,1,0,1,0c1,0,1,0,1,-1c0,0,1,0,1,0l0,1c0,1,1,1,1,1c0,0,0,1,0,1c0,0,1,0,1,0l1,0ZM97.5,306.5l-4,2c0,-1,0,-1,0,-1l4,-2ZM90.5,306.5l-2,-1l-1,1l-1,-1l1,-1l1,0l1,-1l2,1ZM89.5,287.5c0,-1,0,-1,0,-1c1,0,1,-1,1,-1c0,1,1,1,1,1l0,1l0,1l0,1l0,1l-1,-1l0,1l-1,0c0,1,-1,1,-1,1l-1,0l1,-1l1,0l0,-1l0,-1l0,-1ZM90.5,287.5c-1,0,-1,0,-1,0l1,0l0,1l0,-1ZM83.5,309.5l-3,2c0,-1,0,-1,0,-1l4,-2ZM79.5,306.5l-2,-1l0,1l-2,-1l1,-1l2,1l0,-2l2,1ZM76.5,303.5l-1,0l-1,0c0,0,0,-1,-1,-1l-1,-1l-2,-2c-1,0,-1,0,-1,-1l-1,0l0,1l0,1l0,1l-1,1c0,0,-1,0,-1,0c0,0,-1,0,-1,1l0,1c0,1,0,1,0,1c0,0,0,1,0,1l-1,0l-1,-1c-1,0,-1,0,-2,0l0,1c0,0,-1,1,-1,1c-1,0,-1,1,-2,1c-2,0,-3,0,-4,0l4,-2l2,-1c0,0,1,0,1,-1l1,-1c0,-1,0,-1,0,-1l1,-1l1,0l1,0c0,0,1,0,1,0l1,0c0,0,0,-1,0,-1c1,0,1,0,1,0c0,-1,0,-1,0,-1l-1,-1c0,-1,0,-1,-1,-1l-1,-1l-1,0c-1,0,-1,-1,-1,-1c0,-1,0,-1,0,-1l0,-1c0,0,0,-1,0,-1c1,0,1,0,1,0c0,-1,1,-1,3,-2c1,0,2,-1,4,-1c2,-1,2,-1,3,-1l1,0l-1,1c0,0,-1,0,-1,0c0,0,-1,1,-2,1c-2,1,-3,1,-4,2c-2,0,-3,1,-3,1l-1,1l2,0l1,1l1,0c1,1,1,1,2,2c0,0,1,0,1,1c1,0,2,1,2,1l2,2l1,0l1,0c0,0,1,0,1,0c1,0,1,-1,2,-1c0,-1,0,-1,-1,-1c0,0,0,-1,0,-1l1,-2c0,0,0,1,0,1c0,1,0,1,0,1c0,1,0,1,0,1c0,1,0,1,0,1c0,1,0,1,0,1c-1,1,-1,1,-2,1c0,0,-1,1,-1,1ZM76.5,289.5l4,-2l0,1l-4,2ZM67.5,283.5l1,-1l1,0c0,0,0,1,0,1c0,0,0,1,0,1c0,1,0,1,0,1l1,0l-1,1l-1,0l-1,1l-1,0l0,1l-1,0l1,-1c0,0,1,0,1,-1l1,0l-1,-1l0,-1l0,-1ZM68.5,284.5l0,-1l0,1ZM64.5,304.5l0,-1c0,0,-1,-1,-1,-1l0,1c0,0,-1,0,-1,0c0,0,1,0,1,1l1,0ZM121.5,303.5l0,-2l0,-1l-1,-8l1,-3l1,11c0,0,0,1,0,1c-1,0,-1,0,-1,0c0,1,0,1,0,2ZM116.5,302.5c-1,0,-1,0,-2,0c0,-1,-1,-1,-1,-2c0,1,0,1,0,2c-1,0,-1,1,-2,1c-1,0,-1,-1,-2,-1c0,-1,0,-1,-1,-2c0,1,0,1,-1,1l-1,0c-1,0,-1,0,-1,0c-1,0,-1,0,-1,0c0,0,0,-1,0,-1l0,-1c1,0,1,0,1,-1c1,0,1,0,2,-1l1,0l0,-1l0,-1c0,0,1,0,1,-1l0,1l0,1l0,3l0,1c0,0,1,0,1,0c0,0,0,1,1,1c0,0,1,-1,1,-1c0,0,1,0,1,-1c0,0,0,-1,0,-2c0,-1,0,-1,-1,-2c0,-1,0,-1,0,-1l1,-1l0,-1l0,3l1,2l0,1c0,1,0,1,0,1c0,1,1,1,1,1l1,0c0,0,1,0,1,0l0,-1l0,-1l-1,-1l0,-1l0,-1l0,-1l0,-1c0,0,1,0,1,1c0,0,0,1,0,1l0,2c0,1,1,1,1,2c0,0,-1,1,-1,2l0,1c-1,0,-1,0,-1,0ZM108.5,297.5l0,1c-1,0,-1,0,-1,0c-1,1,-1,1,-1,1c0,0,1,0,2,0ZM110.5,289.5l0,1l1,0c1,0,1,0,1,-1l0,-1l1,0l0,1c1,0,1,0,1,-1l0,-1l0,1l0,1l0,1c0,0,0,1,0,1l-1,0l-1,-1l0,1c-1,0,-1,1,-1,1c-1,0,-1,-1,-1,-1l0,-1l0,-1ZM109.5,306.5l-5,2c1,-1,1,-1,1,-1l4,-2ZM176.5,306.5l-2,-1l1,-1l1,1ZM173.5,303.5l-1,0l-1,0l-1,-1c-1,0,-1,0,-1,0c0,-1,0,-1,0,-1l-1,0c0,0,0,1,0,1c0,0,-1,0,-1,0c-1,0,-1,0,-1,1l-1,0c-1,0,-1,-1,-1,-1c-1,0,-1,0,-1,0c-1,0,-1,0,-1,-1l-1,0l-1,0l0,1l-1,0l-1,0l-1,1l-1,0c-1,0,-1,-1,-2,-1c-1,0,-1,1,-1,1c-1,0,-1,0,-2,0l-1,-1l-1,-1l-1,1c0,0,-1,1,-1,1l-1,0l-1,0l0,-1c-1,0,-1,0,-1,0c0,0,-1,0,-1,-1l0,1c0,0,-1,0,-1,0c-1,0,-2,1,-2,1l-2,0l-1,0l-1,1l-1,0c-2,0,-3,-1,-4,-1c-1,0,-2,0,-2,-1c-1,0,-1,-1,-1,-1c0,-1,0,-1,0,-1l0,-1l0,-1c0,0,1,-1,1,-1c0,0,0,1,0,1c0,0,0,1,0,1c0,0,0,1,0,1c0,0,1,1,2,1c1,0,1,1,2,1c1,0,2,0,3,0c0,0,1,0,1,0c1,0,1,0,2,-1l1,0c1,0,2,0,3,-1c0,0,1,-1,1,-1l0,1l0,1c1,0,1,0,1,0l1,0l1,0c0,0,1,0,1,0l0,-1c0,0,1,0,1,-1c1,-1,2,-2,3,-2l0,1l1,1l1,1c1,1,1,1,1,1l1,0l1,0c1,0,1,0,1,0l1,0l0,-1l1,0l0,-1c-1,0,-1,0,-1,0c-1,0,-1,0,-1,0l1,-2c0,0,1,0,1,0c0,0,1,-1,1,-1l1,0c0,1,0,1,0,1l1,0c0,0,0,1,0,1c0,0,0,1,0,1l0,1l-1,0l1,0c0,0,0,1,0,1l1,0l1,0c1,0,1,0,1,0c1,0,2,0,2,-1l1,0c1,0,1,0,1,0c0,0,0,1,0,1c1,0,1,0,1,0l1,0l1,0c1,0,1,0,2,0c0,0,1,-1,1,-1c0,-1,0,-1,0,-1c-1,0,-1,0,-1,0l0,-1l1,-2c0,0,0,1,0,1l0,1l1,1l0,1c0,0,-1,0,-1,0c0,1,0,1,0,1c0,1,-1,1,-1,1c-1,0,-1,1,-2,1ZM175.5,309.5l-4,2c0,-1,0,-1,0,-1l4,-2ZM168.5,298.5l-1,-1l1,-1l1,1ZM170.5,306.5l-4,2c0,-1,0,-1,0,-1l4,-2ZM157.5,288.5c0,0,1,0,1,0c0,0,1,0,1,0c1,0,1,0,2,0c0,0,0,1,0,1l0,1c-1,0,-1,0,-1,0c0,0,-1,0,-1,0c0,1,0,1,-1,1l-1,-1l2,0c1,0,1,-1,2,-1c-1,0,-1,0,-1,0c-1,0,-1,0,-1,0c0,0,-1,0,-1,0c-1,0,-1,0,-1,0c0,-1,0,-1,0,-1ZM153.5,301.5l-1,-1c0,0,0,-1,0,-1c-1,0,-1,0,-1,0l-1,1c0,0,1,0,1,0l1,1ZM149.5,289.5l4,-2l0,1l-4,2ZM137.5,297.5l-1,-1l-1,1l-1,0l0,-2l2,1l1,-1l1,1ZM134.5,306.5l-4,2c0,-1,0,-1,0,-1l5,-2ZM219.5,303.5l0,-2l0,-1l0,-8l1,-3l0,11c0,0,0,1,0,1c0,1,0,1,-1,2ZM212.5,301.5l1,0c1,0,1,-1,1,-1l0,-1l0,-1l0,-7c-1,0,-1,0,-1,0c0,-1,1,-1,1,-2c0,1,0,1,1,1l1,0c-1,1,-1,1,-1,1c0,1,0,1,0,1c0,1,0,1,0,2c0,0,0,1,0,3c0,0,0,1,0,1l0,1c0,0,0,1,0,1c0,1,0,1,0,1l-1,0c0,1,0,1,0,1c-1,0,-1,0,-1,0c-1,0,-1,1,-1,1l-1,0c-1,0,-1,0,-1,-1c-1,0,-1,0,-1,0c0,0,0,-1,0,-1l-1,0c0,0,-1,1,-1,1l-1,0c0,0,0,1,-1,1l-2,0c-1,0,-2,-1,-2,-1c-1,0,-1,-1,-1,-1c0,0,0,-1,0,-1l-1,0c0,0,-1,0,-1,0l-4,2c-1,0,-1,0,-1,0c-1,0,-1,0,-1,0l0,1l-1,0l-1,0l0,-1l0,1l0,1c-1,0,-1,1,-1,2l-1,0c0,1,0,1,0,1c-1,0,-1,1,-1,1c-1,0,-1,0,-1,0c-1,0,-1,0,-1,0l-1,0c0,0,-1,0,-1,0c-1,0,-1,0,-1,-1l1,0c1,0,1,0,2,0c0,0,1,0,1,-1c0,0,1,0,1,0c0,0,0,-1,1,-1c0,0,0,-1,0,-1c0,0,1,-1,1,-1c0,-1,0,-1,0,-1c0,0,-1,0,-1,0c0,-1,0,-1,0,-1l0,-1c0,0,1,0,1,0l1,1l1,0c0,0,1,0,1,0c0,0,1,0,1,0c1,-1,1,-1,2,-1l1,0l0,-1l1,0l-2,0c-1,-1,-1,-1,-2,-1c0,0,-1,0,-1,0l-1,0l1,0c0,-1,0,-1,0,-1c1,-1,1,-1,2,-1l1,0c0,1,1,1,1,1c1,0,2,1,3,1c1,0,2,0,2,0c1,0,1,0,2,0l0,2l-1,0l-1,0l0,1c0,0,1,0,1,0l1,0l2,0c1,0,1,0,1,0c1,0,1,0,2,-1l1,0c0,0,0,1,1,1l1,0l1,0ZM212.5,285.5c0,-1,0,-1,1,-1c0,0,1,0,1,0c1,0,1,0,1,0c1,0,1,1,1,1c0,0,0,1,-1,1c0,0,0,1,0,1c0,0,-1,0,-1,0c0,0,-1,0,-1,0l-1,0l2,-1c0,0,1,0,1,0c0,-1,0,-1,-1,-1c-1,0,-1,0,-2,0c0,0,0,1,0,1l0,-1ZM208.5,306.5l-1,-1l1,-1l1,1ZM206.5,289.5l4,-2l0,1l-4,2ZM194.5,292.5c0,0,1,-1,1,-1c1,0,1,0,1,0c1,0,1,0,2,0c0,0,0,1,0,1c0,1,0,1,0,1c0,0,-1,1,-1,1l-1,0l-1,0l-1,0l2,0c1,-1,1,-1,2,-1c-1,0,-1,-1,-1,-1c0,0,-1,0,-1,0c0,0,-1,0,-1,1c0,0,-1,0,-1,0c0,-1,0,-1,0,-1ZM189.5,313.5l-4,2c0,-1,0,-1,0,-1l4,-2ZM237.5,293.5l-1,-1l1,-1l1,1ZM239.5,299.5c-1,0,-1,0,-1,1c0,0,-1,0,-1,0c-1,0,-1,0,-1,0c0,0,0,-1,0,-1c-1,0,-1,0,-1,-1c0,0,0,-1,0,-1l1,0c0,-1,0,-1,0,-1c1,-1,1,-1,1,-1c1,0,1,0,2,0c0,1,0,1,0,2l0,1l1,0l0,1c0,0,0,1,0,1l0,1l-1,1l0,1c0,0,1,0,1,0c0,0,0,1,0,1c0,0,1,0,1,0c0,0,-1,0,-1,1l0,1c-1,0,-1,1,-2,1c0,0,-1,1,-2,1c-1,0,-2,1,-3,1c0,0,-1,-1,-2,-1c0,0,-1,0,-1,-1c-1,0,-1,0,-1,-1c0,0,0,-1,0,-1c0,-1,0,-1,0,-1c0,0,0,-1,0,-1c0,-1,1,-2,1,-2c0,0,1,0,1,0c-1,0,-1,1,-1,1c0,1,0,1,0,2c0,1,0,1,1,2c0,0,1,1,2,1c0,0,1,0,1,0c0,0,1,0,1,0c1,-1,1,-1,1,-1c1,0,2,0,2,-1c1,0,1,0,1,0c0,-1,-1,-1,-1,-1c-1,0,-1,0,-2,0l0,-1c0,-1,0,-1,0,-1c1,0,1,0,1,0c0,0,1,0,1,0c0,0,1,-1,1,-1c0,-1,0,-1,0,-1c0,0,0,-1,0,-1ZM236.5,297.5l0,1c1,0,1,0,1,0l1,0c0,0,0,-1,0,-1c0,0,-1,0,-1,0l-1,0ZM240.5,309.5l-4,2c1,-1,1,-1,1,-1l3,-2ZM280.5,289.5l-1,-1l-1,1l-1,-1l1,-1l1,1l1,-1l1,1ZM279.5,293.5c0,0,1,0,1,0l0,1c1,0,1,0,1,1l0,-1l0,-1c0,0,0,-1,0,-1l-1,0c0,-1,0,-1,0,-1l-1,0c0,0,0,1,0,1l0,1l-1,0l0,1c-1,0,-1,0,-1,0c0,1,-1,1,-1,1c0,0,0,1,-1,1c-1,0,-1,0,-1,1c-1,0,-1,0,-1,0c0,1,0,1,-1,2l1,0l0,-1l1,0l1,0l0,1l1,0l1,0l1,1l-1,0l-1,0l-1,0c0,1,0,1,-1,1l-1,0l-1,0l-1,0l-1,0l0,-1l-1,0l0,1c0,0,-1,0,-1,0c0,0,1,0,1,1l0,1c0,0,0,1,0,1c-1,0,-1,1,-1,1c0,0,-1,1,-1,1l-1,0c0,1,0,1,-1,1c0,0,-1,0,-1,0l-1,0c0,0,-1,0,-1,0c0,1,1,1,1,1c1,0,1,0,2,0c0,0,1,0,1,0c0,0,1,0,1,0c0,0,1,-1,1,-1l1,-1c1,-1,1,-2,1,-2l0,-1l0,-1c0,1,1,1,1,1l1,0l0,-1l1,0l1,0c1,0,1,0,1,0l2,-1c0,0,1,0,1,0l0,-1l1,0c0,0,1,0,1,0l1,0l2,0l1,-1l-1,0c-1,0,-1,0,-1,0c-1,0,-1,0,-2,0c0,-1,-1,-1,-1,-1l-2,-1l-1,0c0,-1,1,-1,1,-1l0,-1c1,0,1,0,1,-1l1,0ZM277.5,283.5l4,-2l0,1c-1,0,-1,0,-1,0l-4,2ZM276.5,306.5l-2,-1l1,-1l1,1ZM251.5,286.5l1,0c0,-1,1,-1,1,-1c1,0,1,1,1,1c1,0,1,0,1,0l0,1l-1,1c0,0,-1,0,-1,0c0,0,-1,0,-1,0l-1,0l2,0c0,0,1,-1,1,-1l-1,0c-1,0,-1,0,-2,0l0,-1ZM271.5,285.5c0,-1,1,-1,1,-1c0,0,1,0,1,0c1,0,1,0,2,0c0,0,0,1,0,1c0,0,0,1,0,1c-1,0,-1,1,-1,1c-1,0,-1,0,-1,0l-1,0c0,0,-1,0,-1,0l2,-1c1,0,1,0,1,0c0,-1,0,-1,0,-1c-1,0,-1,0,-1,0c-1,0,-1,0,-1,0c-1,0,-1,1,-1,1l0,-1ZM269.5,313.5l-4,2c0,-1,0,-1,1,-1l4,-2ZM262.5,296.5c0,0,-1,0,-1,0l-1,0c0,0,-1,0,-2,1c0,1,-1,1,-1,2c0,0,1,0,1,1c1,0,1,0,1,0l1,0c1,0,2,0,2,0c0,1,0,1,0,1c0,1,0,1,0,1c0,1,0,1,-1,1l-1,1c0,0,-1,1,-1,1c-1,0,-2,1,-3,1c0,0,-1,0,-2,0c-1,0,-2,0,-2,0c-1,0,-1,-1,-2,-1c0,0,-1,-1,-1,-1c0,-1,0,-1,0,-2c0,-1,0,-1,0,-2c0,-1,1,-1,1,-2l0,-1l1,0l0,1l-1,1c0,1,0,1,0,1c0,0,0,1,0,1c0,1,0,1,0,1c0,0,0,1,1,1c1,1,2,1,3,1c1,0,2,0,3,0l2,-1c1,0,1,0,1,0c0,-1,1,-1,1,-1l-2,0c-1,-1,-1,-1,-2,-1c-1,0,-1,-1,-1,-1c0,0,0,-1,0,-1c0,0,1,-1,1,-1c0,-1,0,-1,0,-1c1,-1,1,-1,1,-1c0,0,1,-1,1,-1c0,0,1,-1,1,-1c1,0,1,0,2,0l1,0c0,0,0,1,0,1l0,1l-1,0ZM328.5,303.5l0,-2l0,-1l0,-8l1,-3l0,11c0,0,0,1,0,1c0,1,0,1,-1,2ZM320.5,301.5l1,0l1,0c1,0,1,-1,1,-1l0,-1l0,-1l0,-7c0,-1,0,-1,0,-2c0,1,0,1,1,1l1,0c0,1,-1,1,-1,1c0,1,0,1,0,1c0,1,0,1,0,2c0,0,0,1,0,3c0,0,0,1,0,1l0,1c0,0,0,1,0,1c0,1,0,1,0,1l-1,0c0,1,0,1,0,1c-1,0,-1,0,-1,0c0,0,-1,1,-1,1l-1,0l-1,0c-1,0,-2,-1,-2,-1c-1,0,-1,0,-1,0c-1,0,-1,0,-2,0c-1,0,-1,1,-2,1l-1,0c0,0,-1,-1,-1,-1c-1,0,-1,-1,-1,-2c0,1,0,2,-1,2l0,1l-1,0c-1,0,-1,0,-1,-1c-1,0,-1,0,-1,0c-1,-1,-1,-2,-1,-3c0,1,0,1,-1,2c0,0,-1,1,-2,1c0,0,-1,0,-1,0l-1,1l-1,0l-1,0l-1,0l-1,0l-1,0l-1,0l-1,0c-1,0,-2,-1,-2,-1c0,-1,-1,-1,-1,-2l0,-1c0,0,0,-1,1,-1l0,-1c0,0,0,1,0,1c0,1,1,2,2,3c1,0,1,0,2,0c1,0,1,0,2,0l1,0l1,0l1,0c3,-1,4,-1,5,-3l0,-1l-1,-6l1,-2l1,10c0,1,0,1,0,1c1,1,1,1,1,1l1,0c1,0,1,-1,2,-1l0,-1c0,0,0,-1,0,-1l0,-1l-1,-6l1,-2l1,10c0,1,0,1,0,1c0,1,0,1,1,1l1,0c0,0,1,0,1,0c1,0,1,0,1,0c0,-1,0,-1,0,-1l0,-1c0,0,0,-1,0,-1c0,-1,1,-1,1,-1c0,-1,0,-1,0,-1c1,0,1,-1,2,-1c0,0,1,1,1,1c0,0,0,1,0,1l0,1c0,1,0,1,0,1c0,0,0,1,0,1l-1,1l1,0c1,0,1,0,1,0ZM321.5,285.5c0,-1,0,-1,1,-1c0,0,1,0,1,0c1,0,1,0,1,0c1,0,1,1,1,1c0,0,0,1,-1,1c0,0,0,1,0,1l-1,0c0,0,-1,0,-1,0l-1,0l2,-1c0,0,1,0,1,0c0,-1,0,-1,-1,-1c-1,0,-1,0,-2,0c0,0,0,1,0,1l0,-1ZM316.5,294.5l-1,-1l1,-1l1,1ZM316.5,297.5l-1,1c0,1,0,1,0,1l1,1c0,0,1,-1,1,-1l1,0c0,-1,-1,-1,-1,-1c0,-1,0,-1,-1,-1ZM316.5,283.5c1,0,1,0,1,-1c0,0,1,0,1,0c0,0,1,1,1,1c0,0,0,1,-1,1c0,1,0,1,0,1l1,0l0,1l-2,0l0,1c-1,0,-1,0,-1,0l-1,1l-1,0l1,-1l1,0l0,-1l1,0l0,-1l-1,0l0,-1l0,-1ZM318.5,284.5l-1,-1l0,1l1,0ZM307.5,281.5c0,0,1,0,1,0c0,0,1,-1,1,-1c1,0,1,1,2,1l0,1l0,1c-1,0,-1,0,-1,0c0,0,-1,0,-1,0l-1,0c0,0,-1,0,-1,0l2,0c1,0,1,-1,2,-1c-1,0,-1,0,-1,0c-1,0,-1,0,-1,0c-1,0,-1,0,-1,0c-1,0,-1,0,-1,0l0,-1ZM298.5,297.5c-1,1,-1,1,-2,1c0,0,-1,0,-1,0l-1,0l1,0l0,-1l1,0l1,0l-1,-1c0,0,-1,0,-1,0l0,-1l0,-1c1,-1,2,-1,2,-2l1,1l-1,1c0,0,-1,0,-1,0c0,0,0,1,1,1c1,0,1,0,1,1l0,1ZM294.5,289.5l4,-2l0,1l-4,2ZM351.5,303.5l0,-2l0,-1l-1,-8l1,-3l1,11c0,0,0,1,0,1c-1,1,-1,1,-1,2ZM349.5,288.5l4,-2c0,1,0,1,0,1l-4,2ZM342.5,296.5l-1,-1l1,-1l1,1ZM342.5,306.5c0,0,-1,0,-1,0c-1,-1,-1,-1,-2,-1c0,0,-1,-1,-1,-1c0,-1,0,-1,0,-2c0,0,0,-1,0,-1c0,0,0,-1,0,-1c0,0,0,-1,0,-1c0,0,1,0,1,0l0,-1l1,0c-1,0,-1,1,-1,1c0,0,0,1,0,1c0,1,0,1,0,1c0,1,0,1,0,1c0,1,0,1,1,1c0,0,1,0,1,1c0,0,1,0,2,0c0,0,1,0,2,-1c0,0,1,0,1,-1c0,0,1,0,1,0c0,0,0,-1,0,-1c0,0,0,-1,0,-1c0,-1,-1,-1,-1,-1c0,0,0,-1,0,-1l0,-1l-1,0l1,-2l1,1l0,1l0,1c1,1,1,1,1,1c0,0,0,1,0,1l0,1c0,0,0,1,-1,2c0,0,0,1,-1,1c0,1,-1,1,-2,1c-1,1,-1,1,-2,1ZM339.5,288.5l0,1l1,0l0,-1l1,-1l0,1c0,1,0,1,0,1c1,0,1,-1,1,-1l0,-1l0,1l0,1c0,0,0,1,0,1l-1,0l0,-1l-1,1l-1,0l0,-1l0,-1ZM343.5,285.5l-5,3c0,-1,0,-1,0,-1l6,-3ZM369.5,294.5l-1,-1l-1,1l-1,0l0,-2l2,1l1,-1l1,1ZM367.5,301.5c1,0,1,0,2,0c0,0,0,-1,1,-1c0,-1,0,-1,0,-1c-1,0,-1,0,-1,0l0,-1l1,-2c0,0,0,1,0,1l0,1l0,1l1,0l0,1l-1,0c0,1,0,1,0,1c0,1,-1,1,-1,1c-1,0,-1,1,-2,1l-1,0l0,-1l-1,0l0,1l0,1c0,0,0,1,0,2c-1,0,-1,0,-1,0c0,1,0,1,-1,1c0,0,0,1,-1,1l-1,0l-1,0c0,0,-1,0,-2,0l-1,-1c1,0,1,0,1,0l1,0c0,0,1,0,1,0c1,0,1,0,2,-1c1,0,1,-1,1,-1c0,0,1,-1,1,-1c0,0,0,-1,0,-1c1,-1,1,-1,1,-1l-1,0c0,-1,0,-1,0,-1l0,-1c0,0,1,0,1,0l0,1l1,0ZM367.5,286.5l4,-2l0,1l-4,2ZM361.5,289.5l4,-2l0,1l-1,0l-4,2ZM398.5,303.5l0,-2l0,-1l-1,-8l1,-3l1,11c0,0,0,1,0,1c0,0,-1,0,-1,0c0,1,0,1,0,2ZM396.5,287.5l4,-2l0,1l-1,0l-4,2ZM390.5,301.5c0,0,1,0,1,0c0,0,1,0,1,0c0,0,0,-1,0,-1c1,0,1,0,1,-1l0,-1l-1,-7c0,-1,0,-1,0,-2l1,0c0,1,0,1,0,1l1,0c0,1,0,1,0,1c0,1,-1,1,-1,1c0,1,0,1,0,2c0,0,0,1,0,3c0,0,0,1,1,1l0,1c0,0,0,1,-1,1c0,1,0,1,0,1c0,1,0,1,-1,1c0,0,-1,0,-1,0l0,1l-1,0c-1,0,-2,-1,-2,-1l-1,0c0,0,0,1,0,1l-1,0c0,0,-1,0,-1,0c-1,0,-1,-1,-2,-1l0,1c0,1,-1,1,-1,1c-1,1,-1,1,-2,1c-2,0,-3,0,-4,0l4,-2l2,0c0,0,0,-1,1,-1l1,-2c0,-1,0,-1,1,-1l0,-1l1,0c0,0,0,1,1,1c0,1,1,1,1,1c0,1,1,1,1,1l1,0ZM391.5,286.5l4,-2l0,1l-4,2ZM386.5,301.5l0,-1c0,0,-1,0,-1,0c0,0,-1,0,-1,0c0,1,1,1,1,1l1,0Z" class="g1_47" />
<path fill-rule="evenodd" d="M218.5,556.5l0,1l-1,-1c0,1,-1,2,-2,2c0,-1,1,-1,2,-2c-1,0,-1,-1,-1,-1c0,0,0,-1,1,-1c0,-1,0,-1,1,-1l0,1c0,0,0,1,0,1c0,0,0,1,0,1ZM228.5,567.5l-1,1l-3,2c0,-1,0,-1,0,-1l1,-1ZM231.5,554.5c0,0,0,1,0,1l-3,2c0,-1,0,-1,0,-1ZM243.5,547.5c0,1,0,1,0,1l-4,2c0,0,0,-1,0,-1c0,0,1,0,1,0ZM242.5,560.5c0,2,0,4,-1,4l0,-11c0,-1,0,-1,1,-2ZM219.5,565.5c1,0,1,0,2,0c1,0,1,1,1,1c0,0,0,1,0,1c-2,2,-4,3,-7,3c-1,0,-2,0,-3,-1c-1,0,-1,-1,-1,-2c0,-1,0,-2,1,-2c0,-1,1,-2,1,-2c0,0,0,1,-1,1c0,1,0,1,0,2c0,1,0,2,1,2c1,0,2,0,3,0c1,0,2,0,3,0c1,0,2,-1,2,-1l-1,0c-1,-1,-1,-1,-1,-1c-1,0,-1,0,-1,-1c0,-1,0,-1,1,-2c2,-1,3,0,4,-1c1,0,1,-1,1,-2c0,0,0,-2,0,-3c0,-2,0,-4,0,-4c0,-1,0,-2,1,-2c0,0,0,2,0,4c0,2,0,3,0,4c0,1,0,2,1,2c1,2,3,1,4,0c0,0,-1,0,-1,0c-1,-1,-1,-1,-1,-1c0,0,0,-1,1,-1c1,-1,1,-1,2,-1c0,0,1,0,2,0c0,1,0,1,0,2c0,0,0,1,-1,1c1,1,4,2,4,0c0,-3,0,-5,-1,-7c0,-1,0,-1,0,-1c0,-1,1,-2,1,-3l0,1l0,1l1,0c0,1,0,1,0,1c0,0,0,1,0,1c0,1,0,1,0,1c0,0,0,1,0,2c0,1,0,1,0,1l0,3c0,0,0,1,-1,2c-1,3,-4,1,-5,0c-1,0,-1,0,-2,1c-2,1,-3,0,-4,-2c0,0,-1,1,-1,2c-1,1,-4,-1,-5,1ZM237.5,547.5c0,1,-1,2,-4,2c1,0,2,-1,2,-1c0,0,1,-1,1,-1l-1,-1c0,1,0,1,0,1c-1,0,-2,-1,-2,-1c0,0,1,-1,1,-1l1,0c0,0,1,0,1,1c0,0,1,0,1,1ZM219.5,559.5c0,0,0,1,0,1c0,0,-1,1,-1,1l-1,-1c0,1,0,1,0,1c0,0,-1,0,-1,0l-1,0c0,0,0,-1,0,-1l1,-1c0,1,0,1,0,1c1,0,1,0,1,0c0,-1,0,-1,0,-2c1,1,1,1,1,1c1,0,1,0,1,-1l0,1ZM218.5,555.5c0,-1,-1,-1,-1,-1c0,0,0,1,1,1Z" class="g2_47" />
</svg>