<?xml version="1.0" encoding="UTF-8" standalone="no"?>
<!DOCTYPE svg PUBLIC "-//W3C//DTD SVG 1.1//EN"
"http://www.w3.org/Graphics/SVG/1.1/DTD/svg11.dtd">
<svg version="1.1" xmlns="http://www.w3.org/2000/svg" xmlns:xlink="http://www.w3.org/1999/xlink">
<defs>
<style type="text/css"><![CDATA[
.g1_69{
stroke: #1F1A17;
stroke-width: 1;
stroke-linecap: butt;
stroke-linejoin: miter;
}
]]></style>
</defs>
<path fill-rule="evenodd" d="M356.5,588.5l0,-1l0,-1l0,-9l1,-2l0,11l0,1c0,0,0,1,-1,1ZM274.5,570.5c1,0,1,0,1,0c1,0,1,0,2,0c0,0,1,0,1,0c1,0,1,0,1,1c0,0,-1,1,-1,1l-1,1c-1,0,-1,0,-1,0l-1,0l1,-1c1,0,2,0,2,-1c0,0,-1,0,-1,0l-1,0l-1,0l-1,1l0,-1l0,-1ZM229.5,575.5c0,0,1,0,1,0c0,0,1,0,1,0c1,0,1,0,2,0c0,1,0,1,0,1l0,1c-1,0,-1,0,-1,0c-1,0,-1,0,-1,1c0,0,-1,0,-1,0c0,0,-1,0,-1,0l2,-1c0,0,1,-1,1,-1c-1,0,-1,0,-1,0c-1,0,-1,0,-1,0c-1,0,-1,0,-1,0c0,-1,0,-1,0,-1ZM100.5,578.5l-2,-1l1,-1l2,1ZM102.5,586.5c0,1,-1,1,-1,1c0,0,-1,1,-2,1c0,0,-1,0,-1,0l-1,0l-1,0l-1,0c-1,0,-1,0,-2,0c0,0,0,-1,-1,-1c0,0,-1,1,-1,1c-1,0,-2,0,-3,0l-1,0l-1,0c0,-1,0,-1,0,-2l0,1l0,1c-1,1,-1,1,-1,2c0,1,-1,1,-1,1c0,1,0,1,-1,1l-1,1c0,0,-1,0,-1,0c-1,0,-1,0,-1,0l-1,0l-1,0c-1,0,-1,-1,-2,-1c0,0,0,-1,0,-1c0,0,0,-1,0,-1c0,-1,0,-2,0,-2c0,-1,0,-1,0,-1l1,-1l0,-1l0,1l0,1c-1,1,-1,1,-1,1c0,1,1,2,1,2c1,1,1,1,2,1l1,0c1,0,2,0,3,-1c0,0,1,0,1,-1c1,0,1,0,1,0c0,0,0,-1,0,-1l0,-3l0,-1c0,0,0,-1,0,-1l-1,-7l1,-2l1,10c0,1,0,1,0,1l0,1l1,0l1,0l1,0c1,0,1,0,1,0c0,0,1,0,1,0l-1,-1c0,-1,0,-1,1,-2c0,0,0,-1,0,-1c1,0,1,0,1,-1c0,0,1,0,2,0l1,0c0,1,0,1,0,2l0,1c0,0,0,1,0,1c-1,0,-1,1,-1,1c1,0,1,0,1,0c0,0,1,0,1,0l1,0l1,0c0,0,1,0,2,0c0,0,1,0,1,-1c0,0,1,0,1,0l0,-1l-1,-1c0,1,0,1,0,1c-1,1,-1,1,-1,1c-1,0,-1,0,-1,-1c0,0,-1,0,-1,0c0,-1,0,-1,0,-1c0,-1,0,-1,0,-1l1,-1c0,0,0,-1,0,-1c0,0,1,-1,1,-1c1,0,1,0,1,1c0,0,1,0,1,1l0,1l0,1c0,0,1,1,1,1c0,1,-1,1,-1,1c0,1,0,1,0,1ZM99.5,582.5l1,0c0,0,1,0,1,0l-1,0c0,0,0,-1,0,-1c0,0,-1,0,-1,0ZM98.5,572.5l4,-2c0,0,0,1,0,1l-4,2ZM94.5,580.5l-2,-1l-1,1l-1,-1l1,-2l1,1l1,-1l1,1ZM93.5,583.5c0,0,-1,0,-1,0c0,0,-1,0,-1,1l1,0c0,1,0,1,1,1l1,0c0,-1,0,-1,0,-1c0,0,0,-1,0,-1c0,0,-1,0,-1,0ZM93.5,569.5c0,-1,0,-1,1,-1c0,0,0,-1,0,-1c1,0,1,0,1,1c0,1,0,1,0,1l0,1l0,1l0,1l-1,-1l-1,1c0,0,0,1,-1,1l-1,0l1,-1l1,0l0,-1l0,-1l0,-1ZM94.5,569.5c0,0,-1,0,-1,0l1,0l0,1l0,-1ZM82.5,596.5l-4,2c0,-1,1,-1,1,-1l4,-2ZM148.5,588.5l0,-1l0,-1l-1,-9l1,-2l1,11c0,0,-1,0,-1,1c0,0,0,1,0,1ZM140.5,586.5c0,0,1,0,1,0c0,0,1,0,1,0c1,-1,1,-1,1,-1l0,-2l-1,-7c0,-1,0,-1,0,-1c0,-1,0,-1,1,-1c0,1,0,1,0,1c0,0,0,1,1,1l0,1c0,0,-1,0,-1,0c0,1,0,1,0,2c0,0,0,1,0,3c0,0,0,1,1,1l0,1c0,1,-1,1,-1,1l0,1c0,0,0,1,0,1l-1,0c0,1,-1,1,-1,1l-1,0l-1,0l-1,0c-1,0,-2,0,-2,0c0,0,-1,-1,-1,-1c0,0,-1,1,-2,1c0,0,-1,0,-2,0c-1,0,-1,0,-2,0c0,-1,-1,-1,-1,-2c0,0,0,1,-1,1c0,1,0,1,0,1l-1,0c0,0,-1,0,-1,0c0,0,-1,-1,-1,-1c0,-1,-1,-2,-1,-3c0,1,0,1,-1,2c0,0,-1,1,-2,1c0,0,0,1,-1,1l-1,0l-1,0c-1,0,-1,0,-1,0l-1,0l-1,0l-1,0l-1,0c-1,0,-2,0,-3,-1c0,-1,0,-1,0,-2l0,-1c0,-1,0,-1,0,-1l0,-1l1,0c-1,1,-1,1,-1,1c0,2,1,2,2,3c1,0,2,0,2,0c1,0,2,0,2,0l1,0l1,0l1,0l1,0c2,0,4,-1,4,-3l0,-7l1,-2l0,11c1,0,1,0,1,1c0,0,1,0,1,0c0,0,1,0,1,0c0,0,1,0,1,-1c0,0,0,-1,0,-1l0,-1l-1,-7l1,-2l1,11l1,1l1,0c1,0,1,0,1,0c1,0,1,0,1,0l1,0c-1,0,-1,0,-1,-1c0,-1,0,-1,0,-2c1,0,1,-1,1,-1c0,0,1,0,1,-1c0,0,1,0,1,0c1,0,1,0,1,0c1,1,1,1,1,2l0,1c0,1,-1,1,-1,1c0,0,0,1,0,1l1,0l1,0ZM140.5,570.5c0,0,1,0,1,-1c1,0,1,0,1,0c1,0,1,0,2,1c0,1,0,1,0,1c0,1,-1,1,-1,1c0,0,-1,0,-1,0l-1,0l-1,0l2,0c1,-1,1,-1,2,-1c-1,0,-1,0,-1,0c0,0,-1,0,-1,0c0,0,-1,0,-1,0c0,0,-1,0,-1,0c0,0,0,-1,0,-1ZM136.5,580.5l-2,-1l1,-2l2,1ZM136.5,583.5c-1,0,-1,0,-1,0c-1,0,-1,0,-1,1c0,1,1,1,1,1c1,0,1,0,1,0c1,-1,1,-1,1,-1c0,0,0,-1,0,-1c-1,0,-1,0,-1,0ZM136.5,569.5c0,-1,0,-1,0,-1c1,0,1,-1,1,-1l0,1c1,0,1,0,1,0c0,1,0,1,0,1l0,1l-1,0l1,0l0,1l0,1l-1,-1l-1,1c0,0,-1,1,-1,1l-1,0l1,-1l1,-1l0,-1c0,0,-1,0,-1,0l0,-1c0,0,1,0,1,0ZM137.5,569.5l-1,0l1,0l0,1l0,-1ZM126.5,566.5c1,0,1,0,1,0c1,0,1,0,2,0c0,0,1,0,1,0c0,0,1,0,1,1c-1,0,-1,1,-1,1l-1,0l0,1c-1,0,-1,0,-1,0l-1,0l1,-1c1,0,1,0,2,-1c0,0,-1,0,-1,0l-1,0c0,0,-1,0,-1,0l-1,0c0,0,0,-1,0,-1ZM117.5,583.5c-1,0,-1,1,-2,1c0,0,0,-1,-1,-1l-1,0l1,0l1,0c1,-1,1,-1,1,-1l-1,0l0,-1c-1,0,-1,0,-1,0c0,0,0,-1,0,-1l1,0c0,-1,1,-2,2,-3l0,2c-1,0,-1,0,-1,1l1,0c0,0,1,1,1,1c0,0,0,1,0,1c-1,0,-1,0,-1,1ZM120.5,591.5l-5,2c1,0,1,0,1,-1l4,-2ZM180.5,584.5c-1,1,-1,1,-2,2c-1,0,-3,1,-4,1c-1,1,-2,1,-3,1c-1,0,-1,0,-1,0c-1,-1,-1,-2,-2,-3l0,1c0,1,0,1,0,1l-1,0c0,0,0,1,0,1c-1,0,-1,0,-1,0l1,0l1,0c0,0,1,1,1,1c0,0,0,1,0,1c0,0,-1,1,-1,1c0,1,-1,1,-1,1c-1,1,-2,1,-2,1c-1,1,-2,1,-3,1c-1,0,-2,0,-2,-1c-1,0,-2,0,-2,0c0,-1,0,-1,-1,-2l0,-1c0,-1,0,-1,0,-2c1,-1,1,-2,1,-2c0,0,1,0,1,0c0,1,-1,1,-1,2c0,0,0,1,0,1c0,1,0,1,0,1c0,0,0,1,1,1c1,1,2,1,3,1c1,0,1,0,2,0l1,0c0,-1,1,-1,2,-1c0,0,0,-1,1,-1c-1,0,-1,0,-2,-1c-1,0,-1,0,-1,0c0,-1,0,-1,0,-1l0,-1c0,0,1,0,1,-1c0,0,1,0,1,0c0,0,1,0,1,0c0,0,0,-1,0,-1l0,-1c0,-1,0,-1,0,-1l0,-7l1,-2l0,11c0,0,1,0,1,1l1,0l1,0c1,0,1,0,2,0c-1,-1,-1,-1,-1,-1c0,-1,0,-1,0,-2c0,-1,0,-1,0,-1c0,0,0,-1,0,-1l1,0c0,-1,0,-1,0,-1c1,0,1,0,1,0c0,0,1,0,1,0c1,0,1,0,1,0c0,0,1,0,1,0c1,0,1,1,1,1l-1,0l-1,0l-1,0l-1,0l-1,0c0,1,0,1,0,1c0,0,0,1,0,1l0,1c1,0,2,1,2,1c0,0,1,0,1,0l1,-1l1,0l1,-1l1,0ZM172.5,575.5l4,-2l-1,1l-4,2ZM165.5,572.5l4,-2c0,0,0,1,0,1l-4,2ZM218.5,587.5l-1,0c0,0,-1,0,-1,0l-1,-1l0,1l-1,1l-1,0l-1,0c0,0,-1,0,-1,0c0,0,-1,-1,-1,-1l-1,0l0,-1c0,0,-1,0,-1,1c-1,0,-1,0,-1,0c-1,0,-1,1,-1,1l-1,0l-1,0c0,0,-1,0,-1,0c0,0,-1,-1,-1,-1c0,-1,0,-2,0,-3c-1,1,-1,1,-1,2c-1,0,-2,1,-3,1c0,0,0,1,-1,1l-1,0l-1,0c0,0,-1,0,-1,0l-1,0l-1,0l-1,0l-1,0c-1,0,-2,0,-3,-1c0,-1,0,-1,0,-2l0,-1c0,-1,0,-1,0,-1l0,-1l1,0c0,1,0,1,0,1c0,2,0,2,2,3c0,0,1,0,1,0c1,0,2,0,2,0l1,0l1,0l1,0l1,0c2,0,4,-1,4,-3l0,-7l1,-2l1,11l0,1c1,0,1,0,1,0l1,0c1,0,1,0,1,0c0,0,1,0,1,0l0,-1c0,0,1,0,1,0l-1,0c0,-1,-1,-1,-1,-1l-1,0l1,-2c1,0,1,0,1,0c1,0,1,0,1,0l1,0c0,0,1,0,1,0l1,0c0,1,0,1,0,1c0,1,0,1,0,1c0,0,-1,1,-1,1c0,0,0,1,0,1l1,0l1,0l1,0c1,0,1,0,1,0l1,0l0,-1c1,-1,1,-1,1,-2l1,0c0,0,0,-1,0,-1c1,0,1,1,1,1c1,0,1,1,1,1l0,1l0,1l0,1l-1,0ZM216.5,585.5l1,0l1,1c0,-1,0,-1,0,-1c0,-1,-1,-1,-1,-1c0,0,-1,0,-1,1ZM214.5,573.5l0,1c1,0,1,1,1,1c0,0,0,-1,0,-1l1,-1l0,1l1,0l0,-1l0,-1l1,1l-1,1c0,1,0,1,0,1l-1,0l-1,0c0,1,0,1,0,1c-1,0,-1,0,-1,-1l0,-1l0,-1ZM218.5,571.5l-5,2c0,0,0,-1,1,-1l5,-3ZM205.5,575.5l5,-2l-1,0l0,1l-4,2ZM195.5,583.5c0,0,-1,1,-2,1c0,0,0,-1,0,-1c-1,0,-1,0,-1,0l1,0l1,0c0,-1,0,-1,0,-1c-1,0,-1,0,-1,-1c0,0,0,-1,0,-1c0,-1,1,-2,2,-3l0,2c-1,0,-1,0,-1,1l1,0c0,0,1,1,1,1c0,0,0,1,0,1c0,0,-1,0,-1,1ZM191.5,575.5l5,-2l-1,0l0,1l-4,2ZM251.5,584.5l-1,0c0,0,0,1,0,1c0,0,1,0,1,0c1,0,1,0,1,0c0,-1,-1,-1,-1,-1ZM251.5,592.5l-1,0c-1,1,-1,1,-2,1c-1,0,-1,-1,-2,-1l-1,0l0,-1c1,1,1,1,1,1l1,0l1,0c0,-1,1,-1,1,-1c1,0,1,-1,2,-1l0,-1c0,0,1,0,1,-1c0,0,0,-1,0,-1l0,-1c0,0,0,1,0,1l-1,0l-1,0l0,-1c0,0,-1,0,-1,0l0,-1c0,-1,0,-1,0,-1c1,0,1,-1,1,-1c0,0,0,-1,1,-1c1,0,1,0,1,0l1,1l0,1l0,1c0,0,0,1,0,1l0,1c0,1,0,2,-1,3l0,1c0,0,-1,0,-1,1ZM248.5,578.5l4,-2l0,1l-4,2ZM244.5,587.5l-1,0c0,0,-1,0,-1,0l-1,-1l0,1c0,0,-1,0,-1,1l-1,0l-1,0l-1,0c0,1,0,1,0,1c0,0,0,1,0,1c0,0,0,1,0,2c-1,0,-1,1,-2,1c0,1,-1,1,-2,1c0,1,-1,1,-2,1c0,0,-1,0,-2,0c0,-1,-1,-1,-1,-1c-1,0,-1,-1,-1,-1c0,-1,-1,-1,-1,-2c0,0,0,-1,0,-1c0,0,1,0,1,0c0,0,0,-1,0,-1c0,0,0,-1,0,-1c1,-1,1,-1,1,-1c0,1,0,1,0,1c0,0,0,1,-1,1c0,1,0,1,0,1c0,1,0,1,1,1c0,1,0,1,0,1c0,0,1,0,1,0l0,1c1,0,2,0,2,0c1,0,2,0,3,0c1,-1,1,-1,2,-2l0,-1c0,0,0,-1,0,-1c0,0,0,-1,0,-1c0,0,0,-1,-1,-1l1,-2l0,1c0,0,1,0,1,0l1,0l1,0c1,0,1,0,1,0l1,0l0,-1c1,-1,1,-1,1,-2l1,0c0,0,0,-1,0,-1c1,0,1,1,1,1c1,0,1,1,1,1l0,1l0,1l0,1l-1,0ZM242.5,585.5l1,0l1,1c0,-1,0,-1,0,-1c0,-1,-1,-1,-1,-1c0,0,-1,0,-1,1ZM240.5,575.5l4,-2l-1,0l0,1l-4,2ZM232.5,586.5l-1,-1l0,-2l2,1ZM284.5,588.5l1,-1l0,-1l-1,-9l1,-2l0,11l0,1c0,0,0,1,-1,1ZM284.5,568.5l4,-2l-1,1l-4,2ZM278.5,581.5l-1,-1l0,-1l2,1ZM277.5,588.5l-1,0l-1,0l0,-1l-1,0c0,0,-1,0,-1,0c-1,1,-2,1,-2,1l-2,1c0,0,-1,0,-1,0l-1,0l-1,0l-1,0c-1,0,-2,0,-3,0c-1,-1,-2,-1,-2,-2c-1,0,-1,0,-1,-1l0,-1c0,-1,0,-1,0,-1c0,-1,0,-1,1,-2c0,1,0,1,0,1c0,1,0,1,0,1c0,1,0,1,0,1c0,1,1,1,1,1c1,0,1,1,1,1c1,0,1,0,2,0c0,0,1,0,2,0c1,0,2,0,2,0c1,0,1,0,2,0l1,0l0,-1c1,0,2,0,2,-1c1,0,2,0,2,-1c0,1,0,1,0,1l0,1c1,0,1,0,1,0l1,0c1,0,1,0,2,0c0,0,1,0,1,0c0,0,0,-1,0,-1l0,-1l-1,-1l1,-1l0,1c1,0,1,0,1,0c0,0,0,1,0,1c0,0,0,1,0,1c0,0,0,1,0,1c-1,0,-1,1,-1,1c0,0,-1,0,-1,1c-1,0,-1,0,-2,0ZM268.5,582.5l-1,0l-1,1l-2,-1l1,-2l2,1l1,-1l1,1ZM266.5,575.5l4,-2l0,1l-4,2ZM346.5,588.5l0,-1l0,-1l-1,-9l1,-2l1,11c-1,0,-1,0,-1,1c0,0,0,1,0,1ZM334.5,586.5l0,1l-1,0l-1,1c-1,0,-1,0,-1,0l-2,0c-1,0,-1,0,-1,0l0,-1l-1,0l0,-1l0,1l-1,0c0,0,-1,1,-1,1c0,0,-1,0,-1,0l-2,0c0,0,0,1,0,1c0,0,0,1,0,1c-1,1,-1,1,-1,1c0,1,-1,1,-1,1c0,0,0,1,-1,1c-1,0,-1,0,-1,0c0,0,-1,0,-1,0c-1,0,-1,0,-2,0c0,0,-1,0,-1,-1c0,0,1,0,1,0l1,0c0,0,1,0,1,0c0,0,1,0,1,0c1,-1,1,-1,1,-1c0,0,1,-1,1,-1l1,-1c0,-1,0,-1,0,-1c0,0,-1,0,-1,0c0,0,-1,0,-1,0c0,-1,0,-1,-1,-1l0,-1c0,0,1,-1,1,-1c0,-1,0,-1,0,-1l1,-1l1,0c0,0,1,1,1,1c0,1,0,1,0,1c0,0,0,1,0,1c1,0,1,0,1,0c1,0,1,0,1,0c0,0,1,0,1,0c0,0,1,0,1,0l1,-1l1,0c0,1,0,1,0,1c1,0,1,0,1,0l2,0c1,0,1,0,1,0c1,0,1,0,1,0c1,-1,1,-1,1,-2l0,1l1,1l1,0c0,0,1,0,1,0l1,-1l0,-1l1,0l0,1l0,1l1,0l1,0l-1,-1l1,-1l0,1l1,0l0,1l-1,1c0,1,0,1,-1,1c0,0,-1,0,-1,0c0,0,0,-1,0,-1l-1,0l-1,0c0,0,0,1,0,1l-1,0l-1,0l-1,0c0,-1,0,-1,0,-1c0,0,0,-1,0,-1ZM335.5,577.5l1,0c0,-1,0,-1,1,-1c0,0,1,1,1,1c1,0,1,0,1,0l0,1c0,0,-1,0,-1,0c0,1,0,1,0,1c-1,0,-1,0,-1,0c-1,0,-1,0,-1,0l-1,0l1,0c1,0,2,-1,2,-1c0,0,-1,0,-1,0l-1,0l-1,0l-1,0l0,-1c0,0,1,0,1,0ZM328.5,583.5l-2,-1l0,1l-2,-1l1,-1l2,1l0,-2l2,1ZM325.5,575.5l4,-2l-1,1l-4,2ZM320.5,585.5l-1,0c0,1,0,1,1,1c0,0,1,0,1,0c0,-1,0,-1,0,-1c-1,0,-1,0,-1,0ZM317.5,578.5l4,-2l-1,1l-4,2ZM314.5,591.5l-2,-1l-1,1l-1,-1l1,-1l1,1l1,-1l2,1ZM311.5,588.5l-1,0l-1,0c0,0,-1,0,-1,-1c-1,0,-1,0,-1,0l-1,0c-1,1,-1,1,-2,1l-2,1l-1,0l-1,0l-1,0c-2,0,-3,0,-4,0c-1,-1,-2,-1,-2,-2c0,0,-1,0,-1,-1l0,-1c0,-1,0,-1,0,-1c0,-1,1,-1,1,-2l1,0c-1,1,-1,1,-1,1c0,1,0,1,0,1c0,1,0,1,0,1c0,1,1,1,2,1c0,0,0,1,0,1l1,0l1,0c1,0,2,0,3,0c1,0,1,0,2,0c0,0,1,0,1,0l1,0l0,-1c0,0,1,0,1,0c0,0,1,0,2,-1c1,0,1,0,1,-1c0,1,0,1,0,1l0,1l1,0l1,0l1,0c0,0,1,0,1,0c1,0,1,0,1,0c0,0,0,-1,0,-1l0,-1l0,-1l0,-1c0,0,1,0,1,0l0,1c0,0,0,1,0,1c0,0,0,1,0,1c0,0,0,1,0,1c0,0,0,1,0,1c-1,0,-1,0,-2,1c0,0,-1,0,-1,0ZM310.5,573.5l1,0c0,0,1,0,1,0c1,0,1,0,2,0l0,1c0,0,0,1,0,1c-1,0,-1,0,-1,1c-1,0,-1,0,-1,0c0,0,-1,0,-1,0c0,0,-1,0,-1,0l2,-1c0,0,1,0,1,-1c-1,0,-1,0,-1,0c-1,0,-1,0,-1,0c-1,0,-1,0,-1,1l0,-1l0,-1ZM301.5,582.5l-1,0l-1,1l-1,-1l1,-2l1,1l1,-1l1,1ZM299.5,575.5l5,-2l-1,0l0,1l-4,2ZM376.5,578.5l-2,-1l1,-1l2,1ZM378.5,586.5c0,1,0,1,-1,1c0,0,-1,1,-1,1c-1,0,-1,0,-2,0l-1,0l-1,0c-1,0,-1,0,-2,-1c0,0,0,-1,0,-2l-1,-8l1,-2l1,9l0,1l0,1c0,0,1,0,1,0l1,0l1,0c1,0,1,0,2,0c1,0,1,0,2,-1l0,-1l0,-1c-1,1,-1,1,-1,1c-1,1,-1,1,-1,1c0,0,-1,0,-1,-1l-1,0c0,-1,0,-1,0,-1c0,-1,0,-1,0,-1l1,-1c0,0,0,-1,0,-1c1,0,1,-1,1,-1c1,0,1,0,1,1c0,0,1,0,1,1l0,1l1,1c0,0,0,1,0,1c0,1,0,1,-1,1c0,1,0,1,0,1ZM375.5,582.5l1,0c1,0,1,0,1,0c-1,0,-1,-1,-1,-1c0,0,-1,0,-1,0ZM374.5,572.5l4,-2c0,0,0,1,0,1l-4,2ZM370.5,592.5l-3,2c0,-1,0,-1,0,-2l4,-1ZM362.5,577.5l-1,-1l1,-1l1,1ZM366.5,587.5l-1,0c0,1,-1,1,-2,1l-1,0l-1,0c-1,0,-1,0,-1,0l0,-1c0,0,0,-1,0,-1c1,0,1,0,1,0l1,0c0,0,1,0,1,0c1,0,1,0,1,0c1,0,1,0,1,-1c0,0,1,0,1,0c0,0,0,-1,0,-1c0,0,-1,-1,-1,-1l-1,-1l-1,-1l-1,0l1,-2l1,1c1,0,1,0,1,0c0,1,0,1,0,1c1,0,1,1,1,1c0,1,1,1,1,2c0,0,0,1,0,1c0,0,0,1,0,1l-1,1ZM360.5,572.5l4,-2c0,0,0,1,0,1l-4,2Z" class="g1_69" />
</svg>