<?xml version="1.0" encoding="UTF-8" standalone="no"?>
<!DOCTYPE svg PUBLIC "-//W3C//DTD SVG 1.1//EN"
"http://www.w3.org/Graphics/SVG/1.1/DTD/svg11.dtd">
<svg version="1.1" xmlns="http://www.w3.org/2000/svg" xmlns:xlink="http://www.w3.org/1999/xlink">
<defs>
<style type="text/css"><![CDATA[
.g2_35{
stroke: #1F1A17;
stroke-width: 1;
stroke-linecap: butt;
stroke-linejoin: miter;
}
.g1_35{
fill: #1F1A17;
stroke: #1F1A17;
stroke-width: 1;
stroke-linecap: butt;
stroke-linejoin: miter;
}
]]></style>
</defs>
<path fill-rule="evenodd" d="M338.5,184.5l6,-3c-1,1,-1,1,-1,1l-5,3ZM149.5,201.5l0,-1l1,-2l-1,-8l1,-2l0,10c0,1,0,1,0,1l0,1l-1,1ZM142.5,199.5l1,0l1,0c0,-1,0,-1,0,-1l0,-2l0,-7c0,-1,0,-1,0,-1c0,-1,0,-1,1,-1l0,1l1,1l-1,1c0,1,0,1,0,2c0,0,0,1,0,3c0,0,0,1,0,1l0,1c0,1,0,1,0,1c0,1,0,1,0,1l0,1c-1,0,-1,0,-1,0c0,0,-1,1,-1,1l-1,0l-1,0l-1,0c0,-1,-1,-1,-1,-1l-1,-1c0,0,-1,0,-1,0l0,1c-1,0,-1,0,-1,0c0,0,-1,0,-1,1l-1,0l-1,0l-10,0c0,1,0,1,0,2l-1,-1l0,-1l-1,0l-1,0c0,0,0,-1,-1,-1c0,-1,0,-1,0,-1c0,1,-1,1,-1,1c0,1,-1,1,-1,1l-1,0c-1,0,-2,0,-2,-1l-1,0c0,0,0,1,0,1l-1,0l-1,0c-1,0,-1,-1,-1,-1l-1,1l0,1c0,0,-1,0,-1,1c-1,0,-1,0,-2,0c-2,1,-3,1,-4,1l4,-2l2,-1c0,0,1,-1,1,-1l1,-2c0,0,0,-1,1,-1l1,-1c0,0,1,1,1,1c0,1,1,1,1,2c0,0,1,0,1,0c0,0,1,0,1,0c1,0,1,0,1,0c1,0,1,0,1,0c0,-1,0,-1,1,-1c0,0,0,-1,0,-1c0,0,0,1,0,1c0,0,1,1,1,1c0,0,1,0,1,0l1,0c1,0,1,0,1,0c1,-1,1,-1,1,-2l0,-1l0,-1l0,-1l0,-1l-1,-2l0,-2c0,-1,0,-1,0,-1l1,-1l1,2c-1,0,-1,1,-1,2l1,1l0,1l0,2l0,1l0,1l0,1l1,-1l1,-1l1,-1c0,0,1,0,1,0l1,0c0,0,1,0,1,0c1,0,1,1,1,1l0,1l0,1l0,1l-1,0l1,0l1,0l1,0c1,0,1,0,1,0c1,0,1,0,1,0l0,-1c0,0,1,0,1,0l-1,0c0,-1,0,-1,-1,-1l-1,0l1,-2c1,0,1,0,2,0l1,0c1,0,1,0,1,0l1,0l0,1c0,0,0,1,0,1c0,0,-1,1,-1,1c0,1,0,1,1,1l1,0l1,0ZM115.5,188.5l1,-1c0,0,1,0,1,0c1,0,1,0,2,1c0,1,0,1,-1,1c0,1,0,1,0,1c-1,0,-1,0,-1,0c0,0,-1,0,-1,0c0,0,-1,0,-1,0l2,0c0,-1,1,-1,1,-1c-1,0,-1,-1,-1,-1c-1,0,-1,1,-2,1c0,0,0,-1,0,-1ZM142.5,183.5c0,0,0,-1,1,-1c0,0,1,0,1,0c1,0,1,0,2,0c0,1,0,1,0,1c0,1,0,1,-1,1c0,0,0,1,0,1c-1,0,-1,0,-1,0c0,0,-1,0,-1,0c0,0,-1,0,-1,0l2,0c0,-1,1,-1,1,-1l0,-1c-1,0,-1,0,-1,0c-1,0,-1,0,-2,1c0,-1,0,-1,0,-1ZM137.5,188.5l4,-2l-1,1l-4,2ZM128.5,193.5l-2,-1l1,-1l2,1ZM131.5,198.5c0,-1,0,-1,0,-1c-1,0,-1,0,-1,0c0,0,-1,0,-1,0c-1,0,-1,0,-2,0l-1,1l-2,1l1,0c1,0,1,0,2,0c0,0,1,0,1,0c1,-1,2,-1,3,-1ZM126.5,204.5l-4,2c0,-1,1,-1,1,-1l4,-2ZM120.5,204.5l-1,-1l-1,1l-1,-1l0,-1l2,1l1,-1l1,0ZM112.5,199.5c0,-1,0,-1,-1,-1c0,0,-1,0,-1,1c0,0,1,0,1,0l1,0ZM109.5,188.5l1,-1l1,0c0,0,0,1,0,1c0,0,0,1,0,1c0,1,0,1,0,1l0,1l-1,0l-1,1l-1,0l0,1l-1,0l0,-1l1,0c0,0,1,-1,1,-1l1,0l-1,-1l0,-1l0,-1ZM110.5,189.5l0,-1c0,1,0,1,0,1ZM187.5,201.5l0,-1l0,-2l0,-8l1,-2l0,10c0,1,0,1,0,1l0,1l-1,1ZM180.5,199.5l1,0c1,0,1,0,1,0c0,-1,0,-1,0,-1l0,-2l0,-7c0,-1,0,-1,0,-1c0,-1,0,-1,0,-1c0,0,1,0,1,0l-1,0l0,1c0,0,1,0,1,0l1,1c0,0,-1,0,-1,1c0,1,0,1,0,2c0,0,0,1,0,3c0,0,0,1,0,1l0,1c0,1,0,1,0,1c0,1,0,1,0,1l0,1c-1,0,-1,0,-1,0c-1,0,-1,1,-1,1c0,0,-1,0,-1,0l-1,0c0,0,-1,0,-1,0c0,-1,-1,-1,-1,-1l-1,-1c0,0,-1,0,-1,0l0,1c-1,0,-1,0,-1,0c-1,0,-1,0,-1,1l-1,0l-1,0c0,0,-1,0,-1,-1c0,0,-1,-1,-1,-2l0,1c0,0,0,1,-1,1l-1,1c1,0,1,0,1,0c0,0,1,0,1,0l0,1l0,1c0,0,0,1,0,1c0,0,-1,0,-1,0c0,0,0,1,-1,1c0,1,-1,1,-2,1c-1,1,-2,1,-3,1c0,0,-1,0,-2,-1c-1,0,-1,0,-1,-1c-1,0,-1,0,-1,-1l0,-1c0,-1,0,-2,0,-2c0,-1,1,-2,1,-2c0,0,0,1,0,2c-1,0,-1,1,-1,1l0,1c1,0,1,1,2,1c0,1,1,1,2,1l1,0c0,0,1,0,1,0c0,0,1,0,1,-1c1,0,2,0,2,0c0,-1,1,-1,1,-1c0,0,-1,-1,-1,-1c-1,0,-1,0,-2,0l0,-1c0,0,0,-1,0,-1c1,0,1,0,1,0l1,-1l1,0c0,0,0,-1,0,-1l1,0l0,-1c0,-1,0,-1,0,-1l-1,-7l1,-2l1,10c0,1,0,1,0,1l0,1c0,0,1,0,1,0l1,0c1,0,1,0,1,0c0,0,1,0,1,0l0,-1c0,0,1,0,1,0l-1,0c0,-1,-1,-1,-1,-1l-1,0l1,-2c1,0,1,0,1,0c1,0,1,0,1,0l1,0c0,0,1,0,1,0l1,0l0,1c0,0,0,1,0,1c0,0,-1,1,-1,1c0,1,0,1,1,1l1,0l1,0ZM180.5,183.5c0,0,0,-1,1,-1c0,0,1,0,1,0c1,0,1,0,1,0c1,1,1,1,1,1c0,1,0,1,-1,1c0,0,0,1,0,1l-1,0c0,0,-1,0,-1,0c-1,0,-1,0,-1,0l2,0c0,-1,1,-1,1,-1l-1,-1c-1,0,-1,0,-2,1c0,-1,0,-1,0,-1ZM175.5,188.5l4,-2l-1,1l-4,2ZM171.5,209.5l-4,2c0,-1,0,-1,1,-1l4,-2ZM161.5,189.5l0,1c1,0,1,0,1,0l1,0l0,-1l0,1l1,0l0,-1l0,-1l1,0l0,1l0,1l-1,0c0,0,0,1,0,1l-1,0c-1,0,-1,1,-1,1c-1,0,-1,0,-1,-1l0,-1l0,-1ZM163.5,184.5l0,-1c1,0,1,0,1,0c1,0,1,1,1,1l0,1c0,0,0,1,-1,1l1,0l0,1l-1,0l-1,1c0,0,-1,0,-1,0c0,0,-1,1,-1,1l0,-1c1,0,1,-1,2,-2c0,0,-1,-1,-1,-1c0,0,1,0,1,0c0,-1,0,-1,0,-1ZM164.5,184.5l-1,0c0,1,0,1,0,1l1,0ZM218.5,197.5l-1,0c0,1,1,1,1,1c0,0,1,0,1,-1c-1,0,-1,0,-1,0ZM218.5,204.5c0,1,0,1,-1,1c-1,0,-1,0,-2,0c-1,0,-1,0,-2,0c0,0,-1,0,-1,0c0,-1,0,-1,0,-1c0,0,1,1,1,1l1,0l1,0l0,-1l1,0c1,0,1,-1,1,-1c1,0,1,-1,1,-1c0,0,1,0,1,-1c0,-1,0,-1,0,-1c0,0,0,-1,0,-1l0,1c0,0,-1,0,-1,0l-1,0c0,0,0,-1,0,-1c-1,0,-1,0,-1,0l0,-1l0,-1c0,0,1,-1,1,-1c0,-1,0,-1,1,-1c1,0,1,0,1,0l1,1l0,1l0,1l0,1c0,1,0,1,0,1c0,1,0,2,-1,3l0,1c-1,0,-1,0,-1,0ZM215.5,191.5l4,-2l0,1l-4,2ZM211.5,200.5c0,0,-1,0,-2,0l-1,-1c0,0,-1,1,-1,1c-1,0,-1,0,-1,0c-1,0,-1,0,-1,1c-1,0,-1,0,-1,0l-1,0l-1,0c0,0,0,1,0,1c-1,0,-1,1,-1,1c0,0,0,1,-1,1c0,0,0,1,-1,1l0,1c-1,0,-1,0,-1,0l-1,0l-1,0c0,0,-1,0,-2,0c0,0,0,-1,0,-1l1,0c1,0,1,0,2,0l1,-1l1,0c0,0,0,-1,0,-1c1,0,1,-1,1,-1l0,-1c1,0,1,0,1,0c0,0,-1,0,-1,0c-1,0,-1,0,-1,0c0,0,0,-1,0,-1c-1,0,-1,0,-1,0c0,-1,0,-1,0,-1c0,-1,0,-1,0,-1c0,-1,0,-1,0,-1c1,0,1,0,1,0c0,0,0,-1,0,-1c1,0,1,0,1,0l1,0l0,1c1,1,1,1,1,1c0,0,0,1,0,1c0,0,1,0,1,0l1,0c0,0,1,0,1,0c1,0,1,0,1,0c0,-1,0,-1,0,-1c0,-1,0,-1,0,-1c0,0,0,-1,0,-1c0,0,0,-1,0,-1l1,0c0,-1,0,-1,0,-1l0,-1c1,0,1,0,1,0c0,0,1,0,2,1c0,0,1,1,1,1c1,1,1,1,1,2c0,1,0,1,0,1c0,1,0,1,0,1c0,0,0,1,0,1l-1,0ZM208.5,196.5c0,0,-1,0,-1,0c0,0,0,1,0,1c0,0,0,1,1,1c0,0,0,-1,0,-1c0,-1,0,-1,0,-1ZM209.5,196.5l1,0c0,1,0,1,0,1l-1,0c0,0,0,1,0,1l2,0l0,1c0,0,1,0,1,-1c0,0,-1,0,-1,0c0,0,0,-1,0,-1c-1,0,-1,0,-1,-1l-1,0ZM204.5,181.5c1,0,1,0,1,0c0,-1,1,-1,1,-1c1,1,1,1,1,1c0,1,0,1,0,1l-1,0l0,1l1,0l0,2l-1,-1l-1,0l0,1c-1,0,-1,1,-1,1l-1,0l-1,0l1,-1l1,0l0,-1l1,0l0,-1l-1,0l0,-1l0,-1ZM206.5,182.5l-1,0l0,-1c0,0,0,1,0,1l1,1l0,-1ZM200.5,198.5c0,0,-1,0,-1,0c0,0,0,1,0,1c1,0,1,0,1,0l1,0c-1,-1,-1,-1,-1,-1ZM196.5,191.5l4,-2l0,1l-4,2ZM232.5,182.5c0,1,0,1,0,1c-1,0,-1,0,-1,0l-1,0l-1,0l-1,0c-1,0,-1,0,-1,0c-1,-1,-1,-1,-1,-1c0,0,0,-1,0,-1c0,-1,0,-1,0,-2c1,0,1,-1,2,-1l-1,0c0,0,-1,0,-1,0c0,-1,0,-1,1,-1l1,0l1,0l1,0l0,1l-1,0c0,0,-1,0,-1,1c0,0,-1,0,-1,0c0,0,0,1,0,1c-1,0,-1,1,-1,1l1,0c0,1,0,1,0,1c0,0,1,0,1,0l1,1l1,0ZM229.5,180.5l0,1c-1,0,-1,0,-1,0c0,-1,0,-1,0,-1c1,0,1,0,1,0ZM287.5,198.5l-1,0l-2,0l-1,0l-1,0l-1,1l-1,0l-1,0c0,1,0,1,-1,1l-1,0c-1,1,-2,1,-2,1l-1,0l-1,0l-1,0c-1,0,-1,0,-2,0c0,-1,0,-1,-1,-1c0,0,-1,0,-1,1c-1,0,-1,0,-2,0l-1,0l-10,0c0,1,0,1,0,2c-1,0,-1,0,-1,0l0,-1l0,-1l-1,0l-1,0l-1,0l-1,0l1,0c0,0,0,1,0,1c0,0,0,1,0,1c0,1,0,1,0,2c-1,0,-1,1,-2,1l-1,-1c0,0,-1,0,-1,-1c0,-1,0,-2,0,-3l-1,0c-1,0,-1,0,-1,0l-1,0l-1,0c0,0,-1,-1,-1,-1l0,1l0,1c0,1,-1,1,-1,1l-1,-1c0,0,0,-1,0,-2l-1,-1c0,1,0,1,-1,1c0,1,-1,1,-1,1l-1,0l-1,0c-1,0,-1,-1,-2,-1c0,0,0,-1,0,-2l-1,-8l1,-2l0,9l0,1l1,0c0,1,1,1,1,1l1,0l1,0l1,0c1,0,1,-1,1,-1c0,0,1,-1,1,-1c0,0,1,1,1,1c1,1,2,1,2,1l1,0l1,0l1,0l1,0c0,-1,0,-1,0,-2l1,0c0,0,0,-1,0,-1c1,-2,2,-2,2,-2c0,0,1,0,1,0l0,1l0,1c0,1,0,1,-1,2c0,0,-1,1,-1,1l1,0l1,0l1,0l1,0l1,0c0,0,1,0,1,0c0,-1,0,-1,1,-2l0,-1l0,-1l0,-1l-1,-1l0,-2l0,-2c0,-1,0,-1,0,-1l0,-1l2,2l-1,0c0,0,0,1,0,2l0,1l0,1l0,2l0,1l0,1l0,1l2,-1l0,-1l1,-1c1,0,1,0,1,0l1,0c1,0,1,0,2,0c0,0,1,1,1,1l0,1l0,1c0,0,-1,0,-1,1l-1,0l2,0l2,0c0,0,1,0,1,0c0,0,1,0,1,0c0,0,0,-1,-1,-1l0,-1c0,0,1,0,1,-1c0,-1,0,-1,0,-1c1,0,1,-1,1,-1c0,0,1,-1,2,-1c0,0,0,1,1,1c0,1,0,1,0,2l0,1c0,1,0,1,0,1c0,0,-1,1,-1,1l1,0l1,0l1,0l1,0l1,0c0,0,1,0,1,0c1,0,1,-1,2,-1l1,0l1,-1l-1,0l-1,0l0,-1l-1,0l-1,0l-1,0l0,1c0,-1,0,-1,0,-2c0,0,1,0,1,0c0,0,1,-1,1,-1c0,0,0,1,0,1c1,0,1,0,1,0l1,0l2,1l1,0l1,0c0,0,0,1,1,1c0,0,1,0,1,0l1,0ZM279.5,204.5l-4,2c0,-1,0,-1,0,-1l5,-2ZM270.5,193.5l-2,-1l1,-2l2,1ZM270.5,195.5c0,0,-1,1,-1,1c0,0,-1,0,-1,1l1,0c0,0,0,1,1,1l1,-1c0,-1,0,-1,0,-1c0,0,-1,-1,-1,-1ZM309.5,185.5c0,0,1,-1,1,-1c0,0,1,0,1,0c1,0,1,0,2,0c0,1,0,1,0,1c0,1,0,1,0,1c-1,0,-1,1,-1,1c0,0,-1,0,-1,0l-1,0l-1,0l2,0c1,-1,1,-1,2,-1c-1,0,-1,0,-1,-1c-1,0,-1,0,-1,0c0,0,-1,0,-1,1c0,0,-1,0,-1,0c0,-1,0,-1,0,-1ZM265.5,183.5c0,0,1,-1,1,-1c1,0,1,0,1,0c1,0,2,0,2,0c0,1,0,1,0,1c0,1,0,1,0,1c0,0,-1,1,-1,1l-1,0l-1,0l-1,0l2,0c1,-1,1,-1,2,-1c-1,0,-1,0,-1,-1c0,0,-1,0,-1,0c0,0,-1,0,-1,1c0,0,-1,0,-1,0c0,-1,0,-1,0,-1ZM259.5,193.5l-1,-1l1,-1l1,1ZM263.5,198.5c0,-1,-1,-1,-1,-1c-1,0,-1,0,-1,0l-1,0c0,0,-1,0,-1,0l-1,1l-1,0l-1,1l1,0c0,0,1,0,1,0l1,0c0,0,1,0,1,0c1,-1,2,-1,3,-1ZM260.5,185.5c0,0,0,-1,0,-1c1,0,1,0,1,0c1,0,1,0,1,0l0,1l0,1l0,1l0,1l-1,-1l0,1l-1,0c0,1,-1,1,-1,1l-1,0l1,-1l1,0l0,-1c0,-1,0,-1,0,-1c0,-1,0,-1,0,-1ZM261.5,185.5c-1,0,-1,0,-1,0l1,1l0,-1ZM250.5,196.5l-1,0l-1,1l-1,2c1,-1,2,-1,2,-1c1,-1,1,-1,1,-1c0,-1,0,-1,0,-1ZM247.5,201.5c0,0,0,1,0,1c1,1,1,1,1,2l1,0c1,0,1,0,1,0c1,0,1,-1,1,-1c0,0,-1,-1,-2,-1c0,-1,-1,-1,-2,-1ZM249.5,185.5c0,0,0,-1,0,-1c1,0,1,0,1,0c1,0,1,0,1,0l0,1l0,1l0,1l0,1l-1,-1l0,1l-1,0c0,1,-1,1,-1,1l-1,0l1,-1l1,0l0,-1c0,-1,0,-1,0,-1c0,-1,0,-1,0,-1ZM250.5,185.5c-1,0,-1,0,-1,0l1,1l0,-1ZM237.5,191.5l5,-2l-1,1l-4,2ZM324.5,203.5l-1,-1l-1,1l-1,-1l1,-1l1,1l1,-1l1,0ZM322.5,200.5l-1,0l-1,0l-4,0l-1,0l-1,0l-1,1c0,0,0,1,0,1c0,0,0,1,-1,1c0,0,0,1,-1,1l0,1c-1,0,-1,0,-1,0c0,0,-1,0,-1,0l-1,0c0,0,-1,0,-2,0c0,0,0,-1,0,-1l1,0c1,0,1,0,1,0c1,0,1,0,2,-1l1,0c0,-1,0,-1,0,-1c1,0,1,-1,1,-1l0,-1c0,0,1,0,1,0c-1,0,-1,0,-1,0c-1,0,-1,0,-1,0c0,-1,0,-1,0,-1c-1,0,-1,0,-1,0c0,-1,0,-1,0,-1c0,-1,0,-1,0,-1l0,-1c1,0,1,0,1,0c0,-1,0,-1,0,-1c1,0,1,0,1,0l1,0l0,1c0,0,1,1,1,1c0,0,0,1,0,1c0,0,1,0,1,0c1,0,1,0,1,0l4,0l1,0l1,0l1,0c1,0,1,0,1,-1c0,0,0,-1,0,-1c0,0,0,-1,-1,-1l1,-2c0,1,0,1,0,1c0,0,1,0,1,0c0,0,0,1,0,1l0,1c0,1,0,1,0,1l0,1c0,0,-1,0,-1,1l-1,0c0,1,-1,1,-1,1ZM322.5,187.5l4,-2l-1,0l0,1l-4,2ZM316.5,193.5c0,0,1,-1,1,-1l1,0c0,0,1,0,1,0l0,1l-1,0c-1,0,-1,0,-1,0l0,1l1,0l1,0l1,0c0,0,0,1,0,1l-1,0l-3,1l0,-1c0,0,1,0,1,0c-1,0,-1,-1,-1,-1l0,-1ZM318.5,180.5c0,0,1,0,1,0c0,-1,0,-1,1,-1c0,1,0,1,0,1c0,0,0,1,0,1l0,1l1,0l-1,2l-1,-1l-1,1l0,1l-1,0l-1,0l1,-1c0,0,1,0,1,-1l1,0l-1,-1l0,-1l0,-1ZM319.5,181.5l0,-1l0,1l0,1l0,-1ZM312.5,197.5c-1,0,-1,0,-1,0l0,1c1,0,1,0,1,0c1,0,1,0,1,0l0,-1c-1,0,-1,0,-1,0ZM306.5,198.5l-1,1l-1,0c0,0,-1,1,-2,1l-1,0l-1,0c-1,0,-1,0,-1,-1c0,-1,0,-1,0,-1l1,0l1,0c0,0,1,0,1,0c1,0,1,0,1,0c1,-1,1,-1,1,-1c1,0,1,0,1,0c0,-1,0,-1,0,-1c0,-1,-1,-1,-1,-1l0,-1l-1,0l-1,-1l-1,0l1,-2l1,0l0,1c1,0,1,0,1,0c0,0,0,1,0,1c1,0,1,0,1,1c0,0,1,1,1,1c0,1,0,1,0,1l0,1l0,1ZM303.5,184.5c0,0,1,-1,1,-1l1,0c0,0,1,0,1,1c0,0,-1,0,-1,0l0,1l0,1l1,0l0,1l-2,-1l0,1c-1,1,-1,1,-1,1l-1,0l-1,0l1,0l0,-1c1,0,1,0,1,0l0,-1l1,0l-1,0c0,-1,0,-1,0,-1c0,-1,0,-1,0,-1ZM304.5,184.5l0,1l1,0l0,-1ZM294.5,200.5c0,0,-1,0,-1,-1c0,0,-1,-1,-1,-1c0,-1,0,-1,0,-2l1,0l0,-1l1,-1c0,-1,0,-1,1,-1c0,0,1,0,1,0c1,1,1,1,1,2l0,1c0,2,0,3,-1,4c-1,0,-1,0,-2,0ZM294.5,195.5l-1,0c0,1,0,1,0,1c0,0,0,1,0,1c0,1,1,1,1,1l1,0l1,0c0,-1,0,-1,0,-1c0,0,0,-1,0,-1c-1,0,-1,-1,-2,-1ZM294.5,190.5l0,-1l-1,0l0,-1c0,0,0,-1,0,-2l0,-1c0,0,1,0,1,0l0,-1c1,0,1,0,1,0l0,1l-1,0l0,1l0,1c0,1,0,1,0,1c0,1,0,1,0,1c1,-1,1,-1,1,-1l0,1l1,0c0,1,0,1,0,1c-1,0,-1,0,-1,0c-1,0,-1,0,-1,0ZM349.5,196.5c-1,0,-1,0,-1,0c0,1,0,1,1,1l0,-1ZM349.5,203.5c-1,1,-1,1,-1,1l-1,0c0,0,-1,0,-1,0l-1,0c0,0,-1,0,-1,0c-1,0,-1,0,-1,0l0,-1l1,1c1,0,1,0,1,0c0,0,1,-1,1,-1c1,0,1,0,1,0c0,0,1,-1,1,-1c0,0,1,-1,1,-1l1,-1c0,-1,0,-1,0,-1c0,-1,0,-1,0,-1l-1,0c0,1,0,1,0,1l-1,0c-1,0,-1,-1,-1,-1c0,0,0,-1,0,-1l0,-1c0,0,0,-1,1,-1c0,-1,0,-1,0,-1c0,0,1,0,1,0l1,0l0,1l1,1l0,1l0,1c0,1,0,1,0,1c0,1,-1,2,-1,2c0,1,0,1,-1,1c0,1,0,1,0,1ZM346.5,190.5l4,-2l0,1c0,0,-1,0,-1,0l-4,2ZM341.5,198.5l-1,1l1,0l0,-1ZM342.5,201.5c-1,0,-1,0,-2,0c-1,0,-1,0,-2,0c-1,0,-1,0,-1,0l-1,0l0,-1c1,0,1,0,1,-1c0,0,1,0,1,0l1,0c0,0,0,-1,0,-1c0,0,1,0,1,0c0,0,0,-1,0,-1l-1,-1l0,-1c-1,0,-1,-1,-1,-1c-1,0,-1,-1,-2,-2l-1,0c0,-1,0,-1,0,-1c0,0,-1,0,-1,0c-1,0,-1,0,-1,-1l-1,-1c0,-1,0,-1,1,-1l0,-1l0,1c0,0,1,0,1,1c1,0,1,0,2,1c1,1,1,1,2,2c0,0,1,1,1,2c1,0,1,1,1,1c0,1,1,1,1,1c0,0,0,-1,0,-1c0,-1,0,-1,0,-2c0,-1,1,-1,1,-2l-1,-1c0,-1,0,-1,0,-2c0,-1,0,-1,0,-1c1,-1,1,-1,1,-1c0,1,0,1,0,1l1,0l0,1l0,1c0,0,0,1,0,1c-1,0,-1,1,-1,1c0,1,0,1,0,2l0,1c0,0,0,1,0,2c0,0,-1,1,-1,1c1,1,1,1,1,1l0,1c0,1,0,1,0,1c0,0,0,1,0,1Z" class="g1_35" />
<path fill-rule="evenodd" d="M291.5,315.5l0,1l1,0l1,-1l0,-1l0,1c0,1,1,1,1,1c0,0,0,-1,0,-1l1,-1l0,-1l0,1l0,1l0,1c0,0,0,1,-1,1l-1,0l-1,0c0,1,0,1,-1,1l0,-1l-1,0c0,-1,0,-1,1,-1l0,-1ZM283.5,332.5l5,-2l-1,1l-4,2ZM217.5,312.5l-6,3c0,-1,1,-2,1,-2l5,-3ZM150.5,315.5c1,0,1,0,1,0c1,0,1,0,2,0c0,0,1,0,1,0c0,0,1,0,1,1l-1,0c0,0,0,1,0,1c0,0,-1,0,-1,1l-1,0l-1,0l-1,0l2,-1c1,0,1,0,2,-1c-1,0,-1,0,-1,0c0,0,-1,0,-1,0c0,0,-1,0,-1,0c0,0,-1,0,-1,1l0,-1l0,-1ZM324.5,317.5c0,0,1,0,1,0c0,0,1,0,1,0c1,0,1,0,2,0c0,1,0,1,0,1l0,1c-1,0,-1,0,-1,0c0,0,-1,0,-1,1l-1,0c0,0,-1,0,-1,0l2,-1c1,0,1,-1,2,-1c-1,0,-1,0,-1,0c-1,0,-1,0,-1,0c-1,0,-1,0,-1,0c-1,0,-1,0,-1,0c0,-1,0,-1,0,-1ZM332.5,311.5c0,-1,1,-1,1,-1c1,1,1,1,1,1c0,0,0,1,0,1c0,1,-1,1,-1,1l1,0l0,2l-1,-1l-1,0l0,1c-1,0,-1,0,-1,1l-1,0c0,0,-1,0,-1,0l1,-1l1,0l0,-1l1,0l0,-1c-1,0,-1,0,-1,-1l1,-1ZM333.5,312.5l0,-1l-1,0l0,1l1,0l0,1l0,-1ZM315.5,309.5l0,-1c0,0,1,0,1,0c1,0,1,1,1,1c0,0,0,1,0,1c0,0,-1,1,-1,1l1,0l0,1l-1,0l-1,0l0,1c-1,0,-1,0,-1,0l0,1l-1,0c-1,0,-1,0,-1,0l1,-1l1,0c0,0,0,-1,0,-1l1,0l0,-1c-1,0,-1,0,-1,-1l1,-1ZM316.5,309.5l-1,0c0,1,0,1,0,1l1,0ZM199.5,320.5l-1,-1l0,-1l2,1ZM199.5,330.5c-1,0,-1,0,-2,0c0,-1,-1,-1,-1,-1c-1,0,-1,-1,-1,-1c-1,-1,-1,-1,-1,-2c0,0,0,-1,0,-1c0,0,1,-1,1,-1c0,0,0,-1,0,-1l0,-1c1,0,1,0,1,0c0,0,0,1,0,1c0,0,-1,1,-1,1c0,1,0,1,0,1c0,1,0,1,1,1c0,0,0,1,0,1c0,0,1,0,1,0l0,1c1,0,1,0,2,0c1,0,2,0,2,-1c1,0,1,0,2,-1c0,0,0,-1,0,-1c0,0,0,-1,0,-1c0,-1,0,-1,0,-1c0,0,0,-1,0,-1c-1,0,-1,0,-1,-1l1,-2l0,1l0,1c1,0,1,0,1,1c0,1,0,1,0,1c0,0,0,1,0,1l0,1c0,0,0,1,0,2c0,0,-1,1,-1,1c-1,1,-1,1,-2,1c-1,1,-2,1,-2,1ZM343.5,329.5l0,-1l0,-2l0,-8l1,-2l0,10c0,1,0,1,0,1l0,1l-1,1ZM339.5,325.5c0,1,-1,1,-2,2c-1,0,-2,1,-3,1c-1,0,-2,1,-3,1l-1,0l-1,0c0,0,0,1,0,1c-1,0,-1,1,-1,1c0,0,0,1,-1,1c0,0,0,1,-1,1l0,1c0,0,-1,0,-1,0l-1,0l-1,0c0,0,-1,0,-2,0c0,0,0,-1,0,-1l1,0c1,0,1,0,2,0l1,-1l1,0c0,-1,0,-1,0,-1c1,0,1,-1,1,-1l1,-1l-1,0c0,0,-1,0,-1,0c0,0,0,-1,0,-1c-1,0,-1,0,-1,0c0,-1,0,-1,0,-1c0,-1,0,-1,0,-1l0,-1l1,0c0,0,0,-1,0,-1l1,0l1,0l0,1c1,1,1,1,1,1c0,0,0,1,0,1c0,0,1,0,1,0l1,0c1,0,2,0,2,-1c0,0,-1,0,-1,-1l0,-1c0,0,0,-1,0,-1l0,-1l1,0c0,-1,0,-1,1,-1l1,0c0,-1,0,-1,1,-1c1,0,1,1,1,1c0,0,1,0,1,0l0,1l-1,0l-1,0l-1,0c0,0,-1,0,-1,0c0,0,-1,1,-1,1l0,1c0,0,1,0,1,0c0,1,1,1,2,2c0,0,0,-1,0,-1l1,0c0,0,1,0,1,0l1,-1l1,0ZM327.5,326.5c0,0,-1,0,-1,0c0,0,0,1,0,1l1,0l1,0c0,-1,-1,-1,-1,-1ZM317.5,318.5l-2,-1l1,-1l1,0ZM321.5,328.5l-1,0l-1,0c0,0,-1,1,-1,1l-1,0l-1,0l-1,0c0,0,-1,0,-1,-1c0,0,0,-1,1,-1l1,0c0,0,1,0,2,0c1,-1,1,-1,1,-1c1,0,1,0,1,0c0,0,0,-1,0,-1c0,-1,0,-1,-1,-1l0,-1l-1,0l-1,-1l-1,0l1,-2l1,0l0,1l1,0c0,0,0,1,1,1l0,1c1,0,1,1,1,1c0,1,0,1,0,1l0,1l0,1l0,1ZM134.5,327.5c0,1,0,1,0,2l-1,1c0,0,0,1,-1,1l2,0l-1,1l-1,0c0,0,0,1,0,1l-1,0c0,1,-1,1,-1,1l-1,0l0,1l-1,0l-1,0l-1,1l-1,1l-4,0l-3,0l-1,0l0,-2c-1,0,-1,0,-1,0c-1,0,-2,-1,-3,-1l-1,0l0,-1l-1,0l0,-1l-1,0l0,-1l-1,0l2,0l-1,-1l0,-1l-1,0l0,-1l0,-1l0,-1c0,0,0,-1,0,-1l1,-1c0,0,0,-1,0,-1l-1,-1c0,0,1,0,1,-1l1,0l0,-1l1,0l1,-1l1,0l2,-1l1,-1c1,0,1,-1,1,-1l3,0l4,0l1,1l0,1l1,0l2,1l1,0c0,1,1,1,1,1l1,0l0,1c1,0,1,1,2,1l-2,1l1,0l0,1l1,0l0,1l0,1ZM125.5,337.5l0,-1l1,0l0,-1l1,0c1,0,1,-1,2,-1l1,0c0,0,0,-1,1,-1l1,0c0,-1,0,-1,0,-1l1,0l0,-1l-1,0l0,-1l1,0l0,-1l1,-1l0,-1c0,-1,0,-2,-1,-3c0,-1,0,-1,0,-1l-1,0l0,-1l1,0c0,0,-1,-1,-1,-1l-1,0l0,-1l-1,0l-1,-1l-2,0c0,0,0,-1,-1,-1l0,-1l-1,0l0,-1l-4,0l-1,0l-2,0l0,1l-1,0l0,1c-1,0,-1,1,-1,1l-2,0l-1,1l-1,0l-1,1c0,0,-1,1,-1,1l1,0l0,1l-1,0l0,1l0,1l-1,0l0,1l0,1l0,1l1,1c0,1,0,1,0,1l1,0l0,1l-1,0l0,1l1,0l0,1l1,0l1,0l0,1l1,0l2,1l1,0l0,1c1,1,1,1,1,1l3,0ZM131.5,322.5l-1,0l-1,0l0,-1l-1,0c-1,0,-1,0,-1,0c0,0,0,-1,0,-1l1,0l1,0l0,1l1,0l0,1ZM131.5,332.5l-1,0l0,1l-1,0l-1,0l0,1l-1,0l0,-1c1,0,1,0,1,0l1,-1c0,0,1,0,1,-1l1,0ZM126.5,334.5l0,1c0,0,-1,0,-1,0l-4,0l-3,0c0,0,-1,0,-1,0c0,-1,0,-1,0,-1c0,-1,0,-1,0,-1l1,-1l3,0l4,0l1,1ZM126.5,320.5l0,1c0,0,-1,0,-1,0l-4,0l-3,0c0,0,-1,0,-1,0l0,-1c0,-1,0,-1,0,-1l1,0l0,-1l3,0l4,0c0,0,1,1,1,1l0,1ZM125.5,322.5l1,0l1,0l1,0l1,1l1,0c0,0,1,0,1,1l0,1l1,0l0,1l0,1l0,1l-1,0l0,1c0,0,0,1,0,1l-1,0l-1,0l-1,1l-1,0l0,1l-1,0c0,0,0,-1,0,-1c0,0,-1,0,-1,0l-4,0l-3,0l-1,0l-1,1c0,0,-1,-1,-1,-1c0,0,-1,0,-1,0l0,-1l-1,0l-1,0l0,-2l-1,0l0,-1c0,-1,0,-1,0,-1c0,-1,0,-1,1,-1l0,-1c0,-1,0,-1,1,-1l1,0l1,0l0,-1c0,0,1,0,1,0c1,0,1,0,1,0l1,0l3,0ZM125.5,331.5l1,0l1,0l1,0l1,-1l1,0l1,-1l0,-1l0,-1c0,-1,0,-1,0,-2c0,0,0,-1,0,-1c0,0,-1,-1,-1,-1l-1,1l-1,-1l0,-1l-1,0c-1,0,-1,0,-1,0l-1,0l0,1l-4,0l-3,0l-1,-1l-1,0c-1,0,-1,0,-1,0l0,1l-1,0c0,1,0,1,0,1l-1,-1c0,0,-1,1,-1,1l0,1l0,1l0,1l0,1l0,1c0,0,0,1,1,1l1,0l1,1l1,0c1,0,1,0,1,0c0,0,1,0,1,0l3,0l4,0ZM112.5,322.5l1,0l0,-1l1,0l0,-1l1,0l1,0c0,0,0,1,0,1c-1,0,-1,0,-1,0c-1,0,-1,0,-1,0l0,1l-1,0l-1,0ZM112.5,332.5l1,-1c0,1,0,1,1,1l1,1l1,0l-1,0c0,0,1,0,1,0l0,1c0,0,-1,0,-1,0l0,-1c-1,0,-2,0,-2,-1l-1,0ZM187.5,329.5l0,-1l0,-1l-1,-8l1,-3l1,11c0,0,-1,0,-1,0c0,1,0,1,0,1c0,1,0,1,0,1ZM179.5,328.5c0,0,1,0,1,0c0,-1,0,-1,1,-1c0,0,1,0,1,-1l-1,-2l0,-6c0,-1,0,-1,0,-1l0,-1l1,0l0,1l1,0c0,0,0,1,-1,1c0,0,0,1,0,1c0,0,0,1,0,2c0,0,0,1,0,2c0,1,0,1,0,2l0,1l0,1l0,1c0,0,-1,0,-1,1c0,0,-1,0,-1,0l-1,0c-1,0,-1,0,-1,0l0,1c0,1,0,2,-1,2c0,1,0,1,0,1c-1,0,-1,1,-1,1c0,0,-1,0,-1,1c0,0,-1,0,-1,0c0,0,-1,0,-1,0c-1,0,-1,0,-2,-1c0,0,-1,0,-1,0c0,0,1,0,1,0l1,0c0,0,1,0,1,0c1,0,1,-1,1,-1c1,0,1,0,1,0c0,-1,1,-1,1,-1c0,-1,0,-1,0,-1c1,-1,1,-1,1,-1c0,-1,0,-1,0,-1c0,0,0,-1,0,-1c0,0,-1,0,-1,0l0,-1l1,0c0,-1,0,-1,0,-1c0,1,0,1,0,1l1,0l0,1ZM174.5,318.5l0,1l1,0l0,-1l0,-1l1,0l0,1c1,0,1,0,1,-1l0,1l0,1l-1,0l-1,0l0,1l-1,0l0,-1l0,-1ZM178.5,315.5l-5,3c0,-1,0,-1,0,-2l6,-2ZM162.5,333.5l-1,-1l1,-2l1,1ZM170.5,327.5l-2,0c-1,0,-1,0,-2,0l-1,0l-1,0l-1,1c-1,0,-1,0,-1,0c-1,0,-1,1,-1,1c-1,0,-2,0,-3,0l-1,0c-1,0,-1,0,-1,0c0,0,-1,-1,-1,-1c0,0,0,1,-1,1c0,0,-1,0,-1,0l-1,0c-1,0,-1,0,-2,0l0,-1c0,1,-1,1,-1,2l-1,0l-1,-1c-1,0,-1,0,-1,0l-1,0l0,1c0,0,-1,1,-1,1c-1,0,-1,1,-2,1c-1,0,-3,0,-4,0l4,-2l2,-1c0,0,1,0,1,-1l1,-1c0,-1,0,-1,1,-2l1,0c0,0,1,0,1,1c1,1,1,1,1,1c1,0,1,0,1,0c0,1,1,1,1,1l1,0l0,-1c1,0,1,0,1,0c0,0,1,0,1,0c0,-1,0,-1,0,-1l1,0l-1,1c1,0,1,0,1,0c1,0,1,1,1,1l1,0c1,0,1,0,1,0c1,-1,1,-1,2,-1c0,0,1,0,1,0l2,-1l-1,0l-1,-1l-1,0l-1,0l-1,0c0,0,0,-1,0,-1c1,0,1,-1,1,-1c1,0,1,0,1,0c0,0,1,0,1,0l1,1l2,0l1,1c0,0,1,0,1,0c0,0,1,0,1,0c0,0,1,0,1,0l1,0ZM167.5,332.5l-4,3c0,-1,0,-1,0,-1c0,0,1,-1,1,-1l4,-2ZM156.5,332.5l-1,0l-1,1l-1,-1l1,-2l1,1l1,-1l1,1ZM148.5,328.5l0,-1c0,0,0,-1,-1,-1l0,1l0,1l1,0ZM147.5,335.5l-4,2c1,-1,1,-1,1,-1l4,-2ZM249.5,330.5l0,-1l0,-2l-1,-8l1,-2l1,10c0,0,0,1,0,1c0,0,-1,0,-1,1l0,1ZM241.5,328.5c0,0,1,0,1,0c0,0,1,0,1,0l0,-1c1,0,1,0,1,0l0,-2l-1,-7c0,-1,0,-1,0,-1c0,-1,0,-1,1,-1l0,1l1,1l0,1c0,0,-1,0,-1,0c0,1,0,1,0,2c0,0,0,1,0,3c0,0,0,1,1,1l0,1c0,0,-1,1,-1,1c0,1,0,1,0,1l0,1l-1,0c0,0,-1,1,-1,1l-1,0l-1,0l-1,-1l0,-1l-1,-1l0,1c0,0,0,1,0,1c-1,0,-1,0,-2,0c0,0,-1,0,-1,-1l-1,1c0,0,-1,1,-1,1c-1,0,-2,-1,-2,-2c0,0,0,1,-1,1c0,0,-1,1,-1,1l-1,0l-1,0l-1,0c0,0,0,-1,0,-1c-1,0,-1,0,-1,0c0,0,0,-1,0,-1c-1,0,-1,0,-1,1c0,0,-1,0,-1,1l-1,0l-11,0c0,1,0,1,0,2l-1,-1c0,0,0,-1,1,-1l-1,0c-1,0,-1,-1,-2,-1l0,-1l0,-1l-1,-8l1,-3l1,10c0,0,0,1,0,1c0,1,0,1,1,1c1,0,1,0,2,0c0,-1,0,-1,0,-2l0,-1l0,-1l0,-1l0,-1l0,-2l-1,-2c0,-1,0,-1,1,-1l0,-1l1,2c0,0,-1,1,-1,2l1,0l0,1l0,1l0,1l0,1l0,1l0,1l0,1l1,-1l1,-1l1,-1c0,0,1,0,1,0l1,0c0,0,1,0,1,0c1,0,1,1,1,1l0,1l0,1l-1,1l1,0l2,0c0,0,1,0,1,0c0,0,1,0,1,-1l1,0c1,0,1,0,1,0c0,0,0,1,0,1c1,0,1,0,1,0l1,0l1,0l1,0c0,-1,1,-1,1,-2l1,0l0,1c0,0,0,1,1,1c0,0,1,0,1,-1c0,0,1,0,1,-1l1,0c0,0,0,1,0,1l1,0l1,0c0,0,0,-1,0,-1l1,0c0,1,1,2,1,2l1,0ZM234.5,322.5l-2,-1l1,-2l2,1ZM235.5,324.5l-1,-1l-1,1l-1,-1l1,-1l1,1l1,-1l1,1ZM232.5,312.5l0,1c0,0,1,0,1,0l0,-1l1,-1l0,1c1,0,1,0,1,0l0,-1c0,1,0,1,0,1l0,1l0,1l-1,0l0,-1l0,1l-1,0l-1,0l0,-1l0,-1ZM236.5,309.5l-5,3c0,-1,0,-1,0,-1l6,-3ZM226.5,333.5l-1,-1l-1,1l-2,-1l1,-1l2,1l0,-1l2,0ZM221.5,314.5c0,-1,1,-1,1,-1c0,0,1,0,1,0c1,0,1,0,2,0c0,0,0,1,0,1c0,0,0,1,0,1c-1,0,-1,0,-1,1c-1,0,-1,0,-1,0c0,0,-1,0,-1,0c0,0,-1,0,-1,0l2,-1c1,0,1,0,1,-1c-1,0,-1,0,-1,0c-1,0,-1,0,-1,0c-1,0,-1,0,-1,1l0,-1ZM219.5,327.5c0,-1,0,-1,0,-1c0,0,-1,0,-1,0c0,0,0,-1,-1,-1l0,1c-1,0,-1,0,-2,0l-1,1l-2,1l1,0c1,0,1,0,2,0c1,0,1,0,1,0c1,-1,2,-1,3,-1ZM200.5,334.5l-4,2c1,0,1,-1,1,-1l4,-2ZM275.5,329.5c0,0,-1,0,-1,0l-1,0l-1,-1l-1,1l-1,1l-1,0l-2,0l0,1l0,1c0,0,0,1,0,1c0,1,-1,1,-1,2c-1,0,-1,1,-2,1c-1,0,-2,1,-2,1c-1,0,-2,0,-2,-1c-1,0,-1,0,-2,0c0,-1,0,-1,-1,-2c0,0,0,-1,0,-1c0,-1,0,-1,0,-1c0,-1,0,-1,0,-1c0,0,0,-1,1,-1c0,0,0,-1,0,-1l1,0c0,0,-1,1,-1,1c0,0,0,1,0,1c0,0,0,1,0,1c0,0,0,1,0,1c0,0,0,1,1,1c0,0,1,0,1,0c0,1,1,1,2,1c1,0,1,0,2,-1c1,0,2,0,2,-1c1,0,1,-1,1,-1c0,0,0,-1,0,-1l-1,0c0,0,0,-1,0,-1l0,-1l0,-2c1,0,1,0,1,0c0,1,0,1,1,1l1,0l1,0c0,0,1,0,1,0l0,-1l1,-1c0,0,0,-1,1,-1c0,-1,1,-1,1,-1c0,0,1,0,1,1c0,0,0,1,0,1l1,1l0,1c0,0,-1,0,-1,0c0,1,0,1,0,1ZM273.5,327.5l1,0c0,0,0,-1,0,-1l-1,0c0,0,0,1,0,1ZM274.5,333.5l-4,2c0,-1,0,-1,0,-1l4,-2ZM262.5,327.5l-1,-1l1,-1l1,1ZM261.5,320.5l4,-2l0,1l-4,2ZM308.5,333.5l-1,-1l0,-1l2,1ZM305.5,330.5l-1,0l-1,0c-1,0,-1,-1,-2,-1c0,0,-1,-1,-1,-2l0,-8l1,-2l0,9l0,1l1,0c0,1,0,1,1,1l1,0l1,0c1,0,1,0,2,0c0,0,1,0,1,-1c0,0,0,-1,0,-1l-1,-1l1,-2c0,1,0,1,0,1l1,1l0,1l0,1l0,1c-1,0,-1,0,-1,1c0,0,-1,0,-1,0c-1,1,-1,1,-2,1ZM307.5,336.5l-4,2c0,-1,1,-1,1,-1l3,-2ZM296.5,329.5c-1,0,-1,0,-2,0c0,-1,-1,-1,-1,-2c0,1,0,1,0,2c-1,0,-2,1,-2,1c-1,0,-1,-1,-2,-1c0,0,0,-1,-1,-2c0,1,0,1,-1,1l-1,0c-1,0,-1,0,-1,0c-1,0,-1,0,-1,0l0,-1l0,-1c1,0,1,0,1,-1c1,0,1,0,2,-1l1,0l0,-1l0,-1c0,0,1,0,1,-1l0,1l0,2l0,2c0,0,0,1,0,1c0,0,1,0,1,0c0,1,0,1,1,1c0,0,1,0,1,-1c0,0,1,0,1,-1c0,0,0,-1,0,-2c0,-1,-1,-1,-1,-2c0,0,0,-1,0,-1l1,-1l0,-1l0,3l1,2l0,1l0,1c0,1,1,1,1,1l1,0c0,0,1,0,1,0l0,-1l0,-1l-1,-1l0,-1l0,-1l0,-1l0,-1l1,1c0,0,0,1,0,1l0,2c0,1,1,1,1,2c0,1,-1,1,-1,2l0,1c-1,0,-1,0,-1,0ZM288.5,325.5c-1,0,-1,0,-1,0l-1,1l-1,1c1,0,2,-1,3,-1ZM344.5,311.5l-4,2c0,0,1,-1,1,-1l4,-2ZM292.5,313.5l0,-1c0,0,0,-1,0,-1c0,-1,0,-1,-1,-2l1,0l0,-1c0,0,0,1,1,1c0,1,0,1,0,1l0,1c0,0,0,1,0,1c0,0,-1,1,-1,1Z" class="g2_35" />
<path fill-rule="evenodd" d="M338.5,591.5l-4,2c1,-1,1,-1,1,-1l4,-2ZM95.5,571.5c0,-1,0,-2,-1,-2c0,-1,0,-1,0,-2l1,-1c0,0,0,1,0,1c0,1,0,1,0,1l0,1c0,1,0,1,0,1c0,1,0,1,0,1ZM282.5,576.5l1,0c0,-1,1,-1,1,-1c1,0,1,0,2,1c0,1,0,1,-1,1c0,1,0,1,0,1l-1,0c0,0,-1,0,-1,0c-1,0,-1,0,-1,0l2,0c0,0,1,-1,1,-1l-1,0c-1,0,-1,0,-2,0l0,-1ZM241.5,574.5l1,0c0,0,1,0,1,0c1,0,1,0,2,0l0,1l0,1c-1,0,-1,0,-1,0c-1,0,-1,1,-1,1c0,0,-1,0,-1,0c0,0,-1,0,-1,0l2,-1c0,0,1,0,1,-1c-1,0,-1,0,-1,0c-1,0,-1,0,-1,0c-1,0,-1,0,-1,0c0,0,0,-1,0,-1ZM133.5,573.5c0,0,1,0,1,-1c1,0,1,0,1,0c1,0,2,0,2,1c0,1,0,1,0,1c0,1,-1,1,-1,1l-1,0l-1,0l-1,0l2,0c1,-1,1,-1,2,-1c-1,0,-1,0,-1,0c0,0,-1,0,-1,0c0,0,-1,0,-1,0c0,0,-1,0,-1,0c0,0,0,-1,0,-1ZM73.5,576.5c1,0,1,0,2,0c0,0,1,0,1,0c1,0,1,0,1,0l0,1c0,0,-1,0,-1,1l-1,0c-1,0,-1,0,-1,0l-1,0l1,0c1,0,2,-1,2,-1c0,0,-1,0,-1,0l-1,0l-1,0l-1,0l0,-1l1,0ZM96.5,589.5l0,-2l0,-1l-1,-8l1,-3l1,11c0,0,0,1,-1,1c0,1,0,1,0,2ZM91.5,588.5l-1,0l-1,0l0,-1l-1,0l-1,0c0,1,0,1,0,1l-1,0l0,1l-1,0l-1,0c0,0,0,-1,0,-1c-1,0,-1,0,-1,0c0,0,-1,0,-1,-1c0,0,0,1,-1,1c0,0,-1,0,-1,0l0,1l-1,0l-1,0l0,1l-1,1c0,0,0,1,0,1c-1,0,-1,1,-1,1c-1,0,-1,0,-1,0c0,1,0,1,-1,1c-1,0,-1,0,-1,0l-1,0c0,0,-1,0,-1,0c0,-1,-1,-1,-1,-1c0,0,1,0,1,0c1,0,1,0,2,0c0,0,1,-1,1,-1c0,0,1,0,1,0c0,-1,1,-1,1,-1c0,0,0,-1,0,-1c1,0,1,-1,1,-1c0,0,-1,0,-1,0l0,-1l-1,0c0,0,-1,0,-1,-1l0,-1l0,-1c1,0,1,0,1,0l0,-1c0,0,1,0,1,0c1,0,1,0,1,0l0,1c1,0,1,0,1,0c0,0,0,1,0,1c0,0,0,1,0,1c1,0,1,0,1,0l1,0l1,0c0,0,0,-1,0,-1c1,0,1,0,1,0c0,0,0,-1,0,-1l1,0c0,1,0,1,0,1l0,1c1,0,1,0,1,0l1,0l1,0c0,0,1,0,1,0l0,-1l1,-1c0,0,1,-1,1,-1c0,-1,1,-1,1,-1c0,0,1,0,1,1c0,0,0,1,0,1l1,1l0,1l-1,0c0,0,0,1,0,1ZM89.5,586.5l1,0c0,-1,0,-1,0,-1c-1,0,-1,0,-1,0c0,1,0,1,0,1ZM86.5,575.5l4,-2l0,1l-1,0l-4,2ZM81.5,584.5l-1,-1l1,-1l1,1ZM80.5,571.5l1,0c0,-1,0,-1,1,-1c0,0,0,1,0,1c0,0,0,1,0,1c0,1,0,1,0,1l0,1l-1,0l-1,1l-1,1l-1,0l1,-1c0,0,1,0,1,-1l1,0l-1,-1l0,-1l0,-1ZM81.5,572.5l0,-1l0,1ZM76.5,586.5c0,0,-1,0,-1,0c0,1,1,1,1,1l1,0c0,0,0,-1,0,-1c0,0,-1,0,-1,0ZM68.5,589.5l0,-2l0,-1l0,-8l1,-3l0,11c0,0,0,1,0,1c0,1,0,1,-1,2ZM157.5,588.5l0,-1l0,-1l-1,-9l1,-2l1,11c0,0,-1,1,-1,1c0,0,0,1,0,1ZM149.5,589.5l0,-1c-1,0,-1,-1,-1,-1c0,0,0,-1,0,-1c0,0,-1,0,-1,1c-1,0,-1,1,-2,1c0,0,-1,0,-2,0c0,0,-1,0,-1,0c0,0,-1,-1,-1,-1c0,0,0,-1,0,-1c0,-1,0,-1,0,-1l1,0l0,1c0,0,1,0,1,0c1,0,1,0,1,0c0,0,1,0,1,0l1,0l1,0c0,-1,0,-1,0,-1c1,0,0,-1,0,-1c0,-1,0,-1,0,-2c0,-1,0,-1,0,-1c0,-1,0,-1,0,-1c0,-1,0,-1,1,-1l0,1c0,0,0,1,0,2c0,1,0,1,0,2c1,1,1,1,1,1l0,1l0,-1c0,0,0,1,0,1c0,1,1,1,1,1c0,0,0,1,1,1c1,0,1,0,1,0c0,0,0,-1,0,-1c0,0,0,-1,0,-2c0,-1,0,-1,0,-2c0,0,0,-1,0,-1c0,-1,0,-2,-1,-2c0,-2,0,-3,0,-3l0,-1c0,0,0,-1,0,-1c1,0,1,-1,1,-1l0,1c1,1,1,1,1,1c0,0,0,1,0,1l0,1c0,0,0,1,0,2c0,0,0,1,0,2c0,1,0,1,0,2l0,1c0,1,0,2,0,2l0,1l0,1c0,0,-1,0,-1,0l0,1l-1,0l-1,-1l-1,0ZM151.5,570.5l0,1c1,0,1,0,1,0l0,-1l0,-1l1,0l0,1c0,0,0,1,0,1c1,0,1,-1,1,-1l0,-1l0,1l0,1l0,1l-1,0l0,-1l-1,0l0,1l-1,0l0,-1l0,-1ZM155.5,567.5l-5,3c0,-1,0,-1,0,-1l6,-3ZM146.5,577.5l-1,0l1,-2l1,1ZM145.5,591.5l-5,2c1,0,1,-1,1,-1l4,-2ZM139.5,590.5l-1,-1l-1,1l-1,0l0,-2l2,1l1,-1l1,1ZM134.5,584.5l1,0c0,0,1,0,1,0l1,0c1,0,1,0,1,0c0,-1,0,-1,0,-1l-1,0c0,-1,0,-1,0,-1c0,0,0,-1,0,-1c1,-1,1,-1,1,-1c0,0,0,1,0,1c0,1,0,1,0,1l0,1c0,1,0,1,0,1c0,1,0,1,0,1c0,0,-1,0,-1,0c0,1,0,1,0,1c-1,0,-2,0,-2,0c0,0,0,1,0,1c0,1,0,1,0,1c-1,0,-1,0,-1,0l0,1l-1,1l-1,0c0,1,0,1,-1,1c0,0,-1,0,-1,0c-1,1,-2,1,-3,1c-1,0,-2,1,-3,1c-1,0,-2,0,-2,0c-1,0,-2,0,-2,0c-1,0,-2,0,-2,0c-1,0,-1,0,-2,0c-1,-1,-2,-1,-2,-1c-1,0,-2,0,-3,-1c-1,0,-2,-1,-3,-1c-1,-1,-2,-1,-3,-2c0,-1,0,-1,0,-1c1,0,1,1,1,1c0,0,1,0,1,0c1,1,1,1,2,1c1,0,1,1,2,1c0,0,1,0,1,0c1,0,2,1,2,1c1,0,2,0,2,0c1,0,2,0,2,0c1,0,1,0,2,0c0,0,1,0,2,0c0,0,1,0,2,0c1,0,1,0,2,0c1,0,2,-1,3,-1c1,0,2,0,3,-1c1,0,2,-1,2,-2l0,-1c-1,0,-1,-1,-1,-1c0,0,0,-1,-1,-1l1,-1l1,1ZM122.5,586.5l-2,-1l1,-1l1,1ZM112.5,579.5l0,-1l3,-1l6,-2l4,-1l1,0l-1,1l-1,0l-1,1l-2,0l-6,2l-3,2l-1,0ZM187.5,579.5l-1,-2l1,-1l1,1ZM190.5,586.5c-1,1,-1,1,-1,1c0,1,-1,1,-2,1c0,0,-1,0,-1,0l-1,0l-1,0c-1,0,-2,0,-2,-1c-1,0,-1,-1,-1,-2l0,-8l1,-2l0,10l1,1l1,0l1,0l1,0c0,0,1,0,1,0c1,0,2,0,2,-1c1,0,1,0,1,0c0,0,0,-1,0,-1c-1,0,-1,0,-1,0c0,0,-1,1,-1,1c-1,0,-1,0,-1,0c0,0,-1,-1,-1,-1c0,0,0,-1,0,-1c0,0,0,-1,0,-1l0,-1c1,0,1,-1,1,-1c0,0,1,-1,1,-1c0,0,1,1,1,1c0,0,0,1,1,1l0,1l0,1c0,1,0,1,0,2l0,1ZM187.5,582.5c0,0,0,1,0,1l1,0l1,-1l-1,0c0,-1,0,-1,0,-1l-1,0c0,0,0,1,0,1ZM186.5,572.5l4,-2c0,1,0,1,0,1l-4,2ZM180.5,569.5l5,-2l-1,0c0,0,0,1,0,1l-4,2ZM177.5,588.5c-1,0,-1,0,-1,0l-1,0l0,-1l-1,0l-1,-1l0,1c0,0,0,1,0,1l-1,0l-1,0l-1,0c-1,0,-2,0,-2,-1c-1,0,-1,-1,-1,-2l0,-8l1,-2l0,10l0,1c1,0,1,0,2,0l1,0l1,0c0,0,1,0,1,0l1,-1c0,-1,0,-1,1,-2l1,0l1,0c0,1,0,1,0,2l0,1l0,1l0,1ZM175.5,585.5l1,1c0,0,0,-1,0,-1c0,0,0,-1,-1,-1c0,0,0,1,0,1ZM173.5,574.5l0,1c1,-1,1,-1,1,-1l0,-1l0,1l1,0l0,-1l1,-1l0,1l0,1c0,1,-1,1,-1,1c-1,0,-1,0,-1,0c-1,1,-1,1,-1,1c0,0,-1,0,-1,0c0,0,0,-1,0,-1l0,-1ZM177.5,571.5l-6,3c0,-1,1,-2,1,-2l5,-3ZM224.5,585.5c0,1,0,2,0,3l-1,1l0,1l1,0l-1,1l-1,0l0,1l-1,0c0,0,0,1,-1,1l-1,0l-1,1l-1,0l-1,1l-1,1l-3,0l-4,0l-1,0c-1,0,-1,0,-1,-1l-1,-1l-1,0c-1,0,-1,-1,-2,-1l-1,0l0,-1l-1,0l0,-1l-1,0l-1,0l0,-1l1,0l0,-1l-1,-1l0,-1c0,0,0,-1,0,-1l0,-1l0,-1c0,0,0,-1,0,-1c0,-1,0,-1,1,-1l0,-1l-1,0l1,-1l1,-1l1,0l0,-1l2,0l1,-1l1,0l1,-1c0,-1,0,-1,1,-1l1,0l4,0l3,0l1,1l1,1l2,1l1,0c1,0,1,1,1,1l1,0l0,1c1,0,1,0,2,1l-1,0l0,1l1,1l0,1l0,1ZM215.5,596.5l0,-1l1,0l0,-1l1,0c1,-1,1,-1,2,-1l1,0c0,-1,1,-1,1,-1l1,-1l1,-1l-1,0l1,-1l0,-1l1,-1l0,-1l0,-1c0,0,0,-1,-1,-2l0,-1l-1,-1l1,0c0,0,0,-1,-1,-1l0,-1l-1,0l-1,0l-1,-1l-2,-1l-1,-1l-1,0c0,-1,0,-1,0,-1l-1,0l-2,0l-4,0l-1,0l-1,1l-1,1l-1,0l-1,1l-1,1l-1,0l-1,0l0,1c-1,0,-1,0,-2,1l1,0l1,0l-1,0l0,1l0,1l-1,0l0,1l0,1l0,1l0,1l0,1l1,0l0,1l1,1l-1,0l-1,0l1,0l0,1l1,0l0,1l1,0l1,1l1,0l1,1c1,0,1,0,1,0l1,1c0,0,1,1,1,1l1,0l4,0ZM221.5,581.5l-1,0l-1,-1l-1,0c0,0,-1,0,-1,0c0,-1,1,-1,1,-1l-1,0c0,0,1,0,1,0l1,0c0,0,1,0,1,1l1,0ZM221.5,590.5l0,1l-1,0l-1,1l-1,0l-1,0l1,0l-1,0c1,0,1,0,1,-1l1,0c1,0,1,-1,1,-1l1,0ZM216.5,592.5c0,1,0,1,0,1c0,1,-1,1,-1,1l-3,0l-4,0l-1,0c-1,0,-1,0,-1,-1l-1,0l0,-1l1,0c0,0,0,-1,1,-1l1,0l4,0l3,0l1,0l0,1ZM216.5,579.5c0,1,0,1,-1,1l-3,0l-4,0l-1,0c-1,0,-1,0,-1,-1l-1,0c0,-1,0,-1,1,-1l0,-1l1,0l1,0l4,0l3,0c0,0,1,0,1,1ZM215.5,581.5l1,0l1,0c0,0,1,0,1,0l1,1l2,0l0,1l1,1l0,1l0,1c0,1,0,1,0,1l-1,1l0,1l-1,0c-1,0,-1,0,-1,0l0,1c0,0,-1,0,-1,0l-1,0l-1,0c0,0,-1,0,-1,0l-3,0l-4,0l-1,0l-1,0l-1,0c-1,0,-1,0,-1,0c-1,0,-1,0,-1,-1l-1,0l-1,0l-1,-2l0,-1l0,-1c0,-1,0,-1,0,-1l0,-1l1,0l0,-1l1,0c0,0,1,0,1,0l0,-1l1,0l1,0c0,0,1,0,1,0l1,0l1,0l4,0ZM215.5,590.5l1,0l1,0l1,0l0,-1l1,0l1,0l1,-1l0,-1l1,-1l0,-1c0,0,0,-1,-1,-1c0,-1,0,-1,0,-1c0,-1,0,-1,-1,-1l-1,1c0,0,0,-1,0,-1l-1,-1l-1,0c-1,0,-1,0,-1,0l-1,0l0,1l-3,0l-4,0l-1,0l0,-1l-1,0l-1,0l-1,0l-1,1c0,0,-1,1,-1,1l-1,-1l0,1l-1,1l0,1l0,1l0,1l1,1c0,0,0,1,0,1l1,0c0,0,1,0,1,0l0,1l1,0l1,0c0,0,1,0,1,0l1,0l0,-1l1,0l4,0l3,0ZM213.5,585.5c1,0,1,0,1,1l-1,0l0,1l1,0l1,0l-1,1l-1,0c0,0,-1,0,-1,0l0,-1l1,0l0,-1l-1,0l0,-1c1,0,1,0,1,-1l1,0ZM210.5,588.5l0,-1l-1,0l0,-1l0,-1l-1,0l1,-1l0,1l1,1l0,1l0,-1l0,-1l1,0c0,-1,0,-1,1,-1l0,1c-1,0,-1,0,-1,1l-1,1l0,1ZM207.5,584.5l1,1l0,1l0,1c0,1,0,1,0,1c-1,0,-1,0,-1,0l1,-1c0,-1,-1,-2,-1,-2ZM201.5,581.5l0,-1l1,0l0,-1l1,0l1,0l0,1l-1,0l-1,0l0,1l-1,0ZM201.5,590.5l1,0c0,0,0,1,1,1l1,1l-1,0c0,0,-1,0,-1,-1l-1,0ZM259.5,588.5l-1,0l0,-1c-1,0,-1,0,-1,0l-1,-1l0,1c-1,0,-1,1,-1,1l-1,0l-1,0c-1,0,-1,0,-1,0c-1,0,-1,0,-1,-1c-1,0,-1,0,-2,1c-1,0,-1,0,-1,0l-1,0c0,0,-1,0,-1,0l-1,0c0,-1,0,-1,0,-1l-1,1c0,0,-1,0,-1,0l-1,0c-1,0,-1,0,-1,0c-1,0,-1,0,-1,-1c-1,0,-1,0,-2,1l-1,0l-1,0l-1,0c-1,0,-1,0,-2,-1c0,0,0,-1,0,-2l-1,-8l1,-2l0,10l1,0l0,1c0,0,1,0,1,0l1,0l1,0c0,0,1,0,1,0c0,0,1,0,1,0l0,-1l1,-1l0,1c0,1,0,1,1,1l1,0c1,0,1,0,1,0c1,0,1,0,1,0c1,0,1,0,1,-1c0,-1,0,-2,0,-2c0,-1,0,-1,0,-1l1,2l0,1l0,1l1,0l1,0l1,0c0,0,1,0,1,0l0,-1l1,-1l0,1c0,1,0,1,1,1l1,0l1,0c1,0,1,0,1,0l1,0l0,-1c0,-1,1,-1,1,-2c1,0,1,0,1,0c1,0,1,0,1,0c0,1,1,1,1,2l0,1l0,1c0,0,-1,0,-1,1ZM257.5,585.5l1,0l1,1c0,0,0,-1,0,-1l-1,0c0,0,0,-1,0,-1c-1,0,-1,1,-1,1ZM255.5,577.5l0,1l1,0c0,0,0,-1,0,-1l0,-1l1,0l0,1c1,0,1,0,1,-1l0,-1l0,1l0,1c0,1,0,1,0,1l-1,0l-1,0c0,1,0,1,-1,1c0,-1,0,-1,0,-1l0,-1ZM256.5,572.5c1,-1,1,-1,1,-1c0,-1,1,-1,1,-1c1,1,1,1,1,1c0,1,0,1,0,1l-1,1l1,0l-1,1l-1,1c0,0,-1,1,-1,1c-1,0,-1,0,-1,0c-1,0,-1,0,-1,0c1,-1,2,-1,3,-2l0,-1c-1,0,-1,0,-1,-1ZM258.5,572.5l-1,0l0,1l1,0l0,-1ZM250.5,592.5l-1,-1l1,-1l1,1ZM250.5,594.5l-4,2c1,0,1,-1,1,-1l4,-2ZM247.5,592.5l-2,-1l-1,2l-1,-1l1,-2l1,1l1,-1l1,1ZM239.5,584.5l-2,-1l1,-2l2,1ZM235.5,573.5l5,-2c0,1,0,1,-1,1l-4,3ZM237.5,570.5l5,-2c0,0,-1,1,-1,1l-5,2ZM290.5,581.5l-1,-1l0,-1l2,1ZM289.5,588.5l-1,0l-1,0c0,0,0,1,0,1c0,1,0,1,0,1c-1,1,-1,1,-1,1c0,1,-1,1,-1,1c0,1,-1,1,-1,1l-1,0c-1,0,-1,0,-1,0c-1,0,-1,0,-2,0c0,0,-1,0,-1,0c0,-1,0,-1,0,-1c0,0,1,0,1,1l1,0c0,0,1,0,1,-1c0,0,1,0,1,0c1,0,1,-1,1,-1c0,0,1,0,1,-1l1,0c0,-1,0,-1,0,-1l0,-1c-1,0,-1,0,-1,0c-1,0,-1,0,-1,0c0,0,0,-1,-1,-1c0,0,0,-1,0,-1l1,0c0,-1,0,-1,0,-1c0,0,0,-1,0,-1l1,0c0,0,0,-1,0,-1c1,0,1,0,1,0c0,1,0,1,1,1l0,1c0,1,0,1,0,1c1,0,1,0,1,0c1,0,1,0,1,0c1,0,1,0,2,0c0,0,1,0,1,0l0,-1l0,-1l-1,0l0,-1l1,-1c0,0,0,1,0,1c1,0,1,0,1,0c0,1,0,1,0,1c0,1,0,1,0,1c0,1,0,1,0,1c-1,1,-1,1,-1,1c0,0,-1,1,-1,1c-1,0,-1,0,-2,0ZM290.5,572.5l0,-1c1,0,1,0,1,0c0,0,1,0,1,0c0,0,0,1,0,1c0,0,0,1,0,1c0,0,0,1,0,1l0,1l-1,0l-1,1c0,0,-1,0,-1,0l0,1l-1,0l0,-1l1,0c0,0,0,-1,1,-1l0,-1l0,-1l0,-1ZM291.5,572.5c-1,0,-1,0,-1,0c0,1,0,1,0,1l1,0ZM285.5,585.5l-1,0c0,1,0,1,0,1c1,0,1,0,1,0l1,0c0,-1,0,-1,0,-1c-1,0,-1,0,-1,0ZM271.5,591.5c1,0,1,0,1,0l1,0c1,0,1,0,2,-1c1,0,1,0,2,-1c0,0,1,-1,1,-1c0,0,0,-1,0,-1l0,-1l0,-1l0,-1l-1,0l1,-1l0,-1l0,1c1,0,1,1,1,1l0,1l0,1c0,1,0,1,0,2c0,1,0,1,0,1c-1,1,-1,1,-1,1c0,0,0,1,-1,1l-1,1c-1,0,-1,0,-1,0c0,0,-1,0,-1,0l-1,0l-1,0l-1,-1ZM273.5,576.5l5,-2c-1,0,-1,1,-1,1l-5,2ZM274.5,573.5l6,-3c-1,1,-1,2,-1,2l-5,2ZM270.5,588.5l0,-1l0,-1l-1,-9l1,-2l1,11c0,0,0,1,0,1c-1,0,-1,1,-1,1ZM329.5,586.5c1,0,1,0,1,0c1,0,1,0,1,0c0,0,0,-1,0,-1l0,-2l0,-6c0,0,-1,0,-1,-1c0,0,0,-1,1,-1c0,0,0,-1,0,-1c0,1,0,1,0,1l1,0c0,1,0,1,0,1c0,0,0,1,0,1l0,1c0,0,0,1,0,2c0,0,0,1,0,2c0,1,0,1,0,2l0,1c0,1,0,1,0,1c0,1,-1,1,-1,1c0,0,0,1,0,1c-1,0,-1,0,-1,0c-1,0,-1,0,-1,0l-1,0c-1,0,-1,0,-1,0c0,0,-1,0,-1,0l0,-1c-1,0,-1,0,-1,0c0,0,-1,0,-1,0c0,1,-1,1,-1,1l-1,0l-1,0l-1,0c0,-1,0,-1,-1,-1l-2,-2c0,-1,-1,-1,-1,-1l-1,0l0,1l0,1c0,1,0,1,-1,1c0,0,0,1,0,1c0,0,-1,0,-1,0c0,0,-1,0,-1,0l-1,0l-3,0l-1,0l0,-1l0,1l0,1l0,1c0,0,-1,0,-1,0c0,0,-1,0,-1,-1c0,0,-1,-1,-1,-1l0,-1c0,0,-1,0,-1,0c0,1,-1,1,-1,1l0,1l0,1l0,1l0,2l1,2c0,1,0,1,0,1l0,1l-1,1l0,-1l0,-1l0,-1l-1,-3l0,-1l0,-1l0,-1l0,-1c0,-1,1,-1,1,-2l1,0l0,-1l1,0l1,-1c0,1,1,1,2,2l2,0l1,0l1,0l1,0c0,0,1,0,1,0l1,0l0,-1c1,0,1,0,1,0c0,-1,0,-1,-1,-1c0,0,0,-1,0,-1l-1,0c0,-1,0,-1,-1,-1c0,0,0,-1,-1,-1c-1,0,-1,0,-1,0c0,-1,0,-1,0,-1c0,-1,0,-1,0,-1c0,0,0,-1,0,-1l1,0c0,-1,0,-1,0,-1c0,0,1,-1,3,-1c1,-1,3,-1,4,-2c2,0,2,-1,3,-1l1,0l-1,2c0,0,-1,0,-1,0c0,0,-1,0,-2,1c-2,0,-3,1,-4,1c-2,1,-3,1,-3,2l1,1l1,0l1,1c1,0,1,1,2,1c0,0,1,1,1,1c1,1,2,1,2,2l2,1l1,0c1,0,1,0,1,0c0,0,1,0,1,0c1,0,1,0,1,-1l1,0c0,0,0,1,0,1l1,0l1,0l1,0ZM329.5,572.5l5,-2l-1,0c0,1,0,1,0,1l-4,2ZM326.5,591.5l-1,-1l-1,2l-1,-1l1,-2l1,1l1,-1l1,1ZM322.5,577.5c0,0,1,0,1,0c1,0,1,0,2,0c0,0,1,0,1,0l0,1l0,1c0,0,-1,0,-1,0c0,0,0,1,-1,1l-1,0l-1,0l2,-1c1,0,1,0,2,-1c-1,0,-1,0,-1,0c0,0,-1,0,-1,0c0,0,-1,0,-1,0c0,0,-1,0,-1,0c0,0,0,-1,0,-1ZM314.5,569.5c0,0,1,-1,1,-1l1,0l0,1l0,1l0,1l1,0l-1,1l-1,-1l0,1l-1,0c0,1,0,1,0,1l-1,0l-1,0l1,0l0,-1c0,0,1,0,1,0l0,-1l1,0l-1,0c0,-1,0,-1,0,-1c0,-1,0,-1,0,-1ZM315.5,569.5l0,1l1,0l-1,-1ZM301.5,577.5l1,0c0,0,1,0,1,0c1,0,1,0,2,0l0,1l-1,1l-1,0c0,0,0,1,0,1c0,0,-1,0,-1,0c-1,0,-1,0,-1,0l2,-1c0,0,1,0,1,-1c-1,0,-1,0,-1,0c-1,0,-1,0,-2,0c0,0,0,-1,0,-1ZM385.5,584.5c0,0,-1,1,-1,1c1,0,1,0,1,0l1,0c0,0,0,-1,0,-1c-1,0,-1,0,-1,0ZM385.5,592.5c-1,0,-1,0,-1,1c-1,0,-1,0,-2,0c-1,0,-1,0,-2,-1l-1,0c1,0,1,0,1,0c0,0,1,0,1,0l1,0c1,0,1,0,1,0c0,-1,0,-1,1,-1l1,-1c1,-1,1,-1,1,-2c0,0,1,-1,1,-1c0,0,-1,0,-1,-1c0,1,0,1,0,1c-1,0,-1,0,-1,0c0,0,-1,0,-1,0c0,0,0,-1,0,-1c-1,0,-1,0,-1,0c0,0,0,-1,0,-1c1,0,1,0,1,-1c0,0,0,-1,0,-1c0,0,1,0,1,-1l1,0c0,0,1,1,1,1c0,0,0,1,0,1c0,0,0,1,0,1c0,0,0,1,0,1c0,1,0,1,0,1c0,1,0,2,0,3c-1,0,-1,1,-1,1c0,0,-1,1,-1,1ZM382.5,578.5l4,-2l0,1l-4,2ZM372.5,581.5l-2,-1l1,-1l2,1ZM371.5,588.5l-1,0l-1,0c0,1,0,1,0,1c0,1,0,2,-1,2c0,0,0,1,0,1c0,0,-1,0,-1,1c0,0,-1,0,-1,0c0,0,0,1,-1,1l-1,0c-1,0,-1,0,-2,-1l-1,0c1,0,1,0,1,0l1,0c0,0,1,0,1,0c1,-1,1,-1,2,-1l0,-1c1,0,1,0,1,0c0,-1,0,-1,1,-1c0,-1,0,-1,0,-2c1,0,1,0,1,0l-1,-1l0,-1c0,0,0,-1,0,-1c0,0,0,1,1,1l1,0l1,0c1,0,1,0,2,0c0,0,1,0,1,0l0,-1l0,-1c0,0,-1,0,-1,0l0,-1l1,-1c0,0,0,1,0,1c0,0,1,0,1,0c0,1,0,1,0,1c0,1,0,1,0,1c0,1,0,1,0,1c0,0,-1,0,-1,0c0,1,0,1,0,1c0,0,-1,1,-1,1c-1,0,-1,0,-2,0ZM368.5,583.5l-1,-1l1,-1l1,1ZM365.5,575.5l4,-2l-1,1l-4,2ZM358.5,586.5c0,0,1,0,1,0l1,0c0,0,1,-1,1,-1l-1,-2l0,-6l0,-1c0,0,0,-1,0,-1c0,0,0,-1,1,-1c0,1,0,1,0,1c0,1,0,1,1,1c0,0,0,1,-1,1l0,1c0,0,0,1,0,2c0,0,0,1,0,2c0,1,0,1,0,2l0,1c0,1,0,1,0,1c0,1,0,1,0,1c0,0,-1,0,-1,0c0,0,0,1,0,1c0,0,-1,0,-1,0c0,0,-1,0,-1,0l-1,0c0,0,-1,0,-1,0l-1,0l0,-1c0,0,-1,0,-1,0c-1,1,-1,1,-2,1l-1,0l-2,0c0,0,-1,0,-1,-1c-1,0,-1,-1,-1,-2l-1,-8l1,-2l1,10l0,1c0,0,1,0,1,0l2,0c0,0,1,0,1,0c1,0,1,0,2,0l0,-1c0,0,1,0,1,0c0,0,0,1,0,1c0,0,1,0,1,0c0,0,1,0,1,0l1,0ZM358.5,570.5c0,0,1,0,1,0c0,0,1,0,1,0c1,0,1,0,2,0c0,0,0,1,0,1l0,1c-1,0,-1,0,-1,0c-1,0,-1,0,-1,0c0,0,-1,0,-1,0c0,0,-1,0,-1,0l2,0c1,0,1,-1,1,-1c-1,0,-1,0,-1,0c-1,0,-1,0,-1,0c-1,0,-1,0,-1,0c0,-1,0,-1,0,-1ZM354.5,584.5l-2,-1l1,-2l2,1ZM352.5,578.5l4,-2l0,1c0,0,-1,0,-1,0l-4,2ZM344.5,572.5l1,0c0,0,1,0,1,0c1,0,1,0,2,0l1,0c0,1,0,1,-1,1l-1,0l-1,0l-1,0l-1,0l-1,0c0,0,1,-1,1,-1ZM350.5,531.5c0,-1,0,-1,0,-2c0,0,0,-1,0,-1l0,-1l1,1l0,1l0,1c0,0,0,1,0,1l-1,0ZM182.5,529.5l0,-1c0,0,0,-1,0,-1c0,-1,0,-2,-1,-2l1,0l0,-1c0,0,0,1,0,1c1,0,1,1,1,1l0,1l0,1c-1,0,-1,1,-1,1ZM171.5,525.5c0,0,0,1,-1,1l0,1l0,1c0,1,0,1,0,1l-1,-1l0,-1l0,-1c1,0,1,-1,1,-1c0,0,1,0,1,0l1,-1l1,0ZM171.5,527.5l1,-1l1,0c0,0,0,1,0,1c0,0,0,1,0,1l0,1l0,1l-1,0l-1,1l-1,0l0,1l-1,0l0,-1l1,0c0,0,1,-1,1,-1l0,-1l1,0l-1,0c0,0,0,-1,0,-1l0,-1ZM172.5,527.5c0,0,0,1,0,1ZM210.5,529.5c0,0,1,0,1,0c0,0,1,0,1,0c1,0,1,0,2,0l0,1l0,1c-1,0,-1,0,-1,0c0,0,-1,0,-1,0l-1,0c0,0,-1,0,-1,0l2,0c1,0,1,-1,1,-1c-1,0,-1,0,-1,0c-1,0,-1,0,-1,0c-1,0,-1,0,-1,0l0,-1ZM145.5,530.5c0,-1,0,-1,1,-1l1,0c0,0,1,0,1,0c1,0,1,1,1,1c0,0,-1,1,-1,1l0,1c-1,0,-1,0,-1,0c-1,0,-1,0,-1,0l-1,0l1,-1c1,0,2,0,2,-1c0,0,-1,0,-1,0l-1,0l-1,0l-1,1l0,-1l1,0ZM126.5,545.5c1,0,1,0,1,0l1,0c1,0,1,0,2,-1c1,0,1,-1,2,-1c0,0,1,-1,1,-1c0,-1,0,-1,0,-1c0,-1,0,-1,0,-1c0,0,0,-1,0,-1l0,-1l-1,0l1,-1l0,-1l0,1c1,0,1,0,1,1l0,1l0,1c0,0,0,1,0,1c0,0,0,1,0,1l0,1c-1,0,-1,1,-1,1c0,0,-1,0,-1,1l-1,0l0,1c-1,0,-1,0,-1,0c0,0,-1,0,-1,0l-1,0l-1,0c0,-1,0,-1,0,-1l-1,0ZM130.5,530.5l0,1l1,0l0,-1c0,0,1,1,1,1c0,0,0,-1,0,-1l1,-1l0,1l0,1c0,0,0,1,-1,1c0,0,-1,0,-1,0c0,0,-1,1,-1,1c0,0,0,-1,-1,-1l0,-1l0,-1ZM134.5,527.5l-6,3c1,-1,1,-1,1,-1l5,-3ZM125.5,545.5l-1,-1l1,-1l1,1ZM123.5,542.5l-1,0l-1,0c0,0,0,-1,-1,-1l-1,-1l-2,-2c0,0,-1,0,-1,-1l-1,0l0,1l0,1l0,1c0,0,0,1,-1,1c0,0,-1,0,-1,1c0,0,-1,0,-1,0l-1,0l-3,0l-1,-1l0,1l0,1c0,1,-1,1,-1,1c0,0,-1,0,-1,-1c0,0,0,-1,-1,-2c0,0,-1,0,-1,0c0,0,-1,0,-1,0c0,0,0,1,0,1l0,1c0,1,0,1,0,1l0,3l1,2c0,0,0,1,0,1l0,1l-1,0l0,-1l0,-1l-1,-3l0,-2l0,-1l0,-1c1,-1,1,-2,1,-2l1,0l0,-1l1,0l0,-1l1,0c0,0,1,1,2,1l2,1l1,0l1,0l1,0c0,0,1,0,1,0l1,0l0,-1l1,0c0,-1,0,-1,0,-1l0,-1c-1,0,-1,0,-1,0c0,-1,0,-1,0,-1c-1,0,-1,0,-2,-1c-1,0,-1,0,-1,0c0,0,-1,0,-1,-1c0,0,0,-1,0,-1l0,-1c0,0,0,-1,0,-1l1,0c0,0,1,-1,3,-2c1,0,3,-1,4,-1c2,-1,3,-1,3,-1l1,0l-1,1c0,0,-1,0,-1,1c0,0,-1,0,-2,0c-2,1,-3,1,-4,2c-2,0,-3,1,-3,1c0,0,0,1,0,1l1,0c0,0,0,1,1,1l1,0c1,1,1,1,2,2c0,0,1,0,1,1c1,0,2,1,2,1l2,2l1,0l1,0c1,0,1,0,2,0c0,0,0,-1,1,-1c0,0,0,-1,-1,-1l0,-1l1,-2c0,0,0,1,0,1l0,1l0,1l1,0l0,1l-1,0l0,1l0,1c0,0,-1,0,-2,0c0,1,0,1,-1,1ZM121.5,530.5l0,1c0,0,1,0,1,0l0,-1l1,0c0,0,0,1,0,1c1,0,1,-1,1,-1l0,-1l0,1l0,1c0,0,0,1,0,1l-1,0l-1,0c0,0,0,1,-1,1c0,0,0,-1,0,-1l0,-1l0,-1ZM125.5,548.5l-4,2c0,-1,0,-1,0,-1l4,-2ZM114.5,522.5c0,0,1,0,1,0c0,-1,0,-1,1,-1c0,1,0,1,0,1c0,0,0,1,0,1c0,1,0,1,0,1l1,0l-1,2l-1,-1l0,1c-1,0,-1,0,-1,1l-1,0l-1,0l1,-1c1,0,1,0,1,-1l1,0l-1,-1l0,-1l0,-1ZM115.5,523.5l0,-1l0,1l0,1l1,0l0,-1l-1,0ZM101.5,531.5l1,-1c0,0,1,0,1,0c1,0,1,0,2,0c0,1,0,1,0,1c0,1,0,1,-1,1c0,1,0,1,0,1c-1,0,-1,0,-1,0c0,0,-1,0,-1,0c0,0,-1,0,-1,0l2,0c0,-1,1,-1,1,-1c-1,-1,-1,-1,-1,-1c-1,0,-1,1,-2,1c0,0,0,-1,0,-1ZM158.5,541.5l-1,0c0,0,-1,0,-1,0l-1,-1l0,1l-1,0l0,1l-1,0l-2,0l0,1c0,1,0,2,0,2c-1,1,-1,1,-2,2c0,0,-1,1,-2,1c0,0,-1,1,-2,1c0,0,-1,0,-2,-1c0,0,-1,0,-1,0c-1,-1,-1,-1,-1,-2c0,0,-1,-1,-1,-1c0,-1,0,-1,1,-1c0,-1,0,-1,0,-1c0,-1,0,-1,0,-1c0,0,0,-1,1,-1c0,0,0,1,0,1l0,1c-1,0,-1,0,-1,0c0,0,0,1,0,1c0,0,0,1,1,1c0,0,0,1,0,1c1,0,1,0,1,0c1,1,2,1,3,1c0,0,1,0,2,-1c1,0,1,0,2,-1c0,0,0,-1,0,-1c0,-1,0,-1,0,-1c0,-1,0,-1,0,-1l0,-1l-1,0l1,-2c1,1,1,1,1,1l2,0c1,0,1,0,1,0l1,-1l0,-1c1,0,1,-1,1,-1l1,0c0,-1,0,-1,0,-1c1,0,1,0,1,1c1,0,1,1,1,1l0,1l0,1c0,1,0,1,-1,1ZM156.5,539.5l1,0l1,0c0,0,0,-1,0,-1c0,0,-1,0,-1,0c0,0,-1,0,-1,0c0,0,0,1,0,1ZM154.5,527.5l0,1c1,0,1,0,1,0l1,-1l0,1l1,0c0,0,0,-1,0,-1l0,-1l0,1l1,0l-1,0l0,1c0,0,0,1,0,1l-1,0l0,-1l0,1l-1,0c0,0,0,1,0,1c-1,0,-1,-1,-1,-1l0,-1l0,-1ZM157.5,545.5l-4,2c0,-1,1,-1,1,-1l4,-2ZM146.5,539.5l-1,-1l0,-1l2,1ZM200.5,545.5l-1,-1l1,-1l1,1ZM198.5,540.5c0,0,1,0,1,0c1,0,1,-1,1,-1l1,0l-1,0c0,0,0,-1,0,-1l0,-1l0,-2c0,0,1,1,1,1l0,1l0,1l0,1l0,1l0,1c-1,0,-1,0,-2,0c0,1,-1,1,-1,1l-1,0c0,0,-1,0,-1,0l0,-1l0,1l0,1c0,0,0,1,-1,2l0,1c-1,0,-1,0,-1,0c0,1,-1,1,-1,1c0,0,-1,0,-1,0c0,0,-1,0,-1,0c-1,0,-1,0,-2,0c0,0,-1,0,-1,-1c0,0,1,0,1,0l1,0c0,0,1,0,1,0c1,0,1,0,1,0c1,-1,1,-1,1,-1c0,0,1,-1,1,-1l0,-1c1,0,1,-1,1,-1c0,0,0,-1,0,-1c0,0,-1,-1,-1,-1l1,0l0,-1l1,1l1,0l1,0ZM198.5,526.5c0,0,0,-1,1,-1l1,0l0,1l0,1l0,1l1,0l-1,1l-1,-1l0,1l-1,0c0,1,0,1,-1,1l-1,0l1,0l0,-1c0,0,1,0,1,0l0,-1l1,0l-1,0c0,-1,0,-1,0,-1c0,-1,0,-1,0,-1ZM199.5,526.5l0,1l0,-1ZM191.5,531.5l1,-1l1,0c0,0,1,0,1,0c1,1,1,1,1,1c0,1,-1,1,-1,1c0,1,0,1,0,1c-1,0,-1,0,-1,0c-1,0,-1,0,-1,0l-1,0l1,0c1,-1,2,-1,2,-1c0,0,-1,0,-1,0c0,-1,0,-1,-1,-1c0,0,0,1,-1,1l-1,0c0,0,0,-1,0,-1c0,0,1,0,1,0ZM188.5,541.5l-1,0l-1,0c-1,0,-1,0,-2,-1c0,0,0,1,-1,1c0,0,-1,0,-1,0c0,0,-1,0,-1,0c0,1,0,1,-1,1l-1,0l0,-2l1,0c1,0,1,0,1,0c0,0,1,0,1,0l0,-1c0,-1,0,-1,0,-1c0,0,0,-1,0,-1c0,0,1,-1,1,-1c0,-1,0,-1,0,-1l0,-1l1,0l0,-1c1,1,1,1,2,2c1,0,1,1,1,1c1,1,1,1,1,1c1,1,1,1,1,1c0,0,0,1,0,1c0,0,0,1,0,1c-1,0,-1,0,-1,1ZM184.5,537.5c-1,0,-1,0,-1,0c0,0,0,1,0,1c0,0,1,1,1,1c0,0,0,-1,1,-1c0,-1,0,-1,0,-1c-1,0,-1,0,-1,0ZM186.5,537.5c0,0,0,1,0,1c0,0,0,1,-1,1l1,0l1,0l1,1c0,0,0,-1,0,-1c-1,0,-1,-1,-1,-1l-1,-1ZM172.5,539.5l-2,-1l1,-1l2,1ZM176.5,539.5c0,1,1,1,1,1l2,0l0,2l-2,0l0,1c0,1,0,2,0,2c-1,1,-1,1,-2,2c0,0,-1,1,-2,1c0,0,-1,1,-2,1c0,0,-1,0,-2,-1c0,0,-1,0,-1,0c-1,-1,-1,-1,-1,-2c0,0,-1,-1,-1,-1c0,-1,0,-1,0,-1c0,0,1,0,1,0c0,-1,0,-1,0,-1c0,-1,0,-1,0,-1c0,0,0,-1,0,-1c1,0,1,0,1,0c0,0,0,1,0,1l-1,1c0,0,0,1,0,1c0,0,0,1,1,1c0,0,0,1,0,1c0,0,1,0,1,0c1,1,2,1,2,1c1,0,2,0,3,-1c1,0,1,0,2,-1c0,0,0,-1,0,-1c0,-1,0,-1,0,-1c0,-1,0,-1,0,-1l0,-1l-1,0l1,-2ZM244.5,544.5l-1,1l-1,-1l1,-1ZM250.5,537.5l0,2l-1,0c-1,0,-1,0,-1,0l-1,0c0,0,-1,0,-1,1l-1,0l-1,0l-1,1c-1,0,-1,0,-1,0l-1,0l0,1l-1,0l-1,0c0,0,-1,-1,-1,-1l0,-1c-1,0,-1,0,-1,-1l0,-8l1,-3l0,10c0,0,0,1,0,1l1,0c0,1,0,1,0,1c0,0,0,-1,0,-1c0,-1,0,-1,1,-1c0,-1,0,-1,0,-1c1,-1,1,-1,1,-1c1,0,1,0,1,0l1,0c1,0,1,0,1,0l1,0l1,1l2,0l1,0l1,0ZM246.5,538.5l-1,0c-1,0,-1,0,-2,0l-1,0c0,0,-1,0,-1,0c0,0,-1,1,-1,1l0,1l1,0c1,0,1,0,1,0l1,0l0,-1l1,0l1,0ZM243.5,529.5l4,-3l-1,1l0,1l-4,2ZM234.5,526.5l1,0c0,0,1,0,1,0c1,0,1,0,2,0l1,0c0,0,0,1,-1,1l-1,0l-1,0l-1,0l-1,0l-1,0c0,-1,1,-1,1,-1ZM228.5,539.5c0,0,1,0,1,0c0,-1,0,-1,1,-1c0,0,0,-1,0,-1l1,0c0,0,1,0,1,0c0,0,0,1,0,1l0,1l-1,0l-1,0l-1,0l1,1l1,0c1,0,1,0,2,0c0,0,0,1,0,1l-1,0l-4,2c0,0,0,-1,0,-1l1,0c0,-1,0,-1,0,-1c-1,-1,-1,-1,-1,-1c0,0,0,-1,0,-1ZM228.5,532.5l4,-2l0,1l-4,2ZM227.5,529.5l-2,1c-1,0,-2,1,-3,1c-2,1,-3,1,-3,1c0,1,0,1,-1,1c0,0,1,0,1,0l2,1c0,1,1,1,1,2c1,0,1,1,1,1c0,1,0,1,0,2c0,0,0,1,0,1c0,0,0,1,0,1c-1,0,-1,0,-1,0c-1,0,-1,0,-1,1c0,0,-1,0,-1,0l-1,0l-3,0l-1,-1l0,1l0,1c0,1,-1,1,-1,1c0,0,-1,0,-1,-1c0,0,0,-1,-1,-2c0,0,-1,0,-1,0c0,0,-1,0,-1,0c0,0,0,1,0,1l0,1c0,1,0,1,0,1l0,3l1,2c0,0,0,1,0,1l0,1l-1,0l0,-1l0,-1l-1,-3l0,-2l0,-1l0,-1c1,-1,1,-2,1,-2l1,0l0,-1l1,0l0,-1l1,0c0,0,1,1,2,1l2,1l1,0l1,0l1,0c1,0,1,0,1,0c0,0,1,0,1,0c0,0,0,-1,1,-1c0,-1,0,-1,0,-1c-1,-1,-1,-1,-2,-2c0,0,-1,0,-1,0c0,0,0,-1,-1,-1c0,0,-1,0,-1,0c0,0,0,-1,0,-1l0,-1l0,-1l0,-1c0,0,1,0,1,0c0,0,1,-1,3,-2c1,0,3,-1,4,-1c1,0,2,-1,2,-1ZM222.5,522.5c0,0,1,0,1,0c0,-1,0,-1,1,-1c0,1,0,1,0,1c0,0,0,1,0,1c0,1,0,1,0,1l1,0l-1,2l-1,-1l-1,1l0,1l-1,0l-1,0l1,-1c0,0,1,0,1,-1l1,0l-1,-1l0,-1l0,-1ZM223.5,523.5l0,-1l0,1l0,1l1,0l0,-1l-1,0ZM274.5,532.5l-1,-1l-1,1l-1,-1l1,-1l1,1l1,-1l1,0ZM276.5,540.5c-1,0,-1,1,-1,1c-1,0,-1,0,-2,1c0,0,-1,0,-2,0l-1,0l-1,0l-1,0c0,-1,0,-1,-1,-1l0,-1l0,-1l-1,1l0,1c-1,0,-1,0,-2,0c0,0,-1,0,-1,0l-1,0c0,0,-1,0,-1,0c-1,0,-1,0,-1,-1c0,0,0,-1,0,-1l1,-1c0,1,0,1,0,1l1,0l0,1l1,0c1,0,1,0,1,0c0,-1,1,-1,1,-1c1,0,1,0,1,0l1,-1c0,0,-1,0,-1,-1l0,-2l0,-1l1,-2l0,2c0,0,0,1,0,1l1,3l0,1l0,1l1,0l1,0l1,0c1,0,1,0,2,0c1,0,2,-1,2,-1l0,-1c0,0,0,-1,0,-1c0,0,0,1,0,1l-1,0l-1,0c-1,0,-1,0,-1,0c0,-1,0,-1,0,-1c0,-1,0,-1,0,-2c0,0,0,-1,1,-1c0,-1,0,-1,1,-1c0,0,1,0,1,1l0,1c1,0,1,0,1,0l0,1l0,1c0,0,0,1,0,1c0,1,0,1,0,1c0,0,0,1,0,1ZM273.5,536.5c1,0,1,0,1,0c0,0,0,-1,0,-1l-1,0c0,0,0,1,0,1ZM272.5,525.5l4,-2l0,1c-1,0,-1,0,-1,0l-4,2ZM263.5,526.5l1,0l1,0c0,0,1,0,1,0c1,0,1,0,1,1c0,0,0,1,-1,1c0,0,-1,1,-1,1c-1,0,-1,0,-1,0l-1,0l2,-1c0,0,1,0,1,-1l-1,0c-1,0,-1,0,-2,0l-1,0l1,0l0,-1ZM323.5,542.5l0,-1l0,-2l0,-8l1,-3l0,11c0,0,0,1,0,1l0,1l-1,1ZM316.5,540.5l1,0c1,0,1,0,1,-1l0,-2l0,-7c0,0,-1,0,-1,0c0,-1,1,-1,1,-1c0,-1,0,-1,0,-1c0,1,0,1,1,1l1,1c0,0,-1,0,-1,1c0,1,0,1,0,2c0,0,0,1,0,3c0,0,0,1,0,1l0,1c0,0,0,1,0,1c0,1,0,1,0,1l-1,1c-1,0,-1,0,-1,1c-1,0,-1,0,-1,0l-1,0c-1,0,-1,0,-1,0c0,0,-1,-1,-1,-1c0,0,0,-1,0,-1c-1,0,-1,0,-1,0c0,1,-1,1,-1,1l-1,0c0,1,-1,1,-1,1l-1,0l-1,0c-1,0,-1,-1,-2,-1c0,0,0,-1,0,-2l-1,-8l1,-2l0,9l0,1l1,0c0,1,1,1,1,1l1,0l1,0c0,0,1,0,1,0c0,0,1,0,1,-1c1,0,1,0,1,0l1,0c0,0,0,1,1,1l1,0l1,0ZM312.5,537.5l-2,-1l1,-1l1,1ZM310.5,527.5l0,1c0,0,1,0,1,0l0,-1l1,0l0,1l1,0c0,0,0,-1,0,-1l0,-1l0,1l0,1c0,0,0,1,0,1l-1,0l0,-1l0,1l-1,0c0,0,0,1,0,1c-1,0,-1,-1,-1,-1l0,-1l0,-1ZM314.5,524.5l-5,3c0,-1,0,-1,0,-1l6,-3ZM286.5,548.5l-1,0c0,0,-1,0,-1,0c0,-1,0,-1,0,-1c-1,0,-1,0,-1,-1l0,-1l0,-1c0,0,0,-1,0,-1c0,-1,1,-1,1,-1l0,-1l1,0c-1,1,-1,1,-1,1l0,1l0,1c0,0,0,1,0,1c0,0,1,1,1,1l1,0l1,1c0,0,1,0,1,0c1,0,1,0,1,0c1,0,1,-1,2,-1l1,0c0,0,0,-1,0,-1l1,0c0,0,0,-1,0,-1l0,-1c0,0,0,-1,0,-1l-1,-1l0,-1l1,-2c0,0,0,1,0,1l0,1l1,0l1,0c0,0,1,0,1,0l1,0c0,-1,0,-1,0,-1c0,0,0,-1,1,-1l0,-1l0,1l0,1c0,0,1,0,1,1l1,0c0,0,0,-1,0,-1l0,-2c0,1,0,1,0,1l1,0l0,1l0,1l0,1c0,0,-1,0,-1,0c0,0,0,1,-1,1l0,-1c-1,0,-1,0,-1,0l-1,0c-1,0,-1,0,-1,0l-1,1l-1,0l0,1l0,1l-1,1c0,1,0,1,0,1c0,0,-1,1,-1,1c0,0,-1,0,-1,1c0,0,-1,0,-1,0c0,0,-1,0,-1,1l-1,0l-1,0c-1,0,-1,-1,-1,-1ZM290.5,529.5c0,0,1,0,1,-1l1,0c0,0,1,1,1,1c0,0,-1,1,-1,1c0,0,0,1,0,1l1,0l0,1l-2,0l0,1c-1,0,-1,0,-1,0l-1,1l-1,0l1,-1c1,0,1,-1,1,-1l1,0l0,-1l-1,0l0,-1l0,-1ZM291.5,529.5c0,1,0,1,0,1l1,0ZM352.5,545.5l-1,-1l-1,1l-1,-1l0,-1l2,1l1,-2l1,1ZM349.5,540.5c1,0,1,0,2,0c0,0,1,-1,1,-1c0,0,0,-1,0,-1c-1,0,-1,-1,-1,-1l1,-2c0,0,0,1,0,1c0,0,0,1,0,1c1,0,1,0,1,1c0,1,0,1,0,1c-1,1,-1,1,-1,1l0,1c0,0,-1,0,-1,0c-1,1,-1,1,-1,1l-1,0l-1,0c-1,0,-2,-1,-2,-1c-1,0,-1,-1,-1,-2l0,-8l0,-2l1,9l0,1c1,1,1,1,2,1l1,0ZM353.5,526.5c-1,0,-2,0,-2,0l-1,0l-1,0l-1,0l1,0l0,-1c1,0,1,0,2,0l1,0l1,0ZM344.5,522.5l5,-2l-1,1l-4,2ZM343.5,546.5l-1,-1l-1,1l-1,0l1,-2l1,1l1,-1l1,1ZM338.5,542.5c0,-1,0,-1,0,-1c0,0,0,-1,1,-1c1,0,1,0,1,-1l1,0c0,0,0,1,0,1c1,0,1,0,1,0c0,1,0,1,0,1l0,1c0,0,0,-1,0,-1c-1,0,-1,0,-1,0c0,0,-1,0,-1,0c0,0,-1,0,-1,0c0,0,-1,1,-1,1l0,1c0,1,0,1,0,2l1,1l-1,1c0,0,-1,0,-1,0l0,-1l-1,-1c0,0,0,-1,0,-2c0,0,0,-1,0,-2c0,1,-1,1,-1,1l-1,0l-1,0c-1,0,-2,-1,-2,-1c-1,0,-1,-1,-1,-2l-1,-8l1,-2l1,9l0,1c0,1,1,1,2,1l1,0l1,0c0,0,1,0,2,0l0,-1c1,0,1,0,1,0l0,1c-1,1,-1,2,-1,3c0,1,0,1,0,2c0,-1,0,-1,0,-1c0,-1,0,-1,0,-1l0,-1l1,0ZM337.5,530.5l0,1c1,0,1,0,1,0l0,-1l1,0l0,1c0,0,1,-1,1,-1l0,-1l0,1l0,1c0,0,0,1,0,1l-1,0l-1,0c0,0,0,1,-1,1c0,0,0,-1,0,-1l0,-1l0,-1ZM338.5,525.5c0,0,1,0,1,-1l1,0c0,0,1,1,1,1l-1,1l0,1l0,1l-1,0l0,1c-1,0,-1,0,-1,0c-1,0,-1,1,-1,1c-1,0,-1,-1,-1,-1c1,0,2,-1,3,-2l-1,0c0,0,0,-1,0,-1c0,0,0,-1,0,-1ZM339.5,525.5c0,0,0,1,0,1l1,0ZM332.5,532.5l4,-2l0,1l-4,2ZM376.5,572.5l4,-2l0,1c-1,0,-1,0,-1,0l-4,2ZM377.5,589.5l0,-1l0,-1l-1,-9l1,-2l1,11c0,0,0,1,0,1c-1,0,-1,1,-1,1ZM336.5,589.5l0,-2l0,-1l-1,-8l1,-3l1,11c0,0,-1,0,-1,1c0,1,0,1,0,2Z" class="g2_35" />
</svg>