<?xml version="1.0" encoding="UTF-8" standalone="no"?>
<!DOCTYPE svg PUBLIC "-//W3C//DTD SVG 1.1//EN"
"http://www.w3.org/Graphics/SVG/1.1/DTD/svg11.dtd">
<svg version="1.1" xmlns="http://www.w3.org/2000/svg" xmlns:xlink="http://www.w3.org/1999/xlink">
<defs>
<style type="text/css"><![CDATA[
.g1_58{
stroke: #1F1A17;
stroke-width: 1;
stroke-linecap: butt;
stroke-linejoin: miter;
}
]]></style>
</defs>
<path fill-rule="evenodd" d="M171.5,52.5l0,1c0,0,0,1,0,1l1,0l0,-1l0,-1l0,-1l1,0l0,1l0,1l1,0c0,0,0,-1,0,-1l0,-1l1,0l0,1l0,1c-1,1,-1,1,-1,1l-1,0l-1,0c0,1,-1,1,-1,1l-1,0c0,0,0,-1,0,-1c0,0,0,-1,0,-1l0,-1ZM371.5,56.5c0,0,0,-1,1,-1l1,0c0,0,1,0,1,0c1,0,1,1,1,1c0,1,-1,1,-1,1c0,0,0,1,0,1c-1,0,-1,0,-1,0c-1,0,-1,0,-1,0l-1,0l1,0c1,-1,2,-1,2,-1c0,0,0,-1,-1,-1c-1,0,-1,0,-2,1l-1,0c0,-1,0,-1,0,-1c1,0,1,0,1,0ZM61.5,56.5l1,0c0,0,1,0,1,0c1,0,1,0,2,0c0,0,0,1,0,1l0,1c-1,0,-1,0,-1,0c-1,0,-1,0,-1,0c0,0,-1,0,-1,0c0,0,-1,0,-1,0l2,0c0,0,1,-1,1,-1c-1,0,-1,0,-1,0c-1,0,-1,0,-1,0c-1,0,-1,0,-1,0c0,-1,0,-1,0,-1ZM165.5,55.5c0,-1,1,-1,1,-1c0,-1,0,-1,1,-1c0,1,0,1,0,1c0,1,0,1,0,1l0,1l1,0l-1,2l-1,-1l-1,1c0,0,0,1,0,1l-1,0l-1,0l1,-1c0,0,1,0,1,-1l1,0l-1,-1l0,-1ZM166.5,55.5l0,-1c0,0,0,1,0,1l0,1l1,0l0,-1l-1,0ZM262.5,44.5c0,1,0,3,-1,4c0,1,0,1,0,1c0,0,-1,0,-1,0c0,0,-1,0,-1,0c0,0,0,1,-1,1l0,-1l1,0c0,0,1,0,1,0c0,0,0,-1,0,-1c0,0,1,0,1,0c-1,0,-1,-1,-1,-1c0,-1,-1,-1,-1,-1c0,0,-1,0,-1,0c0,-1,0,-1,0,-1c0,0,0,-1,0,-1c0,0,0,1,1,1c1,0,1,1,1,1l0,1c1,0,1,0,1,0c0,0,0,1,0,1l0,-1c0,-1,0,-1,0,-1l0,-2ZM320.5,68.5c0,1,-1,1,-1,1c-1,0,-1,0,-1,0c-1,0,-1,0,-2,0c-1,0,-1,0,-1,0c0,-1,0,-1,0,-1c0,-1,0,-1,0,-1c0,0,1,0,1,0l1,0c0,-1,0,-1,0,-1c1,0,1,0,1,-1c0,0,0,-1,0,-1c-1,0,-1,-1,-1,-1c0,0,-1,-1,-1,-1c-1,-1,-1,-1,-2,-2l-1,-1l-1,0c-1,0,-1,-1,-1,-1c0,0,0,-1,0,-1l0,-1c0,0,0,-1,0,-1c1,1,1,1,1,1c1,1,1,1,2,2c1,0,1,1,2,2c0,0,1,1,2,2c0,0,0,1,0,1c1,0,1,1,1,1c0,0,0,-1,0,-1c0,-1,0,-2,0,-2c1,-1,1,-2,1,-2c0,0,0,-1,0,-1c0,-1,0,-2,0,-2c-1,0,-1,0,-1,0l0,-1l1,-1l0,1l1,0l1,0c-1,1,-1,1,-1,1c0,0,0,1,0,1l0,1l0,1c0,0,0,1,0,1c-1,1,-1,1,-1,1c0,1,0,2,0,2c0,1,0,1,-1,2l1,0l0,1c0,0,0,1,0,1c0,0,0,1,0,1ZM319.5,66.5l-1,0c0,0,0,1,0,1c0,0,1,0,1,0c0,0,0,-1,0,-1ZM292.5,58.5l0,-1c0,0,0,-1,0,-1c0,-1,0,-2,0,-2l0,-1c0,0,1,0,1,1c0,0,0,1,0,1l0,1c0,1,0,1,0,1l-1,1ZM86.5,61.5c-1,0,-2,0,-3,1c-1,1,-2,1,-3,1c0,1,-1,1,-2,1c1,0,1,0,1,0l0,1l0,1l0,1c0,0,-1,0,-1,0l-1,0c-1,0,-1,0,-1,0l-1,-1l0,1c0,0,-1,0,-1,1l-1,0l-1,0c0,0,-1,0,-1,0c-1,-1,-1,-1,-1,-2c0,1,0,1,-1,1c0,1,0,1,-1,1l-2,0c0,0,0,1,0,1c0,0,0,1,0,1c-1,1,-1,1,-1,1c0,1,-1,1,-1,1c0,0,-1,1,-1,1c-1,0,-1,0,-1,0c0,0,-1,0,-1,0c-1,0,-1,0,-2,0c0,0,-1,0,-1,-1c0,0,1,0,1,0l1,0c0,0,1,0,1,0c0,0,1,0,1,0c1,-1,1,-1,1,-1c0,0,1,-1,1,-1l1,-1c0,-1,0,-1,0,-1c-1,0,-1,0,-1,0c-1,0,-1,0,-1,0c0,-1,0,-1,-1,-1l0,-1c0,0,1,0,1,-1c0,-1,0,-1,0,-1l1,0c0,-1,0,-1,0,-1c1,0,1,0,1,0c0,0,1,1,1,1c0,1,0,1,0,1c0,1,0,1,0,1c1,0,1,0,1,0c1,0,1,0,1,0c1,0,1,0,2,-1c0,0,0,-1,0,-1l0,-1l-1,-7l1,-2l1,11c0,0,0,1,0,1l1,0l1,0c1,0,1,0,1,0l1,0l0,-1c1,-1,1,-1,1,-2c0,0,1,0,1,0l0,-1l1,0c1,0,1,0,1,0c0,-1,0,-1,0,-1c0,-1,-1,-1,-1,-2c1,0,1,-1,1,-1l0,-1c1,0,1,-1,1,-1c0,0,1,0,1,0c0,0,1,0,1,0l1,0c0,0,1,0,1,0l0,1l1,0l-1,0l-1,0l-1,0l-1,0l-1,1c0,0,0,1,0,1l0,1c1,0,1,1,2,1l1,0c1,-1,1,-1,1,-1l1,0l1,0l0,-1ZM80.5,52.5l4,-3l0,1l0,1l-4,2ZM76.5,65.5l1,0l1,1c0,-1,0,-1,0,-1l-1,0c0,-1,0,-1,0,-1c-1,0,-1,0,-1,1ZM77.5,71.5l-4,2c0,0,0,-1,1,-1l4,-2ZM69.5,49.5c0,-1,1,-1,1,-1c0,0,0,-1,1,-1c0,0,0,1,0,1l0,1l0,1l1,1l-1,1l-1,-1l-1,1c0,0,0,1,0,1l-1,0l-1,0l1,0l0,-1c0,0,1,0,1,0l0,-1l1,0l-1,0l0,-1l0,-1ZM70.5,49.5l0,1l0,-1ZM64.5,65.5l-1,0c0,1,0,1,1,1c0,0,1,0,1,0c0,0,0,-1,0,-1c-1,0,-1,0,-1,0ZM57.5,68.5l0,-1l0,-1l-1,-9l1,-2l1,11c-1,0,-1,0,-1,1c0,0,0,1,0,1ZM105.5,67.5l-1,0c0,0,-1,0,-1,0l-1,-1l0,1c0,0,-1,0,-1,1l-1,0l-1,0l-1,0c-1,0,-1,0,-2,-1c0,0,0,-1,0,-2l-1,-8l1,-2l0,9l0,1l1,0l0,1c0,0,1,0,1,0l1,0l1,0c1,0,1,0,1,0l1,0l0,-1c1,-1,1,-1,1,-2l1,0c1,0,1,0,1,0c1,0,1,1,1,1l0,1l0,1l0,1l-1,0ZM103.5,65.5l1,0l1,1c0,-1,0,-1,0,-1c0,-1,-1,-1,-1,-1c0,0,-1,0,-1,1ZM101.5,55.5l4,-2l-1,0l0,1l-4,2ZM155.5,68.5l0,-1l0,-1l-1,-9l1,-2l1,11c0,0,-1,0,-1,1c0,0,0,1,0,1ZM153.5,52.5l4,-2c0,1,0,1,0,1l-4,2ZM150.5,65.5l-2,0c0,0,-1,0,-1,0l-1,0c-1,1,-1,1,-1,1l-1,0l-1,1c0,0,-1,0,-1,0c0,0,-1,0,-1,0c-1,1,-2,1,-2,1l-1,0l-1,0l-1,-1l0,-1l-1,0c0,1,0,1,0,1c-1,0,-1,1,-2,1c0,0,-1,-1,-1,-2l-1,1c0,0,0,1,-1,1c-1,0,-2,-1,-2,-2c0,1,0,1,0,1c-1,1,-1,1,-2,1l-1,0l-1,0c0,1,0,1,0,1c0,1,0,1,0,1c0,0,-1,1,-1,2c0,0,0,1,-1,1c-1,1,-1,1,-2,1c-1,1,-2,1,-2,1c-1,0,-1,0,-2,0c-1,-1,-1,-1,-2,-1c0,0,0,-1,-1,-1c0,-1,0,-1,0,-2c0,0,0,-1,0,-1l0,-1c1,0,1,0,1,-1c0,-1,0,-1,0,-1l1,0c0,1,0,1,-1,1c0,0,0,1,0,1c0,1,0,1,0,1c0,1,0,1,0,1c0,1,1,1,1,1l1,0c0,0,0,1,0,1c0,0,1,0,2,0c1,0,2,0,2,0c1,-1,2,-1,2,-2c0,0,1,0,1,0l0,-1l0,-1c0,0,0,-1,-1,-1l0,-1l1,-2c0,0,0,1,0,1c0,0,1,0,1,0l1,0l1,0l1,0c1,0,1,-1,2,-2l0,1c0,1,0,1,1,1c0,0,1,0,1,0c0,0,1,-1,1,-1l1,-1c0,1,0,1,0,1c0,1,0,1,1,1l1,-1c0,0,0,-1,1,-1c0,2,1,2,2,2l1,0c1,0,1,0,2,0c0,0,1,0,1,-1l2,0l1,0l-1,-1l-1,0l-1,0l0,-1l-1,0c0,0,-1,0,-1,0l0,1l-1,0c0,-1,1,-1,1,-2l1,0l1,0c0,0,1,0,1,0l2,1l1,0c1,0,1,0,1,1c1,0,1,0,1,0c1,0,1,0,2,0l1,0ZM142.5,53.5c0,-1,0,-1,1,-1c0,0,1,0,1,0c1,0,1,0,2,0c0,0,0,1,0,1c0,0,0,1,0,1c-1,0,-1,1,-1,1c-1,0,-1,0,-1,0c0,0,-1,0,-1,0c0,0,-1,0,-1,0l2,-1c0,0,1,0,1,0c0,-1,0,-1,0,-1c-1,0,-1,0,-1,0c-1,0,-1,0,-1,0c-1,0,-1,1,-1,1l0,-1ZM131.5,55.5l4,-2l0,1l-4,2ZM118.5,66.5l-1,-1l1,-2l1,1ZM117.5,58.5l4,-2l0,1l-4,2ZM180.5,68.5l0,-1l0,-1l0,-9l1,-2l0,11l0,1c0,0,0,1,-1,1ZM176.5,67.5l-1,0c0,1,0,1,0,1c0,0,-1,-1,-1,-1c-1,0,-1,-1,-1,-2c0,1,0,2,-1,2c0,1,-1,1,-1,1c-1,0,-2,0,-2,-1c0,0,-1,-1,-1,-2c0,0,0,1,0,1l-1,0c0,1,-1,1,-1,1c-1,0,-1,0,-2,0c0,-1,0,-1,0,-1c0,-1,0,-1,0,-2c0,0,1,0,1,0c0,-1,1,-1,1,-1l1,-1l1,0l0,-1l0,-1l1,0l0,1l0,1l0,2c0,1,0,1,0,1l0,1c1,0,1,0,2,0l1,0c0,-1,0,-1,1,-2c0,0,-1,-1,-1,-2c0,0,0,-1,0,-1c0,-1,0,-1,0,-1l0,-1l0,-1l1,-1l0,3l0,2l0,1l1,1l0,1c0,0,1,0,1,0l0,1l1,0c0,0,0,-1,0,-1c0,0,1,0,1,0c0,-1,-1,-1,-1,-1l0,-2l0,-1l-1,-1l1,0c0,-1,0,-1,0,-1l0,-1c0,0,0,1,0,1c0,1,0,1,1,1l0,2c0,1,0,2,0,2c0,1,0,1,0,2c0,0,0,1,-1,1ZM168.5,63.5l-1,0c0,1,-1,1,-1,1c0,0,-1,0,-1,1c1,0,2,0,2,0c1,-1,1,-1,1,-1ZM237.5,66.5l1,0l1,0c0,0,0,-1,0,-1l0,-2l0,-6c0,-1,0,-1,0,-1c0,0,0,-1,0,-1c0,-1,0,-1,1,-1c0,1,0,1,0,1c0,0,0,1,1,1l-1,1l0,1c0,0,0,1,0,1c0,1,0,1,0,3c0,0,0,1,0,1l0,1c0,1,0,1,0,1c0,0,0,1,0,1c0,0,0,1,0,1c-1,0,-1,0,-1,0l0,1c0,0,-1,0,-1,0c0,0,-1,0,-1,0l-1,0c0,0,-1,0,-1,0l-1,0c0,-1,0,-1,0,-1c0,0,-1,0,-1,0c-1,0,-1,1,-2,1l-1,0l-2,0c-1,0,-2,0,-2,-1c-1,0,-1,0,-1,-1l0,-1l-1,0l-5,2c0,0,-1,0,-1,1c-1,0,-1,0,-1,0l-1,0l-1,0c0,0,0,1,0,1l-1,0c0,1,0,1,0,2c0,0,-1,1,-1,1l-1,1l-1,0c-1,1,-1,1,-1,1l-1,0c0,0,-1,-1,-1,-1c-1,0,-1,0,-1,0l-2,-1l1,-2l2,1l0,-1l2,1l-1,1l-1,-1l-1,1c0,0,0,1,1,1c1,0,1,0,2,-1l1,0c0,0,0,-1,1,-1l0,-1c1,0,1,0,1,-1l1,-1l0,-1c-1,0,-1,0,-1,0l0,-1c0,-1,0,-1,0,-1l1,0l0,1c1,0,1,0,1,0l1,0c1,0,1,0,1,0c1,0,1,0,1,0c1,0,1,0,2,-1l1,0l1,0l0,-1l-1,0c-1,0,-2,-1,-3,-1l-1,0l0,1l0,-1c0,0,0,-1,1,-1l1,0l1,0c0,0,1,0,1,0c1,1,2,1,3,1c1,0,2,1,2,1c1,0,1,0,2,0l0,1l-1,0l-1,0c0,0,0,1,0,1c1,0,1,0,1,0l1,0l2,0c1,0,1,0,1,0c1,0,1,0,2,0c0,-1,0,-1,0,-1c0,0,1,0,1,0c1,1,1,1,1,1c0,0,1,0,1,0l1,0ZM242.5,71.5l-5,2c1,0,1,-1,1,-1l4,-2ZM235.5,71.5l-2,-1l-1,1l-1,0l1,-2l1,1l1,-1l1,1ZM231.5,58.5l4,-2l0,1l-4,2ZM221.5,72.5l-1,-1l1,-2l1,1ZM220.5,53.5c0,-1,0,-1,0,-1c1,0,1,0,2,0c0,0,1,0,1,0c1,0,1,1,1,1c0,0,-1,1,-1,1c0,0,0,1,0,1c-1,0,-1,0,-1,0c-1,0,-1,0,-1,0l-1,0l1,-1c1,0,2,0,2,0c0,-1,-1,-1,-1,-1l-1,0l-1,0c0,0,0,1,-1,1l0,-1l1,0ZM213.5,63.5l-1,-1l1,-2l1,1ZM214.5,78.5l-4,2c0,0,0,-1,0,-1l4,-2ZM203.5,68.5l0,-1c0,0,1,0,1,0c0,-1,1,-1,1,-1l1,0c0,0,1,0,1,0c0,0,1,0,1,0c0,1,0,1,0,1l0,1l-1,0c0,-1,0,-1,0,-1c-1,0,-1,0,-1,0c-1,0,-1,0,-1,0l-1,0c0,0,0,1,0,1l-1,1l0,1c0,0,0,1,1,1l0,1l0,1c-1,0,-1,1,-1,1c0,-1,0,-1,-1,-1l0,-1c0,-1,-1,-2,-1,-3c0,0,1,-1,1,-1c-1,0,-1,0,-2,0l-1,0l-2,0c-1,0,-1,0,-1,0c0,-1,-1,-1,-1,-1l0,1l0,1c0,1,0,1,-1,1l-1,-1c0,0,0,-1,0,-1l0,-1c-1,0,-1,0,-2,0l0,1c0,0,-1,0,-1,0c0,1,0,1,0,1l0,1c0,1,0,1,0,1l1,2l0,2c0,0,0,1,0,1l0,1l0,1l0,-1l0,-1l-1,0l0,-1l0,-3l0,-1l0,-1l0,-1l0,-1c0,-1,0,-1,1,-2l1,-1l1,-1c1,1,2,1,3,2l1,0l1,0l1,0l1,0c1,0,2,0,2,0l1,0c0,-1,0,-1,0,-1c1,0,1,0,1,0c0,1,0,1,0,1c0,0,-1,0,-1,0c0,1,-1,2,-1,3c0,1,0,2,1,2c0,0,0,-1,0,-1c0,0,0,-1,0,-1c0,-1,0,-1,0,-1ZM204.5,58.5l5,-2l-1,1l-4,2ZM201.5,59.5c0,0,0,-1,0,-1c1,0,1,0,1,0c0,0,1,0,1,0l0,1l0,1l0,1l0,1l-1,-1l0,1l-1,0c0,1,-1,1,-1,1l-1,0l1,-1l1,0l0,-1c0,-1,0,-1,0,-1c0,-1,0,-1,0,-1ZM202.5,59.5c-1,0,-1,0,-1,0l1,1l0,-1ZM192.5,52.5c0,0,1,-1,1,-1l1,0l0,1l0,1l0,1l1,0l-1,1l-1,0l-1,0c0,1,0,1,0,1l-1,0l-1,0l1,0l0,-1c0,0,1,0,1,0l1,-1l-1,0c0,0,0,-1,0,-1c0,0,0,-1,0,-1ZM193.5,52.5l0,1l1,0l-1,0l0,-1ZM273.5,65.5c0,1,0,2,0,2c0,1,0,1,0,1l-1,1l1,1l-1,1c0,0,-1,0,-1,0l0,1c-1,0,-1,0,-2,1l-1,0l-1,1l-1,0l-1,1l0,1l-1,0l-3,0l-1,0l-3,0c0,0,0,-1,0,-1l-1,-1c0,0,-1,0,-1,0c-1,-1,-2,-1,-3,-1l0,-1l-1,0l-1,-1l-1,-1l1,-1l-1,0l0,-1l0,-1l-1,0c0,-1,0,-1,0,-1l0,-1l0,-1c0,0,1,-1,1,-1c0,-1,0,-1,0,-1l1,-1l-1,0l-1,0l1,0c0,0,0,-1,0,-1l1,0l0,-1l1,0l1,-1l1,0l2,-1l1,0l0,-1c1,-1,1,-1,1,-1l3,0l1,0l3,0l1,1l1,0l0,1l1,0l2,1l1,0l1,1l1,1c0,0,1,0,1,1l-1,0l0,1l1,0l0,1l0,1ZM264.5,76.5l1,-1l0,-1l1,0l1,-1c0,0,1,0,1,0l1,0c1,-1,1,-1,1,-1l1,0l0,-1l1,0l0,-1l1,0l-1,0l-1,-1l1,0l0,-1l1,0l0,-1l0,-1l0,-1c0,-1,0,-1,0,-2l-1,-1l0,-1l1,0c-1,-1,-1,-1,-2,-1l0,-1l-1,0l-1,-1l-1,0l-1,-1c-1,0,-1,0,-1,0l-1,-1l0,-1l-1,0l-3,0l-1,0l-3,0l0,1l-1,1c0,0,-1,0,-1,0l-2,1l-1,0l0,1l-1,0l-1,1c0,0,-1,0,-1,1l1,0l0,1l-1,1l0,1l0,1l0,1l0,1l0,1l0,1l1,0c0,1,0,1,0,1l-1,0l1,0l0,1l1,0l0,1l1,0l1,1l1,0l1,0c0,0,1,1,1,1l1,1l0,1l3,0l1,0ZM270.5,61.5l-1,0l0,-1l-1,0l0,-1c-1,0,-1,0,-1,0l0,-1c0,0,0,1,0,1l1,0l1,0c0,1,0,1,0,1l1,0ZM270.5,70.5l0,1l-1,0l0,1l-1,0l-1,0l0,-1l1,0c1,0,1,-1,1,-1l1,0ZM266.5,72.5c0,1,0,1,-1,1c0,0,0,1,-1,1l-3,0l-1,0l-3,0c0,0,0,-1,-1,-1c0,0,0,-1,0,-1l0,-1c0,0,1,0,1,0l3,0l1,0l3,0c1,0,1,0,1,0l1,1ZM266.5,58.5c0,1,0,1,-1,1l-1,1l-3,0l-1,0l-3,0l-1,-1l0,-1l0,-1l1,0l3,0l1,0l3,0c1,0,1,0,1,1c0,0,1,0,1,0ZM264.5,61.5l1,0c0,-1,1,-1,1,-1c1,0,1,1,1,1c0,0,1,0,1,1l1,0l1,0l1,1l0,1l0,1l0,1c0,0,0,1,0,1l0,1c0,0,-1,0,-1,0c0,1,0,1,0,1l-1,0l-1,0l0,1l-1,0l-1,0c-1,0,-1,0,-1,0l-1,0l-3,0l-1,0l-3,0l-1,0l-1,0l-1,0l-1,-1l-1,0l-1,-1l0,-1l0,-1l-1,0l0,-1l1,-1l0,-1l0,-1c1,0,1,0,1,0l1,0l1,-1c1,0,1,-1,1,-1c1,0,1,0,1,1l1,0l3,0l1,0ZM264.5,69.5l1,0l0,1l1,0l1,0l1,0l0,-1c0,-1,1,-1,1,-1l1,1l0,-1l0,-1l1,0l0,-1l0,-1c0,0,0,-1,0,-1c0,-1,-1,-1,-1,-1c0,-1,0,-1,0,-1l-1,0l-1,0l0,-1l-1,0l-1,0l-1,0l-1,0l-3,0l-4,0l-1,0l-1,0c0,0,-1,0,-1,0l0,1l-1,0l-1,0l-1,1l0,1l0,1l0,1l0,1c0,1,1,1,1,2l1,-1l0,1l1,0l0,1l1,0c1,0,1,0,1,0c1,0,1,0,1,-1l3,0l1,0l3,0ZM262.5,68.5l0,-1c0,0,0,-1,0,-1l-1,-1l0,-1l1,1l0,1l1,0l0,-1c1,-1,1,-1,1,-1c0,1,0,1,-1,2l0,1l0,1l-1,0ZM258.5,65.5l1,1l0,1c-1,1,-1,1,-1,1l0,-1c0,0,0,-1,-1,-3l1,0l1,0l1,0l1,0c-1,1,-1,1,-1,1l-1,0l-1,0ZM252.5,61.5l0,-1l1,-1l1,0l1,0l0,-1l0,1c0,0,-1,0,-1,0l0,1l-1,0l-1,1ZM251.5,70.5l1,0c0,0,1,1,1,1l1,0l1,0c0,1,0,1,0,1l-1,0c-1,0,-1,-1,-2,-1l0,-1ZM333.5,64.5c-1,0,-1,0,-1,0c0,1,0,1,0,1l1,0c0,-1,0,-1,0,-1ZM333.5,72.5c-1,0,-1,0,-1,0l-1,0c0,1,-1,1,-1,1l-1,0c0,0,-1,0,-1,-1c-1,0,-1,0,-1,0l0,-1c0,1,0,1,1,1c1,0,1,0,1,0c0,0,1,0,1,0c0,0,0,-1,0,-1c1,0,1,0,1,0c0,0,1,-1,1,-1c0,0,1,0,1,-1l1,-1c0,0,0,-1,0,-1c0,-1,0,-1,0,-1c0,1,0,1,0,1c-1,0,-1,0,-1,0l-1,0c-1,0,-1,0,-1,0c0,-1,0,-1,0,-1c0,-1,0,-1,0,-1c0,-1,0,-1,0,-1c0,0,0,-1,1,-1c0,0,0,-1,0,-1c0,0,1,0,1,0l1,0c0,0,0,1,0,1l1,1l0,1c0,0,0,1,0,1c0,0,0,1,0,1c0,1,-1,2,-1,3l-1,1l0,1ZM330.5,58.5l4,-2l0,1c0,0,-1,0,-1,0l-4,2ZM326.5,68.5l0,-1l0,-1l-1,-9l1,-2l1,11l-1,1c0,0,0,1,0,1ZM310.5,50.5l5,-3l-1,1l0,1l-4,2ZM320.5,50.5c1,0,1,0,1,0c1,0,1,-1,1,-1c1,0,1,1,1,1c1,0,1,0,1,0c0,1,-1,1,-1,1l0,1l-1,0c0,0,-1,0,-1,0l1,-1c0,0,1,0,1,0c0,0,0,-1,0,-1l-1,0c0,0,-1,0,-1,1c0,0,-1,0,-1,0l0,-1ZM307.5,72.5l-1,-1l1,-2l1,1ZM305.5,66.5c0,0,1,0,1,0c1,0,1,0,2,0l0,-1l-1,-1l0,-1l1,-1l0,1l0,1l0,1c0,0,0,1,0,1c0,0,0,1,0,1c-1,0,-1,1,-2,1c0,0,-1,0,-1,0l-1,0l-12,0l0,1c0,0,0,1,0,1l-1,0l0,-1l0,-1l0,-1c-1,0,-1,0,-1,-1l0,1c0,0,-1,0,-1,1c-1,0,-1,0,-1,0l-1,0l-1,0c0,0,0,1,0,1c0,1,-1,1,-1,2c0,0,0,1,-1,1l0,1c-1,0,-1,0,-1,0c-1,0,-1,0,-1,0c-1,1,-1,1,-1,1l-1,0c0,0,-1,-1,-1,-1c-1,0,-1,0,-1,0c0,0,0,-1,0,-1c0,0,0,1,1,1c1,0,1,0,2,-1c0,0,1,0,1,0c0,0,1,-1,1,-1l1,-1l0,-1c0,0,1,0,1,-1l0,-1l-1,0l0,-1c0,-1,0,-1,1,-1l0,1l1,0l1,0l1,0c1,0,1,0,1,0c1,0,1,-1,1,-1l1,-1l0,1c0,0,0,1,0,1c0,0,1,0,1,0l1,0l1,-1l2,-1c0,-1,1,-1,1,-1c1,-1,1,-1,2,-1c1,0,1,0,2,0c0,1,1,1,1,2c0,1,0,1,0,1c0,0,0,1,-1,1l2,0l1,0ZM304.5,57.5c0,0,1,0,1,0c1,0,1,0,1,0c1,0,1,0,2,0l0,1l0,1c0,0,-1,0,-1,0l-1,0l-1,0l-1,0l2,0c1,0,1,-1,2,-1c-1,0,-1,0,-1,0c0,0,-1,0,-1,0c0,0,-1,0,-1,0c0,0,-1,0,-1,0l0,-1ZM301.5,65.5l-1,-1c0,0,-1,0,-1,0c-1,0,-1,0,-1,0l-1,0c0,0,-1,1,-2,1l-2,1l1,0l2,0c1,0,1,0,2,0l1,0c0,0,1,0,1,0c0,0,0,-1,1,-1ZM283.5,52.5c0,0,1,-1,1,-1l1,0l0,1l0,1l0,1l1,0l-1,1l-1,0c-1,1,-1,1,-1,1l-1,0l-1,0l1,0l0,-1c1,0,1,0,1,0l1,-1l-1,0c0,0,0,-1,0,-1c0,0,0,-1,0,-1ZM284.5,52.5l0,1l1,0c0,0,-1,0,-1,-1ZM398.5,68.5l0,-1l0,-1l0,-9l1,-2l0,11l0,1c0,0,-1,1,-1,1ZM390.5,66.5c1,0,1,0,1,0c1,0,1,0,1,0c1,0,1,0,1,0c0,0,0,-1,0,-1l0,-2l0,-6c0,-1,-1,-1,-1,-1c0,0,0,-1,1,-1c0,-1,0,-1,0,-1c0,1,0,1,0,1c1,0,1,1,1,1l0,1l0,1c0,0,0,1,0,1c0,1,0,1,0,3c0,0,0,1,0,1l0,1c0,1,0,1,0,1c0,0,0,1,0,1c0,0,-1,1,-1,1l-1,1c-1,0,-1,0,-1,0l-1,0l-1,0l-1,0c0,0,-1,0,-1,0c-1,0,-1,-1,-2,-1c0,0,-1,1,-1,1c-1,0,-2,0,-2,0l-1,0c0,0,-1,0,-1,0c-1,-1,-1,-1,-1,-2c0,1,-1,1,-1,1c0,1,0,1,0,1l-1,0l-2,0c0,0,0,1,0,1c0,0,0,1,0,1c0,1,-1,1,-1,1c0,1,0,1,-1,1c0,0,0,1,-1,1c0,0,-1,0,-1,0c0,0,-1,0,-1,0c-1,0,-1,0,-2,0l-1,-1c1,0,1,0,1,0c0,0,1,0,1,0c0,0,1,0,1,0c1,0,1,0,2,0c0,-1,0,-1,0,-1c1,0,1,-1,1,-1c0,0,1,0,1,-1c0,-1,0,-1,0,-1l-1,0l-1,0c0,-1,0,-1,0,-1l0,-1l0,-1c0,-1,0,-1,0,-1c1,0,1,0,1,0c0,-1,0,-1,0,-1c0,0,1,0,1,0c1,0,1,1,1,1c0,1,0,1,0,1c0,1,1,1,1,1l1,0c1,0,1,0,1,-1c1,0,1,0,1,0c0,0,0,-1,0,-1l0,-1l-1,-7l1,-2l1,11c0,0,0,1,0,1c1,0,1,0,1,0l1,0l1,0c1,0,1,0,1,0l0,-1c0,-1,0,-1,0,-2c0,0,0,-1,1,-1l0,-1c1,0,1,0,2,0c0,0,1,0,1,0c0,1,0,1,0,2l0,1c0,0,0,1,0,1c0,0,0,1,-1,1c0,0,1,0,1,0c1,0,1,0,1,0ZM391.5,50.5l1,0c0,-1,0,-1,1,-1c0,0,1,0,1,1c1,0,1,0,1,0c0,1,-1,1,-1,1c0,1,0,1,0,1c0,0,-1,0,-1,0c-1,0,-1,0,-1,0l-1,0l2,0c0,0,1,-1,1,-1l-1,0c-1,0,-1,0,-2,0l-1,0c0,0,0,-1,0,-1c1,0,1,0,1,0ZM387.5,60.5l-2,-1l0,1l-2,-1l1,-2l2,1l0,-1l2,1ZM386.5,63.5l-1,0l0,1c0,1,0,1,1,1c0,0,1,0,1,0c0,-1,0,-1,0,-1c0,0,0,-1,0,-1l-1,0ZM386.5,49.5c0,-1,1,-1,1,-1c0,0,0,-1,1,-1c0,0,0,1,0,1l0,1l0,1l1,1l-1,1l-1,-1l-1,1c0,0,0,1,0,1l-1,0l-1,0l1,0l0,-1c0,0,1,0,1,0l0,-1l1,0l-1,0l0,-1l0,-1ZM387.5,49.5l0,1l1,0l0,-1l-1,0ZM378.5,49.5c0,-1,0,-1,1,-1c0,0,0,-1,0,-1l1,0c0,0,0,1,0,1l0,1l0,1l0,1l0,1l-1,-1l-1,1c0,0,0,1,-1,1l-1,0l1,-1c0,0,1,0,1,0l0,-1l1,0l-1,0l0,-1l0,-1ZM379.5,49.5l0,1l0,-1ZM373.5,65.5c0,1,0,1,0,1c0,0,1,0,1,0c0,0,0,-1,0,-1c0,0,-1,0,-1,0ZM354.5,72.5l-1,-1l1,-1l1,1ZM367.5,66.5c-1,1,-1,1,-2,1c0,0,-1,0,-2,1c-1,0,-2,0,-4,0c0,0,-1,0,-1,0c-1,0,-2,0,-2,0c-1,0,-1,0,-1,0c-1,0,-2,0,-2,0c-1,0,-2,0,-3,0c0,0,-1,0,-1,0c-1,0,-1,0,-2,0c-1,0,-1,0,-2,-1c-1,0,-1,0,-2,0c0,-1,-1,-1,-1,-1c0,-1,-1,-1,-1,-1c1,0,1,0,1,0c1,0,1,0,1,1c1,0,2,0,2,0c1,0,1,0,2,0c1,0,1,0,2,1c1,0,1,0,2,0c1,0,1,0,1,0c2,0,3,0,3,0c1,0,1,0,2,0c1,0,2,0,2,0c1,0,1,0,2,-1c0,0,1,0,1,0c0,0,1,0,2,0l1,0l1,-1l1,0c0,-1,0,-1,0,-1c0,-1,0,-1,-1,-1l1,-2c0,0,1,1,1,1c0,0,0,1,0,1l0,1c0,1,0,1,0,1c0,0,0,1,-1,1ZM350.5,52.5c1,0,1,-1,1,-1c0,0,1,0,1,0c0,0,1,0,1,1l0,1l-1,0l0,1l1,0l0,1l-1,0l-1,0c-1,1,-1,1,-1,1l-1,0l-1,0l1,0l1,-1l1,-1l-1,0c0,0,0,-1,0,-1c0,0,0,-1,0,-1ZM352.5,52.5l-1,0l0,1l1,0l0,-1ZM397.5,100.5l1,0c0,0,1,0,1,0c1,0,1,0,1,0c1,0,1,0,1,1c0,0,0,1,-1,1l0,1c0,0,-1,0,-1,0c0,0,-1,0,-1,0l-1,0l2,-1c0,0,1,0,1,-1l-1,0c-1,0,-1,0,-2,0l0,1l0,-1l0,-1ZM366.5,101.5c1,0,1,0,2,0c0,0,1,0,1,0c1,0,1,0,1,1c0,0,-1,1,-1,1l-1,0l0,1c-1,0,-1,0,-1,0l-1,0l1,-1c1,0,2,0,2,-1c0,0,-1,0,-1,0l-1,0l-1,0l-1,0c0,0,0,-1,1,-1ZM342.5,99.5l1,0l1,0c0,0,1,0,1,0c1,0,1,0,1,1l-1,1c0,0,-1,0,-1,0c0,0,0,1,0,1c-1,0,-1,0,-1,0l-1,0l2,-1c0,0,1,0,1,-1l-1,0c-1,0,-1,0,-2,0l-1,0l1,0c0,0,0,-1,0,-1ZM187.5,102.5c0,0,1,-1,1,-1c1,0,1,0,1,0c1,0,1,0,2,0c0,1,0,1,0,1c0,1,0,1,0,1c0,0,-1,1,-1,1c0,0,-1,0,-1,0l-1,0l-1,0l2,0c1,-1,1,-1,2,-1c-1,0,-1,-1,-1,-1c0,0,-1,0,-1,0c0,0,-1,0,-1,1c0,0,-1,0,-1,0c0,-1,0,-1,0,-1ZM250.5,102.5l0,-1c1,0,1,0,1,0c1,0,1,0,1,0c0,0,0,1,0,1l0,1c0,0,0,1,0,1l0,1l-1,0l-1,1l-1,0l0,1l-1,0l0,-1l1,0c0,0,0,-1,1,-1l0,-1c0,0,0,-1,0,-1l0,-1ZM251.5,102.5c0,0,-1,0,-1,0c0,0,0,1,1,1ZM298.5,121.5l0,-1c0,0,0,-1,0,-1c0,-1,0,-1,0,-2l0,-1c0,0,1,1,1,1c0,1,0,1,0,1l0,1c0,0,0,1,0,1c0,0,0,1,-1,1ZM283.5,113.5l0,-1l1,0c1,-1,1,-1,1,-1l0,-1l0,-1l-1,-1l0,-1c0,-1,0,-1,0,-1l1,0l0,1l0,1l0,1l0,1l0,1l1,0l0,-1c1,0,1,0,1,0l1,0c1,0,1,0,1,0l0,1l-1,1c-1,0,-1,0,-2,1l-1,0ZM287.5,111.5l-1,0l-1,0l0,1c1,0,1,0,1,0l1,0c0,0,1,-1,1,-1c0,0,-1,0,-1,0ZM56.5,112.5c0,1,0,1,0,2l0,1l-1,0c0,0,0,1,0,1l1,0l0,1l-1,0l0,1c-1,0,-1,0,-1,0l-1,1l-1,0l-1,1l-1,0l-1,0l-1,1l0,1l-1,0l-3,0l-1,0l-3,0l-1,0l0,-1c-1,-1,-1,-1,-1,-1c-1,0,-2,-1,-3,-1l-1,0l0,-1l-1,0l-1,-1l0,-1l-1,0l1,0l1,0l-1,-1l-1,-1l0,-1l0,-1l0,-1l0,-1l1,-1l0,-1l1,0l-1,-1l-1,0c0,0,1,0,1,0l0,-1l1,0l1,0l0,-1l1,0l1,-1l2,-1l1,0l0,-1c1,0,1,-1,1,-1l3,0l1,0l3,0l1,1l1,1l1,0l1,1l1,0l0,1c1,0,1,0,1,0l1,0l0,1l1,0c0,0,1,1,1,1l-1,1l1,1l0,1l0,1ZM47.5,122.5l1,0l0,-1l1,-1l1,0c0,0,1,0,1,-1l1,0c0,0,1,0,1,-1l1,0c0,-1,0,-1,0,-1l1,0l1,-1l-1,0l-1,0l1,-1l1,-1l0,-1l0,-1c0,-1,0,-2,0,-2c0,-1,0,-1,0,-1l-1,0c0,0,0,-1,0,-1l0,-1l1,0c-1,0,-1,-1,-2,-1l-1,-1l-1,0l-1,-1l-1,0c-1,0,-1,-1,-1,-1l-1,-1c0,0,-1,0,-1,0l-3,0l-1,0l-3,0l-1,0l0,1c-1,0,-1,1,-1,1l-2,0l-1,1l-1,0l0,1l-1,0c0,0,-1,1,-1,1l1,0l0,1l-1,0l0,1l0,1l0,1l-1,0l0,1l0,1l1,0l0,1c0,1,0,1,0,1l1,0l0,1l-1,0l0,1l1,0l1,1l1,1l1,0l1,0l1,1c0,0,1,0,1,0l0,1l1,0c0,1,0,1,0,1l3,0l1,0ZM53.5,107.5l-1,0l-1,-1l-1,0l0,-1l1,0l1,1l1,0l0,1ZM53.5,117.5l-1,0l0,1l-1,0l0,1l-1,0l0,-1l1,0l0,-1c1,0,1,0,1,-1l1,0l0,1ZM49.5,119.5l-1,1l-1,0l-3,0l-1,0l-3,0c0,0,-1,0,-1,0c0,0,0,-1,0,-1c0,-1,0,-1,0,-1c0,0,1,0,1,-1l3,0l1,0l3,0c1,0,1,0,1,1l1,0ZM49.5,105.5l-1,1l-1,0l-3,0l-1,0l-3,0c0,0,-1,0,-1,0l0,-1c0,0,0,-1,0,-1l1,0l3,0l1,0l3,0c1,0,1,0,1,0l1,0l0,1ZM47.5,107.5l1,0c0,0,1,0,1,0c1,0,1,0,1,0c0,0,1,1,1,1l1,1l1,-1l0,1l1,0l0,1l0,1l0,1l0,1l0,1c0,0,-1,1,-1,1l-1,0l-1,0l0,1l-1,0l0,1l-1,0c-1,0,-1,0,-1,0c0,-1,0,-1,0,-1l-1,0l-3,0l-1,0l-3,0l-1,0c0,1,0,1,0,1l-1,0l-1,-1l-1,0l0,-1l-1,0l-1,0l0,-2l-1,0l0,-1c0,-1,0,-1,0,-1c1,0,1,-1,1,-1l0,-1c0,-1,1,-1,1,-1l1,1c0,0,0,-1,0,-1l1,0l0,-1c1,0,1,0,1,0c1,0,1,0,1,0l1,0l3,0l1,0ZM47.5,116.5l1,0l1,0l1,0l1,0l0,-1c0,0,1,0,1,0l1,0l0,-1l1,-1l0,-1c0,-1,0,-1,0,-2c0,0,-1,-1,-1,-1l0,-1l-1,1l-1,0l0,-1l-1,0l0,-1l-1,0c0,0,-1,0,-1,0l0,1l-1,0l-3,0l-4,0l-1,-1l-1,0c0,0,-1,0,-1,0l0,1l-1,0c0,1,0,1,0,1l-1,-1c0,0,0,1,-1,1l0,1l0,1l0,1l0,1l0,1c0,0,1,1,1,1l1,0l1,1l1,0c1,0,1,0,1,0c1,0,1,0,1,0l3,0l1,0l3,0ZM45.5,110.5l1,0l0,1l0,1l0,1l1,0l0,1l-1,0l0,-1l0,-1l-1,0c0,0,0,1,0,1l-1,0l0,1l0,-1l1,-1l0,-1l0,-1ZM41.5,111.5l1,1l0,1l0,1l-1,0c0,-1,0,-2,-1,-3l1,-1l0,1l1,0c0,0,0,-1,0,-1l1,0c0,1,0,1,0,1l0,-1c1,0,1,0,1,0c0,0,0,1,0,1c-1,0,-1,0,-1,0l-1,0l-1,0ZM34.5,107.5l1,0l0,-1l1,0l0,-1l1,0l1,0c0,1,0,1,0,1c-1,0,-1,0,-1,0c0,0,-1,0,-1,0l0,1l-1,0ZM34.5,117.5l1,-1c0,1,1,1,1,1l1,1l1,0l0,1l-1,0c-1,-1,-1,-1,-2,-2l-1,0ZM110.5,112.5l-2,0c0,0,-1,0,-2,0l-1,0l-1,0l-1,1c0,0,-1,0,-1,0c-1,1,-1,1,-1,1c-1,0,-2,0,-3,0l-1,0l-1,0c0,-1,0,-1,0,-1c0,0,0,-1,-1,-1l0,1l-1,1l-1,0c0,0,-1,0,-1,-1l-1,0c0,1,-1,1,-1,1c-1,0,-2,0,-2,-1l-1,1c0,0,-1,0,-1,0l-1,0l-1,0c-1,0,-2,0,-2,0c-1,-1,-1,-1,-1,-2l-1,-9l1,-2l1,10l0,1c1,0,1,1,2,1l1,0l1,0l1,-1c0,0,1,0,1,-1l1,0l0,1l1,1c0,0,1,-1,1,-1c0,0,1,0,1,-1c0,0,1,0,1,1l1,0c1,0,1,0,1,-1l1,0c0,1,1,2,1,2l1,0c1,0,1,0,1,0c1,0,1,-1,2,-1c0,0,1,0,1,0l2,-1l-1,0l-1,-1l-1,0l-1,0l-1,0c0,0,0,-1,1,-1c0,0,0,-1,0,-1c1,0,1,0,1,0c1,0,1,0,1,0l1,0l0,1l2,0l1,1c0,0,1,0,1,0c0,0,1,0,1,0c1,0,1,0,1,0l2,0ZM103.5,117.5l-5,3c1,-1,1,-1,1,-1l4,-3ZM91.5,101.5l4,-2l0,1l-1,0l-4,2ZM70.5,119.5l-1,-1l1,-2l1,1ZM77.5,112.5c0,1,-1,1,-1,1c-1,1,-2,1,-4,1c-1,1,-2,1,-3,1c-2,0,-3,0,-4,0c-1,-1,-2,-1,-2,-1c-1,-1,-1,-1,-1,-2c0,0,0,-1,0,-1c0,-1,0,-1,0,-1c0,-1,1,-1,1,-2l1,1c-1,0,-1,0,-1,0c0,1,0,1,0,1c0,1,0,1,0,1c0,1,1,1,2,2l1,0l1,0l1,0l2,0c0,0,1,0,2,0c1,0,1,0,1,-1l1,0c1,0,2,0,2,0c1,-1,1,-1,2,-1l-1,-1c0,-1,0,-1,0,-1l0,-1c0,0,0,-1,0,-1c1,0,1,1,1,1c0,0,0,1,0,1l0,1c0,0,0,1,0,1c0,1,0,1,-1,1ZM63.5,125.5l5,-3c0,1,-1,1,-1,1c0,0,0,1,0,1l-5,2ZM64.5,122.5l5,-3c0,1,0,1,0,1l-5,3ZM141.5,118.5l-1,-1l0,-1l2,1ZM139.5,114.5l-1,0l-1,0c0,0,-1,0,-1,0c0,0,-1,0,-1,0c0,0,-1,-1,-1,-1c-1,0,-1,0,-1,0c-1,1,-1,1,-2,1l-1,0l-1,0c0,0,-1,0,-1,0l-1,0l0,-1c0,0,-1,0,-1,0c0,0,0,-1,0,-1l0,-1l0,1l-1,0c0,0,-1,1,-1,1l-1,0l0,1c0,1,0,1,-1,2c0,0,0,1,0,1l-1,0c0,1,0,1,0,1l-1,0l0,1c-1,0,-1,0,-1,0c0,0,-1,0,-1,0l-1,0c0,0,-1,0,-1,0c0,0,0,-1,-1,-1c0,0,1,0,1,0l1,0l1,0l1,0l0,-1c1,0,1,0,1,-1c1,0,1,0,1,-1c0,0,1,-1,1,-1c0,0,0,-1,0,-1l0,-2l1,0c0,0,1,0,1,0c0,0,1,0,1,0c0,-1,0,-1,0,-1c0,0,1,0,1,0l0,-1l1,0c0,0,0,1,0,1l0,1c0,0,0,1,0,1c1,0,1,0,1,0c0,1,0,1,0,1c1,0,1,0,1,0l1,0l1,0c0,0,0,-1,0,-1c0,0,1,0,1,0l1,0c-1,-1,-1,-1,-1,-1c0,0,-1,0,-1,0l-1,0l1,-1c0,-1,0,-1,0,-1c1,0,1,-1,1,-1c1,0,1,0,1,0c1,0,1,0,2,0c0,0,0,1,0,1c1,0,1,0,1,0c0,1,0,1,0,1l0,1c-1,0,-1,0,-1,1l1,0l0,1c1,0,1,0,1,0l1,0l1,0c0,0,1,0,1,-1c1,0,1,0,1,0l0,-1l0,-1l-1,0l1,-2l0,1l1,0l0,1l0,1l0,1c0,0,0,1,0,1c0,0,-1,0,-1,0c0,1,0,1,-1,1c0,0,-1,0,-1,0ZM140.5,120.5l-4,2c1,0,1,-1,1,-1l4,-2ZM133.5,107.5l-1,-1l1,-2l1,1ZM130.5,101.5l5,-2l-1,1l-4,2ZM127.5,117.5l-1,-1l-1,2l-1,-1l0,-2l2,1l1,-1l1,1ZM123.5,104.5c1,-1,1,-1,1,-1c1,0,1,0,2,0c0,0,1,0,1,0c0,0,1,1,1,1c-1,0,-1,1,-1,1l-1,1c-1,0,-1,0,-1,0l-1,0l1,-1c1,0,1,0,2,-1c0,0,-1,0,-1,0l-1,0c0,0,-1,0,-1,0l-1,1l0,-1ZM121.5,120.5l-4,2c0,0,1,-1,1,-1l3,-2ZM179.5,119.5l-1,-1l-1,1l-1,-1l1,-1l1,1l1,-2l1,1ZM176.5,113.5c1,0,1,0,1,0c1,0,1,0,1,-1l0,-1c0,-1,-1,-1,-1,-2c0,0,-1,0,-1,0c0,-1,0,-1,0,-1c0,-1,0,-1,0,-1c1,0,1,0,1,1c1,0,1,0,1,1c0,0,1,1,1,1c0,1,0,1,0,1c0,1,0,1,0,1c0,1,0,1,0,1c0,0,-1,0,-1,0c0,0,0,1,0,1c0,0,-1,0,-1,0l-1,0l-1,0l-1,0c0,-1,0,-1,0,-1c0,0,0,-1,0,-1l-1,1l0,1c-1,0,-1,0,-2,0c0,0,-1,0,-1,-1l-1,0c0,1,0,1,-1,1c-1,0,-2,0,-2,-1l0,1c-1,0,-2,0,-2,0l-1,0l-1,0c-1,0,-2,0,-2,0c-1,-1,-1,-1,-1,-2l0,-9l1,-2l0,10l0,1c1,0,1,1,2,1l1,0l1,0l1,0l0,-1c1,0,1,0,2,-1l0,1l1,1c0,0,1,-1,1,-1c0,0,1,0,1,-1l1,0l0,1l1,0l1,0l0,-1l1,0c0,1,1,2,2,2ZM169.5,106.5l-2,-1l1,-1l2,1ZM171.5,109.5l-2,-1l-1,1l-1,-1l1,-1l1,1l1,-2l1,1ZM164.5,101.5l4,-2l0,1l-4,2ZM157.5,98.5c0,0,1,0,2,1c0,0,1,0,1,0l1,0l1,-1c0,1,-1,1,-1,1l-1,0l0,1l-1,0c0,0,-1,0,-1,0l0,-1l-1,0l-1,0c0,0,0,-1,1,-1ZM151.5,112.5l0,-1c1,0,1,-1,1,-1l1,0l1,0l0,1l0,1l-1,0l0,-1c-1,0,-1,1,-1,1l0,1c1,0,1,0,1,0c1,0,1,0,1,0c0,0,1,0,1,0c0,1,0,1,0,1l-5,2c0,-1,0,-1,1,-1l0,-1c1,0,1,0,1,0c0,0,-1,0,-1,-1c0,-1,0,-1,0,-1ZM153.5,102.5c0,0,0,-1,0,-1c1,0,1,0,1,0c1,0,1,0,1,1l0,1c0,0,-1,0,-1,0l1,1l0,1l-1,-1l-1,1c0,1,-1,1,-1,1l-1,0c0,0,-1,0,-1,0l1,0l1,-1l1,0l0,-1c-1,-1,-1,-1,-1,-1c0,-1,0,-1,1,-1ZM154.5,102.5l-1,0l0,1l1,0l0,-1ZM203.5,114.5l-1,0l-1,0c0,0,0,-1,0,-1l-1,0l-1,0c0,1,0,1,0,1l-1,0l-1,0l-2,0c0,0,1,1,1,1l0,1c0,1,-1,2,-1,2c0,1,-1,1,-1,2c-1,0,-1,1,-2,1c-1,0,-2,0,-2,0c-1,0,-1,0,-2,0c-1,0,-1,0,-2,-1l-1,-1c0,0,0,-1,0,-2c0,-1,0,-1,0,-1l0,-1c0,0,1,0,1,0c0,0,0,-1,0,-1l1,0c0,0,-1,0,-1,1c0,1,0,1,0,1l0,1l0,1c0,0,1,0,1,1c1,0,1,0,1,0c0,0,1,0,2,0c1,0,2,0,2,0c1,0,2,-1,2,-1l1,-1l0,-1l0,-1c0,0,-1,0,-1,0c0,-1,0,-1,0,-1l0,-1l0,-2c0,0,0,1,1,1c0,0,0,1,1,1l1,0l1,0c0,0,1,0,1,0l0,-1l1,-1c0,-1,1,-1,1,-1l0,-1c0,0,1,0,1,0c0,0,1,0,1,0c0,1,0,1,0,2l1,0l0,1c0,0,0,1,0,1l-1,0c0,0,0,1,0,1ZM201.5,112.5l1,0c0,-1,0,-1,0,-1c-1,0,-1,0,-1,0l0,1ZM198.5,101.5l4,-2l0,1l-4,2ZM190.5,112.5l-1,-1l1,-1l1,1ZM241.5,117.5l-2,0l0,1l-2,-1l1,-1l1,0l1,-1l2,1ZM238.5,114.5l-1,0l-1,0c0,0,0,1,0,1c0,1,-1,2,-1,2c0,1,0,1,-1,1c0,0,0,1,0,1c-1,0,-1,0,-1,1c-1,0,-1,0,-1,0c-1,0,-1,0,-1,0l-1,0c0,0,-1,0,-1,0c-1,-1,-1,-1,-1,-1l1,0c1,0,1,0,2,0c0,0,1,0,1,-1c0,0,1,0,1,0c0,-1,0,-1,1,-1c0,0,0,-1,0,-1c0,0,1,-1,1,-1c0,-1,0,-1,0,-1l-1,-1c0,-1,0,-1,0,-1l1,0c0,0,0,-1,0,-1l0,1l1,0c0,0,0,1,0,1l1,0l1,0c0,0,1,0,1,-1c1,0,1,0,1,0c0,0,1,0,1,0c0,0,0,-1,0,-1c-1,0,-1,0,-1,0c0,-1,0,-1,0,-1l0,-2c1,0,1,0,1,1c0,0,0,1,0,1c0,0,0,1,0,1l0,1c0,0,0,1,0,1c-1,1,-1,1,-2,1c0,0,-1,0,-1,0ZM238.5,101.5l4,-2l-1,1l-4,2ZM230.5,104.5c1,-1,1,-1,1,-1c1,0,1,0,2,0c0,0,1,0,1,0c0,0,1,1,1,1c-1,0,-1,1,-1,1l-1,1l-1,0l-1,0l1,-1c1,0,1,0,2,-1c0,0,-1,0,-1,0c0,0,-1,0,-1,0c0,0,-1,0,-1,0c0,0,-1,0,-1,1l0,-1ZM227.5,107.5l-1,-1l1,-2l1,1ZM221.5,118.5c0,-1,0,-1,0,-1c0,0,1,0,1,1l1,0c0,0,1,-1,2,-1c1,-1,1,-1,2,-1c0,-1,1,-1,1,-2l0,-1c0,0,0,-1,0,-1l0,-1l-1,0c0,-1,0,-1,0,-1l1,-1c0,0,1,1,1,2l0,1l0,1c0,0,0,1,0,1c0,1,0,1,0,1l-1,0c0,1,0,1,0,1c0,1,-1,1,-1,1c0,0,0,1,-1,1c-1,0,-1,0,-1,0c-1,0,-1,0,-1,0l-1,0c0,0,-1,0,-1,0l-1,0ZM226.5,99.5c0,-1,0,-1,1,-1c0,-1,0,-1,0,-1c1,0,1,0,1,0c0,1,0,1,0,1c0,1,0,1,0,1l0,1l0,2l-1,-1l-1,1c0,0,0,1,-1,1l-1,0l0,-1l1,0l1,-1l0,-1l0,-1ZM227.5,99.5l0,-1c0,0,-1,1,-1,1l1,0l0,1l0,-1ZM220.5,104.5l-2,-1l0,2l-2,-1l1,-2l1,1l1,-1l2,1ZM210.5,113.5c0,-1,0,-1,1,-2c0,0,0,-1,0,-2c1,0,1,-1,1,-1l0,1l0,1c-1,1,-1,1,-1,2c0,0,0,1,1,1c0,1,0,1,0,1l1,0c1,1,1,1,2,1l1,0c1,0,1,0,2,-1l1,0c0,0,1,-1,1,-1l1,0c0,-1,0,-1,0,-1c0,-1,0,-1,0,-1c0,-1,0,-1,0,-1c-1,0,-1,0,-1,0c-1,1,-1,1,-1,1c-1,0,-1,0,-1,-1c-1,0,-1,0,-1,0c0,0,0,-1,0,-1c0,-1,0,-1,0,-1c0,-1,0,-1,0,-1c1,0,1,-1,1,-1c0,0,1,-1,1,-1c1,0,1,0,1,1c1,0,1,1,1,1c0,1,0,1,0,1c0,0,0,1,1,1c0,0,0,1,0,2c0,0,0,1,0,1l-1,0c0,0,0,1,0,1l0,1c0,0,-1,1,-3,2c-1,0,-2,1,-3,1c-1,0,-1,0,-1,0c-1,0,-1,0,-2,-1c0,0,-1,0,-1,-1c-1,0,-1,-1,-1,-2ZM218.5,108.5c0,0,1,0,1,0l1,0c0,0,-1,0,-1,0c0,-1,0,-1,0,-1c-1,0,-1,0,-1,0c0,0,0,1,0,1ZM215.5,95.5l0,-1c1,0,1,0,1,0c1,0,1,1,1,1l0,1c0,0,-1,0,-1,1l1,0l0,1l-1,0l-1,0l0,1c0,0,-1,0,-1,0l-1,0c0,0,-1,0,-1,0l1,0l1,-1l1,0l0,-1c0,0,-1,-1,-1,-1c0,0,0,-1,1,-1ZM216.5,95.5l-1,0l0,1l1,0l0,-1ZM272.5,110.5l0,1l1,0c0,-1,0,-1,-1,-1ZM272.5,118.5l0,1c0,0,-1,0,-1,0c0,0,-1,0,-1,0l-1,0c0,0,-1,0,-2,0c0,0,0,-1,0,-1l1,0c1,0,1,0,1,0l1,0c0,0,1,0,1,-1c0,0,1,0,1,0c0,-1,1,-1,1,-1c0,0,0,-1,0,-1c1,-1,1,-1,1,-2l-1,0c0,0,0,1,-1,1c0,0,0,-1,0,-1l-1,0l0,-1c0,-1,0,-1,0,-1c0,-1,0,-1,0,-2c1,0,1,0,1,0c0,-1,1,-1,1,-1l1,1c0,1,0,1,0,1c1,0,1,1,1,1c0,1,0,1,0,2c0,1,-1,2,-1,3c0,1,-1,1,-1,1c0,0,0,1,-1,1ZM270.5,105.5l4,-3l-1,1l0,1l-4,2ZM266.5,114.5l0,-1l0,-1l-1,-8l1,-3l1,11l0,1c0,0,-1,0,-1,0c0,1,0,1,0,1ZM261.5,114.5c-1,0,-1,0,-2,-1l-1,-1c0,0,0,1,0,1c-1,1,-1,1,-2,1c-1,0,-1,0,-2,0c0,-1,0,-2,-1,-3l0,1c0,0,0,1,0,1c-1,0,-1,0,-2,0c-1,0,-1,0,-1,0c-1,0,-1,0,-1,0c0,-1,0,-1,0,-1c0,0,0,-1,1,-1c0,0,0,-1,0,-1c1,0,1,-1,2,-1l1,0l0,-1l0,-1c1,0,1,-1,1,-1l0,1l0,1l0,3c1,1,1,1,1,1c0,0,1,0,1,0c0,0,1,0,1,0c0,0,1,-1,1,-1c0,-1,0,-1,0,-2c0,-1,0,-1,-1,-2l0,-1l1,-1l0,-1l0,3l1,1l0,2l0,1c0,0,1,1,1,1l1,0c0,0,1,0,1,0c0,0,0,-1,0,-1c0,0,0,-1,0,-1l-1,-2l0,-1l0,-1l0,-1l0,-1c1,1,1,1,1,2l0,1l0,2c1,0,1,1,1,1c0,1,-1,2,-1,2c0,1,0,1,0,1c-1,1,-1,1,-1,1ZM253.5,109.5l0,1c0,0,-1,0,-1,0c-1,1,-1,1,-1,1c0,0,1,0,2,0ZM329.5,105.5l-2,-1l1,-2l1,1ZM331.5,112.5l0,1c0,0,-1,0,-1,1c0,0,-1,0,-2,0c0,0,-1,0,-1,0l-1,0l-12,0c0,1,0,1,0,1c0,1,0,1,0,2c0,0,0,-1,0,-1l-1,0c0,-1,0,-1,0,-1l0,-1c-1,0,-1,-1,-1,-1c0,1,-1,1,-1,1c0,0,-1,0,-1,0l-1,0c0,0,-1,0,-1,0c-1,0,-1,0,-1,-1c0,0,0,1,0,1c0,1,-1,1,-1,1c0,1,0,1,0,1l-1,0c0,0,-1,0,-1,0c0,-1,0,-1,-1,-1l0,-1l-1,0c0,-1,0,-1,0,-1c0,-1,0,-1,0,-2l0,1c-1,0,-1,0,-1,0c0,0,0,1,-1,1l-1,0l-1,0l0,-2c0,0,0,-1,1,-1c0,0,0,-1,1,-1c1,-1,1,-1,1,-1l0,-1l1,-1l0,1c0,1,0,1,1,2c0,1,0,1,0,2c0,1,0,1,0,1c0,1,0,1,0,1c1,0,1,0,1,0c0,1,0,1,1,1c0,0,1,0,1,0c0,-1,0,-2,0,-3c0,0,0,-1,0,-2c0,0,0,-1,0,-1c-1,-1,-1,-2,-1,-3c0,-1,0,-2,0,-3l1,-2l1,11l0,1l1,0c0,0,0,1,0,1c1,0,1,0,1,0l1,0c1,-1,1,-1,1,-1c1,0,1,0,1,0c0,0,0,-1,1,-1c0,1,0,1,0,1c0,1,1,1,1,1l1,-1l1,0l0,-1l2,-1c0,0,1,-1,1,-1c1,0,1,0,2,0l0,-1c1,0,2,1,2,1c0,0,1,1,1,1l0,1c0,1,0,1,-1,1l0,1l1,0l1,0l1,0l1,0c1,0,1,0,1,-1c1,0,2,0,2,0l1,-1c0,-1,-1,-1,-1,-1c0,1,0,1,0,1l-1,0c-1,0,-1,0,-1,0c-1,-1,-1,-1,-1,-1l0,-1l0,-1l0,-1c1,0,1,0,1,0c0,-1,1,-1,1,-1c0,0,1,0,1,0c0,0,0,1,1,1l0,1l0,1c0,1,0,1,0,2c0,0,0,1,0,1ZM328.5,108.5l0,1l1,0c0,0,1,0,1,0c0,0,0,-1,0,-1l-1,0l-1,0ZM327.5,98.5l4,-2l0,1l-4,2ZM319.5,105.5l-1,1l-1,-1l0,-1ZM323.5,112.5c0,-1,0,-1,-1,-1c0,-1,-1,-1,-1,-1c-1,0,-1,0,-1,0l-1,0l0,1c0,0,-1,0,-2,0l0,1l-1,1l1,0l1,0c1,0,1,0,2,0l1,-1c0,0,1,0,1,0l1,0ZM313.5,99.5c0,0,1,0,1,0c1,0,1,-1,1,-1c1,0,1,1,2,1l0,1l0,1c0,0,-1,0,-1,0c0,0,-1,0,-1,0l-1,0l-1,0l2,0c1,0,1,-1,2,-1c-1,0,-1,0,-1,0c0,0,-1,0,-1,0c0,0,-1,0,-1,0c0,0,-1,0,-1,0l0,-1ZM306.5,120.5l-4,2c0,0,0,-1,0,-1l4,-2ZM301.5,109.5l-1,1c-1,0,-1,1,-1,1l1,0l1,0l1,-1ZM356.5,114.5l-1,0l-1,0c0,0,0,-1,0,-1l-1,0l-1,0c0,1,0,1,0,1l-1,0l-1,0l-2,0c1,0,1,1,1,1l0,1c0,1,-1,2,-1,2c0,1,-1,1,-1,2c-1,0,-1,1,-2,1c-1,0,-2,0,-2,0c-1,0,-1,0,-2,0c-1,0,-1,0,-2,-1l-1,-1c0,0,0,-1,0,-2c0,-1,0,-1,0,-1l0,-1c0,0,1,0,1,0c0,0,0,-1,0,-1l1,0l-1,1c0,1,0,1,0,1l0,1l0,1c0,0,1,0,1,1c1,0,1,0,1,0c0,0,1,0,2,0c1,0,2,0,2,0c1,0,2,-1,2,-1l1,-1l0,-1l0,-1l-1,0c0,-1,0,-1,0,-1l0,-1l0,-2c0,0,1,1,1,1c0,0,0,1,1,1l1,0l1,0c0,0,1,0,1,0l0,-1l1,-1c0,-1,1,-1,1,-1l0,-1c0,0,1,0,1,0c0,0,1,0,1,0c0,1,0,1,0,2l1,0l0,1c0,0,0,1,0,1c-1,0,-1,1,-1,1ZM354.5,112.5l1,0c0,-1,0,-1,0,-1c-1,0,-1,0,-1,0l0,1ZM352.5,100.5l0,1l1,0l0,-1l0,-1l1,1c0,0,1,0,1,0l0,-1l0,1l0,1l-1,0l-1,0l0,1c0,0,-1,0,-1,0l-1,-1l1,0l0,-1ZM355.5,117.5l-4,3c0,-1,0,-1,0,-1l4,-3ZM343.5,112.5l-1,-1l1,-1l1,1ZM420.5,110.5l0,1c0,0,1,0,1,0c0,-1,-1,-1,-1,-1ZM420.5,118.5l0,1c-1,0,-1,0,-1,0c-1,0,-1,0,-2,0c0,0,-1,0,-2,0c0,0,0,-1,-1,-1c0,0,1,0,1,0l1,0c0,0,1,0,1,0l1,0c0,0,1,0,1,-1c0,0,1,0,1,0c0,-1,0,-1,1,-1c0,0,0,-1,0,-1c1,-1,1,-1,1,-2l-1,0c0,0,-1,1,-1,1c0,0,0,-1,0,-1l-1,0l0,-1c0,-1,0,-1,0,-1c0,-1,0,-1,0,-2c0,0,1,0,1,0c0,-1,0,-1,1,-1l0,1c1,0,1,0,1,0c0,1,0,1,0,1c0,0,0,1,0,1c1,1,1,1,1,2c-1,1,-1,2,-1,3c0,1,-1,1,-1,1c0,0,0,1,-1,1ZM417.5,105.5l5,-3l-1,1l0,1l-4,2ZM415.5,117.5l-2,0l-1,1l-1,-1l1,-1l1,0l1,-1l1,1ZM412.5,114.5l-1,0l-1,0c0,0,0,1,0,1c-1,1,-1,2,-1,2c0,1,-1,1,-1,1c0,0,0,1,-1,1l-1,1c-1,0,-1,0,-1,0l-1,0c0,0,-1,0,-1,0c-1,-1,-1,-1,-1,-1l1,0c1,0,1,0,2,0l1,-1l1,0c0,-1,0,-1,0,-1c1,0,1,-1,1,-1c0,0,0,-1,1,-1c0,-1,0,-1,0,-1c-1,0,-1,0,-1,-1c0,-1,0,-1,0,-1c0,0,0,-1,0,-1l1,0l0,1c1,0,1,1,1,1l1,0l1,0c0,0,1,0,1,-1c1,0,1,0,1,0c0,0,0,-1,0,-1c0,-1,0,-1,0,-1l-1,0l1,-2l1,1c0,0,0,1,0,1c0,0,0,1,0,1l0,1c0,0,0,1,0,1l-1,0c0,1,0,1,-1,1c0,0,-1,0,-1,0ZM412.5,101.5l4,-2l0,1l-1,0l-4,2ZM408.5,109.5l-1,-1l1,-1l1,1ZM409.5,124.5l-4,3c0,-1,0,-1,0,-2l4,-2ZM402.5,117.5l-1,0l-1,1l-2,-1l1,-1l2,0l0,-1l2,1ZM399.5,114.5l-1,0l-2,0c-1,0,-1,0,-1,0l0,-1l-1,0c0,0,0,-1,0,-1l0,1l-1,0c0,1,-1,1,-1,1c-1,0,-1,0,-2,0l-1,0c0,0,-1,0,-1,0c0,-1,0,-1,0,-1l0,-1l0,-1c0,1,0,1,0,1l1,0l1,0l1,0c1,0,1,0,1,0l1,0c0,0,1,0,1,-1l0,-1l-1,-2l0,-1l1,-1l0,-1l0,2c0,0,1,0,1,1l0,2c0,1,0,1,0,1c0,1,0,1,0,1l1,0l0,1l2,0l1,0c1,0,1,0,2,-1c0,0,1,0,1,0c0,0,0,-1,0,-1c-1,-1,-1,-1,-1,-1l1,-2l0,1c0,0,0,1,0,1c0,0,1,0,1,0c0,0,0,1,0,1l0,1c0,0,-1,0,-1,0c0,0,0,1,0,1c0,1,-1,1,-1,1c-1,0,-1,0,-2,0ZM390.5,101.5l4,-2l-1,1l-4,2ZM384.5,114.5l-1,0c0,0,-1,0,-1,-1c-1,0,-1,0,-2,0l-1,0c0,0,0,1,0,1c-1,0,-1,0,-1,0c0,0,-1,0,-1,0c0,0,-1,0,-1,0c0,0,-1,0,-1,0l-2,0c-1,0,-1,0,-2,0l0,1l0,1c0,0,-1,1,-1,1c0,0,0,-1,-1,-1c0,-1,0,-1,0,-2l-1,-1l-1,1l-1,0l0,1l0,1l0,1l0,2l1,1l0,1c0,1,0,1,0,2l0,1l-1,0l0,-1l0,-1l0,-1l0,-3l-1,-1l0,-1l0,-1l0,-1c1,0,1,-1,1,-1l1,-1l1,0l0,-1l1,0l0,-1c1,1,1,2,2,2l2,1l1,0l2,0c0,0,1,0,1,0c0,-1,0,-1,1,-1l0,-1c0,-1,0,-1,0,-1l0,-1c1,0,1,0,1,0c0,-1,0,-1,0,-1c0,-1,0,-1,0,-1c0,0,1,-1,1,-1c0,0,1,1,2,1c0,1,1,1,1,2c1,0,1,1,1,1c0,0,0,1,1,1l0,1c0,1,-1,1,-1,1c0,1,0,1,0,1ZM380.5,109.5l-1,0c0,1,0,1,0,1c0,1,0,1,0,1l1,0c1,0,1,0,1,-1l-1,0c0,-1,0,-1,0,-1ZM382.5,110.5c0,0,0,1,0,1c0,0,-1,0,-1,1l2,0l1,0l-1,-1c0,-1,-1,-1,-1,-1ZM377.5,95.5l0,-1c0,0,1,0,1,0c1,0,1,1,1,1l0,1c0,0,-1,0,-1,1l1,0l0,1l-1,0l-1,0l0,1c-1,0,-1,0,-1,0l-1,0c-1,0,-1,0,-1,0l1,0l1,-1l1,0l0,-1c-1,0,-1,-1,-1,-1c0,0,0,-1,1,-1ZM378.5,95.5l-1,0l0,1l1,0l0,-1ZM175.5,98.5l0,1c0,0,1,0,1,0l0,-1c0,1,0,1,0,1c1,0,1,0,1,0l0,-1l0,-1l1,0l0,1l0,1c0,1,-1,1,-1,1c-1,0,-1,0,-1,0c-1,0,-1,1,-1,1c0,0,-1,0,-1,-1l0,-1l0,-1ZM179.5,96.5l-6,2c0,0,1,-1,1,-1l5,-3ZM257.5,97.5l0,-1c0,0,0,-1,0,-1c0,-1,0,-1,-1,-2l1,0l0,-1c0,0,0,1,0,1c0,1,0,1,1,1l0,1c0,0,0,1,0,1c0,0,-1,0,-1,0c0,0,0,1,0,1ZM256.5,99.5l0,1l1,0l0,-1l0,-1l1,0l0,1l0,1l1,0c0,0,0,-1,0,-1l0,-1l1,-1l0,1c0,0,0,1,0,1l0,1c0,0,-1,1,-1,1l-1,0l-1,0c0,1,0,1,-1,1l-1,0c0,-1,0,-1,0,-1c0,-1,0,-1,0,-1l0,-1l1,0ZM172.5,50.5c0,-1,0,-1,0,-2c0,-1,-1,-1,-1,-2l1,0l0,-1c0,1,0,1,0,1c0,1,0,1,0,1l0,1l0,1c0,1,0,1,0,1Z" class="g1_58" />
</svg>