<?xml version="1.0" encoding="UTF-8" standalone="no"?>
<!DOCTYPE svg PUBLIC "-//W3C//DTD SVG 1.1//EN"
"http://www.w3.org/Graphics/SVG/1.1/DTD/svg11.dtd">
<svg version="1.1" xmlns="http://www.w3.org/2000/svg" xmlns:xlink="http://www.w3.org/1999/xlink">
<defs>
<style type="text/css"><![CDATA[
.g1_25{
stroke: #1F1A17;
stroke-width: 1;
stroke-linecap: butt;
stroke-linejoin: miter;
}
]]></style>
</defs>
<path fill-rule="evenodd" d="M146.5,65.5l-4,2c0,-1,0,-1,0,-1l4,-2ZM233.5,54.5l-1,-1l0,-1l1,1ZM233.5,56.5c0,0,0,1,0,1l0,1l-1,0l0,1l-1,0l-1,0c-1,0,-1,0,-1,0l1,0l1,0c0,-1,0,-1,0,-1c0,0,1,0,1,0l0,-1c0,0,1,0,1,-1c0,0,-1,0,-1,0l0,-1c0,0,1,0,1,0c0,0,0,1,0,1ZM328.5,66.5c0,0,-1,0,-1,0c-1,0,-1,0,-1,0c-1,0,-1,0,-2,0c0,0,-1,0,-1,0c0,0,0,-1,0,-1l1,0c0,0,1,-1,1,-1l1,0c0,-1,0,-1,0,-1l1,0c-1,-1,-1,-1,-1,-1c0,-1,-1,-1,-1,-1c0,-1,-1,-1,-1,-2c0,0,-1,-1,-2,-1c0,0,0,-1,0,-1c-1,0,-1,0,-1,-1c0,1,0,1,0,1c0,0,-1,0,-1,0c-1,-1,-1,-1,-1,-2c0,0,0,-1,0,-1l0,-1c1,0,1,0,2,1c0,0,1,1,1,1c1,1,2,2,2,2c1,1,1,2,2,2c0,1,0,1,1,2l0,-1c1,0,1,-1,1,-2c0,0,0,-1,0,-2l0,-1c0,0,0,-1,0,-1l0,-1c0,0,0,-1,0,-1c0,0,0,-1,0,-1c1,0,1,0,1,0c0,1,0,1,0,1l0,1l1,0c0,0,0,1,-1,1l0,1c0,1,0,1,0,2l0,1c0,0,0,1,0,1c-1,1,-1,1,-1,2c0,1,0,1,0,1c0,0,0,1,0,1c0,0,0,1,0,1l0,1c0,1,0,1,0,1ZM327.5,63.5l0,1c-1,0,-1,0,-1,0c0,0,0,1,0,1c1,0,1,0,1,0l1,-1c-1,0,-1,0,-1,0ZM275.5,67.5c0,0,-1,0,-1,0c-1,0,-1,0,-1,0c-1,0,-1,0,-2,0c-1,0,-1,0,-1,0c0,0,-1,-1,-1,-1c0,0,1,0,1,0l0,-1c0,0,1,0,1,0l1,0c0,0,0,-1,0,-1c0,0,1,0,1,0c0,0,0,-1,0,-1l0,-1c-1,0,-1,0,-1,-1c0,0,-1,-1,-1,-1c-1,-1,-1,-1,-2,-2l-1,0c0,-1,0,-1,0,-1l-1,0c-1,0,-1,0,-1,-1l0,-1c0,-1,0,-1,0,-1l0,-1c1,1,1,1,1,1c1,1,1,1,2,2c1,1,1,1,2,2c0,0,1,1,2,2c0,0,0,1,0,1c1,0,1,1,1,1c0,0,0,-1,0,-1c0,-1,0,-2,0,-2c1,-1,1,-1,1,-2c0,0,0,-1,0,-1c0,-1,0,-1,0,-2c-1,0,-1,0,-1,0c0,-1,0,-1,1,-1c0,-1,0,-1,0,-1c0,1,0,1,0,1l1,0l0,1l0,1c0,0,0,1,0,1c0,0,0,1,0,1c0,1,0,1,-1,1c0,1,0,1,0,2c0,0,0,1,0,1c0,1,-1,2,-1,2l1,0c0,0,0,1,0,1c0,1,0,1,0,1c0,1,0,1,0,1l0,1ZM274.5,64.5l-1,1l1,0l0,-1ZM75.5,52.5c0,0,1,-1,1,-1c0,0,1,0,1,0c1,0,1,0,2,0c0,1,0,1,0,1c0,1,0,1,0,1c-1,1,-1,1,-1,1c0,0,-1,0,-1,0l-1,0c0,0,-1,0,-1,0l2,0c1,-1,1,-1,1,-1c-1,-1,-1,-1,-1,-1c-1,0,-1,1,-1,1c-1,0,-1,0,-1,0c0,-1,0,-1,0,-1ZM311.5,51.5c0,0,1,0,1,0c1,0,1,0,1,0c1,0,1,0,2,0l0,1l0,1c0,0,-1,0,-1,0c0,0,-1,1,-1,1l-1,0l-1,0l2,-1c1,0,1,0,2,-1c-1,0,-1,0,-1,0c0,0,-1,0,-1,0c0,0,-1,0,-1,0c0,0,-1,0,-1,0c0,0,0,-1,0,-1ZM319.5,47.5c0,-1,0,-1,0,-1c1,0,1,0,1,0c1,0,1,0,1,0l0,1l0,1l0,1l0,1l-1,-1l0,1l-1,0c0,1,-1,1,-1,1l-1,0l1,-1l1,0l0,-1c0,-1,0,-1,0,-1l0,-1ZM320.5,47.5c-1,0,-1,0,-1,0l1,0l0,1l0,-1ZM302.5,52.5l0,-1c0,0,0,-1,0,-1c0,-1,0,-2,0,-2l0,-1c0,0,1,0,1,1c0,0,0,1,0,1l0,1c0,1,0,1,0,1l-1,1ZM266.5,50.5c0,-1,0,-2,0,-2c0,-1,0,-1,-1,-2l1,0l0,-1c0,0,0,1,0,1c0,1,1,1,1,1l0,1c0,1,0,1,0,1l-1,0c0,0,0,1,0,1ZM56.5,62.5c0,1,0,2,0,2c0,0,0,1,0,1l-1,1l1,1l-1,0l0,1l-1,0l0,1l-1,0l-1,1l-1,0l-1,0c-1,0,-1,0,-1,0l0,1l-1,1c-1,1,-1,1,-1,1l-2,0l-3,0l-1,0c0,-1,0,-1,0,-1l-1,-1l-1,-1c-1,0,-2,0,-2,0l-1,-1l-1,0l0,-1l-1,0l-1,-1l1,-1l-1,-1l0,-1l0,-1l0,-1l0,-1c0,-1,0,-1,0,-2l1,-1l-1,0c0,-1,0,-1,0,-1l1,0l0,-1l1,0l1,-1l2,-1l1,0l1,0l0,-1l1,-1l1,0l3,0l2,0l1,0l0,1l1,0l0,1l1,0l1,1l1,0c1,0,1,0,1,0l1,1c1,1,2,1,2,2l-1,0l0,1l1,0l0,1l0,1ZM47.5,72.5l1,0l0,-1l1,0l1,-1l1,0l1,-1c0,0,1,0,1,0l0,-1l1,0l1,-1l1,0l-2,-1l1,0l0,-1l1,-1l0,-1l0,-1c0,-1,0,-1,0,-2l-1,0l0,-1l0,-1l-1,0l2,0c-1,-1,-1,-1,-2,-1l0,-1l-1,0l0,-1l-1,0l-1,0l-2,-1l-1,-1l0,-1c-1,0,-1,0,-1,0l-2,0l-3,0l-1,0l0,1l-1,1l-1,0l-1,1l-1,0l-1,0l0,1l-1,0l0,1c-1,0,-1,0,-2,1l1,0l0,1l-1,0l0,1l0,1c0,1,0,1,0,1l0,1l0,1l0,1c0,0,1,0,1,0l0,1l-1,1l1,0l1,1l1,1l1,0l1,1l1,0c1,0,1,0,1,1l1,0l0,1l1,0l3,0ZM53.5,57.5l0,1l-1,0l0,-1l-1,0l-1,-1l-1,0c1,0,1,0,1,0l0,-1l0,1l1,0c1,0,1,0,1,0l0,1l1,0ZM53.5,67.5l0,1l-1,0l-1,1l-1,0c0,0,0,-1,0,-1l1,0c1,-1,1,-1,1,-1l1,0ZM49.5,69.5c0,0,-1,1,-1,1l-1,0l-2,0l-3,0l-1,0c0,0,-1,0,-1,0c0,-1,0,-1,0,-1l1,-1l1,0l3,0l2,0c0,0,1,0,1,0l0,1l1,0ZM49.5,55.5c0,1,-1,1,-1,1l-1,1l-2,0l-3,0l-1,0c0,-1,0,-1,0,-1l-1,0l0,-1l1,-1l1,0l3,0l2,0c1,0,1,0,1,0c0,0,0,1,0,1l1,0ZM47.5,58.5c0,0,1,0,1,0l0,-1c0,0,1,0,1,0c0,0,1,0,1,1c0,0,1,0,1,0l0,1l2,0l0,1l1,0l0,1l0,1l0,1c0,0,0,1,0,1l-1,1c0,0,0,1,0,1l-1,-1c0,1,-1,1,-1,1c0,0,0,1,-1,1l-1,0l-1,0l-1,0l0,-1l-2,0l-3,0l-1,1l-1,0c-1,0,-1,0,-1,0c-1,0,-1,-1,-1,-1l-1,0l0,-1l-1,1l0,-1l-1,-1l0,-1l0,-1c0,0,0,-1,0,-1l0,-1l0,-1l1,0l1,0c0,0,1,0,1,-1l1,0c0,-1,0,-1,1,-1c0,0,1,0,1,0l0,1l1,0l3,0ZM47.5,66.5l1,0l0,1l1,0c1,0,1,0,1,0l0,-1l1,0c0,-1,0,-1,1,-1l1,1l0,-1l0,-1l1,-1l0,-1c0,0,0,-1,-1,-1c0,-1,0,-1,0,-2l-1,0c-1,0,-1,0,-1,0l0,-1l-1,0l-1,0c0,0,-1,0,-1,0l-1,0l-2,0l-4,0l-1,0c0,0,-1,0,-1,0l-1,0l0,1c-1,0,-1,0,-1,0l-1,0l0,1l-1,1l0,1c0,1,0,1,0,1l0,1c1,1,1,1,1,2l1,-1l1,1l1,0l0,1l1,0c0,0,1,0,1,0c0,0,0,-1,0,-1l1,0l3,0l2,0ZM46.5,64.5l0,-1l1,1ZM43.5,65.5l0,-1l0,-1l-1,-1l0,-1l0,-1l0,1l1,0l0,1l0,1l1,-1l0,-1c1,0,1,0,1,-1l0,1c0,0,0,1,-1,2l0,1c0,1,-1,1,-1,1ZM36.5,57.5l1,0l0,-1l1,0l1,-1l0,1l-1,0c0,0,0,1,0,1l-1,0l0,1l-1,0l0,-1ZM36.5,67.5l1,0l1,1l1,0l0,1l-1,0c0,0,-1,-1,-2,-1l0,-1ZM115.5,56.5l-2,-1l0,2l-2,-1l1,-2l1,1l1,-1l2,1ZM113.5,63.5c0,0,1,0,1,0c1,0,1,0,1,-1c0,0,0,-1,0,-1l0,-1l-1,0l1,-2c0,1,0,1,1,1l0,1l0,1l0,1l0,1l-1,1l-1,1c0,0,-1,0,-1,0l-1,0c-1,0,-1,0,-1,0l0,1c0,1,-1,1,-1,2l0,1c-1,0,-1,0,-1,0c0,1,-1,1,-1,1c0,0,-1,0,-1,0c0,0,-1,0,-1,0c-1,0,-1,0,-2,0c0,0,-1,0,-1,0l0,-1c0,0,1,0,1,0l1,1c0,0,1,-1,1,-1c0,0,1,0,1,0c1,-1,1,-1,1,-1c0,0,1,0,1,-1l0,-1c1,0,1,0,1,-1c0,0,0,-1,0,-1c-1,0,-1,-1,-1,-1l1,-1l1,1l1,0l1,0ZM113.5,46.5c0,-1,0,-1,1,-1c0,-1,0,-1,0,-1l1,0c0,1,0,1,0,1c0,1,0,1,0,1l0,1l0,2l-1,-1l-1,1c0,0,0,1,-1,1l-1,0l0,-1l1,0c0,0,1,0,1,-1l1,0l-1,0l0,-1l0,-1ZM114.5,46.5l0,-1c0,0,0,1,0,1l0,1l0,-1ZM105.5,54.5c1,0,1,0,1,-1c1,0,1,0,2,0c0,0,1,0,1,1c1,0,1,0,1,0c0,1,-1,1,-1,1c0,1,0,1,-1,1c-1,0,-1,0,-1,0l-1,0l1,0c1,-1,2,-1,2,-1c0,0,-1,0,-1,0l-1,0l-1,0l-1,0c0,0,0,-1,0,-1ZM95.5,68.5l-1,-1l1,-1l1,1ZM103.5,62.5l-2,0c-1,0,-1,0,-2,0l-1,0l-1,1l-1,0c-1,1,-1,1,-1,1c-1,0,-1,0,-1,0c-1,0,-2,1,-3,1l-1,0c0,0,-1,0,-1,0c0,-1,-1,-1,-1,-1l-1,-1c0,0,-1,0,-1,0l0,1c-1,0,-1,0,-1,0c0,0,-1,0,-1,1l-1,0l-1,0l-1,0c0,0,0,1,0,1c0,0,-1,1,-1,1c0,0,0,1,-1,1c0,0,0,1,0,1c-1,0,-1,0,-1,1c0,0,-1,0,-1,0l-1,0l-1,0c0,0,-1,0,-1,0c-1,0,-1,-1,-1,-1l1,0c1,0,1,0,2,0c0,0,1,0,1,-1c0,0,1,0,1,0c0,-1,0,-1,1,-1c0,0,0,-1,0,-1c0,0,1,0,1,-1c-1,0,-1,0,-1,0c0,0,-1,0,-1,0c0,0,0,-1,0,-1c-1,0,-1,0,-1,0c0,-1,0,-1,0,-1c0,-1,0,-1,0,-1c0,-1,1,-1,1,-1c0,0,0,-1,0,-1l1,0c0,0,1,0,1,0l0,1l1,0c0,1,0,1,0,1c0,0,0,1,0,1c0,0,1,0,1,0l1,0c1,0,1,0,1,0c0,0,1,0,1,0l0,-1c0,0,1,0,1,0l-1,0c0,-1,-1,-1,-1,-1l-1,0l1,-2c1,0,1,0,1,0c1,0,1,0,2,0c0,0,1,0,1,0l1,0l0,1c0,0,0,1,0,1c0,0,-1,1,-1,1c0,1,0,1,1,1l1,0l1,0c1,0,1,0,1,0c1,0,1,0,2,0c0,0,0,-1,1,-1l1,0l1,-1l-1,0l-1,0l0,-1l-1,0l-1,0l-1,0l0,1c0,-1,0,-1,0,-2c1,0,1,0,1,0c0,0,1,-1,1,-1c0,0,0,1,1,1l1,0l2,1l1,0c0,0,1,0,1,0c0,0,1,1,1,1c0,0,1,0,1,0l1,0ZM94.5,52.5l4,-2l0,1l-4,2ZM86.5,49.5c0,0,0,-1,0,-1c0,0,1,0,1,0c1,0,1,0,1,1l0,1c-1,0,-1,0,-1,0l1,1l0,1l-1,-1l-1,1c-1,1,-1,1,-1,1l-1,0c-1,0,-1,0,-1,0l1,0l1,-1l1,0l0,-1c-1,-1,-1,-1,-1,-1c0,-1,0,-1,1,-1ZM87.5,49.5l-1,0l0,1l1,0l0,-1ZM79.5,62.5l-1,0c0,0,0,1,0,1l1,0c0,0,1,0,1,0c0,-1,0,-1,-1,-1ZM67.5,59.5l-1,-1l1,-2l1,1ZM67.5,68.5c0,0,-1,0,-1,0c-1,0,-1,-1,-2,-1c0,0,0,-1,-1,-1c0,-1,0,-1,0,-2c0,0,0,-1,0,-1l0,-1c0,0,1,0,1,-1c0,-1,0,-1,0,-1l1,0c0,1,-1,1,-1,1c0,1,0,1,0,1c0,1,0,1,0,1c0,1,0,1,0,1c0,1,1,1,1,1c1,1,1,1,1,1c0,0,1,0,2,0c0,0,1,0,2,0c0,-1,1,-1,1,-2c1,0,1,0,1,0l0,-1l0,-1c0,0,0,-1,0,-1c-1,0,-1,-1,-1,-1l0,-1l0,-2l1,1c0,0,0,1,0,1c0,0,0,1,0,1c1,0,1,0,1,1c0,1,0,1,0,1l0,1c0,1,0,1,-1,2c0,0,0,1,-1,1c0,1,-1,1,-2,1c0,1,-1,1,-2,1ZM64.5,52.5l4,-2l-1,0l0,1l-4,2ZM152.5,61.5c0,0,-1,0,-1,0c1,1,1,1,1,1l1,0l0,-1c-1,0,-1,0,-1,0ZM152.5,68.5c0,1,0,1,0,1c-1,0,-1,0,-1,0c-1,0,-1,0,-2,0c-1,0,-1,0,-2,0l-1,0c0,-1,0,-1,1,-1l0,1c0,0,1,0,1,0c0,0,1,0,1,0l0,-1c1,0,1,0,1,0l1,0c0,0,0,-1,1,-1c0,0,0,-1,0,-1c1,0,1,0,1,-1c0,-1,1,-1,1,-1c0,0,0,-1,0,-1l-1,0l0,1c-1,0,-1,0,-1,0c0,0,-1,0,-1,0c0,0,0,-1,0,-1c-1,0,-1,0,-1,-1l1,-1c0,0,0,-1,0,-1c0,-1,1,-1,1,-1l1,0c0,0,1,0,1,1l0,1l0,1l0,1c0,1,0,1,0,1c0,1,0,2,0,3c-1,0,-1,0,-1,1c0,0,-1,0,-1,0ZM149.5,55.5l4,-2l0,1l-4,2ZM138.5,63.5l1,0c1,0,1,0,1,0c0,-1,0,-1,0,-1l0,-2l0,-7c0,-1,0,-1,0,-1c0,-1,0,-1,0,-1c1,0,1,0,1,0c-1,0,-1,0,-1,1c0,0,1,0,1,0l1,1c0,0,-1,0,-1,1c0,1,0,1,0,2c0,0,0,1,0,3c0,0,0,1,0,1l0,1c0,1,0,1,0,1c0,1,0,1,0,1l0,1c-1,0,-1,0,-1,0c-1,0,-1,1,-1,1c0,0,-1,0,-1,0l-1,0c0,0,-1,0,-1,0c0,0,0,-1,-1,-1l0,-1c-1,0,-1,0,-1,0c0,0,0,1,0,1l-1,0l-1,1l-1,0c0,0,-1,0,-1,0c-1,-1,-1,-1,-1,-1l-1,-1c0,0,0,-1,0,-1c0,1,-1,1,-1,1l-1,0c-1,0,-1,0,-2,0l0,-2l1,-1c0,0,1,0,2,-1c0,0,1,-1,1,-1l-1,0c0,0,0,-1,1,-1l0,-1l0,2c0,0,1,0,1,1l0,1l0,2c0,0,0,1,1,1c0,0,1,0,1,0c1,0,1,0,1,0c1,0,1,0,2,-1c0,0,1,0,1,0c0,0,1,1,1,1l1,0l1,0ZM139.5,49.5l4,-3l0,1c-1,0,-1,0,-1,1l-4,2ZM136.5,68.5l-2,-1l-1,1l-1,-1l1,-1l1,1l1,-1l1,0ZM131.5,47.5c1,0,1,-1,1,-1c1,0,1,0,2,0c0,0,1,0,1,0c0,1,1,1,1,1c-1,1,-1,1,-1,1c0,0,0,1,-1,1c-1,0,-1,0,-1,0l-1,0l1,0c1,-1,1,-1,2,-1c0,0,-1,0,-1,-1l-1,0c0,0,-1,0,-1,1l-1,0c0,-1,0,-1,0,-1ZM128.5,59.5l-1,1l-1,0c0,1,-1,1,-1,1l1,0l1,0c0,0,1,0,1,0ZM128.5,68.5l-4,2c0,-1,1,-1,1,-1l4,-2ZM198.5,65.5l0,-1l0,-2l0,-8l1,-2l0,10c0,1,0,1,0,1l0,1c0,0,-1,0,-1,1ZM189.5,53.5l0,3c0,1,0,1,0,2l0,1l2,1c0,0,1,1,1,1c1,0,1,0,2,0l1,0l1,0l-1,1l-2,0l-1,0c0,0,-1,0,-1,0l0,1l-1,0c0,0,-1,0,-1,0l-2,1l-1,0l-1,1l-1,0l-1,0l-1,0c0,0,-1,0,-1,-1c0,0,-1,0,-1,-1l-2,-2c-1,0,-1,0,-2,-1l0,1l0,1l0,1c0,0,-1,1,-1,1c-1,0,-1,1,-1,1c0,0,-1,0,-1,0l-1,0l-3,0l-1,-1l0,1l0,1c0,1,-1,1,-1,1c0,0,-1,0,-1,-1c0,0,0,-1,-1,-2l-1,0c0,0,-1,0,-1,0c0,0,0,1,0,1l0,1l0,1l0,3l1,0l0,2c0,0,0,1,0,1l0,1l-1,1l0,-1l0,-1l0,-1l-1,-3l0,-2l0,-1l0,-1c1,-1,1,-2,1,-2l1,0l0,-1l1,0l1,-1c1,0,1,1,2,1l2,1l1,0l1,0l1,0l1,0c1,0,1,0,1,-1c1,0,1,-1,1,-1c0,0,-1,0,-1,-1c0,0,-1,-1,-1,-1l-1,-1l-1,0l-1,0l0,-1c0,0,0,-1,0,-1l0,-1l0,-1l1,0c0,0,1,-1,3,-2c1,0,2,-1,4,-1c1,-1,2,-1,3,-1l1,0l-1,1c-1,0,-1,1,-1,1c0,0,-1,0,-2,0c-2,1,-3,1,-5,2c-1,1,-2,1,-2,1l-1,0c0,1,0,1,0,1l1,0c1,0,1,1,1,1c1,0,1,0,1,0l1,1c0,0,1,0,2,1c0,0,1,0,1,1c1,0,1,1,2,1l2,2l1,0l1,0l1,0l1,0c1,0,1,0,1,0l0,-1l1,0l1,0l1,0l-1,-1l-1,0l-1,0l-1,0l-1,0l-1,0c1,-1,1,-1,1,-1c0,-1,0,-1,0,-1c1,0,1,0,1,0c0,0,0,-1,1,-1c1,0,1,0,1,0c0,0,1,-1,1,-1c0,0,0,-1,0,-2c0,0,-1,0,-1,-1c0,-1,0,-1,0,-1c0,0,0,-1,0,-1c0,0,0,-1,0,-1c0,0,1,-1,1,-1l0,1c0,1,1,1,1,1l0,1l0,1ZM188.5,47.5c0,0,0,-1,1,-1c0,0,1,0,1,0c1,0,1,0,2,0c0,1,0,1,0,1c0,1,0,1,-1,1c0,0,0,1,0,1c-1,0,-1,0,-1,0c0,0,-1,0,-1,0c0,0,-1,0,-1,0l2,0c0,-1,1,-1,1,-1l0,-1c-1,0,-1,0,-1,0c-1,0,-1,0,-2,1c0,-1,0,-1,0,-1ZM184.5,49.5c0,0,0,-1,1,-1l1,0l0,1l0,1l0,1l1,0l-1,1l-1,-1l0,1l-1,0c0,1,0,1,0,1l-1,0l-1,0l1,0l0,-1c0,0,1,0,1,0l1,-1l-1,0c0,-1,0,-1,0,-1c0,-1,0,-1,0,-1ZM185.5,49.5l0,1l0,-1ZM176.5,44.5l1,0c0,0,1,0,1,0c1,0,1,0,1,0c1,0,1,0,1,0l0,1l-1,1l-1,0c0,0,-1,0,-1,0l-1,0l2,0c0,0,1,-1,1,-1l-1,0c-1,0,-1,0,-2,0l0,-1ZM165.5,49.5c0,0,0,-1,0,-1c1,0,1,0,1,0c1,0,1,0,1,0l0,1l0,1l0,1l0,1l-1,-1l0,1l-1,0c0,1,-1,1,-1,1l-1,0l1,-1l1,0l0,-1c0,-1,0,-1,0,-1c0,-1,0,-1,0,-1ZM166.5,49.5c-1,0,-1,0,-1,0l1,1l0,-1ZM222.5,61.5c0,1,0,1,0,1c0,0,1,0,1,0l0,-1c0,0,-1,0,-1,0ZM222.5,68.5c0,1,0,1,0,1c0,0,-1,0,-1,0c0,0,-1,0,-2,0c0,0,-1,0,-2,0c0,-1,0,-1,0,-1l1,1c0,0,1,0,1,0l1,-1c0,0,1,0,1,0c0,0,1,-1,1,-1c0,0,0,-1,1,-1l0,-1c1,-1,1,-1,1,-1c0,0,0,-1,0,-1c-1,0,-1,0,-1,1c0,0,-1,0,-1,0l-1,0c0,0,0,-1,0,-1l0,-1l0,-1c0,0,0,-1,0,-1c1,-1,1,-1,1,-1l1,0c1,0,1,0,1,1l0,1l1,1l0,1c0,1,0,1,0,1c-1,1,-1,2,-1,3c0,0,-1,0,-1,1l-1,0ZM219.5,55.5l5,-2l-1,1l-4,2ZM213.5,66.5c0,-1,0,-1,0,-1l0,-1c0,0,-1,0,-1,0c0,0,0,-1,0,-1c0,0,0,-1,0,-1l-1,0c0,1,0,1,0,1l-1,0l-1,0c0,0,-1,0,-1,0l-1,0l0,-2c1,0,1,0,2,-1l0,-1c1,0,1,0,1,0c0,0,1,0,1,0c0,-1,0,-1,0,-1l1,-2c0,0,0,1,0,1l0,1c0,0,0,1,0,1c0,1,1,1,1,2l0,1c0,0,0,1,0,1l0,1l1,0l0,1c1,0,1,0,1,0l1,0c0,0,0,-1,0,-1c0,0,0,-1,0,-2c0,-1,0,-2,0,-2c0,-1,0,-1,-1,-1c0,-1,0,-2,0,-3c0,-1,0,-2,0,-3c0,-1,0,-1,0,-1c0,-1,1,-1,1,-1c0,1,0,1,0,1c0,0,1,0,1,1l0,1l-1,0c0,1,0,1,1,2c0,0,0,1,0,3c0,0,0,1,0,1c0,0,0,1,0,1c0,2,0,2,0,2c0,1,0,1,0,1c0,0,0,1,0,1l-1,0c0,1,0,1,0,1c0,0,-1,0,-1,0c0,0,-1,0,-1,0l-1,0ZM214.5,49.5l4,-3l0,1l0,1l-4,2ZM211.5,59.5l0,1l-1,0l0,1c-1,0,-1,0,-1,0l1,0l1,0l1,0ZM210.5,49.5c0,0,1,-1,1,-1l1,0c0,0,1,0,1,1l-1,0l0,1l0,1l1,0l0,1l-2,-1l0,1c-1,1,-1,1,-1,1l-1,0l-1,0l1,0l1,-1l1,-1l-1,0c0,-1,0,-1,0,-1c0,-1,0,-1,0,-1ZM212.5,49.5l-1,0l0,1l1,0l0,-1ZM287.5,61.5c-1,0,-1,0,-1,0c0,1,1,1,1,1c1,0,1,0,1,-1l-1,0ZM287.5,68.5c0,1,0,1,-1,1c-1,0,-1,0,-2,0c-1,0,-1,0,-2,0l-1,0c0,-1,0,-1,0,-1c1,0,1,0,1,1c0,0,1,0,1,0l1,0l0,-1c0,0,1,0,1,0c1,0,1,-1,2,-1c0,0,0,-1,0,-1c0,0,1,0,1,-1c0,-1,0,-1,0,-1c0,0,0,-1,0,-1l0,1c-1,0,-1,0,-1,0l-1,0c0,0,0,-1,0,-1c0,0,-1,0,-1,0l0,-1l0,-1c1,0,1,-1,1,-1c0,-1,0,-1,1,-1c1,0,1,0,1,0l1,1l0,1l0,1l0,1c0,1,0,1,0,1c0,1,0,2,-1,3l0,1c0,0,-1,0,-1,0ZM284.5,55.5l4,-2l0,1l-4,2ZM280.5,65.5l0,-1l0,-2l0,-8l1,-2l0,10c0,1,0,1,0,1l0,1c0,0,-1,0,-1,1ZM275.5,47.5l1,-1l1,0l1,0c0,1,0,1,0,1c0,0,0,1,0,1c0,0,-1,0,-1,0l0,1c-1,0,-1,0,-1,0l-1,0l1,-1c1,0,1,0,2,-1c-1,0,-1,0,-1,0l-1,0l-1,0c0,0,0,1,0,1l0,-1ZM254.5,56.5l-1,0l1,-2l1,1ZM263.5,62.5l-1,0l-1,0c-1,0,-1,0,-2,0l-1,0l-1,1l-1,0c-1,1,-1,1,-2,1l-1,0c0,0,-1,1,-1,1l-1,0l-1,0l0,1c0,1,-1,1,-1,2l-1,1c-1,1,-1,1,-1,1c-1,0,-1,0,-1,0c-1,0,-1,0,-1,0l-1,0c0,0,-1,0,-1,0c0,0,-1,0,-1,0l0,-1c0,0,1,0,1,0l0,1c1,0,1,-1,2,-1c0,0,1,0,1,0c0,-1,1,-1,1,-1l1,-1l0,-1c0,0,1,0,1,-1c0,0,0,-1,0,-1l-1,0c0,0,0,-1,0,-1l0,-1l1,0l0,1l1,0l1,0c0,0,1,0,1,0c0,0,1,0,2,0c0,0,0,-1,1,-1l1,0l1,-1l-1,0l-1,0l0,-1l-1,0l-1,0l-1,0l0,1c0,-1,0,-1,0,-2c1,0,1,0,1,0c0,0,1,-1,1,-1c0,0,0,1,1,1l1,0l2,1l1,0l1,0c0,0,0,1,1,1c0,0,1,0,1,0l1,0ZM260.5,68.5l-4,2c0,0,0,-1,0,-1l4,-2ZM245.5,52.5l4,-2l0,1l-4,2ZM241.5,57.5l-1,-1l-1,1l-1,-1l1,-1l1,0l1,-1l1,1ZM240.5,65.5c0,0,-1,0,-1,-1c-1,0,-1,-1,-1,-1c0,-1,0,-1,0,-2l1,0l0,-1l1,-1c0,-1,0,-1,0,-1c1,0,1,0,2,1c0,0,1,1,1,1l0,1l0,1c0,1,0,2,-2,3l-1,0ZM240.5,60.5l-1,1c0,0,0,1,0,1c0,1,0,1,1,1l1,0l1,0c0,0,0,-1,0,-1l0,-1c-1,0,-1,-1,-2,-1ZM242.5,73.5l-4,2c0,-1,0,-1,1,-1l4,-2ZM334.5,65.5l0,-1l0,-2l-1,-8l1,-2l1,10c0,1,0,1,0,1l0,1c-1,0,-1,0,-1,1ZM327.5,46.5l1,-1c0,0,1,0,1,0c1,0,1,0,1,1c1,0,1,0,1,0c0,1,0,1,-1,1c0,1,0,1,0,1l-1,0c0,0,-1,0,-1,0l-1,0l2,0c0,-1,1,-1,1,-1l-1,0c-1,0,-1,0,-2,0l0,-1ZM315.5,61.5c0,0,-1,0,-1,0c0,1,0,1,1,1l0,-1ZM315.5,68.5c0,1,-1,1,-1,1c-1,0,-2,0,-2,0l-1,0c0,0,-1,0,-1,0c0,0,-1,0,-1,0c0,-1,0,-1,0,-1c0,0,1,0,1,1l1,0c1,0,1,0,1,-1c1,0,1,0,1,0c1,0,1,-1,1,-1c1,0,1,-1,1,-1l1,-1c0,-1,0,-1,0,-1c0,0,0,-1,0,-1l0,1c-1,0,-1,0,-1,0c0,0,-1,0,-1,0c0,0,0,-1,-1,-1l0,-1l0,-1c0,0,1,-1,1,-1c0,-1,0,-1,0,-1c1,0,1,0,1,0c0,0,1,0,1,0l0,1c1,0,1,0,1,1l0,1l0,1c0,1,0,1,0,1c0,1,0,2,-1,3l0,1c-1,0,-1,0,-1,0ZM308.5,60.5c0,0,-1,-1,-1,-1c0,-1,0,-2,0,-3c0,-1,0,-2,0,-3c0,-1,0,-1,0,-1c0,-1,0,-1,1,-1l0,1l1,1l0,1c0,0,-1,0,-1,0c0,1,0,1,0,2c0,1,0,2,0,3c0,1,0,2,0,2c0,0,0,1,0,1l0,1l0,1c0,0,-1,0,-1,1c0,0,1,0,1,0c1,0,1,0,1,1l0,1c0,0,0,1,-1,1c0,0,-1,1,-1,1c-1,1,-1,1,-2,1c-1,1,-2,1,-3,1c-1,0,-1,0,-2,-1c-1,0,-1,0,-2,-1l0,-1c-1,0,-1,0,-1,-1c0,-1,0,-2,1,-2c0,-1,0,-2,1,-2c0,0,0,1,-1,2c0,0,0,1,0,1l0,1c0,0,1,1,1,1c1,1,2,1,3,1c1,0,1,0,2,0c0,0,0,-1,1,-1c1,0,1,0,2,0c0,-1,1,-1,1,-1c-1,0,-1,-1,-2,-1c0,0,-1,0,-1,0c0,0,0,-1,0,-1l0,-1l1,0c0,0,1,-1,1,-1c0,0,1,-1,1,-1c0,0,0,-1,0,-1l0,-1ZM352.5,55.5l-2,0l1,-2l2,1ZM353.5,61.5c0,0,0,1,0,1l-1,0c-1,0,-1,0,-1,0c-1,0,-1,0,-1,0c0,-1,0,-1,0,-2l0,-1c0,-1,1,-1,1,-1c0,-1,1,-1,1,-1c0,0,1,0,1,1c0,0,1,0,1,1l0,1c0,0,0,1,0,1c0,1,0,1,0,1l0,1l0,1c0,0,0,1,-1,1c0,0,1,0,1,0l1,0l0,1l0,1c0,0,0,1,0,1c-1,0,-1,0,-1,0c0,0,0,1,-1,1c-1,1,-1,1,-2,1c-1,1,-2,1,-3,1c-1,0,-1,0,-2,-1c-1,0,-1,0,-2,-1l0,-1c-1,0,-1,0,-1,-1c0,-1,0,-2,1,-2c0,-1,0,-2,1,-2c0,0,0,1,-1,2c0,0,0,1,0,1l0,1c0,0,1,1,1,1c1,1,2,1,3,1l1,0c0,0,1,0,1,0c0,0,1,-1,1,-1c1,0,1,0,2,0c0,-1,1,-1,1,-1c0,0,-1,-1,-2,-1c0,0,-1,0,-1,0c0,-1,0,-1,0,-1c0,0,0,-1,0,-1c1,0,1,0,2,0l0,-1c1,0,1,0,1,0c0,-1,0,-1,0,-1c0,0,-1,-1,-1,-1ZM351.5,59.5c0,1,0,1,0,1l1,0l1,0l-1,0l0,-1l-1,0ZM355.5,71.5l-4,2c0,-1,0,-1,0,-1l4,-2ZM400.5,65.5l0,-1l0,-2l-1,-8l1,-2l1,10c0,1,0,1,0,1c-1,0,-1,0,-1,1l0,1ZM391.5,53.5l0,3c0,1,0,1,0,2l-1,1l2,1c1,0,1,1,2,1c0,0,1,0,1,0c0,0,1,0,1,0l1,0l0,1l-2,0l-1,0l-1,0l-1,1c-1,0,-1,0,-1,0l-3,1l-1,0l-1,1l-1,0l-1,0l-1,0c0,0,-1,0,-1,-1l-1,0c0,0,0,1,-1,1c0,0,-1,0,-1,0l-1,-1l-2,-1l-1,1c0,1,0,1,-1,1l-1,0l-1,0c-1,0,-1,0,-1,0c0,0,0,-1,0,-1l-1,0l0,-1l0,-1l0,1l-1,0l0,1c-1,0,-1,0,-2,0c0,1,-1,1,-1,1l-1,0l-1,-1c0,0,-1,0,-1,-1c0,0,0,-1,0,-1l1,0l0,-1c0,1,0,1,0,1l1,1l1,0l1,0c1,0,1,0,1,-1c1,0,1,0,1,0l1,0c0,-1,0,-1,-1,-2l0,-2l0,-1l1,-2l0,2c0,0,0,1,0,2l1,2c0,0,0,1,0,1c0,0,0,1,0,1c0,0,1,0,1,0l1,0l1,0c1,0,1,0,1,0l1,-1l0,-1c1,-1,2,-1,3,-1l1,1l1,1l1,1l1,0l1,0l1,0l1,0l1,0l1,0l1,-1l2,0l-1,-1l-1,0l-1,0l-1,0l-1,0c0,-1,0,-1,0,-1c0,-1,1,-1,1,-1c1,0,1,-1,1,-1c0,0,1,0,1,0c1,0,1,-1,1,-1c0,0,0,-1,0,-2l0,-1c0,-1,0,-1,0,-1c0,0,-1,-1,-1,-1c0,0,1,-1,1,-1c0,0,0,-1,0,-1l0,1l1,0c0,1,0,1,1,1c-1,0,-1,0,-1,1l0,1ZM389.5,47.5c1,0,1,-1,1,-1c1,0,1,0,2,0c0,0,1,0,1,0c0,1,1,1,1,1c-1,1,-1,1,-1,1c0,0,0,1,-1,1l-1,0l-1,0l1,0c1,-1,1,-1,2,-1c0,0,-1,0,-1,-1c0,0,-1,0,-1,0c0,0,-1,0,-1,1c0,0,-1,0,-1,0c0,-1,0,-1,0,-1ZM383.5,55.5l4,-2l-1,1l-4,2ZM380.5,63.5l0,-1c-1,0,-1,-1,-1,-1l-1,0l-1,1c1,0,1,0,2,1ZM377.5,49.5l1,0c0,0,1,0,1,0c1,0,1,0,2,0l0,1c0,0,0,1,-1,1c0,1,0,1,-1,1c0,0,-1,0,-1,0c-1,0,-1,0,-1,0l2,-1c0,0,1,0,1,-1l-1,0c-1,0,-1,0,-2,0l0,1l0,-1l0,-1ZM367.5,49.5c0,0,0,-1,0,-1c1,0,1,0,1,0c1,0,1,0,1,0l0,1l0,1l0,1l0,1l-1,-1l0,1l-1,0c0,1,-1,1,-1,1l-1,0l1,-1l1,0l0,-1c0,-1,0,-1,0,-1c0,-1,0,-1,0,-1ZM368.5,49.5c-1,0,-1,0,-1,0l1,1l0,-1ZM416.5,63.5c0,0,1,0,1,0c0,0,1,0,1,0c1,-1,1,-1,1,-1l0,-2l-1,-7c0,-1,0,-1,0,-1c0,-1,1,-1,1,-1l0,1c0,0,1,0,1,1l0,1c0,0,-1,0,-1,0c0,1,0,1,0,2c0,0,0,1,0,3c1,0,1,1,1,1l0,1c0,1,0,1,0,1c-1,0,-1,0,-1,0c0,1,0,1,0,1l0,1c-1,0,-1,0,-1,0c0,0,0,1,-1,1l-1,0c-1,0,-1,0,-1,0c-1,-1,-1,-1,-1,-1c-1,0,-1,0,-1,-1c0,0,0,-1,0,-1c-1,1,-1,1,-1,1l-1,0l-1,0l-1,0l0,-2l1,-1c0,0,1,0,1,-1c1,0,1,-1,1,-1c0,0,0,-1,0,-1l1,0l0,-1l0,2l0,1l1,1l0,2c0,0,0,1,0,1c1,0,1,0,1,0c0,0,1,0,1,0ZM417.5,49.5l4,-3l0,1l0,1l-4,2ZM413.5,59.5l-1,0l0,1l-1,0c-1,1,-1,1,-1,1l1,0l1,0l1,0ZM410.5,49.5c0,0,0,-1,0,-1c1,0,1,0,1,0c1,0,1,0,1,1l0,1l-1,0l1,1l0,1l-1,-1l0,1l-1,0c0,1,-1,1,-1,1l-1,0l1,-1l1,0l0,-1c0,-1,-1,-1,-1,-1c0,-1,1,-1,1,-1ZM411.5,49.5l-1,0l0,1l1,0l0,-1ZM143.5,63.5l0,-1l1,-1l-1,-8l1,-3l0,11c0,1,0,1,0,1c0,1,0,1,-1,1Z" class="g1_25" />
<path fill-rule="evenodd" d="M260.5,466.5l-4,2c0,-1,0,-1,0,-1l4,-2ZM135.5,416.5l0,-1l0,-1l0,-9l0,-2l1,11l0,1c0,0,-1,1,-1,1ZM301.5,404.5c1,0,1,0,1,0c1,0,1,0,2,0c0,0,1,0,1,0c1,0,1,0,1,0c0,0,0,1,0,1c0,0,-1,0,-1,1l-1,0c-1,0,-1,1,-1,1l-1,0c0,0,0,-1,0,-1l1,0c1,0,2,-1,2,-1c0,0,-1,0,-1,0l-1,0c0,0,-1,0,-1,0l-1,0c0,-1,0,-1,0,-1ZM225.5,404.5l1,0l1,0c0,0,1,0,1,0c1,0,1,0,1,0c0,0,0,1,0,1c0,0,-1,0,-1,1c-1,0,-1,0,-1,0c-1,0,-1,1,-1,1l-1,0c0,0,0,-1,0,-1l1,0c1,0,2,-1,2,-1l-1,0l-1,0l-1,0l-1,0c0,-1,1,-1,1,-1ZM152.5,414.5l0,-1l1,0c0,-1,1,-1,1,-1l0,-1l0,-1l-1,-1l0,-1c0,-1,0,-1,0,-1l1,1l0,1l0,1l0,1l0,1l1,0l0,-1c1,0,1,0,1,0c1,0,1,0,1,0c0,0,1,0,1,0l0,1l-1,0c0,1,0,1,0,1l-1,0l-1,0c0,1,-1,1,-1,1ZM156.5,412.5c0,0,-1,0,-1,0l-1,0l0,1c1,0,1,0,1,0c0,0,1,0,1,0c0,-1,1,-1,1,-1c-1,0,-1,0,-1,0ZM142.5,413.5l0,1c1,0,1,0,1,0c0,0,0,-1,0,-1l-1,0ZM142.5,421.5c0,0,-1,0,-1,1c0,0,-1,0,-2,0c0,0,-1,0,-2,-1l1,0c0,0,1,0,1,0l1,0c0,-1,1,-1,1,-1c0,0,1,0,1,-1c0,0,1,0,1,-1l0,-1c1,0,1,-1,1,-1l0,-1c0,0,0,1,0,1c0,0,-1,0,-1,0l-1,0l-1,0c0,0,0,-1,0,-1c0,0,0,-1,0,-1c0,0,0,-1,0,-1c0,0,0,-1,0,-1c1,0,1,-1,1,-1c0,0,1,0,1,0l1,0c0,0,0,1,0,1c0,0,0,1,0,1c0,0,1,1,1,1c0,0,0,1,0,1c0,0,0,1,0,1c0,1,-1,2,-1,3c0,0,-1,1,-1,1l-1,1ZM140.5,407.5l4,-2l-1,1l-4,2ZM135.5,394.5l1,0c0,-1,0,-1,0,-1l1,0c0,0,0,1,0,1c0,0,0,1,0,1c0,1,0,1,0,1l0,2l-1,-1l-1,1l-1,1l-1,0l0,-1l1,0c0,0,1,0,1,-1l1,0l-1,-1l0,-1l0,-1ZM136.5,395.5l0,-1l0,1l0,1l0,-1ZM129.5,407.5l-1,-1l1,-1l1,1ZM132.5,415.5c-1,1,-1,1,-1,1c0,0,-1,1,-2,1c0,0,-1,0,-1,0l-1,0l-1,0c0,0,0,1,0,1c-1,0,-1,1,-1,1c0,1,0,1,-1,1c0,1,0,1,-1,1c0,1,0,1,0,1c-1,0,-1,0,-1,0l-1,0l-1,0c0,0,-1,0,-2,0c0,0,0,-1,0,-1l1,1c1,0,1,-1,2,-1l1,0c0,-1,0,-1,1,-1l0,-1c1,0,1,0,1,0c0,-1,0,-1,1,-1c0,0,0,-1,0,-1c0,0,-1,0,-1,0c0,0,-1,0,-1,0c-1,0,-1,-1,-1,-1c0,0,0,-1,0,-1c0,-1,0,-1,0,-1c0,0,0,-1,1,-1c0,0,0,-1,0,-1c1,0,1,0,1,0l1,0c0,1,0,1,0,1l0,1c1,0,1,0,1,0c0,1,0,1,0,1c0,0,1,0,1,0l1,0c0,0,1,0,1,0c1,0,2,0,2,-1l1,0c0,0,0,-1,0,-1c-1,0,-1,0,-1,0c0,0,-1,0,-1,1c-1,0,-1,0,-1,0c0,0,0,-1,-1,-1c0,0,0,-1,0,-1c0,0,0,-1,0,-1l0,-1c1,0,1,-1,1,-1c0,0,1,-1,1,-1c0,0,1,1,1,1c0,0,0,1,1,1l0,1l0,1c0,1,0,1,0,2l0,1ZM129.5,411.5l0,1l1,0c0,0,0,-1,1,-1l-1,0l0,-1l-1,0l0,1ZM128.5,401.5l4,-2c0,1,0,1,0,1l-4,2ZM124.5,414.5c0,0,-1,0,-1,0c0,1,0,1,0,1l1,0l1,0c-1,0,-1,0,-1,0c0,-1,0,-1,0,-1ZM121.5,406.5l0,1l1,0c0,-1,0,-1,0,-1l0,-1l1,0l0,1c0,0,1,0,1,-1l0,-1l0,1l0,1c0,1,0,1,-1,1l-1,0c0,1,-1,1,-1,1c0,0,-1,-1,-1,-1l0,-1l1,0ZM126.5,425.5l-4,2c0,-1,0,-1,1,-1l4,-2ZM110.5,410.5l-1,-1l0,-2l2,1ZM108.5,417.5l0,1l-1,0c0,1,0,1,0,1l0,-1c0,-1,0,-1,0,-1l-1,0l0,1c0,0,0,1,0,1c0,1,0,1,-1,2l0,1c-1,0,-1,0,-1,1c-1,0,-1,0,-1,0c-1,1,-1,1,-2,1c-1,0,-1,0,-1,0c-1,0,-2,0,-2,0c-1,0,-1,-1,-2,-1c0,0,0,-1,-1,-1c0,-1,0,-1,0,-2c0,0,0,-1,0,-1c0,0,0,-1,0,-1c1,-1,1,-1,2,-2l0,1c-1,0,-1,0,-1,1c0,0,0,1,0,1c0,1,0,1,0,2c0,0,1,0,1,1c1,0,1,0,1,0l1,0c0,0,1,0,1,0c0,0,1,0,2,0c0,0,1,0,1,-1c1,0,1,0,1,-1c1,0,1,-1,1,-1c0,-1,0,-2,0,-2c0,0,0,-1,-1,-1l1,-2l0,1c0,0,1,0,1,0l1,0l1,0l1,-1l1,-1l1,0l1,-1l1,0l1,-1c0,0,1,0,1,0l1,0c0,0,0,1,0,1c1,0,1,0,1,0l0,1l0,1c0,0,0,1,0,1l-1,1c0,0,-1,0,-1,1l-1,0c-1,0,-1,0,-1,0l-2,0l-1,0l-1,0ZM112.5,413.5l0,1l-1,0l-1,1l-1,1l3,0l1,-1c0,0,1,0,2,0c0,0,1,0,1,-1l0,-1l-1,0c0,0,-1,0,-1,0l-1,0l-1,0ZM102.5,405.5c0,-1,0,-1,1,-1c0,-1,0,-1,0,-1l1,0c0,1,0,1,0,1c0,1,0,1,0,1l0,1l0,1l0,1l-1,-1l-1,1c0,0,0,1,-1,1l-1,0l0,-1l1,0l1,0l0,-1l1,0l-1,0l0,-1l0,-1ZM103.5,405.5c0,0,-1,0,-1,0l1,0l0,1l0,-1ZM200.5,415.5c1,0,1,0,1,0c1,0,1,0,1,0c0,0,0,-1,0,-1l0,-2l0,-6c-1,0,-1,0,-1,-1c0,0,0,-1,1,-1c0,0,0,-1,0,-1c0,0,0,1,0,1c1,1,1,1,1,1l0,1l0,1l0,-1c0,1,0,1,0,1c0,0,0,1,0,2c0,0,0,1,0,2c0,1,0,1,0,1l0,2c0,1,0,1,0,1c-1,1,-1,1,-1,1c0,0,0,1,-1,1c-1,0,-1,0,-1,0l-1,0l-1,0l-1,0c-1,0,-1,0,-1,0c0,0,0,-1,0,-1l0,-1c-1,0,-1,0,-2,0c0,1,-1,1,-1,1c-1,0,-2,0,-3,0c0,0,-1,0,-2,0c-1,0,-2,1,-3,1c-1,0,-2,0,-3,0c-1,0,-2,0,-3,0c-1,0,-2,0,-3,0c0,0,-1,0,-2,0l-1,0l-2,0c-1,0,-1,0,-1,0c-1,0,-1,-1,-1,-1l0,1l0,1c0,1,0,1,-1,1l-1,-1c0,0,0,-1,0,-1l-1,-1l-1,0c0,0,0,1,0,1c-1,0,-1,0,-1,0c0,1,0,1,0,1l0,1c0,1,0,1,0,1l1,2l0,2c0,1,0,1,0,1l0,1l0,1l0,-1l0,-1l-1,0l0,-1l0,-3l0,-1l0,-1l0,-1l0,-1c0,-1,0,-1,1,-2l1,-1l1,-1c1,1,2,1,3,2l1,0l1,0l1,0l1,0c0,0,1,0,2,0c1,0,2,0,3,0c1,0,1,0,2,0c1,0,2,0,2,0c1,0,2,0,3,0c1,0,1,0,2,0c1,-1,2,-1,3,-1c1,0,2,0,3,0c1,0,2,0,2,0l1,0c0,-1,0,-1,0,-1c-1,0,-1,-1,-1,-1l-1,0l-1,0c-1,0,-2,0,-4,0c-2,1,-4,1,-6,1c-2,0,-3,0,-5,0c-1,0,-3,0,-3,0l0,-1c0,0,0,-1,0,-1c0,-1,0,-1,1,-1c0,0,0,-1,1,-1c0,-1,1,-2,2,-2c1,-1,2,-2,3,-2c0,0,1,0,1,0l-1,1c0,0,0,1,-1,1c-1,0,-2,1,-3,1c-1,1,-1,2,-2,3c0,0,1,1,1,1l1,0l1,0c1,0,2,0,4,-1c3,0,5,0,7,0c2,-1,3,-1,3,-1c1,0,1,0,1,0c1,0,1,1,2,1c0,0,1,0,1,1l0,1c0,0,0,1,0,1c-1,1,-1,1,-1,1l1,0l2,0ZM200.5,401.5l5,-2l-1,0c0,1,0,1,0,1l-4,2ZM178.5,398.5c0,-1,1,-1,1,-1l1,0c0,0,1,0,1,1l-1,0l0,1l0,1l1,0l0,1l-2,-1l0,1c-1,1,-1,1,-1,1l-1,0l-1,0l1,0l1,-1l0,-1l1,0l-1,0c0,-1,0,-1,0,-1l0,-1ZM179.5,398.5l0,1l1,0l0,-1ZM163.5,406.5c0,0,1,0,1,0c1,0,1,0,1,0c1,0,2,0,2,0c0,1,0,1,0,1l0,1c0,0,-1,0,-1,0l-1,1l-1,0l-1,0l2,-1c1,0,1,-1,2,-1c-1,0,-1,0,-1,0c0,0,-1,0,-1,0c0,0,-1,0,-1,0c0,0,-1,0,-1,0c0,-1,0,-1,0,-1ZM235.5,407.5l-1,-1l-1,2l-1,-1l0,-2l2,1l1,-1l1,1ZM237.5,415.5c-1,0,-1,0,-1,0c0,1,0,1,0,1c-1,1,-2,1,-2,1c-1,0,-1,0,-2,0l-1,0l-1,0c0,0,0,1,0,1c0,0,0,1,0,1c-1,1,-1,1,-1,1c0,1,-1,1,-1,1c0,1,-1,1,-1,1l-1,0c-1,0,-1,0,-1,0c-1,0,-1,0,-2,0c0,0,-1,0,-1,0c0,0,0,-1,0,-1c0,0,1,0,1,1l1,0c0,0,1,-1,1,-1c0,0,1,0,1,0c1,-1,1,-1,1,-1c0,0,1,0,1,-1l1,0c0,-1,0,-1,0,-1c0,0,0,-1,0,-1c-1,0,-1,0,-1,0c-1,0,-1,0,-1,0c0,0,0,-1,-1,-1c0,0,0,-1,0,-1c1,-1,1,-1,1,-1c0,0,0,-1,0,-1l1,0c0,0,0,-1,0,-1c1,0,1,0,1,0c0,1,0,1,1,1l0,1c0,1,0,1,0,1c1,0,1,0,1,0c1,0,1,0,1,0c1,0,1,0,2,0c1,0,1,0,2,-1c0,0,0,-1,0,-1l-1,0c0,0,0,1,0,1c0,0,-1,0,-1,0l-1,0c0,0,0,-1,0,-1c0,0,-1,-1,-1,-1c0,-1,1,-1,1,-1c0,0,0,-1,0,-1l0,-1c1,0,1,-1,2,-1c0,0,0,1,1,1c0,0,0,1,0,1l0,1l1,0c0,0,0,1,0,1c0,1,0,1,0,2l0,1ZM233.5,411.5c0,0,1,0,1,0c0,0,0,1,0,1c0,0,1,0,1,0c0,-1,0,-1,0,-1c-1,-1,-1,-1,-1,-1c0,1,0,1,0,1c-1,0,-1,0,-1,0ZM233.5,398.5c0,-1,0,-1,0,-1c1,0,1,0,1,0c0,0,1,0,1,0l0,1l0,1l0,1l0,1l-1,-1l0,1l-1,0c0,1,-1,1,-1,1l-1,0l1,-1l1,0l0,-1c0,-1,0,-1,0,-1l0,-1ZM234.5,398.5c-1,0,-1,0,-1,0l1,1l0,-1ZM228.5,414.5c0,0,-1,0,-1,0c0,1,0,1,0,1c1,0,1,0,1,0l1,0c0,-1,0,-1,0,-1c-1,0,-1,0,-1,0ZM220.5,406.5c0,0,0,-1,0,-1c0,0,0,-1,0,-1c0,0,1,-1,1,-1c0,0,0,1,0,1c0,1,1,1,1,1l0,1c0,0,-1,0,-1,1l0,-1c0,1,0,2,0,3c1,1,1,2,1,3c0,1,0,2,0,3l0,1c-1,0,-1,1,-1,1c0,1,-1,1,-1,2l-1,0c0,1,0,1,-1,1c-1,0,-1,0,-2,0l-1,0c0,0,-1,0,-1,0c-1,0,-1,0,-1,-1c-1,0,-1,0,-1,-1l0,-1c0,-1,0,-1,0,-2c0,0,0,-1,0,-1l1,-1l1,0l-1,0l0,1c0,0,0,1,0,1c0,0,0,1,0,1c0,1,0,1,0,2c1,0,1,0,2,0c0,0,1,0,1,0c1,0,2,0,3,0c1,-1,1,-1,2,-1c0,0,0,-1,0,-1c0,-1,0,-3,0,-4c0,-1,-1,-2,-1,-3c0,-1,0,-2,0,-3ZM214.5,401.5l1,-1l1,0c0,0,0,1,0,1c0,0,0,1,0,1c0,0,0,1,0,1l0,1l-1,0l-1,1l-1,0l0,1l-1,0l1,-1c0,0,1,-1,1,-1l1,-1l-1,0c0,0,0,-1,0,-1l0,-1ZM215.5,401.5c0,0,0,1,0,1ZM260.5,416.5c0,1,0,1,0,1l-1,0l0,-1c0,0,-1,0,-1,0l-1,-1l0,1c0,0,0,1,-1,1l-1,0l-2,0c0,0,-1,0,-2,-1c0,0,0,-1,0,-2l-1,-8l1,-2l1,10l0,1c0,0,1,0,1,0l2,0c1,0,1,0,1,0l1,0l1,-1c0,-1,0,-1,0,-2l1,0l1,0c1,1,1,1,1,1l0,1l0,1l0,1l-1,0ZM258.5,414.5l1,0l1,1c0,0,0,-1,0,-1c0,0,-1,-1,-1,-1l-1,1ZM256.5,404.5l4,-2l0,1l-1,0l-4,2ZM248.5,401.5l1,0l1,0c1,0,1,0,2,0l1,0c0,1,0,1,-1,1l-1,0l-1,0l-1,0l-1,0c0,0,-1,0,-1,0c0,0,1,-1,1,-1ZM356.5,407.5l-2,-1l1,-1l2,1ZM358.5,415.5c0,1,0,1,-1,1c0,0,-1,1,-1,1c-1,0,-2,0,-2,0l-1,0l-1,0l0,-1c-1,0,-1,0,-1,0c0,-1,0,-1,0,-1c0,1,-1,1,-1,1c0,1,-1,1,-1,1c-1,0,-1,-1,-2,-2l0,1c-1,1,-1,1,-2,1c-1,0,-1,0,-2,-2c0,1,0,1,0,1c-1,1,-1,1,-2,1l-1,0c-1,0,-1,0,-1,0c-1,0,-1,0,-1,-1l-1,0l0,-1c0,1,0,1,-1,2c-1,0,-1,0,-1,0l-1,0l-2,0c0,0,-1,0,-1,-1c0,-1,-1,-1,-1,-1c0,1,0,1,0,1l-1,0c0,0,-1,1,-1,1c0,0,-1,0,-2,0l-1,0l-1,-1l0,-1c0,-1,0,-1,0,-1l1,0l0,1l1,0l1,0c0,0,1,0,1,0l1,0c0,0,0,-1,1,-1c0,0,0,-1,0,-2l0,-1l-1,-1l1,-1l0,-1l1,1c0,0,0,1,0,2l0,2c0,1,0,1,0,1l1,0c0,1,0,1,0,1c0,0,1,0,1,0l1,0l1,0l1,0l1,0l0,-1l0,-1l1,0l0,1c0,1,0,1,0,1c1,0,1,0,2,0l1,0l1,0c1,0,1,-1,2,-2l0,1c0,1,1,1,1,1c1,0,1,0,2,0c0,0,0,-1,0,-1l1,-1c0,1,0,1,0,1c0,1,1,1,1,1c0,0,1,0,1,0c0,0,0,-1,0,-1c1,0,1,0,1,-1c1,2,1,2,2,2l1,0c1,0,1,0,2,0c1,0,1,0,2,-1c0,0,0,-1,0,-1c-1,0,-1,0,-1,0l0,1c-1,0,-1,0,-1,0c0,0,-1,0,-1,0c0,0,0,-1,0,-1l-1,0c0,0,0,-1,0,-1c0,0,0,-1,1,-1l0,-1c0,0,0,-1,0,-1c1,0,1,-1,1,-1c1,0,1,1,1,1c1,0,1,1,1,1l0,1l1,1c0,1,0,1,0,2l-1,1ZM355.5,411.5l1,1c1,0,1,-1,1,-1c0,0,-1,0,-1,0l0,-1c0,0,-1,0,-1,1ZM354.5,401.5l5,-2l-1,0c0,1,0,1,0,1l-4,2ZM346.5,404.5l4,-2l0,1l-4,2ZM338.5,411.5l-1,-1l-1,1l-1,-1l0,-1l2,1l1,-1l1,1ZM335.5,404.5l5,-2l-1,1l-4,2ZM329.5,406.5l-2,-1l1,-2l2,1ZM326.5,396.5c1,0,1,0,1,0c1,0,1,0,2,0c0,0,1,0,1,0c0,0,1,0,1,1c-1,0,-1,1,-1,1l-1,0c0,0,0,1,0,1c-1,0,-1,0,-1,0l-1,0l1,-1c1,0,1,0,2,-1c0,0,-1,0,-1,0l-1,0c0,0,-1,0,-1,0l-1,0l0,-1ZM323.5,404.5c0,0,-1,0,-2,1c-2,0,-3,1,-4,1c-2,1,-2,1,-3,2c0,0,0,1,0,1l2,1c0,0,1,1,2,1c0,1,0,1,0,2c0,0,1,1,1,1c0,1,-1,1,-1,1c0,1,0,1,0,1c-1,0,-1,1,-1,1c0,0,-1,0,-1,0l-1,0l-1,0c0,1,-1,1,-1,1c0,1,0,2,0,2c-1,0,-1,1,-1,1l-1,1l-1,0c0,0,0,1,-1,1l-1,0c0,0,-1,0,-2,-1l1,0c1,0,1,0,2,0c0,-1,0,-1,1,-1l1,-1c1,-1,1,-1,1,-1c0,-1,0,-1,1,-2l-1,-1l0,-1c0,0,0,-1,0,-1l1,0c0,0,0,1,0,1c0,0,1,0,1,0l1,0c1,0,1,0,1,0c1,0,1,0,1,0c0,0,1,0,1,0c0,-1,0,-1,0,-1l0,-1c-1,0,-1,-1,-2,-1c0,-1,0,-1,-1,-1c-1,0,-1,0,-1,0c0,0,0,-1,0,-1c-1,0,-1,0,-1,0c0,0,0,-1,0,-1l0,-1c0,-1,0,-1,0,-1l1,0c0,-1,0,-1,0,-1c1,0,2,-1,3,-1c2,-1,3,-1,4,-2c1,0,2,0,2,0ZM317.5,398.5c1,-1,1,-1,1,-1c0,0,1,0,1,0c0,0,1,0,1,1l-1,0l0,1l0,1l1,0l0,1l-1,-1l-1,1c-1,1,-1,1,-1,1l-1,0l-1,0l1,0l1,-1l0,-1l1,0l-1,0c0,-1,0,-1,0,-1l0,-1ZM319.5,398.5l-1,0l0,1l1,0l0,-1ZM311.5,401.5l1,-1c1,0,1,0,1,0c0,0,0,1,0,1c0,0,0,1,0,1c0,0,0,1,0,1l0,1l-1,0l-1,1l-1,0l0,1l-1,0l0,-1l1,0c0,0,0,-1,1,-1l0,-1l1,0l-1,0c0,0,0,-1,0,-1l0,-1ZM312.5,401.5c0,0,-1,0,-1,0c0,0,0,1,1,1ZM304.5,413.5l0,1c0,0,1,0,1,0c0,0,0,-1,0,-1c0,0,-1,0,-1,0ZM304.5,421.5c-1,0,-1,0,-1,1c0,0,-1,0,-2,0c0,0,-1,0,-2,-1l-1,0c1,0,1,0,1,0l1,0c0,0,1,0,1,0l1,0c0,-1,1,-1,1,-1c0,0,1,0,1,-1l1,-1l0,-1c1,0,1,-1,1,-1l0,-1c0,0,0,1,-1,1c0,0,-1,0,-1,0l-1,0c0,0,0,-1,0,-1c0,0,0,-1,0,-1c0,0,0,-1,0,-1c0,0,0,-1,0,-1c1,0,1,-1,1,-1l1,0c1,0,1,1,1,1c0,0,0,1,0,1c0,0,0,1,1,1c0,0,0,1,0,1c0,0,0,1,0,1c-1,1,-1,2,-1,3c0,0,-1,1,-1,1l-1,1ZM286.5,415.5l-2,-1l1,-1l2,1ZM299.5,417.5l-1,1l0,1c-1,0,-1,0,-1,0c-1,1,-1,1,-2,1c0,0,-1,0,-1,0c-1,1,-2,1,-3,1c-1,0,-2,1,-3,1c-1,0,-1,0,-2,0c-1,0,-1,0,-2,0c-1,0,-1,0,-2,0c-1,0,-1,0,-2,0c-1,-1,-2,-1,-2,-1c-1,0,-2,0,-3,-1c-1,0,-2,-1,-3,-1c-1,-1,-2,-1,-3,-2c0,-1,0,-1,0,-1c1,0,1,1,1,1c0,0,1,0,1,0c1,1,2,1,2,1c1,0,2,1,2,1c0,0,1,0,2,0c0,0,1,1,1,1c1,0,2,0,3,0c0,0,1,0,1,0c1,0,2,0,2,0c1,0,1,0,2,0c1,0,1,0,2,0c1,0,2,0,2,0c2,-1,3,-1,3,-1c1,0,2,0,3,-1c1,0,2,-1,2,-2c0,0,0,-1,0,-1c0,-1,-1,-1,-1,-1c0,0,0,-1,0,-1l0,-2l1,1c0,1,0,1,0,1c0,0,1,0,1,0l0,1c0,1,0,1,0,1l0,1c0,1,0,1,0,1ZM277.5,408.5l0,-1l3,-1l6,-2l4,-1l1,0l-1,1l-1,0l-1,1l-2,0l-6,2l-3,2l-1,0ZM281.5,467.5l-5,3c0,-1,0,-1,0,-2l6,-2ZM374.5,464.5l0,-1l0,-1l0,-9l1,-2l0,11l0,1c0,0,0,1,-1,1ZM341.5,454.5c1,0,1,-1,1,-1c1,0,1,0,2,0c0,0,1,0,1,0c0,1,1,1,1,1c-1,1,-1,1,-1,1c0,0,0,1,-1,1c-1,0,-1,0,-1,0l-1,0l1,0c1,-1,1,-1,2,-1c0,0,-1,-1,-1,-1l-1,0c0,0,-1,0,-1,1l-1,0c0,-1,0,-1,0,-1ZM269.5,460.5l0,-1c0,0,1,0,1,0c0,-1,0,-1,0,-1l0,-1l0,-1l0,-1l-1,-1c0,-1,1,-1,1,-1l0,1l0,1l0,1l0,1l0,1l1,0l0,-1l1,0l1,0l1,0l0,1c0,1,-1,1,-1,1c-1,0,-1,0,-1,0c-1,1,-1,1,-1,1ZM272.5,458.5l-1,0l-1,1l1,0c0,0,1,0,1,0c1,-1,1,-1,1,-1l-1,0ZM295.5,464.5l1,-2l0,-1l-1,-8l1,-3l0,11l0,1c0,1,0,1,-1,2ZM291.5,463.5l-1,0l-1,0c0,-1,-1,-1,-1,-2c0,1,0,1,-1,2c0,0,-1,0,-1,0c-1,0,-1,0,-2,0c0,-1,-1,-1,-1,-2c0,1,0,1,-1,1c0,0,-1,0,-1,0c-1,0,-1,0,-2,0c0,0,0,-1,0,-1c0,0,0,-1,0,-1c1,0,1,0,1,-1c1,0,1,0,2,-1l1,-1l0,-1c0,0,1,-1,1,-1l0,1l0,1l0,3l0,1c0,0,1,0,1,0c0,0,0,1,1,1c0,0,1,-1,1,-1c0,0,1,-1,1,-1c0,0,0,-1,0,-2c-1,-1,-1,-1,-1,-2c0,-1,0,-1,0,-1l0,-1l1,-1l0,3l0,2l1,1c0,0,0,1,0,1c0,1,1,1,1,1l1,0l1,0l0,-1l0,-1l-1,-1l0,-1l0,-1l0,-1l0,-1l0,1c1,0,1,1,1,1l0,2c0,1,0,1,0,2c0,0,0,1,0,2l-1,1ZM283.5,458.5l0,1c-1,0,-1,0,-1,0l-1,0c0,1,0,1,-1,1c1,0,2,0,2,0c1,0,1,0,1,0ZM315.5,459.5c0,0,0,-1,0,-1c0,-1,0,-2,0,-3c0,-1,0,-2,0,-3c0,0,-1,0,-1,-1c0,0,1,0,1,-1c0,0,0,1,1,1l1,0c0,1,-1,1,-1,1c0,1,0,1,0,1c0,1,0,1,0,2c0,1,0,2,0,3c0,1,0,1,0,1c0,1,0,1,0,1c0,1,0,1,0,1c0,0,0,1,0,1c0,0,-1,1,-1,1c0,0,0,1,-1,1c0,0,1,0,1,0c1,0,1,0,1,0l1,0l0,1c0,1,0,1,-1,1c0,1,0,1,0,1c0,0,-1,1,-1,1c-1,0,-2,1,-3,1c-1,0,-1,0,-2,0c-1,0,-1,0,-1,0c0,0,-1,0,-1,0c-1,0,-2,0,-2,-1c0,0,-1,0,-1,-1c0,0,0,-1,0,-1l0,-1c0,0,0,-1,0,-1c1,-1,1,-2,1,-2c0,0,0,-1,0,-1c0,0,1,1,1,1c-1,0,-1,1,-1,1c0,1,0,1,0,2c0,1,0,1,1,2c1,0,1,1,3,1c1,0,1,0,1,-1c1,0,1,0,1,0c1,0,2,0,3,-1l1,0c-1,-1,-1,-1,-2,-1c-1,0,-1,0,-1,0c-1,-1,-1,-1,-1,-1c0,0,1,-1,1,-1m0,0c0,0,0,-1,0,-1c1,0,1,0,2,0c0,0,0,-1,0,-1c0,-1,0,-1,0,-1c0,0,0,-1,0,-1m-2,-12l4,-2l0,1l-4,2ZM373.5,444.5l4,-2l0,1l-4,2ZM369.5,463.5l-1,0c0,0,-1,0,-1,-1l-1,0c0,1,-1,1,-1,1l-1,0l-1,0l0,1l0,1c0,0,-1,1,-1,2l-1,0c0,1,0,1,0,1c-1,0,-1,1,-1,1c-1,0,-1,0,-1,0c-1,0,-1,0,-1,0l-1,0c0,0,-1,0,-1,0c-1,0,-1,-1,-1,-1l1,0c1,0,1,0,2,0c0,0,1,0,1,-1c0,0,1,0,1,0c0,0,0,-1,1,-1c0,0,0,-1,0,-1c0,0,1,-1,1,-1c0,-1,0,-1,0,-1l-1,0c0,-1,0,-1,0,-1l0,-1l1,0l0,-1l0,1l1,1l1,0c1,0,1,0,1,0l1,-1l0,-1c1,0,1,-1,1,-1l1,-1c1,0,1,0,1,1c0,0,1,0,1,1l0,1c0,1,0,1,0,1c0,0,0,1,-1,1ZM367.5,461.5l1,0l1,0c0,-1,0,-1,0,-1c-1,0,-1,0,-1,0c0,0,-1,0,-1,0c0,1,0,1,0,1ZM364.5,446.5c0,-1,0,-1,1,-1c0,0,1,0,1,0c1,0,1,0,1,0c1,0,1,1,1,1c0,0,0,1,-1,1l0,1c0,0,-1,0,-1,0c0,0,-1,0,-1,0l-1,0l2,-1c0,0,1,0,1,-1l-1,0c-1,0,-1,0,-2,0l0,1l0,-1ZM362.5,474.5l-4,2c0,-1,0,-1,0,-1l4,-2ZM356.5,454.5c-1,1,-1,1,-1,1l-1,0c0,0,-1,0,-1,1c-1,1,-2,1,-2,2l1,0l1,0l1,1c1,0,1,0,1,0c0,1,0,1,0,1l0,1c0,1,-1,1,-1,2c-1,0,-1,0,-2,1c-1,0,-2,0,-2,0c-1,0,-1,1,-2,1c0,0,-1,0,-1,0c-1,0,-1,0,-1,0c-1,0,-1,0,-2,0c-1,1,-2,1,-2,1c-1,0,-2,0,-3,0c0,-1,-1,-1,-1,-1c-1,0,-1,0,-2,0c-1,0,-1,0,-2,0c0,0,-1,-1,-2,-1c-1,0,-2,-1,-3,-2c0,0,-1,0,-1,-1c0,0,-1,0,-1,0c0,0,0,-1,0,-1c0,0,1,0,1,0c0,0,0,1,0,1c1,0,1,0,2,0c0,1,1,1,2,1c1,1,2,1,3,1c1,0,2,0,3,1c1,0,2,0,4,0c1,0,1,0,2,0c1,0,2,-1,3,-1c0,0,1,0,2,0c1,-1,2,-1,3,-1c1,-1,2,-1,2,-1c0,-1,0,-1,0,-1l-2,0c-1,0,-1,0,-1,0c0,0,0,-1,0,-1c-1,0,-1,0,-1,-1l1,-1l0,-1c0,0,0,-1,1,-1c0,0,0,-1,0,-1c1,0,1,0,1,0c0,-1,1,-1,1,-1c0,0,1,0,1,0c0,0,1,0,1,0c0,1,0,1,0,1ZM348.5,446.5c-1,1,-2,1,-4,1l-1,0l-1,0l-1,-1c0,1,0,1,-1,1l1,-1l1,-1c1,1,2,1,3,1l1,0l1,0l1,-1l1,0ZM287.5,447.5c0,0,0,-1,0,-1c0,-1,0,-1,-1,-1l0,-1l1,0l0,1l0,1l0,1ZM286.5,449.5l0,1l1,0l0,-1l0,-1l0,1l1,0l1,0l0,-1c0,1,0,1,0,1l0,1l-1,0l-1,0l0,1l-1,0l0,-1l0,-1ZM320.5,465.5l0,-1l0,-1l0,-8l1,-3l0,11c0,1,0,1,0,1c0,1,-1,1,-1,1ZM322.5,467.5l-3,2c0,-1,0,-1,0,-1l4,-2ZM202.5,451.5l-6,3c0,-1,1,-1,1,-1l5,-3ZM162.5,446.5l0,1l-1,0c0,0,0,1,0,1l0,1c0,0,0,1,0,1l0,-1l0,-1l0,-1c0,-1,0,-1,0,-1c0,0,1,-1,2,-1l1,0ZM162.5,448.5c1,0,1,-1,1,-1c0,0,1,0,1,0c1,0,1,0,1,1l-1,1l1,1l0,1l-1,-1l-1,1c-1,1,-1,1,-1,1l-1,0l-1,0l1,0l1,-1l0,-1l1,0l-1,0c0,-1,0,-1,0,-1l0,-1ZM164.5,448.5l-1,0l0,1l1,0l0,-1ZM167.5,452.5c0,-1,0,-1,1,-1c0,0,1,0,1,0c1,0,1,0,1,0c1,0,1,1,1,1c0,0,0,1,-1,1l0,1l-1,0c0,0,-1,0,-1,0c-1,0,-1,0,-1,0l2,-1c0,0,1,0,1,-1l-1,0c-1,0,-1,0,-2,0l0,1l0,-1ZM100.5,461.5c0,1,0,2,0,2l0,1l-1,0c0,1,0,1,0,1l1,0l0,1l-1,0l0,1c0,0,-1,0,-1,0l0,1c-1,0,-1,0,-2,0l0,1l-1,0l-1,0l-1,0l0,1l-1,0l0,1l-1,0l-3,0l-3,0l-1,-1c0,-1,-1,-1,-1,-1c-1,0,-2,0,-2,-1l-1,0l-1,0l0,-1l-1,0l0,-1l-1,0l0,-1l1,0l-1,-1l0,-1l0,-1l-1,0l0,-1l0,-1c0,0,1,0,1,0l0,-1l0,-1l0,-1l1,0l-1,-1l1,-1l1,0l0,-1l1,0l2,-1l1,0l1,-1l1,-1l0,-1l3,0l3,0l1,1l1,1l1,1l2,0l0,1l1,0l1,0l0,1l1,0c0,0,1,1,1,1l-1,1l1,1l0,1l0,1ZM91.5,471.5l1,0l0,-1l1,0l0,-1l1,0c0,0,1,0,1,0l0,-1l1,0c1,0,1,0,1,-1l1,0c0,0,0,-1,0,-1l1,0l1,0l-1,-1l0,-1l1,0l0,-1l0,-1l0,-1c0,-1,0,-2,0,-2c0,0,0,-1,0,-1l-1,0c0,0,0,-1,0,-1l1,-1c-1,0,-1,0,-2,-1l-1,-1l-1,0l-1,-1l-1,0c-1,0,-1,0,-1,-1l-1,-1l-1,0l-1,0l-2,0l-1,0l-2,0l-1,1c0,1,0,1,-1,1l-2,0l0,1l-1,0l-1,0l0,1l-1,0c0,0,0,1,-1,1l1,1l-1,1l0,1l0,1c0,0,0,1,0,1l0,1l0,1l0,1l1,0l0,1l-1,1l1,0l1,1l1,0l0,1l1,0l1,0l1,1c1,0,1,0,1,0l1,1c0,1,0,1,0,1l3,0ZM97.5,456.5l-1,0l-1,-1c-1,0,-1,0,-1,0c0,-1,0,-1,0,-1l1,0l0,1l1,0l1,1ZM97.5,466.5l0,1l-1,0l-1,0l0,1l-1,0l0,-1l1,0l0,-1c1,0,1,0,1,-1l1,1ZM93.5,468.5l-1,1l-1,0l-3,0l-3,0c-1,0,-1,0,-1,-1c0,0,0,-1,0,-1c1,0,1,0,1,0l3,0l3,0c1,0,1,0,1,0l1,0l0,1ZM93.5,454.5c0,0,0,1,-1,1l-1,0l-3,0l-3,0l-1,0l0,-1c0,0,0,-1,1,-1l3,0l3,0c1,0,1,0,1,0c0,0,1,0,1,0l0,1ZM91.5,457.5l1,-1c0,0,1,0,1,0c1,0,1,0,1,0c0,0,1,1,1,1l1,1l1,-1l0,1l1,0l0,1l0,1l0,1l0,1l0,1c0,1,-1,1,-1,1l0,1l-1,-1l0,1l-1,0l-1,0l0,1l-1,0c-1,0,-1,0,-1,0c0,0,0,-1,0,-1l-1,0l-3,0l-3,0l0,1c0,0,-1,0,-1,0c-1,0,-1,0,-1,0c-1,-1,-1,-1,-1,-1l-1,0l0,-1l-1,1l0,-1l-1,-1l0,-1l0,-1c0,-1,0,-1,0,-1c0,0,0,-1,0,-1l0,-1l1,0c0,-1,0,-1,0,-1l1,1c0,0,0,-1,1,-1l0,-1l1,0l1,0l1,0l0,1l3,0ZM91.5,465.5l1,0c0,0,1,0,1,0l1,0l1,0l0,-1c1,0,1,0,1,0l1,0l0,-1l1,-1l0,-1c0,-1,0,-1,0,-2c0,0,-1,-1,-1,-1l-1,0l-1,0l0,-1l-1,0l0,-1l-1,0l-1,0l0,1l-1,0l-3,0l-3,0l0,-1l-1,0c0,0,-1,0,-1,0l0,1l-1,0c-1,1,-1,1,-1,1l-1,0l-1,1l0,1l0,1l0,1l0,1c1,1,1,1,1,1l1,0l1,0l0,1l1,0l1,0c0,0,1,0,1,0l3,0l3,0ZM90.5,460.5l-1,0l1,1l0,1l-1,0c0,1,1,1,1,1l1,0c0,0,-1,0,-1,0c-1,0,-1,0,-1,0l0,-1c0,-1,0,-1,0,-1l0,-1c0,0,1,-1,1,-1ZM87.5,460.5l-1,0l1,1l0,1l-1,0c0,1,0,1,1,1l1,0c-1,0,-1,0,-1,0c-1,0,-1,0,-1,0l0,-1c0,-1,0,-1,0,-1l0,-1c0,0,1,-1,1,-1ZM80.5,456.5l0,-1l1,0l1,0l0,-1l1,0l0,1l-1,0l-1,1l-1,0ZM80.5,466.5l0,-1c1,1,1,1,1,1l1,1l1,0c0,1,0,1,0,1l-1,0c-1,-1,-1,-1,-2,-1l0,-1ZM150.5,467.5l-1,-1l1,-1l1,1ZM148.5,463.5l-1,0l-2,0c0,0,-1,0,-1,0c-1,-1,-1,-1,-1,-2l-1,-9l1,-2l1,10l0,1c0,1,1,1,1,1l2,0l1,0c0,0,1,0,1,0c1,-1,1,-1,1,-1l1,0l-1,0c0,-1,0,-1,0,-1c0,0,0,-1,0,-1l0,-2c1,0,1,0,1,1l0,1l0,1l0,1c0,0,0,1,0,1c-1,1,-1,1,-2,1c0,0,-1,0,-1,0ZM149.5,470.5l-3,2c0,-1,0,-1,0,-2l4,-1ZM135.5,462.5c1,0,1,0,1,0c1,0,1,0,1,0c0,-1,1,-1,1,-1l0,-1l0,-2l-1,-6l0,-1l0,-1c1,0,1,0,1,0c0,0,0,1,0,1c0,0,1,0,1,0c0,1,0,1,0,1c0,1,0,1,0,1l-1,0c0,0,1,1,1,2c0,0,0,1,0,3l0,1l0,1c0,0,0,1,0,1c0,0,0,1,-1,1c0,0,0,1,0,1c0,0,-1,0,-1,0l-1,0l-1,0c-1,0,-1,0,-1,0c-1,0,-1,0,-1,0c-1,0,-1,0,-1,-1l-1,0l-1,1l-1,0l-1,0l-1,0l-1,0c-1,0,-1,0,-1,0l-1,0l0,-1c0,0,0,1,-1,1l-1,0l-1,0l-1,0c-1,0,-2,0,-2,0c-1,-1,-1,-1,-1,-2l0,-9l0,-2l1,10l0,1c1,1,1,1,2,1l1,0l1,0c1,0,1,-1,1,-1c0,0,1,0,1,0c0,-1,0,-1,0,-1l1,0c0,1,-1,1,-1,1c1,0,1,0,1,1c1,0,1,0,1,0l1,0l1,0l1,0c0,0,0,-1,0,-1l1,0l0,-1c-1,0,-1,0,-1,0c-1,0,-1,0,-1,0l1,-2c0,0,1,0,1,0c0,-1,1,-1,1,-1c0,0,1,0,1,0l0,1l1,0c1,1,1,1,1,1l-1,1l0,1l-1,0c0,0,1,0,1,0l1,1l1,0ZM135.5,445.5c1,0,1,0,1,0c1,0,1,0,2,0c0,0,1,0,1,0c0,0,1,0,1,1c-1,0,-1,1,-1,1l-1,1c-1,0,-1,0,-1,0l-1,0l1,-1c1,0,1,0,2,-1c0,0,-1,0,-1,0l-1,0c0,0,-1,0,-1,0l-1,1l0,-1l0,-1ZM132.5,467.5l-4,2c0,-1,0,-1,0,-1l4,-2ZM124.5,467.5l-2,0l1,-2l2,1ZM122.5,450.5l4,-2l0,1l-4,2ZM114.5,462.5l0,1l-1,0c-1,0,-1,0,-2,0l-1,1l-1,0l-1,0c0,-1,0,-1,0,-1c0,-1,0,-1,0,-1l0,-1c0,0,0,1,1,1c1,0,1,0,2,-1c0,0,1,0,1,0l1,0l1,0c0,-1,0,-1,-1,-1c0,-1,0,-1,0,-2l-1,0l-1,-1l-1,0l0,-2c1,0,1,0,1,0c1,0,1,0,1,0c0,1,0,1,0,1c1,0,1,0,1,1l1,1c0,0,0,1,0,1c0,0,0,1,0,1c0,1,0,1,0,1c0,1,0,1,0,1ZM112.5,467.5l-5,2c1,-1,1,-1,1,-1l4,-2ZM190.5,467.5l-1,-1l1,-1l1,1ZM188.5,462.5c0,0,1,0,1,0c1,-1,1,-1,1,-1l1,0c-1,-1,-1,-1,-1,-1c0,0,0,-1,0,-1l0,-2c1,0,1,0,1,1l0,1l0,1l0,1c0,0,0,1,0,1c-1,1,-1,1,-2,1c0,0,-1,0,-1,0l-1,0l-12,0c0,1,0,1,0,1c0,1,0,1,0,2l-1,-1c0,-1,0,-1,0,-1l0,-1c-1,0,-1,-1,-1,-1c-1,1,-1,1,-1,1c-1,0,-1,0,-1,0l-1,0c-1,0,-1,0,-2,0c0,0,-1,0,-1,-1c0,0,0,-1,0,-1l0,-1c0,0,-1,1,-1,1c0,0,-1,0,-1,0c0,1,0,1,0,1c0,0,-1,0,-1,0l-1,0l0,1l0,1l0,1c0,0,-1,1,-1,1l0,1c0,0,-1,0,-1,0l0,1l-1,0c0,0,-1,0,-1,0l-1,0l-1,0c-1,0,-1,0,-1,-1l-1,0l1,0l1,0c0,0,1,0,1,0c1,0,1,0,1,0c0,0,1,0,1,-1l1,-1l1,-1c0,0,0,-1,0,-1c1,0,1,0,1,-1l-1,0l1,-2l1,0c0,0,1,0,1,0c0,0,1,-1,1,-1l1,0c0,0,0,-1,0,-1c0,1,0,1,0,1l0,1c0,1,0,1,1,1l0,1c0,0,1,0,1,0l1,0l1,0c1,0,1,-1,1,-1c0,0,1,0,1,0c0,0,0,-1,0,-1l1,0c0,1,0,1,0,1c0,1,1,1,1,1l1,-1l1,-1l2,-1c0,0,1,-1,1,-1c1,0,1,0,1,0l1,0c1,0,1,0,2,0c0,0,1,1,1,1l0,1l0,1c0,0,-1,0,-1,1l1,0l2,0l1,0ZM188.5,450.5l4,-2l0,1l-5,2ZM184.5,461.5c0,-1,-1,-1,-1,-1c0,0,-1,-1,-1,-1l-1,0c0,0,-1,1,-1,1c-1,0,-1,0,-2,1l-2,1l1,0l1,0l1,0c1,0,1,0,1,0l1,-1l1,0l1,0l1,0ZM180.5,467.5l-5,2c1,-1,1,-1,1,-1l4,-2ZM168.5,466.5l-2,0l-1,1l-1,-1l1,-2l1,1l1,-1l2,1ZM162.5,455.5l0,1l-1,0l-1,0c-1,0,-1,1,-1,1l1,4c0,1,-1,1,-1,1l0,-2l0,-1l0,-1l0,-1c0,0,0,-1,0,-1c0,0,0,-1,1,-1l-1,0c0,0,0,-1,0,-1c0,0,1,-1,1,-1c0,0,1,1,1,1c1,1,1,1,1,1ZM216.5,463.5l0,-1l0,-1l-1,-8l1,-3l1,11l0,1c0,0,-1,0,-1,0c0,1,0,1,0,1ZM211.5,463.5c-1,0,-1,0,-2,0c0,-1,-1,-1,-1,-2c0,1,0,1,0,2c-1,0,-1,0,-2,0c-1,0,-1,0,-2,0c0,-1,0,-1,-1,-2c0,1,0,1,0,1c-1,0,-1,0,-2,0c-1,0,-1,0,-1,0c-1,0,-1,0,-1,0c0,-1,0,-1,0,-1c0,0,0,-1,0,-1c1,0,1,0,1,-1c1,0,1,0,2,-1l1,0l0,-1l0,-1c1,0,1,-1,1,-1l0,1l0,1l0,3l0,1c1,0,1,0,1,0c0,0,1,1,1,1c0,0,1,-1,1,-1c0,0,1,-1,1,-1c0,0,0,-1,0,-2c0,-1,0,-1,-1,-2c0,-1,0,-1,0,-1l1,-1l0,-1l0,3l1,2l0,1c0,0,0,1,0,1c0,1,1,1,1,1l1,0c0,0,1,0,1,0l0,-1l0,-1l-1,-1l0,-1l0,-2l0,-1l0,-1c0,1,1,1,1,2l0,1l0,2c1,1,1,1,1,2c0,0,-1,1,-1,1c0,1,0,1,0,2c-1,0,-1,0,-1,0ZM203.5,458.5l0,1c0,0,-1,0,-1,0c-1,1,-1,1,-1,1c0,0,1,0,2,0ZM241.5,462.5l-1,-1l1,-2l1,1ZM254.5,464.5l0,1c-1,0,-1,0,-1,0c0,0,-1,1,-1,1c0,0,-1,0,-1,0c-1,0,-1,1,-2,1c-1,0,-2,1,-3,1c-1,0,-1,0,-3,0c0,0,-1,0,-2,0c0,0,-1,0,-1,0l-1,0c0,0,-1,0,-2,0c0,0,-1,0,-1,0c-1,0,-2,0,-3,0c-1,-1,-1,-1,-2,-1c-2,-1,-3,-1,-4,-2c0,0,-1,-1,-2,-2l-1,0c0,-1,0,-1,0,-1c1,1,1,1,1,1c1,0,1,0,2,1c0,0,1,0,2,1c0,0,1,0,1,0c1,0,1,0,2,1c1,0,1,0,2,0c1,0,1,0,2,0c1,0,1,1,2,1c0,0,1,0,2,0c0,0,1,0,1,0c1,-1,2,-1,2,-1c1,0,2,0,3,0c1,0,2,0,3,-1c1,0,1,0,2,0c2,-1,3,-2,3,-2c0,0,0,-1,0,-1l-1,0l0,-1c0,0,0,-1,0,-1c0,0,-1,0,-1,0l0,-1l1,-1l1,1l0,1c0,1,0,1,0,1c0,1,0,1,0,1l0,1c0,0,0,1,0,1ZM239.5,451.5l0,1c0,0,1,0,1,-1l0,-1l0,1c1,0,1,0,1,0l0,-1l1,0l0,1l0,1c0,0,-1,0,-1,0l-1,0l0,1c-1,0,-1,0,-1,0c0,0,-1,0,-1,0l0,-1l0,-1ZM243.5,448.5l-6,3c0,-1,1,-1,1,-2l5,-2ZM240.5,416.5l1,-1l0,-1l-1,-9l1,-2l0,11c0,1,0,1,0,1c0,1,0,1,-1,1ZM239.5,402.5l4,-3l0,1c-1,0,-1,0,-1,1l-4,2ZM207.5,447.5l0,-1c0,0,0,-1,-1,-1c0,0,0,-1,0,-1l0,-1l1,0l0,1l0,1c0,0,0,1,0,1l0,1ZM206.5,448.5l0,1c1,0,1,0,1,0l0,-1l1,0c0,1,0,1,0,1c0,0,0,-1,0,-1l0,-1l1,0l0,1l0,1c0,0,-1,0,-1,1c-1,0,-1,0,-1,-1l0,1c0,0,-1,0,-1,0l-1,0l0,-1l0,-1l1,0ZM257.5,464.5l0,-1l0,-1l0,-8l1,-3l0,11l0,1c0,1,0,1,-1,1Z" class="g1_25" />
</svg>