<?xml version="1.0" encoding="UTF-8" standalone="no"?>
<!DOCTYPE svg PUBLIC "-//W3C//DTD SVG 1.1//EN"
"http://www.w3.org/Graphics/SVG/1.1/DTD/svg11.dtd">
<svg version="1.1" xmlns="http://www.w3.org/2000/svg" xmlns:xlink="http://www.w3.org/1999/xlink">
<defs>
<style type="text/css"><![CDATA[
.g2_10{
fill: #1F1A17;
stroke: #1F1A17;
stroke-width: 1;
stroke-linecap: butt;
stroke-linejoin: miter;
}
.g1_10{
stroke: #1F1A17;
stroke-width: 1;
stroke-linecap: butt;
stroke-linejoin: miter;
}
]]></style>
</defs>
<path fill-rule="evenodd" d="M262.5,87.5l4,-2l-1,1l-4,2ZM230.5,131.5l1,0c0,-1,1,-1,1,-1c1,0,1,0,1,1c1,0,1,0,1,0c0,1,0,1,-1,1c0,1,0,1,0,1l-1,0c0,0,-1,0,-1,0c-1,0,-1,0,-1,0l2,0c0,0,1,-1,1,-1l-1,0c-1,0,-1,0,-2,0c0,0,0,-1,0,-1ZM243.5,100.5l0,-2l0,-1l0,-8l1,-3l0,11c0,0,0,1,0,1c0,1,-1,1,-1,2ZM325.5,133.5l0,1l1,0l0,-1l1,0c0,1,0,1,0,1l1,-1l0,-1l0,1l0,1c0,1,0,1,-1,1l-1,0c0,0,-1,1,-1,1l0,-1l-1,0l0,-1l1,-1ZM329.5,131.5l-6,2c1,0,1,-1,1,-1l5,-3ZM154.5,142.5c0,1,0,1,0,2l-1,1c0,0,0,1,0,1l1,0l0,1l-1,0l-1,0c0,0,0,1,0,1l-1,0c0,1,0,1,-1,1l-1,0l0,1l-1,0c-1,0,-1,0,-1,0l-1,1l-1,1l-3,0l-4,0l-1,-2c0,0,-1,0,-1,0c-1,0,-2,-1,-2,-1l-1,0l-1,0l0,-1l-1,0l0,-1l-1,0l0,-1l1,0l-1,-1l0,-1l-1,-1l0,-1l0,-1l0,-1c0,0,1,0,1,-1c0,0,0,-1,0,-1l1,0l-1,-1l0,-1l1,0l1,-1l1,0l0,-1l1,0l2,-1l1,0l0,-1c1,0,1,-1,1,-1l4,0l3,0l1,1l1,1l1,0l1,1l1,0c1,1,1,1,1,1l1,0l0,1c1,0,2,1,2,1l-1,1l0,1l1,0l0,1l0,1ZM145.5,152.5l1,-1l0,-1l1,0c1,0,1,-1,2,-1l1,0c0,0,1,-1,1,-1l1,0c0,-1,0,-1,0,-1l1,0l0,-1l-1,0l1,-1l0,-1l1,0l0,-1l0,-1c0,-1,0,-2,0,-3c0,0,-1,0,-1,0c0,-1,0,-1,0,-1l-1,0l0,-1l1,0c0,0,0,-1,-1,-1l-1,-1l-1,0l-1,-1l-2,0c0,0,0,-1,0,-1l-1,-1l-1,0l-1,-1l-2,0l-4,0l0,1l-1,1c0,0,-1,1,-1,1l-2,0l-1,1l-1,0l0,1l-1,0c0,0,-1,1,-1,1l1,0l0,1l-1,1l0,1l0,1l0,1l0,1l0,1c0,1,0,1,0,1l1,0l0,1l-1,0l0,1l1,0l1,1l1,0l1,1l1,0l1,1c0,0,1,0,1,0l0,1l1,0c0,1,0,1,0,1l4,0ZM151.5,137.5l-1,0l-1,-1l-1,0c0,0,-1,0,-1,0c1,0,1,-1,1,-1l-1,0c1,0,1,0,1,0l1,0l0,1c0,0,1,0,1,0l1,1ZM151.5,147.5l-1,0l0,1l-1,0l-1,0l0,1l0,-1l-1,0c1,0,1,0,1,0l1,0l0,-1c1,0,1,0,1,-1l1,0ZM146.5,149.5l0,1l-1,0l-3,0l-4,0l-1,0c0,-1,0,-1,0,-1c0,-1,0,-1,0,-1c0,0,1,0,1,-1l4,0l3,0l1,0l0,1ZM146.5,135.5l0,1l-1,0l-3,0l-4,0l-1,0l0,-1c0,-1,0,-1,0,-1l1,0l0,-1l4,0l3,0c1,0,1,1,1,1l0,1ZM145.5,137.5l1,0l1,0c0,0,1,0,1,0l1,1l2,0l0,1l1,1l0,1l0,1l0,1l0,1l-1,0c0,0,0,1,0,1l-1,0c0,0,-1,0,-1,0l0,1l-1,0l-1,0l0,1l-1,0c0,0,0,-1,0,-1l-1,0l-3,0l-4,0l-1,0l0,1c-1,0,-1,-1,-2,-1l-1,0l0,-1l-1,0l-1,0l0,-2l0,-1c0,-1,0,-1,0,-1c0,-1,0,-1,0,-1l0,-1c1,-1,1,-1,1,-1l1,0l1,0l0,-1c1,0,1,0,2,0l1,0l4,0ZM145.5,146.5l1,0l1,0l1,0l1,0l0,-1l2,0l0,-1l0,-1l1,-1c0,-1,0,-1,-1,-2c0,0,0,-1,0,-1c0,0,0,-1,-1,-1l-1,1l0,-1l-1,0l0,-1l-1,0c0,0,-1,0,-1,0l-1,1l-3,0l-4,0l-1,-1c-1,0,-1,0,-1,0l-1,0l0,1l-1,0c0,1,0,1,0,1l-1,-1c0,0,0,1,-1,1l0,1l0,1l0,1l0,1l0,1c0,0,1,1,1,1l1,0l1,1l1,0l1,0c1,0,1,0,1,0l4,0l3,0ZM144.5,141.5c-1,0,-1,0,-1,0c1,0,1,1,1,1l-1,1l1,0l1,0c0,0,0,1,-1,1l-1,0c0,0,-1,0,-1,0l1,-1l0,-1l-1,0l0,-1l1,0c0,-1,0,-1,1,-1ZM140.5,144.5l0,-1l-1,0l0,-1l0,-1l-1,0l1,-1l0,1l1,1l0,1l0,-1l1,0l0,-1c0,-1,1,-1,1,-1l0,1c0,0,-1,0,-1,1l-1,1l0,1ZM133.5,137.5l0,-1l1,0l0,-1l1,0l1,0c0,0,0,1,0,1c0,0,-1,0,-1,0l-1,0l0,1l-1,0ZM132.5,147.5l1,-1c0,1,1,1,1,1l1,0l0,1l1,0l0,1l-1,0l0,-1c-1,0,-1,0,-2,-1ZM186.5,144.5l-1,0c0,-1,-1,-1,-1,-1l-1,0c0,0,0,1,-1,1l-1,0l-2,0c0,0,-1,0,-2,0c0,-1,0,-1,0,-2l-1,-9l1,-2l1,10l0,1c0,0,1,1,1,1l2,0c1,0,1,0,1,-1l1,0l1,-1c0,-1,0,-1,0,-1l1,-1l1,0c1,1,1,1,1,2l0,1l0,1l-1,1ZM184.5,141.5l1,1l1,0l0,-1c0,0,-1,0,-1,0l-1,0ZM182.5,131.5l4,-2l0,1l-1,0l-4,2ZM172.5,144.5l-1,0c-1,-1,-1,-1,-1,-1l-1,0c-1,0,-1,1,-1,1l-1,0l-1,0l-1,0c-1,0,-1,0,-2,0c0,-1,-1,-1,-1,-2l0,-9l1,-2l0,10l0,1l1,0c0,0,0,1,1,1l1,0l1,0c1,0,1,0,1,-1l1,0l0,-1c0,-1,1,-1,1,-1l0,-1c1,0,1,0,1,0c1,0,1,0,1,0c0,1,0,1,1,2l0,1l0,1c0,0,-1,0,-1,1ZM170.5,141.5l1,1l1,0l0,-1c0,0,-1,0,-1,0c-1,0,-1,0,-1,0ZM171.5,131.5l-5,3l0,-1l5,-3c0,0,0,1,0,1ZM166.5,132.5l0,-1l5,-3c0,1,0,1,0,1ZM266.5,144.5c0,0,-1,0,-1,0c0,0,-1,-1,-1,-2c0,1,0,1,-1,2l-1,0l-1,0c-1,0,-1,0,-2,0l0,-1c0,1,-1,1,-1,2c-1,0,-1,0,-2,-1l-1,0l-1,-1l-1,1c0,0,-1,0,-1,0l-1,0l-1,0c-1,0,-1,0,-1,0c-1,0,-1,0,-1,0l0,-1c-1,0,-1,1,-2,1c-1,0,-1,0,-1,0l-1,0l-1,0c-1,0,-2,0,-2,0c-1,0,-1,0,-1,0c-1,0,-1,0,-2,0c-1,0,-1,0,-2,0l-1,0c-1,0,-1,0,-1,0l-1,-1l0,-1l0,-1l0,-1c-1,1,-1,1,-2,2l-1,0c0,1,0,1,0,1l0,1l0,1c-1,0,-1,1,-1,1c0,0,-1,0,-1,1c0,0,-1,0,-1,0c-1,0,-1,0,-2,1c-1,0,-2,0,-3,0c0,1,-1,1,-2,1c-1,0,-2,0,-3,0c0,0,-1,0,-1,0l-1,0c0,0,-1,0,-2,0c0,0,-1,0,-1,0c-1,0,-2,0,-3,-1c-1,0,-1,0,-2,0c-2,-1,-3,-1,-3,-2c-1,0,-2,-1,-3,-2l-1,0c0,0,0,-1,0,-1l1,0c0,1,0,1,0,1c1,0,1,0,2,0c0,1,1,1,2,1c0,1,1,1,1,1c1,0,1,0,2,0c1,1,1,1,2,1c1,0,1,0,2,0c1,0,1,0,2,0c0,0,1,0,2,0c0,0,1,0,1,0c1,0,2,0,2,0c1,0,2,0,3,0c1,0,2,0,3,-1c1,0,1,0,2,-1c2,0,3,-1,3,-1c0,-1,0,-1,-1,-1c0,0,0,-1,0,-1l0,-1c0,0,-1,0,-1,0l1,-2l1,1l1,0l1,0c0,0,0,-1,1,-1c0,0,0,-1,0,-1c0,0,1,1,1,1l0,1c0,1,0,1,0,2c0,0,1,0,1,0c0,1,0,1,1,1c0,0,1,0,1,0l0,-1c1,0,1,0,1,0l0,-1c0,0,0,-1,0,-1c0,-1,1,-1,1,-2c1,-1,1,-1,2,-1c0,0,1,0,1,1c0,0,0,1,0,1l0,1c0,1,0,1,0,1c0,1,0,1,-1,1c0,0,1,0,1,0c0,0,0,1,0,1c1,0,1,0,1,0l1,0l1,0l1,-1l1,0c0,-1,0,-1,1,-1l0,1l1,0c0,1,0,1,1,1l1,0l1,0c0,0,1,0,1,-1l1,0l0,-1c1,-1,2,-2,3,-2l1,1l0,1l1,1c1,0,1,0,1,0l0,1l1,0l1,0l1,0c0,-1,0,-1,1,-1c0,0,0,-1,0,-1c0,-1,0,-1,0,-1c0,0,0,-1,0,-1l-1,-7l1,-2l1,11l0,1c0,0,1,0,1,0c0,1,0,1,0,1l1,0l1,0c0,0,0,-1,0,-1c1,0,1,0,1,0l0,-1l0,-2l0,-6l-1,0c0,-1,0,-1,0,-1c0,0,1,0,1,-1l1,1l1,0c-1,0,-1,1,-1,1c0,0,0,1,0,1c0,0,0,1,0,2c0,0,0,1,0,2c0,1,0,1,0,2l0,1l0,1l0,1l-1,0l0,1c-1,0,-1,0,-1,0c-1,0,-1,0,-1,0ZM271.5,147.5l-4,3c0,-1,1,-1,1,-2l4,-2ZM262.5,123.5c0,0,1,-1,1,-1c1,0,1,0,1,0c1,0,1,0,2,0c0,1,0,1,0,1c0,1,0,1,0,1c0,0,-1,1,-1,1c0,0,-1,0,-1,0l-1,0l-1,0l2,0c1,-1,1,-1,2,-1c-1,0,-1,-1,-1,-1c0,0,-1,0,-1,0c0,0,-1,0,-1,1c0,0,-1,0,-1,0c0,-1,0,-1,0,-1ZM258.5,143.5l-1,-1c0,-1,0,-1,0,-1c0,0,-1,0,-1,0l-1,0c0,1,1,1,1,1l1,0ZM256.5,128.5c0,-1,1,-1,1,-1c1,1,1,1,1,1c0,0,0,1,0,1c-1,1,-1,1,-1,1l1,0l0,2l-1,-1l-1,0l0,1c-1,0,-1,0,-1,1l-1,0c-1,0,-1,0,-1,0l1,-1l1,0l0,-1l1,0l0,-1c-1,0,-1,0,-1,-1l1,-1ZM257.5,129.5l0,-1l-1,0l0,1l1,0l0,1l0,-1ZM248.5,138.5l-1,-1l-1,2l-1,-1l1,-2l1,1l1,-1l1,1ZM245.5,132.5l0,1c0,0,1,0,1,0l0,-1l1,0l0,1l1,0c0,0,0,-1,0,-1l0,-1l0,1l0,1c0,0,0,1,0,1l-1,0l0,-1l0,1l-1,0c-1,0,-1,0,-1,0l0,-1l0,-1ZM249.5,129.5l-5,3c0,-1,1,-1,1,-2l5,-2ZM241.5,136.5l-1,-1l-1,1l-2,-1l1,-1l2,1l0,-2l2,1ZM240.5,139.5l-1,0c0,0,0,1,0,1l0,1l1,0c0,0,1,0,1,0l1,-1c0,0,-1,0,-1,-1l-1,0ZM243.5,150.5l-5,2c1,-1,1,-1,1,-1l4,-2ZM235.5,147.5l-2,-1l0,2l-2,-1l1,-2l2,1l0,-1l2,1ZM217.5,142.5l-1,-1l1,-1l1,1ZM207.5,135.5l1,0l3,-1l5,-2l5,-2l1,0l-2,1l-1,1l-1,0l-1,1l-6,2l-4,1ZM326.5,140.5l0,1l-1,0c1,0,1,0,1,0c0,0,1,0,1,0c0,-1,-1,-1,-1,-1ZM326.5,148.5c-1,1,-1,1,-1,1c-1,0,-1,0,-2,0c-1,0,-1,0,-2,0c0,0,0,-1,-1,-1c1,0,1,0,1,0c1,0,1,0,1,0c0,0,1,0,1,0c1,0,1,0,1,0c0,0,0,-1,1,-1l1,0c0,-1,0,-1,0,-1c1,0,1,-1,1,-1c1,-1,1,-2,1,-2c0,0,-1,0,-1,0c0,0,-1,0,-1,0l-1,0l0,-1l0,-1c0,-1,0,-1,0,-2c0,0,1,0,1,0c0,-1,0,-1,1,-1c1,1,1,1,1,1c0,1,0,1,0,1c0,0,0,1,0,1c0,1,1,1,1,1c0,1,0,1,0,1c0,0,-1,0,-1,0c0,1,0,2,0,3c0,0,-1,1,-1,1c0,0,0,1,-1,1ZM319.5,144.5l0,-1l0,-1l0,-8l1,-3l0,11c0,1,0,1,0,1c0,1,0,1,-1,1ZM307.5,148.5l-1,-1l1,-2l1,1ZM315.5,142.5l-2,0c0,0,-1,0,-2,0l-1,0l-1,0l-1,1c0,0,-1,0,-1,0c-1,0,-1,1,-1,1c-1,0,-2,0,-2,0l-1,0c-1,0,-1,0,-2,0l-1,0c0,0,0,-1,-1,-1l0,-1c0,1,0,1,-1,1c0,1,-1,1,-1,1c0,0,-1,0,-1,0l-1,0c-1,0,-1,0,-2,0c0,0,-1,-1,-1,-2c0,1,0,1,-1,2l-1,0c-1,0,-1,0,-1,0c-1,0,-1,0,-1,0c0,0,0,-1,0,-1c-1,0,-1,1,-2,1c0,0,-1,0,-1,0l-1,0l-1,0c-1,0,-1,0,-2,0c0,-1,-1,-1,-1,-2l0,-9l1,-2l0,10l1,0l0,1c0,0,1,1,1,1l1,0l1,0l1,-1c0,0,1,0,1,0c0,-1,0,-1,1,-1l0,1l1,0c0,1,0,1,1,1l1,0c0,-1,1,-1,1,-1c0,0,0,-1,0,-1c0,-1,0,-1,0,-1c0,0,0,-1,0,-1l-1,-7l1,-2l1,11l0,1c1,0,1,0,1,0c0,1,0,1,1,1c0,0,1,0,1,0c0,0,0,-1,0,-1l1,0l1,0l0,-1l-1,0l-1,0c0,0,0,-1,0,-1l0,-1c1,0,1,-1,2,-1l1,0c0,0,1,0,1,0c0,1,1,1,1,1c0,0,0,1,0,1l0,1l-1,0l0,1c0,0,1,0,1,0l1,1l1,0c1,0,1,0,1,0c1,-1,1,-1,2,-1c0,0,1,0,1,0l2,-1l-1,0l-1,-1l-1,0l-1,0l-1,0c0,0,0,-1,1,-1c0,0,0,-1,0,-1c1,0,1,0,1,0c1,0,1,0,1,0l1,0l0,1l2,0l1,1c0,0,1,0,1,0c0,0,1,0,1,0c1,0,1,0,1,0l2,0ZM307.5,129.5l1,0c0,-1,1,-1,1,-1c1,0,1,0,1,1c1,0,1,0,1,0c0,1,0,1,-1,1c0,1,0,1,0,1l-1,0c0,0,-1,0,-1,0l-1,0l2,0c0,0,1,-1,1,-1l-1,0c-1,0,-1,0,-2,0c0,0,0,-1,0,-1ZM298.5,131.5l4,-2l0,1l-4,2ZM290.5,123.5c0,0,1,-1,1,-1c1,0,1,0,1,0c1,0,2,0,2,0c0,1,0,1,0,1c0,1,0,1,0,1c0,0,-1,1,-1,1l-1,0l-1,0l-1,0l2,0c1,-1,1,-1,2,-1c-1,0,-1,-1,-1,-1c0,0,-1,0,-1,0c0,0,-1,0,-1,1c0,0,-1,0,-1,0c0,-1,0,-1,0,-1ZM287.5,140.5l-2,-1l1,-2l2,1ZM284.5,131.5l4,-2l0,1l-1,0l-4,2ZM122.5,94.5c0,1,-1,1,-2,2c-1,0,-2,1,-3,1c-1,1,-2,1,-3,1l-1,0l-1,0c0,0,0,-1,-1,-1c0,0,0,-1,0,-1l-1,-1l0,-1c0,0,-1,1,-1,1c-1,0,-1,0,-1,0c0,1,0,1,0,1l0,1c0,0,0,1,0,1l-1,0l0,1l-1,1l-1,0c0,0,0,1,-1,1c0,0,-1,0,-1,0c-1,1,-2,1,-3,1c-1,0,-2,0,-3,0c-1,0,-1,1,-2,1c-1,0,-1,0,-2,0c-1,0,-1,0,-2,0c-1,0,-1,-1,-2,-1c-1,0,-2,0,-2,0c-1,0,-2,0,-3,-1c-1,0,-2,-1,-3,-1c-1,-1,-2,-1,-3,-2c0,0,0,-1,0,-1c1,0,1,0,1,0c0,1,1,1,1,1c1,0,1,1,2,1c1,0,1,0,2,1c0,0,1,0,2,0c0,0,1,0,1,0c1,1,2,1,2,1c1,0,2,0,2,0c1,0,1,0,2,0c1,0,1,0,2,0c1,0,1,0,2,0c1,0,2,0,2,-1c1,0,2,0,3,0c1,0,2,-1,3,-1c1,-1,2,-1,2,-2c0,-1,0,-1,0,-1c0,-1,-1,-1,-1,-1l0,-1l0,-2l1,2l1,-1c0,0,1,0,1,0c1,0,1,0,1,-1l1,-1c0,1,0,1,0,1l0,1l0,1c0,0,0,1,0,1c0,0,1,1,1,1c1,0,1,0,1,0l1,0c1,0,2,0,2,0c0,-1,-1,-1,-1,-2l0,-1l0,-1c0,0,0,-1,0,-1l1,0c0,-1,0,-1,1,-1l1,0l1,0c1,0,1,0,1,0c0,0,1,0,1,0c0,0,0,1,0,1l-1,0l-1,0l-1,0c0,0,-1,0,-1,0c0,1,-1,1,-1,1c0,0,0,1,0,1c0,0,1,0,1,1c0,0,1,1,2,1l1,-1l1,0l1,-1l1,0ZM117.5,83.5c0,-1,1,-1,1,-1c0,0,1,0,1,0c1,0,1,0,2,0c0,0,0,1,0,1c0,0,0,1,0,1c-1,0,-1,0,-1,1c0,0,-1,0,-1,0l-1,0l-1,0l2,-1c1,0,1,0,2,-1c-1,0,-1,0,-1,0c-1,0,-1,0,-1,0c0,0,-1,0,-1,0c-1,0,-1,0,-1,1l0,-1ZM112.5,101.5l-1,-1l-1,1l-1,-1l1,-1l1,1l1,-1l1,0ZM111.5,82.5c0,0,0,-1,0,-1c0,0,1,0,1,0c1,0,1,0,1,1l0,1l-1,0l0,1l1,0l0,1l-1,0l-1,0c-1,1,-1,1,-1,1l-1,0l-1,0l1,0l1,-1l1,0l0,-1c-1,0,-1,-1,-1,-1c0,0,0,-1,1,-1ZM112.5,82.5l-1,0l0,1l1,0c0,-1,0,-1,0,-1ZM95.5,96.5l-2,-1l1,-2l2,1ZM92.5,108.5l4,-2l0,1l-4,2l0,-1ZM89.5,112.5c0,0,1,0,1,0l4,-3l0,1l-1,1l-4,2l0,-1ZM152.5,88.5l-1,-1l-1,1l-2,-1l1,-1l2,1l1,-1l1,1ZM153.5,96.5c0,1,0,1,-1,1c0,0,-1,1,-1,1c-1,0,-1,0,-2,0l-1,0l0,1l-1,0c0,1,0,1,0,2c0,0,-1,0,-1,1l-1,0c0,1,0,1,-1,1c-1,0,-1,0,-1,0l-1,0c0,0,-1,0,-1,0c-1,0,-1,0,-1,0c0,-1,0,-1,0,-1l1,1c1,0,1,0,2,-1l1,0c0,0,0,-1,1,-1l0,-1c1,0,1,0,1,-1l1,-1l0,-1c-1,0,-1,0,-1,0c0,0,0,-1,0,-1l0,-1l1,0l0,1c1,0,1,0,1,0l1,0c1,0,1,0,2,0c1,0,1,-1,2,-1l0,-1l0,-1c0,1,-1,1,-1,1c0,1,-1,1,-1,1c0,0,-1,0,-1,-1c-1,-1,-1,-1,-1,-1c0,-1,0,-1,1,-1c0,-1,0,-1,0,-1c0,0,0,-1,0,-1c1,0,1,-1,1,-1c1,0,1,0,1,1c1,0,1,0,1,1c0,0,0,1,0,1c1,0,1,1,1,1c0,0,0,1,0,1c0,1,0,1,0,1c0,1,-1,1,-1,1ZM150.5,92.5c1,0,1,0,1,0l1,0c0,-1,0,-1,-1,-1c0,0,-1,0,-1,1ZM150.5,76.5c1,-1,1,-1,1,-1c1,1,1,1,1,1c0,1,0,1,0,1l0,1l-1,0l1,0l0,2l-1,-1l-1,0l0,1c0,0,-1,1,-1,1l-1,0l-1,0l1,-1l1,0l0,-1l1,0l0,-1c0,0,-1,0,-1,-1c0,0,1,0,1,-1ZM151.5,77.5l-1,-1c0,0,0,1,0,1l1,0l0,1l0,-1ZM144.5,86.5l0,1c0,0,0,1,0,1c0,0,0,-1,1,-1l0,-1l0,1c0,0,1,0,1,0l0,-1l1,-1l0,1l0,1c0,1,0,1,-1,1c0,0,-1,0,-1,0c0,1,-1,1,-1,1l-1,-1l0,-1l0,-1ZM148.5,84.5l-6,2c1,0,1,-1,1,-1l5,-3ZM139.5,90.5l-1,-1l-1,1l-1,-1l0,-1l2,1l1,-2l1,1ZM138.5,98.5c-1,0,-1,0,-1,-1c-1,0,-1,-1,-1,-1c0,0,0,-1,0,-1l0,-1l0,-1l1,-1c1,-1,1,-1,1,-1c1,0,1,0,2,1c0,0,0,1,1,1l0,1l0,1c0,1,-1,2,-2,3c0,0,-1,0,-1,0ZM138.5,93.5c0,0,-1,0,-1,1c0,1,0,1,0,1l0,1l1,0l1,0c1,0,1,-1,1,-1l-1,-1c0,0,-1,0,-1,-1ZM134.5,82.5l5,-2l-1,0c0,0,0,1,0,1l-4,2ZM206.5,94.5c-1,0,-1,0,-1,0l0,1l1,0c0,-1,0,-1,0,-1ZM206.5,102.5c-1,0,-1,0,-1,0l-1,0c0,0,-1,1,-1,1l-1,0c0,0,-1,-1,-1,-1c-1,0,-1,0,-1,0c0,0,0,-1,0,-1c0,1,0,1,1,1c1,0,1,0,1,0c1,0,1,0,1,0c0,-1,0,-1,0,-1c1,0,1,0,1,0c1,0,1,-1,1,-1c1,0,1,0,1,-1l1,-1c0,0,0,-1,0,-1l0,-1c0,0,0,1,0,1c0,0,-1,0,-1,0c-1,0,-1,0,-1,0c0,0,-1,0,-1,-1l0,-1c0,-1,0,-1,0,-1c0,0,0,-1,1,-1c0,0,0,-1,0,-1c1,0,1,0,1,0c0,0,1,0,1,0l0,1c0,0,1,0,1,1l0,1c0,0,0,1,0,1l0,1c0,1,0,2,-1,3l-1,1l0,1ZM246.5,88.5l4,-2l0,1l-4,2ZM203.5,88.5l4,-2l0,1l-5,2ZM196.5,87.5l-1,-1l1,-1l1,1ZM200.5,97.5l-1,0c-1,1,-1,1,-2,1l-1,0l-1,0l-1,0l0,-1c0,0,0,-1,0,-1c0,0,1,0,1,0c1,0,1,0,2,0c0,0,1,0,1,0c0,0,1,-1,1,-1l1,0c0,0,0,-1,-1,-1c0,0,0,-1,0,-1l-1,0l0,-1l-1,0l0,-1l-1,0l1,-2l1,1l1,0c0,1,0,1,0,1c0,0,1,1,1,1c0,1,0,1,0,2l1,0c0,0,0,1,0,1l-1,1l0,1ZM194.5,79.5c0,-1,1,-1,1,-1c0,-1,0,-1,1,-1c0,1,1,1,1,1c0,1,0,1,-1,1l0,1l1,1l0,1l-2,-1l0,1c-1,0,-1,1,-1,1l-1,0l-1,0l1,-1l1,0l0,-1l1,0l-1,-1l0,-1ZM195.5,79.5l0,1l1,0l0,-1ZM184.5,101.5l1,0c1,0,2,0,3,-1c0,0,1,0,1,-1c1,0,1,-1,1,-1c1,-1,1,-1,1,-1c0,0,0,-1,0,-1l0,-1l-1,0l0,-1l0,-1l0,-1l1,1l0,1l0,1l1,0l0,1c0,1,0,1,-1,1c0,1,0,1,0,1c0,0,0,1,0,1c0,0,0,1,-1,1l0,1c-1,0,-1,0,-1,0l0,1l-1,0l-1,0l-1,0l-1,0c0,0,-1,-1,-1,-1ZM187.5,86.5l0,1c0,0,0,1,1,1l0,-1l0,-1l1,0l0,1c1,0,1,0,1,-1l0,-1l0,1l0,1c0,1,0,1,0,1l-1,0l-1,0c0,1,0,1,-1,1l0,-1l0,-1l0,-1ZM190.5,106.5l-4,2c0,-1,0,-1,0,-1l5,-2ZM183.5,101.5l-1,-1l-1,1l-1,-1l1,-1l1,1l1,-1l1,1ZM181.5,98.5l-1,0l-1,0l-1,0c-1,0,-1,0,-1,0c-1,0,-1,0,-1,-1l0,-1l-1,0l0,1c0,0,-1,0,-1,0c0,0,0,1,-1,1l-1,0c0,0,-1,0,-1,0c0,0,-1,-1,-1,-1c0,0,0,-1,0,-1c-1,1,-1,1,-2,1c0,1,0,1,-1,1l-2,0c-1,0,-1,0,-2,-1c0,0,0,-1,0,-2l-1,-8l1,-2l1,9l0,1l0,1c0,0,1,0,1,0l2,0c0,0,1,0,1,0c0,0,1,0,1,0c0,0,0,-1,0,-1c0,0,1,0,1,-1c0,1,0,1,0,1c0,0,0,1,1,1l1,0c1,0,1,0,1,0c1,0,1,0,2,0l0,-1l1,0c0,1,0,1,1,1l1,0l1,0l1,0l1,0l1,0c1,0,1,0,1,0c0,-1,0,-1,0,-1l0,-1l-1,-1l1,-1c0,0,1,0,1,0c0,1,0,1,0,1l0,1l0,1l0,1c0,0,-1,1,-1,1l-1,1c0,0,-1,0,-1,0ZM176.5,93.5l-1,-1l-1,1l-1,-1l0,-1l2,1l1,-2l1,1ZM177.5,101.5l-4,2c0,-1,0,-1,0,-1l4,-2ZM169.5,93.5l-2,-1l1,-1l2,1ZM166.5,85.5l4,-2l0,1l-5,2ZM258.5,90.5l-2,-1l1,-1l2,1ZM251.5,101.5c1,0,1,0,1,0l1,0c1,0,2,0,3,-1c0,0,1,0,1,-1c0,0,1,-1,1,-1c0,-1,0,-1,1,-1c0,0,0,-1,0,-1l0,-1l-1,0l0,-1l-1,0l1,-1l0,-1l1,1l0,1l0,1l0,1c0,1,0,1,0,1c0,1,0,1,0,1c0,0,0,1,0,1c0,0,-1,1,-1,1l-1,1l-1,1c0,0,-1,0,-1,0l-1,0l-1,0c-1,0,-1,-1,-1,-1ZM254.5,82.5c1,0,1,0,1,0c1,-1,1,-1,2,-1c0,0,1,0,1,1c0,0,1,0,1,0c-1,1,-1,1,-1,1c0,1,0,1,-1,1c-1,0,-1,0,-1,0l-1,0l1,0c1,0,1,-1,2,-1c0,0,-1,0,-1,0l-1,0c0,0,-1,0,-1,0l-1,0c0,0,0,-1,0,-1ZM250.5,94.5c-1,0,-1,0,-1,0l0,1l1,0c0,-1,0,-1,0,-1ZM250.5,102.5c-1,0,-1,0,-1,0l-1,0c0,0,-1,1,-1,1l-1,0c0,0,-1,-1,-1,-1c-1,0,-1,0,-1,0c0,0,0,-1,0,-1c0,1,0,1,1,1c1,0,1,0,1,0c0,0,1,0,1,0c0,-1,0,-1,0,-1c1,0,1,0,1,0c0,0,1,-1,1,-1c1,0,1,0,1,-1l1,-1c0,0,0,-1,0,-1l0,-1c0,0,0,1,0,1c0,0,-1,0,-1,0l-1,0c0,0,-1,0,-1,-1l0,-1c0,-1,0,-1,0,-1c0,0,0,-1,1,-1c0,0,0,-1,0,-1c1,0,1,0,1,0c0,0,1,0,1,0l0,1c0,0,1,0,1,1l0,1c0,0,0,1,0,1l0,1c0,1,0,2,-1,3l-1,1l0,1ZM233.5,101.5l-2,-1l1,-1l2,1ZM240.5,95.5l-2,0c0,0,-1,0,-1,0l-1,0c0,0,-1,1,-1,1l-1,0l-1,0c0,1,-1,1,-1,1c0,0,-1,0,-1,0c-1,1,-2,1,-2,1l-1,0l-1,0l-1,0l0,-1l-1,0l0,-1l0,1l-1,0c0,0,-1,0,-1,1c-1,0,-1,0,-1,0l-1,0l-1,0c-1,0,-2,0,-2,-1c-1,0,-1,-1,-1,-2l-1,-8l1,-2l1,9l0,1l0,1c1,0,1,0,2,0l1,0c1,0,1,0,1,0c1,0,1,0,2,0c0,-1,0,-1,1,-1c1,0,1,0,1,0c0,1,0,1,0,1c0,0,1,0,1,0l1,0l1,0c1,0,2,0,2,0c1,0,1,0,1,-1l2,0l1,0l-1,-1l-1,0l-1,0l0,-1l-1,0l-1,0l0,1l-1,0c0,-1,1,-1,1,-2l1,0l1,0c1,0,1,0,1,0l2,1l1,0c1,0,1,0,1,0c1,1,1,1,1,1c1,0,1,0,2,0l1,0ZM238.5,101.5l-5,2c1,0,1,0,1,-1l4,-2ZM224.5,93.5l-1,-1l1,-1l1,1ZM222.5,88.5l4,-2l0,1l-4,2ZM288.5,97.5l-1,0c0,0,-1,0,-1,0l-1,-1l0,1c0,0,-1,0,-1,1l-1,0l-1,0l-1,0c0,0,0,1,0,1c0,0,0,1,0,1c0,0,0,1,-1,2c0,0,0,1,-1,1c0,1,-1,1,-2,1c-1,1,-1,1,-2,1c-1,0,-1,0,-2,0c0,-1,-1,-1,-1,-1c-1,0,-1,-1,-1,-1c-1,-1,-1,-1,-1,-2c0,0,0,-1,0,-1c0,0,0,-1,1,-1c0,0,0,-1,0,-1c1,-1,1,-1,1,-1c0,1,0,1,0,1c0,0,-1,1,-1,1c0,1,0,1,0,1c0,1,0,1,1,1c0,1,0,1,0,1c0,0,1,0,1,0c1,1,1,1,2,1c1,0,2,0,3,-1c0,0,1,0,2,-1l0,-1c0,0,0,-1,0,-1c0,0,0,-1,0,-1l-1,0c0,0,0,-1,0,-1l1,-2l0,1c0,0,1,0,1,0l1,0l1,0c1,0,1,0,1,0l1,0l0,-2c1,0,1,-1,1,-1l1,0c0,0,0,-1,0,-1c1,0,1,1,1,1c0,0,1,1,1,1l0,1l0,1c0,1,-1,1,-1,1ZM286.5,95.5l1,0l1,0c-1,-1,-1,-1,-1,-1c0,0,-1,0,-1,0c0,1,0,1,0,1ZM287.5,101.5l-4,2c0,-1,1,-1,1,-1l4,-2ZM276.5,95.5l-2,0l1,-2l2,1ZM275.5,83.5c0,-1,1,-1,1,-1c0,0,1,0,1,0c1,0,1,0,2,0c0,0,0,1,0,1c0,0,0,1,0,1c-1,0,-1,0,-1,1c0,0,-1,0,-1,0l-1,0l-1,0l2,-1c1,0,1,0,2,-1c-1,0,-1,0,-1,0c-1,0,-1,0,-1,0c0,0,-1,0,-1,0c-1,0,-1,0,-1,1l0,-1ZM308.5,96.5c1,0,1,0,1,0c0,0,1,0,1,0c0,0,1,0,1,0c0,-1,0,-1,0,-1l0,-2l-1,-7c0,-1,0,-1,0,-1c0,-1,1,-1,1,-1c0,0,0,1,0,1c0,0,1,1,1,1l0,1l-1,0c0,1,0,1,0,2c0,0,1,1,1,3c0,0,0,1,0,1l0,1c0,1,0,1,0,1l0,1c0,0,-1,0,-1,0c0,0,0,1,0,1c0,0,-1,0,-1,0c0,1,0,1,-1,1l-1,0c0,0,-1,0,-1,0c0,0,-1,-1,-1,-1c0,0,0,-1,0,-1c-1,1,-1,1,-1,1c-1,1,-1,1,-2,1l-2,0c-1,0,-1,0,-2,-1c0,0,0,-1,0,-2l-1,-8l1,-2l1,9l0,1l0,1c0,0,1,0,1,0l2,0c0,0,1,0,1,0c0,0,1,0,1,0c0,0,0,-1,0,-1c0,0,1,0,1,-1c0,1,0,1,0,1c0,0,0,1,1,1l1,0ZM309.5,82.5l4,-2c0,0,0,1,0,1l-4,2ZM305.5,93.5l-1,-1l0,-1l2,1ZM302.5,85.5l4,-2l0,1l-5,2ZM345.5,97.5l-1,0c0,0,-1,0,-1,0c-1,0,-1,0,-2,0l0,-1c0,1,0,1,-1,1c-1,0,-1,0,-1,0c0,1,-1,1,-1,1c0,0,-1,0,-1,0c0,0,-1,0,-1,0c0,0,-1,0,-1,0l0,-1c-1,0,-1,0,-1,0c-1,0,-1,0,-1,0c-1,1,-2,1,-3,1l-1,1c-1,0,-1,0,-1,0c0,0,-1,0,-1,0l-1,0l-1,0c-1,0,-2,0,-3,0c-1,-1,-2,-1,-3,-2l0,-1c0,0,-1,0,-1,0l0,-1c0,-1,1,-1,1,-2l1,-1c0,1,0,1,0,1c-1,1,-1,1,-1,1c0,1,0,1,1,1c0,1,0,1,1,1l1,1c0,0,1,0,1,0c1,0,2,0,3,0c1,0,2,0,2,0c0,0,1,0,2,0c0,0,1,-1,1,-1c1,0,2,0,2,-1c1,0,2,0,2,-1c0,1,0,1,0,1l0,1c0,0,1,0,1,0l1,0c1,0,1,0,1,0l1,0c0,-1,0,-1,0,-1c0,0,0,-1,0,-1l0,-1l0,-1c1,0,1,0,1,0c0,0,0,-1,0,-1c0,-1,0,-1,0,-1c0,0,1,0,1,0c0,0,1,0,2,1c0,0,1,1,1,1c1,1,1,1,1,2l1,0c0,1,0,1,0,1c0,0,0,1,0,1c0,0,-1,0,-1,1ZM341.5,93.5l-1,0c0,1,0,1,0,1c0,1,0,1,1,1l0,-1c1,0,1,0,1,0c0,0,0,-1,-1,-1ZM343.5,93.5c0,0,0,1,0,1c0,1,-1,1,-1,1l1,0l1,1l1,0c0,-1,0,-1,-1,-1c0,0,0,-1,0,-1c0,0,-1,0,-1,0c0,-1,0,-1,0,-1ZM340.5,85.5l4,-2l-1,0l0,1l-4,2ZM326.5,103.5l-1,-1l1,-2l1,1ZM324.5,87.5l1,0c0,-1,1,-1,1,-1c1,0,1,0,1,1c1,0,1,0,1,0c0,1,0,1,-1,1c0,1,0,1,0,1l-1,0c0,0,-1,0,-1,0l-1,0l2,0c0,0,1,-1,1,-1l-1,0c-1,0,-1,0,-2,0c0,0,0,-1,0,-1ZM369.5,101.5l1,0c1,0,2,0,3,-1c0,0,1,0,1,-1c1,0,1,-1,1,-1c1,-1,1,-1,1,-1c0,0,0,-1,0,-1l0,-1l-1,0l0,-1l0,-1l1,-1l0,1l0,1l1,1l0,1c0,1,0,1,0,1c0,1,-1,1,-1,1c0,0,0,1,0,1c0,0,0,1,0,1c-1,0,-1,0,-1,1c0,0,-1,0,-1,0l0,1l-1,0l-1,0l-1,0c0,0,-1,0,-1,0c0,0,-1,-1,-1,-1ZM371.5,88.5l5,-2l-1,1l-4,2ZM368.5,102.5l-2,-1l1,-2l2,1ZM365.5,98.5l-1,0c0,0,-1,0,-1,0c0,0,-1,-1,-1,-1c0,0,0,-1,0,-1c0,1,-1,1,-1,1c-1,1,-1,1,-2,1l-2,0c0,0,-1,0,-1,-1c-1,0,-1,-1,-1,-2l-1,-8l1,-2l1,9l0,1l0,1c0,0,1,0,1,0l2,0c0,0,1,0,1,0c1,0,1,0,1,0c0,0,0,-1,0,-1c1,0,1,0,1,-1c0,1,0,1,0,1c0,0,0,1,1,1c0,0,1,0,1,0l1,0c1,0,1,0,2,0c0,0,1,0,1,0l0,-1l0,-1l-1,0l0,-1l1,-1l0,1l1,0l0,1l0,1l0,1l-1,0c0,0,0,1,0,1c0,0,-1,0,-1,1c-1,0,-1,0,-2,0ZM365.5,86.5l0,1l1,0c0,0,0,-1,0,-1l0,-1l1,0l0,1c1,0,1,0,1,-1l0,-1l0,1l0,1l0,1l-1,0l-1,0c0,1,0,1,-1,1c0,0,0,-1,0,-1l0,-1ZM369.5,83.5l-5,2c0,0,0,-1,1,-1l5,-2ZM361.5,93.5l-1,-1l1,-1l1,1ZM358.5,85.5l4,-2l0,1l-4,2ZM180.5,85.5l0,-1c0,0,0,-1,0,-1c0,-1,0,-2,-1,-2l1,-1c0,0,0,1,0,1c0,0,0,1,1,1l0,1l0,1l-1,0l0,1ZM179.5,87.5l0,1l1,0l0,-1l0,-1l1,0l0,1l1,0l0,-1l0,-1l1,0l0,1l0,1l0,1c0,0,-1,1,-1,1l-1,0l0,-1l-1,1c0,1,0,1,-1,1l-1,-1l0,-1l0,-1l1,0ZM191.5,143.5l0,-1l0,-1l-1,-9l1,-2l1,11c0,0,-1,1,-1,1c0,0,0,1,0,1ZM193.5,145.5l-4,2c0,-1,0,-1,0,-1l4,-2ZM125.5,97.5l0,-1l0,-1l0,-9l0,-2l1,11c0,0,0,1,0,1c0,0,-1,1,-1,1ZM123.5,82.5l4,-2l0,1l-4,2ZM263.5,102.5l0,-1l1,-1l-1,-9l1,-2l0,11l0,1c0,0,0,1,-1,1Z" class="g1_10" />
<path fill-rule="evenodd" d="M145.5,473.5l-2,-1l0,1l-2,-1l1,-1l2,1l0,-1l2,1ZM349.5,587.5l0,-1l0,-2l-1,-8l1,-3l1,11c0,0,0,1,0,1c0,0,-1,0,-1,1l0,1ZM371.5,587.5l0,-1l0,-2l-1,-8l1,-2l1,10c0,1,0,1,0,1l-1,1l0,1ZM206.5,587.5l0,-1l0,-2l0,-8l1,-2l0,10c0,1,0,1,0,1l0,1l-1,1ZM101.5,585.5c0,1,0,2,0,3l-1,1l1,1l-1,0l0,1l-1,0l0,1l-1,0c0,0,0,1,-1,1l-1,0l-1,0l0,1c-1,0,-1,0,-1,0l-1,1l0,1l-1,0l-3,0l-1,-1l-1,-1c-1,-1,-2,-1,-3,-1l-1,-1l-1,0l0,-1l-1,0l0,-1l-1,0l2,-1l-1,0l0,-1l-1,0l0,-1c0,-1,0,-1,0,-1l0,-1l0,-1c0,0,0,-1,1,-1c0,-1,0,-1,0,-1l0,-1l-1,0l1,-1l1,0l0,-1l1,0l0,-1l1,0l1,0l2,-1l1,-1c0,-1,1,-1,1,-1l3,0l1,0l0,1l1,1l1,0l1,1l1,0c1,0,1,0,1,1l1,0l0,1c1,0,2,0,2,1l-1,0l0,1l1,1l0,1l0,1ZM92.5,596.5l0,-1l1,0l0,-1l1,0l0,-1c1,0,1,0,2,0l1,0c0,-1,1,-1,1,-1l1,0l0,-1l1,0l0,-1l-1,0l0,-1l1,0l0,-1l1,0l0,-1l0,-1l0,-1c0,0,0,-1,0,-2l-1,0l0,-1l-1,-1l2,0c-1,-1,-1,-1,-2,-1l0,-1l-1,0l-1,-1l-1,0l-2,-1l-1,-1l-1,-1l-3,0l-1,1l-1,1l-2,1l-1,0l0,1l-1,0l-1,0l0,1c0,0,-1,0,-1,1l1,0l-1,1l0,1l-1,1l0,1l0,1l0,1l1,1l0,1l1,0l0,1l-1,0l1,1l1,1l1,0l0,1l1,0l2,0c0,0,0,1,1,1l0,1c1,0,1,1,1,1ZM98.5,581.5l-1,0l0,-1l-1,0l-1,0l0,-1l-1,0c1,0,1,0,1,0l-1,0c1,0,1,0,1,0l1,0c1,0,1,0,1,0c0,1,0,1,0,1l1,0ZM98.5,590.5l0,1l-1,0l0,1l-1,0l-1,0l0,-1l1,0c1,0,1,-1,1,-1l1,0ZM93.5,592.5c0,1,0,1,0,1l0,1l-1,0l-3,0c0,0,-1,0,-1,-1l0,-1c0,-1,0,-1,1,-1l3,0l1,0l0,1ZM93.5,578.5c0,1,0,1,0,1l0,1l-1,0l-3,0c0,0,-1,0,-1,-1l0,-1l0,-1l1,0l3,0l1,0c0,0,0,1,0,1ZM92.5,581.5c0,0,1,0,1,0c0,0,1,0,1,0c0,0,1,0,1,0l1,1l2,0l0,1l1,0l0,1l0,1l0,1c0,1,0,1,0,1l-1,1l0,1l-1,0c0,0,-1,0,-1,0l0,1l-1,0l-1,0l-1,0l-1,0l-3,0l-1,0l-1,0c0,0,-1,0,-1,0c0,0,-1,0,-1,-1l-2,0l-1,-2l0,-1l0,-1c0,-1,0,-1,0,-1l1,-1l0,-1l1,0l1,0l1,-1c0,0,1,0,1,0c1,0,1,0,1,0l1,0ZM93.5,590.5l1,0c0,0,1,0,1,0l1,-1c0,0,0,-1,0,-1l2,1l0,-1l0,-1l1,-1l0,-1c0,0,0,-1,-1,-1c0,-1,0,-1,0,-1c0,-1,0,-1,0,-1l-2,0l-1,-1l-1,0c0,0,-1,0,-1,0l-4,0l-1,0l-1,0c-1,0,-1,0,-1,0l-1,1l-1,0c0,0,-1,0,-1,1l0,1l0,1l-1,0l0,1l1,0l0,1c0,1,0,1,1,2l1,-1c0,0,0,1,0,1l1,0l0,1l1,0c1,0,1,0,1,0c0,0,1,0,1,0l0,-1l3,0l1,0l0,1ZM90.5,585.5l0,1l0,1c0,1,0,1,0,1l0,-1c0,0,0,-1,-1,-2l0,-1l1,0l1,0c0,0,1,0,1,0l1,0c0,0,-1,0,-1,1c0,0,-1,0,-1,0l-1,0ZM83.5,581.5l0,-1l1,0l1,-1l1,0l1,0c-1,0,-1,0,-1,1c-1,0,-1,0,-1,0l-1,0l0,1l-1,0ZM83.5,590.5l1,0c0,0,0,1,1,1l1,0l1,0c0,1,-1,1,-1,1l1,0c-1,0,-1,0,-1,0c-1,0,-2,0,-2,-1l-1,0l0,-1ZM157.5,587.5c0,0,0,1,0,1l-1,0l0,-1c-1,0,-1,0,-1,0l-1,-1l0,1c-1,0,-1,0,-1,1l-1,0l-1,0l-1,0c-1,0,-1,0,-1,0c0,0,0,-1,0,-1c0,0,-1,0,-1,0c0,0,-1,0,-1,0c0,0,-1,1,-1,1c-1,0,-1,0,-2,0l-2,0c-1,0,-1,0,-1,-1l-1,0c0,-1,0,-1,0,-1c0,1,0,1,0,1l-1,0c0,0,-1,1,-1,1c-1,0,-1,0,-2,0l-1,0c0,0,-1,0,-1,-1l0,-1l0,-1l1,0l0,1l1,0l1,0l1,0l1,0c0,-1,0,-1,0,-1c1,0,1,0,1,0c0,0,0,-1,0,-2l0,-1l-1,-1l1,-1l0,-1l1,1c0,0,0,1,0,2l0,2c0,0,0,1,0,1c0,1,1,1,1,1l2,0c1,0,1,0,2,0c0,0,1,0,1,0c0,0,1,-1,1,-1c0,0,1,0,1,0c0,1,0,1,0,1c1,0,1,0,1,0l1,0l1,0c1,0,1,0,1,0l1,0l0,-1c0,-1,1,-1,1,-2c1,0,1,0,1,0c0,0,1,0,1,0c0,1,0,1,1,1l0,1l0,1l0,1c-1,0,-1,0,-1,0ZM155.5,585.5l1,0l1,1c0,0,0,-1,0,-1c-1,0,-1,0,-1,0c0,-1,0,-1,0,-1c-1,0,-1,0,-1,1ZM154.5,572.5c1,0,1,0,1,-1c0,0,1,0,1,0c0,0,1,1,1,1l0,1l-1,0c0,0,0,1,0,1l1,0l0,1l-1,0l-1,0l0,1c-1,0,-1,0,-1,0l-1,0l0,1l-1,0c0,-1,0,-1,0,-1l1,0l1,0c0,-1,0,-1,0,-1l1,-1l-1,0c0,0,0,-1,0,-1c0,0,0,-1,0,-1ZM156.5,572.5l-1,0c0,0,0,1,0,1l1,0ZM147.5,584.5l-1,-1l1,-2l1,1ZM139.5,576.5l-2,0l1,-2l1,1ZM139.5,594.5l-4,2c1,-1,1,-1,1,-1l4,-2ZM123.5,591.5c0,0,1,0,1,0l1,0c0,0,1,0,2,-1c1,0,1,0,1,-1c1,0,1,-1,2,-1c0,0,0,-1,0,-1c0,0,0,-1,0,-1l0,-1l-1,-1l0,-1l1,-1l0,1c0,0,1,1,1,1l0,1l0,1c0,1,0,1,0,2c0,1,-1,1,-1,1c0,0,0,1,0,1c0,0,-1,1,-1,1l-1,0l0,1c-1,0,-1,0,-1,0c-1,0,-1,0,-1,0l-1,0c-1,0,-1,0,-1,0l-1,-1ZM130.5,596.5l-5,2c1,-1,1,-1,1,-1l4,-2ZM123.5,591.5l-2,-1l0,1l-2,0l1,-2l1,1l1,-1l2,1ZM120.5,588.5l-1,0l-2,0c0,1,0,1,0,1c0,1,0,1,0,1c0,1,0,1,0,2c0,0,-1,1,-1,1c-1,1,-2,1,-2,1c-1,1,-2,1,-3,1c0,0,-1,0,-1,0c-1,-1,-2,-1,-2,-1c0,0,-1,-1,-1,-1c0,-1,0,-1,0,-2c0,0,0,-1,0,-1l0,-1l0,-1l1,0c0,-1,0,-1,0,-1l1,0c-1,1,-1,1,-1,1c0,1,0,1,0,1c0,1,0,1,0,1c0,1,0,1,0,1c0,1,0,1,1,1c0,1,0,1,0,1c1,0,2,0,3,0c1,0,1,0,2,0c1,-1,2,-1,2,-1c0,-1,0,-1,0,-1l0,-1l0,-1l0,-1l-1,-1l1,-2c0,0,0,1,0,1c1,0,1,0,2,0l1,0l1,0c0,0,1,0,1,0c1,0,1,0,1,0c0,0,1,0,1,0c0,-1,0,-1,0,-1c0,0,-1,0,-1,-1l0,-1l1,-1l0,1c0,0,0,1,0,1c0,0,0,1,0,1c0,0,0,1,0,1c0,0,0,1,0,1c-1,0,-1,1,-2,1c0,0,-1,0,-1,0ZM112.5,586.5l-1,-1l1,-2l1,1ZM111.5,578.5l4,-2l0,1l-4,2ZM187.5,575.5c0,0,-1,0,-2,1c-1,0,-3,1,-4,1c-1,1,-2,1,-2,1c0,0,0,1,0,1c0,0,-1,0,-1,0l0,1l1,0l2,1c0,0,1,1,1,1c0,1,1,1,1,2c0,0,0,1,0,1c0,0,0,1,0,1c0,1,-1,1,-1,1l-1,1c-1,0,-1,0,-2,0l-1,0c0,0,-1,0,-1,0l-1,0c0,0,0,-1,0,-1c-1,0,-1,0,-1,0l-1,0c0,0,0,1,-1,1l-1,0l-2,0c0,0,-1,0,-2,-1c0,0,0,-1,0,-2l-1,-8l1,-2l1,9l0,1l0,1c0,0,1,0,1,0l2,0c0,0,1,0,1,0c1,0,1,0,2,0c0,0,0,-1,0,-1c0,0,1,0,1,0c0,1,1,1,1,1l1,0l1,0l1,0l1,0l1,0c0,-1,1,-1,1,-1c0,0,-1,-1,-1,-1c0,0,-1,-1,-1,-2c-1,0,-1,0,-1,0c0,0,-1,0,-1,0c0,0,-1,0,-1,0c0,-1,0,-1,0,-1c-1,-1,-1,-1,-1,-1l0,-1l1,-1l0,-1c0,0,1,0,1,0c0,0,1,-1,3,-1c1,-1,2,-1,4,-2c1,0,1,0,2,0ZM182.5,569.5c0,-1,0,-1,0,-1c1,0,1,-1,1,-1c1,1,1,1,1,1l0,1l0,1l0,1l0,1l-1,-1l0,1l-1,0c0,1,-1,1,-1,1l-1,0l1,-1l1,0l0,-1l0,-1l0,-1ZM183.5,569.5c-1,0,-1,0,-1,0l1,0l0,1l0,-1ZM175.5,584.5l-2,-1l1,-2l2,1ZM173.5,573.5l0,1l1,0c0,1,0,1,0,1l0,-1l1,0l0,-1l0,1c0,0,1,0,1,0l0,-1l0,-1l1,0l0,1l0,1l-1,0c0,1,0,1,0,1l-1,0c-1,1,-1,1,-1,1c-1,0,-1,0,-1,-1l0,-1ZM178.5,571.5l-6,2c0,0,1,-1,1,-1l5,-3ZM209.5,591.5l-4,2c0,-1,0,-1,1,-1l3,-2ZM200.5,581.5l-1,-1l1,-1l1,1ZM200.5,588.5l-1,0l-1,0l-1,0c-1,0,-1,0,-2,-1c0,0,0,-1,0,-2l-1,-8l1,-2l1,9l0,1l0,1c0,0,1,0,1,0l1,0l1,0l1,0c0,0,1,0,1,0c1,0,1,0,1,0c0,-1,0,-1,0,-1l0,-1l-1,-1l1,-1l1,0l0,1c0,0,0,1,0,1c0,0,0,1,0,1c0,0,0,1,0,1c0,0,0,1,-1,1c0,0,0,1,-1,1c0,0,-1,0,-1,0ZM198.5,570.5l0,1c0,1,0,1,1,1l0,-1l0,-1l1,0l0,1c1,0,1,0,1,-1l0,-1l0,1l0,1c0,1,0,1,0,1l-1,0l-1,0c0,1,0,1,-1,1l0,-1l0,-1ZM202.5,568.5l-5,2c0,0,0,-1,0,-1l6,-3ZM221.5,570.5l-1,0l-1,0l-1,0l-1,0c0,0,-1,0,-1,0c0,0,0,-1,0,-1c-1,0,-1,0,-1,-1c0,0,0,-1,1,-1c0,-1,1,-1,1,-2l-1,0c0,0,-1,0,-1,1l0,-1c1,0,1,0,1,0l1,0l1,0l1,0c-1,0,-1,0,-2,1l-1,0c0,0,0,1,0,1c0,0,0,1,0,1l0,1l1,0l0,1l1,0l1,0ZM219.5,567.5l0,1l-1,0l0,-1l1,0ZM255.5,587.5c0,0,0,1,0,1l0,-1l-1,0c0,0,-1,0,-1,0l-1,-1l0,1l-1,1l-1,0l-1,0c0,0,-1,0,-1,0l-1,-1l0,-1c0,1,-1,1,-1,2c0,0,-1,0,-1,0l-1,0l-1,0c0,0,0,1,0,1c0,1,-1,1,-1,2c0,0,0,1,-1,1l0,1c-1,0,-1,0,-1,0c-1,0,-1,0,-1,1c-1,0,-1,0,-1,0l-1,0c0,0,-1,-1,-1,-1c-1,0,-1,0,-1,0c0,0,0,-1,0,-1c0,1,0,1,1,1c1,0,1,0,2,-1c0,0,1,0,1,0c0,0,1,-1,1,-1l1,-1c0,-1,1,-1,1,-2l0,-1l-1,0l0,-1c0,-1,0,-1,0,-1c1,0,1,0,1,0c0,0,0,1,0,1l1,0l1,0c1,0,1,0,1,0c1,0,1,0,1,0c0,0,0,-1,0,-1c1,0,1,0,1,-1l0,1c0,1,1,1,1,1c0,0,1,0,1,0l1,0l1,0l1,0l1,-1c0,-1,0,-1,0,-2l1,0l1,0c1,1,1,1,1,1l0,1l0,1l0,1l-1,0ZM253.5,585.5l1,0l1,1c0,0,0,-1,0,-1c0,-1,-1,-1,-1,-1l-1,1ZM251.5,577.5l1,0c0,1,0,1,0,1c0,-1,0,-1,1,-1l0,-1l0,1c0,0,1,0,1,0l0,-1l0,-1l1,0l0,1l0,1c-1,1,-1,1,-1,1l-1,0c-1,1,-1,1,-1,1c0,0,-1,0,-1,0c0,-1,0,-1,0,-1l0,-1ZM253.5,571.5c1,-1,1,-1,1,-1c0,0,1,0,1,0c0,0,0,1,0,1c0,0,0,1,0,1c0,1,0,1,0,1l0,1l-1,0l-1,1l-1,1c0,0,-1,0,-1,0c1,-1,2,-2,2,-2l0,-1l0,-1ZM254.5,572.5l0,-1c-1,0,-1,0,-1,1l1,0l0,1l0,-1ZM246.5,592.5l-1,-1l1,-1l1,1ZM238.5,580.5l4,-3l0,1l-1,1l-4,2ZM237.5,575.5l-2,1c-1,0,-2,1,-3,1c-2,1,-3,1,-3,1c0,0,0,1,0,1c-1,0,-1,0,-1,0l1,1l2,1c0,0,1,1,1,1c0,1,1,1,1,2c0,0,0,1,0,1c0,0,0,1,0,1c0,1,0,1,-1,1l0,1c-1,0,-1,0,-1,0c-1,0,-1,0,-2,0c-1,0,-1,0,-2,0l0,-1c-1,0,-1,0,-1,-1c0,0,0,-1,0,-1l-1,1l-1,0l-1,0l-1,0l-1,0l0,-1c1,-1,1,-1,2,-2l1,-1c1,0,1,0,1,0l0,-1l0,-1l1,0l0,1l0,1l0,1l1,2l0,1c0,0,1,0,1,0l1,0l1,0c0,0,1,0,1,0l1,0c1,-1,1,-1,1,-1c0,0,0,-1,-1,-1c0,0,-1,-1,-1,-2c-1,0,-1,0,-1,0c0,0,-1,0,-1,0l-1,0c0,-1,0,-1,0,-1c0,-1,0,-1,0,-1l0,-1l0,-1l0,-1c0,0,1,0,1,0c0,0,1,-1,3,-1c1,-1,2,-1,4,-2c1,0,1,0,2,0ZM232.5,572.5l4,-3l0,1l0,1l-4,2ZM225.5,579.5l-2,-1l0,1l-2,-1l1,-1l2,1l0,-1l2,0ZM225.5,583.5l-1,0l0,1c-1,0,-1,0,-1,0l1,0l1,0l1,0ZM227.5,592.5l-5,2l1,-1l5,-2c-1,0,-1,1,-1,1ZM222.5,592.5l1,-1l5,-2c-1,0,-1,1,-1,1ZM283.5,586.5l1,0l1,0c0,0,0,-1,0,-1l0,-2l0,-6c0,0,0,-1,0,-1c0,0,0,-1,0,-1c0,0,0,-1,0,-1c1,0,1,0,1,0l0,1c0,0,0,1,1,1c0,0,-1,0,-1,1l0,1l0,-1c0,0,0,1,0,1c0,0,0,1,0,2l0,2c0,1,0,1,0,1l0,1c0,1,0,1,0,1c0,0,0,1,0,1c0,1,0,1,0,1c-1,0,-1,0,-1,0l0,1c0,0,-1,0,-1,0c0,0,-1,0,-1,0l-1,0c0,0,-1,0,-1,0l-1,0c0,0,0,-1,0,-1c-1,0,-1,0,-1,0l-1,0c0,0,0,1,-1,1l-1,0c0,0,-1,0,-1,0c-1,-1,-1,-1,-1,-1l0,1c0,0,0,1,-1,1c0,1,0,1,-1,1c0,0,-1,-1,-1,-1l-1,0c0,-1,0,-1,0,-1c0,0,0,-1,-1,-1l0,-1c0,0,0,-1,0,-1l0,1c-1,0,-1,0,-1,0l-1,0l-1,0l-1,0l0,-1c0,-1,0,-1,1,-2l1,0c0,0,0,-1,0,-1c1,0,1,0,1,0l0,-1l1,-1c0,0,0,1,0,1c0,0,0,1,1,2c0,0,0,1,0,1c0,0,0,1,0,1c0,1,0,1,0,1l0,1c1,0,1,0,1,0c0,0,0,1,1,1c1,0,1,0,1,0l0,-1c0,0,0,-1,0,-2c0,-1,0,-1,0,-2c0,-1,0,-1,0,-1c0,-1,-1,-2,-1,-3c0,-1,0,-2,0,-3l1,-2l1,11c0,0,1,1,1,1c1,0,1,0,1,0c1,0,1,0,1,0c1,0,1,0,2,0c0,0,0,-1,0,-1c0,0,1,0,1,0c0,1,1,1,1,1l1,0l1,0ZM284.5,572.5l4,-2c-1,1,-1,1,-1,1l-4,2ZM281.5,591.5l-2,-1l-1,1l-1,0l1,-2l1,1l1,-1l1,1ZM276.5,570.5c1,0,1,0,1,0c1,-1,1,-1,2,-1c0,0,1,0,1,1c1,0,1,0,1,0l0,1c0,0,-1,0,-1,0c0,1,0,1,-1,1c-1,0,-1,0,-1,0l-1,0l1,0c1,0,2,-1,2,-1c0,0,-1,0,-1,0l-1,0c0,0,-1,0,-1,0l-1,0l0,-1ZM271.5,572.5l4,-2c0,1,0,1,0,1l-4,2ZM268.5,579.5l-1,-1l-1,1l-2,-1l1,-1l2,1l0,-1l2,0ZM268.5,583.5l-1,0l0,1c-1,0,-1,0,-1,1l1,0l1,0c0,-1,0,-1,0,-1l1,0ZM262.5,595.5l5,-3c0,1,0,1,-1,1c0,0,0,1,0,1l-5,2ZM263.5,592.5l5,-3c0,1,0,1,0,1l-5,3ZM304.5,579.5l-1,-1l0,-2l2,1ZM305.5,584.5c0,1,0,1,0,1c-1,0,-1,1,-1,1l-1,-1l-1,0c0,-1,0,-1,0,-1c0,-1,0,-1,0,-2c1,0,1,-1,1,-1c0,-1,1,-1,1,-1c1,0,1,0,1,1c1,0,1,1,1,1l0,1l0,1c0,0,1,0,1,0c0,1,0,1,0,1l0,1c0,0,-1,1,-1,1c0,0,0,1,-1,1c1,0,1,0,1,0c0,0,1,0,1,0c0,1,0,1,0,1c0,1,0,1,0,1c0,1,0,1,0,1c0,0,-1,0,-1,0c0,1,0,1,-1,1c0,1,-1,1,-2,1c-1,1,-2,1,-3,1c0,0,-1,0,-2,0c-1,-1,-1,-1,-1,-1c-1,-1,-1,-1,-1,-1c0,-1,0,-1,0,-2c0,-1,0,-1,0,-2c0,-1,1,-1,1,-2c0,1,0,1,0,2c-1,0,-1,1,-1,1l0,1c1,0,1,1,2,1c0,1,1,1,2,1l1,0c0,0,1,0,1,0c0,0,1,0,1,0c1,-1,2,-1,2,-1c0,0,1,-1,1,-1c0,0,-1,0,-1,0c-1,-1,-1,-1,-2,-1c0,-1,0,-1,0,-1c0,-1,0,-1,0,-1c1,0,1,0,2,0l1,0c0,-1,0,-1,0,-1c0,0,0,-1,0,-1l-1,-1ZM303.5,583.5l1,0l1,0l-1,-1c-1,0,-1,0,-1,0ZM307.5,594.5l-4,2c0,-1,1,-1,1,-1l3,-2ZM347.5,569.5l4,-3l0,1l0,1l-4,2ZM342.5,581.5l-2,-1l1,-1l1,1ZM341.5,588.5l-1,0l-1,0c0,0,0,1,0,1c0,1,0,1,-1,2c0,0,0,1,0,1c0,0,-1,0,-1,1c0,0,-1,0,-1,0c0,0,-1,0,-1,1c0,0,-1,0,-1,0c-1,0,-1,-1,-2,-1l-1,0c0,0,0,-1,0,-1c1,1,1,1,1,1l1,0c0,0,1,0,1,-1c1,0,1,0,1,0c1,0,1,-1,1,-1c0,0,1,0,1,-1l1,0c0,-1,0,-1,0,-2l0,-1l0,-1c0,-1,0,-1,0,-1c0,0,0,1,0,1l1,0l1,0l1,0c1,0,1,0,2,0c0,0,1,0,1,0c0,-1,0,-1,0,-1l0,-1c-1,0,-1,0,-1,-1l1,-1l0,1c0,0,0,1,1,1c0,0,0,1,0,1c0,0,0,1,-1,1c0,0,0,1,0,1c0,0,-1,1,-1,1c-1,0,-1,0,-2,0ZM338.5,583.5l-1,-1l1,-2l1,2ZM334.5,575.5l5,-2l-1,0l0,1l-4,2ZM328.5,586.5l1,0c1,0,1,0,1,0c0,0,0,-1,0,-1l0,-2l0,-6c0,0,0,-1,0,-1c0,0,0,-1,0,-1c0,0,0,-1,0,-1c1,0,1,0,1,0l0,1c0,0,-1,0,-1,0c0,0,1,0,1,0c0,0,0,1,1,1c0,0,-1,0,-1,1l0,1l0,-1c0,0,0,1,0,1c0,0,0,1,0,2l0,2c0,1,0,1,0,1l0,1c0,1,0,1,0,1c0,0,0,1,0,1c0,1,0,1,0,1c-1,0,-1,0,-1,0l0,1c-1,0,-1,0,-1,0c0,0,-1,0,-1,0l-1,0c-1,0,-1,0,-1,-1c-1,0,-1,0,-1,0l0,-1c0,1,0,1,-1,2c0,0,-1,0,-1,0l-1,0c-1,0,-1,0,-2,0l-1,-1l0,-1c0,0,0,-1,0,-1l-1,1l-1,0l-1,0c0,0,-1,0,-1,0l-1,0l0,-1c0,-1,1,-1,2,-2l1,-1c1,0,1,0,1,0l0,-1l0,-1l1,0l0,1l0,1l0,1l1,2l0,1c0,0,1,0,1,0l1,0l1,0c1,0,1,0,1,0c0,0,1,-1,1,-1l0,-1l1,0l0,1l-1,0c1,1,1,1,1,1c1,0,1,0,1,0l1,0ZM145.5,573.5l1,0c0,0,1,0,1,0c1,0,1,0,2,0l0,1c0,0,0,1,-1,1l0,1l-1,0c0,0,-1,0,-1,0c-1,0,-1,0,-1,0l2,-1c0,0,1,0,1,-1c-1,0,-1,0,-1,0c-1,0,-1,0,-2,0l0,1l0,-1l0,-1ZM119.5,574.5c0,0,1,0,1,0c1,0,1,0,2,0c0,0,1,0,1,0c0,0,1,0,1,1c0,0,-1,0,-1,0l0,1c0,0,-1,0,-1,0c0,1,0,1,-1,1l-1,0l-1,0l2,-1c1,0,1,0,2,-1c-1,0,-1,0,-1,0c0,0,-1,0,-1,0c0,0,-1,0,-1,0c0,0,-1,0,-1,0c0,0,0,-1,0,-1ZM328.5,570.5l1,0c0,-1,1,-1,1,-1c1,0,1,0,2,1l0,1l-1,0c0,1,0,1,0,1l-1,0c0,0,-1,0,-1,0c-1,0,-1,0,-1,0l2,0c0,0,1,-1,1,-1c-1,0,-1,0,-1,0c-1,0,-1,0,-2,0l0,-1ZM324.5,583.5l-1,-1l1,-1l1,1ZM318.5,583.5l-1,0l0,1c-1,0,-1,0,-1,0l1,0l1,0l1,0ZM315.5,572.5c1,0,1,0,1,-1c0,0,1,0,1,0c1,0,1,1,1,1l0,1l-1,0c0,0,0,1,0,1l1,0l0,1l-1,0l-1,0l0,1c-1,0,-1,0,-1,0l-1,0l0,1l-1,0c0,-1,0,-1,0,-1l1,0l1,0c0,-1,0,-1,0,-1l1,0l0,-1c-1,0,-1,-1,-1,-1c0,0,0,-1,0,-1ZM317.5,572.5l-1,0c0,0,0,1,0,1l1,0ZM373.5,589.5l-3,2c0,0,0,-1,0,-1l4,-2ZM364.5,581.5l-1,-1l1,-1l1,1ZM364.5,588.5l-1,0l-1,0c-1,0,-2,0,-2,-1c-1,0,-1,-1,-1,-2l-1,-8l1,-2l1,9l0,1l0,1c1,0,1,0,2,0l1,0l1,0c1,0,1,0,2,0l1,0c0,-1,0,-1,0,-1l0,-1c-1,0,-1,0,-1,-1l1,-1l0,1c0,0,0,1,0,1l1,0c0,0,0,1,0,1l-1,0c0,0,0,1,0,1c0,0,0,1,0,1c0,0,-1,1,-2,1l-1,0ZM363.5,574.5l0,1c0,0,1,-1,1,-1l0,-1l0,1c1,0,1,0,1,0l0,-1l0,-1l1,0l0,1l0,1c0,1,-1,1,-1,1l-1,0c-1,1,-1,1,-1,1c0,0,-1,0,-1,0c0,-1,0,-1,0,-1l0,-1ZM367.5,571.5l-6,3c0,-1,1,-2,1,-2l5,-3ZM359.5,567.5c1,0,2,0,3,0c1,1,1,1,2,1l1,0l0,-1l1,0c0,1,-1,1,-2,1l0,1l-1,0l-1,0l-1,0l0,-1l-1,0l-1,0l-1,0l-1,0c1,0,1,-1,2,-1ZM341.5,570.5c0,0,0,-1,0,-1c1,0,1,0,2,0c0,0,1,0,1,0c1,1,1,1,1,1c0,1,-1,1,-1,1c0,0,0,1,0,1c-1,0,-1,0,-1,0c-1,0,-1,0,-1,0l-1,0l1,0c1,-1,2,-1,2,-1c0,0,-1,-1,-1,-1l-1,0l-1,1l-1,0c0,-1,0,-1,0,-1l1,0ZM323.5,577.5l1,0l0,-1c0,0,-1,-1,-1,-1c0,-1,0,-1,0,-2l0,-1c1,0,1,1,1,1c0,1,0,1,0,1l0,1c0,0,0,1,0,1c0,0,0,1,-1,1ZM245.5,580.5c0,-1,0,-1,0,-2c0,-1,0,-1,-1,-2l1,0l0,1c1,0,1,0,1,0l0,1c0,0,0,1,0,1c-1,1,-1,1,-1,1ZM148.5,539.5c0,1,0,2,0,2l0,1l-1,0c0,1,0,1,0,1l1,0l0,1l-1,0l-1,1l0,1l-1,0l-1,0l0,1l-1,0l-1,0c-1,0,-1,0,-1,0l0,1l-1,1c-1,0,-1,0,-1,0l-3,0l-1,-1c0,0,-1,-1,-1,-1c-1,0,-2,0,-2,-1l-1,0l-1,0l0,-1l-1,0l0,-1l-1,0l0,-1l1,0l-1,-1l0,-1l-1,0l0,-1l0,-1l0,-1l0,-1c0,0,1,0,1,-1l1,-1l-1,0l0,-1l1,-1l1,0l0,-1l1,0l1,-1l2,0l0,-1l1,0l1,-1l0,-1l3,0l1,1l0,1l1,0l1,1l1,0l1,1c1,0,1,0,1,0l1,1c1,1,2,1,2,1l0,1l-1,0l0,1l1,0l0,1l0,1ZM139.5,549.5l1,0l0,-1l1,0l0,-1c1,0,1,0,2,0l0,-1l1,0c0,0,1,0,1,-1l1,0l1,-1l-1,-1l1,0l0,-1l0,-1l1,0l0,-1l0,-1c0,-1,0,-2,0,-2c0,0,-1,0,-1,-1l0,-1l-1,0l2,-1c-1,0,-1,0,-2,-1l-1,-1l-1,0l-1,-1l-2,0l0,-1l-1,0l0,-1l-1,0l-1,0l-2,0l0,1l-1,0c0,1,-1,1,-1,1l-2,1l-1,0l-1,0l0,1l-1,0c0,1,-1,1,-1,1l1,1l-1,1l0,1l0,1c0,0,0,1,0,1l0,1l0,1l0,1l1,0l0,1l-1,1l1,0l0,1l1,0l0,1l1,0l1,0l1,1l1,0c0,0,1,0,1,1l1,0l0,1ZM145.5,534.5l-1,0l0,1l0,-1l-1,0l0,-1l-1,0l-1,0c1,0,1,0,1,0c0,0,0,-1,0,-1l-1,0c1,0,1,0,1,0l1,0l0,1c1,0,1,0,1,0l0,1l1,0ZM145.5,544.5l-1,1l-1,0l-1,1l0,-1l1,0c1,-1,1,-1,1,-1l1,0ZM140.5,546.5c0,0,0,1,0,1l-1,0l-3,0l-1,0l0,-1c0,0,0,-1,0,-1c0,0,1,0,1,0l3,0c0,0,1,0,1,0l0,1ZM140.5,532.5c0,0,0,1,0,1l-1,0l-3,0l-1,0l0,-1c0,0,0,-1,0,-1l1,0l3,0c1,0,1,0,1,0l0,1ZM139.5,535.5c0,-1,1,-1,1,-1c0,0,1,0,1,0c0,0,1,0,1,0c0,0,0,1,1,1l0,1l2,-1l0,1l1,1l0,1l0,1l0,1l0,1l-1,0c0,1,0,1,0,1l0,1l-1,-1c0,0,-1,0,-1,1l-1,0l0,1l-1,0l-1,0l-1,-1l-3,0l0,1c-1,0,-1,0,-1,0c-1,0,-1,0,-2,0c0,-1,0,-1,-1,-1l0,-1l-1,1l-1,-1l0,-1l0,-1l0,-1c0,0,0,-1,0,-1c0,0,0,-1,0,-1l0,-1c1,-1,1,-1,1,-1l1,1l1,-1l0,-1c1,0,1,0,2,0l1,0l0,1ZM139.5,543.5l1,0l1,1c0,0,1,0,1,-1l1,0l0,-1l2,0l0,-1l0,-1l1,0l0,-1c0,-1,0,-1,-1,-2c0,0,0,-1,0,-1l-2,0l0,-1l-1,0l-1,-1c0,0,-1,0,-1,0l0,1l-1,0l-3,0l-1,-1c-1,0,-1,0,-1,0c0,0,0,1,-1,1l-1,0c0,1,0,1,0,1l-1,0l-1,0l0,1l0,1l0,1c0,0,0,1,0,1l0,1c0,1,1,1,1,1l1,0l1,1l1,0l0,1l1,0l0,-1c1,0,1,0,1,0l3,0ZM139.5,537.5l0,1c-1,0,-1,0,-1,0l0,1l-1,0l1,0l0,1c0,1,0,1,0,1l-1,1l0,-1l0,-1l0,-1l0,-1l-1,0l1,-1c0,1,0,1,1,1c0,0,1,0,1,-1ZM131.5,534.5l0,-1l1,0l1,-1l1,0l0,1c0,0,-1,0,-1,0l-1,0l0,1l-1,0l0,1l0,-1ZM130.5,544.5l1,0c0,0,1,0,1,1l1,0l1,0c0,1,0,1,0,1l-1,0c-1,-1,-1,-1,-2,-1l0,-1ZM195.5,542.5l0,-2l0,-1l0,-8l1,-3l0,11c0,0,0,1,0,1c0,1,0,1,-1,2ZM188.5,540.5l1,0c1,0,1,-1,1,-1l0,-1l0,-1l0,-7c-1,0,-1,0,-1,-1c0,0,1,0,1,-1c0,1,0,1,1,1l1,0c-1,1,-1,1,-1,1c0,1,0,1,0,1c0,1,0,1,0,2c0,0,0,1,0,3c0,0,0,1,0,1l0,1c0,0,0,1,0,1c0,0,0,1,0,1l-1,0c0,1,0,1,0,1c-1,0,-1,0,-1,0c-1,0,-1,0,-1,0l0,1l-1,0c-1,0,-1,-1,-2,-1l-1,0c0,0,0,1,-1,1c0,0,-1,0,-1,0l-1,-1l-1,-1l-1,1c-1,0,-1,1,-1,1l-1,0l-1,0l-1,0c0,0,0,-1,0,-1c-1,0,-1,0,-1,0l-1,0c0,-1,0,-1,0,-1c-1,0,-1,1,-1,1c0,0,-1,0,-1,0l0,1l-1,0l0,-1l-1,0c0,0,-1,0,-1,0c-1,-1,-1,-1,-1,-1l0,-1l0,-1c0,-1,0,-1,0,-1c0,1,-1,1,-2,2l-1,0c1,0,1,1,1,1c0,1,0,1,0,1c0,1,0,2,-1,2c0,1,0,1,-1,2c0,0,-1,1,-2,1c0,0,-1,0,-2,0c0,0,-1,0,-1,0c-1,0,-1,0,-2,0c0,-1,-1,-1,-1,-2c0,0,0,-1,0,-1c0,-1,0,-1,0,-1c0,0,0,-1,0,-1l0,-1c0,0,1,0,1,-1l1,0c-1,0,-1,0,-1,1l0,1l0,1c0,0,0,1,0,1l1,1c0,0,1,0,1,0c0,0,1,0,2,0c0,0,1,0,2,0c0,0,1,-1,1,-1c0,0,1,0,1,-1l0,-1c0,0,0,-1,0,-1c0,0,-1,0,-1,0c0,-1,0,-1,0,-1c0,-1,0,-1,0,-1l-1,-1l1,-1l1,0c0,0,0,1,0,1l1,0l1,0l1,-1l0,-1c1,0,1,0,1,1l0,1l0,1l0,1c1,1,1,1,1,1c0,0,1,0,1,0c0,0,1,0,1,0c0,0,1,0,1,-1l1,0l1,0l0,1c1,0,1,0,1,0l1,0l1,0l1,0l1,0l0,-1l1,-1c1,-1,2,-2,2,-2l0,1l1,1l1,0l0,1l1,0c0,1,1,1,1,1l1,0ZM188.5,524.5c0,-1,0,-1,1,-1c0,0,1,0,1,0c1,0,1,0,1,0c1,0,1,1,1,1c0,0,0,1,-1,1l0,1l-1,0c0,0,-1,0,-1,0l-1,0l2,-1c0,0,1,0,1,-1l-1,0c-1,0,-1,0,-2,0c0,0,0,1,0,1l0,-1ZM184.5,540.5l-1,-1c0,0,-1,-1,-1,-1l-1,0l0,1l1,0l1,1ZM181.5,526.5c0,-1,1,-1,1,-1c0,0,0,-1,1,-1c0,0,0,1,0,1l0,1l0,1l0,1l1,0l-1,1l-1,-1l0,1l-1,0c0,0,0,1,0,1l-1,0l-1,0l1,0l0,-1c0,0,1,0,1,0l0,-1l1,0l-1,0l0,-1l0,-1ZM182.5,526.5l0,1l0,-1ZM173.5,545.5l-1,-1l0,-1l2,1ZM172.5,548.5l-3,2c0,-1,0,-1,0,-2l4,-1ZM169.5,544.5l-1,0l-1,1l-2,-1l1,-1l2,0l0,-1l2,1ZM159.5,537.5l-1,-1l1,-1l1,1ZM162.5,549.5l-4,3c0,-1,0,-1,0,-2l4,-2ZM268.5,538.5c0,0,0,1,0,1c1,0,1,0,1,0c0,-1,0,-1,0,-1l-1,0ZM268.5,545.5c0,0,0,1,0,1c0,0,-1,0,-1,0c0,0,-1,0,-1,0l-1,0c0,0,-1,0,-2,0l0,-1l1,0c1,0,1,0,1,0l1,0c0,0,1,0,1,0c0,-1,1,-1,1,-1c0,-1,1,-1,1,-1c0,0,0,-1,0,-1c1,-1,1,-1,1,-2l-1,0c0,1,0,1,0,1l-1,0l-1,-1c0,0,0,-1,0,-1c0,0,0,-1,0,-1c0,-1,0,-1,0,-1c1,-1,1,-1,1,-1c0,0,1,-1,1,-1c0,0,0,1,1,1l0,1c1,1,1,1,1,1c0,1,0,1,0,2c0,0,0,1,0,1c0,1,-1,1,-1,2c0,1,-1,1,-1,1c0,1,0,1,-1,1ZM266.5,532.5l4,-2l-1,0c0,1,0,1,0,1l-4,2ZM262.5,542.5l0,-2l0,-1l-1,-8l1,-3l1,11c0,0,0,1,0,1c0,0,-1,0,-1,0c0,1,0,1,0,2ZM254.5,540.5c1,0,1,0,1,0l1,0c0,0,0,-1,0,-1c1,0,1,0,1,-1l0,-1l-1,-7l0,-1l0,-1l1,0c0,1,0,1,0,1l1,0c0,1,0,1,0,1c0,1,-1,1,-1,1c0,1,0,1,0,2c0,0,0,1,0,3c0,0,0,1,1,1l0,1c0,0,-1,1,-1,1c0,0,0,1,0,1c0,1,0,1,-1,1c0,0,-1,0,-1,0l-1,0l0,1l-1,0c0,0,-1,-1,-1,-1l-1,0c0,0,-1,0,-1,-1c0,0,1,0,1,0c-1,0,-1,0,-1,0c0,0,-1,0,-1,0c-1,0,-1,0,-2,0c-1,0,-2,0,-2,0c-1,1,-2,1,-3,1c-1,0,-2,0,-2,0c-2,0,-3,0,-4,0c0,0,-1,0,-2,0c-1,0,-2,0,-3,0c-1,0,-2,1,-3,1l-1,0c-1,0,-1,-1,-1,-1c0,0,-1,0,-1,0c0,-1,-1,-1,-1,-1c-1,0,-1,1,-1,1c0,0,-1,0,-1,0l-1,0l0,1l-1,0c0,0,0,-1,0,-1c-1,0,-1,0,-1,0c0,0,-1,-1,-1,-1l0,1c0,0,-1,0,-1,0c-1,0,-2,1,-2,1l-2,0l-1,0l-1,0l-1,1c-2,0,-3,-1,-4,-1c-1,0,-2,0,-2,-1c-1,0,-1,-1,-1,-1l0,-1l0,-1l0,-1c0,0,1,-1,1,-1c0,0,0,1,0,1c0,0,0,1,0,1c0,0,0,1,0,1c0,0,1,1,2,1c1,0,1,1,2,1c0,0,1,0,3,0c0,0,1,0,1,0c1,0,1,0,2,-1l1,0c1,0,2,-1,3,-1c0,0,1,-1,1,-1l0,1l0,1c1,0,1,0,1,0l1,0c0,0,1,0,1,0c0,0,1,0,1,-1l1,0l1,0l1,1l1,0l1,0c1,0,2,0,3,0c1,0,1,0,2,0c1,0,2,0,3,0c0,0,1,0,2,0c1,-1,1,-1,2,-1c1,0,2,0,3,0c0,0,1,0,3,0c1,-1,2,-1,2,-1c1,0,2,0,3,0l0,-1c0,0,-1,0,-1,0c0,0,-1,0,-1,0c-1,0,-3,0,-5,0c-1,0,-3,0,-5,0c-2,1,-4,1,-5,1c-2,0,-3,0,-4,-1c0,-1,0,-1,1,-2l0,-1c0,0,1,0,1,-1c1,-1,2,-1,3,-2c1,-1,2,-1,2,-2c1,0,1,0,1,0l-1,2l-1,0c0,1,-1,1,-2,2c-1,1,-2,1,-2,2c0,0,-1,0,-1,0c0,1,0,1,0,1l1,0l1,0c0,0,1,0,1,0c1,0,3,0,5,0c2,0,4,-1,6,-1c2,0,3,0,4,0l1,0c0,0,1,0,1,0c1,1,1,1,1,1c0,1,0,1,0,1c0,1,0,1,0,2c0,0,0,1,-1,1c1,0,1,0,1,0l1,0l1,0ZM254.5,524.5c0,-1,1,-1,1,-1c1,0,1,0,1,0c1,0,1,0,2,0c0,0,0,1,0,1c0,0,0,1,0,1c0,0,-1,0,-1,1c0,0,-1,0,-1,0l-1,0l-1,0l2,-1c1,0,1,0,2,-1c-1,0,-1,0,-1,0c0,0,-1,0,-1,0c0,0,-1,0,-1,0c0,0,-1,1,-1,1l0,-1ZM238.5,545.5l-5,2c0,-1,1,-1,1,-1l4,-2ZM225.5,536.5l-1,-1l-1,2l-2,-1l1,-2l2,1l0,-1l2,1ZM211.5,546.5l-2,-1l1,-1l2,1ZM213.5,549.5l-5,2c1,-1,1,-1,1,-1l4,-2ZM297.5,539.5c0,1,0,2,0,2l-1,1c0,1,0,1,-1,1l2,0l0,1l-1,0l-1,1l-1,0l0,1l-1,0l-1,1l-1,0l-1,0l0,1l-1,1l-1,0l-1,0l-1,0l-1,-1c0,0,0,-1,-1,-1c-1,0,-2,0,-2,-1l-1,0l-1,0l0,-1l-1,0l0,-1l-1,0l0,-1l1,0l0,-1l-1,0l0,-1l0,-1l0,-1l0,-1l0,-1l0,-1l1,0l0,-1l-1,0l0,-1l1,0l0,-1l1,0l0,-1l1,0l2,-1l1,0l1,-1l1,-1l0,-1l1,0l1,0l0,1l1,0l0,1l1,0l0,1l2,0l1,1c0,0,1,0,1,0l0,1l1,0c1,1,1,1,2,1l0,1l-1,0l0,1l1,0l0,1l0,1ZM288.5,549.5l1,0l0,-1l1,-1c1,0,1,0,2,0l0,-1l1,0c0,0,1,0,1,-1l1,0l0,-1l1,0l-1,-1l1,-1l0,-1l1,0l0,-1l0,-1c0,-1,0,-2,-1,-2l0,-1l0,-1l-1,0l1,-1l-1,-1l-1,0l0,-1l-1,0l-1,-1l-2,0l0,-1l-1,0l0,-1l-1,0l-1,0l-1,0l0,1l-1,0c0,1,0,1,-1,1l-1,1l-1,0l-1,0l-1,1c-1,1,-1,1,-2,1l1,1l0,1l-1,1l0,1c0,0,0,1,0,1l0,1l0,1l0,1c1,0,1,0,1,0l0,1l1,0l-1,0l-1,1l1,0l1,1l1,0l0,1l1,0l1,0l0,1l1,0c1,0,1,0,1,1l1,0l0,1c0,0,1,0,1,0ZM294.5,534.5l-1,0l0,1l0,-1l-1,0l0,-1l-1,0c-1,0,-1,0,-1,0c0,0,0,-1,0,-1c0,0,1,0,1,0l1,0l0,1l1,0l0,1l1,0ZM294.5,544.5l-1,0l0,1l-1,0l-1,1l-1,0l1,-1c0,0,-1,0,-1,0c1,0,1,0,1,0l1,0c1,-1,1,-1,1,-1l1,0ZM289.5,546.5c0,0,0,1,0,1c0,0,-1,0,-1,0l-1,0l-1,0l-1,-1c0,0,0,-1,1,-1l1,0l1,0l1,0l0,1ZM289.5,532.5c0,0,0,1,0,1l-1,0l-1,0l-1,0l-1,0l0,-1c0,0,0,-1,1,-1l1,0l1,0c0,0,1,0,1,0l0,1ZM288.5,535.5c0,-1,0,-1,0,-1l1,0l1,0c0,0,1,0,1,0c0,0,0,1,1,1l0,1l1,-1c1,0,1,0,1,1l0,1l1,0l0,1l0,1l0,1l0,1l-1,0c0,1,0,1,0,1l0,1l-2,-1l0,1c-1,0,-1,0,-1,0l0,1l-1,0l-1,0c0,0,-1,0,-1,-1l-1,0l-1,0l0,1l-1,0c-1,0,-1,0,-1,0c-1,-1,-1,-1,-1,-1l-1,0l0,-1l-1,1l0,-1l-1,-1l0,-1l0,-1c0,0,0,-1,0,-1c0,0,0,-1,0,-1l0,-1l1,0c0,-1,0,-1,0,-1l1,1c0,0,1,0,1,-1l1,0l0,-1l1,0c0,0,1,0,1,0l0,1l1,0ZM288.5,543.5l1,0l1,1l0,-1l1,0l1,-1l1,0l1,0l0,-1l0,-1l1,-1c0,-1,-1,-1,-1,-2c0,0,0,-1,0,-1c0,0,-1,0,-1,0l-1,0l0,-1l-1,0l-1,-1c-1,0,-1,0,-1,0l0,1c0,0,-1,0,-1,0l-2,0l0,-1l-1,0c0,0,-1,0,-1,0c0,0,0,1,0,1l-1,0c0,1,-1,1,-1,1l-1,0l0,1l-1,0l0,1l0,1c0,0,0,1,0,1l0,1l1,0c0,1,0,1,0,1l1,0c0,0,1,0,1,0l0,1l1,0l1,1c0,0,1,0,1,-1l1,0l1,0ZM287.5,537.5l0,1l1,0c0,1,0,1,0,1l0,1l0,1l0,1c-1,-1,-1,-1,-1,-1l0,-1c0,0,0,-1,0,-2ZM281.5,534.5l1,-1l1,0l0,-1l1,0l0,1l-1,0l-1,1l0,1l-1,-1ZM281.5,544.5l1,0l1,1l1,0c0,1,0,1,0,1l-1,0c0,-1,-1,-1,-1,-1l-1,0l0,-1ZM326.5,539.5l-2,0c-1,0,-1,0,-2,0l-1,0l-1,0l0,1l-1,0c-1,0,-1,0,-1,1c-1,0,-1,0,-1,0c-1,0,-2,0,-2,0l0,1l-1,0l-3,0c0,0,-1,-1,-1,-1l0,1l0,1l-1,0c0,0,0,1,0,1c-1,0,-1,-1,-1,-1c-1,-1,-1,-1,-1,-2l0,-1c0,0,-1,1,-1,1l-1,0l0,1l-1,0l0,1l1,0l0,1l0,2l0,1l0,1c0,1,1,2,1,2l-1,1l0,-1l0,-1l0,-1l-1,-3l0,-1l0,-1l0,-1l0,-1c0,0,0,-1,1,-1l0,-1l1,0l1,-1l1,0c0,0,1,1,2,1l1,1l2,0l1,0c1,0,1,0,1,0c1,0,1,0,2,-1c0,0,1,0,1,0l2,0l0,-1l-1,0l-1,-1l-1,0l-1,0l-1,0c0,0,0,-1,1,-1l0,-1c1,0,1,0,1,0c0,0,1,0,1,0l0,1l1,0l2,1l1,0c0,0,1,0,1,0c0,0,1,0,1,0c1,0,1,0,1,0l1,0ZM312.5,530.5c-1,0,-1,0,-2,0l-1,0l-1,0c0,0,0,1,0,1c0,-1,0,-1,0,-1l1,-1c0,0,1,1,1,1l1,0l1,-1ZM164.5,526.5l1,0c0,0,1,0,1,0c1,0,1,0,2,0l0,1l-1,1c-1,0,-1,1,-1,1c0,0,-1,0,-1,0c0,0,-1,0,-1,0l2,-1c0,0,1,0,1,-1c-1,0,-1,0,-1,0c-1,0,-1,0,-2,0c0,0,0,-1,0,-1ZM223.5,530.5l0,-1c0,0,0,-1,0,-1c0,-1,-1,-1,-1,-2l1,-1c0,0,0,1,0,1c0,1,0,1,0,1l0,1c0,0,0,1,0,1c0,0,0,1,0,1ZM319.5,531.5l0,-1c0,0,0,-1,0,-1c0,-1,0,-1,0,-2l0,-1c0,0,0,1,1,1c0,1,0,1,0,1l0,1c0,1,0,1,0,1c0,0,-1,1,-1,1ZM156.5,493.5c0,0,-1,1,-1,2l0,1l-1,0l0,1l1,0l0,1l-1,0c0,0,-1,0,-1,1c-1,0,-1,1,-2,1l-1,0l0,1l-1,0l-1,0l-1,1l0,1l-3,0l-1,0l0,-1l-1,-1l-1,0c-1,0,-2,-1,-2,-1l-1,0l0,-1l-1,0l0,-1l-1,0l-1,0l0,-1l1,0l0,-1l-1,-1l0,-1c0,0,0,-1,0,-1l0,-1l0,-1c0,0,0,-1,0,-1c0,-1,0,-1,1,-1l0,-1l-1,0l0,-1l1,0l1,-1l1,0l0,-1l2,0l1,-1l1,0l1,-1c0,-1,0,-1,0,-1l1,0l3,0l0,1l1,0l0,1l1,0l2,1l1,0c0,0,0,1,0,1l1,0l1,1c0,0,1,0,1,1l-1,0l0,1l1,0l0,1l0,1l0,1ZM147.5,503.5l0,-1l1,-1l1,0c0,-1,1,-1,1,-1l1,0c1,0,1,-1,1,-1l1,0l0,-1l1,0l0,-1l1,0l-1,0l0,-1l1,-1l0,-1l0,-1c0,-1,0,-2,0,-3l-1,-1l0,-1l1,0c0,0,-1,-1,-1,-1l-1,0l0,-1l-1,0l-2,-1l-1,-1c-1,0,-1,0,-1,0l-1,-1c0,-1,0,-1,0,-1l-2,0l-1,0l-1,0l0,1l-1,1l-1,0l-1,1l-1,1l-1,0l-1,0l0,1c-1,0,-1,0,-2,1l1,0l0,1l-1,1l0,1l0,1l0,1l0,1l0,1c1,0,1,0,1,1l0,1l1,0c0,0,-1,0,-1,0l-1,0l1,0l0,1l1,0l0,1l1,0l1,1l1,0l1,1c1,0,1,0,1,0l1,1c0,0,0,1,1,1ZM152.5,488.5l-1,0l0,-1l-1,0c-1,0,-1,0,-1,0c0,-1,0,-1,0,-1l1,0c0,0,1,0,1,0c0,0,0,1,0,1l1,0ZM152.5,497.5l0,1l-1,1l-1,0l-1,0c0,0,1,0,1,0l0,-1l1,0c0,0,0,-1,1,-1ZM148.5,500.5l-1,0c0,1,0,1,0,1l-3,0l-1,0l0,-1c0,0,-1,0,-1,0c0,-1,0,-1,1,-1c0,0,0,-1,0,-1l1,0l3,0l0,1l1,0ZM148.5,486.5l-1,0c0,1,0,1,0,1l-3,0l-1,0l0,-1l-1,0c0,-1,0,-1,1,-1l0,-1l1,0l3,0l0,1c1,0,1,0,1,0ZM147.5,488.5c1,0,1,0,1,0c1,0,1,0,1,0c1,0,1,0,1,1l1,0l1,0l1,1l0,1l0,1l0,1c0,1,0,1,0,1l0,1l-1,1l-1,0l-1,1l-1,0l-1,0c0,0,-1,0,-1,0l-3,0l-1,0l-1,0c-1,0,-1,0,-1,0c-1,0,-1,0,-1,-1l-1,0l-1,0l-1,-2l0,-1c0,-1,0,-1,0,-1c0,-1,0,-1,0,-1l0,-1l1,0l0,-1l1,0c0,0,1,0,1,0l0,-1l1,0l1,0c0,0,1,0,1,0l1,0ZM147.5,497.5c0,0,1,0,1,0l1,0l1,0l0,-1c1,0,1,0,1,0l1,0l0,-1l1,0l0,-1l0,-1c0,-1,0,-2,0,-2c0,-1,0,-1,-1,-1c0,-1,0,-1,0,-1l-1,1c0,0,0,-1,0,-1l-1,0l0,-1l-1,0l-1,0l-1,0l0,1l-4,0l0,-1l-1,0c0,0,-1,0,-1,0l-1,1c0,0,-1,1,-1,1l-1,-1l0,1l-1,1l0,1l0,1l0,1l1,1c0,0,0,1,0,1l1,0l1,0l0,1l1,0l1,0c0,0,1,0,1,0l0,-1l1,0l3,0ZM146.5,491.5c0,0,0,1,0,1l-1,0l0,1l0,1l0,1l0,-1l-1,-1l0,-1l0,-1c0,0,1,0,1,0c1,0,1,0,1,0ZM138.5,488.5l0,-1l1,0l0,-1l1,0l1,0l0,1l-1,0l-1,0l0,1l-1,0ZM138.5,497.5l1,0c0,0,0,1,1,1l0,1l1,0l-1,0c0,0,-1,0,-1,-1l-1,0ZM203.5,495.5l0,-1l0,-1l-1,-9l1,-2l1,11c-1,0,-1,1,-1,1c0,0,0,1,0,1ZM195.5,493.5c0,0,1,0,1,0l1,0c1,0,1,-1,1,-1l0,-2l-1,-6l0,-1c0,0,0,-1,0,-1c0,0,0,-1,1,-1l0,1c0,1,0,1,1,1c0,0,0,1,0,1c-1,0,-1,0,-1,1c0,0,0,1,0,2c0,0,0,1,0,2c0,1,0,1,0,2l0,1c0,1,0,1,0,1c0,1,0,1,0,1l-1,0c0,1,0,1,0,1c0,0,-1,0,-1,0l-1,0l-1,0c-1,0,-1,0,-2,0l0,-1c0,1,-1,1,-1,2c-1,0,-1,-1,-2,-1l-1,0l-1,-1l-1,1c0,0,-1,0,-1,0l-1,0l-1,0c-1,0,-1,0,-1,0c0,0,-1,0,-1,0l0,-1c-1,0,-1,0,-1,0l-1,0c0,1,0,1,-1,1l-1,0l-1,0l-1,0l0,-1l0,-1l-1,0l0,-1l0,-1c0,1,-1,1,-1,1c-1,1,-1,1,-1,1c0,1,0,1,0,1l0,1c0,1,0,1,0,2c-1,0,-1,1,-2,1c0,1,-1,1,-1,2c-1,0,-2,0,-2,0c-1,0,-2,0,-2,0c-1,0,-1,-1,-1,-1c-1,0,-1,-1,-1,-1c-1,-1,-1,-1,-1,-2c0,0,0,-1,0,-1l0,-1l1,0l0,-1c0,0,0,-1,1,-1c0,1,0,1,-1,1c0,1,0,1,0,1l0,1c0,1,0,1,0,1c0,1,1,1,1,1l1,1c1,0,1,0,2,0c1,0,1,0,2,0c1,-1,1,-1,2,-1c0,-1,0,-1,0,-1l0,-1l0,-1c0,0,0,-1,0,-1c0,0,-1,0,-1,-1l0,-1l0,-2c0,0,1,1,1,1c0,0,0,1,0,1l1,0c0,0,1,0,1,0c1,-1,1,-1,1,-1c0,0,0,-1,1,-1l0,1l0,1c0,0,0,1,0,1c0,1,1,1,1,1c1,0,1,0,1,0c1,0,1,0,1,0c1,0,1,0,2,0l0,-1c0,0,1,0,1,0l0,1c0,0,1,0,1,0l1,0l1,0l1,0c0,0,1,0,1,0l1,0c0,0,0,-1,0,-1c1,-1,2,-2,3,-2l1,1l0,1l1,1c1,0,1,0,1,0l1,0l1,0ZM171.5,480.5c1,0,1,0,1,0c1,0,1,0,2,0c0,0,1,0,1,0c0,0,1,0,1,1c-1,0,-1,1,-1,1l-1,0l0,1c-1,0,-1,0,-1,0l-1,0l1,-1c1,0,1,0,2,-1c0,0,-1,0,-1,0l-1,0c0,0,-1,0,-1,0l-1,0c0,0,0,-1,0,-1ZM195.5,477.5c0,0,1,0,1,0c0,0,1,0,1,0c1,0,1,0,2,0c0,0,0,1,0,1l0,1c-1,0,-1,0,-1,0c0,0,-1,0,-1,0c0,0,0,1,-1,1c0,0,0,-1,-1,-1l2,0c1,0,1,-1,2,-1c-1,0,-1,0,-1,0c-1,0,-1,0,-1,0c0,0,-1,0,-1,0c0,0,-1,0,-1,0c0,-1,0,-1,0,-1ZM191.5,494.5l-1,-1c0,-1,0,-1,0,-2c-1,0,-1,0,-1,0l0,1l-1,0c0,0,1,1,1,1l1,0ZM189.5,479.5l0,-1c0,0,1,0,1,0c1,0,1,1,1,1c0,0,0,1,0,1l-1,0c0,0,0,1,0,1l1,0l0,1l-1,0l-1,0l0,1c-1,0,-1,0,-1,0l0,1l-1,0l-1,0l1,-1l1,0c0,0,0,-1,0,-1l1,0l0,-1c-1,0,-1,0,-1,-1l1,-1ZM190.5,479.5l-1,0c0,1,0,1,0,1l1,0ZM180.5,499.5l-1,-1l1,-1l1,1ZM180.5,501.5l-4,2c0,0,0,-1,0,-1l4,-2ZM176.5,498.5l-1,-1l-1,1l-1,0l1,-2l1,1l1,-1l1,1ZM167.5,491.5l-2,-1l1,-2l2,1ZM169.5,503.5l-4,2c0,-1,0,-1,0,-1l4,-2ZM261.5,491.5c0,0,-1,0,-1,0c0,0,0,1,0,1l1,0c0,0,0,-1,0,-1ZM261.5,499.5c0,0,-1,0,-1,0c0,0,0,1,0,1c-1,0,-2,0,-2,0l-1,0l-1,-1c0,0,-1,0,-1,0c0,0,1,0,1,0l1,0c1,0,1,0,1,0c1,-1,1,-1,1,-1c1,0,1,0,1,-1c1,0,1,0,1,0c0,-1,0,-1,1,-2c0,0,0,-1,0,-1l0,-1c0,1,0,1,0,1c-1,0,-1,0,-1,0c0,0,-1,0,-1,0l-1,0c0,0,0,-1,0,-1c0,0,0,-1,0,-1l0,-1c0,0,1,0,1,-1l0,-1c1,0,1,0,1,0c0,0,1,0,1,0c0,0,0,1,0,1c1,0,1,1,1,1c0,0,0,1,0,1c0,0,0,1,0,1c0,1,0,1,0,1c0,1,0,2,-1,3c0,0,0,1,0,1c-1,0,-1,1,-1,1ZM258.5,485.5l4,-2l0,1l-4,2ZM254.5,495.5l0,-1l0,-1l-1,-9l1,-2l1,11c0,0,0,1,0,1c-1,0,-1,1,-1,1ZM246.5,493.5c1,0,1,0,1,0c1,0,1,0,1,0c0,0,1,0,1,0c0,0,0,-1,0,-1l0,-2l-1,-6l0,-1c0,0,0,-1,0,-1c1,0,1,-1,1,-1l0,1c1,1,1,1,1,1c0,0,0,1,0,1l0,1c0,0,0,1,0,2c0,0,0,1,0,2c0,1,0,1,0,2l0,1c0,1,0,1,0,1c-1,1,-1,1,-1,1c0,1,0,1,-1,1l-1,0l-1,0c-1,0,-1,0,-2,0c0,0,0,-1,-1,-1l-2,-2c0,-1,-1,-1,-1,-1l-1,0l1,0l-1,1l0,1c0,1,0,1,0,1c-1,0,-1,1,-1,1l-1,0c0,0,-1,0,-1,0l-1,0l-1,0c0,0,-1,0,-1,0l-1,0l0,-1c-1,0,-1,0,-1,0l-1,0c0,1,0,1,-1,1l-1,0c-1,0,-1,0,-1,0c0,0,-1,0,-1,0c0,-1,0,-1,0,-1c0,0,-1,0,-1,0l-1,1c0,0,-1,0,-2,0l-2,1c-1,0,-1,0,-1,0l-1,0l-1,0c-1,0,-3,0,-4,0c-1,0,-1,-1,-2,-1c0,-1,-1,-1,-1,-1c0,0,0,-1,0,-1l0,-1c0,-1,0,-1,0,-1c1,-1,1,-1,1,-2l1,1c-1,0,-1,0,-1,1c0,1,0,1,0,2c1,0,1,0,2,1l1,0l1,0c1,0,2,0,3,0c1,0,1,0,2,0c0,0,1,0,1,0l1,0c0,0,1,0,1,0c1,-1,1,-1,2,-1c1,-1,1,-1,1,-1l0,1l1,0l1,0c1,0,1,0,1,0c1,0,1,0,2,0l0,-1c0,0,1,0,1,0l0,1c0,0,1,0,1,0l1,0l1,0l1,0c1,0,1,0,1,0c0,0,1,0,1,0c0,0,1,0,1,-1c0,-1,0,-1,0,-1c0,0,-1,-1,-1,-1c-1,-1,-1,-1,-1,-1c-1,0,-1,-1,-1,-1c-1,0,-1,0,-1,0l-1,0c0,-1,0,-1,0,-1c0,-1,0,-1,0,-1c0,0,0,-1,0,-1c1,0,1,0,1,0c0,-1,0,-1,0,-1c1,0,2,-1,3,-1c1,-1,3,-1,4,-2c2,0,3,-1,3,-1c1,0,1,0,1,0l-1,2c-1,0,-2,0,-3,1c-2,0,-3,1,-4,1c-2,1,-2,1,-3,2l1,1c0,0,1,0,1,0l1,0l0,1c1,0,2,1,2,1c1,0,1,1,2,1c0,1,1,1,1,2l2,1l1,0ZM246.5,477.5c1,0,1,0,1,0c1,0,1,0,2,0c0,0,1,0,1,0c1,0,1,0,1,0c0,0,0,1,0,1c0,0,-1,0,-1,1l-1,0c-1,0,-1,1,-1,1l-1,0c0,0,0,-1,0,-1l1,0c1,0,2,-1,2,-1c0,0,-1,0,-1,0l-1,0c0,0,-1,0,-1,0l-1,0c0,-1,0,-1,0,-1ZM240.5,500.5l-4,3c0,-1,0,-1,0,-1c0,0,0,-1,0,-1l4,-2ZM232.5,490.5l-1,-1l-1,1l-1,-1l1,-1l1,1l1,-1l1,0ZM218.5,500.5l-1,-1l1,-2l1,1ZM220.5,502.5l-4,2c0,0,1,-1,1,-1l4,-2ZM290.5,493.5c0,0,0,1,-1,2l0,1c0,0,-1,0,-1,1l1,0l0,1l-1,0l-1,1c0,0,-1,1,-1,1l-1,0l-1,0l0,1l-1,0l-1,0l0,1l-1,1l-2,0l0,-1l-1,-1c0,0,-1,0,-1,0c-1,0,-2,-1,-2,-1l-1,0l-1,-1l-1,-1l-1,0l0,-1l1,0l0,-1l-1,0l0,-1l-1,-1c0,0,0,-1,0,-1l0,-1l0,-1c0,0,1,-1,1,-1c0,-1,0,-1,0,-1l1,-1l-1,0l0,-1l1,0l0,-1l1,0l1,0l0,-1l1,0l2,-1l1,0l1,-1c0,-1,0,-1,0,-1l2,0l0,1l1,0l0,1l1,0l2,1l1,0c0,0,0,1,1,1l1,1c1,0,1,0,1,1l-1,0l1,1l0,1l0,1l1,0l0,1ZM281.5,503.5l0,-1l1,0l0,-1l1,0c0,-1,1,-1,1,-1c0,0,1,0,1,0c1,0,1,-1,2,-1l0,-1c0,0,1,0,1,0l1,-1l-1,0l0,-1l1,0l0,-1l0,-1l0,-1c0,-1,0,-2,0,-3l0,-1c0,0,-1,0,-1,0l0,-1l1,0c0,0,-1,-1,-1,-1l-1,0l0,-1l-1,0l-2,-1l-1,-1c0,0,-1,0,-1,0l-1,-1c0,-1,0,-1,0,-1l-2,0l0,1l-1,1c0,0,-1,0,-1,0l-2,1l-1,1l-1,0l0,1l-1,0l-1,1l1,0l0,1l-1,1l0,1l0,1l0,1l0,1l0,1l0,1l1,0l0,1l-1,0l1,1l1,0l0,1l1,0l1,1l1,0l1,1c0,0,1,0,1,0l0,1l1,0c0,0,0,1,0,1ZM286.5,488.5l-1,0l0,-1l-1,0c0,0,-1,0,-1,0c0,-1,0,-1,0,-1l1,0c1,0,1,0,1,0c0,0,0,1,0,1c0,0,1,0,1,0ZM286.5,497.5l0,1l-1,1l-1,0l-1,0c0,0,1,0,1,0l0,-1l1,0c0,0,1,-1,1,-1ZM282.5,500.5c-1,1,-1,1,-1,1l-2,0l-1,-1c0,-1,0,-1,0,-1c0,0,1,-1,1,-1l2,0l1,1ZM282.5,486.5c0,1,-1,1,-1,1l-2,0l-1,-1c0,-1,0,-1,0,-1l1,0l0,-1l2,0l1,1ZM281.5,488.5c1,0,1,0,1,0c1,0,1,0,2,0l0,1l1,0l1,0l1,0l0,1l0,1l0,1l0,1c0,1,0,1,0,1l0,1l0,1c0,0,-1,0,-1,0l-1,0l-1,1l-1,0l-1,0c-1,0,-1,0,-1,0l-2,0c-1,0,-1,0,-1,0c-1,0,-1,0,-2,0l-1,-1l-1,0l-1,0l0,-2l0,-1c0,-1,0,-1,0,-1c0,-1,0,-1,0,-1l0,-1l0,-1c1,0,1,0,1,0l1,0l1,0l0,-1c1,0,1,0,2,0l1,0ZM281.5,497.5c1,0,1,0,1,0l1,0l1,0l0,-1l1,0l1,0l0,-1l1,0l0,-1l0,-1c0,-1,0,-2,0,-2c0,-1,0,-1,-1,-1c0,-1,0,-1,0,-1l-1,1c0,0,0,-1,0,-1l-1,0l0,-1l-1,0l-1,0l-1,0l0,1l-2,0l0,-1l-1,0c-1,0,-1,0,-1,0l-1,0l0,1c-1,0,-1,1,-1,1l-1,-1l0,1l-1,0l0,1l0,1l0,1l0,1l0,1c0,0,1,1,1,1l1,0l1,0l0,1l1,0l1,0l1,0l0,-1l2,0ZM280.5,491.5l0,1l1,1l0,1l-1,0c0,1,0,1,0,1l0,-1c0,-1,0,-2,-1,-2ZM274.5,488.5l0,-1l1,0l0,-1l1,0l1,0l0,1c0,0,-1,0,-1,0l-1,0l0,1l-1,0ZM274.5,497.5c0,0,1,1,1,1l1,0l0,1l1,0l-1,0c-1,0,-1,0,-2,-1ZM319.5,492.5l-1,0l-1,0c-1,0,-1,0,-2,1l-1,0l-1,0l-1,0l0,1c-1,0,-1,0,-2,0l-1,1c0,0,-1,0,-2,0l-1,0l-2,0c-1,0,-1,0,-1,0c-1,0,-1,0,-1,-1l0,1l0,1l0,1l-1,0l-1,-1c0,0,0,-1,0,-1l0,-1c-1,0,-1,0,-2,0c0,1,0,1,0,1c0,0,-1,0,-1,0l0,1l0,1l0,1l1,2l0,2c0,1,0,1,0,1l0,1l0,1l0,-1l0,-1l-1,0l0,-1l0,-3l0,-1l0,-1l0,-1l0,-1c0,-1,0,-1,1,-2l1,-1l1,0l0,-1c1,1,2,1,3,2l1,0l1,0l1,0l1,0c0,0,1,0,1,0c0,0,1,0,1,0c1,0,1,0,2,0l1,-1l1,0l-1,-1l-1,0l-1,0l-1,0l-1,0c0,-1,0,-1,0,-1c0,-1,1,-1,1,-1c0,0,1,0,1,0c1,0,1,0,1,0l1,0l2,1l1,0c0,1,0,1,1,1l1,0c0,0,1,0,1,0l1,0ZM305.5,483.5c-1,1,-2,1,-2,1l-1,0l-1,0l0,-1c0,1,0,1,-1,1l1,-1c1,0,1,0,2,0l1,0l1,0ZM229.5,483.5c0,-1,0,-1,0,-2c0,0,-1,-1,-1,-1l0,-1l1,0l0,1l0,1c0,0,0,1,0,1c0,1,0,1,0,1ZM311.5,483.5l0,-1c0,0,0,-1,0,-1c0,-1,0,-1,-1,-2l1,0l0,-1c0,0,0,1,0,1c0,1,0,1,1,1l0,1c0,0,0,1,0,1c0,0,-1,0,-1,0c0,0,0,1,0,1ZM189.5,446.5c0,1,0,1,0,2c0,0,-1,0,-1,1c0,0,0,1,-1,1l1,0l1,0l-1,1l-1,1l-1,0l0,1c0,0,-1,0,-1,0l-1,0l0,1l-1,0l-1,0l-1,1l-1,1l-3,0c0,0,-1,0,-1,0l-1,-1c0,-1,0,-1,0,-1c-1,0,-2,0,-3,-1l-1,0l0,-1l-1,0l-1,-1l-1,0l0,-1l1,0l0,-1l-1,0l0,-1l0,-1l0,-1l0,-1l0,-1l1,-1l0,-1l-1,-1l1,0l0,-1l1,0l1,-1l1,0l1,-1l2,0c0,-1,0,-1,0,-1l1,-1c0,0,1,-1,1,-1l3,0l1,1l0,1l1,0l0,1l2,0l1,0l0,1c0,0,1,0,1,0l1,1c1,0,1,1,2,1l-2,1l1,0l0,1l1,1l0,1ZM180.5,456.5l0,-1l1,0l0,-1l1,0c1,0,1,0,1,-1l1,0c1,0,1,0,2,-1c1,-1,1,-1,1,-1l1,0l0,-1l-1,0l0,-1l1,0l0,-1l0,-1l1,0l0,-1c0,-1,-1,-2,-1,-2c0,-1,0,-1,0,-1c0,0,0,-1,-1,-1l1,-1c0,0,-1,-1,-1,-1l-1,0l0,-1l-1,0l-1,-1l-2,0c0,0,0,-1,-1,-1l0,-1l-1,0l-1,0l-2,0l-1,0l-1,1c0,0,0,1,0,1l-2,0l-1,1l-1,0l0,1l-1,0c0,0,-1,1,-1,1l1,1l-1,0l0,1l0,1l-1,0l0,1l0,1l0,1l0,1l1,0l0,1l1,1l-1,0l0,1l1,0l0,1l1,0l0,1l1,0l1,0l2,1l1,0l0,1c1,1,1,1,1,1ZM186.5,441.5l-1,0l-1,0l0,-1l-1,0l-1,0l0,-1l1,0l1,0c0,0,0,1,0,1c1,0,1,0,1,0l0,1ZM186.5,451.5l-1,0l0,1l-1,0l-1,1l-1,0l0,-1c1,0,1,0,1,0l1,-1c0,0,1,0,1,-1l0,1ZM181.5,453.5l0,1c0,0,-1,0,-1,0l-3,0c0,0,-1,0,-1,0c0,0,0,-1,0,-1c0,-1,0,-1,0,-1l1,0l0,-1l3,0l0,1l1,0l0,1ZM181.5,439.5l0,1c0,0,-1,0,-1,0l-3,0c-1,0,-1,0,-1,0l0,-1c0,0,0,-1,0,-1l1,0l3,0l1,0l0,1ZM180.5,442.5l0,-1l1,0l1,0l1,0c0,0,0,1,1,1l0,1l1,-1c0,0,1,0,1,1l0,1l1,1l0,1l0,1c0,0,-1,0,-1,0l0,1c0,0,0,1,0,1l-1,1l-1,-1l-1,1l-1,1l-1,0c-1,-1,-1,-1,-1,-1l-3,0l-1,0c0,1,0,1,0,1l-1,0c0,0,-1,0,-1,-1c0,0,-1,0,-1,0l0,-1l-2,1l0,-1l-1,-2l0,-1c0,-1,0,-1,0,-1c0,0,0,-1,0,-1l1,0l0,-1c0,-1,0,-1,0,-1l2,1c0,0,0,-1,0,-1l1,0l0,-1c0,0,1,0,1,0c1,0,1,0,1,0l1,0l0,1ZM180.5,450.5l1,0l1,0c1,0,1,0,1,0l1,-1l1,0l1,0l0,-1l0,-1l0,-1c0,-1,0,-1,0,-2c0,0,0,-1,0,-1c-1,0,-1,0,-1,-1l-1,1l-1,-1l0,-1l-1,0c-1,0,-1,0,-1,0l-1,0l0,1l-3,0l-1,-1l-1,0c-1,0,-1,0,-1,0l0,1l-1,0c0,1,0,1,0,1l-1,-1c0,0,-1,1,-1,1l0,1l-1,1l0,1l1,1l0,1c0,0,0,1,1,1l1,0l0,1l1,0l1,0c1,0,1,0,1,0c0,0,1,0,1,0l3,0ZM180.5,444.5l-1,1l-1,0l0,1l0,1c0,0,0,1,0,1l0,-1l0,-1l-1,0l0,-1l0,-1c1,0,1,1,2,1c0,0,0,-1,1,-1ZM171.5,441.5l1,-1l1,0l0,-1l1,0l1,0c0,1,0,1,0,1c-1,0,-1,0,-1,0l-1,0l0,1l-1,0l-1,0ZM171.5,451.5l1,0l0,-1c0,1,0,1,1,1l0,1l1,0l1,0c0,0,-1,0,-1,0l0,1l1,0l-1,0c-1,-1,-2,-1,-2,-2l-1,0ZM228.5,445.5c-1,0,-2,1,-3,1c-1,1,-2,1,-3,2c-1,0,-2,0,-3,0l-1,0l-1,0c0,-1,-1,-1,-1,-1c0,0,0,-1,0,-1l0,1c0,0,-1,0,-1,1c0,0,-1,0,-1,0c-1,0,-1,0,-2,-1c-1,1,-1,1,-1,1l-1,0c-1,0,-1,0,-1,-1c-1,0,-1,0,-1,1c-1,0,-1,0,-2,0l-2,0c0,1,0,1,0,1l0,1l0,1c-1,1,-1,2,-3,2c-1,1,-2,1,-3,1l-1,0c0,0,-1,0,-1,0c-1,0,-2,-1,-2,-1c0,-1,-1,-2,-1,-2l0,-1c0,0,0,-1,1,-1c0,-1,0,-2,1,-2c0,-1,0,-1,0,-1l0,2c-1,0,-1,1,-1,1c0,1,0,1,1,2c0,0,0,1,1,1c0,0,1,0,2,0c1,0,1,0,1,0c0,0,1,0,1,0c1,0,1,0,2,-1l1,-1c0,0,1,0,1,0c0,-1,0,-1,0,-1c0,0,0,-1,0,-1l-2,0c0,0,-1,0,-1,0c0,0,-1,0,-1,0c0,-1,0,-1,0,-1c0,-1,0,-1,0,-2c1,0,1,-1,1,-1c0,0,1,-1,1,-1c1,0,1,1,1,1c0,0,1,1,1,1c0,1,0,1,0,1l0,1l2,0l1,0l0,-1c1,0,2,0,2,-1l0,1c0,0,1,0,1,1c1,0,1,0,2,-1l1,-1l0,1c1,0,1,0,1,0c1,0,1,0,1,0l1,-1c1,1,1,2,2,2l1,0c1,0,1,0,1,0c0,-1,1,-1,1,-1c0,0,0,-1,-1,-1c0,0,0,-1,0,-1c0,-1,0,-1,0,-1l1,-1l0,-1c0,0,1,0,1,0c0,-1,0,-1,1,-1l1,0c0,0,1,0,1,0c1,1,1,1,1,1c0,0,1,0,1,1l-1,0l-1,-1l-1,0l-1,0c0,1,0,1,0,1c-1,0,-1,0,-1,0l-1,0c0,0,0,1,0,1l1,0c0,1,0,1,0,1c1,1,1,1,2,1c0,0,1,0,1,0c0,0,1,0,1,0l1,-1l1,-1ZM223.5,436.5c-1,0,-1,1,-2,1l-1,0l0,-1l-1,0c0,1,0,1,0,1l0,-1l1,-1c0,1,1,1,1,1l1,0l1,0l1,-1ZM214.5,439.5c-1,1,-2,1,-2,1l-1,0l-1,0l0,-1c0,1,0,1,-1,1l1,-1c1,0,1,0,2,0l1,0l1,0ZM203.5,442.5l-2,-1l-1,1l-1,-1l1,-1l1,1l1,-1l1,1ZM201.5,446.5c1,0,1,0,1,1l1,0c0,-1,0,-1,0,-1c0,0,-1,0,-1,0c0,0,0,-1,0,-1c0,0,-1,0,-1,0c0,1,0,1,0,1ZM204.5,433.5c-1,1,-2,1,-2,1l-1,0l-1,0l0,-1c0,1,-1,1,-1,1l0,-1l1,-1c1,1,1,1,2,1l1,0l1,0l0,-1ZM255.5,446.5c0,1,0,1,0,2c0,0,-1,0,-1,1c0,0,-1,1,-1,1l1,0l1,0l-1,1l-1,1l-1,0l0,1c0,0,-1,0,-1,0l-1,0l0,1l-1,0l-1,0l-1,1l-1,1l-2,0l-1,-1c0,-1,-1,-1,-1,-1c-1,0,-2,0,-2,-1l-1,0l-1,0l0,-1l-1,0l0,-1l-1,0l0,-1l1,0l-1,-1l0,-1l0,-1c0,0,-1,0,-1,0l0,-1l0,-1l1,0l0,-1l0,-1l0,-1l1,0l-1,-1l1,-1l1,0l0,-1l1,0l2,-1l1,0c0,-1,0,-1,0,-1l1,0l1,-1c0,0,0,-1,0,-1l2,0l1,1l0,1l1,0l0,1l2,0l1,0l0,1c0,0,1,0,1,0l1,1c1,0,1,1,2,1l-1,0l-1,1l1,0l0,1l1,1l0,1ZM246.5,456.5l0,-1l1,0l0,-1l1,0c1,0,1,0,1,-1l1,0c1,0,1,0,2,-1c1,-1,1,-1,1,-1l1,0l0,-1l-1,0l0,-1l1,0l0,-1l0,-1l1,0l0,-1c0,-1,-1,-2,-1,-2c0,-1,0,-1,0,-1c0,0,0,-1,-1,-1l1,-1c0,0,-1,-1,-1,-1l-1,0l0,-1l-1,0l-1,-1l-2,0c0,0,0,-1,-1,-1l0,-1l-1,0l-2,0l-1,1c0,0,0,1,-1,1l-2,0l0,1l-1,0l-1,0l0,1l-1,0c0,0,0,1,-1,1l1,1l-1,1l0,1l0,1l0,1l0,1l0,1l0,1l1,0l0,1l-1,0l0,1l1,0l1,0l0,1l1,0l0,1l1,0l1,0l1,1c0,0,1,0,1,0l0,1l1,0c0,1,0,1,0,1ZM252.5,441.5l-1,0l-1,0l0,-1l-1,0l-1,0l0,-1l1,0l1,0c0,0,0,1,0,1c1,0,1,0,1,0l0,1ZM252.5,451.5l-1,0l0,1l-1,0l-1,1l-1,0l0,-1c1,0,1,0,1,0l1,-1c0,0,1,0,1,-1l0,1ZM247.5,453.5l0,1c0,0,-1,0,-1,0l-2,0c-1,0,-1,-1,-1,-1c0,-1,0,-1,0,-1c1,0,1,0,1,0l0,-1l2,0c0,0,0,1,0,1l1,0l0,1ZM247.5,439.5l0,1c0,0,-1,0,-1,0l-2,0l-1,0l0,-1c0,0,0,-1,1,-1l2,0c0,0,1,0,1,0l0,1ZM246.5,442.5l0,-1l1,0l1,0l1,0c0,0,0,1,1,1l0,1l1,-1l1,1l0,1l1,1l0,1l0,1c0,0,-1,0,-1,0l0,1c0,0,0,1,0,1l-1,1l-1,-1l-1,1l-1,1l-1,0c-1,-1,-1,-1,-1,-1l-2,0c0,1,-1,1,-1,1c-1,0,-1,0,-1,-1c-1,0,-1,0,-1,0l-1,-1l-1,1l0,-1l-1,-2l0,-1c0,-1,0,-1,0,-1c0,0,0,-1,0,-1l0,-1l1,0c0,-1,0,-1,0,-1l1,1c0,0,0,-1,1,-1l0,-1l1,0l1,0l1,0l0,1ZM246.5,450.5l1,0l1,0c1,0,1,0,1,0l1,-1l1,0l1,0l0,-1l0,-1l0,-1c0,-1,0,-1,0,-2c0,0,0,-1,0,-1c-1,0,-1,0,-1,-1l-1,1l-1,-1l0,-1l-1,0c-1,0,-1,0,-1,0l-1,0l0,1l-2,0l0,-1l-1,0c-1,0,-1,0,-1,0l-1,1c-1,1,-1,1,-1,1l-1,-1c0,0,0,1,0,1l-1,1l0,1l0,1l0,1l0,1c1,0,1,1,1,1l1,0l1,0l0,1l1,0l1,0c0,0,1,0,1,0l2,0ZM245.5,444.5l0,1c1,0,1,1,1,1l0,1l0,1c0,0,-1,0,-1,0l0,-1c0,0,0,-1,0,-2ZM239.5,441.5l0,-1l1,0l1,-1l1,0c0,1,0,1,0,1c0,0,-1,0,-1,0l-1,1l-1,0ZM239.5,451.5l0,-1c1,1,1,1,1,1l1,1l1,0l0,1l-1,0c-1,-1,-1,-1,-2,-2ZM285.5,446.5l-2,0c0,0,-1,0,-1,0l-1,0c0,0,-1,0,-1,0l-1,1l-1,0c0,0,-1,0,-1,0c0,1,-1,1,-1,1c-1,0,-2,0,-2,0l-1,0c-1,0,-1,0,-2,0l0,-1c-1,1,-1,1,-1,2l-1,0l-1,0c-1,-1,-1,-1,-1,-1l-1,0l0,1c0,0,-1,1,-1,1c-1,0,-1,1,-2,1c-1,0,-3,0,-4,0l4,-2l2,0c0,-1,1,-1,1,-2l1,-1c0,-1,0,-1,1,-2l1,0c0,0,1,0,1,1c1,1,1,1,1,1c1,0,1,0,1,1c0,0,1,0,1,0l1,0l1,0c0,0,1,-1,1,-1c1,0,1,0,1,0l2,-1l1,0l-1,0l-1,-1l-1,0l-1,0l-1,0l-1,0c0,0,1,-1,1,-1c0,0,0,-1,1,-1l1,0c1,0,1,0,1,0l0,1l2,0l1,1c1,0,1,0,1,0c1,0,1,0,1,0c1,0,1,0,2,0l1,0ZM269.5,447.5l0,-1l-1,0l0,1l1,0ZM271.5,436.5c-1,0,-2,0,-2,0l-1,0l-1,0c0,0,-1,1,-1,1c0,-1,0,-1,0,-1l1,-1c1,0,1,1,2,1l1,-1l1,0ZM276.5,437.5l1,0c0,-1,-1,-2,-1,-2c0,-1,0,-1,0,-2l0,-1c1,0,1,1,1,1c0,1,0,1,0,1l0,1c0,1,0,1,0,1c0,0,0,1,-1,1ZM122.5,399.5c0,1,0,2,0,3l-1,1l1,1l-1,0l0,1l-1,0l0,1l-1,0l-1,1l-1,0l-1,0l0,1c0,0,-1,0,-1,0l-1,1l0,1c-1,0,-1,0,-1,0l-3,0c0,0,0,-1,0,-1l-1,-1c0,0,-1,0,-1,0c-1,-1,-2,-1,-2,-1l-1,0l0,-1l-1,0l0,-1l-1,0l-1,-1l1,-1l-1,0l0,-1l-1,-1c0,-1,0,-1,0,-1l0,-1l0,-1c0,0,1,-1,1,-1c0,-1,0,-1,0,-1l1,-1l-1,0c0,0,0,-1,0,-1l1,0l0,-1l1,0l1,-1l1,0l2,-1l1,0l1,-1c0,-1,0,-1,0,-1l3,0l1,1l1,1l1,0l1,1l1,0c1,0,1,0,1,0l0,1l1,0l0,1c1,0,2,0,2,1l-1,0l0,1l1,1l0,1ZM113.5,410.5l0,-1l1,0l0,-1l1,0l1,-1l1,0l1,0c0,-1,1,-1,1,-1l1,0l0,-1l1,0l0,-1l1,0l-2,0l0,-1l1,0l0,-1l1,0l0,-1l0,-1l0,-1c0,-1,0,-1,0,-2l-1,0l0,-1l-1,-1l2,0c-1,-1,-1,-1,-2,-1l0,-1l-1,0l-1,-1l-1,0l-2,-1l-1,-1l0,-1c-1,0,-1,0,-1,0l-1,0l-2,0l0,1l-1,1c0,0,-1,0,-1,0l-2,1l-1,0l0,1l-1,0l-1,1l-1,1l1,0l0,1l-1,1l0,1l0,1l0,1l0,1l0,1l1,1c0,1,0,1,0,1l-1,0l1,0l0,1l1,0l0,1l1,0l1,1l1,0l1,0c0,0,1,1,1,1l1,1c0,0,0,1,0,1ZM119.5,395.5l-1,0l0,-1l-1,0l-1,0c0,-1,0,-1,0,-1l-1,0c1,0,1,0,1,0l1,0c1,0,1,0,1,0c0,1,0,1,0,1l1,0ZM119.5,404.5l0,1l-1,0l0,1l-1,0l-1,0l0,-1l1,0c1,0,1,-1,1,-1l1,0ZM115.5,406.5c0,1,-1,1,-1,1c0,0,0,1,-1,1l-3,0c0,0,0,-1,-1,-1l0,-1c0,-1,1,-1,1,-1l3,0c0,0,1,0,1,0l0,1l1,0ZM115.5,392.5c0,1,-1,1,-1,1c0,0,0,1,-1,1l-3,0l-1,-1l0,-1l1,-1l3,0c1,0,1,0,1,1l1,0ZM113.5,395.5c0,0,1,0,1,0c0,0,1,-1,1,-1c0,0,1,1,1,1c0,0,1,0,1,1l2,0l0,1l1,0l0,1l0,1l0,1c0,1,0,1,0,1l-1,1c0,1,0,1,0,1l-1,0c0,0,-1,0,-1,0l0,1l-1,0l-1,0l-1,0l-1,0l-3,0c-1,0,-1,0,-1,0c-1,0,-1,0,-2,0l-1,-1l-1,0l-1,-1l0,-1l0,-1l0,-1l0,-1l0,-1l0,-1c1,0,1,0,1,0l1,0l1,0l0,-1c1,0,1,-1,2,-1c0,0,0,1,1,1ZM113.5,403.5l1,1l1,0c1,0,1,0,1,0l1,-1c0,0,0,-1,1,-1l1,1l0,-1l0,-1l1,-1l0,-1c0,0,0,-1,0,-1c-1,-1,-1,-1,-1,-1c0,-1,0,-1,0,-1l-1,0c-1,0,-1,0,-1,0l-1,-1l-1,0c0,0,-1,0,-1,0l-1,0l-3,0l-1,0c-1,0,-1,0,-1,0l-1,0l0,1c-1,0,-1,0,-1,0l-1,0l0,1l-1,0l0,1l0,1l0,1l0,1c0,1,1,1,1,2l1,-1c0,0,0,1,0,1l1,0l0,1l1,0l1,0l1,0l0,-1l3,0ZM113.5,398.5l0,1c0,0,-1,0,-1,0l0,1c0,1,0,1,0,1c0,1,0,1,-1,1l0,-1c0,0,0,-1,0,-1c0,0,0,-1,0,-1l-1,-1l1,0l1,0c0,0,1,0,1,0ZM105.5,395.5l0,-1l1,-1l1,0l1,0c0,0,-1,0,-1,0l0,1l-1,0l-1,1ZM105.5,404.5c0,0,1,1,1,1l1,0l1,0c0,1,0,1,0,1l-1,0c-1,0,-1,-1,-2,-1l0,-1ZM175.5,402.5l0,-1l0,-1l-1,-9l1,-2l1,11c0,0,0,1,-1,1c0,0,0,1,0,1ZM167.5,400.5c1,0,1,0,1,0c0,0,1,0,1,0l1,0c0,0,0,-1,0,-1l0,-2l-1,-6c0,-1,0,-1,0,-1c0,0,0,-1,0,-1c0,0,1,-1,1,-1c0,1,0,1,0,1c0,0,1,1,1,1l0,1l0,1l-1,-1l0,1c0,0,0,1,0,1c0,1,0,1,1,3c0,0,0,1,0,1l0,1c0,1,0,1,0,1c0,0,0,1,0,1c0,0,-1,0,-1,0c0,1,0,1,0,1c-1,0,-1,0,-1,1l-1,0l-1,0l-1,0c0,0,0,1,0,1c0,1,0,1,0,2c-1,0,-1,1,-1,1l-1,1l-1,0l-1,0c0,1,0,1,-1,1c0,0,-1,-1,-2,-1l-1,0c0,0,1,-1,1,-1c0,0,0,1,0,1l1,0c0,0,1,0,1,-1c1,0,1,0,2,0c0,0,0,-1,0,-1c1,0,1,0,1,-1c0,0,1,0,1,0c0,-1,0,-1,0,-2c1,0,1,0,1,-1l-1,0l0,-1c0,-1,0,-1,0,-1c0,0,1,0,1,1l1,0ZM162.5,390.5l0,1l1,0c0,1,0,1,0,1l0,-1l1,0l0,-1l0,1c0,0,1,0,1,0l0,-1l0,-1l1,0l0,1l0,1c-1,1,-1,1,-1,1l-1,0c-1,1,-1,1,-1,1c0,0,-1,0,-1,0c0,-1,0,-1,0,-1l0,-1ZM167.5,388.5l-6,2c0,0,1,-1,1,-1l5,-3ZM158.5,399.5l-2,0c0,0,-1,0,-1,0l-1,1c-1,0,-1,0,-1,0l-1,0l-1,1c0,0,-1,0,-1,0c0,0,-1,0,-1,0c-1,1,-2,1,-2,1l-1,0c-1,0,-1,0,-1,0c-1,0,-1,0,-1,-1l0,-1c-1,1,-1,1,-2,2l-1,0l-1,0c0,0,-1,0,-1,0c-1,-1,-1,-1,-1,-1c0,1,0,1,-1,1l0,1c0,0,-1,-1,-2,-1c0,0,-1,0,-1,-1l0,1l-1,1l-1,1c0,0,-1,0,-2,0c-1,1,-2,1,-4,1l5,-2l1,-1c1,0,1,0,1,-1l1,-2c0,0,1,-1,1,-1l1,0c1,0,1,0,1,1c1,0,1,1,2,1c1,0,1,0,1,0l1,0l1,0l1,0c0,0,0,-1,0,-1l1,-1c0,1,0,1,0,1c0,1,0,1,1,1l1,0l1,0c1,0,1,0,2,0c0,0,1,0,1,-1l2,0l1,0l-2,-1l-1,0l-1,-1c0,0,-1,0,-1,0l0,1l-1,0c0,-1,1,-1,1,-2l1,0l1,0c0,0,1,0,1,0l2,1l1,0c1,0,1,1,1,1c1,0,1,0,1,0c1,0,1,0,2,0l1,0ZM151.5,405.5l-4,2c0,0,0,-1,0,-1l4,-2ZM145.5,405.5l-2,-1l-1,1l-1,0l1,-2l1,1l1,-1l2,1ZM137.5,401.5l0,-1l-1,0c0,-1,0,-1,0,-1l-1,0c0,0,0,1,0,1l1,0ZM136.5,408.5l-4,2c0,-1,0,-1,0,-1l4,-3ZM225.5,402.5l0,-1l0,-1l0,-9l1,-2l0,11c0,0,0,1,0,1c0,0,0,1,-1,1ZM218.5,400.5l1,0c1,0,1,0,1,0c0,0,0,-1,0,-1l0,-2l0,-6c0,-1,0,-1,0,-1c0,0,-1,0,-1,0c0,0,1,-1,1,-1c0,0,0,-1,0,-1c0,1,0,1,0,1l1,0c0,0,0,1,1,1c0,0,-1,0,-1,1l0,1l0,-1l0,1c0,0,0,1,0,1c0,1,0,1,0,3c0,0,0,1,0,1l0,1c0,1,0,1,0,1c0,0,0,1,0,1c0,1,0,1,-1,1l0,1c-1,0,-1,0,-1,0l-1,0l-1,0c0,0,0,1,0,1c0,1,-1,1,-1,2c0,0,0,1,-1,1l0,1c-1,0,-1,0,-1,0c-1,0,-1,0,-1,0c-1,1,-1,1,-1,1l-1,0c0,0,-1,-1,-1,-1c0,0,-1,0,-1,0c0,0,0,-1,0,-1c0,0,1,1,1,1c1,0,1,0,2,-1c0,0,1,0,1,0c0,0,1,-1,1,-1l1,-1c0,-1,1,-1,1,-2l0,-1c-1,0,-1,0,-1,-1c0,-1,1,-1,1,-1l0,1l1,0l1,0ZM213.5,390.5l0,1c0,1,0,1,0,1c1,0,1,0,1,-1l0,-1l1,0l0,1c0,0,1,0,1,-1l0,-1l0,1l0,1c0,1,0,1,0,1l-1,0l-1,0c0,1,0,1,-1,1c0,-1,0,-1,0,-1l0,-1ZM217.5,388.5l-6,2c1,0,1,-1,1,-1l6,-3ZM200.5,397.5c0,0,0,-1,0,-1c0,0,1,0,1,0l1,0l1,0c0,0,1,0,1,0c0,0,1,0,1,0l-1,-1l-1,0l-1,-1c0,0,-1,0,-2,0c0,0,0,-1,1,-1c0,0,1,0,1,0c1,0,2,0,2,0l2,2c0,0,1,0,1,0l1,1l1,0l1,0l1,1l-1,1l-1,0l-1,0l-2,-1l-2,0c0,0,-1,0,-1,0l-1,0l-1,0c0,0,0,1,1,1l0,1l0,1l0,1c-1,0,-1,0,-1,0c0,0,0,1,0,1l-1,0l0,-1c-1,0,-1,0,-1,0l-1,-1l0,1c-1,0,-1,0,-1,1l-1,0l-1,0l-2,0c0,1,0,1,0,1c0,1,0,1,0,1c0,0,0,1,0,2c0,0,-1,1,-1,1c-1,1,-2,1,-2,1c-1,1,-2,1,-3,1c0,0,-1,0,-1,0c-1,-1,-2,-1,-2,-1c0,0,-1,-1,-1,-1c0,-1,0,-1,0,-2c0,0,0,-1,0,-1l0,-1l0,-1c0,0,1,0,1,0c0,-1,0,-1,0,-1l1,0c-1,1,-1,1,-1,1c0,1,0,1,0,1c0,1,0,1,0,1c0,1,0,1,0,1c0,1,0,1,1,1c0,0,0,1,0,1c1,0,2,0,3,0c1,0,1,0,2,0c1,-1,2,-1,2,-1c0,-1,0,-1,0,-1l0,-1l0,-1c0,0,0,-1,0,-1l0,-1l-1,0l1,-2c0,0,0,1,1,1l1,0l1,0l1,0c1,0,1,0,1,0l1,0l0,-1c0,-1,1,-1,1,-2c0,0,1,0,1,0ZM200.5,388.5c0,-1,1,-1,1,-1c0,0,1,0,1,0c1,0,1,0,2,0c0,0,0,1,0,1c0,0,0,1,0,1c-1,0,-1,0,-1,1c0,0,-1,0,-1,0l-1,0l-1,0l2,-1c1,0,1,0,2,-1c-1,0,-1,0,-1,0c-1,0,-1,0,-1,0c-1,0,-1,0,-1,0c-1,0,-1,0,-1,1l0,-1ZM199.5,399.5l1,0l1,1c0,-1,0,-1,0,-1c-1,0,-1,0,-1,0c0,-1,0,-1,0,-1c-1,0,-1,0,-1,1ZM188.5,400.5l-1,-1l1,-2l1,1ZM191.5,412.5l-4,2c0,0,0,-1,0,-1l4,-2ZM251.5,401.5c0,0,0,1,0,1l-1,-1c0,0,-1,0,-1,0l-1,-1l0,1l-1,1l-1,0l-2,0c0,1,0,1,0,1c0,1,0,1,0,1c0,0,0,1,0,2c-1,0,-1,1,-2,1c0,1,-1,1,-2,1c0,1,-1,1,-2,1c0,0,-1,0,-2,0c0,-1,-1,-1,-1,-1c0,0,-1,-1,-1,-1c0,-1,-1,-1,-1,-2c0,0,1,-1,1,-1l0,-1l0,-1c0,0,1,0,1,0c0,-1,0,-1,0,-1c0,1,0,1,0,1c0,1,0,1,0,1c0,0,-1,0,-1,0c0,1,0,1,0,1c0,1,1,1,1,1c0,1,0,1,0,1c1,0,1,0,1,0c0,0,0,1,0,1c1,0,2,0,3,0c0,0,1,0,2,0c1,-1,1,-1,2,-1c0,-1,0,-1,0,-1l0,-1l0,-1c0,0,0,-1,0,-1l0,-1l-1,0l1,-2c0,0,0,1,0,1c1,0,1,0,1,0l2,0c1,0,1,0,1,0l1,0l1,-1c0,-1,0,-1,0,-2l1,0l1,0c1,0,1,1,1,1l0,1l0,1l0,1l-1,0ZM249.5,399.5l1,0l1,1c0,-1,0,-1,0,-1c0,-1,-1,-1,-1,-1l-1,1ZM247.5,387.5l0,1c1,1,1,1,1,1l0,-1l1,0l0,-1l0,1l1,0l0,-1l0,-1l1,0l0,1l0,1l-1,0c0,1,0,1,0,1l-1,0c-1,1,-1,1,-1,1c-1,0,-1,0,-1,-1l0,-1ZM250.5,405.5l-4,2c1,0,1,-1,1,-1l4,-2ZM239.5,400.5l-1,-1l0,-2l2,1ZM238.5,392.5l4,-2l0,1c-1,0,-1,0,-1,0l-4,2ZM293.5,394.5l-1,-1l-1,1l-2,-1l1,-1l2,0l1,-1l1,1ZM291.5,402.5l-1,0l-1,0l-1,0c-1,-1,-1,-1,-1,-1c0,0,0,-1,0,-1l0,-1c-1,0,-1,0,-1,0c0,0,0,1,0,1c0,0,-1,0,-1,0c-1,0,-1,0,-1,0l-1,0l0,1c0,1,0,1,0,1c0,0,0,1,0,1c0,1,-1,1,-1,2c0,0,-1,0,-1,1l-1,0c0,0,-1,0,-1,1l-1,0c0,0,-1,0,-1,0c0,-1,0,-1,0,-1c-1,0,-1,0,-1,0l-1,0c0,0,1,-1,1,-1c0,1,0,1,0,1l1,0l1,0l0,-1c1,0,1,0,1,0c1,0,1,0,1,0c0,0,0,-1,1,-1c0,0,0,-1,1,-1c0,-1,0,-1,0,-2c0,0,1,0,1,0c0,0,-1,0,-1,0l0,-3c1,0,1,0,1,0c1,0,1,0,1,0l1,0c0,0,1,0,1,0l0,-1l1,0l0,1c0,0,0,1,0,1l1,0c0,1,0,1,0,1c0,0,1,0,1,0l1,0l1,0c0,0,1,0,1,0c1,0,1,0,2,0c0,-1,0,-1,0,-1l-1,-1l0,-1l1,-1l0,1l0,1l0,1c0,0,0,1,0,1c0,0,0,1,0,1c-1,0,-1,1,-2,1c0,0,-1,0,-1,0ZM291.5,386.5l4,-2c0,1,0,1,0,1l-4,2ZM286.5,396.5l-1,-1l0,-2l2,1ZM281.5,396.5l-1,-1l1,-1l1,1ZM283.5,410.5l-4,2c1,-1,1,-1,1,-1l4,-2ZM277.5,405.5l-2,-1l0,1l-2,0l1,-2l1,1l1,-1l2,1ZM274.5,402.5l-1,0l-1,0c0,0,-1,0,-1,0c0,-1,0,-1,-1,-2l0,1l0,1c0,1,0,2,0,2c0,1,-1,1,-1,2c0,0,-1,0,-1,0c0,0,-1,0,-1,1c0,0,-1,0,-1,0c-1,0,-1,0,-2,0l-1,0c-1,0,-1,-1,-2,-1c0,0,0,-1,0,-1c-1,0,-1,-1,-1,-1c0,-1,0,-2,1,-2c0,0,0,-1,0,-1l1,-1l0,-1l0,1l0,1c0,0,-1,0,-1,0c0,1,0,1,0,1c0,1,0,2,1,2c0,1,1,1,2,1l1,0c1,0,2,0,2,0c1,-1,2,-1,2,-2c0,0,1,0,1,0c0,0,0,-1,0,-1l0,-3l-1,-1c0,0,0,-1,0,-1l0,-7l1,-2l1,10c0,1,0,1,0,1l0,1l1,0l1,0l1,0c0,0,1,0,1,0c1,0,1,0,1,0c0,0,1,0,1,0c0,-1,0,-1,0,-1c0,0,-1,0,-1,-1l0,-1l0,-1c1,0,1,0,1,0l0,1c0,0,0,1,0,1c0,0,0,1,0,1c0,0,0,1,0,1c0,0,0,1,0,1c-1,0,-1,1,-2,1c0,0,-1,0,-1,0ZM321.5,399.5c0,1,0,2,0,3l-1,1l1,1l-1,1c0,0,-1,0,-1,0l0,1c-1,0,-1,0,-2,1l-1,0l-1,1l-1,0l-1,1l0,1l-1,0l-1,0c0,0,0,-1,-1,-1l0,-1c-1,0,-1,0,-1,0c-1,-1,-2,-1,-3,-1l0,-1l-1,0l-1,-1l-1,0l0,-1l-1,0l2,-1l-1,0l0,-1l-1,0l0,-1c0,-1,0,-1,0,-1l0,-1l0,-1c0,0,0,-1,1,-1c0,-1,0,-1,0,-1l0,-1l-1,0c0,0,1,-1,1,-1l1,0l0,-1l1,0l0,-1l1,0l1,0l2,-1l1,-1c1,-1,1,-1,1,-1l1,0l1,0l0,1l1,0l0,1l1,0l2,1l1,0l1,1l1,1c0,0,1,0,1,1l-1,0l0,1l1,0l0,1l0,1ZM312.5,410.5l1,-1l0,-1l1,0l1,-1c0,0,1,0,1,0l1,0c1,-1,1,-1,1,-1l1,0l0,-1l1,0l0,-1l1,0l-1,0l0,-1l0,-1l1,0l0,-1l0,-1l0,-1c0,-1,0,-1,0,-2l-1,-1l0,-1l1,0c-1,-1,-1,-1,-2,-1l0,-1l-1,0l-1,-1l-1,0l-1,-1c-1,0,-1,0,-1,0l-1,-1l0,-1l-1,0l-1,0l-1,1l0,1c-1,0,-1,0,-1,0l-2,1l-1,0l0,1l-1,0l-1,0l0,1c0,0,-1,0,-1,1l1,0l-1,1l0,1l0,1l-1,0l0,1l0,1l0,1l1,0l0,1l0,1l1,0c0,1,0,1,0,1l-1,0l1,1l1,0l0,1l1,0l0,1l1,0l1,0l1,0c0,0,0,1,1,1l0,1l1,0c0,0,0,1,0,1ZM318.5,395.5l-1,0l0,-1l-1,0c-1,-1,-1,-1,-1,-1l1,0c0,0,1,0,1,0c0,1,0,1,0,1l1,0ZM318.5,404.5l0,1l-1,0l0,1l-1,0l-1,0l0,-1c0,0,1,0,1,0c1,0,1,-1,1,-1l1,0ZM314.5,406.5c0,1,0,1,-1,1c0,0,0,1,0,1l-1,0l-1,0c0,0,-1,-1,-1,-1l0,-1c0,-1,0,-1,1,-1l1,0l1,0l1,1ZM314.5,392.5c0,1,0,1,-1,1l0,1l-1,0l-1,0c0,0,-1,0,-1,-1l0,-1l0,-1l1,0l1,0l1,0l0,1c0,0,1,0,1,0ZM312.5,395.5l1,0c0,0,1,-1,1,-1c1,0,1,1,1,1c0,0,1,0,1,1l1,0l1,0l1,1l0,1l0,1l0,1c0,1,0,1,0,1l0,1c0,0,-1,0,-1,0c0,1,0,1,0,1l-1,0l-1,1l-1,0l-1,0c0,0,-1,0,-1,0l-1,0l-1,0l-1,0l-1,0c0,0,-1,0,-1,0c0,0,-1,0,-1,-1l-1,0l-1,0l0,-1l0,-1l-1,0l0,-1l0,-1l0,-1l1,0l0,-1l0,-1c0,0,1,0,1,0l1,0l1,-1c1,0,1,-1,1,-1c1,0,1,1,1,1l1,0ZM313.5,403.5l0,1c0,0,1,0,1,0l1,0l1,0l0,-1c1,0,1,-1,1,-1l1,1l0,-1l1,-1l0,-1l0,-1c0,0,0,-1,0,-1c0,-1,-1,-1,-1,-1c0,-1,0,-1,0,-1l-1,0l-1,0l0,-1l-1,0l-1,0l-1,0l-2,0l-1,0l-1,0c-1,0,-1,0,-1,0l0,1l-1,0l-1,0l-1,1l0,1l0,1l0,1l0,1c0,1,0,1,1,2l1,-1c0,0,0,1,0,1l1,0l0,1l1,0c1,0,1,0,1,0c0,0,1,0,1,-1l1,0l1,0ZM312.5,398.5l0,1l0,1l0,1c0,1,0,1,0,1l0,-1c0,-1,0,-2,-1,-3ZM305.5,395.5l1,-1l0,-1l1,0l1,0l1,0c-1,0,-1,0,-1,0l0,1c0,0,-1,0,-1,0l-1,1l-1,0ZM305.5,404.5l1,0c0,0,1,1,1,1l1,0l1,0c0,1,0,1,0,1l-1,0c-1,0,-2,-1,-2,-1l-1,-1ZM352.5,399.5l-2,0c-1,0,-1,0,-2,0l-1,1l-1,0l-1,1c-1,0,-1,0,-1,0c-1,0,-1,0,-1,0c-1,1,-2,1,-3,1l-1,0c0,0,-1,0,-1,0c0,-1,-1,-1,-1,-1c0,1,0,1,-1,1l0,1c0,0,-1,-1,-1,-1c-1,0,-2,0,-2,-1l0,1l0,1c-1,0,-1,0,-2,1c0,0,-1,0,-2,0c-1,1,-2,1,-3,1l4,-2l1,-1c1,0,1,0,2,-1l0,-2c1,0,1,-1,1,-1c0,0,1,0,1,0l1,0l1,1c0,0,1,1,1,1l1,0l1,0c1,0,1,0,1,0c1,0,1,0,2,0c0,0,1,0,1,-1l2,0l-1,-1l-1,0l-1,-1l-1,0l0,1l-1,0c0,-1,0,-1,1,-2c1,0,1,0,1,0c0,0,1,0,1,0l1,0l2,1l1,0c0,0,1,1,1,1c0,0,1,0,1,0c0,0,1,0,1,0l1,0ZM336.5,401.5l0,-1c-1,-1,-1,-1,-1,-1c-1,0,-1,1,-1,1l1,0ZM337.5,389.5c0,1,-1,1,-2,1l-1,0l0,-1c-1,1,-1,1,-1,1l0,-1l1,0c0,0,1,0,2,0l1,0l1,0ZM264.5,383.5l-1,1c0,0,0,1,0,1l0,1c0,0,0,1,0,1l0,-1l0,-1l-1,0l1,-1c0,-1,0,-1,0,-1c0,0,1,-1,2,-1l1,0l0,-1ZM264.5,385.5c0,-1,1,-1,1,-1c0,0,0,-1,1,-1c0,0,0,1,0,1c0,0,1,0,1,1c0,0,-1,0,-1,0l0,1l0,1l1,0l0,1l-2,-1l0,1c-1,0,-1,1,-1,1l-1,0l-1,0l1,0l0,-1c1,0,1,0,1,0l0,-1l1,0l-1,-1l0,-1ZM265.5,385.5l0,1l1,0l0,-1ZM282.5,387.5c0,0,1,0,1,0c1,0,1,0,2,0c0,0,1,0,1,0c0,0,1,0,1,0c0,0,-1,0,-1,1l0,1c0,0,-1,0,-1,0l-1,0l-1,0l-1,0l2,0c1,0,1,-1,2,-1c-1,0,-1,0,-1,0c0,0,-1,0,-1,0c0,0,-1,0,-1,0c0,0,-1,0,-1,0l0,-1ZM273.5,386.5l1,0l1,0c0,0,1,0,1,0c1,0,1,0,1,1c0,0,-1,1,-1,1c-1,0,-1,1,-1,1c-1,0,-1,0,-1,0l-1,0l1,-1c1,0,2,0,2,-1c0,0,-1,0,-1,0l-1,0l-1,0l-1,0c0,0,1,0,1,-1ZM140.5,390.5l1,0c0,0,1,0,1,0c1,0,1,0,2,0l0,1c0,0,0,1,-1,1l-1,0c0,1,0,1,0,1c0,0,-1,0,-1,0c-1,0,-1,0,-1,0l2,-1c0,0,1,0,1,-1c-1,0,-1,0,-1,0c-1,0,-1,0,-2,0c0,0,0,-1,0,-1ZM345.5,391.5l0,-1c0,0,0,-1,0,-1c-1,-1,-1,-2,-1,-2l0,-1l1,0c0,0,0,1,0,1c0,0,0,1,0,1l0,1l0,1l0,1ZM195.5,393.5l0,-1c0,0,0,-1,0,-1c0,-1,0,-1,0,-2l0,-1c1,0,1,1,1,1c0,1,0,1,0,1l0,1c0,0,0,1,0,1c0,0,0,1,-1,1ZM92.5,353.5c0,1,0,2,0,2l-1,1c0,1,0,1,0,1l1,0l0,1l-1,0l-1,1l-1,0l0,1l-1,0l-1,1l-1,0c-1,0,-1,0,-1,0l0,1l-1,1l-1,0l-3,0l-1,-1c0,0,-1,-1,-1,-1c-1,0,-2,0,-3,-1l-1,0l0,-1l-1,0l0,-1l-1,0l0,-1l1,0l-1,0l0,-1l0,-1l-1,0l0,-1l0,-1l0,-1l0,-1c0,0,1,0,1,-1l1,-1l-1,-1l-1,0l1,0l1,-1l1,0l0,-1l1,0l1,-1l2,0l0,-1l1,0l0,-1c1,0,1,0,1,-1l3,0l1,1l0,1l1,0l1,1l1,0l1,1c1,0,1,0,1,0l1,0l0,1c1,0,1,1,2,1l-1,1l0,1l1,0l0,1l0,1ZM83.5,363.5l1,-1l1,-1c1,0,1,0,2,0l0,-1l1,0c0,0,1,0,1,-1l1,0l0,-1l1,0l-1,-1l1,0l0,-1l0,-1l1,0l0,-1l0,-1c0,-1,0,-2,0,-2c0,0,-1,-1,-1,-1l0,-1l-1,0l1,-1l-1,-1l-1,-1l-1,0l-1,-1l-2,0l0,-1l-1,-1l-1,0l-1,0l-2,0l-1,1c0,1,-1,1,-1,1l-2,1l-1,0l-1,0l0,1l-1,0c0,0,-1,1,-1,1l1,1l-1,1l0,1l0,1c0,0,0,1,0,1l0,1l0,1l0,1l1,1l-1,1l1,0l0,1l1,0l0,1l1,0l1,0l1,1l1,0c0,0,1,0,1,1l1,0c0,1,0,1,0,1ZM89.5,348.5l-1,0l-1,0l0,-1l-1,0c0,0,-1,0,-1,0c1,0,1,0,1,0c0,0,0,-1,0,-1l-1,0c1,0,1,0,1,0l1,0l0,1c0,0,1,0,1,0l0,1l1,0ZM89.5,358.5l-1,0l0,1l-1,0l-1,1l0,-1l-1,0c1,0,1,0,1,0l1,0c1,-1,1,-1,1,-2l1,1ZM84.5,360.5c0,0,0,1,0,1l-1,0l-3,0l-1,0l0,-1c0,0,0,-1,0,-1c0,0,1,0,1,0l3,0l1,0l0,1ZM84.5,346.5c0,0,0,1,0,1l-1,0l-3,0l-1,0l0,-1c0,0,0,-1,0,-1l1,0l3,0c0,0,1,0,1,0l0,1ZM83.5,349.5l0,-1l1,0l1,0c0,0,1,0,1,0c0,0,0,1,1,1l0,1l2,-1l0,1l1,1l0,1l0,1l0,1l0,1l-1,0c0,1,0,1,0,1l0,1l-1,-1c0,0,-1,0,-1,1l-1,0l0,1l-1,0l-1,0c0,0,0,-1,-1,-1l-3,0l-1,1l-1,0l-1,0c0,-1,0,-1,-1,-1l0,-1l-1,1l-1,-1l0,-1l0,-1l-1,-1c0,-1,0,-1,1,-1c0,0,0,-1,0,-1l0,-1c0,-1,1,-1,1,-1l1,1l0,-1l1,0l0,-1c1,0,1,0,1,0c1,0,1,0,1,0l1,0l0,1ZM83.5,357.5l1,0l1,1c0,0,0,-1,1,-1l1,0l0,-1l2,0l0,-1l0,-1l1,0l0,-1c0,-1,0,-1,-1,-2c0,0,0,-1,0,-1l-1,0l-1,0l0,-1l-1,0l-1,-1c0,0,-1,0,-1,0l0,1l-1,0l-3,0l-1,-1l-1,0c0,0,-1,1,-1,1l-1,0c0,1,0,1,0,1l-1,0l-1,0l0,1l0,1l0,1l0,1l0,1c0,1,1,1,1,1l1,0l1,1l1,0l0,1c1,0,1,-1,1,-1c1,0,1,0,1,0l3,0ZM83.5,351.5l0,1c-1,0,-1,0,-1,0l-1,1l1,0l0,1c0,1,0,1,0,1c0,0,-1,0,-1,0l0,-1l0,-1l0,-1l-1,0l1,-1c0,1,0,1,1,1c0,0,1,0,1,-1ZM75.5,348.5l0,-1l1,0l1,-1l1,0l0,1c0,0,-1,0,-1,0l-1,0l0,1l-1,0ZM74.5,358.5l1,0l0,-1c0,1,1,1,1,2l1,0l1,0c0,1,0,1,0,1l-1,0c-1,-1,-1,-1,-2,-1l0,-1ZM136.5,356.5l0,-2l1,-1l-1,-8l1,-3l0,11l0,1c0,1,0,1,-1,2ZM129.5,354.5c0,0,1,0,1,0l1,0c0,-1,0,-1,0,-1c0,0,1,0,1,-1l-1,-2l0,-6l0,-1l0,-1l1,0c0,0,0,1,0,1l1,0c0,1,0,1,-1,1c0,1,0,1,0,1c0,0,0,1,0,2c0,0,0,1,0,3l0,1l0,1c0,0,0,1,0,1c0,0,0,1,0,1c0,1,-1,1,-1,1c0,0,-1,0,-1,0l-1,0l-1,0l-1,0c0,0,-1,0,-1,0l-1,-1c0,0,-1,0,-1,0l0,1c-1,0,-1,0,-1,0c0,0,-1,0,-1,0l-1,0l-1,0c0,0,-1,0,-1,0c0,0,-1,-1,-1,-2c0,1,0,2,-1,2l-1,0c-1,0,-1,0,-1,0c-1,0,-1,0,-1,0l0,-1c-1,0,-1,0,-1,0c0,0,0,1,-1,1l-1,0l-1,0c-1,0,-1,0,-2,0c0,0,-1,1,-1,1c-1,0,-1,0,-2,0c0,-1,-1,-1,-1,-1l-1,1c0,0,0,1,-1,1c0,1,-1,1,-2,1c-1,0,-2,0,-4,0l5,-2l1,0c0,-1,1,-1,1,-1l1,-2c0,-1,1,-1,1,-1c0,0,0,-1,1,-1c1,0,1,1,1,1c1,1,1,1,2,1c0,1,0,1,0,1c1,0,1,0,1,0l1,0l1,0c0,0,0,-1,1,-1c0,-1,0,-1,0,-1l1,0c0,1,0,1,0,1l0,1c1,0,1,0,2,0l1,0c0,0,0,-1,1,-1l0,-1c0,-1,0,-1,0,-1l0,-1l-1,-6l1,-2l1,10c0,0,0,1,0,1c0,1,1,1,1,1l1,0l1,0c0,0,1,0,1,0l0,-1c1,0,1,0,1,0l-1,-1l-1,0l-1,0l1,-2c1,0,1,0,2,0c0,-1,0,-1,1,-1c1,0,1,1,1,1l1,0l0,1l0,1c0,0,-1,0,-1,1c0,0,1,0,1,1l1,0l1,0ZM129.5,338.5c0,-1,0,-1,1,-1c0,0,1,0,1,0c1,0,1,0,2,0c0,0,0,1,0,1c0,0,0,1,0,1c-1,0,-1,0,-1,1c-1,0,-1,0,-1,0c0,0,-1,0,-1,0c0,0,-1,0,-1,0l2,-1c0,0,1,0,1,-1c-1,0,-1,0,-1,0c-1,0,-1,0,-1,0c-1,0,-1,0,-1,1l0,-1ZM124.5,342.5l4,-2l0,1l-5,2ZM119.5,362.5l-4,2c0,-1,0,-1,0,-2l4,-1ZM115.5,359.5l-2,-1l-1,1l-1,-1l1,-1l1,1l1,-2l1,1ZM107.5,354.5l-1,0l0,-1c0,0,-1,0,-1,0c0,0,0,1,1,1ZM106.5,361.5l-5,2c1,0,1,-1,1,-1l4,-2ZM180.5,356.5l0,-2l0,-1l0,-8l1,-3l0,11l0,1c0,1,-1,1,-1,2ZM173.5,354.5c1,0,1,0,1,0c1,-1,1,-1,1,-1l0,-1l0,-2l0,-6c0,0,-1,0,-1,0l0,-1l1,-1c0,0,0,1,0,1c1,0,1,0,1,0c0,1,0,1,0,1c0,1,0,1,0,1c0,0,0,1,0,2c0,0,0,1,0,3l0,1l0,1c0,0,0,1,0,1c0,0,0,1,0,1c0,0,-1,0,-1,0c0,1,0,1,0,1l-1,0c-1,0,-1,0,-1,0l-1,0c0,0,-1,0,-1,0c-1,0,-1,0,-1,0c0,0,-1,0,-1,-1c-1,0,-1,0,-1,0l-1,1c-1,0,-1,0,-1,0l-1,0l-1,0l-1,1l0,1c0,0,0,1,0,2c-1,0,-1,0,-1,0c0,1,0,1,-1,1c0,0,0,1,-1,1l-1,0l-1,0c0,0,-1,0,-2,0l0,-1l1,0c1,0,1,0,2,0l1,-1l1,0c0,0,0,-1,0,-1c0,0,1,-1,1,-1c0,0,0,-1,1,-1c0,-1,0,-1,0,-1l-1,0c0,-1,0,-1,0,-1l0,-1l0,-1l0,1c1,0,1,0,1,0l0,1c0,0,1,0,1,0l1,0c0,0,1,0,1,0l0,-1l1,0l0,-1c0,0,-1,0,-1,0c0,0,-1,0,-1,0l1,-2c0,0,1,0,1,0c1,-1,1,-1,1,-1l1,0c0,0,0,1,0,1l1,0l1,0l0,1l0,1l-1,0l0,1l0,1l1,0l1,0l1,0ZM173.5,338.5c0,-1,0,-1,1,-1l1,0c0,0,1,0,1,0c1,0,1,1,1,1c0,0,-1,1,-1,1l0,1c-1,0,-1,0,-1,0c-1,0,-1,0,-1,0l-1,0l2,-1c0,0,1,0,1,-1l-1,0c-1,0,-1,0,-2,0l-1,1l0,-1c1,0,1,0,1,0ZM167.5,342.5l5,-2l-1,1l-4,2ZM162.5,351.5l-1,-2l1,-1l1,1ZM163.5,363.5l-5,2c1,0,1,-1,1,-1l4,-2ZM156.5,359.5l-2,-1l0,1l-2,-1l1,-1l2,1l0,-2l2,1ZM153.5,355.5l-1,0l-1,0l0,1l0,1c0,0,-1,1,-1,2c-1,1,-1,1,-1,1c-1,0,-1,1,-1,1c0,0,-1,0,-1,0c0,0,-1,0,-1,0l-1,0l-1,0c0,0,-1,0,-1,-1c0,0,1,0,1,0l1,0c0,0,1,0,1,0c0,0,1,0,1,-1c1,0,1,0,1,0c0,0,1,-1,1,-1c0,0,0,-1,0,-1c1,0,1,-1,1,-1c0,-1,0,-1,0,-1c-1,-1,-1,-1,-1,-1l0,-1l1,0l0,-1l0,1l1,1l1,0l1,0c0,0,1,0,1,0c1,-1,1,-1,2,-1c0,-1,0,-1,-1,-1c0,0,0,-1,0,-1l1,-2c0,0,0,1,0,1c0,1,0,1,0,1c0,0,0,1,0,1c0,0,0,1,0,1c0,1,0,1,0,1c-1,1,-1,1,-2,1c0,0,-1,0,-1,0ZM150.5,351.5l-2,-2l1,-1l2,1ZM150.5,363.5l-4,2c0,0,0,-1,0,-1l4,-2ZM206.5,356.5l0,-2l0,-1l-1,-8l1,-3l1,11l0,1l-1,0c0,1,0,1,0,2ZM201.5,355.5c-1,0,-1,0,-2,0c0,-1,0,-1,0,-2c0,1,-1,1,-1,2c-1,0,-1,0,-2,0c-1,0,-1,0,-1,0c-1,-1,-1,-1,-1,-2c-1,1,-1,1,-1,1c-1,0,-1,0,-2,0c0,0,-1,0,-1,0c-1,0,-1,0,-1,0c0,0,0,-1,0,-1c0,0,0,-1,1,-1l1,-1l1,-1l1,0l0,-1l1,-1c0,0,0,-1,0,-1l0,1l0,1l0,3c0,0,1,0,1,1c0,0,1,1,1,1c1,0,1,-1,1,-1c1,0,1,0,1,-1c0,0,0,-1,0,-2c0,-1,0,-1,0,-2c0,-1,-1,-1,-1,-1l1,-1l0,-1l1,3l0,2l0,1c0,0,0,1,0,1c1,1,1,1,2,1c1,0,1,0,1,0l0,-1l0,-1l-1,-1l0,-1l0,-1l0,-1l0,-1l1,0l0,1c0,0,0,1,0,1l1,2c0,1,0,1,0,2c0,0,0,1,-1,2l0,1l-1,0ZM193.5,350.5l0,1c0,0,-1,0,-1,0c-1,1,-1,1,-1,1c1,0,1,0,2,0l1,0ZM232.5,355.5c-1,0,-1,0,-1,0l-1,0l-1,-1l-1,0c0,1,0,1,0,1l-1,0l-1,0l-2,0c0,1,0,1,0,1c0,0,0,1,0,1c0,1,0,2,0,2c0,1,-1,1,-1,2c-1,0,-2,1,-2,1c-1,0,-2,0,-3,0c0,0,-1,0,-1,0c-1,0,-2,0,-2,0c0,-1,-1,-1,-1,-2c0,0,0,-1,0,-1c0,-1,0,-1,0,-1l0,-1l0,-1c0,0,1,0,1,-1l1,0c-1,0,-1,0,-1,1l0,1c0,0,0,1,0,1c0,0,0,1,0,1l1,1l1,0c0,0,1,1,2,1c1,0,1,-1,2,-1c1,0,2,0,2,-1c0,-1,0,-1,0,-1c0,-1,0,-1,0,-1c0,-1,0,-1,0,-1c0,0,0,-1,0,-1l-1,-1l1,-1l1,0c0,1,0,1,1,1l1,0l1,0c0,0,1,0,1,0l0,-1l1,-1c0,0,0,-1,1,-1l0,-1l1,0l1,1l0,1l0,1c0,1,0,1,0,1c0,0,0,1,0,1ZM230.5,353.5l1,0c0,-1,0,-1,0,-1l-1,0c0,1,0,1,0,1ZM231.5,359.5l-5,2c1,-1,1,-1,1,-1l4,-2ZM219.5,353.5l-1,-1l1,-1l1,1ZM188.5,360.5l5,-2l-1,0c0,1,0,1,0,1l-4,2ZM218.5,346.5l4,-2c0,1,0,1,0,1l-4,2ZM283.5,356.5l0,-2l0,-1l-1,-8l1,-3l1,11l0,1c-1,1,-1,1,-1,2ZM275.5,354.5c1,0,1,0,1,0c0,0,1,0,1,0c0,-1,1,-1,1,-1l0,-1l0,-2l-1,-6l0,-1l0,-1c0,0,1,0,1,0c0,0,0,1,0,1c0,0,1,0,1,0c0,1,0,1,0,1c0,1,0,1,0,1l-1,0c0,0,0,1,0,2c0,0,1,1,1,3l0,1l0,1c0,0,0,1,0,1c0,0,-1,1,-1,1c0,1,0,1,0,1c0,0,-1,0,-1,0l-1,0l-1,0l-1,0l-1,0l-1,-1l-2,-2c0,0,-1,0,-1,-1l-1,0l0,1l0,1c0,1,0,1,0,2c-1,0,-1,0,-1,0c0,0,-1,0,-1,0c0,0,-1,0,-1,0l-1,0l-1,0c-1,0,-1,0,-1,0c-1,0,-1,0,-1,0l0,-1l-1,0c0,0,-1,1,-1,1l-1,0l-1,0l-1,0c0,0,-1,0,-1,0c0,0,0,-1,0,-1c-1,0,-1,0,-1,1l-1,0c-1,0,-1,1,-2,1l-2,0l-1,0l-1,1l-1,0c-2,0,-3,-1,-4,-1c-1,0,-2,0,-2,-1c0,0,-1,-1,-1,-1l0,-1l0,-1c0,0,0,-1,0,-1c0,0,1,-1,1,-1l1,0c-1,0,-1,0,-1,1c0,0,0,1,0,1c0,0,0,1,0,1c0,0,1,1,2,1l1,0c0,0,0,1,1,1c1,0,2,0,3,0c1,0,1,0,2,0c0,0,1,0,1,-1l1,0l1,0c0,0,1,-1,2,-1c1,0,1,-1,1,-1l0,1l1,1l1,0c1,0,1,0,1,0c1,0,1,0,2,-1l1,0l1,1l1,0l1,0l1,0c1,0,1,0,1,0l1,0c0,-1,0,-1,0,-1l1,0l0,-1c0,0,0,-1,0,-1c-1,0,-1,0,-1,0c0,-1,0,-1,0,-1c-1,0,-1,-1,-1,-1c-1,0,-1,0,-1,0c0,0,-1,0,-1,0c0,0,-1,-1,-1,-1c0,-1,0,-1,0,-1l0,-1c0,-1,0,-1,0,-1c0,0,1,0,1,0c0,-1,1,-1,3,-2c1,0,3,-1,4,-1c2,-1,3,-1,3,-1l1,0l-1,1l-1,0c0,0,-1,1,-2,1c-2,1,-3,1,-4,2c-2,0,-3,1,-3,1l0,1l1,0l1,0c0,1,0,1,0,1l1,0c1,1,1,1,2,1c0,1,1,1,2,2c0,0,1,1,1,1l2,2l1,0ZM275.5,338.5c1,-1,1,-1,1,-1c1,0,1,0,2,0c0,0,1,0,1,0c0,0,1,1,1,1c-1,0,-1,1,-1,1l-1,1l-1,0l-1,0l1,-1c1,0,1,0,2,-1c0,0,-1,0,-1,0c0,0,-1,0,-1,0c0,0,-1,0,-1,0l-1,1l0,-1ZM274.5,359.5l-4,2c0,-1,0,-1,0,-1l4,-2ZM261.5,350.5l-1,-1l-1,2l-1,-1l0,-2l2,1l1,-1l1,1ZM247.5,360.5l-1,-1l1,-1l1,1ZM249.5,363.5l-4,2c0,-1,0,-1,0,-1l4,-2ZM325.5,347.5l-2,-1l-1,1l-1,-1l1,-1l1,1l1,-1l2,1ZM323.5,355.5l-1,0l-1,0c0,0,-1,0,-1,0l-1,0l0,-1c0,0,-1,0,-1,0c0,0,0,-1,0,-1l0,-1c0,0,0,1,0,1c0,0,-1,0,-1,0l0,1c0,0,-1,0,-1,0l-1,0l0,1l0,1l-1,1c0,0,0,1,0,1c0,0,-1,0,-1,1c0,0,-1,0,-1,1c-1,0,-1,0,-1,0c-1,0,-1,0,-1,0l-1,0c0,0,-1,0,-1,0l-1,0c0,-1,0,-1,0,-1c0,0,1,0,1,0l1,0l1,0l1,0c0,0,0,-1,0,-1c1,0,1,0,1,0c1,-1,1,-1,1,-2c0,0,1,-1,1,-1l0,-1l0,-2c1,0,1,0,1,0c0,0,1,0,1,0c0,0,1,0,1,0l0,-1c0,0,1,0,1,0c0,-1,0,-1,0,-1c1,0,1,0,1,1l0,1c0,1,0,1,0,1c1,0,1,1,1,1c1,0,1,0,1,0l1,0l1,0c0,0,1,0,1,0c1,-1,1,-1,1,-1c0,-1,0,-1,0,-1l0,-1l-1,0l1,-2c0,0,0,1,0,1l1,0l0,1l0,1l0,1c0,1,0,1,0,1c0,0,-1,0,-1,0c0,1,0,1,-1,1c0,0,-1,0,-1,0ZM323.5,339.5l4,-2l-1,1l-4,2ZM317.5,349.5l-1,-1l1,-1l1,1ZM313.5,350.5l-1,-1l0,-1l2,1ZM315.5,363.5l-4,2c0,0,0,-1,0,-1l4,-2ZM308.5,359.5l-1,-1l-1,1l-1,-1l1,-1l1,1l1,-2l1,1ZM305.5,355.5l-1,0c-1,0,-1,0,-1,0c-1,0,-1,-1,-1,-1l0,1l0,1c0,1,0,1,0,2c-1,0,-1,1,-1,1c-1,0,-1,0,-1,1c-1,0,-1,0,-1,0c-1,0,-1,0,-2,1c0,0,-1,0,-1,0l-1,0l-1,-1c0,0,-1,0,-1,0c0,-1,-1,-1,-1,-1c0,-1,0,-1,0,-2c0,0,0,-1,0,-1c0,-1,1,-1,1,-2l0,-1l1,0l0,1l-1,0c0,1,0,1,0,1c0,0,0,1,0,1c0,1,0,1,1,2c0,0,1,1,1,1c1,0,1,0,1,0c1,0,2,0,3,-1c1,0,2,-1,2,-1l0,-1l0,-3c0,0,0,-1,0,-2l0,-1l0,-6l1,-2l0,10c0,0,0,1,0,1l1,0c0,0,0,1,0,1c0,0,1,0,1,0l1,0c1,0,1,0,2,0c0,-1,1,-1,1,-1c0,-1,0,-1,0,-1c0,0,0,-1,-1,-1l1,-2c0,0,0,1,0,1l1,0c0,1,0,1,0,1c0,0,0,1,0,1c0,0,0,1,0,1c0,1,0,1,0,1c-1,0,-1,0,-1,0c0,1,-1,1,-1,1c-1,0,-1,0,-2,0ZM295.5,340.5c0,-1,0,-1,0,-1c1,0,1,-1,1,-1c0,0,1,1,1,1l0,1l0,1l0,1l0,1l-1,-1l-1,1c0,0,-1,1,-1,1l-1,0l1,-1l1,0l0,-1l0,-1l0,-1ZM296.5,340.5c-1,0,-1,0,-1,0l1,0l0,1l0,-1ZM353.5,353.5c0,1,0,2,0,2l-1,1c0,1,0,1,0,1l1,0l0,1l-1,0l-1,1l-1,0l0,1l-1,0l-1,1l-1,0l-1,0l0,1l-1,1l-1,0l-1,0c-1,0,-1,0,-1,0l-1,-1c0,0,0,-1,-1,-1c-1,0,-1,0,-2,-1l-1,0l-1,-1l-1,-1l-1,0l0,-1l1,0l0,-1l-1,0l0,-1l0,-1l0,-1l0,-1l0,-1l0,-1l1,0l0,-1l-1,-1l1,0l0,-1l1,0l0,-1l1,0l1,0l1,-1l1,0c0,0,1,0,1,0l0,-1l1,-1l1,-1l1,0l0,1l1,0l0,1l1,0l0,1l2,0l1,1c1,0,1,0,1,0l1,0l0,1c1,0,1,1,2,1l-1,1l0,1l1,0l0,1l0,1ZM344.5,363.5l1,-1l1,-1c1,0,1,0,2,0l0,-1l1,0c0,0,1,0,1,-1l1,0l0,-1l1,0l-1,-1l1,0l0,-1l0,-1l1,0l0,-1l0,-1c0,-1,0,-2,-1,-2c0,0,0,-1,0,-1l0,-1l-1,0l1,-1l-1,-1l-1,-1l-1,0l-1,-1l-2,0l0,-1l-1,-1l-1,0l-1,0l-1,0l-1,1c0,1,0,1,-1,1l-1,1l-1,0l-1,0l-1,1c-1,0,-1,1,-2,1l1,1l1,0l-1,0l0,1l-1,1l0,1c0,0,0,1,0,1l0,1l0,1l1,1l0,1l1,0l-2,1l1,0l1,0l0,1l1,0l0,1l1,0l1,0l0,1l1,0c1,0,1,0,1,1l1,0c0,1,1,1,1,1ZM350.5,348.5l-1,0l-1,0l0,-1l-1,0c0,0,-1,0,-1,0c0,0,1,0,1,0c0,0,0,-1,0,-1l-1,0c0,0,1,0,1,0l1,0l0,1c0,0,1,0,1,0l0,1l1,0ZM350.5,358.5l-1,0l0,1l-1,0l-1,1l-1,0l1,0l0,-1l-1,0c1,0,1,0,1,0l1,0c1,-1,1,-1,1,-2l0,1l1,0ZM345.5,360.5c0,0,0,1,0,1l-1,0l-1,0c-1,0,-1,0,-1,0l-1,-1c0,0,0,-1,1,-1l1,0l1,0l1,0l0,1ZM345.5,346.5c0,0,0,1,0,1l-1,0l-1,0c-1,0,-1,0,-1,0l-1,-1c0,0,1,-1,1,-1l1,0l1,0c1,0,1,0,1,0l0,1ZM344.5,349.5l0,-1l1,0l1,0c0,0,1,0,1,0c0,0,0,1,1,1l0,1l2,-1l0,1l0,1l1,0l0,1l0,1l0,1l0,1l-1,0c0,1,0,1,0,1l0,1l-1,-1c-1,0,-1,0,-1,1c0,0,-1,0,-1,0l0,1l-1,0l-1,0c0,0,-1,-1,-1,-1l-1,0l-1,0l0,1l-1,0c-1,0,-1,0,-1,0c-1,-1,-1,-1,-1,-1l0,-1l-1,0l-1,1l0,-1l-1,-1l0,-1l0,-1c0,-1,0,-1,0,-1c0,0,0,-1,0,-1l0,-1l1,0c0,-1,0,-1,0,-1l1,1c0,0,1,0,1,-1l1,0l0,-1c0,0,1,0,1,0c0,0,1,0,1,0l1,1ZM344.5,357.5l1,0l1,1c0,0,0,-1,0,-1l1,0l1,-1l1,0l1,0l0,-1l0,-1l1,0l0,-1c0,-1,0,-1,-1,-2c0,0,0,-1,0,-1l-1,0l-1,0l0,-1l-1,0l-1,-1c-1,0,-1,0,-1,0l0,1l-1,0l-1,0l-1,0l0,-1l-1,0l-1,0c0,0,0,1,0,1l-1,0c0,1,-1,1,-1,1l-1,0l0,1l-1,0l0,1l0,1l0,1l0,1l1,0c0,1,0,1,0,1l1,0c0,0,1,0,1,0l0,1l1,0l1,0l0,1c0,0,1,-1,1,-1l1,0l1,0ZM343.5,351.5l0,1l1,0c0,1,0,1,0,1l0,1l0,1c0,0,-1,0,-1,0l1,0l0,-1c0,0,-1,-1,-1,-2ZM337.5,348.5l1,-1l1,0l0,-1l1,0l0,1l-1,0l-1,1l-1,0ZM337.5,358.5l1,-1c0,1,0,1,1,2l1,0c0,1,0,1,0,1l-1,0c0,-1,-1,-1,-1,-1l-1,0l0,-1ZM382.5,353.5l-2,0c0,0,-1,0,-2,0l-1,0l-1,0l0,1l-1,0c0,0,-1,0,-1,1c-1,0,-1,0,-1,0c-1,0,-2,0,-2,0l-1,0l-3,0c0,0,-1,0,-1,0l0,1l0,1l-1,0c0,0,0,1,0,1c0,0,-1,-1,-1,-1c-1,-1,-1,-1,-1,-2l0,-1c0,0,-1,1,-1,1l-1,0l0,1l-1,0l0,1l1,0l0,1l0,2l0,1l0,1c1,1,1,2,1,2l0,1l-1,0l0,-1l0,-1l0,-1l-1,-3l0,-1l0,-1l0,-1l0,-1c0,0,1,-1,1,-1l0,-1l1,0l1,-1l1,0c0,0,1,1,2,1l2,1l1,0l1,0l1,0c1,0,1,0,2,-1c0,0,1,0,1,0l2,0l0,-1l-1,0l-1,-1l-1,0l-1,0l-1,0c0,0,0,-1,1,-1l0,-1c1,0,1,0,1,0c0,0,1,0,1,0l1,1l2,1l1,0c0,0,1,0,1,0c0,0,1,0,1,0c1,0,1,0,1,0l2,0ZM365.5,344.5c-1,0,-1,0,-2,0l-1,0l-1,0c0,0,0,1,-1,1c0,-1,0,-1,1,-1l0,-1c1,0,2,1,2,1l1,0l0,-1l1,0ZM314.5,340.5c1,0,1,0,1,0c1,0,1,0,2,0c0,0,1,0,1,0c0,0,1,0,1,1c-1,0,-1,1,-1,1l-1,1c-1,0,-1,0,-1,0l-1,0l1,-1c1,0,1,0,2,-1c0,0,-1,0,-1,0l-1,0c0,0,-1,0,-1,0l-1,1l0,-1l0,-1ZM304.5,338.5c1,0,1,0,1,0c1,0,1,0,2,0c0,0,1,0,1,0c0,0,1,0,1,1c-1,0,-1,1,-1,1l-1,0l0,1l-1,0l-1,0l1,-1c1,0,1,0,2,-1c0,0,-1,0,-1,0c0,0,-1,0,-1,0c0,0,-1,0,-1,0l-1,0c0,0,0,-1,0,-1ZM151.5,342.5l1,-1c0,0,1,0,1,0c1,0,1,0,1,1c1,0,1,0,1,0c0,1,0,1,-1,1c0,1,0,1,0,1l-1,0c0,0,-1,0,-1,0c-1,0,-1,0,-1,0l2,0c0,-1,1,-1,1,-1l-1,0c-1,0,-1,0,-2,0c0,0,0,-1,0,-1ZM107.5,343.5c1,0,1,0,1,0c1,0,1,0,2,0c0,0,1,0,1,0c0,0,1,0,1,1c-1,0,-1,1,-1,1l-1,0l0,1c-1,0,-1,0,-1,0l-1,0l1,-1c1,0,1,0,2,-1c0,0,-1,0,-1,0l-1,0c0,0,-1,0,-1,0l-1,0c0,0,0,-1,0,-1ZM83.5,334.5c-1,1,0,3,-1,4c0,0,0,1,0,1c0,0,-1,0,-1,0l-1,0c1,0,1,0,1,0c0,-1,0,-1,0,-1c0,0,1,0,1,0c-1,0,-1,0,-1,0c0,-1,0,-1,0,-1l-1,-1c0,0,-1,0,-1,0c0,0,0,-1,0,-1c1,0,1,0,1,0c0,0,0,1,1,1c0,1,0,1,0,1c1,0,1,0,1,0c0,1,0,1,0,1c0,-1,0,-1,0,-1c0,0,0,-1,0,-1l0,-1ZM374.5,345.5c0,-1,0,-1,0,-2c0,-1,0,-1,0,-2l1,1l0,1c0,0,0,1,0,1c0,1,-1,1,-1,1ZM259.5,344.5l1,0c0,-1,-1,-1,-1,-2c0,0,0,-1,0,-1l0,-1c1,0,1,0,1,1l0,1l0,1c0,0,0,1,0,1l-1,0ZM197.5,339.5l0,-1c0,0,0,-1,-1,-1c0,-1,0,-2,0,-2l0,-1l1,0l0,1c0,0,0,1,0,1l0,1c0,0,0,1,0,1l0,1ZM195.5,341.5l1,1c1,0,1,0,1,-1l0,-1l1,0l0,1c1,0,1,0,1,-1l0,-1l0,1l0,1l0,1l0,1l-1,0l0,-1l-1,0l0,1c-1,0,-1,1,-1,1c-1,0,-1,-1,-1,-1l0,-1l0,-1ZM343.5,336.5l1,0ZM344.5,339.5l-1,0l-1,0c0,0,-1,0,-1,-1c0,0,0,-1,0,-1l-1,0c0,-1,1,-1,1,-1c0,0,0,-1,0,-1l0,-1c1,0,1,0,1,0l-1,0c0,-1,0,-1,0,-1l1,0l1,0l1,0l1,0l-1,1l-1,0l-1,0l0,1c0,0,-1,0,-1,0l0,1c0,1,0,1,0,1l0,1l1,0l1,0l1,0l1,0l1,0ZM312.5,383.5l-1,0l1,0ZM312.5,386.5l-1,0c-1,0,-1,0,-1,0c0,0,0,-1,-1,-1c0,0,0,-1,0,-1c0,-1,0,-1,0,-1c0,0,0,-1,0,-1l1,-1l1,0l-1,0l-1,0c0,-1,0,-1,0,-1c1,0,1,0,1,0l1,0c0,0,1,0,1,0c0,0,1,0,1,0l0,1l-1,0l-1,0l-1,0l0,1c-1,0,-1,0,-1,1c0,1,0,1,0,1l1,1c0,0,1,0,1,0l1,0c0,0,1,0,1,0l1,0ZM111.5,382.5l0,-1l1,0ZM112.5,385.5l-1,0c0,0,0,-1,0,-1c-1,0,-1,0,-1,0c0,0,-1,0,-1,0c0,0,0,-1,0,-1l0,-1l0,-1c0,-1,0,-1,1,-1c0,0,0,-1,0,-1l-1,0l1,0l1,0c0,0,1,0,1,0c0,0,1,0,1,0l-1,0l-1,0c0,0,0,1,0,1c-1,0,-1,0,-1,0l-1,0c0,1,0,1,0,1c0,0,0,1,0,1c0,0,0,1,0,1c0,0,1,0,1,0c0,0,0,1,0,1c0,0,1,0,1,0l1,0l1,0l1,0ZM245.5,429.5l-1,0l0,-1l1,0ZM245.5,432.5l-1,0l0,-1c-1,0,-1,0,-1,0l-1,0c0,-1,0,-1,0,-1l0,-1l0,-1c0,-1,0,-1,1,-1c0,0,0,-1,1,-1l-1,0l-1,0c1,0,1,0,1,0c0,0,0,-1,0,-1c0,0,0,1,0,1l1,0c0,0,1,0,1,0c0,0,1,0,1,0l-1,0l-1,0c0,0,0,1,0,1l-1,0c-1,1,-1,1,-1,1c0,0,0,1,0,1c0,0,0,1,0,1l1,0c0,0,0,1,0,1c0,0,1,0,1,0l1,0c0,0,1,0,1,0l1,0ZM279.5,477.5l-1,-1l1,0ZM279.5,479.5c-1,0,-1,0,-1,0l-1,0l0,-1l-1,0c0,0,0,-1,0,-1c0,0,0,-1,0,-1c0,0,0,-1,0,-1c1,0,1,0,1,-1c0,0,1,0,1,0l-1,0l-1,0c0,-1,1,-1,1,-1l1,0c1,0,1,0,1,0c1,0,1,0,1,0l0,1l-1,0c-1,0,-1,0,-1,0l-1,0l0,1l0,1c-1,0,-1,0,-1,0c0,1,0,1,0,1c0,0,1,0,1,0c0,0,0,1,0,1l1,0c0,0,1,0,1,0l1,0l1,0ZM278.5,469.5l-2,0l1,-2l1,1ZM279.5,472.5l-1,-1l-1,1l-1,-1l1,-1l1,1l1,-2l1,1ZM145.5,474.5c0,1,0,3,0,4l0,1c-1,0,-1,0,-1,0l-1,0c1,0,1,0,1,0c0,-1,0,-1,0,-1c0,0,1,0,1,0c0,0,-1,0,-1,0c0,-1,0,-1,0,-1c0,0,-1,0,-1,-1c-1,0,-1,0,-1,0c0,0,0,-1,0,-1c1,0,1,0,1,0c0,0,0,1,0,1c1,0,1,0,1,0c0,0,0,1,0,1c0,0,1,0,1,0c0,1,0,1,0,1c0,-1,0,-1,0,-1c0,0,0,-1,0,-1l0,-1ZM287.5,523.5l-1,0l1,0ZM287.5,526.5l-1,0c-1,0,-1,0,-1,-1c-1,0,-1,0,-1,0c0,0,0,-1,0,-1c0,-1,0,-1,0,-1c0,0,0,-1,1,-1l0,-1c0,0,1,0,1,0l-1,0l-1,0c1,-1,1,-1,1,-1l1,0l1,0c1,0,1,0,1,0l0,1c-1,0,-1,0,-1,0c-1,0,-1,0,-1,0l-1,0l0,1l0,1c0,1,0,1,0,1l0,1c0,0,1,0,1,0c1,0,1,0,1,0l1,0l1,0ZM286.5,516.5l-1,-1l0,-1l2,1ZM287.5,519.5l-1,-1l-1,1l-1,-1l1,-1l1,1l1,-2l1,1ZM139.5,521.5c-1,1,-1,2,-1,3c0,1,0,1,0,1c0,0,-1,0,-1,0l-1,0c0,0,0,1,0,1l0,-1c1,0,1,0,1,0c0,0,1,-1,1,-1l-1,0l0,-1l-1,0l0,-1c0,1,0,1,0,1l0,-1c-1,0,-1,0,-1,0c0,0,0,-1,0,-1c1,0,1,0,1,1c1,0,1,0,1,1c0,0,1,1,1,1c0,-1,0,-1,0,-1l0,-2ZM136.5,517.5l-1,-1l1,-1l1,1ZM138.5,519.5l-1,-1l-1,1l-2,0l1,-2l2,1l0,-1l2,1ZM143.5,471.5l-1,-1l1,-2l1,1Z" class="g2_10" />
</svg>