<?xml version="1.0" encoding="UTF-8" standalone="no"?>
<!DOCTYPE svg PUBLIC "-//W3C//DTD SVG 1.1//EN"
"http://www.w3.org/Graphics/SVG/1.1/DTD/svg11.dtd">
<svg version="1.1" xmlns="http://www.w3.org/2000/svg" xmlns:xlink="http://www.w3.org/1999/xlink">
<defs>
<style type="text/css"><![CDATA[
.g1_26{
stroke: #1F1A17;
stroke-width: 1;
stroke-linecap: butt;
stroke-linejoin: miter;
}
]]></style>
</defs>
<path fill-rule="evenodd" d="M407.5,87.5l4,-2l0,1l-5,2ZM355.5,90.5c0,-1,1,-1,1,-1c1,0,1,0,1,0c1,0,1,0,2,0c0,0,0,1,0,1c0,0,0,1,0,1c0,0,-1,0,-1,1l-1,0l-1,0l-1,0l2,-1c1,0,1,0,2,0c-1,-1,-1,-1,-1,-1c0,0,-1,0,-1,0c0,0,-1,0,-1,0c0,0,-1,1,-1,1l0,-1ZM333.5,94.5c1,-1,1,-1,1,-1c1,0,1,0,2,0c0,0,1,0,1,0c0,0,1,1,1,1c-1,1,-1,1,-1,1c0,0,0,1,-1,1c-1,0,-1,0,-1,0l-1,0l1,-1c1,0,1,0,2,0c0,-1,-1,-1,-1,-1l-1,0c0,0,-1,0,-1,0c0,1,0,1,-1,1c0,-1,0,-1,0,-1ZM293.5,95.5c1,0,1,0,1,0c1,0,1,0,2,0c0,0,1,0,1,0c0,0,1,0,1,1c-1,0,-1,1,-1,1l-1,1c-1,0,-1,0,-1,0l-1,0l1,-1c1,0,1,0,2,-1c0,0,-1,0,-1,0l-1,0c0,0,-1,0,-1,0l-1,1l0,-1l0,-1ZM261.5,94.5c0,0,1,0,1,0c1,0,1,0,1,0c1,0,1,0,2,0c0,0,0,1,0,1l0,1c0,0,-1,0,-1,0c0,0,-1,0,-1,0c0,0,0,1,-1,1c0,0,0,-1,-1,-1l2,0c1,0,1,-1,2,-1c-1,0,-1,0,-1,0c0,0,-1,0,-1,0c0,0,-1,0,-1,0c0,0,-1,0,-1,0c0,-1,0,-1,0,-1ZM157.5,95.5c0,-1,1,-1,1,-1c1,0,1,0,1,0c1,0,1,0,2,0c0,0,0,1,0,1c0,0,0,1,0,1c0,0,-1,0,-1,1c0,0,-1,0,-1,0l-1,0l-1,0l2,-1c1,0,1,0,2,-1c-1,0,-1,0,-1,0c0,0,-1,0,-1,0c0,0,-1,0,-1,0c0,0,-1,1,-1,1l0,-1ZM73.5,90.5c0,-1,0,-1,1,-1l1,0c0,0,1,0,1,0c1,0,1,1,1,1c0,0,-1,1,-1,1l0,1c-1,0,-1,0,-1,0c-1,0,-1,0,-1,0l-1,0l1,-1c1,0,2,0,2,0c0,-1,0,-1,-1,-1c-1,0,-1,0,-2,0c0,0,0,1,-1,1l0,-1c0,0,1,0,1,0ZM282.5,93.5l1,0l0,-1l1,-1l0,-1l-1,0l0,-2l0,-1l1,0l0,1l0,1l0,1l0,1l0,1l1,-1c1,0,1,0,1,0l0,-1c1,0,1,1,1,1c0,0,1,0,1,0l0,1c0,0,-1,0,-1,0c0,1,0,1,0,1l-1,0l-1,0c0,0,-1,0,-1,0ZM286.5,91.5c0,0,-1,0,-1,1l-1,0l0,1c0,0,1,0,1,0c0,-1,0,-1,1,-1c0,0,1,0,1,0c0,0,0,-1,-1,-1ZM57.5,101.5c0,1,0,2,0,2c0,0,0,1,-1,1l0,1l1,1l-1,0l0,1l-1,0l0,1l-1,0l-1,1l-1,0l-1,0l-1,0l0,1l-1,1l-1,0c0,1,0,1,0,1l-3,0l-1,0c-1,-1,-1,-1,-1,-1l-1,-1l-1,-1c-1,0,-1,0,-2,0l0,-1l-1,0l-1,0l0,-1l-1,0l-1,-1l1,-1l0,-1l-1,0l0,-1l0,-1l0,-1l0,-1c0,-1,0,-1,0,-2l1,0l0,-1l-1,0l0,-1l1,0l1,-1l1,-1l1,0l1,-1l1,0l1,0l0,-1l1,-1l1,0l1,0l3,0l1,0l0,1l1,0l0,1l2,1l1,0c1,0,1,0,1,0l1,1c1,1,1,1,2,1l0,1l-1,0l0,1l1,0l0,1l0,1ZM48.5,111.5l1,0l0,-1l1,-1c1,0,1,0,2,0l1,-1c0,0,1,0,1,0l0,-1l1,0l1,-1l-1,-1l1,0l0,-1l1,-1l0,-1l0,-1c0,-1,0,-1,0,-2c-1,0,-1,0,-1,0l0,-1l0,-1l-1,0l1,-1l-1,0l0,-1l-1,0l0,-1l-1,0l-1,0l-2,-1l-1,-1l0,-1l-1,0l-1,0l-2,0l-1,0l-1,0l0,1l-1,1l-1,0l-1,1l-1,0l-1,0l0,1l-1,0l0,1c-1,0,-1,0,-2,0l1,1l1,0l-1,0l0,1l-1,1l0,1c0,1,0,1,0,1l0,1l0,1l1,1l0,1l1,0l-2,1l1,0l1,1l1,1l1,0l1,1l1,0c1,0,1,0,1,1l1,0l0,1c0,0,1,0,1,0l1,0ZM54.5,96.5l-1,1l0,-1l-1,0l0,-1l-1,0c0,0,-1,0,-1,0c1,0,1,0,1,0l0,-1l-1,0c1,0,1,0,1,0l0,1l1,0c0,0,1,0,1,0l0,1l1,0ZM54.5,106.5l-1,1l-1,0l0,1l-1,0l-1,0l1,0c0,-1,0,-1,-1,-1c1,0,1,0,1,0l1,0c1,-1,1,-1,1,-1l1,0ZM49.5,108.5c0,0,0,1,0,1c0,0,-1,0,-1,0l-3,0l-1,0c-1,0,-1,0,-1,0l-1,0c0,-1,0,-1,0,-1l1,-1l1,0l1,0l3,0l1,0l0,1ZM49.5,94.5c0,1,0,1,0,1l-1,1l-3,0l-1,0c-1,-1,-1,-1,-1,-1l-1,0l0,-1l1,-1l1,0l1,0l3,0c0,0,1,0,1,0c0,0,0,1,0,1ZM48.5,97.5l1,0l0,-1l1,0c0,0,1,0,1,1l1,0l0,1l2,-1c0,0,0,1,0,1l0,1l1,0l0,1l0,1l0,1c0,0,0,1,0,1l-1,0l0,1c0,0,0,1,0,1l-1,-1c0,0,-1,1,-1,1c0,0,-1,0,-1,1l-1,0l-1,0l-1,0l0,-1l-3,0l-1,0l-1,1l-1,0c-1,0,-1,0,-1,0c-1,0,-1,-1,-1,-1l-1,0l0,-1l-1,1l0,-1l-1,-1l0,-1l0,-1c0,0,0,-1,0,-1l0,-1l1,-1c0,0,0,-1,0,-1l1,1c0,0,1,0,1,-1l1,0c0,-1,0,-1,1,-1c0,0,1,0,1,0l0,1l1,0l1,0ZM48.5,105.5l1,0l0,1l1,0l1,0l0,-1l1,0c0,-1,0,-1,0,-1l1,0l1,0l0,-1l1,-1l0,-1c0,0,0,-1,-1,-1c0,-1,0,-1,0,-2l-1,0l-1,0l0,-1l-1,0l-1,0c0,0,-1,0,-1,0l-1,0l-3,0l-1,0l-1,0l-1,0l-1,0l-1,0l0,1c0,0,-1,0,-1,0l-1,0l0,1l-1,1l0,1c0,1,0,1,0,1l0,1l1,0c0,1,0,1,0,1l1,0c0,0,1,0,1,1l1,0l0,1l1,0c0,0,1,0,1,0c0,0,0,-1,0,-1l1,0l1,0l3,0ZM47.5,100.5c0,0,0,1,0,1l1,0l0,1c0,1,0,1,-1,1l0,1l-1,0l0,-1c-1,0,-1,0,-1,0l0,-1c0,0,1,0,1,0c0,0,0,-1,0,-1c0,0,1,-1,1,-1ZM47.5,101.5c-1,0,-1,0,-1,1c0,1,0,1,0,1l1,0l0,-1c0,-1,0,-1,0,-1ZM44.5,99.5l0,1l1,1l0,1l0,1c0,0,0,1,0,1c0,0,-1,0,-1,-1l1,0c0,-1,-1,-2,-1,-3ZM38.5,96.5l1,0l0,-1l1,0l1,-1l0,1l-1,0c0,0,0,1,0,1l-1,0l0,1l-1,0l0,-1ZM38.5,106.5l1,0l1,1l1,0l0,1l-1,0c0,0,-1,-1,-1,-1l-1,0l0,-1ZM121.5,104.5l0,-1l0,-2l-1,-8l1,-2l1,10c0,1,0,1,0,1l-1,1l0,1ZM113.5,102.5c0,0,1,0,1,0c0,0,1,0,1,0l0,-1c1,0,1,0,1,0l0,-2l-1,-7c0,-1,0,-1,0,-1c0,-1,1,-1,1,-1l0,1c0,0,1,0,1,1l0,1l-1,0c0,1,0,1,0,2c0,0,0,1,0,3c1,0,1,1,1,1l0,1c0,0,0,1,0,1c-1,0,-1,0,-1,0c0,1,0,1,0,1l0,1c-1,0,-1,0,-1,0c0,0,0,1,-1,1l-1,0l-1,0c0,0,-1,-1,-2,-1c0,0,-1,1,-1,1c-1,0,-1,0,-2,0l-1,-1l-1,-1l-1,1c0,1,-1,1,-1,1l-1,0l-1,0l-1,0l0,-1l-1,-1l0,-1l0,1c0,0,0,1,-1,1c0,0,-1,0,-1,0c-1,0,-1,0,-2,-1l0,1c0,0,-1,1,-1,1l-1,0c0,0,-1,-1,-1,-2c0,0,-1,1,-1,1c0,0,-1,1,-2,1c-1,0,-1,0,-1,-1c-1,0,-1,0,-1,-1c0,0,0,-1,0,-1l-1,-4l0,1l-1,1c0,0,0,1,0,1l0,1l0,1c0,1,0,1,-1,1l-1,0l-1,0l-1,-1l0,1l-1,0l0,1l-1,0l-1,0c-1,-1,-1,-1,-1,-1c-1,0,-1,-1,-1,-1l0,-1l0,-1c0,0,-1,1,-2,1l-1,0c0,1,1,1,1,1l0,1c0,1,-1,2,-1,2c0,1,0,2,-1,2c0,1,-1,1,-2,1c0,0,-1,1,-2,1c0,0,-1,0,-2,-1c0,0,-1,0,-1,0c0,-1,-1,-1,-1,-1c0,-1,0,-2,0,-2c0,-1,0,-1,0,-1c0,-1,0,-1,0,-1c0,-1,0,-1,0,-1l1,0c0,0,0,-1,0,-1l1,0c-1,0,-1,1,-1,1l0,1c0,0,0,1,0,1c0,0,0,1,0,1c0,0,0,1,1,1l1,0c0,1,1,1,1,1c1,0,2,-1,3,-1c0,0,1,0,1,-1l1,0c0,-1,0,-1,0,-1c0,-1,0,-1,0,-1c-1,-1,-1,-1,-1,-1c0,-1,0,-1,0,-1c0,0,0,-1,0,-1l-1,0l1,-2l0,1c0,0,1,0,1,0l1,0l1,0l1,-1l0,-1c0,0,1,1,1,1l0,1l0,1l0,1l0,1c0,0,1,0,1,0l1,0l1,0l1,0l0,-1l1,-1c0,0,0,-1,1,-1c0,-1,0,-1,0,-1l2,0c0,-1,0,-1,0,-1c1,0,1,0,1,0c0,0,0,-1,0,-1l0,-3l1,-2l1,9c0,0,0,1,0,1c0,1,0,1,0,1c0,0,1,0,1,0l1,0l1,0c0,-1,1,-1,1,-2l0,1l1,0c0,0,0,1,0,1c1,0,1,0,2,-1l1,-1c0,0,0,1,1,1l1,0c0,0,1,0,1,0c0,0,0,-1,0,-1c1,1,1,2,2,2l1,0l1,0c0,0,1,0,1,0l1,-1l0,-1c1,-1,2,-1,3,-1l1,1l0,1l1,0l0,1c1,0,1,0,1,0l1,0l1,0ZM113.5,86.5c0,0,1,-1,1,-1c1,0,1,0,1,0c1,0,1,0,2,0c0,1,0,1,0,1c0,1,0,1,0,1c0,0,-1,1,-1,1l-1,0l-1,0l-1,0l2,0c1,-1,1,-1,2,-1c-1,0,-1,-1,-1,-1c0,0,-1,0,-1,0c0,0,-1,0,-1,1c0,0,-1,0,-1,0c0,-1,0,-1,0,-1ZM109.5,102.5l-1,-1c0,0,0,-1,0,-1l-1,0l-1,1c0,0,1,0,1,1l1,0ZM107.5,88.5c0,0,0,-1,0,-1c0,0,1,0,1,0c1,0,1,0,1,1l0,1c0,0,-1,0,-1,0l1,1l0,1l-1,-1l-1,1c0,1,-1,1,-1,1l-1,0c0,0,-1,0,-1,0l1,0l1,-1l1,0l0,-1c-1,-1,-1,-1,-1,-1c0,-1,0,-1,1,-1ZM108.5,88.5l-1,0l0,1l1,0l0,-1ZM93.5,93.5l1,-1l1,0c0,0,1,0,1,0c1,1,1,1,1,1c0,1,-1,1,-1,1c0,1,0,1,0,1c-1,0,-1,0,-1,0c-1,0,-1,0,-1,0l-1,0l1,0c1,-1,2,-1,2,-1l-1,0c0,-1,0,-1,-1,-1c0,0,0,1,-1,1l-1,0c0,0,0,-1,0,-1c0,0,1,0,1,0ZM88.5,112.5l-4,2c0,-1,0,-1,0,-1l5,-3ZM83.5,101.5l1,0l0,-1c0,0,-1,0,-1,0c-1,0,-1,1,-1,1l1,0ZM84.5,107.5l-5,2c1,-1,1,-1,1,-1l4,-2ZM78.5,107.5l-1,-1l-1,1l-2,-1l1,-1l2,1l0,-2l2,1ZM68.5,99.5l-1,-1l1,-1l1,1ZM64.5,91.5l5,-2l-1,0l0,1l-4,2ZM147.5,103.5c-1,0,-1,0,-1,0l-1,0l-1,0l-1,-1l0,1l-1,0l0,1l-1,0l-2,0l0,1l0,1c0,0,0,1,0,1c-1,1,-1,1,-1,2c-1,0,-2,1,-2,1c-1,1,-2,1,-3,1c0,0,-1,0,-1,-1c-1,0,-2,0,-2,0c0,-1,-1,-1,-1,-1c0,-1,0,-2,0,-2c0,-1,0,-1,0,-1c0,-1,0,-1,0,-1c0,0,0,-1,0,-1c1,0,1,-1,1,-1c0,0,0,1,0,1c0,0,0,1,0,1c0,0,-1,1,-1,1l1,0c0,0,0,1,0,1c0,0,0,1,1,1c1,1,2,1,3,1c0,0,1,0,2,-1c1,0,1,0,2,-1c0,0,0,-1,0,-1c0,0,0,-1,0,-1c0,0,0,-1,0,-1l0,-1l-1,0l1,-2c1,1,1,1,2,1l1,0l1,0l1,0l0,-1l1,-1c0,0,0,-1,1,-1c0,-1,0,-1,1,-1l0,1c1,0,1,1,1,1l0,1l0,1c0,1,0,1,0,1ZM145.5,101.5l1,0l0,-1l-1,0c-1,0,-1,1,-1,1l1,0ZM146.5,107.5l-5,2c1,-1,1,-1,1,-1l4,-2ZM134.5,101.5l-1,-1l1,-1l1,1ZM133.5,94.5l4,-2l0,1l-1,0l-4,2ZM179.5,100.5c0,0,-1,0,-1,0c1,1,1,1,1,1l1,0l0,-1c-1,0,-1,0,-1,0ZM179.5,107.5c0,1,0,1,0,1c-1,0,-1,0,-1,0c-1,0,-1,0,-2,0c-1,0,-1,0,-2,0l-1,0c0,-1,0,-1,0,-1c1,0,1,0,1,1c0,0,1,0,1,0l1,0c0,0,0,-1,0,-1c1,0,1,0,1,0l1,0c0,0,0,-1,1,-1c0,0,0,-1,0,-1c1,0,1,0,1,-1c0,-1,1,-1,1,-1c0,0,0,-1,0,-1c0,0,-1,0,-1,0l0,1c-1,0,-1,0,-1,0c0,0,-1,0,-1,0c0,0,0,-1,0,-1l-1,0l0,-1l0,-1c1,0,1,0,1,0c0,0,0,-1,0,-1c0,-1,1,-1,1,-1l1,0c0,0,1,0,1,1l0,1l0,1l0,1c0,1,0,1,0,1c0,1,0,2,0,2c-1,1,-1,1,-1,2c0,0,-1,0,-1,0ZM176.5,94.5l4,-2l0,1l-4,2ZM165.5,97.5l-1,-1l1,-1l1,1ZM164.5,104.5l0,-1c1,0,1,0,2,0c0,0,1,0,1,-1c0,0,0,-1,-1,-1c0,0,0,-1,0,-1l0,-1c1,0,1,-1,1,-1c0,1,0,1,0,2l1,1c0,1,0,1,-1,1c0,1,0,1,0,1c0,1,0,1,-1,1c0,0,1,0,1,0c1,0,1,0,1,1l0,1c0,0,-1,0,-1,1c0,0,-1,1,-1,1c-1,1,-2,1,-2,1c-1,0,-2,1,-3,1c-1,0,-2,0,-2,-1c-1,0,-2,0,-2,-1l-1,-1c0,0,0,-1,0,-1c0,-1,0,-2,0,-2c1,-1,1,-2,1,-2c1,0,1,0,1,0c0,0,-1,1,-1,2l0,1c0,1,0,2,1,2c1,0,2,1,3,1c1,0,1,0,2,0c0,0,0,-1,1,-1c0,0,1,0,2,0c0,-1,0,-1,1,-1c-1,0,-1,-1,-2,-1c-1,0,-1,0,-1,0c0,0,0,-1,0,-1ZM164.5,89.5l0,1c0,0,1,0,1,0l0,-1l1,0c0,0,0,1,0,1c0,0,1,-1,1,-1l0,-1l0,1l0,1c0,0,0,1,0,1l-1,0l-1,0c0,0,-1,1,-1,1c0,0,0,-1,0,-1l0,-1l0,-1ZM168.5,110.5l-4,2c0,-1,0,-1,0,-1l4,-2ZM210.5,102.5l1,0c1,0,1,0,1,-1l0,-2l0,-7l-1,0c0,-1,1,-1,1,-1c0,-1,0,-1,0,-1l0,1l1,0l1,1c-1,0,-1,0,-1,1c0,1,0,1,0,2c0,0,0,1,0,3c0,0,0,1,0,1l0,1c0,0,0,1,0,1c0,1,0,1,0,1l-1,1c-1,0,-1,1,-1,1c-1,0,-1,0,-1,0l-1,0c-1,0,-1,0,-1,0c0,0,-1,-1,-1,-1c0,0,0,-1,0,-1c-1,0,-1,0,-1,0l0,1c0,0,-1,0,-1,0l-1,1l-1,0c0,0,-1,0,-1,0c0,-1,-1,-1,-1,-1c-1,-1,-1,-2,-1,-3c0,1,0,1,-1,2c0,0,-1,1,-2,1c0,0,-1,0,-1,0l-1,1l-1,0c-1,0,-1,0,-1,0l-1,0l-1,0l-1,0l-1,0c-2,0,-2,-1,-3,-1c0,-1,0,-1,0,-2l0,-1l0,-1l0,-1l1,0l-1,0c0,1,0,1,0,1c0,1,1,2,2,3c1,0,1,0,2,0c1,0,2,0,2,0l1,0l1,0l1,0l1,0c2,0,4,-1,4,-3l0,-7l1,-2l0,10c0,1,0,1,0,1c0,0,1,0,1,1c0,0,1,0,1,0c1,0,1,0,1,0c1,0,1,0,1,-1c1,0,1,0,1,0l1,0c0,0,0,1,1,1l1,0l1,0ZM210.5,87.5l5,-2l-1,1l-4,3ZM207.5,107.5l-1,-1l-1,1l-1,-1l1,-1l1,1l1,-1l1,0ZM203.5,86.5c1,0,1,-1,1,-1c1,0,1,0,2,0c0,0,1,0,1,0c0,1,1,1,1,1l-1,0c0,1,0,1,0,1c0,0,-1,1,-1,1l-1,0l-1,0l-1,0l2,0c1,-1,1,-1,2,-1c-1,0,-1,-1,-1,-1c0,0,-1,0,-1,0c0,0,-1,0,-1,1c0,0,-1,0,-1,0c0,-1,0,-1,0,-1ZM194.5,99.5c-1,0,-1,0,-2,0l-1,0l-1,0l1,0l1,0l0,-1c1,0,1,0,1,0l-1,0c0,0,0,-1,0,-1c-1,0,-1,0,-1,0c0,-1,0,-1,0,-1l1,0c0,-2,1,-2,2,-3l0,1l-1,1l0,1c1,0,2,0,2,1l-1,1l0,1ZM190.5,91.5l4,-2l0,1l-4,2ZM251.5,95.5l-1,-1l-1,2l-1,-1l1,-2l1,1l1,-1l1,1ZM249.5,104.5l-1,0c-1,0,-1,0,-1,0c-1,-1,-1,-1,-1,-1c0,-1,-1,-1,-1,-1c0,1,0,1,-1,1l0,1c0,0,-1,0,-1,0l-1,0c-1,0,-1,-1,-1,-1c-1,0,-1,0,-1,-1c0,0,0,1,0,1c0,0,-1,0,-1,0c-1,0,-2,1,-2,1l-2,0c0,0,-1,0,-1,1l-1,0l-1,0c-2,0,-3,0,-4,-1c-1,0,-2,0,-2,-1c-1,0,-1,0,-1,-1c0,0,0,-1,0,-1c0,-1,0,-1,0,-2c0,0,1,-1,1,-1c0,0,0,1,0,1c0,1,0,1,0,1c0,1,0,1,0,1c0,1,1,1,1,1c1,0,1,0,1,0l0,1c1,0,1,0,2,0c0,0,1,0,3,0c0,0,1,0,1,0c1,0,1,0,2,0l1,-1c1,0,2,0,3,-1c0,0,1,0,1,-1c0,0,0,1,0,1l0,1c1,0,1,0,1,0l1,0l1,0l1,-1c0,0,0,-1,0,-1l1,0l0,1c0,0,0,1,1,1l1,0l1,0c1,0,1,0,2,0c0,0,1,0,1,-1c0,0,0,-1,0,-1l-1,0l0,-1l1,-2c0,1,0,1,0,1l0,1l1,0l0,1l0,1l0,1c0,0,-1,0,-1,0l0,1c0,0,-1,0,-1,0c-1,1,-1,1,-2,1ZM250.5,84.5c1,-1,1,-1,1,-1c1,1,1,1,1,1c0,1,0,1,0,1l0,1l-1,0l1,0l0,2l-1,-1l-1,0l0,1c0,0,-1,1,-1,1l-1,0l-1,0l1,-1l1,0l0,-1l1,0l0,-1c0,0,-1,0,-1,-1c0,0,1,0,1,-1ZM251.5,85.5l0,-1l-1,0l0,1l1,0l0,1l0,-1ZM245.5,108.5l-1,-1l1,-2l1,1ZM243.5,93.5l1,-1c0,0,1,0,1,0c1,0,1,0,1,1c1,0,1,0,1,0c0,1,0,1,-1,1c0,1,0,1,0,1c0,0,-1,0,-1,0c0,0,-1,0,-1,0l-1,0l2,0c0,-1,1,-1,1,-1l-1,0c-1,0,-1,0,-2,0l-1,0c0,0,1,-1,1,-1ZM234.5,98.5l-1,-1l-1,2l-2,-1l1,-2l2,1l1,-1l1,1ZM231.5,84.5c0,0,1,0,1,0c0,-1,0,-1,1,-1c0,1,0,1,0,1c0,1,0,1,0,1l0,1l1,0l-1,2l-1,-1l0,1c-1,0,-1,1,-1,1l-1,0l-1,0l1,-1c1,0,1,0,1,-1l1,0l0,-1l-1,0l0,-1l0,-1ZM232.5,85.5l0,-1l0,1l0,1l1,0l0,-1l-1,0ZM270.5,97.5l-1,-1l1,-1l1,1ZM268.5,104.5l1,-1c0,0,1,0,1,0c1,0,1,0,1,-1c0,0,1,0,1,0c0,0,-1,-1,-1,-1c0,0,0,-1,0,-1l0,-1c0,0,0,-1,1,-1c0,1,0,1,0,2l0,1c0,1,0,1,0,1c0,1,0,1,0,1c0,1,-1,1,-1,1c1,0,1,0,1,0l1,1l0,1l-1,0l0,1c-1,0,-1,1,-1,1c-1,1,-2,1,-3,1c-1,0,-1,1,-2,1c0,0,-1,0,-1,0c0,0,-1,0,-1,-1c-1,0,-2,0,-2,-1c0,0,-1,0,-1,-1c0,0,0,-1,0,-1c0,-1,0,-2,0,-2c1,-1,1,-2,1,-2l1,0c-1,0,-1,1,-1,2l0,1c0,1,0,2,1,2c1,0,1,1,3,1c1,0,1,0,1,0c1,0,1,-1,1,-1c1,0,2,0,3,0c0,-1,0,-1,1,-1c-1,0,-2,-1,-2,-1c-1,0,-1,0,-1,0l-1,0c0,0,0,-1,0,-1ZM269.5,89.5l0,1l1,0l0,-1c0,0,1,1,1,1c0,0,0,-1,0,-1l1,-1l0,1l0,1c0,0,0,1,-1,1c0,0,-1,0,-1,0c0,0,-1,1,-1,1c0,0,0,-1,-1,-1l0,-1l0,-1ZM272.5,110.5l-4,2c1,-1,1,-1,1,-1l4,-2ZM322.5,93.5l-1,-1l1,-1l1,0ZM326.5,102.5l0,1l-1,0c0,0,-1,1,-2,1l-1,0l-1,0l-1,0l0,-1c0,0,0,-1,0,-1c0,0,1,0,1,0l1,0c0,0,1,0,1,0c1,0,1,0,1,0c0,-1,1,-1,1,-1c0,0,1,0,1,0c0,0,0,-1,0,-1c0,-1,-1,-1,-1,-1l0,-1l-1,0l-1,-1l-1,0l1,-2l1,1c0,0,1,0,1,0c0,0,0,1,0,1c1,0,1,0,1,1c0,0,0,1,1,1c0,1,0,1,0,1l0,1l0,1l-1,0ZM321.5,84.5c0,-1,1,-1,1,-1c1,1,1,1,1,1c0,1,0,1,0,1l0,1c-1,0,-1,0,-1,0l1,0l0,2l-1,-1l-1,0l0,1c-1,0,-1,1,-1,1l-1,0c-1,0,-1,0,-1,0l1,-1l1,0l0,-1l1,0l0,-1c-1,0,-1,0,-1,-1l1,-1ZM322.5,85.5l0,-1l-1,0l0,1l1,1l0,-1ZM310.5,107.5l1,0c1,0,2,0,3,-1c0,0,1,0,1,-1c1,0,1,-1,2,-1c0,-1,0,-1,0,-1c0,-1,0,-1,0,-1c0,0,0,-1,0,-1l-1,-1l0,-1l1,-1l0,1l1,1l0,1l0,1c0,0,0,1,0,1c0,1,0,1,0,1c-1,0,-1,0,-1,0l0,1c0,0,0,1,0,1c-1,0,-1,0,-1,1c0,0,-1,0,-1,0l-1,1c-1,0,-1,0,-1,0l-1,0l-1,0c0,-1,-1,-1,-1,-1ZM313.5,92.5l0,1c1,0,1,0,1,0l1,-1c0,0,0,1,0,1l1,0l0,-1l0,-1l0,1c0,0,1,0,1,0l-1,1c0,0,0,1,0,1l-1,0l-1,0c0,0,0,1,0,1c-1,0,-1,-1,-1,-1l0,-1l0,-1ZM316.5,112.5l-4,2c0,-1,1,-1,1,-1l4,-3ZM310.5,107.5l-2,-1l-1,1l-1,-1l1,-1l1,1l1,-1l1,0ZM307.5,104.5l-1,0l-1,0l-1,0c0,0,0,-1,0,-1c-1,0,-1,0,-1,0c0,-1,0,-1,0,-1c-1,0,-2,0,-2,0c-1,1,-1,1,-1,2c1,1,1,1,2,1c0,0,1,0,1,0l1,0c0,0,0,1,0,1l0,1c0,0,-1,0,-1,0c0,1,0,1,0,1c-1,1,-2,1,-3,2c-1,0,-3,0,-4,0c-1,0,-1,0,-2,0c-1,0,-1,-1,-2,-1c0,0,0,-1,-1,-1c0,-1,0,-2,0,-2c0,-1,0,-1,0,-2c1,-1,1,-1,1,-2c0,0,1,0,1,0c0,1,0,1,-1,2c0,0,0,1,0,1c0,1,1,2,1,2c1,1,2,1,3,1l1,0c1,0,1,0,1,0c0,0,1,0,1,0c0,0,1,0,1,0l1,0c0,0,0,-1,0,-1c0,0,1,0,1,0l1,0c-1,0,-1,-1,-2,-1c-1,0,-2,0,-2,0c0,0,0,-1,0,-1c0,-1,0,-1,0,-1c0,-1,1,-2,1,-3c1,0,2,-1,3,-1l1,0l0,1c0,0,0,1,0,1c1,0,1,0,2,0l1,0c0,0,1,0,1,0c1,0,1,0,1,-1c0,0,0,-1,0,-1c0,0,0,-1,0,-1l-1,0l1,-2c0,1,1,1,1,1c0,0,0,1,0,1l0,1c0,1,0,1,0,1l0,1l-1,1l-1,0c0,1,-1,1,-1,1ZM306.5,92.5l1,0c0,1,0,1,0,1c0,0,0,-1,1,-1l0,-1l0,1c0,0,1,0,1,0l0,-1l0,-1l1,0l0,1l0,1c-1,1,-1,1,-1,1l-1,0c-1,1,-1,1,-1,1c0,0,-1,0,-1,0c0,-1,0,-1,0,-1l0,-1ZM311.5,89.5l-6,2c1,-1,1,-1,1,-1l5,-3ZM304.5,98.5l-2,-1l-1,1l-1,-1l1,-1l1,0l1,-1l2,1ZM307.5,109.5l-4,2c0,0,0,-1,0,-1l4,-2ZM343.5,94.5l-2,0l1,-2l2,1ZM344.5,100.5c0,0,0,1,0,1c-1,0,-1,0,-1,0c0,0,-1,0,-1,0c0,0,-1,0,-1,-1l0,-1l0,-1c1,-1,1,-1,1,-1c0,-1,1,-1,1,-1c1,0,1,0,1,1c1,0,1,0,1,1l0,1c0,0,0,1,0,1l1,0c0,1,0,1,0,1l0,1c-1,0,-1,0,-1,1c0,0,0,1,-1,1c1,0,1,0,1,0l1,0l0,1l0,1l0,1c0,0,-1,0,-1,0c0,0,0,1,-1,1c-1,1,-1,1,-2,1c-1,0,-2,1,-3,1c-1,0,-1,0,-2,-1c-1,0,-1,0,-1,-1c-1,0,-1,0,-1,-1c0,0,-1,-1,-1,-1c0,-1,1,-2,1,-2c0,-1,0,-2,1,-2c0,0,0,1,0,2c-1,0,-1,0,-1,1c1,1,1,2,1,2c1,0,2,1,3,1c1,0,1,0,1,0c0,0,1,0,1,0c0,0,1,-1,1,-1c1,0,1,0,2,0c0,-1,1,-1,1,-1c0,0,-1,-1,-2,-1c0,0,-1,0,-1,0l0,-1c0,0,0,-1,0,-1c1,0,1,0,2,0l1,-1c0,-1,0,-1,0,-1c0,0,0,-1,-1,-1ZM342.5,98.5c0,0,0,1,0,1l1,0l1,0l0,-1l-1,0c0,0,-1,0,-1,0ZM346.5,110.5l-4,2c0,-1,0,-1,1,-1l3,-2ZM364.5,99.5c0,0,0,-1,0,-1c0,-1,0,-2,0,-3c0,-1,0,-2,0,-3c-1,0,-1,0,-1,0c0,-1,0,-1,1,-1c0,-1,0,-1,0,-1l0,1c1,0,1,0,1,1l0,1c0,1,0,1,0,2c0,1,0,2,0,3c0,1,0,2,0,2l0,1l0,1l-1,1l0,1c0,0,-1,0,-1,0c1,0,1,0,1,0c0,0,1,0,1,0l0,1l1,0l-1,1l0,1c-1,0,-1,1,-2,1c0,1,-1,1,-2,1c-1,0,-2,1,-3,1c0,0,-1,0,-2,-1c0,0,-1,0,-1,-1c-1,0,-1,0,-1,-1c0,0,0,-1,0,-1c0,-1,0,-2,0,-2c0,-1,1,-2,1,-2c0,0,1,0,1,0c-1,0,-1,1,-1,2l0,1c0,1,0,2,1,2c0,0,1,1,2,1c1,0,1,0,1,0c0,0,1,0,1,0c1,0,1,-1,1,-1c1,0,2,0,2,0c1,-1,1,-1,1,-1c0,0,-1,-1,-1,-1c-1,0,-1,0,-1,0c-1,0,-1,0,-1,0c0,0,0,-1,0,-1l0,-1l1,0c1,-1,1,-1,1,-1c1,0,1,-1,1,-1c0,0,0,-1,0,-1l0,-1ZM367.5,112.5l-4,2c0,-1,1,-1,1,-1l4,-3ZM417.5,100.5c0,0,-1,0,-1,0c0,1,0,1,1,1l0,-1ZM417.5,107.5c0,1,-1,1,-1,1l-1,0c0,0,-1,0,-1,0l-1,0c0,0,-1,0,-1,0c0,0,-1,0,-1,0c0,-1,0,-1,0,-1c0,0,1,0,1,1l1,0c1,0,1,-1,1,-1c1,0,1,0,1,0c1,0,1,-1,1,-1c1,0,1,-1,1,-1l1,-1c0,-1,0,-1,0,-1c0,0,0,-1,0,-1l0,1l-1,0c0,0,-1,0,-1,0c0,0,0,-1,-1,-1l0,-1l0,-1c0,0,1,-1,1,-1c0,-1,0,-1,0,-1c1,0,1,0,1,0c0,0,1,0,1,0l0,1c1,0,1,0,1,1l0,1l0,1c0,1,0,1,0,1c0,1,0,2,-1,2c0,1,0,1,0,2c-1,0,-1,0,-1,0ZM414.5,94.5l4,-2l0,1l-4,2ZM401.5,100.5l-1,1l-1,1l-1,0l2,0c0,0,1,0,2,0c1,0,1,0,2,0c0,0,1,-1,1,-1l0,-1l-1,0c0,0,-1,0,-1,0c0,0,-1,0,-1,0l-1,0ZM396.5,102.5l1,0l3,-3l1,0l1,-1l1,0l1,0l1,0c0,0,1,1,1,1c0,1,0,1,0,1c0,1,0,1,0,2l-1,0c0,1,-1,1,-1,1c-1,0,-2,0,-3,1c-1,0,-2,0,-3,0l-1,0l-1,0l0,1c0,0,0,1,0,1l0,-1l0,-1c-1,0,-1,-1,-1,-1c0,0,-1,0,-1,-1c0,0,0,1,0,1c-1,0,-1,0,-1,1c0,0,-1,0,-1,0l-1,0c0,0,-1,0,-1,-1c0,0,-1,0,-1,-1c0,0,0,1,-1,1l0,1l-4,0l-1,0c0,0,-1,0,-1,-1c-1,0,-1,0,-1,0c0,-1,0,-1,0,-1l0,-1l1,-1l-1,0c0,0,-1,1,-1,1c0,0,-1,0,-1,0c-1,0,-1,1,-2,1l0,1c-1,0,-1,0,-1,0c-1,1,-1,2,-1,2c0,0,0,1,0,1c0,0,0,1,0,1c0,1,0,1,0,1c0,1,0,1,0,1c0,1,1,1,1,1c0,0,0,1,1,1c0,0,1,0,1,0c0,1,1,1,1,1c1,0,1,0,2,0l1,0l1,0c1,0,1,0,1,0l1,0l1,0l1,0l-5,2l-1,0c-1,0,-2,0,-3,-1c0,0,-1,0,-1,0c-1,0,-1,-1,-2,-1c0,0,0,-1,0,-1c-1,0,-1,0,-1,-1c0,0,0,-1,0,-2c0,-1,0,-1,0,-2c0,-1,0,-2,1,-2c0,-1,1,-2,1,-2c1,-1,2,-1,3,-2l-1,0l-1,0l-1,0l-1,0l-1,0l1,0c0,-1,0,-1,0,-1l1,-1c0,0,1,0,1,0l1,0l2,1c1,0,1,0,2,0l1,0c1,0,1,0,1,0l1,0l-1,1l-1,0l-1,0l0,1c0,0,1,0,1,0l0,1c1,0,1,0,1,0l1,0l2,0l1,0c0,0,0,-1,1,-1c0,-1,0,-1,0,-1c0,0,0,-1,0,-1l-1,-7l1,-2l1,10c0,1,0,1,0,1l0,1c0,0,1,0,1,0l1,0l1,0l1,-1c1,0,1,-1,1,-1l0,1c0,1,1,1,1,1ZM395.5,88.5c1,0,1,0,1,0c1,0,1,0,2,0c0,0,1,0,1,0c1,0,1,0,1,1c-1,0,-1,1,-1,1l-1,0c0,1,0,1,0,1c-1,0,-1,0,-1,0l-1,0l1,-1c1,0,2,0,2,-1c0,0,-1,0,-1,0l-1,0c0,0,-1,0,-1,0l-1,1l0,-1l0,-1ZM390.5,108.5l-4,1c0,0,1,0,1,-1l3,-1ZM377.5,88.5c0,0,1,0,1,0c1,0,1,0,1,0c1,0,1,0,2,0l0,1c0,0,0,1,0,1c0,0,-1,0,-1,0c0,1,0,1,0,1c0,0,-1,0,-1,0l-1,0l-1,0l2,-1c1,0,1,0,2,-1c-1,0,-1,0,-1,0c0,0,-1,0,-1,0c0,0,-1,0,-1,0c0,0,-1,0,-1,1l0,-1l0,-1ZM286.5,101.5l-1,-1l1,0ZM286.5,103.5c-1,0,-1,0,-1,0c0,0,-1,0,-1,0l-1,-1c0,0,0,-1,0,-1c0,0,0,-1,0,-1c0,0,0,-1,0,-1c0,0,1,0,1,0c0,-1,0,-1,1,-1l-1,0l-1,0c0,-1,0,-1,0,-1l1,0l1,0c0,0,1,0,1,0c1,0,1,0,1,0l0,1l-1,0l-1,0l-1,0l0,1c0,0,-1,0,-1,1c0,1,0,1,0,1c0,0,1,1,1,1c1,0,1,0,1,0l1,0l1,0l1,0ZM277.5,107.5l0,-1l0,-1l-1,-9l1,-2l1,10c0,1,0,1,-1,1l0,1c0,0,0,1,0,1ZM279.5,109.5l-4,1c0,0,0,-1,0,-1l4,-1ZM171.5,108.5l0,-1l0,-1l0,-9l1,-2l0,11l0,1c0,0,0,1,-1,1ZM173.5,110.5l-3,2c0,-1,0,-1,0,-2l4,-1ZM216.5,102.5l0,-1l0,-1l0,-9l1,-2l0,11c0,0,0,1,0,1c0,0,0,1,-1,1ZM218.5,104.5l-3,2c0,-1,0,-1,0,-1l4,-2ZM409.5,102.5l0,-1l0,-2l-1,-8l1,-3l1,11c0,0,0,1,0,1c0,0,-1,0,-1,1l0,1Z" class="g1_26" />
<path fill-rule="evenodd" d="M101.5,364.5l-4,2c0,-1,1,-1,1,-2l3,-1ZM177.5,346.5l-5,3c0,-1,0,-2,0,-2l6,-2ZM274.5,365.5l-6,3c1,-1,1,-1,1,-2l6,-2ZM378.5,351.5c0,0,1,0,1,0c1,0,1,-1,2,-1c0,0,1,1,1,1c0,0,1,0,1,0c0,0,-1,0,-1,1l0,1c0,0,-1,0,-1,0l-1,0l-1,0l-1,0l2,0c1,0,1,-1,2,-1c-1,0,-1,0,-1,0c0,0,-1,0,-1,0c0,0,-1,0,-1,0c0,0,-1,0,-1,0l0,-1ZM245.5,353.5l1,0c0,0,1,0,1,0c1,0,1,0,2,0l0,1c0,0,0,1,-1,1c0,0,0,1,-1,1c0,0,-1,0,-1,0c-1,0,-1,0,-1,0l2,-1c0,0,1,0,1,-1c-1,0,-1,0,-1,0c-1,0,-1,0,-2,0l0,-1ZM196.5,349.5l1,0c0,0,1,0,1,0c1,0,1,0,2,0c0,0,0,1,0,1l-1,1c-1,0,-1,0,-1,0c0,1,-1,1,-1,1c0,0,-1,0,-1,-1l2,0c0,0,1,-1,1,-1c-1,0,-1,0,-1,0c-1,0,-1,0,-2,0c0,-1,0,-1,0,-1ZM145.5,350.5l1,0l1,0c0,0,1,0,1,0c1,0,1,0,1,0c0,0,0,1,0,1c0,0,-1,0,-1,1c-1,0,-1,0,-1,0c-1,0,-1,0,-1,0l-1,0l1,0c1,0,2,-1,2,-1l-1,0l-1,0l-1,0l-1,0c0,-1,1,-1,1,-1ZM185.5,358.5l0,-1c1,0,1,0,1,0c0,0,0,-1,0,-1l0,-1l0,-1l0,-1l0,-1l0,-1l1,1c-1,0,-1,0,-1,1l1,1l0,1l0,1l1,0l0,-1c0,0,1,0,1,0c0,0,1,0,1,0l0,1c0,0,0,1,0,1c-1,0,-1,0,-1,0c0,1,-1,1,-1,1c-1,0,-1,0,-1,0ZM189.5,356.5c-1,0,-1,0,-1,0l-1,0l0,1l-1,0l1,0l1,0c1,0,1,0,2,-1c-1,0,-1,0,-1,0ZM76.5,362.5l-1,0c0,0,-1,0,-1,0c-1,0,-1,-1,-2,-1l-1,1c0,0,-1,0,-1,0c0,0,-1,0,-1,0c0,0,-1,0,-1,1c0,0,-1,0,-1,0l-1,0l0,1c-1,0,-1,0,-1,1c0,0,0,1,-1,1c0,0,0,1,-1,1c-1,1,-1,1,-1,1l-1,0l-1,0c0,0,-1,0,-2,0c0,-1,0,-1,0,-1l1,0c1,0,1,0,2,0c0,0,0,-1,1,-1l1,0c0,-1,0,-1,0,-1c1,0,1,-1,1,-1l1,-1c0,0,-1,0,-1,0c0,0,-1,-1,-1,-1c-1,0,-1,0,-1,-1l0,-1l0,-1l1,0l0,-1l1,0l1,0l0,1c1,0,1,1,1,1c0,0,0,1,0,1c0,0,1,0,1,0l1,0c1,0,1,0,1,0l1,0c0,0,0,-1,0,-1c0,-1,0,-1,0,-1c0,-1,0,-1,0,-1c0,-1,0,-1,1,-1l0,-1c0,0,0,-1,0,-1c1,0,1,0,1,0c0,0,0,-1,0,-1c0,1,1,1,2,2c0,0,1,0,1,1c1,0,1,1,1,1c0,1,1,1,1,1c0,0,0,1,0,1l0,1l-1,0c0,1,0,1,0,1ZM72.5,358.5c0,-1,0,0,-1,0l0,1l1,1c0,-1,0,-1,0,-1c1,0,1,0,1,0c0,-1,0,-1,-1,-1ZM74.5,358.5c0,1,0,1,0,1c0,0,0,1,-1,1l1,0l1,0l1,0l-1,0c0,-1,0,-1,0,-1c0,0,-1,0,-1,-1ZM69.5,343.5c1,-1,1,-1,1,-1c1,0,1,1,1,1c0,0,0,1,0,1c0,1,-1,1,-1,1l1,0l0,1l-1,0l-1,0l0,1c0,0,-1,0,-1,1l-1,0c0,0,-1,0,-1,0l1,-1l1,0l0,-1l1,0l0,-1c0,0,-1,0,-1,-1c0,0,1,0,1,-1ZM70.5,344.5l0,-1l-1,0l0,1l1,0ZM64.5,360.5c0,0,-1,0,-1,0c0,1,0,1,1,1l1,0l0,-1c-1,0,-1,0,-1,0ZM60.5,353.5l4,-2c0,1,0,1,0,1l-4,2ZM94.5,361.5l-1,0c0,1,0,1,0,1l1,0l0,-1ZM95.5,364.5c-1,0,-1,0,-2,0c-1,0,-1,0,-2,0c-1,0,-1,0,-1,0c0,0,-1,0,-1,0c0,0,0,-1,0,-1c0,0,0,-1,1,-1l1,0l1,0c0,0,0,-1,0,-1c0,0,1,0,1,0c0,-1,0,-1,0,-1l-1,-1l0,-1c-1,0,-1,-1,-2,-1c0,-1,0,-1,-1,-2l-1,0c0,-1,0,-1,0,-1c0,0,-1,0,-1,0l-1,0c0,0,0,-1,0,-1c0,0,-1,0,-1,-1c0,-1,0,-1,0,-1c0,0,1,0,1,-1c0,1,1,1,1,1c1,1,1,1,2,2c1,1,1,1,2,2c0,0,1,1,1,2c1,0,1,1,1,1c0,0,1,1,1,1c0,0,0,-1,0,-1c0,-1,0,-2,0,-2c0,-1,0,-2,0,-2c0,0,0,-1,0,-1c0,-1,0,-1,0,-2c0,-1,0,-1,0,-1c1,-1,1,-1,1,-1c0,0,0,1,0,1c1,0,1,0,1,0c0,1,0,1,0,1c0,1,0,1,0,1c0,0,-1,0,-1,1c0,0,0,1,0,1c0,1,0,1,0,1c0,1,0,1,0,2c0,0,0,1,0,1c-1,1,-1,1,-1,2c0,0,1,1,1,1c0,1,0,1,0,1c0,1,0,1,0,1l0,1ZM91.5,347.5c0,1,0,1,1,1c0,-1,0,-1,0,-1l0,-1l1,0l0,1c1,0,1,0,1,-1l0,-1l0,1l0,1c0,1,0,1,0,1l-1,0l-1,0c0,1,0,1,-1,1l0,-1l0,-1ZM95.5,344.5l-5,3c0,-1,0,-2,0,-2l6,-3ZM134.5,361.5l0,1l-1,0c-1,0,-1,0,-2,1l-1,0l-1,0l-1,0c0,0,0,-1,0,-1c0,-1,0,-1,0,-1c0,-1,0,-1,0,-1c0,1,0,1,1,1c1,0,1,0,2,0c0,0,1,-1,1,-1l1,0l1,0c0,-1,0,-1,-1,-1c0,-1,0,-1,0,-1l-1,-1l-1,0l0,-1l-1,0l0,-2c1,0,1,0,1,0l1,0c0,1,0,1,0,1l1,0l0,1l1,1c0,0,0,1,0,1c0,0,0,1,0,1l0,1c0,1,0,1,0,1ZM130.5,350.5l4,-3l0,1l-4,2ZM124.5,363.5l0,-2l0,-1l-1,-8l1,-3l1,11c0,0,0,1,0,1c-1,1,-1,1,-1,2ZM121.5,344.5l1,0c0,0,1,0,1,0c1,0,1,0,2,0l1,0c0,0,0,1,-1,1l-1,0l-1,0l-1,0l-1,0l-1,0c0,-1,1,-1,1,-1ZM119.5,366.5l-1,-1l1,-1l1,1ZM117.5,363.5l-1,0c-1,0,-1,0,-2,-1c-1,0,-1,-1,-1,-1c0,-1,0,-1,0,-1l-1,0c0,0,0,1,0,1l-1,0l-1,0l-1,0l-1,0l0,-2c1,0,1,0,2,-1c0,0,0,-1,1,-1c1,-1,1,-1,1,-1l0,-1l1,-1l0,1c0,1,0,1,0,1c0,1,0,1,0,2l1,2l0,1c0,0,1,0,1,0l1,0l1,0c0,0,1,0,1,0c1,0,1,-1,1,-1l1,0c0,-1,-1,-1,-1,-1l0,-1l0,-2c1,0,1,1,1,1l0,1l0,1l0,1c0,1,0,1,0,1c-1,1,-1,1,-2,1c0,0,-1,1,-1,1ZM117.5,350.5l0,1c0,0,0,1,0,1c0,0,0,-1,0,-1c0,0,1,0,1,0l0,-1l0,1c1,0,1,0,1,0l0,-1l1,-1l0,1l0,1c0,1,-1,1,-1,1c-1,0,-1,0,-1,0c-1,1,-1,1,-1,1c0,0,-1,0,-1,-1l0,-1ZM121.5,348.5l-6,2c1,-1,1,-1,1,-1l5,-3ZM112.5,353.5l-2,0l0,1l-2,-1l1,-2l2,1l0,-1l2,1ZM112.5,357.5l-1,1c-1,1,-1,1,-1,1l1,0l1,0l1,0ZM114.5,367.5l-5,2l1,-1l5,-3c-1,1,-1,2,-1,2ZM109.5,367.5l1,-1l5,-3c-1,1,-1,1,-1,2ZM158.5,362.5l-1,0c0,0,-1,0,-1,0l-1,-1c0,1,-1,1,-1,1l0,1l-1,0l-1,0l-1,0c0,1,0,1,0,1c0,1,0,2,-1,2c0,1,0,1,-1,2c0,0,-1,1,-2,1c-1,0,-1,1,-2,1c-1,0,-1,-1,-2,-1c0,0,-1,0,-1,0c-1,-1,-1,-1,-1,-2c-1,0,-1,-1,-1,-1c0,-1,0,-1,0,-1l0,-1c0,0,1,0,1,0c0,-1,0,-1,0,-1c0,-1,0,-1,0,-1c1,0,1,0,1,0c0,0,0,1,0,1c0,0,-1,0,-1,1c0,0,0,1,0,1c0,0,0,1,1,1c0,0,0,1,0,1c0,0,1,0,1,0c1,0,2,1,2,1c1,0,2,-1,3,-1c1,0,1,0,2,-1c0,-1,0,-1,0,-1c0,-1,0,-1,0,-1c0,-1,0,-1,0,-1c0,0,0,-1,0,-1c-1,0,-1,0,-1,0l1,-2c0,1,1,1,1,1l1,0l1,0c1,0,1,0,1,0l1,-1l0,-1c1,0,1,-1,1,-1l1,0c0,-1,0,-1,0,-1c1,0,1,0,1,1c0,0,1,1,1,1l0,1l0,1c0,1,0,1,-1,1ZM156.5,360.5l1,0l1,0c0,0,0,-1,0,-1c-1,0,-1,0,-1,0c0,0,-1,0,-1,0l0,1ZM157.5,366.5l-4,2c0,-1,1,-1,1,-1l4,-2ZM146.5,360.5l-2,-1l1,-1l2,1ZM179.5,362.5c0,0,-1,0,-1,0l-1,0l-1,-1l-1,0c0,1,0,1,0,1l-1,1l-1,0l-1,0c-1,0,-2,-1,-2,-1c-1,-1,-1,-1,-1,-2l-1,-8l1,-3l1,10l0,1c1,1,1,1,2,1l1,0l1,0c0,0,1,0,1,0l0,-1l1,-1c0,0,0,-1,1,-1c0,-1,1,-1,1,-1l1,1c0,0,0,1,0,1l0,1l1,0l0,1c0,0,-1,0,-1,0c0,1,0,1,0,1ZM177.5,360.5l1,0c0,0,0,-1,0,-1l-1,0l0,1ZM234.5,359.5c-1,0,-1,0,-1,0c0,1,0,1,1,1c0,-1,0,-1,0,-1ZM234.5,366.5c-1,0,-1,1,-1,1l-1,0c0,0,-1,0,-1,0l-1,0c0,0,-1,0,-1,0c-1,0,-1,0,-1,0c0,-1,0,-1,0,-1l1,0c1,0,1,0,1,0c0,0,1,0,1,0c1,0,1,0,1,0c0,-1,1,-1,1,-1c1,0,1,-1,1,-1c0,0,0,-1,1,-1c0,-1,0,-1,0,-1c0,-1,0,-1,0,-1c-1,0,-1,1,-1,1l-1,0c0,-1,-1,-1,-1,-1c0,0,0,-1,0,-1c0,0,0,-1,0,-1c0,-1,0,-1,1,-1c0,-1,0,-1,0,-1c0,0,1,0,1,0c0,0,1,0,1,0l0,1c0,0,1,0,1,0c0,1,0,1,0,1c0,1,0,1,0,2c0,0,0,1,0,1c0,1,-1,2,-1,2c0,1,0,1,-1,1c0,1,0,1,0,1ZM231.5,353.5l4,-2c0,1,0,1,-1,1l-4,2ZM220.5,366.5c1,0,1,0,1,0l1,0c1,0,2,0,3,-1c0,0,1,-1,1,-1c0,-1,1,-1,1,-2l1,0c0,-1,0,-1,0,-1c0,-1,0,-1,0,-1l-1,0l0,-1l-1,0l1,-2l1,0c0,1,0,1,0,2l0,1l0,1c0,0,0,1,0,1c0,0,0,1,0,1l0,1c0,0,-1,0,-1,1l-1,1l-1,0c0,1,-1,1,-1,1l-1,0l-1,0c0,0,0,-1,0,-1c-1,0,-1,0,-1,0ZM223.5,353.5l4,-2c0,1,0,1,0,1l-4,2ZM219.5,366.5l-1,-1l1,-1l1,1ZM217.5,363.5l-1,0l-1,0c0,0,0,-1,-1,-1l-1,-1l-2,-2c0,0,-1,0,-1,-1l-1,0l0,1l0,1l0,1l-1,1c0,0,-1,0,-1,0c0,0,-1,1,-1,1l-1,0c-1,0,-1,-1,-2,-1c-1,0,-1,1,-1,1l-1,0l-1,0c-1,0,-1,-1,-1,-1l-1,1c0,1,-1,1,-1,1c-1,1,-1,1,-2,1c-2,0,-3,0,-4,0l4,-2l2,0c0,0,1,-1,1,-1l1,-2c0,-1,0,-1,1,-1l0,-1l1,0c0,0,1,1,1,1c0,1,1,1,1,1c0,1,1,1,1,1c0,0,1,0,1,0l1,0c0,0,1,0,1,0l1,0c0,0,0,-1,0,-1c1,0,1,0,1,0c0,-1,0,-1,0,-1l-1,-1c0,-1,0,-1,-1,-1l-1,-1l-1,0c-1,0,-1,-1,-1,-1c0,-1,0,-1,0,-1l0,-1c0,0,0,-1,0,-1l1,0c0,-1,1,-1,3,-2c1,0,3,-1,4,-1c2,-1,2,-1,3,-1l1,0l-1,1c0,0,-1,0,-1,0c0,1,-1,1,-2,1c-2,1,-3,1,-4,2c-2,0,-3,1,-3,1l0,1l1,0l1,1l1,0c1,1,1,1,2,2c0,0,1,0,1,1c1,0,2,1,2,1l2,2l1,0l1,0c0,0,1,0,2,0c0,0,0,-1,1,-1c0,-1,0,-1,-1,-1l0,-1l1,-2c0,0,0,1,0,1l0,1l0,1l0,1c0,1,0,1,0,1c0,1,-1,1,-2,1c0,0,0,1,-1,1ZM215.5,351.5l0,1l1,0l0,-1l1,0l0,1c1,0,1,-1,1,-1l0,-1l0,1l0,1c0,0,0,1,0,1l-1,0l0,-1l-1,1l-1,0l0,-1l0,-1ZM219.5,369.5l-4,2c0,-1,0,-1,0,-1l4,-2ZM208.5,343.5c0,0,1,0,1,0c0,-1,0,-1,1,-1c0,0,0,1,0,1c0,0,0,1,0,1c0,1,0,1,0,1l1,0l-1,1l-1,0l-1,1l0,1l-1,0l-1,0l1,-1c0,0,1,0,1,-1l1,0l-1,-1l0,-1l0,-1ZM209.5,344.5l0,-1l0,1ZM201.5,361.5l0,-1l-1,0l-1,0c0,1,1,1,1,1l1,0ZM256.5,366.5l1,0c1,0,2,0,3,-1c0,0,1,-1,1,-1c1,-1,1,-1,1,-2c0,0,1,0,1,0c0,-1,0,-1,0,-1c0,-1,0,-1,0,-1l-1,-1l0,-2l1,0c0,1,0,1,0,2l0,1l1,0l0,1c0,0,-1,1,-1,1c0,0,0,1,0,1l0,1l-1,1l0,1c-1,0,-1,0,-1,0l-1,0c0,1,0,1,-1,1l-1,0c0,0,-1,0,-1,0c0,0,0,-1,0,-1c0,0,-1,0,-1,0ZM258.5,353.5l4,-2c0,1,0,1,0,1l-4,2ZM258.5,365.5l-2,-1l1,-2l1,1ZM251.5,363.5l0,-1l1,0c1,0,1,0,1,0c1,0,1,-1,1,-1c0,0,0,-1,0,-1c0,-1,0,-1,-1,-1l1,-1l0,-1c0,1,1,1,1,2l0,1c0,1,0,1,0,1c0,1,0,1,-1,1c0,1,0,1,0,1c0,0,1,0,1,0c0,1,0,1,0,1l0,1l0,1l-1,0c0,0,0,1,-1,1c0,0,-1,1,-2,1c-1,0,-2,1,-3,1c0,0,-1,-1,-2,-1c0,0,-1,0,-1,-1c-1,0,-1,0,-1,-1c0,0,0,-1,0,-1c0,-1,0,-1,0,-1c0,0,0,-1,0,-1c0,-1,1,-2,1,-2c0,0,0,1,0,1c0,1,-1,1,-1,2c0,0,1,0,1,0c0,1,0,1,1,2c0,0,1,1,2,1l1,0c0,0,1,0,1,0c0,-1,1,-1,1,-1c1,0,2,0,2,-1c1,0,1,0,1,0c0,-1,-1,-1,-1,-1c-1,0,-1,0,-2,0c0,-1,0,-1,0,-1ZM251.5,351.5l0,1l1,0c0,0,1,0,1,0l0,-1l0,1c1,0,1,0,1,0c0,0,0,-1,0,-1l0,-1l1,0l0,1l0,1c0,0,-1,1,-1,1l-1,0l0,-1l0,1c-1,0,-1,0,-1,0c0,0,-1,0,-1,0l0,-1l0,-1ZM255.5,369.5l-4,2c0,-1,1,-1,1,-1l3,-2ZM288.5,363.5l0,-2l0,-1l-1,-8l1,-3l1,11c0,0,0,1,0,1c-1,1,-1,1,-1,2ZM284.5,362.5c0,0,-1,0,-1,0c-1,0,-1,0,-1,0c-1,-1,-1,-1,-1,-2c0,1,-1,1,-1,2c-1,0,-1,1,-2,1c0,0,-1,-1,-1,-1c-1,-1,-1,-1,-1,-2c0,1,-1,1,-1,1c-1,0,-1,0,-2,0c0,0,-1,0,-1,0c0,0,-1,0,-1,0c0,0,0,-1,0,-1l1,-1l1,-1l1,-1l1,0l0,-1l1,-1l0,-1l0,1l0,1l1,3l0,1c0,0,1,1,1,1c1,0,1,-1,1,-1c1,0,1,0,1,-1c0,0,0,-1,0,-2c0,-1,0,-1,0,-2c0,-1,0,-1,0,-1l0,-1l0,-1l1,3l0,2l0,1c0,1,0,1,0,1l1,0c0,1,0,1,1,1l1,0l0,-1l0,-1l0,-1l-1,-1l0,-1l0,-1l0,-1l1,0l0,1c0,0,0,1,0,1l1,2c0,1,0,1,0,2c0,0,0,1,0,2c-1,0,-1,0,-1,1ZM276.5,357.5l-1,1l-1,0c-1,1,-1,1,-1,1c1,0,1,0,2,0l1,0ZM320.5,359.5c0,1,-1,1,-2,2c-1,0,-2,1,-3,1c-2,0,-3,0,-3,1l-1,0c0,0,-1,-1,-1,-1c-1,0,-1,-1,-1,-2l0,1c0,0,-1,0,-1,0l0,1c-1,0,-1,0,-1,0l-1,1c0,0,1,0,1,0c0,0,1,0,1,0l1,0c0,1,0,1,0,1l0,1l0,1c-1,0,-1,0,-1,0c0,0,0,1,-1,1c-1,0,-1,1,-2,1c-1,0,-2,1,-3,1c-1,0,-1,-1,-2,-1c-1,0,-1,0,-2,-1l0,-1c-1,0,-1,-1,-1,-1c0,-1,0,-1,0,-1c0,0,0,-1,1,-1c0,-1,0,-2,1,-2c0,0,0,1,-1,1c0,1,0,1,0,2c0,1,1,1,1,2c1,0,2,1,3,1l1,0c0,0,1,0,1,0c0,-1,1,-1,1,-1c1,0,1,0,2,-1c0,0,1,0,1,0c0,-1,-1,-1,-2,-1c0,0,-1,0,-1,0c0,-1,0,-1,0,-1c0,-1,0,-1,0,-1c1,0,1,-1,2,-1c0,0,1,0,1,0l0,-1c0,0,0,-1,0,-1l0,-1l0,-1l0,-6l1,-2l0,10c0,1,1,1,1,1c0,1,0,1,0,1c0,0,1,0,1,0l1,0c1,0,2,0,2,-1c0,0,-1,0,-1,-1c0,0,0,-1,0,-1c0,0,0,-1,0,-1c0,-1,0,-1,0,-1c0,0,1,0,1,0c0,0,0,-1,0,-1l1,0l0,-1c1,0,1,0,1,0c1,0,1,0,1,0c0,0,1,0,1,0c0,0,0,1,0,1c0,0,1,0,1,0c0,1,0,1,0,1l-1,0l-1,0l-1,0c-1,0,-1,0,-1,0c-1,0,-1,0,-1,1l0,1l1,0c0,1,1,1,2,1l1,0l1,0l0,-1l1,0l1,0ZM312.5,350.5l4,-3l0,1l-4,2ZM305.5,346.5l5,-2l-1,1l-4,2ZM369.5,354.5l-2,-1l-1,1l-1,0l1,-2l1,1l1,-1l1,1ZM366.5,363.5l-1,0l-1,0l0,1c0,0,-1,0,-1,1c0,0,0,1,-1,1c0,0,0,1,0,1c-1,0,-1,0,-1,0c0,1,-1,1,-1,1l-1,0l-1,0c0,0,-1,0,-1,0c-1,-1,-1,-1,-1,-1l1,0c1,0,1,0,2,0c0,0,1,-1,1,-1c0,0,1,0,1,0c0,-1,0,-1,1,-1c0,0,0,-1,0,-1c0,0,1,0,1,-1c-1,0,-1,0,-1,0c0,0,-1,-1,-1,-1c-1,0,-1,0,-1,-1l0,-1l0,-1c0,0,1,0,1,0l0,-1l1,0c0,0,1,0,1,0l0,1l1,0c0,0,0,1,0,1c0,0,0,1,0,1c0,0,1,0,1,0c1,0,1,0,1,0c1,0,1,0,2,0c0,0,1,-1,1,-1c0,-1,0,-1,0,-1l0,-1l-1,0l1,-2c0,0,0,1,0,1l1,0l0,1l0,1l0,1c0,1,0,1,0,1c-1,0,-1,0,-1,0c0,1,-1,1,-1,1c-1,0,-1,1,-2,1ZM366.5,346.5l5,-2l-1,1l-4,2ZM362.5,360.5l-1,0c0,1,0,1,1,1c1,0,1,0,1,0l0,-1c-1,0,-1,0,-1,0ZM358.5,353.5l4,-2c0,1,0,1,0,1l-4,2ZM357.5,350.5l-2,0c-1,1,-2,1,-3,2c-2,0,-3,1,-3,1c-1,0,-1,1,-1,1l1,0l2,1c0,1,1,1,1,2c1,0,1,1,1,1c0,1,0,1,0,2c0,0,0,1,0,1l-1,1c-1,0,-1,0,-1,0c-1,0,-1,1,-2,1c-1,0,-1,-1,-1,-1c-1,0,-1,-1,-1,-2c-1,1,-1,2,-1,2c0,0,-1,0,-1,0l0,1l-1,0l-1,-1c0,0,-1,0,-1,0l0,-1l0,1c-1,0,-1,0,-1,0c-1,0,-2,1,-3,1l-1,0c0,0,-1,0,-1,0c0,0,-1,0,-1,1l-1,0l-1,0c-1,0,-2,-1,-3,-1c-1,0,-2,0,-3,-1c0,0,0,-1,0,-1c0,-1,0,-1,-1,-1l1,-1l0,-1c0,0,0,-1,1,-1c0,0,0,1,0,1c-1,0,-1,1,-1,1c0,0,1,1,1,1c0,0,1,1,1,1c0,0,1,0,1,0c1,1,1,1,1,1c1,0,2,0,3,0c1,0,2,0,2,0c1,0,1,0,2,-1c1,0,1,0,1,0c1,0,2,0,2,-1c1,0,2,-1,2,-1l0,1l0,1c0,0,1,0,1,0c1,0,1,0,1,0c0,0,1,-1,1,-1l0,-1c0,0,0,-1,0,-1l0,-1l0,-6l1,-2l0,10c0,1,0,1,0,1c0,0,1,0,1,0c0,1,0,1,0,1l1,0l1,0c0,0,1,0,1,0c0,0,1,0,1,0c0,-1,0,-1,0,-1c1,0,1,0,1,0c0,-1,0,-1,-1,-1c0,-1,-1,-1,-1,-2c-1,0,-1,0,-1,0c0,-1,0,-1,-1,-1l-1,0c0,0,0,-1,0,-1l0,-1l0,-1c0,0,0,-1,0,-1c1,0,1,0,1,0c0,0,1,-1,3,-2c1,0,3,-1,4,-1c1,0,1,-1,2,-1ZM351.5,345.5c0,1,0,1,0,1l1,-1l0,-1l0,1c0,0,1,0,1,0l1,-1l0,-1l0,1l0,1c0,1,0,1,-1,1c0,0,-1,0,-1,0c0,1,-1,1,-1,1l-1,0c0,-1,0,-1,0,-1l0,-1l1,0ZM355.5,342.5l-6,3c1,-1,1,-2,1,-2l5,-3ZM345.5,341.5l1,0c0,0,0,-1,1,-1c0,0,1,1,1,1c1,0,1,0,1,0l0,1c0,0,-1,0,-1,1c-1,0,-1,0,-1,0c-1,0,-1,0,-1,0l-1,0l1,0c1,0,2,-1,2,-1c0,0,-1,0,-1,0l-1,0l-1,0l-1,0l0,-1l1,0ZM336.5,357.5l-1,-1l-1,1l-2,0l1,-2l2,1l1,-1l1,1ZM333.5,343.5l1,0c0,-1,0,-1,0,-1l1,0c0,0,0,1,0,1c0,0,0,1,0,1c0,1,0,1,0,1l0,1l-1,0l-1,1l-1,1l-1,0l1,-1c0,0,1,0,1,-1l1,0l-1,-1l0,-1l0,-1ZM334.5,344.5l0,-1l0,1ZM387.5,356.5l-1,-1l1,-1l1,1ZM385.5,363.5c1,0,1,-1,1,-1c1,0,1,0,2,0c0,0,0,-1,1,-1c0,0,0,-1,-1,-1c0,-1,0,-1,0,-1l0,-1c0,0,1,-1,1,-1c0,1,0,1,0,2l0,1c0,1,0,1,0,1c0,1,0,1,0,1c0,1,0,1,-1,1l1,0c0,0,1,0,1,0c0,1,0,1,0,1l0,1c-1,0,-1,0,-1,1c0,0,-1,1,-1,1c-1,0,-2,1,-3,1c0,0,-1,1,-2,1c-1,0,-1,0,-1,0c0,0,-1,-1,-1,-1c-1,0,-2,0,-2,-1c0,0,-1,0,-1,-1c0,0,0,-1,0,-1c0,-1,0,-1,0,-1c0,0,0,-1,0,-1c1,-1,1,-2,1,-2c1,0,1,0,1,0c0,0,-1,1,-1,1c0,1,0,1,0,2c0,1,0,1,1,2c1,0,2,1,3,1c1,0,1,0,1,0c1,-1,1,-1,1,-1c1,0,2,0,3,-1l1,0c-1,-1,-1,-1,-2,-1c-1,0,-1,0,-1,0c-1,-1,-1,-1,-1,-1ZM386.5,348.5l0,1l1,0l0,-1l0,-1l0,1l1,0l0,1c0,0,1,-1,1,-1l0,-1l0,1l0,1c0,0,0,1,-1,1l-1,-1l0,1c0,0,-1,0,-1,0c0,0,-1,0,-1,0l0,-1l1,-1ZM389.5,369.5l-3,2c0,-1,0,-1,0,-1l4,-2ZM355.5,385.5l0,1l-1,0c0,1,0,1,0,1l0,1c0,1,0,1,0,1l0,-1l0,-1l0,-1c0,0,0,-1,0,-1c0,0,1,0,2,-1l1,0ZM355.5,387.5c0,0,1,-1,1,-1l1,0c0,0,1,0,1,1l-1,1l0,1l1,0l0,1l-2,0c-1,1,-1,1,-1,1l-1,0l-1,0l1,0l1,-1l1,-1l-1,0c0,0,0,-1,0,-1c0,0,0,-1,0,-1ZM357.5,387.5l-1,0l0,1l1,0c0,0,0,-1,0,-1ZM234.5,399.5c0,-1,1,-1,1,-1c1,0,1,0,1,0c1,0,1,0,2,0c0,0,0,1,0,1c0,0,0,1,0,1c0,0,-1,1,-1,1c0,0,-1,0,-1,0l-1,0l-1,0l2,-1c1,0,1,0,2,0c-1,-1,-1,-1,-1,-1c0,0,-1,0,-1,0c0,0,-1,0,-1,0c0,0,-1,1,-1,1l0,-1ZM111.5,396.5c0,0,0,-1,0,-1c1,0,1,0,2,0c0,0,1,0,1,0c1,1,1,1,1,1c0,1,-1,1,-1,1c0,1,0,1,-1,1c-1,0,-1,0,-1,0l-1,0l1,0c1,-1,2,-1,2,-1c0,0,-1,0,-1,0c0,-1,0,-1,-1,-1c0,0,0,1,-1,1l-1,0c0,-1,0,-1,0,-1l1,0ZM281.5,404.5l0,-1c1,0,1,0,1,0l0,-1l0,-1l0,-1l0,-1l0,-1l0,-1l1,1c0,0,-1,1,-1,1l1,0l0,1l0,1l0,1l0,1l0,-1l1,0l0,-1c0,0,1,0,1,0c0,0,1,0,1,0c0,0,0,1,0,1l0,1c0,0,-1,1,-1,1c0,0,-1,0,-1,0c-1,0,-1,0,-1,0ZM285.5,402.5c-1,0,-1,0,-1,0l-1,1l-1,0l1,0l1,0c1,0,1,0,2,0c0,-1,0,-1,0,-1c0,0,-1,0,-1,0ZM210.5,395.5l0,-1c0,0,0,-1,0,-1c0,-1,0,-1,-1,-2l1,0l0,-1c0,0,0,1,0,1c0,1,1,1,1,1l0,1c0,0,0,1,0,1c-1,0,-1,1,-1,1ZM176.5,401.5c0,-1,0,-1,0,-2c0,0,0,-1,-1,-1l1,-1l0,1c0,0,1,0,1,1l0,1l-1,1ZM377.5,393.5c0,-1,0,-1,0,-2c0,-1,0,-1,0,-2l0,-1c1,1,1,1,1,1c0,1,0,1,0,1l0,1l0,1c0,1,0,1,-1,1ZM99.5,406.5c0,1,0,2,0,3l-1,0l0,1l1,1l-1,0l0,1l-1,0l0,1l-1,0c0,0,0,1,-1,1l-1,0l-1,0l-1,1l-1,1l-1,1l-3,0l-3,0l-1,-1l0,-1c-1,0,-1,0,-1,0c-1,-1,-2,-1,-3,-1l0,-1l-1,0l-1,0l0,-1l-1,0l0,-1l-1,0l2,-1l-1,0l0,-1l-1,0l0,-1c0,-1,0,-1,0,-1l0,-1l0,-1c0,0,0,-1,1,-1c0,-1,0,-1,0,-1l0,-1l-1,0c0,0,1,0,1,-1l1,0l0,-1l1,0l0,-1l1,0l1,0l2,-1l1,-1c1,-1,1,-1,1,-1l3,0l3,0l1,1l1,1l2,1l1,0c0,0,1,0,1,1l1,0l0,1c1,0,1,0,2,1l-1,0l0,1l0,1l1,0l0,1l0,1ZM90.5,417.5l0,-1l1,0l0,-1l1,-1c1,0,1,0,2,0l1,0c0,-1,1,-1,1,-1l1,-1l1,-1l-1,0l0,-1l1,0l0,-1l1,-1l0,-1l0,-1c0,0,0,-1,-1,-2l0,-1l-1,0l0,-1l1,0c0,-1,0,-1,-1,-1l0,-1l-1,0l-1,-1l-1,0l-2,-1l-1,-1l-1,0c0,-1,0,-1,0,-1l-1,0l-2,0l-1,0l-2,0l-1,1l0,1c-1,0,-1,0,-1,0l-2,1l-1,0l0,1l-1,0l-1,0l0,1c0,0,-1,0,-1,1l1,0l-1,1l0,1l0,1l-1,0l0,1l0,1l0,1l1,0l0,1l0,1l1,0l0,1l-1,0l0,1l1,0l1,0l0,1l1,0l0,1l1,0l1,0l1,0c0,1,0,1,1,1l0,1l1,0c0,0,0,1,0,1l3,0ZM96.5,402.5l-1,0l0,-1l-1,0l-1,0c0,-1,-1,-1,-1,-1c0,0,1,0,1,0l-1,0c0,0,1,0,1,0l1,0c0,0,1,0,1,1l1,0ZM96.5,411.5l0,1l-1,0l-1,1l-1,0l-1,0l1,0l-1,0c1,0,1,-1,1,-1l1,0c1,0,1,-1,1,-1l1,0ZM91.5,413.5c0,1,0,1,0,1c0,1,-1,1,-1,1l-3,0l-3,0c0,0,-1,0,-1,-1l0,-1c0,-1,0,-1,1,-1l3,0l3,0l1,0l0,1ZM91.5,400.5c0,0,0,1,-1,1l-3,0l-3,0c0,0,-1,0,-1,-1c0,-1,0,-1,0,-1l0,-1l1,0l3,0l3,0c0,0,1,0,1,1ZM90.5,402.5l1,0l1,0c0,0,1,0,1,0l1,1l2,0l0,1l1,1l0,1l0,1c0,1,0,1,0,1l-1,1l0,1l-2,0l0,1c0,0,-1,0,-1,0l-1,0l-1,0c0,0,-1,0,-1,0l-3,0l-3,0l-1,0l-1,0c0,0,-1,0,-1,0c0,0,-1,0,-1,-1l-1,0l-1,0l0,-2l-1,0l0,-1l0,-1c0,-1,0,-1,1,-1l0,-1l0,-1c0,0,1,0,1,0l1,0l1,-1c1,0,1,0,1,0c1,0,1,0,1,0l1,0l3,0ZM90.5,410.5l0,1l1,0l1,0l1,0l0,-1l1,0c0,0,0,-1,0,-1l1,1l1,-1l0,-1l0,-1l1,0l0,-1c0,0,-1,-1,-1,-1c0,-1,0,-1,0,-1c0,-1,0,-1,-1,-1l-1,0l-1,-1l-1,0c-1,0,-1,0,-1,0l-1,0l-3,0l-3,0l-1,0l-1,0c-1,0,-1,0,-1,0l0,1l-1,0l-1,0l-1,1l0,1l0,1l0,1l0,1c0,1,0,2,1,2l1,-1c0,0,0,1,0,1l1,0l0,1l1,0c1,0,1,0,1,0c0,0,1,0,1,0l0,-1l3,0l3,0ZM87.5,405.5l1,0l1,0l0,1l0,1c0,0,1,1,1,1l-1,1l0,-1l0,-1l0,-1l-1,0c0,0,-1,0,-1,0l0,-1ZM86.5,406.5l1,1l0,1l-1,1l-1,0l-1,0c0,0,0,-1,0,-1l0,-1c1,0,1,0,1,0l0,-1l1,0ZM86.5,407.5c-1,0,-1,0,-1,0l0,1l1,0c0,0,0,-1,0,-1ZM78.5,402.5l1,-1l1,-1l1,0l1,0c-1,0,-1,1,-1,1c0,0,-1,0,-1,0l-1,1l-1,0ZM78.5,411.5l1,0c0,0,1,1,1,1l1,0l1,1l-1,0c-1,0,-2,0,-2,-1l-1,0l0,-1ZM151.5,408.5c0,1,0,1,-1,1l0,-1l-1,0l-1,-1l-1,1c0,0,0,1,0,1l-1,0l-1,0l-1,0l-1,-1c0,-1,0,-1,0,-1l-1,0c0,1,0,1,0,1c-1,1,-1,1,-2,1c0,0,-1,-1,-1,-2l0,1c-1,1,-1,1,-2,1c-1,0,-1,-1,-2,-2c0,1,0,1,0,1c-1,1,-2,1,-2,1l-1,0l-1,0c0,0,-1,0,-1,0l-1,0l0,-1c0,0,-1,0,-1,0c-1,0,-1,1,-2,1l-1,0l-1,0l-1,0c-1,0,-1,0,-2,0l-1,-1c0,0,-1,1,-1,1c-1,0,-2,0,-2,0l-1,0c0,0,-1,0,-1,0c0,-1,-1,-1,-1,-1c0,-1,0,-1,0,-1c0,0,-1,0,-1,-1c0,0,0,-1,0,-1c-1,0,-1,0,-1,0c-1,0,-1,0,-1,0c-1,0,-1,0,-1,1l1,0c0,1,0,1,1,1l0,1c0,0,0,1,0,1l-1,1l-1,-1c-1,0,-1,0,-1,1c-2,0,-2,0,-3,1l0,1l0,2c1,1,1,2,1,3c0,1,0,2,0,2l0,1l0,-1c0,0,0,-1,-1,-2c0,0,0,-1,0,-3c0,-1,-1,-1,-1,-1l0,-1c1,-1,1,-2,1,-2c0,0,0,-1,1,-1c0,-1,0,-1,1,-1c0,0,1,0,1,0l0,-1l-1,0c-1,0,-1,1,-1,1c0,0,0,-1,0,-1l0,-1c1,0,1,0,1,0l0,-1c1,0,1,0,1,0c1,0,1,-1,1,-1l1,0c1,0,1,0,1,0c1,0,1,0,1,0c0,0,1,0,1,0c0,0,0,1,0,1c0,0,0,1,0,1c0,0,1,0,1,1c0,0,1,0,1,0l1,0c1,0,1,0,1,0c0,0,1,0,1,0l0,-1c0,0,-1,0,-1,0c0,-1,1,-1,1,-2c0,0,0,-1,0,-1c1,0,1,0,1,-1c1,0,1,0,2,0l1,0c0,1,0,1,0,2l0,1c0,0,0,1,0,1c0,1,-1,1,-1,1l1,0c0,0,1,0,1,0l1,0c1,0,1,0,1,0c1,0,1,0,2,0l0,-1c0,0,1,0,1,0l0,1c0,0,1,0,1,0c0,0,1,0,1,0l1,0l1,0l1,0c1,0,1,-1,2,-2l0,1c0,1,0,1,1,1c0,0,1,0,1,0c1,0,1,-1,1,-1l1,-1c0,1,0,1,0,1c0,1,1,1,1,1l1,0c0,-1,0,-1,0,-1c0,0,1,0,1,-1c0,2,1,2,2,2l1,0c0,0,1,0,1,0l1,-1c0,-1,1,-1,1,-2c0,0,1,0,1,0c0,0,1,0,1,0c0,1,0,1,0,1l1,1l0,1l-1,1ZM149.5,406.5l1,0l0,1c0,0,0,-1,0,-1c0,-1,0,-1,0,-1c-1,0,-1,0,-1,1ZM147.5,398.5c0,1,0,1,0,1c1,0,1,0,1,0c0,0,0,-1,0,-1l0,-1l1,0l0,1c0,0,1,0,1,-1l0,-1l0,1l0,1c0,1,0,1,0,1l-1,0l-1,0c0,1,-1,1,-1,1c0,-1,0,-1,0,-1l0,-1ZM148.5,392.5c0,0,1,0,1,0c0,-1,0,-1,1,-1c0,1,0,1,0,1c0,1,0,1,0,1l0,1l0,1l-1,0l0,1c-1,0,-1,0,-1,1c-1,0,-1,0,-2,0c1,-1,2,-2,3,-2l0,-1l-1,0l0,-1ZM149.5,393.5l0,-1c0,0,0,1,0,1l0,1l1,0l0,-1c0,0,-1,0,-1,0ZM136.5,398.5c0,0,1,0,1,0c0,0,1,0,1,0c1,0,1,0,2,0c0,0,0,1,0,1l0,1c-1,0,-1,0,-1,0c0,0,-1,0,-1,0c0,0,0,1,-1,1c0,0,-1,-1,-1,-1l2,0c1,0,1,-1,2,-1c-1,0,-1,0,-1,0c-1,0,-1,0,-1,0c-1,0,-1,0,-1,0c-1,0,-1,0,-1,0c0,-1,0,-1,0,-1ZM129.5,404.5l-1,-1l-1,1l-1,-1l1,-1l1,1l1,-2l1,1ZM126.5,396.5l4,-2l0,1l-4,2ZM122.5,401.5l-2,-1l-1,1l-1,-1l1,-1l1,1l1,-2l2,1ZM121.5,404.5c0,0,-1,0,-1,0c0,0,-1,0,-1,1l1,0c0,1,0,1,1,1l1,0c0,0,0,-1,0,-1c0,0,0,-1,0,-1c0,0,-1,0,-1,0ZM123.5,415.5l-4,2c0,-1,0,-1,1,-1l4,-2ZM116.5,412.5l-2,-1l-1,2l-1,-1l1,-2l1,1l1,-1l2,1ZM103.5,425.5l5,-2c0,1,-1,1,-1,1l-5,2ZM105.5,422.5l5,-2c-1,0,-1,1,-1,1l-5,2ZM183.5,409.5c-1,0,-1,0,-1,0c0,-1,0,-1,0,-1c0,-1,-1,-1,-1,-1l0,-1c0,0,-1,1,-1,1l-1,0l-1,0l0,1l0,1c0,1,0,1,0,1c-1,1,-1,1,-1,2l-1,0l0,1l-1,0c-1,0,-1,1,-1,1c0,0,-1,0,-1,0l-1,0c0,-1,0,-1,-1,-1c-1,0,-1,0,-1,0c1,0,1,0,1,0l1,0l1,0c0,-1,1,-1,1,-1c1,0,1,-1,1,-1c1,0,1,-1,1,-1c1,-1,1,-1,1,-2c0,0,1,0,1,0l0,-1l-1,0l0,-2l1,0l1,0l1,0c1,0,1,0,1,-1l1,0l0,1l0,1c0,1,1,1,1,1c0,0,1,0,1,0l1,0l2,-2l1,-1c0,0,1,0,1,0c0,0,1,-1,1,-1c0,0,1,0,1,0c0,0,1,0,1,0l1,1l1,1l0,1c0,0,-1,1,-1,1c-1,1,-1,1,-2,1c-1,1,-1,1,-3,1c-1,0,-2,0,-2,0l-1,0l-1,0l0,1c0,1,0,1,0,1c0,0,-1,0,-1,0l0,-1l0,-1ZM189.5,405.5c-1,0,-1,0,-1,1l-1,0l-1,1l-1,1l2,0c1,0,2,-1,2,-1c1,0,2,0,2,0c1,0,1,0,2,-1l-1,0l0,-1c-1,0,-1,0,-1,0c-1,0,-1,0,-2,0ZM188.5,412.5l-4,2c0,-1,0,-1,0,-1l4,-2ZM169.5,405.5c0,0,0,1,0,1l-1,1c0,0,-1,1,-2,1c0,1,-1,1,-2,1c-1,0,-2,0,-3,0c-1,0,-2,0,-2,0c0,0,-1,0,-1,0c-1,0,-2,0,-2,-1c0,0,-1,0,-1,-1l2,0l1,0l1,0c1,0,1,0,1,0c1,-1,1,-1,1,-2l0,-1l0,-1l0,-1l-1,-3l0,-2c0,0,0,-1,0,-1l1,0l0,-1l1,2c-1,1,-1,1,-1,2l0,1l1,2l0,1l0,1l0,1l-1,1l2,-1l1,-1c1,-1,1,-1,2,-1l1,0c0,0,1,0,1,0c1,1,1,1,1,2ZM168.5,406.5c0,0,0,-1,-1,-1c0,0,-1,0,-1,0c-1,0,-1,0,-2,0l-1,1l-1,0l-1,1l1,0c1,0,1,0,2,0l1,0c1,0,2,-1,3,-1ZM158.5,417.5l5,-2l0,1l-5,3ZM160.5,414.5l5,-2c0,0,-1,1,-1,1l-4,2ZM225.5,406.5c0,0,-1,0,-2,1c-1,1,-2,1,-4,1c-1,1,-2,1,-3,1c-1,0,-1,0,-1,0c-1,-1,-1,-1,-1,-2l-1,0l0,1c-1,1,-1,1,-1,1c0,0,-1,0,-1,0c0,0,1,0,1,0c0,0,1,0,1,0l0,1c1,0,1,0,1,0c0,1,0,1,0,1c0,1,0,1,-1,1c0,1,-1,1,-1,1c-1,1,-2,1,-2,1c-1,1,-2,1,-3,1c-1,0,-1,0,-2,0c-1,-1,-1,-1,-2,-1c0,-1,0,-1,-1,-1c0,-1,0,-1,0,-2c0,-1,0,-1,1,-2c0,-1,0,-1,1,-2c0,1,-1,1,-1,2c0,0,0,1,0,1l0,1c0,0,1,1,1,1c1,1,2,1,3,1c1,0,1,0,2,0l1,0c0,0,1,-1,2,-1c0,0,0,-1,1,-1c-1,0,-1,0,-2,0c0,0,-1,-1,-1,-1c0,-1,0,-1,0,-1c0,-1,0,-1,0,-1c1,0,1,0,1,0c1,0,1,0,1,-1c1,0,1,0,1,0l0,-1c0,-1,0,-1,0,-1c0,0,0,-1,0,-1l0,-7l1,-2l0,11l1,0c0,0,0,1,0,1c0,0,1,0,1,0l1,0c1,0,1,0,2,0c-1,-1,-1,-1,-1,-1c0,-1,0,-1,0,-2c0,-1,0,-1,0,-1l0,-1c1,0,1,0,1,0c0,0,0,-1,0,-1c1,0,1,0,1,0c1,0,1,0,1,0c0,0,1,0,1,0l1,0l1,1l-1,0l-1,0l-1,0c-1,0,-1,0,-1,0l0,1c-1,0,-1,0,-1,0c0,0,0,1,0,1l1,1c0,0,1,1,1,1c1,0,1,0,1,0l1,0c0,-1,0,-1,0,-1l1,0l1,0l1,-1ZM217.5,396.5l4,-2l0,1l-4,2ZM246.5,412.5c0,0,1,0,1,0l1,0c0,0,1,0,2,-1c1,0,1,0,1,-1c1,0,1,-1,2,-1c0,0,0,-1,0,-1c0,0,0,-1,0,-1l0,-1l-1,-1l0,-1l1,-1l0,1c0,0,1,1,1,1l0,1l0,1c0,1,0,1,0,2c0,1,-1,1,-1,1c0,1,0,1,0,1c0,0,-1,1,-1,1l-1,1c-1,0,-1,0,-1,0c-1,0,-1,0,-1,0l-1,0c-1,0,-1,0,-1,0l-1,-1ZM249.5,399.5l4,-2l0,1c-1,0,-1,0,-1,0l-4,2ZM248.5,411.5l-2,-1l1,-1l2,1ZM241.5,409.5l1,-1l1,0c1,0,1,0,1,0l0,-1l0,-1l-1,-1c0,0,1,0,1,0l0,-1c1,0,1,0,1,1c0,0,0,1,0,1c0,0,0,1,0,1l0,1l0,1c-1,0,-1,0,-1,0c0,0,1,0,1,1c0,1,0,1,0,1c0,1,0,1,0,1c-1,1,-1,1,-2,1c0,1,-1,1,-2,1c-1,1,-2,1,-3,1c0,0,-1,0,-2,0c0,-1,-1,-1,-1,-1c-1,-1,-1,-1,-1,-1c0,-1,0,-1,0,-2c0,-1,0,-1,0,-2c0,-1,1,-1,1,-2l1,0c-1,1,-1,1,-1,2c0,0,0,1,0,1l0,1c0,0,0,1,1,1c0,1,1,1,2,1c0,0,1,0,1,0c0,0,1,0,1,0c1,0,1,0,1,0c1,0,2,-1,2,-1c1,0,1,-1,1,-1c0,0,-1,0,-1,0c-1,0,-1,-1,-2,-1l0,-1ZM242.5,398.5c0,1,0,1,0,1c1,-1,1,-1,1,-1l0,-1l0,1l1,0l0,-1l1,-1l0,1l0,1c0,1,-1,1,-1,1c-1,0,-1,0,-1,0c-1,1,-1,1,-1,1c0,0,-1,0,-1,0c0,0,0,-1,0,-1l0,-1ZM245.5,415.5l-4,2c1,-1,1,-1,1,-1l3,-2ZM266.5,403.5l-1,-1l1,-2l1,1ZM266.5,412.5c-1,0,-1,0,-2,0c0,0,-1,0,-1,-1c0,0,-1,0,-1,-1c0,0,-1,-1,-1,-2c0,0,1,0,1,-1c0,0,0,-1,0,-1c0,0,0,-1,0,-1c0,0,1,0,1,0l0,-1l0,1l0,1c0,0,0,1,-1,1c0,1,0,1,0,1c0,0,1,0,1,1c1,1,1,1,1,1c1,0,2,0,2,0c1,0,2,0,2,0c1,0,2,-1,2,-1c0,0,0,-1,0,-1c0,0,1,0,1,0c0,-1,0,-1,0,-1c-1,0,-1,0,-1,0c0,-1,0,-1,0,-1l0,-1l0,-1l-1,0l0,-1l1,-2c0,0,0,1,0,1c0,1,1,1,1,1c0,0,0,1,0,1l0,1l0,1c0,0,0,1,0,1c0,1,0,1,0,2c0,1,-1,1,-1,2c-1,0,-1,0,-2,1c-1,0,-1,0,-2,0ZM263.5,395.5c0,1,0,1,0,1c0,0,1,0,1,-1l0,-1l1,0l0,1c0,0,1,0,1,-1l0,-1l0,1l0,1c0,1,0,1,-1,1l-1,0c0,1,-1,1,-1,1c0,-1,-1,-1,-1,-1l0,-1l1,0ZM267.5,392.5l-6,3c1,-1,1,-2,1,-2l5,-3ZM343.5,413.5l-1,-1l1,-2l1,1ZM341.5,409.5l-1,0l-1,0c-1,0,-1,0,-1,0c0,0,-1,0,-1,0c0,0,0,-1,0,-1l-1,0c0,0,-1,0,-1,0c0,0,0,1,-1,1l-1,0l-1,0l-1,0c-1,0,-1,0,-2,-1c0,0,0,-1,0,-2l-1,-8l1,-2l1,10l0,1c0,0,1,0,1,0l1,0l1,0c0,0,1,0,1,0c0,0,1,0,2,0c0,0,0,-1,0,-1l1,0l0,1l1,0l1,0l1,0l1,0c0,0,1,0,1,0c1,0,1,0,1,0c0,0,0,-1,0,-1l0,-1l-1,-1l1,-1l1,0l0,1l0,1l0,1c0,0,0,1,0,1c0,1,0,1,-1,1c0,0,0,1,-1,1c0,0,-1,0,-1,0ZM342.5,415.5l-4,2c1,-1,1,-1,1,-1l4,-2ZM336.5,405.5l-2,-1l1,-2l2,1ZM334.5,399.5l4,-2l-1,1l-4,2ZM320.5,405.5c0,0,-1,0,-1,1l-1,0l-1,1l-1,1l2,0c1,0,2,-1,3,-1c0,0,1,0,1,0c1,0,1,0,2,-1l-1,0l0,-1c-1,0,-1,0,-1,0c-1,0,-1,0,-2,0ZM315.5,407.5l1,0l2,-2l1,-1c0,0,1,0,1,0c0,0,1,-1,1,-1c0,0,1,0,1,0c0,0,1,0,1,0l1,1l1,1l0,1c0,0,0,1,-1,1c-1,1,-1,1,-2,1c0,1,-1,1,-3,1c-1,0,-2,0,-2,0l-1,0l-1,0l0,1c0,1,0,1,0,1c0,0,-1,0,-1,0l0,-1l0,-1l-1,-1l0,-1c0,1,0,1,-1,1l0,1l-1,0l-1,0c-1,0,-1,0,-1,0c-1,0,-1,0,-1,-1c0,0,-1,0,-1,-1c0,1,0,1,-1,2c0,0,-1,0,-1,0l-1,0l-1,0c0,0,-1,0,-1,0c0,0,0,-1,0,-1l-1,0l-1,0c0,1,0,1,0,1l-1,0c0,0,0,1,0,1l0,1c0,0,0,1,0,1l1,1l-1,1c0,0,0,1,-1,1c0,0,0,-1,0,-1l-1,-1c0,-1,0,-2,0,-2c0,-1,0,-2,0,-2c0,0,-1,0,-1,0l-1,0l-1,0c-1,0,-2,0,-2,-1c-1,0,-1,-1,-1,-2l-1,-8l1,-2l1,10l0,1c1,0,1,0,2,0l1,0l1,0c0,0,1,0,2,0l1,0l0,-1c0,0,0,1,0,1l0,1c-1,0,-1,1,-1,2c0,1,0,2,0,2c0,0,0,-1,0,-1c0,0,0,-1,0,-1c0,0,1,0,1,0l-1,0c0,-1,0,-1,1,-1l0,-1l1,0c0,-1,0,-1,0,-1l1,0l0,-1l1,0l0,1l1,0l1,0l1,0l1,0l1,0l0,-1l0,-1l1,0l0,1c0,1,0,1,1,1l1,0l1,0l1,0l1,0l0,-1l0,-1l1,1c0,0,0,1,0,1ZM315.5,412.5l-4,2c0,0,0,-1,0,-1l4,-2ZM309.5,412.5l-2,-1l-1,2l-1,-1l1,-2l1,1l1,-1l2,1ZM305.5,399.5l5,-2l-1,1l-4,2ZM303.5,404.5l-2,-1l-1,1l-1,-1l1,-1l1,1l1,-1l1,1ZM306.5,415.5l-4,2c0,-1,0,-1,0,-1l5,-2ZM293.5,399.5l5,-2l-1,1l-4,2ZM378.5,410.5l0,-1l0,-1l-1,-9l1,-2l1,11c0,1,-1,1,-1,1c0,1,0,1,0,1ZM366.5,403.5l-2,-1l1,-1l1,1ZM374.5,406.5l-1,1l-1,0l0,1l-1,0c-1,0,-1,0,-1,0l-1,0l-1,1l-2,1l-1,0l-1,0l-1,0l-1,0l-1,0l-1,0l0,-1l-1,0c0,0,0,-1,0,-1l0,1c-1,0,-1,0,-1,0c-1,1,-1,1,-2,1l-1,0l-1,0c-1,0,-1,0,-1,0c0,-1,-1,-1,-1,-1l0,-1c0,0,0,-1,1,-1l0,1l1,0l1,0l1,0l1,0l1,0l0,-1l1,0c0,0,0,-1,0,-1l-1,-2l0,-1l0,-1l1,-1l0,1c0,1,0,1,0,2l1,2c0,1,0,1,0,1c0,1,0,1,0,1c0,0,1,0,1,0l2,0c0,0,0,-1,0,-1l0,-1c0,0,1,-1,1,-1l1,0c0,-1,0,-1,1,-1l1,0c0,0,1,0,1,1l2,0l1,1l2,0l1,0ZM369.5,407.5l-1,-1c0,0,-1,0,-1,0c0,0,-1,0,-1,0l-1,0c0,0,-1,0,-1,1c0,0,-1,1,-1,1l1,0l1,0l1,0l1,-1l1,0ZM367.5,413.5l-4,2c0,0,1,-1,1,-1l4,-2ZM357.5,399.5l-1,-1l1,-2l1,1ZM355.5,395.5l0,1l-1,0c-1,0,-1,0,-1,0c0,1,0,1,0,1l0,4l0,1l0,-1l0,-1l-1,-2l0,-1l0,-1l1,0l0,-1l1,0c-1,0,-1,0,-1,0l0,-1l1,0l1,0c0,1,0,1,0,1ZM273.5,410.5l0,-2l0,-1l0,-8l1,-3l0,11l0,1c0,1,0,1,-1,2ZM275.5,411.5l-3,2c0,-1,0,-1,0,-1l4,-2ZM279.5,346.5c0,-1,0,-1,0,-1c0,-1,0,-1,-1,-2l1,0l0,1l0,1c0,0,0,1,0,1ZM278.5,348.5l0,1l1,0c0,0,0,-1,0,-1l0,-1l1,0l0,1c0,0,1,0,1,0l0,-1l0,1l0,1l-1,0l-1,0c0,1,0,1,-1,1c0,0,0,-1,0,-1l0,-1ZM394.5,365.5l0,-1l0,-1l-1,-8l1,-3l1,11c-1,1,-1,1,-1,1c0,1,0,1,0,1ZM396.5,367.5l-4,2c0,-1,0,-1,0,-1l4,-2ZM99.5,362.5l0,-1l0,-1l-1,-9l1,-2l1,11c0,0,0,1,0,1c-1,0,-1,1,-1,1Z" class="g1_26" />
</svg>