<?xml version="1.0" encoding="UTF-8" standalone="no"?>
<!DOCTYPE svg PUBLIC "-//W3C//DTD SVG 1.1//EN"
"http://www.w3.org/Graphics/SVG/1.1/DTD/svg11.dtd">
<svg version="1.1" xmlns="http://www.w3.org/2000/svg" xmlns:xlink="http://www.w3.org/1999/xlink">
<defs>
<style type="text/css"><![CDATA[
.g2_16{
stroke: #1F1A17;
stroke-width: 1;
stroke-linecap: butt;
stroke-linejoin: miter;
}
.g1_16{
fill: #1F1A17;
stroke: #1F1A17;
stroke-width: 1;
stroke-linecap: butt;
stroke-linejoin: miter;
}
]]></style>
</defs>
<path fill-rule="evenodd" d="M213.5,65.5l0,-1l1,0c1,0,1,-1,1,-1l0,-1l0,-1l-1,-1l0,-1c0,0,0,-1,0,-1l1,0l0,1l0,1l0,1l0,1l0,1l1,0l0,-1c1,0,1,0,1,0l1,0c1,0,1,0,1,1c0,0,0,1,-1,1c-1,0,-1,1,-2,1l-1,0ZM71.5,66.5c0,1,0,2,0,2c0,0,0,1,0,1l-1,1l1,1l-1,0l0,1l-1,0l0,1l-1,0l-1,1l-1,0l-1,0c0,0,-1,0,-1,0l0,1l-1,1c-1,0,-1,1,-1,1l-3,0l-3,0l-1,0c-1,-1,-1,-1,-1,-1l-1,-1c0,0,0,-1,-1,-1c-1,0,-1,0,-2,0l0,-1l-1,0l-1,0l0,-1l-1,-1l-1,0l1,-1l0,-1l-1,0l0,-1l0,-1l0,-1l0,-1c0,-1,0,-1,0,-2c0,0,1,0,1,0l0,-1l-1,0c0,-1,0,-1,0,-1l1,0l1,-1l1,-1l1,0l1,-1l1,0c0,0,1,0,1,0l0,-1l1,-1l1,0l1,0l3,0l3,0l1,0l0,1l1,0l1,1l1,0l1,1c1,0,1,0,1,0l1,1c1,1,2,1,2,1l0,1l-1,0l0,1l1,0l0,1l0,1ZM62.5,76.5l1,0l0,-1l1,0l1,-1l1,0l1,-1c0,0,1,0,1,0l0,-1l1,0l1,-1l1,0l-2,-1l1,0l0,-1l1,-1l0,-1l0,-1c0,-1,0,-2,0,-2l-1,-1l0,-1l-1,0l1,0l1,-1c-1,0,-1,0,-2,-1l-1,0l0,-1l-1,0l-1,0l-2,-1l-1,-1l0,-1c-1,0,-1,0,-1,0l-1,0l-2,0l-1,0l-2,0l-1,0l-1,0l0,1l-1,1l-2,1l-1,0l-1,0l0,1l-1,0c-1,1,-1,1,-2,1l2,1l-1,1l-1,1l0,1c0,0,0,1,0,1l0,1l0,1l1,1l0,1l1,0l-2,1l1,0l1,1l1,1l1,0l1,1l1,0c1,0,1,0,1,1l1,0l0,1c0,0,1,0,1,0l1,0l3,0ZM68.5,61.5l0,1l-1,0l0,-1l-1,0l0,-1l-1,0l-1,0c1,0,1,0,1,0l0,-1l1,1c1,0,1,0,1,0l0,1l1,0ZM68.5,71.5l0,1l-1,0l-1,1l-1,0c0,-1,0,-1,0,-1l1,0c1,-1,1,-1,1,-1l1,0ZM64.5,73.5c0,0,-1,1,-1,1l-1,0l-3,0l-3,0l-1,0c-1,0,-1,0,-1,0c-1,-1,-1,-1,-1,-1c0,0,1,-1,1,-1l1,0l1,0l3,0l3,0c0,0,1,0,1,0l0,1l1,0ZM64.5,59.5c0,0,-1,1,-1,1l-1,0l-3,0l-3,0l-1,0c-1,0,-1,0,-1,0l-1,-1c0,0,1,0,1,-1l1,0l1,0l3,0l3,0c1,0,1,0,1,0c0,0,0,1,0,1l1,0ZM62.5,62.5c0,0,1,0,1,0l0,-1c0,0,1,0,1,0c0,0,1,0,1,1c0,0,1,0,1,0l1,1l1,-1c0,0,0,1,0,1l0,1l1,0l0,1l0,1l0,1l0,1l-1,1c0,0,0,1,0,1l-1,-1c0,0,-1,1,-1,1l-1,1l-1,0l-1,0l-1,-1l-3,0l-3,0l-1,0l-1,1l-1,0c0,0,-1,0,-1,0c-1,0,-1,-1,-1,-1l-1,-1l-1,1l0,-1l-1,-1l0,-1l0,-1c0,0,0,-1,0,-1l0,-1l1,0l0,-1c0,0,0,-1,0,-1l1,1c1,0,1,0,1,-1l1,0c0,-1,1,-1,1,-1c0,0,1,0,1,0l0,1l1,0l1,0l3,0ZM62.5,70.5l1,0l0,1l1,0c1,0,1,0,1,0l0,-1l1,0l0,-1l1,0l1,0l0,-1l1,0l0,-1l0,-1c0,0,0,-1,0,-1c-1,-1,-1,-1,-1,-2l-1,0c-1,0,-1,0,-1,0l0,-1l-1,0l-1,-1c0,0,-1,1,-1,1l-1,0l-3,0l-3,0l-1,0l-1,0l-1,-1l-1,1l-1,0l0,1c0,0,-1,0,-1,0l-1,0l0,1l-1,1l0,1c0,1,0,1,0,1l0,1l1,0c0,1,0,1,0,1l1,0c0,0,1,0,1,1l1,0l0,1l1,0c0,0,1,0,1,0c0,-1,0,-1,1,-1l1,0l3,0l3,0ZM61.5,65.5c0,0,-1,0,-1,0l0,1c1,0,1,0,1,0l0,1l-1,0l0,1l1,0l1,0c-1,1,-1,1,-2,1c0,0,0,-1,0,-1l0,-1l0,-1l-1,0l1,0c0,-1,0,-1,0,-1c0,0,0,-1,1,-1ZM57.5,64.5c1,0,1,0,1,0l0,1l0,1c0,1,0,1,0,1l1,0l0,1l-1,1c0,0,0,-1,0,-3c0,0,-1,0,-1,0l-1,0c0,-1,0,-1,0,-1l1,0c0,-1,0,-1,0,-1ZM57.5,65.5l0,1l1,-1c-1,0,-1,0,-1,0ZM55.5,64.5l0,1l1,0c0,1,0,1,0,1l0,1l0,1c0,0,0,1,0,1l-1,-1l1,0c0,-1,-1,-2,-1,-3ZM49.5,61.5l1,-1l1,0l1,-1l0,1l1,0c-1,0,-1,0,-1,0l-1,0l0,1l-1,0l0,1l-1,0l0,-1ZM49.5,71.5l1,0l1,1l1,0l0,1l-1,0c0,0,-1,-1,-1,-1l-1,0l0,-1ZM116.5,69.5l0,-1l0,-2l-1,-8l1,-3l1,11c0,0,0,1,0,1l0,1c-1,0,-1,0,-1,1ZM110.5,66.5l0,-2l0,-7c-1,0,-1,0,-1,0c0,-1,0,-1,1,-1c0,-1,0,-1,0,-1c0,1,0,1,0,1c1,0,1,0,1,1l0,1c0,1,0,1,0,2c0,0,0,1,0,3c0,0,0,1,0,1l0,1c0,0,0,1,0,1c0,1,0,1,1,1l1,1l0,1l-1,0c-1,-1,-1,-1,-1,-1l-1,0l-1,0c-1,0,-1,0,-1,0l0,1l-1,0l-1,0c0,0,-1,0,-1,0c0,-1,-1,-1,-1,-1c0,-1,0,-1,0,-1c0,1,-1,1,-1,1c-1,0,-1,1,-1,1l-1,0l-1,0l-1,-1l-1,0l-1,-1l-1,0l0,1c0,0,-1,0,-1,0c0,0,-1,0,-1,0l-1,1l-1,0l-1,0c-1,0,-2,-1,-2,-1c-1,0,-1,-1,-1,-2l0,-8l1,-3l0,10l0,1l1,0c0,1,0,1,1,1l1,0l1,0c0,0,1,0,1,0l1,0l0,-1l1,0l-1,-1l-1,0l0,-2c1,0,1,0,2,0l1,0l1,0c0,0,1,0,1,0c0,1,0,1,0,1c0,0,0,1,0,1l-1,1c0,1,1,1,1,1l1,0l1,0c0,0,1,0,1,0c0,0,1,0,1,-1c1,0,1,-1,1,-1l0,1c0,0,0,1,1,1c0,0,1,0,1,0l1,0c1,0,1,0,1,0c1,0,1,0,1,0c1,0,1,0,1,-1ZM100.5,51.5c0,0,1,-1,1,-1c1,0,1,0,1,0c1,0,2,0,2,0c0,1,0,1,0,1c0,1,0,1,0,1c0,1,-1,1,-1,1l-1,0l-1,0l-1,0l2,0c1,-1,1,-1,2,-1c-1,0,-1,0,-1,0c0,-1,-1,-1,-1,-1c0,0,-1,0,-1,1c0,0,-1,0,-1,0c0,-1,0,-1,0,-1ZM110.5,47.5c1,0,1,0,1,0c1,0,1,0,2,0c0,0,1,0,1,0c1,0,1,0,1,0c0,0,0,1,0,1c0,0,-1,0,-1,1l-1,0c-1,0,-1,0,-1,0l-1,0l1,0c1,0,2,-1,2,-1c0,0,-1,0,-1,0l-1,0c0,0,-1,0,-1,0l-1,0c0,-1,0,-1,0,-1ZM109.5,75.5l-4,2c0,-1,1,-1,1,-1l3,-2ZM105.5,72.5l-1,-1l-1,1l-2,-1l1,-1l2,1l0,-1l2,0ZM91.5,52.5l5,-2l-1,0l0,1l-4,2ZM85.5,67.5l0,1l-1,0c-1,0,-1,1,-2,1l-1,0l-1,0l-1,0c0,0,0,-1,0,-1c0,-1,0,-1,0,-1l0,-1c0,1,1,1,1,1c1,0,1,0,2,0c0,0,1,0,1,-1c0,0,1,0,1,0l1,0c0,-1,0,-1,-1,-1c0,-1,0,-1,0,-1l-1,-1l-1,0l0,-1l-1,0l0,-2c1,0,1,0,1,0l1,1l1,0c0,0,0,1,0,1l1,1c0,0,0,1,0,1c0,1,0,1,0,1c0,0,1,0,1,1c0,0,-1,0,-1,1ZM81.5,56.5l4,-3l0,1l0,1l-4,2ZM155.5,55.5l-1,-1l-1,1l-2,0l1,-2l2,1l0,-1l2,1ZM154.5,59.5c1,0,1,0,1,0c0,0,0,1,0,1l0,1l1,0l0,-1l-1,-1c0,0,0,-1,0,-1c0,-1,0,-1,-1,-1c0,0,0,1,0,1l-1,0l0,1c0,0,0,1,0,1c-1,0,-1,0,-1,0c-1,1,-1,1,-1,1c0,1,-1,1,-1,1l-1,0c0,0,0,1,0,1l-1,0c-1,1,-1,1,-1,2l1,0l0,-1l1,0l0,1l1,0l1,0l1,0l0,1l-2,0l-1,1l-1,0l-1,0l-1,0l-1,0c-1,0,-1,0,-1,0c0,-1,0,-1,0,-1l0,-1l-1,-10l-1,2l1,7c0,0,0,1,0,1l0,1c-1,0,-1,1,-2,1l-1,0c0,0,-1,0,-1,0c0,0,-1,0,-1,0c0,0,1,-1,1,-1c0,0,0,-1,0,-1l0,-1c0,0,0,-1,0,-1l0,-1c-1,0,-1,-1,-1,-1c0,0,-1,1,-1,1c-1,0,-1,0,-1,1c0,0,-1,0,-1,1c0,1,0,1,0,1c0,1,0,1,0,1c0,1,0,1,0,1l-1,0c0,1,0,1,-1,1c0,0,-1,0,-1,0c-1,0,-1,0,-2,0c-1,0,-2,0,-3,0c-1,0,-2,0,-2,-1c-1,0,-1,0,-2,-1l0,-1l0,-1l1,-1l-1,0c0,0,0,1,-1,1c0,1,0,1,0,2c0,1,0,1,0,1c0,1,1,1,1,1c1,1,1,1,2,2c1,0,3,0,4,0c1,0,1,0,2,0c0,0,1,0,1,0c1,-1,1,-1,2,-1c1,0,1,0,2,0c0,-1,0,-1,1,-1l1,0c0,0,0,1,1,1l1,0l1,0c1,-1,1,-1,1,-1c1,0,1,-1,1,-1c0,0,0,1,1,1c0,1,1,1,1,1l1,0l1,0l1,0l1,-1l3,-1c0,0,1,0,1,0l0,-1l1,0l1,0l1,0l2,0l1,-1l-2,0l-1,0c0,0,-1,0,-1,0c-1,-1,-1,-1,-2,-1l-2,-1l-1,0l1,0c0,-1,0,-1,0,-1l1,0c0,-1,1,-1,1,-2ZM152.5,46.5c0,0,0,-1,0,-1c1,0,1,0,1,0c1,0,1,0,1,1l0,1l-1,1l1,0l0,1l-1,0l-1,0c0,1,-1,1,-1,1l-1,0l-1,0l1,0l1,-1l1,0l0,-1c0,0,-1,-1,-1,-1c0,0,1,-1,1,-1ZM153.5,46.5l-1,0l0,1l1,0c0,0,0,-1,0,-1ZM146.5,60.5l-1,-1l1,-1l1,1ZM146.5,51.5c0,-1,0,-1,1,-1l1,0c0,0,1,0,1,0c1,0,1,1,1,1c0,1,-1,1,-1,1c0,0,0,1,0,1c-1,0,-1,0,-1,0c-1,0,-1,0,-1,0l-1,0l1,-1c1,0,2,0,2,0c0,-1,0,-1,-1,-1l-1,0l-1,1l-1,0c0,-1,0,-1,0,-1c0,0,1,0,1,0ZM143.5,75.5l-3,2c0,-1,0,-1,0,-1l4,-2ZM136.5,60.5l-1,-1l0,-1l2,1ZM137.5,63.5c0,0,0,1,-1,1l0,1c0,0,0,1,1,1c0,0,1,0,1,-1l1,0c0,-1,-1,-1,-1,-1c0,0,0,-1,-1,-1ZM129.5,53.5c0,-1,1,-1,1,-1l1,0c0,0,1,0,1,1c0,0,-1,0,-1,0l0,1l0,1l1,0l0,1l-2,-1l0,1c-1,1,-1,1,-1,1l-1,0l-1,0l1,0l0,-1c1,0,1,0,1,0l0,-1l1,0l-1,0c0,-1,0,-1,0,-1c0,-1,0,-1,0,-1ZM130.5,53.5l0,1l1,0l0,-1l-1,0ZM175.5,67.5l-1,1c0,0,1,0,1,0l0,-1ZM176.5,70.5c0,0,-1,0,-1,0c-1,0,-1,0,-1,0c-1,0,-1,0,-2,0c-1,0,-1,0,-1,0l0,-1l0,-1c0,0,1,0,1,0l1,0c0,0,0,-1,0,-1c1,0,1,0,1,0c0,0,0,-1,0,-1l0,-1c-1,0,-1,0,-1,-1c0,0,-1,-1,-1,-1c-1,-1,-1,-1,-2,-2l-1,0c0,-1,0,-1,0,-1l-1,0c-1,0,-1,0,-1,-1l0,-1c0,-1,0,-1,0,-1l0,-1c1,1,1,1,1,1c1,1,1,1,2,2c1,1,1,1,2,2c0,0,1,1,2,2c0,0,0,1,0,1c1,1,1,1,1,1c0,0,0,-1,0,-1c0,-1,0,-2,0,-2c1,-1,1,-1,1,-2c0,0,0,-1,0,-1c0,-1,0,-1,0,-2c-1,0,-1,0,-1,0c0,-1,0,-1,1,-1c0,-1,0,-1,0,-1c0,1,0,1,0,1l1,0l1,1c-1,0,-1,0,-1,1c0,0,0,1,0,1c0,0,0,1,0,1c0,1,0,1,0,1c-1,1,-1,1,-1,2c0,0,0,1,0,2c0,0,0,1,-1,1c0,0,1,0,1,0c0,0,0,1,0,1c0,1,0,1,0,1c0,1,0,1,0,1l0,1ZM172.5,53.5l6,-3c-1,1,-1,1,-1,1l-5,3ZM209.5,69.5l0,-1l0,-2l0,-8l0,-3l1,11c0,0,0,1,0,1l0,1c0,0,-1,0,-1,1ZM211.5,71.5l-3,2c0,0,0,-1,0,-1l4,-2ZM202.5,62.5l-1,-1l1,-2l1,1ZM202.5,69.5l-1,0c-1,0,-1,0,-1,0c-1,-1,-1,-1,-1,-1c-1,-1,-1,-2,-1,-3c0,1,0,1,-1,2c0,0,-1,1,-2,1c0,0,-1,0,-1,0l-1,1l-1,0c-1,0,-1,0,-1,0l-1,0l-1,0l-1,0l-1,0l-1,0c-1,0,-1,-1,-2,-1c0,-1,0,-1,0,-2l0,-1l0,-1l0,-1l1,0l-1,0c0,0,0,1,0,1c0,1,1,2,2,3c1,0,1,0,2,0c1,0,1,0,2,0l1,0l1,0l1,0c3,0,4,-1,5,-3l0,-7l1,-2l0,10c0,1,0,1,0,1l1,1l1,0l1,0c0,0,1,0,1,0c1,0,1,-1,2,-1c0,0,0,-1,-1,-1c0,0,0,-1,0,-1l1,-2c0,0,0,1,0,1l0,1l0,1c0,1,0,1,0,1c0,1,0,1,0,1l0,1c-1,0,-1,0,-2,0c0,1,-1,1,-1,1ZM203.5,54.5l0,1l1,0l0,-1c0,0,1,0,1,1c0,0,0,-1,0,-1l1,-1l0,1l0,1c0,0,0,1,-1,1c0,0,-1,0,-1,0l0,-1l0,1c0,0,-1,0,-1,0l-1,0l0,-1l0,-1ZM207.5,51.5l-6,3c1,-1,1,-1,1,-1l5,-3ZM192.5,63.5c-1,1,-1,1,-2,1c0,0,-1,0,-1,0l-1,0l1,0l1,0l0,-1c0,0,1,0,1,0l-1,0c0,-1,0,-1,-1,-1c0,-1,0,-1,0,-1l1,-1c0,-1,1,-1,2,-2l0,1l-1,1c0,0,-1,0,-1,0c0,1,1,1,1,1c1,0,1,0,1,1l0,1ZM188.5,56.5l4,-3l0,1l0,1l-4,2ZM265.5,69.5l0,-1l0,-2l0,-8l1,-3l0,11c0,0,0,1,0,1l0,1l-1,1ZM257.5,67.5l1,0l1,0c1,0,1,0,1,-1l0,-2l0,-7c0,0,-1,0,-1,0c0,-1,1,-1,1,-1c0,-1,0,-1,0,-1c0,1,0,1,1,1l1,1c0,0,-1,0,-1,1c0,1,0,1,0,2c0,0,0,1,0,3c0,0,0,1,0,1l0,1c0,0,0,1,0,1c0,1,0,1,0,1l-1,1c-1,0,-1,0,-1,1c-1,0,-1,0,-1,0l-1,0l-1,0c-1,0,-2,0,-2,-1c-1,0,-1,0,-1,0c-1,0,-1,0,-2,0c-1,1,-1,1,-2,1l-1,0l-1,0c0,-1,0,-1,-1,-1c0,-1,0,-1,0,-1c0,1,-1,1,-1,1c-1,0,-1,1,-2,1l-1,0c-1,0,-1,-1,-2,-1l-1,0c0,0,0,1,-1,1c0,0,-1,0,-1,0l-1,-1l-1,-1l-1,1c-1,0,-1,1,-1,1l-1,0l-1,0c0,0,-1,0,-1,-1c-1,0,-1,0,-1,0c0,0,0,-1,-1,-1c0,-1,0,-1,0,-1c0,0,-1,1,-1,1l-1,0c-1,0,-1,0,-2,0l0,-2l1,-1c0,0,1,-1,2,-1c0,-1,1,-1,1,-1l-1,0c0,-1,0,-1,1,-1l0,-1l0,1c0,1,1,1,1,1c0,1,0,1,0,2l0,2c0,0,0,1,1,1c0,0,1,0,1,0l1,0l1,0l1,-1l1,-1c1,-1,2,-1,2,-1l1,1l1,0l0,1l1,0c0,1,0,1,1,1l1,0l1,0c1,0,1,0,1,0c1,0,1,0,1,-1c1,0,1,-1,1,-1l0,1c0,0,1,1,1,1c0,0,1,0,1,0l1,0l1,0c1,0,1,0,1,0c0,-1,0,-1,0,-1c0,0,0,-1,0,-1l0,-1c0,-1,1,-1,1,-1c0,0,0,-1,0,-1c1,0,1,-1,2,-1c0,0,1,1,1,1c0,0,0,1,0,1l0,1c0,1,0,1,0,2l-1,1c1,0,1,0,1,0c1,0,1,0,1,0ZM258.5,51.5c0,-1,0,-1,1,-1c0,0,1,0,1,0c1,0,1,0,1,0c1,0,1,1,1,1c0,1,0,1,-1,1c0,0,0,1,0,1l-1,0c0,0,-1,0,-1,0l-1,0l2,-1c0,0,1,0,1,0c0,-1,0,-1,-1,-1c-1,0,-1,0,-2,1c0,-1,0,-1,0,-1ZM254.5,60.5l-1,-1l-1,2l-2,-1l1,-2l2,1l0,-1l2,1ZM253.5,63.5l-1,1l0,1c0,0,0,1,1,1c0,0,1,0,1,-1l1,0c0,-1,-1,-1,-1,-1c0,-1,0,-1,-1,-1ZM256.5,74.5l-5,2c1,0,1,-1,1,-1l4,-2ZM247.5,72.5l-1,-1l-1,1l-2,-1l1,-1l2,1l1,-1l1,0ZM239.5,67.5l-1,-1c0,0,-1,-1,-1,-1l-1,0l0,1l1,1l1,0ZM235.5,56.5l4,-3l-1,1l0,1l-4,2ZM227.5,59.5l-1,0l-1,1l-1,-1l0,-1l2,0l1,-1l1,1ZM228.5,63.5l-1,1l-1,0c0,1,-1,1,-1,1l1,0l1,0c0,0,1,0,1,0ZM228.5,72.5l-4,2c0,-1,1,-1,1,-1l4,-2ZM295.5,72.5l-1,-1l-1,1l-2,-1l1,-1l2,1l0,-2l2,1ZM292.5,69.5l-1,0l-1,0l-1,1l0,1c0,0,-1,1,-1,1c0,0,0,1,-1,1l0,1c-1,0,-1,0,-1,0c0,0,-1,0,-1,0l-1,0c0,0,-1,0,-2,0c0,0,0,-1,-1,-1c0,0,1,0,1,0l1,0c0,0,1,0,1,0c1,0,1,0,2,-1l1,0c0,-1,0,-1,0,-1c1,0,1,-1,1,-1l0,-1c0,0,1,0,1,0c-1,0,-1,0,-1,0c-1,0,-1,0,-1,0c0,-1,0,-1,0,-1c-1,0,-1,0,-1,-1c0,-1,0,-1,0,-1l0,-1c0,0,1,0,1,0c0,-1,0,-1,0,-1c1,0,1,0,1,0l1,0l0,1c0,0,0,1,1,1c0,0,0,1,0,1c0,0,1,0,1,0c0,0,1,0,1,0c1,0,1,0,2,0c0,0,1,-1,1,-1c0,0,0,-1,0,-1c-1,0,-1,-1,-1,-1l1,-2c0,0,0,1,0,1l0,1l1,1c0,1,0,1,0,1l-1,0c0,1,0,1,0,1l0,1c0,0,-1,0,-1,0c-1,1,-1,1,-2,1ZM292.5,56.5l4,-3l0,1l0,1l-4,2ZM287.5,66.5l0,1c1,0,1,0,1,0c1,0,1,0,1,0l-1,-1l-1,0ZM283.5,58.5c0,0,1,0,1,-1c1,0,1,0,1,0c1,0,1,0,2,0c0,1,0,1,0,1c0,1,0,1,0,1c0,1,-1,1,-1,1c0,0,-1,0,-1,0l-1,0l-1,0l2,0c1,-1,1,-1,2,-1c-1,0,-1,0,-1,0c0,-1,-1,-1,-1,-1c0,0,-1,1,-1,1c0,0,-1,0,-1,0c0,0,0,-1,0,-1ZM281.5,66.5l-2,0l-1,0c-1,0,-2,1,-2,1c0,1,0,1,0,1c0,1,0,1,0,3c1,1,1,2,1,3c0,2,0,2,0,2l0,1c0,0,0,-1,-1,-2c0,-2,0,-3,0,-4c-1,-1,-1,-2,-1,-2l0,-1c0,-1,0,-1,1,-2l0,-1c0,0,1,0,1,0c1,0,2,-1,2,-1c0,0,-1,0,-1,0l-1,0l0,-1c0,0,1,-1,1,-1l1,0c1,0,1,1,2,1c0,0,0,1,0,1l0,1l0,1ZM275.5,56.5l5,-3l-1,1l0,1l-4,2ZM331.5,55.5l-2,-1l-1,1l-1,0l1,-2l1,1l1,-1l1,1ZM329.5,59.5l1,0l1,0c0,0,0,1,0,1l0,1l0,-1l0,-1c0,0,0,-1,0,-1c-1,-1,-1,-1,-1,-1c0,0,-1,1,-1,1l0,1l-1,0c0,0,0,1,0,1l-1,0c0,1,0,1,-1,1c0,1,0,1,0,1l-1,0c0,0,0,1,-1,1c-1,0,-1,1,-1,1l0,1l1,0l0,-1l1,0l0,1l1,0l1,0l1,0l0,1l-2,0l-1,1l-1,0l-1,0l-1,0l-1,0c-1,0,-1,0,-1,0l0,-1c0,0,-1,0,-1,0l0,1c0,0,0,1,0,1l1,0c0,0,0,1,-1,1c0,0,0,1,0,1c0,1,-1,1,-1,1c0,0,0,1,-1,1l0,1c-1,0,-1,0,-2,0c0,0,-1,0,-1,0l-1,0l-1,0c1,1,1,1,1,1c1,0,2,0,2,0c1,0,1,0,1,0c1,0,1,0,1,0c1,0,1,0,1,-1c1,0,1,0,1,0c0,-1,0,-1,1,-1c0,-1,0,-2,0,-2l0,-1l0,-1l1,1l1,0l1,0l1,0l1,-1l3,-1c0,0,1,0,1,0l0,-1l1,0l1,0l1,0l2,0l1,-1l-2,0l-1,0c0,0,-1,0,-1,0c-1,-1,-1,-1,-2,-1l-2,-1l-1,0c1,-1,1,-1,1,-1l1,0c0,-1,0,-1,1,-2ZM330.5,45.5c0,-1,1,-1,1,-1l1,0l0,1l0,1l0,1l1,0l-1,1l-1,-1l0,1l-1,0c0,1,0,1,0,1l-1,0l-1,0l1,0l0,-1c0,0,1,0,1,0l0,-1l1,0l-1,0c0,-1,0,-1,0,-1l0,-1ZM331.5,45.5l0,1l1,0l-1,-1ZM322.5,60.5l-1,-1l1,-1l1,1ZM322.5,51.5c0,-1,0,-1,1,-1l1,0c0,0,1,0,1,0c1,0,1,1,1,1c0,1,-1,1,-1,1c0,0,0,1,0,1c-1,0,-1,0,-1,0c-1,0,-1,0,-1,0l-1,0l1,-1c1,0,2,0,2,0c0,-1,0,-1,-1,-1l-1,0l-1,1l-1,0c0,-1,0,-1,0,-1c0,0,1,0,1,0ZM319.5,64.5l-1,-1l1,-2l1,1ZM320.5,79.5l-5,2c1,-1,1,-1,1,-1l4,-2ZM310.5,62.5l-1,-1l1,-2l1,1ZM310.5,69.5l-1,0l-1,0l-1,0c-1,0,-1,-1,-2,-1c0,0,0,-1,0,-2l-1,-8l1,-3l0,10l1,1c0,1,1,1,1,1l1,0l1,0l1,0c0,0,1,0,1,0c1,0,1,-1,1,-1c0,0,0,-1,0,-1c0,0,0,-1,-1,-1l1,-2c0,0,0,1,0,1c1,0,1,0,1,0l0,1l0,1c0,1,0,1,0,1c0,1,0,1,0,1c0,0,-1,0,-1,1l-1,0c0,1,-1,1,-1,1ZM310.5,56.5l4,-3l-1,1l0,1l-4,2ZM359.5,65.5l-1,0c0,1,1,1,1,1c0,0,0,-1,1,-1c-1,0,-1,0,-1,0ZM359.5,72.5c0,1,-1,1,-1,1c-1,0,-2,0,-2,0c-1,0,-1,0,-2,0c0,0,-1,0,-1,0c0,0,0,-1,0,-1c0,0,1,0,1,0c0,1,0,1,1,1c1,-1,1,-1,1,-1l1,0c1,-1,1,-1,1,-1c1,0,1,-1,1,-1c0,0,1,0,1,-1c0,-1,0,-1,0,-1c0,-1,0,-1,0,-1c0,1,0,1,0,1c-1,0,-1,0,-1,0c0,0,-1,0,-1,0c0,-1,0,-1,0,-1c-1,0,-1,0,-1,0c0,0,0,-1,0,-1l0,-1c0,0,1,-1,1,-1c0,-1,0,-1,0,-1c1,0,1,0,1,0c1,0,1,0,1,0l0,1c1,0,1,0,1,0c0,1,0,1,0,2l0,1c0,1,0,1,0,1c0,1,0,2,-1,2c0,1,0,1,0,1c-1,1,-1,1,-1,1ZM356.5,59.5l4,-2c0,1,0,1,0,1l-4,2ZM351.5,67.5l-1,1c0,0,1,0,1,0l0,-1ZM352.5,70.5c0,0,-1,0,-1,0c-1,0,-1,0,-1,0c-1,0,-1,0,-2,0c-1,0,-1,0,-1,0l0,-1l0,-1c0,0,1,0,1,0l1,0c0,0,0,-1,0,-1c1,0,1,0,1,0c0,0,0,-1,0,-1l0,-1c-1,0,-1,0,-1,-1c0,0,-1,-1,-1,-1c-1,-1,-1,-1,-2,-2l-1,0c0,-1,0,-1,0,-1l-1,0c-1,0,-1,0,-1,-1l0,-1c0,-1,0,-1,0,-1l0,-1c1,1,1,1,1,1c1,1,1,1,2,2c1,1,1,1,2,2c0,0,1,1,2,2c0,0,0,1,0,1c1,1,1,1,1,1c0,0,0,-1,0,-1c0,-1,0,-2,0,-2c1,-1,1,-1,1,-2c0,0,0,-1,0,-1c0,-1,0,-1,0,-2c-1,0,-1,0,-1,0c0,-1,0,-1,1,-1c0,-1,0,-1,0,-1c0,1,0,1,0,1l1,0l1,1c-1,0,-1,0,-1,1c0,0,0,1,0,1c0,0,0,1,0,1c0,1,0,1,-1,1c0,1,0,1,0,2c0,0,0,1,0,2c0,0,0,1,-1,1l1,0c0,0,0,1,0,1c0,1,0,1,0,1c0,1,0,1,0,1l0,1ZM348.5,53.5l6,-3c-1,1,-1,1,-1,1l-5,3ZM400.5,72.5c0,0,1,0,1,0l1,0c0,0,1,0,2,-1c1,0,1,-1,2,-1c0,0,0,-1,1,-1c0,-1,0,-1,0,-1c0,-1,0,-1,0,-1c0,-1,0,-1,0,-1l0,-1l-1,0l1,-2l0,1c0,0,1,0,1,1l0,1l0,1c0,0,0,1,0,1c0,0,0,1,0,1c0,0,-1,0,-1,1c0,0,0,1,0,1c0,0,-1,0,-1,1l-1,0l0,1c-1,0,-1,0,-1,0c-1,0,-1,0,-1,0l-1,0c0,0,-1,0,-1,-1l-1,0ZM405.5,56.5l0,-1c1,0,1,0,1,0c1,0,1,0,1,0c0,0,0,1,0,1c0,0,0,1,0,1c0,0,0,1,0,1l0,1l-1,0l-1,1c0,0,-1,0,-1,0l0,1l-1,0l0,-1l1,0c0,0,0,-1,1,-1l0,-1l0,-1l0,-1ZM406.5,56.5c-1,0,-1,0,-1,0c0,0,0,1,0,1l1,0ZM392.5,67.5l-1,1l-1,0c0,0,0,1,0,1c0,0,-1,0,-1,0c-1,0,-1,0,-1,-1c-1,0,-1,-1,-1,-1c-1,0,-1,1,-1,1c-1,0,-1,0,-1,0l0,1l-1,0c0,0,-1,0,-1,0c0,-1,-1,-1,-1,-1c0,-1,0,-2,0,-3c-1,1,-1,1,-1,2c-1,0,-2,1,-3,1l-1,0l-1,1l-1,0c0,0,-1,0,-1,0l-1,0l-1,0l-1,0l-1,0c-1,0,-2,-1,-3,-1c0,-1,0,-1,0,-2l0,-1l0,-1l0,-1l1,0c0,0,0,1,0,1c0,1,0,2,2,3c0,0,1,0,1,0c1,0,2,0,2,0l1,0l1,0l1,0l1,0c2,0,4,-1,4,-3l0,-7l1,-2l0,10c0,1,1,1,1,1l0,1c1,0,1,0,1,0c1,0,1,0,1,0c0,0,1,-1,1,-1c0,-1,0,-1,0,-1c0,0,0,-1,0,-1l0,-7l1,-2l0,10c0,1,0,1,0,1l1,1l1,0c1,0,1,0,1,0c1,0,1,0,1,-1c1,0,1,0,1,-1l1,0l0,1l-1,0l1,0l0,1l1,0c0,0,1,0,1,0c0,-1,1,-1,1,-1c0,-1,0,-1,0,-1l1,-1l0,1l0,1l0,1l1,0l1,0c0,0,0,-1,0,-1l-1,0l1,-2c0,1,0,1,0,1l1,0l0,1l0,1l-1,1c0,0,0,1,-1,1l-1,-1l-1,0l0,-1l0,1l-1,0l-1,0l0,1l-1,0c0,0,0,-1,-1,-1c0,-1,0,-1,0,-1ZM394.5,53.5c0,-1,0,-1,0,-1c1,0,1,0,1,0c1,0,1,0,1,0l0,1l0,1l0,1l0,1l-1,-1l0,1l-1,0c0,1,-1,1,-1,1l-1,0l1,-1l1,0l0,-1c0,-1,0,-1,0,-1c0,-1,0,-1,0,-1ZM395.5,53.5c-1,0,-1,0,-1,0l1,1l0,-1ZM387.5,75.5l-4,2c0,-1,1,-1,1,-1l3,-2ZM375.5,63.5c0,1,-1,1,-2,1c-1,0,-1,0,-1,0l-1,0l1,0l1,0l0,-1l1,0c-1,-1,-1,-1,-1,-1c0,-1,0,-1,0,-1l0,-1c0,-1,1,-1,2,-2l0,1l0,1c-1,0,-1,0,-1,0c0,1,0,1,0,1l1,0c0,0,1,0,1,1l0,1c0,0,-1,0,-1,0ZM371.5,56.5l5,-3l-1,1l0,1l-4,2ZM244.5,60.5c0,-1,0,-1,0,-2c0,-1,0,-1,-1,-2l1,0l1,1l0,1c0,0,0,1,0,1c0,1,-1,1,-1,1ZM217.5,63.5l-1,0l-1,1c1,0,1,0,1,0l1,0c0,0,1,0,1,-1c0,0,-1,0,-1,0Z" class="g1_16" />
<path fill-rule="evenodd" d="M241.5,247.5l-4,2c0,0,0,-1,0,-1l4,-2ZM278.5,285.5l1,0l1,0c0,0,1,0,1,0c1,0,1,0,1,1c0,0,-1,1,-1,1c-1,1,-1,1,-1,1c-1,0,-1,0,-1,0l-1,0l2,-1c0,0,1,0,1,-1l-1,0c-1,0,-1,0,-2,0l-1,1l0,-1c1,0,1,0,1,-1ZM133.5,285.5c1,0,1,0,1,0c1,-1,1,-1,2,-1c0,0,1,1,1,1c0,0,1,0,1,0l0,1c-1,0,-1,0,-1,0c0,1,0,1,-1,1c-1,0,-1,0,-1,0l-1,0l1,0c1,0,1,-1,2,-1c0,0,-1,0,-1,0l-1,0c0,0,-1,0,-1,0l-1,0l0,-1ZM99.5,293.5l0,-1l0,-1l-1,-8l1,-3l1,11c0,1,0,1,0,1c-1,1,-1,1,-1,1ZM210.5,273.5c0,1,0,2,0,3l0,1c0,0,-1,0,-1,0c0,0,-1,0,-1,0l-1,0l1,0c0,0,1,0,1,0c0,-1,0,-1,0,-1c0,0,0,-1,0,-1l-1,0c0,0,0,-1,0,-1c-1,0,-1,0,-1,0c0,-1,0,-1,0,-1c0,0,1,0,1,0c0,1,0,1,0,1c0,0,1,0,1,1l0,1l1,0l0,-1l0,-1l0,-1ZM190.5,282.5l0,1c1,0,1,0,1,-1l0,-1l0,1l1,0l1,-1l0,1l0,1c0,0,-1,0,-1,0c0,0,-1,0,-1,0l0,1c0,0,-1,0,-1,0l-1,0l0,-1l0,-1ZM194.5,279.5l-6,3c1,-1,1,-1,1,-2l5,-2ZM126.5,297.5l-2,-1l1,-1l1,0ZM123.5,293.5l-1,0l-1,0c-1,0,-1,0,-2,-1c0,0,-1,-1,-1,-1l0,-9l1,-2l0,10l1,1l1,0l1,0l1,0c1,0,1,0,2,0l1,0l0,-1c-1,-1,-1,-1,-1,-1l0,-1l1,-1l0,1l0,1l1,0l0,1l0,1c0,0,-1,0,-1,0c0,1,0,1,0,1c0,0,-1,1,-1,1c-1,0,-1,0,-2,0ZM125.5,299.5l-4,2c0,0,0,-1,0,-1l4,-2ZM117.5,276.5l4,-2l0,1l-4,2ZM114.5,293.5l-1,0l-1,-1l-1,0l-1,0c0,0,0,1,0,1l-1,0l-1,0l-1,0c0,1,0,1,0,1c0,1,-1,1,-1,1c0,1,0,1,-1,2c-1,1,-1,1,-1,1c0,0,-1,0,-1,0l-1,0c0,0,0,1,0,1l-1,0c0,0,-1,-1,-1,-1c-1,0,-1,0,-1,0c0,-1,0,-1,0,-1c0,0,0,1,1,1c1,0,1,0,2,-1l1,0c0,0,1,-1,1,-1l1,-1c0,-1,0,-1,1,-1l0,-1l-1,0c0,0,-1,0,-1,0c-1,0,-1,-1,-1,-1l0,-1c0,-1,0,-1,0,-1l1,-1c0,0,0,-1,1,-1c0,0,1,0,1,1l1,1c0,1,0,1,0,1c0,0,1,0,1,0c1,0,1,0,1,0c0,0,1,0,1,0l1,-1c0,-1,1,-1,1,-2c0,0,1,0,1,0c0,0,1,0,1,0c0,1,0,1,0,2l1,0l0,1c0,0,0,1,0,1l-1,0l0,1ZM112.5,290.5l1,1l0,-1c0,0,0,-1,0,-1c-1,0,-1,1,-1,1ZM108.5,275.5c0,0,1,0,1,0c1,0,1,0,2,0c0,0,1,0,1,0c0,0,1,0,1,0c0,1,0,1,-1,1l0,1c0,0,-1,0,-1,0l-1,0c0,1,0,1,-1,1l-1,-1l2,0c1,0,1,-1,2,-1c-1,0,-1,0,-1,0c0,0,-1,0,-1,0c0,0,-1,0,-1,0c0,0,-1,0,-1,0c0,-1,0,-1,0,-1ZM105.5,290.5l-1,0l0,1l1,0c0,0,1,0,1,0l-1,0c0,-1,0,-1,0,-1ZM102.5,283.5l5,-2l-1,1l-4,2ZM94.5,282.5c0,0,-1,-1,-1,-1c0,0,1,-1,1,-1l0,-1l0,1l1,0c0,1,0,1,1,1c-1,0,-1,1,-1,1l0,1c0,0,0,1,0,2c0,2,0,3,0,3c0,1,0,2,0,3l0,1c0,0,0,1,0,1c-1,1,-1,2,-1,2c-1,0,-1,0,-1,1c0,0,-1,0,-1,0c-1,0,-2,1,-3,1l-1,-1c-1,0,-1,0,-2,-1c-1,-1,-1,-1,-1,-2c0,0,0,-1,1,-2l0,-1l1,-1l0,1c-1,0,-1,1,-1,1c0,0,0,1,0,1c0,1,0,1,1,2c0,0,1,0,2,1l1,0c0,0,1,-1,2,-1c1,0,2,-1,2,-1c0,0,0,-1,0,-1c0,-1,0,-2,0,-4c0,-1,0,-2,0,-3c0,-1,0,-2,0,-3ZM84.5,304.5l5,-3c0,0,0,1,0,1l-5,3ZM86.5,300.5l5,-2c0,1,0,1,0,1l-5,3ZM190.5,289.5c0,0,0,1,0,1c0,0,1,0,1,0c0,0,0,-1,0,-1l-1,0ZM190.5,297.5c0,0,-1,1,-1,1c0,0,-1,0,-2,0c0,0,-1,0,-2,-1l1,0c0,0,1,0,1,0l1,0c0,-1,1,-1,1,-1c0,0,1,0,1,-1l1,0c0,-1,0,-1,0,-2c1,0,1,-1,1,-1c-1,0,-1,0,-1,0c0,0,-1,0,-1,0l-1,0c0,0,0,-1,0,-1c0,0,0,-1,0,-1c0,-1,0,-1,0,-2c1,0,1,0,1,-1l1,0c1,0,1,1,1,1c0,0,0,1,0,1c0,0,0,1,1,1c0,0,0,1,0,1c0,1,0,1,0,1c-1,1,-1,2,-1,3c0,0,-1,1,-1,1c0,0,0,1,-1,1ZM185.5,296.5l-2,-1l-1,2l-1,-1l1,-2l1,1l1,-1l1,1ZM182.5,293.5l-1,0l-1,0c-1,0,-1,0,-2,0l0,-1c-1,1,-1,1,-1,2l-1,0c0,0,0,-1,-1,-1l-1,0l-1,-1l-1,1c0,0,-1,0,-1,0l-1,0l-1,0l-1,0l-1,0l-1,-1c0,-1,0,-1,0,-1l-1,1c-1,1,-1,1,-2,1c0,0,-1,0,-1,0l-1,0l-1,0c-1,-1,-1,-1,-1,-1l0,-1c0,0,0,-1,0,-1l1,0l0,1l1,0l1,0l1,0c0,0,1,0,1,0c1,0,1,0,1,-1l1,0c0,0,0,-1,-1,-1l0,-2l0,-1l0,-1l1,-1l0,1c0,1,0,1,0,2l1,2c0,1,0,1,0,1c0,1,0,1,0,1l1,0l1,0l1,0l1,0l1,0c0,0,1,-1,1,-1c1,-1,2,-2,2,-2l1,0l0,1l1,1l1,1c0,0,1,0,1,0l1,0l1,0l1,0c0,0,1,0,1,0c1,0,1,0,1,0c0,-1,0,-1,0,-1c0,-1,0,-1,0,-1l-1,-1l1,-1c0,0,1,0,1,0c0,1,0,1,0,1l0,1l0,1c0,1,0,1,0,1c0,1,0,1,-1,1c0,0,0,1,-1,1c0,0,-1,0,-1,0ZM184.5,277.5l0,-1c1,0,1,0,1,0c1,0,1,0,1,0c0,0,0,1,0,1c0,0,0,1,0,1c0,1,0,1,0,1l0,1l-1,0l-1,1c0,0,-1,0,-1,0l0,1l-1,0l0,-1l1,0l1,-1l0,-1l0,-1l0,-1ZM185.5,278.5l0,-1c-1,0,-1,0,-1,1l1,0ZM177.5,292.5l-1,-1c0,-1,0,-1,-1,-1l-1,0c0,0,0,1,1,1l1,0ZM173.5,278.5c1,0,1,0,1,-1c1,0,1,0,2,0c0,0,1,0,1,1c0,0,1,0,1,0l-1,0c0,1,0,1,0,1c0,1,-1,1,-1,1l-1,0l-1,0l1,0c1,-1,1,-1,2,-1c-1,0,-1,0,-1,0c0,0,-1,-1,-1,-1c0,0,-1,1,-1,1c0,0,-1,0,-1,0c0,0,0,-1,0,-1ZM163.5,296.5l-5,2c1,0,1,-1,1,-1l4,-2ZM156.5,292.5l-1,1c0,0,-1,0,-2,0l-1,0l-1,0c-1,0,-1,0,-1,0l0,-1l0,-1c1,0,1,0,1,0l1,0c0,0,1,0,1,0c1,0,1,0,1,0c1,0,1,0,1,0c1,0,1,-1,1,-1l0,-1c0,0,-1,-1,-1,-1l-1,0l0,-1l-1,0l-1,-1l1,-1l1,0c1,0,1,1,1,1c1,0,1,1,1,1c0,1,1,1,1,2c0,1,0,1,0,1c0,0,0,1,0,1c0,0,0,1,-1,1ZM153.5,279.5c0,0,0,-1,1,-1l1,0c0,0,1,0,1,0c1,1,1,1,1,1c0,1,0,1,-1,1c0,0,0,1,0,1c0,0,-1,0,-1,0c-1,0,-1,0,-1,0l-1,0l2,0c0,-1,1,-1,1,-1c0,0,0,-1,-1,-1c-1,0,-1,0,-2,1l-1,0c0,-1,0,-1,1,-1ZM149.5,280.5c0,0,0,1,-2,1c-1,1,-2,1,-3,1c-2,1,-3,1,-3,2l-1,0c0,0,0,1,1,1l2,1c0,0,1,1,1,2c1,0,1,0,1,1c0,0,0,1,0,1c0,1,0,1,0,2l-1,0c0,0,0,1,0,1c-1,0,-1,0,-1,0c0,0,-1,0,-1,0c0,0,0,1,0,1l0,1l0,1l-1,1c0,0,0,-1,-1,-1c-1,0,-1,0,-1,-1l-1,1l0,1c0,0,-1,0,-1,1c-1,0,-1,0,-2,0c-2,1,-3,1,-4,1l4,-2l2,-1c0,0,1,-1,1,-1l1,-2l0,-1l1,0l1,0l0,-1l1,0c0,0,1,0,1,0c0,0,1,0,1,0l1,0c0,0,0,-1,0,-1l0,-1c-1,0,-2,-1,-2,-1c0,-1,-1,-1,-1,-1l-1,0c0,0,-1,0,-1,0c0,-1,0,-1,0,-1l0,-1l0,-1c0,0,0,-1,0,-1c0,0,1,0,1,0c0,0,0,-1,0,-1c0,0,1,0,3,-1c1,-1,3,-1,4,-2c1,0,1,0,2,0ZM144.5,274.5c0,0,1,-1,1,-1l1,0l0,1l0,1l0,1l1,0l-1,1l-1,-1l0,1l-1,0c0,1,0,1,0,1l-1,0l-1,0l1,0l0,-1c0,0,1,0,1,0l1,-1l-1,0c0,-1,0,-1,0,-1c0,-1,0,-1,0,-1ZM145.5,274.5l0,1l0,-1ZM141.5,295.5l0,-1c0,-1,0,-1,-1,-1c0,0,-1,0,-1,1c0,0,1,0,1,0l1,0ZM221.5,291.5c0,0,0,1,0,2l-1,1l-1,1l2,0l-1,1l-1,0l0,1l-1,0c0,0,0,1,-1,1l-1,0l-1,1l-1,0l-1,1l-1,1l-1,0l1,0l1,-1l0,-1l1,0c1,-1,1,-1,2,-1l1,0c0,0,1,-1,1,-1l1,-1l1,-1l-1,0l0,-1l1,0l0,-1l1,-1l0,-1c0,-1,0,-2,-1,-3l0,-1l-1,0l0,-1l1,0c0,0,0,-1,-1,-1l-1,-1l-1,0l-1,-1l-2,0c0,-1,0,-1,0,-1l-1,-1l-1,0c0,0,0,-1,0,-1l-1,0l1,0l1,1l1,1l2,1l1,0c0,0,1,1,1,1l1,0l0,1c1,0,1,0,2,1l-1,1l0,1l1,0l0,1l0,1ZM218.5,286.5l-1,0l-1,-1l-1,0c-1,0,-1,0,-1,0c0,-1,1,-1,1,-1l-1,0c0,0,1,0,1,0l1,0c0,0,0,1,1,1l1,0ZM218.5,295.5l0,1l-1,0l0,1l-1,0l-1,0l-1,0l1,0c0,0,-1,0,-1,0c1,0,1,0,1,0l0,-1l1,0c1,0,1,0,1,-1l1,0ZM213.5,298.5c0,1,0,1,-1,1l-1,0l0,-3l1,0l1,0l0,1ZM213.5,284.5l0,1l-1,0l-1,0l0,-3l1,0c0,0,1,1,1,1l0,1ZM212.5,286.5l1,0l1,0c0,0,1,0,1,0l1,1l1,0c1,0,1,0,1,0l0,1l1,1l0,1l0,1c0,1,0,1,0,1l-1,1l0,1l-2,0l0,1c0,0,-1,0,-1,0l-1,0l-1,0c0,0,-1,0,-1,0l-1,0l1,0l1,0l1,0l1,0l1,-1l1,0l1,-1l0,-1l0,-1l1,0c0,-1,-1,-1,-1,-2c0,-1,0,-1,0,-1c0,0,-1,-1,-1,-1l-1,1l0,-1l-1,-1l-1,0c-1,0,-1,0,-1,0l-1,0l0,1l-1,0l0,-1ZM211.5,289.5l1,1l0,1l0,1c0,1,0,1,0,1c-1,0,-1,0,-1,0l0,-1c0,-1,0,-2,0,-2ZM209.5,289.5l1,0l0,1l0,1l0,1c0,1,0,1,0,1l0,-1c0,-1,-1,-2,-1,-2ZM210.5,280.5l-1,0l-1,1l-1,1l0,1l-2,0l-1,1l-1,0l-1,1c-1,0,-1,0,-2,1l2,0l0,1l-1,0l0,1l-1,0l0,1l0,1l0,1l0,1l0,1l1,0c0,0,0,1,0,1l1,1l-1,0l0,1l1,0l0,1l1,0l1,1l1,0l1,1c1,0,1,0,1,0l1,1c1,0,1,1,1,1l1,0l-1,0c0,0,-1,0,-1,-1l-1,-1l-1,0c-1,0,-1,-1,-2,-1l-1,0l0,-1l-1,0l0,-1l-1,0l-1,-1l1,0l0,-1l-1,-1l0,-1c0,0,0,-1,0,-1l0,-1c0,-1,0,-1,0,-1c0,0,0,-1,0,-1c0,0,1,-1,1,-1l-1,-1l1,-1l1,0l0,-1l1,0l1,-1l1,0l1,-1c1,0,1,0,1,0l1,-1c0,-1,1,-1,1,-1l1,0ZM210.5,285.5l-1,0c-1,0,-1,0,-1,0l0,-1c0,-1,0,-1,0,-1l0,-1l1,0l1,0ZM210.5,287.5l-1,0l0,-1l-1,0l-1,0l-1,0l-1,1c0,0,0,1,0,1l-2,-1l0,1l0,1l-1,1l0,1l0,1l1,0l0,1c0,0,0,1,0,1l2,0l1,1l1,0c1,0,1,0,1,0l1,0l1,0l-1,0l-1,0l-1,0c0,0,-1,0,-1,0c0,0,-1,0,-1,-1l-1,0l-1,0l-1,-2l0,-1c0,-1,0,-1,0,-1c0,-1,0,-1,0,-1l0,-1l1,0l0,-1l2,0l0,-1l1,0c0,0,1,0,1,0c0,0,1,0,1,0l1,0l1,0ZM210.5,299.5l-1,0c-1,0,-1,0,-1,-1c0,-1,0,-1,0,-1c0,0,0,-1,1,-1l1,0ZM203.5,286.5l0,-1l1,0l1,-1l1,0l1,0l-1,0c0,0,0,1,1,1c-1,0,-1,0,-1,0l-1,0l-1,0l0,1l-1,0ZM203.5,295.5l1,0c0,0,0,1,1,1l1,1l1,0c-1,0,-1,0,-1,0c-1,0,-2,0,-2,-1l-1,0ZM270.5,293.5l-1,0l0,-1c-1,0,-1,0,-1,0l-1,0c-1,0,-1,1,-1,1l-1,0l-1,0l-2,0c0,0,-1,0,-1,0l0,-1c-1,-1,-1,-1,-1,-1l0,1l-1,0c0,1,-1,1,-1,1c-1,0,-1,0,-2,0l-1,0c0,0,-1,0,-1,0c0,-1,0,-1,0,-1l0,-1c0,0,0,-1,0,-1l1,0l0,1l1,0l1,0l1,0l1,0l0,-1c1,0,1,0,1,0c0,0,0,-1,0,-1l0,-2l-1,-1l1,-1l0,-1l1,1c0,1,0,1,0,2l0,2c0,1,0,1,0,1c0,1,1,1,1,1c0,0,1,0,1,0l1,0l1,0c1,0,1,0,1,0l1,0l0,-1c0,-1,1,-1,1,-2c1,0,1,0,1,0c1,0,1,0,1,0c0,1,0,1,1,2l0,1c0,0,0,1,0,1c0,0,-1,0,-1,1ZM268.5,290.5l1,1l1,0l0,-1c0,0,-1,0,-1,0c0,0,0,-1,0,-1c-1,0,-1,1,-1,1ZM266.5,279.5l0,1c1,0,1,0,1,0c0,0,0,-1,0,-1l0,-1l1,0l0,1c1,0,1,0,1,-1l0,-1l0,1l0,1l0,1l-1,0l-1,0c0,1,0,1,-1,1l0,-1l0,-1ZM269.5,296.5l-4,2c0,0,0,-1,0,-1l4,-2ZM256.5,278.5c1,0,1,0,1,-1c1,0,1,0,2,0c0,0,1,0,1,1c0,0,1,0,1,0l-1,0c0,1,0,1,0,1c0,1,-1,1,-1,1l-1,0l-1,0l1,0c1,-1,1,-1,2,-1c-1,0,-1,0,-1,0c0,0,-1,-1,-1,-1c0,0,-1,1,-1,1c0,0,-1,0,-1,0c0,0,0,-1,0,-1ZM243.5,296.5c0,0,1,0,1,0l1,0c0,0,1,0,2,0c1,-1,1,-1,2,-1c0,-1,0,-1,1,-2c0,0,0,-1,0,-1l0,-1l0,-1l-1,-1l1,-1l0,-1l0,1c0,0,1,1,1,1l0,1l0,1c0,1,0,1,0,2c0,1,0,1,-1,1c0,1,0,1,0,1c0,0,-1,1,-1,1l-1,1c-1,0,-1,0,-1,0c-1,0,-1,0,-1,0l-1,0c0,0,-1,0,-1,0l-1,0ZM246.5,283.5l4,-2l0,1l-1,0l-4,2ZM242.5,293.5l0,-1l0,-1l-1,-9l1,-2l1,11c0,0,0,1,0,1c-1,1,-1,1,-1,1ZM231.5,296.5l1,0c1,0,2,0,3,0c0,-1,1,-1,1,-1c1,-1,1,-1,1,-2c0,0,1,-1,1,-1l0,-1l0,-1l-1,0l0,-1l0,-1l0,-1l1,1c0,0,0,1,0,1l0,1l1,1c0,1,-1,1,-1,2c0,1,0,1,0,1c0,1,-1,1,-1,1c0,0,0,1,0,1c-1,0,-1,0,-1,1l-1,0l-1,0l-1,0c0,0,-1,0,-1,0c0,0,-1,0,-1,0ZM232.5,281.5l5,-2c0,0,0,1,0,1l-5,2ZM234.5,278.5l5,-3c0,1,-1,2,-1,2l-5,2ZM229.5,293.5l0,-1l0,-1l0,-9l1,-2l0,11c0,0,0,1,0,1c0,1,0,1,-1,1ZM311.5,290.5c1,0,2,0,2,0c1,0,2,-1,3,-1l-1,1c0,1,-1,1,-1,1c-1,1,-2,1,-3,1c-1,1,-2,1,-3,1l-1,0c0,0,-1,0,-1,0c-1,0,-1,-1,-1,-2c0,1,0,1,-1,2l-1,0l-1,0c0,0,-1,0,-1,0l-1,0l0,-1c0,0,-1,0,-1,0c-1,1,-1,1,-2,1l-1,0c-1,0,-1,0,-2,0c0,0,0,-1,-1,-1l-2,-2c0,-1,-1,-1,-1,-1l0,1c0,0,0,1,0,1c0,0,-1,0,-1,0c0,1,0,1,0,1c0,0,-1,1,-1,1l-1,0c0,0,0,1,0,1l0,1l0,1l-1,0l0,1c0,0,-1,-1,-2,-1c0,0,-1,0,-1,-1l0,1l-1,1l-1,1c0,0,-1,0,-2,0c-1,1,-2,1,-4,1l5,-2l1,-1c1,0,1,-1,2,-1l0,-2c1,0,1,0,1,-1c0,0,1,0,1,0l0,-1l1,0c1,0,1,0,1,0c0,0,1,0,1,0c1,0,1,0,1,0c0,-1,0,-1,0,-1c0,-1,0,-1,0,-1c0,0,0,-1,-1,-1c-1,-1,-1,-1,-1,-1c-1,0,-1,-1,-1,-1l-1,0l-1,0c0,0,0,-1,0,-1c0,-1,0,-1,0,-1c0,0,0,-1,0,-1l1,0c0,0,0,-1,0,-1c1,0,2,0,3,-1c1,-1,3,-1,4,-2c2,0,3,-1,3,-1c1,0,1,0,1,0l-1,2c-1,0,-2,0,-3,1c-1,0,-3,1,-4,1c-2,1,-2,1,-3,2l1,1c0,0,1,0,1,0l1,1c1,0,2,1,2,1c1,0,1,1,2,1c0,1,1,1,1,2l2,1l1,0c1,0,1,0,1,0c1,0,1,0,2,0l0,-1c1,0,1,0,1,0c0,1,0,1,0,1c1,0,1,0,1,0c0,0,1,0,1,0l1,0c1,0,1,0,2,-1l0,-1c0,-1,0,-1,0,-1l-1,-7l1,-2l1,11l0,1l1,0c1,0,1,0,1,0l1,0c0,0,-1,0,-1,0c0,0,0,-1,0,-1c0,0,0,-1,0,-1c0,0,0,-1,0,-1l0,-1c1,0,1,-1,1,-1c1,0,1,-1,1,-1c1,0,1,0,1,0l1,0l1,0l0,1l1,0c0,0,0,1,0,1l-1,0l-1,-1l-1,0l0,1c-1,0,-1,0,-1,0c-1,0,-1,0,-1,0c0,1,0,1,0,1c0,1,0,1,1,1c0,1,0,1,0,1c1,0,1,0,1,0ZM308.5,280.5l5,-2l-1,1l-4,2ZM302.5,277.5l4,-2l0,1l-4,2ZM301.5,296.5l-2,-1l-1,2l-1,-1l1,-2l1,1l1,-1l2,1ZM297.5,275.5l1,0l1,0c0,0,1,0,1,0c1,0,1,0,1,0c0,1,0,1,0,1c0,0,-1,0,-1,1c-1,0,-1,0,-1,0c-1,1,-1,1,-1,1l-1,0l0,-1l1,0c1,0,2,-1,2,-1c0,0,-1,0,-1,0l-1,0l-1,0l-1,0c0,-1,0,-1,1,-1ZM289.5,274.5c0,0,0,-1,0,-1c0,0,1,0,1,0c1,0,1,0,1,1l0,1l-1,0l1,1l0,1l-1,-1l-1,1c-1,1,-1,1,-1,1l-1,0l-1,0l1,0l1,-1l1,0l0,-1c-1,-1,-1,-1,-1,-1c0,-1,0,-1,1,-1ZM290.5,274.5l-1,0l0,1l1,0l0,-1ZM286.5,295.5l0,-1c-1,-1,-1,-1,-1,-1l-1,0l0,1l1,0ZM369.5,293.5l0,-1l0,-1l-1,-9l1,-2l1,11c0,0,0,1,-1,1c0,1,0,1,0,1ZM361.5,291.5c0,0,1,0,1,0c0,0,1,0,1,0l1,0c0,0,0,-1,0,-1l0,-2l-1,-6l0,-1c0,0,0,-1,0,-1c0,0,1,0,1,-1l0,1c0,1,1,1,1,1c0,0,0,1,0,1l-1,1c0,0,0,1,0,2c0,0,0,1,1,2c0,1,0,1,0,2l0,1l0,1l-1,0c0,1,0,1,0,1c-1,1,-1,1,-1,1l-1,0l-1,0l-1,0l-1,0l0,-1c0,0,0,-1,0,-1l-1,0c0,1,0,1,0,1c-1,1,-1,1,-2,1c0,0,-1,-1,-1,-1l-1,0c0,1,0,1,-1,1c-1,0,-2,0,-2,-1c-1,1,-1,1,-2,1l-1,0l-1,0c0,0,-1,0,-1,0l-1,-1c0,1,0,1,-1,2c0,0,-1,-1,-1,-1l-1,0l-2,-1l-1,1l-1,0l-1,0l-1,0c-1,0,-2,0,-2,-1c-1,0,-1,-1,-1,-1l-1,-9l1,-2l1,10l0,1c0,0,1,0,2,0l1,0l1,0c1,0,1,0,1,0l1,0c0,0,0,-1,0,-1c1,-1,2,-2,3,-2l1,1l0,1l1,1l1,0l1,0l1,0l1,0l1,0c1,0,1,-1,2,-1l0,1l1,0c0,0,1,0,1,0c0,0,1,-1,1,-1l1,-1c0,1,0,1,0,1c0,1,0,1,1,1l1,0c0,0,0,-1,0,-1l1,-1c0,2,1,2,2,2ZM354.5,283.5l0,1c1,0,1,0,1,0l0,-1l1,1c0,0,0,-1,0,-1l1,-1l0,1l0,1c0,0,-1,1,-1,1c-1,0,-1,0,-1,0l0,-1l0,1c-1,0,-1,0,-1,0c0,0,-1,0,-1,0l0,-1l0,-1ZM358.5,280.5l-6,3c0,-1,1,-1,1,-1l5,-3ZM344.5,292.5l0,-1c-1,-1,-1,-1,-1,-1l-1,0l-1,0c1,0,1,1,2,1ZM340.5,280.5l4,-2l0,1l-4,2ZM330.5,277.5l1,0c0,0,1,0,2,0c0,0,1,1,1,1l0,-1l1,0l1,0c-1,1,-1,1,-2,1l-1,0l-1,0l-1,0l-1,0l-1,0c1,0,1,-1,1,-1ZM325.5,291.5c0,0,0,-1,0,-1c0,0,1,-1,1,-1l1,0l1,0l0,1l0,1l-1,-1l-1,0l-1,1l1,0c0,1,0,1,0,1l1,0l1,0c0,0,1,0,1,0l0,1l-5,1l1,-1l1,0c-1,0,-1,0,-1,-1c0,0,-1,0,-1,-1c0,0,1,0,1,0ZM324.5,283.5l4,-2l0,1l-4,2ZM224.5,237.5l0,-1l0,-1c0,-1,0,-1,0,-2c0,0,0,-1,0,-1l1,-1c0,0,1,0,1,0l-1,1l0,1l-1,0l0,1c0,0,0,1,0,1c1,0,1,0,1,0c0,0,1,0,1,0l0,1c0,0,0,1,0,1l-1,0l-1,0ZM300.5,234.5c1,0,1,0,1,-1c1,0,1,0,2,0c0,0,1,0,1,1c0,0,1,0,1,0c-1,1,-1,1,-1,1c0,1,0,1,-1,1l-1,0l-1,0l1,0c1,-1,1,-1,2,-1c0,0,-1,0,-1,0c0,0,-1,0,-1,0c0,0,-1,0,-1,0l-1,0c0,0,0,-1,0,-1ZM113.5,226.5c0,1,0,2,0,3l-1,1l0,1c0,0,-1,0,-1,0c0,0,-1,0,-1,0l1,0l0,-1c0,0,1,0,1,0c0,0,0,-1,0,-1l-1,0l0,-1l-1,0c0,0,0,-1,0,-1c1,0,1,0,1,0c0,1,0,1,0,1c1,0,1,0,1,1c0,0,1,0,1,-1l0,-1ZM244.5,242.5l0,-1l1,0c0,0,1,0,1,-1l0,-1l0,-1l-1,-1l0,-1l0,-1l1,0l0,1c0,0,0,1,0,1l0,1l0,1l0,1l0,1l1,-1l0,-1c1,0,1,0,1,0c1,0,1,0,1,0c0,0,1,1,1,1l0,1l-1,0c0,0,0,1,-1,1l-1,0c0,0,-1,0,-1,0ZM248.5,240.5l-1,0l0,1l-1,0c1,0,1,0,1,0c1,0,1,0,1,0c0,0,1,0,1,0c0,-1,0,-1,0,-1c-1,0,-1,0,-1,0ZM90.5,235.5l0,1l0,1c0,0,1,0,1,0c0,0,0,-1,1,-1l0,-1l0,1l1,0l1,-1l0,-1l0,1l0,1l0,1l-1,0l0,1l0,-1c-1,0,-1,0,-1,0l0,1c-1,0,-1,0,-2,0l0,-1l0,-1ZM94.5,250.5l-2,-1l-1,1l-1,-1l1,-1l1,1l1,-1l2,0ZM91.5,245.5c0,0,1,0,1,0c1,0,1,0,1,-1c1,0,1,0,1,0l-1,0c0,0,0,-1,0,-1c0,0,0,-1,0,-1l0,-2c1,1,1,1,1,1c0,1,0,1,0,1l0,1l0,1l0,1l0,1c-1,0,-1,0,-2,1c0,0,-1,0,-1,0l-1,0c0,0,-1,0,-1,0l0,1c0,1,0,1,-1,2l0,1c0,0,-1,0,-1,0c0,1,-1,1,-1,1c0,0,-1,0,-1,0c0,0,-1,0,-1,0c-1,0,-1,0,-2,0c0,0,-1,0,-1,0l0,-1c0,0,1,0,1,0l1,1c0,0,1,-1,1,-1c1,0,1,0,1,0c1,-1,1,-1,1,-1c0,0,1,0,1,-1l1,-1l0,-1c0,0,0,-1,0,-1c0,0,0,-1,0,-1l0,-1l1,1l1,0l1,0ZM92.5,230.5c0,0,0,-1,0,-1c1,0,1,0,1,0c1,0,1,0,1,1l0,1c0,0,-1,0,-1,1l1,0l0,1l-1,0l-1,0c0,1,-1,1,-1,1l-1,0l-1,0l1,0l1,-1l1,0l0,-1c0,0,-1,-1,-1,-1c0,0,1,-1,1,-1ZM93.5,230.5l-1,0l0,1l1,0c0,0,0,-1,0,-1ZM84.5,236.5l1,0c0,-1,0,-1,1,-1c0,0,1,0,1,1c1,0,1,0,1,0c0,1,-1,1,-1,1c0,1,0,1,0,1c-1,0,-1,0,-1,0c-1,0,-1,0,-1,0l-1,0l1,0c1,0,2,-1,2,-1l-1,0l-1,0l-1,0l-1,0c0,0,0,-1,0,-1c0,0,1,0,1,0ZM73.5,245.5l0,1c0,0,-1,0,-1,0c0,1,0,1,-1,1l-1,0c0,0,-1,0,-1,-1c0,0,-1,0,-1,-1l0,1l0,1c0,1,0,1,0,2c-1,0,-1,1,-1,1c-1,1,-1,1,-1,1c0,0,-1,0,-1,0c-1,1,-1,1,-1,1c-1,0,-1,0,-2,0l-1,0l-1,0c0,0,-1,-1,-1,-1c0,0,0,-1,-1,-1c0,0,0,-1,0,-1c0,-1,0,-2,0,-2c1,-1,1,-1,1,-1l0,-1l1,0l0,-1l0,1l-1,0c0,1,0,1,0,1c0,1,0,1,0,1c0,1,0,2,1,2c0,1,1,1,2,1c1,0,2,0,3,-1c1,0,2,0,2,-1c0,0,0,-1,0,-1l0,-3c0,0,0,-1,0,-1c0,-1,0,-1,0,-1l0,-7l1,-2l0,10c0,1,0,1,0,1c0,0,1,0,1,0c0,1,0,1,0,1c1,0,1,0,1,0l1,0c0,0,1,0,1,0c0,0,1,0,1,-1c0,0,1,0,1,-1l0,1l0,1l1,0c1,0,1,0,2,0c0,0,0,-1,0,-1c1,0,1,0,1,0c0,0,0,-1,0,-1l0,-1l0,1l0,1l1,0c0,0,0,1,0,1l1,0c1,0,1,0,1,0l0,-1l-1,0l1,-1l0,1l0,1l0,1c0,1,-1,1,-1,1l-1,0c0,-1,0,-1,-1,-1l-1,0l-1,1c0,0,-1,0,-1,0c-1,0,-1,0,-1,-1c0,-1,-1,-1,-1,-1ZM80.5,250.5l-4,2c0,0,0,-1,0,-1l5,-2ZM65.5,255.5l-4,2c0,-1,0,-1,0,-1l4,-2ZM123.5,244.5c0,1,-1,2,-1,2c0,0,0,1,0,1l-1,1l1,1l-1,1c0,0,-1,0,-1,0l0,1c-1,0,-1,0,-2,1l-1,0l-1,0c0,0,0,1,0,1l-1,0l-1,1c0,1,0,1,0,1l-2,0l-2,0c0,0,0,-1,0,-1l-1,-1c0,0,-1,0,-1,-1c-1,0,-2,0,-2,0l-1,-1l-1,0l0,-1l-1,0l-1,-1l1,-1l-1,0l0,-1l0,-1l-1,0l0,-1l0,-1l0,-1c0,0,1,-1,1,-2l1,-1l-1,0c0,-1,0,-1,0,-1l1,0l0,-1l1,0l1,-1l1,-1l2,0l1,-1l1,-1l2,0l2,0l0,1l1,0l0,1l1,0l2,1l1,0l1,1l1,0c0,1,1,1,1,2l-1,0l1,1l0,1l0,1ZM114.5,254.5l0,-1l1,0l1,-1c0,0,1,0,1,0l1,0l0,-1c1,0,1,0,1,0l1,0l0,-1l1,0l0,-1l1,0l-1,-1l0,-1l1,0l0,-1l0,-1l0,-1c0,-1,0,-1,0,-2l-1,-1l0,-1l1,0c0,-1,-1,-1,-1,-1l-1,-1l-1,0l0,-1l-2,0l-1,-1c-1,0,-1,0,-1,0l-1,-1l0,-1l-2,0l-2,0l0,1l-1,1c0,0,-1,0,-1,0l-2,1l-1,0l0,1l-1,0l-1,1l-1,1l1,0l0,1l-1,0l0,1l0,1c0,1,0,1,0,1l0,1l0,1l0,1l1,0l0,1l-1,1l1,0l0,1l1,0l0,1l1,0l1,0l0,1l1,0l1,0c0,0,1,0,1,1l1,0l0,1l2,0ZM119.5,239.5l0,1l-1,0l0,-1l-1,0l0,-1c-1,0,-1,0,-1,0l0,-1l1,1c0,0,1,0,1,0l1,1ZM119.5,249.5l0,1l-1,0l-1,1l-1,0c0,0,0,-1,0,-1c0,0,1,0,1,0l1,0c0,-1,0,-1,1,-1ZM115.5,251.5c0,0,0,1,-1,1l-2,0l-2,0l-1,0c0,-1,0,-1,0,-1l0,-1c0,0,1,0,1,0l2,0l2,0l1,1ZM115.5,237.5c0,1,0,1,-1,1l0,1l-2,0l-2,0c0,0,0,-1,-1,-1l0,-1l0,-1l1,0l2,0l2,0c1,0,1,1,1,1ZM114.5,240.5l0,-1c1,0,1,0,1,0c1,0,1,0,1,1c1,0,1,0,1,0l1,1l1,0l1,1l0,1l0,1l0,1c0,0,0,1,0,1l0,1l-1,0c0,0,0,1,0,1l-1,0l-1,0c0,0,0,1,0,1l-1,0l-1,0c0,0,-1,0,-1,0l0,-1l-2,0l-2,0l0,1c-1,0,-1,0,-1,0c-1,0,-1,0,-2,0c0,0,0,-1,-1,-1l-1,0l-1,-1l0,-1l0,-1l0,-1c0,0,0,-1,0,-1l0,-1l0,-1c1,0,1,0,1,0l1,0l1,-1c1,-1,1,-1,2,-1l1,0l0,1l2,0ZM114.5,248.5l0,1c0,0,1,0,1,0l1,0l1,-1c1,-1,1,-1,1,-1l1,1l0,-1l1,-1l0,-1l0,-1c0,0,0,-1,0,-1c0,-1,-1,-1,-1,-2l-1,0l-1,-1l-1,0l-1,0l-1,0l-2,0l-2,0l-1,0c-1,0,-1,0,-1,0l-1,0l0,1c-1,0,-1,0,-1,0l-1,0l-1,1l0,1l0,1c0,1,0,1,0,1l0,1c0,1,1,1,1,2l1,-1l0,1l1,0l1,1l1,0l1,0c0,0,0,-1,0,-1l2,0l2,0ZM113.5,246.5l-1,0l1,-1l0,1ZM111.5,243.5l0,1l1,0l0,1l0,1l-1,0c0,0,0,1,0,1l0,-1c0,-1,0,-2,-1,-3ZM105.5,239.5l1,-1l1,0l1,-1l0,1c0,0,-1,0,-1,0c0,0,0,1,-1,1l-1,1ZM105.5,249.5c0,0,1,0,1,1l1,0l1,0c0,0,0,1,0,1l-1,0c-1,0,-1,-1,-2,-1l0,-1ZM160.5,237.5l-1,-1l1,-1l1,1ZM166.5,243.5c-1,1,-2,1,-3,2c-1,0,-2,1,-3,1c-1,0,-2,1,-3,1l-1,0l-1,0l-1,0c-1,0,-1,0,-2,0c0,-1,0,-1,-1,-1c0,0,-1,0,-1,1c-1,0,-2,0,-2,0l-1,0l-1,0c-1,0,-2,0,-2,-1c-1,0,-1,-1,-1,-2l0,-8l1,-2l0,9l0,1c1,1,1,1,2,1l2,0c1,0,1,0,1,0c0,0,1,0,1,0c0,0,0,-1,0,-1c0,-1,0,-1,0,-2c0,-1,0,-1,1,-1c0,0,0,-1,0,-1c1,0,1,-1,2,-1c0,0,1,1,1,1c0,1,0,1,0,2l0,1c0,1,0,1,0,1c0,0,-1,1,-1,1l1,0c0,0,1,0,1,0l1,0l1,0l1,0c0,0,1,0,1,0c0,-1,0,-1,-1,-2l0,-1l0,-1l1,0c0,-1,0,-1,0,-1c0,-1,1,-1,1,-1l1,0c0,0,0,-1,1,-1l1,1c1,0,1,0,1,0l0,1l1,0l-1,0l-1,0l-1,0l-1,0l-1,0c0,0,-1,1,-1,1l0,1c1,0,1,0,1,0c1,1,1,1,2,2l1,-1c0,0,1,0,1,0l1,0l0,-1l1,0ZM160.5,230.5l4,-2l0,1c-1,0,-1,0,-1,0l-4,2ZM152.5,239.5l-1,-1l1,-2l1,1ZM152.5,241.5c0,0,0,1,-1,1l-1,1c0,0,1,0,1,0c0,0,0,1,1,1c0,0,1,0,1,-1c0,-1,0,-1,0,-1c0,0,-1,-1,-1,-1ZM151.5,229.5l0,1c0,0,1,0,1,0l1,-1l0,-1l0,1c0,1,0,1,1,1c0,0,0,-1,0,-1l0,-1l0,1l0,1l0,1l-1,0l0,-1l0,1l-1,0c-1,0,-1,0,-1,0l0,-1l0,-1ZM155.5,226.5l-5,3c0,-1,0,-1,0,-1l6,-3ZM132.5,250.5c0,0,1,0,1,0l1,0c0,0,1,0,2,-1c1,0,1,0,2,-1c0,0,0,-1,1,-1c0,-1,0,-1,0,-1c0,-1,0,-1,0,-1l0,-1l-1,-1l1,-1l0,-1l0,1c0,0,1,0,1,1l0,1l0,1c0,0,0,1,0,1c0,1,0,1,0,1c0,0,-1,1,-1,1c0,0,0,1,0,1c0,0,-1,0,-1,1l-1,0l0,1c-1,0,-1,0,-1,0c-1,0,-1,0,-1,0l-1,0c0,0,-1,0,-1,0c0,0,0,-1,-1,-1ZM134.5,235.5l5,-3c-1,1,-1,2,-1,2l-5,2ZM135.5,232.5l5,-3c0,1,0,1,0,1l-5,3ZM131.5,247.5l0,-1l0,-2l-1,-8l1,-2l1,10c0,1,0,1,0,1l-1,1c0,0,0,1,0,1ZM218.5,234.5c0,0,-1,0,-2,1c-2,0,-3,1,-4,1c-1,1,-2,1,-3,1l0,1l1,1l1,1c1,0,1,0,2,1c0,0,0,1,0,1c1,1,1,1,1,2c0,0,0,1,-1,1c0,0,0,1,0,1c0,0,-1,0,-1,0c0,0,-1,1,-1,1c0,0,-1,0,-1,0l-1,0c0,0,0,-1,-1,-1l0,-1l0,-1l-1,-8l1,-2l0,4l0,-1c1,0,1,0,1,0c0,-1,0,-1,0,-1c1,0,2,-1,3,-1c2,-1,3,-2,5,-2c0,0,1,0,2,-1ZM210.5,245.5l1,0c1,0,1,0,1,0c1,0,1,-1,1,-1c0,0,0,-1,0,-1c-1,-1,-1,-1,-2,-2c-1,0,-1,0,-1,-1c0,0,0,1,-1,1c0,0,0,-1,0,-1c-1,0,-1,0,-1,-1l0,4c0,0,1,1,1,1c0,1,0,1,1,1ZM213.5,230.5l4,-2l0,1c0,0,-1,0,-1,0l-4,2ZM190.5,245.5l-1,-1l1,-2l1,1ZM203.5,247.5l0,1l-1,0c0,1,0,1,-1,1c0,0,-1,0,-1,1c0,0,-1,0,-1,0c-1,1,-2,1,-3,1c-1,0,-2,0,-3,0c-1,0,-2,0,-2,0c-1,0,-2,0,-2,0c-1,0,-2,0,-2,0c-1,0,-1,0,-2,0c-1,0,-2,0,-3,0c0,0,-1,-1,-2,-1c-1,0,-2,-1,-3,-1c-1,-1,-2,-2,-3,-2c0,0,0,-1,0,-1c0,0,1,0,1,0c0,1,1,1,1,1c1,0,1,1,2,1c1,0,1,0,2,0c0,1,1,1,1,1c1,0,2,0,2,0c1,1,2,1,2,1c1,0,1,0,2,0c1,0,1,0,2,0c0,0,1,0,2,0c0,0,1,0,2,0c1,0,1,0,2,-1c1,0,2,0,3,0c1,0,2,-1,2,-1c2,-1,3,-1,3,-2c0,-1,0,-1,0,-1l-1,-1l0,-1c0,0,-1,0,-1,0l1,-2l1,1l0,1c0,0,1,1,1,1c0,0,0,1,0,1c0,0,0,1,0,1c-1,0,-1,1,-1,1ZM182.5,237.5l3,-1l5,-2l5,-1l0,-1l1,0l-1,2l-1,0l-2,1l-1,0l-6,2l-4,1l0,1ZM233.5,240.5l-2,-1l1,-1l2,1ZM232.5,247.5l-1,0c0,0,-1,0,-1,0c-1,-1,-1,-1,-1,-1l0,-1c-1,0,-1,0,-1,0c0,0,0,-1,0,-1c0,1,0,1,-1,1l-1,0c-1,0,-1,0,-2,0l0,-1c0,-1,0,-1,1,-2c0,0,1,0,2,-1c0,0,1,-1,1,-1l-1,0c0,0,1,-1,1,-1l0,-1l0,2c0,0,1,0,1,1l0,1l0,2c0,1,0,1,1,1c0,0,1,0,1,0l1,0c1,0,1,0,2,0c0,0,1,0,1,-1c0,0,0,-1,0,-1c0,0,-1,-1,-1,-1l1,-2c0,1,0,1,0,1c0,1,0,1,0,1l1,0l0,1l0,1l0,1c0,0,-1,0,-1,0l0,1c0,0,-1,0,-1,1c-1,0,-1,0,-2,0ZM231.5,229.5l0,1l1,0l0,-1c0,0,1,1,1,1l0,-1l1,-1l0,1l0,1c0,0,0,1,-1,1c0,0,-1,0,-1,0c0,0,-1,1,-1,1c0,0,0,-1,-1,-1l0,-1l0,-1ZM235.5,226.5l-6,3c1,-1,1,-1,1,-1l5,-3ZM228.5,241.5l-1,1l-1,0c0,1,-1,1,-1,1l1,0l1,0c0,0,1,0,1,0ZM280.5,250.5l1,0c1,0,2,0,3,-1c0,0,1,0,1,-1c1,0,1,-1,1,-1c1,-1,1,-1,1,-1c0,-1,0,-1,0,-1l0,-1l-1,0l0,-1l0,-1l1,-1l0,1l0,1l1,1l0,1c0,0,0,1,0,1c0,1,-1,1,-1,1c0,0,0,1,0,1c0,0,0,1,0,1c-1,0,-1,0,-1,1c0,0,-1,0,-1,0l-1,1l-1,0l-1,0c0,0,-1,0,-1,0c0,0,-1,-1,-1,-1ZM282.5,237.5l5,-2l-1,1l-4,2ZM279.5,251.5l-2,-1l1,-2l2,1ZM276.5,247.5l-1,0c-1,0,-1,0,-2,-1l-1,-1l-2,-2c0,0,-1,0,-1,0l0,-1l0,1l0,1c0,0,-1,0,-1,1c0,0,0,1,0,1c0,0,-1,0,-1,0c0,0,0,1,-1,1l-1,0l-1,0l-2,0c0,0,-1,0,-1,-1l-1,0l0,1l0,1c0,1,0,1,0,1c-1,0,-1,0,-1,-1c-1,0,-1,-1,-1,-1l0,-1c-1,0,-1,0,-1,0l-1,0c0,0,0,1,-1,1c0,0,0,1,0,1l0,1l1,0l0,3l0,2c0,0,0,1,0,1l0,1l0,1l0,-1l0,-1l0,-1l-1,-3l0,-2l0,-1l0,-1c0,-1,0,-2,1,-2l1,-1l1,0l0,-1l1,0c0,0,1,1,2,1l1,1l2,0l1,0l1,0c0,0,1,0,1,0c1,-1,1,-1,1,-1c0,0,0,-1,0,-1l0,-1l-1,0c0,0,0,-1,0,-1c-1,0,-1,0,-1,-1c-1,0,-1,0,-1,0l-1,0l-1,-1c0,0,0,-1,0,-1l0,-1l1,-1c1,0,2,-1,3,-1c1,-1,3,-2,4,-2c2,-1,3,-1,3,-1c1,0,1,0,1,0l-1,1c0,0,0,1,0,1c-1,0,-2,0,-3,0c-1,1,-3,2,-4,2c-2,1,-2,1,-3,1l0,1l1,0c0,0,1,1,1,1l1,0l0,1c1,0,2,0,2,1c1,0,1,1,2,1c0,0,1,1,1,1l2,2l1,0l1,0c1,0,1,0,2,0c0,0,1,0,1,-1c0,0,0,-1,0,-1l-1,0l0,-1l1,-2c0,1,0,1,0,1l0,1l1,0l0,1l0,1l0,1l-1,0l0,1c0,0,-1,0,-1,1c-1,0,-1,0,-2,0ZM276.5,235.5l0,1l1,0c0,0,0,-1,0,-1l0,-1l1,0l0,1c1,0,1,0,1,-1l0,-1l0,1l0,1c0,1,0,1,0,1l-1,0l-1,0c0,1,0,1,-1,1c0,-1,0,-1,0,-1l0,-1ZM280.5,232.5l-5,2c0,0,0,-1,1,-1l5,-3ZM268.5,228.5c0,-1,0,-1,0,-1c0,-1,1,-1,1,-1c1,1,1,1,1,1c0,1,0,1,0,1l-1,1l1,0l0,2l-1,-1l-1,0l0,1c-1,0,-1,1,-1,1l-1,0l-1,0l1,-1l1,0l0,-1l1,0l0,-1c-1,0,-1,0,-1,-1l1,0ZM269.5,228.5l-1,0l0,-1c0,0,0,1,0,1l1,1l0,-1ZM254.5,236.5c1,0,1,0,1,0c1,-1,1,-1,2,-1c0,0,1,0,1,1c1,0,1,0,1,0c0,1,-1,1,-1,1c0,1,0,1,-1,1c-1,0,-1,0,-1,0l-1,0l1,0c1,0,2,-1,2,-1c0,0,-1,0,-1,0l-1,0c0,0,-1,0,-1,0l-1,0c0,0,0,-1,0,-1ZM352.5,247.5l0,-1l0,-2l0,-8l0,-2l1,10c0,1,0,1,0,1l0,1c0,0,-1,1,-1,1ZM340.5,245.5l0,1c-1,0,-1,0,-1,0c-1,1,-1,1,-1,1c0,0,-1,0,-1,0l-1,0c-1,0,-1,-1,-1,-1l-1,0c0,-1,0,-1,0,-1c0,1,0,1,-1,1c0,0,0,1,-1,1l-1,0c-1,0,-1,0,-1,0c-1,-1,-1,-1,-1,-1c-1,0,-1,0,-1,-1l-1,0c0,0,0,1,-1,1c0,0,-1,0,-1,0c0,0,-1,1,-1,1l-1,0l-1,0l-1,0c-1,0,-2,0,-2,0c0,-1,-1,-1,-1,-1c0,0,-1,0,-2,1c0,0,-1,0,-1,0l-1,0c0,0,-1,0,-1,0l0,1c0,1,0,1,-1,2l0,1c-1,0,-1,0,-1,0c0,1,-1,1,-1,1c0,0,-1,0,-1,0c0,0,-1,0,-1,0c-1,0,-1,0,-2,0c0,0,-1,0,-1,0l0,-1c0,0,1,0,1,0l1,1c0,0,1,-1,1,-1c1,0,1,0,1,0c1,-1,1,-1,1,-1c0,0,1,0,1,-1l0,-1c1,0,1,0,1,-1c0,0,0,-1,0,-1c0,0,-1,-1,-1,-1c0,0,1,0,1,0l0,-1l1,1l1,0l1,0c1,0,1,0,1,0l1,0c-1,0,-1,-1,-1,-1c0,-1,0,-1,1,-2c0,-1,0,-1,0,-1c0,0,1,-1,1,-1c0,0,1,-1,1,-1c1,0,1,1,1,1c1,1,1,1,1,2l0,1c0,1,0,1,-1,1c0,0,0,1,0,1l1,0l1,0l1,0c0,0,1,0,1,0c1,0,1,0,1,0c1,-1,1,-1,1,-1l-1,-1c-1,0,-1,0,-1,0l0,-1c0,0,1,-1,1,-1c0,0,1,0,1,0c0,0,1,0,1,0c0,0,1,0,1,0c0,0,1,0,1,0c0,0,0,1,0,1c0,0,1,0,1,0c0,1,-1,1,-1,1c0,0,0,1,-1,1c0,0,1,0,1,1l1,0c0,0,1,0,1,0l1,0c1,0,1,0,1,0c0,-1,1,-1,1,-1c0,0,0,-1,0,-1l1,0l0,1c0,0,-1,0,-1,0c1,0,1,1,1,1c1,0,1,0,1,0l2,0l1,0c0,0,1,0,1,-1l1,-1l0,1l0,1l1,0c1,0,1,0,1,0l1,0c0,0,0,-1,0,-1c0,0,1,-1,1,-1l0,-1l0,1l0,1l1,0c0,0,0,1,0,1l1,0l0,-1l0,-1l1,0l0,1l0,1l0,1l-1,0c0,1,0,1,0,1c-1,0,-1,0,-1,0c-1,-1,-1,-1,-1,-1l-1,0c0,0,-1,0,-1,1c-1,0,-1,0,-1,0c0,0,-1,0,-1,0l0,-1l-1,0c0,-1,0,-1,0,-1ZM341.5,236.5c0,0,1,0,1,-1c0,0,1,0,1,0c1,0,1,0,2,1c0,1,0,1,0,1c-1,1,-1,1,-1,1c0,0,-1,0,-1,0l-1,0c0,0,-1,0,-1,0l2,0c1,-1,1,-1,1,-1c-1,0,-1,0,-1,0c-1,0,-1,0,-1,0c-1,0,-1,0,-1,0c0,0,0,-1,0,-1ZM335.5,241.5l-1,-1l-1,1l-2,-1l1,-1l2,1l1,-2l1,1ZM332.5,234.5l4,-2l0,1l-4,2ZM327.5,239.5l-1,-1l0,-2l2,1ZM323.5,229.5c0,0,1,-1,1,-1c1,0,1,0,1,0c1,0,1,0,2,0c0,1,0,1,0,1c0,1,0,1,0,1c0,1,-1,1,-1,1c0,0,-1,0,-1,0l-1,0l-1,0l2,0c1,-1,1,-1,2,-1c-1,0,-1,0,-1,-1c0,0,-1,0,-1,0c0,0,-1,0,-1,1c0,0,-1,0,-1,0c0,-1,0,-1,0,-1ZM319.5,239.5l-2,-1l1,-2l2,1ZM319.5,241.5c-1,0,-1,1,-1,1c-1,0,-1,0,-1,1c1,0,1,1,1,1c1,0,1,0,1,-1c1,0,1,0,1,0c0,-1,0,-1,0,-1c-1,0,-1,-1,-1,-1ZM319.5,250.5l-5,2c1,-1,1,-1,1,-1l4,-2ZM311.5,231.5c0,0,0,-1,0,-1c0,0,1,0,1,0c1,0,1,0,1,1l0,1c-1,0,-1,0,-1,0l1,1l0,1l-1,0l-1,0c-1,1,-1,1,-1,1l-1,0c-1,0,-1,0,-1,0l1,0l1,-1l1,0l0,-1c-1,-1,-1,-1,-1,-1c0,0,0,-1,1,-1ZM312.5,231.5l-1,0l0,1l1,0l0,-1ZM304.5,243.5l-1,0c0,1,1,1,1,1c0,0,1,0,1,-1c-1,0,-1,0,-1,0ZM304.5,250.5c0,1,0,1,-1,1c-1,0,-1,0,-2,0c-1,0,-1,0,-2,0c0,0,-1,0,-1,0c0,-1,0,-1,0,-1c0,0,1,1,1,1l1,0c1,0,1,0,1,-1l1,0c1,0,1,-1,1,-1c1,0,1,-1,1,-1c0,0,1,0,1,-1c0,-1,0,-1,0,-1c0,0,0,-1,0,-1l0,1c0,0,-1,0,-1,0c0,0,-1,0,-1,0l0,-1c-1,0,-1,0,-1,0l0,-1l0,-1c0,0,1,-1,1,-1c0,-1,0,-1,1,-1c1,0,1,0,1,0l1,1l0,1l0,1l0,1l0,1c0,1,0,2,-1,3l0,1c-1,0,-1,0,-1,0ZM297.5,247.5l0,-1l0,-2l0,-8l0,-2l1,10c0,1,0,1,0,1l0,1c0,0,-1,1,-1,1ZM393.5,237.5l-1,-1l1,-1l1,1ZM396.5,245.5l-1,0c0,0,0,1,0,1c-1,0,-1,0,-2,1c-1,0,-1,0,-2,0l-1,0l-1,0c-1,0,-2,0,-2,0c-1,-1,-1,-1,-1,-1c-1,0,-1,0,-2,1c-1,0,-1,0,-2,0l-1,0c0,0,-1,0,-1,0c0,-1,-1,-1,-1,-2c0,0,0,1,-1,1l0,1l-1,0c-1,0,-1,0,-1,0c0,0,-1,-1,-1,-1l0,-1c0,1,-1,1,-1,1l-1,0c0,1,-1,1,-2,1l-2,0c0,0,0,1,0,1c-1,0,-1,0,-1,0l-1,0l-1,0c-1,0,-3,0,-3,-1c-2,0,-2,0,-3,-1l-1,-1c0,0,0,-1,0,-1c0,-1,0,-1,0,-2c1,0,1,-1,1,-1c0,0,1,0,1,0c0,0,-1,1,-1,1c0,1,0,1,0,1c0,1,0,1,0,1c1,1,1,1,2,1c0,0,1,1,1,1c0,0,1,0,1,0c1,0,2,0,3,0c1,0,1,0,2,0c0,0,1,0,2,0l0,-1c1,0,1,0,1,0c1,0,1,0,2,-1c1,0,1,0,1,-1c0,0,0,1,0,1l0,1l1,0l1,0l1,0l1,-1c0,-1,0,-1,0,-1c0,0,0,-1,0,-1l-1,-7l1,-2l1,10c0,1,0,1,0,1l0,1c0,0,1,0,1,0l1,0c0,0,1,0,1,0l1,0c0,0,0,-1,0,-1c0,-1,0,-1,0,-2c0,-1,1,-1,1,-1c0,0,0,-1,0,-1c1,0,2,-1,2,-1c1,0,1,1,1,1c0,1,0,1,1,2l0,1c-1,0,-1,1,-1,1c0,0,0,1,-1,1c1,0,1,0,1,0l1,0l1,0l1,0c1,0,2,0,2,0c1,0,1,0,2,-1l0,-1l0,-1c0,1,0,1,0,1c0,0,-1,0,-1,0c0,0,0,1,-1,1c0,0,0,-1,-1,-1c0,-1,0,-1,0,-1c0,-1,0,-1,0,-2c0,-1,0,-1,1,-1c0,-1,0,-1,1,-1l1,1l0,1l1,0l0,1l0,1c0,0,0,1,0,1c0,1,0,1,0,1c0,1,0,1,0,1ZM393.5,241.5l-1,0c0,0,1,0,1,0l1,0l0,-1c0,0,-1,0,-1,0ZM392.5,231.5l4,-3l0,1c-1,0,-1,0,-1,1l-4,2ZM387.5,238.5l-1,-1l-1,2l-2,-1l1,-2l2,1l1,-1l1,1ZM386.5,241.5c0,0,0,1,-1,1l0,1c0,0,1,1,1,1c1,0,1,0,1,-1c0,0,1,0,1,0c0,-1,0,-1,-1,-1c0,0,0,-1,-1,-1ZM386.5,228.5c1,-1,1,-1,1,-1c0,-1,1,-1,1,-1c1,1,1,1,1,1c0,1,0,1,0,1l-1,1l1,0l0,2l-1,-1l-1,0l0,1c-1,0,-1,1,-1,1l-1,0l-1,0l1,-1l1,0l0,-1l1,0l0,-1c-1,0,-1,0,-1,-1ZM388.5,228.5l-1,0l0,-1c0,0,0,1,0,1l1,1l0,-1ZM377.5,225.5c0,0,1,0,1,0c1,0,1,0,1,0c1,0,1,0,2,0c0,1,0,1,0,1l0,1c0,0,-1,0,-1,0c0,0,-1,0,-1,1l-1,0l-1,0l2,-1c1,0,1,0,2,-1c-1,0,-1,0,-1,0c0,0,-1,0,-1,0c0,0,-1,0,-1,0c0,0,-1,0,-1,0c0,0,0,-1,0,-1ZM369.5,241.5l-2,-1l-1,2l-1,-1l1,-2l1,1l1,-1l2,1ZM366.5,228.5c0,-1,0,-1,0,-1c1,-1,1,-1,1,-1l1,0c0,1,0,1,0,1c0,1,0,1,0,1l0,1l-1,0l1,0l0,2l-1,-1l-1,1c0,0,-1,1,-1,1l-1,0l0,-1l1,0l0,-1l1,0l0,-1c0,0,-1,0,-1,-1l1,0ZM367.5,228.5l-1,-1c0,0,0,1,0,1l1,0l0,1l0,-1ZM348.5,325.5c0,0,1,0,1,0c0,0,1,0,1,0c1,0,1,0,2,0c0,0,0,1,0,1l0,1c-1,0,-1,0,-1,0c0,0,-1,0,-1,0c0,1,0,1,-1,1l-1,-1l2,0c1,0,1,-1,2,-1c-1,0,-1,0,-1,0c-1,0,-1,0,-1,0c0,0,-1,0,-1,0c-1,0,-1,0,-1,0c0,-1,0,-1,0,-1ZM295.5,322.5l1,0c0,-1,0,-1,1,-1c0,0,1,0,1,1c1,0,1,0,1,0c0,1,-1,1,-1,1c0,1,0,1,0,1c0,0,-1,0,-1,0c-1,0,-1,0,-1,0l-1,0l2,0c0,0,1,-1,1,-1l-1,0c-1,0,-1,0,-2,0l-1,0l0,-1c1,0,1,0,1,0ZM173.5,322.5c0,-1,0,-1,1,-1l1,0c0,0,1,0,1,0c1,0,1,1,1,1c0,0,-1,1,-1,1l0,1c-1,0,-1,0,-1,0c-1,0,-1,0,-1,0l-1,0l1,-1c1,0,2,0,2,-1l-1,0l-1,0l-1,0l-1,1l0,-1c0,0,1,0,1,0ZM86.5,322.5c1,0,1,0,1,-1l0,-1l0,-1l0,-2l0,-1l1,0l-1,1l0,1l0,1l1,0l0,1l-1,0l0,1l1,-1l1,0l1,0l0,-1c0,0,0,1,1,1l0,1c0,1,0,1,-1,1c0,0,-1,0,-1,0c-1,0,-1,0,-1,0ZM90.5,320.5c-1,0,-1,0,-1,1l-1,0l-1,1l1,0c1,0,1,0,1,0l0,-1c1,0,1,0,2,0l-1,0c0,0,0,-1,0,-1ZM207.5,328.5l0,1l1,0l0,-1l0,-1l1,0l0,1c1,0,1,0,1,0l0,-1c0,1,0,1,0,1l0,1l0,1l-1,0c0,0,0,-1,0,-1l-1,1l-1,0l0,-1l0,-1ZM211.5,325.5l-5,3c0,-1,0,-1,0,-1l6,-3ZM371.5,326.5l0,1l1,0l1,0l0,-1l0,1c0,0,1,0,1,0c0,0,0,-1,0,-1l0,-1l1,0l0,1l0,1c-1,0,-1,1,-1,1l-1,0l0,-1l0,1c-1,0,-1,0,-1,0c-1,0,-1,0,-1,0l0,-1l0,-1ZM376.5,323.5l-6,3c0,-1,1,-1,1,-1l5,-3ZM118.5,330.5c0,-1,0,-1,0,-2c0,0,-1,-1,-1,-1l1,-1l0,1l0,1l0,1c0,0,0,1,0,1ZM100.5,337.5c0,1,0,2,0,2l-1,1c0,1,0,1,0,1l1,0l0,1l-1,0l-1,1l-1,0l0,1l-1,0l-1,1l-1,0l-1,0l0,1l-1,1l-1,0l-3,0l-1,0c-1,0,-1,0,-1,0l-1,-1c0,0,0,-1,-1,-1c-1,0,-1,0,-2,-1l-1,0l-1,0l0,-1l-1,0l0,-1l-1,0l0,-1l1,0l0,-1l-1,0l0,-1l0,-1l0,-1l0,-1l0,-1l0,-1l1,0l0,-1l-1,0l0,-1l1,0l0,-1l1,0l0,-1l1,0l1,0l1,-1l1,0l1,0l0,-1l1,-1l1,-1l1,0l3,0l1,1l0,1l1,0l0,1l2,0l1,1c1,0,1,0,1,0l1,1c1,1,1,1,2,1l0,1l-1,0l0,1l1,0l0,1l0,1ZM91.5,347.5l1,-1l1,-1c1,0,1,0,2,0l0,-1l1,0c0,0,1,0,1,-1l1,0l0,-1l1,0l-1,-1l1,0l0,-1l0,-1l1,0l0,-1l0,-1c0,-1,0,-2,0,-2c-1,0,-1,0,-1,-1l0,-1l-1,0l1,-1l-1,-1l-1,-1l-1,0l-1,-1l-2,0l0,-1l-1,0l0,-1l-1,0l-1,0l-2,0l-1,0l-1,0l0,1l-1,0c0,1,0,1,-1,1l-1,1l-1,0l-1,0l-1,1c-1,1,-1,1,-2,1l1,1l1,0l-1,0l0,1l-1,1l0,1c0,0,0,1,0,1l0,1l0,1l1,1l0,1l1,0l-1,0l-1,1l1,0l1,0l0,1l1,0l0,1l1,0l1,0l0,1l1,0c1,0,1,0,1,1l1,0c0,1,1,1,1,1l1,0ZM97.5,332.5l-1,0l0,1l0,-1l-1,0l0,-1l-1,0c0,0,-1,0,-1,0c0,0,1,0,1,0c0,0,0,-1,0,-1l-1,0c1,0,1,0,1,0l1,0l0,1c0,0,1,0,1,0l0,1l1,0ZM97.5,342.5l-1,0l0,1l-1,0l-1,1l-1,0l1,0l0,-1l-1,0c1,0,1,0,1,0l1,0c1,-1,1,-1,1,-1l1,0ZM92.5,344.5c0,0,0,1,0,1c0,0,-1,0,-1,0l-3,0l-1,0c-1,0,-1,0,-1,0l-1,-1c0,0,0,-1,1,-1l1,0l1,0l3,0l1,0l0,1ZM92.5,330.5c0,0,0,1,0,1l-1,0l-3,0l-1,0c-1,0,-1,0,-1,0l-1,0l0,-1c0,0,0,-1,1,-1l1,0l1,0l3,0c0,0,1,0,1,0l0,1ZM91.5,333.5c0,-1,0,-1,1,-1l1,0c0,0,1,0,1,0c0,0,0,1,1,1l0,1l2,-1l0,1l0,1l1,0l0,1l0,1l0,1l0,1l-1,0c0,1,0,1,0,1l0,1l-1,-1c-1,0,-1,0,-1,1c0,0,-1,0,-1,0l0,1l-1,0l-1,0l-1,-1l-3,0l-1,0l-1,0l0,1l-1,0c-1,0,-1,0,-1,0c-1,-1,-1,-1,-1,-1l-1,-1l-1,1l0,-1l-1,-1l0,-1l0,-1c0,0,0,-1,0,-1c0,0,0,-1,0,-1l0,-1l1,0c0,-1,0,-1,0,-1l1,1c0,0,1,0,1,-1l1,0l0,-1l1,0c0,0,1,0,1,0l0,1l1,0l1,0ZM91.5,341.5l1,0l1,1l1,-1l1,0l0,-1l1,0l1,0l0,-1l0,-1l1,0l0,-1c0,-1,0,-1,-1,-2c0,0,0,-1,0,-1l-1,0l-1,0l0,-1l-1,0l-1,-1c0,0,-1,0,-1,0l0,1l-1,0l-3,0l-1,0l-1,0l0,-1l-1,0l-1,0c0,0,0,1,0,1l-1,0c0,1,-1,1,-1,1l-1,0l0,1l-1,0l0,1l0,1l0,1l0,1l1,0c0,1,0,1,0,1l1,0c0,0,1,0,1,0l0,1l1,0l1,1c0,0,1,-1,1,-1l1,0l1,0l3,0ZM91.5,335.5l0,1c-1,0,-1,0,-1,0l0,1l-1,0l1,0l0,1c0,1,0,1,0,1c-1,0,-1,0,-1,0l0,-1l0,-1l0,-1l-1,0l1,-1c0,1,0,1,1,1c0,0,1,0,1,-1ZM87.5,335.5l0,1l1,0c0,1,0,1,0,1l0,1l0,1c-1,0,-1,0,-1,0l1,0l0,-1c0,0,-1,-1,-1,-2ZM81.5,332.5l1,-1l1,0l0,-1l1,0l0,1l-1,0l-1,1l0,1l-1,-1ZM81.5,342.5l1,0l1,1l1,0c0,1,0,1,0,1l-1,0c0,-1,-1,-1,-1,-1l-1,0l0,-1ZM125.5,335.5l-2,-1l1,-1l2,1ZM123.5,339.5c0,-1,0,-1,0,-1c1,0,1,0,1,0c0,-1,1,-1,1,-1l1,0c1,1,1,1,1,1c0,1,0,1,0,1l0,1c0,-1,0,-1,0,-1c-1,0,-1,0,-1,0c0,0,-1,0,-1,0c0,0,-1,0,-1,0c-1,0,-1,0,-1,0c0,1,0,1,0,1l0,1l-1,0c0,1,1,1,1,2l0,1c-1,1,-1,1,-1,1c-1,0,-1,-1,-1,-1l0,-1c0,-1,0,-1,0,-2c0,-1,0,-1,0,-2c-1,0,-1,0,-1,0l-1,0l-1,0c-1,0,-1,0,-1,0l0,1l0,1c0,0,0,1,-1,2c-1,1,-1,1,-1,1c0,0,-1,1,-1,1c0,0,-1,0,-1,0c0,0,-1,0,-1,0c-1,0,-1,0,-2,0c0,0,-1,0,-1,-1c0,0,1,0,1,0l1,0c0,0,1,0,1,0c1,0,1,0,1,-1c1,0,1,0,1,0c0,0,1,-1,1,-1c0,0,0,-1,0,-1c1,0,1,-1,1,-1c0,-1,0,-1,0,-1c0,-1,-1,-1,-1,-1l1,-1l0,-1l0,1l1,0l0,1l1,0l1,0l1,0c0,0,1,0,1,0l1,-1c1,0,1,0,1,0l0,1l-1,0c0,1,-1,2,-1,3c0,1,1,1,1,2c0,-1,0,-1,0,-1c0,-1,0,-1,0,-1c0,0,0,-1,0,-1l0,-1c0,0,1,0,1,0ZM123.5,325.5c0,0,1,0,1,0c0,0,1,0,1,0c1,0,1,0,2,0c0,0,0,1,0,1l0,1c-1,0,-1,0,-1,0c0,0,-1,0,-1,0c0,0,0,1,-1,1c0,0,-1,-1,-1,-1l2,0c1,0,1,-1,1,-1c-1,0,-1,0,-1,0c-1,0,-1,0,-1,0c-1,0,-1,0,-1,0c0,-1,0,-1,0,-1ZM110.5,326.5l5,-2c0,0,0,1,-1,1l-4,2ZM112.5,323.5l5,-3c0,1,-1,2,-1,2l-5,2ZM108.5,340.5l0,-2l0,-1l0,-8l1,-3l0,11l0,1c0,1,0,1,-1,2ZM157.5,338.5c1,0,1,0,1,0c1,0,1,0,1,0c0,-1,1,-1,1,-1l0,-1l0,-2l-1,-6l0,-1l0,-1c1,0,1,0,1,0c0,1,0,1,0,1c1,0,1,0,1,0c0,1,0,1,0,1c0,1,0,1,0,1c0,1,0,1,0,2c0,0,0,1,0,3c0,0,0,1,0,1l0,1c0,0,0,1,0,1c0,0,0,1,0,1c-1,0,-1,0,-1,0c0,1,0,1,0,1l-1,0l-1,0l-1,0c-1,0,-1,0,-2,0l-1,-1l-2,-2c0,0,-1,0,-1,-1l-1,0l1,0l0,1l0,1l-1,0l0,1l0,1c0,0,-1,0,-1,0l-1,0l-1,0c1,1,1,1,1,1l0,1c0,1,0,1,-1,1c0,0,0,1,0,1c-1,0,-1,0,-2,-1c-1,0,-1,0,-1,0l-1,1c0,0,0,1,-1,1c0,0,-1,1,-2,1c-1,0,-3,0,-4,0l4,-2l2,-1c0,0,1,0,1,-1l1,-1c0,-1,0,-1,0,-1c1,0,1,-1,1,-1l1,0l1,0c1,0,1,0,1,0c0,0,1,0,1,0c0,-1,0,-1,0,-1c1,0,1,0,1,0l0,-1c0,0,0,-1,0,-1c0,0,-1,0,-1,0c0,-1,0,-1,0,-1c-1,0,-1,-1,-1,-1c-1,0,-1,0,-1,0c0,0,-1,0,-1,0c0,0,0,-1,-1,-1c0,-1,0,-1,0,-1l0,-1c0,-1,0,-1,1,-1c1,-1,2,-1,3,-2c1,0,3,-1,4,-1c2,-1,3,-1,3,-1c1,0,1,0,1,0l-1,1c-1,0,-2,1,-3,1c-2,1,-3,1,-4,2c-2,0,-2,1,-3,1c0,1,0,1,0,1l1,0c0,0,1,0,1,1l1,0c1,1,2,1,2,2c1,0,1,0,2,1c0,0,1,1,1,1l2,2l1,0ZM159.5,321.5l0,1c0,1,0,1,1,1l0,-1l0,-1l1,0l0,1c1,0,1,0,1,-1l0,-1l0,1l0,1c0,1,0,1,0,1l-1,0l-1,0c0,1,0,1,-1,1l0,-1l0,-1ZM163.5,319.5l-5,2c0,0,0,-1,0,-1l6,-3ZM149.5,320.5c1,0,1,0,1,-1c0,0,1,0,1,0c1,0,1,1,1,1c0,0,0,1,0,1l-1,0c0,1,0,1,0,1l1,0l0,1l-1,0l-1,0l0,1c-1,0,-1,0,-1,0l-1,1l-1,0l1,-1l1,0c0,0,0,-1,0,-1l1,0l0,-1c-1,0,-1,0,-1,-1l0,-1ZM151.5,321.5l-1,-1c0,1,0,1,0,1l1,0ZM147.5,341.5l-1,0l0,-1c0,0,0,-1,0,-1c0,0,-1,0,-1,1l1,1ZM140.5,329.5c0,0,0,-1,0,-1c1,0,1,0,2,0c0,0,1,0,1,0c1,0,1,1,1,1c0,1,-1,1,-1,1c0,0,0,1,-1,1c-1,0,-1,0,-1,0l-1,0l1,0c1,-1,2,-1,2,-1c0,0,-1,-1,-1,-1l-1,0l-1,1l-1,0c0,-1,0,-1,0,-1l1,0ZM208.5,336.5l-1,0c0,0,1,1,1,1c0,-1,0,-1,0,-1ZM208.5,343.5c0,0,-1,1,-1,1c-1,0,-2,0,-2,0c-1,0,-1,0,-2,0c0,0,-1,0,-1,-1c0,0,1,0,1,0l1,0c1,0,1,0,1,0l1,0c1,-1,1,-1,1,-1c1,-1,1,-1,1,-1c0,0,0,-1,1,-1c0,-1,0,-1,0,-2c-1,1,-1,1,-1,1c0,0,-1,0,-1,0l0,-1c-1,0,-1,0,-1,0c0,-1,0,-1,0,-1c0,0,0,-1,0,-1c0,-1,1,-1,1,-1c0,-1,0,-1,0,-1c1,0,1,-1,1,-1c0,0,1,1,1,1l0,1c1,0,1,0,1,0c0,1,0,1,0,1c0,1,0,1,0,2c0,0,0,1,0,1c0,1,0,1,-1,2c0,1,0,1,0,1c-1,1,-1,1,-1,1ZM205.5,333.5l-2,-1l0,1l-2,0l1,-2l1,1l1,-1l2,1ZM198.5,330.5c1,0,1,0,1,0c0,0,1,0,1,1l0,1c0,0,0,-1,0,-1l0,-1c0,0,0,-1,0,-1l-1,-1c-1,0,-1,1,-1,1c0,0,0,1,0,1c-1,0,-1,0,-1,1l-1,0c0,1,0,1,-1,1c0,0,0,1,0,1c-1,0,-1,0,-1,0c0,0,-1,0,-1,1c0,0,-1,0,-1,0c0,1,0,1,0,2l0,-1l1,0l1,0l1,1l1,0l1,0l-1,1l-1,0l-1,0c0,0,0,1,0,1l-1,0l-1,0l-1,0l-1,0l-1,0l-1,0c0,-1,0,-1,-1,-1c1,-1,1,-1,1,-1c0,-1,0,-1,0,-1c0,-1,0,-1,0,-1l-1,0c0,-1,0,-1,-1,-1c0,0,-1,0,-1,1c-1,0,-1,0,-1,0l-1,2c1,0,1,0,1,0l1,1l-1,0l0,1l-1,0c0,0,-1,0,-1,0l-1,0l-1,0c0,0,0,-1,0,-1c-1,0,-1,-1,-1,-1l0,-10l-1,2l0,6c0,1,0,1,0,1c0,1,0,2,0,2l1,3l-1,0c0,1,0,1,0,1c0,0,-1,1,-2,1c-1,1,-2,1,-3,1c-1,0,-2,-1,-2,-1c-1,-1,-1,-1,-1,-2c0,0,0,-1,0,-1l1,-1l0,-1l-1,1c0,1,0,1,0,2c-1,0,-1,1,-1,2l1,1l0,1c1,0,1,0,2,0l0,1l1,0c1,0,1,0,2,0c0,-1,1,-1,1,-1c0,0,1,0,1,0c0,-1,1,-1,1,-1c0,0,1,-1,1,-1c0,-1,0,-1,0,-2l0,-1l0,-1c0,0,1,1,1,1c0,0,1,0,1,0l1,0l1,0c1,0,1,0,1,0c0,0,1,0,1,0l0,-1l1,0l1,0c0,1,0,1,0,1c1,0,1,0,1,0c1,0,1,0,2,0l1,0l1,0l1,0l1,0l2,-1c1,0,1,0,1,0l1,-1c1,0,1,0,1,0l1,0l1,0l1,0l1,0l0,-1l-1,0c0,0,-1,0,-1,0c-1,0,-1,0,-1,-1c-1,0,-2,0,-2,0l-2,-1l-1,0c0,-1,1,-1,1,-1l1,-1l1,-1l0,-1ZM196.5,323.5l4,-2l0,1l-5,2ZM195.5,343.5l-2,-1l1,-1l2,1ZM190.5,322.5c0,-1,1,-1,1,-1c1,0,1,0,1,0c1,0,1,0,2,0c0,0,0,1,0,1c0,0,0,1,0,1c0,0,-1,0,-1,1l-1,0l-1,0l-1,0l2,-1c1,0,1,0,2,-1c-1,0,-1,0,-1,0c0,0,-1,0,-1,0c0,0,-1,0,-1,0c0,0,-1,1,-1,1l0,-1ZM185.5,326.5l4,-2l0,1l-4,2ZM246.5,343.5l-1,-1l1,-1l1,1ZM254.5,337.5l-1,0l-1,0c-1,0,-1,0,-2,0l-1,0l-1,0l-1,1l-1,0l-1,1l-1,0c-1,0,-1,0,-2,0l-1,0c-1,0,-1,0,-1,0c0,0,-1,0,-1,0l0,-1c-1,0,-1,0,-1,0c-1,0,-1,1,-1,1c0,0,-1,0,-1,0c0,0,-1,0,-2,0l-1,0c-1,0,-1,0,-1,0c0,0,0,-1,-1,-1l0,1c0,0,-1,0,-1,0c-1,0,-1,1,-2,1l-2,0l-1,0l-1,0l0,1l-1,0c-2,0,-3,-1,-4,-1c-1,0,-2,0,-2,-1c-1,0,-1,-1,-1,-1l0,-1l0,-1c0,0,0,-1,0,-1c0,0,1,-1,1,-1c0,0,0,1,0,1c0,0,0,1,0,1c0,0,0,1,0,1c0,0,1,1,2,1c1,0,1,1,2,1c1,0,2,0,3,0c0,0,1,0,1,0c1,0,1,0,2,-1l1,0l1,0c0,0,1,-1,2,-1c0,0,1,-1,1,-1l0,1l0,1c1,0,1,0,1,0l1,0c1,0,1,0,2,0c0,0,1,0,1,-1c1,0,1,0,1,0c0,0,1,0,1,0l1,1l1,0l1,0c0,0,1,0,1,0c0,0,1,0,1,-1c1,0,1,0,2,0l1,0l1,-1l-1,0l-1,-1l-1,0l-1,0l-1,0c0,0,0,-1,0,-1c0,0,1,0,1,-1c0,0,1,0,1,0c1,0,1,0,1,0l0,1l1,0l2,1l1,0l1,0l1,0c0,0,1,0,1,0l1,0ZM245.5,326.5l4,-2l0,1l-1,0l-4,2ZM237.5,335.5l-1,-1l1,-1l1,1ZM225.5,334.5l-1,-1l-1,1l-1,0l1,-2l1,1l1,-1l1,1ZM219.5,349.5l5,-3c0,0,0,1,0,1l-1,0l-4,3ZM221.5,345.5l5,-2c0,1,-1,1,-1,1l-5,3ZM280.5,338.5c0,0,1,0,1,0l1,0c0,-1,0,-1,0,-1c1,0,1,0,1,-1l0,-2l-1,-6l0,-1l0,-1l1,0c0,1,0,1,0,1l1,0c0,1,0,1,0,1c-1,1,-1,1,-1,1c0,1,0,1,0,2c0,0,0,1,0,3c0,0,0,1,0,1l0,1c0,0,0,1,0,1c0,0,0,1,0,1c0,1,0,1,-1,1c0,0,-1,0,-1,0l-1,0l-1,0c0,0,-1,0,-1,0c0,0,-1,0,-1,-1l-2,-2c-1,0,-1,0,-1,-1l-1,0l0,1l0,1l0,1l-1,1c-1,0,-1,0,-1,0c0,0,-1,0,-1,0c0,1,0,1,0,1l0,1c0,1,0,1,0,1c0,0,0,1,0,1l-1,0c0,0,-1,0,-1,-1c-1,0,-1,0,-2,0l0,1c0,0,-1,1,-1,1c-1,0,-1,1,-2,1c-2,0,-3,0,-4,0l4,-2l1,-1c1,0,1,0,2,-1l1,-1c0,-1,0,-1,0,-1c0,0,0,-1,0,-1c1,0,1,0,1,0l1,0l1,0c0,0,1,0,1,0c1,-1,1,-1,1,-1l1,-1c0,0,0,-1,-1,-1c0,-1,-1,-1,-1,-1c0,0,0,-1,-1,-1l-1,0c-1,0,-1,-1,-1,-1c0,-1,0,-1,0,-1l0,-1c0,-1,0,-1,0,-1c0,0,1,0,1,0c0,-1,1,-1,3,-2c1,0,2,-1,4,-1c1,-1,2,-1,3,-1l1,0l-1,1c-1,0,-1,0,-1,0c0,0,-1,1,-2,1c-2,1,-3,1,-5,2c-1,0,-2,1,-2,1c-1,0,-1,0,-1,0c0,1,0,1,0,1l1,0c1,0,1,0,1,1c1,0,1,0,1,0l1,0c1,1,1,1,2,2c0,0,1,0,1,1c1,0,1,1,2,1l2,2l1,0ZM282.5,321.5l0,1c0,1,0,1,0,1l0,-1c1,0,1,0,1,0l0,-1l0,1l1,0l0,-1l1,-1l0,1l0,1c0,1,0,1,-1,1c0,0,-1,0,-1,0c0,1,-1,1,-1,1l-1,-1l0,-1ZM286.5,319.5l-6,2c1,0,1,-1,1,-1l5,-3ZM272.5,320.5l1,-1l1,0c0,0,0,1,0,1c0,0,0,1,0,1c0,1,0,1,0,1l0,1l-1,0l-1,1l-1,0l0,1l-1,0l0,-1l1,0c0,0,0,-1,1,-1l1,0l-1,-1l0,-1l0,-1ZM273.5,321.5l0,-1c0,1,0,1,0,1ZM269.5,341.5l0,-1c0,0,-1,-1,-1,-1l0,1c-1,0,-1,0,-1,0c0,0,1,0,1,1l1,0ZM262.5,329.5c0,0,1,-1,1,-1c0,0,1,0,1,0c1,0,1,0,2,0c0,0,0,1,0,1c0,1,0,1,0,1c-1,0,-1,1,-1,1c0,0,-1,0,-1,0l-1,0l-1,0l2,0c1,-1,1,-1,2,-1c-1,0,-1,-1,-1,-1c-1,0,-1,0,-1,0c0,0,-1,0,-1,1c-1,0,-1,0,-1,0c0,-1,0,-1,0,-1ZM330.5,336.5c0,0,-1,0,-1,0c1,0,1,1,1,1c1,-1,1,-1,1,-1c-1,0,-1,0,-1,0ZM330.5,343.5c0,0,0,1,-1,1c-1,0,-1,0,-2,0c-1,0,-1,0,-2,0l-1,-1c1,0,1,0,1,0c0,0,1,0,1,0l1,0c1,0,1,0,1,0l1,0c0,-1,0,-1,1,-1c0,-1,0,-1,0,-1c1,0,1,-1,1,-1c0,-1,1,-1,1,-2l-1,0c0,1,0,1,0,1c-1,0,-1,0,-1,0c-1,0,-1,0,-1,0l0,-1l-1,0c0,-1,0,-1,0,-1c0,0,0,-1,0,-1c0,0,1,0,1,0c0,-1,0,-1,0,-1c0,-1,0,-1,1,-1c0,0,0,-1,0,-1c1,0,1,1,1,1c0,0,1,0,1,1c0,1,0,1,0,1c0,1,0,1,0,2c0,0,0,1,0,1c0,1,0,1,0,2c-1,1,-1,1,-1,1c0,1,-1,1,-1,1ZM327.5,330.5l4,-2c0,1,0,1,0,1l-4,2ZM327.5,333.5l-1,-1l-1,1l-2,0l1,-2l2,1l0,-1l2,1ZM320.5,330.5c1,0,1,0,1,0l1,0l0,1l0,1l1,0c0,0,0,-1,0,-1c-1,0,-1,0,-1,-1c0,0,0,-1,0,-1l0,-1c0,0,-1,0,-1,0c0,0,0,1,-1,1c0,0,0,1,0,1l-1,1c-1,1,-1,1,-1,1c-1,0,-1,1,-1,1c-1,0,-1,0,-1,0l-1,1c0,0,-1,1,-1,1l1,0c-1,0,-1,0,-1,1l1,-1l1,0l1,0l0,1l1,0l1,0l0,1l-1,0l-1,0c-1,0,-1,1,-1,1l-1,0l-1,0l-1,0l-1,0l-1,0l-1,0c0,-1,0,-1,0,-1c0,-1,0,-1,1,-1c0,-1,0,-1,0,-1c0,-1,0,-1,0,-1c0,0,-1,0,-1,0c-1,0,-1,0,-1,0c0,-1,0,-1,0,-1l-1,0l-1,1l-1,0l-1,2c1,0,1,0,1,0c0,0,1,0,1,0l0,1l1,0c-1,0,-1,0,-1,0l-1,1l-1,0l-1,0c0,0,-1,0,-1,0c0,0,0,-1,-1,-1c0,0,0,-1,0,-1l-1,-10l-1,2l1,6c0,1,0,1,0,1c0,1,0,2,0,2l0,3c0,1,0,1,0,1c-1,0,-1,1,-2,1c-1,1,-2,1,-3,1l-1,0c0,0,-1,-1,-2,-1c0,-1,0,-1,0,-2c0,0,0,-1,0,-1l0,-1l1,-1l-1,0l0,1c-1,1,-1,1,-1,2c0,0,0,1,0,2l0,1l1,1c0,0,1,0,1,0l0,1l1,0l1,0c0,0,1,0,1,0c1,-1,1,-1,2,-1l1,0c0,-1,0,-1,0,-1c1,0,1,-1,1,-1c1,-1,1,-1,1,-2l0,-1l0,-1c0,0,0,1,1,1l1,0l1,0l1,0l1,0l1,-1l1,0c0,1,1,1,1,1c0,0,1,0,1,0c0,0,1,0,1,0l1,0l1,0l1,0l1,0l1,0l2,-1c1,0,1,0,1,0l0,-1l1,0l2,0l2,0l1,-1l-1,0c-1,0,-1,0,-2,0l-1,-1c-1,0,-1,0,-2,0l-2,-1l-1,0c1,-1,1,-1,1,-1l1,-1c0,0,1,0,1,-1l0,-1ZM318.5,323.5l4,-2l0,1l-4,2ZM317.5,343.5l-1,-1l1,-1l1,1ZM313.5,322.5c0,-1,0,-1,1,-1c0,0,1,0,1,0c1,0,1,0,1,0c1,0,1,1,1,1c0,0,0,1,-1,1l0,1c0,0,-1,0,-1,0c0,0,-1,0,-1,0l-1,0l2,-1c0,0,1,0,1,-1l-1,0c-1,0,-1,0,-2,0c0,0,0,1,0,1l0,-1ZM308.5,326.5l4,-2l-1,1l-4,2ZM372.5,336.5l-1,0c0,0,1,1,1,1c0,-1,1,-1,1,-1c-1,0,-1,0,-1,0ZM372.5,343.5c0,0,0,1,-1,1c-1,0,-1,0,-2,0c-1,0,-1,0,-2,0c0,0,-1,0,-1,-1c0,0,1,0,1,0l1,0c1,0,1,0,1,0l1,0c1,-1,1,-1,1,-1c1,-1,1,-1,1,-1c0,0,1,-1,1,-1c0,-1,0,-1,0,-2c0,1,-1,1,-1,1c0,0,-1,0,-1,0l0,-1c-1,0,-1,0,-1,0c0,-1,0,-1,0,-1c0,0,0,-1,0,-1c0,-1,1,-1,1,-1c0,-1,0,-1,0,-1c1,0,1,-1,1,-1c1,0,1,1,1,1l1,1c0,1,0,1,0,1c0,1,0,1,0,2c0,0,0,1,0,1c0,1,0,1,-1,2c0,1,0,1,0,1c-1,1,-1,1,-1,1ZM365.5,343.5l-1,-1l1,-1l1,1ZM363.5,339.5l-1,0l-1,0c0,0,-1,0,-1,0c0,0,-1,0,-1,0l0,-1l-1,0c0,0,0,1,0,1c-1,0,-1,0,-1,0c-1,0,-1,0,-1,0l-1,0l-1,0c0,0,-1,0,-1,0c0,-1,-1,-1,-1,-1l0,-1l0,-1c0,-1,0,-1,0,-1c0,1,-1,1,-1,2c-1,0,-1,0,-1,0c0,0,0,1,0,1c0,1,0,1,0,1c0,1,0,2,-1,2c0,1,0,1,-1,2c0,0,-1,1,-2,1c0,0,-1,0,-2,0c0,0,-1,0,-1,0c-1,0,-1,0,-2,0c0,-1,0,-1,-1,-2c0,0,0,-1,0,-1c0,-1,0,-1,0,-1c0,0,0,-1,0,-1l0,-1l1,0l0,-1l1,0c0,0,-1,0,-1,1l0,1l0,1c0,0,0,1,0,1l1,1c0,0,1,0,1,0c0,0,1,0,2,0c0,0,1,0,2,0c0,0,1,-1,1,-1c1,0,1,0,1,-1l0,-1c0,0,0,-1,0,-1l-1,0c0,-1,0,-1,0,-1c0,-1,0,-1,0,-1l-1,-1l1,-1l1,0c0,0,0,1,0,1l1,0c0,0,1,0,1,0c0,0,1,0,1,-1l0,-1l1,0l0,1l0,1l0,1l0,1l1,0c0,1,0,1,0,1c0,0,1,0,1,0c1,0,1,0,1,0c1,0,1,0,2,-1c1,0,1,0,1,0l1,0l0,1c0,0,1,0,1,0l1,0l1,0c0,0,1,0,1,0c1,-1,1,-1,2,-1c0,-1,0,-1,-1,-1l0,-1l1,-2c0,0,0,1,0,1l0,1l0,1l0,1c0,1,0,1,0,1c-1,1,-1,1,-2,1c0,0,-1,0,-1,0ZM363.5,326.5l4,-2l0,1l-4,2ZM358.5,335.5l-1,-1l0,-1l2,1ZM360.5,343.5l-4,2c0,-1,0,-1,0,-1l4,-2ZM354.5,342.5l-1,0l-1,1l-1,-1l0,-1l2,0l1,-1l1,1ZM344.5,335.5l-1,-1l1,-1l1,1ZM341.5,326.5l4,-2l0,1l-1,0l-4,2ZM235.5,324.5l0,-1c0,0,0,-1,0,-1c0,-1,-1,-2,-1,-2l1,-1c0,0,0,1,0,1c0,0,0,1,0,1l0,1l0,1c0,0,0,1,0,1ZM234.5,326.5l0,1l1,0l0,-1l0,-1l1,0l0,1c0,0,0,1,0,1c1,0,1,-1,1,-2l0,-1l1,0l0,1l0,1l0,1l-1,0c0,0,0,1,0,1l-1,0l-1,0c0,1,-1,1,-1,1c0,0,-1,0,-1,-1c0,-1,0,-1,0,-1l0,-1ZM131.5,341.5l0,-1l0,-1l0,-8l1,-3l0,11l0,1c0,1,-1,1,-1,1ZM129.5,327.5l5,-2l-1,0c0,1,0,1,0,1l-4,2ZM238.5,246.5l0,-1l0,-2l0,-8l1,-2l0,10c0,1,0,1,0,1l0,1c0,0,0,1,-1,1Z" class="g2_16" />
<path fill-rule="evenodd" d="M366.5,546.5l-4,2c0,-1,1,-1,1,-1l3,-2ZM211.5,532.5c1,0,1,0,1,0l1,1l0,1l0,1c0,1,0,1,0,2l-1,0l-2,1c0,0,-1,-1,-1,-1c0,0,0,-1,0,-1l0,-1l0,-1c0,0,0,-1,0,-1l1,0l0,-1c1,0,1,0,1,0ZM211.5,533.5c0,0,-1,0,-1,1l0,1l-1,0c0,1,1,1,2,1l1,0c0,0,1,-1,1,-1l-1,0c0,-1,0,-1,0,-1c0,-1,0,-1,-1,-1ZM53.5,540.5l0,-1l1,0c0,0,0,-1,0,-1l0,-1l0,-1l0,-1l-1,-1c0,0,0,-1,1,-1l0,1l0,1l0,1l0,1l0,1l1,0l0,-1l1,0l1,0c1,0,1,0,1,1l0,1c-1,0,-1,0,-1,0c-1,0,-1,1,-2,1l-1,0ZM56.5,538.5l-1,0l-1,1l1,0c1,0,1,0,1,0c0,0,1,-1,1,-1l-1,0ZM63.5,528.5l0,1l-1,0c0,1,0,1,0,1l0,1c0,1,0,1,0,1l0,-1l-1,0l0,-1l1,0l0,-1c0,0,0,-1,0,-1c0,0,1,0,2,-1l1,0ZM63.5,530.5c0,0,1,-1,1,-1l1,0l0,1l0,1l0,1l1,0l-1,1l-1,0c-1,1,-1,1,-1,1l-1,0l-1,0l1,0l0,-1c1,0,1,0,1,0l1,-1l-1,0c0,0,0,-1,0,-1c0,0,0,-1,0,-1ZM64.5,530.5l0,1l1,0c0,-1,0,-1,-1,-1ZM115.5,524.5l0,1l-1,0c0,1,0,1,0,1l0,1c0,1,0,1,0,1l0,-1l0,-1l0,-1c0,0,0,-1,0,-1c0,0,1,0,2,-1l1,0ZM115.5,526.5c1,0,1,0,1,-1c0,0,1,0,1,0c0,0,1,1,1,1l0,1l-1,0l0,1l1,0l0,1l-1,0l-1,0l0,1c-1,0,-1,0,-1,0l-1,0l0,1l-1,0c0,0,0,-1,0,-1l1,0l1,0c0,-1,0,-1,0,-1l1,-1l-1,0c0,0,0,-1,0,-1c0,0,0,-1,0,-1ZM117.5,526.5l-1,0c0,0,0,1,0,1l1,0ZM78.5,538.5l-1,-1l1,-2l1,1ZM78.5,544.5l-1,0l-2,0c0,1,0,1,0,2l0,1c-1,0,-1,1,-1,1c0,0,-1,1,-1,1l-1,0c0,1,0,1,0,1c-1,0,-1,0,-1,0c0,0,-1,0,-1,0c-1,0,-1,0,-2,-1l-1,0c1,0,1,0,1,0c0,0,1,0,1,0c0,0,1,0,1,0c1,0,1,-1,1,-1c1,0,1,0,1,0c1,-1,1,-1,1,-1c0,0,1,-1,1,-1c0,0,0,-1,0,-1c0,0,-1,-1,-1,-1c0,0,-1,0,-1,0l0,-1l0,-1l0,-1l0,-1c1,0,1,0,1,0l1,0c0,0,1,0,1,0c0,1,0,1,0,1c0,0,0,1,0,1c0,0,0,1,0,1c1,0,1,0,2,0l1,0c0,0,1,0,1,0c1,-1,1,-1,1,-1c0,-1,0,-1,0,-1c0,0,0,-1,0,-1l0,-2c0,0,1,1,1,1c0,1,0,1,0,1c0,0,0,1,0,1c0,0,0,1,0,1c0,1,0,1,0,1c-1,1,-1,1,-2,1c0,0,-1,0,-1,0ZM78.5,531.5l4,-2l0,1l-1,0l-4,2ZM73.5,542.5l-1,0c0,0,1,0,1,0c0,1,0,1,0,1c0,0,1,0,1,0c0,0,0,-1,0,-1c0,0,-1,0,-1,0ZM69.5,534.5c0,0,0,-1,1,-1c0,0,1,0,1,0c1,0,1,0,2,0c0,0,0,1,0,1c0,1,0,1,-1,1c0,0,0,1,0,1c-1,0,-1,0,-1,0c0,0,-1,0,-1,0c0,0,-1,0,-1,0l2,0c0,-1,1,-1,1,-1c0,0,0,-1,0,-1c-1,0,-1,0,-1,0c-1,0,-1,0,-2,1c0,-1,0,-1,0,-1ZM67.5,542.5l-2,0c0,0,-1,0,-1,0c-1,0,-2,1,-2,1c0,0,-1,1,-1,1c0,0,1,1,1,2c0,2,1,3,1,4c0,2,0,2,0,2l0,1c0,0,-1,-1,-1,-2c0,-2,-1,-3,-1,-4c0,-1,0,-2,0,-2l0,-1c0,-1,0,-1,0,-2c0,0,1,0,1,-1c0,0,1,0,1,0c1,-1,1,-1,2,-1c-1,0,-1,-1,-1,-1c0,0,-1,1,-1,1l-1,0c0,0,1,-1,1,-1c0,-1,0,-1,1,-1c1,0,1,0,1,0c1,0,1,0,1,1c1,0,1,0,1,1l0,1l0,1ZM105.5,541.5l-1,0c0,0,1,1,1,1c1,-1,1,-1,1,-1c0,0,-1,0,-1,0ZM105.5,548.5c0,0,0,1,-1,1c-1,0,-1,0,-2,0c-1,0,-1,0,-2,0l-1,-1c1,0,1,0,1,0l1,0l1,0c0,0,1,0,1,0c1,-1,1,-1,2,-1c0,-1,0,-1,0,-1c0,0,1,-1,1,-1c0,-1,0,-1,0,-2c0,1,0,1,-1,1l-1,0l0,-1c0,0,-1,0,-1,0c0,-1,0,-1,0,-1c0,0,0,-1,0,-1c1,-1,1,-1,1,-1c0,-1,0,-1,1,-1c0,0,0,-1,0,-1c1,0,1,1,1,1l1,1c0,1,0,1,0,1c0,1,0,1,0,2c0,0,0,1,0,1c0,1,0,1,-1,2c0,1,0,1,0,1c0,1,-1,1,-1,1ZM97.5,543.5c0,1,-1,1,-1,1c1,0,1,0,1,0l1,0c0,0,-1,-1,-1,-1ZM98.5,546.5c0,0,-1,0,-1,0c-1,0,-1,0,-1,0c0,0,-1,0,-2,0c0,0,-1,0,-1,0c0,0,0,-1,0,-1c0,0,0,-1,0,-1l1,0c1,0,1,0,1,0c0,0,0,-1,1,-1c0,-1,0,-1,1,-1c-1,0,-1,-1,-1,-1c0,0,-1,0,-1,-1c0,0,-1,-1,-1,-1c0,-1,-1,-1,-1,-2c-1,0,-1,0,-1,0c0,-1,-1,-1,-1,-1l-1,0c0,0,-1,-1,-1,-1c0,0,0,-1,0,-1c0,-1,0,-1,0,-1l0,-1l1,0c0,1,0,1,1,1c0,1,1,1,1,2c1,0,2,1,2,2c1,0,1,1,2,2c0,0,0,1,1,1c0,0,0,1,0,1c0,0,0,-1,1,-1c0,-1,0,-2,0,-2c0,-1,0,-2,0,-2c0,0,0,-1,0,-1c0,-1,0,-1,0,-2l0,-1l0,-1l1,0c0,0,0,1,0,1l1,0c0,1,0,1,-1,1c0,1,0,1,0,1l0,1c0,0,0,1,0,1c0,1,0,1,0,1c0,1,0,1,0,2c-1,0,-1,1,-1,1c0,1,0,1,0,2c0,0,0,1,0,1c0,1,0,1,0,1c0,0,0,1,0,1l0,1ZM94.5,528.5l6,-2c0,0,-1,1,-1,1l-5,3ZM131.5,543.5l-1,1l-1,0l-1,0c0,1,0,1,0,1l0,-1l-1,0c0,0,-1,0,-1,0c0,0,-1,0,-1,0l0,-1l-1,0c0,0,0,1,0,1c-1,0,-1,0,-1,0c-1,0,-1,0,-2,0c-1,0,-1,0,-2,0c-1,0,-1,-1,-1,-1c0,-1,0,-1,0,-1l-1,0c0,0,0,1,0,1l-1,0l-1,0l-1,0l-1,0l0,-2c1,0,1,-1,2,-1c0,0,0,-1,1,-1c1,-1,1,-1,1,-1l0,-1l1,-1l0,1c0,1,0,1,0,1c0,1,0,1,0,1l1,3l0,1c0,0,1,0,1,0l1,0c1,0,1,0,1,0c1,0,1,0,2,-1c1,0,1,0,1,0c1,0,1,0,1,0l0,1c0,0,1,0,1,0l1,0c1,0,1,0,2,0c0,0,0,-1,1,-1l0,-1l1,0l0,1l0,1l1,0c0,0,1,0,1,0l0,-1c1,0,1,0,1,0l0,-1l1,-1l0,1l0,1l1,0l0,1l1,0c0,-1,0,-1,0,-1l0,-2l0,1l1,0l0,1l0,1l0,1c-1,0,-1,0,-1,0l-1,0c-1,0,-1,0,-1,0l-1,0l0,-1l0,1c-1,0,-1,0,-1,0l-1,0c0,0,0,1,0,1c-1,0,-1,-1,-1,-1c-1,0,-1,0,-1,0l0,-1ZM138.5,548.5l-5,2c1,-1,1,-1,1,-1l4,-2ZM124.5,540.5l-1,-1l0,-1l2,1ZM122.5,535.5l4,-2c0,1,0,1,0,1l-4,2ZM117.5,535.5l-1,-1l-1,2l-2,-1l1,-2l2,1l0,-1l2,1ZM117.5,539.5l-1,1c-1,0,-1,1,-1,1l1,0l1,0l1,-1ZM185.5,536.5l-2,-1l-1,1l-1,0l1,-2l1,1l1,-1l2,1ZM183.5,544.5l-1,0l-2,0c0,0,-1,0,-1,0c-1,-1,-1,-1,-1,-2l-1,-9l1,-2l1,10l0,1c0,1,1,1,1,1l2,0l1,0c0,0,1,0,1,0c1,-1,1,-1,1,-1c0,-1,0,-1,0,-1l0,-1l-1,0l1,-2c0,0,0,1,1,1l0,1l0,1l0,1c0,1,0,1,0,1l-1,0c0,1,0,1,-1,1c0,0,-1,0,-1,0ZM183.5,528.5l4,-2l0,1c-1,0,-1,0,-1,0l-4,2ZM176.5,523.5c0,0,1,0,1,0c1,-1,1,-1,1,-1c1,0,2,0,2,1c0,1,0,1,0,1c0,1,-1,1,-1,1l-1,0l-1,0l-1,0l2,0c1,0,1,-1,2,-1c-1,0,-1,0,-1,0c0,0,-1,0,-1,0c0,0,-1,0,-1,0c0,0,-1,0,-1,0l0,-1ZM166.5,537.5l-1,-1l1,-1l1,1ZM174.5,540.5l-1,2l-1,0l-1,0c0,0,-1,0,-1,0l-1,1l-1,0l-1,1c-1,0,-1,0,-1,0l-1,0l-1,0l-1,0l-2,0c0,0,-1,0,-1,0l-1,0l0,-1l0,-1l0,1l-1,0l0,1c-1,0,-1,0,-2,0l-1,0l-1,0c-1,0,-1,0,-1,0c0,0,0,-1,-1,-1l0,-1l1,0l0,-1c0,0,0,1,0,1l1,0l1,0l1,0l1,0l1,0l1,0l0,-1l0,-1l-1,-2l0,-1l0,-1l1,-1l0,2l1,1l0,3l0,1l0,1c1,0,1,0,1,0l2,0c0,-1,0,-1,0,-1c0,-1,0,-1,0,-1l1,-1c0,-1,1,-1,1,-1c0,0,1,0,1,0l1,0c0,0,1,0,1,0l2,0l2,1l1,0l1,0ZM170.5,541.5l-1,0l-1,0l-1,-1c-1,0,-1,0,-1,0c0,0,-1,0,-1,0l0,1l-1,0l0,1l0,1l1,0l1,0l0,-1l1,0l1,0l1,-1ZM164.5,525.5c1,0,1,0,1,-1c0,0,1,0,1,0c0,0,1,1,1,1c0,0,0,1,-1,1c0,1,0,1,0,1l1,0l0,1l-1,0l-1,0l0,1c-1,0,-1,0,-1,0l-1,1l-1,0l1,-1l1,0c0,0,0,-1,0,-1l1,0l0,-1l-1,0l0,-1l0,-1ZM166.5,526.5l-1,-1c0,1,0,1,0,1l1,0ZM157.5,533.5l-1,-1l1,-1l1,1ZM154.5,525.5c0,0,1,0,1,-1l1,0c0,0,0,1,0,1c0,0,0,1,0,1c0,1,0,1,0,1l1,0l-1,1l-1,0l0,1c-1,0,-1,0,-1,0l-1,1l-1,0l1,-1c1,0,1,-1,1,-1l1,0l0,-1l-1,0l0,-1l0,-1ZM155.5,526.5l0,-1c0,1,0,1,0,1l1,0l-1,0ZM147.5,545.5c0,0,-1,0,-1,-1c-1,0,-1,-1,-1,-2l0,-1l1,-1l1,-2c0,0,0,-1,0,-1c1,0,1,1,2,1c0,1,1,1,1,2l0,1c0,2,-1,3,-2,3c0,1,0,1,-1,1ZM147.5,540.5l-1,0c0,0,0,1,0,1l0,1c0,0,0,1,1,1l1,0l1,-1c0,0,0,-1,0,-1c-1,-1,-1,-1,-2,-1ZM146.5,533.5l0,-1l0,-1c0,0,0,-1,0,-1c0,-1,0,-1,0,-1c1,0,1,-1,1,-1l1,0l-1,1l0,1l-1,0l0,1l0,1c1,0,1,0,1,0c0,0,1,0,1,0c0,1,0,1,0,1c0,0,0,1,0,1c0,0,-1,0,-1,0c-1,0,-1,0,-1,-1ZM202.5,543.5l-1,0c0,1,0,1,0,1c0,0,1,0,1,0c0,0,0,-1,0,-1ZM203.5,546.5c0,0,-1,0,-1,0c-1,0,-1,0,-1,0c-1,0,-1,0,-2,0c0,0,-1,0,-1,0c0,0,0,-1,0,-1c0,0,0,-1,0,-1c0,0,1,0,1,0c0,0,1,0,1,0c0,0,0,-1,0,-1c1,0,1,0,1,0c0,-1,0,-1,0,-1c0,0,0,-1,0,-1c-1,0,-1,0,-1,-1c0,0,-1,-1,-1,-1c-1,-1,-1,-1,-2,-2c-1,-1,-1,-1,-1,-1c-1,0,-1,0,-1,0c-1,0,-1,-1,-1,-1c0,0,0,-1,0,-1c0,-1,0,-1,0,-1l0,-1c1,1,1,1,2,1c0,1,1,1,1,2c1,0,1,1,2,2c0,0,1,1,2,2c0,0,0,1,0,1c1,0,1,1,1,1c0,0,0,-1,0,-1c0,-1,0,-2,1,-2c0,-1,0,-2,0,-2c0,0,0,-1,0,-1c0,-1,0,-1,0,-2c0,0,-1,0,-1,0l0,-1l1,-1c0,0,0,1,0,1c0,0,1,0,1,0l1,0c-1,1,-1,1,-1,1c0,1,0,1,0,1l0,1c0,0,0,1,0,1c0,1,0,1,0,1c0,1,-1,1,-1,2c0,0,0,1,0,1c0,1,0,1,-1,2c0,0,1,0,1,0c0,0,0,1,0,1c0,1,0,1,0,1c0,0,0,1,0,1l0,1ZM199.5,528.5l6,-2c-1,0,-1,1,-1,1l-5,3ZM300.5,530.5c-1,0,-1,1,-1,1l-1,0l-1,0l-1,0c-1,0,-1,0,-1,0c0,0,0,-1,0,-1c0,0,-1,0,-1,0c0,-1,0,-1,0,-1c0,-1,0,-1,0,-2c1,-1,1,-1,2,-1l-1,0c0,0,-1,0,-1,0l0,-1l1,0l1,0l1,0l1,0l0,1l-1,0c0,0,-1,0,-1,0c0,0,-1,1,-1,1l0,1c-1,0,-1,0,-1,0c0,1,0,1,1,1c0,0,0,1,0,1c0,0,1,0,1,0l1,0l1,0ZM297.5,528.5c-1,0,-1,0,-1,0c1,0,1,0,1,0ZM215.5,528.5c0,0,0,1,-1,1l-1,0l-1,0l-1,0c-1,0,-1,0,-1,0c-1,-1,-1,-1,-1,-1c0,0,0,-1,0,-1c0,-1,0,-1,0,-2c0,0,1,-1,2,-1l-1,0c-1,0,-1,0,-1,0c0,0,-1,0,-1,0l1,0c0,-1,0,-1,1,-1l1,0l1,0l1,0l-1,1c0,0,-1,0,-2,0c0,1,0,1,0,1c0,0,-1,0,-1,1l0,1c0,1,1,1,1,1l1,0l1,0ZM212.5,526.5l0,1l-1,0l0,-1l1,0ZM253.5,545.5l0,-2l1,-1l-1,-8l1,-3l0,11l0,1c0,1,0,1,-1,2ZM246.5,543.5l1,0l1,0c0,-1,0,-1,0,-1l0,-1l0,-2l0,-6l0,-1l0,-1l1,0c0,1,0,1,0,1l1,0c0,1,0,1,-1,1c0,1,0,1,0,1c0,0,0,1,0,2c0,0,0,1,0,3c0,0,0,1,0,1l0,1c0,0,0,1,0,1c0,0,0,1,0,1c-1,1,-1,1,-1,1c0,0,-1,0,-1,0c0,0,-1,0,-1,0l-2,0c-1,0,-2,0,-2,0c-1,0,-1,0,-1,0c-1,0,-1,0,-2,0c-1,0,-2,0,-2,0l-1,0l-1,0c-1,0,-1,0,-1,0c0,0,-1,0,-1,-1c0,0,-1,0,-1,0c0,0,0,1,0,1c0,0,-1,0,-1,0l-1,0l-2,0c0,1,0,1,0,2l0,1c-1,0,-1,1,-1,1c0,0,-1,1,-1,1l-1,0c0,1,0,1,0,1c-1,0,-1,0,-1,0c0,0,-1,0,-1,0c-1,0,-1,0,-2,-1l-1,0c1,0,1,0,1,0c0,0,1,0,1,0c0,0,1,0,1,0c1,0,1,-1,1,-1c1,0,1,0,1,0c1,-1,1,-1,1,-1c0,0,1,-1,1,-1c0,0,0,-1,0,-1c0,0,-1,-1,-1,-1c0,0,-1,0,-1,0l0,-1l0,-1l0,-1l0,-1c1,0,1,0,1,0l1,0c0,0,1,0,1,0c0,1,0,1,0,1c0,0,0,1,0,1c0,0,0,1,0,1c1,0,1,0,2,0c0,0,1,0,1,0c0,0,1,0,1,-1c0,0,1,0,1,0c0,0,1,0,1,0l0,1c1,0,1,0,1,0l1,0l1,0l1,0c1,0,1,0,1,0c0,-1,0,-1,0,-1c0,-1,0,-1,0,-1c0,0,0,-1,0,-1c0,-1,1,-1,1,-1c0,-1,0,-1,0,-1c1,0,1,-1,2,-1c0,0,1,0,1,1c0,0,0,1,0,1l0,1c0,1,0,1,0,2l-1,1c0,0,1,0,1,0c1,0,1,0,1,0l1,0ZM223.5,531.5c0,0,1,-1,1,-1c0,0,1,0,1,0c1,0,1,0,2,0c0,1,0,1,0,1c0,1,0,1,0,1c-1,0,-1,1,-1,1c-1,0,-1,0,-1,0c0,0,-1,0,-1,0c0,0,-1,0,-1,0l2,0c1,-1,1,-1,1,-1c0,0,0,-1,0,-1c-1,0,-1,0,-1,0c-1,0,-1,0,-1,1c-1,0,-1,0,-1,0c0,-1,0,-1,0,-1ZM246.5,527.5c0,-1,0,-1,1,-1c0,0,1,0,1,0c1,0,1,0,2,0c0,0,0,1,0,1c0,0,0,1,-1,1l0,1c-1,0,-1,0,-1,0c0,0,-1,0,-1,0c0,0,-1,0,-1,0l2,-1c0,0,1,0,1,-1c-1,0,-1,0,-1,0c-1,0,-1,0,-2,0c0,0,0,1,0,1l0,-1ZM242.5,536.5l-1,-1l-1,1l-2,-1l1,-1l2,1l0,-1l2,1ZM241.5,539.5l-1,1c0,1,0,1,0,1l1,1c0,0,1,-1,1,-1l1,0c0,-1,-1,-1,-1,-1c0,-1,0,-1,-1,-1ZM237.5,528.5l5,-2l-1,1l-4,2ZM234.5,548.5l-1,-1l-1,1l-2,-1l1,-1l2,1l0,-2l2,1ZM232.5,533.5l0,1c0,0,1,0,1,0l0,-1l0,-1l0,1c1,1,1,1,1,1c0,0,0,-1,0,-1l0,-1l1,0l0,1l0,1c0,0,-1,1,-1,1l-1,0l0,-1l0,1c-1,0,-1,0,-1,0c0,0,-1,0,-1,0l0,-1l0,-1ZM233.5,528.5c0,0,0,-1,0,-1c1,0,1,0,1,0c1,0,1,0,1,0l0,1l0,1l0,1l0,1l-1,0l-1,0c0,1,0,1,-1,1c0,0,-1,0,-1,0c1,0,2,-1,2,-2c0,0,0,-1,0,-1c0,0,0,-1,0,-1ZM234.5,528.5c-1,0,-1,0,-1,0l0,1l1,0c0,0,0,-1,0,-1ZM226.5,542.5c0,0,-1,0,-1,0c0,0,1,0,1,0c0,1,0,1,0,1c0,0,1,0,1,0c0,0,0,-1,0,-1c0,0,-1,0,-1,0ZM222.5,542.5l-2,0c0,0,-1,0,-1,0c-1,0,-2,1,-2,1c0,0,0,1,0,1c0,0,0,1,0,2c0,2,1,3,1,4c0,2,0,2,0,2l0,1c0,0,0,-1,-1,-2c0,-2,0,-3,-1,-4c0,-1,0,-2,0,-2l0,-1c0,-1,0,-1,0,-2c1,0,1,0,1,-1c0,0,1,0,1,0c1,-1,2,-1,2,-1c-1,0,-1,-1,-1,-1c0,0,0,1,-1,1l-1,0c0,0,1,-1,1,-1c0,-1,1,-1,1,-1c1,0,1,0,1,0c1,0,1,0,1,1c1,0,1,0,1,1l0,1l0,1ZM218.5,529.5c1,-1,1,-1,1,-1c0,0,1,-1,1,-1c0,0,0,1,0,1c0,0,1,0,1,1l-1,0l0,1l0,1l1,0l0,1l-1,-1l-1,1c-1,0,-1,1,-1,1l-1,0l-1,0l1,0l1,-1l0,-1l1,0l-1,-1l0,-1ZM220.5,529.5l-1,0l0,1l1,0l0,-1ZM287.5,545.5l0,-2l0,-1l0,-8l1,-3l0,11l0,1c0,1,0,1,-1,2ZM280.5,543.5l1,0c1,-1,1,-1,1,-1l0,-1l0,-2l0,-6l0,-1l0,-1c1,0,1,0,1,0c0,1,0,1,0,1l1,0c0,1,-1,1,-1,1c0,1,0,1,0,1c0,0,0,1,0,2c0,0,0,1,0,3c0,0,0,1,0,1l0,1c0,0,0,1,0,1c0,0,0,1,0,1c-1,1,-1,1,-1,1c0,0,-1,0,-1,0c0,0,-1,0,-1,0l-2,0c-1,0,-1,0,-1,0c-1,0,-2,0,-2,0c-1,-1,-1,-1,-1,-1c0,-1,0,-1,0,-1c0,0,-1,0,-1,0c-1,0,-2,0,-2,1c-1,0,-1,0,-2,0l-1,0l-1,1c0,0,-1,0,-1,0c0,1,0,1,0,1l1,0c0,0,0,1,1,1c1,0,1,0,1,0c0,0,1,0,1,0c0,1,0,1,0,1c0,1,0,1,-1,1c0,0,0,1,0,1c-1,1,-2,1,-3,1c-1,1,-2,1,-4,1c-1,0,-1,0,-2,0c-1,-1,-1,-1,-2,-1c0,-1,0,-1,0,-1c-1,-1,-1,-2,-1,-2l0,-1c0,0,0,-1,1,-1c0,-1,0,-2,1,-2c0,0,0,1,0,2c-1,0,-1,0,-1,1c0,1,1,2,1,2c1,1,2,1,3,1l1,0c1,0,1,0,1,0c0,0,1,0,1,0c0,0,1,0,1,0l1,-1c1,0,1,0,1,0c0,0,1,0,1,-1c-1,0,-1,0,-2,0c-1,0,-2,0,-2,-1l0,-1c0,0,0,-1,0,-1c0,0,1,-1,1,-1c0,0,1,-1,2,-1l1,0c0,0,1,-1,1,-1c1,0,1,0,1,0l-1,0c-1,-1,-2,-1,-2,-1c-1,0,-1,0,-1,0l-1,0l0,-1c0,0,1,0,1,0c0,-1,1,-1,1,-1l1,0c1,0,1,1,1,1c1,0,1,0,1,0c0,0,1,0,1,1c0,0,1,0,1,0l1,0c0,0,1,0,1,0c0,0,1,0,1,0l2,0l-1,2l-2,0c0,0,1,0,1,1c0,0,1,0,3,0l1,0ZM280.5,527.5c0,-1,0,-1,1,-1c0,0,1,0,1,0c1,0,1,0,2,0c0,0,0,1,0,1c0,0,0,1,-1,1l0,1l-1,0c0,0,-1,0,-1,0c-1,0,-1,0,-1,0l2,-1c0,0,1,0,1,-1c-1,0,-1,0,-1,0c-1,0,-1,0,-2,0c0,0,0,1,0,1l0,-1ZM285.5,528.5l5,-3l-1,1l0,1l-4,2ZM269.5,531.5l5,-2l-1,1l-4,2ZM261.5,533.5l0,1l1,0l0,-1l1,-1l0,1c0,1,0,1,0,1c1,0,1,-1,1,-1l0,-1l0,1l0,1c0,0,0,1,0,1l-1,0l0,-1l-1,1l-1,0l0,-1l0,-1ZM262.5,528.5c0,0,1,-1,1,-1c0,0,1,0,1,0c0,0,1,0,1,1l-1,1l0,1l0,1l-1,0c-1,1,-1,1,-1,1c-1,0,-1,0,-1,0c-1,0,-1,0,-1,0c1,0,2,-1,3,-2l-1,0c0,0,0,-1,0,-1c0,0,0,-1,0,-1ZM264.5,528.5l-1,0l0,1l1,0c0,0,0,-1,0,-1ZM318.5,544.5l-1,0l-1,0c-1,-1,-1,-1,-2,-1c-1,1,-1,1,-1,1c0,0,-1,0,-1,0c0,0,-1,0,-1,0l-1,0c0,1,0,1,0,1l-1,0l0,-1l-1,0c0,1,0,1,0,2l-1,1c0,0,0,1,0,1c-1,0,-1,1,-1,1c0,0,-1,0,-1,0c0,1,0,1,-1,1c-1,0,-1,0,-1,0l-1,0c0,0,-1,0,-1,-1c0,0,-1,0,-1,0c0,0,1,0,1,0c1,0,1,0,2,0c0,0,1,-1,1,-1c0,0,1,0,1,0c0,-1,1,-1,1,-1c0,0,0,-1,0,-1c1,0,1,-1,1,-1l-1,0c0,0,0,-1,0,-1l-1,0c0,0,-1,0,-1,-1l0,-1l1,-1l0,-1c1,0,1,0,1,0c1,0,1,0,1,0c1,1,1,1,1,1c0,0,0,1,0,1c0,0,0,1,0,1c1,0,1,0,1,0c1,0,1,0,1,0c1,0,1,0,1,0c0,0,1,0,1,0c0,-1,0,-1,0,-1l0,-1c0,-1,0,-1,0,-1c0,-1,1,-1,1,-1c0,0,0,-1,0,-1c0,0,0,-1,0,-1l1,0c0,-1,0,-1,0,-1c1,0,1,1,2,2c1,0,1,0,1,1c1,0,1,1,1,1c1,1,1,1,1,1c0,0,0,1,0,1l0,1l-1,0c0,1,0,1,0,1ZM314.5,539.5l0,1c-1,0,-1,0,-1,0l0,1c0,0,1,0,1,0l1,0l0,-1c-1,0,-1,-1,-1,-1ZM316.5,540.5c0,1,0,1,0,1c0,0,0,1,0,1l1,0l1,0c-1,-1,-1,-1,-1,-1c0,0,0,-1,-1,-1ZM390.5,530.5c0,-1,1,-1,1,-1l1,0l0,1l0,1l0,1l1,0l-1,1l-1,-1l0,1c-1,1,-1,1,-1,1l-1,0l-1,0l1,0l0,-1c1,0,1,0,1,0l0,-1l1,0l-1,0c0,-1,0,-1,0,-1l0,-1ZM391.5,530.5l0,1l1,0l-1,-1ZM311.5,525.5l0,-1c1,0,1,0,1,0c0,0,1,0,1,0c0,0,0,1,0,1c0,0,0,1,0,1c0,1,0,1,0,1l0,1l-1,0l-1,1c0,0,-1,0,-1,0l0,1l-1,0l0,-1l1,0c0,0,0,-1,1,-1l0,-1l0,-1l0,-1ZM312.5,526.5l0,-1c-1,0,-1,0,-1,0c0,1,0,1,0,1l1,0ZM306.5,542.5l-1,0c0,1,1,1,1,1l1,0c0,0,0,-1,0,-1l-1,0ZM302.5,535.5l5,-2l-1,0c0,1,0,1,0,1l-4,2ZM335.5,543.5l-1,0c0,1,0,1,0,1l-1,0c1,0,1,0,1,0l1,0c0,0,0,-1,0,-1ZM336.5,546.5c-1,0,-1,0,-2,0l-1,0c0,0,-1,0,-1,0c-1,0,-1,0,-1,0c-1,0,-1,0,-1,0c0,0,0,-1,0,-1c0,0,0,-1,0,-1c1,0,1,0,1,0l1,0c1,0,1,-1,1,-1l1,0c0,-1,0,-1,0,-1c0,0,0,-1,-1,-1l0,-1c-1,0,-1,-1,-2,-1c0,-1,0,-1,-1,-2c0,0,-1,0,-1,0c0,-1,0,-1,0,-1c-1,0,-1,0,-1,0l-1,0c0,0,0,-1,-1,-1c0,0,0,-1,0,-1c0,-1,0,-1,0,-1l1,-1c0,1,1,1,1,1c1,1,1,1,2,2c0,0,1,1,2,2c0,0,1,1,1,2c1,0,1,1,1,1c0,0,1,1,1,1c0,0,0,-1,0,-1c0,-1,0,-2,0,-2c0,-1,0,-2,0,-2c0,0,0,-1,0,-1c0,-1,0,-1,0,-2l0,-1l0,-1c0,0,1,0,1,0c0,0,0,1,0,1c1,0,1,0,1,0c0,1,0,1,0,1c0,1,0,1,0,1l-1,0l0,1c0,0,0,1,0,1c0,1,0,1,0,1c0,1,0,1,0,2c0,0,0,1,0,1c-1,1,-1,1,-1,2c0,0,0,1,1,1c0,1,0,1,0,1c0,0,0,1,0,1l0,1ZM104.5,532.5l0,1c0,0,0,1,0,1l0,-1l1,0l0,-1l0,1c0,0,1,0,1,0l0,-1l1,-1l0,1l0,1c0,1,0,1,-1,1c0,0,-1,0,-1,0c0,1,-1,1,-1,1l-1,-1l0,-1l0,-1ZM108.5,530.5l-6,2c1,0,1,-1,1,-1l5,-3ZM332.5,529.5c0,1,0,1,0,1c1,0,1,0,1,0l0,-1l0,-1l1,0l0,1c1,0,1,0,1,-1l0,-1l0,1l0,1c0,1,0,1,0,1l-1,0l-1,0c0,1,0,1,-1,1l0,-1l0,-1ZM336.5,526.5l-5,3c0,-1,0,-2,0,-2l6,-3ZM356.5,543.5c0,0,1,0,1,0l1,0c0,-1,0,-1,0,-1c1,0,1,0,1,-1l0,-2l-1,-6l0,-1l0,-1l1,0c0,1,0,1,0,1l1,0c0,1,0,1,0,1c-1,1,-1,1,-1,1c0,0,0,1,0,2c0,0,0,1,0,3c0,0,0,1,0,1l0,1c0,0,0,1,0,1c0,0,0,1,0,1c0,1,0,1,-1,1c0,0,-1,0,-1,0l-1,0c-1,0,-1,0,-2,0l-1,0c0,0,0,-1,0,-1c0,-1,0,-1,0,-1l-1,0c0,0,0,1,0,1l-1,0l-1,0c0,0,-1,0,-1,0l-1,0l0,-2c0,0,1,-1,1,-1c1,0,1,-1,2,-1c1,-1,1,-1,1,-1l0,-1l1,-1l0,1c0,1,0,1,0,1c0,1,0,1,0,1l1,3l0,1l1,0l1,0ZM397.5,529.5l0,-1c0,0,0,-1,0,-1c0,-1,0,-2,0,-2l0,-1l1,1c0,0,0,1,0,1l0,1c0,0,0,1,0,1c0,0,-1,0,-1,1ZM358.5,529.5c0,-1,0,-1,0,-2c0,-1,0,-1,0,-2l0,-1c0,1,0,1,1,1c0,1,0,1,0,1l0,1l0,1c0,1,-1,1,-1,1ZM352.5,539.5l-1,1c-1,0,-1,1,-1,1l1,0l1,0l1,-1ZM404.5,529.5l4,-3l0,1l0,1l-4,2ZM349.5,531.5l4,-2l0,1l-4,2ZM380.5,543.5c0,1,0,1,0,1c0,0,-1,0,-1,0c1,0,1,0,1,0l1,0c0,0,0,-1,0,-1ZM382.5,546.5c-1,0,-1,0,-2,0l-1,0c0,0,-1,0,-1,0c-1,0,-1,0,-1,0l-1,0c0,0,0,-1,0,-1c0,0,0,-1,0,-1l1,0l1,0c1,0,1,-1,1,-1c1,-1,1,-1,1,-1c0,0,0,-1,-1,-1l0,-1c-1,0,-1,-1,-2,-1c0,-1,-1,-1,-1,-2c0,0,-1,0,-1,0c0,-1,0,-1,-1,-1c0,0,-1,0,-1,0c0,0,0,-1,-1,-1c0,0,0,-1,0,-1c0,-1,0,-1,0,-1l0,-1c1,0,1,0,1,0c0,1,1,1,1,1c1,1,1,1,2,2c0,0,1,1,2,2c0,0,1,1,1,2c1,0,1,1,1,1c0,0,0,1,1,1c0,0,0,-1,0,-1c0,-1,0,-2,0,-2c0,-1,0,-2,0,-2c0,0,0,-1,0,-1c0,-1,0,-1,0,-2l0,-1l0,-1c0,0,1,0,1,0c0,0,0,1,0,1c1,0,1,0,1,0c0,1,0,1,0,1c0,1,0,1,0,1l-1,0l0,1c0,0,0,1,0,1c0,1,0,1,0,1c0,1,0,1,0,2c0,0,0,1,-1,1c0,1,0,1,0,2c0,0,0,1,0,1c0,0,1,0,1,0c0,1,0,1,0,1c0,0,0,1,0,1l0,1ZM380.5,529.5l4,-2l0,1l-4,2ZM377.5,530.5c-1,0,-2,1,-3,1l-1,-1c-1,0,-1,0,-1,0c0,1,-1,1,-1,1l0,-1l1,-1c1,0,1,0,2,0c0,0,0,1,1,1l1,-1l1,0l1,0ZM406.5,545.5l0,-2l0,-1l0,-8l1,-3l0,11l0,1c0,1,-1,1,-1,2ZM402.5,544.5l-1,0c0,0,-1,0,-1,0c-1,-1,-1,-1,-1,-2c0,1,0,1,-1,2c0,0,-1,0,-2,0c0,0,-1,0,-1,0c-1,-1,-1,-1,-1,-2c0,1,-1,1,-1,1c0,0,-1,0,-2,0c0,0,-1,0,-1,0c0,0,-1,-1,-1,-1c0,0,1,-1,1,-1l1,-1c0,0,1,0,1,-1l1,0l1,-1l0,-1c0,0,0,-1,0,-1l0,1l1,1l0,3l0,1c1,0,1,1,2,1c0,0,0,-1,1,-1l0,-1c0,0,0,-1,0,-2c0,-1,0,-1,0,-2c0,-1,0,-1,0,-1l0,-1l0,-1l1,3l0,2l0,1c0,0,0,1,0,1c1,0,1,0,1,0c0,1,0,1,1,1l1,0l0,-1l0,-1l0,-1l-1,-1l0,-1l0,-1l1,-1l0,1c0,0,0,1,0,1l1,2c0,1,0,1,0,2c0,0,0,1,0,2c0,0,-1,0,-1,1ZM394.5,539.5l-1,1c-1,0,-1,0,-1,0c0,1,-1,1,-1,1c1,0,2,0,2,0c0,0,1,0,1,0ZM396.5,531.5l0,1l1,0l0,-1l1,-1l0,1c0,0,1,0,1,0l0,-1l1,-1l0,1l0,1l0,1c0,0,-1,0,-1,1l-1,0l0,-1l0,1l-1,0c0,0,0,1,-1,1c0,0,0,-1,0,-1c0,0,-1,0,-1,0l0,-1l1,-1ZM72.5,584.5c0,1,-1,1,-2,2c-1,0,-2,0,-3,1c-1,0,-2,0,-3,0l-1,0c0,0,-1,0,-1,0c0,0,-1,0,-1,0l0,-1c-1,0,-1,1,-2,1c0,0,-1,0,-1,0l-1,0l-1,0l-1,0l-1,0l0,-1l0,-1l-1,1l-1,1l-1,0c0,0,-1,0,-1,0l-1,0c0,0,-1,0,-1,0c-1,0,-1,-1,-1,-1l0,-1l0,-1l1,0c0,0,0,1,0,1l1,0l1,0l1,0l1,0c0,0,1,0,1,0l0,-1l0,-1l0,-2l0,-1l0,-1l0,-1l1,2l0,1l0,3c1,0,1,0,1,0c0,1,0,1,0,1c0,1,0,1,0,1c0,0,1,0,1,0l1,0l1,0c0,0,1,0,1,0c0,0,1,-1,1,-1c0,-1,1,-1,1,-1c0,1,0,1,0,1l1,1l1,0l1,0c1,0,2,-1,2,-1c0,0,-1,0,-1,-1c0,0,0,-1,0,-1c0,0,0,-1,0,-1l0,-1c1,0,1,0,1,0c0,-1,0,-1,0,-1l1,0c0,0,0,-1,0,-1c1,0,1,0,2,0c0,0,1,0,1,0l0,1c0,0,1,0,1,0c0,0,0,1,0,1l-1,0l-1,-1l-1,0l0,1c0,0,-1,0,-1,0c-1,0,-1,0,-1,0c0,1,0,1,0,1c0,1,1,1,1,1c0,1,1,1,2,1l1,0l1,0l0,-1l1,0l1,0ZM68.5,591.5l-4,2c0,-1,0,-1,0,-1l4,-2ZM60.5,583.5l-2,-1l1,-1l2,0ZM49.5,574.5l4,-2l0,1l-4,2ZM42.5,588.5c-1,0,-1,0,-2,-1c0,0,0,-1,0,-2l0,-1l0,-1l1,-2c0,0,1,-1,1,-1c0,0,1,1,1,1c1,1,1,1,1,2l1,1c0,2,-1,3,-2,3c0,1,-1,1,-1,1ZM42.5,583.5l-1,0c0,0,0,1,-1,1l0,1l1,0l0,1l1,0l1,0l0,-1c1,0,1,0,1,0c0,0,0,-1,-1,-1c0,-1,-1,-1,-1,-1ZM41.5,578.5l0,-1l-1,0l0,-1c0,-1,0,-1,0,-2c1,0,1,-1,1,-1l1,-1c0,0,1,0,1,0l-1,1l-1,1l0,1c0,0,0,1,0,1l1,0l1,1c0,1,0,1,-1,1c-1,0,-1,0,-1,0ZM46.5,570.5c-1,0,-2,0,-4,0l-1,0c0,0,-1,0,-1,0l-1,0c0,0,-1,0,-1,1l0,-1l1,-1c2,0,3,0,4,0l1,0l1,0l1,0l1,0ZM250.5,588.5c-1,0,-1,0,-2,0c-1,0,-1,0,-2,0c-1,0,-1,0,-1,0c0,0,-1,0,-1,0c0,0,0,-1,0,-1c0,0,0,-1,1,-1l1,0l1,0c0,0,0,-1,0,-1c0,0,1,0,1,0c0,-1,0,-1,0,-1l-1,-1l0,-1c-1,0,-1,-1,-1,-1c-1,-1,-1,-1,-2,-2l-1,0c0,-1,0,-1,0,-1c0,0,-1,0,-1,0l-1,0c0,0,0,-1,0,-1c0,0,-1,0,-1,-1c0,-1,0,-1,0,-1c0,0,1,0,1,-1c0,1,1,1,1,1c1,1,1,1,2,2c1,1,1,1,2,2c0,0,1,1,1,2c1,0,1,1,1,1c0,0,1,1,1,1c0,0,0,-1,0,-1c0,-1,0,-2,0,-2c0,-1,0,-2,0,-2c0,0,0,-1,0,-1c0,-1,0,-1,0,-2c0,-1,0,-1,0,-2c1,0,1,0,1,0c0,0,0,1,0,1l1,0c0,1,0,1,0,1c0,1,0,1,0,1c0,0,-1,0,-1,1c0,0,0,1,0,1c0,1,0,1,0,1c0,1,0,1,0,2c0,0,0,1,0,1c0,1,-1,1,-1,2c0,0,1,1,1,1c0,1,0,1,0,1c0,1,0,1,0,1l0,1ZM249.5,585.5l-1,0c0,1,0,1,0,1l1,0c0,0,0,-1,0,-1ZM204.5,579.5l0,-1c0,0,1,0,1,-1l0,-1l0,-1l0,-1l0,-1c0,-1,0,-1,0,-1l0,1l0,1l0,1l0,1l0,1l1,-1l1,0l1,0l1,0l0,1c0,1,-1,1,-1,1c-1,0,-1,0,-1,0c-1,1,-1,1,-1,1ZM207.5,576.5c0,1,0,1,0,1l-1,0l-1,1l1,0c0,0,1,0,1,0c1,-1,1,-1,1,-1c0,-1,0,-1,0,-1l-1,0ZM116.5,590.5l-1,-1l-1,1l-1,-1l1,-1l1,1l1,-1l1,0ZM113.5,584.5c0,0,1,0,1,0c1,0,1,0,1,0c0,0,0,-1,0,-1l0,-1c-1,-1,-1,-1,-1,-1c-1,0,-1,0,-1,0l0,-1c0,0,0,-1,0,-1c0,-1,0,-1,0,-1c1,0,1,0,1,1c1,0,1,0,1,1c0,1,1,1,1,1c0,1,0,1,0,2l0,1c0,0,-1,0,-1,1c-1,0,-1,0,-1,0l0,1l-1,0l-1,0l0,-1l-1,0c0,0,0,-1,0,-1l0,-1l-1,1l0,1c-1,0,-1,0,-2,0c0,0,-1,0,-1,-1l-1,1l-1,1c-1,0,-2,-1,-2,-2l0,1c-1,0,-2,0,-2,1l-1,0l-1,0l-1,0c-1,0,-1,-1,-2,-1c0,0,-1,0,-1,0c0,0,-1,0,-2,0c0,0,-1,0,-2,1l-1,0c-1,0,-1,-1,-1,-1c-1,0,-1,0,-2,0l-1,-1c0,0,0,-1,-1,-1c0,1,-1,1,-1,1c0,0,-1,0,-1,1c-1,1,-1,1,-2,2c0,1,0,1,0,2c0,0,0,1,0,1c0,1,1,2,2,2c0,1,0,1,0,1l1,0l1,1l1,0c0,0,1,0,1,0c0,0,1,0,1,0l1,0c0,0,1,0,1,0l1,0l1,0l1,0l-4,2c0,0,-1,0,-2,0c0,0,-1,0,-1,0c-1,0,-1,0,-1,0c-1,-1,-2,-1,-2,-1c-1,0,-1,-1,-1,-1c-1,-1,-1,-1,-2,-2l0,-1c0,-1,0,-1,0,-1c0,-1,0,-2,0,-2c0,-1,0,-1,0,-1l1,0c0,-1,0,-1,0,-1c0,0,1,-1,1,-1c0,-1,0,-1,1,-1c0,0,0,-1,1,-1l1,-1c-1,0,-1,0,-1,0c0,0,-1,0,-1,-1l-1,0l1,-1c1,-1,1,-1,1,-1l1,0l1,0l1,0c0,0,0,1,0,1c1,0,1,0,1,0c0,0,0,1,0,1c0,1,0,1,-1,1l0,1c1,0,1,0,1,1l1,0c0,0,1,0,1,0l1,0c1,0,1,0,1,0c1,0,1,0,1,0l1,0c-1,-1,-1,-1,-1,-1l0,-1c0,0,0,-1,1,-1c0,-1,0,-1,0,-1c0,-1,1,-1,1,-1c0,0,1,-1,1,-1c1,0,1,1,2,1c0,0,0,1,0,1l0,1c0,1,0,1,0,1c0,0,0,1,0,1c-1,0,-1,0,-1,1l1,0c0,0,1,0,1,0l1,0l1,0l1,0c1,-1,1,-1,2,-2l0,1c0,0,0,1,1,1c0,0,1,0,1,-1c0,0,1,0,1,-1l1,0c0,0,0,1,0,1l1,0l1,0c0,-1,0,-1,1,-1c0,1,1,2,2,2ZM112.5,573.5l4,-2l0,1l-4,2ZM106.5,577.5l-2,0l1,-2l2,1ZM108.5,580.5l-2,-1l-1,1l-1,-1l1,-1l1,1l1,-2l1,1ZM182.5,572.5c0,0,1,0,1,0c0,0,1,0,1,0c1,0,1,0,2,0l0,1l0,1c-1,0,-1,0,-1,0c0,1,-1,1,-1,1l-1,0c0,0,-1,0,-1,0l2,-1c1,0,1,0,1,-1c-1,0,-1,0,-1,0c-1,0,-1,0,-1,0c-1,0,-1,0,-1,0c0,0,0,-1,0,-1ZM57.5,571.5c1,0,1,-1,1,-1c1,0,1,0,2,0c0,0,1,0,1,0c1,1,1,1,1,1c0,1,-1,1,-1,1c0,0,0,1,-1,1c-1,0,-1,0,-1,0l-1,0l1,0c1,-1,2,-1,2,-1c0,0,-1,-1,-1,-1l-1,0c0,0,-1,0,-1,1l-1,0c0,-1,0,-1,0,-1ZM104.5,570.5c0,0,1,0,1,0c0,0,1,0,1,0c1,0,1,0,2,0l0,1l0,1c-1,0,-1,0,-1,0c0,0,-1,1,-1,1l-1,0l-1,0l2,-1c1,0,1,0,2,-1c-1,0,-1,0,-1,0c-1,0,-1,0,-1,0c0,0,-1,0,-1,0c0,0,-1,0,-1,0c0,0,0,-1,0,-1ZM96.5,577.5l-2,-1l1,-1l2,1ZM96.5,580.5c0,0,-1,0,-1,1c-1,0,-1,0,-1,0c0,1,0,1,0,1c1,0,1,0,1,1c1,0,1,-1,1,-1c1,0,1,0,1,0c0,-1,0,-1,0,-1c-1,-1,-1,-1,-1,-1ZM94.5,569.5l4,-2l0,1l-4,2ZM85.5,570.5c0,-1,0,-1,1,-1c0,0,0,-1,0,-1l1,0c0,1,0,1,0,1l0,1l0,1l0,1l0,1l-1,-1l0,1l-1,0c0,1,0,1,-1,1l-1,0l1,-1l1,0l0,-1l1,0l-1,0l0,-1l0,-1ZM86.5,570.5c0,0,-1,0,-1,0l1,0l0,1l0,-1ZM155.5,586.5l0,-2l0,-1l-1,-8l1,-3l1,11c0,0,0,1,0,1c-1,1,-1,1,-1,2ZM148.5,586.5c-1,0,-1,0,-1,0l0,-1c0,-1,-1,-1,-1,-2c0,1,0,1,0,1l-1,1c0,0,-1,0,-1,0c-1,0,-1,0,-2,0l-1,0c-1,0,-1,0,-1,-1c0,0,0,-1,0,-1l0,-1c0,1,0,1,1,1c1,0,1,0,1,0l1,0c1,0,1,0,1,0c1,0,1,0,1,0c0,0,1,0,1,-1l0,-1c0,0,0,-1,0,-2c-1,0,-1,-1,-1,-1c0,0,1,0,1,-1c0,0,0,-1,0,-1l0,2c1,0,1,0,1,1c0,1,0,2,0,2c0,1,0,1,0,2c0,0,0,1,1,1l0,1c0,0,1,0,1,0c0,1,0,1,1,1l0,-1c0,-1,0,-1,0,-3c0,0,0,-1,0,-2l0,-1c0,-1,0,-1,0,-2c0,-1,0,-2,0,-3l-1,0l0,-1l1,-1c0,0,0,1,1,1l1,0c0,1,-1,1,-1,1c0,1,0,1,0,1c0,1,0,1,0,2c0,0,0,1,0,3c0,0,0,1,0,1c0,0,0,1,0,1c0,2,0,2,0,2c0,1,0,1,0,1l0,1c0,0,0,1,0,1c0,0,-1,0,-1,0c-1,0,-1,0,-2,0l0,-1ZM149.5,567.5l0,1c0,1,1,1,1,1l0,-1l1,-1l0,1l1,0l0,-1l0,-1l0,1l0,1c0,1,0,1,0,1l-1,0l-1,0c0,1,0,1,0,1c-1,0,-1,0,-1,-1l0,-1ZM153.5,565.5l-5,2c0,0,0,-1,0,-1l6,-3ZM145.5,575.5l-2,-1l1,-1l2,0ZM143.5,589.5l-4,2c0,-1,0,-1,0,-1l4,-2ZM136.5,579.5c0,0,-1,0,-1,0c0,0,-1,0,-1,0c0,0,-1,0,-2,1c-1,1,-1,1,-1,2l1,1c0,0,1,0,1,0l1,0c1,0,1,0,2,0c0,1,0,1,0,1c0,1,0,1,0,1c0,1,-1,1,-1,1l-1,1c0,0,-1,1,-2,1c0,0,-1,0,-2,1c-1,0,-1,0,-2,0l-1,0c0,0,-1,0,-1,0c-1,0,-1,-1,-2,-1c0,0,-1,-1,-1,-1c0,-1,0,-1,0,-2c0,-1,0,-1,0,-2c0,-1,1,-1,1,-2l0,-1l1,0l0,1c0,0,-1,0,-1,1c0,1,0,1,0,1c0,0,0,1,0,1c0,1,0,1,0,1c0,0,0,1,1,1c0,1,2,1,3,1c1,0,2,0,3,0l2,-1c0,0,1,0,1,0c0,-1,0,-1,1,-1l-2,0c-1,-1,-2,-1,-2,-1c-1,0,-1,-1,-1,-1c0,0,0,-1,0,-1c0,0,0,-1,1,-1c0,-1,0,-1,0,-1c1,-1,1,-1,1,-1c0,0,1,-1,1,-1c0,0,1,-1,1,-1c1,0,1,0,2,0c1,0,1,0,1,0c0,0,0,1,0,1l0,1c-1,0,-1,0,-1,0ZM171.5,575.5l-2,-1l1,-2l1,1ZM175.5,584.5l-1,1l-1,0c0,0,-1,0,-1,1l-1,0l-1,0l-1,0c0,0,-1,-1,-1,-1c0,-1,0,-1,1,-1c0,-1,0,-1,0,-1c0,0,0,1,0,1l1,0c0,0,1,0,2,0c0,0,0,-1,0,-1c1,0,1,0,1,0c1,0,1,0,1,0c0,-1,0,-1,0,-1c0,-1,0,-1,-1,-1l0,-1l-1,0l-1,-1l-1,0l1,-2l1,0c0,0,0,1,0,1l1,0l1,1l0,1c1,0,1,1,1,1c0,0,0,1,0,1c0,1,0,1,0,1c0,1,0,1,0,1ZM168.5,569.5l5,-2l-1,1l-4,2ZM164.5,586.5l0,-2l0,-1l0,-8l1,-3l0,11c0,0,0,1,0,1c0,1,0,1,-1,2ZM198.5,585.5c0,0,-1,0,-1,0l-1,0l0,-1l-1,0l-1,0c0,1,0,1,0,1l-1,0l0,1l-1,0l-2,0c0,1,0,1,0,1c0,1,0,2,0,2c0,1,-1,1,-1,2c-1,0,-1,1,-2,1c-1,0,-2,1,-3,1c0,0,-1,-1,-1,-1c-1,0,-1,0,-2,0c0,-1,-1,-1,-1,-2c0,0,0,-1,0,-1c0,-1,0,-1,0,-1l0,-1c0,-1,0,-1,0,-1c1,0,1,0,1,0c0,-1,0,-1,0,-1l1,0c-1,0,-1,1,-1,1l0,1c0,0,0,1,0,1c0,0,0,1,0,1c0,0,0,1,1,1l1,0c0,0,1,1,2,1c1,0,1,-1,2,-1c1,0,2,0,2,-1c0,-1,1,-1,1,-1l-1,0c0,-1,0,-1,0,-1c0,-1,0,-1,0,-1c0,0,0,-1,0,-1l-1,0l1,-2c0,0,1,0,1,0c0,1,0,1,1,1l1,0l1,0c0,0,1,0,1,0l0,-1l1,-1c0,0,0,-1,1,-1c0,-1,1,-1,1,-1c0,0,1,0,1,1c0,0,0,1,0,1l0,1l1,0l0,1c-1,0,-1,0,-1,0c0,0,0,1,0,1ZM196.5,583.5l1,0c0,0,0,-1,0,-1l-1,0c0,1,0,1,0,1ZM193.5,572.5l4,-2l0,1l-4,2ZM185.5,583.5l-1,-1l1,-1l1,1ZM208.5,562.5c0,0,-1,0,-1,0l1,0ZM210.5,566.5l0,1c-1,0,-1,0,-1,0l-1,0l-3,0c-1,0,-1,0,-1,0c0,-1,0,-1,0,-1l1,-1l1,-1l0,-2c0,0,0,-1,0,-1l0,2l0,1l0,1c1,0,1,0,1,0c0,0,1,0,1,0l0,-1l0,1l-1,0c0,0,0,-1,0,-1l0,-1l1,0l0,1l1,0c0,1,0,1,-1,1c0,1,0,1,-1,1l-1,0c0,-1,0,-1,0,-1c0,-1,0,-1,0,-1l0,1l-1,0l0,1l-1,0l1,0l1,0l3,0l1,0ZM208.5,564.5l-1,-1l0,1ZM255.5,586.5l0,-2l0,-1l-1,-8l1,-3l1,11c0,0,0,1,0,1c-1,1,-1,1,-1,2ZM240.5,567.5l4,-2l-1,1l-4,2ZM250.5,568.5c0,-1,0,-1,0,-1c1,0,1,0,1,0c1,0,1,0,1,0c1,0,1,1,1,1c0,0,0,1,-1,1l-1,0l-1,0l1,0c1,0,1,0,1,-1l-1,0c0,0,-1,0,-1,0l-1,0ZM230.5,589.5c0,0,1,0,1,0c1,0,2,0,3,-1c1,0,1,-1,1,-1c1,-1,1,-1,2,-2c0,-1,0,-1,0,-1c0,-1,0,-1,0,-1l0,-1l-1,0l0,-2l1,0c0,1,0,1,1,2l0,1l0,1c0,0,0,1,0,1l0,1l-1,0l0,1l0,1c-1,0,-1,0,-1,1c0,0,-1,0,-1,0l-1,0c0,0,0,1,0,1c-1,0,-1,0,-1,0l-1,0c-1,-1,-1,-1,-1,-1l-1,0ZM232.5,575.5c0,0,0,-1,1,-1c0,0,1,0,1,0c1,0,1,0,1,0c1,1,1,1,1,1c0,1,0,1,-1,1c0,0,0,1,0,1l-1,0c0,0,-1,0,-1,0c-1,0,-1,0,-1,0l2,0c0,-1,1,-1,1,-1c0,0,0,-1,-1,-1c-1,0,-1,0,-2,1c0,-1,0,-1,0,-1ZM223.5,579.5l-2,-1l1,-2l2,1ZM221.5,586.5l-1,0l0,1l0,1l-1,-1l0,-1l1,0l-1,0l0,1c0,0,-1,1,-1,1c0,0,0,1,0,1c0,1,0,1,-1,1c0,1,0,1,-1,1c0,0,0,1,-1,1l-1,0c0,0,0,1,-1,1c-1,0,-2,0,-3,-1c0,0,-1,0,-1,-1c0,0,-1,0,-1,-1c0,0,0,-1,0,-1l0,-1c0,-1,0,-1,0,-1l0,-1c0,0,1,-1,1,-1l1,0l-1,0c0,1,0,1,0,1c0,1,0,1,0,2c0,0,0,1,0,1c0,0,1,1,1,1c0,0,1,1,1,1l1,0c0,0,1,0,1,0c0,0,1,0,1,0c1,-1,1,-1,2,-1c0,0,1,-1,1,-1c1,-1,1,-1,1,-2c0,-1,0,-1,0,-2c-1,0,-1,0,-1,-1l1,-1c0,1,1,1,1,1l1,0l1,0l0,-1l1,0l1,-1l1,-1l1,0l0,-1c1,0,1,0,2,0l1,0c1,0,1,0,1,0c0,0,1,1,1,1c0,1,0,1,0,1c0,1,0,1,0,1l0,1l-1,0c0,1,-1,1,-1,1l-1,0c-1,0,-1,0,-1,0l-2,1l-1,0l-1,0ZM225.5,582.5l-1,0l-1,1l-1,1l3,0c1,0,2,0,2,0c1,-1,2,-1,2,-1l0,-1c0,0,-1,0,-1,0l-1,0c0,0,-1,0,-1,0c0,0,-1,0,-1,0ZM217.5,596.5l-4,2c0,-1,0,-1,0,-1l4,-2ZM272.5,576.5l-2,-1l1,-1l2,1ZM273.5,582.5l0,1l-1,0c-1,0,-1,0,-1,0c0,0,-1,0,-1,0c0,0,0,-1,0,-1l0,-1c0,0,0,-1,0,-1c0,-1,1,-1,1,-1c0,-1,1,-1,1,-1c0,0,1,0,1,0c0,1,1,1,1,2l0,1l0,1c0,0,0,1,0,1l0,1c0,1,-1,1,-1,2c0,0,1,0,1,0c1,0,1,0,1,0c0,0,0,1,0,1c0,1,0,1,0,1l-1,1c0,0,-1,1,-1,1c-1,0,-1,1,-2,1c-1,0,-2,0,-3,0c-1,0,-1,0,-2,0c-1,0,-1,0,-2,-1l0,-1c-1,0,-1,-1,-1,-1c0,-1,0,-1,0,-1c0,0,0,-1,1,-1c0,-1,0,-2,1,-2l0,-1c0,1,0,1,0,1c0,0,0,1,-1,1c0,1,0,1,0,2c0,1,1,1,1,2c1,0,2,1,3,1c1,0,1,0,2,-1l1,0c0,0,1,0,2,-1c0,0,1,0,1,0c-1,-1,-1,-1,-2,-1c0,0,-1,0,-1,0c0,-1,0,-1,0,-1c0,-1,0,-1,0,-1c1,0,1,0,2,0c0,0,0,-1,0,-1c1,0,1,0,1,0c0,-1,0,-1,0,-1c0,-1,-1,-1,-1,-1ZM271.5,580.5l0,1l1,0l1,0c0,0,0,-1,-1,-1l-1,0ZM275.5,592.5l-4,2c0,-1,0,-1,0,-1l4,-2ZM299.5,582.5l-1,0c0,1,1,1,1,1c0,-1,0,-1,1,-1c-1,0,-1,0,-1,0ZM299.5,589.5c0,0,-1,1,-1,1c-1,0,-2,0,-2,0c-1,0,-1,0,-2,0c0,0,-1,0,-1,-1c0,0,1,0,1,0l1,0c1,0,1,0,1,0l1,0c1,-1,1,-1,1,-1c1,-1,1,-1,1,-1c0,0,1,-1,1,-1c0,-1,0,-1,0,-2l0,1c-1,0,-1,0,-1,0c0,0,-1,0,-1,0l0,-1c-1,0,-1,0,-1,0c0,0,0,-1,0,-1c0,0,0,-1,0,-1c0,-1,1,-1,1,-1c0,-1,0,-1,0,-1c1,0,1,-1,1,-1c1,0,1,1,1,1l1,1c0,1,0,1,0,1c0,1,0,1,0,2c0,0,0,1,0,1c0,1,0,2,-1,2c0,1,0,1,0,1c-1,1,-1,1,-1,1ZM296.5,576.5l4,-2c0,1,0,1,0,1l-4,2ZM292.5,585.5l-1,0c-1,0,-1,0,-1,-1l-1,0c0,1,-1,1,-1,1l-1,1l-1,0l-1,0c-1,0,-1,-1,-2,-1c0,-1,-1,-1,-1,-2l0,-9l1,-2l0,10l0,1l1,0c0,1,1,1,1,1l1,0l1,0c1,0,1,0,1,0l1,-1l0,-1c1,0,1,-1,1,-1c1,-1,1,-1,1,-1c1,0,1,0,1,1c0,0,1,1,1,1l0,1l0,1c0,0,-1,1,-1,1ZM290.5,583.5l1,0l1,0c0,0,0,-1,-1,-1c-1,0,-1,0,-1,0c0,1,0,1,0,1ZM287.5,572.5l5,-2l-1,1l-4,2ZM366.5,586.5l0,-2l0,-1l0,-8l0,-3l1,11c0,0,0,1,0,1c0,1,-1,1,-1,2ZM358.5,584.5c1,0,1,0,1,0c1,0,1,0,1,0c0,0,1,-1,1,-1l0,-1l0,-1l-1,-7l0,-1l0,-1c1,0,1,0,1,0c0,1,0,1,0,1c1,0,1,0,1,0c0,1,0,1,0,1c0,1,0,1,0,1c0,1,0,1,0,2c0,0,0,1,0,3c0,0,0,1,0,1l0,1c0,0,0,1,0,1c0,0,0,1,0,1c-1,0,-1,0,-1,0c0,1,0,1,0,1l-1,0l-1,0l0,1l-1,0l-1,-1l-1,0c0,0,0,-1,0,-1l0,-1l0,1c-1,0,-1,0,-1,1c0,0,-1,0,-1,0c-1,0,-1,0,-2,-1l0,1c-1,0,-1,0,-2,1c-1,0,-1,-1,-2,-2l0,1c-1,0,-1,0,-2,0l0,1l-1,0l-1,0c0,0,-1,-1,-1,-1l-1,0c0,0,0,1,-1,1c0,0,-1,0,-1,0l-1,-1l-2,-1l0,1c-1,0,-1,1,-1,1l-1,0l-1,0l-1,0l-1,1l0,1c0,0,0,1,-1,1c0,0,0,1,-1,1c-1,1,-1,1,-1,1c0,0,-1,0,-1,0l-1,0c0,0,-1,0,-2,0c0,-1,0,-1,0,-1l1,0c1,0,1,0,2,0c0,0,0,-1,1,-1l1,0c0,-1,0,-1,0,-1c1,0,1,-1,1,-1l0,-1c1,0,1,0,1,0c0,0,-1,0,-1,0c-1,-1,-1,-1,-1,-1c-1,0,-1,0,-1,-1l0,-1l0,-1c1,0,1,0,1,-1c1,0,1,0,1,0l1,0l0,1c0,0,1,1,1,1c0,0,0,1,0,1c0,0,1,0,1,0c1,0,1,0,1,0l1,0l1,-1l1,-1c1,-1,2,-2,2,-2l0,1l1,1l1,0l0,1l1,0c0,1,0,1,1,1l1,0l1,0l1,0c1,-1,1,-1,2,-2l0,1c0,0,1,1,1,1c1,0,1,0,2,-1l0,-1l1,0c0,0,0,1,0,1c0,0,1,0,1,0c0,0,1,0,1,0c1,-1,1,-1,1,-1c1,1,1,2,2,2ZM351.5,576.5c0,1,0,1,0,1l1,0c0,-1,0,-1,0,-1l0,-1l1,0l0,1c0,0,1,0,1,-1l0,-1l0,1l0,1c0,1,0,1,-1,1l-1,0c0,1,-1,1,-1,1c0,-1,0,-1,-1,-1l0,-1l1,0ZM355.5,573.5l-6,3c1,-1,1,-2,1,-2l5,-3ZM341.5,584.5l0,-1c-1,0,-1,-1,-1,-1l-1,0l0,1l1,0l1,1ZM339.5,577.5l0,-1c0,0,0,-1,-1,-1c0,-1,0,-1,0,-2l1,-1c0,0,0,1,0,1c0,1,0,1,0,1l0,1c0,1,0,1,0,1c0,0,0,1,0,1ZM331.5,583.5c-1,0,-1,0,-1,0c0,1,0,1,0,1c1,0,1,0,1,0c1,0,1,0,1,0l0,-1c-1,0,-1,0,-1,0ZM331.5,578.5c0,-1,0,-2,-1,-2c0,-1,0,-1,0,-2l1,-1c0,0,0,1,0,1c0,1,0,1,0,1l0,1c0,1,0,1,0,1c0,0,0,1,0,1ZM319.5,579.5l-1,1l-1,-1l-1,1l-2,-1l1,-1l2,1l1,-1ZM325.5,584.5c-1,0,-1,0,-2,1c-1,0,-2,0,-3,1c-1,0,-3,0,-4,0c-1,0,-3,0,-3,0c-2,0,-2,-1,-3,-1c0,-1,0,-1,-1,-1l0,-1l0,-1c0,0,0,-1,0,-1c1,-1,1,-1,1,-2c1,0,1,1,1,1c0,0,-1,0,-1,1c0,1,0,1,0,2c1,0,1,0,2,1c0,0,1,0,1,0l1,0l1,0l2,0c1,0,1,0,2,0l1,0l1,0l1,-1c0,0,1,0,2,0c0,-1,1,-1,1,-1l0,-1c-1,0,-1,-1,-1,-1l0,-1c0,0,1,-1,1,-1c0,1,0,1,0,2c0,0,1,0,1,0c0,0,0,1,0,1c0,1,0,1,-1,1c0,1,0,1,0,2ZM319.5,590.5l-4,2c0,-1,0,-1,0,-1l4,-2ZM383.5,576.5l-2,-1l1,-1l1,1ZM384.5,582.5l0,1l-1,0c-1,0,-1,0,-1,0c0,0,-1,0,-1,0c0,0,0,-1,0,-1l0,-1c0,0,0,-1,0,-1c0,-1,1,-1,1,-1c0,-1,1,-1,1,-1c0,0,1,0,1,0c0,1,1,1,1,2l0,1l0,1c0,0,0,1,0,1l0,1c0,1,-1,1,-1,2c0,0,1,0,1,0c1,0,1,0,1,0c0,0,0,1,0,1c0,1,0,1,0,1l-1,1c0,0,-1,1,-1,1c-1,0,-2,1,-2,1c-1,0,-2,0,-3,0c-1,0,-1,0,-2,0c-1,0,-1,0,-2,-1l-1,-1c0,0,0,-1,0,-1c0,-1,0,-1,0,-1c0,0,0,-1,1,-1c0,-1,0,-2,1,-2l0,-1c0,1,0,1,0,1c0,0,-1,1,-1,1c0,1,0,1,0,2c0,1,1,1,1,2c1,0,2,1,3,1c1,0,1,0,2,-1l1,0c0,0,1,0,2,-1l1,0c-1,-1,-1,-1,-2,-1c0,0,-1,0,-1,0c0,-1,0,-1,0,-1c0,-1,0,-1,0,-1c1,0,1,0,1,0c1,0,1,-1,1,-1c0,0,1,0,1,0c0,-1,0,-1,0,-1c-1,-1,-1,-1,-1,-1ZM382.5,580.5l0,1l1,0l1,0c0,0,-1,-1,-1,-1l-1,0ZM386.5,592.5l-4,2c0,-1,0,-1,0,-1l4,-2ZM403.5,585.5l-1,0c-1,0,-1,0,-1,-1l-1,0c-1,1,-1,1,-1,1l-1,1l-1,0l-1,0c-1,0,-1,-1,-2,-1c0,-1,-1,-1,-1,-2l0,-9l1,-2l0,10l0,1l1,0c0,1,0,1,1,1l1,0l1,0c1,0,1,0,1,0l1,-1l0,-1c0,0,1,-1,1,-1c1,-1,1,-1,1,-1c1,0,1,0,1,1c0,0,1,1,1,1l0,1l0,1c0,0,-1,1,-1,1ZM401.5,583.5l1,0l1,0c0,0,0,-1,-1,-1c-1,0,-1,0,-1,0c0,1,0,1,0,1ZM398.5,572.5l5,-2l-1,1l-4,2ZM418.5,584.5c1,0,1,0,1,0c1,0,1,0,1,0c0,0,1,-1,1,-1l0,-1l0,-1l-1,-7l0,-1l0,-1c1,0,1,0,1,0c0,1,0,1,0,1c1,0,1,0,1,0c0,1,0,1,0,1c0,1,0,1,0,1c0,1,0,1,0,2c0,0,0,1,0,3c0,0,0,1,0,1l0,1c0,0,0,1,0,1c0,0,0,1,0,1c-1,0,-1,0,-1,0c0,1,0,1,0,1l-1,0l-1,0l0,1l-1,0c0,0,-1,-1,-1,-1c-1,0,-1,0,-1,0c0,0,0,-1,0,-1c-1,0,-1,0,-1,0c0,-1,0,-1,0,-1c0,0,0,1,-1,1l-1,0c-1,0,-1,0,-2,0l0,-2c0,0,0,-1,1,-1c0,0,1,-1,2,-1c0,-1,1,-1,1,-1l-1,-1c0,0,1,0,1,0l0,-1l0,1c0,1,1,1,1,1c0,1,0,1,0,1l0,3l1,1c0,0,1,0,1,0ZM415.5,580.5l-1,0l0,1l-1,0c0,0,-1,1,-1,1l1,0l1,0c0,0,1,0,1,0l0,-1ZM411.5,575.5c0,0,0,-1,0,-1c0,-1,0,-1,0,-2c0,-1,0,-1,0,-1l0,-1l1,0c0,0,1,0,1,0l-1,0l0,1l0,1l-1,0l0,1c0,0,0,1,0,1c1,0,1,0,1,0c0,0,1,0,1,0c0,1,0,1,0,1c0,0,0,1,0,1c0,0,-1,0,-1,0c0,0,-1,0,-1,-1ZM419.5,569.5l4,-2c0,0,0,1,0,1l-4,2ZM341.5,544.5l0,-1l0,-1l-1,-9l1,-2l1,10c0,1,0,1,0,1l0,1c-1,0,-1,1,-1,1ZM344.5,546.5l-4,2c0,0,0,-1,0,-1l4,-2ZM363.5,543.5l0,-1l0,-1l0,-8l1,-3l0,11l0,1c0,1,-1,1,-1,1Z" class="g2_16" />
</svg>