<?xml version="1.0" encoding="UTF-8" standalone="no"?>
<!DOCTYPE svg PUBLIC "-//W3C//DTD SVG 1.1//EN"
"http://www.w3.org/Graphics/SVG/1.1/DTD/svg11.dtd">
<svg version="1.1" xmlns="http://www.w3.org/2000/svg" xmlns:xlink="http://www.w3.org/1999/xlink">
<defs>
<style type="text/css"><![CDATA[
.g2_8{
fill: #1F1A17;
stroke: #1F1A17;
stroke-width: 1;
stroke-linecap: butt;
stroke-linejoin: miter;
}
.g1_8{
stroke: #1F1A17;
stroke-width: 1;
stroke-linecap: butt;
stroke-linejoin: miter;
}
]]></style>
</defs>
<path fill-rule="evenodd" d="M266.5,50.5c0,1,0,1,1,1c0,-1,0,-1,0,-1l0,-1l1,0l0,1c1,0,1,0,1,-1l0,-1l0,1l0,1c0,1,0,1,0,1l-1,0l-1,0c0,1,0,1,-1,1c0,-1,0,-1,0,-1l0,-1ZM183.5,50.5l1,0l1,0c0,0,1,0,1,0c1,0,1,0,1,1c0,0,-1,0,-1,1c-1,0,-1,0,-1,0l0,1c-1,0,-1,0,-1,0l-1,0l1,-1c1,0,2,0,2,-1l-1,0l-1,0l-1,0l-1,0c0,0,1,-1,1,-1ZM281.5,53.5c1,0,1,0,1,0c1,0,1,0,2,0c0,0,1,0,1,0c0,0,1,0,1,1c-1,0,-1,1,-1,1l-1,0c0,1,0,1,-1,1l-1,0l1,-1c1,0,1,0,2,-1c0,0,-1,0,-1,0c0,0,-1,0,-1,0c0,0,-1,0,-1,0l-1,0c0,0,0,-1,0,-1ZM213.5,51.5l0,-1c0,0,0,-1,0,-1c0,-1,0,-2,0,-2l0,-1c0,0,1,1,1,1c0,0,0,1,0,1l0,1l0,1c0,0,0,1,-1,1ZM167.5,61.5c0,1,0,2,0,2c0,0,-1,1,-1,1l0,1c0,0,-1,0,-1,0l1,1l1,0l-1,0l-1,1l-1,0l0,1c0,0,-1,0,-1,1l-1,0l-1,0l-1,0l0,1l-1,0l0,1l-1,0l1,0l0,1l-1,0l-3,0l-1,0l-2,0l-1,0c0,-1,0,-1,0,-1l-1,-1l-1,-1c-1,0,-2,0,-2,0l-1,-1l-1,0l0,-1l-1,0l-1,-1l1,-1l-1,-1l0,-1l0,-1l0,-1l0,-1c0,-1,0,-1,0,-2l1,-1l-1,0c0,0,0,-1,0,-1l1,0l0,-1l1,0l0,-1l1,0l2,-1l1,0l1,0l0,-1l1,-1l1,0l2,0l1,0l3,0l1,0l-1,0l1,0l0,1l1,1l2,1l1,0l1,0l0,1l1,0c1,1,1,1,2,1l0,1l-1,0l-1,0l1,0l0,1l0,1l1,0l0,1ZM158.5,71.5l1,-1l1,-1c1,0,1,0,1,0l1,0l0,-1c1,0,1,0,2,0l0,-1c1,0,1,0,1,0l0,-1l1,0l-1,-1l1,-1l0,-1l0,-1l1,0l0,-1c0,-1,-1,-1,-1,-2l0,-1l-1,0l0,-1l1,-1c0,0,-1,0,-1,0l0,-1l-1,0l-1,-1l-2,0l-1,-1l-1,0l0,-1l-1,-1l-3,0l-2,0l-1,0l-1,0l0,1l-1,1l-1,0l-1,1l-1,0l-1,0l0,1l-1,0l0,1c-1,0,-1,0,-2,0l1,1l0,1l-1,0l0,1l0,1c0,1,0,1,0,1l0,1l0,1l0,1c0,0,1,0,1,0l0,1l-1,1l1,0l0,1l1,0l1,1l1,0l1,1l1,0c1,0,1,0,1,1l1,0l0,1l1,0l2,0l1,0ZM164.5,56.5l-1,0l0,1l0,-1l-1,0l-1,-1l-1,0l0,-1l1,1l1,0c1,0,1,0,1,1ZM164.5,66.5l-1,0l0,1l-1,0l0,1l-1,0l-1,0c0,-1,0,-1,0,-1c1,0,1,0,1,0l1,0c0,-1,1,-1,1,-1ZM159.5,68.5c0,0,0,1,0,1l-1,0l-3,0l-1,0l-2,0l-1,0c0,0,-1,0,-1,0c0,-1,0,-1,0,-1c0,0,0,-1,1,-1l1,0l2,0l1,0l3,0l1,0l0,1ZM159.5,54.5c0,1,0,1,0,1l0,1l-1,0l-3,0l-1,0l-2,0l-1,0c0,-1,0,-1,0,-1l-1,0l0,-1l1,-1l1,0l2,0l1,0l3,0l1,0c0,0,0,1,0,1ZM158.5,57.5l1,-1l1,0l1,1l1,0l0,1l1,-1c0,0,0,1,1,1l0,1l0,1l1,0l0,1l0,1c0,0,-1,1,-1,1l0,1c0,0,0,1,-1,1l-1,-1c0,0,0,1,0,1l-1,0l0,1l-1,0l-1,0c-1,0,-1,0,-1,0l0,-1l-3,0l-1,0l-2,0l-1,1l-1,0c-1,0,-1,0,-1,0c-1,0,-1,-1,-1,-1l-1,0l0,-1l-1,1l0,-1l-1,-1l0,-1l0,-1c0,0,0,-1,0,-1l0,-1l0,-1l1,0c0,0,0,-1,0,-1l1,1c0,0,1,0,1,-1l1,0c0,-1,0,-1,1,-1c0,0,1,0,1,0l0,1l1,0l2,0l1,0ZM158.5,65.5l1,1l1,0c1,0,1,0,1,0l0,-1l1,-1l1,0l1,0l0,-1l0,-1l0,-1c0,0,0,-1,0,-1c0,-1,0,-1,0,-2c-1,0,-1,0,-1,0l-1,0l-1,-1l-1,0c-1,0,-1,0,-1,0l-1,0l1,0l-5,0l-3,0l-1,0c0,0,-1,0,-1,0l-1,0l0,1c-1,0,-1,0,-1,0l-1,0l0,1l-1,1l0,1c0,1,0,1,0,1l0,1c1,1,1,1,1,1l1,0l1,1l1,1l1,0c0,0,1,0,1,0c0,-1,0,-1,0,-1l1,0l2,0l1,0l3,0l1,0ZM156.5,61.5l0,1l0,1c0,0,0,1,0,1c0,0,0,-1,0,-1c0,-1,-1,-2,-1,-3l1,0l1,0c1,0,1,0,1,0c0,-1,0,-1,0,-1l0,1c0,1,0,1,-1,1l0,-1c0,1,-1,1,-1,1ZM154.5,59.5l0,1c0,0,0,1,-1,1l0,1c0,1,0,1,0,1c0,0,0,1,0,1l0,-1l0,-1l-1,0c0,-1,0,-1,0,-1l0,-1l0,-1c0,1,1,1,1,1c1,0,1,0,1,-1ZM146.5,56.5l1,0l0,-1l1,0l1,-1l0,1l-1,0c0,0,0,1,0,1l-1,0l0,1l-1,0l0,-1ZM146.5,66.5l1,0l1,1l1,0l0,1l-1,0c0,0,-1,-1,-2,-1l0,-1ZM231.5,64.5l0,-1l0,-2l0,-8l1,-2l0,10c0,0,0,1,0,1l0,1l-1,1ZM224.5,62.5l1,0l1,0l0,-1l0,-2l0,-7c0,-1,0,-1,0,-1c0,-1,0,-1,0,-1c1,0,1,0,1,0l0,1l1,1c0,0,-1,0,-1,1c0,1,0,1,0,2c0,0,0,1,0,3c0,0,0,1,0,1l0,1c0,0,0,1,0,1c0,1,0,1,0,1l0,1c-1,0,-1,0,-1,0c0,0,-1,1,-1,1c-1,0,-1,0,-1,0l-3,0c-1,0,-1,0,-2,-1c0,0,-1,-1,-1,-1c0,-1,0,-1,1,-1l-1,0c-1,0,-1,0,-1,0l-5,2l-1,0c0,0,-1,1,-1,1l-1,0l-1,0l0,-1l-1,0l0,-1l0,-1l-1,1l0,1c-1,0,-1,1,-2,1c0,0,0,-1,0,-1l-1,0l0,-1l0,1c0,0,-1,0,-1,0l0,1c-1,0,-1,0,-1,0c-1,0,-1,0,-1,0c0,-1,-1,-1,-1,-1l-1,-1l0,-1c-1,0,-1,0,-1,0c0,1,-1,1,-1,1l-1,0l0,1c0,0,0,1,0,1c0,0,0,1,-1,1c0,0,0,1,0,1c0,0,-1,1,-1,1c0,0,-1,1,-1,1c-1,0,-1,0,-1,0c0,0,-1,0,-1,0l-1,0c0,0,-1,0,-1,0l-1,0l0,-1c0,0,1,0,1,0l1,1c0,0,0,-1,0,-1l1,0l1,0c1,-1,1,-1,1,-1c1,-1,1,-1,1,-1c0,-1,1,-1,1,-2c0,-1,0,-1,0,-1c0,0,1,0,1,0l-1,0l0,-2l1,0l1,0c1,0,1,0,1,0c0,-1,1,-1,1,-1l1,-1l0,1l0,1c0,1,0,1,0,1l1,1l1,0l1,0c1,-1,1,-1,1,-1l0,-1l1,0l0,1c0,0,1,1,1,1l1,-1l1,-1l0,1c1,0,1,1,1,1l1,0l1,0l1,0l1,0c0,0,1,-1,1,-1l1,0l1,0l1,-1l-1,0l-1,0c-1,-1,-2,-1,-2,-1c-1,0,-1,0,-1,0l-1,0c0,-1,1,-1,1,-1c0,0,1,-1,1,-1l1,0l0,1c1,0,1,0,2,0c0,0,1,1,3,1c0,0,1,0,2,0c0,0,1,0,1,0l1,0l-1,2l-1,0l-1,0c0,0,0,1,1,1c0,0,1,0,1,0l1,0l1,0l1,0ZM224.5,46.5c0,0,0,-1,1,-1c0,0,1,0,1,0c1,0,1,0,2,0c0,1,0,1,0,1c0,1,0,1,-1,1c0,0,0,1,0,1l-1,0c0,0,-1,0,-1,0c-1,0,-1,0,-1,0l2,0c0,-1,1,-1,1,-1c0,0,0,-1,0,-1c-1,0,-1,0,-1,0c-1,0,-1,0,-2,1c0,-1,0,-1,0,-1ZM215.5,56.5l-1,-1l1,-2l1,1ZM205.5,67.5l-4,2c0,0,0,-1,0,-1l4,-2ZM193.5,70.5l-4,2c0,-1,1,-1,1,-1l3,-2ZM188.5,67.5l-1,-1l-1,1l-1,-1l1,-1l1,1l1,-1l1,0ZM185.5,64.5l-1,0l-1,0l0,1l0,1c0,0,0,1,-1,1c0,1,0,1,-1,2c0,0,-1,1,-2,1c-1,0,-1,1,-2,1c-1,0,-1,0,-2,-1c0,0,-1,0,-1,0c-1,-1,-1,-1,-1,-1c-1,-1,-1,-2,-1,-2c0,-1,0,-1,0,-1c0,-1,1,-1,1,-1c0,0,0,-1,0,-1c0,0,0,-1,0,-1c1,0,1,0,1,0c0,0,0,1,0,1c0,0,-1,1,-1,1c0,0,0,1,0,1c0,0,0,1,1,1c0,0,0,1,0,1c0,0,1,0,1,0c1,1,2,1,2,1c1,0,2,0,3,-1c1,0,1,0,2,-1c0,0,0,-1,0,-1c0,0,0,-1,0,-1c0,0,0,-1,0,-1l0,-1c-1,0,-1,0,-1,0l1,-2c0,1,1,1,1,1l1,0l1,0l1,0l1,0c1,0,1,0,1,-1c0,0,0,-1,0,-1c0,0,0,-1,-1,-1l1,-2c0,1,0,1,0,1l1,0c0,0,0,1,0,1l0,1c0,1,0,1,0,1l0,1c0,0,-1,0,-1,1l-1,0c-1,1,-1,1,-2,1ZM178.5,61.5l-2,-1l1,-1l2,1ZM177.5,54.5l4,-2l-1,1l-4,2ZM257.5,63.5l-1,0c0,0,-1,0,-1,0l-1,-1l0,1c0,0,-1,0,-1,0l0,1l-1,0l-1,0l-1,0l0,1l0,1c0,0,0,1,-1,1c0,1,0,1,-1,2c0,0,-1,1,-2,1c-1,0,-1,1,-2,1c-1,0,-1,0,-2,-1c0,0,-1,0,-1,0c-1,-1,-1,-1,-1,-1c-1,-1,-1,-2,-1,-2c0,-1,0,-1,0,-1c0,-1,0,-1,1,-1c0,0,0,-1,0,-1c0,0,0,-1,0,-1c1,0,1,0,1,0c0,0,0,1,0,1c0,0,-1,1,-1,1c0,0,0,1,0,1c0,0,0,1,1,1c0,0,0,1,0,1c0,0,1,0,1,0c1,1,1,1,2,1c1,0,2,0,3,-1c0,0,1,0,2,-1c0,0,0,-1,0,-1c0,0,0,-1,0,-1c0,0,0,-1,0,-1l-1,-1l1,-2c0,1,1,1,1,1l1,0l1,0c1,0,1,0,1,0l1,-1l0,-1c1,0,1,-1,1,-1l1,0c0,-1,0,-1,0,-1c1,0,1,0,1,1c0,0,1,1,1,1l0,1l0,1c0,1,-1,1,-1,1ZM255.5,61.5l1,0l1,0l0,-1c-1,0,-1,0,-1,0c0,0,-1,0,-1,0c0,0,0,1,0,1ZM256.5,67.5l-4,2c0,-1,1,-1,1,-1l4,-2ZM245.5,61.5l-2,-1l1,-1l2,1ZM243.5,54.5l5,-2l-1,1l-4,2ZM306.5,62.5c0,0,1,0,1,0c0,0,1,0,1,0c1,0,1,-1,1,-1l0,-2l-1,-6c0,0,0,-1,0,-1c0,0,0,-1,0,-1c0,0,1,-1,1,-1l0,1c0,1,1,1,1,1l0,1l-1,1l0,-1c0,1,0,1,0,1c0,0,0,1,0,2l0,2c1,1,1,1,1,1l0,2c0,0,-1,1,-1,1c0,1,0,1,0,1c-1,0,-1,1,-1,1l-1,0l-1,0l-1,0l-1,0c0,0,-1,-1,-1,-1l-1,0c-1,0,-1,1,-1,1c-1,0,-1,0,-1,0l-1,0l-1,0c0,0,-1,0,-1,0c0,-1,0,-1,-1,-1l-2,-2c-1,-1,-1,-1,-1,-1l-1,-1c0,1,0,1,0,1l0,1c0,1,0,1,0,1c0,0,0,1,-1,1l0,1c-1,0,-1,0,-1,0c0,0,-1,0,-2,0l-2,0c0,0,0,1,0,1c0,0,0,1,0,1c0,1,-1,1,-1,1c0,1,-1,1,-1,1c0,1,0,1,-1,1c-1,0,-1,0,-1,0c0,0,-1,0,-1,0c-1,0,-1,0,-2,0l-1,0c0,0,0,-1,0,-1c1,0,1,0,1,0c0,1,1,1,1,1c0,0,1,-1,1,-1c1,0,1,0,2,0c0,-1,0,-1,0,-1c1,0,1,0,1,-1c0,0,1,0,1,0c0,-1,0,-1,0,-1c0,0,0,-1,0,-1l-1,0c0,0,-1,0,-1,0c0,-1,0,-1,0,-1c0,0,0,-1,0,-1c0,-1,0,-1,0,-1c0,0,0,-1,0,-1c1,0,1,0,1,0c0,-1,0,-1,0,-1l1,0c1,1,1,1,1,1l0,1c0,1,1,1,1,1l1,0l1,0c0,0,1,0,1,0l1,0l0,-1c1,0,1,0,1,0c0,-1,0,-1,-1,-1c0,-1,0,-1,0,-1l-1,-1l-1,0c0,-1,0,-1,-1,-1c-1,0,-1,0,-1,0c0,-1,0,-1,0,-1c0,-1,0,-1,0,-1c0,0,0,-1,0,-1l0,-1c1,0,1,0,1,0c0,0,1,-1,3,-1c1,-1,2,-1,4,-2c1,0,2,-1,3,-1l1,0l-1,2c0,0,-1,0,-1,0c0,0,-1,0,-2,1c-2,0,-3,1,-4,1c-2,1,-3,1,-3,2l-1,0l1,1c1,0,1,0,1,0c1,0,1,0,1,0l1,1c1,0,1,1,2,1c0,0,1,1,1,1c1,1,1,1,2,2l2,1l1,0c1,0,1,0,1,0c1,0,1,0,2,0c0,0,0,-1,0,-1c1,0,1,0,1,0c0,0,1,0,1,0l0,1c0,0,1,0,1,0l1,0ZM307.5,48.5l4,-2c0,1,0,1,0,1l-4,2ZM302.5,60.5l-1,-1l1,-2l1,1ZM300.5,54.5l4,-2l0,1l-4,2ZM291.5,45.5c0,-1,0,-1,1,-1l1,0l0,1l0,1l0,1l0,1l-1,-1l0,1l-1,0c0,1,0,1,-1,1l-1,0l1,0l0,-1c0,0,1,0,1,0l0,-1l1,0l-1,0c0,-1,0,-1,0,-1l0,-1ZM292.5,45.5l0,1l0,-1ZM284.5,61.5c0,1,0,1,-1,1c0,0,1,0,1,0c0,0,1,0,1,0l0,-1c0,0,-1,0,-1,0ZM277.5,55.5l-2,-1l1,-1l1,1ZM274.5,61.5l0,-1l1,0c0,0,1,0,1,0l1,0c0,0,1,0,1,0l0,-1l-1,0c0,-1,0,-1,0,-1c0,0,0,-1,0,-1c0,-1,1,-1,1,-1c0,0,0,1,0,1c0,1,0,1,0,1l0,1c0,1,0,1,0,1c0,1,0,1,0,1c-1,0,-1,0,-1,0c0,1,0,1,-1,1c0,0,-1,0,-2,0c0,1,1,1,1,1l0,1c0,1,-1,1,-1,2c0,0,0,1,-1,1c0,1,-1,1,-2,2c0,0,-1,0,-2,0c0,0,-1,0,-2,0c0,0,-1,-1,-1,-1c0,0,-1,-1,-1,-1c0,-1,0,-1,0,-2c0,0,0,-1,0,-1l0,-1l0,-1l1,0c0,-1,0,-1,0,-1c0,1,0,1,0,1c0,1,0,1,0,1c0,1,0,1,0,1c0,1,0,1,0,1c0,1,0,1,1,1c0,1,0,1,1,1c0,0,1,0,1,0c1,0,2,0,3,0c0,-1,1,-1,1,-2l1,0l0,-1c0,0,0,-1,0,-1l-1,0c0,0,0,-1,0,-1c0,0,0,-1,0,-1l0,-1l-1,0l1,-2l0,1l1,0c0,0,0,1,0,1l0,1ZM275.5,48.5l4,-2c0,1,0,1,0,1l-4,2ZM269.5,60.5l-1,-1l1,-2l1,1ZM270.5,47.5l-5,3c0,-1,0,-2,0,-2l6,-3Z" class="g1_8" />
<path fill-rule="evenodd" d="M181.5,374.5c1,-1,1,-1,1,-1c0,-1,0,-1,0,-1l0,1c0,0,0,1,0,1c0,1,0,1,0,1c1,0,1,0,1,0c0,0,1,0,1,0l1,-1l0,-1c-1,0,-1,0,-1,0c0,-1,0,-1,0,-1c0,-1,1,-1,1,-1c0,1,0,1,0,1c0,0,1,0,1,0l0,1c0,0,0,1,0,1l-1,0c0,1,0,1,-1,1c0,0,0,1,-1,1c0,0,-1,-1,-1,-1c-1,0,-1,0,-1,-1ZM117.5,410.5c0,0,0,-1,1,-1l1,0c0,0,1,0,1,0c1,1,1,1,1,1c0,1,-1,1,-1,1c0,0,0,1,0,1c-1,0,-1,0,-1,0c-1,0,-1,0,-1,0l-1,0l1,0c1,-1,2,-1,2,-1c0,0,-1,-1,-1,-1l-1,0l-1,1l-1,0c0,-1,0,-1,0,-1l1,0ZM102.5,421.5c0,1,0,2,0,2l0,1l-1,0c0,1,0,1,0,1l1,0l0,1l-1,0l-1,1l-1,1l-1,0l0,1l-1,0l-1,0c-1,0,-1,0,-1,0l0,1l-1,0l0,1c-1,0,-1,0,-1,0l-3,0l-3,0l-1,0c-1,0,-1,0,-1,0l-1,-1c0,-1,0,-1,-1,-1c-1,0,-1,0,-2,-1l-1,0l-1,-1l-1,-1l-1,0l0,-1l1,0l0,-1l-1,0l0,-1l0,-1l0,-1l0,-1l0,-1l0,-1l1,-1l-1,-1l1,0l0,-1l1,0l0,-1l1,0l1,0l1,-1l1,0c0,0,1,0,1,0l0,-1l1,-1l1,-1l1,0l3,0l3,0l1,1l0,1l1,0l1,1l1,0l1,0l0,1c1,0,1,0,1,0l1,0l0,1c1,0,2,1,2,1l-1,1l0,1l1,0l0,1l0,1ZM93.5,431.5l1,-1l1,-1l1,0l1,0l0,-1l1,0c0,0,1,0,1,-1l1,0c0,0,0,-1,0,-1l1,0l1,0l-2,-1l1,0l0,-1l0,-1l1,0l0,-1l0,-1c0,-1,0,-2,0,-2c0,0,0,-1,-1,-1c0,0,0,-1,0,-1l-1,0l2,-1c-1,0,-1,0,-2,-1l-1,-1l-1,0l-1,-1l-2,0l0,-1l-1,-1c-1,0,-1,0,-1,0l-1,0l-2,0l-1,0l-2,0l-1,0l-1,0l-1,1c0,1,0,1,-1,1l-1,0l-1,1l-1,0l-1,1c-1,0,-1,1,-2,1l1,1l1,0l-1,0l0,1l-1,1l0,1c0,0,0,1,0,1l0,1l0,1l1,1l0,1l1,0l-2,1l1,0l1,0l0,1l1,0l0,1l1,0l1,0l1,1c1,0,1,0,1,0l1,1c0,1,1,1,1,1l1,0l3,0ZM99.5,416.5l-1,0l-1,0l0,-1l-1,0l-1,0c1,0,1,0,1,0c0,-1,0,-1,0,-1l1,0c0,1,0,1,0,1c1,0,1,0,1,0l0,1l1,0ZM99.5,426.5l-1,1l-1,0l0,1l-1,0l0,-1l1,0l0,-1c1,0,1,0,1,-1l1,1ZM95.5,428.5c0,0,-1,0,-1,1l-1,0l-3,0l-3,0l-1,0c-1,0,-1,0,-1,0l0,-1c-1,0,-1,0,-1,0c0,0,1,-1,1,-1l1,0l1,0l3,0l3,0c0,0,1,0,1,0l1,1ZM95.5,414.5c0,0,-1,1,-1,1l-1,0l-3,0l-3,0l-1,0c-1,0,-1,0,-1,0l0,-1l-1,0c0,0,1,-1,1,-1l1,0l1,0l3,0l3,0c1,0,1,0,1,0l0,1l1,0ZM93.5,417.5l0,-1c0,0,1,0,1,0c0,0,1,0,1,0c0,0,1,0,1,0c0,0,1,1,1,1l0,1l2,-1l0,1l1,1l0,1l0,1l0,1l0,1l-1,0c0,1,0,1,0,1l0,1l-1,-1c0,0,-1,0,-1,1l-1,0l0,1l-1,0l-1,0c0,0,0,-1,-1,-1l-3,0l-3,0l-1,0l-1,0l0,1l-1,0c0,0,-1,0,-1,0c-1,-1,-1,-1,-1,-1l0,-1l-1,0l-1,1l0,-1l-1,-1l0,-1l0,-1c0,-1,0,-1,0,-1c0,0,0,-1,0,-1l0,-1l1,0c0,-1,0,-1,0,-1l1,1c1,0,1,-1,1,-1l1,0l0,-1c0,0,1,0,1,0c0,0,1,0,1,0l1,1l1,0l3,0ZM93.5,425.5l1,0l1,0c1,0,1,0,1,0l1,0l0,-1l1,0l1,0l0,-1l0,-1l1,0l0,-1c0,-1,0,-1,-1,-2c0,0,0,-1,0,-1l-1,0c-1,0,-1,0,-1,0l0,-1l-1,0l0,-1l-1,0c0,0,-1,0,-1,0l0,1l-1,0l-3,0l-3,0l-1,0l-1,0l0,-1l-1,0l-1,0l0,1l-1,0c0,1,-1,1,-1,1l-1,0l0,1l-1,0l0,1l0,1l0,1l0,1l1,0c0,1,0,1,0,1l1,0c0,0,1,0,1,0l0,1l1,0l1,0c0,0,1,0,1,0l1,0l1,0l3,0l3,0ZM91.5,419.5c1,0,1,0,1,0l0,1c0,1,0,1,0,1l0,1l1,0l0,1c-1,0,-1,-1,-1,-2c0,0,-1,0,-1,0l-1,0l0,-1l1,0c0,-1,0,-1,0,-1ZM91.5,420.5l1,0c0,0,-1,0,-1,0ZM90.5,419.5l0,1c-1,0,-1,0,-1,0l-1,0l1,1l0,1c0,1,0,1,0,1c0,0,-1,0,-1,0l0,-1l0,-1l0,-1l-1,0l1,-1c0,1,0,1,1,1c0,0,1,0,1,-1ZM86.5,419.5l0,1l1,0c0,1,0,1,0,1l0,1l0,1l-1,0l1,0l0,-1c0,0,-1,-1,-1,-2ZM80.5,416.5l1,-1l1,0l1,-1l0,1l-1,0l-1,1l-1,0ZM80.5,426.5l1,-1c0,1,0,1,1,1l0,1l1,0c0,0,0,1,0,1l-1,0c0,-1,-1,-1,-1,-1l-1,-1ZM154.5,423.5l0,-1l0,-1l-1,-8l1,-3l1,11l0,1c-1,1,-1,1,-1,1ZM146.5,422.5c1,0,1,0,1,0c0,0,1,0,1,0c0,-1,1,-1,1,-1l0,-1l0,-2l-1,-6l0,-1l0,-1c0,0,1,0,1,0c0,0,0,1,0,1c0,0,1,0,1,0c0,1,0,1,0,1c0,1,0,1,0,1l-1,0c0,0,0,1,0,2c0,0,1,1,1,3l0,1l0,1c0,0,0,1,0,1c0,0,-1,1,-1,1c0,0,0,1,0,1c0,0,-1,0,-1,0l-1,0l-1,0c-1,0,-1,0,-1,0c-1,0,-1,0,-1,0c-1,0,-1,-1,-1,-1l-1,0l-1,0l0,1l-1,0l-1,0l-1,0l-10,0l0,1c-1,1,-1,1,-1,2l0,-1c0,0,0,-1,0,-1l0,-1l-1,0c-1,0,-1,0,-1,0c-1,0,-1,0,-1,0l0,-1c0,0,-1,0,-1,0c0,0,0,1,-1,1l-1,0l-1,0c-1,0,-1,0,-1,0c-1,0,-1,0,-1,0c0,0,0,1,-1,1c0,0,-1,0,-2,0c0,-1,-1,-1,-1,-1l-1,1c0,0,0,1,-1,1c0,1,-1,1,-2,1c-1,0,-2,0,-4,0l5,-2l1,0c1,-1,1,-1,1,-1l1,-2c0,-1,1,-1,1,-1c0,0,0,-1,1,-1c1,0,1,1,1,1c1,1,1,1,2,1c0,0,0,1,0,1c1,0,1,0,1,0l1,0l1,0c0,0,0,-1,1,-1c0,-1,0,-1,0,-1l1,0c0,1,0,1,0,1l1,1l1,0l1,0c0,0,1,0,1,-1c0,0,0,-1,0,-1l1,-1l0,-2l-1,0l0,-1l0,-3l0,-1l0,-1l0,-1l1,2c0,0,0,1,0,1l0,1l0,1l0,1l0,1l0,2l0,1l0,1l1,-2l1,0l1,-1c1,0,1,0,1,0l1,0c1,0,1,0,2,0c0,0,0,1,1,1l0,1c-1,1,-1,1,-1,1l0,1l-1,0l2,0l1,0c1,0,1,0,1,0l1,0c0,0,0,-1,0,-1l1,0l0,-1c-1,0,-1,0,-1,0c-1,0,-1,0,-1,0l1,-2c0,0,1,0,1,0c0,-1,1,-1,1,-1c0,0,1,0,1,0l0,1l1,0c0,1,0,1,0,1l0,1l0,1l-1,0l1,0l1,1l1,0ZM146.5,405.5c1,0,1,0,1,0c1,0,1,0,2,0c0,0,1,0,1,0c0,0,1,0,1,1c-1,0,-1,1,-1,1l-1,1l-1,0l-1,0l1,-1c1,0,1,0,2,-1c0,0,-1,0,-1,0c0,0,-1,0,-1,0c0,0,-1,0,-1,0l-1,1l0,-1l0,-1ZM141.5,410.5l4,-2l0,1l-4,2ZM132.5,416.5l-1,-1l1,-2l1,1ZM136.5,420.5c0,0,-1,0,-1,0c0,0,0,-1,-1,-1l-1,0c0,0,-1,1,-1,1l-1,1l-1,0l-1,1l1,0c0,0,1,0,1,0c1,0,1,0,1,0c0,-1,0,-1,1,-1c1,0,2,0,3,-1ZM131.5,427.5l-4,2c0,-1,0,-1,0,-1l4,-2ZM125.5,427.5l-2,-1l-1,1l-1,-1l1,-1l1,1l1,-2l2,1ZM117.5,422.5l-1,-1l-1,0c0,0,0,1,1,1ZM116.5,429.5l-4,2c0,0,0,-1,0,-1l4,-2ZM204.5,423.5l0,-1l0,-1l0,-8l1,-3l0,11l0,1c0,1,0,1,-1,1ZM197.5,422.5l1,0c1,-1,1,-1,1,-1l0,-1l0,-2l0,-6c-1,0,-1,0,-1,-1c0,0,1,0,1,-1c0,0,0,1,1,1l1,0c-1,1,-1,1,-1,1c0,1,0,1,0,1c0,0,0,1,0,2c0,0,0,1,0,3l0,1l0,1c0,0,0,1,0,1c0,0,0,1,0,1l-1,0c0,0,0,1,0,1c-1,0,-1,0,-1,0c0,0,-1,0,-1,0l-1,0c0,0,-1,0,-1,0c0,0,-1,0,-1,0c0,0,-1,-1,-1,-1c-1,0,-1,0,-1,0l-1,1c-1,0,-1,0,-1,0l-1,0l-1,0l0,1l-1,1c0,0,0,1,0,2c0,0,-1,0,-1,0c0,1,0,1,-1,1c0,0,0,1,-1,1c-1,0,-1,0,-1,0l-1,0c0,0,-1,0,-2,0c0,0,0,-1,0,-1l1,0c1,0,1,0,2,0l1,-1l1,0c0,0,0,-1,0,-1c1,0,1,-1,1,-1c0,0,0,-1,1,-1c0,-1,0,-1,0,-1c-1,0,-1,0,-1,0c0,-1,0,-1,0,-1l0,-1l0,-1l1,1l0,1c0,0,1,0,1,0l1,0c1,0,1,0,1,0c0,0,0,-1,0,-1l1,0l1,0l-1,0l0,-1c0,0,-1,0,-1,0l-1,0l1,-2c1,0,1,0,1,0c1,-1,1,-1,1,-1l1,0l1,1c0,0,1,0,1,0c0,1,0,1,0,1l0,1c-1,0,-1,0,-1,1l1,1l1,0ZM197.5,405.5l1,0c0,0,1,0,1,0c1,0,1,0,1,0c1,0,1,0,1,1c0,0,0,1,-1,1l0,1c0,0,-1,0,-1,0c0,0,-1,0,-1,0l-1,0l2,-1c0,0,1,0,1,-1l-1,0c-1,0,-1,0,-2,0l0,1l0,-1l0,-1ZM192.5,410.5l4,-2l-1,1l-4,2ZM182.5,413.5c0,-1,1,-1,1,-1c0,0,1,0,1,0c1,0,1,0,2,0c0,0,0,1,0,1c0,1,0,1,0,1c-1,0,-1,1,-1,1c0,0,-1,0,-1,0l-1,0l-1,0l2,-1c1,0,1,0,2,0c-1,-1,-1,-1,-1,-1c-1,0,-1,0,-1,0c0,0,-1,0,-1,0c-1,0,-1,1,-1,1l0,-1ZM175.5,415.5l-1,-1l1,-2l1,1ZM177.5,417.5l-2,-1l0,1l-2,-1l1,-1l2,1l0,-1l2,1ZM165.5,430.5c-1,0,-1,0,-1,-1c-1,0,-1,0,-1,0c0,0,0,-1,0,-1l-1,0l0,-1c0,-1,0,-1,0,-1l1,-1l0,-1l0,-1l1,0c0,0,0,1,0,1l-1,1l0,1c0,0,0,1,1,1l0,1l1,0c0,0,1,0,1,0c1,0,1,1,2,1c0,0,0,-1,1,-1c0,0,1,0,1,0c0,0,1,0,1,0c0,-1,1,-1,1,-1c0,-1,0,-1,0,-1l0,-1c0,-1,0,-1,0,-1l0,-1l0,-1l-1,0l1,-2l0,1l1,0l0,1c0,0,1,0,1,0c1,0,1,0,2,0c0,0,0,-1,0,-1c1,0,1,0,1,-1l0,-1l0,1l1,1l0,1l1,0c1,0,1,0,1,0l0,-1l-1,0l1,-2l0,1l0,1l0,1c0,1,0,1,0,1c0,0,-1,0,-1,0l-1,0l-1,0l0,-1l-1,1l-1,0c0,0,-1,0,-1,0l-1,0l0,2l0,1l0,1c0,0,-1,1,-1,1l0,1c-1,0,-1,0,-1,0c-1,1,-1,1,-2,1l-1,0l-1,0l-1,0l-1,0ZM172.5,431.5l-4,2c0,-1,0,-1,1,-1l4,-2ZM228.5,427.5c0,0,0,-1,0,-1c0,0,1,1,1,1l1,0c1,0,1,-1,2,-1c1,0,1,-1,2,-1c0,-1,1,-1,1,-2l0,-1l0,-1l0,-1l-1,0c0,0,0,-1,0,-1l1,-1c0,1,1,1,1,2l0,1l0,1c0,0,0,1,0,1l0,1l-1,0c0,1,0,1,0,2c0,0,-1,0,-1,0c0,1,0,1,-1,1c-1,0,-1,0,-1,1c0,0,-1,0,-1,0l-1,0c0,-1,0,-1,0,-1c0,0,-1,0,-1,0l-1,0ZM231.5,414.5l4,-2c0,0,0,1,-1,1l-4,2ZM221.5,428.5l-2,-1l1,-2l1,1ZM228.5,422.5c-1,0,-1,0,-2,1c-1,0,-2,0,-3,1c-1,0,-2,0,-4,0c-1,0,-2,0,-3,0c-1,0,-2,-1,-3,-1c0,-1,0,-1,0,-1c0,0,0,-1,0,-1c-1,0,-1,0,-1,0l0,-1c0,0,1,-1,1,-1c0,-1,0,-1,1,-2l0,1l0,1c-1,0,-1,0,-1,0c0,1,1,1,1,2c0,0,1,0,1,1c1,0,1,0,1,0l1,0l1,0l2,0c1,0,2,0,2,0c0,0,1,0,1,0c0,0,1,0,1,0l0,-1l1,0c1,0,1,0,2,0c0,-1,1,-1,1,-1l0,-1c0,0,-1,-1,-1,-1l0,-1c1,0,1,-1,1,-1c0,0,0,1,1,1c0,1,0,1,0,1c0,0,0,1,0,1c0,1,0,1,0,1c0,1,-1,1,-1,2ZM219.5,413.5l0,1c0,1,0,1,0,1l1,-1l0,-1l0,1l1,0l0,-1l1,-1l0,1l0,1c0,1,0,1,-1,1c0,0,-1,0,-1,0c0,1,-1,1,-1,1l-1,-1l0,-1ZM220.5,408.5l1,0c0,-1,0,-1,0,-1l1,0c0,0,0,1,0,1c0,0,0,1,0,1c0,1,0,1,0,1l0,1l-1,0l-1,1l-1,0c0,1,0,1,-1,1c1,-1,2,-2,3,-2l-1,-1l0,-1l0,-1ZM221.5,409.5l0,-1l-1,1c0,0,1,0,1,0l0,1l0,-1ZM267.5,419.5c-1,0,-1,1,-1,1c0,0,0,1,1,1l0,-1c0,0,0,-1,0,-1ZM267.5,427.5c-1,0,-1,1,-1,1l-1,0c0,0,-1,0,-1,0l-1,0c0,0,-1,0,-1,0c-1,0,-1,0,-1,-1l1,0c1,0,1,0,1,0c0,0,1,0,1,0c1,0,1,0,1,0c0,-1,1,-1,1,-1c1,-1,1,-1,1,-1c0,0,0,-1,1,-1c0,-1,0,-1,0,-2c-1,0,-1,0,-1,0l0,1l-1,0l0,-1c0,0,-1,0,-1,0c0,-1,0,-1,0,-1c0,0,0,-1,0,-1c0,-1,0,-1,1,-2c0,0,1,-1,1,-1c0,0,1,0,1,1c0,1,1,1,1,1c0,1,0,1,0,1c0,1,0,1,0,2l0,1c0,1,-1,1,-1,2c0,1,0,1,-1,1c0,1,0,1,0,1ZM264.5,414.5l4,-2c0,0,0,1,-1,1l-4,2ZM260.5,423.5c0,0,-1,0,-2,-1c0,0,-1,0,-1,0l-1,0c0,1,0,1,-1,1l-1,0l-1,0c0,0,-1,0,-1,0l-2,0c0,1,0,1,0,2l0,1c-1,0,-1,1,-1,1c0,0,-1,0,-1,1c0,0,-1,0,-1,0c0,0,0,1,0,1c-1,0,-1,0,-1,0c0,0,-1,0,-1,0c-1,0,-1,0,-2,-1c0,0,-1,0,-1,0c0,0,1,0,1,0l1,0c0,0,1,0,1,0c0,0,1,-1,1,-1c1,0,1,0,1,-1c0,0,1,0,1,0c0,-1,0,-1,1,-1c0,0,0,-1,0,-1l0,-1c-1,0,-1,0,-1,0c-1,0,-1,0,-1,0l-1,-1c0,0,0,-1,0,-1l1,0c0,0,0,-1,0,-1c0,0,0,-1,0,-1l1,0c1,0,1,0,1,0c0,0,1,0,1,0c0,1,0,1,0,1l0,1l0,1c1,0,1,0,1,0c1,0,1,0,1,0c1,0,1,0,1,0l1,0l0,-1l1,0c-1,0,-1,0,-1,-1c0,-1,1,-1,1,-1c0,-1,0,-1,0,-1c0,0,1,-1,1,-1c0,0,-1,0,-1,0c0,0,1,-1,1,-1l0,-1c1,0,2,1,2,2c1,0,1,0,2,1c0,0,1,1,1,1c0,1,0,1,0,1c0,0,0,1,0,1c0,1,0,1,0,1c0,0,0,1,0,1c-1,0,-1,0,-1,0ZM257.5,418.5c-1,0,-1,0,-1,1l-1,0c0,1,0,1,1,1c1,0,1,0,1,0c0,-1,0,-1,0,-1c0,0,0,-1,0,-1ZM258.5,419.5c0,1,0,1,0,1l0,1l2,0c0,-1,0,-1,-1,-1c0,0,0,-1,0,-1c0,0,-1,0,-1,0ZM253.5,404.5l1,-1l1,0c0,0,0,1,0,1c0,0,0,1,0,1c0,0,0,1,0,1l1,0l-1,1l-1,0l-1,1l-1,1l-1,0l1,-1c0,0,1,-1,1,-1l1,0l0,-1l-1,0l0,-1l0,-1ZM254.5,404.5c0,1,0,1,0,1ZM248.5,420.5l0,1l-1,0l1,0c0,0,0,1,0,1c0,0,1,0,1,0c0,0,0,-1,0,-1c-1,0,-1,-1,-1,-1ZM245.5,414.5l4,-2l-1,0c0,0,0,1,0,1l-4,2ZM340.5,415.5l-2,-1l-1,1l-1,-1l1,-1l1,1l1,-1l2,1ZM338.5,423.5l-1,0l-2,0c0,1,0,1,0,2l-1,1c0,0,0,1,0,1c-1,0,-1,0,-1,1c0,0,-1,0,-1,0c0,0,0,1,-1,1c-1,0,-1,0,-1,0l-1,0l-1,-1c0,0,-1,0,-1,0c0,0,1,0,1,0l1,0l1,0c0,0,1,-1,1,-1c1,0,1,0,1,-1c0,0,1,0,1,0c0,-1,0,-1,0,-1c1,0,1,-1,1,-1l0,-1l-1,0c-1,0,-1,0,-1,0c0,0,-1,0,-1,-1c0,0,0,-1,0,-1c0,0,1,-1,1,-1c0,0,0,-1,0,-1c1,0,1,0,1,0c1,0,1,0,1,0l1,0c0,1,0,1,0,1l0,1l0,1c1,0,1,0,1,0c0,0,1,0,1,0l1,0c0,0,1,0,1,0c1,-1,1,-1,1,-1c0,-1,0,-1,0,-1c0,0,0,-1,0,-1l-1,0l1,-2l1,1l0,1l0,1l0,1c0,0,0,1,0,1l-1,0c0,1,0,1,-1,1c0,0,-1,0,-1,0ZM338.5,407.5l4,-2l0,1c-1,0,-1,0,-1,0l-4,2ZM333.5,420.5l0,1c-1,0,-1,0,-1,0c1,0,1,1,1,1l1,0c0,0,0,-1,0,-1l-1,0c0,0,0,-1,0,-1ZM329.5,414.5l5,-2l-1,0c0,0,0,1,0,1l-4,2ZM325.5,422.5c-1,0,-1,0,-3,0c0,0,-1,0,-3,1c-2,0,-3,0,-3,0l-1,0c0,0,-1,0,-1,0c-1,0,-3,0,-4,0c-2,0,-3,0,-4,0c-1,0,-2,0,-2,0l-1,0l-1,0c0,0,-1,0,-1,0c0,0,-1,-1,-1,-2c0,1,0,2,-1,2l-1,0c-1,0,-1,0,-1,0c0,0,-1,0,-1,0c0,0,0,-1,0,-1c0,0,-1,0,-1,0c0,1,0,1,-1,1c0,0,-1,0,-2,1l-2,0c-1,0,-1,0,-1,0l-1,0l-1,0c-1,0,-3,0,-4,0c-1,0,-1,0,-2,-1c0,0,0,-1,-1,-1l0,-1l0,-1c0,0,0,-1,0,-1c1,0,1,-1,1,-1l1,0c0,0,-1,0,-1,1c0,0,0,1,0,1c0,0,0,1,0,1c1,0,1,1,2,1c0,0,1,0,1,0c0,0,1,0,1,1c1,0,2,0,3,0c1,0,1,0,2,0c0,0,1,-1,2,-1c1,0,1,0,1,0c1,0,1,-1,2,-1c1,0,1,-1,1,-1l0,1l1,1l1,0c1,0,1,-1,2,-1l0,-1c0,-1,0,-1,0,-1l0,-1l-1,-6l1,-2l1,10c0,0,0,1,0,1c0,1,1,1,1,1l1,0c1,0,1,0,1,0c1,0,2,0,3,0c1,0,2,0,3,0c1,0,3,-1,4,-1l2,0c1,0,2,0,3,0c1,0,2,0,4,0c1,0,2,0,2,0l1,0c0,0,0,-1,0,-1c-1,0,-1,-1,-1,-1l-1,0l-1,0c-1,0,-2,0,-4,0c-2,0,-4,1,-6,1c-2,0,-3,0,-4,0c-2,0,-4,0,-4,-1c0,-1,0,-1,0,-2c0,0,1,0,1,-1l1,-1c0,0,1,-1,2,-2c1,0,2,-1,3,-1l1,-1l-1,2c0,0,-1,1,-1,1c-1,0,-2,1,-3,1c-1,1,-1,2,-2,2l0,1c1,0,1,0,1,0c0,0,1,0,1,0c1,0,1,0,1,0c1,0,3,0,5,0c2,0,4,0,6,0c1,-1,3,-1,3,-1c1,0,1,0,1,0c0,0,1,1,2,1c0,0,1,1,1,1l0,1c0,0,0,1,0,1c-1,1,-1,1,-1,1ZM309.5,407.5l0,1l1,0c0,1,0,1,0,1l0,-1l1,0l0,-1l0,1c0,0,1,0,1,0l0,-1l0,-1l1,0l0,1l0,1c-1,1,-1,1,-1,1l-1,0c-1,1,-1,1,-1,1c0,0,-1,0,-1,-1l0,-1ZM314.5,405.5l-6,2c0,0,1,-1,1,-1l5,-3ZM298.5,402.5c0,0,1,0,1,0c0,-1,1,-1,1,-1c1,0,1,0,2,1c0,1,0,1,0,1c0,1,-1,1,-1,1c0,0,-1,0,-1,0l-1,0l-1,0l2,0c1,0,1,-1,2,-1c-1,0,-1,0,-1,0c-1,0,-1,0,-1,0c0,0,-1,0,-1,0c0,0,-1,0,-1,0c0,0,0,-1,0,-1ZM290.5,418.5l-2,-1l-1,1l-1,-1l1,-1l1,1l1,-1l1,1ZM287.5,404.5l0,-1c1,0,1,0,1,0c1,0,1,1,1,1c0,0,0,1,0,1c0,0,0,1,-1,1l1,0l0,1l-1,0l-1,0l0,1c0,0,-1,0,-1,0l0,1l-1,0l-1,0l1,-1l1,0c0,0,0,-1,0,-1l1,0l0,-1c0,0,-1,0,-1,-1c0,0,1,0,1,-1ZM288.5,404.5l-1,0c0,1,0,1,0,1l1,0ZM376.5,420.5c0,0,-1,1,-2,1c-1,1,-2,1,-3,2c-1,0,-2,0,-3,0l-1,0c0,0,-1,0,-1,0c-1,0,-1,-1,-1,-2c0,1,-1,2,-1,2c0,0,-1,0,-1,0l-1,0c0,0,-1,0,-1,0l-1,0l0,-1c-1,0,-1,0,-1,0l-1,1l-1,0l-1,0c0,0,-1,0,-1,0c-1,0,-1,0,-1,0c0,0,0,-1,-1,-1c0,-1,0,-1,0,-1c0,0,-1,0,-1,0c0,1,0,1,0,1l-1,0c-1,0,-1,0,-2,0l0,-2c0,0,0,-1,1,-1c0,0,1,-1,2,-1c0,-1,1,-1,1,-1l-1,-1l1,0l0,-1l0,1c0,0,0,1,1,1c0,1,0,1,0,1l0,2c0,1,0,1,0,1l1,0c0,1,0,1,0,1c0,0,1,0,1,0c1,0,1,0,1,0c1,0,1,-1,2,-1c0,0,1,0,1,0c0,0,1,0,1,1l1,0l1,0c1,0,1,-1,1,-1l1,-1c0,-1,0,-1,0,-1c0,0,-1,0,-1,-1l0,-6l1,-2l1,10c0,0,0,1,0,1c0,1,0,1,0,1c1,0,1,0,1,0l1,0c1,0,2,-1,2,-1c0,0,-1,0,-1,-1c0,0,0,-1,0,-1c0,0,0,-1,0,-1l0,-1l1,0c0,-1,0,-1,0,-1l1,0c0,0,0,-1,1,-1l1,0c1,0,1,0,1,0l0,1c0,0,1,0,1,0c0,0,0,1,0,1l-1,0l0,-1l-1,0l-1,0l0,1c0,0,-1,0,-1,0c0,0,-1,0,-1,0c0,1,0,1,0,1c0,1,1,1,1,1c0,1,1,1,2,1l1,0c0,0,1,0,1,0l0,-1l1,0l1,0ZM368.5,410.5l4,-2l0,1l-4,2ZM362.5,407.5l4,-2l0,1l-5,2ZM361.5,427.5l-2,-1l-1,1l-1,-1l1,-1l1,1l1,-2l1,1ZM356.5,405.5c1,0,1,0,1,0c1,0,1,0,2,0c0,0,1,0,1,0c0,0,1,0,1,1c-1,0,-1,1,-1,1l-1,1c-1,0,-1,0,-1,0l-1,0l1,-1c1,0,1,0,2,-1c0,0,-1,0,-1,0l-1,0c0,0,-1,0,-1,0l-1,1l0,-1l0,-1ZM353.5,418.5l-1,0l0,1l-1,0c0,0,-1,1,-1,1l1,0l1,0c0,0,1,0,1,0l0,-1ZM353.5,427.5l-4,2c0,-1,1,-1,1,-1l4,-2ZM187.5,364.5c0,1,-1,1,-1,1c-1,0,-2,0,-2,0c0,0,-1,0,-1,0c0,0,-1,0,-1,0c-1,0,-1,0,-1,0l-1,0c0,0,0,-1,0,-1c0,0,0,-1,0,-1c0,1,0,1,0,1c0,0,-1,1,-1,1c-1,0,-1,1,-1,1c0,0,1,0,1,0c1,0,2,0,2,0l1,0c1,0,1,0,2,0c1,0,1,0,1,0l3,0l-1,0c-1,0,-1,0,-2,0l-1,0c0,0,0,1,0,1c-1,0,-1,0,-1,0l-2,0l-2,0c-1,0,-1,0,-1,-1c-1,0,-1,0,-1,0l1,-1l1,-1c1,-1,1,-1,1,-1l0,-3l0,3c1,1,1,1,1,1l1,0l1,0c1,0,1,-1,2,-1c0,0,1,0,1,0c1,0,1,0,1,0l0,1ZM187.5,364.5c0,0,-1,0,-1,0c0,-1,0,-1,0,-1c0,0,-1,1,-1,1c-1,0,-1,0,-1,0l1,0c1,0,1,0,2,0ZM356.5,363.5c0,0,1,0,1,0c1,0,1,0,2,0c0,0,1,0,1,0l0,1c0,0,0,1,0,1c0,0,-1,0,-1,0c0,1,0,1,0,1l-1,0l-1,0l-1,0l2,-1c1,0,1,0,2,-1c-1,0,-1,0,-1,0c0,0,-1,0,-1,0c0,0,-1,0,-1,0c0,0,-1,0,-1,1l0,-1l0,-1ZM76.5,374.5l1,0l0,-1l0,-1l0,-1l0,-1c0,0,0,1,0,1l0,1l0,1l1,0l0,-1c1,0,1,0,1,0l1,0c0,0,0,1,0,1c0,1,-1,1,-1,1l-1,0ZM79.5,373.5c0,0,-1,0,-1,0l-1,1l1,0l1,0c0,-1,0,-1,1,-1c0,0,-1,0,-1,0ZM194.5,365.5c0,0,1,-1,1,-1l1,0l0,1l0,1l0,1l1,0l-1,1l-1,0c-1,1,-1,1,-1,1l-1,0l-1,0l1,0l0,-1c1,0,1,0,1,0l1,-1l-1,0c0,-1,0,-1,0,-1c0,-1,0,-1,0,-1ZM195.5,365.5l0,1l1,0l-1,-1ZM143.5,362.5c0,-1,0,-1,0,-2c0,-1,-1,-1,-1,-2l1,0l0,1l0,1l0,1c0,1,0,1,0,1ZM103.5,376.5l-1,0l-1,0c0,0,-1,0,-1,-1l-1,0c0,0,0,1,0,1c-1,0,-1,0,-1,0l-1,0l-1,1l-1,0l-1,0l-1,0c0,0,0,1,0,1c0,0,0,1,-1,1c0,0,0,1,0,1c-1,0,-1,1,-1,1c-1,0,-1,0,-1,1c0,0,-1,0,-1,0c-1,0,-1,0,-1,0l-1,0c0,0,-1,0,-1,0c-1,0,-1,-1,-1,-1l1,0c1,0,1,0,2,0c0,0,1,0,1,-1c0,0,1,0,1,0c0,0,0,-1,1,-1c0,0,0,-1,0,-1c0,0,1,0,1,-1c0,0,-1,0,-1,0l-1,0c0,0,0,-1,0,-1c0,0,-1,0,-1,0c0,0,0,-1,0,-1c0,-1,0,-1,0,-1c1,-1,1,-1,1,-1c0,0,0,-1,0,-1c0,0,1,0,1,0c0,0,1,0,1,0l0,1c1,0,1,0,1,0c0,1,0,1,0,1c0,0,0,1,0,1c1,0,1,0,1,0c0,0,1,0,1,0l1,0c1,0,1,0,1,0c0,-1,0,-1,0,-1c0,-1,0,-1,0,-1c0,0,0,-1,0,-1c1,0,1,-1,1,-1c0,-1,0,-1,0,-1l0,-1c0,0,1,0,1,0c1,0,1,0,2,1c1,0,1,1,2,1c0,1,0,1,1,2c0,1,0,1,0,1c0,1,0,1,0,1c0,0,0,1,0,1c0,0,-1,0,-1,0ZM99.5,372.5c-1,0,-1,0,-1,0c0,0,0,1,0,1c0,0,1,1,1,1c0,0,1,-1,1,-1c0,-1,0,-1,0,-1c0,0,-1,0,-1,0ZM101.5,372.5c0,1,0,1,0,1c0,0,0,1,0,1l2,0l0,1l0,-1c0,0,-1,-1,-1,-1l-1,0c0,-1,0,-1,0,-1ZM96.5,358.5c0,-1,0,-1,0,-1c1,-1,1,-1,1,-1c1,0,1,0,1,0c0,1,0,1,0,1c0,1,0,1,0,1l0,1l0,2l-1,-1l-1,1c0,0,-1,1,-1,1l-1,0l0,-1l1,0l1,-1l0,-1l0,-1ZM97.5,358.5l0,-1c-1,0,-1,1,-1,1l1,0l0,1l0,-1ZM91.5,374.5c-1,0,-1,0,-1,0c0,0,0,1,0,1c0,0,1,0,1,0l1,0c0,-1,0,-1,0,-1c0,0,-1,0,-1,0ZM87.5,367.5l4,-2l0,1l-4,2ZM125.5,379.5c0,0,1,-1,1,-1l1,0c0,0,1,0,1,0l-1,1l-1,0l0,1l1,0l1,0l-3,2l0,-1l1,-1c-1,0,-1,0,-1,-1ZM126.5,377.5l0,-1l0,-2l0,-8l1,-2l0,10c0,1,0,1,0,1l0,1l-1,1ZM127.5,383.5l-4,2c0,-1,1,-1,1,-1l3,-2ZM121.5,375.5l-1,1l-1,0c1,0,1,0,1,0l1,0ZM122.5,378.5c-1,0,-1,0,-2,0l-1,0c0,0,-1,0,-1,0c-1,0,-1,0,-1,0c-1,0,-1,0,-1,0l0,-1c0,-1,0,-1,0,-1c1,0,1,0,1,0l1,0c1,0,1,0,1,-1l1,0c0,0,0,-1,0,-1l-1,-1c-1,-1,-1,-2,-2,-2c0,0,0,-1,-1,-2c0,0,-1,0,-1,0c0,-1,0,-1,0,-1c-1,0,-1,0,-1,0l-1,0l0,-1c-1,0,-1,0,-1,-1c0,0,0,-1,0,-1l1,0c0,0,1,0,1,1c1,0,1,0,2,1c0,1,1,1,2,2c0,1,1,1,1,2c1,1,1,1,1,1c0,1,1,1,1,1c0,0,0,-1,0,-1c0,-1,0,-1,0,-2c0,-1,0,-1,0,-2l0,-1c0,-1,0,-1,0,-2c0,-1,0,-1,0,-1c0,-1,1,-1,1,-1l0,1c1,0,1,1,1,1l0,1l-1,0c0,0,0,1,0,1c0,0,0,1,0,1c0,1,0,1,0,2l0,1c0,0,0,1,0,2c-1,0,-1,1,-1,1c0,1,0,1,1,1l0,1c0,1,0,1,0,1c0,0,0,1,0,1ZM118.5,361.5l0,1c1,0,1,0,1,0c0,0,0,-1,0,-1l0,-1l1,0l0,1c1,0,1,0,1,-1l0,1l0,1l-1,0l-1,0l0,1l-1,0l0,-1l0,-1ZM122.5,358.5l-5,3c0,-1,0,-2,0,-2l6,-2ZM150.5,379.5c0,0,1,-1,1,-1l1,0l0,1l-1,0l0,1l1,0l1,0l-3,2l0,-1l1,-1c-1,0,-1,0,-1,-1ZM151.5,377.5l0,-1l0,-2l0,-8l1,-2l0,10c0,1,0,1,0,1l0,1c0,0,-1,0,-1,1ZM152.5,383.5l-4,2c0,-1,0,-1,0,-1l4,-2ZM143.5,375.5c1,0,1,0,1,0c0,0,1,0,1,0c0,0,1,0,1,0c0,-1,0,-1,0,-1l0,-2l-1,-7c0,-1,0,-1,0,-1c0,-1,1,-1,1,-1l0,1c0,0,1,0,1,1l0,1l-1,0c0,1,0,1,0,2c0,0,1,1,1,3c0,0,0,1,0,1l0,1c0,1,0,1,0,1c0,1,0,1,-1,1l0,1c0,0,-1,0,-1,0c0,0,0,1,-1,1l-1,0c-1,0,-1,0,-2,0c0,-1,0,-1,-1,-1l0,-1c0,0,0,-1,0,-1l-1,0c0,1,0,1,0,1l-1,0l-1,0c0,0,-1,0,-1,0l-1,0l0,-2c0,0,1,0,2,-1l1,-1c1,0,1,-1,1,-1c0,0,0,-1,0,-1l1,-1l0,2l0,1l0,1l1,2c0,0,0,1,0,1c0,0,1,0,1,0l1,0ZM139.5,371.5l0,1l-1,0c-1,1,-1,1,-1,1l1,0l1,0l1,0ZM136.5,364.5l4,-2l0,1l-4,2ZM169.5,375.5l0,1l-1,0c1,0,1,0,1,0l1,0ZM171.5,378.5c-1,0,-1,0,-2,0l-1,0c0,0,-1,0,-1,0c-1,0,-1,0,-1,0c-1,0,-1,0,-1,0l0,-1c0,-1,0,-1,0,-1c0,0,1,0,1,0l1,0c1,0,1,0,1,-1l1,0c0,0,0,-1,0,-1l-1,-1c-1,-1,-1,-2,-2,-2c0,0,0,-1,-1,-2c0,0,-1,0,-1,0c0,-1,0,-1,0,-1c-1,0,-1,0,-1,0c0,0,-1,0,-1,0l-1,-1l0,-1c0,0,0,-1,0,-1l1,0c0,0,1,0,1,1c1,0,1,0,2,1c0,1,1,1,2,2c0,1,1,1,1,2c1,1,1,1,1,1c0,1,0,1,1,1c0,0,0,-1,0,-1c0,-1,0,-1,0,-2c0,-1,0,-1,0,-2l0,-1c0,-1,0,-1,0,-2c0,-1,0,-1,0,-1c0,-1,1,-1,1,-1l0,1c1,0,1,1,1,1l0,1l-1,0c0,0,0,1,0,1c0,0,0,1,0,1c0,1,0,1,0,2l0,1c0,0,0,1,0,2c-1,0,-1,1,-1,1c0,1,0,1,0,1c1,0,1,0,1,1c0,1,0,1,0,1c0,0,0,1,0,1ZM169.5,361.5l4,-2l0,1l-4,2ZM166.5,362.5c-1,1,-2,1,-3,1l-1,0l0,-1c-1,0,-1,0,-1,0c0,1,-1,1,-1,1l0,-1l1,-1c1,0,1,0,2,1c0,0,1,0,1,0l1,0l1,-1l1,0ZM211.5,377.5l0,-1l0,-1l0,-9l0,-2l1,11c0,1,0,1,0,1c0,1,-1,1,-1,1ZM207.5,377.5l-1,0c0,0,-1,0,-1,-1c-1,0,-1,-1,-1,-1c0,0,0,1,-1,1c0,1,-1,1,-2,1c0,0,-1,0,-1,0c-1,-1,-1,-2,-1,-3l0,1c0,0,-1,1,-1,1c0,0,-1,0,-2,0c0,0,-1,0,-1,0l0,-1c-1,0,-1,0,-1,0c0,0,1,-1,1,-1c0,-1,0,-1,1,-1c0,0,1,-1,1,-1l1,-1l1,0l0,-1c0,-1,0,-1,0,-1l0,1l1,1l0,3c0,0,0,1,0,1c1,0,1,0,2,0l1,0c0,0,0,-1,0,-1c0,-1,0,-2,0,-3c0,0,0,-1,0,-1c0,0,0,-1,0,-1l0,-1l0,-1l1,2l0,2l0,2c0,1,1,1,1,1c0,0,0,1,1,1l1,0c0,-1,0,-1,0,-1c0,0,0,-1,0,-1l0,-2l-1,-1l0,-1c0,0,0,-1,0,-1l1,0l0,-1c0,1,0,1,0,1c0,1,0,1,0,2l1,2c0,0,0,1,0,1c0,1,0,2,0,2c0,1,-1,1,-1,1c0,0,0,1,0,1ZM199.5,372.5l-1,0c0,0,0,1,0,1c-1,0,-1,0,-1,0c0,0,-1,1,-1,1c1,0,2,0,2,0c0,0,1,0,1,-1ZM273.5,374.5l-1,0l-1,0c-1,0,-1,0,-2,0l-1,0l-1,1l-1,0c-1,1,-1,1,-1,1c-1,0,-1,0,-2,0c0,1,-1,1,-2,1l-1,0l-1,0l0,-1l-1,-1c0,0,0,1,-1,1c0,0,-1,0,-1,0c-1,0,-1,0,-2,-1l0,1c0,0,-1,1,-1,1l-1,0c0,0,-1,-1,-1,-2c0,0,-1,1,-1,1c0,0,-1,1,-2,1c-1,0,-1,0,-2,0c0,0,0,-1,0,-1c-1,0,-1,0,-1,0c0,-1,0,-1,0,-1c-1,0,-2,0,-2,1c0,0,-1,0,-1,0c0,0,0,1,0,1c0,0,1,0,1,0c0,0,1,0,1,0c1,0,1,0,1,1l0,1l0,1c0,0,-1,0,-1,0l-1,1c0,0,-1,0,-2,1c0,0,-1,0,-2,0c-1,0,-1,1,-1,1c-1,0,-1,0,-2,0c-1,0,-1,0,-2,0l-1,0l-1,0c0,0,-1,0,-1,0c-1,0,-2,0,-3,0c-1,0,-1,0,-2,0c-1,0,-2,-1,-2,-1c-1,0,-2,0,-2,0c-1,-1,-2,-1,-2,-1c-1,0,-1,-1,-2,-1c0,0,0,-1,-1,-1c0,0,0,-1,0,-1c1,0,1,0,1,0c0,1,1,1,1,1c1,0,1,1,2,1c1,0,1,0,1,0c0,0,1,0,2,1c1,0,1,0,2,0c1,0,2,0,3,0c0,0,1,0,2,0c0,0,1,0,1,0c0,0,1,0,1,0c1,0,1,0,2,0c0,0,1,0,1,0c1,0,2,0,2,0c1,0,1,0,2,-1c1,0,2,0,2,0l1,-1c0,0,1,0,1,0c-1,0,-1,-1,-2,-1c0,0,-1,0,-1,0c0,0,0,-1,0,-1c0,-1,1,-2,2,-3c0,0,1,0,2,-1l1,0c0,0,0,1,0,1c0,0,0,1,0,1c1,0,1,0,2,0l1,0l1,0c0,-1,1,-1,1,-2l0,1c1,1,1,1,1,1c1,0,1,0,2,0c0,-1,0,-1,1,-2c0,0,0,1,0,1c1,0,1,1,1,1l1,0c0,0,0,-1,0,-1c0,0,1,0,1,0c0,0,0,-1,0,-1c1,1,1,2,2,2l1,0c0,0,1,0,1,0c0,0,1,0,2,0c0,0,0,-1,1,-1l1,0l1,-1l-1,0l-1,0l-1,-1l-1,0l-1,0l0,1c0,-1,0,-1,0,-2c1,0,1,0,1,0c0,0,1,-1,1,-1c0,0,0,1,1,1l1,0l2,1l1,0l1,0c0,0,0,1,1,1c0,0,1,0,1,0l1,0ZM264.5,364.5l4,-2l0,1l-4,2ZM252.5,366.5l0,-1c1,0,1,0,2,0c0,0,1,0,1,1c1,0,1,0,1,0c0,1,-1,1,-1,1c0,1,0,1,-1,1c-1,0,-1,0,-1,0l-1,0l1,0c1,-1,2,-1,2,-1c0,0,-1,0,-1,0l-1,0l-1,0l-1,0c0,0,0,-1,0,-1l1,0ZM248.5,381.5l-2,-1l1,-1l2,1ZM249.5,382.5l-4,2c0,0,0,-1,0,-1l5,-2ZM225.5,367.5l3,-1l6,-2l4,-1l0,-1l1,0l-1,2l-1,0l-1,1l-2,0l-6,2l-3,1l-1,1ZM306.5,367.5l-2,-1l1,-1l2,1ZM308.5,375.5c0,0,0,1,-1,1c0,0,-1,0,-1,1c-1,0,-2,0,-2,0l-1,0l-1,0l-1,0c-1,0,-1,0,-2,0c0,-1,0,-1,-1,-1c0,0,-1,0,-1,1c-1,0,-2,0,-3,0c-1,0,-1,0,-1,-1c-1,0,-1,0,-1,-1l0,1l0,1c0,1,0,1,-1,2c0,0,0,1,-1,1c0,1,0,1,-1,1l-1,0c0,1,0,1,-1,1c0,0,-1,0,-1,0l-1,0c0,0,-1,0,-1,0c-1,0,-1,-1,-1,-1c-1,0,-1,-1,-1,-1c0,0,0,-1,0,-1c0,-1,0,-2,0,-2c0,-1,0,-1,1,-1l0,-1l0,-1l1,0l-1,1c0,1,0,1,0,1c0,1,0,1,0,1c0,1,0,2,0,2c1,1,1,1,2,1c0,0,1,0,1,0c1,0,2,0,3,-1c1,0,1,0,2,-1c0,-1,0,-1,0,-1l0,-3c0,0,0,-1,0,-1c0,-1,0,-1,0,-1l-1,-7l1,-2l1,10c0,1,0,1,0,1c0,1,1,1,1,1l1,0l1,0c1,0,1,0,1,0c0,0,1,0,1,0c0,0,0,-1,0,-1l0,-1l0,-1c0,-1,0,-1,1,-1c0,0,0,-1,0,-1c1,0,1,-1,2,-1c0,0,1,1,1,1c0,1,0,1,0,2l0,1c0,0,0,1,0,1c0,0,-1,1,-1,1l1,0c0,0,1,0,1,0l1,0l1,0c1,0,1,0,2,0c1,0,1,-1,2,-1c0,0,0,-1,0,-1l0,-1c-1,1,-1,1,-1,1c-1,0,-1,0,-1,0c0,0,-1,0,-1,0c-1,-1,-1,-1,-1,-1c0,-1,0,-1,1,-2c0,-1,0,-1,0,-1c1,-1,1,-1,1,-1c1,0,1,0,1,1c1,0,1,0,1,1l0,1l1,1c0,0,0,1,0,1c0,1,0,1,0,1c-1,0,-1,1,-1,1ZM305.5,371.5l1,0c1,0,1,0,1,0l0,-1c0,0,-1,0,-1,0l-1,0ZM304.5,361.5l5,-3l-1,1l0,1l-4,2ZM300.5,368.5l-2,-1l0,2l-2,-1l1,-2l1,1l1,-1l2,1ZM299.5,371.5c0,0,-1,1,-1,1l-1,1c0,0,1,0,1,0c0,0,0,1,1,1c0,0,1,0,1,-1c0,-1,0,-1,0,-1c0,0,-1,-1,-1,-1ZM299.5,358.5c0,-1,0,-1,1,-1c0,-1,0,-1,1,-1c0,1,0,1,0,1c0,1,0,1,0,1l0,1l0,2l-1,-1l-1,1c0,0,0,1,-1,1l-1,0l1,-1c0,0,1,0,1,-1l1,0l-1,0l0,-1l0,-1ZM300.5,358.5l0,-1c0,0,0,1,0,1l0,1l0,-1ZM282.5,366.5l1,0c0,-1,0,-1,1,-1c0,0,1,0,1,1c1,0,1,0,1,0c0,1,-1,1,-1,1c0,1,0,1,0,1c-1,0,-1,0,-1,0c-1,0,-1,0,-1,0l-1,0l1,0c1,-1,2,-1,2,-1c0,0,-1,0,-1,0l-1,0l-1,0l-1,0c0,0,0,-1,0,-1l1,0ZM346.5,368.5l-1,-1l-1,2l-2,-1l1,-2l2,1l1,-1l1,1ZM344.5,377.5l-1,0l-1,0c-1,0,-1,1,-1,1c0,0,0,1,0,1c0,0,-1,1,-1,1c0,0,0,1,-1,1l-1,1c0,0,-1,0,-1,0c0,0,-1,0,-1,0c-1,0,-1,0,-2,0c0,0,0,-1,-1,-1l1,0c0,0,1,0,1,0c0,0,1,0,1,0c1,0,1,0,2,-1c1,0,1,-1,1,-1c0,0,1,-1,1,-1l0,-1l1,0c-1,0,-1,0,-1,0l-1,0c0,0,0,-1,-1,-1c0,0,0,-1,0,-1c0,-1,0,-1,0,-1c0,-1,0,-1,0,-1l1,0c0,0,0,-1,0,-1c0,0,1,0,1,0c1,0,1,0,1,1c0,1,0,1,0,1c1,0,1,1,1,1l1,0c0,0,1,0,1,0c0,0,1,0,2,0l1,-1c0,0,0,-1,-1,-1l0,-1l1,-2c0,1,0,1,0,1l0,1l0,1l0,1l0,1l0,1c0,0,-1,0,-2,1l-1,0ZM344.5,361.5l4,-3l0,1l0,1l-4,2ZM339.5,374.5c0,0,0,1,0,1c0,0,1,0,1,0l1,0c-1,0,-1,0,-1,0c0,-1,0,-1,0,-1l-1,0ZM336.5,367.5l4,-2l0,1l-1,0l-4,2ZM329.5,375.5c0,0,1,0,1,0c0,0,1,0,1,0c1,-1,1,-1,1,-1l0,-2l-1,-7c0,-1,0,-1,0,-1c0,-1,1,-1,1,-1l0,1c0,0,1,0,1,1l0,1l-1,0c0,1,0,1,0,2c0,0,0,1,1,3c0,0,0,1,0,1l0,1c0,1,0,1,0,1c0,0,-1,0,-1,0c0,1,0,1,0,1l0,1c-1,0,-1,0,-1,0c0,0,0,1,-1,1l-1,0l-2,0c0,0,0,1,0,1c0,0,0,1,0,1c0,0,-1,1,-1,1c0,0,0,1,-1,1l-1,1c-1,0,-1,0,-1,0c0,0,-1,0,-1,0c-1,0,-1,0,-2,0c0,0,0,-1,-1,-1c1,0,1,0,1,0c0,0,1,0,1,0c0,0,1,0,1,0c1,0,1,0,2,-1c1,0,1,-1,1,-1c0,0,1,-1,1,-1l0,-1l-1,0c0,0,0,-1,-1,-1c0,0,0,-1,0,-1c0,-1,0,-1,0,-1c0,-1,0,-1,0,-1c1,0,1,-1,1,-1c0,0,1,0,1,0c1,0,1,0,1,1c0,1,0,1,0,1c0,0,1,1,1,1l1,0ZM331.5,359.5l0,1l1,0c0,0,0,-1,0,-1l0,-1l0,1l1,0l1,-1l0,-1l0,1l0,1l0,1l-1,0l-1,0c0,1,-1,1,-1,1c-1,0,-1,0,-1,-1l0,-1l1,0ZM335.5,356.5l-6,3c1,-1,1,-2,1,-2l5,-2ZM325.5,374.5c0,0,0,1,0,1c0,0,1,0,1,0c0,-1,0,-1,0,-1c0,0,-1,0,-1,0ZM321.5,366.5l1,0c0,-1,1,-1,1,-1c1,0,1,0,2,1c0,1,0,1,0,1c-1,1,-1,1,-1,1c-1,0,-1,0,-1,0c0,0,-1,0,-1,0c0,0,-1,0,-1,0l2,0c0,-1,1,-1,1,-1c-1,0,-1,0,-1,0c-1,0,-1,0,-1,0c-1,0,-1,0,-1,0c0,0,0,-1,0,-1ZM318.5,377.5l0,-1l0,-2l-1,-8l1,-2l1,10c0,1,0,1,0,1l-1,1l0,1ZM375.5,367.5l-2,-1l1,-1l1,1ZM377.5,375.5c0,0,-1,1,-1,1c0,0,-1,0,-2,1c0,0,-1,0,-1,0l-1,0l-1,0c-1,0,-1,0,-2,-1c0,0,-1,-1,-1,-2l0,-8l1,-2l0,9l0,1l1,0c0,1,0,1,1,1l1,0l1,0c0,0,1,0,1,0c1,0,2,-1,2,-1l1,0c0,0,0,-1,0,-1c0,0,-1,0,-1,-1c0,1,0,1,0,1l-1,0c-1,0,-1,0,-1,0c-1,0,-1,0,-1,0c0,-1,0,-1,0,-1c0,-1,0,-1,0,-2c1,-1,1,-1,1,-1c0,-1,1,-1,1,-1c0,0,1,0,1,1l1,1l0,1l0,1c0,0,0,1,0,1c0,1,0,1,0,1c0,0,0,1,0,1ZM374.5,371.5l1,0c0,0,1,0,1,0l-1,-1l-1,0ZM373.5,361.5l4,-3l0,1l0,1l-4,2ZM369.5,383.5l-4,2c1,-1,1,-1,1,-1l4,-2ZM360.5,371.5l-1,-1l0,-2l2,1ZM360.5,380.5c-1,0,-1,0,-2,0c0,0,-1,-1,-1,-1c-1,0,-1,-1,-1,-1c-1,-1,-1,-1,-1,-2c0,0,0,-1,0,-1c0,0,1,0,1,-1l0,-1c1,-1,1,-1,1,-1c0,1,0,1,0,1c0,1,-1,1,-1,1l0,1c0,1,0,1,1,1c0,1,0,1,0,1c0,0,1,0,1,0c0,1,0,1,0,1c1,0,1,0,2,0c1,0,2,0,2,0c1,-1,1,-1,2,-2l0,-1l0,-1c0,0,0,-1,0,-1c0,0,0,-1,-1,-1l0,-1l1,-2l0,1c0,0,0,1,0,1c1,0,1,1,1,1l0,1c0,1,0,1,0,1l0,1c0,1,0,1,0,2c0,0,-1,1,-1,1c-1,1,-2,1,-2,2c-1,0,-2,0,-2,0ZM334.5,316.5l1,0c0,0,1,0,1,0c1,0,1,0,2,0l0,1c0,0,0,1,0,1c-1,0,-1,0,-1,0c-1,1,-1,1,-1,1c0,0,-1,0,-1,0c0,0,-1,0,-1,0l2,-1c0,0,1,0,1,-1c-1,0,-1,0,-1,0c-1,0,-1,0,-2,0c0,0,0,-1,0,-1ZM251.5,317.5c1,0,1,0,1,0c1,0,1,0,2,0c0,0,1,0,1,0c0,0,1,0,1,0c0,0,0,1,0,1c-1,0,-1,0,-1,1l-1,0l-1,0c0,0,0,1,0,1l-1,0c0,0,0,-1,0,-1l1,0c1,0,1,-1,2,-1c0,0,-1,0,-1,0c0,0,-1,0,-1,0c0,0,-1,0,-1,0l-1,0c0,-1,0,-1,0,-1ZM183.5,317.5c1,0,1,-1,1,-1c1,0,1,0,2,0c0,0,1,0,1,0c0,1,1,1,1,1c-1,1,-1,1,-1,1c0,0,0,1,-1,1l-1,0l-1,0l1,0c1,-1,1,-1,2,-1c0,0,-1,-1,-1,-1c0,0,-1,0,-1,0c0,0,-1,0,-1,1l-1,0c0,-1,0,-1,0,-1ZM128.5,317.5c0,0,0,-1,1,-1c0,0,1,0,1,0c1,0,1,0,2,0c0,1,0,1,0,1c0,1,0,1,-1,1c0,0,0,1,0,1c-1,0,-1,0,-1,0c0,0,-1,0,-1,0c0,0,-1,0,-1,0l2,0c0,-1,1,-1,1,-1c0,0,0,-1,0,-1c-1,0,-1,0,-1,0c-1,0,-1,0,-2,1c0,-1,0,-1,0,-1ZM76.5,318.5l1,0c0,0,1,0,1,0c1,0,1,0,1,0c1,0,1,0,1,1c0,0,0,1,-1,1c0,0,0,1,-1,1c0,0,-1,0,-1,0l-1,0l2,-1c0,0,1,0,1,-1l-1,0c-1,0,-1,0,-2,0l0,-1ZM58.5,328.5c0,1,0,1,0,2l0,1l-1,0c0,0,0,1,0,1l1,0l0,1l-1,0l0,1c-1,0,-1,0,-1,0l-1,1l-1,0l-1,1l-1,0l-1,0l-1,1l0,1l-1,0l-4,0l-2,0l-1,0l-1,0c0,0,-1,0,-1,0l-1,-1c0,-1,0,-1,0,-1c-1,0,-2,-1,-3,-1l-1,0l0,-1l-1,0l0,-1l-1,0l-1,0l0,-1l1,0l0,-1l-1,-1l0,-1l0,-1l0,-1l0,-1l1,-1l0,-1l-1,-1l1,0l0,-1l1,0l1,-1l1,0l1,-1l2,-1l1,-1c0,0,1,-1,1,-1l1,0l1,0l2,0l4,0l1,1l1,0l0,1l1,0l1,1l1,0l0,1c1,0,1,0,1,0l1,0l0,1l1,0c0,0,1,1,1,1l-1,1l1,1l0,1l0,1ZM49.5,338.5l1,0l0,-1l1,-1l1,0c0,0,1,0,1,-1l1,0c0,0,1,-1,1,-1l1,0c0,-1,0,-1,0,-1l1,0l1,-1l-1,0l-1,0l1,-1l1,-1l0,-1l0,-1c0,-1,0,-2,0,-2c0,-1,0,-1,0,-1l-1,0c0,0,0,-1,0,-1l-1,0l1,-1l1,0c-1,0,-1,-1,-2,-1l-1,-1l-1,0l-1,-1l-1,0c-1,0,-1,-1,-1,-1l-1,-1c0,0,-1,0,-1,0l-4,0l-1,0l-1,0l-1,0l-1,0l-1,0l-1,1c0,0,0,1,0,1l-2,0l-1,1l-1,0l0,1l-1,0c0,0,-1,1,-1,1l1,0l0,1l-1,0l0,1l0,1l-1,0l0,1l0,1l0,1l0,1l1,0c0,1,0,1,0,1l1,1l-1,0l0,1l1,0l0,1l1,0l0,1l1,0l1,0l2,1l1,0l0,1c1,1,1,1,1,1l1,0l1,0l2,0ZM55.5,323.5l-1,0l-1,-1l-1,0l0,-1l1,0l1,1l1,0l0,1ZM55.5,333.5l-1,0l0,1l-1,0l-1,1l0,-1l1,0l0,-1c1,0,1,0,1,-1l1,0l0,1ZM51.5,335.5l-1,1l-1,0l-4,0l-2,0l-1,0l-1,0c0,0,-1,0,-1,0c0,0,0,-1,0,-1c0,-1,0,-1,0,-1l1,-1l1,0l1,0l2,0l4,0c1,0,1,0,1,1l1,0ZM51.5,321.5l-1,1l-1,0l-4,0l-2,0l-1,0l-1,0c-1,0,-1,0,-1,0l0,-1c0,-1,0,-1,0,-1l1,0l1,0l1,0l2,0l4,0c1,0,1,0,1,0l1,0l0,1ZM49.5,323.5l1,0c0,0,1,0,1,0c1,0,1,0,1,0c0,0,1,1,1,1l1,1l1,-1l0,1l1,0l0,1l0,1l0,1l0,1l0,1c-1,0,-1,1,-1,1l-1,0l-1,0l0,1l-1,0l0,1l-1,0c-1,0,-1,0,-1,-1l-1,0l-4,0l-2,0l-1,0l-1,0l-1,0c0,1,0,1,0,1l-1,0c0,0,-1,0,-1,-1c0,0,-1,0,-1,0l0,-1l-2,0l-1,-2l0,-1c0,-1,0,-1,0,-1c0,0,0,-1,0,-1l1,0l0,-1c0,-1,0,-1,0,-1l2,1c0,0,0,-1,0,-1l1,0l0,-1c0,0,1,0,1,0c1,0,1,0,1,0l1,0l1,0l1,0l2,0ZM49.5,332.5l1,0l1,0l1,0l1,0l0,-1c0,0,1,0,1,0l1,0l0,-1l1,-1l0,-1c0,-1,0,-1,0,-2c-1,0,-1,-1,-1,-1l0,-1l-1,1c0,0,-1,0,-1,0l0,-1l-1,0l0,-1l-1,0c0,0,-1,0,-1,0l0,1l-1,0l-4,0l-2,0l-1,0l-1,0l-1,-1l-1,0c-1,0,-1,0,-1,0l0,1l-1,0c0,1,0,1,0,1l-1,-1c0,0,-1,1,-1,1l0,1l-1,1l0,1l1,1l0,1c0,0,0,1,1,1l1,0l0,1l1,0l1,0c1,0,1,0,1,0c0,0,1,0,1,0l1,0l1,0l2,0l4,0ZM47.5,326.5l1,0l0,1l0,1l0,1l1,0l0,1l-1,0l0,-1l0,-1l-1,0c0,0,0,1,0,1l-1,0l0,1l0,-1l1,-1l0,-1l0,-1ZM45.5,326.5l0,1l-1,0l0,1l0,1c0,0,0,1,0,1l-1,0l0,-1l0,-1l0,-1l0,-1c0,0,1,1,1,1c1,0,1,-1,1,-1ZM41.5,326.5l1,1c0,0,0,1,0,1l0,1l0,1l0,-1c0,-1,0,-1,-1,-2ZM35.5,323.5l1,-1l1,0l0,-1l1,0l1,0l-1,0c0,1,1,1,1,1c-1,0,-1,0,-1,0l-1,0l0,1l-1,0l-1,0ZM35.5,333.5l1,-1c0,1,0,1,1,1l0,1l1,0l1,0c0,0,-1,0,-1,0l0,1l1,0l-1,0l0,-1c-1,0,-2,0,-2,-1l-1,0ZM95.5,334.5c0,-1,0,-1,0,-1c0,0,1,0,1,1l1,0c0,0,1,-1,2,-1c1,-1,1,-1,2,-1c0,-1,0,-1,1,-2l0,-1c0,0,0,-1,0,-1l0,-1l-1,0l0,-1l1,-1l0,-1l0,1c0,0,1,1,1,2l0,1l0,1c0,0,0,1,0,1c0,1,0,1,0,1l-1,0c0,1,0,1,0,1c0,1,-1,1,-1,1c0,0,0,1,-1,1c-1,0,-1,0,-1,0c-1,0,-1,0,-1,0l-1,0c0,0,-1,0,-1,0l-1,0ZM99.5,319.5l0,1c0,0,1,0,1,-1l0,-1l0,1c1,0,1,0,1,0l0,-1l1,0c0,0,0,1,0,1l0,1c0,0,-1,0,-1,0l-1,0l0,1c-1,0,-1,0,-1,0c0,0,-1,0,-1,0l0,-1l0,-1ZM103.5,316.5l-6,3c0,-1,1,-1,1,-2l5,-2ZM94.5,328.5l-2,0c0,0,-1,0,-1,0l-1,0c0,0,-1,0,-1,0l-1,0l-1,1c0,0,-1,0,-1,0c0,1,-1,1,-1,1c-1,0,-2,0,-2,0l-1,0c0,0,-1,0,-1,0c0,0,-1,0,-1,0c0,0,0,-1,0,-1c-1,0,-1,1,-2,1l-1,0l-1,0c0,0,-1,0,-1,0c-1,0,-1,0,-1,-1c0,1,0,1,-1,2c0,0,-1,0,-2,0c0,-1,-1,-1,-1,-1l-1,1c0,0,0,1,-1,1c0,0,-1,1,-2,1c-1,0,-2,0,-4,0l5,-2l1,-1c1,0,1,0,2,-1l0,-1c1,-1,1,-1,1,-2l1,0c1,0,1,0,2,1c0,1,0,1,1,1l1,1l1,0c0,0,1,0,1,0c0,-1,1,-1,1,-1c0,-1,1,-1,1,-1c0,0,0,1,0,1l1,0c0,1,0,1,1,1l1,0l1,0c0,0,1,-1,1,-1c1,0,1,0,1,0l2,-1l1,0l-1,0l-1,-1l-1,0l-1,0l-1,0l-1,0c0,0,1,-1,1,-1c0,0,0,-1,1,-1l1,0c1,0,1,0,1,0l0,1l2,0l1,1c1,0,1,0,1,0c1,0,1,0,1,0c1,0,1,0,2,0l1,0ZM87.5,333.5l-4,3c0,-1,0,-1,0,-2l4,-2ZM81.5,334.5l-2,-1l0,1l-2,-1l1,-1l1,0l1,-1l2,1ZM73.5,329.5l0,-1c-1,0,-1,-1,-1,-1c0,0,0,1,-1,1l1,1ZM140.5,334.5c0,-1,0,-1,0,-1c1,0,1,0,1,1l1,0c1,0,2,-1,3,-1c0,-1,0,-1,1,-1c0,-1,1,-1,1,-2l0,-1c0,0,1,0,1,0c0,0,0,-1,-1,-1l0,-1l-1,-1l1,-1l0,-1l1,1c0,0,0,1,0,2l0,1l0,1c0,0,0,1,0,1c0,1,0,1,0,1c-1,1,-1,1,-1,1c0,1,0,1,-1,1c0,0,0,1,0,1l-1,0c0,0,-1,0,-1,0c0,0,-1,0,-1,0l-1,0l-1,0l-1,0ZM143.5,321.5l4,-3l0,1l0,1l-4,2ZM135.5,328.5c0,0,1,0,1,-1c0,0,0,-1,1,-1l1,0c0,0,1,0,1,0l0,1l0,1l-1,0l0,-1l-1,0c0,0,0,1,-1,1l1,0c0,1,0,1,0,1l1,0c1,0,1,0,2,0c0,1,0,1,-1,1l-4,2c0,-1,0,-1,0,-1l1,-1l0,-1c-1,0,-1,0,-1,0c0,-1,0,-1,0,-1ZM137.5,318.5c0,0,1,-1,1,-1l1,0l0,1l0,1l0,1l1,0l-1,1l-1,-1l0,1l-1,0c0,1,0,1,0,1l-1,0l-1,0l1,0l0,-1c0,0,1,0,1,0l1,-1l-1,0c0,-1,0,-1,0,-1c0,-1,0,-1,0,-1ZM138.5,318.5l0,1l0,-1ZM130.5,326.5l0,1l1,0c0,-1,0,-1,-1,-1ZM131.5,334.5c-1,0,-1,0,-1,0c0,1,-1,1,-1,1c0,0,-1,0,-1,0l-1,0c0,0,-1,0,-1,0c-1,0,-1,-1,-1,-1l1,0c1,0,1,0,1,0c0,0,1,0,1,0c1,0,1,0,1,-1c0,0,1,0,1,0c0,-1,1,-1,1,-1c0,0,0,-1,0,-1c1,-1,1,-1,1,-2l-1,0l-1,0c-1,0,-1,0,-1,0l0,-1c0,-1,0,-1,0,-1c0,-1,0,-1,1,-2c0,-1,1,-1,1,-1l1,1c0,1,0,1,1,1c0,0,0,1,0,1c0,1,0,1,0,2c0,1,-1,2,-1,3c0,0,0,1,-1,1c0,0,0,1,0,1ZM122.5,320.5l-2,-1l1,-1l2,0ZM122.5,323.5l1,0l1,0c-1,-1,-1,-1,-1,-1l-1,0l0,1ZM125.5,322.5l0,1l0,1c1,0,1,0,1,0c0,0,0,1,0,1c0,1,0,1,0,1c-1,0,-1,1,-1,1l-1,1l-1,1c-1,0,-1,0,-2,0c-1,1,-2,1,-3,1c-1,0,-2,1,-3,1c-2,0,-3,-1,-4,-1c-1,0,-2,0,-2,-1c0,0,-1,0,-1,-1c0,0,0,-1,0,-1l0,-1l0,-1c0,0,1,-1,1,-1l1,0c-1,0,-1,1,-1,1c0,0,0,1,0,1c0,0,0,1,0,1c1,0,1,1,2,1l1,0c1,1,1,1,2,1c0,0,1,0,2,0c1,0,1,0,2,0c0,-1,1,-1,1,-1c1,0,1,0,2,0c0,0,1,0,1,-1c1,0,1,0,2,0l0,-1c1,0,1,0,1,0c0,-1,0,-1,0,-1l-1,0c-1,1,-1,1,-1,1c0,0,-1,0,-1,-1c0,0,-1,0,-1,0c0,0,0,-1,0,-1c0,-1,0,-1,0,-1c0,0,0,-1,0,-1c1,0,1,-1,1,-1c0,-1,1,-1,1,-1c0,0,1,0,1,0c0,1,0,1,0,1l1,0c0,0,0,1,0,1ZM242.5,334.5l-2,-1l1,-1l1,1ZM239.5,330.5l-1,0l-1,0c-1,0,-2,0,-2,0c-1,-1,-1,-1,-1,-2l0,-9l0,-2l1,10l0,1c1,0,1,1,2,1l1,0l1,0c1,0,1,0,2,-1c0,0,1,0,1,0l0,-1c0,0,-1,0,-1,-1l1,-2l0,1l0,1l1,0l0,1l0,1l-1,0c0,0,0,1,0,1c0,1,-1,1,-1,1c-1,0,-1,0,-2,0ZM241.5,336.5l-4,2c0,0,0,-1,0,-1l4,-2ZM227.5,329.5l1,0l0,-1c1,0,1,0,1,0l0,-1l0,-2l0,-6c-1,0,-1,-1,-1,-1c0,0,1,0,1,-1l1,1l1,0c-1,0,-1,1,-1,1c0,0,0,1,0,1c0,0,0,1,0,2c0,0,0,1,0,2c0,1,0,1,0,2l0,1l0,1l0,1l-1,0l0,1c-1,0,-1,0,-1,0c-1,0,-1,0,-1,0l-1,0c-1,0,-1,0,-2,0l-1,-1c0,1,0,1,-1,2c0,0,-1,0,-1,-1l-1,0l-1,-1l-1,1c-1,0,-1,0,-1,0l-1,0l-1,0l-1,0c0,1,0,1,0,1c-1,1,-1,1,-1,2l-1,1l-1,1c-1,0,-1,0,-1,1l-1,0l-1,0c0,0,-1,0,-2,-1l1,0c1,0,1,0,2,0c0,-1,0,-1,1,-1l1,-1c1,-1,1,-1,1,-1c0,0,0,-1,0,-1c1,0,1,0,1,0c0,0,0,-1,0,-1c0,0,-1,0,-1,0c-1,0,-1,0,-1,0c-1,0,-1,0,-1,-1c0,-1,0,-1,0,-1c0,0,0,-1,0,-1c1,-1,1,-1,1,-1c1,0,1,0,1,0l1,0c0,0,0,1,0,1c0,0,1,0,1,1l0,1c0,0,1,0,1,0l1,0l1,0l1,-1l1,-1c1,-1,2,-2,2,-2l1,1l1,1l0,1l1,0l1,1l1,0l1,0ZM227.5,312.5l1,0c0,0,1,0,1,0c1,0,1,0,1,0c1,0,1,0,1,1c0,0,0,1,-1,1c0,0,-1,1,-1,1c0,0,-1,0,-1,0l-1,0l2,-1c0,0,1,0,1,-1l-1,0c-1,0,-1,0,-2,0c0,0,0,-1,0,-1ZM223.5,329.5l-1,-1c0,-1,-1,-1,-1,-1l-1,0l0,1l1,0l1,1ZM220.5,315.5c0,-1,1,-1,1,-1c0,-1,0,-1,1,-1c0,1,0,1,0,1c0,1,0,1,0,1l0,1l1,0l-1,2l-1,-1l-1,1c0,0,0,1,0,1l-1,0l-1,0l1,-1c0,0,1,0,1,-1l1,0l-1,-1l0,-1ZM221.5,315.5l0,-1c0,0,0,1,0,1l0,1l0,-1ZM210.5,322.5c0,-1,0,-1,0,-1c0,0,0,-1,1,-1l1,0l0,1l0,1l0,-1l-1,0c0,0,-1,0,-1,1c0,0,1,0,1,0l1,1l1,-1c0,1,0,1,0,1l-4,2c0,-1,0,-1,0,-1c0,0,1,0,1,0l0,-1c0,0,-1,0,-1,-1ZM212.5,327.5c-1,0,-1,0,-1,0l0,1c1,1,1,1,1,1l1,0c0,-1,0,-1,0,-1c-1,0,-1,0,-1,0l0,-1ZM207.5,316.5c0,0,1,0,1,0c1,-1,1,-1,1,-1c1,0,1,0,2,1c0,1,0,1,0,1c0,1,-1,1,-1,1l-1,0l-1,0l-1,0l2,0c1,0,1,-1,2,-1c-1,0,-1,0,-1,0c0,0,-1,0,-1,0c0,0,-1,0,-1,0c0,0,-1,0,-1,0c0,0,0,-1,0,-1ZM204.5,330.5l-1,0c0,0,-1,-1,-1,-1l-1,0c0,1,-1,1,-1,1l-1,0l-1,0c-1,0,-1,0,-1,0c0,0,-1,0,-1,0c0,0,0,-1,0,-1c0,0,-1,0,-1,0c-1,0,-1,0,-1,0c0,1,-1,1,-1,1c0,0,-1,0,-1,0c-1,0,-1,0,-1,0l-1,0l-1,-1l0,-1l0,-1l0,-1c-1,1,-1,1,-2,2c0,0,-1,0,-1,0c0,1,0,1,0,1l0,1l0,1l-1,0c0,0,0,1,0,1c-1,0,-1,0,-1,1c-1,0,-1,0,-2,0c0,0,0,1,-1,1c-1,0,-2,0,-3,1c-1,0,-2,0,-3,0c0,0,-1,0,-2,0c-1,0,-1,0,-2,0c-1,0,-1,0,-2,0c0,0,-1,0,-2,0c-1,0,-1,0,-2,-1c-1,0,-2,0,-2,0c-2,-1,-3,-1,-4,-2c-1,0,-2,-1,-2,-2c-1,0,-1,0,-1,0l0,-1c1,1,1,1,1,1c1,0,1,0,1,1c1,0,2,0,3,0c0,1,1,1,1,1c1,0,1,0,2,1c0,0,1,0,2,0c0,0,1,0,2,0c0,0,1,0,2,0c0,0,1,0,1,0c1,0,1,0,2,0c1,0,1,0,2,0c1,0,2,0,3,0c1,0,2,0,3,-1c0,0,1,0,2,0c2,-1,2,-2,2,-2c0,-1,0,-1,0,-1c0,0,0,-1,0,-1l-1,-1l0,-2l1,1l1,0c1,0,1,0,1,0c1,0,1,-1,1,-1c0,0,1,-1,1,-1c0,1,0,1,0,1l0,1c0,1,0,1,1,2l1,1c0,0,1,0,1,0l1,0c0,-1,1,-1,1,-1c1,0,1,0,1,0c0,-1,1,-1,1,-1c0,1,0,1,0,1l1,0c0,1,0,1,1,1l1,0c1,0,1,0,1,0l1,-1l0,-1c1,-1,1,-1,1,-1l1,-1c1,0,1,0,1,0c0,1,1,1,1,2l0,1c0,0,0,1,0,1c0,0,-1,1,-1,1ZM202.5,328.5l1,0l1,0l0,-1c-1,0,-1,0,-1,0c0,0,-1,0,-1,0l0,1ZM203.5,333.5l-4,3c0,-1,0,-1,1,-2l4,-2ZM194.5,326.5l-1,-1l1,-1l1,0ZM196.5,333.5l-4,3c0,-1,0,-1,1,-2l4,-2ZM191.5,333.5l-2,-1l-1,2l-1,-1l1,-2l1,1l1,-1l1,1ZM173.5,329.5l-1,-1l0,-2l2,1ZM163.5,321.5l1,0l3,-1l5,-2l5,-2l-1,1l0,1l-1,0l-1,0l-2,1l-5,2l-4,1ZM301.5,328.5c1,0,1,-1,2,-1c1,0,2,0,2,-1l0,1l0,1c-1,0,-1,0,-2,1c0,0,-1,0,-2,0c-1,1,-3,1,-4,1c-1,0,-1,0,-1,0c-1,0,-1,-1,-1,-2c0,1,-1,1,-1,2c0,0,-1,0,-1,0l-1,0c-1,0,-1,0,-1,0c0,0,-1,0,-1,0c0,0,0,-1,0,-1c-1,0,-1,0,-1,0c0,0,-1,0,-1,0c0,1,-1,1,-1,1l-1,0l-1,0c0,0,-1,0,-1,0c-1,0,-1,0,-1,0c0,-1,0,-1,0,-1c0,0,-1,0,-1,0l-1,0c-1,0,-1,0,-2,0c-1,0,-1,0,-2,0c-1,0,-2,0,-2,1c-1,0,-2,0,-3,0c-1,0,-2,0,-3,0c-1,0,-2,0,-3,0c-1,0,-2,0,-3,0c-1,0,-1,0,-2,0l-1,0l-3,0l-1,0l0,1l0,1c0,0,-1,1,-1,1c0,0,0,-1,-1,-1c0,-1,0,-1,-1,-2l0,-1l-1,1c0,0,-1,0,-1,0l0,1l0,1l0,1l0,2l1,1l0,1c0,1,0,1,0,2l0,1l-1,0l0,-1l0,-1l0,-1l-1,-3l0,-1l0,-1l0,-1l0,-1c1,0,1,-1,1,-1l0,-1l1,0l1,-1l1,0l0,-1c1,1,1,2,2,2l2,1l1,0l1,0c1,0,2,0,3,0c1,0,2,0,3,-1c0,0,1,0,2,0c1,0,1,0,2,0c1,0,2,0,2,0c1,0,2,0,3,0c1,0,2,0,3,-1c1,0,2,0,2,0c1,0,2,0,3,0l1,0c0,0,0,-1,-1,-1c0,0,-1,-1,-1,-1c0,0,-1,0,-1,0c-1,0,-2,0,-4,1c-2,0,-4,0,-6,0c-2,0,-4,1,-5,1c-2,0,-3,-1,-3,-1c0,0,-1,0,-1,0l0,-1l1,-1c0,0,0,-1,0,-1c0,0,1,0,1,-1c1,-1,2,-2,3,-2c1,-1,2,-2,3,-2l0,2c0,0,-1,0,-1,0c-1,1,-2,1,-3,2c-1,0,-2,1,-2,2c-1,0,0,1,0,1c0,0,1,0,1,0c1,0,1,0,2,0c1,0,2,0,4,0c2,-1,4,-1,6,-1c2,0,4,0,4,0c0,0,1,0,1,0c0,0,1,0,2,0c0,0,0,1,0,1c1,0,1,1,1,1c0,1,-1,1,-1,2l0,1l1,0l1,0c1,0,1,0,1,0c0,0,1,-1,1,-1c1,0,1,0,1,0l1,0c0,-1,0,-1,0,-1c0,0,0,1,0,1l1,0c0,1,0,1,1,1c1,0,1,0,1,0c1,-1,1,-1,1,-1c0,0,0,-1,0,-1c0,-1,0,-1,0,-1c0,0,0,-1,0,-1l0,-7l1,-2l0,11c0,0,0,1,1,1l0,1c0,0,1,0,1,0c0,0,1,0,1,0l0,-1l0,-1c0,0,-1,0,-1,-1c0,0,0,-1,0,-1c1,0,1,0,1,0c0,0,0,-1,0,-1l0,-1c1,0,1,0,1,0c0,0,1,0,1,0c0,-1,1,-1,1,-1l1,0l0,1c0,0,1,0,1,0l1,1l-1,0l-1,0l-1,0l-1,0l-1,0c0,0,0,1,0,1l-1,0c0,0,1,0,1,1c1,1,1,1,1,1c0,0,1,1,1,1ZM298.5,317.5l4,-2l0,1l-4,2ZM292.5,314.5l4,-2l0,1c0,0,-1,0,-1,0l-4,2ZM290.5,334.5l-1,-1l-1,1l-1,-1l1,-1l1,0l1,-1l1,1ZM286.5,312.5c1,0,1,0,1,0c1,0,1,0,2,0c0,0,1,0,1,0c0,0,1,0,1,1l-1,0c0,0,0,1,0,1c0,0,-1,0,-1,0c0,0,0,1,0,1l-1,0l-1,0l-1,0l2,-1c1,0,1,0,2,-1c-1,0,-1,0,-1,0c0,0,-1,0,-1,0c0,0,-1,0,-1,0c0,0,-1,0,-1,0c0,0,0,-1,0,-1ZM265.5,311.5c0,0,0,-1,1,-1l1,0c0,0,0,1,0,1l0,1l0,1l0,1l-1,0l-1,1l-1,0l-1,0l1,-1c0,0,1,0,1,0l0,-1l1,0l-1,0c0,0,0,-1,0,-1c0,0,0,-1,0,-1ZM266.5,311.5l0,1l0,-1ZM359.5,328.5l-2,0c0,0,-1,0,-1,0l-1,0c0,0,-1,0,-1,0l-1,0l-1,1c0,0,-1,0,-1,0c0,1,-1,1,-1,1c-1,0,-1,0,-2,0l-1,0l-1,0c0,0,0,1,0,1c0,1,0,2,0,2c-1,1,-1,1,-1,1c0,0,0,1,-1,1l-1,1l-1,0l-1,0c0,0,-1,0,-2,0c0,-1,0,-1,-1,-1l1,0l1,0c1,0,1,0,2,0l1,-1l1,0c0,-1,0,-1,0,-1c0,0,1,-1,1,-1c0,0,0,-1,1,-1c0,-1,0,-1,0,-1l-1,0l0,-1c0,-1,0,-1,0,-1c0,0,0,-1,0,-1l0,1c1,0,1,0,1,0c0,0,1,1,1,1l1,0l1,0c0,0,1,-1,1,-1c1,0,1,0,1,0l2,-1l1,0l-1,0l-1,-1l-1,0l-1,0l-1,0l-1,0c0,0,1,-1,1,-1c0,0,0,-1,1,-1l1,0c1,0,1,0,1,0l1,1l1,0l1,1c1,0,1,0,1,0c1,0,1,0,1,0c1,0,1,0,2,0l1,0ZM350.5,317.5l5,-2l-1,1l-4,2ZM346.5,340.5l-5,3c1,-1,1,-1,1,-2l4,-2ZM339.5,333.5l-2,0l0,1l-2,-1l1,-2l2,1l0,-1l2,1ZM336.5,330.5l-1,0l-11,0l-1,1c0,1,0,1,0,2l0,-1l0,-1c0,0,0,-1,0,-1l-1,0c0,1,0,2,0,3c-1,0,-1,1,-1,1c0,0,0,1,0,1c-1,0,-1,1,-1,1c-1,0,-1,0,-1,0c0,0,0,1,0,1c-1,0,-1,0,-1,0l-1,0c0,0,-1,0,-1,0c-1,0,-2,0,-2,0c-1,0,-2,0,-2,-1c0,0,-1,-1,-1,-1c0,0,0,-1,0,-1l0,-1l0,-1c0,0,0,-1,0,-1c1,-1,1,-1,1,-2l1,1c-1,0,-1,1,-1,1c0,1,0,1,0,1c0,1,0,1,0,2c0,0,1,1,1,1c0,0,1,0,1,0c1,1,1,1,2,1c1,0,1,-1,1,-1c1,0,1,0,2,0c0,-1,1,-1,1,-1c1,-1,1,-2,1,-2c0,-1,0,-1,0,-2c-1,0,-1,0,-1,-1l1,-2c0,1,0,1,0,1c0,0,1,1,1,1l1,0l1,-1l3,-2l1,0l0,-1c1,0,1,0,2,0l1,0l1,0c1,0,1,0,1,1c0,0,0,1,0,1c0,0,0,1,0,1l0,1l-1,0l2,0l1,0l1,0c0,0,1,0,1,-1c1,0,1,0,2,0c0,-1,0,-1,0,-1l-1,0c0,-1,0,-1,0,-1l1,-2l0,1c0,0,0,1,0,1c0,0,0,1,0,1l0,1c0,0,0,1,0,1c-1,1,-1,1,-2,1c0,0,-1,0,-1,0ZM328.5,327.5l-1,0l0,1l-1,0l-1,1l3,0l1,0c0,0,1,0,1,-1c1,0,2,0,2,0c0,0,0,-1,0,-1l-1,0c0,-1,0,-1,0,-1c-1,0,-1,0,-1,0c0,0,-1,0,-1,0c0,0,0,1,-1,1ZM320.5,317.5c-1,0,-1,0,-1,0l-1,1l0,1l0,1c0,0,1,0,1,1l-1,0l0,-1l0,-1l0,-1c0,-1,0,-1,1,-1c0,-1,0,-1,1,-1l1,-1ZM320.5,319.5c0,-1,0,-1,0,-1c0,-1,1,-1,1,-1c1,1,1,1,1,1c0,1,0,1,0,1l0,1l-1,0l1,0l0,2l-1,-1l-1,0l0,1c0,0,-1,1,-1,1l-1,0c0,0,-1,0,-1,0l1,-1l1,0l1,-1l0,-1c-1,0,-1,0,-1,0l0,-1l1,0ZM321.5,319.5l-1,-1c0,0,0,1,0,1l1,1l0,-1ZM402.5,327.5c-1,0,-2,1,-3,1c-1,1,-2,1,-3,2c-1,0,-2,0,-3,0l-1,0l-1,0c0,0,-1,0,-1,0c0,0,0,-1,0,-1c0,0,-1,1,-1,1c-1,0,-1,0,-2,0l-2,0c-1,0,-1,0,-1,0l-1,-1l-1,0c0,1,-1,1,-1,1l-1,0c-1,0,-2,0,-2,0l-1,-1c0,1,0,1,-1,2c0,0,-1,0,-1,0c-1,-1,-1,-1,-2,-1l0,1c-1,0,-1,1,-2,1c0,0,-1,1,-1,1c-2,0,-3,0,-4,0l4,-2l1,-1c1,0,1,0,2,-1l1,-1c0,-1,0,-1,0,-2c0,0,1,0,1,0l1,0l1,1c0,1,1,1,1,1l1,1l1,0c0,0,1,0,1,0c0,0,1,-1,1,-1l1,0l1,-1c0,0,0,1,0,1c1,1,1,1,1,1l2,0c1,0,1,0,1,0c1,-1,1,-1,1,-1c1,-1,1,-1,1,-1c0,0,0,1,0,1l1,0c0,1,1,1,1,1l1,0c0,0,1,0,1,0c0,-1,1,-1,1,-1c0,0,0,-1,-1,-1c0,0,0,-1,0,-1c0,-1,0,-1,0,-1l0,-1l1,0c0,0,0,-1,0,-1c0,0,1,0,1,0c0,-1,0,-1,1,-1l1,0l1,0c1,1,1,1,1,1l1,1l-1,0l-1,-1l-1,0l-1,0c0,0,0,1,-1,1l-1,0c0,0,0,1,0,1c1,1,1,1,1,1c1,1,1,1,2,1l1,0c0,0,1,0,1,0l1,-1l1,-1ZM393.5,317.5l5,-2l-1,1l-4,2ZM389.5,326.5l-1,-1l1,-2l1,1ZM392.5,333.5l-5,3c1,-1,1,-1,1,-2l4,-2ZM384.5,325.5l-1,-1l-1,2l-2,-1l1,-2l2,1l0,-1l2,1ZM379.5,319.5l0,1c1,0,1,0,1,0l0,-1l0,-1l1,0l0,1c0,0,1,0,1,0l0,-1l0,1l0,1l-1,0l-1,0l0,1l-1,0c0,0,0,-1,0,-1l0,-1ZM380.5,314.5c0,-1,1,-1,1,-1l1,0l0,1l0,1l0,2l-1,-1l0,1c-1,1,-1,1,-1,1c-1,0,-1,0,-2,0c1,0,2,-1,3,-2l-1,0c0,-1,0,-1,0,-1l0,-1ZM381.5,314.5l0,1l1,0l0,-1l-1,0ZM376.5,329.5l0,-1c0,0,-1,-1,-1,-1c0,0,0,1,0,1c-1,0,-1,0,-1,0l1,1l1,0ZM372.5,319.5l1,0l1,0c0,0,1,0,1,0c1,0,1,0,1,1c0,0,0,1,-1,1l0,1c0,0,-1,0,-1,0c-1,0,-1,0,-1,0l-1,0l2,-1c0,0,1,0,1,-1l-1,0c-1,0,-1,0,-2,0l-1,1l0,-1l1,0l0,-1ZM421.5,330.5l-1,0c-1,0,-1,-1,-1,-1l-1,0c-1,1,-1,1,-1,1l-1,0l-1,0l-1,0c-1,0,-2,0,-2,0c-1,-1,-1,-1,-1,-2l0,-9l1,-2l0,10l0,1l1,0c0,0,0,1,1,1l1,0l1,0c1,0,1,0,1,0l1,-1l0,-1c0,-1,1,-1,1,-1l0,-1c1,0,1,0,1,0c0,0,1,0,1,0c0,1,0,1,1,2l0,1c0,0,0,1,0,1c-1,0,-1,1,-1,1ZM419.5,328.5l1,0l1,0l0,-1c-1,0,-1,0,-1,0c-1,0,-1,0,-1,0l0,1ZM416.5,317.5l4,-2l0,1l-4,2ZM71.5,315.5c-1,0,-1,0,-1,0l0,1l-1,0c0,0,0,1,0,1l0,1c1,0,1,1,1,1l-1,0l0,-1l0,-1l0,-1c0,-1,0,-1,1,-1l1,-1l1,0ZM71.5,317.5c0,0,0,-1,0,-1c1,0,1,0,1,0c1,0,1,0,1,1l0,1l-1,0l1,1l0,1l-1,-1l0,1l-1,0c0,1,-1,1,-1,1l-1,0l1,-1l1,-1c0,-1,-1,-1,-1,-1c0,-1,1,-1,1,-1ZM72.5,317.5l-1,0l0,1l1,0l0,-1ZM116.5,311.5c-1,0,-1,0,-1,1l-1,0c0,1,0,1,0,1l0,1c1,1,1,1,1,1l-1,0l0,-1l0,-1l0,-1c0,0,0,-1,1,-1l1,-1l1,0ZM116.5,313.5l0,-1c1,0,1,0,1,0l1,0c0,0,0,1,0,1l0,1l-1,1l1,0l0,1l-1,0l-1,0c0,1,-1,1,-1,1l-1,0l1,-1l1,0l0,-1c0,0,0,-1,0,-1c0,0,0,-1,0,-1ZM117.5,313.5l-1,0l0,1l1,0l0,-1ZM266.5,273.5c1,-1,1,-1,2,-1c0,0,1,0,1,1c1,0,1,0,1,0c0,1,-1,1,-1,1c0,1,0,1,-1,1c-1,0,-1,0,-1,0l-1,0l1,0c1,0,2,-1,2,-1c0,0,-1,0,-1,0l-1,0l-1,0l-1,0c0,0,0,-1,0,-1l1,0ZM106.5,270.5l1,0c0,0,1,0,1,0c1,0,1,0,1,0c1,0,1,0,1,1c0,0,0,1,-1,1c0,1,0,1,-1,1c0,0,-1,0,-1,0l-1,0l2,-1c0,0,1,0,1,-1l-1,0c-1,0,-1,0,-2,0l0,1l0,-1l0,-1ZM90.5,281.5c0,0,-1,0,-2,1c-1,0,-2,1,-4,1c-1,1,-2,1,-3,1c-1,0,-1,0,-1,0c-1,-1,-1,-1,-1,-2c-1,1,-1,1,-1,1c-1,1,-1,1,-1,1l-1,0c-1,0,-1,0,-1,0c0,0,-1,0,-1,0c0,-1,0,-1,0,-1c0,0,-1,0,-1,0c-1,0,-1,0,-1,0c0,0,-1,1,-1,1l-1,0c-1,0,-1,0,-2,0c0,0,0,-1,-1,-1l0,-1c0,0,0,-1,0,-1l-1,0c0,1,0,1,0,1l-1,0l-1,0c0,0,-1,0,-1,0l-1,0l0,-1c0,-1,1,-1,1,-2c1,0,1,0,2,-1c1,0,1,0,1,0l0,-1l0,-1l1,1l0,1l0,1l1,2l0,1l1,0l1,0c1,0,1,0,1,0c0,0,1,0,1,0c1,-1,1,-1,1,-1c0,0,1,0,1,0c0,1,0,1,1,1l1,0c1,0,1,0,1,0c0,0,1,0,1,-1c0,0,0,-1,0,-1l0,-1l0,-7l1,-2l0,11c0,0,1,1,1,1c0,0,1,0,1,0l1,0c1,0,1,0,2,0c-1,-1,-1,-1,-1,-1c0,-1,0,-1,0,-2c0,-1,0,-1,0,-1l0,-1l1,0c0,-1,0,-1,0,-1c1,0,1,0,1,0c1,0,1,0,1,0c0,0,1,0,1,0l1,0l1,0c0,1,0,1,0,1l-1,0l-1,0l-1,0c-1,0,-1,0,-1,0c-1,1,-1,1,-1,1c0,0,0,1,0,1l1,1c0,0,1,1,1,1c1,0,1,0,1,0l1,-1l1,0l1,-1l1,0ZM82.5,271.5l4,-2l0,1l-4,2ZM76.5,268.5l4,-2l-1,0c0,0,0,1,0,1l-4,2ZM74.5,287.5l-1,-1l-1,1l-1,0l0,-2l2,1l1,-1l1,1ZM70.5,266.5l1,0c0,-1,1,-1,1,-1c1,0,1,0,2,1c0,1,0,1,-1,1c0,1,0,1,0,1l-1,0c0,0,-1,0,-1,0c-1,0,-1,0,-1,0l2,0c0,0,1,-1,1,-1c-1,0,-1,0,-1,0c-1,0,-1,0,-2,0c0,0,0,-1,0,-1ZM66.5,278.5l0,1l-1,0l-1,1l1,0c1,0,1,0,1,0ZM67.5,287.5l-4,2c0,0,0,-1,0,-1l4,-2ZM128.5,281.5c-1,0,-1,0,-2,1c-1,0,-2,1,-4,1c-1,1,-1,1,-2,1l-1,0c-1,0,-1,0,-1,0c0,0,-1,0,-1,1l-1,1l-1,0l0,1l-1,1l-1,1l-1,0c0,1,0,1,0,1c0,0,-1,0,-1,0c-1,0,-1,0,-1,-1c0,0,-1,0,-1,-1l0,-1l0,-1l0,1l-2,-1l-1,1l-1,0l1,-2l1,1l1,-1l2,1c0,-1,0,-1,0,-1l0,-1c1,0,1,0,1,0l0,1c-1,0,-1,0,-1,1l0,1c0,0,0,1,0,1c0,0,1,0,1,0c0,0,1,0,2,-1l1,-1l1,-1l0,-1c0,0,1,0,1,0c0,-1,0,-1,1,-1l1,0c0,-1,0,-1,1,-1l1,0c1,0,1,0,2,0c-1,-1,-1,-1,-1,-1c0,-1,0,-1,0,-2c0,-1,0,-1,0,-1l0,-1c0,0,1,0,1,0c0,-1,0,-1,0,-1c1,0,1,0,1,0c0,0,1,0,1,0c1,0,1,0,1,0c1,0,1,0,1,0l1,0c0,1,0,1,0,1l-1,0l-1,0l-1,0l-1,0c-1,1,-1,1,-1,1c0,0,0,1,0,1l0,1c1,0,2,1,2,1c0,0,1,0,1,0l1,-1l1,0l1,-1l1,0ZM120.5,271.5l4,-2l0,1l-5,2ZM116.5,280.5l-1,-1l1,-2l1,1ZM115.5,292.5l-4,2c0,-1,1,-1,1,-1l4,-2ZM106.5,284.5l-1,0l-1,0c0,0,0,1,0,1c-1,1,-1,1,-1,2c0,0,0,1,-1,1l0,1c-1,0,-1,0,-1,0c-1,0,-1,0,-1,0c-1,1,-1,1,-1,1l-1,0c0,0,-1,-1,-1,-1c-1,0,-1,0,-1,0c0,0,0,-1,0,-1c0,0,0,1,1,1c1,0,1,0,2,-1c0,0,1,0,1,0c0,0,1,-1,1,-1l1,-1l0,-1c0,0,1,0,1,-1l0,-1l-1,0l0,-1c0,-1,0,-1,0,-1c1,0,1,0,1,0l0,1l1,0l1,0l1,0c0,0,1,0,1,0c1,0,1,0,1,0l0,-1c1,0,1,0,0,0l0,-1l0,-1l0,-1c0,0,1,0,1,0l0,1c0,0,0,1,0,1c0,0,0,1,0,1c0,0,0,1,0,1c0,0,0,1,0,1c-1,0,-1,1,-2,1c0,0,-1,0,-1,0ZM103.5,279.5l-2,-1l1,-2l1,1ZM251.5,268.5l-1,0l0,1l0,1c0,1,0,1,0,1l0,1l0,-1l-1,-1l0,-1l1,0l0,-1l0,-1c0,0,1,0,2,0l1,-1ZM251.5,269.5c0,0,1,0,1,-1l1,0c0,0,0,1,0,1c0,0,0,1,0,1l0,1l1,0l-1,1l-1,0l0,1c-1,0,-1,0,-1,0l-1,1l-1,0l1,-1c1,0,1,-1,1,-1l1,0l0,-1l-1,0l0,-1l0,-1ZM252.5,270.5l0,-1c0,1,0,1,0,1l1,0l-1,0ZM101.5,265.5l-1,0l0,1c0,0,0,1,0,1l0,1c0,0,0,1,0,1l0,-1l-1,0l0,-1l0,-1l1,0c0,-1,0,-1,0,-1c0,0,1,-1,1,-1l2,0ZM101.5,267.5c0,-1,0,-1,1,-1l1,0l0,1l0,1l0,1l0,1l-1,-1l0,1l-1,0c0,1,0,1,-1,1l-1,0l1,0l0,-1c0,0,1,0,1,0l0,-1l1,0l-1,0c0,-1,0,-1,0,-1l0,-1ZM102.5,267.5l0,1l0,-1ZM196.5,277.5l-2,-1l1,-1l2,1ZM195.5,284.5l-1,0l-1,0l-1,0c-1,0,-1,0,-2,0c0,0,0,-1,-1,-1c0,0,-1,1,-1,1c-1,0,-2,0,-2,0l-1,0l-1,0l-1,-1c0,-1,0,-1,0,-1l-1,0c0,1,0,1,0,1c-1,0,-1,1,-2,1c0,0,-1,-1,-1,-2l-1,1c0,0,0,1,-1,1c-1,0,-2,-1,-2,-2c0,1,0,1,0,1c-1,1,-2,1,-2,1l-1,0l-1,0l-1,0c-1,0,-1,0,-1,-1c0,0,0,-1,0,-1c0,0,-1,0,-1,0l-1,0c-1,0,-1,0,-2,1c-1,0,-1,0,-2,0c-1,0,-1,0,-2,0c-1,0,-2,0,-3,0c-1,1,-2,1,-3,1c-1,0,-2,0,-3,0c-1,0,-2,0,-3,0c0,0,-1,0,-2,0l-1,0l-2,0c-1,0,-1,0,-1,0c-1,-1,-1,-1,-1,-1l0,1l0,1c0,1,0,1,-1,1l-1,-1c0,0,0,-1,0,-1l-1,-1l-1,0l-1,1c0,1,0,1,0,1l0,1c0,1,0,1,0,1l1,2l0,2c0,0,0,1,0,1l0,1l0,1l0,-1l-1,0l0,-1l0,-1l0,-3l-1,-1l0,-1l0,-1l0,-1l1,0c0,-1,0,-1,0,-2l1,0l0,-1l1,0l1,-1c1,1,1,1,2,2l2,0l1,0l1,0l1,0c0,0,1,0,2,0c1,0,2,0,3,0c1,0,1,0,2,0c1,0,2,0,2,0c1,0,2,0,3,0c1,0,1,-1,2,-1c1,0,2,0,3,0c1,0,2,0,3,0c1,0,2,0,2,0c1,0,1,0,1,-1c-1,-1,-1,-1,-1,-1l-1,0l-1,0c-1,0,-2,0,-4,0c-2,0,-4,1,-6,1c-2,0,-4,0,-5,0c-2,0,-3,0,-3,0c0,0,0,-1,0,-1l-1,0c1,0,1,-1,1,-1c0,-1,0,-1,0,-1c1,0,1,-1,2,-2c0,0,1,-1,2,-2c1,0,2,-1,3,-1c0,-1,0,-1,1,-1l-1,2c0,0,-1,0,-1,1c-1,0,-2,1,-3,1c-1,1,-1,2,-2,3c0,0,1,0,1,0l1,0c0,1,0,1,1,1c1,0,2,-1,4,-1c2,0,4,0,6,0c2,-1,4,-1,4,-1c1,0,1,0,1,0c0,0,1,0,2,1c1,0,1,1,1,1l0,1c0,0,0,1,-1,1c0,1,0,1,0,1l1,0l2,0l1,0c1,0,1,-1,2,-2l0,1c0,1,0,1,1,1c0,0,1,0,1,0c1,0,1,-1,1,-1l1,-1c0,1,0,1,0,1c0,1,1,1,1,1l1,0c0,-1,0,-1,0,-1c0,0,0,-1,1,-1c0,2,1,2,2,2l1,0c0,0,1,0,1,0c0,0,1,0,1,0l0,-1l-1,0c0,-1,1,-1,1,-2c0,0,0,-1,0,-1c1,0,1,0,1,-1c1,0,1,0,2,0l1,0c0,1,0,1,0,2l0,1c0,1,0,1,0,1c0,0,-1,1,-1,1l1,0c0,0,1,0,1,0l1,0l1,0c1,0,1,0,2,0c0,0,1,0,1,0l0,-1l0,-1c-1,0,-1,0,-1,-1l1,-1l0,1c1,0,1,1,1,1c0,0,0,1,0,1c0,0,0,1,0,1c-1,0,-1,0,-1,0c0,0,0,1,0,1c0,0,-1,1,-1,1c-1,0,-1,0,-2,0ZM190.5,276.5l-1,-1l1,-2l1,1ZM190.5,279.5c0,0,-1,0,-1,0c0,0,-1,0,-1,1l1,0c0,1,0,1,1,1l1,0c0,-1,0,-1,0,-1c0,0,0,-1,0,-1c0,0,-1,0,-1,0ZM187.5,265.5c0,-1,0,-1,0,-1c1,0,1,-1,1,-1c1,0,1,1,1,1l0,1l0,1l0,1l0,1l-1,-1l0,1l-1,0c0,0,-1,1,-1,1l-1,0l1,-1l1,0l0,-1l0,-1l0,-1ZM188.5,265.5c-1,0,-1,0,-1,0l1,0l0,1l0,-1ZM182.5,287.5l-4,2l0,-1l4,-2ZM151.5,265.5c0,-1,1,-1,1,-1c0,0,0,-1,1,-1c0,0,0,1,0,1l0,1l0,1l0,1l1,0l-1,1l-1,-1l0,1c-1,0,-1,1,-1,1l-1,0l-1,0l1,0l0,-1c1,0,1,0,1,0l0,-1l1,0l-1,0l0,-1l0,-1ZM152.5,265.5l0,1l1,0l0,-1l-1,0ZM192.5,267.5c1,0,1,-1,1,-1c1,0,1,0,2,0c0,0,1,0,1,0c0,1,1,1,1,1l-1,0c0,1,0,1,0,1c0,0,-1,1,-1,1l-1,0l-1,0l-1,0l2,0c1,-1,1,-1,2,-1c-1,0,-1,-1,-1,-1c0,0,-1,0,-1,0c0,0,-1,0,-1,1c0,0,-1,0,-1,0c0,-1,0,-1,0,-1ZM136.5,273.5c0,0,1,0,1,0c1,0,1,0,1,0c1,0,1,0,2,0l0,1l0,1c0,0,-1,0,-1,0c0,0,-1,0,-1,0l-1,0l-1,0l2,0c1,0,1,-1,2,-1c-1,0,-1,0,-1,0c0,0,-1,0,-1,0c0,0,-1,0,-1,0c0,0,-1,0,-1,0l0,-1ZM228.5,283.5c0,0,0,1,0,1l-1,-1c-1,0,-1,0,-1,0l-1,-1l0,1c-1,0,-1,0,-1,1l-1,0l-1,0l-1,0c0,1,0,1,0,1c0,1,0,1,0,1c0,0,0,1,-1,2c0,0,0,1,-1,1c0,1,-1,1,-2,1c-1,1,-1,1,-2,1c-1,0,-1,0,-2,0c-1,-1,-1,-1,-1,-1c-1,0,-1,-1,-1,-1c-1,-1,-1,-1,-1,-2c0,0,0,-1,0,-1l0,-1l1,0l0,-1c0,-1,1,-1,1,-1c0,1,0,1,0,1c-1,1,-1,1,-1,1c0,1,0,1,0,1c0,1,0,1,0,1c1,1,1,1,1,1l1,0c0,0,0,1,0,1c1,0,1,0,2,0c1,0,2,0,3,0c0,-1,1,-1,1,-2c1,0,1,0,1,0l0,-1l0,-1c0,0,0,-1,0,-1c0,0,-1,0,-1,0l0,-1l1,-2c0,0,0,1,0,1c0,0,1,0,1,0l1,0l1,0c1,0,1,0,1,0l1,0l0,-1c0,-1,1,-1,1,-2c1,0,1,0,1,0c1,0,1,0,1,0c0,0,1,1,1,1l0,1l0,1l0,1c0,0,-1,0,-1,0ZM226.5,281.5l1,0l1,1c0,-1,0,-1,0,-1l-1,0c0,-1,0,-1,0,-1c-1,0,-1,0,-1,1ZM224.5,269.5l0,1c0,0,0,1,1,1l0,-1l0,-1l1,0l0,1c1,0,1,0,1,-1l0,-1l0,1l0,1c0,1,0,1,0,1l-1,0l-1,0c0,1,0,1,-1,1l0,-1l0,-1ZM227.5,287.5l-4,2c0,0,0,-1,0,-1l5,-2ZM216.5,282.5l-2,-1l1,-2l1,1ZM215.5,269.5c0,-1,0,-1,1,-1c0,0,1,0,1,0c1,0,1,0,2,0c0,0,0,1,0,1c0,1,0,1,0,1c-1,0,-1,1,-1,1c-1,0,-1,0,-1,0c0,0,-1,0,-1,0c0,0,-1,0,-1,0l2,-1c0,0,1,0,1,0c0,-1,0,-1,0,-1c-1,0,-1,0,-1,0c-1,0,-1,0,-2,0c0,0,0,1,0,1l0,-1ZM282.5,287.5c1,0,1,0,1,0l1,0c1,0,2,0,3,-1l1,-1c0,0,1,-1,1,-1c0,0,0,-1,0,-1c1,0,1,-1,1,-1c0,0,-1,0,-1,0l0,-1l0,-1c-1,0,-1,0,-1,0l1,-1l0,-1l1,1l0,1l0,1l0,1c0,1,0,1,0,2c0,0,0,1,0,1c-1,0,-1,1,-1,1c0,0,0,1,-1,1l-1,1c0,0,-1,0,-1,0c0,0,-1,0,-1,0c-1,0,-1,0,-1,0c-1,0,-1,0,-1,-1l-1,0ZM285.5,274.5l4,-2l0,1l-4,2ZM274.5,282.5l0,1c-1,0,-1,0,-1,1c-1,0,-1,0,-1,0c-1,0,-1,0,-1,0l-1,0c0,0,0,1,0,1c0,0,-1,1,-1,1c0,1,0,1,0,1c-1,1,-1,1,-1,1c-1,0,-1,1,-1,1c0,0,-1,0,-1,0l-1,0l-1,0c0,0,-1,0,-1,0c-1,0,-1,0,-1,-1l1,0c1,0,1,0,2,0c0,0,1,0,1,0c0,-1,1,-1,1,-1c0,0,0,-1,1,-1l0,-1c0,0,1,0,1,0c0,-1,0,-1,0,-1c0,0,-1,0,-1,0l-1,0c0,-1,-1,-1,-1,-1c0,-1,0,-1,0,-1l0,-1c0,-1,1,-1,1,-1c0,-1,1,-1,1,-1c0,0,1,0,1,0c0,0,0,1,0,1c0,0,1,0,1,0c0,1,0,1,0,1c0,1,0,1,0,1c1,0,1,0,1,0c0,0,1,0,1,0l1,0l1,0c0,-1,0,-1,1,-2l0,1l0,1l1,0c0,0,1,0,1,0l1,0l0,-1l1,-1l0,1l0,1c0,0,1,0,1,0l1,0l0,-1l0,-1l1,0l0,1l0,1l0,1l-1,0c0,1,0,1,-1,1c-1,0,-1,0,-1,-1l-1,0c-1,0,-1,1,-1,1l-1,0c0,0,-1,0,-1,0c0,0,-1,-1,-1,-1c0,0,0,-1,0,-1ZM276.5,268.5c0,0,0,-1,1,-1l1,0l0,1l0,1l0,1l0,1l-1,0l-1,0c0,1,0,1,-1,1l-1,0l1,0l0,-1c0,0,1,0,1,0l1,-1l-1,0c0,0,0,-1,0,-1c0,0,0,-1,0,-1ZM277.5,268.5l0,1l0,-1ZM268.5,281.5c-1,0,-1,0,-1,0l0,1l1,0l1,0c0,0,0,-1,0,-1c0,0,-1,0,-1,0ZM262.5,282.5l-1,0c0,0,0,1,0,1c-1,0,-1,0,-1,0c0,1,-1,1,-2,1c-1,0,-2,0,-4,0c-2,0,-3,0,-5,0c-1,0,-2,0,-3,0c-1,0,-3,0,-4,0c-1,0,-2,0,-2,0c0,0,-1,0,-1,0c-1,0,-1,0,-2,0c0,-1,0,-1,0,-1l0,-1c0,0,1,0,1,0c1,1,2,1,2,1c0,0,1,0,2,0c1,0,2,0,4,0c1,0,2,0,3,0c1,0,2,0,3,0c1,0,2,0,3,-1c1,0,1,0,1,0c1,0,2,0,2,0c1,0,2,0,2,0c0,0,1,0,1,0c0,0,0,-1,0,-1l0,-2l-1,-6c0,0,0,1,0,1c0,1,0,1,0,2c0,0,0,1,0,1c0,1,0,2,0,3l-1,0l0,-1c0,0,0,-1,0,-1c0,-1,0,-1,0,-1c0,-1,0,-1,0,-2c1,-1,1,-1,1,-2c0,-1,0,-1,0,-1l1,-2l1,9l0,1c0,1,0,1,0,1c0,1,0,1,0,1ZM351.5,286.5l-1,1l-1,-1l1,-1ZM357.5,279.5l-1,2l-1,0l-1,0c0,1,-1,1,-1,1l-1,0l-1,1l-1,0c-1,0,-1,0,-1,0l0,1l-1,0l-1,0l-1,0c0,0,-1,0,-1,-1l-1,0c0,-1,0,-1,0,-2l0,-8l0,-2l1,9c0,1,0,1,0,1l0,1c1,0,1,0,1,0c0,0,0,-1,0,-1c0,0,0,-1,0,-1l1,0l0,-1c0,0,1,-1,1,-1c0,0,1,0,1,0l1,0c0,0,1,0,1,0l2,1l2,0l1,0l1,0ZM353.5,281.5l-1,-1l-1,0l-1,0c-1,0,-1,0,-1,0c0,0,-1,0,-1,0l-1,0c0,1,0,1,0,1c0,0,0,1,0,1l1,0l1,0l1,0l1,-1l1,0ZM349.5,271.5l5,-2l-1,0l0,1l-4,2ZM341.5,268.5c1,0,1,0,2,0c1,0,1,0,1,0l1,0l1,0c0,0,-1,1,-1,1l-1,0l-1,0l-1,0l-1,0c0,0,-1,0,-1,0c0,-1,0,-1,1,-1ZM335.5,282.5c0,-1,0,-1,1,-1c0,-1,0,-1,1,-1l1,-1c0,0,0,1,0,1c1,0,1,0,1,0l0,1l-1,0l-1,0c0,0,-1,0,-1,1c1,0,1,0,1,0l1,1c1,0,1,0,2,-1c0,1,0,1,-1,1l-4,2l0,-1l1,0c0,0,0,-1,-1,-1c0,0,0,-1,0,-1ZM335.5,274.5l4,-2l0,1l-1,0l-4,2ZM330.5,283.5c0,0,-1,0,-2,0c-1,0,-2,0,-4,0c-1,0,-2,0,-3,0c-1,0,-1,0,-1,0c-2,1,-3,1,-5,1c-1,0,-2,0,-3,0c-1,0,-2,0,-3,0l-1,0l-3,0c0,0,-1,0,-1,0c0,-1,0,-1,0,-1l0,1l0,1l-1,0c0,1,0,1,0,1c0,0,-1,0,-1,-1c-1,0,-1,-1,-1,-1l0,-1c0,0,-1,0,-1,0l-1,0l0,1l-1,0c0,1,0,1,0,1l1,1c0,1,0,1,0,1l0,2l0,2c1,0,1,1,1,1l0,1l-1,0l0,1l0,-1l0,-1l0,-1l-1,-3l0,-1l0,-1l0,-1l0,-1c0,-1,1,-1,1,-2l1,-1l1,0l0,-1l1,0c0,1,1,1,2,2l2,0l1,0l1,0l1,0c2,0,3,0,3,0c1,0,2,0,4,0c1,0,2,0,4,0l1,0c1,0,2,-1,3,-1c2,0,3,0,4,0c2,0,3,0,3,0l0,-1l-1,0c-1,0,-1,0,-1,0c-1,0,-3,0,-5,0c-2,0,-4,0,-6,0c-2,0,-3,0,-4,0c-2,0,-3,0,-4,0c0,0,0,-1,0,-1c0,0,0,-1,0,-1c1,-1,1,-1,1,-1c0,0,1,-1,1,-1c1,-1,2,-2,2,-2c1,-1,2,-1,3,-2l1,0l-1,2l-1,0c-1,1,-2,1,-2,2c-1,1,-2,1,-3,2l1,1l1,0l1,0l1,0c1,0,2,0,4,0c2,-1,4,-1,6,-1c2,0,3,0,4,0c1,0,1,0,2,0c0,1,1,1,1,1c0,1,0,1,0,1c0,1,0,1,0,2c0,0,0,1,-1,1ZM313.5,265.5c0,-1,0,-1,0,-1c1,0,1,-1,1,-1c0,0,1,1,1,1l0,1l0,1l0,1l0,1l-1,-1l0,1l-1,0c0,0,-1,1,-1,1l-1,0l1,-1l1,0l0,-1l0,-1l0,-1ZM314.5,265.5c-1,0,-1,0,-1,0l1,0l0,1l0,-1ZM298.5,273.5l1,0l1,0c0,0,1,0,1,0c1,0,1,0,1,0l0,1c0,0,-1,0,-1,1c0,0,-1,0,-1,0c-1,0,-1,0,-1,0l-1,0l2,0c0,0,1,-1,1,-1l-1,0c-1,0,-1,0,-2,0l-1,0l1,-1ZM387.5,282.5l1,0c1,0,1,0,1,0c0,0,0,-1,0,-1l0,-2l0,-6c0,-1,0,-1,0,-1c0,0,0,-1,0,-1c0,0,0,-1,0,-1c0,0,1,0,1,0l-1,0c0,1,0,1,0,1c0,0,1,0,1,0c0,0,0,1,1,1c0,0,-1,0,-1,1l0,1c0,0,0,1,0,1c0,1,0,1,0,3c0,0,0,1,0,1l0,1c0,1,0,1,0,1c0,0,0,1,0,1c0,0,0,1,0,1c-1,0,-1,0,-1,0l0,1c-1,0,-1,0,-1,0c0,0,-1,0,-1,0l-2,0c-1,0,-2,0,-2,0c-1,0,-1,-1,-1,-1c-1,0,-1,1,-2,1c-1,0,-1,0,-2,0l-1,0l-1,0l-1,0c0,0,-1,0,-1,-1c0,-1,0,-1,0,-1l-1,0c0,0,0,1,0,1l-1,0c0,0,-1,1,-1,1c0,0,-1,0,-2,0l-1,0c0,0,0,-1,-1,-1l0,-1l0,-1l1,0l0,1l1,0l1,0c1,0,1,0,1,0l1,0l0,-1l1,0c0,0,0,-1,0,-2l0,-2l0,-1l0,-1l1,1c0,0,0,1,0,2l0,2c0,0,0,1,0,1c1,0,1,0,1,0c0,0,0,1,0,1c1,0,1,0,1,0l1,0l1,0c0,0,1,0,1,0l1,0l0,-1c0,-1,0,-1,0,-2c0,0,1,-1,1,-1l0,-1c1,0,1,0,2,0c0,0,1,0,1,0c0,1,0,1,0,2l1,0l-1,1c0,0,0,1,0,1c0,0,0,1,-1,1c1,0,1,0,1,0l1,0ZM388.5,268.5l4,-2l-1,0c0,0,0,1,0,1l-4,2ZM383.5,276.5l-1,-1l-1,1l-2,-1l1,-2l2,1l0,-1l2,1ZM382.5,279.5l-1,0l0,1c0,1,1,1,1,1c0,0,1,0,1,0c0,-1,0,-1,1,-1c0,0,0,-1,-1,-1l-1,0ZM378.5,268.5l5,-2l-1,0c0,0,0,1,0,1l-4,2ZM369.5,269.5c1,-1,1,-1,1,-1c1,0,1,0,2,0c0,0,1,0,1,0c0,0,1,1,1,1c-1,1,-1,1,-1,1c0,0,0,1,-1,1c-1,0,-1,0,-1,0l-1,0l1,-1c1,0,1,0,2,0c0,-1,-1,-1,-1,-1l-1,0c0,0,-1,0,-1,0c0,0,0,1,-1,1l0,-1ZM202.5,282.5l0,-1l0,-1l-1,-8l1,-3l1,11l0,1c-1,1,-1,1,-1,1ZM200.5,268.5l4,-2c0,1,0,1,0,1l-4,2ZM203.5,360.5l0,-1c0,0,0,-1,0,-1c-1,-1,-1,-2,-1,-2l0,-1l1,0l0,1c0,0,0,1,0,1l0,1c0,0,0,1,0,1l0,1ZM201.5,362.5l1,0l0,1l1,0l0,-1l0,-1l1,0l0,1c1,0,1,0,1,-1l0,-1l0,1l0,1l0,1l0,1l-1,0l-1,-1l0,1c0,0,-1,1,-1,1c0,0,-1,-1,-1,-1l0,-1l0,-1ZM185.5,371.5l-1,-1l0,1l0,-1l1,0Z" class="g2_8" />
</svg>