<?xml version="1.0" encoding="UTF-8" standalone="no"?>
<!DOCTYPE svg PUBLIC "-//W3C//DTD SVG 1.1//EN"
"http://www.w3.org/Graphics/SVG/1.1/DTD/svg11.dtd">
<svg version="1.1" xmlns="http://www.w3.org/2000/svg" xmlns:xlink="http://www.w3.org/1999/xlink">
<defs>
<style type="text/css"><![CDATA[
.g2_42{
fill: #1F1A17;
stroke: #1F1A17;
stroke-width: 1;
stroke-linecap: butt;
stroke-linejoin: miter;
}
.g1_42{
stroke: #1F1A17;
stroke-width: 1;
stroke-linecap: butt;
stroke-linejoin: miter;
}
]]></style>
</defs>
<path fill-rule="evenodd" d="M54.5,333.5c1,0,1,0,1,-1c1,0,1,0,2,0c0,0,1,0,1,1c0,0,1,0,1,0c-1,1,-1,1,-1,1c0,1,0,1,-1,1l-1,0l-1,0l1,0c1,-1,1,-1,2,-1c0,0,-1,0,-1,0c0,0,-1,0,-1,0c0,0,-1,0,-1,0l-1,0c0,0,0,-1,0,-1ZM398.5,432.5l-1,0c0,1,0,1,0,1c0,0,1,0,1,0c0,0,1,0,1,0c0,-1,-1,-1,-1,-1ZM398.5,440.5l-1,0c-1,1,-1,1,-2,1c-1,0,-1,0,-2,-1c0,0,-1,0,-1,0c0,0,1,0,1,0l1,0l1,0c0,0,1,-1,1,-1c1,0,1,-1,2,-1l0,-1c0,0,1,0,1,-1c0,0,0,-1,0,-1c0,0,0,-1,0,-1c0,1,0,1,0,1l-1,0l-1,0c-1,-1,-1,-1,-1,-1c0,-1,0,-1,0,-1c0,-1,0,-1,0,-1c1,0,1,-1,1,-1c0,0,0,-1,1,-1c1,0,1,0,1,0c0,0,0,1,1,1l0,1l0,1c0,0,0,1,0,1c0,0,0,1,0,1c0,1,0,2,-1,3l0,1c0,0,-1,0,-1,1ZM395.5,426.5l4,-2l0,1l-4,2ZM392.5,439.5l-1,-1l-1,1l-1,0l0,-2l2,1l1,-1l1,1ZM389.5,436.5l-1,0l-1,0l-1,0c-1,0,-1,0,-2,0c0,0,0,-1,-1,-1c0,0,-1,1,-1,1c-1,0,-2,0,-2,0l-1,0l-1,0l-1,0l0,-1l-1,0c0,0,0,-1,0,-1c0,1,-1,1,-1,2c0,0,-1,0,-1,0l-1,0c-1,0,-1,0,-1,0c-1,-1,-1,-1,-1,-2c0,1,-1,1,-1,1c0,1,-1,1,-1,1l-1,0l-1,0c0,0,0,1,0,1c0,0,0,1,0,1c-1,1,-1,1,-1,1c0,1,-1,1,-1,1c0,0,-1,1,-1,1l-1,0c-1,0,-1,0,-1,0c-1,0,-1,0,-2,0c0,0,-1,0,-1,-1c0,0,1,0,1,0l1,0c0,0,1,0,1,0c0,0,1,0,1,0c1,-1,1,-1,1,-1c0,0,1,-1,1,-1l1,-1c0,-1,0,-1,0,-1c-1,0,-1,0,-1,0c-1,0,-1,0,-1,0c0,-1,0,-1,-1,-1c0,-1,0,-1,0,-1l1,-1c0,0,0,-1,0,-1l1,0c0,-1,0,-1,0,-1c1,0,1,0,1,0c0,0,0,1,1,1c0,1,0,1,0,1c0,1,0,1,0,1c1,0,1,0,1,0c1,0,1,0,1,0c1,0,1,0,1,-1c0,0,0,-1,0,-1l0,-1l0,-7l1,-2l0,11l1,0c0,0,0,1,0,1c0,0,1,0,1,0c1,0,1,0,1,0c1,0,1,0,1,0c0,0,0,-1,1,-1l0,-1l0,1c0,1,1,1,1,1c0,0,1,0,1,0l2,0c1,0,1,0,1,0c0,0,1,0,1,0l0,-1c0,-1,0,-1,0,-2c0,0,0,-1,0,-1c1,0,1,0,1,-1c1,0,1,0,2,0c0,0,1,0,1,0c0,1,0,1,0,2l0,1c0,0,0,1,0,1c0,0,-1,1,-1,1l1,0c0,0,1,0,1,0l1,0l1,0c1,0,1,0,2,0c0,0,1,0,1,0l0,-1l0,-1c0,0,-1,0,-1,-1l1,-1l0,1c1,0,1,0,1,0c0,0,0,1,0,1c0,0,0,1,0,1c0,0,0,1,0,1c0,0,-1,0,-1,0c0,0,0,1,0,1c0,0,-1,1,-1,1c-1,0,-1,0,-2,0ZM391.5,420.5c1,0,1,-1,1,-1c0,0,1,0,1,0c1,0,1,1,1,1l0,1l-1,0l0,1l1,0l0,1l-1,0l-1,0c-1,1,-1,1,-1,1l-1,0l-1,0l1,0l1,-1l1,-1c-1,0,-1,-1,-1,-1c0,0,0,-1,0,-1ZM393.5,420.5l-1,0l0,1l1,0l0,-1ZM385.5,428.5l-2,-1l0,1l-2,-1l1,-1l1,0l1,-1l2,1ZM384.5,431.5c0,0,-1,0,-1,0l-1,1c0,0,1,0,1,0c0,1,0,1,1,1c0,0,1,0,1,0c0,-1,0,-1,0,-1c0,0,0,-1,0,-1c0,0,-1,0,-1,0ZM379.5,418.5c1,0,1,0,1,0c1,-1,1,-1,2,-1c0,0,1,0,1,1c0,0,1,0,1,0c-1,1,-1,1,-1,1c0,1,0,1,-1,1l-1,0l-1,0l1,0c1,0,1,-1,2,-1c0,0,-1,0,-1,0c0,0,-1,0,-1,0c0,0,-1,0,-1,0l-1,0c0,0,0,-1,0,-1ZM377.5,430.5l-2,-1l0,1l-2,-1l1,-1l2,1l0,-1l2,1ZM374.5,423.5l4,-2l0,1l-4,2ZM370.5,417.5c0,-1,0,-1,0,-1c1,0,1,-1,1,-1c0,0,1,1,1,1l0,1l0,1l0,1l0,1l-1,-1l0,1l-1,0c0,0,-1,1,-1,1l-1,0l1,-1l1,0l0,-1l0,-1l0,-1ZM371.5,417.5c-1,0,-1,0,-1,0l1,0l0,1l0,-1ZM365.5,433.5l-1,0l0,1c1,0,1,0,1,0l1,0c0,0,0,-1,0,-1c-1,0,-1,0,-1,0ZM346.5,434.5l-2,-1l1,-1l2,1ZM359.5,436.5l-1,1l0,1c-1,0,-1,0,-1,0c-1,0,-1,1,-2,1c0,0,-1,0,-1,0c-1,1,-2,1,-3,1c-1,0,-2,0,-3,1c-1,0,-1,0,-2,0c-1,0,-1,0,-2,0c-1,0,-1,0,-2,0c0,0,-1,0,-2,-1c-1,0,-2,0,-2,0c-1,0,-2,0,-3,-1c-1,0,-2,-1,-3,-1c-1,-1,-2,-1,-3,-2l0,-1c1,0,1,0,1,0c0,1,1,1,1,1c1,0,2,1,2,1c1,0,2,0,2,1c0,0,1,0,2,0c0,0,1,0,2,1c0,0,1,0,2,0c0,0,1,0,1,0c1,0,2,0,2,0c1,0,1,0,2,0c1,0,1,0,2,0c1,0,2,0,2,0c2,-1,3,-1,3,-1c1,0,2,-1,3,-1c1,0,2,-1,2,-2c0,0,0,-1,0,-1c0,-1,0,-1,-1,-1c0,-1,0,-1,0,-1l0,-2l1,1c0,0,0,1,0,1c1,0,1,0,1,0c0,1,0,1,0,1c0,1,0,1,0,1c0,1,0,1,0,1c0,1,0,1,0,1ZM337.5,426.5l3,-1l6,-2l4,-1l1,0l0,-1l-1,2l-1,0l-1,1l-2,0l-6,2l-3,2l-1,0ZM361.5,423.5l1,-1l1,0c0,0,1,0,1,0c1,1,1,1,1,1c0,1,-1,1,-1,1c0,1,0,1,0,1c0,0,-1,0,-1,0c-1,0,-1,0,-1,0l-1,0l2,0c0,-1,1,-1,1,-1l-1,0c0,-1,0,-1,0,-1c-1,0,-1,1,-2,1l-1,0c0,0,0,-1,0,-1c1,0,1,0,1,0ZM324.5,429.5l-1,0l-1,0l1,-1l0,1l1,-1ZM325.5,433.5c-1,0,-1,0,-1,1l-1,0l-1,0c-1,0,-1,0,-1,0l-1,0l-1,0c-1,0,-1,0,-1,0c0,1,-1,1,-1,1c0,0,-1,0,-1,0c-1,0,-1,0,-2,-1c0,0,-1,0,-1,0l0,-1c0,-1,0,-1,0,-1c0,0,0,-1,0,-1c0,0,0,1,0,1c0,1,0,1,0,1c0,0,1,0,1,0c0,0,1,1,1,1c1,0,1,0,2,0c1,0,1,0,1,0c0,0,1,-1,1,-1c0,0,0,-1,0,-1c0,-1,0,-1,0,-1c1,0,1,0,1,0l0,-1l1,0l0,1l0,1l0,1l1,0c1,0,1,0,1,0c1,0,1,0,1,0c0,0,1,-1,1,-1c0,0,-1,0,-1,0l-1,0l0,-1c0,-1,0,-1,0,-1l1,0l0,1c1,0,1,0,1,0l0,1c0,0,0,1,0,1ZM323.5,431.5c1,0,1,0,1,0l-1,0ZM320.5,430.5l-1,-1l1,0ZM320.5,431.5l0,1l-1,0l1,0c0,0,0,1,0,1c0,0,1,0,1,-1c0,-1,-1,-1,-1,-1ZM230.5,433.5l-2,0c0,0,-1,0,-2,0c-1,0,-1,0,-1,1l-1,0l-1,0c0,1,-1,1,-1,1c0,0,-1,0,-1,0c-1,1,-2,1,-3,1l-1,0l-1,0c-1,0,-2,0,-2,0c0,-1,-1,-1,-1,-1c0,0,-1,0,-2,1c0,0,-1,0,-2,0l-2,0c0,0,-1,0,-1,-1c-1,0,-1,-1,-1,-2l-1,-8l1,-2l1,9l0,1c0,1,1,1,1,1l2,0c1,0,1,0,1,0c0,0,1,0,1,0l1,0c-1,0,-1,-1,-1,-1l0,-1l1,-1c0,-1,0,-1,0,-1c0,0,1,-1,1,-1c0,0,1,-1,1,-1c1,0,1,1,1,1c1,1,1,1,1,2l0,1c0,0,0,1,-1,1c0,0,0,1,0,1c0,0,1,0,1,0l1,0l1,0l1,0c1,0,1,0,2,0c0,0,1,-1,1,-1l2,0l-1,-1l-1,0l-1,-1c-1,0,-1,0,-1,0l-1,1c0,-1,0,-1,1,-2c1,0,1,0,1,0c1,0,1,0,1,0c0,0,1,0,1,0l2,1l1,0c0,0,1,0,1,0c0,0,1,1,1,1c1,0,1,0,2,0l1,0ZM221.5,423.5l4,-2l0,1l-4,2ZM214.5,427.5l-1,-1l-1,2l-1,-1l1,-2l1,1l1,-1l1,1ZM214.5,430.5c-1,0,-1,1,-1,1c-1,0,-1,0,-1,1c1,0,1,1,1,1c1,0,1,0,1,-1c1,0,1,0,1,0c0,-1,0,-1,0,-1c-1,0,-1,-1,-1,-1ZM266.5,432.5c0,1,-1,1,-2,2c-1,0,-2,1,-3,1c-2,0,-3,1,-4,1c-1,0,-1,0,-1,0c-1,-1,-1,-1,-1,-2c0,0,-1,1,-1,1c0,0,-1,1,-1,1l-1,0c-1,0,-1,0,-1,0c0,0,-1,0,-1,-1l0,-1c-1,0,-1,0,-1,0c0,1,0,1,0,1c0,0,-1,0,-1,0c0,0,-1,1,-1,1l-1,0c-1,0,-1,0,-1,0c-1,-1,-1,-1,-1,-1c0,0,-1,0,-1,-1c0,0,0,-1,0,-1c-1,1,-1,1,-1,1l-1,0c-1,0,-1,0,-2,0l0,-2l1,-1c0,0,1,0,1,-1c1,0,1,-1,1,-1c0,0,0,-1,0,-1l1,0l0,-1l0,2l0,1c0,0,1,0,1,1l0,2c0,1,0,1,0,1c1,0,1,0,1,0c0,0,1,0,1,0c1,0,1,0,1,0c0,0,1,0,1,-1c1,0,1,0,1,0l1,0c0,1,0,1,1,1l1,0c1,0,1,0,1,0c1,0,1,0,1,-1c0,-1,0,-1,0,-1c0,0,0,-1,0,-1l0,-7l1,-2l0,10c0,1,0,1,1,1l0,1c0,0,1,0,1,0l1,0c1,0,2,0,2,0c0,-1,-1,-1,-1,-2l0,-1l0,-1l0,-1c0,0,1,0,1,0c0,-1,0,-1,1,-1c1,-1,1,-1,1,-1c1,0,1,0,1,0c0,1,1,1,1,1c0,0,1,0,1,0l0,1l-1,0l-1,0l-1,0c-1,0,-1,0,-1,0c-1,0,-1,1,-1,1l0,1l1,0c0,1,1,1,2,2l0,-1l1,0l1,0l1,-1l1,0ZM258.5,423.5l4,-2l0,1l-4,2ZM252.5,420.5l4,-3l0,1c-1,0,-1,0,-1,1l-4,2ZM250.5,439.5l-1,-1l-1,1l-1,-1l1,-1l1,1l1,-1l1,1ZM246.5,418.5c0,0,1,-1,1,-1c1,0,1,0,2,0c0,0,1,0,1,0c0,1,0,1,0,1c0,1,0,1,0,1c0,1,-1,1,-1,1l-1,0l-1,0l-1,0l2,0c1,-1,1,-1,2,-1c-1,0,-1,0,-1,-1c0,0,-1,0,-1,0c0,0,-1,0,-1,1c0,0,-1,0,-1,0c0,-1,0,-1,0,-1ZM243.5,430.5l-1,0l0,1l-1,0c0,1,-1,1,-1,1l1,0l1,0l1,0ZM243.5,439.5l-4,2c0,-1,0,-1,1,-1l4,-2ZM306.5,432.5c0,1,0,1,0,1c1,0,1,0,1,0l0,-1l-1,0ZM306.5,439.5c0,1,0,1,0,1c0,0,-1,0,-1,0c0,0,-1,1,-2,1c0,0,-1,-1,-2,-1c0,-1,0,-1,0,-1c0,0,0,1,1,1c0,0,1,0,1,0l1,-1c0,0,1,0,1,0c0,0,1,-1,1,-1c0,0,1,-1,1,-1l0,-1c1,-1,1,-1,1,-1c0,0,0,-1,0,-1c0,0,-1,0,-1,1l-1,0l-1,0l0,-1l0,-1l0,-1c0,0,0,-1,0,-1c1,-1,1,-1,1,-1c0,0,1,0,1,0c1,0,1,0,1,1l0,1c0,0,1,0,1,1l0,1l0,1c0,1,-1,2,-1,3c0,0,-1,0,-1,1l-1,0ZM304.5,426.5l4,-2l-1,1l-4,2ZM300.5,432.5c0,1,-1,1,-2,2c-1,0,-2,1,-3,1c-1,1,-3,1,-3,1l-1,0l-2,0c-1,0,-1,-1,-1,-1l0,-1c-1,0,-1,0,-1,-1l0,1l-1,1c0,0,-1,0,-1,0c-1,1,-1,1,-2,1l-1,0c0,-1,-1,-1,-1,-1l0,-1c0,0,0,-1,0,-1l0,-1c0,1,0,1,0,1c0,0,1,0,1,0l0,1l1,0l1,0l1,0l0,-1l1,0c1,0,1,0,1,0c0,-1,0,-1,0,-2l0,-2l-1,-1l1,0l0,-2l1,2c0,0,0,1,0,2l0,2c0,0,0,1,0,1c0,0,1,1,1,1l1,0l1,0l1,0c1,0,2,0,2,0c0,-1,-1,-1,-1,-2l0,-1l0,-1l0,-1l1,0c0,-1,1,-1,1,-1l1,0c0,-1,0,-1,1,-1l1,0c0,1,0,1,0,1c1,0,1,0,1,0l0,1l1,0l-1,0l-1,0l-1,0l-1,0l-1,0c0,0,-1,1,-1,1l0,1c0,0,1,0,1,0c0,1,1,1,2,2l0,-1l1,0c0,0,1,0,1,0l1,0l0,-1l1,0ZM295.5,420.5c0,0,1,0,1,0c1,0,1,0,1,0c1,0,1,0,2,0l0,1c0,0,0,1,0,1c0,0,-1,0,-1,1c0,0,-1,0,-1,0l-1,0l-1,0l2,-1c1,0,1,0,2,-1c-1,0,-1,0,-1,0c0,0,-1,0,-1,0c0,0,-1,0,-1,0c0,0,-1,0,-1,1l0,-1l0,-1ZM288.5,421.5l-5,3l0,-1l5,-3l0,1ZM283.5,422.5l0,-2l5,-2c0,1,0,1,0,1ZM276.5,436.5l0,-1l0,-2l0,-8l1,-2l0,10c0,1,0,1,0,1l0,1c0,0,0,1,-1,1ZM109.5,432.5c0,1,0,1,0,1c1,0,1,0,1,0l0,-1l-1,0ZM109.5,439.5c0,1,0,1,0,1c0,0,-1,0,-1,0c0,0,-1,1,-2,1c0,0,-1,-1,-2,-1c0,-1,0,-1,0,-1c0,0,0,1,1,1c0,0,1,0,1,0l1,-1c0,0,1,0,1,0c0,0,1,-1,1,-1c0,0,1,-1,1,-1l0,-1c1,-1,1,-1,1,-1c0,0,0,-1,0,-1c0,0,-1,0,-1,1c0,0,-1,0,-1,0l-1,0l0,-1l0,-1l0,-1c0,0,0,-1,0,-1c1,-1,1,-1,1,-1c0,0,1,0,1,0c1,0,1,0,1,1l0,1c0,0,1,0,1,1l0,1l0,1c-1,1,-1,2,-1,3c0,0,-1,0,-1,1l-1,0ZM107.5,426.5l4,-2l-1,1l-4,2ZM103.5,436.5l0,-1l0,-2l-1,-8l1,-2l1,10c0,1,0,1,0,1l0,1c-1,0,-1,1,-1,1ZM95.5,444.5l-4,2c0,-1,0,-1,0,-1l4,-2ZM96.5,418.5l1,0c0,0,1,0,1,0c1,0,1,0,1,0l0,1l0,1l-1,0c0,0,-1,0,-1,0l-1,0l2,0c0,0,1,-1,1,-1l-1,0c-1,0,-1,0,-1,0c-1,0,-1,0,-1,0ZM79.5,424.5l-1,-1l1,-1l1,1ZM81.5,427.5c0,-1,0,-1,0,-1c0,0,1,0,1,0c0,0,0,1,1,1l0,1c0,-1,0,-1,0,-1c0,-1,0,-1,0,-1l0,-1c0,0,-1,0,-1,0c0,-1,0,-1,0,-1l-1,0c0,1,0,1,0,1l0,1c-1,0,-1,1,-1,1c0,0,-1,0,-1,1c0,0,-1,0,-1,1l-1,0c-1,1,-1,1,-1,1c0,0,-1,0,-1,1l-1,1l1,0l1,0l1,0l1,0l1,0l1,1l-1,0l-1,0l-1,1l-1,0l-1,0l-1,0l-1,0l-1,0c0,0,-1,0,-1,0l0,-1c-1,0,-1,0,-1,0l-1,0c-1,1,-1,1,-2,1l-1,0c0,0,-1,0,-1,0l0,-1c-1,0,-1,0,-1,0l0,-1l-1,-10l0,2l0,7l0,1c0,0,0,1,0,1l0,3c0,0,0,1,0,1c0,1,-1,1,-2,1c-1,1,-2,1,-3,1l-1,0c0,0,-1,0,-1,-1c-1,0,-1,-1,-1,-2l0,-1l0,-1l1,0l0,-1l-1,1l0,1c0,0,-1,0,-1,1c0,0,0,1,0,2c0,0,0,1,0,1c0,0,1,1,1,1c0,0,1,1,1,1c1,0,1,0,1,0l1,0c0,0,1,0,1,0c1,0,1,0,2,-1l1,0l0,-1c1,0,1,-1,2,-1c0,-1,0,-1,0,-2l0,-1l0,-1c0,1,0,1,1,1c0,1,0,1,1,1l1,0c1,0,1,-1,2,-1l0,-1c1,0,1,0,1,0c0,1,0,1,0,1l1,0c0,1,0,1,0,1c0,0,1,0,1,0l1,0l1,0l1,0l1,-1l1,0l2,-1c0,0,1,0,1,0l1,0l0,-1c1,0,1,0,1,0l1,0l2,0l1,-1l-1,0c-1,0,-1,0,-1,0c-1,0,-1,0,-1,0c-1,0,-2,-1,-2,-1l-2,-1l-1,0c0,0,1,-1,1,-1c1,-1,1,-1,1,-1c1,-1,1,-1,1,-1ZM78.5,439.5l-2,0l1,-2l1,1ZM82.5,439.5l-4,2c0,0,0,-1,1,-1l4,-2ZM71.5,439.5l-2,-1l0,1l-2,-1l1,-1l1,1l1,-1l2,1ZM61.5,444.5l-4,2c0,-1,0,-1,0,-1l4,-2ZM163.5,436.5l0,-1l0,-2l0,-8l0,-2l1,10c0,1,0,1,0,1l0,1c0,0,-1,1,-1,1ZM155.5,434.5c1,0,1,0,1,0c1,0,1,0,1,0c0,0,1,0,1,0c0,-1,0,-1,0,-1l0,-2l-1,-7c0,-1,0,-1,0,-1c1,-1,1,-1,1,-1c0,0,0,1,0,1c1,0,1,0,1,1l0,1c0,1,0,1,0,2c0,0,0,1,0,3c0,0,0,1,0,1l0,1c0,1,0,1,0,1l0,1c-1,0,-1,1,-1,1l-1,0c0,0,0,1,-1,1l-1,0l-1,0c0,0,-1,0,-1,0c0,0,0,-1,-1,-1l0,-1c0,0,-1,0,-1,0l0,1c-1,0,-1,0,-2,1l-1,0l-1,0c0,0,0,1,0,1c-1,0,-1,1,-1,1c0,0,0,1,-1,1c0,0,0,1,-1,1l0,1c0,0,-1,0,-1,0l-1,0l-1,0c0,0,-1,0,-2,0c0,0,0,-1,0,-1l1,0c1,0,1,0,2,0l1,-1l1,0c0,0,0,-1,0,-1c1,0,1,-1,1,-1l1,-1c0,0,-1,0,-1,0c0,0,-1,0,-1,0c0,0,0,-1,0,-1c-1,0,-1,0,-1,0c0,0,0,-1,0,-1c0,-1,0,-1,0,-1c0,-1,0,-1,1,-1c0,0,0,-1,0,-1l1,0l1,0l0,1c1,1,1,1,1,1c0,0,0,1,0,1c0,0,1,0,1,0c1,0,1,0,1,0c1,0,1,0,2,-1c0,0,1,0,1,0c0,1,1,1,1,1c0,0,1,0,1,0l1,0ZM152.5,431.5l-1,-1l-1,1l-1,-1l1,-1l1,0l1,-1l1,1ZM149.5,424.5l0,1c1,0,1,0,1,0c0,0,0,-1,0,-1l0,-1l1,0l0,1c1,0,1,0,1,-1l0,-1l0,1l0,1c0,1,0,1,0,1l-1,0l-1,0c0,1,0,1,-1,1c0,-1,0,-1,0,-1l0,-1ZM153.5,421.5l-5,2c0,0,0,-1,1,-1l5,-3ZM145.5,433.5c0,0,-1,0,-1,0c0,0,0,1,0,1l1,0l1,0c0,-1,-1,-1,-1,-1ZM140.5,425.5c0,0,1,0,1,0c1,-1,1,-1,2,-1c0,0,1,0,1,1c0,1,0,1,0,1c0,1,-1,1,-1,1l-1,0l-1,0l-1,0l2,0c1,0,1,-1,2,-1c-1,0,-1,0,-1,0c0,0,-1,0,-1,0c0,0,-1,0,-1,0c0,0,-1,0,-1,0c0,0,0,-1,0,-1ZM131.5,439.5l1,0c1,0,2,0,3,-1c0,0,1,0,1,-1c1,0,1,-1,1,-1c1,-1,1,-1,1,-1c0,-1,0,-1,0,-1l0,-1l-1,0l0,-1l0,-1l0,-1l1,1l0,1l1,1l0,1c0,0,0,1,0,1c-1,1,-1,1,-1,1c0,0,0,1,0,1c0,0,0,1,-1,1l0,1c0,0,-1,0,-1,0l-1,1l-1,0l-1,0c-1,0,-1,0,-1,0c0,0,-1,-1,-1,-1ZM128.5,436.5l-1,0l-1,0l-1,0c0,-1,0,-1,-1,-1l0,-1c0,0,0,-1,0,-1l-1,0c0,1,0,1,0,1c0,0,-1,0,-1,0l-1,0c0,0,-1,0,-1,0l-1,0l0,-2c0,0,1,0,1,-1c1,0,1,0,2,-1c1,0,1,-1,1,-1c0,0,0,-1,0,-1l0,-1l1,2l0,1l0,1l0,2c0,0,1,0,1,0c0,1,0,1,0,1l1,0l1,0l1,0c0,0,1,0,1,0c1,0,1,0,1,-1c0,0,0,-1,0,-1c0,0,0,-1,-1,-1l1,-2c0,1,0,1,1,1c0,1,0,1,0,1l0,1l0,1l0,1l-1,1l-1,1c0,0,-1,0,-1,0ZM123.5,427.5l-2,-1l-1,1l-1,-1l1,-1l1,1l1,-2l2,1ZM123.5,430.5l0,1l-1,0l-1,0c0,1,0,1,0,1l1,0c0,0,1,0,1,0ZM124.5,439.5l-4,2c0,-1,0,-1,0,-1l4,-2ZM192.5,426.5l-1,0l1,-2l1,1ZM194.5,432.5c0,0,0,1,0,1l-1,0l-1,0c-1,0,-1,0,-1,0c0,-1,0,-1,0,-2l0,-1c0,-1,0,-1,1,-1c0,-1,0,-1,1,-1c0,0,1,0,1,1l1,1l0,1c0,1,0,1,0,1c0,1,0,1,0,1l0,1l0,1c0,0,-1,1,-1,1c0,0,1,0,1,0c1,0,1,0,1,1c0,0,0,1,0,1l0,1c-1,0,-1,0,-1,0l-1,1c0,0,-1,0,-2,1c-1,0,-1,0,-2,0c-1,0,-1,1,-1,1c-1,0,-1,0,-2,0c-1,0,-1,0,-2,0c0,0,-1,0,-1,0l-1,0c0,0,-1,0,-1,0c-1,0,-2,0,-3,0c-1,0,-1,0,-3,0c0,0,-1,-1,-2,-1c0,0,-1,0,-1,0c-1,-1,-2,-1,-2,-1c-1,0,-1,-1,-2,-1c0,0,0,-1,-1,-1c0,0,0,-1,0,-1c0,0,1,0,1,0c0,1,1,1,1,1c1,0,1,1,2,1c0,0,1,0,1,0c0,0,1,0,2,1c0,0,1,0,2,0c1,0,2,0,2,0c1,0,2,1,3,1c0,0,1,0,1,0c0,0,1,0,1,0c1,0,1,-1,2,-1c0,0,1,0,1,0c1,0,2,0,2,0c1,0,1,0,2,-1c1,0,1,0,2,0l1,0c0,-1,0,-1,1,-1c-1,0,-1,-1,-2,-1c0,0,-1,0,-1,0l0,-1c0,0,0,-1,0,-1c0,0,1,0,1,0c1,0,1,0,1,-1l1,0c0,-1,-1,-1,-1,-1c0,0,0,-1,0,-1ZM192.5,430.5c0,1,0,1,0,1l1,0l0,-1l-1,0ZM196.5,442.5l-4,2c0,-1,0,-1,0,-1l4,-2ZM211.5,418.5l0,1c0,0,1,-1,1,-1l0,-1l0,1c1,0,1,0,1,0l0,-1l1,0l0,-1l0,1l0,1l0,1c0,0,-1,0,-1,0c-1,0,-1,0,-1,0l0,1c-1,0,-1,0,-1,0c0,0,-1,0,-1,0l0,-1l0,-1ZM209.5,417.5l5,-3c0,1,0,1,0,1l-5,3ZM211.5,414.5l5,-3c0,1,0,1,-1,1l-4,3ZM135.5,426.5l0,-1c0,0,0,-1,0,-1c0,-1,0,-2,-1,-2l1,0l0,-1c0,0,0,1,1,1c0,0,0,1,0,1l0,1l0,1c0,0,-1,1,-1,1ZM97.5,437.5l-1,0c0,0,-1,0,-1,0c0,0,-1,0,-2,0c0,0,-1,1,-1,1c0,0,0,-1,0,-1c0,0,0,-1,0,-1c0,0,1,0,1,0c1,0,1,-1,1,-1l1,0c0,-1,0,-1,0,-1l1,0c0,-1,-1,-1,-1,-1c0,-1,0,-1,-1,-1c0,-1,-1,-1,-1,-2c0,0,-1,-1,-1,-1c-1,0,-1,-1,-1,-1c0,0,-1,0,-1,0l-1,0c0,-1,-1,-1,-1,-2l0,-1l0,-1l1,0c0,0,0,1,1,1c0,0,1,1,1,1c1,1,2,2,2,2c1,1,1,2,2,2c0,1,0,1,1,2l1,-1c0,0,0,-1,0,-2c0,0,0,-1,0,-1c0,-1,0,-1,0,-2c0,0,0,-1,0,-1l0,-1c0,0,0,-1,0,-1c0,0,0,-1,1,-1l0,1l0,1c0,0,1,0,1,0c0,0,0,1,0,1c-1,0,-1,0,-1,1c0,1,0,1,0,2c0,0,0,1,0,1c0,0,0,1,0,1c0,1,-1,1,-1,2c0,1,0,1,0,1c0,0,0,1,0,1c0,0,0,1,0,1l0,1l0,1ZM96.5,434.5l0,1l-1,0c0,0,0,1,0,1l1,0l1,-1l-1,0ZM77.5,414.5c0,0,1,0,1,0c0,0,1,0,1,0c1,0,1,0,2,0l0,1l0,1c-1,0,-1,0,-1,0c-1,0,-1,1,-1,1c0,0,-1,0,-1,0c0,0,-1,0,-1,0l2,-1c1,0,1,0,1,-1c-1,0,-1,0,-1,0c-1,0,-1,0,-1,0c-1,0,-1,0,-1,0c0,0,0,-1,0,-1ZM65.5,422.5c0,0,1,0,1,0c0,0,1,0,1,0c1,0,1,0,2,0c0,1,0,1,0,1l0,1c-1,0,-1,0,-1,0c0,0,-1,0,-1,1l-1,0l-1,0l2,-1c1,0,1,0,2,-1c-1,0,-1,0,-1,0c-1,0,-1,0,-1,0c0,0,-1,0,-1,0c-1,0,-1,0,-1,0c0,-1,0,-1,0,-1ZM101.5,380.5l-1,-1l1,-2l1,1ZM104.5,387.5l0,1c-1,0,-1,0,-1,1c0,0,-1,0,-2,0c0,0,-1,0,-1,0l-1,0c-1,0,-1,0,-1,0c-1,0,-1,0,-1,0c0,0,0,-1,-1,-1c0,0,0,1,-1,1c0,0,-1,0,-1,0l-1,0l-1,0l-1,0c-1,0,-1,0,-2,0l-1,0c0,0,-1,0,-1,0c-1,0,-2,0,-2,0l-1,0l-1,0c0,0,-1,0,-1,0l-1,0l0,-1l-1,0c-1,1,-1,1,-2,1l-1,0c0,0,-1,0,-1,0c0,0,-1,-1,-1,-2c0,1,0,1,-1,2l-1,0l-2,0c0,1,0,1,0,1c0,1,0,1,0,2c-1,0,-1,0,-1,1c0,0,-1,0,-1,1l-1,0l0,1c-1,0,-1,0,-1,0c0,0,-1,0,-1,0c-1,0,-1,0,-2,-1l-1,0c1,0,1,0,1,0c0,0,1,0,1,0c0,0,1,0,1,0c1,-1,1,-1,1,-1c1,0,1,0,1,-1c1,0,1,0,1,0c0,-1,0,-1,1,-1c0,0,0,-1,0,-1c0,0,0,-1,0,-1c0,0,-1,0,-1,0c0,0,-1,0,-1,0l0,-1c-1,0,-1,0,-1,0c0,-1,1,-1,1,-1c0,0,0,-1,0,-1c0,-1,0,-1,0,-1c0,0,1,0,1,0c0,0,0,-1,1,-1c0,0,0,1,0,1c0,0,1,0,1,0c0,0,0,1,0,1l0,1l0,1c1,0,1,0,2,0c1,-1,1,-1,2,-1c0,0,0,-1,0,-1c0,-1,0,-1,0,-1c0,0,0,-1,0,-1l-1,-7l1,-2l1,11c0,0,0,1,0,1c0,0,1,0,1,1c1,0,1,0,2,0c0,0,0,-1,1,-1c1,0,1,0,1,0l0,-1c0,0,0,1,0,1l1,0c0,1,1,1,1,1l1,0l1,0c1,0,1,0,1,0c0,-1,1,-1,1,-1l0,-1c0,0,0,-1,0,-1c0,-1,0,-1,1,-1c0,-1,0,-1,0,-1c1,-1,1,-1,2,-1c0,0,1,0,1,1c0,0,0,1,0,1l0,1c0,1,0,1,0,1c0,1,-1,1,-1,1l1,1c0,0,1,0,1,0l1,0l1,0l1,0c0,-1,0,-1,1,-1c0,-1,0,-1,0,-1l1,0c0,0,0,1,0,1c1,1,1,1,2,1l1,0c0,0,1,0,1,-1c1,0,2,0,2,0c0,0,0,-1,0,-1c0,0,1,0,1,0c0,0,-1,0,-1,-1c0,0,0,1,0,1c-1,0,-1,0,-1,0l-1,0c-1,0,-1,0,-1,0c0,-1,0,-1,0,-1l0,-1l0,-1l0,-1c0,0,1,0,1,0c0,-1,0,-1,1,-1c0,0,1,0,1,0c0,0,0,1,0,1l1,1l0,1c0,1,0,1,0,2c0,0,0,1,0,1ZM101.5,383.5l0,1l1,0l1,0c-1,0,-1,-1,-1,-1l-1,0ZM100.5,373.5l4,-2l0,1l-5,2ZM98.5,393.5l-2,-1l-1,1l-1,-1l1,-1l1,0l1,-1l1,1ZM94.5,380.5l5,-3l-1,1l0,1l-4,2ZM90.5,381.5l-2,-1l0,1l-2,-1l1,-1l1,1l1,-1l2,0ZM89.5,384.5c0,0,-1,0,-1,0c0,1,0,1,-1,1c0,0,1,1,1,1l1,0c0,0,1,0,1,0l0,-1l0,-1c0,0,-1,0,-1,0ZM84.5,371.5c1,0,1,0,1,0c1,0,1,0,2,0c0,0,1,0,1,0c0,0,1,0,1,1c-1,0,-1,1,-1,1l-1,0l0,1c-1,0,-1,0,-1,0l-1,0l1,-1c1,0,1,0,2,-1c0,0,-1,0,-1,0l-1,0c0,0,-1,0,-1,0l-1,0c0,0,0,-1,0,-1ZM82.5,384.5l-2,-1l-1,2l-1,-1l1,-2l1,1l1,-1l1,1ZM79.5,373.5c1,-1,1,-1,1,-1c0,0,1,0,1,0c0,1,0,1,0,1c0,1,0,1,0,1l0,1l0,2l-1,-1l-1,1c0,0,-1,1,-1,1l-1,0l0,-1l1,0l1,-1l0,-1l0,-1l0,-1ZM80.5,374.5l0,-1c-1,0,-1,0,-1,1l1,0l0,1l0,-1ZM74.5,370.5c0,0,1,0,1,-1l1,0c0,0,0,1,0,1l0,1l0,1l1,0l-1,1l-1,0c-1,1,-1,1,-1,1l-1,0l-1,0l1,0l0,-1c1,0,1,0,1,0l1,-1l-1,0c0,0,0,-1,0,-1c0,0,0,-1,0,-1ZM75.5,370.5l0,1l1,0l-1,0l0,-1ZM69.5,386.5l0,1c-1,0,-1,0,-1,0l1,0c0,1,1,1,1,1c0,-1,0,-1,0,-1l0,-1c0,0,-1,0,-1,0ZM58.5,383.5l-1,-1l0,-1l2,1ZM58.5,393.5c-1,0,-1,-1,-2,-1c0,0,-1,0,-1,0c-1,-1,-1,-1,-1,-2c0,0,-1,-1,-1,-1c0,-1,0,-1,0,-1c0,0,1,0,1,-1c0,-1,0,-1,0,-1c0,-1,0,-1,0,-1c1,0,1,0,1,0c0,0,0,1,0,1l-1,1c0,0,0,1,0,1c0,0,0,1,1,1c0,0,0,1,0,1c0,0,1,0,1,0c1,0,1,1,2,1c1,0,2,-1,2,-1c1,0,1,0,2,-1c0,-1,0,-1,0,-1l0,-1l0,-1c0,-1,0,-1,0,-1c0,-1,-1,-1,-1,-1l1,-2c0,1,0,1,0,1l1,0c0,1,0,1,0,1c0,1,0,1,0,1c0,1,0,1,0,1l0,1c0,1,0,2,0,2c0,1,-1,1,-1,2c-1,0,-1,1,-2,1c-1,0,-2,1,-2,1ZM54.5,376.5l4,-2l0,1l-4,2ZM128.5,389.5l0,-1l0,-1l0,-8l1,-3l0,11c0,1,0,1,0,1c0,1,0,1,-1,1ZM124.5,389.5c0,0,-1,0,-1,0c0,0,-1,0,-1,-1c-1,0,-1,0,-1,-1c0,0,0,1,-1,1c0,1,-1,1,-2,1c0,0,-1,0,-1,0c0,-1,-1,-2,-1,-3l0,1c0,0,0,1,-1,1c0,0,-1,0,-1,0c-1,0,-1,0,-2,0c0,-1,0,-1,0,-1c0,0,0,-1,0,-1c0,0,1,-1,1,-1c0,0,1,-1,1,-1l1,0l1,-1l0,-1c0,0,0,-1,0,-1l1,1l0,1l0,3c0,1,0,1,0,1c1,0,1,0,2,0l1,0c0,0,0,-1,0,-1c0,-1,0,-1,0,-2c0,-1,0,-1,0,-2l0,-1l0,-1l1,-1l0,2l0,2l0,2c0,0,1,0,1,0c0,1,0,1,0,1c0,0,0,1,1,1l1,0c0,0,0,-1,1,-1c0,0,-1,-1,-1,-1l0,-2l0,-1l-1,-1c0,0,1,0,1,-1l0,-1c0,1,0,1,0,2l1,1l0,2c0,0,0,1,0,1c0,1,0,2,0,2c0,1,0,1,-1,1c0,1,0,1,0,1ZM116.5,384.5l-1,1c0,0,-1,0,-1,0c0,1,-1,1,-1,1c1,0,2,0,2,0c1,0,1,0,1,0ZM118.5,375.5l0,1l0,1l1,0c0,0,0,-1,0,-1l1,-1l0,1c1,0,1,0,1,0l1,-1l0,-1l0,1l0,1l0,1l-1,0l-1,0l0,1c-1,0,-1,0,-2,0l0,-1l0,-1ZM116.5,392.5l-4,3c0,-1,0,-1,0,-2l5,-2ZM165.5,388.5l-1,0c0,1,0,1,-1,1l-1,0l-1,0c-1,0,-1,0,-1,0l-1,-1c0,0,0,1,-1,1l-1,0l-1,0l-1,0c-1,0,-1,0,-1,0c0,0,0,-1,-1,-1c-1,0,-1,0,-1,0c0,1,-1,1,-1,1c0,0,-1,0,-1,0l-1,0c0,0,-1,0,-1,0c0,0,0,-1,-1,-2l0,2l0,1c0,0,0,1,0,1c0,1,-1,2,-1,2c0,0,-1,0,-1,0c0,1,-1,1,-1,1c0,0,-1,0,-1,0c-1,0,-1,0,-2,0l-1,0c-1,0,-1,0,-2,-1l0,-1c-1,0,-1,0,-1,-1c0,0,0,-1,1,-2c0,0,0,-1,0,-1l1,-1l0,1c0,0,-1,1,-1,1c0,0,0,1,0,1c0,1,0,1,1,2c0,0,1,0,2,0c0,1,0,1,1,1c1,0,2,-1,2,-1c1,0,2,-1,2,-1c0,0,1,-1,1,-1l0,-1l0,-2c0,0,0,-1,-1,-2l0,-1l0,-7l1,-2l1,11l0,1l1,0c0,1,0,1,0,1l1,0c0,0,1,0,1,0c0,0,1,-1,1,-1c0,0,1,0,1,0c0,-1,0,-1,1,-1c0,0,0,1,0,1c1,1,1,1,1,1l1,0l1,0l1,0c0,-1,0,-1,0,-1c1,0,1,0,1,0c0,-1,0,-1,0,-1l1,0c0,0,0,1,0,1c1,1,1,1,2,1l1,0l1,-1l1,0c0,0,0,-1,0,-1l1,0l0,1l0,1l1,0c0,0,1,0,1,-1c1,0,1,0,1,0l0,-1l0,-1l1,0l0,1l0,1l1,0l1,1l0,-1l0,-1l0,-1l1,1l0,1c0,1,0,1,0,1c-1,1,-1,1,-1,1l-1,0c-1,0,-1,0,-1,0l-1,-1l0,1c-1,0,-1,0,-1,0l-1,0c-1,0,-1,0,-1,0c-1,0,-1,0,-1,0c0,0,0,-1,0,-1ZM165.5,376.5l5,-2l-1,1l-4,2ZM159.5,393.5l-2,-1l1,-1l2,1ZM159.5,395.5l-4,2c0,0,0,-1,1,-1l3,-2ZM154.5,393.5l-1,-1l-1,1l-1,-1l0,-1l2,0l1,-1l1,1ZM144.5,397.5l-4,2c0,0,0,-1,1,-1l4,-2ZM186.5,380.5l-1,-1l1,-1l1,1ZM188.5,386.5c0,0,-1,0,-1,0l0,1c0,0,-1,0,-1,0c0,0,-1,0,-1,0l0,-1c0,0,-1,-1,-1,-1c0,0,0,-1,1,-1l0,-1l0,-1c1,0,1,-1,2,-1c0,0,0,1,1,1c0,1,0,1,0,2l1,0l0,1c0,0,0,1,0,1c0,0,0,1,0,1c0,1,0,1,0,1c-1,1,-1,1,-1,1c0,1,0,1,0,1c1,0,1,0,1,0l1,0c0,1,0,1,0,1c0,0,-1,1,-1,1c0,1,0,1,0,1c-1,0,-1,0,-2,1c0,0,-1,1,-2,1c-1,0,-2,0,-2,0c-1,0,-1,0,-1,0c0,0,-1,0,-1,0c-1,0,-2,-1,-2,-1c0,0,-1,-1,-1,-1c0,0,0,-1,0,-1c0,-1,0,-1,0,-1c0,0,0,-1,0,-2c0,0,1,-1,1,-2l1,0c0,0,0,1,0,1c-1,0,-1,1,-1,1c0,1,0,1,0,1c0,1,0,1,0,1c0,1,0,1,1,2c0,0,1,0,2,0c0,0,1,0,1,0c1,0,1,0,1,0c1,0,1,0,1,0c1,0,2,0,2,-1c1,0,1,0,1,-1c0,0,-1,0,-1,0c-1,0,-1,0,-1,0c0,0,-1,-1,-1,-1l0,-1c0,0,1,0,1,0c0,0,1,0,1,-1c0,0,1,0,1,0l0,-1l0,-1ZM185.5,384.5l1,0c0,0,0,1,0,1c0,0,1,0,1,0l0,-1l-1,0l0,-1l0,1ZM189.5,395.5l-4,2c1,0,1,-1,1,-1l4,-2ZM260.5,392.5l-1,0l-1,1l-1,-1l0,-2l2,1l1,-1l1,1ZM257.5,389.5l-1,0l-1,0l-1,0c-1,0,-1,0,-2,0l-1,0c0,0,-1,0,-1,0c-1,0,-1,0,-2,0l-1,0c-1,0,-1,0,-1,0l-1,0l0,-1l-1,0c-1,0,-1,0,-1,0c0,1,-1,1,-1,1l-1,0c-1,0,-1,0,-1,0c-1,0,-1,-1,-1,-2c-1,1,-1,1,-1,2c-1,0,-1,0,-1,0l-1,0l-1,0c0,1,0,1,0,1c0,1,-1,1,-1,2l-1,1l0,1c-1,0,-1,0,-1,0c0,0,-1,0,-1,1l-1,0l-1,0c0,0,-1,0,-1,-1c-1,0,-1,0,-1,0l1,0c1,0,1,0,2,0c0,-1,1,-1,1,-1c0,0,1,0,1,-1l1,0c0,-1,0,-1,0,-1c0,0,1,-1,1,-1c0,0,0,-1,0,-1c-1,0,-1,0,-1,0c0,0,-1,0,-1,0c-1,0,-1,0,-1,-1c0,-1,0,-1,0,-1c0,0,0,-1,0,-1c0,0,1,0,1,0c0,-1,0,-1,0,-1l1,0c0,0,0,-1,0,-1c0,0,1,1,1,1c0,0,0,1,1,1l0,1l0,1c1,0,1,0,1,0c1,0,1,0,1,0c1,-1,1,-1,1,-1c0,0,0,-1,0,-1c0,-1,0,-1,0,-1c0,0,0,-1,0,-1l0,-7l1,-2l0,11c0,0,0,1,0,1c0,0,1,0,1,0l0,1c0,0,1,0,1,0c1,0,1,0,1,0c0,0,1,-1,1,-1l1,0l1,-1c0,0,0,1,0,1l1,0c0,1,0,1,1,1l1,0c1,0,1,0,1,0c0,-1,1,-1,1,-1l0,-1l-1,0c0,0,1,-1,1,-1c0,-1,0,-1,0,-1c1,-1,1,-1,1,-1c1,-1,1,-1,2,-1l1,1c0,0,0,1,0,1l0,1c0,1,0,1,0,1c0,1,-1,1,-1,1l1,1c0,0,1,0,1,0l1,0l1,0c1,0,1,0,2,-1c0,0,1,0,1,0c0,-1,0,-1,0,-1c0,-1,-1,-1,-1,-1l1,-2l0,1c0,0,1,1,1,1c0,0,0,1,0,1l0,1c0,0,-1,0,-1,1c0,1,-1,1,-1,1c-1,0,-1,0,-2,0ZM259.5,373.5c1,0,1,0,1,0c0,-1,1,-1,1,-1c1,1,1,1,1,1c0,1,0,1,0,1l-1,0l0,1l1,0l0,2l-1,-1l-1,0l0,1c-1,0,-1,1,-1,1l-1,0l-1,0l1,-1l1,0l0,-1l1,0l0,-1l-1,0l0,-1l0,-1ZM261.5,374.5l-1,-1l0,1l1,1l0,-1ZM253.5,381.5l-2,-1l-1,1l-1,-1l1,-1l1,1l1,-1l2,0ZM252.5,384.5c0,0,-1,0,-1,0c0,1,-1,1,-1,1c0,0,0,1,1,1l1,0l1,0l0,-1l0,-1c0,0,-1,0,-1,0ZM245.5,384.5l-1,-1l-1,2l-2,-1l1,-2l2,1l1,-1l1,1ZM246.5,392.5l-4,3c0,-1,0,-1,0,-2l4,-2ZM238.5,370.5l0,-1c1,0,1,0,1,0c0,0,1,0,1,0c0,0,0,1,0,1l0,1l0,1l0,1l-1,0l-1,0c0,1,-1,1,-1,1l-1,0l1,-1l1,0l0,-1c0,0,0,-1,0,-1c0,0,0,-1,0,-1ZM239.5,370.5c-1,0,-1,0,-1,0l0,1l1,0l0,-1ZM233.5,386.5l-1,0l0,1l1,0c0,1,0,1,0,1c1,0,1,0,1,0c0,-1,0,-1,0,-1c-1,0,-1,0,-1,-1ZM213.5,388.5l-1,-1l1,-2l1,1ZM226.5,390.5c0,0,0,1,-1,1l-1,1c0,0,-1,0,-1,0c0,0,-1,1,-1,1c-1,0,-2,0,-3,1c-1,0,-2,0,-3,0c-1,0,-2,0,-2,0c-1,0,-2,0,-2,0c-1,0,-2,0,-2,0c-1,0,-1,0,-2,0c-1,0,-2,0,-3,-1c0,0,-1,0,-2,0c-1,-1,-2,-1,-3,-2c-1,0,-2,-1,-3,-2l0,-1c0,1,1,1,1,1l1,1c1,0,1,0,2,0c1,1,1,1,2,1c0,0,1,0,1,1c1,0,2,0,2,0c1,0,2,0,2,0c1,0,1,0,2,0c1,0,1,0,2,0c0,0,1,0,2,0c0,0,1,0,2,0c1,0,1,0,2,0c1,0,2,0,3,-1c1,0,2,0,2,0c2,-1,3,-2,3,-2c0,-1,0,-1,0,-1c0,0,0,-1,0,-1l-1,0c0,0,0,-1,0,-1c0,-1,-1,-1,-1,-1l1,-1l1,1c0,1,0,1,0,1c0,0,1,0,1,0c0,0,0,1,0,1c0,0,0,1,0,1c-1,1,-1,1,-1,2ZM205.5,380.5l3,-1l5,-2l5,-2l1,0l-1,1l-1,0l0,1l-2,0l-1,1l-6,2l-4,1ZM314.5,389.5l0,-1l0,-1l0,-8l1,-3l0,11c0,1,0,1,0,1c0,1,0,1,-1,1ZM307.5,388.5l1,0l1,-1l0,-1l0,-2l0,-6c0,0,0,-1,0,-1l0,-1l1,0l0,1l1,0c0,0,0,1,-1,1c0,0,0,1,0,1c0,0,0,1,0,2c0,0,0,1,0,2c0,1,0,1,0,2l0,1l0,1l0,1c-1,0,-1,0,-1,1c0,0,-1,0,-1,0c0,0,-1,0,-1,0l-3,0c-1,0,-1,0,-2,0c0,-1,-1,-1,-1,-1l0,-1l1,0l0,-1l-1,0l0,1c-1,0,-1,0,-1,0l-5,2l-1,0c0,0,-1,0,-1,0l-1,0c-1,0,-1,0,-1,0c-1,0,-1,0,-1,0c0,0,0,-1,0,-1c-1,0,-1,1,-2,1l-1,0l-1,0c0,0,-1,0,-1,0c0,0,-1,0,-1,0c0,-1,0,-1,0,-1c0,-1,0,-1,-1,-2l0,1c0,0,-1,1,-1,1l-1,0c0,0,-1,0,-1,0l-1,0l0,-2c0,0,1,-1,1,-1c1,0,1,-1,2,-1c1,-1,1,-1,1,-1l0,-1l0,-1l1,1c0,0,0,1,0,1c0,0,0,1,0,1l0,2c0,1,0,1,1,1c0,0,0,1,1,1l1,0l1,0c0,-1,0,-1,1,-1c0,-1,0,-1,1,-1c0,0,0,1,0,1l1,0c0,1,0,1,1,1l1,0l1,0c0,0,0,-1,1,-1c0,0,1,0,1,0l1,-1l1,0l1,0l-1,0l-1,-1c-1,0,-2,0,-2,0c-1,0,-1,0,-1,0l-1,0l0,-1c0,0,1,0,1,-1c0,0,1,0,1,0l1,0c1,0,1,0,2,1c0,0,1,0,3,1c0,0,1,0,2,0c0,0,1,0,1,0l1,0l-1,2l-1,0l-1,-1c0,1,0,1,1,1c0,1,1,1,1,1l1,0l1,0l1,0ZM307.5,371.5l1,0c0,0,1,0,1,0c1,0,1,0,2,0l0,1c0,0,0,1,-1,1l0,1c-1,0,-1,0,-1,0c0,0,-1,0,-1,0c0,0,-1,0,-1,0l2,-1c0,0,1,0,1,-1c-1,0,-1,0,-1,0c-1,0,-1,0,-2,0c0,0,0,-1,0,-1ZM297.5,393.5l-1,-1l1,-1l1,1ZM295.5,376.5l5,-2l-1,1l-4,2ZM289.5,385.5l-2,-1l1,-2l2,1ZM288.5,375.5l0,1c0,0,1,0,1,0l0,-1l1,-1l0,1c1,0,1,0,1,0l0,-1l0,1l0,1l-1,0l-1,1c-1,0,-1,0,-1,0l0,-1l0,-1ZM292.5,372.5l-5,3c0,-1,0,-1,0,-2l6,-2ZM283.5,380.5l-2,-1l-1,2l-1,-1l1,-2l1,1l1,-1l1,1ZM283.5,384.5l-1,1l-1,0c0,0,0,1,0,1l1,0l1,0l0,-1ZM280.5,373.5l4,-2l0,1l-4,2ZM344.5,388.5c0,0,1,0,1,0c0,0,1,0,1,-1c1,0,1,0,1,-1l0,-2l-1,-6c0,0,0,-1,0,-1l0,-1l1,0l0,1c0,0,1,0,1,0c0,0,0,1,0,1c0,0,-1,1,-1,1c0,0,0,1,0,2c0,0,0,1,0,2c0,1,1,1,1,2l0,1l-1,1l0,1l0,1c-1,0,-1,0,-1,0c0,0,-1,0,-1,0l-1,0l-1,0l-1,0l-1,0l0,1c1,0,1,0,1,1c0,1,0,2,-1,2c0,1,0,1,-1,1c0,0,-1,0,-1,0c0,0,-1,-1,-1,-1c0,-1,-1,-2,-1,-3l0,-1c-1,0,-1,0,-1,0l-1,0c-1,0,-1,0,-2,0l0,-1c-1,1,-1,1,-1,2l-1,0l-1,0c-1,-1,-1,-1,-1,-1l-1,0l0,1c0,0,-1,1,-1,1c-1,0,-1,1,-2,1c-1,0,-3,0,-4,0l4,-2l2,-1c0,0,1,0,1,-1l1,-1c0,-1,0,-1,1,-2l1,0c0,0,1,0,1,1c1,1,1,1,1,1c1,0,1,0,1,1c0,0,1,0,1,0l1,0l1,0l1,-1c0,0,0,-1,0,-1l0,-1c1,0,1,0,1,0l0,-1c1,-1,1,-2,2,-2l1,1l0,1l0,1c0,0,-1,1,-1,1c0,1,-1,1,-2,2l2,0l1,0l1,0l1,0ZM345.5,373.5l4,-2l0,1l-4,2ZM340.5,384.5c0,1,-1,1,-1,1l0,1l-1,1c1,0,2,0,2,-1c1,0,1,0,1,-1c0,-1,0,-1,-1,-1ZM338.5,390.5l0,1c0,0,1,1,1,1l1,0c0,1,0,1,0,1c1,0,1,-1,1,-1c0,-1,0,-1,-1,-2c0,0,-1,0,-2,0ZM340.5,373.5c1,-1,1,-1,1,-1l1,0c0,1,0,1,0,1c0,1,0,1,0,1l0,1l-1,0l1,0l0,2l-1,-1l-1,1c0,0,-1,1,-1,1l-1,0l0,-1l1,0l0,-1l1,0l0,-1l0,-1l0,-1ZM341.5,374.5l0,-1l-1,0l0,1l1,0l0,1l0,-1ZM331.5,388.5l0,-1c0,0,0,-1,-1,-1c0,0,0,1,0,1l-1,0c0,0,1,0,1,1l1,0ZM328.5,377.5c0,0,0,-1,1,-1l1,0l0,1l0,1l0,1l0,1l-1,-1l0,1l-1,0c0,1,0,1,-1,1l-1,0l1,0l0,-1c0,0,1,0,1,0l1,-1l-1,0c0,-1,0,-1,0,-1c0,-1,0,-1,0,-1ZM329.5,377.5l0,1l0,-1ZM249.5,374.5c0,-1,0,-1,0,-2c0,0,0,-1,0,-1l0,-1c0,0,1,0,1,1l0,1l0,1l0,1l-1,0ZM120.5,373.5l0,-1c0,0,0,-1,0,-1c-1,-1,-1,-2,-1,-2l0,-1l1,0l0,1c0,0,0,1,0,1l0,1c0,1,0,1,0,1l0,1ZM230.5,379.5l1,-1c0,0,1,0,1,0c1,0,1,0,1,1c1,0,1,0,1,0c0,1,0,1,-1,1c0,1,0,1,0,1c0,0,-1,0,-1,0c0,0,-1,0,-1,0l-1,0l2,0c0,-1,1,-1,1,-1l-1,0c-1,0,-1,0,-2,0c0,0,0,-1,0,-1ZM177.5,378.5l1,0c0,0,1,0,1,0c0,0,1,0,1,0c1,0,1,0,1,1c0,0,0,1,-1,1c0,1,-1,1,-1,1c-1,0,-1,0,-1,0l-1,0l2,-1c0,0,1,0,1,-1l-1,0c-1,0,-1,0,-2,0l-1,1l0,-1l1,0l0,-1ZM149.5,379.5c0,0,1,0,1,0c1,0,1,0,2,0c0,0,1,0,1,0c0,0,1,0,1,1c0,0,-1,0,-1,0c0,0,0,1,0,1c0,0,-1,0,-1,0l0,1l-1,0l-1,0l-1,0l2,-1c1,0,1,0,2,-1c-1,0,-1,0,-1,0c0,0,-1,0,-1,0c0,0,-1,0,-1,0c0,0,-1,0,-1,0c0,0,0,-1,0,-1ZM65.5,377.5c0,0,1,0,1,0c1,0,1,0,2,0c0,0,1,0,1,0c0,0,0,1,0,1l0,1c0,0,-1,0,-1,0l-1,0c0,0,0,1,-1,1c0,0,0,-1,-1,-1l2,0c1,0,1,-1,2,-1c-1,0,-1,0,-1,0c0,0,-1,0,-1,0c0,0,-1,0,-1,0c0,0,-1,0,-1,0c0,-1,0,-1,0,-1ZM268.5,384.5l0,-1l1,0c0,0,0,-1,0,-1l0,-1l0,-1l0,-1l0,-1c0,0,0,-1,0,-1l1,1l0,1l0,1l0,1l0,1l1,-1c0,0,1,0,1,0c1,0,1,0,1,0l0,1l1,0l-1,0c0,0,0,1,0,1c0,0,-1,0,-1,0c0,1,-1,1,-1,1c0,0,-1,0,-1,0ZM272.5,382.5c0,0,-1,0,-1,0l-1,0l0,1c0,0,1,0,1,0c1,0,2,0,2,-1l-1,0ZM400.5,390.5l-2,-1l1,-2l2,1ZM397.5,386.5l-1,0l-1,0c0,0,-1,0,-2,-1c0,0,0,-1,0,-2l-1,-8l1,-2l1,9l0,1l0,1c0,0,1,0,1,0l1,0l1,0c1,0,1,0,2,0c0,0,1,0,1,0l0,-1l0,-1l-1,-1l1,-1l0,1l1,0l0,1l0,1l0,1l-1,0c0,0,0,1,0,1c0,0,-1,0,-1,1c-1,0,-1,0,-2,0ZM399.5,392.5l-4,2c0,-1,1,-1,1,-1l3,-2ZM392.5,370.5l4,-3l0,1l0,1l-5,2ZM376.5,384.5l-1,-1l1,-2l1,2ZM389.5,386.5l0,1c-1,0,-1,0,-1,1c0,0,-1,0,-1,0c0,0,-1,1,-1,1c-1,0,-1,0,-2,0c-1,1,-2,1,-3,1c0,0,-1,0,-2,0c-1,1,-2,1,-3,1c0,0,-1,0,-1,0l-1,0c0,0,-1,0,-2,0c0,0,-1,-1,-1,-1c-1,0,-2,0,-3,0c-1,0,-1,0,-2,-1c-2,0,-3,-1,-3,-1c-1,-1,-2,-1,-3,-2l-1,-1l1,0c1,1,1,1,2,1c0,0,1,1,2,1c0,0,1,0,1,1c1,0,1,0,2,0c1,0,1,0,2,0c1,1,1,1,2,1c1,0,1,0,2,0c0,0,1,0,2,0c0,0,1,0,1,0c1,0,2,0,2,0c1,0,2,0,3,-1c1,0,2,0,3,0c1,0,1,-1,2,-1c2,-1,3,-1,3,-2c0,-1,0,-1,-1,-1l0,-1c0,-1,-1,-1,-1,-1l1,-2l1,1l0,1c0,0,0,1,0,1c0,0,0,1,0,1c0,0,0,1,0,1c0,0,0,1,0,1ZM373.5,372.5l0,1c0,0,1,0,1,0l0,-1l1,0c0,0,0,1,0,1c0,0,1,-1,1,-1l0,-1l0,1l0,1c0,0,0,1,-1,1l-1,0c0,0,-1,1,-1,1c0,0,0,-1,0,-1l-1,0l0,-1l1,0l0,-1ZM377.5,369.5l-6,3c1,-1,1,-1,1,-1l5,-3ZM104.5,340.5c0,1,0,1,0,1l1,0l0,-1l-1,0ZM104.5,348.5c0,1,-1,1,-1,1c0,0,-1,0,-1,0l-1,0c0,0,-1,0,-1,0c-1,-1,-1,-1,-1,-1l1,0c1,0,1,0,1,0c0,0,1,0,1,0c0,0,1,-1,1,-1c0,0,1,0,1,-1c0,0,1,0,1,0c0,0,0,-1,0,-1c1,-1,1,-2,1,-2l-1,0l-1,0c-1,0,-1,0,-1,0l0,-1l0,-1c0,-1,0,-1,1,-2l0,-1c0,0,1,0,1,0l1,0c0,1,0,1,0,1c0,0,0,1,0,1c1,0,1,1,1,1c0,1,0,1,0,1c0,1,0,1,0,1c0,1,-1,2,-1,3c0,0,0,1,-1,1c0,0,0,1,-1,1ZM102.5,334.5l4,-2l0,1c-1,0,-1,0,-1,0l-4,2ZM76.5,345.5l0,-1l1,-2l-1,-8l1,-3l0,11c0,0,0,1,0,1l0,1l-1,1ZM98.5,344.5l0,-1l0,-1l-1,-8l1,-3l1,11c0,1,-1,1,-1,1c0,1,0,1,0,1ZM81.5,334.5l4,-2c0,0,0,1,0,1l-5,2ZM97.5,328.5l4,-2l0,1l-1,0l-4,2ZM93.5,344.5l-1,0c-1,-1,-1,-1,-1,-1l-1,0c-1,0,-1,1,-1,1l-1,0l-1,0l-1,0c0,1,0,1,-1,1c0,1,0,1,0,1c0,1,0,1,-1,2l-1,1c-1,0,-1,0,-1,0c0,0,-1,1,-1,1l-1,0c0,0,-1,-1,-2,-1c0,0,0,-1,0,-1c0,1,0,1,1,1c1,0,1,0,2,-1l1,0c0,0,0,-1,1,-1l0,-1c1,0,1,0,1,0c0,-1,0,-1,0,-1c1,0,1,0,1,0c0,-1,0,-1,0,-1c0,0,-1,0,-1,0c-1,0,-1,0,-1,0c-1,0,-1,-1,-1,-1c0,-1,0,-1,0,-1c0,-1,0,-1,0,-1l0,-1c1,0,1,0,1,0c1,-1,1,-1,1,-1l1,1c0,0,0,1,0,1c0,0,1,0,1,0c0,1,0,1,0,2c0,0,1,0,1,0c0,0,1,0,1,0c1,0,1,0,1,-1l1,-1c0,-1,1,-1,1,-2c1,0,1,0,1,0c0,0,1,0,1,0c0,1,0,1,1,2l0,1c0,1,0,1,0,1c-1,0,-1,0,-1,1ZM91.5,341.5l1,1l1,0l-1,-1c-1,0,-1,0,-1,0ZM90.5,326.5l1,0l1,0c0,0,1,0,1,0c1,0,1,0,1,1c0,0,-1,0,-1,1c-1,0,-1,0,-1,0c0,0,0,1,0,1c-1,0,-1,0,-1,0l-1,0l2,-1c0,0,1,0,1,-1l-1,0c-1,0,-1,0,-2,0l-1,0c1,0,1,-1,1,-1ZM84.5,341.5c-1,0,-1,0,-1,0c0,0,0,1,0,1c1,0,1,0,1,0c1,0,1,0,1,0c-1,0,-1,0,-1,0c0,0,0,-1,0,-1ZM71.5,333.5l0,4l1,0c0,0,0,1,0,1c1,0,1,0,1,1c1,0,1,1,1,1c0,0,0,1,0,1l0,1c0,0,0,1,0,1c0,1,0,1,-1,1c0,0,-1,-1,-2,-1l-1,0c0,0,-1,0,-1,0c0,0,-1,1,-1,1c0,0,-1,0,-1,0c0,0,-1,0,-1,0l-1,0l-3,0l-1,0l0,1l0,1c-1,0,-1,0,-1,0c0,0,-1,0,-1,0c0,-1,-1,-1,-1,-2l0,-1c0,0,-1,0,-1,0l0,1l-1,0l0,1l0,1l0,1l0,2l0,1l1,1c0,1,0,1,0,2l-1,1l0,-1l0,-1l0,-1l-1,-3l0,-1l0,-1l0,-1l0,-1c0,-1,1,-1,1,-2l1,0l0,-1l1,0l1,-1c0,1,1,2,2,2l2,0l1,1l2,0c0,0,1,-1,1,-1c1,0,1,0,1,0l0,-1l0,-1c0,-1,0,-1,0,-1c0,0,0,-1,1,-1c0,0,0,-1,1,-1l0,-5c-1,0,-1,0,-1,-1l1,-1c0,0,0,1,0,1c1,0,1,0,1,0c0,1,0,1,0,1c0,1,0,1,0,1ZM70.5,325.5l4,-2l0,1l-4,2ZM70.5,339.5c0,0,-1,0,-1,0c0,0,0,1,0,1c0,0,-1,0,-1,0c0,0,1,1,1,1c1,0,1,0,1,0l0,-1c0,-1,0,-1,0,-1ZM71.5,340.5c0,0,0,1,0,1l2,1l0,-1l-1,-1l-1,0ZM65.5,328.5c0,0,0,-1,0,-1c0,0,1,0,1,0c1,0,1,0,1,1l0,1l-1,0l1,1l0,1l-1,0l-1,0c-1,1,-1,1,-1,1l-1,0l-1,0l1,0l1,-1l1,0l0,-1c-1,0,-1,-1,-1,-1c0,0,0,-1,1,-1ZM66.5,328.5l-1,0l0,1l1,0l0,-1ZM165.5,344.5l0,-1l0,-1l-1,-8l1,-3l1,11c0,1,0,1,0,1c-1,1,-1,1,-1,1ZM164.5,328.5l4,-2l-1,0c0,1,0,1,0,1l-4,2ZM158.5,337.5l-1,-1l1,-1l1,1ZM158.5,344.5l-1,0l-1,0l-1,0c-1,0,-2,0,-2,0c0,0,-1,0,-1,-1c-1,1,-1,1,-2,1c0,0,-1,0,-2,0l-1,0l-1,0l0,-1c-1,0,-1,-1,-1,-1c0,1,0,1,-1,1c0,1,-1,1,-1,1c-1,0,-1,-1,-1,-1l-1,0c0,1,-1,1,-1,1l-1,0c0,0,-1,0,-1,-1l-1,0c0,1,-1,1,-2,1l-1,0l-1,0l-1,0l0,1c0,0,1,0,1,1c0,1,0,2,-1,2c0,1,-1,1,-1,1c0,0,-1,0,-1,0c-1,0,-1,-1,-1,-2c-1,0,-1,-1,-1,-3c-1,0,-1,0,-1,0l-1,0l-1,0c0,0,-1,0,-1,0c0,0,-1,0,-1,-1c0,1,0,1,-1,2c0,0,-1,0,-2,-1c0,0,-1,0,-1,0l-1,1c0,0,0,1,-1,1c0,0,-1,1,-2,1c-1,0,-2,0,-4,0l5,-2l1,-1c1,0,1,0,2,-1l0,-1c1,-1,1,-1,1,-2c0,0,1,0,1,0l1,0l1,1c0,1,1,1,1,1l1,0c0,1,0,1,0,1l1,0l1,0l1,-1c1,0,1,-1,1,-1l0,-1c0,0,1,0,1,0l0,-1c1,-1,1,-2,2,-2l0,1l1,0l0,1l0,1c0,0,-1,1,-1,1c0,1,-1,1,-2,2l2,0l1,0l1,0l1,0l1,0l0,-1l1,0c0,0,1,-1,1,-1l1,0l0,1l0,1c1,0,1,-1,2,-1l1,-1l0,-1c0,1,0,1,1,2l1,0c0,0,1,-1,1,-1l0,-1c1,2,2,3,2,3l1,0c1,0,1,0,1,0l0,-1c0,0,1,0,1,0l0,-1c0,0,0,-1,0,-1c1,-1,1,-1,1,-2l1,0c0,-1,1,-1,1,-1c1,0,1,0,1,1c1,0,1,0,1,1l0,1c0,0,0,1,0,1c0,0,-1,0,-1,0c0,1,0,1,0,1l1,1l1,0l1,0l1,0c0,0,1,-1,1,-1c1,0,1,0,1,0c0,0,1,0,1,0c0,0,0,-1,0,-1c0,0,-1,0,-1,0c0,-1,0,-1,0,-1l1,-2l0,1l0,1l0,1l0,1l0,1c-1,1,-1,1,-2,1c0,0,-1,0,-1,0ZM152.5,336.5l-1,-1l1,-1l1,1ZM153.5,339.5c-1,0,-1,0,-1,0c-1,0,-1,1,-1,1l0,1c0,0,1,0,1,0c1,0,1,0,1,0c0,0,1,0,1,-1l0,-1c-1,0,-1,0,-1,0ZM150.5,325.5c0,0,0,-1,1,-1l1,0l0,1l0,1l0,1l0,1l-1,0l-1,0c0,1,0,1,-1,1l-1,0l1,-1l1,0l0,-1l1,0l-1,0c0,0,0,-1,0,-1c0,0,0,-1,0,-1ZM151.5,325.5l-1,0c0,0,1,0,1,1c0,-1,0,-1,0,-1ZM141.5,331.5l4,-2l-1,1l-4,2ZM131.5,339.5c0,0,-1,1,-1,1l0,1l-1,1c1,0,2,-1,2,-1c1,0,1,-1,1,-1l0,-1c0,0,-1,0,-1,0ZM129.5,344.5c0,1,0,1,0,2c0,0,1,1,1,1l1,0c0,0,1,0,1,0c0,-1,0,-1,-1,-2c0,0,-1,0,-2,-1ZM131.5,328.5c1,-1,1,-1,1,-1c1,0,1,1,1,1c0,0,0,1,0,1c0,1,0,1,-1,1l1,0l0,2l-1,-1l-1,0l0,1c0,0,-1,0,-1,1l-1,0l-1,0l1,-1l1,0l0,-1l1,0l0,-1c0,0,-1,0,-1,-1c0,0,1,0,1,-1ZM132.5,329.5l0,-1l-1,0l0,1l1,0l0,1l0,-1ZM122.5,343.5l0,-1c-1,0,-1,-1,-1,-1l-1,1l1,1ZM118.5,333.5l1,0l1,0c0,0,1,0,1,0c1,0,1,0,1,1c0,0,-1,1,-1,1c-1,0,-1,0,-1,1c-1,0,-1,0,-1,0l-1,0l1,-1c1,0,2,0,2,-1c0,0,-1,0,-1,0l-1,0l-1,0l-1,0c0,0,0,-1,1,-1ZM253.5,344.5l0,-1l0,-1l-1,-8l1,-3l1,11l-1,0c0,1,0,1,0,1c0,1,0,1,0,1ZM245.5,343.5c0,0,1,0,1,-1l1,0c1,0,1,0,1,-1l-1,-2l0,-6c0,-1,0,-1,0,-1c0,0,0,-1,0,-1l1,-1c0,1,0,1,0,1l0,1l1,0c0,0,0,1,-1,1c0,0,0,1,0,1c0,0,0,1,0,2c0,0,0,1,0,2c0,1,0,1,0,2l0,1l0,1l0,1l-1,0c0,1,0,1,0,1c0,0,-1,0,-1,0l-1,0l-1,0c-1,0,-1,0,-2,0l0,-1c-1,1,-1,1,-1,2c-1,0,-1,0,-2,-1l-1,0l-1,-1l-1,1c0,0,-1,0,-1,0l-1,0l-1,0l-1,0c0,1,0,1,0,1c0,1,0,1,-1,1c0,1,0,1,0,2c-1,0,-1,0,-1,1c-1,0,-1,0,-1,0c0,0,-1,0,-1,0c0,0,0,1,0,1c-1,0,-1,0,-1,0l-1,0c0,0,-1,-1,-1,-1c-1,0,-1,0,-1,0c0,0,0,-1,0,-1c0,1,0,1,1,1c1,0,1,0,2,-1c0,0,1,0,1,0c0,0,1,-1,1,-1l1,-1c0,-1,1,-1,1,-1c0,-1,0,-1,0,-1c0,0,-1,0,-1,0l-1,0c0,0,-1,-1,-1,-1c0,-1,0,-1,0,-1c0,-1,0,-1,0,-1c1,0,1,0,1,-1c0,0,1,0,1,0c0,-1,0,-1,0,-1c0,0,1,0,1,1c1,0,1,1,1,1c0,1,0,1,0,2c1,0,1,0,1,0c0,0,1,0,1,0l1,0c0,0,1,-1,1,-1c0,0,1,-1,1,-1c1,-1,2,-2,3,-2l1,1l0,1l1,1c1,0,1,0,1,0l0,1l1,0l1,0ZM245.5,326.5c0,0,1,0,1,0c0,0,1,0,1,0c1,0,1,0,2,0l0,1l0,1c-1,0,-1,0,-1,0c0,0,-1,1,-1,1l-1,0c0,0,-1,0,-1,0l2,-1c1,0,1,0,2,-1c-1,0,-1,0,-1,0c-1,0,-1,0,-1,0c-1,0,-1,0,-1,0c-1,0,-1,0,-1,0c0,0,0,-1,0,-1ZM241.5,343.5l-1,-1c0,-1,0,-1,0,-1c-1,0,-1,0,-1,0l-1,0c0,1,1,1,1,1l1,0ZM238.5,328.5c1,0,1,0,1,0c0,-1,1,-1,1,-1c1,0,1,1,1,1c0,0,0,1,0,1l-1,0c0,1,0,1,0,1l1,0l0,2l-1,-1l-1,0l0,1c-1,0,-1,0,-1,1l-1,0l-1,0l1,-1l1,0l0,-1l1,0l0,-1c-1,0,-1,0,-1,-1l0,-1ZM240.5,329.5l-1,-1l0,1l1,0l0,1l0,-1ZM228.5,335.5c0,-1,1,-1,1,-1c0,0,1,0,1,0l1,0l0,1l-1,0l-1,0l-1,1c1,0,1,0,1,0l1,0l1,0l1,0c0,1,-1,1,-1,1l-4,2c0,-1,0,-1,1,-1l0,-1l1,0c-1,0,-1,0,-1,-1ZM230.5,341.5c-1,0,-1,0,-1,0c0,0,0,1,0,1c0,0,1,0,1,0l1,0c0,0,-1,-1,-1,-1ZM225.5,330.5c1,0,1,-1,1,-1c1,0,1,0,2,0c0,0,1,0,1,0c1,1,1,1,1,1c0,1,-1,1,-1,1c0,1,0,1,-1,1c-1,0,-1,0,-1,0l-1,0l1,0c1,-1,2,-1,2,-1c0,0,-1,0,-1,0c0,-1,0,-1,-1,-1c0,0,0,1,-1,1l-1,0c0,-1,0,-1,0,-1ZM222.5,344.5l-1,0c0,-1,0,-1,-1,-1l-1,0c0,0,0,1,-1,1l-1,0l-1,0c0,0,-1,0,-1,0l-1,0c0,-1,0,-1,0,-1c-1,0,-1,0,-1,0l-1,0c0,1,0,1,-1,1l-1,0l-1,0c-1,0,-1,0,-1,0l0,-1c-1,0,-1,0,-1,-1l0,-1l0,-1c0,1,-1,1,-2,2l-1,0c0,1,0,1,0,1l0,1l0,1c0,0,-1,1,-1,1c0,0,-1,0,-1,1c0,0,-1,0,-1,0c-1,0,-1,0,-2,1c-1,0,-2,0,-3,0c0,1,-1,1,-2,1c-1,0,-2,0,-3,0c0,0,-1,0,-1,0l-1,0c0,0,-1,0,-1,0c-1,0,-2,0,-2,0c-1,0,-2,0,-3,-1c0,0,-1,0,-2,0c-2,-1,-3,-1,-3,-2c-1,0,-2,-1,-3,-2c-1,0,-1,-1,-1,-1l1,0c0,1,0,1,0,1c1,0,1,0,2,0c0,1,1,1,2,1c1,1,1,1,1,1c1,0,1,0,2,0c1,1,1,1,2,1c1,0,1,0,2,0c1,0,1,0,2,0c0,0,1,0,2,0c0,0,1,0,1,0c1,0,2,0,2,0c1,0,2,0,3,0c1,0,2,-1,3,-1c1,0,1,0,2,-1c2,0,3,-1,3,-1c0,-1,0,-1,0,-1c0,0,-1,0,-1,0c0,-1,0,-1,0,-1l0,-1l-1,0l1,-2l1,1l1,0l1,0c0,-1,0,-1,1,-1c0,0,0,-1,0,-1l1,0c0,0,0,1,0,1l0,1c0,1,0,1,0,2c0,0,1,0,1,0c0,1,0,1,1,1c0,0,1,0,1,-1c1,0,1,0,2,0c0,-1,1,-1,1,-1l0,1c0,0,1,0,1,0c0,0,0,1,1,1l1,0l1,0l0,-1l1,0l1,-1c0,-1,0,-1,1,-2l1,0c1,1,1,1,1,2l0,1c0,1,0,1,0,1l-1,1ZM221.5,341.5l0,1l1,0l0,-1c0,0,-1,0,-1,0l-1,0l1,0ZM222.5,347.5l-5,2c1,0,1,0,1,-1l4,-2ZM213.5,340.5l-2,-1l1,-2l2,1ZM215.5,347.5l-5,2c1,0,1,0,1,-1l4,-2ZM209.5,347.5l-2,-1l0,2l-2,-1l1,-2l2,1l0,-1l2,1ZM191.5,342.5l-1,-1l1,-1l1,1ZM182.5,335.5l3,-1l5,-2l5,-2l1,0l-1,1l-1,0l-1,1l-1,0l-1,1l-6,2l-4,1ZM297.5,344.5l-1,0c-1,-1,-1,-1,-1,-1l-1,0c-1,0,-1,1,-1,1l-1,0l-1,0c0,0,0,1,0,1c0,0,0,1,0,1c0,1,0,1,0,1c-1,1,-1,1,-1,1c0,0,-1,1,-1,1c0,0,-1,0,-1,0c-1,0,-1,1,-2,1c-1,0,-2,1,-3,1c-1,0,-2,0,-3,0c0,0,-1,0,-2,0c0,0,-1,0,-1,0l-1,0c0,0,-1,0,-2,0c0,0,-1,0,-1,0c-1,0,-2,0,-3,0c-1,-1,-1,-1,-2,-1c-2,-1,-3,-1,-4,-2c-1,0,-1,-1,-2,-2c0,0,-1,0,-1,0c0,-1,0,-1,0,-1c1,1,1,1,1,1c1,0,1,0,2,1c0,0,1,0,2,1c0,0,1,0,1,0c1,0,1,0,2,1c1,0,1,0,2,0c0,0,1,0,2,0c0,0,1,0,2,1c0,0,1,0,2,0c0,0,1,0,1,0c1,-1,2,-1,2,-1c1,0,2,0,3,0c1,0,2,0,3,-1c1,0,1,0,2,0c1,-1,2,-1,2,-1c0,-1,1,-1,1,-1c0,0,0,-1,0,-1c-1,0,-1,0,-1,0l-1,-2l1,-1l1,0l0,1l1,0c1,0,1,0,1,-1l1,0l0,-1c0,-1,1,-1,1,-2c1,0,1,0,1,0c1,0,1,0,1,0c0,1,0,1,1,2l0,1c0,1,0,1,0,1c-1,0,-1,0,-1,1ZM295.5,341.5l1,1l1,0l0,-1c0,0,-1,0,-1,0c-1,0,-1,0,-1,0ZM296.5,347.5l-4,2l0,-1l4,-2ZM278.5,345.5l-1,-1l1,-2l1,1ZM269.5,335.5l1,0l3,-1l5,-2l5,-2l-1,1l-1,1l-1,0l-2,1l-5,2l-4,1ZM348.5,344.5l1,-1l0,-1l-1,-8l1,-3l0,11c0,1,0,1,0,1c0,1,0,1,-1,1ZM340.5,335.5l-2,0l1,-2l1,1ZM341.5,338.5l-1,-1l-1,1l-1,-1l1,-1l1,1l1,-2l1,1ZM337.5,343.5l-1,0c0,1,0,1,-1,1l-1,0c-1,0,-1,0,-2,0c0,0,-1,-1,-1,-1c0,-1,0,-1,0,-1l0,-1c0,0,-1,0,-1,0c0,1,0,1,0,1l-1,0c-1,1,-1,1,-1,1l-1,0l0,1c0,1,0,1,0,2c0,0,-1,0,-1,1c0,1,-1,1,-1,1l-1,0l0,1c0,0,-1,0,-1,0l-1,0l-1,0c-1,-1,-1,-1,-1,-1l-1,0l1,0l1,0c0,0,1,0,1,0c1,0,1,0,1,-1c0,0,1,0,1,0l1,-1l1,-1c0,0,0,-1,0,-1c1,-1,1,-1,1,-1l-1,0l1,-2l1,0l1,0l0,-1c0,0,1,0,1,0l1,-1l0,1l0,1c0,0,0,1,1,1l1,0c0,1,0,1,1,1c1,0,1,0,2,-1l1,0c0,0,0,-1,0,-1l1,0l0,1l1,0c0,0,1,0,1,0c1,0,1,0,1,0c0,0,0,-1,0,-1l0,-1l1,0l0,1l0,1l1,0l1,0l0,-1l0,-1l1,1l0,1c0,0,0,1,0,1c-1,0,-1,1,-1,1l-1,0c-1,0,-1,0,-1,0l-1,-1l0,1c-1,0,-1,0,-1,0l-1,0c-1,0,-1,0,-1,0c-1,0,-1,0,-1,0c0,-1,0,-1,0,-1ZM338.5,329.5l1,0c0,-1,1,-1,1,-1c1,0,1,0,2,1c0,1,0,1,0,1c-1,1,-1,1,-1,1c-1,0,-1,0,-1,0c0,0,-1,0,-1,0c0,0,-1,0,-1,0l2,0c0,0,1,-1,1,-1c-1,0,-1,0,-1,0c-1,0,-1,0,-2,0c0,0,0,-1,0,-1ZM330.5,337.5l-1,-1l-1,1l-1,-1l1,-2l1,1l1,-1l1,1ZM329.5,331.5l4,-2l-1,1l-4,2ZM321.5,338.5l-1,-1l-1,0c0,0,-1,0,-1,0c0,1,-1,1,-1,2c-1,0,-1,1,-1,1c0,1,0,1,1,1l0,1l2,0c0,0,1,0,1,0c0,1,0,1,0,1c0,0,0,1,0,1c0,1,-1,1,-1,2c-1,0,-1,0,-2,1c-1,0,-2,0,-2,0c-1,1,-2,1,-2,1l-1,0c-1,0,-2,0,-2,-1c-1,0,-1,0,-1,0c-1,-1,-1,-1,-1,-1c-1,-1,-1,-1,-1,-2c0,0,0,-1,0,-1c0,0,0,-1,1,-2c0,0,0,-1,0,-1c0,0,1,-1,1,-1l0,-1l1,1l-1,0c0,1,0,1,0,1c0,1,0,1,0,1c-1,0,-1,0,-1,1l0,1c0,0,0,1,0,1c1,0,1,0,1,1c1,0,2,1,4,1c1,0,2,0,3,-1l1,0l1,0l0,-1c1,0,1,0,1,0l0,-1l-1,0c-1,0,-2,0,-3,0c0,-1,0,-1,0,-2c0,-1,0,-1,0,-2c0,0,1,0,1,-1l1,-1c1,-1,1,-1,2,-1c0,0,1,-1,1,-1c1,0,1,0,1,1c0,1,0,1,0,1c0,1,0,1,0,1ZM324.5,332.5c0,1,0,2,-1,2l0,-1c0,-1,0,-1,0,-1l0,-1l0,-1l0,-1l0,1l1,0l0,1l0,1ZM374.5,344.5l0,-1l0,-1l0,-8l1,-3l0,11c0,1,0,1,0,1c0,1,0,1,-1,1ZM370.5,344.5c0,0,-1,0,-1,0c0,0,-1,0,-1,-1c0,0,-1,-1,-1,-1c0,0,0,1,-1,1c0,1,-1,1,-1,1c-1,0,-1,0,-2,0c0,-1,-1,-2,-1,-3l0,1c0,0,0,1,-1,1c0,0,-1,0,-1,0c-1,0,-1,0,-2,0l0,-1c0,0,0,-1,0,-1c0,0,1,-1,1,-1c1,0,1,-1,2,-1l1,-1l0,-1c0,-1,0,-1,1,-1l0,1l0,1l0,3c0,1,0,1,1,1l1,0c0,0,1,0,1,0c0,0,1,-1,1,-1c0,-1,0,-1,-1,-3c0,0,0,-1,0,-1c0,0,0,-1,0,-1l0,-1l1,-1l0,2l0,2l1,2c0,1,0,1,0,1c0,0,1,1,1,1l1,0c1,-1,1,-1,1,-1c0,0,0,-1,0,-1l-1,-2l0,-1l0,-1l0,-1l0,-1c0,1,0,1,0,1c1,1,1,1,1,2l0,2c0,0,0,1,0,1c0,1,0,2,0,2c0,1,0,1,-1,1c0,0,0,1,0,1ZM362.5,339.5c-1,1,-1,1,-1,1l-1,0c0,0,0,1,-1,1c1,0,2,0,2,0c1,0,1,0,1,-1ZM357.5,331.5l4,-2c0,0,0,1,0,1c0,0,-1,0,-1,0l-4,2ZM364.5,330.5l0,1l0,1c1,0,1,0,1,0c0,0,1,-1,1,-1l0,-1l0,1c0,0,1,0,1,0c0,0,1,0,1,-1l0,-1l0,1l0,1c0,1,0,1,0,1l-1,0c0,0,-1,0,-1,0l0,1c-1,0,-1,0,-1,0c-1,0,-1,0,-1,0l0,-1l0,-1l0,-1ZM397.5,344.5l0,-1l0,-1l-1,-8l1,-3l1,11c0,1,0,1,-1,1c0,1,0,1,0,1ZM399.5,347.5l-4,2c1,-1,1,-1,1,-1l4,-2ZM388.5,338.5l-1,-1l1,-1l1,1ZM388.5,347.5c-1,0,-1,0,-2,0c0,0,-1,0,-1,0c0,-1,-1,-1,-1,-2c0,0,0,-1,0,-1c0,-1,0,-1,0,-1c0,0,0,-1,0,-1l0,-1l0,-1c1,0,1,0,1,0l0,1l0,1c0,0,-1,0,-1,1c1,0,1,1,1,1l1,1l1,0c0,0,1,0,1,0c1,0,2,0,2,0c1,0,2,-1,2,-1l0,-1c1,0,1,0,1,0l0,-1c0,0,-1,-1,-1,-1l0,-1c0,-1,0,-1,-1,-1l0,-1l1,-1c0,0,0,1,0,1c1,0,1,0,1,0c0,1,0,1,0,1c0,0,0,1,0,1c0,0,0,1,0,1c0,1,0,1,0,1c0,1,0,2,0,2c0,1,-1,1,-1,2c-1,0,-1,1,-2,1c-1,0,-1,0,-2,0ZM385.5,330.5l0,1c1,0,1,0,1,0c0,0,0,-1,0,-1l0,-1l1,0l0,1c0,0,1,0,1,-1l0,-1l0,1l0,1l0,1l-1,0l-1,0l0,1c0,0,-1,0,-1,0l0,-1l0,-1ZM389.5,327.5l-6,3c1,-1,1,-2,1,-2l6,-2ZM366.5,328.5c0,-1,0,-1,0,-2c0,0,0,-1,-1,-1l1,0l0,-1l1,1l0,1l0,1c0,0,0,1,0,1c0,0,-1,0,-1,0ZM202.5,330.5c1,0,1,-1,1,-1c1,0,1,0,2,0c0,0,1,0,1,0c1,1,1,1,1,1c0,1,-1,1,-1,1c0,1,0,1,-1,1c-1,0,-1,0,-1,0l-1,0l1,0c1,-1,2,-1,2,-1c0,0,-1,0,-1,0c0,-1,0,-1,-1,-1c0,0,-1,0,-1,1l-1,0c0,-1,0,-1,0,-1ZM156.5,324.5c1,0,1,0,1,0c1,0,1,0,2,0c0,0,1,0,1,0c1,0,1,0,1,1c0,0,-1,1,-1,1l-1,1c-1,0,-1,0,-1,0l-1,0l1,-1c1,0,2,0,2,-1c0,0,-1,0,-1,0l-1,0c0,0,-1,0,-1,0l-1,1l0,-1l0,-1Z" class="g1_42" />
<path fill-rule="evenodd" d="M337.5,483.5l0,-1l1,0l0,-1l0,-1l0,-2l0,-1l1,0c0,1,0,1,0,1l0,1l0,1l0,1l0,1l0,-1l1,0c0,0,1,-1,1,-1c0,0,1,0,1,1c0,1,0,1,0,1l0,1c0,0,-1,0,-1,0c0,0,-1,0,-1,0c0,0,-1,0,-1,0ZM63.5,526.5c0,1,-1,2,-1,3l-1,1l1,1l-1,1c0,0,-1,0,-1,0l0,1c-1,0,-1,0,-2,1l-1,0l-1,1l-1,0l-1,1l0,1l-2,0l2,0l0,-1l0,-1l1,0l1,-1c0,0,1,0,1,0l1,0c1,-1,1,-1,1,-1l1,0l0,-1l1,0l0,-1l1,0l-1,0l0,-1l0,-1l1,0l0,-1l0,-1l0,-1c0,-1,0,-1,0,-2l-1,-1l0,-1l1,0c0,-1,-1,-1,-1,-1l-1,0l0,-1l-1,0l0,-1l-2,0l-1,-1c-1,0,-1,0,-1,0l-1,-1l0,-1l-2,0l2,0l0,1l1,0l0,1l1,0l2,1l1,0l1,1l1,1c0,0,1,0,1,1l-1,0l0,1l1,0l0,1l0,1ZM59.5,522.5l-1,0l0,-1l-1,0c-1,-1,-1,-1,-1,-1l1,0c0,0,1,0,1,0c0,1,0,1,1,1ZM59.5,531.5l0,1l-1,0l0,1l-1,0l-1,0l0,-1c0,0,1,0,1,0l1,0c0,0,0,-1,1,-1ZM55.5,533.5c0,1,0,1,-1,1c0,0,0,1,0,1l-2,0l0,-3l2,0l1,1ZM55.5,519.5c0,1,0,1,-1,1l0,1l-2,0l0,-3l2,0l0,1c1,0,1,0,1,0ZM54.5,522.5c1,0,1,-1,1,-1c1,0,1,1,1,1c1,0,1,0,1,1l1,0l1,0l1,1l0,1l0,1l0,1c0,0,0,1,0,1l0,1l-1,0c0,1,0,1,0,1l-1,0l-1,1l-1,0l-1,0c0,0,-1,0,-1,0l-2,0l0,-1l2,0l0,1c0,0,1,0,1,0l1,0l1,0l0,-1c1,-1,1,-1,1,-1l1,1l0,-1l1,-1l0,-1l0,-1c0,0,0,-1,0,-1c0,-1,-1,-1,-1,-1c0,-1,0,-1,0,-1l-1,0l-1,0l0,-1l-1,0l-1,0l-1,0l-2,0ZM53.5,525.5l0,1l0,1l0,1c0,1,0,1,0,1l0,-1c0,-1,0,-2,-1,-3ZM51.5,525.5l0,1l1,0l0,1l0,1l-1,0c0,1,0,1,0,1l0,-1c0,-1,0,-2,-1,-3ZM52.5,516.5l-2,0l-1,0l-1,0l0,1l-1,1l-2,1l-1,0l-1,1l-1,0l0,1c-1,0,-1,0,-2,1l2,0l-1,1l0,1l-1,0l0,1l0,1l0,1l0,1l0,1l1,0l0,1l1,0c0,1,0,1,0,1l-2,0l1,0l1,1l0,1l1,0l1,1l1,0l1,0c1,0,1,1,1,1l1,0l0,1c0,0,1,0,1,1l1,0l2,0l-2,0l-1,0c-1,0,-1,-1,-1,-1l-1,-1l-1,0c-1,-1,-1,-1,-2,-1l-1,-1l-1,0l0,-1l-1,0l0,-1l-1,0l1,-1l-1,-1l0,-1c0,-1,0,-1,0,-1l0,-1l0,-1c0,0,0,-1,0,-1c0,-1,1,-1,1,-1l0,-1l-1,0c0,0,0,-1,1,-1l1,0l0,-1l1,0l0,-1l1,0l1,0l1,-1c1,0,1,0,1,0l1,-1c0,-1,0,-1,1,-1l1,0l2,0ZM52.5,521.5l-2,0l-1,0c-1,0,-1,0,-1,-1l-1,0l0,-1c0,0,1,0,1,0l0,-1l1,0l1,0l2,0ZM52.5,522.5l-2,0l-1,0l-1,0l-1,0l-1,0l-1,0l0,1l-1,0l-1,0l0,1l-1,1l0,1l0,1l0,1l1,0c0,1,0,1,0,2l1,-1c1,0,1,1,1,1l1,1l1,0c1,0,1,0,1,0l1,-1l1,0l2,0l0,1l-2,0l-1,0l-1,0l-1,0c0,0,-1,0,-1,0c0,0,-1,0,-1,-1l-1,0l-1,0l0,-1l-1,-1l0,-1l0,-1l0,-1l0,-1l1,0l0,-1l2,0l0,-1l1,0c0,0,1,-1,1,-1c0,0,1,1,1,1l1,0l1,0l2,0ZM52.5,535.5l-2,0l-1,0c-1,0,-1,-1,-1,-1c-1,0,-1,0,-1,-1c0,0,1,0,1,-1l1,0l1,0l2,0ZM49.5,525.5l1,1l0,1l0,1c0,1,0,1,0,1l0,-1c0,-1,-1,-2,-1,-3ZM43.5,522.5l0,-1l1,0l0,-1l1,0l1,0l1,0l-1,0l1,0c-1,0,-1,0,-1,0l0,1l-1,0l-1,0l0,1l-1,0ZM43.5,531.5l1,0c0,0,0,1,1,1l1,0c0,1,0,1,0,1l-1,0c0,0,-1,-1,-1,-1l-1,0l0,-1ZM114.5,529.5l0,-1l0,-1l0,-9l1,-2l0,11c0,0,0,1,0,1c0,0,-1,1,-1,1ZM106.5,527.5c1,0,1,0,1,0c1,0,1,0,1,0c1,0,1,0,1,0c0,0,0,-1,0,-1l0,-2l0,-6c0,-1,-1,-1,-1,-1c0,0,0,-1,1,-1c0,0,0,-1,0,-1c0,1,0,1,0,1l1,0c0,0,0,1,0,1l0,1l0,1c0,0,0,1,0,1c0,1,0,1,0,3c0,0,0,1,0,1l0,1c0,1,0,1,0,1c0,0,0,1,0,1c0,0,-1,1,-1,1l0,1c-1,0,-1,0,-1,0c-1,0,-1,0,-1,0l-1,0c0,0,-1,0,-1,0c0,0,-1,-1,-1,-1c0,0,-1,0,-1,0l0,-1c-1,0,-1,0,-1,1l-1,0c-1,1,-1,1,-1,1l-1,0l-1,0l-10,0c0,1,0,2,0,2c0,0,-1,0,-1,0l0,-1l0,-1l-1,0c0,0,-1,0,-1,0c0,0,-1,0,-1,-1l0,-1c0,1,-1,1,-1,2c-1,0,-1,0,-2,0c-1,0,-2,0,-2,0c0,-1,-1,-1,-1,-1c0,1,0,1,-1,1l0,1c0,0,-1,-1,-1,-1c-1,0,-2,0,-2,-1l0,1l0,1c-1,0,-1,0,-2,1c0,0,-1,0,-2,0c-1,1,-2,1,-3,1l4,-2l1,-1c1,0,1,0,2,-1l1,-2c0,0,0,-1,0,-1c0,0,1,0,1,0l1,0l1,1c0,0,1,1,1,1l1,0l1,0c0,0,1,0,1,0c0,0,1,0,1,0c0,0,0,-1,0,-1c1,0,1,0,1,-1c0,1,0,1,0,1c0,1,0,1,1,1c0,0,1,0,1,0l1,0c1,0,1,0,1,0c0,-1,1,-1,1,-2l0,-1l0,-1l0,-1l-1,-3l0,-2c0,-1,0,-1,0,-1l1,-1l1,2c-1,1,-1,1,-1,2l0,1l0,1l1,2l0,1l-1,1l0,1l2,-1l1,-1c1,-1,1,-1,2,-1c1,0,2,0,2,0c0,1,1,1,1,2c0,0,0,1,0,1l-1,1l-1,1l2,-1l1,0l1,0c0,0,1,0,1,0l1,0c0,-1,0,-1,1,-1l-1,0c0,0,-1,-1,-1,-1c0,0,-1,0,-1,0l1,-2c0,0,1,0,1,0c1,0,1,0,1,0l1,0l1,0c0,1,0,1,1,1c0,1,0,1,0,1l-1,0c0,1,0,1,0,1c0,0,0,1,0,1l1,0l1,0ZM107.5,511.5l1,0c0,-1,0,-1,1,-1c0,0,1,0,1,1c1,0,1,0,1,0c0,1,0,1,-1,1c0,1,0,1,0,1c0,0,-1,0,-1,0c-1,0,-1,0,-1,0l-1,0l2,0c0,0,1,-1,1,-1l-1,0c-1,0,-1,0,-2,0l-1,0c0,0,0,-1,1,-1ZM102.5,516.5l4,-2l-1,0l0,1l-4,2ZM93.5,521.5l-2,-1l1,-1l2,1ZM96.5,526.5c0,0,0,-1,-1,-1c-1,0,-1,0,-1,0c-1,0,-1,0,-2,0l-1,1l-1,0l-1,1l1,0c1,0,1,0,1,0c1,0,1,0,1,0c1,0,1,0,1,0c1,0,2,-1,3,-1ZM91.5,532.5l-4,2c0,0,0,-1,0,-1l4,-2ZM85.5,532.5l-1,-1l-1,1l-2,0l1,-2l2,1l0,-1l2,1ZM77.5,528.5l0,-1c0,-1,-1,-1,-1,-1c-1,0,-1,1,-1,1l1,0l1,0ZM74.5,516.5c1,-1,1,-1,1,-1c0,0,1,0,1,0c0,1,0,1,0,1c0,1,0,1,0,1l0,1l0,2l-1,-1l-1,1c0,0,-1,1,-1,1l-1,0l0,-1l1,0l1,-1l0,-1l0,-1l0,-1ZM75.5,517.5l0,-1c-1,0,-1,0,-1,1l1,0l0,1l0,-1ZM155.5,529.5l0,-1l0,-1l0,-9l1,-2l0,11c0,0,0,1,0,1c0,0,0,1,-1,1ZM148.5,527.5l1,0l1,0c0,0,0,-1,0,-1l0,-2l0,-6c0,-1,0,-1,0,-1c0,0,0,-1,0,-1c0,0,0,-1,1,-1c0,1,0,1,0,1c0,0,0,1,1,1l-1,1l0,1c0,0,0,1,0,1c0,1,0,1,0,3c0,0,0,1,0,1l0,1c0,1,0,1,0,1c0,0,0,1,0,1c0,0,0,1,0,1c-1,0,-1,0,-1,0l0,1c0,0,-1,0,-1,0c0,0,-1,0,-1,0l-1,0l-1,0c-1,0,-2,0,-2,0c-1,0,-1,-1,-1,-1c-1,0,-1,1,-2,1c-1,0,-1,0,-2,0l-1,0l-1,0c0,0,0,1,0,1c0,0,0,1,-1,1c0,1,0,1,0,1c-1,1,-1,1,-1,1c-1,0,-1,1,-1,1c0,0,-1,0,-1,0c-1,0,-1,0,-1,0l-1,0c0,0,-1,0,-1,0c-1,0,-1,0,-1,-1l1,0c1,0,1,0,2,0c0,0,1,0,1,0c0,-1,1,-1,1,-1c0,0,0,-1,1,-1l0,-1c0,0,1,0,1,0c0,-1,0,-1,0,-1c0,0,-1,0,-1,0l-1,0c0,-1,-1,-1,-1,-1c0,-1,0,-1,0,-1l0,-1c1,-1,1,-1,1,-1c0,-1,1,-1,1,-1c0,0,1,0,1,0c0,0,0,1,0,1c1,0,1,0,1,0c0,1,0,1,0,1c0,1,0,1,0,1c1,0,1,0,1,0c0,0,1,0,1,0c0,0,1,0,1,0l1,0l0,-1c0,-1,0,-1,0,-2c0,0,1,-1,1,-1l0,-1c1,0,2,0,2,0c1,0,1,0,1,0c0,1,0,1,1,2l0,1c0,0,-1,0,-1,0c0,1,0,1,0,1c0,0,0,1,0,1l1,0l1,0ZM148.5,511.5l1,0c0,-1,1,-1,1,-1c1,0,1,0,2,1c0,1,0,1,-1,1c0,1,0,1,0,1c-1,0,-1,0,-1,0c0,0,-1,0,-1,0c0,0,-1,0,-1,0l2,0c0,0,1,-1,1,-1c-1,0,-1,0,-1,0c-1,0,-1,0,-2,0c0,0,0,-1,0,-1ZM143.5,521.5l-1,-1l1,-2l1,1ZM144.5,524.5c-1,0,-1,0,-1,0c-1,0,-1,0,-1,1c0,1,1,1,1,1c1,0,1,0,1,0c0,-1,1,-1,1,-1c0,0,0,-1,-1,-1ZM142.5,513.5l4,-3l0,1l0,1l-5,2ZM135.5,526.5c-1,0,-1,0,-1,0l0,1c0,0,1,0,1,0l1,0c0,0,0,-1,0,-1c0,0,-1,0,-1,0ZM130.5,518.5c1,0,1,0,1,0c1,0,1,0,2,0c0,0,1,0,1,0c1,0,1,0,1,0c0,0,0,1,0,1c0,0,-1,0,-1,1l-1,0c-1,0,-1,0,-1,0l-1,0l1,0c1,0,2,-1,2,-1c0,0,-1,0,-1,0l-1,0l-1,0l-1,0l0,-1ZM127.5,521.5l-1,-1l1,-1l1,1ZM121.5,532.5c1,0,1,0,1,0l1,0c1,0,2,0,3,-1l1,-1c0,0,1,-1,1,-1c0,0,0,-1,0,-1c0,0,1,-1,1,-1l-1,0l0,-1l0,-1l-1,0l1,-1l0,-1l1,1l0,1l0,1l0,1c0,1,0,1,0,2c0,0,0,1,0,1c-1,0,-1,1,-1,1c0,0,0,1,-1,1l-1,1c0,0,-1,0,-1,0c0,0,-1,0,-1,0l-1,0l-1,0l0,-1l-1,0ZM126.5,513.5c0,0,0,-1,1,-1l1,0l0,1l0,1l0,1l0,1l-1,0l-1,0c0,1,0,1,-1,1l-1,0l1,0l0,-1c0,0,1,0,1,0l1,-1l-1,0c0,0,0,-1,0,-1c0,0,0,-1,0,-1ZM127.5,513.5l0,1l0,-1ZM181.5,528.5l-1,0l-1,0c-1,0,-1,0,-2,0l0,-1c0,1,0,1,0,1c-1,0,-1,0,-1,0c0,0,-1,0,-1,1c0,0,-1,0,-1,0l-1,0l-1,0l-1,0c0,0,0,1,0,1c0,0,-1,1,-1,1c0,1,0,1,-1,1c0,1,0,1,0,1c-1,0,-1,1,-1,1c0,0,-1,0,-1,0l-1,0l-1,0c0,0,-1,0,-1,0c-1,0,-1,0,-1,-1l1,0c1,0,1,0,2,0c0,0,1,0,1,0c0,-1,1,-1,1,-1c0,0,0,-1,1,-1l0,-1c0,0,1,0,1,0c0,-1,0,-1,0,-1c-1,0,-1,0,-1,0l-1,0c-1,-1,-1,-1,-1,-1c0,-1,0,-1,0,-1l0,-1c0,-1,1,-1,1,-1c0,-1,1,-1,1,-1c0,0,1,0,1,0c0,0,0,1,0,1c0,0,1,0,1,0c0,1,0,1,0,1c0,1,0,1,0,1c1,0,1,0,1,0c0,0,1,0,1,0c1,0,1,0,1,0c0,0,1,0,1,0c0,0,0,-1,0,-1c0,0,0,-1,0,-1l0,-1c0,0,1,0,1,-1c0,0,0,-1,0,-1c0,-1,0,-1,1,-1c1,0,1,0,2,1c1,0,1,1,1,1c1,1,1,1,1,2c1,0,1,0,1,0c0,1,0,1,0,1c0,0,0,1,0,1l0,1c-1,0,-1,0,-1,0ZM177.5,524.5c-1,0,-1,0,-1,1c0,1,1,1,1,1l1,0c0,-1,0,-1,0,-1c0,0,0,-1,0,-1c-1,0,-1,0,-1,0ZM179.5,524.5c0,1,0,1,0,1c0,1,0,1,0,1l1,1l1,0c0,0,0,-1,0,-1c-1,0,-1,0,-1,-1l-1,0c0,0,0,-1,0,-1ZM174.5,510.5c0,-1,0,-1,0,-1c1,0,1,-1,1,-1c0,0,1,1,1,1l0,1l0,1l0,1l0,1l-1,-1l0,1l-1,0c0,0,-1,1,-1,1l-1,0l1,-1l1,0l0,-1l0,-1l0,-1ZM175.5,510.5c-1,0,-1,0,-1,0l1,0l0,1l0,-1ZM169.5,526.5l-1,0l0,1l1,0c1,0,1,0,1,0c0,0,0,-1,0,-1c-1,0,-1,0,-1,0ZM165.5,519.5l4,-2l0,1l-4,2ZM237.5,525.5c0,1,0,1,0,1c1,0,1,0,1,0c0,-1,0,-1,0,-1l-1,0ZM237.5,533.5c0,0,-1,0,-1,0c0,1,-1,1,-2,1c0,0,-1,0,-2,-1l1,0c0,0,1,0,1,0l1,0c0,0,0,-1,0,-1c0,0,1,0,1,0c0,0,1,-1,1,-1c0,0,1,0,1,-1l0,-1c1,0,1,-1,1,-1c0,0,0,-1,0,-1c0,1,-1,1,-1,1l-1,0l-1,0c0,-1,0,-1,0,-1c0,-1,0,-1,0,-1c0,-1,0,-1,0,-1c0,0,0,-1,0,-1c1,0,1,-1,1,-1c0,0,1,0,1,0c1,0,1,1,1,1l0,1c0,0,1,0,1,1c0,0,0,1,0,1c0,0,0,1,0,1c-1,1,-1,2,-1,3c0,0,-1,0,-1,1l-1,1ZM235.5,519.5l4,-2l-1,1l-4,2ZM228.5,518.5l-1,-1l1,-1l1,1ZM232.5,528.5l-1,0c-1,1,-1,1,-2,1l-1,0l-1,0l-1,0l0,-1c0,0,0,-1,0,-1c0,0,1,0,1,0c1,0,1,0,2,0c0,0,1,0,1,0c0,0,1,0,1,-1l1,0c0,0,0,-1,0,-1c-1,0,-1,-1,-1,-1l-1,0l0,-1l-1,0l-1,-1l1,-2l0,1l1,0l1,1c0,0,1,1,1,1c0,1,0,1,0,2c0,0,1,0,1,0c0,0,0,1,0,1c0,0,0,1,-1,1l0,1ZM228.5,512.5c0,-1,0,-1,0,-2c-1,0,-1,-1,-1,-1l0,-1l1,0l0,1l0,1l0,1c0,0,0,1,0,1ZM216.5,529.5c-1,0,-1,0,-1,0c-1,-1,-1,-1,-1,-2c0,0,-1,1,-1,1c-1,1,-1,1,-2,1c0,0,-1,0,-1,0c0,0,-1,0,-1,0c-1,0,-1,0,-2,0c-1,0,-2,0,-3,0c-1,0,-2,0,-2,0c-1,0,-2,0,-4,0c-1,0,-2,0,-3,0c-1,0,-2,0,-2,0c-1,0,-1,0,-1,0c-1,0,-2,0,-2,0c0,-1,0,-1,-1,-1l0,-1c1,0,1,0,2,0c1,1,1,1,2,1c0,0,1,0,2,0c1,0,2,0,3,0c2,0,3,0,4,0c1,0,2,0,3,0c1,0,2,0,3,-1c0,0,1,0,1,0c0,0,1,0,1,0c0,0,1,0,1,0c0,0,1,0,1,0l1,0c0,0,0,-1,0,-1c0,0,0,-1,0,-1l0,-1l0,-7l1,-2l0,11l1,0c0,0,0,1,0,1c0,0,1,0,1,0c1,0,1,0,1,0c0,0,1,0,1,0l1,0c0,0,0,-1,0,-1l0,-2l-1,-6c0,-1,0,-1,0,-1c0,0,0,-1,0,-1c0,0,1,-1,1,-1c0,1,0,1,0,1c0,0,1,1,1,1l0,1l-1,0l0,1c0,0,0,1,0,1c0,1,1,1,1,3c0,0,0,1,0,1l0,1c0,1,0,1,0,1c0,0,0,1,0,1c0,0,-1,0,-1,0c0,0,0,1,0,1c0,0,-1,0,-1,1l-1,0l-1,0ZM221.5,532.5l-4,2c0,0,0,-1,0,-1l4,-2ZM204.5,525.5l-1,0l-1,0c-1,0,-1,0,-1,0c-1,0,-1,0,-1,0l1,0c0,0,1,0,1,0c1,-1,1,-1,2,-1l-1,0c-1,0,-1,-1,-1,-1c0,-1,0,-1,0,-1c0,-1,0,-1,1,-2l1,0c0,-1,0,-1,1,-1l-1,2c-1,0,-1,0,-1,1c1,0,1,0,1,0l1,0c0,1,0,1,0,1c0,1,0,1,-1,2ZM197.5,519.5l1,0l2,-1l6,-2l4,-1l1,0l0,-1l-1,2l-1,0l-1,1l-2,0l-5,2l-4,2l-1,0ZM273.5,533.5l-1,-1l1,-2l1,1ZM271.5,529.5l-1,0l-1,0c0,0,-1,0,-1,0c0,0,-1,0,-1,-1l0,-1c0,0,0,-1,0,-1l-1,0c0,1,0,1,0,1c0,0,-1,0,-1,0l-1,0c0,0,-1,0,-1,0l-1,0l0,-1c0,-1,1,-1,1,-2c1,0,1,0,2,-1c1,0,1,0,1,0l0,-1l0,-1l1,1l0,1l0,1l0,2c0,0,1,0,1,1l1,0l1,0l1,0c0,0,1,0,1,0c1,0,1,0,1,0l0,-1l0,-1l-1,-1l1,-1l1,1l0,1l0,1c0,0,0,1,0,1c0,0,-1,1,-1,1c0,0,0,1,-1,1c0,0,-1,0,-1,0ZM272.5,535.5l-4,2c1,-1,1,-1,1,-1l4,-2ZM266.5,523.5l0,1l-1,0l-1,1l1,0c0,0,1,0,1,0ZM316.5,533.5l-2,-1l1,-2l2,1ZM313.5,529.5l-1,0l-1,0c-1,0,-1,0,-2,-1c0,0,-1,-1,-1,-2l0,-8l1,-2l0,9l0,1l1,1l1,0l1,0l1,0c1,0,1,0,2,0c0,0,1,0,1,0l0,-1l0,-1l-1,-1l1,-1l0,1l1,0l0,1l0,1c0,0,0,1,0,1l-1,0c0,0,0,1,0,1c0,0,-1,1,-1,1c-1,0,-1,0,-2,0ZM313.5,516.5l5,-2l-1,0l0,1l-4,2ZM305.5,532.5l-2,-1l-1,1l-1,0l1,-2l1,1l1,-1l2,1ZM302.5,529.5l-1,0l-1,0l-1,0c0,0,-1,-1,-1,-1l-1,0l0,-1c0,0,-1,0,-1,1c-1,0,-1,0,-1,0c0,1,-1,1,-1,1l-1,0l-1,0c0,0,-1,0,-1,-1c-1,0,-1,0,-1,-1l0,-1c-1,-1,-1,-1,-1,-1l-1,0c0,0,-1,0,-1,0c0,0,-1,0,-1,0c1,1,1,1,1,1c0,1,1,1,1,1c0,1,0,1,0,1c0,0,0,1,0,1l-2,0c0,0,-1,0,-1,0c-1,1,-2,1,-2,2c-1,0,-1,0,-1,0l0,1l1,2c0,1,0,2,0,3c1,1,1,1,1,2l-1,0l0,1l0,-1c0,0,0,-1,0,-2c0,0,-1,-1,-1,-3c0,-1,0,-1,0,-1l0,-1c0,-1,0,-2,0,-2c0,-1,1,-1,1,-1c0,-1,0,-1,1,-1c1,0,1,0,2,0c0,0,0,-1,-1,-1c-1,0,-1,0,-1,0c0,0,0,1,0,1l-1,0c0,-1,0,-1,1,-1c0,0,0,-1,0,-1l1,0c0,-1,0,-1,0,-1c0,0,1,0,1,0c0,-1,0,-1,0,-1c1,0,1,0,1,0c0,0,1,0,1,0l1,0c0,0,1,0,1,0c0,0,0,1,0,1c0,0,1,1,1,1c0,1,0,1,0,1c1,0,1,0,1,0c1,0,1,0,1,0l1,0c0,0,1,0,1,0c1,-1,1,-1,1,-1l-1,0c0,0,0,-1,-1,-1l-1,0l1,-2c1,0,1,0,2,0l1,0c1,0,1,0,1,0l1,0c0,1,0,1,0,1c0,1,0,1,0,1c0,1,-1,1,-1,1c0,0,0,1,0,1c0,0,1,0,1,0l1,0l1,0l1,0c0,0,1,0,1,0c1,0,1,0,1,0l0,-1l0,-1l0,-1l0,-1c0,0,1,0,1,0l0,1c0,0,0,1,0,1c0,0,0,1,0,1c0,0,0,1,0,1c0,0,0,1,0,1c-1,0,-1,1,-2,1c0,0,-1,0,-1,0ZM302.5,516.5l4,-2l-1,1l-4,2ZM293.5,515.5c0,-1,0,-1,1,-1c0,0,1,0,1,0c1,0,1,0,1,0c1,0,1,1,1,1c0,0,0,1,-1,1l0,1c0,0,-1,0,-1,0c0,0,-1,0,-1,0l-1,0l2,-1c0,0,1,0,1,-1l-1,0c-1,0,-1,0,-2,0l-1,1l0,-1c0,0,1,0,1,0ZM290.5,522.5l-1,-1l-1,1l-2,-1l1,-1l2,1l1,-2l1,1ZM289.5,510.5c0,-1,1,-1,1,-1c0,0,0,-1,1,-1c0,0,0,1,0,1l0,1l0,1l0,1l1,0l-1,1l-1,-1l0,1l-1,0c0,0,0,1,0,1l-1,0l-1,0l1,0l0,-1c0,0,1,0,1,0l0,-1l1,0l-1,0l0,-1l0,-1ZM290.5,510.5l0,1l1,0l0,-1l-1,0ZM263.5,535.5l0,-1c0,0,0,-1,0,-1c0,-1,0,-1,-1,-2l1,0l0,-1c0,0,0,1,0,1c0,1,0,1,1,1l0,1c0,1,0,1,0,1l-1,0c0,0,0,1,0,1ZM279.5,516.5c0,0,1,0,1,0c1,0,1,0,2,0c0,0,1,0,1,0c0,0,1,0,1,1l-1,0c0,0,0,1,0,1c0,0,-1,0,-1,0c0,0,0,1,0,1l-1,0l-1,0l-1,0l2,-1c1,0,1,0,2,-1c-1,0,-1,0,-1,0c0,0,-1,0,-1,0c0,0,-1,0,-1,0c0,0,-1,0,-1,1l0,-1l0,-1ZM79.5,518.5c0,0,1,0,1,0c0,0,1,0,1,0c1,0,1,0,2,0c0,0,0,1,0,1l0,1c-1,0,-1,0,-1,0c-1,0,-1,0,-1,0c0,1,-1,1,-1,1c0,0,-1,0,-1,-1l2,0c0,0,1,-1,1,-1c-1,0,-1,0,-1,0c-1,0,-1,0,-1,0c-1,0,-1,0,-1,0c0,-1,0,-1,0,-1ZM248.5,526.5l0,-1l1,0l1,-1l0,-1l-1,0l0,-2l0,-1l0,-1l1,1c0,1,0,1,0,1l0,1l0,1l0,1l0,1l1,-1c1,-1,1,-1,1,-1c1,0,1,0,1,0c0,1,1,1,1,1c0,0,0,1,0,1c0,0,-1,0,-1,0l0,1l-1,0l-1,0c0,0,-1,0,-1,0ZM252.5,524.5c0,0,-1,0,-1,0l0,1l-1,0c0,0,1,0,1,0c0,0,1,0,1,0c0,0,1,0,1,0l0,-1c-1,0,-1,0,-1,0ZM359.5,528.5l0,-1l0,-1l0,-9l1,-2l0,11c0,1,0,1,0,1c0,1,-1,1,-1,1ZM352.5,529.5c-1,-1,-1,-1,-1,-1c0,0,0,-1,0,-1c0,0,-1,-1,-1,-1l0,1l-1,0c0,1,-1,1,-1,1c-1,0,-1,0,-2,0l-1,0c-1,0,-1,-1,-1,-1c0,0,0,-1,0,-1c0,-1,0,-1,0,-1l1,1c1,0,1,0,1,0l1,0c1,0,1,0,1,0c1,0,1,0,1,0c0,0,1,-1,1,-1c0,0,0,-1,0,-1c0,-1,0,-1,0,-2c-1,-1,-1,-1,-1,-1c0,-1,1,-1,1,-1c0,-1,0,-1,0,-1l0,1c1,1,1,1,1,2c0,1,0,1,0,2c0,1,0,1,0,1l0,1l0,-1c0,1,1,1,1,1c0,1,0,1,0,1c1,1,1,1,1,1c0,0,1,0,1,0c1,0,1,0,1,0l0,-1c0,0,0,-1,-1,-2c0,-1,0,-1,0,-2c0,0,0,-1,0,-1c0,-1,0,-2,0,-2c0,-2,0,-2,0,-3l0,-1c0,0,0,-1,0,-1l1,-1c0,0,0,1,0,1c0,1,0,1,1,1c0,0,0,1,0,1c0,0,-1,0,-1,1c0,0,0,1,0,2c0,0,0,1,0,2c1,1,1,1,1,2l0,1c0,1,0,2,0,2l0,1l-1,0c0,0,0,1,0,1c0,0,0,1,0,1c-1,0,-1,0,-1,0c0,0,-1,0,-1,-1c0,0,-1,0,-1,0ZM354.5,510.5l0,1c1,0,1,0,1,0l0,-1l0,-1l0,1l1,0c0,1,0,1,0,1c0,0,0,-1,0,-1l1,-1l0,1l0,1c0,0,-1,1,-1,1c-1,0,-1,0,-1,0l0,-1l0,1c-1,0,-1,0,-1,0c0,0,-1,0,-1,0l0,-1l0,-1ZM358.5,507.5l-6,3c0,-1,1,-1,1,-1l5,-3ZM349.5,517.5l-2,0l1,-2l2,1ZM347.5,531.5l-4,2c0,0,0,-1,0,-1l5,-2ZM340.5,522.5l0,-1c0,0,-1,0,-1,0l-1,0c0,1,-1,1,-2,2c0,0,-1,1,-1,1c0,0,1,1,1,1c0,0,1,0,1,0l1,1c1,0,1,0,2,0c0,1,0,1,0,1c0,0,0,1,0,1l-1,0c0,1,0,1,-1,1c0,1,-1,1,-1,1c-1,1,-2,1,-3,1c0,1,-1,1,-2,1l-1,0c0,0,-1,0,-1,-1c-1,0,-1,0,-2,0c0,-1,-1,-1,-1,-2c0,0,0,-1,0,-1c0,-1,0,-1,0,-1c0,0,0,-1,0,-2c0,0,1,-1,1,-1c0,-1,0,-1,0,-1l1,-1l0,1c0,1,0,1,-1,1c0,0,0,1,0,1l0,1l0,1c0,0,0,1,0,1l1,1c0,0,2,1,3,1c1,0,2,0,3,-1l2,0c0,0,1,-1,1,-1c0,0,1,0,1,0c0,0,0,-1,0,-1l-2,0c-1,0,-2,0,-2,-1c-1,0,-1,0,-1,-1l0,-1l1,-1l0,-1c1,0,1,0,1,0l0,-1c0,0,1,0,1,0c0,-1,1,-1,1,-1c1,-1,1,-1,2,-1c0,0,0,1,0,1c1,0,1,0,1,0c0,1,0,1,0,1c0,0,0,1,-1,1ZM413.5,532.5l-1,-1l0,-1l2,0ZM411.5,528.5l-1,0l-1,0c0,0,-1,0,-1,0l-1,0c0,-1,0,-1,0,-1c0,0,0,1,-1,1c0,0,-1,0,-1,0l-1,0l-1,0l-1,0l-1,0c0,-1,0,-1,0,-1l-1,0c-1,1,-1,1,-1,1c0,0,-1,0,-1,0l-1,0c0,0,-1,0,-1,0c0,0,-1,0,-1,0c0,-1,0,-1,-1,-1l0,-1c0,1,-1,1,-1,1c-1,0,-1,1,-1,1c-1,0,-1,0,-1,0l-1,0l-1,0c-1,0,-1,0,-2,0c0,0,0,-1,-1,-1l-2,-2c0,-1,-1,-1,-1,-1l0,1c0,0,0,1,0,1c0,0,-1,0,-1,0c0,1,0,1,0,1c0,0,-1,1,-1,1l-1,0l-1,0l-1,0l-2,0c-1,0,-1,0,-1,0c-1,0,-1,0,-1,-1l0,1l0,1l0,1l-1,0l-1,0c0,-1,0,-1,0,-2l-1,-1l-1,0l0,1c-1,0,-1,0,-1,0l0,1l0,1l0,1l1,2l0,2c0,1,0,1,0,2l0,1l0,-1l-1,-1l0,-1l0,-3l0,-1l0,-1l0,-1l0,-1c0,-1,0,-1,0,-2l1,0l1,-1l1,0l0,-1c1,1,2,1,2,2l2,0l1,0l1,0l1,0c1,0,1,0,1,0c0,0,1,0,1,0c1,0,1,0,1,0c0,-1,0,-1,0,-1c0,-1,0,-1,0,-1c0,0,0,-1,-1,-1c-1,-1,-1,-1,-1,-1c-1,0,-1,-1,-1,-1l-1,0l-1,0c0,0,0,-1,0,-1c0,-1,0,-1,0,-1c0,0,0,-1,0,-1l1,0c0,0,0,-1,0,-1c1,0,2,0,3,-1c1,-1,3,-1,4,-2c2,0,3,-1,3,-1c1,0,1,0,1,0l-1,2c-1,0,-2,0,-3,1c-1,0,-3,1,-4,1c-2,1,-2,1,-3,2l1,1c0,0,1,0,1,0l1,1c1,0,2,1,2,1c1,0,1,1,2,1c0,1,1,1,1,2l2,1l1,0l1,0c1,0,1,0,1,0c0,0,1,0,1,0c0,0,1,0,1,-1l-1,0c0,0,-1,0,-1,-1l-1,0l1,-1c1,-1,1,-1,1,-1c1,0,1,0,1,0l1,0c0,0,1,0,1,0c0,0,0,1,1,1c0,0,0,1,0,1l0,1c0,0,-1,0,-1,0l0,1l1,0l1,0l1,0l1,0l1,0l1,0c0,-1,0,-1,0,-1c1,0,1,0,1,0c0,1,0,1,0,1c0,0,1,0,1,0l1,0c1,0,1,0,1,0c1,0,1,0,1,0c1,0,1,0,1,0l0,-1l0,-2l0,-1l1,2c0,0,0,1,0,1l0,1l1,0l1,0l1,0l1,0c1,0,1,0,1,0l0,-1c0,-1,0,-1,0,-1l-1,0l1,-2l1,1l0,1l0,1l0,1c0,1,-1,1,-1,1c0,0,0,1,-1,1c-1,0,-1,0,-1,0ZM412.5,534.5l-4,2c1,0,1,-1,1,-1l4,-2ZM406.5,532.5l-1,-1l1,-1l1,1ZM405.5,518.5l4,-2l0,1l-4,2ZM402.5,531.5l-2,-1l0,2l-2,-1l1,-2l2,1l0,-1l2,1ZM398.5,510.5l1,0c0,0,1,0,1,0c1,0,1,0,1,0c1,0,1,0,1,0c0,1,0,1,0,1l-1,1l-1,0c0,1,-1,1,-1,1c-1,0,-1,0,-1,-1l2,0c0,0,1,-1,1,-1l-1,0c-1,0,-1,0,-2,0c0,-1,0,-1,0,-1ZM394.5,531.5l-4,2c0,0,0,-1,0,-1l5,-2ZM382.5,509.5c0,0,0,-1,0,-1c0,0,1,0,1,0c1,0,1,0,1,1l0,1l-1,0l1,1l0,1l-1,-1l-1,1c-1,1,-1,1,-1,1l-1,0l-1,0l1,0l1,-1l1,0l0,-1c-1,-1,-1,-1,-1,-1c0,-1,0,-1,1,-1ZM383.5,509.5l-1,0l0,1l1,0l0,-1ZM371.5,512.5l1,-1l1,0c0,0,0,1,0,1c0,0,0,1,0,1c0,1,0,1,0,1l0,1l-1,0l-1,1l-1,0l0,1l-1,0l1,-1c0,0,1,0,1,-1l1,0l-1,-1l0,-1l0,-1ZM372.5,513.5l0,-1l0,1ZM331.5,513.5l1,0c0,-1,0,-1,1,-1c0,0,1,0,1,1c1,0,1,0,1,0c0,1,-1,1,-1,1c0,1,0,1,0,1c-1,0,-1,0,-1,0c-1,0,-1,0,-1,0l-1,0l1,0c1,0,2,-1,2,-1c0,0,-1,0,-1,0l-1,0l-1,0l-1,0l0,-1c0,0,1,0,1,0ZM119.5,473.5l-1,-1l1,-2l1,1ZM122.5,480.5l0,1c-1,0,-1,0,-1,1c0,0,-1,0,-2,0c0,0,-1,0,-1,0l-1,0l-2,0c0,0,-1,0,-1,0c-1,-1,-1,-1,-1,-2l-1,-9l1,-2l1,10l0,1c0,1,1,1,1,1l2,0l1,0c0,0,1,0,1,0c1,-1,2,-1,2,-1c1,-1,1,-1,1,-1l-1,0c0,-1,0,-1,0,-1l0,1c-1,0,-1,0,-1,0l-1,0c0,0,-1,0,-1,0c0,0,0,-1,0,-1l0,-1l0,-1c0,-1,1,-1,1,-1c0,-1,1,-1,1,-1c0,0,1,0,1,0c0,1,0,1,1,1l0,1l0,2c0,0,0,1,0,1c0,0,0,1,0,1ZM119.5,476.5c0,0,0,1,0,1l1,0l1,0c0,0,-1,0,-1,-1l-1,0ZM118.5,466.5l4,-2l0,1l-5,2ZM101.5,481.5l0,1c-1,0,-1,0,-1,0c-1,0,-1,0,-1,0c0,0,-1,0,-1,0l-1,0c-1,0,-1,0,-1,0l-1,0l0,-1c0,0,0,1,-1,1l-1,0l-1,0c-1,0,-1,0,-1,0c-1,0,-1,0,-1,0l-1,-1c0,0,0,1,-1,1l-1,0l-1,0l-1,0c0,0,0,-1,0,-1l0,-1l-1,1c0,1,0,1,0,1c-1,0,-1,0,-2,0l-1,0l0,-1c0,1,-1,1,-1,1c-1,0,-1,0,-1,0l0,1c0,0,-1,0,-1,0c0,-1,0,-1,0,-1c0,0,-1,0,-1,0l0,-1l-1,0l0,-1l0,-1l0,1c-1,0,-1,0,-1,0c0,0,-1,1,-1,1l-1,0l0,1l0,1l-1,1c0,0,0,1,0,1c0,0,-1,0,-1,1c0,0,-1,0,-1,1c-1,0,-1,0,-1,0c0,0,-1,0,-1,0l-1,0c0,0,-1,0,-1,0l-1,0c0,-1,0,-1,0,-1c0,0,1,0,1,0l1,0l1,0l1,0c0,-1,0,-1,0,-1c1,0,1,0,1,0c1,-1,1,-1,1,-2c0,0,1,-1,1,-1l0,-1c0,0,1,0,1,0l-1,0l0,-2l1,0l1,0c1,0,1,-1,1,-1c0,0,1,0,1,0l0,-1l1,0c0,0,0,1,0,1l0,1c0,0,0,1,0,1c0,0,1,0,1,0c0,1,0,1,0,1l1,0l1,0l0,-1c1,0,1,0,1,0l0,-1l0,-1l1,1l0,1c0,0,1,0,1,0l1,0l0,-1l1,0c0,1,0,1,0,1c1,0,1,0,1,1l1,0l1,0c0,0,0,-1,1,-1c0,-1,0,-1,0,-1l1,0c0,1,0,1,0,1l0,1c1,0,1,0,2,0l1,0c1,0,1,-1,1,-1c0,0,1,0,1,0c0,-1,0,-1,0,-1c0,1,0,1,0,1c0,0,1,0,1,1c1,0,1,0,1,0l2,0l1,0c0,0,0,-1,1,-1l1,-1l0,1l0,1l1,0c1,0,1,0,1,0c0,0,0,-1,1,-1l0,-1c0,0,1,0,1,0l0,-1l0,1l0,1c1,0,1,0,1,0l0,1l1,0l0,-1l0,-2l1,0l0,1l0,1l0,1l0,1l-1,0c-1,0,-1,0,-1,0c-1,0,-1,0,-1,0l-1,-1l0,1c0,0,-1,0,-1,0c-1,0,-1,0,-1,0c0,0,-1,0,-1,0l-1,0l0,-1ZM102.5,472.5c0,-1,1,-1,1,-1c0,0,1,0,1,0c1,0,1,0,2,0c0,0,0,1,0,1c0,0,0,1,0,1c-1,0,-1,1,-1,1c-1,0,-1,0,-1,0l-1,0c0,0,-1,0,-1,0l2,-1c1,0,1,0,1,0c0,-1,0,-1,0,-1c-1,0,-1,0,-1,0c-1,0,-1,0,-1,0c-1,0,-1,1,-1,1l0,-1ZM96.5,476.5l-1,0l-1,1l-2,-1l1,-2l2,1l1,-1l1,1ZM93.5,469.5l4,-2l0,1l-4,2ZM89.5,486.5l-2,0l1,-2l2,1ZM87.5,472.5c0,-1,0,-1,0,-1c1,0,1,0,2,0c0,0,1,0,1,0c1,0,1,1,1,1c0,1,-1,1,-1,1c0,0,0,1,0,1c-1,0,-1,0,-1,0c-1,0,-1,0,-1,0l-1,0l1,-1c1,0,2,0,2,0c0,-1,-1,-1,-1,-1l-1,0l-1,0c0,1,0,1,-1,1c0,-1,0,-1,0,-1l1,0ZM81.5,474.5l-2,0l1,-2l1,1ZM82.5,477.5l-1,-1l-1,1l-1,-1l1,-1l1,1l1,-2l1,1ZM83.5,486.5l-4,2c0,-1,0,-1,0,-1l4,-2ZM70.5,467.5c0,-1,0,-1,0,-1c1,0,1,-1,1,-1c0,0,0,1,0,1c1,0,1,0,1,1l0,1l-1,0l1,0l0,1l0,1l-1,-1l-1,0l0,1c0,0,-1,1,-1,1l-1,0l-1,0l1,0l1,-1l1,-1l0,-1c0,0,-1,0,-1,0l0,-1c0,0,1,0,1,0ZM71.5,467.5l-1,0l1,1l0,-1ZM65.5,479.5c0,0,-1,0,-1,0c0,0,1,1,1,1l0,-1ZM65.5,486.5c0,0,-1,1,-1,1c-1,0,-2,0,-2,0l-1,0l-1,0c0,0,-1,0,-1,-1c0,0,1,0,1,0l1,0c1,0,1,0,1,0c1,0,1,0,1,0c1,-1,1,-1,1,-1c1,-1,1,-1,1,-1c0,0,0,-1,1,-1c0,-1,0,-1,0,-2c-1,0,-1,1,-1,1c0,0,-1,0,-1,0l0,-1l-1,0c0,-1,0,-1,0,-1c0,0,0,-1,0,-1c0,-1,1,-1,1,-2c1,0,1,-1,1,-1c0,0,1,1,1,1c1,1,1,1,1,1c0,1,0,1,0,1c0,1,0,1,0,2l0,1c0,1,0,1,-1,2c0,1,0,1,0,1c-1,1,-1,1,-1,1ZM58.5,483.5l0,-2l0,-1l-1,-8l1,-3l1,11l0,1c0,1,-1,1,-1,2ZM152.5,483.5l0,-2l0,-1l0,-8l1,-3l0,11l0,1c0,1,0,1,-1,2ZM148.5,482.5c-1,0,-1,0,-1,0c0,0,-1,0,-1,0c0,-1,-1,-1,-1,-2c0,1,0,1,-1,2c0,0,-1,0,-1,0c-1,0,-1,0,-2,0c0,-1,-1,-1,-1,-2c0,1,0,1,-1,1c0,0,-1,0,-1,0c-1,0,-1,0,-2,0c0,0,0,-1,0,-1c0,0,0,-1,0,-1c0,0,1,0,1,-1c0,0,1,0,2,-1l1,-1l0,-1c0,0,0,-1,1,-1l0,1l0,1l0,3l0,1l1,0c0,0,0,1,1,1c0,0,1,-1,1,-1c0,0,0,-1,1,-1c0,0,0,-1,-1,-2c0,-1,0,-1,0,-2c0,-1,0,-1,0,-1l0,-1l1,-1l0,3l0,2l1,1c0,0,0,1,0,1c0,1,1,1,1,1l1,0c1,0,1,0,1,-1l-1,-1l0,-1l0,-1l0,-1l0,-1l0,-1l0,1c0,0,1,1,1,1l0,2c0,1,0,1,0,2c0,0,0,1,0,2l-1,1ZM140.5,477.5l-1,1c0,0,-1,0,-1,0c0,1,0,1,-1,1c1,0,2,0,2,0c1,0,1,0,1,0ZM142.5,469.5l0,1c0,0,1,0,1,0l1,-1l0,-1l0,1c0,0,1,0,1,0c0,0,1,0,1,-1l0,-1l0,1l0,1l0,1l-1,1c0,0,-1,0,-1,-1l0,1c-1,0,-1,1,-1,1c-1,0,-1,-1,-1,-1l0,-1l0,-1ZM140.5,486.5l-4,2c0,-1,1,-1,1,-1l4,-2ZM197.5,482.5l-1,0c-1,0,-1,0,-1,-1l-1,0c0,1,-1,1,-1,1l-1,0l-1,0c0,1,0,1,0,1c0,1,0,1,0,1l0,1l-1,1c-1,1,-1,1,-1,1c-1,0,-1,0,-2,1l-1,0c-1,1,-2,1,-3,1c-1,0,-2,0,-3,0c0,0,-1,0,-2,0c-1,0,-1,0,-2,0c-1,0,-1,0,-2,0c0,0,-1,0,-2,0c-1,0,-1,0,-2,0c-1,0,-2,-1,-2,-1c-2,0,-3,-1,-4,-1c-1,-1,-2,-2,-2,-2c-1,0,-1,-1,-1,-1c1,0,1,0,1,0c1,0,1,1,1,1c1,0,2,1,3,1c0,0,1,0,1,0c1,1,1,1,2,1c0,0,1,0,2,0c0,0,1,1,2,1c0,0,1,0,1,0c1,0,2,0,2,0c1,0,1,0,2,0c1,0,1,0,2,0c1,0,2,-1,3,-1c1,0,2,0,3,0c0,0,1,-1,2,-1c1,0,1,-1,2,-1c0,0,0,-1,0,-1l0,-1l-1,-2l1,-1l1,1l1,0c1,0,1,0,1,0l1,-1l0,-1c1,0,1,-1,1,-1l0,-1c1,0,1,0,1,0c1,0,1,0,1,1c0,0,1,0,1,1l0,1c0,1,0,1,0,1c0,0,-1,1,-1,1ZM195.5,480.5l1,0l1,0c0,-1,0,-1,-1,-1c0,0,-1,0,-1,0c0,1,0,1,0,1ZM196.5,486.5l-4,2c0,-1,0,-1,1,-1l4,-2ZM178.5,483.5l-2,-1l1,-2l2,1ZM169.5,473.5l1,0l2,-1l6,-2l4,-2l1,0l-1,2l-1,0l-1,0l-2,1l-5,2l-4,1l-1,0ZM247.5,486.5l-2,-1l1,-1l1,1ZM244.5,482.5l-1,0c-1,0,-1,0,-1,0c-1,0,-1,0,-1,0c-1,0,-1,0,-1,-1l-1,0l-1,1l-1,0l-1,0l-1,0l-1,0l-1,1l-1,0c1,0,1,0,1,1l0,1c0,0,0,1,-1,2c0,0,0,1,-1,1c0,0,-1,-1,-1,-1c0,0,-1,-1,-1,-1c0,-1,-1,-2,-1,-3c-1,0,-1,-1,-1,-1l-1,0l-2,0l-1,0l-1,0l0,-1l0,-1l0,1l-1,0l0,1c-1,0,-1,0,-2,0c0,0,-1,0,-1,0l-1,0l-1,0c-1,0,-1,-1,-1,-1l0,-1l0,-1l1,0c0,0,0,1,0,1l1,0l1,0l1,0c0,0,1,0,1,0c1,0,1,0,1,0l1,-1l-1,-1l0,-2l0,-1l0,-1l1,-1l0,2l0,1l1,3c0,1,0,1,0,1c0,1,0,1,1,1l2,0l1,0l1,0l1,0c0,-1,0,-1,0,-2l0,-1c1,0,1,0,1,0c1,-2,1,-2,2,-2c0,-1,0,0,1,0l0,1l0,1c0,0,-1,1,-1,1c0,1,-1,2,-2,2l2,0l1,0l1,0l1,0l1,0l1,0l0,-1l1,0l0,-1c-1,0,-1,0,-1,0c-1,0,-1,0,-1,0l1,-2c0,0,1,0,1,0c0,-1,1,-1,1,-1c0,0,1,0,1,0c0,0,0,1,0,1l1,0l0,1c0,0,1,0,1,0c0,0,-1,0,-1,1l0,1l-1,0c0,0,1,0,1,0l0,1l1,0l1,0l1,0c1,0,1,0,2,0c0,-1,1,-1,1,-1c0,-1,0,-1,0,-1l-1,0c0,0,0,-1,0,-1l1,-2c0,0,0,1,0,1l0,1l1,0l0,1l0,1l-1,0c0,0,0,1,0,1c0,1,-1,1,-1,1c-1,0,-1,0,-2,0ZM246.5,489.5l-4,2c0,-1,0,-1,0,-2l4,-1ZM238.5,469.5l4,-2l0,1l-4,2ZM231.5,477.5l0,1c0,0,-1,0,-1,0l0,1l-1,1c1,0,2,0,2,-1c1,0,1,0,1,-1c0,0,-1,-1,-1,-1ZM229.5,483.5l0,1c0,0,1,1,1,1l1,1c1,0,1,0,1,-1c0,0,0,-1,-1,-2c0,0,-1,0,-2,0ZM230.5,467.5l1,0l1,0c0,0,1,0,1,0c1,0,1,0,1,0c0,1,0,1,0,1l-1,1c0,0,-1,0,-1,0c-1,1,-1,1,-1,1l-1,0l2,-1c0,0,1,-1,1,-1l-1,0c-1,0,-1,0,-2,0l-1,0l1,0c0,-1,0,-1,0,-1ZM219.5,486.5l-5,2c1,-1,1,-1,1,-1l4,-2ZM210.5,483.5c0,0,-1,0,-1,-1c-1,0,-1,-1,-1,-2l0,-1l0,-1l1,0l1,-2c0,0,0,-1,0,-1c1,0,1,1,2,1c0,1,1,1,1,2l0,1c0,2,-1,3,-2,3c0,1,0,1,-1,1ZM210.5,478.5l-1,0c0,0,0,1,0,1l0,1l1,1l1,0l0,-1c1,0,1,0,1,0c0,0,0,-1,0,-1c-1,-1,-1,-1,-2,-1ZM294.5,483.5l0,-2l0,-1l-1,-8l1,-3l1,11l0,1c0,0,-1,0,-1,0c0,1,0,1,0,2ZM292.5,467.5l4,-3l0,1c0,0,0,1,0,1l-5,2ZM288.5,479.5c0,0,0,1,0,1c0,0,1,0,1,-1c0,0,-1,0,-1,0ZM288.5,486.5c0,0,0,1,0,1c-1,0,-1,0,-1,0c-1,0,-1,0,-2,0c0,0,-1,0,-2,0l-1,-1c1,0,1,0,1,0c1,0,1,0,1,0c0,0,1,0,1,0c1,0,1,0,1,0l1,0c0,-1,0,-1,1,-1c0,-1,0,-1,1,-1c0,0,0,-1,0,-1c1,-1,1,-1,1,-2c0,0,-1,0,-1,0c0,0,0,1,0,1c0,0,-1,0,-1,0l-1,0l0,-1c0,-1,0,-1,0,-1c0,0,0,-1,0,-1c0,-1,0,-1,0,-2c0,0,1,0,1,0c0,0,0,-1,1,-1c0,0,0,1,0,1c1,0,1,0,1,0c0,1,0,1,0,1c0,1,0,1,0,1c1,1,1,1,1,2c0,0,-1,0,-1,1c0,1,0,1,0,2c0,1,-1,1,-1,1c0,1,0,1,-1,1ZM285.5,468.5l1,0l1,0c0,0,1,0,1,0c1,0,1,0,1,0l0,1c0,0,-1,0,-1,1c-1,0,-1,0,-1,0c-1,0,-1,0,-1,0l-1,0l1,0c1,0,2,-1,2,-1l-1,0c-1,0,-1,0,-2,0l-1,0l0,-1c1,0,1,0,1,0ZM280.5,473.5l-1,-1l0,-1l2,1ZM282.5,479.5c-1,0,-1,0,-1,1c0,0,-1,0,-1,0c-1,0,-1,0,-1,0c0,-1,0,-1,0,-1c-1,0,-1,0,-1,-1c0,0,0,-1,0,-1l1,0c0,-1,0,-1,0,-1c1,-1,1,-1,1,-1c1,0,1,0,1,0c1,1,1,1,1,2l1,1c0,1,0,1,0,1l0,1c0,1,-1,1,-1,1c0,1,0,1,-1,2c1,0,1,0,1,0c1,0,1,0,1,0c1,0,1,0,1,1c-1,1,-1,1,-1,1l0,1c0,0,-1,0,-1,0c-1,1,-1,1,-2,1c-1,1,-2,1,-2,1c-1,0,-2,0,-2,0c0,0,-1,1,-2,1c0,0,-1,0,-1,0c-1,0,-1,0,-1,0c0,0,-1,0,-1,0c-1,0,-1,0,-1,0c-2,0,-2,0,-3,0c-1,0,-2,0,-3,-1c-1,0,-1,0,-2,0c-1,0,-1,0,-2,-1c-1,0,-1,0,-2,0c0,-1,-1,-1,-1,-1c0,-1,-1,-1,-1,-1c-1,-1,-1,-1,-1,-1l1,0c1,0,1,1,2,1c0,0,1,0,1,1c1,0,1,0,1,0c1,0,2,0,2,0c1,1,2,1,3,1c0,0,1,0,2,0c1,0,2,0,3,0l1,0c1,0,2,0,2,0c1,0,1,0,2,0c1,0,1,0,2,0c0,0,1,-1,2,-1c1,0,1,0,1,0c1,0,1,-1,1,-1c1,0,1,0,1,0c0,-1,-1,-1,-1,-1c-1,0,-1,0,-1,0c0,0,-1,0,-1,0c0,0,0,-1,0,-1c0,-1,0,-1,1,-1c0,0,1,0,1,0c0,-1,0,-1,1,-1c0,-1,0,-1,0,-1c0,-1,0,-1,0,-1ZM279.5,477.5l0,1c0,0,1,0,1,0l1,0c0,-1,0,-1,0,-1c-1,0,-1,0,-1,0c0,0,-1,0,-1,0ZM273.5,469.5c0,2,0,2,0,3l0,-1l0,-1c0,0,0,-1,0,-1l-1,-1l0,-1l1,0l0,1l0,1ZM326.5,479.5c0,0,-1,0,-1,0c1,0,1,1,1,1l1,-1c-1,0,-1,0,-1,0ZM326.5,486.5c0,0,0,1,0,1c-1,0,-1,0,-1,0c-1,0,-1,0,-2,0c-1,0,-1,0,-2,0l-1,-1c1,0,1,0,1,0c0,0,1,0,1,0l1,0c1,0,1,0,1,0l1,0c0,-1,0,-1,1,-1c0,-1,0,-1,0,-1c1,0,1,-1,1,-1c0,-1,1,-1,1,-2c0,0,-1,0,-1,0c0,0,0,1,0,1c-1,0,-1,0,-1,0c0,0,-1,0,-1,0l0,-1c-1,-1,-1,-1,-1,-1c0,0,0,-1,1,-1c0,-1,0,-1,0,-2c0,0,1,0,1,0c0,0,0,-1,1,-1c0,0,0,1,0,1c0,0,1,0,1,0c0,1,0,1,0,1c0,1,0,1,0,1c0,1,0,1,0,2l0,1c0,1,0,1,0,2c-1,1,-1,1,-1,1c0,1,-1,1,-1,1ZM323.5,473.5l4,-2c0,1,0,1,0,1l-4,2ZM319.5,482.5l-1,0l-1,-1l-1,0c0,1,0,1,-1,1l-1,0l-2,0c0,1,0,1,0,1c0,0,0,1,0,1c0,1,0,2,0,2c-1,1,-1,1,-2,2c0,0,-1,1,-1,1c-1,0,-2,0,-3,0c0,0,-1,0,-2,0c0,0,-1,0,-1,-1c0,0,-1,0,-1,-1c0,0,0,-1,0,-1c0,-1,0,-1,0,-1l0,-1l0,-1l0,-1c1,0,1,0,1,0l0,1l0,1c-1,0,-1,0,-1,1c1,0,1,1,1,1l1,1c1,0,2,1,3,1c0,0,1,-1,2,-1c1,0,1,0,2,-1c0,-1,0,-1,0,-1c0,-1,0,-1,0,-1c0,-1,0,-1,0,-1c0,0,0,-1,0,-1l-1,-1l1,-1c1,1,1,1,2,1l1,0l1,0l1,-1l1,-1c0,0,0,-1,1,-1l0,-1l1,0l0,1c1,0,1,0,1,1l0,1c0,1,0,1,0,1c0,0,0,1,-1,1ZM318.5,480.5l1,0c0,-1,0,-1,0,-1c0,0,-1,0,-1,0l-1,0c0,1,0,1,1,1ZM315.5,469.5l4,-2l0,1l-1,0l-4,2ZM307.5,480.5l-1,-1l1,-1l1,1ZM306.5,467.5c1,0,1,0,1,0c1,0,1,0,2,0c0,0,1,0,1,0c0,0,1,0,1,0c0,1,0,1,0,1c-1,0,-1,0,-1,1l-1,0l-1,0c0,1,0,1,0,1l-1,0l1,-1c1,0,1,-1,2,-1c0,0,-1,0,-1,0c0,0,-1,0,-1,0c0,0,-1,0,-1,0c0,0,-1,0,-1,0c0,-1,0,-1,0,-1ZM209.5,491.5c0,-1,0,-1,0,-2c-1,-1,-1,-1,-1,-2l1,0l0,1l0,1c0,0,0,1,0,1c0,1,0,1,0,1ZM143.5,466.5l0,-1c0,0,0,-1,0,-1c0,-1,0,-2,-1,-2l1,-1l0,1c1,0,1,1,1,1l0,1c0,0,0,1,0,1c-1,0,-1,0,-1,1ZM61.5,470.5l1,0c0,0,1,0,1,0c1,0,1,0,1,0c1,0,1,0,1,1c0,0,0,1,-1,1c0,1,-1,1,-1,1c0,0,-1,0,-1,0l-1,0l2,-1c0,0,1,0,1,-1l-1,0c-1,0,-1,0,-2,0l0,1l0,-1l0,-1ZM395.5,479.5c0,0,0,1,0,1l1,0c0,0,0,-1,-1,-1ZM395.5,487.5l0,1c0,0,-1,0,-1,0c0,0,-1,0,-1,0l-1,0c0,0,-1,0,-1,0c-1,0,-1,0,-1,-1l1,0c1,0,1,0,1,0c0,0,1,0,1,0c0,0,1,0,1,-1c0,0,1,0,1,0c0,-1,1,-1,1,-1c0,0,0,-1,0,-1c1,-1,1,-1,1,-2l-1,0c0,1,0,1,-1,1l0,-1c-1,0,-1,0,-1,0c0,-1,0,-1,0,-1c0,-1,0,-1,0,-1c0,-1,0,-1,0,-2c1,0,1,0,1,0c0,-1,1,-1,1,-1l1,1c0,1,0,1,0,1c1,1,1,1,1,1c0,1,0,1,0,2c0,1,-1,2,-1,3c0,1,0,1,-1,1c0,1,0,1,-1,1ZM393.5,474.5l4,-2c-1,0,-1,1,-1,1l-4,2ZM389.5,483.5l0,-1l0,-1l-1,-8l1,-3l1,11l0,1c0,0,-1,0,-1,0c0,1,0,1,0,1ZM381.5,482.5c0,0,1,0,1,0c0,0,1,0,1,-1c1,0,1,0,1,-1l0,-2l-1,-6c0,0,0,-1,0,-1l0,-1l1,0c0,0,0,1,0,1c0,0,1,0,1,0c0,0,0,1,0,1c0,0,-1,1,-1,1c0,0,0,1,0,2c0,0,0,1,0,3c0,0,1,0,1,1l0,1l-1,1c0,0,0,1,0,1c0,0,0,1,-1,1c0,0,-1,0,-1,0l-1,0l-1,0l-1,0c-1,0,-2,0,-2,0c0,0,-1,0,-1,0c0,0,-1,0,-2,0c0,0,-1,0,-1,0l-1,0c-1,0,-1,0,-1,0c0,1,0,1,0,1l0,1c0,0,0,1,-1,1c0,1,0,1,0,1c-1,0,-1,1,-1,1c0,0,-1,1,-1,1c0,0,-1,0,-1,0c0,0,-1,0,-1,0c-1,0,-1,0,-2,0c0,0,-1,-1,-1,-1c0,0,1,0,1,0l1,0c0,0,1,0,1,0c1,0,1,0,1,-1c1,0,1,0,1,0c0,-1,1,-1,1,-1c0,0,0,-1,0,-1c1,0,1,-1,1,-1c0,-1,0,-1,0,-1c0,-1,-1,-1,-1,-1c0,0,0,-1,1,-1l0,-1l0,1l1,0c0,1,0,1,0,1l1,0l1,0c0,0,1,0,1,0c0,0,0,-1,1,-1c-1,0,-1,0,-1,0l0,-1c0,0,0,-1,1,-1c0,-1,0,-1,0,-1c0,-1,1,-1,1,-1c0,-1,1,-1,1,-1c1,0,1,0,1,1c1,0,1,1,1,1l0,1c0,1,0,1,-1,2c0,1,0,1,0,1c0,0,1,0,1,0l1,0ZM381.5,465.5c0,0,1,0,1,0c1,0,1,0,1,0c1,0,1,0,2,0l0,1c0,0,0,1,0,1c0,0,-1,0,-1,0c0,1,0,1,0,1c0,0,-1,0,-1,0l-1,0l-1,0l2,-1c1,0,1,0,2,-1c-1,0,-1,0,-1,0c0,0,-1,0,-1,0c0,0,-1,0,-1,0c0,0,-1,0,-1,1l0,-1l0,-1ZM377.5,475.5l-1,-1l-1,1l-1,-1l1,-1l1,1l1,-1l1,1ZM377.5,478.5c-1,0,-1,0,-1,0c-1,1,-1,1,-1,1c0,0,0,1,0,1c1,0,1,0,1,1c1,-1,1,-1,1,-1c1,0,1,0,1,0l0,-1c-1,-1,-1,-1,-1,-1ZM377.5,464.5l0,-1c1,0,1,0,1,0l1,0c0,0,0,1,0,1l0,1c0,0,0,1,-1,1l1,0l0,1l-1,0l-1,1c0,0,-1,0,-1,0l0,1l-1,0l0,-1l1,0c0,-1,0,-1,0,-1l1,0l0,-1c0,0,-1,-1,-1,-1c0,0,1,0,1,-1ZM378.5,464.5l-1,0c0,0,0,1,0,1l1,0ZM366.5,473.5c0,-1,0,-1,1,-1l1,0c0,0,1,0,1,0c1,0,1,1,1,1c0,0,-1,1,-1,1l0,1c-1,0,-1,0,-1,0c-1,0,-1,0,-1,0l-1,0l1,-1c1,0,2,0,2,-1c0,0,-1,0,-1,0l-1,0l-1,0c0,0,0,1,-1,1l0,-1l1,0ZM362.5,483.5l0,-1l0,-1l0,-8l0,-3l1,11l0,1c0,1,-1,1,-1,1ZM353.5,477.5l-1,-1l1,-1l1,1ZM353.5,487.5c0,0,-1,0,-1,-1c-1,0,-1,0,-2,0c0,-1,0,-1,-1,-1c0,-1,0,-2,0,-2c0,-1,0,-1,0,-1c0,-1,0,-1,0,-1c0,0,0,-1,1,-1c0,0,0,-1,0,-1l1,0c0,0,-1,1,-1,1c0,0,0,1,0,1c0,0,0,1,0,1c0,0,0,1,0,1c0,0,1,1,1,1c1,0,1,0,1,0c0,1,1,1,2,1c0,0,1,0,2,-1c0,0,1,0,1,-1c1,0,1,0,1,0c0,0,0,-1,0,-1c0,-1,0,-1,0,-1c0,-1,0,-1,-1,-1c0,-1,0,-1,0,-1c0,0,0,-1,0,-1l-1,0l1,-2l1,1c0,1,0,1,0,1c0,1,1,1,1,1c0,1,0,1,0,1l0,1c0,1,0,2,-1,2c0,1,0,2,-1,2c0,1,-1,1,-2,1c0,1,-1,1,-2,1ZM356.5,489.5l-5,2c1,0,1,-1,1,-1l4,-2ZM361.5,468.5l1,-1c0,0,-1,-1,-1,-1c0,-1,0,-2,0,-2l0,-1c1,0,1,0,1,1c0,0,0,1,0,1l0,1c0,1,0,1,0,1l-1,1ZM341.5,481.5c0,0,-1,0,-1,0l-1,1l-1,0l1,0c0,0,1,0,1,0c1,0,1,0,2,0l0,-1c0,0,-1,0,-1,0Z" class="g2_42" />
</svg>