<?xml version="1.0" encoding="UTF-8" standalone="no"?>
<!DOCTYPE svg PUBLIC "-//W3C//DTD SVG 1.1//EN"
"http://www.w3.org/Graphics/SVG/1.1/DTD/svg11.dtd">
<svg version="1.1" xmlns="http://www.w3.org/2000/svg" xmlns:xlink="http://www.w3.org/1999/xlink">
<defs>
<style type="text/css"><![CDATA[
.g1_18{
stroke: #1F1A17;
stroke-width: 1;
stroke-linecap: butt;
stroke-linejoin: miter;
}
]]></style>
</defs>
<path fill-rule="evenodd" d="M357.5,94.5l-2,-1l1,-1l2,1ZM119.5,134.5l1,-1l1,0c0,0,1,0,1,0c1,1,1,1,1,1c0,1,-1,1,-1,1c0,1,0,1,0,1c-1,0,-1,0,-1,0c-1,0,-1,0,-1,0l-1,0l1,0c1,-1,2,-1,2,-1c0,0,-1,0,-1,0c0,-1,0,-1,-1,-1c0,0,0,1,-1,1l-1,0c0,0,0,-1,0,-1l1,0ZM88.5,123.5l-1,0l0,1c0,0,-1,0,-1,0c0,0,0,1,0,1l0,1l1,0c0,0,0,1,0,1l1,0l1,0c0,0,1,0,1,0l-1,0c0,0,-1,0,-1,0l-1,0c0,0,-1,0,-1,0c0,0,0,-1,0,-1l0,-1c0,0,0,-1,0,-1c0,0,0,-1,1,-1c-1,0,-1,0,-1,0l0,-1c0,0,0,-1,0,-1c0,0,1,0,1,0c0,0,1,0,1,0l-1,0c0,0,0,1,0,1c0,0,-1,0,-1,0l1,1l1,-1l1,0ZM102.5,143.5c0,1,0,2,0,3l-1,0l0,1l0,1l1,0l-1,1l-1,0l0,1l-1,0c0,0,0,1,-1,1l-1,0l-1,1c-1,0,-1,0,-1,0l-1,1l-1,1l-3,0l-3,0l-1,0c-1,0,-1,0,-1,-1l-1,-1l-1,0c-1,-1,-1,-1,-2,-1l-1,0l0,-1l-1,0l0,-1l-1,0l-1,0l0,-1l1,0l0,-1l-1,-1l0,-1c0,-1,0,-1,0,-1l0,-1l0,-1c0,0,0,-1,0,-1c0,-1,0,-1,1,-1l0,-1l-1,0l1,-1l1,-1l1,0l0,-1l2,0l1,-1l1,0l1,-1c0,-1,0,-1,1,-1l1,0l3,0l3,0l1,1l1,1l1,0l1,1l1,0c1,0,1,0,1,1l1,0l0,1c1,0,2,0,2,1l-1,0l0,1l1,1l0,1l0,1ZM93.5,154.5l0,-1l1,0l0,-1l1,0l0,-1c1,0,1,0,2,0l1,0c0,-1,1,-1,1,-1l1,-1l1,0l0,-1l-1,0l0,-1l1,0l0,-1l1,0l0,-1l0,-1l0,-1c0,0,0,-1,0,-2c0,0,-1,0,-1,0l0,-1l-1,-1l2,0c-1,-1,-1,-1,-2,-1l0,-1l-1,0l-1,-1l-1,0l-2,-1l-1,-1l-1,0c0,-1,0,-1,0,-1l-1,0l-2,0l-1,0l-2,0l-1,0l-1,1l-1,1l-1,0l-1,1l-1,0l-1,1l-1,0l0,1c-1,0,-1,0,-2,1l1,0l1,0l-1,0l0,1l0,1l-1,0l0,1l0,1l0,1l0,1l0,1l1,0l0,1l1,0l0,1l-1,0l-1,0l1,0l0,1l1,0l0,1l1,0l1,1l1,0l1,0c1,1,1,1,1,1l1,0l0,1c0,0,1,1,1,1l1,0l3,0ZM99.5,139.5l-1,0l-1,-1l-1,0c0,0,-1,0,-1,0c1,-1,1,-1,1,-1l-1,0c1,0,1,0,1,0l1,0c0,0,1,0,1,1l1,0ZM99.5,148.5l0,1l-1,0l0,1l-1,0l-1,0l-1,0c1,0,1,0,1,-1l1,0c1,0,1,-1,1,-1l1,0ZM94.5,150.5c0,1,0,1,0,1c0,1,0,1,-1,1l-3,0l-3,0l-1,0c-1,0,-1,0,-1,-1l-1,0l0,-1l1,0c0,0,0,-1,1,-1l1,0l3,0l3,0c0,0,1,0,1,0l0,1ZM94.5,137.5c0,1,0,1,-1,1l-3,0l-3,0l-1,0c-1,0,-1,0,-1,-1l-1,0c0,-1,0,-1,1,-1l0,-1l1,0l1,0l3,0l3,0c1,0,1,0,1,1ZM93.5,139.5l1,0c0,0,1,0,1,0c0,0,1,0,1,0l1,1l2,0l0,1l1,0l0,1l0,1l0,1c0,1,0,1,0,1l0,1l-1,0l0,1l-1,0c0,0,-1,0,-1,0l0,1l-1,0l-1,0l-1,0l-1,0l-3,0l-3,0l-1,0l-1,0l-1,0c-1,0,-1,0,-1,0c-1,0,-1,0,-1,-1l-1,0l-1,0l-1,-2l0,-1l0,-1c0,-1,0,-1,0,-1l0,-1l1,0l0,-1l1,0c0,0,1,0,1,0l0,-1l1,0l1,0c0,0,1,0,1,0l1,0l1,0l3,0ZM93.5,147.5l0,1l1,0l1,0c0,0,1,0,1,0l1,-1c0,0,0,-1,0,-1l2,1l0,-1l0,-1l1,-1l0,-1c0,0,0,-1,-1,-1c0,-1,0,-1,0,-1c0,-1,0,-1,0,-1l-2,1c0,0,0,-1,0,-1l-1,-1l-1,0c0,0,-1,0,-1,0l-1,0l0,1l-3,0l-3,0l-1,0l0,-1l-1,0l-1,0l-1,0l-1,1c0,0,-1,1,-1,1l-1,-1l0,1l-1,1l0,1l0,1l0,1l1,0c0,1,0,2,0,2l1,-1c0,0,1,1,1,1l0,1l1,0l1,0c0,0,1,0,1,0l1,0l0,-1l1,0l3,0l3,0ZM91.5,142.5c1,0,1,0,1,0l0,1l0,1l0,1l1,0l-1,1c0,0,0,-1,0,-3c0,1,-1,1,-1,1c0,0,-1,-1,-1,-1l1,-1ZM91.5,142.5c0,1,0,1,0,1l1,0l0,-1c-1,0,-1,0,-1,0ZM90.5,142.5c0,0,0,1,0,1c-1,0,-1,0,-1,0l-1,0l1,1l0,1l0,1c-1,0,-1,0,-1,0l0,-1l0,-1l0,-1l-1,0l1,-1l1,0c0,0,1,0,1,0ZM86.5,142.5l1,1l0,1l0,1c0,1,0,1,0,1c-1,0,-1,0,-1,0l1,-1c0,-1,-1,-2,-1,-2ZM80.5,139.5l0,-1l1,0l0,-1l1,0l1,0l0,1l-1,0l-1,0l0,1l-1,0ZM80.5,148.5l1,0c0,0,0,1,1,1l1,1l-1,0c0,0,-1,0,-1,-1l-1,0l0,-1ZM154.5,146.5l0,-1l0,-1l-1,-9l1,-2l1,11c0,0,0,1,0,1c-1,0,-1,1,-1,1ZM146.5,144.5c1,0,1,0,1,0c0,0,1,0,1,0l1,0c0,0,0,-1,0,-1l0,-2l-1,-6l0,-1c0,0,0,-1,0,-1c0,0,1,-1,1,-1c0,0,0,1,0,1c0,1,1,1,1,1l0,1l0,1l-1,-1c0,1,0,1,0,1c0,0,0,1,0,2c0,0,1,1,1,2c0,1,0,1,0,1l0,2c0,1,0,1,0,1c0,0,-1,0,-1,0c0,1,0,1,0,1c0,0,-1,1,-1,1l-1,0l-1,0c-1,0,-1,0,-1,0c-1,0,-1,0,-1,-1c-1,0,-1,0,-1,0l-1,-1c0,0,0,1,0,1l-1,0l-1,1l-1,0l-1,0l-10,0l0,1c-1,0,-1,1,-1,1l0,-1l0,-1l-1,0c-1,0,-1,0,-1,0c-1,0,-1,0,-1,-1c-1,0,-1,0,-1,-1c0,1,0,1,-1,2l-1,0l-1,0c-1,0,-1,0,-2,0c0,0,0,-1,0,-1c0,1,-1,1,-1,2c-1,0,-1,0,-2,-1c0,0,-1,0,-1,0l-1,1l-1,1c0,0,-1,0,-2,1c-1,0,-2,0,-4,0l5,-2l1,-1c1,0,1,0,1,-1l1,-1c0,-1,1,-2,1,-2l1,0c1,0,1,0,1,1c1,0,1,1,2,1c1,0,1,0,1,0l1,0l1,0l1,0l0,-1l0,-1l1,0l0,1c0,1,0,1,1,1l1,0l1,0c0,0,1,0,1,0c0,0,0,-1,0,-2l1,0l-1,-2l0,-1l0,-3l0,-2c0,0,0,-1,0,-1l0,-1l1,2c0,1,0,1,0,2l0,1l0,1l0,1l0,1l0,1l0,1l0,1l1,-1l1,-1l1,0c1,-1,1,-1,1,-1l1,0c1,0,1,0,2,1l1,1c0,0,0,1,0,1c-1,0,-1,0,-1,1l-1,1l2,-1l1,0c1,0,1,0,1,0l1,0l1,0c0,0,0,-1,0,-1c-1,0,-1,-1,-1,-1c-1,0,-1,0,-1,0l1,-1c0,-1,1,-1,1,-1c0,0,1,0,1,0l1,0l1,0l0,1l0,1c0,1,0,1,0,1l-1,0c0,1,0,1,1,1l1,0l1,0ZM146.5,128.5c1,0,1,0,1,0c1,0,1,0,2,0c0,0,1,0,1,0c0,0,1,0,1,0l0,1c-1,0,-1,0,-1,1l-1,0l-1,0l-1,0l1,0c1,0,1,-1,2,-1c0,0,-1,0,-1,0c0,0,-1,0,-1,0c0,0,-1,0,-1,0c0,0,-1,0,-1,0l0,-1ZM141.5,133.5l4,-2l0,1l-4,2ZM132.5,139.5l-1,-1l1,-2l1,1ZM135.5,143.5l0,-1l-1,0l-1,0c0,0,-1,0,-1,0l-1,1l-1,0l-1,1l1,0c0,0,1,0,1,0c0,0,1,0,1,0l1,0c1,0,2,-1,2,-1ZM131.5,149.5l-4,2c0,0,0,-1,0,-1l4,-2ZM125.5,149.5l-2,-1l-1,2l-1,-1l1,-2l1,1l1,-1l2,1ZM117.5,145.5l0,-1l-1,0c0,-1,0,-1,0,-1c0,0,-1,0,-1,0c0,1,0,1,0,1l1,0l0,1ZM116.5,152.5l-4,2c0,-1,0,-1,0,-1l4,-2ZM204.5,146.5l0,-1l0,-1l0,-9l1,-2l0,11c0,0,0,1,0,1c0,0,-1,1,-1,1ZM197.5,144.5l1,0c1,0,1,0,1,0c0,0,0,-1,0,-1l0,-2l0,-6l-1,-1c0,0,1,-1,1,-1c0,0,0,-1,0,-1c0,0,0,1,0,1l1,0c0,1,0,1,1,1c-1,0,-1,0,-1,1l0,1l0,-1c0,1,0,1,0,1c0,0,0,1,0,2c0,0,0,1,0,2c0,1,0,1,0,1l0,2c0,1,0,1,0,1c0,1,0,1,-1,1c0,0,0,1,0,1c-1,0,-1,0,-1,0c-1,0,-1,0,-1,0l-1,0c0,0,-1,0,-1,0c0,0,-1,0,-1,-1c0,0,-1,0,-1,0l0,-1c-1,0,-1,1,-1,1l-1,0l0,1c-1,0,-1,0,-1,0l-1,0l-1,0c0,1,0,1,-1,1c0,1,0,2,0,2c0,0,-1,1,-1,1l-1,1l-1,0c0,0,0,1,0,1c-1,0,-1,0,-2,0c0,0,-1,0,-2,-1l1,0c1,0,1,0,2,0c0,-1,0,-1,1,-1l1,-1c1,-1,1,-1,1,-1c0,-1,0,-1,1,-2l0,-1c-1,0,-1,0,-1,0l0,-1c0,0,0,-1,0,-1l1,0c0,0,0,1,0,1c0,0,1,0,1,0l1,0c1,0,1,0,1,0l1,0c0,0,0,-1,1,-1l-1,0c0,0,-1,-1,-1,-1l-1,0l1,-1c1,-1,1,-1,1,-1c1,0,1,0,1,0l1,0l1,0l0,1c0,0,1,0,1,0l0,1c-1,1,-1,1,-1,1c0,1,0,1,0,1l1,0l1,0ZM197.5,128.5l1,0c0,0,1,0,1,0c1,0,1,0,1,0c1,0,1,0,1,0l0,1l-1,1c0,0,-1,0,-1,0c0,0,-1,0,-1,0l-1,0l2,0c0,0,1,-1,1,-1l-1,0c-1,0,-1,0,-2,0l0,-1ZM192.5,133.5l4,-2l-1,1l-4,2ZM182.5,135.5c0,0,1,0,1,0c0,0,1,0,1,0c1,0,1,0,2,0c0,1,0,1,0,1l0,1c-1,0,-1,0,-1,0c0,0,-1,0,-1,1l-1,0l-1,0l2,-1c1,0,1,-1,2,-1c-1,0,-1,0,-1,0c-1,0,-1,0,-1,0c0,0,-1,0,-1,0c-1,0,-1,0,-1,0c0,-1,0,-1,0,-1ZM175.5,137.5l-1,-1l1,-1l1,1ZM177.5,140.5l-2,-1l0,1l-2,-1l1,-2l2,1l0,-1l2,1ZM165.5,153.5c-1,-1,-1,-1,-1,-1c-1,0,-1,0,-1,-1c0,0,0,-1,-1,-1l0,-1l0,-1l1,0l0,-1l0,-1l1,-1c0,1,0,1,0,1c0,0,0,1,-1,1l0,1c0,1,0,1,1,1c0,1,0,1,0,1l1,1c0,0,1,0,1,0c1,0,1,0,2,0l1,0c0,0,1,0,1,0c0,-1,1,-1,1,-1c0,0,1,0,1,-1l0,-1l0,-1l0,-1l0,-1l-1,0l1,-2l1,1c0,0,1,0,1,0c1,0,1,0,2,0c1,-1,1,-1,1,-1l0,-1l0,1l1,0c0,1,0,1,0,1l1,0c1,0,1,0,1,0l-1,-1l1,-1l0,1l0,1l0,1l0,1c0,0,-1,0,-1,0l-1,0l-1,-1l-1,0c0,1,0,1,-1,1c0,0,-1,0,-1,0l-1,0l0,1c0,0,0,1,0,1l0,1l0,1c0,0,-1,0,-1,0c0,1,0,1,0,1c-1,1,-1,1,-1,1c-1,0,-1,0,-2,1l-1,0l-1,0l-1,0l-1,0ZM172.5,154.5l-4,2c0,0,0,-1,0,-1l1,0l4,-2ZM228.5,149.5c0,0,1,0,1,0l1,0c1,0,1,0,2,-1c1,0,1,0,2,-1c0,0,1,-1,1,-1c0,0,0,-1,0,-1l0,-1l0,-1l-1,-1l1,-1l0,-1l0,1c0,0,1,1,1,1l0,1l0,1c0,1,0,1,0,2c0,1,0,1,-1,1c0,1,0,1,0,1c0,0,-1,1,-1,1l-1,1c-1,0,-1,0,-1,0c0,0,-1,0,-1,0l-1,0c0,0,-1,0,-1,0l-1,0l0,-1ZM231.5,136.5l4,-2l0,1l-1,0l-4,2ZM221.5,150.5l-2,-1l1,-1l1,1ZM228.5,144.5c-1,0,-1,1,-2,1c-1,1,-2,1,-3,1c-1,0,-2,1,-4,1c-1,0,-2,0,-3,-1c-1,0,-2,0,-3,-1l0,-1c-1,0,-1,0,-1,0c0,0,0,-1,0,-1l0,-1c0,0,1,0,1,-1c0,0,0,-1,1,-1c0,0,0,1,0,1c-1,1,-1,1,-1,1c0,0,0,1,1,1c0,1,1,1,1,1c1,0,1,0,1,1l1,0l1,0l2,0c1,0,2,0,2,0c0,0,1,-1,1,-1c0,0,1,0,1,0l1,0c1,0,1,-1,2,-1c0,0,1,0,1,-1l0,-1c0,0,-1,0,-1,0c0,0,0,-1,0,-1c1,-1,1,-1,1,-1l1,1c0,0,0,1,0,1l0,1c0,0,0,1,0,1c0,0,-1,1,-1,1ZM219.5,136.5l0,1l1,0l0,-1l0,-1l0,1l1,0c0,0,0,1,0,1c0,0,0,-1,0,-1l1,-1l0,1l0,1l-1,1c0,0,-1,0,-1,0l0,-1l0,1c0,0,-1,0,-1,0l-1,0l0,-1l0,-1ZM220.5,131.5c0,0,0,-1,1,-1l1,0l0,1l0,1l0,1l0,1l-1,-1l-1,1c0,1,0,1,-1,1l-1,0c1,0,2,-1,3,-2l-1,0c0,-1,0,-1,0,-1c0,-1,0,-1,0,-1ZM221.5,131.5l-1,0c0,0,1,0,1,1c0,-1,0,-1,0,-1ZM267.5,142.5c-1,0,-1,0,-1,0l0,1l1,0c0,0,0,-1,0,-1ZM267.5,150.5c-1,0,-1,0,-1,0l-1,1c0,0,-1,0,-1,0l-1,0c0,0,-1,0,-1,-1c-1,0,-1,0,-1,0l1,0c1,0,1,0,1,0c0,0,1,0,1,0c1,-1,1,-1,1,-1c0,0,1,0,1,-1c1,0,1,0,1,-1l1,-1c0,0,0,-1,0,-1l0,-1c0,1,0,1,0,1c0,0,-1,0,-1,0l-1,0c0,0,-1,0,-1,0c0,0,0,-1,0,-1c0,0,0,-1,0,-1c0,0,0,-1,0,-1c0,0,0,-1,1,-1c0,0,0,-1,0,-1c1,0,1,0,1,0c0,0,1,0,1,0c0,0,0,1,0,1c0,0,1,1,1,1c0,0,0,1,0,1c0,0,0,1,0,1c0,0,0,1,0,1c0,1,-1,2,-1,3c0,0,0,1,-1,1l0,1ZM264.5,136.5l4,-2l0,1l-1,0l-4,2ZM260.5,145.5c0,0,-1,0,-2,0c0,0,-1,0,-1,0l-1,0l-1,0c0,0,0,1,-1,1l-1,0c0,0,-1,0,-1,0l-2,0c0,0,0,1,0,1c0,0,0,1,0,1c-1,1,-1,1,-1,1c0,1,-1,1,-1,1c0,1,-1,1,-1,1c-1,0,-1,0,-1,0c0,0,-1,0,-1,0c-1,0,-1,0,-2,0c0,0,-1,0,-1,0l0,-1c0,0,1,0,1,1l1,0c0,0,1,-1,1,-1c0,0,1,0,1,0c1,-1,1,-1,1,-1c0,0,1,0,1,-1l1,0c0,-1,0,-1,0,-1c0,0,0,-1,0,-1c-1,0,-1,0,-1,0c-1,0,-1,0,-1,0c0,0,0,-1,-1,-1c0,0,0,-1,0,-1c0,0,1,0,1,0c0,-1,0,-1,0,-1c0,0,0,-1,0,-1l1,0c0,0,0,-1,0,-1c1,0,1,0,1,0c0,1,1,1,1,1l0,1c0,1,0,1,0,1c1,0,1,0,1,0c1,0,1,0,1,0c1,0,1,0,1,0l1,0l1,0c-1,0,-1,-1,-1,-1c0,0,0,-1,0,-1c0,0,1,0,1,0c0,-1,0,-1,0,-1c0,0,0,-1,0,-1c0,0,1,0,1,0l0,-1c0,0,0,-1,0,-1c1,0,2,0,2,1c1,1,1,1,2,1c0,1,1,1,1,2l0,1c0,1,0,1,0,1l0,1c0,0,-1,0,-1,0ZM257.5,141.5c-1,0,-1,0,-1,0l-1,1l1,1c1,0,1,0,1,0c0,0,0,-1,0,-1l0,-1ZM258.5,141.5c0,0,0,1,0,1l0,1l2,1c0,0,0,-1,0,-1l-1,-1c0,0,-1,0,-1,-1ZM253.5,127.5c0,0,1,-1,1,-1l1,0l0,1l0,1l0,1l1,0l-1,1l-1,-1l0,1l-1,0c0,1,0,1,0,1l-1,0l-1,0l1,0l0,-1c0,0,1,0,1,0l0,-1l1,0l-1,0c0,-1,0,-1,0,-1c0,-1,0,-1,0,-1ZM254.5,127.5l0,1l0,-1ZM248.5,143.5l-1,0c0,1,0,1,0,1l1,0c0,0,1,0,1,0c0,-1,0,-1,0,-1c-1,0,-1,0,-1,0ZM245.5,136.5l4,-2l-1,1l-4,2ZM340.5,138.5l-2,-1l0,1l-2,-1l1,-1l1,1l1,-2l2,1ZM338.5,146.5l-1,0l-2,0c0,0,0,1,0,1c0,0,0,1,-1,1c0,1,0,1,0,1c0,1,-1,1,-1,1c0,1,-1,1,-1,1l-1,0c-1,0,-1,0,-1,0c-1,0,-1,0,-2,0c0,0,-1,0,-1,0l0,-1c0,0,1,0,1,1l1,0c0,0,1,-1,1,-1c0,0,1,0,1,0c1,-1,1,-1,1,-1c0,0,1,0,1,-1l1,0c0,-1,0,-1,0,-1c0,0,0,-1,0,-1c-1,0,-1,0,-1,0c-1,0,-1,0,-1,0c0,0,0,-1,-1,-1c0,0,0,-1,0,-1c0,-1,1,-1,1,-1c0,0,0,-1,0,-1l1,0c0,0,0,-1,0,-1c1,0,1,0,1,0c0,1,0,1,1,1l0,1c0,1,0,1,0,1c1,0,1,0,1,0c0,0,1,0,1,0l1,0c0,0,1,0,1,0c1,0,1,0,1,0l0,-1l0,-1l-1,-1l1,-1c0,0,1,0,1,0l0,1l0,1l0,1c0,1,0,1,0,1c0,1,0,1,-1,1c0,0,0,1,-1,1c0,0,-1,0,-1,0ZM338.5,130.5l4,-2c0,1,-1,1,-1,1l-4,2ZM333.5,143.5c0,0,-1,0,-1,0c0,1,0,1,0,1c1,0,1,0,1,0l1,0c0,-1,0,-1,-1,-1ZM329.5,136.5l5,-2l-1,1l-4,2ZM325.5,145.5c-1,0,-1,0,-3,0c0,0,-1,0,-3,0c-2,0,-3,0,-3,0l-1,0c0,1,-1,1,-1,1c-1,0,-3,0,-4,0c-1,0,-3,0,-4,0c-1,0,-2,0,-2,0l-1,0l-1,0c0,0,-1,0,-1,0c0,-1,-1,-1,-1,-2c0,1,0,1,-1,2l-1,0c-1,0,-1,0,-1,0c0,0,-1,0,-1,0c0,-1,0,-1,0,-1c0,0,-1,0,-1,0l-1,0c0,1,-1,1,-2,1l-2,1c-1,0,-1,0,-1,0l-1,0l-1,0c-1,0,-3,0,-3,0c-2,-1,-2,-1,-3,-1c0,-1,0,-1,-1,-1c0,-1,0,-1,0,-1c0,0,0,-1,0,-1c0,-1,0,-1,0,-1c1,-1,1,-1,1,-2l1,0l0,1c0,0,-1,0,-1,0c0,1,0,1,0,1c0,1,0,1,0,2c1,0,1,0,2,1c0,0,1,0,1,0c0,0,1,0,1,0c1,0,2,0,3,0c1,0,1,0,2,0c0,0,1,0,2,0c1,0,1,0,1,0c1,-1,1,-1,2,-1c1,-1,1,-1,1,-1l0,1l1,0l1,0l1,0l1,-1l0,-1c0,-1,0,-1,0,-1l-1,-7l1,-2l1,11c0,0,0,1,0,1c0,0,1,0,1,0l1,0c1,0,1,0,1,0c1,0,2,0,3,0c1,0,2,0,3,0c1,0,3,0,4,0l2,0c1,0,2,0,3,0c1,-1,3,-1,4,-1c1,0,2,0,2,0c0,0,1,0,1,0l0,-1c-1,0,-1,0,-1,0l-1,0l-1,0c-1,0,-2,0,-4,0c-2,0,-4,0,-6,0c-2,0,-3,1,-4,1c-2,0,-4,-1,-4,-1l0,-1l0,-1c0,-1,1,-1,1,-1c0,0,0,-1,1,-1c0,-1,1,-1,2,-2c1,-1,2,-1,3,-2l1,0l-1,2l-1,0c-1,1,-2,1,-3,2c-1,1,-1,1,-2,2c0,1,0,1,0,1c1,0,1,0,1,0c0,0,1,0,1,0c1,0,1,0,1,0c1,0,3,0,5,0c2,0,4,-1,6,-1c1,0,3,0,3,0c1,0,1,0,1,0c0,0,1,0,2,0c0,1,0,1,0,1c0,0,1,0,1,0c0,1,0,1,0,1c0,1,0,1,0,2c-1,1,-1,1,-1,1ZM309.5,130.5l0,1l1,0c0,0,1,0,1,0l0,-1l0,-1l0,1c1,0,1,1,1,1c0,0,0,-1,0,-1l0,-1l1,0l0,1l0,1c-1,0,-1,0,-1,1l-1,0l0,-1l0,1c-1,0,-1,0,-1,0c0,0,-1,0,-1,0l0,-1l0,-1ZM314.5,127.5l-6,3c0,-1,1,-1,1,-1l5,-3ZM298.5,124.5c0,0,1,0,1,0c1,0,1,0,1,0c1,0,1,0,2,0l0,1c0,0,0,1,0,1c0,0,-1,0,-1,1c0,0,-1,0,-1,0l-1,0l-1,0l2,-1c1,0,1,0,2,-1c-1,0,-1,0,-1,0c0,0,-1,0,-1,0c0,0,-1,0,-1,0c0,0,-1,0,-1,1l0,-1l0,-1ZM290.5,141.5l-2,-1l-1,1l-1,-1l1,-1l1,0l1,-1l1,1ZM287.5,127.5c0,-1,0,-1,0,-1c1,0,1,0,1,0c1,0,1,0,1,1l0,1l-1,0l1,1l0,1l-1,-1l-1,1c0,1,-1,1,-1,1l-1,0l-1,0l1,0l1,-1l1,-1c0,-1,-1,-1,-1,-1c0,-1,1,-1,1,-1ZM288.5,127.5l-1,0l0,1l1,0l0,-1ZM376.5,143.5c0,0,-1,1,-2,1c-1,1,-2,1,-3,1c-1,1,-2,1,-3,1l-1,0c0,0,-1,0,-1,0c-1,-1,-1,-1,-1,-2c0,1,-1,1,-1,2c0,0,-1,0,-1,0l-1,0c0,0,-1,0,-1,0l-1,0l0,-1c0,0,-1,0,-1,0c-1,1,-1,1,-2,1l-1,0c0,0,-1,0,-1,0c-1,0,-1,0,-1,-1l0,-1c-1,0,-1,0,-1,0c0,0,0,-1,0,-1l0,1l-1,0l-1,0c-1,0,-1,0,-2,0l0,-1c0,-1,0,-1,1,-2c0,0,1,0,2,-1c0,0,1,0,1,0l0,-1l-1,0c0,0,1,0,1,0l0,-1l0,1c0,0,1,0,1,1c0,0,0,1,0,1l0,2l0,1l1,0c0,0,1,0,1,0c1,0,1,0,1,0c1,0,1,0,2,0l0,-1c0,0,1,0,1,0l0,1c0,0,1,0,1,0l1,0l1,0c1,0,1,0,1,-1c1,0,1,0,1,0l0,-1c0,-1,0,-1,0,-1l-1,-7l1,-2l1,11c0,0,0,1,0,1c1,0,1,0,1,0l1,0c1,0,2,0,2,0c0,0,-1,-1,-1,-1c0,-1,0,-1,0,-1c0,-1,0,-1,0,-1c0,0,0,-1,0,-1l1,0l0,-1c0,0,1,-1,1,-1l1,0l1,0l1,0c1,0,1,0,1,1l1,0l-1,0l-1,0l-1,0l-1,0l-1,0l0,1c0,0,-1,0,-1,0c0,1,0,1,0,1c0,0,1,0,1,1c0,0,1,1,2,1l1,0c0,-1,1,-1,1,-1l1,0l1,-1ZM368.5,133.5l4,-2l0,1l-4,2ZM362.5,130.5l4,-2c0,1,0,1,0,1l-4,2ZM361.5,149.5l-2,-1l-1,2l-1,-1l1,-2l1,1l1,-1l1,1ZM356.5,128.5c1,0,1,0,1,0c1,0,1,0,2,0c0,0,1,0,1,0c1,0,1,0,1,0l0,1c0,0,-1,0,-1,1l-1,0c-1,0,-1,0,-1,0l-1,0l1,0c1,0,2,-1,2,-1c0,0,-1,0,-1,0l-1,0c0,0,-1,0,-1,0l-1,0l0,-1ZM353.5,141.5l-1,0l-1,1c0,0,-1,0,-1,1l1,0l1,0l0,-1c0,0,1,0,1,0ZM353.5,149.5l-4,2c1,0,1,-1,1,-1l4,-2ZM154.5,100.5l-4,2c0,0,0,-1,0,-1l4,-2ZM151.5,99.5l0,-2l1,-1l-1,-8l1,-3l0,11c0,0,0,1,0,1c0,1,0,1,-1,2ZM130.5,102.5l-3,2c0,-1,0,-1,0,-1l4,-2ZM128.5,100.5l0,-1l0,-1l0,-8l1,-3l0,11c0,1,0,1,0,1c0,1,0,1,-1,1ZM355.5,85.5c1,0,1,0,1,-1c1,0,1,0,2,0c0,0,1,0,1,0c0,1,1,1,1,1c-1,1,-1,1,-1,1c0,1,0,1,-1,1l-1,0l-1,0l1,0c1,-1,1,-1,2,-1c0,0,-1,0,-1,0c0,0,-1,-1,-1,-1c0,0,-1,1,-1,1l-1,0c0,0,0,-1,0,-1ZM79.5,98.5l0,-1l1,0c1,-1,1,-1,1,-1l0,-1l0,-1l-1,-1l0,-1c0,-1,0,-1,0,-1l1,0l0,1l0,1l0,1l0,1l0,1l1,0l0,-1c1,0,1,0,1,0c1,0,1,0,1,0c1,0,1,0,1,0l0,1l-1,0c0,1,0,1,0,1c-1,0,-1,0,-2,0c0,1,0,1,-1,1ZM83.5,96.5l-1,0l-1,0l0,1c1,0,1,0,1,0l1,0c0,-1,1,-1,1,-1c0,0,-1,0,-1,0ZM195.5,87.5c0,-1,0,-1,0,-1c0,0,1,-1,1,-1l0,1c1,0,1,0,1,0c0,1,0,1,0,1l0,1c0,0,-1,0,-1,0l1,0l0,1l0,1l-1,-1l-1,0l0,1c-1,0,-1,1,-1,1l-1,0c0,0,-1,0,-1,0l1,0l1,-1l1,-1l0,-1c-1,0,-1,0,-1,0l0,-1l1,0ZM196.5,87.5l-1,0l1,1l0,-1ZM201.5,85.5l0,1l1,0l1,-1l0,-1l0,1l0,1c1,0,1,0,1,0c0,0,0,-1,1,-1l0,-1c0,1,0,1,0,1l0,1c0,1,0,1,-1,1l-1,0l-1,0c0,1,0,1,-1,1c0,-1,0,-1,0,-1c0,0,0,-1,0,-1l0,-1ZM202.5,83.5l0,-1c0,0,0,-1,0,-1c0,-1,0,-1,0,-2l0,-1c0,0,0,1,1,1c0,1,0,1,0,1l0,1c0,1,0,1,0,1c0,0,-1,1,-1,1ZM188.5,88.5c0,0,-1,0,-1,0c0,1,-1,1,-1,1c-1,0,-1,0,-2,0l-1,0c0,0,-1,0,-1,0l-1,0l-1,-1c0,1,0,1,-1,1c0,1,-1,1,-1,1l1,0c0,0,1,0,1,0c0,0,1,0,1,0l1,0c1,0,1,0,2,0c1,0,1,0,2,0l2,0l-1,0c0,0,-1,0,-1,1c-1,0,-1,0,-1,0c-1,0,-1,0,-1,0c-1,0,-1,0,-1,0l-2,0l-2,0c0,0,-1,0,-1,0c0,0,0,-1,0,-1l0,-1l1,-1l1,0c0,0,0,-1,0,-1l0,-2l1,-1l0,3c0,1,0,1,0,1l1,0c0,0,1,0,1,0c0,1,0,1,0,1c1,-1,2,-1,2,-2c1,0,1,0,2,0c0,0,1,0,1,0c0,1,0,1,0,1ZM187.5,88.5c-1,0,-1,0,-1,0c0,0,-1,0,-1,0c0,0,-1,0,-1,1l1,-1c1,0,2,0,2,0ZM178.5,98.5c1,0,1,0,1,0c1,0,1,0,1,0c0,0,0,-1,0,-1c0,0,1,0,1,0l0,-1l-1,0l0,-1l1,0l0,1c0,1,0,1,0,1l0,1c0,0,-1,0,-1,0l0,1c-1,0,-1,0,-1,0c0,0,-1,0,-1,0ZM180.5,94.5l0,-1l1,1ZM183.5,98.5c0,-1,0,-1,0,-1l1,-1l0,1c0,0,0,1,0,1c0,0,1,0,1,0c1,0,1,0,1,0c1,0,1,0,1,0l0,-1l0,-1l0,1l-1,0l0,-1c0,0,0,-1,0,-1l1,0c0,1,0,1,0,1c1,0,1,1,1,1l-1,0c0,0,0,1,0,1c0,0,0,1,-1,1c0,0,-1,0,-1,0c-1,0,-1,0,-1,0l-1,0c0,-1,0,-1,0,-1ZM187.5,94.5l-1,0l0,1l-1,-1l1,0l1,-1l0,1ZM106.5,99.5l-1,0c0,0,-1,0,-1,0c-1,0,-1,-1,-2,-1l-1,1c-1,0,-1,0,-1,0c0,0,-1,0,-1,0c0,0,-1,1,-1,1c0,0,-1,0,-1,0l-1,0l-1,1l0,1c0,0,0,1,-1,1c0,0,0,1,-1,1c-1,1,-1,1,-1,1c0,0,-1,0,-1,0l-1,0c0,0,-1,0,-2,0c0,-1,0,-1,0,-1l1,0c1,0,1,0,1,0c1,0,1,0,2,-1l1,0c0,-1,0,-1,0,-1c1,0,1,-1,1,-1l0,-1c0,0,1,0,1,0c-1,0,-1,0,-1,0c-1,0,-1,0,-1,-1c-1,0,-1,0,-1,-1l0,-1l0,-1c0,0,1,0,1,0c0,-1,0,-1,0,-1c1,0,1,0,1,0l1,0l0,1c0,0,1,1,1,1c0,0,0,1,0,1c0,0,1,0,1,0l1,0c0,0,1,0,1,0l1,0l0,-1c0,-1,0,-1,0,-1c0,0,0,-1,0,-1c0,0,0,-1,0,-1c0,0,1,0,1,0c0,-1,0,-1,0,-1l0,-1c0,0,1,0,1,0c0,0,0,-1,0,-1c0,1,1,1,2,2c0,0,1,1,1,1c1,0,1,1,1,1c0,1,0,1,1,1c0,0,0,1,0,1c0,0,0,1,0,1c0,0,-1,0,-1,0c0,1,0,1,0,1ZM102.5,95.5l-1,0l0,1l1,1c0,-1,0,-1,0,-1c1,0,1,0,1,0c0,-1,-1,-1,-1,-1ZM104.5,95.5l0,1c0,0,-1,1,-1,1l2,0l1,0l-1,0c0,-1,0,-1,0,-1c0,0,-1,0,-1,-1ZM99.5,80.5c0,-1,1,-1,1,-1c1,0,1,1,1,1c0,0,0,1,0,1c-1,1,-1,1,-1,1l1,0l0,2l-1,-1l-1,0l0,1c-1,0,-1,0,-1,1l-1,0c-1,0,-1,0,-1,0l1,-1l1,0l0,-1l1,0l0,-1c-1,0,-1,0,-1,-1l1,-1ZM100.5,81.5l0,-1l-1,0l0,1l1,0l0,1l0,-1ZM94.5,97.5c-1,0,-1,0,-1,0l0,1c1,0,1,0,1,0c1,0,1,0,1,0l0,-1c-1,0,-1,0,-1,0ZM90.5,90.5l4,-2c0,1,0,1,0,1l-4,2ZM123.5,98.5l0,1c-1,0,-1,0,-1,0l1,0l1,0l0,-1ZM124.5,101.5l-1,0c0,0,-1,0,-1,0c0,0,-1,0,-1,0c-1,0,-1,0,-1,0l-1,0c0,0,0,-1,0,-1l0,-1c0,0,1,0,1,0c1,0,1,0,1,0c0,0,1,-1,1,-1c0,0,1,-1,1,-1c0,0,-1,0,-1,-1l-1,-1c0,0,0,-1,-1,-1c0,-1,-1,-1,-1,-2c-1,0,-1,0,-1,0c0,-1,-1,-1,-1,-1c-1,0,-1,0,-1,0c0,0,-1,0,-1,-1l0,-1c0,-1,0,-1,0,-1l0,-1c0,0,1,0,1,0c0,1,0,1,1,1c0,1,1,1,1,2c1,1,2,1,2,2c1,0,1,1,2,2c0,0,1,1,1,1c0,0,0,1,0,1c0,0,1,-1,1,-1c0,-1,0,-2,0,-2c0,-1,0,-1,0,-2c0,0,0,-1,0,-1c0,-1,0,-1,0,-2c0,-1,0,-1,0,-1c0,-1,0,-1,1,-1c0,1,0,1,0,1c0,0,1,0,1,1l0,1c0,0,-1,0,-1,0l0,1c0,0,0,1,0,1c0,1,0,1,0,1c0,1,0,1,0,2c0,0,-1,1,-1,1c0,1,0,1,0,2c0,0,0,1,0,1c0,1,0,1,0,1c0,1,0,1,0,1l0,1ZM121.5,84.5l0,1l1,0c0,-1,0,-1,0,-1l0,-1l0,1c0,0,1,0,1,0l0,-1l1,-1l0,1l0,1c0,1,0,1,-1,1c0,0,-1,0,-1,0c0,1,-1,1,-1,1l-1,0l0,-1l0,-1ZM125.5,81.5l-6,3c1,-1,1,-2,1,-2l5,-3ZM145.5,100.5c0,0,-1,0,-1,-1c0,0,-1,0,-1,0c0,0,0,-1,0,-1c0,-1,0,-1,-1,-1c0,0,0,1,0,1c0,0,-1,0,-1,0l-1,0c0,0,-1,0,-1,0l-1,0l0,-2c0,0,1,0,1,-1c0,0,1,-1,2,-1c0,-1,1,-1,1,-1l0,-1l0,-1l1,1c0,1,0,1,0,1c0,1,0,1,0,2l0,2c1,0,1,1,1,1c1,0,1,0,1,0c1,0,1,0,1,0c1,0,1,0,1,0c1,0,1,-1,1,-1l0,-2l0,-7c0,0,-1,0,-1,0c0,-1,0,-1,1,-1c0,-1,0,-1,0,-1c0,1,0,1,0,1c1,0,1,0,1,0c0,1,0,1,0,2c0,1,0,1,0,2c0,0,0,1,0,3c0,0,0,1,0,1l0,1c0,0,0,1,0,1c0,1,0,1,0,1c0,0,-1,0,-1,1l-1,0c-1,1,-1,1,-1,1l-1,0ZM147.5,84.5l0,-1c0,0,0,-1,0,-1c0,-1,0,-2,-1,-2l1,0l0,-1c0,0,0,1,1,1c0,0,0,1,0,1l0,1l0,1c0,0,-1,0,-1,1ZM142.5,94.5l-1,1l-1,0c0,1,0,1,0,1l1,0l1,0ZM139.5,87.5l4,-3l0,1l0,1l-5,2ZM169.5,98.5l0,1c0,0,-1,0,-1,0c1,0,1,0,1,0l1,0c0,0,-1,0,-1,-1ZM170.5,101.5c0,0,-1,0,-1,0c-1,0,-1,0,-1,0c0,0,-1,0,-2,0c0,0,-1,0,-1,0c0,0,0,-1,0,-1l0,-1l1,0c1,0,1,0,1,0c0,0,0,-1,1,-1c0,0,0,-1,1,-1c-1,0,-1,0,-1,-1c0,0,-1,0,-1,-1c0,0,-1,-1,-1,-1c0,-1,-1,-1,-2,-2c-1,-1,-1,-1,-1,-1c0,0,-1,0,-1,0c0,0,-1,0,-1,-1l0,-1c0,-1,0,-1,0,-1l0,-1c1,1,1,1,2,1c0,1,1,1,1,2c1,1,2,1,2,2c1,0,1,1,2,2c0,0,0,1,1,1c0,0,0,1,0,1c0,0,0,-1,0,-1c1,-1,1,-2,1,-2c0,-1,0,-1,0,-2c0,0,0,-1,0,-1c0,-1,0,-1,0,-2c0,-1,0,-1,0,-1c0,-1,0,-1,1,-1c0,1,0,1,0,1l1,1l-1,1l0,1c0,0,0,1,0,1c0,1,0,1,0,1c0,1,0,1,0,2c-1,0,-1,1,-1,1c0,1,0,1,0,2c0,0,0,1,0,1c0,1,0,1,0,1c0,1,0,1,0,1l0,1ZM169.5,84.5l4,-2l-1,1l-4,2ZM166.5,85.5c-1,0,-2,1,-3,1l-1,0l0,-1l-1,0c-1,1,-1,1,-1,1l-1,0c0,0,1,0,1,-1l1,-1c0,0,1,0,1,0c1,1,1,1,2,1l1,-1l1,0ZM211.5,100.5l0,-1l0,-1l-1,-9l1,-2l1,11c0,0,0,1,-1,1c0,0,0,1,0,1ZM206.5,99.5c0,0,0,1,0,1c-1,0,-1,0,-2,-1c0,0,0,-1,0,-2c0,1,-1,2,-1,2c-1,1,-1,1,-2,1c-1,0,-1,0,-1,-1c-1,0,-1,-1,-1,-2c0,1,0,1,0,1c-1,0,-1,0,-1,1c-1,0,-1,0,-2,0c0,0,-1,0,-1,0c-1,0,-1,-1,-1,-1c0,-1,0,-1,1,-1c0,-1,0,-1,1,-1c0,0,0,-1,1,-1l1,-1l0,-1l1,0c0,-1,0,-1,0,-1l0,1l0,1l0,2c0,1,1,1,1,1c0,0,0,1,0,1c0,0,1,0,1,0c1,0,1,0,1,0c1,-1,1,-1,1,-1c0,-1,0,-2,0,-3c0,0,0,-1,0,-1c0,-1,0,-1,0,-1c0,0,-1,0,-1,-1l1,0l0,-1l1,2l0,2l0,2c0,0,0,1,0,1c1,0,1,0,2,1c1,0,1,0,1,-1c0,0,0,-1,0,-1l-1,-2l0,-1l0,-1c0,0,0,-1,0,-1l1,-1c0,0,0,1,0,1c0,1,0,1,0,2l1,1c0,1,0,2,0,2c0,1,0,2,-1,2c0,0,0,1,0,1l-1,0ZM198.5,95.5c0,0,-1,0,-1,1c-1,0,-1,1,-1,1c1,0,1,0,2,0c0,0,0,-1,1,-1ZM271.5,98.5l-2,0c0,0,-1,0,-1,0l-1,0c0,0,-1,0,-1,0l-1,1l-1,0l-1,1l-1,0c-1,0,-2,0,-2,0l-1,0l-1,0l-1,0c0,0,0,-1,0,-1l0,-1l0,1c-1,0,-1,0,-1,1c-1,0,-1,0,-1,0c-1,0,-2,0,-2,-1l0,1c-1,0,-1,0,-2,0l0,1c-1,0,-1,-1,-2,-2l0,1c-1,0,-2,0,-3,0c0,0,-1,0,-1,0l-1,0l0,-1c-1,0,-1,0,-1,0c0,0,-1,0,-1,0c-1,1,-1,1,-1,1c0,1,0,1,1,1l1,0c0,0,1,0,1,0c0,0,0,1,0,1c0,1,0,1,0,1c-1,0,-1,0,-1,0l0,1c0,0,-1,0,-1,0c-1,1,-1,1,-2,1c-1,1,-2,1,-2,1c-1,0,-1,0,-2,0c0,0,-1,1,-1,1c-1,0,-2,0,-2,0c-1,0,-1,0,-1,0c0,0,-1,0,-1,0c-1,0,-1,0,-1,0c-1,0,-2,0,-3,0c-1,0,-2,0,-3,-1c-1,0,-1,0,-2,0c0,0,-1,0,-2,-1c0,0,-1,0,-1,0c-1,-1,-2,-1,-2,-1c0,0,-1,-1,-1,-1c0,-1,-1,-1,-1,-1l1,0c1,0,1,1,2,1c0,0,1,0,2,1l1,0c0,0,1,0,1,0c1,1,2,1,3,1c1,0,1,0,2,0c1,0,2,0,3,0l1,0l1,0c0,0,1,0,1,0c1,0,1,0,2,0c1,0,2,0,2,0c1,0,1,-1,2,-1c1,0,1,0,1,0c1,0,1,-1,1,-1c1,0,1,0,2,0c-1,-1,-1,-1,-2,-1c-1,0,-1,0,-1,0c-1,-1,-1,-1,-1,-1c1,0,1,0,1,-1l-1,0c1,-1,1,-1,2,-2c1,0,2,-1,3,-1c0,1,1,1,1,1l0,1c0,0,1,0,1,0l1,0l1,0c1,-1,1,-1,2,-2c0,1,0,1,0,1c0,0,1,1,1,1c1,0,1,0,2,-1l0,-1l1,0c0,0,0,1,0,1c0,0,1,0,1,0c0,0,1,0,1,0l0,-1c1,0,1,0,1,0c1,1,1,2,2,2l1,0l1,0c0,0,1,0,1,-1c1,0,1,0,2,0l1,0l1,-1l-1,0l-1,-1l-1,0l-1,0l-1,0l-1,0c1,0,1,-1,1,-1c0,0,1,0,1,-1l1,0c0,0,1,0,1,0l0,1l1,0l2,1c1,0,1,0,1,0c1,0,1,0,2,0l1,0l1,0ZM263.5,87.5l4,-2l-1,1l-4,2ZM250.5,90.5c0,-1,1,-1,1,-1c1,0,1,0,1,0c1,0,1,0,2,0c0,0,0,1,0,1c0,1,0,1,0,1c0,0,-1,1,-1,1l-1,0l-1,0l-1,0l2,-1c1,0,1,0,2,0c-1,-1,-1,-1,-1,-1c0,0,-1,0,-1,0c0,0,-1,0,-1,0c0,0,-1,1,-1,1l0,-1ZM246.5,105.5l-1,-1l1,-1l1,1ZM248.5,106.5l-4,2c0,0,0,-1,0,-1l4,-2ZM223.5,91.5l1,0l3,-1l5,-2l5,-2l1,0l-2,2l-1,0l-1,0l-1,1l-6,2l-4,1ZM303.5,91.5l-2,-1l1,-2l2,1ZM305.5,99.5l-1,1c0,0,-1,0,-1,0c-1,0,-2,0,-2,0l-1,0l-1,0l-1,0c-1,0,-1,0,-2,0l-1,0c0,0,-1,0,-1,0c-1,0,-2,0,-3,0l-1,0l-1,0c0,0,0,-1,0,-1l0,1l0,1c0,1,-1,1,-1,2c0,0,0,1,-1,1l-1,1l-1,0l-1,1c0,0,-1,0,-1,0l-1,0c-1,0,-1,0,-1,0l0,-1c-1,0,-1,0,-1,0c-1,-1,-1,-1,-1,-1c0,-1,0,-1,0,-2c0,0,0,-1,0,-1c0,-1,0,-1,0,-2l1,0l0,-1l0,1c0,1,0,1,0,1c0,0,-1,1,-1,1c0,1,1,1,1,2c1,0,1,1,2,1c0,0,1,0,1,0c1,0,2,0,3,-1c1,0,1,-1,2,-1l0,-1l0,-3c0,0,0,-1,0,-2l0,-1l-1,-6l1,-2l1,10c0,0,0,1,0,1c0,0,1,1,1,1l1,0l1,0c1,0,1,0,1,0c0,0,1,0,1,-1l-1,0c0,-1,0,-1,0,-1c0,0,1,-1,1,-1c0,-1,0,-1,0,-1c1,-1,1,-1,1,-1c1,-1,1,-1,2,-1l1,1c0,0,0,1,0,1l0,1c0,1,0,1,0,2c0,0,-1,0,-1,1l1,0c0,0,1,0,1,0l1,0l1,0c1,0,1,0,2,0c0,0,1,-1,1,-1c1,0,1,0,1,0c0,-1,0,-1,0,-1c0,0,0,-1,-1,-1l0,1c-1,0,-1,0,-1,0c0,0,-1,0,-1,0c0,0,-1,-1,-1,-1l0,-1l0,-1l1,0c0,-1,0,-1,0,-1c0,-1,1,-1,1,-1c1,0,1,0,1,0c0,1,1,1,1,1l0,1l0,2c1,0,1,1,1,1c0,0,0,1,-1,1l0,1ZM302.5,94.5c0,0,0,1,0,1l1,0c1,0,1,0,1,0l0,-1l-1,0c-1,0,-1,0,-1,0ZM301.5,84.5l4,-2l0,1l-4,2ZM297.5,92.5l-2,-1l-1,1l-1,-1l1,-1l1,1l1,-1l2,1ZM296.5,95.5c0,0,-1,0,-1,1c0,0,-1,0,-1,0c0,1,0,1,1,1l1,1c0,0,0,-1,1,-1c0,-1,0,-1,0,-1c0,-1,-1,-1,-1,-1ZM296.5,81.5l1,-1l1,0c0,0,0,1,0,1c0,0,0,1,0,1c0,1,0,1,0,1l0,1l-1,0l-1,1l-1,0l0,1l-1,0l0,-1l1,0c0,0,0,-1,1,-1l1,-1l-1,0l0,-1l0,-1ZM297.5,81.5l-1,0c0,1,1,1,1,1ZM278.5,90.5c1,-1,1,-1,1,-1c1,0,1,0,2,0c0,0,1,0,1,0c1,0,1,1,1,1c-1,1,-1,1,-1,1c0,0,0,1,-1,1c-1,0,-1,0,-1,0l-1,0l1,-1c1,0,2,0,2,0c0,-1,-1,-1,-1,-1l-1,0c0,0,-1,0,-1,1l-1,0c0,-1,0,-1,0,-1ZM343.5,92.5l-1,-1l-1,1l-2,-1l1,-1l2,1l1,-1l1,1ZM341.5,100.5l-1,0l-2,0c0,1,0,1,0,2l0,1c0,0,-1,1,-1,1c0,0,-1,1,-1,1l-1,0c0,1,0,1,0,1c-1,0,-1,0,-1,0c0,0,-1,0,-1,0c-1,0,-1,0,-2,-1l-1,0c1,0,1,0,1,0c0,0,1,0,1,0c0,0,1,0,1,0c1,0,1,-1,2,-1l0,-1c1,0,1,0,1,0c0,0,1,-1,1,-1c0,0,0,-1,0,-1l0,-1l0,1l0,-1l-1,0c0,0,-1,0,-1,0l0,-1l0,-1l0,-1l0,-1c1,0,1,0,1,0l1,0c0,0,1,0,1,0c0,1,0,1,0,1c0,0,0,1,0,1c0,0,1,0,1,1l1,0l1,0c0,0,1,0,1,0c1,-1,1,-1,2,-1c0,-1,0,-1,-1,-1l0,-1l1,-2c0,0,0,1,0,1l0,1l0,1l0,1c0,1,0,1,0,1c-1,1,-1,1,-2,1c0,0,-1,0,-1,0ZM341.5,84.5l4,-2l0,1l-4,2ZM336.5,98.5l-1,0c0,0,1,0,1,0c0,1,0,1,0,1c0,0,1,0,1,0c0,0,0,-1,0,-1c0,0,-1,0,-1,0ZM333.5,91.5l4,-2c0,1,-1,1,-1,1l-4,2ZM326.5,99.5c0,0,1,0,1,0l1,0c0,-1,0,-1,0,-1c1,0,1,0,1,-1l0,-2l-1,-6l0,-1l0,-1l1,0c0,0,0,1,0,1l1,0c0,1,0,1,0,1c0,1,-1,1,-1,1c0,0,0,1,0,2c0,0,0,1,0,3l1,1l0,1c0,0,-1,1,-1,1c0,0,0,1,0,1c0,1,0,1,-1,1c0,0,-1,0,-1,0l-1,0l-2,0c0,1,0,1,0,2l0,1c-1,0,-1,1,-1,1c0,0,-1,1,-1,1l-1,0c0,1,0,1,0,1c-1,0,-1,0,-1,0c0,0,-1,0,-1,0c-1,0,-1,0,-2,-1l-1,0c1,0,1,0,1,0c0,0,1,0,1,0c0,0,1,0,1,0c1,0,1,-1,1,-1c1,0,1,0,1,-1c1,0,1,0,1,0c0,0,1,-1,1,-1c0,0,0,-1,0,-1l0,-1l0,1l0,-1c0,0,-1,0,-1,0c0,0,-1,0,-1,0l0,-1l0,-1l0,-1l0,-1c0,0,1,0,1,0l1,0c0,0,1,0,1,0c0,1,0,1,0,1c0,0,0,1,0,1l0,1c1,0,1,0,2,0ZM328.5,82.5l0,1c0,0,0,1,0,1l1,-1l0,-1l0,1c0,0,1,0,1,0l0,-1l1,-1l0,1l0,1c0,1,0,1,-1,1c0,0,-1,0,-1,0c0,1,-1,1,-1,1l-1,-1l0,-1ZM332.5,80.5l-6,2c1,0,1,-1,1,-1l5,-3ZM322.5,98.5c0,0,-1,0,-1,0l1,0c0,1,0,1,0,1c0,0,1,0,1,0c0,0,0,-1,0,-1c0,0,-1,0,-1,0ZM318.5,90.5c0,-1,0,-1,1,-1c0,0,1,0,1,0c1,0,1,0,2,0c0,0,0,1,0,1c0,1,0,1,-1,1c0,0,0,1,0,1l-1,0c0,0,-1,0,-1,0c-1,0,-1,0,-1,0l2,-1c0,0,1,0,1,0c0,-1,0,-1,0,-1c-1,0,-1,0,-1,0c-1,0,-1,0,-2,1c0,-1,0,-1,0,-1ZM315.5,101.5l0,-2l0,-1l-1,-8l1,-3l1,11l0,1c0,0,-1,0,-1,0c0,1,0,1,0,2ZM371.5,91.5l-1,-1l1,-2l1,1ZM374.5,99.5c-1,0,-1,0,-1,1c0,0,-1,0,-2,0c0,0,-1,0,-1,0l-1,0l-1,0c-1,0,-1,0,-2,0c0,-1,-1,-1,-1,-2l0,-9l1,-2l0,10l0,1l1,0c0,1,0,1,1,1l1,0l1,0c0,0,1,0,1,0c1,0,2,-1,2,-1l1,0c0,-1,0,-1,0,-1c-1,0,-1,-1,-1,-1l0,1c0,0,-1,0,-1,0c-1,0,-1,0,-1,0c0,0,-1,0,-1,0c0,0,0,-1,0,-1l0,-1l0,-1c1,-1,1,-1,1,-1c0,-1,1,-1,1,-1c0,0,1,0,1,0c0,1,0,1,1,1l0,1l0,2c0,0,0,1,0,1c0,0,0,1,0,1l0,1ZM371.5,94.5c0,0,0,1,0,1l1,0l1,0l-1,-1l-1,0ZM370.5,84.5l4,-2l0,1l-4,2ZM368.5,104.5l-4,2c1,0,1,-1,1,-1l4,-2ZM357.5,104.5c-1,0,-1,0,-2,-1c-1,0,-1,0,-1,0c-1,0,-1,-1,-1,-1c-1,-1,-1,-1,-1,-2c0,0,0,-1,0,-1c0,0,0,-1,0,-1c1,0,1,0,1,0c0,0,0,-1,0,-1l0,-1c0,0,1,0,1,0c0,0,0,1,0,1c-1,0,-1,1,-1,1c0,1,0,1,0,1c0,1,0,1,0,1c1,0,1,1,1,1l1,0c1,1,1,1,2,1c1,0,1,0,2,-1c1,0,1,0,2,-1c0,0,0,-1,0,-1c0,-1,0,-1,0,-1c0,-1,0,-1,0,-1c0,0,0,-1,-1,-1c0,0,0,-1,0,-1l1,-2l0,1l0,1c1,0,1,0,1,1c0,1,0,1,0,1l0,1l0,1c0,0,0,1,0,2c-1,0,-1,1,-1,1c-1,1,-2,1,-2,1c-1,1,-2,1,-2,1Z" class="g1_18" />
<path fill-rule="evenodd" d="M138.5,380.5l4,-2l0,1c-1,0,-1,0,-1,0l-4,2ZM224.5,427.5c0,0,1,-1,1,-1c0,0,1,0,1,0c1,0,1,0,2,0c0,1,0,1,0,1c0,1,0,1,0,1c-1,1,-1,1,-1,1c0,0,-1,0,-1,0l-1,0c0,0,-1,0,-1,0l2,0c1,-1,1,-1,1,-1c-1,-1,-1,-1,-1,-1c-1,0,-1,0,-1,1c-1,0,-1,0,-1,0c0,-1,0,-1,0,-1ZM146.5,427.5c0,0,1,0,1,0c1,0,1,0,2,0c0,0,1,0,1,0l0,1l0,1c0,0,-1,0,-1,0c0,0,0,1,-1,1l-1,0l-1,0l2,-1c1,0,1,0,2,-1c-1,0,-1,0,-1,0c0,0,-1,0,-1,0c0,0,-1,0,-1,0c0,0,-1,0,-1,0c0,0,0,-1,0,-1ZM107.5,428.5c0,0,1,-1,1,-1c1,0,1,0,1,0c1,0,1,0,2,0c0,1,0,1,0,1c0,1,0,1,0,1c0,1,-1,1,-1,1c0,0,-1,0,-1,0l-1,0l-1,0l2,0c1,-1,1,-1,2,-1c-1,0,-1,0,-1,-1c0,0,-1,0,-1,0c0,0,-1,0,-1,1c0,0,-1,0,-1,0c0,-1,0,-1,0,-1ZM207.5,419.5c0,1,0,2,0,3c0,0,-1,0,-1,0c0,0,0,1,0,1c0,0,-1,0,-1,0c0,0,-1,0,-1,1l0,-1c1,0,1,0,1,0c0,0,1,0,1,0c0,-1,0,-1,0,-1c0,0,-1,-1,-1,-1l-1,-1c0,-1,0,-1,0,-1l0,1c1,0,1,0,1,0l0,1c1,0,1,0,1,0l0,1c0,-1,1,-1,1,-1l0,-2ZM84.5,423.5c-1,1,-1,1,-2,1l-1,-1c0,0,0,-1,0,-1l0,1c0,1,0,1,0,1c0,0,1,0,2,0c0,0,1,0,1,0c0,-1,1,-1,1,-1c0,0,0,-1,0,-1l1,0l1,0c1,0,2,-1,2,-1c0,0,1,-1,1,-1c0,0,-1,0,-1,-1c-1,0,-1,0,-2,1c0,0,-1,1,-1,1l-1,0c0,0,-1,0,-1,-1l0,1l0,1c0,1,0,1,0,1ZM89.5,420.5c0,0,0,1,-1,1l-1,0l0,-1c1,0,1,0,1,0l1,0ZM98.5,438.5c0,1,0,2,0,3l-1,1l1,1l-1,0l0,1l-1,0l0,1l-1,0c0,0,0,1,-1,1l-1,0l-1,0l0,1c-1,0,-1,0,-1,0l-1,1l0,1c-1,0,-1,0,-1,0l-4,0l-3,0l0,-1l-1,-1c0,0,-1,0,-1,0c-1,-1,-2,-1,-2,-1l-1,0l0,-1l-1,0l-1,-1l-1,-1l1,-1l-1,0l0,-1l-1,-1c0,-1,0,-1,0,-1l0,-1l0,-1c0,0,1,-1,1,-1c0,-1,0,-1,0,-1l1,-1l-1,0l0,-1l1,0l0,-1l1,0l1,-1l1,0l2,-1l1,0l1,-1c0,-1,0,-1,0,-1l3,0l4,0l1,1l1,1l1,0l1,1l1,0c1,0,1,0,1,1l1,0l0,1c1,0,2,0,2,1l-1,0l0,1l1,1l0,1l0,1ZM89.5,449.5l0,-1l1,0l0,-1l1,0l1,-1l1,0l1,0c0,-1,1,-1,1,-1l1,0l0,-1l1,0l0,-1l1,0l-2,0l0,-1l1,0l0,-1l1,0l0,-1l0,-1l0,-1c0,0,0,-1,0,-2l-1,0l0,-1l-1,-1l2,0c-1,-1,-1,-1,-2,-1l0,-1l-1,0l-1,-1l-1,0l-2,-1l-1,-1c-1,-1,-1,-1,-1,-1l-4,0l-1,0l-2,0l0,1l-1,1c0,0,-1,0,-1,0l-2,1l-1,0l0,1l-1,0l-1,1l-1,1l1,0l0,1l-1,1l0,1l0,1l0,1l0,1l0,1l0,1l1,0l0,1l-1,0l1,1l1,0l0,1l1,0l1,1l1,0l1,0c0,1,1,1,1,1l1,1c0,0,0,1,0,1l3,0ZM95.5,434.5l-1,0l0,-1l-1,0l-1,0c0,-1,0,-1,-1,-1c1,0,1,0,1,0l1,0c1,0,1,0,1,1l1,0ZM95.5,443.5l0,1l-1,0l0,1l-1,0l-1,0c0,0,0,-1,0,-1l1,0c1,0,1,-1,1,-1l1,0ZM90.5,445.5c0,1,0,1,0,1c0,1,0,1,-1,1l-4,0l-3,0l-1,-1l0,-1c0,-1,1,-1,1,-1l3,0l4,0c0,0,1,0,1,0l0,1ZM90.5,432.5c0,0,0,1,-1,1l-4,0l-3,0l-1,-1c0,-1,0,-1,0,-1l1,-1l3,0l4,0c1,0,1,0,1,1ZM89.5,434.5c0,0,1,0,1,0c0,0,1,0,1,0c0,0,1,0,1,0c0,0,1,0,1,1l2,0l0,1l1,0l0,1l0,1l0,1c0,1,0,1,0,1l0,1l-1,0l0,1l-1,0c0,0,-1,0,-1,0l0,1l-1,0l-1,0l-1,0l-1,0l-4,0l-3,0c-1,0,-1,0,-1,0c-1,0,-1,0,-2,0l-1,-1l-1,0l-1,0l0,-2l0,-1l0,-1c0,-1,0,-1,0,-1l0,-1l0,-1c1,0,1,0,1,0l1,0l1,0l0,-1c1,0,1,0,2,0l1,0l3,0ZM89.5,442.5l0,1l1,0l1,0c1,0,1,0,1,0l1,-1c0,0,0,-1,1,-1l1,1l0,-1l0,-1l1,-1l0,-1c0,0,0,-1,-1,-1c0,-1,0,-1,0,-1c0,-1,0,-1,0,-1l-1,0c-1,0,-1,0,-1,0l-1,-1l-1,0c0,0,-1,0,-1,0l-1,0l-4,0l-3,0l-1,0c-1,0,-1,0,-1,0l-1,0l0,1c-1,0,-1,0,-1,0l-1,0l0,1l-1,0l0,1l0,1l0,1l0,1c0,1,1,2,1,2l1,-1c0,0,0,1,0,1l1,0l0,1l1,0l1,0l1,0l0,-1l3,0l4,0ZM87.5,437.5l1,0l0,1l0,1l0,1c1,0,1,0,1,0l0,1l-1,-1l0,-1l-1,0l0,-1c0,0,0,1,0,1l-1,1l0,1l0,-1c0,0,0,-1,0,-1l1,-1l0,-1ZM85.5,437.5l0,1c0,0,-1,0,-1,0l0,1l0,1l0,1l-1,0l0,-1l0,-1c0,0,0,-1,0,-1l-1,0l1,-1l1,0c0,0,1,0,1,0ZM77.5,434.5l0,-1l1,0l0,-1l1,0l1,0c0,0,-1,1,-1,1l-1,0l0,1l-1,0ZM77.5,443.5c0,0,1,1,1,1l1,0l1,0l0,1l-1,0c-1,0,-1,0,-2,-1l0,-1ZM131.5,431.5l-2,-1l-1,2l-1,-1l1,-2l1,1l1,-1l2,1ZM132.5,439.5c0,1,-1,1,-1,1c0,0,-1,1,-2,1c0,0,-1,0,-2,0l-2,0c0,0,0,1,0,1c0,0,0,1,0,1c-1,1,-1,1,-1,1c0,1,-1,1,-1,1c0,1,0,1,-1,1c-1,0,-1,0,-1,0c0,0,-1,0,-1,0c-1,0,-1,0,-2,0l-1,0c0,0,0,-1,0,-1c1,0,1,0,1,0c0,0,1,1,1,1c0,0,1,-1,1,-1c1,0,1,0,1,0c1,-1,1,-1,1,-1c1,0,1,0,1,-1l1,-1c0,0,0,-1,0,-1c0,0,-1,0,-1,0c0,0,-1,0,-1,0c0,-1,0,-1,0,-1c-1,-1,-1,-1,-1,-1c0,0,1,0,1,0c0,-1,0,-1,0,-1c0,0,0,-1,0,-1c0,0,1,0,1,0c0,-1,0,-1,0,-1l1,0c0,0,1,1,1,1l0,1c0,1,0,1,0,1c1,0,1,0,2,0c1,0,2,0,2,0c1,0,2,0,2,-1c1,0,1,0,1,0c0,-1,0,-1,0,-1c-1,0,-1,0,-1,0c0,0,-1,0,-1,1c-1,0,-1,0,-1,0c0,-1,-1,-1,-1,-1c0,0,0,-1,0,-1c0,-1,0,-1,0,-1c0,0,0,-1,0,-1c1,0,1,0,1,-1c0,0,1,-1,1,-1c0,0,1,1,1,1c0,0,0,1,1,1l0,1c0,0,0,1,0,1c0,1,0,1,0,1c0,1,0,1,0,2ZM129.5,435.5c0,0,0,1,1,1l0,-1l1,0c0,0,-1,0,-1,0c0,-1,0,-1,0,-1l-1,0c0,0,0,1,0,1ZM128.5,425.5l4,-2c0,1,0,1,0,1l-5,2ZM123.5,438.5c-1,0,-1,1,-1,1l1,0c0,0,1,0,1,0l0,-1c0,0,-1,0,-1,0ZM119.5,430.5l1,0c0,0,1,0,1,0c1,0,1,0,2,0c0,1,0,1,0,1l-1,1l-1,0c0,1,-1,1,-1,1c-1,0,-1,0,-1,-1l2,0c0,0,1,-1,1,-1l-1,0c-1,0,-1,0,-2,0c0,-1,0,-1,0,-1ZM116.5,436.5c-1,0,-1,0,-1,-1c0,-1,0,-2,0,-2c0,-2,0,-3,0,-3c0,0,0,-1,0,-1c0,0,0,-1,0,-1c0,0,0,-1,1,-1l0,1c0,0,0,1,1,1l0,1c-1,0,-1,0,-1,1l0,-1c0,0,0,1,0,1c0,0,0,1,0,2c0,1,0,2,0,3c0,0,0,1,0,1c0,1,0,1,0,1c0,0,0,1,0,1c0,0,0,1,0,1c0,1,-1,1,-1,1c0,0,1,0,1,0l0,1c1,0,1,0,1,0c0,1,0,1,0,1c0,1,0,1,-1,1c0,1,-1,1,-1,1c-1,1,-1,1,-2,1c-1,1,-2,1,-3,1c-1,0,-1,0,-2,0c-1,-1,-1,-1,-2,-1c0,-1,0,-1,0,-1c-1,-1,-1,-1,-1,-2c0,-1,0,-1,1,-2c0,-1,0,-1,1,-2c0,1,0,1,-1,2c0,0,0,1,0,1l0,1c0,0,1,1,1,1c1,1,2,1,3,1c1,0,1,0,2,0l1,0c1,0,1,-1,2,-1c0,0,1,-1,1,-1c-1,0,-1,0,-2,0c0,0,-1,-1,-1,-1c0,0,0,-1,0,-1c0,-1,0,-1,1,-1c0,0,1,0,1,-1c0,0,1,0,1,-1c0,-1,0,-1,0,-2ZM119.5,449.5l-4,2c0,-1,0,-1,0,-1l4,-2ZM184.5,444.5l-2,-1l0,1l-2,0l1,-2l2,1l0,-1l2,1ZM181.5,441.5l-1,0l-1,0l-1,0c-1,0,-2,0,-2,0c-1,0,-1,0,-1,-1c-1,0,-1,1,-2,1c-1,0,-1,0,-2,0l-1,0l-1,0c-1,0,-2,0,-2,0c-1,0,-1,0,-1,-1c-1,0,-1,1,-2,1c-1,0,-1,0,-2,0l-1,0c-1,0,-1,0,-2,0l0,1c0,1,0,1,0,1c0,1,0,2,0,2c0,1,-1,1,-2,1l-1,0c0,-1,0,-1,-1,-2c0,-1,0,-2,0,-3l-1,0c0,0,-1,0,-1,0l-1,0l-1,0c0,0,0,1,0,1c0,0,0,1,-1,1c0,1,0,1,0,1c-1,1,-1,1,-1,1c-1,1,-1,1,-1,1c0,0,-1,0,-1,0c-1,0,-1,0,-1,0l-1,0c0,0,-1,0,-1,0c-1,0,-1,0,-1,0c0,0,0,-1,0,-1l1,0c0,0,0,1,0,1c1,0,1,-1,2,-1c0,0,1,0,1,0c0,-1,1,-1,1,-1l1,-1l0,-1c0,0,1,0,1,0c0,0,0,-1,0,-1c0,0,-1,0,-1,0l-1,0c0,-1,-1,-1,-1,-1c0,-1,0,-1,0,-1c0,-1,0,-1,0,-1c1,0,1,-1,1,-1c0,-1,1,-1,1,-1c0,0,1,0,1,0c0,0,0,1,0,1c1,0,1,0,1,1c0,1,0,1,0,1c1,0,1,0,1,0l1,0l1,0l1,0c0,0,0,-1,1,-1l0,-1c0,-1,0,-1,0,-1c1,-1,2,-2,3,-2l0,1l0,1c0,1,0,1,0,2c-1,1,-1,1,-2,2l1,0l1,-1l1,0l1,0l1,0l1,0c1,0,1,0,1,0l0,-1c0,-1,0,-1,0,-2c0,0,1,-1,1,-1l0,-1c1,0,1,0,2,0c0,0,1,0,1,0c0,1,0,1,0,2l0,1c0,0,0,1,0,1c0,1,0,1,-1,1c1,0,1,0,1,0c1,0,1,0,1,0l1,0l1,0c0,0,1,0,1,0l1,0l0,-1c0,-1,0,-1,0,-2c1,0,1,-1,1,-1l1,-1c0,0,1,0,1,0c1,0,1,0,1,0c0,1,0,1,1,2l0,1c0,0,-1,0,-1,1c0,1,0,1,0,1l1,0l1,0l1,0l1,0c0,0,1,0,2,0l1,0c0,0,0,-1,0,-1l-1,-1l0,-1l1,-1l0,1c0,0,0,1,0,1c0,1,0,1,0,1c0,0,0,1,0,1c0,1,0,1,0,1c0,0,-1,1,-2,1l-1,0ZM181.5,428.5l4,-2l0,1l-1,0l-4,2ZM175.5,433.5l-1,-1l1,-2l1,1ZM176.5,436.5c-1,0,-1,0,-1,0c-1,0,-1,0,-1,1c0,1,1,1,1,1c1,0,1,0,1,0c0,0,1,-1,1,-1c0,0,0,-1,-1,-1ZM171.5,423.5l1,0c0,0,1,-1,1,-1c1,0,1,1,1,1c1,0,1,0,1,0l0,1l-1,1l-1,0c0,0,-1,0,-1,0l-1,0l2,0c0,0,1,-1,1,-1l-1,0c-1,0,-1,0,-2,0l0,-1ZM167.5,433.5l-1,-1l-1,1l-2,-1l1,-1l2,1l0,-2l2,1ZM166.5,436.5l-1,0l0,1c0,1,0,1,1,1c0,0,1,0,1,0c0,0,0,-1,1,-1c0,0,-1,-1,-1,-1l-1,0ZM162.5,425.5l5,-2l-1,0c0,1,0,1,0,1l-4,2ZM158.5,436.5c0,0,-1,0,-1,0l0,1l-1,1l0,1c1,0,1,-1,2,-1c0,0,1,-1,1,-1c0,0,-1,-1,-1,-1ZM155.5,441.5c0,1,1,1,1,1c0,1,0,1,1,2l1,0l1,0c0,-1,-1,-1,-1,-2c-1,0,-1,0,-3,-1ZM157.5,425.5c0,0,1,0,1,-1l1,0c0,0,0,1,0,1l0,1c0,0,0,1,0,1l1,0l-1,1l-1,0l-1,1l-1,0l0,1l-1,0l0,-1l1,0c0,0,1,-1,1,-1l1,-1l-1,0c0,0,0,-1,0,-1l0,-1ZM158.5,425.5c0,0,0,1,0,1ZM149.5,438.5c-1,0,-1,0,-1,0c0,0,0,1,0,1c0,0,1,0,1,0l1,0l0,-1c0,0,-1,0,-1,0ZM141.5,441.5l0,-1l0,-1l0,-9l1,-2l0,11c0,0,0,1,0,1c0,0,0,1,-1,1ZM217.5,438.5c0,1,0,2,-1,3l0,1c0,0,-1,0,-1,0l1,1l-1,1l0,1l-1,0c0,0,-1,1,-1,1l-1,0l-1,0l-1,1l-1,0l0,1l-1,1l-4,0l-3,0c0,0,-1,0,-1,-1l-1,-1l-1,0c-1,-1,-1,-1,-2,-1l-1,-1l-1,0l0,-1l-1,0l0,-1l-1,0l1,-1l-1,-1l0,-1c0,-1,0,-1,0,-1l0,-1l0,-1c0,0,0,-1,0,-1c0,-1,1,-1,1,-1l0,-1l-1,0l1,-1l1,0l0,-1l1,0l0,-1l1,0l1,0l1,-1c1,0,1,0,1,0l1,-1c0,-1,1,-1,1,-1l3,0l4,0l0,1l1,0l0,1l1,0l2,1l1,0l1,1l1,0l0,1c1,0,1,0,1,1l-1,0l1,1l0,1l1,1l0,1ZM208.5,449.5l0,-1l1,-1l1,-1c1,0,1,0,1,0c0,0,1,0,1,0c1,-1,1,-1,2,-1l0,-1c1,0,1,0,1,0l1,-1l-1,0l0,-1l1,0l0,-1l0,-1l0,-1l0,-1c0,0,0,-1,0,-2l0,-1c0,0,-1,0,-1,0l0,-1l1,0c0,-1,-1,-1,-1,-1l-1,0l0,-1l-1,0l0,-1l-2,0l-1,-1c0,0,-1,0,-1,0l-1,-1c0,-1,0,-1,0,-1l-4,0l-1,0l-2,0l-1,1l-1,1l-2,1l-1,0l0,1l-1,0l-1,0l0,1c0,0,-1,0,-2,1l2,0l-1,1l0,1l-1,0l0,1l0,1l0,1l0,1l0,1l1,0l0,1l1,0l0,1l-1,0l0,1l1,0l0,1l1,0l1,1l1,0l1,0c1,1,1,1,1,1l1,0l0,1c1,0,1,1,1,1l3,0ZM213.5,434.5l-1,0l0,-1l-1,0l-1,0c0,-1,0,-1,0,-1l1,0c1,0,1,0,1,0l0,1c0,0,1,0,1,0ZM214.5,443.5l-1,1l-1,0l0,1l-1,0l-1,0c0,0,1,-1,1,-1l1,0c0,0,1,-1,1,-1ZM209.5,445.5c0,1,0,1,0,1c-1,1,-1,1,-1,1l-4,0l-3,0c-1,0,-1,0,-1,-1l0,-1c0,-1,0,-1,1,-1l3,0l4,0l1,1ZM209.5,432.5c0,0,-1,1,-1,1l-4,0l-3,0c-1,0,-1,0,-1,-1c0,-1,0,-1,0,-1l0,-1l1,0l3,0l4,0l1,1ZM208.5,434.5c1,0,1,0,1,0c1,0,1,0,2,0l0,1l1,0l1,0l1,0l0,1l0,1l0,1l1,0l0,1l-1,0c0,1,0,1,0,1l0,1l0,1c0,0,-1,0,-1,0l-1,0l-1,1l-1,0l-1,0c-1,0,-1,0,-1,0l-4,0l-3,0l-1,0l-1,0c0,0,-1,0,-1,0c0,0,-1,0,-1,-1l-1,0l-1,0l-1,-2l0,-1l0,-1c0,-1,0,-1,0,-1l0,-1l1,0l0,-1l2,0l0,-1l1,0c0,0,1,0,1,0c0,0,1,0,1,0l1,0l3,0ZM208.5,442.5l0,1l1,0l1,0l1,0l0,-1l1,0c0,0,0,-1,0,-1l1,1l1,-1l0,-1l0,-1l0,-1c0,0,0,-1,0,-1c0,-1,0,-1,0,-1c-1,-1,-1,-1,-1,-1l-1,0l-1,0l0,-1l-1,0l-1,0l-1,0l-4,0l-3,0l-1,0l-1,0l-1,0l0,1l-1,0l-2,0l0,1l0,1l-1,1l0,1l0,1l1,0c0,1,0,2,0,2l2,-1c0,0,0,1,0,1l1,0l0,1l1,0c1,0,1,0,1,0l1,0l0,-1l3,0l4,0ZM206.5,441.5l-1,-1l0,-1l0,-1l-1,0l0,-1l1,1l0,1l1,0l0,-1l1,0c0,-1,0,-1,0,-1l0,1l-1,1l0,1l0,1ZM203.5,437.5l0,1l-1,0l0,1l0,1l0,1l0,-1l0,-1c0,0,-1,-1,-1,-1l0,-1c1,0,1,0,1,0c1,0,1,0,1,0ZM195.5,434.5l0,-1l1,0l1,-1l1,0l1,0l-1,0l1,0c-1,0,-1,1,-1,1l-1,0l-1,0l0,1l-1,0ZM195.5,443.5l1,0c0,0,0,1,1,1l1,0l1,1c-1,0,-1,0,-1,0c-1,0,-2,0,-2,-1l-1,0l0,-1ZM255.5,439.5c1,0,1,0,2,0c1,0,1,0,1,0c0,0,0,-1,0,-1l0,-2l0,-6c0,0,0,-1,-1,-1c0,0,0,-1,1,-1c0,0,0,-1,0,-1l0,1l1,0c0,0,0,1,0,1l0,1l0,1l0,-1c0,0,0,1,0,1c0,0,0,1,0,2l0,2c0,1,0,1,0,1l0,2c0,0,0,1,0,1c0,1,-1,1,-1,1c0,0,0,1,0,1c-1,0,-1,0,-1,0c-1,0,-1,0,-1,0l-1,0l-1,0l0,-1c0,0,-1,0,-1,0c0,-1,0,-1,0,-1c0,1,-1,1,-1,1c0,1,-1,1,-1,1c-1,0,-1,-1,-2,-2l0,1c-1,1,-1,1,-1,1l-1,0c-1,0,-1,-1,-1,-2c-1,1,-1,1,-1,1c-1,1,-1,1,-2,1l-2,0c0,0,-1,0,-2,-1c0,0,0,-1,0,-2l-1,-8l1,-2l1,10l0,1c0,0,1,0,1,0l2,0l1,0c1,0,2,-1,2,-2l0,1c0,1,1,1,1,1c1,0,1,0,2,0c0,0,0,-1,1,-1l0,-1c0,1,0,1,0,1c1,1,1,1,1,1c1,0,1,0,1,0c0,-1,0,-1,1,-1l0,-1c1,2,1,2,2,2ZM257.5,423.5l0,1c0,0,1,0,1,0l0,-1l1,0l0,-1l0,1l1,0l0,-1c0,1,0,1,0,1l0,1l0,1l-1,0c0,0,0,-1,0,-1l0,1l-1,0c-1,0,-1,0,-1,0l0,-1l0,-1ZM260.5,444.5l-4,2c0,0,1,-1,1,-1l4,-2ZM248.5,428.5l5,-2l-1,1l-4,2ZM233.5,434.5l-1,-1l0,-1l2,1ZM231.5,441.5c1,0,1,0,1,-1c0,0,1,0,1,0c1,0,1,0,1,0l0,-1c0,0,1,0,1,0c0,0,-1,0,-1,-1l0,-1c0,-1,0,-1,0,-1c1,0,1,0,1,1c0,0,0,1,0,1l0,1l0,1l0,1c-1,0,-1,0,-1,0c1,0,1,0,1,1c0,0,1,0,1,0c0,1,0,1,0,1c-1,0,-1,0,-1,0c0,1,0,1,0,1c-1,1,-1,1,-2,1c0,1,-1,1,-2,1c-1,1,-2,1,-3,1c0,0,-1,0,-2,0c0,-1,-1,-1,-1,-1c-1,-1,-1,-1,-1,-1c0,-1,0,-1,0,-2c0,-1,0,-1,0,-2c0,-1,1,-1,1,-2c1,0,1,0,1,0c-1,1,-1,1,-1,2c0,0,0,1,0,1l0,1c0,0,0,1,1,1c0,1,1,1,2,1l1,0c1,0,1,0,1,0c1,0,1,0,1,0c1,0,2,-1,2,-1c1,0,1,-1,1,-1c0,0,-1,0,-1,0c-1,0,-1,-1,-1,-1c-1,0,-1,0,-1,0l0,-1m4,6l-4,2c1,-1,1,-1,1,-1l4,-2ZM284.5,440.5c0,1,0,1,0,1l-1,0l0,-1c-1,0,-1,0,-1,0l-1,-1l0,1c0,0,-1,1,-1,1l-1,0l-1,0l-1,0l0,1c0,1,0,1,0,1c0,1,0,1,-1,2c0,0,0,1,-1,1c0,1,-1,1,-2,1c-1,1,-1,1,-2,1c-1,0,-1,0,-2,0c-1,-1,-1,-1,-1,-1c-1,0,-1,-1,-1,-1c-1,-1,-1,-1,-1,-2l0,-1l0,-1c0,0,1,0,1,0l0,-1c0,-1,1,-1,1,-1c0,1,0,1,0,1c-1,1,-1,1,-1,1l0,1c0,1,0,1,0,1c1,1,1,1,1,1l1,0c0,1,0,1,0,1c1,0,1,0,2,0c1,0,2,0,3,0c0,-1,1,-1,1,-1c1,-1,1,-1,1,-1l0,-1l0,-1l0,-1c0,0,-1,0,-1,0l0,-1l1,-2c0,0,0,1,0,1c0,0,1,0,1,0l1,0l1,0c1,0,1,0,1,0l1,0l0,-1c1,-1,1,-1,1,-2c1,0,1,0,1,0c1,0,1,0,1,0c0,1,1,1,1,1l0,1l0,1l0,1c0,0,-1,0,-1,0ZM282.5,438.5l1,0l1,1c0,0,0,-1,0,-1l-1,0c0,-1,0,-1,0,-1c-1,0,-1,0,-1,1ZM280.5,427.5c0,1,0,1,1,1c0,-1,0,-1,0,-1l0,-1l1,0l0,1c1,0,1,0,1,-1l0,-1l0,1l0,1c0,1,0,1,0,1l-1,0l-1,0c0,1,0,1,-1,1c0,-1,0,-1,0,-1l0,-1ZM283.5,444.5l-4,2c0,0,0,-1,1,-1l4,-2ZM272.5,439.5l-2,-1l1,-2l2,1ZM329.5,438.5c0,0,-1,0,-2,1c-1,1,-2,1,-3,1c-1,1,-2,1,-3,1l-1,0l-1,0l-1,0c-1,0,-1,0,-2,0l-1,-1c0,0,-1,1,-1,1c-1,0,-2,0,-3,0l-2,0l-1,0l0,-1l-1,0c0,-1,0,-1,0,-1c0,1,0,1,0,1l-1,0c0,0,-1,1,-1,1c-1,0,-1,0,-2,0l-1,0c-1,0,-1,0,-1,-1l0,-1c0,-1,0,-1,0,-1l1,1l1,0l1,0c0,0,1,0,1,0l1,0c0,0,0,-1,0,-1l1,0c0,0,0,-1,0,-2l-1,-1l0,-1l0,-1l1,-1l0,1c0,0,1,1,1,2l0,2c0,1,0,1,0,1c0,1,0,1,1,1l2,0l1,0c1,0,1,0,1,0c0,0,1,0,1,0l0,-1l-1,0c0,-1,1,-1,1,-2c0,0,0,-1,0,-1c1,0,1,0,1,-1c1,0,1,0,2,0l1,0c0,1,0,1,0,2l0,1c0,0,0,1,0,1c0,1,-1,1,-1,1l1,0c0,0,1,0,1,0l1,0l1,0c1,0,2,0,2,0c0,0,-1,-1,-1,-1c0,-1,0,-1,0,-2c0,0,0,-1,0,-1l1,-1c0,0,1,-1,1,-1l1,0l1,0c1,0,1,0,1,0c1,0,1,0,1,1l-1,0l-1,0l-1,0l-1,0l0,1c0,0,-1,0,-1,0c0,0,0,1,0,1c0,0,1,0,1,1c0,0,1,1,2,1l1,0c0,-1,1,-1,1,-1l1,0l1,-1ZM323.5,425.5c1,0,1,0,1,-1c0,0,1,0,1,0c0,0,1,1,1,1l0,1l-1,0c0,0,0,1,0,1l1,0l0,1l-1,0l-1,0l0,1c-1,0,-1,0,-1,0l-1,0l0,1l-1,0l0,-1l1,0l1,0c0,0,0,-1,0,-1l1,-1l-1,0c0,0,0,-1,0,-1l0,-1ZM325.5,425.5l-1,0c0,0,0,1,0,1l1,0ZM317.5,433.5l-2,-1l-1,1l-1,-1l1,-1l1,1l1,-2l2,1ZM316.5,436.5c0,0,-1,0,-1,0c0,0,-1,0,-1,1l1,0c0,1,0,1,1,1l1,0c0,0,0,-1,0,-1c0,0,0,-1,0,-1c0,0,-1,0,-1,0ZM269.5,426.5c1,0,1,0,2,0c0,0,1,0,1,0c1,0,1,0,1,0l0,1c0,0,-1,0,-1,1c-1,0,-1,0,-1,0c-1,0,-1,0,-1,0l-1,0l1,0c1,0,2,-1,2,-1c0,0,-1,0,-1,0l-1,0l-1,0l-1,0l0,-1l1,0ZM311.5,423.5c0,0,1,0,1,0c1,0,1,-1,2,-1c0,0,1,1,1,1c0,0,1,0,1,0l-1,1l0,1c0,0,-1,0,-1,0l-1,0l-1,0l-1,0l2,0c1,0,1,-1,2,-1c-1,0,-1,0,-1,0c0,0,-1,0,-1,0c0,0,-1,0,-1,0c0,0,-1,0,-1,0l0,-1ZM302.5,428.5l5,-2l-1,1l-4,2ZM297.5,433.5l-2,-1l0,1l-2,-1l1,-1l1,1l1,-1l2,0ZM295.5,441.5l-1,0c0,-1,-1,-1,-1,-2c0,0,0,-1,1,-1l0,-1l0,-1l1,-1c0,-1,1,-1,1,-1c0,0,1,0,1,1c1,0,1,1,1,1l0,1c0,0,0,1,0,1c0,1,0,2,-1,3c-1,0,-1,0,-2,0ZM296.5,437.5l-1,0c-1,0,-1,0,-1,1c0,0,0,1,0,1c0,0,1,0,1,0l1,0l1,0c0,0,1,0,1,-1c0,0,-1,0,-1,-1c-1,0,-1,0,-1,0ZM294.5,425.5l5,-2c0,0,-1,1,-1,1l-5,2ZM296.5,422.5l5,-2c-1,0,-1,1,-1,1l-5,2ZM378.5,437.5c0,0,-1,0,-1,1c1,0,1,0,1,0l1,0c0,0,0,-1,0,-1c-1,0,-1,0,-1,0ZM378.5,445.5c-1,0,-1,0,-1,0c-1,1,-1,1,-2,1c-1,0,-1,0,-2,-1l-1,0c1,0,1,0,1,0c0,0,1,0,1,0l1,0c1,0,1,0,1,-1l1,0l1,-1l0,-1c1,0,1,0,1,-1c0,0,1,-1,1,-1c0,0,-1,0,-1,-1c0,0,0,1,0,1c-1,0,-1,0,-1,0c0,0,-1,0,-1,0c0,-1,0,-1,0,-1c-1,0,-1,0,-1,0c0,-1,0,-1,0,-1l1,0c0,0,0,-1,0,-1c0,0,0,-1,0,-1c0,0,1,-1,1,-1l1,0c0,0,1,1,1,1c0,0,0,1,0,1c0,0,0,1,0,1c0,0,0,1,0,1c0,0,0,1,0,1c0,1,0,2,0,3c-1,0,-1,1,-1,1c0,0,-1,0,-1,1ZM375.5,431.5l4,-2l0,1l-4,2ZM372.5,441.5l0,-1l0,-1l-1,-9l1,-2l1,11c0,0,-1,1,-1,1c0,0,0,1,0,1ZM367.5,438.5l-2,0c0,0,-1,0,-1,0l-1,1c-1,0,-1,0,-1,0l-1,0l-1,1c0,0,-1,0,-1,0c0,0,-1,0,-1,1c-1,0,-2,0,-3,0c-1,0,-1,0,-1,0c-1,-1,-1,-1,-1,-2c0,1,-1,1,-1,2c-1,0,-1,0,-1,0l-1,0c-1,0,-1,0,-1,0c-1,-1,-1,-1,-1,-2l0,1l0,1c0,1,0,2,0,2c-1,1,-1,1,-1,2c-1,0,-1,0,-1,0c-1,0,-1,1,-1,1c-1,0,-1,0,-2,0c0,0,-1,0,-1,0l-1,0l-1,0c0,0,-1,0,-1,-1c0,0,-1,0,-1,-1c0,0,0,-1,0,-1c0,-1,0,-1,0,-2c0,0,1,-1,1,-1l0,-1l1,0l-1,1c0,1,0,1,0,2c0,0,0,1,1,1c0,1,1,1,1,1c1,0,1,0,1,0c1,0,2,0,3,0c1,-1,2,-1,2,-2l0,-1l0,-3l0,-1c0,0,0,-1,0,-1l0,-7l1,-2l0,10c0,1,0,1,0,1l1,1c0,0,1,0,1,0c1,0,1,0,1,0c1,0,1,0,1,-1l0,-1l0,-1l0,-7l1,-2l0,11l1,0c0,0,0,1,0,1c0,0,1,0,1,0l1,0c1,0,1,0,2,0c0,0,1,0,1,0l2,-1l1,0l-1,-1l-1,0l-1,0l-1,-1c0,0,-1,0,-1,1l-1,0c0,-1,1,-1,1,-1c0,-1,0,-1,1,-1l1,0c0,0,1,0,1,0l2,1l1,0c1,0,1,1,1,1c1,0,1,0,1,0c1,0,1,0,2,0l1,0ZM359.5,426.5c0,0,0,-1,1,-1c0,0,1,0,1,0c1,0,1,0,2,0c0,0,0,1,0,1c0,1,0,1,0,1c-1,0,-1,1,-1,1c-1,0,-1,0,-1,0c0,0,-1,0,-1,0c0,0,-1,0,-1,0l2,0c0,-1,1,-1,1,-1c0,0,0,-1,0,-1c-1,0,-1,0,-1,0c-1,0,-1,0,-1,1c-1,0,-1,0,-1,0c0,-1,0,-1,0,-1ZM352.5,422.5c0,-1,0,-1,0,-1c1,0,1,0,1,0c1,0,1,0,1,0l0,1l0,1l0,1l0,1l-1,-1l0,1l-1,0c0,1,-1,1,-1,1l-1,0l1,-1l1,0l0,-1c0,-1,0,-1,0,-1l0,-1ZM353.5,422.5c-1,0,-1,0,-1,0l1,0l0,1l0,-1ZM338.5,430.5l1,0c0,0,1,0,1,0c1,0,1,0,2,0c0,1,0,1,0,1l-1,1l-1,0c0,1,-1,1,-1,1c-1,0,-1,0,-1,-1l2,0c0,0,1,-1,1,-1c-1,0,-1,0,-1,0c-1,0,-1,0,-2,0c0,-1,0,-1,0,-1ZM294.5,382.5c0,0,1,0,1,-1c0,0,1,0,1,0c1,0,1,0,2,0c0,1,0,1,0,1c0,1,0,1,0,1c-1,1,-1,1,-1,1c0,0,-1,0,-1,0l-1,0c0,0,-1,0,-1,0l2,0c1,-1,1,-1,1,-1c-1,-1,-1,-1,-1,-1c-1,0,-1,1,-1,1c-1,0,-1,0,-1,0c0,0,0,-1,0,-1ZM239.5,380.5l1,0c0,0,1,0,1,0c1,0,1,0,1,0c1,0,1,0,1,1c0,0,0,1,-1,1c0,1,-1,1,-1,1c0,0,-1,0,-1,0l-1,0l2,-1c0,0,1,0,1,-1l-1,0c-1,0,-1,0,-2,0l0,1l0,-1l0,-1ZM109.5,378.5c0,0,1,0,1,0c1,0,1,0,1,0c1,0,1,0,2,0c0,0,0,1,0,1l0,1c0,0,-1,0,-1,0l-1,0c0,0,0,1,-1,1c0,0,0,-1,-1,-1l2,0c1,0,1,-1,2,-1c-1,0,-1,0,-1,0c0,0,-1,0,-1,0c0,0,-1,0,-1,0c0,0,-1,0,-1,0c0,-1,0,-1,0,-1ZM151.5,383.5l1,0c0,0,1,0,1,0c1,0,1,0,2,0l0,1l-1,1c-1,1,-1,1,-1,1c0,0,-1,0,-1,0c0,0,-1,0,-1,0l2,-1c0,0,1,0,1,-1c-1,0,-1,0,-1,0c-1,0,-1,0,-2,0c0,0,0,-1,0,-1ZM89.5,372.5c-1,1,-1,2,-1,3l0,1c0,0,-1,0,-1,0l-1,1l0,-1c1,0,1,0,1,0c0,0,1,-1,1,-1l-1,0c0,-1,0,-1,0,-1l-1,0c-1,0,-1,-1,-1,-1c0,0,0,-1,0,-1c1,0,1,1,1,1c1,0,1,1,1,1c0,0,1,1,1,1c0,-1,0,-1,0,-1l0,-2ZM217.5,372.5c0,1,0,3,0,4c-1,1,-1,1,-1,1c0,0,-1,0,-1,0c0,0,1,0,1,-1c0,-1,0,-1,0,-1c-1,0,-1,-1,-1,-1l-1,0c0,-1,0,-1,0,-1c0,0,1,0,1,0l0,1c1,0,1,0,1,0c0,0,0,1,0,1c1,0,1,1,1,1l0,-1c0,-1,0,-1,0,-1l0,-1ZM100.5,392.5c0,1,0,2,-1,2c0,0,0,1,0,1l0,1c-1,0,-1,0,-1,0l1,0l0,1l-1,0l0,1l-1,0l0,1c0,0,-1,0,-2,0l0,1l-1,0l-1,0l-1,1l0,1l-1,0c0,1,0,1,0,1l0,-1l-3,0l0,1l-3,0l0,-1c-1,0,-1,0,-1,0l-1,-1c0,0,0,-1,-1,-1c-1,0,-1,0,-2,-1l-1,0l-1,0l0,-1l-1,-1l-1,0l0,-1l1,0l0,-1l-1,0l0,-1l0,-1l0,-1l0,-1l0,-1l0,-1l1,0l0,-1l-1,0l0,-1l1,0l1,-1l1,-1l1,0l1,-1l1,0l1,0l0,-1l1,-1l1,0l0,-1l3,0l3,0l0,1l1,0l0,1l1,0l0,1l2,0l0,1l1,0l1,0l0,1l1,0c1,1,1,1,1,1c0,0,0,1,0,1l-1,0l1,1l0,1l1,0l0,1ZM91.5,402.5l1,-1l1,-1c0,0,1,0,1,0l1,0l0,-1c1,0,1,0,2,-1c0,0,1,0,1,0l0,-1l1,0l-1,-1l0,-1l1,0l0,-1l0,-1l0,-1c0,-1,0,-2,0,-2l0,-1c0,0,-1,0,-1,-1l1,-1c0,0,-1,0,-1,-1l-1,0l-1,-1l-2,0l-1,-1c0,0,-1,0,-1,-1l-1,0l0,-1l-1,0l-2,0l-1,0l-2,0l-1,0l0,1l-1,0c0,1,0,1,-1,1l-1,1l-1,0l-1,0l0,1l-1,0c-1,1,-1,1,-2,1l1,1l1,0l-1,0l0,1l-1,1l0,1c0,0,0,1,0,1l0,1l0,1l1,1l0,1l1,0l-2,1l1,0l1,1l1,0l0,1l1,0l1,0l0,1l1,0c1,0,1,0,1,1l1,0l0,1c0,0,1,0,1,0l3,0ZM96.5,387.5l0,1l-1,-1l-1,-1c0,0,-1,0,-1,0l0,-1l1,0l0,1c1,0,1,0,1,0c0,0,1,0,1,0l0,1ZM96.5,397.5l0,1l-1,0l-1,1l-1,0c0,-1,0,-1,0,-1c0,0,1,0,1,0l1,0c0,-1,1,-1,1,-1ZM92.5,399.5c0,0,0,1,0,1c-1,0,-1,0,-1,0l-3,0l-3,0c-1,0,-1,0,-1,0l-1,-1c0,0,0,-1,1,-1l1,0l3,0l3,0l1,0l0,1ZM92.5,385.5c0,0,0,1,0,1c0,0,-1,0,-1,0l-3,0l-3,0c-1,0,-1,0,-1,0l-1,0l0,-1c0,0,1,-1,1,-1l1,0l3,0l3,0l1,0l0,1ZM91.5,388.5c0,0,0,-1,0,-1c1,0,1,0,1,0c1,0,1,0,2,0c0,1,0,1,0,1l1,1l1,-1c0,0,0,1,1,1l0,1l0,1l0,1l0,1l0,1c0,1,0,1,0,1c-1,0,-1,1,-1,1l-1,-1l0,1l-1,0l0,1l-1,0l-1,0l-1,0l0,-1l-3,0l-3,0l-1,0l0,1l-1,0c-1,0,-1,0,-1,0c-1,-1,-1,-1,-1,-1l-1,-1l-1,1l0,-1l-1,-1l0,-1l0,-1c0,0,0,-1,0,-1c0,0,0,-1,0,-1l0,-1l1,0c0,0,0,-1,0,-1l1,1c0,0,1,0,1,-1l1,0l0,-1c0,0,1,0,1,0c0,0,1,0,1,0l0,1l1,0l3,0ZM91.5,396.5c1,0,1,1,1,1l1,0l0,-1l1,0l1,-1l1,0l1,-1l0,-1l0,-1c0,-1,0,-1,0,-2l-1,-1l-1,0l-1,-1l-1,0l0,-1l-1,0l-1,1l-3,0l-3,0l-1,0l-1,-1l-1,0c0,1,0,1,0,1l-1,0l0,1c0,0,-1,0,-1,0l-1,0l0,1l-1,0l0,1l0,1c0,0,0,1,0,1l0,1l1,0c0,1,0,1,0,1l1,0c0,0,1,0,1,0l0,1l1,0l0,1l1,0c0,0,1,0,1,-1l1,0l3,0l3,0ZM88.5,390.5l1,1l1,0l0,-1c0,1,0,1,0,1l0,1l0,1l0,1l0,1c0,-1,0,-1,0,-2l-1,-1l0,-1c-1,0,-1,0,-1,0l0,-1ZM87.5,390.5l0,1l0,1l-1,0l0,1c0,1,0,1,0,1l0,1l0,-1l0,-1l-1,-1l0,-1l0,-1c0,1,1,1,1,1c1,0,1,0,1,-1ZM79.5,387.5l1,-1l1,0l0,-1l1,0l0,1l-1,0l0,1l-1,0l0,1l-1,-1ZM79.5,397.5l1,0l1,1l1,0l0,1l-1,0c0,-1,-1,-1,-1,-1l-1,0l0,-1ZM135.5,394.5l-1,0c-1,0,-1,0,-1,0l-1,-1c-1,1,-1,1,-1,1l0,1l-1,0l-1,0l0,-1l0,1l-1,0l0,1c0,0,0,1,0,2c0,0,-1,0,-1,0c0,1,0,1,-1,1c0,1,0,1,-1,1l-1,0l-1,0c0,0,-1,0,-2,0l0,-1l1,0c1,0,1,0,2,0l1,-1l1,0c0,0,0,-1,0,-1c1,0,1,0,1,-1c0,0,0,-1,1,-1c0,0,0,-1,0,-1l-1,0c0,-1,0,-1,0,-1l0,-1l1,0l0,1c0,0,1,0,1,0l1,0c1,0,1,0,1,0l1,-1l0,-1c0,0,1,-1,1,-1c1,-1,1,-1,1,-1c0,0,1,0,1,1c0,0,0,1,1,1l0,1l0,1c-1,1,-1,1,-1,1ZM133.5,392.5l1,0l1,0c-1,0,-1,-1,-1,-1c-1,0,-1,0,-1,0l0,1ZM129.5,377.5c1,-1,1,-1,1,-1c1,0,1,0,2,0c0,0,1,0,1,0c1,0,1,1,1,1c-1,0,-1,1,-1,1c0,0,0,1,-1,1c-1,0,-1,0,-1,0l-1,0l1,-1c1,0,2,0,2,0c0,-1,-1,-1,-1,-1l-1,0c0,0,-1,0,-1,0c0,0,0,1,-1,1l0,-1ZM128.5,405.5l-5,2c1,-1,1,-1,1,-1l4,-2ZM121.5,388.5l-1,0l-1,0l-1,0l-1,1c-1,1,-1,1,-1,2l1,1l2,0c1,0,1,0,1,0c0,1,0,1,0,1c0,1,0,1,0,1c0,1,0,1,0,1c0,0,-1,1,-1,1c-1,0,-1,1,-2,1c-1,0,-1,1,-2,1c-1,0,-2,0,-2,0l-1,0c-1,0,-1,0,-2,0c0,0,-1,-1,-1,-1c-1,0,-1,-1,-1,-1c-1,-1,-1,-1,-1,-2c0,-1,0,-1,1,-2c0,-1,0,-1,0,-2c1,0,1,0,1,-1l1,0l-1,1l0,1c0,1,-1,1,-1,1c0,0,0,1,0,1c0,1,0,1,1,1c0,0,0,1,0,1c1,1,2,1,4,1c1,0,2,0,3,0l1,-1l1,0l1,0c0,-1,0,-1,0,-1l1,0l-2,0c-1,-1,-2,-1,-3,-1c0,0,0,-1,0,-1c0,0,0,-1,0,-1c0,0,0,-1,0,-1c0,-1,1,-1,1,-1c0,-1,0,-1,0,-1l1,0c0,0,0,-1,0,-1c1,0,1,-1,2,-1c0,0,1,0,1,0c0,0,1,0,1,0c0,0,0,1,0,1l0,1ZM159.5,390.5c0,0,0,-1,0,-1c0,-1,0,-2,0,-3c0,-1,0,-2,0,-3c0,-1,0,-1,0,-1c0,-1,0,-1,1,-1c0,1,0,1,0,1l1,0c0,1,0,1,-1,1c0,1,0,1,0,1c0,1,0,1,0,2c0,1,0,2,0,3c0,1,0,1,0,1c0,1,0,1,0,1l0,1c0,1,0,1,0,1c0,1,0,1,0,1c-1,0,-1,0,-1,0c0,1,0,1,0,1l1,0c1,0,1,0,1,0c0,1,0,1,0,1l0,1c0,0,-1,0,-1,1c0,0,-1,1,-1,1c-1,0,-2,1,-2,1c-1,0,-2,1,-3,1c-1,0,-1,-1,-2,-1c-1,0,-1,0,-2,-1l-1,-1c0,0,0,-1,0,-1c0,-1,0,-1,0,-1c0,0,0,-1,0,-1c1,-1,1,-2,1,-2c1,0,1,0,1,0c0,0,-1,1,-1,1c0,1,0,1,0,2c0,1,1,1,1,2c1,0,2,1,3,1c1,0,1,0,2,0c0,-1,0,-1,1,-1c0,0,1,0,2,-1l1,0c-1,-1,-1,-1,-2,-1c0,0,-1,0,-1,0c0,-1,0,-1,0,-1c0,0,0,-1,0,-1l1,-1c0,0,1,0,1,0c0,0,1,-1,1,-1c0,-1,-1,-1,-1,-1c0,0,0,-1,0,-1ZM163.5,402.5l-4,2l0,-1l4,-2ZM154.5,376.5c0,0,-1,1,-2,1l-1,0l0,-1c-1,1,-1,1,-1,1l0,-1l1,-1c0,1,1,1,2,1l1,0l1,-1ZM194.5,391.5c0,1,0,1,1,1c0,-1,0,-1,0,-1l-1,0ZM194.5,398.5c0,0,0,1,0,1c0,0,-1,0,-1,0c0,0,-1,0,-1,0l-1,0c0,0,-1,0,-1,0c-1,0,-1,0,-1,0c0,-1,0,-1,0,-1l-1,1l-2,-1l1,-1l2,1l0,-1l2,1l-1,0c1,0,1,0,1,0c0,0,1,0,1,0c0,0,1,0,1,0c0,-1,1,-1,1,-1c0,0,1,-1,1,-1c0,0,0,-1,0,-1c1,-1,1,-1,1,-1c0,-1,0,-1,0,-1l-1,0c0,0,0,1,0,1l-1,0c-1,-1,-1,-1,-1,-1c0,0,0,-1,0,-1c0,0,0,-1,0,-1c0,-1,0,-1,0,-1c1,-1,1,-1,1,-1c0,0,1,0,1,0l1,0l0,1c1,1,1,1,1,1c0,1,0,1,0,2c0,0,0,1,0,1c0,1,-1,2,-1,2c0,1,0,1,-1,1c0,1,0,1,-1,1ZM192.5,385.5l4,-2c-1,1,-1,1,-1,1l-4,2ZM187.5,395.5l-1,-1c0,0,-1,-1,-1,-1l0,-1l0,1l-1,0c0,1,0,1,0,1c0,0,-1,0,-1,0c-1,0,-1,0,-1,0l-1,-1l0,1c0,0,-1,0,-1,0c0,0,0,1,-1,1l-1,0l0,-1l-1,0l0,-1l0,-1l-1,-1l0,1l-1,0c0,1,0,1,0,1c-1,0,-1,0,-1,0l-1,0l0,1l0,1c0,0,0,1,0,1c0,0,-1,1,-1,1c0,0,0,1,0,1c0,0,-1,0,-1,0c0,0,0,1,0,1l-1,0c0,0,-1,0,-1,0l-1,0c0,0,-1,0,-1,0c-1,0,-1,0,-1,0l-1,-1c0,0,1,0,1,0l1,0l1,0c1,0,1,0,1,0c1,0,1,0,1,-1l1,0c0,-1,0,-1,1,-2l0,-1c0,0,1,0,1,0c0,-1,0,-1,0,-1l-1,0l0,-2c0,0,1,0,1,0l1,0c0,0,1,0,1,0l1,-1c0,0,1,0,1,-1c0,1,0,1,0,1l0,1c0,1,0,1,1,1l0,1l1,0c1,0,1,0,1,0l1,0c0,-1,0,-1,0,-1c0,-1,0,-1,0,-1c0,0,1,0,1,0l0,1c1,0,1,0,1,0c1,0,1,0,1,0l1,0l0,-1l1,0c0,1,0,1,0,1c0,0,0,1,0,1l1,0c0,0,1,0,1,0l1,0l0,-1l-1,-1c0,-1,0,-1,0,-1c-1,0,-1,0,-1,0c0,-1,0,-1,0,-1c0,0,0,-1,0,-1c0,0,0,-1,0,-1c0,0,1,0,1,1l1,1c0,1,0,1,0,1c0,1,1,1,1,2c0,0,-1,0,-1,1c0,0,0,1,0,1c0,0,-1,0,-1,0l0,1l-1,0ZM186.5,382.5l4,-2l0,1l-4,2ZM178.5,383.5l0,1c1,0,1,0,1,0l0,-1l1,0l0,1c1,0,1,-1,1,-1l0,-1l0,1l0,1c0,0,0,1,0,1l-1,0l-1,-1l0,1l-1,0l0,-1l0,-1ZM183.5,398.5l-4,2c0,0,0,-1,0,-1l5,-2ZM169.5,380.5l1,0c0,0,1,0,1,0c1,0,1,0,2,0c0,0,0,1,0,1l-1,1l-1,0c0,1,-1,1,-1,1c-1,0,-1,0,-1,-1l2,0c0,0,1,-1,1,-1c-1,0,-1,0,-1,0c-1,0,-1,0,-2,0c0,-1,0,-1,0,-1ZM228.5,392.5c0,1,0,2,-1,2c0,0,0,1,0,1l0,1c-1,0,-1,0,-1,0l1,0l0,1l-1,0l0,1l-1,0l0,1c0,0,-1,0,-2,0l0,1l-1,0l-1,0l-1,1l0,1l-1,0c0,1,0,1,0,1l0,-1l-3,0l0,1l-3,0l0,-1c-1,0,-1,0,-1,0l-1,-1c0,0,0,-1,-1,-1c-1,0,-1,0,-2,-1l-1,0l-1,0l0,-1l-1,0l0,-1l-1,0l0,-1l1,0l0,-1l-1,0l0,-1l0,-1l0,-1l0,-1l0,-1l0,-1l1,0l0,-1l-1,0l0,-1l1,0l0,-1l1,0l1,-1l1,0l1,-1l1,0l1,0l0,-1l1,-1l1,0l0,-1l3,0l3,0l0,1l1,0l0,1l1,1l2,0l0,1l1,0l1,0l0,1l1,0c0,1,1,1,1,1c0,0,0,1,0,1l-1,0l1,1l0,1l1,0l0,1ZM219.5,402.5l1,-1l1,-1c0,0,1,0,1,0l1,0l0,-1c1,0,1,0,2,-1c0,0,1,0,1,0l0,-1l1,0l-1,-1l0,-1l1,0l0,-1l0,-1l0,-1c0,-1,0,-2,0,-2l0,-1c0,0,-1,0,-1,-1l1,-1c0,0,-1,0,-1,-1l-1,0l-1,-1l-2,0l-1,-1c0,0,-1,0,-1,-1l-1,0l0,-1l-1,0l-2,0l-2,0l-1,0l-1,0l0,1l-1,0c0,1,0,1,-1,1l-1,1l-1,0l-1,0l0,1l-1,0c-1,1,-1,1,-2,1l1,1l1,0l-1,0l0,1l-1,1l0,1c0,0,0,1,0,1l0,1l0,1l1,1l0,1l1,0l-1,0l-1,1l1,0l1,1l1,0l0,1l1,0l1,0l0,1l1,0c1,0,1,0,1,1l1,0l0,1c0,0,1,0,1,0l3,0ZM224.5,387.5l0,1l-1,-1l-1,-1c0,0,-1,0,-1,0l0,-1l1,0l0,1c1,0,1,0,1,0c0,0,1,0,1,0l0,1ZM224.5,397.5l0,1l-1,0l-1,0l0,1l-1,0c0,-1,0,-1,0,-1c0,0,1,0,1,0l1,0c0,-1,0,-1,1,-1ZM220.5,399.5c0,0,0,1,0,1c-1,0,-1,0,-1,0l-3,0l-3,0c-1,0,-1,0,-1,0l-1,-1c0,0,0,-1,1,-1l1,0l3,0l3,0l1,0l0,1ZM220.5,385.5c0,0,0,1,0,1c-1,0,-1,0,-1,0l-3,0l-3,0c-1,0,-1,0,-1,0l-1,0l0,-1c0,0,0,-1,1,-1l1,0l3,0l3,0l1,0l0,1ZM219.5,388.5c0,0,0,-1,0,-1c1,0,1,0,1,0c1,0,1,0,2,0c0,1,0,1,0,1l1,1l1,-1c0,0,0,1,1,1l0,1l0,1l0,1l0,1l0,1c0,1,0,1,0,1c-1,0,-1,1,-1,1l-1,-1l0,1l-1,0l0,1l-1,0l-1,0l-1,0l0,-1l-3,0l-3,0l-1,0l0,1l-1,0c-1,0,-1,0,-1,0c-1,-1,-1,-1,-1,-1l-1,0l0,-1l-1,1l0,-1l-1,-1l0,-1l0,-1c0,0,0,-1,0,-1c0,0,0,-1,0,-1l0,-1l1,0c0,0,0,-1,0,-1l1,1c0,0,1,0,1,-1l1,0l0,-1l1,0c0,0,1,0,1,0l0,1l1,0l3,0ZM219.5,396.5c1,0,1,1,1,1l1,0l0,-1l1,0l1,-1l1,0l1,-1l0,-1l0,-1c0,-1,0,-1,0,-2l-1,-1l-1,0l-1,-1l-1,0l0,-1l-1,0l-1,1l-3,0l-3,0l-1,0l-1,-1l-1,0c0,1,0,1,0,1l-1,0l0,1c0,0,-1,0,-1,0l-1,0l0,1l-1,0l0,1l0,1c0,0,0,1,0,1l0,1l1,0c0,1,0,1,0,1l1,0c0,0,1,0,1,0l0,1l1,0l0,1l1,0c0,0,1,0,1,-1l1,0l3,0l3,0ZM217.5,391.5c1,0,1,0,1,1l0,1c0,1,0,1,0,1l-1,1c0,0,-1,-1,-1,-1l0,-1c0,-1,0,-1,0,-1l1,0c0,-1,0,-1,0,-1ZM217.5,392.5l0,1c-1,0,-1,0,-1,0c0,1,0,1,1,1l1,0c0,0,0,-1,0,-1c0,-1,-1,-1,-1,-1ZM215.5,390.5l0,1l0,1l-1,0l0,1c0,1,0,1,0,1l0,1l0,-1l0,-1l-1,-1l0,-1l0,-1c0,1,1,1,1,1c1,0,1,0,1,-1ZM207.5,387.5l1,-1l1,0l0,-1l1,0l0,1l-1,0l0,1l-1,0l0,1l-1,-1ZM207.5,397.5l1,0l1,1l1,0l0,1l-1,0c0,-1,-1,-1,-1,-1l-1,0l0,-1ZM280.5,391.5l-1,0l0,1l-1,0l-2,1l2,0c1,0,2,0,3,0c1,0,1,0,1,0c1,-1,1,-1,2,-1c0,0,0,-1,0,-1l-1,0c0,0,-1,-1,-1,-1c0,0,-1,1,-1,1c0,0,-1,0,-1,0ZM275.5,393.5l1,0l0,-1l3,-2c1,0,1,-1,1,-1c1,0,1,0,1,0c1,0,1,0,2,0c1,0,1,0,1,0l1,1c0,1,0,1,0,1c0,1,0,1,0,1c0,1,0,1,-1,1c0,0,-1,1,-2,1c0,0,-1,0,-2,1c-1,0,-2,0,-3,0l-1,0l-1,0l0,1l0,1l0,-1l-1,0l0,-1l1,0l-1,0l0,-1c-1,0,-1,-1,-1,-1c0,0,0,1,0,1l-1,0c-1,1,-1,1,-1,1l-1,0l-2,0l0,-1c0,0,-1,0,-1,0l0,-1c0,0,-1,0,-1,-1l0,1l-1,1c0,0,-1,0,-1,0c-1,0,-1,0,-2,0l-1,0c0,0,-1,0,-1,0c0,0,0,-1,0,-1c0,-1,0,-1,0,-1l0,-1c1,0,1,1,1,1l1,0l0,1l1,0c0,-1,1,-1,1,-1l1,0l1,0l0,-1l0,-1l0,-2l-1,-1l1,-1l0,-1l1,2c0,0,0,1,0,1l0,3l0,1c1,0,1,0,1,1c0,0,1,0,1,0l1,0l1,0c0,0,1,0,1,0l1,-1c0,0,1,-1,1,-1l0,1c0,0,0,1,1,1ZM276.5,382.5l4,-3l0,1l-4,3ZM262.5,379.5c1,0,1,0,1,0c1,0,1,0,2,0c0,0,1,0,1,0c0,0,1,0,1,1c-1,0,-1,0,-1,1l-1,0c0,1,0,1,-1,1l-1,0l1,-1c1,0,1,0,2,-1c0,0,-1,0,-1,0c0,0,-1,0,-1,0c0,0,-1,0,-1,0l-1,0c0,0,0,-1,0,-1ZM249.5,398.5c0,0,1,0,1,0l1,0c1,0,1,0,2,-1c1,0,1,-1,2,-1c0,-1,1,-1,1,-2c0,-1,0,-1,0,-1c0,-1,0,-1,0,-1l0,-1l-1,0l1,-2c0,1,1,1,1,2l0,1l0,1c0,0,0,1,0,1c0,0,0,1,0,1l-1,1l0,1c0,0,-1,0,-1,1l-1,0c-1,1,-1,1,-1,1c0,0,-1,0,-1,0l-1,0c0,0,0,-1,-1,-1l-1,0ZM256.5,402.5l-5,2c1,0,1,0,1,-1l4,-2ZM249.5,388.5l-1,0l-1,0l-1,0l-1,1c-1,1,-1,1,-1,2l1,1l2,0c1,0,1,0,1,0c0,1,0,1,0,1c0,1,0,1,0,1c0,1,0,1,0,1c0,0,-1,1,-1,1c-1,0,-1,1,-2,1c-1,0,-1,1,-2,1c-1,0,-2,0,-2,0l-1,0c-1,0,-1,0,-2,0c0,0,-1,-1,-1,-1c-1,0,-1,-1,-1,-1c-1,-1,-1,-1,-1,-2c0,-1,0,-1,1,-2c0,-1,0,-1,0,-2c1,0,1,0,1,-1l1,0l-1,1l0,1c0,1,-1,1,-1,1c0,0,0,1,0,1c0,1,0,1,0,1c1,0,1,1,1,1c1,1,2,1,4,1c1,0,2,0,3,0l1,-1l1,0c1,-1,1,-1,1,-1l1,0l-2,0c-1,-1,-2,-1,-3,-1c0,0,0,-1,0,-1c0,0,0,-1,0,-1c0,0,0,-1,0,-1c0,-1,1,-1,1,-1c0,-1,0,-1,0,-1l1,0c0,0,0,-1,0,-1c1,0,1,-1,2,-1c0,0,1,0,1,0l1,0c0,0,0,1,0,1l0,1ZM304.5,390.5c0,0,0,-1,0,-1c0,-1,0,-2,0,-3c-1,-1,-1,-2,-1,-3c0,-1,0,-1,0,-1c1,-1,1,-1,1,-1c0,1,0,1,0,1c1,0,1,0,1,0c0,1,0,1,0,1c0,1,0,1,0,1c0,1,0,1,0,2c0,1,0,2,0,3c0,1,0,1,0,1c0,1,0,1,0,1l0,1c0,1,0,1,0,1c0,0,-1,0,-1,0c0,1,0,1,0,1c-1,1,-1,1,-1,1c1,0,1,0,1,0c0,0,1,0,1,0c0,1,0,1,0,1l0,1l0,1l-1,0c0,0,0,1,-1,1c0,0,-1,1,-2,1c-1,0,-2,1,-3,1c0,0,-1,-1,-2,-1c0,0,-1,0,-1,-1c-1,0,-1,0,-1,-1c0,0,0,-1,0,-1c0,-1,0,-1,0,-1c0,0,0,-1,0,-1c0,-1,1,-2,1,-2l1,0c-1,0,-1,1,-1,1c0,1,-1,1,-1,2l1,0c0,1,0,1,1,2c0,0,1,1,2,1l1,0c0,0,1,0,1,0c0,-1,1,-1,1,-1c1,0,2,0,2,-1c1,0,1,0,1,0c0,-1,-1,-1,-1,-1c-1,0,-1,0,-2,0c0,-1,0,-1,0,-1c0,0,0,-1,0,-1c1,0,1,0,1,-1c1,0,1,0,1,0c1,0,1,-1,1,-1c0,-1,0,-1,0,-1c0,0,0,-1,0,-1ZM307.5,402.5l-4,2l1,-1l4,-2ZM347.5,395.5l0,-2l0,-1l-1,-8l1,-3l1,11c0,0,-1,1,-1,1c0,1,0,1,0,2ZM338.5,385.5l-1,-1l0,-1l2,1ZM340.5,387.5l-2,-1l-1,2l-1,-1l1,-2l1,1l1,-1l2,1ZM334.5,389.5c1,0,1,0,1,0c0,1,0,1,0,1l0,1c0,1,0,1,0,1l1,1l1,0l1,0c0,0,1,-1,1,-1l0,-1l1,-1l0,1l0,1c0,0,1,0,1,1l1,0c0,0,0,-1,0,-1l0,-2l0,1l1,0c0,0,0,1,0,1c0,0,0,1,0,1c0,0,0,1,0,1c0,0,-1,0,-1,0c0,1,0,1,-1,1c0,0,0,-1,0,-1l-1,0c0,0,-1,0,-1,0l-1,0c0,0,0,1,0,1l-1,0c-1,0,-1,0,-1,0c-1,0,-1,-1,-1,-1l-1,-1l0,-1l0,-1l0,1c-1,0,-1,0,-1,0c0,1,-1,1,-1,1l-1,0l0,1l0,1c0,0,0,1,-1,1c0,0,0,1,0,1c0,0,-1,1,-1,1c0,0,-1,1,-1,1c-1,0,-1,0,-1,0c-1,0,-1,0,-1,0l-1,0c0,0,-1,0,-1,0l-1,0l0,-1c0,0,1,0,1,0l1,0l1,0l1,0l0,-1c1,0,1,0,1,0c1,-1,1,-1,1,-2c0,0,1,0,1,-1c0,-1,0,-1,0,-1l1,0l-1,0l0,-2l1,0l1,0c1,0,1,0,1,-1c0,0,1,0,1,0l0,-1ZM335.5,374.5c0,0,1,0,1,-1c1,0,1,0,1,0c1,0,1,0,2,1c0,1,0,1,0,1c0,1,-1,1,-1,1c0,0,-1,0,-1,0l-1,0l-1,0l2,0c1,-1,1,-1,2,-1c-1,0,-1,0,-1,0c0,0,-1,0,-1,0c0,0,-1,0,-1,0c0,0,-1,0,-1,0c0,0,0,-1,0,-1ZM327.5,385.5l4,-2c0,1,0,1,0,1l-4,2ZM322.5,404.5l-1,0c-1,0,-1,0,-1,0l-1,0c-1,0,-1,0,-2,0c-1,0,-1,-1,-2,-1l0,-1l-1,0c0,0,0,-1,0,-1c0,0,0,-1,-1,-1l0,-1l0,-1c0,0,0,-1,1,-2c0,0,0,-1,1,-2c0,-1,0,-1,1,-2c1,0,1,-1,2,-1l-1,-1l-1,0l-1,0l-1,1l0,-1c1,0,1,-1,1,-1c1,0,1,0,1,0c1,0,1,0,1,0l1,0l2,0c0,0,1,0,2,0c1,0,2,0,2,0l1,0l-1,2l-1,0l-1,0l-1,0l-1,0c-1,0,-1,0,-2,0c0,1,0,1,0,1c0,0,-1,0,-1,0c0,1,-1,1,-1,1l0,1c-1,0,-1,1,-1,2c0,0,-1,1,-1,1c0,1,0,1,1,2l0,1l1,1c1,0,1,1,2,1c0,0,1,0,1,0c1,1,1,1,2,1l1,0l1,0c0,0,1,0,1,0l1,0l1,0l1,-1l0,1ZM313.5,380.5c0,0,1,0,1,0c0,0,1,0,1,0c1,0,1,0,2,0c0,0,0,1,0,1l0,1c-1,0,-1,0,-1,0c0,0,-1,0,-1,0c0,1,0,1,-1,1c0,0,-1,0,-1,-1l2,0c1,0,1,-1,1,-1c-1,0,-1,0,-1,0c-1,0,-1,0,-1,0c-1,0,-1,0,-1,0c0,-1,0,-1,0,-1ZM370.5,398.5c0,0,1,0,1,0l1,0c0,0,1,0,2,-1c1,0,1,-1,2,-1c0,-1,0,-1,1,-2c0,-1,0,-1,0,-1c0,-1,0,-1,0,-1l0,-1l-1,0l1,-2c0,1,1,1,1,2l0,1l0,1c0,0,0,1,0,1c0,0,0,1,0,1l-1,1l0,1c0,0,-1,0,-1,1l-1,0c-1,1,-1,1,-1,1c-1,0,-1,0,-1,0l-1,0c0,0,-1,-1,-1,-1l-1,0ZM373.5,385.5l4,-2c0,1,0,1,-1,1l-4,2ZM363.5,399.5l-2,-1l1,-1l1,0ZM370.5,393.5c-1,0,-1,0,-2,1c-1,0,-2,0,-3,1c-1,0,-2,0,-4,0c-1,0,-2,0,-3,0c-1,0,-2,-1,-3,-1c0,-1,0,-1,0,-1l-1,-1l0,-1c0,0,1,-1,1,-1c0,-1,0,-1,1,-2c0,0,0,1,0,1l0,1c-1,0,-1,0,-1,1l1,1c0,0,1,0,1,1c1,0,1,0,1,0l1,0l1,0l2,0c1,0,2,0,2,0c0,0,1,0,1,0c0,0,1,0,1,0l1,-1c1,0,1,0,2,0c0,-1,1,-1,1,-1l0,-1c0,0,-1,-1,-1,-1l0,-1c1,0,1,-1,1,-1c0,1,0,1,1,2c0,0,0,1,0,1c0,1,0,1,0,1c0,1,-1,1,-1,2ZM361.5,385.5c0,1,0,1,0,1c1,-1,1,-1,1,-1l0,-1l0,1l1,0l0,-1l1,-1l0,1l0,1c0,1,0,1,-1,1c0,0,-1,0,-1,0c0,1,-1,1,-1,1l-1,0c0,0,0,-1,0,-1l0,-1ZM362.5,400.5l-4,2c1,0,1,-1,1,-1l4,-2ZM140.5,395.5l0,-2l0,-1l-1,-8l1,-3l1,11c0,0,0,1,-1,1c0,1,0,1,0,2Z" class="g1_18" />
</svg>