<?xml version="1.0" encoding="UTF-8" standalone="no"?>
<!DOCTYPE svg PUBLIC "-//W3C//DTD SVG 1.1//EN"
"http://www.w3.org/Graphics/SVG/1.1/DTD/svg11.dtd">
<svg version="1.1" xmlns="http://www.w3.org/2000/svg" xmlns:xlink="http://www.w3.org/1999/xlink">
<defs>
<style type="text/css"><![CDATA[
.g2_31{
fill: #1F1A17;
stroke: #1F1A17;
stroke-width: 1;
stroke-linecap: butt;
stroke-linejoin: miter;
}
.g1_31{
stroke: #1F1A17;
stroke-width: 1;
stroke-linecap: butt;
stroke-linejoin: miter;
}
]]></style>
</defs>
<path fill-rule="evenodd" d="M268.5,216.5l-4,2c1,-1,1,-1,1,-1l4,-2ZM83.5,165.5l0,1l-1,0c1,0,1,0,1,0l1,0ZM85.5,168.5c-1,0,-1,0,-2,0l-1,0c0,0,-1,0,-1,0c-1,0,-1,0,-1,0c-1,0,-1,0,-1,0l0,-1c0,0,0,-1,0,-1c0,0,1,0,1,0l1,0c1,0,1,0,1,-1l1,0c0,0,0,-1,0,-1l-1,-1c-1,-1,-1,-2,-2,-2c0,0,0,-1,-1,-2c0,0,-1,0,-1,0c0,0,0,-1,0,-1c-1,0,-1,0,-1,0c0,0,-1,0,-1,0l-1,-1l0,-1c0,0,0,-1,0,-1l1,0c0,0,1,0,1,1c1,0,1,0,2,1c0,1,1,1,2,2c0,1,1,1,1,2c1,1,1,1,1,1c0,1,0,1,1,1l0,-1c0,-1,0,-1,0,-2c0,-1,0,-1,0,-2l0,-1c0,-1,0,-1,0,-2c0,-1,0,-1,0,-1c0,-1,1,-1,1,-1c0,0,0,1,0,1c1,0,1,1,1,1l0,1l-1,0c0,0,0,1,0,1c0,0,0,1,0,1c0,1,0,1,0,2l0,1c0,1,0,1,0,2c-1,0,-1,1,-1,1c0,1,0,1,0,1c0,0,1,0,1,1c0,1,0,1,0,1c0,0,0,1,0,1ZM81.5,151.5l0,1c0,0,1,0,1,0l0,-1l0,-1l1,0l0,1c0,0,1,0,1,-1l0,1l0,1l-1,0l-1,0l0,1c0,0,-1,0,-1,0l0,-1l0,-1ZM85.5,148.5l-6,3c1,-1,1,-1,1,-2l6,-2ZM124.5,166.5l-1,0c-1,0,-1,1,-2,1l-1,0l-1,0l-1,0l0,-1c0,0,0,-1,0,-1l1,0c1,0,1,0,2,0l1,0c0,0,0,-1,1,-1c0,0,0,-1,0,-1c0,-1,0,-1,-1,-1l0,-1l-1,0l-1,-1l0,-2c0,0,1,0,1,0l0,1c0,0,1,0,1,0c1,1,1,1,1,1c0,0,0,1,1,1c0,0,0,1,0,1c0,1,0,1,0,1c0,0,0,1,0,1l0,1l0,1ZM120.5,154.5l4,-2l0,1l-4,2ZM114.5,167.5l0,-1l0,-2l-1,-8l1,-2l1,10c0,1,0,1,0,1l-1,1c0,0,0,1,0,1ZM111.5,147.5l1,0l1,0c1,0,1,0,2,0l1,0c0,1,0,1,-1,1l-1,0l-1,0l-1,0l-1,0c0,0,-1,0,-1,0c0,-1,1,-1,1,-1ZM109.5,171.5l-1,-1l1,-2l1,1ZM107.5,167.5l-1,0c-1,0,-1,0,-2,0c0,0,0,-1,-1,-1l0,-1c0,0,0,-1,0,-1l-1,0c0,1,0,1,0,1l-1,0l-1,0c0,0,-1,0,-1,0l-1,0l0,-1c0,-1,1,-1,1,-2c1,0,1,0,2,-1c1,0,1,-1,1,-1c0,0,0,-1,0,-1l1,-1l0,2l0,1l0,1l1,2c0,1,0,1,0,1l1,0l1,0l1,0c0,0,1,0,1,0c1,0,1,0,1,-1c0,0,0,-1,0,-1l0,-1l-1,0l1,-2c0,1,0,1,1,1l0,1l0,1l0,1l0,1l-1,1l-1,1c0,0,-1,0,-1,0ZM106.5,155.5l1,1c0,0,0,-1,1,-1l0,-1l0,1c0,0,1,0,1,0l0,-1l1,-1l0,1l0,1l-1,0c0,1,0,1,0,1l-1,0c-1,1,-1,1,-1,1c-1,0,-1,0,-1,0c0,-1,0,-1,0,-1l0,-1ZM111.5,152.5l-6,2c1,0,1,-1,1,-1l5,-3ZM102.5,158.5l-2,-1l0,1l-2,-1l1,-1l1,1l1,-2l2,1ZM102.5,161.5l0,1l-1,0c-1,1,-1,1,-1,1l1,0c1,0,1,0,1,0l1,0ZM104.5,171.5l-5,2l0,-1l6,-2c-1,0,-1,1,-1,1ZM99.5,171.5l0,-1l6,-2c-1,0,-1,1,-1,1ZM148.5,166.5l-1,0c-1,0,-1,0,-1,0l-1,-1l0,1c-1,0,-1,0,-1,1l-1,0l-1,0l-1,0c0,0,0,1,0,1c0,0,0,1,0,1c0,0,0,1,-1,2c0,0,0,1,-1,1c0,1,-1,1,-2,1c-1,1,-1,1,-2,1c-1,0,-1,0,-2,-1c-1,0,-1,0,-1,0c-1,-1,-1,-1,-1,-1c-1,-1,-1,-2,-1,-2c0,0,0,-1,0,-1c0,0,0,-1,0,-1c0,0,1,0,1,0c0,0,0,-1,0,-1l0,-1c0,0,1,0,1,0c0,0,0,1,0,1c-1,0,-1,1,-1,1c0,1,0,1,0,1c0,1,0,1,0,1c1,0,1,1,1,1l1,0c1,1,1,1,2,1c1,0,2,0,3,-1c0,0,1,0,1,-1c1,0,1,0,1,0c0,0,0,-1,0,-1c0,0,0,-1,0,-1c0,0,0,-1,0,-1c0,0,-1,0,-1,0c0,-1,0,-1,0,-1l1,-2l0,1c0,0,1,0,1,0l1,0l1,0c1,0,1,0,1,0l1,-1l0,-1c0,0,1,-1,1,-1c1,0,1,-1,1,-1c1,0,1,1,1,1c0,0,1,1,1,1l0,1l0,1c0,1,-1,1,-1,1ZM146.5,164.5l1,0l1,0l-1,0c0,-1,0,-1,0,-1c-1,0,-1,0,-1,0c0,1,0,1,0,1ZM147.5,170.5l-4,2c0,-1,0,-1,0,-1l5,-2ZM136.5,164.5l-2,-1l1,-1l1,1ZM169.5,166.5c-1,0,-1,0,-1,0l-1,0l-1,0l-1,-1l0,1l-1,1l-1,0l-2,0c0,0,-1,0,-1,-1c-1,0,-1,-1,-1,-2l-1,-8l1,-2l1,9l0,1c0,1,1,1,1,1l2,0l1,0l1,0l0,-1l1,-1c0,0,0,-1,1,-1c0,0,0,-1,1,-1c0,0,0,1,1,1c0,0,0,1,0,1l0,1l0,1c0,1,0,1,0,1ZM167.5,164.5l1,0c0,-1,0,-1,-1,-1c0,1,-1,1,-1,1c0,0,1,0,1,0ZM169.5,149.5l-6,3c0,0,1,-1,1,-1l5,-3ZM223.5,163.5c0,1,0,1,1,1c0,-1,0,-1,0,-1l-1,0ZM223.5,171.5c0,0,-1,0,-1,0c0,0,-1,1,-1,1l-1,0c0,0,-1,-1,-1,-1c-1,0,-1,0,-1,0c0,0,0,-1,0,-1c0,0,0,1,1,1c1,0,1,0,1,0c0,0,1,0,1,-1c0,0,1,0,1,0c0,0,1,-1,1,-1c0,0,1,-1,1,-1l0,-1c1,-1,1,-1,1,-1c0,0,0,-1,0,-1l-1,1l-1,0c-1,0,-1,0,-1,-1l0,-1l0,-1c0,0,0,-1,0,-1c1,-1,1,-1,1,-1c0,0,1,0,1,0l1,0l0,1l0,1c1,0,1,0,1,1c0,0,0,1,0,1l0,1c0,1,-1,2,-1,3l-1,1l-1,1ZM221.5,157.5l4,-2l0,1c-1,0,-1,0,-1,0l-4,2ZM210.5,170.5c1,0,1,0,1,0l1,0c1,0,2,0,3,-1l1,-1c0,0,1,-1,1,-1c0,-1,0,-1,0,-1c1,0,1,-1,1,-1c-1,0,-1,0,-1,0l0,-1l0,-1c-1,0,-1,0,-1,0l1,-1l0,-1l1,1l0,1l0,1l0,1c0,0,0,1,0,1c0,1,0,1,0,1c0,0,0,1,0,1c-1,0,-1,1,-1,1l-1,1l-1,0l0,1c0,0,-1,0,-1,0c0,0,-1,0,-1,0l-1,0c-1,0,-1,-1,-1,-1l-1,0ZM213.5,157.5l4,-2l0,1l-4,2ZM209.5,171.5l-1,-1l1,-2l1,1ZM207.5,167.5l-1,0l-1,0c0,0,-1,0,-1,-1c0,0,-1,0,-1,-1l-2,-2c-1,0,-1,0,-1,0l-1,-1l0,1l0,1c0,0,0,1,0,1c0,0,0,1,-1,1c-1,0,-1,1,-1,1c-1,0,-1,0,-1,0l-1,0c-1,0,-2,0,-2,-1l-1,0c0,0,0,1,0,1l-1,0c0,0,-1,0,-1,0c-1,0,-1,0,-2,-1l0,1l0,1c0,0,-1,0,-1,1c-1,0,-1,0,-2,0c-2,1,-3,1,-4,1l4,-2l2,-1c0,0,0,-1,1,-1l1,-2c0,0,0,-1,0,-1c1,0,1,0,1,0l0,-1l1,0c0,0,0,1,1,2c0,0,1,0,1,1c0,0,1,0,1,0l1,0l1,0c0,0,1,0,1,0c1,0,1,0,1,0c0,-1,0,-1,0,-1c0,0,1,0,1,0c0,0,0,-1,0,-1l-1,-1c0,0,-1,-1,-1,-1l-1,-1l-1,0c-1,0,-1,0,-1,-1l0,-1l0,-1l0,-1c0,0,1,0,1,0c0,0,1,-1,3,-1c1,-1,2,-2,4,-2c1,-1,2,-1,3,-1l1,0l-1,1c-1,1,-1,1,-1,1c0,0,-1,0,-2,0c-2,1,-3,2,-4,2c-2,1,-3,1,-3,1l0,1c-1,0,-1,0,-1,0l1,0c1,1,1,1,1,1c1,0,1,0,1,0l1,1c1,0,1,0,2,1c0,0,1,1,1,1c1,1,1,1,2,1l2,2l1,0l1,0c0,0,1,0,1,0c1,0,1,0,1,-1l1,0c0,0,-1,-1,-1,-1l0,-1l1,-2c0,1,0,1,0,1l0,1l0,1l0,1l0,1l0,1c-1,0,-1,0,-2,1c0,0,-1,0,-1,0ZM205.5,155.5l0,1c1,0,1,0,1,0l0,-1l1,0c0,1,0,1,0,1c1,0,1,0,1,-1l0,-1l0,1l0,1c0,1,0,1,0,1l-1,0l-1,0c0,0,0,1,-1,1l0,-1l0,-1l0,-1ZM209.5,173.5l-4,2c0,-1,0,-1,0,-1l4,-2ZM198.5,148.5c0,-1,0,-1,1,-1c0,-1,0,-1,0,-1l1,0c0,1,0,1,0,1c0,1,0,1,0,1l0,1l0,2l-1,-1l-1,1c0,0,0,1,-1,1l-1,0l0,-1l1,0l1,-1l1,0l-1,0l0,-1l0,-1ZM199.5,148.5l0,-1c0,0,0,1,0,1l0,1l0,-1ZM191.5,165.5c0,-1,-1,-1,-1,-1c-1,0,-1,0,-1,1c0,0,1,0,1,0l1,0ZM245.5,170.5c0,0,1,0,1,0l1,0c1,0,2,0,3,-1l1,-1c0,0,1,-1,1,-1c0,-1,0,-1,1,-1c0,0,0,-1,0,-1l0,-1l-1,0l0,-1l-1,0l1,-1l0,-1l1,1l0,1l0,1l0,1c0,0,0,1,0,1c0,1,0,1,0,1c0,0,0,1,0,1c0,0,-1,1,-1,1l-1,1l-1,0l0,1c0,0,-1,0,-1,0l-1,0l-1,0c-1,0,-1,-1,-1,-1ZM248.5,157.5l4,-2l0,1l-4,2ZM247.5,169.5l-1,-1l1,-1l1,1ZM241.5,167.5l0,-1l1,0c0,0,1,0,1,0c1,0,1,0,1,-1c0,0,0,-1,0,-1c0,0,-1,-1,-1,-1l1,-1l0,-1c0,1,0,1,1,2l0,1c0,1,0,1,0,1c0,1,0,1,-1,2l1,0c0,0,0,1,0,1c0,0,0,1,0,1c0,0,0,1,0,1c-1,0,-1,0,-1,0c0,0,0,1,-1,1c-1,1,-1,1,-2,1c-1,1,-2,1,-3,1c-1,0,-1,0,-2,-1c-1,0,-1,0,-2,-1l0,-1c-1,0,-1,0,-1,-1c0,-1,1,-1,1,-2c0,-1,0,-2,1,-2c0,0,0,1,0,2c-1,0,-1,1,-1,1l0,1c0,0,1,1,1,1c1,1,2,1,3,1c0,0,1,0,1,0c0,0,1,0,1,0c0,0,1,0,1,-1c1,0,1,0,2,0c0,-1,1,-1,1,-1c0,0,-1,0,-2,-1c0,0,-1,0,-1,0l0,-1ZM241.5,155.5l0,1c1,0,1,0,1,0l1,-1c0,1,0,1,0,1l1,0l0,-1l0,-1l1,0l0,1l0,1l-1,0c0,1,0,1,0,1l-1,0c-1,0,-1,1,-1,1c-1,0,-1,0,-1,-1l0,-1l0,-1ZM245.5,173.5l-4,2c0,-1,0,-1,1,-1l3,-2ZM278.5,167.5l0,-1l0,-2l-1,-8l1,-2l1,10c0,1,0,1,0,1l-1,1c0,0,0,1,0,1ZM273.5,166.5c-1,0,-1,0,-2,0c0,0,0,-1,-1,-2c0,1,0,1,0,2c-1,0,-1,1,-2,1c-1,0,-1,0,-2,-1c0,0,0,-1,0,-2c-1,1,-1,1,-1,1c-1,0,-1,1,-2,1c0,0,-1,-1,-1,-1c-1,0,-1,0,-1,0c0,-1,0,-1,1,-2l1,-1l1,0l1,-1l0,-1l1,-1l0,1l0,1l0,2c0,0,0,1,1,1c0,1,1,1,1,1c1,0,1,0,1,-1c1,0,1,0,1,-1c0,0,0,-1,0,-2c0,0,0,-1,0,-1c0,-1,0,-1,0,-1c-1,0,-1,-1,-1,-1l1,-1l0,-1l1,3l0,2l0,1l0,1l0,1c1,0,1,0,1,0l1,0c1,0,1,0,1,0c0,-1,0,-1,0,-2l-1,-1l0,-1l0,-1l0,-1l0,-1l1,0c0,0,0,1,0,1c0,0,0,1,0,1l0,2c1,1,1,1,1,2c0,1,0,1,-1,2c0,0,0,1,0,1c0,0,-1,0,-1,0ZM265.5,162.5c0,0,-1,0,-1,0c0,0,0,1,0,1c-1,0,-1,0,-1,1c1,0,1,0,2,-1l1,0ZM265.5,169.5l-4,2c0,0,0,-1,0,-1l4,-2ZM310.5,163.5c-1,1,-1,1,-2,2c-1,0,-2,1,-4,1c-1,1,-2,1,-3,1c-1,0,-1,0,-1,-1c-1,0,-1,-1,-1,-2l-1,1c0,0,0,1,0,1c-1,0,-1,1,-1,1c0,0,-1,0,-1,0c0,0,1,0,1,0c0,0,1,0,1,0c1,0,1,1,1,1c0,0,0,1,0,1c0,0,0,1,-1,1c0,0,-1,1,-1,1c-1,1,-2,1,-2,1c-1,1,-2,1,-3,1c-1,0,-1,0,-2,-1c-1,0,-1,0,-2,-1l-1,-1l0,-1c0,-1,0,-1,1,-2c0,-1,0,-2,1,-2c0,0,-1,1,-1,2c0,0,0,1,0,1l0,1c0,0,1,1,1,1c1,1,2,1,3,1c1,0,1,0,2,0l1,-1c0,0,1,0,2,0c0,-1,0,-1,1,-1c-1,0,-1,0,-2,-1c0,0,-1,0,-1,0l0,-1l0,-1c1,0,1,0,1,-1c1,0,1,0,1,0c1,0,1,0,1,0l0,-1l0,-1c0,-1,0,-1,0,-1l0,-7l1,-2l0,10c0,1,0,1,1,1l0,1c0,0,1,0,1,0l1,0c1,0,1,0,2,0c-1,-1,-1,-1,-1,-2l0,-1l0,-1c0,-1,0,-1,0,-1c1,0,1,0,1,0c0,-1,0,-1,0,-1c1,0,1,0,1,0c1,0,1,-1,1,-1l1,0l0,1c1,0,1,0,1,0l1,0l0,1l-1,0l-1,0l-1,0l-1,0c-1,0,-1,1,-1,1l0,1l1,1c0,0,1,0,1,1c1,0,1,0,1,0l1,-1l1,0l1,-1l1,0ZM302.5,154.5l4,-2l0,1l-4,2ZM295.5,151.5l4,-3l0,1l0,1l-4,2ZM358.5,158.5l-1,0l-1,1l-1,-1l1,-2l1,1l1,-1l1,1ZM356.5,167.5l-1,0l-1,0c0,0,0,1,0,1c-1,0,-1,1,-1,1c0,0,0,1,-1,1c0,0,0,1,-1,1l0,1c-1,0,-1,0,-1,0l-1,0l-1,0c0,0,-1,0,-2,0l0,-1l1,0c1,0,1,0,2,0l1,-1l1,0c0,0,0,-1,0,-1c1,0,1,0,1,-1l0,-1c1,0,1,0,1,0c0,0,-1,0,-1,0c-1,0,-1,0,-1,0l0,-1c-1,0,-1,0,-1,0c0,0,0,-1,0,-1c0,0,0,-1,0,-1c0,-1,0,-1,0,-1c1,0,1,0,1,0c0,0,0,-1,0,-1c1,0,1,0,1,0l1,0l0,1c1,1,1,1,1,1c0,0,0,1,0,1c0,0,1,0,1,0c1,0,1,0,1,0c1,0,1,0,2,0c0,0,1,0,1,-1c0,0,0,-1,0,-1c0,0,-1,0,-1,0l0,-1l1,-2c0,1,0,1,0,1l0,1l1,0l0,1l0,1l0,1c0,0,-1,0,-1,0l0,1c0,0,-1,0,-1,1c-1,0,-1,0,-2,0ZM356.5,151.5l4,-3l0,1l0,1l-4,2ZM352.5,164.5c0,0,-1,0,-1,0c0,0,0,1,0,1c1,0,1,0,1,0l1,0c-1,-1,-1,-1,-1,-1ZM348.5,157.5l4,-2l0,1l-4,2ZM347.5,154.5c0,0,-1,0,-2,1c-1,0,-2,1,-4,1c-1,1,-2,1,-2,1c0,0,-1,0,-1,1l1,1l2,1c0,0,1,0,1,1c0,0,1,1,1,1c0,1,0,1,0,2c0,0,0,1,0,1c0,0,-1,1,-1,1c-1,0,-1,1,-1,1c-1,0,-1,0,-2,0c-1,0,-1,0,-2,0c0,-1,-1,-1,-1,-2c0,0,0,1,-1,1l0,1l-1,0c0,0,-1,0,-1,0c0,0,0,-1,0,-1c-1,0,-1,0,-1,0l0,-1c0,1,0,1,-1,1c-1,1,-2,1,-3,1l-1,0c-1,1,-1,1,-1,1c0,0,-1,0,-1,0l-1,0l-1,0c-1,0,-2,0,-3,-1c-1,0,-2,0,-3,-1l0,-1l-1,0l0,-1c0,-1,1,-1,1,-2c0,0,0,-1,1,-1c0,0,0,1,-1,1c0,1,0,1,0,1c0,1,0,1,1,1c0,1,0,1,1,1l1,0c0,1,0,1,0,1c0,0,1,0,1,0c1,0,2,0,3,0c1,0,2,0,2,0c0,0,1,0,2,0c0,-1,1,-1,1,-1c1,0,2,0,2,-1c1,0,1,0,2,-1c0,1,0,1,0,1l0,1c0,0,1,0,1,0c0,0,1,0,1,0c0,0,1,0,1,-1c0,0,0,-1,0,-1c0,0,0,-1,0,-1l0,-7l0,-2l1,10c0,1,0,1,0,1l1,1l1,0l1,0l1,0l1,0l0,-1c0,0,1,0,1,0c0,0,-1,-1,-1,-1c0,-1,-1,-1,-1,-2c-1,0,-1,0,-1,0c0,0,-1,0,-1,-1c0,1,0,1,0,1c0,0,-1,-1,-1,-1l0,-1c0,0,-1,0,-1,0l0,-1l1,-1c0,-1,0,-1,0,-1c0,0,1,0,1,0c0,0,1,-1,3,-1c1,-1,2,-2,4,-2c1,0,1,0,2,-1ZM341.5,149.5l0,1c0,0,1,-1,1,-1l0,-1l0,1c1,0,1,0,1,0l0,-1l1,-1l0,1l0,1l0,1c0,0,-1,0,-1,0l-1,0l0,1c-1,0,-1,0,-1,0c0,0,-1,0,-1,0l0,-1l0,-1ZM345.5,146.5l-6,3c0,-1,1,-2,1,-2l5,-2ZM334.5,145.5c1,0,1,0,1,0c1,0,1,0,2,0c0,0,1,0,1,0c0,0,1,0,1,1c-1,0,-1,0,-1,1l-1,0c0,0,0,1,0,1c-1,0,-1,0,-1,0l-1,0l1,-1c1,0,1,0,2,-1c0,0,-1,0,-1,0l-1,0c0,0,-1,0,-1,0l-1,0c0,0,0,-1,0,-1ZM326.5,161.5l-2,-1l0,2l-2,-1l1,-2l2,1l0,-1l2,1ZM323.5,148.5c0,-1,0,-1,1,-1c0,-1,0,-1,0,-1c1,0,1,0,1,0c0,1,0,1,0,1c0,1,0,1,0,1l0,1l0,2l-1,-1l-1,1c0,0,0,1,-1,1l-1,0l0,-1l1,0l1,-1l0,-1l0,-1ZM324.5,148.5l0,-1c0,0,-1,1,-1,1l1,0l0,1l0,-1ZM377.5,160.5l-1,-1l1,-1l1,1ZM375.5,167.5l1,-1c0,0,1,0,1,0c1,0,1,0,1,-1l1,0c0,0,-1,-1,-1,-1c0,0,0,-1,0,-1l0,-1l0,-1c1,1,1,1,1,2l0,1c0,1,0,1,0,1c0,1,0,1,0,2c0,0,-1,0,-1,0c1,0,1,0,1,0c0,0,0,1,1,1c0,0,0,1,0,1c0,0,-1,0,-1,0c0,0,0,1,0,1c-1,0,-1,1,-2,1c0,1,-1,1,-2,1c-1,1,-2,1,-2,1c-1,0,-1,0,-1,0c0,0,-1,0,-1,-1c-1,0,-2,0,-2,-1c0,0,-1,0,-1,-1l0,-1c0,-1,0,-1,0,-2c0,-1,1,-2,1,-2l1,0c-1,0,-1,1,-1,2c0,0,0,1,0,1l0,1c0,0,0,1,1,1c0,1,1,1,2,1c0,0,1,0,1,0c1,0,1,0,1,0c1,0,1,0,1,-1c1,0,2,0,2,0c1,-1,1,-1,1,-1c0,0,-1,0,-1,-1c-1,0,-1,0,-1,0c0,0,-1,0,-1,0l0,-1ZM376.5,152.5l0,1c1,0,1,0,1,0l0,-1c0,1,0,1,1,1l0,-1l1,-1l0,1l0,1c0,0,0,1,-1,1c0,0,-1,0,-1,0c0,0,-1,1,-1,1l-1,-1l0,-1l0,-1ZM379.5,173.5l-4,2c1,-1,1,-1,1,-1l4,-2ZM368.5,155.5l1,0l1,0c0,0,1,0,1,0c1,0,1,0,1,0c0,1,0,1,0,1c0,0,-1,0,-1,1c0,0,-1,0,-1,0c-1,1,-1,1,-1,1l-1,0l0,-1l2,0c0,0,1,-1,1,-1l-1,0c-1,0,-1,0,-2,0l-1,0c1,-1,1,-1,1,-1ZM233.5,156.5c0,0,1,0,1,0c0,0,1,0,1,0c1,0,1,0,2,0l0,1c0,0,0,1,0,1c-1,0,-1,0,-1,0c0,1,0,1,0,1c0,0,-1,0,-1,0l-1,0l-1,0l2,-1c1,0,1,0,2,-1c-1,0,-1,0,-1,0c-1,0,-1,0,-1,0c0,0,-1,0,-1,0c-1,0,-1,0,-1,1l0,-1l0,-1ZM185.5,155.5c0,0,1,0,1,0c1,0,1,0,2,0c0,0,1,0,1,0c0,0,1,0,1,0c0,1,0,1,-1,1l0,1c0,0,-1,0,-1,0l-1,0c0,1,0,1,-1,1l-1,-1l2,0c1,0,1,-1,2,-1c-1,0,-1,0,-1,0c0,0,-1,0,-1,0c0,0,-1,0,-1,0c0,0,-1,0,-1,0c0,-1,0,-1,0,-1ZM132.5,155.5c0,0,0,-1,1,-1l1,0c0,0,1,0,1,0c1,1,1,1,1,1c0,1,-1,1,-1,1c0,0,0,1,0,1c-1,0,-1,0,-1,0c-1,0,-1,0,-1,0l-1,0l1,0c1,-1,2,-1,2,-1c0,0,0,-1,-1,-1c-1,0,-1,0,-2,1l-1,0c0,-1,0,-1,0,-1c1,0,1,0,1,0ZM174.5,163.5l1,0c0,0,0,-1,0,-1c1,0,1,0,1,0l0,-1l0,-1l-1,-2l0,-1l1,0c0,1,0,1,0,1l0,1l0,1l0,1l0,1l1,-1c1,0,1,-1,1,-1l1,0l0,1c1,0,1,0,1,0c0,1,0,1,0,1l-1,0c0,0,0,1,0,1c-1,0,-1,0,-2,0l-1,0ZM178.5,161.5l-1,1l-1,0l0,1l0,-1c1,0,1,0,1,0l1,0c0,0,1,0,1,0l0,-1c0,0,-1,0,-1,0ZM85.5,211.5c0,1,0,1,0,2l-1,1l0,1l1,0l-1,1l-1,0c0,0,0,1,0,1l-1,0c0,1,0,1,-1,1l-1,0l-1,1c-1,0,-1,0,-1,0l-1,1l-1,1l-3,0l-3,0l0,-1l-1,-1c-1,0,-1,0,-1,0c-1,0,-2,-1,-3,-1l-1,0l0,-1l-1,0l0,-1l-1,0l0,-1l-1,0l1,0l1,0l-1,-1l0,-1l-1,0l0,-1l0,-1l0,-1c0,0,0,-1,0,-1c0,0,1,0,1,-1c0,0,0,-1,0,-1l1,0l-1,-1l-1,0c1,0,1,0,1,-1l1,0l1,-1l1,0l0,-1l1,0l2,-1l1,0l0,-1c1,0,1,-1,1,-1l3,0l3,0l1,1l1,1l1,0l1,1l1,0c1,1,1,1,1,1l1,0l0,1c1,0,2,1,2,1l-1,1l1,1l0,1l0,1ZM76.5,221.5l1,-1l0,-1l1,0c1,0,1,-1,2,-1l1,0c0,0,1,-1,1,-1l1,0c0,-1,0,-1,0,-1l1,0l0,-1l-1,0l1,-1l0,-1l1,0l0,-1l0,-1c0,-1,0,-2,0,-3c0,0,-1,0,-1,0c0,-1,0,-1,0,-1l-1,0l0,-1l2,0c-1,0,-1,-1,-2,-1l-1,-1l-1,0l-1,-1l-2,0c0,-1,0,-1,0,-1l-1,-1l-1,0l0,-1l-1,0l-2,0l-1,0l-2,0l0,1l-1,0l0,1c0,0,-1,0,-1,1l-2,0l-1,1l-1,0l0,1l-1,0c0,0,-1,1,-1,1l1,0l0,1l-1,1l0,1l0,1c0,0,-1,0,-1,1l1,0l0,1l0,1c0,0,0,1,0,1l1,0l0,1l-1,0l0,1l1,0l1,0l0,1l1,0l1,1l1,0l1,1c0,0,1,0,1,0l0,1l1,0c0,1,0,1,0,1l3,0ZM82.5,206.5l-1,0l-1,-1l-1,0l-1,0c1,0,1,-1,1,-1l-1,0c1,0,1,0,1,0l1,0c0,1,1,1,1,1l1,1ZM82.5,216.5l-1,0l0,1l-1,0l-1,0l0,1l0,-1l-1,0c1,0,1,0,1,0l1,0l0,-1c1,0,1,0,1,-1l1,0ZM77.5,218.5l0,1l-1,0l-3,0l-3,0l-1,0c0,-1,0,-1,0,-1c0,-1,0,-1,0,-1c0,0,1,0,1,-1l3,0l3,0c0,0,1,0,1,0l0,1ZM77.5,204.5l0,1l-1,0l-3,0l-3,0c0,0,-1,0,-1,0l0,-1c0,-1,0,-1,0,-1l1,0l0,-1l3,0l3,0c1,0,1,1,1,1l0,1ZM76.5,206.5l1,0c0,0,1,0,1,0c0,0,1,0,1,0l1,1l2,0l0,1l1,0l0,1l0,1l0,1l0,1l0,1l-1,0c0,0,0,1,0,1l-1,0c0,0,-1,0,-1,0l0,1l-1,0l-1,0l0,1l-1,-1l-1,0l-3,0l-3,0l-1,0l-1,1c0,0,0,-1,-1,-1l-1,-1l-1,0l-1,0l0,-2l-1,-1c0,-1,0,-1,1,-1c0,-1,0,-1,0,-1l0,-1c0,-1,1,-1,1,-1l1,0l1,-1c1,0,1,0,1,0c1,0,1,0,1,0l1,0l3,0ZM76.5,215.5l1,0l1,0c0,0,1,0,1,0l1,0l0,-1l2,0l0,-1l0,-1l1,-1c0,-1,0,-1,-1,-2c0,0,0,-1,0,-1c0,0,0,-1,0,-1l-2,1l0,-1l-1,0l0,-1l-1,0c0,0,-1,0,-1,0l-1,1l-3,0l-3,0l-1,-1l-1,0c0,0,-1,0,-1,0l0,1l-1,0c0,1,0,1,0,1l-1,-1c0,0,0,1,-1,1l0,1l0,1l0,1l0,1l0,1c0,0,1,1,1,1l1,0l1,1l1,0c1,0,1,0,1,0c1,0,1,0,1,0l3,0l3,0ZM74.5,209.5l1,0l1,0c-1,0,-1,1,-1,1l0,1l1,0c0,1,0,1,0,1l0,1c-1,0,-1,0,-1,-1l0,-1l0,-1l-1,0l-1,0l0,-1l1,0ZM72.5,210.5l1,1l0,1c0,0,0,1,-1,1l-1,0c-1,0,-1,-1,-1,-1c0,-1,1,-1,1,-1l0,-1c0,0,1,0,1,0ZM72.5,211.5c-1,0,-1,0,-1,0l0,1l1,0c0,-1,0,-1,0,-1ZM65.5,206.5l0,-1l1,0l0,-1l1,0l1,0c0,0,0,1,0,1c0,0,-1,0,-1,0l-1,0l0,1l-1,0ZM64.5,216.5l1,-1c0,1,1,1,1,1l1,0l0,1l1,0l0,1l-1,0l0,-1c-1,0,-1,0,-2,-1ZM137.5,213.5l-1,0c0,-1,-1,-1,-1,-1l-1,0c0,0,-1,1,-1,1l-1,0l-1,0l-1,0l0,-1c0,0,-1,0,-1,0c0,0,0,-1,0,-1c0,1,-1,1,-1,1c0,1,-1,1,-1,1c-1,0,-1,-1,-2,-1c0,1,-1,1,-1,1l-1,0c-1,0,-1,0,-1,-1c0,0,-1,0,-1,0c0,1,-1,1,-2,1l-2,0l-1,0l-1,-1l-1,0c0,1,-1,1,-1,1c0,0,-1,0,-1,0l-1,0l-1,0c-1,0,-2,0,-2,0c-1,0,-1,0,-1,-1c-1,1,-1,1,-2,1c-1,0,-1,0,-2,0l-1,0l-1,0c0,0,-1,-1,-1,-1l0,-1c-1,-1,-1,-1,-1,-1l0,-1c0,0,-1,0,-1,0c-1,0,-1,0,-1,0c-1,1,-1,1,-1,1c0,0,1,0,1,1l1,1c0,1,0,1,0,1l-1,1l-1,0c-1,0,-1,0,-1,0c-1,0,-2,0,-3,1c0,1,0,1,0,1c0,0,0,1,0,2c1,1,1,2,1,3c0,1,0,2,0,2c0,0,0,1,0,1c0,-1,0,-1,-1,-3c0,0,0,-1,0,-3c0,-1,0,-1,0,-1l0,-1c0,-1,0,-2,0,-2c0,0,0,-1,1,-1c0,0,0,-1,1,-1c0,0,1,0,1,0c0,0,1,0,1,0c-1,0,-1,0,-1,0c0,-1,0,-1,-1,-1c0,1,-1,1,-1,1c0,0,0,-1,0,-1l1,0c0,-1,0,-1,0,-1c0,0,1,0,1,0c0,0,0,-1,0,-1l1,0c0,-1,0,-1,1,-1l1,0l1,0c1,0,1,0,1,1c0,1,0,1,0,1c1,0,1,1,1,1c1,0,1,0,1,0c0,1,1,1,1,1c0,0,1,0,1,0c0,-1,0,-1,1,-1l0,-1c0,0,0,-1,0,-2c1,0,1,0,1,-1c1,-1,2,-1,2,-1c1,0,1,0,1,1l1,1l0,1c-1,1,-1,1,-1,1c0,1,0,1,0,1l1,1l1,0l1,0c0,0,1,0,1,-1c0,0,1,0,1,0l1,0c0,-1,0,-1,0,-1l1,0l0,1c1,0,1,1,1,1l2,0l1,0l0,-1l1,0c0,0,1,-1,1,-1l0,1c1,0,1,0,1,1c1,0,1,-1,2,-1l1,-1l0,-1c0,1,0,1,0,2c1,0,1,0,1,0l1,0c0,0,0,-1,1,-1l0,-1c1,2,1,3,2,3l1,0c1,0,1,0,1,-1l1,0l0,-1c1,-1,1,-1,1,-2l1,0c1,0,1,0,1,0c1,1,1,1,1,2l0,1c0,1,0,1,0,1l-1,1ZM135.5,210.5l1,1l1,0l0,-1c0,0,-1,0,-1,0c0,0,-1,0,-1,0ZM133.5,202.5l0,1c1,0,1,0,1,0l0,-1l1,0l0,-1l0,1l1,0l0,-1l1,0l0,1l-1,0l0,1l-1,0l0,1c-1,0,-1,0,-1,0c-1,0,-1,0,-1,0c0,0,0,-1,0,-1l0,-1ZM135.5,197.5c0,-1,0,-1,0,-1c1,0,1,-1,1,-1l0,1c1,0,1,0,1,1l0,1l-1,0l1,0l0,2l-1,-1l-1,1c0,0,-1,1,-1,1c0,0,-1,0,-1,0c1,-1,1,-1,2,-2l0,-1c0,0,-1,0,-1,0l0,-1l1,0ZM136.5,197.5l-1,0l1,1l0,-1ZM122.5,202.5c1,0,1,0,1,0c1,0,1,0,2,0c0,0,1,0,1,0c1,0,1,0,1,1c0,0,-1,1,-1,1l-1,0l0,1c-1,0,-1,0,-1,0l-1,0l1,-1c1,0,2,0,2,-1c0,0,-1,0,-1,0l-1,0c0,0,-1,0,-1,0l-1,0c0,0,0,-1,0,-1ZM116.5,208.5l-2,-1l0,1l-2,-1l1,-1l1,1l1,-1l2,1ZM113.5,200.5l4,-2l0,1l-1,0l-4,2ZM108.5,205.5l-1,-1l-1,1l-2,-1l1,-1l2,1l1,-2l1,1ZM108.5,208.5c-1,0,-1,0,-2,0c0,0,0,1,0,1l0,1c0,0,1,0,1,0c1,0,1,0,1,0c0,0,1,0,1,-1l-1,-1ZM110.5,219.5l-4,2c0,-1,0,-1,0,-1l4,-2ZM102.5,216.5l-2,-1l0,2l-2,-1l1,-2l1,1l1,-1l2,1ZM89.5,229.5l5,-2l0,1l-1,0l-4,3ZM91.5,226.5l5,-2c0,0,-1,1,-1,1l-5,2ZM174.5,213.5c0,0,-1,0,-1,0c0,0,0,-1,0,-1c0,0,0,-1,-1,-1l0,-1l0,1l-1,0l-1,0c0,0,0,1,-1,1l0,1c0,1,0,1,0,2c-1,0,-1,0,-1,1c-1,1,-1,1,-1,1l-1,0l0,1c0,0,-1,0,-1,0c0,0,-1,0,-1,0c-1,0,-1,0,-1,0c-1,-1,-1,-1,-1,-1c0,0,-1,0,-1,0c1,0,1,0,1,0l1,0l1,0c0,0,1,0,1,-1l1,0l1,-1l0,-1c1,0,1,-1,1,-1c0,-1,0,-1,0,-1c1,0,1,0,1,0l-1,0l0,-2c0,0,1,0,1,0l1,0c0,-1,1,-1,1,-1c1,0,1,0,1,0c0,-1,0,-1,1,-1l0,1l0,1l0,1c1,0,1,0,1,0c1,1,1,1,1,1l0,-1l1,0l2,-2l1,0c0,-1,1,-1,1,-1c0,0,1,0,1,0c0,-1,1,-1,1,-1c1,0,1,0,1,0c0,1,1,1,1,1l1,1l0,1c0,0,0,1,-1,1l0,1c-1,0,-1,0,-2,1c0,0,-1,0,-2,0c-1,0,-2,0,-3,0l-1,0l-1,0l0,1c0,1,0,1,0,2c0,-1,0,-1,-1,-1l0,-1l0,-1ZM180.5,210.5l-1,0l-1,0l-1,1l-1,1l2,0c1,0,2,0,3,0c0,-1,1,-1,1,-1c1,0,1,0,2,-1l-1,0l0,-1c-1,0,-1,0,-1,0c-1,0,-1,0,-1,0c-1,0,-1,0,-1,1ZM179.5,216.5l-4,2c0,0,0,-1,0,-1l4,-2ZM160.5,209.5c0,1,0,1,0,1c0,0,0,1,0,1c-1,1,-2,1,-3,2c0,0,-1,0,-2,0c-1,0,-2,0,-3,0c-1,0,-2,0,-2,0c0,0,-1,0,-1,0c-1,0,-1,0,-2,0c0,-1,0,-1,-1,-1l0,-1l2,0l1,1l1,0c1,-1,1,-1,1,-1c1,0,1,-1,1,-1l0,-1l0,-2l0,-1l-1,-3l0,-2c0,0,0,-1,0,-1l1,0l1,1c-1,1,-1,1,-1,2l0,1l1,1l0,1l0,1l0,1l0,1l0,1l1,-1l1,-1l1,0c0,0,1,-1,1,-1l1,0c0,0,1,0,1,1c1,0,1,0,1,1ZM159.5,210.5l0,-1c-1,0,-1,0,-1,0c0,0,-1,0,-1,0c-1,0,-1,0,-2,1l-1,0l0,1l-2,1l1,0c1,0,1,-1,2,-1c0,0,1,0,1,0c1,0,2,0,3,-1ZM150.5,221.5l5,-2c0,1,-1,1,-1,1l-4,2ZM152.5,218.5l5,-2c-1,0,-1,1,-1,1l-5,2ZM216.5,210.5c-1,0,-1,1,-3,1c-1,1,-2,1,-3,2c-1,0,-2,0,-3,0c-1,0,-1,0,-1,0c-1,-1,-1,-1,-2,-2c0,0,0,1,0,1c0,0,0,1,-1,1c-1,0,-1,0,-1,0l1,0l1,1c0,0,1,0,1,0c0,0,0,1,0,1l0,1c-1,0,-1,0,-1,0c0,0,0,1,0,1c0,0,-1,0,-1,1c-1,0,-2,0,-3,1c0,0,-1,0,-2,0c0,0,-1,0,-1,0c0,0,-1,0,-1,0c-1,0,-2,-1,-2,-1c0,0,-1,-1,-1,-1c0,-1,0,-1,0,-1l0,-1c0,0,0,-1,0,-2c1,-1,1,-1,1,-2l1,0l0,1c0,0,-1,0,-1,1c0,1,0,1,0,1c0,1,0,1,0,1c0,1,0,1,1,2c1,0,2,0,3,0c1,0,1,0,1,0c1,0,1,0,1,0c1,0,2,-1,3,-1l1,-1c-1,0,-1,0,-2,0c-1,0,-1,0,-1,0c0,-1,0,-1,0,-1c0,0,-1,0,-1,0c0,0,1,-1,1,-1l0,-1c0,0,1,0,1,0c0,0,1,0,1,0c0,-1,0,-1,0,-1c0,0,1,0,1,0c0,-1,0,-1,0,-1c0,0,0,-1,0,-1l0,-1l0,-7l1,-2l0,11l0,1l1,0c0,0,0,1,1,1l0,-1l1,0c1,0,1,0,2,0c-1,0,-1,-1,-1,-1c0,0,-1,-1,-1,-1c0,-1,1,-1,1,-1c0,0,0,-1,0,-1c0,-1,0,-1,0,-1l1,0l0,-1c0,0,1,0,1,0c0,0,1,0,1,0c0,0,1,0,1,0c0,0,1,0,1,0c0,0,0,1,0,1c0,0,1,0,1,0l0,1l-1,-1l-1,0l-1,0l-1,0c0,1,0,1,-1,1l0,1c0,0,0,1,0,1c1,1,1,1,2,1l1,0c1,0,1,0,1,-1l1,0l1,0l0,-1ZM208.5,200.5l4,-2l0,1l-1,0l-4,2ZM237.5,217.5l0,-1l1,0l0,1c1,0,2,-1,3,-1c0,-1,1,-1,1,-1c1,-1,1,-1,1,-2c1,0,1,0,1,-1l0,-1l-1,-1l0,-1l0,-1l1,-1l0,1c0,0,0,1,1,1l0,1l0,1c0,1,0,1,0,2c0,0,-1,0,-1,0l0,1c0,1,0,1,0,1c-1,1,-1,1,-1,1c0,0,-1,1,-1,1l-1,0l-1,0l-1,0c0,0,-1,0,-1,0c0,0,-1,0,-1,0ZM239.5,203.5l5,-2l-1,1l-4,2ZM239.5,215.5l-2,-1l1,-1l2,1ZM232.5,214.5c0,-1,0,-1,0,-1c1,0,1,0,1,0c0,0,1,0,1,0c0,0,0,-1,0,-1c1,0,1,0,1,0c0,0,1,0,1,-1c0,0,-1,0,-1,-1l0,-1l0,-1c1,0,1,1,1,1c0,0,0,1,0,1l0,1c0,0,0,1,0,1c0,0,0,1,0,1c0,0,-1,0,-1,0l0,1c1,0,1,0,1,0c0,0,1,0,1,0c0,0,0,1,0,1c-1,0,-1,0,-1,1c0,0,0,1,0,1c-1,0,-1,0,-2,1c0,0,-1,0,-2,1c-1,0,-2,0,-3,0c0,0,-1,0,-2,0c0,0,-1,-1,-1,-1c-1,0,-1,-1,-1,-1c0,-1,0,-1,0,-1l0,-1c0,0,0,-1,0,-2c0,-1,1,-1,1,-2c1,0,1,0,1,1c-1,0,-1,0,-1,1c0,1,0,1,0,1c0,1,0,1,0,1c0,1,0,1,1,2c0,0,1,0,2,0l1,0c1,0,1,0,1,0c1,0,1,0,1,0c1,0,2,-1,2,-1c1,0,1,0,1,-1c0,0,-1,0,-1,0c-1,0,-1,0,-1,0c-1,-1,-1,-1,-1,-1ZM233.5,202.5l0,1l1,0l0,-1l0,-1l0,1c0,0,1,0,1,0l0,-1l1,0l0,1l0,1l-1,0c0,0,-1,0,-1,0l0,1c0,0,-1,0,-1,0l-1,0l0,-1l0,-1ZM236.5,219.5l-4,2c1,0,1,-1,1,-1l4,-2ZM257.5,207.5l-2,-1l1,-1l2,1ZM257.5,216.5c-1,0,-1,0,-2,0c0,0,-1,0,-1,0c-1,-1,-1,-1,-1,-2c-1,0,-1,-1,-1,-1c0,-1,0,-1,0,-1c0,0,0,-1,0,-1l1,0l0,-1l0,-1c1,0,1,0,1,0l0,1c0,0,-1,0,-1,1l0,1c0,0,0,1,0,1c1,0,1,0,1,1c0,0,1,0,1,0c1,0,1,0,2,0c1,0,1,0,2,0c1,0,1,-1,2,-1l0,-1l0,-1c0,0,0,-1,0,-1l0,-1l-1,0c0,-1,0,-1,0,-1l0,-1l1,-1c0,0,0,1,0,1c1,1,1,1,1,1c0,0,0,1,0,1c0,0,0,1,0,1c0,1,0,1,0,1c0,1,0,2,0,2c0,1,-1,1,-1,2c-1,0,-2,1,-2,1c-1,0,-2,0,-2,0ZM254.5,199.5l0,1c1,0,1,-1,1,-1l0,-1l0,1l1,0l0,-1l1,0l0,-1l0,1l0,1l0,1c0,0,-1,0,-1,0c-1,0,-1,0,-1,0l0,1c-1,0,-1,0,-1,0c0,0,-1,0,-1,0l0,-1l0,-1ZM258.5,196.5l-6,3c0,-1,1,-2,1,-2l5,-2ZM334.5,217.5l-2,-1l1,-1l1,1ZM331.5,213.5l-1,0l-1,0l-1,0l-1,0c0,-1,0,-1,0,-1l-1,0c0,1,-1,1,-1,1c-1,0,-1,0,-1,0l-1,0l-1,0c-1,0,-1,0,-2,0c0,-1,-1,-2,-1,-2l0,-9l1,-2l0,10l0,1l1,0c0,0,0,1,1,1l1,0c1,0,1,0,1,-1c1,0,1,0,2,0l1,0c0,-1,0,-1,0,-1c1,0,1,0,1,1c0,0,1,1,1,1l1,0l1,0c1,0,1,-1,2,-1l1,0l0,-1c-1,-1,-1,-1,-1,-1l1,-2l0,1l0,1l1,1l-1,1l0,1c0,1,-1,1,-1,1c-1,0,-1,0,-2,0ZM333.5,219.5l-4,2c0,0,0,-1,0,-1l4,-2ZM326.5,209.5l-1,-1l1,-2l1,1ZM324.5,203.5l4,-2l0,1l-4,2ZM311.5,210.5c-1,0,-1,0,-1,0l-1,0l-1,1l-1,1l2,0c1,0,1,0,2,0c1,-1,2,-1,2,-1c0,0,1,0,1,-1l-1,-1l-1,0l-1,0l0,1ZM306.5,212.5l0,-1l3,-2l1,0c0,-1,0,-1,1,-1c0,0,1,0,1,0c0,-1,1,-1,1,-1c0,0,1,0,1,0c0,1,0,1,0,1c1,0,1,0,1,0l0,1c0,0,1,0,1,1l-1,0c0,0,0,1,0,1l0,1c-1,0,-1,0,-2,1c-1,0,-2,0,-3,0c-1,0,-2,0,-3,0l-1,0l0,1c0,1,-1,1,-1,2c0,-1,0,-1,0,-1l0,-1c0,-1,0,-1,0,-1c0,0,-1,0,-1,0c0,-1,0,-1,0,-1c0,0,-1,0,-1,1c0,0,-1,0,-1,0l-1,0c-1,0,-1,0,-1,0c-1,0,-1,0,-1,0c0,-1,-1,-1,-1,-1c0,0,0,1,-1,1c0,0,-1,0,-1,0l-1,0l-1,0c-1,0,-1,0,-1,0l0,-1l-1,0c0,0,-1,0,-1,0l0,1l-1,0l0,1l-1,0l0,1c0,0,1,1,1,1l0,1l0,1c-1,1,-1,1,-1,1l-1,-1l0,-1c0,-1,-1,-2,-1,-2c0,-1,1,-2,1,-2c-1,0,-1,0,-1,0l-1,0l-1,0l-1,0c0,0,-1,0,-1,0c-1,-1,-1,-2,-1,-2l-1,-9l1,-2l1,10l0,1c0,0,1,1,1,1l1,0l1,0l1,0c0,0,1,-1,1,-1l1,0c0,0,1,0,1,0l-1,1c0,0,-1,1,-1,3c0,0,1,1,1,1l0,-1l0,-1l0,-1c0,0,1,0,1,0l0,-1c1,0,1,0,1,-1c1,0,1,0,1,0c1,0,1,0,1,0c1,0,1,0,1,1l1,0l1,0c0,0,0,-1,1,-1c1,0,1,0,1,0c0,-1,0,-1,0,-1l1,0l0,1c1,0,1,1,2,1l1,0c0,0,0,-1,0,-1l1,0l1,-1l0,1c0,0,1,0,1,0ZM306.5,216.5l-5,2c1,0,1,-1,1,-1l4,-2ZM299.5,216.5l-1,-1l-1,2l-1,-1l1,-2l1,1l1,-1l1,1ZM296.5,203.5l4,-2l0,1l-4,2ZM293.5,208.5l-1,-1l-1,1l-1,0l1,-2l1,1l1,-1l1,1ZM297.5,219.5l-4,2c0,-1,0,-1,0,-1l4,-2ZM284.5,204.5l4,-2c0,0,0,1,0,1l-5,2ZM279.5,197.5l1,0c0,0,1,0,2,0c0,1,0,1,1,1l1,-1c0,1,0,1,-1,1l-1,1l-1,-1l-1,0l-1,0l-1,0c0,0,1,-1,1,-1ZM369.5,213.5l0,-1l0,-1l-1,-8l1,-3l1,11c0,1,-1,1,-1,1c0,1,0,1,0,1ZM357.5,206.5l-2,-1l1,-1l1,1ZM365.5,209.5l-1,2l-1,0l-1,0c-1,0,-1,0,-1,0l-1,1l-1,0l-2,1l-1,0l-1,0l-1,0l-2,0l-1,0l0,-1l-1,0c0,0,0,-1,0,-1l0,1c0,0,-1,0,-1,0c-1,1,-1,1,-2,1l-1,0l-1,0c-1,0,-1,0,-1,0c0,-1,-1,-1,-1,-1l0,-1c0,0,1,-1,1,-1c0,0,0,1,0,1l1,0l1,0l1,0l1,0l1,0c0,-1,0,-1,0,-1l1,0c0,0,0,-1,0,-1l-1,-2l0,-1l0,-1l1,-1l0,2l0,1l1,2c0,1,0,1,0,1c0,0,0,1,0,1c1,0,1,0,1,0l0,1l2,0c0,-1,0,-1,0,-1l0,-1l0,-1c0,0,1,-1,1,-1l1,0c0,-1,0,-1,1,-1l1,0c0,0,1,1,1,1l2,0l1,1l2,0l1,0ZM360.5,210.5l-1,0c0,-1,-1,-1,-1,-1c0,0,-1,0,-1,0l-1,0c0,0,-1,1,-1,1c0,1,-1,1,-1,1l0,1l1,0l0,-1l1,0l1,0l1,-1l1,0ZM358.5,216.5l-4,2c0,0,1,-1,1,-1l4,-2ZM348.5,202.5l-1,-1l1,-2l1,1ZM345.5,200.5l0,1l-1,0l-1,0l0,1l0,4c0,0,0,1,0,1l0,-1l-1,-1l0,-1l0,-1l0,-1c0,0,0,-1,0,-1c0,-1,1,-1,1,-1c0,0,0,-1,0,-1l0,1l-1,0c0,0,0,-1,1,-1c0,0,0,-1,0,-1c1,0,1,1,2,1c0,1,0,1,0,1ZM392.5,209.5l-1,0c0,0,-1,0,-2,0l-1,0l0,-1c0,1,-1,1,-1,1c-1,0,-1,0,-1,0c0,1,-1,1,-1,1c0,0,-1,0,-1,0c-1,0,-1,0,-1,0l-1,0c0,0,0,1,-1,1c0,0,0,1,0,1c0,1,-1,1,-1,1c0,1,0,1,-1,1c0,0,0,1,0,1c-1,0,-1,0,-1,0c0,0,-1,0,-1,0l-1,0c0,0,-1,0,-2,0l-1,-1c0,0,1,0,1,0c1,0,1,0,1,0c0,0,1,0,1,0c1,0,1,0,2,-1l1,0c0,0,0,-1,0,-1c1,0,1,0,1,-1c0,-1,0,-1,1,-1l-1,0c-1,0,-1,0,-1,0c-1,-1,-1,-1,-1,-1l0,-1c0,0,0,-1,0,-1c0,-1,0,-1,0,-1c0,0,1,0,1,0l0,-1c1,0,1,0,1,0l1,0c0,0,0,1,0,1c0,1,0,1,1,1c0,0,0,1,0,1c0,0,1,0,1,0l1,0c0,0,1,0,1,0l1,0c0,-1,0,-1,0,-1c0,0,0,-1,0,-1l0,-1l0,-1c0,0,1,0,1,0c0,0,0,-1,0,-1c0,-1,0,-1,0,-1l1,0c0,0,1,0,2,1c0,0,1,1,1,1c1,1,1,1,1,2c1,1,1,1,1,1c0,0,0,1,0,1c0,0,-1,0,-1,0l0,1ZM388.5,205.5l-1,0c0,1,0,1,0,1c0,1,0,1,1,1l0,-1c0,0,1,0,1,0c0,0,-1,-1,-1,-1ZM390.5,205.5c0,0,0,1,0,1c-1,1,-1,1,-1,1l2,1c1,0,1,0,1,0c0,-1,0,-1,-1,-1c0,0,0,-1,0,-1c0,0,-1,0,-1,0c0,-1,0,-1,0,-1ZM385.5,191.5c0,-1,0,-1,0,-1c0,0,1,-1,1,-1l0,1c1,0,1,0,1,0c0,1,0,1,0,1l0,1c-1,0,-1,0,-1,0l1,0l0,1l0,1l-1,-1l-1,0l0,1c-1,0,-1,1,-1,1l-1,0l-1,0l1,0l1,-1l1,-1l0,-1c-1,0,-1,0,-1,0l0,-1l1,0ZM386.5,191.5l-1,0l0,1l1,0l0,-1ZM379.5,207.5c0,1,0,1,0,1c1,0,1,0,1,0c1,0,1,0,1,0l-1,0c0,-1,0,-1,0,-1l-1,0ZM376.5,200.5l4,-2l0,1l-4,2ZM345.5,190.5l0,1l-1,0c0,1,0,1,0,1l0,1c0,0,0,1,0,1l0,-1l-1,0l0,-1l1,-1c0,0,0,-1,0,-1c0,0,1,0,2,-1l1,0ZM345.5,192.5c0,0,1,-1,1,-1l1,0l0,1l0,1l0,1l1,0l-1,1l-1,0c-1,1,-1,1,-1,1l-1,0l-1,0l1,0l0,-1c1,0,1,0,1,0l1,-1l-1,0c0,0,0,-1,0,-1c0,0,0,-1,0,-1ZM346.5,192.5l0,1l1,0l-1,0c0,-1,0,-1,0,-1ZM225.5,202.5c0,0,1,0,1,0c0,0,1,0,1,0c1,0,1,0,2,0c0,0,0,1,0,1l0,1c-1,0,-1,0,-1,0c0,0,-1,0,-1,0c0,0,0,1,-1,1c0,0,-1,-1,-1,-1l2,0c1,0,1,-1,1,-1c-1,0,-1,0,-1,0c-1,0,-1,0,-1,0c-1,0,-1,0,-1,0c0,-1,0,-1,0,-1ZM95.5,201.5c1,0,1,0,1,-1c1,0,1,0,2,0c0,0,1,0,1,1c1,0,1,0,1,0c0,1,-1,1,-1,1c0,1,0,1,-1,1c-1,0,-1,0,-1,0l-1,0l1,0c1,-1,2,-1,2,-1c0,0,-1,0,-1,0c0,0,0,-1,-1,-1c0,0,-1,1,-1,1l-1,0c0,0,0,-1,0,-1ZM271.5,210.5l0,-1c0,0,1,0,1,0c0,0,0,-1,0,-1l0,-1l0,-1l0,-1l0,-1c0,0,0,-1,0,-1l0,1l0,1l0,1l0,1l0,1l1,0l0,-1l1,0l1,0l1,0l0,1c0,0,0,1,0,1c0,0,-1,0,-1,0c0,1,-1,1,-1,1c-1,0,-1,0,-1,0ZM274.5,208.5l-1,0l0,1l-1,0l1,0l1,0c1,0,1,0,2,-1c0,0,-1,0,-1,0ZM168.5,206.5c0,-1,0,-1,0,-2c0,0,0,-1,-1,-1l1,0l0,-1l0,1c1,0,1,0,1,1l0,1l0,1c-1,0,-1,0,-1,0ZM202.5,198.5c0,-1,0,-1,-1,-2c0,-1,0,-1,0,-2l1,-1c0,1,0,1,0,1c0,1,0,1,0,1l0,1l0,1c0,1,0,1,0,1ZM367.5,197.5l0,-1c0,0,0,-1,0,-1c0,-1,0,-2,0,-2l0,-1c0,0,0,1,1,1c0,1,0,1,0,1l0,1l0,1c0,0,-1,1,-1,1ZM383.5,167.5l0,-1l0,-2l-1,-8l1,-2l1,10c0,1,0,1,0,1l0,1c-1,0,-1,1,-1,1ZM386.5,169.5l-4,2c0,-1,0,-1,0,-1l4,-2ZM89.5,166.5l0,-1l0,-1l-1,-8l1,-3l1,11l0,1c-1,1,-1,1,-1,1ZM92.5,169.5l-4,2c0,-1,0,-1,0,-1l4,-2ZM269.5,151.5l0,-1c0,0,0,-1,0,-1c0,0,-1,-1,-1,-1l1,-1l0,1l0,1c0,0,0,1,0,1l0,1ZM268.5,152.5l0,1l1,0l0,-1l1,0c0,1,0,1,0,1c0,0,0,-1,0,-1l1,-1l0,1l0,1l-1,1l-1,-1l0,1c0,0,-1,0,-1,0l0,-1l0,-1ZM265.5,214.5l0,-1l0,-2l0,-8l1,-2l0,10c0,1,0,1,0,1l0,1l-1,1Z" class="g1_31" />
<path fill-rule="evenodd" d="M151.5,321.5c0,0,0,-1,0,-1l1,0l-1,0c0,1,0,1,0,1l0,1c0,0,1,0,1,0c1,0,1,0,1,0c1,0,1,0,1,0l0,-1c1,0,1,0,1,0c0,-1,0,-1,0,-1c0,0,-1,0,-1,0c0,1,0,1,0,1l0,-1c-1,0,-1,0,-1,0c0,0,0,-1,0,-1c1,0,1,0,1,0c0,0,0,-1,0,-1c0,0,0,1,1,1l0,1c0,1,0,1,0,1l0,1c0,0,-1,0,-1,1c-1,0,-1,0,-1,0l-1,0c-1,0,-1,0,-1,-1ZM282.5,373.5l-1,-1l0,-1l1,1ZM282.5,375.5l0,1l0,1c-1,0,-1,0,-1,1c-1,0,-1,0,-1,0l-1,0c-1,0,-1,0,-1,0c0,-1,0,-1,0,-1c0,0,0,1,1,1l1,-1c0,0,1,0,1,0l0,-1c1,0,1,0,1,-1c-1,0,-1,-1,-1,-1l1,0c0,0,0,1,0,1ZM287.5,367.5c0,0,-1,0,-1,0c0,1,-1,1,-1,1c-1,0,-1,0,-2,0l-1,0c0,0,-1,0,-1,0c-1,0,-1,0,-1,0l0,-1c0,0,-1,0,-1,0l0,-1c0,1,0,1,0,1c0,1,0,1,-1,1c0,1,-1,1,-1,1l1,0c0,0,1,0,1,0c0,0,1,0,1,0l1,0c1,0,2,0,2,0c1,0,1,0,2,0l2,0l-1,0c0,0,-1,0,-1,0c-1,1,-1,1,-1,1c-1,0,-1,0,-1,0c-1,0,-1,0,-1,0l-2,0l-2,0c0,0,-1,0,-1,0c0,0,0,-1,0,-1l0,-1l1,-1l1,0c0,-1,0,-1,0,-1l0,-3l1,0l0,3c0,1,0,1,0,1l1,0c0,0,1,0,1,0l0,1c1,-1,2,-1,2,-2c1,0,1,0,2,0c0,0,1,0,1,0c0,0,0,1,0,1ZM286.5,367.5c0,0,-1,0,-1,-1c0,0,-1,1,-1,1l-1,1l1,-1c1,0,2,0,2,0ZM200.5,364.5l1,0l1,0c0,0,1,0,1,0c1,0,1,0,1,1c0,0,-1,1,-1,1l0,1c-1,0,-1,0,-1,0c-1,0,-1,0,-1,0l-1,0l1,-1c1,0,2,0,2,-1l-1,0l-1,0l-1,0l-1,1l0,-1c0,0,1,0,1,-1ZM154.5,366.5c0,0,1,-1,1,-1c0,0,1,0,1,0c1,0,1,0,2,0c0,1,0,1,0,1c0,1,0,1,0,1c-1,0,-1,1,-1,1c0,0,-1,0,-1,0l-1,0l-1,0l2,0c1,-1,1,-1,2,-1c-1,0,-1,-1,-1,-1c-1,0,-1,0,-1,0c0,0,-1,0,-1,1c0,0,-1,0,-1,0c0,-1,0,-1,0,-1ZM142.5,376.5c0,1,0,1,0,2l-1,1c0,0,0,1,-1,1l2,0l-1,1l-1,1l-1,0l0,1c0,0,-1,0,-1,0l-1,0l0,1l-1,0l-1,0l0,1l-1,0l-1,1l-2,0l-3,0l-1,0l0,-1c-1,-1,-1,-1,-1,-1c-1,0,-2,0,-3,-1l-1,0l0,-1l-1,0l0,-1l-1,0l0,-1l-1,0l1,0l1,0l-1,0l0,-1l-1,-1l0,-1l0,-1l0,-1l0,-1l1,-1l0,-1l1,0l-1,-1l-1,0c1,0,1,0,1,0l0,-1l1,0l1,0l0,-1l1,0l1,-1l2,0c0,-1,0,-1,0,-1l1,0l0,-1c1,0,1,-1,1,-1l3,0l2,0l1,1l0,1l1,0l0,1l2,0l1,0l0,1c0,0,1,0,1,0l1,1c1,0,1,1,2,1l-1,1l0,1l1,0l0,1l0,1ZM133.5,386.5l0,-1l1,0l0,-1l1,0c1,0,1,0,2,-1l1,0l1,-1l1,0c0,0,0,-1,0,-1l1,0l0,-1l-1,0l0,-1l1,0l0,-1l1,-1l0,-1c0,-1,0,-2,-1,-2c0,-1,0,-1,0,-1c0,0,0,-1,0,-1l-1,0l1,-1c0,0,-1,0,-1,-1l-1,0l0,-1l-1,0l-1,-1l-2,0c0,0,0,-1,-1,-1l0,-1l-1,0l-2,0l-1,0l-2,0l-1,0l0,1c0,0,-1,1,-1,1l-2,0l-1,1l-1,0l0,1l-1,0c0,0,-1,1,-1,1l1,1l-1,1l0,1l0,1c-1,0,-1,0,-1,1l1,0l0,1l0,1l0,1l1,0l0,1l-1,0l0,1l1,0l1,1l1,1l1,0l1,0l1,1c0,0,1,0,1,0l0,1l1,0c0,1,0,1,0,1l3,0ZM139.5,371.5l-1,0l-1,0l0,-1l-1,0c-1,0,-1,0,-1,0l0,-1l1,0l1,0c0,0,0,1,0,1l1,0l0,1ZM139.5,381.5l-1,0l0,1l-1,0l-1,1l-1,0l0,-1c1,0,1,0,1,0l1,-1c0,0,1,0,1,-1l0,1l1,0ZM134.5,383.5l0,1c0,0,-1,0,-1,0l-2,0l-3,0l-1,0c0,0,0,-1,0,-1c0,-1,0,-1,0,-1c0,0,1,0,1,0l0,-1l3,0l2,0c0,0,0,1,0,1l1,0l0,1ZM134.5,369.5c0,0,0,1,0,1l-1,0l-2,0l-3,0c0,0,-1,0,-1,0l0,-1c0,0,0,-1,0,-1l1,0l3,0l2,0c0,0,1,0,1,0l0,1ZM133.5,372.5l0,-1l1,0l1,0c0,0,1,0,1,0c0,0,0,1,1,1l0,1l1,-1c0,0,1,0,1,1l0,1l1,0l0,1l0,1l0,1l-1,0l0,1c0,0,0,1,0,1l-1,1l-1,-1l-1,1l-1,1l-1,0c0,-1,-1,-1,-1,-1l-2,0l-3,0l-1,1l-1,0l-1,-1l-1,0l0,-1l-1,1l0,-1l-1,0l0,-2l-1,-1c0,-1,0,-1,0,-1c1,0,1,-1,1,-1l0,-1c0,-1,1,-1,1,-1l1,1c0,0,0,-1,0,-1l1,0l0,-1c1,0,1,0,1,0c1,0,1,0,1,0l1,0l0,1l3,0ZM133.5,380.5l1,0l1,0l1,0l1,-1l1,0l1,0l0,-1l0,-1l0,-1c0,-1,0,-1,0,-2c0,0,0,-1,0,-1c0,0,-1,0,-1,-1l-1,1l-1,-1l0,-1l-1,0c-1,0,-1,0,-1,0c-1,0,-1,0,-1,0l0,1l-2,0l-3,0l-1,-1l-1,0c0,0,-1,0,-1,1l-1,0c0,1,0,1,0,1l-1,-1c0,0,0,1,-1,1l0,1l0,1l0,1l0,1l0,1c0,0,1,1,1,1l1,0l1,1l1,0c1,0,1,0,1,0c1,0,1,0,1,0l3,0l2,0ZM132.5,378.5l-1,-1l1,0l1,0ZM129.5,374.5l1,0c0,0,0,1,0,1l0,1c1,1,1,1,1,1l-1,1l0,-1l0,-1l0,-1l-1,0l-1,0c0,0,0,-1,1,-1ZM123.5,371.5l0,-1l1,0l0,-1l1,0l1,0c0,1,0,1,0,1c0,0,-1,0,-1,0c0,0,-1,0,-1,0l0,1l-1,0ZM122.5,381.5l1,0l0,-1c0,1,1,1,1,1l1,1l1,0l0,1l-1,0c-1,-1,-1,-1,-2,-1l0,-1ZM180.5,378.5l0,-1l0,-1l-1,-8l1,-3l1,11l-1,1c0,1,0,1,0,1ZM172.5,377.5c0,0,1,0,1,0l1,-1c1,0,1,0,1,-1l-1,-2l0,-6c0,0,0,-1,0,-1l0,-1l1,0c0,0,0,1,0,1l1,0c0,0,0,1,-1,1c0,0,0,1,0,1c0,0,0,1,0,2c0,0,0,1,0,3l0,1l0,1l0,1c0,0,0,1,0,1c0,0,-1,1,-1,1c0,0,-1,0,-1,0l-1,0l-1,0l-1,0l-1,0c0,0,0,-1,-1,-1l-1,0c0,1,-1,1,-1,1c0,0,-1,0,-1,0l-1,0l-1,0l-1,0c0,0,-1,-1,-1,-2c0,1,0,2,-1,2l-1,0c0,0,-1,0,-1,0c-1,0,-1,0,-1,-1c0,-1,-1,-1,-1,-1c0,0,0,-1,0,-1l-1,0c0,0,0,-1,0,-1c-1,0,-1,0,-2,1l1,1l0,1c0,0,1,0,1,0l0,1l-1,1l-1,0c-1,0,-1,0,-2,0c-1,0,-2,1,-2,1l0,1c0,0,0,1,0,2c0,1,1,2,1,3c0,1,0,2,0,2c0,1,0,1,0,1c0,-1,-1,-1,-1,-2c0,-1,0,-2,0,-3c-1,-1,-1,-2,-1,-2l0,-1c0,-1,1,-1,1,-2l0,-1c1,0,1,0,2,-1c0,0,1,0,1,0c0,0,-1,-1,-1,-1c0,0,0,1,0,1c-1,0,-1,0,-1,0l0,-1c1,-1,1,-1,1,-1c0,0,1,0,1,0c0,-1,0,-1,0,-1c1,0,1,0,1,0c0,0,0,-1,0,-1c1,0,1,0,1,0c1,0,1,0,1,0c1,0,1,0,1,0c0,0,0,1,1,1c0,1,0,1,0,1c0,0,0,1,1,1c0,1,1,1,1,1l1,0c0,-1,1,-1,1,-1c0,0,0,-1,0,-1c0,-1,0,-1,0,-1c0,0,0,-1,0,-1l-1,-7l1,-2l1,11c0,0,0,1,0,1c1,0,1,1,1,1l1,0c0,0,1,0,1,0l1,-1l1,0l0,-1l-1,0l-1,0l0,-2c1,0,1,0,2,-1l1,0c0,0,1,0,1,0l0,1c0,0,1,0,1,0c0,1,0,1,0,1l0,1l-1,0l0,1c0,0,1,0,1,0l0,1l1,0l1,0ZM172.5,360.5c0,0,1,0,1,0c0,0,1,0,1,0c1,0,1,0,2,0l0,1c0,0,0,1,0,1c-1,0,-1,0,-1,0c0,1,0,1,0,1c0,0,-1,0,-1,0l-1,0c0,0,-1,0,-1,0l2,-1c1,0,1,0,1,-1c-1,0,-1,0,-1,0c-1,0,-1,0,-1,0c-1,0,-1,0,-1,1l0,-1l0,-1ZM167.5,365.5l4,-2l0,1l-4,2ZM162.5,384.5l-4,2c0,0,0,-1,0,-1l4,-2ZM159.5,382.5l-2,-1l-1,1l-1,-1l1,-1l1,0l1,-1l1,1ZM151.5,363.5c1,-1,1,-1,1,-1c0,-1,1,-1,1,-1c1,1,1,1,1,1c0,1,0,1,0,1l-1,1l1,0l0,2l-1,-1l-1,0l0,1c-1,0,-1,1,-1,1l-1,0l-1,0l1,-1l1,0l0,-1l1,0l0,-1c-1,0,-1,0,-1,-1ZM153.5,363.5l-1,0l0,-1c0,0,0,1,0,1l1,1l0,-1ZM237.5,378.5l0,-1l0,-1l0,-8l1,-3l0,11l0,1c0,1,0,1,-1,1ZM230.5,377.5l1,0l0,-1c1,0,1,0,1,0l0,-1l0,-2l0,-6c0,0,-1,-1,-1,-1c0,0,1,0,1,-1c0,0,0,1,1,1l1,0c0,0,-1,1,-1,1c0,0,0,1,0,1c0,0,0,1,0,2c0,0,0,1,0,3l0,1l0,1l0,1c0,0,0,1,0,1l-1,0c0,0,0,1,0,1c-1,0,-1,0,-1,0c-1,0,-1,0,-1,0l-1,0l-1,0c0,-1,0,-1,-1,-1c0,0,0,-1,0,-1l0,1l-1,1c0,0,-1,0,-1,0c-1,0,-1,0,-2,-1c0,1,-1,1,-1,1l-1,0c-1,0,-1,0,-1,-1c0,0,-1,0,-1,1c0,0,-1,0,-2,0l-1,0c-1,0,-1,0,-2,0l0,-1c-1,1,-1,2,-1,2l-1,0l-1,0l-1,-1l-1,-1l-1,1c0,0,-1,0,-1,0l-1,0l-1,0c-1,0,-1,0,-1,0c0,0,-1,0,-1,0c0,0,0,-1,0,-1l-1,0c0,0,-1,0,-1,1c0,0,-1,0,-1,0l-1,0l-1,0c0,0,-1,0,-1,0c-1,0,-1,0,-1,0c-1,0,-1,-1,-1,-1c0,0,-1,0,-1,0c0,-1,0,-1,0,-1c-1,0,-2,1,-2,1l-1,0c0,1,0,1,0,1c-1,1,-1,1,-1,2c-1,1,-1,1,-1,2l0,1l1,0c0,1,0,2,1,2c0,0,0,1,0,1l1,0c0,0,1,0,1,0l0,1l1,0l1,0c1,0,1,0,1,0c0,0,1,0,1,0c1,0,1,0,2,0l1,0l1,0l-3,2c-1,0,-2,0,-2,0c-1,0,-1,0,-2,0c0,0,-1,0,-1,-1c-1,0,-1,0,-2,0c0,-1,-1,-1,-1,-1c-1,-1,-1,-1,-1,-2c0,0,-1,-1,-1,-1l0,-1c0,-1,0,-2,1,-3c0,-1,0,-1,0,-1c1,-1,1,-1,1,-1c0,-1,1,-1,1,-1c0,-1,1,-1,1,-1l1,-1c0,0,-1,0,-1,0c0,0,0,-1,-1,-1l1,-2l1,0l1,0c0,0,1,0,1,0c1,0,1,0,1,0c0,1,0,1,0,1l0,1c0,0,0,1,0,1c0,0,-1,0,-1,0c0,0,0,1,0,1l1,0l1,1c0,0,1,0,1,0l1,0c1,0,1,0,1,0c0,0,1,-1,1,-1c1,0,1,0,1,0c1,0,1,0,1,0l1,0c0,1,0,1,1,1l1,0l1,0l1,-1c0,0,1,0,1,-1c1,-1,2,-2,2,-2l1,0l0,1l1,1l1,1c0,0,1,0,1,1l1,0l1,0l1,0l0,-1l1,0c0,0,1,0,1,-1l0,1c1,0,1,0,1,1c1,0,1,0,2,-1l1,-1l0,1c1,0,1,0,1,0l1,0l1,-1c1,1,1,2,2,2ZM222.5,368.5l0,1l1,0l0,-1l1,0l0,1c1,0,1,0,1,-1l0,-1l0,1l0,1c0,1,0,1,0,1l-1,0l-1,0c0,1,0,1,-1,1l0,-1l0,-1l0,-1ZM226.5,366.5l-5,2c0,0,0,-1,0,-1l6,-3ZM213.5,377.5l-1,-1c0,-1,0,-1,-1,-1l-1,1l1,0l1,1ZM210.5,382.5l-4,2c0,-1,0,-1,1,-1l4,-2ZM203.5,382.5l-1,-1l-1,1l-1,-1l1,-1l1,0l1,-1l1,1ZM193.5,363.5c0,-1,1,-1,1,-1c0,-1,0,-1,1,-1c0,1,0,1,0,1c0,1,0,1,0,1l0,1l1,0l-1,2l-1,-1l0,1c-1,0,-1,1,-1,1l-1,0l-1,0l1,-1c1,0,1,0,1,-1l1,0l-1,-1l0,-1ZM194.5,363.5l0,-1c0,0,0,1,0,1l0,1l1,0l0,-1l-1,0ZM266.5,374.5c0,0,-1,0,-1,0c1,1,1,1,1,1c1,-1,1,-1,1,-1c-1,0,-1,0,-1,0ZM266.5,381.5c0,0,0,1,0,1c-1,0,-1,0,-1,0c-1,0,-1,0,-2,0c-1,0,-1,0,-2,0l-1,-1c1,0,1,0,1,0c0,0,1,0,1,0l1,0c1,0,1,0,1,0l1,0c0,-1,0,-1,1,-1c0,-1,0,-1,0,-1c1,0,1,-1,1,-1c0,-1,1,-1,1,-1c0,-1,0,-1,0,-1c-1,0,-1,0,-1,0l0,1c-1,0,-1,0,-1,0c-1,0,-1,0,-1,0l0,-1l-1,0c0,0,0,-1,0,-1c0,0,0,-1,0,-1c1,0,1,0,1,0c0,-1,0,-1,0,-1c0,-1,1,-1,1,-1c0,0,0,-1,1,-1c0,0,0,1,0,1c0,0,1,0,1,1c0,1,0,1,0,1c0,1,0,1,0,2c0,0,0,1,0,1c0,1,0,2,0,2c-1,1,-1,1,-1,1c0,1,-1,1,-1,1ZM263.5,368.5l4,-2c0,1,0,1,0,1l-4,2ZM260.5,377.5l-1,0c0,0,-1,0,-1,0c-1,0,-1,-1,-2,-1l-1,1c0,0,-1,0,-1,0c0,0,-1,0,-1,0c0,0,-1,0,-1,0c0,0,0,1,0,1c0,0,-1,0,-1,0l-1,0l0,1c-1,0,-1,0,-1,1c0,0,0,1,-1,1c0,0,0,1,-1,1c-1,1,-1,1,-1,1l-1,0l-1,0c0,0,-1,0,-2,0c0,-1,0,-1,0,-1l1,0c1,0,1,0,2,0c0,0,0,-1,1,-1l1,0c0,-1,0,-1,0,-1c1,0,1,-1,1,-1l1,-1c0,0,-1,0,-1,0c0,-1,-1,-1,-1,-1c-1,0,-1,0,-1,-1l0,-1l0,-1c1,0,1,0,1,-1c1,0,1,0,1,0l1,0l0,1c1,0,1,1,1,1c0,0,0,1,0,1c0,0,1,0,1,0l1,0c1,0,1,0,1,0l1,0c0,0,0,-1,0,-1l0,-1c0,-1,0,-1,0,-1c0,-1,0,-1,1,-1l0,-1c0,0,0,-1,0,-1c1,0,1,0,1,0c0,-1,0,-1,0,-1c0,1,1,1,2,2c0,0,1,0,1,1c1,0,1,1,1,1c0,1,1,1,1,1c0,0,0,1,0,1l0,1l-1,0c0,1,0,1,0,1ZM256.5,372.5l-1,1l0,1l1,0c1,0,1,0,1,0c0,-1,0,-1,-1,-1l0,-1ZM258.5,373.5c0,1,0,1,0,1c0,0,-1,1,-1,1l1,0l1,0l1,0l-1,0c0,-1,0,-1,0,-1c0,0,-1,-1,-1,-1ZM253.5,358.5l0,-1c1,0,1,0,1,0c1,0,1,1,1,1c0,0,0,1,0,1c0,1,-1,1,-1,1l1,0l0,1l-1,0l-1,0l0,1c0,0,-1,0,-1,0l0,1l-1,0c0,0,-1,0,-1,0l1,-1l1,0c0,0,0,-1,0,-1l1,0l0,-1c0,0,-1,0,-1,-1c0,0,1,0,1,-1ZM254.5,359.5l0,-1l-1,0l0,1l1,0ZM248.5,375.5c0,0,-1,0,-1,0c0,1,0,1,1,1l1,0l0,-1c-1,0,-1,0,-1,0ZM244.5,368.5l4,-2c0,1,0,1,0,1l-4,2ZM331.5,375.5c0,0,-1,0,-1,0l0,1c1,0,1,0,1,0l1,0c0,-1,0,-1,0,-1c-1,0,-1,0,-1,0ZM331.5,383.5c-1,0,-1,0,-1,0c-1,0,-1,1,-2,1c-1,0,-1,-1,-2,-1l-1,0c0,0,0,-1,0,-1c1,0,1,1,1,1c0,0,1,0,1,0c0,0,1,0,1,0l0,-1c1,0,1,0,1,0l1,0c0,0,0,-1,1,-1c0,0,0,-1,0,-1c1,0,1,0,1,-1c0,-1,1,-1,1,-1l0,-1c0,0,-1,0,-1,0l0,1c-1,0,-1,0,-1,0c0,0,-1,0,-1,0l0,-1c-1,0,-1,0,-1,-1l1,-1c0,0,0,-1,0,-1c0,-1,1,-1,1,-1l1,0c0,0,1,0,1,1l0,1l0,1c0,0,0,1,0,1l0,1c0,1,0,2,0,3c-1,0,-1,0,-1,1c0,0,-1,0,-1,1ZM328.5,369.5l4,-2l0,1l-4,2ZM321.5,382.5l-2,-1l0,1l-2,-1l1,-1l2,1l0,-1l2,0ZM318.5,379.5l-1,0l-1,0c-1,0,-2,0,-2,-1c-1,0,-1,-1,-1,-2l-1,-8l1,-2l1,9l0,1l0,1c0,0,1,0,2,0l1,0l1,0c0,0,1,0,1,0c1,0,1,0,2,-1c0,0,-1,0,-1,-1l0,-1l1,-1c0,1,0,1,0,1l0,1l0,1l0,1l0,1c-1,0,-1,0,-2,1c0,0,-1,0,-1,0ZM318.5,367.5l0,1c0,0,1,-1,1,-1l0,-1l0,1l1,0l0,-1l1,0l0,-1l0,1l0,1c0,1,-1,1,-1,1c-1,0,-1,0,-1,0c-1,1,-1,1,-1,1l-1,0c0,-1,0,-1,0,-1l0,-1ZM322.5,364.5l-5,2c0,0,0,-1,0,-1l5,-3ZM311.5,366.5l-2,1c-1,0,-2,1,-3,1c-2,1,-3,1,-3,1l0,1c-1,0,-1,0,-1,0l1,0l0,1l2,1c0,0,1,0,1,1c1,1,1,1,1,1c0,1,0,1,0,2c0,0,0,1,0,1c0,0,0,1,-1,1c-1,1,-1,1,-1,1c-1,0,-1,0,-1,0l-1,0l-3,0c0,0,-1,0,-1,-1l0,1l0,1c-1,1,-1,1,-1,1c0,0,-1,0,-1,-1c-1,0,-1,-1,-1,-1l0,-1c0,0,-1,0,-1,0l-1,0c0,1,0,1,0,1c-1,0,-1,1,-1,1l1,0l0,1c0,0,0,1,0,1l0,2l0,2c1,0,1,1,1,1l0,1l-1,0l0,1l0,-1l0,-1l0,-1l-1,-3l0,-2l0,-1l0,-1c0,-1,1,-2,1,-2l1,-1l1,0l0,-1l1,0c0,1,1,1,2,2l2,0l1,0l1,0l1,0c0,0,1,0,1,0c0,0,1,0,1,0l0,-1c1,0,1,0,1,0c0,0,0,-1,-1,-1c0,-1,-1,-1,-1,-2c-1,0,-1,0,-1,0l-1,-1c0,1,0,1,0,1c0,0,0,-1,-1,-1l0,-1l0,-1l0,-1c0,-1,0,-1,0,-1c1,0,1,0,1,0c0,0,1,-1,3,-1c1,-1,3,-2,4,-2c1,0,1,0,2,-1ZM306.5,360.5c0,-1,0,-1,1,-1c0,-1,0,-1,0,-1l1,0c0,1,0,1,0,1c0,1,0,1,0,1l0,1l0,2l-1,-1l-1,1c0,0,0,1,-1,1l-1,0l0,-1l1,0l1,-1l1,0l-1,0l0,-1l0,-1ZM307.5,360.5l0,-1c0,0,0,1,-1,1c0,0,1,0,1,0l0,1l0,-1ZM293.5,368.5l1,0c0,-1,1,-1,1,-1c1,0,1,0,1,1c1,0,1,0,1,0c0,1,0,1,-1,1c0,1,0,1,0,1c0,0,-1,0,-1,0c0,0,-1,0,-1,0l-1,0l2,0c0,0,1,-1,1,-1l-1,0c-1,0,-1,0,-2,0l-1,0c0,0,1,-1,1,-1ZM157.5,326.5c0,0,0,1,0,1c0,0,-1,0,-2,1c0,0,-1,0,-1,0c-1,0,-1,0,-1,0l-1,0c0,-1,0,-1,0,-1l0,1l-1,0c0,0,-1,-1,-1,-1l0,-1c0,0,0,1,0,1c0,0,-1,0,-1,0l-1,1c0,0,1,1,1,1c1,0,1,0,2,0l1,0c1,0,1,0,2,0c1,-1,1,-1,1,-1l3,0l-1,1l-1,0l-1,0l-1,0l-1,0l-3,0l-2,0c-1,0,-1,0,-1,0c0,0,0,-1,0,-1l1,0l1,-1l0,-1c1,0,1,0,1,-1l0,-2l0,-1l0,4l1,1l1,0l0,-1c0,1,1,1,1,1c1,0,1,-1,2,-1c0,-1,1,-1,1,-1c1,0,1,0,1,1ZM156.5,327.5c0,-1,0,-1,0,-1c-1,0,-1,0,-1,1c-1,0,-1,0,-1,0l1,0c1,0,1,0,1,0ZM327.5,320.5c0,0,0,-1,1,-1c0,0,1,0,1,0c1,0,1,0,2,0c0,1,0,1,0,1c0,1,0,1,0,1c-1,1,-1,1,-1,1c-1,0,-1,0,-1,0c0,0,-1,0,-1,0c0,0,-1,0,-1,0l2,0c0,-1,1,-1,1,-1c-1,-1,-1,-1,-1,-1c-1,0,-1,1,-2,1c0,-1,0,-1,0,-1ZM302.5,321.5l1,0c0,0,1,0,1,0c1,0,1,0,2,0l0,1l-1,1c-1,0,-1,0,-1,0c0,0,-1,0,-1,0c0,0,-1,0,-1,0l2,0c0,0,1,-1,1,-1c-1,0,-1,0,-1,0c-1,0,-1,0,-2,0l0,-1ZM126.5,318.5l0,-1c0,0,1,0,1,0c1,0,1,0,1,1l0,1c-1,0,-1,0,-1,1l1,0l0,1l-1,0l-1,0c-1,1,-1,1,-1,1l-1,0c-1,0,-1,0,-1,0l1,0l1,-1l1,0l0,-1c-1,0,-1,-1,-1,-1c0,0,0,-1,1,-1ZM127.5,318.5l-1,0l0,1l1,0l0,-1ZM116.5,335.5l-1,-1l-1,1l-1,-1l0,-1l2,1l1,-2l1,1ZM113.5,330.5c1,0,1,0,2,0c0,0,1,-1,1,-1c0,-1,0,-1,0,-1c0,0,-1,-1,-1,-1l1,-2c0,0,0,1,0,1l1,0c0,1,0,1,0,1c0,0,0,1,0,1c0,0,0,1,0,1c0,1,0,1,-1,1c0,1,-1,1,-1,1c-1,0,-1,1,-2,1l-1,0c0,-1,0,-1,0,-1l0,1l0,1c-1,0,-1,1,-1,2c0,0,-1,0,-1,0c0,1,0,1,0,1c-1,0,-1,1,-2,1c-1,0,-1,0,-1,0l-1,0c0,0,-1,0,-1,0c-1,0,-1,0,-1,-1l1,0c1,0,1,0,2,0c0,0,1,0,1,-1c0,0,1,0,1,0c0,0,0,-1,0,-1c1,0,1,-1,1,-1c0,0,1,-1,1,-1c0,-1,0,-1,0,-1c0,0,-1,0,-1,0c0,-1,0,-1,0,-1l0,-1l1,0l0,-1l0,1l0,1c1,0,1,0,1,0ZM113.5,318.5l5,-2l-1,1l-4,2ZM106.5,321.5c0,0,0,-1,1,-1c0,0,1,0,1,0c1,0,1,0,2,0c0,0,0,1,0,1c0,1,0,1,-1,1c0,0,0,1,0,1l-1,0c0,0,-1,0,-1,0c-1,0,-1,0,-1,0l2,0c0,-1,1,-1,1,-1c0,0,0,-1,0,-1c-1,0,-1,0,-1,0c-1,0,-1,0,-2,1c0,-1,0,-1,0,-1ZM103.5,324.5l-2,-1l1,-1l2,1ZM97.5,335.5l0,-1c0,1,0,1,1,1c1,0,2,0,3,-1c0,0,1,-1,1,-1c1,-1,1,-1,1,-2c1,0,1,0,1,0c0,-1,0,-1,0,-1l0,-1l-1,-1l0,-2l1,0c0,1,0,1,0,2l1,1l0,1c0,0,0,1,-1,1l0,1l0,1l-1,1l0,1c-1,0,-1,0,-1,0l-1,0c0,0,0,1,-1,1l-1,0l-1,0c0,-1,0,-1,0,-1c0,0,-1,0,-1,0ZM101.5,316.5c1,-1,1,-1,1,-1c0,0,1,-1,1,-1c0,0,0,1,0,1c1,0,1,0,1,1l0,1l-1,0l1,1l0,1l-1,-1l-1,1c-1,0,-1,1,-1,1l-1,0l-1,0l1,0l1,-1l0,-1l1,0l0,-1c-1,0,-1,0,-1,0l0,-1ZM103.5,316.5l-1,0l0,1l1,0l0,-1ZM95.5,322.5l-1,-1l-1,1l-1,-1l1,-1l1,1l1,-2l1,1ZM97.5,330.5l-1,0l0,1c-1,0,-1,0,-2,0c-1,0,-1,1,-2,1l-1,0c0,0,-1,0,-1,0l-1,0l1,1l0,1c0,0,-1,1,-1,2c0,0,-1,1,-2,1c0,0,0,-1,0,-1c-1,0,-1,-1,-1,-1c-1,-1,-1,-2,-1,-3l-1,0l-1,0l-1,0l-1,0c-1,0,-1,-1,-2,-1c0,-1,-1,-1,-1,-2l0,-9l1,-2l0,10l0,1l1,0c0,1,0,1,1,1l1,0l1,0l1,0l1,0c0,-1,1,-1,1,-2l0,-1l1,0c0,-2,1,-2,2,-2l0,1l0,1c0,1,0,1,0,1c0,1,-1,2,-2,2l1,0l1,0l1,0l1,0l1,0c1,0,2,0,2,0c1,-1,2,-1,2,-1c0,0,0,-1,0,-1c0,0,0,-1,0,-1l0,1l-1,0l-1,0c-1,0,-1,0,-1,0l0,-1l0,-1l0,-1c0,-1,0,-1,1,-1c0,-1,0,-1,1,-1l1,0c0,1,0,1,0,2c0,0,1,0,1,0l0,1l0,1c0,0,0,1,0,1c0,0,0,1,0,1l0,1ZM94.5,325.5c0,1,0,1,0,1c1,0,1,0,1,0l0,-1l-1,0ZM93.5,312.5l1,-1l1,0c0,0,0,1,0,1c0,0,0,1,0,1c0,1,0,1,0,1l0,1l-1,0l-1,1l-1,0l0,1l-1,0l0,-1l1,0c0,0,0,-1,1,-1l1,-1l-1,0l0,-1l0,-1ZM94.5,313.5l0,-1c0,0,-1,0,-1,0c0,1,0,1,1,1ZM88.5,326.5c0,0,0,1,0,1c-1,0,-1,0,-1,0l-1,1l0,1c1,0,2,0,2,-1c1,0,1,0,1,-1l-1,0l0,-1ZM86.5,332.5l0,1c0,1,0,1,1,1l0,1c0,0,1,0,1,0c0,0,1,0,1,-1c0,0,0,-1,-1,-1c-1,-1,-1,-1,-2,-1ZM86.5,318.5l4,-2l0,1l-1,0l-4,2ZM141.5,332.5l0,-2l0,-1l-1,-8l1,-3l1,11c0,0,0,1,0,1c-1,1,-1,1,-1,2ZM137.5,331.5c0,0,-1,0,-1,0c-1,0,-1,0,-1,0c-1,-1,-1,-1,-1,-2c0,1,-1,1,-1,2c-1,0,-1,0,-2,0c0,0,-1,0,-1,0c-1,-1,-1,-1,-1,-2c-1,1,-1,1,-1,1c-1,0,-1,0,-2,0c0,0,-1,0,-1,0c0,0,-1,0,-1,0c0,0,0,-1,0,-1c0,0,0,-1,1,-1l1,-1l1,-1l1,0l0,-1l1,-1c0,0,0,-1,0,-1l0,1l0,1l1,3l0,1c0,0,1,1,1,1c1,0,1,-1,1,-1c1,0,1,0,1,-1c0,0,0,-1,0,-2c0,-1,0,-1,0,-2c0,-1,0,-1,-1,-1l1,-1l0,-1l1,3l0,2l0,1c0,0,0,1,0,1c1,1,1,1,2,1c1,0,1,0,1,0l0,-1l0,-1l-1,-1l0,-1l0,-1l0,-1l0,-1l1,0l0,1c0,0,0,1,0,1l1,2c0,1,0,1,0,2c0,0,0,1,0,2c-1,0,-1,0,-1,1ZM129.5,326.5l-1,1l-1,0c-1,1,-1,1,-1,1c1,0,1,0,2,0l1,0ZM188.5,336.5c0,-1,0,-1,0,-1c1,0,1,0,1,1l1,0c1,0,2,-1,2,-1c1,0,1,-1,2,-1c0,-1,1,-1,1,-2l0,-1c0,0,1,0,1,0c0,0,0,-1,-1,-1l0,-1l-1,0c0,-1,0,-1,0,-1l1,-1c1,0,1,1,1,2l0,1l0,1c0,0,0,1,0,1c0,1,0,1,0,1c-1,1,-1,1,-1,1c0,1,0,1,-1,1c0,1,0,1,0,1l-1,0c0,0,-1,0,-1,0c0,0,-1,0,-1,0l-1,0l-1,0l-1,0ZM195.5,340.5l-4,2c0,0,0,-1,0,-1l4,-2ZM187.5,325.5l-1,-1l1,-2l1,2ZM181.5,336.5c0,-1,0,-1,0,-1c0,0,1,0,1,1c1,0,2,-1,3,-1c1,0,1,-1,1,-1c1,-1,1,-1,2,-2l0,-1c0,0,0,-1,0,-1l0,-1l-1,0c0,-1,0,-1,0,-1l0,-1l1,0c0,0,0,1,1,2l0,1l0,1c0,0,0,1,0,1c0,1,0,1,0,1c-1,0,-1,0,-1,0c0,1,0,1,0,1c-1,1,-1,1,-1,1c0,1,0,1,-1,1l-1,0c-1,0,-1,0,-1,0l-1,0c-1,0,-1,0,-1,0l-1,0ZM183.5,314.5l1,0c0,0,1,0,1,0c1,0,1,0,1,0c1,0,1,0,1,1c0,0,0,1,-1,1c0,0,0,1,-1,1c0,0,-1,0,-1,0c-1,0,-1,0,-1,0l2,-1c0,0,1,0,1,-1l-1,0c-1,0,-1,0,-2,0l0,1l0,-1l0,-1ZM180.5,323.5l-2,-1l-1,1l-1,-1l1,-1l1,0l1,-1l2,1ZM181.5,330.5c0,1,0,1,0,1c0,0,-1,0,-1,0c0,1,-1,1,-2,1c0,0,-1,0,-2,0l-1,0l-1,0l-1,0l0,1c0,0,1,0,1,1c0,1,0,2,-1,2c0,1,-1,1,-1,1c0,0,-1,0,-1,0c-1,0,-1,-1,-1,-1c0,-1,-1,-2,-1,-3l0,-1c-1,0,-1,0,-1,0l-1,0l-2,0c0,0,-1,0,-2,0c0,-1,0,-1,0,-2l-1,-9l1,-2l1,10l0,1c0,0,1,1,1,1l2,0l1,0l1,0l0,-1c1,0,1,-1,1,-1l0,-1c0,0,1,0,1,0l0,-1c1,-1,1,-2,2,-2c0,0,0,1,1,1l0,1l0,1c0,0,-1,1,-1,1c0,1,-1,2,-2,2l2,0l1,0l1,0l1,0c1,0,2,0,2,-1c1,0,2,0,2,0c1,-1,1,-1,1,-1c-1,-1,-1,-1,-1,-1c0,1,0,1,0,1l-1,0c-1,0,-1,0,-1,0c0,0,-1,0,-1,0c0,0,0,-1,0,-1l0,-1c0,0,0,-1,0,-1c1,-1,1,-1,1,-1c0,-1,1,-1,1,-1c0,0,1,0,1,0c0,1,0,1,1,1c0,1,0,1,0,1c0,1,0,1,0,1c0,1,0,1,0,2c0,0,0,1,0,1ZM178.5,326.5c0,0,0,1,0,1l1,0l1,0c0,0,-1,-1,-1,-1l-1,0ZM177.5,316.5l4,-2l0,1l-4,2ZM172.5,327.5c0,1,-1,1,-1,1l0,1l-1,1c1,0,2,0,2,-1c1,0,1,0,1,-1c0,-1,-1,-1,-1,-1ZM170.5,333.5l0,1c0,0,1,1,1,1l1,1c0,0,1,0,1,-1c0,-1,0,-1,-1,-2c0,0,-1,0,-2,0ZM170.5,319.5l4,-2l0,1l-4,2ZM237.5,319.5l-1,-1l-1,1l-1,-1l1,-1l1,1l1,-1l1,1ZM236.5,323.5c0,0,1,-1,1,-1c0,0,0,1,0,1l0,1c1,0,1,0,1,0l0,1l0,-1l0,-1c0,-1,0,-1,0,-1l-1,0c0,-1,0,-1,0,-1l-1,0l0,1c0,0,0,1,0,1c-1,0,-1,0,-1,0c0,1,0,1,0,1c-1,0,-1,0,-1,0c0,1,0,1,-1,1l-1,1c-1,0,-1,0,-1,0l0,1c0,0,-1,0,-1,0c0,0,0,1,-1,1l1,0l1,0l1,0l1,1l1,0l1,0l-1,0l-1,1l-1,0l-1,0l-1,1l-1,0l-1,0l-1,0l-1,0c0,-1,0,-1,-1,-1l-1,-1l-1,-1l0,-1c-1,0,-2,1,-3,2c0,1,-1,1,-1,1c0,1,-1,1,-1,1l-1,0l-1,0c0,0,-1,0,-1,-1c0,0,-1,0,-1,0c0,-1,0,-1,0,-1l0,-11l-1,2l0,7c0,1,0,1,0,1c0,1,0,2,0,2l0,3c0,0,0,1,0,1c0,0,-1,1,-2,1c-1,0,-2,1,-3,1c-1,-1,-2,-1,-2,-1c-1,-1,-1,-1,-1,-2c0,0,0,-1,0,-1c0,0,0,-1,0,-1l1,-1l-1,0l0,1c0,1,-1,1,-1,1c0,1,0,2,0,2c0,1,0,1,0,2c0,0,1,0,1,1c0,0,1,0,1,0l1,0l1,1c1,0,1,-1,1,-1c1,0,1,0,2,0l1,0c0,-1,0,-1,1,-1c0,0,0,-1,1,-2c0,0,0,-1,0,-1l0,-1l0,-1c0,0,0,1,1,1l1,0l1,0l1,0c0,0,1,0,1,0l1,-1l1,1l1,0c1,1,1,1,1,1l1,0c0,0,0,-1,1,-2l0,1c1,0,1,0,2,0l1,0l1,0l1,0l1,0c1,0,1,0,1,0l2,-1c0,0,1,0,1,0c0,-1,0,-1,0,-1l1,0c1,0,1,0,1,0l1,0l2,0l1,-1l-1,0c-1,0,-1,0,-1,-1c-1,0,-1,0,-2,0c0,0,-1,0,-1,0l-2,-1l-1,0l0,-1c0,0,1,0,1,0l0,-1c1,0,1,-1,1,-1l1,0ZM234.5,313.5l4,-2l0,1c0,0,-1,0,-1,0l-4,2ZM228.5,314.5c0,0,1,0,1,0c0,0,1,0,1,0c1,0,1,0,2,0l0,1c0,0,0,1,0,1c-1,0,-1,0,-1,0c0,0,0,1,0,1c0,0,-1,0,-1,0l-1,0c0,0,-1,0,-1,0l2,-1c1,0,1,0,1,-1c-1,0,-1,0,-1,0c-1,0,-1,0,-1,0c-1,0,-1,0,-1,1l0,-1l0,-1ZM224.5,331.5l-1,-1c0,-1,0,-1,0,-1c-1,0,-1,0,-1,0l-1,1c0,0,1,0,1,0l1,1ZM221.5,336.5l-4,2c0,-1,1,-1,1,-1l4,-2ZM207.5,317.5c0,-1,0,-1,0,-1c1,-1,1,-1,1,-1c0,0,1,0,1,0c0,1,0,1,0,1c0,1,0,1,0,1l0,1l0,2l-1,-1l-1,1c0,0,-1,1,-1,1l-1,0l0,-1l1,0l1,-1l0,-1l0,-1ZM208.5,317.5l0,-1c-1,0,-1,1,-1,1l1,0l0,1l0,-1ZM257.5,331.5c0,0,0,1,-1,1l1,0l1,0c0,-1,0,-1,-1,-1ZM258.5,333.5c0,0,0,1,-1,1c0,0,-1,0,-1,0c0,0,-1,0,-2,0l-1,0c0,-1,0,-1,0,-1l0,-1c0,0,1,0,1,0c1,0,1,0,1,0c0,-1,1,-1,1,-1l0,-1c0,0,1,0,1,0c0,0,-1,-1,-1,-1c0,0,0,-1,-1,-1c0,0,0,-1,-1,-1c0,-1,-1,-1,-1,-2c-1,0,-1,0,-1,-1c0,0,-1,0,-1,0l-1,0c0,0,-1,-1,-1,-1c0,0,0,-1,0,-1c0,0,0,-1,0,-1c0,0,0,-1,0,-1l1,0c0,0,0,1,1,1c0,1,1,1,1,2c1,0,2,1,2,2c1,0,1,1,2,2c0,0,1,1,1,1c0,0,0,1,0,1c0,0,1,-1,1,-2c0,0,0,-1,0,-1c0,-1,0,-2,0,-2c0,0,0,-1,0,-1c0,-1,0,-2,0,-2c0,0,0,-1,0,-1l0,-1l1,0c0,1,0,1,0,1c0,0,1,0,1,0c0,1,0,1,0,1c0,0,-1,1,-1,1c0,1,0,1,0,2c0,0,0,1,0,1c0,1,0,1,0,1c0,1,-1,2,-1,2c0,1,0,1,0,2l0,1c0,0,0,1,0,1c0,0,0,1,0,1ZM255.5,316.5l0,1c1,0,1,0,1,0l0,-1c0,1,0,1,1,1l0,-1l1,-1l0,1l0,1c0,1,-1,1,-1,1c0,0,-1,0,-1,0c0,1,-1,1,-1,1l-1,-1l0,-1l0,-1ZM259.5,314.5l-6,2c1,0,1,-1,1,-1l5,-3ZM292.5,331.5l-1,1c0,0,-1,0,-2,0l-1,1l-1,0l0,-1c-1,0,-1,0,-1,0l0,-1l0,-1c1,0,1,0,1,0l1,0c0,0,1,0,1,0c1,0,1,0,1,0c1,0,1,0,1,0c0,0,1,0,1,0c0,-1,0,-1,0,-2c0,0,-1,0,-1,-1l-1,0l0,-1l-1,0l-1,0l1,-2l1,0l0,1c1,0,1,0,1,0c1,1,1,1,1,2c0,0,1,1,1,1c0,0,0,1,0,1c0,1,0,1,0,1c0,1,0,1,-1,1ZM289.5,319.5l4,-2l-1,1l-4,2ZM282.5,332.5l0,-1l0,-1l0,-8l1,-3l0,11l0,1c0,1,0,1,-1,1ZM280.5,314.5c0,0,1,0,2,0c0,0,1,0,1,0l1,0l1,0c-1,0,-1,1,-1,1l-1,0l-1,0c-1,0,-1,0,-1,0l-1,0l-1,0c0,-1,0,-1,1,-1ZM278.5,336.5l-1,-1l0,-1l2,1ZM276.5,332.5l-1,0l-1,0c0,0,-1,0,-1,0c0,0,-1,0,-1,0c0,-1,0,-1,0,-1c0,-1,0,-1,0,-2l-1,1c0,0,-1,1,-1,1l-1,0c0,0,-1,0,-1,0l-1,0l0,-2c0,0,1,-1,1,-1c1,0,1,-1,2,-1c1,-1,1,-1,1,-1l0,-1l0,-1l1,1c0,0,0,1,0,1c0,1,0,1,0,1l0,2c0,1,0,1,1,1c0,0,0,1,1,1l1,0l1,0l1,-1c1,0,1,0,1,0l0,-1c0,-1,0,-1,0,-1l-1,0l1,-2l0,1l1,0l0,1l0,1l0,1c0,0,0,1,0,1c0,0,-1,0,-1,0c0,1,0,1,-1,1c-1,0,-1,0,-1,0ZM275.5,320.5l0,1c0,0,1,0,1,0l1,-1l0,1l1,0c0,0,0,-1,0,-1l0,-1l0,1l0,1c0,0,0,1,0,1l-1,0l-1,0c0,0,0,1,0,1c-1,0,-1,-1,-1,-1l0,-1l0,-1ZM279.5,317.5l-5,3c0,-1,1,-1,1,-1l5,-3ZM271.5,323.5l-2,-1l-1,2l-1,-1l1,-2l1,1l1,-1l2,1ZM271.5,327.5l-1,1l-1,0c0,0,0,1,0,1l1,0c0,0,1,0,1,0l0,-1ZM267.5,339.5l5,-3c0,1,-1,1,-1,1c0,0,0,1,0,1l-5,2ZM268.5,336.5l5,-3c0,1,0,1,0,1l-5,3ZM317.5,332.5l-1,0c0,0,-1,-1,-1,-1l-1,0c0,1,-1,1,-1,1l-1,0l-1,0l-1,0c0,0,0,1,0,1c0,0,0,1,0,1c0,1,0,2,-1,2c0,1,0,1,-1,2c0,0,-1,1,-2,1c-1,0,-1,0,-2,0c-1,0,-1,0,-2,0c0,0,-1,0,-1,-1c-1,0,-1,0,-1,-1c-1,0,-1,-1,-1,-2c0,0,0,-1,0,-1c0,0,1,0,1,0l0,-1l0,-1c1,0,1,0,1,0l0,1c0,0,-1,0,-1,0c0,1,0,1,0,1l0,1l1,1l0,1c0,0,1,0,1,0c1,0,2,0,2,0c1,0,2,0,3,0c1,0,1,-1,2,-1l0,-1l0,-1l0,-1c0,-1,0,-1,0,-1c-1,0,-1,0,-1,0l0,-1l1,-2c0,1,0,1,0,1c0,0,1,1,1,1l1,0l1,0c1,0,1,0,1,0l1,-1l0,-1c1,-1,1,-1,1,-1l1,-1c1,0,1,0,1,0c0,1,1,1,1,2l0,1c0,0,0,1,0,1c0,0,0,1,-1,1ZM315.5,330.5l1,0l1,0c0,-1,0,-1,0,-1c-1,0,-1,0,-1,0c0,0,-1,0,-1,0l0,1ZM313.5,318.5l0,1c0,0,1,0,1,0l0,-1l1,-1l0,1c1,0,1,0,1,0l0,-1c0,0,0,1,0,1l0,1l-1,1l0,-1l0,1l-1,0c-1,0,-1,0,-1,0l0,-1l0,-1ZM316.5,336.5l-4,2c0,-1,1,-1,1,-1l4,-2ZM305.5,330.5l-2,-1l1,-1l2,1ZM375.5,328.5l-1,1c0,0,1,0,1,0c0,0,1,0,1,0c0,0,-1,0,-1,0c0,-1,0,-1,0,-1ZM375.5,336.5l-1,1c-1,0,-1,0,-2,0c-1,0,-1,0,-2,0c0,0,-1,-1,-1,-1c0,0,1,0,1,0l1,0l1,0l1,0l0,-1c1,0,1,0,1,0c1,-1,1,-1,1,-1c0,0,1,-1,1,-1c0,-1,0,-1,0,-2c0,0,-1,0,-1,0c0,0,0,1,0,1l-1,-1c-1,0,-1,0,-1,0c0,-1,0,-1,0,-1c0,-1,0,-1,0,-1c1,-1,1,-1,1,-2l1,0c0,-1,0,-1,0,-1c1,0,1,0,1,1l1,0c0,1,0,1,0,1c0,1,0,1,0,1c0,1,0,1,0,2c0,1,0,2,-1,3c0,1,0,1,0,1c0,1,-1,1,-1,1ZM372.5,323.5l4,-3l0,1c0,0,0,1,0,1l-4,2ZM367.5,331.5c0,0,-1,0,-2,0c-1,0,-2,0,-4,1c-1,0,-2,0,-2,0c0,0,-1,0,-1,0c-1,0,-1,0,-1,0c-2,0,-3,0,-5,0c-1,0,-2,0,-3,0c-1,0,-2,0,-3,0l-1,0c0,0,-1,0,-1,0c0,0,0,-1,-1,-1c0,0,0,-1,0,-1l0,-9l1,-2l0,10l0,1c1,0,1,1,1,1c1,0,1,0,1,0l1,0c1,0,2,0,3,0c1,0,2,0,3,0c1,-1,2,-1,4,-1l2,0c0,0,1,0,3,0c1,0,2,0,4,0c1,-1,2,-1,2,-1l1,0c0,0,-1,0,-1,0c0,-1,0,-1,0,-1c-1,0,-1,0,-1,0c0,0,-1,0,-1,0c-1,0,-3,0,-5,0c-1,0,-3,1,-5,1c-2,0,-4,0,-5,0c-2,0,-3,0,-3,-1c0,0,-1,0,-1,0c0,-1,0,-1,1,-2l0,-1c0,0,1,0,1,-1c1,-1,2,-1,3,-2c1,0,2,-1,2,-1c0,0,1,0,1,-1l0,2c0,0,-1,0,-2,1c-1,0,-1,1,-2,1c-1,1,-2,2,-2,2l0,1c-1,0,0,0,0,0c0,0,1,0,1,0c1,0,1,0,1,0c0,0,1,0,1,0c1,0,3,0,4,0c2,0,4,0,6,0c2,-1,3,-1,4,-1l1,0c0,0,1,0,1,1c1,0,1,0,1,0l0,1l0,1c0,0,0,1,0,1c0,1,0,1,0,1ZM352.5,316.5l6,-2c-1,0,-1,1,-1,1l-5,3ZM342.5,313.5l4,-2l0,1l-5,2ZM340.5,334.5l-1,0l-1,1l-1,-1l1,-2l1,1l1,-1l1,1ZM335.5,329.5l1,0c0,0,1,0,1,0l1,0c0,-1,0,-1,0,-1l1,0l0,-1l-1,0c0,0,0,-1,0,-1l0,-1c1,0,1,0,1,-1c0,1,0,1,0,2c0,0,1,1,1,1c0,0,0,1,0,1c0,0,-1,0,-1,0c0,1,0,1,0,1c0,1,-1,1,-1,1c-1,0,-1,0,-2,0c0,0,0,1,0,1c0,0,0,1,0,1c0,1,0,2,0,2c-1,1,-1,1,-2,2c0,0,-1,1,-1,1c-1,0,-2,0,-3,0c0,0,-1,0,-1,0c-1,0,-1,0,-1,-1c-1,0,-1,0,-1,-1c-1,0,-1,-1,-1,-2l0,-1l0,-1c1,0,1,0,1,0c0,0,0,-1,0,-1l1,0l-1,1c0,1,0,1,0,1l0,1l0,1c0,0,1,0,1,1l1,0c0,0,1,0,2,0c1,0,1,0,2,0c1,0,1,-1,2,-1l0,-1c0,0,0,-1,0,-1c0,-1,0,-1,0,-1l0,-1c0,0,-1,0,-1,-1l0,-1l0,-2c0,1,1,1,1,1c0,1,0,1,0,1l0,1ZM337.5,318.5l0,1l1,0l0,-1l0,-1l1,0l0,1c1,0,1,0,1,0l0,-1c0,0,0,1,0,1l0,1l-1,0l0,1l0,-1l-1,1l-1,0l0,-1l0,-1ZM343.5,338.5l-5,2c1,-1,1,-1,1,-1l4,-2ZM331.5,328.5l-2,-1l1,-2l1,1ZM324.5,377.5l0,-1l0,-1l-1,-9l1,-2l1,11c0,0,0,1,0,1c-1,0,-1,1,-1,1ZM327.5,379.5l-4,2c0,0,0,-1,0,-1l4,-2ZM132.5,316.5l0,-1c0,0,0,-1,0,-1c0,-1,0,-1,0,-1l0,-1c0,0,1,0,1,1l0,1c0,0,0,1,0,1l-1,1ZM132.5,317.5l0,1c0,0,1,0,1,0l0,-1c0,1,1,1,1,1c0,0,0,-1,0,-1l0,-1l1,0l0,1l-1,1l0,1l-1,0l0,-1l0,1c-1,0,-1,0,-1,0c0,0,-1,0,-1,0l0,-1l0,-1ZM154.5,318.5l-1,0l0,-1l1,1l0,-1l1,1Z" class="g2_31" />
<path fill-rule="evenodd" d="M350.5,482.5l0,1l1,0l0,-1l0,1c0,0,1,0,1,0l0,-1l0,-1l0,1c0,0,1,0,1,0l-1,1c0,0,0,1,0,1l-1,0c-1,0,-1,1,-1,1c0,0,-1,-1,-1,-1c0,-1,0,-1,0,-1l0,-1ZM89.5,541.5c0,1,0,2,0,2c0,0,-1,1,-1,1l0,1l-1,0l2,0l0,1l-1,0l-1,1l-1,0l0,1c0,0,-1,0,-1,0l-1,1l-1,0l-1,0l0,1l-1,1l-1,0l0,1l-3,0l0,-1l-1,0l-1,-1c0,0,0,-1,0,-1c-1,0,-2,0,-3,-1l-1,0l-1,-1l-1,-1l-1,0l0,-1l2,0l-1,0l0,-1l-1,-1l0,-1l0,-1l0,-1l0,-1l1,-1l0,-1l-1,0c0,-1,0,-1,0,-1l1,0l1,-1l1,0l0,-1l1,0l1,-1l2,0l0,-1l1,-1c0,0,1,0,1,0l0,-1l3,0l0,1l1,0l0,1l1,0l0,1l2,0l1,1c0,0,1,0,1,0l0,1l1,0c1,1,1,1,2,1c0,1,0,1,0,1l-2,0l1,0l0,1l1,1l0,1ZM80.5,551.5l1,-1l1,-1c1,0,1,0,1,0l1,0l0,-1l1,0l1,0l0,-1l1,0l0,-1l1,0l-1,-1l1,-1l0,-1l1,-1l0,-1c0,-1,0,-2,-1,-2l0,-1l0,-1l-1,0l1,-1c0,0,-1,0,-1,-1l-1,0l-1,-1l-1,0l-2,-1l-1,-1l-1,-1l-1,0l-2,0l-1,1l-1,0c0,1,0,1,0,1l-2,1l-1,0l-1,0l0,1l-1,0c0,1,-1,1,-1,1l1,1l-1,1l0,1l-1,0l0,1c0,0,0,1,0,1l0,1l0,1l1,0l0,1l1,1l-1,1l1,1l1,0l0,1l1,0l1,0l0,1l2,0l1,1l0,1c1,0,1,0,1,0ZM86.5,536.5l-1,0l0,1l0,-1l-1,0l0,-1l-1,0c-1,0,-1,0,-1,0l0,-1l1,0l0,1l1,0c1,0,1,0,1,0l0,1ZM86.5,546.5l-1,0l0,1l-1,0l0,1l-1,0l-1,0c0,-1,0,-1,0,-1c1,0,1,0,1,0l1,0c0,-1,1,-1,1,-1ZM81.5,548.5c0,0,0,1,0,1c0,0,-1,0,-1,0l-3,0c0,0,-1,0,-1,0l0,-1c0,0,0,-1,0,-1l1,0l3,0l1,0l0,1ZM81.5,534.5c0,0,0,1,0,1c0,0,-1,0,-1,0l-3,0c0,0,-1,0,-1,0l0,-1c0,0,0,-1,0,-1l1,0l3,0c0,0,1,0,1,0l0,1ZM80.5,537.5l0,-1l1,0l1,0l1,0c0,1,0,1,1,1l0,1l1,-1c0,0,1,1,1,1l0,1l1,1l0,1l0,1l-1,1c0,1,0,1,0,1c0,0,0,1,-1,1l-1,-1l0,1l-1,0l0,1l-1,0l-1,0c0,0,-1,0,-1,-1l-3,0l0,1l-1,0l-1,0c0,0,-1,0,-1,0c0,-1,-1,-1,-1,-1l0,-1l-2,1l0,-1l0,-1l-1,-1l0,-1c0,0,0,-1,0,-1c0,0,0,-1,0,-1l1,0l0,-1c0,0,0,-1,1,-1l1,1l0,-1l1,0l0,-1c0,0,1,0,1,0c1,0,1,0,1,0l1,0l0,1ZM80.5,545.5l1,0c0,1,0,1,0,1l1,0c1,-1,1,-1,1,-1l1,-1l1,0l1,0l0,-1l0,-1l0,-1c0,-1,0,-1,0,-2l0,-1c0,0,-1,0,-1,0l-1,0l-1,-1l-1,-1c-1,0,-1,0,-1,1l-1,0l-3,0l-1,0l0,-1l-1,0c-1,1,-1,1,-1,1l-1,0l0,1l-1,0c0,0,-1,0,-1,0l0,1l0,1l-1,1c0,0,0,1,0,1l1,0l0,1c0,1,0,1,1,1l1,0l0,1l1,0l1,1c1,0,1,0,1,-1c0,0,1,0,1,0l3,0ZM80.5,539.5l0,1c0,0,-1,0,-1,0l0,1l-1,0l0,1c0,1,0,1,0,1c0,0,0,1,0,1l0,-1l0,-1l0,-1l-1,0l0,-1l0,-1c1,1,1,1,2,1l1,-1ZM71.5,536.5l1,0l0,-1l1,0l1,-1l1,0l0,1c-1,0,-1,0,-1,0c-1,0,-1,0,-1,1l-1,0l0,1l0,-1l-1,0ZM71.5,546.5l1,0l1,1l1,0l1,0c0,0,-1,0,-1,1l1,0c-1,0,-1,0,-1,0c-1,-1,-2,-1,-2,-1l-1,-1ZM132.5,544.5l0,-2l0,-1l0,-8l1,-3l0,11c0,0,0,1,0,1c0,1,0,1,-1,2ZM124.5,532.5l0,3c0,0,0,1,0,1l-1,1c0,1,0,1,0,1l2,1c0,0,1,0,2,1l1,0c0,0,1,0,1,0l1,0l0,1l-1,0l-1,0l-1,0l-1,0l-1,0l-1,1l-1,0l-2,1c-1,0,-1,0,-1,0l-1,0l0,1l-1,0l-1,0l-1,0c0,0,-1,-1,-1,-1l-1,-1l-2,-2c-1,0,-1,0,-1,-1l-1,0l0,1l0,1l0,1l-1,1c-1,0,-1,0,-1,0c0,1,-1,1,-2,1c0,0,-1,0,-1,-1c-1,0,-1,0,-1,0c0,0,0,-1,0,-1c-1,0,-1,-1,-1,-1l0,-1l-1,0c-1,0,-1,0,-2,0c0,0,0,1,1,1c0,0,0,1,0,1c1,0,1,0,1,0l0,1l-1,1l-2,0l-1,0c-1,0,-2,1,-2,1c0,1,0,1,0,1c0,0,0,1,0,2c0,1,1,2,1,3c0,2,0,2,0,2l0,1c0,0,-1,-1,-1,-2c0,-1,0,-2,0,-3c-1,-1,-1,-2,-1,-2l0,-1c0,-1,1,-1,1,-2l0,-1c1,0,1,0,2,0c0,0,1,-1,1,-1c0,0,-1,0,-1,0c-1,0,-1,0,-1,1c0,-1,0,-1,0,-2c1,0,1,-1,1,-1c0,0,1,0,1,0c0,0,0,-1,0,-1c1,0,1,0,1,0c1,-1,1,-1,1,-1c1,0,1,0,1,0c0,0,1,0,1,0c0,1,0,1,1,1l0,1c0,1,0,1,1,1c0,1,0,1,0,1c0,0,1,0,1,0l1,0c0,0,1,0,1,0l1,0c0,0,0,-1,0,-1c0,0,1,0,1,0c0,-1,0,-1,0,-1l-1,-1c0,-1,0,-1,-1,-1l-1,-1l-1,0c-1,0,-1,-1,-1,-1c0,0,0,-1,0,-1l0,-1c0,0,0,-1,0,-1c1,0,1,0,1,0c0,-1,1,-1,3,-2c1,0,2,-1,4,-1c1,-1,2,-1,3,-1l1,0l-1,1c0,0,-1,0,-1,0c0,1,-1,1,-2,1c-2,1,-3,1,-4,2c-2,0,-3,1,-3,1l-1,1l1,0c1,0,1,0,1,1c1,0,1,0,1,0l1,0c1,1,1,1,2,2c0,0,1,0,1,1c1,0,1,1,2,1l2,2l2,0l1,0l1,0l1,0l1,-1l1,0l1,0l-1,-1l-1,0l-1,0l0,-1l-1,0l-1,0l0,1c0,-1,0,-1,0,-2l1,0c0,-1,1,-1,1,-1l1,0c1,0,1,-1,1,-1c0,-1,0,-1,0,-2c0,0,0,-1,0,-2c-1,0,-1,0,-1,0c0,-1,0,-1,0,-1c0,-1,0,-1,0,-1c1,-1,1,-1,1,-1c0,1,0,1,0,1c1,0,1,1,1,1l0,1ZM122.5,526.5c0,-1,1,-1,1,-1c0,0,1,0,1,0c1,0,1,0,2,0c0,0,0,1,0,1c0,1,0,1,0,1c-1,0,-1,1,-1,1c0,0,-1,0,-1,0l-1,0c0,0,-1,0,-1,0l2,-1c1,0,1,0,2,0c-1,-1,-1,-1,-1,-1c-1,0,-1,0,-1,0c-1,0,-1,0,-1,0c-1,0,-1,1,-1,1l0,-1ZM115.5,534.5l4,-2l0,1l-4,2ZM116.5,547.5l-5,2c0,0,1,-1,1,-1l4,-2ZM105.5,547.5l-1,-1l-1,1l-1,-1l1,-1l1,1l1,-2l1,1ZM98.5,528.5c1,-1,1,-1,1,-1c0,0,1,0,1,0c0,0,1,0,1,1l-1,1l1,1l0,1l-1,-1l-1,1c-1,1,-1,1,-1,1l-1,0l-1,0l1,0l1,-1l0,-1l1,0l-1,0c0,-1,0,-1,0,-1l0,-1ZM100.5,528.5l-1,0l0,1l1,0l0,-1ZM178.5,544.5l0,-2l0,-1l-1,-8l1,-3l1,11c0,0,0,1,0,1c-1,1,-1,1,-1,2ZM170.5,542.5c1,0,1,0,1,0c0,0,1,0,1,0c0,0,0,-1,1,-1l0,-2l-1,-7c0,-1,0,-1,0,-1c0,-1,1,-1,1,-1c0,1,0,1,0,1c0,0,1,0,1,0c0,1,0,1,0,2l-1,0c0,1,0,1,0,2c0,0,1,1,1,3c0,0,0,1,0,1l0,1c0,0,0,1,0,1c0,1,-1,1,-1,1c0,1,0,1,0,1c0,0,-1,0,-1,0l-1,0c0,0,0,1,0,1l-1,0c-1,0,-1,0,-1,-1c-1,0,-1,0,-1,0c-1,0,-1,0,-1,-1l-1,0l-1,0l0,1l-1,0l-1,0l0,1l-1,0c0,0,-1,0,-1,0c0,0,-1,0,-1,0l0,1l-1,1l-1,0l0,1l-1,0c0,0,0,1,0,1l-1,0c0,1,0,1,-1,1c0,0,-1,0,-1,0c-1,0,-1,0,-1,0c0,0,-1,-1,-1,-1l0,-1c0,0,0,-1,0,-1l0,-1l0,2l-2,-1l-1,1l-1,-1l1,-1l1,1l1,-2l2,1l0,-1c1,0,1,0,1,0l0,1c0,0,-1,0,-1,0l0,1l0,1l0,1c0,0,1,0,1,0c1,0,1,0,2,-1l1,-2l1,-1c0,0,1,-1,1,-1l1,0c0,0,0,-1,1,-1l1,0c1,0,1,0,1,0l1,0l0,-1l1,0l0,-1c-1,0,-1,0,-1,0c-1,0,-1,0,-1,0l1,-2l1,0c0,0,1,-1,1,-1l1,1l1,0c0,0,0,1,0,1c0,0,0,1,0,1l0,1l-1,0l1,0c0,0,0,1,0,1l1,0l1,0ZM170.5,526.5c1,-1,1,-1,1,-1c1,0,1,0,2,0c0,0,1,0,1,0c0,0,1,1,1,1c-1,1,-1,1,-1,1c0,0,0,1,-1,1l-1,0l-1,0l1,-1c1,0,1,0,2,0c-1,-1,-1,-1,-1,-1c0,0,-1,0,-1,0c0,0,-1,0,-1,0c0,0,-1,1,-1,1l0,-1ZM165.5,531.5l4,-3l0,1l0,1l-4,2ZM159.5,539.5l-1,-1l1,-1l1,1ZM158.5,551.5l-4,2c0,0,1,0,1,-1l4,-2ZM149.5,544.5l-1,0l-1,0l0,-1l0,1l0,1c0,0,-1,1,-1,2l-1,0c0,1,0,1,0,1c-1,1,-1,1,-1,1c-1,0,-1,0,-1,0c-1,0,-1,0,-1,0l-1,0c0,0,-1,0,-1,0c-1,0,-1,0,-1,-1l1,0c1,0,1,0,2,0c0,0,1,0,1,-1c0,0,1,0,1,0c0,0,0,-1,1,-1l0,-1c0,0,1,-1,1,-1c0,0,0,-1,0,-1l-1,0c0,-1,0,-1,0,-1l0,-1c1,0,1,0,1,0l1,1l1,0l1,0c0,0,1,0,1,0c1,0,1,-1,1,-1c1,0,1,0,1,0c0,0,-1,0,-1,0c0,0,0,-1,0,-1c0,0,0,-1,0,-1l0,-2c1,0,1,1,1,1c0,1,0,1,0,1l0,1c0,1,0,1,0,1c0,1,0,1,0,1c-1,1,-1,1,-2,1c0,1,-1,1,-1,1ZM146.5,539.5l-2,-1l1,-2l2,1ZM144.5,531.5c0,0,1,0,1,-1l1,0c0,0,0,1,0,1l0,1c0,0,0,1,0,1l1,0l-1,1l-1,0l0,1c-1,0,-1,0,-1,0l-1,0l0,1l-1,0l0,-1l1,0c1,-1,1,-1,1,-1l1,-1l-1,0c0,0,0,-1,0,-1l0,-1ZM145.5,531.5c0,0,0,1,0,1l1,0l-1,0ZM209.5,540.5c0,1,0,1,0,1c1,0,1,0,1,0c0,0,0,-1,0,-1l-1,0ZM209.5,547.5c0,0,0,1,0,1c0,0,-1,0,-1,0c0,0,-1,0,-2,0c0,0,-1,0,-2,0c0,-1,0,-1,0,-1l1,0l0,1c0,0,1,-1,1,-1l1,0c0,0,1,0,1,0c0,-1,1,-1,1,-1c0,0,1,-1,1,-1l0,-1c1,-1,1,-1,1,-1c0,-1,0,-1,0,-1c0,0,-1,0,-1,0c0,0,0,1,0,1l-1,0l-1,0c0,-1,0,-1,0,-1c0,0,0,-1,0,-1c0,0,0,-1,0,-1c0,-1,0,-1,0,-1c1,-1,1,-1,1,-1c0,0,1,0,1,0c1,0,1,0,1,1c0,1,1,1,1,2l0,1c0,0,0,1,0,1c-1,1,-1,2,-1,2c0,1,-1,1,-1,1c0,1,0,1,-1,1ZM207.5,534.5l4,-2l-1,0c0,1,0,1,0,1l-4,2ZM203.5,543.5c0,0,-1,0,-2,0c0,0,-1,-1,-1,-1c-1,0,-1,0,-1,1l-1,0c-1,0,-1,0,-2,0l0,1c0,0,-1,0,-1,0l-2,0l0,1l0,1c-1,0,-1,1,-1,1c0,0,-1,1,-1,1l-1,0c0,1,0,1,0,1c-1,0,-1,0,-1,0c0,0,-1,0,-1,0c-1,0,-1,0,-2,0c0,-1,0,-1,-1,-1c1,0,1,0,1,0l1,0c0,0,1,0,1,0c1,0,1,0,1,-1c1,0,1,0,1,0c1,-1,1,-1,1,-1c0,0,0,-1,1,-1l0,-1c0,0,-1,0,-1,0l0,-1c0,0,-1,0,-1,0l0,-1c0,0,-1,0,-1,0l0,-1c1,0,1,0,1,0l0,-1c0,-1,1,-1,1,-1l1,0c0,0,1,0,1,1c0,0,0,1,0,1c0,0,0,1,0,1c1,0,1,0,2,0c1,0,1,0,1,0l1,0c0,0,1,-1,1,-1c-1,0,-1,0,-1,0c0,-1,0,-1,0,-1c1,-1,1,-1,1,-1c0,-1,0,-1,0,-1c1,0,1,0,1,-1l0,-1c0,0,0,-1,1,-1c0,1,1,1,2,2c0,0,0,1,1,1c0,0,1,1,1,1c0,1,0,1,0,1c0,0,0,1,0,1l0,1c0,1,0,1,0,1c0,0,-1,0,-1,0ZM200.5,539.5c-1,-1,-1,0,-1,0l-1,0l0,1l1,0l0,1c1,-1,1,-1,1,-1c0,-1,0,-1,0,-1ZM201.5,539.5l0,1c0,0,0,1,0,1l2,0c0,-1,0,-1,-1,-1l0,-1c0,0,-1,0,-1,0ZM196.5,524.5c0,0,1,0,1,0c0,-1,0,-1,1,-1c0,0,0,1,0,1c0,0,0,1,0,1c0,1,0,1,0,1l1,0l-1,1l-1,0l-1,1l0,1l-1,0l-1,0l1,-1c0,0,1,0,1,-1l1,0l-1,-1l0,-1l0,-1ZM197.5,525.5l0,-1l0,1l1,1l0,-1l-1,0ZM191.5,541.5c-1,0,-1,0,-1,0l1,0c0,1,0,1,0,1c0,0,1,0,1,0l0,-1c-1,0,-1,0,-1,0ZM188.5,534.5l4,-2l-1,0c0,1,0,1,0,1l-4,2ZM265.5,547.5l-2,-1l1,-1l1,1ZM262.5,544.5l-1,0c-1,0,-1,0,-1,-1c-1,0,-1,0,-1,0c-1,0,-1,0,-1,-1l-1,0l-1,0l0,1l-1,0l-1,0l0,1l-1,0l-2,0l-1,0c0,-1,0,-1,0,-1l-1,0l0,-1l0,-1l0,1c-1,0,-1,0,-1,0l0,1c-1,0,-1,0,-2,0c0,0,-1,0,-1,0l-1,0c-1,0,-1,0,-1,0c0,0,-1,-1,-1,-1c0,-1,0,-1,0,-1l1,0l0,-1c0,1,0,1,0,1l1,0l0,1l1,0l1,0l0,-1c1,0,1,0,1,0l1,0l1,-1l0,-1l-1,-2l0,-1l0,-1l1,-1l0,2c0,0,0,1,0,1l1,3l0,1l0,1c0,0,1,0,1,0l2,0c1,0,1,0,1,0l1,0l0,-1l1,0l0,-1c-1,0,-1,0,-1,0c-1,0,-1,0,-1,0l1,-2c0,0,1,0,1,0c0,0,1,-1,1,-1c0,0,1,0,1,1l1,0c0,0,0,1,0,1c0,0,0,1,0,1l0,1l-1,0l1,0c0,0,0,1,0,1l1,0l1,0l1,0c1,0,1,0,2,0c0,0,1,-1,1,-1c0,0,0,-1,0,-1c-1,0,-1,0,-1,0l0,-1l1,-2c0,0,0,1,0,1l0,1l0,1l1,0l0,1c0,0,-1,0,-1,0c0,1,0,1,0,1c0,1,-1,1,-1,1c-1,1,-1,1,-2,1ZM262.5,531.5l4,-3l0,1l0,1l-4,2ZM253.5,529.5c0,0,1,0,1,0c0,0,1,0,1,0c1,0,1,0,2,0c0,1,0,1,0,1l0,1c-1,0,-1,0,-1,0c0,0,-1,0,-1,0c0,1,0,1,-1,1l-1,-1l2,0c1,0,1,-1,2,-1c-1,0,-1,0,-1,0c-1,0,-1,0,-1,0c0,0,-1,0,-1,0c0,0,-1,0,-1,0c0,-1,0,-1,0,-1ZM246.5,547.5l-4,2c0,-1,0,-1,0,-1l4,-2ZM237.5,544.5c-1,0,-1,0,-1,-1c-1,0,-1,-1,-1,-2l0,-1l0,-1l1,-2c1,0,1,0,1,0c1,0,1,0,2,0c0,1,0,1,1,2l0,1c0,2,-1,3,-2,4c0,0,-1,0,-1,0ZM237.5,539.5c0,0,-1,0,-1,0c0,1,0,1,0,1l0,1c0,0,0,1,0,1l1,0l1,0c1,-1,1,-1,1,-1c0,0,0,-1,-1,-1c0,0,-1,-1,-1,-1ZM290.5,543.5l-1,0c-1,0,-1,0,-1,0l-1,-1c-1,1,-1,1,-1,1l0,1l-1,0l-1,0l-1,0l0,1c0,1,0,2,-1,2c0,1,0,1,-1,2c0,0,-1,1,-2,1c-1,0,-1,1,-2,1c-1,0,-1,-1,-2,-1c-1,0,-1,0,-1,0c-1,-1,-1,-1,-1,-2c-1,0,-1,-1,-1,-1c0,-1,0,-1,0,-1c0,-1,0,-1,0,-1l1,0c0,-1,0,-1,0,-1c0,-1,0,-1,0,-1c0,0,1,0,1,0c0,0,0,1,0,1c-1,0,-1,0,-1,1c0,0,0,1,0,1c0,0,0,1,0,1c1,0,1,1,1,1l1,0c1,1,1,1,2,1c1,0,2,0,3,-1c0,0,1,0,1,-1c1,0,1,0,1,0c0,-1,0,-1,0,-1c0,-1,0,-1,0,-1c0,-1,0,-1,0,-1c0,0,-1,-1,-1,-1l1,-2c0,1,1,1,1,1l1,0l1,0c1,0,1,0,1,0l1,-1l0,-1c0,0,1,-1,1,-1c1,-1,1,-1,1,-1c1,0,1,0,1,1c0,0,1,1,1,1l0,1l0,1c0,1,-1,1,-1,1ZM288.5,541.5l1,0l1,0c0,0,0,-1,-1,-1c-1,0,-1,0,-1,0l0,1ZM289.5,547.5l-4,2c0,-1,0,-1,0,-1l5,-2ZM278.5,541.5l-2,-1l1,-1l1,1ZM278.5,533.5l0,1l-1,0l-1,0l0,1l0,3c0,1,0,1,0,1l-1,0l0,-2l0,-1l0,-1c0,-1,0,-1,0,-1l0,-1l1,0c0,-1,0,-1,0,-1l-1,1c0,-1,0,-1,0,-1c1,-1,1,-1,1,-1c0,0,1,1,1,1c1,1,1,1,1,1ZM306.5,542.5c1,0,1,0,1,0c0,0,1,0,1,0l1,0c0,0,0,-1,0,-1l0,-2l-1,-6l0,-1c0,0,0,-1,0,-1c0,0,1,-1,1,-1c0,0,0,1,0,1c0,1,1,1,1,1l0,1l0,1l-1,-1c0,1,0,1,0,1c0,0,0,1,0,2c0,0,1,1,1,2c0,1,0,1,0,1l0,2c0,1,0,1,0,1c0,0,-1,0,-1,0c0,1,0,1,0,1c0,0,-1,1,-1,1l-1,0l-1,0c-1,0,-1,0,-1,0c-1,0,-1,0,-1,-1c0,0,-1,0,-1,-1c0,0,0,-1,0,-1l0,1c0,0,-1,0,-1,0l-1,0c-1,0,-1,0,-2,0l0,-1c0,-1,0,-1,1,-2c0,0,1,0,2,-1l0,-1l1,-1l0,1l0,1c1,0,1,1,1,1l0,2l0,1c1,0,1,0,1,0c0,0,1,0,1,0ZM307.5,528.5l4,-2c0,1,0,1,0,1l-4,2ZM303.5,539.5l-1,0l-1,0l0,1c0,0,-1,0,-1,0l1,1l1,0l0,-1c0,0,1,0,1,0ZM356.5,543.5c-1,1,-1,1,-1,1l-1,-1l-1,0l-1,-1l0,1c0,0,0,1,-1,1l-1,0c0,0,-1,0,-1,0c0,1,0,1,0,1c0,1,0,2,-1,2c0,0,0,1,0,1c0,0,-1,0,-1,1c0,0,-1,0,-1,0c0,0,-1,1,-1,1c0,0,-1,0,-1,0c-1,0,-1,0,-2,-1c0,0,-1,0,-1,0c0,0,1,0,1,0l1,0c0,0,1,0,1,0c1,-1,1,-1,1,-1c1,0,1,0,1,-1c0,0,1,0,1,0c0,-1,0,-1,1,-1c0,-1,0,-1,0,-2l0,-1l0,-1c0,0,0,-1,0,-1c0,0,0,1,0,1l1,0l1,0l1,0l1,0l1,-1c0,-1,0,-1,1,-2l1,0l1,0c0,1,0,1,0,1l0,1l0,1l0,1ZM354.5,541.5l1,1c0,0,0,-1,0,-1c0,0,0,-1,-1,-1l0,1c-1,0,-1,0,-1,0c0,0,1,0,1,0ZM353.5,528.5l1,-1c1,0,1,0,1,0c0,0,0,1,0,1c0,0,0,1,0,1c0,0,0,1,0,1l0,1l-1,0l-1,1l-1,0l0,1l-1,0l0,-1l1,0c0,0,0,-1,1,-1l0,-1l1,0l-1,0c0,0,0,-1,0,-1l0,-1ZM354.5,528.5c0,0,-1,0,-1,0c0,0,0,1,1,1ZM344.5,533.5l1,0l1,0c0,0,1,0,1,0c1,0,1,0,1,0c0,1,0,1,0,1c0,0,-1,0,-1,1c-1,0,-1,0,-1,0l0,1c-1,0,-1,0,-1,0l-1,0l1,-1c1,0,2,-1,2,-1l-1,0l-1,0l-1,0l-1,0c0,-1,1,-1,1,-1ZM334.5,542.5l0,1l-1,0c0,0,0,1,-1,1c-1,0,-1,0,-1,0l-1,0c0,0,-1,0,-1,0c0,-1,0,-1,-1,-2l1,1l0,1l-1,0c0,1,0,2,0,2c0,1,-1,1,-1,2c0,0,-1,0,-1,0c0,0,0,1,-1,1c0,0,-1,0,-1,0c-1,0,-1,0,-2,0l-1,0c-1,0,-1,0,-2,-1l0,-1c-1,0,-1,-1,-1,-1c0,-1,0,-1,1,-2c0,0,0,-1,0,-1l1,-1l0,1l-1,0c0,1,0,1,0,2c0,0,0,1,1,1c0,1,1,1,2,1l1,0c1,0,2,0,3,0c0,-1,1,-1,1,-2c0,0,1,0,1,0l0,-1l0,-3l-1,-1c0,0,0,-1,0,-1l0,-7l1,-2l1,11c0,0,0,1,0,1l1,0l1,0c1,0,1,0,1,0c1,0,1,0,1,0c1,-1,1,-1,1,-2l0,1l1,1l1,0c0,0,1,0,1,0l1,0c0,-1,0,-1,0,-1l0,-1l1,0l0,1c0,1,0,1,0,1l1,0l1,0l-1,-1l1,-1l1,1l0,1l0,1l-1,0l0,1l-1,0c0,0,-1,0,-1,0l0,-1l-1,0l-1,0c0,1,0,1,0,1l-1,0l-1,0l-1,0l0,-1l0,-1ZM340.5,547.5l-4,2l1,0c0,-1,0,-1,0,-1l4,-2ZM325.5,528.5l6,-3c-1,1,-1,1,-1,2l-6,2ZM382.5,534.5l-2,-1l1,-1l2,1ZM384.5,542.5c0,1,-1,1,-1,1c0,0,-1,1,-2,1c0,0,-1,0,-1,0l-1,0l-1,0c0,0,-1,0,-1,-1c-1,0,-1,-1,-1,-2l0,-1c0,0,0,-1,0,-1c-1,0,-1,1,-1,1c0,0,0,1,0,1l0,1l-1,0c0,1,0,1,0,1l-1,1l-1,0c0,1,0,1,-1,1c0,0,-1,0,-1,0c-1,0,-1,0,-2,1l0,-1l1,0l1,-1c0,0,1,0,1,0c1,-1,1,-1,1,-1c1,-1,1,-1,1,-1c0,0,0,-1,0,-1c0,0,-1,0,-1,-1l0,-1c-1,0,-1,0,-1,-1c-1,0,-1,0,-1,-1c-1,0,-1,0,-1,-1c0,0,-1,0,-1,0c0,0,-1,0,-1,0c-1,0,-1,-1,-1,-1c0,0,0,-1,0,-1c0,0,0,-1,0,-1l1,-1c0,1,1,1,1,2c1,0,1,1,2,1c1,1,1,1,2,2c0,0,0,1,1,2c0,0,0,1,0,1c1,0,1,1,1,1c0,-1,0,-1,1,-1c0,-1,0,-1,0,-2c0,0,0,-1,0,-1l0,-4l1,-2l1,10l0,1c0,0,1,0,1,0l1,0l1,0c1,0,1,0,2,0c0,0,1,0,1,-1c0,0,1,0,1,0c0,0,0,-1,0,-1l-1,0l0,1c-1,0,-1,0,-1,0c-1,0,-1,0,-1,0c0,0,0,-1,0,-1c-1,0,-1,0,-1,0c0,0,0,-1,0,-1c0,0,0,-1,0,-1l1,-1c0,0,0,-1,0,-1c0,0,1,-1,1,-1c0,0,1,1,1,1c0,0,1,1,1,1l0,1l0,1c0,1,1,1,1,2c0,0,-1,0,-1,1ZM381.5,538.5l0,1l1,0c0,0,1,-1,1,-1l-1,0l0,-1c0,0,-1,0,-1,0l0,1ZM380.5,528.5l4,-2c0,1,0,1,0,1l-4,2ZM371.5,528.5l6,-3c0,1,-1,1,-1,2l-5,2ZM236.5,550.5c0,-1,0,-1,0,-2c0,-1,-1,-1,-1,-2l1,0l0,1l0,1l0,1c0,1,0,1,0,1ZM299.5,534.5l-1,-1l0,-1c0,0,0,-1,0,-2l1,0c0,-1,0,-1,0,-1l1,0c0,0,0,-1,0,-1l0,1l0,1l-1,1l0,1l0,1c1,0,1,0,1,0l0,-1l0,1l1,0l0,1c-1,1,-1,1,-1,1c-1,-1,-1,-1,-1,-1ZM148.5,529.5c1,0,1,0,1,0c1,0,1,0,2,0c0,0,1,0,1,0c1,0,1,0,1,1c0,0,-1,0,-1,1l-1,0c0,0,0,1,0,1c-1,0,-1,0,-1,0l-1,0l1,-1c1,0,2,0,2,-1c0,0,-1,0,-1,0l-1,0c0,0,-1,0,-1,0l-1,0c0,0,0,-1,0,-1ZM102.5,526.5c0,0,1,0,1,0c0,0,1,0,1,0c1,0,1,0,2,0c0,0,0,1,0,1l0,1c-1,0,-1,0,-1,0c0,0,-1,0,-1,0c0,1,0,1,-1,1l-1,-1l2,0c1,0,1,-1,2,-1c-1,0,-1,0,-1,0c-1,0,-1,0,-1,0c0,0,-1,0,-1,0c0,0,-1,0,-1,0c0,-1,0,-1,0,-1ZM277.5,526.5c1,0,1,0,1,0c1,0,1,0,2,0c0,0,1,0,1,0c1,0,1,0,1,0c0,0,0,1,0,1c-1,0,-1,0,-1,1l-1,0c-1,1,-1,1,-1,1l-1,0l0,-1l1,0c1,0,2,-1,2,-1c0,0,-1,0,-1,0l-1,0c0,0,-1,0,-1,0l-1,0c0,-1,0,-1,0,-1ZM221.5,539.5c1,0,1,0,1,-1l0,-1l0,-1l0,-2l0,-1l1,1c0,0,-1,0,-1,0l1,1l0,1l0,1l0,1l0,-1l1,0c0,0,1,0,1,0c0,0,1,0,1,0l0,1c0,1,0,1,0,1c-1,0,-1,0,-1,0c0,0,-1,0,-1,0c-1,0,-1,0,-1,0ZM225.5,537.5c-1,0,-1,1,-1,1l-1,0l-1,1l1,0l1,0c0,0,0,-1,0,-1c1,0,1,0,2,0c0,0,-1,-1,-1,-1ZM377.5,501.5l-4,2c0,-1,0,-1,0,-1l4,-2ZM119.5,490.5c0,0,-1,1,-1,1l-1,0l-1,0l-1,0l-1,0l-1,0c0,-1,0,-1,0,-1c0,0,0,-1,0,-1c0,-1,0,-1,0,-2c0,0,1,-1,1,-1l-1,0l-1,0l1,0c0,-1,0,-1,1,-1l1,0l1,0l1,0l-1,1c-1,0,-1,0,-2,1c-1,0,-1,0,-1,1l0,1c0,1,1,1,1,1l1,0l1,1ZM116.5,488.5l0,1l-1,0c0,-1,0,-1,0,-1c0,0,1,0,1,0ZM77.5,496.5l-1,-1l-1,2l-1,-1l0,-2l2,1l1,-1l1,1ZM74.5,493.5l-1,0l-1,0c0,0,-1,0,-1,0l-1,-1c0,1,0,1,-1,2c0,0,-1,0,-1,-1l-1,0l-2,-1l-1,1l-1,0l-1,0l-1,0l-1,0l0,-1c0,0,0,-1,-1,-1c0,1,0,1,0,1c-1,1,-1,1,-2,1c0,0,-1,-1,-1,-1l-1,0c0,1,-1,1,-1,1c-1,0,-2,0,-2,-1l-1,0c0,1,-1,1,-1,1l-1,0c0,0,-1,0,-1,0c0,0,-1,0,-1,-1c-1,0,-1,-1,-1,-2c0,0,0,1,-1,1c0,1,-1,1,-2,2c0,0,-1,0,-1,0l-1,0l-1,1c-1,0,-1,0,-1,0l-1,0l-1,0l-1,0l-1,0c-2,-1,-2,-1,-3,-2c0,0,0,-1,0,-2c0,-1,0,-1,0,-1c0,0,0,-1,0,-1l0,-1l1,1l-1,0l0,1c0,1,1,2,2,2c1,0,1,1,2,1c1,0,2,0,2,0l1,0l1,0l1,0l1,0c2,-1,4,-2,4,-3l0,-1l0,-7l1,-2l0,11l0,1c0,0,1,0,1,0c0,1,1,1,1,1l1,0l0,-1l1,0c0,0,1,-1,1,-1l1,0l0,1l1,1c0,0,1,-1,1,-1c0,0,1,0,1,-1l0,-1l1,0c0,1,0,1,0,2l1,0l1,0c0,0,0,-1,0,-1l0,-1l1,0c0,2,1,3,1,3l1,0l1,0c1,0,1,-1,1,-1l1,0c0,0,0,-1,0,-1c1,-1,2,-2,3,-2l1,1l0,1l1,1l1,0l1,1l1,0l1,0c1,0,1,-1,2,-1c0,0,1,0,1,0l0,-1c-1,-1,-1,-1,-1,-1l1,-2l0,1c0,0,0,1,0,1c0,0,1,0,1,0l0,1l0,1c-1,0,-1,0,-1,1c0,1,-1,1,-1,1c-1,0,-1,0,-2,0ZM76.5,477.5c1,0,1,0,1,0c0,-1,1,-1,1,-1c0,0,1,1,1,1c0,0,0,1,-1,1c0,1,0,1,0,1l1,0l0,2l-2,-1l0,1c-1,0,-1,0,-1,1l-1,0l-1,0l1,-1l1,0l0,-1l1,0l0,-1l-1,0l0,-1l0,-1ZM78.5,478.5l-1,-1l0,1l1,0l0,1l0,-1ZM69.5,492.5l0,-1c-1,-1,-1,-1,-1,-1l-1,0l-1,0c1,1,1,1,2,1ZM66.5,478.5l1,0c0,-1,1,-1,1,-1c1,0,1,0,1,1c1,0,1,0,1,0c0,1,0,1,-1,1c0,1,0,1,0,1l-1,0c0,0,-1,0,-1,0c-1,0,-1,0,-1,0l2,0c0,0,1,-1,1,-1l-1,0c-1,0,-1,0,-2,0c0,0,0,-1,0,-1ZM59.5,496.5l-5,2c1,0,1,0,1,0c0,0,0,-1,0,-1l4,-2ZM40.5,488.5c-1,1,-1,1,-2,1l-1,0l0,-1l-1,0l1,0l1,0c1,0,1,0,1,0c0,0,0,-1,0,-1l-1,0c-1,0,-1,-1,-1,-1l0,-1l1,0c0,-1,1,-2,2,-2l0,1l-1,0c0,1,0,1,0,1c1,1,2,1,2,2l-1,0c0,1,0,1,0,1ZM37.5,478.5l1,0c0,-1,1,-1,1,-1c1,0,1,0,1,1c1,0,1,0,1,0c0,1,0,1,-1,1c0,1,0,1,0,1l-1,0c0,0,-1,0,-1,0l-1,0l2,0c0,0,1,-1,1,-1l-1,0c-1,0,-1,0,-2,0c0,0,0,-1,0,-1ZM103.5,489.5l0,1c0,0,1,0,1,0c0,-1,-1,-1,-1,-1ZM103.5,497.5c-1,1,-1,1,-1,1c0,0,-1,0,-2,0c0,0,-1,0,-2,0c0,-1,0,-1,0,-1l1,0c0,0,1,0,1,0l1,0c0,0,1,-1,1,-1c0,0,1,0,1,-1l1,0c0,0,0,-1,0,-1c1,-1,1,-2,1,-2c-1,0,-1,0,-1,0c0,0,-1,0,-1,0l-1,0l0,-1l0,-1c0,-1,0,-1,0,-2c1,0,1,0,1,0c0,-1,0,-1,1,-1c1,1,1,1,1,1c0,0,0,1,0,1c0,0,0,1,1,1c0,1,0,1,0,1c0,1,0,1,0,1c-1,1,-1,2,-1,3c0,0,-1,1,-1,1c0,0,0,1,-1,1ZM100.5,483.5l5,-2l-1,1l-4,2ZM97.5,493.5c0,0,-1,0,-1,0l-1,0c0,-1,0,-1,-1,-1l-1,0c0,0,0,1,0,1l-1,0l-1,0l-1,0c-1,0,-2,0,-2,0c-1,-1,-1,-2,-1,-2l-1,-9l1,-2l1,10l0,1c0,0,1,1,2,1l1,0l1,0c0,0,1,0,1,-1l1,-1c0,-1,0,-1,1,-1l0,-1c0,0,1,0,1,0l1,0c0,1,0,1,0,2l0,1c0,1,0,1,0,1l0,1ZM95.5,490.5l0,1l1,0l0,-1l-1,0ZM92.5,480.5l4,-2l0,1l-4,2ZM139.5,495.5l1,0c1,0,1,0,1,0c0,0,0,-1,0,-1l0,-2l0,-6c-1,-1,-1,-1,-1,-1c0,0,1,-1,1,-1l0,-1c0,0,0,1,0,1l1,0c0,1,0,1,1,1c-1,0,-1,1,-1,1l0,1c0,0,0,1,0,2c0,0,0,1,0,2c0,1,0,1,0,2l0,1l0,1l0,1l-1,0c0,1,0,1,0,1c-1,0,-1,0,-1,0c-1,0,-1,0,-1,0l-1,0c0,0,-1,0,-1,0l-1,0l0,1l0,1c0,0,1,0,1,0c0,1,-1,2,-1,2c0,1,-1,1,-2,1c-1,0,-1,-1,-2,-2c0,0,0,-1,0,-3l-1,0l-1,0l-1,0l-1,0c-1,0,-1,0,-2,0c0,-1,-1,-2,-1,-2l0,-9l1,-2l0,10l0,1l1,0l1,0l1,0l1,0l1,0l1,0c0,0,0,-1,1,-1l0,-1c0,0,0,-1,1,-1c0,-1,1,-2,2,-2l0,1l0,1l0,1c0,0,0,1,0,1c-1,1,-1,1,-2,2l1,0l1,0l1,0l1,-1ZM140.5,481.5l4,-2l-1,1l-4,2ZM135.5,492.5l-1,0c0,0,0,1,0,1l-1,1l0,1c1,0,1,-1,2,-1c0,0,1,-1,1,-1l-1,-1ZM133.5,497.5c0,1,0,1,0,2c0,0,0,1,1,1c0,0,1,0,1,0c0,0,1,0,1,0c0,-1,0,-1,-1,-2c-1,0,-1,0,-2,-1ZM133.5,484.5l4,-2l0,1l-1,0l-4,2ZM196.5,497.5l-1,0l0,-1c0,0,-1,0,-1,0l-1,0c0,0,-1,1,-1,1l-1,0l-1,0l-1,0c0,0,-1,0,-1,0l-1,-1c0,1,0,1,-1,2c0,0,-1,0,-1,-1l-1,0l-2,-1l0,1c-1,0,-1,0,-1,0l-1,0l-1,0l-1,0l-1,-1c0,0,0,-1,0,-1c-1,1,-1,1,-1,1c-1,1,-1,1,-2,1c0,0,-1,-1,-1,-1c-1,1,-1,1,-2,1c-1,0,-1,0,-2,-1c-1,1,-1,1,-2,1l-1,0c0,0,-1,0,-1,0c0,0,-1,0,-1,-1c0,0,0,-1,0,-2c-1,0,-1,1,-1,1c-1,1,-2,1,-3,2l-1,0l-1,0l-1,1c0,0,-1,0,-1,0l-1,0l-1,0l-1,0l-1,0c-1,-1,-2,-1,-3,-2c0,0,0,-1,0,-2l0,-1c0,0,0,-1,0,-1l1,-1l0,1l0,1c0,1,0,2,2,2c0,0,1,0,1,1c1,0,2,0,2,0l1,0l1,0l1,0l1,-1c2,0,4,-1,4,-2l0,-1l0,-7l1,-2l0,11c0,0,1,0,1,1c1,0,1,0,1,0l1,0l1,0c1,0,1,-1,2,-1l0,1l1,0c0,0,1,0,1,0c1,0,1,0,1,-1l1,-1c0,1,0,1,0,1c0,1,1,1,1,1c0,0,1,0,1,0c0,0,0,-1,0,-1c0,0,1,0,1,-1c0,2,1,2,2,2l1,0l1,0l1,0c0,0,0,-1,1,-1c1,-1,2,-2,2,-2l1,1l1,1l0,1l1,0l1,0l1,0l1,0c1,0,1,0,1,0l1,0l0,-1c1,-1,1,-1,1,-2l1,0c1,0,1,0,1,0c0,1,1,1,1,2l0,1c0,0,0,1,0,1c0,0,-1,0,-1,1ZM194.5,494.5l1,1l1,0l0,-1c-1,0,-1,0,-1,0c0,0,-1,0,-1,0ZM194.5,481.5l0,-1c0,0,1,0,1,0c1,0,1,1,1,1c0,0,0,1,0,1c0,1,-1,1,-1,1l1,0l0,1l-1,0l-1,0l0,1c0,0,-1,0,-1,0l0,1l-1,0c0,0,-1,0,-1,0l1,-1l1,0l0,-1l1,0l0,-1c-1,0,-1,0,-1,-1l1,-1ZM195.5,482.5l0,-1l-1,0l0,1l1,0ZM186.5,496.5l0,-1c0,-1,-1,-1,-1,-1l-1,0c0,0,0,1,1,1l1,0ZM183.5,482.5c0,0,1,0,1,-1c0,0,1,0,1,0c1,0,1,0,2,1c0,1,0,1,0,1c-1,1,-1,1,-1,1c0,0,-1,0,-1,0l-1,0l-1,0l2,0c1,-1,1,-1,2,-1c-1,0,-1,0,-1,0c-1,0,-1,0,-1,0c0,0,-1,0,-1,0c-1,0,-1,0,-1,0c0,0,0,-1,0,-1ZM176.5,500.5l-4,2c0,0,0,-1,0,-1l4,-2ZM157.5,492.5c0,1,-1,1,-2,1c-1,0,-1,-1,-1,-1l-1,0l1,0l1,0l1,0c0,0,0,-1,0,-1c-1,0,-1,0,-1,0c0,0,0,-1,0,-1l0,-1c0,-1,1,-2,2,-2l0,1c-1,1,-1,1,-1,1l1,0c0,1,1,1,1,2c0,0,-1,1,-1,1ZM153.5,484.5l5,-2l-1,1l-4,2ZM222.5,488.5l-1,-1l1,-2l1,1ZM225.5,495.5l0,1c-1,0,-1,0,-1,0c-1,1,-1,1,-2,1c0,0,-1,0,-1,0l-1,0l-1,0c-1,0,-1,0,-2,0c0,-1,-1,-2,-1,-2c0,-1,0,-1,0,-2c0,0,0,-1,0,-1c0,0,0,1,0,1c0,0,0,1,0,1c0,0,0,1,-1,1c0,1,0,1,0,1c0,0,-1,1,-1,1c0,0,-1,0,-1,1c0,0,-1,0,-1,0c0,0,-1,0,-2,0c0,1,-1,1,-2,1l0,-1l1,0l1,0l1,-1c0,0,1,0,1,0c0,-1,1,-1,1,-1c1,0,1,-1,1,-1l0,-1c-1,0,-1,0,-1,0c0,-1,0,-1,-1,-2l-1,-1l-1,-1l-1,0c-1,0,-1,0,-1,-1c0,0,-1,0,-1,0c0,0,0,-1,0,-1c0,0,0,-1,0,-1c0,0,0,-1,0,-1c1,0,1,0,2,1c1,0,1,1,2,1c0,1,1,1,1,2c1,1,1,1,1,2c1,0,1,1,1,1c0,1,0,1,1,1c0,-1,0,-1,0,-1c0,-1,1,-1,1,-2c0,0,0,-1,0,-1l0,-4l1,-2l0,10l1,1l1,0l1,0l1,0l0,1c0,-1,1,-1,1,-1c1,0,2,0,2,0c0,-1,0,-1,0,-1l0,-1l-1,0c0,1,0,1,0,1l-1,0c-1,0,-1,0,-1,-1c0,0,0,-1,0,-1c0,0,0,-1,0,-1l0,-1c0,0,1,0,1,-1l1,0l1,0c0,0,0,1,0,1l1,1l0,1c0,1,0,1,0,2l0,1ZM222.5,491.5l0,1l1,0l0,-1l-1,-1c0,1,0,1,0,1ZM221.5,481.5l4,-2l0,1l-1,0l-4,2ZM212.5,481.5l6,-3c-1,1,-1,2,-1,2l-5,2ZM254.5,500.5c0,0,1,0,1,0l1,0c1,0,1,0,2,0c1,-1,1,-1,2,-1c0,-1,1,-1,1,-2c0,0,0,-1,0,-1l0,-1l0,-1l-1,-1l1,-1l0,-1l0,1c1,0,1,1,1,1l0,1l0,1c0,1,0,1,0,2c0,1,0,1,-1,1c0,1,0,1,0,1c0,1,-1,1,-1,1l-1,1c-1,0,-1,0,-1,0c0,0,-1,0,-1,0l-1,0l-1,0l-1,0ZM258.5,486.5l0,1c1,0,1,-1,1,-1l0,-1l0,1l1,0l0,-1l1,0l0,-1l0,1l0,1l0,1c0,0,-1,0,-1,0c-1,0,-1,0,-1,0l0,1c-1,0,-1,0,-1,0c0,0,-1,0,-1,0l0,-1l0,-1ZM262.5,483.5l-6,3c0,-1,1,-2,1,-2l5,-2ZM244.5,492.5c0,0,1,0,1,0c0,-1,0,-1,0,-1l1,0l1,0l1,0l1,0l1,0l-2,-1l-1,0c-1,-1,-1,-1,-2,-1l0,-1c1,0,1,0,2,0c1,0,1,0,2,1l2,1c1,0,1,0,1,1l1,0l1,0l1,1l1,0l-1,1l-1,0l-1,0l-2,0l-2,-1c-1,0,-1,0,-2,0l-1,0c0,1,0,1,0,2l0,1c0,0,0,1,0,1l0,1c0,0,-1,0,-1,0l-1,-1l-1,0l-1,0c0,0,0,1,0,1l-1,0l-1,0c-1,0,-1,0,-2,0c-1,-1,-1,-1,-1,-1c0,-1,0,-1,0,-1l0,-1l0,1c-1,0,-1,0,-1,0l-1,0l0,1l-1,0l-1,-1l0,-1c0,0,0,-1,1,-1c0,-1,1,-1,1,-2c1,0,1,0,1,0l0,-1l1,-1l0,1c0,0,0,1,0,1c0,0,0,1,0,1l1,2c0,0,0,1,0,1c0,0,1,0,1,0l1,0l1,0c0,0,1,0,1,0l1,-1c0,-1,0,-1,1,-2ZM245.5,483.5c0,0,0,-1,1,-1c0,0,1,0,1,0c1,0,1,0,1,0c1,1,1,1,1,1c0,1,0,1,-1,1c0,0,0,1,0,1c0,0,-1,0,-1,0c0,0,-1,0,-1,0l-1,0l2,0c0,-1,1,-1,1,-1l-1,-1c-1,0,-1,0,-2,1c0,-1,0,-1,0,-1ZM244.5,494.5l0,1l1,0l0,-1l-1,0ZM241.5,487.5l4,-2l0,1l-4,2ZM236.5,488.5l-1,-1l-1,1l-2,-1l1,-1l2,1l0,-1l2,1ZM237.5,492.5l-1,0l-1,1c-1,0,-1,0,-1,1l1,0l1,0c0,0,0,-1,0,-1l1,0ZM232.5,504.5l5,-3c0,0,0,1,0,1c0,0,-1,0,-1,0l-4,3ZM234.5,500.5l5,-2c-1,1,-1,1,-1,1l-5,3ZM287.5,497.5c-1,0,-1,0,-1,0l-1,0l0,-1l-1,0l-1,0c0,0,0,1,0,1l-1,0l-1,0l-2,0c0,1,0,1,0,1l0,1c0,1,0,1,0,2c0,0,-1,1,-1,1c-1,1,-2,1,-2,2c-1,0,-2,0,-3,0c0,0,-1,0,-1,0c-1,0,-2,-1,-2,-1c0,0,-1,-1,-1,-1c0,-1,0,-1,0,-2l0,-1c0,0,0,-1,0,-1c0,-1,0,-1,1,-1l0,-1l1,1c-1,0,-1,0,-1,0c0,1,0,1,0,1c0,0,0,1,0,1c0,0,0,1,0,1l0,1l1,0c0,0,0,1,0,1c1,0,2,0,3,0c1,0,1,0,2,0c1,0,2,-1,2,-1c0,0,0,-1,0,-1c0,0,0,-1,0,-1c0,-1,0,-1,0,-1l0,-1l-1,-1l1,-2c0,1,0,1,1,1l1,0l1,0l1,0c0,0,1,0,1,0l1,-1c0,-1,0,-1,1,-2l1,0l1,0c0,1,0,1,0,2l0,1c0,0,0,1,0,1l0,1ZM285.5,494.5l0,1l1,0l0,-1l-1,0ZM286.5,500.5l-5,2c1,0,1,-1,1,-1l4,-2ZM274.5,495.5l-1,-1l1,-2l1,1ZM330.5,497.5c0,0,-1,0,-1,0c-1,0,-1,-1,-1,-2c0,1,0,1,-1,2l-1,0c-1,0,-1,0,-1,0c-1,0,-1,0,-1,0c0,-1,-1,-1,-1,-1l-1,1c0,0,-1,0,-1,0l-1,0l-1,0c-1,0,-1,0,-2,0c0,-1,0,-2,0,-2l-1,-9l1,-2l0,10l1,0l0,1c0,0,1,0,1,0l1,0l1,0l1,0c1,0,1,0,1,-1l1,0l0,1c1,0,1,0,2,0c1,0,1,0,2,0c0,-1,0,-1,0,-1l0,-1c0,-1,0,-1,0,-1l-1,-7l1,-2l1,11l0,1l1,0c1,0,1,0,1,0c1,0,1,0,1,0c1,0,1,0,1,0c0,0,0,-1,0,-1l0,-2l0,-6c-1,0,-1,0,-1,0c0,-1,0,-1,0,-1c0,0,0,-1,1,-1l0,-1c0,0,0,1,0,1c1,1,1,1,1,1c0,0,0,1,0,1l0,1c0,0,0,1,0,2c0,0,0,1,0,2c0,1,0,1,0,2l0,1l0,1l0,1c-1,0,-1,0,-1,0c0,1,0,1,-1,1l-1,0l-1,0ZM335.5,500.5l-4,2c0,0,0,-1,0,-1l5,-2ZM322.5,493.5l-1,-1l1,-2l1,1ZM322.5,483.5l0,1c1,0,1,0,1,0c0,0,0,-1,0,-1l0,-1l1,0l0,1c1,0,1,0,1,-1l0,-1l0,1l0,1l0,1l-1,0l-1,0c0,1,0,1,-1,1l0,-1l0,-1ZM326.5,480.5l-6,3c1,-1,1,-2,1,-2l6,-2ZM298.5,504.5l-1,0c0,-1,0,-1,-1,-1l0,-1c-1,0,-1,0,-1,0l0,-1l0,-1l0,-1l0,-1c0,0,1,0,1,0l0,-1l0,-1l1,1c0,0,-1,0,-1,0c0,1,0,1,0,1l0,1l0,1l0,1c0,0,1,0,1,0l0,1l1,0l1,0c0,0,1,0,1,0c1,0,1,0,1,0c1,0,1,0,2,0c0,0,0,-1,1,-1l1,-1c0,0,0,-1,0,-1c0,-1,0,-1,0,-2l-1,0c0,-1,0,-1,0,-1l1,-2l0,1l1,0l1,0c0,0,1,0,1,0l1,0c0,0,0,-1,0,-1l1,0l0,-1l0,1l0,1c0,0,1,0,1,0l1,0l0,-1l0,-1l1,0l0,1l0,1c0,0,0,1,0,1c0,0,0,1,-1,1c-1,0,-1,0,-1,0c-1,0,-1,0,-1,0l0,-1l-1,0l0,1c-1,0,-1,0,-1,0l-1,0l-1,0l0,1l0,1l0,1l-1,1l0,1c0,0,-1,0,-1,0c0,1,-1,1,-1,1c0,0,-1,1,-1,1c0,0,-1,0,-1,0l-1,0l-1,0c0,0,-1,0,-1,0ZM305.5,505.5l-4,2l0,-1l4,-2ZM359.5,497.5l0,-1l0,-1l0,-9l1,-2l0,11c0,1,0,1,0,1c0,1,-1,1,-1,1ZM355.5,497.5c-1,0,-1,0,-1,0c0,0,-1,0,-1,-1c-1,0,-1,-1,-1,-1c0,0,0,1,-1,1c0,1,-1,1,-2,1c0,0,-1,0,-1,0c-1,-1,-1,-2,-1,-3l0,1c0,0,-1,1,-1,1c0,0,-1,0,-2,0c0,0,-1,0,-1,0l0,-1c0,0,0,-1,0,-1c0,-1,0,-1,1,-1c0,0,1,-1,1,-1l1,-1l1,0l0,-1c0,-1,0,-1,0,-1l1,1l0,1l0,3c0,0,0,1,0,1c1,0,1,0,2,0l1,0c0,0,0,-1,0,-1c0,-1,0,-2,0,-3c0,0,0,-1,0,-1c0,0,0,-1,0,-1l0,-1l1,-1l0,2l0,2l0,2c1,1,1,1,1,1c0,0,0,1,1,1l1,0c0,-1,0,-1,0,-1c0,0,0,-1,0,-1l0,-2l0,-1l-1,-1c0,0,0,-1,1,-1l0,-1c0,1,0,1,0,1c0,1,0,1,0,2l1,2c0,0,0,1,0,1c0,1,0,2,0,2c0,1,-1,1,-1,1c0,0,0,1,0,1ZM347.5,492.5l-1,0c0,0,0,1,0,1c-1,0,-1,0,-1,0c0,0,-1,1,-1,1c1,0,2,0,2,0c0,0,1,0,1,-1ZM402.5,500.5l-2,-1l0,2l-2,-1l1,-2l1,1l1,-1l2,1ZM399.5,497.5l-1,0l-1,0l-1,0c-1,0,-2,0,-2,0c0,0,-1,0,-1,-1c-1,1,-1,1,-2,1c0,0,-1,0,-2,0l-2,0l-1,0l-1,-1l-1,0c0,1,-1,1,-1,1c0,0,-1,0,-1,0l-3,0l-1,0c0,0,-1,0,-1,0c-1,0,-1,0,-1,-1c0,-1,0,-1,0,-1l0,-1c-1,0,-1,0,-1,0c-1,0,-1,0,-2,1c0,0,-1,0,-1,0l-1,1c0,0,0,1,0,1c-1,0,-1,1,-1,2c0,0,-1,0,-1,0c0,1,0,1,0,2l0,1c1,0,1,1,1,1l0,1c1,0,1,0,1,0c0,0,1,0,1,1l1,0c0,0,1,0,1,0c0,1,1,1,2,1l1,0l1,0c0,0,1,0,1,0l1,0l1,-1l1,0l0,1l-5,1l-1,0c-2,0,-2,0,-3,0c-1,0,-1,0,-1,0c0,0,-1,0,-1,-1c0,0,-1,0,-1,0l0,-1c0,0,-1,0,-1,0c0,0,0,-1,0,-1c-1,-1,-1,-2,-1,-2c0,-1,0,-2,1,-3c0,0,0,-1,1,-2c0,-1,0,-1,1,-2c1,0,1,-1,2,-1l-1,0l-1,-1l-1,0l0,1l-1,0l0,-1c0,0,1,-1,1,-1c1,0,1,0,1,0c0,0,1,0,1,0l1,0l2,0c0,0,1,0,2,0l1,0l1,0l1,0l-1,2l-1,0l-1,0c0,0,0,1,0,1l1,0l1,0l1,0l2,0c0,0,1,0,1,0c0,0,1,0,1,0l1,0c0,-1,0,-1,0,-1c1,0,1,0,1,0l0,1c1,0,1,0,1,0l2,0l0,1c1,0,1,-1,1,-1c0,0,1,0,1,0l0,-1c0,0,0,-1,0,-2c1,0,1,0,1,-1l1,0c0,-1,1,-1,1,-1c1,0,1,0,1,1c1,0,1,0,1,1l0,1l0,1c0,0,-1,0,-1,0c0,1,0,1,0,1l1,0l0,1l1,0l1,0l0,-1l1,0c0,0,1,0,1,0c1,0,1,0,1,0c0,0,1,0,1,0c0,-1,0,-1,0,-1c0,0,-1,0,-1,0c0,-1,0,-1,0,-1l1,-2c0,1,0,1,0,1l0,1l0,1c0,1,0,1,0,1l0,1c-1,0,-1,1,-2,1c0,0,-1,0,-1,0ZM399.5,484.5l4,-2l0,1l-5,2ZM393.5,489.5l-1,-1l1,-1l1,1ZM394.5,492.5c-1,0,-1,0,-1,0c-1,0,-1,1,-1,1l0,1c0,0,1,0,1,0c1,0,1,0,1,0c0,0,1,0,1,-1l0,-1c-1,0,-1,0,-1,0ZM389.5,479.5l1,0c0,0,1,0,1,0c1,0,1,0,2,0c0,1,0,1,0,1l0,1c-1,0,-1,0,-1,0c-1,0,-1,0,-1,0c0,1,-1,1,-1,1c0,0,-1,0,-1,0l2,-1c0,0,1,-1,1,-1c-1,0,-1,0,-1,0c-1,0,-1,0,-2,0c0,-1,0,-1,0,-1ZM386.5,492.5l-2,-1l0,1l-2,-1l1,-1l1,1l1,-1l2,0ZM383.5,484.5l4,-2l0,1l-1,0l-4,2ZM421.5,497.5l-1,0l0,-1c0,0,-1,0,-1,0l-1,0c0,0,-1,1,-1,1l-1,0l-1,0l-1,0c-1,0,-1,0,-2,0c0,-1,0,-2,0,-2l-1,-9l1,-2l0,10l1,0l0,1c0,0,1,0,1,0l1,0l1,0c1,0,1,0,1,0l1,0l0,-1c1,-1,1,-1,1,-2l1,0c1,0,1,0,1,0c1,1,1,1,1,2l0,1c0,0,0,1,0,1l-1,1ZM419.5,494.5l1,1l1,0l0,-1c0,0,-1,0,-1,0c0,0,-1,0,-1,0ZM421.5,480.5l-5,3c0,-1,0,-2,0,-2l6,-2ZM273.5,486.5l1,0c0,-1,1,-1,1,-1c1,0,1,0,2,1c0,1,0,1,0,1c-1,1,-1,1,-1,1c-1,0,-1,0,-1,0c0,0,-1,0,-1,0c0,0,-1,0,-1,0l2,0c0,0,1,-1,1,-1c-1,0,-1,0,-1,0c-1,0,-1,0,-2,0l0,-1ZM343.5,484.5c0,0,1,-1,1,-1l1,0l0,1l0,1l0,1l1,0l-1,1l-1,-1l0,1c-1,1,-1,1,-1,1l-1,0l-1,0l1,0l0,-1c1,0,1,0,1,0l0,-1l1,0l-1,0c0,-1,0,-1,0,-1c0,-1,0,-1,0,-1ZM344.5,484.5l0,1l1,0l0,-1c0,0,-1,0,-1,0ZM350.5,481.5l0,-1l0,-1c0,0,0,-1,0,-1l0,-1c0,0,1,1,1,1c0,0,0,1,0,1c0,1,0,1,0,1c0,0,0,1,-1,1Z" class="g1_31" />
</svg>