<?xml version="1.0" encoding="UTF-8" standalone="no"?>
<!DOCTYPE svg PUBLIC "-//W3C//DTD SVG 1.1//EN"
"http://www.w3.org/Graphics/SVG/1.1/DTD/svg11.dtd">
<svg version="1.1" xmlns="http://www.w3.org/2000/svg" xmlns:xlink="http://www.w3.org/1999/xlink">
<defs>
<style type="text/css"><![CDATA[
.g2_62{
fill: #1F1A17;
stroke: #1F1A17;
stroke-width: 1;
stroke-linecap: butt;
stroke-linejoin: miter;
}
.g1_62{
stroke: #1F1A17;
stroke-width: 1;
stroke-linecap: butt;
stroke-linejoin: miter;
}
]]></style>
</defs>
<path fill-rule="evenodd" d="M222.5,331.5l0,1l1,0l0,-1l0,-1l1,0l0,1c1,0,1,0,1,-1l0,-1l0,1c0,0,1,0,1,0l0,1l-1,0l0,1c0,0,0,1,0,1l-1,0l-1,0l0,-1l0,1c0,1,-1,1,-1,1c0,0,-1,0,-1,-1l0,-1l0,-1ZM329.5,283.5c0,-1,0,-1,1,-1c0,0,1,0,1,0c1,0,1,0,1,0c1,0,1,1,1,1c0,1,0,1,-1,1c0,0,0,1,0,1c0,0,-1,0,-1,0c0,0,-1,0,-1,0l-1,0l2,-1c0,0,1,0,1,0c0,-1,0,-1,-1,-1c-1,0,-1,0,-2,0c0,0,0,1,0,1l0,-1ZM186.5,284.5l1,0c0,0,1,0,1,0c1,0,1,0,1,0c1,0,1,0,1,0l0,1l-1,1l-1,0c0,0,-1,0,-1,0l-1,0l2,0c0,0,1,-1,1,-1l-1,0c-1,0,-1,0,-2,0l0,-1ZM212.5,284.5l-1,-1l0,-1c0,-1,0,-1,0,-2c0,0,0,-1,1,-1l1,-1l1,0l-1,1l-1,1l0,1c0,1,0,1,0,1c0,0,0,1,0,0l1,0l0,1l1,0c0,1,0,1,-1,1l-1,0ZM136.5,297.5l0,-1l0,-1l-1,-8l1,-3l1,11l-1,1c0,1,0,1,0,1ZM128.5,296.5c0,0,1,0,1,0l1,0c0,-1,0,-1,0,-1c0,0,1,0,1,-1l-1,-2l0,-6l0,-1l0,-1l1,0c0,0,0,1,0,1l1,0c0,1,0,1,-1,1c0,1,0,1,0,1c0,0,0,1,0,2c0,0,0,1,0,3l0,1l0,1c0,0,0,1,0,1c0,0,0,1,0,1c0,0,-1,1,-1,1c0,0,-1,0,-1,0l-1,0l-11,0l-1,1l0,1l0,1l-1,-1l0,-1l1,0c-1,-1,-1,-1,-1,-1l-1,0l0,-1l0,-1c0,0,0,-1,0,-1l-1,1c-1,0,-1,1,-1,1c-1,0,-1,0,-1,0l-1,1l0,1l0,1c0,0,0,1,-1,1l0,1l-1,0l0,1l-1,0l-1,0l-1,0l-1,0c-1,0,-1,0,-1,-1l1,0c0,0,1,0,1,0l1,0c1,0,1,-1,1,-1l1,-1l1,-1c0,0,0,-1,1,-1l0,-1l-1,0l1,-2l1,0c1,0,1,0,1,0c0,0,0,-1,1,-1c1,0,1,-1,1,-1c0,0,0,1,0,1l0,1c1,0,1,1,1,1c0,1,1,1,1,1l1,-1c0,0,1,0,1,0c0,-1,0,-1,0,-1l2,-1c0,0,1,-1,1,-1c1,0,1,0,2,0l1,0c0,0,1,0,1,0c1,0,1,1,1,1l0,1l0,1l-1,1l2,0l1,0ZM119.5,289.5l-1,2l-1,-1l1,-2ZM125.5,295.5c0,0,0,-1,0,-1c0,0,-1,0,-1,0c0,-1,-1,-1,-1,-1c0,0,-1,0,-1,0c0,1,-1,1,-1,1c-1,0,-1,0,-1,0l-1,1l-2,1l2,0c1,0,2,0,3,0c1,0,1,0,1,-1c1,0,1,0,2,0ZM106.5,284.5l0,1l1,0c0,0,0,-1,0,-1l0,-1l1,0l0,1c1,0,1,0,1,-1l0,-1l0,1l0,1c0,1,0,1,0,1l-1,0l-1,0c0,1,0,1,-1,1c0,0,0,-1,0,-1l0,-1ZM107.5,279.5c1,-1,1,-1,1,-1c0,-1,1,-1,1,-1c1,1,1,1,1,1c0,1,0,1,0,1l-1,0l0,1l1,0l-1,1l-1,1c-1,0,-1,1,-1,1c-1,0,-1,0,-1,0c-1,0,-1,0,-1,0c1,-1,2,-1,3,-2l-1,-1l0,-1ZM109.5,279.5l-1,0l0,1l1,0l0,-1ZM115.5,284.5l0,1c0,0,1,0,1,0c0,0,0,-1,0,-1l0,-1l1,0l0,1l1,-1l0,-1l0,1l0,1c0,1,0,1,-1,1l-1,0c0,1,-1,1,-1,1c-1,0,-1,-1,-1,-1l0,-1l1,0ZM116.5,279.5c0,-1,0,-1,1,-1c0,-1,0,-1,1,-1c0,1,0,1,0,1c0,1,0,1,0,1l0,1l0,1l-1,0l0,1c-1,0,-1,1,-2,1l-1,0c1,-1,2,-1,3,-2l-1,0l0,-1l0,-1ZM117.5,279.5l0,1l0,-1ZM176.5,293.5c0,1,0,1,0,1l-1,-1c0,0,-1,0,-1,0l-1,-1l0,1l-1,1l-1,0l-1,0l-1,0l0,-1l-1,0c0,-1,0,-1,0,-1c0,1,0,1,-1,1c0,0,-1,1,-1,1c-1,0,-1,-1,-2,-2l0,1c0,1,-1,1,-1,1l-1,0c0,0,-1,-1,-1,-2c0,1,-1,1,-1,1c0,1,-1,1,-2,1c-1,0,-1,0,-1,0c-1,0,-1,0,-1,0c-1,-1,-1,-1,-1,-1c0,0,0,-1,0,-1c-1,0,-1,0,-2,1c0,0,-1,0,-1,1c0,0,0,1,1,1l1,0c1,0,1,0,1,0c0,0,1,0,1,1l0,1l-1,1c-1,1,-2,1,-3,2c-1,0,-2,0,-4,0c-1,0,-1,0,-2,0c-1,0,-1,0,-2,-1c0,0,0,-1,0,-1c-1,-1,-1,-1,-1,-2c0,-1,0,-1,1,-2c0,0,0,-1,1,-2c0,1,0,1,0,2c-1,0,-1,1,-1,1c0,1,0,1,0,1c0,0,1,1,1,2c1,0,2,0,3,0l1,0c1,0,1,0,1,0c0,0,1,0,1,0c0,0,1,0,1,0l1,0c1,0,1,-1,1,-1c0,0,1,0,1,0c-1,0,-1,0,-2,0c-1,-1,-2,-1,-2,-1l0,-1l0,-1l0,-1c1,-1,1,-1,2,-2c1,0,1,0,2,0c0,0,1,0,1,0l0,1l1,0l1,0l1,0l1,0c0,0,1,-1,1,-2l0,1l1,0c0,1,0,1,0,1c1,0,1,0,2,0c0,0,0,-1,1,-1l0,-1c0,1,0,1,1,1c0,1,0,1,1,1c0,-1,1,-1,1,-1l0,-1c1,2,2,2,2,2l1,0l1,0l1,0l1,-1c0,-1,0,-1,0,-2l1,0l1,0c1,1,1,1,1,1l0,1l0,1l0,1l-1,0ZM174.5,291.5l1,0l1,1c0,0,0,-1,0,-1c0,-1,-1,-1,-1,-1l-1,1ZM172.5,281.5l4,-2l-1,1l-4,2ZM163.5,284.5l0,1c0,0,1,0,1,0l0,-1l1,-1l0,1c1,0,1,0,1,0l0,-1c0,1,0,1,0,1l0,1l0,1l-1,0c0,0,0,-1,0,-1l0,1l-1,0c-1,0,-1,0,-1,0l0,-1l0,-1ZM167.5,281.5l-5,3c0,-1,0,-1,0,-1l6,-3ZM154.5,289.5l-1,-1l1,-1l1,0m-1,2l-1,-1l1,-1l1,0m-1,2l-1,-1l1,-1l1,0ZM157.5,302.5l-4,2c0,-1,0,-1,0,-1l4,-2ZM146.5,284.5l4,-2l0,1l-4,2ZM201.5,294.5l0,-1l0,-1l-1,-9l1,-2l1,11c0,0,0,1,-1,1c0,0,0,1,0,1ZM200.5,277.5l4,-2l0,1l-1,0l-4,2ZM195.5,287.5l-1,-1l0,-1l2,1ZM193.5,294.5c0,0,1,-1,1,-1c0,0,1,0,1,0c1,0,1,0,1,0c0,0,0,-1,0,-1l0,-1c0,0,0,-1,-1,-1c0,0,1,0,1,0c0,-1,0,-1,0,-1c1,0,1,0,1,1c0,0,0,1,0,1l0,1l0,1l0,1c-1,0,-1,0,-1,0c0,0,1,0,1,0c0,1,0,1,0,1c1,0,1,0,1,0c0,1,-1,1,-1,1c0,1,0,1,0,1c-1,1,-1,1,-2,1c0,1,-1,1,-2,1c-1,1,-2,1,-3,1c0,0,-1,0,-2,0c0,-1,-1,-1,-1,-1c-1,-1,-1,-1,-1,-1c0,-1,0,-1,0,-2c0,-1,0,-1,0,-2c0,-1,1,-1,1,-2c0,0,1,0,1,0c-1,1,-1,1,-1,2c0,0,0,1,0,1l0,1c0,0,0,1,1,1c0,1,1,1,2,1c1,0,1,0,1,0c0,0,1,0,1,0c1,0,1,0,1,0c1,-1,2,-1,2,-1c1,0,1,-1,1,-1c0,0,-1,0,-1,0c-1,-1,-1,-1,-2,-1l0,-1ZM194.5,279.5l0,1c0,1,0,1,0,1l0,-1c0,0,1,0,1,0l0,-1l0,1c1,0,1,0,1,0l0,-1l0,-1l1,0l0,1l0,1c0,1,-1,1,-1,1l-1,0c-1,1,-1,1,-1,1c0,0,-1,0,-1,0c0,-1,0,-1,0,-1l0,-1ZM197.5,300.5l-4,2c1,-1,1,-1,1,-1l4,-2ZM222.5,297.5l1,0l1,0c1,0,2,0,3,-1c0,0,1,0,1,-1c0,0,1,-1,1,-1c0,0,1,-1,1,-1c0,0,0,-1,0,-1l-1,-1l0,-1l0,-1l0,-1l1,1c0,0,0,1,0,1l0,1l0,1c0,1,0,1,0,2c0,1,0,1,0,1c0,0,-1,1,-1,1c0,0,0,1,-1,1l-1,1l-1,0l-1,0l-1,0c-1,0,-1,0,-1,-1ZM225.5,284.5l4,-2l0,1l-4,2ZM221.5,298.5l-1,-1l1,-2l1,1ZM219.5,294.5l-1,0c-1,0,-1,0,-1,0c-1,0,-1,0,-1,-1c0,0,-1,0,-1,-1c0,0,0,-1,0,-1l0,1c-1,0,-1,0,-1,0l-1,0c-1,0,-1,0,-2,0l0,-1c0,-1,0,-1,1,-2c0,0,1,0,2,-1l0,-1l1,-1l0,1l0,1c0,0,1,1,1,1l0,2l0,1c1,0,1,0,1,0c0,0,1,0,1,0l1,0c1,0,1,0,2,0l1,0c0,0,0,-1,0,-1l-1,-1l0,-1l1,-1l0,1l0,1l1,1l-1,0c0,0,0,1,0,1c0,0,0,1,0,1c0,0,-1,1,-2,1l-1,0ZM219.5,282.5l0,1l1,0l0,-1l0,-1l0,1l1,0l1,0l0,-1l0,1l0,1l-1,0l-1,0l0,1c0,0,-1,0,-1,0c-1,0,-1,-1,-1,-1l0,-1l1,0ZM223.5,279.5l-5,3c0,-1,0,-2,0,-2l5,-2ZM215.5,289.5l-1,0l-1,0l0,1c0,0,-1,0,-1,0l1,0l1,0l1,0ZM217.5,275.5c-1,1,-3,1,-4,1l-1,0l-1,0l0,-1c-1,1,-1,1,-2,1l1,-1l1,-1c1,1,2,1,3,1l1,0l1,0l1,0l0,-1ZM270.5,287.5l-1,-1l1,-1l1,1ZM270.5,294.5l-1,0l-2,0c0,0,-1,0,-1,-1c-1,0,-1,-1,-1,-2l-1,-8l1,-2l1,9l0,1l0,1c0,0,1,0,1,0l2,0l1,0c0,0,1,0,1,0c1,0,1,0,1,0c0,-1,1,-1,1,-1l-1,0l0,-1l0,-1l0,-1c0,0,1,0,1,0l0,1c0,0,0,1,0,1c0,0,0,1,0,1c0,0,0,1,0,1c0,0,0,1,0,1c-1,0,-1,1,-2,1c0,0,-1,0,-1,0ZM270.5,281.5l4,-2l-1,1l-4,2ZM262.5,293.5l-1,0l-1,0c0,1,-1,1,-1,1l-1,0l-1,0l-1,0c0,0,-1,0,-1,0l0,-1l0,-1l1,0l1,0c0,0,1,0,1,0c1,0,1,0,1,0c1,0,1,0,1,0c1,-1,1,-1,1,-1c0,0,0,-1,0,-1c0,0,-1,-1,-1,-1l0,-1l-1,0l-1,0l0,-1l-1,0l1,-2l1,1l1,0l0,1l1,0c0,0,0,1,0,1c1,1,1,1,1,2c0,1,0,1,0,1c0,0,0,1,0,1l0,1ZM253.5,288.5c-1,0,-1,-1,-1,-1c0,0,-1,0,-1,0l-1,0c0,0,-1,1,-2,1c0,1,-1,2,-1,2c0,0,1,1,1,1c1,0,1,0,1,0l1,1c1,0,2,0,2,0l0,1l0,1l-1,0c0,1,0,1,-1,1c0,1,-1,1,-1,1c-1,1,-2,1,-3,1c0,0,-1,0,-2,0c-1,0,-2,0,-2,0c-1,0,-1,0,-2,-1c0,0,-1,0,-1,-1c0,0,0,-1,0,-1c0,0,0,-1,0,-1c0,0,0,-1,0,-2c0,0,1,-1,1,-1c0,-1,0,-1,0,-1l1,-1l0,1c0,1,0,1,0,1c-1,0,-1,1,-1,1c0,1,0,1,0,1c0,0,0,1,0,1l0,1l1,1c1,0,2,1,3,1c1,0,2,-1,3,-1l2,0l0,-1c1,0,1,0,1,0c0,0,1,0,1,-1l-2,0c-1,0,-1,0,-2,-1c-1,0,-1,0,-1,-1l0,-1c0,0,1,0,1,-1c0,0,0,-1,1,-1l0,-1c0,0,1,0,1,-1c0,0,1,0,1,0c1,-1,1,-1,2,-1l1,0c0,0,0,1,0,1c0,0,0,1,0,1l0,1ZM259.5,280.5c0,1,0,2,-1,2l0,-1c0,-1,0,-1,0,-1l0,-1l0,-1l0,-1l1,1l0,1l0,1ZM291.5,294.5l0,-1l1,-1l-1,-9l1,-2l0,11c0,0,0,1,0,1c0,0,0,1,-1,1ZM295.5,297.5l-4,2c0,-1,0,-1,0,-1l4,-2ZM284.5,283.5l-1,-1l1,-1l1,1ZM288.5,293.5l-1,0c-1,1,-1,1,-2,1l-1,0l-1,0l-1,0l0,-1l0,-1c0,0,1,0,1,0c1,0,1,0,2,0c0,0,1,0,1,0c0,0,1,0,1,0c0,-1,1,-1,1,-1c0,0,0,-1,0,-1c-1,0,-1,-1,-1,-1l-1,0l0,-1l-1,0l-1,-1l1,-2l0,1l1,0c0,0,1,0,1,1c0,0,1,1,1,1c0,1,0,1,0,2c0,0,1,0,1,0c0,1,0,1,0,1c0,0,0,1,-1,1l0,1ZM281.5,276.5c0,0,1,0,1,0c1,-1,1,-1,1,-1c1,0,1,1,2,1l0,1c0,1,-1,1,-1,1l-1,0l-1,0l-1,0l2,0c1,0,1,-1,2,-1c-1,0,-1,0,-1,0c0,0,-1,0,-1,0c0,0,-1,0,-1,0c0,0,-1,0,-1,0l0,-1ZM350.5,290.5c-1,0,-1,0,-1,0l0,1l1,0c0,-1,0,-1,0,-1ZM350.5,298.5c-1,0,-1,0,-1,0l-1,0c0,1,-1,1,-1,1l-1,0c0,0,-1,0,-1,-1c-1,0,-1,0,-1,0l1,0c1,0,1,0,1,0c0,0,1,0,1,0l0,-1c1,0,1,0,1,0c0,0,1,0,1,-1c1,0,1,0,1,-1l1,-1c0,0,0,-1,0,-1c0,0,0,-1,0,-1l0,1c-1,0,-1,0,-1,0l-1,0c0,0,-1,0,-1,0c0,-1,0,-1,0,-1c0,-1,0,-1,0,-1c0,0,0,-1,0,-1c0,0,0,-1,1,-1c0,0,0,-1,0,-1c0,0,1,0,1,0l1,0c0,0,0,1,0,1l1,1l0,1c0,0,0,1,0,1c0,0,0,1,0,1c0,1,-1,2,-1,3l-1,1l0,1ZM347.5,284.5l4,-2l0,1c0,0,-1,0,-1,0l-4,2ZM343.5,294.5l0,-1l0,-1l-1,-9l1,-2l1,11c0,0,0,1,-1,1c0,0,0,1,0,1ZM342.5,275.5l4,-3l0,1l0,1l-5,2ZM339.5,297.5l-1,-1l-1,1l-2,0l1,-2l2,1l0,-1l2,1ZM336.5,294.5l-1,0l-1,0c0,0,0,1,0,1c0,0,-1,1,-1,1c0,1,0,1,-1,1c0,1,0,1,-1,1c0,1,0,1,0,1c0,0,-1,0,-1,0l-1,0l-1,0c0,0,-1,0,-1,0c-1,0,-1,0,-1,0c0,-1,0,-1,0,-1l1,0l0,1c1,0,1,-1,2,-1l1,0c0,-1,1,-1,1,-1c0,0,0,-1,1,-1l0,-1l1,0c0,0,0,-1,0,-1l-1,0c0,0,-1,0,-1,0c-1,-1,-1,-1,-1,-1c0,-1,0,-1,0,-1l0,-1c0,0,0,-1,1,-1c0,-1,0,-1,1,-1c0,0,1,0,1,0c0,0,0,1,0,1l1,1c0,1,0,1,0,1c0,0,1,0,1,0l1,0c1,0,1,0,2,0l1,0c0,-1,0,-1,0,-1l-1,-1l0,-1l1,-1l0,1c0,0,0,1,0,1c0,0,0,1,0,1c0,0,0,1,0,1c0,0,0,1,0,1c0,0,-1,1,-2,1l-1,0ZM337.5,283.5c0,1,0,1,0,1c0,0,1,0,1,0c0,-1,0,-1,0,-1l0,-1l1,0l0,1c0,0,1,0,1,-1l0,-1l0,1l0,1c0,1,0,1,-1,1l-1,0c0,1,-1,1,-1,1c0,-1,-1,-1,-1,-1l0,-1l1,0ZM338.5,277.5c0,0,1,0,1,0c0,-1,0,-1,1,-1c0,1,0,1,0,1c0,0,0,1,0,1c0,1,0,1,0,1l0,1l-1,0l0,1c-1,0,-1,0,-1,1c-1,0,-1,0,-2,0c1,-1,2,-2,3,-2l-1,-1l0,-1ZM339.5,278.5l0,-1c0,0,0,1,0,1l0,1l0,-1ZM332.5,291.5l-1,0c0,0,0,1,0,1l1,0c0,0,1,0,1,0c0,0,0,-1,-1,-1ZM313.5,298.5l-1,-1l0,-1l2,1ZM325.5,292.5c0,1,-1,1,-1,1c-1,0,-2,1,-2,1c-2,0,-3,0,-4,0c-1,0,-2,0,-2,0c-1,0,-1,0,-2,0c0,0,-1,1,-1,1c0,0,-1,0,-2,-1c0,0,-1,0,-2,0c-1,0,-1,0,-2,0c0,0,-1,0,-2,0c0,0,-1,0,-2,-1c0,0,-1,0,-1,0c-1,-1,-1,-1,-2,-1c0,-1,0,-1,0,-1c1,0,1,0,2,1c0,0,1,0,1,0c1,0,2,0,2,0c1,0,2,1,2,1c1,0,2,0,2,0c1,0,1,0,2,0c1,0,2,0,2,0c1,0,2,0,2,0c2,0,3,0,3,0c0,0,1,0,1,0c0,0,1,-1,1,-1c1,0,1,0,2,0c0,0,1,0,1,0c0,0,1,0,1,-1c1,0,1,0,1,0l1,0c0,-1,0,-1,0,-1c-1,0,-1,0,-1,0c0,-1,0,-1,0,-1l0,-2c1,0,1,1,1,1c0,0,0,1,0,1l0,1l0,1c0,0,0,1,0,1c0,0,-1,0,-1,0ZM308.5,284.5l1,0l2,-1l6,-2l4,-1l1,0l0,-1l-1,2l-1,0l-1,1l-2,0l-5,2l-4,2l-1,0ZM300.5,325.5c0,0,1,0,1,0c1,0,1,0,2,0c0,0,1,0,1,0c0,0,1,0,1,0c0,1,0,1,-1,1l0,1c0,0,-1,0,-1,0l-1,0c0,1,0,1,-1,1l-1,0l2,-1c1,0,1,-1,2,-1c-1,0,-1,0,-1,0c0,0,-1,0,-1,0c0,0,-1,0,-1,0c0,0,-1,0,-1,0c0,-1,0,-1,0,-1ZM194.5,326.5c1,0,1,0,1,0c1,-1,1,-1,2,-1c0,0,1,0,1,1c0,0,1,0,1,0c-1,1,-1,1,-1,1c0,1,0,1,-1,1c-1,0,-1,0,-1,0l-1,0l1,0c1,0,1,-1,2,-1c0,0,-1,0,-1,0l-1,0c0,0,-1,0,-1,0l-1,0c0,0,0,-1,0,-1ZM159.5,338.5c0,1,0,1,0,2l-1,1c0,0,0,1,0,1l1,0l0,1l-1,0l-1,1l-1,0l0,1l-1,0l-1,0l0,1l-1,0c-1,0,-1,0,-1,0l0,1l-1,0l0,1l-1,0l-3,0l-4,0c0,0,-1,0,-1,0l-1,-1c0,-1,0,-1,0,-1c-1,0,-2,0,-3,-1l-1,0l0,-1l-1,0l-1,-1l-1,0l0,-1l1,0l0,-1l-1,0l0,-1l0,-1l0,-1l0,-1l0,-1l1,-1l0,-1l-1,-1l1,0l0,-1l1,0l1,-1l1,0l1,-1l2,0c0,0,0,-1,0,-1l1,-1c0,0,1,0,1,-1l4,0l3,0l1,0l0,1l0,1l1,0l1,1l1,0l1,0l0,1c1,0,1,0,1,0l1,0l0,1c1,0,2,1,2,1l-1,1l0,1l1,0l0,1l0,1ZM150.5,348.5l1,-1l0,-1l1,0c1,0,1,0,2,-1l1,0c0,0,1,0,1,-1l1,0c0,0,0,-1,0,-1l1,0l0,-1l-1,0l1,0l0,-1l0,-1l1,0l0,-1l0,-1c0,-1,0,-2,0,-2c0,0,-1,-1,-1,-1c0,0,0,-1,0,-1l-1,0l1,-1l-1,-1l-1,-1l-1,0l-1,-1l-2,0c0,0,0,-1,0,-1l-1,-1l-1,0l-3,0l-4,0l-1,0l-1,1c0,0,0,1,0,1l-2,0l-1,1l-1,0l0,1l-1,0c0,0,-1,1,-1,1l1,1l-1,0l0,1l0,1l-1,0l0,1l0,1l0,1l0,1l1,0l0,1l1,1l-1,0l0,1l1,0l0,1l1,0l1,1l1,0l2,1l1,0l0,1c1,1,1,1,1,1l4,0ZM156.5,333.5l-1,0l-1,0l0,-1l-1,0c0,0,-1,0,-1,0c1,0,1,0,1,-1l-1,0c1,0,1,0,1,0l1,0c0,0,0,1,0,1c0,0,1,0,1,0l1,1ZM156.5,343.5l-1,0l0,1l-1,0l-1,1l0,-1l-1,0c1,0,1,0,1,0l1,0l0,-1c1,0,1,0,1,-1l1,1ZM151.5,345.5l0,1l-1,0l-3,0l-4,0c0,0,-1,0,-1,0c0,0,0,-1,0,-1c0,-1,0,-1,0,-1l1,0l0,-1l4,0l3,0l1,0l0,1l0,1ZM151.5,331.5c0,0,0,1,0,1l-1,0l-3,0l-4,0c0,0,-1,0,-1,0l0,-1c0,0,0,-1,0,-1l1,0l4,0l3,0l1,0l0,1ZM150.5,334.5l0,-1l1,0c0,0,1,0,1,0c0,0,1,0,1,0c0,0,0,1,1,1l0,1l2,-1l0,1l1,1l0,1l0,1l0,1l0,1l-1,0c0,1,0,1,0,1l0,1l-1,-1c0,0,-1,0,-1,1l-1,0l-1,1l-1,0c0,-1,0,-1,-1,-1l-3,0l-4,0l-1,1l-1,0c0,0,-1,0,-1,-1c0,0,-1,0,-1,0l0,-1l-2,1l0,-1l-1,-1l0,-1l0,-1c0,-1,0,-1,0,-1c0,0,0,-1,0,-1l1,0l0,-1c0,-1,0,-1,1,-1l1,1c0,0,0,-1,0,-1l1,0l0,-1c0,0,1,0,1,0c1,0,1,0,1,0l1,0l0,1l4,0ZM151.5,342.5l1,0l1,0l1,0l0,-1l2,0l0,-1l0,-1l1,0l0,-1c0,-1,0,-1,-1,-2c0,0,0,-1,0,-1l-1,-1l-1,1l0,-1l-1,0l0,-1l-1,0c0,0,-1,0,-1,0l0,1l-4,0l-4,0l-1,-1l-1,0c-1,0,-1,0,-1,1l-1,0c0,1,0,1,0,1l-1,-1c0,0,-1,1,-1,1l0,1l-1,1l0,1l1,1l0,1c0,0,0,1,1,1l1,0l0,1l1,0l1,0c1,0,1,0,1,0c0,0,1,0,1,0l4,0l3,0l1,0ZM148.5,338.5l0,1l0,1c0,-1,0,-2,-1,-3l0,-1l1,0l0,1l1,0c0,0,0,-1,0,-1c0,1,1,1,1,1l0,-1l1,0c0,0,-1,1,-1,1c-1,0,-1,0,-1,0c0,0,0,1,-1,1ZM145.5,336.5l0,1l0,1l1,0l0,1l0,1l-1,-1l0,-1c0,0,-1,1,-1,1l0,1l-1,0l0,-1c1,0,1,0,1,-1l0,-1l1,-1ZM137.5,333.5l1,0l0,-1l1,0l0,-1l1,0l1,0c0,1,0,1,0,1c-1,0,-1,0,-1,0c-1,0,-1,0,-1,0l0,1l-1,0l-1,0ZM137.5,343.5l1,0l0,-1c0,1,0,1,1,1l0,1l1,0l1,0c0,0,-1,0,-1,0c0,0,0,1,0,1l1,0l-1,0c-1,-1,-2,-1,-2,-1l0,-1l-1,0ZM235.5,340.5l0,-1l0,-1l-1,-8l1,-3l1,11l0,1c0,0,-1,0,-1,0c0,1,0,1,0,1ZM227.5,339.5c0,0,1,0,1,0c0,0,1,0,1,-1c1,0,1,0,1,-1l0,-2l-1,-6c0,0,0,-1,0,-1l0,-1l1,0c0,0,0,1,0,1l1,0c0,0,0,1,0,1c0,0,-1,1,-1,1c0,0,0,1,0,2c0,0,0,1,0,3l1,1l0,1c0,0,-1,0,-1,1c0,0,0,1,0,1c0,0,0,1,-1,1c0,0,-1,0,-1,0l-1,0l-1,0c0,1,0,1,0,1l0,1c0,0,0,1,-1,1c0,1,0,1,0,1c0,0,-1,1,-1,1c0,0,-1,1,-1,1c0,0,-1,0,-1,0l-1,0c-1,0,-1,0,-2,0c0,0,0,-1,-1,-1c1,0,1,0,1,0l1,0c0,0,1,0,1,0c1,0,1,0,2,-1c1,-1,1,-1,1,-1c0,0,0,-1,1,-1c0,0,0,-1,0,-1c0,-1,1,-1,0,-1c0,-1,0,-1,0,-1c0,0,0,-1,0,-1l0,-1l0,1l1,0c0,1,0,1,0,1ZM206.5,335.5c1,0,1,0,1,0l1,-1l1,0c1,0,1,0,1,0c1,0,1,0,1,0l-1,0l-1,-1l-1,0c0,0,-1,0,-1,0c-1,0,-1,0,-1,0c0,-1,1,-1,1,-1c0,-1,1,-1,2,-1c0,0,1,0,2,1l2,1l0,1l1,0l1,0l1,1l1,0l1,0l-1,2l-2,-1l-1,0l-2,0l-1,-1c-1,0,-2,0,-2,0l-1,0l-1,0l0,1c1,0,1,0,1,1l0,1c0,0,0,1,0,1c0,0,0,1,-1,1l-1,0c0,0,-1,-1,-1,-1l-1,0c0,1,-1,1,-1,1l-1,0l-1,0l-1,0l-1,-1l0,-1l0,-1l0,-1c-1,1,-1,1,-2,2l-1,0l0,1l0,1c0,0,0,1,0,1l-1,0c0,1,0,1,0,1c0,0,-1,1,-1,1c0,0,-1,0,-1,0c-1,0,-1,1,-2,1c-1,0,-2,0,-3,1c-1,0,-2,0,-3,0c0,0,-1,0,-2,0c0,0,-1,0,-1,0l-1,0c0,0,-1,0,-2,0c0,0,-1,0,-1,0c-1,0,-2,0,-3,0c-1,-1,-1,-1,-2,-1c-2,-1,-3,-1,-4,-2c-1,0,-1,-1,-2,-2c0,0,-1,0,-1,0c0,-1,0,-1,0,-1c1,1,1,1,1,1c1,0,1,0,2,1c0,0,1,0,2,1c0,0,1,0,1,0c1,0,1,0,2,1c1,0,1,0,2,0c0,0,1,0,2,0c0,0,1,0,2,0c0,0,1,0,1,0c1,0,2,0,2,0c1,0,2,0,2,0c1,0,2,0,3,0c1,0,2,0,3,-1c0,0,1,0,2,0c2,-1,2,-2,2,-2c0,-1,0,-1,0,-1l0,-1l0,-1c-1,0,-1,0,-1,0l1,-2l0,1l2,0l1,0c0,0,0,-1,0,-1c1,0,1,0,1,-1c0,1,0,1,0,1l0,1c0,1,1,1,1,2c0,0,0,1,1,1l1,0c1,0,1,0,1,0l1,-1l0,-1c1,0,1,-1,1,-1l1,-1ZM213.5,340.5l-4,2c0,-1,1,-1,1,-1l4,-2ZM205.5,338.5l1,0l1,0c0,-1,0,-1,0,-1c0,0,-1,0,-1,0c0,0,-1,0,-1,0c0,0,0,1,0,1ZM206.5,344.5l-4,2c0,-1,1,-1,1,-1l4,-2ZM201.5,343.5l-2,-1l0,2l-2,-1l1,-2l1,1l1,-1l2,1ZM183.5,339.5l-1,-1l1,-2l1,1ZM173.5,331.5l1,0l3,-1l5,-2l5,-2l1,0l-2,1l0,1l-1,0l-1,0l-1,1l-6,2l-4,1ZM278.5,340.5l0,-1l0,-1l-1,-8l1,-3l1,11l0,1l-1,0c0,1,0,1,0,1ZM276.5,324.5l4,-2l0,1l-4,2ZM266.5,344.5c1,-1,1,-1,1,-1c0,0,0,1,0,1l1,0c1,0,2,-1,3,-1c0,0,1,-1,1,-1c0,-1,1,-1,1,-2l1,-1c0,0,0,-1,0,-1l-1,0l0,-1c0,-1,0,-1,-1,-1l1,-1l1,0c0,1,0,1,0,2l0,1l0,1c0,0,0,1,0,1c0,1,0,1,0,1c0,1,-1,1,-1,1c0,1,0,1,-1,1c0,1,0,1,0,1l-1,0c0,0,-1,0,-1,0c0,0,0,1,-1,1l-1,-1c-1,0,-1,0,-1,0ZM268.5,330.5c1,-1,1,-1,1,-1c1,0,1,0,2,0c0,0,1,0,1,0c0,0,1,1,1,1c-1,0,-1,1,-1,1l-1,1l-1,0l-1,0l1,-1c1,0,1,0,2,-1c0,0,-1,0,-1,0c0,0,-1,0,-1,0c0,0,-1,0,-1,0c0,0,0,1,-1,1l0,-1ZM266.5,338.5l-2,0c-1,0,-1,0,-2,0l-1,0l-1,0l0,1l-1,0c-1,0,-1,0,-1,0c-1,1,-1,1,-1,1c-1,0,-2,0,-2,0l-1,0l-3,0c0,0,-1,0,-1,0l0,1l0,1l-1,0c0,0,0,1,0,1c0,0,-1,-1,-1,-1c-1,-1,-1,-1,-1,-2l0,-1c0,0,-1,0,-1,1l-1,0l-1,1l0,1l1,0l0,1l0,2l0,1l0,1c0,1,1,1,1,2c0,0,-1,0,-1,1l0,-1l0,-1l0,-1l-1,-3l0,-1l0,-1l0,-1l0,-1c0,0,1,-1,1,-1l0,-1l1,0l1,-1l1,-1c0,1,1,2,2,2l1,1l2,0l1,0c1,0,1,0,1,0c1,0,1,-1,2,-1c0,0,1,0,1,0l2,-1l-1,0l-1,-1l-1,0l-1,0l-1,0c0,0,0,-1,1,-1c0,0,0,-1,0,-1c1,0,1,0,1,0c0,0,1,0,1,0l1,0l0,1l2,0l1,1c0,0,1,0,1,0c0,0,1,0,1,0c1,0,1,0,1,0l1,0ZM257.5,327.5l4,-2l0,1l-4,2ZM247.5,325.5c0,-1,0,-1,0,-1c0,-1,1,-1,1,-1c1,1,1,1,1,1c0,1,0,1,0,1l0,1c-1,0,-1,0,-1,0l1,0l0,2l-1,-1l-1,0l0,1c-1,0,-1,1,-1,1l-1,0c-1,0,-1,0,-1,0l1,-1l1,0l1,-1l0,-1c-1,0,-1,0,-1,0l0,-1l1,0ZM248.5,325.5l-1,-1c0,0,0,1,0,1l1,1l0,-1ZM317.5,336.5c0,0,0,1,0,1l1,0c0,0,0,-1,-1,-1ZM318.5,344.5c-1,0,-1,0,-1,1c0,0,-1,0,-1,0c0,0,-1,0,-1,0l-1,0c0,0,-1,0,-1,0c-1,0,-1,0,-1,-1l1,0c1,0,1,0,1,0c0,0,1,0,1,0c0,0,1,0,1,-1c0,0,1,0,1,0c0,-1,1,-1,1,-1c0,0,0,-1,0,-1c1,-1,1,-1,1,-2l-1,0c0,1,0,1,-1,1l0,-1c-1,0,-1,0,-1,0c0,-1,0,-1,0,-1c0,-1,0,-1,0,-1c0,-1,0,-1,1,-2c0,-1,1,-1,1,-1l1,1c0,1,0,1,0,1c1,1,1,1,1,1c0,1,0,1,0,2c0,1,-1,2,-1,3c0,1,0,1,-1,1c0,1,0,1,0,1ZM315.5,331.5l4,-2c-1,0,-1,1,-1,1l-4,2ZM311.5,340.5l0,-1l0,-1l-1,-8l1,-3l1,11l0,1l-1,0c0,1,0,1,0,1ZM309.5,325.5l4,-2l0,1l-4,2ZM304.5,334.5l-1,-1l1,-2l1,1ZM304.5,340.5l-1,0l-1,0c-1,0,-1,0,-1,0c0,0,0,-1,-1,-1c0,1,-1,1,-1,1c-1,0,-1,0,-2,1l-2,0l-1,0l-1,0l-1,0c-2,0,-3,0,-4,0c-1,0,-2,-1,-2,-1c0,0,-1,-1,-1,-1c0,0,0,-1,0,-1l0,-1c0,0,0,-1,0,-1c0,0,1,-1,1,-1l0,1c0,0,0,1,0,1c0,0,0,1,0,1c0,0,1,1,2,1l1,0l1,0c1,1,2,1,3,1c1,0,1,0,2,0c0,0,1,-1,1,-1l1,0l1,0c0,0,1,-1,2,-1c0,0,1,-1,1,-1l0,1l1,1l1,0l1,0c0,0,1,0,1,0c1,-1,1,-1,1,-1l0,-1c0,-1,0,-1,0,-1l-1,0l1,-2l1,1c0,1,0,1,0,1c0,1,0,1,0,1c0,0,0,1,0,1c0,0,0,1,0,1l-1,0c0,1,0,1,-1,1c0,0,-1,0,-1,0ZM294.5,335.5l-1,-1l-1,1l-1,-1l1,-1l1,1l1,-1l1,1ZM292.5,327.5l4,-2l0,1l-4,2ZM223.5,329.5l0,-1c0,0,0,-1,0,-1c-1,-1,-1,-2,-1,-2l0,-1l1,0c0,0,0,1,0,1c0,0,0,1,0,1l0,1l0,1c0,0,0,1,0,1Z" class="g1_62" />
<path fill-rule="evenodd" d="M216.5,558.5c-1,0,-2,-1,-2,-1l0,-2l-1,-2l0,-2l0,-2l-1,1l0,2l0,1l1,1l0,1c0,1,-1,1,-1,2c-1,0,-1,1,-2,1c-1,0,-2,0,-2,-1c-1,0,-1,0,-1,0l0,-1c0,0,0,1,-1,1c0,1,0,1,0,2l1,0l1,0l1,1c1,0,2,-1,2,-1l2,-2l0,1c1,0,1,1,1,1l1,1c0,0,1,0,1,0c1,0,1,0,2,-1l1,-1c1,1,2,2,2,2c0,0,1,0,1,0l1,0l0,-1c1,0,1,0,2,0c1,-1,2,-1,3,-2l1,0l1,0l1,0l1,0c0,0,-1,1,-1,1c0,1,1,2,3,2c2,0,2,0,2,0c0,0,1,0,1,0c0,0,1,0,1,0l2,-1c1,0,1,0,2,1l1,-1l0,-1l-1,-1c-1,0,-1,0,-1,-1l-1,-1c0,-1,0,-2,-1,-4l0,-3c0,-1,0,-2,1,-2l-1,-1l0,-1l-2,2c1,0,1,1,1,2l0,1l0,2l1,2l0,2l0,1l0,1l-1,1l-1,0l-1,0l-1,0c-2,0,-2,0,-2,-1l1,0l1,0l0,-2l-3,0l-1,0c-1,0,-2,0,-2,-1l-2,-1c-1,0,-1,0,-1,0l-1,0c0,0,-1,0,-1,1c-1,0,-1,0,-1,1l1,0l1,0l1,0l1,0l1,1c0,0,-1,0,-2,1l-1,0l-1,0c-1,1,-2,1,-2,1c-1,0,-1,0,-2,-1l0,-1c-1,1,-1,1,-2,1l-1,1l-1,0ZM230.5,565.5c0,1,0,1,0,1l-3,2c0,0,0,-1,0,-1ZM235.5,546.5l0,1l-4,2c0,-1,0,-1,1,-1l0,-1ZM247.5,542.5l-3,2c0,0,0,-1,0,-1ZM210.5,549.5l0,1l-1,-1c0,1,-1,2,-2,2c0,-1,1,-1,2,-2c-1,0,-1,-1,-1,-1c0,0,0,-1,1,-1c0,-1,0,-1,1,-1c0,0,0,1,0,1c0,1,0,1,0,2ZM210.5,548.5c0,-1,-1,-1,-1,-1c0,1,0,1,1,1ZM218.5,549.5c0,1,0,2,-2,2c0,0,1,0,1,-1c0,0,1,0,1,0c0,-1,0,-1,-1,-1c-1,0,-1,0,-1,0c0,0,0,-1,0,-1c0,0,1,0,1,0c0,0,1,0,1,1ZM239.5,542.5c0,0,-1,1,-3,1c1,0,1,0,2,0c0,-1,0,-1,0,-1c0,0,-1,0,-1,0c0,0,-1,-1,-1,-1c0,0,1,0,1,0c0,-1,0,-1,0,-1c1,0,1,0,2,1l0,1ZM216.5,564.5c1,0,1,0,1,0l1,1l0,-1l1,0l1,0c0,0,0,1,0,1l1,-1l0,-1c0,0,-1,0,-1,-1l0,1l-1,0l-1,0l-1,-1c0,1,0,1,0,1l0,1ZM227.5,561.5l1,0l1,1c0,-1,0,-1,1,-2l-1,0l-1,-1c0,0,0,1,0,1ZM246.5,545.5l-1,2c0,1,0,1,0,1l0,2l0,1l0,1l0,1l1,2c0,2,0,2,0,3l0,1l0,1c0,0,1,0,1,-1c0,-1,0,-1,0,-2l0,-2l0,-1Z" class="g2_62" />
</svg>