<?xml version="1.0" encoding="UTF-8" standalone="no"?>
<!DOCTYPE svg PUBLIC "-//W3C//DTD SVG 1.1//EN"
"http://www.w3.org/Graphics/SVG/1.1/DTD/svg11.dtd">
<svg version="1.1" xmlns="http://www.w3.org/2000/svg" xmlns:xlink="http://www.w3.org/1999/xlink">
<defs>
<style type="text/css"><![CDATA[
.g1_13{
fill: #1F1A17;
stroke: #1F1A17;
stroke-width: 1;
stroke-linecap: butt;
stroke-linejoin: miter;
}
]]></style>
</defs>
<path fill-rule="evenodd" d="M280.5,205.5c0,0,1,-1,1,-1l0,-1l0,1l0,1l1,0c0,1,0,1,0,1c1,0,1,0,1,0l0,-1c0,0,1,0,1,0c1,-1,1,-1,1,-1l-1,0c0,0,-1,0,-1,0c0,0,0,-1,0,-1c0,-1,0,-1,0,-1c1,0,1,0,1,0c0,0,0,1,1,1c0,1,0,1,0,1c0,1,0,1,0,1c-1,0,-1,1,-1,1c-1,0,-1,0,-2,0l-1,0c0,0,-1,-1,-1,-1ZM76.5,295.5c0,1,0,2,0,3l0,1l-1,0l0,1l1,0l0,1l-1,0l-1,0l0,1l-1,0c0,0,0,1,-1,1l-1,0l-1,1c0,0,-1,0,-1,0l-1,1l0,1c0,0,-1,0,-1,0l-3,0l-3,0l-1,0c0,0,-1,0,-1,-1l-1,-1l-1,0c-1,0,-1,-1,-2,-1l-1,0l0,-1l-1,0l0,-1l-1,0l-1,-1l1,0l0,-1l-1,-1l0,-1c0,0,0,-1,0,-1l0,-1l0,-1c0,0,0,-1,0,-1c0,-1,1,-1,1,-1l0,-1l-1,0l1,-1l1,0l0,-1l1,0l1,-1l1,0l1,-1c1,0,1,0,1,0l1,-1c0,-1,0,-1,1,-1l1,0l3,0l3,0l1,1l1,1l1,0l1,1l1,0c1,0,1,1,1,1l1,0l0,1c1,0,2,0,2,1l-1,0l0,1l1,0l0,1l0,1l0,1ZM67.5,306.5l0,-1l1,0l0,-1l1,0l1,0c0,-1,1,-1,1,-1l1,0c0,-1,1,-1,1,-1l1,0l0,-1l1,0l0,-1l1,0l-2,0l1,-1l0,-1l1,0l0,-1l0,-1l0,-1c0,0,0,-1,0,-2l-1,0l0,-1l-1,-1l1,0l1,0c-1,0,-1,-1,-2,-1l0,-1l-1,0l-1,0l-1,-1l-1,-1c-1,0,-1,0,-1,0l-1,-1c-1,-1,-1,-1,-1,-1l-1,0l-2,0l-1,0l-2,0l-1,0l-1,1l-1,1l-2,1l-1,1l-1,0l-1,0l0,1c-1,0,-1,0,-2,1l2,0l-1,1l0,1l-1,0l0,1l0,1l0,1l0,1l0,1l1,0l0,1l1,1l-2,0l1,0l0,1l1,0l0,1l1,0l1,1l1,0l1,1c1,0,1,0,1,0l1,1c0,0,1,1,1,1l1,0l3,0ZM73.5,291.5l-1,0l0,-1l-1,0l-1,0c0,-1,0,-1,0,-1l1,0c1,0,1,1,1,1l1,0ZM73.5,300.5l0,1l-1,0l0,1l-1,0l-1,0l0,-1l1,0c1,0,1,-1,1,-1l1,0ZM69.5,302.5c0,1,-1,1,-1,1c0,1,0,1,-1,1l-3,0l-3,0l-1,0c-1,0,-1,0,-1,-1c0,0,-1,0,-1,-1c0,0,1,0,1,0c0,0,0,-1,1,-1l1,0l3,0l3,0c0,0,1,0,1,0l0,1l1,0ZM69.5,289.5c0,0,-1,0,-1,0c0,1,0,1,-1,1l-3,0l-3,0l-1,0c-1,0,-1,0,-1,-1l-1,0c0,-1,1,-1,1,-1l0,-1l1,0l1,0l3,0l3,0c1,0,1,0,1,1l1,0ZM67.5,291.5c1,0,1,0,1,0c0,0,1,0,1,0c0,0,1,0,1,0c0,0,1,0,1,1l1,0l1,0l1,1l0,1l0,1l0,1c0,1,0,1,0,1l0,1c-1,0,-1,0,-1,1l-1,0l-1,0l0,1l-1,0l-1,0c-1,0,-1,0,-1,0l-1,0l-3,0l-3,0l-1,0l-1,0l-1,0c0,0,-1,0,-1,0c0,0,-1,0,-1,-1l-1,0l-1,0l-1,-2l0,-1l0,-1c0,-1,0,-1,0,-1l0,-1l1,0l0,-1l2,0l0,-1l1,0c0,0,1,0,1,0c0,0,1,0,1,0l1,0l1,0l3,0ZM67.5,300.5l1,0l1,0l1,0l1,-1l1,0l1,0l0,-1l1,-1l0,-1l0,-1c0,0,0,-1,0,-1c-1,-1,-1,-1,-1,-1c0,-1,0,-1,0,-1l-1,1c0,0,-1,-1,-1,-1l-1,-1l-1,0c0,0,-1,0,-1,0l-1,0l0,1l-3,0l-3,0l-1,0l0,-1l-1,0l-1,0l-1,0l-1,1c0,0,0,1,-1,1l-1,-1l0,1l-1,1l0,1l0,1l0,1l1,0l0,1c0,0,0,1,0,1l1,0c1,0,1,0,1,0l0,1l1,0l1,0c1,0,1,0,1,0l1,0l0,-1l1,0l3,0l3,0ZM66.5,295.5c0,0,-1,0,-1,0c1,0,1,0,1,1l-1,1l1,0l1,0l0,1c-1,0,-1,0,-2,0l0,-1l0,-1l0,-1l0,-1c0,0,1,0,1,0ZM62.5,294.5c1,0,1,0,1,0l0,1l0,1l1,1l0,1c-1,0,-1,-1,-1,-3c0,1,-1,1,-1,1l-1,-1l1,0l0,-1ZM62.5,294.5l0,1l1,0c0,-1,-1,-1,-1,-1ZM60.5,294.5l1,0l0,1l0,1l0,1c0,1,0,1,0,1l0,-1c0,-1,-1,-2,-1,-2ZM54.5,291.5l0,-1l1,0l1,-1l1,0l1,0l-1,0l1,1c-1,0,-1,0,-1,0l-1,0l-1,0l0,1l-1,0ZM54.5,300.5l1,0c0,0,0,1,1,1l1,0l0,1l-1,0c0,0,-1,0,-1,-1l-1,0ZM121.5,298.5l0,-1l0,-1l-1,-9l1,-2l1,11c0,0,0,1,0,1c-1,0,-1,1,-1,1ZM115.5,295.5l0,-2l0,-6c0,0,-1,0,-1,-1c0,0,0,-1,1,-1c0,0,0,-1,0,-1c0,1,0,1,0,1l1,0c0,1,0,1,0,1c0,0,0,1,0,1l0,1c0,0,0,1,0,2c0,0,0,1,0,2c0,1,0,1,0,2l0,1c0,1,0,1,0,1l1,0l1,0l0,1l0,1l-1,0c-1,0,-1,0,-1,0c-1,0,-1,0,-1,0c0,-1,0,-1,0,-1l-1,0l0,1c0,0,-1,0,-1,0l-1,0l-1,0l-1,0l-1,0c0,-1,0,-1,0,-1c0,0,-1,0,-1,1c-1,0,-1,0,-1,0l-1,0c-1,0,-1,0,-2,0l-1,-1l-1,0l0,-1c0,0,0,1,-1,1c0,0,-1,0,-1,1c0,0,-1,0,-1,0l-1,0l-2,0c-1,0,-1,0,-2,-1c0,0,-1,-1,-1,-2l0,-8l1,-2l0,10l1,1l1,0l2,0c0,0,1,0,1,0l1,0l1,0l0,-1l-1,0l-1,-1l0,-1c1,-1,1,-1,2,-1l1,0c0,0,1,0,1,0c0,0,1,0,1,1l0,1c0,1,0,1,-1,1c0,1,0,1,0,1c1,0,1,0,1,0l1,0l1,0c1,0,1,0,1,0c1,0,1,0,1,0l0,-1c1,0,1,0,1,-1l0,1c0,1,0,1,1,1c0,0,1,0,1,0l1,0c1,0,1,0,1,0c1,0,1,0,1,0l1,0c0,-1,0,-1,0,-1ZM105.5,280.5c0,0,1,0,1,0c1,0,1,0,2,0c0,0,1,0,1,0c0,0,1,0,1,1l-1,0l0,1c0,0,-1,0,-1,0l-1,1l-1,0l-1,0l2,-1c1,0,1,0,2,-1c-1,0,-1,0,-1,0c0,0,-1,0,-1,0c0,0,-1,0,-1,0c0,0,-1,0,-1,0c0,0,0,-1,0,-1ZM116.5,277.5c0,-1,0,-1,0,-1c1,0,1,0,2,0c0,0,1,0,1,0c1,0,1,1,1,1c0,0,-1,1,-1,1l0,1c-1,0,-1,0,-1,0c-1,0,-1,0,-1,0l-1,0l1,-1c1,0,2,0,2,-1c0,0,-1,0,-1,0l-1,0l-1,0c0,0,0,1,-1,1l0,-1l1,0ZM114.5,304.5l-4,2c0,0,1,-1,1,-1l3,-2ZM110.5,301.5l-1,-1l-1,2l-2,-1l1,-2l2,1l0,-1l2,1ZM97.5,281.5l4,-2l-1,1l-4,2ZM90.5,297.5l-1,1c-1,0,-1,0,-2,0l-1,0l-1,0l-1,0l0,-1l0,-1c0,0,1,0,1,0c1,0,1,0,2,0c0,0,1,0,1,0c0,0,1,0,1,0c0,0,0,-1,1,-1l-1,-1c0,0,0,-1,0,-1l-1,0l-1,-1l-1,0l0,-1l1,-2c0,1,0,1,0,1l1,0c0,0,0,1,1,1c0,0,1,1,1,1c0,1,0,1,0,2l1,0c0,1,0,1,0,1c0,0,0,1,-1,1c0,0,0,1,0,1ZM86.5,285.5l4,-2l0,1l-4,2ZM160.5,285.5l-1,-1l-1,1l-2,-1l1,-1l2,0l1,-1l1,1ZM159.5,289.5l0,-1c1,0,1,0,1,1c0,1,0,1,0,1l1,0l0,-1l0,-1c-1,0,-1,0,-1,0c0,-1,0,-1,0,-1l-1,0l0,1l-1,0c0,0,0,1,0,1c-1,0,-1,0,-1,1c-1,0,-1,1,-1,1c0,0,-1,0,-1,0l-1,1c0,0,-1,0,-1,0c0,0,0,1,0,1c-1,0,-1,1,-1,1l1,0l1,0l1,0l1,0l1,1l-1,1l-1,0l-1,0l-1,0l-1,0l-1,0l-1,0c0,0,-1,0,-1,0l0,-1l-1,-11l-1,2l1,7l0,1c0,1,0,1,0,1c-1,1,-1,1,-2,1l-1,0c0,0,-1,0,-1,0l-1,0c1,0,1,0,1,0c0,0,0,-1,0,-1c0,-1,0,-1,0,-1l0,-1c0,-1,0,-1,0,-1c0,0,0,-1,0,-1c0,0,-1,0,-1,0l-1,0c-1,1,-1,1,-1,1c0,1,-1,1,-1,1c0,1,0,2,0,2c0,0,0,1,0,1c0,1,0,1,-1,1c-1,0,-2,0,-2,0c-1,0,-1,1,-2,1c-1,0,-2,-1,-3,-1c-1,0,-2,0,-2,0c-1,-1,-1,-1,-2,-1c0,-1,0,-1,0,-1c0,-1,0,-1,0,-1c0,-1,1,-1,1,-1c-1,0,-1,0,-1,0l-1,1c0,0,0,1,0,1l0,1l0,1c1,0,1,1,1,1c1,0,1,1,3,1c0,0,2,0,3,0c1,0,1,0,2,0c0,0,1,0,1,0c1,0,1,0,2,0c1,-1,1,-1,2,-1l1,-1c0,1,0,1,0,1l1,0l1,0l1,0l1,0c1,0,1,0,1,0c1,-1,1,-1,1,-2c0,1,1,2,1,2c0,0,1,0,1,0l1,0l1,0l1,0l1,0c0,0,0,-1,1,-1l2,-1c0,0,1,0,1,0l1,0l2,0l2,0l1,-2l-2,0l-1,0c0,0,-1,0,-1,0c-1,0,-1,0,-2,-1l-2,0l0,-1l-1,0l1,0l1,-1c1,-1,1,-1,1,-1l0,-1ZM157.5,275.5c1,-1,1,-1,1,-1c1,1,1,1,1,1c0,1,0,1,0,1l0,1l-1,0l1,0l0,2l-1,-1l-1,1c0,0,-1,1,-1,1l-1,0l0,-1l1,0l0,-1l1,0l0,-1c0,0,-1,0,-1,-1c0,0,1,0,1,-1ZM158.5,276.5l0,-1l-1,0l0,1l1,0l0,1l0,-1ZM151.5,290.5l-1,-1l1,-2l1,1ZM151.5,280.5l1,0l1,0c0,0,1,0,1,0c1,0,1,0,1,0c0,0,0,1,0,1l-1,1c0,0,-1,0,-1,0c-1,0,-1,0,-1,0l-1,0l2,0c0,0,1,-1,1,-1l-1,0c-1,0,-1,0,-2,0l-1,0l1,0c0,-1,0,-1,0,-1ZM149.5,304.5l-4,2c0,0,0,-1,0,-1l4,-2ZM141.5,290.5l-1,-1l0,-2l2,1ZM142.5,293.5l-1,0c0,0,0,1,0,1l0,1c0,0,1,0,1,0c0,0,1,0,1,0l1,-1l-1,-1l-1,0ZM134.5,282.5c0,0,1,0,1,-1l1,0c0,0,1,1,1,1c0,0,0,1,-1,1c0,0,0,1,0,1l1,0l0,1l-2,0l0,1c-1,0,-1,0,-1,0l-1,1l-1,0l1,-1l1,0c0,0,0,-1,0,-1l1,0l0,-1l-1,0l0,-1l0,-1ZM135.5,282.5c0,1,0,1,0,1l1,0ZM180.5,296.5l-1,1c0,0,0,1,0,1c0,0,1,0,1,0l0,-1ZM181.5,299.5c0,0,-1,0,-1,0c-1,0,-1,0,-1,0c-1,0,-1,0,-2,0c-1,0,-1,1,-1,1c0,0,0,-1,0,-1c0,0,0,-1,0,-1c0,0,1,0,1,0c0,0,1,-1,1,-1c1,-1,1,-1,1,-1c0,-1,0,-1,0,-1c-1,-1,-1,-1,-1,-1c0,-1,-1,-1,-1,-2c-1,0,-1,-1,-2,-1c0,0,0,-1,0,-1c-1,0,-1,0,-1,0c-1,0,-1,0,-1,0c-1,-1,-1,-1,-1,-2l0,-1l0,-1c1,0,1,1,2,1c0,0,0,1,1,1c1,1,1,2,2,2c0,1,1,2,2,2c0,1,0,1,0,2c1,0,1,0,1,0l0,-1c0,0,0,-1,1,-2c0,0,0,-1,0,-1c0,-1,0,-1,0,-2c0,0,0,-1,0,-1c0,0,-1,0,-1,-1c0,0,0,-1,1,-1c0,0,0,-1,0,-1l0,1c0,0,1,0,1,1l1,0c-1,0,-1,1,-1,1l0,1c0,1,0,1,0,2c0,0,0,1,0,1c0,0,-1,1,-1,1c0,1,0,1,0,2c0,1,0,1,-1,1c0,0,1,1,1,1c0,0,0,1,0,1l0,1l0,1ZM177.5,282.5l6,-3c-1,1,-1,1,-1,2l-5,2ZM214.5,298.5l0,-1l0,-1l0,-9l0,-2l1,11c0,0,0,1,0,1c0,0,-1,1,-1,1ZM216.5,301.5l-3,2c0,-1,0,-1,0,-1l4,-2ZM207.5,291.5l-1,-1l1,-1l1,1ZM207.5,298.5l-1,0c-1,0,-1,0,-1,0c-1,0,-1,0,-1,-1c-1,-1,-1,-1,-1,-3c0,1,0,2,-1,2c0,1,-1,1,-2,1c0,1,-1,1,-1,1l-1,0l-1,0c-1,0,-1,1,-1,1l-1,0l-1,0l-1,0l-1,0l0,-1c-2,0,-2,0,-3,-1c0,0,0,-1,0,-2l0,-1c0,0,0,-1,0,-1l0,-1l1,0l-1,1l0,1c0,1,1,2,2,2c1,0,1,0,2,0c1,1,1,1,2,1l1,0l1,0l1,0l1,-1c2,0,4,-1,4,-2l0,-1l0,-7l1,-2l0,11c0,1,0,1,1,1c0,0,1,0,1,0l1,0c1,0,1,0,2,0l1,0l0,-1l-1,-1l0,-1l1,-1c0,0,0,1,0,1c0,1,0,1,0,1c0,1,0,1,0,1c0,1,0,1,0,1c0,1,0,1,0,1c0,0,-1,1,-2,1l-1,0ZM208.5,284.5l0,1l1,0c0,-1,0,-1,0,-1l0,-1l1,1l1,-1l0,-1l0,1l0,1c0,1,0,1,-1,1l-1,0c0,1,-1,1,-1,1l-1,0c0,0,0,-1,0,-1l0,-1l1,0ZM212.5,281.5l-6,3c1,-1,1,-2,1,-2l5,-3ZM197.5,293.5c-1,0,-1,1,-2,1l-1,0c0,0,0,-1,0,-1l-1,0l1,0l1,0c0,0,1,0,1,0c0,-1,0,-1,0,-1l-1,0l-1,0c0,0,0,-1,0,-1l0,-1l1,0c0,-1,1,-2,2,-2l0,1l-1,0c0,0,-1,1,-1,1c0,0,1,0,1,0c1,0,2,1,2,1c0,1,-1,1,-1,1c0,0,0,1,0,1ZM193.5,285.5l4,-2l0,1l-4,2ZM270.5,298.5l0,-1l0,-1l0,-9l1,-2l0,11c0,0,0,1,0,1c0,0,0,1,-1,1ZM263.5,296.5l1,0c1,0,1,0,1,0c0,0,0,-1,0,-1l0,-2l0,-6l0,-1c0,0,0,-1,0,-1c0,0,0,-1,0,-1c0,0,1,0,1,0c0,1,0,1,-1,1c0,0,1,0,1,0c0,1,0,1,1,1c0,0,-1,1,-1,1l0,1c0,0,0,1,0,2c0,0,0,1,0,2c0,1,0,1,0,2l0,1c0,1,0,1,0,1c0,1,0,1,0,1c-1,0,-1,0,-1,0c0,0,0,1,0,1c-1,0,-1,0,-1,0c0,0,-1,0,-1,0l-2,0c-1,0,-2,0,-2,0c-1,0,-1,0,-1,-1c-1,1,-1,1,-2,1c-1,0,-1,0,-2,0l-1,0l-1,0l-1,0c0,-1,0,-1,0,-1c0,0,-1,0,-1,1c-1,0,-1,0,-2,0l-1,0c-1,0,-1,0,-2,0l-1,-1c0,1,0,1,0,1l-1,1c0,0,0,-1,-1,-1l-1,0l-1,-1l-1,1c-1,0,-1,0,-1,0l-1,0l-1,0c0,0,-1,0,-1,0c-1,0,-1,0,-1,-1l0,-1c0,0,-1,0,-1,0c0,0,0,-1,0,-1l0,1l-1,0l-1,0c-1,0,-1,0,-2,0l0,-1c0,-1,0,-1,1,-2c0,0,1,0,2,-1c0,0,1,0,1,0l0,-1l-1,0c0,0,1,0,1,0l0,-1l0,1c0,0,1,0,1,1c0,0,0,1,0,1l0,2c0,0,0,1,0,1c0,0,1,0,1,0c1,0,1,0,1,0l1,0l1,0l1,0c0,0,0,-1,1,-1c1,-1,2,-2,2,-2l1,1l1,1l1,1c0,0,1,0,1,0l1,0l1,0c1,0,1,0,1,0c1,0,1,0,1,0l1,-1l0,-1l0,1c0,1,1,1,1,1c0,0,1,0,1,0l1,0c0,0,1,0,1,0l1,0l0,-1c0,-1,0,-1,0,-2c0,0,1,-1,1,-1c1,-1,1,-1,2,-1c0,0,1,0,1,1l0,1l1,1l-1,0c0,0,0,1,0,1c0,1,0,1,-1,1c1,0,1,0,1,0l1,0l1,0ZM263.5,280.5l1,0c0,0,1,0,1,0c1,0,1,0,1,0c1,0,1,0,1,0c0,0,0,1,0,1l-1,1l-1,0c0,0,-1,0,-1,0c-1,0,-1,0,-1,0l2,0c0,0,1,-1,1,-1l-1,0c-1,0,-1,0,-2,0c0,-1,0,-1,0,-1ZM259.5,290.5l-1,-1l-1,1l-2,-1l1,-1l2,1l0,-2l2,1ZM258.5,293.5l-1,0c0,0,0,1,0,1c0,1,1,1,1,1c0,0,1,0,1,0c0,0,0,-1,1,-1l-1,-1l-1,0ZM261.5,304.5l-5,2c1,-1,1,-1,1,-1l4,-2ZM252.5,301.5l-1,-1l-1,2l-1,-1l0,-2l2,1l1,-1l1,1ZM244.5,297.5l-1,-1c0,-1,-1,-1,-1,-2l0,1l-1,0c0,0,0,1,1,1l1,0ZM240.5,285.5l4,-2l-1,1l-4,2ZM232.5,289.5l-1,-1l-1,1l-1,-1l1,-1l1,1l1,-1l1,1ZM233.5,293.5l-1,0l-1,1l-1,1l1,0l1,0c0,-1,1,-1,1,-1ZM233.5,301.5l-4,2c1,0,1,-1,1,-1l4,-2ZM300.5,301.5l-1,-1l-1,2l-1,-1l0,-2l2,1l1,-1l1,1ZM297.5,298.5l-1,0l-1,0c0,0,0,1,-1,1c0,1,0,1,0,1c0,1,0,1,-1,2l-1,0c0,1,0,1,0,1c-1,0,-1,0,-1,0c0,0,-1,0,-1,0l-1,0c0,0,-1,0,-2,0c0,-1,0,-1,0,-1l1,1c1,0,1,0,2,-1l1,0c0,0,0,-1,1,-1l0,-1c1,0,1,0,1,0c0,-1,0,-1,0,-1c1,0,1,0,1,-1c-1,0,-1,0,-1,0c-1,0,-1,0,-1,0c-1,0,-1,-1,-1,-1c0,0,0,-1,0,-1c0,-1,0,-1,0,-1c0,0,0,-1,0,-1c1,0,1,0,1,0c0,0,0,-1,0,-1c1,0,1,0,1,0l1,0c0,1,0,1,0,1l0,1c0,0,1,0,1,0c0,1,0,1,0,1c0,0,1,0,1,0l1,0c1,0,1,0,2,0c0,0,1,0,1,0l0,-1l0,-1c-1,0,-1,0,-1,0l0,-1l1,-1c0,0,0,1,0,1c0,1,1,1,1,1c0,1,0,1,0,1c0,1,0,1,0,1c-1,0,-1,0,-1,0c0,1,0,1,0,1c0,0,-1,1,-1,1c-1,0,-1,0,-2,0ZM297.5,285.5l4,-2l0,1l-4,2ZM293.5,295.5c-1,0,-1,0,-1,0l0,1c1,0,1,0,1,0c1,0,1,0,1,0c-1,0,-1,0,-1,0c0,-1,0,-1,0,-1ZM288.5,287.5c0,0,1,0,1,0c1,0,1,0,1,0c1,0,1,0,2,0l0,1l0,1c0,0,-1,0,-1,0c0,0,0,1,-1,1l-1,0l-1,0l2,-1c1,0,1,0,2,-1c-1,0,-1,0,-1,0c0,0,-1,0,-1,0c0,0,-1,0,-1,0c0,0,-1,0,-1,0c0,0,0,-1,0,-1ZM286.5,296.5l-2,-1c0,0,0,1,-1,1c-1,0,-2,0,-2,1l0,1c0,0,0,1,0,2c1,2,1,3,1,4c0,1,0,2,0,2c0,0,0,1,0,1c0,0,0,-1,-1,-3c0,-2,0,-3,0,-3c-1,-2,-1,-2,-1,-2l0,-1c0,-1,0,-2,1,-2c0,0,0,-1,0,-1c0,0,1,-1,2,-1c0,0,1,0,1,0l0,-1c0,0,-1,0,-1,0c-1,0,-1,1,-1,1c0,-1,0,-1,0,-1c0,0,0,-1,0,-1c1,0,1,0,1,0c0,-1,0,-1,0,-1c0,0,1,0,1,0c1,1,1,1,2,1c0,1,0,1,0,1c0,0,0,1,0,1l1,0c0,0,-1,1,-1,1ZM280.5,285.5l5,-2l-1,1l-4,2ZM336.5,285.5l-2,-1l-1,1l-1,-1l1,-1l1,0l1,-1l2,1ZM334.5,289.5l1,-1l1,1c0,1,0,1,0,1l0,-1l0,-1c0,-1,0,-1,0,-1c-1,0,-1,0,-1,0l-1,0l0,1c0,0,0,1,0,1c-1,0,-1,0,-1,0l0,1c-1,0,-1,1,-2,1l-1,1l-1,0c0,0,0,1,0,1c0,0,-1,0,-1,0l1,0c-1,0,-1,1,-1,1l1,0l1,0l1,0l1,0l1,1l-1,1l-1,0l-1,0l-1,0l-1,0l-1,0l-1,0c0,0,-1,0,-1,0c0,0,0,-1,-1,-1c0,0,0,1,0,1c0,1,0,1,0,1l1,1c-1,1,-1,1,-1,2c0,0,-1,0,-1,1l-1,0c0,1,0,1,0,1c-1,0,-1,0,-1,1c-1,0,-1,0,-2,0c-1,0,-1,0,-1,0l-1,0c1,0,1,0,1,0c1,1,2,1,2,1c1,0,1,0,1,0c1,0,1,-1,1,-1c1,0,1,0,1,0c1,-1,1,-1,1,-1c0,0,0,-1,1,-1c0,0,0,-1,0,-2l0,-1l1,0l1,0l1,0l1,0l1,0c0,0,0,-1,1,-1l2,-1c0,0,1,0,1,0l1,0l2,0l2,0l1,-2l-2,0l-1,0c0,0,-1,0,-1,0c-1,0,-1,0,-2,-1l-2,0l0,-1l-1,0c1,0,1,0,1,0l1,-1c0,-1,1,-1,1,-1l0,-1ZM335.5,274.5c0,0,1,0,1,-1l1,0c0,0,1,1,1,1c0,0,-1,1,-1,1c0,0,0,1,0,1l1,0l0,1l-2,0l0,1c-1,0,-1,0,-1,0l-1,0l0,1l-1,0l1,-1c1,0,1,-1,1,-1l1,0l0,-1l-1,0l0,-1l0,-1ZM336.5,274.5c0,0,0,1,0,1l1,0l-1,0ZM327.5,290.5l-1,-1l1,-2l1,1ZM327.5,280.5l1,0l1,0c0,0,1,0,1,0c1,0,1,0,1,0c0,0,0,1,0,1l-1,1c0,0,-1,0,-1,0c-1,0,-1,0,-1,0l-1,0l2,0c0,0,1,-1,1,-1l-1,0c-1,0,-1,0,-2,0l-1,0l1,0c0,-1,0,-1,0,-1ZM324.5,293.5l-1,-1l1,-1l1,1ZM325.5,308.5l-5,2c1,0,1,-1,1,-1l4,-2ZM315.5,291.5l-1,-1l1,-1l1,1ZM315.5,298.5l-1,0l-2,0c-1,0,-1,0,-2,-1c0,0,0,-1,0,-2l-1,-8l1,-2l1,10l0,1c0,0,1,0,1,0l2,0l1,0c0,0,1,0,1,0c1,0,1,0,1,0l0,-1l0,-1l-1,0l0,-1l1,-1l1,0c0,0,0,1,0,1c0,1,0,1,0,1c0,1,0,1,0,1c0,1,0,1,0,1c0,1,0,1,-1,1c0,0,0,1,-1,1c0,0,-1,0,-1,0ZM315.5,285.5l4,-2l-1,1l-4,2ZM364.5,294.5l-1,0c0,0,0,1,0,1c0,0,1,0,1,0c0,0,1,0,1,0c-1,0,-1,-1,-1,-1ZM364.5,302.5l-1,0l0,1c-1,0,-1,0,-2,0c-1,0,-1,0,-2,-1c0,0,-1,0,-1,0c0,0,1,0,1,0l1,0c1,0,1,0,1,0l1,0c0,-1,0,-1,0,-1c1,0,1,0,1,-1c1,0,1,0,1,0c0,-1,1,-1,1,-2c0,0,0,-1,0,-1l0,-1c0,1,0,1,0,1c0,0,-1,0,-1,0c0,0,-1,0,-1,0c-1,0,-1,-1,-1,-1c0,0,0,-1,0,-1l0,-1c0,0,1,-1,1,-1l0,-1c1,0,1,0,1,0c1,0,1,0,1,0c0,0,0,1,1,1c0,0,0,1,0,1c0,0,0,1,0,1c0,0,0,1,0,1c0,1,0,1,0,1c0,1,0,2,-1,3c0,0,0,1,0,1c-1,0,-1,1,-1,1ZM361.5,288.5l4,-2l0,1l-4,2ZM356.5,296.5l-1,1c0,0,0,1,0,1c0,0,1,0,1,0l0,-1ZM357.5,299.5c0,0,-1,0,-1,0c-1,0,-1,0,-1,0c-1,0,-1,0,-2,0c-1,0,-1,1,-1,1c0,0,0,-1,0,-1c0,0,0,-1,0,-1c0,0,1,0,1,0c0,0,1,-1,1,-1c1,-1,1,-1,1,-1c0,-1,0,-1,0,-1c-1,-1,-1,-1,-1,-1c0,-1,-1,-1,-1,-2c-1,0,-1,-1,-2,-1c0,0,0,-1,0,-1c-1,0,-1,0,-1,0c-1,0,-1,0,-1,0c-1,-1,-1,-1,-1,-2l0,-1l0,-1c1,0,1,1,2,1c0,0,0,1,1,1c1,1,1,2,2,2c0,1,1,2,2,2c0,1,0,1,0,2c1,0,1,0,1,0l0,-1c0,0,0,-1,1,-2c0,0,0,-1,0,-1c0,-1,0,-1,0,-2c0,0,0,-1,0,-1c0,0,-1,0,-1,-1c0,0,0,-1,1,-1c0,0,0,-1,0,-1l0,1c0,0,1,0,1,1l1,0c-1,0,-1,1,-1,1l0,1c0,1,0,1,0,2c0,0,0,1,0,1c0,0,-1,1,-1,1c0,1,0,1,0,2c0,1,0,1,-1,1c0,0,1,1,1,1c0,0,0,1,0,1l0,1l0,1ZM353.5,282.5l6,-3c-1,1,-1,1,-1,2l-5,2ZM405.5,301.5c0,0,1,0,1,0l1,0c0,0,1,0,2,-1c1,0,1,0,2,-1c0,0,0,-1,1,-1c0,0,0,-1,0,-1l0,-1l0,-1l-1,-1l1,-1l0,-1l0,1c0,0,1,1,1,1l0,1l0,1c0,1,0,1,0,2c0,1,0,1,-1,1c0,1,0,1,0,1c0,0,-1,1,-1,1l-1,1c-1,0,-1,0,-1,0c-1,0,-1,0,-1,0l-1,0c0,0,-1,0,-1,0l-1,0ZM410.5,286.5c0,-1,0,-1,1,-1c0,0,0,-1,0,-1c1,0,1,0,1,1c0,1,0,1,0,1l0,1l0,1l0,1l-1,-1l-1,1c0,0,0,1,-1,1l-1,0l1,-1l1,0l0,-1l0,-1l0,-1ZM411.5,286.5c0,0,-1,0,-1,0l1,0l0,1l0,-1ZM397.5,297.5l-1,0c0,0,0,1,-1,1c0,0,-1,0,-1,0c-1,0,-1,0,-1,0c-1,0,-1,-1,-1,-2c-1,1,-1,1,-1,2c-1,0,-1,0,-1,0l-1,0c0,0,-1,0,-1,0c0,0,-1,0,-1,-1c0,-1,0,-1,0,-3c-1,1,-1,2,-1,2c-1,1,-2,1,-3,1c0,1,0,1,-1,1l-1,0l-1,0c0,0,-1,1,-1,1l-1,0l-1,0l-1,0l-1,-1c-1,0,-2,0,-3,-1c0,0,0,-1,0,-2l0,-1c0,0,0,-1,0,-1l1,-1l0,1l0,1c0,1,0,2,2,2c0,0,1,0,1,0c1,1,2,1,2,1l1,0l1,0l1,0l1,-1c2,0,4,-1,4,-2l0,-1l0,-7l1,-2l1,11c0,1,0,1,0,1c1,0,1,0,1,0c1,0,1,0,1,0c0,0,1,0,1,-1l0,-1c0,-1,0,-1,0,-1l0,-7l1,-2l0,11c0,1,1,1,1,1c0,0,1,0,1,0c1,0,1,0,1,0c1,0,1,0,1,0c1,-1,1,-1,1,-1l1,0l0,1l1,0c0,0,1,0,1,0c0,0,1,0,1,0c0,-1,0,-1,0,-1l0,-1l1,0l0,1c0,1,0,1,0,1l1,0l1,0l0,-1l0,-1l1,1l0,1l0,1l-1,0l0,1l-1,0l-1,0l-1,-1l-1,0c0,1,0,1,0,1l-1,0l-1,0c-1,0,-1,0,-1,-1ZM399.5,282.5l0,-1c1,0,1,0,1,0c1,0,1,0,1,0c0,0,0,1,0,1c0,0,0,1,0,1c0,0,0,1,0,1l0,1l-1,0l-1,1c0,0,-1,0,-1,0l0,1l-1,0l0,-1l1,0c0,0,0,-1,1,-1l0,-1l0,-1l0,-1ZM400.5,282.5c-1,0,-1,0,-1,0c0,1,0,1,0,1l1,0ZM392.5,304.5l-4,2c0,0,1,-1,1,-1l3,-2ZM380.5,293.5c0,0,-1,1,-2,1c-1,0,-1,-1,-1,-1l1,0l1,0c0,-1,0,-1,0,-1c-1,0,-1,0,-1,0c0,0,0,-1,0,-1l0,-1c0,-1,1,-2,2,-2l0,1c-1,0,-1,1,-1,1l1,0c0,0,1,1,1,1c0,1,0,1,0,1c0,0,-1,1,-1,1ZM376.5,285.5l5,-2l-1,1l-4,2ZM68.5,248.5c-1,1,-2,1,-3,2c-1,0,-2,1,-3,1c-1,0,-2,1,-3,1l-1,0c0,0,0,-1,-1,-1c0,0,-1,-1,-1,-2l0,1c0,0,0,1,0,1c0,0,-1,0,-1,0l-1,0c0,1,0,1,0,1l1,0c1,0,1,0,1,0l1,1l0,1c0,0,-1,0,-1,0l0,1c-1,0,-1,1,-2,1c0,1,-1,1,-2,1c-1,0,-2,1,-2,1c-1,0,-1,0,-1,0c0,0,-1,-1,-1,-1c-1,0,-2,0,-2,-1c0,0,-1,0,-1,-1c0,0,0,-1,0,-1l0,-1c0,0,0,-1,0,-1c0,-1,1,-2,1,-2l1,0c-1,0,-1,1,-1,2l0,1c0,1,0,2,1,2c0,0,1,1,2,1c0,0,1,0,1,0c1,0,1,0,1,0c1,0,1,-1,1,-1c1,0,2,0,2,-1c1,0,1,0,1,0c0,0,-1,-1,-1,-1c-1,0,-1,0,-1,0c0,0,-1,0,-1,0c0,0,0,-1,0,-1c0,0,1,-1,1,-1c0,0,1,-1,1,-1l1,0c0,-1,1,-1,1,-1l0,-1l0,-1l-1,-7l1,-2l1,10c0,1,0,1,0,1l0,1c1,0,1,0,1,0l1,0l1,0c1,0,1,0,1,-1l0,-1c-1,0,-1,0,-1,-1c0,0,0,-1,0,-1l1,0c0,0,0,-1,0,-1l0,-1c1,0,1,0,1,0c0,0,1,0,1,-1c0,0,1,0,1,0c1,0,1,0,1,0l0,1l1,0c1,1,1,1,1,1l-1,0l-1,0l-1,0l-1,0c0,0,-1,0,-1,0c0,0,0,1,0,1c-1,0,-1,0,-1,0l1,1c1,1,1,1,2,2l0,-1c1,0,1,0,1,0c1,0,1,0,1,0l1,0l1,-1ZM60.5,239.5l4,-3l-1,1l0,1l-4,2ZM55.5,236.5c0,1,0,1,-1,2l0,-1l0,-1c0,0,0,-1,0,-1l0,-1c0,-1,0,-1,0,-1l1,1l0,1ZM120.5,248.5c0,0,-1,0,-1,0c0,1,0,1,1,1c0,0,0,-1,0,-1ZM120.5,255.5c0,1,-1,1,-1,1l-1,0c0,0,-1,0,-1,0l-1,0c0,0,-1,0,-1,0c0,0,-1,0,-1,0c0,0,0,-1,0,-1c0,0,1,0,1,1l1,0c1,-1,1,-1,1,-1c1,0,1,0,1,0c1,-1,1,-1,1,-1c1,0,1,-1,1,-1l1,-1c0,-1,0,-1,0,-1c0,-1,0,-1,0,-1c0,1,0,1,-1,1c0,0,-1,0,-1,0c0,0,0,-1,-1,-1c0,0,0,-1,0,-1l0,-1c0,0,1,-1,1,-1c0,-1,0,-1,0,-1c1,0,1,0,1,0c0,0,1,0,1,0l0,1c1,0,1,0,1,1l0,1l0,1c0,1,0,1,0,1c0,1,0,2,-1,2c0,1,0,1,0,1c-1,1,-1,1,-1,1ZM117.5,242.5l4,-2c0,1,0,1,0,1l-4,2ZM114.5,248.5c-1,1,-2,1,-3,2c-1,0,-2,1,-3,1c-1,0,-2,1,-3,1l-1,0l-1,0l-1,0c0,-1,0,-1,-1,-1l0,-1l0,-1l-1,1l0,1c-1,0,-1,0,-2,0c0,0,-1,0,-1,0l-1,0c0,0,-1,0,-1,0c-1,0,-1,0,-1,-1c0,0,0,-1,0,-1l0,-1l1,0c0,1,0,1,0,1l1,0l0,1l1,0c0,0,1,0,1,0c0,-1,1,-1,1,-1c0,0,1,0,1,0l0,-1l0,-1l0,-2l0,-1l1,-2l0,2c0,0,0,1,0,1l1,3l0,1l0,1c1,0,1,0,1,0l1,0l1,0l1,0c1,0,1,0,1,-1l0,-1c-1,0,-1,0,-1,-1c0,0,0,-1,0,-1c1,0,1,0,1,0c0,0,0,-1,0,-1l0,-1c1,0,1,0,1,0c0,0,1,0,1,-1c0,0,1,0,1,0l1,0l0,1c0,0,1,0,1,0l1,0c0,1,0,1,0,1l-1,0l-1,0l-1,0l-1,0l-1,0c0,0,0,1,0,1l-1,0c0,0,1,0,1,1c1,1,1,1,2,2l1,-1c1,0,1,0,1,0l1,0l1,-1ZM106.5,239.5l4,-3l0,1l-1,1l-4,2ZM90.5,243.5l-2,-1l-1,2l-1,-1l1,-2l1,1l1,-1l2,1ZM88.5,252.5l-1,0l-1,0l-1,0c0,-1,0,-1,0,-1c-1,0,-1,0,-1,0c0,-1,0,-1,0,-1c0,1,0,1,-1,1c0,0,-1,1,-1,1l-1,0l-1,0c-1,0,-1,-1,-2,-1c0,0,-1,-1,-1,-2l0,-8l1,-3l0,10l0,1l1,0c0,1,0,1,1,1l1,0l1,0c1,0,1,0,1,-1c0,0,1,0,1,0c0,0,0,-1,0,-1l0,1c0,0,1,1,1,1c1,0,1,0,1,0l1,0l1,0c0,0,1,0,1,0c1,0,1,-1,1,-1c0,0,0,-1,0,-1l-1,-1l1,-2c0,0,0,1,1,1l0,1l0,1l0,1c0,1,0,1,0,1l-1,1l-1,0c0,1,-1,1,-1,1ZM88.5,237.5l0,1c1,0,1,0,1,0l1,-1l0,1l1,0c0,0,0,-1,0,-1l0,-1l1,0l0,1l-1,0l0,1c0,0,0,1,0,1l-1,0l0,-1l0,1l-1,0c-1,0,-1,0,-1,0l0,-1l0,-1ZM92.5,234.5l-5,3c0,-1,0,-1,1,-1l5,-3ZM83.5,247.5l-1,-1l1,-1l1,1ZM80.5,239.5l5,-2l-1,0l0,1l-4,2ZM141.5,251.5l-1,0l-1,0l-1,-1l0,1c-1,0,-1,0,-1,0l-1,1l-1,0l-1,0c-1,0,-2,-1,-2,-1c-1,0,-1,-1,-1,-2l0,-8l1,-3l0,10l0,1c1,1,1,1,2,1l1,0l1,0c1,0,1,0,1,0l0,-1l1,-1c0,0,1,-1,1,-1c0,-1,1,-1,1,-1c0,0,1,0,1,1c0,0,0,1,1,1l0,1l0,1c-1,1,-1,1,-1,1ZM139.5,249.5l1,0l1,0c0,0,-1,0,-1,0c0,0,0,-1,0,-1c-1,0,-1,0,-1,0c0,0,0,1,0,1ZM136.5,239.5l4,-3l0,1l0,1l-4,2ZM184.5,248.5l-1,0c0,1,1,1,1,1c0,0,1,-1,1,-1c0,0,-1,0,-1,0ZM184.5,255.5c0,1,0,1,-1,1c-1,0,-1,0,-2,0c-1,0,-1,0,-2,0c0,0,-1,0,-1,0c0,0,0,-1,0,-1c0,0,1,0,1,1l1,0l1,0c0,-1,0,-1,0,-1l1,0c1,-1,1,-1,1,-1c1,0,1,-1,1,-1c0,0,1,0,1,-1c0,-1,0,-1,0,-1c0,-1,0,-1,0,-1c0,1,0,1,0,1c0,0,-1,0,-1,0l-1,0c0,0,0,-1,0,-1c-1,0,-1,0,-1,0c0,0,0,-1,0,-1l0,-1c1,0,1,-1,1,-1c0,-1,0,-1,1,-1c1,0,1,0,1,0l1,1l0,1l0,1l0,1c0,1,0,1,0,1c0,1,0,2,-1,2c0,1,0,1,0,1c0,1,-1,1,-1,1ZM181.5,242.5l4,-2c0,1,0,1,0,1l-4,2ZM169.5,252.5l0,-1l0,-2l0,-8l1,-3l0,11c0,0,0,1,0,1l0,1c0,0,-1,0,-1,1ZM164.5,243.5l-1,-1l-1,2l-1,-1l1,-2l1,1l1,-1l1,1ZM162.5,252.5l-1,0c0,0,-1,0,-1,0c0,-1,-1,-1,-1,-1c0,-1,0,-1,0,-1c-1,1,-1,1,-1,1c-1,0,-1,1,-2,1l-2,0c0,0,-1,-1,-2,-1c0,0,0,-1,0,-2l-1,-8l1,-3l1,10l0,1c0,1,1,1,1,1l2,0c0,0,1,0,1,0c0,0,1,0,1,-1c0,0,1,-1,1,-1l0,1c0,0,0,1,1,1l1,0l1,0c1,0,1,0,2,0c0,0,1,-1,1,-1c0,0,0,-1,0,-1c0,0,-1,0,-1,0l0,-1l1,-2c0,0,0,1,0,1l0,1l1,1l0,1l-1,0c0,1,0,1,0,1l0,1c0,0,-1,0,-1,0c-1,1,-1,1,-2,1ZM166.5,255.5l-4,2c0,-1,0,-1,0,-1l4,-2ZM158.5,247.5l-1,-1l0,-1l2,1ZM155.5,239.5l4,-2l0,1l-5,2ZM209.5,255.5c0,0,1,0,1,0c1,0,2,0,3,-1c1,0,1,-1,1,-1c1,0,1,-1,2,-1c0,-1,0,-1,0,-1c0,-1,0,-1,0,-1c0,0,0,-1,0,-1l0,-1l-1,0l0,-1l1,-1l0,1l1,1l0,1l0,1c0,0,0,1,0,1c0,0,0,1,0,1c-1,0,-1,0,-1,1c0,0,0,1,0,1c0,0,-1,0,-1,1l-1,0l-1,1c-1,0,-1,0,-1,0l-1,0c-1,0,-1,0,-1,0c0,-1,0,-1,-1,-1ZM212.5,242.5l4,-2c-1,1,-1,1,-1,1l-4,2ZM208.5,255.5l-1,-1l0,-1l2,1ZM206.5,252.5l-1,0l-1,0l-1,0c0,-1,0,-1,-1,-1c0,-1,0,-1,0,-1c0,1,-1,1,-1,1c-1,0,-1,1,-1,1l-1,0l-1,0c-1,0,-2,-1,-2,-1c-1,0,-1,-1,-1,-2l-1,-8l1,-3l1,10l0,1c1,1,1,1,2,1l1,0c1,0,1,0,1,0c1,0,1,0,1,-1l1,0c0,0,0,-1,0,-1l0,1c0,0,1,1,1,1c0,0,1,0,1,0l1,0l1,0l1,0c1,0,1,-1,1,-1c0,0,0,-1,0,-1l-1,-1l1,-2c0,0,0,1,0,1l1,0l0,1l0,1l0,1c0,1,0,1,0,1c0,0,-1,0,-1,1l-1,0c-1,1,-1,1,-1,1ZM205.5,239.5l0,1c0,1,1,1,1,1l0,-1l0,-1l1,0l0,1l1,0l0,-1l0,-1l0,1l0,1c0,1,0,1,0,1l-1,0l-1,0c0,1,0,1,0,1c-1,0,-1,0,-1,0c0,-1,0,-1,0,-1l0,-1ZM209.5,237.5l-5,2c0,-1,1,-1,1,-1l5,-3ZM201.5,247.5l-1,-1l1,-1l1,1ZM198.5,239.5l4,-2l0,1l-4,2ZM250.5,249.5c0,1,0,2,0,2c-1,0,-1,1,-1,1l0,1c0,0,-1,0,-1,0l1,1l-1,1l-1,0l0,1c0,0,-1,0,-1,1l-1,0l-1,0l-1,0l0,1l-1,0l0,1l-1,0l0,1l-4,0l-2,0l-2,0c0,-1,0,-1,-1,-1l-1,-1c0,0,0,-1,0,-1c-1,0,-2,0,-3,0l0,-1l-1,0l-1,-1l-1,-1l-1,0l1,-1l0,-1l-1,-1l0,-1l0,-1l0,-1c0,-1,0,-1,1,-2l0,-1l-1,0c0,0,0,-1,0,-1l1,0l1,-1l1,0l0,-1l1,0l1,-1l2,0l0,-1l1,-1c0,0,1,0,1,0l1,0l1,0l2,0l4,0l1,0l0,1l1,0l0,1l2,0l0,1l1,0l1,0l0,1l1,0c1,1,1,1,1,1l1,1c0,0,-1,0,-1,0l-1,0l1,0l0,1l0,1l1,0l0,1ZM241.5,259.5l1,-1l1,-1c1,0,1,0,1,0c1,0,1,0,1,0l0,-1c1,0,1,0,2,0l0,-1c1,0,1,0,1,0l0,-1l1,0l-1,-1l0,-1l1,0l0,-1l0,-1l0,-1c0,-1,0,-2,0,-2l0,-1l-1,0l0,-1l1,-1c0,0,-1,0,-1,-1l-1,0l-1,-1l-2,0l-1,-1c0,0,-1,0,-1,0l-1,-1l0,-1l-4,0l-1,0l-1,0l-1,0l-1,0l-1,1l-1,1l-2,1l-1,0l-1,0l0,1l-1,0c0,1,-1,1,-1,1l1,1l-1,1l0,1l-1,1c0,0,0,1,0,1l0,1l0,1l1,0l0,1l0,1l1,0l-1,1l1,1l1,0l0,1l1,0l1,1l2,0l1,1l0,1c1,0,1,0,1,0l1,0l3,0ZM246.5,244.5l0,1l-1,-1l-1,0l0,-1l-1,0l0,-1l1,0l0,1c1,0,1,0,1,0c1,0,1,0,1,1ZM247.5,254.5l-1,0l0,1l-1,0l0,1l-1,0l-1,0c0,-1,0,-1,0,-1c1,0,1,0,1,0l1,0c0,-1,1,-1,1,-1ZM242.5,256.5c0,0,0,1,0,1l-1,0l-4,0l-2,0l-2,0c0,0,-1,0,-1,0c0,-1,0,-1,0,-1c0,0,0,-1,0,-1l1,0l1,0l3,0l4,0l1,0l0,1ZM242.5,242.5c0,0,0,1,0,1l-1,0l-4,0l-2,0l-1,0l-1,0c0,0,-1,0,-1,0l0,-1l0,-1l1,0l1,0l1,0l2,0l4,0c1,0,1,0,1,0c0,0,0,1,0,1ZM241.5,245.5l1,-1l1,0l1,1l1,0l0,1l1,-1c0,0,0,1,1,1l0,1l0,1l1,1l0,1l-1,0l0,1l0,1c0,0,-1,1,-1,1l-1,-1c0,0,0,1,0,1l-1,0l0,1l-1,0l-1,0c-1,0,-1,0,-1,-1l-4,0l-2,0l-2,0l0,1l-1,0l-1,0c0,0,-1,0,-1,0c0,0,-1,-1,-1,-1l0,-1l-2,1l0,-1l-1,-1l0,-1l0,-1c0,0,0,-1,0,-1l0,-1l1,0l0,-1c0,0,0,-1,1,-1l1,1l0,-1l1,0c0,-1,1,-1,1,-1c1,0,1,0,1,0l1,1l1,0l1,0l2,0ZM241.5,253.5l1,1l1,0c0,0,1,0,1,-1l1,-1l1,0l1,0l0,-1l0,-1l0,-1c0,0,0,-1,0,-1c0,-1,0,-1,0,-2c-1,0,-1,0,-1,0l-1,0l-1,-1l-1,0l0,-1c-1,0,-1,1,-1,1l-1,0l-4,0l-2,0l-1,0l-1,0l-1,0l-1,-1c0,0,0,1,0,1c-1,0,-1,0,-1,0l-1,0l0,1l-1,0c0,0,-1,0,-1,0l0,1l0,1l-1,1c0,1,0,1,0,1l1,0l0,1c0,1,0,1,1,1l1,0l0,1l1,0l0,1l1,0c1,0,1,0,1,0c0,-1,1,-1,1,-1l1,0l3,0l4,0ZM239.5,249.5l0,1l0,1c0,0,0,1,0,1c0,0,0,-1,0,-1c0,-1,-1,-2,-1,-3l0,-1l0,1l1,0c1,0,1,0,1,0l0,-1c0,0,0,1,0,1c1,0,1,0,1,0c0,-1,0,-1,0,-1l0,1c0,0,0,1,-1,1l0,-1c0,1,-1,1,-1,1ZM236.5,247.5l0,1l0,1l1,0c0,1,0,1,0,1l0,1l0,1c0,0,-1,-1,-1,-3l-1,0c0,-1,0,-1,0,-1c0,-1,0,-1,1,-1ZM235.5,248.5l0,1l1,-1l-1,0ZM233.5,247.5l1,1c0,1,0,1,0,1l0,1l0,1c0,0,0,1,0,1l0,-1c0,-1,0,-2,-1,-3ZM227.5,244.5l1,0l0,-1l1,0l1,-1l1,0l0,1c-1,0,-1,0,-1,0c-1,0,-1,0,-1,1l-1,0l0,1l0,-1l-1,0ZM227.5,254.5l1,0l1,1l1,0l1,0c0,0,-1,0,-1,1l1,0l-1,0c-1,0,-2,-1,-2,-1l-1,-1ZM297.5,252.5l0,-1l0,-2l0,-8l1,-3l0,11c0,0,0,1,0,1l0,1c0,0,-1,0,-1,1ZM286.5,237.5l-1,0l-3,2l0,-1c0,0,1,0,1,0c-1,-1,-1,-1,-1,-2c0,-1,1,-1,1,-2l1,0c0,0,1,0,1,0c0,0,0,1,0,1l0,1l-1,0l0,-1c-1,0,-1,1,-1,1l0,1l1,0l1,0l1,0ZM291.5,250.5l0,1c-1,0,-1,0,-1,0c1,0,1,0,1,0l1,0c-1,0,-1,0,-1,-1ZM292.5,253.5c0,0,-1,0,-1,0c-1,0,-1,0,-1,0c-1,0,-1,0,-2,0c0,0,-1,0,-1,0l0,-1l0,-1l1,0c0,0,1,0,1,0c0,0,0,-1,1,-1c0,0,0,-1,0,-1l0,-1c0,0,-1,0,-1,-1c0,0,-1,-1,-1,-1c0,-1,-1,-1,-2,-2c-1,-1,-1,-1,-1,-1c0,0,-1,0,-1,0c-1,0,-1,0,-1,-1l0,-1c0,-1,0,-1,0,-1l0,-1c1,1,1,1,2,1c0,1,1,1,1,2c1,1,2,1,2,2c1,0,1,1,2,2c0,0,0,1,1,1c0,1,0,1,0,1c0,0,0,-1,0,-1c1,-1,1,-1,1,-2c0,-1,0,-1,0,-2c0,0,0,-1,0,-1c0,-1,0,-1,0,-2c0,-1,0,-1,0,-1c0,-1,0,-1,0,-1c1,0,1,0,1,0c-1,0,-1,0,-1,0c0,1,1,1,1,1l1,1l-1,1c0,0,0,1,0,1c0,0,0,1,0,1c0,1,0,1,0,2l0,1c-1,0,-1,1,-1,2c0,0,0,1,0,1c0,0,0,1,0,1c0,1,0,1,0,1c0,1,0,1,0,1l0,1ZM282.5,233.5l4,-2l0,1c0,0,-1,0,-1,0l-4,2ZM292.5,234.5c0,0,0,-1,1,-1l1,0l1,0c0,0,0,1,0,1c0,0,0,1,0,1c-1,0,-1,0,-1,0l0,1c-1,0,-1,0,-1,0l-1,0l1,-1c1,0,1,0,1,-1l-1,0l-1,0l0,1l0,-1ZM279.5,255.5l-2,-1l1,-1l2,1ZM276.5,250.5c1,0,1,0,2,0c0,0,1,-1,1,-1c0,0,0,-1,0,-1l-1,-1l1,-2c0,0,0,1,0,1l0,1l1,0l0,1l0,1c0,1,0,1,-1,1l0,1c0,0,-1,0,-1,0c-1,1,-1,1,-2,1l-1,0l0,-1l0,1l0,1c-1,0,-1,1,-1,2c0,0,-1,0,-1,1c-1,1,-1,1,-2,1c-1,0,-1,0,-1,0l-1,0c0,0,-1,0,-1,0c-1,0,-1,0,-1,-1l1,0c1,0,1,0,2,0c0,0,1,0,1,0c0,-1,1,-1,1,-1c0,0,0,-1,0,-1c1,0,1,0,1,-1c0,0,1,-1,1,-1c0,0,0,-1,0,-1c0,0,-1,0,-1,0c0,0,0,-1,0,-1l0,-1l1,0l0,1c1,0,1,0,1,0ZM97.5,235.5c1,0,1,0,2,0c0,0,1,0,1,0c1,0,1,0,1,0c0,0,0,1,0,1c0,0,-1,0,-1,1l-1,0c-1,1,-1,1,-1,1l-1,0l0,-1l1,0c1,0,2,-1,2,-1c0,0,-1,0,-1,0l-1,0l-1,0l-1,0c0,-1,0,-1,1,-1ZM276.5,241.5l1,-1l1,0c0,0,1,0,1,0c1,1,1,1,1,1c0,1,-1,1,-1,1c0,1,0,1,0,1c-1,0,-1,0,-1,0c-1,0,-1,0,-1,0l-1,0l1,0c1,-1,2,-1,2,-1c0,0,-1,0,-1,0c0,-1,0,-1,-1,-1c0,0,0,1,-1,1l-1,0c0,0,0,-1,0,-1c0,0,1,0,1,0ZM270.5,239.5l4,-3l0,1l0,1l-4,2ZM266.5,252.5l0,-1l0,-2l-1,-8l1,-3l1,11c0,0,0,1,0,1l0,1c-1,0,-1,0,-1,1ZM255.5,255.5l1,0c1,0,2,0,3,-1c0,0,1,-1,1,-1c1,0,1,-1,1,-1c1,-1,1,-1,1,-1c0,-1,0,-1,0,-1c0,0,0,-1,0,-1l-1,-1l0,-1l1,-1l0,1l0,1l1,0l0,1l0,1c0,0,0,1,0,1c0,0,-1,1,-1,1l0,1c0,0,0,1,0,1c-1,0,-1,0,-1,1c0,0,-1,0,-1,0l-1,1l-1,0l-1,0c0,0,-1,0,-1,0c0,-1,-1,-1,-1,-1ZM261.5,259.5l-4,3c0,-1,0,-1,1,-2l4,-2ZM322.5,251.5l-1,0c0,0,-1,0,-1,0l-1,-1l0,1l-1,0l0,1l-1,0l-1,0c-1,0,-1,0,-2,-1l-1,0l-1,-1c0,0,-1,-1,-1,-1c-1,1,-1,1,-1,1c-1,0,-1,1,-1,1l-1,0c0,1,0,2,-1,2c0,1,0,1,0,2c0,1,0,1,0,1l0,1c0,0,1,1,1,2c1,0,1,0,1,0l1,0c0,0,0,1,0,1l1,0l1,0c0,0,1,0,1,0l1,0c1,0,2,0,2,0l1,0l1,0l1,0l-4,2c0,0,-1,0,-2,0c0,0,-1,0,-1,0c-1,0,-1,0,-2,0c0,0,-1,-1,-1,-1c-1,0,-1,-1,-1,-1c-1,0,-1,-1,-2,-2l0,-1c0,-1,0,-1,0,-1c0,-1,0,-2,0,-2c0,0,0,-1,0,-1l1,0c0,0,0,-1,0,-1c0,0,1,-1,1,-1c0,0,0,-1,1,-1c0,0,0,-1,0,-1l1,-1c0,0,-1,0,-1,0c0,-1,0,-1,-1,-1l1,-1c1,0,1,-1,1,-1l1,0c1,0,1,0,1,0l1,0c0,1,0,1,0,1c1,0,1,0,1,0c0,0,0,1,0,1c0,1,-1,1,-1,1l-1,1c1,0,1,0,1,0c0,0,1,1,1,1l1,0l1,0l1,0c1,0,1,0,1,0l1,-1l0,-1c1,0,1,-1,1,-1l1,0c0,-1,0,-1,0,-1c1,0,1,0,1,1c1,0,1,1,1,1l0,1l0,1c0,1,0,1,-1,1ZM320.5,249.5l1,0l1,0c0,0,0,-1,0,-1c0,0,-1,0,-1,0c0,0,-1,0,-1,0c0,0,0,1,0,1ZM318.5,239.5l4,-3l-1,1l0,1l-4,2ZM309.5,239.5l4,-3l0,1l0,1l-4,2ZM367.5,248.5l-1,0c1,1,1,1,1,1l1,0c0,0,0,-1,0,-1c0,0,-1,0,-1,0ZM367.5,255.5c0,1,0,1,0,1c-1,0,-1,0,-1,0c-1,0,-1,0,-2,0c-1,0,-1,0,-2,0l-1,0c0,0,0,-1,0,-1l1,0l0,1c1,0,1,0,1,0c0,0,1,0,1,0c0,-1,0,-1,0,-1c1,0,1,0,1,0l1,0c0,-1,0,-1,1,-1c0,0,0,-1,0,-1c1,0,1,0,1,-1c0,-1,1,-1,1,-1c0,-1,0,-1,0,-1l-1,0c0,1,0,1,0,1c0,0,-1,0,-1,0c0,0,-1,0,-1,0c0,0,0,-1,0,-1c-1,0,-1,-1,-1,-1l1,-1c0,0,0,-1,0,-1c0,-1,1,-1,1,-1l1,0c0,0,1,0,1,1l0,1l0,1l0,1c0,1,0,1,0,1c0,1,0,2,0,2c-1,1,-1,1,-1,1c0,1,-1,1,-1,1ZM364.5,242.5l5,-2l-1,0c0,1,0,1,0,1l-4,2ZM360.5,243.5l-1,-1l-1,2l-1,-1l1,-2l1,1l1,-1l1,1ZM358.5,252.5l-1,0l-1,0l-1,1l0,1c0,0,0,1,-1,1c0,0,0,1,-1,1l0,1c-1,0,-1,0,-1,0c0,0,-1,0,-1,0l-1,0c0,0,-1,0,-2,0c0,0,0,-1,0,-1l1,0c1,0,1,0,2,0l1,-1l1,0c0,-1,0,-1,0,-1c1,0,1,-1,1,-1l0,-1c1,0,1,0,1,0c0,0,-1,0,-1,0c-1,0,-1,0,-1,0c0,-1,0,-1,0,-1c-1,0,-1,0,-1,-1c0,-1,0,-1,0,-1l0,-1c1,0,1,0,1,0c0,-1,0,-1,0,-1c1,0,1,0,1,0l1,0l0,1c0,0,1,1,1,1c0,0,0,1,0,1c0,0,1,0,1,0l1,0c1,0,1,0,2,0c0,0,1,-1,1,-1c0,0,0,-1,0,-1c0,0,-1,0,-1,0l0,-1l1,-2c0,0,0,1,0,1l0,1l1,1l0,1c-1,1,-1,1,-1,1l0,1c0,0,-1,0,-1,0c-1,1,-1,1,-2,1ZM358.5,235.5l4,-2l0,1l-4,2ZM354.5,249.5c-1,0,-1,0,-1,0l0,1c1,0,1,0,1,0c1,0,1,0,1,0l0,-1c-1,0,-1,0,-1,0ZM350.5,242.5l4,-2c0,1,0,1,0,1l-4,2ZM345.5,242.5l-2,-1l1,-1l2,1ZM347.5,250.5c0,0,0,1,-1,1c0,0,-1,0,-1,0c-1,1,-2,1,-2,1l-1,0c0,0,-1,0,-1,0c0,-1,-1,-1,-1,-1c0,-1,0,-1,0,-1c0,1,-1,1,-1,1c-1,0,-1,1,-1,1l-1,0l-1,0c-1,0,-2,-1,-2,-1c-1,0,-1,-1,-1,-2l-1,-8l1,-3l1,10l0,1c1,1,1,1,2,1l1,0c0,0,1,0,1,0c0,0,1,0,1,-1c1,0,1,-1,1,-1l0,1c0,0,0,1,1,1c0,0,1,0,1,0l1,0c1,0,1,0,2,0c0,0,1,-1,1,-1c1,0,1,0,1,0c0,0,0,-1,0,-1c0,0,0,-1,-1,-1c0,0,0,1,0,1c-1,0,-1,0,-1,0c0,0,-1,0,-1,0l-1,-1c0,-1,0,-1,0,-2l1,0c0,-1,0,-1,0,-1c0,-1,1,-1,1,-1c1,0,1,0,1,1c0,0,1,0,1,1l0,1l1,1c0,0,0,1,0,1c0,1,0,1,-1,1c0,0,0,1,0,1ZM344.5,245.5l0,1l1,0c1,0,1,0,1,0l0,-1c-1,0,-1,0,-1,0c-1,0,-1,0,-1,0ZM344.5,234.5c0,1,0,1,1,1c0,-1,0,-1,0,-1l0,-1l1,0l0,1c1,0,1,0,1,-1l0,-1l0,1l0,1c0,1,0,1,0,1l-1,0l-1,0c0,1,0,1,-1,1c0,0,0,-1,0,-1l0,-1ZM348.5,231.5l-5,3c0,-1,0,-2,0,-2l6,-3ZM339.5,247.5l-1,-1l0,-1l2,1ZM336.5,239.5l4,-2l0,1l-4,2ZM410.5,250.5l-1,0l0,1c0,0,-1,0,-1,0c0,0,0,1,-1,1l-1,0c0,0,-1,0,-1,0c0,0,0,-1,-1,-1c0,0,0,-1,0,-1c0,0,-1,0,-1,0c0,1,0,1,0,1c-1,0,-1,0,-2,1l-1,0l-1,0c-1,0,-2,-1,-2,-1c-1,0,-1,-1,-1,-2l-1,-8l1,-3l1,10l0,1c1,1,1,1,2,1l1,0c1,0,1,0,1,0c1,0,1,0,2,-1c0,0,1,0,1,0c0,0,1,1,1,1c0,0,1,0,1,0l1,0c1,0,1,0,1,0c1,0,1,0,1,-1c0,0,1,0,1,-1l0,1l1,1c1,0,1,0,2,0c0,-1,0,-1,0,-1c1,0,1,0,1,0c0,0,0,-1,0,-1l1,-1l0,1l0,1l0,1l1,0l1,0c0,0,0,-1,0,-1l-1,0l1,-2c0,1,0,1,0,1l0,1l0,1l0,1c0,0,-1,1,-1,1c-1,0,-1,0,-1,-1l-1,0l0,-1l0,1l-1,0l-1,1c0,0,-1,0,-1,0c0,0,-1,-1,-1,-1c0,-1,0,-1,0,-1ZM410.5,239.5l4,-3l0,1l0,1l-4,2ZM405.5,255.5l-2,-1l-1,1l-1,-1l1,-1l1,1l1,-1l1,0ZM402.5,240.5l0,1l1,0l0,-1l1,0c0,0,0,1,0,1c1,0,1,-1,1,-1l0,-1l0,1l0,1c0,0,0,1,0,1l-1,0l-1,0c0,0,0,1,-1,1c0,0,0,-1,0,-1l0,-1l0,-1ZM405.5,259.5l-4,3c0,-1,0,-1,0,-2l4,-2ZM391.5,243.5l-1,-1l-1,2l-1,-1l0,-2l2,1l1,-1l1,1ZM389.5,252.5l-1,0c0,0,-1,0,-1,0c0,-1,-1,-1,-1,-1c0,-1,0,-1,0,-1c-1,1,-1,1,-2,1c0,0,0,1,-1,1l-1,0l-1,0c-1,0,-1,-1,-2,-1c0,0,0,-1,0,-2l-1,-8l1,-3l0,10l1,0l0,1c0,1,1,1,1,1l1,0l1,0c0,0,1,0,1,0c0,0,1,0,1,-1c0,0,0,-1,1,-1l0,1c0,0,0,1,1,1l1,0l1,0c1,0,1,0,2,0c0,0,0,-1,1,-1c0,0,0,-1,0,-1c-1,0,-1,0,-1,0l0,-1l1,-2c0,0,0,1,0,1l0,1l0,1l1,0l0,1l-1,0c0,1,0,1,0,1l0,1c0,0,-1,0,-2,0c0,1,0,1,-1,1ZM393.5,255.5l-4,2c0,-1,0,-1,0,-1l4,-2ZM385.5,247.5l-2,-1l1,-1l2,1ZM382.5,239.5l4,-2l-1,1l-4,2ZM72.5,202.5c-1,0,-1,1,-2,1c-1,1,-3,1,-4,2c-1,0,-2,0,-3,0c-1,0,-1,0,-1,0c-1,0,-1,0,-1,0c0,-1,-1,-1,-1,-1c0,0,0,1,-1,1c0,0,-1,0,-1,0l-1,0l-1,0c-1,0,-1,0,-2,0c0,-1,-1,-2,-1,-2l0,-9l1,-2l0,10l0,1l1,0c0,0,0,1,1,1l1,0l1,0l1,-1c1,0,1,0,1,0c0,-1,0,-1,0,-1l1,0l0,1c1,0,1,1,2,1l1,0l0,-1c1,0,1,0,2,0c-1,0,-1,-1,-1,-1c0,0,0,-1,0,-1c0,-1,0,-1,0,-1l0,-1c0,-1,0,-1,0,-1c0,0,1,0,1,0l0,-1c1,0,1,0,1,0c0,0,1,0,1,0c1,0,1,0,1,0c1,0,1,0,1,0c0,0,0,1,0,1c1,0,1,0,1,0l0,1l-1,-1l-1,0l-1,0l-1,0c0,1,0,1,-1,1l0,1c0,0,0,1,0,1c1,1,2,1,2,1c0,0,1,0,1,0l1,0l0,-1l1,0l1,0l1,-1ZM64.5,192.5l4,-2l0,1l-1,0l-4,2ZM59.5,201.5l-1,-1l1,-2l1,1ZM59.5,191.5l0,1c1,0,1,0,1,0c0,0,0,-1,0,-1l0,-1l1,0l0,1c1,0,1,0,1,-1l0,1l0,1l-1,0l-1,0l0,1l-1,0l0,-1l0,-1ZM63.5,188.5l-5,3c0,-1,0,-2,0,-2l6,-2ZM126.5,201.5l-1,1c0,0,1,0,1,0c0,0,1,0,1,0c-1,0,-1,0,-1,0c0,-1,0,-1,0,-1ZM126.5,209.5l-1,0c0,1,0,1,0,1c-1,0,-1,0,-2,0c-1,0,-1,0,-2,0c0,-1,-1,-1,-1,-1c0,0,1,0,1,0l1,0c1,0,1,0,1,0l1,0c0,0,0,-1,0,-1c1,0,1,0,1,-1c1,0,1,0,1,0c0,0,1,-1,1,-1c0,-1,0,-2,0,-2c0,0,-1,0,-1,0c0,0,-1,0,-1,0c-1,0,-1,0,-1,-1l0,-1c0,-1,1,-1,1,-2l1,0c0,-1,0,-1,0,-1c1,0,1,0,1,0c0,1,0,1,1,1c0,0,0,1,0,1c0,0,0,1,0,1c0,1,0,1,0,1c0,1,0,1,0,1c0,1,0,2,-1,3c0,0,0,1,0,1c-1,0,-1,1,-1,1ZM123.5,195.5l4,-2l0,1l-4,2ZM118.5,204.5c0,0,-1,0,-2,0c-1,0,-2,0,-4,0c-1,0,-2,1,-2,1c0,0,-1,0,-1,0c-1,0,-1,0,-1,0c-2,0,-3,0,-5,0c-1,0,-2,0,-3,0c-1,0,-2,0,-3,0l-1,0l-1,0l-1,0c-1,0,-2,0,-2,0c-1,0,-1,0,-1,-1c-1,1,-1,1,-2,1c0,0,-1,0,-1,0l-1,0l-1,0c0,1,0,1,0,1c0,1,-1,2,-1,2c0,1,0,1,0,1c-1,0,-1,1,-1,1c-1,0,-1,0,-1,1c-1,0,-1,0,-1,0c0,0,-1,0,-1,0l-1,0l-1,-1c0,0,-1,0,-1,0c0,0,1,0,1,0l1,0l1,0c0,0,1,-1,1,-1c1,0,1,0,1,0c0,-1,0,-1,1,-1c0,-1,0,-1,0,-1c1,-1,1,-1,1,-1c0,-1,0,-1,0,-1c0,0,0,-1,0,-1c-1,0,-1,0,-1,0l0,-1c1,0,1,0,1,0c0,-1,0,-1,0,-1c0,1,0,1,0,1l1,0l1,1l1,0l0,-1c0,0,1,0,1,0l0,-1c0,0,0,-1,0,-1c1,-1,1,-1,1,-2l1,0c0,-1,1,-1,1,-1c1,0,1,0,1,1c0,0,1,0,1,1l0,1c0,0,0,1,-1,1c0,1,0,1,0,1l1,1l1,0l1,0c1,0,1,0,1,0l1,0c1,0,2,0,3,-1c1,0,2,0,3,0c1,0,2,0,4,0l2,0c0,0,1,0,3,0c1,0,2,0,4,-1c1,0,2,0,2,0l1,0c0,0,-1,0,-1,0c0,-1,0,-1,0,-1c-1,0,-1,0,-1,0c0,0,-1,0,-1,0c-1,0,-3,0,-5,0c-1,0,-3,0,-5,1c-2,0,-4,0,-5,0c-2,0,-3,0,-3,-1c0,0,-1,0,-1,0c0,-1,0,-1,1,-2c0,0,0,-1,0,-1c0,0,1,0,1,-1c1,-1,2,-1,3,-2c1,-1,2,-1,2,-1c0,-1,1,-1,1,-1l0,2c-1,0,-1,0,-2,1c-1,0,-1,1,-2,1c-1,1,-2,2,-2,2c0,0,0,1,0,1c-1,0,0,0,0,0c0,0,1,0,1,0c0,0,1,0,1,0c0,0,1,0,1,0c1,0,3,0,4,0c2,0,4,0,6,-1c2,0,3,0,4,0c1,0,2,0,2,1c1,0,1,0,1,0l0,1l0,1c0,0,0,1,0,1c0,1,0,1,0,1ZM103.5,189.5l5,-3c0,1,0,2,0,2l-6,3ZM91.5,197.5l-1,-1l1,-1l1,1ZM92.5,200.5c-1,0,-1,0,-1,0c-1,0,-1,1,-1,1l0,1c0,0,1,0,1,0c1,0,1,0,1,0c0,0,1,0,1,-1l-1,-1ZM158.5,145.5l0,1c1,0,1,0,1,0c0,0,0,-1,0,-1l1,0l0,-1l0,1l1,0l0,-1l0,-1l0,1l1,0l0,1l-1,0l0,1l-1,0l-1,1c-1,0,-1,0,-1,0l0,-1l0,-1ZM91.5,188.5c0,1,0,1,0,1l1,0c0,-1,0,-1,0,-1l0,-1l1,1l1,-1l0,-1l0,1l0,1c0,1,0,1,-1,1l-1,0c0,1,-1,1,-1,1l-1,0c0,-1,0,-1,0,-1l0,-1l1,0ZM91.5,208.5l-4,2c0,0,1,0,1,-1l4,-2ZM80.5,194.5c1,0,1,0,1,0c1,0,1,0,2,0c0,0,1,0,1,0c0,0,1,0,1,1c-1,0,-1,1,-1,1l-1,0c0,1,0,1,0,1c-1,0,-1,0,-1,0l-1,0l1,-1c1,0,1,0,2,-1c0,0,-1,0,-1,0l-1,0c0,0,-1,0,-1,0l-1,1l0,-1l0,-1ZM170.5,194.5l-1,0l1,-2l1,1ZM174.5,204.5l-1,1c-1,0,-1,0,-2,0l-1,0l-1,0l-1,0l0,-1l0,-1c0,0,1,0,1,0c1,0,1,0,2,0c0,0,1,0,1,0c0,0,1,0,1,0l1,-1l-1,-1l0,-1l-1,0l-1,-1l-1,0l1,-2l1,0c0,1,0,1,1,1c0,1,1,1,1,1c0,1,0,1,0,2l0,1c1,0,1,0,1,0c0,1,0,1,-1,1c0,0,0,1,0,1ZM168.5,186.5c0,0,1,-1,1,-1l1,0c0,0,1,0,1,1l-1,1l0,1l1,0l0,1l-2,0c-1,1,-1,1,-1,1l-1,0l-1,0l1,0l0,-1c1,0,1,0,1,0l1,-1l-1,0c0,0,0,-1,0,-1c0,0,0,-1,0,-1ZM169.5,186.5l0,1l1,0c0,-1,0,-1,0,-1ZM162.5,198.5l-1,-1l1,-1l1,1ZM162.5,205.5l-1,0l-2,0c0,1,0,1,0,1c0,1,0,1,0,1c-1,1,-1,1,-1,2c0,0,-1,0,-1,1l-1,0c-1,0,-1,1,-1,1c0,0,-1,0,-1,0c-1,0,-1,-1,-2,-1l-1,0l0,-1c1,1,1,1,1,1l1,0c0,0,1,0,1,0c1,-1,1,-1,1,-1c1,0,1,-1,1,-1c1,0,1,0,1,-1l1,0c0,-1,0,-1,0,-1c0,-1,0,-1,0,-1c0,0,-1,0,-1,0c0,0,-1,0,-1,0c0,0,0,-1,0,-1c0,0,-1,0,-1,0c0,-1,0,-1,0,-1c1,0,1,0,1,0c0,0,0,-1,0,-1l0,-1c0,0,1,0,1,0c0,-1,0,-1,1,-1l0,1c0,0,1,0,1,0c0,0,0,1,0,1c0,1,0,1,0,2c1,0,1,0,2,0l1,0c0,0,1,-1,1,-1c1,0,1,0,1,0c0,0,1,0,1,0l0,-1c-1,0,-1,0,-1,0c0,-1,0,-1,0,-1l0,-2c1,0,1,0,1,1l0,1l0,1l0,1l0,1c-1,1,-1,1,-2,1c0,0,-1,0,-1,0ZM162.5,189.5c0,0,1,0,1,0c0,-1,0,-1,1,-1c0,0,0,1,0,1c0,0,0,1,0,1c0,1,0,1,0,1l1,0l-1,2l-1,-1l-1,1l0,1l-1,0l-1,0l1,-1c0,0,1,0,1,-1l1,0l-1,-1l0,-1l0,-1ZM163.5,190.5l0,-1l0,1l1,1l0,-1l-1,0ZM157.5,202.5c0,0,0,1,0,1c-1,0,-1,0,-1,0l1,0c0,0,1,0,1,0c0,0,0,-1,0,-1c-1,0,-1,0,-1,0ZM150.5,209.5l-1,-1l0,-1l2,1ZM147.5,205.5l-1,0l-1,0l-1,0c0,-1,0,-1,0,-1c0,0,-1,1,-1,1c-1,0,-1,0,-2,0l-1,0c-1,0,-2,0,-2,0c-1,-1,-1,-2,-1,-2l-1,-9l1,-2l1,10l0,1c1,0,1,1,2,1l1,0c1,0,1,0,1,-1c1,0,1,0,1,0l1,0c0,-1,0,-1,0,-1l0,1c0,0,1,0,1,0c0,0,1,1,1,1l1,0c1,0,1,-1,2,-1c0,0,1,0,1,0l0,-1c0,0,0,-1,0,-1l-1,0l1,-2l0,1l1,0l0,1l0,1l0,1l0,1c0,0,-1,0,-1,0c0,1,0,1,-1,1c-1,0,-1,0,-2,0ZM147.5,192.5l5,-2l-1,1l-4,2ZM143.5,201.5l-1,-1l1,-2l1,1ZM140.5,192.5l4,-2l0,1l-4,2ZM194.5,204.5c1,0,1,0,1,0c0,-1,1,-1,1,-1c0,0,1,0,1,0l0,-1l0,-2l-1,-6c0,-1,0,-1,0,-1c0,0,0,-1,0,-1c0,0,1,0,1,-1c0,1,0,1,0,1l0,1c0,0,1,0,1,0c0,0,0,1,0,1c0,0,0,1,0,1l-1,0c0,0,0,1,0,2c0,0,1,1,1,2c0,1,0,1,0,2l0,1l0,1c0,0,-1,0,-1,1l0,1c0,0,-1,0,-1,0l-1,0l-1,0l-1,0l-1,0c-1,-1,-1,-1,-1,-1l-1,0c0,1,-1,1,-1,1c-1,0,-1,0,-1,0l-1,0l-1,0c-1,0,-2,0,-2,0c-1,-1,-1,-2,-1,-2l-1,-9l1,-2l1,10l0,1c1,0,1,1,2,1l1,0c1,0,1,0,1,-1c1,0,2,0,2,0l1,0c0,-1,0,-1,0,-1c1,0,1,0,1,1c1,0,1,1,1,1l1,0ZM195.5,189.5l4,-2l0,1l-4,2ZM190.5,201.5l-1,-1l1,-2l1,1ZM188.5,195.5l4,-2l0,1l-4,2ZM241.5,196.5l-1,-1l0,-2l2,1ZM243.5,203.5l0,1l-1,0c0,1,0,1,-1,1c-1,0,-1,0,-2,0l-1,0l-1,0c-1,0,-1,0,-2,0c0,-1,-1,-2,-1,-2l0,-9l1,-2l0,10l1,1c0,0,0,1,1,1l1,0l1,0c1,0,1,0,2,-1c1,0,1,0,2,0c0,0,0,-1,0,-1l0,-1c0,0,-1,0,-1,0l0,1c0,0,-1,0,-1,0c0,0,-1,0,-1,0c0,-1,0,-1,0,-1c-1,0,-1,-1,-1,-1c0,0,0,-1,1,-1l0,-1l0,-1c1,0,1,0,1,0c1,0,1,0,1,0c1,0,1,1,1,1l0,1l1,1c0,1,0,1,0,2c0,0,0,1,0,1c0,0,-1,0,-1,0ZM240.5,199.5l0,1c0,0,1,0,1,0c1,0,1,0,1,0c0,-1,0,-1,0,-1c-1,0,-1,0,-1,0l-1,0ZM239.5,189.5l5,-2l-1,1l-4,2ZM225.5,196.5l-1,-1l1,-2l1,1ZM231.5,202.5c-1,0,-2,1,-3,1c-1,1,-2,1,-3,2c-1,0,-2,0,-3,0l-1,0l-1,0l-1,0c-1,0,-1,0,-2,0l-1,-1c0,1,-1,1,-1,1c-1,0,-1,0,-2,0l-1,0l-1,0c0,1,0,1,0,1c0,1,0,2,0,2c-1,1,-1,1,-1,1c0,0,0,1,-1,1l-1,1l-1,0l-1,0c0,0,-1,0,-2,-1l-1,0l1,0l1,0c1,0,1,0,2,0c0,0,0,-1,1,-1c1,-1,1,-1,1,-1c0,-1,1,-1,1,-1c0,-1,0,-1,1,-1c0,-1,0,-1,0,-1l-1,0c0,0,0,-1,0,-1l0,-1c0,-1,0,-1,0,-1c1,1,1,1,1,1c0,0,1,0,1,0l0,1l1,0c1,0,1,0,1,-1c0,0,1,0,1,0l0,-1c0,0,0,-1,0,-1c0,-1,0,-1,0,-2c1,0,1,0,1,0c1,-1,1,-1,2,-1c0,0,1,0,1,1l0,1l0,1c0,0,0,1,0,1c0,1,-1,1,-1,1l1,0l0,1c0,0,1,0,1,0l1,0l1,0l0,-1l1,0c0,0,1,0,1,0c0,0,0,-1,-1,-1c0,0,0,-1,0,-1c0,-1,0,-1,0,-1l0,-1c1,0,1,0,1,0c0,0,0,-1,0,-1c0,0,1,0,1,-1l1,0l1,0l1,0c1,0,1,1,1,1l1,0l-1,1l0,-1l-1,0l-1,0l-1,0l-1,1c0,0,-1,0,-1,0l0,1c1,0,1,1,1,1c1,1,1,1,2,1l1,0c0,0,1,0,1,-1l1,0l1,-1ZM222.5,187.5c1,0,1,0,2,0c0,0,1,0,1,0c1,0,1,0,1,1c0,0,-1,0,-1,1l-1,0c0,0,0,1,0,1c-1,0,-1,0,-1,0l-1,0l1,-1c1,0,2,0,2,-1c0,0,-1,0,-1,0l-1,0l-1,0l-1,0c0,0,0,-1,1,-1ZM217.5,197.5l-1,-1l1,-1l1,1ZM217.5,200.5c0,0,-1,0,-1,0c0,0,0,1,-1,1c0,0,1,0,1,1l1,0c0,0,1,0,1,0l0,-1l0,-1c0,0,-1,0,-1,0ZM217.5,208.5l-4,2l0,-1l4,-2ZM154.5,194.5c0,-1,0,-1,1,-1c0,0,1,0,1,0c1,0,1,0,1,0c1,0,1,1,1,1c0,0,0,1,-1,1l0,1l-1,0c0,0,-1,0,-1,0c-1,0,-1,0,-1,0l2,-1c0,0,1,0,1,0c0,-1,0,-1,-1,-1c-1,0,-1,0,-2,0c0,0,0,1,0,1l0,-1ZM206.5,194.5l1,0c0,0,1,0,1,0c1,0,1,0,2,0l0,1c0,0,0,1,0,1c-1,0,-1,0,-1,0c0,1,0,1,0,1c-1,0,-1,0,-1,0c0,0,-1,0,-1,0c0,0,-1,0,-1,0l2,-1c0,0,1,0,1,-1c-1,0,-1,0,-1,0c-1,0,-1,0,-1,0c-1,0,-1,0,-1,1l0,-1l0,-1ZM267.5,209.5l0,-1c0,0,1,0,1,0l0,1c1,0,2,-1,3,-1c1,-1,1,-1,1,-1c1,-1,1,-1,2,-2l0,-1l0,-1l0,-1l-1,0l0,-1l0,-1l1,-1l0,1c0,0,0,1,1,1l0,1l0,1c0,1,0,1,0,2c0,0,0,1,0,1c-1,0,-1,0,-1,0c0,1,0,1,0,1c0,1,-1,1,-1,1c0,0,0,1,-1,1l-1,0c-1,0,-1,0,-1,0l-1,0c-1,0,-1,0,-1,0l-1,0ZM270.5,195.5l4,-2l0,1c-1,0,-1,0,-1,0l-4,2ZM266.5,209.5l-1,-1l0,-1l2,1ZM264.5,205.5l-1,0l-1,0l-1,0c-1,-1,-1,-1,-1,-1c0,0,-1,1,-1,1c-1,0,-1,0,-1,0l-1,0l-1,0c-1,0,-2,0,-2,0c-1,-1,-1,-2,-1,-2l-1,-9l1,-2l1,10l0,1c1,0,1,1,2,1l1,0c1,0,1,0,1,-1c1,0,1,0,1,0l1,0c0,-1,0,-1,0,-1l0,1c0,0,1,0,1,0c0,0,1,1,1,1l1,0l1,0c0,0,0,-1,1,-1c1,0,1,0,1,0l0,-1c0,0,0,-1,0,-1l-1,0l1,-2l0,1l1,0l0,1l0,1l0,1l0,1c0,0,-1,0,-1,0c0,1,0,1,-1,1c-1,0,-1,0,-1,0ZM263.5,193.5l0,1c0,0,1,0,1,0l1,-1l0,-1l0,1c0,1,0,1,1,1c0,0,0,-1,0,-1l0,-1l0,1l0,1c0,0,0,1,0,1l-1,0l0,-1l0,1l-1,0c-1,0,-1,0,-1,0l0,-1l0,-1ZM267.5,190.5l-5,3c0,-1,1,-1,1,-2l5,-2ZM259.5,201.5l-1,-1l1,-2l1,1ZM256.5,192.5l4,-2l0,1l-4,2ZM315.5,196.5l-1,-1l1,-2l1,1ZM318.5,203.5l-1,1c-1,1,-1,1,-2,1c0,0,-1,0,-1,0l-1,0l-1,0c-1,0,-1,0,-2,0c0,-1,0,-2,0,-2l-1,-9l1,-2l0,10l1,0l0,1c0,0,1,1,1,1l2,0c0,0,1,-1,1,-1c1,0,1,0,2,0c0,0,0,-1,0,-1l0,-1l-1,0l0,1c0,0,-1,0,-1,0l-1,0c0,-1,0,-1,0,-1c0,0,0,-1,0,-1c0,0,0,-1,0,-1l0,-1l0,-1c1,0,1,0,2,0l1,0c0,0,0,1,0,1l0,1l1,0l0,1c0,1,0,1,0,2c0,0,0,1,0,1ZM314.5,199.5l1,1l1,0c0,-1,0,-1,0,-1l-1,0ZM314.5,189.5l4,-2l-1,1l-4,2ZM305.5,205.5l-1,0l-1,0c0,-1,0,-1,0,-1l-1,0c-1,0,-1,1,-1,1l-1,0l-1,0c0,0,-1,0,-1,0c0,0,-1,0,-1,0c0,-1,0,-1,0,-1c-1,0,-1,1,-1,1c-1,0,-1,0,-2,0l-2,0c0,0,-1,0,-2,0c0,-1,0,-2,0,-2l-1,-9l1,-2l1,10l0,1c0,0,1,1,1,1l2,0c0,0,1,0,1,-1c0,0,1,0,1,0c0,-1,1,-1,1,-1l0,1l1,0c0,0,1,1,1,1l1,0c1,0,1,0,1,-1l1,-1c0,-1,1,-1,1,-1l0,-1c1,0,1,0,1,0c0,0,1,0,1,0c0,1,0,1,1,2l0,1c0,1,0,1,0,1c-1,0,-1,0,-1,1ZM303.5,202.5l1,1l1,0l-1,-1c-1,0,-1,0,-1,0ZM300.5,192.5l4,-2l0,1l-4,2ZM296.5,201.5l-1,-1l0,-2l2,1ZM295.5,191.5l1,1c0,0,0,-1,1,-1l0,-1l0,1c0,0,1,0,1,0l0,-1l1,0l0,1l-1,1l-1,0l0,1c-1,0,-1,0,-1,0c-1,0,-1,0,-1,0l0,-1l0,-1ZM300.5,188.5l-6,3c0,-1,0,-2,1,-2l5,-2ZM362.5,209.5l-1,-1l1,-1l1,1ZM360.5,204.5c0,0,1,-1,1,-1c1,0,1,0,2,0l0,-1l-1,0c0,0,0,-1,0,-1l1,-2l0,1l0,1l0,1l0,1l0,1c-1,1,-1,1,-2,1c0,0,-1,0,-1,0l-1,0l-1,0c0,1,0,1,0,1c0,1,0,2,-1,2c0,1,0,1,0,1c0,0,-1,1,-1,1c0,0,-1,0,-1,1l-1,0l-1,0c-1,0,-1,0,-2,-1l-1,0c1,0,1,0,1,0l1,0c0,0,1,0,1,0c1,0,1,-1,2,-1c1,-1,1,-1,1,-1c0,-1,0,-1,1,-1c0,-1,0,-1,0,-1c1,-1,1,-1,1,-1l-1,0c0,0,0,-1,0,-1l0,-1c0,-1,0,-1,0,-1c0,1,0,1,1,1l1,0l0,1l1,0ZM362.5,211.5l-4,2c0,0,0,-1,0,-1l4,-2ZM354.5,192.5l4,-2l-1,1l-4,2ZM350.5,209.5l-1,-1l1,-1l1,1ZM348.5,205.5l-1,0l-1,0c0,0,-1,0,-1,0c0,0,-1,-1,-1,-1l-2,-2c-1,0,-1,-1,-2,-1l0,1c0,0,0,1,0,1c0,1,-1,1,-1,1c0,1,0,1,0,1c-1,0,-1,0,-1,0c-1,0,-1,0,-1,0l-1,0l-3,0c0,0,-1,0,-1,0l0,1l-1,1c-1,0,-1,0,-1,0c-1,-1,-1,-1,-1,-2l0,-1c0,0,-1,0,-1,0l-1,1l-1,1l0,1l1,1l0,2l0,1l0,1c0,1,1,1,1,2l-1,0l0,1l0,-1l0,-1l0,-1l-1,-3l0,-1l0,-1l0,-1l0,-1c0,-1,0,-1,1,-2l1,0l0,-1l1,0l1,-1c0,1,1,2,2,2l1,0l2,1l1,0l1,0l1,0c0,-1,0,-1,0,-1c1,0,1,0,1,0c0,-1,0,-1,0,-1c0,0,1,0,1,0c0,0,-1,-1,-1,-1l0,-1c0,0,-1,0,-1,0c0,-1,-1,-1,-1,-1c0,0,-1,0,-1,-1c0,1,0,1,0,1c0,0,0,-1,-1,-1c0,0,0,-1,0,-1c0,0,-1,0,-1,0c0,0,0,-1,1,-1l0,-1l1,-1c0,0,1,0,3,-1c1,-1,2,-1,4,-2c1,0,2,0,3,0c0,-1,0,-1,0,-1l1,0l-1,2l-1,0c0,0,-1,0,-3,1c-1,0,-2,1,-4,1c-1,1,-2,1,-2,2c0,0,-1,0,-1,0l1,1c1,0,1,0,1,0c0,0,1,0,1,1l1,0c0,0,1,1,2,1c0,1,1,1,1,1c1,1,1,1,2,2l2,1l0,1l1,0l1,0c0,0,1,-1,1,-1c1,0,1,0,1,0l0,-1c0,0,0,-1,0,-1l0,-2c0,0,1,0,1,1l0,1l0,1l0,1l0,1c-1,1,-1,1,-2,1c0,0,-1,0,-1,0ZM346.5,194.5l0,1l1,0l0,-1l0,-1l1,1c0,0,1,0,1,-1l0,1l0,1l-1,0l-1,0l0,1c0,0,-1,0,-1,0l-1,-1l1,0l0,-1ZM349.5,211.5l-3,2c0,0,0,-1,0,-1l4,-2ZM339.5,186.5c0,0,0,-1,0,-1c1,0,1,0,1,0c1,0,1,0,1,0l0,1l0,1l0,1l0,1l-1,0l-1,0c0,1,0,1,-1,1l-1,0l1,-1l1,0l0,-1c0,0,0,-1,0,-1c0,0,0,-1,0,-1ZM340.5,186.5c0,0,-1,0,-1,0l1,1c0,-1,0,-1,0,-1ZM326.5,194.5l1,0l1,0c0,0,1,0,1,0c1,0,1,0,1,1c0,0,-1,1,-1,1c-1,1,-1,1,-1,1c-1,0,-1,0,-1,0l-1,0l1,-1c1,0,2,0,2,-1l-1,0l-1,0l-1,0l-1,1l0,-1c0,0,1,0,1,-1ZM400.5,205.5l0,-1l0,-1l-1,-8l1,-3l1,11c0,1,0,1,0,1c-1,1,-1,1,-1,1ZM395.5,205.5l-1,0c0,-1,-1,-1,-1,-1l-1,0c0,0,-1,1,-1,1l-1,0l-1,0l-1,0l-1,0c0,-1,0,-1,0,-1c0,0,-1,1,-1,1c-1,0,-1,0,-1,0l-1,0l-1,0c-1,1,-1,1,-1,1c0,1,0,1,0,1c0,1,-1,1,-1,2l-1,1l-1,0c0,0,-1,1,-1,1c0,0,-1,0,-1,0c-1,0,-1,-1,-2,-1l-1,0l1,-1c0,1,0,1,0,1c0,0,1,0,1,0c0,0,1,0,1,0c1,-1,1,-1,2,-1c0,0,0,-1,0,-1c1,0,1,0,1,-1c0,0,1,0,1,0c0,-1,0,-1,0,-1c0,-1,0,-1,1,-1c-1,0,-1,0,-1,0l-1,0l-1,0c0,0,0,-1,0,-1c0,-1,0,-1,0,-1c0,0,0,-1,0,-1l0,-1l1,0c0,-1,1,-1,1,-1l0,1c1,0,1,0,1,0c0,0,0,1,0,1c1,1,1,1,1,2l1,0c1,0,1,0,1,-1c1,0,1,0,1,0l1,0c0,-1,0,-1,0,-1l0,1c0,0,1,0,1,0c0,0,1,1,1,1l1,0c1,0,1,0,1,-1l1,0l0,-1c1,-1,1,-1,1,-1l1,-1c1,0,1,0,1,0c0,1,1,1,1,2l0,1c0,1,0,1,0,1l-1,1ZM393.5,202.5l1,1l1,0l0,-1c-1,0,-1,0,-1,0c0,0,-1,0,-1,0ZM394.5,208.5l-4,2c0,0,1,0,1,-1l4,-2ZM386.5,201.5l-1,-1l1,-2l1,1ZM387.5,189.5c0,0,1,0,1,0c0,-1,0,-1,1,-1c0,0,0,1,0,1c0,0,0,1,0,1c0,1,0,1,0,1l1,0l-1,2l-1,-1l-1,1l0,1l-1,0l-1,0l1,-1c0,0,1,0,1,-1l1,0l-1,-1l0,-1l0,-1ZM388.5,190.5l0,-1l0,1l0,1l0,-1ZM380.5,202.5c0,0,0,1,0,1c0,0,1,0,1,0l1,0c-1,0,-1,0,-1,0c0,0,0,-1,0,-1l-1,0ZM373.5,205.5l0,-1l0,-1l-1,-8l1,-3l1,11c0,1,0,1,-1,1c0,1,0,1,0,1ZM48.5,153.5l-2,-1l1,-2l1,1ZM47.5,162.5c0,0,-1,0,-1,0c-1,0,-1,-1,-2,-1c0,0,0,-1,-1,-1c0,-1,0,-1,0,-2l0,-1c0,-1,0,-1,0,-1c0,0,1,0,1,-1c0,0,0,-1,0,-1l1,0c0,1,0,1,-1,1c0,1,0,1,0,1l0,1c0,1,0,1,0,1c0,1,1,1,1,1l0,1c1,0,1,0,1,0c0,0,1,0,2,0c1,0,1,0,2,0c1,-1,1,-1,2,-1c0,-1,0,-1,0,-1l0,-1l0,-1c0,0,0,-1,0,-1c0,0,-1,0,-1,-1l0,-1l0,-2c0,0,1,1,1,1c0,0,0,1,0,1c0,0,0,1,1,1l0,1c0,1,0,1,0,1l0,1c0,1,0,1,-1,2c0,0,0,1,-1,1c0,1,-1,1,-2,2c0,0,-1,0,-2,0ZM43.5,144.5l1,0c0,0,1,0,1,0c1,0,1,0,2,0l0,1c0,0,0,1,-1,1c0,0,0,1,-1,1c0,0,-1,0,-1,0c-1,0,-1,0,-1,0l2,-1c0,0,1,0,1,-1l-1,0c-1,0,-1,0,-2,0l0,1l0,-1l0,-1ZM109.5,157.5c1,0,1,0,1,0c1,0,1,0,1,0c0,-1,0,-1,0,-1l0,-2l0,-7c-1,0,-1,0,-1,0c0,-1,0,-1,1,-1c0,-1,0,-1,0,-1c0,0,0,1,0,1c1,0,1,0,1,1l0,1c0,1,0,1,0,2c0,0,0,1,0,3c0,0,0,1,0,1l0,1c0,1,0,1,0,1l0,1c0,0,-1,1,-1,1l-1,0c0,1,0,1,0,1c-1,0,-1,0,-1,0l-1,0c-1,0,-2,0,-2,-1c-1,0,-1,-1,-1,-2c0,0,0,-1,0,-1c0,-1,0,-1,0,-1l0,1c-1,0,-1,0,-1,1c0,1,0,1,0,1c0,0,-1,1,-1,1c-1,1,-1,1,-1,1c-1,0,-1,1,-1,1c-1,0,-1,0,-2,0c0,0,-1,0,-2,0l1,0c0,-1,1,-1,1,-1c1,0,1,0,2,-1l1,0c0,-1,0,-1,1,-1c0,-1,-1,-1,-1,-1c0,0,0,-1,0,-1c-1,0,-1,-1,-1,-1c0,0,-1,-1,-1,-1c0,0,-1,-1,-1,-1c0,0,-1,-1,-1,-1l-1,0l-1,0c0,-1,0,-1,-1,-1c0,-1,0,-1,0,-1c0,-1,0,-1,0,-1c1,0,1,0,1,-1c0,1,1,1,2,1c0,1,1,1,1,2c1,0,1,1,2,2c0,0,1,1,1,1c0,1,0,1,1,2c0,0,0,1,0,1l1,-1l0,-1c0,0,0,-1,0,-1c0,-1,0,-1,0,-2l0,-3l1,-2l1,9c0,0,0,1,0,1l0,1c1,0,1,0,2,0l1,0ZM113.5,162.5l-4,2c0,-1,0,-1,1,-1l4,-2ZM103.5,164.5l-4,2c0,-1,0,-1,1,-1l4,-2ZM103.5,141.5c1,0,1,0,1,0c1,0,1,0,1,0l1,0l0,1l-1,1l-1,0l-1,0l1,0c1,0,1,-1,1,-1l-1,0c0,0,-1,0,-1,0l-1,0ZM92.5,162.5l-2,-1l0,1l-2,-1l1,-1l1,1l1,-1l2,1ZM89.5,159.5l-1,0l-1,0c-1,0,-1,0,-2,-1c0,0,-1,1,-1,1c-1,0,-1,0,-2,0l-1,-1l-1,-1l-1,1c0,1,-1,1,-1,1l-1,0l-2,0c0,0,0,1,0,1c0,0,0,1,0,1c0,0,-1,1,-1,2c0,0,0,1,-1,1c-1,1,-1,1,-2,1c-1,1,-2,1,-2,1c-1,0,-1,0,-2,-1c-1,0,-1,0,-1,0c-1,-1,-1,-1,-1,-1c-1,-1,-1,-2,-1,-2c0,0,0,-1,0,-1c0,0,0,-1,0,-1c1,0,1,-1,1,-1c0,-1,0,-1,0,-1l1,0c0,0,0,1,-1,1c0,0,0,1,0,1c0,1,0,1,0,1c0,1,0,1,0,1c0,1,1,1,1,1l1,0c0,1,1,1,2,1c1,0,2,0,2,-1c1,0,2,0,2,-1c0,0,1,0,1,0c0,0,0,-1,0,-1c0,0,0,-1,0,-1c0,0,0,-1,-1,-1c0,-1,0,-1,0,-1l1,-2l0,1c0,0,1,0,1,0l2,0l1,0c0,0,1,0,1,0l1,-1l0,-1c1,-1,2,-1,3,-1l1,1l0,1l1,0l0,1c1,0,1,0,1,0l1,0l1,0l1,0c0,0,1,0,1,0c1,0,1,0,1,-1c1,0,1,0,1,0c0,0,-1,0,-1,-1l0,-1l1,-1c0,1,0,1,0,1l0,1l0,1l0,1c0,0,0,1,0,1c-1,0,-1,0,-2,1c0,0,-1,0,-1,0ZM84.5,157.5l-1,-1l0,-1c0,0,-1,0,-1,0l0,1l-1,0c0,0,1,0,1,1l1,0ZM167.5,236.5l0,-1c0,0,0,-1,0,-1c0,-1,0,-1,0,-2l0,-1c0,0,0,1,1,1c0,1,0,1,0,1l0,1c0,0,0,1,0,1c0,0,0,1,-1,1ZM249.5,290.5l0,-1c0,0,0,-1,0,-1c0,-1,0,-2,0,-2l0,-1l1,1c0,0,0,1,0,1l0,1c0,1,0,1,0,1c0,0,-1,0,-1,1ZM309.5,190.5c0,-1,0,-1,0,-2c0,0,0,-1,0,-1l0,-1l1,1l0,1l0,1c0,0,0,1,0,1c0,0,-1,0,-1,0ZM396.5,236.5c0,-1,0,-1,0,-2c0,0,0,-1,-1,-2l1,0l1,1l0,1c0,0,0,1,0,1c0,1,-1,1,-1,1ZM398.5,189.5c0,-1,0,-1,0,-2c0,-1,0,-1,-1,-2l1,0l0,-1c0,1,0,1,0,1c1,1,1,1,1,1l0,1l0,1c-1,1,-1,1,-1,1ZM80.5,150.5c0,-1,0,-1,0,-2c0,0,0,-1,-1,-1l1,-1l0,1c1,0,1,0,1,1l0,1c0,0,0,1,0,1c-1,0,-1,0,-1,0ZM69.5,156.5l-1,0l1,-2l1,1ZM72.5,169.5l-4,2c0,0,0,-1,0,-1l4,-2ZM161.5,162.5l-2,-1l0,1l-2,-1l1,-1l2,1l0,-1l2,1ZM158.5,159.5l-1,0c-1,0,-1,0,-1,0c-1,0,-1,-1,-1,-1c-1,0,-1,-1,-1,-1c0,1,0,1,-1,1c0,1,-1,1,-1,1l-1,0l-1,0c-1,0,-1,0,-2,-1c0,0,-1,-1,-1,-2l0,-8l1,-2l0,9l0,1l1,0l0,1l1,0l1,0l1,0l1,0l1,0c0,0,0,-1,0,-1l0,-1l1,0c0,0,0,1,0,1c0,0,0,1,1,1l1,0l1,0c0,0,1,0,1,0c1,0,1,0,2,-1l-1,-1l0,-1l1,-1c0,1,0,1,0,1l0,1l0,1l0,1c0,0,0,1,0,1c-1,0,-1,0,-2,1c0,0,-1,0,-1,0ZM159.5,138.5l0,-1c1,0,1,0,1,0c1,0,1,1,1,1c0,0,0,1,0,1c0,0,0,1,-1,1l1,0l0,1l-1,0l-1,0l0,1c0,0,-1,0,-1,0l-1,1l-1,0l1,-1l1,0c0,0,0,-1,0,-1l1,0l0,-1c0,0,-1,0,-1,-1c0,0,1,0,1,-1ZM160.5,138.5l-1,0c0,0,0,1,0,1l1,0ZM154.5,154.5l-2,-1l1,-1l2,1ZM151.5,146.5l4,-2l0,1l-1,0l-4,2ZM144.5,158.5l-1,0c0,0,-1,1,-2,1l-1,0l-1,0c-1,0,-1,0,-1,0l0,-1c0,0,0,-1,0,-1l1,0l1,0c0,0,1,0,1,0c0,0,1,0,1,0c0,0,1,-1,1,-1c0,0,1,0,1,0c0,0,0,-1,0,-1c-1,0,-1,-1,-1,-1l-1,-1l-1,-1l-1,0l1,-2l1,1c0,0,1,0,1,0c0,1,0,1,0,1c0,0,1,1,1,1c0,0,0,1,1,1c0,1,0,1,0,1c0,0,0,1,0,1l0,1c0,0,-1,0,-1,1ZM142.5,162.5l-4,2c0,-1,0,-1,0,-1l4,-2ZM135.5,152.5c-1,0,-1,0,-1,0c-1,0,-1,0,-1,0c-1,0,-1,1,-2,1c-1,1,-1,2,-1,2l1,1l1,0l1,0c1,0,1,1,1,1c1,0,1,0,1,0l0,1c-1,1,-1,1,-1,1c0,0,0,1,-1,1c0,0,-1,1,-2,1c0,0,-1,1,-2,1c-1,0,-1,0,-2,0l-1,0c-1,0,-1,0,-2,0c0,0,-1,0,-1,-1c-1,0,-1,0,-1,-1c0,0,0,-1,0,-1c0,0,0,-1,0,-1c0,-1,0,-1,0,-2c0,0,0,-1,1,-1c0,-1,0,-1,0,-1l1,-1l0,1c-1,0,-1,1,-1,1l0,1c0,1,0,1,0,1c0,1,0,1,0,1c0,1,0,1,1,1c0,1,1,1,3,1c1,0,2,0,3,0l2,-1l1,0l1,-1l-2,0c-1,0,-2,-1,-2,-1c-1,0,-1,-1,-1,-1l0,-1c0,0,0,-1,1,-1c0,0,0,-1,0,-1c0,0,1,-1,1,-1l1,-1c0,0,1,0,1,-1c0,0,1,0,1,0c1,0,1,0,1,0l0,1c1,0,1,0,1,0c0,0,-1,1,-1,1ZM206.5,158.5l-1,0c-1,0,-1,0,-1,0l-1,-1l0,1c-1,0,-1,0,-1,1l-1,0l-1,0c0,0,-1,0,-1,0c0,0,-1,-1,-1,-1c0,0,0,-1,0,-1c0,1,-1,1,-1,1c-1,1,-1,1,-2,1l-2,0c0,0,-1,0,-1,-1c-1,0,-1,-1,-1,-2l-1,-8l1,-2l1,9l0,1l0,1c0,0,1,0,1,0l2,0c1,0,1,0,1,0c0,0,1,0,1,0c0,0,0,-1,0,-1c1,0,1,0,1,-1c0,0,0,1,0,1c0,0,0,1,1,1c0,0,1,0,1,0l1,0c1,0,1,0,1,0l1,0l0,-2c0,0,1,-1,1,-1c1,0,1,-1,1,-1c1,0,1,1,1,1c0,0,0,1,1,1l0,1l0,1c0,1,-1,1,-1,1ZM204.5,156.5l1,0l1,0c0,0,-1,0,-1,0c0,-1,0,-1,0,-1c-1,0,-1,0,-1,0c0,1,0,1,0,1ZM203.5,143.5c1,0,1,-1,1,-1c0,0,1,0,1,0c1,0,1,0,1,1l0,1l-1,0l1,1l0,1l-1,0l-1,0c-1,1,-1,1,-1,1l-1,0l-1,0l1,0l1,-1l1,-1c-1,0,-1,-1,-1,-1c0,0,0,-1,0,-1ZM205.5,143.5l-1,0l0,1l1,0c0,-1,0,-1,0,-1ZM197.5,154.5l-1,-1l1,-1l1,1ZM194.5,146.5l4,-2l0,1l-4,2ZM188.5,158.5l-1,0l-1,0c0,0,-1,1,-1,1l-1,0l-1,0l-1,0c0,0,-1,0,-1,-1c0,0,0,-1,1,-1l1,0c0,0,1,0,2,0c1,0,1,-1,1,-1c1,0,1,0,1,0c0,0,0,-1,0,-1c0,0,0,-1,-1,-1l0,-1l-1,0l-1,-1l-1,0l1,-2l1,0l0,1l1,0c0,1,0,1,1,1c0,0,0,1,0,1c1,0,1,1,1,1c0,1,0,1,0,1c0,0,0,1,0,1l0,1l0,1ZM185.5,162.5l-4,2c0,-1,1,-1,1,-1l4,-2ZM179.5,162.5l-2,-1l-1,1l-1,-1l1,-1l1,1l1,-1l1,1ZM176.5,159.5l-1,0l-2,0c0,0,-1,0,-2,-1c0,0,0,-1,0,-2l-1,-8l1,-2l1,9l0,1l0,1c0,0,1,0,1,0l2,0l1,0c0,0,1,0,1,0c1,0,1,0,1,-1l0,-1l0,-1l-1,0l1,-1l1,0c0,1,0,1,0,1l0,1l0,1l0,1c0,0,0,1,-1,1l-1,1c0,0,-1,0,-1,0ZM176.5,143.5l5,-2c-1,0,-1,1,-1,1l-5,2ZM178.5,140.5l5,-3c-1,1,-1,2,-1,2l-5,2ZM249.5,157.5l0,1l-1,0l-1,1c-1,0,-1,0,-1,0l-1,0c-1,0,-1,0,-2,-1c-1,0,-1,1,-1,1l-1,0l-1,0l-1,-1l-1,-1l-1,1c0,1,-1,1,-1,1l-1,0l-1,0c0,0,-1,0,-1,0c0,0,-1,-1,-1,-1c0,0,-1,0,-1,0l0,-1c-1,0,-1,0,-1,1l-1,0c-1,0,-1,1,-1,1l-1,0l-1,0c0,0,-1,0,-1,0c0,0,-1,-1,-1,-1c0,0,0,-1,0,-1c0,1,-1,1,-1,1c-1,1,-1,1,-2,1l-2,0c0,0,-1,0,-1,-1c-1,0,-1,-1,-1,-2l-1,-8l1,-2l1,9l0,1l0,1c0,0,1,0,1,0l2,0c0,0,1,0,1,0c0,0,1,0,1,0c0,0,0,-1,0,-1c1,0,1,0,1,-1c0,0,0,1,0,1c0,0,0,1,1,1c0,0,1,0,1,0l1,0c1,0,1,0,1,0l1,0l0,-1l1,0l-1,0c0,-1,-1,-1,-1,-1l-1,0l1,-2c1,0,1,0,1,0c1,0,1,0,1,0l1,0l1,0c0,0,1,1,1,1c0,1,0,1,0,1c-1,0,-1,1,-1,1l0,1l1,0l1,0l1,0l1,0c0,0,1,0,1,0l0,-1c0,0,1,0,1,-1c1,-1,2,-1,3,-1l0,1l1,1l1,0l0,1c1,0,1,0,1,0l1,0l1,0c1,0,1,0,1,0c1,0,1,0,1,-1c1,0,1,0,1,-1l0,1l1,0l0,1l1,0l1,0l1,-1c0,0,0,-1,0,-1l1,-1l0,1l0,1c0,1,0,1,0,1l1,0l1,0l-1,-1l1,-1l0,1l1,0l0,1l-1,1c0,1,0,1,-1,1c0,0,-1,0,-1,0c0,0,0,-1,0,-1l-1,0l-1,0l0,1l-1,0l-1,0l-1,0c0,-1,0,-1,0,-1c0,0,0,-1,0,-1ZM249.5,146.5l4,-2l0,1l-4,2ZM242.5,157.5l-1,-1l0,-1c-1,0,-1,0,-1,0l0,1l-1,0c0,0,1,0,1,1l1,0ZM239.5,162.5l-4,2c0,-1,1,-1,1,-1l4,-2ZM226.5,144.5c1,0,1,0,1,0c1,0,1,0,2,0c0,0,1,0,1,0c1,0,1,0,1,1c0,0,-1,1,-1,1l-1,0c0,0,0,1,0,1c-1,0,-1,0,-1,0l-1,0l1,-1c1,0,2,0,2,-1c0,0,-1,0,-1,0l-1,0c0,0,-1,0,-1,0l-1,1l0,-1l0,-1ZM223.5,154.5l-1,-1l1,-1l1,1ZM220.5,146.5l4,-2l0,1l-4,2ZM277.5,152.5l-1,-1l1,-1l1,1ZM277.5,159.5l-1,0c-1,0,-1,0,-1,0c0,0,-1,-1,-1,-1c0,0,0,-1,0,-1c-1,1,-1,1,-2,1c0,1,0,1,-1,1l-1,0l-1,0c-1,0,-1,0,-2,-1c0,0,0,-1,0,-2l-1,-8l1,-2l0,9l0,1l1,0l0,1c0,0,1,0,1,0l1,0l1,0c0,0,1,0,1,0c0,0,1,0,1,0c0,0,0,-1,0,-1l1,-1c0,0,0,1,0,1c0,0,0,1,1,1l1,0l1,0c1,0,1,0,2,0l1,-1l-1,-1l0,-1l1,-1c0,1,0,1,0,1l0,1l0,1l0,1c0,0,0,1,0,1c0,0,-1,0,-2,1l-1,0ZM275.5,141.5l0,1l1,0l1,0l0,-1c0,1,0,1,0,1c0,0,1,0,1,0l0,-1l0,-1l1,0l0,1l0,1c-1,1,-1,1,-1,1l-1,0c-1,0,-1,1,-1,1c0,0,-1,0,-1,-1l0,-1l0,-1ZM280.5,139.5l-6,2c0,0,1,-1,1,-1l5,-3ZM273.5,154.5l-2,-1l1,-1l2,1ZM270.5,146.5l4,-2l0,1l-1,0l-4,2ZM309.5,162.5l1,0c1,0,2,0,3,-1c0,0,1,0,1,-1c1,0,1,-1,1,-1c0,-1,1,-1,1,-1c0,0,0,-1,0,-1l0,-1l-1,0l0,-1l0,-1l0,-1l1,1l0,1l0,1l1,1c0,1,-1,1,-1,1c0,1,0,1,0,1c0,0,0,1,0,1c0,0,-1,1,-1,1l0,1c-1,0,-1,0,-1,0l-1,1l-1,0l-1,0c0,0,-1,0,-1,0c0,0,-1,-1,-1,-1ZM312.5,147.5l0,1l1,0l0,-1l1,0l0,1c1,0,1,0,1,-1l0,-1l0,1l0,1c0,1,0,1,0,1l-1,0l-1,0c0,1,0,1,-1,1l0,-1l0,-1l0,-1ZM316.5,145.5l-5,2c0,0,0,-1,0,-1l6,-3ZM308.5,163.5l-2,-1l1,-2l1,1ZM305.5,159.5l-1,0c0,0,-1,0,-1,0c0,0,-1,-1,-1,-1c0,0,0,-1,0,-1c-1,1,-1,1,-1,1c-1,1,-1,1,-2,1l-2,0c0,0,-1,0,-2,-1c0,0,0,-1,0,-2l-1,-8l1,-2l1,9l0,1l0,1c0,0,1,0,1,0l2,0c0,0,1,0,1,0c0,0,1,0,1,0c0,0,0,-1,0,-1c0,0,1,0,1,-1c0,0,0,1,0,1c0,0,0,1,1,1l1,0l1,0c1,0,1,0,2,0c0,0,1,0,1,-1l0,-1c0,0,-1,0,-1,0l0,-1l1,-1l0,1l1,1l0,1l-1,1c0,0,0,1,0,1c0,0,-1,0,-1,1c-1,0,-1,0,-2,0ZM305.5,147.5l0,1c0,0,1,0,1,0c0,0,0,-1,0,-1l0,-1l1,0l0,1c0,0,1,0,1,-1l0,-1l0,1l0,1c0,1,0,1,-1,1l-1,0c0,1,-1,1,-1,1c0,-1,-1,-1,-1,-1l1,-1ZM309.5,144.5l-5,2c0,0,0,-1,0,-1l5,-2ZM301.5,154.5l-1,-1l0,-1l2,1ZM298.5,146.5l4,-2l0,1l-5,2ZM292.5,143.5l1,0l1,0c1,0,1,0,2,0l1,0c0,0,0,1,-1,1l-1,0l-1,0l-1,0l-1,0c0,0,-1,0,-1,0c0,-1,1,-1,1,-1ZM349.5,156.5c0,1,0,2,0,2c0,0,0,1,-1,1l0,1l1,1l-1,0l0,1l-1,0l0,1l-1,0l-1,1l-1,0l-1,0l-1,1l-1,1l-1,1l-3,0l-3,0l-1,0l-1,0c0,0,0,-1,0,-1l-1,-1l-1,0c-1,-1,-2,-1,-2,-1l-1,0l0,-1l-1,0l0,-1l-1,0l-1,-1l1,-1l-1,-1l0,-1l0,-1l0,-1l0,-1c0,0,0,-1,0,-2l1,0l0,-1l-1,0c0,0,0,-1,0,-1l1,0l0,-1l1,0l1,-1l2,0l1,-1l1,0l0,-1l1,-1l1,0l1,0l3,0l3,0l1,0l0,1l1,0l0,1l2,1l1,0c1,0,1,0,1,0l0,1l1,0c1,1,1,1,2,2l-1,0l0,1l1,0l0,1l0,1ZM340.5,166.5l1,0l0,-1l1,-1c1,0,1,0,2,0l1,-1c0,0,1,0,1,0l0,-1l1,0l1,0l0,-1l-1,-1l1,0l0,-1l0,-1l1,0l0,-1l0,-1c0,-1,0,-1,0,-2c-1,0,-1,0,-1,0l0,-1l0,-1l-1,0l1,0c0,-1,0,-1,-1,-1l0,-1l-1,0l0,-1l-1,0l-1,0l-2,-1l-1,-1l-1,-1l-1,0l-2,0l-1,0l-2,0l-1,0l-1,0l0,1l-1,1l-1,0l-1,1l-1,0l-1,0l0,1l-1,0l0,1c-1,0,-1,0,-2,1l1,0l0,1l-1,0l0,1l0,1c0,1,0,1,0,1l0,1l0,1l0,1c1,0,1,0,1,0l0,1l1,0c0,0,-1,0,-1,0l-1,1l1,0l1,1l1,1l1,0l1,1l1,0c1,0,1,1,1,1l1,0l0,1l1,0l1,0l3,0ZM346.5,151.5l0,1l-1,0l0,-1l-1,0l-1,-1c0,0,-1,0,-1,0c0,0,1,0,1,0l-1,-1c1,0,1,0,1,0l0,1l1,0c0,0,1,0,1,0c0,0,0,1,0,1l1,0ZM346.5,161.5l-1,1l-1,0l0,1l-1,0l-1,0l1,0c0,0,0,-1,-1,-1c1,0,1,0,1,0l1,0c1,0,1,-1,1,-1l1,0ZM341.5,163.5c0,1,0,1,0,1c0,0,-1,1,-1,1l-3,0l-3,0l-1,0l-1,0c0,-1,0,-1,0,-1c0,0,-1,0,-1,0c0,0,0,-1,0,-1l1,-1l1,0l1,0l3,0l3,0l1,0l0,1ZM341.5,149.5c0,1,0,1,0,1l-1,1l-3,0l-3,0l-1,0l-1,0c0,0,0,-1,0,-1l-1,0l0,-1l1,-1l1,0l1,0l3,0l3,0c0,0,1,0,1,0c0,1,0,1,0,1ZM340.5,152.5l1,0l0,-1l1,0c0,0,1,0,1,1l1,1l2,0l0,1l1,1l0,1l0,1c0,0,0,1,0,1l-1,0l0,1c0,1,0,1,0,1l-1,0c-1,0,-1,0,-1,0c0,1,-1,1,-1,1l-1,0l-1,0l-1,0l0,-1l-3,0l-3,0l-1,0l-1,1l-1,0c-1,0,-1,0,-1,0c-1,0,-1,-1,-1,-1l-1,0l-1,0l0,-1l-1,-1l0,-1l0,-1l0,-1l0,-1l1,-1l1,0c0,0,1,0,1,0l0,-1l1,0c0,-1,0,-1,1,-1c0,0,1,0,1,0l0,1l1,0l1,0l3,0ZM340.5,160.5l1,1l1,0l1,0l0,-1l1,0c0,-1,0,-1,0,-1l1,1l1,-1l0,-1l1,-1l0,-1c0,0,0,-1,-1,-1c0,-1,0,-1,0,-2l-1,0l-1,0l0,-1l-1,0l-1,0c0,0,-1,0,-1,0l-1,0l-3,0l-3,0l-2,0l-1,0c0,0,-1,0,-1,0l-1,0l0,1c0,0,-1,0,-1,0l-1,0l0,1l-1,1l0,1l0,1l0,1l1,0c0,1,0,1,0,2l1,-1l1,1l1,0l0,1l1,0c0,0,1,0,1,0l0,-1l1,0l1,0l3,0l3,0ZM340.5,155.5c-1,1,-1,1,-1,1l-1,0l1,1c0,1,0,1,0,1c-1,1,-1,1,-1,1l0,-1c0,-1,0,-1,0,-1c0,0,0,-1,0,-1l-1,0l0,-1l1,0l1,0c0,0,1,0,1,0ZM335.5,154.5c1,0,1,0,1,1l0,1l0,1l0,1l1,0l-1,1c0,0,0,-1,0,-3c-1,0,-1,0,-1,0c0,0,-1,0,-1,0c0,0,0,-1,0,-1l1,0c0,0,0,-1,0,-1ZM335.5,155.5l0,1l1,0c0,-1,-1,-1,-1,-1ZM333.5,155.5l1,1l0,1l0,1c0,1,0,1,-1,1l0,-1c0,-1,0,-2,0,-3ZM327.5,151.5l1,0l0,-1l1,0l1,-1l0,1l-1,0l0,1l-1,0l0,1l-1,0ZM327.5,161.5l1,0l1,1l1,0c0,0,0,1,0,1l-1,0c0,0,-1,-1,-1,-1l-1,0l0,-1ZM387.5,152.5l-1,-1l1,-1l1,1ZM387.5,157.5c0,0,1,0,1,0c1,0,1,0,1,-1l0,-1l0,-1l-1,0l1,-1c0,0,1,0,1,0c0,1,0,1,0,1l0,1l0,1l0,1c0,0,0,1,-1,1l-1,1c0,0,-1,0,-1,0l-1,0l-12,0l0,1c0,0,0,1,0,1c0,0,-1,0,-1,0l0,-1l0,-1l-1,-1l0,-1l-1,1l-1,1l-1,0l-1,0c-1,0,-2,0,-2,-1c-1,0,-1,-1,-1,-2l-1,-8l1,-2l1,9l0,1l0,1c0,0,1,0,2,0l1,0c1,0,1,0,1,0c0,0,1,0,1,0c0,0,1,-1,1,-1l0,-1l0,1c0,0,1,0,1,1l1,0l1,-1l1,0l1,-2c1,0,2,0,2,-1c0,0,1,0,1,0l1,0c1,0,1,0,2,0c0,1,0,1,1,1l0,1c0,0,0,1,0,1c-1,0,-1,1,-1,1l1,0l2,0l1,0ZM382.5,156.5l0,-1c0,0,-1,0,-1,0l-1,0c-1,0,-1,0,-1,0c-1,0,-1,0,-2,1l-2,1l1,0l1,0l1,0c1,0,1,0,1,0l1,0l1,0l1,0c0,-1,0,-1,0,-1ZM375.5,146.5l4,-2l-1,1l-4,2ZM354.5,162.5l1,0c1,0,2,0,3,-1c0,0,1,0,1,-1c1,0,1,-1,1,-1c1,-1,1,-1,1,-1c0,0,0,-1,0,-1l0,-1l-1,0l0,-1l0,-1l1,-1l0,1l1,1l0,1l0,1c0,1,0,1,0,1c0,1,-1,1,-1,1c0,0,0,1,0,1c0,0,0,1,0,1c-1,0,-1,0,-1,1c0,0,-1,0,-1,0l0,1l-1,0l-1,0l-1,0c0,0,-1,0,-1,0c0,0,-1,-1,-1,-1ZM353.5,170.5l5,-2l0,1l-5,3ZM355.5,167.5l5,-2c0,0,0,1,-1,1l-4,2ZM420.5,158.5l-1,0l-1,0l-1,-1l-1,1l0,1l-1,0l-1,0l-2,0c0,0,1,0,1,0c0,0,0,1,0,1c0,0,0,1,0,1c0,0,-1,1,-1,2c0,0,-1,1,-1,1c-1,1,-1,1,-2,1c-1,1,-2,1,-2,1c-1,0,-2,0,-2,-1c-1,0,-1,0,-2,0c0,-1,0,-1,-1,-1c0,-1,0,-2,0,-2c0,0,0,-1,0,-1c0,0,0,-1,0,-1c0,0,0,-1,1,-1c0,-1,0,-1,0,-1l1,0c0,0,-1,1,-1,1c0,0,0,1,0,1c0,1,0,1,0,1c0,1,0,1,0,1c0,1,1,1,1,1c1,0,1,0,1,0c0,1,1,1,2,1c1,0,2,0,2,-1c1,0,2,0,2,-1l1,0c0,0,0,-1,0,-1c0,0,0,-1,0,-1c0,0,-1,-1,-1,-1c0,-1,0,-1,0,-1l0,-2l1,0l0,1l1,0l1,0l1,0c0,0,1,0,1,0l1,-2c0,0,1,-1,1,-1c0,0,1,-1,1,-1c0,0,1,1,1,1c0,0,0,1,0,1l1,1l0,1l-1,0c0,1,0,1,0,1ZM418.5,156.5l1,0c0,-1,0,-1,0,-1c-1,0,-1,0,-1,0c0,1,0,1,0,1ZM419.5,162.5l-4,2c0,-1,0,-1,0,-1l4,-2ZM407.5,156.5l-1,0l1,-2l1,1ZM377.5,192.5c1,-1,1,-1,1,-1c1,0,1,0,2,0c0,0,1,0,1,0c0,0,1,1,1,1c-1,0,-1,1,-1,1l-1,1c-1,0,-1,0,-1,0l-1,0l1,-1c1,0,1,0,2,-1c0,0,-1,0,-1,0l-1,0c0,0,-1,0,-1,0c0,0,0,1,-1,1l0,-1ZM407.5,144.5c0,-1,0,-1,1,-1c0,0,1,0,1,0c1,0,1,0,1,0c1,0,1,1,1,1c0,0,0,1,-1,1l0,1c0,0,-1,0,-1,0c0,0,-1,0,-1,0l-1,0l2,-1c0,0,1,0,1,-1l-1,0c-1,0,-1,0,-2,0l-1,1l0,-1c0,0,1,0,1,0ZM87.5,111.5c1,0,1,0,1,0c1,0,1,0,1,-1c0,0,1,0,1,0l0,-1l0,-2l-1,-6c0,0,0,-1,0,-1l0,-1c1,0,1,0,1,0c0,0,0,1,0,1c1,0,1,0,1,0c0,0,0,1,0,1c0,0,0,1,0,1c0,0,0,1,0,2c0,0,0,1,0,3l0,1l0,1l0,1c0,0,0,1,0,1c-1,0,-1,0,-1,0c0,0,0,1,0,1l-1,0l-1,0l-1,0c0,0,-1,0,-1,0c-1,0,-1,-1,-1,-2c0,1,-1,2,-1,2l-1,0l-10,0l-1,1c0,0,0,1,0,2l0,-1c0,-1,0,-1,0,-1c0,0,0,-1,0,-1l-1,0l-1,0c0,0,-1,0,-1,0c-1,0,-1,-1,-1,-2c0,1,0,2,-1,2l-1,0l-1,0c-1,0,-1,0,-2,0l0,-1c-1,1,-1,2,-1,2c-1,0,-1,0,-2,0l-1,-1l-1,-1l-1,1c0,0,-1,0,-1,0l-1,0l-1,0l-1,0l-1,-1l0,-1l0,-1l0,-1c-1,1,-1,1,-2,2l-1,0c0,0,0,1,0,1c0,0,0,1,0,1c0,1,0,2,0,2c0,1,-1,1,-1,2c-1,0,-1,1,-2,1c-1,0,-1,0,-2,0c-1,0,-1,0,-2,0c0,0,-1,0,-1,-1c0,0,-1,0,-1,-1c0,0,-1,-1,-1,-2c0,0,1,0,1,-1l0,-1c0,0,0,-1,0,-1c0,0,1,0,1,0l0,1c0,1,-1,1,-1,1l0,1c0,0,1,0,1,1l0,1c1,0,1,0,1,0c1,0,2,0,2,0c1,0,2,0,2,0c1,0,2,-1,2,-1l0,-1c0,0,1,0,1,0c0,0,0,-1,-1,-1c0,-1,0,-1,0,-1l0,-1l0,-1c0,0,-1,0,-1,0l0,-1l1,-2c0,1,0,1,0,1c0,1,1,1,1,1l1,0l1,0c0,0,0,-1,0,-1c1,0,1,-1,1,-1c0,1,0,1,0,1l0,1c0,1,1,1,1,2c0,0,0,1,1,1l1,0l1,0c0,0,1,0,1,-1c0,0,1,0,1,-1c1,-1,2,-2,3,-2l1,1l0,1l1,1c1,0,1,0,1,1l1,0l1,0c1,-1,1,-1,2,-1c0,0,0,-1,0,-1c0,-1,0,-1,0,-1c0,0,0,-1,0,-1l-1,-7l1,-2l1,11c0,0,0,1,0,1c0,0,0,1,1,1l1,0l1,0l1,-1c0,0,0,-1,0,-1l0,-1l0,-2l0,-1l0,-3l-1,-2c0,0,1,0,1,-1l1,1l0,1c0,0,0,1,0,1l0,1l0,1l0,1l0,1l0,2l0,1l1,-1l1,0l1,-1c0,0,1,0,1,0l1,-1c1,0,1,1,1,1c1,0,1,1,1,1l1,0l0,1c0,0,-1,0,-1,0c0,0,0,1,0,1l-1,1l2,0l1,0c1,-1,1,-1,1,-1c1,0,1,-1,1,-1c0,-1,0,-1,0,-1c0,0,0,-1,0,-1l-1,-7l1,-2l1,11c0,0,0,1,0,1c0,0,0,1,0,1c1,0,1,0,1,0ZM92.5,116.5l-4,2c0,-1,0,-1,0,-1l4,-2ZM77.5,105.5l-1,-1l1,-2l1,1ZM80.5,109.5c0,-1,0,-1,-1,-1l-1,0c0,0,-1,0,-1,1l-2,0l0,1l-1,1l1,0c0,0,1,0,1,0l1,0c0,-1,0,-1,0,-1c2,0,3,0,3,-1ZM68.5,118.5l-3,2c0,0,0,-1,0,-1l4,-2ZM62.5,111.5l-1,-1c0,-1,0,-1,0,-1c-1,0,-1,0,-1,0l-1,1c0,0,1,0,1,0l1,1ZM59.5,116.5l-4,2c0,-1,1,-1,1,-1l4,-2ZM54.5,115.5l-2,-1l0,2l-2,-1l1,-2l1,1l1,-1l2,1ZM44.5,108.5l-1,-1l1,-2l1,1ZM40.5,99.5l4,-2l0,1l-4,2ZM117.5,108.5l0,1c1,0,1,0,1,0c0,-1,0,-1,-1,-1ZM117.5,116.5l0,1c0,0,-1,0,-1,0c0,0,-1,0,-2,0c0,0,-1,0,-2,0l0,-1l1,0c0,0,1,0,1,0l1,0c0,0,1,0,1,-1c0,0,1,0,1,0c0,-1,1,-1,1,-1c0,0,0,-1,0,-1c1,-1,1,-1,1,-2c0,0,-1,0,-1,0c0,1,0,1,-1,1l0,-1l-1,0c0,-1,0,-1,0,-1c0,-1,0,-1,0,-1c0,-1,0,-1,0,-2c1,0,1,0,1,0c0,-1,1,-1,1,-1l0,1c1,0,1,0,1,0c0,1,0,1,0,1c0,1,1,1,1,1c0,1,0,1,0,2c0,1,-1,2,-1,3c0,1,-1,1,-1,1c0,1,0,1,-1,1ZM115.5,103.5l4,-2l-1,0c0,0,0,1,0,1l-4,2ZM111.5,112.5c0,0,-1,0,-1,0l-1,0c0,0,0,-1,0,-1l-1,0l-1,0c0,1,0,1,0,1l-1,0l-1,0l-1,0c-1,0,-2,0,-2,0c-1,-1,-1,-1,-1,-2l-1,-9l1,-2l1,10l0,1c1,1,1,1,2,1l1,0l1,0c0,0,1,0,1,0l0,-1l1,-1c0,0,0,-1,1,-1l0,-1c0,0,1,0,1,0c0,0,1,0,1,0c0,1,0,1,0,2l1,0l0,1c0,0,0,1,0,1c-1,0,-1,0,-1,0c0,0,0,1,0,1ZM109.5,110.5l1,0c0,-1,0,-1,0,-1l-1,0l0,1ZM106.5,99.5l4,-2l0,1l-4,2ZM169.5,104.5l-1,-1l0,-1l2,1ZM177.5,110.5l-2,0c0,0,-1,0,-1,0l-1,0c0,0,-1,0,-1,0l-1,1l-1,0l-1,0c0,1,-1,1,-1,1c-1,0,-1,0,-2,0l-1,0l-1,0c0,1,0,1,0,1c0,1,0,2,-1,2c0,1,0,1,0,1c0,0,-1,1,-1,1c0,0,-1,1,-1,1c0,0,-1,0,-1,0c0,0,-1,0,-1,0c-1,0,-1,0,-2,0c0,0,0,-1,-1,-1c1,0,1,0,1,0l1,0c0,0,1,0,1,0c1,0,1,0,1,-1c1,0,1,0,1,0c0,-1,1,-1,1,-1c0,0,0,-1,1,-1c0,0,0,-1,0,-1c0,-1,0,-1,0,-1l0,-1c0,0,0,-1,0,-1l0,-1l0,1l1,0c0,1,0,1,0,1l1,0l1,0l1,0c0,0,1,-1,1,-1c1,0,1,0,1,0l2,-1l1,0l-1,0l-1,-1l-1,0l-1,0l-1,0l-1,0c1,0,1,-1,1,-1c0,0,0,-1,1,-1l1,0l1,0l1,1l1,0l1,1c1,0,1,0,1,0c1,0,1,0,1,0c1,0,1,0,2,0l1,0ZM165.5,98.5c1,0,1,0,1,0c1,-1,1,-1,2,-1c0,0,1,0,1,1c0,0,1,0,1,0c-1,1,-1,1,-1,1c0,1,0,1,-1,1c-1,0,-1,0,-1,0l-1,0l1,0c1,0,1,-1,2,-1c0,0,-1,0,-1,0l-1,0c0,0,-1,0,-1,0l-1,0l0,-1ZM163.5,107.5l-1,-1l1,-1l1,1ZM159.5,99.5l5,-2l-1,1l-4,2ZM157.5,116.5l-2,-1l-1,1l-1,-1l1,-1l1,0l1,-1l1,1ZM154.5,112.5l-1,0l-1,0c-1,0,-1,0,-1,0c-1,0,-1,0,-1,0l0,-1c-1,0,-1,1,-2,1c0,0,-1,0,-1,0l-1,0c0,0,-1,0,-1,0c0,0,-1,0,-1,0c0,0,0,-1,0,-1c0,-1,0,-1,0,-2l-1,1c0,1,-1,1,-1,1l-1,0c0,0,-1,0,-1,0l-1,0l0,-2c0,0,1,-1,1,-1c1,0,1,-1,2,-1c1,-1,1,-1,1,-1l0,-1l0,-1l1,1c0,0,0,1,0,1c0,1,0,1,0,1l0,2c0,1,1,1,1,1c0,1,0,1,1,1l1,0c0,0,1,0,1,0c0,-1,1,-1,1,-1c0,-1,0,-1,1,-1c0,0,0,1,0,1l1,0c0,1,0,1,1,1l1,0l1,0c0,0,1,0,1,-1c1,0,1,0,1,0c0,0,0,-1,0,-1c0,-1,0,-1,0,-1l-1,0l1,-2l1,1c0,0,0,1,0,1c0,1,0,1,0,1c0,0,0,1,0,1c0,0,0,1,0,1l-1,0c0,1,0,1,-1,1c0,0,-1,0,-1,0ZM153.5,98.5l1,0c0,-1,1,-1,1,-1c1,0,1,0,2,1c0,1,0,1,-1,1c0,1,0,1,0,1l-1,0c0,0,-1,0,-1,0c-1,0,-1,0,-1,0l2,0c0,0,1,-1,1,-1c-1,0,-1,0,-1,0c-1,0,-1,0,-2,0l0,-1ZM150.5,106.5l-1,-1l-1,2l-1,-1l1,-2l1,1l1,-1l1,1ZM148.5,99.5l4,-2l-1,1l-4,2ZM143.5,107.5l-1,1l-1,0c0,0,0,1,0,1l1,0c0,0,1,0,1,0l0,-1ZM141.5,102.5l-1,-1l0,-1c0,0,0,-1,0,-2l0,-1c0,0,1,0,1,0l0,-1c1,0,1,0,1,0l0,1l-1,0l0,1l0,1c-1,1,0,1,0,1c0,1,0,1,0,0l1,0l0,1c0,0,1,0,1,0c0,1,0,1,-1,1c-1,0,-1,0,-1,0ZM214.5,103.5l-2,-1l1,-2l1,1ZM216.5,110.5l0,1c0,0,-1,0,-1,1c0,0,-1,0,-2,0c0,0,-1,0,-1,0l-1,0l-1,0l-1,0c-1,0,-1,0,-2,0c0,0,-1,0,-1,0c0,0,-1,0,-2,0c0,0,-1,0,-2,0l-2,0c-1,0,-1,0,-1,0l0,-1l-1,0c0,0,0,-1,0,-1l0,1l-1,1c0,0,-1,0,-1,0c-1,0,-1,0,-2,0l-1,0c0,0,-1,0,-1,0c0,0,0,-1,0,-1l0,-1l0,-1l0,1l1,0l1,0l1,0c1,0,1,0,1,0l1,0c0,0,1,0,1,0l0,-1l0,-1l-1,-2l0,-1l1,-1l0,-1l0,2c0,0,1,0,1,1l0,2c0,1,0,1,0,1c0,1,0,1,0,1l1,0c0,0,0,1,0,1l2,0c1,0,1,0,1,0c0,0,1,0,1,0c0,0,0,-1,1,-1c-1,0,-1,0,-1,0l0,-1c0,0,0,-1,1,-1c0,-1,0,-1,0,-1c0,-1,1,-1,1,-1c0,-1,1,-1,1,-1c1,0,1,0,1,1c1,0,1,1,1,1l0,1c0,1,0,1,-1,2c0,1,0,1,0,1c0,0,1,0,1,0l1,0l1,0l1,0c0,0,1,0,1,0c1,-1,2,-1,2,-1l1,-1c-1,-1,-1,-1,-1,-1l0,1l-1,0c-1,0,-1,0,-1,0l-1,0c0,0,0,-1,0,-1l0,-1l0,-1l0,-1c1,0,1,0,1,0c0,-1,1,-1,1,-1c0,0,1,0,1,0c0,1,0,1,1,1l0,1l0,1c0,1,0,1,0,2c0,0,0,1,0,1ZM213.5,106.5l0,1l1,0c0,0,1,0,1,0c0,0,0,-1,-1,-1l-1,0ZM212.5,96.5l4,-2l0,1l-4,2ZM207.5,104.5l-1,-1l-1,1l-1,-1l1,-1l1,1l1,-1l1,1ZM207.5,107.5c0,0,-1,0,-1,0c-1,1,-1,1,-1,1c0,0,0,1,0,1c1,0,1,0,1,1c1,-1,1,-1,1,-1c1,0,1,0,1,0l0,-1c-1,-1,-1,-1,-1,-1ZM203.5,96.5l4,-2l0,1l-5,2ZM194.5,97.5c0,0,1,0,1,0c1,0,1,0,1,0c1,0,1,0,2,0c0,0,0,1,0,1l0,1c0,0,-1,0,-1,0c0,0,-1,0,-1,0l-1,0l-1,0l2,0c1,0,1,-1,2,-1c-1,0,-1,0,-1,0c0,0,-1,0,-1,0c0,0,-1,0,-1,0c0,0,-1,0,-1,0l0,-1ZM252.5,112.5l0,-1l0,-1l0,-8l0,-3l1,11l0,1c0,1,-1,1,-1,1ZM244.5,111.5c1,0,1,0,1,0c1,0,1,0,1,-1c0,0,1,0,1,0l0,-1l0,-2l-1,-6c0,0,0,-1,0,-1l0,-1c1,0,1,0,1,0c0,0,0,1,0,1c1,0,1,0,1,0c0,0,0,1,0,1c0,0,0,1,0,1c0,0,0,1,0,2c0,0,0,1,0,3l0,1l0,1l0,1c0,0,0,1,0,1c-1,0,-1,0,-1,0c0,0,0,1,0,1l-1,0l-1,0l-1,0l-1,0c-1,0,-1,0,-1,0c0,0,-1,-1,-1,-1l-1,0l0,1c0,0,-1,0,-1,0c0,0,-1,0,-1,0l-1,0l-1,0c-1,0,-1,0,-2,0c-1,-1,-1,-1,-1,-2l0,-9l1,-2l0,10l0,1l1,0c0,1,0,1,1,1l1,0c1,0,1,0,2,0c0,0,1,-1,1,-1c0,0,1,0,1,0c1,0,1,0,1,0c1,1,1,1,1,1l1,0ZM240.5,108.5l-1,-1l1,-1l1,1ZM239.5,98.5l0,1c1,0,1,0,1,0l0,-1l0,-1l1,0l0,1c0,0,1,0,1,0l0,-1c0,0,0,1,0,1l0,1l-1,0l0,1l0,-1l-1,0l0,1l-1,0l0,-1l0,-1ZM243.5,95.5l-6,3c1,-1,1,-1,1,-2l6,-2ZM222.5,116.5c0,-1,0,-1,0,-1c0,0,1,1,1,1l1,0c1,0,1,-1,2,-1c1,0,1,-1,2,-1c0,-1,1,-1,1,-2l0,-1c0,0,0,-1,0,-1l0,-1l-1,0c0,-1,0,-1,0,-1l1,-1c1,1,1,1,1,2l0,1l0,1c0,0,0,1,0,1c0,1,0,1,0,1l-1,0c0,1,0,1,0,1c0,1,-1,1,-1,1c0,1,0,1,-1,1c-1,0,-1,0,-1,0c0,0,-1,1,-1,1l-1,0c0,0,0,-1,0,-1l-1,0l-1,0ZM225.5,103.5l4,-2c0,0,0,1,0,1l-5,2ZM303.5,104.5l-1,-1l-1,1l-2,-1l1,-1l2,1l1,-1l1,1ZM301.5,112.5l-1,0l-2,0l-1,0l-1,-1c0,0,0,-1,0,-1l0,1c-1,0,-1,0,-1,0l0,1c-1,0,-1,0,-2,0c0,0,-1,0,-1,0l-1,0c-1,0,-1,0,-1,0c0,0,-1,-1,-1,-1l0,-1l1,0l0,-1l0,1l1,0l1,0l1,0c1,0,1,0,1,0l1,0l1,-1l0,-1l-1,-2l0,-1l0,-1l1,-1l0,2l0,1l1,2c0,1,0,1,0,1c0,1,0,1,0,1c0,0,1,1,1,1l2,0l1,0c0,0,1,0,1,-1c1,0,1,0,1,0l1,0l0,-1c0,0,-1,0,-1,0c0,-1,0,-1,0,-1l1,-2l0,1l0,1l0,1l0,1c0,0,0,1,0,1c-1,1,-1,1,-2,1c0,0,-1,0,-1,0ZM301.5,93.5c0,0,1,0,1,-1l1,0c0,0,0,1,0,1l0,1c0,0,0,1,0,1l1,0l-1,1l-1,0l0,1c-1,0,-1,0,-1,0l-1,0l0,1l-1,0c0,0,0,-1,0,-1l1,0c1,-1,1,-1,1,-1l1,-1l-1,0c0,0,0,-1,0,-1c0,0,0,-1,0,-1ZM302.5,93.5c0,0,0,1,0,1l1,0l-1,0ZM384.5,142.5l1,0c0,0,1,0,1,0c1,0,1,0,1,0c1,0,1,0,1,1l-1,1l-1,0c0,0,0,1,0,1c0,0,-1,0,-1,0c-1,0,-1,0,-1,0l2,-1c0,0,1,0,1,-1l-1,0c-1,0,-1,0,-2,0c0,0,0,-1,0,-1ZM314.5,99.5c0,0,1,-1,1,-1c1,0,1,0,1,0c1,0,2,0,2,0c0,0,0,1,0,1c0,1,0,1,0,1c0,0,-1,1,-1,1l-1,0l-1,0l-1,0l2,0c1,-1,1,-1,2,-1c-1,0,-1,-1,-1,-1c0,0,-1,0,-1,0c0,0,-1,0,-1,1c0,0,-1,0,-1,0c0,-1,0,-1,0,-1ZM292.5,97.5l1,0c0,0,1,0,1,0c1,0,1,0,2,0c0,0,0,1,0,1l-1,1l-1,0c0,0,-1,0,-1,0c-1,0,-1,0,-1,0l2,0c0,0,1,-1,1,-1c-1,0,-1,0,-1,0c-1,0,-1,0,-2,0l0,-1ZM278.5,104.5l-2,-1l1,-1l1,1ZM286.5,110.5l-2,0c0,0,-1,0,-2,0c-1,0,-1,0,-1,0l-1,0l0,1l-1,0c0,0,-1,0,-1,0c0,1,-1,1,-1,1c-1,0,-2,0,-3,0l-1,0l-1,0c0,0,0,-1,-1,-1l1,1l-1,1c0,0,0,1,0,1c0,1,-1,2,-1,2l-1,1l-1,0c0,0,-1,0,-1,0c-1,1,-1,1,-2,1l-1,-1c-1,0,-1,0,-2,0c0,-1,0,-1,0,-1c0,-1,-1,-1,-1,-2c0,0,1,-1,1,-2l0,-1l1,0l0,-1l0,1c0,0,0,1,0,1c-1,0,-1,1,-1,1c0,1,1,1,1,2c1,0,1,0,2,1l1,0c1,0,2,-1,3,-1c0,0,1,-1,1,-1c1,0,1,-1,1,-1l0,-3c0,0,0,-1,0,-2c0,0,-1,0,-1,-1l0,-7l1,-2l1,11l0,1l1,1l1,0l1,0c1,0,1,-1,2,-1c0,0,1,0,1,0l2,-1l-1,0l-1,-1l-1,0c-1,0,-1,0,-1,0l-1,0c0,0,0,-1,1,-1c0,0,0,-1,0,-1c1,0,1,0,1,0c1,0,1,0,1,0l1,0l0,1l2,0l1,1c0,0,1,0,1,0c0,0,1,0,1,0c1,0,1,0,1,0l2,0ZM284.5,116.5l-5,2c0,-1,1,-1,1,-1l4,-2ZM268.5,120.5l-4,2c0,0,0,-1,1,-1l4,-2ZM329.5,112.5l-1,0l-1,0c0,0,0,-1,0,-1l-1,0l-1,0c0,1,0,1,0,1l-1,0l-1,0l-2,0c0,1,0,1,0,1c0,0,0,1,0,1c0,1,0,2,0,2c0,1,-1,1,-1,2c-1,0,-1,1,-2,1c-1,0,-2,0,-2,0c-1,0,-2,0,-2,0c-1,0,-1,0,-2,-1l-1,-1c0,0,0,-1,0,-2c0,0,0,-1,0,-1l0,-1l1,0l0,-1l1,0c0,0,-1,0,-1,1c0,1,0,1,0,1l0,1l0,1c0,0,1,0,1,1c0,0,1,0,1,0c0,0,1,0,2,0c1,0,1,0,2,0c1,0,2,-1,2,-1l1,-1l0,-1l0,-1c0,0,-1,0,-1,0c0,-1,0,-1,0,-1l0,-1l0,-1c1,0,1,0,1,0c0,1,0,1,1,1l1,0l1,0c0,0,1,0,1,0l0,-1l1,-1c0,0,1,-1,1,-1l0,-1c0,0,1,0,1,0c0,0,1,0,1,0c0,1,0,1,0,2l1,0l0,1c0,0,0,1,0,1l-1,0c0,0,0,1,0,1ZM327.5,110.5l1,0c0,-1,0,-1,0,-1c-1,0,-1,0,-1,0l0,1ZM324.5,99.5l4,-2l0,1l-4,2ZM316.5,110.5l-1,-1l1,-1l1,1ZM355.5,106.5l-1,-1l1,-2l1,1ZM355.5,112.5l-1,0l-1,0c-1,0,-1,0,-2,-1c0,0,0,-1,0,-2c0,0,-1,1,-1,1c-1,1,-1,1,-2,2c-1,0,-1,0,-1,0l-1,0l-1,1l-1,0l-1,0l-1,0l-1,0c0,0,-1,0,-1,0l-1,0c-1,0,-2,-1,-2,-1c-1,-1,-1,-2,-1,-2l0,-1c0,-1,0,-1,0,-1l1,-1c0,0,0,1,0,1c0,1,1,2,2,2c0,1,1,1,2,1c0,0,1,0,2,0l1,0l1,0l1,0c3,-1,4,-2,5,-3l0,-1l-1,-7l1,-2l1,11c0,0,0,1,0,1c0,0,1,1,1,1l1,0l1,0c0,0,1,0,1,-1c1,0,1,0,1,0c0,0,0,-1,0,-1c0,-1,0,-1,-1,-1l1,-2l1,1c0,0,0,1,0,1c0,1,0,1,0,1c0,0,0,1,0,1c0,0,0,1,0,1l-1,0c0,1,0,1,-1,1c0,0,-1,0,-1,0ZM355.5,98.5l0,1c1,0,1,0,1,0l0,-1l1,0l0,-1l0,1l1,0l0,-1l1,0c0,0,0,1,0,1l-1,0l0,1l0,1l-1,-1l0,1l-1,0c-1,0,-1,0,-1,0l0,-1l0,-1ZM359.5,95.5l-5,3c0,-1,0,-1,1,-2l5,-2ZM344.5,107.5c0,1,-1,1,-1,1c-1,0,-1,0,-1,0c0,0,-1,0,-1,0l0,-1l1,0l1,0c1,0,1,0,1,0l0,-1l-1,0c-1,0,-1,0,-1,0l0,-1l0,-1c1,-1,1,-2,2,-2l0,1c-1,1,-1,1,-1,1l1,1c1,0,1,0,1,1c0,1,0,1,-1,1ZM341.5,99.5l4,-2l0,1l-1,0l-4,2ZM386.5,116.5c0,-1,0,-1,0,-1c0,0,1,1,1,1l1,0c1,0,1,-1,2,-1c1,0,1,-1,2,-1c0,-1,1,-1,1,-2l0,-1c0,0,0,-1,0,-1l0,-1l-1,0c0,-1,0,-1,0,-1l1,-1c1,1,1,1,1,2l0,1l0,1c0,0,0,1,0,1c0,1,0,1,0,1l-1,0c0,1,0,1,0,1c0,1,-1,1,-1,1c0,1,0,1,-1,1c-1,0,-1,0,-1,0c0,0,-1,1,-1,1l-1,0c0,0,0,-1,0,-1l-1,0l-1,0ZM389.5,103.5l4,-2c0,0,0,1,0,1l-5,2ZM385.5,116.5l-1,-1l1,-1l1,1ZM383.5,112.5l-1,0l-1,0c-1,0,-1,0,-1,0c0,0,-1,-1,-1,-1c0,0,0,1,-1,1c0,0,-1,0,-1,0l-1,0l-1,0c-1,0,-2,0,-2,0c-1,-1,-1,-1,-1,-2l0,-9l1,-2l0,10l0,1c1,1,1,1,2,1l1,0l1,0l1,0c0,-1,0,-1,0,-1c1,0,1,0,1,0c0,-1,0,-1,0,-1l1,0c0,0,0,1,-1,1c1,0,1,0,1,0c1,1,1,1,1,1l1,0l1,0c0,0,1,0,1,-1c1,0,1,0,1,0l0,-1c0,-1,0,-1,0,-1l0,-2c0,0,1,0,1,1l0,1l0,1l0,1c0,0,0,1,0,1c-1,1,-1,1,-2,1c0,0,-1,0,-1,0ZM382.5,100.5l0,1l1,0l1,0l0,-1l0,1c0,0,1,0,1,0c0,0,0,-1,0,-1l0,-1l1,0l0,1l0,1c-1,0,-1,1,-1,1l-1,0c-1,0,-1,1,-1,1c0,0,-1,-1,-1,-1l0,-1l0,-1ZM387.5,97.5l-6,3c1,-1,1,-1,1,-1l5,-3ZM378.5,108.5l-1,-1l1,-2l1,1ZM375.5,99.5l5,-2l-1,1l-4,2ZM370.5,96.5c0,0,1,0,2,1c0,0,1,0,1,0l1,0l1,-1l0,1c0,0,-1,0,-1,0l-1,1l-1,0l-1,0l0,-1l-1,0l-1,0l0,1l0,-1l1,-1ZM57.5,61.5c0,1,0,2,0,2c0,0,0,1,-1,1l0,1l1,1l-1,0l0,1l-1,0l0,1l-1,0l-1,1l-1,0l-1,0l-1,0l0,1l-1,1l-1,0c0,1,0,1,0,1l-1,0l-3,0l-2,0c0,0,0,-1,-1,-1l0,-1c-1,0,-1,0,-1,-1c-1,0,-2,0,-3,0l0,-1l-1,0l-1,-1l-1,0l0,-1l-1,0l2,-1l-1,0l0,-1l-1,-1l0,-1l0,-1l0,-1c0,-1,0,-1,1,-2l0,-1l-1,0c0,-1,1,-1,1,-1l1,-1l1,0l0,-1l1,0l1,-1l2,0l0,-1l1,-1c1,0,1,0,1,0l1,0l1,0l3,0l1,0l1,0l0,1l1,0l0,1l2,1l1,0c0,0,1,0,1,0l1,1c1,1,1,1,2,2l-1,0l0,1l1,1l0,1ZM48.5,71.5l1,0l0,-1l1,-1c1,0,1,0,2,0l1,-1c0,0,1,0,1,0l0,-1l1,0l0,-1l1,0l-1,-1l1,0l0,-1l0,-1l1,0l0,-1l0,-1c0,-1,0,-1,-1,-2l0,-1l-1,-1l1,0c0,-1,0,-1,-1,-1l0,-1l-1,0l0,-1l-1,0l-1,0l-2,-1l-1,-1l0,-1l-1,0l-1,0l-2,0l-1,0l-1,0l-1,0l-1,1l0,1c-1,0,-1,0,-1,0l-2,1l-1,0l-1,1l-1,0l0,1c0,0,-1,0,-1,1l1,0l-1,1l0,1l0,1l-1,0c0,1,0,1,0,1l0,1l0,1l1,0l0,1l1,1l-1,1l1,1l1,0l0,1l1,0l1,1l2,0l1,1l1,1l1,0l4,0ZM54.5,56.5l0,1l-1,0l0,-1l-1,0l0,-1l-1,0c-1,0,-1,0,-1,0c0,0,1,0,1,0l-1,0l0,-1c0,0,1,0,1,0l0,1l1,0c0,0,1,0,1,0l0,1l1,0ZM54.5,66.5l-1,1l-1,0l0,1l-1,0l-1,0l1,0c0,0,0,-1,-1,-1c1,0,1,0,1,0l1,0c1,-1,1,-1,1,-1l1,0ZM49.5,68.5c0,0,0,1,0,1l-1,0l-1,0l-3,0l-2,0c0,0,-1,0,-1,0c0,-1,0,-1,0,-1l0,-1l1,0l1,0l4,0l1,0l1,0l0,1ZM49.5,54.5c0,1,0,1,0,1l-1,0l0,1l-1,0l-3,0l-1,0l-1,0c0,-1,-1,-1,-1,-1l0,-1l0,-1l1,0l1,0l1,0l3,0l1,0c0,0,1,0,1,0c0,0,0,1,0,1ZM48.5,57.5l1,-1l1,0c0,0,1,0,1,1l1,0l0,1l1,0c1,0,1,0,1,0l0,1l1,0l0,1l0,1l0,1c0,0,0,1,0,1l-1,0l0,1c0,0,0,1,0,1l-2,-1c0,1,0,1,0,1c0,0,-1,1,-1,1l-1,0l-1,0c0,0,-1,0,-1,0l0,-1l-1,0l-3,0l-2,0l0,1l-1,0l-1,0c0,0,-1,0,-1,0c0,0,-1,-1,-1,-1l0,-1l-1,1l-1,0l0,-1l0,-1l-1,-1l0,-1c0,0,0,-1,0,-1l1,-1l0,-1c0,0,1,0,1,0l1,0l0,-1l1,0c1,-1,1,-1,1,-1c1,0,1,0,1,0l1,1l1,0l1,0l3,0ZM48.5,65.5l1,1l1,0l1,0l0,-1l1,0c0,-1,0,-1,0,-1l1,1l1,-1l0,-1l0,-1l1,0l0,-1c0,0,-1,-1,-1,-1c0,-1,0,-1,0,-2l-1,0l-1,0l0,-1l-1,0l-1,0c-1,0,-1,0,-1,0l-1,0l-1,0l-3,0l-1,0l-1,0l-1,0l-1,0c-1,0,-1,0,-1,0l-1,1l-1,0l-1,0l0,1l0,1l0,1c0,1,0,1,0,1l0,1c0,1,0,1,1,2l1,-1l0,1l1,0l0,1l1,0c1,0,1,0,1,0c0,0,1,-1,1,-1l1,0l4,0l1,0ZM47.5,59.5l0,1l1,1l0,1l0,1c0,0,0,1,0,1c-1,0,-1,0,-1,0l0,-1c0,-1,0,-2,0,-3ZM45.5,59.5l0,1l0,1l1,0l0,1l0,1l0,1c0,0,-1,-1,-1,-3l-1,0c0,-1,0,-1,0,-1c0,-1,0,-1,1,-1ZM45.5,60.5c0,0,-1,0,-1,0l0,1l1,0l0,-1ZM43.5,59.5l0,1l0,1l0,1l0,1c0,0,0,1,0,1l0,-1c0,-1,0,-2,-1,-3ZM36.5,56.5l1,0l0,-1l1,0l1,0l0,-1l1,0l0,1c-1,0,-1,0,-1,0c0,0,-1,1,-1,1l-1,1l-1,-1ZM36.5,66.5l1,0c0,0,1,0,1,1l1,0l1,0l0,1l-1,0c-1,0,-2,-1,-2,-1l0,-1l-1,0ZM92.5,66.5l0,-1l0,-1l0,-9l0,-2l1,11c0,0,0,1,0,1c0,0,-1,1,-1,1ZM85.5,64.5c1,0,1,0,1,0c1,0,1,0,1,0c0,0,0,-1,0,-1l0,-2l0,-6c-1,0,-1,-1,-1,-1c0,0,0,-1,1,-1c0,0,0,-1,0,-1l0,1c1,0,1,1,1,1l0,1l0,1l0,-1c0,0,0,1,0,1c0,0,0,1,0,2l0,2c0,1,0,1,0,1l0,1c0,1,0,1,0,1c0,0,0,1,0,1c0,1,-1,1,-1,1l-1,1c-1,0,-1,0,-1,0l-1,0c-1,0,-1,0,-1,0c-1,0,-1,0,-1,0c0,0,0,-1,0,-1c-1,0,-1,0,-1,0c-1,0,-1,0,-1,0c0,0,-1,1,-1,1c0,0,-1,0,-1,0l-1,0l-1,0c-1,0,-1,0,-2,-1c0,0,-1,-1,-1,-2l0,-8l1,-2l0,9l0,1l1,1l1,0l1,0l1,0l1,0c0,0,1,0,1,0c0,0,1,-1,1,-1l1,0c0,1,0,1,0,1c1,0,1,0,2,0l1,0ZM80.5,62.5l-1,-1l1,-2l1,1ZM79.5,51.5l0,1c0,1,0,1,1,1l0,-1l0,-1l1,0l0,1c1,0,1,0,1,-1l0,-1l0,1l0,1c0,1,0,1,0,1l-1,0l-1,0c0,1,0,1,-1,1l0,-1l0,-1ZM83.5,49.5l-5,2c0,0,0,-1,0,-1l6,-3ZM62.5,69.5c1,0,1,0,1,0l1,0c1,0,2,0,2,-1c1,0,1,0,2,-1c0,0,1,-1,1,-1c0,0,0,-1,0,-1c0,0,0,-1,0,-1l0,-1l0,-1l-1,0l1,-1l0,-1l0,1c1,0,1,1,1,1l0,1l0,1c0,1,0,1,0,2c0,1,0,1,0,1c-1,0,-1,1,-1,1c0,0,0,1,-1,1l-1,0l0,1c0,0,-1,0,-1,0c0,0,-1,0,-1,0l-1,0l-1,0l0,-1l-1,0ZM69.5,74.5l-4,2c0,-1,0,-1,0,-1l4,-2ZM144.5,63.5c-1,0,-2,0,-3,1c-1,1,-2,1,-3,1c-1,1,-2,1,-3,1l-1,0l-1,0l-1,0c0,0,-1,0,-1,-1c0,-1,0,-1,0,-1l-1,0c0,1,0,1,0,1l-1,0c0,0,-1,1,-1,1c0,0,-1,0,-2,0l-1,0l-1,-1l0,-1l0,-1l1,0l0,1l1,0l1,0c1,0,1,0,1,0l1,0c0,-1,1,-1,1,-1c0,0,0,-1,0,-2l0,-1l0,-1l0,-1l0,-1l1,1c0,0,0,1,0,2l0,2c0,0,0,1,1,1c0,1,0,1,0,1l1,0l1,0l1,0c1,0,1,0,1,0c0,0,1,0,1,0c0,-1,0,-1,-1,-1c0,-1,0,-1,0,-2c0,-1,0,-1,1,-1l0,-1c0,0,1,-1,1,-1c0,0,1,0,1,0l1,0c0,0,1,0,1,0c1,0,1,0,1,1c1,0,1,0,1,0l-1,0l-1,0l-1,0l-1,0c0,0,-1,0,-1,0c0,1,0,1,0,1c-1,0,-1,0,-1,0c0,0,0,1,1,1l0,1c1,0,1,1,2,1c0,0,1,0,1,0c1,-1,1,-1,1,-1l1,0l1,-1ZM135.5,53.5l5,-2l-1,0l0,1l-4,2ZM129.5,54.5l-1,0l0,-2l2,1ZM126.5,50.5l4,-3l-1,1l0,1l-4,2ZM119.5,66.5l0,-1l0,-1l0,-9l1,-2l0,11c0,0,0,1,0,1c0,0,0,1,-1,1ZM108.5,70.5l-1,-1l1,-1l1,1ZM115.5,64.5c0,0,-1,1,-1,1c-1,0,-2,1,-3,1c-2,0,-3,1,-4,1c-2,0,-3,-1,-4,-1c-1,0,-2,0,-2,-1c0,0,-1,0,-1,-1c0,-1,0,-1,0,-1l0,-1l0,-1c1,0,1,-1,1,-1l1,0c-1,0,-1,1,-1,1c0,0,0,1,0,1c0,0,0,1,0,1c1,0,1,1,2,1c0,0,1,0,1,0l1,1l1,0l2,0c1,0,1,0,2,-1c1,0,1,0,1,0l1,0l1,0c0,0,1,-1,1,-1c1,0,1,-1,2,-1l-1,-1l0,-1c0,-1,0,-1,1,-1l0,1l0,1l0,1l0,1c0,0,0,1,-1,1ZM104.5,56.5l4,-2l0,1l-4,2ZM172.5,56.5l-2,-1l1,-1l2,1ZM174.5,64.5c0,1,-1,1,-1,1c0,0,-1,1,-2,1c0,0,-1,0,-1,0l-1,0l-1,0l-1,0c-1,0,-1,0,-2,0c0,0,-1,-1,-1,-1c0,0,-1,1,-2,1c0,0,-1,0,-1,0l-1,0c-1,0,-1,0,-1,0c-1,0,-1,0,-1,-1c0,0,-1,0,-1,-1c0,1,0,1,-1,2c0,0,-1,0,-1,0l-1,0l-1,0c-1,0,-1,0,-2,-1c0,0,-1,-1,-1,-2l0,-8l1,-2l0,9l0,1l1,0l0,1l1,0l1,0l1,0l1,0l1,0c0,0,0,-1,0,-1l0,-1l1,0l0,1c0,1,0,1,1,1l1,0l1,0c0,0,1,0,1,0c0,0,1,0,1,0c0,0,-1,0,-1,-1c0,-1,0,-1,1,-2c0,0,0,-1,0,-1c1,0,1,0,1,-1c0,0,1,0,2,0l1,0c0,1,0,1,0,2l0,1c0,0,0,1,0,1c-1,0,-1,1,-1,1c1,0,1,0,1,0c0,0,1,0,1,0l1,0l1,0c0,0,1,0,2,0c0,0,1,0,1,-1c0,0,1,0,1,0c0,-1,0,-1,0,-1l-1,0c-1,1,-1,1,-1,1c-1,0,-1,0,-1,0c0,-1,0,-1,0,-1c-1,0,-1,0,-1,0c0,-1,0,-1,0,-1c0,0,0,-1,0,-1l1,-1c0,0,0,-1,0,-1c0,0,1,-1,1,-1c0,0,1,1,1,1c0,0,1,0,1,1l0,1l0,1c0,1,1,1,1,1c0,1,-1,1,-1,2ZM171.5,60.5l1,1c0,-1,1,-1,1,-1l-1,0c0,-1,0,-1,0,-1c0,0,-1,0,-1,0l0,1ZM170.5,50.5l4,-2c0,1,0,1,0,1l-4,2ZM166.5,58.5l-2,-1l-1,1l-1,-1l1,-1l1,0l1,-1l1,1ZM165.5,61.5c0,0,-1,0,-1,0c0,0,-1,0,-1,1l1,0c0,1,0,1,0,1c1,0,1,0,2,0c0,0,0,-1,0,-1c0,0,0,-1,0,-1c0,0,-1,0,-1,0ZM167.5,72.5l-4,2c0,-1,0,-1,0,-1l5,-2ZM157.5,61.5l-2,-1l1,-1l2,1ZM154.5,53.5l4,-2l0,1l-1,0l-4,2ZM228.5,64.5l0,1l-1,0c0,0,0,1,-1,1c-1,0,-1,0,-1,0l-1,0l-1,0l-1,-1l0,-1c0,1,-1,1,-1,2c0,0,-1,0,-1,0l-1,0l-3,0c-1,0,-1,0,-2,-1c0,0,-1,0,-1,-1l1,-1l-1,0c-1,0,-1,0,-1,0l-5,2l-1,1c0,0,-1,0,-1,0l-1,0l-1,0c-1,0,-1,0,-1,-1c-1,0,-1,0,-1,0l0,-1c0,1,0,1,-1,2c0,0,-1,0,-1,0l-1,0c0,0,-1,0,-1,0c0,0,-1,-1,-1,-1c0,-1,-1,-2,-1,-3c0,1,0,1,-1,2c0,0,-1,1,-2,1c0,0,0,1,-1,1l-1,0l-1,0c-1,0,-1,0,-1,0l-1,0l-1,0l-1,0l-1,0c-1,0,-2,0,-3,-1c0,0,0,-1,0,-2l0,-1c0,-1,0,-1,0,-1l0,-1l1,0l0,1c-1,0,-1,0,-1,0c0,2,1,2,2,3c1,0,2,0,2,0c1,0,2,1,2,1l1,0l1,-1l1,0l1,0c2,0,4,-1,4,-3l0,-7l1,-2l0,11c0,0,1,1,1,1c0,0,1,0,1,0l1,0c1,0,1,0,1,0c0,0,1,-1,1,-1l0,-1l1,0l0,1c0,0,-1,0,-1,0c1,1,1,1,1,1c1,0,1,0,1,0l1,0l1,0l1,0l1,0c0,0,1,0,1,-1l1,0l1,0l1,0l-1,-1l-1,0c-1,0,-2,-1,-2,-1c-1,0,-1,0,-1,1l-1,0l0,-1c0,0,1,-1,1,-1c0,0,1,0,1,0l1,0c1,0,1,0,2,0c0,1,1,1,3,1c0,0,1,1,2,1c0,0,1,0,1,0l1,0l-1,1l-1,0l-1,0c0,1,0,1,1,1c0,0,1,0,1,0l1,0l1,0l1,0c1,0,1,0,1,0c1,0,1,0,1,0c0,0,0,-1,1,-1l0,-1l0,1c0,1,1,1,1,1c0,0,1,0,1,0l1,0c1,0,1,0,1,0c1,0,1,0,1,0c1,-1,1,-1,1,-2l0,1l1,1l1,0l1,0l1,0c0,-1,0,-1,0,-1l0,-1l1,0l0,1c0,0,0,1,0,1l1,0l1,0l-1,-1l1,-1l0,1l1,0l0,1l-1,0l0,1c0,1,0,1,-1,1c0,0,-1,0,-1,0l-1,-1l-1,0c0,1,0,1,0,1l-1,0l-1,0c0,0,-1,0,-1,0c0,0,0,-1,0,-1l0,-1ZM230.5,50.5l0,-1c1,0,1,0,1,0l1,0c0,0,0,1,0,1l0,1c0,0,0,1,-1,1l1,0l0,1l-1,0l-1,1c0,0,-1,0,-1,0l-1,1c0,0,0,-1,0,-1l1,0c0,-1,0,-1,0,-1l1,0l0,-1c0,0,0,-1,0,-1c0,0,0,-1,0,-1ZM231.5,50.5l-1,0c0,0,0,1,0,1l1,0ZM221.5,70.5l-1,-1l1,-1l1,1ZM219.5,55.5l1,0c0,0,1,0,1,0c1,0,1,0,2,0c0,0,0,1,0,1l-1,1c-1,0,-1,0,-1,0c0,0,-1,1,-1,1c0,0,-1,-1,-1,-1l2,0c0,0,1,-1,1,-1c-1,0,-1,0,-1,0c-1,0,-1,0,-2,0c0,-1,0,-1,0,-1ZM200.5,61.5l-1,-1l1,-1l1,1ZM197.5,53.5l5,-2l-1,1l-4,2ZM189.5,61.5c-1,0,-1,1,-2,1l-1,-1l-1,0l1,0l1,0c1,0,1,0,1,0l0,-1l-1,0c-1,-1,-1,-1,-1,-1l0,-1l1,0c0,-1,1,-2,2,-3l0,2c-1,0,-1,1,-1,1c1,0,2,1,2,1c0,1,0,1,-1,1c0,0,0,1,0,1ZM185.5,53.5l4,-2l0,1l-4,2ZM280.5,69.5l-1,-1l1,-1l1,1ZM278.5,65.5l-1,0l-11,0l0,1c0,1,0,1,0,2l-1,0l0,-1c0,0,0,-1,0,-1l0,-1l-1,0c-1,0,-2,0,-2,0c-1,-1,-1,-1,-1,-2c0,-1,0,-1,0,-1c0,-1,0,-1,0,-2c0,1,0,1,0,1c-1,1,-1,1,-1,1c0,1,0,1,0,1l0,1c0,0,-1,0,-1,0c0,1,0,1,0,1c-1,0,-1,1,-1,1c-1,0,-1,0,-1,0c-1,0,-1,1,-2,1c0,0,-1,0,-2,0l1,0l0,-1c0,0,1,0,1,0c1,0,1,-1,2,-1c0,0,0,-1,1,-1l1,-1c0,0,-1,0,-1,0c0,-1,0,-1,0,-1c-1,-1,-1,-1,-1,-1c0,-1,-1,-1,-1,-1c0,-1,-1,-1,-1,-1c0,-1,-1,-1,-1,-1l-1,0l-1,0l0,-1c0,0,-1,0,-1,-1l0,-1l0,-1c1,0,1,0,1,0c0,0,1,1,2,1c0,1,1,1,1,2c1,0,1,1,2,1c0,1,1,1,1,2c0,1,0,1,1,1c0,1,0,1,0,2c0,-1,0,-1,0,-1c1,0,1,-1,1,-1c0,0,0,-1,0,-1c0,-1,0,-1,0,-2l0,-4l1,-2l1,10c0,0,0,1,0,1c1,1,1,1,2,1l1,0c1,0,1,0,1,-1c1,0,1,-1,1,-1l0,-1l0,-2l0,-1l-1,-3l0,-1l0,-1l0,-1l1,0l1,2c-1,0,-1,1,-1,1l0,1l0,1l1,1l0,1l0,2l0,1l-1,1l2,-2l1,0l0,-1c1,0,1,0,2,0l1,0c0,0,1,0,1,0c1,0,1,1,1,1l0,1c0,1,0,1,-1,1l0,1l-1,0l2,0l2,0l1,0c0,0,1,0,1,0c1,-1,1,-1,1,-1c0,-1,0,-1,0,-1c0,0,0,-1,0,-1l-1,0l1,-2l1,1l0,1l0,1l0,1c0,0,0,1,0,1l-1,0c0,1,0,1,-1,1c0,0,-1,0,-1,0ZM274.5,62.5l-1,0c0,0,0,-1,0,-1c0,0,-1,0,-1,0c-1,0,-1,1,-2,1l-1,1l-1,0l-1,1l1,0c1,0,1,0,2,0l1,0c0,0,0,-1,0,-1c1,0,2,0,3,-1ZM269.5,69.5l-4,2c0,-1,0,-1,1,-1l4,-2ZM254.5,49.5l5,-2c-1,1,-1,1,-1,1l-5,2ZM256.5,46.5l5,-2c-1,0,-1,1,-1,1l-5,2ZM311.5,65.5l-1,0l-1,0c-1,0,-1,0,-2,0l-1,0c0,0,-1,0,-1,1c0,0,-1,0,-1,0l-1,0l-1,0l0,-2l1,0c1,0,1,0,1,0c0,0,1,0,1,0c0,0,0,-1,0,-1c0,0,0,-1,0,-1l0,-1c0,0,1,0,1,0c0,-1,0,-1,0,-1c0,0,0,-1,0,-1c0,0,0,-1,1,-1c1,0,1,0,2,1c1,0,1,1,1,1c1,1,1,1,1,2c1,0,1,0,1,1c0,1,0,1,0,1l-1,1ZM307.5,61.5c-1,0,-1,0,-1,1l0,1c0,0,1,0,1,0l1,0c0,-1,0,-1,0,-1c0,0,0,-1,0,-1c-1,0,-1,0,-1,0ZM309.5,61.5l0,1c0,1,0,1,-1,1l1,0l1,1l1,0c0,0,0,-1,0,-1c-1,0,-1,0,-1,-1l-1,0c0,0,0,-1,0,-1ZM296.5,54.5l-1,0l1,-2l1,1ZM298.5,64.5c0,1,0,1,-1,1c-1,0,-1,1,-2,1l-1,0l-1,0c-1,0,-1,0,-1,-1l-1,0l0,-1l1,-1l1,1l1,0l1,0l1,0l1,0c0,-1,0,-1,0,-1l1,0c0,0,0,-1,0,-2l-1,-1l0,-1l0,-1l1,-1l0,1c0,0,0,1,1,2l0,2c0,0,0,1,0,1c0,1,0,1,0,1c1,0,1,0,1,0l2,0l0,2l-2,0c-1,0,-1,0,-1,0l0,-1l-1,0c0,-1,0,-1,0,-1ZM293.5,50.5l5,-3l-1,1l0,1l-4,2ZM287.5,66.5l0,-1l0,-1l0,-9l0,-2l1,11c0,0,0,1,0,1c0,0,-1,1,-1,1ZM353.5,58.5l-1,-1l0,-2l2,1ZM361.5,63.5l-2,0c0,0,-1,0,-1,0l-1,1c0,0,-1,0,-1,0l-1,0l-1,1c0,0,-1,0,-1,0c0,0,-1,0,-1,0c-1,1,-2,1,-2,1l-1,0c-1,0,-1,0,-1,0c-1,-1,-1,-1,-1,-2c0,1,-1,1,-1,1c0,1,-1,1,-1,1l-1,0l-1,0c-1,0,-2,0,-2,0c-1,0,-1,-1,-1,-1c-1,0,-1,1,-2,1c-1,0,-1,0,-2,0l-1,0l-1,0l0,-1c0,0,-1,0,-1,0c-1,0,-1,0,-1,0c-1,1,-2,1,-3,1l-1,1c0,0,-1,0,-1,0c0,0,-1,0,-1,0l-1,0l-1,0c-1,0,-2,0,-3,0c-1,-1,-2,-1,-3,-2l0,-1c-1,-1,-1,-1,-1,-1l1,0c0,-1,0,-1,0,-1c0,-1,0,-1,1,-2l0,1c-1,1,-1,1,-1,1c0,1,1,1,1,1c0,1,1,1,1,2c0,0,1,0,1,0c1,0,1,0,1,0c1,0,2,0,3,0c1,0,2,0,2,0c1,0,1,0,2,0c1,0,1,0,1,0l0,-1c1,0,2,0,2,0c1,-1,2,-1,2,-2c0,1,0,1,0,1l0,1c0,0,1,0,1,0l1,0l1,0c1,0,1,0,1,0l0,-1c0,-1,0,-1,0,-2c0,0,1,-1,1,-1l0,-1c1,0,1,0,2,0c0,0,1,0,1,0c0,1,0,1,0,2l0,1c0,0,0,1,0,1c0,0,0,1,-1,1c0,0,1,0,1,0c1,0,1,0,1,0l1,0c1,0,1,0,1,0c1,0,1,0,1,-1c0,0,0,-1,0,-1l0,-1l0,-7l1,-2l0,11l1,0c0,0,0,1,0,1c0,0,1,0,1,0l1,0c1,0,2,0,2,0c1,0,1,0,1,0l2,-1l1,0l-1,-1l-1,0l-1,0l0,-1l-1,0l-1,0l0,1l-1,0c0,-1,1,-1,1,-2l1,0l1,0c1,0,1,0,1,0l2,1l1,0c1,0,1,1,1,1c1,0,1,0,1,0c1,0,1,0,2,0l1,0ZM352.5,53.5l5,-2l-1,0l0,1l-4,2ZM344.5,50.5l4,-2c0,1,-1,1,-1,1l-4,2ZM341.5,58.5l-1,-1l-1,1l-2,-1l1,-1l2,0l0,-1l2,1ZM340.5,61.5l-1,0l0,1c0,1,0,1,1,1c0,0,1,0,1,0c0,0,0,-1,1,-1c0,0,-1,-1,-1,-1l-1,0ZM336.5,48.5l1,0c0,-1,0,-1,1,-1c0,0,1,1,1,1c1,0,1,0,1,0l0,1c0,0,-1,0,-1,0c0,1,0,1,0,1c-1,0,-1,0,-1,0c-1,0,-1,0,-1,0l-1,0l1,0c1,0,2,-1,2,-1c0,0,-1,0,-1,0l-1,0l-1,0l-1,0l0,-1l1,0ZM327.5,60.5l-1,0l-1,1l-2,-1l1,-2l2,1l1,-1l1,1ZM325.5,53.5l4,-2l0,1l-4,2ZM381.5,65.5c0,0,0,1,-1,1l0,-1l-1,0l-1,-1l-1,1l0,1l-1,0l-1,0l-1,0c-1,0,-2,0,-2,-1c-1,0,-1,-1,-1,-2l-1,-8l1,-2l1,9l0,1l0,1c1,0,1,0,2,0l1,0l1,0c0,0,1,0,1,0l1,-1c0,-1,1,-1,1,-2c0,0,1,0,1,0c0,0,1,0,1,0c0,1,0,1,0,1l1,1l0,1l-1,1ZM379.5,63.5l1,0l0,1c0,0,0,-1,0,-1c0,-1,0,-1,0,-1c-1,0,-1,0,-1,1ZM376.5,53.5l4,-2l0,1l-4,2ZM407.5,69.5l1,0c1,0,2,0,3,-1c0,0,1,0,1,-1c1,0,1,-1,1,-1c1,0,1,-1,1,-1c0,0,0,-1,0,-1l0,-1l-1,0l0,-1l0,-1l0,-1l1,1c0,0,0,1,0,1l1,1l0,1c0,1,0,1,-1,2c0,1,0,1,0,1c0,0,0,1,-1,1c0,0,0,1,0,1c-1,0,-1,0,-1,0l0,1l-1,0l-1,0l-1,0l-1,0c0,0,-1,0,-1,-1ZM409.5,56.5l5,-2l-1,1l-4,2ZM406.5,70.5l-2,-1l1,-2l2,1ZM403.5,66.5l-1,0l-1,0c-1,0,-1,0,-1,0c0,0,0,-1,0,-1c0,0,-1,0,-1,0c0,0,-1,0,-1,0c0,0,-1,1,-1,1c0,0,-1,0,-1,0l-1,0l-1,0c-1,0,-2,0,-2,-1c-1,0,-1,-1,-1,-2l0,-8l1,-2l0,9l0,1l0,1c1,0,1,0,2,0l1,0c1,0,1,0,2,0c0,0,1,0,1,0c0,0,1,-1,1,-1c0,0,1,0,1,0c0,1,0,1,0,1c1,0,1,0,1,0l1,0l1,0c1,0,1,0,2,0c0,0,1,0,1,0c0,0,0,-1,0,-1l0,-1c0,0,-1,0,-1,0l0,-1l1,-1l0,1l1,1l0,1c0,0,0,1,0,1c-1,0,-1,0,-1,0c0,0,0,1,0,1c0,0,-1,1,-1,1c-1,0,-1,0,-2,0ZM403.5,54.5l0,1c1,0,1,0,1,0l0,-1l0,-1l1,0l0,1c0,0,1,0,1,-1l0,1l0,1l-1,0l-1,0l0,1l-1,0c0,0,0,-1,0,-1l0,-1ZM407.5,51.5l-5,3c0,-1,0,-2,1,-2l5,-2ZM398.5,62.5l-1,-1l1,-2l1,1ZM396.5,56.5l4,-2l0,1l-4,2ZM86.5,143.5l1,0c0,0,1,0,1,0c1,0,1,0,1,0c1,0,1,0,1,1c0,0,0,1,-1,1c0,0,0,1,-1,1c0,0,-1,0,-1,0c-1,0,-1,0,-1,0l2,-1c0,0,1,0,1,-1l-1,0c-1,0,-1,0,-2,0l0,-1ZM124.5,145.5c0,-1,0,-1,1,-1c0,0,1,0,1,0c0,0,1,0,1,0c1,0,1,1,1,1c0,0,0,1,-1,1c0,0,0,1,0,1c0,0,-1,0,-1,0c0,0,-1,0,-1,0l-1,0l2,-1c0,0,1,0,1,0c0,-1,0,-1,-1,-1c-1,0,-1,0,-2,0c0,0,0,1,-1,1l0,-1l1,0ZM393.5,159.5l0,-1l1,-1l-1,-9l1,-2l0,10c0,1,0,1,0,1l0,1c0,0,0,1,-1,1ZM392.5,144.5l4,-2l0,1c-1,0,-1,0,-1,0l-4,2ZM56.5,160.5l0,-1l0,-1l-1,-9l1,-2l1,11c0,0,0,1,-1,1c0,0,0,1,0,1ZM54.5,146.5l4,-3l0,1l0,1l-4,2ZM180.5,112.5l0,-1l0,-2l0,-8l1,-3l0,11c0,0,0,1,0,1c0,1,0,1,-1,2ZM179.5,97.5l4,-2l-1,1l-4,2ZM286.5,158.5l0,-1l0,-2l-1,-8l1,-2l1,10c0,1,-1,1,-1,1l0,1l0,1ZM288.5,159.5l-4,2c0,0,0,-1,0,-1l4,-2ZM361.5,112.5l0,-1l1,-1l-1,-9l1,-2l0,11c0,1,0,1,0,1c0,1,0,1,-1,1ZM364.5,114.5l-4,2c0,-1,0,-1,0,-1l4,-2ZM49.5,97.5c1,0,1,0,1,0c1,0,1,0,2,0c0,0,1,0,1,0c0,0,1,0,1,1c-1,0,-1,1,-1,1l-1,0c0,1,0,1,0,1c-1,0,-1,0,-1,0l-1,0l1,-1c1,0,1,0,2,-1c0,0,-1,0,-1,0l-1,0c0,0,-1,0,-1,0l-1,1l0,-1l0,-1ZM244.5,59.5l0,-1ZM245.5,61.5l-1,0l-1,0c-1,0,-1,0,-1,0c0,-1,0,-1,0,-1c-1,0,-1,0,-1,0l0,-1l0,-1c1,0,1,0,1,0c0,-1,0,-1,0,-1c1,0,1,-1,1,-1l-1,0c0,-1,0,-1,0,-1c1,0,1,0,1,0l0,1l1,0l1,0l1,0l-1,0l-1,0c0,0,-1,0,-1,1l-1,0c0,1,0,1,0,1c0,0,0,1,0,1c0,0,0,1,0,1c1,0,1,0,1,1l1,0l1,0l1,0ZM218.5,294.5l0,-1l1,0c1,0,1,0,1,-1l0,-1l-1,-2l0,-1l1,0l0,-1l0,1c0,1,0,1,0,1l0,1l0,1l0,1l0,1l1,-1l1,0c0,-1,0,-1,0,-1l1,0c1,1,1,1,1,1c0,0,0,1,0,1c-1,0,-1,0,-1,1c-1,0,-1,0,-2,0l-1,0ZM222.5,292.5l-1,0l0,1l-1,0c1,0,1,0,1,0c0,0,1,0,1,0c0,0,1,0,1,0l0,-1c0,0,-1,0,-1,0ZM127.5,110.5l0,-1l1,0l0,-1l0,-1l0,-1l0,-1l0,-1l0,-1l1,1c0,0,0,1,0,1l0,1l0,1l0,1l0,1l0,-1l1,0l0,-1c0,0,1,0,1,0c1,0,1,0,1,0c0,0,0,1,0,1l1,0l-1,0c0,1,0,1,0,1c0,0,-1,0,-1,1c0,0,-1,0,-1,0c0,0,-1,0,-1,0ZM131.5,108.5c0,0,-1,0,-1,0l-1,1c0,0,1,0,1,0c1,0,2,0,2,0c0,-1,0,-1,0,-1l-1,0ZM73.5,91.5c0,-1,0,-1,0,-2c0,0,0,-1,0,-1l0,-1l1,1l0,1c0,1,0,1,0,1l0,1c0,0,-1,0,-1,0ZM72.5,93.5l0,1l0,1l1,0c0,0,0,-1,0,-1l1,-1l0,1c1,0,1,0,1,0l1,-1l0,-1l0,1l0,1c0,1,0,1,-1,1l-1,0l-1,1l-1,0l0,-1l0,-1ZM307.5,54.5l0,-1c0,0,0,-1,0,-1c-1,-1,-1,-1,-1,-2l1,-1c0,0,0,1,0,1c0,1,0,1,0,1l0,1c0,0,0,1,0,1c0,0,0,1,0,1ZM277.5,56.5l0,-1c0,0,0,-1,0,-1c0,-1,0,-2,0,-2l0,-1c0,0,1,1,1,1c0,1,0,1,0,1l0,1l0,1c0,0,0,1,-1,1ZM208.5,55.5c0,-1,0,-1,0,-2c0,0,0,-1,-1,-1l1,0l0,-1l0,1c1,0,1,0,1,1l0,1c0,0,0,1,0,1c-1,0,-1,0,-1,0ZM287.5,194.5c-1,0,-1,1,-1,1c0,0,-1,1,-1,1c-1,0,-1,0,-2,0c0,0,-1,0,-1,0c-1,0,-1,-1,-1,-1c0,1,0,1,0,1c0,0,-1,0,-1,0l0,-1c0,0,-1,0,-1,0c0,-1,0,-1,0,-1c0,0,0,1,0,1l-1,1c0,0,-1,0,-1,0c0,0,0,1,0,1c1,0,1,0,1,0l1,0c0,0,1,0,1,0l1,0c1,0,1,0,2,0c1,0,1,0,2,0l2,-1l-1,1c-1,0,-1,0,-1,0c-1,0,-1,0,-1,0c-1,0,-1,0,-1,0c-1,0,-1,0,-1,0l-2,0l-2,0c-1,0,-1,0,-1,0c0,0,-1,0,-1,0l1,-1l1,-1l1,-1l0,-3l1,3c0,0,0,1,0,1l1,0l1,-1c0,1,0,1,0,1c1,0,1,-1,2,-1c1,0,1,-1,1,-1c1,0,1,0,1,1c0,0,1,0,1,0ZM286.5,195.5c0,0,0,-1,-1,-1c0,0,-1,0,-1,1c0,0,-1,0,-1,0l1,0c1,0,2,0,2,0ZM284.5,202.5l0,-1l-1,1l0,-1l1,0Z" class="g1_13" />
</svg>