<?xml version="1.0" encoding="UTF-8" standalone="no"?>
<!DOCTYPE svg PUBLIC "-//W3C//DTD SVG 1.1//EN"
"http://www.w3.org/Graphics/SVG/1.1/DTD/svg11.dtd">
<svg version="1.1" xmlns="http://www.w3.org/2000/svg" xmlns:xlink="http://www.w3.org/1999/xlink">
<defs>
<style type="text/css"><![CDATA[
.g1_45{
stroke: #1F1A17;
stroke-width: 1;
stroke-linecap: butt;
stroke-linejoin: miter;
}
]]></style>
</defs>
<path fill-rule="evenodd" d="M293.5,83.5l0,1c0,0,1,0,1,0l1,0l0,-1l0,-1l0,1l1,1c0,0,0,-1,1,-1l0,-1l0,-1l0,1c0,0,0,1,0,1l0,1c0,1,0,1,-1,1c-1,0,-1,0,-1,0c-1,1,-1,1,-2,1c0,-1,0,-1,0,-1c0,-1,0,-1,0,-1l0,-1ZM287.5,87.5l1,-1l1,0c0,0,0,1,0,1c0,0,0,1,0,1c0,1,0,1,0,1l0,1l-1,0l-1,1l-1,0l0,1l-1,0l0,-1l1,0c0,0,0,-1,1,-1l1,-1l-1,0l0,-1l0,-1ZM288.5,88.5l0,-1c0,1,0,1,0,1ZM371.5,89.5c0,-1,0,-1,0,-2c0,-1,0,-1,-1,-2l1,0l0,-1c0,1,0,1,0,1c0,1,0,1,1,1l0,1l0,1c0,0,-1,0,-1,0c0,1,0,1,0,1ZM265.5,81.5c1,0,1,0,2,0c0,0,1,0,1,0c1,0,1,0,1,0c0,0,0,1,0,1c0,0,-1,0,-1,1c-1,0,-1,0,-1,0c-1,1,-1,1,-1,1l-1,0l0,-1l1,0c1,0,2,-1,2,-1c0,0,-1,0,-1,0l-1,0l-1,0l-1,0c0,-1,0,-1,1,-1ZM144.5,78.5l1,0c0,0,1,0,1,0c1,0,1,0,1,0c1,0,1,0,1,0l0,1l-1,1l-1,0c0,0,-1,0,-1,0c-1,0,-1,0,-1,0l2,0c0,0,1,-1,1,-1l-1,0c-1,0,-1,0,-2,0l0,-1ZM69.5,93.5l0,-1c1,0,1,0,1,0l0,-1l0,-1l0,-1l0,-1l0,-1l0,-1l1,1l-1,0c0,0,0,1,0,1l0,1l1,1l0,1l-1,0l0,1l1,-1l1,0l0,-1l1,0l1,0c0,0,0,1,0,1c0,1,0,1,0,1l-1,0l0,1c0,0,-1,0,-1,0c-1,0,-1,0,-1,0ZM73.5,91.5c-1,0,-1,0,-1,0l-1,1l-1,0l1,0c1,0,1,0,1,0c1,0,1,0,2,-1l-1,0ZM108.5,92.5l-2,-1l1,-2l2,1ZM105.5,98.5l1,-1l3,-2c0,0,1,0,1,-1c0,0,1,0,1,0c1,0,1,0,1,0c1,0,1,0,1,0c0,0,1,0,1,0c0,0,0,1,0,1l1,0c0,1,0,1,0,1c0,1,0,1,-1,2c-1,0,-1,1,-2,1c0,0,-1,0,-2,1c-1,0,-2,0,-3,0l-1,0l-1,0l0,1c0,0,0,1,0,1l-1,-1l0,-1c0,-1,0,-1,-1,-1c0,0,0,-1,0,-1c0,0,0,1,-1,1l0,1c-1,0,-1,0,-1,0l-1,0c-1,0,-1,0,-1,-1c-1,0,-1,0,-1,0c-1,0,-1,0,-1,-1l-1,0l-1,1l-1,0l-1,0l0,1l-1,0l-1,0l-1,0c-1,0,-2,0,-2,-1c0,0,-1,0,-1,0c0,0,-1,0,-2,0c0,1,-1,1,-2,1l-2,0c0,0,-1,-1,-2,-1c0,0,0,-1,0,-2l-1,-8l1,-3l1,10l0,1c0,1,1,1,1,1l2,0c1,0,1,0,1,0c0,0,1,0,1,0c0,-1,0,-1,0,-1l0,-1l0,-1c1,-1,1,-1,1,-1c0,0,1,-1,1,-1c0,0,1,-1,1,-1c1,0,1,1,1,1c1,0,1,1,1,1l0,1c0,1,0,1,0,1c0,0,-1,1,-1,1l0,1l1,0l1,0l1,0c1,0,1,0,1,0l1,0l1,-1l0,-1c-1,0,-1,0,-1,0c-1,0,-1,0,-1,0l1,-2c0,0,1,0,1,0c0,0,1,0,1,0c0,0,1,0,1,0l1,0c0,1,0,1,0,1c0,0,0,1,0,1l0,1l-1,0l1,0c0,1,0,1,0,1l1,0l1,0l1,0c1,0,1,0,1,0l1,-1c0,0,0,-1,0,-1l1,0l0,1c0,1,0,1,0,1c1,0,1,0,1,0ZM110.5,96.5l-1,0l0,1l-1,0l-1,0l-1,1l2,0c1,0,2,0,3,0c0,0,1,0,1,0c1,0,1,-1,2,-1l-1,-1c-1,0,-1,0,-1,0c-1,0,-1,0,-1,0c-1,0,-1,0,-1,0ZM106.5,87.5l4,-3l0,1l0,1l-5,2ZM92.5,85.5c0,0,1,0,1,0c0,0,1,0,1,0c1,0,1,0,2,0l0,1l0,1c-1,0,-1,0,-1,0c0,0,-1,1,-1,1l-1,0l-1,0l2,-1c1,0,1,0,2,-1c-1,0,-1,0,-1,0c-1,0,-1,0,-1,0c0,0,-1,0,-1,0c0,0,-1,0,-1,0c0,0,0,-1,0,-1ZM88.5,92.5l-2,-1l1,-2l2,1ZM88.5,94.5c-1,0,-1,0,-1,1c-1,0,-1,0,-1,0l0,1c0,0,1,1,1,1c1,0,1,0,1,-1c1,0,1,0,1,0c0,-1,0,-1,0,-1c-1,-1,-1,-1,-1,-1ZM84.5,84.5l5,-3c0,1,-1,2,-1,2l-5,2ZM86.5,81.5l5,-3c-1,1,-1,1,-1,1l-5,3ZM152.5,90.5l-1,-1l1,-1l1,1ZM155.5,98.5l-1,0c0,0,0,1,0,1c-1,0,-1,0,-2,0c-1,1,-1,1,-2,1l-1,0l-1,0c0,-1,0,-1,0,-1c-1,0,-1,0,-1,0c0,-1,0,-1,0,-1c0,1,-1,1,-1,1c0,0,-1,1,-1,1l-1,0l-1,0c0,0,0,-1,-1,-1l-1,-1l-2,-2c0,0,-1,0,-1,-1l-1,0l0,1l0,1l0,1l-1,1c0,0,-1,0,-1,0c0,1,-1,1,-1,1l-1,0l-3,0l-1,-1l0,1l0,1c0,1,-1,1,-1,1c0,0,-1,0,-1,-1c0,0,0,-1,-1,-2c0,0,-1,0,-1,0c0,0,-1,0,-1,0l0,1l0,1c0,0,0,1,0,1l0,3l1,1c0,1,0,2,0,2l0,1l-1,0l0,-1l0,-2l-1,-2l0,-2l0,-1l0,-1c1,-1,1,-2,1,-2l1,-1l1,0l0,-1l1,0c0,0,1,1,2,1l2,1l1,0l1,0l1,0c0,0,1,0,1,0l1,0c0,0,0,-1,0,-1l1,0c0,-1,0,-1,0,-1l0,-1c-1,0,-1,0,-1,0c0,-1,0,-1,0,-1c-1,0,-1,0,-2,-1c-1,0,-1,0,-1,0c0,0,-1,-1,-1,-1c0,0,0,-1,0,-1l0,-1c0,0,0,-1,0,-1l1,0c0,0,1,-1,3,-2c1,0,3,-1,4,-1c2,-1,3,-1,3,-1l1,0l-1,1c0,0,-1,0,-1,0c0,1,-1,1,-2,1c-2,1,-3,1,-4,2c-2,0,-3,1,-3,1c0,0,0,1,0,1l1,0c0,0,0,1,1,1l1,0c1,1,1,1,2,2c0,0,1,0,1,1c1,0,2,1,2,1l2,2l1,0c1,0,1,0,1,0c1,0,1,0,1,-1l1,0c0,0,0,-1,0,-1l0,1c0,0,1,1,1,1c1,0,1,0,1,0l1,0c1,0,1,0,2,0c1,0,1,-1,2,-1c0,0,0,-1,0,-1c0,0,0,-1,0,-1c0,0,0,1,-1,1c0,0,-1,0,-1,0l-1,0l0,-1c0,-1,0,-1,0,-2c0,-1,0,-1,0,-1c1,-1,1,-1,2,-1l1,1l0,1l1,1l0,1c0,0,0,1,0,1c0,1,0,1,0,1c0,0,0,1,0,1ZM151.5,93.5l0,1l1,0l1,0l0,-1l-1,0ZM154.5,103.5l-4,2c0,-1,1,-1,1,-1l4,-2ZM148.5,103.5l-1,-1l-1,1l-1,-1l0,-1l2,1l1,-1l1,0ZM136.5,80.5c0,0,1,0,1,0c0,-1,0,-1,1,-1c0,1,0,1,0,1c0,0,0,1,0,1c0,1,0,1,0,1l1,0l-1,2l-1,-1l0,1c-1,0,-1,0,-1,1l-1,0l-1,0l1,-1c1,0,1,0,1,-1l1,0l-1,-1l0,-1l0,-1ZM137.5,81.5l0,-1l0,1l0,1l1,0l0,-1l-1,0ZM123.5,89.5l1,-1c0,0,1,0,1,0c1,0,1,0,2,0c0,1,0,1,0,1c0,1,0,1,0,1c-1,1,-1,1,-1,1c-1,0,-1,0,-1,0c0,0,-1,0,-1,0c0,0,-1,0,-1,0l2,0c0,-1,1,-1,1,-1c-1,-1,-1,-1,-1,-1c-1,0,-1,1,-2,1c0,0,0,-1,0,-1ZM196.5,100.5l0,-1l0,-2l-1,-8l1,-3l1,11c0,0,0,1,0,1l-1,1l0,1ZM194.5,84.5l4,-2c0,1,0,1,0,1l-4,2ZM179.5,98.5l-1,-1l1,-2l1,1ZM192.5,100.5l-1,1c0,1,-1,1,-1,1c0,0,-1,0,-1,1c-1,0,-1,0,-2,0c-1,0,-2,1,-3,1c-1,0,-1,0,-3,0c0,0,-1,0,-2,0c0,0,-1,0,-1,0l-1,0c0,0,-1,0,-2,0c0,0,-1,0,-1,0c-1,0,-2,0,-3,0c-1,0,-1,-1,-2,-1c-2,0,-3,-1,-4,-1c0,-1,-1,-2,-2,-2c0,-1,0,-1,-1,-1c1,0,1,0,1,0c1,0,1,1,2,1c0,0,1,0,2,1c0,0,1,0,1,0c1,0,1,1,2,1c1,0,1,0,2,0c0,0,1,1,2,1c0,0,1,0,2,0c0,0,1,0,2,0c0,0,1,0,1,0c1,0,2,0,2,0c1,0,2,-1,3,-1c1,0,2,0,3,0c1,-1,1,-1,2,-1c2,-1,3,-1,3,-2l-1,-1c0,0,0,-1,0,-1l0,-1c-1,0,-1,0,-1,0l1,-2l1,1c0,1,0,1,0,1l0,1l0,1l0,1c0,0,0,1,0,1ZM169.5,87.5l0,1c1,0,1,0,1,0l1,-1l0,-1l0,1c0,1,0,1,1,1c0,0,0,-1,0,-1l0,-1l1,0l0,1l-1,1l0,1l-1,0l0,-1l0,1c-1,0,-1,0,-1,0c-1,0,-1,0,-1,0l0,-1l0,-1ZM173.5,84.5l-5,3c0,-1,0,-1,1,-1l5,-3ZM233.5,96.5c-1,0,-1,0,-1,0c0,1,1,1,1,1c1,0,1,-1,1,-1c-1,0,-1,0,-1,0ZM233.5,103.5c0,1,0,1,-1,1c-1,0,-1,0,-2,0c-1,0,-1,0,-2,0l-1,0c0,0,0,-1,0,-1c1,0,1,0,1,0c0,1,1,1,1,1l1,0c0,-1,0,-1,0,-1c0,0,1,0,1,0c1,-1,1,-1,2,-1c0,0,0,-1,0,-1c0,0,1,0,1,-1c0,-1,0,-1,0,-1c0,-1,0,-1,0,-1c0,1,0,1,0,1c-1,0,-1,0,-1,0l-1,0c0,-1,0,-1,0,-1c0,0,-1,0,-1,0c0,0,0,-1,0,-1l0,-1c1,0,1,-1,1,-1c0,-1,0,-1,1,-1c1,0,1,0,1,0c0,0,1,0,1,1c0,1,0,1,0,2l0,1c0,1,0,1,0,1c0,1,0,2,-1,2c0,1,0,1,0,1c0,1,-1,1,-1,1ZM230.5,90.5l4,-2c0,1,0,1,0,1l-4,2ZM223.5,97.5c1,0,2,0,2,-1c1,0,2,0,2,-1l0,1l0,1c-1,0,-1,1,-2,1c0,0,-1,0,-2,1c-1,0,-2,1,-3,1l-1,0c-1,0,-1,0,-1,-1c-1,0,-1,-1,-1,-1c0,0,-1,1,-1,1l0,1l-2,0l-2,0c0,0,-1,0,-1,-1c0,0,-1,0,-1,0l0,1l0,1c0,1,0,1,-1,1l-1,-1c0,0,0,-1,0,-2c-1,0,-1,0,-1,0l-1,0c0,0,-1,0,-1,1l0,1c0,0,0,1,0,1l1,3l0,1c0,1,0,2,0,2l0,1l0,-1l-1,-2l0,-2l0,-2l0,-1l0,-1c0,-1,0,-2,1,-2l0,-1l1,0l1,-1c1,0,2,1,3,1l1,1l2,0c1,0,1,0,1,0c1,0,1,-1,1,-1c0,-1,0,-1,0,-1c0,0,0,-1,0,-1l0,-7l1,-2l0,10c0,1,1,1,1,1l0,1c0,0,1,0,1,0c0,0,1,0,1,0l1,0c-1,0,-1,-1,-1,-1c0,-1,-1,-1,-1,-2c0,0,1,0,1,0c0,0,0,-1,0,-1l0,-1l1,0c0,0,0,-1,0,-1c0,0,1,0,1,0c0,0,1,0,1,0c0,0,1,0,1,0c0,0,1,0,1,0l0,1c0,0,1,0,1,0l-1,0l-1,0l-1,0l-1,0l-1,1c0,0,0,1,0,1l0,1c1,0,1,0,1,1c1,0,1,0,1,0ZM220.5,87.5l4,-3l0,1l0,1l-4,2ZM217.5,106.5l-4,2c1,-1,1,-1,1,-1l4,-2ZM207.5,90.5l5,-2l-1,0c0,1,0,1,0,1l-4,2ZM278.5,96.5c0,1,-1,1,-2,2c-1,0,-2,1,-3,1c-1,0,-2,1,-3,1l-1,0c0,0,-1,0,-1,0c0,-1,-1,-1,-1,-1c0,-1,0,-1,0,-1c-1,1,-1,1,-1,1c-1,0,-1,1,-2,1l-1,0c0,0,-1,-1,-1,-1c0,0,-1,0,-1,-1l-2,-2c-1,0,-1,0,-2,-1l0,1l0,1l0,1c0,0,-1,0,-1,1l-1,0c-1,1,-1,1,-1,1l-1,0l-3,0c0,0,-1,0,-1,-1l-1,0l1,0l0,1l-1,0l0,1c0,1,0,1,0,1c-1,0,-1,0,-1,-1c-1,0,-1,-1,-1,-2c-1,0,-1,0,-1,0l-1,0l0,1l-1,0l0,1c0,0,0,1,0,1l1,0l0,3l0,1c0,1,0,2,0,2l0,1l0,-1l0,-2l-1,-2l0,-2l0,-1l0,-1c0,-1,0,-2,1,-2l0,-1l1,0l1,-1l1,0c0,0,1,1,2,1l1,1l2,0l1,0l1,0l1,0c0,0,1,-1,1,-1c0,-1,0,-1,0,-1l0,-1c0,-1,-1,-1,-1,-1c0,0,-1,0,-1,-1c0,0,-1,0,-1,0c0,0,-1,0,-1,0c0,0,0,-1,0,-1c-1,0,-1,-1,-1,-1l1,-1c0,0,0,-1,0,-1l1,0c0,0,1,-1,3,-2c1,0,2,-1,4,-1c1,-1,2,-1,3,-1l0,1l-1,0c0,1,-1,1,-3,1c-1,1,-2,1,-4,2c-1,0,-2,1,-2,1c-1,0,-1,0,-1,0c0,0,0,1,0,1l1,0c1,0,1,1,1,1c0,0,1,0,1,0l1,0c0,1,1,1,2,2l1,1c1,0,1,1,2,1l1,2l1,0l1,0c0,0,1,0,1,0c0,0,1,0,1,-1c0,0,1,-1,1,-1l0,1c0,0,0,1,1,1c0,0,1,0,1,0l1,0c1,0,2,0,2,-1c0,0,-1,0,-1,-1l0,-1c0,0,0,-1,0,-1c0,0,0,-1,0,-1l1,0l0,-1l1,0l1,-1l1,0c1,0,1,0,1,1c0,0,1,0,1,0c0,1,0,1,0,1l-1,0l-1,0l-1,0c0,0,-1,0,-1,0c0,0,-1,1,-1,1l0,1c0,0,1,0,1,0c0,1,1,1,2,2l0,-1l1,0l1,0l1,-1l1,0ZM270.5,87.5l4,-3l0,1l0,1l-4,2ZM266.5,95.5l-1,-1l0,-1l2,1ZM256.5,80.5c1,-1,1,-1,1,-1c1,0,1,0,1,0c0,1,0,1,0,1c0,0,0,1,0,1c0,1,0,1,0,1l0,2l-1,-1l-1,1c0,0,-1,0,-1,1l-1,0l0,-1l1,0l1,-1l0,-1l0,-1l0,-1ZM257.5,81.5l0,-1c-1,0,-1,0,-1,1l1,0l0,1l0,-1ZM243.5,89.5l0,-1c1,0,1,0,2,0c0,0,1,0,1,0c1,1,1,1,1,1c0,1,-1,1,-1,1c0,1,0,1,0,1c-1,0,-1,0,-1,0c-1,0,-1,0,-1,0l-1,0l1,0c1,-1,2,-1,2,-1c0,0,-1,0,-1,0c0,-1,0,-1,-1,-1c0,0,0,1,-1,1l-1,0c0,0,0,-1,0,-1l1,0ZM303.5,100.5l0,-1l0,-2l0,-8l1,-3l0,11c0,0,0,1,0,1l0,1c0,0,-1,0,-1,1ZM299.5,99.5c-1,0,-1,0,-1,0c0,0,-1,0,-1,0c-1,-1,-1,-1,-1,-2c0,1,0,1,-1,2c0,0,-1,1,-2,1c0,0,-1,-1,-1,-1c-1,0,-1,-1,-1,-2c0,1,-1,1,-1,1c0,0,-1,0,-2,0c0,0,-1,0,-1,0l0,-1l0,-1l1,-1c0,0,1,0,1,-1l1,0l1,0l0,-1l0,-1l0,-1l1,1l0,1l0,3c0,0,0,1,0,1c1,1,1,1,2,1l1,-1l0,-1c0,0,0,-1,0,-2c0,-1,0,-1,0,-2c0,0,0,-1,0,-1l0,-1l1,-1l0,3l0,2l0,1c0,1,0,1,0,1c1,0,1,0,1,0c0,1,0,1,1,1l1,0l0,-1l0,-1l0,-1l-1,-1l0,-1l0,-1l1,0l0,-1l0,1c0,0,0,1,0,1l1,2c0,1,0,1,0,2c0,0,0,1,0,2c0,0,-1,0,-1,1ZM291.5,95.5l-1,0c-1,0,-1,0,-1,1c0,0,-1,0,-1,0c1,0,2,0,2,0c0,0,1,0,1,0ZM341.5,91.5l-1,-1l1,-1l1,1ZM350.5,97.5l-1,0l-1,0c-1,0,-1,0,-2,0l-1,0l-1,0l0,1l-1,0c-1,0,-1,1,-2,1l-1,0c-1,0,-1,1,-2,1l-1,0l-1,0c-1,0,-2,0,-2,-1c-1,0,-1,0,-1,0c-1,0,-1,0,-2,0c-1,1,-1,1,-2,1l-1,0c-1,0,-2,0,-2,0c0,0,-1,-1,-1,-1c0,0,-1,0,-1,0l-1,1c0,0,-1,0,-1,0c-1,0,-2,0,-2,1c-1,0,-1,0,-2,0c0,0,-1,0,-2,0c-1,0,-2,0,-3,0c-1,-1,-2,-1,-2,-2c-1,0,-1,0,-1,-1l0,-1c0,-1,0,-1,0,-2c0,0,0,-1,1,-1c0,1,0,1,0,1c0,1,0,1,0,1c0,1,0,1,0,1c0,1,1,1,1,1c1,1,2,1,3,1c0,0,1,0,2,0c1,0,2,0,2,0c1,0,1,0,2,0c0,0,1,0,1,-1c0,0,1,0,1,0l-1,-1l0,-1l1,-1c0,-1,0,-1,0,-1l1,0c0,-1,0,-1,0,-1c0,0,1,0,1,0c0,0,0,-1,0,-1c1,0,1,1,1,1c0,0,1,0,1,0c0,1,0,1,0,1c0,0,0,1,0,1c0,1,0,1,0,1c0,0,0,1,0,1c0,0,-1,0,-1,0c0,0,0,1,0,1c0,0,1,0,1,0c1,0,1,0,1,0l1,0l1,0c1,0,1,0,1,0c0,-1,0,-1,0,-1l0,-1l0,-1c0,-1,1,-1,1,-1c0,0,0,-1,0,-1c1,0,1,-1,2,-1c0,0,1,1,1,1c0,0,0,1,0,1l0,1c0,1,0,1,0,1c0,0,0,1,0,1l-1,1l1,0c1,0,1,0,1,0l1,0l1,0c0,0,1,0,1,0c0,0,1,0,2,0c0,-1,0,-1,1,-1l1,0l1,-1l-1,0l-1,0l0,-1l-1,0l-1,0l-1,0c0,0,0,-1,0,-1c1,0,1,0,1,0c0,-1,1,-1,1,-1l1,0c0,0,0,1,0,1l1,0l2,1l1,0l1,0l1,0c0,1,1,1,1,1l1,0ZM341.5,87.5l4,-3l0,1l0,1l-5,2ZM333.5,92.5l-1,-1l1,-2l1,1ZM333.5,94.5l-1,1l0,1c0,0,0,1,1,1c0,0,1,0,1,-1l1,0c0,-1,-1,-1,-1,-1c0,-1,0,-1,-1,-1ZM332.5,82.5l1,1c0,0,1,0,1,-1l0,-1l0,1c0,0,1,0,1,0l0,-1l1,0c0,1,0,1,0,1l0,1c-1,0,-1,0,-1,0l0,1l-1,0c0,0,0,-1,0,-1l0,1c-1,0,-1,0,-1,0c0,0,-1,0,-1,0l0,-1l0,-1ZM337.5,79.5l-6,3c0,-1,1,-1,1,-1l5,-3ZM324.5,91.5l-2,-1l1,-1l1,1ZM325.5,94.5c0,0,-1,1,-1,1c0,0,-1,0,-1,1c1,0,1,1,2,1l1,-1c0,-1,0,-1,0,-1c-1,0,-1,-1,-1,-1ZM315.5,87.5l4,-3l0,1l0,1l-4,2ZM383.5,100.5l0,-1l0,-2l-1,-8l1,-3l1,11c0,0,0,1,-1,1l0,1l0,1ZM375.5,98.5c0,0,1,0,1,0l1,0l0,-1c0,0,1,0,1,0l-1,-2l0,-7c0,-1,0,-1,0,-1c0,-1,0,-1,1,-1c0,1,0,1,0,1l1,1l-1,1c0,1,0,1,0,2c0,0,0,1,0,3c0,0,0,1,0,1l0,1c0,0,0,1,0,1c0,1,0,1,0,1l0,1c0,0,-1,0,-1,0c0,0,-1,0,-1,1c0,0,-1,0,-1,0l-5,0l-1,0l-2,0l0,1c0,1,0,2,0,2c0,1,-1,1,-1,2c-1,0,-1,1,-2,1c-1,0,-2,1,-3,1c0,0,-1,0,-1,-1c-1,0,-1,0,-2,0c0,-1,-1,-1,-1,-2c0,0,0,-1,0,-1c0,-1,0,-1,0,-1c0,-1,0,-1,0,-1c0,-1,0,-1,0,-1c1,0,1,0,1,0c0,0,0,-1,0,-1l1,0c-1,0,-1,1,-1,1l0,1c0,0,0,1,0,1c0,0,0,1,0,1c0,0,0,1,1,1l1,0c0,1,1,1,2,1c1,0,1,0,2,-1c1,0,2,0,2,-1c0,0,1,-1,1,-1c0,-1,-1,-1,-1,-1c0,-1,0,-1,0,-1l0,-1l0,-2c0,0,1,0,1,0c0,1,0,1,1,1l1,0l1,0l5,0ZM374.5,80.5l1,0c0,0,1,0,1,0c1,0,1,0,1,0c1,0,1,0,1,1c0,0,0,1,-1,1c0,0,-1,1,-1,1c0,0,-1,0,-1,0l-1,0l2,-1c0,0,1,0,1,-1l-1,0c-1,0,-1,0,-2,0l0,-1ZM370.5,93.5l1,0c0,0,0,-1,1,-1l1,0l0,1l-1,0c0,0,-1,0,-1,0l0,1l1,0c1,0,1,0,1,0l1,0c0,0,0,1,0,1l-4,1l1,-1c0,0,-1,-1,-1,-1c0,0,0,-1,0,-1ZM362.5,97.5l-1,-1l1,-1l1,1ZM381.5,81.5l4,-2c0,0,-1,1,-1,1l-4,2ZM361.5,90.5l4,-2c0,1,0,1,0,1l-4,2ZM260.5,128.5l-1,0l0,1c0,0,0,1,0,1l0,1l0,1l0,-1l0,-1l0,-1c0,-1,0,-1,0,-1c0,0,1,0,1,-1l2,0ZM260.5,130.5c0,-1,1,-1,1,-1l1,0l0,1l0,1l0,2l-1,-1l-1,1l-1,1l-1,0l1,-1c1,0,1,0,1,-1l1,0l-1,0l0,-1l0,-1ZM261.5,130.5l0,1l0,-1ZM210.5,128.5l-1,0l0,1l0,1c0,1,0,1,0,1l0,-1l0,-1l0,-1l0,-1c0,0,1,0,2,0l1,-1ZM210.5,129.5c0,0,1,0,1,-1l1,0c0,0,0,1,0,1c0,0,0,1,0,1l0,1l0,1l-1,0c-1,1,-1,1,-1,1l-1,0l-1,0l1,0l1,-1l1,-1l-1,0c0,0,0,-1,0,-1l0,-1ZM211.5,129.5c0,0,0,1,0,1l1,0l-1,0ZM326.5,132.5l1,-1l1,0c0,0,1,0,1,1c1,0,1,0,1,0c0,1,-1,1,-1,1c0,1,0,1,0,1c0,0,-1,0,-1,0c-1,0,-1,0,-1,0l-1,0l2,0c0,-1,1,-1,1,-1l-1,0c-1,0,-1,0,-2,0l-1,0c0,0,0,-1,0,-1c1,0,1,0,1,0ZM294.5,135.5c0,-1,0,-1,1,-1c0,0,1,0,1,0c1,0,1,0,1,0c1,0,1,1,1,1c0,0,0,1,-1,1l0,1c0,0,-1,0,-1,0c0,0,-1,0,-1,0l-1,0l2,-1c0,0,1,0,1,-1l-1,0c-1,0,-1,0,-2,0l-1,1l1,-1ZM173.5,134.5l1,0l1,0c0,0,1,0,1,0c1,0,1,0,1,0l0,1c0,0,-1,0,-1,1c-1,0,-1,0,-1,0c-1,0,-1,0,-1,0l-1,0l1,0c1,0,2,-1,2,-1c0,0,-1,0,-1,0l-1,0l-1,0l-1,0l0,-1l1,0ZM85.5,131.5c0,-1,1,-1,1,-1c0,0,1,0,1,0c1,0,1,0,2,0c0,0,0,1,0,1c0,0,0,1,0,1c-1,0,-1,0,-1,1c0,0,-1,0,-1,0l-1,0l-1,0l2,-1c1,0,1,0,2,-1c-1,0,-1,0,-1,0c-1,0,-1,0,-1,0c0,0,-1,0,-1,0c-1,0,-1,1,-1,1l0,-1ZM48.5,133.5c1,0,1,-1,1,-1c1,0,1,0,2,0c0,0,1,0,1,0c0,1,1,1,1,1c-1,1,-1,1,-1,1c0,0,0,1,-1,1l-1,0l-1,0l1,0c1,-1,1,-1,2,-1c0,0,-1,0,-1,-1c0,0,-1,0,-1,0c0,0,-1,0,-1,1c0,0,-1,0,-1,0c0,-1,0,-1,0,-1ZM74.5,149.5l-1,-1l-1,1l-2,0l1,-2l2,1l1,-1l1,1ZM71.5,146.5l-1,0l-1,0l-1,0c0,-1,0,-1,-1,-1l-2,-2c0,-1,-1,-1,-1,-1l-1,-1c0,1,0,1,0,1l0,1c0,1,0,1,0,1c0,0,0,1,0,1c-1,0,-1,0,-1,1c0,0,-1,0,-1,0c0,0,-1,0,-1,0l-1,0l-1,0l0,1c0,1,0,1,0,1c0,1,-1,1,-1,2c0,0,0,1,-1,1c-1,1,-1,1,-2,2c-1,0,-2,0,-2,0c-1,0,-1,0,-2,0c-1,0,-1,-1,-2,-1c0,0,0,-1,-1,-1c0,-1,0,-1,0,-2l0,-1l0,-1c1,0,1,0,1,-1c0,0,0,-1,0,-1l1,0c0,1,0,1,-1,1c0,1,0,1,0,1l0,1c0,1,0,1,0,1c0,1,1,1,1,1l1,1c0,0,1,0,2,0c1,0,2,0,2,0c1,-1,2,-1,2,-1c0,-1,1,-1,1,-1l0,-1l0,-1l-1,-1l0,-1l0,-2c1,0,1,0,1,0c0,1,0,1,0,1c0,0,1,0,1,0l1,0l1,0c1,0,1,0,1,0l1,0c0,0,1,0,1,-1c0,-1,0,-1,0,-1c-1,-1,-1,-1,-1,-1l0,-1c-1,0,-1,0,-1,0c-1,0,-1,-1,-1,-1l-1,0c0,0,-1,0,-1,0c0,-1,0,-1,0,-1c0,-1,0,-1,0,-1c0,0,0,-1,0,-1c1,0,1,0,1,0c0,-1,0,-1,0,-1c1,0,2,-1,3,-1c1,-1,3,-1,4,-2c2,0,3,-1,3,-1c0,0,1,0,1,0l-1,2l-1,0c0,0,-1,0,-2,1c-2,0,-3,1,-4,1c-2,1,-3,1,-3,2l1,1l1,0l1,1c1,0,1,1,2,1c0,0,1,1,2,1c0,1,1,1,1,2l2,1l1,0l1,0c1,0,1,0,2,0c0,0,1,0,1,0c0,0,0,-1,0,-1l0,-1c-1,0,-1,0,-1,0l0,-1l1,-1c0,0,0,1,0,1c0,0,1,1,1,1c0,1,0,1,0,1c0,1,0,1,-1,1c0,1,0,1,0,1c0,0,-1,1,-1,1c-1,0,-1,0,-2,0ZM62.5,127.5c1,-1,1,-1,1,-1c0,0,1,0,1,0c0,0,1,0,1,1l-1,0l0,1l0,1l1,0l0,1l-2,-1l0,1c-1,1,-1,1,-1,1l-1,0l-1,0l1,0l1,-1l0,-1l1,0l-1,0c0,-1,0,-1,0,-1c0,-1,0,-1,0,-1ZM64.5,127.5l-1,0l0,1l1,0l0,-1ZM52.5,144.5l-1,-1l1,-2l1,1ZM102.5,142.5c0,0,-1,0,-1,1c1,0,1,0,1,0c1,0,1,0,1,0c0,0,0,-1,0,-1c-1,0,-1,0,-1,0ZM102.5,150.5c-1,0,-1,0,-1,1c-1,0,-1,0,-2,0c-1,0,-1,0,-2,-1l-1,0c1,0,1,0,1,0c0,0,1,0,1,0l1,0c1,0,1,0,1,0c0,-1,0,-1,1,-1l1,-1l0,-1c1,0,1,0,1,-1c0,0,1,-1,1,-1l-1,0l0,-1c0,0,0,1,0,1c-1,0,-1,0,-1,0c-1,0,-1,0,-1,0c0,0,0,-1,-1,-1c0,0,0,-1,0,-1c1,0,1,-1,1,-1c0,0,0,-1,0,-1c0,0,1,-1,1,-1l1,0c0,0,1,1,1,1c0,0,0,1,0,1c0,0,0,1,0,1c0,0,0,1,0,1c0,0,0,1,0,1c0,1,0,2,0,3c-1,0,-1,1,-1,1c0,0,-1,0,-1,1ZM99.5,136.5l4,-2l0,1l-4,2ZM96.5,146.5l0,-1l0,-1l-1,-9l1,-2l1,11c-1,0,-1,1,-1,1c0,0,0,1,0,1ZM96.5,152.5l-4,2c1,-1,1,-1,1,-1l4,-2ZM87.5,140.5l-1,-1l1,-2l1,1ZM87.5,149.5c-1,0,-1,0,-2,0c0,0,-1,0,-1,-1c0,0,-1,0,-1,-1c0,0,-1,-1,-1,-2c0,0,1,0,1,-1c0,0,0,-1,0,-1c0,0,0,-1,0,-1c0,0,1,0,1,0l0,1c0,0,-1,1,-1,1c0,1,0,1,0,1c0,0,1,0,1,1c1,1,1,1,1,1c1,0,2,0,2,0c1,0,2,0,2,0c1,0,2,-1,2,-1c0,0,0,-1,0,-1c0,0,0,-1,0,-1c0,-1,0,-1,0,-1l0,-1l0,-1c0,0,-1,0,-1,0l0,-1l1,-2c0,1,0,1,0,1c0,1,1,1,1,1c0,1,0,1,0,1l0,1l0,1c0,0,0,1,0,1c0,1,0,1,0,2c0,1,-1,1,-1,2c-1,0,-1,0,-2,1c-1,0,-1,0,-2,0ZM118.5,128.5l-1,0l-1,0l0,1l-1,0l-1,0l0,-1l-1,0l-1,0l0,-1l0,-1c0,0,0,-1,0,-1c0,-1,1,-1,1,-2c-1,0,-1,0,-1,0l0,1l-1,0l0,-1l1,0l1,0l1,0l1,0l1,0l-1,0c0,0,-1,1,-2,1l0,1c0,0,-1,0,-1,0c0,1,0,1,0,1c0,0,0,1,0,1c0,0,1,0,1,0c0,1,0,1,0,1l1,0l1,0ZM115.5,125.5l0,1l-1,0l0,-1c1,0,1,0,1,0ZM157.5,145.5c0,1,0,1,0,1l-1,0l0,-1c-1,0,-1,0,-1,0l-1,-1l0,1c-1,0,-1,1,-1,1l-1,0l-1,0l-1,0c-1,0,-1,0,-2,-1c0,0,-1,-1,-1,-2l0,-8l1,-2l0,10l1,1l1,0l1,0l1,0c1,0,1,0,1,0l1,0l0,-1c0,-1,1,-1,1,-2c1,0,1,0,1,0c1,0,1,0,1,0c0,1,1,1,1,1l0,1l0,1l0,1c0,0,-1,0,-1,0ZM155.5,143.5l1,0l1,1c0,0,0,-1,0,-1l-1,0c0,0,0,-1,0,-1c-1,0,-1,0,-1,1ZM156.5,149.5l-4,2c0,0,0,-1,0,-1l5,-2ZM140.5,136.5l1,-1l0,-1l1,0l1,0l0,1l0,1l-1,-1c0,0,-1,0,-1,1l1,0l0,1c1,0,1,0,1,0l1,0l0,-1l0,1l-4,2l0,-1l1,0c0,0,0,-1,0,-1c0,0,-1,0,-1,-1ZM141.5,146.5l-1,0l-2,0c-1,0,-1,0,-1,0l0,-1l-1,0l-1,0c0,1,-1,1,-1,1l-1,0l-1,0c-1,0,-1,0,-1,-1c-1,0,-1,0,-1,-1l0,-1l0,-1c0,1,-1,1,-2,1c0,0,0,1,-1,1c1,1,1,1,1,1l0,1c0,1,-1,1,-1,2c0,0,0,1,-1,1c0,1,-1,1,-2,2c0,0,-1,0,-2,0c0,0,-1,0,-2,0c0,0,-1,-1,-1,-1c0,0,-1,-1,-1,-1c0,-1,0,-1,0,-2c0,0,0,-1,0,-1l0,-1l0,-1l1,0c0,-1,0,-1,0,-1l1,0c-1,1,-1,1,-1,1c0,1,0,1,0,1c0,1,0,1,0,1c0,1,0,1,0,1c0,1,0,1,1,1c0,1,0,1,1,1c0,0,1,0,1,0c1,0,2,0,3,0c0,-1,1,-1,1,-2l1,0l0,-1l0,-1c-1,0,-1,-1,-1,-1c0,0,0,-1,0,-1l0,-1l-1,0l1,-2l0,1l1,0c0,0,0,1,0,1l1,0l1,-1l1,0c0,0,0,-1,0,-1c0,0,1,0,1,0l0,1l0,1c0,0,0,1,0,1c0,1,0,1,0,1c0,0,1,0,1,0l1,0c0,0,1,0,1,0c0,0,1,0,1,0l1,-1l1,0l0,1c1,0,1,0,1,0l2,0l1,0c0,0,1,0,1,0c1,0,1,0,1,0c0,0,0,-1,0,-1l0,-1l0,-1l0,-1c0,0,1,0,1,0c0,0,0,1,0,1c0,0,0,1,0,1c0,1,0,1,0,1c0,1,0,1,0,1c0,1,0,1,0,1c-1,0,-1,1,-2,1c0,0,-1,0,-1,0ZM141.5,130.5l4,-2c0,1,-1,1,-1,1l-4,2ZM137.5,141.5l-2,-1l0,1l-2,-1l1,-1l2,1l0,-2l2,1ZM134.5,133.5l4,-2l0,1l-1,0l-4,2ZM132.5,149.5l-1,-1l-1,1l-2,-1l1,-1l2,1l0,-1l2,1ZM127.5,132.5c0,-1,1,-1,1,-1c1,0,1,0,1,0c1,0,1,0,2,0c0,0,0,1,0,1c0,1,0,1,0,1c0,0,-1,1,-1,1c0,0,-1,0,-1,0l-1,0l-1,0l2,-1c1,0,1,0,2,0c-1,-1,-1,-1,-1,-1c0,0,-1,0,-1,0c0,0,-1,0,-1,0c0,0,-1,1,-1,1l0,-1ZM122.5,142.5l-1,-1l1,-2l1,1ZM125.5,154.5l-5,2c1,-1,1,-1,1,-1l4,-2ZM202.5,149.5l-1,-1l-1,1l-2,0l1,-2l2,1l0,-1l2,1ZM199.5,146.5l-1,0c-1,0,-1,0,-2,0l-1,-1l-1,-1c0,1,-1,1,-1,1c0,0,-1,0,-1,1c0,0,-1,0,-1,0l-1,0c-1,0,-1,0,-2,0c0,-1,0,-1,-1,-2c0,1,0,1,0,2c-1,0,-1,0,-1,0l-1,0l-1,0c-1,0,-1,0,-1,0l0,-1l-1,0l-1,0c0,1,-1,1,-1,1l-1,0l-1,0c0,0,-1,1,-1,1c0,0,0,1,0,1c0,1,-1,1,-1,1c0,1,0,1,-1,1c0,1,0,1,0,1c-1,0,-1,0,-1,0c0,0,-1,0,-1,0l-1,0c0,0,-1,0,-2,0l-1,0c0,0,0,-1,0,-1c1,0,1,0,1,0c1,1,1,1,1,1c0,0,1,-1,1,-1c1,0,1,0,2,0c0,-1,0,-1,1,-1l0,-1c1,0,1,0,1,0c0,-1,0,-1,0,-1c0,0,0,-1,1,-1l-1,0c-1,0,-1,0,-1,0c-1,0,-1,-1,-1,-1c0,0,0,-1,0,-1c0,-1,0,-1,0,-1c0,0,0,-1,0,-1c0,0,1,0,1,0c0,-1,0,-1,0,-1c0,0,1,0,1,0c1,1,1,1,1,1l0,1l1,0c0,1,0,1,0,1l1,0c0,0,1,0,1,0c0,0,1,0,1,0l1,-1l1,0l0,1c1,0,1,0,1,0l1,0c0,0,1,0,1,0c0,0,1,0,1,-1l0,-1l0,-1l0,-7l0,-2l1,11c0,0,0,1,1,1l1,0c0,0,1,0,1,0l1,0c1,0,1,0,1,-1l-1,0c0,0,0,-1,-1,-1l0,-1l1,0c0,-1,0,-1,1,-1c0,0,1,0,1,0c0,0,1,0,1,0c0,0,1,0,1,1l0,1c0,1,0,1,-1,1c0,1,0,1,1,1l1,0l1,0l1,0c1,0,1,0,2,0l1,0c0,0,0,-1,0,-1l-1,-1l0,-1l1,-1c0,0,0,1,0,1c0,0,0,1,0,1c0,1,0,1,0,1c0,1,0,1,0,1c0,1,0,1,0,1c0,0,-1,1,-2,1l-1,0ZM194.5,138.5l-2,-1l1,-1l2,1ZM190.5,128.5c0,0,1,0,1,0c0,0,1,0,1,0c1,0,1,0,2,0l0,1l0,1c-1,0,-1,0,-1,0c0,0,-1,0,-1,0l-1,0c0,0,-1,0,-1,0l2,0c1,0,1,-1,1,-1c-1,0,-1,0,-1,0c-1,0,-1,0,-1,0c-1,0,-1,0,-1,0l0,-1ZM188.5,152.5l-4,2c0,-1,0,-1,1,-1l3,-2ZM182.5,150.5l-1,-1l0,-1l2,0ZM180.5,130.5c0,0,1,0,1,-1l1,0c0,0,0,1,0,1c0,0,0,1,0,1c0,0,0,1,0,1l1,0l-1,1l-1,0l-1,1l-1,0l0,1l-1,0l1,-1c0,0,1,-1,1,-1l1,-1l-1,0c0,0,0,-1,0,-1l0,-1ZM181.5,130.5c0,0,0,1,0,1ZM175.5,143.5c0,1,0,1,0,1c1,0,1,0,1,0c0,0,1,0,1,0l-1,0l0,-1l-1,0ZM168.5,146.5l0,-1l0,-1l-1,-9l1,-2l1,11c0,0,0,1,0,1c-1,0,-1,1,-1,1ZM244.5,142.5l0,1l-1,0l-1,1l-1,1l2,0c1,0,1,0,2,-1c1,0,2,0,2,0c0,0,1,0,1,-1l0,-1l-1,0l-1,0c0,0,-1,0,-1,0l-1,0ZM239.5,144.5l1,0l3,-2l1,-1l1,0c0,0,0,-1,1,-1l1,0l1,0l0,1c1,0,1,0,1,0l0,1l0,1c0,0,0,1,0,1l-1,0c0,1,-1,1,-1,1c-1,1,-2,1,-3,1c-1,0,-2,0,-3,0l-1,0l0,1l-1,0c0,1,0,1,0,1l0,-1l0,-1c-1,0,-1,0,-1,0c0,-1,0,-1,0,-2c-1,1,-1,1,-1,1l0,1c-1,0,-1,0,-1,0c0,0,-1,0,-1,0l-2,0c0,0,-1,0,-2,-1c0,0,0,-1,0,-2l-1,-8l1,-2l1,10l0,1c0,0,1,0,1,0l2,0c1,0,1,0,1,0l1,0l0,-1c1,0,1,0,1,-1l0,1c0,0,0,1,0,1c1,0,1,0,1,0ZM240.5,133.5l5,-2l-1,1l-4,2ZM226.5,150.5l-1,-1l1,-2l1,1ZM224.5,144.5c0,0,1,0,1,0c1,0,1,0,1,0l0,-1l0,-1l0,-1l0,-1c0,0,1,0,1,0l0,1l0,1l0,1c0,1,0,1,0,1c0,1,0,1,0,1c-1,0,-1,1,-2,1c0,0,-1,0,-1,0l-1,0c-1,0,-1,0,-1,0c0,1,0,1,0,1c0,1,0,2,-1,2c0,0,0,1,0,1c-1,0,-1,0,-1,1c0,0,-1,0,-1,0c0,0,-1,1,-1,1c0,0,-1,0,-1,0c-1,0,-1,0,-2,-1c0,0,-1,0,-1,0c0,0,1,0,1,0l1,0c0,0,1,0,1,0c1,-1,1,-1,1,-1c1,0,1,0,1,-1c0,0,1,0,1,0c0,-1,0,-1,0,-1c1,-1,1,-1,1,-2l0,-1c0,0,-1,0,-1,-1l1,0c0,0,0,-1,0,-1c0,0,0,1,0,1l1,0l1,0ZM225.5,152.5l-3,2c0,-1,0,-1,0,-1l4,-2ZM217.5,133.5l5,-2l-1,1l-4,2ZM214.5,138.5l-1,-1l-1,1l-2,-1l1,-1l2,1l1,-1l1,0ZM213.5,146.5c-1,0,-1,0,-2,0c0,-1,0,-1,0,-2c0,0,0,-1,0,-1l0,-1l0,-1l1,-1c0,-1,1,-1,1,-1c0,0,1,0,1,1c1,0,1,1,1,2l1,0c0,0,0,1,0,1c0,1,-1,2,-2,3c0,0,-1,0,-1,0ZM213.5,142.5l-1,0l-1,1c0,0,0,1,1,1l1,0l1,0c0,0,1,0,1,-1l-1,-1c0,0,-1,0,-1,0ZM282.5,145.5c0,1,0,1,0,1l-1,0l0,-1c0,0,-1,0,-1,0l-1,-1l0,1c0,0,-1,1,-1,1l-1,0l-1,0l-1,0c-1,0,-1,0,-2,-1c0,0,-1,-1,-1,-2l0,-8l1,-2l0,10l1,0l0,1l1,0l1,0l1,0c1,0,1,0,1,0l1,0l0,-1c1,-1,1,-1,1,-2l1,0c1,0,1,0,1,0c0,1,1,1,1,1l0,1l0,1l0,1c0,0,-1,0,-1,0ZM280.5,143.5l1,0l1,1c0,0,0,-1,0,-1c-1,0,-1,-1,-1,-1c0,0,-1,0,-1,1ZM278.5,132.5c0,1,0,1,1,1c0,-1,0,-1,0,-1l0,-1l1,0l0,1c1,0,1,0,1,-1l0,-1l0,1l0,1c0,1,0,1,0,1l-1,0l-1,0c0,1,0,1,-1,1c0,-1,0,-1,0,-1l0,-1ZM281.5,149.5l-4,2c0,0,1,-1,1,-1l4,-2ZM265.5,136.5l1,-1l1,-1l1,0l0,1l0,1l0,-1l-1,0c0,0,-1,0,-1,1l1,0l1,1l1,0l0,-1l0,1l-4,2l0,-1l1,0c0,0,0,-1,0,-1c0,0,-1,0,-1,-1ZM266.5,146.5l-1,0c-1,0,-1,0,-2,0l0,-1c-1,0,-1,0,-1,-1c0,0,0,-1,0,-1l-1,1l-1,0l-1,0l-1,0l0,-1c0,-1,0,-1,1,-2l1,-1c1,0,1,0,1,0l0,-1l0,-1l1,0l0,1l0,1c0,0,0,1,0,1l1,2l0,1c0,0,1,0,1,0l1,0l1,0c0,0,1,0,1,0c1,0,1,0,1,0c0,0,1,0,1,0c0,0,0,-1,0,-1c0,0,-1,0,-1,-1l0,-1l1,-1c0,0,0,1,0,1c0,0,0,1,0,1c0,1,0,1,0,1c0,1,0,1,0,1c0,1,0,1,0,1c-1,0,-1,1,-2,1c0,0,-1,0,-1,0ZM266.5,130.5l4,-2c0,1,0,1,0,1l-5,2ZM261.5,137.5l-1,-1l-1,1l-2,-1l1,-1l2,1l0,-1l2,0ZM261.5,141.5l-1,0l0,1c-1,0,-1,0,-1,0l1,1l1,0l0,-1l1,0ZM340.5,145.5c0,1,0,1,0,1l-1,0l0,-1c0,0,-1,0,-1,0l-1,-1l0,1c0,0,-1,1,-1,1l-1,0l-1,0c-1,0,-1,0,-1,0c0,0,-1,0,-1,0l0,-1c0,0,-1,0,-1,0c-1,0,-1,0,-1,0c0,0,-1,1,-1,1c0,0,-1,0,-1,0l-1,0l-1,0c-1,0,-1,0,-1,0c0,0,-1,0,-1,0c0,0,0,-1,0,-1l0,-1c-1,0,-1,0,-2,0c0,1,-1,1,-1,1c-1,0,-2,0,-3,0c0,0,-1,0,-2,0c-1,0,-2,0,-3,1c-1,0,-2,0,-3,0c-1,0,-2,0,-3,0c0,0,-1,0,-2,0c-1,0,-2,0,-2,0l-1,0l-1,0l-2,0c-1,0,-1,0,-1,0c0,0,-1,-1,-1,-1l0,1l0,1c0,1,0,1,-1,1l-1,-1c0,0,0,-1,0,-1l0,-1c-1,0,-1,0,-2,0c0,0,0,1,0,1c0,0,-1,0,-1,0c0,1,0,1,0,1l0,1c0,1,0,1,0,1l1,2l0,2c0,1,0,1,0,1l0,1l0,1l0,-1l0,-1l-1,-1l0,-3l0,-1l0,-1l0,-1l0,-1c0,-1,0,-1,1,-2l1,-1l1,-1c1,1,2,1,3,2l1,0l1,0l1,0l1,0c1,0,1,0,2,0c1,0,2,0,3,0c1,0,2,0,2,0c1,0,2,0,2,0c1,0,2,0,3,0c1,0,1,0,2,0c1,-1,2,-1,3,-1c1,0,2,0,3,0c1,0,2,0,2,0c1,0,1,0,1,0c0,-1,0,-1,0,-1c0,0,-1,-1,-1,-1l-1,0l-1,0c-1,0,-2,0,-4,0c-2,1,-4,1,-6,1c-2,0,-3,0,-4,0c-2,0,-4,0,-4,0l0,-1c0,0,0,-1,0,-1c0,-1,1,-1,1,-1c0,0,0,-1,1,-1c0,-1,1,-2,2,-2c1,-1,2,-2,3,-2c1,0,1,0,1,0l-1,1c0,0,0,1,-1,1c-1,0,-2,1,-2,1c-1,1,-2,2,-3,3c0,0,1,1,1,1l1,0l1,0c1,0,3,0,5,-1c2,0,4,0,6,0c2,-1,3,-1,4,-1c1,0,1,1,2,1c0,0,1,0,1,1l0,1c0,0,0,1,0,1c-1,1,-1,1,-1,1l1,0l2,0c0,0,1,0,1,0c0,0,1,0,1,0c1,0,1,-1,1,-1c0,0,1,0,1,0l0,1l1,0l1,0l1,0c1,0,1,0,1,0l1,0l0,-1c1,-1,1,-1,1,-2l1,0c1,0,1,0,1,0c0,1,1,1,1,1l0,1l0,1l0,1c0,0,-1,0,-1,0ZM338.5,143.5l1,0l1,1c0,0,0,-1,0,-1c-1,0,-1,-1,-1,-1c0,0,-1,0,-1,1ZM336.5,132.5c0,1,0,1,1,1c0,-1,0,-1,0,-1l0,-1l1,0l0,1c1,0,1,0,1,-1l0,-1l0,1l0,1c0,1,0,1,0,1l-1,0l-1,0c0,1,0,1,-1,1c0,-1,0,-1,0,-1l0,-1ZM339.5,149.5l-4,2c0,0,0,-1,1,-1l4,-2ZM330.5,142.5l-1,-1l1,-2l1,1ZM306.5,127.5c1,-1,1,-1,1,-1c0,0,1,0,1,0c1,0,1,0,1,1l-1,1l1,1l0,1l-1,-1l-1,1c-1,1,-1,1,-1,1l-1,0l-1,0l1,0l1,-1l0,-1l1,0l-1,0c0,-1,0,-1,0,-1c0,-1,0,-1,0,-1ZM308.5,127.5l-1,0l0,1l1,0l0,-1ZM199.5,130.5l1,1c0,0,0,-1,1,-1l0,-1l0,1c0,0,1,0,1,0l0,-1l1,-1l0,1l0,1l-1,0c0,1,0,1,0,1l-1,0c-1,1,-1,1,-1,1c-1,0,-1,0,-1,0c0,0,0,-1,0,-1l0,-1ZM204.5,127.5l-6,3c0,-1,0,-2,1,-2l5,-3ZM73.5,130.5l0,1c0,0,1,0,1,0l0,-1l0,-1l0,1c1,1,1,1,1,1c0,0,0,-1,0,-1l0,-1l1,0l0,1l0,1c0,0,-1,0,-1,1l-1,0l0,-1l0,1c-1,0,-1,0,-1,0c0,0,-1,0,-1,0l0,-1l0,-1ZM77.5,127.5l-6,3c0,-1,1,-1,1,-1l5,-3ZM387.5,128.5c0,-1,1,-1,1,-1c1,0,1,0,1,0c1,0,1,0,2,0c0,0,0,1,0,1c0,0,0,1,0,1c0,0,-1,0,-1,1l-1,0l-1,0l-1,0l2,-1c1,0,1,0,2,-1c-1,0,-1,0,-1,0c0,0,-1,0,-1,0c0,0,-1,0,-1,0c0,0,-1,0,-1,1l0,-1ZM353.5,131.5c0,-1,1,-1,1,-1c1,0,1,0,1,0c1,0,1,0,2,0c0,0,0,1,0,1c0,0,0,1,0,1c0,0,-1,1,-1,1l-1,0l-1,0l-1,0l2,-1c1,0,1,0,2,0c-1,-1,-1,-1,-1,-1c0,0,-1,0,-1,0c0,0,-1,0,-1,0c0,0,-1,1,-1,1l0,-1ZM376.5,147.5l-1,-1l-1,1l-1,-1l1,-1l1,1l1,-1l1,1ZM374.5,144.5l-1,0l-1,0c0,0,-1,0,-1,-1c0,0,-1,0,-1,-1l-2,-1c-1,-1,-1,-1,-2,-1l0,-1l0,1l0,1c0,0,0,1,0,1c0,0,-1,1,-1,1l-1,0c0,1,0,1,0,1c-1,0,-1,0,-2,0l-2,0c0,0,0,1,0,1c0,0,0,1,0,1c0,0,0,1,0,2c-1,0,-1,1,-2,1c0,1,-1,1,-2,1c0,1,-1,1,-2,1c0,0,-1,0,-2,0c0,-1,-1,-1,-1,-1c0,0,-1,-1,-1,-1c0,-1,-1,-1,-1,-2c0,0,1,-1,1,-1c0,0,0,-1,0,-1c0,0,0,-1,0,-1c0,0,1,0,1,0c0,-1,0,-1,0,-1c0,1,0,1,0,1c0,0,0,1,0,1c0,0,-1,0,-1,0c0,1,0,1,0,1c0,1,1,1,1,1c0,1,0,1,0,1c1,0,1,0,1,0c1,1,2,1,3,1c0,0,1,0,2,-1c1,0,1,0,2,-1l0,-1c0,0,0,-1,0,-1c0,0,0,-1,0,-1c0,0,0,-1,0,-1l-1,0l1,-2l0,1c1,0,1,0,1,0l2,0l1,0c1,0,1,0,1,0c0,0,1,0,1,0c0,0,0,-1,0,-1l0,-1l0,-1c-1,0,-1,-1,-1,-1c0,0,-1,0,-1,0c0,-1,-1,-1,-1,-1c0,0,-1,0,-1,0l0,-1l-1,0l0,-1c1,-1,1,-1,1,-1c0,-1,0,-1,0,-1c1,0,2,-1,4,-1c1,-1,2,-1,4,-2c1,0,2,-1,2,-1c1,0,1,0,1,0l0,1c0,0,0,1,-1,1c0,0,-1,0,-3,1c-1,0,-3,1,-4,1c-1,1,-2,1,-2,1c0,0,-1,0,-1,0c0,0,0,1,0,1l1,0c1,1,1,1,1,1c0,0,1,0,1,0l1,1c0,0,1,0,1,1c1,0,1,1,2,1c1,1,1,1,2,2l1,1l1,0l1,0l1,0c0,0,1,0,1,0c1,0,1,0,1,0c0,-1,0,-1,0,-1l0,-1l-1,-1l1,-1l1,0c0,1,0,1,0,1l0,1l0,1c0,0,0,1,0,1c0,0,0,1,-1,1l-1,1c0,0,-1,0,-1,0ZM365.5,125.5c0,-1,0,-1,0,-1c1,0,1,-1,1,-1c0,0,1,0,1,1c0,1,0,1,0,1l0,1l0,1l0,1l-1,-1l-1,1c0,0,-1,1,-1,1l-1,0l1,-1l1,0l0,-1l0,-1l0,-1ZM366.5,125.5c-1,0,-1,0,-1,0l1,0l0,1l0,-1ZM355.5,141.5l-1,0l0,-2l2,1ZM404.5,134.5l-2,-1l1,-1l2,1ZM406.5,142.5c0,1,0,1,-1,1c0,0,-1,1,-1,1c-1,0,-1,0,-2,0l-1,0l-1,0c-1,0,-1,0,-2,-1c0,0,0,-1,0,-2l-1,-8l1,-2l1,9l0,1l0,1c0,0,1,0,1,0l1,0l1,0c1,0,1,0,2,0c1,0,1,0,2,-1l0,-1l0,-1c-1,1,-1,1,-1,1c-1,1,-1,1,-1,1c0,0,-1,0,-1,-1l-1,0c0,-1,0,-1,0,-1c0,-1,0,-1,1,-1l0,-1c0,0,0,-1,0,-1c1,0,1,-1,1,-1c1,0,1,0,1,1c1,0,1,0,1,1l0,1l1,1c0,0,0,1,0,1c0,1,0,1,-1,1c0,1,0,1,0,1ZM403.5,138.5l1,0c1,0,1,0,1,0c-1,-1,-1,-1,-1,-1c0,0,-1,0,-1,0ZM402.5,128.5l4,-2c0,0,0,1,0,1l-4,2ZM400.5,147.5l-4,2c1,-1,1,-1,1,-1l4,-2ZM389.5,138.5l-1,-1l1,-2l1,1ZM389.5,147.5c-1,0,-1,0,-2,0c0,0,-1,-1,-1,-1c0,0,-1,-1,-1,-1c0,-1,0,-1,0,-2l0,-1c0,-1,0,-1,0,-1l0,-1c1,0,1,0,1,0c0,0,0,-1,0,-1l0,1c0,1,0,1,0,1l0,1c0,0,-1,0,-1,0l1,0c0,1,0,1,0,1c0,1,0,1,1,1l0,1l1,0c0,0,1,0,1,0c1,0,2,0,2,0c1,-1,2,-1,2,-1c0,-1,0,-1,0,-1c1,0,1,0,1,-1l0,-1c-1,0,-1,0,-1,0c0,0,0,-1,0,-1l0,-1l-1,0l0,-1l1,-2c0,0,0,1,0,1c1,1,1,1,1,1c0,0,0,1,0,1l0,1c0,1,0,1,0,1c0,0,0,1,0,1c0,1,0,1,0,2c0,0,-1,1,-1,1c-1,1,-1,1,-2,2c-1,0,-1,0,-2,0ZM375.5,129.5l0,1l1,0l0,-1l1,0c0,0,0,1,0,1c1,0,1,-1,1,-1l0,-1l0,1l0,1c0,0,0,1,0,1l-1,0l-1,0c0,0,0,1,-1,1c0,0,0,-1,0,-1l0,-1l0,-1ZM379.5,126.5l-5,3c0,-1,0,-1,0,-1l6,-3ZM157.5,180.5c0,0,0,-1,1,-1l1,0l0,1l0,1l0,1l0,1l-1,0l-1,0c0,1,0,1,-1,1l-1,0l1,0l0,-1c0,0,1,0,1,0l1,-1l-1,0c0,0,0,-1,0,-1c0,0,0,-1,0,-1ZM158.5,180.5l0,1c0,-1,0,-1,0,-1ZM202.5,176.5c0,-1,0,-1,0,-2c0,-1,0,-1,-1,-2l1,0l0,1c1,0,1,0,1,0l0,1l0,1c-1,1,-1,1,-1,1ZM305.5,180.5l1,0c0,-1,1,-1,1,-1c1,0,1,1,1,1c1,0,1,0,1,0l0,1l-1,1l-1,0c0,0,-1,0,-1,0l-1,0l2,0c0,0,1,-1,1,-1l-1,0c-1,0,-1,0,-2,0l0,-1ZM81.5,179.5c0,0,1,-1,1,-1c1,0,1,0,1,0c1,0,1,0,2,0c0,0,0,1,0,1c0,1,0,1,0,1c0,0,-1,1,-1,1l-1,0l-1,0l-1,0l2,0c1,-1,1,-1,2,-1c-1,0,-1,-1,-1,-1c0,0,-1,0,-1,0c0,0,-1,0,-1,1c0,0,-1,0,-1,0c0,-1,0,-1,0,-1ZM187.5,184.5c1,0,1,0,1,-1l0,-1l0,-1l0,-2l0,-1l1,0l0,1c-1,0,-1,0,-1,0l0,1l1,1l0,1l-1,1l1,-1l1,0l1,-1c0,0,1,1,1,1l0,1c0,0,0,1,0,1c-1,0,-1,0,-1,0c0,0,-1,0,-1,0c-1,0,-1,0,-1,0ZM191.5,182.5c-1,0,-1,0,-1,1l-1,0l-1,1l1,0l1,0c0,0,0,-1,0,-1c1,0,1,0,2,0c-1,-1,-1,-1,-1,-1ZM65.5,190.5c0,1,0,1,0,2l-1,1c0,1,0,1,0,1l1,0l0,1l-1,0l-1,1l-1,0l0,1l-1,0l-1,0l0,1l-1,0l-1,0l0,1l-1,0l-1,1l-3,0l-3,0l-1,0l0,-1c-1,-1,-1,-1,-1,-1c-1,0,-2,0,-3,-1l-1,0l0,-1l-1,0l-1,-1l-1,-1l2,0l-1,0l0,-1l-1,-1l0,-1l0,-1l0,-1l0,-1l1,-1l0,-1l1,0l-2,-1c0,0,1,0,1,0l0,-1l1,0l1,-1l1,0l1,-1l2,0l0,-1l1,0l0,-1c1,0,1,0,1,-1l3,0l3,0l1,1l0,1l1,0l0,1l2,0l1,0l0,1c0,0,1,0,1,0l1,0l0,1c1,0,1,1,2,1l-1,1l0,1l1,0l0,1l0,1ZM56.5,200.5l1,-1l0,-1l1,0c1,0,1,0,2,-1l1,0c0,0,1,0,1,-1l1,0c0,0,0,-1,0,-1l1,0l0,-1l-1,0l1,0l0,-1l0,-1l1,-1l0,-1c0,-1,0,-2,-1,-2c0,0,0,-1,0,-1c0,0,0,-1,0,-1l-1,0l1,-1l-1,-1l-1,-1l-1,0l-1,-1l-2,0l0,-1l-1,-1l-1,0l-1,0l-2,0l-1,0l-2,0l-1,0l0,1c-1,1,-1,1,-1,1l-2,0l-1,1l-1,0l0,1l-1,0c0,0,-1,1,-1,1l1,1l-1,0l0,1l0,1l-1,1l0,1l0,1l1,0l0,1l0,1l1,0l0,1l-1,0l0,1l1,0l0,1l1,0l1,1l1,0l1,0l1,1l1,0l0,1l1,0c0,1,0,1,0,1l3,0ZM62.5,185.5l-1,0l-1,0l0,-1l-1,0c0,0,-1,0,-1,0c0,0,1,0,1,-1l-1,0c0,0,1,0,1,0l1,0c0,1,0,1,0,1c0,0,1,0,1,0l1,1ZM62.5,195.5l-1,0l0,1l-1,0l-1,1l-1,0l1,0l0,-1l-1,0c1,0,1,0,1,0l1,0l0,-1c1,0,1,0,1,-1l0,1l1,0ZM57.5,197.5l0,1c0,0,-1,0,-1,0l-3,0l-3,0c0,0,-1,0,-1,0c0,0,0,-1,0,-1c0,-1,0,-1,0,-1l1,0l0,-1l3,0l3,0c0,0,0,1,1,1l0,1ZM57.5,183.5c0,0,0,1,0,1l-1,0l-3,0l-3,0c0,0,-1,0,-1,0l0,-1c0,0,0,-1,0,-1l1,0l3,0l3,0c0,0,1,0,1,0l0,1ZM56.5,186.5l0,-1l1,0l1,0c0,0,1,0,1,0c0,0,0,1,1,1l0,1l2,-1l0,1l0,1l1,0l0,1l0,1l0,1l-1,1c0,1,0,1,0,1l0,1l-1,-1c-1,0,-1,0,-1,1c0,0,-1,0,-1,0l-1,1l-1,0c0,0,-1,-1,-1,-1l-3,0l-3,0l-1,1l-1,0c0,0,-1,0,-1,-1l-1,0l0,-1l-1,1l0,-1l-1,0l0,-1l0,-1l-1,0l0,-1c0,-1,0,-1,0,-1c0,0,1,-1,1,-1l0,-1c0,-1,1,-1,1,-1l1,1c0,0,0,-1,0,-1l1,0l0,-1c1,0,1,0,1,0c1,0,1,0,1,0l1,0l0,1l3,0ZM56.5,194.5l1,0l1,0l1,0l1,-1l1,0l1,0l0,-1l0,-1l1,-1c0,-1,-1,-1,-1,-2c0,0,0,-1,0,-1l-1,-1l-1,1l0,-1l-1,0l0,-1l-1,0c-1,0,-1,0,-1,0l0,1l-1,0l-3,0l-3,0l-1,-1l-1,0c0,0,-1,0,-1,1l-1,0c0,1,0,1,0,1l-1,-1c0,1,0,1,-1,1l0,1l0,1l0,1l0,1l0,1c0,0,0,1,1,1l1,0l1,1l1,0c1,0,1,0,1,0c1,0,1,0,1,0l3,0l3,0ZM53.5,188.5l1,0l1,0c0,0,0,1,0,1l0,1c1,1,1,1,1,2l-1,0l0,-1l0,-1l0,-1l-1,0c0,0,-1,0,-1,0c0,0,0,-1,0,-1ZM50.5,188.5l1,0l1,0c0,0,0,1,0,1l0,1c0,1,1,1,1,2l-1,0l0,-1l0,-1l0,-1l-1,0c0,0,-1,0,-1,0c0,0,0,-1,0,-1ZM44.5,185.5l1,0l0,-1l1,0l1,-1l1,0c0,1,0,1,0,1c-1,0,-1,0,-1,0c0,0,-1,0,-1,0l0,1l-1,0ZM44.5,195.5l1,0l0,-1c0,1,1,1,1,1l0,1l1,0l1,0c0,0,0,1,0,1l-1,0c-1,-1,-2,-1,-2,-1l0,-1l-1,0ZM121.5,192.5l0,-1l0,-1l0,-8l1,-3l0,11l0,1c0,1,0,1,-1,1ZM114.5,191.5l1,0l0,-1c1,0,1,0,1,0l0,-1l0,-2l0,-6c-1,0,-1,0,-1,-1c0,0,1,0,1,-1c0,0,0,1,1,1l1,0c-1,1,-1,1,-1,1c0,0,0,1,0,1c0,0,0,1,0,2c0,0,0,1,0,3l0,1l0,1l0,1c0,0,0,1,0,1l-1,0c0,0,0,1,0,1c-1,0,-1,0,-1,0l-1,0l-1,0l-11,0c0,1,0,1,0,1c-1,1,-1,1,-1,2l0,-1c0,-1,0,-1,0,-1l0,-1l-1,0c0,0,0,-1,0,-1l-1,0c0,1,0,1,-1,1l-1,0c-1,0,-1,0,-1,0l-1,0l0,-1l-1,0c0,0,0,-1,0,-1l0,-1c0,0,0,1,0,1l-1,0c0,1,-1,1,-1,1l-1,0l0,1l0,1l-1,1c0,0,0,1,0,1l-1,1l-1,0l0,1c-1,0,-1,0,-1,0c0,0,-1,0,-1,0l-1,0c0,0,-1,0,-1,0l-1,-1c0,0,1,0,1,0l1,0l1,0c0,0,1,0,1,0c0,-1,0,-1,0,-1c1,0,1,0,1,-1c1,0,1,0,1,-1c1,0,1,-1,1,-1c0,0,0,-1,0,-1l0,-2l1,0c0,0,1,0,1,0c0,0,1,0,1,0c0,0,0,-1,0,-1l1,0l0,-1c0,0,1,0,1,0c0,0,0,1,0,1l0,1c0,0,0,1,0,1l1,0l0,1c1,0,1,0,1,0l1,0c0,0,1,-1,1,-1l1,0c0,0,0,-1,0,-1c0,1,0,1,1,1c0,1,0,1,0,1l2,-1l1,-1l1,-1c1,0,1,-1,2,-1c0,0,1,0,1,0l1,0c0,0,1,0,1,0c1,0,1,1,1,1l0,1l0,1l0,1l-1,0l2,0l1,0ZM110.5,190.5c0,-1,0,-1,0,-1c-1,-1,-1,-1,-2,-1c0,0,-1,0,-1,0c0,1,0,1,0,1c-1,0,-1,0,-2,1l-1,0l-1,1l1,0l1,0l1,0c0,0,1,0,1,0l1,-1l1,0c1,0,1,0,1,0ZM94.5,197.5l-1,-1l0,-2l2,1ZM98.5,198.5l-4,2c0,-1,1,-1,1,-1l4,-2ZM89.5,198.5l-4,2c0,0,1,-1,1,-1l3,-2ZM86.5,194.5l-2,0l0,1l-2,-1l1,-1l2,0l0,-1l2,1ZM81.5,189.5c1,0,1,0,1,0c1,0,1,0,1,0l1,-1l0,-1c0,0,0,-1,-1,-1c0,0,1,0,1,-1l0,-1c1,1,1,1,1,2c0,1,0,1,0,1c0,0,0,1,0,1c0,1,0,1,0,1l-1,0c0,1,0,1,0,1c0,0,-1,0,-1,0c0,0,-1,0,-2,0c0,0,0,1,0,1c0,1,0,1,0,1c0,1,0,2,0,2c0,1,0,1,-1,2c-1,0,-1,1,-2,1c0,0,-1,0,-2,0c-1,0,-1,0,-2,0c0,0,-1,0,-1,-1c0,0,-1,0,-1,-1c0,0,0,-1,0,-2l0,-1l0,-1c0,0,0,-1,0,-1c1,0,1,0,1,0l0,1c0,1,0,1,0,1l0,1l0,1l1,1l1,0c0,0,1,0,1,0c1,0,2,0,2,0c1,0,2,-1,2,-1l0,-1c1,0,1,0,1,0c0,0,0,-1,0,-1c0,0,-1,-1,-1,-1l0,-1l0,-1l-1,0l0,-1l1,-2c0,1,0,1,0,1c1,1,1,1,1,1c0,0,0,1,0,1ZM76.5,188.5l-1,-1l1,-2l1,1ZM72.5,179.5l5,-2l-1,1l-4,2ZM147.5,192.5c0,0,-1,0,-1,0l-1,0l0,-1l-1,0l-1,0c0,1,0,1,0,1l-1,0l-1,0l-1,0c0,0,-1,0,-1,0c-1,0,-1,0,-1,0c-1,0,-1,-1,-1,-1c0,0,-1,0,-1,0c0,-1,0,-1,0,-1c-1,0,-2,1,-2,1l-1,0c0,1,0,1,0,1c-1,1,-1,1,-1,2c-1,1,-1,1,-1,2l0,1l1,0c0,1,0,2,1,2c0,0,0,1,0,1l1,0l1,0l0,1l1,0l1,0c1,0,1,0,1,0c0,0,1,0,1,0c1,0,1,0,2,0l1,0l1,0l-3,2c-1,0,-2,0,-2,0c-1,0,-1,0,-2,0c0,0,-1,0,-1,-1c-1,0,-1,0,-2,0c0,-1,-1,-1,-1,-1c-1,-1,-1,-1,-1,-2c0,0,-1,-1,-1,-1l0,-1c0,-1,0,-2,1,-3c0,-1,0,-1,0,-1c1,-1,1,-1,1,-1c0,-1,1,-1,1,-1c0,-1,1,-1,1,-1l1,-1c0,0,-1,0,-1,0c0,0,0,-1,-1,-1l1,-2l1,0l1,0c0,0,1,0,1,0c0,0,1,0,1,1l0,1c0,0,0,1,0,1c0,0,-1,0,-1,0c0,0,0,1,0,1c1,0,1,0,1,0l1,1c0,0,1,0,1,0l1,0l1,0c0,0,1,0,1,0l0,-1l1,-1c0,0,0,-1,1,-1l0,-1c0,0,1,0,1,0l1,1l0,1l0,1l1,0c0,1,-1,1,-1,1c0,0,0,1,0,1ZM145.5,190.5l1,0c0,-1,0,-1,0,-1l-1,0c0,0,0,1,0,1ZM142.5,179.5l4,-2l0,1l-4,2ZM134.5,179.5l4,-2l-1,1l-4,2ZM179.5,188.5c0,0,0,1,0,1c0,0,1,0,1,0c0,0,-1,-1,-1,-1ZM179.5,196.5l0,1c-1,0,-1,0,-1,0c0,0,-1,0,-2,0c0,0,-1,0,-2,0l-1,-1c1,0,1,0,1,0l1,0c0,0,1,0,1,0l1,0c0,0,1,0,1,-1c0,0,1,0,1,0c0,-1,0,-1,1,-1c0,0,0,-1,0,-1c1,-1,1,-1,1,-2l-1,0c0,1,-1,1,-1,1c0,-1,0,-1,0,-1l-1,0c0,-1,0,-1,0,-1c0,-1,0,-1,0,-1c0,-1,0,-1,0,-2c0,0,1,0,1,0c0,-1,0,-1,1,-1l0,1c1,0,1,0,1,0c0,1,0,1,0,1c0,1,0,1,0,1c1,1,1,1,1,2c-1,1,-1,2,-1,3c0,1,-1,1,-1,1c0,1,0,1,-1,1ZM176.5,183.5l5,-2l-1,0c0,0,0,1,0,1l-4,2ZM173.5,192.5l0,-1l0,-1l-1,-8l1,-3l1,11c0,0,-1,0,-1,1c0,1,0,1,0,1ZM168.5,192.5l-1,0l-1,0c0,-1,-1,-1,-1,-2c0,0,0,1,0,2c-1,0,-2,0,-2,0c-1,0,-1,0,-2,0c0,-1,-1,-1,-1,-3l0,1c0,1,0,1,-1,1c0,0,-1,0,-1,0c-1,0,-1,0,-1,0c-1,0,-1,0,-1,0c0,-1,0,-1,0,-1c0,0,0,-1,0,-1c1,0,1,-1,1,-1c1,0,1,0,2,-1l1,-1l0,-1c0,0,1,-1,1,-1l0,1l0,1l0,3c0,1,1,1,1,1l1,0c0,0,1,0,1,0c0,0,1,-1,1,-1c0,-1,0,-1,0,-2c-1,-1,-1,-1,-1,-2l0,-1l1,-1l0,-1l0,3l1,2l0,1l0,1c0,1,1,1,1,1l1,0l1,0c0,0,0,-1,0,-1l0,-1l-1,-1l0,-1l0,-2l0,-1l0,-1c0,1,0,1,1,2l0,1l0,2c0,0,0,1,0,2c0,0,0,1,0,1c0,1,0,1,0,1c-1,1,-1,1,-1,1ZM160.5,187.5l0,1c-1,0,-1,0,-1,0l-1,0c0,1,0,1,-1,1c1,0,2,0,2,0c1,0,1,0,1,0ZM211.5,192.5l0,-1l0,-1l0,-8l1,-3l0,11l0,1c0,1,0,1,-1,1ZM207.5,192.5c0,0,-1,0,-1,0c0,0,-1,0,-1,0c-1,-1,-1,-1,-1,-2c0,0,0,1,-1,2c0,0,-1,0,-2,0c0,0,-1,0,-1,0c0,-1,-1,-1,-1,-3l0,1c0,1,0,1,-1,1c0,0,-1,0,-1,0c-1,0,-1,0,-2,0c0,-1,0,-1,0,-1c0,0,0,-1,0,-1c0,0,1,-1,1,-1c0,0,1,0,1,-1l1,0l1,-1l0,-1c0,0,0,-1,0,-1l1,1l0,1l0,3c0,1,0,1,0,1c1,0,1,0,2,0l1,0c0,0,0,-1,0,-1c0,-1,0,-1,0,-2c0,-1,0,-1,0,-2l0,-1l0,-1l1,-1l0,3l0,2l0,1c1,0,1,0,1,1c0,1,0,1,1,1l1,0c0,0,0,-1,1,-1c0,0,-1,0,-1,-1l0,-1l0,-1l-1,-2c1,0,1,0,1,0l0,-1l0,-1c0,1,0,1,0,2l1,1l0,2c0,0,0,1,0,2c0,0,0,1,0,1c0,1,0,1,-1,1c0,1,0,1,0,1ZM199.5,187.5l-1,1c0,0,-1,0,-1,0c0,1,-1,1,-1,1c1,0,2,0,2,0c1,0,1,0,1,0ZM201.5,179.5l0,1l1,0l0,-1l1,-1l0,1c1,0,1,0,1,0l1,-1l0,-1l0,1l0,1l0,1l-1,0l0,1l-1,0c0,0,0,-1,0,-1l0,1c-1,0,-1,0,-2,0l0,-1l0,-1ZM199.5,196.5l-4,2c0,-1,0,-1,1,-1l4,-2ZM249.5,196.5l-1,-1l1,-1l1,1ZM247.5,192.5l-1,0l-1,0c-1,0,-2,0,-2,0c-1,-1,-1,-1,-1,-2l-1,-9l1,-2l1,10l0,1c0,1,1,1,2,1l1,0l1,0c0,0,1,0,1,0c1,-1,1,-1,1,-1l0,-1c0,-1,0,-1,0,-1l-1,0l1,-2l1,1l0,1l0,1l0,1c0,0,0,1,0,1l-1,0c0,1,0,1,-1,1c0,0,-1,0,-1,0ZM248.5,198.5l-4,2c1,0,1,-1,1,-1l4,-2ZM243.5,198.5l-4,2c0,0,0,-1,0,-1l4,-2ZM235.5,182.5l-2,-1l1,-2l2,1ZM239.5,191.5l-1,0l0,1c-1,0,-2,0,-2,0l-1,1l-1,0l-1,0c0,0,0,-1,0,-1c0,-1,0,-1,0,-1l0,-1l1,1c1,0,1,-1,2,-1l1,0l1,0c0,-1,0,-1,0,-2l-1,-1l-1,-1l-1,0l0,-2c0,0,1,0,1,0c1,0,1,0,1,1c0,0,1,0,1,0c0,1,0,1,0,2c1,0,1,1,1,1c0,0,0,1,0,1c0,1,0,1,0,1c0,1,0,1,0,1ZM232.5,174.5l1,0c0,0,1,0,1,0c1,0,1,0,1,0c1,0,1,0,1,1c0,0,0,1,-1,1c0,1,0,1,-1,1c0,0,-1,0,-1,0c-1,0,-1,0,-1,0l2,-1c0,0,1,0,1,-1l-1,0c-1,0,-1,0,-2,0l0,1l0,-1l0,-1ZM225.5,186.5l-1,-1l0,-1l2,1ZM225.5,196.5c-1,0,-1,0,-2,-1c0,0,-1,0,-1,0c-1,-1,-1,-1,-1,-1c0,-1,-1,-2,-1,-2c0,-1,0,-1,0,-1c0,0,1,0,1,0c0,-1,0,-1,0,-1c0,-1,0,-1,0,-1c0,0,0,-1,0,-1c1,0,1,0,1,0c0,0,0,1,0,1l-1,1c0,0,0,1,0,1c0,0,0,1,1,1c0,0,0,1,0,1c0,0,1,0,1,0c1,1,1,1,2,1c1,0,2,-1,2,-1c1,0,1,0,2,-1c0,-1,0,-1,0,-1c0,-1,0,-1,0,-1c0,-1,0,-1,0,-1c0,-1,0,-1,0,-1c-1,0,-1,-1,-1,-1l1,-2l0,1l1,0c0,1,0,1,0,1c0,1,0,1,0,1c0,1,0,1,0,1l0,1c0,1,0,2,0,2c0,1,-1,1,-1,2c-1,1,-1,1,-2,1c-1,0,-2,1,-2,1ZM227.5,200.5l-4,2c0,0,0,-1,0,-1l5,-2ZM290.5,192.5l0,-1l0,-1l-1,-8l1,-3l1,11l0,1c0,0,-1,0,-1,0c0,1,0,1,0,1ZM289.5,173.5l4,-2l0,1c0,0,-1,0,-1,0l-4,2ZM282.5,191.5c0,0,1,0,1,0c0,0,1,0,1,-1c1,0,1,0,1,-1l0,-2l-1,-6l0,-1l0,-1c0,0,1,0,1,0c0,0,0,1,0,1c0,0,1,0,1,0c0,1,0,1,0,1c0,0,-1,1,-1,1c0,0,0,1,0,2c0,0,0,1,0,3c0,0,1,0,1,1l0,1l-1,1c0,0,0,1,0,1c0,0,0,1,0,1c-1,0,-1,0,-1,0l-1,0l-1,0l-1,0l-1,0c-1,0,-2,0,-2,0c0,0,-1,0,-1,0c0,0,-1,0,-2,0c0,0,-1,0,-1,0l-1,0l-1,0c0,0,-1,0,-1,0l0,-1c-1,0,-1,0,-1,-1l0,-1l0,-1c0,1,-1,1,-2,2l-1,0c1,0,1,1,1,1c0,1,0,1,0,1c0,1,-1,2,-1,2c0,1,0,1,-1,2c0,0,-1,1,-2,1c0,0,-1,0,-2,0c0,0,-1,0,-1,0c-1,0,-1,0,-2,-1c0,0,-1,0,-1,-1c0,0,0,-1,0,-2l0,-1l0,-1c0,0,1,-1,1,-1l1,0c-1,0,-1,0,-1,1c0,1,0,1,0,1l0,1l0,1l1,1c0,0,1,0,1,0c0,0,1,0,2,0c0,0,1,0,2,0c0,0,1,-1,1,-1c0,0,1,0,1,-1c0,0,0,-1,0,-1c0,0,0,-1,0,-1c0,0,-1,0,-1,-1l0,-1l-1,-1l1,-2c0,1,0,1,0,1c1,0,1,0,1,0c0,1,0,1,0,1l1,0l1,0c0,0,0,-1,1,-1l0,-1c1,0,1,0,1,0c0,1,0,1,0,1l0,1c0,1,0,1,0,2c1,0,1,1,1,1c0,0,1,0,1,0l1,0c1,0,1,0,1,0c0,0,0,-1,1,-1c-1,0,-1,0,-1,0l0,-1c0,0,0,-1,1,-1c0,-1,0,-1,0,-1c0,-1,1,-1,1,-1c0,-1,1,-1,1,-1c1,0,1,0,1,1c1,0,1,1,1,1l0,1c0,0,0,1,0,1l-1,1l0,1l1,0l1,0ZM282.5,174.5c0,0,1,0,1,0c1,0,1,0,1,0c1,0,1,0,2,0l0,1c0,0,0,1,0,1c0,0,-1,0,-1,0c0,1,0,1,0,1c0,0,-1,0,-1,0l-1,0l-1,0l2,-1c1,0,1,0,2,-1c-1,0,-1,0,-1,0c0,0,-1,0,-1,0c0,0,-1,0,-1,0c0,0,-1,0,-1,1l0,-1l0,-1ZM278.5,184.5l-2,-1l1,-1l2,1ZM278.5,187.5c-1,0,-1,0,-1,0c-1,1,-1,1,-1,1c0,0,0,1,0,1c1,0,1,0,1,1c1,-1,1,-1,1,-1c1,0,1,0,1,0l0,-1c-1,-1,-1,-1,-1,-1ZM276.5,176.5l4,-2l0,1l-4,2ZM272.5,195.5l-1,-1l-1,2l-2,-1l1,-2l2,1l0,-1l2,1ZM267.5,178.5c0,0,1,0,1,0c1,-1,1,-1,1,-1c1,0,1,1,2,1l0,1l0,1c0,0,-1,0,-1,0l-1,0l-1,0l-1,0l2,0c1,0,1,-1,2,-1c-1,0,-1,0,-1,0c0,0,-1,0,-1,0c0,0,-1,0,-1,0c0,0,-1,0,-1,0l0,-1ZM262.5,188.5l-1,-1l1,-2l1,1ZM265.5,200.5l-4,2c0,0,0,-1,0,-1l4,-2ZM335.5,196.5l-1,-1l-1,1l-2,-1l1,-1l2,0l0,-1l2,1ZM332.5,192.5l-1,0c-1,0,-1,0,-1,0c-1,0,-1,0,-2,0c0,0,0,-1,0,-1l-1,0c0,0,-1,0,-1,0c0,1,-1,1,-1,1c0,0,-1,0,-1,0l-1,0c-1,0,-1,0,-2,0c0,0,0,-1,-1,-2c0,1,0,2,0,2c-1,0,-1,0,-1,0l-1,0l-1,0c0,0,-1,0,-1,0l-1,-1c-1,0,-1,0,-1,1c0,0,-1,0,-1,0l-1,0l-2,0c0,1,0,1,0,2l0,1c-1,0,-1,0,-1,1c0,0,-1,0,-1,1l-1,0c0,0,0,1,0,1c-1,0,-1,0,-1,0c0,0,-1,0,-1,0c-1,0,-1,0,-2,-1l-1,0c1,0,1,0,1,0c0,0,1,0,1,0c0,0,1,0,1,0c1,0,1,-1,1,-1c1,0,1,0,1,-1c1,0,1,0,1,0c0,-1,0,-1,1,-1c0,0,0,-1,0,-1c0,0,0,-1,0,-1c0,0,-1,0,-1,0c0,0,-1,0,-1,0l0,-1l-1,0c0,0,0,-1,1,-1c0,0,0,-1,0,-1c0,0,0,-1,0,-1c0,0,1,0,1,0l1,0c0,0,1,0,1,0c0,1,0,1,0,1l0,1l0,1c1,0,1,0,2,0c0,0,1,0,1,0c0,0,1,-1,1,-1l1,0l1,0c1,1,1,1,1,1l1,0c0,0,1,0,1,0c0,-1,1,-1,1,-1l0,-1c0,-1,0,-1,0,-1c0,0,0,-1,0,-1l0,-7l1,-2l0,11c0,0,0,1,0,1l1,0c0,0,0,1,0,1l1,0c0,0,1,0,1,0c0,0,1,0,1,0c0,-1,0,-1,0,-1c1,0,1,0,1,0c0,-1,0,-1,-1,-1c-1,0,-1,0,-1,0l0,-1c0,-1,1,-1,1,-1l1,-1c0,0,1,0,1,0c0,0,1,0,1,0c0,1,1,1,1,1c0,1,0,1,0,1l0,1l-1,1l1,0l1,1l1,0l1,0c1,0,1,0,2,0c0,-1,0,-1,1,-1l0,-1c-1,-1,-1,-1,-1,-1l1,-2l0,1c0,1,0,1,0,1c0,1,0,1,1,1c0,0,0,1,-1,1c0,0,0,1,0,1c0,1,-1,1,-2,1l-1,0ZM327.5,185.5l-2,-1l1,-2l2,1ZM323.5,174.5c0,0,1,0,1,0c0,0,1,0,1,0c1,0,1,0,2,0l0,1c0,0,0,1,0,1c-1,0,-1,0,-1,0c0,1,0,1,0,1c0,0,-1,0,-1,0l-1,0l-1,0l2,-1c1,0,1,0,2,-1c-1,0,-1,0,-1,0c-1,0,-1,0,-1,0c-1,0,-1,0,-1,0c-1,0,-1,0,-1,1l0,-1l0,-1ZM321.5,198.5l-4,2c0,0,0,-1,1,-1l3,-2ZM315.5,196.5l-1,-1l0,-1l2,1ZM313.5,177.5c0,-1,1,-1,1,-1c0,-1,0,-1,1,-1c0,1,0,1,0,1c0,1,0,1,0,1l0,1l1,0l-1,2l-1,-1l-1,1c0,0,0,1,0,1l-1,0l-1,0l1,-1c0,0,1,0,1,0l0,-1l1,0l-1,0l0,-1l0,-1ZM314.5,177.5l0,1l1,0l0,-1l-1,0ZM308.5,189.5c0,1,0,1,0,1c-1,0,-1,0,-1,0l1,0l0,1c0,0,1,0,1,0c0,0,0,-1,0,-1c-1,-1,-1,-1,-1,-1ZM305.5,175.5c-1,0,-2,0,-2,0l-1,0l-1,0c0,0,-1,0,-1,1l0,-1l1,-1c1,0,1,0,2,0l1,0l1,0ZM301.5,192.5l0,-1l0,-1l-1,-8l1,-3l1,11l0,1c0,0,-1,0,-1,0c0,1,0,1,0,1ZM332.5,175.5l0,1l1,0c0,0,1,0,1,0l0,-1l0,1c0,0,1,0,1,0c0,0,0,-1,0,-1l0,-1l1,0l0,1l0,1c-1,0,-1,1,-1,1l-1,0l0,-1l0,1c-1,0,-1,0,-1,0c0,0,-1,0,-1,0l0,-1l0,-1ZM337.5,172.5l-6,3c0,-1,1,-1,1,-1l5,-3ZM351.5,175.5l-1,0l0,1l0,1c0,1,0,1,0,1l-1,-1l0,-1l1,0c0,-1,0,-1,0,-1c0,-1,1,-1,1,-1l1,0l1,-1ZM351.5,176.5l1,0c0,-1,0,-1,0,-1c1,0,1,0,1,0c0,1,0,1,0,1c0,0,0,1,0,1l0,1l0,1l-1,0l-1,1l-1,0l-1,0l1,0c0,-1,1,-1,1,-1l1,-1l-1,0l0,-1l0,-1ZM352.5,177.5l0,-1c0,0,-1,0,-1,1l1,0ZM400.5,173.5c0,0,1,0,1,0c1,-1,1,-1,2,-1c0,0,1,0,1,1c0,0,1,0,1,0c0,0,-1,0,-1,0c0,1,0,1,0,1c0,1,-1,1,-1,1l-1,0l-1,0l-1,0l2,0c1,0,1,-1,2,-1c-1,0,-1,0,-1,0c0,0,-1,0,-1,0c0,0,-1,0,-1,0c0,0,-1,0,-1,0c0,0,0,-1,0,-1ZM369.5,192.5l0,-1l0,-1l-1,-8l1,-3l1,11c0,1,0,1,0,1c-1,1,-1,1,-1,1ZM368.5,173.5l4,-2l0,1l-4,2ZM361.5,191.5c1,0,1,0,1,0c1,0,1,0,1,-1c0,0,1,0,1,0l0,-1l0,-2l-1,-6c0,0,0,-1,0,-1l0,-1c1,0,1,0,1,0l0,1c0,0,1,0,1,0c0,0,0,1,0,1c0,0,0,1,0,1l-1,0c0,0,1,1,1,2c0,0,0,1,0,2c0,1,0,1,0,2l0,1l0,1l-1,1l0,1c0,0,-1,0,-1,0l-1,0l-1,0l-1,0c0,0,-1,0,-1,0c0,0,-1,0,-1,0c-1,0,-1,0,-1,0c0,0,-1,0,-1,0c0,0,-1,1,-2,1c0,0,-1,0,-1,0c-1,0,-1,0,-2,0c0,1,-1,1,-2,1c-1,0,-2,-1,-3,-1c-1,0,-2,0,-3,-1c0,0,0,-1,0,-1c0,0,-1,-1,-1,-1c0,0,0,-1,0,-1c1,0,1,0,1,-1c0,0,0,-1,1,-1c0,0,0,1,0,1c-1,0,-1,1,-1,1c0,0,1,1,1,1c0,0,1,1,1,1c1,0,1,0,2,1c1,0,2,0,3,0c1,0,2,0,2,0c0,0,1,0,2,-1l1,0l1,0c0,-1,-1,-1,-1,-1c0,-1,0,-1,0,-1c0,0,0,-1,1,-1c0,-1,0,-1,0,-1c0,0,0,-1,0,-1c1,0,1,0,1,0c0,-1,0,-1,1,-1c1,0,1,0,1,0c0,1,0,1,1,1c0,0,0,1,0,1l0,1c0,0,0,1,0,1l-1,1c0,1,0,1,1,1c0,0,1,0,1,0ZM361.5,174.5c1,0,1,0,1,0c1,0,1,0,2,0c0,0,1,0,1,0c0,0,1,0,1,1c-1,0,-1,1,-1,1l-1,0c0,0,0,1,0,1c-1,0,-1,0,-1,0l-1,0l1,-1c1,0,1,0,2,-1c0,0,-1,0,-1,0l-1,0c0,0,-1,0,-1,0l-1,0l0,-1ZM356.5,184.5l-1,-1l1,-1l1,0ZM358.5,187.5c-1,0,-1,0,-1,0c-1,1,-1,1,-1,1c0,0,0,1,0,1c0,0,1,0,1,1c1,0,1,-1,1,-1c1,0,1,0,1,0c0,0,0,-1,0,-1c-1,-1,-1,-1,-1,-1ZM412.5,192.5l-1,0l-1,0c0,0,0,-1,0,-1l-1,0l-1,0c0,1,0,1,0,1l-1,0l-1,0l-1,0l-1,0l-1,0c0,0,0,-1,0,-1c0,0,-1,0,-1,0c0,1,-1,1,-1,1c-1,0,-1,0,-1,0l-1,0l-1,0l-1,0c0,0,0,-1,-1,-1l-2,-2c0,0,-1,-1,-1,-1l-1,0l0,1c0,1,0,1,0,1c0,1,0,1,-1,1c0,1,0,1,0,1c0,0,-1,0,-1,0c0,0,-1,0,-1,0l-1,0l-3,0l-1,0l0,1l0,1c0,0,-1,1,-1,1c0,0,-1,-1,-1,-1c0,-1,0,-1,-1,-2l0,-1c0,0,-1,0,-1,1c0,0,-1,0,-1,0l0,1l0,1l0,1l0,2l0,1l1,1c0,1,0,1,0,2l0,1l-1,0l0,-1l0,-1l0,-1l-1,-3l0,-1l0,-1l0,-1l0,-1c1,0,1,-1,1,-1l0,-1l1,0l1,-1l1,0l0,-1c0,1,1,2,2,2l2,1l1,0l1,0l1,0c0,0,1,0,1,0c0,0,0,-1,1,-1c1,0,1,-1,1,-1c0,0,0,-1,-1,-1c0,-1,0,-1,-1,-1c0,0,0,-1,-1,-1l-1,0l0,-1c-1,0,-1,0,-1,0l0,-1c0,0,0,-1,0,-1c0,-1,0,-1,0,-1l1,0c0,-1,1,-1,3,-2c1,0,3,-1,4,-2c2,0,3,0,3,0l0,-1l1,0l-1,2c0,0,-1,0,-1,0c0,0,-1,1,-2,1c-2,1,-3,1,-4,2c-2,0,-3,1,-3,1l1,1l1,0c0,0,0,1,0,1l1,0c1,1,1,1,2,1c0,1,1,1,1,2c1,0,2,1,2,1l2,1l0,1l1,0c1,0,1,0,1,0c1,-1,1,-1,2,-1l1,0c0,-1,0,-1,0,-1c1,1,1,1,1,1c0,1,1,1,1,1l1,0l1,0c0,0,1,0,1,0l0,-1l1,-1c0,-1,1,-1,1,-1l0,-1c0,0,1,0,1,0c0,0,1,0,1,0c0,1,0,1,0,2l1,0l0,1c0,0,0,1,0,1l-1,0c0,0,0,1,0,1ZM410.5,190.5l1,0l0,-1c-1,0,-1,0,-1,0l0,1ZM408.5,178.5l0,1l1,0l0,-1l0,-1l0,1l1,0l1,0l0,-1l0,1l0,1l-1,0l-1,0l0,1c0,0,-1,0,-1,0c-1,0,-1,0,-1,0l0,-1l0,-1l1,0ZM411.5,195.5l-4,3c0,-1,0,-1,0,-2l4,-2ZM402.5,188.5l-1,-1l1,-1l1,0ZM391.5,173.5c0,0,1,0,1,-1l1,0c0,0,0,1,0,1l0,1l0,1l1,0l-1,1l-1,0l-1,1l-1,0l-1,0l1,0l0,-1c0,0,1,0,1,0l1,-1l-1,0c0,0,0,-1,0,-1c0,0,0,-1,0,-1ZM392.5,173.5l0,1l1,0l-1,0ZM378.5,182.5c0,-1,0,-1,1,-1c0,0,1,0,1,0c1,0,1,0,2,0c0,0,0,1,0,1c0,0,0,1,-1,1l0,1c-1,0,-1,0,-1,0c0,0,-1,0,-1,0c0,0,-1,0,-1,0l2,-1c0,0,1,0,1,-1c-1,0,-1,0,-1,0c-1,0,-1,0,-2,0l0,1l0,-1ZM101.5,177.5l0,-1c0,0,0,-1,0,-1c0,-1,0,-2,0,-2l0,-1c0,0,1,1,1,1c0,0,0,1,0,1l0,1l0,1l-1,1ZM100.5,179.5l0,1c0,0,1,0,1,0l1,-1l0,-1l0,1c0,0,1,0,1,0c0,0,1,0,1,-1l0,-1l0,1l0,1l0,1c0,0,0,1,-1,1c0,0,-1,0,-1,0l0,-1l0,1c-1,0,-1,1,-1,1c-1,0,-1,0,-1,-1l0,-1l0,-1ZM164.5,176.5l0,-1c0,0,0,-1,0,-1c0,-1,0,-1,0,-2l0,-1c0,0,1,1,1,1c0,1,0,1,0,1l0,1c0,0,0,1,0,1c0,0,0,1,-1,1ZM163.5,178.5l0,1c0,0,1,0,1,0l1,0l0,-1l0,-1l0,1l1,0c0,1,0,1,0,1c0,0,1,-1,1,-1l0,-1l0,-1l0,1l0,1l0,1c0,0,0,1,-1,1c0,0,-1,0,-1,0c-1,1,-1,1,-1,1c-1,0,-1,0,-1,-1c0,-1,0,-1,0,-1l0,-1ZM294.5,81.5l0,-1c0,0,0,-1,0,-1c0,-1,0,-1,0,-2l0,-1c0,0,0,1,1,1c0,1,0,1,0,1l0,1c0,0,0,1,0,1c0,0,0,1,-1,1Z" class="g1_45" />
<path fill-rule="evenodd" d="M368.5,534.5l-4,3c0,-1,0,-1,1,-1l4,-3ZM343.5,513.5c1,0,1,0,1,0c1,0,1,0,2,0c0,0,1,0,1,0c0,0,1,0,1,0c0,1,0,1,0,1c-1,0,-1,0,-1,1l-1,0c-1,1,-1,1,-1,1l-1,0l0,-1l1,0c1,0,1,-1,2,-1c0,0,-1,0,-1,0l-1,0c0,0,-1,0,-1,0l-1,0c0,-1,0,-1,0,-1ZM319.5,517.5c0,0,0,-1,1,-1c0,0,1,0,1,0c1,0,1,0,1,0c1,1,1,1,1,1c0,1,0,1,-1,1c0,1,0,1,0,1l-1,0c0,0,-1,0,-1,0l-1,0l2,0c0,-1,1,-1,1,-1l-1,0c0,-1,0,-1,0,-1c-1,0,-1,1,-2,1c0,-1,0,-1,0,-1ZM298.5,512.5l1,0c0,-1,1,-1,1,-1c1,0,1,0,1,1c1,0,1,0,1,0c0,1,0,1,-1,1c0,1,0,1,0,1l-1,0c0,0,-1,0,-1,0c-1,0,-1,0,-1,0l2,0c0,0,1,-1,1,-1l-1,0c-1,0,-1,0,-2,0l0,-1ZM204.5,513.5c0,0,1,0,1,0c1,0,1,0,2,0c0,0,1,0,1,0c0,0,1,0,1,0c0,1,0,1,-1,1l0,1c0,0,-1,0,-1,0l-1,0c0,1,0,1,-1,1l-1,-1l2,0c1,0,1,-1,2,-1c-1,0,-1,0,-1,0c0,0,-1,0,-1,0c0,0,-1,0,-1,0c0,0,-1,0,-1,0c0,-1,0,-1,0,-1ZM124.5,513.5l1,0l1,0c0,0,1,0,1,0c1,0,1,0,1,0c0,1,0,1,0,1c0,0,-1,0,-1,1c-1,0,-1,0,-1,0c-1,1,-1,1,-1,1l-1,0l0,-1l2,0c0,0,1,-1,1,-1l-1,0c-1,0,-1,0,-2,0l-1,0c1,-1,1,-1,1,-1ZM108.5,516.5c0,-1,0,-1,1,-1c0,0,1,0,1,0c1,0,1,0,2,0c0,0,0,1,0,1c0,0,0,1,0,1c-1,0,-1,1,-1,1c-1,0,-1,0,-1,0c0,0,-1,0,-1,0c0,0,-1,0,-1,0l2,-1c0,0,1,0,1,0c0,-1,0,-1,0,-1c-1,0,-1,0,-1,0c-1,0,-1,0,-2,0c0,0,0,1,0,1l0,-1ZM94.5,526.5c0,1,0,2,0,3c0,0,-1,0,-1,0l0,1c0,0,-1,0,-1,0l1,1l1,0l-1,0l-1,1l-1,1c0,0,-1,0,-1,1l-1,0l-1,0l-1,1l-1,0l0,1l-1,1l-3,0l-3,0c0,0,-1,-1,-1,-1l-1,-1l-1,0c-1,-1,-1,-1,-2,-1l-1,-1l-1,0l0,-1l-1,0l0,-1l-1,0l1,-1l-1,-1l0,-1c0,-1,0,-1,0,-1l0,-1l0,-1c0,0,0,-1,0,-1c0,-1,1,-1,1,-1l0,-1l-1,0c0,0,0,-1,1,-1l1,0l0,-1l1,0l0,-1l1,0l1,0l1,-1c1,0,1,0,1,0l1,-1c0,-1,0,-1,1,-1l3,0l3,0l1,1l0,1l1,0l2,1l1,0l1,0l0,1l1,0l0,1c1,0,1,0,1,1l1,0l-1,0l-1,0l1,1l0,1l1,0l0,1ZM85.5,537.5l0,-1l1,-1l1,-1c1,0,1,0,1,0c1,0,1,0,1,0c1,-1,1,-1,2,-1l0,-1c1,0,1,0,1,0l1,-1l-1,0l0,-1l1,-1l0,-1l0,-1l0,-1c0,-1,0,-1,0,-2l0,-1l-1,0l0,-1l1,0c0,-1,-1,-1,-1,-1l-1,-1l-1,0l0,-1l-2,0l-1,-1c0,0,-1,0,-1,0l-1,-1l0,-1l-1,0l-2,0l-1,0l-2,0l-1,0l0,1l-1,1l-2,1l-1,0l-1,1l-1,0l0,1c-1,0,-1,0,-2,1l2,0l-1,1l0,1l-1,0l0,1l0,1l0,1l0,1l0,1l1,0l0,1l1,0c0,1,0,1,0,1l-1,0l1,1l0,1l1,0l1,1l1,0l1,0c1,0,1,1,1,1l1,0l0,1c1,0,1,1,1,1l3,0ZM90.5,522.5l-1,0l0,-1l-1,0c0,-1,0,-1,-1,-1l1,0c1,0,1,0,1,0c1,1,1,1,1,1ZM91.5,531.5l-1,1l-1,1l-1,0l-1,0l0,-1c1,0,1,0,1,0l1,0c0,0,1,-1,1,-1ZM86.5,533.5c0,1,0,1,0,1c-1,1,-1,1,-1,1l-3,0l-3,0c-1,0,-1,-1,-1,-1l0,-1c0,-1,0,-1,1,-1l3,0l3,0l1,0l0,1ZM86.5,519.5c0,1,0,1,0,1c0,0,-1,1,-1,1l-3,0l-3,0c-1,0,-1,0,-1,-1l0,-1l0,-1l1,0l3,0l3,0l1,1ZM85.5,522.5l1,0c0,0,0,-1,1,-1c0,0,0,1,1,1l1,1l1,0l1,0l0,1l0,1l1,0l0,1l0,1c-1,1,-1,1,-1,1l0,1c0,1,-1,1,-1,1l-1,0l-1,1l-1,0l-1,0c-1,0,-1,0,-1,0l-3,0l-3,0l-1,0l-1,0c0,0,-1,0,-1,0c0,0,-1,0,-1,-1l-1,0l-1,0l0,-1l-1,-1l0,-1l0,-1l0,-1l0,-1l1,0l0,-1l2,0l0,-1l1,0c0,0,1,-1,1,-1c0,0,1,1,1,1l1,0l3,0ZM85.5,530.5l0,1l1,0l1,0c0,0,1,0,1,0l0,-1l1,0c0,0,0,-1,0,-1l1,1l1,-1l0,-1l0,-1l0,-1c0,0,0,-1,0,-1c0,-1,0,-1,0,-1c-1,-1,-1,-1,-1,-1l-1,0l-1,0l0,-1l-1,0c-1,0,-1,0,-1,0l-1,0l-3,0l-3,0l-1,0l-1,0l-1,0l-1,0l0,1l-1,0l-1,0l0,1l0,1l-1,1l0,1l0,1l1,0c0,1,0,1,0,2l1,-1c1,0,1,1,1,1l1,0l0,1l1,0c1,0,1,0,1,0l1,-1l3,0l3,0ZM83.5,525.5l1,0l0,1l0,1l0,1l0,1c0,0,0,-1,-1,-3c0,0,0,1,0,1c-1,0,-1,-1,-1,-1l0,-1c0,0,1,0,1,0ZM83.5,525.5c-1,0,-1,1,-1,1l1,0c0,0,0,-1,0,-1ZM81.5,525.5l0,1l-1,0l0,1c0,1,0,1,0,1c0,1,0,1,0,1l0,-1c0,0,0,-1,0,-1c0,0,-1,-1,-1,-1l0,-1c1,0,1,0,1,0c1,0,1,0,1,0ZM73.5,522.5l0,-1l1,0l0,-1l1,0l1,0l1,0l-1,0l1,0c-1,0,-1,0,-1,0l0,1l-1,0l-1,0l0,1l-1,0ZM73.5,531.5l1,0c0,0,0,1,1,1l1,0l1,0c-1,1,-1,1,-1,1c-1,0,-2,-1,-2,-1l-1,0l0,-1ZM150.5,529.5l0,-1l0,-1l-1,-9l1,-2l1,11c0,0,0,1,-1,1c0,0,0,1,0,1ZM142.5,527.5c0,0,1,0,1,0c0,0,1,0,1,0c1,0,1,-1,1,-1l0,-2l-1,-6c0,-1,0,-1,0,-1c0,0,0,-1,0,-1c0,0,1,-1,1,-1c0,1,0,1,0,1c0,0,1,1,1,1l0,1l-1,0l0,1c0,0,0,1,0,1c0,1,0,1,1,3c0,0,0,1,0,1l0,1c0,1,0,1,0,1c0,0,-1,1,-1,1c0,1,0,1,0,1c-1,0,-1,0,-1,1l-1,0l-1,0l-1,0c0,0,-1,0,-2,-1c0,1,-1,1,-1,1c-1,0,-1,0,-2,0l-1,0l-1,-1l-1,0c0,1,0,1,-1,1l-1,0l-1,0c0,0,-1,0,-1,0l-1,0c0,-1,0,-1,0,-1c0,0,0,-1,0,-1c-1,0,-1,0,-1,0l0,-1c0,0,0,1,-1,1l-1,0l-1,0l0,1c0,1,0,1,0,1c0,0,0,1,-1,1c0,1,0,1,0,2l-1,0l0,1l-1,0c-1,0,-1,0,-1,1c0,0,-1,0,-1,0l-1,0c0,-1,0,-1,0,-1l-1,0c-1,0,-1,0,-1,0c0,0,0,-1,0,-1c0,1,1,1,1,1l1,0l1,0l0,-1c0,0,1,0,1,0c1,0,1,-1,1,-1c1,0,1,-1,1,-1c1,-1,1,-1,1,-2l0,-3l1,0c0,0,1,0,1,0c0,0,1,0,1,0c1,0,1,0,1,-1c1,0,1,0,1,0l0,1c0,0,0,1,0,1c0,1,0,1,1,1c1,0,1,0,1,0l1,0l1,0c0,0,1,0,1,0l1,0c0,-1,0,-1,0,-1c1,-2,2,-2,3,-2l1,1l0,1l1,0l0,1c1,0,1,0,1,0l1,0l1,0ZM142.5,511.5c0,0,1,0,1,0c1,-1,1,-1,1,-1c1,0,1,0,2,1c0,1,0,1,0,1c0,1,-1,1,-1,1l-1,0l-1,0l-1,0l2,0c1,0,1,-1,2,-1c-1,0,-1,0,-1,0c0,0,-1,0,-1,0c0,0,-1,0,-1,0c0,0,-1,0,-1,0c0,0,0,-1,0,-1ZM138.5,527.5l-1,-1l0,-1l-1,0l0,1l-1,0c0,0,1,0,1,1l1,0ZM136.5,513.5c0,0,0,-1,0,-1c1,0,1,0,1,0c1,0,1,1,1,1l0,1c0,0,-1,0,-1,1l1,0l0,1l-1,0l-1,0l0,1c0,0,-1,0,-1,0l-1,0c0,0,-1,0,-1,0l1,0l1,-1l1,0l0,-1c0,0,-1,-1,-1,-1c0,0,0,-1,1,-1ZM137.5,513.5l-1,0l0,1l1,0l0,-1ZM127.5,523.5l-2,-1l1,-2l2,1ZM122.5,523.5l-1,-1l1,-1l1,1ZM124.5,537.5l-4,2c0,-1,0,-1,1,-1l4,-2ZM114.5,530.5l0,-1l0,1l0,-1c0,0,-1,0,-1,0c0,0,0,-1,0,-1c0,-1,0,-1,0,-2l0,-1c-1,0,-1,1,-2,1c0,0,-1,0,-1,1c0,0,0,1,0,1l0,1c0,0,0,1,0,2c0,0,-1,1,-1,1c-1,1,-1,1,-2,1c-1,1,-1,1,-2,1c-1,0,-1,0,-2,0c0,-1,-1,-1,-1,-1c-1,0,-1,-1,-1,-1c-1,-1,-1,-1,-1,-2c0,0,0,-1,0,-1c1,0,1,0,1,-1c0,0,0,-1,0,-1c1,-1,1,-1,1,-1c0,1,0,1,0,1c0,0,0,1,-1,1c0,1,0,1,0,1c0,1,0,1,1,1c0,1,0,1,0,1c0,0,1,0,1,0c0,0,0,1,0,1c1,0,1,0,2,0c1,0,2,0,2,-1c1,0,1,0,2,-1c0,0,0,-1,0,-1c0,0,0,-1,0,-1c0,-1,0,-1,0,-1c0,0,0,-1,0,-1c-1,0,-1,0,-1,-1l1,-2l0,1c0,0,0,1,0,1c0,0,1,0,1,0c1,0,1,-1,1,-1c1,0,1,0,1,0c0,-1,1,-1,1,-2c0,1,0,1,0,1l0,1l0,1c0,0,0,1,0,1c1,0,1,1,1,1c0,0,0,1,0,1c1,0,1,1,1,1c1,0,1,0,1,0l1,0c0,-1,0,-1,0,-1c0,0,0,-1,0,-2c-1,-1,-1,-2,-1,-2c0,-1,0,-1,0,-1c0,-1,0,-2,0,-3c0,-1,0,-2,0,-2c0,-1,0,-1,0,-1c0,0,0,-1,0,-1c0,0,0,-1,1,-1c0,0,0,1,0,1c0,0,1,1,1,1l0,1l-1,0l0,1c0,0,0,1,0,1c0,1,0,1,1,3c0,0,0,1,0,1c0,1,0,1,0,1c0,2,0,3,0,3l0,1c0,0,-1,0,-1,1c0,1,-1,1,-1,1c0,0,-1,-1,-1,-1c0,0,-1,0,-1,0ZM117.5,535.5l-4,2c0,-1,0,-1,0,-1l4,-2ZM114.5,534.5l-1,-1l-1,1l-2,-1l1,-1l2,1l1,-2l1,1ZM105.5,524.5l-1,-1l0,-1l2,1ZM101.5,516.5l4,-2l0,1l-4,2ZM173.5,521.5l-1,-1l1,-2l1,1ZM182.5,526.5l-1,0l-1,0c-1,0,-1,0,-2,0l-1,1l-1,0l-1,0l0,1c-1,0,-1,0,-2,0l-1,0c-1,1,-1,1,-2,1l-1,0c0,0,-1,0,-1,0c-1,-1,-1,-1,-1,-1c0,0,0,-1,0,-1l-1,-1c0,0,0,1,0,1c-1,0,-1,0,-1,0l-1,0c-1,0,-1,0,-1,0l0,1c0,1,0,1,0,1c0,0,0,1,0,1c-1,1,-1,1,-1,2c-1,0,-1,0,-1,1l-1,0c0,0,-1,0,-1,1c0,0,-1,0,-1,0l-1,0c0,-1,0,-1,0,-1l-1,0c-1,0,-1,0,-1,0c0,0,0,-1,0,-1c1,1,1,1,1,1l1,0l1,0l0,-1c0,0,1,0,1,0c1,0,1,-1,1,-1c1,0,1,-1,1,-1c1,-1,1,-1,1,-2c0,0,1,0,1,0c-1,0,-1,0,-1,0l0,-3c0,0,1,0,1,0c1,0,1,0,1,0c1,0,1,0,1,0l1,0l0,-1l1,0l0,1c0,0,0,1,0,1c0,1,1,1,1,1l1,0l1,0c0,0,1,0,1,0c0,0,1,0,2,0l1,-1l1,0l1,0l-1,-1l-1,0l-1,-1l-1,0l-1,1c0,-1,0,-1,0,-2c1,0,1,0,1,0c0,0,1,0,1,0l1,0l1,0l2,1l1,0c0,0,0,1,1,1l1,0c0,0,1,0,1,0l1,0ZM173.5,516.5l4,-2l0,1l-5,2ZM167.5,532.5l-1,-1l-1,1l-1,-1l1,-1l1,1l1,-1l1,0ZM164.5,518.5l1,0l1,0c0,0,1,0,1,0c1,0,1,0,1,0c0,0,0,1,0,1c0,0,-1,0,-1,1c-1,0,-1,0,-1,0c-1,0,-1,0,-1,0l-1,0l1,0c1,0,2,-1,2,-1l-1,0l-1,0l-1,0l-1,0l0,-1c0,0,1,0,1,0ZM160.5,513.5c0,0,0,-1,0,-1c1,0,1,0,1,0c1,0,1,0,1,0c0,0,0,1,0,1l0,1l0,1l0,1l-1,0l-1,1c0,0,-1,0,-1,0l-1,0l1,-1l1,0l0,-1c0,0,0,-1,0,-1c0,0,0,-1,0,-1ZM161.5,513.5c-1,0,-1,0,-1,0l0,1l1,0l0,-1ZM221.5,525.5c0,0,-1,0,-1,0c0,1,0,1,0,1l1,0c0,-1,0,-1,0,-1ZM221.5,533.5c-1,0,-1,0,-1,0l-1,0c0,1,-1,1,-1,1l-1,0c0,0,-1,0,-1,-1c0,0,-1,0,-1,0c0,0,1,0,1,0c1,0,1,0,1,0c1,0,1,0,1,0c0,0,0,-1,0,-1c1,0,1,0,1,0c1,0,1,-1,1,-1c1,0,1,0,1,-1l1,-1c0,0,0,-1,0,-1c0,0,0,-1,0,-1c0,1,0,1,0,1c0,0,-1,0,-1,0c-1,0,-1,0,-1,0c0,0,-1,0,-1,0c0,-1,0,-1,0,-1c0,-1,0,-1,0,-1c0,-1,0,-1,0,-1c0,0,0,-1,1,-1c0,0,0,-1,0,-1c1,0,1,0,1,0c0,0,1,0,1,0c0,0,0,1,0,1c0,0,1,0,1,1l0,1c0,0,0,1,0,1c0,0,0,1,0,1c0,1,0,2,-1,3l0,1c-1,0,-1,0,-1,1ZM214.5,529.5l0,-1l0,-1l-1,-9l1,-2l1,11c0,0,0,1,0,1c-1,0,-1,1,-1,1ZM213.5,512.5l4,-2l0,1l-4,2ZM207.5,522.5l-1,-1l1,-1l1,1ZM207.5,529.5l-1,0c-1,0,-1,0,-1,0c0,0,-1,0,-1,-1c0,0,-1,0,-1,0l-1,0c0,1,-1,1,-2,1l-2,1c-1,0,-1,0,-1,0l-1,0l-1,0c-2,0,-3,0,-4,0c-1,-1,-1,-1,-2,-2c0,0,-1,0,-1,-1c0,-1,0,-1,0,-1c0,-1,0,-1,0,-1c1,-1,1,-1,1,-2l1,0c-1,1,-1,1,-1,1c0,1,0,1,0,1c0,1,0,1,0,1c1,1,1,1,2,1c0,1,0,1,0,1l1,0l1,0c1,0,2,0,3,0c1,0,1,0,2,0c0,0,1,0,1,0l1,0c0,0,1,-1,1,-1c1,0,1,0,2,0c1,-1,1,-1,1,-2c0,1,0,1,0,1l0,1l1,0l1,0l1,0c0,0,1,0,1,0c1,0,1,0,1,0c0,0,1,0,1,-1c-1,0,-1,0,-1,-1l0,-1l0,-1c1,0,1,0,1,0l0,1c0,0,0,1,0,1c0,0,0,1,0,1c0,0,0,1,0,1c0,0,0,1,0,1c-1,0,-1,1,-2,1c0,0,-1,0,-1,0ZM198.5,523.5l-2,0l-1,1l-1,-1l1,-2l1,1l1,-1l1,1ZM195.5,516.5l5,-2l-1,0l0,1l-4,2ZM268.5,528.5c0,0,0,1,0,1l-1,-1c0,0,-1,0,-1,0l-1,-1l0,1l-1,1l-1,0l-1,0c-1,0,-1,0,-1,0c0,0,-1,0,-1,0l0,-1c-1,0,-1,0,-1,0l-1,0c0,0,0,1,-1,1l-1,0l-1,0c-1,0,-2,0,-2,-1c-1,0,-1,-1,-1,-2l0,-8l1,-2l0,9l0,1l1,1l1,0l1,0c1,0,1,0,1,0c1,0,1,0,2,0l0,-1c0,0,1,0,1,0c0,1,1,1,1,1l1,0l1,0c1,0,1,0,1,0l1,0l1,-1c0,-1,0,-1,0,-2l1,0l1,0c1,0,1,1,1,1l0,1l0,1l0,1l-1,0ZM266.5,526.5l1,0l1,1c0,-1,0,-1,0,-1c0,-1,-1,-1,-1,-1l-1,1ZM264.5,517.5l0,1l1,0c0,1,0,1,0,1l0,-1l1,0l0,-1l0,1c0,0,1,0,1,0l0,-1l0,-1l1,0l0,1l0,1c-1,1,-1,1,-1,1l-1,0c-1,1,-1,1,-1,1c0,0,-1,0,-1,0c0,-1,0,-1,0,-1l0,-1ZM266.5,512.5c1,-1,1,-1,1,-1c0,0,1,0,1,0c0,0,0,1,0,1c0,0,0,1,0,1c0,1,0,1,0,1l0,1l-1,0l-1,1c0,0,-1,0,-1,1c0,0,-1,0,-1,0c1,-1,2,-2,2,-2l0,-1l0,-1ZM267.5,513.5l0,-1c-1,0,-1,0,-1,1l1,0l0,1l0,-1ZM259.5,533.5l-1,-1l1,-2l1,1ZM257.5,516.5l4,-2l0,1l-4,2ZM241.5,532.5c0,0,1,0,1,0l1,0c1,0,1,0,2,-1c1,0,1,0,2,-1c0,0,1,-1,1,-1c0,0,0,-1,0,-1c0,0,0,-1,0,-1l0,-1l-1,-1l1,-1l0,-1l0,1c0,0,1,0,1,1l0,1l0,1c0,1,0,1,0,2c0,0,0,1,-1,1c0,0,0,1,0,1c0,0,-1,1,-1,1l-1,0l0,1c-1,0,-1,0,-1,0c0,0,-1,0,-1,0l-1,0c0,0,-1,0,-1,0l-1,-1ZM244.5,519.5l4,-2l0,1l-1,0l-4,2ZM243.5,516.5c0,0,-1,0,-2,1c-1,0,-3,1,-4,1c-1,1,-2,1,-2,1c0,0,-1,0,-1,1l0,1l1,0l1,1c1,0,1,0,2,1c0,1,0,1,1,2c0,0,0,1,0,1c0,0,0,1,0,1c-1,1,-1,1,-1,1l-1,0c0,1,0,1,-1,1l-1,0l-1,0l0,-1c-1,0,-1,0,-1,0c0,-1,0,-1,0,-2l-1,-8l1,-2l0,4l0,-1l1,0l0,-1c1,0,2,-1,4,-1c1,-1,2,-1,4,-2c0,0,1,0,2,-1ZM235.5,527.5l1,0l1,0c1,0,1,0,1,-1c0,0,0,-1,0,-1c0,0,-1,-1,-2,-2c-1,0,-1,0,-1,0c-1,0,-1,0,-1,-1c0,0,-1,0,-1,0l1,3c0,1,0,1,0,1l0,1l1,0ZM236.5,513.5l5,-2c-1,0,-1,1,-1,1l-5,2ZM237.5,510.5l5,-3c0,1,0,2,0,2l-5,2ZM308.5,528.5c0,0,0,1,0,1l-1,0l0,-1c-1,0,-1,0,-1,0l-1,-1l0,1c-1,0,-1,0,-1,1l-1,0l-1,0c-1,0,-1,0,-1,0c0,0,-1,0,-1,0c0,-1,0,-1,-1,-1c0,0,0,-1,0,-1l0,-1c-1,0,-1,1,-1,1c-1,0,-1,0,-1,0l-1,0l0,1c0,1,0,1,0,1c-1,0,-1,1,-1,1c0,1,0,1,0,2c-1,0,-1,0,-1,0l0,1c-1,0,-1,0,-1,0l-1,0l0,1c-1,0,-1,0,-1,0l-1,0c0,-1,0,-1,-1,-1c0,0,-1,0,-1,0c0,0,0,-1,0,-1c0,1,0,1,1,1l1,0l1,-1c1,0,1,0,1,0c0,0,1,-1,1,-1c0,0,1,-1,1,-1c0,-1,0,-1,1,-2l-1,0l1,-3c0,0,1,0,1,0l1,0l1,0l1,-1c1,0,1,0,1,0l0,1c0,0,0,1,0,1c0,1,0,1,0,1l1,0c0,0,1,0,1,0l1,0c1,0,1,0,1,0l1,0l0,-1c1,-1,1,-1,1,-2c1,0,1,0,1,0c1,0,1,0,1,0c0,0,1,1,1,1l0,1l0,1l0,1c0,0,-1,0,-1,0ZM306.5,526.5l1,0l1,1c0,-1,0,-1,0,-1l-1,0c0,-1,0,-1,0,-1c-1,0,-1,0,-1,1ZM306.5,513.5c0,0,0,-1,0,-1c0,0,1,0,1,0c1,0,1,1,1,1l0,1l-1,0l0,1l1,0l0,1l-1,0l-1,0l0,1c-1,0,-1,0,-1,0l-1,0l-1,0l1,0l1,-1l1,0l0,-1c-1,0,-1,-1,-1,-1c0,0,0,-1,1,-1ZM307.5,513.5l-1,0l0,1l1,0l0,-1ZM298.5,523.5l-1,-1l1,-2l1,1ZM294.5,523.5l-2,-1l1,-1l2,1ZM292.5,519.5l4,-2l0,1l-4,2ZM287.5,527.5l-1,1c0,0,1,0,1,0ZM288.5,530.5c0,0,-1,0,-1,0c-1,0,-1,0,-1,0c-1,0,-1,0,-2,0c0,0,-1,0,-1,0c0,-1,0,-1,0,-1c0,0,0,-1,0,-1c0,1,0,1,0,1c0,0,1,0,1,0c0,-1,1,-1,1,-1c1,-1,1,-1,1,-1l0,-1l0,-1c-1,0,-1,0,-1,0c0,-1,-1,-1,-1,-2c-1,0,-1,-1,-2,-1c0,-1,0,-1,0,-1c-1,0,-1,-1,-1,-1c0,0,0,1,0,1c-1,0,-1,0,-1,0l0,-1c-1,0,-1,0,-1,-1c0,-1,0,-1,0,-1c0,0,0,-1,0,-1c1,0,1,0,2,1c0,0,1,1,1,1c1,1,1,2,2,2c0,1,1,1,2,2c0,1,0,1,0,1c1,1,1,1,1,1l0,-1c0,-1,0,-1,1,-2c0,-1,0,-1,0,-2l0,-1c0,0,0,-1,0,-1c0,-1,-1,-1,-1,-1c0,0,0,-1,1,-1c0,0,0,-1,0,-1l0,1c0,0,1,0,1,0c0,1,0,1,1,1c-1,0,-1,0,-1,1c0,1,0,1,0,1c0,0,0,1,0,2l0,1c0,0,-1,1,-1,1c0,1,0,1,0,2c0,0,0,1,-1,1c0,0,1,0,1,1c0,0,0,1,0,1l0,1c0,1,0,1,0,1ZM278.5,513.5l5,-2c0,0,0,1,0,1l-5,2ZM280.5,510.5l5,-3c0,1,0,2,0,2l-5,2ZM353.5,529.5l0,-1l0,-1l-1,-9l1,-2l1,11l-1,0c0,0,0,1,0,1c0,0,0,1,0,1ZM351.5,513.5l4,-2l0,1l-5,2ZM346.5,522.5l-1,-1l0,-1l2,1ZM346.5,529.5l-1,0l-1,0c0,0,-1,1,-1,1c0,1,0,1,0,2c-1,0,-1,1,-1,1l-1,1l-1,0l-1,0c0,1,0,1,-1,1c0,0,-1,-1,-2,-1c0,0,0,-1,0,-1c0,0,0,1,1,1c1,0,1,0,2,-1l1,0c0,0,0,-1,1,-1l0,-1c0,0,1,0,1,0c0,-1,0,-1,1,-2l0,-1l-1,0l0,-1c0,-1,0,-1,0,-1l1,0l0,1c0,0,1,0,1,0l1,0l1,0l1,0c1,0,1,0,1,0l0,-1l0,-1l-1,-1l1,-1c0,0,1,0,1,1c0,0,0,1,0,1c0,0,0,1,0,1c0,0,0,1,0,1c0,0,-1,1,-1,1c0,0,0,1,-1,1c0,0,-1,0,-1,0ZM342.5,524.5l-1,-1l1,-2l1,1ZM343.5,539.5l-5,2c1,0,1,-1,1,-1l4,-2ZM332.5,529.5c-1,0,-1,0,-1,0c-1,0,-1,0,-1,-1c0,0,-1,0,-1,0c0,0,0,-1,0,-1c-1,0,-1,0,-2,1c0,0,-1,0,-1,1l1,1c0,0,1,0,1,0c0,0,1,0,1,0c1,0,1,0,1,1c0,1,0,1,0,1l0,1c-1,0,-1,0,-1,0c-1,1,-2,1,-3,2c-1,0,-2,0,-4,0c-1,0,-1,0,-2,0c-1,0,-1,0,-1,-1c-1,0,-1,-1,-1,-1c-1,-1,-1,-1,-1,-2c0,-1,0,-1,1,-2c0,-1,0,-1,1,-2c0,1,0,1,0,2c0,0,-1,1,-1,1c0,0,0,1,0,1c1,0,1,1,2,2c0,0,1,0,2,0c1,0,1,0,1,0l1,0c1,0,1,0,1,0c1,0,1,0,1,0l1,0c1,-1,1,-1,1,-1c0,0,1,0,1,0c-1,0,-1,0,-2,0c-1,-1,-1,-1,-2,-1l0,-1c0,0,0,-1,0,-1l0,-1l1,0c0,-1,0,-1,1,-2c1,0,1,0,2,0c0,-1,0,-1,0,-1c1,0,1,1,1,1l0,1l1,0l1,0c0,0,1,0,1,0c0,0,1,0,1,0c1,0,1,-1,1,-1l0,-2l-1,-6c0,-1,0,-1,0,-1c0,0,0,-1,0,-1c0,0,1,-1,1,-1c0,1,0,1,0,1c0,0,1,1,1,1l0,1l-1,0l0,1c0,0,0,1,0,1c0,1,0,1,1,3c0,0,0,1,0,1l0,1c0,1,0,1,0,1c0,0,-1,1,-1,1c0,1,0,1,0,1c-1,0,-1,0,-1,1l-1,0c0,0,-1,0,-1,0ZM332.5,511.5c0,0,1,0,1,0c1,-1,1,-1,1,-1c1,0,1,0,2,1c0,1,0,1,0,1c0,1,-1,1,-1,1l-1,0l-1,0l-1,0l2,0c1,0,1,-1,2,-1c-1,0,-1,0,-1,0c0,0,-1,0,-1,0c0,0,-1,0,-1,0c0,0,-1,0,-1,0c0,0,0,-1,0,-1ZM328.5,524.5l-1,-1l1,-1l1,0m-1,2l-1,-1l1,-1l1,0m-1,2l-1,-1l1,-1l1,0ZM331.5,537.5l-4,2c0,-1,0,-1,0,-1l4,-2ZM376.5,532.5l1,0c1,0,2,0,3,-1c0,0,1,0,1,-1c1,0,1,-1,2,-1c0,0,0,-1,0,-1c0,0,0,-1,0,-1l0,-1l-1,0l0,-1l0,-1l1,-1l0,1l1,1l0,1l0,1c0,1,0,1,0,2c-1,0,-1,0,-1,0c0,0,0,1,0,1c0,0,0,1,0,1c-1,0,-1,1,-1,1c0,0,-1,0,-1,0l0,1l-1,0c-1,0,-1,0,-1,0l-1,0l-1,0c0,0,-1,0,-1,-1ZM219.5,516.5l0,1c0,0,1,0,1,0l0,-1l1,-1l0,1l1,0l0,-1l0,1l0,1l-1,0l-1,1c-1,0,-1,0,-1,0l0,-1l0,-1ZM223.5,513.5l-5,3c0,-1,0,-1,0,-2l6,-2ZM379.5,517.5l0,1c1,1,1,1,1,1l0,-1l1,-1l0,1l1,0l0,-1l0,-1l0,1l1,0l-1,1c0,1,0,1,0,1l-1,0l-1,0c0,1,0,1,0,1c-1,0,-1,0,-1,0c0,-1,0,-1,0,-1l0,-1ZM383.5,515.5l-5,2c0,0,0,-1,1,-1l5,-3ZM368.5,533.5l-1,-1l1,-1l1,1ZM376.5,527.5c-1,0,-1,1,-2,1c-1,0,-2,1,-3,1c-2,0,-3,1,-4,1c-1,0,-3,-1,-3,-1c-2,0,-2,0,-3,-1c0,0,0,-1,-1,-1c0,-1,0,-1,0,-1l0,-1l0,-1c1,0,1,-1,1,-1c0,0,1,0,1,0c0,0,-1,1,-1,1c0,0,0,1,0,1c0,0,0,1,0,1c1,0,1,1,2,1c0,0,1,0,1,0l1,1l1,0l2,0c1,0,1,0,2,-1l1,0l1,0l1,0c0,0,1,-1,1,-1c1,0,2,-1,2,-1l0,-1c-1,0,-1,0,-1,-1c0,-1,1,-1,1,-1l0,1c0,0,1,0,1,1l0,1l-1,1c0,0,0,1,0,1ZM366.5,519.5l0,1c1,0,1,0,1,0l1,-1l0,-1l0,1c0,0,1,0,1,0l0,-1l1,0c0,0,0,1,0,1l-1,1l0,1l-1,0c0,-1,0,-1,0,-1l0,1c-1,0,-1,0,-1,0c-1,0,-1,0,-1,0l0,-1l0,-1Z" class="g1_45" />
</svg>