<?xml version="1.0" encoding="UTF-8" standalone="no"?>
<!DOCTYPE svg PUBLIC "-//W3C//DTD SVG 1.1//EN"
"http://www.w3.org/Graphics/SVG/1.1/DTD/svg11.dtd">
<svg version="1.1" xmlns="http://www.w3.org/2000/svg" xmlns:xlink="http://www.w3.org/1999/xlink">
<defs>
<style type="text/css"><![CDATA[
.g1_44{
stroke: #1F1A17;
stroke-width: 1;
stroke-linecap: butt;
stroke-linejoin: miter;
}
]]></style>
</defs>
<path fill-rule="evenodd" d="M182.5,101.5c0,0,0,-1,1,-1l1,0c0,0,1,0,1,0c1,1,1,1,1,1c0,1,-1,1,-1,1c0,0,0,1,0,1c-1,0,-1,0,-1,0c-1,0,-1,0,-1,0l-1,0l1,0c1,-1,2,-1,2,-1c0,0,0,-1,-1,-1l-1,0l-1,1l-1,0c0,-1,0,-1,0,-1c0,0,1,0,1,0ZM100.5,49.5c0,0,-1,0,-1,0l-1,0l-1,0c0,0,-1,0,-1,0c-1,0,-1,0,-1,0c0,0,0,-1,-1,-1l0,-1c0,0,0,-1,1,-1c0,-1,0,-1,1,-2l-1,0c-1,0,-1,0,-1,1l0,-1c0,0,1,0,1,0l1,0l1,0l1,0c-1,0,-1,0,-2,1l-1,0c0,1,0,1,0,1c0,0,0,1,0,1l0,1c1,0,1,0,1,0l0,1l1,0l1,0ZM98.5,46.5l-1,1l0,-1l1,0ZM139.5,63.5c0,0,-1,0,-1,0l0,1l1,0c0,-1,0,-1,0,-1ZM139.5,71.5c0,0,-1,0,-1,0l-1,0c0,1,-1,1,-1,1l-1,0c0,0,-1,0,-1,-1c0,0,-1,0,-1,0c0,0,1,0,1,0c1,0,1,0,1,0c1,0,1,0,1,0l0,-1c1,0,1,0,1,0c1,0,1,0,1,-1c1,0,1,0,1,-1l1,-1c0,0,0,-1,0,-1c0,0,0,-1,0,-1l0,1l-1,0c-1,0,-1,0,-1,0l-1,0c0,-1,0,-1,0,-1c0,-1,0,-1,0,-1c0,0,0,-1,0,-1c0,0,1,-1,1,-1c0,0,0,-1,0,-1c1,0,1,0,1,0c0,0,1,0,1,0c0,0,0,1,0,1c1,0,1,1,1,1l0,1c0,0,0,1,0,1c0,0,0,1,0,1c0,1,0,2,-1,3l0,1c-1,0,-1,0,-1,1ZM136.5,57.5l4,-2l0,1l-4,2ZM132.5,67.5l0,-1l0,-1l-1,-9l1,-2l1,11c0,0,0,1,0,1c-1,0,-1,1,-1,1ZM124.5,65.5c1,0,1,0,1,0c1,0,1,0,1,0c0,0,1,0,1,0c0,0,0,-1,0,-1l0,-2l-1,-6c0,0,0,-1,0,-1c0,0,0,-1,0,-1c1,0,1,-1,1,-1l0,1c0,0,1,1,1,1l0,1l0,1l0,-1c0,0,-1,1,-1,1c0,0,1,1,1,2l0,2c0,1,0,1,0,1l0,1c0,1,0,1,0,1c0,0,0,1,0,1l-1,0c0,1,0,1,0,1c0,0,-1,0,-1,1l-1,0l-1,0l-1,0c-1,0,-1,0,-1,0l0,-1l-1,0l-1,0c0,0,-1,1,-1,1l-1,0l-1,0c0,0,-1,0,-1,0c0,0,-1,0,-1,-1l-1,0l0,-1l-1,0l-1,1l-1,0l-1,0l0,1l-1,0c1,0,1,1,1,1c0,0,1,0,2,0l1,0l0,1l0,1l0,1l-1,0c0,1,-1,1,-2,2c-2,0,-3,0,-4,0l-1,0c0,0,-1,0,-1,0c-1,0,-2,0,-2,-1c0,0,-1,-1,-1,-1c0,-1,0,-1,0,-2c0,-1,0,-1,0,-2c0,0,1,-1,1,-2l1,0c0,1,-1,1,-1,2c0,0,0,1,0,1c0,1,0,1,0,1c0,0,0,1,1,2c1,0,1,0,3,0c1,0,1,0,1,0l1,0l1,0c1,0,1,0,1,0c0,0,1,0,1,0c0,0,0,-1,0,-1c1,0,1,0,1,0c0,0,-1,0,-1,0c-1,-1,-2,-1,-2,-1c-1,0,-1,0,-1,-1l0,-1c1,0,1,0,1,0c0,-1,0,-1,0,-1l1,-1c0,0,1,0,1,0l1,-1l0,-1l-1,0l-1,0l1,-2c1,0,1,0,1,0c1,0,1,0,2,0c0,0,1,0,1,0l1,1l0,1c0,1,-1,1,-1,1c0,0,0,1,0,1l1,0l1,0l1,0c0,0,1,0,1,0c0,0,1,0,1,0l1,-1l1,0c0,1,0,1,0,1c1,0,1,0,1,0l1,0ZM178.5,51.5c1,-1,1,-1,1,-1c1,0,1,0,2,0c0,0,1,0,1,0c1,0,1,1,1,1c0,0,-1,1,-1,1l-1,1c-1,0,-1,0,-1,0l-1,0l1,-1c1,0,2,0,2,-1c0,0,-1,0,-1,0l-1,0c0,0,-1,0,-1,0l-1,1l0,-1ZM124.5,49.5c1,0,1,0,1,0c1,-1,1,-1,2,-1c0,0,1,1,1,1c0,0,1,0,1,0l0,1c-1,0,-1,0,-1,0c0,1,0,1,-1,1c-1,0,-1,0,-1,0l-1,0l1,0c1,0,1,-1,2,-1c0,0,-1,0,-1,0l-1,0c0,0,-1,0,-1,0l-1,0l0,-1ZM121.5,71.5l-1,-1l0,-2l2,1ZM119.5,54.5l4,-2l0,1l-1,0l-4,2ZM114.5,59.5l-2,-1l1,-1l2,1ZM110.5,49.5l1,0c0,-1,1,-1,1,-1c1,0,1,1,1,1c1,0,1,0,1,0l0,1l-1,0c0,1,0,1,0,1l-1,0c0,0,-1,0,-1,0l-1,0l2,0c0,0,1,-1,1,-1l-1,0c-1,0,-1,0,-2,0l0,-1ZM110.5,75.5l-5,2c1,0,1,-1,1,-1l4,-2ZM212.5,63.5c-1,0,-1,0,-1,1c1,0,1,0,1,0c1,0,1,0,1,0c0,-1,0,-1,0,-1c-1,0,-1,0,-1,0ZM212.5,71.5l-1,0c-1,1,-1,1,-2,1c-1,0,-1,0,-2,-1l-1,0c1,0,1,0,1,0c0,0,1,0,1,0l1,0c0,0,1,0,1,-1l1,0l1,-1l0,-1c0,0,1,0,1,-1c0,0,1,-1,1,-1c0,0,-1,0,-1,0c0,0,0,-1,0,-1l0,1c-1,0,-1,0,-1,0c-1,0,-1,0,-1,0c0,-1,0,-1,-1,-1c0,-1,0,-1,0,-1c0,0,0,-1,1,-1c0,0,0,-1,0,-1c0,0,0,-1,1,-1c1,0,1,0,1,0c0,0,1,1,1,1c0,0,0,1,0,1l0,1c0,0,0,1,0,1c0,0,0,1,0,1c0,1,0,2,0,3c-1,0,-1,0,-1,1c0,0,-1,0,-1,1ZM209.5,57.5l4,-2l0,1l-4,2ZM205.5,67.5l0,-1l0,-1l0,-9l1,-2l0,11c0,0,0,1,0,1c0,0,0,1,-1,1ZM198.5,65.5l1,0c1,0,1,0,1,0c0,0,0,-1,0,-1l0,-2l0,-6c0,0,0,-1,0,-1c-1,0,-1,0,-1,0c0,0,1,-1,1,-1c0,0,0,-1,0,-1l0,1l1,0c0,0,0,1,1,1c-1,0,-1,0,-1,1l0,1l0,-1c0,0,0,1,0,1c0,0,0,1,0,2l0,2c0,1,0,1,0,1l0,1c0,1,0,1,0,1c0,0,0,1,0,1c0,1,0,1,-1,1l0,1c-1,0,-1,0,-1,0c-1,0,-1,0,-1,0l-1,0c-1,0,-1,0,-2,-1l-1,0c0,1,0,1,-1,1c0,0,-1,0,-1,0l-1,0l-1,-1l-1,0c-1,1,-1,1,-1,1l-1,0l-1,0c0,0,-1,0,-1,0c0,0,-1,0,-1,-1l0,-1c0,1,-1,1,-1,2c-1,0,-1,0,-2,0l-1,0c-1,0,-1,0,-1,0c0,0,-1,0,-1,0c0,-1,-1,-1,-1,-1l0,-1c0,0,-1,0,-1,0c-1,0,-2,1,-2,1c-1,0,-2,0,-2,0c-1,0,-2,0,-3,0c-1,0,-2,0,-3,1c-1,0,-2,0,-3,0c0,0,-1,0,-2,0c-1,0,-2,0,-3,0c-1,0,-2,0,-2,0l-1,0c-1,0,-1,0,-1,0c0,0,0,1,0,1c0,1,0,1,-1,2c0,0,0,1,0,1c-1,0,-1,0,-1,1c0,0,-1,0,-1,0c0,0,-1,0,-1,1c0,0,-1,0,-1,0c-1,0,-1,-1,-2,-1c0,0,-1,0,-1,0c0,0,0,-1,0,-1c0,1,1,1,1,1l1,0c0,0,1,0,1,-1c1,0,1,0,1,0c1,0,1,-1,1,-1c0,0,1,0,1,-1c1,-1,1,-1,1,-2l0,-1c0,0,-1,0,-1,-1l1,0c0,-1,0,-1,0,-1c0,0,0,1,0,1l1,0l1,0c1,0,2,0,3,0c0,0,1,0,2,0c1,0,2,0,2,0c1,0,2,0,3,0c0,0,1,0,2,0c1,0,2,0,3,-1c0,0,1,0,2,0c2,0,3,0,3,0c1,0,2,0,3,0c0,-1,0,-1,0,-1c0,-1,0,-1,-1,-1c-1,0,-1,0,-1,0c-1,0,-3,0,-5,0c-2,0,-4,1,-6,1c-2,0,-3,0,-4,0c-2,0,-3,0,-4,0l0,-1c0,0,0,-1,0,-1c1,-1,1,-1,1,-1c0,0,0,-1,1,-1c1,-1,2,-2,2,-3c1,0,2,-1,3,-1c0,0,1,0,1,0l0,-1l-1,2c0,0,0,1,-1,1c-1,0,-1,1,-2,1c-1,1,-2,2,-3,3c1,0,1,0,2,0c0,1,1,1,1,1c1,0,3,-1,5,-1c2,0,4,0,6,0c2,-1,3,-1,4,-1c1,0,2,1,2,1c1,0,1,0,1,0c0,1,0,1,0,1l0,1c0,0,0,1,0,1c0,1,0,1,-1,1l1,0l1,0l1,0c0,0,1,0,1,0c0,0,1,0,1,0l0,-1c1,0,1,0,1,-1l0,1c0,1,0,1,1,1c0,0,1,0,1,0l1,0l1,0l1,0c0,0,0,-1,1,-1c1,-2,2,-2,2,-2l1,1l1,1l1,1l1,0l1,0l1,0ZM198.5,49.5l1,0c0,-1,1,-1,1,-1c1,0,1,1,1,1c1,0,1,0,1,0l0,1l-1,0c0,1,0,1,0,1c0,0,-1,0,-1,0c0,0,-1,0,-1,0l-1,0l2,0c0,0,1,-1,1,-1l-1,0c-1,0,-1,0,-2,0l0,-1ZM194.5,65.5l-1,-1c0,0,-1,0,-1,-1l0,1l-1,0c0,0,0,1,1,1l1,0ZM191.5,51.5c0,0,1,0,1,-1l1,0c0,0,0,1,0,1l0,1c0,0,0,1,0,1l1,0l-1,1l-1,0l-1,1l-1,0l0,1l-1,0c0,0,0,-1,0,-1l1,0c0,-1,1,-1,1,-1l1,-1l-1,0c0,0,0,-1,0,-1c0,0,0,-1,0,-1ZM192.5,51.5c0,0,0,1,0,1ZM183.5,62.5l-1,-1l0,-1l2,1ZM158.5,51.5l4,-3l0,1l0,1l-4,2ZM153.5,77.5l-4,2c0,0,0,-1,0,-1l5,-2ZM280.5,67.5l0,-1l0,-1l-1,-9l1,-2l1,11c0,0,0,1,-1,1c0,0,0,1,0,1ZM272.5,65.5c0,0,1,0,1,0c0,0,1,0,1,0l1,0c0,0,0,-1,0,-1l0,-2l-1,-6c0,0,0,-1,0,-1c0,0,0,-1,0,-1c0,0,1,-1,1,-1l0,1c0,0,1,1,1,1l0,1l-1,1l0,-1c0,0,0,1,0,1c0,0,0,1,0,2l1,2c0,1,0,1,0,1l0,1c0,1,0,1,0,1c0,0,0,1,0,1c-1,0,-1,0,-1,0c0,1,0,1,0,1c-1,0,-1,0,-1,1l-1,0l-1,0l-1,0l-1,0c-1,0,-1,0,-2,0c0,0,-1,-1,-1,-1c0,0,-1,1,-2,1c0,0,-1,0,-2,0l-2,0c-1,0,-2,0,-3,-1l0,-1l0,-1l-1,0c0,0,-1,0,-1,0l-4,2c-1,0,-1,0,-1,1c-1,0,-1,0,-2,0l-1,0l-1,0l0,-1l-1,0c0,-1,0,-1,0,-1c-1,1,-1,1,-1,1c-1,0,-1,1,-1,1c-1,0,-2,-1,-2,-2l0,1c-1,1,-1,1,-2,1c-1,0,-1,-1,-2,-2c0,1,0,1,0,1c-1,1,-1,1,-2,1l-1,0l-1,0c-1,0,-1,0,-2,-1c0,0,-1,-1,-1,-2l0,-8l1,-2l0,9l0,1l1,0l0,1l1,0l1,0l1,0l1,0c1,0,1,-1,2,-2l0,1c0,1,1,1,1,1c1,0,1,0,2,0c0,0,0,-1,0,-1l1,-1c0,1,0,1,0,1c0,1,1,1,1,1c0,0,1,0,1,0c0,-1,0,-1,0,-1c1,0,1,0,1,-1c0,2,1,2,2,2l1,0c1,0,1,0,1,0c0,0,1,0,1,0c0,0,1,0,2,-1l1,0l1,0l-1,-1l-1,0c-1,0,-2,-1,-2,-1c-1,0,-1,1,-1,1l-1,0l0,-1c1,0,1,-1,1,-1c1,0,1,0,2,0l1,0l1,0c1,1,2,1,3,1c1,1,1,1,2,1c0,0,1,0,2,0l-1,1l-1,0c0,1,0,1,0,1c1,0,1,0,1,0l1,0l1,0l1,0c1,0,1,0,1,0l1,0l1,0c0,0,-1,0,-1,-1c0,-1,0,-1,1,-2c0,0,0,-1,0,-1c0,0,1,0,1,-1c0,0,1,0,1,0c1,0,1,0,2,0c0,1,0,1,0,2l0,1l0,1c-1,1,-1,1,-1,1l1,0c1,0,1,0,1,0ZM272.5,49.5c0,0,1,0,1,0c1,-1,1,-1,2,-1c0,0,1,1,1,1c0,0,1,0,1,0l-1,1c0,1,-1,1,-1,1l-1,0l-1,0l-1,0l2,0c1,0,1,-1,2,-1c-1,0,-1,0,-1,0c0,0,-1,0,-1,0c0,0,-1,0,-1,0c0,0,-1,0,-1,0l0,-1ZM268.5,59.5l-2,-1l1,-2l2,1ZM268.5,62.5c0,0,-1,0,-1,0c0,0,-1,0,-1,1c1,1,1,1,1,1c1,0,1,0,2,0c0,0,0,-1,0,-1c0,0,0,-1,0,-1c-1,0,-1,0,-1,0ZM266.5,51.5l4,-3l0,1l0,1l-4,2ZM252.5,56.5c0,0,1,0,1,0c0,0,1,0,1,0c1,0,1,0,2,0c0,0,0,1,0,1l0,1c-1,0,-1,0,-1,0c-1,0,-1,0,-1,0l-1,0c0,0,-1,0,-1,0l2,0c1,0,1,-1,1,-1c-1,0,-1,0,-1,0c-1,0,-1,0,-1,0c-1,0,-1,0,-1,0l0,-1ZM241.5,59.5l-1,-1l0,-2l2,1ZM243.5,61.5l-2,-1l-1,2l-1,-1l1,-2l1,1l1,-1l2,1ZM236.5,54.5l5,-2l-1,1l-4,2ZM229.5,51.5c1,0,1,0,2,0c1,0,1,0,1,0l1,0l1,0c0,1,-1,1,-1,1l-1,0l-1,0l-1,0l-1,0c-1,0,-1,0,-1,0c0,-1,0,-1,1,-1ZM223.5,65.5c0,-1,0,-1,1,-1c0,-1,0,-1,0,-1c1,0,1,0,1,0l1,-1l0,1c0,0,1,0,1,0l-1,1l0,1l0,-1l-1,0c0,0,-1,0,-1,1c0,0,1,0,1,0l1,1c1,0,1,0,1,-1c0,1,0,1,0,1l-5,2c1,0,1,0,1,0l0,-1c1,0,1,0,1,0c0,0,-1,-1,-1,-1c0,0,0,-1,0,-1ZM226.5,70.5l-4,2c1,0,1,-1,1,-1l4,-2ZM309.5,64.5c-1,0,-1,0,-2,1c-1,1,-2,1,-4,1c-1,1,-2,1,-3,1l-2,0c0,1,0,1,0,1c0,1,0,1,0,1c0,1,0,1,0,2c0,0,-1,1,-1,1c-1,1,-2,1,-2,1c-1,1,-2,1,-3,1c0,0,-1,0,-1,0c-1,-1,-2,-1,-2,-1c0,0,-1,-1,-1,-1c0,-1,0,-1,0,-2c0,0,0,-1,0,-1l0,-1l0,-1l1,0c0,-1,0,-1,0,-1l1,0c-1,1,-1,1,-1,1c0,1,0,1,0,1c0,1,0,1,0,1c0,1,0,1,0,1c0,1,0,1,1,1c0,1,0,1,0,1c1,0,2,0,3,0c1,0,1,0,2,0c1,-1,2,-1,2,-1c0,-1,0,-1,0,-1l0,-1l0,-1l0,-1l-1,-1l1,-2c0,0,0,1,0,1c1,0,1,0,2,0l1,0l1,0c1,0,1,0,2,0c-1,-1,-1,-1,-1,-1c0,-1,0,-1,0,-2c0,-1,0,-1,0,-1l0,-1c1,0,1,0,1,0c0,0,0,-1,0,-1c1,0,1,0,1,0c1,0,1,0,1,0l1,0c1,0,1,0,1,0l1,1l-1,0l-1,0l-1,0l-1,0c-1,1,-1,1,-1,1c0,0,0,1,0,1l1,1c0,0,1,1,1,1c1,0,1,0,1,0l1,0c0,-1,0,-1,0,-1l1,0l1,0l1,-1ZM301.5,54.5l4,-2l0,1l-5,2ZM293.5,65.5l-1,-1l1,-2l1,1ZM296.5,77.5l-4,2c0,0,0,-1,0,-1l4,-2ZM357.5,63.5l0,1l1,0c0,-1,0,-1,0,-1l-1,0ZM357.5,71.5c0,0,-1,0,-1,0c0,1,-1,1,-1,1l-1,0c0,0,-1,0,-1,-1c-1,0,-1,0,-1,0l1,0c1,0,1,0,1,0c0,0,1,0,1,0l0,-1c0,0,1,0,1,0c0,0,1,0,1,-1c0,0,1,0,1,-1l0,-1c1,0,1,-1,1,-1c0,0,0,-1,0,-1l0,1l-1,0l-1,0c-1,0,-1,0,-1,0c0,-1,0,-1,0,-1c0,-1,0,-1,0,-1c0,0,0,-1,0,-1c0,0,0,-1,0,-1c1,0,1,-1,1,-1c0,0,1,0,1,0l1,0c0,0,0,1,0,1c0,0,0,1,0,1c1,0,1,0,1,1c0,0,0,1,0,1c0,0,0,1,0,1c0,1,-1,2,-1,3l-1,1l-1,1ZM355.5,57.5l4,-2l0,1c-1,0,-1,0,-1,0l-4,2ZM352.5,70.5l-2,-1l-1,1l-1,0l1,-2l1,1l1,-1l2,1ZM349.5,67.5l-1,0l-1,0c0,0,-1,0,-1,0l-1,0c0,0,0,-1,0,-1c0,0,-1,0,-1,0c-1,0,-1,1,-2,1l-1,0l-5,0l-1,-1l0,-1c0,-1,0,-1,0,-1c0,0,-1,0,-1,0c0,1,0,1,-1,1c0,0,0,1,0,1c-1,0,-1,0,-2,0c0,1,0,1,-1,1l-1,0c-1,0,-1,0,-1,0c0,0,-1,0,-1,0c0,1,1,1,1,1c1,0,1,0,2,0l0,1c1,0,1,0,1,0l0,1c0,0,0,1,0,1c0,0,-1,0,-1,1c-1,0,-2,1,-3,1c-1,0,-2,1,-4,1c0,0,-1,0,-2,-1c0,0,-1,0,-1,-1c-1,0,-1,0,-1,-1c0,0,-1,-1,-1,-2c0,0,1,-1,1,-2c0,0,1,-1,1,-1c0,-1,0,-1,0,-1l0,1c0,0,1,0,1,0c-1,0,-1,1,-1,1c0,1,0,1,0,2c0,1,0,1,1,2c0,0,1,1,2,1c0,0,1,0,1,0c0,0,1,0,1,0c1,0,1,0,1,0c1,-1,1,-1,1,-1c0,0,1,0,1,0l1,0c1,-1,1,-1,1,-1c0,0,-1,0,-1,0c-1,0,-1,0,-1,0c-1,0,-1,-1,-1,-1l-1,0c0,0,0,-1,0,-1c0,0,0,-1,0,-1c0,0,1,0,1,0c0,-1,0,-1,1,-1l1,-1c0,0,1,0,1,0c1,0,2,-1,2,-1l1,0c0,0,0,-1,0,-1c-1,0,-1,-1,-1,-1l0,-1l0,-1c0,0,1,0,1,-1c0,-1,0,-1,0,-1c0,-1,0,-1,1,-1c0,0,1,0,1,0l1,0c0,0,0,1,1,1l0,1c1,0,1,0,1,1c0,0,1,0,1,1c0,1,0,1,0,1c0,0,0,1,0,1l0,1c-1,0,-1,0,-1,0c0,0,-1,0,-1,0l-1,0l0,1c1,0,1,0,1,0l4,0c0,0,1,0,1,0c1,0,1,0,2,0c0,0,0,-1,0,-1c1,0,1,0,1,0l0,1c1,0,1,0,1,0c0,0,1,0,1,0l1,0l1,0c0,0,1,0,1,0c1,0,1,0,1,0l1,0c0,-1,0,-1,0,-1c-1,0,-1,0,-1,-1l0,-1l0,-1c1,0,1,0,1,0l0,1c0,0,0,1,0,1c0,0,0,1,0,1c0,0,0,1,0,1c0,0,0,1,0,1c-1,0,-1,1,-2,1c0,0,-1,0,-1,0ZM349.5,54.5l4,-2l0,1l-5,2ZM344.5,63.5l-1,-1l0,-2l2,1ZM341.5,53.5c0,-1,1,-1,1,-1c0,0,1,0,1,0c1,0,1,0,2,0c0,0,0,1,0,1c0,0,0,1,0,1c-1,0,-1,0,-1,1c0,0,-1,0,-1,0l-1,0c0,0,-1,0,-1,0l2,-1c1,0,1,0,1,-1c-1,0,-1,0,-1,0c-1,0,-1,0,-1,0c-1,0,-1,1,-1,1l0,-1ZM334.5,60.5c-1,0,-1,0,-1,0c0,1,0,1,0,1c1,1,1,1,1,1c1,0,1,-1,1,-1c0,-1,0,-1,0,-1c0,0,-1,0,-1,0ZM336.5,60.5c0,1,0,1,0,1c0,1,0,1,0,1l2,1c0,0,0,-1,0,-1c0,0,0,-1,-1,-1c-1,-1,-1,-1,-1,-1ZM333.5,51.5c0,1,0,2,-1,2l0,-1c0,-1,0,-1,0,-1l0,-1l0,-1l-1,0c0,0,1,0,1,-1l0,1l1,1l0,1ZM143.5,113.5c0,0,0,1,-1,2l0,1c-1,0,-1,0,-1,1l1,0l0,1l-1,0l-1,1c0,0,-1,1,-2,1l-1,0l0,1l-1,0l-1,0l0,1l-1,1l-2,0l-3,0c0,0,-1,0,-1,-1l-1,-1c-1,0,-2,-1,-3,-1l-1,0l0,-1l-1,0l0,-1l-1,0l0,-1l-1,0l1,0l0,-1l-1,-1l0,-1c0,0,0,-1,0,-1l0,-1l0,-1c0,0,0,-1,0,-1c1,-1,1,-1,1,-1l0,-1l-1,0l1,-1l1,0l0,-1l1,0l1,-1l1,0l2,-1l1,-1c0,-1,1,-1,1,-1l3,0l2,0l0,1l1,0l0,1l1,0l2,1l1,0c0,0,0,1,0,1l1,0l1,1c0,0,1,0,1,1l-1,0l0,1l1,0l0,1l0,1l1,0l0,1ZM134.5,123.5l0,-1l1,0l0,-1l1,0c0,-1,1,-1,1,-1l1,0c1,0,1,-1,2,-1l0,-1c0,0,1,0,1,0l1,-1l-1,0l0,-1l1,0l0,-1l0,-1l0,-1c0,-1,0,-2,0,-3l0,-1c0,0,-1,0,-1,0l0,-1l1,0c0,0,-1,-1,-1,-1l-1,0l0,-1l-1,0l-2,-1l-1,-1c0,0,-1,0,-1,0l-1,-1c0,-1,0,-1,0,-1l-2,0l-1,0l-2,0l0,1l-1,0l-1,1l-2,1l-1,1l-1,0l-1,1c0,0,-1,0,-1,1l1,0l-1,1l0,1l-1,1l0,1l0,1l0,1l0,1l1,0l0,1l1,1l-1,0l0,1l1,0l0,1l1,0l1,1l1,0l2,1l1,0l0,1c1,0,1,1,1,1l3,0ZM139.5,108.5l-1,0l0,-1l-1,0c0,0,-1,0,-1,0c0,-1,0,-1,0,-1l1,0c1,0,1,0,1,0c0,0,0,1,0,1c0,0,1,0,1,0ZM139.5,117.5l0,1l-1,0l0,1l-1,0l-1,0c0,0,1,0,1,-1l1,0c0,0,0,-1,1,-1ZM135.5,120.5c-1,1,-1,1,-1,1l-2,0l-3,0c0,0,-1,0,-1,-1c0,-1,0,-1,0,-1c0,0,0,-1,1,-1l3,0l2,0l1,1ZM135.5,106.5c-1,1,-1,1,-1,1l-2,0l-3,0c-1,0,-1,0,-1,-1c0,-1,0,-1,0,-1l0,-1l1,0l3,0l2,0l1,1ZM134.5,108.5c1,0,1,0,1,0c1,0,1,0,2,0l0,1l1,0l1,0l1,0l0,1l0,1l0,1l0,1c0,1,0,1,0,1l0,1l0,1c-1,0,-1,0,-1,0l-1,0l-1,1l-1,0l-1,0l-1,0l-2,0l-3,0l-1,0l-1,0c0,0,-1,0,-1,0c0,0,-1,0,-1,-1l-2,0l-1,-2l0,-1c0,-1,0,-1,0,-1c0,-1,0,-1,0,-1l1,-1l0,-1l2,0l1,-1c0,0,1,0,1,0c1,0,1,0,1,0l1,0l3,0ZM134.5,117.5c1,0,1,0,1,0l1,0l1,0l0,-1l1,0l1,0l0,-1l1,0l0,-1l0,-1c0,-1,0,-2,0,-2c0,-1,0,-1,-1,-1c0,-1,0,-1,0,-1l-1,1c0,0,0,-1,0,-1l-1,0l0,-1l-1,0l-1,0l-1,0l0,1l-2,0l-3,0l0,-1l-1,0l-1,0c-1,0,-1,0,-1,0l0,1l-1,0c0,0,0,1,0,1l-1,-1c-1,0,-1,0,-1,1l0,1l-1,1l0,1l0,1l1,0l0,1c0,0,0,1,1,1l1,0l1,1l1,0c1,0,1,0,1,0c0,0,1,0,1,0l0,-1l3,0l2,0ZM133.5,115.5l-1,-1l1,-1l0,1ZM130.5,111.5l1,0l0,1l0,1l0,1l0,1c0,0,0,-1,-1,-3c0,1,0,1,0,1c-1,0,-1,0,-1,-1l0,-1c1,0,1,0,1,0ZM130.5,111.5l0,1c-1,0,-1,0,-1,0l1,0c0,-1,0,-1,0,-1ZM123.5,108.5l0,-1l1,0l1,-1l1,0l1,0l-1,0c0,0,1,0,1,1c-1,0,-1,0,-1,0l-1,0l-1,1l-1,0ZM123.5,117.5l1,0c0,0,0,1,1,1l1,0l0,1l1,0c-1,0,-1,0,-1,0l1,0l-1,0c-1,0,-2,0,-2,-1l-1,0ZM218.5,107.5l-2,-1l-1,1l-1,-1l1,-1l1,1l1,-2l1,1ZM215.5,115.5l-1,0l-2,0c0,0,-1,0,-1,0l0,-1c0,-1,-1,-1,-1,-1l0,1l-1,0c0,1,-1,1,-1,1c0,0,-1,0,-2,0l-1,0l-1,-1l0,-1c0,-1,0,-1,0,-1l1,0l0,1l1,0l1,0c0,0,1,0,1,0l1,0l1,-1c0,0,0,-1,0,-1l0,-2l-1,-1l1,-1l0,-1l1,1c0,1,0,1,0,2l0,2c0,1,0,1,0,1l1,0c0,1,0,1,0,1c1,0,1,0,1,0l1,0l1,0c1,0,1,0,2,0c0,0,1,0,1,0l0,-1c0,-1,0,-1,0,-1l-1,0l0,-1l1,-1l0,1l1,0l0,1l0,1c0,1,0,1,0,1l-1,0c0,1,0,1,0,1c0,0,-1,1,-1,1c-1,0,-1,0,-2,0ZM215.5,99.5l5,-2l-1,0c0,1,0,1,0,1l-4,2ZM209.5,104.5l-2,-1l1,-2l2,1ZM206.5,99.5l4,-2c0,0,0,1,-1,1l-4,2ZM203.5,102.5c0,0,-1,0,-2,1c-2,0,-3,1,-4,1c-2,1,-2,1,-3,2c0,0,0,1,0,1l2,1c0,0,1,1,2,1c0,1,0,1,0,2c0,0,1,1,1,1c0,1,-1,1,-1,1c0,1,0,1,0,1c-1,0,-1,1,-1,1c0,0,-1,0,-1,0l-1,0l-1,0c0,1,-1,1,-1,1c0,1,0,2,0,2c0,0,-1,1,-1,1l-1,1l-1,0c0,1,0,1,-1,1l-1,0c0,0,-1,0,-2,-1l1,0c1,0,1,0,2,0c0,-1,0,-1,1,-1l1,-1c1,-1,1,-1,1,-1c0,-1,0,-1,1,-2l-1,-1l0,-1c0,0,0,-1,0,-1l1,0c0,1,0,1,0,1c0,0,1,0,1,0l1,0c1,0,1,0,1,0c1,0,1,0,1,0c0,0,1,0,1,0c0,-1,0,-1,0,-1l0,-1c-1,0,-1,-1,-2,-1c0,-1,0,-1,-1,-1c-1,0,-1,0,-1,0l0,-1c-1,0,-1,0,-1,0c0,0,0,-1,0,-1l0,-1c0,-1,0,-1,0,-1l1,0c0,0,0,-1,0,-1c1,0,2,0,3,-1c2,-1,3,-1,4,-2c1,0,2,0,2,0ZM196.5,97.5l0,1l1,0l0,-1l0,-1l1,0l0,1c0,0,0,1,0,1c1,0,1,-1,1,-1l0,-1l0,1l0,1l0,1l-1,0l0,-1l-1,1l-1,0l0,-1l0,-1ZM200.5,94.5l-5,3c0,-1,0,-1,0,-1l6,-3ZM191.5,99.5l1,-1l1,0c0,0,0,1,0,1c0,0,0,1,0,1c0,0,0,1,0,1l0,1l-1,0l-1,1l-1,0l0,1l-1,0l0,-1l1,0c0,0,0,-1,1,-1l1,-1l-1,0l0,-1l0,-1ZM192.5,99.5c0,0,-1,0,-1,0c0,1,0,1,1,1ZM184.5,111.5c0,0,0,1,0,1c0,0,1,0,1,0c0,0,0,-1,0,-1c0,0,-1,0,-1,0ZM184.5,119.5c-1,0,-1,1,-1,1c0,0,-1,0,-2,0c0,0,-1,0,-2,-1l1,0c0,0,1,0,1,0l1,0c0,-1,1,-1,1,-1c0,0,1,0,1,-1l1,0c0,-1,0,-1,0,-2c1,0,1,-1,1,-1l0,-1c0,1,0,1,0,1c-1,0,-1,0,-1,0c0,0,-1,0,-1,0l-1,0c0,0,0,-1,0,-1c0,0,0,-1,0,-1l0,-1l0,-1c1,0,1,0,1,-1l1,0c1,0,1,1,1,1c0,0,0,1,0,1c0,0,0,1,1,1c0,0,0,1,0,1c0,1,0,1,0,1c-1,1,-1,2,-1,3c0,0,-1,1,-1,1c0,0,0,1,-1,1ZM166.5,113.5l-2,-1l1,-1l2,1ZM179.5,115.5l-1,1l0,1c-1,0,-1,0,-1,0c-1,1,-1,1,-2,1c0,0,-1,0,-1,1c-1,0,-2,0,-3,0c-1,0,-2,1,-3,1c-1,0,-1,0,-2,0c-1,0,-1,0,-2,0c-1,0,-1,0,-2,0c-1,0,-1,0,-2,0c-1,0,-2,-1,-2,-1c-1,0,-2,0,-3,-1c-1,0,-2,0,-3,-1c-1,-1,-2,-1,-3,-2c0,-1,0,-1,0,-1c1,0,1,1,1,1c0,0,1,0,1,0c1,1,2,1,2,1c1,0,2,1,2,1c0,0,1,0,2,0c0,0,1,1,1,1c1,0,2,0,3,0c0,0,1,0,1,0c1,0,2,0,2,0c1,0,1,0,2,0c1,0,1,0,2,0c1,0,2,0,2,0c2,0,3,-1,3,-1c1,0,2,0,3,-1c1,0,2,-1,2,-2l0,-1c0,-1,-1,-1,-1,-1c0,0,0,-1,0,-1l0,-2l1,2c0,0,1,0,1,0l0,1c0,1,0,1,0,1l0,1c0,1,0,1,0,1ZM157.5,106.5l0,-1l3,-1l6,-2l4,-1l1,0l-1,1l-1,0l-1,1l-2,0l-6,2l-3,2l-1,0ZM275.5,113.5c1,0,1,0,2,0c1,0,1,0,1,0c0,0,0,-1,0,-1l0,-2l0,-6l-1,-1c0,0,0,-1,1,-1c0,0,0,-1,0,-1l0,1l1,0c0,1,0,1,1,1c-1,0,-1,1,-1,1l0,1c0,0,0,1,0,2c0,0,0,1,0,2c0,1,0,1,0,2l0,1c0,1,0,1,0,1c0,1,-1,1,-1,1c0,1,0,1,0,1c-1,0,-1,0,-1,0c-1,0,-1,0,-1,0l-1,0c0,0,-1,0,-1,0c0,0,-1,0,-1,0c0,-1,-1,-1,-1,-1l0,-1c-1,1,-1,1,-1,1l-1,0l0,1c-1,0,-1,0,-1,0l-1,0l-1,0c0,0,-1,0,-1,0c-1,0,-1,-1,-1,-2c0,1,-1,1,-1,2c0,0,-1,0,-1,0l-1,0c-1,0,-1,0,-1,0c0,0,-1,0,-1,0c-1,0,-1,-1,-1,-1c0,-1,0,-1,0,-1c0,0,-1,0,-2,1c0,0,-1,0,-1,0c-1,0,-2,0,-2,0c-1,0,-2,0,-3,0c-1,0,-2,1,-3,1c-1,0,-2,0,-3,0c-1,0,-1,0,-2,0c-1,0,-2,0,-3,0c-1,0,-2,0,-2,0l-1,0l-3,0c0,0,-1,0,-1,0l-1,-1l0,1l1,0l0,1l-1,0l0,1c-1,0,-1,0,-1,-1c-1,0,-1,-1,-1,-1l0,-1c-1,0,-1,0,-1,0l-1,0c0,1,0,1,0,1l-1,0l0,1l0,1l1,1l0,2l0,2c0,1,0,1,0,1l0,1l0,1l0,-1l0,-1l0,-1l-1,-3l0,-1l0,-1l0,-1l0,-1c0,-1,0,-1,1,-2l1,-1l1,0l1,-1c0,1,1,1,2,2l1,0l2,0l1,0c1,0,2,0,2,0c1,0,2,0,3,0c1,0,2,0,2,0c1,0,2,0,3,0c0,0,1,0,2,0c1,0,2,0,2,0c1,-1,2,-1,3,-1c2,0,3,0,3,0c1,0,2,0,3,0c0,-1,0,-1,0,-1c0,0,0,-1,-1,-1c-1,0,-1,0,-1,0c-1,0,-3,0,-5,0c-2,1,-4,1,-6,1c-2,0,-3,0,-4,0c-2,0,-3,0,-4,0c0,-1,0,-1,0,-1c0,0,0,-1,0,-1c1,-1,1,-1,1,-1c0,0,0,-1,1,-1c1,-1,1,-2,2,-2c1,-1,2,-2,3,-2l1,0l-1,1c0,0,0,1,-1,1c-1,0,-2,1,-2,1c-1,1,-2,2,-3,3c1,1,1,1,2,1c0,0,1,0,1,0c1,0,3,0,5,-1c2,0,4,0,6,0c2,0,3,-1,4,-1c1,0,1,1,2,1c1,0,1,0,1,1l0,1c0,0,0,1,0,1c0,1,-1,1,-1,1l1,0l1,0l1,0c1,0,1,0,1,-1c0,0,1,0,1,0l0,-1c0,-1,0,-1,-1,-1l0,-7l1,-2l1,11l0,1c1,0,1,0,1,0l1,0c0,0,1,0,1,0l1,0l1,-1l-1,0c0,0,-1,0,-1,-1c0,0,-1,0,-1,0l1,-1c0,-1,1,-1,1,-1c1,0,1,0,1,0l1,0l1,0c0,0,0,1,0,1c0,0,1,0,1,0l0,1l-1,0c0,1,0,1,0,1l0,1l1,0l1,0ZM276.5,99.5l5,-2l-1,0c0,1,0,1,0,1l-4,2ZM271.5,102.5l4,-2l-1,1l-4,2ZM262.5,98.5l0,1l1,0c0,0,0,-1,0,-1l0,-1l1,0l0,1c1,0,1,0,1,-1l0,-1l0,1l0,1c0,1,0,1,0,1l-1,0l-1,0c0,1,0,1,-1,1c0,-1,0,-1,0,-1l0,-1ZM266.5,95.5l-5,3c0,-1,0,-2,0,-2l6,-3ZM242.5,96.5c0,0,0,-1,0,-1c1,0,1,0,1,0c1,0,1,0,1,1l0,1c0,0,-1,0,-1,0l1,1l0,1l-1,-1l-1,1c0,1,-1,1,-1,1l-1,0c0,0,-1,0,-1,0l1,0l1,-1l1,0l0,-1c-1,-1,-1,-1,-1,-1c0,-1,0,-1,1,-1ZM243.5,96.5l-1,0l0,1l1,0l0,-1ZM227.5,104.5c1,0,1,0,2,0c0,0,1,0,1,0c1,0,1,0,1,1c0,0,-1,0,-1,1l-1,0c0,0,0,1,0,1c-1,0,-1,0,-1,0l-1,0l1,-1c1,0,2,0,2,-1c0,0,-1,0,-1,0l-1,0l-1,0l-1,0c0,0,0,-1,1,-1ZM333.5,118.5l-2,-1l-1,2l-1,-1l1,-2l1,1l1,-1l1,1ZM330.5,115.5l-1,0l-1,0c0,0,-1,0,-1,0c0,0,-1,0,-1,0c0,-1,0,-1,-1,-1l0,-1c0,1,-1,1,-1,1c-1,0,-1,0,-1,1c-1,0,-1,0,-1,0l-1,0l-1,0l-10,0l0,1c0,0,0,1,0,1l-1,0c0,-1,0,-1,0,-1l0,-1l-1,0c-1,0,-1,0,-1,0c-1,0,-1,-1,-1,-1l-3,-2c0,-1,0,-1,-1,-1l0,1l0,1c-1,1,-1,1,-1,1c0,0,-1,1,-1,1l-1,0l-1,0l-1,0l-2,0c-1,0,-1,0,-1,0c0,0,-1,0,-1,-1l0,1l0,1l0,1l-1,0l-1,-1c0,0,0,-1,0,-1l0,-1c-1,0,-1,0,-2,0c0,1,0,1,0,1c0,0,-1,0,-1,0l0,1l0,1l0,1l1,2l0,2c0,1,0,1,0,1l0,1l0,1l0,-1l0,-1l-1,0l0,-1l0,-3l0,-1l0,-1l0,-1l0,-1c0,-1,0,-1,1,-2l1,-1l1,0l0,-1c1,1,2,1,3,2l1,0l1,0l1,0l1,0l1,0c1,0,1,0,1,0l1,0l0,-1c0,-1,0,-1,0,-1c0,0,0,-1,0,-1c-1,0,-1,0,-1,0c0,-1,-1,-1,-1,-1c0,0,-1,-1,-1,-1c-1,0,-1,0,-1,0c-1,-1,-1,-1,-1,-1c0,-1,0,-1,0,-1c0,0,0,-1,0,-1c1,0,1,0,1,0c0,-1,0,-1,0,-1c1,0,2,-1,3,-1c2,-1,3,-1,5,-2c1,0,2,-1,2,-1l1,0l-1,2c-1,0,-1,0,-3,1c-1,0,-3,1,-4,1c-1,1,-2,1,-3,2l1,1c0,0,1,0,1,0l1,0l0,1c1,0,2,1,2,1c1,0,1,1,2,1c0,1,1,1,2,2l1,1l1,0l1,0c1,0,1,0,1,0c1,0,1,-1,1,-2l0,-2l0,-1l-1,-3l0,-2c0,0,0,-1,0,-1l1,0l0,-1l1,2c-1,1,-1,1,-1,2l0,1l1,1l0,1l0,1l0,1l0,1l-1,1l2,-1l1,-1l1,0c0,-1,0,-1,1,-1l1,0c0,0,1,0,1,1c1,0,1,0,1,1c0,0,0,1,0,1l0,1l-1,0l0,1l-1,0l2,-1l1,0l1,0c1,0,1,0,1,0c0,0,1,0,1,0c0,0,1,0,1,-1l-1,0c0,0,-1,0,-1,-1l-1,0l1,-1c1,-1,1,-1,1,-1c1,0,1,0,2,0c0,0,1,0,1,0c0,0,0,1,1,1l0,1c0,1,-1,1,-1,1l0,1l1,0l1,0l1,0l1,0c0,0,1,0,1,0c1,0,1,0,1,0l0,-1c0,-1,0,-1,-1,-1l0,-1l1,-1l1,0c0,0,0,1,0,1c0,1,0,1,0,1c0,1,0,1,0,1c0,1,0,1,0,1c0,1,0,1,-1,1c0,0,0,1,-1,1c0,0,-1,0,-1,0ZM330.5,102.5l4,-2l0,1l-1,0l-4,2ZM325.5,118.5l-4,2c0,0,0,-1,1,-1l4,-2ZM315.5,108.5l-2,-1l1,-2l2,1ZM318.5,112.5l0,-1c-1,0,-1,0,-1,0c0,0,-1,0,-1,0c-1,0,-1,0,-2,0l-1,1l-1,1l-1,0l1,0c1,0,1,0,2,0c0,0,1,0,1,0c1,0,2,-1,3,-1ZM315.5,99.5c0,0,1,0,1,-1l1,0c0,0,0,1,0,1c0,0,0,1,0,1c0,0,0,1,0,1l1,0l-1,1l-1,0l-1,1l-1,1l-1,0l1,-1c0,0,1,-1,1,-1l1,0l0,-1l-1,0l0,-1l0,-1ZM316.5,99.5c0,1,0,1,0,1l1,0l-1,0ZM301.5,96.5c0,0,0,-1,0,-1c1,0,1,0,1,0c1,0,1,0,1,1l0,1c0,0,-1,0,-1,0l1,1l0,1l-1,-1l-1,1c0,1,-1,1,-1,1l-1,0c0,0,-1,0,-1,0l1,0l1,-1l1,0l0,-1c-1,-1,-1,-1,-1,-1c0,-1,0,-1,1,-1ZM302.5,96.5l-1,0l0,1l1,0l0,-1ZM287.5,104.5c1,0,1,0,1,0c1,0,1,0,2,0c0,0,1,0,1,0c0,0,1,0,1,1l-1,0l0,1c0,0,-1,0,-1,0c0,0,0,1,-1,1l-1,0l-1,0l2,-1c1,0,1,0,2,-1c-1,0,-1,0,-1,0c0,0,-1,0,-1,0c0,0,-1,0,-1,0c0,0,-1,0,-1,0c0,0,0,-1,0,-1Z" class="g1_44" />
</svg>