<?xml version="1.0" encoding="UTF-8" standalone="no"?>
<!DOCTYPE svg PUBLIC "-//W3C//DTD SVG 1.1//EN"
"http://www.w3.org/Graphics/SVG/1.1/DTD/svg11.dtd">
<svg version="1.1" xmlns="http://www.w3.org/2000/svg" xmlns:xlink="http://www.w3.org/1999/xlink">
<defs>
<style type="text/css"><![CDATA[
.g2_48{
stroke: #1F1A17;
stroke-width: 1;
stroke-linecap: butt;
stroke-linejoin: miter;
}
.g1_48{
fill: #1F1A17;
stroke: #1F1A17;
stroke-width: 1;
stroke-linecap: butt;
stroke-linejoin: miter;
}
]]></style>
</defs>
<path fill-rule="evenodd" d="M242.5,115.5c0,1,0,1,0,1l-4,2c0,0,0,-1,1,-1ZM225.5,121.5c0,1,0,1,-1,1l-1,1c-1,0,-1,0,-1,0c0,-1,0,-1,0,-1c0,0,0,-1,0,-1c0,0,1,1,1,1l0,-1c1,0,1,0,1,-1c0,1,0,1,0,1c1,0,1,0,1,-1l0,1ZM232.5,116.5l0,1l-4,1c0,0,1,-1,1,-1ZM219.5,118.5l0,1c0,0,0,1,-1,1c1,2,1,4,1,6c0,5,-1,7,-4,7c-1,0,-2,0,-3,-1c0,0,0,-1,0,-2c0,-1,0,-2,0,-2c0,-1,0,-2,1,-2c0,1,-1,2,-1,2c0,2,1,2,3,2c1,0,1,0,2,0c1,0,1,-1,1,-1c0,-1,0,-3,0,-5c0,-3,0,-4,0,-5c-1,0,-1,0,-1,-1c0,-1,0,-2,1,-2c0,0,0,1,0,1c0,0,1,1,1,1ZM227.5,127.5c0,2,-1,3,-1,4c-1,1,-3,2,-4,2c-1,0,-1,0,-2,0c0,0,0,-1,-1,-1c1,0,3,0,4,-1c2,-1,3,-2,3,-3l0,-1c-1,1,-1,1,-2,1c0,0,-1,0,-1,-1c0,-1,0,-1,1,-2c0,-1,1,-1,1,-1c1,0,1,0,1,1c1,1,1,1,1,2ZM225.5,126.5l0,-1c-1,1,-1,1,-1,2c0,0,1,0,1,0c0,0,0,-1,0,-1ZM234.5,131.5c-1,1,-3,2,-5,2c1,-1,2,-1,3,-2c1,-1,2,-2,2,-3c0,-2,-2,-4,-4,-5c0,0,-1,0,-1,0c-1,0,-2,-1,-2,-2c0,-1,0,-1,0,-1c0,0,1,-1,1,-1c1,0,2,1,3,3c1,1,2,2,3,3c0,0,0,1,0,2c1,-1,1,-2,1,-3c0,-1,0,-2,0,-4c0,0,1,-1,2,-2c0,0,0,1,0,1c0,4,-1,8,-3,12ZM241.5,128.5c0,2,0,3,-1,4l0,-12c0,0,0,-1,1,-2ZM226.5,115.5c0,0,-1,0,-1,1l-3,2c0,-1,0,-1,0,-1l1,-1ZM237.5,115.5c0,1,0,1,-2,2c0,-1,1,-1,1,-1c0,0,1,-1,1,-1l-1,0c-1,0,-1,0,-1,-1c0,0,1,0,1,0c0,0,1,0,1,0c0,0,0,1,0,1ZM215.5,122.5l0,1l-1,-1c0,2,-1,2,-2,2c0,0,1,-1,2,-2c0,0,-1,0,-1,-1c0,0,0,-1,1,-1c0,0,0,-1,1,-1c0,0,0,1,0,1c0,1,0,1,0,2ZM215.5,121.5c0,0,-1,-1,-1,-1l0,1l1,0Z" class="g1_48" />
<path fill-rule="evenodd" d="M274.5,325.5l0,-1l0,-1l-1,-8l1,-3l1,11c0,1,0,1,-1,1c0,1,0,1,0,1ZM152.5,263.5l-1,1c0,1,0,1,0,1l0,1c0,0,0,1,0,1l0,-1l-1,0l0,-1l1,-1c0,0,0,-1,0,-1c0,0,1,0,1,0l1,-1l1,0ZM152.5,265.5c0,0,0,-1,1,-1l1,0l0,1l0,1l0,1l0,1l-1,-1l0,1l-1,0c0,0,0,1,-1,1l-1,0l1,0l0,-1c0,0,1,0,1,0l0,-1l1,0l-1,0c0,-1,0,-1,0,-1c0,-1,0,-1,0,-1ZM153.5,265.5l0,1l0,-1ZM174.5,265.5c0,-1,0,-1,0,-2c-1,-1,-1,-1,-1,-2l1,-1c0,1,0,1,0,1c0,1,0,1,0,1l0,1l0,1c0,1,0,1,0,1ZM75.5,262.5l0,-1c0,0,0,-1,0,-1c0,-1,0,-1,0,-2l0,-1c0,0,1,1,1,1c0,1,0,1,0,1l0,1c0,1,0,1,0,1c0,0,0,1,-1,1ZM323.5,265.5c0,-1,0,-1,1,-1l1,0c0,0,1,0,1,0c1,0,1,1,1,1c0,0,-1,1,-1,1c0,0,0,1,0,1c-1,0,-1,0,-1,0c-1,0,-1,0,-1,0l-1,0l1,-1c1,0,2,0,2,0c0,-1,0,-1,-1,-1l-1,0l-1,0c0,0,0,1,-1,1l0,-1c0,0,1,0,1,0ZM113.5,279.5l0,-1l0,-1l-1,-9l1,-2l1,11c0,0,-1,0,-1,0l0,1c0,0,0,1,0,1ZM105.5,277.5c0,0,1,0,1,0l1,0c0,-1,1,-1,1,-1l-1,-2l0,-7c0,-1,0,-1,0,-1c0,-1,0,-1,1,-1c0,1,0,1,0,1c0,0,0,1,1,1l-1,1c0,1,0,2,0,2c0,1,0,1,0,3c0,0,0,1,0,1l0,1c0,1,0,1,0,1l0,1c0,0,0,1,0,1c0,0,-1,0,-1,0l0,1c0,0,-1,0,-1,0c0,0,-1,0,-1,0l-1,0l-1,-1l0,-1c0,0,-1,0,-1,0c0,0,0,1,-1,1c0,0,0,1,-1,1c0,0,-1,-1,-1,-2l-1,1c0,0,-1,1,-1,1c-1,0,-2,-1,-2,-2c0,1,0,1,-1,1c0,0,-1,1,-2,1l-1,0l-1,0c0,-1,0,-1,-1,-1c0,-1,0,-1,0,-1c0,0,0,1,0,1c-1,0,-1,0,-1,0c-1,0,-1,1,-1,1c-1,0,-1,0,-1,0l-1,0l-10,0c0,1,0,2,0,2l-1,0l0,-1l0,-1l-1,0c0,1,0,1,0,1c0,1,0,1,0,1c0,0,0,1,-1,2c0,0,0,1,-1,1c-1,1,-1,1,-2,1c-1,1,-2,1,-2,1c-1,0,-1,0,-2,0c-1,-1,-1,-1,-1,-1c-1,0,-1,-1,-1,-1c-1,-1,-1,-1,-1,-2c0,0,0,-1,0,-1l0,-1c1,0,1,-1,1,-1c0,-1,0,-1,1,-1c0,1,0,1,-1,1c0,0,0,1,0,1c0,1,0,1,0,1c0,1,0,1,0,1c0,1,1,1,1,1l1,0l0,1c1,0,1,0,2,0c1,0,2,0,2,0c1,-1,2,-1,2,-2c0,0,1,0,1,0l0,-1l0,-1c0,0,0,-1,0,-1c-1,0,-1,0,-1,0l0,-1l1,-2c0,0,0,1,0,1c0,0,1,0,1,0l1,0c1,0,1,0,1,0c0,-1,1,-1,1,-2l0,-1l0,-1l0,-1l-1,-3l0,-2c0,-1,0,-1,0,-1l1,-1l1,2c-1,0,-1,1,-1,2l0,1l1,1l0,2l0,1l-1,1l0,1l2,-1l1,-1c1,-1,1,-1,2,-1c1,0,2,0,2,0c0,1,1,1,1,2l0,1l-1,1l-1,0l2,0l1,0l1,0l1,0l1,0c0,-1,0,-1,1,-1c0,0,1,0,1,0c0,1,0,1,0,1c0,0,1,0,1,0l1,0l1,0l1,0c0,0,1,-1,1,-2l1,0l0,1c0,1,0,1,1,1c0,0,1,0,1,0c0,0,1,-1,1,-1l0,-1c0,1,1,1,1,1c0,1,0,1,1,1l0,-1c1,0,1,0,1,0c0,0,0,-1,0,-1l1,0c0,1,1,2,1,2l1,0ZM98.5,271.5l-2,-1l1,-2l1,1ZM99.5,273.5l-1,-1l-1,2l-1,-1l1,-2l1,1l1,-1l1,1ZM96.5,261.5l0,1l1,0l0,-1l1,0l0,1c1,0,1,-1,1,-1l0,-1l0,1l0,1c0,0,0,1,0,1l-1,0l0,-1l-1,1l-1,0l0,-1l0,-1ZM100.5,258.5l-5,3c0,-1,0,-1,0,-1l6,-3ZM90.5,282.5l-2,-1l0,1l-2,0l1,-2l2,1l0,-1l2,1ZM85.5,261.5c1,0,1,0,1,0c1,-1,1,-1,2,-1c0,0,1,0,1,1c1,0,1,0,1,0c-1,1,-1,1,-1,1c0,1,0,1,-1,1c-1,0,-1,0,-1,0l-1,0l1,0c1,-1,2,-1,2,-1c0,0,-1,0,-1,0l-1,0c0,0,-1,0,-1,0l-1,0c0,0,0,-1,0,-1ZM83.5,276.5c0,0,0,-1,-1,-1c0,0,-1,0,-1,0c-1,0,-1,0,-2,0l-1,1l-1,0l-1,1l1,0c1,0,1,0,2,0l1,0c1,0,2,-1,3,-1ZM67.5,277.5l-1,-1l1,-2l1,1ZM70.5,289.5l-4,2c0,0,0,-1,0,-1l4,-2ZM138.5,278.5l-1,0c0,0,-1,0,-1,0l-1,-1l0,1l-1,1l-1,0l-1,0l-1,0c0,1,0,1,0,1c0,1,0,1,0,1c0,0,0,1,0,2c-1,0,-1,1,-2,1c0,1,-1,1,-2,1c0,1,-1,1,-2,1c0,0,-1,0,-2,0c0,-1,-1,-1,-1,-1c-1,0,-1,-1,-1,-1c0,-1,-1,-1,-1,-2c0,0,0,-1,0,-1c1,0,1,0,1,0l0,-1c0,0,0,-1,0,-1l1,0c0,-1,0,-1,0,-1c0,1,0,1,0,1c0,0,0,1,0,1c-1,0,-1,0,-1,0c0,1,0,1,0,1c0,1,0,1,1,1c0,1,0,1,0,1c1,0,1,0,1,0l0,1c1,0,2,0,2,0c1,0,2,0,3,0c1,-1,1,-1,2,-2l0,-1l0,-1c0,0,0,-1,0,-1l-1,-1l1,-2c0,0,0,1,0,1c1,0,1,0,1,0l1,0l1,0c1,0,1,0,1,0l1,0l0,-1c1,-1,1,-1,1,-2l1,0c1,0,1,0,1,0c1,0,1,1,1,1l0,1l0,1l0,1l-1,0ZM136.5,276.5l1,0l1,1c0,-1,0,-1,0,-1c0,-1,-1,-1,-1,-1c0,0,-1,0,-1,1ZM134.5,264.5l0,1c0,0,1,1,1,1l0,-1l1,-1l0,1l1,0l0,-1l0,-1l0,1l0,1c0,1,0,1,0,1l-1,0l-1,0c0,1,0,1,0,1c-1,0,-1,0,-1,-1l0,-1l0,-1ZM137.5,282.5l-4,2c0,0,1,-1,1,-1l4,-2ZM126.5,277.5l-1,-1l0,-2l2,1ZM125.5,269.5l4,-2l0,1c-1,0,-1,0,-1,0l-4,2ZM169.5,279.5c0,0,-1,0,-1,0c0,-1,-1,-1,-1,-1c0,-1,0,-1,0,-1c0,0,0,1,-1,1c-1,0,-1,1,-2,1l-1,0c-1,0,-1,0,-2,0c0,0,-1,0,-1,0l0,-1l-1,0c0,0,0,1,-1,1c0,0,-1,0,-1,0c-1,1,-2,1,-2,1c-1,0,-1,0,-2,0c0,0,-1,0,-1,0c-2,0,-3,0,-4,0c-1,0,-2,-1,-2,-1c-1,-1,-1,-1,-1,-1c0,-1,0,-1,0,-2c0,-1,0,-1,0,-1c0,-1,1,-1,1,-2c0,0,0,1,0,1c0,1,0,1,0,1c0,1,0,1,0,2c0,0,1,0,2,1c0,0,1,0,2,0c0,0,1,0,3,0c0,0,1,0,1,0c1,0,1,0,2,0c0,0,1,0,1,0c0,-1,1,-1,1,-1c-1,-1,-1,-1,-1,-1c0,-1,1,-1,1,-2c0,0,0,-1,0,-1c0,0,1,0,1,0c0,0,0,-1,0,-1c0,0,1,0,1,0l1,0c0,0,1,0,1,1c0,1,0,1,0,1l0,1c0,1,0,1,0,1c0,0,-1,0,-1,1c0,0,1,0,1,0l1,0l1,0l1,0l1,0c0,-1,0,-1,0,-1c1,0,1,0,1,0c1,0,1,0,1,0c0,1,0,1,0,1c0,0,1,0,1,0l1,0c0,0,1,0,1,0c0,-1,0,-1,0,-2l1,-1l-1,-1l0,-1l0,-3l0,-2c0,-1,0,-1,0,-1l0,-1l1,2c0,0,0,1,0,2l0,1l0,1l0,2l0,1l0,1l0,1l1,-1l1,-1l1,0c1,-1,1,-1,1,-1l1,0c1,0,1,0,2,0c0,1,0,1,1,2c0,0,0,1,0,1c-1,0,-1,0,-1,1c0,0,-1,0,-1,0c0,1,-1,1,-1,1c-1,0,-1,0,-2,1c-1,0,-2,0,-2,0ZM176.5,275.5c0,0,-1,0,-1,0l-2,1l-1,1l1,0c0,0,1,0,1,0c0,0,1,0,1,0l1,0c1,0,2,-1,2,-1c0,0,0,-1,0,-1l-1,0l-1,0ZM176.5,256.5c-1,1,-1,1,-2,1l-1,0l-1,0l0,-1c1,0,2,0,2,0l1,0l1,0ZM165.5,282.5l0,-1l1,-1l1,0l1,0l0,1l-1,1l0,-1l-1,0l-1,1l1,0l1,1l1,0l0,-1l0,1l-4,2l1,-1c0,-1,0,-1,0,-1l1,0c-1,0,-1,0,-1,-1ZM168.5,287.5l-4,2c0,-1,0,-1,1,-1l4,-2ZM159.5,270.5l-2,0l1,-2l1,1ZM160.5,274.5c0,0,-1,0,-1,0c0,0,-1,0,-1,1l1,0c0,1,0,1,1,1l1,0c0,0,0,-1,0,-1c0,0,0,-1,0,-1c0,0,-1,0,-1,0ZM222.5,278.5l-1,0c0,0,-1,0,-1,0l-1,-1l0,1l-1,1l-1,0l-1,0c0,0,-1,0,-1,-1c-1,0,-1,0,-1,0c0,0,0,-1,0,-1c-1,1,-1,1,-1,1c0,1,-1,1,-1,1c-1,0,-1,0,-1,0c0,0,0,-1,-1,-1l0,-1c0,1,0,1,0,1l-1,0c0,1,0,1,0,1c0,0,-1,0,-1,0c0,0,-1,0,-1,0l-1,0c0,-1,0,-1,0,-1l-1,0c0,0,-1,0,-1,0c-1,0,-1,0,-1,0c0,0,-1,1,-1,1l0,1l0,-1c0,1,0,1,0,1l0,1c0,0,0,1,0,1l0,1l0,1c-1,0,-1,1,-1,1c0,-1,0,-1,0,-1c0,0,-1,0,-1,0l0,-1c0,-1,0,-2,0,-3c0,0,0,-1,0,-1c-1,0,-1,0,-1,0l-1,0l-3,0c0,0,-1,0,-1,0c0,-1,0,-1,-1,-1l0,1l0,1c0,1,0,1,0,1c-1,0,-1,0,-1,-1c-1,0,-1,-1,-1,-1l0,-1c-1,0,-1,0,-1,0l-1,0l0,1l-1,0c0,0,0,1,0,1l0,1l1,0c0,1,0,1,0,1l0,2l0,2c0,0,0,1,0,1l0,1l0,1l0,-1l0,-1l0,-1l-1,-3l0,-1l0,-1l0,-1l0,-1c0,-1,0,-1,1,-2l1,-1l1,0l0,-1c1,1,2,1,3,2l1,0l2,0l1,0l1,0c0,0,1,0,2,0c0,-1,0,-1,1,-1c0,1,0,1,0,1l-1,0c0,1,-1,2,-1,3c0,1,1,2,1,2c0,0,0,-1,0,-1c0,0,0,-1,0,-1l0,-1c1,0,1,0,1,-1c1,-1,1,-1,1,-1c1,0,1,-1,1,-1l1,0c1,0,1,0,1,0l0,1c1,0,1,0,1,0l1,0c0,0,1,0,1,0l1,0l0,-1l0,-1l1,0l0,1c0,1,1,1,1,1c0,0,1,0,1,0c0,0,0,-1,0,-1l1,-1l0,1c0,0,1,1,1,1l1,0l1,0c1,0,1,0,1,0l1,0l0,-1c1,-1,1,-1,1,-2l1,0c1,0,1,0,1,0c1,0,1,1,1,1l0,1l0,1l0,1l-1,0ZM220.5,276.5l1,0l1,1c0,-1,0,-1,0,-1c0,-1,-1,-1,-1,-1c0,0,-1,0,-1,1ZM218.5,266.5l4,-2l-1,0l0,1l-4,2ZM207.5,269.5l0,1c0,0,1,0,1,0l0,-1l1,0l0,-1l0,1l1,0l0,-1l0,1l0,1l-1,0l-1,1c-1,0,-1,0,-1,0l0,-1l0,-1ZM211.5,266.5l-5,3c0,-1,0,-1,0,-2l6,-2ZM199.5,270.5c0,0,0,-1,1,-1l1,0l0,1l0,1l0,1l0,1l-1,-1l0,1l-1,0c0,1,0,1,-1,1l-1,0l1,-1l1,0l0,-1l1,0l-1,0c0,-1,0,-1,0,-1c0,-1,0,-1,0,-1ZM200.5,270.5l-1,0c0,0,1,0,1,0l0,1l0,-1ZM187.5,268.5c1,0,1,0,1,0c1,0,1,-1,2,-1c0,0,1,1,1,1c1,0,1,0,1,0l0,1c0,0,-1,0,-1,1l-1,0c-1,0,-1,0,-1,0l-1,0l1,0c1,0,2,-1,2,-1c0,0,-1,0,-1,0l-1,0c0,0,-1,0,-1,0l-1,0l0,-1ZM246.5,279.5l0,-1l0,-1l-1,-9l1,-2l1,11l0,1c-1,0,-1,1,-1,1ZM248.5,282.5l-3,2c0,-1,0,-1,0,-1l4,-2ZM239.5,268.5l-2,-1l1,-1l2,1ZM243.5,278.5l-1,0c-1,1,-2,1,-2,1l-1,0l-1,0l-1,0l-1,-1c0,0,1,-1,1,-1l1,0c0,0,1,0,2,0l1,0l1,-1c0,0,0,-1,0,-1c0,0,0,-1,-1,-1l0,-1l-1,0l-1,0l0,-1l0,-2c0,0,1,0,1,1c0,0,1,0,1,0l0,1c0,0,1,0,1,0c0,0,0,1,0,1c1,1,1,1,1,2c0,0,0,1,0,1c0,0,0,1,0,1l0,1ZM237.5,263.5l4,-2l-1,0c0,0,0,1,0,1l-4,2ZM233.5,279.5l0,-1l0,-1l-1,-9l1,-2l1,11l0,1c-1,0,-1,1,-1,1ZM285.5,279.5l0,-1l0,-1l0,-9l0,-2l1,11l0,1c0,0,-1,1,-1,1ZM280.5,271.5l-1,-1l-1,1l-1,-1l0,-2l2,1l1,-1l1,1ZM278.5,279.5l-1,0l-1,0l-1,0c-1,0,-1,0,-2,0c0,0,-1,-1,-1,-1c0,0,-1,1,-2,1c0,0,-1,0,-2,0l-2,0c0,0,0,1,0,1c0,0,0,1,0,1c-1,1,-1,1,-1,1c0,1,-1,1,-1,1c0,0,0,1,-1,1c-1,0,-1,0,-1,0c0,0,-1,0,-1,0c-1,0,-1,0,-2,0l-1,-1c1,0,1,0,1,0c0,0,1,0,1,0c0,0,1,0,1,0c1,0,1,0,1,0c1,-1,1,-1,1,-1c1,0,1,-1,1,-1c0,0,1,0,1,-1c0,-1,0,-1,0,-1c0,0,-1,0,-1,0c0,0,-1,0,-1,0c0,-1,0,-1,0,-1l0,-1c0,0,0,-1,0,-1c0,-1,0,-1,0,-1c0,0,1,0,1,-1l1,0c0,0,1,1,1,1c0,1,0,1,0,1c0,1,0,1,0,1c1,0,1,0,2,0l1,0c0,0,1,0,1,0l1,0c0,0,-1,0,-1,-1c0,-1,0,-1,1,-2c0,0,0,-1,0,-1c0,0,1,0,1,-1c0,0,1,0,1,0c1,0,1,0,2,0c0,1,0,1,0,2l0,1c0,0,0,1,0,1c-1,0,-1,1,-1,1c1,0,1,0,1,0l1,0l1,0l1,0c1,0,1,0,2,0l1,0l0,-1l0,-1c-1,0,-1,0,-1,0l0,-1l1,-1l0,1l0,1l1,1l-1,0c0,0,0,1,0,1c0,0,0,1,0,1c0,0,-1,0,-2,1l-1,0ZM279.5,264.5l0,1c0,0,0,1,0,1c0,0,0,-1,1,-1l0,-1l1,1l1,-1l0,-1l0,1l0,1c0,1,0,1,-1,1l-1,0c0,1,-1,1,-1,1l0,-1c-1,0,-1,0,-1,0l0,-1l1,-1ZM283.5,262.5l-6,2c1,0,1,-1,1,-1l5,-3ZM274.5,271.5l-2,-1l-1,1l-1,-1l1,-2l1,1l1,-1l1,1ZM273.5,274.5c0,0,-1,0,-1,0c-1,0,-1,0,-1,1c1,1,1,1,1,1c1,0,1,0,2,0c0,-1,0,-1,0,-1c0,0,0,-1,0,-1c-1,0,-1,0,-1,0ZM269.5,263.5l4,-2c0,0,0,1,0,1l-4,2ZM264.5,276.5c0,0,-1,0,-1,0c0,1,1,1,1,1c0,0,1,0,1,0c0,0,0,-1,0,-1c0,0,-1,0,-1,0ZM260.5,268.5l1,0c0,0,1,-1,1,-1c1,0,1,1,2,1l0,1l-1,1l-1,0c0,0,-1,0,-1,0c-1,0,-1,0,-1,0l2,0c0,0,1,-1,1,-1c-1,0,-1,0,-1,0c-1,0,-1,0,-2,0l0,-1ZM257.5,279.5l0,-1l0,-1l-1,-9l1,-2l1,11l0,1c-1,0,-1,1,-1,1ZM347.5,279.5l0,-1l0,-1l-1,-9l1,-2l1,11l-1,1c0,0,0,1,0,1ZM340.5,280.5c-1,0,-1,0,-1,0c0,-1,0,-1,0,-1c0,0,-1,-1,-1,-1c0,-1,0,-1,0,-1l-1,0c0,0,0,1,0,1c-1,0,-1,0,-2,1c0,0,-1,0,-1,0c-1,0,-1,0,-1,0l-1,0c0,0,-1,-1,-1,-2l0,-1c0,0,1,0,1,0c0,1,1,1,1,1l1,0c0,0,1,0,1,0c0,0,1,0,1,0c0,0,1,-1,1,-1l1,0c0,0,0,-1,-1,-2c0,0,0,-1,0,-2l0,-1c0,-1,1,-1,1,-1l0,1c0,0,0,1,0,2c0,0,1,1,1,2c0,0,0,1,0,1l0,1l0,-1c0,0,0,1,0,1c0,0,1,1,1,1c0,0,0,1,1,1l1,0c0,-1,0,-1,0,-1c0,0,0,-1,0,-2c0,-1,0,-2,0,-2c0,-1,0,-1,0,-1c0,-1,0,-2,0,-3c0,-1,0,-2,0,-3c-1,0,-1,0,-1,0c0,-1,0,-1,1,-1c0,-1,0,-1,0,-1l0,1c1,0,1,1,2,1c0,0,-1,0,-1,1c0,1,0,2,0,2c0,1,0,1,0,3c0,0,0,1,0,1c0,0,0,1,0,1c0,2,0,3,0,3c0,1,0,1,0,1c0,1,0,1,0,1c-1,0,-1,0,-1,0c0,0,0,1,0,1c-1,0,-1,-1,-2,-1ZM341.5,261.5l0,1c0,0,1,0,1,0l0,-1l1,-1l0,1c1,0,1,0,1,0l0,-1l0,1l0,1l-1,0l-1,0l0,1l-1,0l0,-1l0,-1ZM345.5,258.5l-5,3c0,-1,0,-1,0,-2l6,-2ZM336.5,268.5l-1,-1l1,-1l1,1ZM335.5,282.5l-4,2c0,0,0,-1,0,-1l4,-2ZM329.5,281.5l-1,-1l-1,1l-1,-1l1,-1l1,1l1,-1l1,1ZM324.5,275.5l1,0c0,0,1,0,1,0l1,0l1,0c0,-1,0,-1,0,-1l0,-1c-1,0,-1,0,-1,0c0,-1,0,-1,0,-1l1,-1c0,0,0,1,0,1c0,0,0,1,1,1l0,1c0,0,0,1,-1,1c0,0,0,1,0,1l-1,0c0,0,0,1,0,1c-1,0,-1,0,-2,0l0,1c0,1,0,1,0,1l-1,1l0,1c-1,0,-1,0,-1,0c-1,0,-1,1,-2,1c0,0,-1,0,-1,0c-1,1,-2,1,-3,1c-1,0,-2,0,-3,0c-1,1,-1,1,-2,1c-1,0,-1,0,-2,0c-1,0,-1,0,-2,0c-1,0,-1,0,-2,-1c-1,0,-2,0,-2,0c-1,0,-2,0,-3,-1c-1,0,-2,-1,-3,-1c-1,-1,-2,-1,-3,-2l0,-1c1,0,1,0,1,0c0,1,1,1,1,1c1,0,2,1,2,1c1,0,2,0,2,1c0,0,1,0,2,0c0,0,1,0,1,1c1,0,2,0,3,0c0,0,1,0,1,0c1,0,2,0,2,0c1,0,1,0,2,0c1,0,1,0,2,0c1,0,2,0,2,0c2,-1,2,-1,3,-1c1,0,2,-1,3,-1c1,-1,2,-1,2,-2c0,-1,0,-1,0,-1c0,0,-1,-1,-1,-1c0,-1,0,-1,0,-1l0,-1l1,1ZM312.5,277.5l-2,-1l1,-1l2,1ZM302.5,269.5l1,0l2,-1l6,-2l4,-1l1,0l0,-1l-1,2l-1,0l-1,1l-2,0l-5,2l-4,2l-1,0ZM389.5,279.5l0,-1l0,-1l-1,-9l1,-2l1,11c0,0,-1,0,-1,1c0,0,0,1,0,1ZM391.5,281.5l-4,2c1,-1,1,-1,1,-1l4,-2ZM372.5,277.5l-1,-1l0,-1l2,1ZM385.5,279.5l-1,1l0,1c0,0,-1,0,-1,0c-1,0,-1,1,-1,1c-1,0,-1,0,-2,0c-1,1,-2,1,-3,1c-1,0,-2,0,-3,0c0,1,-1,1,-2,1c-1,0,-1,0,-2,0c0,0,-1,0,-2,0c0,0,-1,0,-1,-1c-2,0,-2,0,-3,0c-1,0,-1,0,-2,-1c-2,0,-3,-1,-4,-1c-1,-1,-1,-1,-2,-2c0,0,-1,0,-1,-1c1,0,1,0,1,0c1,1,1,1,2,1c0,0,1,1,2,1c0,0,1,0,1,1c1,0,1,0,2,0c0,0,1,0,2,1c0,0,1,0,2,0c0,0,1,0,2,0c0,0,1,0,1,0c1,0,2,0,2,0c1,0,2,0,2,0c1,0,2,0,3,0c1,-1,2,-1,3,-1c0,0,1,-1,2,-1c2,-1,2,-1,2,-2c0,-1,0,-1,0,-1c0,-1,0,-1,-1,-1c0,-1,0,-1,0,-1l1,-2l1,1l0,1c0,1,0,1,0,1c0,0,0,1,0,1c0,1,0,1,0,1c0,1,0,1,0,1ZM362.5,266.5l0,1c0,0,1,0,1,0l1,-1c0,0,0,1,0,1l1,0l0,-1l0,-1l0,1l0,1c0,0,0,1,0,1l-1,0l-1,0c0,0,0,1,0,1c-1,0,-1,-1,-1,-1l0,-1l0,-1ZM366.5,263.5l-5,3c0,-1,0,-1,0,-1l6,-3ZM278.5,312.5c0,0,1,0,1,0c1,0,1,0,1,0c1,0,1,0,2,0l0,1c0,0,0,1,0,1c0,0,-1,0,-1,0c0,0,0,1,0,1l-1,0l-1,0l-1,0l2,-1c1,0,1,0,2,-1c-1,0,-1,0,-1,0c0,0,-1,0,-1,0c0,0,-1,0,-1,0c0,0,-1,0,-1,0l0,-1ZM144.5,323.5c0,1,0,1,0,2l0,1l-1,0c0,0,0,1,0,1l1,0l0,1l-1,0c0,1,-1,1,-1,1c-1,1,-1,1,-2,1l-1,1l-1,0l-1,0l-1,1l0,1l-1,0l-1,0l-2,0l-3,0l-1,-1c-1,-1,-1,-1,-1,-1c-1,0,-2,-1,-3,-1l-1,0l0,-1l-1,0l0,-1l-1,0l0,-1l-1,0l1,0l1,0l-1,-1l0,-1l-1,0l0,-1l0,-1l0,-1l0,-1c0,0,1,0,1,-1l0,-1l1,0l-1,-1l-1,0c1,0,1,0,1,0l0,-1l1,0l1,-1l1,0l1,-1l2,-1l1,0l0,-1c1,0,1,-1,1,-1l3,0l2,0l1,0l1,0l0,1l1,0l0,1l1,0l2,1l1,1l1,0l0,1l1,0c0,0,1,1,1,1l-1,1l1,0l0,1l0,1l0,1ZM135.5,333.5l1,0l0,-1l1,0l0,-1l1,0c0,0,1,0,1,-1l1,0c1,0,1,-1,1,-1l1,0c0,-1,0,-1,1,-1l1,0l0,-1l-1,0l0,-1l1,0l0,-1l0,-1l0,-1c0,-1,0,-2,0,-2c0,-1,0,-1,0,-1l-1,0c0,-1,0,-1,0,-1l0,-1l1,0c-1,0,-1,-1,-2,-1l-1,-1l-2,-1l-1,0c-1,0,-1,-1,-1,-1l-1,-1l-1,0l-1,0l-2,0l-1,0l-2,0l-1,0l0,1c0,0,-1,1,-1,1l-2,0l-1,1l-1,0l0,1l-1,0c0,0,-1,1,-1,1l1,0l0,1l-1,1l0,1l0,1c0,0,-1,0,-1,1l1,0l0,1l0,1c0,1,0,1,0,1l1,0l0,1l-1,0l0,1l1,0l1,1l1,1l1,0l1,0l1,1c0,0,1,0,1,0l0,1l1,0c0,1,0,1,0,1l3,0l2,0ZM141.5,318.5l-1,0l-1,-1c-1,0,-1,0,-1,0l0,-1l1,0c0,0,1,0,1,1l1,0l0,1ZM141.5,328.5l-1,1l-1,0l-1,1l0,-1c0,0,1,0,1,0l0,-1c1,0,1,0,2,-1l0,1ZM137.5,330.5l-1,1l-1,0l-1,0l-2,0l-3,0l-1,0c0,0,0,-1,0,-1c0,-1,0,-1,0,-1c0,0,1,0,1,-1l3,0l2,0l1,0l1,0l0,1l1,0ZM137.5,316.5l-1,1l-1,0l-1,0l-2,0l-3,0l-1,0l0,-1c0,-1,0,-1,0,-1l1,0l3,0l2,0l1,0l1,0c0,0,1,0,1,0l0,1ZM135.5,318.5l1,0c1,0,1,0,1,0c1,0,1,0,1,0c0,0,1,1,1,1l1,1l1,-1l0,1l1,0l0,1l0,1l0,1l0,1l0,1c0,0,0,1,-1,1l-1,0l-1,1l-1,0l0,1l-1,0c0,0,-1,0,-1,-1l-1,0l-1,0l-2,0l-3,0l-1,0c0,0,0,1,0,1l-1,0l-1,-1l-1,0l0,-1l-1,0l-1,0l0,-2l-1,-1c0,-1,0,-1,1,-1c0,0,0,-1,0,-1l0,-1c0,-1,1,-1,1,-1l1,1c0,0,0,-1,0,-1l1,0l0,-1c1,0,1,0,1,0c1,0,1,0,1,0l1,0l3,0l2,0ZM136.5,327.5c0,0,1,0,1,0l1,0l1,0l0,-1c1,0,1,0,1,0l1,0l0,-1l1,-1l0,-1c0,-1,0,-1,0,-2c0,0,-1,-1,-1,-1c0,0,0,-1,0,-1l-1,1l-1,-1l-1,-1l-1,0l-1,0l0,1l-2,0l-2,0l-3,0l-1,-1l-1,0c0,0,-1,0,-1,0l0,1l-1,0c0,1,0,1,0,1l-1,-1c0,0,0,1,-1,1l0,1l0,1l0,1l0,1l0,1c0,0,1,1,1,1l1,0l1,1l1,0c1,0,1,0,1,0c1,0,1,0,1,0l3,0l2,0l1,0l1,0ZM135.5,321.5l0,1c0,0,0,1,0,1l0,1l0,1l0,-1c0,-1,0,-1,-1,-2ZM133.5,325.5l-1,-1l1,0l1,0ZM132.5,321.5l0,1c-1,0,-1,0,-1,0l-1,0l0,1l1,0l0,1c0,0,0,1,0,1c0,0,-1,0,-1,0l0,-1l0,-1l0,-1l-1,0l1,-1c0,0,0,1,1,1c0,0,1,-1,1,-1ZM124.5,318.5l0,-1l1,0l0,-1l1,0l1,0c0,1,0,1,0,1c0,0,-1,0,-1,0l-1,0l0,1l-1,0ZM123.5,328.5l1,-1c0,1,1,1,1,1l1,1l1,0l0,1l-1,0l0,-1c-1,0,-1,0,-2,-1ZM204.5,325.5l-1,0l-1,0c0,0,0,-1,0,-1l-1,0c-1,1,-1,1,-1,1l-1,0l-1,0l-1,0c-1,0,-1,0,-1,0l-1,-1l-1,0c0,1,-1,1,-1,1l-1,0l-12,0l0,1c0,1,0,1,0,2l0,-1l-1,0l0,-1l0,-1l1,0c-1,0,-1,0,-1,0l-1,0l0,-1c0,0,0,-1,0,-1c0,0,0,-1,0,-1l-1,1c-1,0,-1,0,-1,1c-1,0,-1,0,-1,0l-1,1c0,1,0,1,0,2l-1,1c0,1,0,1,-1,1l-1,1l-1,0l-1,0l-1,0c-1,0,-1,-1,-1,-1l1,0c0,0,1,0,1,0c1,0,1,0,1,0c0,0,0,-1,0,-1c1,0,1,0,1,0l1,-1l1,-1c0,0,0,-1,0,-1c1,0,1,-1,1,-1l-1,0l1,-2l1,0c1,0,1,0,1,-1l1,0c1,0,1,-1,1,-1c0,0,0,1,0,1l0,1c1,0,1,0,1,1l1,1l1,-1c0,0,1,0,1,-1l2,-1c0,0,1,-1,1,-1c1,0,1,0,2,-1l1,0c0,0,1,1,1,1c1,0,1,0,1,1l0,1c0,1,0,1,-1,1l0,1l2,0l1,0c0,0,1,0,1,0c0,0,1,-1,1,-1l1,0l0,-1l1,0c0,0,0,1,0,1c1,1,1,1,1,1l1,0l1,0c1,0,1,0,1,0l0,-1l1,-1c0,-1,1,-1,1,-1l0,-1c1,0,1,0,1,0c0,0,1,0,1,0c0,1,0,1,1,2l0,1c0,0,0,1,0,1c-1,0,-1,1,-1,1ZM202.5,322.5l1,1l1,0l-1,-1c-1,0,-1,0,-1,0ZM200.5,314.5l0,1c1,0,1,0,1,0l0,-1l0,-1l1,0l0,1c0,0,1,0,1,0l0,-1l0,1l0,1l-1,0l-1,0l0,1l-1,0c0,0,0,-1,0,-1l0,-1ZM201.5,309.5c0,-1,1,-1,1,-1l1,0c0,0,1,0,1,1l-1,0l0,1l0,2l-1,-1l0,1c-1,1,-1,1,-1,1c-1,0,-1,0,-1,0c-1,0,-1,0,-1,0c1,0,2,-1,3,-2l-1,0c0,-1,0,-1,0,-1l0,-1ZM202.5,309.5l0,1l1,0l0,-1ZM195.5,329.5l-2,-1l1,-1l2,1ZM214.5,313.5c1,0,1,0,1,0c1,0,1,0,2,0c0,0,1,0,1,0c1,0,1,0,1,1c0,0,-1,1,-1,1l-1,0l0,1c-1,0,-1,0,-1,0l-1,0l1,-1c1,0,2,0,2,-1c0,0,-1,0,-1,0l-1,0l-1,0l-1,0c0,0,0,-1,0,-1ZM163.5,314.5c0,0,0,-1,1,-1l1,0c0,0,1,0,1,0c1,1,1,1,1,1c0,1,-1,1,-1,1c0,0,0,1,0,1c-1,0,-1,0,-1,0c-1,0,-1,0,-1,0l-1,0l1,0c1,-1,2,-1,2,-1c0,0,0,-1,-1,-1l-1,0l-1,1l-1,0c0,-1,0,-1,0,-1c0,0,1,0,1,0ZM192.5,314.5c0,0,1,0,1,0c0,0,1,0,1,0c1,0,1,0,2,0l0,1c0,0,0,1,0,1c-1,0,-1,0,-1,1c-1,0,-1,0,-1,0c0,0,-1,0,-1,0c0,0,-1,0,-1,0l2,-1c1,0,1,0,1,-1c-1,0,-1,0,-1,0c-1,0,-1,0,-1,0c-1,0,-1,0,-1,1l0,-1l0,-1ZM189.5,323.5c0,-1,0,-1,0,-1c0,0,-1,0,-1,0l0,-1c0,0,-1,0,-1,0c-1,0,-1,0,-1,0c0,0,-1,0,-1,1c-1,0,-1,0,-1,0l-1,1l-2,1l2,0c1,0,2,0,3,0c1,-1,1,-1,1,-1c1,0,1,0,2,0ZM184.5,328.5l-4,3c0,-1,0,-1,0,-1c0,0,1,0,1,-1l4,-2ZM171.5,309.5l1,0c0,-1,0,-1,1,-1c0,1,0,1,0,1c0,1,0,1,0,1l0,1l1,0l-1,2l-1,-1l-1,1c0,0,0,1,0,1l-1,0l-1,0l1,-1c0,0,1,0,1,-1l1,0l-1,-1l0,-1l0,-1ZM172.5,310.5l0,-1l0,1l0,1l0,-1ZM166.5,321.5l0,1c0,0,1,0,1,0c0,-1,-1,-1,-1,-1ZM166.5,329.5c-1,1,-1,1,-1,1c0,0,-1,0,-2,0c0,0,-1,0,-2,0c0,0,0,-1,-1,-1c0,0,1,0,1,0l1,0c0,0,1,0,1,0l1,0c0,0,1,0,1,-1c0,0,1,0,1,0c0,-1,0,-1,1,-1c0,0,0,-1,0,-1c1,-1,1,-1,1,-2l-1,0c0,0,-1,0,-1,0l-1,0l0,-1c0,-1,0,-1,0,-1c0,-1,0,-1,0,-2c0,0,1,0,1,0c0,-1,0,-1,1,-1l0,1c1,0,1,0,1,0c0,1,0,1,0,1c0,0,0,1,0,1c1,1,1,1,1,1c0,1,0,1,0,1c-1,1,-1,2,-1,3c0,0,-1,1,-1,1c0,0,0,1,-1,1ZM156.5,319.5l-2,-1l1,-1l2,1ZM156.5,329.5c-1,0,-1,-1,-2,-1c-1,0,-1,0,-1,0c-1,-1,-1,-1,-1,-2c-1,0,-1,-1,-1,-1c0,-1,0,-1,0,-1l0,-1c0,0,1,0,1,0c0,-1,0,-1,0,-1c0,-1,0,-1,0,-1c0,0,1,0,1,0c0,0,0,1,0,1c-1,0,-1,0,-1,1c0,0,0,1,0,1c0,0,0,1,0,1c1,0,1,1,1,1l1,0c1,0,1,1,2,1c1,0,1,-1,2,-1c1,0,1,0,2,-1c0,-1,0,-1,0,-1l0,-1l0,-1c0,-1,0,-1,-1,-1c0,-1,0,-1,0,-1l1,-2c0,1,0,1,0,1c1,1,1,1,1,1c0,0,0,1,0,1c0,1,0,1,0,1l0,1c0,1,0,2,0,2c-1,1,-1,1,-1,2c-1,0,-2,1,-2,1c-1,0,-2,1,-2,1ZM152.5,312.5l4,-2l0,1l-5,2ZM232.5,325.5l-1,0c0,0,-1,0,-1,-1c-1,0,-1,0,-2,0l-1,0c0,0,0,1,0,1c0,0,-1,0,-1,0c0,0,-1,0,-1,0l-1,0c0,0,-1,0,-1,0l-2,0c-1,0,-1,0,-2,0l0,1l0,1c0,0,0,1,-1,1c0,0,0,-1,-1,-1c0,-1,0,-1,0,-2l-1,-1l-1,1l-1,0l0,1l0,1l0,1l1,2l0,1l0,1c0,1,0,1,0,2l0,1l-1,0l0,-1l0,-1l0,-1l0,-3l-1,-1l0,-1l0,-1l0,-1c1,0,1,-1,1,-1l1,-1l1,-1l1,0l0,-1c1,1,1,2,2,2l2,0l1,1l2,0c1,0,1,0,1,0c0,-1,0,-1,1,-1l0,-1l0,-1l0,-1l1,0c0,-1,0,-1,0,-1c0,-1,0,-1,0,-1c0,-1,1,-1,1,-1c0,0,1,1,2,1c0,1,1,1,1,2c1,0,1,1,1,1c0,0,0,1,1,1l0,1c0,0,-1,1,-1,1c0,1,0,1,0,1ZM228.5,320.5l-1,0c0,1,0,1,0,1c0,1,0,1,0,1l1,0c1,0,1,0,1,-1l-1,0c0,-1,0,-1,0,-1ZM230.5,321.5c0,0,0,1,0,1c0,0,-1,0,-1,1l1,0l1,0l1,0l-1,-1c0,-1,-1,-1,-1,-1ZM225.5,306.5l0,-1c0,0,1,0,1,0c1,0,1,0,1,1l0,1c0,0,-1,0,-1,1l1,0l0,1l-1,0l-1,0c0,1,-1,1,-1,1l-1,0c0,0,-1,0,-1,0l1,0l1,-1l1,0l0,-1c-1,0,-1,-1,-1,-1c0,0,0,-1,1,-1ZM226.5,306.5l-1,0l0,1l1,0l0,-1ZM261.5,316.5l-1,-1l1,-2l1,1ZM264.5,323.5l0,1c-1,0,-1,0,-1,0c0,1,-1,1,-2,1c0,0,-1,0,-1,0l-1,0l-1,0c-1,0,-1,0,-2,0c0,-1,-1,-1,-1,-2l0,-9l1,-2l0,10l0,1l1,0c0,0,0,1,1,1l1,0l1,0c0,0,1,0,1,-1c1,0,2,0,2,0c0,0,0,-1,1,-1l0,-1c-1,0,-1,0,-1,0c0,0,0,1,0,1l-1,0c-1,0,-1,0,-1,0l-1,0c0,-1,0,-1,0,-1l0,-1l0,-1l0,-1c1,0,1,0,1,0c0,-1,1,-1,1,-1c0,0,1,0,1,0c0,0,0,1,1,1l0,1l0,1c0,1,0,1,0,2c0,0,0,1,0,1ZM261.5,319.5l0,1l1,0l1,0c0,0,0,-1,-1,-1l-1,0ZM260.5,309.5l4,-2l0,1l-4,2ZM258.5,329.5l-4,2c0,-1,0,-1,0,-1l4,-2ZM248.5,314.5l-1,0l1,-2l1,1ZM252.5,324.5l-1,1c-1,0,-1,0,-2,0l-1,0l-1,0l-1,0l0,-1l0,-1c0,0,1,0,1,0c1,0,1,0,2,0c0,0,1,0,1,0c0,0,1,0,1,0l1,-1l-1,-1l0,-1l-1,0l-1,-1l-1,0l1,-2l1,0c0,1,0,1,1,1c0,1,1,1,1,2l0,1l0,1c1,0,1,0,1,0c0,1,-1,1,-1,1c0,0,0,1,0,1ZM246.5,309.5l4,-2l0,1l-4,2ZM242.5,325.5l0,-1l0,-1l-1,-8l1,-3l1,11c0,1,0,1,0,1c-1,1,-1,1,-1,1ZM331.5,317.5l-1,-1l-1,1l-1,-1l1,-1l1,1l1,-1l1,1ZM329.5,325.5l-1,0l-2,0c0,0,-1,0,-1,0l0,-1c-1,0,-1,-1,-1,-1l0,1l-1,0c0,1,-1,1,-1,1c-1,0,-1,0,-2,0l-1,0c0,0,-1,0,-1,0c0,-1,0,-1,0,-1l0,-1l0,-1l1,0c0,1,0,1,0,1l1,0l1,0l1,0l1,0l1,0l0,-1c0,0,0,-1,0,-1l0,-2l-1,-1l1,-1l0,-1l1,2l0,1l0,2c0,1,0,1,0,1c0,1,0,1,0,1c0,0,1,0,1,0l0,1c0,0,1,0,1,0l1,0l1,0c1,0,1,0,2,-1c0,0,1,0,1,0l0,-1l0,-1l-1,0l1,-2l0,1l1,1l0,1l0,1l-1,1c0,1,-1,1,-1,1c-1,0,-1,0,-2,0ZM329.5,309.5l5,-2l-1,1l-4,2ZM323.5,314.5l-2,-1l1,-2l2,1ZM320.5,309.5l4,-2l0,1c0,0,-1,0,-1,0l-4,2ZM313.5,324.5c-1,0,-1,0,-3,0c0,0,-1,0,-3,0c-2,1,-3,1,-3,1l-1,0c0,0,-1,0,-1,0c-1,0,-3,0,-4,0c-2,0,-3,0,-4,0c-1,0,-2,0,-2,0l-1,0l-1,0c0,0,0,1,0,1c-1,1,-1,2,-1,2c0,1,0,1,-1,1c0,0,0,1,0,1c-1,0,-1,0,-1,1c-1,0,-1,0,-1,0c-1,0,-1,0,-1,0l-1,0c0,0,-1,0,-1,0c-1,-1,-1,-1,-1,-1l1,0c1,0,1,0,2,0c0,0,1,-1,1,-1c0,0,1,0,1,0c0,-1,0,-1,1,-1c0,0,0,-1,0,-1c0,0,1,-1,1,-1c0,-1,0,-1,0,-1c0,0,-1,0,-1,-1c0,-1,0,-1,0,-1c0,0,1,-1,1,-1l0,1l1,0c0,0,0,1,0,1l1,0c1,0,1,0,1,0c1,0,2,0,3,0c1,0,2,0,3,-1c1,0,3,0,4,0l2,0c1,0,2,0,3,0c1,0,2,0,4,0c1,-1,2,-1,2,-1l1,0c-1,-1,-1,-1,-1,-1l-1,0l-1,0c-1,0,-2,0,-4,0c-2,0,-4,0,-6,1c-2,0,-3,0,-4,0c-2,0,-4,0,-4,-1c0,-1,0,-1,0,-2c0,0,1,-1,1,-1l1,-1c0,-1,1,-1,2,-2c1,-1,2,-1,3,-1c0,0,0,-1,0,-1l1,0l-1,2c0,0,-1,0,-1,1c-1,0,-2,1,-3,1c-1,1,-1,2,-2,2l0,1c1,0,1,0,1,0l1,0c1,0,1,0,1,0c1,0,3,0,5,0c2,0,4,0,6,0c1,-1,3,-1,3,-1c1,0,1,0,1,0c0,0,1,0,2,1c0,0,1,0,1,1l0,1c0,0,0,1,-1,1c0,1,0,1,0,1ZM297.5,309.5l0,1l1,0l1,0l0,-1c0,1,0,1,0,1c0,0,1,0,1,0l0,-1l0,-1l1,0l0,1l0,1c-1,0,-1,1,-1,1l-1,0c-1,0,-1,1,-1,1c-1,0,-1,0,-1,-1l0,-1l0,-1ZM302.5,307.5l-6,2c0,0,1,-1,1,-1l5,-3ZM287.5,309.5c0,0,1,0,1,0c0,-1,0,-1,1,-1c0,1,0,1,0,1c0,1,0,1,0,1l0,1l1,0l-1,2l-1,-1l-1,1c0,0,0,1,0,1l-1,0l-1,0l1,-1c0,0,1,0,1,-1l1,0l-1,-1l0,-1l0,-1ZM288.5,310.5l0,-1l0,1l0,1l0,-1ZM280.5,321.5l0,1l1,0c0,-1,0,-1,-1,-1ZM281.5,329.5c-1,0,-1,0,-1,0c0,1,-1,1,-1,1c0,0,-1,0,-1,0l-1,0c0,0,-1,0,-1,0c-1,0,-1,-1,-1,-1l1,0c1,0,1,0,1,0c0,0,1,0,1,0c1,0,1,0,1,-1c0,0,1,0,1,0c0,-1,1,-1,1,-1c0,0,0,-1,0,-1c1,-1,1,-1,1,-2l-1,0l-1,0c-1,0,-1,0,-1,0l0,-1c0,-1,0,-1,0,-1c0,-1,0,-1,1,-2c0,-1,1,-1,1,-1l1,1c0,1,0,1,1,1c0,0,0,1,0,1c0,1,0,1,0,1c0,1,0,1,0,1c0,1,-1,2,-1,3c0,0,0,1,-1,1c0,0,0,1,0,1Z" class="g2_48" />
<path fill-rule="evenodd" d="M352.5,498.5l-1,-1l1,-1l1,1ZM235.5,491.5l0,1l1,0l1,0l0,-1l0,1c0,0,1,0,1,0c0,0,0,-1,0,-1l0,-1l1,0l0,1l0,1l-1,0c0,0,0,1,0,1l-1,0l0,-1l0,1c-1,0,-1,0,-1,0c-1,0,-1,0,-1,0l0,-1l0,-1ZM240.5,488.5l-6,3c0,-1,0,-1,1,-1l5,-3ZM111.5,500.5c0,1,0,2,0,2c0,0,0,1,-1,1l0,1l1,1l-1,0l0,1l-1,0l0,1l-1,0l-1,1l-1,0l-1,0l-1,0l0,1l-1,1l-1,0c0,1,0,1,0,1l-3,0l-3,0c0,-1,0,-1,-1,-1l0,-1c-1,0,-1,0,-1,-1c-1,0,-2,0,-3,0l0,-1l-1,0l-1,-1l-1,0l0,-1l-1,0l1,0l1,-1l-1,0l0,-1l-1,-1l0,-1l0,-1l0,-1c0,-1,0,-1,1,-2l1,-1l-1,0l-1,0l0,-1c0,0,1,0,1,0l1,-1l1,0l0,-1l1,0l1,-1l2,0l1,-1l0,-1c1,0,1,0,1,0l3,0l3,0l1,0l0,1l1,0l0,1l2,1l1,0c1,0,1,0,1,0l1,1c1,1,1,1,2,1l0,1l-1,0l0,1l1,0l0,1l0,1ZM102.5,510.5l1,0l0,-1l1,-1c1,0,1,0,2,0l1,-1c0,0,1,0,1,0l0,-1l1,0l1,-1l-1,-1l1,0l0,-1l1,-1l0,-1l0,-1c0,-1,0,-1,0,-2c-1,0,-1,0,-1,0l0,-1l0,-1l-1,0l1,-1l-1,0l0,-1l-1,0l0,-1l-1,0l-1,0l-2,-1l-1,-1l0,-1l-1,0l-1,0l-2,0l-1,0l-2,0l-1,1l0,1c-1,0,-1,0,-1,0l-2,1l-1,0l-1,0l0,1l-1,1c0,0,-1,0,-1,0l1,1l-1,1l0,1l0,1l-1,0c0,1,0,1,0,1l0,1l1,1l0,1l1,1l-1,1l1,1l1,0l0,1l1,0l1,0l0,1l1,0l1,0c0,0,1,0,1,1l1,1l3,0ZM108.5,495.5l-1,1l0,-1l-1,0l0,-1l-1,0c0,0,-1,0,-1,0c1,0,1,0,1,0l-1,-1c1,0,1,0,1,0l0,1l1,0c0,0,1,0,1,0l0,1l1,0ZM108.5,505.5l-1,1l-1,0l0,1l-1,0l-1,0l1,0c0,-1,0,-1,-1,-1c1,0,1,0,1,0l1,0c1,-1,1,-1,1,-1l1,0ZM103.5,507.5c0,0,0,1,0,1c0,0,-1,0,-1,0l-3,0l-3,0l-1,0c0,-1,0,-1,0,-1l0,-1c0,0,1,0,1,0l3,0l3,0l1,0l0,1ZM103.5,493.5c0,1,0,1,0,1l-1,1l-3,0l-3,0c0,-1,-1,-1,-1,-1l0,-1l0,-1l1,0l3,0l3,0c0,0,1,0,1,0c0,0,0,1,0,1ZM102.5,496.5l1,0l0,-1l1,0c0,0,1,0,1,1l1,0l0,1l2,-1c0,0,0,1,0,1l0,1l1,0l0,1l0,1l0,1c0,0,0,1,0,1l-1,0l0,1c0,0,0,1,0,1l-1,-1c0,0,-1,1,-1,1c0,0,-1,1,-1,1l-1,0l-1,0l-1,0l0,-1l-3,0l-3,0l0,1l-1,0l-1,0l-1,0c0,0,0,-1,-1,-1l0,-1l-1,1l-1,-1l0,-1l0,-1l-1,0l0,-1c0,0,0,-1,0,-1c0,0,1,0,1,-1l0,-1c0,0,1,-1,1,-1l1,1l0,-1l1,0c1,-1,1,-1,1,-1c1,0,1,0,1,0l1,0l0,1l3,0ZM102.5,504.5l1,0l0,1l1,0l1,0l0,-1l1,0c0,-1,0,-1,0,-1l1,0l1,0l0,-1l1,-1l0,-1c0,0,0,-1,-1,-1c0,-1,0,-1,0,-2l-1,0l-1,0l0,-1l-1,0l-1,0c0,0,-1,0,-1,0l-1,0l-3,0l-3,0l-1,0l-1,0c0,0,-1,0,-1,0l-1,1l-1,0l-1,0l0,1l0,1l0,1c0,1,0,1,0,1l0,1c0,1,1,1,1,1l1,0l0,1l1,0l0,1l1,0c1,0,1,0,1,0c1,0,1,-1,1,-1l3,0l3,0ZM100.5,498.5c1,0,1,0,1,1l0,1l0,1l1,1l-1,1c0,0,0,-1,0,-3c0,0,-1,0,-1,0c0,0,-1,0,-1,0c0,-1,0,-1,0,-1l1,0c0,-1,0,-1,0,-1ZM100.5,499.5l0,1l1,0l0,-1l-1,0ZM96.5,499.5l1,0l1,0l0,1l0,1c1,0,1,0,1,1l-1,1c0,0,0,-1,0,-1l0,-1l0,-1l-1,0c0,0,-1,0,-1,-1ZM90.5,495.5l1,0l0,-1l1,0l1,0l1,-1l0,1c-1,0,-1,0,-1,0c0,0,-1,1,-1,1l-1,0l0,1l0,-1ZM90.5,505.5l1,0c0,0,1,0,1,1l1,0l1,0l0,1l-1,0c-1,0,-1,-1,-2,-1l0,-1l-1,0ZM160.5,503.5l0,-1l0,-2l0,-8l1,-2l0,10c0,1,0,1,0,1l0,1l-1,1ZM161.5,509.5l-4,2c0,-1,1,-1,1,-1l3,-2ZM156.5,507.5l-2,-1l1,-2l2,1ZM153.5,501.5c1,0,1,0,2,0c0,0,1,0,1,-1c0,0,0,-1,0,-1l-1,0l0,-1l1,-2c0,1,0,1,0,1l0,1l1,0l0,1l0,1l0,1c0,0,-1,0,-1,0l0,1c0,0,-1,0,-1,0c-1,1,-1,1,-2,1l-1,0l-1,1c0,1,0,1,0,2c0,0,-1,0,-1,1l-1,0c0,1,0,1,-1,1c-1,0,-1,0,-1,0l-1,0c0,0,-1,0,-1,0c-1,0,-1,0,-1,0l0,-1l1,0l0,1c1,0,1,-1,2,-1l1,0c0,-1,0,-1,1,-1c0,0,0,-1,0,-1c1,0,1,0,1,-1l1,-1c0,0,0,-1,0,-1c-1,0,-1,0,-1,0c0,0,0,-1,0,-1l0,-1l1,0l0,1c1,0,1,0,1,0ZM129.5,491.5c1,-1,1,-1,1,-1c1,0,1,0,2,0c0,0,1,0,1,0c0,0,1,1,1,1c-1,0,-1,1,-1,1l-1,1l-1,0l-1,0l1,-1c1,0,1,0,2,-1c0,0,-1,0,-1,0c0,0,-1,0,-1,0c0,0,-1,0,-1,0c0,0,-1,0,-1,1l0,-1ZM153.5,492.5l0,-1c1,0,1,0,2,0c0,0,1,0,1,1c1,0,1,0,1,0c0,1,-1,1,-1,1c0,1,0,1,-1,1c-1,0,-1,0,-1,0l-1,0l1,0c1,-1,2,-1,2,-1c0,0,-1,0,-1,0l-1,0l-1,0l-1,0c0,0,0,-1,0,-1l1,0ZM336.5,492.5l0,-1c0,0,0,-1,0,-1c0,-1,-1,-1,-1,-2l1,-1c0,0,0,1,0,1c0,1,0,1,0,1l0,1c0,0,0,1,0,1c0,0,0,1,0,1ZM217.5,486.5l0,-1c0,0,-1,-1,-1,-1c0,-1,0,-2,0,-2l0,-1c1,0,1,1,1,1c0,0,0,1,0,1l0,1l0,1l0,1ZM149.5,497.5l0,-1c0,0,0,-1,0,-1c0,-1,-1,-1,-1,-2l1,0l0,-1c0,0,0,1,0,1c0,1,0,1,0,1l0,1c0,1,0,1,0,1c0,0,0,1,0,1ZM143.5,502.5c0,0,-1,0,-2,0l-1,-1c-1,0,-1,1,-1,1l-1,0c-1,0,-1,0,-1,1c-1,0,-1,0,-1,0l-1,0c-1,0,-1,0,-1,0c-1,-1,-1,-1,-1,-1c-1,-1,-1,-1,-1,-1c0,1,0,1,-1,1c0,1,-1,1,-1,1l-1,0c-1,0,-1,0,-2,-1c0,0,-1,1,-1,1c-1,0,-1,0,-2,0c0,0,-1,-1,-1,-1l0,1l-1,1l-1,1c0,0,-1,0,-2,0c-1,0,-2,1,-4,1l5,-2l1,-1c0,0,1,-1,1,-1l1,-2c0,0,1,-1,1,-1l1,-1c1,0,1,1,1,1c1,1,1,1,2,2c1,0,1,0,1,0l1,0l1,0l1,-1c0,0,0,-1,0,-1l1,0c0,0,0,1,0,1c0,0,0,1,0,1c1,0,1,0,2,0c1,0,1,0,1,0l1,0c0,0,1,0,1,0c0,-1,-1,-1,-1,-1c0,-1,0,-1,1,-1c0,0,0,-1,0,-1c0,0,0,-1,0,-1c1,0,1,0,1,0c0,-1,0,-1,0,-1l0,-1l1,0c0,0,1,0,2,1c0,0,1,1,1,1c0,1,1,1,1,2c0,1,0,1,0,1c0,1,0,1,0,1l0,1c0,0,-1,0,-1,0ZM140.5,498.5c-1,0,-1,0,-1,0l-1,0c0,0,0,1,0,1l1,0c0,0,0,1,0,1c1,0,1,-1,1,-1c0,-1,0,-1,0,-1ZM141.5,498.5c0,1,0,1,0,1c0,0,0,1,0,1l2,0l0,1l0,-1c0,0,0,-1,-1,-1l0,-1c0,0,-1,0,-1,0ZM140.5,506.5l-4,2c0,-1,0,-1,0,-1l4,-2ZM134.5,506.5l-2,-1l-1,1l-1,-1l1,-1l1,1l1,-1l1,0ZM126.5,501.5l-1,0l0,-1c0,0,-1,0,-1,0l0,1l1,0ZM121.5,493.5l4,-2l0,1l-5,2ZM192.5,499.5c0,1,-1,1,-2,2c-1,0,-2,1,-3,1c-1,0,-2,1,-3,1l-1,0c0,0,-1,0,-1,-1c-1,0,-1,-1,-1,-2l0,1c-1,0,-1,1,-1,1c0,0,-1,0,-1,1c-1,0,-1,0,-1,0c1,0,1,0,1,0c1,0,1,0,1,0l1,0l0,1l0,1c0,0,0,1,0,1c-1,0,-1,0,-1,0c0,0,0,1,-1,1c-1,1,-1,1,-2,1c-1,0,-2,1,-3,1c-1,0,-1,0,-2,-1c-1,0,-1,0,-2,-1l0,-1c0,0,-1,0,-1,-1c0,-1,1,-2,1,-2c0,-1,0,-2,1,-2c0,0,0,1,0,2c-1,0,-1,1,-1,1c1,1,1,2,1,2c1,1,2,1,3,1c0,0,1,0,1,0c0,0,1,0,1,0c0,0,1,-1,1,-1c1,0,1,0,2,0c0,-1,1,-1,1,-1c0,0,-1,-1,-2,-1c0,0,-1,0,-1,0c0,0,0,-1,0,-1c0,0,0,-1,0,-1l1,0c0,0,0,-1,1,-1c1,0,1,0,1,0c0,0,0,-1,0,-1c0,0,1,0,1,-1l0,-1l-1,-7l1,-2l1,10c0,1,0,1,0,1l0,1c1,0,1,0,1,0l1,0c1,0,2,0,2,-1c0,0,-1,0,-1,-1l0,-1c0,0,0,-1,0,-1l0,-1l1,0l0,-1l1,0c1,-1,1,-1,2,-1c1,0,1,1,1,1c0,0,1,0,1,0l0,1l-1,0l-1,0l-1,0c0,0,-1,0,-1,0c0,0,-1,1,-1,1l0,1c0,0,1,0,1,0c0,1,1,1,2,2c0,0,0,-1,0,-1l1,0l1,0l1,-1l1,0ZM184.5,490.5l4,-2l0,1l-4,2ZM177.5,479.5c1,0,1,0,2,0c1,0,1,0,1,0c1,0,1,0,1,0l1,0c0,1,-1,1,-1,1l-1,0l-1,0l-1,0l-1,0l-1,0c0,0,0,-1,1,-1ZM179.5,484.5c0,1,0,1,0,2l0,-1l0,-1c0,0,0,-1,0,-1l-1,0l0,-1c0,-1,0,-1,0,-1l1,0l0,1l0,1ZM237.5,499.5c0,1,0,1,0,1c1,0,1,0,1,0l0,-1l-1,0ZM237.5,506.5c0,1,0,1,0,1c0,0,-1,0,-1,0c0,0,-1,0,-2,0c0,0,-1,0,-2,0c0,-1,0,-1,0,-1l1,1c0,0,1,0,1,0c0,0,0,-1,1,-1c0,0,1,0,1,0c0,0,1,-1,1,-1c0,0,1,-1,1,-1l0,-1c1,-1,1,-1,1,-1c0,0,0,-1,0,-1c0,0,-1,0,-1,1l-1,0l-1,0c0,0,0,-1,0,-1l0,-1l0,-1c0,0,0,-1,0,-1c1,-1,1,-1,1,-1c0,0,1,0,1,0c1,0,1,0,1,1l0,1c0,0,1,0,1,1l0,1c0,1,0,1,0,1c0,1,-1,2,-1,2c0,1,-1,1,-1,2l-1,0ZM224.5,501.5l-1,0l0,1c0,0,-1,0,-1,0c0,1,0,1,-1,1c-1,0,-1,0,-2,-1c0,0,-1,0,-1,-1c0,0,0,1,0,1l0,1l-2,0c0,0,-1,0,-2,-1c0,0,-1,1,-1,1c-1,0,-1,0,-1,0l-1,-1l-2,-1l-1,1c0,1,0,1,-1,1l-1,0l-1,0c-1,0,-2,-1,-2,-1c-1,0,-1,-1,-1,-2l-1,-8l1,-2l1,9l0,1c1,1,1,1,2,1l1,0l1,0c1,0,1,0,1,0l1,-1l0,-1c1,-1,2,-1,3,-1l1,1l0,1l1,0l1,1l1,0c0,0,1,0,1,0c0,0,1,0,1,-1c0,-1,0,-1,0,-1c0,0,0,-1,0,-1l-1,-7l1,-2l1,10c0,1,0,1,0,1l0,1c1,0,1,0,1,0l1,0c1,0,1,0,1,0c1,0,1,0,1,-1c0,0,1,0,1,-1l0,1l1,1c1,0,1,0,2,0c0,0,0,-1,0,-1c1,0,1,0,1,0c0,0,0,-1,0,-1l1,-1l0,1l0,1c0,0,0,1,0,1l1,0l1,0l0,-1l-1,0l1,-1l0,1l1,0l0,1c-1,0,-1,0,-1,0l0,1c0,1,-1,1,-1,1c-1,0,-1,0,-1,0c0,-1,0,-1,-1,-1l-1,0l-1,1c0,0,-1,0,-1,0c0,0,-1,0,-1,-1c0,-1,0,-1,0,-1ZM224.5,490.5l4,-2l0,1l-4,2ZM213.5,501.5l-1,-1c0,0,0,-1,0,-1l-1,0l-1,1c0,0,1,0,1,1l1,0ZM211.5,486.5l-5,2l1,-1l5,-2c-1,1,-1,1,-1,1ZM206.5,486.5l1,-1l5,-2c0,0,-1,1,-1,1ZM270.5,507.5l-1,-1l1,-2l1,1ZM268.5,501.5c0,0,1,0,1,0c1,0,1,0,1,-1l1,0c0,0,-1,-1,-1,-1l0,-1l0,-2c1,1,1,1,1,1l0,1l0,1l0,1l0,1l0,1c-1,0,-1,0,-2,0c0,1,-1,1,-1,1l-1,0c0,0,-1,0,-1,0l0,1c0,1,0,1,-1,2l0,1c0,0,-1,0,-1,0c0,1,-1,1,-1,1c0,0,-1,0,-1,0c0,0,-1,0,-1,0c-1,0,-1,0,-2,0l-1,0l0,-1c1,0,1,0,1,0l1,1c0,0,1,-1,1,-1c1,0,1,0,1,0c1,-1,1,-1,1,-1c0,0,1,-1,1,-1l1,-1l0,-1c0,0,0,-1,0,-1c0,0,0,-1,0,-1l0,-1l1,1l1,0ZM268.5,490.5l4,-2l0,1l-5,2ZM261.5,492.5l1,-1l1,0c0,0,1,0,1,1c1,0,1,0,1,0c0,1,-1,1,-1,1c0,1,0,1,0,1c0,0,-1,0,-1,0c-1,0,-1,0,-1,0l-1,0l2,0c0,-1,1,-1,1,-1l-1,0c-1,0,-1,0,-2,0l-1,0c0,0,0,-1,0,-1c1,0,1,0,1,0ZM259.5,501.5l0,1l-1,0c-1,0,-1,1,-2,1l-1,0l-1,0l-1,0l0,-1c0,0,0,-1,0,-1l1,0c1,0,1,0,2,0c0,0,1,0,1,0c0,-1,1,-1,1,-1l1,0c0,0,0,-1,-1,-1c0,-1,0,-1,0,-1l-1,-1l-1,0l0,-1l-1,0l0,-2c1,0,1,0,1,0l1,1l1,0c0,0,0,1,0,1l1,1c0,0,0,1,0,1c0,1,0,1,0,1l0,1l0,1ZM252.5,491.5l5,-3c-1,1,-1,1,-1,2l-5,2ZM253.5,488.5l6,-3c-1,1,-1,1,-1,1l-5,3ZM249.5,503.5l0,-1l0,-2l-1,-8l1,-2l1,10c0,1,0,1,0,1l0,1c-1,0,-1,0,-1,1ZM309.5,490.5l-2,1c-1,0,-2,1,-3,1c-2,1,-3,1,-3,1c0,1,0,1,-1,1l1,0l0,1l2,0c0,1,1,1,1,2c1,0,1,1,1,1c0,1,0,1,0,2c0,0,0,1,0,1c0,0,0,1,0,1c-1,0,-1,0,-1,0c-1,0,-1,1,-1,1c0,0,-1,0,-1,0l-1,0l-1,0c0,0,-1,1,-1,1c0,0,0,1,0,1c0,0,-1,1,-1,1c0,0,0,1,-1,1l0,1c-1,0,-1,0,-1,0c0,0,-1,0,-1,0l-1,0c-1,0,-1,0,-2,0c0,0,0,-1,-1,-1l1,0c1,0,1,0,1,0c0,0,1,0,1,0c1,0,1,0,2,-1c1,-1,1,-1,1,-1c0,0,1,-1,1,-1l0,-1c0,0,1,0,1,0c0,0,-1,0,-1,0l-1,0c0,0,0,-1,-1,-1c0,-1,0,-1,0,-1c0,-1,0,-1,0,-1l0,-1l1,0c0,0,0,-1,0,-1c0,0,1,0,1,0c1,0,1,0,1,1c0,0,0,1,0,1c1,0,1,1,1,1c0,0,1,0,1,0l1,0c1,0,1,0,1,0c0,0,1,0,1,0c0,0,0,-1,1,-1c0,-1,0,-1,0,-1c-1,-1,-2,-1,-2,-2c0,0,-1,0,-1,0c0,0,0,-1,-1,-1c0,0,-1,0,-1,0l0,-1l0,-1l0,-1l0,-1c0,0,1,0,1,0c0,0,1,-1,3,-2c1,0,3,-1,4,-1c1,0,2,-1,2,-1ZM304.5,483.5c0,0,1,0,1,0c0,-1,0,-1,1,-1c0,1,0,1,0,1c0,1,0,1,0,1l0,1l1,0l-1,2l-1,-1l-1,1c0,0,0,1,0,1l-1,0l-1,0l1,-1c0,0,1,0,1,-1l1,0l-1,-1l0,-1l0,-1ZM305.5,484.5l0,-1l0,1l0,1l1,0l0,-1l-1,0ZM297.5,500.5l0,1c1,0,1,0,1,0l1,0c-1,0,-1,0,-1,0c0,-1,0,-1,0,-1l-1,0ZM289.5,496.5l-1,-1l0,-1l2,1ZM287.5,503.5l0,-1c0,0,1,0,1,0c0,0,1,0,1,0c1,0,1,0,1,-1c0,0,0,-1,0,-1c0,0,0,-1,0,-1l0,-1c0,0,0,-1,0,-1c1,1,1,1,1,2l0,1c0,1,0,1,0,1c0,1,0,1,0,1c-1,1,-1,1,-1,1c0,0,1,0,1,0l0,1l1,0l-1,1c0,0,0,1,0,1c-1,0,-1,1,-2,1c0,1,-1,1,-2,1c-1,0,-2,1,-3,1c0,0,-1,0,-2,-1c0,0,-1,0,-1,-1c-1,0,-1,0,-1,-1l0,-1c0,-1,0,-2,0,-2c0,-1,1,-2,1,-2c0,0,1,0,1,0c-1,0,-1,1,-1,2c0,0,0,1,0,1c0,1,0,2,1,2c0,1,1,1,2,1c1,0,1,0,1,0c0,0,1,0,1,0c1,0,1,-1,1,-1c1,0,2,0,2,0c1,-1,1,-1,1,-1c0,0,-1,-1,-1,-1c-1,0,-1,0,-1,0c-1,0,-1,0,-1,0c0,0,0,-1,0,-1ZM291.5,509.5l-4,2c1,-1,1,-1,1,-1l4,-2ZM338.5,506.5l-1,-1l-1,1l-1,-1l0,-1l2,1l1,-1l1,0ZM334.5,503.5c-1,0,-1,-1,-1,-1c0,0,-1,0,-1,0c0,0,0,-1,0,-1c0,0,0,1,-1,1c0,0,-1,0,-1,0c0,1,-1,1,-1,1l-1,0l-1,0c-1,0,-2,-1,-2,-1c-1,0,-1,-1,-1,-2l0,-8l1,-2l0,9l0,1l1,0c0,1,0,1,1,1l1,0c1,0,1,0,2,0c0,0,1,0,1,-1c0,0,1,0,1,0c1,0,1,0,1,0c0,0,0,1,0,1c1,0,1,0,1,0l1,0c1,0,1,0,2,0c0,0,1,0,1,-1c0,0,0,-1,0,-1c0,0,-1,-1,-1,-1l1,-2c0,1,0,1,0,1c0,0,0,1,0,1c1,0,1,0,1,0l0,1c0,1,0,1,0,1l0,1l-1,0l0,1c0,0,-1,0,-1,0c-1,1,-1,1,-1,1l-1,0ZM331.5,498.5l-1,-1l1,-1l1,1ZM329.5,493.5l4,-2l0,1l-4,2ZM313.5,506.5c0,0,1,0,1,0l1,0c1,0,1,0,2,-1c1,0,1,0,2,-1c0,0,1,-1,1,-1c0,-1,0,-1,0,-1c0,-1,0,-1,0,-1c0,0,0,-1,0,-1l0,-1l-1,0l1,-1l0,-1l0,1c0,0,1,0,1,1l0,1l0,1c0,0,0,1,0,1c0,1,0,1,0,1c0,0,0,1,-1,1c0,0,0,1,0,1c0,0,-1,0,-1,1l-1,0l0,1c-1,0,-1,0,-1,0c0,0,-1,0,-1,0l-1,0c0,0,-1,0,-1,0c0,-1,0,-1,-1,-1ZM318.5,490.5l1,-1c1,0,1,0,1,0c0,0,0,1,0,1c0,0,0,1,0,1c0,1,0,1,0,1l0,1l-1,0l-1,1l-1,0l0,1l-1,0l0,-1l1,0c0,0,0,-1,1,-1l1,-1l-1,0l0,-1l0,-1ZM319.5,491.5l0,-1c0,0,-1,0,-1,0c0,1,0,1,1,1ZM365.5,493.5l-2,-1l0,1l-2,-1l1,-1l2,1l0,-1l2,0ZM366.5,501.5c0,0,-1,1,-1,1c0,0,-1,0,-2,1c0,0,-1,0,-1,0l-1,0c-1,0,-1,0,-1,-1c-1,0,-1,0,-1,-1c0,0,-1,1,-1,1c0,0,-1,1,-1,1l-1,0c-1,0,-1,0,-1,0c0,0,-1,-1,-1,-1c0,0,0,-1,-1,-1c0,0,0,1,0,1c0,0,-1,0,-1,0l-1,0c0,1,-1,1,-1,1l-1,0l-1,0c-1,0,-1,-1,-2,-1c0,0,-1,-1,-1,-2l0,-8l1,-2l0,9l0,1l1,0c0,1,0,1,1,1l1,0l1,0c0,0,1,0,1,0c0,0,1,0,1,-1c1,0,1,0,1,0c1,0,1,0,1,0c0,0,0,1,1,1l1,0c1,0,1,0,1,0c1,0,1,0,1,-1c0,-1,0,-1,0,-1c0,0,0,-1,0,-1l0,-7l1,-2l0,10c0,1,0,1,1,1l0,1c0,0,1,0,1,0c1,0,2,0,3,0c0,0,1,-1,1,-1c1,0,1,0,1,-1l-1,-1c0,0,0,1,0,1c-1,0,-1,0,-1,0c-1,0,-1,0,-1,0c0,0,-1,0,-1,0c0,-1,0,-1,0,-1c0,-1,0,-1,0,-2l1,0c0,0,0,-1,0,-1c0,-1,1,-1,1,-1c1,0,1,0,1,1c0,0,1,0,1,1l0,1l0,1c1,0,1,1,1,1c0,1,0,1,-1,1c0,0,0,1,0,1ZM363.5,497.5c0,0,1,0,1,0c0,0,1,0,1,0c0,0,0,-1,-1,-1l-1,0c0,1,0,1,0,1ZM362.5,483.5c1,0,1,0,1,0c0,-1,1,-1,1,-1c1,1,1,1,1,1c0,1,0,1,0,1l-1,0l0,1l1,0l0,2l-1,-1l-1,0l0,1c-1,0,-1,1,-1,1l-1,0l-1,0l1,-1l1,0l0,-1l1,0l0,-1l-1,0l0,-1l0,-1ZM364.5,484.5l-1,-1l0,1l1,1l0,-1ZM282.5,489.5l1,0c0,-1,0,-1,1,-1c0,0,1,1,1,1c1,0,1,0,1,0l0,1l-1,1c0,0,-1,0,-1,0c-1,0,-1,0,-1,0l-1,0l2,0c0,0,1,-1,1,-1l-1,0c-1,0,-1,0,-2,0l-1,0l1,-1ZM294.5,488.5l1,0c0,-1,0,-1,1,-1c0,0,1,0,1,1c1,0,1,0,1,0l0,1c0,0,-1,0,-1,0c0,1,0,1,0,1c-1,0,-1,0,-1,0c-1,0,-1,0,-1,0l-1,0l1,0c1,0,2,-1,2,-1l-1,0l-1,0l-1,0l-1,0l0,-1c0,0,1,0,1,0ZM357.5,481.5l1,0c0,0,1,0,1,0c1,0,1,0,1,0c1,0,1,0,1,0c0,0,0,1,0,1l-1,1c0,0,-1,0,-1,0c0,1,-1,1,-1,1l-1,0l0,-1l2,0c0,0,1,-1,1,-1l-1,0c-1,0,-1,0,-2,0l-1,0c0,0,1,0,1,0c0,-1,0,-1,0,-1ZM350.5,493.5l5,-2l-1,1l-4,2Z" class="g2_48" />
</svg>