<?xml version="1.0" encoding="UTF-8" standalone="no"?>
<!DOCTYPE svg PUBLIC "-//W3C//DTD SVG 1.1//EN"
"http://www.w3.org/Graphics/SVG/1.1/DTD/svg11.dtd">
<svg version="1.1" xmlns="http://www.w3.org/2000/svg" xmlns:xlink="http://www.w3.org/1999/xlink">
<defs>
<style type="text/css"><![CDATA[
.g1_76{
stroke: #1F1A17;
stroke-width: 1;
stroke-linecap: butt;
stroke-linejoin: miter;
}
]]></style>
</defs>
<path fill-rule="evenodd" d="M344.5,50.5l0,-1c0,0,0,-1,0,-1c-1,-1,-1,-1,-1,-2l1,-1c0,0,0,1,0,1c0,1,0,1,0,1l0,1l0,1c0,0,0,1,0,1ZM289.5,59.5c0,-1,0,-1,-1,-1c-1,0,-2,0,-2,0c-1,1,-1,1,-1,1l0,-1c0,0,0,-1,0,-1l0,-1l0,-1l0,-1l-1,-1c0,1,0,1,0,1c0,0,0,1,0,2l0,1l0,1l1,1c0,0,-1,1,-1,1l-1,0c-1,0,-1,0,-1,0c0,1,0,1,0,1c1,0,1,0,1,0l1,0l1,0c1,0,1,0,2,0c0,0,1,-1,1,-1l0,-1c1,0,1,0,1,0ZM287.5,59.5c1,0,1,0,1,0c0,0,-1,1,-2,1l-1,0l0,-1c0,0,1,0,1,0l1,0ZM81.5,63.5c0,1,0,2,0,2c0,0,-1,1,-1,1l0,1c0,0,-1,0,-1,0l1,1l1,0l-1,0l-1,1l-1,0l0,1c0,0,-1,0,-1,1l-1,0l-1,0l-1,0l0,1l-1,0l0,1l-1,0c0,1,0,1,0,1l-3,0l-2,0c0,0,0,-1,0,-1l-1,-1c0,0,-1,0,-1,-1c-1,0,-2,0,-2,0l-1,-1l-1,0l0,-1l-1,0l-1,-1l1,-1l-1,0l0,-1l0,-1l-1,0l0,-1l0,-1l0,-1c1,-1,1,-1,1,-2l1,-1l-1,0c0,-1,0,-1,0,-1l1,0l0,-1l1,0l1,-1l1,-1l2,0l1,-1l1,-1l2,0l3,0l1,0l0,1l1,1l2,1l1,0l1,0l0,1l1,0c1,1,1,1,2,2l-1,0l-1,0l1,0l0,1l0,1l1,0l0,1ZM72.5,73.5l1,-1l1,-1c1,0,1,0,1,0c1,0,1,0,1,0l0,-1c1,0,1,0,2,0l0,-1c1,0,1,0,1,0l0,-1l1,0l-1,-1l1,0l0,-1l0,-1l0,-1l1,0l0,-1c0,-1,-1,-1,-1,-2l0,-1l-1,0l0,-1l1,0c0,-1,-1,-1,-1,-1l0,-1l-1,0l-1,-1l-2,0l-1,-1l-1,0l0,-1l-1,-1l-1,0l-2,0l-2,0l0,1l-1,1c0,0,-1,0,-1,0l-2,1l-1,0l0,1l-1,0l-1,1l-1,1l1,0l0,1l-1,0l0,1l0,1c0,1,0,1,0,1l0,1l0,1l0,1l1,0l0,1l-1,1l1,0l0,1l1,0l0,1l1,0l1,0l0,1l1,0l1,0c0,0,1,0,1,1l1,0l0,1l2,0ZM77.5,58.5l0,1l0,-1l-1,0l-1,0l0,-1l-1,0l0,-1l1,1l1,0c1,0,1,0,1,1ZM78.5,68.5l-1,0l0,1l-1,0l0,1l-1,0l-1,0c0,0,0,-1,0,-1c1,0,1,0,1,0l1,0c0,-1,1,-1,1,-1ZM73.5,70.5c0,0,0,1,0,1c-1,0,-1,0,-1,0l-3,0l-2,0l-1,0c0,-1,0,-1,0,-1l0,-1c0,0,1,0,1,0l2,0l3,0l1,0l0,1ZM73.5,56.5c0,1,0,1,0,1c0,0,-1,0,-1,1l-3,0l-2,0c0,-1,0,-1,-1,-1l0,-1l0,-1l1,0l2,0l3,0l1,0c0,0,0,1,0,1ZM72.5,59.5l1,-1l1,0l1,1l1,0l0,1l1,0l1,0l0,1l0,1l1,0l0,1l0,1c-1,0,-1,1,-1,1l0,1c0,0,-1,1,-1,1l-1,0l-1,0c0,0,0,1,0,1l-1,0l-1,0c-1,0,-1,0,-1,0l0,-1l-3,0l-2,0l0,1c-1,0,-1,0,-1,0c-1,0,-1,0,-2,0c0,0,0,-1,-1,-1l-1,0l-1,-1l0,-1l0,-1l0,-1c0,0,0,-1,0,-1l0,-1l0,-1c1,0,1,0,1,0l1,0l1,-1c1,-1,1,-1,2,-1l1,0l0,1l2,0ZM72.5,67.5l1,1l1,0c0,0,1,0,1,0l0,-1l1,0c0,-1,0,-1,0,-1l1,1l1,-1l0,-1l0,-1l0,-1c0,0,0,-1,0,-1c0,-1,0,-1,0,-2c-1,0,-1,0,-1,0l-1,0l-1,-1l-1,0c-1,0,-1,0,-1,0l-1,0l-3,0l-2,0l-1,0c-1,0,-1,0,-1,0l-1,0l0,1c-1,0,-1,0,-1,0l-1,0l-1,1l0,1l0,1c0,1,0,1,0,1l0,1c1,1,1,1,1,2l1,-1l0,1l1,0l1,1l1,0l1,0c0,0,0,-1,0,-1l2,0l3,0ZM71.5,61.5l0,1l1,0l-1,0c0,0,0,1,0,1l-1,0l0,1c0,1,0,1,0,1c0,0,0,1,0,1l0,-1l0,-1c0,-1,0,-1,-1,-1l0,-1l0,-1c1,1,1,1,1,1c1,0,1,0,1,-1ZM68.5,62.5l0,1c0,0,1,0,1,0l0,1l0,1c-1,0,-1,1,-1,1l0,-1c0,-1,0,-2,0,-3ZM62.5,58.5l1,-1l1,0l1,-1l0,1c0,0,-1,0,-1,0c0,0,0,1,-1,1l0,1l-1,0l0,-1ZM62.5,68.5c0,0,1,0,1,1l1,0l1,0l0,1l-1,0c-1,0,-1,-1,-2,-1l0,-1ZM154.5,66.5l0,-1l0,-2l-1,-8l1,-2l1,10c0,1,0,1,0,1l0,1c-1,0,-1,0,-1,1ZM146.5,64.5c1,0,1,0,1,0c0,0,1,0,1,0c0,0,1,0,1,0c0,-1,0,-1,0,-1l0,-2l-1,-7c0,-1,0,-1,0,-1c0,-1,1,-1,1,-1l0,1c0,0,1,0,1,1l0,1l-1,0c0,1,0,1,0,2c0,0,1,1,1,3c0,0,0,1,0,1l0,1c0,1,0,1,0,1c0,1,-1,1,-1,1l0,1c0,0,-1,0,-1,0c0,0,0,1,-1,1l-1,0l-1,0c0,0,-1,0,-2,-1c0,0,-1,1,-1,1c-1,0,-1,0,-1,0l-1,-1l-2,-1l-1,1c0,1,0,1,-1,1l-1,0l-2,0c-1,0,-1,0,-1,0c0,0,0,-1,0,-1l-1,0l0,-1l-1,1c0,0,-1,0,-1,1l-1,0l-1,0c0,0,-1,1,-1,1c0,0,0,1,0,1c0,0,-1,1,-1,1c0,0,0,1,-1,1l0,1c-1,0,-1,0,-1,0c0,0,-1,0,-1,0l-1,0c-1,0,-1,0,-2,0c0,0,0,-1,-1,-1c0,0,1,0,1,0c1,0,1,0,1,0c0,0,1,0,1,0c1,0,1,0,2,-1l1,0c0,0,0,-1,0,-1c1,0,1,-1,1,-1l0,-1c1,0,1,0,1,0l-1,0c-1,0,-1,0,-1,0c0,0,0,-1,-1,-1c0,-1,0,-1,0,-1c0,-1,0,-1,0,-1c0,-1,0,-1,0,-1l1,0c0,0,0,-1,0,-1c0,0,1,0,1,0c1,0,1,0,1,1c0,1,0,1,0,1c1,0,1,1,1,1l1,0c0,0,1,0,1,0c0,0,1,0,1,-1l1,0l1,0c0,1,0,1,0,1c1,0,1,0,1,0l2,0l1,0c1,0,1,0,1,0l1,-1l0,-1c1,-1,2,-1,3,-1l1,1l0,1l1,0l1,1l1,0l1,0ZM99.5,52.5c1,0,1,-1,1,-1c1,0,1,0,2,0c0,0,1,0,1,0c0,1,1,1,1,1c-1,1,-1,1,-1,1c0,1,0,1,-1,1l-1,0l-1,0l1,0c1,-1,1,-1,2,-1c-1,0,-1,0,-1,-1c0,0,-1,0,-1,0c0,0,-1,0,-1,1c0,0,-1,0,-1,0c0,-1,0,-1,0,-1ZM146.5,48.5c1,0,1,-1,1,-1c1,0,1,0,2,0c0,0,1,0,1,0c0,1,1,1,1,1c-1,1,-1,1,-1,1c0,0,0,1,-1,1l-1,0l-1,0l1,0c1,-1,1,-1,2,-1c0,0,-1,0,-1,-1c0,0,-1,0,-1,0c0,0,-1,0,-1,1c0,0,-1,0,-1,0c0,-1,0,-1,0,-1ZM142.5,64.5l-1,-1c0,0,0,-1,0,-1l-1,0l-1,1c0,0,1,0,1,1l1,0ZM140.5,50.5c0,0,0,-1,0,-1c1,0,1,0,1,0c0,0,1,0,1,0l0,1l0,1l0,1l0,1l-1,-1l0,1l-1,0c0,1,-1,1,-1,1l-1,0l1,-1l1,0l0,-1c0,-1,0,-1,0,-1c0,-1,0,-1,0,-1ZM141.5,50.5c-1,0,-1,0,-1,0l1,1l0,-1ZM132.5,61.5l-2,-1l0,1l-2,-1l1,-2l2,1l0,-1l2,1ZM129.5,53.5l4,-2l-1,1l-4,2ZM124.5,63.5c0,0,0,1,0,1c1,0,1,0,1,0c0,0,1,0,1,0c0,0,-1,0,-1,0c0,-1,0,-1,0,-1l-1,0ZM121.5,56.5l4,-2l0,1l-5,2ZM120.5,53.5c0,0,-1,0,-2,1c-1,0,-3,1,-4,1c-1,1,-2,1,-2,1c-1,0,-1,0,-1,0c0,1,0,1,0,1l1,1l1,0c1,1,1,1,2,2c0,0,0,1,1,1c0,1,0,1,0,2c0,0,0,1,0,1c-1,0,-1,1,-1,1l-1,0c0,0,0,1,-1,1l-1,0c-1,0,-1,0,-2,-1c0,0,-1,0,-1,-1c0,0,0,1,-1,1c0,0,0,1,0,1l-1,0l-1,0c-1,0,-1,1,-1,1c0,0,0,1,0,1c0,0,-1,1,-1,1c0,0,0,1,-1,1l-1,1c0,0,-1,0,-1,0c0,0,-1,0,-1,0c-1,0,-1,0,-2,0c0,0,0,-1,-1,-1l1,0c0,0,1,0,1,0c0,0,1,0,1,0c1,0,1,0,2,-1c1,0,1,-1,1,-1c0,0,1,-1,1,-1l0,-1l1,0c-1,0,-1,0,-1,0l-1,0c0,0,0,-1,-1,-1c0,-1,0,-1,0,-1c0,-1,0,-1,0,-1c0,-1,0,-1,0,-1l1,0c0,0,0,-1,0,-1c0,0,1,0,1,0c1,0,1,0,1,1c0,1,0,1,0,1c1,0,1,1,1,1l1,0l1,0c0,0,1,0,1,-1c0,-1,0,-1,0,-1c0,0,0,-1,0,-1l-1,-7l1,-2l1,10c0,1,0,1,0,1l0,1c1,0,1,0,1,0l1,0l1,0l1,0l1,0c0,0,0,-1,0,-1c0,-1,0,-1,0,-1c0,-1,-1,-1,-2,-2c0,0,-1,0,-1,-1c0,0,0,1,0,1c-1,0,-1,-1,-1,-1c0,0,-1,0,-1,-1l0,-1l0,-1c0,0,1,0,1,0l0,-1l1,0c0,0,1,-1,3,-2c1,0,2,-1,4,-1c0,0,1,-1,2,-1ZM113.5,48.5l1,1c0,0,0,-1,1,-1l0,-1l0,1c0,0,1,0,1,0l0,-1l1,-1l0,1l0,1l-1,1l-1,0c-1,1,-1,1,-1,1c-1,0,-1,0,-1,0l0,-1l0,-1ZM116.5,69.5l-4,2c0,-1,1,-1,1,-1l4,-2ZM108.5,46.5c1,0,1,0,1,0c0,-1,1,-1,1,-1c0,1,1,1,1,1c0,1,0,1,0,1l-1,0l0,1l1,0l0,2l-1,-1l-1,0l0,1c-1,0,-1,1,-1,1l-1,0l-1,0l1,-1l1,0l0,-1l1,0l0,-1l-1,0l0,-1l0,-1ZM110.5,47.5l-1,0l0,-1c0,0,0,1,0,1l1,1l0,-1ZM103.5,63.5c0,0,0,1,0,1c0,0,1,0,1,0l1,0c-1,0,-1,0,-1,0c0,-1,0,-1,0,-1l-1,0ZM92.5,60.5l-1,-1l1,-2l1,1ZM92.5,69.5c-1,0,-1,0,-2,0c0,0,-1,-1,-1,-1c0,0,-1,-1,-1,-1c0,-1,0,-1,0,-2c0,0,0,-1,0,-1l0,-1l0,-1c1,0,1,0,1,0c0,-1,0,-1,0,-1c0,1,0,1,0,1c0,1,0,1,0,1l0,1c-1,0,-1,0,-1,0c0,1,1,1,1,1c0,1,0,1,1,1c0,1,0,1,0,1c1,0,2,0,2,0c1,0,2,0,2,0c1,-1,2,-1,2,-2c1,0,1,0,1,-1l0,-1c-1,0,-1,0,-1,0c0,0,0,-1,0,-1c0,0,0,-1,0,-1l-1,-1l1,-2l0,1c1,0,1,1,1,1c0,0,0,1,0,1l0,1c0,1,0,1,0,1l0,1c0,1,0,1,0,2c0,0,-1,1,-1,1c-1,1,-1,1,-2,2c-1,0,-1,0,-2,0ZM88.5,53.5l4,-2l0,1l-4,2ZM211.5,56.5l-1,-1l1,-1l1,1ZM214.5,64.5l-1,0c0,0,0,1,0,1c-1,0,-1,0,-2,1c-1,0,-1,0,-2,0c-1,0,-1,0,-2,-1c0,0,-1,0,-1,-1c0,0,0,1,-1,1c0,0,0,1,0,1l-1,0c0,0,-1,0,-1,0c0,0,-1,-1,-1,-1c0,-1,0,-1,0,-1c-1,1,-1,1,-1,1c-1,1,-1,1,-2,1l-2,0l-1,0c0,0,0,-1,0,-1l-1,0l0,-1l-1,0l0,1c-1,0,-1,0,-1,1c-1,0,-1,0,-1,0l-2,0c0,0,0,1,0,1c0,0,0,1,-1,1c0,0,0,1,0,1c-1,0,-1,1,-1,1c0,0,-1,0,-1,1l-1,0c-1,0,-1,0,-1,0l-1,0c0,0,-1,0,-1,0c0,0,-1,-1,-1,-1c0,0,1,0,1,0l1,0l1,0c0,0,1,0,1,-1c1,0,1,0,1,0c0,0,1,-1,1,-1c0,0,0,-1,0,-1c1,0,1,0,1,-1l-1,0c-1,0,-1,-1,-1,-1c0,0,-1,0,-1,0c0,-1,0,-1,0,-1c0,-1,0,-1,0,-1l1,0c0,-1,0,-1,0,-1c0,0,0,-1,0,-1c1,0,1,0,1,0c1,0,1,0,1,0l1,1c0,1,0,1,0,1c0,0,0,1,0,1c1,0,1,0,1,0l1,0c0,0,1,0,1,0l1,-1l1,0c1,0,1,0,1,0c0,1,0,1,0,1c1,0,1,0,1,0l2,0c0,0,1,0,1,0c0,0,1,0,1,0c0,-1,0,-1,0,-1c0,0,1,-1,1,-1c0,0,0,1,0,1c0,0,0,1,1,1c0,0,1,0,1,0c0,0,1,0,1,0c0,0,1,0,1,-1c0,-1,0,-1,0,-1c0,0,0,-1,0,-1l-1,-7l1,-2l1,10c0,1,0,1,0,1l1,1l1,0c1,0,2,0,2,0c1,0,2,-1,2,-1c0,0,0,-1,0,-1l0,-1c0,1,0,1,0,1l-1,0l-1,0c-1,0,-1,0,-1,0c0,-1,0,-1,0,-1c0,-1,0,-1,0,-2c0,-1,0,-1,1,-1c0,-1,0,-1,1,-1l1,1l0,1l1,0l0,1l0,1c0,0,0,1,0,1c0,1,0,1,0,1c0,0,0,1,0,1ZM211.5,60.5l1,0l0,-1l-1,0ZM210.5,50.5l4,-3l0,1c0,0,-1,0,-1,1l-4,2ZM204.5,44.5c1,0,1,0,1,0c1,0,1,0,2,0c0,0,1,0,1,0c0,0,1,0,1,0c0,1,0,1,0,1c-1,0,-1,0,-1,1l-1,0l0,1c-1,0,-1,0,-1,0l-1,0l1,-1c1,0,1,-1,2,-1c0,0,-1,0,-1,0l-1,0c0,0,-1,0,-1,0l-1,0c0,-1,0,-1,0,-1ZM203.5,69.5l-2,-1l0,1l-2,-1l1,-1l2,1l0,-1l2,0ZM200.5,56.5l4,-2l0,1c-1,0,-1,0,-1,0l-4,2ZM196.5,61.5l-2,-1l0,1l-2,-1l1,-2l1,1l1,-1l2,1ZM193.5,53.5l4,-2l-1,1l-4,2ZM188.5,63.5l-1,0c0,0,0,1,0,1c0,0,1,0,1,0l1,0c0,-1,0,-1,0,-1l-1,0ZM184.5,56.5l5,-2l-1,1l-4,2ZM184.5,53.5c0,0,-1,0,-2,1c-2,0,-3,1,-4,1c-1,1,-2,1,-3,1c0,1,0,1,0,1l1,1l1,0c1,1,1,1,2,2c0,0,0,1,0,1c1,1,1,1,1,2c0,0,0,1,-1,1c0,0,0,1,0,1c0,0,-1,0,-1,0c0,0,-1,1,-1,1c0,0,-1,0,-1,0l-1,0c-1,0,-1,0,-1,-1c-1,0,-1,0,-1,-1l0,1l0,1c0,1,0,1,0,2c-1,0,-1,1,-1,1c-1,1,-1,1,-1,1c-1,0,-1,0,-1,0c-1,1,-1,1,-2,1c0,0,-1,0,-1,0l-1,0l-1,0c0,0,-1,-1,-1,-1c0,0,-1,-1,-1,-1c0,0,0,-1,0,-1c0,-1,0,-2,0,-2c0,-1,1,-1,1,-1l0,-1l0,-1l1,0l0,1l-1,0c0,1,0,1,0,1c0,1,0,1,0,1c0,1,0,2,1,2c0,1,1,1,1,1c1,0,1,0,1,0c1,0,2,0,3,-1c1,0,2,0,2,-1c0,-1,0,-1,0,-1l0,-3c0,0,0,-1,0,-1c0,-1,0,-1,0,-1l0,-7l0,-2l1,10c0,1,0,1,0,1l1,0c0,1,0,1,0,1c0,0,1,0,1,0l1,0l1,0c1,0,1,0,1,0c1,0,1,-1,1,-1c0,-1,0,-1,0,-1c-1,-1,-1,-1,-2,-2c-1,0,-1,0,-1,-1c0,0,0,1,-1,1c0,0,0,-1,0,-1c-1,0,-1,0,-1,-1l0,-1l0,-1c1,0,1,0,1,-1c1,0,2,-1,3,-2c2,0,3,-1,5,-1c0,0,1,-1,2,-1ZM177.5,48.5l0,1c0,0,1,0,1,0c0,0,0,-1,0,-1l1,-1l0,1l1,0l0,-1l0,-1l0,1l0,1l0,1l-1,0l-1,0c0,1,0,1,0,1c-1,0,-1,0,-1,0l0,-1l0,-1ZM181.5,45.5l-5,3c0,-1,0,-2,0,-2l6,-2ZM170.5,74.5l-4,2c0,-1,0,-1,0,-1l4,-2ZM238.5,66.5l0,-1l0,-2l0,-8l1,-2l0,10c0,1,0,1,0,1l0,1c0,0,-1,0,-1,1ZM234.5,65.5c-1,0,-1,0,-1,0c0,0,-1,0,-1,0c-1,0,-1,-1,-1,-2c0,1,0,1,-1,2c0,0,-1,1,-2,1c0,0,-1,0,-1,-1c-1,0,-1,-1,-1,-2c0,1,-1,1,-1,1c0,0,-1,0,-2,0c0,0,-1,0,-1,0l0,-1l0,-1l1,-1c0,0,1,0,1,0l1,-1l1,0l0,-1l0,-1l0,-1l1,2l0,1l0,2c0,0,0,1,0,1c1,1,1,1,2,1l1,-1l0,-1c0,0,0,-1,0,-2c0,-1,0,-1,0,-1c0,-1,0,-1,0,-1c0,0,0,-1,0,-1l0,-1l1,-1l0,3l0,2l0,1l0,1c1,0,1,0,1,0c0,1,0,1,1,1l1,0c0,-1,0,-1,0,-2l0,-1l0,-1l-1,-1l0,-1l1,0l0,-1l0,1c0,0,0,1,0,1l1,2c0,1,0,1,0,2c0,1,0,1,0,2c0,0,-1,0,-1,1ZM226.5,61.5l-1,0c-1,0,-1,1,-1,1c0,0,-1,0,-1,1c1,0,2,-1,2,-1c0,0,1,0,1,0ZM228.5,52.5l0,1l1,0l1,-1l0,-1l0,1c0,0,1,1,1,1c0,0,0,-1,0,-1l1,-2l0,1l0,1l0,1c0,0,0,1,-1,1l-1,0l-1,0c0,1,0,1,-1,1l0,-1l-1,0c0,-1,0,-1,1,-1l0,-1ZM226.5,69.5l-4,2c0,-1,0,-1,0,-1l4,-2ZM276.5,62.5c0,1,0,1,0,1c1,0,1,0,1,0l0,-1l-1,0ZM276.5,69.5c0,1,0,1,0,1c0,0,-1,0,-1,0c0,0,-1,0,-2,0c0,0,-1,0,-2,0c0,-1,0,-1,0,-1c0,0,0,1,1,1c0,0,1,0,1,0l1,-1c0,0,1,0,1,0c0,0,1,-1,1,-1c0,0,1,-1,1,-1l0,-1c1,-1,1,-1,1,-1c0,0,0,-1,0,-1c0,0,-1,0,-1,1l-1,0l-1,0c0,0,0,-1,0,-1l0,-1l0,-1c0,0,0,-1,0,-1c1,-1,1,-1,1,-1c0,0,1,0,1,0l1,0l0,1l0,1c0,0,1,0,1,1l0,1c0,1,0,1,0,1c0,1,-1,2,-1,3c0,0,-1,0,-1,1l-1,0ZM274.5,56.5l4,-2l-1,1l-4,2ZM270.5,62.5c0,1,-1,1,-2,2c-1,0,-2,1,-3,1c-1,0,-2,1,-3,1l-1,0c0,0,-1,0,-1,-1c0,0,-1,-1,-1,-2l0,1c0,0,0,1,-1,1c0,0,-1,0,-1,1c1,0,1,0,1,0c0,0,1,0,1,0l0,1c0,0,0,1,0,1c0,0,0,1,0,1l-1,0c0,0,0,1,-1,1c0,1,-1,1,-2,1c-1,1,-2,1,-3,1c0,0,-1,0,-2,-1c0,0,-1,0,-1,-1c-1,0,-1,0,-1,-1l0,-1c0,-1,0,-1,0,-2c0,-1,1,-2,1,-2c0,0,0,1,0,2c0,0,-1,1,-1,1c0,0,1,0,1,1c0,0,0,1,1,1c0,1,1,1,2,1l1,0c0,0,1,0,1,0c0,0,1,0,1,-1c1,0,2,0,2,0c1,-1,1,-1,1,-1c0,0,-1,-1,-1,-1c-1,0,-1,0,-2,0l0,-1c0,0,0,-1,0,-1c0,0,1,0,1,0l1,-1l1,0c0,0,0,-1,0,-1c1,0,1,0,1,-1c0,-1,0,-1,0,-1l-1,-7l1,-2l1,10c0,1,0,1,0,1l0,1l1,0l1,0l1,0c0,0,1,0,1,-1c0,0,-1,0,-1,-1l0,-1l0,-1l0,-1c0,0,1,0,1,0c0,-1,1,-1,1,-1l1,0c0,-1,0,-1,1,-1l1,0c0,1,0,1,0,1c1,0,1,0,1,0l0,1l1,0l-1,0l-1,0l-1,0l-1,0l-1,0c0,0,-1,1,-1,1l0,1c1,0,1,0,1,0c0,1,1,1,2,2c0,0,0,-1,1,-1c0,0,1,0,1,0l1,0l0,-1l1,0ZM262.5,53.5l4,-2l0,1l-4,2ZM256.5,50.5l4,-3l-1,1l0,1l-4,2ZM345.5,66.5l0,-1l0,-2l0,-8l1,-2l0,10c0,1,0,1,0,1l0,1l-1,1ZM338.5,55.5l-1,-1l0,-1l2,0ZM342.5,65.5l-1,0c-1,0,-1,1,-2,1l-1,0l-1,0l-1,0l0,-1c0,0,0,-1,0,-1c0,0,1,0,1,0c1,0,1,0,2,0c0,0,1,0,1,0c0,0,1,-1,1,-1l1,0c0,0,0,-1,-1,-1c0,-1,0,-1,0,-1l-1,-1l-1,0l0,-1l-1,0l0,-2c1,0,1,0,1,0l1,1l1,0c0,0,0,1,0,1l1,1c0,0,0,1,0,1c0,1,0,1,0,1l0,1l0,1l0,1ZM336.5,50.5l4,-3l0,1l0,1l-4,2ZM333.5,69.5l-1,-1l-1,1l-2,-1l1,-1l2,1l0,-1l2,0ZM330.5,66.5l-1,0l-1,0l-1,0c0,0,0,-1,-1,-1c0,-1,0,-1,0,-1c0,1,-1,1,-1,1c0,0,-1,1,-1,1l-1,0l-1,0c0,0,-1,0,-2,-1c0,0,-1,1,-1,1c-1,0,-1,0,-2,0l-1,-1l-1,-1l-1,1c0,1,0,1,-1,1l-1,0l-2,0c0,0,0,1,0,1c0,0,0,1,0,1c0,0,-1,1,-1,1c0,0,0,1,-1,1l-1,1c-1,0,-1,0,-1,0c0,0,-1,0,-1,0c-1,0,-1,0,-2,0c0,0,0,-1,-1,-1c1,0,1,0,1,0c0,0,1,0,1,0c0,0,1,0,1,0c1,0,1,0,2,-1c1,0,1,-1,1,-1c0,0,1,-1,1,-1l0,-1l-1,0c0,0,0,-1,-1,-1c0,-1,0,-1,0,-1c0,-1,0,-1,0,-1c0,-1,0,-1,0,-1c1,0,1,-1,1,-1c0,0,1,0,1,0c1,0,1,0,1,1c0,1,0,1,0,1c0,0,1,1,1,1l1,0c1,0,1,0,1,0c0,0,1,0,1,0l1,-1l0,-1c1,-1,2,-1,3,-1l1,1l0,1l1,0l0,1c1,0,1,0,1,0l1,0l1,0c1,0,1,0,1,0c1,0,1,0,1,0c0,-1,0,-1,1,-1c0,0,0,-1,0,-1l0,1c0,0,1,1,1,1c0,0,1,0,1,0l1,0l1,0c1,0,1,0,2,0l1,-1c0,0,0,-1,0,-1c-1,0,-1,-1,-1,-1l1,-2c0,1,0,1,0,1c0,0,0,1,0,1l0,1c1,0,1,0,1,0l0,1c-1,0,-1,0,-1,1l0,1c0,0,-1,0,-1,1c-1,0,-1,0,-2,0ZM306.5,53.5c0,0,1,0,1,0c0,0,1,0,1,0c1,0,1,0,2,0c0,0,0,1,0,1l0,1c-1,0,-1,0,-1,0c0,0,-1,0,-1,0c0,0,0,1,-1,1c0,0,-1,-1,-1,-1l2,0c1,0,1,-1,1,-1c-1,0,-1,0,-1,0c-1,0,-1,0,-1,0c-1,0,-1,0,-1,0c0,-1,0,-1,0,-1ZM329.5,51.5c1,0,1,0,1,0c1,0,1,0,2,0c0,0,1,0,1,0c0,0,1,0,1,1l-1,0c0,0,0,1,0,1c0,0,-1,0,-1,0l0,1l-1,0l-1,0l1,-1c1,0,1,0,2,-1c-1,0,-1,0,-1,0c0,0,-1,0,-1,0c0,0,-1,0,-1,0c0,0,-1,0,-1,0c0,0,0,-1,0,-1ZM327.5,60.5l-2,-1l0,1l-2,-1l1,-1l1,1l1,-2l2,1ZM324.5,50.5c0,0,1,-1,1,-1l1,0c0,0,1,0,1,1l-1,0l0,1l0,1l1,0l0,1l-2,-1l0,1c-1,1,-1,1,-1,1l-1,0l-1,0l1,0l1,-1l1,-1l-1,0c0,-1,0,-1,0,-1c0,-1,0,-1,0,-1ZM326.5,50.5l-1,0l0,1l1,0l0,-1ZM319.5,64.5l-1,-1c0,0,0,-1,0,-1l-1,0l-1,1c0,0,1,0,1,1l1,0ZM317.5,50.5c0,0,0,-1,0,-1c1,0,1,0,1,0c1,0,1,0,1,1l0,1c0,0,-1,0,-1,0l1,1l0,1l-1,-1l-1,1c0,1,-1,1,-1,1l-1,0c0,0,-1,0,-1,0l1,0l1,-1l1,0l0,-1c-1,-1,-1,-1,-1,-1c0,-1,0,-1,1,-1ZM318.5,50.5l-1,0l0,1l1,0l0,-1ZM308.5,63.5c0,0,0,1,0,1c0,0,1,0,1,0c0,-1,0,-1,0,-1c0,0,-1,0,-1,0ZM299.5,59.5l-1,-1l1,-1l1,0ZM299.5,66.5l-1,0l-2,0c-1,0,-1,0,-2,-1c0,0,0,-1,0,-2l-1,-8l1,-2l1,9l0,1c0,1,1,1,1,1l2,0l1,0c0,0,1,0,1,0c1,0,1,0,1,-1c0,0,0,-1,0,-1c0,0,0,-1,-1,-1l1,-2c0,1,0,1,1,1c0,0,0,1,0,1l0,1l0,1l0,1l-1,1l-1,1c0,0,-1,0,-1,0ZM299.5,53.5l4,-2l-1,1l-4,2ZM362.5,65.5l-1,0c-1,0,-1,0,-1,0l-1,-1l0,1c-1,0,-1,0,-1,1l-1,0l-1,0l-1,0c-1,0,-1,0,-2,-1c0,0,0,-1,0,-2l-1,-8l1,-2l0,9l0,1l1,0c0,1,1,1,1,1l1,0l1,0c1,0,1,0,1,0l1,-1l0,-1c0,0,1,-1,1,-1c1,-1,1,-1,1,-1c0,0,1,1,1,1c0,0,0,1,1,1l0,1l0,1c-1,1,-1,1,-1,1ZM360.5,63.5l1,0l1,0c-1,0,-1,0,-1,-1c-1,0,-1,0,-1,0c0,0,0,1,0,1ZM357.5,53.5l4,-2l0,1l-4,2ZM350.5,50.5l1,0l1,0c1,0,1,0,1,0l1,0l1,0c0,0,-1,1,-1,1l-1,0l-1,0l-1,0l-1,0c0,0,-1,0,-1,0c0,-1,0,-1,1,-1ZM395.5,62.5c-1,1,-2,1,-3,2c-1,0,-2,1,-3,1c-1,0,-2,1,-3,1l-1,0l-1,-1c0,0,-1,-1,-1,-2l0,1c0,0,0,1,0,1c0,0,-1,0,-1,0l0,1c-1,0,-1,0,-1,0l1,0c1,0,1,0,1,0l1,1c0,0,0,1,0,1l-1,0c0,0,0,1,0,1c-1,0,-1,1,-1,1c-1,1,-2,1,-3,1c-1,1,-1,1,-2,1c0,0,-1,0,-1,0c0,0,-1,0,-1,-1c-1,0,-2,0,-2,-1c0,0,-1,0,-1,-1l0,-1c0,-1,0,-1,0,-2c1,-1,1,-2,1,-2l1,0c-1,0,-1,1,-1,2c0,0,0,1,0,1l0,1c0,0,0,1,1,1c1,1,1,1,3,1c1,0,1,0,1,0c1,0,1,0,1,-1c1,0,2,0,3,0c0,-1,0,-1,1,-1c-1,0,-1,-1,-2,-1c-1,0,-1,0,-1,0c-1,0,-1,0,-1,-1c1,0,1,-1,1,-1c0,0,1,0,1,-1l1,0c1,0,1,-1,1,-1l0,-1c0,-1,0,-1,0,-1l-1,-7l1,-2l1,10c0,1,0,1,0,1l0,1c1,0,1,0,1,0l1,0l1,0c1,0,1,0,1,-1l0,-1c-1,0,-1,0,-1,-1l0,-1c0,0,1,0,1,0l0,-1c1,-1,1,-1,1,-1c0,0,1,0,1,0c0,-1,1,-1,1,-1c1,0,1,0,1,0c0,1,0,1,0,1l1,0l1,1l-1,0l-1,0l-1,0l-1,0c0,0,-1,0,-1,0c0,0,0,1,0,1c0,0,-1,0,-1,0c0,0,1,0,1,1c1,1,1,1,2,2c1,0,1,-1,1,-1c1,0,1,0,1,0l1,0l1,-1ZM387.5,53.5l4,-2l-1,0l0,1l-4,2ZM381.5,48.5c0,1,0,2,0,2l0,-1c0,-1,0,-1,0,-1l-1,-1l0,-1l0,-1l1,0l0,1l0,1l0,1ZM230.5,49.5c0,-1,0,-1,0,-2c0,0,0,-1,-1,-1l0,-1l1,0l0,1l1,1c0,1,0,1,0,1c0,0,-1,0,-1,1Z" class="g1_76" />
<path fill-rule="evenodd" d="M372.5,335.5l1,0c0,0,1,0,1,0c1,0,1,0,2,0l0,1l-1,1l-1,0c0,0,0,1,0,1c0,0,-1,0,-1,0c-1,0,-1,0,-1,0l2,-1c0,0,1,0,1,-1c-1,0,-1,0,-1,0c-1,0,-1,0,-2,0c0,0,0,-1,0,-1ZM112.5,297.5l1,1c0,-1,0,-1,0,-1l0,-1c-1,1,-1,1,-1,1ZM114.5,294.5l1,0l-1,0c-1,0,-1,0,-1,0l-1,0c0,-1,0,-1,-1,-1c0,0,0,1,0,1c0,0,-1,0,-1,0l0,1c0,-1,1,-1,1,-1l1,0c0,1,-1,1,-1,2c-1,0,-1,1,-1,2c0,0,0,1,1,1c1,1,1,1,2,1c0,0,1,0,1,0l1,0c0,-1,0,-1,1,-1l-1,0c0,0,-1,0,-1,0c-1,0,-2,0,-3,-1c0,0,-1,0,-1,-1c0,-1,1,-1,1,-1c0,-1,1,-1,2,-1l1,-1ZM101.5,300.5l-1,0c0,1,1,1,1,1c1,0,1,0,1,-1c0,0,-1,0,-1,0ZM101.5,307.5c0,1,0,1,-1,1c-1,0,-1,0,-2,0c-1,0,-1,0,-2,0l-1,0c0,-1,0,-1,0,-1c1,0,1,0,1,1l1,0l1,0c0,0,0,-1,0,-1c0,0,1,0,1,0c1,0,1,-1,2,-1c0,0,0,-1,0,-1c0,0,1,0,1,-1c0,-1,0,-1,0,-1c0,0,0,-1,0,-1l0,1l-1,0l-1,0c0,0,0,-1,0,-1c0,0,-1,0,-1,0c0,0,0,-1,0,-1l0,-1c1,0,1,-1,1,-1c0,-1,0,-1,1,-1c1,0,1,0,1,0l1,1l0,1l0,1l0,1c0,1,0,1,0,1c0,1,0,2,-1,2c0,1,0,1,0,2c0,0,-1,0,-1,0ZM94.5,304.5l0,-1l0,-2l0,-8l1,-2l0,10c0,0,0,1,0,1l0,1c0,0,-1,0,-1,1ZM82.5,307.5l-1,-1l1,-1l1,1ZM90.5,301.5l-1,0l-1,0c-1,0,-1,0,-2,0l-1,0l-1,0l0,1l-1,0c-1,0,-1,1,-1,1c-1,0,-1,0,-2,0c0,0,-1,1,-2,1l-1,0c0,0,-1,0,-1,0c0,-1,-1,-1,-1,-1c0,0,-1,0,-1,-1c0,0,-1,0,-1,0l0,1c-1,0,-1,0,-1,0c-1,0,-1,0,-1,1l-1,0l-1,0c-1,0,-1,0,-1,-1c-1,0,-1,0,-1,-1l0,1l0,1c0,1,0,1,-1,2c0,0,0,1,-1,1c0,0,0,1,0,1c-1,0,-1,0,-1,0c-1,1,-1,1,-2,1c0,0,-1,0,-1,0l-1,0c-1,0,-1,0,-1,0c0,0,-1,-1,-1,-1c-1,0,-1,-1,-1,-1c0,0,0,-1,0,-1c0,-1,0,-2,0,-2c0,-1,0,-1,1,-2l0,-1l1,0l-1,1c0,1,0,1,0,1c0,1,0,1,0,1c0,1,0,2,0,2c1,0,2,1,2,1c1,0,1,0,1,0c1,0,2,0,3,-1c1,0,1,0,2,-1c0,-1,0,-1,0,-1l0,-3c0,0,0,-1,0,-1c0,-1,0,-1,0,-1l-1,-7l1,-2l1,10c0,0,0,1,0,1c1,1,1,1,1,1c0,0,1,0,1,0l1,0c1,0,1,0,1,0l1,0l0,-1c0,0,1,0,1,0l-1,0c0,-1,-1,-1,-1,-1l-1,0l1,-2c1,0,1,0,1,0c1,0,1,0,1,0l1,0c0,0,1,0,1,0c1,0,1,0,1,0c0,1,0,1,0,1c0,0,0,1,0,1c-1,0,-1,1,-1,1c0,1,0,1,1,1l1,0l1,0c0,0,1,0,1,0c0,0,1,0,2,0c0,0,0,-1,1,-1l1,0l1,-1l-1,0l-1,0l0,-1l-1,0l-1,0l-1,0l0,1c0,-1,0,-1,0,-2c1,0,1,0,1,0c0,0,1,-1,1,-1l1,1l1,0l2,1l1,0l1,0l1,1c0,0,1,0,1,0l1,0ZM59.5,284.5l1,0c0,0,1,-1,1,-1c1,0,1,1,2,1l0,1l-1,1c-1,0,-1,0,-1,0c0,0,-1,0,-1,0c0,0,-1,0,-1,0l2,0c0,0,1,-1,1,-1c-1,0,-1,0,-1,0c-1,0,-1,0,-2,0l0,-1ZM81.5,288.5c1,0,1,0,1,0c1,0,1,0,2,0c0,0,1,0,1,0c1,0,1,0,1,1c0,0,-1,1,-1,1l-1,0c0,0,0,1,0,1c-1,0,-1,0,-1,0l-1,0l1,-1c1,0,2,0,2,-1c0,0,-1,0,-1,0l-1,0c0,0,-1,0,-1,0l-1,1l0,-1l0,-1ZM73.5,291.5l4,-2l-1,1l-4,2ZM154.5,304.5l0,-1l0,-2l-1,-8l1,-2l1,10c0,0,0,1,0,1l-1,1l0,1ZM152.5,287.5l4,-2l0,1l-4,2ZM149.5,303.5c0,0,-1,0,-2,0c0,0,-1,0,-1,-1l-1,0c0,0,0,1,0,1l-1,0c-1,0,-1,0,-2,1c-1,0,-1,0,-1,0c-1,0,-1,0,-2,-1l-1,-1c0,0,0,1,0,1c-1,0,-1,0,-1,1l-1,0c-1,0,-1,0,-2,0l-1,0l1,0c0,0,0,1,0,1c0,0,0,1,0,1c0,1,0,1,0,2c-1,0,-1,1,-2,1l-1,-1c0,0,-1,0,-1,-1c0,-1,0,-2,0,-3l-1,0c0,0,-1,0,-1,0l-1,0l-1,0c-1,0,-2,-1,-2,-1c-1,0,-1,-1,-1,-2l-1,-8l1,-2l1,9l0,1c1,1,1,1,2,1l1,0l1,0l1,0l1,0c0,-1,0,-1,0,-2l1,0c0,-1,0,-1,0,-1c1,-2,2,-2,2,-2c1,0,1,0,1,0l0,1l0,1c0,1,0,1,0,2c-1,0,-1,1,-2,1l1,0l1,0l1,0l1,0c0,0,1,0,1,0c0,0,1,-1,1,-1c0,-1,0,-1,0,-1c0,0,0,-1,0,-1l0,-7l0,-2l1,10c0,1,0,1,0,1l1,1l1,0c0,0,1,0,1,0l1,0l1,0c-1,-1,-1,-1,-1,-1c0,-1,0,-1,0,-1c1,0,1,-1,1,-1c0,0,0,-1,0,-1c0,0,1,0,1,0c0,-1,0,-1,0,-1l0,-1c1,0,2,0,2,1c1,0,1,1,2,1c0,1,1,1,1,1c0,1,0,1,0,1c0,1,0,1,0,1c0,0,0,1,0,1l0,1c0,0,-1,0,-1,0ZM146.5,299.5c-1,0,-1,0,-1,0l-1,0c0,0,0,1,0,1l1,0c0,0,0,1,0,1c1,0,1,-1,1,-1c0,-1,0,-1,0,-1ZM147.5,299.5c0,0,0,1,0,1c0,0,0,1,0,1l2,0l0,1c0,0,0,-1,0,-1c0,0,0,-1,-1,-1l0,-1c0,0,-1,0,-1,0ZM141.5,289.5c0,0,1,0,1,0c0,0,1,0,1,0c1,0,1,0,2,0l0,1l0,1c-1,0,-1,0,-1,0c0,1,-1,1,-1,1l-1,0c0,0,-1,0,-1,0l2,-1c1,0,1,0,1,-1c-1,0,-1,0,-1,0c-1,0,-1,0,-1,0c-1,0,-1,0,-1,0c0,0,0,-1,0,-1ZM138.5,284.5c0,-1,1,-1,1,-1c1,1,1,1,1,1c0,1,0,1,0,1l0,1c0,0,-1,0,-1,0l1,0l0,2l-1,-1l-1,0l0,1c-1,0,-1,1,-1,1l-1,0c0,0,-1,0,-1,0l1,-1l1,0l0,-1l1,0l0,-1c-1,0,-1,0,-1,-1l1,-1ZM139.5,285.5l0,-1l-1,0l0,1l1,0l0,1l0,-1ZM133.5,299.5c-1,0,-1,0,-1,0l-1,1l-1,2c1,-1,2,-1,3,-1c0,-1,0,-1,0,-1c0,-1,0,-1,0,-1ZM130.5,304.5c0,0,0,1,1,1c0,1,0,1,0,1l1,1c1,0,1,0,2,0c0,0,0,-1,0,-1c0,0,-1,-1,-2,-1c0,-1,-1,-1,-2,-1ZM128.5,288.5l5,-2l-1,1l-4,2ZM205.5,304.5l0,-1l0,-2l0,-8l1,-2l0,10c0,0,0,1,0,1l0,1l-1,1ZM198.5,302.5l1,0c1,0,1,0,1,-1l0,-2l0,-7c0,-1,0,-1,0,-1c0,-1,0,-1,0,-1c1,0,1,0,1,0c-1,0,-1,0,-1,1c0,0,1,0,1,0l1,1c0,0,-1,0,-1,1c0,1,0,1,0,2c0,0,0,1,0,3c0,0,0,1,0,1l0,1c0,0,0,1,0,1c0,1,0,1,0,1l0,1c-1,0,-1,0,-1,0c-1,0,-1,1,-1,1l-1,0l-10,0l-1,0c0,1,0,1,0,2l0,-1c0,0,0,-1,0,-1l-1,0l-2,0c0,0,-1,-1,-2,-1c0,0,0,-1,0,-2l-1,-8l1,-2l1,9l0,1c0,1,1,1,1,1l2,0l1,0l1,0c0,-1,0,-1,0,-2l0,-1l0,-1l0,-1l0,-1l0,-2l-1,-2c0,-1,0,-1,1,-1l0,-1l1,2c0,0,-1,1,-1,2l1,0l0,1l0,1l0,1l0,1l0,1l0,1l0,1l1,-1l1,-1l1,-1c0,0,1,0,1,0l1,0c0,0,1,0,1,0c1,0,1,1,1,1l0,1l0,1l-1,1l2,0l1,0ZM192.5,296.5l-1,-1l1,-1l1,1ZM195.5,301.5c0,-1,0,-1,0,-1c0,0,-1,0,-1,0l-1,0c0,0,-1,0,-2,0l-1,1l-2,1l1,0l1,0c0,0,1,0,1,0c1,0,1,0,1,0c1,-1,2,-1,3,-1ZM99.5,291.5l0,1l1,0l0,-1l0,-1l1,0l0,1c1,0,1,0,1,-1l0,1l0,1l-1,0l-1,0l0,1l-1,0l0,-1l0,-1ZM103.5,288.5l-5,3c0,-1,0,-1,0,-2l6,-2ZM187.5,286.5l1,0l0,1c0,0,1,-1,1,-1l0,-1l0,1c1,0,1,0,1,0l0,-1l1,-1l0,1l0,1c0,1,-1,1,-1,1l-1,0c-1,1,-1,1,-1,1c0,0,-1,0,-1,0c0,0,0,-1,0,-1l0,-1ZM192.5,283.5l-6,3c0,-1,1,-2,1,-2l5,-3ZM174.5,302.5c1,0,1,0,1,0c0,0,1,0,1,0l1,-1l0,-2l-1,-7c0,-1,0,-1,0,-1c0,-1,1,-1,1,-1l0,1c0,0,1,0,1,1l0,1l-1,0c0,1,0,1,0,2c0,0,1,1,1,3c0,0,0,1,0,1l0,1c0,0,0,1,0,1c0,1,-1,1,-1,1l0,1c0,0,-1,0,-1,0c0,0,0,1,-1,1l-1,0c-1,0,-1,0,-2,-1c-1,0,-1,1,-1,1l-1,0l-1,0c-1,0,-1,-1,-1,-1l-1,1c0,1,-1,1,-1,2c-1,0,-1,0,-2,0c-1,0,-3,1,-4,1l4,-2l2,-1c0,0,1,-1,1,-1l1,-2c0,0,0,-1,1,-1l0,-1l1,0c0,0,1,1,1,1c1,1,1,1,1,2c1,0,1,0,1,0c0,0,1,0,1,0ZM179.5,307.5l-4,2c0,-1,0,-1,0,-1l4,-2ZM170.5,302.5l0,-1l-1,0l0,1l1,0ZM169.5,309.5l-4,2c0,0,1,-1,1,-1l4,-2ZM251.5,304.5l0,-1l0,-2l-1,-8l1,-2l1,10c0,0,0,1,0,1l0,1c-1,0,-1,0,-1,1ZM243.5,302.5c1,0,1,0,1,0c0,0,1,0,1,0c0,0,1,0,1,-1l0,-2l-1,-7c0,-1,0,-1,0,-1c0,-1,1,-1,1,-1l0,1c0,0,1,0,1,1l0,1l-1,0c0,1,0,1,0,2c0,0,1,1,1,3c0,0,0,1,0,1l0,1c0,0,0,1,0,1c0,1,-1,1,-1,1l0,1c0,0,-1,0,-1,0c0,0,0,1,-1,1l-1,0l-1,0l-1,0c-1,0,-1,0,-2,-1c0,0,-1,0,-1,0c0,0,-1,0,-2,0c0,1,0,1,-1,1l-1,0l-1,0l0,-1l0,1l0,1c0,1,0,1,-1,2l0,1c0,0,-1,0,-1,0c0,1,-1,1,-1,1l-1,0l-1,0c-1,0,-1,0,-2,0l-1,0l0,-1c1,0,1,0,1,0l1,1c0,0,1,-1,1,-1c1,0,1,0,2,0c0,-1,0,-1,0,-1c1,0,1,-1,1,-1l1,-1l0,-1c1,0,1,-1,1,-1l-1,0c0,0,0,-1,0,-1l0,-1l1,0l0,1l1,0l1,0c1,0,1,0,1,0c0,0,1,0,1,0c0,0,0,-1,-1,-1l0,-1l1,-1c0,-1,0,-1,0,-1c1,0,1,-1,1,-1c0,0,1,-1,2,-1c0,0,0,1,1,1c0,0,0,1,0,2c0,1,0,1,0,2c-1,0,-1,1,-1,1c1,0,1,0,1,0c0,0,1,0,1,0ZM243.5,286.5c1,0,1,-1,1,-1c1,0,1,0,2,0c0,0,1,0,1,0c0,1,1,1,1,1c-1,1,-1,1,-1,1c0,0,0,1,-1,1l-1,0l-1,0l1,0c1,-1,1,-1,2,-1c0,0,-1,-1,-1,-1c0,0,-1,0,-1,0c0,0,-1,0,-1,1l-1,0c0,-1,0,-1,0,-1ZM240.5,295.5l-2,-1l-1,2l-1,-1l1,-2l1,1l1,-1l1,1ZM239.5,298.5c0,0,-1,1,-1,1c0,0,-1,0,-1,0l0,1l1,0c0,0,0,1,0,1c1,0,1,0,2,-1c0,-1,0,-1,0,-1c0,0,-1,-1,-1,-1ZM235.5,287.5l4,-2l0,1l-4,2ZM228.5,293.5l1,-1c0,0,1,0,1,0c1,0,1,0,1,1c1,0,1,0,1,0c0,1,0,1,-1,1c0,1,0,1,0,1l-1,0c0,0,-1,0,-1,0l-1,0l2,0c0,-1,1,-1,1,-1l-1,0c0,0,0,-1,0,-1c-1,0,-1,1,-2,1c0,0,0,-1,0,-1ZM226.5,307.5l-2,-1l-1,1l-1,-1l1,-1l1,1l1,-1l2,0ZM223.5,304.5l-1,0c-1,0,-1,0,-2,0c0,-1,0,-1,-1,-1c0,0,0,-1,0,-1c0,-1,0,-1,0,-1l-1,0c0,1,0,1,0,1l-1,0l-1,0c0,0,-1,0,-1,0l-1,0l0,-2c0,0,1,0,1,-1c1,0,1,-1,2,-1c1,0,1,-1,1,-1c0,-1,0,-1,0,-1l1,-1l0,2l0,1l0,1l1,2c0,0,0,1,0,1c0,0,1,0,1,0l1,0l1,0c0,0,1,0,1,0c1,0,1,0,1,-1c0,0,0,-1,0,-1c0,0,0,-1,0,-1l0,-2c0,1,1,1,1,1c0,0,0,1,0,1l0,1c0,1,0,1,0,1l0,1l0,1c-1,0,-1,0,-2,0c0,1,-1,1,-1,1ZM223.5,291.5l4,-2l-1,1l-4,2ZM218.5,295.5l-2,-1l0,1l-2,-1l1,-1l2,0l0,-1l2,1ZM218.5,298.5l0,1l-1,0c-1,1,-1,1,-1,1l1,0l1,0l1,0ZM219.5,307.5l-4,2c0,-1,0,-1,0,-1l4,-2ZM286.5,303.5c-1,0,-1,0,-2,0c0,0,-1,0,-1,-1l-1,0c0,0,0,1,0,1c0,0,-1,0,-1,0l-1,0l-1,1l-1,0l-1,0l-1,0c0,-1,0,-1,-1,-1l0,-1l0,-1l-1,1l-1,1l-1,0c0,0,-1,1,-2,1c0,0,-1,0,-1,-1l-1,0l0,-1c0,0,0,-1,0,-1l0,-1l1,0c0,1,0,1,0,1l1,1l1,0l1,0c0,0,0,-1,1,-1c0,0,1,0,1,0c0,-1,0,-1,0,-2l0,-2l0,-1l0,-2l1,2c0,0,0,1,0,1l0,3c1,0,1,1,1,1l0,1c0,0,1,0,1,0l1,0l1,0c1,0,1,0,1,0c0,-1,0,-1,0,-1c0,-1,0,-1,0,-1c0,0,0,-1,0,-1c1,0,1,0,1,0c0,0,0,-1,0,-1c0,-1,0,-1,0,-1l0,-1c1,0,1,0,1,0c1,0,1,0,2,1c1,0,1,1,2,1c0,1,0,1,1,1c0,1,0,1,0,1c0,1,0,1,0,1c0,0,0,1,0,1l0,1c-1,0,-1,0,-1,0ZM282.5,299.5c0,0,-1,0,-1,0c0,0,0,1,0,1c1,0,1,1,1,1c0,0,1,-1,1,-1c0,-1,0,-1,0,-1l-1,0ZM284.5,299.5c0,0,0,1,0,1c0,0,0,1,0,1l2,0l0,1c0,0,0,-1,0,-1c0,0,-1,-1,-1,-1l0,-1c-1,0,-1,0,-1,0ZM281.5,292.5c0,-1,0,-2,0,-2c0,-1,-1,-1,-1,-2l1,0l0,-1c0,0,0,1,0,1c0,1,0,1,0,1l0,1l1,0c-1,1,-1,1,-1,1c0,0,0,1,0,1ZM273.5,292.5l-1,-1l0,-1l2,1ZM274.5,309.5l-4,2c0,0,0,-1,0,-1l4,-2ZM263.5,304.5c-1,0,-1,0,-2,-1c0,0,-1,-1,-1,-1c0,-1,1,-1,1,-2l0,-1l1,-1c0,-1,1,-1,1,-1c0,0,1,0,1,0c1,1,1,1,1,2l0,1l0,1c0,1,0,2,-1,3c-1,0,-1,0,-1,0ZM263.5,299.5l-1,0c0,1,-1,1,-1,1c0,0,0,1,0,1c1,1,1,1,1,1l1,0l1,0c0,-1,1,-1,1,-1c0,0,-1,-1,-1,-1c0,0,-1,-1,-1,-1ZM265.5,312.5l-4,2c0,-1,0,-1,0,-1l4,-3ZM311.5,303.5l-1,0l-1,0l-1,-1l0,1l-1,0l0,1l-1,0l-2,0l0,1l0,1c0,0,0,1,0,1c-1,1,-1,1,-2,2c0,0,-1,1,-1,1c-1,1,-2,1,-3,1c0,0,-1,0,-2,-1c0,0,-1,0,-1,0c0,-1,-1,-1,-1,-1c0,-1,0,-2,0,-2c0,-1,0,-1,0,-1c0,-1,0,-1,0,-1c0,0,0,-1,0,-1c1,0,1,-1,1,-1c0,0,0,1,0,1c0,0,0,1,0,1c0,0,-1,1,-1,1c1,0,1,1,1,1c0,0,0,1,1,1c1,1,2,1,3,1c0,0,1,0,2,-1c1,0,1,0,2,-1c0,0,0,-1,0,-1c0,0,0,-1,0,-1c0,0,0,-1,0,-1l0,-1l-1,0l1,-2c1,1,1,1,2,1l1,0l1,0l1,0l0,-1l1,-1c0,0,0,-1,1,-1c0,-1,0,-1,1,-1l0,1c1,0,1,1,1,1l0,1l0,1c0,1,0,1,-1,1ZM310.5,301.5l1,0l0,-1c0,0,-1,0,-1,0l-1,0c0,0,0,1,0,1l1,0ZM311.5,307.5l-5,2c1,-1,1,-1,1,-1l4,-2ZM299.5,301.5l-1,-1l1,-1l1,1ZM298.5,288.5c1,0,1,0,1,0c1,0,1,0,2,0c0,0,1,0,1,0c0,0,1,0,1,1c-1,0,-1,1,-1,1l-1,0c0,0,0,1,0,1l-1,0l-1,0l1,-1c1,0,1,0,2,-1c0,0,-1,0,-1,0c0,0,-1,0,-1,0c0,0,-1,0,-1,0l-1,1l0,-1l0,-1ZM366.5,304.5l0,-1l0,-2l0,-8l0,-2l1,10c0,0,0,1,0,1l0,1c0,0,-1,0,-1,1ZM364.5,288.5l5,-2l-1,1l-4,2ZM354.5,295.5l-1,0l0,-2l2,1ZM362.5,301.5l-2,0c0,0,-1,0,-1,0l-1,0c0,0,-1,0,-1,0l0,1l-1,0l-1,0c0,0,-1,1,-1,1c0,0,-1,0,-1,0c-1,0,-1,1,-2,1l-1,0l-1,-1l0,1l0,1c0,1,0,1,0,2c-1,0,-1,0,-1,1l-1,0c0,1,0,1,-1,1l-1,0l-1,0c0,0,-1,0,-2,0l-1,0l0,-1c1,0,1,0,1,0l1,1c0,0,1,-1,1,-1c1,0,1,0,2,0c0,-1,0,-1,0,-1c1,0,1,-1,1,-1c0,0,1,0,1,-1l0,-1c1,0,1,-1,1,-1l-1,0c0,0,0,-1,0,-1l0,-1c1,0,1,0,1,0l0,1l1,0l1,0l1,0c0,0,1,0,1,0c1,0,1,-1,1,-1l2,0l1,-1l-1,0l-1,0l-1,-1l-1,0l-1,0l-1,1c0,-1,1,-1,1,-2l1,0c0,0,0,-1,1,-1l0,1c1,0,1,0,1,0l2,1l1,0c1,0,1,0,1,0c1,0,1,0,1,1c1,0,1,0,2,0l1,0ZM350.5,289.5c1,0,1,0,1,0c1,0,1,0,2,0c0,0,1,0,1,0c0,0,1,0,1,1c-1,0,-1,0,-1,1l-1,0c0,1,0,1,-1,1l-1,0l1,-1c1,0,1,0,2,-1c0,0,-1,0,-1,0c0,0,-1,0,-1,0c0,0,-1,0,-1,0c0,0,-1,0,-1,0c0,0,0,-1,0,-1ZM349.5,314.5l-5,2c1,-1,1,-1,1,-1l4,-2ZM336.5,307.5l-1,-1l1,-1l1,1ZM344.5,301.5l-1,0l-1,0c-1,0,-1,0,-2,0l-1,0l-1,0l0,1l-1,0l-1,0c0,0,0,1,-1,1l-1,0c-1,0,-1,1,-2,1l-1,0l-1,0c0,-1,0,-1,-1,-1c0,-1,0,-1,0,-1c0,1,-1,1,-1,1c-1,1,-1,1,-2,1l-1,0c-1,0,-2,-1,-2,-1c-1,0,-1,-1,-1,-2l-1,-8l1,-2l1,9l0,1c0,1,1,1,2,1l1,0c1,0,1,0,1,0c1,0,1,0,1,-1c1,0,1,-1,1,-1c0,0,0,1,0,1c0,0,1,1,1,1c0,0,1,0,1,0l1,0c0,0,1,0,1,0c0,0,1,0,1,0c1,0,1,-1,2,-1l1,0l1,-1l-1,0l-1,0l0,-1l-1,0l-1,0l-1,0l0,1c0,-1,0,-1,0,-2c0,0,1,0,1,0c0,0,1,-1,1,-1l0,1c1,0,1,0,1,0l1,0l2,1l1,0l1,0l1,1c0,0,1,0,1,0l1,0ZM335.5,288.5c1,0,1,0,1,0c1,0,1,0,2,0c0,0,1,0,1,0c0,0,1,0,1,1c-1,0,-1,1,-1,1l-1,0c0,0,0,1,0,1l-1,0l-1,0l1,-1c1,0,1,0,2,-1c-1,0,-1,0,-1,0c0,0,-1,0,-1,0c0,0,-1,0,-1,0c0,0,-1,0,-1,1l0,-1l0,-1ZM328.5,299.5l-1,-1l1,-1l1,1ZM325.5,291.5l4,-2l0,1l-4,2ZM391.5,307.5l1,0c1,0,2,0,3,-1c1,0,1,0,1,-1c1,0,1,-1,2,-1c0,-1,0,-1,0,-1c0,-1,0,-1,0,-1c0,0,0,-1,0,-1l-1,-1l0,-1l1,-1l0,1l1,1l0,1l0,1c0,0,0,1,0,1c0,0,0,1,0,1c0,0,-1,0,-1,0l0,1c0,0,0,1,0,1c-1,0,-1,0,-1,1c0,0,-1,0,-1,0l-1,1c-1,0,-1,0,-1,0l-1,0l-1,0c0,-1,0,-1,-1,-1ZM394.5,294.5l4,-2l-1,1l-4,2ZM390.5,307.5l-1,-1l0,-1l2,1ZM387.5,304.5l-1,0l-1,0c0,-1,0,-1,-1,-1c0,-1,0,-1,0,-1c0,1,-1,1,-1,1c-1,1,-1,1,-2,1l-1,0c-1,0,-2,-1,-2,-1c-1,0,-1,-1,-1,-2l-1,-8l1,-2l1,9l0,1c1,1,1,1,2,1l1,0c1,0,1,0,1,0c1,0,1,0,1,-1l1,0c0,0,0,-1,0,-1c0,0,0,1,0,1c0,0,1,1,1,1c0,0,1,0,1,0l1,0c1,0,1,0,2,0c0,0,1,0,1,-1c0,0,0,-1,0,-1l-1,-1l1,-2c0,1,0,1,0,1l1,0l0,1l0,1l0,1l0,1c-1,0,-1,0,-1,1c0,0,-1,0,-1,0c-1,1,-1,1,-2,1ZM387.5,292.5c0,1,1,1,1,1c0,-1,0,-1,0,-1l0,-1l1,0l0,1c1,0,1,0,1,-1l0,-1l0,1l0,1c0,1,0,1,0,1l-1,0l-1,0c0,1,0,1,-1,1c0,-1,0,-1,0,-1l0,-1ZM391.5,289.5l-5,2c0,-1,1,-1,1,-1l5,-3ZM383.5,299.5l-1,-1l1,-1l1,1ZM380.5,291.5l4,-2l0,1l-4,2ZM374.5,288.5l1,0c0,0,1,0,2,0c0,0,1,0,1,0l1,0l1,0c-1,0,-1,1,-2,1l-1,0l-1,0l-1,0l-1,0l-1,0c1,-1,1,-1,1,-1ZM278.5,346.5c0,0,1,0,1,0c0,0,0,-1,-1,-1ZM280.5,343.5l0,-1l-1,0l-1,0l-1,0l-1,0c0,1,0,1,0,1c0,0,1,0,1,0l1,0c-1,0,-1,1,-2,1c0,1,0,2,0,2c0,1,0,1,1,2c0,0,1,1,1,1c1,0,1,-1,2,-1c1,0,1,0,1,0c0,0,-1,0,-2,0c-1,0,-2,0,-2,-1c-1,0,-1,-1,-1,-1c0,-1,0,-1,1,-2c0,0,1,0,1,-1c1,0,1,0,1,0ZM56.5,331.5l0,-1l-1,0c0,0,-1,0,-2,1l0,1l0,-1l0,-1l0,-1l-1,-1l0,-1c1,0,1,0,1,0l0,-1l-1,0l0,1l0,1l0,2l0,1c0,1,0,1,0,1l-1,1l-1,0c0,0,1,1,1,1l1,0l0,-1c1,0,2,0,2,0c1,0,1,0,2,-1l0,-1ZM55.5,331.5c0,0,1,0,1,1c-1,0,-1,0,-2,0l-1,0l0,1c0,0,-1,-1,-1,-1l1,0c0,0,0,-1,1,-1ZM280.5,333.5c0,1,0,3,0,4c0,0,0,1,-1,1l-1,0c0,0,0,1,0,1c0,0,-1,0,-1,0l0,-1c0,0,1,0,1,0c1,0,1,0,1,0c0,-1,0,-1,0,-1c0,-1,0,-1,-1,-1c0,0,0,-1,0,-1c0,0,-1,0,-1,0c0,0,-1,0,-1,0l0,-1c0,-1,0,-1,0,-1c1,1,1,1,1,1c0,0,1,0,1,0c0,1,0,1,0,1c1,0,1,1,1,1c0,1,0,1,0,1c0,0,1,0,1,0c0,0,0,-1,0,-1c0,-1,0,-1,0,-1l0,-1ZM67.5,348.5c0,0,0,1,0,2c0,0,-1,0,-1,1l-1,1l2,0l-1,0l0,1l-1,0l0,1l-1,0c0,0,-1,1,-1,1l-1,0l-1,1l-1,0l-1,1l-1,1l-3,0l-4,0l-1,-1l-1,-1c-1,0,-2,-1,-3,-1l-1,0l0,-1l-1,0l0,-1l-1,0l0,-1l-1,0l2,0l-1,-1l0,-1l-1,0l0,-1c0,0,0,-1,0,-1l0,-1l0,-1c0,0,0,-1,1,-1c0,0,0,-1,0,-1l0,-1l-1,0c0,0,1,0,1,-1l1,0l0,-1l1,0l1,-1l1,0l2,-1l1,-1c0,-1,1,-1,1,-1l4,0l3,0l1,1l0,1l1,0l2,1l1,0c0,0,1,1,1,1l1,0l0,1c1,0,1,0,2,1l-2,0l1,1l0,1l1,0l0,1l0,1ZM58.5,358.5l0,-1l1,0l0,-1l1,0c1,-1,1,-1,1,-1l1,0l1,0c0,0,0,-1,1,-1l1,-1l1,-1l-1,0l0,-1l1,0l0,-1l0,-1l1,0l0,-1c0,-1,0,-2,-1,-3l0,-1l-1,0l0,-1l1,0c0,0,-1,-1,-1,-1l-1,-1l-1,0l-1,-1l-2,0c0,-1,0,-1,-1,-1l0,-1l-1,0c0,0,0,-1,0,-1l-1,0l-2,0l-4,0l0,1l-1,0l0,1c-1,0,-1,0,-1,1l-2,0l-1,1l-1,0l-1,1c0,0,-1,0,-1,1l1,0l-1,1l0,1l0,1l-1,0l0,1l0,1l0,1l1,1c0,0,0,1,0,1l1,0l0,1l-1,0l0,1l1,0l1,1l1,0l0,1l1,0l2,1l1,0l0,1c1,0,1,1,1,1l4,0ZM64.5,343.5l-1,0l-1,0l0,-1l-1,0c-1,0,-1,0,-1,0c0,-1,0,-1,0,-1l1,0l1,0c0,0,0,1,0,1c1,0,1,0,1,0ZM64.5,352.5l-1,1l0,1l-1,0l-1,0l-1,0c1,0,1,0,1,0l0,-1l1,0c0,0,1,0,1,-1ZM59.5,355.5c0,1,-1,1,-1,1l-3,0l-4,0c0,0,-1,0,-1,-1c0,-1,0,-1,0,-1c0,0,0,-1,1,-1l4,0l3,0l1,0l0,1ZM59.5,341.5l0,1c0,0,-1,0,-1,0l-3,0l-4,0c0,0,-1,0,-1,0l0,-1c0,-1,0,-1,0,-1l0,-1l1,0l4,0l3,0c0,0,1,0,1,1ZM58.5,343.5l1,0l1,0l1,0l1,1l1,0c0,0,1,0,1,0l0,1l0,1l1,0l0,1l0,1c0,1,0,1,-1,1l0,1l0,1l-1,0l-1,0l-1,1l-1,0l-1,0c0,0,-1,0,-1,0l-3,0l-4,0l-1,0l-1,0c0,0,-1,0,-1,0c0,0,-1,0,-1,-1l-1,0l-1,0l0,-2l-1,0l0,-1c0,-1,0,-1,0,-1c0,-1,0,-1,1,-1l0,-1l0,-1l1,0l1,0l1,-1c0,0,1,0,1,0c1,0,1,0,1,0l1,0l4,0ZM58.5,352.5l1,0l1,0c1,0,1,0,1,0l1,-1l1,0l1,-1l0,-1l0,-1c0,-1,0,-2,0,-2c0,-1,0,-1,0,-1c0,-1,-1,-1,-1,-1l-1,1l0,-1l-1,0l0,-1l-1,0c-1,0,-1,0,-1,0l-1,0l0,1l-3,0l-4,0l0,-1l-1,0l-1,0c-1,0,-1,0,-1,0l0,1l-1,0c0,0,0,1,0,1l-1,-1c0,0,-1,0,-1,1l0,1l0,1l0,1l0,1l0,1c0,0,0,1,1,1l1,0l1,0l0,1l1,0c1,0,1,0,1,0c0,0,1,0,1,0l4,0l0,-1l3,0ZM57.5,347.5l0,1l1,0l0,1c0,0,-1,0,-1,1l-1,0l-1,0c0,0,0,-1,0,-1l0,-1c0,0,1,0,1,0l0,-1l1,0ZM56.5,348.5l0,1l-1,0c0,0,1,0,1,0l1,0l0,-1l-1,0ZM53.5,350.5l-1,-1l0,-1l0,-1l-1,0l0,-1l1,0l0,1l0,1l1,0l0,1l0,-1l0,-1l1,0c0,-1,0,-1,1,-1l-1,1l0,1l-1,1l0,1ZM45.5,343.5l1,-1l1,-1l1,0l1,0l0,1c-1,0,-1,0,-1,0c-1,0,-1,0,-1,0l0,1l-1,0l-1,0ZM45.5,352.5l1,0c0,0,0,1,1,1l1,1l1,0l-1,0l1,0c-1,0,-1,0,-1,0c-1,0,-2,0,-2,-1l-1,0ZM108.5,343.5l-2,-1l1,-1l2,1ZM107.5,348.5c1,0,1,0,2,0c0,0,1,0,1,0c0,-1,0,-1,0,-1c0,-1,-1,-1,-1,-1l0,-1l1,-1c0,1,0,1,0,1l1,0c0,1,0,1,0,1l0,1c0,1,0,1,0,1c-1,0,-1,0,-1,0c0,1,0,1,0,1c0,0,-1,1,-1,1c-1,0,-1,0,-2,0l-1,0l-11,0c-1,0,-1,1,-1,1c0,0,0,1,0,1l0,-1l0,-1l-1,0c0,-1,-1,-1,-1,-1c0,0,-1,1,-1,1l-1,0l-1,0c-1,0,-1,0,-1,0c0,0,-1,0,-1,0c0,0,0,-1,0,-1c-1,0,-1,0,-1,-1l0,-1c0,1,-1,1,-1,1c-1,0,-1,0,-1,0l-1,1l0,1c0,1,-1,1,-1,1c0,1,0,1,0,2c-1,0,-1,0,-1,0c0,0,0,1,0,1c0,0,-1,0,-1,0l-1,1c-1,0,-1,0,-1,0l-1,0l-1,0c0,-1,0,-1,-1,-1c0,0,1,0,1,0l1,0l1,0l1,-1c0,0,1,0,1,-1c0,0,1,-1,1,-1c0,0,1,-1,1,-1c0,-1,0,-1,0,-1l-1,0l1,-2c1,0,1,0,1,0l1,0c0,-1,0,-1,1,-1c0,0,1,0,1,0c0,0,0,-1,0,-1c1,0,1,0,1,1l0,1l0,1c0,0,1,0,1,0c0,0,1,0,1,0l1,0c0,0,1,0,1,0l1,0c0,-1,1,-1,1,-1c0,0,0,1,0,1c1,0,1,0,1,0l1,0l1,-1l2,-1c1,-1,1,-1,2,-1c0,0,0,-1,1,-1l1,0c0,0,1,0,1,1c1,0,1,0,1,1l0,1c0,1,0,1,0,1l-1,1l2,-1l1,0ZM107.5,337.5l4,-2l0,1l-4,2ZM103.5,347.5c-1,-1,-1,-1,-2,-1l-1,0c0,0,-1,0,-1,0c0,1,-1,1,-1,1l-1,1l-1,1l1,0l1,0l1,-1l1,0l1,0l1,0c0,0,1,0,1,-1ZM99.5,353.5l-4,2c0,-1,0,-1,0,-1l4,-2ZM87.5,353.5l-1,-1l-1,1l-2,0l1,-2l2,1l0,-1l2,1ZM82.5,337.5l-4,3l0,-1l5,-3l0,1c0,0,-1,0,-1,0ZM78.5,338.5l0,-2l5,-2c0,1,0,1,-1,1ZM75.5,350.5l0,-1l0,-1l0,-9l1,-2l0,11c0,0,0,1,0,1c0,0,-1,1,-1,1ZM161.5,351.5l-1,-1c0,0,0,-1,0,-1c0,0,0,-1,-1,-1l0,1l-1,0c0,1,-1,1,-1,1c-1,0,-1,0,-2,0c-1,0,-1,0,-1,0c-1,0,-1,-1,-1,-1c0,0,0,-1,0,-1c0,-1,0,-1,0,-1c1,0,1,0,1,1c1,0,1,0,1,0c0,0,1,0,1,0l1,0c1,0,1,0,1,0c1,-1,1,-1,1,-1c0,0,0,-1,0,-1c0,-1,0,-1,0,-2c0,-1,0,-1,-1,-1c1,-1,1,-1,1,-1c0,-1,0,-1,0,-1l1,1c0,1,0,1,0,2c0,1,0,1,0,2c0,1,0,1,0,1l0,1c1,0,1,0,1,0l0,1c0,1,1,1,1,1c0,0,1,0,1,0l0,-1c0,0,0,-1,0,-2c0,-1,0,-1,0,-2c0,0,0,-1,0,-1c0,-1,0,-2,0,-2c0,-2,0,-2,0,-3l0,-1c0,0,0,-1,0,-1c0,0,0,-1,0,-1c1,0,1,0,1,1c0,1,0,1,1,1c0,0,0,1,-1,1l0,1c0,0,0,1,0,2c0,0,0,1,0,2c0,1,0,1,0,2l0,1c1,1,1,2,1,2c0,0,-1,0,-1,1l0,1c0,0,0,1,-1,1c-1,0,-1,0,-1,-1c-1,0,-1,0,-1,0ZM162.5,332.5l0,1l1,0l1,0l0,-1l0,-1l0,1c0,1,1,1,1,1c0,0,0,-1,0,-1l0,-1l1,0l0,1l0,1l-1,0l0,1l-1,0l0,-1l0,1c-1,0,-1,0,-1,0c-1,0,-1,0,-1,0l0,-1l0,-1ZM167.5,329.5l-6,3c0,-1,1,-1,1,-1l5,-3ZM156.5,331.5c1,0,1,-1,1,-1c0,0,1,0,1,0c0,0,1,0,1,1l-1,1l1,1l0,1l-1,-1l-1,1c-1,1,-1,1,-1,1l-1,0l-1,0l1,0l1,-1l1,-1l-1,0c0,-1,0,-1,0,-1c0,-1,0,-1,0,-1ZM158.5,331.5l-1,0l0,1l1,0l0,-1ZM147.5,343.5l-2,-1l1,-1l2,1ZM146.5,350.5l-1,0c0,0,-1,0,-1,0c-1,0,-1,-1,-1,-2c0,1,0,1,-1,2c0,0,-1,0,-2,0c0,0,-1,0,-1,0l-1,0c0,0,-1,0,-2,0c-1,0,-2,0,-3,0c-1,0,-1,0,-2,0c-1,0,-2,0,-3,0c-2,0,-3,0,-4,0c-1,0,-2,0,-2,0c0,0,-1,0,-1,0c-1,0,-1,0,-2,0l0,-1c0,0,-1,0,-1,-1c1,0,2,1,2,1c1,0,1,0,2,0c0,0,1,0,2,0c1,0,2,0,3,0c2,0,3,0,4,0c1,0,2,0,3,0c1,0,2,0,3,0c0,0,1,0,1,0c1,0,1,0,1,0c0,0,1,-1,1,-1c1,0,1,0,1,0c0,0,1,0,1,0l1,-1l0,-1c0,-1,0,-1,0,-1l-1,-7l1,-2l1,11l0,1l1,0l1,0c1,0,1,0,2,0c0,0,1,0,1,0c0,-1,0,-1,0,-1c0,-1,-1,-1,-1,-1l0,-1l1,-1c0,1,0,1,0,1c1,0,1,0,1,0c0,1,0,1,0,1l0,1c0,1,0,1,0,1l-1,0c0,1,0,1,0,1c0,0,-1,1,-1,1c-1,0,-1,0,-2,0ZM133.5,346.5c-1,1,-1,1,-1,1c-1,0,-1,0,-1,0c0,0,-1,0,-1,0l-1,-1c0,0,1,0,1,0c1,0,1,0,2,0c0,0,1,-1,1,-1l-1,0c-1,0,-1,0,-1,-1c0,-1,0,-1,0,-1c0,-1,1,-1,1,-1c0,-1,0,-1,1,-1c0,0,0,-1,1,-1l-1,2c-1,0,-1,0,-1,1l1,0c0,0,1,1,1,1c0,1,0,1,-1,2ZM126.5,341.5l1,-1l3,-1l5,-1l5,-2l1,0l-2,1l-1,1l-1,0l-1,0l-6,2l-4,2ZM189.5,350.5l-1,0l0,-1c-1,0,-1,0,-1,0l-1,0c-1,0,-1,1,-1,1l-1,0l-1,0l-1,0c0,1,0,1,0,1l0,1c0,1,-1,1,-1,2c0,0,0,1,-1,1c-1,1,-1,1,-2,2c-1,0,-2,0,-2,0c-1,0,-1,0,-2,0c-1,0,-1,-1,-2,-1c0,0,0,-1,-1,-1c0,-1,0,-1,0,-2l0,-1c0,0,0,-1,0,-1c1,0,1,0,1,-1c0,0,0,-1,0,-1l1,1l-1,0c0,1,0,1,0,1l0,1l0,1l0,1c0,0,1,0,1,0c0,0,0,1,1,1c0,0,1,0,2,0c1,0,2,0,2,0c1,0,2,-1,2,-1c0,0,1,-1,1,-1c0,-1,0,-1,0,-1c0,-1,0,-1,0,-1l-1,-1l0,-1l1,-2c0,1,0,1,0,1c0,0,1,0,1,0l1,0l1,0c1,0,1,0,1,0l1,0l0,-1c0,-1,1,-1,1,-2c1,0,1,0,1,0c0,0,1,0,1,0c0,1,0,1,1,2l0,1c0,0,0,1,0,1c-1,0,-1,0,-1,1ZM187.5,347.5l1,1l1,0l-1,-1c0,0,0,-1,0,-1c-1,0,-1,1,-1,1ZM188.5,353.5l-4,2c0,0,0,-1,0,-1l4,-2ZM176.5,348.5l-1,-1l1,-2l1,1ZM209.5,348.5c1,0,1,0,1,0c1,0,1,0,1,0c0,0,1,0,1,0c0,0,0,-1,0,-1l0,-2l-1,-6l0,-1c0,0,0,-1,0,-1c1,0,1,-1,1,-1l0,1c0,1,1,1,1,1c0,0,0,1,0,1l0,1l-1,0c0,0,0,1,1,2c0,0,0,1,0,2c0,1,0,1,0,2l0,1c0,1,0,1,0,1l-1,0c0,1,0,1,0,1c0,1,-1,1,-1,1l-1,0l-1,0c0,0,-1,0,-1,0c0,0,-1,0,-1,0c0,-1,0,-1,0,-1c-1,0,-1,0,-1,1c-1,0,-1,0,-2,0l-2,0c0,0,-1,0,-2,-1c0,0,0,-1,0,-1l-1,-9l1,-2l1,10l0,1c0,0,1,0,1,0l2,0c0,0,1,0,1,0c0,0,1,0,1,0l0,-1c0,0,1,0,1,0l0,-1l0,1c0,1,0,1,1,1c0,0,1,0,1,0ZM211.5,332.5l0,1c1,0,1,0,1,0l0,-1l1,-1l0,1c0,1,0,1,0,1c1,0,1,-1,1,-1l0,-1l0,1l0,1l0,1l-1,0l0,-1l-1,0l0,1l-1,0l0,-1l0,-1ZM215.5,329.5l-5,3c0,-1,0,-1,0,-1l6,-3ZM206.5,346.5l-1,-1l0,-2l2,1ZM203.5,337.5l4,-2l0,1l-4,2ZM265.5,346.5c0,0,0,1,0,1c0,0,1,0,1,0c0,0,0,-1,0,-1c0,0,-1,0,-1,0ZM265.5,354.5c-1,0,-1,1,-1,1c-1,0,-1,0,-2,0c0,0,-1,0,-2,-1l-1,0c1,0,1,0,1,0c1,0,1,0,1,0c0,0,1,0,1,0l1,0c0,-1,1,-1,1,-1l1,-1l1,0c0,-1,0,-1,0,-2c1,0,1,-1,1,-1c0,0,-1,0,-1,0c0,0,-1,0,-1,0l-1,0c0,0,0,-1,0,-1c0,0,0,-1,0,-1l0,-1l0,-1c0,0,1,0,1,-1l1,0c1,0,1,1,1,1c0,0,0,1,0,1c0,0,0,1,0,1c1,0,1,1,1,1c0,1,0,1,0,1l-1,0c0,1,0,2,0,3c0,0,-1,1,-1,1c0,0,0,1,-1,1ZM258.5,350.5l0,-1l1,-1l-1,-9l1,-2l0,11c0,0,0,1,0,1c0,0,0,1,-1,1ZM246.5,354.5l-1,-1l1,-2l1,1ZM254.5,347.5l-2,0c0,0,-1,0,-2,1l-1,0l-1,0l-1,1c0,0,-1,0,-1,0c0,0,-1,0,-1,1c-1,0,-2,0,-2,0l-1,0c-1,0,-1,0,-2,0l-1,0c0,-1,0,-1,-1,-1l0,-1c0,1,0,1,-1,1c0,0,-1,1,-1,1c0,0,-1,0,-1,0l-1,0l-1,0c0,0,-1,0,-1,0c0,0,-1,-1,-1,-2l0,1l0,1l0,1c0,0,0,1,0,1c-1,1,-1,1,-1,2c-1,0,-1,0,-1,0c0,0,-1,1,-1,1c0,0,-1,0,-1,0c-1,0,-1,0,-2,0l-1,0l-1,0c0,0,-1,0,-1,-1l-1,-1l0,-1c0,-1,0,-1,0,-2c1,0,1,-1,1,-1l0,-1l1,0l-1,1l0,1l0,1c0,0,0,1,1,2c0,0,1,0,2,0c1,0,2,0,3,0c1,-1,2,-1,2,-1c0,-1,0,-1,0,-1l0,-1l0,-3l0,-1c0,0,0,-1,0,-1l0,-7l1,-2l0,11c1,0,1,1,1,1c1,0,1,0,1,0l1,0c0,0,1,0,1,0l1,0l1,0l0,-1l-1,0l-1,-1l1,-1c0,-1,0,-1,1,-1l1,0c0,0,1,0,1,0c0,0,1,1,1,1l0,1l0,1l-1,0l0,1c1,0,1,0,1,0l1,0l1,0c1,0,1,0,1,0c1,0,1,0,2,0c0,0,1,0,1,0l2,-1l-1,-1l-1,0l-1,0l-1,0l-1,0c0,-1,0,-1,1,-1c0,-1,0,-1,0,-1c1,0,1,0,1,0c1,0,1,0,1,0l1,0l2,1l1,1c0,0,1,0,1,0c0,0,1,0,1,0c1,0,1,0,1,0l2,0ZM85.5,336.5c0,0,1,0,1,0c1,0,1,-1,2,-1c0,0,1,1,1,1c0,0,1,0,1,0l-1,1l0,1c0,0,-1,0,-1,0l-1,0l-1,0l-1,0l2,0c1,0,1,-1,2,-1c-1,0,-1,0,-1,0c0,0,-1,0,-1,0c0,0,-1,0,-1,0c0,0,-1,0,-1,0l0,-1ZM146.5,330.5c1,0,1,0,2,0c0,0,1,0,1,0c1,0,1,0,1,0l0,1c0,0,-1,0,-1,1l-1,0c-1,0,-1,0,-1,0l-1,0l1,0c1,0,2,-1,2,-1c0,0,-1,0,-1,0l-1,0l-1,0l-1,0l0,-1l1,0ZM225.5,332.5l1,0c0,0,1,-1,1,-1c1,0,1,1,1,1c1,0,1,0,1,0l0,1l-1,1l-1,0c0,0,-1,0,-1,0l-1,0l2,0c0,0,1,-1,1,-1l-1,0c-1,0,-1,0,-2,0l0,-1ZM246.5,335.5l1,-1c0,0,1,0,1,0c1,0,1,0,1,0c1,1,1,1,1,1c0,1,0,1,-1,1c0,1,0,1,0,1l-1,0c0,0,-1,0,-1,0l-1,0l2,0c0,-1,1,-1,1,-1l-1,0c0,-1,0,-1,0,-1c-1,0,-1,1,-2,1c0,0,0,-1,0,-1ZM237.5,337.5l4,-2l0,1l-4,2ZM307.5,346.5c0,0,0,1,0,1c1,0,1,0,1,0c0,0,0,-1,0,-1l-1,0ZM307.5,354.5c0,0,-1,1,-1,1c0,0,-1,0,-2,0c0,0,-1,0,-2,-1l1,0c0,0,1,0,1,0l1,0c0,-1,1,-1,1,-1c0,0,1,0,1,-1c0,0,1,0,1,0c0,-1,0,-1,0,-2c1,0,1,-1,1,-1c0,0,-1,0,-1,0l-1,0l-1,0c0,0,0,-1,0,-1c0,0,0,-1,0,-1l0,-1l0,-1c1,0,1,0,1,-1c0,0,1,0,1,0l1,0c0,0,0,1,0,1c0,0,0,1,0,1c0,0,1,1,1,1c0,0,0,1,0,1c0,1,0,1,0,1c0,1,-1,2,-1,3c0,0,-1,1,-1,1c0,0,0,1,-1,1ZM305.5,340.5l4,-2l-1,1l-4,2ZM298.5,348.5c0,0,1,0,1,0l1,0c0,0,1,-1,1,-1l-1,-2l0,-6l0,-1c0,0,0,-1,0,-1c0,0,0,-1,1,-1l0,1c0,1,0,1,1,1c0,0,0,1,-1,1l0,1c0,0,0,1,0,2c0,0,0,1,0,2c0,1,0,1,0,2l0,1c0,1,0,1,0,1c0,1,0,1,0,1c0,0,-1,0,-1,0c0,1,0,1,0,1c0,0,-1,0,-1,0l-1,0l-1,0c0,0,-1,0,-1,0c-1,0,-1,0,-1,-1c0,0,-1,0,-1,0c-1,1,-1,1,-2,1l-1,0l-1,0c-1,0,-1,0,-2,-1c0,0,-1,-1,-1,-1l0,-9l1,-2l0,10l0,1l1,0l1,0l1,0c1,0,1,0,1,0c1,0,1,0,2,0l0,-1c1,0,1,0,1,0c0,0,0,1,0,1c1,0,1,0,1,0c0,0,1,0,1,0l1,0ZM303.5,353.5l-5,2c1,0,1,-1,1,-1l4,-2ZM296.5,353.5l-2,-1l-1,2l-1,-1l1,-2l1,1l1,-1l2,1ZM290.5,339.5l1,1c0,0,1,-1,1,-1l0,-1l0,1c0,0,1,0,1,0l0,-1l1,-1l0,1l0,1l0,1c-1,0,-1,0,-1,0l-1,0l0,1c-1,0,-1,0,-1,0c0,0,-1,0,-1,0l0,-1l0,-1ZM289.5,338.5l5,-3c0,1,0,1,0,1l-5,3ZM291.5,335.5l5,-3c0,1,-1,1,-1,1l-5,3ZM359.5,351.5l0,-1c0,0,0,-1,-1,-1c0,0,0,-1,0,-1l0,1c-1,0,-1,0,-1,0c-1,1,-1,1,-2,1c0,0,-1,0,-1,0c-1,0,-1,0,-1,0c-1,0,-1,-1,-2,-1c0,0,0,-1,0,-1c1,-1,1,-1,1,-1l0,1c1,0,1,0,1,0c0,0,1,0,1,0c1,0,1,0,1,0c0,0,1,0,1,0c0,0,1,0,1,0c0,-1,0,-1,1,-1c0,0,0,-1,0,-1c0,-1,-1,-1,-1,-2c0,-1,0,-1,0,-1c0,-1,0,-1,0,-1c1,-1,1,-1,1,-1l0,1c0,1,0,1,0,2c1,1,1,1,1,2c0,1,0,1,0,1l0,1l0,1c1,0,1,0,1,0c0,1,0,1,1,1c1,0,1,0,1,0l0,-1c0,0,0,-1,0,-2c0,-1,0,-1,0,-2c0,0,0,-1,0,-1c0,-1,0,-2,-1,-2c0,-2,0,-2,0,-3l0,-1c0,0,0,-1,0,-1c1,0,1,-1,1,-1l0,1c0,1,1,1,1,1c0,0,0,1,0,1l0,1c0,0,0,1,0,2c0,0,0,1,0,2c0,1,0,1,0,2l0,1c0,1,0,2,0,2l0,1l0,1c0,0,-1,0,-1,0c0,0,0,1,0,1l-1,0l-1,-1l-1,0ZM361.5,332.5l0,1c1,0,1,0,1,0l0,-1l1,-1l0,1c0,1,0,1,0,1c0,0,1,-1,1,-1l0,-1l0,1l0,1l0,1l-1,0l0,-1l-1,0l0,1l-1,0l0,-1l0,-1ZM365.5,329.5l-6,3c1,-1,1,-1,1,-1l6,-3ZM355.5,331.5c0,0,0,-1,1,-1c1,0,1,0,1,0l0,1l0,1l0,1l0,1l-1,-1l0,1l-1,0c0,1,0,1,-1,1l-1,0l1,-1l1,0l0,-1l1,0l-1,0c0,-1,0,-1,0,-1c0,-1,0,-1,0,-1ZM356.5,331.5c0,0,-1,0,-1,0l1,0l0,1l0,-1ZM345.5,343.5l-1,-1l1,-1l1,1ZM345.5,350.5l-1,0c-1,0,-1,0,-1,0c-1,0,-1,-1,-1,-2c-1,1,-1,1,-1,2c-1,0,-1,0,-2,0c-1,0,-1,0,-1,0c-1,0,-1,0,-1,0c-1,0,-2,0,-2,0c-1,0,-2,0,-3,0c-1,0,-2,0,-2,0c-1,0,-3,0,-4,0c-1,0,-2,0,-3,0c-2,0,-2,0,-3,0c-1,0,-2,0,-2,0c0,0,-1,0,-1,-1l0,-1c0,0,1,1,2,1c0,0,1,0,2,0l1,0c1,0,3,0,4,0c1,0,3,0,4,0c1,0,2,0,3,0c1,0,2,0,3,0l1,0l1,0c0,0,1,-1,1,-1l1,0c1,0,1,0,1,0l0,-1l0,-1c0,-1,0,-1,0,-1l0,-7l1,-2l0,11l0,1l1,0l1,0l1,0c0,0,1,0,1,0c1,0,1,0,1,0c1,0,1,0,1,0c0,-1,0,-1,0,-1c0,0,-1,0,-1,0c0,-1,0,-1,0,-1l0,-1l1,-1c0,1,0,1,0,1c0,1,0,1,0,1l0,1c0,1,0,1,0,1c0,1,0,1,0,1c-1,0,-1,1,-2,1c0,0,-1,0,-1,0ZM332.5,346.5c0,0,-1,0,-1,0c0,1,-1,1,-1,1c-1,0,-1,0,-1,0c0,0,-1,0,-1,0l0,-1l1,0c0,0,1,0,1,0c1,0,1,-1,1,-1l-1,0l0,-1c-1,0,-1,0,-1,0c0,-1,0,-1,1,-1c0,-1,0,-1,0,-1c1,-1,1,-1,1,-1c1,0,1,-1,1,-1l0,2c0,0,-1,0,-1,0l-1,1l1,0l1,0c0,0,0,1,0,1c1,0,1,0,1,0c0,1,-1,1,-1,2ZM325.5,335.5l3,-1l6,-2l4,-2l1,0l-1,2l-1,0l-1,0l-2,1l-6,2l-3,1l-1,0ZM388.5,350.5c-1,0,-1,0,-1,0l-1,0l0,-1l-1,0l-1,0c0,0,0,1,-1,1l-1,0l-2,0c0,1,0,1,0,1l0,1c0,1,0,1,0,2c-1,0,-1,1,-1,1c-1,1,-2,1,-2,2c-1,0,-2,0,-3,0c0,0,-1,0,-1,0c-1,0,-2,-1,-2,-1c0,0,-1,-1,-1,-1c0,-1,0,-1,0,-2l0,-1c0,0,0,-1,0,-1l0,-1c1,0,1,0,1,0c0,0,0,-1,0,-1l0,1c0,1,0,1,0,1l0,1l0,1l0,1l1,0c0,0,0,1,0,1c1,0,2,0,3,0c0,0,1,0,2,0c1,0,1,-1,2,-1c0,0,0,-1,0,-1c0,-1,0,-1,0,-1c0,-1,0,-1,0,-1l0,-1l-1,-1l1,-2c0,1,0,1,0,1c1,0,1,0,2,0l1,0l1,0l1,0l1,-1c0,-1,0,-1,1,-2l1,0c1,1,1,1,1,2l0,1c0,0,0,1,0,1l0,1ZM386.5,347.5l0,1l1,0l0,-1c0,0,0,-1,-1,-1c0,0,0,1,0,1c-1,0,-1,0,-1,0l1,0ZM387.5,353.5l-5,2c1,0,1,-1,1,-1l4,-2ZM375.5,348.5l-1,-1l1,-2l1,1ZM405.5,349.5c1,0,1,0,1,0c1,0,1,0,1,0c0,0,1,0,1,0c0,0,0,-1,0,-1l0,-2l-1,-6c0,-1,0,-1,0,-1c0,0,0,-1,0,-1c1,0,1,-1,1,-1c0,1,0,1,0,1c1,0,1,1,1,1l0,1l0,1c0,0,0,1,0,1c0,1,0,1,0,3c0,0,0,1,0,1l0,1c0,1,0,1,0,1c0,0,0,1,0,1c-1,0,-1,1,-1,1l-1,1l-1,0l-1,0l-1,0c-1,0,-1,0,-1,0c0,-1,0,-1,0,-1l-1,0l-1,0c0,0,-1,1,-1,1c0,0,-1,0,-1,0l-1,0l-1,0c-1,0,-1,0,-2,-1c0,0,-1,-1,-1,-2l0,-8l1,-2l0,9l0,1l1,1l1,0l1,0c1,0,1,0,2,0c0,0,1,0,1,0c0,0,1,-1,1,-1l1,0c0,1,0,1,0,1c1,0,1,0,1,0l1,0ZM407.5,333.5l0,1l1,0l0,-1l0,-1l1,0l0,1c1,0,1,0,1,0l0,-1l0,1l0,1l-1,0l-1,0l0,1l-1,0l0,-1l0,-1ZM411.5,330.5l-5,3c0,-1,0,-1,0,-2l6,-2ZM401.5,347.5l-1,-1l1,-2l1,1ZM399.5,341.5l4,-2l0,1l-4,2ZM264.5,337.5l0,1l1,0c0,0,0,-1,0,-1l0,-1l1,0l0,1c1,0,1,0,1,-1l0,1l0,1l-1,0l-1,0l0,1l-1,0l0,-1l0,-1ZM268.5,334.5l-5,3c0,-1,0,-2,0,-2l6,-2ZM343.5,330.5c1,0,1,0,1,0c1,0,1,0,2,0c0,0,1,0,1,0c0,0,1,0,1,1c-1,0,-1,1,-1,1l-1,1l-1,0l-1,0l1,-1c1,0,1,0,2,-1c0,0,-1,0,-1,0c0,0,-1,0,-1,0c0,0,-1,0,-1,0l-1,1l0,-1l0,-1Z" class="g1_76" />
</svg>