<?xml version="1.0" encoding="UTF-8" standalone="no"?>
<!DOCTYPE svg PUBLIC "-//W3C//DTD SVG 1.1//EN"
"http://www.w3.org/Graphics/SVG/1.1/DTD/svg11.dtd">
<svg version="1.1" xmlns="http://www.w3.org/2000/svg" xmlns:xlink="http://www.w3.org/1999/xlink">
<defs>
<style type="text/css"><![CDATA[
.g1_14{
fill: #1F1A17;
stroke: #1F1A17;
stroke-width: 1;
stroke-linecap: butt;
stroke-linejoin: miter;
}
]]></style>
</defs>
<path fill-rule="evenodd" d="M232.5,504.5c0,1,-1,1,-1,1l-3,2l0,-1l1,0ZM243.5,518.5l0,-1l0,-1l0,-9l1,-2l0,11c0,0,0,1,0,1c0,0,-1,1,-1,1ZM236.5,516.5l1,0c1,0,1,0,1,0c0,0,0,-1,0,-1l0,-2l0,-6l-1,-1c0,0,1,-1,1,-1c0,0,0,-1,0,-1c0,0,0,1,0,1l1,0c0,1,0,1,1,1c-1,0,-1,1,-1,1l0,1c0,0,0,1,0,2c0,0,0,1,0,2c0,1,0,1,0,2l0,1c0,1,0,1,0,1c0,1,0,1,-1,1c0,0,0,1,0,1c-1,0,-1,0,-1,0c-1,0,-1,0,-1,0l-1,0c0,0,-1,0,-1,0c-1,0,-1,0,-1,0c0,-1,-1,-1,-1,-1l0,-1c-1,0,-1,1,-1,1l-1,0l0,1c-1,0,-1,0,-1,0l-1,0l-1,0l-1,0l-1,0c-1,0,-1,0,-2,0c0,0,-1,0,-1,-1c0,1,-1,1,-2,1c0,0,-1,0,-1,0l-1,0l-1,0c-1,1,-1,1,-1,1c0,1,0,1,0,1c0,1,-1,1,-1,2l-1,0c0,1,0,1,0,1c-1,0,-1,0,-1,0c0,0,-1,0,-1,0l-1,0c-1,0,-1,0,-2,0l-1,0c0,-1,0,-1,1,-1l0,1c1,0,1,0,1,0c0,0,1,0,1,-1c1,0,1,0,2,0c0,0,0,-1,0,-1c1,0,1,0,1,-1c0,0,1,0,1,0c0,-1,0,-1,0,-1l0,-1c0,0,1,0,1,0c-1,0,-1,0,-1,0l-1,0l-1,0c0,0,0,-1,0,-1c0,0,0,-1,0,-1c0,-1,0,-1,0,-1c0,0,0,-1,0,-1l1,0c0,0,0,-1,0,-1c0,0,1,0,1,0c1,1,1,1,1,1l0,1c1,1,1,1,1,1c0,0,1,0,1,0l1,0l1,0l1,0c0,0,-1,0,-1,-1c0,-1,0,-1,1,-2c0,0,0,-1,0,-1c1,0,1,0,1,0c0,-1,1,-1,1,-1c1,0,1,0,2,1l0,1l0,1l0,1c-1,1,-1,1,-1,1l1,0c1,0,1,0,1,0l1,0l1,0c0,0,1,0,1,0l1,0l1,-1l-1,0c0,0,-1,0,-1,-1c0,0,-1,0,-1,0l1,-1c0,-1,1,-1,1,-1c1,0,1,0,1,0l1,0l1,0l0,1l1,0l0,1l-1,0c0,1,0,1,0,1c0,1,0,1,0,1l1,0l1,0ZM223.5,510.5l-2,-1l1,-1l2,1ZM223.5,513.5c0,0,-1,0,-1,0c0,0,-1,1,-1,1c1,1,1,1,1,1c1,0,1,0,2,0c0,0,0,-1,0,-1l0,-1c-1,0,-1,0,-1,0ZM214.5,515.5l0,1c1,0,1,0,1,0l1,0c-1,0,-1,0,-1,0c0,-1,0,-1,0,-1l-1,0ZM223.5,501.5l0,2c0,-1,-1,-1,-1,-1c-1,1,-2,2,-2,2l-1,-1c1,0,2,-1,3,-1c-1,-1,-1,-1,-1,-1c0,-1,0,-1,0,-1c1,-1,1,-1,1,-1c1,0,1,0,1,1c0,0,0,1,0,1ZM222.5,501.5c0,-1,0,-1,0,-1l-1,0c0,0,1,1,1,1ZM216.5,506.5l0,1c0,0,-1,0,-1,-1c-1,2,-1,2,-2,2l-1,0c1,0,2,-1,3,-2c-1,0,-1,0,-1,-1c0,0,0,-1,0,-1c1,0,1,-1,1,-1c1,0,1,1,1,1c0,1,0,1,0,2ZM215.5,505.5c0,0,0,-1,0,-1l0,1ZM245.5,500.5l0,1l-3,1c0,0,0,-1,0,-1ZM216.5,509.5c0,1,0,2,-1,2c0,0,0,-1,0,-1c0,1,0,1,-1,1c-1,0,-1,-1,-1,-1l1,-1c0,1,0,1,0,1l1,0c0,0,0,-1,0,-1c0,0,0,1,0,1c1,0,1,-1,1,-1ZM237.5,500.5c0,1,-1,2,-2,2c0,0,1,-1,1,-1c0,0,1,0,1,-1l-1,0c-1,0,-1,0,-1,0c0,-1,0,-1,0,-1c0,0,1,0,1,0c0,0,1,0,1,0c0,1,0,1,0,1Z" class="g1_14" />
</svg>