<?xml version="1.0" encoding="UTF-8" standalone="no"?>
<!DOCTYPE svg PUBLIC "-//W3C//DTD SVG 1.1//EN"
"http://www.w3.org/Graphics/SVG/1.1/DTD/svg11.dtd">
<svg version="1.1" xmlns="http://www.w3.org/2000/svg" xmlns:xlink="http://www.w3.org/1999/xlink">
<defs>
<style type="text/css"><![CDATA[
.g1_64{
stroke: #1F1A17;
stroke-width: 1;
stroke-linecap: butt;
stroke-linejoin: miter;
}
]]></style>
</defs>
<path fill-rule="evenodd" d="M263.5,292.5l0,1l1,0l0,-1l0,-1l1,0l0,1c1,0,1,0,1,-1l0,-1l1,0l0,1l0,1l-1,1l0,1l-1,0l0,-1l-1,0l0,1c0,0,-1,0,-1,0l-1,0l0,-1l0,-1ZM235.5,254.5c0,0,-1,0,-1,0c0,1,0,1,0,1l0,1c1,0,1,0,1,0l0,-1l0,1l0,1c0,0,-1,0,-1,0l-1,0c-1,0,-1,0,-1,0c0,0,-1,0,-1,-1c0,0,1,0,1,0l0,-1l-1,0c0,1,0,1,0,1l0,1c0,0,0,1,1,1l1,0c1,0,1,0,2,-1c0,0,1,-1,1,-1c0,-1,0,-1,-1,-2ZM234.5,252.5l0,1l0,-1c1,0,1,0,1,0l0,-1c0,0,0,1,0,1l-1,0l0,-1l0,1ZM235.5,254.5c0,0,0,1,0,1c-1,0,-1,0,-1,0c0,0,0,-1,1,-1ZM86.5,259.5c0,-1,0,-1,-1,-1c-1,0,-2,0,-2,0c0,1,-1,1,-1,1l0,-1c0,0,0,-1,0,-1l0,-1l0,-1l0,-1l0,-1c-1,1,-1,1,-1,1c0,0,0,1,0,2l1,1l0,1l0,1c0,0,0,1,-1,1l-1,0c0,0,-1,0,-1,0c0,1,0,1,1,1l1,0l1,0c1,0,1,0,2,0c0,0,1,-1,1,-1l1,-1ZM84.5,259.5c1,0,1,0,1,0c0,0,-1,1,-1,1l-1,0l-1,0l0,-1c1,0,1,0,1,0l1,0ZM191.5,245.5c0,-1,0,-1,1,-1l1,0c0,0,1,0,1,0c1,0,1,1,1,1c0,1,-1,1,-1,1c0,0,0,1,0,1c-1,0,-1,0,-1,0c-1,0,-1,0,-1,0l-1,0l1,-1c1,0,2,0,2,0c0,-1,-1,-1,-1,-1l-1,0l-1,0c0,0,0,1,-1,1l0,-1l1,0ZM114.5,262.5l0,-2l0,-1l0,-8l1,-3l0,11c0,0,0,1,0,1c0,1,0,1,-1,2ZM102.5,253.5l-1,-1l1,-1l1,1ZM111.5,259.5l-1,0l-1,0c-1,0,-1,0,-2,0l-1,0l-1,0l0,1l-1,0c-1,0,-1,1,-2,1l-1,0c0,0,-1,0,-1,1l-1,0l-1,0l0,-1l0,1l0,1c-1,0,-1,1,-1,2l-1,0c0,1,0,1,0,1c-1,1,-1,1,-1,1c-1,0,-1,0,-1,0c-1,0,-1,0,-1,0l-1,0c0,0,-1,0,-1,0c-1,0,-1,0,-1,-1l1,0c1,0,1,0,2,0c0,0,1,0,1,-1c0,0,1,0,1,0c0,0,0,-1,1,-1l0,-1c0,0,1,-1,1,-1c0,0,0,-1,0,-1l-1,0c0,-1,0,-1,0,-1l0,-1c0,0,1,0,1,0l1,1l1,0c0,0,1,0,1,0c0,0,1,0,1,0c1,-1,1,-1,2,-1l1,0l1,-1l-1,0l-1,-1l-1,0l-1,0l-1,0c0,0,0,-1,0,-1c0,0,1,0,1,0c0,-1,1,-1,1,-1c1,0,1,0,1,0c0,0,0,1,0,1l1,0l2,1l1,0l1,0l1,0c0,0,1,0,1,0l1,0ZM102.5,249.5l4,-3l0,1l-1,1l-4,2ZM93.5,249.5l4,-3l0,1l0,1l-4,2ZM146.5,253.5l-2,-1l1,-1l2,1ZM154.5,259.5l-2,0c0,0,-1,0,-1,0l-1,0c0,0,-1,0,-1,0l0,1l-1,0l-1,0c0,0,-1,1,-1,1c0,0,-1,0,-1,0c-1,0,-2,1,-3,1c-1,0,-1,-1,-1,-1c-1,0,-1,-1,-1,-2c0,1,-1,2,-1,2c0,0,-1,0,-1,0l0,1l-1,0l-1,0c-1,0,-2,0,-2,-1c-1,0,-1,0,-1,0c-1,0,-1,0,-2,0c-1,0,-1,1,-2,1l-1,0l-1,0c-1,0,-1,-1,-2,-1c0,-1,-1,-1,-1,-2l0,-8l1,-3l0,10l0,1l1,0c0,1,0,1,1,1l2,0l1,0c1,0,1,0,1,0c0,-1,0,-1,0,-1l0,-1c0,0,0,-1,0,-1c0,-1,1,-1,1,-1c0,-1,0,-1,0,-1c1,0,1,-1,2,-1c0,0,1,1,1,1c0,0,0,1,0,1l0,1c0,1,0,1,0,2l-1,1c0,0,1,0,1,0c1,0,1,0,1,0l1,0c1,0,1,0,1,0c1,0,1,-1,1,-1c0,-1,0,-1,0,-1c0,0,0,-1,0,-1l0,-1l0,-6l1,-2l0,10c0,1,0,1,1,1c0,1,0,1,0,1c0,0,1,0,1,0l1,0c1,0,2,0,2,0c1,-1,1,-1,1,-1l2,0l1,-1l-1,0l-1,-1l-1,0l-1,0l-1,0l-1,0c0,0,1,-1,1,-1l1,0c0,-1,0,-1,1,-1c1,0,1,1,1,1l2,1l1,0c1,0,1,0,1,0c1,0,1,0,1,0c1,0,1,0,2,0l1,0ZM145.5,249.5l5,-3l-1,1l0,1l-4,2ZM138.5,240.5l1,0c0,0,1,-1,1,-1c1,0,1,1,1,1c1,0,1,0,1,0l0,1l-1,1c0,0,-1,0,-1,0c0,0,-1,0,-1,0l-1,0l2,0c0,0,1,-1,1,-1l-1,0c-1,0,-1,0,-2,0l-1,0l1,0l0,-1ZM134.5,253.5l-1,-1l-1,2l-2,-1l1,-2l2,1l0,-1l2,1ZM133.5,256.5l-1,1c0,1,0,1,0,1l1,1c0,0,1,-1,1,-1l1,0c0,-1,-1,-1,-1,-1c0,-1,0,-1,-1,-1ZM134.5,245.5l-5,2l0,-1l5,-2c0,1,0,1,0,1ZM129.5,245.5l0,-1l5,-2c0,0,0,1,0,1ZM200.5,262.5l0,-2l0,-1l-1,-8l1,-3l1,11c0,0,0,1,0,1c0,0,-1,0,-1,0c0,1,0,1,0,2ZM199.5,245.5l4,-2l0,1c0,0,-1,0,-1,0l-4,2ZM193.5,252.5l-1,-1l1,-1l1,1ZM194.5,260.5l1,0c1,0,1,0,1,-1c0,0,-1,0,-1,-1c0,0,0,-1,-1,-1c-1,-1,-1,-1,-1,-1c0,0,0,-1,0,-1c0,0,1,-1,1,-1l1,1l0,1c1,0,1,0,1,0c0,1,0,1,0,1c0,1,0,1,0,2l0,1c0,0,0,1,0,1c-1,0,-1,0,-1,0l-1,0c0,0,0,1,0,1l-1,0l-1,-1c0,0,-1,-1,-1,-1l0,-1l0,1c0,0,-1,0,-1,1c0,0,-1,0,-1,0c-1,0,-1,0,-2,-1l0,1c-1,0,-1,0,-1,1l-1,0c-1,0,-1,-1,-1,-2c-1,0,-1,0,-1,1c0,0,-1,0,-2,0l0,1l-1,0c-1,0,-2,-1,-2,-1c-1,-1,-1,-1,-1,-2l-1,-8l1,-3l1,10l0,1c1,1,1,1,2,1l1,0l1,0c1,-1,2,-1,2,-2l0,1c0,0,1,1,1,1c1,0,1,0,2,-1l1,-1c0,0,0,1,0,1c1,0,1,0,1,0c1,0,1,0,1,0l1,0c0,-1,0,-1,0,-1c1,1,1,2,2,2l1,0ZM186.5,253.5l-1,0l1,-2l1,1ZM188.5,256.5l-1,-1l-1,1l-2,-1l1,-1l2,1l0,-2l2,1ZM182.5,249.5l4,-3l0,1l-1,1l-4,2ZM175.5,240.5c1,0,1,0,1,0c1,0,1,-1,2,-1c0,0,1,1,1,1c0,0,1,0,1,0l0,1c-1,0,-1,0,-1,1l-1,0l-1,0l-1,0l1,0c1,0,1,-1,2,-1c0,0,-1,0,-1,0c0,0,-1,0,-1,0c0,0,-1,0,-1,0l-1,0l0,-1ZM170.5,255.5l-1,-1l1,-2l1,1ZM170.5,262.5l-1,0c-1,0,-1,0,-2,-1l-1,0c0,0,0,-1,0,-1c0,-1,0,-1,0,-1l-1,0c0,0,0,1,0,1l-1,0l-1,0c0,0,-1,0,-1,0l-1,0l0,-2c0,0,1,0,1,-1c1,0,1,-1,2,-1c1,-1,1,-1,1,-1l0,-1l0,-1l1,1c0,1,0,1,0,1c0,1,0,1,0,2l1,2l0,1l1,0l1,0l1,0c1,0,1,0,2,0c0,0,0,-1,1,-1c0,0,0,-1,-1,-1c0,0,0,-1,0,-1l1,-2c0,0,0,1,0,1c0,1,0,1,0,1l0,1c0,1,0,1,0,1c0,1,0,1,0,1c0,1,-1,1,-2,1c0,1,0,1,-1,1ZM165.5,256.5l0,1l-1,0l-1,0c0,1,0,1,0,1l1,0c1,0,1,0,1,0ZM162.5,246.5c1,-1,1,-1,1,-1c0,0,1,0,1,0c0,0,1,0,1,1l-1,1l0,1l1,0l0,1l-1,-1l-1,1c-1,1,-1,1,-1,1l-1,0l-1,0l1,0l1,-1l0,-1l1,0l-1,0c0,-1,0,-1,0,-1l0,-1ZM164.5,246.5l-1,0l0,1l1,0l0,-1ZM221.5,251.5l-1,-1l1,-2l1,1ZM223.5,253.5l-2,-1l0,1l-2,-1l1,-1l2,1l0,-1l2,1ZM220.5,262.5l-1,0c-1,0,-1,-1,-2,-1c-1,0,-1,1,-1,1l-1,0l-1,0c-1,0,-1,-1,-1,-1l-1,1c0,1,-1,1,-1,1c-1,1,-1,1,-2,1c-1,0,-3,0,-4,0l4,-2l2,0c0,0,1,-1,1,-1l1,-2c0,-1,0,-1,1,-1l0,-1l1,0c0,0,1,1,1,1c1,1,1,1,1,2c1,0,1,0,1,0c0,0,1,0,1,0l1,0c1,0,1,0,2,0c0,0,1,-1,1,-1c0,0,0,-1,0,-1c-1,0,-1,0,-1,0l0,-1l1,-2c0,0,0,1,0,1l0,1l0,1l1,0l0,1c0,0,-1,0,-1,0c0,1,0,1,0,1c0,1,-1,1,-1,1c-1,1,-1,1,-2,1ZM221.5,242.5c0,-1,1,-1,1,-1c1,0,1,1,1,1c0,0,0,1,0,1l-1,0c0,1,0,1,0,1l1,0l0,1l-1,0l-1,0l0,1c-1,0,-1,0,-1,1l-1,0l-1,0l1,-1l1,0l0,-1l1,0l0,-1c-1,0,-1,0,-1,-1l1,-1ZM222.5,243.5l-1,-1l0,1l1,0ZM215.5,260.5l0,-1l-1,0c0,1,0,1,0,1l1,0ZM212.5,250.5l0,1l1,0l0,-1c0,0,1,0,1,1c0,0,0,-1,0,-1l1,-1l0,1l0,1c0,0,0,1,-1,1c0,0,-1,0,-1,0l0,-1l0,1c0,0,-1,0,-1,0l-1,0l0,-1l0,-1ZM216.5,247.5l-6,3c1,-1,1,-1,1,-1l5,-3ZM267.5,250.5l0,3c0,0,0,1,0,1l0,1l-1,0c0,1,0,1,0,1l2,1c0,0,1,0,2,1l1,0c0,0,1,0,1,0l1,0l0,1l-1,0l-1,0l-1,0l-1,0l-1,0l-1,1l-3,1c0,0,-1,0,-1,0l-1,0l0,1l-1,0l-1,0l-1,0c0,0,-1,-1,-2,-1c0,0,-1,1,-1,1c-1,0,-1,0,-1,0l-1,-1l-2,-1l-1,1c0,0,0,1,-1,1l-1,0l-2,0c0,0,-1,-1,-1,-1c-1,-1,-1,-1,-1,-2l-1,-8l1,-3l1,10l0,1c0,1,1,1,1,1l2,0l1,0c1,0,1,0,1,0l1,-1l0,-1c1,-1,2,-2,3,-2l0,1l1,1l1,1l1,0c0,1,0,1,0,1l1,0l1,0l1,0l1,0l1,0l1,0l1,-1l1,0l1,0l-1,-1l-1,0l-1,0l0,-1l-1,0c-1,0,-1,0,-1,0l0,1c0,-1,0,-1,0,-2c0,0,1,0,1,0c1,-1,1,-1,1,-1c0,0,1,0,1,0c1,0,1,-1,1,-1c0,-1,0,-1,0,-2c0,0,0,-1,0,-2c-1,-1,-1,-1,-1,-1c0,-1,0,-1,1,-1c0,-1,0,-1,0,-1c0,1,0,1,0,1c1,0,1,1,1,1l0,1ZM264.5,242.5l4,-2l0,1l-4,2ZM258.5,246.5c0,0,1,-1,1,-1c1,0,1,0,1,0c1,0,1,0,2,0c0,1,0,1,0,1c0,1,0,1,0,1c0,1,-1,1,-1,1c0,0,-1,0,-1,0l-1,0l-1,0l2,0c1,-1,1,-1,2,-1c-1,0,-1,0,-1,-1c0,0,-1,0,-1,0c0,0,-1,0,-1,1c0,0,-1,0,-1,0c0,-1,0,-1,0,-1ZM256.5,260.5l-1,-1c0,0,0,-1,0,-1l-1,0l-1,1c0,0,1,0,1,0l1,1ZM249.5,248.5l5,-2c0,0,0,1,0,1l-5,2ZM251.5,245.5l5,-3c0,1,0,2,0,2l-5,2ZM318.5,262.5l0,-2l0,-1l0,-8l1,-3l0,11c0,0,0,1,0,1c0,1,0,1,-1,2ZM311.5,260.5l1,0c1,0,1,-1,1,-1l0,-2l0,-7c0,0,-1,0,-1,0c0,-1,1,-1,1,-1c0,-1,0,-1,0,-1c0,1,0,1,1,1l1,0c0,1,-1,1,-1,1c0,1,0,1,0,1c0,1,0,1,0,2c0,0,0,1,0,3c0,0,0,1,0,1l0,1c0,0,0,1,0,1c0,1,0,1,0,1l-1,0c0,1,0,1,0,1c-1,0,-1,0,-1,0c0,0,-1,1,-1,1l-1,0c0,0,-1,0,-1,-1c0,0,-1,0,-1,0c0,0,-1,0,-1,-1c0,0,-1,0,-1,0l0,1c-1,0,-1,0,-1,0c-1,0,-1,0,-1,0l-1,0l0,1l-1,0l-10,0c0,1,0,1,0,2l-1,-1c0,0,0,-1,0,-1l-1,0c-1,0,-2,-1,-2,-1l-1,0c0,0,0,1,0,1l-1,0l-1,0c-1,0,-1,-1,-1,-1l-1,1c0,1,-1,1,-1,1c-1,1,-1,1,-2,1c-2,0,-3,0,-4,0l4,-2l2,0c0,0,1,-1,1,-1l1,-2c0,-1,0,-1,1,-1l0,-1l1,0c0,0,1,1,1,1c0,1,1,1,1,2c0,0,1,0,1,0c0,0,1,0,1,0l1,0c1,0,1,0,1,-1c1,0,1,0,1,-1l0,-1l0,-2l0,-1l-1,-2l0,-2l0,-1l0,-1l1,0l1,2c-1,0,-1,1,-1,1l0,1l0,1l1,1l0,1l0,2l0,1l-1,1l2,-2l1,0l0,-1c1,0,1,0,2,0l1,0c0,0,1,0,1,0c1,0,1,1,1,1l0,1c0,1,0,1,-1,1l0,1l-1,0l2,0l1,0l1,0c1,0,1,0,1,0l1,0l0,-1c0,0,1,0,1,0l-1,0l0,-1c0,0,-1,0,-1,0l-1,0l1,-2c1,0,1,0,1,0c1,0,1,-1,1,-1l1,0l0,1c0,0,1,0,1,0c1,0,1,0,1,0c0,0,0,1,0,1c0,0,0,1,0,1c-1,0,-1,0,-1,1c0,0,0,1,1,1l1,0l1,0ZM311.5,244.5c0,-1,0,-1,1,-1c0,0,1,0,1,0c1,0,1,0,1,0c1,0,1,1,1,1c0,0,0,1,-1,1c0,0,0,1,0,1l-1,0c0,0,-1,0,-1,0l-1,0l2,-1c0,0,1,0,1,0c0,-1,0,-1,-1,-1c-1,0,-1,0,-2,0c0,0,0,1,0,1l0,-1ZM307.5,265.5l-4,2c0,-1,0,-1,0,-1l5,-2ZM297.5,254.5l-2,-1l1,-1l2,1ZM300.5,259.5c0,-1,0,-1,-1,-1c0,-1,-1,-1,-1,-1c-1,0,-1,1,-2,1l-1,1l-1,0l-1,1l1,0c1,0,1,0,2,0l1,0c1,-1,2,-1,3,-1ZM113.5,245.5c0,-1,0,-1,0,-2c0,-1,0,-1,0,-2c1,0,1,0,1,1l0,1l0,1c0,1,0,1,-1,1ZM170.5,249.5c0,-1,0,-1,-1,-2c0,0,0,-1,0,-1l0,-1l1,0l0,1l0,1l0,1c0,0,0,1,0,1ZM295.5,246.5l0,-1c0,0,0,-1,0,-1c0,-1,0,-2,0,-2l0,-1c1,0,1,0,1,1c0,0,0,1,0,1l0,1c0,0,0,1,0,1l-1,1ZM286.5,260.5l0,-1l-1,0c0,0,-1,0,-1,0c0,1,1,1,1,1l1,0ZM281.5,252.5l5,-2l-1,0c0,1,0,1,0,1l-4,2ZM372.5,252.5l-1,-1l1,-1l1,0ZM375.5,260.5c-1,0,-1,1,-1,1c0,0,-1,0,-2,0c0,1,-1,1,-1,1l-1,0l-1,0c0,0,-1,-1,-1,-1c0,0,-1,0,-1,-1l-2,-2c-1,0,-1,0,-1,-1l-1,0l0,1l0,1l0,1l-1,1c-1,0,-1,0,-1,0c-1,1,-1,1,-2,1l-1,0l0,-1l-1,0c0,0,0,-1,0,-1c0,0,-1,0,-1,-1l0,1l-1,1l-1,0c0,0,-1,0,-1,-1l-1,1c0,0,-1,0,-1,1c-1,0,-2,-1,-2,-2l-1,1c0,0,-1,0,-1,1l-1,0l-1,0c-1,0,-1,0,-1,1l0,1c0,0,-1,1,-1,1c0,0,0,1,-1,1l-1,0c0,1,0,1,0,1c0,0,-1,0,-1,0c0,0,-1,0,-1,0c-1,0,-1,0,-2,0c0,-1,0,-1,-1,-1c1,0,1,0,1,0c0,0,1,0,1,0c0,0,1,0,1,0c1,0,1,0,2,-1c1,-1,1,-1,1,-1c0,0,1,-1,1,-1l0,-1l-1,0c0,0,0,-1,0,-1l-1,0l0,-1l0,-1l0,-1c1,-1,1,-1,1,-1c0,0,1,0,1,0c1,0,1,0,1,1c0,0,0,1,0,1c1,0,1,1,1,1l1,0l1,0l1,0c0,-1,1,-1,1,-2l1,0l0,1c0,0,0,1,1,1c0,0,1,0,1,-1c0,0,1,0,1,-1c0,0,1,1,1,1l1,0c1,0,1,0,1,0c0,-1,0,-1,0,-1l1,0c0,1,1,2,1,2l1,0l1,0l1,0c1,0,1,-1,1,-1l1,0c0,-1,0,-1,0,-1c0,0,-1,0,-1,-1c0,-1,-1,-1,-1,-1l-1,-1l-1,0l-1,0c0,0,0,-1,0,-1c0,0,0,-1,0,-1l0,-1c0,0,0,-1,0,-1c0,0,1,0,1,0c0,-1,1,-1,3,-2c1,0,2,-1,4,-1c1,-1,2,-1,3,-1l1,0l-1,1c-1,0,-1,0,-1,0c0,1,-1,1,-2,1c-2,1,-3,1,-5,2c-1,0,-2,1,-2,1l-1,0l0,1l1,0c1,0,1,0,1,1c1,0,1,0,1,0l1,0c0,1,1,1,2,2c0,0,1,0,1,1c1,0,1,1,2,1l2,2l1,0l1,0c0,0,1,0,1,0c1,0,2,-1,2,-1c0,-1,1,-1,1,-1c0,0,-1,0,-1,0c0,0,0,-1,0,-1c0,0,0,1,0,1c-1,0,-1,0,-1,0l-1,0c-1,0,-1,0,-1,0l0,-1l0,-1l0,-1c0,-1,1,-1,1,-1c0,-1,0,-1,1,-1c0,0,1,0,1,1l0,1l1,0l0,1l0,1c0,0,0,1,0,1c0,1,0,1,0,1l0,1ZM372.5,255.5c0,1,0,1,0,1l1,0l1,0c-1,0,-1,0,-1,0l0,-1l-1,0ZM371.5,245.5l4,-2l0,1l-5,2ZM360.5,245.5l4,-2l0,1l-5,2ZM352.5,249.5l4,-3l0,1l-1,1l-4,2ZM342.5,259.5c0,1,0,1,0,1c0,0,1,0,1,0l0,-1c0,0,-1,0,-1,0ZM338.5,251.5c0,0,1,-1,1,-1c0,0,1,0,1,0c1,0,1,0,2,0c0,1,0,1,0,1c0,1,0,1,0,1c-1,0,-1,1,-1,1c-1,0,-1,0,-1,0c0,0,-1,0,-1,0c0,0,-1,0,-1,0l2,0c0,-1,1,-1,1,-1l0,-1c-1,0,-1,0,-1,0c-1,0,-1,0,-1,1c-1,0,-1,0,-1,0c0,-1,0,-1,0,-1ZM333.5,255.5l-1,-1l1,-2l1,1ZM333.5,262.5l-1,0l-2,0c0,0,-1,-1,-2,-1c0,-1,0,-1,0,-2l-1,-8l1,-3l1,10l0,1c0,1,1,1,1,1l2,0l1,0c0,0,1,0,1,0c1,0,1,-1,1,-1c0,0,0,-1,0,-1c0,0,0,-1,0,-1l-1,0l1,-2c0,0,0,1,1,1c0,1,0,1,0,1l0,1c0,1,0,1,0,1c0,1,0,1,0,1l-1,0c0,1,0,1,-1,1c0,1,-1,1,-1,1ZM333.5,249.5l4,-3l0,1l-1,1l-4,2ZM166.5,292.5c0,0,1,0,1,0c0,0,1,-1,1,-1c1,0,1,1,2,1l0,1l0,1c0,0,-1,0,-1,0c0,0,-1,0,-1,0l-1,0l-1,0l2,0c1,0,1,-1,2,-1c-1,0,-1,0,-1,0c-1,0,-1,0,-1,0c0,0,-1,0,-1,0c0,0,-1,0,-1,0l0,-1ZM257.5,294.5c1,0,1,-1,1,-1c0,0,1,0,1,0c1,0,1,1,1,1l0,1l-1,0l0,1l1,0l0,1l-1,0l-1,0c-1,1,-1,1,-1,1l-1,0l-1,0l1,0l1,-1l1,-1l-1,0c0,0,0,-1,0,-1c0,0,0,-1,0,-1ZM259.5,294.5l-1,0l0,1l1,0l0,-1ZM151.5,305.5c0,1,0,2,0,3l-1,1l0,1l1,0l-1,1c0,0,-1,0,-1,1c-1,0,-1,1,-2,1l-1,0l0,1l-1,0l-1,0l-1,1l0,1l-1,0l-2,0l-2,0l-1,-1l-1,-1c-1,-1,-2,-1,-3,-1l-1,0l0,-1l-1,0l0,-1l-1,0l0,-1l-1,0l2,0l-1,-1l0,-1l-1,0l0,-1c0,-1,0,-1,0,-1l0,-1l0,-1c0,0,0,-1,1,-1c0,-1,0,-1,0,-1l0,-1l-1,0l1,-1l1,0l0,-1l1,0l0,-1l1,0l1,0l2,-1l1,-1c0,-1,1,-1,1,-1l1,0l1,0l2,0l1,1l1,0l0,1l1,0l2,1l1,0l0,1l1,0l1,1c0,0,1,0,1,1l-1,0l0,1l1,0l0,1l0,1l0,1ZM142.5,316.5l1,-1l0,-1l1,0l1,-1c0,0,1,0,1,0l1,0c1,-1,1,-1,1,-1l1,0l0,-1l1,0l0,-1l1,0l-1,0l0,-1l0,-1l1,0l0,-1l0,-1l0,-1c0,0,0,-1,0,-2l-1,-1l0,-1l1,0c-1,-1,-1,-1,-2,-1l0,-1l-1,0l-1,-1l-1,0l-1,-1c-1,0,-1,0,-1,0l-1,-1c0,-1,0,-1,-1,-1l-1,0l-1,0l-1,0l-1,0l0,1l-1,0l-1,1l-2,1l-1,0l0,1l-1,0l-1,1c0,0,-1,0,-1,1l1,0l-1,1l0,1l-1,1l0,1l0,1l0,1l1,1l0,1l1,0l0,1l-1,0l0,1l1,0l1,1l1,0l0,1l1,0l2,0c0,1,0,1,1,1l0,1c1,0,1,1,1,1l1,0ZM148.5,301.5l-1,0l0,-1l-1,0c-1,0,-1,0,-1,0c0,0,0,-1,0,-1l1,0l1,0l0,1l1,0ZM148.5,310.5l0,1l-1,0l0,1l-1,0l-1,0l1,-1c1,0,1,-1,1,-1l1,0ZM144.5,312.5c0,1,0,1,-1,1c0,1,0,1,-1,1l-2,0l-2,0c0,0,-1,0,-1,-1l0,-1c0,0,0,-1,1,-1l1,0l3,0c1,0,1,0,1,0l0,1l1,0ZM144.5,299.5l-1,0c0,0,0,1,-1,1l-2,0l-1,0l-1,0c0,0,-1,0,-1,-1c0,-1,0,-1,0,-1l0,-1l1,0l1,0l1,0l2,0c1,0,1,0,1,1c0,0,1,0,1,0ZM142.5,301.5l1,0c0,0,1,0,1,0c1,0,1,0,1,0c0,0,1,0,1,1l1,0l1,0l1,1l0,1l0,1l0,1c0,1,0,1,0,1l0,1c0,0,-1,0,-1,1l-1,0l-1,0l0,1l-1,0l-1,0c-1,0,-1,0,-1,0l-1,0l-2,0l-2,0l-1,0l-1,0c0,0,-1,0,-1,0c0,0,-1,0,-1,-1l-2,0l-1,-2l0,-1l0,-1c0,-1,0,-1,0,-1l1,-1l0,-1l1,0l1,0l1,-1c0,0,1,0,1,0c1,0,1,0,1,0l1,0l1,0l1,0ZM142.5,309.5l1,1l1,0l1,0l1,0l0,-1c0,0,1,-1,1,-1l1,1l0,-1l1,-1l0,-1l0,-1c0,0,0,-1,0,-1c0,-1,-1,-1,-1,-1c0,-1,0,-1,0,-1l-1,0l-1,0l0,-1l-1,0l-1,0l-1,0l-1,0l-2,0l-1,0l-1,0l-1,0l-1,0c-1,0,-1,0,-1,0l0,1l-1,0l-1,0c0,0,-1,0,-1,1l0,1l0,1l-1,0l0,1l1,0l0,1c0,1,0,2,1,2l1,-1c0,0,0,1,0,1l1,1l1,0c1,0,1,0,1,0c0,0,1,0,1,0l0,-1l1,0l3,0ZM141.5,305.5l-1,0l1,0l0,1l-1,1l1,0l1,0l0,1c0,0,-1,0,-1,0c-1,0,-1,0,-1,-1l0,-1l0,-1l0,-1c0,0,1,0,1,0ZM138.5,304.5l1,0l0,1l0,1l0,1c0,1,0,1,0,1l0,-1c0,-1,0,-2,-1,-2ZM132.5,301.5l0,-1l1,0l1,-1l1,0l1,0c-1,0,-1,1,-1,1c-1,0,-1,0,-1,0l-1,0l0,1l-1,0ZM132.5,310.5l1,0c0,0,0,1,1,1l1,0l0,1l1,0c0,0,-1,0,-1,0l1,0c-1,0,-1,0,-1,0c-1,0,-2,0,-2,-1l-1,0l0,-1ZM200.5,308.5l0,-1l0,-1l0,-9l0,-2l1,11c0,0,0,1,0,1c0,0,-1,1,-1,1ZM191.5,297.5l0,2c0,1,0,1,0,2l0,1l0,1l1,0c1,1,2,1,2,1c1,0,1,0,1,0c1,0,1,0,2,0l1,0l-1,2l-2,0l-1,0c0,0,-1,0,-1,0l-1,0c-1,0,-1,0,-1,0l-2,1c0,0,-1,0,-1,1l-1,0l-1,0l-1,0c-1,0,-1,0,-1,0c0,-1,-1,-1,-1,-2c0,1,0,1,-1,2l-1,0l-1,0l-1,0c-1,0,-1,0,-2,0c0,0,-1,0,-1,-1c0,1,-1,1,-2,1c0,0,-1,0,-1,0l-1,0l-1,0c0,0,-1,0,-1,-1c-1,0,-1,0,-1,-1l0,-1l0,-1c0,1,-1,1,-2,1c0,0,0,1,-1,1c1,0,1,0,1,0c0,1,0,1,0,1l0,1c0,1,0,1,-1,2c0,0,0,1,-1,1c0,1,-1,1,-2,2c0,0,-1,0,-2,0c0,0,-1,0,-1,0c-1,0,-1,-1,-2,-1c0,0,-1,-1,-1,-1c0,-1,0,-1,0,-2c0,0,0,-1,0,-1l0,-1l0,-1c0,0,1,0,1,0c0,-1,0,-1,0,-1l1,0c-1,1,-1,1,-1,1c0,1,0,1,0,1c0,1,0,1,0,1c0,1,0,1,0,1c0,1,0,1,1,1c0,1,1,1,1,1c0,0,1,0,2,0c0,0,1,0,2,0c0,-1,1,-1,1,-2c0,0,1,0,1,0l0,-1l0,-1c0,0,-1,-1,-1,-1c0,0,0,-1,0,-1l0,-1l-1,0l1,-2l1,1c0,0,0,1,0,1l1,0l1,-1c0,0,1,0,1,0c0,-1,0,-1,0,-1c1,0,1,0,1,0l0,1l0,1c0,0,0,1,0,1c0,1,0,1,0,1c1,0,1,0,1,0c0,0,1,0,1,0l1,0c0,0,1,0,1,0l1,0c-1,0,-1,0,-1,-1c0,-1,0,-1,1,-2c0,0,0,-1,0,-1c0,0,1,0,1,0c0,-1,1,-1,1,-1c1,0,1,0,1,0c1,1,1,1,1,2l0,1c0,0,0,1,-1,1c0,1,0,1,0,1c0,0,1,0,1,0l1,0l1,0l1,0c0,0,1,0,1,-1l0,-1l0,-1l-1,-7l1,-2l1,11c0,0,0,1,0,1c1,0,1,0,1,0l1,0l1,0l1,0c0,0,1,0,1,0l1,0l1,-1l-1,-1l-1,0l-1,0l-1,0l-1,0c0,0,1,-1,1,-1c0,0,0,-1,0,-1c0,0,1,0,1,0l1,0c1,0,1,-1,1,-1l0,-1c0,0,0,-1,0,-1c0,-1,0,-1,0,-2c0,-1,0,-1,0,-1l0,-1l0,-1c0,0,1,0,1,0l0,1c0,0,1,0,1,0c0,0,0,1,0,1c0,0,0,1,-1,1ZM190.5,290.5l1,0c0,0,1,-1,1,-1c1,0,1,1,1,1c1,0,1,0,1,0l0,1l-1,1l-1,0c0,0,-1,0,-1,0l-1,0l2,0c0,0,1,-1,1,-1l-1,0c-1,0,-1,0,-2,0l0,-1ZM186.5,300.5l-2,-1l1,-2l2,1ZM184.5,314.5l-4,2c0,-1,0,-1,0,-1l4,-2ZM177.5,300.5l-1,-1l-1,1l-1,-1l1,-1l1,1l1,-2l1,1ZM177.5,303.5c0,0,-1,0,-1,0c-1,0,-1,1,-1,1c1,1,1,1,1,1c1,0,1,0,1,0c1,0,1,-1,1,-1c0,0,0,-1,0,-1c-1,0,-1,0,-1,0ZM179.5,314.5l-4,2c0,-1,0,-1,0,-1l4,-2ZM171.5,311.5l-1,-1l-1,1l-2,-1l1,-1l2,1l0,-1l2,1ZM161.5,304.5l-1,-1l1,-2l1,1ZM158.5,295.5l4,-2l-1,1l-4,2ZM248.5,308.5l0,-1l0,-1l0,-9l1,-2l0,11c0,0,0,1,0,1c0,0,0,1,-1,1ZM247.5,291.5l4,-2l0,1l-4,2ZM244.5,305.5l-2,0c-1,0,-1,0,-2,0l-1,1l-1,0l-1,1c-1,0,-1,0,-1,0c-1,0,-1,0,-1,1c-1,0,-2,0,-3,0l-1,0l-1,0l0,-1c-1,-1,-1,-1,-1,-1c0,1,0,1,-1,1c0,1,-1,1,-1,1c-1,0,-1,-1,-1,-2l-1,1c0,1,-1,1,-1,1l-1,0c0,0,-1,0,-1,-2c0,1,0,1,-1,1c0,1,-1,1,-2,1l-2,0l0,1c0,1,0,1,0,1c0,1,0,1,0,2c0,0,-1,1,-1,1c-1,1,-2,1,-2,2c-1,0,-2,0,-3,0c0,0,-1,0,-1,0c-1,0,-2,-1,-2,-1c0,0,-1,-1,-1,-1c0,-1,0,-1,0,-2l0,-1l0,-1l0,-1l1,0c0,0,0,-1,0,-1l1,0c-1,1,-1,1,-1,1c0,1,0,1,0,1l0,1c0,1,0,1,0,1c0,1,0,1,1,1l0,1c1,0,2,0,3,0c1,0,1,0,2,0c1,-1,2,-1,2,-1c0,-1,0,-1,0,-1l0,-1l0,-1l0,-1l-1,-1l1,-2c0,1,0,1,1,1l1,0l1,0l1,0l1,0c0,0,1,-1,1,-2l0,1l1,0c0,1,0,1,0,1c1,0,1,0,2,0c0,0,0,-1,1,-1l0,-1c0,1,0,1,1,1c0,1,0,1,1,1c0,-1,1,-1,1,-1l0,-1c1,2,2,2,2,2l1,0c1,0,1,0,1,0c1,0,1,0,2,0c0,0,1,0,1,0l2,-1l-1,-1l-1,0l-1,0l0,-1l-1,0c0,0,0,1,0,1l-1,0c0,-1,0,-1,1,-1c0,-1,0,-1,0,-1c1,0,1,0,1,0c0,0,1,0,1,0l1,0l2,1l1,0c0,1,1,1,1,1c0,0,1,0,1,0c0,0,1,0,1,0l1,0ZM236.5,293.5c0,0,0,-1,1,-1l1,0c0,0,1,0,1,0c1,1,1,1,1,1c0,1,-1,1,-1,1c0,0,0,1,0,1c-1,0,-1,0,-1,0c-1,0,-1,0,-1,0l-1,0l1,0c1,-1,2,-1,2,-1c0,0,0,-1,-1,-1l-1,0l-1,1l-1,0c0,-1,0,-1,0,-1c0,0,1,0,1,0ZM225.5,295.5l4,-2l-1,1l-4,2ZM212.5,306.5l-1,-1l1,-2l1,1ZM213.5,292.5l0,-1c0,0,1,0,1,0c1,0,1,1,1,1l0,1l-1,0c0,0,0,1,0,1l1,0l0,1l-1,0l-1,0l0,1c-1,0,-1,0,-1,0l-1,1l-1,0l0,-1l1,0l1,0c0,0,0,-1,0,-1l1,0l0,-1c-1,0,-1,-1,-1,-1l1,-1ZM214.5,292.5l-1,0c0,0,0,1,0,1l1,0ZM273.5,308.5l0,-1l0,-1l-1,-9l1,-2l1,11c0,0,0,1,-1,1c0,0,0,1,0,1ZM268.5,307.5l0,1c-1,0,-1,-1,-2,-1c0,0,0,-1,-1,-2c0,1,0,2,0,2c-1,1,-1,1,-2,1c-1,0,-1,0,-2,-1c0,0,0,-1,0,-2c0,0,0,1,0,1l-1,0l0,1c-1,0,-1,0,-2,0c-1,0,-1,0,-1,0c-1,0,-1,-1,-1,-1c0,-1,0,-1,1,-1c0,-1,0,-1,0,-1c1,-1,1,-1,2,-1l1,-1l0,-1c1,-1,1,-1,1,-1l0,1l0,1l0,2c0,1,0,1,1,1l0,1c0,0,1,0,1,0c1,0,1,0,1,0c1,-1,1,-1,1,-1c0,-1,0,-2,0,-3c0,0,0,-1,0,-1c0,-1,-1,-1,-1,-1l0,-1l1,-1l0,2l1,2l0,2c0,0,0,1,0,1c1,0,1,0,1,1l1,0c1,0,1,0,1,-1c0,0,0,-1,0,-1l-1,-2l0,-1l0,-1c0,0,0,-1,0,-1l1,-1c0,0,0,1,0,1c0,1,0,1,0,1l0,2c1,1,1,2,1,2c0,1,0,1,-1,2c0,0,0,1,0,1c0,0,-1,0,-1,0ZM260.5,303.5c0,0,-1,0,-1,1c-1,0,-1,1,-1,1c1,0,1,0,2,0c0,0,0,-1,0,-1ZM322.5,298.5l-2,-1l1,-1l2,1ZM324.5,306.5c0,1,0,1,-1,1c0,0,-1,1,-1,1c-1,0,-1,0,-2,0l-1,0l-1,0c-1,0,-1,0,-1,-1l-1,0l0,-1c0,1,0,1,-1,2l-1,0l-1,0l-1,0c0,0,-1,0,-1,0l0,-1l-1,0c-1,0,-1,0,-1,0c0,1,-1,1,-1,1l-1,0l-2,0c0,0,-1,0,-1,-1c-1,0,-1,-1,-1,-2l-1,-8l1,-2l1,10l0,1c0,0,1,0,1,0l2,0c0,0,1,0,1,0c0,0,1,0,1,0l1,-1l1,0l0,1c1,0,1,0,1,0l1,0l1,0l1,0c1,0,1,0,1,-1l0,-1l1,0l0,1c0,1,0,1,0,1c1,0,1,0,2,0l1,0c1,0,1,0,2,0c1,0,1,0,2,-1c0,0,0,-1,0,-1c0,0,-1,0,-1,0l0,1c0,0,-1,0,-1,0c0,0,-1,0,-1,0c0,-1,0,-1,0,-1c-1,0,-1,-1,-1,-1c0,0,0,-1,1,-1l0,-1c0,0,0,-1,0,-1c1,0,1,-1,1,-1c1,0,1,1,1,1c1,0,1,1,1,1l0,1l1,1c0,1,0,1,0,1c0,1,0,1,0,2c0,0,-1,0,-1,0ZM321.5,302.5c0,0,1,0,1,1c1,0,1,-1,1,-1l-1,0c0,0,0,-1,0,-1l-1,1ZM320.5,292.5l5,-2l-1,0c0,1,0,1,0,1l-4,2ZM317.5,302.5l-1,-1l-1,1l-2,-1l1,-1l2,1l1,-1l1,1ZM314.5,295.5l4,-2l0,1l-4,2ZM310.5,312.5l-1,-1l0,-1l2,0ZM308.5,295.5l4,-2l0,1l-5,2ZM292.5,311.5l1,0c1,0,2,0,3,-1c0,0,1,0,1,-1c1,0,1,-1,1,-1c1,0,1,-1,1,-1c0,0,0,-1,0,-1l0,-1l-1,0l0,-1l0,-1l0,-1l1,1c0,0,0,1,0,1l1,1l0,1c0,1,0,1,0,2c-1,0,-1,0,-1,0c0,1,0,1,0,1c0,1,0,1,-1,1c0,0,0,1,0,1c0,0,-1,0,-1,1l-1,0l-1,0l-1,0c-1,0,-1,0,-1,0c0,0,-1,0,-1,0l0,-1ZM294.5,298.5l5,-2l-1,1l-4,2ZM292.5,307.5c0,0,-1,0,-1,1c0,0,-1,0,-1,0l-1,0c-1,0,-1,0,-2,0c-1,0,-2,0,-3,0c0,0,-1,0,-1,0c0,0,-1,0,-1,0c-1,0,-1,-1,-1,-1l0,-1c0,-1,0,-1,1,-1l0,1l1,0c0,0,1,0,1,0l5,0c1,0,1,0,2,0c0,-1,0,-1,0,-2l0,-1l0,-1c0,-1,0,-2,0,-3c0,-1,0,-2,0,-3c0,-1,0,-1,0,-1c0,-1,0,-1,0,-1c0,0,1,0,1,0l-1,0c0,0,0,1,0,1c0,0,1,0,1,0l1,1c0,0,-1,0,-1,1c0,1,0,1,0,3c0,0,0,1,0,2c0,1,0,1,0,2c0,0,0,1,0,1l0,1c0,0,0,1,0,1ZM288.5,303.5c0,0,-1,0,-1,1l-1,0c-1,0,-1,0,-1,0l-1,0l1,-1c0,0,1,0,1,0c1,0,1,0,1,-1l-1,0c-1,0,-1,-1,-1,-1c0,0,1,-1,1,-1c0,-1,0,-1,1,-1c0,0,0,-1,0,-1c1,0,1,0,1,-1l0,2c-1,0,-1,1,-2,1c1,0,1,0,1,0c0,0,0,1,1,1c1,0,1,0,1,1c0,0,-1,0,-1,1ZM284.5,292.5l4,-2l-1,0c0,0,0,1,0,1l-4,2ZM186.5,293.5c0,-1,0,-1,-1,-2c0,0,0,-1,0,-1l0,-1l1,0l0,1l0,1l0,1l0,1ZM264.5,289.5c0,-1,0,-1,0,-2c0,0,-1,-1,-1,-1l1,-1l0,1c0,0,0,1,0,1l0,1c0,0,0,1,0,1Z" class="g1_64" />
</svg>