<?xml version="1.0" encoding="UTF-8" standalone="no"?>
<!DOCTYPE svg PUBLIC "-//W3C//DTD SVG 1.1//EN"
"http://www.w3.org/Graphics/SVG/1.1/DTD/svg11.dtd">
<svg version="1.1" xmlns="http://www.w3.org/2000/svg" xmlns:xlink="http://www.w3.org/1999/xlink">
<defs>
<style type="text/css"><![CDATA[
.g2_50{
stroke: #1F1A17;
stroke-width: 1;
stroke-linecap: butt;
stroke-linejoin: miter;
}
.g1_50{
fill: #1F1A17;
stroke: #1F1A17;
stroke-width: 1;
stroke-linecap: butt;
stroke-linejoin: miter;
}
]]></style>
</defs>
<path fill-rule="evenodd" d="M211.5,490.5l0,1c-1,0,-1,0,-1,0c-1,1,-2,1,-2,1c-1,0,-1,0,-1,0c1,0,1,-1,2,-2l0,-1l0,-1c0,0,0,-1,1,-1c0,0,1,1,1,1c0,1,-1,1,-1,2l1,0ZM232.5,479.5c0,1,0,1,0,2l-5,3c0,-1,0,-1,0,-2l1,0ZM223.5,482.5c0,0,0,1,-1,1l-3,2c0,0,0,-1,0,-1c0,0,1,0,1,0ZM233.5,487.5c0,1,0,2,-1,2c0,0,-1,0,-1,-1c0,1,0,1,0,1c0,0,-1,0,-1,0l-1,0l0,-1l0,-1l1,0c0,1,0,1,0,1c0,0,1,0,1,0c0,-1,0,-1,0,-1l0,-1c0,1,1,2,1,2c0,0,1,-1,1,-2c0,0,0,1,0,1ZM245.5,480.5l0,1l-3,2c0,-1,0,-1,0,-1l0,-1ZM213.5,495.5c0,1,0,1,0,2c0,0,-1,1,-1,1c-1,0,-1,0,-1,-1c-1,0,-1,0,-2,0c-1,1,-1,3,-2,3l0,-1c0,0,3,-9,6,-6c0,1,0,2,0,2ZM212.5,496.5l0,-1l0,-1c-1,-1,-1,0,-2,1c1,1,2,1,2,1ZM226.5,498.5l-1,0c-1,0,-2,0,-2,-2c0,-1,-1,-2,-1,-3c0,-1,0,-1,0,-1c0,2,-1,4,-1,5c-1,2,-3,2,-6,2c1,0,2,-1,3,-2c2,-1,2,-2,3,-2c-1,-2,-2,-4,-4,-6c-1,0,-1,0,-2,0c-1,0,-1,0,-1,-2c0,-1,0,-1,0,-1c1,0,2,1,4,2c1,2,2,3,2,4c0,0,1,1,1,2c0,-1,1,-2,1,-3c0,-1,0,-2,0,-4c0,-1,1,-1,1,-2l0,1c0,1,0,2,0,2c0,5,1,8,2,8c0,0,1,0,1,0c0,0,1,0,1,0c1,0,1,0,2,0c0,0,0,-1,1,-1c0,0,0,1,0,1c1,0,1,0,2,0c1,0,1,0,2,0c0,-1,0,-1,1,-2c0,1,-1,1,-1,2c1,0,1,0,1,0c1,0,1,0,2,-1l0,-1c0,0,0,1,0,1c0,1,1,1,2,1l1,0c1,0,2,0,2,-1c0,-3,-1,-5,-1,-7c0,-1,0,-1,0,-1c0,-1,0,-2,1,-2l0,1c1,1,1,1,1,1c0,0,0,1,0,1c-1,1,-1,1,-1,1c0,0,0,1,1,2c0,1,0,1,0,1l0,3c0,1,-1,1,-1,2c0,1,-1,1,-2,1l-1,0l-1,0c-1,0,-1,0,-1,0c-1,0,-1,0,-2,0l-1,0c-1,0,-2,0,-2,0c-1,0,-1,0,-2,0l-1,0c0,0,-1,0,-1,0l-2,0ZM247.5,494.5c0,2,0,4,-1,4l0,-11c0,-1,0,-1,1,-2ZM210.5,489.5c0,0,0,-1,-1,-1l0,1l1,0Z" class="g1_50" />
<path fill-rule="evenodd" d="M355.5,140.5l0,-1c0,0,1,0,1,0c1,0,1,1,1,1c0,0,0,1,0,1c-1,1,-1,1,-1,1l1,0l0,1l-1,0l-1,0l0,1c-1,0,-1,0,-1,0l0,1l-1,0c-1,0,-1,0,-1,0l1,-1l1,0c0,0,0,-1,0,-1l1,0l0,-1c-1,0,-1,0,-1,-1l1,-1ZM190.5,142.5l0,1l-1,0c0,0,0,1,0,1l0,1l0,1l0,-1l0,-1l0,-1c0,-1,0,-1,0,-1c1,0,1,0,2,-1l1,0ZM190.5,144.5c1,-1,1,-1,1,-1l1,0l0,1l0,1l1,0l-1,2l-1,-1l0,1c-1,0,-1,0,-1,1l-1,0c-1,0,-1,0,-1,0l1,-1l1,0l0,-1l1,0l-1,-1l0,-1ZM191.5,144.5l0,1l1,0l0,-1ZM145.5,138.5c0,0,-1,0,-1,0l0,1c-1,0,-1,1,-1,1l1,1l0,1l0,-1l-1,0l0,-1l0,-1c0,-1,1,-1,1,-1l1,-1l1,0ZM145.5,140.5c0,-1,0,-1,0,-1c1,0,1,0,1,0c1,0,1,0,1,1l0,1l-1,0l1,0l0,2l-1,-1l-1,0l0,1c0,0,-1,0,-1,0l0,1l-1,0l0,-1l1,0l0,-1l1,0l0,-1l0,-1ZM146.5,140.5l-1,0l1,0l0,1l0,-1ZM70.5,149.5c0,2,0,3,0,5c-1,0,-1,0,-1,0c0,1,0,1,0,1l-1,0c0,0,-1,0,-1,0c1,0,1,0,1,0c0,0,0,-1,0,-1c1,0,1,0,1,0c0,0,0,-1,0,-1c-1,-1,-1,-1,-1,-1l-1,-1l-1,0l0,-1c1,0,1,0,1,0c0,1,1,1,1,1l1,1c0,1,0,1,0,1c1,0,1,0,1,0c0,0,0,-1,0,-1l0,-2ZM177.5,144.5l0,1c0,0,1,0,1,0l0,-1l0,-1l1,1c0,0,1,0,1,0l0,-1l0,1l0,1l-1,0l-1,0l0,1c0,0,-1,0,-1,0l-1,-1l1,0l0,-1ZM181.5,141.5l-6,3c1,-1,1,-1,1,-2l5,-2ZM288.5,141.5l0,-1c0,0,0,-1,0,-1c-1,-1,-1,-2,-1,-2l0,-1l1,0l0,1c0,0,0,1,0,1l0,1c0,1,0,1,0,1l0,1ZM87.5,144.5c0,-1,0,-1,1,-1l1,0c0,0,1,0,1,0c1,0,1,1,1,1c0,0,-1,1,-1,1l0,1c-1,0,-1,0,-1,0c-1,0,-1,0,-1,0l-1,0l1,-1c1,0,2,0,2,-1c0,0,-1,0,-1,0l-1,0l-1,0l-1,1l0,-1l1,0ZM133.5,154.5c0,0,1,0,1,0l1,0c0,0,1,-1,1,-1l-1,-2l0,-6l0,-1c0,0,0,-1,0,-1c0,0,0,-1,1,-1l0,1c0,1,0,1,1,1c0,0,0,1,-1,1l0,1c0,0,0,1,0,2c0,0,0,1,0,2c0,1,0,1,0,2l0,1l0,1c0,1,0,1,0,1c0,0,-1,0,-1,0c0,1,0,1,0,1c0,0,-1,0,-1,0c0,0,-1,0,-1,0l-1,0c0,0,-1,0,-1,0c0,0,-1,-1,-1,-2c0,1,0,1,-1,2l-1,0l-1,0c-1,0,-1,0,-2,0l0,-1c0,1,-1,1,-1,2c-1,0,-1,-1,-2,-1l-1,0l-1,-1l-1,1c0,0,-1,0,-1,0l-1,0l-1,0l-1,0c0,1,0,1,0,1c0,1,0,1,-1,1c0,1,0,1,0,2c-1,0,-1,0,-1,0c0,1,-1,1,-1,1l-1,0c-1,0,-1,1,-1,1l-1,0c0,0,-1,-1,-1,-1c0,0,-1,0,-1,0c0,-1,0,-1,0,-1c0,0,1,1,1,1c1,0,1,0,2,-1c0,0,1,0,1,0c0,0,1,-1,1,-1c0,0,1,0,1,-1c1,-1,1,-1,1,-1l0,-1l-1,0l-1,0c0,0,-1,-1,-1,-1l0,-1c0,-1,0,-1,1,-1l0,-1c1,0,1,-1,1,-1c1,0,1,0,1,0c0,1,0,1,0,1c1,0,1,0,1,1c0,1,0,1,0,1c1,0,1,0,1,0c0,0,1,0,1,0l1,0c0,0,1,0,1,0l1,0c0,0,0,-1,0,-1c1,-1,2,-2,3,-2l1,1l0,1l1,1c1,0,1,0,1,0l1,0l1,0c1,0,1,0,2,-1l0,-1c0,-1,0,-1,0,-1l-1,-7l1,-2l1,11l0,1c0,0,1,0,1,0l1,0ZM134.5,138.5l0,1c0,0,1,0,1,0l1,-1l0,-1l0,1c0,1,0,1,1,1c0,0,0,-1,0,-1l0,-1l0,1l0,1l0,1l-1,0l0,-1l0,1l-1,0c-1,0,-1,0,-1,0l0,-1l0,-1ZM137.5,159.5l-4,2c0,0,1,-1,1,-1l4,-2ZM128.5,135.5c0,-1,1,-1,1,-1c0,0,1,0,1,0c1,0,1,0,2,0c0,0,0,1,0,1c0,0,0,1,0,1c0,0,-1,0,-1,1c0,0,-1,0,-1,0l-1,0l-1,0l2,-1c1,0,1,0,2,0c-1,-1,-1,-1,-1,-1c-1,0,-1,0,-1,0c0,0,-1,0,-1,0c0,0,-1,1,-1,1l0,-1ZM124.5,155.5l-1,-1c0,-1,0,-1,0,-2c-1,0,-1,0,-1,0l0,1l-1,0c0,0,1,1,1,1l1,0ZM122.5,140.5l0,-1c0,0,1,0,1,0c1,0,1,1,1,1c0,0,0,1,0,1c-1,1,-1,1,-1,1l1,0l0,1l-1,0l-1,0l0,1c-1,0,-1,0,-1,0l0,1l-1,0c-1,0,-1,0,-1,0l1,-1l1,0c0,0,0,-1,0,-1l1,0l0,-1c-1,0,-1,0,-1,-1l1,-1ZM123.5,141.5l0,-1l-1,0c0,1,0,1,0,1l1,0ZM111.5,147.5c0,-1,1,-1,1,-1c0,0,1,0,1,0l1,0l0,1l-1,0l-1,0l-1,0c1,1,1,1,1,1l1,0l1,0l1,0c0,1,-1,1,-1,1l-4,1c0,0,1,0,1,0l0,-1l1,0c-1,0,-1,0,-1,-1ZM113.5,153.5c0,0,-1,0,-1,0l0,1c0,0,1,0,1,0l1,0c0,-1,0,-1,-1,-1ZM109.5,142.5c0,0,0,-1,1,-1l1,0c0,0,1,0,1,0c1,1,1,1,1,1c0,1,-1,1,-1,1c0,0,0,1,0,1c-1,0,-1,0,-1,0c-1,0,-1,0,-1,0l-1,0l1,0c1,-1,2,-1,2,-1c0,0,-1,-1,-1,-1l-1,0l-1,1l-1,0c0,-1,0,-1,0,-1l1,0ZM106.5,156.5c-1,0,-1,0,-1,0l-1,0l0,-1l-1,0l-1,0c0,0,0,1,-1,1l-1,0l-1,0c0,0,-1,0,-1,0l-1,0l0,-1c0,0,-1,0,-1,0c-1,1,-1,1,-2,1l-1,0l-1,0c-1,0,-1,0,-1,0l0,-1c-1,0,-1,0,-1,-1l0,-1l0,-1c0,1,-1,1,-2,1c0,1,0,1,-1,1c0,0,1,0,1,0c0,1,0,1,0,1c0,0,0,1,0,1c0,1,-1,1,-1,2c0,0,0,1,-1,2c0,0,-1,0,-2,1c0,0,-1,0,-2,0c0,0,-1,0,-2,0c0,0,-1,-1,-1,-1c0,0,-1,-1,-1,-1c0,-1,0,-1,0,-2l0,-1c0,-1,0,-1,0,-1l0,-1l1,0c0,0,0,-1,0,-1l1,1c-1,0,-1,0,-1,0c0,1,0,1,0,1l0,1c0,1,0,1,0,1c0,1,0,1,1,1l0,1l1,0c0,0,1,0,2,0c0,0,1,0,2,0c0,-1,1,-1,1,-1c0,-1,0,-1,1,-1l0,-1l0,-1c-1,0,-1,-1,-1,-1l0,-1l-1,-1l1,-2c0,0,0,1,0,1c0,0,1,0,1,0c0,0,0,1,0,1l1,0l1,0c0,-1,0,-1,1,-1c0,0,0,-1,0,-1c0,0,1,0,1,0l0,1l0,1c0,0,0,1,0,1c0,1,0,1,0,1c0,0,1,0,1,0l1,0c0,0,1,0,1,0c1,0,1,0,2,0l0,-1c0,0,1,0,1,0c0,1,0,1,0,1c1,0,1,0,1,0c0,0,1,0,1,0l1,0l1,0l1,0l1,-1c0,-1,0,-1,1,-2l1,0c1,1,1,1,1,2l0,1c0,0,0,1,0,1l0,1ZM104.5,153.5l0,1l1,0l0,-1c0,0,0,-1,-1,-1c0,0,0,1,0,1c-1,0,-1,0,-1,0l1,0ZM105.5,159.5l-5,2c1,0,1,-1,1,-1l4,-2ZM96.5,152.5l-2,-1l1,-2l2,1ZM98.5,159.5l-5,2c1,0,1,-1,1,-1l4,-2ZM92.5,159.5l-1,-1l-1,1l-2,0l1,-2l2,1l0,-1l2,1ZM82.5,152.5l-1,-1l1,-2l1,1ZM78.5,143.5l5,-2l-1,1l-4,2ZM179.5,152.5c0,0,0,1,0,1c1,0,1,0,1,0c0,0,0,-1,0,-1l-1,0ZM179.5,160.5c0,0,-1,1,-1,1c0,0,-1,0,-2,0c0,0,-1,0,-2,-1l1,0c0,0,1,0,1,0l1,0c0,-1,1,-1,1,-1c0,0,1,0,1,-1c0,0,1,0,1,0c0,-1,0,-1,0,-2c1,0,1,-1,1,-1c0,0,-1,0,-1,0l-1,0l-1,0c0,0,0,-1,0,-1c0,0,0,-1,0,-1l0,-1l0,-1c1,0,1,0,1,-1c0,0,1,0,1,0c1,0,1,1,1,1c0,0,0,1,0,1c0,0,1,1,1,1c0,0,0,1,0,1c0,1,0,1,0,1c0,1,-1,2,-1,3c0,0,-1,1,-1,1c0,0,0,1,-1,1ZM166.5,159.5c1,0,1,0,1,0l1,0c1,0,2,0,2,0c1,-1,1,-1,2,-1c0,-1,1,-1,1,-2c0,0,0,-1,0,-1l0,-1l0,-1l0,-1l-1,0l1,-1l0,-1l0,1c1,0,1,1,1,1l0,1l0,1c0,1,0,1,0,2c0,1,0,1,0,1c-1,1,-1,1,-1,1c0,0,0,1,-1,1l-1,1c0,0,-1,0,-1,0c0,0,-1,0,-1,0l-1,0l-1,0l-1,0ZM169.5,146.5l4,-2l0,1l-4,2ZM156.5,151.5c1,0,1,0,1,0c0,-1,0,-1,0,-1l1,0l1,0l1,0l1,0l1,0l-2,-1l-1,0c-1,-1,-1,-1,-2,-1l1,-1l1,0c1,0,1,0,2,1l2,1c1,0,1,0,1,1l1,0l1,0l1,1l1,0l-1,1l-1,0l-1,0l-2,-1l-2,0c-1,0,-1,0,-2,0c-1,0,-1,0,-1,0c0,1,0,1,0,2l1,0l0,1c0,0,-1,1,-1,1l0,1c0,0,-1,0,-1,0l-1,-1l-1,0l-1,0c0,0,0,1,0,1l-1,0l-1,0c-1,0,-1,0,-1,0c-1,0,-1,0,-1,-1c0,0,-1,0,-1,0c0,-1,0,-1,0,-1l0,-1l0,1c-1,0,-1,0,-1,0l-1,0l-1,1c0,0,0,-1,-1,-1l0,-1c0,0,0,-1,1,-1c0,-1,1,-1,1,-2c1,0,1,0,1,0l0,-1l1,-1l0,1c0,0,0,1,0,1c0,0,1,1,1,1l0,2c0,0,0,1,0,1c1,0,1,0,1,0c0,0,1,0,1,0l1,0c0,0,1,0,1,0l1,-1c0,-1,0,-1,1,-2ZM157.5,142.5c0,0,0,-1,1,-1c0,0,1,0,1,0c1,0,1,0,1,0c1,1,1,1,1,1c0,1,0,1,-1,1c0,0,0,1,0,1l-1,0c0,0,-1,0,-1,0c-1,0,-1,0,-1,0l2,0c0,-1,1,-1,1,-1c0,0,0,-1,-1,-1c-1,0,-1,0,-2,1c0,-1,0,-1,0,-1ZM156.5,153.5l0,1l1,0l0,-1c0,0,0,-1,-1,-1c0,0,0,1,0,1ZM153.5,146.5l4,-2l0,1l-4,2ZM148.5,147.5l-1,-1l-1,1l-2,-1l1,-1l2,1l1,-1l1,1ZM149.5,151.5l-1,0l-1,0l0,1c0,0,-1,0,-1,1l1,0l1,0c0,0,0,-1,1,-1ZM217.5,147.5l-1,0l1,-2l1,1ZM219.5,150.5l-2,-1l0,1l-2,-1l1,-1l2,1l0,-2l2,1ZM214.5,155.5c0,0,-1,1,-1,1l-1,0l-1,0l-1,0c-1,0,-2,0,-2,0c-1,0,-1,0,-1,-1c-1,1,-1,1,-2,1c-1,0,-1,0,-2,0l-1,0l-1,0c-1,0,-1,0,-2,-1c0,0,-1,-1,-1,-1l0,-9l1,-2l0,10l1,1l1,0l2,0c0,0,1,0,1,0c1,0,1,0,1,0l0,-1c0,-1,0,-1,0,-2c0,0,1,-1,1,-1c1,-1,1,-1,2,-1c0,0,1,0,1,1l0,1l0,1l0,1c0,1,0,1,-1,1l1,0c1,0,1,0,1,0l1,0l1,0c0,0,1,0,1,0c1,0,1,0,1,0c0,0,1,-1,1,-1l0,1l1,0c1,0,1,0,2,0c1,0,1,-1,1,-1l0,-1l0,1l1,0l0,1l1,0c1,0,1,0,1,0l-1,-1l1,-1l0,1l0,1c0,0,0,1,0,1c0,0,0,1,0,1c0,0,-1,0,-1,0l-1,0l-1,0l0,-1l-1,0l0,1l-1,0c0,0,-1,0,-1,0c-1,0,-1,0,-1,0l0,-1c0,0,-1,0,-1,0ZM216.5,159.5l-4,2c0,0,1,-1,1,-1l4,-2ZM207.5,148.5l-1,-1l1,-1l1,1ZM207.5,151.5l-1,0c0,0,0,1,0,1l0,1c0,0,1,0,1,0c0,0,1,0,1,0l1,-1c0,0,-1,0,-1,-1l-1,0ZM206.5,140.5l4,-2c0,1,-1,1,-1,1l-4,2ZM196.5,140.5c1,0,1,0,2,0c1,0,1,0,1,0l1,0l1,0c0,1,-1,1,-1,1l-1,0l-1,0l-1,0l-1,0c-1,0,-1,0,-1,0c0,0,0,-1,1,-1ZM190.5,154.5c0,0,1,-1,1,-1c0,0,0,-1,1,-1l1,0c0,0,1,0,1,0l0,1l0,1l-1,0l0,-1l-1,0c0,0,-1,0,-1,1l1,0c0,1,0,1,0,1l1,0c1,0,1,0,2,0l-1,1l-4,1l1,-1l0,-1c-1,0,-1,0,-1,-1ZM247.5,156.5l-1,0c0,0,0,-1,-1,-1c0,0,-1,0,-1,0l-1,0c-1,0,-1,0,-1,0c0,1,-1,1,-1,1l-1,0l-1,0l-1,0l-1,0c0,1,0,1,0,1c0,1,-1,1,-1,1c0,1,0,1,0,2c-1,0,-1,0,-1,0c-1,1,-1,1,-1,1c0,0,-1,0,-1,0l-1,0c0,0,0,1,0,1l-1,0c0,0,-1,-1,-1,-1c-1,0,-1,0,-1,0c0,-1,0,-1,0,-1c0,0,0,1,1,1c1,0,1,0,2,-1c0,0,1,0,1,0c0,0,1,-1,1,-1l1,-1c0,-1,1,-1,1,-1l0,-1c-1,0,-1,0,-1,0l-1,0c0,0,-1,-1,-1,-1l0,-1c0,-1,0,-1,0,-1c0,0,1,0,1,-1c0,0,1,-1,1,-1c0,0,1,0,1,0c0,1,0,1,0,1c0,0,1,0,1,1c0,1,0,1,0,1c1,0,1,0,1,0c0,0,1,0,1,0l1,0c0,0,1,0,1,0c0,0,0,-1,0,-1l0,-1c0,-1,0,-1,0,-1c1,0,1,0,1,0l0,-1l0,-1l1,-1c1,0,1,1,2,1c1,1,1,1,2,2l1,1l0,1c0,1,0,1,0,1c0,0,0,1,0,1c-1,0,-1,0,-1,0c0,0,0,1,0,1ZM243.5,151.5c-1,0,-1,1,-1,1c0,0,0,1,0,1c0,0,1,0,1,0l1,0c0,0,0,-1,0,-1l0,-1c0,0,-1,0,-1,0ZM245.5,152.5l0,1l1,1l1,0l0,-1c-1,0,-1,0,-1,-1l-1,0ZM240.5,137.5c0,0,0,-1,0,-1c1,0,1,0,1,0c1,0,1,0,1,0l0,1l0,1l0,1l0,1l-1,-1l0,1l-1,0c0,1,-1,1,-1,1l-1,0l1,-1l1,0l0,-1c0,-1,0,-1,0,-1c0,-1,0,-1,0,-1ZM241.5,137.5c-1,0,-1,0,-1,0l1,1l0,-1ZM235.5,153.5c-1,0,-1,0,-1,0l0,1l1,0c1,0,1,0,1,0c0,-1,-1,-1,-1,-1ZM231.5,146.5l4,-2l0,1l-4,2ZM267.5,156.5l-1,0l-1,-1l-1,0l-1,0c0,0,0,1,0,1l-1,0l-1,0l-1,0c-1,0,-2,0,-2,-1c-1,0,-1,-1,-1,-1l-1,-9l1,-2l1,10l0,1c1,0,1,0,2,0l1,0l1,0c0,0,1,0,1,0l1,-1c0,-1,1,-1,1,-2c0,0,1,0,1,0c0,0,1,0,1,0c0,1,0,1,0,2l1,0l0,1c0,0,0,1,0,1l-1,0l0,1ZM265.5,153.5l1,1l0,-1c0,0,0,-1,0,-1c-1,0,-1,1,-1,1ZM262.5,143.5l4,-2l0,1l-4,2ZM316.5,156.5l0,-1l0,-1l0,-9l1,-2l0,11c0,0,0,1,0,1c0,0,0,1,-1,1ZM309.5,154.5l1,0c1,0,1,0,1,0c0,0,0,-1,0,-1l0,-2l0,-6l0,-1c0,0,0,-1,0,-1c0,0,0,-1,0,-1c1,0,1,0,1,1c0,0,-1,0,-1,0c0,0,1,0,1,0c0,1,0,1,1,1c0,0,-1,1,-1,1l0,1c0,0,0,1,0,2c0,0,0,1,0,2c0,1,0,1,0,2l0,1l0,1c0,1,0,1,0,1c-1,0,-1,0,-1,0c0,1,0,1,0,1c-1,0,-1,0,-1,0c0,0,-1,0,-1,0l-2,0c-1,0,-2,0,-2,0c-1,0,-1,0,-1,-1c-1,1,-1,1,-2,1c0,0,-1,0,-1,0l-1,0l-1,0c0,1,0,1,0,1c-1,1,-1,2,-1,2c0,0,0,1,-1,1l0,1c-1,0,-1,0,-1,0c-1,1,-1,1,-1,1c-1,0,-1,0,-1,0l-1,0c0,0,-1,0,-1,-1c-1,0,-1,0,-1,0l1,0c1,0,1,0,2,0c0,0,1,-1,1,-1c0,0,1,0,1,-1l1,0c0,-1,0,-1,0,-1c0,-1,1,-1,1,-2l0,-1l-1,0l0,-1l0,-1c1,0,1,0,1,0c0,1,0,1,0,1l1,0l1,0c1,0,1,0,1,0l1,0l0,-1c0,-1,0,-1,0,-2c0,0,1,-1,1,-1c1,-1,1,-1,2,-1c1,0,1,0,1,1l1,1l0,1c-1,0,-1,1,-1,1c0,1,0,1,-1,1c1,0,1,0,1,0l1,0l1,0ZM309.5,138.5l1,0c0,0,1,0,1,0c1,0,1,0,2,0c0,0,0,1,0,1l-1,1l-1,0c0,1,-1,1,-1,1c-1,0,-1,0,-1,-1l2,0c0,0,1,-1,1,-1c-1,0,-1,0,-1,0c-1,0,-1,0,-2,0c0,-1,0,-1,0,-1ZM305.5,148.5l-1,-1l-1,1l-2,-1l1,-1l2,1l0,-2l2,1ZM304.5,151.5l-1,0c0,0,0,1,0,1l0,1c0,0,1,0,1,0c0,0,1,0,1,0c0,0,0,-1,1,-1l-1,-1l-1,0ZM304.5,137.5c1,0,1,-1,1,-1c0,0,1,0,1,0c1,0,1,0,1,1l-1,1l1,1l0,1l-1,-1l-1,1c-1,1,-1,1,-1,1l-1,0l-1,0l1,0l1,-1l1,-1l-1,0c0,-1,0,-1,0,-1c0,-1,0,-1,0,-1ZM306.5,137.5l-1,0l0,1l1,0l0,-1ZM293.5,145.5c0,0,1,0,1,0c1,0,1,0,2,0c0,0,1,0,1,0c0,0,1,0,1,1l-1,0c0,0,0,1,0,1c0,0,-1,0,-1,0c0,1,0,1,-1,1l-1,0l-1,0l2,-1c1,0,1,0,2,-1c-1,0,-1,0,-1,0c0,0,-1,0,-1,0c0,0,-1,0,-1,0c0,0,-1,0,-1,0c0,0,0,-1,0,-1ZM289.5,156.5l0,-1l0,-1l-1,-9l1,-2l1,11c0,0,0,1,0,1c-1,0,-1,1,-1,1ZM280.5,150.5l-1,-1l1,-1l1,0ZM280.5,159.5c0,0,-1,0,-1,0c-1,0,-1,0,-2,-1l-1,-1c0,0,0,-1,0,-1c0,-1,0,-1,0,-2l0,-1l1,0l0,-1l1,0c-1,0,-1,0,-1,1c0,1,0,1,0,1l0,1l0,1l1,1c0,0,1,0,1,0c0,0,1,0,2,0c0,0,1,0,2,0c0,0,1,-1,1,-1c0,0,1,0,1,-1c0,0,0,-1,0,-1c0,0,0,-1,0,-1l-1,-1l0,-1l-1,-1l1,-1l1,0l0,1c0,1,0,1,0,1c0,0,0,1,1,1c0,0,0,1,0,1c0,1,0,1,0,1c0,1,0,2,-1,2c0,1,0,1,-1,2c0,0,-1,1,-2,1c0,0,-1,0,-2,0ZM283.5,164.5l-5,2c1,0,1,-1,1,-1l4,-2ZM342.5,156.5l-1,0l0,-1l-1,0l-1,0c0,0,0,1,-1,1l-1,0l-2,0c0,1,0,1,0,1l0,1c0,1,0,1,0,2c-1,0,-1,1,-2,1c0,1,-1,1,-1,2c-1,0,-2,0,-3,0c0,0,-1,0,-2,0c0,0,-1,-1,-1,-1c0,0,-1,-1,-1,-1c0,-1,0,-1,0,-2l0,-1c0,0,0,-1,0,-1l0,-1c1,0,1,0,1,0c0,0,0,-1,0,-1l0,1c0,1,0,1,0,1l0,1c0,0,-1,0,-1,0l0,1c1,0,1,0,1,1l1,0c0,0,0,1,0,1c1,0,2,0,3,0c0,0,1,0,2,0c1,0,1,-1,2,-1c0,0,0,-1,0,-1c0,-1,0,-1,0,-1c0,-1,0,-1,0,-1l0,-1l-1,-1l1,-2c0,1,0,1,0,1c1,0,1,0,2,0l1,0l1,0l1,0l1,-1c0,-1,0,-1,1,-2l1,0c1,1,1,1,1,2l0,1c0,0,0,1,0,1l-1,1ZM341.5,153.5l0,1l1,0l0,-1c0,0,-1,-1,-1,-1c0,0,0,1,-1,1l1,0ZM342.5,159.5l-5,2c1,0,1,-1,1,-1l4,-2ZM330.5,154.5l-1,-1l1,-2l1,1ZM329.5,146.5l4,-2l0,1l-1,0l-4,2ZM385.5,152.5c0,0,0,1,-1,1c1,0,1,0,1,0l1,0c0,0,0,-1,0,-1c0,0,-1,0,-1,0ZM385.5,160.5c-1,0,-1,1,-1,1c-1,0,-1,0,-2,0c-1,0,-1,0,-2,-1l-1,0l1,0c1,0,1,0,1,0c0,0,1,0,1,0c1,0,1,0,1,0c0,-1,0,-1,1,-1l1,-1c1,-1,1,-1,1,-2c0,0,1,-1,1,-1l-1,0c0,0,-1,0,-1,0l-1,0c0,0,0,-1,0,-1c0,0,-1,0,-1,0c0,0,0,-1,0,-1c0,0,1,0,1,0l0,-1l0,-1c0,0,1,0,1,-1l1,0c0,0,1,1,1,1c0,0,0,1,0,1c0,0,0,1,0,1c0,0,0,1,0,1c0,1,0,1,0,1c0,1,0,2,0,3c-1,0,-1,1,-1,1c0,0,0,1,-1,1ZM382.5,146.5l5,-2l-1,1l-4,2ZM377.5,149.5l-2,-1l1,-1l2,1ZM376.5,156.5l-1,0c-1,0,-1,0,-1,0c-1,0,-1,0,-1,0c0,0,0,-1,-1,-1l0,-1l0,-1l-1,0c0,1,0,1,0,1l-1,0c0,0,-1,0,-1,1l0,1c0,0,-1,0,-1,0c0,1,0,1,0,1c0,1,0,1,-1,2c0,0,0,1,0,1c-1,0,-1,0,-1,0l-1,1l-1,0l-1,0c0,0,-1,0,-1,0c0,-1,-1,-1,-1,-1l1,0l1,0l1,0l0,-1c0,0,1,0,1,0c0,0,1,0,1,-1c0,0,1,-1,1,-1c0,0,0,-1,1,-1c0,-1,0,-1,0,-1c0,0,-1,0,-1,0l1,-2l1,0c1,0,1,0,1,0c0,-1,0,-1,0,-1c1,0,1,0,1,0l1,0c0,0,0,-1,0,-1l0,1l0,1c0,0,1,0,1,0l0,1c1,0,1,0,1,0l1,0l1,0c1,0,1,0,2,0c0,0,1,0,1,0c0,-1,0,-1,0,-1c-1,-1,-1,-1,-1,-1l0,-1l1,-1c0,1,0,1,0,1c1,1,1,1,1,1l0,1c0,1,0,1,0,1c-1,0,-1,0,-1,0c0,1,0,1,0,1c0,0,-1,1,-1,1c-1,0,-1,0,-2,0ZM377.5,140.5l0,-1c0,0,1,0,1,0c1,0,1,1,1,1c0,0,0,1,0,1c0,1,-1,1,-1,1l1,0l0,1l-1,0l-1,0l0,1c0,0,-1,0,-1,0l0,1l-1,0c0,0,-1,0,-1,0l1,-1l1,0c0,0,0,-1,0,-1l1,0l0,-1c-1,0,-1,0,-1,-1l1,-1ZM378.5,141.5l0,-1l-1,0c0,1,0,1,0,1l1,0ZM371.5,150.5l-1,-1l1,-1l1,0ZM370.5,143.5l4,-2l0,1l-5,2ZM367.5,151.5l-2,-1l1,-2l1,1ZM366.5,142.5l0,1c1,0,1,-1,1,-1l0,-1l0,1l1,0l0,-1l1,0l0,-1l0,1l0,1c0,1,-1,1,-1,1c0,0,-1,0,-1,0c0,1,-1,1,-1,1l-1,0c0,0,0,-1,0,-1l0,-1ZM369.5,164.5l-4,2c0,-1,0,-1,0,-1l4,-2ZM361.5,145.5c-1,0,-1,-1,-1,-1c0,0,0,-1,1,-1c0,0,0,-1,0,-1l0,1c1,1,1,1,1,1c0,0,0,1,0,1l0,1c0,0,0,1,0,2c0,2,0,3,0,3c0,1,0,2,0,3l0,1c0,0,0,1,0,1c-1,1,-1,2,-2,2l0,1c-1,0,-1,0,-1,0c-1,0,-2,1,-3,1l-1,-1l-1,0c0,0,-1,0,-1,-1l-1,0c0,-1,0,-1,0,-2c0,0,0,-1,0,-2c1,0,1,0,1,-1l1,-1l-1,1c0,0,0,1,0,1c0,0,0,1,0,1c0,1,0,1,1,2c0,0,1,0,2,1c1,0,2,-1,3,-1c1,0,2,-1,2,-1c0,0,0,-1,0,-1c0,-1,0,-2,0,-4c0,-1,0,-2,0,-3c0,-1,0,-2,0,-3ZM356.5,141.5l0,-1l-1,0c0,1,0,1,0,1l1,0Z" class="g2_50" />
</svg>