<?xml version="1.0" encoding="UTF-8" standalone="no"?>
<!DOCTYPE svg PUBLIC "-//W3C//DTD SVG 1.1//EN"
"http://www.w3.org/Graphics/SVG/1.1/DTD/svg11.dtd">
<svg version="1.1" xmlns="http://www.w3.org/2000/svg" xmlns:xlink="http://www.w3.org/1999/xlink">
<defs>
<style type="text/css"><![CDATA[
.g1_54{
fill: #1F1A17;
stroke: #1F1A17;
stroke-width: 1;
stroke-linecap: butt;
stroke-linejoin: miter;
}
]]></style>
</defs>
<path fill-rule="evenodd" d="M254.5,85.5c0,1,-1,1,-3,2l0,-1c1,0,1,0,2,0c0,-1,0,-1,0,-1c0,0,-1,0,-1,0c0,0,-1,0,-1,-1c0,0,1,0,1,0c0,0,0,-1,0,-1c1,0,1,1,2,1l0,1ZM251.5,101.5l-1,0c-1,1,-1,2,-2,3c-1,1,-2,1,-3,1c-1,0,-2,-1,-3,-1c1,0,2,0,2,0c1,0,2,-1,3,-1c1,-1,1,-1,2,-2c-1,0,-1,0,-2,0c0,-1,0,-1,0,-2c0,0,0,-1,0,-1c1,-1,1,-2,1,-2c1,0,1,1,1,1c1,1,1,1,1,1c0,1,1,1,1,1l0,-1l0,1c0,0,0,-1,1,-1l0,1c1,0,2,-1,2,-1c0,-4,0,-6,-1,-8c0,0,0,-1,0,-1c0,-1,1,-2,1,-2l0,1l1,1c0,1,0,1,0,2c0,1,0,1,0,2c0,1,0,1,0,2l0,2c0,1,0,2,-1,2c0,1,-1,2,-1,2l-2,0ZM249.5,99.5l0,-1c-1,0,-1,0,-1,0l0,1l1,0ZM197.5,92.5l0,1l-1,-1c0,1,-1,2,-2,2c0,-1,1,-1,2,-2c0,0,-1,-1,-1,-1c0,0,0,-1,1,-1c0,0,0,-1,1,-1c0,0,0,1,0,1c0,1,0,1,0,2ZM197.5,91.5c0,0,-1,-1,-1,-1c0,1,0,1,1,1ZM205.5,91.5l0,1l-4,2c0,-1,0,-1,1,-1l0,-1ZM211.5,84.5c0,1,0,1,0,1l-4,2c1,-1,1,-1,1,-1ZM236.5,102.5c0,1,0,1,0,1l-4,2c0,0,0,-1,0,-1c0,0,1,0,1,0ZM250.5,91.5l0,1l-4,2c0,-1,1,-1,1,-1l0,-1ZM260.5,83.5l0,1l-4,2c0,-1,0,-1,1,-1l0,-1ZM211.5,96.5c0,1,0,2,0,2c-1,0,-1,0,-2,0l-1,0c0,1,-1,1,-1,1c-1,1,-1,1,-1,1c-1,1,-2,1,-2,1l-1,0l-1,0c-1,0,-1,-1,-1,-1c0,-1,0,-1,-1,-1c0,1,-1,1,-1,1c-1,1,-1,1,-2,1c-1,0,-2,0,-2,-1l0,-2c1,1,1,1,2,1c0,0,1,0,2,-1c0,0,1,0,1,-1l-1,-4c0,0,1,-1,1,-2c0,2,0,3,1,4c0,2,1,3,1,3c0,1,0,1,0,1l0,-1c0,0,1,0,1,0c1,1,1,1,1,1c1,0,1,-1,2,-1c0,0,1,0,1,-1c-1,0,-1,0,-1,0c-1,-1,-1,-1,-2,-1c-1,1,-1,1,-1,1c0,-1,0,-2,1,-2c0,-1,1,-1,1,-1c0,0,1,0,2,1c0,0,1,0,1,1c1,0,2,0,3,0ZM219.5,89.5c0,1,0,1,0,2c0,0,-1,0,-1,0c0,1,0,1,0,3c-1,1,-1,2,-1,2c0,1,1,2,1,3c0,1,0,1,-1,1c0,1,-1,1,-1,1c-1,0,-2,0,-3,0l0,-3l1,1c0,0,1,-1,1,-1c1,-1,1,-1,1,-2c0,0,-1,-1,-2,-2c-1,-2,-2,-2,-2,-3l0,1c0,0,-1,0,-1,0c0,0,-1,-1,-1,-1c-1,-1,-1,-1,-1,-2l1,0c0,-1,0,-1,0,-1c1,0,2,1,4,3c0,0,1,2,3,4c0,0,0,-1,0,-2c0,-1,0,-2,0,-2c0,0,0,-1,0,-1c0,-1,1,-2,1,-3c0,1,0,1,0,1c0,1,0,1,1,1ZM217.5,98.5c0,-1,0,-1,0,-1c-1,1,-1,1,-2,2c0,0,1,0,2,0c0,-1,0,-1,0,-1ZM222.5,97.5c0,2,0,4,-1,4l0,-12l1,-1ZM240.5,96.5c0,1,0,2,0,2c-1,0,-1,0,-2,0l-1,0c0,1,-1,1,-1,1c-1,1,-1,1,-1,1c-1,1,-2,1,-2,1l-1,0l-1,0c-1,0,-1,-1,-1,-1c0,-1,0,-1,-1,-1c0,1,-1,1,-1,1c-1,1,-1,1,-2,1c-1,0,-2,0,-2,-1l0,-2c1,1,1,1,2,1c0,0,1,0,2,-1c0,0,1,0,1,-1l-1,-4c0,0,1,-1,1,-2c0,2,0,3,1,4c0,2,1,3,1,3c0,1,0,1,0,1l0,-1c1,0,1,0,1,0c1,1,1,1,1,1c1,0,1,-1,2,-1c0,0,1,0,1,-1c-1,0,-1,0,-1,0c-1,-1,-1,-1,-1,-1c-1,0,-1,0,-1,0c0,1,-1,1,-1,1c0,-1,0,-2,1,-2c0,-1,1,-1,1,-1c1,0,1,0,2,1c0,0,1,0,1,1c1,0,2,0,3,0ZM259.5,97.5c0,2,-1,4,-1,4l-1,-12c0,0,1,0,2,-1ZM244.5,97.5c0,2,0,4,-1,4l0,-12l1,-1ZM229.5,89.5l0,1l-1,0c-1,1,-2,1,-2,1l-1,0c1,0,2,-1,3,-2c-1,0,-1,0,-1,-1l0,-1c1,0,1,-1,1,-1c1,0,1,1,1,1c0,1,0,1,0,2ZM228.5,88.5c0,0,0,-1,0,-1l-1,0c0,1,0,1,0,1c0,0,1,0,1,1c0,-1,0,-1,0,-1ZM218.5,85.5c0,1,-1,1,-2,2c0,-1,0,-1,1,-1c0,0,0,-1,0,-1l-1,0l0,-1l1,0l1,0c0,0,0,1,0,1Z" class="g1_54" />
<path fill-rule="evenodd" d="M78.5,258.5c0,0,0,1,0,1l1,0l0,1l0,1c0,1,0,1,0,2l-1,0l-1,0c-1,0,-1,0,-1,0c0,-1,0,-1,0,-1l0,-1l0,-1l0,-1l1,0c0,0,0,-1,1,-1ZM84.5,315.5l0,-1l0,-2l-1,-8l1,-3l1,11c0,0,0,1,0,1c-1,1,-1,1,-1,2ZM86.5,318.5l-4,2c0,0,0,-1,0,-1l4,-2ZM77.5,308.5l-1,-1l1,-2l1,1ZM77.5,315.5l-1,0c-1,0,-1,0,-2,-1c-1,0,-1,-1,-1,-1c0,-1,0,-1,0,-1l-1,0c0,0,0,1,0,1l-1,0l-1,0l-1,0l-1,0l0,-2c1,0,1,0,2,-1c0,0,0,-1,1,-1c1,-1,1,-1,1,-1c0,-1,0,-1,0,-1l1,-1l0,1c0,1,0,1,0,1c0,1,0,1,0,2l1,2c0,0,0,1,0,1c0,0,1,0,1,0l1,0l1,0c0,0,1,0,1,0c1,0,1,-1,1,-1c0,0,1,0,1,0c-1,0,-1,-1,-1,-1c0,0,0,-1,0,-1l0,-2c1,0,1,1,1,1l0,1l0,1c0,1,0,1,0,1c0,1,0,1,0,1l0,1c-1,0,-1,0,-2,0c0,1,-1,1,-1,1ZM75.5,297.5l0,1c0,0,1,0,1,0l1,-1l0,1l1,0c0,0,0,-1,0,-1l0,-1l0,1l0,1c0,0,0,1,0,1l-1,0l0,-1l0,1l-1,0c-1,0,-1,0,-1,0l0,-1l0,-1ZM79.5,294.5l-5,3c0,-1,0,-1,0,-1l6,-3ZM72.5,309.5l0,1l-1,0c-1,1,-1,1,-1,1l1,0l1,0l1,0ZM135.5,318.5l-2,-1l1,-1l2,1ZM132.5,315.5l-1,0c-1,0,-1,0,-1,-1c-1,0,-1,0,-1,0c-1,0,-1,0,-1,-1l-1,0l-1,1l-1,0l-1,0l0,1l-1,0l-2,0c-1,0,-1,0,-1,-1l-1,0l0,-1l0,-1l0,1l-1,0l0,1c-1,0,-1,0,-2,0l-1,0l-1,0c-1,0,-1,0,-1,0l-1,-1c0,0,0,-1,1,-1l0,-1c0,1,0,1,0,1l1,0l0,1l1,0l1,0l1,-1l1,0l1,0l0,-1l0,-1l-1,-2l0,-1l0,-1l1,-1l0,2c0,0,0,1,1,1l0,3l0,1l0,1c1,0,1,0,1,0l2,0l1,0l1,0l1,-1l0,-1c-1,0,-1,0,-1,0c-1,0,-1,0,-1,0l1,-2c0,0,1,0,1,0c0,0,1,0,1,0c1,0,1,0,1,0l1,0c0,1,0,1,0,1c1,0,1,0,1,0c0,0,0,1,-1,1l0,1l-1,0c0,0,1,0,1,0c0,1,0,1,0,1l1,0l1,0l1,0c1,0,1,0,2,0c0,0,1,-1,1,-1c0,0,0,-1,0,-1c-1,0,-1,0,-1,0l0,-1l1,-2c0,0,0,1,0,1l0,1l1,1l0,1c-1,1,-1,1,-1,1l0,1c0,0,-1,0,-1,0c-1,1,-1,1,-2,1ZM132.5,302.5l4,-3l0,1l0,1l-4,2ZM123.5,300.5c0,0,1,0,1,0c1,0,1,0,1,0c1,0,1,0,2,0l0,1l0,1c0,0,-1,0,-1,0c0,0,0,1,-1,1l-1,0l-1,0l2,-1c1,0,1,0,2,-1c-1,0,-1,0,-1,0c0,0,-1,0,-1,0c0,0,-1,0,-1,0c0,0,-1,0,-1,0c0,0,0,-1,0,-1ZM116.5,318.5l-4,2c0,-1,0,-1,0,-1l4,-2ZM107.5,315.5c-1,0,-1,0,-1,-1c-1,0,-1,-1,-1,-1c0,-1,0,-1,0,-2l0,-1l1,0l0,-2c1,0,1,0,1,0c1,0,1,0,2,0c0,1,0,1,1,2l0,1c0,2,-1,3,-2,4c0,0,-1,0,-1,0ZM107.5,310.5c0,0,-1,0,-1,0c0,1,0,1,0,1c0,0,0,1,0,1c0,1,0,1,0,1l1,0l1,0c1,-1,1,-1,1,-1c0,0,0,-1,-1,-1c0,0,-1,-1,-1,-1ZM160.5,314.5l-1,0l-1,0l-1,-1l-1,0c0,1,0,1,0,1l-1,1l-1,0l-2,0c1,0,1,0,1,0l0,1c0,1,-1,2,-1,2c0,1,-1,1,-1,2c-1,0,-1,1,-2,1c-1,0,-2,1,-2,1c-1,0,-2,0,-2,-1c-1,0,-1,0,-2,0c0,-1,0,-1,-1,-2c0,0,0,-1,0,-1c0,-1,0,-1,0,-1c0,-1,0,-1,0,-1c0,-1,1,-1,1,-1c0,0,0,-1,0,-1l1,0c0,0,-1,1,-1,1l0,1c0,0,0,1,0,1c0,0,0,1,0,1c0,0,1,1,1,1c1,0,1,0,1,0c0,1,1,1,2,1c1,0,2,0,2,-1c1,0,2,0,2,-1l1,0c0,0,0,-1,0,-1c0,-1,0,-1,0,-1c0,-1,-1,-1,-1,-1l0,-1l0,-2l1,0c0,1,0,1,1,1l1,0l1,0c0,0,1,0,1,0l0,-1l1,-1c0,0,1,-1,1,-1c0,-1,1,-1,1,-1c0,0,1,0,1,1c0,0,0,1,0,1l1,1l0,1l-1,0c0,1,0,1,0,1ZM158.5,312.5l1,0c0,0,0,-1,0,-1c-1,0,-1,0,-1,0l0,1ZM156.5,300.5l0,1l1,0l0,-1l1,0l0,1c0,0,1,-1,1,-1l0,-1l0,1l0,1c0,0,0,1,-1,1l-1,0l0,-1l0,1c0,0,-1,0,-1,0c0,0,-1,0,-1,0l0,-1l1,0l0,-1ZM159.5,318.5l-4,2c0,-1,0,-1,0,-1l4,-2ZM147.5,312.5l-1,-1l1,-1l1,1ZM147.5,304.5l0,1l-1,0l-1,0c0,1,0,1,0,1l0,3l0,1l-1,0l0,-1l0,-1l0,-1l0,-1l0,-1c0,0,1,0,1,-1l-1,0l0,-1c1,0,1,0,1,0c1,0,1,0,1,0c1,1,1,1,1,1ZM196.5,315.5l0,-1l0,-2l0,-8l1,-3l0,11c0,0,0,1,0,1c0,1,0,1,-1,2ZM195.5,299.5l4,-2l-1,0c0,1,0,1,0,1l-4,2ZM192.5,310.5l-1,2l-1,0l-1,0c-1,0,-1,0,-1,1l-1,0l-1,0l-2,1l-1,0l-1,1l-1,0l-1,0l-1,0l-1,0l0,-1l-1,0l0,-1l0,-1l-1,1l0,1c-1,0,-1,0,-2,0c0,0,-1,0,-1,0l-1,0c0,0,-1,0,-1,0c-1,0,-1,0,-1,-1c0,0,0,-1,0,-1l0,-1l1,0c0,1,0,1,0,1l1,0l0,1l1,0c0,0,1,0,1,0l0,-1c0,0,1,0,1,0c1,0,1,0,1,0l0,-1c1,0,0,0,0,-1l0,-2l0,-1l0,-1l1,-1l0,2c0,0,0,1,0,1l1,3l0,1l0,1c1,0,1,0,1,0l1,0l1,0c0,0,0,-1,0,-1c0,-1,0,-1,0,-1c0,-1,0,-1,0,-1c0,0,1,0,1,0c0,-1,0,-1,1,-1l1,0l1,0c1,0,1,0,1,0l2,1l1,0l1,0l1,0l1,0ZM187.5,311.5l-1,0c0,0,-1,0,-1,0l-1,0c0,-1,0,-1,0,-1l-1,0l0,1c0,0,-1,0,-1,0c0,0,0,1,0,1l-1,1l1,0l1,0l1,0l0,-1l1,0l1,0ZM182.5,302.5l4,-3l0,1l-1,1l-4,2ZM168.5,321.5l5,-2c0,1,0,1,0,1l-5,2ZM170.5,318.5l5,-3c0,1,0,2,0,2l-5,2ZM222.5,314.5c0,0,-1,0,-1,0l-1,0l-1,-1l-1,0c0,1,0,1,0,1l-1,1l-1,0l-2,0l0,1c0,1,0,2,0,2c0,1,-1,1,-1,2c-1,0,-1,1,-2,1c-1,0,-2,1,-2,1c-1,0,-2,0,-2,-1c-1,0,-1,0,-2,0c0,-1,0,-1,-1,-2c0,0,0,-1,0,-1c0,-1,0,-1,0,-1c0,-1,0,-1,0,-1c0,-1,0,-1,1,-1c0,0,0,-1,0,-1l1,0c0,0,-1,1,-1,1l0,1c0,0,0,1,0,1c0,0,0,1,0,1c0,0,1,1,1,1c0,0,1,0,1,0c0,1,1,1,2,1c1,0,1,0,2,-1c1,0,2,0,2,-1c1,0,1,-1,1,-1c0,-1,0,-1,0,-1c-1,-1,-1,-1,-1,-1l0,-1l0,-2c1,0,1,0,1,0c0,1,0,1,1,1l1,0l1,0c0,0,1,0,1,0l0,-1l1,-1c0,0,0,-1,1,-1c0,-1,1,-1,1,-1c0,0,1,0,1,1c0,0,0,1,0,1l1,1l0,1l-1,0c0,1,0,1,0,1ZM220.5,312.5l1,0c0,0,0,-1,0,-1c-1,0,-1,0,-1,0l0,1ZM221.5,318.5l-4,2c0,-1,0,-1,0,-1l4,-2ZM209.5,312.5l-1,-1l1,-1l1,1ZM209.5,299.5l1,0l1,0c0,0,1,0,1,0c1,0,1,0,1,1c0,0,-1,1,-1,1c0,0,-1,1,-1,1c-1,0,-1,0,-1,0l-1,0l2,-1c0,0,1,0,1,-1l-1,0c-1,0,-1,0,-2,0l-1,0l1,0c0,0,0,-1,0,-1ZM291.5,315.5l0,-1l0,-2l-1,-8l1,-3l1,11c0,0,0,1,0,1c-1,0,-1,0,-1,0c0,1,0,1,0,2ZM288.5,298.5l4,-2c0,0,0,1,0,1l-4,2ZM286.5,314.5l-1,0l-1,0l-1,-1l-1,0c0,1,0,1,0,1l-1,1l-1,0l-1,0l0,-1l-1,0l0,-1l0,-1l-1,1c0,0,0,1,0,1c-1,0,-1,0,-2,0c0,0,-1,0,-1,-1l0,1c-1,0,-1,1,-2,1c-1,0,-1,-1,-2,-2c0,0,0,1,0,1c-1,0,-1,0,-2,1l-1,0c-1,0,-1,-1,-2,-1l-1,-1l-2,-2c0,0,-1,0,-1,-1l0,1l0,1c-1,0,-1,0,-1,1l0,1c0,0,-1,0,-1,0l-1,0c0,1,-1,1,-1,1l-1,0c-1,0,-1,0,-2,0c0,0,0,1,0,1c0,0,0,1,0,1c0,0,0,1,0,2c-1,0,-1,1,-2,1l-1,-1l-1,-1c0,-1,0,-2,0,-3l-1,0c0,0,-1,0,-1,0l-1,0l-1,0c0,0,-1,-1,-2,-1c0,0,0,1,-1,1c0,0,-1,0,-1,0l-1,-1l-2,-1l-1,1c0,0,0,1,-1,1l-1,0l-1,0c-1,0,-2,-1,-2,-1c-1,0,-1,-1,-1,-2l0,-8l1,-3l0,10l0,1c1,1,1,1,2,1l1,0l1,0c1,0,1,0,1,0l1,-1l0,-1c1,-1,2,-1,3,-1l1,1l1,1l1,0c0,1,0,1,0,1l1,0l1,0l1,0l1,0l1,0c0,-1,0,-1,1,-2c0,-1,0,-1,0,-1c1,-2,2,-2,2,-2c1,0,1,0,1,0l0,1l0,1c0,1,0,1,0,2c-1,0,-1,1,-2,1l1,0l1,0l1,0l1,0l1,0c1,0,1,0,1,0c0,0,1,0,1,0c0,0,0,-1,0,-1c1,0,1,0,1,0c0,-1,0,-1,0,-1l0,-1l-1,0c0,-1,0,-1,0,-1c-1,0,-1,0,-1,-1c-1,0,-1,0,-1,0c0,0,-1,0,-1,0c0,0,0,-1,-1,-1c0,0,0,-1,0,-1l0,-1c0,0,0,-1,1,-1c1,0,2,-1,3,-2c1,0,3,-1,4,-1c2,-1,3,-1,3,-1c1,0,1,0,1,0l-1,1c-1,1,-2,1,-3,1c-1,1,-3,1,-4,2c-2,0,-2,1,-3,1c0,0,0,1,0,1l1,0c0,0,1,1,1,1l1,0c1,1,2,1,2,2c1,0,1,0,2,1c0,0,1,1,1,1l2,2l1,0l1,0l1,0c1,-1,1,-1,2,-2l0,1c0,0,0,1,1,1c0,0,1,0,1,-1c1,0,1,0,1,-1l1,0c0,0,0,1,0,1c0,0,1,0,1,0c0,0,1,0,1,0c0,-1,1,-1,1,-1c0,1,1,2,2,2l1,0c0,0,1,0,1,0l0,-1l1,-1c0,0,1,-1,1,-1c0,-1,1,-1,1,-1c0,0,1,0,1,1c0,0,0,1,0,1l1,1l0,1l-1,0c0,1,0,1,0,1ZM284.5,312.5l1,0c0,0,0,-1,0,-1c-1,0,-1,0,-1,0l0,1ZM280.5,297.5c1,0,1,-1,1,-1c1,0,1,0,2,0c0,0,1,0,1,0c0,0,1,1,1,1c-1,1,-1,1,-1,1c0,0,0,1,-1,1l-1,0l-1,0l1,0c1,-1,1,-1,2,-1c0,0,-1,-1,-1,-1c0,0,-1,0,-1,0c0,0,-1,0,-1,1l-1,0c0,-1,0,-1,0,-1ZM273.5,302.5l4,-3l0,1l0,1l-4,2ZM257.5,298.5l5,-2l-1,1l-4,2ZM253.5,310.5c0,0,-1,0,-1,0l-1,1l-1,1c2,0,2,0,3,0c0,-1,0,-1,0,-2ZM250.5,315.5c0,0,0,1,1,1c0,1,0,1,0,1l1,1l1,0l1,0c0,-1,0,-1,0,-1c0,0,-1,-1,-2,-1c0,-1,-1,-1,-2,-1ZM252.5,299.5c0,0,0,-1,1,-1l1,0l0,1l0,1l0,1l0,1l-1,-1l0,1l-1,0c0,1,0,1,-1,1l-1,0l1,0l0,-1c0,0,1,0,1,0l0,-1l1,0l-1,0c0,-1,0,-1,0,-1c0,-1,0,-1,0,-1ZM253.5,299.5l0,1l0,-1ZM243.5,313.5l0,-1c-1,0,-1,-1,-1,-1l-1,0l-1,1c1,0,1,0,2,1ZM239.5,302.5l4,-3l0,1l0,1l-4,2ZM313.5,315.5l0,-1l0,-2l0,-8l1,-3l0,11c0,0,0,1,0,1c0,1,-1,1,-1,2ZM315.5,318.5l-4,2c0,-1,1,-1,1,-1l3,-2ZM305.5,308.5l-2,0l1,-2l1,1ZM304.5,318.5c0,0,-1,0,-1,0c-1,-1,-1,-1,-2,-1c0,0,0,-1,-1,-1c0,-1,0,-1,0,-2c0,0,0,-1,0,-1l0,-1c1,0,1,-1,1,-1c0,-1,0,-1,0,-1l1,0c0,1,0,1,-1,1c0,0,0,1,0,1c0,1,0,1,0,1c0,1,0,1,0,1c0,1,1,1,1,1c1,0,1,1,1,1c0,0,1,0,2,0c1,0,1,0,2,-1c1,0,1,0,2,-1c0,0,0,-1,0,-1c0,0,0,-1,0,-1c0,-1,0,-1,0,-1c0,0,-1,-1,-1,-1l0,-1l0,-2c0,0,1,0,1,1c0,0,0,1,0,1l1,1c0,1,0,1,0,1c0,0,0,1,0,1l0,1c0,0,0,1,0,2c-1,0,-1,1,-2,1c0,1,-1,1,-2,1c0,1,-1,1,-2,1ZM300.5,300.5l1,0c0,0,1,0,1,0c1,0,1,0,2,0l0,1l-1,1l-1,0c0,0,0,1,0,1c0,0,-1,0,-1,0c-1,0,-1,0,-1,0l2,-1c0,0,1,0,1,-1c-1,0,-1,0,-1,0c-1,0,-1,0,-2,0c0,0,0,-1,0,-1ZM350.5,307.5l-1,-1l1,-1l1,1ZM344.5,318.5l1,0c1,0,2,0,3,-1c0,0,1,-1,1,-1c1,0,1,-1,1,-1c1,-1,1,-1,1,-1c0,-1,0,-1,0,-1c0,-1,0,-1,0,-1l-1,-1l0,-2l1,0l0,1l0,1l1,0l0,1l0,1c0,0,0,1,0,1c-1,0,-1,1,-1,1l0,1c0,0,0,1,0,1c-1,0,-1,0,-1,1c0,0,-1,0,-1,0l-1,0c0,1,0,1,-1,1l-1,0c0,0,-1,0,-1,0l0,-1c0,0,-1,0,-1,0ZM349.5,302.5l4,-3l0,1l-1,1l-4,2ZM342.5,315.5l0,-1l1,-2l-1,-8l1,-3l0,11c0,0,0,1,0,1c0,1,0,1,-1,2ZM335.5,313.5l1,0l1,0l0,-1c0,0,1,0,1,0l-1,-2l0,-7c0,-1,0,-1,0,-1c0,-1,0,-1,1,-1c0,1,0,1,0,1l1,1l-1,1c0,1,0,1,0,2c0,0,0,1,0,3c0,0,0,1,0,1l0,1c0,0,0,1,0,1c0,1,0,1,0,1l0,1c0,0,-1,0,-1,0c0,0,-1,0,-1,1c0,0,-1,0,-1,0l-2,0c-1,0,-1,-1,-1,-1l-1,0c0,0,0,-1,0,-1l-1,0c0,1,0,1,0,1c0,0,-1,0,-1,1c0,0,-1,0,-1,0l-2,0c0,0,-1,-1,-2,-1c0,0,0,-1,0,-2l-1,-8l1,-3l1,10l0,1c0,1,1,1,1,1l2,0c0,0,1,0,1,0c0,0,1,0,1,-1l1,0l1,0c0,0,0,1,0,1c1,0,1,0,1,0l2,0ZM336.5,298.5l4,-2l0,1c0,0,-1,0,-1,0l-4,2ZM332.5,309.5l-2,0l0,1l-2,-1l1,-2l2,1l0,-1l2,1ZM329.5,302.5l4,-3l0,1l-1,1l-4,2ZM321.5,299.5l1,0c0,0,1,0,1,0c1,0,1,0,2,0l1,0c0,0,0,1,-1,1l-1,0l-1,0l-1,0l-1,0l-1,0c0,-1,1,-1,1,-1ZM383.5,311.5c0,1,0,1,0,1c1,0,1,0,1,0c0,0,0,-1,0,-1l-1,0ZM383.5,318.5c0,1,0,1,0,1c0,0,-1,0,-1,0c0,0,-1,0,-1,0l-1,0c0,0,-1,0,-2,0c0,0,0,-1,0,-1l1,0c0,0,0,1,0,1c1,0,1,0,1,0c0,-1,0,-1,1,-1c0,0,1,0,1,0c0,-1,1,-1,1,-1c0,0,1,-1,1,-1l0,-1c1,-1,1,-1,1,-1c0,-1,0,-1,0,-1l-1,0c0,1,0,1,0,1l-1,0l-1,0c0,-1,0,-1,0,-1c0,0,0,-1,0,-1l0,-1c0,0,0,-1,0,-1c1,-1,1,-1,1,-1c0,0,1,0,1,0l1,0l0,1c1,1,1,1,1,2l0,1c0,1,0,1,0,1c0,1,-1,2,-1,2c0,1,-1,1,-1,1c0,1,0,1,-1,1ZM381.5,305.5l4,-2l-1,0c0,1,0,1,0,1l-4,2ZM374.5,313.5c0,0,1,0,1,0l1,0l0,-1c0,0,1,0,1,0l-1,-2l0,-7c0,-1,0,-1,0,-1c0,-1,0,-1,1,-1c0,1,0,1,0,1l1,1l-1,1c0,1,0,1,0,2c0,0,0,1,0,3c0,0,0,1,0,1l0,1c0,0,0,1,0,1c0,1,0,1,0,1l0,1c0,0,-1,0,-1,0c0,0,-1,0,-1,1c0,0,-1,0,-1,0c-1,0,-1,0,-1,-1c-1,0,-1,0,-1,0c0,0,-1,-1,-1,-1c0,0,0,-1,0,-1l0,-1l0,-1c0,1,-1,2,-2,2l-1,0c1,1,1,1,1,1l0,1c0,1,-1,2,-1,2c0,1,0,2,-1,2c0,1,-1,1,-2,1c0,0,-1,1,-2,1c0,0,-1,-1,-1,-1c-1,0,-1,0,-2,0c0,-1,-1,-1,-1,-2c0,0,0,-1,0,-1c0,-1,0,-1,0,-1l0,-1c0,-1,0,-1,0,-1c0,0,1,0,1,0c0,-1,0,-1,0,-1l1,0c-1,0,-1,1,-1,1l0,1c0,0,0,1,0,1c0,0,0,1,0,1c0,0,0,1,1,1c0,0,1,0,1,0c0,0,1,1,2,1c0,0,1,-1,2,-1c0,0,1,0,1,-1c0,0,1,0,1,0c0,-1,0,-1,0,-1l0,-1l0,-1c0,0,-1,0,-1,0c0,-1,0,-1,0,-1c0,0,0,-1,0,-1l-1,0l1,-2c1,1,1,1,1,1l1,0l1,0l1,-1l0,-1c1,0,1,1,1,1l0,1l0,1c0,1,0,1,0,1l1,1c0,0,1,0,1,0ZM375.5,298.5l4,-2l0,1l-1,0l-4,2ZM372.5,318.5l0,-1l1,-1l1,0c0,0,1,0,1,1l-1,0l0,1l0,-1l-1,0l-1,1l1,0l1,1l1,0l0,-1l0,1l-4,2l0,-1l1,0c0,-1,0,-1,0,-1l0,-1ZM375.5,323.5l-4,2c0,-1,0,-1,0,-1l5,-2ZM363.5,310.5l-1,-1l1,-1l1,1ZM361.5,301.5c0,0,0,-1,1,-1c0,0,1,0,1,0c1,0,1,0,2,0c0,1,0,1,0,1c0,1,0,1,0,1c-1,0,-1,1,-1,1c-1,0,-1,0,-1,0c0,0,-1,0,-1,0c0,0,-1,0,-1,0l2,0c0,-1,1,-1,1,-1c0,0,0,-1,0,-1c-1,0,-1,0,-1,0c-1,0,-1,0,-2,1c0,-1,0,-1,0,-1ZM146.5,296.5c0,-1,0,-1,1,-1l1,0c0,0,1,0,1,0c1,0,1,1,1,1c0,0,-1,1,-1,1l0,1c-1,0,-1,0,-1,0c-1,0,-1,0,-1,0l-1,0l1,-1c1,0,2,0,2,-1c0,0,-1,0,-1,0l-1,0l-1,0l-1,1l0,-1l1,0ZM69.5,303.5l-1,0c0,-1,0,-1,0,-1c0,-1,0,-2,0,-2c0,-1,0,-1,1,-1c0,0,0,-1,0,-1l1,0l1,0l-1,0l0,1l-1,1l0,1c0,0,0,1,0,1c0,0,1,0,1,0c0,1,1,1,1,1c0,0,0,1,-1,1l-1,0l0,-1ZM105.5,322.5c0,-1,0,-1,0,-2c0,0,0,-1,0,-1l0,-1c0,0,1,0,1,1l0,1c0,1,0,1,0,1l0,1l-1,0ZM93.5,311.5l1,-1l0,-1l0,-1l0,-2l-1,0l0,-1l1,0l0,1l0,1l0,1l0,1l0,1l1,-1l1,0l1,0c1,0,1,0,1,0l0,1c-1,1,-1,1,-1,1c-1,0,-1,0,-2,0l-1,0ZM96.5,309.5c0,0,0,1,-1,1l-1,1l1,0c1,0,1,0,1,0c0,-1,0,-1,0,-1c0,0,1,0,1,0c0,0,0,-1,0,-1l-1,0ZM175.5,358.5c0,1,0,2,0,3l-1,0l0,1l0,1l1,0l-1,0l0,1l-1,0l0,1l-1,0c0,0,0,1,-1,1l-1,0l-1,1l-1,0l-1,1l-1,1l-1,0l-3,0c-1,0,-1,0,-1,-1l-1,-1l-1,0c-1,-1,-1,-1,-2,-1l-1,0l0,-1l-1,0l0,-1l-1,0l-1,-1l1,-1l-1,-1l0,-1c0,-1,0,-1,0,-1l0,-1l0,-1c0,0,0,-1,0,-1c0,-1,0,-1,1,-1l0,-1l-1,0l1,-1l1,0l0,-1l1,0l0,-1l1,0l1,0l1,-1l1,0l1,-1c0,-1,0,-1,1,-1l3,0l1,0l1,1l1,1l2,1l1,0c1,0,1,0,1,1l1,0l0,1c1,0,1,0,2,1l-1,0l0,1l1,1l0,1l0,1ZM166.5,369.5l0,-1l1,0l0,-1l1,-1c1,0,1,0,2,0l1,0c0,-1,1,-1,1,-1l1,-1l1,0l0,-1l-1,0l0,-1l1,0l0,-1l1,-1l0,-1l0,-1c0,0,0,-1,0,-2c-1,0,-1,0,-1,0l0,-1l-1,-1l1,0c0,-1,0,-1,-1,-1l0,-1l-1,0l-1,-1l-1,0l-2,-1l-1,-1l-1,0c0,-1,0,-1,0,-1l-1,0l-2,0l-1,0l-1,1l-1,1l-1,0l-1,1l-1,0l-1,1l-1,0l0,1c-1,0,-1,0,-2,1l1,0l1,0l-1,0l0,1l0,1l-1,0l0,1l0,1l0,1l0,1l0,1l1,0l0,1l1,0l0,1l-2,0l1,0l0,1l1,0l0,1l1,0l1,1l1,0l1,0c1,1,1,1,1,1l1,0l0,1c0,0,1,1,1,1l3,0ZM172.5,354.5l-1,0l-1,-1l-1,0c0,0,-1,0,-1,-1c1,0,1,0,1,0l-1,0c1,0,1,0,1,0l1,0c0,0,1,0,1,1l1,0ZM172.5,363.5l0,1l-1,0l-1,1l-1,0l-1,0l1,0l-1,0c1,0,1,0,1,-1l1,0c1,0,1,-1,1,-1l1,0ZM167.5,365.5c0,1,0,1,0,1c0,1,0,1,-1,1l-1,0l-3,0c-1,0,-1,0,-1,-1l-1,0l0,-1l1,0c0,0,0,-1,1,-1l3,0l1,0c0,0,1,0,1,0l0,1ZM167.5,352.5c0,0,0,1,-1,1l-1,0l-3,0c-1,0,-1,0,-1,-1l-1,0c0,-1,0,-1,1,-1l0,-1l1,0l3,0l1,0c1,0,1,0,1,1ZM166.5,354.5l1,0l1,0c0,0,1,0,1,0l1,1l2,0l0,1l1,1l0,1l0,1c0,1,0,1,0,1l-1,1l0,1l-1,0c-1,0,-1,0,-1,0l0,1c0,0,-1,0,-1,0l-1,0l-1,0l-1,0l-1,0l-3,0l-1,0l-1,0c-1,0,-1,0,-1,0c-1,0,-1,0,-1,-1l-1,0l-1,0l-1,-2l0,-1l0,-1c0,-1,0,-1,0,-1l0,-1l1,0l0,-1l1,0c0,0,1,0,1,0l0,-1l1,0l1,0c0,0,1,0,1,0l1,0l3,0ZM166.5,363.5l1,0l1,0l1,0l1,-1c0,0,0,-1,0,-1l1,1l1,-1l0,-1l1,-1l0,-1c0,0,0,-1,-1,-1c0,-1,0,-1,0,-1c0,-1,0,-1,-1,-1l-1,0l-1,-1l-1,0c0,0,-1,0,-1,0l-1,0l0,1l-1,0l-3,0l0,-1l-1,0l-1,0l-1,0l-1,1c0,0,-1,0,-1,0l-1,0l0,1l-1,1l0,1l0,1l0,1l1,0c0,1,0,2,0,2l1,-1c0,0,1,1,1,1l0,1l1,0l1,0c0,0,1,0,1,0l1,0l0,-1l3,0l1,0ZM165.5,357.5l1,1l0,1l0,1c0,1,0,1,0,1l-1,0l1,-1c0,-1,-1,-2,-1,-2ZM163.5,358.5l-1,0l1,0l0,1l0,1l-1,0c0,0,1,0,1,0l1,0l0,1c0,0,-1,0,-1,0c-1,0,-1,0,-1,-1l0,-1l1,0l-1,0l0,-1l0,-1c1,0,1,0,1,0ZM156.5,354.5l0,-1l1,0l0,-1l1,0l1,0c0,0,0,1,0,1l-1,0l-1,0l0,1l-1,0ZM156.5,363.5l1,0c0,0,0,1,1,1l1,1l-1,0c0,0,-1,0,-1,-1l-1,0l0,-1ZM215.5,352.5l-1,-1l1,-2l1,1ZM221.5,358.5c-1,0,-2,1,-3,1c-1,1,-2,1,-3,1c-1,1,-2,1,-3,1l-1,0l-1,0l-1,0c0,0,-1,0,-2,0l-1,-1c0,1,-1,1,-1,1c-1,0,-2,0,-2,0l-1,0l-1,0c0,0,0,1,-1,1c0,0,0,1,0,1c0,1,0,1,-1,1c0,1,0,1,-1,1c0,1,0,1,0,1c-1,0,-1,0,-1,0c0,0,-1,0,-1,0l-1,0c0,0,-1,0,-2,0c0,0,0,-1,0,-1l1,0c0,1,0,1,0,1c1,0,1,-1,2,-1l1,0c0,-1,0,-1,1,-1l0,-1c1,0,1,0,1,0c0,-1,0,-1,0,-1c1,0,1,-1,1,-1c0,0,-1,0,-1,0c-1,0,-1,0,-1,0c-1,0,-1,-1,-1,-1c0,0,0,-1,0,-1c0,-1,0,-1,0,-1c0,0,0,-1,0,-1c1,0,1,0,1,0c0,-1,0,-1,0,-1c1,0,1,0,1,0l1,0c0,1,0,1,0,1l0,1c0,0,1,0,1,0c0,1,0,1,0,1c0,0,1,0,1,0l1,0c1,0,1,0,1,0c1,0,1,0,1,0l0,-1c0,-1,0,-1,0,-2c0,0,0,-1,1,-1c1,-1,1,-1,2,-1c0,0,1,0,1,0c0,1,0,1,0,2l0,1l0,1c0,1,-1,1,-1,1l1,0c1,0,1,0,1,0l1,0l1,0c0,0,1,0,1,0c0,0,1,0,1,0c0,0,0,-1,-1,-1c0,-1,0,-1,0,-1c0,-1,0,-1,0,-1c0,0,0,-1,0,-1c0,0,1,0,1,0l0,-1c0,0,1,-1,1,-1l1,0l1,0l1,0c1,0,1,0,1,1c0,0,1,0,1,0l-1,0l-1,0l-1,0l-1,0c-1,0,-1,0,-1,1l-1,0c0,1,0,1,0,1c1,0,1,0,1,1c1,0,1,1,2,1l1,0c0,-1,1,-1,1,-1l1,0l1,-1ZM215.5,345.5l4,-2c-1,0,-1,1,-1,1l-4,2ZM207.5,353.5l-1,-1l1,-2l1,1ZM207.5,356.5l-1,0c0,0,0,1,0,1c0,1,0,1,1,1c0,0,1,0,1,0c0,0,0,-1,0,-1c0,0,0,-1,0,-1c0,0,-1,0,-1,0ZM207.5,342.5c0,-1,0,-1,1,-1l1,0l0,1l0,1l0,1l1,0l-1,1l-1,-1l0,1l-1,0c0,1,0,1,-1,1l-1,0l1,0l0,-1c0,0,1,0,1,0l0,-1l1,0l-1,0c0,-1,0,-1,0,-1c0,-1,0,-1,0,-1ZM208.5,342.5l0,1l0,-1ZM199.5,358.5c-1,0,-1,0,-1,0c0,1,0,1,0,1c1,0,1,0,1,0c1,0,1,0,1,0c-1,0,-1,0,-1,-1ZM185.5,364.5l1,0c1,0,2,0,3,-1c0,0,1,0,1,-1c1,0,1,-1,1,-1c1,0,1,-1,1,-1c0,0,0,-1,0,-1l0,-1l-1,0l0,-1l0,-1l0,-1l1,1c0,0,0,1,0,1l0,1l1,0l0,1c0,1,0,1,-1,2c0,1,0,1,0,1c0,1,0,1,-1,1c0,0,0,1,0,1c-1,0,-1,0,-1,1l-1,0l-1,0l-1,0l-1,0c0,0,-1,0,-1,0l0,-1ZM186.5,349.5l5,-2c0,0,0,1,0,1l-5,2ZM188.5,346.5l5,-3c0,1,-1,2,-1,2l-5,2ZM183.5,361.5l0,-1l0,-1l0,-9l1,-2l0,11c0,0,0,1,0,1c0,0,0,1,-1,1ZM268.5,358.5l-2,0c-1,0,-1,0,-2,0l-1,1l-1,0l-1,1c-1,0,-1,0,-1,0c-1,0,-1,0,-1,1c-1,0,-2,0,-3,0l-1,0l-1,0c0,-1,-1,-1,-1,-2c0,1,0,1,-1,2l-1,0c-1,0,-1,0,-1,0c-1,0,-1,0,-1,-1l0,-1c-1,1,-1,1,-2,2l-1,0l-1,0c-1,0,-1,0,-2,-1l-1,0c0,1,0,1,-1,1c0,0,-1,0,-1,0l-1,0l-1,-1l-1,1c-1,0,-1,0,-1,0l-1,0l-1,0l-1,0c-1,0,-2,0,-2,-1c-1,0,-1,-1,-1,-2l0,-8l1,-2l0,10l1,1l1,0l1,0l1,0l1,0l1,0c0,0,0,-1,1,-1c1,-1,2,-2,2,-2l1,1l1,1l1,1c0,0,1,0,1,0l1,0l1,0l1,0c0,0,1,0,1,0l0,-1l1,-1l0,1c0,1,0,1,1,1l1,0l1,0c0,0,1,0,1,-1l0,-1l0,-1l-1,-7l1,-2l1,11c0,0,0,1,0,1c1,0,1,0,1,0l1,0c0,0,1,0,1,0c0,0,1,0,2,0l1,0l1,-1l1,0l-1,-1l-1,0l-1,0l-1,-1c0,0,0,1,0,1l-1,0c0,-1,0,-1,0,-1c1,-1,1,-1,1,-1c0,0,1,0,1,0l1,0l1,0l2,1l1,0c0,1,0,1,1,1l1,0c0,0,1,0,1,0l1,0ZM259.5,348.5l4,-2l0,1l-4,2ZM254.5,367.5l-4,2c0,-1,0,-1,0,-1l4,-2ZM250.5,364.5l-2,-1l0,2l-2,-1l1,-2l1,1l1,-1l2,1ZM242.5,360.5l-1,-2c0,0,-1,0,-1,-1l0,1l-1,0c0,0,0,1,1,1l1,0ZM240.5,344.5l-5,3l0,-1l5,-3c0,0,0,1,0,1ZM235.5,345.5l0,-1l5,-3c0,1,0,1,0,1ZM300.5,348.5l-2,1c-1,0,-2,1,-3,1c-2,1,-3,1,-3,2c-1,0,-1,0,-1,0l1,1l2,1c0,0,1,1,1,1c1,1,1,1,1,2c0,0,0,1,0,1c0,1,0,1,0,1c0,1,0,1,-1,1l0,1c-1,0,-1,0,-1,0c-1,0,-1,0,-2,0c-1,0,-1,0,-1,-1c0,0,-1,0,-1,0c0,-1,0,-1,0,-2l-1,-8l1,-2l1,4c0,-1,0,-1,0,-1c1,-1,1,-1,1,-1c0,0,1,-1,3,-1c1,-1,3,-1,4,-2c1,0,1,0,2,0ZM292.5,359.5l1,0c0,0,1,0,1,0c0,0,1,0,1,0c1,-1,1,-1,1,-1l-1,-1c0,0,-1,-1,-1,-1c-1,-1,-1,-1,-1,-1l-1,0l-1,0c0,0,0,-1,0,-1l0,4l0,1c1,0,1,0,1,0ZM295.5,345.5l4,-2c0,0,0,1,0,1l-4,2ZM281.5,355.5l-1,-1l1,-2l1,1ZM281.5,364.5c-1,0,-1,0,-2,0c0,0,-1,0,-1,-1c-1,0,-1,0,-1,-1c0,0,-1,-1,-1,-2l1,-1c0,0,0,-1,0,-1c0,0,0,-1,0,-1l1,0l0,1c-1,0,-1,1,-1,1c0,1,0,1,0,1l1,1c1,1,1,1,1,1c1,0,1,0,2,0c1,0,2,0,2,0c1,0,2,-1,2,-1c0,0,0,-1,0,-1c0,0,0,-1,0,-1c0,-1,0,-1,0,-1l0,-1l0,-1c0,0,-1,0,-1,0l0,-1l1,-2c0,1,0,1,0,1c0,1,1,1,1,1c0,1,0,1,0,1l0,1l0,1c0,0,0,1,0,1c0,1,0,1,0,2c0,1,-1,1,-1,2c-1,0,-1,0,-2,1c-1,0,-2,0,-2,0ZM277.5,348.5l4,-2l0,1l-4,2ZM244.5,348.5c0,0,1,0,1,0c0,0,1,0,1,0c1,0,1,0,2,0l0,1l0,1c-1,0,-1,0,-1,0c0,0,-1,0,-1,0l-1,0c0,0,-1,0,-1,0l2,0c1,0,1,-1,1,-1c-1,0,-1,0,-1,0c-1,0,-1,0,-1,0c-1,0,-1,0,-1,0l0,-1ZM195.5,348.5l1,0c0,0,1,0,1,0c0,0,1,0,1,0c1,0,1,0,1,1c0,0,0,1,-1,1l0,1c0,0,-1,0,-1,0c-1,0,-1,0,-1,0l-1,0l2,-1c0,0,1,0,1,-1l-1,0c-1,0,-1,0,-2,0l-1,1l0,-1l1,0l0,-1ZM81.5,254.5c0,0,-1,0,-1,0l0,1l-1,0l-1,0l-1,0l-1,0l0,-1l-1,0l0,-1c0,-1,0,-2,0,-2c0,-1,1,-1,1,-1c-1,0,-1,0,-1,0l-1,0l1,-1l1,0l1,0l1,0l1,0l-1,1c0,0,-1,0,-2,0l0,1c0,0,-1,0,-1,0c0,1,0,1,0,1c0,1,0,1,0,1c0,0,1,0,1,1l1,0l1,0ZM78.5,252.5l-1,0c0,0,0,-1,0,-1l0,1c1,0,1,0,1,0ZM115.5,260.5l-2,-1l-1,1l-1,-1l1,-1l1,1l1,-1l2,1ZM113.5,268.5l-1,0l-1,0l0,1l-1,0c0,1,0,2,0,2c0,1,-1,1,-1,1c0,0,0,1,-1,1l-1,1l-1,0l-1,0c0,0,-1,0,-2,-1l1,0c1,0,1,0,2,0c0,0,0,-1,1,-1l1,0c0,-1,0,-1,0,-1c1,-1,1,-1,1,-1c0,-1,0,-1,1,-1c0,-1,0,-1,0,-1l-1,0c0,0,0,-1,0,-1l0,-1c0,0,0,-1,0,-1l1,0c0,1,0,1,0,1c0,0,1,0,1,1l1,0l1,0l1,-1c1,0,1,0,1,0l0,-1c0,0,0,-1,0,-1l-1,0l1,-2l0,1l1,0l0,1l0,1l0,1l0,1c0,0,-1,0,-1,0c0,1,0,1,-1,1c-1,0,-1,0,-1,0ZM113.5,252.5l4,-2l-1,1l-4,2ZM109.5,263.5l-1,-1l1,-1l1,1ZM108.5,256.5c0,0,0,-1,1,-1l1,0l0,1l0,1l0,1l0,1l-1,-1l0,1l-1,0c0,1,0,1,-1,1l-1,0l1,-1l1,0l0,-1l1,0l-1,0c0,-1,0,-1,0,-1c0,-1,0,-1,0,-1ZM109.5,256.5c0,0,-1,0,-1,0l1,0l0,1l0,-1ZM102.5,264.5c-1,0,-1,0,-1,1l1,0c0,-1,0,-1,0,-1ZM102.5,272.5c-1,0,-1,0,-1,0c0,1,0,1,-1,1c0,0,-1,0,-1,0l-1,0c0,0,-1,0,-1,0c-1,0,-1,-1,-1,-1l1,0c1,0,1,0,1,0c0,0,1,0,1,0c1,0,1,-1,1,-1c0,0,1,0,1,0c1,-1,1,-1,1,-1c0,0,0,-1,1,-1c0,-1,0,-2,0,-2c0,0,-1,0,-1,0l-1,0c0,0,-1,0,-1,0l0,-1l0,-1c0,-1,0,-1,1,-2c1,-1,1,-1,1,-1c0,0,1,0,1,0c0,1,0,1,0,1c0,1,1,1,1,1c0,0,0,1,0,1c0,1,0,1,0,1c0,1,0,1,0,1c0,1,0,2,-1,3c0,0,0,1,-1,1c0,0,0,1,0,1ZM94.5,267.5l-1,0c0,1,0,1,0,1l1,0c0,-1,0,-1,0,-1ZM95.5,269.5c-1,0,-1,0,-2,0c0,1,0,1,0,1c-1,0,-1,0,-2,0c-1,0,-1,0,-1,0c0,0,-1,0,-1,-1l0,-1c1,0,1,0,1,0l1,0l1,-1c0,0,0,-1,1,-1c0,0,0,-1,-1,-1c0,-1,0,-1,0,-1c-1,-1,-1,-1,-2,-2l-1,-1c0,0,0,-1,-1,-1c0,0,-1,0,-1,0l-1,0c0,0,0,-1,0,-1c0,-1,-1,-1,-1,-1c0,-1,0,-1,0,-1c0,-1,1,-1,1,-1c0,0,1,1,1,1c1,1,1,1,2,1c1,1,1,2,2,2c0,1,1,2,1,3c1,0,1,0,1,1c0,0,1,0,1,1c0,-1,0,-1,0,-2c0,0,0,-1,0,-1c0,-1,0,-2,0,-2c0,0,0,-1,0,-2c0,0,0,-1,0,-1c0,-1,0,-1,0,-1l0,-1c1,0,1,0,1,0c0,0,0,1,0,1c1,0,1,0,1,0c0,0,0,1,0,1c0,0,0,1,0,1c0,0,-1,0,-1,0c0,1,0,1,0,2c0,0,0,1,0,1c0,1,0,1,0,1c0,1,0,2,0,2c-1,1,-1,1,-1,1c0,1,0,1,0,1c0,0,1,0,1,0c0,1,0,1,0,1c0,0,0,1,0,1c0,0,0,1,0,1ZM91.5,252.5l6,-3c-1,1,-1,2,-1,2l-6,3ZM137.5,268.5l0,-1l0,-1l-1,-8l1,-3l1,11c0,1,0,1,0,1c-1,1,-1,1,-1,1ZM134.5,253.5l5,-2l-1,0c0,1,0,1,0,1l-4,2ZM128.5,262.5l-1,-1l1,-1l1,1ZM128.5,271.5c0,0,-1,0,-1,0c-1,0,-1,0,-2,0c0,-1,0,-1,-1,-2c0,0,0,-1,0,-1c0,-1,0,-1,0,-1c0,0,0,-1,0,-1l0,-1l1,0l0,-1l1,0c-1,0,-1,0,-1,1l0,1c0,0,0,1,0,1c0,0,0,1,0,1l1,1c0,0,1,0,1,0c0,0,1,0,2,0c0,0,1,0,2,0c0,0,1,-1,1,-1c0,0,1,0,1,0c0,-1,0,-1,0,-1l0,-1l0,-1l-1,0c0,-1,0,-1,0,-1c0,-1,0,-1,0,-1l-1,0l1,-2l1,0c0,0,0,1,0,1c0,1,0,1,0,1c0,0,0,1,1,1c0,0,0,1,0,1c0,1,0,1,0,1c0,1,0,2,-1,2c0,1,0,1,-1,2c0,0,-1,1,-2,1c0,0,-1,0,-2,0ZM197.5,264.5l0,1l1,0c0,-1,0,-1,-1,-1ZM197.5,272.5c0,1,-1,1,-1,1c0,0,-1,0,-1,0l-1,0c0,0,-1,0,-1,0c-1,0,-1,-1,-1,-1l1,0c1,0,1,0,1,0c0,0,1,0,1,0c0,0,1,-1,1,-1c0,0,1,0,1,0c0,-1,1,-1,1,-1c0,0,0,-1,0,-1c1,-1,1,-2,1,-2l-1,0l-1,0c-1,0,-1,0,-1,0l0,-1l0,-1c0,-1,0,-1,0,-2c1,0,1,0,1,0c0,-1,1,-1,1,-1l1,0c0,1,0,1,0,1c0,1,0,1,0,1c1,0,1,1,1,1c0,1,0,1,0,1c0,1,0,1,0,1c0,1,-1,2,-1,3c0,0,0,1,-1,1c0,0,0,1,-1,1ZM195.5,259.5l4,-3l0,1c-1,0,-1,0,-1,0l-4,3ZM191.5,268.5l0,-1l0,-1l-1,-8l1,-3l1,11c0,1,-1,1,-1,1c0,1,0,1,0,1ZM176.5,251.5l4,-2l0,1l-4,2ZM186.5,251.5l1,0c0,0,1,0,1,0c0,0,1,0,1,0l0,1l0,1l-1,0l-1,0l-1,0l2,0l1,-1l-1,0c-1,0,-1,0,-1,0c-1,0,-1,0,-1,0ZM166.5,272.5l0,-1l1,0l0,1c1,0,2,-1,3,-1c0,-1,1,-1,1,-1c1,-1,1,-1,1,-2c1,0,1,0,1,-1c0,-1,0,-1,0,-1l-1,-1l0,-1l0,-1l0,-1l1,1c0,0,0,1,0,1l1,1l0,1c0,1,0,1,-1,2c0,0,0,1,0,1c0,1,0,1,-1,1c0,1,0,1,0,1c0,0,-1,1,-1,1l-1,0l-1,0l-1,0c-1,0,-1,0,-1,0c0,0,-1,0,-1,0ZM101.5,254.5l1,0l1,0c0,0,1,0,1,0c1,0,1,0,1,0c0,1,0,1,0,1c0,0,-1,0,-1,1c-1,0,-1,0,-1,0l0,1c-1,0,-1,0,-1,0l-1,0l1,-1c1,0,2,0,2,-1l-1,0c-1,0,-1,0,-2,0l-1,0c1,-1,1,-1,1,-1ZM168.5,257.5l1,0l1,0c0,0,1,0,1,0c1,0,1,0,1,1c0,0,-1,1,-1,1c-1,1,-1,1,-1,1c-1,0,-1,0,-1,0l-1,0l1,-1c1,0,2,0,2,-1l-1,0l-1,0l-1,0l-1,1l0,-1c0,0,1,0,1,-1ZM159.5,261.5l-2,-1l1,-1l1,1ZM156.5,268.5l0,1c0,1,0,1,0,2c0,0,0,-1,0,-1l-1,0l0,-1c0,-1,0,-1,0,-1l0,1l0,1c-1,0,-1,0,-1,0c0,1,0,1,0,2c0,0,0,1,-1,1c0,0,0,1,-1,1l-1,1c0,0,-1,0,-1,0c0,0,-1,0,-1,0c-1,0,-2,0,-3,0c0,0,-1,0,-1,-1c-1,0,-1,-1,-1,-1c0,-1,0,-1,0,-1l0,-1c0,0,0,-1,0,-1c0,-1,0,-1,0,-1c0,-1,1,-1,1,-2l1,1l-1,0c0,0,0,1,0,1c0,1,0,1,0,1c0,1,0,1,0,2c0,0,0,1,1,1c0,0,1,0,1,0l1,1l1,0c0,0,1,-1,1,-1c1,0,1,0,2,0c0,-1,1,-1,1,-2c1,0,1,-1,1,-1c0,-1,0,-1,-1,-2c0,0,0,-1,0,-1l1,-2c0,0,0,1,0,1c0,0,0,1,1,1l1,0l1,-1l1,-1l1,-1l1,0l1,-1c1,0,1,0,1,0c1,0,1,-1,2,-1c0,0,0,1,0,1c1,0,1,0,1,0c0,0,1,0,1,1l0,1c0,0,0,1,0,1l-1,1c0,0,-1,1,-2,1c-1,0,-1,0,-2,0l-1,0l-1,0l-1,0ZM161.5,265.5l-1,0l-1,1l-2,1l4,0c1,0,2,-1,2,-1c1,0,1,0,2,0c0,0,0,-1,0,-1c-1,0,-1,0,-1,0l0,-1l-1,0c0,0,-1,0,-1,0c0,0,-1,0,-1,1ZM153.5,256.5l4,-2c0,0,0,1,0,1l-4,2ZM265.5,268.5l0,-1l0,-1l0,-8l0,-3l1,11c0,1,0,1,0,1c0,1,-1,1,-1,1ZM257.5,267.5c1,0,1,0,1,0c1,0,1,-1,1,-1c1,0,1,0,1,0l0,-1l0,-2l0,-6c-1,0,-1,0,-1,0c0,-1,0,-1,0,-1l1,-1l0,1c1,0,1,0,1,0c0,0,0,1,0,1c0,0,0,1,0,1c0,0,0,1,0,2c0,0,0,1,0,2c0,1,0,1,0,2l0,1l0,1l0,1c0,0,-1,0,-1,0l0,1l-1,0c-1,0,-1,0,-1,0l-1,0l-1,0c-1,-1,-1,-1,-1,-1c0,0,0,-1,0,-1l0,1c0,0,-1,0,-1,0c0,1,-1,1,-1,1c-1,0,-1,0,-2,-1c-1,1,-1,1,-2,1c-1,0,-1,0,-2,-1c-1,1,-1,1,-2,1l-1,0c-1,0,-1,0,-2,0l-1,-1c0,1,0,1,0,2l-1,0l-1,-1l-1,0l-1,-1l-1,1c-1,0,-1,0,-1,0l-2,0c0,1,0,1,-1,1c0,1,0,1,0,2l-1,1l-1,1c-1,0,-1,0,-1,0c0,0,-1,1,-1,1l-1,0c0,0,-1,-1,-2,-1l0,-1c0,1,0,1,1,1c1,0,1,0,2,0c0,-1,0,-1,1,-1c0,0,0,-1,1,-1c1,-1,1,-1,1,-1c0,-1,0,-1,0,-1c1,0,1,0,1,0c0,-1,0,-1,0,-1c-1,0,-1,0,-1,0c-1,0,-1,0,-1,0c-1,0,-1,-1,-1,-1c0,-1,0,-1,0,-1c0,0,0,-1,0,-1l0,-1c1,0,1,0,1,0c1,-1,1,-1,1,-1l1,1c0,0,0,1,0,1c0,0,1,0,1,0c0,1,0,1,0,2l1,0c1,0,1,0,1,0l1,-1l1,-1c1,-1,2,-2,2,-2l1,1l1,1l1,1c0,0,1,0,1,0l0,1l1,0l1,0l1,0l0,-1c1,0,1,-1,2,-1l0,1c0,0,1,0,1,1c1,0,1,-1,2,-1l1,-1l0,-1c0,1,0,1,0,2c1,0,1,0,1,0c1,0,1,0,1,0l1,-1l0,-1c1,2,1,3,2,3ZM250.5,258.5l0,1c0,0,1,0,1,0l0,-1l1,0c0,0,0,1,0,1c0,0,1,-1,1,-1l0,-1l0,1l0,1c0,0,0,1,0,1l-1,0l-1,0c0,0,0,1,-1,1c0,0,0,-1,0,-1l0,-1l0,-1ZM254.5,255.5l-6,3c1,-1,1,-1,1,-1l6,-3ZM241.5,267.5l-1,-1c0,-1,-1,-1,-1,-1l-1,0c0,1,0,1,1,1l1,0ZM231.5,265.5c-1,0,-1,0,-1,0c0,0,0,1,0,1c1,0,1,1,1,1l0,-1c1,0,1,0,1,0c-1,0,-1,0,-1,0l0,-1ZM216.5,261.5l-1,2l-1,-1l-1,1l-2,-1l1,-2l2,2l1,-2ZM222.5,266.5c-1,1,-1,1,-2,1c-1,1,-2,1,-3,1c-1,1,-3,1,-4,1c-1,0,-2,0,-3,0c-2,-1,-2,-1,-3,-2l-1,-1c0,-1,0,-1,0,-1c0,-1,0,-1,1,-1c0,-1,0,-1,0,-2c1,0,1,0,1,0c0,1,-1,1,-1,1c0,1,0,1,0,1c0,1,0,1,1,1c0,1,0,1,1,1c0,1,1,1,1,1l1,0l1,0l2,0c1,0,1,0,2,0l1,0c0,0,0,-1,1,-1l1,0c0,0,1,0,2,-1c0,0,1,0,1,-1c-1,-1,-1,-1,-1,-1c0,0,0,-1,0,-1c0,0,1,-1,1,-1c0,0,0,1,0,1l0,1c0,0,1,0,1,0l0,1c0,0,0,1,-1,1c0,1,0,1,0,1ZM216.5,272.5l-4,2c0,-1,0,-1,0,-1l4,-2ZM329.5,271.5l-2,-1l-1,2l-1,-1l1,-2l1,1l1,-1l2,1ZM326.5,268.5l-1,0l-1,0c-1,0,-1,0,-2,0l0,-1c-1,1,-1,1,-1,2l-1,0l-1,-1l-1,0l-1,-1l-1,1c0,0,-1,0,-1,0l-1,0l-1,0l-1,0c0,-1,-1,-1,-1,-1c0,0,0,-1,0,-1l0,1c0,0,-1,0,-1,0c0,1,-1,1,-1,1c-1,0,-1,0,-2,-1c0,1,-1,1,-1,1l-1,0c-1,0,-1,0,-1,-1c0,0,-1,0,-1,0c0,1,-1,1,-2,1c-1,0,-1,0,-2,0c0,0,-1,-1,-1,-2c0,1,0,1,-1,2c0,0,-1,0,-1,0c-1,0,-1,0,-2,0c-1,0,-2,0,-3,0c0,0,-1,0,-2,0c-1,0,-2,0,-2,0c-2,0,-3,0,-4,0c-1,0,-2,0,-4,0c-1,0,-1,0,-2,0l-1,0c0,0,-1,0,-1,0c-1,0,-1,0,-1,-1l0,-1c0,1,1,1,2,1c0,0,1,0,2,0l1,0c1,0,2,0,4,0c1,0,3,0,4,0c1,0,2,0,2,0c1,0,2,0,3,0c1,0,1,0,2,0c1,0,1,0,2,0l0,-1c1,0,1,0,1,0c0,0,1,0,1,0c0,0,0,-1,0,-1c0,-1,0,-1,0,-1c0,0,0,-1,0,-1l-1,-7l1,-2l1,11l0,1c1,0,1,0,1,0c0,1,0,1,1,1l1,0l0,-1l1,0c0,0,1,-1,1,-1l0,1c1,0,1,0,1,1c1,0,1,-1,2,-1l1,-1l0,-1c0,1,0,1,0,2c1,0,1,0,1,0l1,0l1,-1l0,-1c1,2,1,3,2,3l1,0l1,0c0,0,1,0,1,-1c0,0,1,0,1,-1c1,-1,2,-2,3,-2l0,1l1,1l1,1c1,0,1,0,1,0l0,1l1,0l1,0l1,0c0,0,1,0,1,-1c1,0,1,0,1,0l1,0l0,-1l-1,0c0,-1,0,-1,0,-1l0,-2c1,0,1,0,1,1c0,0,0,1,0,1c0,0,0,1,0,1l0,1l0,1c-1,1,-1,1,-2,1c0,0,-1,0,-1,0ZM328.5,252.5l1,0c0,-1,0,-1,0,-1l1,0c0,1,0,1,0,1c0,0,0,1,0,1l0,1l0,2l-1,-1l-1,1l-1,1l-1,0l0,-1l1,0l1,-1l1,0l-1,-1l0,-1l0,-1ZM329.5,253.5l0,-1c0,0,-1,0,-1,1l1,0l0,1l0,-1ZM321.5,267.5l-1,-1c0,-1,0,-1,0,-1c-1,0,-1,0,-1,0l-1,0c0,1,1,1,1,1l1,0ZM126.5,251.5c0,0,1,0,1,0c1,0,1,0,1,0c1,0,1,0,2,0l0,1c0,0,0,1,0,1c0,0,-1,0,-1,0c0,0,0,1,0,1c0,0,-1,0,-1,0l-1,0l-1,0l2,-1c1,0,1,0,2,-1c-1,0,-1,0,-1,0c0,0,-1,0,-1,0c0,0,-1,0,-1,0c0,0,-1,0,-1,0l0,-1ZM317.5,253.5c1,0,1,0,1,0c1,-1,1,-1,2,-1c0,0,1,0,1,1c0,0,1,0,1,0c-1,1,-1,1,-1,1c0,1,0,1,-1,1c-1,0,-1,0,-1,0l-1,0l1,0c1,0,1,-1,2,-1c0,0,-1,0,-1,0l-1,0c0,0,-1,0,-1,0l-1,0l0,-1ZM310.5,271.5l-4,3c0,-1,0,-1,0,-1c1,0,1,-1,1,-1l4,-2ZM289.5,264.5c-1,0,-1,0,-1,0c0,1,-1,1,-1,1c0,0,-1,0,-1,0c-1,0,-1,0,-1,0c0,0,0,-1,0,-1c1,0,2,0,2,0c1,0,1,-1,1,-1l-1,0l-1,0c0,-1,0,-1,0,-1c0,0,0,-1,0,-1c1,-1,1,-1,1,-1c0,-1,1,-1,1,-1c1,0,1,0,1,-1l0,2c-1,0,-1,0,-1,0c0,0,-1,0,-1,1l1,0c1,1,1,1,1,1l0,1l0,1ZM282.5,252.5c1,0,1,0,1,0c0,-1,1,-1,1,-1c0,1,1,1,1,1c0,0,0,1,0,1l-1,0l0,1l1,0l0,2l-1,-1l-1,0l0,1c-1,0,-1,0,-1,1l-1,0l-1,0l1,-1l1,0l0,-1l1,0l0,-1l-1,0l0,-1l0,-1ZM284.5,253.5l-1,-1l0,1l1,0l0,1l0,-1ZM354.5,268.5l0,-1l0,-1l-1,-8l1,-3l1,11c-1,1,-1,1,-1,1c0,1,0,1,0,1ZM349.5,268.5c-1,0,-1,0,-2,-1c0,0,-1,-1,-1,-1c0,0,0,1,0,1c-1,1,-1,1,-2,1c-1,0,-1,0,-2,0c0,-1,0,-2,-1,-3l0,1c0,0,0,1,-1,1l-1,0c-1,0,-1,0,-1,0c-1,0,-1,0,-1,-1c0,0,0,-1,0,-1c1,0,1,-1,1,-1c1,0,1,-1,2,-1l1,0l0,-1l0,-1c1,-1,1,-1,1,-1l0,1l0,1l0,3c1,1,1,1,1,1c0,0,1,0,1,0c0,0,1,0,1,0c0,0,1,-1,1,-1c0,-1,0,-1,0,-2c0,-1,0,-1,-1,-2c0,0,0,-1,0,-1l1,-1l0,-1l0,2l1,2l0,2c0,1,0,1,0,1c0,0,1,1,1,1l1,0c0,0,1,0,1,0c0,0,0,-1,0,-1c0,0,0,-1,0,-1l-1,-2l0,-1l0,-1l0,-1l0,-1c0,1,1,1,1,1c0,1,0,1,0,2l0,2c0,0,1,1,1,1c0,1,-1,2,-1,2c0,1,0,1,0,1c-1,1,-1,1,-1,1ZM341.5,263.5c-1,1,-1,1,-1,1c-1,0,-1,1,-1,1c0,0,1,0,2,0ZM336.5,255.5l4,-2c0,1,0,1,0,1l-4,2ZM343.5,254.5l0,1l1,1c1,0,1,-1,1,-1l0,-1l1,0l0,1c1,0,1,0,1,-1l0,-1l0,1l0,1c0,1,0,1,0,1l-1,0l-1,0l0,1c-1,0,-1,0,-1,0c-1,0,-1,0,-1,0l0,-1l0,-1ZM376.5,268.5l0,-1l0,-1l-1,-8l1,-3l1,11c0,1,0,1,0,1c-1,1,-1,1,-1,1ZM379.5,272.5l-4,1c0,0,1,0,1,-1l3,-1ZM367.5,262.5l-1,-1l1,-1l1,1ZM367.5,271.5c0,0,-1,0,-1,0c-1,0,-1,0,-2,0c0,-1,-1,-1,-1,-2c0,0,0,-1,0,-1c0,-1,0,-1,0,-1c0,0,0,-1,0,-1l0,-1c0,0,1,0,1,-1l1,0c-1,0,-1,0,-1,1l0,1c0,0,0,1,0,1c0,0,0,1,0,1l1,1c0,0,1,0,1,0c0,0,1,0,2,0c0,0,1,0,2,0c0,0,1,-1,1,-1c0,0,1,0,1,0c0,-1,0,-1,0,-1l0,-1l0,-1c0,0,-1,0,-1,0c0,-1,0,-1,0,-1c0,-1,0,-1,0,-1l-1,0l1,-2c1,0,1,1,1,1c0,1,0,1,0,1c0,0,0,1,0,1c1,0,1,1,1,1c0,1,0,1,0,1c0,1,-1,2,-1,2c0,1,0,1,-1,2c0,0,-1,1,-2,1c-1,0,-1,0,-2,0ZM364.5,254.5l0,1l1,0l0,-1l0,-1l1,0l0,1c1,0,1,0,1,-1l0,1l0,1l-1,0l-1,0l0,1l-1,0l0,-1l0,-1ZM368.5,251.5l-5,3c0,-1,0,-1,0,-2l6,-2ZM185.5,270.5c0,0,-1,0,-1,0c-1,0,-1,0,-1,0c-1,0,-1,0,-2,0c0,0,-1,0,-1,0c0,0,0,-1,0,-1c0,0,1,0,1,0c0,0,1,-1,1,-1c1,-1,1,-1,1,-1c0,-1,0,-1,0,-1c-1,-1,-1,-1,-1,-1c0,-1,-1,-1,-1,-2c-1,0,-1,-1,-2,-1c0,0,0,-1,0,-1c-1,0,-1,0,-1,0c-1,0,-1,0,-1,0c-1,-1,-1,-1,-1,-2c0,0,0,-1,0,-1l0,-1c1,0,1,1,2,1c0,0,1,1,1,1c1,1,1,2,2,2c0,1,1,2,2,2c0,1,0,1,0,2c1,0,1,0,1,0l0,-1c0,0,1,-1,1,-2c0,0,0,-1,0,-1c0,-1,0,-1,0,-2c0,0,0,-1,0,-1c0,0,-1,0,-1,-1c0,0,0,-1,1,-1c0,0,0,-1,0,-1c0,1,0,1,0,1c0,0,1,0,1,1l1,0c-1,0,-1,1,-1,1l0,1c0,1,0,1,0,2l0,1c0,0,-1,1,-1,1c0,1,0,1,0,2c0,1,0,1,-1,1c1,0,1,1,1,1c0,0,0,1,0,1l0,1l0,1ZM184.5,267.5l-1,1c0,0,0,1,0,1c0,0,1,0,1,0l0,-1ZM345.5,252.5c0,-1,0,-1,0,-2c0,-1,-1,-1,-1,-2l1,0l0,1l0,1l0,1c0,1,0,1,0,1ZM237.5,259.5l0,-1c0,0,0,-1,0,-1c0,-1,0,-1,0,-2l0,-1c0,0,1,1,1,1c0,1,0,1,0,1l0,1c0,1,0,1,0,1c0,0,0,1,-1,1ZM230.5,261.5l0,-1c0,0,0,-1,0,-1c0,-1,0,-2,-1,-2l1,0l0,-1l0,1c1,0,1,1,1,1l0,1c0,0,0,1,0,1c-1,0,-1,0,-1,1ZM77.5,260.5l-1,0c0,0,0,1,0,1c0,1,0,1,1,1l1,0c0,0,1,-1,1,-1c0,0,-1,0,-1,0c0,0,0,-1,0,-1l-1,0Z" class="g1_54" />
<path fill-rule="evenodd" d="M183.5,585.5l1,0c0,0,0,-1,0,-1l1,-1l0,-1l-1,0l0,-2l0,-1l1,0c0,1,0,1,0,1l0,1l0,1l0,1l0,1l0,-1l1,0c1,0,1,-1,1,-1c1,0,1,0,1,1l1,0l0,1c-1,0,-1,0,-1,0c0,0,0,1,0,1l-1,0l-1,0c0,0,-1,0,-1,0ZM147.5,588.5l0,-1l0,-1l0,-9l1,-2l0,11l0,1c0,0,0,1,-1,1ZM145.5,572.5l5,-2l-1,1l-4,2ZM136.5,591.5c0,0,1,0,1,0l1,0c0,0,1,0,2,-1c1,0,1,0,2,-1c0,0,1,-1,1,-1c0,-1,0,-1,0,-1c0,0,0,-1,0,-1l0,-1l-1,-1l1,-1l0,-1l0,1c0,0,1,0,1,1l0,1l0,1c0,1,0,1,0,2c0,0,0,1,-1,1c0,0,0,1,0,1c0,0,-1,1,-1,1l-1,0l0,1c-1,0,-1,0,-1,0c-1,0,-1,0,-1,0l-1,0c0,0,-1,0,-1,0l-1,-1ZM138.5,577.5c0,0,1,0,1,0c0,0,1,-1,1,-1c1,0,1,1,2,1l0,1l0,1c-1,0,-1,0,-1,0c-1,0,-1,0,-1,0c0,0,-1,0,-1,0c0,0,-1,0,-1,0l2,0c1,0,1,-1,1,-1c-1,0,-1,0,-1,0c-1,0,-1,0,-1,0c-1,0,-1,0,-1,0l0,-1ZM128.5,586.5l0,1l-1,0l-1,1c0,0,-1,0,-1,0c-1,0,-1,0,-1,0c-1,-1,-1,-1,-1,-2c-1,0,-1,1,-1,1c-1,1,-1,1,-1,1l-1,0l-1,0c0,0,0,-1,-1,-1c0,0,0,-1,0,-1c0,1,-1,1,-1,1c-1,1,-1,1,-2,1l-1,0l-1,0c0,0,0,-1,-1,-1c0,-1,0,-2,0,-3c-1,1,-1,1,-1,2c-1,0,-1,1,-2,1c-1,0,-1,1,-2,1l-1,0l-1,0l-1,0l-1,0l-1,0c-1,0,-1,0,-1,0l-1,0c-1,0,-2,0,-2,-1c-1,-1,-1,-1,-1,-2l0,-1c0,-1,0,-1,1,-1l0,-1c0,1,0,1,0,1c0,2,0,2,2,3c0,0,1,0,2,0c0,0,1,0,1,0l1,0l1,0l1,0l1,0c2,0,4,-1,4,-3l1,0l-1,-7l1,-2l1,11l0,1l1,0l1,0c1,0,1,0,1,0c1,0,1,0,1,0c0,0,0,-1,0,-1c1,0,1,0,1,-1c0,1,0,1,0,1c0,1,1,1,1,1c0,0,1,0,1,0c1,0,1,0,1,0c0,0,1,0,1,-1c0,0,0,-1,0,-1l0,-1l0,-7l1,-2l0,11c0,0,1,0,1,1c0,0,1,0,1,0c1,0,1,0,1,0c1,0,1,0,1,0c1,-1,1,-1,1,-2l1,0l0,1l0,1l1,0c0,0,1,0,1,0c0,0,1,0,1,-1l0,-1l1,0l0,1l0,1l1,0l1,0l0,-1l0,-1l1,0l0,1l0,1l0,1l-1,0c0,1,0,1,-1,1l-1,0c0,0,0,-1,0,-1l-1,0l-1,0c0,0,0,1,0,1l-1,0l-1,0c-1,-1,-1,-1,-1,-1c0,0,0,-1,0,-1ZM128.5,575.5l4,-2l0,1l-4,2ZM121.5,566.5l1,0l1,0c0,0,1,0,1,0c1,0,1,0,1,1c0,0,-1,1,-1,1c-1,0,-1,0,-1,1c-1,0,-1,0,-1,0l-1,0l1,-1c1,0,2,0,2,-1c0,0,-1,0,-1,0l-1,0l-1,0l-1,0c0,0,1,-1,1,-1ZM117.5,583.5l-1,-1l1,-1l1,1ZM105.5,583.5c0,0,-1,1,-1,1c-1,0,-1,-1,-1,-1c-1,0,-1,0,-1,0l1,0l1,0c0,-1,0,-1,0,-1c0,0,1,0,1,0l-1,0c-1,0,-1,0,-1,-1c0,0,0,-1,0,-1c1,-1,1,-2,2,-3l0,2c-1,0,-1,0,-1,1l1,0c1,0,1,1,1,1c0,0,0,1,0,1l-1,1ZM102.5,575.5l4,-2l-1,1l-4,2ZM175.5,584.5c-1,0,-1,0,-1,0c0,0,0,1,0,1l1,0c0,-1,0,-1,0,-1ZM175.5,592.5c-1,0,-1,0,-1,0l-1,0c0,1,-1,1,-1,1l-1,0c0,0,-1,-1,-1,-1c-1,0,-1,0,-1,0l0,-1c0,1,0,1,1,1c1,0,1,0,1,0c0,0,1,0,1,0c0,-1,0,-1,0,-1c1,0,1,0,1,0c0,0,1,-1,1,-1c1,0,1,0,1,-1l1,-1c0,0,0,-1,0,-1l0,-1c0,0,0,1,0,1c-1,0,-1,0,-1,0l-1,0c0,0,-1,0,-1,-1l0,-1c0,-1,0,-1,0,-1c0,0,0,-1,1,-1c0,0,0,-1,0,-1c0,0,1,0,1,0c0,0,1,0,1,0l0,1c0,0,1,0,1,1l0,1c0,0,0,1,0,1l0,1c0,1,-1,2,-1,3l-1,1l0,1ZM172.5,578.5l4,-2l0,1l-1,0l-4,2ZM168.5,587.5l-1,0c-1,0,-1,0,-1,0l-1,-1l0,1c-1,0,-1,0,-1,1l-1,0l-1,0l-1,0c-1,0,-2,0,-2,-1c-1,0,-1,-1,-1,-2l0,-8l1,-2l0,9l0,1l0,1c1,0,1,0,2,0l1,0l1,0c1,0,1,0,1,0l1,-1c0,-1,1,-1,1,-2c1,0,1,-1,1,-1c0,0,1,1,1,1c0,0,0,1,1,1l0,1l0,1l0,1c-1,0,-1,0,-1,0ZM166.5,585.5l1,0l1,1c0,-1,0,-1,-1,-1c0,-1,0,-1,0,-1c-1,0,-1,0,-1,1ZM163.5,575.5l4,-2l0,1l-4,2ZM156.5,572.5c0,0,1,0,2,0c0,0,1,0,1,0l1,0l1,0c0,0,-1,1,-1,1l-1,0l-1,0c0,0,-1,0,-1,0l-1,0l-1,0c0,-1,0,-1,1,-1ZM214.5,581.5l-1,-1l0,-1l2,1ZM214.5,586.5c0,0,1,0,1,0c1,0,1,0,1,0c0,0,0,-1,0,-1l0,-1l-1,-1l1,-1c0,0,1,0,1,1c0,0,0,1,0,1c0,0,0,1,0,1c0,0,0,1,0,1c0,0,-1,1,-1,1l-1,1c0,0,-1,0,-1,0l-1,0l-1,0l0,1c0,1,-1,1,-1,2l-1,1l0,1c-1,0,-1,0,-1,0c-1,0,-1,0,-1,0c-1,0,-1,1,-1,1l-1,0c0,0,-1,-1,-1,-1c0,0,-1,0,-1,0c0,-1,0,-1,0,-1c0,0,1,1,1,1c1,0,1,0,2,-1c0,0,1,0,1,0c0,0,1,-1,1,-1l1,-1l0,-1c0,0,1,0,1,-1l0,-1c-1,0,-1,-1,-1,-1l0,-1c0,0,1,0,1,0l0,1l1,0l1,0ZM214.5,575.5l4,-2l-1,0l0,1l-4,2ZM211.5,583.5l-2,-1l1,-2l2,1ZM207.5,575.5l4,-2l0,1l-4,2ZM203.5,576.5c0,-1,0,-1,0,-1c0,-1,0,-1,0,-1c0,1,0,1,0,1l1,0c0,0,0,1,1,1c0,0,-1,0,-1,1c0,1,0,2,0,3c0,1,0,2,0,2c0,2,0,3,0,4l0,1c0,0,0,1,0,1c-1,1,-1,1,-1,2c-1,0,-1,0,-1,0c0,0,-1,1,-1,1c-1,0,-2,0,-3,0l-1,0c-1,0,-1,0,-2,-1l0,-1c-1,0,-1,-1,-1,-1c0,-1,0,-1,1,-2c0,0,0,-1,0,-1l1,-1l0,1c0,0,-1,0,-1,1l0,1c0,0,0,1,1,1c0,1,1,1,2,1l1,0c0,0,1,0,2,0c1,-1,2,-1,2,-2l0,-1c0,-1,0,-2,0,-3c0,-1,0,-2,0,-3c0,-2,0,-3,0,-4ZM195.5,575.5l4,-2l-1,0l0,1l-4,2ZM264.5,584.5c-1,0,-1,0,-1,0c0,0,0,1,0,1c0,0,1,0,1,0c1,0,1,0,1,0c0,-1,0,-1,-1,-1ZM264.5,592.5l-1,0c-1,1,-1,1,-2,1c-1,0,-1,-1,-2,-1l-1,0l0,-1c1,1,1,1,1,1c0,0,1,0,1,0l1,0c0,-1,1,-1,1,-1c1,0,1,-1,2,-1l0,-1c0,0,1,0,1,-1c0,0,0,-1,0,-1l0,-1c0,0,0,1,0,1c-1,0,-1,0,-1,0l-1,0l0,-1c0,0,-1,0,-1,0l0,-1c0,-1,0,-1,0,-1c1,0,1,-1,1,-1c0,0,0,-1,1,-1c1,0,1,0,1,0c0,0,1,0,1,1l0,1l0,1c0,0,0,1,0,1l0,1c0,1,0,2,-1,3l0,1c0,0,-1,0,-1,1ZM261.5,578.5l4,-2l0,1l-4,2ZM257.5,592.5l-1,-1l1,-2l1,1ZM255.5,588.5l-1,0l-1,0c-1,0,-2,0,-2,-1c-1,0,-1,-1,-1,-2l-1,-8l1,-2l1,9l0,1l0,1c1,0,1,0,2,0l1,0l1,0c1,0,1,0,2,0l1,0l0,-1l0,-1c-1,0,-1,0,-1,0l0,-1l1,-1l0,1l0,1l1,0l0,1l-1,0c0,0,0,1,0,1c0,0,0,1,0,1c0,0,-1,0,-2,1l-1,0ZM257.5,594.5l-4,2c0,-1,0,-1,0,-1l4,-2ZM241.5,577.5l1,2c0,1,-1,1,-1,2l0,1l2,1c0,0,1,1,2,1c0,0,1,0,1,0c0,0,1,0,1,0l1,0l0,1l-2,0l-1,0l-1,0c0,0,0,1,0,1l-1,0l-1,0l-3,1l-1,1l-1,0l-1,0l-1,0l-1,0l0,1c0,0,0,1,0,1l-1,1c0,0,-1,1,-2,2c-1,0,-2,1,-3,1l-1,0c-1,0,-1,-1,-2,-1c-1,0,-1,0,-1,-1c-1,0,-1,-1,-1,-2c0,-1,0,-1,0,-2c0,0,1,-1,1,-2c0,0,1,-1,1,-1l0,1l-1,1c0,1,0,1,0,2c0,0,0,1,0,1c0,1,1,1,1,1c1,1,2,1,2,1c0,0,1,0,1,0c1,0,1,0,2,-1c0,0,1,0,1,0c1,0,1,-1,1,-1c1,0,1,0,1,-1l0,-1l-1,0c-1,0,-1,0,-1,0c-1,0,-1,-1,-1,-1c0,0,0,-1,0,-1c0,0,0,-1,0,-1c0,-1,0,-1,0,-1c1,-1,1,-1,2,-1l1,1l0,1c0,0,1,0,1,0c0,1,0,1,0,1l2,0l1,0l1,0l1,0l1,0l0,-1l1,0l1,0l-1,0l0,-1l-1,0l-1,0l-1,0c0,0,-1,0,-1,0l0,-1l0,1l0,-1l0,-1c1,0,1,0,1,0c0,0,1,0,1,0l1,-1c0,0,1,0,1,-1c0,0,0,-1,0,-2l-1,-1c0,-1,0,-1,0,-1c0,0,0,-1,0,-1c0,0,0,-1,0,-1c1,0,1,0,1,-1l0,1c0,1,1,1,1,1c0,0,0,1,0,1l0,1ZM240.5,570.5l1,-1c0,0,1,0,1,0c1,0,1,0,2,1c0,1,0,1,0,1c-1,1,-1,1,-1,1c-1,0,-1,0,-1,0c0,0,-1,0,-1,0c0,0,-1,0,-1,0l2,0c0,-1,1,-1,1,-1c-1,0,-1,0,-1,0c-1,0,-1,0,-2,0c0,0,0,-1,0,-1ZM233.5,578.5l5,-2l-1,1l-4,2ZM232.5,582.5l-1,-1l-1,1l-2,-1l1,-1l2,1l1,-2l1,1ZM231.5,585.5c0,1,0,1,0,1c1,0,1,0,1,0l1,0c0,0,-1,0,-1,0c0,-1,0,-1,0,-1c0,0,-1,0,-1,0ZM229.5,574.5l0,1l1,0l0,-1l1,0l0,1c0,0,1,-1,1,-1l0,-1l0,1l0,1c0,0,0,1,-1,1l-1,-1l0,1c0,0,-1,0,-1,0l-1,-1l1,0l0,-1ZM232.5,596.5l-4,2c0,-1,0,-1,0,-1l4,-2ZM306.5,588.5l0,-1l0,-1l0,-9l0,-2l1,11l0,1c0,0,-1,1,-1,1ZM305.5,571.5l4,-2l0,1c-1,0,-1,0,-1,0l-4,2ZM299.5,581.5l-1,-1l1,-1l1,1ZM299.5,588.5l-1,0c-1,0,-1,0,-1,0l0,1c0,1,0,1,-1,2l0,1c-1,0,-1,0,-1,1c0,0,-1,0,-1,0c0,0,-1,0,-1,0c0,0,-1,1,-1,1c-1,0,-1,-1,-2,-1c0,0,-1,0,-1,0c0,-1,0,-1,0,-1c0,0,1,1,1,1l1,0c0,0,1,0,1,-1c1,0,1,0,1,0c1,0,1,-1,1,-1c0,0,1,0,1,-1l0,-1c1,0,1,0,1,-1l0,-1c0,0,-1,-1,-1,-1l1,0l0,-1l0,1l1,0l1,0l1,0c1,0,1,0,2,0l1,0c0,0,0,-1,0,-1l-1,-1l0,-1l1,-1l0,1c0,0,0,1,0,1c1,0,1,1,1,1c0,0,-1,0,-1,0c0,0,0,1,0,1c0,0,0,1,0,1c0,0,-1,0,-2,1l-1,0ZM296.5,583.5l-1,-1l0,-2l2,1ZM292.5,575.5l5,-2l-1,0l0,1l-4,2ZM286.5,586.5l1,0c1,0,1,0,1,0c0,-1,0,-1,0,-1l0,-2l0,-7c-1,0,-1,0,-1,0c0,-1,1,-1,1,-1c0,-1,0,-1,0,-1c0,1,0,1,0,1l1,0c0,0,0,1,1,1c-1,0,-1,0,-1,1c0,1,0,1,0,2c0,0,0,1,0,3c0,0,0,1,0,1l0,1c0,1,0,1,0,1l0,1c0,0,0,1,-1,1c-1,1,-1,1,-1,1c-1,0,-1,0,-1,0l-1,0l-1,0c0,0,0,-1,0,-1c-1,0,-1,0,-1,0c0,0,0,-1,0,-1c0,1,-1,1,-1,1c0,1,0,1,0,1l-1,0c0,0,-1,0,-1,0c-1,0,-1,-1,-1,-1c-1,0,-1,0,-1,-1c0,0,0,-1,0,-1c-1,1,-1,1,-1,1l-1,0l-1,0l-1,0l0,-1c0,-1,0,-1,1,-2c0,0,1,0,1,-1c1,0,1,0,1,0l0,-1l0,-1l1,0l0,-1l0,2l0,1l1,1l0,2c0,1,0,1,0,1c1,0,1,0,1,0l1,0c1,0,1,0,1,0c0,0,0,-1,1,-1l0,-1c0,1,0,1,0,1c0,1,1,1,1,1c0,0,1,0,1,0ZM286.5,570.5l1,-1c0,0,1,0,1,0c1,0,1,0,1,1c1,0,1,0,1,0c0,1,0,1,-1,1c0,1,0,1,0,1c0,0,-1,0,-1,0c0,0,-1,0,-1,0l-1,0l2,0c0,-1,1,-1,1,-1l-1,0c-1,0,-1,0,-2,0c0,0,0,-1,0,-1ZM282.5,583.5l-1,-1l1,-1l1,1ZM278.5,582.5l-1,1l-1,0l0,1c-1,0,-1,0,-1,0l1,0l1,0l1,0ZM275.5,572.5c0,0,0,-1,0,-1c1,0,1,0,1,0c1,0,1,0,1,1l0,1l-1,1l1,0l0,1l-1,0l-1,0c0,1,-1,1,-1,1l-1,0l1,-1l1,0l0,-1c0,0,-1,-1,-1,-1c0,0,1,-1,1,-1ZM276.5,572.5l-1,0l0,1l1,0c0,0,0,-1,0,-1ZM354.5,584.5c0,0,0,1,0,1l1,0c0,-1,0,-1,0,-1l-1,0ZM354.5,592.5c0,0,-1,0,-1,0c0,1,-1,1,-1,1l-1,0c0,0,-1,-1,-2,-1l0,-1c0,1,0,1,1,1c1,0,1,0,1,0l1,0c0,-1,0,-1,0,-1c0,0,1,0,1,0c0,0,1,-1,1,-1c0,0,1,0,1,-1l0,-1c1,0,1,-1,1,-1l0,-1c0,0,0,1,-1,1l-1,0l-1,0l0,-1l0,-1c0,-1,0,-1,0,-1c0,0,0,-1,0,-1c1,0,1,-1,1,-1c0,0,1,0,1,0l1,0l0,1l0,1c1,0,1,0,1,1c0,0,0,1,0,1l0,1c0,1,-1,2,-1,3c0,0,-1,0,-1,1l-1,1ZM352.5,578.5l4,-2l-1,1l-4,2ZM348.5,592.5l-1,-1l0,-2l2,1ZM345.5,588.5l-1,0l-1,0c-1,0,-1,0,-2,-1c0,0,-1,-1,-1,-2l0,-8l1,-2l0,9l0,1l1,0l0,1c0,0,1,0,1,0l1,0l1,0l1,0l1,0c1,0,1,0,1,0l0,-1l0,-1l-1,-1l1,-1l1,1l0,1l0,1c0,0,0,1,0,1c0,0,-1,1,-1,1l-1,1c-1,0,-1,0,-2,0ZM347.5,594.5l-4,2c1,-1,1,-1,1,-1l3,-2ZM332.5,577.5l0,2c0,1,0,1,0,2l0,1c-1,0,-1,0,-1,0l2,1c1,0,2,1,2,1c1,0,1,0,1,0c1,0,1,0,2,0l1,0l-1,1l-2,0l-1,0c-1,0,-1,1,-1,1l-1,0l-1,0l-2,1c0,0,-1,0,-1,0l0,1l-1,0l-1,0l-1,0l-1,0l-1,0l0,1c0,0,0,1,0,1l0,1c-1,0,-1,1,-3,2c-1,0,-2,1,-3,1l-1,0c0,0,-1,-1,-1,-1c-1,0,-2,0,-2,-1c0,0,-1,-1,-1,-2c0,-1,0,-1,1,-2c0,0,0,-1,1,-2c0,0,0,-1,0,-1l0,1l0,1c-1,1,-1,1,-1,2c0,0,0,1,1,1c0,1,0,1,0,1l1,0c0,1,1,1,1,1c1,0,1,0,1,0c1,0,1,0,1,0c0,0,1,0,1,-1c1,0,1,0,2,0c0,0,0,-1,1,-1l0,-1c0,0,1,0,1,0l0,-1l-2,0c0,0,-1,0,-1,0c0,0,0,-1,0,-1c0,0,-1,0,-1,0c0,0,0,-1,0,-1c0,0,0,-1,0,-1c1,-1,1,-1,1,-1c0,-1,1,-1,1,-1c0,0,1,0,1,1c0,0,1,0,1,1c0,1,0,1,0,1l2,0l1,0l1,0l1,0l1,0l1,-1l1,0l-1,-1l-1,0l-1,0l-1,0l-1,0l0,-1l0,1l0,-1c0,0,1,0,1,-1c1,0,1,0,1,0c0,0,1,0,1,-1c1,0,1,0,1,-1c0,0,0,-1,0,-2l0,-1c0,-1,0,-1,0,-1c0,0,0,-1,0,-1c0,0,0,-1,0,-1l0,-1l0,1l1,0c0,1,0,1,1,1c0,0,-1,1,-1,1l0,1ZM330.5,570.5c1,0,1,0,1,-1c1,0,1,0,2,0c0,0,1,0,1,1c0,0,1,0,1,0c-1,1,-1,1,-1,1c0,1,0,1,-1,1l-1,0l-1,0l1,0c1,-1,1,-1,2,-1c0,0,-1,0,-1,0c0,0,-1,0,-1,0c0,0,-1,0,-1,0l-1,0c0,0,0,-1,0,-1ZM324.5,578.5l4,-2l0,1l-4,2ZM323.5,582.5l-2,-1l-1,1l-1,-1l1,-1l1,1l1,-2l1,1ZM321.5,585.5c0,1,0,1,0,1c0,0,1,0,1,0c1,0,1,0,1,0c0,-1,-1,-1,-1,-1c0,0,-1,0,-1,0ZM319.5,574.5l0,1c0,0,1,0,1,0l1,-1l0,1l1,0c0,0,0,-1,0,-1l0,-1l0,1l0,1c0,0,0,1,0,1l-1,0l0,-1l0,1l-1,0c-1,0,-1,0,-1,0l0,-1l0,-1ZM322.5,596.5l-4,2c0,-1,1,-1,1,-1l4,-2ZM115.5,576.5l0,-1c0,0,0,-1,0,-1c0,-1,0,-1,-1,-2l1,0l0,-1c0,0,0,1,0,1c0,1,0,1,1,1l0,1c0,0,0,1,0,1c0,0,-1,0,-1,0c0,0,0,1,0,1ZM280.5,576.5c0,-1,0,-1,0,-2c0,0,0,-1,-1,-1l1,-1l1,1l0,1c0,1,0,1,0,1l0,1c0,0,-1,0,-1,0ZM187.5,583.5c0,0,-1,0,-1,1l-1,0l0,1c0,0,1,0,1,-1l1,0c0,0,1,0,1,0l0,-1l-1,0Z" class="g1_54" />
</svg>